<?xml version="1.0" standalone="no"?>
<!DOCTYPE svg PUBLIC "-//W3C//DTD SVG 20010904//EN"
 "http://www.w3.org/TR/2001/REC-SVG-20010904/DTD/svg10.dtd">
<svg version="1.0" xmlns="http://www.w3.org/2000/svg"
 width="348.293699pt" height="400.000000pt" viewBox="0 0 348.293699 400.000000"
 preserveAspectRatio="xMidYMid meet">
<metadata>
Created by potrace 1.15, written by Peter Selinger 2001-2017
</metadata>
<g transform="translate(-56.070430,450.494595) scale(0.069718,-0.069718)"
fill="#444444" stroke="none">
<path d="M4279 6449 c-26 -14 -55 -18 -120 -18 -75 1 -90 -2 -107 -19 -14 -14
-40 -23 -79 -27 -77 -9 -109 -22 -133 -55 -25 -36 -25 -83 0 -135 36 -74 118
-114 246 -118 68 -2 86 -7 112 -27 17 -14 29 -31 27 -38 -3 -7 2 -15 10 -18
27 -11 16 -33 -17 -38 -100 -15 -115 -14 -144 10 -42 34 -132 34 -168 0 -34
-31 -33 -61 7 -121 29 -44 37 -50 77 -56 25 -4 72 -16 105 -28 75 -27 91 -26
129 2 17 12 51 31 76 42 61 25 80 43 80 74 1 14 7 37 15 51 21 37 18 56 -15
102 -16 22 -30 47 -30 53 0 16 -66 76 -122 111 l-42 27 40 20 c21 11 41 24 42
29 2 4 24 17 48 29 51 23 61 40 56 102 -3 37 -8 45 -31 54 -22 8 -35 6 -62 -8z"/>
<path d="M5267 6279 c-10 -6 -35 -8 -57 -4 -30 5 -50 1 -85 -16 -25 -12 -45
-26 -45 -30 0 -4 -14 -23 -30 -41 -41 -44 -45 -63 -22 -100 18 -28 19 -33 5
-67 -17 -41 -12 -107 13 -155 12 -23 17 -67 20 -166 6 -217 3 -272 -15 -294
-11 -13 -11 -20 4 -42 16 -25 16 -28 1 -36 -22 -12 -20 -19 13 -56 39 -42 103
-45 139 -7 20 21 21 26 10 45 -11 19 -10 24 8 39 l22 17 -21 28 c-25 35 -31
128 -11 167 11 23 11 29 0 38 -10 8 -13 33 -11 86 2 41 -2 92 -8 112 -9 28 -9
37 1 41 7 2 9 8 6 14 -5 7 3 9 22 4 71 -18 93 -18 110 -2 9 10 30 20 46 23 26
5 35 17 61 72 29 62 32 80 24 158 -3 34 -84 129 -133 158 -49 29 -44 28 -67
14z m56 -181 c52 -25 28 -64 -52 -84 -52 -14 -63 -6 -57 36 3 14 5 29 5 33 1
9 39 25 62 26 8 1 27 -5 42 -11z"/>
<path d="M4791 6198 c-36 -28 -42 -37 -37 -60 3 -15 2 -28 -2 -30 -4 -2 -22
-33 -39 -70 -25 -52 -38 -68 -54 -68 -19 0 -20 4 -14 38 11 64 7 114 -12 128
-29 22 -86 17 -111 -9 -19 -20 -22 -35 -24 -149 -2 -143 1 -152 76 -190 53
-27 98 -18 145 31 20 21 46 44 59 50 20 11 26 10 37 -6 8 -10 12 -34 10 -53
-2 -21 5 -52 16 -75 10 -22 18 -47 19 -56 0 -9 11 -21 25 -27 37 -17 78 2 103
47 l21 37 -23 68 c-13 37 -26 70 -30 73 -3 4 -6 27 -6 52 0 25 -4 62 -10 81
-5 19 -13 71 -17 115 -7 86 -18 104 -64 105 -14 0 -44 -15 -68 -32z"/>
<path d="M5656 5953 c-27 -7 -56 -45 -50 -64 2 -9 0 -27 -6 -41 -25 -53 43
-118 123 -118 28 0 35 5 45 33 7 18 12 47 12 65 0 17 5 34 10 37 6 3 10 17 10
30 0 44 -77 75 -144 58z"/>
<path d="M3573 5816 c-30 -15 -42 -27 -43 -43 0 -29 -29 -63 -52 -63 -12 0
-17 -7 -15 -19 2 -18 -51 -82 -175 -213 -53 -56 -59 -82 -27 -122 26 -33 65
-34 110 -1 19 14 46 33 61 42 16 10 28 25 28 34 0 8 15 24 34 35 35 20 126
124 126 144 0 7 9 24 19 39 11 15 23 40 27 57 3 16 13 39 21 52 8 13 13 35 11
50 -3 24 -7 27 -43 28 -23 1 -58 -7 -82 -20z"/>
<path d="M2071 5757 c-7 -7 -47 -15 -89 -19 -91 -8 -238 -32 -284 -47 -18 -6
-40 -9 -48 -8 -27 3 -121 -15 -147 -28 -15 -8 -40 -11 -60 -8 -39 7 -86 -14
-79 -34 3 -7 -1 -13 -9 -13 -8 0 -31 -11 -51 -25 -24 -16 -51 -25 -76 -25 -28
0 -49 -8 -70 -25 -16 -14 -39 -25 -51 -25 -39 0 -197 -164 -197 -204 0 -17 -9
-27 -30 -36 -21 -9 -30 -19 -30 -36 0 -12 -5 -26 -11 -30 -8 -5 -10 -38 -7
-109 5 -93 4 -104 -14 -119 -18 -16 -18 -18 -1 -49 10 -17 20 -34 23 -37 3 -3
6 -18 6 -35 2 -85 7 -157 17 -217 7 -48 7 -71 -1 -80 -7 -9 -7 -19 -2 -28 6
-8 17 -38 25 -66 8 -29 21 -54 29 -57 8 -3 20 -31 27 -62 7 -31 16 -58 21 -61
4 -3 8 -24 8 -48 0 -23 3 -46 7 -50 4 -4 8 -15 8 -24 0 -10 9 -18 23 -20 14
-2 27 -14 33 -30 5 -15 14 -36 19 -47 5 -11 12 -31 16 -45 3 -14 12 -32 19
-40 12 -14 25 -40 76 -143 13 -27 33 -67 44 -88 12 -23 50 -64 90 -96 39 -31
72 -59 75 -64 6 -9 163 -89 176 -89 5 0 29 -16 53 -35 24 -19 55 -35 68 -35
15 0 27 -7 29 -18 5 -16 16 -24 89 -59 l31 -15 -13 -107 c-7 -58 -17 -115 -22
-126 -25 -54 -51 -130 -51 -146 0 -10 -9 -23 -19 -29 -11 -5 -22 -19 -26 -30
-3 -10 -30 -33 -58 -49 -29 -16 -76 -55 -105 -86 -29 -31 -64 -60 -77 -65 -14
-5 -25 -14 -25 -19 0 -5 -9 -11 -21 -14 -11 -3 -23 -14 -26 -25 -7 -28 -60
-65 -86 -59 -12 3 -30 2 -39 -1 -20 -8 -78 -86 -78 -104 0 -7 15 -31 34 -53
33 -39 33 -39 73 -27 59 18 186 104 283 192 47 43 105 90 130 105 45 28 119
101 120 120 0 17 38 36 46 23 8 -13 19 -245 17 -368 -1 -47 -9 -112 -18 -145
-26 -92 -29 -115 -14 -141 10 -20 10 -29 1 -44 -9 -15 -9 -32 -1 -71 10 -45 8
-120 -5 -221 -2 -16 -4 -39 -5 -51 -1 -15 -11 -28 -27 -36 -21 -9 -25 -17 -23
-44 6 -67 -23 -169 -55 -196 -10 -9 -13 -23 -9 -42 4 -21 1 -30 -11 -35 -9 -3
-16 -12 -16 -18 0 -18 -60 -106 -95 -141 -17 -16 -39 -47 -48 -67 -10 -21 -27
-42 -37 -48 -11 -6 -20 -16 -20 -23 0 -20 -97 -142 -125 -157 -18 -10 -26 -24
-31 -57 -6 -40 -3 -47 22 -74 19 -20 37 -29 59 -29 27 0 38 9 77 63 25 34 55
71 67 81 12 11 21 24 21 30 0 14 45 80 97 143 24 28 43 54 43 58 0 4 23 34 50
67 28 33 50 67 50 77 0 9 15 46 34 81 32 62 52 123 48 146 -1 6 6 19 17 28 15
14 23 15 38 6 31 -20 104 -126 147 -217 9 -17 24 -34 34 -37 17 -6 92 -111
105 -148 4 -10 11 -18 16 -18 6 0 29 -33 51 -72 23 -40 49 -85 58 -99 9 -14
30 -46 45 -70 16 -24 37 -56 48 -71 10 -15 19 -32 19 -38 0 -17 61 -68 109
-90 37 -18 48 -20 72 -10 23 10 27 15 19 30 -6 10 -10 28 -10 39 0 11 -25 48
-55 82 -30 34 -55 67 -55 73 0 6 -20 30 -44 54 -24 24 -47 55 -51 70 -3 14
-20 46 -36 70 -16 23 -29 47 -29 51 0 5 -7 14 -15 21 -8 7 -15 22 -15 35 0 12
-21 45 -50 76 -27 30 -50 60 -50 67 0 8 -9 26 -21 40 -11 15 -43 62 -70 105
-28 43 -69 97 -92 120 -24 23 -60 68 -81 100 -36 55 -38 60 -31 115 3 32 1 95
-5 140 -9 68 -9 87 4 114 34 75 44 121 34 156 -6 20 -7 61 -3 91 11 83 4 355
-10 417 -4 19 -3 34 4 38 15 10 89 -57 142 -129 17 -21 47 -48 67 -60 20 -11
41 -30 47 -43 5 -12 32 -33 60 -47 27 -14 73 -41 100 -60 28 -19 67 -46 88
-60 23 -15 37 -32 34 -40 -6 -13 22 -28 75 -41 22 -5 33 1 68 36 39 39 41 44
29 66 -6 13 -20 26 -30 29 -10 4 -31 22 -47 41 -16 19 -41 38 -55 42 -85 23
-427 317 -427 367 0 6 -23 36 -51 66 -28 30 -57 69 -64 86 -8 18 -23 43 -35
55 -40 43 -54 79 -42 112 6 17 10 47 8 66 -1 30 2 37 27 48 16 6 37 12 46 12
9 0 41 26 71 59 57 60 213 171 241 171 9 0 32 13 50 30 19 16 37 30 41 30 4 0
19 20 34 45 14 25 29 45 33 45 4 0 29 25 55 55 55 64 86 156 85 253 -1 33 4
69 10 80 6 12 16 45 21 74 6 28 16 59 24 67 8 9 17 45 21 81 4 36 12 74 18 85
5 11 9 37 9 59 -1 21 3 45 10 53 6 8 13 40 15 71 2 31 5 91 7 132 3 41 7 89
11 107 3 18 2 41 -4 51 -7 13 -7 29 1 49 10 27 8 34 -25 78 -21 26 -37 57 -37
69 0 12 -9 35 -19 52 -11 18 -17 41 -14 57 4 18 -4 39 -26 71 -17 24 -31 54
-31 65 0 10 -11 33 -25 49 -14 17 -25 38 -25 47 0 10 -16 33 -35 52 -19 19
-35 43 -35 53 0 11 -4 20 -10 20 -5 0 -18 8 -28 18 -31 31 -198 122 -223 122
-30 0 -163 25 -176 33 -5 3 -15 1 -22 -6z m89 -200 c47 -4 91 -13 117 -26 23
-12 47 -21 53 -21 6 0 21 -9 33 -21 12 -11 32 -25 44 -29 12 -5 24 -21 28 -38
3 -17 15 -38 27 -48 28 -26 78 -100 72 -107 -3 -3 6 -22 20 -44 17 -26 23 -46
19 -65 -5 -25 -7 -26 -55 -22 -28 3 -59 9 -69 14 -9 6 -26 7 -36 3 -37 -13
-139 -106 -164 -150 -15 -24 -38 -57 -53 -72 -14 -15 -26 -33 -26 -40 0 -7
-11 -26 -25 -43 -14 -16 -25 -35 -25 -42 0 -7 -9 -21 -20 -31 -11 -10 -20 -24
-20 -32 0 -7 -4 -21 -9 -31 -19 -38 -43 -123 -38 -136 3 -8 -1 -20 -9 -26 -8
-8 -14 -31 -14 -59 0 -26 -5 -52 -11 -58 -14 -14 4 -49 30 -58 11 -3 29 -21
40 -40 11 -19 38 -46 61 -61 36 -24 44 -26 68 -15 66 30 137 88 224 183 51 56
103 112 116 125 12 13 22 31 22 39 0 9 11 37 24 63 14 25 28 55 31 66 11 35
26 -8 23 -65 -2 -37 -7 -52 -20 -56 -21 -6 -24 -45 -5 -74 11 -18 8 -23 -21
-46 -22 -18 -30 -30 -23 -38 17 -20 15 -128 -3 -171 -20 -46 -46 -163 -46
-205 0 -41 -38 -110 -60 -110 -28 0 -79 -48 -96 -89 -14 -34 -63 -75 -143
-121 -14 -8 -27 -18 -29 -22 -5 -10 -82 -62 -105 -71 -11 -4 -21 -16 -24 -27
-3 -11 -9 -20 -13 -20 -4 0 -25 -18 -48 -40 -25 -25 -50 -40 -66 -40 -13 0
-28 -4 -31 -10 -10 -16 -65 -12 -71 5 -4 8 -19 15 -35 15 -20 0 -27 4 -23 14
4 9 -31 31 -113 71 -213 105 -331 201 -353 287 -13 53 -31 90 -47 101 -19 12
-41 59 -64 135 -12 37 -29 76 -39 87 -10 11 -21 31 -25 45 -4 14 -13 34 -20
46 -14 22 -28 66 -51 157 -7 32 -21 68 -30 82 -12 18 -13 28 -5 44 11 19 15
17 71 -40 33 -33 60 -65 60 -70 0 -5 8 -9 18 -9 10 0 31 -13 45 -30 15 -16 32
-30 37 -30 15 0 217 -119 231 -136 6 -8 29 -14 52 -14 23 0 92 -5 154 -11 133
-14 176 -3 242 62 44 42 47 49 30 80 -7 15 -7 24 1 34 16 19 4 50 -24 63 -24
11 -56 67 -56 100 0 11 -8 22 -20 25 -12 3 -20 14 -20 26 0 12 -4 21 -9 21 -5
0 -22 14 -38 30 -15 17 -56 52 -90 77 -35 25 -63 50 -63 54 0 4 -25 26 -57 48
-39 28 -67 41 -90 41 -18 0 -33 4 -33 8 0 5 -19 21 -42 36 -36 23 -49 27 -83
21 -22 -3 -50 -8 -61 -9 -12 -2 -39 4 -61 14 -75 34 -163 1 -193 -71 -15 -36
-30 -28 -30 15 0 17 -5 37 -12 44 -9 9 -9 15 0 24 7 7 9 27 5 53 -3 26 -1 45
6 49 6 4 11 18 11 32 0 23 66 123 100 151 28 24 175 91 235 108 33 10 67 21
75 25 9 4 53 11 98 15 50 4 86 12 93 21 6 8 20 14 30 14 10 0 46 9 79 21 45
15 67 18 88 11 21 -7 33 -4 55 12 30 22 113 36 182 31 22 -2 74 -6 115 -8z"/>
<path d="M1793 3940 c-21 -9 -43 -61 -43 -104 0 -32 76 -96 113 -96 18 0 45
-7 61 -15 30 -16 92 -20 99 -7 3 4 7 35 8 69 l4 62 -97 51 c-102 52 -109 54
-145 40z"/>
</g>
</svg>
