<?xml version="1.0" standalone="no"?>
<!DOCTYPE svg PUBLIC "-//W3C//DTD SVG 20010904//EN"
 "http://www.w3.org/TR/2001/REC-SVG-20010904/DTD/svg10.dtd">
<svg version="1.0" xmlns="http://www.w3.org/2000/svg"
 width="3876.727020pt" height="400.000000pt" viewBox="0 0 3876.727020 400.000000"
 preserveAspectRatio="xMidYMid meet">
<metadata>
Created by potrace 1.15, written by Peter Selinger 2001-2017
</metadata>
<g transform="translate(-69.785865,525.090969) scale(0.082086,-0.082086)"
fill="#444444" stroke="none">
<path d="M37138 6393 c-10 -2 -18 -13 -18 -24 0 -22 -3 -23 -44 -8 -58 20
-109 -18 -122 -92 -11 -71 -22 -174 -18 -181 3 -4 -12 -18 -33 -31 -80 -51
-110 -107 -112 -207 -1 -58 3 -84 19 -115 12 -23 16 -43 11 -48 -5 -5 -38 -24
-73 -42 -159 -81 -159 -81 -203 -206 -8 -25 -31 -64 -50 -87 -19 -22 -35 -48
-35 -59 0 -26 -10 -38 -50 -58 -49 -25 -143 -90 -164 -114 -11 -12 -41 -35
-67 -52 -40 -26 -49 -36 -49 -60 0 -17 -6 -32 -15 -35 -8 -4 -15 -12 -15 -18
0 -7 -11 -23 -25 -36 -43 -40 -52 -106 -30 -221 4 -24 17 -44 37 -59 26 -19
40 -21 118 -19 98 3 143 -12 188 -63 14 -16 34 -28 48 -28 32 0 31 -4 -12 -48
-20 -20 -41 -49 -46 -63 -5 -14 -20 -32 -33 -39 -14 -7 -35 -28 -47 -47 -13
-18 -27 -33 -33 -33 -5 0 -34 -25 -64 -56 -52 -53 -90 -111 -131 -201 -10 -23
-28 -47 -40 -53 -12 -7 -70 -59 -128 -118 l-106 -106 -127 -3 -127 -3 -5 26
c-2 14 -1 42 4 62 5 24 3 46 -6 68 -12 30 -12 32 10 44 13 7 34 10 47 7 13 -3
45 3 73 12 40 13 57 27 93 73 50 67 59 113 41 218 -14 82 -31 117 -83 171 -46
48 -44 39 -47 231 -2 119 0 141 18 176 21 44 20 53 -14 71 -33 17 -38 15 -88
-44 -35 -40 -45 -58 -37 -68 7 -8 8 -57 5 -137 l-6 -124 -43 89 c-24 50 -44
100 -44 113 0 16 -6 22 -22 22 -34 0 -44 -11 -53 -55 -12 -65 -7 -93 25 -140
17 -24 29 -48 28 -52 -2 -4 8 -26 22 -48 42 -68 42 -71 -32 -144 -53 -52 -69
-74 -72 -101 -4 -35 -44 -80 -70 -80 -8 0 -19 -13 -26 -30 -7 -16 -21 -32 -31
-35 -27 -9 -127 -134 -135 -169 -4 -17 -17 -44 -29 -61 -44 -58 -59 -104 -71
-205 -2 -19 -5 -39 -8 -46 -5 -14 -107 -84 -164 -113 -42 -21 -162 -137 -162
-157 0 -6 -11 -21 -25 -34 -14 -13 -25 -31 -25 -40 0 -9 -7 -25 -15 -36 -8
-10 -15 -36 -15 -56 0 -20 -4 -48 -10 -62 -10 -27 8 -61 68 -124 27 -29 36
-33 62 -27 16 4 32 11 35 16 4 5 16 9 27 9 12 0 37 12 56 27 l35 26 -6 -24
c-6 -23 -4 -35 23 -121 6 -20 15 -62 20 -93 12 -77 -8 -113 -110 -194 -44 -36
-80 -68 -80 -72 0 -13 -61 -67 -98 -85 -20 -11 -52 -34 -71 -52 -21 -22 -40
-32 -52 -29 -12 3 -20 -2 -24 -14 -6 -17 -40 -47 -115 -103 -16 -12 -47 -36
-71 -54 -42 -32 -89 -41 -118 -23 -15 9 -61 -6 -61 -20 0 -4 -19 -17 -43 -28
-51 -25 -107 -28 -107 -6 0 8 -13 21 -30 30 -16 9 -30 21 -30 29 0 7 -11 23
-25 36 -34 32 -34 70 0 70 13 0 41 9 61 21 20 11 43 18 51 15 7 -3 21 3 30 14
9 10 20 17 25 14 5 -3 16 12 26 34 10 23 30 48 47 58 39 23 45 33 38 65 -3 16
1 32 10 40 7 7 12 21 10 30 -4 13 7 19 45 28 49 12 49 13 51 54 3 110 17 203
32 213 5 3 9 15 9 28 0 12 11 33 25 46 14 13 25 29 25 36 0 8 13 23 29 35 18
13 27 27 24 36 -3 8 -1 18 6 22 8 5 6 13 -9 26 -32 29 -96 5 -165 -62 -31 -30
-58 -53 -61 -50 -10 10 9 59 27 70 11 7 19 21 19 32 1 11 14 36 30 55 17 19
30 39 30 46 0 6 7 17 15 24 32 27 18 48 -41 60 -64 14 -81 9 -94 -24 -5 -13
-14 -27 -20 -31 -6 -4 -15 -17 -20 -29 -6 -16 -23 -27 -57 -36 -26 -7 -52 -17
-57 -21 -6 -5 -19 -9 -29 -9 -29 0 -87 -39 -87 -58 -1 -16 -96 -106 -122 -114
-10 -4 -10 -8 -1 -20 7 -8 12 -28 12 -44 0 -16 5 -54 11 -84 13 -66 1 -116
-27 -106 -18 7 -166 -19 -228 -40 -55 -19 -58 -18 -129 16 -62 29 -216 63
-242 53 -8 -3 -17 2 -20 11 -4 11 -10 13 -18 7 -6 -5 -56 -12 -111 -15 -150
-8 -162 -13 -271 -123 -70 -70 -93 -100 -88 -112 4 -9 8 -29 8 -44 1 -20 9
-33 27 -43 57 -29 126 -48 174 -46 75 3 82 -5 50 -67 -14 -29 -41 -73 -59 -99
-19 -26 -36 -57 -40 -68 -17 -57 -50 -63 -281 -50 -60 3 -182 8 -270 10 -88 3
-196 7 -240 10 -44 3 -146 5 -227 5 -86 0 -156 5 -168 11 -14 7 -20 21 -20 43
0 18 -14 56 -30 86 -18 32 -32 76 -36 110 -3 30 -8 59 -10 62 -7 12 188 38
309 42 22 1 37 6 37 14 0 6 6 16 14 20 8 4 28 25 45 47 30 37 31 41 28 130 -2
83 1 96 26 146 16 32 54 79 90 112 l62 58 -21 21 c-32 31 -96 37 -130 10 -35
-28 -134 -152 -134 -168 0 -19 -34 -16 -53 5 -36 39 -19 89 56 165 57 59 46
100 -30 111 -32 5 -44 2 -51 -10 -5 -8 -19 -21 -32 -27 -13 -7 -26 -19 -30
-27 -38 -76 -60 -127 -60 -137 0 -7 -17 -24 -37 -40 -21 -15 -50 -38 -65 -53
-14 -14 -40 -35 -56 -47 l-29 -22 -67 35 c-37 19 -80 34 -94 33 -15 -1 -52 4
-83 10 -72 15 -136 1 -194 -40 -45 -33 -45 -32 -140 10 -22 10 -62 24 -90 31
-27 7 -68 17 -90 23 -57 14 -172 15 -225 1 -74 -20 -95 -31 -123 -64 -27 -32
-31 -41 -28 -72 1 -9 -5 -33 -14 -54 -10 -24 -13 -49 -9 -68 8 -37 67 -130 95
-149 26 -19 20 -42 -25 -96 -18 -21 -38 -54 -45 -72 -7 -19 -21 -53 -32 -76
-18 -42 -20 -43 -65 -43 -25 0 -54 -5 -65 -11 -15 -7 -40 -7 -87 0 -37 6 -105
14 -152 16 -47 3 -109 9 -138 13 -29 5 -54 6 -57 2 -2 -3 -57 -4 -122 -2 -164
5 -164 5 -160 168 2 120 3 123 30 152 17 18 55 38 95 51 70 23 122 50 122 63
0 4 8 8 18 9 43 1 198 98 214 134 6 14 15 25 19 25 17 0 16 32 -2 82 -29 80
-25 139 15 222 33 70 59 103 124 159 34 29 42 66 18 86 -8 7 -31 9 -62 4 -41
-5 -56 -14 -99 -58 -27 -29 -66 -78 -85 -108 -47 -77 -60 -74 -60 11 0 65 17
123 41 137 12 8 12 51 -1 75 -8 15 -20 18 -65 17 -33 -1 -55 -7 -55 -13 0 -6
-12 -38 -26 -70 -24 -53 -26 -67 -21 -141 l6 -81 -34 -16 c-19 -9 -47 -30 -64
-46 -16 -17 -37 -30 -45 -30 -26 0 -96 -75 -96 -102 0 -14 -9 -33 -19 -42 -22
-20 -47 -17 -141 14 -45 14 -68 16 -124 9 -38 -5 -71 -7 -74 -5 -2 3 -19 -6
-37 -18 -18 -13 -55 -29 -82 -35 -26 -7 -58 -18 -70 -23 -17 -9 -38 -6 -90 11
-57 19 -146 39 -188 42 -5 1 -37 -4 -70 -10 -33 -6 -86 -16 -118 -22 -31 -5
-74 -21 -94 -34 -19 -14 -40 -25 -46 -25 -19 0 -77 -72 -77 -95 0 -39 22 -128
34 -141 7 -6 26 -19 44 -28 18 -9 32 -23 32 -30 0 -17 -76 -116 -89 -116 -5 0
-11 -18 -15 -40 -4 -26 -18 -54 -39 -76 -31 -34 -33 -35 -77 -25 -27 6 -225 9
-492 7 -371 -2 -448 0 -448 11 0 8 6 16 14 19 28 11 24 34 -15 86 -22 29 -48
81 -59 115 -11 34 -26 73 -35 87 -11 16 -15 41 -13 73 3 55 5 56 98 30 46 -13
60 -13 86 -2 40 16 102 81 110 115 4 14 12 32 19 40 6 8 20 35 29 59 14 37 15
49 5 68 -11 20 -10 29 7 57 23 40 50 78 85 120 15 17 35 45 46 63 36 59 128
172 146 178 9 4 17 11 17 18 0 6 9 20 19 31 20 23 38 86 24 87 -4 0 -16 2 -26
4 -35 6 -95 -44 -160 -134 -35 -48 -118 -153 -143 -181 -13 -14 -42 -46 -65
-72 -32 -37 -48 -48 -71 -48 -34 0 -46 23 -24 45 9 9 16 22 16 29 0 7 29 44
65 82 36 38 65 74 65 81 0 22 -55 25 -102 4 -50 -21 -105 -79 -150 -158 -27
-49 -110 -133 -129 -133 -5 0 -20 -24 -35 -54 l-26 -54 -84 6 c-97 6 -162 -9
-214 -47 -96 -71 -94 -71 -167 -61 -37 4 -79 11 -93 14 -14 4 -58 11 -99 15
-40 5 -78 14 -84 20 -14 14 -62 14 -89 0 -11 -6 -41 -11 -66 -11 -122 1 -262
-120 -229 -197 17 -40 67 -90 104 -102 41 -13 38 -30 -17 -104 -21 -27 -43
-66 -49 -85 -6 -19 -24 -57 -40 -85 l-28 -50 -139 0 c-76 1 -184 1 -239 2 -55
1 -165 2 -245 1 -80 0 -176 1 -215 1 -91 2 -314 -7 -342 -14 -19 -5 -27 6 -63
82 -23 48 -45 109 -49 135 -5 26 -14 54 -20 62 -7 9 -17 31 -21 50 l-8 35 79
26 c48 16 80 33 84 43 3 9 13 27 23 40 l18 23 54 -20 c30 -10 75 -25 100 -32
25 -7 49 -16 54 -21 14 -12 85 -8 126 6 28 10 41 25 67 76 18 35 33 82 35 104
3 34 7 41 35 50 18 6 44 23 58 39 14 15 36 27 50 27 13 0 26 4 29 9 4 5 32 17
64 26 31 10 85 28 120 41 35 14 68 22 73 18 14 -8 39 15 39 36 0 10 -12 25
-26 35 -24 16 -29 16 -68 1 -35 -13 -207 -46 -243 -46 -18 0 -16 47 3 62 41
34 94 98 105 126 15 38 -11 55 -71 46 -38 -6 -54 -17 -116 -79 -62 -63 -79
-74 -125 -85 -30 -7 -66 -19 -80 -27 -20 -12 -36 -13 -75 -5 -65 13 -160 4
-200 -20 -18 -11 -49 -42 -69 -69 -19 -27 -42 -49 -51 -49 -10 0 -53 7 -97 16
-65 13 -93 14 -151 5 -39 -6 -103 -13 -142 -17 -47 -4 -91 -16 -129 -34 -61
-29 -69 -29 -180 8 -121 41 -191 53 -253 43 -102 -16 -174 -55 -221 -117 -23
-30 -41 -59 -41 -64 0 -24 64 -142 87 -160 l25 -20 -35 -52 c-19 -29 -49 -64
-67 -76 -28 -21 -90 -129 -90 -158 0 -5 -15 -25 -33 -42 l-33 -32 -180 5
c-267 7 -425 16 -460 24 -16 5 -73 7 -125 5 -263 -8 -492 -4 -646 11 -57 6
-62 9 -77 40 -9 18 -16 42 -16 53 0 12 -14 28 -35 41 -34 20 -72 82 -61 100 3
5 35 11 70 13 57 5 68 9 91 36 14 17 41 41 60 52 24 15 35 29 35 45 0 13 5 27
10 30 6 3 10 30 10 59 0 36 6 61 18 77 10 13 21 32 25 42 4 9 18 22 31 27 14
5 33 21 42 35 10 15 28 31 41 36 23 9 32 42 13 54 -5 3 -35 7 -65 8 l-54 2
-84 -83 c-74 -74 -87 -82 -110 -77 -18 5 -27 14 -27 27 0 24 55 78 80 78 11 0
40 18 67 40 26 22 54 45 61 51 11 9 10 14 -4 30 -24 27 -46 31 -100 19 -57
-13 -119 -49 -184 -107 -26 -24 -58 -43 -71 -44 -23 0 -83 -31 -143 -73 -27
-19 -29 -19 -104 -1 -144 33 -376 48 -442 27 -60 -18 -144 -56 -177 -80 -18
-13 -37 -21 -41 -18 -5 3 -24 8 -42 11 -18 3 -42 12 -54 20 -27 19 -50 19 -89
-1 -30 -16 -32 -16 -45 4 -13 20 -14 20 -80 -14 -37 -18 -73 -34 -80 -34 -8 0
-47 -16 -88 -35 -54 -26 -78 -43 -85 -61 -12 -32 1 -83 30 -120 24 -30 19 -77
-10 -109 -33 -37 -52 -98 -54 -172 -1 -40 -4 -75 -7 -78 -3 -3 -102 -8 -219
-11 -117 -3 -217 -8 -223 -11 -18 -12 -111 -12 -139 -1 -20 8 -42 8 -85 -1
-31 -7 -66 -12 -77 -12 -11 1 -27 1 -35 1 -35 1 -179 -9 -222 -16 -48 -7 -59
1 -36 24 11 11 10 29 -18 288 l-6 52 36 4 c20 2 40 2 44 -1 10 -8 32 -68 41
-111 10 -46 59 -130 77 -130 7 0 18 -9 24 -20 6 -10 32 -29 58 -40 43 -20 52
-20 100 -9 30 7 52 18 52 25 0 8 -18 25 -41 40 -82 51 -122 102 -152 194 -15
47 -34 93 -42 103 -12 16 -11 24 7 58 11 22 44 61 73 87 28 26 64 68 80 95 30
52 50 67 90 67 28 0 71 39 87 80 16 39 22 179 8 195 -6 8 -12 33 -13 57 -2 36
5 53 42 105 24 35 58 74 76 87 46 36 48 57 9 100 -27 30 -37 34 -56 27 -12 -4
-25 -17 -28 -28 -3 -11 -33 -51 -67 -89 -35 -37 -63 -75 -63 -83 -1 -9 -17
-26 -37 -39 -38 -24 -63 -17 -63 19 0 10 -4 21 -10 24 -5 3 -10 32 -10 64 0
50 4 64 30 96 17 21 30 46 30 56 0 17 -56 59 -78 59 -9 0 -76 -41 -90 -55 -2
-2 -10 -32 -18 -67 -17 -75 -18 -160 -1 -207 13 -37 14 -35 -63 -84 -51 -32
-72 -83 -74 -175 l-1 -77 -75 -7 c-47 -5 -94 -17 -127 -33 -28 -14 -65 -25
-82 -25 -17 0 -53 -14 -81 -30 l-51 -30 -167 3 c-202 5 -336 -12 -396 -47 -23
-14 -61 -45 -85 -70 -24 -25 -50 -46 -57 -46 -8 0 -34 -18 -58 -40 -35 -32
-45 -50 -50 -84 -10 -68 13 -107 85 -142 33 -15 59 -30 59 -33 0 -4 -22 -33
-48 -66 -27 -33 -62 -84 -78 -114 -28 -52 -32 -55 -84 -67 -30 -7 -59 -9 -65
-6 -5 4 -93 7 -195 8 -172 1 -253 5 -403 20 -52 5 -62 11 -95 46 -53 56 -54
60 -56 156 l-1 87 40 -3 c22 -1 49 2 60 7 11 6 36 17 55 26 82 37 107 58 116
98 3 18 14 43 24 57 9 14 20 36 23 50 7 29 -15 111 -39 148 -21 32 -25 109 -8
151 8 19 32 54 55 78 22 24 39 49 36 56 -6 21 -69 57 -98 57 -22 0 -33 -9 -56
-45 -40 -65 -93 -135 -101 -135 -4 0 -13 13 -20 29 -12 27 -11 35 12 76 14 25
26 49 26 53 0 4 -16 17 -34 30 -33 23 -36 23 -69 7 -20 -9 -43 -25 -52 -35
-23 -25 -44 -87 -45 -130 0 -30 -6 -39 -43 -62 -24 -15 -52 -37 -62 -48 -24
-27 -34 -25 -81 10 -21 16 -47 30 -56 30 -10 0 -25 11 -34 25 -9 14 -24 25
-33 25 -9 0 -24 7 -34 14 -15 12 -24 12 -58 -2 -32 -12 -49 -14 -80 -5 -22 6
-42 6 -45 2 -3 -5 -19 -9 -36 -9 -18 0 -42 -10 -60 -25 -16 -14 -36 -25 -43
-25 -7 0 -31 -15 -54 -32 -113 -90 -101 -87 -211 -58 -55 14 -176 8 -280 -16
-131 -29 -197 -72 -260 -170 l-42 -64 7 -77 c5 -57 14 -86 32 -115 14 -21 29
-38 32 -38 4 0 16 -6 26 -14 16 -12 17 -16 6 -30 -8 -9 -32 -53 -55 -98 -50
-98 -48 -97 -241 -97 -71 0 -150 -4 -175 -9 -25 -5 -72 -5 -105 -2 -33 4 -82
4 -108 -1 -26 -5 -94 -11 -150 -15 -56 -4 -111 -10 -122 -14 -12 -4 -63 -4
-115 2 -71 7 -100 14 -116 29 -11 10 -25 19 -30 19 -5 0 -24 13 -41 29 -27 24
-31 35 -31 75 0 41 2 46 16 40 10 -4 40 -9 68 -12 55 -4 114 17 114 42 0 7 24
35 53 62 l52 49 -1 95 c-1 77 -5 102 -22 130 -40 67 -38 99 7 171 24 38 69 88
111 124 80 67 89 86 61 114 -48 48 -97 25 -219 -105 -50 -54 -95 -95 -99 -91
-11 11 39 107 69 132 15 13 28 30 28 37 0 8 5 19 12 26 9 9 5 19 -22 42 -19
16 -38 29 -43 30 -17 1 -167 -167 -167 -187 0 -18 -35 -40 -71 -47 -36 -6
-108 -71 -136 -120 -10 -18 -12 -18 -46 8 -19 15 -38 34 -41 42 -3 7 -11 14
-18 14 -7 0 -29 8 -48 18 -48 26 -120 34 -182 20 -29 -6 -64 -11 -78 -12 -13
0 -34 -11 -47 -24 -12 -12 -27 -22 -34 -22 -6 0 -33 -18 -58 -40 -25 -22 -54
-47 -63 -55 -15 -12 -21 -10 -55 24 -46 47 -92 61 -197 61 -85 0 -204 -33
-258 -71 -14 -11 -31 -19 -37 -19 -14 0 -81 -59 -81 -71 0 -6 -17 -28 -39 -50
-64 -67 -68 -81 -41 -137 29 -57 48 -79 75 -84 27 -5 31 -43 6 -69 -10 -11
-25 -35 -32 -53 -7 -17 -27 -52 -46 -77 -18 -26 -40 -63 -48 -83 -13 -32 -20
-36 -53 -38 -20 0 -45 0 -55 0 -11 1 -45 -2 -77 -7 -35 -6 -73 -6 -99 0 -28 6
-48 6 -62 -2 -15 -7 -24 -7 -35 1 -9 8 -24 9 -41 4 -16 -4 -147 -9 -293 -10
-146 -1 -307 -4 -357 -7 -75 -3 -93 -1 -93 10 0 10 -9 12 -34 8 -20 -4 -36 -2
-41 4 -3 6 -23 20 -44 31 -32 16 -46 35 -90 122 -39 79 -51 113 -49 141 3 43
10 45 58 15 24 -14 57 -23 106 -26 81 -5 130 7 175 45 39 33 78 36 148 11 75
-28 176 -35 196 -15 8 9 15 19 15 23 0 22 -70 64 -147 89 -98 31 -133 57 -136
101 l-2 29 75 -1 c153 -1 230 -6 230 -15 0 -5 6 -9 13 -9 24 0 46 25 52 61 6
35 5 36 -27 43 -44 10 -157 24 -237 31 -35 2 -74 11 -87 20 -13 8 -32 15 -43
15 -23 0 -96 35 -124 59 -24 20 -152 19 -193 -2 -16 -8 -44 -32 -63 -52 l-33
-37 -32 29 c-27 26 -44 31 -124 42 -134 18 -315 -4 -380 -45 -37 -24 -75 -14
-91 24 -8 17 -22 32 -30 32 -9 0 -44 15 -78 34 -56 30 -66 32 -110 25 -26 -4
-76 -5 -111 -2 -66 6 -88 0 -148 -44 -17 -13 -38 -23 -47 -23 -8 0 -28 -11
-44 -24 -15 -13 -38 -26 -50 -30 -25 -8 -122 -99 -148 -138 -9 -16 -22 -28
-29 -28 -6 0 -20 -7 -30 -15 -19 -14 -19 -15 -1 -35 17 -19 19 -19 31 -2 12
15 14 12 15 -23 0 -22 0 -54 -1 -71 -1 -20 4 -33 14 -37 9 -4 16 -13 16 -21 0
-27 44 -48 83 -41 29 6 37 3 46 -13 6 -12 7 -23 2 -26 -5 -3 -24 -35 -42 -71
-17 -35 -44 -76 -60 -91 l-27 -26 -359 1 c-433 0 -842 8 -889 17 -22 4 -34 12
-34 23 0 9 -7 27 -17 40 -18 27 -24 108 -7 119 7 5 9 27 4 65 -3 32 -5 59 -3
61 2 2 23 0 46 -4 23 -5 45 -6 49 -4 5 3 8 -6 8 -19 0 -56 23 -137 40 -142 10
-3 21 -16 24 -29 6 -26 90 -92 128 -101 19 -5 25 0 35 25 11 29 9 34 -33 81
-24 27 -44 60 -44 72 0 12 -4 28 -9 36 -14 23 25 90 49 84 11 -3 31 4 46 16
15 12 28 20 30 18 2 -1 -3 -21 -10 -42 -19 -54 -9 -140 20 -184 24 -36 94 -81
124 -81 37 0 35 72 -3 112 -19 20 -34 80 -26 108 13 46 10 90 -6 90 -28 0 -15
18 36 50 28 17 60 40 72 50 11 11 32 20 45 20 15 0 26 7 29 20 3 11 9 20 14
20 5 0 9 9 9 20 0 11 14 29 30 42 17 12 30 30 30 39 0 10 9 37 19 62 15 34 17
54 11 88 -8 42 1 79 18 79 19 0 72 55 72 74 0 12 5 27 12 34 19 19 0 27 -57
26 -44 0 -62 -6 -97 -31 -48 -33 -112 -58 -128 -48 -18 11 -11 35 14 44 23 10
44 41 26 41 -6 0 -10 11 -10 23 0 45 -97 64 -141 29 -23 -20 -25 -35 -18 -136
4 -42 1 -50 -20 -65 -48 -32 -102 -93 -108 -122 -3 -16 -10 -32 -15 -35 -5 -3
-48 -6 -96 -6 -124 0 -175 -11 -279 -65 l-91 -47 -54 13 c-71 17 -312 8 -439
-16 -114 -23 -171 -125 -95 -172 34 -22 46 -39 46 -69 0 -26 65 -84 92 -82 48
4 53 1 30 -23 -20 -21 -20 -24 -6 -39 14 -14 12 -20 -19 -69 -18 -30 -37 -62
-40 -72 -6 -15 -18 -18 -79 -17 -40 1 -138 -1 -218 -4 -80 -4 -156 -7 -170 -7
-21 -1 -157 3 -425 14 l-60 2 3 34 c1 19 -4 43 -11 55 -9 12 -15 52 -16 97
l-2 77 44 6 c50 8 134 56 134 78 0 18 52 127 71 150 10 13 12 21 4 30 -15 19
-7 134 12 163 9 14 46 49 82 79 61 50 67 58 68 96 2 38 0 42 -31 55 -47 20
-66 10 -158 -84 -70 -72 -82 -81 -115 -81 -20 0 -44 6 -54 13 -26 19 -12 76
31 127 20 23 37 55 40 74 4 30 1 35 -32 50 -30 15 -41 15 -70 5 -23 -9 -35
-19 -35 -32 0 -10 -13 -37 -29 -60 -36 -51 -61 -168 -44 -197 10 -14 7 -27
-10 -61 -30 -58 -54 -73 -90 -54 -15 7 -47 17 -72 21 -25 3 -48 11 -51 16 -3
5 -23 7 -44 3 -21 -4 -54 -2 -73 3 -27 8 -40 7 -54 -4 -10 -7 -26 -14 -36 -14
-9 0 -23 -11 -29 -25 -6 -14 -15 -25 -19 -25 -5 0 -16 -14 -25 -31 -18 -37
-29 -36 -189 4 -80 21 -115 25 -175 20 -135 -10 -282 -65 -327 -123 -28 -36
-26 -120 2 -120 8 0 24 -18 35 -41 17 -33 26 -40 48 -39 46 3 52 1 52 -25 0
-15 -11 -35 -26 -48 -14 -12 -42 -48 -61 -80 -32 -54 -38 -58 -62 -51 -33 10
-279 11 -294 2 -6 -4 -17 -2 -25 4 -7 6 -45 12 -85 13 -40 0 -79 5 -87 11 -8
5 -37 10 -65 10 -27 1 -84 5 -125 9 -41 4 -92 7 -113 6 -33 0 -37 2 -32 18 4
12 -2 21 -18 28 -16 8 -31 31 -45 71 -12 32 -22 64 -22 69 0 6 -11 26 -24 46
-13 19 -22 38 -18 41 10 10 61 6 68 -5 8 -14 90 -4 110 12 8 6 22 9 33 6 22
-5 106 58 125 94 7 14 19 23 29 21 9 -2 17 2 17 8 0 5 -5 10 -10 10 -15 0 -32
49 -31 88 0 18 -5 35 -13 38 -9 3 -11 17 -6 49 7 48 21 73 74 128 49 51 48
116 -2 136 -61 23 -75 24 -69 7 5 -11 -9 -33 -41 -68 -26 -28 -57 -61 -69 -74
-26 -28 -32 -29 -58 -11 -23 17 -15 52 20 89 18 19 25 38 25 66 0 73 -50 84
-110 23 -47 -47 -68 -86 -76 -142 -7 -54 -35 -118 -61 -141 -17 -15 -27 -16
-82 -7 -134 21 -213 28 -229 20 -24 -12 -117 -41 -131 -41 -6 0 -29 -12 -52
-27 -33 -22 -43 -24 -62 -15 -79 39 -241 57 -288 31 -12 -6 -47 -11 -79 -12
l-59 -2 -33 -54 c-18 -30 -42 -64 -53 -76 -14 -14 -19 -31 -17 -54 3 -34 28
-81 42 -81 15 0 120 -75 120 -86 0 -15 -39 -83 -62 -109 -10 -11 -31 -35 -47
-53 l-30 -34 -193 -4 c-106 -2 -276 -8 -378 -13 -102 -4 -189 -4 -194 1 -6 4
-18 8 -28 8 -16 0 -22 10 -15 25 1 3 -13 15 -31 26 -17 12 -32 29 -32 39 0 14
-7 18 -31 18 -17 -1 -34 4 -39 11 -4 7 -22 11 -41 9 -25 -2 -39 -12 -56 -37
-28 -42 -28 -44 -1 -56 35 -16 46 -42 26 -61 -14 -15 -20 -15 -33 -4 -13 11
-20 11 -40 0 -13 -7 -35 -10 -49 -6 -28 7 -32 31 -20 108 6 33 10 38 33 38 15
0 51 11 79 25 61 30 65 30 117 6 31 -14 47 -15 72 -8 27 8 36 7 53 -8 18 -17
21 -17 42 -1 13 9 40 27 61 41 20 14 37 30 37 35 0 6 0 12 0 15 0 3 11 27 24
53 15 30 22 57 19 75 -3 14 -3 37 1 49 7 28 116 143 143 152 11 3 32 19 47 35
28 29 28 30 10 49 -22 23 -57 42 -77 42 -7 0 -38 -22 -68 -50 -30 -27 -63 -52
-73 -56 -11 -4 -28 -16 -37 -28 -10 -11 -21 -17 -25 -13 -5 4 -2 12 5 16 9 6
10 11 2 15 -21 13 -11 38 39 90 56 59 60 78 26 119 l-23 28 -40 -38 c-22 -21
-69 -71 -104 -111 -41 -48 -73 -75 -91 -79 -15 -3 -35 -14 -44 -24 -9 -11 -23
-19 -30 -19 -21 0 -74 -50 -74 -70 0 -15 -5 -17 -32 -10 -18 4 -52 15 -75 23
-23 9 -79 17 -125 18 -72 3 -92 -1 -153 -25 -38 -16 -87 -31 -107 -33 -21 -3
-42 -11 -49 -19 -16 -19 -29 -18 -53 5 -39 36 -126 73 -162 69 -26 -3 -35 0
-40 14 -5 16 -33 25 -59 18 -5 -2 -35 -9 -65 -16 -120 -28 -159 -48 -215 -106
-56 -58 -67 -92 -42 -126 7 -9 6 -17 -1 -24 -16 -16 -15 -39 0 -36 6 2 14 -6
16 -17 2 -11 15 -33 28 -48 13 -16 24 -33 24 -38 0 -5 11 -9 25 -9 14 0 25 -3
25 -7 -1 -15 -26 -51 -62 -92 -37 -40 -58 -51 -58 -31 0 6 -7 10 -15 10 -8 0
-24 9 -35 20 -19 19 -31 21 -222 20 -31 0 -67 4 -80 9 -34 12 -88 -13 -88 -42
0 -27 14 -50 32 -53 7 -2 36 -7 63 -12 28 -4 59 -13 69 -19 13 -7 30 -7 50 -2
41 13 99 2 138 -25 18 -12 62 -32 98 -46 36 -13 72 -29 81 -37 23 -20 105 -18
496 12 24 2 48 7 55 11 11 7 103 18 246 31 67 5 78 3 128 -22 42 -21 58 -25
63 -16 13 21 80 33 216 40 72 4 135 9 140 13 6 3 29 3 52 -1 23 -5 47 -5 54 0
7 4 20 2 30 -4 13 -8 24 -8 41 1 13 6 41 12 63 12 161 4 291 9 610 26 271 15
504 19 534 9 11 -3 44 -2 74 4 32 6 69 6 93 1 21 -5 116 -11 209 -14 94 -3
195 -11 225 -17 30 -6 98 -12 150 -15 52 -2 158 -8 235 -14 77 -7 219 -13 315
-14 96 -2 195 -6 220 -10 25 -4 122 -9 215 -11 94 -3 186 -7 205 -10 19 -3 76
-5 125 -5 50 0 153 -4 230 -10 77 -5 191 -11 252 -11 104 -2 113 -3 119 -22
l7 -21 17 22 c17 20 22 21 125 12 61 -4 118 -4 131 0 13 5 65 6 116 2 51 -4
230 -5 398 -2 168 3 310 3 315 -1 6 -3 71 -4 145 -1 162 6 217 6 380 -1 168
-8 186 -8 325 -9 66 -1 190 -3 275 -5 140 -2 254 -3 350 0 19 1 73 0 120 -2
47 -2 143 -3 214 -2 71 0 134 -3 140 -9 7 -5 27 -9 46 -9 19 1 96 -2 171 -6
l136 -8 6 24 7 24 13 -25 c12 -24 17 -25 137 -32 267 -14 441 -21 585 -23 83
-2 197 -6 255 -8 58 -3 116 -6 130 -6 14 -1 140 1 280 4 140 4 264 6 275 5 11
-1 25 -1 30 -1 6 1 222 3 480 7 259 3 495 9 525 12 30 4 96 3 145 -1 50 -5
133 -6 185 -2 120 8 393 8 430 0 16 -4 38 -2 48 4 11 6 107 13 213 17 122 4
209 12 236 20 25 9 50 11 65 6 12 -4 43 -7 68 -6 25 1 56 -2 70 -7 18 -7 35
-6 57 3 20 9 57 11 114 8 46 -3 104 -2 129 3 40 8 142 15 272 20 26 1 53 8 59
14 16 16 41 17 55 3 12 -12 57 -13 176 -7 58 3 81 1 89 -9 19 -23 74 -17 91 8
14 21 22 22 178 25 101 2 167 7 176 14 7 6 19 7 26 3 10 -7 313 -11 738 -11
50 0 160 4 185 8 6 0 36 -4 67 -10 31 -7 96 -10 144 -8 48 3 101 0 118 -5 17
-5 68 -9 113 -8 50 0 84 -3 88 -10 4 -6 24 -10 44 -9 20 2 42 0 49 -5 7 -4 17
-4 24 0 6 4 154 6 327 4 391 -3 369 -4 471 4 47 4 92 6 100 5 45 -5 739 20
815 28 74 9 189 15 325 18 74 1 160 5 190 9 51 7 172 14 400 21 52 2 147 7
210 10 63 4 144 8 180 9 309 11 503 19 545 22 187 15 797 22 985 11 63 -4 228
-10 365 -13 285 -7 373 -10 500 -18 50 -3 153 -8 230 -10 77 -3 160 -9 184
-15 25 -5 51 -7 58 -5 7 2 21 7 31 10 9 3 60 5 112 3 52 -1 145 -3 205 -5 61
-1 155 -4 210 -8 284 -17 738 -20 767 -5 12 6 35 7 61 2 23 -4 85 -7 137 -6
76 2 404 2 705 0 22 0 83 1 135 1 52 1 142 1 200 1 58 -1 164 2 235 6 72 4
164 6 205 4 41 -2 309 -2 595 0 659 4 1022 4 1153 1 l103 -3 16 -31 c30 -58
67 -62 102 -11 19 29 30 35 60 36 47 1 112 -2 159 -7 37 -4 387 -16 472 -16
25 0 133 1 240 2 107 0 227 -2 265 -5 39 -4 120 -8 180 -11 61 -2 205 -9 320
-15 116 -6 314 -12 440 -14 127 -2 237 -4 245 -5 8 0 58 1 110 3 52 2 114 0
137 -4 23 -5 62 -5 87 0 25 5 65 5 88 0 24 -5 81 -11 128 -14 47 -3 96 -8 110
-12 14 -3 48 -7 75 -8 194 -11 269 -16 330 -21 56 -4 227 -6 305 -2 64 3 524
-14 533 -19 7 -4 102 -8 212 -10 226 -3 289 -7 325 -20 13 -6 40 -6 59 -2 24
5 40 4 50 -4 16 -13 49 -17 196 -21 123 -4 226 -15 240 -27 18 -14 94 -22 107
-11 15 12 108 32 147 32 15 0 54 9 87 21 32 11 75 24 95 28 19 4 50 15 69 24
18 9 43 17 56 17 21 0 101 35 114 50 3 3 16 13 30 22 14 10 51 35 82 57 32 21
73 45 93 51 20 6 43 22 51 35 9 13 35 35 59 49 24 14 78 60 121 102 112 108
145 138 180 162 18 12 34 32 38 45 5 21 37 44 114 81 12 6 25 19 28 29 3 9 9
17 13 17 5 0 14 13 21 30 7 16 20 32 30 35 10 3 22 19 25 35 8 34 7 34 51 18
29 -10 36 -9 54 7 22 19 26 58 11 99 -13 32 22 87 64 100 82 25 86 27 84 60
-6 73 43 153 140 229 33 26 63 56 66 67 4 11 13 20 21 20 8 0 23 14 33 30 10
17 45 59 77 94 32 35 70 82 84 105 13 22 41 52 62 66 21 14 38 29 38 34 0 16
144 158 177 175 31 16 63 60 63 88 1 34 189 258 217 258 7 0 13 3 13 8 0 19
180 230 203 238 9 3 15 9 12 14 -9 15 234 243 251 236 12 -5 33 23 89 112 36
59 80 78 138 58 38 -13 42 -13 45 2 9 50 14 62 27 62 20 0 19 12 -5 43 -12 16
-18 32 -13 44 13 38 102 138 213 238 8 7 26 28 40 45 19 24 30 30 48 25 16 -4
28 0 37 11 11 15 18 16 61 5 27 -7 73 -14 101 -17 29 -2 61 -8 70 -13 56 -30
117 -51 130 -47 8 4 39 -7 67 -24 46 -26 62 -29 122 -28 38 1 86 -1 107 -5 33
-6 41 -4 62 20 13 16 25 34 25 41 0 6 5 12 10 12 6 0 16 11 22 25 6 13 20 28
32 31 12 4 32 15 45 25 13 10 27 16 32 13 5 -3 9 -1 9 4 0 4 22 18 49 31 l50
22 38 -19 c21 -11 56 -34 78 -52 83 -66 119 -96 137 -115 42 -43 126 -172 141
-215 25 -73 45 -116 72 -156 14 -20 25 -43 25 -51 0 -7 22 -37 50 -66 27 -29
50 -61 50 -72 0 -11 16 -45 35 -76 35 -58 70 -147 61 -156 -3 -3 4 -17 14 -31
11 -13 20 -36 20 -49 0 -16 14 -38 39 -62 32 -29 42 -48 55 -103 9 -37 16 -80
16 -95 1 -15 8 -46 16 -68 9 -22 22 -65 29 -95 8 -30 21 -77 29 -105 25 -88
48 -169 54 -195 6 -31 49 -100 61 -100 5 0 14 -13 20 -30 5 -16 15 -30 20 -30
6 0 11 -14 11 -31 0 -17 8 -43 19 -57 10 -15 24 -44 30 -64 7 -21 16 -40 21
-43 9 -6 61 -96 110 -193 21 -41 41 -67 57 -73 13 -5 46 -26 71 -48 30 -24 61
-41 87 -44 22 -4 41 -11 43 -17 2 -5 9 -10 15 -10 12 0 137 -151 137 -167 1
-4 14 -24 30 -43 17 -19 30 -38 30 -42 0 -11 26 -41 98 -112 38 -39 62 -71 62
-84 0 -12 6 -22 14 -22 7 0 20 -10 29 -23 8 -12 40 -49 72 -82 32 -33 64 -73
71 -90 18 -39 32 -56 70 -83 18 -12 34 -32 38 -45 4 -17 29 -35 91 -66 47 -24
85 -50 85 -57 0 -8 6 -14 13 -14 6 0 23 -9 37 -20 14 -11 34 -20 46 -20 11 0
44 -11 72 -25 29 -14 58 -25 64 -25 7 0 33 -11 58 -24 192 -101 379 -186 410
-186 9 0 24 -6 35 -13 37 -25 184 -56 278 -57 110 -3 127 -2 241 2 76 3 116 0
133 -9 16 -8 58 -12 117 -11 58 1 99 -3 114 -11 19 -10 26 -10 39 0 20 18 135
18 140 2 5 -15 39 -17 47 -4 10 15 265 4 351 -16 99 -22 375 -22 470 0 66 16
60 15 195 22 80 4 103 1 148 -17 29 -11 55 -18 58 -15 3 3 27 -1 52 -9 50 -15
176 -17 305 -6 42 4 81 4 86 -1 5 -5 17 -5 27 1 11 5 97 7 204 5 108 -3 199 0
220 5 132 38 183 43 419 41 151 -1 243 -6 256 -13 23 -12 227 -13 430 -1 165
10 226 8 350 -11 55 -8 147 -14 205 -13 193 3 384 -2 455 -12 39 -5 86 -9 105
-8 19 1 57 -3 84 -9 26 -5 66 -7 88 -5 21 3 49 1 61 -5 29 -15 333 -34 400
-26 29 3 75 12 102 19 62 17 252 38 265 30 17 -11 59 7 66 28 5 16 -1 28 -27
50 -33 27 -37 28 -124 24 -49 -3 -137 -12 -195 -20 -145 -21 -534 -12 -582 14
-14 7 -23 7 -33 -1 -8 -7 -20 -8 -26 -4 -16 10 -36 12 -259 25 -204 13 -196
12 -330 10 -52 -1 -105 0 -118 3 -13 3 -46 6 -75 7 -29 0 -75 7 -103 15 -54
14 -272 25 -280 13 -2 -4 -44 -7 -92 -7 -48 0 -107 -2 -130 -6 -24 -3 -48 -4
-53 -1 -4 3 -61 7 -126 10 -65 2 -139 9 -165 15 -63 16 -331 1 -462 -26 -24
-5 -375 -19 -421 -16 -16 0 -131 3 -254 6 -123 3 -238 10 -255 15 -78 24 -205
34 -355 28 -86 -3 -168 -10 -182 -16 -37 -14 -234 -15 -299 -2 -31 6 -88 8
-131 5 -42 -3 -125 -1 -185 5 -60 6 -176 13 -259 16 -82 3 -204 7 -270 9 -66
2 -174 9 -241 16 -91 9 -133 10 -173 1 -34 -7 -58 -8 -70 -2 -10 6 -26 10 -37
10 -21 -1 -118 38 -155 62 -13 9 -50 18 -82 21 -43 4 -64 11 -85 30 -15 14
-43 31 -62 39 -31 13 -100 47 -185 92 -76 40 -166 77 -189 77 -14 0 -28 5 -31
10 -3 6 -14 10 -23 10 -9 0 -25 13 -36 28 -10 15 -47 43 -83 62 -36 19 -69 43
-74 52 -5 10 -27 27 -48 38 -44 22 -81 64 -81 91 0 11 -19 38 -42 61 -24 24
-53 58 -66 76 -12 19 -36 45 -52 59 -16 13 -44 46 -61 74 -18 27 -39 49 -46
49 -7 0 -17 8 -20 18 -7 18 -59 85 -106 136 -16 17 -42 51 -59 76 -44 64 -94
107 -164 140 -34 15 -65 33 -68 39 -4 6 -17 11 -28 11 -29 0 -72 51 -114 135
-19 38 -51 99 -70 133 -19 35 -34 76 -34 91 0 15 -9 36 -20 46 -11 10 -23 35
-26 56 -5 27 -20 52 -54 86 -39 40 -49 58 -60 110 -7 34 -10 69 -7 78 4 8 -5
36 -18 62 -14 25 -25 54 -25 63 0 10 -7 33 -15 53 -8 19 -21 67 -29 107 -9 40
-19 77 -24 84 -5 6 -15 34 -22 61 -7 28 -19 57 -25 65 -7 8 -20 35 -29 60 -35
102 -43 120 -57 137 -17 21 -49 89 -54 115 -2 10 -15 32 -28 50 -14 18 -37 59
-52 91 -14 31 -32 63 -40 70 -7 7 -24 36 -39 65 -14 28 -30 53 -36 57 -5 3
-15 25 -21 48 -6 23 -24 61 -40 85 -16 24 -29 50 -29 59 0 45 -85 142 -213
243 -32 25 -76 60 -98 77 -47 38 -136 68 -231 77 l-67 8 6 28 c5 26 1 30 -31
44 -40 17 -91 63 -125 116 -13 19 -35 45 -50 57 -20 18 -23 25 -13 35 21 21
14 46 -17 56 -29 10 -56 44 -45 55 3 3 -13 18 -35 33 -23 14 -41 33 -41 40 0
8 -3 15 -7 15 -5 1 -21 3 -36 5 -15 1 -53 17 -84 33 -68 37 -138 41 -204 12
-30 -14 -48 -17 -61 -10 -10 5 -29 7 -42 3 -31 -7 -114 54 -145 107 -20 35
-23 37 -59 28 -20 -5 -40 -9 -44 -9 -4 0 -9 -9 -13 -20 -7 -24 40 -97 97 -151
20 -19 39 -46 40 -59 3 -20 -4 -27 -42 -41 -29 -11 -51 -14 -62 -8 -9 5 -25 9
-35 10 -10 0 -29 14 -43 31 -20 26 -24 42 -24 102 -1 46 6 88 18 118 16 41 17
50 5 64 -8 10 -14 31 -14 48 0 29 -2 31 -40 33 -22 0 -48 -1 -57 -4z m235
-577 c26 -8 20 -26 -22 -74 -26 -30 -47 -43 -67 -45 -34 -2 -34 3 -2 90 22 61
23 61 48 48 14 -7 33 -16 43 -19z m77 -246 c9 -16 8 -20 -7 -22 -10 -1 -25 -2
-33 -4 -8 -1 -19 -2 -23 -3 -4 -1 -3 -10 3 -20 9 -17 4 -24 -27 -48 -21 -15
-49 -38 -63 -51 -16 -14 -33 -21 -45 -17 -11 2 -27 5 -36 5 -8 0 -23 6 -33 13
-16 12 -16 17 -2 71 9 32 14 63 13 69 -1 8 26 13 88 15 50 1 97 4 105 6 34 9
50 5 60 -14z m-377 -263 c9 -1 17 -5 17 -9 0 -4 8 -8 18 -8 39 -1 42 -15 8
-53 -43 -48 -70 -48 -126 3 -24 22 -48 40 -52 40 -5 0 -3 9 4 21 11 18 19 20
63 14 28 -3 58 -7 68 -8z m-305 -305 c12 -12 36 -25 53 -29 39 -8 47 -29 21
-54 -33 -30 -65 -24 -113 21 -24 22 -51 43 -62 46 -17 5 -17 8 -3 22 22 25 77
21 104 -6z m-98 -222 c14 -26 5 -57 -19 -65 -30 -9 -91 58 -89 99 l1 33 48
-23 c26 -13 53 -33 59 -44z m-186 -67 c22 -21 52 -45 66 -54 25 -16 25 -17 6
-38 -11 -11 -25 -21 -32 -21 -7 0 -16 -9 -19 -20 -7 -21 -25 -28 -25 -9 0 12
-41 70 -79 111 -13 15 -23 29 -20 31 13 11 54 37 58 37 2 0 22 -17 45 -37z
m-907 -1072 c108 11 121 -6 46 -65 -40 -31 -53 -36 -100 -36 -38 0 -66 7 -93
23 -44 25 -47 29 -25 47 8 7 15 18 15 25 0 19 20 23 57 10 20 -7 57 -9 100 -4z
m-164 -222 c21 -6 37 -16 37 -24 0 -17 -22 -19 -48 -6 -9 5 -29 14 -44 20 -16
6 -28 15 -28 20 0 9 9 8 83 -10z m-223 -58 c0 -4 32 -30 71 -56 51 -34 68 -50
60 -58 -6 -6 -11 -18 -11 -27 0 -8 -10 -21 -21 -28 -19 -12 -25 -10 -55 19
-19 18 -34 38 -34 45 0 6 -9 23 -20 37 -14 18 -19 34 -14 51 6 24 24 37 24 17z
m-57 -222 c15 -16 35 -29 43 -29 19 0 19 -49 -1 -56 -19 -8 -108 70 -117 103
-6 23 -5 24 20 18 15 -3 40 -19 55 -36z m-89 -153 c42 -50 44 -62 14 -93 -29
-31 -45 -29 -57 10 -11 34 -10 127 1 127 4 0 23 -20 42 -44z m-11034 -306 c0
-3 13 -11 29 -18 16 -7 37 -25 47 -39 15 -24 16 -36 5 -122 -13 -98 -15 -201
-5 -235 8 -26 62 -14 93 21 19 21 22 34 17 64 -11 69 21 58 44 -16 20 -65 37
-89 67 -97 41 -11 60 -1 73 38 10 28 9 38 -2 52 -22 27 -46 93 -52 145 -9 72
14 61 48 -23 59 -145 77 -181 93 -187 14 -5 18 -39 6 -46 -13 -8 -396 -9 -440
-2 -33 6 -43 12 -43 27 0 21 -40 123 -70 178 -20 38 -42 119 -42 158 -1 33 78
112 109 110 13 -1 23 -5 23 -8z m-5305 -56 c13 -9 29 -13 34 -9 6 3 21 0 33
-7 13 -7 28 -11 35 -10 21 5 40 -41 47 -113 9 -102 12 -296 4 -301 -3 -2 -32
-6 -62 -9 -54 -5 -57 -4 -91 33 -49 52 -72 133 -81 276 -6 117 -6 119 17 137
29 23 34 23 64 3z m-14601 -9 c3 -8 12 -12 20 -9 8 3 23 1 34 -5 18 -10 19
-15 9 -46 -6 -19 -14 -35 -18 -35 -4 0 -19 14 -33 31 -22 25 -31 30 -55 24
-16 -3 -36 -14 -45 -24 -24 -26 -46 -96 -35 -112 5 -8 9 -24 9 -35 0 -12 10
-28 23 -37 12 -8 19 -18 14 -23 -11 -12 -78 30 -92 57 -6 13 -19 39 -28 57 -9
19 -17 41 -17 51 0 24 49 68 85 75 17 4 44 15 60 26 36 24 61 25 69 5z m16611
5 c4 -6 -1 -52 -9 -103 -15 -88 -15 -96 3 -167 11 -41 18 -76 16 -78 -10 -11
-132 -19 -186 -12 -35 4 -68 5 -73 2 -5 -3 -55 -4 -111 -3 -55 1 -112 -2 -126
-8 -38 -14 -46 -2 -47 63 0 45 5 66 20 87 26 34 34 31 42 -19 7 -47 40 -92 67
-92 10 0 37 7 59 16 40 16 52 40 26 50 -22 8 -28 50 -13 86 8 18 12 38 10 44
-2 7 7 12 21 12 31 0 40 -23 31 -82 -10 -62 18 -136 50 -136 12 0 28 7 35 15
7 8 17 12 22 9 16 -10 28 18 28 67 0 29 6 51 15 59 8 7 18 30 21 52 4 23 14
43 25 49 11 5 19 19 19 30 0 20 29 68 42 69 4 0 10 -5 13 -10z m744 -6 c2 -2
-3 -12 -11 -21 -8 -10 -21 -34 -28 -53 -7 -19 -24 -53 -36 -75 -13 -22 -28
-64 -34 -93 -7 -29 -18 -59 -27 -67 -19 -20 -138 -22 -130 -2 2 7 -6 30 -19
52 -35 59 -41 75 -49 132 -6 44 -4 54 14 72 14 14 34 21 59 21 20 1 55 7 77
15 22 8 52 15 67 15 15 0 30 5 34 11 6 10 72 4 83 -7z m-4696 -64 c35 -37 37
-42 24 -66 -17 -33 -3 -174 23 -229 11 -21 16 -43 11 -48 -4 -4 -27 -9 -50
-10 -39 -2 -45 1 -72 38 -38 53 -59 149 -37 172 14 13 13 19 -8 56 -13 23 -24
46 -24 50 0 11 73 77 85 77 6 0 27 -18 48 -40z m9780 16 c16 -12 17 -21 8 -72
-5 -33 -8 -103 -6 -156 l3 -97 -43 -7 c-42 -6 -82 6 -97 29 -3 6 -10 48 -13
93 -6 69 -5 86 9 99 11 12 13 21 6 34 -10 20 4 41 30 41 8 1 24 12 35 25 22
28 42 31 68 11z m-22004 -12 c3 -2 -5 -13 -17 -24 -22 -21 -30 -64 -14 -74 5
-3 17 -32 27 -66 17 -57 17 -62 2 -77 -15 -16 -19 -16 -50 -1 -40 19 -48 51
-40 148 5 53 3 65 -12 76 -14 11 -15 14 -4 18 8 2 21 7 29 10 15 5 71 -2 79
-10z m16401 -9 c0 -13 8 -29 19 -34 12 -7 20 -26 24 -55 4 -25 17 -63 30 -83
50 -80 40 -93 -67 -93 -90 0 -100 16 -101 154 0 128 3 136 55 136 36 0 40 -3
40 -25z m2819 -27 c29 -53 47 -100 71 -190 7 -26 19 -53 26 -59 18 -14 18 -35
1 -42 -7 -3 -43 -3 -78 0 l-65 5 -15 92 c-12 82 -14 220 -2 239 11 19 34 2 62
-45z m-194 -76 c0 -99 3 -125 20 -155 28 -53 16 -60 -85 -51 -55 4 -83 11 -87
21 -8 21 16 68 55 109 30 31 37 45 37 78 0 38 36 116 54 116 3 0 6 -53 6 -118z
m-7077 86 c32 -9 32 -9 17 -38 -13 -26 -14 -33 -1 -52 7 -13 19 -54 26 -93 7
-38 18 -86 26 -106 l13 -37 -37 -6 c-72 -12 -172 -7 -197 10 -34 23 -65 129
-65 226 0 91 10 103 86 104 30 0 57 4 61 8 4 3 14 4 22 0 9 -3 31 -10 49 -16z
m10302 2 c13 -7 15 -26 12 -112 -2 -57 -3 -117 -3 -134 1 -35 -15 -44 -76 -44
-28 0 -33 4 -41 33 -9 31 1 235 13 266 5 14 62 9 95 -9z m-13420 -15 c0 -7
-16 -22 -35 -34 -31 -18 -35 -18 -35 -4 0 23 39 63 56 56 8 -3 14 -11 14 -18z
m15951 -6 c13 -13 18 -27 14 -37 -4 -9 -9 -41 -12 -69 -6 -59 -28 -89 -44 -60
-6 9 -15 17 -21 17 -17 0 -85 78 -97 110 -10 29 -9 29 47 41 31 6 62 13 67 14
20 7 25 5 46 -16z m-22974 -14 c33 -22 34 -25 17 -31 -29 -11 -37 -32 -42
-103 -3 -44 1 -77 13 -108 13 -34 14 -48 6 -56 -14 -14 -27 2 -38 43 -3 14
-25 42 -49 62 -52 47 -68 85 -49 122 23 44 43 68 67 81 32 18 35 18 75 -10z
m397 -3 c27 -15 51 -32 53 -37 2 -6 -16 -18 -39 -26 l-43 -16 0 -78 c-1 -66 2
-79 17 -83 9 -2 20 -12 23 -22 3 -11 17 -20 32 -22 44 -5 37 -25 -10 -31 -52
-7 -90 1 -83 18 2 7 -5 21 -16 32 -12 10 -32 42 -45 71 -18 42 -21 57 -12 74
10 18 9 72 -2 106 -3 11 37 34 71 41 3 0 27 -12 54 -27z m6751 16 c14 -6 25
-17 25 -24 0 -8 12 -11 40 -7 44 6 49 -1 23 -29 -9 -11 -11 -18 -5 -18 7 0 12
-10 12 -23 0 -31 38 -140 54 -152 6 -5 18 -24 25 -42 7 -17 29 -48 49 -67 22
-22 30 -36 21 -37 -44 -3 -100 -9 -147 -15 -37 -4 -57 -2 -69 8 -33 27 -73 92
-73 118 0 15 -7 41 -16 59 -19 39 -11 101 17 127 27 24 24 40 -11 54 l-31 13
22 23 c26 27 29 28 64 12z m2627 -7 c13 -13 18 -26 14 -37 -8 -21 11 -176 26
-209 13 -30 4 -57 -17 -49 -8 4 -15 11 -14 18 4 20 -19 62 -49 93 -17 16 -37
50 -45 75 -15 43 -15 48 5 87 23 46 46 53 80 22z m10868 -101 c0 -25 38 -92
70 -126 24 -26 27 -33 14 -38 -29 -11 -85 -6 -116 10 l-31 16 7 113 c8 147 14
161 37 93 10 -29 18 -60 19 -68z m-8511 88 c2 -71 22 -223 30 -227 4 -3 16
-21 25 -40 20 -38 11 -55 -24 -49 -18 2 -27 15 -40 53 -9 28 -25 70 -35 95
-10 25 -20 68 -22 97 -5 50 -4 53 29 73 18 11 34 20 34 20 1 0 2 -10 3 -22z
m-10124 -30 c-36 -28 -56 -69 -44 -91 6 -10 7 -27 4 -38 -4 -11 0 -30 9 -44
29 -44 16 -73 -18 -40 -8 8 -21 15 -29 15 -22 0 -67 58 -66 83 0 12 4 31 8 42
5 12 3 25 -6 33 -8 8 -12 19 -10 25 4 13 64 35 99 36 15 1 30 6 33 11 4 7 13
6 26 -1 20 -10 19 -11 -6 -31z m20595 17 c0 -13 -11 -49 -25 -80 -13 -30 -29
-83 -36 -116 -10 -49 -17 -63 -37 -72 -21 -10 -27 -8 -46 15 -32 41 -56 119
-56 182 l0 56 39 0 c22 0 43 4 46 10 7 11 59 28 93 29 17 1 22 -4 22 -24z
m-24780 -35 c0 -27 7 -45 21 -59 26 -24 20 -47 -15 -53 -25 -5 -26 -3 -26 38
0 23 -5 55 -10 70 -7 19 -7 30 1 40 17 21 29 7 29 -36z m-2257 26 c18 -7 41
-23 51 -35 15 -17 30 -21 76 -21 31 0 85 -3 119 -6 54 -6 61 -9 61 -28 0 -12
5 -27 11 -33 16 -16 3 -55 -25 -75 -23 -17 -170 -40 -181 -29 -3 2 -5 23 -5
45 0 61 -21 86 -75 86 l-44 0 2 -40 c1 -43 -5 -56 -23 -45 -8 5 -9 23 -4 59
10 69 8 86 -12 100 -17 13 -12 36 7 36 5 0 24 -6 42 -14z m24322 -1 c25 -5 25
-6 25 -115 0 -103 -1 -110 -20 -110 -20 0 -57 33 -64 59 -3 9 -12 47 -21 85
-17 77 -10 99 31 91 13 -3 35 -7 49 -10z m-22447 -98 c16 -18 15 -20 -7 -38
-22 -18 -91 -27 -91 -11 1 4 9 25 20 47 11 22 19 46 20 54 0 8 8 23 18 34 16
19 17 18 20 -24 2 -24 11 -52 20 -62z m2699 26 c-5 -46 -2 -75 8 -100 15 -36
12 -57 -8 -50 -15 5 -20 33 -18 109 1 62 -1 69 -25 84 -29 20 -17 34 23 26 25
-5 26 -6 20 -69z m21985 32 c7 -40 -8 -171 -23 -190 -8 -11 -123 -5 -135 7 -7
8 41 106 89 181 37 57 59 58 69 2z m2446 -7 c-1 -79 13 -180 28 -203 18 -26
18 -45 -1 -45 -16 0 -45 49 -45 78 0 11 -7 25 -16 33 -28 23 -44 68 -43 119 1
27 6 51 11 51 4 1 12 2 17 3 5 0 13 4 17 9 21 21 32 5 32 -45z m-16953 12 c3
-5 15 -10 26 -10 10 0 32 -14 49 -31 l29 -31 -32 -22 c-28 -19 -32 -28 -32
-67 -1 -42 2 -54 25 -99 23 -46 14 -57 -51 -64 -128 -13 -168 -4 -119 26 28
18 25 40 -10 73 -16 16 -30 34 -30 42 0 7 -9 17 -20 23 -27 14 -61 87 -54 115
7 30 73 50 171 54 23 0 45 -3 48 -9z m14662 -38 l-12 -25 -6 24 c-7 28 10 57
22 38 4 -7 2 -23 -4 -37z m2511 8 c29 -38 46 -220 22 -244 -20 -20 -90 59 -90
101 0 13 -7 37 -15 52 -11 22 -12 36 -3 67 6 21 12 44 14 51 5 18 50 1 72 -27z
m-20533 10 c28 -6 75 -11 105 -11 43 1 61 -3 77 -19 12 -11 31 -20 41 -20 24
0 40 -19 37 -45 -5 -60 -20 -107 -52 -163 l-35 -64 -66 5 c-37 3 -148 8 -247
11 l-180 6 -34 36 c-44 46 -62 113 -50 179 5 27 14 52 20 56 6 3 37 9 68 12
32 4 65 9 74 12 18 7 33 -15 40 -60 12 -72 67 -142 136 -171 47 -20 66 -18 78
8 11 26 -11 75 -40 84 -9 3 -25 20 -34 37 -8 18 -19 34 -24 37 -4 3 -11 25
-15 49 l-7 44 29 -6 c16 -3 52 -11 79 -17z m2677 -82 c4 -90 9 -110 33 -154
36 -64 30 -84 -25 -84 -34 0 -40 3 -40 20 0 12 -11 31 -25 44 -15 14 -25 35
-25 52 0 16 -7 38 -15 48 -8 11 -15 33 -15 49 0 44 62 122 101 126 4 1 8 -45
11 -101z m-11515 50 c0 -24 6 -70 11 -103 8 -45 8 -63 -1 -71 -16 -15 -115
-26 -122 -14 -3 5 1 23 10 39 14 28 14 31 -7 45 -20 14 -21 19 -10 49 7 18 12
41 12 51 0 11 5 16 14 13 7 -3 26 3 42 14 42 27 49 24 51 -23z m16513 0 c0
-18 9 -57 19 -87 23 -68 33 -121 23 -122 -13 -1 -76 -8 -124 -14 -27 -3 -49
-1 -53 5 -8 12 13 90 24 90 5 0 18 24 30 53 45 111 81 144 81 75z m12354 27
c9 -26 -17 -117 -46 -161 -15 -23 -28 -49 -28 -57 0 -21 -19 -26 -73 -20 -37
4 -47 10 -49 27 -10 57 114 226 165 226 14 0 27 -7 31 -15z m-1553 -44 c10
-18 38 -53 63 -77 62 -59 60 -72 -11 -73 -32 -1 -69 -2 -83 -4 -23 -2 -25 2
-28 39 -2 26 2 45 11 53 10 8 13 25 9 58 -6 54 11 56 39 4z m-13186 7 c17 -56
62 -138 79 -144 47 -16 -50 -35 -106 -19 -34 9 -38 21 -27 76 5 24 11 55 13
69 5 39 5 40 20 40 8 0 18 -10 21 -22z m2174 -49 c-17 -35 -37 -82 -43 -104
-12 -42 -47 -64 -80 -52 -14 6 -14 10 2 45 10 22 40 62 66 88 27 27 55 59 64
72 28 43 23 14 -9 -49z m7975 29 c3 -24 8 -59 11 -79 7 -35 6 -37 -28 -43 -19
-3 -42 -4 -51 0 -20 8 -21 38 -1 54 8 7 15 20 15 30 0 22 29 80 40 80 4 0 10
-19 14 -42z m5327 36 c22 -4 27 -12 32 -43 2 -20 16 -62 29 -92 14 -30 30 -66
36 -81 6 -16 16 -28 22 -28 5 0 10 -7 10 -15 0 -18 -1 -18 -91 -3 -95 17 -119
43 -119 131 0 118 16 143 81 131z m-9805 -36 l27 -33 -29 -6 c-64 -14 -84 -11
-84 15 0 65 41 76 86 24z m-15506 -8 c0 -16 3 -30 8 -30 4 0 16 -17 27 -37 11
-21 26 -42 33 -46 25 -16 1 -24 -45 -16 -27 5 -57 8 -68 7 -16 -2 -20 3 -19
22 1 13 -5 30 -12 38 -22 21 18 92 51 92 21 0 25 -5 25 -30z m9616 10 c24 -9
26 -14 21 -48 -3 -20 -12 -54 -21 -74 -15 -35 -20 -38 -59 -39 -23 0 -63 -2
-89 -4 -54 -3 -54 -1 6 88 57 85 83 99 142 77z m-5598 -98 c0 -95 -1 -98 -26
-110 -43 -20 -102 -13 -102 13 0 7 16 39 35 71 19 32 35 61 35 65 0 9 43 59
51 59 4 0 7 -44 7 -98z m2812 74 c0 -13 5 -26 10 -28 6 -2 15 -32 21 -68 6
-36 16 -71 22 -78 26 -33 15 -49 -37 -56 -63 -7 -176 -8 -176 -1 0 3 12 23 26
44 14 22 24 49 22 60 -4 28 72 150 95 151 11 0 17 -8 17 -24z m20621 7 c1 -10
0 -29 -1 -41 -1 -13 3 -37 9 -53 6 -16 16 -42 22 -58 5 -15 31 -43 56 -62 38
-29 81 -94 70 -106 -2 -2 -27 2 -55 10 -45 11 -56 20 -104 82 -75 96 -79 106
-73 171 6 69 9 74 46 74 21 0 29 -5 30 -17z m-27672 -44 c-2 -37 -7 -53 -21
-60 -13 -7 -18 -6 -18 2 0 6 -9 9 -20 6 -11 -3 -20 -3 -20 -1 0 6 73 104 78
104 1 0 2 -23 1 -51z m22809 -10 c23 -67 16 -79 -35 -61 -21 7 -27 15 -26 33
11 107 31 116 61 28z m-27108 27 c0 -7 6 -19 14 -25 8 -7 18 -26 21 -42 4 -18
16 -34 28 -39 22 -8 22 -8 -3 -13 -65 -15 -110 -17 -110 -6 0 7 -11 9 -30 6
-39 -8 -39 8 0 53 16 19 29 40 30 47 0 12 27 32 43 33 4 0 7 -6 7 -14z m32140
-16 c11 -6 22 -26 26 -48 4 -20 21 -53 37 -72 28 -32 29 -35 12 -39 -22 -4
-74 52 -105 113 -26 52 -14 70 30 46z m-25572 -38 c2 -12 8 -22 14 -22 16 0
48 -31 48 -47 0 -9 -13 -13 -40 -13 -43 0 -42 -3 -44 77 -1 36 17 40 22 5z
m24962 -14 c0 -24 7 -70 14 -102 17 -72 13 -84 -27 -88 -38 -4 -127 23 -127
37 0 6 16 34 35 62 19 29 35 54 35 57 0 3 9 21 21 40 29 50 49 47 49 -6z
m-2316 -20 c22 -44 21 -48 -19 -48 -19 0 -35 2 -35 4 0 8 31 76 34 76 3 0 12
-14 20 -32z m-19756 -73 c6 -14 16 -25 21 -25 6 0 15 -9 21 -20 10 -19 8 -20
-50 -20 -59 0 -61 1 -54 23 9 28 34 67 44 67 4 0 12 -11 18 -25z m22257 -62
c5 -26 3 -32 -15 -38 -24 -8 -49 8 -31 19 6 4 11 24 11 44 0 31 2 34 14 22 8
-8 17 -29 21 -47z"/>
</g>
</svg>
