<?xml version="1.0" standalone="no"?>
<!DOCTYPE svg PUBLIC "-//W3C//DTD SVG 20010904//EN"
 "http://www.w3.org/TR/2001/REC-SVG-20010904/DTD/svg10.dtd">
<svg version="1.0" xmlns="http://www.w3.org/2000/svg"
 width="1293.877643pt" height="400.000000pt" viewBox="0 0 1293.877643 400.000000"
 preserveAspectRatio="xMidYMid meet">
<metadata>
Created by potrace 1.15, written by Peter Selinger 2001-2017
</metadata>
<g transform="translate(-80.689225,500.099658) scale(0.104757,-0.104757)"
fill="#444444" stroke="none">
<path d="M8385 4769 c-22 -5 -125 -11 -230 -13 -256 -5 -309 -10 -340 -30 -18
-12 -36 -15 -55 -11 -21 5 -49 -3 -103 -27 -91 -41 -103 -60 -74 -120 11 -24
26 -50 33 -58 7 -8 14 -42 15 -75 1 -33 8 -83 16 -112 8 -28 13 -76 13 -105
-1 -29 1 -105 4 -168 3 -63 8 -178 11 -255 3 -77 7 -151 10 -165 19 -84 33
-767 19 -880 -4 -35 -18 -438 -18 -540 0 -30 3 -112 8 -183 7 -112 6 -127 -8
-127 -9 0 -16 -6 -17 -12 -5 -79 -21 -148 -34 -148 -8 0 -17 -9 -20 -20 -3
-11 -11 -20 -16 -20 -5 0 -9 -45 -9 -100 0 -74 4 -109 16 -133 15 -28 15 -41
4 -112 -7 -44 -19 -98 -27 -120 -8 -22 -15 -56 -14 -76 0 -21 -6 -42 -14 -49
-24 -20 -17 -38 19 -51 18 -7 41 -25 51 -42 17 -28 20 -29 68 -24 27 4 57 13
67 22 25 22 94 27 158 11 38 -10 138 -17 302 -21 206 -5 257 -4 315 10 38 8
84 18 101 20 18 2 50 8 71 14 50 13 774 12 817 -1 17 -5 92 -12 166 -14 140
-5 242 -16 296 -32 17 -6 53 -8 80 -6 32 2 61 -2 84 -13 41 -19 141 -30 265
-27 125 2 529 15 590 18 28 2 127 6 220 10 94 4 181 11 195 16 58 22 179 27
585 23 422 -3 781 -14 860 -26 22 -3 67 -10 100 -15 33 -5 67 -12 76 -16 11
-5 26 4 48 30 l32 36 -8 77 c-4 42 -7 171 -6 286 1 116 2 235 2 265 0 115 2
199 7 300 6 128 5 341 -2 352 -3 5 -8 50 -10 101 -3 50 -9 125 -15 165 -6 41
-8 76 -6 79 3 2 1 19 -4 36 -6 18 -12 66 -14 107 -6 85 -16 215 -21 245 -1 11
-12 99 -22 195 -11 96 -24 193 -30 215 -6 22 -16 99 -22 170 -19 228 -21 239
-36 290 -11 37 -16 117 -19 300 -5 247 -18 361 -49 425 -10 21 -19 25 -51 24
-77 -1 -237 -14 -246 -20 -12 -7 -207 -18 -324 -18 -44 0 -235 4 -425 8 -190
5 -426 9 -525 10 -150 1 -187 4 -220 19 -40 18 -175 31 -262 25 -10 0 -65 0
-123 0 -58 1 -118 1 -135 1 -160 0 -225 2 -283 12 -37 6 -129 11 -204 11 -80
0 -140 4 -144 10 -4 6 -55 7 -138 3 -368 -17 -584 -11 -693 21 -28 8 -78 14
-110 14 -32 -1 -85 1 -118 4 -113 10 -440 14 -480 5z m325 -165 c63 0 167 -6
230 -13 63 -6 147 -15 185 -19 39 -4 75 -10 81 -14 21 -14 188 -18 289 -8 253
24 373 27 438 9 52 -14 194 -19 617 -24 326 -3 430 -10 560 -35 54 -11 362
-16 377 -7 5 3 33 1 62 -4 30 -5 180 -11 334 -14 191 -4 285 -10 298 -18 16
-10 21 -9 29 3 7 12 40 15 172 16 90 1 183 7 208 13 62 15 111 14 152 -4 46
-19 50 -42 53 -300 1 -110 4 -207 8 -215 3 -8 10 -67 17 -130 6 -63 15 -135
21 -160 5 -25 14 -90 19 -145 5 -55 16 -140 25 -190 31 -184 36 -221 30 -242
-3 -13 1 -55 9 -95 8 -40 17 -127 20 -193 4 -66 11 -147 17 -180 6 -33 12
-109 13 -170 1 -67 7 -119 15 -133 8 -16 11 -50 8 -110 -11 -195 -17 -325 -20
-477 -2 -88 -7 -168 -11 -177 -4 -9 -3 -25 3 -35 16 -30 14 -108 -4 -226 -13
-82 -14 -115 -6 -139 6 -17 11 -35 11 -40 0 -4 -30 -5 -67 -2 -38 3 -131 7
-207 9 -77 2 -172 6 -210 9 -102 9 -393 20 -446 18 -25 -2 -60 -7 -78 -11 -18
-5 -45 -6 -60 -2 -37 11 -422 4 -489 -9 -31 -5 -59 -7 -64 -5 -4 3 -16 1 -26
-4 -31 -17 -135 -28 -218 -22 -44 3 -141 3 -215 -2 -74 -4 -198 -9 -275 -11
-77 -2 -150 -8 -162 -13 -38 -14 -243 3 -319 27 -38 12 -89 21 -114 21 -24 0
-82 6 -128 14 -46 8 -134 14 -196 14 -70 -1 -122 3 -136 11 -12 6 -28 9 -35 6
-8 -3 -29 0 -47 5 -19 6 -141 9 -283 8 -137 -1 -274 -1 -303 0 -30 1 -104 -6
-165 -15 -265 -39 -315 -42 -497 -29 -58 4 -147 6 -198 6 -96 -1 -204 21 -199
41 1 6 -17 11 -43 12 -55 1 -73 27 -59 84 5 20 9 86 9 146 0 96 3 116 25 162
14 29 29 55 33 58 5 3 9 175 10 383 1 359 5 516 17 628 5 43 7 325 4 610 0 44
0 100 1 125 0 25 -6 104 -14 175 -8 72 -12 179 -10 239 2 60 -1 141 -6 180 -5
39 -12 143 -15 230 -8 184 -10 216 -23 273 -11 49 -2 63 43 63 17 0 36 5 43
12 11 11 110 30 157 30 11 0 94 -1 185 -1 173 -2 340 5 349 15 3 3 17 2 31 -3
14 -4 77 -8 140 -9z"/>
<path d="M8523 4273 c-9 -21 -18 -47 -18 -58 -1 -20 -18 -60 -61 -147 -13 -27
-24 -57 -24 -67 0 -11 -4 -23 -10 -26 -5 -3 -23 -47 -39 -98 -27 -83 -39 -119
-61 -182 -69 -193 -75 -227 -45 -255 12 -11 29 -20 38 -20 24 0 52 50 71 125
35 141 68 183 129 169 18 -4 76 -8 130 -8 92 -1 99 -2 117 -26 10 -13 31 -63
46 -110 43 -136 66 -194 82 -207 36 -29 92 -4 92 41 0 12 -8 40 -19 62 -10 21
-24 57 -31 79 -6 22 -20 56 -30 75 -20 41 -35 97 -31 123 1 10 -14 46 -33 81
-20 36 -36 77 -36 93 0 15 -18 64 -39 108 -22 44 -51 112 -66 150 -31 83 -77
135 -117 135 -22 0 -31 -7 -45 -37z m83 -211 c15 -10 44 -67 44 -87 0 -9 9
-35 19 -58 37 -82 39 -81 -74 -81 l-100 -1 4 40 c5 67 65 195 90 195 3 0 11
-4 17 -8z"/>
<path d="M9027 4206 c-106 -36 -154 -85 -145 -147 3 -26 62 -71 82 -63 19 7
34 -38 45 -136 5 -47 16 -115 24 -152 14 -57 15 -154 3 -166 -9 -8 16 -60 37
-81 22 -20 24 -20 61 -3 34 15 37 20 32 47 -3 16 -8 76 -12 131 -7 101 -7 102
17 109 38 12 93 38 107 52 7 7 20 13 29 13 23 0 108 66 147 113 75 92 81 166
18 207 -94 61 -109 69 -142 76 -115 24 -231 24 -303 0z m208 -110 c85 -11 145
-41 145 -72 0 -17 -125 -117 -167 -133 -17 -7 -34 -19 -37 -27 -7 -17 -30 -18
-44 -1 -10 12 -33 129 -34 175 0 12 7 34 16 48 14 20 23 24 49 20 18 -3 50 -8
72 -10z"/>
<path d="M9693 4161 c-88 -23 -93 -26 -93 -57 0 -68 49 -96 155 -90 61 3 80 0
97 -13 18 -15 19 -21 10 -52 -6 -19 -13 -52 -16 -74 -9 -81 -38 -241 -52 -291
-8 -28 -14 -61 -14 -73 0 -21 -2 -22 -124 -20 -74 1 -132 -3 -144 -10 -11 -6
-29 -11 -39 -11 -21 0 -53 -48 -53 -79 0 -47 59 -59 181 -40 44 7 67 6 102 -6
42 -14 143 -15 166 -1 5 4 65 6 133 7 182 0 199 4 220 47 15 31 16 39 4 50
-22 22 -84 32 -204 32 l-114 0 6 28 c12 58 31 191 42 286 3 28 7 53 10 57 2 4
7 42 10 85 2 42 7 81 10 86 3 5 54 8 114 7 59 -1 113 2 119 5 6 4 11 22 11 41
0 55 -41 77 -154 82 -50 2 -109 6 -131 8 -126 15 -183 14 -252 -4z"/>
<path d="M8675 3070 c-3 -5 -27 -10 -53 -10 -110 -1 -183 -43 -282 -159 -55
-64 -119 -180 -120 -214 0 -10 -4 -26 -9 -36 -14 -25 6 -153 33 -221 25 -62
82 -124 162 -177 72 -48 131 -54 234 -22 62 19 83 31 126 74 56 55 68 89 65
184 -2 65 -23 118 -59 149 -65 55 -189 87 -312 80 -45 -3 -83 -1 -86 4 -9 15
55 115 99 153 23 20 62 47 87 60 45 22 166 45 239 45 34 0 40 4 45 27 9 35 -6
48 -78 62 -73 14 -83 14 -91 1z m-32 -510 c52 -24 56 -29 73 -77 13 -36 6 -52
-49 -110 -21 -22 -40 -33 -58 -33 -15 0 -31 -5 -34 -10 -13 -21 -126 23 -162
63 -29 30 -86 143 -80 154 4 5 30 15 59 22 140 32 167 31 251 -9z"/>
<path d="M9660 3023 l-31 -28 25 -27 c30 -31 52 -119 51 -203 0 -67 3 -66 -83
-42 -87 25 -134 -4 -102 -63 11 -21 127 -80 156 -80 24 0 43 -43 43 -100 0
-87 38 -170 78 -170 41 1 47 15 50 122 2 79 6 105 18 114 8 6 61 15 117 19 56
4 113 11 126 16 40 15 48 -3 29 -64 -9 -30 -17 -74 -17 -99 0 -47 10 -63 107
-175 36 -41 98 -63 181 -63 54 0 72 5 102 25 20 14 46 27 56 29 11 2 36 19 55
38 19 18 43 38 54 44 16 9 18 15 9 45 -8 29 -15 35 -47 40 -31 5 -45 1 -75
-21 -20 -14 -63 -39 -94 -54 -55 -27 -60 -28 -104 -15 -67 20 -83 68 -23 69 9
0 44 18 78 40 34 22 66 40 72 40 16 0 62 32 91 64 73 79 -33 165 -210 169 -56
2 -76 -3 -122 -27 -30 -16 -59 -35 -65 -42 -8 -11 -20 -4 -59 31 -52 47 -47
46 -151 24 -29 -6 -51 -4 -82 8 -37 13 -44 22 -58 63 -9 26 -13 54 -10 62 3 8
-8 59 -25 112 -29 90 -34 99 -65 112 -44 18 -40 19 -75 -13z m705 -478 c0 -13
-12 -24 -38 -34 -44 -16 -58 -8 -50 32 5 26 9 28 47 25 33 -2 41 -7 41 -23z"/>
<path d="M12544 2780 c-28 -11 -47 -40 -118 -183 -33 -64 -74 -132 -93 -150
-18 -17 -33 -38 -33 -44 0 -7 -5 -13 -10 -13 -22 0 -126 101 -179 173 -29 41
-38 47 -70 47 -43 0 -56 -8 -65 -37 -13 -41 12 -78 146 -213 122 -125 116
-107 71 -197 -22 -43 -55 -103 -75 -133 -19 -30 -47 -85 -63 -123 -15 -37 -39
-82 -52 -99 -12 -18 -23 -43 -23 -55 0 -13 -11 -41 -25 -61 -14 -20 -25 -47
-25 -60 0 -13 -6 -35 -13 -50 -16 -31 -22 -108 -10 -115 4 -3 24 -8 43 -12 39
-7 37 -10 80 107 11 31 29 67 38 80 10 13 24 43 32 68 8 25 22 59 31 76 9 17
22 40 27 50 6 11 17 33 25 49 7 17 19 41 27 55 24 46 29 54 75 149 26 51 60
114 76 141 16 26 29 52 29 58 0 6 19 43 43 84 24 40 58 105 76 143 35 73 94
170 111 180 16 10 12 53 -7 75 -19 21 -35 24 -69 10z"/>
<path d="M11258 2713 l-35 -28 1 -85 c1 -47 -5 -121 -12 -165 -24 -143 -33
-157 -68 -102 -11 17 -29 46 -40 62 -10 17 -26 47 -34 68 -18 46 -75 83 -111
74 -30 -8 -69 -68 -69 -106 0 -16 -6 -34 -13 -40 -11 -8 -16 -5 -25 15 -7 14
-12 33 -12 42 0 10 -5 23 -12 30 -6 6 -11 30 -10 52 1 23 -7 61 -18 86 -18 39
-24 44 -54 44 -20 0 -40 -8 -51 -20 -27 -30 -14 -137 30 -250 19 -49 35 -93
35 -96 0 -4 19 -24 42 -46 64 -59 132 -49 170 24 22 41 38 41 59 0 8 -15 40
-52 71 -81 72 -67 123 -79 157 -35 12 15 24 39 27 53 3 14 9 35 14 46 8 20 21
80 25 120 7 77 20 150 36 214 24 95 24 97 -6 126 -31 32 -54 31 -97 -2z"/>
<path d="M9244 2710 c-12 -4 -24 -15 -27 -24 -4 -9 -16 -16 -28 -16 -28 0
-223 -172 -254 -226 -13 -23 -27 -60 -31 -83 -6 -39 -4 -43 36 -80 24 -22 55
-42 69 -45 14 -3 40 -8 58 -12 17 -3 48 -1 67 6 49 16 206 172 206 204 0 23 4
21 64 -28 64 -52 79 -58 126 -48 28 6 36 13 38 34 3 22 -12 41 -84 110 -47 46
-104 109 -125 140 -51 74 -71 86 -115 68z m-18 -204 c3 -8 -14 -41 -38 -75
-37 -52 -47 -61 -75 -61 -17 0 -38 -3 -47 -6 -54 -21 25 80 103 131 43 28 50
30 57 11z"/>
<path d="M11696 2640 c-26 -10 -55 -28 -62 -38 -7 -11 -24 -22 -36 -25 -29 -8
-158 -139 -158 -161 0 -9 -7 -33 -16 -54 -24 -55 -26 -93 -6 -131 31 -63 182
-129 198 -87 3 9 15 16 25 16 29 0 93 41 129 83 20 23 37 57 44 90 7 34 17 52
26 52 8 0 30 -29 48 -65 48 -95 113 -119 152 -55 24 40 19 56 -35 111 -18 18
-57 72 -86 121 -56 94 -121 162 -154 162 -11 0 -42 -8 -69 -19z m2 -179 c10
-6 12 -21 6 -56 -9 -66 -71 -135 -119 -135 -33 0 -44 16 -45 62 0 22 64 94
105 120 34 21 35 21 53 9z"/>
<path d="M5015 4430 c-27 -4 -77 -23 -110 -41 -33 -19 -72 -40 -87 -48 -40
-21 -68 -49 -68 -70 0 -10 11 -35 25 -55 28 -42 31 -63 10 -90 -17 -23 -19
-47 -5 -90 39 -127 42 -145 42 -268 l0 -128 39 -31 c44 -35 52 -32 83 26 19
34 19 43 7 138 -15 120 -26 197 -32 216 -3 9 17 21 61 36 133 45 227 105 265
171 34 58 34 128 0 166 -64 73 -108 86 -230 68z m101 -140 c8 0 14 -8 14 -17
0 -18 -28 -53 -42 -53 -5 0 -25 -10 -46 -23 -20 -12 -55 -29 -76 -36 -37 -13
-41 -12 -58 9 -24 30 -23 32 13 55 102 64 125 74 153 70 16 -3 35 -5 42 -5z"/>
<path d="M4560 4231 c-8 -5 -50 -11 -93 -15 -42 -3 -94 -13 -115 -22 -28 -12
-81 -16 -222 -18 -198 -4 -270 -15 -322 -50 -73 -49 -15 -112 93 -102 52 5 57
4 67 -19 7 -16 9 -76 6 -177 l-5 -153 28 -26 c33 -31 78 -45 90 -27 4 7 8 104
9 216 1 187 2 203 20 217 28 21 52 18 101 -11 37 -21 49 -24 76 -16 18 6 51
12 75 15 49 6 68 -13 49 -48 -6 -11 -14 -60 -18 -110 -5 -49 -11 -119 -15
-155 -9 -88 11 -140 54 -140 16 0 35 7 42 15 13 16 32 94 32 130 0 50 30 303
39 325 6 15 30 36 63 53 30 16 64 40 77 54 l24 25 -30 24 c-31 25 -94 32 -125
15z"/>
<path d="M3420 4221 c-24 -7 -25 -9 -21 -82 1 -40 7 -94 11 -119 5 -28 5 -50
-2 -57 -6 -8 -6 -30 1 -65 6 -29 10 -114 10 -188 -1 -111 -4 -140 -19 -165
-27 -45 -7 -84 60 -115 l52 -24 25 29 c23 26 25 34 18 79 -15 106 -16 259 -3
268 16 10 88 11 89 1 3 -41 11 -83 18 -104 5 -14 7 -38 4 -52 -3 -14 0 -48 6
-74 9 -37 19 -52 42 -66 40 -23 65 -22 72 3 4 17 -1 287 -6 313 -1 5 12 17 28
26 43 25 44 54 2 80 -61 37 -65 49 -83 223 -8 74 -33 102 -82 95 -63 -11 -88
-52 -57 -93 8 -10 15 -33 15 -50 0 -17 11 -57 24 -90 13 -32 22 -62 19 -66 -2
-5 -24 -8 -47 -8 -44 0 -63 12 -64 40 -4 81 -3 131 3 163 7 34 4 40 -30 72
-38 36 -43 38 -85 26z"/>
<path d="M1687 4140 c-21 -10 -45 -16 -52 -14 -17 7 -234 -63 -255 -82 -9 -7
-38 -25 -65 -40 -28 -14 -61 -37 -76 -50 -14 -13 -30 -24 -35 -24 -6 0 -23
-14 -40 -31 -16 -17 -42 -38 -59 -46 -46 -24 -154 -134 -167 -170 -7 -18 -15
-33 -19 -33 -3 0 -21 -35 -39 -77 -17 -43 -36 -85 -41 -93 -15 -24 -17 -31
-59 -188 -6 -23 -10 -86 -10 -140 1 -85 7 -120 28 -182 3 -8 6 -21 8 -28 1 -6
14 -35 28 -64 14 -29 26 -60 26 -70 0 -23 89 -167 129 -211 17 -17 31 -35 31
-39 0 -12 104 -85 176 -123 69 -36 287 -100 305 -90 31 20 112 29 193 23 50
-4 97 -3 105 2 9 4 50 13 91 20 41 7 101 23 132 36 32 13 69 24 84 24 28 0
125 25 159 41 11 5 39 16 63 24 24 8 57 25 75 37 43 32 194 189 205 213 37 83
44 131 43 286 -1 239 -12 288 -103 448 -12 20 -28 50 -36 66 -22 43 -97 136
-134 165 -18 14 -53 46 -78 71 -25 25 -64 61 -87 78 -24 18 -43 41 -43 51 0 9
-19 34 -42 54 -24 20 -69 59 -100 86 -80 69 -133 90 -227 90 -54 -1 -87 -6
-114 -20z m213 -155 c63 -31 133 -92 217 -186 42 -48 119 -119 129 -119 5 0
14 -8 20 -17 7 -10 42 -54 78 -98 37 -44 70 -91 73 -105 3 -14 14 -36 25 -49
10 -13 18 -34 18 -46 0 -12 15 -49 33 -81 l32 -59 0 -155 c0 -85 -3 -168 -7
-183 -14 -58 -196 -237 -241 -237 -11 0 -35 -10 -54 -21 -21 -13 -78 -29 -146
-41 -61 -10 -116 -23 -122 -28 -24 -20 -134 -44 -200 -43 -107 2 -206 9 -252
17 -38 8 -44 6 -67 -19 -30 -32 -55 -29 -161 20 -90 42 -255 199 -255 243 0
15 -14 47 -30 71 -17 24 -35 60 -40 80 -6 20 -17 45 -25 55 -30 39 -11 322 24
380 12 18 21 40 21 47 0 8 21 55 46 106 37 73 61 105 114 155 76 70 173 148
186 148 4 0 20 12 35 26 29 28 174 93 224 101 17 3 54 16 83 30 107 52 152 53
242 8z"/>
<path d="M1943 3650 c-64 -62 -81 -103 -59 -138 4 -7 5 -26 1 -42 -5 -24 -3
-31 12 -36 10 -3 36 -14 59 -24 54 -24 84 -16 138 36 39 37 46 50 46 82 0 41
-38 107 -67 116 -10 3 -39 10 -65 14 -39 8 -50 6 -65 -8z"/>
<path d="M1340 3591 c-25 -15 -53 -43 -64 -64 l-20 -37 22 -30 c12 -16 22 -39
22 -52 1 -60 70 -75 180 -40 77 24 107 47 113 85 3 27 -3 39 -45 83 -52 56
-101 85 -140 83 -12 0 -43 -13 -68 -28z"/>
<path d="M2192 3153 c-12 -2 -35 -16 -50 -30 -42 -39 -99 -73 -150 -88 -151
-46 -206 -58 -294 -63 -83 -4 -108 -2 -168 17 -66 21 -95 39 -165 103 -32 29
-72 36 -106 18 -25 -14 -25 -65 1 -107 25 -42 126 -120 164 -129 17 -4 46 -17
66 -29 19 -13 58 -26 85 -30 71 -10 223 -6 270 7 22 6 52 10 67 9 14 -1 29 2
32 8 4 5 28 20 54 31 210 96 282 153 282 225 0 17 -44 66 -57 64 -4 -1 -18 -4
-31 -6z"/>
<path d="M6590 3784 c-14 -7 -35 -14 -47 -14 -15 0 -24 -9 -32 -31 -17 -48
-13 -76 11 -99 26 -24 27 -86 2 -104 -13 -10 -13 -17 5 -56 11 -25 21 -70 23
-100 l3 -55 -95 -7 c-211 -15 -329 -21 -410 -20 -47 0 -92 -4 -101 -8 -8 -5
-33 -11 -55 -14 -36 -4 -72 -14 -184 -51 -43 -14 -216 -36 -290 -37 -52 -1
-280 21 -290 27 -5 3 -18 1 -29 -5 -22 -11 -285 -22 -501 -21 -714 4 -866 9
-976 29 -62 11 -126 27 -142 36 -17 9 -46 15 -64 14 -18 0 -71 5 -118 12 -47
7 -112 16 -145 21 -33 5 -91 11 -130 13 -59 2 -74 0 -92 -17 -48 -43 -17 -108
55 -114 20 -2 66 -5 102 -8 36 -3 85 -10 110 -15 25 -5 72 -12 105 -15 33 -4
69 -12 80 -18 11 -6 49 -15 85 -18 36 -4 85 -13 110 -19 25 -7 77 -14 115 -15
39 -1 93 -6 122 -9 66 -10 429 -17 748 -16 138 1 354 1 480 0 558 -2 586 -2
655 19 98 29 242 61 272 61 14 0 28 4 30 9 4 11 68 20 198 26 52 3 108 9 125
14 16 5 73 8 125 7 l95 -1 1 -65 c0 -36 3 -71 7 -77 4 -7 5 -35 1 -62 -12 -91
2 -138 58 -197 57 -60 101 -82 121 -58 29 35 55 58 102 89 28 18 77 60 109 93
34 35 72 64 87 67 19 4 45 28 80 73 29 37 56 69 61 70 16 7 38 61 38 94 0 27
-8 38 -39 61 -22 15 -43 27 -47 27 -27 0 -148 91 -272 206 -139 127 -216 222
-205 250 5 14 -13 45 -26 43 -3 -1 -17 -7 -31 -15z"/>
</g>
</svg>
