<?xml version="1.0" standalone="no"?>
<!DOCTYPE svg PUBLIC "-//W3C//DTD SVG 20010904//EN"
 "http://www.w3.org/TR/2001/REC-SVG-20010904/DTD/svg10.dtd">
<svg version="1.0" xmlns="http://www.w3.org/2000/svg"
 width="1417.539927pt" height="400.000000pt" viewBox="0 0 1417.539927 400.000000"
 preserveAspectRatio="xMidYMid meet">
<metadata>
Created by potrace 1.15, written by Peter Selinger 2001-2017
</metadata>
<g transform="translate(-59.840442,461.893845) scale(0.128401,-0.128401)"
fill="#444444" stroke="none">
<path d="M788 3588 c-6 -3 -63 -7 -127 -8 -182 -3 -174 -2 -188 -30 -10 -21
-9 -38 2 -85 7 -33 16 -125 20 -205 6 -152 11 -223 20 -303 8 -68 15 -356 20
-754 2 -188 6 -347 9 -352 15 -23 3 -567 -18 -836 -2 -27 -7 -153 -11 -278 -9
-278 -19 -259 140 -252 61 3 130 7 155 10 79 10 133 14 240 20 58 4 137 8 175
11 39 2 121 6 182 9 62 3 186 12 276 18 176 13 350 14 517 2 58 -5 141 -9 185
-11 44 -1 107 -5 140 -9 88 -9 369 -23 376 -19 4 2 83 4 176 5 160 0 173 2
224 26 39 18 70 25 112 25 31 0 59 4 62 9 3 4 17 4 31 -1 25 -10 375 -5 493 6
173 17 269 22 542 28 118 3 223 8 231 11 9 4 146 8 305 11 300 4 394 8 503 21
73 8 81 9 302 1 86 -3 162 -9 169 -14 7 -4 59 -9 115 -10 85 -3 111 0 149 16
40 17 45 23 46 52 1 18 0 38 -1 43 -5 24 -5 379 0 463 3 52 3 95 2 97 -3 3 -3
59 0 300 1 104 -6 185 -15 185 -7 0 -6 4 2 9 11 7 15 53 17 221 5 292 13 390
34 430 8 14 9 54 5 118 -7 111 -15 303 -13 347 1 47 1 65 -5 135 -3 36 -6 103
-7 150 -1 47 -6 111 -12 143 -9 48 -15 58 -34 63 -13 4 -39 -1 -57 -9 -24 -11
-55 -14 -127 -10 -52 3 -131 7 -175 9 -44 2 -114 7 -155 10 -41 3 -91 7 -110
9 -19 1 -35 3 -35 4 0 6 -283 12 -480 10 -294 -3 -461 -3 -635 1 -80 1 -228 1
-330 0 -102 -2 -203 0 -225 4 -106 17 -431 26 -540 16 -77 -8 -135 -1 -196 22
-27 10 -81 13 -334 23 -77 2 -187 10 -244 16 -57 6 -120 12 -140 14 -77 5
-167 18 -191 28 -14 5 -47 11 -75 13 -27 3 -72 9 -100 14 -27 5 -89 12 -137
15 -74 4 -88 2 -88 -10 0 -19 -24 -19 -40 0 -10 12 -33 14 -124 11 -61 -2
-123 -7 -137 -11 -15 -4 -29 -2 -33 3 -3 5 -27 8 -53 6 -27 -2 -95 -4 -153 -3
-425 4 -623 3 -632 -3z m702 -88 c146 0 333 0 415 1 83 0 165 -5 183 -10 18
-5 41 -8 52 -6 11 2 22 -1 25 -6 4 -5 10 -7 14 -4 9 5 286 -29 348 -43 21 -5
47 -6 58 -2 11 4 34 3 50 -2 17 -4 67 -9 113 -10 46 -1 85 -5 87 -8 2 -4 57
-6 122 -5 115 2 223 -12 269 -36 31 -16 41 -44 43 -124 1 -38 8 -98 16 -133
13 -62 13 -597 0 -1272 -5 -244 -6 -264 -25 -445 -6 -60 -11 -148 -10 -195 1
-47 2 -101 2 -120 1 -56 -12 -331 -18 -375 -3 -22 -12 -49 -20 -60 -14 -19
-26 -20 -307 -18 -290 1 -419 8 -446 23 -8 4 -28 4 -45 -1 -17 -5 -56 -7 -86
-4 -206 18 -318 20 -635 6 -121 -5 -240 -8 -265 -7 -25 1 -49 0 -55 -3 -5 -3
-19 -6 -30 -7 -56 -3 -179 -15 -184 -19 -3 -1 -80 -6 -171 -9 -91 -4 -185 -9
-210 -11 -25 -3 -77 -7 -116 -9 -92 -7 -86 -30 -70 289 3 66 10 194 16 285 9
143 12 290 9 340 -1 8 1 61 4 117 4 61 2 105 -3 108 -7 4 -7 13 0 24 5 10 7
20 5 22 -11 12 -17 87 -15 204 7 442 -5 944 -26 1075 -7 47 -15 204 -13 260 2
56 2 68 -4 103 -3 17 2 36 12 47 18 21 48 24 356 36 88 3 161 7 162 8 1 1 30
0 65 -1 35 -2 182 -3 328 -3z m1940 -132 c0 -9 3 -9 12 0 7 7 17 8 29 2 9 -5
73 -9 141 -8 172 2 247 -4 241 -19 -3 -7 -1 -13 5 -13 11 0 23 -36 14 -45 -3
-3 -7 -15 -9 -28 -3 -25 -13 -608 -17 -1052 -2 -165 -4 -300 -6 -300 -1 0 -3
-261 -4 -580 -2 -627 -2 -625 -56 -652 -18 -10 -82 -12 -240 -10 l-215 2 1
370 c1 204 5 386 8 405 21 105 29 203 19 220 -6 9 -8 22 -4 28 4 7 8 87 10
179 4 271 4 1187 0 1329 -3 135 3 164 37 164 8 0 14 5 14 10 0 6 5 10 10 10 6
0 10 -5 10 -12z m2022 -33 c43 -4 92 -8 110 -9 l32 -2 2 -584 c1 -322 5 -646
9 -720 8 -174 10 -313 6 -420 -2 -47 0 -112 3 -145 4 -33 11 -97 16 -142 12
-112 8 -529 -6 -543 -10 -10 -44 -17 -134 -24 -25 -3 -76 -7 -115 -10 -38 -4
-125 -9 -192 -12 l-122 -5 -8 28 c-7 29 -8 61 -3 298 2 77 0 163 -4 190 -5 39
-13 206 -17 365 -1 8 0 49 0 90 1 41 -1 167 -4 280 -3 113 -6 232 -5 265 1 96
0 358 -3 663 -1 155 1 282 5 282 5 0 7 3 7 8 -1 4 -1 37 0 73 1 65 1 66 33 75
37 11 279 10 390 -1z m-1070 -18 c4 -6 8 -7 8 -2 0 6 5 3 11 -5 13 -20 9 -472
-5 -482 -8 -5 -7 -11 0 -18 8 -8 9 -24 3 -48 -8 -38 -24 -286 -21 -332 1 -14
1 -74 1 -135 -1 -60 -1 -179 -2 -262 -1 -113 -4 -153 -13 -153 -7 0 -30 20
-52 45 -33 38 -40 54 -46 103 -8 73 -39 131 -91 172 -37 30 -44 32 -95 26 -57
-7 -72 -18 -68 -51 3 -20 7 -21 99 -24 32 -1 83 -69 85 -113 2 -25 -1 -28 -20
-21 -30 10 -76 6 -94 -9 -22 -19 -39 -65 -34 -96 7 -45 107 -94 136 -65 3 4
21 12 39 18 31 10 37 9 67 -17 19 -15 40 -28 46 -28 16 0 66 -59 59 -70 -5 -8
12 -305 21 -353 8 -49 14 -240 13 -432 0 -99 0 -195 0 -213 2 -36 -22 -52 -81
-51 -18 0 -62 -2 -98 -5 -205 -15 -271 -18 -304 -12 l-36 7 -1 177 c-1 97 0
188 0 202 1 14 2 43 2 65 3 60 -11 347 -17 356 -2 4 -1 10 4 13 5 3 6 27 2 53
-3 26 -2 66 2 88 8 43 12 294 10 655 0 30 1 82 3 115 2 47 4 261 4 450 0 129
4 208 11 245 6 25 12 68 14 95 2 28 7 69 11 92 l7 42 206 -4 c149 -4 208 -9
214 -18z m529 13 c37 0 39 -38 44 -740 2 -377 4 -692 5 -700 0 -8 1 -62 1
-120 3 -291 8 -452 17 -515 12 -78 4 -447 -10 -471 -3 -5 -8 -21 -11 -35 l-6
-25 -126 -3 c-69 -1 -148 -6 -177 -10 -66 -11 -120 -9 -134 4 -8 7 -11 69 -10
185 1 176 -10 425 -19 440 -3 4 -7 59 -10 121 -12 265 -14 300 -21 334 -3 19
-10 35 -15 35 -5 0 -9 5 -9 11 0 5 5 7 11 4 7 -5 9 69 7 249 -2 168 0 256 7
257 5 0 5 3 -1 5 -14 6 -10 152 7 283 17 128 24 455 14 604 -3 42 -3 82 1 88
5 8 68 10 213 6 113 -4 213 -6 222 -7z m891 -16 c40 -3 78 -6 83 -5 41 2 164
0 180 -3 21 -3 146 -16 200 -20 21 -1 30 -7 29 -19 -1 -9 1 -17 5 -17 3 0 7
-46 9 -103 1 -56 5 -129 8 -162 9 -92 11 -606 2 -611 -4 -2 -7 -34 -7 -69 0
-36 -2 -68 -5 -73 -2 -4 -7 -223 -11 -487 -8 -590 -8 -595 -6 -780 1 -82 2
-172 2 -199 l-1 -49 -72 8 c-133 14 -321 26 -421 29 -81 1 -87 7 -87 96 1 101
-10 478 -15 540 -15 191 -19 290 -12 290 9 0 1 236 -9 295 -3 17 -7 206 -9
420 -2 215 -5 420 -7 458 -2 37 0 67 4 67 5 0 8 24 7 53 -1 28 -1 81 1 117 1
36 -1 77 -5 93 -4 16 -3 27 3 27 6 0 10 20 9 46 -2 35 3 49 17 59 10 8 23 12
27 9 4 -2 41 -7 81 -10z"/>
<path d="M2744 2965 c-3 -20 -4 -53 0 -73 3 -21 3 -54 -1 -75 -5 -36 -7 -37
-47 -37 -59 0 -83 -9 -89 -32 -10 -37 12 -55 81 -64 61 -8 66 -11 74 -39 12
-42 15 -146 6 -173 -4 -12 -4 -30 1 -40 5 -9 14 -29 20 -44 6 -16 17 -28 25
-28 26 0 36 37 35 127 -3 170 -1 191 21 203 10 6 47 13 81 17 46 4 68 12 88
31 17 16 22 26 13 29 -6 3 -10 8 -8 12 4 6 -106 6 -141 0 -51 -9 -82 31 -87
112 -5 91 -58 146 -72 74z"/>
<path d="M1001 2964 c-8 -18 -6 -33 12 -71 18 -40 22 -70 25 -178 5 -184 4
-254 -2 -300 -6 -45 13 -84 41 -83 10 0 37 -4 60 -9 58 -15 209 -11 225 5 10
10 8 16 -9 33 -15 16 -41 23 -99 30 -112 12 -132 23 -136 67 -4 45 6 110 19
123 13 13 103 18 133 7 20 -8 28 -5 42 12 17 21 17 24 2 50 -14 23 -23 27 -58
27 -125 -1 -131 4 -139 109 -8 103 3 113 123 112 121 -1 127 0 134 18 3 8 1
24 -4 34 -12 22 -61 29 -237 34 -118 3 -121 3 -132 -20z"/>
<path d="M2071 2743 c-18 -7 -66 -63 -67 -77 -1 -23 -34 -72 -68 -104 -42 -38
-48 -76 -13 -86 12 -3 37 -27 56 -52 39 -51 63 -64 124 -64 91 0 167 42 167
92 0 21 -6 21 -70 2 -14 -4 -47 -8 -75 -8 -43 -1 -50 2 -53 19 -2 19 43 55 70
55 6 0 35 21 64 46 38 32 54 53 54 70 0 13 -3 24 -7 24 -5 0 -17 14 -28 30
-11 16 -25 30 -31 30 -6 0 -17 7 -24 15 -12 15 -70 19 -99 8z m81 -108 c-6
-32 -37 -58 -61 -50 -46 14 -12 77 39 72 19 -1 24 -7 22 -22z"/>
<path d="M1781 2687 c-13 -6 -37 -37 -54 -67 -16 -30 -38 -66 -48 -79 -11 -13
-19 -34 -19 -47 0 -61 -54 -5 -85 89 -21 64 -55 103 -80 93 -13 -5 -15 -14
-10 -38 12 -61 50 -178 57 -178 5 0 8 -12 8 -26 0 -39 50 -84 94 -84 24 0 36
5 36 13 0 8 10 22 21 33 20 18 42 57 44 79 1 11 19 46 59 117 27 46 32 98 11
105 -5 1 -21 -3 -34 -10z"/>
<path d="M2413 2686 c-26 -12 -58 -97 -66 -171 -8 -83 31 -159 64 -124 17 17
23 59 8 59 -5 0 -7 6 -3 12 5 7 7 27 5 45 -3 40 24 83 53 83 28 0 45 -30 67
-114 19 -74 23 -80 56 -90 49 -15 42 86 -12 200 -28 58 -42 76 -74 92 -42 22
-62 24 -98 8z"/>
<path d="M1012 1705 c-18 -22 -18 -28 -6 -64 7 -21 15 -87 18 -147 5 -111 34
-235 59 -251 6 -4 71 -8 142 -9 125 -1 185 8 185 27 0 4 7 6 16 2 14 -5 15 -1
9 27 -11 48 10 29 30 -28 24 -65 38 -73 100 -55 78 23 96 35 137 86 34 43 51
97 30 97 -4 0 -13 14 -20 30 -8 17 -20 30 -27 30 -7 0 -22 12 -33 27 -17 23
-27 27 -77 29 -54 2 -59 0 -96 -36 -40 -39 -42 -43 -40 -95 2 -53 -6 -57 -130
-58 -154 -1 -175 5 -191 51 -14 42 -14 41 -21 179 -5 75 -12 113 -27 142 -24
48 -32 50 -58 16z m613 -296 c40 -36 43 -51 15 -79 -11 -11 -20 -24 -20 -30 0
-16 -74 -2 -87 17 -7 9 -13 34 -13 55 0 31 5 40 28 52 36 20 36 20 77 -15z"/>
<path d="M2002 1491 c-30 -10 -57 -22 -60 -27 -4 -5 -24 -20 -45 -34 -37 -24
-76 -89 -83 -137 -1 -12 7 -33 20 -47 34 -40 101 -37 166 9 49 34 50 35 69 16
26 -26 64 -147 65 -208 0 -61 -21 -90 -89 -123 -60 -29 -123 -16 -176 36 -35
34 -41 37 -54 23 -14 -14 -14 -19 -1 -43 8 -16 33 -49 56 -73 l42 -46 71 5
c130 9 230 90 236 190 4 78 -70 280 -118 322 -24 22 -28 68 -7 85 20 17 6 65
-20 68 -10 1 -43 -7 -72 -16z m-47 -161 c-24 -27 -35 -25 -35 4 0 15 7 26 18
29 28 6 37 -11 17 -33z"/>
<path d="M3533 2203 c-15 -65 -11 -302 5 -330 15 -27 25 -29 42 -8 14 16 17
271 5 344 -10 60 -38 56 -52 -6z"/>
<path d="M5222 2143 c-6 -16 -7 -88 -4 -215 1 -26 8 -42 28 -57 15 -12 33 -21
40 -21 19 0 41 -38 49 -83 8 -43 28 -67 56 -67 17 0 19 8 19 85 l0 85 35 14
c26 11 35 21 35 39 0 29 -18 46 -44 41 -29 -4 -47 25 -40 66 12 67 12 85 2 98
-12 14 -32 17 -24 3 3 -5 0 -11 -8 -14 -13 -5 -21 -32 -32 -112 -8 -58 -12
-67 -31 -63 -15 3 -18 15 -19 68 -1 103 -12 150 -35 150 -11 0 -23 -8 -27 -17z"/>
<path d="M4621 2218 c-11 -18 -10 -23 7 -41 13 -12 33 -20 51 -19 17 0 31 -4
31 -9 0 -5 6 -9 14 -9 20 0 28 -27 10 -34 -9 -3 -26 -6 -38 -6 -12 0 -31 -6
-41 -14 -16 -12 -17 -17 -6 -43 7 -17 32 -50 57 -74 62 -61 59 -72 -28 -93
-40 -10 -81 -20 -90 -23 -19 -5 -24 -38 -9 -62 7 -11 18 -11 67 2 79 20 154
54 154 68 0 7 3 9 7 6 4 -4 13 7 20 25 14 32 13 33 -32 73 -25 22 -45 46 -45
52 0 7 23 24 51 40 48 27 50 29 45 63 -7 45 -40 73 -108 93 -94 28 -102 28
-117 5z"/>
<path d="M6046 2142 c-3 -5 -29 -7 -59 -4 -32 2 -63 -1 -77 -8 -22 -12 -24
-34 -7 -130 2 -14 8 -46 12 -72 8 -53 16 -63 62 -73 32 -6 83 -55 83 -79 0
-16 -38 -36 -70 -37 -14 -1 -51 5 -83 12 -50 12 -59 11 -67 -1 -29 -45 12 -70
121 -74 80 -3 86 -1 126 28 23 17 43 38 43 46 0 35 -52 112 -119 177 -80 77
-58 143 48 143 21 0 41 3 45 7 4 4 15 8 24 8 21 0 29 44 10 56 -17 11 -85 12
-92 1z"/>
<path d="M6855 3360 c-11 -4 -31 -19 -44 -33 -21 -23 -23 -32 -17 -81 6 -43
12 -56 28 -62 28 -9 40 8 40 55 -1 36 2 42 26 47 55 12 62 16 62 33 0 39 -49
61 -95 41z"/>
<path d="M7037 3353 c-13 -12 -7 -40 11 -55 10 -8 32 -13 52 -11 19 1 43 3 53
3 9 1 17 5 17 10 0 5 3 15 6 23 9 25 -117 53 -139 30z"/>
<path d="M7245 3339 c-7 -20 22 -66 33 -54 3 3 14 -2 24 -12 14 -13 18 -31 18
-93 0 -59 4 -81 16 -91 14 -11 18 -10 30 6 19 26 18 153 -1 179 -8 11 -15 27
-15 36 0 46 -92 71 -105 29z"/>
<path d="M9655 3308 c-5 -14 -13 -52 -24 -113 -4 -22 -14 -51 -21 -65 -8 -14
-15 -27 -16 -30 0 -3 -4 -14 -9 -25 -4 -11 -18 -46 -31 -79 -20 -49 -62 -106
-80 -106 -14 0 -207 215 -269 301 -43 59 -58 64 -83 29 -20 -27 -21 -31 -6
-66 23 -55 23 -287 0 -332 -9 -18 -24 -32 -34 -32 -10 0 -42 -6 -72 -14 -30
-8 -85 -16 -122 -17 -37 -1 -96 -8 -130 -15 -35 -8 -84 -14 -110 -14 -60 0
-77 -7 -88 -36 -12 -30 13 -82 66 -137 22 -23 55 -62 72 -87 17 -25 43 -56 57
-69 19 -18 25 -32 23 -54 -3 -29 -8 -33 -98 -65 -80 -29 -108 -34 -177 -34
-129 0 -136 -32 -28 -129 55 -49 81 -80 163 -195 28 -40 29 -43 15 -73 -9 -17
-19 -31 -24 -31 -11 0 -138 -108 -201 -171 -76 -75 -65 -108 38 -114 38 -3 87
-9 109 -14 22 -5 72 -15 110 -21 39 -7 81 -21 94 -31 23 -19 23 -20 6 -61 -14
-36 -69 -124 -86 -138 -11 -9 -29 -48 -29 -63 0 -23 60 -36 98 -20 17 7 32 17
32 21 0 4 8 8 18 9 82 7 130 20 228 64 22 11 48 19 57 19 21 0 16 -28 -25
-154 -27 -84 -27 -89 -11 -102 31 -23 31 -23 116 52 15 14 43 33 61 43 18 11
44 25 57 33 13 7 26 15 29 18 16 16 100 48 105 40 3 -5 5 -64 4 -131 -1 -131
6 -154 49 -143 12 4 22 10 22 15 0 5 14 23 30 41 17 17 41 45 53 61 12 16 28
35 35 42 6 8 12 18 12 22 0 5 11 24 25 43 14 19 25 42 25 52 0 27 35 22 59 -8
11 -14 23 -42 27 -63 22 -130 46 -162 88 -116 14 15 26 32 26 38 0 6 24 36 53
68 66 72 140 165 149 187 4 9 15 27 25 40 l19 23 19 -21 c12 -13 32 -73 51
-149 27 -109 34 -126 52 -129 15 -2 27 6 42 30 11 18 20 39 20 46 0 7 11 24
25 36 14 13 25 28 24 32 -2 16 13 54 22 54 5 0 9 6 9 14 0 21 83 125 100 125
21 0 48 -22 43 -35 -2 -7 8 -21 22 -32 14 -11 25 -27 25 -36 0 -9 9 -26 20
-38 42 -48 49 -57 66 -95 10 -21 18 -39 19 -41 1 -1 9 0 18 3 24 10 53 91 67
185 10 70 28 129 46 149 2 2 21 -13 42 -35 78 -80 171 -164 181 -164 26 0 41
49 46 156 3 60 7 118 9 129 3 11 5 26 5 33 1 10 11 12 39 8 135 -21 166 -27
177 -36 24 -20 100 -23 133 -6 18 9 32 19 32 23 0 3 -24 32 -52 63 -46 50
-122 147 -168 215 -8 12 -24 35 -35 50 l-19 28 27 21 c14 12 66 33 115 49 98
30 158 71 147 99 -4 10 -33 32 -64 48 -31 17 -81 51 -111 75 -30 25 -58 45
-62 45 -4 0 -11 15 -16 33 -10 36 8 67 40 67 10 0 18 4 18 9 0 5 10 11 21 14
46 12 -1 116 -53 117 -9 0 -18 4 -20 8 -1 5 -42 28 -90 51 -112 56 -124 68
-108 115 6 20 21 44 34 53 21 18 86 137 86 160 0 31 -60 35 -316 18 -114 -8
-117 -6 -105 61 20 122 0 182 -51 156 -30 -16 -62 -35 -68 -43 -3 -4 -23 -16
-45 -28 -83 -45 -100 -56 -108 -68 -4 -7 -16 -13 -25 -13 -10 0 -24 -6 -30
-12 -7 -7 -16 -13 -20 -13 -4 -1 -18 -7 -32 -15 -14 -8 -32 -14 -40 -15 -18 0
-44 68 -64 169 -8 38 -19 73 -25 79 -6 6 -11 22 -11 34 0 66 -82 104 -96 46
-4 -15 -18 -39 -31 -53 -12 -13 -23 -29 -23 -34 0 -12 -65 -110 -84 -125 -9
-8 -16 -17 -16 -22 0 -18 -62 -94 -83 -102 -17 -7 -27 -2 -44 20 -13 15 -23
35 -23 44 0 15 -44 130 -82 214 -33 74 -90 120 -103 83z m545 -153 c0 -22 47
-180 63 -212 8 -15 17 -45 21 -65 4 -22 13 -38 20 -38 30 0 86 32 123 70 27
27 49 40 66 40 15 0 27 5 27 10 0 6 6 10 13 10 8 0 21 8 30 18 9 9 36 28 61
41 37 21 47 23 60 12 20 -17 20 -46 0 -109 -28 -85 -2 -126 54 -86 12 8 27 12
34 8 6 -4 8 -3 4 4 -4 6 1 11 11 10 10 0 36 3 58 6 122 19 214 21 230 5 14
-14 -21 -73 -80 -133 -28 -28 -54 -59 -58 -69 -11 -29 13 -64 57 -82 97 -41
203 -97 219 -115 24 -29 21 -45 -10 -47 -26 -1 -93 -60 -93 -82 0 -12 61 -71
74 -71 4 0 23 -12 40 -27 18 -16 45 -37 60 -48 16 -11 40 -30 54 -42 14 -13
29 -23 33 -23 15 0 10 -22 -8 -36 -10 -7 -26 -14 -36 -14 -10 0 -40 -11 -67
-25 -27 -14 -56 -25 -64 -25 -8 0 -28 -12 -46 -26 -23 -20 -29 -31 -24 -48 6
-20 89 -128 146 -188 66 -70 75 -125 20 -116 -79 14 -159 31 -172 38 -9 4 -29
10 -46 14 -43 10 -62 -25 -46 -86 6 -24 13 -74 14 -112 2 -55 0 -71 -14 -79
-17 -11 -16 -12 -129 89 -13 12 -39 40 -58 63 -60 76 -92 44 -105 -104 -11
-124 -21 -178 -33 -182 -6 -2 -28 22 -48 54 -83 128 -109 165 -133 184 -32 25
-49 24 -56 -4 -3 -12 -15 -32 -26 -45 -12 -12 -28 -41 -36 -64 -8 -23 -21 -49
-28 -58 -8 -8 -17 -25 -20 -37 -11 -34 -46 -73 -66 -73 -12 0 -21 12 -28 38
-6 20 -22 69 -37 107 -15 39 -28 77 -29 85 -2 11 -57 36 -61 27 -1 -1 -17 -24
-36 -52 -19 -27 -50 -77 -69 -110 -35 -63 -45 -76 -124 -157 l-48 -51 -15 34
c-8 19 -19 42 -24 51 -5 10 -9 22 -9 28 0 19 -53 120 -63 120 -16 0 -97 -89
-113 -124 -42 -91 -81 -151 -100 -151 -17 0 -19 8 -21 103 -1 93 -4 107 -24
128 -26 28 -51 31 -70 8 -7 -8 -38 -32 -68 -52 -31 -20 -63 -43 -71 -50 -73
-62 -94 -72 -103 -49 -5 14 7 104 19 140 11 30 5 69 -12 87 -12 12 -21 11 -71
-15 -32 -16 -70 -38 -84 -48 -14 -10 -32 -19 -40 -20 -8 -2 -19 -6 -25 -9 -6
-4 -36 -11 -67 -16 -71 -11 -77 -2 -47 73 4 11 15 46 24 78 20 68 13 83 -43
92 -20 3 -54 10 -76 15 -22 5 -75 14 -117 21 -56 8 -78 16 -80 28 -6 23 30 68
77 96 22 13 61 44 87 68 40 37 47 49 44 75 -5 39 -23 72 -53 95 -12 10 -23 24
-23 30 0 7 -20 33 -43 59 -60 66 -74 93 -56 114 13 15 112 64 131 64 5 0 27 9
48 19 22 11 49 17 60 14 11 -3 20 0 20 6 0 6 9 11 19 11 20 0 31 18 31 51 0
11 -17 38 -38 62 -21 23 -49 58 -62 77 -13 19 -44 56 -69 82 -48 50 -69 96
-48 103 15 6 137 26 197 32 25 3 48 10 52 17 6 8 8 8 8 -1 0 -13 54 -13 67 0
3 4 43 7 88 7 l82 0 7 108 c4 59 7 129 6 155 -3 133 18 123 232 -111 26 -29
56 -52 67 -52 21 0 61 48 61 74 0 9 4 16 10 16 5 0 12 11 16 25 3 13 12 29 20
36 8 6 14 19 14 28 0 9 9 34 20 56 11 22 20 45 20 53 0 21 41 71 55 66 7 -3
27 -38 45 -77 18 -40 41 -90 51 -113 11 -22 19 -44 19 -48 0 -17 72 -94 86
-92 15 2 74 83 104 140 8 16 29 43 46 60 17 17 35 42 39 55 19 61 105 123 105
76z"/>
<path d="M10753 2623 c-7 -40 -6 -64 5 -73 4 -3 8 -30 9 -60 2 -30 9 -73 18
-95 8 -22 16 -56 19 -75 6 -53 26 -99 47 -111 30 -16 33 10 11 98 -45 177 -64
273 -58 296 8 34 -2 57 -25 57 -13 0 -20 -10 -26 -37z"/>
<path d="M10563 2592 c-6 -4 -12 -14 -14 -22 -6 -30 13 -156 26 -177 8 -11 12
-31 10 -43 -2 -12 7 -49 20 -83 31 -74 31 -84 3 -93 -23 -8 -31 -9 -75 -12
-15 -1 -31 -17 -49 -47 l-26 -45 20 -43 c11 -23 32 -53 46 -66 23 -22 32 -23
95 -19 38 3 76 11 86 19 61 51 65 63 31 83 -14 8 -20 8 -23 -2 -10 -27 -97
-58 -132 -47 -21 6 -41 46 -41 80 0 31 24 38 108 33 l67 -3 -1 36 c-1 20 -11
50 -22 67 -12 16 -23 38 -25 48 -2 11 -15 57 -29 104 -16 53 -26 111 -26 154
-1 76 -16 99 -49 78z"/>
<path d="M8936 2207 c-8 -18 -16 -67 -19 -109 -4 -83 -16 -108 -52 -108 -34 0
-48 -22 -29 -48 8 -12 21 -22 28 -22 16 0 50 -36 43 -47 -3 -4 -6 -48 -8 -98
-3 -75 -1 -90 11 -91 41 -1 48 13 51 105 3 70 8 93 23 110 10 11 22 19 26 16
4 -2 27 -7 51 -10 25 -3 48 -12 54 -21 37 -60 53 -79 65 -79 23 0 15 48 -17
109 -15 30 -41 81 -58 113 -16 32 -33 60 -37 61 -5 2 -8 8 -8 14 0 21 -66 117
-87 127 -20 9 -24 6 -37 -22z m117 -209 c6 -21 -1 -28 -28 -28 -31 0 -45 19
-45 63 l0 39 34 -29 c19 -15 36 -36 39 -45z"/>
<path d="M10260 2166 c-50 -18 -70 -62 -70 -156 0 -85 4 -94 43 -109 l28 -11
-7 63 c-8 71 -8 72 -1 111 11 52 28 59 64 28 37 -33 58 -73 68 -129 8 -48 24
-66 57 -61 17 2 22 9 20 23 -2 11 -4 36 -6 57 -4 41 -30 83 -95 151 -49 51
-50 51 -101 33z"/>
<path d="M9943 2115 c-11 -8 -33 -35 -48 -60 l-26 -46 -47 42 c-46 41 -48 41
-108 36 -49 -4 -68 -10 -93 -32 -33 -30 -39 -56 -17 -74 8 -6 19 -47 25 -91 7
-43 18 -92 26 -107 8 -16 22 -70 32 -121 13 -72 21 -93 36 -98 34 -11 42 10
28 73 -7 32 -16 72 -22 89 -11 36 -12 75 -1 90 4 6 25 17 46 25 21 8 44 22 50
32 15 23 38 22 54 -4 35 -55 225 -86 271 -45 30 28 24 61 -12 62 -15 1 -30 -2
-32 -7 -3 -4 -30 -11 -59 -14 -43 -6 -61 -3 -85 11 -17 10 -31 24 -31 31 0 25
23 50 42 45 10 -2 18 1 18 7 0 6 7 11 15 11 24 0 84 32 90 48 8 20 -14 84 -34
99 -22 17 -92 16 -118 -2z m71 -41 c22 -8 20 -19 -6 -44 -20 -18 -58 -28 -58
-14 0 7 40 64 45 64 2 0 10 -3 19 -6z m-240 -59 c35 -32 35 -73 -1 -107 -17
-16 -38 -25 -53 -24 -21 2 -27 11 -39 59 -14 54 -14 58 5 76 26 27 56 26 88
-4z"/>
<path d="M9353 2064 c-67 -32 -81 -45 -97 -92 -14 -39 -14 -43 9 -76 43 -63
63 -124 75 -223 10 -85 32 -153 50 -153 25 1 29 19 20 96 -5 43 -12 93 -16
109 -3 17 -7 50 -8 75 -1 43 1 46 39 65 123 63 139 86 104 160 -12 25 -26 48
-32 52 -26 16 -98 10 -144 -13z m135 -87 c-4 -25 -71 -67 -108 -67 -35 0 -52
38 -33 73 11 22 39 40 65 42 3 0 10 3 14 7 13 14 65 -33 62 -55z"/>
<path d="M10900 2000 c-8 -14 -8 -26 0 -40 12 -23 35 -21 79 7 l23 15 -28 19
c-37 24 -61 24 -74 -1z"/>
<path d="M7842 3041 c-41 -32 -85 -70 -99 -83 l-25 -26 22 -30 c13 -17 39 -38
59 -47 48 -20 90 -48 127 -83 8 -8 22 -12 32 -10 15 3 17 14 14 82 -2 52 0 76
7 72 6 -4 24 0 41 9 24 13 35 14 46 5 10 -9 22 -9 43 -2 16 6 32 8 35 5 3 -4
32 -8 64 -10 31 -2 86 -6 122 -9 117 -10 143 -9 147 3 7 18 -35 50 -75 57 -20
3 -126 9 -234 13 l-196 6 -7 34 c-6 31 -32 74 -45 72 -3 0 -38 -27 -78 -58z"/>
<path d="M6795 3057 c-23 -18 -18 -145 7 -161 11 -7 21 -7 27 -1 8 9 15 89 12
146 -1 22 -25 30 -46 16z"/>
<path d="M7324 2963 c-24 -34 -25 -92 -2 -106 24 -16 48 8 46 47 -1 18 2 38 5
44 9 14 -2 42 -17 42 -7 0 -21 -12 -32 -27z"/>
<path d="M6786 2687 c-27 -20 -24 -119 5 -153 20 -24 28 -3 35 84 6 88 0 98
-40 69z"/>
<path d="M7341 2672 c-4 -9 -11 -39 -14 -67 -5 -40 -3 -55 13 -75 15 -20 21
-23 32 -12 12 12 20 109 11 144 -6 24 -31 30 -42 10z"/>
<path d="M7331 2394 c-9 -11 -11 -30 -6 -70 7 -58 24 -76 51 -53 25 21 4 140
-25 139 -3 -1 -12 -8 -20 -16z"/>
<path d="M6764 2268 c-21 -62 30 -190 58 -146 12 20 10 142 -4 156 -19 19 -46
14 -54 -10z"/>
<path d="M7115 2194 c-48 -50 -52 -56 -102 -155 -41 -82 -52 -172 -28 -220 52
-103 95 -125 144 -75 17 18 31 38 31 46 0 8 7 24 15 34 23 31 19 105 -7 127
-11 11 -29 19 -38 19 -9 0 -24 6 -35 14 -16 12 -17 18 -6 60 6 26 22 58 34 71
63 66 78 86 75 102 -6 34 -37 25 -83 -23z m7 -291 c24 -21 23 -44 -3 -77 -32
-41 -62 -32 -73 21 -6 31 -5 47 4 58 16 20 49 19 72 -2z"/>
<path d="M7340 2068 c0 -60 6 -72 38 -82 21 -7 22 -5 22 48 0 56 -16 86 -46
86 -10 0 -14 -14 -14 -52z"/>
<path d="M7896 2039 c-20 -21 -43 -39 -50 -39 -7 0 -25 -14 -40 -31 l-28 -31
22 -23 c12 -12 54 -44 93 -71 40 -27 74 -52 75 -56 6 -14 40 -8 46 8 3 9 6 38
6 64 0 28 5 52 13 57 6 4 39 9 72 10 63 2 301 11 323 12 20 1 14 20 -15 47
l-28 26 -155 -7 c-85 -4 -171 -8 -190 -9 -30 -1 -37 3 -51 33 -25 54 -50 57
-93 10z"/>
<path d="M6752 1898 c-32 -65 -22 -148 18 -148 15 0 20 10 25 64 4 35 5 72 3
82 -5 27 -32 28 -46 2z"/>
<path d="M7367 1792 c-21 -23 -23 -105 -4 -121 17 -13 24 -6 43 37 12 29 12
38 -1 68 -16 40 -17 40 -38 16z"/>
<path d="M7374 1522 c-30 -20 -43 -132 -19 -168 28 -44 40 -30 50 61 3 28 8
58 11 68 3 10 0 24 -6 32 -14 17 -20 18 -36 7z"/>
<path d="M6732 1473 c-20 -67 -23 -95 -13 -106 5 -7 10 -16 10 -22 0 -5 9 -11
20 -13 14 -2 20 4 24 25 21 112 -14 208 -41 116z"/>
<path d="M7895 1258 c-76 -60 -125 -113 -125 -135 0 -22 72 -100 129 -139 45
-32 91 -12 91 40 0 35 20 81 35 81 6 0 15 4 22 8 6 4 15 2 18 -3 4 -7 19 -8
38 -4 28 6 121 15 172 16 11 0 29 -2 40 -5 11 -3 38 -10 60 -15 22 -5 45 -11
50 -12 33 -8 55 1 55 23 0 12 -4 27 -8 32 -13 19 -96 38 -157 35 -33 -1 -69
-2 -80 -1 -11 0 -69 2 -130 4 -60 1 -116 6 -122 10 -7 4 -17 26 -23 47 -12 46
-24 49 -65 18z"/>
<path d="M7350 1144 c-6 -14 -10 -30 -10 -36 0 -15 49 -78 60 -78 18 0 21 58
4 99 -18 47 -40 53 -54 15z"/>
<path d="M6720 1113 c-33 -57 -17 -145 24 -130 10 4 16 18 16 37 0 17 5 40 11
52 11 20 -4 78 -21 78 -5 0 -18 -17 -30 -37z"/>
<path d="M7357 885 c-28 -21 -34 -86 -9 -108 22 -20 51 -13 53 12 5 81 -13
120 -44 96z"/>
<path d="M6718 783 c-15 -39 -13 -122 4 -139 12 -12 17 -12 34 5 17 15 20 29
17 76 -4 82 -33 112 -55 58z"/>
<path d="M6862 668 c-6 -18 -8 -36 -4 -40 14 -14 126 -20 155 -9 24 9 26 14
17 31 -7 13 -21 20 -39 20 -16 0 -45 7 -64 15 -49 20 -51 20 -65 -17z"/>
<path d="M7165 682 c-25 -12 -32 -36 -17 -58 7 -12 92 -12 128 0 25 8 37 41
20 55 -18 15 -105 17 -131 3z"/>
</g>
</svg>
