<?xml version="1.0" standalone="no"?>
<!DOCTYPE svg PUBLIC "-//W3C//DTD SVG 20010904//EN"
 "http://www.w3.org/TR/2001/REC-SVG-20010904/DTD/svg10.dtd">
<svg version="1.0" xmlns="http://www.w3.org/2000/svg"
 width="514.170441pt" height="400.000000pt" viewBox="0 0 514.170441 400.000000"
 preserveAspectRatio="xMidYMid meet">
<metadata>
Created by potrace 1.15, written by Peter Selinger 2001-2017
</metadata>
<g transform="translate(-7.958166,410.408581) scale(0.029559,-0.029559)"
fill="#444444" stroke="none">
<path d="M8275 13880 c-265 -23 -354 -36 -435 -62 -94 -30 -160 -65 -160 -86
0 -9 -6 -25 -14 -34 -9 -12 -10 -34 -5 -80 5 -35 13 -162 18 -283 9 -196 26
-368 37 -386 18 -30 25 -509 11 -857 -8 -206 -3 -242 28 -242 8 0 35 -16 60
-35 107 -81 227 -123 369 -130 340 -17 389 -13 517 40 46 19 96 35 111 35 15
0 29 4 32 9 3 5 18 12 33 16 37 8 131 53 166 77 22 16 31 17 42 8 10 -8 19 -8
34 0 25 13 25 2 1 109 -17 77 -20 139 -25 438 -2 191 -7 364 -9 383 -3 19 -8
49 -11 65 -16 98 -23 444 -11 605 5 69 9 145 8 168 -1 51 -21 102 -39 102 -7
0 -13 4 -13 8 0 5 -19 14 -42 21 -46 13 -86 30 -159 67 -26 13 -77 28 -115 33
-105 14 -328 20 -429 11z m340 -71 c65 -6 127 -18 152 -30 24 -10 45 -19 48
-19 13 0 174 -82 184 -93 9 -11 8 -17 -4 -27 -8 -7 -15 -18 -15 -24 0 -33
-173 -92 -308 -106 -97 -10 -458 -6 -547 6 -22 3 -51 6 -65 5 -14 0 -50 7 -80
16 -164 47 -180 54 -210 91 -16 20 -30 41 -30 48 0 16 41 48 85 67 141 58 538
91 790 66z m-745 -313 c92 -24 204 -49 220 -49 8 1 59 -5 112 -12 60 -8 166
-12 280 -10 213 4 297 11 353 31 22 7 45 14 52 14 7 0 35 14 63 30 28 17 53
30 55 30 9 0 5 -85 -6 -125 -8 -29 -8 -94 1 -245 6 -113 13 -216 15 -230 25
-182 32 -350 27 -621 -2 -97 1 -211 7 -254 l11 -79 -27 -23 c-46 -37 -178 -99
-243 -113 -19 -4 -75 -25 -124 -45 l-88 -37 -197 -5 c-205 -6 -332 8 -399 43
-15 8 -32 14 -38 14 -14 0 -106 62 -133 89 -10 10 -24 20 -30 22 -9 3 -9 55 0
214 13 230 6 714 -11 805 -6 30 -13 89 -16 130 -3 41 -9 98 -13 125 -4 28 -4
64 1 80 5 18 2 77 -7 148 -8 66 -15 122 -15 127 0 4 21 -3 48 -16 26 -12 72
-30 102 -38z"/>
<path d="M8066 13274 c-17 -12 -17 -18 -7 -58 6 -25 11 -83 11 -130 0 -126
-26 -168 -68 -108 -39 57 -49 102 -44 200 5 99 0 108 -45 77 -19 -13 -20 -22
-16 -102 7 -141 49 -236 114 -263 41 -17 71 -2 95 47 15 31 19 60 18 153 0
174 -14 217 -58 184z"/>
<path d="M8279 13181 c-48 -10 -95 -45 -103 -77 -9 -34 26 -73 102 -116 28
-16 52 -33 52 -38 0 -4 -20 -13 -46 -20 -34 -10 -48 -10 -57 -1 -17 17 -45 13
-56 -8 -8 -15 -6 -25 11 -46 19 -25 24 -26 71 -20 93 13 162 70 144 119 -3 8
-29 28 -58 43 -28 16 -63 38 -78 50 -22 19 -24 24 -11 33 8 5 32 10 52 10 52
0 68 9 68 36 0 21 -27 46 -47 43 -4 -1 -24 -4 -44 -8z"/>
<path d="M8495 13143 c-32 -8 -65 -44 -74 -82 -12 -47 -9 -73 12 -104 9 -15
17 -31 17 -37 0 -5 5 -10 12 -10 6 0 20 -8 30 -17 42 -38 190 -6 157 33 -8 10
-26 15 -53 13 -44 -3 -86 7 -86 21 0 4 10 11 23 14 12 3 41 24 65 47 68 64 51
108 -48 122 -19 2 -44 2 -55 0z m75 -73 c0 -13 -38 -37 -72 -45 -24 -6 -28 -4
-28 13 0 12 8 26 18 31 22 13 82 14 82 1z"/>
<path d="M8814 13140 c-25 -10 -80 -71 -89 -99 -4 -14 -14 -20 -28 -18 -32 3
-33 -32 -3 -92 28 -55 53 -74 77 -61 13 8 14 17 5 60 -9 46 -8 56 14 97 25 47
51 63 101 63 24 0 29 4 29 24 0 34 -53 48 -106 26z"/>
<path d="M8083 12575 c-24 -6 -51 -19 -60 -28 -17 -18 -17 -19 8 -40 26 -22
40 -60 60 -158 21 -106 22 -158 4 -206 -20 -53 -12 -67 38 -67 57 0 128 44
172 107 33 49 40 67 43 121 6 99 -30 169 -125 243 -42 32 -87 41 -140 28z
m118 -84 c119 -72 126 -241 15 -326 -51 -39 -56 -34 -56 53 0 50 -10 116 -29
190 l-28 114 34 -7 c19 -3 48 -14 64 -24z"/>
<path d="M8411 12535 c-33 -15 -33 -16 -26 -62 4 -27 17 -91 30 -143 12 -52
28 -124 34 -160 13 -69 36 -100 75 -100 70 0 155 53 174 109 12 35 -8 71 -62
107 -20 14 -36 26 -36 28 0 2 16 20 35 39 29 29 35 42 35 76 0 36 -5 44 -41
70 -38 28 -114 51 -162 51 -12 -1 -37 -7 -56 -15z m185 -80 c13 -8 24 -21 24
-29 0 -32 -89 -77 -135 -68 -19 3 -26 14 -34 54 -14 64 -14 66 7 70 29 6 113
-10 138 -27z m-46 -180 c7 -8 18 -15 24 -15 7 0 27 -13 46 -29 31 -25 33 -30
21 -45 -26 -31 -81 -52 -127 -47 -6 1 -14 27 -17 59 -4 32 -9 66 -13 75 -5 14
0 17 24 17 16 0 35 -7 42 -15z"/>
<path d="M8351 11564 c-12 -15 -21 -31 -21 -36 0 -12 -75 -123 -117 -172 -57
-67 -38 -151 26 -117 11 6 44 11 75 11 51 0 55 -2 60 -27 9 -40 10 -284 2
-311 -8 -25 14 -65 30 -54 27 17 34 57 35 182 0 71 -3 135 -6 141 -4 5 -4 21
-1 35 7 28 38 31 112 13 39 -10 48 -9 61 4 15 14 15 18 1 39 -9 13 -32 39 -51
59 -33 34 -117 182 -117 205 0 14 -43 54 -57 54 -7 0 -21 -12 -32 -26z"/>
<path d="M8176 10813 c-13 -13 -307 -25 -591 -25 -277 1 -302 0 -324 -17 -24
-18 -24 -21 -11 -60 10 -33 11 -90 5 -288 -9 -281 -9 -324 6 -536 20 -289 22
-446 6 -602 -31 -292 -31 -291 -11 -299 9 -4 24 0 33 7 13 11 59 14 221 13
113 -1 219 2 235 6 86 24 230 39 340 37 66 -1 136 -2 155 -2 362 5 582 2 657
-7 91 -11 128 -9 341 20 129 17 445 -6 506 -37 61 -32 72 24 41 217 -15 91
-22 495 -24 1343 -1 186 -2 198 -22 218 -15 15 -27 19 -42 13 -12 -4 -96 -8
-187 -9 -91 -1 -239 -6 -330 -10 -91 -5 -298 -9 -460 -9 -267 -1 -341 3 -511
29 -15 2 -29 1 -33 -2z m201 -87 c103 -14 515 -13 998 1 220 7 303 6 313 -2
10 -9 14 -153 17 -686 2 -371 6 -692 9 -714 3 -22 8 -82 11 -133 l5 -93 -52 6
c-29 4 -80 11 -112 17 -92 15 -309 11 -406 -8 -67 -12 -114 -15 -225 -9 -135
7 -475 7 -870 1 -138 -2 -209 -8 -260 -21 -54 -13 -120 -17 -288 -18 l-217 -2
6 80 c3 44 10 120 15 170 13 119 13 339 -1 467 -13 118 -17 460 -10 751 l5
199 270 -3 c242 -2 614 8 624 17 2 2 20 1 40 -2 20 -3 77 -11 128 -18z"/>
<path d="M7471 10576 c-19 -23 13 -194 51 -272 34 -69 91 -127 135 -139 20 -5
32 0 54 21 43 41 53 83 44 188 -4 50 -7 102 -7 116 0 14 -5 34 -11 45 -6 11
-11 27 -12 35 0 9 -10 15 -25 15 -22 0 -25 -5 -28 -39 -2 -22 4 -53 14 -75 10
-21 19 -69 22 -117 4 -73 2 -83 -19 -107 l-24 -28 -37 33 c-21 18 -48 58 -61
88 -26 60 -52 175 -42 189 8 13 -16 61 -30 61 -7 0 -18 -6 -24 -14z"/>
<path d="M7815 10415 c-14 -13 -25 -28 -25 -33 0 -20 73 -91 104 -102 18 -6
41 -19 50 -29 16 -17 16 -20 1 -35 -21 -21 -55 -20 -71 2 -10 13 -17 15 -31 6
-26 -16 -27 -39 -2 -63 25 -23 83 -28 122 -10 33 15 60 64 53 95 -6 24 -78 84
-101 84 -13 0 -45 32 -45 44 0 5 27 6 60 4 69 -5 89 7 68 41 -11 18 -23 21
-86 21 -64 0 -76 -3 -97 -25z"/>
<path d="M8134 10390 c-27 -10 -34 -22 -54 -81 -17 -48 -15 -57 17 -148 26
-72 104 -90 164 -37 15 13 32 32 38 44 17 33 -15 37 -55 7 -18 -14 -39 -25
-47 -25 -21 0 -54 31 -62 57 -5 19 -1 23 36 33 48 13 89 50 89 80 0 24 -42 70
-64 70 -8 0 -20 2 -28 4 -7 3 -23 1 -34 -4z m56 -70 c0 -13 -48 -36 -56 -27
-4 3 -4 13 -1 22 7 17 57 21 57 5z"/>
<path d="M8421 10378 c-14 -7 -40 -35 -59 -62 l-34 -49 17 -59 c21 -66 38 -87
59 -69 10 8 12 29 8 81 -6 91 8 110 83 110 54 0 89 20 69 40 -16 16 -117 22
-143 8z"/>
<path d="M7553 9781 c-42 -31 -73 -95 -73 -152 0 -46 39 -136 69 -162 54 -45
87 -53 155 -35 l61 16 32 -30 c27 -26 35 -29 48 -18 8 7 15 18 15 26 0 14 -23
40 -42 46 -8 3 -5 15 11 37 52 72 1 201 -108 270 -64 41 -113 42 -168 2z m194
-89 c25 -25 45 -57 48 -75 7 -36 -8 -87 -26 -87 -14 0 -97 60 -123 89 -24 26
-66 28 -66 4 0 -9 28 -43 63 -74 34 -31 58 -61 54 -65 -5 -5 -15 -1 -22 9 -9
13 -20 16 -38 12 -35 -9 -66 10 -83 52 -32 76 -10 163 48 187 44 19 94 1 145
-52z"/>
<path d="M8284 9682 c-29 -23 -44 -54 -44 -90 0 -21 -8 -35 -27 -47 -25 -17
-26 -18 -8 -31 10 -8 26 -14 34 -14 8 0 25 -9 37 -21 44 -42 146 -29 178 23
17 28 -4 40 -38 23 -16 -8 -45 -15 -65 -14 l-36 0 25 17 c44 30 79 69 86 96
15 61 -87 103 -142 58z m80 -38 c9 -3 16 -10 16 -15 0 -9 -70 -59 -82 -59 -18
0 -7 50 14 64 25 18 30 19 52 10z"/>
<path d="M8555 9676 c-35 -35 -60 -129 -45 -166 17 -42 36 -56 55 -40 11 9 13
26 8 75 -5 55 -3 65 16 84 21 21 88 31 76 11 -8 -14 76 -122 109 -139 14 -8
26 -18 26 -22 0 -8 -80 -165 -99 -195 -16 -24 -9 -54 13 -54 18 0 44 36 97
136 23 44 52 95 65 114 13 19 24 38 24 42 0 5 20 36 45 70 34 47 42 65 34 75
-19 22 -27 16 -80 -57 -31 -42 -59 -70 -69 -70 -25 0 -66 36 -120 104 -42 52
-48 56 -88 56 -32 0 -49 -6 -67 -24z"/>
<path d="M7887 9667 c-15 -11 -15 -20 -4 -101 15 -96 34 -126 84 -126 27 0 69
40 88 84 l12 28 24 -43 c16 -29 32 -45 48 -47 40 -6 44 12 13 59 -24 38 -35
64 -58 147 -2 6 -10 12 -17 12 -21 0 -31 -18 -52 -87 -10 -35 -27 -71 -37 -80
-19 -17 -20 -17 -33 0 -7 10 -16 47 -20 82 -7 70 -22 92 -48 72z"/>
<path d="M10221 10240 c-13 -11 -31 -20 -40 -20 -9 0 -32 -13 -51 -30 -19 -16
-40 -29 -46 -30 -7 0 -14 -6 -17 -13 -3 -7 -37 -35 -76 -61 -39 -27 -71 -50
-71 -53 0 -18 62 -102 112 -152 68 -67 201 -142 220 -123 15 15 18 50 21 290
2 231 1 235 -52 192z"/>
<path d="M12760 10163 c-14 -2 -32 -14 -39 -25 -19 -31 10 -52 59 -42 30 5
101 12 148 14 23 0 13 40 -14 50 -25 10 -103 11 -154 3z"/>
<path d="M13145 10163 c-33 -5 -65 -29 -65 -49 0 -20 51 -25 108 -10 30 8 60
12 67 10 17 -7 28 12 20 36 -5 17 -14 20 -53 19 -26 -1 -60 -4 -77 -6z"/>
<path d="M13805 10163 c-35 -4 -75 -23 -75 -34 0 -4 6 -14 14 -22 11 -11 29
-12 81 -6 37 5 72 6 77 3 13 -8 38 16 38 37 0 13 -7 19 -24 19 -13 0 -36 2
-52 4 -16 2 -42 2 -59 -1z"/>
<path d="M12376 10134 c-16 -15 -10 -54 8 -55 38 -2 175 3 194 8 13 3 22 13
22 24 0 22 -16 26 -128 32 -62 4 -86 2 -96 -9z"/>
<path d="M13404 10134 c-20 -9 -4 -54 20 -55 125 -7 178 5 158 38 -7 11 -159
26 -178 17z"/>
<path d="M13974 10126 c-12 -31 4 -43 76 -55 40 -6 80 -16 90 -21 22 -12 60
-2 60 17 0 21 -106 66 -167 71 -42 4 -54 1 -59 -12z"/>
<path d="M12097 10113 c-4 -3 -7 -17 -7 -30 0 -21 4 -23 56 -23 60 0 94 13 94
34 0 8 -7 17 -16 20 -21 8 -119 8 -127 -1z"/>
<path d="M10633 10083 c-19 -7 -16 -41 5 -47 9 -3 48 -6 87 -8 59 -3 70 0 73
14 5 24 -48 48 -105 47 -26 0 -54 -3 -60 -6z"/>
<path d="M11451 10080 c-19 -13 -20 -40 -1 -50 30 -16 155 -13 170 5 6 8 9 18
6 23 -8 14 -159 33 -175 22z"/>
<path d="M11782 10082 c-12 -2 -27 -13 -33 -24 -16 -30 6 -40 71 -32 30 4 68
8 85 9 30 2 56 28 41 42 -8 8 -122 12 -164 5z"/>
<path d="M10362 10069 c-35 -11 -51 -34 -34 -51 12 -12 153 10 164 26 21 32
-56 46 -130 25z"/>
<path d="M10890 10065 c-12 -15 -12 -19 4 -31 25 -17 143 -15 158 4 18 21 -1
29 -78 37 -59 6 -72 4 -84 -10z"/>
<path d="M11178 10069 c-26 -14 -22 -38 7 -45 39 -10 136 3 153 20 14 14 13
16 -12 26 -35 13 -126 13 -148 -1z"/>
<path d="M14273 10009 c-32 -32 -4 -58 74 -69 32 -4 67 -11 78 -14 28 -9 48 7
41 31 -10 32 -170 75 -193 52z"/>
<path d="M14531 9912 c-10 -18 -8 -24 11 -36 13 -8 37 -18 53 -22 17 -4 42
-14 56 -22 29 -17 59 -11 59 12 0 26 -78 78 -125 83 -36 5 -45 2 -54 -15z"/>
<path d="M14806 9812 c-25 -29 -20 -40 37 -68 28 -14 60 -36 70 -48 l17 -21
21 24 20 24 -26 27 c-15 15 -48 39 -74 54 -46 25 -49 25 -65 8z"/>
<path d="M15038 9666 c-10 -7 -18 -16 -18 -19 0 -11 118 -97 133 -97 36 0 26
33 -27 86 -37 38 -65 48 -88 30z"/>
<path d="M15246 9518 c-15 -21 -14 -23 13 -41 17 -10 39 -34 50 -53 22 -36 38
-43 47 -19 10 25 -4 62 -37 100 -36 41 -52 44 -73 13z"/>
<path d="M15400 9355 c-11 -13 -9 -23 10 -58 14 -23 29 -52 35 -64 11 -26 27
-29 43 -10 16 19 -2 78 -34 117 -29 34 -36 36 -54 15z"/>
<path d="M15526 9143 c-4 -9 6 -45 21 -80 22 -51 32 -63 48 -61 27 4 25 52 -5
113 -23 47 -52 60 -64 28z"/>
<path d="M15616 8905 c-20 -20 -20 -24 -1 -68 13 -31 41 -54 52 -43 3 3 2 27
-2 55 -8 60 -25 79 -49 56z"/>
<path d="M15630 8665 c-7 -18 -7 -39 0 -66 6 -21 8 -49 5 -61 -8 -34 10 -56
32 -42 20 12 26 77 14 149 -8 49 -36 60 -51 20z"/>
<path d="M14470 8373 c-19 -2 -40 -9 -46 -14 -6 -4 -11 -39 -12 -76 -1 -37 -6
-90 -12 -118 -30 -144 -41 -243 -34 -315 11 -123 12 -176 14 -605 1 -335 -2
-431 -15 -525 -13 -90 -21 -118 -37 -131 -17 -13 -18 -17 -5 -28 12 -9 38 -10
117 -1 127 13 379 13 451 1 200 -36 277 -42 485 -42 130 0 233 5 254 11 121
38 355 59 440 40 30 -7 69 -12 85 -12 17 1 131 3 255 7 362 9 428 9 570 2 101
-5 156 -3 220 8 47 8 113 15 148 15 40 0 71 6 87 16 18 12 44 15 107 12 46 -1
89 1 96 5 15 10 16 68 0 101 -8 20 -8 53 1 138 6 62 13 187 16 278 6 202 7
938 1 948 -2 4 0 63 4 132 6 92 5 127 -3 133 -15 10 -368 0 -511 -14 -156 -17
-603 -5 -676 16 -49 15 -123 17 -635 15 -319 -1 -611 -1 -650 1 -107 4 -193 4
-265 -1 -36 -2 -144 -1 -240 2 -96 4 -191 4 -210 1z m480 -62 c25 2 79 3 120
2 115 -1 210 -1 667 0 232 1 425 -2 430 -6 24 -25 -5 -907 -39 -1137 -6 -41
-10 -182 -10 -313 l1 -239 -42 8 c-97 17 -247 4 -457 -38 -70 -14 -495 -18
-540 -5 -96 28 -475 50 -593 35 -43 -6 -80 -8 -83 -5 -3 3 1 38 8 78 10 56 13
231 13 729 0 360 3 660 7 667 12 17 38 164 32 175 -7 11 14 38 41 49 11 5 103
6 210 2 105 -3 210 -4 235 -2z m1497 -17 c28 -8 32 -42 22 -239 -12 -247 -29
-545 -34 -600 -3 -27 -8 -223 -11 -435 -4 -212 -7 -386 -8 -386 0 -1 -56 -4
-123 -7 l-122 -6 -5 82 c-9 153 -5 392 9 472 26 157 50 618 50 977 0 122 3
148 15 152 19 6 178 -1 207 -10z m1123 1 c14 -1 28 -3 32 -3 7 -2 3 -1284 -5
-1337 -11 -80 -21 -203 -18 -232 2 -32 1 -33 -36 -33 -21 -1 -66 -7 -100 -14
-46 -10 -63 -10 -64 -2 0 6 -3 20 -6 31 -8 33 -6 1240 2 1390 4 77 8 152 7
168 -1 21 3 27 21 28 47 3 68 7 74 13 4 4 21 4 38 0 16 -4 41 -8 55 -9z m-249
-380 c-1 -203 -5 -373 -7 -377 -6 -9 -6 -415 0 -684 l3 -191 -94 -12 c-51 -6
-97 -12 -101 -12 -4 -1 -24 -1 -45 0 -38 1 -39 1 -31 34 4 17 8 219 9 447 1
228 8 534 16 680 7 146 13 311 11 367 l-2 101 62 6 c88 9 150 13 168 12 12 -1
14 -53 11 -371z m-577 334 c-18 -19 -19 -41 -21 -283 -2 -143 -7 -331 -12
-416 -9 -173 -9 -279 4 -646 5 -162 5 -253 -2 -257 -5 -3 -61 -9 -124 -13
l-114 -7 1 344 c1 189 5 382 8 429 11 156 46 792 46 843 l0 27 117 0 116 0
-19 -21z m271 11 c7 0 13 -12 13 -27 3 -85 1 -265 -3 -308 -12 -125 -25 -579
-23 -765 3 -218 -10 -518 -23 -525 -4 -3 -52 -2 -107 1 l-99 7 -8 311 c-11
408 -11 523 -2 630 5 49 8 206 9 350 0 240 2 264 20 293 18 30 23 32 86 36 37
2 80 2 96 0 16 -1 34 -3 41 -3z"/>
<path d="M14793 8212 c-59 -2 -75 -6 -83 -22 -7 -13 -6 -67 2 -170 9 -116 9
-164 0 -207 -6 -31 -9 -60 -5 -66 10 -16 192 8 242 32 50 25 -2 54 -70 40 -24
-5 -60 -12 -79 -15 l-35 -6 0 73 0 74 70 12 c39 7 76 11 84 8 18 -7 41 13 41
36 0 26 -33 32 -112 19 -83 -14 -88 -11 -88 66 l0 51 38 7 c20 3 65 6 100 6
48 0 64 4 69 16 14 37 -42 52 -174 46z"/>
<path d="M15764 8143 c4 -16 10 -52 13 -80 l5 -53 -30 0 c-17 0 -43 5 -58 10
-21 8 -31 8 -41 -3 -27 -26 15 -67 70 -67 43 0 51 -13 38 -63 -6 -25 -11 -69
-11 -97 0 -47 2 -51 22 -48 20 3 23 13 35 92 7 50 17 94 22 99 5 5 34 11 63
12 52 3 53 4 56 36 l3 32 -45 -6 c-67 -10 -76 -3 -76 55 0 60 -23 108 -51 108
-18 0 -20 -4 -15 -27z"/>
<path d="M15224 7999 c-13 -7 -29 -36 -45 -81 -22 -65 -49 -101 -64 -87 -3 3
-16 41 -29 84 -24 81 -31 91 -55 76 -13 -8 -12 -19 2 -79 9 -38 17 -77 17 -87
0 -23 54 -75 79 -75 25 0 59 51 90 135 12 33 29 65 37 72 17 12 16 45 -1 49
-5 1 -19 -2 -31 -7z"/>
<path d="M15344 7971 c-17 -10 -38 -34 -47 -53 -9 -20 -23 -40 -30 -47 -20
-16 11 -109 46 -134 33 -26 92 -25 143 1 29 15 44 18 51 11 6 -6 19 -9 29 -7
16 3 20 15 24 73 4 55 9 70 22 73 22 4 64 -60 74 -111 7 -43 28 -57 50 -35 12
11 12 24 4 68 -8 43 -19 64 -52 97 -42 42 -72 52 -113 37 -20 -8 -55 -80 -55
-115 0 -22 -7 -30 -40 -43 -71 -28 -120 -17 -120 26 0 10 8 21 18 24 79 26
122 60 122 97 0 53 -67 74 -126 38z m56 -50 c0 -10 -24 -21 -47 -21 -13 0 -13
3 -3 15 13 16 50 21 50 6z"/>
<path d="M14732 7427 c-12 -14 -19 -407 -9 -424 9 -15 147 -33 253 -35 56 -1
100 -6 118 -16 34 -16 94 -10 131 14 34 22 50 77 35 115 -15 34 -85 89 -115
89 -37 0 -95 -75 -95 -124 0 -14 -3 -27 -8 -30 -9 -5 -230 20 -256 30 -17 6
-18 20 -16 188 2 100 2 187 1 194 -1 16 -26 16 -39 -1z m464 -338 c37 -41 8
-89 -53 -89 -32 0 -33 1 -33 43 0 24 5 48 12 55 18 18 53 14 74 -9z"/>
<path d="M15385 7116 c-64 -29 -105 -76 -105 -120 0 -37 19 -58 69 -75 53 -17
67 -14 111 28 22 21 42 36 44 32 13 -21 36 -137 36 -183 0 -44 -4 -58 -22 -75
-55 -48 -137 -54 -179 -12 -22 22 -49 19 -49 -5 0 -21 49 -64 88 -77 70 -23
170 18 203 83 18 36 21 53 15 114 -3 40 -12 90 -20 111 -9 21 -24 71 -36 112
-11 41 -25 78 -32 83 -23 14 -72 8 -123 -16z m75 -56 c0 -25 -23 -72 -43 -88
-10 -9 -22 -9 -46 -1 -27 9 -32 16 -29 38 2 19 14 32 48 49 55 27 70 28 70 2z"/>
<path d="M12730 8364 c-226 -38 -256 -40 -630 -49 -529 -13 -787 -14 -868 -4
-46 6 -103 8 -127 5 l-43 -7 -8 -157 c-15 -306 -12 -409 28 -862 6 -69 11
-227 12 -353 2 -212 3 -228 21 -247 17 -17 26 -18 55 -10 46 12 176 7 324 -13
65 -9 132 -13 147 -10 16 3 75 -3 131 -13 131 -24 578 -26 758 -4 63 8 187 14
275 15 97 0 164 4 171 11 8 7 9 25 3 60 -19 106 -30 304 -23 424 20 355 19
1068 -2 1168 -7 34 -61 53 -142 51 -37 -2 -74 -4 -82 -5z m151 -83 c17 -14 21
-35 30 -166 10 -161 7 -581 -7 -810 -9 -151 -9 -461 1 -537 l6 -48 -103 0
c-57 -1 -155 -8 -218 -16 -63 -8 -242 -18 -397 -21 -237 -5 -294 -3 -350 10
-126 29 -405 57 -576 57 -93 0 -98 1 -106 23 -5 13 -12 109 -15 213 -8 250
-17 407 -22 416 -9 13 -25 341 -24 478 1 157 4 230 15 318 l8 64 41 -5 c176
-23 291 -29 466 -23 107 3 305 8 440 10 291 5 406 13 560 36 146 22 225 23
251 1z"/>
<path d="M11469 8134 c-19 -23 2 -242 29 -305 38 -87 105 -113 155 -61 57 59
88 267 51 340 -8 18 -17 32 -19 32 -2 0 -13 -9 -24 -21 -18 -19 -18 -23 -4
-57 19 -47 13 -152 -12 -205 -56 -119 -119 -27 -129 191 -3 48 -5 90 -5 95 -2
13 -28 7 -42 -9z"/>
<path d="M12003 8024 c-9 -23 9 -48 37 -52 29 -5 41 15 27 45 -12 27 -54 32
-64 7z"/>
<path d="M11814 7980 c-12 -4 -24 -15 -27 -24 -4 -9 -15 -16 -26 -16 -30 0
-42 -30 -25 -60 7 -14 13 -47 14 -73 0 -48 0 -48 32 -45 l31 3 1 67 c2 149 96
110 100 -41 1 -46 4 -56 20 -59 10 -2 23 1 29 7 15 15 9 104 -8 138 -8 16 -15
33 -15 38 0 6 -14 25 -31 43 -30 32 -55 38 -95 22z"/>
<path d="M12263 7878 c-28 -29 -56 -63 -62 -75 -17 -34 -13 -88 7 -106 23 -21
71 -22 99 -2 21 15 23 14 29 -9 5 -22 0 -202 -8 -281 -3 -26 0 -30 25 -33 30
-4 38 3 109 101 24 32 56 75 71 95 15 19 26 43 25 51 -5 23 -50 20 -63 -4 -17
-33 -87 -126 -91 -122 -3 2 -7 61 -10 131 -8 207 -11 242 -26 267 -29 53 -42
51 -105 -13z m50 -73 c-2 -30 -29 -65 -50 -65 -19 0 -16 28 8 67 24 39 45 38
42 -2z"/>
<path d="M12063 7868 c-30 -37 -22 -170 11 -176 28 -6 33 11 30 101 -2 60 -7
83 -17 85 -8 2 -19 -3 -24 -10z"/>
<path d="M9759 8346 c-2 -2 -33 -7 -69 -11 -36 -4 -81 -8 -100 -11 -19 -2 -78
-4 -130 -4 -52 -1 -122 -5 -155 -10 -129 -19 -623 -27 -860 -14 -88 5 -250 7
-360 4 -110 -3 -227 -1 -260 3 -33 5 -171 9 -307 10 -222 2 -249 0 -264 -15
-14 -14 -19 -40 -22 -120 -5 -129 -6 -76 4 -533 11 -468 12 -871 2 -940 l-6
-50 556 3 c306 2 582 3 612 3 181 -2 516 0 645 4 83 2 200 4 260 3 61 0 189 0
285 1 120 1 196 -3 243 -12 90 -19 102 -10 90 72 -8 57 -9 195 -2 491 5 206
-3 364 -31 595 -25 207 -25 208 -41 378 -7 70 -17 131 -23 136 -13 10 -61 22
-67 17z m31 -98 c0 -13 9 -108 20 -213 12 -104 23 -224 25 -265 3 -41 10 -105
16 -142 19 -117 25 -439 11 -568 -4 -36 -7 -127 -7 -202 0 -96 -4 -139 -12
-142 -6 -3 -38 -1 -70 3 -32 5 -224 7 -428 4 -203 -2 -707 -3 -1120 -2 -412 1
-790 2 -840 1 l-90 -1 0 382 c0 210 -3 523 -7 696 -7 361 0 440 43 452 39 11
177 10 269 -2 74 -10 525 -19 1150 -22 268 -1 845 24 858 38 3 3 45 5 94 5 85
0 88 -1 88 -22z"/>
<path d="M7741 8201 c-11 -7 -11 -20 -1 -78 15 -82 6 -196 -17 -218 -8 -8 -23
-15 -33 -15 -63 0 -82 41 -81 176 1 95 -1 104 -18 104 -21 0 -31 -50 -31 -156
0 -86 21 -135 69 -162 49 -28 83 -28 116 1 41 35 54 88 48 197 -7 160 -13 176
-52 151z"/>
<path d="M7902 8065 c-46 -14 -82 -41 -82 -59 1 -18 32 -49 82 -82 l47 -31
-42 -18 c-23 -9 -52 -21 -64 -26 -13 -5 -23 -15 -23 -23 0 -52 192 10 198 64
2 22 -8 30 -68 63 -92 49 -92 58 3 72 48 7 74 26 62 45 -8 14 -61 12 -113 -5z"/>
<path d="M8084 8022 c-23 -14 -54 -78 -54 -109 0 -46 63 -108 118 -118 67 -11
152 24 152 63 0 15 -1 15 -106 -3 -27 -5 -49 -3 -65 5 -23 13 -22 13 22 26 85
25 103 79 40 121 -33 23 -85 30 -107 15z m69 -58 c9 -4 17 -10 17 -14 0 -9
-80 -23 -88 -15 -9 8 31 46 42 40 6 -3 19 -8 29 -11z"/>
<path d="M8405 8000 c-54 -26 -95 -65 -95 -90 0 -29 21 -109 30 -115 4 -2 16
2 26 9 13 10 20 31 24 72 6 72 32 95 111 97 41 2 55 6 57 18 6 33 -91 39 -153
9z"/>
<path d="M9580 7620 c-16 -10 -21 -200 -7 -285 l8 -51 -43 -11 c-65 -17 -98
-47 -98 -88 0 -68 92 -120 177 -101 35 9 123 85 123 109 0 24 -23 21 -49 -7
-30 -31 -114 -68 -138 -59 -28 10 -63 45 -63 64 0 33 88 40 108 8 9 -14 21
-19 40 -17 35 4 42 41 13 66 -25 22 -41 123 -41 266 0 106 -4 122 -30 106z"/>
<path d="M7690 7451 c-102 -21 -190 -105 -190 -182 0 -75 93 -169 168 -169 62
0 212 82 212 116 0 24 -19 24 -55 0 -36 -25 -112 -46 -166 -46 -19 0 -42 11
-66 34 -50 46 -51 91 -3 141 37 38 76 55 134 57 20 1 41 7 48 15 22 26 -24 45
-82 34z"/>
<path d="M8382 7314 c-13 -9 -28 -27 -33 -41 l-9 -25 -23 33 c-30 45 -57 48
-96 9 -28 -28 -31 -38 -31 -89 0 -58 18 -91 48 -91 14 0 16 8 16 79 1 65 20
78 41 29 29 -72 66 -73 85 -3 15 55 34 73 56 54 23 -19 44 -65 44 -97 0 -34
26 -50 47 -30 25 25 4 87 -47 140 -50 52 -64 56 -98 32z"/>
<path d="M8597 7305 c-22 -20 -28 -33 -28 -73 -2 -59 7 -88 28 -96 27 -11 45
14 39 53 -5 42 3 91 15 91 5 0 15 -13 24 -30 19 -37 47 -39 70 -4 14 22 19 23
32 12 24 -19 43 -72 43 -117 0 -31 4 -41 20 -46 49 -16 52 27 9 131 -18 43
-41 82 -55 90 -21 14 -26 14 -53 -2 -28 -17 -31 -17 -49 -1 -26 24 -62 21 -95
-8z"/>
<path d="M9012 7297 c-65 -34 -122 -94 -122 -128 0 -32 40 -69 74 -69 29 0 64
25 86 63 l19 30 15 -37 c19 -45 50 -61 97 -49 33 9 34 11 37 66 3 62 20 81 59
66 28 -10 46 -43 53 -98 8 -71 59 -83 60 -14 0 36 -38 112 -71 143 -26 24 -38
27 -68 23 -20 -3 -42 -10 -49 -16 -10 -8 -16 -7 -22 3 -4 7 -15 10 -25 6 -14
-5 -16 -14 -11 -54 4 -26 10 -55 13 -66 3 -12 1 -17 -7 -14 -15 5 -51 95 -49
123 2 38 -1 45 -23 45 -13 -1 -42 -11 -66 -23z m12 -74 c-11 -46 -33 -75 -56
-71 -34 5 -32 24 8 62 44 43 57 45 48 9z"/>
<path d="M7983 7293 c-30 -6 -73 -59 -73 -89 0 -34 28 -74 51 -74 28 0 35 27
13 51 -28 31 -8 54 45 53 52 -1 92 -34 75 -62 -16 -25 -85 -62 -118 -62 -21 0
-27 -4 -22 -16 3 -9 6 -18 6 -20 0 -2 18 -4 40 -4 71 0 150 54 150 103 0 62
-98 133 -167 120z"/>
<path d="M1012 8315 c-11 -23 -35 -31 -79 -26 -6 1 -23 -9 -36 -21 -14 -13
-48 -31 -75 -41 -31 -10 -60 -29 -74 -48 -13 -16 -34 -44 -48 -62 -73 -92
-108 -162 -119 -237 -7 -41 -11 -91 -11 -110 1 -66 -8 -103 -45 -185 -66 -147
-88 -191 -100 -205 -7 -8 -16 -30 -20 -49 -4 -19 -20 -61 -36 -95 -16 -34 -32
-78 -35 -99 -4 -20 -11 -40 -15 -43 -5 -3 -9 -17 -9 -32 0 -15 -10 -63 -21
-107 -28 -104 -26 -164 4 -187 24 -19 72 -24 82 -8 14 23 231 121 282 127 l51
6 23 -44 c12 -24 23 -65 25 -90 3 -63 10 -82 36 -98 20 -12 24 -11 42 11 26
31 63 51 77 42 6 -3 50 -7 98 -9 47 -1 97 -7 110 -14 21 -12 45 -11 106 4 98
22 110 23 133 9 20 -13 31 -14 74 -3 63 17 92 49 85 99 -3 21 4 63 17 103 l21
68 59 -6 c79 -8 235 -48 277 -70 19 -10 50 -26 69 -36 92 -49 175 -31 164 35
-11 64 -29 119 -42 123 -7 3 -22 22 -33 42 -20 37 -25 47 -67 114 -36 59 -63
108 -93 169 -16 31 -33 59 -38 63 -5 3 -12 18 -16 34 -3 15 -45 77 -93 136
-48 59 -95 117 -104 129 -9 11 -19 44 -22 71 -10 96 -27 164 -54 217 -35 68
-101 168 -112 168 -5 0 -15 6 -23 14 -16 16 -149 86 -163 86 -5 0 -26 11 -46
25 -26 17 -46 24 -64 21 -17 -3 -36 2 -52 14 -35 28 -76 26 -90 -5z m379 -447
c56 -19 119 -66 119 -88 0 -6 -16 -3 -37 9 -110 56 -207 60 -301 12 -53 -26
-62 -28 -119 -20 -35 5 -79 16 -99 24 -47 19 -110 13 -164 -17 -23 -13 -54
-29 -67 -36 -41 -23 -40 -2 2 34 71 62 126 84 192 80 80 -6 151 -23 182 -45
34 -24 68 -12 99 33 34 51 82 54 193 14z m-276 -158 c3 -5 1 -19 -5 -30 l-11
-21 -32 23 -32 23 30 6 c17 4 33 7 37 8 4 0 10 -3 13 -9z m446 -112 c6 -11 5
-19 -1 -23 -5 -3 -10 -16 -10 -29 0 -12 -6 -28 -12 -34 -7 -7 -15 -45 -18 -85
l-5 -72 -45 2 c-177 6 -283 13 -288 18 -6 6 -11 95 -5 95 1 0 17 -9 35 -20 35
-21 68 -25 96 -11 9 5 42 17 72 27 37 12 68 31 97 62 36 37 43 50 43 85 1 40
1 41 16 22 9 -11 20 -28 25 -37z m-461 -68 c0 -81 -3 -100 -15 -100 -26 0 -31
105 -9 183 13 45 24 8 24 -83z m590 14 c0 -6 7 -18 17 -25 26 -22 73 -98 163
-264 24 -44 51 -91 60 -105 31 -44 110 -189 110 -200 0 -22 -58 57 -99 135
-24 44 -48 87 -55 95 -6 8 -22 35 -36 60 -13 25 -27 47 -30 50 -15 11 -200
321 -200 334 0 14 69 -66 70 -80z m-990 -78 c24 -40 43 -48 120 -50 43 -2 67
4 110 26 30 15 58 28 62 28 5 0 8 -13 8 -29 0 -16 7 -37 15 -45 14 -14 14 -18
-1 -41 l-17 -25 -161 2 -161 3 -1 83 c0 45 1 82 2 82 1 0 12 -16 24 -34z m433
-145 c-5 -9 -22 -17 -37 -19 -21 -3 -26 1 -26 17 0 12 9 30 21 42 l21 21 15
-22 c12 -17 13 -27 6 -39z m-688 -93 c-4 -18 -10 -37 -14 -43 -4 -5 -13 -35
-20 -65 -14 -58 -50 -136 -51 -110 -1 34 73 250 86 250 3 0 2 -15 -1 -32z
m664 -65 c11 -41 31 -213 31 -263 0 -23 -5 -30 -19 -30 -16 0 -19 11 -24 93
-4 50 -9 125 -13 165 -8 80 8 101 25 35z m107 -191 c4 -66 3 -102 -3 -102 -6
0 -13 39 -16 88 -4 48 -9 103 -13 122 -6 33 -6 34 9 14 11 -14 18 -55 23 -122z
m-175 -22 c2 -72 -3 -101 -15 -89 -4 4 -10 173 -7 199 5 39 20 -37 22 -110z
m266 -54 c5 -33 4 -38 -12 -35 -10 2 -18 7 -17 12 1 4 2 24 2 44 0 47 18 32
27 -21z m-351 -22 c-12 -31 -25 -3 -13 29 11 29 12 30 15 9 2 -13 1 -30 -2
-38z m500 -53 c15 -30 9 -48 -21 -55 -47 -12 -68 18 -49 69 10 24 56 15 70
-14z m-596 -53 c-28 -23 -42 -23 -38 -1 4 22 51 48 57 31 2 -6 -6 -20 -19 -30z
m435 21 c13 -20 -5 -22 -132 -20 -115 2 -141 4 -193 12 -36 5 85 16 197 17 77
1 124 -2 128 -9z"/>
<path d="M3363 8330 c-27 -11 -29 -30 -8 -69 17 -34 19 -81 16 -396 -2 -191 2
-278 19 -430 18 -162 20 -225 16 -434 -5 -212 -8 -247 -23 -263 -13 -14 -15
-23 -7 -36 9 -13 32 -17 120 -20 60 -1 143 -5 184 -7 82 -5 582 -13 1340 -21
641 -8 779 -11 818 -19 53 -12 69 11 65 87 -3 35 -8 151 -12 258 -5 107 -14
256 -20 330 -11 135 -13 155 -31 325 -5 50 -12 128 -16 175 -3 47 -9 112 -13
145 -3 33 -3 121 0 195 6 106 5 138 -6 149 -10 10 -39 13 -112 11 -54 -2 -125
-2 -158 -2 -122 3 -539 23 -543 27 -2 2 -14 0 -26 -5 -24 -9 -1241 -16 -1341
-8 -178 15 -242 17 -262 8z m227 -72 c8 0 31 -4 50 -8 52 -13 112 -13 725 -4
688 11 872 11 1090 -2 110 -6 183 -6 207 0 24 6 47 7 63 1 l26 -10 3 -205 c2
-113 11 -275 20 -360 8 -85 20 -218 27 -295 6 -77 12 -158 14 -180 2 -22 7
-112 10 -200 3 -88 8 -186 10 -218 l4 -59 -637 6 c-1074 11 -1482 17 -1611 24
l-124 7 -2 320 c-1 230 -6 350 -17 426 -12 81 -15 161 -12 350 3 134 5 249 5
254 1 6 -2 46 -6 89 l-7 79 74 -7 c40 -5 80 -8 88 -8z"/>
<path d="M4026 8090 c-67 -21 -87 -71 -35 -89 31 -10 31 -13 26 -54 -4 -28 -2
-48 6 -56 7 -7 11 -38 11 -79 -2 -71 7 -92 37 -92 21 0 22 4 23 93 l1 59 49
16 c59 21 91 66 75 110 -12 35 -65 77 -115 91 -44 12 -39 12 -78 1z m109 -76
c35 -23 32 -52 -7 -68 -28 -12 -67 -11 -55 1 3 2 1 19 -3 38 -4 19 -5 36 -2
39 10 11 43 6 67 -10z"/>
<path d="M4310 8078 c-67 -34 -60 -53 20 -53 l65 0 3 -35 c1 -19 -1 -66 -5
-104 -8 -69 -8 -70 -43 -79 -50 -12 -67 -31 -50 -53 12 -14 25 -15 85 -8 84 9
166 7 179 -6 13 -13 36 7 36 31 0 13 -14 22 -52 34 -28 8 -62 15 -75 15 -23 0
-23 1 -21 110 1 100 3 110 20 110 10 0 30 -7 44 -16 29 -20 50 -8 40 23 -18
55 -162 73 -246 31z"/>
<path d="M3806 8081 c-17 -7 -34 -41 -58 -121 -6 -19 -17 -44 -24 -55 -8 -11
-14 -26 -14 -35 0 -9 -9 -33 -20 -55 -25 -50 -25 -72 0 -80 28 -9 44 6 60 55
16 49 32 59 82 53 36 -5 38 -8 53 -62 22 -75 54 -101 75 -60 9 16 7 29 -9 63
-15 29 -19 52 -15 73 5 25 2 33 -15 42 -12 7 -21 19 -21 29 0 37 -53 163 -68
161 -4 0 -15 -4 -26 -8z m22 -163 c-29 -18 -37 -3 -17 35 l12 21 9 -24 c6 -16
5 -26 -4 -32z"/>
<path d="M4294 7475 c-4 -9 -1 -28 4 -43 6 -15 12 -43 14 -62 3 -34 2 -35 -39
-38 -46 -3 -74 -25 -55 -44 6 -6 31 -14 54 -17 l43 -6 0 -78 c0 -80 10 -100
45 -94 12 2 16 22 18 95 l3 92 32 0 c72 0 76 43 5 57 -40 8 -43 11 -51 48 -5
22 -9 51 -10 65 -1 14 -6 28 -12 32 -17 13 -45 9 -51 -7z"/>
<path d="M3695 7405 c-81 -29 -119 -114 -95 -214 12 -51 46 -95 82 -107 52
-16 162 25 200 76 15 21 17 31 8 55 -15 43 -43 56 -118 57 -53 0 -68 -3 -79
-18 -28 -39 -13 -49 65 -46 48 3 72 0 72 -7 0 -16 -59 -50 -99 -57 -28 -6 -38
-3 -52 15 -44 55 -29 151 30 185 18 10 50 20 70 22 20 1 40 2 44 3 5 1 7 11 5
24 -3 19 -10 22 -48 24 -25 2 -63 -4 -85 -12z"/>
<path d="M5546 7291 c-25 -44 -51 -83 -57 -87 -12 -7 -51 35 -71 78 -7 15 -23
33 -36 40 -21 11 -26 10 -37 -6 -12 -16 -9 -25 28 -78 23 -33 52 -68 63 -77
l21 -17 -48 -79 c-133 -218 -152 -261 -128 -276 26 -17 47 -9 54 19 3 15 17
44 31 64 13 21 24 40 24 43 0 3 12 24 27 48 40 61 51 79 65 107 7 14 31 54 54
90 96 153 117 210 75 210 -14 0 -33 -24 -65 -79z"/>
<path d="M4758 7313 c-23 -6 -23 -33 0 -103 19 -62 46 -105 68 -114 9 -4 27 6
44 26 l29 31 21 -36 c17 -29 28 -37 51 -37 39 0 55 29 67 125 11 85 6 108 -26
110 -16 1 -23 -7 -31 -41 -6 -24 -11 -54 -11 -68 0 -37 -14 -39 -44 -6 -31 36
-48 37 -76 8 -24 -27 -30 -22 -37 34 -6 46 -19 79 -31 77 -4 -1 -15 -3 -24 -6z"/>
<path d="M5132 7263 c-75 -74 -88 -116 -48 -150 37 -32 95 -31 134 2 29 24 29
24 47 5 10 -11 29 -20 42 -20 30 0 32 39 3 65 -27 25 -49 73 -48 108 1 34 -1
35 -40 43 -28 6 -37 1 -90 -53z m58 -68 c0 -23 -24 -45 -49 -45 -17 0 -13 15
10 44 26 33 39 33 39 1z"/>
<path d="M4048 7285 c-101 -53 -163 -151 -123 -195 40 -44 108 -31 168 34 28
30 29 30 43 11 39 -53 56 -66 81 -63 38 4 39 23 3 54 -44 40 -81 111 -74 141
7 26 -8 43 -36 42 -8 0 -36 -11 -62 -24z m7 -111 c-17 -27 -61 -51 -72 -41
-12 12 18 54 50 69 37 18 46 8 22 -28z"/>
<path d="M4480 7283 c-31 -25 -32 -30 -27 -79 6 -55 43 -126 76 -144 68 -36
229 36 183 82 -7 7 -22 3 -47 -12 -34 -21 -92 -29 -114 -15 -23 13 -9 31 46
60 75 39 91 75 50 111 -42 36 -123 34 -167 -3z m121 -46 c-6 -6 -16 -12 -23
-13 -7 -2 -28 -7 -45 -13 -35 -10 -41 -5 -20 21 16 20 33 25 69 20 21 -3 26
-8 19 -15z"/>
<path d="M2985 7733 c-17 -16 -17 -36 1 -150 8 -53 8 -54 -209 -58 -172 -3
-260 4 -372 30 -33 8 -119 17 -192 21 l-132 7 -12 -27 c-17 -36 -2 -46 73 -46
70 0 252 -26 348 -49 14 -3 131 -6 261 -6 l236 0 6 -83 c10 -139 40 -170 102
-107 20 19 54 47 76 62 21 14 39 29 39 34 0 4 16 17 35 29 19 12 35 27 35 34
0 7 9 21 20 31 37 34 17 55 -53 55 -18 0 -38 10 -55 28 -76 79 -125 140 -143
174 -21 41 -38 47 -64 21z"/>
<path d="M6825 7695 c-3 -8 -7 -22 -10 -30 -2 -9 2 -43 10 -77 16 -69 13 -80
-18 -73 -12 2 -87 7 -167 10 -339 12 -431 15 -545 21 -66 3 -128 2 -138 -1
-20 -8 -23 -38 -4 -53 6 -5 99 -12 207 -15 107 -3 202 -8 210 -10 8 -3 116 -8
240 -12 123 -3 228 -9 232 -13 10 -10 -8 -120 -23 -138 -10 -12 -8 -17 7 -28
10 -8 25 -11 34 -7 19 8 109 55 175 91 28 15 68 31 90 35 36 6 54 18 55 37 0
3 -28 28 -61 55 -34 26 -69 55 -78 63 -10 8 -54 48 -98 88 -81 72 -109 86
-118 57z"/>
<path d="M10719 7667 c-8 -18 -7 -33 5 -62 9 -20 16 -57 16 -80 l0 -43 -47 11
c-32 8 -85 10 -158 5 -140 -9 -122 -8 -249 -5 -60 2 -132 0 -160 -5 -28 -5
-68 -9 -88 -9 -40 -1 -64 -20 -55 -42 4 -12 64 -14 339 -11 183 1 351 -1 373
-4 l40 -7 5 -100 c4 -81 8 -100 21 -103 9 -2 51 31 97 78 58 57 89 80 106 80
48 0 66 83 21 100 -13 5 -41 26 -63 47 -21 21 -59 56 -85 78 -27 22 -55 52
-63 68 -18 33 -41 35 -55 4z"/>
<path d="M13932 7654 c-6 -10 -4 -30 4 -53 7 -20 13 -53 14 -73 l0 -38 -187 0
c-104 0 -242 7 -308 15 -140 17 -368 20 -396 5 -10 -6 -19 -19 -19 -30 0 -23
31 -27 265 -35 88 -3 183 -10 210 -15 28 -6 115 -11 195 -11 80 0 165 -2 189
-6 l43 -6 -5 -50 c-4 -27 -13 -57 -22 -67 -19 -21 -19 -34 -1 -49 16 -14 75 3
171 49 33 16 91 44 128 61 88 41 87 57 -2 90 -43 16 -102 75 -153 154 -21 32
-44 63 -51 67 -21 13 -66 9 -75 -8z"/>
<path d="M15244 6412 c-15 -9 -17 -131 -3 -148 6 -8 18 -14 26 -14 11 0 13 16
11 82 -3 78 -10 96 -34 80z"/>
<path d="M15242 6108 c-17 -17 -16 -152 1 -166 24 -20 36 3 38 76 1 53 -2 77
-12 88 -12 11 -17 12 -27 2z"/>
<path d="M12895 5915 c-5 -2 -91 -6 -190 -9 -99 -2 -218 -9 -265 -15 -152 -18
-554 -24 -805 -12 -132 7 -321 14 -420 17 -98 3 -183 7 -187 10 -4 3 -19 2
-34 -2 -26 -7 -27 -8 -21 -73 4 -36 2 -95 -3 -131 -11 -80 -12 -116 -11 -409
0 -129 -4 -307 -9 -395 -7 -119 -7 -205 3 -330 14 -182 8 -297 -18 -325 -8
-10 -15 -23 -15 -30 0 -17 49 -33 74 -24 11 4 73 8 136 10 63 1 169 6 235 10
66 4 176 5 245 1 143 -8 564 -18 945 -21 210 -3 276 -7 343 -22 82 -18 84 -18
102 1 17 18 17 25 3 124 -9 68 -16 228 -19 455 -2 193 -9 386 -14 430 -5 44
-10 134 -11 200 0 66 -5 167 -10 225 -6 58 -12 149 -15 204 -5 115 -8 122 -39
111z m-1275 -85 c333 -19 486 -20 695 -3 110 9 282 18 381 20 l182 4 6 -68
c22 -234 26 -292 30 -418 2 -77 9 -196 16 -264 7 -79 9 -187 5 -300 -9 -261
-10 -365 -2 -473 3 -54 3 -99 -1 -102 -4 -2 -30 0 -57 5 -46 9 -757 25 -870
20 -27 -1 -140 3 -250 9 -188 10 -360 5 -661 -17 -45 -3 -84 -1 -87 3 -2 5 -2
59 2 119 4 71 1 144 -7 205 -9 63 -11 146 -8 245 3 83 10 305 16 495 5 190 12
389 16 443 l7 98 196 -5 c108 -3 284 -10 391 -16z"/>
<path d="M11168 5693 c-12 -21 -14 -33 -6 -47 7 -13 8 -64 3 -155 -12 -217
-13 -206 13 -209 12 -2 24 3 27 10 2 7 8 80 12 161 l8 149 25 -42 c69 -115
106 -118 160 -12 12 24 24 42 25 40 2 -2 13 -70 25 -151 26 -181 31 -197 65
-197 27 0 35 26 14 47 -14 14 -38 165 -48 305 -4 59 -10 111 -14 114 -3 4 -17
4 -30 0 -18 -4 -30 -21 -48 -65 -13 -33 -31 -71 -41 -83 l-18 -23 -21 25 c-11
14 -39 54 -62 90 -23 36 -49 66 -57 68 -9 1 -23 -10 -32 -25z"/>
<path d="M12192 5638 c-17 -17 -15 -76 8 -207 11 -62 20 -140 20 -172 0 -46 4
-60 18 -68 10 -5 24 -6 31 -1 14 8 9 70 -24 275 -8 50 -16 110 -18 134 -2 46
-14 60 -35 39z"/>
<path d="M11960 5575 c-19 -23 -4 -45 30 -45 34 0 40 18 12 43 -23 21 -26 21
-42 2z"/>
<path d="M11710 5484 c-71 -38 -140 -103 -140 -131 0 -10 9 -32 20 -50 39 -65
142 -48 186 30 l21 39 10 -29 c16 -45 62 -93 89 -93 32 0 32 28 -1 55 -16 12
-41 57 -64 114 -21 52 -42 96 -47 97 -5 2 -38 -13 -74 -32z m40 -75 c0 -28
-27 -77 -49 -89 -13 -7 -28 -7 -46 0 -41 15 -29 49 29 87 52 34 66 34 66 2z"/>
<path d="M11971 5422 c-6 -11 -6 -36 0 -67 5 -28 8 -63 7 -79 -3 -34 10 -42
36 -23 17 12 18 23 11 100 -6 76 -9 87 -26 87 -10 0 -23 -8 -28 -18z"/>
<path d="M8589 5788 c-32 -12 -59 -38 -59 -56 0 -8 -19 -32 -41 -53 l-42 -38
5 -65 c4 -43 13 -74 27 -94 11 -17 21 -44 21 -61 0 -48 26 -100 55 -111 41
-15 111 -12 129 6 33 32 37 51 21 96 -10 29 -11 44 -4 47 6 2 26 17 45 33 29
25 34 37 34 73 0 26 -6 47 -15 55 -8 7 -15 24 -15 39 -2 81 -92 154 -161 129z
m94 -76 c10 -11 17 -31 15 -43 -2 -19 -11 -25 -47 -31 -40 -7 -60 -20 -61 -40
0 -5 24 -8 53 -8 87 0 117 -44 50 -72 -59 -25 -80 -62 -49 -87 21 -18 26 -50
9 -66 -19 -19 -33 -19 -61 3 -21 17 -22 21 -11 71 11 51 10 54 -17 82 -26 27
-27 30 -14 68 10 32 10 44 1 55 -13 16 1 32 19 21 16 -10 40 14 40 39 0 48 34
52 73 8z"/>
<path d="M15220 5771 c0 -16 -5 -42 -12 -56 -8 -19 -8 -31 0 -50 26 -58 54
-13 56 90 1 34 -2 40 -21 43 -20 3 -23 -1 -23 -27z"/>
<path d="M9531 5543 c-31 -39 -36 -70 -18 -109 9 -19 20 -34 25 -34 5 0 7 -13
4 -28 -8 -56 67 -111 130 -94 23 6 51 57 43 81 -3 11 4 24 24 39 19 14 29 30
28 44 -2 25 -74 98 -97 98 -9 0 -25 7 -36 15 -32 24 -80 19 -103 -12z m148
-71 c30 -22 28 -35 -9 -45 -32 -8 -37 -25 -18 -57 16 -25 5 -35 -21 -20 -17 9
-21 20 -21 60 0 27 -5 52 -10 55 -8 5 -7 11 1 21 13 16 42 11 78 -14z"/>
<path d="M15136 5488 c-36 -56 -40 -77 -21 -98 25 -28 45 -25 45 5 0 15 7 40
16 56 27 52 -9 85 -40 37z"/>
<path d="M8934 5444 c-49 -24 -86 -69 -99 -121 -10 -38 -17 -49 -41 -56 -46
-15 -80 -43 -114 -95 -26 -39 -30 -54 -26 -89 6 -52 23 -79 58 -94 19 -8 31
-24 43 -58 12 -36 25 -52 61 -75 42 -27 48 -28 85 -17 39 12 41 11 84 -27 67
-59 173 -81 223 -46 30 21 52 66 52 106 0 29 5 35 39 49 51 22 92 78 99 134 4
37 0 52 -22 85 -14 22 -38 47 -53 57 -16 9 -30 18 -32 19 -1 2 4 13 13 26 23
32 20 71 -6 96 -38 35 -149 82 -189 80 -24 -1 -45 5 -64 20 -32 26 -68 28
-111 6z m110 -65 c21 -25 25 -38 20 -64 -7 -38 17 -68 50 -63 19 3 21 9 21 61
0 33 4 57 11 57 21 0 112 -51 118 -67 11 -28 -48 -73 -97 -73 -34 0 -38 -9
-21 -41 13 -26 20 -29 65 -29 83 0 139 -40 139 -101 0 -30 -7 -43 -36 -69 -37
-32 -68 -36 -116 -15 -29 12 -31 -19 -4 -59 21 -31 23 -41 14 -67 -10 -28 -34
-49 -58 -49 -6 0 -8 5 -5 10 10 16 -15 40 -41 40 -25 0 -37 18 -48 73 -8 33
-45 37 -83 7 -30 -23 -76 -18 -110 13 -32 29 -29 40 17 59 28 12 40 23 40 37
0 25 -6 26 -53 6 -24 -10 -38 -11 -42 -4 -4 5 -18 14 -31 19 -30 12 -31 38 -4
82 11 18 20 45 20 61 0 32 15 35 39 6 12 -16 23 -19 44 -14 23 6 27 12 27 45
0 48 25 108 58 141 15 15 30 27 34 28 3 1 18 -13 32 -30z"/>
<path d="M8161 5260 c-25 -25 -41 -54 -46 -78 -8 -44 -21 -62 -45 -62 -36 0
-59 -65 -46 -134 11 -59 99 -97 177 -76 35 10 45 9 54 -2 26 -33 76 -58 122
-61 l48 -2 5 59 c5 58 6 60 37 68 84 22 87 143 5 230 -27 29 -85 54 -102 43
-6 -4 -26 7 -46 24 -28 25 -44 31 -79 31 -39 0 -50 -5 -84 -40z m136 -29 c17
-11 34 -29 37 -39 9 -28 38 -37 52 -17 11 15 15 15 43 -6 35 -26 54 -66 49
-105 -3 -27 -7 -30 -61 -38 -53 -8 -58 -10 -52 -30 3 -11 8 -37 11 -56 6 -35
6 -35 -13 -14 -10 12 -26 24 -36 27 -10 4 -24 22 -32 40 -26 62 -68 74 -80 25
-5 -20 -11 -23 -40 -20 -39 5 -58 23 -53 49 3 14 11 17 37 15 33 -4 33 -3 27
30 -4 24 0 45 14 73 11 22 20 47 20 55 0 36 29 39 77 11z"/>
<path d="M14986 5246 c-41 -38 -48 -48 -42 -70 9 -36 39 -33 65 7 11 17 28 42
37 54 15 22 14 53 -3 53 -4 0 -30 -20 -57 -44z"/>
<path d="M13320 5192 c-36 -37 -94 -93 -128 -124 -71 -62 -76 -84 -25 -108 17
-8 61 -47 97 -87 73 -78 152 -131 170 -113 7 7 10 45 8 99 l-4 88 39 6 c21 4
50 7 64 7 37 0 47 37 13 50 -13 5 -31 7 -39 4 -8 -4 -30 -3 -49 0 -33 6 -33 7
-39 76 -3 41 -1 81 6 99 9 25 8 33 -8 50 -10 12 -23 21 -29 21 -6 0 -40 -31
-76 -68z"/>
<path d="M9588 5116 c-36 -31 -69 -64 -72 -72 -17 -45 4 -111 45 -141 10 -7
20 -34 24 -63 9 -69 48 -110 102 -110 48 0 71 22 80 74 3 20 10 36 15 36 22 0
81 35 95 56 21 32 3 83 -46 127 -20 18 -41 48 -47 67 -11 40 -47 68 -95 76
-32 5 -41 1 -101 -50z m149 -22 c3 -9 -5 -26 -21 -43 -43 -45 -29 -74 24 -47
29 14 32 13 60 -11 64 -53 23 -116 -50 -78 -25 13 -38 14 -55 7 -19 -9 -24 -7
-28 9 -3 13 -14 19 -31 19 -29 0 -45 25 -27 43 6 6 11 19 11 29 0 10 6 18 13
18 7 0 28 16 47 35 38 39 48 42 57 19z m-33 -230 c17 -17 21 -50 7 -58 -8 -5
-41 51 -41 68 0 11 19 6 34 -10z"/>
<path d="M14768 5069 c-41 -27 -46 -34 -37 -50 13 -26 32 -24 80 8 29 19 39
32 37 47 -4 31 -28 30 -80 -5z"/>
<path d="M14585 5010 c-11 -5 -36 -9 -56 -9 -19 -1 -44 -7 -54 -15 -17 -12
-17 -16 -5 -31 11 -13 23 -15 64 -10 52 7 66 13 101 40 17 14 18 17 5 25 -18
12 -28 11 -55 0z"/>
<path d="M13784 4995 c-11 -29 4 -45 43 -46 21 -1 59 -3 84 -5 34 -3 50 0 59
11 19 23 4 32 -77 44 -93 14 -103 14 -109 -4z"/>
<path d="M14236 4999 c-64 -9 -80 -22 -65 -51 12 -22 36 -23 111 -2 50 14 59
20 56 38 -4 25 -20 27 -102 15z"/>
<path d="M9977 4869 c-24 -14 -47 -62 -47 -99 0 -26 -6 -33 -47 -53 -63 -29
-79 -58 -64 -115 9 -32 21 -48 51 -67 22 -14 53 -25 69 -25 19 0 40 -10 55
-25 36 -36 97 -35 125 1 12 15 21 37 21 50 0 19 5 24 24 24 12 0 35 11 50 25
38 35 35 76 -11 136 -21 26 -49 67 -63 89 -14 23 -37 48 -52 56 -31 16 -85 18
-111 3z m112 -61 c18 -19 31 -42 31 -57 0 -18 11 -35 35 -54 55 -44 47 -85
-15 -79 -37 4 -60 -9 -60 -33 0 -13 5 -27 10 -30 7 -4 6 -13 -1 -26 -10 -20
-12 -19 -35 12 -13 18 -24 43 -24 55 0 29 -28 39 -51 18 -10 -9 -30 -14 -46
-12 -26 3 -28 6 -25 38 5 46 13 53 64 54 l43 1 0 50 c0 48 17 95 34 95 5 0 23
-14 40 -32z"/>
<path d="M9896 4394 c-28 -8 -58 -22 -69 -32 -16 -17 -17 -26 -8 -78 5 -32 13
-203 17 -379 4 -176 8 -360 9 -410 2 -49 6 -133 10 -186 4 -53 4 -126 1 -162
l-7 -64 -107 -5 c-127 -5 -156 -16 -145 -56 12 -40 7 -407 -6 -552 -17 -187
-20 -221 -31 -390 -6 -85 -15 -191 -21 -235 -17 -134 -13 -826 5 -895 4 -14
11 -104 16 -200 5 -96 13 -200 19 -230 9 -44 8 -57 -4 -70 -20 -22 -19 -33 3
-53 16 -14 27 -15 78 -6 119 20 336 35 417 27 45 -4 161 -7 257 -7 96 0 213
-4 260 -9 47 -6 94 -10 105 -10 31 -1 99 -9 225 -28 125 -18 359 -15 413 5 18
7 158 11 385 12 196 0 393 4 437 10 165 18 590 26 766 14 59 -4 78 -2 82 8 3
7 1 90 -4 183 -6 93 -12 353 -15 577 -3 225 -9 439 -14 475 -4 37 -9 363 -9
726 0 362 -3 661 -6 665 -4 3 -475 5 -1048 3 -1122 -4 -1123 -4 -1362 2 -88 3
-179 5 -202 5 -39 1 -44 4 -60 39 -15 33 -17 80 -16 422 1 212 1 477 1 590 0
113 0 219 1 237 0 17 -6 38 -13 46 -29 28 -266 35 -360 11z m221 -55 c43 -6
82 -15 88 -20 10 -10 9 -934 -1 -951 -11 -17 -3 -196 10 -247 l15 -53 -102 7
c-56 3 -106 11 -112 17 -7 7 -3 8 11 4 11 -3 29 0 40 8 18 14 17 16 -21 50
l-40 35 33 -6 c27 -5 32 -3 32 15 0 11 -10 27 -22 35 -18 13 -19 16 -7 16 22
1 32 28 16 41 -7 5 -23 19 -37 30 l-25 20 25 -3 c21 -2 26 3 28 26 3 22 -1 27
-20 28 l-23 0 23 12 c18 8 22 16 17 31 -8 24 -8 35 -2 93 3 31 0 43 -11 48
-12 4 -13 8 -4 17 19 19 15 58 -6 58 -11 0 -27 9 -38 21 -18 20 -18 20 9 14
19 -5 27 -3 28 6 0 8 2 25 4 39 16 110 15 119 -16 135 -16 9 -45 29 -64 46
-20 18 -41 29 -50 25 -11 -4 -15 2 -15 20 0 26 0 26 28 9 15 -10 38 -28 52
-40 24 -22 41 -29 68 -26 14 1 17 41 3 41 -5 0 -22 11 -38 24 -16 13 -47 34
-71 46 -32 17 -42 28 -42 47 0 21 4 23 23 18 12 -4 36 -22 52 -41 18 -21 39
-34 54 -34 21 0 23 3 17 33 -4 17 -11 34 -17 35 -6 3 -5 9 3 19 10 12 8 18
-12 34 -14 10 -19 19 -12 19 21 0 25 30 7 50 -16 18 -16 20 -1 26 9 3 16 17
16 30 0 13 5 24 10 24 18 0 11 33 -12 57 l-21 23 26 0 c14 0 61 -5 104 -11z
m-181 -25 c19 -9 34 -20 34 -25 0 -13 -13 -11 -37 6 -12 8 -28 12 -37 9 -11
-4 -16 -1 -16 10 0 20 13 20 56 0z m-15 -134 l24 -20 -25 3 c-24 2 -40 14 -40
30 0 13 17 8 41 -13z m-21 -311 c0 -11 5 -30 11 -41 9 -16 7 -24 -5 -36 -15
-15 -16 -13 -16 25 0 23 -3 48 -6 57 -3 9 -1 16 5 16 6 0 11 -9 11 -21z m40
-148 c0 -9 -36 -8 -46 1 -3 4 -3 11 1 17 7 12 45 -3 45 -18z m-17 -93 c-8 -43
-23 -33 -23 14 0 37 2 40 14 28 9 -9 12 -26 9 -42z m64 -504 c-9 -10 -66 47
-67 66 0 9 15 0 37 -22 20 -21 34 -40 30 -44z m208 -128 c220 -27 306 -29
1732 -24 l982 3 0 -277 0 -278 -58 6 c-47 5 -59 4 -64 -9 -9 -23 14 -37 72
-44 l51 -6 0 -58 c0 -33 -2 -59 -4 -59 -2 0 -20 7 -39 15 -47 19 -86 19 -94
-1 -9 -23 16 -41 77 -56 l55 -13 3 -84 c3 -83 3 -84 -20 -76 -64 19 -68 19
-68 -9 0 -21 8 -29 40 -42 35 -14 40 -20 40 -48 0 -17 3 -41 6 -53 8 -31 -11
-29 -38 2 -26 30 -54 32 -63 6 -4 -14 8 -32 50 -72 51 -48 55 -55 55 -96 l0
-45 -47 36 c-79 60 -99 69 -117 51 -21 -22 -12 -38 37 -65 23 -13 56 -34 74
-47 18 -13 38 -22 45 -21 16 4 29 -357 23 -652 -3 -107 -1 -263 3 -346 l7
-151 -60 4 c-33 2 -96 4 -140 6 l-80 2 0 165 c0 184 -48 686 -67 705 -3 3 -18
5 -34 5 -16 0 -132 1 -259 2 -401 2 -557 1 -668 -4 -137 -7 -142 -12 -127
-120 13 -93 29 -498 25 -643 -3 -139 -10 -155 -73 -155 -26 0 -76 -6 -112 -14
-94 -19 -307 -20 -414 -1 -162 29 -442 55 -598 55 -84 1 -207 2 -273 3 -66 1
-180 -4 -254 -11 -117 -11 -136 -11 -149 2 -10 10 -18 49 -24 113 -5 54 -13
145 -18 203 -11 122 -33 726 -31 850 2 79 8 158 31 415 42 456 51 601 55 805
2 80 3 146 4 147 4 9 414 -7 526 -21z m1819 -1710 c3 -11 6 -30 6 -41 0 -19
-1 -18 -15 2 -15 21 -20 21 -182 17 -92 -2 -175 -6 -185 -10 -25 -8 -32 -47
-15 -81 10 -18 17 -66 19 -131 3 -91 1 -102 -14 -102 -20 0 -34 -38 -19 -53
13 -13 326 -20 381 -9 25 6 36 14 41 32 10 41 17 6 23 -125 3 -66 9 -166 12
-222 6 -85 4 -103 -7 -103 -8 -1 -119 -2 -247 -3 l-234 -2 -4 340 c-2 192 -9
369 -15 407 -7 36 -9 73 -6 81 7 20 50 24 279 24 172 1 176 0 182 -21z m291
13 c119 -1 149 -3 116 -10 -24 -4 -49 -13 -56 -19 -13 -11 -159 -7 -189 5 -28
12 -51 -8 -48 -41 1 -16 4 -97 5 -181 1 -87 6 -156 12 -162 14 -14 59 -15 135
-1 36 7 111 12 167 12 122 0 132 6 109 70 -8 24 -22 61 -30 83 -7 22 -17 78
-21 125 -5 54 -13 91 -23 103 -14 16 -13 17 21 17 21 0 37 -3 37 -7 0 -5 5
-37 10 -73 5 -36 11 -96 14 -135 3 -38 10 -124 16 -190 5 -66 10 -184 10 -261
l0 -142 -73 -7 c-41 -3 -140 -8 -220 -10 -80 -2 -151 -6 -157 -10 -6 -4 -10
10 -11 37 -1 24 -3 52 -4 63 -2 11 -6 81 -9 155 -4 74 -11 171 -16 215 -5 44
-12 139 -15 212 -3 72 -8 140 -12 149 -6 15 -1 16 33 11 21 -4 111 -7 199 -8z
m-271 -243 c6 -118 -5 -130 -23 -25 -13 75 -14 149 -4 175 11 29 20 -24 27
-150z m-248 128 c0 -9 17 -25 42 -39 24 -13 51 -31 60 -39 10 -9 27 -24 38
-34 25 -19 41 -92 21 -92 -20 0 -85 58 -118 106 -32 47 -58 56 -66 24 -3 -11
-13 -20 -22 -20 -9 0 -22 -5 -29 -12 -16 -16 -18 -11 -25 54 -6 63 -5 63 69
67 23 1 31 -3 30 -15z m148 0 c3 -9 6 -27 6 -41 l0 -25 -35 33 c-18 18 -32 36
-29 41 9 14 52 9 58 -8z m380 -10 c8 -31 72 -97 86 -89 15 9 12 19 -15 59 -29
43 -26 56 15 56 36 0 37 -2 51 -86 25 -152 25 -143 -13 -140 -18 2 -70 -3
-116 -9 -45 -7 -93 -10 -107 -7 -24 4 -24 4 -22 123 l1 119 57 0 c53 0 57 -2
63 -26z m-451 -218 c15 -1 26 -5 25 -11 -3 -9 -44 -11 -150 -7 l-38 2 0 55 0
55 68 -46 c37 -26 79 -47 95 -48z"/>
<path d="M9918 2839 c-23 -13 -23 -28 3 -55 18 -19 21 -38 26 -180 4 -126 8
-162 20 -171 22 -17 57 2 47 25 -4 9 -10 43 -12 76 l-4 59 89 -7 c76 -6 92 -5
103 9 22 27 -6 41 -103 52 -48 6 -90 12 -91 14 -2 2 -6 29 -7 59 l-4 55 93 -4
94 -3 -4 28 c-3 27 -7 29 -58 35 -133 16 -176 17 -192 8z"/>
<path d="M11850 2773 c0 -60 18 -111 41 -118 32 -10 43 8 30 46 -6 17 -11 47
-11 64 0 32 -13 45 -46 45 -10 0 -14 -12 -14 -37z"/>
<path d="M12181 2796 c-6 -7 -14 -33 -17 -59 -6 -38 -4 -47 13 -56 27 -14 43
3 43 45 0 18 5 36 10 39 6 3 10 15 10 26 0 23 -41 27 -59 5z"/>
<path d="M11711 2791 c-30 -19 8 -141 45 -141 24 0 27 26 7 86 -19 60 -28 70
-52 55z"/>
<path d="M12020 2742 c0 -47 4 -63 21 -78 27 -24 38 -7 37 61 -1 55 -11 75
-39 75 -16 0 -19 -8 -19 -58z"/>
<path d="M12350 2759 c-26 -50 -23 -83 8 -87 15 -2 22 2 22 13 0 9 9 34 20 56
22 43 20 59 -10 59 -13 0 -27 -14 -40 -41z"/>
<path d="M12513 2788 c-17 -21 -34 -91 -24 -101 27 -27 57 13 64 88 2 23 -25
32 -40 13z"/>
<path d="M11562 2774 c-16 -28 44 -154 73 -154 33 0 33 26 -2 98 -35 72 -54
87 -71 56z"/>
<path d="M12607 2759 c-32 -25 -61 -75 -53 -95 10 -26 41 -15 61 22 10 19 27
40 37 45 22 12 23 35 2 43 -19 7 -14 9 -47 -15z"/>
<path d="M12770 2741 c0 -5 -20 -30 -45 -55 -27 -29 -42 -52 -39 -61 13 -34
63 -11 95 42 12 21 29 43 37 50 7 6 11 16 7 22 -8 13 -55 15 -55 2z"/>
<path d="M11365 2716 c-16 -12 -17 -16 -6 -30 7 -9 20 -16 27 -16 8 0 33 -17
57 -38 52 -48 76 -57 84 -35 5 12 -11 33 -57 75 -67 62 -76 66 -105 44z"/>
<path d="M10283 2632 c-53 -36 -119 -96 -133 -121 -14 -27 2 -58 37 -72 21 -8
33 -5 67 17 23 15 45 34 50 41 6 12 12 8 28 -19 27 -44 22 -41 73 -44 48 -3
47 -3 60 68 7 44 17 53 45 38 15 -8 20 -21 20 -53 0 -54 9 -67 45 -66 17 0 58
-3 93 -7 l62 -6 0 32 c0 24 -4 31 -15 26 -21 -8 -75 13 -75 30 0 7 16 26 36
41 20 15 45 35 56 43 17 13 18 18 6 27 -11 9 -25 7 -64 -12 -27 -13 -58 -33
-68 -44 -17 -19 -18 -19 -57 20 -21 21 -48 39 -58 39 -35 0 -72 -41 -78 -88
-6 -43 -14 -51 -30 -29 -14 18 -33 90 -33 125 0 41 -20 45 -67 14z"/>
<path d="M10942 2579 c-12 -5 -30 -22 -40 -39 -21 -38 -27 -38 -41 1 -7 21
-16 30 -28 27 -25 -4 -28 -40 -7 -83 16 -34 16 -39 1 -69 -8 -18 -36 -59 -62
-90 -46 -57 -52 -86 -19 -86 9 0 23 8 31 18 38 47 113 163 136 209 15 28 36
59 49 67 16 12 19 20 12 35 -7 15 -14 17 -32 10z"/>
<path d="M12777 2564 c-52 -16 -70 -40 -44 -59 13 -9 29 -8 77 8 51 17 61 23
58 41 -4 27 -29 29 -91 10z"/>
<path d="M11499 2544 c-7 -9 -9 -33 -4 -70 l7 -56 -23 21 c-31 29 -100 61
-131 61 -29 0 -53 -23 -45 -43 3 -8 25 -17 48 -21 24 -4 58 -16 76 -27 24 -15
37 -18 51 -10 18 10 20 4 31 -82 18 -155 26 -287 23 -392 -3 -93 -2 -102 21
-129 l24 -30 99 17 c54 9 113 16 129 16 123 -3 545 1 679 5 49 1 107 -1 130
-6 104 -22 113 -22 125 1 9 16 9 42 1 100 -6 43 -10 96 -9 117 1 22 -1 68 -5
104 -6 59 -14 114 -48 328 -13 86 -22 94 -111 92 -134 -3 -174 -2 -227 4 -30
3 -90 3 -132 -2 -54 -5 -87 -4 -112 5 -25 8 -72 10 -154 6 -64 -3 -126 -5
-137 -5 -11 0 -82 2 -157 5 -109 4 -140 2 -149 -9z m824 -67 c119 -2 220 -6
223 -9 7 -8 -117 -116 -167 -146 -23 -14 -50 -33 -60 -43 -62 -62 -169 -82
-216 -40 -25 21 -44 32 -208 117 -77 39 -160 83 -184 95 l-44 24 99 6 c55 4
153 5 219 3 66 -2 218 -5 338 -7z m-688 -51 c17 -14 49 -34 71 -47 101 -57
212 -116 244 -129 19 -8 56 -29 81 -47 26 -18 66 -42 91 -53 41 -18 48 -18 93
-4 27 8 69 32 95 53 25 21 61 46 80 56 43 22 119 84 176 145 24 24 45 42 48
39 3 -3 11 -41 17 -85 6 -43 15 -97 21 -119 12 -46 23 -312 15 -347 -6 -23 -8
-23 -79 -17 -40 4 -152 4 -248 2 -96 -3 -179 -5 -185 -4 -5 1 -104 3 -218 5
-115 2 -233 7 -263 11 l-54 6 -2 82 c-1 45 -1 95 0 112 2 16 -4 92 -13 168
-16 153 -18 197 -8 197 3 0 20 -11 38 -24z"/>
<path d="M11303 2334 c-3 -8 -1 -20 6 -27 17 -17 102 -47 134 -47 22 0 27 4
27 24 0 21 -9 28 -55 45 -66 25 -103 27 -112 5z"/>
<path d="M11345 2203 c-29 -7 -45 -23 -45 -43 0 -10 6 -20 13 -22 23 -9 159 0
169 10 35 35 -61 73 -137 55z"/>
<path d="M10846 2178 c-18 -25 -20 -66 -7 -118 21 -83 22 -100 2 -100 -10 0
-30 -9 -45 -21 -32 -25 -36 -79 -7 -108 58 -58 96 -62 159 -15 58 45 37 77
-29 43 -34 -17 -47 -19 -65 -10 -13 6 -24 18 -24 27 0 14 7 15 39 10 50 -8 69
11 53 51 -16 42 -32 131 -35 197 -2 65 -16 80 -41 44z"/>
<path d="M10120 2153 c-43 -13 -120 -49 -157 -75 -50 -34 -96 -107 -95 -150 2
-64 66 -118 142 -118 58 0 153 53 158 88 2 12 2 22 0 22 -2 0 -30 -11 -63 -25
-78 -32 -115 -32 -154 1 -37 31 -39 50 -8 94 23 33 144 105 188 112 15 2 25
11 27 24 3 23 -13 34 -38 27z"/>
<path d="M10204 2135 c-3 -14 -1 -59 5 -101 6 -41 11 -97 11 -124 0 -64 7 -80
37 -80 23 0 24 3 19 38 -3 20 -8 62 -11 92 -17 173 -43 246 -61 175z"/>
<path d="M11342 2038 c-37 -37 1 -56 93 -49 58 5 70 9 73 25 2 10 -2 22 -10
27 -20 13 -142 11 -156 -3z"/>
<path d="M10347 1988 c-40 -31 -47 -105 -13 -144 22 -27 25 -27 65 -16 75 23
90 85 33 145 -28 29 -58 34 -85 15z m58 -79 c0 -15 -7 -25 -18 -27 -22 -4 -33
24 -17 43 18 21 35 13 35 -16z"/>
<path d="M10616 1975 c-13 -14 -29 -39 -36 -56 -18 -43 -35 -30 -33 25 3 40 0
46 -17 46 -45 0 -57 -104 -15 -145 13 -14 30 -25 37 -25 20 1 54 32 70 64 l15
29 33 -47 c34 -47 58 -57 79 -33 8 11 5 19 -13 36 -13 12 -36 46 -51 76 -15
30 -32 55 -37 55 -5 0 -19 -11 -32 -25z"/>
<path d="M11430 1934 c-25 -12 -61 -24 -80 -26 -26 -3 -36 -10 -38 -24 -5 -36
22 -49 71 -35 96 29 158 87 111 105 -9 3 -16 5 -17 5 -1 -1 -22 -12 -47 -25z"/>
<path d="M11446 1741 c-51 -52 -57 -71 -23 -71 26 0 97 67 97 92 0 33 -29 25
-74 -21z"/>
<path d="M12474 1765 c-9 -22 4 -126 17 -141 14 -17 39 -18 40 -1 3 43 -4 124
-12 139 -12 22 -37 24 -45 3z"/>
<path d="M12072 1748 c-20 -20 -15 -105 8 -128 33 -33 40 -24 40 54 0 58 -3
75 -16 80 -20 8 -18 8 -32 -6z"/>
<path d="M11757 1672 c-41 -86 -43 -97 -24 -105 21 -8 32 3 66 71 34 66 37
105 10 110 -11 2 -27 -21 -52 -76z"/>
<path d="M11917 1681 c-31 -68 -34 -106 -10 -115 21 -9 28 -1 48 59 9 27 21
55 26 62 13 14 -5 53 -24 53 -7 0 -25 -27 -40 -59z"/>
<path d="M12354 1728 c-10 -16 -6 -76 7 -100 6 -12 19 -18 32 -16 20 3 22 8
18 58 -1 30 -5 58 -8 63 -7 11 -41 8 -49 -5z"/>
<path d="M12585 1721 c-4 -12 3 -35 17 -58 13 -21 28 -47 34 -58 15 -28 51
-32 59 -6 10 33 -65 141 -99 141 -2 0 -7 -9 -11 -19z"/>
<path d="M11596 1699 c-44 -52 -46 -99 -6 -99 12 0 25 12 35 33 8 17 20 39 26
48 15 19 5 49 -15 49 -8 0 -26 -14 -40 -31z"/>
<path d="M12211 1721 c-26 -17 -6 -123 26 -135 26 -10 34 7 27 58 -8 55 -32
90 -53 77z"/>
<path d="M10812 1601 c-15 -9 -13 -63 8 -231 14 -110 27 -145 55 -145 24 0 24
5 1 165 -9 63 -16 139 -16 168 0 43 -3 52 -17 52 -10 0 -24 -4 -31 -9z"/>
<path d="M9940 1559 c-8 -5 -28 -14 -43 -19 -33 -12 -31 -30 3 -47 30 -15 32
-25 34 -148 l1 -100 35 -18 c27 -14 50 -17 102 -13 77 5 111 20 106 44 -3 12
-12 16 -33 14 -17 -2 -58 -1 -92 3 -63 7 -63 7 -63 39 l0 32 72 2 c79 2 98 12
98 49 0 21 -4 24 -22 20 -54 -14 -109 -19 -133 -13 -21 5 -25 12 -25 45 l0 38
77 9 c55 7 79 14 87 27 17 28 -10 37 -85 30 -37 -3 -74 -1 -85 5 -11 6 -25 6
-34 1z"/>
<path d="M10704 1479 c-19 -21 -19 -21 5 -40 29 -24 44 -13 39 27 -4 35 -19
40 -44 13z"/>
<path d="M10225 1401 c-29 -17 -30 -20 -27 -77 4 -79 10 -94 33 -94 26 0 34
22 38 103 1 31 21 28 21 -4 0 -11 11 -24 25 -31 20 -9 28 -8 44 6 26 24 35 16
57 -44 17 -47 25 -56 49 -50 6 2 27 2 48 1 31 -2 42 4 64 29 l26 32 22 -27
c11 -15 32 -29 45 -30 14 -2 32 -6 41 -10 28 -11 44 20 30 64 -6 21 -11 48
-11 60 0 30 -29 39 -47 15 -9 -12 -12 -31 -8 -51 3 -18 4 -33 1 -33 -8 0 -46
81 -46 101 0 45 -61 28 -124 -36 -19 -18 -37 -31 -40 -27 -4 3 -15 26 -26 49
-23 53 -61 74 -88 50 -18 -16 -20 -16 -37 3 -22 24 -50 24 -90 1z"/>
<path d="M10031 956 c-40 -13 -137 -103 -151 -141 -14 -38 -12 -101 5 -134 17
-34 70 -61 118 -61 19 0 67 11 107 24 l73 23 29 -33 c69 -79 176 -9 148 96
-12 44 -59 80 -104 80 -30 0 -86 -48 -86 -73 0 -18 -39 -34 -113 -45 -74 -12
-104 -5 -124 25 -13 20 -14 30 -4 61 20 65 71 107 143 118 57 9 78 21 78 43 0
32 -51 39 -119 17z m253 -216 c30 -11 36 -50 11 -70 -23 -19 -80 52 -58 73 9
9 17 9 47 -3z"/>
<path d="M10470 685 c-17 -21 -4 -69 16 -61 9 3 20 6 25 6 13 0 11 44 -3 58
-16 16 -23 15 -38 -3z"/>
<path d="M11948 773 c-27 -32 -28 -50 -3 -73 35 -33 77 -24 89 18 7 26 5 36
-9 52 -22 25 -57 26 -77 3z"/>
<path d="M12176 740 c-21 -26 -24 -34 -14 -50 19 -30 69 -32 97 -5 21 21 23
27 12 52 -17 42 -61 43 -95 3z"/>
<path d="M12217 1173 c-4 -3 -7 -12 -7 -18 0 -24 140 -170 163 -170 30 0 13
39 -47 106 -36 41 -66 77 -66 82 0 9 -34 9 -43 0z"/>
<path d="M11791 4116 c-9 -10 -10 -50 -6 -138 14 -287 24 -466 30 -504 8 -58
-10 -74 -85 -74 -51 0 -63 -4 -84 -26 -20 -22 -22 -30 -13 -45 7 -11 17 -19
23 -19 16 0 76 -68 103 -116 12 -22 37 -50 56 -62 40 -28 58 -22 101 35 16 21
43 53 60 72 51 55 69 76 70 81 0 3 4 13 8 22 12 27 2 53 -19 51 -23 -2 -147
16 -154 23 -2 2 -5 23 -7 47 -1 23 -5 92 -8 152 -3 61 -8 155 -11 210 -3 55
-8 141 -11 190 -7 107 -23 137 -53 101z"/>
</g>
</svg>
