<?xml version="1.0" standalone="no"?>
<!DOCTYPE svg PUBLIC "-//W3C//DTD SVG 20010904//EN"
 "http://www.w3.org/TR/2001/REC-SVG-20010904/DTD/svg10.dtd">
<svg version="1.0" xmlns="http://www.w3.org/2000/svg"
 width="888.770389pt" height="400.000000pt" viewBox="0 0 888.770389 400.000000"
 preserveAspectRatio="xMidYMid meet">
<metadata>
Created by potrace 1.15, written by Peter Selinger 2001-2017
</metadata>
<g transform="translate(-16.653809,424.321602) scale(0.053958,-0.053958)"
fill="#444444" stroke="none">
<path d="M12495 7859 c-33 -5 -123 -11 -200 -13 -321 -12 -371 -17 -439 -44
-63 -25 -113 -65 -133 -107 -14 -29 -14 -45 -5 -102 6 -38 7 -89 3 -115 -5
-28 -2 -91 6 -155 25 -199 29 -256 37 -518 2 -88 5 -164 7 -170 2 -9 -3 -48
-17 -135 -2 -14 -6 -73 -10 -132 l-5 -107 37 -75 c20 -42 40 -76 45 -76 5 0 9
-5 9 -11 0 -24 117 -125 161 -139 24 -7 49 -17 54 -20 6 -4 30 -10 55 -14 25
-4 59 -9 75 -12 17 -3 145 -6 285 -7 222 -3 263 -1 320 15 36 10 73 20 84 23
10 2 23 8 30 14 6 5 33 12 59 16 55 8 108 41 155 96 28 32 36 36 60 30 57 -15
58 -13 58 142 2 177 11 383 24 507 6 52 12 136 16 185 3 50 7 97 10 105 5 13
18 433 17 527 0 24 -7 53 -15 65 -8 13 -18 36 -22 51 -4 19 -24 38 -60 62 -53
34 -159 75 -194 75 -10 0 -23 5 -30 12 -7 7 -74 15 -179 20 -93 5 -184 10
-203 11 -19 2 -62 0 -95 -4z m325 -103 c67 -2 114 -10 160 -26 36 -13 72 -26
80 -28 100 -33 105 -36 108 -70 5 -47 -43 -103 -121 -141 -183 -88 -272 -98
-484 -56 -88 18 -147 25 -171 20 -82 -14 -141 -16 -207 -6 -168 26 -229 40
-285 64 -34 15 -80 58 -80 74 0 7 -4 13 -9 13 -5 0 -12 12 -15 26 -12 45 48
92 134 109 54 10 110 14 300 21 96 3 176 7 177 8 3 3 274 -3 413 -8z m394
-308 c-2 -35 -5 -126 -8 -203 -3 -77 -11 -205 -17 -285 -7 -80 -12 -154 -12
-165 0 -11 -5 -58 -12 -105 -7 -47 -11 -116 -9 -154 2 -38 1 -73 -2 -78 -3 -5
-8 -52 -10 -106 -3 -53 -7 -108 -9 -121 -5 -27 -62 -91 -81 -91 -6 0 -19 -10
-27 -23 -10 -16 -36 -29 -78 -41 -35 -9 -84 -24 -109 -33 -25 -8 -65 -17 -90
-19 -25 -2 -67 -6 -95 -9 -79 -8 -85 -9 -173 -7 -53 1 -81 6 -77 12 3 6 1 10
-4 10 -6 0 -11 -4 -11 -10 0 -11 -182 -11 -225 0 -187 51 -240 78 -274 139
-54 99 -53 92 -45 259 14 316 4 595 -30 817 -7 44 -14 115 -15 159 l-2 79 43
-36 c38 -30 52 -36 118 -42 41 -4 107 -13 145 -22 95 -19 346 -28 375 -13 17
9 37 9 89 -4 167 -38 240 -45 311 -27 96 25 290 126 313 163 20 31 25 20 21
-44z"/>
<path d="M12099 7113 c-24 -8 -54 -24 -66 -36 l-23 -20 21 -33 c18 -29 21 -56
26 -197 5 -147 4 -164 -12 -180 -26 -27 -17 -118 16 -153 104 -111 263 -47
327 131 41 116 36 196 -21 315 -38 78 -68 113 -124 146 -64 38 -93 44 -144 27z
m102 -103 c52 -27 88 -69 117 -137 30 -72 31 -141 3 -218 -27 -74 -46 -97
-100 -124 -44 -23 -72 -21 -103 7 -16 13 -16 16 -3 26 16 12 20 98 16 341 -1
61 -2 113 -2 118 1 13 31 8 72 -13z"/>
<path d="M12661 7123 c-69 -13 -138 -92 -99 -114 11 -6 16 -26 16 -71 0 -35 4
-140 7 -234 7 -167 7 -173 -15 -202 -20 -27 -21 -33 -9 -65 8 -24 19 -35 33
-36 12 0 63 -3 114 -7 121 -9 179 9 249 74 55 51 80 109 68 161 -8 35 -56 82
-134 130 l-60 38 38 29 c32 24 41 38 49 79 14 68 -8 116 -76 164 -34 24 -128
62 -147 60 -5 -1 -21 -4 -34 -6z m69 -96 c78 -28 114 -64 104 -105 -13 -49
-150 -90 -174 -52 -13 20 -13 117 0 125 6 3 10 15 10 26 0 22 12 23 60 6z m42
-304 c131 -48 190 -100 173 -151 -9 -29 -80 -71 -146 -87 -111 -26 -149 -16
-124 32 13 25 9 63 -6 63 -5 0 -9 38 -8 85 1 100 -1 99 111 58z"/>
<path d="M10697 6750 c-14 -11 -29 -20 -35 -20 -5 0 -24 -14 -42 -31 -29 -28
-31 -35 -23 -63 5 -21 19 -36 40 -46 18 -8 40 -30 48 -47 9 -18 20 -33 24 -33
5 0 14 -13 21 -30 7 -16 16 -30 20 -30 7 0 33 -51 28 -55 -4 -2 -126 -68 -228
-123 -41 -22 -94 -45 -117 -52 -24 -7 -43 -17 -43 -22 0 -4 -8 -8 -17 -8 -10
0 -29 -9 -43 -20 -14 -11 -31 -20 -37 -20 -7 0 -45 -17 -85 -38 -40 -21 -101
-46 -135 -57 -35 -11 -63 -23 -63 -27 0 -5 -7 -8 -15 -8 -14 0 -101 -45 -120
-61 -5 -5 -15 -9 -23 -9 -8 0 -67 -27 -133 -59 -65 -33 -135 -63 -156 -67 -21
-4 -47 -13 -58 -19 -11 -7 -37 -18 -57 -24 -20 -7 -42 -19 -48 -27 -7 -7 -19
-14 -27 -14 -8 0 -29 -11 -47 -25 -18 -14 -40 -25 -48 -25 -9 0 -18 -7 -22
-15 -3 -8 -11 -15 -18 -15 -6 0 -30 -8 -52 -19 -132 -60 -158 -71 -169 -71 -6
0 -21 -7 -31 -15 -11 -8 -27 -15 -36 -15 -9 0 -25 -8 -34 -19 -21 -23 -12 -71
13 -71 21 0 111 27 125 38 6 5 31 14 56 21 24 7 110 46 191 87 80 41 158 74
172 74 14 0 28 4 32 9 8 14 66 41 75 36 5 -3 10 -2 12 3 6 14 91 59 183 97 50
21 135 59 190 85 55 27 111 51 125 55 14 4 45 18 70 31 25 13 49 24 54 24 5 0
32 11 60 24 28 13 83 38 121 55 112 51 118 54 160 82 22 14 72 41 110 59 39
18 77 36 85 41 57 33 70 38 82 34 7 -3 43 -49 78 -103 36 -53 75 -105 88 -115
12 -10 22 -24 22 -30 0 -7 12 -25 26 -40 29 -34 47 -30 72 12 9 17 24 32 34
34 10 3 21 22 28 47 10 39 47 119 59 130 4 3 14 22 23 43 10 21 25 40 33 43 9
4 13 13 10 23 -6 21 120 228 149 243 30 16 35 27 24 58 -13 39 -90 64 -167 55
-31 -3 -114 -8 -186 -10 -111 -3 -139 0 -190 17 -33 12 -79 21 -102 20 -24 0
-45 4 -48 8 -3 5 -12 7 -20 4 -8 -4 -18 1 -21 10 -8 21 -16 20 -47 -4z"/>
<path d="M5069 5895 c-3 -2 -32 -5 -65 -5 -32 -1 -80 -6 -106 -13 -52 -12 -51
-5 -28 -102 17 -72 12 -271 -15 -555 -2 -19 -6 -66 -9 -105 -3 -38 -11 -115
-17 -170 -14 -121 -15 -140 -23 -280 -7 -133 -19 -584 -17 -675 1 -55 -2 -67
-21 -81 -25 -19 -27 -35 -28 -226 0 -88 -5 -153 -12 -169 -10 -21 -10 -28 2
-38 8 -6 20 -20 26 -31 12 -22 37 -30 62 -20 16 7 170 8 512 3 85 -1 178 2
205 6 105 15 254 22 650 32 149 3 272 7 273 9 2 2 25 -3 50 -10 26 -7 89 -14
140 -14 52 -1 97 -3 101 -6 5 -2 104 -5 222 -6 118 -1 219 -6 225 -11 7 -5 22
-4 38 2 19 7 42 6 74 -1 26 -6 79 -9 117 -8 142 5 542 -3 595 -11 30 -5 71
-12 90 -15 19 -3 73 -13 120 -21 47 -9 99 -18 115 -20 48 -6 127 -21 169 -32
65 -17 65 -16 65 141 1 78 2 228 4 332 2 105 1 195 -3 200 -7 10 -16 162 -25
440 -3 83 -10 197 -15 255 -5 58 -12 146 -15 195 -3 50 -10 104 -16 120 -12
41 -18 123 -24 330 -3 94 -7 193 -9 220 -4 59 -27 146 -41 160 -18 17 -78 33
-150 40 -38 3 -126 13 -195 21 -73 10 -191 15 -285 15 -485 -5 -1222 6 -1310
18 -44 7 -170 14 -280 17 -221 6 -233 7 -390 22 -60 7 -171 16 -245 22 -74 6
-166 15 -205 20 -74 9 -298 13 -306 5z m296 -105 c22 0 53 -4 70 -10 16 -5 80
-12 140 -15 61 -3 126 -8 145 -10 41 -5 381 -22 595 -30 83 -3 173 -10 200
-15 45 -9 410 -14 560 -8 33 1 92 1 130 -1 39 -2 216 -3 395 -2 181 1 376 -4
440 -10 63 -6 131 -13 150 -15 36 -3 80 -9 137 -19 59 -11 66 -37 74 -320 7
-218 15 -319 36 -440 2 -16 6 -64 9 -105 2 -41 8 -111 13 -155 5 -44 12 -174
15 -290 2 -115 7 -217 10 -225 10 -30 17 -332 11 -495 -2 -55 -4 -116 -5 -136
0 -46 -21 -75 -46 -64 -10 4 -33 9 -50 11 -60 5 -250 35 -344 54 -77 15 -160
20 -439 24 -189 4 -348 9 -354 13 -6 3 -117 7 -246 9 -130 1 -312 10 -406 18
-196 18 -211 19 -285 7 -30 -5 -156 -9 -279 -10 -122 0 -251 -5 -285 -10 -56
-9 -451 -28 -486 -24 -30 4 -237 13 -345 15 l-110 3 -3 89 c-2 66 1 93 12 105
34 38 38 86 51 631 3 140 11 302 17 360 15 153 18 196 22 280 2 41 8 93 14
115 11 42 18 121 28 295 3 58 8 121 10 140 6 53 5 158 -1 183 -14 53 54 67
280 59 44 -1 98 -2 120 -2z"/>
<path d="M5326 5518 c-10 -16 -16 -63 -20 -150 -6 -153 8 -208 73 -294 22 -31
25 -32 96 -30 70 1 76 3 110 36 20 19 46 47 57 63 26 36 48 171 37 234 -4 26
-8 67 -8 90 -1 34 -6 46 -26 59 -23 15 -27 15 -50 0 -26 -17 -27 -27 -6 -111
5 -22 8 -72 7 -111 -2 -55 -7 -77 -24 -102 -47 -65 -112 -90 -146 -57 -37 38
-52 153 -33 260 12 62 12 86 3 105 -15 34 -51 38 -70 8z"/>
<path d="M5920 5403 c-25 -8 -57 -24 -72 -34 -14 -11 -30 -19 -35 -19 -14 0
-50 -42 -58 -67 -8 -28 36 -72 109 -110 26 -13 59 -36 72 -50 23 -24 23 -27 7
-38 -52 -35 -159 -47 -169 -20 -12 30 -74 14 -74 -19 1 -39 51 -82 116 -96 27
-6 51 -3 100 14 36 13 70 28 77 35 6 6 17 11 24 11 17 0 38 79 24 93 -6 6 -11
21 -11 34 0 13 -5 23 -11 23 -6 0 -23 9 -37 21 -15 11 -49 36 -76 56 l-49 36
37 19 c21 11 65 24 99 29 75 12 77 14 77 48 0 49 -65 64 -150 34z"/>
<path d="M6233 5333 c-39 -14 -78 -51 -88 -84 -4 -11 -11 -19 -16 -19 -6 0 -7
-5 -4 -11 4 -5 1 -24 -5 -40 -18 -42 1 -94 57 -158 60 -69 111 -91 179 -77 28
6 62 19 75 28 24 17 24 18 4 33 -14 11 -35 14 -77 11 -46 -3 -63 1 -87 18 -33
23 -67 74 -56 84 3 3 27 8 53 9 119 8 198 57 182 114 -18 63 -44 85 -114 95
-48 7 -74 7 -103 -3z m88 -75 c47 -14 51 -35 7 -42 -97 -15 -118 -16 -118 -6
0 19 40 53 69 59 2 1 21 -4 42 -11z"/>
<path d="M6720 5330 c-44 -28 -83 -69 -99 -106 -6 -16 -26 -36 -44 -44 -29
-14 -32 -19 -32 -60 -1 -60 36 -180 54 -180 3 0 16 -3 27 -6 17 -5 25 1 38 27
9 18 13 36 8 41 -13 13 6 127 29 175 28 58 87 93 157 93 45 0 52 3 52 20 0 28
-37 48 -100 55 -46 5 -61 2 -90 -15z"/>
<path d="M7992 4628 c-12 -6 -26 -23 -30 -37 -12 -45 -6 -153 13 -221 9 -36
17 -73 17 -82 0 -10 3 -20 9 -23 26 -16 5 -26 -43 -20 -80 9 -147 -12 -176
-55 -21 -31 -23 -42 -17 -100 6 -56 5 -63 -8 -52 -8 7 -18 33 -21 57 -4 25
-11 47 -17 50 -5 4 -9 14 -9 24 0 10 -7 24 -15 31 -8 7 -15 21 -15 31 0 11 -6
19 -12 19 -7 0 -24 12 -37 26 -34 35 -73 25 -141 -39 -73 -70 -71 -66 -65
-122 6 -47 5 -49 -11 -30 -17 22 -54 100 -54 117 0 5 -9 23 -21 39 -11 16 -18
37 -15 46 8 26 -4 39 -41 46 -26 5 -44 0 -83 -23 -28 -17 -53 -30 -55 -30 -2
0 -21 -12 -42 -26 -51 -35 -103 -92 -103 -115 0 -33 -16 -20 -30 24 -49 149
-87 212 -124 201 -28 -8 -66 -44 -77 -71 -11 -30 -25 -29 -33 2 -3 13 -21 35
-39 49 -29 23 -37 24 -70 15 -32 -9 -41 -18 -68 -74 -27 -57 -31 -74 -30 -150
1 -93 11 -125 41 -125 45 0 48 7 49 111 2 97 13 139 37 139 20 0 43 -34 56
-83 13 -50 45 -81 73 -71 16 6 25 31 27 74 1 14 9 34 18 46 15 21 16 20 38
-25 44 -92 72 -160 72 -174 0 -20 58 -43 71 -30 7 7 23 6 50 -5 57 -22 105 -5
156 55 22 27 45 58 52 71 6 12 15 22 19 22 4 0 25 -34 46 -75 22 -42 48 -82
57 -91 27 -24 94 -30 123 -10 23 15 25 21 24 98 0 73 2 84 22 100 12 10 28 18
35 18 11 0 35 -45 40 -75 3 -17 15 -49 31 -78 7 -16 14 -37 14 -48 0 -10 9
-28 21 -40 18 -18 24 -19 51 -8 28 12 29 14 23 56 -7 47 5 56 29 22 26 -38 73
-59 135 -60 51 -1 69 4 130 37 48 26 77 49 86 68 17 34 19 50 5 41 -11 -7 -13
5 -10 43 1 13 -7 34 -18 45 -11 12 -33 51 -51 87 -39 82 -59 236 -35 284 19
40 18 63 -5 76 -23 12 -20 12 -49 -2z m-788 -455 c-12 -48 -58 -93 -95 -93
-27 0 -42 18 -31 37 8 13 113 83 124 83 5 0 5 -12 2 -27z m842 -39 c21 -15 41
-28 43 -30 9 -8 -27 -38 -65 -56 -56 -24 -127 -15 -154 20 -46 58 -15 88 91
91 35 1 56 -6 85 -25z"/>
<path d="M5465 4551 c-98 -24 -207 -103 -246 -178 -7 -15 -17 -30 -20 -33 -11
-9 -29 -73 -29 -101 0 -57 70 -148 143 -185 34 -18 167 -21 177 -4 3 4 19 12
35 16 17 4 48 20 69 35 22 16 43 29 46 29 14 0 31 -53 20 -64 -15 -15 -13 -30
8 -53 27 -31 57 -43 108 -43 104 0 184 88 169 186 -8 53 -24 94 -37 94 -5 0
-14 13 -19 30 -6 16 -19 32 -29 35 -9 3 -25 14 -35 25 -20 22 -52 26 -87 9
-31 -14 -76 -78 -83 -119 -8 -44 -12 -50 -38 -50 -12 0 -35 -7 -51 -15 -16 -9
-62 -24 -102 -35 -72 -18 -97 -17 -153 9 -15 7 -61 85 -61 105 0 14 29 77 39
86 4 3 15 18 25 33 28 44 162 101 261 110 47 5 19 77 -30 77 -13 0 -29 2 -37
4 -7 2 -26 1 -43 -3z m380 -329 c28 -43 35 -103 15 -127 -32 -38 -138 -62
-155 -35 -3 6 -1 10 6 10 18 0 49 31 49 48 0 9 -7 23 -16 33 -20 23 -12 84 14
98 35 21 61 12 87 -27z"/>
<path d="M6110 4353 c-37 -12 -60 -28 -66 -45 -3 -10 -12 -18 -20 -18 -22 0
-67 -49 -60 -66 3 -8 8 -58 12 -112 7 -111 29 -158 67 -146 32 10 38 24 30 69
-14 78 5 190 36 209 18 11 49 -31 67 -91 10 -32 28 -69 40 -82 19 -21 27 -23
46 -14 21 9 24 19 26 74 3 60 21 109 42 109 5 0 25 -15 44 -34 32 -33 70 -123
78 -186 2 -20 9 -26 36 -28 29 -3 32 -1 32 25 0 40 -49 186 -66 196 -8 4 -14
15 -14 23 0 9 -18 33 -41 55 -57 54 -93 54 -144 -2 -29 -32 -39 -38 -46 -28
-5 8 -9 17 -9 21 0 10 -61 78 -69 77 -3 0 -13 -3 -21 -6z"/>
<path d="M1024 5834 c-105 -15 -122 -21 -165 -55 -20 -16 -43 -29 -50 -30 -8
0 -25 -13 -37 -30 -18 -22 -21 -33 -13 -43 7 -9 7 -16 -1 -24 -8 -8 -9 -18 -1
-35 19 -41 12 -258 -13 -402 -3 -16 -7 -50 -10 -75 -3 -24 -7 -46 -9 -48 -4
-4 -56 -8 -153 -10 -30 -1 -51 -6 -47 -11 3 -5 -5 -13 -17 -17 -63 -19 -109
-48 -129 -82 -52 -86 -63 -109 -68 -152 -5 -38 -2 -50 19 -75 48 -58 98 -102
136 -121 21 -11 57 -29 79 -41 22 -11 52 -25 67 -31 24 -10 26 -14 18 -41 -5
-19 -5 -33 1 -37 5 -3 7 -9 5 -13 -3 -3 2 -39 9 -79 8 -40 12 -79 9 -87 -3 -7
0 -24 6 -36 7 -12 12 -44 11 -71 0 -36 3 -48 14 -48 8 0 15 -3 15 -7 0 -11 40
-62 72 -92 15 -14 54 -33 85 -44 68 -21 319 -57 404 -57 71 0 161 18 174 34 6
7 24 20 41 29 17 9 34 23 37 31 3 7 24 24 46 37 23 12 41 27 41 32 0 16 94
201 107 212 11 9 20 74 13 100 -11 44 31 71 152 99 33 8 69 23 80 34 33 32 68
130 58 158 -6 15 -6 26 1 29 28 18 -33 91 -101 122 -19 9 -73 25 -120 37 l-84
21 -2 150 c0 83 -5 213 -10 290 -9 153 -9 175 -1 240 5 36 1 54 -26 106 l-32
64 -85 32 c-47 17 -107 34 -135 37 -106 12 -313 12 -391 0z m-86 -164 c12 -20
6 -25 -22 -14 -19 7 -21 34 -3 34 7 0 18 -9 25 -20z m106 -42 c34 -12 65 -25
70 -29 17 -15 -69 4 -119 27 -64 29 -31 31 49 2z m570 -10 c10 -40 -14 -50
-126 -54 -56 -1 -128 -5 -157 -8 -50 -5 -54 -4 -39 10 9 9 37 17 64 19 83 5
148 17 164 30 8 8 29 15 45 18 17 2 33 5 36 6 4 0 9 -9 13 -21z m-171 -155 c4
-3 2 -12 -5 -20 -9 -11 -6 -23 11 -53 14 -25 20 -48 16 -60 -3 -11 -2 -20 2
-20 5 0 17 -26 27 -57 10 -32 23 -69 29 -83 6 -14 12 -36 13 -50 2 -14 5 -37
8 -52 6 -32 -1 -34 -30 -9 -26 21 -55 83 -79 166 -9 33 -20 65 -25 70 -4 6
-10 30 -13 55 -6 43 -15 56 -63 87 -17 10 -17 13 -4 22 17 12 103 15 113 4z
m-473 -547 c41 -10 93 -22 115 -27 44 -11 110 -13 165 -5 148 21 238 40 286
62 59 27 102 29 95 4 -2 -8 -3 -31 -3 -50 3 -68 -7 -100 -31 -100 -12 -1 -33
-7 -47 -15 -14 -8 -37 -14 -52 -15 -15 0 -29 -4 -32 -9 -3 -5 -53 -12 -112
-16 -58 -4 -117 -13 -132 -21 -14 -7 -28 -11 -31 -10 -3 2 -53 14 -110 25 -57
12 -122 31 -144 41 -22 11 -47 20 -54 20 -7 0 -13 10 -13 21 0 17 -3 19 -13
11 -10 -8 -22 -7 -48 6 -32 16 -34 21 -37 70 -5 80 9 89 72 53 28 -16 85 -36
126 -45z m-63 -392 c41 -5 42 -5 36 -40 -7 -39 18 -68 67 -79 46 -10 68 8 65
53 -2 39 -2 40 38 45 26 4 51 0 68 -9 16 -8 35 -14 43 -14 23 0 30 -20 15 -47
-12 -23 -11 -27 15 -50 24 -21 36 -23 90 -21 l61 3 9 38 10 37 114 0 114 0 -7
-42 c-4 -24 -16 -54 -26 -67 -11 -13 -19 -28 -19 -33 0 -5 -11 -19 -25 -32
-14 -13 -25 -27 -25 -31 0 -5 -23 -33 -50 -64 -111 -124 -115 -125 -250 -124
-177 1 -332 28 -377 63 -14 11 -31 20 -37 20 -17 0 -69 56 -72 77 -2 10 -10
54 -19 98 -9 44 -13 92 -11 107 3 15 -2 44 -10 64 -24 58 -16 65 68 59 40 -3
92 -8 115 -11z"/>
<path d="M860 4330 c-24 -24 -25 -29 -3 -60 38 -54 79 -79 188 -115 61 -19
121 -35 134 -35 38 0 129 49 186 101 43 40 51 53 47 74 -2 14 -9 25 -16 25 -6
0 -38 -18 -71 -40 -33 -22 -83 -48 -111 -57 -47 -14 -57 -14 -121 0 -39 9 -87
27 -108 41 -21 14 -42 26 -46 26 -5 0 -15 14 -24 30 -18 35 -28 37 -55 10z"/>
<path d="M4037 5105 c-18 -25 -18 -25 15 -45 18 -11 38 -22 43 -24 6 -2 3 -16
-7 -34 -10 -16 -18 -50 -18 -74 0 -64 -9 -91 -29 -82 -21 9 -92 20 -261 38
-143 16 -223 15 -495 -5 -194 -15 -556 -14 -660 1 -38 6 -86 13 -105 16 -27 4
-40 1 -54 -15 -27 -30 -6 -49 99 -86 58 -21 633 -25 715 -5 58 14 560 18 687
6 71 -7 92 -12 95 -25 3 -9 -2 -54 -10 -101 -12 -76 -12 -87 2 -111 15 -26 15
-28 -3 -42 -11 -7 -24 -24 -29 -37 -7 -20 -5 -28 14 -42 12 -10 25 -18 28 -18
3 0 29 16 58 36 60 43 108 64 142 64 15 0 27 7 30 18 3 9 20 23 38 31 127 53
160 72 154 86 -3 10 1 15 14 15 25 0 30 11 36 67 4 45 3 48 -43 90 -67 61
-159 133 -172 133 -6 0 -11 4 -11 9 0 9 -158 130 -197 150 -33 17 -56 13 -76
-14z"/>
<path d="M9644 4007 c-23 -11 -54 -60 -54 -84 0 -12 -7 -14 -31 -9 -58 11
-102 -3 -130 -42 -29 -40 -33 -74 -15 -127 17 -48 51 -71 120 -80 52 -6 63
-12 94 -46 19 -21 41 -39 47 -39 6 0 21 -10 33 -23 l22 -23 -31 -85 c-29 -78
-31 -91 -26 -179 6 -115 24 -163 82 -212 l29 -25 -39 -34 c-21 -19 -52 -46
-69 -61 -33 -30 -42 -33 -51 -18 -4 6 -20 4 -43 -6 -20 -9 -59 -18 -87 -21
-102 -9 -152 -53 -175 -153 -14 -67 -13 -73 23 -115 30 -34 38 -38 78 -38 43
1 45 0 47 -29 7 -87 103 -169 162 -138 55 29 111 165 89 214 -15 32 3 64 46
82 18 7 42 25 53 39 11 14 24 25 29 25 15 0 1 -84 -18 -109 -11 -13 -19 -31
-19 -40 1 -29 37 -66 67 -67 15 0 73 -6 127 -14 81 -10 112 -11 163 0 49 9 66
10 78 0 22 -19 55 -3 55 27 0 14 4 42 10 62 18 68 40 201 40 241 0 42 12 57
29 37 10 -12 67 -119 110 -204 9 -17 27 -37 40 -43 24 -11 24 -11 4 -33 -57
-65 -78 -145 -49 -190 48 -73 156 -74 241 -2 17 14 40 25 53 25 29 0 59 15 95
48 63 59 16 194 -85 245 -29 15 -66 27 -81 27 -36 0 -67 16 -67 35 0 8 -6 18
-12 22 -7 4 -24 31 -38 58 -13 28 -33 63 -44 78 l-20 28 39 72 c28 51 41 90
46 134 7 65 19 82 150 224 l36 39 33 -16 c25 -13 47 -15 96 -10 80 8 106 20
127 56 48 81 -17 209 -123 241 -27 8 -40 18 -40 30 0 10 -13 31 -30 47 -22 23
-41 31 -76 34 -42 3 -51 0 -91 -36 -56 -50 -62 -65 -52 -151 7 -68 6 -71 -19
-92 -63 -51 -65 -51 -139 8 -111 89 -133 98 -238 94 -49 -1 -125 -10 -168 -19
-44 -8 -82 -15 -85 -14 -4 1 -20 -2 -35 -7 -35 -9 -63 16 -72 69 -4 20 -13 36
-20 36 -18 0 -27 28 -16 48 6 12 3 24 -10 41 -10 12 -24 41 -29 63 -6 21 -27
57 -47 79 -37 41 -73 49 -119 26z m85 -95 c5 -9 12 -35 16 -57 4 -22 14 -46
23 -52 14 -12 13 -16 -12 -42 -38 -39 -28 -71 30 -101 66 -34 72 -46 30 -60
-35 -11 -36 -11 -81 36 -48 51 -55 77 -29 105 12 13 13 22 5 36 -34 58 -48
132 -29 145 21 13 37 9 47 -10z m-134 -116 c36 -29 31 -37 -30 -44 -47 -5 -85
15 -85 44 0 31 76 31 115 0z m1217 -41 c-2 -11 -12 -29 -21 -40 -10 -11 -18
-32 -19 -47 -2 -35 34 -47 70 -24 12 8 28 16 33 17 6 1 16 4 24 7 21 8 77 -27
90 -55 25 -54 -4 -80 -97 -89 -54 -6 -61 -5 -71 15 -7 11 -20 21 -31 21 -21 0
-130 -97 -130 -115 0 -13 -48 -61 -54 -54 -2 2 -6 16 -10 31 -8 36 32 84 98
114 27 12 52 28 57 35 4 7 -2 30 -15 54 -16 28 -23 54 -21 79 2 21 5 39 7 40
56 42 96 46 90 11z m-431 -198 c19 -13 42 -26 52 -30 9 -3 17 -13 17 -20 0 -8
11 -19 25 -25 17 -8 25 -20 25 -36 0 -13 5 -26 11 -28 23 -8 31 -188 11 -248
-7 -19 -28 -52 -47 -73 -19 -21 -35 -42 -35 -47 0 -16 -37 -30 -82 -30 -58 -1
-72 -15 -76 -75 -4 -78 -30 -243 -42 -265 -34 -63 -35 43 -1 130 23 61 26 86
11 95 -20 13 -51 -7 -71 -47 -26 -51 -36 -42 -19 17 15 54 2 95 -29 95 -35 0
-69 -121 -69 -247 0 -63 -4 -88 -12 -88 -23 0 -27 39 -15 142 19 162 4 206
-54 157 -23 -19 -29 -30 -21 -39 7 -8 8 -51 4 -124 -6 -102 -9 -111 -27 -111
-19 0 -19 5 -14 93 13 188 18 217 41 229 27 14 36 28 36 55 0 26 -25 36 -91
37 -36 1 -52 7 -77 30 -17 17 -33 41 -37 54 -3 13 -15 33 -25 45 -40 42 -13
237 35 262 11 6 32 18 47 28 33 23 103 45 183 59 33 5 80 13 105 18 25 4 81 8
126 9 70 1 86 -2 115 -22z m-513 -611 c4 -33 -7 -47 -78 -100 -30 -22 -59 -44
-65 -49 -5 -4 -25 -17 -44 -28 -27 -16 -32 -24 -26 -42 12 -41 10 -52 -10 -61
-11 -5 -29 -20 -39 -34 -19 -25 -19 -25 7 -44 33 -24 34 -42 2 -73 -33 -33
-42 -32 -60 12 -17 41 -14 62 15 88 34 31 20 105 -21 105 -11 0 -38 -9 -61
-21 -32 -16 -48 -19 -72 -12 -27 8 -31 13 -28 38 5 40 12 46 79 67 71 22 107
23 123 3 7 -8 16 -15 20 -15 12 0 142 109 187 157 45 49 66 52 71 9z m640 -57
c23 -33 42 -65 42 -71 0 -6 25 -34 55 -64 52 -51 57 -54 106 -54 43 0 55 -5
80 -29 49 -49 36 -111 -23 -111 -49 0 -148 64 -148 95 0 9 -9 19 -20 22 -11 3
-20 11 -20 18 0 7 -7 18 -15 25 -8 7 -32 47 -53 89 -21 42 -46 88 -55 102 -15
23 -14 39 3 39 3 0 25 -27 48 -61z m-363 -130 l-15 -44 6 40 c6 41 13 59 20
52 2 -2 -3 -23 -11 -48z m9 -110 c-12 -20 -24 -7 -24 29 l0 37 15 -29 c8 -15
12 -32 9 -37z m464 -115 c29 -46 28 -50 -9 -58 -64 -12 -71 -3 -48 63 14 40
29 39 57 -5z"/>
<path d="M9929 3474 c-18 -5 -43 -65 -53 -126 -9 -49 18 -78 72 -78 74 0 142
13 142 26 0 7 9 19 20 27 19 13 19 16 5 48 -18 40 -44 72 -70 86 -24 13 -94
23 -116 17z"/>
<path d="M10290 3438 c-20 -13 -44 -28 -55 -34 -26 -15 -30 -53 -7 -82 16 -20
39 -30 117 -48 11 -3 34 4 52 15 29 18 32 24 31 69 -2 61 -22 91 -68 98 -26 4
-44 -1 -70 -18z"/>
<path d="M10122 3293 c-12 -2 -20 -8 -17 -13 4 -7 -24 -74 -56 -132 -5 -10 -9
-25 -9 -35 0 -9 -7 -25 -17 -35 -15 -17 -15 -20 6 -42 20 -22 28 -23 104 -19
121 7 133 18 101 91 -9 21 -16 59 -15 87 2 39 -3 57 -19 78 -21 26 -31 29 -78
20z"/>
<path d="M8762 3805 c-15 -34 -15 -45 1 -45 8 0 20 -12 28 -27 20 -41 57 -73
82 -73 34 -1 96 -42 171 -115 54 -51 199 -165 211 -165 5 0 140 -80 219 -129
20 -12 25 -11 55 16 44 41 40 73 -10 88 -21 5 -45 17 -55 26 -11 9 -104 73
-209 143 -220 147 -254 170 -275 188 -9 7 -29 20 -45 28 -17 8 -48 29 -71 47
-59 46 -87 51 -102 18z"/>
<path d="M11538 2865 c-19 -26 -24 -65 -9 -80 21 -22 64 -162 62 -203 -1 -24
3 -89 10 -145 7 -56 14 -127 15 -157 2 -30 5 -59 5 -65 1 -5 -3 -62 -9 -125
-19 -200 -26 -293 -25 -350 1 -30 -3 -97 -8 -149 -6 -59 -6 -98 0 -105 19 -22
-7 -443 -31 -505 -5 -14 -11 -102 -14 -195 -5 -169 -5 -171 -29 -184 -14 -7
-25 -19 -25 -26 0 -32 27 -36 241 -36 188 1 276 -6 329 -24 8 -3 49 -7 90 -10
41 -3 122 -14 179 -25 57 -10 116 -17 130 -15 88 12 292 14 336 4 61 -15 462
-15 499 0 15 5 91 10 169 11 78 0 178 7 222 15 44 7 101 14 128 14 39 0 47 -3
47 -18 0 -46 56 -57 72 -14 10 26 14 27 77 27 81 0 279 14 304 21 11 4 25 -4
38 -20 28 -35 74 -36 83 -1 4 15 15 27 29 30 54 12 372 27 599 28 137 1 248 4
248 7 0 3 8 6 18 6 73 4 248 15 297 20 33 3 141 5 240 5 99 0 209 0 245 1 36
0 70 0 75 -1 17 0 186 -21 255 -31 36 -6 90 -13 120 -16 30 -4 59 -13 65 -20
5 -7 23 -14 40 -16 27 -3 30 0 36 37 4 22 7 105 8 185 1 80 4 193 7 252 5 76
1 143 -12 237 -15 115 -16 148 -6 254 7 67 14 181 17 253 2 72 9 143 14 158 6
14 15 81 21 148 6 68 15 143 19 168 5 25 7 49 4 54 -7 11 -5 364 2 387 4 11
-2 25 -14 36 -27 23 -26 29 4 37 43 11 29 45 -25 60 -147 41 -231 54 -370 60
-58 3 -148 10 -200 16 -88 10 -483 8 -725 -5 -49 -2 -137 -7 -195 -10 -174
-10 -597 -17 -915 -16 -165 0 -336 -4 -380 -9 -100 -12 -232 -14 -351 -5 -52
3 -125 2 -170 -4 -58 -8 -106 -8 -179 0 -55 6 -309 13 -565 16 -851 7 -1003
15 -1110 57 -9 3 -22 -4 -32 -19z m4499 -109 c1 -1 -2 -29 -7 -62 -5 -32 -11
-81 -14 -109 -3 -27 -10 -79 -16 -115 -6 -36 -13 -171 -14 -300 -2 -129 -6
-291 -10 -360 -12 -233 -17 -355 -21 -539 -3 -102 -8 -187 -13 -190 -4 -3 -8
-33 -8 -66 -3 -135 -18 -296 -28 -304 -6 -5 -76 -11 -156 -14 -80 -3 -196 -8
-259 -12 l-114 -6 7 43 c4 24 9 61 12 83 2 22 11 85 19 140 30 197 37 611 21
1180 -4 153 5 395 19 485 2 14 4 43 4 66 2 77 0 77 247 82 120 2 221 6 224 9
5 4 102 -5 107 -11z m-4280 -5 c26 -6 127 -12 223 -16 96 -3 202 -9 235 -14
33 -4 71 -6 85 -4 42 6 420 5 695 -3 143 -4 421 -6 617 -5 l357 2 5 -33 c6
-42 18 -138 19 -158 1 -22 -14 -174 -18 -181 -13 -21 -42 -363 -50 -599 -3
-85 -8 -200 -10 -255 -3 -55 -7 -176 -10 -270 -3 -93 -8 -204 -10 -245 -3 -41
-7 -111 -9 -156 -3 -44 -8 -109 -12 -142 l-7 -62 -56 -1 c-31 0 -81 -5 -111
-10 -91 -16 -420 -31 -665 -30 -685 1 -633 -1 -985 48 -64 9 -172 14 -277 13
l-173 -2 0 69 c0 37 7 127 16 198 36 301 41 354 38 435 -2 90 17 302 36 385
10 45 9 51 -7 62 -19 13 -19 20 5 403 5 76 3 137 -5 180 -6 36 -12 108 -12
160 -1 83 -8 128 -36 218 -7 20 -4 22 33 22 23 0 63 -4 89 -9z m4713 -21 c85
-5 172 -9 194 -10 38 0 38 0 31 -32 -4 -18 -10 -53 -14 -78 -4 -25 -11 -52
-16 -60 -5 -8 -7 -66 -6 -130 2 -63 4 -128 3 -145 0 -16 -1 -75 -2 -129 0 -57
-6 -106 -12 -113 -6 -7 -8 -16 -6 -19 3 -3 1 -24 -4 -47 -12 -53 -17 -116 -22
-294 -3 -78 -7 -147 -10 -152 -13 -21 -7 -250 9 -317 13 -57 15 -107 10 -289
-7 -252 -8 -261 -33 -267 -22 -6 -111 3 -267 25 -131 20 -188 25 -274 26 -54
1 -62 3 -57 17 7 18 13 92 21 244 3 58 7 121 10 140 2 19 6 105 9 190 3 85 10
211 16 280 9 120 17 309 25 620 2 80 6 165 10 190 10 73 26 210 34 280 10 94
9 93 110 86 47 -3 156 -10 241 -16z m-1098 -2 c3 -7 0 -33 -4 -58 -13 -63 -15
-661 -3 -860 5 -91 10 -181 9 -200 0 -76 -16 -527 -19 -550 -7 -56 -16 -117
-22 -145 -8 -41 -13 -71 -19 -135 -4 -30 -15 -70 -26 -87 l-20 -33 -136 0
c-75 0 -160 3 -187 6 l-51 6 14 112 c10 81 14 312 17 856 2 528 7 774 16 845
7 55 12 113 11 129 -1 16 4 36 10 43 16 20 -22 57 -49 49 -31 -10 -43 -50 -55
-175 -11 -123 -15 -939 -6 -1226 3 -93 2 -217 -3 -275 -5 -58 -11 -125 -12
-150 -2 -25 -9 -84 -17 -132 l-14 -88 -71 -1 c-38 -1 -79 -3 -90 -4 -11 -2
-63 -6 -115 -10 l-95 -8 2 429 c2 572 16 897 53 1264 5 52 7 133 3 180 -4 70
7 194 20 206 2 2 156 6 342 9 187 4 342 8 344 11 2 2 41 4 87 4 56 0 84 -4 86
-12z m-954 -12 c2 -3 0 -25 -6 -48 -6 -25 -7 -66 -3 -98 9 -59 6 -123 -10
-270 -6 -52 -13 -126 -15 -165 -2 -38 -6 -115 -9 -170 -3 -55 -7 -174 -10
-265 -3 -91 -8 -190 -11 -220 -7 -79 -5 -267 4 -325 9 -64 0 -511 -11 -522 -9
-9 -364 -33 -384 -25 -9 3 -11 23 -9 65 28 484 56 1064 56 1177 0 52 4 122 10
155 5 33 11 85 14 115 3 30 7 71 10 90 22 148 27 282 17 389 -10 92 -9 116 1
123 13 9 346 3 356 -6z"/>
<path d="M12120 2519 c-203 -42 -251 -70 -209 -122 20 -27 24 -71 10 -142 -4
-22 -4 -56 0 -75 13 -63 17 -140 8 -146 -15 -9 -11 -20 20 -53 29 -31 29 -31
135 -31 78 0 114 4 141 17 19 9 35 19 35 22 -1 14 -19 33 -26 28 -15 -8 -227
13 -240 24 -13 11 -9 106 5 121 3 3 51 8 105 10 99 3 126 12 126 42 0 29 -30
38 -130 38 -117 1 -118 2 -112 90 l4 56 51 18 c29 9 88 18 132 20 44 1 84 2
89 3 11 1 0 60 -15 78 -13 15 -62 15 -129 2z"/>
<path d="M13379 2438 c0 -13 -1 -64 -1 -115 0 -57 -4 -96 -11 -102 -7 -5 -46
-11 -89 -13 l-76 -3 -16 35 c-27 58 -62 90 -99 90 -14 0 -53 -33 -89 -76 -21
-24 -40 -110 -39 -179 1 -60 32 -99 67 -85 20 8 21 12 13 57 -12 64 -2 129 27
161 l23 27 20 -20 c27 -26 62 -126 67 -189 4 -55 14 -72 49 -78 46 -9 72 45
38 80 -10 9 -23 36 -29 59 l-11 42 61 -6 c34 -3 64 -10 67 -15 3 -5 2 -34 -2
-66 -9 -67 7 -105 44 -100 19 3 24 14 37 88 l15 85 55 10 c54 11 55 12 58 48
l3 37 -46 0 c-55 0 -59 8 -68 130 -5 70 -10 88 -28 103 -28 23 -39 22 -40 -5z"/>
<path d="M12733 2310 c-13 -5 -23 -14 -23 -21 0 -6 -9 -22 -20 -36 -11 -14
-20 -36 -20 -49 0 -13 -4 -24 -10 -24 -5 0 -10 -9 -10 -19 0 -11 5 -23 10 -26
6 -3 10 -24 10 -46 0 -54 11 -72 68 -111 39 -27 56 -32 104 -33 66 0 75 6 60
41 -9 19 -17 24 -31 19 -25 -8 -114 37 -135 67 -31 43 -22 55 47 60 34 3 81
14 105 23 43 18 43 18 37 59 -4 22 -15 49 -24 60 -34 40 -115 57 -168 36z m96
-57 c23 -15 23 -17 6 -30 -26 -18 -105 -18 -105 1 0 22 28 46 53 46 13 0 33
-7 46 -17z"/>
<path d="M12529 2253 c-8 -10 -27 -37 -42 -60 -19 -30 -34 -43 -50 -43 -29 0
-47 18 -47 45 0 22 -38 65 -57 65 -15 0 -43 -34 -43 -54 0 -9 7 -19 15 -22 9
-4 24 -25 35 -48 53 -116 124 -112 196 12 15 26 34 52 42 58 8 5 12 21 10 35
-4 30 -38 37 -59 12z"/>
<path d="M11923 1561 c-9 -15 -9 -23 2 -37 8 -11 15 -28 15 -39 0 -12 5 -26
10 -31 6 -6 12 -87 14 -189 l3 -178 29 -24 c16 -12 38 -23 48 -23 25 0 145 28
171 41 11 5 47 15 79 22 45 10 61 18 67 35 8 20 5 22 -29 23 -20 1 -41 0 -47
-1 -5 -1 -30 -4 -55 -6 -25 -2 -67 -9 -95 -15 -27 -6 -61 -9 -75 -8 l-25 4 -5
180 c-5 152 -9 186 -25 220 -23 46 -62 59 -82 26z"/>
<path d="M12457 1411 c-51 -57 -69 -97 -75 -166 -4 -58 -3 -64 24 -92 16 -17
48 -38 71 -46 36 -14 49 -14 91 -3 59 15 101 40 108 64 3 9 10 25 15 34 27 51
0 135 -64 203 -39 40 -48 45 -89 45 -40 0 -50 -5 -81 -39z m142 -75 c27 -28
37 -94 19 -116 -18 -22 -84 -59 -100 -56 -7 1 -25 10 -40 20 -35 23 -36 56 -4
111 37 65 87 82 125 41z"/>
<path d="M12928 1381 c-37 -20 -73 -42 -80 -48 -6 -7 -18 -13 -25 -13 -7 0
-13 -7 -13 -16 0 -9 -7 -22 -17 -29 -10 -8 -18 -32 -21 -68 -3 -45 0 -62 17
-91 26 -41 95 -72 138 -61 39 9 89 50 120 96 14 21 29 39 34 39 16 0 80 -155
88 -214 13 -94 6 -125 -41 -173 -66 -67 -177 -85 -262 -41 -11 5 -38 26 -58
46 -39 37 -68 38 -68 2 0 -22 51 -76 110 -115 74 -50 210 -49 288 1 76 49 118
142 109 240 -10 109 -97 326 -154 386 -15 16 -23 33 -20 42 7 18 -37 57 -62
55 -9 -1 -46 -17 -83 -38z m122 -60 c0 -6 -5 -13 -11 -16 -13 -9 -33 -56 -30
-74 1 -7 -15 -31 -35 -52 -30 -31 -45 -39 -74 -39 -101 0 -68 99 56 167 41 22
94 30 94 14z"/>
</g>
</svg>
