<?xml version="1.0" standalone="no"?>
<!DOCTYPE svg PUBLIC "-//W3C//DTD SVG 20010904//EN"
 "http://www.w3.org/TR/2001/REC-SVG-20010904/DTD/svg10.dtd">
<svg version="1.0" xmlns="http://www.w3.org/2000/svg"
 width="575.040244pt" height="400.000000pt" viewBox="0 0 575.040244 400.000000"
 preserveAspectRatio="xMidYMid meet">
<metadata>
Created by potrace 1.15, written by Peter Selinger 2001-2017
</metadata>
<g transform="translate(-51.252520,437.020148) scale(0.048252,-0.048252)"
fill="#444444" stroke="none">
<path d="M8307 9054 c-11 -11 -8 -53 4 -77 7 -11 18 -44 25 -72 17 -63 6 -74
-64 -67 -37 3 -51 0 -62 -13 -37 -45 -6 -99 58 -99 56 0 72 -24 72 -110 0 -64
3 -75 29 -106 29 -35 29 -35 50 -16 19 17 21 30 21 115 0 53 4 101 8 107 4 6
20 14 36 18 73 18 100 72 56 116 -19 19 -22 19 -50 5 -28 -15 -30 -14 -34 7
-23 114 -40 170 -55 177 -25 14 -85 23 -94 15z"/>
<path d="M8586 9037 c-25 -19 -24 -50 6 -197 14 -69 27 -162 28 -207 0 -47 7
-98 15 -118 14 -32 18 -34 48 -28 17 3 33 7 34 8 2 0 8 36 14 78 6 42 17 84
24 94 13 17 14 17 33 0 11 -10 28 -47 37 -82 28 -103 75 -133 125 -80 29 31
36 31 99 -1 44 -23 62 -26 144 -26 75 0 102 4 135 21 23 12 50 21 62 21 31 0
27 53 -6 79 -31 24 -54 26 -92 8 -34 -17 -122 -22 -122 -8 0 6 8 11 19 11 10
0 40 21 66 46 42 42 46 50 40 81 -13 70 -75 137 -108 116 -7 -4 -21 -9 -32
-10 -11 -2 -44 -14 -73 -28 -46 -22 -55 -32 -79 -82 -66 -146 -67 -146 -75
-127 -43 104 -63 139 -93 165 -23 21 -80 22 -96 2 -18 -21 -36 -15 -44 15 -4
15 -17 79 -29 142 -18 99 -24 115 -41 118 -11 1 -29 -3 -39 -11z"/>
<path d="M5067 8943 c-14 -14 -20 -15 -40 -4 -60 32 -95 -9 -96 -114 -1 -27
-5 -66 -10 -85 -5 -19 -14 -61 -21 -92 -7 -32 -15 -58 -17 -58 -15 0 -33 33
-33 60 0 50 -16 70 -56 70 -37 0 -37 1 -85 -123 l-23 -57 -20 31 c-11 18 -21
48 -22 68 -2 50 -23 152 -34 173 -6 10 -10 26 -10 37 0 35 -31 60 -67 54 -35
-6 -43 -26 -23 -63 19 -36 70 -305 72 -378 1 -67 3 -75 30 -97 54 -46 72 -33
134 93 15 28 32 52 39 52 6 0 24 -24 40 -52 35 -67 54 -88 75 -88 24 0 41 22
45 62 7 52 26 137 101 443 7 29 8 29 11 5 2 -14 8 -34 13 -45 14 -29 50 -187
45 -195 -10 -16 -6 -199 4 -219 6 -11 21 -26 32 -32 32 -16 55 12 63 74 12
106 18 125 37 130 10 3 25 0 33 -7 25 -19 76 -131 83 -181 7 -56 50 -112 77
-102 36 14 39 56 10 142 -60 176 -157 294 -218 263 -21 -11 -44 6 -50 38 -38
177 -52 214 -85 214 -9 0 -24 -8 -34 -17z"/>
<path d="M5905 8818 c12 -145 16 -131 -35 -132 -42 -1 -45 -3 -48 -29 -5 -38
21 -74 56 -82 32 -6 45 -27 62 -91 11 -47 45 -94 65 -94 20 0 47 42 35 54 -6
6 -10 32 -10 59 l0 49 62 -3 c60 -4 63 -3 72 22 5 14 6 37 2 50 -7 28 -67 60
-89 47 -39 -21 -62 18 -72 124 -6 59 -10 70 -35 88 -15 11 -38 20 -50 20 -22
0 -23 -2 -15 -82z"/>
<path d="M7100 8792 c-49 -24 -59 -35 -96 -102 -38 -68 -42 -81 -39 -135 3
-79 19 -109 73 -145 36 -24 56 -30 99 -30 29 0 53 5 53 10 0 6 8 10 18 10 34
0 68 24 86 60 15 32 16 40 4 59 -20 33 -45 35 -86 8 -49 -33 -95 -43 -112 -22
-18 21 4 45 42 45 41 0 120 75 134 129 9 32 8 46 -3 70 -34 70 -91 84 -173 43z
m77 -98 c3 -9 -36 -34 -52 -34 -8 0 -6 36 2 44 10 10 46 3 50 -10z"/>
<path d="M7745 8812 c-23 -5 -104 -61 -106 -74 -5 -31 -20 -68 -27 -68 -4 0
-7 18 -7 41 0 84 -78 101 -169 38 -56 -40 -76 -80 -83 -167 -7 -93 25 -164 80
-177 22 -6 27 -3 33 20 4 14 3 47 -1 73 -13 86 -8 114 27 145 21 17 44 27 64
27 31 0 32 -1 27 -38 -7 -50 43 -148 98 -196 39 -33 43 -34 116 -32 63 2 78 5
89 22 39 61 20 98 -52 100 -27 1 -55 3 -61 3 -26 2 -12 31 23 47 67 32 131
146 94 169 -5 3 -10 14 -10 25 0 28 -81 54 -135 42z"/>
<path d="M6863 8803 c-7 -2 -13 -13 -13 -24 0 -10 -4 -19 -8 -19 -13 0 -32
-48 -26 -64 6 -17 -14 -96 -24 -96 -4 0 -22 16 -41 35 -34 36 -66 44 -102 25
-10 -6 -19 -19 -19 -29 0 -10 -9 -26 -20 -36 -22 -20 -15 -30 -61 88 -22 55
-61 107 -80 107 -5 0 -16 -11 -25 -25 -20 -31 -15 -59 27 -170 57 -147 84
-185 129 -182 28 1 39 13 71 75 12 23 25 42 28 42 4 0 24 -20 44 -45 40 -48
51 -52 91 -34 31 15 44 47 75 190 5 22 14 46 20 52 16 16 14 69 -5 95 -14 21
-35 26 -61 15z"/>
<path d="M5623 8711 c-55 -37 -64 -47 -100 -111 -59 -106 -48 -167 39 -220 46
-29 48 -29 77 -12 17 9 42 38 56 65 15 26 29 47 33 47 11 0 62 -57 62 -68 0
-18 54 -70 76 -74 51 -8 73 61 32 99 -44 40 -148 200 -148 227 0 31 -40 76
-67 76 -10 0 -37 -13 -60 -29z"/>
<path d="M9304 8326 c-17 -13 -19 -28 -20 -133 0 -65 -1 -123 -2 -129 -2 -14
-136 -33 -148 -22 -3 3 -22 110 -29 164 -4 28 -35 64 -56 64 -8 0 -22 -11 -29
-25 -12 -22 -12 -33 0 -73 7 -26 15 -64 18 -84 l4 -38 -43 -2 c-24 -1 -53 -3
-64 -4 -11 -1 -25 -2 -32 -3 -23 -2 -44 -33 -37 -54 11 -33 29 -46 76 -52 23
-3 51 -8 61 -11 20 -6 20 -15 -1 -124 -21 -102 -21 -112 -5 -151 22 -55 47
-67 70 -33 9 14 18 45 20 68 5 75 21 181 32 208 11 30 40 41 111 42 49 1 61
-16 42 -58 -38 -81 -76 -257 -64 -300 19 -71 73 -58 83 20 9 75 33 139 68 181
22 27 31 48 31 74 0 41 8 69 20 69 12 0 59 -73 64 -100 2 -14 5 -53 5 -87 1
-55 4 -65 26 -79 56 -37 91 11 73 103 -36 193 -85 283 -153 283 -29 0 -34 4
-40 31 -4 17 -8 80 -10 139 -1 60 -6 113 -9 119 -10 15 -38 14 -62 -3z"/>
<path d="M7381 8251 c-11 -7 -13 -28 -7 -108 14 -183 17 -368 6 -435 -12 -81
-3 -111 41 -134 31 -15 33 -15 46 2 9 13 14 49 14 114 0 52 0 124 1 160 3 115
-13 324 -28 368 -16 43 -40 54 -73 33z"/>
<path d="M5523 8193 c-26 -5 -30 -34 -12 -80 16 -40 20 -199 7 -231 -7 -15
-13 -54 -15 -87 -1 -33 -5 -89 -8 -125 -7 -72 4 -96 44 -102 19 -2 26 3 35 29
16 46 20 47 57 13 96 -89 176 -118 206 -73 13 19 12 23 -9 42 -12 12 -45 34
-73 50 -59 34 -138 122 -129 145 4 11 19 16 49 16 47 0 100 23 114 48 13 25 5
74 -14 88 -20 15 -84 7 -104 -13 -7 -8 -21 -13 -30 -11 -13 3 -18 26 -26 138
-5 74 -14 141 -18 148 -8 12 -30 13 -74 5z"/>
<path d="M8302 8179 c-23 -9 -23 -10 -17 -119 l7 -110 -27 -10 c-15 -6 -31 -8
-36 -4 -5 3 -12 -2 -15 -10 -3 -9 -17 -16 -29 -16 -26 0 -55 -24 -55 -46 0
-32 38 -54 95 -54 l55 0 0 -39 c0 -22 4 -42 9 -45 5 -3 12 -21 15 -39 8 -42
46 -67 71 -47 12 10 14 28 9 94 -7 90 4 116 49 116 41 0 65 12 76 36 23 51 12
71 -38 65 -7 -2 -10 2 -6 8 8 14 -15 14 -48 2 l-25 -10 -7 85 c-4 46 -5 93 -2
104 3 13 -2 25 -16 35 -24 17 -33 18 -65 4z"/>
<path d="M10006 8105 c-28 -17 -44 -37 -60 -77 -12 -29 -34 -71 -49 -93 -15
-22 -27 -43 -27 -47 0 -10 110 -168 118 -169 60 -9 97 -3 150 21 80 39 88 50
72 100 -7 22 -18 40 -24 40 -6 0 -29 -11 -51 -25 -46 -28 -80 -32 -89 -10 -3
9 0 15 9 15 8 0 15 5 15 10 0 6 5 10 10 10 19 0 72 44 86 72 18 35 18 77 -1
115 -21 41 -33 49 -81 55 -31 4 -49 0 -78 -17z m64 -108 c0 -8 -9 -22 -20 -32
-17 -16 -20 -16 -20 -2 0 26 11 47 26 47 8 0 14 -6 14 -13z"/>
<path d="M4980 8100 c-6 -4 -62 -7 -124 -8 -83 0 -123 -5 -145 -16 -16 -9 -44
-16 -60 -16 -31 0 -71 -32 -71 -57 0 -8 12 -25 26 -38 22 -21 33 -23 77 -19
29 3 64 9 79 14 36 11 64 -10 73 -57 4 -20 13 -50 21 -65 23 -44 53 -148 43
-148 -5 0 -9 -6 -9 -14 0 -20 -84 -9 -141 19 -54 26 -69 20 -69 -30 0 -50 44
-81 129 -91 25 -3 48 -7 52 -10 14 -8 94 27 122 54 37 35 32 63 -33 197 -64
131 -69 152 -38 160 41 10 92 17 135 20 51 3 73 19 73 51 0 40 -34 65 -85 63
-25 -2 -49 -6 -55 -9z"/>
<path d="M10365 8092 c-72 -35 -88 -65 -120 -225 -4 -20 43 -107 78 -145 45
-49 97 -71 163 -68 74 4 80 7 86 47 6 38 -21 59 -72 58 -66 -1 -120 25 -120
57 0 17 48 54 70 54 10 0 34 18 54 40 49 55 48 85 -6 143 -48 51 -86 62 -133
39z"/>
<path d="M9741 8039 c-75 -14 -114 -77 -125 -195 -10 -113 34 -184 85 -138 18
16 19 26 13 96 -6 73 -5 81 16 103 16 17 30 23 45 19 28 -7 85 21 85 41 0 27
-22 63 -47 74 -13 6 -25 11 -26 10 -1 -1 -22 -5 -46 -10z"/>
<path d="M7999 7983 c-53 -22 -66 -101 -28 -175 11 -21 31 -45 45 -54 13 -9
30 -26 36 -37 10 -19 8 -20 -38 -13 -87 11 -160 107 -152 198 4 37 1 51 -13
64 -17 15 -21 15 -61 -1 -50 -20 -138 -75 -138 -86 0 -4 -13 -16 -29 -25 -45
-27 -85 -107 -83 -168 1 -44 5 -55 32 -78 44 -40 82 -37 128 10 41 40 62 80
62 116 0 21 26 55 33 45 16 -21 67 -112 67 -119 0 -6 8 -10 18 -11 9 -1 24 -2
33 -3 9 0 29 -16 44 -35 27 -31 31 -33 74 -27 69 10 74 11 99 24 12 7 22 10
22 6 0 -10 40 28 51 48 13 23 -17 70 -67 107 -57 42 -95 86 -89 102 3 8 20 21
38 29 38 18 47 52 21 81 -19 21 -58 22 -105 2z"/>
<path d="M6555 7958 c-11 -6 -32 -22 -46 -35 -25 -23 -27 -29 -22 -86 7 -80
17 -97 53 -97 26 0 31 5 51 60 24 66 42 73 47 18 2 -27 15 -47 58 -88 29 -30
54 -60 54 -67 0 -14 -75 -9 -123 9 -65 25 -78 -54 -16 -104 32 -25 45 -30 100
-30 78 -1 147 24 160 59 19 50 1 93 -68 159 -49 48 -64 69 -61 86 2 13 8 23
15 23 18 0 26 12 29 44 3 26 -1 31 -31 41 -26 9 -44 9 -70 0 -19 -6 -34 -14
-34 -18 4 -22 -4 -21 -30 7 -32 34 -37 36 -66 19z"/>
<path d="M5940 7912 c-19 -9 -42 -25 -50 -36 -8 -10 -22 -26 -31 -36 -28 -30
-42 -87 -34 -146 3 -29 11 -56 16 -59 5 -4 9 -14 9 -24 0 -34 109 -101 165
-101 44 0 99 43 115 90 l14 42 13 -38 c22 -64 81 -95 103 -55 5 11 10 49 10
85 0 95 11 116 59 116 21 0 53 3 70 6 27 6 31 11 31 39 0 33 -15 51 -62 75
-54 26 -139 -20 -174 -95 -7 -16 -18 -37 -23 -45 -5 -8 -14 -28 -20 -43 -7
-19 -15 -26 -24 -20 -20 12 -41 9 -55 -9 -14 -20 -64 -32 -92 -23 -17 6 -11
14 47 58 78 61 113 107 113 151 0 39 -7 49 -47 70 -40 20 -108 20 -153 -2z
m60 -107 c0 -16 -27 -32 -37 -22 -3 4 -3 13 0 22 8 20 37 20 37 0z"/>
<path d="M5285 7832 c-43 -8 -104 -43 -124 -71 -16 -22 -21 -44 -21 -89 l0
-59 68 -31 c71 -33 81 -35 126 -33 39 1 116 78 116 115 0 15 -11 48 -24 74
-34 67 -89 104 -141 94z m49 -137 c10 -8 16 -21 13 -29 -8 -21 -54 -31 -72
-16 -14 12 -20 41 -11 51 11 11 52 7 70 -6z"/>
<path d="M10210 7462 c-37 -6 -60 -31 -60 -67 0 -28 4 -34 33 -41 17 -4 57 -8
87 -9 76 -1 77 -22 5 -99 -77 -82 -75 -116 12 -179 83 -59 127 -52 121 21 -2
31 -9 40 -35 52 -39 18 -41 37 -8 68 44 42 81 123 77 169 -6 67 -37 88 -130
88 -42 0 -88 -1 -102 -3z"/>
<path d="M8498 7379 c-20 -11 -24 -49 -8 -65 6 -6 13 -41 17 -79 l6 -68 -24 7
c-75 23 -89 18 -89 -36 0 -32 41 -75 82 -83 25 -6 28 -11 28 -45 0 -63 11 -98
36 -115 38 -25 59 -3 59 60 0 28 1 56 3 63 5 15 66 16 94 1 28 -15 68 6 68 36
0 34 -44 75 -79 75 -16 0 -32 4 -35 9 -3 5 -14 7 -24 4 -16 -4 -20 7 -32 79
-15 89 -46 162 -70 165 -8 2 -23 -2 -32 -8z"/>
<path d="M7081 7336 c-20 -21 -21 -28 -13 -62 6 -22 13 -61 17 -89 4 -27 13
-75 21 -105 11 -42 13 -87 8 -186 -7 -138 -1 -167 35 -177 37 -9 45 18 49 159
6 193 -29 441 -67 472 -20 16 -24 16 -50 -12z"/>
<path d="M9907 7264 c-2 -3 -15 -7 -28 -9 -29 -6 -56 -33 -61 -60 -4 -26 31
-105 46 -105 17 0 88 -39 114 -63 29 -27 28 -45 -5 -58 -22 -8 -32 -6 -54 11
-16 11 -40 20 -55 20 -26 0 -26 -2 -22 -45 6 -46 31 -78 73 -90 11 -4 30 -11
43 -17 18 -10 27 -8 52 10 16 12 33 22 37 22 17 0 83 70 83 88 0 22 -23 79
-42 103 -7 9 -23 19 -35 23 -45 14 -47 32 -9 71 38 37 43 54 26 86 -9 16 -21
19 -85 18 -41 -1 -76 -3 -78 -5z"/>
<path d="M8835 7233 c-14 -15 -25 -30 -25 -34 0 -3 13 -19 30 -35 24 -23 30
-38 30 -74 1 -76 28 -230 45 -256 18 -27 42 -28 58 -3 10 16 -12 201 -34 289
-5 19 -9 56 -9 81 0 34 -5 49 -16 53 -31 12 -54 6 -79 -21z"/>
<path d="M8210 7150 c0 -5 -9 -10 -19 -10 -11 0 -22 -4 -26 -10 -3 -5 -28 -21
-55 -36 -28 -15 -50 -31 -50 -36 0 -4 -7 -8 -15 -8 -8 0 -15 -6 -15 -14 0 -8
-8 -21 -18 -28 -19 -14 -26 -48 -17 -85 3 -12 25 -33 52 -49 101 -59 204 -20
243 90 l11 29 47 -50 c57 -61 86 -73 114 -46 26 27 15 65 -29 100 -19 15 -46
52 -60 81 -13 28 -31 59 -39 67 -17 17 -124 21 -124 5z m-20 -161 c-15 -26
-40 -36 -51 -18 -10 16 15 39 43 39 16 0 17 -3 8 -21z"/>
<path d="M9160 7153 c-8 -3 -17 -9 -20 -13 -3 -3 -16 -14 -29 -23 -29 -20 -51
-76 -51 -134 0 -40 3 -44 64 -88 58 -41 69 -45 110 -42 54 5 107 41 126 88 12
28 11 39 -6 88 -18 53 -22 58 -89 93 -72 38 -79 41 -105 31z m81 -133 c10 -6
19 -21 19 -34 0 -19 -7 -25 -34 -30 -18 -4 -40 -4 -49 -1 -19 8 -29 57 -14 67
17 11 55 10 78 -2z"/>
<path d="M4837 7130 c-27 -22 -29 -59 -4 -89 16 -19 16 -134 1 -256 -10 -79
-17 -102 -33 -114 -15 -12 -22 -32 -27 -76 -7 -67 0 -79 53 -94 35 -10 41 -4
82 78 17 33 34 61 36 61 3 0 23 -13 45 -29 21 -15 53 -34 70 -41 27 -11 34
-11 47 3 28 27 6 74 -47 104 -46 26 -90 67 -90 83 0 11 13 27 78 102 47 55 53
87 20 118 -12 11 -24 20 -27 20 -16 -1 -49 -39 -58 -65 -11 -34 -37 -40 -39
-9 -10 200 -40 257 -107 204z"/>
<path d="M7843 7139 c-18 -5 -33 -14 -33 -19 0 -6 -6 -10 -13 -10 -8 0 -22 -9
-32 -20 -10 -11 -22 -20 -27 -20 -16 0 -47 -44 -48 -67 0 -12 -4 -24 -9 -28
-14 -8 -2 -74 21 -116 20 -37 62 -64 112 -72 32 -5 124 28 144 52 17 22 15 55
-6 74 -21 19 -62 23 -62 6 0 -13 -68 -7 -95 9 -16 9 -18 14 -9 29 13 20 81 65
137 90 41 18 45 31 20 74 -19 31 -41 35 -100 18z"/>
<path d="M9562 7134 c-7 -8 -17 -12 -22 -9 -5 3 -31 -16 -58 -42 -48 -47 -50
-51 -57 -120 -8 -85 1 -110 44 -111 41 -1 54 19 56 85 2 45 7 60 25 75 49 40
77 16 86 -75 4 -36 12 -57 26 -70 32 -27 66 -32 87 -13 18 16 18 20 -11 114
-25 83 -35 103 -73 140 -46 44 -80 53 -103 26z"/>
<path d="M4082 7112 c-7 -2 -12 -11 -12 -19 0 -9 -16 -38 -35 -64 -30 -42 -35
-57 -35 -104 0 -53 -25 -125 -49 -139 -5 -3 -12 -22 -15 -41 -8 -43 -26 -52
-58 -31 -45 29 -126 25 -166 -9 -17 -14 -37 -25 -46 -25 -9 0 -16 -4 -16 -8 0
-11 -49 -34 -59 -27 -5 2 -16 33 -26 67 -9 35 -25 79 -36 99 -31 63 -69 181
-69 219 0 26 -7 43 -25 60 -23 21 -27 22 -51 10 -35 -19 -65 -81 -64 -133 5
-191 -2 -426 -15 -488 -10 -46 -13 -94 -9 -133 4 -36 1 -86 -7 -121 -15 -73
-15 -249 1 -328 8 -40 8 -62 1 -71 -19 -23 -7 -61 36 -115 78 -97 172 -149
281 -157 68 -4 74 -15 73 -133 -1 -100 -1 -103 -31 -132 -42 -43 -116 -142
-182 -244 -18 -27 -35 -52 -38 -55 -3 -3 -14 -18 -24 -35 -11 -16 -25 -37 -32
-45 -35 -40 -74 -91 -114 -152 -25 -37 -50 -68 -56 -68 -13 0 -59 -50 -67 -73
-10 -27 9 -55 42 -62 29 -6 71 11 71 28 0 7 44 61 167 206 12 14 22 30 23 35
0 5 7 16 15 25 17 18 61 77 118 160 49 71 109 134 117 121 8 -14 12 -199 4
-212 -7 -12 -12 -144 -16 -509 l-3 -246 -40 -45 c-22 -25 -51 -62 -65 -82 -36
-53 -85 -115 -128 -161 -50 -55 -92 -117 -92 -138 0 -18 -69 -155 -113 -224
-15 -24 -27 -47 -27 -52 0 -5 -6 -16 -13 -23 -25 -26 -77 -115 -77 -133 0 -20
27 -44 51 -45 9 0 29 17 46 38 32 40 132 207 171 287 13 28 35 64 48 82 13 17
24 36 24 41 0 5 18 32 40 60 22 27 40 53 40 56 0 4 36 44 80 89 44 45 88 99
97 120 9 20 22 37 27 37 10 0 86 -109 86 -123 0 -5 34 -78 136 -293 13 -28 24
-54 24 -57 0 -3 20 -40 45 -81 25 -42 45 -79 45 -82 0 -2 15 -27 34 -55 19
-27 38 -58 41 -69 15 -47 92 -1 80 47 -3 14 -33 64 -65 112 -32 48 -68 107
-78 132 -32 74 -100 216 -159 333 -152 300 -156 310 -156 356 0 25 4 194 8
375 5 182 8 363 8 403 0 39 2 72 5 72 16 0 94 -75 144 -139 32 -42 64 -83 71
-91 7 -8 26 -35 42 -60 44 -67 151 -162 178 -158 19 3 22 9 21 52 0 36 -5 52
-20 63 -54 39 -94 85 -209 240 -41 56 -95 121 -118 145 -24 24 -61 63 -84 88
l-41 45 -7 116 -7 116 31 5 c18 3 39 -1 49 -8 21 -17 54 -18 70 -2 6 6 35 11
65 9 46 -2 59 2 85 24 16 14 35 25 40 25 6 0 21 15 33 33 13 17 27 33 31 35
25 11 58 137 57 217 -1 30 1 58 5 62 3 3 1 12 -6 20 -10 12 -12 63 -6 153 1
14 -5 65 -12 114 -12 84 -9 134 15 258 1 9 -6 31 -17 49 -18 29 -19 46 -16
148 6 143 -9 391 -24 408 -10 12 -57 15 -86 5z m18 -412 c-5 -69 -10 -129 -11
-135 -1 -5 4 -88 11 -184 11 -151 9 -332 -4 -501 -2 -25 -4 -64 -5 -88 -1 -42
-10 -55 -65 -100 -16 -13 -65 -9 -97 9 -13 7 -26 6 -40 -1 -11 -7 -41 -11 -65
-10 -24 0 -52 1 -61 1 -101 -2 -150 2 -172 13 -14 7 -41 14 -59 14 -57 1 -92
23 -116 72 -19 40 -21 59 -20 165 1 66 7 132 13 147 7 20 7 45 -1 85 -8 43 -7
124 2 311 13 250 22 332 33 302 25 -67 50 -164 54 -210 7 -86 11 -98 42 -113
27 -14 31 -13 62 15 43 37 74 54 119 63 19 4 40 12 47 17 22 18 81 16 118 -3
44 -24 103 -28 116 -8 5 8 9 33 9 56 0 23 4 45 10 48 11 7 35 58 45 95 13 50
28 81 36 73 4 -4 4 -64 -1 -133z"/>
<path d="M3800 6390 c-12 -7 -15 -38 -16 -159 -1 -82 -5 -154 -9 -161 -5 -7
-19 -10 -37 -6 -35 7 -78 -17 -73 -42 2 -9 4 -24 4 -32 2 -28 51 -48 96 -37
22 5 65 10 95 10 63 2 72 16 46 72 -26 54 -37 133 -34 243 2 82 0 105 -12 112
-19 12 -41 12 -60 0z"/>
<path d="M7403 7061 c-52 -29 -65 -43 -89 -95 -32 -69 -24 -109 33 -164 80
-76 103 -81 184 -44 53 24 94 105 85 168 -3 25 -15 59 -27 75 -18 26 -67 59
-94 65 -5 1 -21 4 -35 8 -15 3 -38 -2 -57 -13z m91 -116 c46 -19 47 -47 5 -86
-17 -16 -34 -29 -38 -29 -4 0 -22 18 -39 39 l-31 39 20 26 c24 30 34 31 83 11z"/>
<path d="M6543 6973 c-20 -10 -41 -33 -55 -62 -13 -25 -33 -59 -45 -74 -47
-58 -22 -167 38 -167 23 0 49 52 49 100 0 40 12 63 45 84 25 17 28 17 47 -1
32 -28 48 -76 48 -141 0 -59 11 -84 42 -95 20 -7 48 31 48 65 0 13 -7 61 -16
108 -19 94 -57 155 -116 184 -38 19 -44 19 -85 -1z"/>
<path d="M5906 6944 c-34 -35 -38 -87 -12 -148 7 -17 22 -53 32 -80 14 -36 31
-58 64 -81 25 -18 50 -30 57 -28 11 5 39 44 74 107 l16 28 34 -39 c19 -22 47
-48 62 -58 28 -18 28 -18 57 10 17 16 35 44 42 62 7 18 16 33 20 33 4 0 8 8 8
18 0 11 9 27 20 37 17 15 20 29 18 69 -3 45 -6 52 -32 61 -24 8 -31 6 -50 -16
-12 -14 -30 -51 -40 -83 -20 -62 -40 -71 -62 -28 -18 36 -56 72 -75 72 -22 0
-69 -42 -69 -62 0 -8 -6 -23 -14 -33 -13 -18 -14 -18 -41 -1 -26 17 -27 21
-20 65 11 69 8 83 -17 103 -31 24 -41 23 -72 -8z"/>
<path d="M10347 6955 c-16 -11 -18 -21 -12 -57 13 -77 56 -101 94 -52 54 69
-15 160 -82 109z"/>
<path d="M5253 6907 c-4 -7 -23 -23 -40 -36 -22 -15 -33 -31 -33 -47 0 -14 -7
-41 -16 -62 -21 -51 -11 -117 22 -138 37 -25 55 -12 54 38 -2 64 11 126 26
132 28 11 74 -67 74 -125 0 -10 16 -31 35 -48 47 -41 75 -30 75 28 0 52 -94
227 -135 252 -35 22 -51 24 -62 6z"/>
<path d="M5600 6891 c-99 -50 -105 -56 -113 -103 -12 -61 7 -150 40 -188 20
-25 32 -30 62 -29 54 3 117 35 166 83 34 35 43 52 47 87 4 37 0 50 -26 82 -16
20 -53 48 -82 62 -62 29 -51 29 -94 6z m92 -137 c11 -24 9 -29 -25 -60 -20
-19 -41 -34 -46 -34 -9 0 -31 60 -31 86 0 19 24 34 57 34 26 0 36 -6 45 -26z"/>
<path d="M8200 6629 c-19 -4 -68 -7 -110 -7 -41 0 -86 -5 -100 -10 -28 -11
-79 -59 -81 -76 -1 -6 -2 -18 -3 -27 0 -9 -21 -39 -46 -67 -25 -28 -58 -70
-75 -92 -16 -22 -34 -46 -40 -53 -29 -35 -62 -85 -73 -109 -7 -18 -17 -26 -26
-22 -14 5 -86 -77 -86 -100 0 -6 -16 -21 -35 -34 -19 -12 -41 -38 -49 -57 -8
-19 -20 -35 -25 -35 -6 0 -11 -5 -11 -11 0 -6 -27 -47 -60 -90 -33 -44 -66
-91 -72 -107 -7 -15 -24 -43 -38 -62 -15 -19 -39 -57 -54 -83 -15 -27 -34 -51
-41 -53 -8 -3 -18 -18 -23 -34 -7 -20 -23 -32 -54 -45 -29 -10 -51 -28 -63
-48 -22 -36 -24 -52 -12 -87 23 -64 8 -259 -23 -302 -12 -17 -21 -51 -25 -95
-7 -76 -19 -115 -48 -155 -15 -20 -18 -33 -11 -55 8 -27 11 -55 15 -133 1 -19
-6 -118 -15 -220 -11 -114 -16 -254 -14 -365 4 -271 -9 -482 -33 -523 -34 -58
-22 -93 41 -118 18 -8 125 -11 125 -4 0 7 149 6 174 -1 24 -8 44 -8 70 0 32 9
281 24 384 22 21 0 54 -8 73 -17 28 -13 52 -16 122 -11 48 4 118 2 157 -4 39
-6 111 -10 160 -9 111 4 165 3 230 -1 28 -1 121 0 207 3 122 5 173 11 229 28
65 21 74 21 98 8 14 -9 41 -18 59 -21 18 -4 40 -14 48 -22 20 -20 52 -19 121
4 32 11 103 27 158 35 55 9 116 20 135 23 19 4 46 7 60 8 14 1 50 6 80 11 62
10 211 10 375 -1 61 -4 135 -9 165 -11 60 -3 160 -17 228 -32 42 -9 45 -8 77
26 19 19 37 49 39 66 7 42 0 221 -13 336 -21 189 -24 292 -12 497 6 114 14
257 17 317 3 60 9 119 14 131 4 12 11 44 14 71 18 161 28 258 31 329 12 227
17 301 31 425 19 173 25 394 13 490 -5 41 -10 154 -10 250 0 96 -3 183 -5 192
-6 20 -102 43 -134 33 -35 -11 -232 -13 -285 -3 -27 5 -111 11 -185 13 -169 4
-277 13 -301 25 -10 6 -20 6 -23 2 -3 -5 -20 -7 -38 -5 -18 2 -94 5 -168 7
-74 2 -135 5 -135 6 0 8 -111 9 -146 1 -40 -9 -93 -6 -229 14 -19 3 -70 8
-114 10 -43 3 -82 8 -87 11 -18 11 -56 15 -164 19 -60 3 -157 6 -215 8 -58 3
-121 1 -140 -4z m400 -149 c52 -6 124 -13 160 -16 36 -3 76 -8 90 -11 14 -3
29 -5 33 -4 4 0 58 -3 120 -9 61 -6 206 -13 322 -16 115 -3 221 -7 235 -8 14
-2 33 -4 42 -4 9 -1 24 -9 33 -18 15 -16 39 -15 79 1 14 6 17 5 12 -3 -4 -7
-2 -12 3 -12 22 0 10 -17 -24 -36 -20 -10 -38 -28 -40 -39 -12 -61 -17 -80
-24 -85 -24 -17 -88 -131 -96 -172 -2 -10 -18 -38 -34 -62 -17 -25 -31 -49
-31 -54 0 -16 -33 -77 -47 -85 -7 -4 -13 -15 -13 -22 0 -8 -4 -15 -10 -15 -5
0 -10 -8 -10 -17 0 -21 -74 -173 -110 -228 -15 -22 -41 -69 -58 -105 -51 -105
-59 -113 -116 -103 l-48 8 49 32 c66 43 87 68 87 106 0 102 -74 212 -163 241
-129 42 -259 -5 -277 -100 -3 -19 -9 -34 -13 -33 -3 0 -19 28 -36 62 -16 33
-41 74 -53 89 -32 38 -118 62 -190 54 -63 -7 -85 -25 -127 -100 -25 -45 -27
-56 -22 -120 6 -67 9 -73 46 -108 22 -21 49 -38 60 -38 10 0 38 -16 61 -35 40
-33 41 -35 16 -35 -14 0 -47 4 -73 10 -43 9 -196 20 -281 21 -19 0 -68 10
-110 21 -90 25 -92 25 -369 32 -135 4 -214 2 -218 -4 -9 -15 -185 -13 -185 2
0 6 26 49 58 95 31 46 64 96 72 111 37 64 244 322 260 322 15 0 47 37 75 85
15 28 39 63 52 79 13 15 30 43 37 60 11 26 64 92 182 228 32 37 83 44 297 40
111 -1 177 1 177 8 0 5 6 7 13 5 6 -3 55 -9 107 -15z m1405 -81 c33 -1 89 -8
124 -16 46 -11 95 -14 177 -10 62 2 116 7 121 10 4 3 16 0 25 -7 13 -9 18 -49
29 -216 18 -282 14 -496 -12 -685 -6 -44 -13 -123 -14 -175 -5 -164 -15 -282
-30 -355 -37 -185 -42 -236 -45 -405 -1 -52 -6 -153 -12 -225 -17 -220 -13
-438 12 -614 12 -79 10 -194 -2 -206 -3 -4 -23 1 -44 10 -22 9 -66 18 -99 19
-33 1 -70 8 -83 15 -16 9 -27 9 -36 2 -16 -13 -290 -4 -329 11 -20 8 -35 8
-53 -1 -14 -6 -39 -11 -56 -11 -37 0 -175 -16 -268 -32 -71 -12 -92 -15 -159
-23 -24 -3 -50 -10 -58 -17 -27 -22 -33 13 -34 202 -2 253 -1 303 12 395 6 44
13 152 15 240 6 238 14 387 22 399 4 6 8 61 9 121 0 61 1 126 2 145 0 19 1 73
1 120 0 47 5 106 11 132 13 55 57 144 104 208 37 51 79 127 155 280 29 58 63
119 76 137 13 17 24 36 24 42 0 10 88 142 101 151 4 3 18 30 32 60 13 30 39
69 57 85 35 33 110 172 110 206 0 17 4 20 28 15 15 -4 54 -7 87 -7z m-1398
-735 c34 -32 35 -36 31 -87 -3 -38 -11 -60 -27 -76 -29 -29 -52 -21 -84 28
-19 29 -35 40 -62 45 -45 9 -53 27 -29 74 24 47 23 47 84 48 46 1 56 -3 87
-32z m378 -34 c13 0 36 -13 52 -30 15 -16 33 -30 40 -30 19 0 28 -49 12 -66
-8 -7 -35 -18 -60 -22 -39 -7 -51 -6 -70 10 -36 27 -80 48 -90 42 -15 -9 -20
21 -9 51 15 39 40 56 74 50 16 -3 39 -5 51 -5z m-230 -150 c21 -63 58 -94 103
-86 38 6 147 -38 115 -46 -17 -5 -272 11 -340 20 -7 1 7 23 32 48 24 26 49 62
55 80 7 19 13 34 15 34 2 0 11 -22 20 -50z m-1142 -132 c32 2 72 0 88 -3 25
-6 29 -11 29 -41 0 -19 -3 -34 -7 -34 -10 0 -33 -49 -33 -71 0 -26 105 -67
153 -60 10 1 25 -3 32 -9 11 -9 39 -9 112 -1 l98 10 57 -29 c43 -23 71 -30
110 -30 29 0 69 0 88 0 19 -1 52 2 73 5 22 4 57 2 82 -5 33 -9 51 -9 78 -1 44
15 47 23 34 89 -9 45 -9 55 5 69 14 13 20 14 33 3 9 -8 62 -16 133 -20 64 -5
124 -11 133 -15 9 -3 36 -1 60 4 55 12 129 -6 140 -35 10 -25 11 -136 1 -151
-5 -8 -20 -9 -52 -2 -77 16 -276 23 -284 10 -4 -6 -25 -11 -46 -11 -21 0 -51
-5 -67 -11 -15 -6 -64 -10 -108 -9 -44 1 -95 1 -114 1 -18 -1 -39 3 -45 8 -7
6 -39 13 -71 16 -61 6 -164 29 -200 46 -23 11 -324 18 -330 8 -5 -7 -182 -1
-205 7 -8 3 -78 8 -155 10 -76 3 -141 7 -144 9 -2 3 -10 0 -16 -5 -7 -5 -34
-14 -61 -19 -27 -5 -57 -13 -67 -17 -18 -6 -19 0 -15 104 4 153 2 152 172 153
97 0 144 5 181 18 28 9 55 15 60 12 6 -3 36 -4 68 -3z m346 -29 c41 -5 83 -15
94 -21 11 -5 56 -10 101 -9 167 1 372 -35 363 -63 -2 -6 -52 -16 -113 -21
l-109 -11 -33 28 c-26 23 -43 28 -85 29 -70 0 -136 8 -172 19 -19 6 -44 6 -70
-1 -54 -15 -105 -18 -111 -7 -3 5 -3 25 1 45 6 32 9 35 33 29 15 -4 60 -11
101 -17z m-593 -364 c8 -19 -13 -80 -33 -96 -13 -12 -15 -7 -10 38 3 29 8 57
12 62 9 15 25 13 31 -4z m504 -31 c0 -13 -21 -44 -30 -44 -15 0 -12 37 3 43
17 8 27 8 27 1z m-568 -191 c26 -8 52 -12 57 -9 8 5 338 18 420 16 13 0 29 4
35 8 17 12 73 15 80 3 4 -6 45 -8 109 -5 92 4 311 5 442 1 28 -1 65 1 84 5 18
3 41 2 50 -3 33 -18 231 -46 449 -63 24 -2 45 -6 48 -9 9 -9 5 -333 -7 -507
-6 -91 -12 -289 -13 -440 -1 -314 4 -299 -90 -256 -53 24 -59 25 -99 12 -63
-21 -124 -29 -202 -26 -112 3 -140 2 -325 -6 -96 -4 -200 -7 -230 -7 -117 3
-309 15 -390 24 -47 5 -96 10 -110 10 -14 0 -43 0 -65 1 -22 1 -51 0 -65 0
-86 -5 -471 -2 -480 3 -7 5 -9 50 -4 143 3 76 8 243 10 372 5 321 11 440 24
475 6 17 11 78 11 137 0 124 1 126 91 134 28 2 53 6 56 8 6 7 57 -3 114 -21z"/>
<path d="M8076 6405 c-30 -27 -32 -51 -12 -100 13 -29 20 -35 46 -35 57 0 90
97 49 146 -18 21 -53 17 -83 -11z"/>
<path d="M8717 6410 c-68 -31 -90 -87 -67 -171 8 -28 20 -41 59 -62 27 -15 59
-28 72 -29 43 -3 97 22 133 63 30 32 35 45 31 74 -5 45 -18 67 -55 99 -29 24
-89 47 -120 45 -8 0 -32 -9 -53 -19z m103 -115 c20 -22 21 -25 6 -31 -21 -8
-76 14 -76 31 0 33 39 33 70 0z"/>
<path d="M8322 6408 c-6 -7 -16 -35 -23 -62 -12 -47 -11 -50 11 -68 29 -23 48
-20 71 12 17 22 18 30 6 75 -9 38 -17 51 -33 53 -11 2 -26 -3 -32 -10z"/>
<path d="M9114 6378 c-47 -28 -53 -36 -64 -83 -16 -65 -8 -96 31 -137 22 -23
44 -34 82 -41 155 -27 226 19 211 136 -11 83 -26 112 -76 136 -65 31 -122 28
-184 -11z m162 -93 c14 -21 15 -31 6 -50 -15 -32 -52 -33 -88 -2 -34 29 -27
53 18 66 47 13 46 13 64 -14z"/>
<path d="M7935 6222 c-11 -15 -18 -38 -16 -52 4 -34 49 -69 88 -70 30 0 32 2
38 44 7 43 -5 82 -29 98 -24 16 -61 7 -81 -20z"/>
<path d="M8161 6199 c-54 -56 -40 -108 30 -116 37 -4 49 -1 74 21 26 23 28 28
17 46 -6 11 -12 26 -12 34 0 18 -19 33 -52 41 -21 5 -32 1 -57 -26z"/>
<path d="M8518 6124 c-13 -26 -31 -52 -40 -58 -10 -6 -18 -16 -18 -22 0 -6 -7
-18 -16 -25 -34 -28 14 -141 66 -154 13 -4 44 -16 68 -27 40 -18 48 -18 80 -6
27 10 38 21 44 46 5 17 13 32 18 32 6 0 10 7 10 16 0 8 20 36 45 62 73 75 57
109 -65 138 -33 8 -74 21 -90 29 -53 27 -76 20 -102 -31z"/>
<path d="M7828 6089 c-25 -14 -44 -88 -26 -105 28 -27 128 -13 128 18 0 27
-55 98 -74 98 -6 0 -19 -5 -28 -11z"/>
<path d="M8988 6062 c-59 -27 -83 -66 -82 -133 1 -45 7 -64 28 -92 15 -20 39
-38 54 -41 57 -12 102 -15 107 -6 3 5 21 7 41 4 22 -2 33 0 29 6 -3 5 -2 10 2
10 5 0 21 11 36 25 55 52 28 136 -65 203 -57 40 -100 47 -150 24z m109 -126
c36 -32 21 -52 -32 -42 -37 7 -51 25 -41 51 8 22 41 18 73 -9z"/>
<path d="M8046 6044 c-10 -10 -16 -33 -16 -64 0 -39 4 -52 22 -64 37 -26 74
-20 102 17 34 44 33 58 -6 96 -35 34 -77 41 -102 15z"/>
<path d="M7758 5915 c-2 -2 -19 -6 -38 -8 -49 -5 -78 -22 -133 -79 -64 -67
-76 -94 -83 -185 -9 -110 -2 -117 146 -141 136 -22 187 -19 248 17 68 40 84
68 89 150 3 62 -1 79 -29 141 -21 49 -40 76 -59 85 -25 14 -132 28 -141 20z
m102 -143 c19 -19 31 -44 35 -74 9 -58 -6 -88 -43 -88 -16 0 -33 -5 -40 -12
-9 -9 -24 -8 -65 5 -28 9 -70 18 -92 19 -60 4 -58 31 7 100 46 48 58 55 92 56
22 1 44 6 50 12 15 15 25 12 56 -18z"/>
<path d="M8117 5719 l-45 -41 15 -44 c21 -62 61 -88 121 -80 25 3 51 11 57 17
5 5 10 34 10 64 0 48 -4 58 -34 89 -20 20 -45 36 -57 36 -13 0 -43 -18 -67
-41z"/>
<path d="M5243 6213 c-7 -2 -13 -10 -13 -17 0 -6 -8 -19 -17 -28 -10 -9 -35
-37 -57 -62 -21 -25 -43 -46 -48 -46 -10 0 -59 -35 -98 -70 -57 -52 -92 -75
-133 -91 -23 -9 -49 -18 -57 -22 -66 -26 -164 -36 -218 -23 -40 9 -72 -10 -72
-43 0 -47 36 -80 90 -83 130 -7 274 42 385 132 28 22 73 58 101 79 68 53 214
210 214 231 0 28 -48 55 -77 43z"/>
<path d="M10303 2478 c-16 -18 -19 -29 -12 -53 14 -49 40 -207 35 -213 -3 -2
-19 1 -37 7 -18 6 -43 11 -56 11 -22 0 -24 -3 -21 -42 3 -40 6 -44 42 -56 22
-7 46 -18 53 -24 15 -12 18 -105 4 -127 -10 -16 -25 3 -62 80 -24 51 -62 79
-107 79 -24 0 -39 -10 -70 -47 -21 -27 -47 -64 -57 -83 -29 -57 -46 -64 -72
-32 -26 30 -29 53 -11 85 19 35 20 59 2 79 -37 40 -82 15 -107 -58 l-14 -39
-23 44 c-12 25 -36 60 -54 78 -27 29 -38 33 -86 35 -80 2 -120 -18 -149 -78
-14 -27 -27 -65 -31 -84 l-5 -35 -27 46 c-42 72 -89 75 -141 8 -28 -36 -52
-34 -67 5 -14 37 -47 66 -74 66 -23 0 -40 -16 -119 -115 -29 -34 -29 -35 -22
-135 7 -91 10 -102 33 -120 33 -26 48 -25 68 5 14 21 15 34 7 76 -11 55 4 164
22 164 6 0 23 -24 38 -52 30 -56 55 -71 102 -59 14 4 30 17 34 29 5 13 16 29
25 36 24 20 43 -1 57 -67 16 -74 35 -112 57 -112 37 0 42 -19 42 -177 l0 -153
28 -11 c53 -20 55 -11 55 191 -1 102 3 193 8 202 7 13 17 16 37 12 15 -3 40 1
57 10 17 9 35 16 42 16 21 0 82 81 85 114 4 31 4 30 17 -13 7 -24 18 -52 24
-63 14 -22 88 -68 111 -68 36 0 86 44 126 110 23 39 46 70 51 70 5 0 22 -19
37 -41 46 -70 70 -91 100 -87 25 3 27 0 30 -33 4 -46 32 -74 65 -65 30 7 36
33 37 168 0 53 3 104 6 112 3 9 20 20 38 24 24 6 32 14 34 35 3 22 -3 31 -32
48 -40 23 -40 25 -56 154 -12 95 -35 158 -60 163 -9 1 -25 -8 -37 -20z m-634
-382 c32 -17 61 -57 61 -85 0 -23 -61 -78 -97 -87 -17 -5 -37 -1 -56 9 -37 22
-44 21 -52 -3 -14 -43 -56 -5 -55 48 1 16 2 16 14 0 7 -10 16 -18 19 -18 9 0
47 76 47 94 0 15 55 54 78 55 7 1 26 -6 41 -13z"/>
<path d="M6933 2447 c-48 -19 -76 -60 -68 -100 12 -54 38 -60 83 -22 17 14 34
25 39 24 4 -1 16 1 27 6 11 5 32 3 50 -3 18 -7 46 -12 62 -12 16 0 45 -10 64
-21 l34 -21 -29 -24 c-17 -13 -37 -24 -46 -24 -8 0 -33 -14 -56 -30 -46 -34
-53 -29 -53 40 0 67 -49 88 -73 31 -9 -22 -20 -278 -18 -424 1 -26 -3 -66 -8
-87 -8 -36 -6 -43 18 -71 25 -28 30 -30 49 -18 12 8 22 19 22 25 0 7 6 22 13
35 13 26 26 27 104 9 24 -6 69 -7 100 -4 50 6 63 12 95 45 l37 38 21 -34 c12
-20 30 -40 39 -45 28 -15 83 -14 111 1 28 15 84 71 115 115 11 15 30 39 42 53
19 23 23 24 37 11 8 -8 30 -44 48 -80 33 -63 35 -65 72 -66 30 0 44 -7 60 -27
44 -55 106 -23 90 46 -7 31 -7 141 0 182 2 15 9 19 27 16 33 -5 150 -3 166 3
16 7 17 58 1 74 -7 7 -32 12 -58 13 -25 0 -65 4 -89 7 l-44 7 -22 97 c-22 99
-43 138 -77 138 -28 0 -31 -20 -13 -106 21 -100 16 -113 -31 -85 -38 23 -79
27 -89 10 -4 -6 -4 -26 0 -45 5 -31 13 -39 60 -60 29 -14 59 -31 66 -40 19
-23 10 -174 -10 -174 -5 0 -31 46 -58 103 -60 123 -106 177 -152 177 -17 0
-31 -4 -31 -9 0 -5 -18 -18 -39 -29 -64 -34 -85 -46 -106 -63 -11 -9 -33 -23
-50 -30 -16 -8 -44 -35 -62 -61 l-31 -48 -30 63 c-27 56 -110 157 -129 157 -5
0 -14 9 -20 19 -11 18 -8 23 30 48 24 15 56 45 71 67 23 32 27 47 23 78 -3 22
-14 46 -24 54 -31 25 -143 74 -166 72 -12 0 -53 2 -92 5 -44 4 -82 1 -102 -6z
m153 -344 c22 -21 58 -53 82 -72 47 -39 117 -134 108 -149 -5 -9 -90 -16 -165
-14 -19 0 -43 -4 -54 -10 -19 -10 -20 -8 -15 58 3 38 2 93 -2 123 -6 46 -3
101 5 101 1 0 20 -17 41 -37z m504 -170 c0 -17 -54 -83 -69 -83 -31 0 -47 18
-35 37 17 29 104 67 104 46z"/>
<path d="M4106 2431 c-21 -23 -22 -36 -12 -146 8 -105 14 -231 22 -508 7 -244
10 -257 60 -257 17 0 25 7 30 24 3 14 3 30 -1 36 -4 6 -9 153 -11 328 -5 385
-11 511 -25 529 -16 19 -43 16 -63 -6z"/>
<path d="M3950 2411 c-14 -28 -13 -615 2 -679 9 -42 15 -51 37 -55 40 -8 61 9
61 49 0 19 -5 45 -11 56 -7 14 -11 117 -10 308 1 276 0 289 -20 314 -24 31
-44 33 -59 7z"/>
<path d="M5455 2343 c35 -82 42 -134 29 -201 -5 -26 -9 -29 -33 -23 -39 11
-101 -16 -101 -44 0 -35 22 -52 73 -58 56 -6 62 -9 49 -34 -5 -10 -13 -68 -17
-128 -6 -101 -5 -113 13 -135 17 -21 23 -23 44 -13 29 13 38 46 38 143 0 85 8
127 26 134 8 3 41 3 74 -1 42 -4 61 -10 65 -22 8 -26 8 -133 0 -173 -6 -29 -3
-40 14 -57 26 -26 45 -27 70 -2 13 13 20 33 19 59 0 39 31 124 50 136 16 9 37
-29 57 -104 22 -81 29 -90 74 -90 74 1 126 -12 158 -41 57 -49 142 -62 209
-31 67 30 94 53 94 78 0 28 -40 42 -73 26 -12 -6 -35 -11 -52 -12 -16 -1 -43
-2 -60 -3 -24 -2 -30 2 -30 18 0 14 19 30 62 55 34 19 63 40 63 46 0 6 7 17
15 24 20 17 8 67 -27 113 -24 29 -36 37 -63 37 -36 0 -105 -25 -105 -38 0 -5
-11 -15 -25 -22 -15 -8 -25 -22 -25 -36 0 -13 -4 -25 -9 -28 -5 -4 -12 -24
-16 -46 -5 -30 -14 -44 -41 -60 -18 -12 -38 -19 -44 -15 -9 5 -29 68 -44 135
-3 14 -22 45 -41 68 -39 45 -66 52 -102 27 -22 -15 -41 -5 -28 15 4 6 2 25 -4
43 -6 17 -12 78 -15 134 -2 56 -7 107 -11 113 -3 5 -19 10 -34 10 -21 0 -32
-8 -46 -34 -17 -30 -17 -41 -7 -86 14 -60 15 -110 3 -128 -7 -11 -19 -12 -65
-2 l-56 11 0 108 c0 130 -12 151 -86 151 -40 0 -45 -2 -39 -17z m825 -422 c0
-13 -60 -55 -67 -47 -4 3 -1 17 5 31 8 17 20 25 37 25 14 0 25 -4 25 -9z"/>
<path d="M1140 2296 c-78 -25 -103 -85 -48 -115 24 -14 30 -14 63 2 20 9 55
19 79 22 37 5 44 2 56 -19 14 -26 10 -160 -10 -354 -11 -106 -8 -127 22 -143
17 -9 25 -7 45 13 23 24 24 32 35 244 6 120 16 225 21 232 8 10 25 12 63 7 58
-7 94 7 94 37 0 24 -69 58 -131 65 -27 3 -52 10 -55 14 -8 13 -193 9 -234 -5z"/>
<path d="M12770 2303 c0 -5 -13 -15 -29 -24 -22 -13 -31 -27 -36 -58 -8 -50 2
-68 89 -156 64 -65 94 -110 82 -122 -4 -5 -45 -8 -89 -8 l-82 0 -3 -32 c-2
-18 2 -41 7 -52 24 -43 208 -35 251 12 23 24 26 84 7 137 -7 19 -43 66 -80
104 -37 38 -66 74 -64 80 2 6 28 12 57 14 30 1 55 4 57 6 1 1 6 16 9 33 5 24
1 36 -15 52 -17 17 -33 21 -91 21 -38 0 -70 -3 -70 -7z"/>
<path d="M11710 2237 c-31 -15 -37 -48 -16 -92 9 -18 16 -47 16 -63 0 -72 47
-223 75 -244 33 -24 72 0 90 55 16 48 30 42 59 -22 27 -62 65 -101 97 -101 23
0 55 55 63 110 16 115 36 203 50 225 24 37 21 83 -7 96 -21 9 -28 6 -55 -21
-21 -21 -32 -41 -32 -60 0 -16 -4 -39 -10 -52 -5 -13 -14 -42 -20 -65 -6 -24
-15 -43 -20 -43 -5 0 -23 27 -41 59 -34 61 -59 78 -96 64 -10 -4 -23 -13 -29
-21 -17 -24 -27 1 -32 85 -4 69 -7 75 -33 88 -33 18 -28 18 -59 2z"/>
<path d="M11096 2222 c-3 -6 -30 -22 -60 -35 -56 -26 -94 -66 -120 -129 -10
-26 -21 -38 -35 -38 -25 0 -41 -28 -38 -66 2 -24 -2 -29 -30 -35 -18 -3 -44
-14 -57 -22 -14 -9 -42 -19 -63 -23 -33 -5 -42 -2 -66 21 -32 32 -35 55 -8 55
11 0 22 4 25 9 3 5 17 9 30 9 26 0 82 30 108 59 21 23 18 69 -6 109 -40 67
-123 84 -183 38 -40 -30 -95 -134 -95 -180 0 -52 13 -117 29 -140 16 -26 122
-84 152 -84 31 0 123 44 143 69 24 29 32 27 46 -13 7 -18 21 -41 32 -51 18
-16 23 -17 45 -5 21 11 25 20 25 62 0 48 9 98 36 194 13 47 18 53 66 76 29 14
73 26 97 27 76 3 105 37 63 74 -22 20 -126 34 -136 19z m-406 -143 c0 -8 -51
-39 -65 -39 -16 0 -2 42 18 49 24 9 47 4 47 -10z"/>
<path d="M12433 2202 c-70 -22 -214 -118 -243 -161 -29 -45 -36 -98 -17 -143
45 -108 191 -88 273 38 21 32 30 30 56 -10 29 -43 80 -62 102 -37 21 23 20 65
0 82 -9 7 -30 33 -47 58 -25 37 -31 56 -33 107 -3 93 -4 93 -91 66z m-43 -155
c0 -46 -72 -116 -106 -103 -16 6 -20 46 -4 46 6 0 18 8 28 18 23 23 64 52 74
52 5 0 8 -6 8 -13z"/>
<path d="M2870 2141 c-23 -57 11 -101 80 -101 30 0 30 1 30 55 0 59 0 60 -62
68 -32 5 -37 3 -48 -22z"/>
<path d="M8413 2130 c-12 -5 -41 -21 -64 -36 -23 -14 -48 -27 -55 -28 -21 -3
-76 -93 -84 -136 -15 -80 71 -195 162 -218 39 -10 54 -9 99 7 129 45 132 47
104 101 -16 31 -23 31 -99 1 -37 -15 -82 -6 -123 26 -40 29 -49 62 -30 100 14
26 84 73 110 73 7 0 27 13 46 28 33 28 33 28 17 60 -17 33 -40 39 -83 22z"/>
<path d="M8739 2074 c-5 -7 -21 -15 -34 -18 -30 -8 -105 -129 -105 -169 0 -63
48 -127 95 -127 11 0 32 7 47 14 20 11 36 12 60 5 53 -15 97 -1 140 44 33 35
38 46 38 89 0 58 -15 91 -65 138 -34 33 -40 35 -101 35 -38 0 -70 -5 -75 -11z
m125 -105 c54 -43 18 -89 -70 -89 -37 0 -54 -4 -58 -15 -10 -26 -25 -16 -32
21 -5 27 -2 39 12 52 62 56 105 65 148 31z"/>
<path d="M3250 2036 c-25 -12 -57 -26 -72 -30 -16 -3 -28 -13 -28 -21 0 -8 -4
-15 -8 -15 -16 0 -52 -91 -52 -130 0 -116 99 -207 228 -211 74 -2 160 21 182
49 21 25 36 28 47 8 38 -63 150 -21 198 74 14 27 29 51 35 55 12 7 40 -53 40
-85 0 -42 56 -78 92 -59 23 13 21 35 -10 116 -29 76 -112 211 -132 218 -23 7
-104 -11 -108 -24 -2 -6 -12 -11 -21 -11 -30 0 -100 -57 -107 -87 -4 -16 -13
-37 -21 -48 -8 -12 -11 -32 -7 -51 l6 -31 -64 -8 c-34 -4 -90 -9 -123 -9 -58
-2 -61 -1 -102 40 -24 23 -43 50 -43 60 0 39 37 79 103 113 36 19 69 41 72 49
6 16 -31 62 -49 62 -6 0 -31 -11 -56 -24z m450 -158 c0 -7 -11 -33 -24 -58
-28 -55 -59 -62 -64 -14 -2 25 3 35 35 57 42 30 53 33 53 15z"/>
<path d="M4531 2014 c-12 -15 -21 -39 -21 -55 0 -15 -5 -41 -11 -56 -30 -72
-41 -93 -49 -93 -15 0 -60 61 -60 81 0 11 -16 36 -35 57 l-35 37 -25 -28 c-14
-15 -25 -38 -25 -49 0 -31 46 -106 97 -160 l45 -46 -47 -89 c-70 -128 -84
-152 -111 -192 -13 -20 -24 -41 -24 -48 0 -7 -3 -13 -8 -13 -8 0 -52 -92 -52
-110 0 -6 -8 -25 -17 -41 -25 -42 -9 -83 34 -87 35 -3 63 25 63 65 0 20 68
161 136 278 96 168 144 267 174 360 13 39 31 78 41 88 25 24 25 88 1 110 -26
24 -47 21 -71 -9z"/>
<path d="M2054 1965 c-3 -8 -29 -29 -57 -46 -88 -56 -127 -90 -142 -125 -20
-49 4 -130 43 -146 15 -5 35 -14 44 -19 44 -22 81 -11 129 41 26 28 54 64 61
80 7 17 16 30 20 30 4 0 23 -26 43 -59 38 -61 69 -85 101 -79 31 5 28 44 -5
85 -30 38 -82 130 -120 211 -20 40 -22 42 -66 42 -31 0 -47 -5 -51 -15z m6
-157 c0 -29 -47 -88 -70 -88 -43 0 -35 54 13 87 41 28 57 28 57 1z"/>
<path d="M1689 1960 c-26 -4 -47 -17 -74 -47 -20 -23 -50 -47 -66 -53 -33 -14
-46 -59 -30 -103 6 -16 11 -39 11 -51 0 -33 51 -89 73 -80 9 3 17 12 17 19 0
8 7 21 16 29 12 12 14 26 9 56 -5 31 -2 48 16 80 25 45 44 54 109 55 43 0 45
2 48 30 6 61 -31 79 -129 65z"/>
<path d="M2545 1961 c-6 -5 -35 -17 -65 -27 -72 -25 -82 -32 -104 -76 -51
-101 21 -219 147 -242 33 -6 43 -3 76 23 41 32 51 31 51 -5 0 -13 5 -26 10
-29 6 -3 10 -19 10 -35 0 -16 5 -32 10 -35 6 -3 10 -35 10 -70 0 -52 -4 -68
-22 -88 -21 -23 -28 -24 -80 -18 -67 8 -98 32 -134 104 -27 52 -45 58 -68 25
-23 -32 -20 -64 9 -106 14 -20 25 -42 25 -49 0 -6 26 -28 59 -47 49 -30 68
-36 115 -36 68 0 122 25 159 73 46 60 38 188 -22 352 -12 33 -28 83 -36 110
-17 60 -55 135 -67 135 -5 0 -21 11 -36 25 -30 28 -34 29 -47 16z m-8 -133
c13 -17 11 -110 -3 -115 -13 -4 -58 36 -67 62 -6 13 -1 25 15 41 26 26 42 29
55 12z"/>
<path d="M2876 1944 c-14 -13 -16 -36 -12 -141 4 -145 13 -163 68 -147 l33 10
-3 124 c-2 90 -7 131 -18 147 -17 27 -46 30 -68 7z"/>
<path d="M4733 1683 c-89 -118 -122 -182 -111 -215 7 -21 16 -28 36 -28 35 0
48 9 57 40 4 14 33 62 64 108 31 46 61 92 68 104 16 29 1 62 -29 66 -21 3 -35
-10 -85 -75z"/>
<path d="M7761 1481 l-24 -18 12 -92 c7 -51 14 -179 16 -286 4 -232 10 -259
65 -273 60 -15 79 23 44 89 -12 25 -16 81 -20 297 -4 227 -7 269 -21 284 -20
23 -42 22 -72 -1z"/>
<path d="M5574 1405 c-19 -46 -18 -53 10 -94 23 -34 30 -71 27 -154 -1 -27 -1
-27 -55 -21 -68 8 -116 -15 -116 -57 0 -38 20 -51 68 -43 22 3 55 1 74 -5 l35
-12 -4 -72 c-6 -98 3 -135 32 -149 19 -9 30 -7 51 6 22 15 25 22 19 49 -4 18
-9 66 -11 107 -5 81 5 100 51 100 12 0 33 6 48 13 59 27 8 103 -54 80 -38 -14
-44 -2 -52 93 -6 78 -26 136 -59 171 -30 32 -47 29 -64 -12z"/>
<path d="M6393 1400 c-29 -12 -40 -63 -18 -96 8 -13 18 -53 22 -88 7 -74 2
-80 -71 -81 -41 0 -50 -4 -57 -22 -13 -35 18 -64 74 -70 50 -6 52 -9 47 -76
-2 -36 21 -130 35 -139 5 -4 20 -8 31 -8 28 0 34 23 34 136 l0 91 25 -5 c14
-2 31 1 39 7 25 21 29 -6 6 -37 l-22 -29 41 -82 c46 -90 76 -116 149 -127 37
-6 57 -1 121 26 42 18 80 37 85 41 5 4 5 24 2 43 -6 29 -11 36 -30 36 -13 0
-34 -8 -47 -19 -36 -28 -119 -36 -159 -16 -45 23 -38 55 17 75 24 9 65 37 92
63 40 39 54 46 68 39 10 -5 41 -13 70 -17 29 -4 57 -12 62 -19 8 -9 6 -37 -6
-95 -15 -77 -15 -82 2 -101 40 -44 79 -10 90 81 5 35 8 75 7 89 -3 43 8 49 98
50 47 1 91 1 98 1 10 -1 9 -8 -1 -34 -13 -30 -13 -66 -1 -124 2 -12 19 -34 37
-47 33 -26 34 -26 83 -10 34 11 62 30 91 62 23 25 44 44 47 41 2 -2 16 -30 31
-62 30 -65 74 -104 125 -109 33 -3 35 -1 38 31 3 28 -3 40 -35 73 -21 21 -59
78 -84 126 -26 50 -54 88 -63 90 -22 5 -56 -26 -107 -95 -30 -40 -43 -50 -59
-46 -25 7 -26 28 -1 59 29 36 15 73 -32 89 -21 7 -47 21 -57 30 -14 13 -35 16
-87 15 -37 -1 -74 -2 -80 -1 -9 1 -13 18 -13 50 0 69 35 111 91 111 32 0 41 4
51 25 16 36 -21 75 -71 74 -72 -1 -103 -19 -133 -79 -15 -30 -28 -71 -28 -91
0 -20 -5 -51 -11 -68 -10 -29 -15 -32 -38 -26 -14 4 -46 9 -69 10 -27 2 -59
14 -82 30 -34 24 -46 26 -95 22 -53 -4 -61 -9 -111 -58 -43 -43 -54 -49 -54
-33 0 24 -18 44 -40 44 -26 0 -51 24 -52 50 -2 46 -29 154 -46 182 -18 31 -18
31 -49 18z m331 -316 c14 -5 12 -10 -9 -30 -14 -13 -30 -24 -36 -24 -13 0 -11
34 3 48 14 14 20 15 42 6z"/>
<path d="M5250 1198 c-54 -9 -88 -31 -92 -60 -3 -22 47 -119 65 -127 5 -2 36
-30 69 -63 45 -46 56 -63 46 -69 -15 -10 -63 -10 -98 0 -34 10 -92 -4 -107
-25 -7 -10 -13 -28 -13 -41 0 -37 37 -45 174 -37 103 5 124 9 144 27 40 37 30
71 -43 143 -86 85 -143 176 -102 161 6 -2 27 2 46 9 18 8 46 14 61 14 38 0 44
24 15 55 -20 22 -30 26 -73 23 -27 -2 -69 -6 -92 -10z"/>
<path d="M6057 1147 c-80 -30 -181 -107 -206 -155 -38 -75 -19 -125 62 -160
39 -17 61 -15 104 9 54 30 81 57 110 111 15 27 30 48 34 48 4 0 15 -15 24 -33
18 -38 121 -147 139 -147 20 0 36 22 36 51 0 17 -14 45 -37 72 -21 25 -54 71
-73 103 -49 82 -88 124 -114 123 -11 0 -47 -10 -79 -22z m13 -124 c-1 -33 -78
-103 -114 -103 -16 0 -28 24 -20 43 7 18 95 77 116 77 11 0 18 -7 18 -17z"/>
<path d="M8056 922 c-9 -11 -17 -36 -19 -57 -2 -33 2 -41 25 -54 20 -12 33
-13 55 -5 26 9 28 14 26 57 -1 27 -7 54 -13 62 -17 21 -54 19 -74 -3z"/>
</g>
</svg>
