<?xml version="1.0" standalone="no"?>
<!DOCTYPE svg PUBLIC "-//W3C//DTD SVG 20010904//EN"
 "http://www.w3.org/TR/2001/REC-SVG-20010904/DTD/svg10.dtd">
<svg version="1.0" xmlns="http://www.w3.org/2000/svg"
 width="2885.984943pt" height="400.000000pt" viewBox="0 0 2885.984943 400.000000"
 preserveAspectRatio="xMidYMid meet">
<metadata>
Created by potrace 1.15, written by Peter Selinger 2001-2017
</metadata>
<g transform="translate(-60.778231,471.787917) scale(0.063336,-0.063336)"
fill="#444444" stroke="none">
<path d="M14322 7437 c-6 -7 -15 -25 -21 -40 -6 -15 -17 -27 -25 -27 -7 0 -21
-11 -30 -25 -9 -14 -32 -31 -51 -39 -22 -10 -35 -22 -35 -34 0 -10 -11 -29
-24 -41 -13 -13 -27 -39 -31 -58 -3 -20 -17 -52 -30 -73 -13 -21 -30 -53 -38
-72 -8 -19 -27 -47 -42 -62 -19 -20 -26 -34 -22 -52 2 -14 -3 -51 -13 -82 -10
-31 -15 -61 -12 -67 12 -20 10 -114 -3 -125 -12 -10 -8 -48 9 -91 4 -9 1 -21
-7 -27 -15 -13 -139 -12 -148 2 -4 4 -16 3 -28 -4 -12 -6 -35 -9 -50 -5 -20 4
-32 0 -46 -15 -10 -11 -26 -20 -36 -20 -10 0 -34 -9 -53 -21 -20 -11 -53 -22
-74 -23 -48 -2 -78 -23 -97 -69 -8 -20 -23 -40 -32 -46 -13 -7 -18 -24 -19
-69 -3 -62 -28 -126 -64 -162 -18 -18 -18 -19 12 -29 29 -10 30 -12 15 -29
-21 -23 -21 -32 -1 -46 13 -10 14 -16 3 -39 -10 -23 -10 -30 7 -48 13 -14 19
-38 20 -77 1 -31 11 -92 23 -135 16 -60 18 -83 9 -101 -9 -20 -7 -30 11 -54
11 -17 21 -35 21 -40 0 -5 6 -12 14 -15 8 -3 14 -18 14 -34 -1 -44 11 -71 35
-77 18 -4 27 -19 41 -68 19 -64 44 -118 60 -129 5 -4 10 -19 11 -34 2 -15 20
-54 40 -87 21 -33 38 -73 39 -89 1 -17 6 -33 12 -37 5 -4 18 -23 27 -43 9 -20
23 -39 31 -42 19 -8 26 -65 9 -79 -20 -16 -84 6 -128 45 -36 31 -95 132 -95
162 0 8 -4 15 -9 15 -20 0 -83 144 -91 205 -10 78 -30 123 -95 205 -28 36 -64
84 -79 107 -16 24 -47 58 -70 77 -22 19 -59 51 -81 71 -22 21 -54 44 -70 51
-33 13 -125 91 -125 104 0 5 -25 32 -55 61 -30 28 -53 55 -50 59 2 4 -11 21
-29 39 -28 27 -40 32 -72 29 -32 -2 -40 -7 -42 -25 -2 -13 -7 -23 -12 -23 -4
0 -10 -9 -13 -21 -6 -21 18 -72 54 -118 11 -13 19 -37 19 -53 0 -31 29 -65 77
-87 15 -7 35 -17 43 -20 20 -10 80 -102 80 -123 0 -10 20 -39 45 -65 25 -25
45 -55 45 -65 0 -13 7 -18 25 -18 14 0 33 -10 43 -21 9 -12 29 -36 45 -54 28
-34 35 -55 17 -55 -5 0 -10 6 -10 14 0 18 -22 26 -67 26 -20 0 -55 11 -77 24
-23 13 -66 29 -96 36 -30 7 -61 16 -69 20 -7 4 -42 2 -78 -5 -53 -10 -63 -10
-59 1 9 23 -94 91 -150 100 -27 4 -65 15 -84 25 -34 17 -296 54 -350 50 -14
-1 -52 -2 -85 -2 -33 1 -73 -4 -90 -10 -94 -36 -104 -42 -111 -73 -3 -17 -16
-39 -27 -48 -22 -17 -22 -17 -2 -24 11 -4 60 -29 108 -56 90 -49 86 -48 402
-116 50 -11 124 -25 165 -31 118 -20 119 -20 131 -44 6 -12 29 -43 50 -69 22
-26 39 -51 39 -57 0 -6 3 -11 8 -11 4 -1 23 -14 42 -30 33 -29 33 -30 15 -45
-15 -11 -40 -14 -107 -11 -48 2 -88 1 -90 -3 -9 -20 -168 -113 -226 -132 -37
-12 -74 -28 -83 -35 -8 -8 -20 -14 -26 -14 -6 0 -27 -13 -48 -30 -21 -16 -42
-30 -47 -30 -6 0 -28 -16 -51 -35 -22 -19 -58 -40 -79 -46 -27 -7 -38 -15 -38
-29 0 -10 -17 -31 -37 -46 -49 -35 -83 -75 -83 -95 0 -9 -6 -22 -14 -28 -8 -7
-21 -33 -29 -59 -17 -51 -26 -186 -14 -198 4 -4 7 -15 7 -25 0 -10 8 -24 18
-31 9 -7 26 -26 36 -43 22 -35 153 -165 166 -165 5 0 12 -9 15 -21 4 -12 28
-30 55 -43 27 -12 65 -37 85 -54 20 -18 47 -32 62 -32 35 0 105 -21 124 -37 8
-7 22 -13 30 -13 8 0 32 -11 54 -25 23 -14 56 -25 77 -25 23 0 46 -8 65 -24
15 -13 47 -27 70 -31 23 -3 47 -13 54 -21 6 -8 18 -14 26 -14 17 0 16 -5 -16
-90 -12 -30 -21 -67 -21 -82 0 -24 -6 -28 -57 -43 -32 -9 -85 -25 -118 -36
-33 -12 -108 -34 -167 -49 -59 -16 -120 -35 -135 -43 -15 -8 -59 -22 -97 -30
-38 -9 -72 -21 -76 -28 -5 -7 -35 -13 -70 -15 -34 -2 -67 -8 -74 -14 -15 -12
-18 -87 -5 -112 7 -14 21 -17 57 -16 26 0 112 0 192 -1 170 -3 288 11 520 63
41 9 122 17 180 18 75 0 113 5 132 16 23 13 29 14 43 2 15 -12 18 -12 26 3 13
22 78 52 106 49 14 -2 23 2 23 10 1 15 88 84 96 75 3 -3 -2 -26 -10 -51 -9
-26 -16 -54 -16 -62 0 -14 -67 -135 -90 -161 -6 -7 -13 -26 -16 -43 -4 -16
-14 -32 -23 -35 -23 -7 -33 -152 -16 -218 6 -24 3 -33 -19 -53 -21 -20 -26
-34 -26 -70 0 -42 2 -46 35 -60 78 -32 141 -5 160 69 7 27 17 53 24 60 6 6 11
28 11 48 0 28 5 38 20 42 22 6 27 36 9 54 -7 7 -8 19 -3 30 4 10 8 50 9 88 0
66 1 70 24 73 49 7 135 98 130 135 -3 15 10 46 31 77 10 14 21 45 25 70 9 58
29 96 58 111 31 16 37 28 37 72 0 20 4 37 9 37 11 0 32 -25 27 -31 -3 -2 -11
-46 -20 -97 -8 -51 -19 -99 -25 -106 -6 -7 -10 -29 -9 -49 1 -20 -4 -42 -9
-49 -6 -7 -14 -32 -18 -56 -4 -23 -14 -49 -23 -58 -10 -10 -15 -32 -14 -62 1
-47 -31 -169 -54 -207 -16 -28 -27 -105 -14 -105 16 0 12 -25 -10 -53 -15 -19
-20 -40 -20 -91 0 -37 -5 -75 -12 -86 -9 -15 -9 -24 1 -44 8 -13 11 -31 8 -38
-2 -8 -2 -45 2 -83 5 -46 4 -76 -3 -88 -9 -14 -7 -20 6 -28 10 -5 20 -28 23
-53 9 -57 35 -69 158 -70 100 0 166 10 206 30 32 17 38 5 17 -36 -8 -17 -12
-38 -9 -46 3 -8 1 -20 -5 -27 -5 -6 -10 -30 -10 -52 -1 -38 -8 -163 -14 -230
-2 -16 -6 -35 -10 -41 -4 -6 -1 -28 7 -50 8 -21 14 -51 15 -65 0 -15 7 -29 15
-33 8 -3 15 -17 15 -31 0 -14 9 -42 20 -62 11 -21 20 -43 20 -50 0 -7 4 -13
10 -13 5 0 17 -17 27 -37 25 -54 49 -70 106 -72 26 0 52 -3 57 -6 5 -3 29 -1
52 6 24 6 59 13 79 14 48 4 91 27 123 67 57 69 82 95 103 107 12 6 30 28 39
49 10 20 23 44 29 52 7 8 15 26 18 40 10 43 40 124 52 140 19 25 35 70 35 99
0 15 7 50 16 77 8 27 17 68 19 91 2 23 10 57 18 75 8 18 15 51 15 73 1 22 8
57 16 77 9 21 16 48 16 60 0 13 7 36 15 52 8 15 15 39 15 52 0 12 4 25 9 28 5
4 12 30 16 59 4 28 13 81 21 117 8 36 14 89 14 118 0 40 5 57 21 73 18 18 20
25 10 40 -13 23 -15 98 -1 133 5 14 13 85 17 158 9 165 9 178 -1 310 -8 104
-7 106 14 113 15 5 31 1 49 -12 14 -10 43 -27 64 -37 21 -10 41 -24 44 -32 3
-8 10 -11 15 -8 6 4 14 0 19 -7 5 -8 21 -13 39 -11 16 2 30 -1 30 -6 0 -5 15
-12 32 -16 18 -4 48 -17 68 -30 19 -13 57 -26 84 -30 35 -6 62 -18 88 -41 22
-18 53 -35 70 -39 17 -3 47 -16 67 -28 76 -48 256 -71 277 -36 3 5 7 30 9 55
4 63 -18 98 -96 156 -35 26 -73 56 -84 66 -27 24 -107 45 -147 38 -18 -2 -43
-1 -55 4 -36 13 -153 109 -153 125 0 20 44 17 64 -5 11 -12 25 -16 41 -13 17
3 27 -1 31 -12 11 -28 164 -20 226 11 26 12 58 23 72 23 14 0 46 11 71 25 26
13 62 27 81 31 19 3 39 15 45 25 5 11 19 19 31 19 12 0 29 7 39 16 29 26 55 9
70 -44 7 -26 19 -58 26 -72 7 -14 13 -32 13 -41 0 -9 8 -27 19 -40 10 -13 40
-64 66 -114 26 -49 60 -107 76 -127 16 -20 29 -40 29 -45 0 -4 16 -26 35 -47
19 -22 35 -43 35 -48 0 -8 12 -23 64 -84 35 -42 86 -47 111 -11 14 20 14 23
-3 37 -10 8 -21 23 -25 33 -3 9 -13 17 -22 17 -8 0 -15 7 -15 16 0 8 -13 35
-30 59 -16 24 -30 53 -30 64 0 12 -4 21 -9 21 -13 0 -54 59 -56 79 0 9 -15 37
-32 61 -46 68 -103 186 -103 216 0 14 -9 37 -20 51 -11 14 -20 34 -20 45 0 11
-6 26 -14 34 -10 9 -13 27 -10 54 3 23 -1 53 -8 68 -7 15 -12 50 -10 77 1 28
4 88 6 134 3 76 6 85 27 98 l24 14 -27 -5 c-29 -7 -31 -3 -44 67 -3 20 -10 40
-15 43 -5 3 -9 13 -9 22 0 9 -7 30 -15 46 -14 26 -13 30 5 53 11 14 20 37 20
51 0 29 34 87 55 96 8 3 15 12 15 19 0 8 8 23 18 35 60 71 111 138 163 219 88
134 255 299 335 332 29 11 62 57 50 69 -3 3 -41 5 -83 5 -73 0 -83 -2 -145
-39 -71 -41 -159 -120 -199 -179 -13 -19 -34 -40 -46 -46 -13 -7 -23 -19 -23
-26 0 -13 -56 -88 -129 -173 -35 -41 -74 -92 -114 -149 -31 -45 -47 -52 -47
-22 0 28 -97 123 -151 149 -57 28 -149 52 -195 52 -19 0 -43 6 -54 12 -16 10
-24 10 -39 1 -11 -7 -56 -12 -108 -12 -89 1 -136 -10 -233 -53 -40 -19 -120
-91 -120 -111 0 -8 -60 -47 -72 -47 -5 0 -8 5 -8 12 0 15 50 68 65 68 6 0 21
10 32 23 46 51 140 133 168 147 36 18 63 47 71 77 3 12 16 24 29 27 13 3 38
18 56 33 21 18 41 26 59 25 34 -4 169 39 220 69 8 5 22 12 30 15 8 3 42 19 75
34 33 16 80 35 105 41 63 18 87 36 92 68 3 23 -1 30 -24 39 -18 6 -28 18 -28
31 0 28 -12 33 -93 37 -143 9 -186 6 -214 -12 -12 -8 -29 -14 -36 -14 -8 0
-34 -16 -58 -35 -24 -19 -49 -35 -55 -35 -6 0 -17 -6 -23 -14 -7 -8 -42 -15
-96 -18 -59 -4 -89 -11 -100 -22 -9 -9 -28 -16 -42 -16 -14 0 -38 -10 -54 -22
-15 -13 -55 -43 -89 -68 -33 -24 -79 -66 -101 -92 -22 -27 -49 -48 -60 -48
-19 0 -27 24 -10 34 11 7 19 71 32 261 13 194 12 174 6 265 -2 41 0 94 6 118
7 30 6 46 -2 56 -8 10 -10 40 -6 96 3 44 1 88 -4 98 -5 9 -12 46 -15 82 -4 36
-9 79 -12 95 -2 17 -7 54 -10 83 -3 28 -11 73 -19 98 -7 25 -11 52 -9 59 3 7
1 16 -5 20 -6 3 -11 20 -11 36 0 17 -5 50 -11 75 -11 41 -10 47 11 69 l22 23
-28 4 c-25 3 -29 7 -26 31 2 15 -5 40 -16 55 -12 18 -17 42 -16 72 2 42 -4 64
-52 177 -8 17 -14 42 -14 55 0 13 -5 29 -11 35 -6 6 -12 41 -13 79 -5 92 -15
142 -39 184 -36 63 -47 85 -47 95 0 6 -13 25 -30 43 -16 18 -30 39 -30 47 0
15 -59 55 -81 55 -8 0 -31 9 -52 20 -43 23 -51 24 -65 7z m18 -307 c0 -5 -5
-10 -11 -10 -7 0 -10 -30 -9 -82 1 -91 -8 -215 -17 -238 -4 -8 -5 -19 -3 -25
2 -5 4 -34 5 -63 2 -29 8 -58 14 -65 6 -8 7 -25 3 -40 l-7 -28 -40 36 c-48 42
-47 41 -83 85 -40 51 -49 78 -46 142 3 61 22 104 79 178 18 25 34 52 34 61 2
31 81 79 81 49z m177 -62 c-4 -12 -1 -28 4 -35 14 -16 14 -59 -2 -163 -7 -47
-13 -105 -14 -130 0 -25 -6 -55 -13 -68 -14 -25 -9 -42 13 -42 8 0 12 -6 9
-14 -4 -11 7 -14 55 -13 33 1 62 -1 66 -4 3 -4 6 -37 6 -75 1 -55 -3 -71 -18
-84 -20 -17 -47 -85 -39 -99 9 -13 -31 -44 -49 -37 -11 4 -14 13 -10 29 7 25
-45 132 -73 153 -10 8 -13 20 -8 40 4 16 7 34 6 39 -2 54 -12 123 -25 185 -9
41 -13 86 -9 100 4 14 7 28 6 32 -6 28 21 216 34 235 l15 24 26 -25 c18 -18
24 -32 20 -48z m-334 -526 c69 -62 135 -112 146 -112 6 0 11 -9 11 -20 0 -12
12 -26 31 -35 18 -10 29 -22 26 -30 -7 -15 4 -90 33 -231 9 -46 9 -67 1 -82
-12 -22 -6 -67 12 -90 5 -7 7 -15 4 -18 -3 -3 -2 -17 3 -30 7 -18 6 -24 -4
-24 -8 0 -16 7 -20 15 -3 8 -12 15 -19 15 -8 0 -42 27 -76 61 -56 55 -62 64
-58 93 5 27 -11 94 -34 151 -7 17 -13 59 -18 132 -1 7 -15 28 -32 47 -17 20
-28 40 -24 46 4 6 -7 23 -23 38 -17 16 -31 41 -35 64 -10 61 15 65 76 10z
m-199 -219 c31 -21 59 -45 62 -55 3 -10 10 -18 15 -18 5 0 9 -9 9 -20 0 -11
-4 -20 -10 -20 -5 0 -17 -16 -26 -36 -9 -20 -28 -41 -41 -47 -16 -7 -22 -16
-18 -28 4 -10 -1 -21 -10 -27 -17 -9 -37 -39 -56 -84 -6 -16 -14 -28 -19 -28
-15 0 -40 106 -38 161 1 35 -3 63 -11 72 -20 25 -51 90 -51 108 0 23 30 47 65
52 62 9 74 6 129 -30z m-309 -55 c3 -18 9 -52 12 -75 3 -26 10 -43 18 -43 22
0 36 -26 39 -72 1 -23 7 -52 13 -63 11 -20 16 -53 14 -92 -1 -28 -27 -30 -41
-3 -6 10 -29 25 -53 31 -23 7 -49 20 -59 30 -9 11 -23 19 -31 19 -9 0 -22 6
-30 14 -7 8 -25 16 -38 18 -21 3 -24 9 -27 55 -3 43 0 53 17 63 11 6 23 25 27
44 3 19 12 37 20 40 8 3 14 14 14 25 0 25 25 40 66 41 28 0 33 -4 39 -32z
m1024 -143 c-2 -101 7 -185 21 -185 18 0 32 -212 15 -239 -8 -14 -94 -56 -100
-49 -3 2 -8 47 -11 99 -5 62 -13 107 -26 133 -27 54 -22 135 15 220 9 21 17
43 17 48 0 5 7 19 15 32 9 13 15 28 13 32 -1 5 4 20 11 34 l14 24 9 -24 c5
-13 8 -69 7 -125z m-569 -48 c0 -13 4 -27 10 -33 5 -5 10 -25 11 -44 1 -19 6
-45 12 -57 7 -16 7 -26 -2 -37 -8 -10 -9 -16 -1 -21 5 -3 7 -18 4 -33 -4 -15
-7 -49 -8 -77 -1 -39 -5 -49 -16 -46 -8 3 -45 7 -81 10 -46 4 -74 12 -90 26
-13 11 -26 21 -28 22 -3 2 5 13 17 26 12 12 28 40 36 62 27 75 64 151 80 164
9 7 16 19 16 25 0 14 20 36 32 36 4 0 8 -10 8 -23z m-569 -182 c19 -13 48 -32
64 -41 55 -31 94 -65 89 -78 -7 -17 28 -26 51 -13 14 7 23 3 44 -19 30 -34 61
-87 61 -105 0 -7 7 -20 15 -29 11 -13 14 -28 9 -57 -9 -58 -25 -64 -129 -43
-103 20 -135 31 -154 54 -7 9 -24 16 -37 16 -17 0 -24 6 -24 19 0 11 -9 35
-20 54 -26 44 -44 204 -27 241 15 32 16 32 58 1z m804 -126 c17 -10 42 -24 57
-30 20 -8 31 -22 38 -49 6 -21 17 -43 25 -50 17 -14 20 -41 6 -55 -6 -6 -5
-32 1 -65 17 -94 9 -188 -22 -251 -5 -9 -4 -22 1 -30 12 -19 11 -39 -1 -39
-15 0 -91 57 -108 81 -18 26 -22 77 -9 107 8 17 7 25 -6 35 -14 10 -15 21 -8
65 5 32 4 55 -1 58 -5 4 -7 16 -4 29 3 12 2 25 -2 29 -4 4 -7 38 -8 74 0 37
-4 77 -8 90 -10 28 7 28 49 1z m-200 -121 c3 -13 10 -52 15 -88 5 -36 12 -82
16 -102 4 -24 2 -38 -4 -38 -13 0 -34 62 -30 87 2 12 -3 18 -16 18 -14 0 -22
10 -28 33 -5 19 -18 36 -29 41 -19 6 -19 8 -5 20 9 8 16 19 16 26 0 30 55 32
65 3z m591 -184 c8 -90 5 -199 -6 -228 -4 -13 -4 -29 0 -37 6 -8 4 -20 -6 -30
-13 -14 -13 -18 1 -29 16 -13 21 -75 6 -84 -5 -4 -9 -26 -9 -50 1 -25 -6 -55
-15 -69 -12 -19 -14 -33 -7 -55 6 -23 5 -34 -6 -43 -16 -13 -77 -4 -92 14 -28
34 -36 185 -17 332 3 22 7 67 9 100 5 64 27 119 51 129 8 3 15 11 15 18 0 23
53 119 62 110 4 -4 11 -39 14 -78z m-970 -104 c158 -17 219 -32 234 -60 6 -10
20 -20 32 -22 17 -2 27 -16 41 -53 11 -27 27 -65 36 -84 9 -19 17 -62 18 -95
1 -34 5 -79 8 -102 l7 -41 -59 -6 c-32 -3 -88 -15 -125 -27 l-68 -23 -22 29
c-13 16 -22 35 -20 42 2 7 -2 20 -9 28 -6 8 -9 23 -6 35 4 15 0 23 -12 26 -10
3 -26 21 -34 41 -9 21 -21 44 -26 52 -5 8 -17 32 -25 52 -9 20 -21 40 -26 43
-6 3 -10 16 -10 27 0 11 -8 35 -19 52 -10 17 -22 48 -25 70 -7 35 -6 38 11 32
10 -4 54 -11 99 -16z m650 -274 c36 -34 36 -36 30 -89 -7 -51 -9 -55 -39 -62
-55 -13 -98 -15 -92 -5 4 6 1 10 -4 10 -14 0 -6 89 9 104 5 5 10 22 10 37 0
26 10 36 37 38 7 1 29 -14 49 -33z m-1603 -372 c41 -7 57 -28 38 -47 -6 -6
-11 -20 -11 -30 0 -10 -9 -21 -20 -24 -16 -4 -20 -14 -20 -43 0 -21 -7 -43
-15 -50 -8 -7 -12 -16 -9 -22 3 -5 0 -16 -7 -24 -6 -8 -12 -36 -13 -63 -1 -29
-8 -57 -17 -67 -16 -20 -20 -99 -6 -121 4 -6 2 -23 -5 -38 -9 -20 -9 -39 0
-84 7 -31 12 -69 12 -83 0 -14 6 -31 14 -37 14 -12 28 -81 16 -81 -11 0 -2
-61 12 -78 42 -54 49 -95 17 -112 -20 -11 -30 -8 -67 28 -7 6 -17 12 -21 12
-4 0 -13 15 -19 34 -7 19 -19 37 -27 40 -9 3 -15 18 -15 35 0 20 -6 30 -20 34
-16 4 -20 14 -20 50 0 25 -4 49 -10 52 -5 3 -10 17 -10 31 0 13 -4 24 -8 24
-20 0 -30 52 -26 136 5 100 9 138 19 153 3 6 1 11 -4 11 -17 0 -13 28 8 49 14
14 17 27 12 57 -5 31 -2 46 16 73 13 19 23 44 23 57 0 24 3 26 50 28 27 1 32
22 17 78 -10 38 5 41 116 22z m357 6 c0 -11 -18 -46 -36 -70 -6 -8 -14 -28
-16 -45 -10 -58 -41 -160 -54 -180 -17 -24 -18 -69 -2 -95 10 -15 9 -22 -5
-38 -9 -10 -17 -26 -17 -36 0 -9 -7 -28 -16 -41 -15 -22 -14 -27 11 -69 19
-32 24 -52 19 -68 -16 -50 -11 -93 13 -129 23 -35 24 -39 9 -67 -14 -26 -14
-31 -1 -42 8 -7 15 -21 15 -31 0 -10 5 -21 10 -24 18 -11 11 -21 -23 -33 -48
-17 -52 -16 -96 31 -43 45 -50 64 -26 73 20 8 19 31 -1 42 -12 7 -15 18 -11
38 8 41 -2 79 -26 105 -18 20 -19 26 -8 69 9 37 9 53 0 74 -10 22 -10 29 0 35
8 5 11 17 6 30 -4 13 -1 28 5 37 8 9 10 29 6 53 -3 22 -1 52 5 68 6 15 12 41
14 56 5 37 73 157 89 157 8 0 13 15 14 44 0 25 3 50 7 55 8 14 115 14 115 1z
m297 -56 c12 -2 23 -12 25 -22 7 -30 -20 -92 -52 -119 -17 -14 -29 -32 -26
-39 3 -8 -3 -18 -14 -24 -16 -9 -18 -18 -14 -58 5 -43 3 -50 -27 -82 -30 -31
-34 -43 -37 -103 -3 -43 0 -73 7 -80 6 -6 11 -22 11 -35 0 -13 12 -39 26 -57
14 -19 23 -39 19 -45 -3 -5 1 -13 10 -16 12 -5 15 -14 10 -31 -4 -16 1 -32 15
-50 21 -27 19 -43 -6 -43 -8 0 -14 -6 -14 -12 0 -7 -14 -26 -30 -42 -28 -28
-30 -28 -54 -12 -26 16 -51 82 -41 108 3 8 -10 34 -30 59 -32 40 -35 50 -35
104 0 33 0 71 0 85 0 14 7 30 15 36 14 11 14 76 -1 126 -8 26 16 89 46 121 20
23 25 38 25 83 0 40 5 59 17 68 9 7 16 19 15 28 -1 9 14 27 33 40 33 23 47 24
107 12z m-1043 -91 c-3 -27 -10 -53 -15 -58 -10 -14 -15 -77 -6 -91 3 -6 -2
-26 -12 -45 -16 -32 -22 -122 -7 -136 3 -3 -3 -18 -14 -33 -26 -37 -26 -86 0
-100 11 -6 17 -16 14 -25 -3 -8 4 -28 15 -44 17 -24 19 -34 11 -57 -6 -16 -7
-30 -2 -33 5 -3 19 -25 31 -48 11 -23 25 -45 31 -48 6 -4 8 -15 5 -26 -4 -13
-2 -19 9 -19 9 0 16 -9 16 -20 0 -11 -5 -20 -11 -20 -20 0 -67 33 -77 54 -5
12 -17 38 -25 59 -11 24 -23 37 -36 37 -31 0 -43 27 -47 105 -4 74 -22 115
-51 115 -23 0 -33 78 -15 120 7 19 6 30 -4 45 -14 18 -11 75 5 100 3 6 11 28
16 50 8 32 18 44 53 63 23 13 42 31 42 40 0 22 40 62 62 62 17 0 18 -5 12 -47z
m-384 -227 c0 -8 -4 -18 -10 -21 -5 -3 -10 -15 -10 -25 0 -12 -9 -20 -22 -22
-22 -4 -22 -5 4 -18 42 -20 60 -54 46 -84 -8 -20 -8 -29 2 -41 7 -8 14 -41 16
-72 2 -40 8 -61 20 -70 26 -19 9 -27 -25 -12 -16 7 -32 24 -36 36 -3 13 -16
25 -29 29 -13 3 -33 15 -44 27 -22 24 -52 106 -52 140 1 36 35 88 76 118 44
31 64 36 64 15z m2953 -508 c34 -77 32 -81 -25 -42 -42 30 -45 36 -22 58 22
23 31 20 47 -16z m-1343 -57 c0 -11 11 -33 25 -49 20 -24 24 -37 19 -63 -9
-54 -25 -89 -45 -100 -17 -9 -19 -6 -19 23 -1 18 -3 66 -6 106 -3 40 -3 79 0
87 8 21 26 18 26 -4z m1530 -156 c8 -7 23 -15 33 -18 20 -7 23 -27 3 -27 -17
0 -78 42 -84 58 -4 14 24 6 48 -13z m-1275 -76 c4 -5 18 -14 31 -19 24 -10 32
-34 14 -45 -5 -3 -10 -15 -10 -26 0 -10 -4 -19 -10 -19 -5 0 -10 -9 -10 -21 0
-30 -101 -132 -145 -145 l-36 -11 7 56 c3 31 10 64 15 73 5 9 9 26 9 37 0 11
9 25 21 31 11 7 18 18 15 25 -2 7 0 27 7 44 10 27 16 31 49 31 20 0 40 -5 43
-11z m-265 -28 c0 -9 -7 -26 -15 -37 -14 -18 -15 -18 -11 6 3 14 5 33 5 43 1
23 21 12 21 -12z m1025 -24 c4 -12 4 -51 1 -86 -3 -48 -9 -66 -24 -77 -12 -8
-18 -21 -15 -32 4 -18 -10 -44 -72 -135 -28 -40 -45 -41 -45 -2 0 13 -5 36
-11 52 -6 15 -11 60 -11 100 0 53 -3 73 -14 77 -27 11 -13 25 59 59 40 19 79
42 86 51 19 23 40 20 46 -7z m-342 -106 c-28 -23 -28 -27 -4 -34 12 -3 21 -17
25 -43 11 -69 14 -83 22 -96 5 -7 7 -23 5 -36 -1 -13 3 -29 9 -37 8 -10 8 -19
1 -33 -9 -18 -18 -19 -73 -15 -35 3 -68 9 -73 14 -7 5 -10 56 -9 136 3 119 4
128 26 145 13 10 39 18 58 17 l35 0 -22 -18z m-239 -54 c6 -24 -10 -94 -25
-113 -11 -13 4 -101 20 -117 18 -18 13 -62 -10 -83 -14 -13 -18 -25 -14 -42 4
-16 0 -31 -11 -43 -13 -15 -15 -22 -6 -31 16 -16 3 -69 -25 -99 -19 -21 -25
-39 -27 -91 -3 -61 -18 -108 -34 -108 -14 0 -33 59 -32 102 0 23 1 67 1 96 -1
35 8 72 25 109 21 48 23 61 13 80 -10 18 -7 29 16 70 14 26 28 68 30 92 1 24
8 47 15 51 7 4 10 12 6 18 -3 6 0 14 8 19 12 7 20 40 25 106 2 17 19 5 25 -16z
m-252 -258 c-4 -45 -24 -89 -42 -89 -19 0 -88 -73 -83 -87 5 -14 -13 -43 -27
-43 -14 0 -4 112 15 169 17 49 22 55 69 77 28 12 56 21 61 20 6 -2 9 -23 7
-47z m828 -63 c0 -25 -5 -48 -11 -51 -6 -4 -8 -22 -4 -44 3 -20 2 -48 -4 -63
-7 -18 -6 -29 2 -37 8 -8 7 -18 -6 -40 -13 -22 -15 -39 -9 -72 4 -24 5 -77 2
-117 -6 -88 -27 -111 -100 -112 -26 0 -50 -4 -55 -9 -20 -18 -82 -49 -116 -56
-33 -7 -33 -7 -18 11 9 11 19 42 21 69 3 28 22 91 42 140 21 50 41 107 45 128
5 21 16 46 25 56 9 9 16 23 16 29 0 6 14 18 30 27 17 9 30 23 30 33 0 9 21 44
45 76 25 33 45 63 45 68 0 4 5 8 10 8 6 0 10 -20 10 -44z m-328 -91 c-2 -16
-6 -56 -8 -88 -4 -35 -11 -60 -19 -63 -8 -3 -11 -12 -9 -19 3 -7 1 -16 -5 -20
-6 -3 -11 -19 -11 -35 0 -20 -6 -31 -20 -35 -17 -5 -20 -15 -20 -59 0 -28 -5
-57 -12 -64 -6 -6 -18 -32 -27 -58 -13 -39 -24 -52 -57 -69 -48 -25 -104 -39
-104 -25 0 5 7 26 16 47 9 21 21 47 25 58 5 11 15 47 24 79 8 33 22 67 30 76
8 9 15 28 15 43 0 14 10 35 21 46 14 13 23 36 26 63 2 23 8 47 13 52 6 6 10
17 10 26 0 24 69 82 93 78 18 -2 21 -9 19 -33z m-607 -332 c-3 -27 -8 -70 -10
-97 -3 -27 -11 -59 -20 -72 -20 -31 -78 -84 -91 -84 -7 0 -14 -7 -18 -15 -3
-8 -10 -15 -16 -15 -15 0 -12 32 5 54 12 15 13 38 9 100 -8 96 12 164 43 151
39 -16 50 -15 67 4 29 32 38 25 31 -26z m174 -107 l23 -24 -36 -51 c-20 -28
-36 -57 -36 -65 0 -7 -9 -25 -21 -40 -11 -14 -35 -54 -53 -88 -32 -63 -37 -67
-96 -88 -72 -25 -70 -25 -70 8 0 23 10 39 38 64 21 18 49 49 62 68 13 19 35
49 49 65 25 29 74 120 85 158 7 24 28 21 55 -7z m675 -151 c-4 -11 -13 -36
-22 -55 -18 -42 -20 -52 -28 -110 -4 -24 -13 -54 -21 -66 -8 -13 -11 -32 -8
-47 7 -25 -11 -133 -24 -152 -4 -5 -13 -35 -20 -66 -6 -31 -20 -65 -31 -77
-20 -22 -10 -22 -160 9 -30 6 -67 16 -81 22 -27 11 -27 8 -1 87 3 8 4 23 3 32
-2 20 39 107 69 145 11 14 20 36 20 50 0 14 13 35 33 53 18 16 42 45 52 64 11
20 24 36 28 36 5 0 26 14 47 30 21 17 47 30 59 30 11 0 25 9 31 20 15 28 63
24 54 -5z m-446 -144 c2 -41 -1 -57 -12 -63 -10 -5 -16 -23 -16 -42 0 -19 -7
-39 -15 -46 -8 -7 -15 -22 -15 -34 0 -27 -9 -40 -39 -56 -24 -12 -24 -13 -6
-26 15 -11 17 -18 7 -36 -6 -13 -12 -31 -14 -41 -3 -20 -73 -65 -84 -54 -4 3
-3 14 1 24 4 10 9 40 10 66 1 27 8 53 15 57 13 8 31 89 34 155 0 22 5 45 9 52
4 7 5 22 2 35 -4 19 2 27 37 45 67 35 82 28 86 -36z m-109 -585 c15 -17 19
-53 20 -173 0 -17 5 -34 11 -38 5 -3 10 -15 10 -25 0 -10 10 -26 23 -35 19
-13 20 -17 7 -25 -8 -5 -29 -10 -45 -10 -41 0 -67 32 -69 86 -1 23 -10 53 -19
68 -9 14 -17 38 -17 54 0 15 -5 33 -11 39 -16 16 -1 52 35 85 27 25 31 26 35
11 1 -10 10 -26 20 -37z m349 29 c19 -7 -13 -58 -61 -100 -34 -29 -36 -34 -22
-48 8 -9 15 -21 15 -27 0 -20 -44 -70 -61 -70 -10 0 -27 -10 -39 -22 -15 -16
-20 -18 -20 -7 0 8 6 21 12 27 9 9 10 17 1 30 -6 10 -14 47 -18 82 -4 36 -12
71 -17 77 -18 23 -1 61 30 65 34 5 162 -1 180 -7z"/>
<path d="M7107 6151 c-15 -26 -15 -32 -2 -64 8 -20 19 -38 25 -42 5 -3 10 -15
10 -25 0 -10 15 -49 34 -85 19 -36 32 -74 29 -84 -3 -11 6 -30 21 -45 13 -15
28 -41 31 -57 4 -16 11 -32 16 -35 6 -3 14 -16 20 -27 5 -12 27 -49 49 -82 22
-33 42 -67 45 -75 4 -9 21 -26 40 -39 19 -12 35 -32 37 -44 2 -13 14 -24 33
-30 17 -5 50 -26 74 -45 l43 -35 -6 -54 c-3 -29 -3 -53 1 -53 5 0 8 -37 9 -83
0 -55 8 -104 22 -149 12 -37 22 -76 22 -87 0 -11 5 -23 10 -26 6 -3 10 -15 10
-26 0 -11 9 -39 20 -61 11 -23 20 -45 20 -50 0 -14 -64 -25 -81 -15 -13 8 -24
4 -49 -16 -23 -20 -43 -27 -74 -27 -29 0 -52 -8 -76 -25 -19 -14 -37 -25 -42
-25 -4 0 -30 -13 -58 -30 -28 -16 -54 -30 -58 -30 -4 0 -18 18 -32 40 -14 22
-28 40 -32 40 -11 0 -38 56 -38 78 0 10 -13 28 -30 40 -23 17 -30 30 -30 56 0
18 -10 49 -23 67 -24 35 -27 45 -67 199 -11 47 -25 93 -30 102 -5 9 -12 46
-16 83 -4 36 -11 68 -15 71 -5 3 -9 18 -9 33 0 15 -5 32 -10 37 -6 6 -11 59
-13 119 -2 108 -2 109 -34 142 -37 37 -36 33 -24 66 8 20 5 28 -12 44 -19 17
-37 19 -152 17 -202 -2 -380 18 -495 57 -30 10 -64 18 -75 17 -29 -2 -261 79
-290 102 -5 4 -29 10 -52 13 -40 5 -43 3 -63 -30 -11 -19 -20 -40 -20 -48 0
-24 22 -63 39 -69 9 -3 54 -26 101 -51 47 -24 95 -45 108 -45 13 0 36 -7 51
-15 15 -7 67 -20 115 -27 47 -6 86 -17 86 -23 0 -6 19 -11 43 -11 73 -2 136
-11 150 -23 8 -6 16 -8 19 -5 3 3 32 7 64 9 33 2 93 6 134 9 135 10 156 8 132
-16 -7 -7 -12 -21 -12 -33 0 -12 -6 -27 -12 -34 -11 -11 -10 -13 4 -8 34 12
45 -31 50 -200 0 -13 4 -23 8 -23 9 0 11 -8 13 -85 1 -28 10 -61 19 -75 9 -14
20 -38 24 -55 4 -16 11 -39 17 -50 6 -11 12 -27 13 -35 7 -52 26 -124 38 -148
8 -16 13 -38 10 -49 -3 -12 -1 -30 5 -42 12 -21 -2 -31 -14 -11 -3 6 -23 10
-43 10 -21 0 -48 9 -62 20 -14 11 -34 20 -45 20 -11 0 -31 9 -45 20 -17 14
-41 20 -76 20 -29 0 -66 6 -84 14 -24 10 -43 11 -74 4 -22 -6 -94 -7 -158 -4
-131 6 -208 0 -208 -19 0 -8 -23 -15 -60 -19 -33 -4 -77 -14 -97 -22 -49 -21
-66 -24 -143 -30 -56 -3 -104 -17 -195 -54 -40 -16 -88 -30 -107 -30 -10 0
-34 -16 -54 -35 -19 -19 -43 -35 -53 -35 -10 0 -21 -9 -24 -20 -3 -11 -20 -29
-39 -40 -45 -26 -62 -61 -46 -95 6 -14 15 -25 21 -25 5 0 6 -11 3 -25 -4 -15
-1 -34 8 -48 9 -14 14 -45 13 -84 -2 -68 4 -77 66 -88 26 -5 52 -23 89 -61 30
-30 62 -54 74 -54 11 0 29 -9 38 -19 10 -11 24 -17 31 -15 7 3 15 -2 18 -10 4
-9 18 -16 32 -16 16 0 25 -6 25 -16 0 -12 6 -15 24 -10 14 3 28 2 31 -4 3 -5
40 -10 81 -10 41 0 82 -5 92 -11 13 -8 29 -8 61 4 31 10 55 12 80 6 20 -5 56
-9 80 -9 27 0 52 -7 63 -16 14 -14 21 -14 32 -4 19 15 367 5 398 -11 14 -7 23
-7 33 1 8 7 52 13 97 15 62 2 92 7 118 23 79 46 105 33 55 -26 -14 -17 -25
-34 -25 -39 0 -5 -16 -28 -35 -50 -19 -23 -35 -50 -35 -60 0 -11 -11 -30 -25
-43 -14 -13 -25 -35 -25 -49 -1 -45 -26 -134 -53 -186 -14 -27 -26 -64 -25
-80 0 -17 -6 -46 -14 -65 -14 -32 -25 -70 -48 -167 -6 -25 -3 -36 11 -52 19
-21 25 -40 12 -42 -22 -2 -103 -9 -138 -13 -34 -3 -87 -26 -155 -65 -8 -5 -35
-18 -60 -30 -103 -48 -145 -78 -226 -159 -83 -84 -145 -165 -158 -208 -4 -12
-16 -24 -26 -27 -46 -12 -11 -94 52 -126 50 -25 57 -21 115 68 20 31 52 72 72
92 20 20 61 62 91 93 30 32 71 66 91 76 19 10 41 26 48 34 8 9 17 16 22 16 4
0 25 11 45 25 21 14 49 28 63 32 14 3 35 14 47 24 20 19 152 43 179 33 7 -3
30 12 52 34 42 40 42 59 1 75 -10 3 -18 12 -18 18 0 7 8 21 18 32 10 11 17 37
18 63 1 25 12 64 28 93 14 28 26 62 26 75 0 14 5 28 10 31 6 3 10 14 10 23 0
10 9 35 20 57 11 22 20 49 20 62 0 12 11 46 25 75 25 54 35 71 71 123 11 17
26 46 34 65 19 47 50 100 59 100 4 0 13 18 20 40 6 21 19 45 29 52 9 7 30 32
46 56 32 47 67 62 94 40 49 -41 239 -95 361 -101 19 -1 37 -9 41 -17 21 -42
37 -111 39 -164 1 -32 11 -83 22 -113 12 -29 18 -60 16 -68 -3 -7 5 -35 18
-62 42 -86 63 -137 70 -169 3 -17 19 -45 35 -62 16 -18 26 -32 23 -32 -3 0 13
-18 36 -40 22 -22 41 -44 41 -49 0 -4 -27 -26 -61 -47 -67 -41 -199 -178 -199
-205 0 -9 -6 -22 -14 -28 -8 -7 -17 -24 -21 -38 -3 -15 -17 -40 -31 -56 -13
-16 -24 -36 -24 -45 0 -9 -12 -35 -25 -57 -14 -22 -25 -50 -25 -62 0 -12 -4
-25 -10 -28 -5 -3 -10 -16 -10 -29 0 -12 -9 -32 -20 -44 -11 -12 -20 -25 -20
-31 0 -5 -8 -22 -17 -39 -9 -16 -13 -35 -10 -43 35 -71 79 -106 120 -95 22 6
41 39 73 131 9 28 21 54 26 60 4 5 8 16 8 25 0 8 9 32 20 53 11 20 20 48 20
61 0 13 7 29 15 36 8 7 15 18 15 24 0 7 11 27 24 45 14 18 36 56 51 85 26 51
89 122 165 185 22 18 43 45 47 60 3 14 14 32 25 39 37 27 41 50 14 83 -14 17
-26 35 -26 39 0 5 -15 24 -32 43 -18 18 -41 47 -51 63 -9 16 -26 43 -36 59
-11 17 -25 53 -32 80 -7 28 -19 57 -26 65 -16 21 -43 147 -48 230 -2 36 -7 73
-10 82 -18 46 33 83 80 58 15 -8 37 -10 62 -5 21 4 65 7 98 6 45 -1 68 4 90
19 17 11 41 20 55 20 14 0 31 9 38 20 8 13 23 20 41 20 17 0 33 5 36 10 14 22
22 7 28 -52 6 -57 13 -108 20 -148 1 -8 6 -21 11 -28 4 -7 6 -25 5 -40 -1 -15
1 -39 6 -54 8 -30 11 -57 20 -200 6 -89 5 -100 -14 -124 -12 -15 -21 -33 -21
-40 0 -8 -5 -14 -11 -14 -7 0 -9 -9 -6 -21 5 -20 -25 -93 -44 -105 -5 -3 -9
-16 -9 -30 0 -13 -4 -32 -10 -42 -17 -30 -34 -76 -36 -102 -4 -38 -11 -71 -23
-118 -13 -47 -9 -116 9 -137 18 -21 66 -28 96 -13 32 15 53 74 58 158 0 19 7
45 14 57 6 12 12 30 12 39 0 19 38 119 64 169 9 17 16 41 16 55 0 33 30 77 69
101 24 14 31 26 33 51 3 62 4 73 11 88 3 8 3 30 -1 48 -6 30 -16 40 -71 69 -2
1 -5 21 -7 45 -1 24 -7 66 -13 93 -5 28 -7 62 -4 78 3 15 1 33 -4 40 -13 16
-15 130 -3 162 13 35 31 31 78 -16 23 -22 46 -38 52 -34 15 9 60 -3 60 -16 0
-16 21 -33 70 -56 36 -17 59 -21 115 -17 39 2 105 -1 148 -6 67 -8 81 -7 110
9 17 10 47 21 65 24 18 4 45 15 60 26 54 39 76 37 129 -11 26 -25 62 -54 78
-65 17 -12 41 -41 53 -66 12 -25 29 -50 37 -57 8 -7 15 -23 15 -36 0 -13 6
-24 13 -24 20 0 51 -38 90 -110 20 -38 47 -72 63 -82 26 -15 33 -15 66 -1 25
10 40 24 47 44 12 35 37 46 127 54 38 3 85 8 104 9 19 2 42 6 50 9 39 14 71
20 140 29 97 12 132 12 207 3 52 -7 65 -5 85 11 13 11 24 26 26 36 4 25 -67
78 -105 78 -17 0 -61 7 -97 15 -50 12 -97 14 -208 9 -79 -4 -154 -7 -166 -6
-13 0 -32 -8 -42 -18 -13 -13 -33 -18 -69 -17 -33 0 -57 -5 -68 -16 -10 -8
-35 -17 -55 -18 -33 -3 -40 1 -76 46 -22 28 -50 70 -62 95 -12 25 -35 61 -49
80 -22 29 -27 45 -26 89 1 47 5 57 31 77 16 13 35 24 43 24 26 0 106 44 126
69 11 14 23 39 26 56 4 16 10 38 13 47 9 19 -61 92 -131 136 -24 15 -43 32
-43 37 -1 6 -20 19 -43 30 l-42 20 1 85 c0 83 18 143 47 162 6 3 12 13 13 21
3 25 85 158 99 163 8 3 42 7 77 9 104 7 137 11 150 23 7 6 27 14 43 18 17 4
55 18 85 31 54 24 85 36 220 82 36 13 79 29 95 36 17 8 48 20 70 28 36 13 41
19 47 58 11 62 -6 78 -64 61 -24 -7 -70 -17 -103 -22 -33 -5 -98 -23 -145 -41
-78 -28 -133 -46 -215 -69 -16 -4 -43 -13 -60 -18 -16 -6 -61 -13 -98 -17 -89
-8 -149 -36 -216 -102 -30 -29 -61 -53 -68 -53 -8 0 -16 -8 -20 -17 -14 -45
-45 -102 -63 -118 -11 -10 -22 -34 -26 -54 -7 -43 -30 -81 -47 -81 -7 0 -18 9
-25 20 -7 11 -19 20 -27 20 -8 0 -40 25 -71 55 -32 30 -65 55 -74 55 -10 0
-28 10 -41 23 -21 19 -34 22 -88 20 -35 -1 -78 4 -94 11 -27 10 -39 9 -92 -10
-36 -13 -73 -20 -92 -17 -19 3 -33 1 -33 -5 0 -5 -15 -12 -32 -16 -126 -21
-123 -20 -122 -44 0 -12 -5 -22 -13 -22 -10 0 -13 20 -14 78 -1 42 0 82 1 87
1 6 1 41 1 79 0 46 4 75 13 85 35 40 10 99 -52 124 -63 26 -147 81 -191 126
-47 47 -121 177 -121 210 0 12 -7 33 -17 47 -9 14 -16 38 -15 55 1 27 -2 29
-34 29 -23 0 -44 -9 -65 -28 l-32 -28 23 -70 c12 -38 29 -76 36 -85 8 -8 14
-25 14 -37 0 -12 14 -41 30 -64 17 -22 30 -45 30 -50 0 -16 90 -126 124 -152
18 -13 49 -31 69 -40 34 -14 37 -18 37 -55 0 -23 4 -41 10 -41 11 0 4 -101
-12 -165 -14 -56 -18 -102 -16 -165 3 -114 -2 -203 -13 -216 -11 -13 -79 3
-121 29 -13 8 -49 22 -80 32 -32 9 -58 20 -58 23 0 4 -22 5 -49 4 -34 -3 -61
2 -92 17 -23 12 -56 21 -72 21 -36 0 -67 16 -67 35 0 8 -16 21 -35 30 -19 10
-37 27 -41 38 -4 12 -13 26 -19 32 -33 26 -72 182 -79 310 -2 33 -8 73 -14 88
-15 36 -17 28 18 72 32 40 37 69 19 109 -9 19 -26 28 -78 42 -37 10 -87 32
-113 51 -53 38 -178 171 -178 189 0 6 -12 29 -28 50 -25 35 -121 224 -168 329
-38 86 -86 109 -117 56z m1473 -1951 c0 -16 -7 -20 -37 -20 -35 0 -36 0 -18
20 10 11 26 20 37 20 11 0 18 -7 18 -20z"/>
<path d="M18291 6136 c-8 -9 -22 -16 -32 -16 -25 0 -32 -16 -25 -53 5 -25 15
-37 48 -54 60 -30 155 -69 204 -82 66 -18 245 -113 266 -142 11 -14 22 -46 25
-70 6 -41 57 -138 82 -153 6 -4 11 -15 11 -24 1 -9 9 -27 19 -39 15 -18 25
-21 57 -16 22 3 45 12 51 21 11 14 21 11 85 -21 85 -43 247 -97 289 -97 20 0
29 -5 29 -16 0 -11 6 -13 20 -9 10 3 33 -1 50 -10 35 -18 35 -31 -6 -102 -13
-23 -24 -58 -24 -77 0 -29 -4 -36 -20 -36 -16 0 -20 -7 -20 -34 0 -19 -4 -38
-10 -41 -15 -9 -12 -32 7 -50 13 -14 14 -21 5 -36 -7 -10 -12 -26 -12 -35 0
-14 -7 -16 -42 -11 -23 3 -49 2 -57 -2 -9 -4 -61 -5 -116 -1 -58 4 -105 2
-113 -3 -7 -5 -34 -7 -60 -3 -26 4 -51 6 -57 6 -5 0 -64 -2 -130 -4 -110 -3
-121 -2 -137 17 -10 11 -18 33 -18 48 0 15 -4 31 -10 34 -5 3 -10 16 -10 27 0
54 -92 138 -152 138 -22 0 -27 6 -32 35 -6 30 -11 35 -35 35 -21 0 -41 13 -75
48 -25 26 -72 60 -103 76 -105 52 -108 55 -107 76 1 23 0 24 -25 8 -15 -9 -24
-7 -51 13 -18 13 -44 36 -58 52 -15 15 -37 27 -50 27 -13 0 -30 7 -38 15 -9 8
-25 15 -37 15 -12 0 -58 11 -101 25 -43 14 -87 25 -97 25 -10 0 -21 5 -24 10
-3 6 -17 10 -30 10 -13 0 -27 5 -30 10 -4 6 -11 8 -16 4 -5 -3 -33 1 -62 10
-28 8 -74 18 -102 22 -27 3 -61 12 -75 19 -77 40 -140 65 -161 65 -14 0 -29 4
-34 9 -6 5 -28 14 -50 21 -22 7 -45 16 -50 21 -19 14 -114 -37 -121 -65 -14
-56 -13 -56 151 -109 133 -44 159 -54 163 -66 2 -6 14 -11 27 -11 13 0 27 -4
30 -10 3 -5 12 -10 20 -10 16 0 118 -61 124 -74 2 -4 14 -18 28 -29 20 -18 23
-28 18 -54 -7 -38 16 -58 80 -68 71 -12 109 -28 136 -56 14 -15 39 -31 55 -34
36 -9 134 -57 134 -67 0 -5 7 -8 16 -8 9 0 30 -6 47 -14 151 -69 212 -86 317
-89 61 -2 74 -5 72 -17 -2 -8 -5 -58 -6 -110 l-3 -94 -31 -13 c-17 -7 -33 -17
-37 -23 -3 -5 -16 -10 -29 -10 -12 0 -53 -16 -90 -35 -38 -19 -74 -35 -81 -35
-6 0 -20 -9 -31 -21 -10 -12 -32 -28 -49 -36 -31 -16 -87 -76 -118 -125 -10
-17 -29 -31 -46 -34 -35 -7 -52 -25 -71 -72 -11 -29 -11 -35 1 -43 11 -8 8
-15 -17 -37 -41 -36 -64 -84 -52 -107 10 -17 20 -101 17 -140 -7 -101 13 -201
47 -232 13 -12 24 -29 24 -37 0 -14 140 -147 163 -155 35 -11 84 -37 100 -53
10 -10 35 -21 57 -24 22 -4 45 -13 51 -20 6 -8 17 -14 24 -14 7 0 23 -10 36
-22 21 -19 38 -23 104 -26 44 -1 84 -7 88 -11 12 -12 -10 -51 -28 -51 -8 0
-17 -12 -21 -27 -3 -16 -9 -39 -14 -53 -5 -14 -11 -39 -15 -56 -7 -38 -49 -79
-90 -88 -16 -4 -37 -13 -45 -21 -8 -7 -26 -16 -40 -20 -40 -12 -193 -85 -212
-102 -13 -12 -30 -14 -72 -9 -63 8 -94 -4 -142 -56 -31 -34 -81 -150 -86 -203
-3 -26 -8 -31 -40 -36 -46 -7 -70 -27 -93 -79 -10 -22 -22 -40 -27 -40 -4 0
-8 -7 -8 -15 0 -8 -13 -21 -29 -30 -16 -8 -33 -25 -37 -37 -4 -12 -35 -50 -70
-84 -51 -50 -65 -71 -70 -103 -6 -36 -4 -41 18 -50 13 -5 39 -8 58 -6 46 4 44
3 31 19 -12 15 13 48 109 142 87 86 105 102 152 138 46 35 52 36 155 42 77 4
118 11 143 24 19 10 52 24 72 30 20 6 54 23 75 37 21 14 51 30 68 36 62 21
267 186 307 247 18 28 40 50 50 50 10 0 20 10 24 25 3 14 15 30 25 36 11 5 19
16 19 23 0 7 9 21 20 31 11 10 20 24 20 31 0 7 9 34 21 60 16 40 18 52 8 70
-6 13 -9 30 -6 38 6 14 26 16 164 11 87 -4 178 -11 202 -16 24 -5 46 -8 48 -5
3 3 22 -4 41 -15 20 -10 44 -19 52 -19 17 0 146 -29 170 -38 8 -3 36 -4 63 -3
l47 3 1 -39 c1 -21 1 -42 0 -47 -1 -4 4 -15 11 -24 10 -12 10 -16 1 -19 -7 -3
-13 -15 -13 -28 0 -31 -41 -59 -110 -74 -30 -7 -95 -25 -145 -41 -49 -16 -106
-32 -125 -36 -19 -3 -39 -10 -45 -14 -5 -4 -29 -11 -52 -15 -36 -6 -94 -32
-216 -98 -35 -19 -60 -64 -54 -97 4 -19 -7 -42 -43 -90 -44 -60 -48 -69 -43
-106 5 -39 4 -42 -27 -53 -18 -6 -41 -11 -50 -11 -28 0 -94 -58 -111 -98 -9
-20 -25 -45 -35 -54 -11 -9 -40 -36 -65 -60 -25 -24 -72 -61 -104 -83 -31 -22
-73 -59 -92 -82 -20 -24 -50 -47 -69 -53 -22 -8 -39 -21 -45 -37 -14 -38 -11
-48 19 -59 32 -12 82 6 122 44 37 35 203 158 238 176 17 9 32 19 34 23 1 5 28
27 58 49 30 23 68 53 84 67 17 14 41 27 55 29 21 2 26 9 27 34 1 17 4 36 8 43
11 17 26 13 26 -7 0 -55 65 -55 172 -1 10 5 32 9 49 9 40 0 68 16 79 44 6 18
29 31 87 51 43 16 87 36 98 45 27 23 171 107 195 115 11 4 20 10 20 15 0 5 14
17 31 26 27 13 182 134 257 199 12 11 27 37 33 58 6 23 25 51 45 69 33 29 44
61 25 72 -6 4 -5 21 1 44 6 20 8 76 6 123 -6 90 0 112 32 129 17 9 22 6 36
-30 9 -22 22 -40 30 -40 8 0 14 -4 14 -9 0 -8 50 -17 145 -27 61 -6 100 -17
117 -31 9 -8 35 -17 57 -20 l41 -6 -1 -71 c-1 -98 -13 -176 -29 -186 -10 -6
-11 -12 -3 -22 6 -7 9 -29 7 -48 -14 -113 -14 -156 0 -199 8 -25 17 -67 21
-92 8 -64 49 -97 127 -104 22 -2 48 -11 57 -19 10 -9 23 -16 29 -16 6 0 26 -9
44 -20 18 -11 39 -20 46 -20 7 0 28 -11 45 -24 18 -13 50 -30 72 -37 22 -7 47
-19 56 -26 8 -7 31 -16 50 -19 19 -4 39 -10 44 -14 6 -4 57 -22 115 -39 58
-18 114 -36 125 -41 11 -4 33 -13 48 -19 33 -13 106 -14 139 -2 70 26 229 -98
278 -216 13 -32 29 -64 36 -70 19 -20 48 -15 72 10 48 51 0 187 -106 300 -30
31 -61 57 -69 57 -7 0 -21 4 -31 9 -76 37 -97 43 -149 45 -54 1 -58 3 -62 26
-3 26 -45 72 -93 103 -16 10 -28 24 -28 31 0 8 -15 17 -34 20 -19 4 -37 13
-40 21 -3 9 -18 15 -35 15 -16 0 -31 6 -34 13 -3 6 -22 21 -43 31 -22 11 -53
30 -70 42 -17 13 -44 26 -59 30 -15 4 -30 15 -32 25 -4 14 -11 17 -27 13 -14
-3 -28 1 -35 10 -8 9 -28 16 -45 17 -17 0 -47 5 -66 12 -29 10 -36 18 -41 50
-4 23 -1 54 7 75 7 20 13 54 14 74 0 20 5 40 10 43 6 3 10 23 10 43 0 20 4 43
9 51 10 16 76 41 109 41 25 0 71 21 104 48 66 54 88 76 88 88 0 8 13 17 28 20
18 4 32 16 41 35 11 26 31 35 64 30 10 -2 28 47 25 68 -2 10 4 16 15 16 20 0
59 -61 83 -127 16 -46 53 -98 70 -98 7 0 14 -4 16 -10 2 -5 37 -13 78 -16 41
-4 80 -10 85 -14 15 -12 143 -13 192 -2 23 5 55 21 72 35 17 14 41 29 53 33
13 3 36 16 52 27 17 12 31 16 35 10 3 -6 25 -14 49 -18 23 -4 42 -11 42 -16 0
-5 9 -9 19 -9 11 0 23 -4 26 -10 3 -5 21 -10 40 -10 18 0 35 -4 37 -8 6 -16
140 -53 207 -59 76 -6 164 8 213 34 19 10 52 27 74 38 21 11 46 28 56 37 10
10 30 20 45 23 68 15 153 81 153 119 0 30 40 79 78 95 26 11 29 17 28 55 -1
37 -5 45 -29 56 -36 16 -94 7 -122 -20 -12 -11 -27 -20 -34 -20 -7 0 -27 -11
-45 -25 -18 -14 -41 -25 -50 -25 -10 0 -27 -5 -38 -11 -52 -28 -147 -7 -293
64 -34 17 -57 22 -70 17 -14 -5 -28 -2 -44 11 -13 10 -29 19 -36 19 -7 0 -27
15 -45 33 l-32 32 5 105 c4 57 2 134 -3 170 -5 36 -13 94 -18 130 -5 36 -6 70
-1 76 5 5 6 26 3 45 -5 40 6 55 91 119 33 24 67 51 75 60 8 9 31 23 50 30 19
7 44 21 55 31 40 35 230 25 292 -16 70 -47 87 -52 142 -39 28 6 54 13 56 16 5
5 -12 61 -26 90 -5 10 -9 24 -9 32 0 7 -14 16 -30 20 -35 7 -51 38 -44 88 4
30 0 36 -43 69 -76 57 -137 80 -251 91 -104 11 -108 11 -267 -24 -27 -6 -71
-21 -97 -34 -26 -13 -53 -24 -60 -24 -13 0 -18 -4 -106 -88 -57 -54 -89 -60
-78 -16 5 17 2 24 -9 24 -8 0 -15 7 -15 15 0 8 -6 15 -14 15 -7 0 -21 11 -30
25 -9 14 -23 25 -31 25 -9 0 -48 16 -88 35 -77 37 -168 61 -194 51 -8 -4 -22
-1 -29 5 -11 9 -20 4 -41 -20 -17 -19 -37 -31 -53 -31 -32 0 -52 -13 -48 -31
2 -8 -7 -15 -20 -17 -18 -3 -21 -8 -17 -23 5 -14 -10 -37 -57 -89 -63 -69 -98
-87 -98 -51 0 10 -7 24 -15 31 -17 14 -45 67 -45 87 0 7 -8 13 -19 13 -14 0
-21 10 -26 37 -8 42 -17 50 -103 94 -65 32 -76 33 -171 13 -30 -6 -33 -5 -27
12 12 40 39 140 46 179 13 62 19 73 48 79 90 21 112 31 123 57 6 15 30 40 52
55 23 15 54 35 69 46 15 10 34 18 42 18 8 0 27 15 42 33 15 17 30 31 34 30 4
-1 24 16 45 38 22 21 47 39 56 39 9 0 22 7 29 15 7 8 19 15 26 15 8 0 14 7 14
15 0 8 32 40 71 72 40 32 89 75 111 96 21 20 43 37 47 37 5 0 11 9 14 20 3 11
18 25 34 31 15 6 35 15 43 20 8 5 30 15 47 23 18 8 48 26 65 39 18 13 49 31
69 40 37 17 59 38 78 75 16 31 -1 62 -31 55 -33 -7 -103 -41 -130 -62 -13 -10
-36 -21 -51 -25 -16 -4 -45 -17 -65 -30 -20 -12 -59 -29 -87 -36 -27 -7 -61
-21 -75 -30 -37 -25 -212 -94 -234 -92 -10 0 -28 -5 -40 -12 -11 -8 -46 -22
-76 -31 -30 -10 -68 -26 -85 -37 -16 -10 -36 -18 -43 -18 -12 0 -83 -44 -152
-95 -100 -74 -130 -98 -130 -106 0 -4 -12 -21 -26 -38 -20 -25 -34 -31 -64
-31 -21 0 -43 -6 -50 -15 -7 -8 -19 -15 -26 -15 -8 0 -14 -8 -14 -19 0 -10 -7
-25 -16 -32 -19 -16 -64 -106 -64 -130 0 -9 -7 -22 -15 -29 -8 -7 -14 -27 -13
-47 1 -22 -5 -40 -14 -47 -8 -6 -15 -25 -16 -41 -1 -157 -51 -241 -162 -268
-14 -4 -56 -36 -95 -72 -38 -36 -73 -65 -77 -65 -12 0 -38 44 -38 65 -1 26
-66 115 -85 115 -7 0 -21 13 -31 29 -9 15 -33 36 -54 45 -20 9 -45 25 -56 37
-16 18 -16 23 -4 42 48 76 94 168 101 202 4 22 13 58 19 80 18 64 20 94 11
135 -10 43 -70 121 -110 141 -14 8 -42 26 -61 41 -19 16 -41 28 -48 28 -7 0
-43 19 -80 43 -37 24 -87 51 -112 61 -67 27 -80 34 -135 66 -27 16 -60 29 -72
30 -12 0 -24 4 -28 9 -3 5 -18 12 -34 16 -15 3 -37 16 -49 29 -16 19 -37 26
-108 36 -49 7 -102 18 -118 26 -16 8 -34 14 -41 14 -7 0 -20 9 -30 20 -10 11
-24 20 -32 20 -13 0 -37 11 -180 83 -78 39 -183 82 -224 92 -17 4 -30 1 -38
-9z"/>
<path d="M2602 5947 c-12 -13 -22 -32 -22 -44 0 -11 -10 -40 -23 -64 -20 -38
-23 -58 -22 -151 0 -60 -3 -108 -7 -108 -4 0 -7 -16 -6 -36 1 -21 -4 -39 -13
-45 -19 -12 -63 -11 -75 1 -13 13 -209 15 -319 3 -103 -11 -128 -8 -121 16 3
9 1 54 -5 101 -6 47 -11 95 -13 107 -1 13 -6 26 -9 30 -4 3 -7 21 -7 40 0 21
-4 32 -12 31 -8 -2 -13 8 -13 27 0 55 -37 83 -105 80 -30 -2 -35 -5 -32 -23 2
-12 -1 -29 -6 -39 -7 -13 -2 -43 17 -103 39 -122 38 -225 -4 -291 -15 -23 -75
-56 -118 -63 -21 -4 -43 -16 -50 -27 -6 -11 -30 -24 -52 -30 -47 -12 -103 -48
-163 -104 -55 -51 -66 -55 -60 -22 3 16 0 28 -8 31 -8 3 -14 19 -14 35 0 16
-11 52 -25 79 -14 28 -25 56 -25 62 0 22 -59 140 -70 140 -5 0 -10 7 -10 15 0
26 -58 75 -105 87 -39 11 -47 10 -61 -4 -23 -23 -11 -81 21 -102 14 -9 25 -25
25 -36 0 -12 8 -20 22 -22 15 -2 24 -11 26 -25 2 -13 8 -23 13 -23 5 0 9 -6 9
-14 0 -7 6 -19 14 -25 20 -17 30 -79 15 -97 -6 -8 -10 -15 -8 -17 2 -1 13 -7
24 -13 27 -15 30 -62 11 -166 -11 -57 -22 -88 -36 -100 -11 -9 -20 -19 -20
-23 0 -4 -15 -25 -34 -49 -37 -44 -96 -150 -96 -170 0 -7 -9 -21 -20 -31 -12
-10 -18 -25 -16 -32 3 -7 -3 -19 -14 -25 -20 -13 -28 -62 -11 -72 11 -7 11
-55 0 -62 -5 -3 -4 -14 1 -25 6 -10 8 -34 5 -52 -5 -24 -1 -39 14 -58 11 -14
22 -46 24 -70 5 -45 40 -133 57 -144 6 -4 17 -22 25 -41 8 -19 19 -34 24 -34
6 0 11 -8 11 -18 0 -21 18 -42 37 -42 22 0 124 -51 129 -64 3 -8 15 -11 29 -8
25 4 115 -33 115 -49 0 -5 -9 -14 -20 -21 -12 -8 -20 -24 -20 -40 0 -15 -4
-30 -10 -33 -5 -3 -10 -15 -10 -26 0 -32 -74 -153 -130 -214 -31 -33 -40 -68
-24 -90 8 -10 12 -27 8 -37 -3 -11 0 -20 8 -22 7 -1 28 -8 47 -14 23 -8 40 -8
52 -1 22 11 62 72 74 109 4 14 15 34 25 45 10 11 28 45 40 75 21 54 46 90 61
90 12 0 54 42 67 67 7 12 12 31 12 42 0 29 41 37 74 16 18 -12 35 -15 53 -10
16 4 25 3 21 -1 -4 -4 -3 -13 2 -19 8 -9 22 -9 63 2 114 30 185 -13 207 -126
6 -31 16 -77 21 -103 6 -25 10 -75 9 -110 0 -34 2 -82 6 -105 4 -26 2 -43 -4
-43 -5 0 -17 -19 -26 -42 -14 -33 -15 -46 -5 -70 10 -25 16 -28 60 -28 42 0
50 4 70 31 32 45 38 117 28 342 -2 43 -7 81 -11 83 -4 3 -8 30 -8 61 0 48 2
54 18 48 9 -4 33 -9 52 -12 19 -3 40 -10 46 -14 20 -16 132 -23 148 -10 18 15
135 43 153 37 6 -3 24 -29 39 -58 14 -29 36 -66 48 -83 11 -16 32 -51 46 -77
23 -45 23 -48 6 -67 -16 -18 -16 -22 -3 -48 9 -15 22 -43 31 -61 27 -57 81
-56 109 3 22 47 21 73 -4 132 -11 26 -22 65 -23 85 -1 21 -9 44 -18 50 -9 7
-26 33 -38 58 -12 25 -25 52 -30 61 -14 26 -21 83 -13 94 15 19 72 55 88 55
21 0 75 41 75 57 0 7 11 18 25 26 27 13 105 102 105 119 0 5 18 30 39 56 21
26 42 58 46 72 4 14 19 40 33 58 29 38 69 43 97 12 10 -11 25 -20 33 -20 8 0
31 -10 50 -22 36 -22 56 -23 287 -16 86 2 191 55 272 136 61 61 64 63 85 48
12 -9 39 -16 60 -16 20 0 40 -5 43 -10 4 -7 37 -9 88 -5 67 4 85 9 100 26 18
22 24 69 8 69 -5 0 -11 9 -14 20 -4 17 -10 20 -32 14 -25 -6 -27 -5 -20 16 7
21 5 22 -16 16 -43 -14 -107 -8 -155 13 -45 20 -46 22 -41 55 3 21 1 36 -5 38
-6 2 -13 32 -14 66 -2 41 -10 77 -27 109 -13 26 -27 60 -30 76 -4 15 -13 27
-21 27 -7 0 -21 9 -31 20 -10 11 -15 20 -11 20 3 0 0 15 -8 33 -15 36 -10 50
29 98 25 30 101 91 135 109 38 19 70 52 70 70 0 20 -66 80 -87 80 -57 0 -203
-109 -249 -186 -10 -16 -26 -19 -145 -20 -140 -1 -214 -16 -271 -55 -14 -11
-30 -19 -36 -19 -5 0 -15 -7 -22 -15 -7 -8 -21 -15 -31 -15 -11 0 -19 -4 -19
-10 0 -5 -6 -10 -14 -10 -8 0 -27 -11 -43 -24 -16 -14 -34 -21 -41 -17 -6 3
-23 32 -37 64 -15 31 -35 62 -46 67 -10 6 -19 15 -19 21 0 12 -43 51 -87 80
-18 11 -33 27 -33 34 0 8 -9 17 -20 20 -11 3 -24 14 -30 24 -5 10 -24 24 -42
32 -18 7 -39 21 -46 31 -7 10 -21 18 -31 18 -10 0 -26 9 -36 20 -15 17 -17 37
-16 146 1 82 6 137 15 159 14 33 19 68 17 112 -1 22 -62 73 -87 73 -6 0 -20
-10 -32 -23z m-195 -623 c23 -3 43 -9 43 -13 -1 -3 -18 -19 -40 -36 -46 -36
-57 -59 -50 -105 7 -47 35 -81 88 -104 23 -11 42 -23 42 -28 0 -4 17 -8 39 -8
21 0 43 -6 49 -13 6 -7 36 -13 73 -14 34 -1 59 1 55 4 -3 4 0 16 7 27 25 40
40 105 35 150 -3 26 -2 49 3 52 7 4 169 -153 169 -164 0 -2 11 -13 25 -24 14
-11 25 -27 25 -36 0 -9 7 -26 15 -36 20 -26 19 -29 -9 -59 -22 -24 -27 -25
-66 -15 -35 9 -48 8 -74 -5 -62 -32 -133 -49 -221 -54 -49 -3 -94 -8 -100 -13
-19 -15 -76 -22 -89 -11 -8 7 -23 7 -47 1 -40 -12 -89 -13 -89 -2 0 4 4 14 9
22 7 10 4 18 -10 28 -14 9 -17 18 -10 29 8 16 -17 93 -31 93 -3 0 -20 13 -36
29 -33 33 -73 47 -99 35 -10 -4 -29 -9 -43 -10 -35 -4 -112 -92 -105 -120 3
-12 -2 -27 -10 -34 -8 -7 -15 -23 -15 -35 0 -12 -7 -28 -15 -35 -8 -7 -15 -17
-15 -22 0 -13 -39 -46 -70 -59 -14 -6 -54 -13 -90 -16 -35 -2 -70 -9 -77 -15
-15 -12 -195 -48 -243 -48 -41 0 -147 -35 -170 -55 -21 -19 -85 -45 -109 -45
-15 0 -19 7 -19 38 -1 81 57 202 134 278 38 39 84 55 84 30 0 -9 -5 -16 -11
-16 -5 0 -7 -4 -4 -10 3 -5 14 -10 23 -10 10 0 29 -11 44 -25 32 -29 58 -31
153 -9 71 17 115 45 115 73 0 9 7 25 15 35 19 25 19 50 -1 105 -15 44 -47 82
-78 94 -9 4 -16 10 -16 16 0 14 47 41 74 41 13 0 66 21 117 47 65 32 109 48
144 50 27 2 77 7 110 12 33 5 87 10 120 10 33 1 67 6 75 11 15 9 93 7 177 -6z
m568 -615 c25 -12 45 -28 45 -35 0 -8 7 -17 15 -20 14 -6 15 -39 2 -74 -3 -8
-8 -45 -10 -81 -6 -73 -33 -138 -69 -164 -13 -8 -23 -20 -23 -25 0 -9 -60 -81
-117 -140 -16 -15 -28 -33 -28 -39 0 -6 -10 -11 -23 -11 -13 0 -27 -4 -32 -9
-6 -5 -37 -19 -69 -30 -33 -11 -63 -26 -66 -32 -21 -32 -139 -82 -195 -82 -85
-1 -193 18 -213 36 -14 13 -37 17 -89 17 -41 0 -86 6 -108 16 -40 16 -40 17
-20 95 4 18 -2 33 -23 57 -16 17 -34 32 -40 32 -6 0 -21 13 -33 29 -17 23 -26
28 -43 22 -11 -4 -52 -7 -91 -6 -108 3 -124 -10 -174 -137 -9 -23 -17 -28 -45
-28 -22 0 -40 7 -48 18 -15 19 -40 31 -118 56 -64 21 -120 60 -120 84 0 9 -12
23 -28 29 -16 8 -34 28 -45 53 -22 51 -21 60 2 60 11 0 22 4 25 9 3 5 21 12
40 15 19 4 51 18 71 32 56 37 111 52 200 52 44 0 93 5 108 11 16 6 43 11 61
11 18 0 41 7 52 15 10 8 42 15 69 15 56 1 141 20 198 44 24 11 61 16 95 15 32
-1 82 2 113 6 37 4 59 3 64 -4 7 -12 112 -4 130 10 6 4 39 4 75 0 65 -8 90 -6
90 9 0 4 39 10 87 13 50 3 89 10 91 16 2 6 12 11 22 11 10 0 22 5 25 10 3 6
21 10 40 10 19 0 40 7 47 15 18 20 51 18 103 -6z"/>
<path d="M2460 4520 c-14 -11 -31 -20 -38 -20 -7 0 -20 -4 -30 -9 -9 -5 -30
-14 -47 -21 -34 -12 -68 -69 -55 -91 5 -7 6 -18 2 -24 -3 -5 -7 -27 -8 -47 -2
-31 1 -38 17 -38 25 0 25 -30 -2 -64 -20 -25 -20 -26 -1 -26 10 0 22 -3 26 -7
16 -16 100 -42 110 -34 6 5 47 8 91 6 86 -3 105 1 105 19 0 7 13 25 28 42 23
23 30 41 35 93 4 35 12 70 17 76 8 9 6 14 -4 18 -8 3 -20 17 -28 30 -60 110
-54 104 -104 111 -71 9 -87 7 -114 -14z"/>
<path d="M23849 5665 c-8 -8 -37 -18 -64 -21 -36 -5 -61 -17 -89 -41 -22 -18
-42 -33 -45 -33 -3 0 -17 -16 -30 -35 -13 -19 -29 -35 -36 -35 -26 0 -55 -46
-54 -86 1 -21 -1 -55 -4 -74 -3 -19 -8 -62 -13 -95 -4 -33 -13 -69 -19 -80 -7
-11 -15 -34 -18 -52 -5 -26 -3 -33 13 -38 15 -5 19 -12 14 -30 -5 -20 0 -28
28 -45 18 -11 50 -20 71 -20 20 0 37 -4 37 -8 0 -5 11 -14 25 -20 14 -6 25
-17 25 -23 0 -6 19 -30 43 -53 23 -22 58 -60 77 -83 30 -35 49 -46 125 -71 50
-17 109 -32 132 -35 46 -5 117 -38 209 -96 34 -21 74 -41 89 -45 29 -7 104
-56 105 -67 0 -3 -56 -5 -125 -5 -113 2 -127 4 -148 24 -13 12 -31 22 -39 22
-9 0 -29 11 -45 24 -15 13 -59 33 -98 46 -123 39 -179 61 -205 78 -14 8 -47
27 -74 41 -38 20 -52 34 -61 61 -11 32 -16 35 -54 38 -45 3 -68 -9 -81 -43
-18 -49 44 -106 195 -179 55 -27 130 -63 167 -81 37 -18 85 -36 107 -40 27 -4
45 -15 57 -32 15 -25 15 -26 -2 -36 -21 -12 -84 -77 -84 -87 0 -4 -12 -13 -27
-21 -47 -23 -93 -61 -93 -75 0 -7 -9 -18 -19 -24 -25 -13 -32 -46 -32 -156 0
-128 12 -174 58 -222 33 -35 83 -100 83 -109 0 -6 9 -17 21 -24 27 -19 16 -46
-27 -64 -19 -8 -34 -19 -34 -24 0 -9 -47 -43 -168 -124 -18 -12 -53 -38 -77
-59 -24 -20 -62 -46 -84 -59 -22 -12 -42 -29 -45 -38 -3 -9 -11 -24 -18 -33
-10 -13 -9 -22 2 -42 15 -29 32 -31 105 -12 38 10 50 18 51 33 2 29 121 136
183 163 12 6 46 26 75 45 29 19 72 43 97 54 51 21 179 37 179 21 0 -5 -29 -23
-64 -40 -36 -16 -67 -34 -70 -39 -4 -5 -20 -13 -37 -16 -17 -4 -48 -22 -68
-40 -20 -17 -49 -36 -66 -42 -16 -5 -43 -28 -60 -51 -16 -23 -48 -55 -71 -71
-22 -16 -51 -43 -65 -61 -39 -53 -213 -237 -308 -325 -24 -22 -46 -49 -51 -60
-4 -11 0 -70 9 -131 l16 -110 70 -68 c43 -41 91 -77 125 -92 30 -14 69 -31 85
-39 95 -43 341 -45 389 -3 6 4 20 8 31 8 12 0 30 9 40 20 10 11 25 20 34 20 9
0 36 14 61 30 25 16 51 30 57 30 7 0 34 15 60 34 41 28 89 57 204 122 11 6 30
20 42 30 31 27 104 64 126 64 12 0 31 19 49 48 17 26 50 58 72 72 23 14 46 33
51 42 5 10 28 28 51 40 72 40 79 45 116 80 21 20 58 49 85 67 26 18 47 36 47
41 0 6 6 10 14 10 9 0 19 -20 27 -55 7 -30 15 -55 19 -55 4 0 10 -13 13 -29 5
-25 14 -32 58 -46 64 -22 239 -153 239 -180 0 -8 20 -23 45 -34 25 -11 48 -27
51 -35 3 -9 12 -16 19 -16 7 0 15 -3 17 -7 2 -5 19 -20 39 -35 l37 -27 27 21
c21 16 25 26 20 46 -6 24 -191 222 -208 222 -9 0 -68 46 -119 92 -17 15 -51
35 -77 45 -25 9 -49 22 -53 27 -4 6 -5 31 -2 56 3 25 6 66 8 92 2 44 8 53 82
133 43 47 85 85 92 85 7 0 15 8 19 18 9 26 45 62 61 62 8 0 31 -17 51 -37 20
-21 79 -79 131 -129 52 -49 131 -130 175 -179 44 -48 104 -113 133 -143 29
-30 68 -77 87 -106 19 -28 45 -64 59 -81 14 -16 44 -54 68 -84 48 -60 88 -87
112 -78 18 7 23 62 6 72 -5 3 -10 15 -10 25 0 10 -6 23 -12 27 -7 4 -31 42
-52 83 -22 41 -52 94 -68 118 -15 24 -28 45 -28 48 0 13 -118 151 -205 240
-79 82 -105 111 -105 118 0 12 26 6 70 -15 40 -20 140 -42 185 -41 46 1 98 11
108 21 6 6 26 11 44 11 18 0 43 6 55 13 85 48 218 167 218 195 0 8 7 24 17 34
9 10 21 28 28 41 7 14 18 21 31 19 67 -11 82 -15 111 -28 18 -8 35 -19 38 -24
3 -6 31 -10 61 -10 60 0 75 14 56 53 -5 12 -12 29 -15 38 -3 9 -18 19 -34 22
-16 3 -45 21 -66 40 -20 20 -51 38 -69 42 -49 11 -50 13 -18 44 28 27 32 27
72 16 24 -6 50 -15 59 -19 9 -4 38 -6 64 -4 42 3 50 6 57 30 8 23 4 31 -31 67
-24 24 -50 41 -63 41 -13 0 -43 8 -68 17 -25 8 -58 15 -73 14 -25 -1 -28 1
-21 21 9 31 72 85 107 93 33 8 77 52 77 77 0 49 -113 58 -172 15 -27 -20 -47
-19 -34 2 12 18 110 69 148 76 20 4 43 14 52 23 13 15 11 21 -26 61 -22 24
-53 47 -68 51 -24 7 -33 3 -65 -30 -39 -40 -74 -55 -105 -45 -13 4 -20 20 -25
54 -5 35 -19 65 -48 105 -22 31 -46 56 -51 57 -31 2 -65 8 -101 18 -63 17
-208 14 -252 -5 -116 -51 -224 -109 -238 -130 -8 -13 -23 -24 -33 -24 -19 0
-46 36 -37 50 4 6 -2 7 -12 3 -22 -7 -16 -1 53 55 29 23 56 42 61 42 5 0 22
14 39 31 16 17 47 43 69 57 45 28 82 58 193 154 136 119 146 128 187 161 50
40 80 67 153 138 31 31 70 65 85 74 23 15 27 23 22 44 -9 38 -18 43 -60 35
-28 -5 -54 -23 -104 -73 -36 -36 -76 -73 -87 -81 -80 -55 -303 -246 -312 -266
-7 -13 -20 -24 -30 -24 -11 0 -27 -9 -37 -20 -10 -11 -22 -20 -26 -20 -4 0
-44 -26 -89 -57 -44 -32 -95 -66 -112 -75 -17 -9 -48 -31 -69 -47 -21 -17 -41
-31 -44 -31 -9 0 -110 83 -167 136 -26 24 -53 44 -61 44 -8 0 -22 9 -32 20
-10 11 -27 20 -37 20 -10 0 -21 7 -24 15 -4 8 -10 15 -16 15 -14 0 -105 79
-123 106 -14 22 -14 27 4 62 11 20 23 49 26 65 3 15 21 45 40 66 19 21 35 43
35 49 0 11 26 41 93 110 18 18 53 46 80 63 26 17 47 35 47 40 0 5 6 9 13 9 8
0 24 11 37 25 13 14 31 25 41 25 35 0 61 67 35 89 -26 22 -120 -6 -174 -51
-26 -21 -53 -38 -61 -38 -13 0 -46 -29 -173 -153 -32 -31 -74 -63 -93 -71 -24
-10 -36 -23 -41 -43 -3 -15 -11 -46 -17 -68 -6 -22 -10 -44 -8 -49 3 -13 -20
-36 -36 -36 -7 0 -30 18 -51 39 -20 22 -59 52 -87 67 -71 39 -210 131 -230
154 -10 11 -23 20 -29 20 -6 0 -23 13 -38 29 -23 23 -95 71 -153 101 -47 24
-126 74 -135 85 -7 8 -17 15 -23 15 -5 0 -24 10 -41 23 -17 12 -44 28 -61 36
-16 7 -38 17 -48 23 -10 5 -21 7 -25 4 -4 -3 -53 7 -107 21 -55 14 -132 27
-171 28 -39 1 -76 5 -81 8 -5 3 -16 0 -24 -8z m119 -170 c7 -14 12 -32 12 -39
0 -8 6 -19 13 -25 17 -13 53 -129 44 -138 -7 -6 -48 9 -70 27 -7 5 -32 25 -57
45 -122 95 -139 109 -133 118 12 19 70 36 124 37 50 0 57 -3 67 -25z m217 -16
c5 -5 17 -9 27 -9 18 0 55 -19 125 -63 21 -14 67 -39 101 -56 l62 -31 -6 -103
c-6 -119 -11 -147 -24 -147 -9 0 -180 82 -230 111 -62 35 -79 61 -87 134 -2
22 -8 44 -13 50 -11 15 -31 115 -24 126 6 10 53 2 69 -12z m-475 -144 c0 -14
10 -41 22 -59 19 -29 27 -34 49 -29 15 3 36 0 47 -6 11 -6 35 -12 53 -13 31
-2 81 -27 166 -82 38 -25 43 -46 10 -46 -13 0 -28 -5 -35 -12 -13 -13 -225
-13 -296 0 -34 6 -41 12 -53 46 -7 22 -21 48 -29 58 -32 35 5 168 46 168 15 0
20 -7 20 -25z m988 -149 c20 -13 47 -32 59 -42 12 -11 45 -35 73 -54 111 -76
111 -76 106 -139 -2 -31 -11 -73 -20 -93 -9 -21 -16 -46 -16 -57 0 -11 -4 -22
-9 -25 -12 -8 -71 42 -71 60 0 8 -4 14 -9 14 -10 0 -33 20 -102 85 -19 19 -57
43 -82 54 -26 11 -47 23 -47 25 0 3 6 25 14 48 8 24 19 67 26 96 14 59 23 63
78 28z m-485 -116 c26 -11 49 -25 52 -31 4 -5 29 -19 56 -31 27 -12 49 -24 49
-27 0 -4 -24 -17 -52 -31 -42 -19 -76 -25 -159 -30 -104 -5 -106 -6 -149 -43
-50 -42 -56 -44 -65 -19 -3 11 -30 36 -60 57 -30 20 -55 41 -55 45 0 4 35 10
78 13 42 3 97 10 122 16 25 6 58 13 73 16 28 6 31 9 41 58 8 32 11 33 69 7z
m885 -162 c7 -7 12 -25 12 -40 0 -20 7 -31 23 -37 163 -65 215 -96 204 -124
-7 -19 -99 -41 -144 -34 -27 5 -42 1 -61 -13 -33 -27 -64 -25 -101 6 -33 27
-33 33 -9 131 7 28 16 55 21 59 4 4 7 17 7 29 0 35 24 47 48 23z m-459 -74
c49 -38 121 -107 121 -116 0 -5 16 -22 35 -39 19 -17 35 -35 35 -39 0 -13 -66
-40 -98 -40 -17 0 -51 -9 -75 -19 -52 -22 -77 -19 -127 18 -43 32 -70 49 -90
57 -37 15 -79 36 -125 64 -71 43 -115 62 -131 56 -16 -6 -44 3 -44 14 0 4 44
15 98 25 53 10 115 27 137 38 33 17 46 18 79 9 38 -10 88 -1 110 19 6 5 19 1
30 -10 12 -10 32 -27 45 -37z m851 -219 c7 -8 18 -15 24 -15 10 -1 76 -55 76
-63 0 -2 -42 -4 -92 -4 -72 0 -111 -6 -173 -27 l-80 -26 -17 22 c-10 13 -18
28 -18 34 0 15 72 41 137 49 29 4 56 11 59 17 6 10 42 26 60 27 6 1 17 -6 24
-14z m-396 -130 c6 -11 17 -24 24 -28 6 -4 12 -12 12 -16 0 -16 -82 -42 -111
-36 -21 5 -30 2 -38 -13 -10 -20 -13 -20 -61 -4 -34 11 -49 21 -48 31 2 12
-10 17 -47 22 -78 10 -100 19 -84 33 25 21 82 35 166 40 45 3 90 9 100 15 21
12 70 -13 87 -44z m1314 -46 c26 -7 58 -21 70 -33 22 -20 23 -26 17 -91 -7
-78 -34 -133 -89 -183 -19 -17 -35 -34 -37 -39 -8 -19 -72 -55 -102 -58 -73
-6 -152 45 -186 119 -38 84 -40 102 -19 136 10 18 16 40 13 50 -6 19 30 51
100 89 46 24 154 29 233 10z m-1958 -85 c0 -8 -40 -60 -67 -88 -13 -13 -23
-31 -23 -40 0 -23 -28 -76 -40 -76 -15 0 -12 55 7 102 23 61 50 96 76 101 36
7 47 7 47 1z m440 -191 c0 -7 -9 -22 -20 -33 -34 -34 -59 -151 -48 -229 2 -14
-4 -28 -14 -34 -23 -15 -26 -10 -29 43 -3 47 5 82 47 217 25 78 27 81 45 65
10 -9 19 -22 19 -29z m-566 -75 c-11 -68 -19 -91 -33 -96 -18 -6 -10 100 8
122 23 27 31 18 25 -26z m-288 -93 c-4 -17 1 -40 19 -71 27 -49 47 -121 36
-129 -15 -8 -49 25 -70 67 -29 60 -22 158 11 158 6 0 8 -10 4 -25z m2264 -155
c84 -16 105 -23 130 -42 14 -11 40 -26 57 -33 32 -14 33 -15 26 -62 -3 -26 -7
-50 -9 -52 -2 -2 -23 -8 -46 -12 -24 -4 -70 -13 -104 -20 -76 -15 -112 -7
-120 26 -8 31 -32 45 -78 45 -27 0 -40 -6 -52 -25 -18 -28 -39 -32 -58 -12 -9
8 -11 31 -8 70 4 50 8 60 35 79 17 12 44 21 62 21 17 -1 42 8 56 18 14 12 32
17 44 13 11 -3 40 -10 65 -14z m-1367 -164 c26 -30 47 -58 47 -62 0 -5 -5 -3
-12 4 -7 7 -24 12 -38 12 -14 0 -35 6 -46 14 -11 8 -35 14 -52 14 -18 -1 -36
2 -40 6 -9 10 57 66 78 66 8 0 36 -25 63 -54z m-223 -126 c10 -5 48 -12 84
-16 75 -6 136 -28 136 -47 0 -7 -15 -18 -34 -25 -19 -7 -68 -46 -110 -87 -79
-77 -99 -86 -139 -61 -18 12 -265 54 -357 61 -14 1 -33 3 -42 3 -10 1 -18 8
-18 15 0 17 103 79 155 93 52 15 139 47 145 55 16 19 148 26 180 9z m700 -80
c0 -5 -12 -16 -27 -24 -16 -9 -73 -58 -127 -111 -55 -52 -103 -95 -108 -95 -6
0 -7 17 -4 38 10 60 10 125 2 159 l-8 33 96 -2 c53 -1 99 2 103 5 10 11 73 8
73 -3z m-389 -127 c13 -34 1 -111 -20 -132 -12 -12 -16 -29 -13 -58 4 -38 1
-43 -28 -58 -17 -9 -46 -33 -64 -53 -19 -20 -53 -48 -75 -60 l-42 -24 7 66 c4
42 2 88 -6 126 l-13 61 34 29 c19 16 40 29 47 30 22 0 117 59 130 80 17 27 31
25 43 -7z m-947 -62 c3 -5 61 -9 128 -10 68 0 139 -5 158 -11 19 -5 59 -10 88
-10 65 0 99 -15 81 -36 -6 -8 -17 -14 -24 -14 -8 0 -26 -11 -42 -24 -15 -13
-41 -31 -58 -40 -16 -9 -42 -24 -56 -34 -14 -9 -47 -31 -75 -49 -27 -17 -60
-40 -74 -51 -42 -33 -63 -34 -111 -8 -46 25 -126 33 -276 28 -35 -2 -63 2 -63
7 0 18 214 221 234 221 7 0 21 9 31 20 19 21 50 27 59 11z m566 -164 c0 -2 5
-30 11 -62 6 -32 8 -85 4 -117 -7 -54 -11 -63 -64 -116 -98 -101 -259 -208
-269 -180 -18 46 -20 72 -7 91 12 18 12 22 -2 32 -11 8 -17 29 -18 61 -1 27
-5 56 -9 65 -5 12 10 27 61 62 37 25 95 66 128 91 33 25 78 52 100 60 39 14
65 19 65 13z m-846 -207 c55 1 117 2 136 1 l35 -2 -30 -24 c-16 -14 -34 -25
-39 -25 -10 0 -68 -42 -163 -117 -36 -29 -72 -53 -79 -53 -7 0 -28 -16 -45
-35 -36 -40 -82 -47 -98 -17 -15 28 -17 134 -2 160 7 13 23 27 36 32 13 5 35
25 47 44 28 42 56 57 82 44 10 -5 64 -9 120 -8z m359 -85 c8 -7 18 -36 22 -62
3 -26 13 -58 21 -70 11 -17 12 -33 4 -74 -12 -64 -23 -77 -80 -102 -25 -11
-52 -25 -60 -32 -26 -23 -65 -28 -80 -10 -7 9 -19 62 -26 118 -7 56 -15 114
-19 129 -6 25 -3 29 31 45 22 9 50 25 64 34 22 15 75 35 102 38 4 1 13 -6 21
-14z m-348 -196 c0 -9 5 -23 11 -30 13 -16 30 -68 38 -120 5 -26 3 -38 -7 -42
-17 -7 -102 23 -147 51 -19 12 -40 22 -46 22 -6 0 -17 6 -23 14 -9 11 0 22 41
53 82 62 102 74 118 71 8 -2 15 -11 15 -19z"/>
<path d="M31658 5472 c-30 -4 -36 -15 -40 -81 -2 -42 -1 -45 32 -56 19 -7 56
-24 81 -37 26 -14 60 -29 75 -32 16 -4 57 -21 92 -37 35 -16 73 -29 86 -29 12
0 31 -7 42 -15 10 -8 31 -15 46 -15 14 0 39 -7 55 -15 15 -8 60 -26 100 -40
39 -14 77 -33 84 -42 9 -10 12 -39 10 -88 -1 -40 2 -81 7 -91 5 -11 18 -44 27
-74 18 -54 38 -88 83 -136 12 -14 22 -29 22 -33 0 -5 34 -44 76 -87 124 -128
134 -139 134 -152 0 -8 -7 -9 -25 -2 -14 5 -29 9 -33 9 -23 -4 -33 5 -46 36
-16 38 -30 43 -56 20 -9 -8 -54 -22 -101 -31 -200 -38 -320 -71 -341 -95 -9
-10 -20 -19 -26 -19 -5 0 -25 -14 -43 -31 -19 -16 -44 -37 -57 -46 -26 -18
-56 -69 -48 -82 3 -5 -5 -25 -18 -44 -18 -25 -27 -57 -32 -107 -3 -39 -11 -73
-15 -76 -5 -3 -9 -18 -9 -34 0 -22 15 -44 61 -91 34 -33 78 -68 98 -76 20 -8
44 -22 54 -31 17 -15 113 -46 182 -59 17 -3 35 -10 40 -17 10 -11 27 -12 210
-16 119 -2 128 -5 120 -38 -4 -15 -13 -34 -21 -43 -8 -9 -14 -20 -12 -25 1 -5
-8 -35 -20 -66 -15 -39 -23 -89 -27 -157 -4 -85 -2 -106 15 -146 11 -26 20
-51 20 -56 0 -5 -17 -17 -38 -28 -40 -20 -149 -100 -192 -139 -14 -13 -37 -30
-52 -38 -16 -8 -28 -21 -28 -29 0 -8 -6 -15 -12 -15 -7 -1 -31 -21 -53 -45
-22 -25 -79 -85 -127 -134 -49 -49 -88 -92 -88 -96 0 -12 -101 -135 -110 -135
-5 0 -18 -21 -29 -46 -12 -26 -29 -48 -40 -51 -27 -7 -35 -33 -17 -52 13 -12
21 -13 57 -1 22 8 51 25 64 39 58 64 106 125 119 149 8 15 34 44 57 65 24 21
71 64 104 95 135 127 167 155 222 193 32 21 61 39 64 39 3 0 27 21 54 46 51
47 59 49 121 29 15 -5 28 0 42 15 17 19 19 31 14 113 -2 51 -9 100 -13 109
-12 22 -1 177 18 252 17 71 54 132 85 141 13 4 30 16 38 26 12 15 33 19 110
23 54 3 111 12 133 21 21 9 61 20 89 25 29 6 59 16 67 24 9 7 34 16 55 19 21
4 56 18 77 32 21 14 44 25 50 25 6 0 24 9 39 20 l28 20 19 -27 c31 -45 74
-155 108 -278 9 -33 21 -65 27 -72 5 -6 18 -40 29 -75 10 -34 28 -70 39 -78
l20 -15 -20 -42 c-11 -23 -19 -50 -17 -60 2 -18 -25 -149 -44 -209 -5 -17 -9
-39 -9 -50 0 -20 -20 -81 -33 -102 -5 -6 -10 -32 -12 -57 -2 -24 -7 -50 -11
-57 -5 -7 -9 -22 -9 -33 -1 -11 -5 -29 -10 -40 -43 -104 -43 -110 -15 -164 14
-29 27 -40 51 -45 38 -7 49 -1 49 28 0 13 7 41 17 62 31 73 73 199 88 261 7
34 19 72 26 85 7 13 18 50 25 83 7 33 19 92 28 130 14 67 39 129 55 139 16 10
-2 67 -26 83 -29 19 -37 38 -69 161 -13 51 -28 101 -34 111 -5 10 -11 44 -13
75 -2 30 -10 63 -18 73 -31 39 -80 163 -64 163 3 0 17 -7 30 -16 13 -9 44 -22
67 -29 38 -11 43 -16 40 -38 -4 -38 25 -49 121 -46 45 1 134 -2 198 -6 81 -5
122 -4 137 4 12 6 48 14 80 17 54 6 61 4 71 -14 12 -23 36 -122 32 -136 -1 -5
6 -18 17 -30 10 -11 40 -63 65 -115 45 -88 47 -95 35 -130 -7 -20 -20 -45 -30
-57 -10 -11 -18 -25 -18 -31 0 -5 -9 -18 -21 -28 -11 -11 -49 -63 -85 -117
-35 -54 -68 -98 -72 -98 -4 0 -32 -39 -62 -87 -29 -49 -68 -110 -86 -138 -41
-65 -50 -119 -24 -147 l19 -21 56 38 c30 21 55 44 55 52 0 7 7 16 16 20 12 4
14 14 10 35 -5 23 0 36 24 61 16 18 30 36 30 40 0 10 62 90 73 95 4 2 7 9 7
15 0 6 13 25 30 41 57 59 170 200 170 212 0 20 17 25 44 13 34 -16 73 1 87 38
9 25 -2 62 -43 133 -4 8 -17 35 -29 60 -11 24 -38 81 -60 126 -22 45 -43 99
-46 120 -3 22 -10 42 -15 45 -5 3 -11 21 -14 40 -5 28 -1 39 22 64 26 28 29
28 32 10 2 -11 11 -28 19 -37 8 -9 12 -22 8 -27 -9 -16 73 -106 130 -142 27
-17 63 -40 78 -51 22 -15 31 -17 42 -8 8 7 18 9 22 7 13 -8 194 40 212 57 9 8
38 25 63 36 52 23 65 35 46 44 -10 5 -10 7 -1 12 7 3 28 19 49 35 45 36 67 37
82 4 7 -14 22 -30 34 -36 13 -5 36 -28 51 -50 16 -21 32 -39 37 -39 14 0 50
-76 50 -105 0 -15 -5 -35 -10 -46 -9 -17 -7 -19 17 -19 15 0 41 -7 58 -16 24
-12 34 -13 52 -3 18 10 45 10 126 0 191 -23 562 -10 610 21 32 22 54 65 39 80
-11 11 -147 13 -164 2 -5 -3 -14 -1 -21 5 -7 5 -35 8 -62 5 -88 -7 -168 -5
-245 6 -41 7 -102 13 -135 15 -100 6 -118 15 -135 66 -9 25 -32 65 -53 89 -20
24 -37 49 -37 55 0 16 -41 59 -63 68 -27 10 -21 43 12 57 16 6 37 20 46 30 10
11 29 22 45 25 15 3 37 17 49 31 21 24 23 25 41 9 22 -20 47 -11 30 10 -9 11
-8 20 4 37 20 28 21 82 2 97 -8 6 -17 36 -21 66 -3 30 -10 55 -15 55 -11 0
-29 16 -123 106 -65 63 -68 67 -52 85 10 10 15 25 12 33 -4 9 7 28 24 47 16
17 29 37 29 44 0 7 9 24 20 38 11 14 20 31 20 39 0 20 48 60 74 63 13 2 33 8
44 14 20 11 143 8 163 -4 17 -11 169 -45 200 -45 17 0 49 -9 71 -20 23 -11 51
-20 63 -20 11 0 25 -4 30 -9 6 -5 46 -11 91 -14 74 -4 82 -3 93 16 12 18 11
22 -5 33 -11 8 -35 29 -54 47 -40 39 -156 81 -270 97 -40 6 -80 15 -90 20 -10
6 -31 10 -45 10 -14 0 -34 4 -45 10 -34 18 -221 27 -263 13 -23 -8 -53 -11
-73 -7 -25 4 -42 1 -62 -12 -15 -10 -36 -23 -47 -29 -16 -9 -20 -21 -20 -66 0
-44 -8 -72 -40 -137 -22 -44 -45 -81 -50 -81 -6 -1 -15 7 -22 17 -10 17 -75
37 -151 47 -15 2 -47 11 -72 20 -34 12 -63 14 -120 9 -41 -3 -79 -10 -85 -14
-5 -4 -37 -11 -70 -15 -46 -5 -68 -14 -101 -41 -22 -19 -46 -34 -52 -34 -6 0
-14 -9 -17 -20 -3 -11 -15 -25 -25 -30 -17 -9 -22 -6 -34 23 -7 19 -17 45 -21
58 -4 13 -17 44 -28 69 -12 25 -24 72 -29 105 -10 74 -9 69 -8 132 2 45 -3 58
-34 99 -20 26 -39 58 -42 71 -4 13 -12 23 -20 23 -7 0 -16 11 -20 25 -3 14
-10 25 -15 25 -5 0 -12 8 -16 18 -3 9 -17 31 -30 49 -13 17 -24 44 -25 59 -3
28 -46 79 -76 88 -25 8 -81 -10 -108 -35 -22 -21 -22 -22 -6 -64 9 -23 29 -58
45 -76 15 -18 27 -39 27 -46 0 -8 38 -60 85 -115 80 -96 85 -104 79 -137 -18
-92 2 -248 39 -305 8 -12 22 -43 32 -71 10 -27 27 -62 37 -77 17 -25 24 -48
13 -48 -3 0 -38 9 -78 19 -74 20 -291 46 -306 36 -5 -2 -42 -7 -82 -10 -103
-7 -156 -15 -214 -30 -86 -23 -109 -35 -154 -83 l-44 -47 7 45 c4 24 12 50 19
58 6 8 12 29 12 46 0 50 63 174 97 188 15 7 28 17 28 22 0 27 122 152 169 172
31 14 33 17 26 52 -10 58 -23 66 -92 54 -65 -11 -83 -4 -83 34 0 12 -9 29 -20
37 -11 7 -36 36 -57 63 -41 56 -99 125 -141 169 -71 75 -111 131 -114 163 -3
30 -8 36 -43 48 -103 36 -160 3 -148 -84 3 -26 10 -48 15 -50 4 -2 8 -10 8
-17 0 -8 12 -21 28 -30 15 -9 38 -32 52 -52 14 -19 33 -44 43 -54 9 -10 17
-21 17 -23 0 -2 15 -20 33 -39 17 -19 47 -54 65 -78 19 -24 69 -81 113 -127
43 -45 79 -89 79 -97 0 -8 -17 -24 -39 -34 -24 -13 -41 -30 -45 -45 -3 -13
-21 -39 -40 -56 -18 -18 -39 -50 -46 -71 -7 -21 -18 -39 -24 -39 -6 0 -21 -42
-33 -92 -13 -54 -31 -100 -42 -112 -19 -18 -22 -19 -53 -4 -18 9 -44 20 -58
26 -33 13 -194 39 -350 57 -93 11 -128 19 -135 31 -28 44 -138 180 -158 194
-29 19 -77 69 -77 78 0 4 -20 28 -45 52 -25 24 -45 50 -45 57 0 6 -6 16 -13
20 -17 11 -36 57 -48 116 -7 37 -5 60 6 93 13 38 13 47 0 76 -21 47 -35 62
-75 83 -19 9 -43 24 -53 33 -9 8 -59 26 -110 39 -50 13 -101 27 -112 32 -30
14 -71 27 -165 55 -50 15 -99 37 -120 54 -19 16 -46 35 -60 42 -35 19 -111 36
-142 32z"/>
<path d="M39122 5407 c-23 -9 -29 -16 -22 -23 6 -6 12 -43 14 -83 1 -39 8 -77
14 -83 7 -7 12 -30 12 -51 0 -36 11 -78 61 -227 25 -76 27 -104 7 -124 -10 -9
-23 -35 -29 -56 -7 -23 -20 -42 -31 -45 -10 -4 -18 -10 -18 -14 0 -5 -21 -14
-47 -21 -27 -7 -56 -20 -65 -28 -14 -12 -20 -12 -33 -2 -8 7 -15 16 -15 21 0
18 -35 49 -55 49 -30 0 -49 16 -42 34 4 9 15 16 26 16 11 0 25 8 30 19 6 10
22 21 35 25 20 5 28 18 41 63 19 65 15 78 -33 103 -43 24 -63 41 -61 54 1 6
-1 24 -6 40 -7 24 -4 32 16 47 20 15 24 27 24 68 0 45 -4 53 -35 80 -52 44
-75 41 -101 -15 -30 -67 -33 -103 -20 -219 9 -72 10 -109 2 -122 -5 -11 -12
-49 -15 -84 -2 -35 -12 -80 -20 -101 -23 -53 -126 -134 -126 -98 0 17 -34 50
-52 50 -39 0 -31 46 10 57 34 8 72 42 72 65 0 10 7 21 15 24 9 4 15 19 15 39
0 36 -28 63 -84 82 -22 7 -33 19 -43 49 -7 21 -18 49 -24 61 -11 19 -8 65 7
116 3 11 -1 20 -13 24 -23 8 -33 23 -33 49 0 19 -53 54 -83 54 -16 0 -40 -38
-32 -51 4 -5 1 -26 -5 -45 -7 -22 -9 -39 -3 -43 10 -7 63 -177 63 -203 0 -10
7 -32 16 -50 14 -30 14 -36 -1 -70 -8 -21 -22 -38 -30 -38 -9 0 -15 -10 -15
-25 0 -14 -8 -29 -20 -35 -21 -11 -27 -44 -10 -55 15 -10 12 -25 -7 -32 -10
-3 -40 -24 -66 -45 -45 -37 -49 -39 -66 -24 -10 9 -23 16 -29 16 -23 0 -82 34
-82 47 0 24 38 90 63 110 41 32 59 70 60 125 1 44 -3 58 -26 82 -24 25 -31 28
-67 22 -23 -3 -50 -12 -60 -18 -17 -11 -25 -7 -65 32 -25 24 -45 53 -45 63 0
10 -5 27 -10 38 -8 13 -7 25 1 40 9 18 7 25 -15 48 -14 15 -26 32 -26 38 0 40
-96 36 -116 -6 -13 -25 -5 -71 24 -131 9 -19 17 -42 18 -50 1 -16 22 -56 69
-133 21 -32 40 -50 62 -58 31 -10 33 -14 33 -55 0 -29 -6 -50 -18 -62 -13 -13
-18 -33 -18 -72 1 -53 1 -54 -33 -61 -52 -11 -79 -29 -96 -65 -9 -19 -22 -34
-30 -34 -8 0 -38 22 -67 50 -47 44 -199 130 -231 130 -7 0 -23 9 -37 20 -14
11 -33 20 -43 20 -10 0 -28 5 -40 12 -27 15 -89 11 -125 -8 -15 -8 -31 -14
-37 -14 -5 0 -21 -9 -35 -20 -14 -11 -35 -20 -46 -20 -12 0 -27 -7 -34 -15 -7
-8 -21 -15 -31 -15 -11 0 -19 -4 -19 -8 0 -5 -27 -31 -60 -57 -33 -26 -60 -54
-60 -61 0 -8 -14 -21 -31 -29 -17 -9 -37 -31 -45 -50 -7 -18 -21 -40 -30 -50
-14 -13 -15 -25 -8 -68 8 -47 12 -52 33 -49 13 1 29 -4 35 -12 9 -12 24 -8 95
25 118 56 206 82 248 76 19 -3 45 -1 59 5 27 13 82 -1 147 -36 43 -23 46 -38
12 -60 -16 -11 -25 -26 -26 -44 0 -15 -4 -36 -8 -47 -14 -34 60 -105 109 -105
10 0 23 -7 30 -15 11 -13 8 -20 -21 -45 -19 -16 -42 -29 -51 -30 -9 0 -24 -13
-34 -28 -27 -47 -100 -66 -232 -60 -117 5 -162 20 -162 57 0 15 -8 19 -47 19
-25 1 -51 6 -57 12 -5 5 -45 10 -88 10 -72 0 -80 -2 -110 -29 l-32 -29 24 -48
c17 -34 32 -50 48 -52 12 -2 28 -12 35 -23 6 -10 17 -19 23 -19 5 0 23 -13 39
-30 16 -16 35 -30 42 -30 11 0 91 -39 163 -79 45 -25 113 -51 121 -46 5 4 47
6 94 6 47 1 85 5 85 10 0 5 31 9 69 9 52 0 70 4 75 15 3 8 15 15 27 15 11 0
33 9 48 19 14 10 46 24 70 31 50 13 111 55 111 77 0 7 8 17 18 20 9 4 23 13
30 20 7 7 32 13 55 14 23 1 66 3 95 5 l53 4 -24 -32 c-43 -58 -51 -81 -57
-183 -7 -106 -22 -147 -82 -226 -16 -20 -28 -45 -28 -57 0 -12 -8 -26 -19 -31
-10 -6 -21 -25 -25 -44 -3 -18 -15 -40 -26 -50 -16 -14 -18 -21 -10 -37 5 -10
15 -22 20 -25 6 -3 10 -15 10 -26 0 -14 7 -19 30 -19 17 0 30 5 30 10 0 6 10
8 24 4 18 -4 25 -1 29 17 3 12 3 34 0 50 -4 21 0 30 15 38 13 7 18 18 15 29
-3 11 13 45 41 85 25 37 46 74 46 82 0 9 14 24 32 35 17 10 44 37 59 59 l27
41 -17 54 c-9 29 -23 61 -31 71 -18 21 -5 43 38 64 35 18 42 46 14 55 -11 4
-29 17 -41 30 l-22 23 32 13 c29 12 33 12 50 -11 16 -22 24 -24 82 -22 l65 3
6 -33 c4 -17 9 -48 12 -67 6 -40 30 -96 44 -105 23 -14 7 -45 -44 -86 -30 -24
-58 -53 -63 -64 -20 -44 21 -125 63 -125 18 0 89 78 89 98 0 9 9 18 19 20 11
3 28 15 38 28 12 15 34 25 61 29 39 6 44 10 55 45 6 22 9 45 7 52 -6 15 -79
63 -96 63 -17 0 -29 28 -17 43 8 9 6 18 -10 33 -16 14 -22 32 -22 63 0 49 15
61 56 46 14 -6 38 -10 53 -10 34 0 43 -10 66 -75 10 -27 31 -70 47 -93 39 -60
41 -116 5 -163 -15 -20 -27 -47 -27 -61 0 -14 -7 -31 -15 -38 -8 -7 -12 -16
-10 -20 8 -12 -24 -88 -57 -138 -31 -48 -37 -106 -14 -137 13 -19 15 -19 55
-1 22 11 41 24 41 31 0 6 11 35 25 63 14 29 25 59 25 67 0 8 9 19 20 25 11 6
20 19 20 29 0 10 6 24 14 30 7 6 25 38 40 71 18 40 33 60 44 60 13 0 21 13 29
43 14 50 9 75 -23 132 -61 105 -64 115 -46 152 16 34 17 34 67 28 78 -11 115
-30 115 -59 0 -15 7 -27 19 -31 14 -4 20 -18 24 -58 3 -29 1 -56 -4 -61 -5 -6
-9 -22 -9 -38 0 -16 -12 -41 -30 -61 -16 -19 -30 -42 -30 -52 0 -9 -8 -29 -18
-43 -10 -15 -20 -45 -21 -67 -1 -22 -3 -49 -4 -59 -1 -12 8 -26 25 -35 36 -20
82 -6 86 28 2 13 12 26 23 28 21 6 24 16 9 43 -11 21 -7 33 38 115 21 39 33
51 55 53 15 2 27 9 27 17 0 7 11 20 25 29 21 14 25 24 25 65 0 39 -4 50 -19
54 -11 2 -29 26 -41 53 -29 66 -33 89 -15 104 21 17 104 3 132 -22 26 -25 110
-43 128 -28 15 12 36 -18 80 -115 15 -33 34 -67 41 -75 11 -13 10 -21 -8 -48
-11 -17 -24 -32 -29 -32 -5 0 -9 -7 -9 -16 0 -8 -18 -32 -40 -51 -24 -22 -40
-45 -40 -58 0 -13 -7 -28 -15 -35 -8 -7 -15 -18 -15 -26 0 -7 -9 -16 -20 -19
-24 -8 -25 -24 -5 -51 8 -10 15 -31 15 -46 0 -33 21 -36 75 -14 35 15 55 42
55 75 0 11 9 25 21 32 13 7 19 17 16 29 -3 11 12 39 39 74 24 31 44 59 44 63
0 5 32 39 70 77 39 38 70 76 70 84 0 8 -16 32 -35 53 -22 25 -32 44 -28 55 4
10 0 20 -10 26 -30 16 -18 23 41 25 31 0 67 4 78 8 19 6 22 2 29 -42 5 -36 18
-61 49 -98 65 -78 85 -147 52 -175 -8 -6 -20 -27 -26 -46 -7 -19 -24 -41 -41
-51 -20 -12 -28 -24 -26 -35 3 -10 -1 -22 -9 -29 -8 -6 -14 -19 -14 -28 0 -9
-6 -25 -14 -36 -7 -11 -19 -37 -25 -57 -7 -21 -21 -44 -32 -51 -17 -13 -18
-19 -9 -68 10 -53 37 -88 68 -89 17 0 102 86 102 104 0 8 -9 18 -20 21 -23 7
-26 21 -6 28 8 3 20 18 28 34 25 48 87 145 106 167 10 12 24 34 32 50 8 16 32
41 52 55 48 33 53 52 31 98 -9 21 -16 47 -15 58 2 15 -6 23 -27 31 -16 6 -37
23 -46 38 -15 22 -16 31 -5 56 10 24 20 31 51 36 22 4 39 10 39 14 0 4 9 10
20 13 26 7 42 -22 34 -61 -5 -24 -2 -32 15 -41 12 -7 21 -17 21 -23 0 -7 11
-21 23 -33 32 -27 81 -184 78 -247 -1 -46 -39 -123 -90 -189 -12 -15 -24 -35
-27 -45 -4 -11 -15 -28 -25 -39 -25 -27 -34 -95 -17 -118 16 -22 89 -27 112
-8 9 7 16 27 16 43 0 35 23 83 45 91 8 4 15 18 15 32 0 14 14 41 33 62 18 21
45 55 60 76 16 20 42 44 58 53 25 12 30 20 24 37 -4 12 -7 31 -8 42 -1 11 -10
26 -19 33 -9 7 -15 19 -12 27 4 9 -3 18 -18 24 -34 13 -43 28 -57 101 -15 77
-15 107 0 137 9 17 9 25 -5 38 -9 9 -16 19 -16 22 0 11 76 -9 112 -29 47 -27
124 -21 159 10 12 12 26 22 31 22 11 0 10 -17 -1 -24 -5 -4 -3 -20 6 -37 10
-20 13 -44 9 -67 -3 -20 0 -55 6 -79 12 -49 17 -39 -78 -136 -62 -64 -99 -150
-89 -204 10 -57 43 -95 80 -91 21 2 31 9 33 23 5 39 26 100 39 116 7 8 13 25
13 36 0 34 66 99 131 128 77 34 103 72 84 119 -7 17 -21 33 -31 35 -30 6 -53
43 -54 87 0 34 4 43 25 52 14 7 32 12 39 12 8 0 16 7 20 15 3 8 16 15 28 15
13 0 32 7 42 15 27 21 54 19 68 -5 8 -13 19 -18 33 -14 28 7 42 -11 48 -66 4
-25 9 -62 13 -83 5 -30 2 -43 -14 -60 -11 -12 -26 -35 -35 -52 -8 -16 -27 -43
-41 -58 -28 -31 -56 -89 -56 -117 0 -10 -6 -20 -14 -23 -8 -3 -22 -18 -32 -32
-16 -24 -16 -27 0 -44 9 -10 16 -24 14 -32 -5 -20 69 -51 104 -44 26 6 29 11
26 36 -3 17 -1 32 4 35 4 3 8 19 8 35 0 41 35 107 81 152 30 28 47 37 73 37
19 0 38 5 41 10 3 6 17 10 31 10 19 0 24 5 24 25 0 16 6 25 15 25 8 0 16 6 16
13 5 51 -21 97 -55 97 -14 0 -26 7 -30 18 -3 9 -15 33 -26 52 l-20 35 21 7
c12 5 36 4 53 0 17 -5 62 -8 99 -7 59 2 67 1 67 -15 0 -10 5 -20 11 -22 11 -4
17 -30 22 -100 2 -20 11 -45 20 -56 9 -10 17 -25 17 -33 0 -8 4 -19 10 -25 6
-6 6 -45 -1 -109 -9 -84 -15 -104 -35 -126 -24 -25 -24 -27 -9 -63 11 -26 26
-42 50 -52 50 -21 85 -18 85 5 0 11 5 23 10 26 6 4 9 42 8 88 -1 94 18 148 68
190 32 27 36 59 20 138 -6 30 -13 38 -36 42 -31 7 -90 84 -90 118 0 22 21 20
93 -7 51 -19 93 -18 141 6 68 33 78 30 145 -33 33 -33 61 -63 61 -68 0 -5 -20
-27 -45 -50 -25 -23 -45 -46 -45 -51 0 -5 -17 -27 -39 -49 -21 -22 -58 -79
-81 -127 -24 -48 -54 -101 -66 -118 l-23 -32 20 -18 c12 -11 39 -20 64 -21 42
-3 44 -2 64 40 12 24 21 54 21 66 0 14 7 25 19 28 11 3 21 17 25 35 10 51 135
168 184 172 33 2 104 44 96 57 -3 6 0 17 7 26 11 13 10 17 -4 28 -9 7 -17 19
-17 27 0 9 -16 28 -35 42 -19 15 -35 31 -35 37 0 6 35 8 98 4 53 -4 107 -6
119 -6 23 1 53 -33 53 -60 0 -9 8 -27 18 -40 11 -13 21 -40 25 -59 5 -36 2
-41 -93 -157 -6 -7 -10 -20 -10 -29 0 -9 -14 -34 -31 -55 -17 -21 -28 -43 -25
-47 5 -9 -9 -61 -25 -94 -15 -29 -10 -43 21 -66 33 -25 87 -29 115 -9 15 11
17 23 12 62 -4 40 0 59 22 104 27 56 136 181 158 181 11 0 51 49 72 88 10 19
10 28 -3 47 -9 13 -24 26 -35 30 -16 5 -71 74 -71 90 0 4 8 5 18 3 9 -1 28 5
42 15 13 9 30 17 37 17 7 0 23 11 37 25 31 31 45 31 76 3 13 -13 33 -27 44
-33 11 -5 24 -23 29 -40 5 -16 18 -39 28 -51 11 -11 19 -25 19 -32 0 -15 -22
-65 -81 -185 -27 -54 -49 -109 -49 -122 0 -13 -7 -25 -15 -27 -14 -3 -14 -5 0
-25 23 -32 97 -30 131 4 14 14 24 34 22 47 -3 30 22 81 46 92 13 5 22 20 24
37 3 25 7 28 30 23 96 -19 97 -19 110 9 24 52 9 143 -26 151 -24 7 -46 55 -29
66 6 4 18 8 25 8 6 0 12 7 12 16 0 10 15 32 34 50 30 30 35 31 57 19 13 -8 39
-21 57 -29 20 -10 32 -22 32 -35 0 -11 6 -24 14 -28 12 -8 19 -28 33 -97 7
-36 -17 -86 -65 -138 -32 -34 -34 -40 -33 -104 1 -109 31 -119 104 -33 20 23
40 38 46 34 7 -4 11 5 11 22 0 57 10 73 44 73 26 0 39 8 64 39 39 48 40 70 7
101 -14 13 -25 30 -25 38 0 8 -11 30 -25 48 -14 18 -25 44 -25 59 0 24 2 26
33 20 17 -4 52 -8 77 -9 94 -5 220 -92 220 -153 0 -14 -16 -48 -36 -76 -20
-28 -41 -67 -46 -86 -6 -20 -18 -46 -28 -59 -16 -20 -17 -26 -4 -50 8 -15 14
-35 14 -46 0 -14 5 -17 23 -11 12 4 31 8 42 8 36 3 46 16 40 51 -13 67 87 164
180 176 40 5 40 5 43 54 3 54 -19 89 -63 100 -19 5 -65 60 -65 79 0 3 27 8 60
12 55 6 60 9 60 31 0 14 10 30 25 40 23 15 28 15 61 -1 19 -9 51 -15 72 -13
34 3 36 1 43 -30 4 -18 14 -41 23 -51 9 -10 16 -21 16 -26 0 -5 7 -17 16 -26
22 -25 21 -62 -4 -117 -12 -26 -28 -63 -37 -82 -8 -19 -26 -55 -40 -79 -29
-52 -34 -125 -9 -135 60 -23 119 10 139 78 8 27 24 55 35 63 11 7 24 31 30 53
6 21 24 52 40 69 20 19 35 50 45 88 21 80 17 113 -15 125 -48 19 -53 24 -65
66 -15 50 -2 69 42 57 52 -13 111 -13 139 1 15 8 52 16 82 19 29 2 64 11 77
19 13 9 30 13 38 10 17 -6 124 23 132 37 4 5 17 9 30 9 12 0 26 7 29 16 6 16
53 16 136 0 14 -3 45 -8 70 -12 25 -4 50 -10 55 -15 6 -4 31 -11 55 -15 25 -4
65 -16 89 -26 24 -10 60 -23 80 -27 83 -21 174 -51 188 -63 8 -6 24 -13 35
-15 11 -2 32 -9 47 -17 14 -8 55 -28 91 -46 78 -39 161 -84 212 -117 21 -12
41 -23 46 -23 5 0 19 -12 33 -26 13 -14 36 -32 51 -40 14 -7 47 -32 73 -54 25
-22 56 -40 68 -40 22 0 97 -77 97 -99 0 -13 45 -25 64 -18 25 10 8 87 -30 134
-19 23 -34 47 -34 53 0 16 -116 127 -152 146 -15 8 -42 27 -60 42 -18 16 -68
48 -110 72 -43 24 -78 47 -78 50 0 7 -37 26 -170 88 -36 17 -139 54 -230 82
-91 29 -194 65 -230 81 -36 15 -97 33 -135 39 -39 6 -81 15 -95 20 -14 5 -37
11 -52 13 -37 4 -40 10 -28 41 10 29 -4 66 -26 66 -7 0 -14 12 -17 27 -7 40
28 71 99 88 157 37 313 98 360 142 14 13 36 26 50 29 13 3 23 12 22 19 -3 14
128 117 173 137 15 6 34 24 43 40 10 15 21 28 26 28 15 0 160 132 155 140 -3
5 3 11 12 14 19 6 64 44 145 121 26 25 50 45 55 45 11 0 55 50 96 109 18 25
40 52 50 60 26 18 8 33 -41 35 -31 0 -47 -6 -78 -33 -21 -19 -41 -40 -44 -46
-6 -15 -192 -175 -228 -196 -15 -8 -56 -44 -92 -80 -36 -35 -83 -76 -105 -92
-22 -15 -60 -43 -85 -62 -42 -33 -113 -84 -228 -162 -26 -18 -54 -33 -63 -33
-9 0 -33 -12 -54 -26 -21 -14 -44 -23 -51 -20 -7 3 -16 1 -19 -3 -8 -14 -106
-42 -158 -46 -53 -4 -101 20 -110 55 -3 11 -18 21 -38 25 -19 4 -45 14 -59 23
-14 9 -47 20 -75 24 -27 4 -84 12 -125 19 -89 13 -131 3 -170 -44 l-26 -30
-13 41 c-12 36 -12 44 3 66 9 14 16 37 16 51 0 18 5 25 19 25 20 0 54 44 54
70 0 8 7 20 15 26 8 6 15 28 16 52 0 31 -5 45 -23 61 -26 23 -70 28 -88 10 -9
-9 -19 -4 -42 19 -24 24 -31 39 -31 70 0 31 -5 43 -25 56 -14 9 -25 25 -25 36
0 17 -7 20 -40 20 -33 0 -40 -3 -40 -19 0 -11 -4 -23 -10 -26 -5 -3 -10 -14
-10 -24 0 -10 -11 -30 -25 -45 -29 -32 -27 -40 20 -62 22 -10 38 -28 48 -53 9
-20 22 -43 31 -50 20 -17 20 -67 1 -105 -8 -15 -15 -34 -15 -42 0 -13 -32 -36
-47 -33 -22 4 -43 -3 -58 -17 -9 -9 -32 -27 -50 -40 -40 -27 -59 -15 -49 33 5
24 16 34 55 52 27 11 49 25 49 31 0 5 6 10 14 10 19 0 27 69 10 96 -7 12 -28
24 -48 28 -47 9 -73 24 -122 71 -45 43 -62 84 -68 159 -5 57 -14 69 -52 64
-21 -2 -34 -14 -55 -53 -24 -43 -27 -57 -22 -105 4 -39 15 -68 37 -100 18 -25
35 -53 39 -62 3 -10 13 -18 20 -18 8 0 22 -9 32 -20 14 -15 15 -23 6 -33 -10
-13 -60 -37 -104 -51 -9 -3 -21 -16 -27 -30 -12 -32 -23 -38 -52 -27 -24 9
-78 80 -78 101 0 7 6 18 14 26 23 22 -14 112 -55 135 -11 5 -19 19 -19 31 0
16 -5 19 -20 15 -14 -4 -25 2 -36 19 -9 13 -34 34 -56 46 l-39 22 6 71 c8 89
-5 114 -53 97 -43 -15 -68 -41 -76 -79 -3 -18 -9 -46 -12 -63 -4 -19 -2 -30 5
-30 6 0 11 -13 11 -28 0 -41 46 -104 101 -141 27 -17 49 -36 49 -41 0 -15 -40
-82 -64 -107 -23 -25 -47 -29 -76 -13 -14 7 -21 6 -27 -3 -4 -8 -21 -22 -38
-32 -16 -11 -38 -27 -47 -36 -47 -48 -190 25 -149 75 6 7 31 26 55 41 43 27
43 28 45 88 1 50 -3 66 -24 98 -15 21 -33 40 -41 43 -8 3 -14 13 -14 21 0 9
-4 14 -9 11 -10 -7 -43 30 -60 69 -7 17 -17 38 -22 47 -5 10 -9 29 -9 43 0 27
-5 29 -65 25 -47 -2 -65 -15 -65 -43 0 -11 -5 -36 -12 -54 -10 -27 -10 -37 0
-51 7 -9 19 -31 27 -49 8 -17 29 -41 47 -54 18 -12 47 -38 65 -58 34 -39 33
-49 -10 -94 -12 -14 -37 -43 -55 -66 -18 -23 -42 -41 -53 -41 -10 0 -19 -7
-19 -15 0 -19 -26 -20 -37 -1 -10 17 -47 36 -70 36 -16 0 -18 10 -19 79 -1 55
-6 85 -18 102 -9 13 -16 36 -16 52 0 19 -6 30 -18 34 -10 2 -23 21 -30 43 -6
21 -23 51 -37 66 -14 15 -30 44 -36 65 -15 48 -44 64 -102 55 l-45 -7 -4 -46
c-2 -30 1 -47 9 -50 7 -3 13 -15 13 -27 0 -13 11 -28 29 -39 23 -14 29 -25 34
-69 4 -30 13 -58 22 -64 8 -6 15 -20 15 -30 0 -10 7 -28 16 -39 18 -24 10 -98
-15 -135 -10 -14 -20 -33 -24 -42 -7 -19 -56 -22 -97 -7 -20 7 -44 4 -103 -16
-43 -14 -84 -25 -92 -25 -21 0 -18 17 5 30 11 6 20 17 20 25 0 7 9 17 20 20
13 4 20 15 20 30 0 13 6 28 13 32 6 4 19 22 28 38 8 17 22 40 29 52 12 18 12
28 0 63 -8 23 -22 47 -32 54 -10 6 -18 17 -18 24 0 7 -7 15 -16 19 -25 9 -135
154 -141 185 -9 47 -71 32 -111 -26 l-23 -33 26 -48 c14 -26 25 -53 25 -59 0
-6 20 -31 45 -55 25 -24 45 -49 45 -55 0 -6 11 -19 26 -31 24 -19 25 -21 10
-55 -8 -19 -26 -48 -40 -63 -14 -15 -28 -38 -32 -51 -9 -35 -49 -76 -75 -76
-13 0 -46 -11 -73 -25 -27 -14 -60 -25 -73 -25 -18 0 -23 -6 -23 -24 0 -16
-12 -31 -39 -49 -39 -26 -39 -26 -44 -5 -8 27 -1 38 24 38 14 0 19 7 19 28 1
15 3 52 5 82 6 81 -40 236 -83 282 -19 21 -23 34 -19 57 4 19 1 33 -8 41 -8 7
-15 19 -15 26 0 19 -42 34 -71 27 -31 -8 -51 -30 -67 -75 -11 -33 -10 -41 13
-93 14 -32 25 -63 25 -71 0 -7 14 -22 30 -34 32 -23 38 -48 18 -68 -9 -9 -10
-15 -2 -20 21 -13 33 -78 22 -121 -7 -29 -21 -47 -53 -70 -24 -17 -47 -31 -51
-31 -4 0 -15 -7 -25 -16 -16 -15 -20 -13 -54 21 -34 36 -39 38 -97 37 -52 -1
-65 -5 -89 -28 -22 -21 -29 -24 -29 -12 0 9 6 18 14 21 9 4 12 14 9 26 -5 20
15 51 76 119 48 52 36 167 -21 204 -13 9 -37 45 -53 82 -16 36 -34 66 -40 66
-12 0 -45 36 -45 49 0 5 -12 19 -26 30 -38 30 -87 27 -119 -5 -24 -24 -25 -29
-14 -58 7 -17 18 -38 26 -47 7 -8 13 -20 13 -25 0 -9 29 -46 72 -92 14 -15 22
-39 24 -65 1 -23 7 -43 13 -45 15 -5 14 -24 -3 -58 -8 -15 -13 -30 -11 -34 2
-3 -14 -32 -36 -64 -21 -32 -39 -64 -39 -72 0 -8 -6 -14 -14 -14 -7 0 -27 -7
-42 -15 -16 -8 -37 -15 -47 -15 -11 0 -21 -9 -24 -20 -7 -28 -23 -25 -23 5 0
14 -8 29 -19 35 -11 5 -22 24 -26 41 -6 27 -3 36 22 60 36 33 49 95 31 145 -9
24 -18 34 -33 34 -12 0 -30 9 -40 20 -10 11 -26 20 -35 20 -9 0 -29 13 -44 29
-21 22 -26 34 -20 55 4 19 2 27 -11 32 -18 7 -39 50 -36 74 1 9 -1 11 -6 5 -4
-6 -34 -19 -66 -29 -47 -16 -59 -24 -63 -45 -3 -14 -7 -31 -9 -37 -2 -7 3 -22
12 -33 8 -12 13 -25 10 -27 -3 -3 5 -16 17 -29 11 -12 38 -44 59 -69 21 -25
43 -46 49 -46 13 0 37 -30 38 -47 0 -7 -7 -13 -16 -13 -9 0 -14 -6 -11 -12 6
-20 -21 -77 -61 -124 l-36 -43 -32 19 c-47 30 -75 25 -150 -25 -83 -56 -109
-58 -112 -11 -2 27 4 42 27 65 16 16 35 47 42 68 7 21 17 42 21 47 4 6 8 22 8
36 0 14 5 31 11 37 16 16 -9 90 -48 141 -18 24 -33 54 -33 67 0 13 -4 26 -9
29 -4 3 -7 30 -5 61 4 70 -9 107 -45 128 -36 21 -62 13 -93 -30 -25 -33 -25
-25 -4 -203 10 -80 29 -141 48 -151 17 -9 18 -17 12 -52 -4 -23 -6 -53 -6 -67
1 -29 -15 -53 -40 -63 -11 -4 -18 -17 -18 -31 0 -22 -3 -24 -40 -19 -31 4 -41
2 -46 -11 -14 -36 -104 -58 -104 -25 0 6 -11 21 -25 35 -18 18 -23 30 -16 41
4 9 6 24 4 33 -7 25 33 107 61 125 28 19 43 79 25 101 -6 7 -9 20 -6 29 4 10
-7 20 -38 34 -28 12 -49 29 -54 44 -6 14 -14 28 -20 31 -5 4 -12 32 -16 64
-16 145 -20 160 -53 214 -22 34 -25 36 -50 26 -65 -28 -75 -67 -38 -138 13
-24 19 -62 21 -122 2 -47 8 -94 13 -105 16 -30 43 -133 38 -142 -3 -4 -8 -31
-10 -58 -9 -83 -27 -112 -56 -90 -13 10 -13 10 -3 -3 15 -20 19 -90 7 -113 -9
-16 -12 -16 -23 -3 -7 8 -18 13 -25 10 -7 -3 -26 2 -42 11 -16 8 -36 15 -44
15 -8 0 -24 7 -34 15 -11 8 -28 15 -38 15 -11 0 -18 7 -18 20 0 11 7 20 15 20
8 0 15 6 15 14 0 7 9 16 19 19 13 3 24 19 31 45 6 23 15 44 20 47 6 3 10 14
10 24 0 10 10 26 23 34 l22 16 -40 35 c-22 19 -56 42 -76 51 l-36 17 -12 94
c-10 78 -10 98 1 111 11 13 9 18 -10 31 -12 8 -22 25 -22 38 0 20 -5 24 -29
24 -36 0 -66 -25 -80 -69 -8 -26 -8 -38 1 -48 7 -8 11 -35 9 -59 -1 -24 1 -44
6 -44 4 0 9 -33 10 -73 0 -39 7 -86 13 -102 12 -28 10 -35 -14 -73 -25 -40
-25 -42 -6 -42 26 0 25 -16 -6 -70 -14 -24 -23 -52 -21 -62 3 -9 0 -19 -7 -21
-8 -3 -7 -8 2 -20 8 -9 11 -20 8 -25 -10 -17 -67 -19 -107 -6 -21 8 -70 15
-109 16 -38 2 -70 6 -70 10 0 3 9 27 20 53 15 34 28 50 54 60 44 19 56 40 50
93 -5 60 -19 80 -63 92 -42 11 -62 44 -76 126 -4 21 -14 49 -22 62 -7 12 -17
52 -20 87 -5 60 -4 66 18 84 22 18 23 20 8 38 -9 10 -27 30 -39 46 -26 30 -61
34 -118 14z m4005 -760 c4 -6 9 -34 9 -62 1 -27 5 -63 9 -78 5 -20 3 -31 -8
-40 -13 -9 -15 -25 -12 -67 2 -30 4 -66 4 -80 1 -14 5 -48 11 -76 7 -33 7 -60
1 -76 -5 -14 -6 -29 -1 -34 5 -5 13 -29 19 -54 9 -41 8 -47 -15 -71 -13 -14
-24 -30 -24 -37 0 -16 -32 -15 -67 2 -15 8 -36 18 -47 21 -13 4 -17 11 -13 27
4 15 -1 29 -18 44 -28 26 -34 78 -11 87 12 5 14 27 13 104 -1 54 3 105 8 112
5 8 10 40 12 70 4 78 17 164 27 179 4 7 19 17 32 22 13 5 24 17 24 25 0 12 4
14 19 5 11 -5 24 -16 28 -23z m324 -14 c6 -16 8 -44 5 -63 -3 -19 -1 -73 4
-120 12 -116 15 -132 27 -155 6 -11 13 -36 17 -56 5 -28 2 -39 -13 -53 -10
-10 -22 -32 -25 -51 -8 -41 -21 -52 -74 -61 -23 -4 -42 -11 -42 -15 0 -5 -9
-4 -19 3 -11 6 -22 28 -25 47 -3 20 -8 52 -12 72 -3 22 -2 39 4 43 11 7 -2 62
-19 81 -14 14 -11 58 3 49 7 -4 8 -3 4 4 -4 7 -2 12 4 12 6 0 9 16 8 38 -5 92
2 150 19 154 9 2 21 18 28 37 8 26 20 38 46 47 48 17 48 17 60 -13z m589 -54
c0 -26 5 -51 10 -54 6 -4 8 -26 4 -55 -5 -35 -2 -61 10 -90 13 -32 14 -50 7
-77 -11 -39 -7 -53 14 -53 18 0 7 -41 -17 -58 -10 -7 -16 -18 -12 -23 9 -15
-26 -49 -51 -49 -30 0 -35 -8 -24 -38 7 -17 6 -29 -1 -36 -5 -5 -10 -17 -10
-26 0 -26 -41 -43 -74 -31 -15 6 -41 11 -57 11 -27 0 -29 3 -29 38 0 21 3 42
7 45 3 4 8 17 9 29 4 28 9 48 17 68 3 8 8 29 10 45 11 66 29 121 46 145 15 22
17 36 10 106 -5 45 -9 86 -10 90 -4 26 5 37 46 55 24 11 47 24 51 30 4 7 13 4
25 -7 14 -12 19 -31 19 -65z m-356 51 c25 0 47 -4 50 -8 8 -13 10 -173 3 -221
-11 -69 -26 -118 -42 -131 -8 -7 -15 -24 -15 -38 0 -20 -3 -23 -12 -14 -6 6
-12 52 -14 108 -2 71 -7 101 -19 114 -10 11 -14 26 -10 42 3 13 1 46 -5 73
-23 98 -23 97 -1 86 11 -6 40 -11 65 -11z m-838 -67 c16 -36 19 -129 5 -137
-5 -4 -15 -29 -22 -57 -7 -28 -19 -54 -26 -56 -15 -6 -17 -39 -4 -47 5 -4 9
-27 9 -54 0 -34 -6 -55 -24 -79 -13 -17 -24 -42 -24 -55 0 -13 -6 -31 -12 -40
-19 -24 -95 -26 -139 -4 -35 18 -37 21 -32 60 10 98 15 126 22 130 4 3 8 19 9
36 0 21 -4 30 -15 30 -12 0 -14 7 -8 38 11 54 17 92 19 131 1 30 7 37 51 60
33 17 51 34 53 48 2 13 15 25 35 33 18 6 39 15 47 20 17 10 35 -8 56 -57z
m-672 24 c24 -18 36 -185 16 -222 -7 -13 -10 -30 -7 -39 3 -8 2 -30 -4 -48 -5
-18 -10 -54 -10 -80 -1 -50 -28 -98 -55 -98 -10 0 -14 -9 -12 -26 3 -29 -27
-58 -40 -38 -4 6 -14 13 -22 16 -25 9 -27 63 -9 196 9 70 9 88 -5 122 -22 56
-21 61 25 132 69 104 83 114 123 85z m2096 -7 c0 -6 12 -16 28 -23 51 -22 56
-32 39 -81 -14 -42 -14 -46 10 -98 22 -47 24 -63 21 -139 -3 -62 -9 -95 -24
-120 -19 -32 -23 -34 -69 -32 -59 3 -73 14 -57 45 21 42 25 197 8 265 -19 72
-21 164 -4 181 15 15 48 16 48 2z m-1830 -55 c0 -19 -6 -35 -14 -38 -18 -7
-26 -67 -13 -92 6 -11 10 -24 9 -29 -2 -5 4 -42 13 -83 19 -96 19 -132 -2
-155 -14 -16 -15 -23 -5 -38 19 -30 15 -70 -6 -70 -10 0 -22 4 -27 9 -6 5 -25
13 -44 18 l-35 9 3 64 c1 35 9 76 16 91 9 16 12 40 8 63 -3 22 -2 36 5 36 15
0 8 115 -10 166 -20 55 -8 80 39 82 20 1 38 4 41 6 11 12 22 -7 22 -39z m2397
14 c33 -14 48 -28 59 -55 9 -20 13 -46 10 -58 -3 -12 2 -48 10 -81 19 -72 24
-101 27 -139 2 -35 0 -36 -190 -70 -12 -2 -35 -7 -53 -11 -35 -8 -115 9 -143
30 -21 15 -37 123 -20 133 15 10 27 72 15 72 -6 0 -15 21 -20 47 -8 37 -7 53
4 75 13 25 20 28 64 28 42 0 55 5 82 31 29 27 37 29 72 23 22 -3 60 -15 83
-25z m-7542 1 c-18 -20 -55 -28 -55 -12 0 10 38 30 59 31 11 1 10 -4 -4 -19z
m1590 -92 c3 -9 -3 -32 -14 -51 -14 -25 -16 -38 -9 -45 8 -8 8 -15 -1 -25 -6
-8 -9 -22 -5 -31 3 -8 1 -30 -6 -48 -14 -38 -31 -122 -30 -156 0 -39 -39 -82
-74 -82 -70 0 -71 2 -70 103 0 51 -3 99 -6 107 -4 8 -14 29 -22 47 -16 30 -15
32 5 46 12 8 32 17 45 21 28 9 41 33 43 82 1 23 14 59 32 87 l30 49 38 -44
c21 -24 41 -50 44 -60z m-1320 37 c17 -10 48 -28 69 -40 22 -11 41 -26 44 -33
5 -17 -43 -15 -57 2 -7 8 -29 23 -49 34 -98 52 -122 66 -122 72 0 12 84 -14
115 -35z m911 -15 c0 -25 4 -52 8 -61 9 -20 1 -91 -13 -118 -15 -28 -14 -56 4
-71 8 -7 15 -25 15 -41 0 -20 5 -29 16 -29 13 0 14 -3 4 -15 -7 -8 -9 -26 -6
-43 6 -24 1 -33 -29 -60 -37 -34 -42 -35 -131 -17 -22 5 -39 51 -23 61 15 9
10 34 -6 34 -17 0 -20 26 -4 36 6 3 8 17 5 30 -4 13 -2 24 3 24 14 0 18 42 7
62 -8 13 -6 21 7 30 10 8 23 24 30 38 7 14 23 30 36 36 40 20 42 28 20 73 -19
41 -20 44 -3 62 10 11 27 19 38 17 18 -3 21 -10 22 -48z m1354 7 c13 -39 13
-153 0 -178 -8 -14 -7 -26 3 -46 10 -19 14 -60 13 -129 -1 -114 -12 -139 -55
-131 -75 15 -108 29 -130 53 -22 26 -22 28 -6 41 14 10 15 15 6 26 -9 11 -8
17 3 26 24 20 26 60 4 72 -16 9 -17 13 -7 26 10 12 10 19 0 35 -7 11 -15 51
-18 88 -5 62 -3 71 18 99 13 16 32 30 42 30 9 1 17 5 17 10 0 5 22 8 50 8 45
-1 50 -3 60 -30z m500 23 c0 -5 6 -10 14 -10 17 0 78 -132 70 -153 -3 -8 3
-28 12 -43 33 -49 39 -123 13 -142 -9 -6 -20 -25 -24 -41 -7 -33 -47 -80 -53
-63 -2 7 -8 12 -14 12 -5 0 -6 -9 -3 -20 7 -22 -6 -26 -36 -10 -10 6 -19 19
-19 30 0 10 -5 22 -11 26 -8 5 -10 32 -4 93 11 132 11 155 -3 170 -7 7 -10 21
-7 29 3 9 9 37 12 62 4 25 13 50 22 57 20 15 31 16 31 3z m664 -39 c7 -23 6
-39 -2 -52 -14 -22 -16 -85 -3 -93 5 -4 6 -18 1 -34 -25 -80 -30 -115 -28
-192 l3 -84 -37 -9 c-21 -5 -38 -13 -38 -18 0 -18 -27 -8 -52 19 -26 28 -30
65 -13 140 3 17 1 49 -6 72 -12 38 -11 44 5 55 15 11 16 16 4 37 -7 12 -19 30
-26 39 -27 35 113 166 168 156 8 -1 19 -17 24 -36z m536 16 c0 -13 5 -28 11
-34 6 -6 11 -17 12 -24 2 -8 8 -27 14 -44 6 -16 14 -47 18 -68 3 -21 13 -41
21 -44 18 -7 18 -37 0 -52 -8 -6 -17 -32 -21 -57 -3 -25 -13 -48 -21 -51 -8
-3 -14 -13 -14 -23 0 -11 -5 -22 -10 -25 -6 -4 -8 -21 -4 -41 5 -27 3 -34 -10
-34 -9 0 -24 -5 -34 -11 -15 -9 -24 -8 -45 6 -30 19 -35 35 -12 35 9 0 15 9
15 25 0 18 -5 25 -19 25 -31 0 -50 50 -30 76 5 6 7 49 4 95 -3 65 -1 87 11
100 8 9 16 42 18 78 2 34 6 65 9 68 5 5 56 19 80 22 4 1 7 -9 7 -22z m-3439
-20 c13 -3 17 -11 13 -21 -4 -10 5 -31 21 -52 25 -32 26 -38 14 -60 -11 -21
-10 -29 4 -53 20 -35 22 -51 4 -51 -9 0 -13 -17 -11 -60 0 -33 4 -63 8 -67 11
-11 6 -33 -11 -52 -30 -31 -71 -53 -84 -45 -7 4 -18 -1 -25 -11 -8 -10 -20
-15 -29 -11 -14 5 -15 18 -9 88 4 46 8 110 9 143 1 33 3 62 5 65 7 14 -4 49
-26 76 -20 28 -21 34 -9 44 8 7 13 16 10 20 -3 5 -1 11 5 15 5 3 10 18 10 31
0 23 3 25 29 19 19 -4 32 -2 37 7 7 10 9 9 12 -3 2 -10 12 -19 23 -22z m3689
12 c7 -11 14 -18 17 -15 8 8 43 -23 43 -37 0 -6 9 -21 21 -33 27 -29 47 -131
45 -229 -2 -74 -5 -84 -37 -127 -31 -43 -38 -47 -77 -47 -37 -1 -45 3 -62 31
-16 27 -17 35 -6 48 7 8 17 44 21 80 10 88 5 312 -6 327 -7 7 -5 13 3 16 22 9
27 8 38 -14z m-2317 -17 c19 -17 23 -72 6 -103 -8 -16 -7 -25 5 -37 19 -21 36
-96 26 -112 -4 -7 -5 -20 -3 -30 3 -10 -6 -41 -19 -69 -20 -45 -26 -51 -53
-51 -18 1 -43 12 -64 30 -30 25 -33 32 -26 62 12 57 13 121 2 188 -15 101 -15
102 22 127 36 25 71 23 104 -5z m-293 -79 c0 -19 5 -66 11 -105 9 -56 8 -72
-2 -78 -7 -5 -12 -25 -11 -50 1 -22 -5 -56 -13 -75 -12 -31 -19 -35 -52 -37
-35 -1 -108 0 -125 1 -14 2 -8 38 7 51 8 7 15 20 15 29 0 9 7 29 15 45 11 20
12 33 5 40 -5 5 -10 31 -10 58 0 36 4 50 19 58 12 6 17 17 14 28 -2 10 3 24
11 31 9 8 16 22 16 32 0 11 9 28 21 40 l21 21 29 -28 c21 -20 29 -37 29 -61z
m2104 48 c7 -25 6 -35 -5 -41 -16 -11 -23 -118 -9 -135 6 -7 12 -25 14 -41 2
-16 7 -45 10 -65 6 -26 4 -39 -8 -48 -8 -7 -12 -19 -9 -27 3 -8 1 -14 -4 -14
-5 0 -7 -16 -5 -35 5 -42 -12 -46 -74 -16 -42 21 -54 39 -73 111 -11 41 -15
179 -6 188 2 2 20 -2 39 -9 46 -17 61 -4 62 54 0 47 31 120 48 114 6 -2 15
-18 20 -36z m-599 -3 c-8 -36 -8 -42 1 -108 3 -25 11 -51 17 -58 8 -10 7 -16
-2 -21 -8 -5 -10 -18 -5 -35 3 -15 1 -32 -5 -40 -11 -14 -9 -32 12 -75 9 -19
8 -25 -6 -36 -9 -7 -17 -22 -17 -34 0 -32 -44 -46 -89 -29 -44 17 -50 34 -17
49 21 10 26 19 26 50 0 21 5 41 11 45 16 10 1 142 -22 187 -19 38 -25 78 -11
76 4 -1 22 -1 40 0 27 1 35 6 43 31 15 41 34 39 24 -2z m-628 -39 c3 -19 12
-29 23 -29 29 0 49 -33 55 -93 3 -32 6 -63 8 -70 1 -6 -9 -13 -22 -15 l-25 -4
22 -16 c20 -16 21 -23 16 -84 -6 -54 -10 -68 -28 -76 -32 -14 -96 29 -96 66 0
15 -5 44 -11 65 -8 29 -7 42 2 53 8 9 10 35 6 74 -3 35 -1 63 5 66 5 3 7 15 4
27 -3 11 -2 32 1 48 7 35 32 28 40 -12z m-2252 -104 c54 -3 88 -54 59 -86 -15
-17 -16 -21 -2 -36 10 -12 14 -31 11 -54 -5 -36 -6 -36 -34 -26 -16 6 -29 16
-29 21 0 17 -63 76 -80 76 -17 0 -40 19 -40 32 0 5 11 13 25 18 19 7 25 17 25
38 0 37 8 44 34 30 11 -7 26 -12 31 -13z m5871 -217 c-14 -52 -35 -58 -30 -8
5 57 14 102 22 114 12 18 18 -66 8 -106z m-6106 -273 c-7 -8 -22 -15 -34 -15
-21 1 -21 1 -2 15 27 21 53 20 36 0z"/>
<path d="M29436 4865 c-28 -21 -43 -73 -44 -153 -3 -133 -18 -147 -151 -139
-90 5 -204 -3 -245 -19 -15 -6 -17 1 -16 57 3 140 -22 201 -85 213 -43 8 -63
0 -81 -36 -14 -27 -14 -32 1 -54 11 -17 16 -53 18 -126 l2 -102 -35 -9 c-19
-4 -53 -12 -75 -16 -22 -5 -62 -18 -88 -30 -27 -11 -56 -21 -66 -21 -9 0 -26
-7 -38 -15 -18 -13 -26 -13 -42 -3 -11 6 -22 19 -24 28 -2 9 -45 53 -95 98
-90 81 -93 82 -145 82 -71 0 -97 -19 -97 -71 0 -35 4 -42 31 -57 18 -9 39 -25
48 -35 9 -10 35 -27 57 -38 50 -24 96 -85 88 -116 -3 -12 -35 -52 -70 -89 -35
-36 -61 -70 -58 -75 3 -5 -4 -26 -15 -47 -73 -133 -134 -309 -133 -383 0 -19
12 -60 26 -91 14 -30 26 -64 26 -75 0 -11 6 -26 14 -32 8 -7 18 -25 21 -41 3
-16 13 -34 21 -41 8 -6 14 -18 14 -27 0 -8 13 -29 30 -46 123 -129 151 -188
114 -240 -8 -11 -14 -28 -14 -37 0 -10 -10 -30 -23 -46 -12 -15 -28 -40 -35
-54 -8 -14 -33 -41 -57 -60 -24 -19 -50 -49 -59 -67 -18 -37 -21 -88 -6 -97
17 -11 119 42 130 67 5 13 46 59 90 103 44 44 83 90 86 101 3 12 17 43 30 70
13 26 24 53 24 59 0 18 85 25 190 15 52 -5 97 -7 100 -5 4 2 47 7 97 10 78 5
92 3 105 -12 26 -31 41 -109 34 -175 -5 -49 -3 -65 11 -80 9 -10 22 -18 30
-18 7 0 22 -5 33 -12 15 -10 24 -9 44 2 25 13 33 41 27 90 -1 8 -4 38 -7 65
-3 28 -7 55 -9 62 -2 7 1 26 7 43 8 23 7 35 -1 43 -17 17 -13 45 7 51 9 2 43
10 74 16 32 6 60 16 63 21 4 5 19 9 35 9 16 0 31 4 34 9 3 5 24 18 45 30 l40
20 38 -32 c39 -32 160 -160 240 -253 75 -86 86 -95 113 -92 32 4 55 61 37 93
-7 11 -12 31 -12 45 0 17 -10 31 -33 45 -18 11 -35 31 -38 47 -4 14 -28 51
-55 81 -27 31 -49 58 -49 61 0 3 -18 24 -40 46 -22 22 -40 46 -40 53 0 6 38
48 85 91 47 44 85 87 85 97 0 34 22 31 63 -9 33 -32 52 -42 87 -47 25 -3 72
-11 106 -16 101 -17 193 19 296 117 38 36 63 42 155 35 101 -9 237 8 278 35
30 20 44 62 24 75 -20 12 -86 10 -142 -5 -37 -9 -61 -10 -105 -1 l-57 12 3 46
c3 29 0 47 -7 47 -6 0 -11 11 -11 24 0 13 -7 43 -15 66 -8 23 -15 60 -15 81 0
21 -4 41 -10 44 -5 3 -10 16 -10 29 0 13 -9 31 -20 41 -27 25 -25 36 14 61 44
28 100 38 141 24 27 -9 40 -8 64 5 84 43 -24 140 -126 113 -21 -5 -56 -14 -78
-20 -22 -6 -61 -17 -87 -25 -27 -8 -79 -13 -125 -12 -43 1 -127 -1 -188 -5
-91 -6 -121 -13 -177 -38 -37 -17 -77 -41 -89 -54 -24 -26 -39 -31 -39 -13 0
20 -56 81 -87 94 -23 10 -31 19 -27 29 4 10 -17 37 -62 80 l-67 66 18 57 c9
32 24 78 32 102 22 68 22 157 1 192 -14 23 -25 29 -50 29 -18 0 -42 -7 -52
-15z m-200 -438 c4 -4 -5 -22 -20 -41 -14 -19 -26 -45 -26 -58 0 -13 -5 -29
-11 -35 -8 -8 -2 -28 21 -71 l31 -60 42 4 c117 13 128 16 173 50 l46 35 25
-23 c14 -13 32 -38 39 -55 8 -18 18 -33 23 -33 12 0 32 -60 25 -72 -3 -5 -38
-8 -77 -8 -120 2 -329 -10 -378 -22 -53 -13 -79 -6 -79 20 0 10 -13 31 -30 47
-16 16 -30 34 -30 41 0 20 -23 31 -76 39 l-51 6 -63 -59 -62 -59 3 -59 c4 -70
-3 -84 -40 -84 -15 0 -31 -4 -37 -10 -5 -5 -45 -14 -89 -20 -44 -6 -99 -15
-122 -21 -32 -9 -54 -8 -95 2 -29 7 -58 12 -64 11 -7 -1 -14 14 -16 35 -8 69
-9 69 107 65 l104 -4 7 26 c3 14 9 26 13 26 3 0 19 16 34 35 41 52 44 115 6
153 -16 15 -29 30 -29 34 0 9 83 48 103 48 10 0 43 14 74 30 31 17 66 30 79
30 12 0 26 4 29 10 3 6 30 7 64 4 41 -5 61 -3 72 7 19 18 58 37 89 43 35 6
179 1 186 -7z m391 -499 c22 -8 33 -19 34 -33 7 -141 9 -134 -23 -160 -16 -14
-41 -25 -55 -25 -32 0 -80 -34 -88 -63 -4 -12 -23 -39 -42 -59 -36 -37 -40
-60 -18 -110 5 -14 2 -18 -13 -18 -12 0 -24 -5 -27 -10 -18 -29 -91 -62 -147
-68 -32 -2 -61 -9 -64 -13 -3 -5 -10 -9 -16 -9 -6 0 -1 11 11 24 22 23 22 24
3 30 -10 4 -27 23 -36 44 -10 22 -38 53 -67 75 -47 34 -55 37 -120 37 -94 0
-124 -16 -133 -71 -4 -23 -9 -46 -13 -52 -3 -5 -6 -36 -8 -68 -1 -33 -6 -64
-12 -70 -16 -16 -141 -14 -203 4 -30 8 -67 18 -82 21 -37 8 -35 20 5 43 17 11
41 36 52 56 l19 37 -31 60 c-43 84 -122 135 -223 145 -30 3 -58 9 -63 14 -17
17 4 31 49 31 24 0 44 4 44 9 0 5 8 12 18 16 37 15 281 47 345 45 46 -1 74 3
85 13 26 21 130 57 168 57 19 0 34 4 34 9 0 5 22 11 49 15 28 4 66 13 85 21
40 17 92 20 100 6 4 -5 -5 -23 -19 -39 -14 -16 -25 -37 -25 -45 0 -9 -4 -19
-10 -22 -5 -3 -10 -26 -10 -51 0 -36 6 -51 33 -80 28 -31 40 -36 105 -45 l74
-10 33 38 c25 30 35 53 45 108 6 38 14 79 16 90 4 16 -3 25 -30 38 -20 9 -36
21 -36 26 0 6 28 12 63 14 34 2 73 4 86 5 14 1 40 -3 58 -10z"/>
<path d="M18680 2999 c0 -24 23 -21 28 4 2 10 -3 17 -12 17 -10 0 -16 -9 -16
-21z"/>
</g>
</svg>
