<?xml version="1.0" standalone="no"?>
<!DOCTYPE svg PUBLIC "-//W3C//DTD SVG 20010904//EN"
 "http://www.w3.org/TR/2001/REC-SVG-20010904/DTD/svg10.dtd">
<svg version="1.0" xmlns="http://www.w3.org/2000/svg"
 width="649.173345pt" height="400.000000pt" viewBox="0 0 649.173345 400.000000"
 preserveAspectRatio="xMidYMid meet">
<metadata>
Created by potrace 1.15, written by Peter Selinger 2001-2017
</metadata>
<g transform="translate(-35.996666,440.419948) scale(0.052493,-0.052493)"
fill="#444444" stroke="none">
<path d="M11093 8364 c-16 -25 -16 -29 15 -120 39 -112 39 -134 7 -164 -14
-13 -25 -32 -25 -41 0 -18 32 -43 42 -33 14 13 30 -32 34 -93 7 -104 28 -153
70 -159 34 -5 42 41 31 171 -4 44 -4 85 0 90 4 6 28 17 53 24 68 19 90 37 90
71 0 26 -4 30 -27 30 -16 -1 -48 -5 -73 -10 -32 -6 -49 -5 -57 3 -7 7 -26 55
-43 107 -46 144 -49 150 -76 150 -14 0 -30 -10 -41 -26z"/>
<path d="M11730 8361 c-30 -8 -34 -39 -13 -119 13 -54 18 -283 6 -295 -5 -6
-26 24 -72 103 -5 8 -18 36 -30 63 -13 30 -27 47 -38 47 -29 0 -129 -96 -162
-154 -17 -29 -34 -74 -37 -100 -7 -46 -7 -46 32 -62 47 -20 98 -8 148 36 41
37 64 38 72 5 7 -28 48 -65 72 -65 9 0 24 8 34 17 17 16 19 15 33 -4 8 -11 38
-28 67 -38 45 -14 58 -15 93 -4 22 7 49 20 59 28 15 13 20 14 24 2 2 -7 13
-21 23 -29 11 -9 19 -22 19 -29 0 -9 19 -13 66 -13 60 0 71 3 115 35 27 19 52
35 57 35 4 0 18 -14 32 -31 23 -27 29 -29 52 -20 22 8 32 6 54 -11 30 -24 125
-37 146 -21 7 6 25 13 39 16 32 8 75 50 81 80 6 32 -22 77 -61 98 -47 25 -81
56 -81 74 0 8 16 19 38 25 52 13 86 51 78 84 -6 23 -11 26 -54 26 -63 0 -145
-25 -178 -54 -20 -17 -27 -31 -26 -57 1 -28 11 -43 59 -86 32 -29 68 -56 81
-59 27 -8 29 -30 3 -44 -16 -8 -25 -5 -48 14 -39 33 -67 40 -83 21 -11 -14
-16 -12 -41 17 -16 17 -29 36 -29 42 0 6 -14 39 -30 73 -31 63 -60 93 -92 93
-29 0 -114 -72 -159 -135 l-43 -59 -9 33 c-4 19 -23 49 -41 69 -33 34 -59 43
-123 43 -36 0 -35 -4 -52 191 -5 59 -12 112 -16 118 -7 11 -27 12 -65 1z m490
-430 c0 -32 -6 -44 -31 -65 -66 -55 -81 -14 -21 58 20 24 40 45 45 45 4 1 7
-17 7 -38z m-306 -3 c14 -22 1 -36 -39 -40 -35 -4 -45 20 -19 46 20 20 43 18
58 -6z"/>
<path d="M10365 8259 c-82 -44 -94 -71 -47 -111 27 -23 50 -68 50 -98 0 -72
13 -333 17 -340 3 -4 27 -11 54 -15 63 -9 106 10 176 76 102 96 137 231 86
329 -33 64 -88 118 -150 146 -77 36 -136 40 -186 13z m157 -118 c24 -10 58
-35 76 -56 26 -30 32 -46 32 -81 0 -66 -23 -110 -92 -175 -34 -33 -65 -59 -68
-59 -3 0 -6 88 -8 195 -1 114 2 195 7 195 5 0 29 -8 53 -19z"/>
<path d="M10940 8123 c-14 -9 -39 -28 -56 -42 -16 -14 -44 -37 -62 -50 -38
-28 -72 -112 -72 -175 0 -50 9 -61 71 -77 39 -11 48 -10 72 5 14 10 29 25 32
34 3 10 19 27 36 40 27 22 29 22 36 5 11 -31 57 -93 70 -93 20 0 73 34 73 48
0 19 -20 53 -41 72 -9 8 -31 42 -48 76 -27 52 -30 65 -21 91 16 44 -1 83 -38
83 -15 0 -39 -8 -52 -17z m-64 -221 c-15 -15 -16 -15 -16 4 0 28 24 52 28 28
2 -9 -3 -24 -12 -32z"/>
<path d="M12799 8083 c-57 -61 -85 -160 -69 -245 14 -71 28 -89 95 -122 51
-25 66 -27 122 -23 71 6 87 15 101 56 7 19 6 32 -4 45 -11 16 -21 17 -71 11
-32 -5 -67 -7 -78 -6 -27 4 -55 30 -55 53 0 14 8 18 36 18 24 0 53 11 84 31
40 26 49 37 54 70 4 22 2 49 -4 59 -17 32 -87 71 -138 77 -42 4 -50 2 -73 -24z"/>
<path d="M11185 7404 c-33 -6 -94 -21 -135 -33 -70 -20 -158 -36 -255 -46
-187 -20 -197 -23 -244 -71 l-43 -45 7 -87 c3 -48 9 -112 11 -142 8 -86 7
-700 -1 -850 -8 -148 -10 -424 -5 -826 1 -144 -1 -267 -5 -273 -3 -7 -8 -73
-11 -149 -4 -164 -18 -290 -33 -305 -22 -22 -10 -53 43 -108 33 -35 69 -62 92
-69 22 -7 78 -33 126 -57 48 -23 98 -43 112 -43 14 0 28 -4 31 -10 3 -5 19
-10 35 -10 16 0 41 -5 57 -11 61 -24 217 -36 488 -38 140 -1 324 7 336 15 5 3
39 9 77 14 37 4 85 13 107 19 22 6 76 14 120 17 143 9 276 64 415 169 147 113
138 92 140 318 4 359 2 469 -10 605 -13 143 -9 317 9 462 13 111 22 301 22
475 0 77 4 167 9 200 5 33 10 128 11 210 2 83 6 162 10 178 4 15 24 42 43 61
41 38 47 76 20 129 -19 37 -53 77 -66 77 -5 0 -33 18 -62 40 -29 22 -58 40
-65 40 -6 0 -19 4 -29 9 -29 16 -155 43 -190 42 -19 -1 -59 6 -90 15 -132 37
-185 43 -447 53 -123 5 -247 15 -300 25 -99 19 -232 19 -330 0z m320 -109 c17
-2 44 -9 60 -16 19 -7 95 -13 210 -14 99 -2 209 -7 245 -13 36 -6 97 -15 135
-20 39 -6 83 -15 98 -21 16 -6 45 -11 66 -11 21 0 57 -7 80 -15 23 -8 52 -16
64 -17 12 -2 28 -7 35 -12 7 -4 20 -5 28 -2 8 3 17 -1 20 -9 4 -8 12 -15 19
-15 6 0 20 -9 30 -20 10 -11 24 -20 31 -20 7 0 16 -10 20 -22 7 -24 -7 -38
-71 -69 -22 -11 -51 -26 -65 -34 -76 -43 -190 -80 -275 -91 -33 -4 -69 -8 -80
-10 -29 -4 -225 -16 -255 -16 -14 0 -119 3 -235 6 -115 3 -239 6 -275 6 -74
-1 -239 25 -254 40 -6 6 -20 10 -32 10 -13 0 -26 5 -29 10 -3 6 -15 10 -27 10
-17 0 -73 25 -88 40 -3 3 -9 5 -15 6 -56 2 -82 18 -104 60 -20 37 -29 44 -53
44 -52 0 -129 31 -140 56 -6 13 -9 26 -7 28 7 7 58 17 112 21 26 2 94 17 150
34 147 43 218 57 317 65 103 7 195 18 200 22 2 3 16 2 30 -1 14 -4 39 -8 55
-10z m-872 -309 c12 -30 122 -93 192 -111 39 -9 75 -21 80 -25 6 -4 26 -11 46
-14 20 -3 67 -16 105 -30 38 -13 102 -29 143 -35 40 -7 82 -16 92 -22 11 -5
52 -10 92 -10 40 0 135 -2 212 -6 365 -17 605 -5 740 37 33 11 78 22 100 26
22 3 61 20 88 36 75 48 81 40 72 -100 -4 -64 -11 -136 -16 -158 -5 -23 -8
-149 -8 -280 1 -138 -3 -258 -9 -284 -18 -72 -35 -518 -23 -587 22 -126 28
-345 18 -608 -4 -85 -2 -134 5 -143 9 -10 1 -24 -33 -58 -24 -25 -55 -48 -69
-51 -13 -4 -49 -26 -80 -50 -30 -23 -65 -43 -78 -43 -12 0 -42 -10 -65 -21
-31 -16 -59 -22 -106 -21 -43 1 -79 -5 -110 -18 -84 -36 -355 -64 -626 -65
-240 -1 -272 2 -409 40 -32 9 -64 14 -71 11 -7 -2 -25 2 -40 10 -14 7 -45 19
-67 24 -22 6 -82 31 -133 56 l-94 44 4 78 c5 90 23 390 25 412 8 86 10 364 2
472 -10 129 -1 540 14 678 9 87 16 174 14 188 -3 27 -4 92 -1 202 1 63 -2 134
-8 157 -14 53 -23 283 -12 283 5 0 11 -6 14 -14z"/>
<path d="M10986 6531 c-36 -19 -73 -31 -97 -31 -33 0 -40 -4 -45 -25 -3 -14
-3 -40 1 -58 4 -17 9 -59 11 -92 2 -33 9 -82 16 -110 12 -45 16 -50 44 -53 54
-5 64 19 56 128 -8 94 -8 94 20 126 16 18 43 36 60 39 26 6 34 3 55 -21 22
-27 23 -35 18 -109 -5 -86 -3 -95 35 -111 21 -9 26 -8 35 9 15 30 27 26 57
-19 38 -58 91 -75 150 -48 24 10 60 34 81 53 l38 34 15 -41 c19 -48 44 -57
110 -41 58 15 74 47 74 149 0 56 3 70 15 70 8 0 15 -6 15 -14 0 -7 18 -33 39
-57 46 -51 58 -49 104 20 16 22 32 39 37 36 5 -3 12 -36 16 -73 8 -87 20 -104
71 -100 33 3 38 6 41 31 5 46 45 36 100 -24 43 -46 53 -52 98 -56 66 -7 138
25 153 68 20 57 -7 74 -68 43 -21 -11 -44 -14 -66 -10 -60 12 -57 35 12 85 54
39 79 84 61 110 -54 76 -147 96 -206 43 -27 -24 -32 -36 -32 -73 0 -38 -5 -48
-35 -72 l-35 -28 0 25 c0 13 -14 52 -31 86 l-31 62 -40 -5 c-24 -3 -51 -16
-67 -31 -30 -29 -46 -32 -55 -13 -43 85 -50 92 -96 91 -25 -1 -46 -6 -48 -13
-2 -7 -22 -32 -43 -57 -21 -25 -39 -47 -39 -48 0 -2 7 -20 15 -41 9 -20 13
-46 9 -58 l-7 -21 -16 20 c-9 12 -25 46 -36 77 -16 49 -17 59 -5 81 10 20 11
31 2 51 -10 21 -19 25 -52 25 -67 0 -189 -93 -237 -179 -23 -41 -43 -51 -43
-21 0 37 -32 124 -59 159 -14 19 -28 38 -31 42 -3 3 -23 10 -45 13 -34 6 -51
2 -99 -23z m458 -140 c3 -5 2 -31 -3 -57 -10 -53 -48 -94 -88 -94 -18 0 -23 6
-23 26 0 36 16 64 58 101 39 35 48 38 56 24z"/>
<path d="M11440 5819 c-58 -3 -123 -12 -145 -20 -34 -12 -40 -19 -43 -45 -5
-47 15 -57 95 -50 37 4 91 8 118 10 118 9 160 30 153 78 -4 30 -39 35 -178 27z"/>
<path d="M11292 5560 c-12 -12 -22 -29 -22 -39 0 -42 76 -61 260 -64 93 -2 94
-2 110 25 22 40 5 62 -51 65 -24 1 -80 9 -124 17 -112 21 -147 20 -173 -4z"/>
<path d="M10804 5260 c-26 -10 -41 -59 -22 -71 23 -15 52 -9 83 16 25 20 28
28 19 42 -13 20 -49 26 -80 13z"/>
<path d="M10963 5090 c-33 -13 -37 -47 -14 -130 25 -89 27 -177 6 -207 -13
-19 -22 -21 -68 -16 -68 6 -97 -12 -80 -50 9 -19 27 -30 66 -43 96 -30 148 2
176 107 17 64 17 70 0 155 -10 49 -22 101 -28 115 -5 15 -7 29 -4 32 9 9 -8
47 -20 46 -7 0 -22 -4 -34 -9z"/>
<path d="M11232 5083 c-34 -16 -102 -91 -127 -139 -8 -16 -15 -48 -15 -72 0
-34 6 -48 27 -68 14 -13 37 -27 49 -30 29 -7 131 22 163 47 23 18 25 18 43 3
10 -10 32 -17 50 -16 17 0 36 -6 42 -13 6 -8 25 -18 43 -21 28 -5 33 -3 47 24
12 23 13 37 6 57 -13 34 -13 75 0 75 13 0 49 -77 50 -105 1 -27 23 -55 44 -55
21 0 66 39 66 58 0 8 -9 31 -19 51 -10 20 -27 57 -36 84 -19 53 -49 75 -109
79 -47 3 -69 -20 -91 -95 -15 -57 -17 -58 -37 -45 -12 8 -28 35 -36 59 -8 24
-20 47 -25 51 -6 3 -11 18 -13 33 -2 14 -8 33 -15 41 -15 19 -66 17 -107 -3z
m31 -153 c4 -14 -3 -26 -24 -41 -50 -35 -67 -4 -22 43 28 30 38 29 46 -2z"/>
<path d="M11866 5049 c-24 -20 -38 -43 -42 -67 -4 -24 -19 -49 -40 -69 -44
-41 -44 -66 0 -87 19 -9 39 -28 46 -46 42 -101 144 -123 242 -52 53 38 59 58
25 90 -30 28 -35 28 -77 -6 -19 -15 -42 -27 -50 -26 -8 0 -23 2 -32 2 -13 2
-18 11 -18 30 0 25 7 32 51 53 66 30 79 50 72 115 -5 48 -7 51 -52 72 -61 29
-84 28 -125 -9z"/>
<path d="M4515 6596 c-17 -13 -18 -19 -7 -92 11 -75 9 -203 -3 -326 -5 -53 -4
-59 26 -92 24 -28 36 -35 54 -30 12 3 43 -1 68 -10 26 -9 77 -17 114 -18 65
-3 68 -2 81 24 18 37 1 68 -36 68 -30 0 -189 44 -200 55 -4 4 -8 64 -8 133 -3
266 -24 336 -89 288z"/>
<path d="M4941 6338 c-34 -22 -64 -77 -77 -143 -8 -46 34 -116 68 -112 16 1
23 -5 30 -29 8 -30 9 -31 70 -32 79 -1 122 17 150 64 22 37 22 37 31 13 18
-46 24 -54 53 -60 52 -9 96 9 141 59 26 28 46 43 52 37 17 -20 43 -103 39
-131 -3 -25 -11 -32 -63 -53 -34 -13 -83 -24 -113 -25 -47 -1 -56 2 -76 27
-17 21 -30 27 -59 27 -48 0 -55 -18 -31 -72 15 -33 29 -46 73 -66 47 -22 63
-24 133 -19 62 4 85 10 102 26 12 12 26 21 31 21 24 0 85 36 85 50 0 9 4 20 9
26 10 10 -11 130 -28 161 -32 58 -54 125 -56 172 -3 62 -23 85 -67 76 -16 -3
-41 -8 -57 -11 -66 -12 -154 -105 -171 -179 -7 -29 -7 -29 -20 18 -17 65 -71
132 -125 157 -54 25 -80 24 -124 -2z m126 -100 c39 -43 46 -67 29 -94 -32 -48
-93 -45 -118 6 -22 46 -22 62 2 88 27 28 61 28 87 0z m293 -47 c0 -6 -11 -23
-25 -38 -23 -27 -24 -27 -25 -6 0 12 10 29 22 37 26 19 28 19 28 7z"/>
<path d="M10350 6049 c-19 -5 -48 -11 -64 -14 -17 -2 -45 -12 -64 -21 -33 -15
-54 -15 -137 1 -65 12 -124 -86 -87 -147 9 -15 19 -28 23 -28 12 0 47 -67 40
-76 -3 -5 -19 -18 -34 -27 -24 -15 -28 -24 -25 -55 4 -44 24 -51 90 -28 43 14
43 14 76 -17 18 -18 45 -50 60 -72 37 -55 115 -125 139 -125 33 0 57 35 49 71
-3 17 1 58 9 90 9 33 16 94 16 137 0 52 8 107 25 169 23 81 24 95 12 120 -11
23 -20 28 -53 30 -22 1 -56 -3 -75 -8z"/>
<path d="M8683 5844 c-18 -7 -37 -24 -44 -36 -10 -19 -8 -25 15 -45 47 -40 98
-25 112 34 5 20 2 31 -16 45 -26 21 -25 21 -67 2z"/>
<path d="M7823 5835 c-28 -12 -33 -19 -33 -49 0 -43 13 -48 100 -38 60 6 65 9
68 33 3 23 -4 29 -42 48 -53 25 -51 24 -93 6z"/>
<path d="M8450 5830 c-6 -12 -10 -35 -8 -53 3 -29 6 -32 40 -35 39 -3 78 23
78 53 0 47 -89 75 -110 35z"/>
<path d="M7573 5825 c-55 -24 -69 -74 -28 -101 22 -14 27 -14 52 0 15 9 40 20
56 26 41 15 45 38 11 66 -33 27 -47 28 -91 9z"/>
<path d="M4547 5823 c-2 -1 -42 -4 -89 -6 -108 -4 -123 -14 -114 -77 4 -25 9
-65 12 -90 3 -25 8 -56 13 -70 7 -25 6 -823 -2 -1265 -3 -126 -10 -291 -17
-365 -15 -160 -15 -134 -5 -295 8 -128 8 -131 42 -169 18 -22 33 -44 33 -49 0
-5 18 -6 39 -2 23 4 48 2 60 -4 27 -15 484 -15 531 -1 19 6 67 14 105 18 72 6
86 7 355 3 85 -1 205 0 265 4 136 7 191 8 280 6 39 -1 97 0 130 3 33 3 99 7
147 9 53 2 93 9 103 17 14 12 22 7 63 -33 60 -58 105 -69 145 -35 41 35 36 64
-15 87 -24 11 -51 22 -61 25 -9 3 -20 19 -23 36 -9 44 -28 56 -59 36 -17 -11
-25 -25 -25 -46 0 -33 -6 -36 -29 -17 -9 8 -41 23 -71 35 -48 19 -69 21 -161
17 -59 -2 -117 -9 -130 -13 -13 -5 -175 -10 -359 -11 -184 -1 -371 -4 -415 -7
-44 -3 -102 -7 -130 -9 -27 -1 -77 -9 -110 -16 -41 -9 -136 -14 -295 -14 -251
0 -300 7 -322 48 -17 32 -14 359 5 502 17 124 22 350 18 690 -1 55 0 170 3
255 9 305 9 526 0 575 -22 112 7 137 136 116 41 -7 90 -19 107 -26 25 -11 99
-14 302 -14 219 0 274 -2 293 -14 19 -12 67 -14 283 -10 143 2 278 6 300 8 22
3 86 6 142 9 56 2 107 7 114 11 6 5 39 11 73 16 33 4 100 13 147 20 95 14 119
10 119 -22 0 -23 36 -58 61 -59 9 0 24 9 34 20 11 12 31 20 50 20 41 0 57 19
53 62 l-3 33 -67 0 c-61 1 -69 3 -89 29 l-22 27 -141 -4 c-77 -3 -170 -12
-206 -20 -38 -9 -115 -16 -186 -16 -66 -1 -144 -5 -172 -11 -70 -13 -209 -12
-587 6 -77 3 -212 7 -300 8 -97 1 -178 7 -205 15 -48 14 -148 30 -153 24z"/>
<path d="M8827 5813 c-44 -50 -6 -89 78 -79 44 5 55 3 70 -14 35 -39 71 -21
67 33 -3 42 -29 62 -81 64 -25 1 -62 4 -81 8 -28 5 -39 3 -53 -12z"/>
<path d="M6797 5813 c-4 -3 -7 -19 -7 -34 0 -42 28 -53 95 -39 64 13 72 22 51
55 -14 22 -24 25 -75 25 -32 0 -61 -3 -64 -7z"/>
<path d="M8073 5808 c-16 -7 -23 -20 -23 -38 0 -40 37 -69 82 -65 21 2 42 6
48 10 18 11 10 48 -17 77 -28 29 -53 34 -90 16z"/>
<path d="M7006 5782 c-14 -16 -15 -24 -6 -41 18 -35 51 -49 110 -47 50 1 55 3
58 25 4 29 -6 40 -55 59 -66 24 -87 25 -107 4z"/>
<path d="M2530 5780 c-83 -20 -299 -41 -317 -32 -11 6 -40 6 -81 -1 -46 -8
-94 -8 -185 2 -160 17 -194 17 -432 0 -90 -6 -166 -7 -190 -2 -22 5 -91 5
-155 1 -63 -5 -175 -8 -248 -8 -159 0 -201 -9 -224 -48 -14 -24 -15 -35 -7
-63 6 -19 14 -65 19 -104 4 -38 20 -169 34 -290 16 -135 28 -292 31 -405 2
-102 9 -230 15 -285 16 -134 27 -534 17 -615 -4 -36 -9 -100 -11 -143 -3 -44
-7 -104 -11 -136 -8 -68 6 -111 36 -111 11 0 35 -6 52 -14 149 -64 154 -65
302 -62 77 2 165 8 195 14 30 6 91 8 135 5 l81 -6 22 -54 c12 -29 22 -65 22
-79 0 -14 6 -38 14 -52 8 -15 29 -72 46 -127 30 -93 114 -279 142 -313 13 -16
28 -40 54 -89 10 -18 21 -33 25 -33 3 0 35 -35 70 -77 95 -116 188 -211 244
-253 108 -79 272 -152 400 -179 33 -7 89 -19 125 -27 36 -8 76 -14 90 -14 155
-1 538 -11 620 -16 58 -4 150 -8 205 -9 55 -1 159 -5 230 -9 138 -8 843 -8
1085 -1 144 4 262 5 395 3 65 -1 236 -2 445 -1 47 0 175 6 285 12 110 7 211
12 224 12 12 -1 46 6 75 14 65 19 277 44 421 50 61 3 156 10 212 16 61 6 190
9 321 5 172 -4 230 -2 273 9 30 8 66 15 80 15 55 0 155 141 180 255 6 28 13
94 16 147 3 68 9 101 19 109 8 7 48 14 90 17 l74 5 36 -37 c19 -20 41 -36 48
-36 7 0 25 13 40 29 32 33 29 59 -5 68 -15 4 -19 11 -15 28 5 18 -2 29 -27 48
-32 24 -65 82 -121 211 -14 32 -26 64 -26 70 0 6 -12 25 -28 42 -15 17 -36 44
-47 59 -20 27 -22 27 -57 16 -30 -10 -42 -23 -65 -67 -70 -137 -91 -174 -129
-225 -23 -30 -64 -70 -92 -89 -54 -37 -72 -73 -53 -109 13 -24 49 -32 126 -27
33 2 76 0 97 -5 l36 -9 7 -83 c6 -74 4 -91 -20 -162 -39 -113 -62 -140 -138
-163 -38 -11 -87 -17 -127 -16 -99 3 -280 14 -328 19 -23 3 -76 0 -117 -6 -41
-5 -136 -14 -212 -19 -219 -13 -453 -39 -508 -56 -28 -9 -101 -17 -165 -20
-63 -2 -149 -6 -190 -9 -155 -11 -306 -13 -347 -4 -27 5 -69 5 -115 -1 -40 -5
-226 -12 -413 -16 -459 -7 -436 -7 -820 -1 -512 7 -687 13 -830 28 -71 7 -177
12 -235 10 -170 -5 -241 -5 -310 2 -36 4 -92 10 -125 13 -112 11 -280 60 -340
98 -11 7 -33 16 -48 20 -25 6 -49 20 -132 76 -60 41 -155 133 -225 219 -43 53
-89 107 -102 121 -28 30 -51 67 -93 146 -18 33 -36 67 -41 75 -15 24 -53 119
-95 241 -35 101 -39 123 -32 160 l9 43 79 2 c150 3 240 10 280 21 22 6 51 11
65 11 34 -1 120 19 134 30 19 15 186 22 291 11 55 -5 126 -12 157 -15 l58 -6
15 38 c14 33 14 40 -1 71 -13 27 -14 44 -6 90 5 31 6 66 2 77 -4 11 -8 142 -9
290 -2 445 -18 800 -41 945 -5 30 -14 114 -20 185 -6 72 -17 165 -25 209 -8
43 -15 107 -15 142 0 34 -4 66 -10 69 -5 3 -10 16 -10 29 0 22 -67 97 -85 95
-6 -1 -26 -5 -45 -9z m15 -118 c26 -19 36 -47 50 -148 22 -155 38 -303 36
-342 -1 -19 5 -57 13 -85 23 -79 38 -508 37 -1067 0 -14 1 -99 2 -188 1 -90
-1 -166 -5 -168 -4 -3 -67 1 -140 7 -119 11 -142 10 -213 -5 -88 -20 -210 -43
-265 -51 -19 -3 -111 -8 -204 -10 -93 -2 -192 -9 -220 -15 -28 -5 -98 -9 -156
-8 -58 1 -176 1 -262 -1 -135 -2 -166 1 -227 19 -92 27 -103 45 -95 161 3 46
5 95 5 109 -1 58 -1 344 0 452 0 65 -3 122 -6 128 -13 21 -33 297 -34 466 -1
94 -6 204 -11 245 -6 41 -17 131 -25 201 -8 70 -19 146 -25 170 -5 24 -10 56
-10 71 l0 28 147 0 c82 0 270 2 418 6 342 9 498 9 655 -2 153 -10 227 -8 305
7 33 6 91 12 128 14 38 1 71 5 74 8 8 8 16 7 28 -2z"/>
<path d="M1488 5463 c-12 -20 -28 -45 -34 -55 -22 -37 -48 -58 -70 -58 -25 0
-97 45 -128 79 -25 27 -77 28 -93 2 -10 -16 -8 -25 15 -55 15 -19 39 -39 54
-45 14 -5 49 -32 78 -59 47 -46 51 -52 49 -93 -1 -24 -8 -75 -16 -114 -11 -56
-12 -74 -2 -92 14 -26 47 -38 77 -29 21 7 21 5 38 184 4 47 10 65 25 72 14 8
19 22 19 56 0 34 7 56 30 88 16 24 36 46 44 49 17 7 40 72 32 92 -4 10 -20 15
-50 15 -40 0 -46 -3 -68 -37z"/>
<path d="M2311 5279 c-22 -22 -46 -58 -53 -80 -6 -22 -20 -45 -30 -50 -22 -12
-23 -48 -4 -104 14 -40 33 -57 73 -69 20 -6 22 -3 28 71 10 106 29 153 63 153
14 0 41 5 59 12 56 20 37 66 -38 92 -24 9 -47 16 -51 16 -4 0 -25 -18 -47 -41z"/>
<path d="M2028 5248 c-8 -13 -21 -38 -28 -57 l-14 -35 -8 32 c-7 26 -14 32
-36 32 -47 0 -55 -13 -59 -91 -6 -94 5 -110 75 -117 45 -4 53 -2 75 22 27 29
40 23 52 -25 9 -36 67 -64 95 -46 33 20 36 48 7 72 -17 13 -34 44 -47 85 -45
144 -78 181 -112 128z"/>
<path d="M1640 5224 c-19 -8 -48 -34 -65 -57 -27 -37 -30 -50 -30 -114 0 -39
3 -74 7 -78 12 -12 139 -37 161 -31 41 10 100 71 114 117 21 71 17 87 -32 135
-51 49 -89 56 -155 28z m100 -99 c9 -11 6 -21 -16 -50 -30 -40 -42 -40 -64 -2
-13 23 -13 28 4 46 22 24 58 27 76 6z"/>
<path d="M1435 4610 c-9 -14 -35 -108 -45 -162 -5 -26 -20 -74 -33 -105 -13
-32 -35 -89 -47 -128 -13 -38 -31 -84 -41 -101 -36 -60 -17 -123 33 -110 25 6
68 65 68 93 0 10 10 35 23 56 l22 38 76 3 77 3 4 -54 c3 -30 9 -58 15 -64 30
-30 107 36 84 73 -13 21 -15 68 -2 68 21 0 31 -29 25 -74 -6 -42 -4 -50 21
-76 26 -27 28 -35 29 -120 1 -96 5 -103 54 -116 15 -4 29 -1 40 9 14 14 14 25
4 79 -27 147 -28 136 11 143 21 4 53 23 78 46 38 35 43 37 55 22 7 -10 10 -31
7 -51 -5 -25 0 -38 18 -58 22 -24 24 -34 24 -127 l0 -102 38 -3 c61 -5 67 5
60 117 l-6 97 42 18 c71 33 106 117 75 182 -42 89 -136 142 -191 108 -16 -10
-38 -29 -50 -43 l-22 -25 -36 42 c-28 32 -50 46 -92 58 -69 20 -113 12 -158
-27 -41 -37 -68 -32 -85 14 -6 18 -17 46 -24 62 -7 17 -23 65 -37 108 -13 43
-32 87 -42 98 -19 20 -62 26 -72 9z m62 -202 c10 -14 33 -88 33 -107 0 -6 -17
-11 -40 -11 -45 0 -45 1 -28 77 13 55 19 62 35 41z m370 -160 c13 -12 23 -27
23 -33 0 -20 -44 -53 -75 -57 -28 -3 -30 0 -39 39 -5 23 -6 49 -3 57 9 24 66
20 94 -6z m291 -50 c17 -17 15 -63 -3 -78 -23 -19 -50 -8 -47 20 8 70 22 86
50 58z"/>
<path d="M7271 5778 c-12 -4 -27 -19 -33 -34 -11 -23 -10 -28 12 -46 25 -20
81 -19 128 4 26 13 27 20 7 59 -14 26 -21 29 -54 27 -22 -1 -48 -5 -60 -10z"/>
<path d="M8298 5784 c-5 -5 -28 -11 -50 -13 -10 -1 -10 -63 0 -77 4 -6 25 -17
46 -24 37 -12 41 -11 58 10 22 27 23 58 2 88 -14 21 -44 29 -56 16z"/>
<path d="M9066 5738 c-18 -25 -21 -74 -6 -83 23 -14 68 -22 80 -15 18 11 22
71 7 91 -7 9 -24 19 -39 22 -21 6 -30 2 -42 -15z"/>
<path d="M9850 5626 c-19 -7 -42 -24 -50 -39 -13 -23 -13 -28 4 -46 24 -26 32
-26 84 -1 22 11 46 20 52 20 13 0 13 36 0 61 -12 22 -39 23 -90 5z"/>
<path d="M6513 5583 c-33 -22 -32 -77 2 -99 34 -22 55 -4 55 46 0 70 -14 83
-57 53z"/>
<path d="M9068 5573 c-16 -18 -38 -57 -38 -67 0 -10 58 -36 79 -36 26 0 51 72
34 98 -14 24 -56 26 -75 5z"/>
<path d="M7327 5520 c-25 -22 -55 -40 -66 -40 -30 0 -36 -24 -22 -81 7 -26 13
-70 14 -97 2 -59 27 -92 67 -92 41 0 49 17 40 78 -5 29 -12 61 -15 72 -10 31
6 70 36 85 15 8 32 15 37 15 6 0 24 -23 42 -50 30 -47 32 -55 26 -109 -7 -65
0 -77 52 -87 25 -5 33 -2 46 18 14 21 14 29 -4 83 -19 61 -52 132 -80 171 -20
28 -88 74 -110 74 -9 0 -38 -18 -63 -40z"/>
<path d="M8192 5484 l-55 -56 -21 26 c-11 14 -33 30 -47 35 -39 14 -66 -10
-85 -77 -16 -53 -16 -61 1 -129 l17 -73 43 0 c50 0 58 12 49 70 -6 36 -5 38
15 33 38 -10 70 6 90 45 40 78 68 78 78 1 12 -96 53 -138 102 -107 17 10 24 7
50 -21 30 -32 33 -33 95 -29 53 3 73 10 115 38 58 40 69 59 45 77 -26 19 -65
16 -94 -7 -14 -11 -40 -20 -59 -20 l-34 0 39 26 c55 36 64 51 64 104 0 38 -5
51 -28 73 -15 15 -42 29 -59 33 -41 8 -119 -26 -135 -60 -15 -35 -26 -33 -43
8 -14 32 -52 66 -77 66 -6 0 -36 -25 -66 -56z m298 -79 c0 -8 -9 -15 -20 -15
-20 0 -26 11 -13 23 12 13 33 7 33 -8z"/>
<path d="M7736 5491 c-45 -36 -67 -63 -95 -118 -27 -55 -27 -79 5 -120 22 -29
30 -33 74 -33 42 0 54 5 86 35 44 41 51 43 65 11 10 -22 71 -50 83 -38 13 13
4 47 -27 101 -19 31 -36 68 -40 81 -3 14 -20 44 -37 68 -38 51 -63 54 -114 13z
m44 -116 c0 -28 -32 -65 -55 -65 -24 0 -18 19 17 56 18 19 34 34 35 34 2 0 3
-11 3 -25z"/>
<path d="M9631 5496 c-73 -37 -92 -82 -46 -112 23 -15 27 -15 71 13 64 39 73
55 52 90 -21 35 -24 35 -77 9z"/>
<path d="M5403 5504 c-7 -3 -29 -28 -49 -56 -34 -48 -36 -55 -32 -110 2 -32 1
-58 -4 -58 -13 0 -57 96 -64 140 -10 62 -31 67 -107 28 -54 -28 -70 -43 -107
-100 -24 -37 -47 -65 -51 -62 -5 2 -23 32 -40 65 -18 33 -45 71 -61 85 -49 40
-116 29 -153 -27 -11 -16 -26 -29 -33 -29 -20 0 -34 -51 -28 -105 15 -123 18
-135 43 -155 52 -41 88 -17 80 52 -3 24 -9 66 -12 94 -7 46 -5 53 20 80 l27
29 32 -35 c20 -22 40 -63 55 -108 26 -84 52 -106 93 -80 14 9 36 13 54 11 41
-6 82 21 100 64 16 38 47 59 61 40 5 -6 15 -26 22 -43 15 -39 55 -51 75 -22
13 18 46 16 46 -4 0 -5 12 -8 28 -6 l27 3 0 97 c0 62 4 101 12 109 19 19 40
-5 53 -64 17 -71 27 -87 53 -87 15 0 28 11 41 35 11 19 23 35 28 35 11 0 28
-44 28 -72 0 -25 44 -68 68 -68 29 0 62 29 62 54 0 21 16 36 39 36 4 0 21 -20
39 -45 48 -69 84 -87 162 -83 111 6 191 78 130 116 -17 11 -28 9 -67 -8 -59
-26 -89 -25 -130 3 -44 30 -42 49 10 75 23 12 55 34 71 51 l28 29 -23 40 c-26
44 -62 62 -128 62 -54 0 -95 -39 -105 -100 -5 -31 -13 -45 -36 -58 -16 -9 -31
-24 -33 -32 -2 -9 -16 6 -36 38 -37 58 -56 72 -100 72 -16 0 -37 8 -47 18 -53
53 -101 72 -141 56z"/>
<path d="M6497 5413 c-12 -11 -7 -67 7 -85 16 -22 49 -23 65 -4 9 11 9 25 1
55 -9 36 -14 41 -39 41 -15 0 -31 -3 -34 -7z"/>
<path d="M9012 5377 c-26 -28 -28 -49 -6 -82 14 -22 14 -26 -2 -50 -17 -27
-24 -101 -10 -123 11 -19 63 -15 72 6 23 52 31 103 18 120 -7 9 -9 21 -5 27 4
5 13 27 20 48 12 35 11 39 -11 57 -31 26 -50 25 -76 -3z"/>
<path d="M9315 5294 c-27 -13 -55 -24 -61 -24 -17 0 -31 -21 -38 -57 -6 -27
-3 -34 18 -48 25 -16 28 -16 54 1 47 32 86 54 115 65 28 11 44 47 33 74 -8 22
-63 17 -121 -11z"/>
<path d="M6533 5269 c-37 -11 -41 -29 -19 -84 12 -27 21 -35 40 -35 22 0 26 6
31 44 12 79 4 91 -52 75z"/>
<path d="M6511 5013 c-43 -30 -13 -109 36 -97 27 7 44 51 30 81 -12 28 -40 35
-66 16z"/>
<path d="M8975 4920 c-8 -16 -15 -45 -15 -65 0 -31 5 -38 35 -52 33 -16 36
-15 55 2 22 20 28 92 10 126 -17 31 -66 25 -85 -11z"/>
<path d="M7726 4769 c-18 -26 -20 -57 -6 -79 7 -12 32 -15 112 -16 57 0 111
-4 122 -9 21 -9 69 15 74 38 2 8 -10 28 -27 45 -29 31 -31 32 -123 32 -51 0
-103 3 -114 6 -15 4 -26 -1 -38 -17z"/>
<path d="M6492 4760 c-29 -47 0 -113 46 -108 24 3 28 8 33 53 3 28 2 56 -4 63
-15 19 -61 15 -75 -8z"/>
<path d="M5407 4753 c-4 -3 -27 -5 -51 -5 -37 2 -48 -2 -65 -24 -29 -37 -26
-59 11 -77 24 -11 38 -13 57 -5 14 6 63 11 108 12 88 3 113 14 113 51 0 39
-30 55 -102 55 -35 0 -68 -3 -71 -7z"/>
<path d="M8948 4648 c-25 -47 4 -131 43 -121 26 7 59 50 59 79 0 29 -36 64
-67 64 -13 0 -27 -9 -35 -22z"/>
<path d="M7800 4640 c-6 -11 -10 -33 -8 -47 3 -24 10 -29 73 -44 98 -25 167
-24 190 1 14 16 16 25 8 43 -11 23 -57 39 -153 52 -25 3 -57 8 -72 11 -20 4
-29 0 -38 -16z"/>
<path d="M5490 4604 c-19 -7 -49 -13 -67 -13 -50 -1 -82 -18 -89 -46 -10 -40
11 -55 73 -55 30 0 63 5 73 10 10 6 40 12 66 15 59 6 70 16 54 46 -31 60 -48
67 -110 43z"/>
<path d="M6482 4468 c-19 -19 -13 -61 13 -93 20 -25 28 -28 42 -19 27 17 37
83 17 106 -19 21 -54 24 -72 6z"/>
<path d="M8936 4382 c-8 -16 -18 -52 -22 -80 l-7 -52 38 -16 c51 -21 65 -13
65 35 0 22 5 51 11 65 10 20 9 30 -5 51 -23 35 -61 34 -80 -3z"/>
<path d="M5727 4329 c-34 -20 -38 -53 -17 -146 22 -99 25 -207 9 -283 -11 -50
-10 -53 17 -82 33 -34 84 -58 123 -58 15 0 51 11 80 25 39 19 56 34 67 60 15
38 12 51 -30 113 -31 46 -54 56 -115 50 -37 -3 -40 -1 -45 26 -3 15 -6 42 -6
59 0 53 -33 204 -49 226 -13 16 -20 18 -34 10z m177 -417 c3 -5 2 -18 -1 -30
-4 -17 -13 -22 -39 -22 -39 0 -43 11 -14 40 21 21 45 26 54 12z"/>
<path d="M4752 4310 c-15 -25 -15 -59 1 -135 9 -41 10 -71 3 -93 -6 -23 -5
-40 4 -57 16 -29 18 -65 7 -125 -4 -26 -3 -67 4 -97 11 -56 18 -60 87 -54 27
2 122 61 166 103 l31 30 3 -35 c4 -44 59 -97 100 -97 45 0 96 18 124 45 31 29
43 31 51 11 3 -8 18 -22 32 -32 21 -13 31 -15 50 -6 14 7 25 8 25 3 0 -19 39
-51 63 -51 33 0 40 22 27 90 -17 87 -13 123 16 143 13 10 39 18 57 19 57 0 67
7 67 43 0 36 -6 41 -71 49 -87 11 -135 -25 -170 -125 -9 -30 -24 -54 -31 -54
-15 0 -67 100 -68 131 0 26 -18 42 -59 54 -28 8 -36 5 -68 -23 -21 -18 -52
-49 -71 -69 -39 -43 -52 -47 -52 -18 0 11 -22 42 -49 68 -40 39 -60 50 -110
61 -33 7 -65 18 -70 25 -11 13 -31 117 -31 161 0 24 -6 35 -25 43 -32 15 -28
16 -43 -8z m220 -333 c18 -29 7 -57 -34 -87 -66 -48 -78 -40 -78 57 l0 56 52
-7 c29 -4 56 -13 60 -19z m278 -59 c0 -29 -38 -68 -67 -68 -13 0 -23 5 -23 10
0 19 33 62 54 70 32 13 36 12 36 -12z"/>
<path d="M7225 4236 c-33 -33 -34 -81 -2 -90 39 -10 64 -6 91 15 22 17 27 28
24 58 -3 35 -5 36 -45 39 -35 3 -48 -2 -68 -22z"/>
<path d="M6492 4215 c-28 -61 4 -117 56 -99 23 8 27 16 30 50 3 47 -16 74 -52
74 -15 0 -27 -9 -34 -25z"/>
<path d="M8923 4162 c-7 -4 -15 -33 -19 -63 -6 -52 -5 -57 21 -77 15 -12 32
-22 37 -22 12 0 26 40 30 90 3 39 0 45 -27 61 -17 10 -36 15 -42 11z"/>
<path d="M7624 4077 c-92 -68 -134 -120 -134 -165 0 -35 20 -77 44 -94 18 -13
75 -9 105 6 15 8 42 31 60 52 18 20 35 34 38 30 3 -3 20 -27 37 -52 40 -60 59
-73 86 -56 15 9 26 10 41 2 46 -25 85 17 75 82 -9 57 1 88 30 88 13 0 33 -9
44 -20 16 -16 19 -28 14 -61 -6 -37 -4 -43 22 -65 35 -28 42 -29 65 -8 25 23
56 9 79 -36 37 -73 149 -112 219 -76 88 46 135 134 81 151 -14 4 -33 -4 -63
-29 -54 -44 -84 -52 -131 -32 -44 18 -50 50 -10 60 36 10 101 52 114 75 21 40
12 66 -32 98 -59 41 -81 47 -117 29 -32 -17 -75 -68 -85 -103 -12 -37 -56 -41
-56 -4 0 18 -57 76 -104 105 -37 23 -105 14 -133 -17 -22 -24 -54 -82 -49 -88
8 -9 15 -89 8 -89 -15 0 -92 130 -101 171 -10 45 -45 89 -72 89 -9 0 -43 -19
-75 -43z m26 -125 c0 -5 -11 -19 -25 -32 -25 -23 -25 -23 -25 -2 0 11 8 26 18
31 21 13 32 14 32 3z"/>
<path d="M7343 4063 c-20 -7 -15 -82 7 -132 20 -44 24 -79 14 -118 -5 -20 -13
-23 -54 -23 -62 0 -81 -20 -58 -58 32 -52 123 -54 179 -4 40 35 47 90 24 169
-48 160 -65 186 -112 166z"/>
<path d="M6472 4015 c-19 -24 -37 -99 -27 -114 6 -11 62 -19 75 -11 5 3 14 30
20 60 9 45 8 56 -6 72 -23 24 -39 23 -62 -7z"/>
<path d="M8939 3924 c-36 -19 -46 -81 -17 -106 43 -38 78 -13 78 55 0 20 -7
40 -17 50 -16 13 -21 14 -44 1z"/>
<path d="M11520 3914 c-15 -38 -12 -82 10 -170 16 -59 20 -103 18 -176 -3
-110 7 -135 55 -123 42 11 58 36 47 75 -11 38 6 85 30 85 19 0 56 -67 64 -116
8 -48 39 -72 84 -63 26 5 36 1 62 -25 18 -17 37 -31 45 -31 7 0 26 -7 41 -15
55 -29 150 -10 190 38 25 30 25 31 7 45 -12 9 -30 11 -58 7 -94 -17 -180 5
-173 42 2 9 17 21 33 27 33 12 115 66 132 88 21 26 3 74 -45 114 l-45 38 -65
-17 c-78 -21 -84 -25 -111 -83 -22 -47 -37 -55 -48 -27 -7 17 -51 59 -81 77
-8 4 -31 8 -52 8 l-37 -1 -7 52 c-21 174 -22 177 -62 177 -17 0 -28 -8 -34
-26z m470 -278 c0 -17 -5 -21 -42 -30 -35 -8 -40 20 -5 34 33 13 47 12 47 -4z"/>
<path d="M10610 3880 c-83 -11 -142 -42 -208 -108 -67 -67 -92 -123 -99 -220
l-5 -63 41 -40 c70 -66 91 -72 208 -66 86 4 110 9 145 30 l42 25 27 -29 c22
-24 35 -29 73 -29 41 0 51 5 103 54 l58 54 60 -64 c65 -69 104 -83 125 -45 18
35 12 58 -20 71 -35 14 -60 63 -60 114 0 23 -9 41 -32 63 -18 17 -39 38 -46
47 -17 21 -66 21 -83 -1 -8 -9 -36 -31 -64 -48 -27 -18 -66 -49 -85 -69 -19
-20 -44 -36 -55 -36 -11 0 -40 -10 -65 -21 -25 -11 -72 -22 -105 -25 -51 -4
-68 -1 -115 23 -53 27 -55 29 -52 66 5 61 36 121 84 159 64 52 81 58 172 65
66 5 85 10 95 25 9 14 9 24 0 41 -21 40 -31 42 -139 27z"/>
<path d="M6461 3815 c-29 -37 -27 -85 3 -114 34 -32 61 -16 70 41 6 37 4 45
-22 71 l-29 29 -22 -27z"/>
<path d="M8922 3738 c-28 -36 -24 -103 8 -113 29 -9 47 4 60 47 11 39 10 43
-12 60 -27 21 -42 22 -56 6z"/>
<path d="M11355 3685 c-5 -2 -22 -6 -38 -9 -42 -10 -105 -72 -117 -117 -10
-36 -8 -43 17 -78 61 -85 148 -109 242 -67 45 21 58 45 41 75 -9 19 -17 20
-88 15 -72 -6 -78 -5 -90 16 -11 19 -11 25 4 41 9 10 30 19 46 19 47 0 103 74
70 94 -11 7 -76 16 -87 11z"/>
<path d="M8177 3593 c-14 -13 -7 -70 11 -85 19 -17 106 -19 133 -3 21 13 30
54 18 77 -8 15 -22 18 -83 18 -40 0 -76 -3 -79 -7z"/>
<path d="M7988 3581 c-45 -9 -62 -23 -78 -61 -10 -24 -10 -33 0 -45 15 -18 74
-20 92 -2 7 7 27 14 43 15 50 4 74 60 38 88 -20 15 -39 15 -95 5z"/>
<path d="M8882 3578 c-17 -17 -15 -64 4 -83 10 -10 29 -15 48 -13 23 2 33 10
41 32 8 25 6 31 -18 52 -31 26 -57 30 -75 12z"/>
<path d="M6838 3563 c-16 -19 -38 -58 -38 -67 0 -3 8 -6 18 -6 10 0 22 -4 28
-9 5 -5 33 -7 62 -4 42 5 57 11 70 31 15 24 15 25 -12 48 -34 30 -105 33 -128
7z"/>
<path d="M7091 3552 c-26 -37 -26 -44 -2 -66 14 -13 39 -18 88 -19 l68 -2 3
31 c3 27 -2 34 -32 52 -20 12 -51 24 -69 27 -30 6 -37 3 -56 -23z"/>
<path d="M7668 3565 c-32 -18 -37 -54 -13 -79 11 -11 34 -14 88 -12 l72 2 9
37 c7 25 6 41 -1 48 -19 19 -125 21 -155 4z"/>
<path d="M8462 3568 c-6 -7 -13 -25 -17 -39 -5 -20 -1 -29 17 -41 21 -13 28
-13 76 9 48 21 53 26 50 51 -3 25 -6 27 -59 30 -37 2 -59 -2 -67 -10z"/>
<path d="M8702 3564 c-26 -18 -29 -42 -4 -51 9 -3 25 -14 35 -25 37 -38 77
-13 77 50 0 22 -6 31 -22 36 -37 10 -62 7 -86 -10z"/>
<path d="M9101 3546 c-30 -32 -23 -65 24 -102 20 -16 58 -50 84 -77 36 -35 54
-45 67 -41 32 12 44 26 44 51 0 23 -13 39 -71 89 -13 12 -41 40 -62 63 -43 48
-55 50 -86 17z"/>
<path d="M7335 3504 c-20 -48 -19 -52 10 -66 18 -8 43 -8 100 2 74 13 75 13
81 47 9 46 -3 53 -98 53 l-78 0 -15 -36z"/>
<path d="M12305 3309 c-22 -4 -142 -10 -266 -13 -124 -4 -237 -9 -250 -13 -13
-3 -195 -7 -404 -8 -325 -2 -389 -5 -440 -20 -70 -20 -129 -25 -395 -32 l-195
-5 -26 -28 c-26 -28 -27 -30 -12 -71 8 -25 13 -73 12 -116 0 -40 -1 -88 -1
-105 3 -650 1 -1041 -4 -1049 -3 -6 -8 -52 -9 -103 -2 -50 -6 -131 -9 -181 -3
-49 -8 -124 -11 -165 -2 -41 -9 -109 -14 -151 -6 -41 -8 -97 -6 -124 4 -33 0
-56 -10 -71 -17 -26 -20 -70 -5 -79 5 -3 1 -19 -10 -38 -23 -36 -26 -90 -7
-104 23 -19 87 -22 129 -7 60 21 120 18 152 -7 26 -20 28 -20 46 -4 22 20 95
28 122 14 12 -7 27 -5 47 6 21 10 50 14 98 11 37 -3 122 -7 188 -11 66 -4 136
-10 155 -15 19 -4 60 -5 90 -1 30 3 93 3 139 -1 49 -4 91 -3 101 2 10 6 31 7
47 4 86 -17 633 -27 767 -14 92 9 103 8 172 -15 41 -14 83 -25 93 -25 54 0 75
35 59 96 -6 25 -11 413 -14 1049 -3 654 -8 1040 -15 1095 -6 47 -12 122 -14
168 -3 92 -9 103 -85 130 -36 13 -145 14 -215 1z m179 -122 c56 -74 62 -231
56 -1652 0 -115 0 -262 1 -325 1 -63 -2 -160 -6 -215 l-7 -100 -376 0 c-283 0
-388 4 -422 14 -58 17 -113 21 -290 19 -225 -2 -240 -2 -315 6 -128 14 -179
16 -290 16 -151 -1 -151 -1 -320 2 l-150 3 0 95 c1 100 9 231 25 390 5 52 12
160 15 239 3 79 8 148 12 155 4 6 8 249 10 541 1 291 2 574 3 628 l0 97 38 2
c76 4 130 6 259 11 72 3 155 10 185 16 122 24 211 32 290 26 45 -4 103 -2 128
2 25 5 95 5 160 1 83 -6 126 -5 155 3 23 7 121 14 230 16 210 4 363 15 572 41
7 1 23 -13 37 -31z"/>
<path d="M11342 2926 c-43 -23 -137 -123 -166 -175 -48 -89 -24 -175 50 -183
41 -3 73 14 104 58 14 20 35 47 46 62 l22 26 26 -52 c14 -28 35 -56 45 -62 23
-12 120 6 137 26 7 9 7 39 2 95 -8 69 -7 85 6 98 15 14 18 14 34 -4 10 -11 27
-45 37 -75 10 -30 26 -65 34 -77 17 -23 55 -31 66 -13 11 18 34 10 47 -17 18
-37 42 -40 73 -9 35 35 51 33 80 -14 27 -43 77 -80 109 -80 11 0 33 -5 50 -11
28 -10 38 -7 104 31 39 23 72 48 72 55 0 8 -9 20 -21 29 -18 12 -25 12 -55 0
-49 -21 -137 -18 -165 5 l-23 19 57 36 c77 49 99 106 63 161 -19 28 -80 44
-126 33 -47 -12 -76 -47 -85 -103 -5 -34 -12 -49 -25 -52 -10 -3 -21 -11 -24
-19 -12 -31 -33 -14 -39 32 -5 45 -37 94 -62 94 -7 0 -20 -9 -30 -20 -25 -27
-32 -25 -49 13 -8 17 -31 49 -51 70 l-35 37 -47 -22 c-66 -33 -103 -101 -96
-178 5 -48 4 -53 -9 -40 -24 24 -78 173 -72 196 3 12 2 24 -3 26 -23 14 -60
15 -81 4z m758 -129 c0 -17 -20 -37 -37 -37 -16 0 -17 22 -1 38 16 16 38 15
38 -1z m-790 -47 c0 -30 -37 -80 -60 -80 -14 0 -13 4 18 60 31 57 42 62 42 20z"/>
<path d="M10908 2906 c-16 -8 -34 -18 -40 -23 -7 -4 -28 -13 -47 -18 -47 -14
-59 -36 -41 -77 7 -18 14 -53 15 -78 3 -84 25 -110 81 -96 23 6 24 10 24 85 0
76 1 80 31 106 17 14 37 24 43 22 22 -7 56 -82 56 -123 0 -23 5 -55 11 -73 10
-28 15 -32 43 -29 27 3 32 8 40 41 8 32 5 52 -14 110 -13 40 -32 85 -41 101
-36 60 -104 82 -161 52z"/>
<path d="M11343 2215 c-25 -18 -30 -57 -10 -72 6 -6 55 -13 107 -17 52 -3 104
-9 115 -11 11 -3 27 -1 35 4 13 9 13 15 -1 53 -15 40 -18 43 -55 43 -21 1 -68
5 -104 9 -53 6 -69 4 -87 -9z"/>
<path d="M11421 1992 c-80 -18 -104 -38 -85 -69 15 -24 32 -26 142 -18 106 8
133 23 125 69 -4 21 -11 26 -37 26 -17 0 -40 2 -51 4 -11 3 -53 -3 -94 -12z"/>
<path d="M10765 1804 c-3 -20 -4 -38 -2 -40 2 -3 27 -7 54 -11 l50 -5 5 33 c6
41 -12 58 -63 59 -34 0 -37 -2 -44 -36z"/>
<path d="M11193 1636 c-49 -49 -123 -168 -123 -200 0 -8 5 -26 11 -39 27 -60
110 -53 171 12 39 43 58 51 58 26 0 -8 14 -30 31 -50 27 -30 36 -35 63 -30 26
5 33 2 41 -16 6 -13 24 -26 40 -31 46 -12 57 11 53 106 -2 66 0 80 14 90 34
21 111 -85 94 -129 -3 -10 5 -20 24 -30 39 -20 57 -19 65 5 7 21 35 28 35 8 0
-37 45 -99 92 -128 50 -31 53 -31 135 -25 66 6 86 11 93 26 29 54 -7 83 -80
64 -68 -17 -130 7 -143 55 -4 15 8 28 52 56 86 56 121 99 121 148 0 39 -2 42
-42 60 -37 16 -50 17 -88 7 -57 -14 -116 -75 -125 -130 -4 -22 -12 -47 -20
-57 -11 -16 -15 -16 -29 -4 -10 7 -24 29 -32 49 -21 51 -98 121 -132 121 -31
0 -97 -19 -131 -39 -22 -12 -23 -18 -18 -67 4 -42 2 -54 -8 -54 -8 0 -17 10
-21 23 -4 12 -22 46 -41 76 -26 40 -33 60 -28 81 5 23 1 31 -23 49 -17 12 -36
20 -44 20 -7 -1 -36 -24 -65 -53z m757 -105 c0 -5 -14 -21 -31 -35 -50 -43
-68 -30 -24 18 23 25 55 35 55 17z"/>
<path d="M10912 1628 c-16 -16 -15 -34 4 -88 22 -61 29 -188 12 -220 -9 -16
-26 -27 -52 -32 -51 -11 -68 -25 -64 -57 3 -22 10 -27 48 -34 60 -11 92 3 129
53 41 57 49 137 26 267 -10 54 -22 104 -28 111 -12 15 -59 16 -75 0z"/>
<path d="M9335 3214 c-33 -34 24 -114 82 -114 35 0 38 3 47 57 5 28 1 34 -28
52 -40 25 -79 27 -101 5z"/>
<path d="M9490 3001 c-34 -6 -35 -8 -38 -53 -3 -45 -1 -48 30 -62 18 -9 40
-21 49 -27 23 -17 49 -4 49 25 0 27 -33 111 -47 118 -4 2 -24 2 -43 -1z"/>
<path d="M9572 2778 c-23 -23 -13 -59 27 -99 21 -22 42 -39 47 -39 13 0 64 52
64 66 0 17 -85 84 -107 84 -11 0 -24 -5 -31 -12z"/>
<path d="M9927 2634 c-41 -22 -50 -54 -30 -113 15 -46 14 -53 -1 -98 -10 -26
-21 -70 -26 -98 -9 -55 -27 -109 -45 -140 -7 -11 -16 -33 -19 -48 -4 -16 -17
-45 -30 -65 -31 -51 -39 -97 -20 -117 22 -21 77 -19 107 5 14 12 41 26 59 32
35 12 193 111 203 128 9 15 51 12 65 -5 27 -32 80 -14 80 27 0 38 -13 61 -61
109 -21 21 -55 71 -75 111 -20 40 -51 93 -69 118 -18 25 -42 63 -53 85 -12 22
-29 50 -39 62 -17 20 -20 21 -46 7z"/>
<path d="M9710 2580 c-20 -20 -28 -60 -11 -60 5 0 28 -16 51 -35 48 -40 65
-43 80 -16 17 33 12 48 -30 91 -44 45 -61 49 -90 20z"/>
<path d="M5260 1926 c-5 -5 -10 -32 -10 -58 0 -45 2 -48 26 -48 40 0 84 36 84
69 0 25 -5 29 -45 38 -30 7 -47 7 -55 -1z"/>
<path d="M3735 1882 c-11 -10 -30 -36 -41 -58 -12 -21 -36 -49 -53 -61 -76
-52 -102 -133 -61 -185 47 -60 120 -24 195 94 17 27 33 48 37 48 4 0 15 -14
25 -30 22 -38 52 -49 70 -24 18 25 23 16 30 -59 7 -81 28 -107 70 -88 l26 12
-6 94 c-4 61 -3 96 4 101 16 9 46 -23 53 -58 7 -35 32 -68 52 -68 7 0 23 14
36 31 13 17 34 42 47 55 29 29 41 18 41 -39 0 -21 5 -47 10 -58 13 -24 58 -25
76 -1 10 14 15 15 25 5 7 -7 21 -13 32 -13 12 0 25 -15 38 -45 26 -58 65 -80
128 -71 76 10 81 11 111 38 52 46 29 99 -29 66 -14 -9 -47 -18 -72 -22 -42 -6
-48 -5 -63 19 -28 42 -17 58 52 80 35 12 68 28 73 37 12 22 -2 57 -40 93 -59
55 -139 28 -161 -55 -7 -27 -20 -42 -51 -59 -22 -13 -44 -19 -48 -15 -4 5 -13
31 -20 59 -21 86 -32 100 -71 97 -26 -3 -44 -14 -72 -45 -33 -38 -37 -40 -44
-22 -4 11 -21 39 -38 62 -40 55 -70 57 -119 6 -20 -21 -48 -48 -61 -61 l-24
-23 -31 64 c-17 36 -31 70 -31 75 0 14 -40 42 -60 42 -8 -1 -24 -9 -35 -18z"/>
<path d="M3305 1858 c-16 -6 -40 -20 -53 -31 -19 -18 -26 -19 -43 -9 -17 11
-23 9 -44 -15 -13 -16 -22 -34 -19 -42 2 -8 9 -45 14 -83 15 -100 26 -116 80
-108 25 3 35 32 35 99 0 56 3 66 25 82 43 32 74 33 106 6 26 -23 29 -31 34
-113 l5 -88 33 -7 c18 -4 35 -2 38 3 13 20 4 109 -16 169 -42 124 -105 168
-195 137z"/>
<path d="M5636 1750 c-135 -117 -150 -155 -88 -222 38 -41 78 -38 129 10 21
20 47 48 55 61 20 28 32 22 58 -30 17 -33 25 -39 53 -39 51 0 63 12 48 48 -7
17 -22 39 -33 49 -31 28 -58 88 -58 130 0 42 -23 83 -45 83 -8 0 -62 -41 -119
-90z"/>
<path d="M6441 1817 c-57 -18 -171 -144 -171 -190 0 -11 16 -48 35 -82 38 -69
93 -113 164 -132 58 -15 182 -6 198 16 17 22 16 70 -1 77 -7 3 -51 0 -96 -5
-46 -6 -86 -7 -89 -3 -3 5 -21 14 -39 22 -36 14 -68 53 -58 69 6 10 39 22 114
41 60 15 76 44 60 105 -13 46 -50 96 -72 94 -6 -1 -26 -6 -45 -12z"/>
<path d="M4898 1812 c-26 -5 -32 -49 -8 -74 24 -26 25 -41 5 -58 -8 -7 -15
-23 -15 -35 0 -30 68 -50 151 -42 64 6 89 19 89 47 0 23 -19 30 -78 30 -65 0
-88 16 -36 25 97 16 127 35 118 73 -6 19 -13 21 -68 21 -33 -1 -79 3 -101 8
-22 5 -47 7 -57 5z"/>
<path d="M6001 1759 c-22 -23 -50 -47 -63 -53 -21 -11 -23 -18 -25 -96 -2
-114 25 -172 71 -154 21 8 28 30 36 117 6 61 12 83 30 102 22 24 24 24 43 8
30 -28 78 -104 76 -122 -3 -32 2 -41 31 -56 41 -21 59 -19 71 9 10 20 4 35
-40 108 -60 99 -100 144 -147 164 -18 8 -36 14 -38 14 -3 0 -23 -19 -45 -41z"/>
<path d="M5345 1736 c-17 -12 -18 -18 -8 -37 35 -70 67 -266 53 -320 -10 -38
-21 -45 -60 -39 -20 2 -69 49 -86 83 -11 20 -22 27 -45 27 -26 0 -29 -2 -19
-19 5 -11 10 -28 10 -39 0 -22 52 -90 94 -123 59 -46 142 -22 175 49 28 62 28
115 -3 245 -38 166 -65 207 -111 173z"/>
</g>
</svg>
