<?xml version="1.0" standalone="no"?>
<!DOCTYPE svg PUBLIC "-//W3C//DTD SVG 20010904//EN"
 "http://www.w3.org/TR/2001/REC-SVG-20010904/DTD/svg10.dtd">
<svg version="1.0" xmlns="http://www.w3.org/2000/svg"
 width="456.018645pt" height="400.000000pt" viewBox="0 0 456.018645 400.000000"
 preserveAspectRatio="xMidYMid meet">
<metadata>
Created by potrace 1.15, written by Peter Selinger 2001-2017
</metadata>
<g transform="translate(-61.323525,442.153399) scale(0.046234,-0.046234)"
fill="#444444" stroke="none">
<path d="M9901 9551 c-24 -18 -24 -21 -12 -72 18 -83 27 -226 18 -309 -4 -41
-6 -91 -3 -110 l5 -35 -38 44 c-22 24 -49 66 -62 93 -22 48 -25 50 -58 44 -18
-3 -44 -14 -56 -26 -28 -26 -33 -25 -61 7 -20 23 -32 28 -81 29 l-58 1 -23 59
c-12 33 -30 80 -38 105 -15 45 -53 77 -74 64 -23 -14 -21 -73 3 -121 13 -27
28 -68 32 -91 6 -41 6 -43 -18 -43 -38 0 -60 -27 -53 -63 8 -41 24 -57 56 -57
26 0 28 -3 34 -57 17 -157 16 -153 44 -160 44 -11 55 17 47 128 -7 107 -6 110
52 115 19 2 43 6 54 9 22 7 23 3 9 -45 -13 -47 5 -95 42 -111 25 -10 32 -8 65
17 21 15 43 34 49 42 8 12 13 9 27 -12 10 -14 29 -33 43 -42 24 -16 26 -16 49
6 16 15 23 30 19 42 -3 12 0 18 9 18 16 0 37 -23 56 -62 19 -37 89 -72 121
-60 14 5 28 10 33 11 4 0 21 7 37 16 72 37 69 122 -8 237 l-46 70 -52 -5 c-49
-5 -53 -4 -63 22 -7 14 -14 74 -16 131 -5 122 -13 158 -40 176 -17 11 -24 10
-44 -5z m195 -448 c50 -32 49 -93 -2 -93 -28 0 -65 17 -76 34 -10 14 -10 60
-1 69 12 13 53 7 79 -10z"/>
<path d="M10632 9310 c-23 -17 -46 -30 -51 -30 -4 0 -14 -19 -20 -43 -16 -54
-5 -82 48 -132 38 -36 53 -77 34 -88 -17 -10 -119 19 -136 38 -25 28 -67 119
-67 145 0 55 -54 108 -74 73 -5 -10 -34 -42 -63 -72 -54 -55 -71 -97 -59 -145
9 -36 55 -86 78 -86 26 0 78 37 78 56 0 23 15 16 44 -20 14 -19 38 -37 51 -40
14 -4 25 -11 25 -17 0 -18 88 -48 132 -45 49 3 103 28 112 51 3 9 -1 32 -9 52
-8 19 -15 49 -15 65 0 40 -15 65 -50 83 -41 21 -41 55 0 55 37 0 90 25 90 43
-1 33 -15 57 -41 68 -16 6 -32 9 -36 5 -3 -3 -12 -1 -18 4 -8 7 -25 1 -53 -20z"/>
<path d="M8708 9320 c-64 -11 -71 -17 -64 -53 9 -44 24 -57 66 -57 36 0 37 -1
49 -52 12 -57 31 -161 38 -218 6 -45 -15 -74 -53 -75 -23 0 -30 -5 -32 -24 -6
-37 6 -70 32 -86 22 -15 29 -13 116 32 51 26 108 63 127 82 l34 33 24 -22 c12
-12 39 -23 58 -25 41 -3 71 23 107 94 l22 44 16 -25 c60 -90 76 -108 96 -108
63 1 59 53 -9 137 -25 31 -55 77 -66 102 -11 25 -23 53 -28 61 -9 17 -71 27
-71 11 0 -15 -111 -132 -120 -126 -3 2 -23 37 -43 77 -20 40 -45 82 -54 93
-37 41 -109 93 -138 97 -16 3 -37 8 -45 10 -8 3 -36 2 -62 -2z m173 -153 c43
-37 70 -84 75 -134 5 -40 2 -53 -16 -75 -12 -16 -27 -28 -33 -28 -19 0 -40 58
-57 163 -17 104 -14 112 31 74z"/>
<path d="M10888 9240 c-69 -20 -108 -78 -108 -160 0 -96 45 -159 152 -214 72
-37 85 -40 143 -33 106 14 137 42 99 92 -12 16 -25 19 -77 18 -66 -2 -143 12
-163 28 -19 16 -5 39 22 39 37 0 91 26 103 48 20 38 12 70 -30 119 -23 26 -47
51 -53 54 -23 13 -62 17 -88 9z"/>
<path d="M10304 8640 c-5 -5 -65 -10 -134 -11 -69 -1 -147 -6 -175 -11 -27 -6
-140 -12 -250 -14 -110 -2 -233 -5 -273 -7 -41 -1 -76 1 -78 5 -10 16 -89 8
-114 -12 -14 -11 -35 -20 -48 -20 -43 0 -148 -35 -219 -72 -40 -21 -83 -38
-97 -38 -15 0 -38 -13 -58 -34 -70 -73 -71 -74 -64 -130 24 -215 35 -523 21
-656 -6 -60 -4 -67 19 -94 25 -28 26 -35 28 -155 2 -144 -1 -517 -7 -861 -3
-171 -8 -248 -19 -283 -8 -27 -20 -90 -26 -140 -6 -51 -16 -110 -22 -132 -6
-22 -11 -66 -12 -97 0 -41 -4 -58 -13 -58 -7 0 -16 -12 -19 -26 -5 -21 1 -33
37 -70 24 -24 71 -58 104 -75 33 -18 72 -40 86 -50 34 -24 164 -63 254 -77
147 -23 246 -34 252 -28 3 3 12 1 18 -4 22 -19 284 -15 366 4 41 10 82 22 91
27 10 5 46 9 81 9 35 0 68 5 75 12 7 7 58 14 126 17 88 5 118 10 133 23 11 10
44 20 78 24 62 7 79 13 200 67 91 41 148 83 210 153 61 69 99 166 84 217 -6
18 -9 175 -8 357 2 331 12 465 44 565 15 47 23 254 10 275 -2 4 0 43 7 86 9
68 8 93 -7 174 -22 113 -29 256 -18 360 4 41 6 113 3 160 -3 47 -2 102 3 123
13 65 -10 215 -43 282 -25 50 -40 66 -87 95 -111 67 -101 63 -238 84 -63 10
-241 37 -266 41 -15 2 -31 -1 -35 -5z m192 -121 c6 -5 44 -12 85 -15 68 -6 98
-16 202 -64 86 -40 117 -148 60 -202 -16 -14 -35 -28 -43 -32 -8 -3 -33 -17
-55 -31 -28 -17 -49 -23 -67 -19 -16 3 -45 0 -65 -7 -21 -7 -47 -14 -58 -16
-11 -2 -47 -8 -80 -13 -33 -6 -73 -13 -90 -15 -16 -3 -68 -10 -114 -15 -47 -6
-91 -16 -99 -22 -8 -7 -63 -13 -135 -15 -213 -5 -378 -12 -386 -18 -5 -2 -33
0 -64 5 -31 5 -105 12 -164 15 -94 5 -167 14 -251 31 -17 3 -22 10 -18 20 3 9
-1 28 -10 43 -14 24 -29 31 -94 45 -125 27 -164 77 -102 132 38 34 128 85 155
88 12 1 29 6 36 10 7 4 45 16 84 26 40 10 83 22 97 27 14 5 36 8 50 6 57 -7
182 -2 256 11 23 4 86 2 141 -4 86 -9 105 -8 143 6 43 16 98 21 364 29 59 2
110 6 112 8 7 7 98 -5 110 -14z m384 -549 c-8 -239 -5 -363 9 -429 15 -66 17
-125 12 -348 -1 -80 -8 -153 -18 -185 -27 -94 -41 -247 -47 -493 -3 -132 -6
-253 -7 -270 -1 -16 2 -58 6 -92 7 -54 5 -63 -10 -69 -15 -6 -16 -16 -10 -70
6 -63 6 -65 -27 -100 -65 -72 -76 -81 -143 -113 -28 -13 -61 -29 -75 -36 -14
-7 -51 -18 -83 -24 -31 -6 -66 -15 -77 -21 -10 -6 -23 -9 -27 -8 -11 3 -85
-22 -100 -35 -9 -6 -18 -5 -29 4 -11 9 -18 9 -22 2 -6 -10 -125 -30 -146 -24
-9 2 -129 -20 -253 -46 -80 -17 -286 -24 -342 -13 -20 5 -80 11 -134 14 -55 3
-104 9 -110 13 -7 5 -21 8 -32 9 -48 3 -97 13 -108 22 -7 5 -29 12 -50 16 -47
9 -173 71 -179 88 -2 7 -2 40 -1 73 7 175 13 237 28 305 9 41 20 98 26 125 15
80 32 1019 20 1100 -4 22 -4 99 -1 170 6 119 5 132 -13 152 -16 17 -21 43 -26
118 -3 53 -3 101 0 107 4 6 3 22 -2 35 -5 14 -9 44 -9 68 0 45 0 45 28 34 15
-6 37 -13 49 -14 24 -3 86 -21 118 -35 26 -10 98 -34 150 -49 76 -22 251 -30
540 -25 195 3 315 9 365 19 41 8 111 19 155 26 44 6 90 16 102 22 13 6 26 8
29 4 3 -3 26 1 50 8 25 7 59 12 76 9 18 -2 36 0 42 4 6 5 36 14 66 21 53 13
129 42 160 61 8 5 24 8 35 7 19 -2 20 -8 15 -137z"/>
<path d="M9190 7579 c-71 -84 -70 -81 -70 -236 0 -142 0 -143 25 -159 22 -14
30 -15 50 -4 24 13 25 14 20 136 -4 120 -4 124 21 153 33 40 60 48 86 24 37
-33 51 -77 62 -188 11 -107 12 -110 36 -113 14 -2 33 3 43 10 17 12 17 21 6
108 -17 138 -58 244 -109 282 -14 9 -50 20 -80 23 -54 5 -55 4 -90 -36z"/>
<path d="M9603 7522 c-123 -115 -139 -185 -66 -277 46 -57 105 -42 159 41 l17
25 15 -23 c23 -33 34 -39 61 -33 49 12 53 28 19 81 -33 52 -56 116 -64 179 -6
44 -28 75 -53 75 -9 0 -48 -31 -88 -68z m37 -118 c0 -25 -26 -84 -37 -84 -20
0 -17 67 5 79 20 12 32 14 32 5z"/>
<path d="M10258 7569 c-28 -11 -46 -41 -73 -127 -16 -47 -19 -51 -31 -35 -7
10 -14 23 -14 30 0 19 -76 39 -94 24 -12 -10 -18 -7 -33 15 -29 43 -70 84 -85
84 -23 0 -68 -50 -68 -75 0 -13 -5 -27 -11 -31 -7 -4 -9 -30 -4 -78 10 -113
13 -124 47 -141 64 -31 73 -19 59 80 -13 90 -2 104 42 52 25 -28 35 -35 47
-27 28 18 39 10 71 -50 36 -68 66 -85 99 -55 18 17 21 16 55 -4 40 -23 106
-28 168 -10 32 9 37 14 37 40 0 25 -6 33 -36 45 -28 12 -43 13 -68 4 -18 -6
-40 -8 -49 -4 -37 14 -26 64 15 64 11 0 44 21 74 47 64 55 71 89 27 119 -16
10 -30 18 -33 18 -3 0 -25 5 -49 13 -50 15 -56 15 -93 2z"/>
<path d="M9735 6963 c-113 -6 -152 -25 -139 -67 13 -43 32 -55 82 -50 26 3 65
7 87 9 76 7 180 27 189 35 9 9 -10 69 -23 71 -19 3 -153 4 -196 2z"/>
<path d="M9810 6775 c-56 -9 -100 -24 -160 -54 -23 -12 -25 -60 -3 -77 23 -17
54 -18 95 0 49 20 161 46 202 46 31 0 36 3 36 23 0 12 -6 33 -13 47 -15 29
-49 32 -157 15z"/>
<path d="M9156 6568 c-21 -29 -20 -51 2 -71 39 -36 121 -5 122 45 0 48 -95 68
-124 26z"/>
<path d="M10268 6393 c-50 -6 -65 -33 -72 -127 -5 -69 -3 -81 18 -114 30 -47
93 -102 120 -103 81 -5 142 4 164 24 27 25 28 42 2 60 -16 11 -31 12 -68 5
-40 -8 -53 -7 -81 9 -19 10 -34 23 -34 28 0 6 39 30 86 54 79 40 87 46 87 73
0 37 -36 73 -86 87 -38 11 -63 11 -136 4z"/>
<path d="M9610 6383 c0 -4 -24 -33 -53 -64 -91 -95 -108 -156 -58 -211 22 -25
36 -32 63 -31 46 1 96 28 110 58 15 33 22 32 49 -12 36 -60 60 -83 90 -83 14
0 32 7 39 15 9 11 16 12 26 4 7 -6 23 -9 36 -7 22 3 23 8 28 106 6 114 13 127
62 110 37 -13 56 -42 75 -115 17 -67 18 -69 59 -77 28 -6 32 -4 37 19 7 38
-48 173 -86 213 -18 19 -44 40 -59 48 -30 16 -74 19 -82 5 -3 -4 -18 -11 -34
-14 -41 -8 -86 -108 -80 -178 8 -81 -8 -66 -81 76 -23 43 -41 87 -41 96 0 9
-6 21 -12 26 -17 14 -88 26 -88 16z"/>
<path d="M9315 6306 c-19 -14 -19 -15 4 -81 12 -37 25 -101 28 -142 6 -72 5
-75 -13 -65 -10 6 -36 19 -58 28 l-38 17 -34 -39 c-53 -62 -46 -78 57 -127 65
-31 105 -34 135 -9 36 28 44 57 44 146 0 125 -55 286 -98 286 -5 0 -17 -6 -27
-14z"/>
<path d="M5801 7737 c-6 -8 -14 -28 -17 -45 -6 -27 -2 -33 34 -57 39 -26 40
-26 81 -9 22 9 41 21 41 28 0 20 -28 53 -64 75 -39 24 -59 26 -75 8z"/>
<path d="M6840 7705 c-7 -8 -18 -15 -25 -15 -35 0 -80 -121 -68 -183 7 -38 7
-38 -50 39 -87 119 -142 134 -214 58 -39 -40 -43 -49 -37 -77 3 -18 12 -43 19
-57 7 -14 20 -52 30 -85 24 -86 59 -117 93 -83 17 17 15 40 -9 110 -36 109
-24 165 27 117 29 -27 64 -89 64 -114 0 -33 30 -75 53 -75 28 0 67 26 67 46 0
9 21 -3 55 -31 31 -25 66 -45 79 -45 28 0 153 43 168 58 17 17 -1 72 -28 84
-26 12 -54 -3 -54 -28 0 -17 -65 -19 -104 -4 -49 18 -58 82 -15 95 32 10 110
66 116 83 7 16 -21 74 -46 96 -26 22 -105 30 -121 11z"/>
<path d="M6213 7618 c-61 -43 -132 -164 -133 -224 0 -24 9 -40 36 -63 31 -28
40 -31 80 -26 45 5 92 28 107 52 13 21 35 15 54 -14 24 -40 43 -53 75 -53 17
0 31 7 38 21 19 35 8 61 -35 83 -32 17 -44 32 -61 75 -25 62 -99 171 -117 171
-7 0 -27 -10 -44 -22z m50 -150 c-7 -40 -30 -69 -49 -61 -22 8 -17 32 13 64
36 37 44 37 36 -3z"/>
<path d="M5961 7524 c-36 -45 -26 -91 55 -262 30 -65 44 -122 29 -122 -3 0
-26 21 -50 46 -66 70 -103 39 -53 -45 27 -45 47 -65 85 -84 25 -14 36 -14 74
-3 41 12 44 15 47 52 4 45 -13 111 -34 131 -8 8 -14 23 -14 33 0 10 -16 51
-35 91 -20 42 -35 89 -35 109 0 35 -23 80 -40 80 -5 0 -18 -12 -29 -26z"/>
<path d="M5659 7506 c-25 -7 -50 -11 -56 -9 -10 4 -23 -28 -23 -58 0 -9 8 -27
18 -39 l18 -22 49 22 c37 17 53 20 70 12 57 -26 95 42 45 80 -34 25 -66 29
-121 14z"/>
<path d="M7340 7398 c0 -29 7 -66 15 -82 20 -38 45 -135 39 -151 -3 -7 -30
-16 -62 -20 -30 -4 -67 -11 -81 -17 -14 -5 -53 -16 -86 -23 -33 -8 -86 -23
-118 -34 -32 -11 -82 -23 -110 -27 -29 -4 -65 -12 -82 -19 -45 -19 -193 -54
-255 -60 -30 -4 -109 -19 -175 -35 -66 -15 -150 -30 -186 -33 -36 -3 -86 -14
-111 -26 -25 -11 -54 -17 -66 -14 -12 3 -22 1 -22 -5 0 -5 -15 -12 -32 -15
-18 -3 -51 -10 -73 -15 -22 -6 -78 -20 -125 -32 -47 -11 -105 -24 -130 -29
-25 -4 -54 -13 -65 -19 -30 -18 -229 -60 -258 -55 -14 3 -48 -2 -75 -11 -27
-9 -85 -19 -128 -21 -44 -3 -95 -8 -114 -11 -19 -3 -37 -6 -40 -6 -3 0 -21 -6
-40 -13 -19 -7 -55 -18 -80 -25 -96 -27 -116 -33 -150 -46 -38 -14 -147 -29
-275 -39 -44 -4 -100 -8 -125 -10 -25 -2 -89 -7 -144 -11 -78 -5 -103 -11
-118 -26 -19 -19 -18 -50 4 -73 9 -10 228 -9 313 1 54 6 131 14 249 25 54 5
104 13 110 18 6 5 34 12 61 16 28 3 71 15 97 26 26 11 65 21 87 23 22 2 45 7
52 12 20 12 87 23 199 33 149 14 321 47 384 75 29 13 77 26 105 30 29 3 62 11
73 17 12 6 39 13 62 15 55 5 92 13 146 29 25 8 65 17 89 20 24 3 50 10 58 16
7 6 13 9 13 6 0 -4 152 23 245 44 151 34 376 80 405 84 19 2 49 9 65 15 17 6
75 24 130 40 55 16 138 42 185 58 47 16 105 35 130 42 25 8 50 18 57 23 26 19
45 0 74 -73 17 -41 33 -100 36 -130 6 -61 25 -90 59 -90 22 0 49 28 109 111
17 23 49 61 73 86 23 24 42 49 42 56 0 6 20 30 45 53 39 35 45 46 45 81 0 47
-7 54 -79 83 -29 11 -100 43 -157 70 -57 28 -112 50 -123 50 -11 0 -41 20 -67
45 -33 32 -54 45 -75 45 -28 0 -29 -1 -29 -52z"/>
<path d="M5292 7410 c-56 -13 -90 -54 -98 -119 -3 -31 -11 -64 -16 -74 -7 -14
1 -28 41 -69 28 -29 51 -55 51 -60 0 -4 12 -14 28 -22 37 -19 90 -9 190 37 25
12 31 60 9 82 -11 10 -26 9 -88 -11 -67 -21 -75 -22 -89 -8 -13 15 -13 17 0
22 33 12 110 98 116 129 6 28 1 38 -29 68 -36 36 -53 40 -115 25z"/>
<path d="M5662 7347 c-53 -11 -53 -11 -50 -46 l3 -36 94 1 c90 1 95 2 118 28
23 27 23 29 7 47 -19 21 -81 23 -172 6z"/>
<path d="M4806 7269 c-24 -64 -24 -140 -2 -207 20 -60 42 -77 81 -62 22 8 26
15 20 33 -17 57 -25 95 -25 127 l0 35 20 -33 c11 -18 30 -37 43 -42 18 -7 27
-3 48 21 14 16 28 29 31 29 2 0 11 -18 18 -40 16 -49 71 -90 95 -70 17 14 20
66 5 75 -5 3 -23 32 -40 64 -18 32 -44 71 -59 85 -25 24 -31 26 -55 15 -14 -7
-26 -16 -26 -21 0 -16 -25 -7 -49 17 -15 17 -34 25 -55 25 -29 0 -34 -4 -50
-51z"/>
<path d="M4540 7235 c-6 -15 -8 -30 -5 -34 2 -5 -14 -32 -36 -62 -39 -52 -45
-68 -51 -119 -3 -22 -8 -17 -37 35 -43 76 -99 131 -141 137 -42 6 -102 -22
-129 -61 -12 -16 -21 -33 -21 -39 0 -5 -14 -25 -30 -43 -34 -37 -35 -58 -6
-139 8 -25 21 -71 27 -104 9 -43 18 -60 33 -66 18 -6 71 2 83 13 2 3 -8 39
-22 82 -27 83 -32 153 -14 203 11 31 47 62 72 62 26 0 66 -56 97 -135 17 -44
35 -90 40 -101 5 -14 20 -23 39 -26 41 -6 55 11 40 46 -17 36 -7 41 32 17 19
-12 45 -21 59 -20 40 1 84 32 96 69 15 46 27 47 59 6 41 -54 104 -59 105 -8 0
7 -19 34 -43 60 -54 60 -117 156 -117 180 0 24 -36 62 -58 62 -9 0 -27 3 -39
6 -18 5 -25 1 -33 -21z m64 -178 c-9 -44 -35 -87 -52 -87 -22 0 -8 77 19 106
28 30 42 21 33 -19z"/>
<path d="M1336 7048 c-12 -39 -13 -105 -1 -137 23 -66 30 -154 41 -541 8 -281
10 -538 5 -760 -2 -80 2 -230 9 -335 9 -131 10 -269 5 -445 -4 -140 -7 -264
-7 -275 -1 -32 0 -263 2 -349 2 -104 17 -136 68 -137 40 -2 198 -6 537 -14
121 -3 261 -8 311 -11 95 -6 405 20 436 37 9 5 23 7 30 4 7 -3 51 -7 98 -9 47
-3 128 -8 180 -10 66 -4 110 -1 145 8 57 17 136 24 315 31 111 5 174 5 342 1
25 0 49 2 53 6 4 3 -2 38 -12 76 -16 58 -18 82 -10 139 10 77 10 116 2 408 -8
264 -8 275 -29 415 -10 63 -21 189 -26 280 -5 91 -18 211 -29 268 -17 89 -20
161 -25 520 -4 229 -8 460 -10 512 -2 52 -4 117 -5 143 -1 39 -7 54 -28 76
l-28 27 -270 -2 c-148 -1 -309 2 -357 7 -48 4 -136 10 -195 13 -124 6 -139 8
-323 31 -113 15 -217 18 -647 17 -311 -1 -515 3 -518 9 -9 13 -55 11 -59 -3z
m314 -122 c68 5 685 9 770 6 41 -2 89 -8 107 -13 94 -29 443 -51 838 -53 160
0 295 -4 301 -8 16 -11 25 -179 30 -623 4 -332 8 -418 24 -505 22 -123 37
-270 38 -355 0 -33 10 -133 21 -222 12 -90 21 -187 21 -215 -1 -81 7 -325 14
-401 3 -38 0 -116 -8 -175 -8 -59 -13 -118 -12 -132 l1 -25 -195 -3 c-107 -1
-206 -5 -220 -9 -14 -3 -41 -7 -60 -8 -19 -1 -69 -8 -110 -16 -88 -15 -77 -15
-300 -5 -120 5 -205 4 -270 -5 -96 -12 -250 -13 -570 -5 -96 3 -247 7 -335 9
-89 2 -167 7 -174 12 -8 4 -26 8 -40 9 -25 1 -26 3 -26 66 0 36 -3 70 -8 77
-7 11 -9 151 -9 568 1 105 -2 228 -6 275 -3 47 -7 267 -8 490 -1 223 -5 518
-10 655 -4 138 -7 295 -6 350 0 55 -6 135 -13 179 -8 43 -15 80 -15 82 0 6
106 9 145 3 22 -4 60 -5 85 -3z"/>
<path d="M1827 6772 c-29 -32 -21 -66 31 -123 26 -30 50 -55 53 -57 4 -2 48
-30 98 -62 87 -57 90 -61 81 -85 -6 -15 -10 -41 -10 -59 0 -19 -7 -53 -15 -76
-22 -62 -36 -164 -29 -207 7 -44 32 -80 60 -85 17 -3 20 6 26 92 4 52 12 111
18 130 9 29 14 68 19 147 1 7 31 44 69 82 37 38 72 76 77 84 105 151 117 172
108 186 -6 9 -20 18 -33 19 -18 3 -39 -14 -96 -75 -41 -43 -74 -81 -74 -84 0
-9 -28 -19 -53 -19 -70 1 -222 99 -247 160 -20 49 -56 62 -83 32z"/>
<path d="M3244 6334 c-14 -8 -34 -14 -43 -14 -28 0 -101 -170 -101 -237 0 -17
5 -35 10 -38 6 -3 10 -15 10 -26 0 -26 20 -32 55 -19 27 10 28 12 22 70 -8 69
9 125 48 158 21 18 31 20 74 13 28 -4 53 -6 56 -3 13 14 2 51 -22 74 -34 31
-75 40 -109 22z"/>
<path d="M2714 6322 c-6 -4 -18 -20 -26 -37 -19 -37 -10 -190 15 -247 41 -95
138 -64 180 58 8 21 20 39 27 39 7 0 21 -25 31 -55 26 -81 83 -115 113 -68 8
13 6 22 -11 40 -12 13 -36 66 -53 118 -36 105 -72 153 -97 128 -7 -8 -28 -48
-46 -89 -61 -137 -70 -144 -80 -57 -3 34 1 57 13 80 20 38 13 70 -19 87 -23
13 -32 13 -47 3z"/>
<path d="M2439 6315 c-3 -2 -22 -6 -42 -9 -57 -7 -124 -75 -133 -135 -11 -72
-9 -128 5 -145 22 -26 122 -76 153 -76 45 0 136 51 143 80 4 14 18 40 32 59
22 28 25 40 20 82 -3 26 -13 59 -22 73 -29 44 -135 92 -156 71z m85 -120 c26
-39 20 -69 -20 -105 -58 -50 -77 -56 -116 -33 -23 13 -34 28 -36 48 -4 32 15
75 33 75 7 0 18 6 25 14 11 15 35 22 76 25 13 0 28 -9 38 -24z"/>
<path d="M2118 5474 c-29 -15 -30 -19 -88 -234 -17 -63 -51 -165 -76 -227 -25
-61 -44 -119 -42 -129 1 -9 15 -21 30 -26 35 -12 63 15 72 69 4 21 10 44 14
50 4 6 39 16 77 22 39 6 92 15 120 21 27 6 56 8 63 5 7 -2 29 -40 50 -82 29
-61 42 -79 61 -81 13 -2 27 2 32 10 15 24 38 -13 44 -72 4 -30 8 -60 10 -66 2
-6 -3 -44 -10 -85 -11 -65 -11 -76 3 -91 22 -26 69 -23 78 5 13 40 12 120 -1
216 -8 52 -12 97 -10 101 2 3 18 7 35 8 72 6 141 67 151 136 9 54 -17 82 -114
127 -89 41 -145 42 -213 4 -26 -14 -53 -24 -61 -21 -8 3 -25 32 -39 63 -14 32
-34 76 -44 98 -9 22 -30 68 -45 102 -34 77 -59 97 -97 77z m88 -241 c21 -53
40 -100 42 -104 3 -6 -106 -29 -141 -29 -10 0 -17 8 -17 20 0 22 23 114 38
150 6 14 13 33 16 43 10 33 23 16 62 -80z m394 -157 c36 -15 48 -76 15 -76 -6
0 -27 -7 -45 -16 -31 -16 -34 -16 -47 1 -13 18 -18 96 -7 107 5 6 55 -4 84
-16z m-186 -46 c18 -7 26 -17 26 -34 0 -38 -21 -43 -47 -10 -38 48 -30 64 21
44z"/>
<path d="M2832 5087 c-13 -6 -33 -28 -44 -50 -20 -39 -20 -40 0 -59 19 -19 21
-19 45 -3 l26 17 -6 -54 c-3 -29 -7 -55 -9 -56 -1 -2 -18 4 -38 13 -38 18 -56
14 -56 -14 0 -28 35 -65 79 -86 30 -13 41 -24 41 -40 0 -11 5 -26 10 -31 16
-16 18 -230 3 -245 -18 -18 -16 -49 7 -86 26 -43 44 -42 65 4 15 32 17 55 11
167 -3 72 -11 148 -17 169 -10 36 -7 51 9 53 7 1 17 4 72 25 14 6 37 26 53 46
32 43 36 95 8 136 -23 36 -80 83 -116 97 -34 13 -114 12 -143 -3z m156 -102
c41 -25 50 -52 26 -75 -23 -22 -71 -34 -79 -20 -9 14 -24 113 -19 122 5 8 26
0 72 -27z"/>
<path d="M5970 5960 c-50 -9 -129 -52 -175 -96 -39 -36 -42 -38 -105 -35 -45
1 -83 -4 -125 -19 -50 -17 -68 -19 -110 -11 -83 17 -108 16 -150 -6 -48 -25
-74 -48 -100 -88 -38 -57 -55 -105 -48 -135 5 -29 4 -30 -29 -30 -25 0 -44 -9
-74 -38 -23 -21 -46 -48 -53 -60 -10 -20 -19 -22 -80 -20 -50 2 -75 -2 -95
-15 -50 -33 -129 -207 -105 -231 17 -19 9 -42 -37 -104 -45 -61 -46 -64 -42
-125 5 -82 40 -138 106 -169 40 -20 46 -27 44 -48 -15 -103 10 -163 84 -202
49 -27 52 -30 58 -78 9 -71 38 -131 82 -173 40 -38 101 -62 133 -52 13 4 26
-5 45 -30 36 -46 84 -70 176 -86 75 -12 76 -12 125 15 l48 28 29 -31 c30 -32
63 -39 96 -22 9 6 34 13 55 16 21 3 41 13 44 21 3 7 15 14 28 14 21 0 22 -3
18 -47 -2 -27 -9 -59 -13 -73 -5 -14 -8 -34 -7 -44 2 -17 -4 -20 -41 -19 -34
1 -48 -4 -71 -28 -29 -28 -30 -28 -66 -13 -20 8 -53 14 -73 12 -31 -3 -41 -10
-75 -60 -35 -51 -44 -58 -73 -58 -38 0 -77 -30 -118 -89 -24 -35 -28 -48 -24
-89 3 -27 15 -64 30 -87 14 -22 26 -54 26 -72 0 -17 8 -45 17 -62 14 -29 19
-31 73 -32 31 -1 62 -1 67 0 6 0 35 -22 64 -49 59 -55 90 -68 126 -52 13 6 26
8 29 5 28 -28 -31 -207 -103 -314 -47 -70 -67 -90 -126 -126 -38 -24 -75 -54
-82 -67 -20 -39 -49 -39 -75 0 -43 64 -155 86 -223 44 -33 -21 -85 -87 -85
-109 0 -7 -19 4 -42 23 -39 34 -45 36 -92 30 -60 -7 -96 -38 -142 -123 -21
-39 -37 -57 -56 -62 -40 -11 -115 -76 -127 -111 -6 -17 -11 -50 -11 -74 0 -24
-5 -46 -11 -50 -6 -3 -42 -8 -80 -10 -44 -3 -84 -12 -107 -24 -20 -11 -42 -20
-49 -20 -6 0 -26 -14 -43 -31 -25 -26 -30 -37 -25 -60 4 -16 18 -39 32 -51 14
-13 34 -31 45 -41 31 -29 109 -67 137 -67 14 0 74 7 134 16 104 15 109 15 129
-3 16 -15 38 -18 117 -19 l97 0 44 -45 c56 -55 160 -114 219 -123 29 -4 60 -2
90 8 76 25 93 25 138 0 57 -33 193 -35 254 -3 l41 20 39 -25 c92 -61 292 -62
359 -1 16 15 26 15 92 4 41 -7 87 -9 103 -5 15 4 54 34 86 67 l59 59 16 -24
c8 -14 31 -37 50 -51 71 -55 207 -24 246 55 l18 35 75 1 c55 0 79 5 93 17 24
22 65 21 132 -2 85 -30 155 -26 212 10 47 31 83 85 72 112 -9 23 -35 29 -48
11 -10 -14 -17 -12 -61 18 -42 28 -50 38 -51 65 -1 37 -58 125 -111 174 -19
17 -59 38 -88 46 -50 14 -57 14 -91 -2 -31 -14 -40 -15 -67 -4 -18 8 -39 14
-47 14 -8 0 -23 18 -33 40 -42 90 -123 141 -202 129 -25 -3 -56 -15 -68 -25
-24 -18 -24 -18 -61 26 -47 57 -115 89 -173 80 -45 -7 -103 16 -134 51 -62 74
-109 224 -109 351 l0 83 34 0 c40 0 95 17 118 38 12 10 28 13 48 9 28 -6 125
13 151 29 6 3 18 22 26 41 13 32 17 35 46 30 18 -2 44 2 60 10 41 21 80 90 81
143 1 80 -72 194 -120 188 -29 -4 -77 55 -94 117 -16 56 -87 125 -130 125 -15
0 -41 3 -57 6 -24 5 -35 1 -52 -17 -33 -36 -40 -13 -36 118 4 120 9 140 29
124 17 -14 101 -26 172 -24 46 1 75 9 123 33 34 17 70 41 81 52 l18 20 59 -35
c87 -52 117 -53 190 -7 50 31 64 46 78 84 17 44 19 46 59 47 22 0 55 6 72 12
40 15 127 94 147 133 13 25 26 33 71 44 73 17 102 47 99 104 -1 23 -11 60 -23
81 -68 120 -72 134 -61 166 18 51 -17 133 -79 190 -48 44 -51 49 -45 83 6 29
1 46 -25 93 -18 32 -47 72 -65 88 -22 21 -38 49 -49 90 -10 33 -26 79 -38 102
-20 43 -102 123 -126 123 -30 0 -72 33 -105 82 -47 72 -107 123 -197 171 -50
27 -180 20 -213 -11 -29 -27 -43 -28 -57 -2 -13 25 -39 38 -114 59 -37 11 -75
15 -96 11z m157 -121 c18 -10 20 -16 12 -36 -11 -30 -11 -64 0 -82 14 -21 54
-6 73 28 14 26 65 58 105 66 6 2 19 7 28 12 20 11 143 -21 160 -42 6 -6 24
-19 41 -28 32 -17 64 -56 64 -80 0 -7 -15 -19 -34 -25 -44 -16 -59 -35 -58
-73 2 -60 43 -77 81 -33 17 19 29 24 49 20 15 -3 46 -8 69 -11 30 -5 50 -15
68 -37 22 -26 25 -36 19 -77 -7 -54 13 -106 45 -116 23 -7 74 -63 96 -105 14
-28 14 -31 -1 -37 -10 -4 -33 3 -54 15 -41 23 -62 16 -74 -25 -9 -30 46 -93
83 -93 48 0 146 -54 171 -95 23 -36 23 -38 5 -69 -10 -17 -24 -36 -32 -43 -9
-7 -13 -24 -11 -45 3 -30 6 -33 41 -38 35 -5 42 -10 68 -60 39 -73 39 -100 -1
-100 -22 0 -38 10 -67 46 -40 48 -125 114 -146 114 -6 0 -22 -8 -35 -18 -20
-15 -22 -22 -13 -44 5 -14 20 -30 33 -34 124 -39 142 -149 38 -227 -72 -54
-94 -50 -125 18 -17 39 -32 58 -51 65 -15 6 -29 8 -32 5 -15 -15 -11 -64 9
-106 22 -47 22 -48 3 -93 -45 -108 -194 -94 -254 25 -36 70 -95 41 -76 -37 5
-20 0 -31 -29 -57 -58 -51 -157 -68 -215 -37 -33 18 -33 136 0 175 18 22 67
19 87 -5 23 -27 37 -25 53 6 14 25 87 66 142 79 36 9 68 42 96 99 13 25 28 48
33 52 12 7 1 93 -13 112 -6 6 -21 12 -34 12 -13 0 -32 9 -41 20 -10 11 -26 20
-36 20 -9 0 -44 9 -77 20 -58 20 -102 19 -143 -2 -14 -7 -24 -5 -40 11 -49 45
-102 59 -208 54 -91 -3 -102 -2 -151 23 -46 23 -60 26 -116 21 -66 -7 -125
-39 -159 -86 -11 -17 -25 -21 -70 -21 -78 0 -198 -58 -221 -106 -12 -27 -13
-39 -4 -59 16 -34 40 -42 57 -19 13 18 14 17 20 -11 20 -92 62 -135 134 -135
17 0 50 -9 74 -19 23 -11 67 -24 97 -31 73 -15 90 -28 124 -93 28 -55 28 -56
10 -87 -25 -41 -80 -78 -131 -86 -40 -6 -44 -5 -60 25 -10 17 -22 31 -28 31
-19 0 -86 -27 -97 -38 -24 -24 -170 -4 -201 27 -17 17 -18 23 -6 55 15 41 4
89 -22 94 -9 2 -32 -13 -52 -33 -50 -50 -86 -48 -143 9 -40 40 -44 48 -44 94
0 41 4 54 22 66 12 9 30 16 39 16 9 0 28 9 43 21 47 37 28 100 -30 97 -10 0
-31 2 -46 6 -26 8 -59 -13 -70 -44 -2 -7 -19 -14 -37 -15 -37 -2 -71 32 -71
73 0 31 43 108 81 144 34 32 35 38 10 69 l-19 24 -33 -19 c-22 -13 -53 -20
-93 -20 -59 -1 -61 0 -78 32 -15 31 -15 38 -2 75 17 49 90 127 118 127 25 0
66 38 66 62 0 23 -48 44 -64 28 -5 -5 -16 -10 -24 -10 -21 0 -9 62 19 101 37
53 99 61 99 13 0 -32 42 -79 63 -71 12 5 17 19 17 49 0 27 8 52 20 68 11 14
20 30 20 35 0 6 23 25 51 44 49 34 50 34 87 17 38 -16 60 -20 100 -18 19 2 22
6 16 24 -4 13 -19 34 -35 49 -51 47 -51 104 1 163 36 41 88 67 118 59 20 -5
22 -11 20 -62 -2 -66 4 -81 37 -81 20 0 26 7 35 39 6 24 21 47 38 59 103 71
180 84 245 40 22 -16 45 -24 57 -21 26 7 53 -24 89 -102 33 -72 43 -127 32
-177 -11 -49 5 -76 37 -59 27 15 40 39 46 87 6 48 -5 94 -51 204 -44 104 -62
126 -91 111 -33 -18 -52 -13 -52 12 1 30 64 77 105 77 17 0 40 6 50 14 15 11
26 11 64 0 25 -8 56 -19 68 -25z m-356 -1059 c15 0 32 -7 39 -15 7 -8 27 -15
45 -15 18 0 37 -6 43 -12 34 -42 46 -220 17 -261 -9 -12 -20 -40 -26 -61 -13
-46 -29 -33 -29 24 0 45 -49 186 -75 214 -33 36 -85 103 -85 110 0 16 26 34
35 25 5 -5 21 -9 36 -9z m247 -57 c-2 -10 -10 -18 -18 -18 -8 0 -16 8 -18 18
-2 12 3 17 18 17 15 0 20 -5 18 -17z m171 7 c10 -5 21 -16 25 -25 6 -16 -46
-132 -83 -183 -12 -17 -21 -33 -21 -37 0 -4 -8 -19 -18 -33 -10 -15 -24 -47
-31 -72 -7 -25 -24 -65 -36 -90 -13 -25 -29 -64 -35 -87 -23 -89 -56 -48 -45
56 9 92 14 108 34 114 13 3 21 22 30 68 23 120 65 264 82 285 13 16 72 19 98
4z m241 -56 c5 -13 7 -31 3 -40 -6 -16 -131 -80 -140 -71 -2 3 -2 15 2 27 9
27 106 120 118 113 4 -3 12 -16 17 -29z m-916 9 c13 -48 17 -83 8 -83 -13 0
-45 76 -38 89 10 16 24 13 30 -6z m154 -39 c20 -14 72 -85 72 -99 0 -7 -50 -6
-75 1 -32 9 -53 45 -47 82 5 36 17 40 50 16z m323 -669 c1 -102 14 -257 24
-297 7 -28 7 -28 -45 -28 -46 0 -51 2 -45 18 10 23 34 242 35 317 1 140 29
131 31 -10z m-110 -120 c-19 -130 -21 -154 -11 -160 16 -10 12 -25 -7 -25 -40
0 -46 14 -34 76 7 33 18 75 26 94 7 19 17 58 21 85 6 36 9 43 12 25 2 -14 -1
-56 -7 -95z m-101 5 c0 -11 -7 -38 -16 -60 -14 -34 -20 -40 -46 -40 -18 0 -37
-8 -44 -17 -13 -17 -15 -17 -29 2 -13 17 -18 18 -36 7 -18 -11 -25 -10 -55 13
-41 31 -40 43 5 69 32 19 33 18 61 -3 41 -29 63 -26 103 14 40 40 57 44 57 15z
m454 -29 c16 -18 16 -20 -6 -35 -12 -9 -28 -16 -34 -16 -7 0 -24 -13 -37 -30
-46 -54 -58 -37 -31 43 13 40 20 46 47 50 18 2 35 5 38 5 3 1 14 -7 23 -17z
m-760 -120 c16 -17 40 -31 55 -33 23 -3 26 -9 36 -65 13 -80 56 -133 107 -133
42 0 109 23 118 41 4 8 4 24 -1 37 -8 22 -29 27 -86 22 -33 -2 -66 36 -58 68
11 45 22 47 57 12 18 -18 52 -41 74 -51 38 -17 42 -22 48 -67 3 -27 14 -56 24
-64 53 -47 146 -63 190 -32 26 18 30 69 7 94 -14 16 -12 20 26 51 23 19 49 41
57 49 9 8 26 16 39 17 13 1 39 11 57 23 35 21 57 19 89 -8 24 -21 23 -52 -3
-45 -11 3 -20 1 -20 -5 0 -18 -79 -52 -120 -52 -49 0 -76 -32 -61 -72 17 -45
32 -49 90 -28 l52 20 24 -26 c39 -42 42 -64 11 -91 -42 -36 -96 -26 -96 17 0
25 -35 52 -62 48 -19 -2 -24 -11 -30 -51 -8 -57 -22 -77 -53 -77 -24 0 -35 17
-35 52 0 18 -5 20 -40 15 -22 -3 -54 -17 -71 -31 -21 -18 -42 -26 -68 -26 -43
0 -61 14 -61 48 0 44 -17 62 -60 62 -39 0 -42 -3 -76 -58 -1 -1 -13 3 -27 9
-26 12 -32 24 -57 121 -12 46 -42 85 -85 114 -16 10 -29 10 -63 1 -36 -9 -45
-9 -59 5 -29 30 14 101 67 111 14 2 28 5 31 6 3 0 18 -12 33 -28z m975 -115
c6 -7 14 -33 17 -57 8 -58 -18 -84 -78 -80 -27 2 -58 70 -46 101 12 32 11 32
43 20 23 -9 28 -8 32 10 6 23 16 25 32 6z m-481 -41 c12 -3 22 -10 22 -15 0
-16 -49 -23 -65 -10 -21 17 -19 43 3 36 9 -2 27 -7 40 -11z m-498 -51 c24 -5
24 -6 6 -20 -25 -18 -62 -18 -69 0 -3 8 -4 16 -1 18 6 7 36 7 64 2z m440 -339
c0 -93 49 -316 84 -384 16 -29 78 -95 121 -127 32 -24 26 -50 -9 -39 -11 3
-50 8 -86 10 -105 5 -323 25 -328 29 -2 2 14 34 36 71 22 36 46 88 52 115 14
57 26 64 34 20 3 -16 8 -42 11 -58 8 -38 75 -125 106 -136 37 -13 79 0 79 23
0 11 -23 39 -50 63 -42 37 -53 54 -67 103 -9 35 -15 88 -14 127 2 54 -2 75
-24 117 -17 35 -31 51 -45 51 -26 0 -37 -24 -46 -100 -3 -36 -10 -69 -14 -75
-4 -5 -13 -28 -20 -50 -7 -22 -18 -49 -25 -60 -6 -11 -15 -32 -18 -47 -4 -14
-33 -52 -64 -83 l-58 -56 -32 38 -33 38 36 29 c47 38 141 184 169 261 12 33
27 73 34 88 6 16 11 37 11 47 0 41 8 45 85 45 l75 0 0 -60z m-714 -410 c10 -8
27 -15 36 -15 14 0 18 -12 20 -61 4 -82 25 -98 67 -51 39 42 70 53 113 42 26
-8 39 -21 64 -67 41 -75 54 -83 86 -50 24 24 30 25 58 15 30 -10 32 -13 26
-52 -7 -48 0 -60 36 -64 19 -2 32 5 47 26 22 31 63 45 121 43 57 -3 69 -10 91
-54 30 -59 48 -77 79 -77 50 0 55 58 9 101 -18 16 -29 32 -26 35 3 4 26 8 52
9 38 3 47 0 57 -18 25 -48 63 -50 83 -5 12 29 17 32 47 30 45 -4 66 18 50 53
-9 20 -9 25 1 25 29 0 54 -45 60 -104 3 -32 10 -63 15 -68 6 -6 25 -5 51 3 35
10 41 16 41 39 0 35 14 46 68 54 35 5 49 2 73 -14 35 -26 37 -40 6 -40 -58 0
-64 -58 -10 -95 21 -14 48 -44 60 -67 23 -42 23 -43 3 -62 -13 -13 -35 -21
-64 -22 -25 -1 -52 -9 -60 -17 -9 -8 -21 -17 -28 -19 -10 -4 -9 -13 4 -42 21
-44 40 -53 76 -37 23 11 29 10 44 -9 23 -28 23 -82 1 -102 -47 -41 -134 -27
-162 25 -8 14 -27 31 -43 38 -25 10 -31 9 -49 -10 -11 -11 -26 -21 -33 -21 -8
0 -32 -19 -55 -41 -34 -35 -47 -41 -80 -41 -79 1 -153 50 -186 123 -12 26 -25
39 -37 39 -28 0 -58 -18 -58 -36 0 -21 45 -108 64 -123 29 -24 18 -38 -36 -45
-143 -17 -188 -5 -263 72 -27 28 -56 52 -64 52 -8 0 -25 -10 -37 -21 -17 -16
-22 -29 -17 -49 l5 -27 -74 -2 c-96 -2 -136 21 -152 89 -12 49 -36 62 -75 40
-16 -8 -21 -21 -21 -55 0 -40 -3 -45 -26 -51 -24 -6 -87 -2 -159 11 -46 9
-104 72 -105 116 0 19 -6 44 -14 54 -11 16 -18 17 -42 8 -16 -6 -62 -17 -103
-24 -82 -14 -104 -8 -109 32 -2 14 -17 33 -38 47 -29 19 -33 26 -24 42 5 10
10 33 10 50 0 25 -7 35 -36 52 -28 16 -34 26 -30 42 3 12 6 29 6 38 0 18 57
48 91 48 27 0 68 -48 94 -110 13 -30 29 -56 37 -58 7 -1 23 15 35 37 l22 39
-25 49 c-14 26 -39 62 -55 78 -17 18 -29 42 -29 57 0 54 76 111 119 88 12 -6
21 -14 21 -18 0 -4 20 -29 45 -56 42 -46 46 -49 70 -38 25 12 26 15 20 65 -7
51 -6 54 35 100 44 50 71 58 106 32z m1597 -383 c54 -36 94 -92 102 -141 13
-92 13 -94 -26 -115 -34 -18 -37 -19 -82 -1 -55 21 -62 41 -28 78 21 23 26 38
25 81 0 33 -7 64 -17 79 -28 43 -20 49 26 19z m242 -29 c35 -39 33 -57 -6 -49
-17 3 -38 6 -45 6 -17 0 -48 46 -39 60 13 20 64 11 90 -17z m-2481 -100 c8
-20 -7 -30 -56 -38 -44 -8 -68 -28 -68 -56 0 -10 -5 -19 -11 -19 -28 0 -99 54
-99 75 0 6 33 17 74 24 40 7 80 17 87 22 24 15 66 10 73 -8z m2570 -71 c69
-41 59 -78 -18 -63 -60 11 -81 30 -72 66 6 23 10 26 34 20 15 -3 40 -14 56
-23z"/>
<path d="M6296 5560 c-29 -6 -50 -20 -82 -56 -51 -58 -57 -98 -20 -133 35 -33
60 -24 64 21 4 48 53 88 109 88 63 0 107 59 55 74 -40 11 -90 13 -126 6z"/>
<path d="M5516 5393 c-15 -15 -4 -72 19 -103 14 -19 25 -38 25 -44 0 -25 77
-126 108 -140 55 -27 65 -8 32 59 -11 22 -19 47 -20 55 0 26 29 60 68 78 45
21 50 41 20 77 -33 37 -69 27 -105 -31 -16 -24 -30 -44 -33 -43 -3 0 -18 19
-35 41 -29 39 -66 63 -79 51z"/>
<path d="M5319 5335 c-20 -19 -42 -54 -48 -78 -23 -74 -29 -86 -60 -101 -19
-10 -40 -38 -62 -80 -29 -57 -32 -69 -23 -103 11 -47 53 -75 79 -53 13 11 15
23 10 58 -10 67 9 88 81 91 32 1 60 2 63 3 42 4 114 -54 131 -107 16 -48 71
-58 85 -15 9 27 -15 66 -87 141 -53 56 -70 68 -105 74 -39 6 -43 9 -43 35 0
33 15 50 71 82 35 19 40 26 37 53 -3 28 -6 30 -48 33 -41 3 -50 -1 -81 -33z"/>
<path d="M6401 5333 c-56 -29 -101 -82 -101 -120 0 -13 12 -30 30 -43 l30 -21
20 33 c11 18 20 37 20 41 0 10 82 47 91 41 11 -6 99 -8 105 -1 16 16 -22 67
-61 81 -56 22 -73 20 -134 -11z"/>
<path d="M6013 5192 c-25 -14 -30 -22 -26 -42 2 -14 -5 -49 -16 -78 -26 -66
-26 -87 0 -123 33 -47 79 -33 79 23 0 16 6 30 13 32 90 25 161 37 183 32 33
-9 64 1 64 20 0 8 -15 28 -32 45 -30 26 -39 29 -105 29 -63 0 -73 2 -73 18 0
23 -28 62 -43 61 -7 0 -26 -8 -44 -17z"/>
<path d="M6625 5112 c-6 -4 -18 -19 -28 -34 -12 -20 -28 -28 -63 -34 -82 -12
-143 -91 -102 -132 17 -17 58 -15 58 2 0 15 37 46 55 46 5 0 16 -4 24 -9 12
-7 10 -14 -8 -36 -25 -32 -27 -58 -6 -75 19 -16 40 -3 116 74 52 51 60 56 101
56 86 0 89 46 7 87 -53 27 -65 28 -74 6 -6 -15 -11 -13 -38 19 -18 21 -37 34
-42 30z"/>
<path d="M5053 2477 c-34 -23 -112 -158 -115 -200 -2 -29 31 -79 50 -75 9 2
25 31 38 70 27 80 60 128 89 128 44 0 126 -116 96 -134 -26 -16 2 -86 34 -86
11 0 45 41 45 54 1 22 46 62 86 75 37 12 44 11 83 -8 23 -12 51 -31 62 -42 48
-48 119 -74 134 -49 12 19 -16 80 -43 97 -15 9 -50 32 -78 50 -28 19 -76 41
-107 49 -55 14 -57 14 -97 -11 -22 -14 -43 -25 -48 -25 -4 0 -25 21 -46 46
-70 84 -123 102 -183 61z"/>
<path d="M5870 2352 c-72 -10 -98 -23 -124 -63 -54 -81 -8 -119 75 -63 42 28
54 31 132 33 49 0 88 -3 92 -9 3 -5 17 -10 31 -10 19 0 24 5 24 26 0 29 -49
83 -77 85 -62 4 -131 4 -153 1z"/>
<path d="M6433 2281 c-10 -10 -28 -30 -40 -44 -28 -30 -87 -40 -125 -21 -59
30 -88 10 -72 -48 8 -25 17 -33 54 -44 95 -29 138 -16 213 65 53 56 57 73 25
95 -29 20 -34 20 -55 -3z"/>
<path d="M9832 4318 c-17 -17 -15 -49 4 -76 19 -28 35 -172 38 -341 2 -109 4
-125 21 -138 11 -7 29 -12 40 -11 17 3 21 13 26 63 5 56 31 115 49 115 14 0
46 -46 84 -124 20 -41 44 -77 52 -80 20 -8 54 11 54 29 0 20 29 19 36 0 9 -21
81 -62 126 -70 75 -14 162 40 156 98 -4 40 -37 48 -67 18 -27 -27 -67 -36 -98
-22 -37 17 -24 32 46 50 70 18 87 38 75 89 -13 54 -102 120 -143 107 -15 -5
-62 -54 -124 -129 l-24 -30 -52 70 c-60 82 -85 99 -135 90 -45 -9 -50 3 -60
128 -8 100 -24 149 -54 165 -26 14 -35 14 -50 -1z m537 -392 c9 -10 6 -17 -13
-30 -43 -28 -58 -17 -36 25 12 22 33 25 49 5z"/>
<path d="M8975 4293 c-16 -2 -44 -11 -62 -19 -17 -7 -37 -14 -45 -14 -27 0
-147 -112 -196 -184 -90 -131 -88 -197 7 -281 47 -41 99 -62 179 -73 110 -16
233 18 240 65 4 31 -35 39 -103 23 -67 -16 -125 -7 -201 30 -76 37 -94 52 -99
83 -8 40 64 137 153 207 l77 61 67 -5 c55 -4 69 -2 82 13 9 10 16 21 16 26 0
18 -52 75 -68 74 -9 -1 -30 -4 -47 -6z"/>
<path d="M4021 4222 c-36 -67 17 -108 152 -117 95 -6 217 -24 239 -36 9 -5 34
-9 55 -9 21 0 49 -7 61 -16 15 -10 35 -14 55 -11 18 2 57 -4 87 -13 30 -10 73
-21 95 -25 22 -4 45 -10 50 -15 6 -4 32 -11 60 -15 27 -4 62 -13 77 -21 15 -8
43 -14 63 -14 20 0 55 -9 77 -20 23 -11 68 -22 101 -25 32 -3 75 -12 94 -20
69 -29 103 -14 89 39 -4 17 -24 31 -78 55 -82 35 -192 71 -217 71 -9 0 -21 4
-26 9 -13 11 -83 34 -115 36 -60 5 -127 19 -153 32 -25 13 -84 28 -151 38 -15
3 -57 14 -93 25 -36 11 -69 18 -73 15 -5 -3 -21 1 -37 9 -35 18 -145 34 -290
42 -105 5 -112 5 -122 -14z"/>
<path d="M9316 4031 c-3 -5 -25 -18 -48 -29 -24 -11 -67 -45 -95 -75 -67 -71
-71 -108 -18 -162 31 -30 42 -35 84 -35 43 0 52 4 80 35 17 19 38 49 46 66
l16 30 42 -45 c23 -25 52 -48 65 -51 20 -6 22 -3 22 30 0 27 -9 48 -35 80 -20
23 -43 64 -52 91 -9 27 -20 55 -26 62 -11 14 -73 17 -81 3z m-26 -166 c0 -30
-45 -54 -64 -35 -8 8 -3 18 19 36 38 30 45 30 45 -1z"/>
<path d="M9685 4012 c-38 -13 -107 -66 -116 -90 -24 -62 -1 -107 80 -160 52
-35 174 1 188 56 8 34 -29 67 -58 52 -10 -6 -19 -15 -19 -19 0 -15 -68 -10
-81 5 -9 11 -7 20 6 40 15 23 22 26 55 21 44 -6 60 6 60 44 0 49 -9 59 -54 58
-22 -1 -50 -4 -61 -7z"/>
<path d="M8437 3286 c-21 -31 -21 -68 -2 -121 19 -52 19 -141 0 -238 -8 -43
-15 -115 -15 -160 0 -45 -5 -102 -11 -127 -6 -25 -14 -76 -19 -115 -4 -38 -15
-113 -24 -165 -8 -52 -23 -167 -31 -255 -9 -88 -20 -200 -25 -250 -5 -49 -12
-182 -14 -295 -3 -113 -12 -250 -20 -305 -18 -121 -16 -235 3 -258 15 -18 51
-23 51 -7 0 14 33 13 47 -1 7 -7 19 -8 30 -4 27 12 29 12 143 -9 58 -10 155
-22 215 -26 61 -4 128 -12 149 -19 28 -9 62 -11 115 -5 94 10 197 7 233 -7 15
-6 49 -9 75 -6 247 24 301 28 327 23 83 -16 133 -19 276 -15 197 5 675 5 805
-1 55 -2 106 -1 112 3 23 14 34 82 22 130 -8 33 -8 59 1 103 7 32 14 136 16
229 2 94 9 195 14 225 5 30 10 143 9 250 0 107 3 242 6 300 4 67 2 136 -6 190
-9 57 -12 179 -11 371 2 230 0 297 -13 344 -8 33 -15 73 -15 90 0 16 -4 36 -9
44 -14 22 -90 29 -136 13 -50 -19 -335 -21 -378 -3 -16 6 -84 11 -160 11 -176
0 -401 16 -484 35 -38 8 -79 14 -93 14 -14 0 -50 4 -80 10 -30 5 -127 8 -215
6 -88 -1 -241 3 -340 10 -99 7 -184 10 -189 7 -12 -7 -292 -3 -322 4 -15 4
-26 -2 -37 -20z m508 -103 c105 -14 209 -16 415 -8 62 2 133 -3 205 -15 61
-10 160 -23 220 -29 61 -7 148 -16 195 -20 47 -5 144 -10 215 -11 72 0 162 -4
200 -7 75 -6 152 -7 280 -3 47 1 91 -3 106 -10 43 -20 51 -90 56 -470 9 -672
7 -940 -7 -1022 -10 -59 -22 -201 -38 -453 -7 -106 -8 -109 -32 -115 -14 -4
-40 -3 -59 1 -27 6 -464 15 -556 11 -59 -2 -213 -13 -235 -16 -14 -3 -65 0
-115 5 -103 12 -263 12 -381 1 -44 -4 -96 -4 -115 1 -19 5 -131 12 -249 17
-256 10 -412 25 -537 51 -57 13 -105 18 -127 13 -37 -6 -40 -3 -37 36 0 8 8
101 18 205 9 105 18 242 20 305 4 161 22 407 32 450 5 19 15 85 21 145 6 61
15 124 20 140 5 17 11 65 14 107 4 43 11 99 17 125 6 26 13 107 15 178 2 72 9
143 16 159 6 15 12 77 12 137 1 100 3 109 21 112 41 7 283 -5 390 -20z"/>
<path d="M9442 2996 c-27 -15 -51 -39 -64 -63 -11 -21 -25 -42 -31 -48 -36
-31 -67 -86 -67 -121 0 -60 57 -134 103 -134 24 0 87 59 87 82 0 33 19 28 64
-18 48 -48 64 -51 82 -15 l11 22 17 -26 c14 -21 24 -26 49 -23 l32 3 -3 115
c-3 99 -2 113 10 100 8 -8 22 -41 32 -72 15 -45 25 -59 47 -69 36 -14 53 -2
70 49 6 20 14 41 17 46 8 14 22 -17 22 -51 0 -69 41 -133 84 -133 24 0 23 30
-1 108 -13 40 -23 90 -23 110 0 46 -24 82 -54 82 -25 0 -76 -44 -76 -65 0 -7
-6 -17 -13 -23 -10 -9 -19 3 -41 53 -32 74 -62 100 -93 82 -11 -7 -36 -21 -54
-31 -63 -35 -72 -64 -39 -118 13 -21 20 -51 20 -83 l0 -50 -40 45 c-21 25 -42
54 -46 65 -3 11 -13 28 -22 38 -14 16 -14 22 -1 65 18 56 11 96 -16 99 -11 1
-39 -8 -63 -21z m-42 -256 c-6 -11 -15 -18 -21 -15 -14 9 -11 38 9 65 l17 25
3 -27 c2 -15 -2 -36 -8 -48z"/>
<path d="M9033 2995 c-18 -12 -27 -13 -48 -3 -21 9 -29 9 -41 -4 -18 -18 -18
-21 -8 -173 7 -118 16 -144 49 -145 31 0 38 20 41 110 4 129 38 176 82 113 24
-35 46 -152 38 -203 -7 -47 13 -64 60 -51 23 6 29 13 27 32 -4 56 -36 167 -67
234 -45 97 -85 124 -133 90z"/>
<path d="M10123 2980 c-40 -16 -54 -52 -59 -153 l-4 -94 43 -40 c68 -63 87
-72 138 -69 47 3 110 28 130 52 9 11 8 20 -6 40 -18 28 -13 27 -120 9 -31 -5
-44 -3 -53 8 -11 12 -7 18 22 37 49 30 76 67 76 104 -1 83 -88 138 -167 106z
m65 -102 c15 -15 -3 -38 -29 -38 -14 0 -19 7 -19 25 0 27 26 35 48 13z"/>
<path d="M9570 2368 c-36 -5 -80 -6 -99 -4 -38 6 -60 -13 -61 -51 0 -37 26
-53 83 -52 29 1 63 4 77 8 14 4 44 4 67 -1 54 -9 71 -3 80 30 5 21 0 31 -26
52 -35 30 -31 29 -121 18z"/>
<path d="M9481 2116 c-7 -9 -20 -16 -27 -16 -24 0 -16 -48 11 -66 20 -13 34
-14 79 -7 29 5 73 7 97 5 118 -13 143 -1 123 55 -7 21 -17 29 -39 30 -194 15
-231 15 -244 -1z"/>
<path d="M9974 1815 c-8 -19 -4 -38 35 -190 27 -102 31 -135 29 -221 -3 -112
3 -128 65 -159 41 -21 79 -19 149 7 49 17 61 27 74 56 30 72 12 125 -57 171
-43 28 -57 32 -102 30 l-52 -3 -13 54 c-62 259 -66 270 -99 270 -13 0 -26 -7
-29 -15z m257 -416 c20 -37 11 -58 -31 -70 -31 -9 -43 -9 -55 1 -18 15 -20 61
-3 78 17 17 77 12 89 -9z"/>
<path d="M8893 1790 c-30 -12 -30 -46 2 -106 20 -37 25 -62 25 -116 0 -38 4
-78 10 -88 6 -12 6 -44 0 -92 l-9 -73 32 -33 c30 -32 35 -33 87 -30 68 5 118
28 170 79 34 34 40 45 40 82 0 96 -100 187 -189 172 -48 -8 -67 12 -76 80 -9
63 -40 135 -57 134 -7 0 -23 -4 -35 -9z m244 -322 c24 -28 33 -51 25 -64 -16
-23 -83 -55 -118 -57 -34 -2 -39 1 -36 18 2 11 6 38 9 60 7 60 8 62 55 63 35
2 49 -3 65 -20z"/>
<path d="M9438 1542 c-90 -74 -148 -153 -148 -202 0 -35 30 -81 62 -94 60 -26
125 2 168 71 10 17 12 16 28 -7 40 -59 77 -88 105 -83 17 3 29 13 33 28 5 21
7 20 40 -13 50 -50 63 -33 70 87 6 117 23 148 69 124 26 -14 30 -14 42 3 18
25 16 64 -4 80 -51 38 -146 -1 -173 -71 -8 -22 -23 -52 -33 -66 -13 -20 -16
-36 -11 -69 l7 -42 -23 18 c-62 50 -110 144 -110 215 0 28 -6 40 -25 53 -13 9
-28 16 -32 15 -4 0 -34 -21 -65 -47z m42 -116 c0 -26 -9 -44 -35 -71 -36 -39
-58 -42 -63 -9 -2 19 71 114 89 114 5 0 9 -15 9 -34z"/>
</g>
</svg>
