<?xml version="1.0" standalone="no"?>
<!DOCTYPE svg PUBLIC "-//W3C//DTD SVG 20010904//EN"
 "http://www.w3.org/TR/2001/REC-SVG-20010904/DTD/svg10.dtd">
<svg version="1.0" xmlns="http://www.w3.org/2000/svg"
 width="852.778242pt" height="400.000000pt" viewBox="0 0 852.778242 400.000000"
 preserveAspectRatio="xMidYMid meet">
<metadata>
Created by potrace 1.15, written by Peter Selinger 2001-2017
</metadata>
<g transform="translate(-35.488821,429.070677) scale(0.047044,-0.047044)"
fill="#444444" stroke="none">
<path d="M9437 9114 c-2 -2 -45 -6 -97 -9 -52 -3 -117 -10 -145 -15 -84 -16
-347 -35 -475 -34 -211 1 -372 8 -502 20 -145 14 -782 13 -903 -1 -94 -11
-260 -33 -290 -39 -11 -2 -90 -7 -175 -10 -378 -15 -429 -18 -500 -33 -41 -8
-119 -16 -173 -17 -91 -2 -100 -4 -124 -29 -20 -19 -24 -29 -16 -39 14 -17 46
-163 40 -180 -2 -7 0 -23 4 -36 16 -43 22 -77 26 -152 5 -106 4 -321 -3 -332
-3 -5 -8 -73 -10 -151 -3 -78 -7 -173 -9 -212 -15 -281 -14 -276 -36 -294 -25
-20 -32 -86 -11 -104 15 -12 85 -15 467 -21 149 -2 297 0 330 5 71 10 228 17
570 24 138 4 264 8 280 10 17 2 59 7 95 10 36 3 83 10 105 15 22 5 87 11 145
14 58 2 148 14 200 25 52 11 151 25 220 31 69 6 177 15 240 21 105 10 145 14
320 33 118 13 318 29 385 32 145 5 282 15 335 26 30 6 68 12 84 13 16 1 33 9
37 18 12 20 6 91 -15 180 -9 37 -18 81 -21 99 -3 17 -7 34 -9 37 -2 3 -7 23
-10 43 -3 21 -10 57 -16 80 -5 24 -10 61 -10 84 0 23 -4 54 -10 70 -5 16 -14
92 -20 168 -19 267 -60 519 -99 609 l-21 48 -90 -2 c-49 -1 -91 -4 -93 -5z
m110 -119 c24 -17 49 -86 57 -155 3 -25 10 -81 16 -125 6 -44 13 -112 15 -152
6 -104 33 -326 51 -413 14 -74 49 -237 63 -295 12 -52 3 -72 -32 -79 -40 -7
-246 -26 -352 -32 -281 -16 -511 -33 -595 -45 -41 -6 -93 -11 -115 -10 -22 0
-60 -4 -85 -9 -25 -5 -88 -12 -140 -15 -126 -7 -270 -31 -301 -51 -8 -5 -75
-12 -149 -16 -74 -4 -153 -9 -175 -12 -202 -22 -293 -27 -566 -31 -173 -3
-350 -8 -394 -12 -44 -5 -115 -7 -157 -6 -116 2 -118 2 -321 1 -103 0 -191 2
-194 6 -3 3 -5 34 -3 68 3 78 3 85 -3 126 -3 19 -1 45 4 59 5 15 12 89 14 167
2 78 7 168 9 201 3 33 8 89 11 125 3 36 7 77 10 91 3 14 -1 49 -9 78 -8 31
-12 78 -9 114 3 40 -1 84 -11 125 -9 34 -14 67 -11 72 3 5 2 11 -3 14 -4 2 -7
22 -7 43 0 37 1 38 40 40 39 3 203 22 236 28 9 2 97 6 195 10 99 3 195 8 214
11 19 3 69 7 110 9 41 2 150 13 242 24 134 17 243 22 550 26 230 3 412 1 458
-5 41 -5 131 -12 200 -15 69 -3 181 -8 249 -11 68 -3 171 -1 230 5 113 12 258
28 331 36 25 3 83 8 130 11 47 3 87 8 89 10 11 10 89 2 108 -11z"/>
<path d="M6790 8549 c-19 -4 -73 -11 -120 -14 -103 -8 -148 -26 -156 -63 -3
-15 -7 -32 -9 -39 -6 -18 21 -65 57 -100 21 -21 51 -36 83 -43 66 -15 138 -52
188 -98 86 -78 107 -100 107 -114 0 -16 -105 -48 -165 -50 -22 0 -57 7 -79 16
-67 28 -85 17 -86 -50 0 -31 44 -67 83 -68 67 -1 209 20 237 35 8 4 30 14 48
21 20 8 32 20 32 32 0 11 5 34 12 52 11 31 9 36 -32 89 -79 103 -225 209 -313
229 -34 7 -52 17 -52 26 0 11 25 18 100 28 123 17 148 18 206 8 48 -8 60 -1
66 34 5 32 -9 47 -60 63 -58 18 -92 20 -147 6z"/>
<path d="M8334 8490 c-12 -5 -25 -13 -28 -19 -18 -29 62 -83 93 -64 20 13 26
60 10 79 -13 16 -43 17 -75 4z"/>
<path d="M8652 8467 c-76 -58 -113 -126 -114 -217 -1 -73 31 -117 110 -151 67
-29 176 -19 214 19 18 18 44 14 75 -11 60 -50 171 -61 273 -28 61 20 69 34 41
70 l-19 24 -90 -13 c-103 -15 -142 -9 -142 20 0 14 7 20 21 20 30 0 138 59
150 82 16 30 -8 127 -43 170 -28 36 -32 38 -81 34 -66 -4 -89 -14 -118 -51
-40 -49 -62 -104 -64 -158 -1 -21 -9 -45 -18 -54 -36 -36 -145 -55 -188 -33
-27 15 -54 69 -40 83 6 6 11 20 11 32 0 28 40 68 94 95 39 18 46 26 46 50 0
32 -3 35 -45 43 -23 5 -39 -1 -73 -26z m422 -79 c9 -12 16 -29 16 -38 0 -21
-39 -55 -81 -70 -75 -27 -84 10 -21 88 38 47 63 53 86 20z"/>
<path d="M8153 8403 c-9 -21 -17 -52 -17 -69 -1 -18 -8 -39 -15 -48 -7 -9 -11
-29 -9 -46 3 -17 1 -33 -4 -36 -12 -8 -38 15 -38 33 0 14 -11 42 -44 113 -17
38 -48 60 -68 49 -10 -5 -18 -16 -18 -25 0 -28 82 -224 111 -264 31 -43 39
-46 87 -29 32 11 40 24 47 80 2 19 7 53 9 76 3 24 14 62 25 85 31 72 25 97
-27 113 -19 5 -25 1 -39 -32z"/>
<path d="M7735 8390 c-90 -13 -130 -77 -130 -205 1 -44 5 -89 9 -100 5 -11 11
-29 13 -39 5 -27 34 -46 63 -42 22 2 25 7 23 42 -1 21 -7 64 -13 94 -6 30 -9
72 -6 95 6 38 10 42 61 63 31 12 67 22 81 22 28 0 42 25 27 49 -12 19 -72 29
-128 21z"/>
<path d="M7250 8360 c-42 -6 -100 -36 -100 -52 0 -6 -6 -16 -14 -22 -21 -18
-43 -88 -41 -131 1 -22 3 -55 4 -73 1 -35 39 -80 96 -117 56 -36 199 -19 275
31 43 29 55 57 33 79 -20 21 -42 19 -83 -7 -50 -30 -180 -32 -209 -3 -26 26
-13 48 28 50 17 1 34 4 37 8 4 4 16 7 27 7 11 0 46 14 78 32 68 37 79 62 52
116 -32 64 -100 94 -183 82z m88 -114 c3 -14 0 -17 -13 -13 -9 4 -26 1 -38 -7
-33 -21 -60 -27 -76 -17 -13 8 -13 12 -1 26 32 39 122 46 128 11z"/>
<path d="M8372 8326 c-20 -10 -22 -17 -18 -56 11 -105 19 -146 33 -161 16 -18
46 -15 64 7 22 27 -21 227 -49 223 -4 -1 -17 -7 -30 -13z"/>
<path d="M12985 8802 c-16 -1 -66 -7 -110 -14 -44 -6 -98 -12 -120 -13 -31 -2
-44 -9 -63 -33 -21 -27 -22 -36 -14 -64 6 -18 13 -53 16 -78 3 -25 10 -70 16
-100 6 -30 13 -89 15 -130 3 -41 7 -91 10 -110 9 -55 12 -429 4 -495 -12 -100
-31 -199 -42 -220 -5 -11 -11 -49 -12 -85 -3 -67 -21 -275 -30 -345 -3 -22 -9
-98 -14 -170 -11 -159 -11 -158 91 -159 77 -1 358 12 418 19 19 2 107 7 195
10 88 3 178 10 200 15 37 8 115 17 245 26 30 2 71 8 90 14 68 19 191 40 272
46 46 3 106 8 133 10 442 34 945 31 1310 -7 55 -5 261 -12 459 -15 197 -2 363
-7 368 -10 5 -3 15 0 23 6 17 14 19 123 4 184 -10 38 -13 60 -25 201 -3 39 -7
88 -10 110 -2 22 -8 87 -13 145 -5 58 -17 166 -26 240 -9 74 -18 155 -20 180
-9 103 -25 221 -31 231 -3 6 -8 30 -10 53 -4 56 -13 121 -23 170 -5 23 -9 48
-9 56 -1 42 -15 149 -24 179 -11 36 -55 84 -68 76 -4 -3 -25 -7 -46 -10 -22
-3 -68 -12 -104 -21 -130 -31 -505 -49 -700 -32 -58 5 -141 11 -185 13 -86 4
-212 12 -340 20 -44 3 -136 12 -205 21 -69 8 -152 15 -185 15 -33 0 -87 4
-120 9 -33 5 -125 11 -205 14 -328 13 -408 18 -462 27 -32 5 -95 12 -140 15
-88 6 -462 11 -513 6z m530 -117 c22 -2 81 -9 130 -14 50 -6 182 -15 295 -21
113 -5 230 -12 260 -15 30 -3 114 -8 185 -10 72 -3 163 -10 202 -16 71 -10
130 -14 323 -23 103 -5 237 -15 285 -22 63 -10 552 -12 597 -4 26 5 85 14 130
20 130 18 139 19 148 25 5 3 27 3 49 -1 41 -7 49 -16 58 -74 2 -14 8 -52 13
-85 22 -141 31 -202 34 -240 3 -22 11 -71 20 -110 8 -38 17 -113 21 -165 3
-52 10 -133 16 -180 5 -47 10 -92 10 -100 1 -8 6 -53 13 -100 7 -47 12 -105
11 -130 -1 -25 6 -98 17 -162 10 -64 21 -145 23 -181 l6 -64 -103 -5 c-137 -7
-509 1 -628 14 -108 11 -222 17 -465 23 -93 3 -204 8 -245 12 -41 3 -78 6 -81
5 -13 -3 -225 -15 -246 -14 -40 2 -46 2 -188 -7 -196 -13 -420 -38 -495 -56
-14 -3 -34 -8 -45 -10 -11 -2 -45 -8 -75 -14 -30 -6 -90 -13 -133 -15 -43 -3
-83 -9 -90 -13 -7 -4 -46 -9 -87 -10 -41 -1 -154 -7 -250 -13 -341 -21 -437
-25 -466 -20 l-29 5 3 110 c2 61 7 126 12 145 5 19 12 85 15 145 4 61 11 126
16 145 4 19 11 73 14 120 4 47 11 98 16 115 17 53 33 478 19 505 -5 9 -11 78
-14 155 -4 77 -11 179 -17 226 -7 48 -10 92 -7 99 4 14 7 15 98 29 52 8 540 5
625 -4z"/>
<path d="M13420 8405 c-36 -6 -82 -19 -102 -28 -34 -14 -37 -19 -40 -64 -5
-80 13 -111 102 -172 78 -53 103 -67 170 -102 66 -33 118 -113 86 -131 -8 -5
-21 -15 -29 -22 -30 -30 -107 -47 -186 -41 -42 3 -84 8 -93 11 -25 8 -32 41
-14 69 19 29 12 53 -20 61 -82 21 -112 -103 -40 -168 17 -15 36 -28 43 -28 7
0 31 -10 53 -21 37 -19 52 -21 131 -16 127 8 197 51 234 144 14 34 15 49 5 77
-13 42 -104 129 -156 151 -89 37 -222 143 -208 166 7 13 69 26 154 34 95 10
109 9 177 -11 44 -13 60 -14 84 -4 48 20 37 59 -25 85 -50 21 -238 27 -326 10z"/>
<path d="M14025 8033 c-58 -13 -90 -28 -121 -59 -19 -19 -34 -40 -34 -46 0 -6
-5 -26 -11 -43 -7 -20 -9 -50 -4 -81 11 -78 89 -143 210 -175 64 -17 135 -15
174 6 32 16 42 45 17 45 -8 0 -16 5 -18 11 -2 6 -43 12 -95 14 -96 4 -120 13
-175 64 -16 13 -28 28 -28 33 0 5 31 8 68 7 76 -2 149 25 190 68 28 31 28 40
-3 86 -40 58 -105 85 -170 70z m89 -99 c11 -27 7 -36 -14 -29 -12 4 -27 1 -35
-5 -13 -11 -105 -4 -105 8 0 3 7 14 17 24 22 24 128 26 137 2z"/>
<path d="M14638 7933 c-10 -2 -19 -14 -19 -26 -4 -66 4 -140 20 -207 18 -74
18 -75 59 -87 38 -10 42 -10 47 8 4 10 10 19 14 19 4 0 17 22 30 49 12 27 36
63 52 79 39 39 38 89 -3 111 -26 15 -29 14 -57 -13 -17 -16 -35 -44 -42 -63
-6 -20 -17 -33 -27 -33 -15 0 -17 12 -17 82 0 76 -2 83 -20 85 -11 0 -28 -1
-37 -4z"/>
<path d="M14403 7898 c-13 -6 -23 -16 -23 -23 0 -6 -11 -22 -25 -35 -40 -38
-54 -73 -45 -117 16 -82 43 -120 80 -108 20 6 48 45 33 45 -4 0 -7 31 -5 69 4
75 10 82 86 96 31 6 36 11 36 34 0 14 -8 31 -17 37 -24 14 -92 15 -120 2z"/>
<path d="M14920 7865 c-12 -22 -11 -30 10 -66 22 -40 24 -56 17 -169 -2 -31 1
-35 25 -38 32 -4 43 13 53 85 7 53 -15 174 -37 201 -18 21 -54 14 -68 -13z"/>
<path d="M15272 7856 c-17 -7 -37 -17 -44 -24 -7 -7 -16 -12 -21 -12 -20 0
-77 -76 -95 -129 -13 -37 -4 -57 56 -123 38 -41 93 -58 190 -58 62 0 75 5 85
33 9 23 -28 60 -52 52 -10 -3 -30 -1 -44 4 -14 5 -45 13 -68 16 -52 8 -57 11
-65 51 -8 40 25 74 93 100 55 21 63 29 63 65 0 38 -35 47 -98 25z"/>
<path d="M15623 7779 c-48 -24 -81 -64 -128 -154 -28 -52 -32 -71 -28 -107 3
-23 16 -56 28 -73 12 -16 29 -44 38 -61 17 -32 84 -79 147 -101 56 -20 137
-16 190 10 40 19 49 27 54 57 9 55 -11 67 -66 37 -70 -37 -99 -39 -155 -13
-26 13 -57 26 -68 30 -11 3 -26 18 -32 33 -7 16 -18 35 -24 44 -19 26 -4 47
43 60 69 18 167 62 194 87 22 20 25 28 19 59 -13 70 -48 99 -129 108 -29 4
-53 -1 -83 -16z m115 -81 c7 -7 12 -15 12 -19 0 -8 -140 -52 -147 -46 -10 11
17 45 49 60 39 20 70 21 86 5z"/>
<path d="M8590 7398 c-26 -42 -25 -50 5 -78 14 -13 25 -31 25 -39 0 -9 7 -29
16 -46 9 -16 27 -59 39 -95 13 -36 31 -81 39 -101 8 -20 12 -39 9 -43 -4 -3
-2 -6 4 -6 6 0 14 -12 19 -27 4 -16 8 -30 9 -33 1 -3 5 -18 10 -34 4 -16 14
-41 21 -55 7 -13 11 -28 9 -32 -3 -4 9 -33 25 -64 17 -31 30 -63 30 -71 0 -8
4 -22 9 -32 19 -34 75 -198 132 -382 12 -41 26 -79 31 -85 4 -5 8 -23 8 -40 0
-16 11 -63 25 -103 13 -39 22 -78 19 -86 -3 -8 -1 -17 5 -21 6 -3 11 -19 11
-34 0 -15 4 -31 8 -36 5 -6 14 -28 20 -51 7 -22 21 -51 31 -63 17 -19 25 -21
48 -14 33 11 33 32 1 115 -11 29 -26 82 -33 118 -22 116 -71 296 -89 325 -7
11 -18 43 -26 70 -23 89 -51 180 -61 197 -5 10 -9 23 -9 30 0 16 -50 141 -61
152 -5 6 -9 20 -9 31 0 12 -15 61 -34 109 -19 48 -38 101 -41 117 -4 16 -11
31 -16 34 -5 4 -9 16 -9 28 0 12 -8 38 -18 57 -10 19 -27 62 -37 94 -10 33
-24 71 -31 85 -8 14 -14 33 -14 42 0 27 -58 99 -80 99 -12 0 -28 -13 -40 -32z"/>
<path d="M13319 6578 c-30 -24 -69 -56 -87 -72 -90 -81 -107 -96 -113 -96 -15
0 -140 -122 -304 -295 -66 -70 -156 -164 -199 -209 -75 -77 -90 -105 -72 -134
4 -6 20 -12 36 -12 33 0 101 55 160 128 47 58 424 442 434 442 7 0 101 77 144
118 8 7 28 20 45 28 44 22 77 54 77 74 0 22 -37 70 -54 70 -8 0 -38 -19 -67
-42z"/>
<path d="M2252 6317 c-26 -35 -20 -97 20 -186 10 -24 21 -62 24 -85 3 -22 12
-51 20 -63 7 -11 15 -32 18 -45 9 -49 19 -83 28 -94 5 -7 8 -16 7 -20 -1 -5 0
-11 1 -14 3 -9 9 -53 15 -110 2 -30 10 -86 16 -125 12 -79 15 -474 4 -550 -11
-78 -8 -146 8 -195 8 -25 18 -62 21 -82 6 -30 12 -38 29 -39 128 -8 335 -4
397 7 41 7 156 14 255 15 198 2 341 13 389 29 18 5 151 10 311 11 154 1 307 5
340 9 132 18 1252 29 1278 13 6 -4 129 -8 272 -10 143 -2 269 -3 280 -3 11 -1
28 9 38 21 18 22 18 40 2 144 -2 17 -9 129 -16 250 -6 121 -12 234 -14 250 -1
17 -6 75 -9 130 -4 55 -9 129 -11 165 -5 60 -17 134 -59 360 -9 47 -24 96 -34
109 l-17 23 -360 3 c-211 2 -437 10 -545 19 -172 14 -281 20 -305 16 -28 -6
-42 -5 -57 3 -10 4 -18 4 -18 -1 0 -5 -21 -6 -47 -2 -41 7 -198 6 -213 0 -8
-3 -54 2 -63 7 -21 13 -711 21 -852 10 -116 -9 -180 -8 -285 3 -47 4 -123 9
-170 10 -47 0 -112 6 -145 12 -90 16 -541 20 -553 5z m358 -117 c13 -7 21 -7
25 1 8 11 156 5 280 -12 148 -20 204 -24 335 -22 74 0 268 2 430 4 162 2 378
0 480 -5 102 -4 271 -9 375 -11 232 -4 507 -16 518 -22 8 -5 668 -17 734 -14
29 1 41 -22 48 -93 4 -31 8 -65 9 -74 14 -70 19 -114 21 -157 1 -27 5 -66 8
-85 6 -34 8 -50 28 -215 5 -44 9 -171 9 -282 0 -112 4 -203 8 -203 4 0 7 -24
8 -54 l1 -54 -41 -4 c-62 -6 -398 -3 -691 7 -143 5 -280 9 -305 8 -246 -4
-591 -16 -700 -24 -74 -5 -261 -11 -415 -13 -181 -1 -298 -7 -330 -15 -72 -18
-269 -26 -420 -18 -27 2 -66 -1 -85 -5 -19 -5 -117 -10 -217 -13 l-182 -4 -18
27 c-16 25 -18 55 -19 352 -1 334 -7 466 -24 510 -5 14 -11 46 -14 72 -2 25
-7 51 -10 57 -4 6 -9 23 -11 38 -2 16 -9 48 -15 73 -6 25 -13 52 -14 60 -5 31
-18 60 -26 60 -4 0 -7 8 -5 18 1 9 0 22 -4 27 -3 6 -11 29 -17 51 l-10 42 119
1 c65 0 127 -4 137 -9z"/>
<path d="M2970 5895 c-161 -38 -178 -44 -213 -80 -31 -32 -34 -39 -27 -73 4
-20 11 -45 15 -55 8 -19 62 -47 130 -67 122 -37 201 -75 243 -116 49 -51 54
-84 17 -118 -42 -39 -123 -46 -215 -18 -46 13 -59 21 -55 33 7 21 -38 69 -64
69 -27 0 -54 -41 -46 -72 4 -13 23 -43 44 -65 47 -52 122 -77 236 -77 90 0
143 19 185 66 27 30 40 35 40 15 0 -34 152 -136 204 -137 11 -1 39 -8 61 -16
55 -20 158 -28 184 -14 25 13 51 60 51 91 0 12 -8 28 -17 35 -21 16 -53 18
-53 4 0 -31 -79 -66 -94 -41 -3 5 -27 12 -53 16 -27 4 -52 10 -58 15 -5 4 -36
16 -67 26 -32 10 -58 23 -58 29 0 7 23 15 56 18 94 10 255 104 241 142 -3 7
-9 29 -12 47 -9 46 -37 61 -120 64 -103 3 -186 -41 -250 -135 l-24 -34 -21 46
c-43 91 -129 152 -280 199 -146 45 -150 54 -39 81 173 43 184 44 279 35 33 -4
57 41 38 72 -7 11 -22 23 -32 26 -44 14 -137 9 -226 -11z m570 -372 c0 -14
-99 -63 -125 -63 -64 0 3 50 85 63 14 2 28 5 33 6 4 0 7 -2 7 -6z"/>
<path d="M4558 5669 c-13 -7 -18 -23 -18 -53 0 -41 2 -44 33 -50 28 -6 35 -2
59 26 34 41 35 62 3 76 -31 14 -54 15 -77 1z"/>
<path d="M5292 5620 c-83 -20 -140 -91 -177 -224 -14 -51 -19 -57 -37 -53 -12
3 -33 0 -47 -7 -38 -20 -124 -13 -160 14 -38 27 -47 59 -27 97 21 41 36 52 90
62 61 11 73 23 60 58 -11 32 -70 58 -92 41 -7 -6 -15 -8 -18 -5 -9 8 -77 -32
-94 -56 -22 -32 -46 -108 -48 -158 -2 -40 1 -48 40 -86 24 -23 63 -49 88 -57
85 -29 191 -15 228 31 l22 28 23 -27 c22 -27 81 -57 127 -64 14 -3 41 -7 60
-9 19 -2 59 -9 89 -15 29 -5 78 -10 107 -10 42 0 53 4 56 18 8 35 -20 60 -75
67 -29 4 -63 12 -77 17 -14 6 -56 12 -95 15 -118 8 -125 19 -34 54 34 12 73
33 86 45 14 13 34 26 44 29 45 14 5 147 -55 184 -36 23 -36 23 -84 11z m67
-106 c11 -11 -18 -40 -70 -71 -30 -18 -57 -33 -61 -33 -5 0 -8 12 -8 26 0 16
13 39 35 61 30 30 40 35 67 29 17 -3 34 -9 37 -12z"/>
<path d="M3928 5561 c-18 -9 -53 -35 -78 -57 -25 -23 -58 -52 -73 -65 l-28
-24 20 -56 c24 -72 69 -139 91 -139 34 0 45 27 32 76 -17 62 -15 88 8 127 24
40 51 56 104 61 21 2 42 10 47 18 36 55 -48 95 -123 59z"/>
<path d="M4143 5562 c-21 -13 -19 -69 4 -94 11 -13 24 -36 27 -52 12 -48 88
-148 135 -177 36 -21 75 -11 78 21 6 74 38 161 75 205 15 18 15 24 3 53 -12
27 -19 32 -49 32 -32 0 -36 -4 -60 -54 -14 -30 -26 -68 -26 -85 0 -16 -5 -33
-11 -36 -13 -9 -59 41 -59 65 0 10 -3 20 -7 22 -5 2 -17 21 -28 42 -32 62 -52
77 -82 58z"/>
<path d="M4565 5470 c-18 -20 -18 -46 1 -180 7 -55 42 -87 74 -70 28 15 35 54
20 119 -7 31 -12 70 -11 87 2 24 -4 36 -21 48 -29 21 -41 20 -63 -4z"/>
<path d="M8358 5684 c-3 -2 -65 -4 -139 -4 -74 -1 -195 -5 -269 -11 -74 -6
-163 -12 -198 -14 -75 -5 -105 -19 -97 -44 3 -10 7 -56 10 -102 2 -46 11 -113
19 -149 8 -36 15 -113 15 -173 0 -60 3 -112 6 -116 2 -5 7 -87 11 -182 3 -96
8 -194 9 -219 3 -39 13 -511 16 -775 1 -49 7 -103 14 -120 7 -16 16 -47 20
-69 l6 -39 67 6 c115 10 163 17 181 26 9 5 19 9 24 9 14 0 183 14 222 18 22 3
121 6 220 9 99 2 221 7 270 12 164 15 632 5 770 -17 100 -16 137 -19 215 -21
41 0 95 -5 120 -11 25 -5 61 -11 80 -13 19 -2 55 -8 80 -13 25 -5 79 -10 121
-10 42 -1 96 -6 120 -12 37 -10 316 -24 439 -23 385 4 517 3 575 -5 39 -5 111
-8 160 -6 50 1 207 5 350 9 143 3 274 7 290 10 17 2 92 5 167 6 117 2 141 0
156 -14 23 -21 48 -22 60 -1 8 14 30 16 188 11 98 -3 206 -7 239 -10 33 -3
101 -8 150 -12 50 -3 103 -8 119 -10 16 -2 42 3 58 11 27 14 28 18 28 87 0 40
7 124 16 187 28 193 19 868 -12 1010 -10 41 -18 93 -19 115 -6 99 -25 288 -30
296 -3 4 3 26 15 49 15 29 19 50 14 79 -9 53 -28 59 -214 67 -136 5 -500 17
-535 17 -16 0 -133 0 -260 0 -126 -1 -284 0 -350 1 -66 0 -136 -2 -155 -6 -19
-4 -116 -10 -215 -13 -99 -3 -190 -8 -203 -11 -12 -2 -31 0 -42 6 -13 7 -34 7
-62 1 -24 -6 -131 -12 -239 -15 -167 -5 -199 -3 -209 9 -14 17 -46 20 -55 5
-8 -14 -120 -11 -291 5 -71 7 -132 11 -136 9 -3 -2 -51 3 -105 12 -54 8 -123
18 -153 21 -30 2 -68 7 -85 9 -16 2 -68 8 -115 13 -47 5 -116 13 -155 20 -38
6 -88 13 -110 15 -22 3 -60 7 -85 11 -25 3 -157 15 -295 26 -137 11 -302 25
-365 30 -128 11 -435 20 -442 13z m277 -107 c28 -4 88 -9 135 -12 47 -4 94 -9
104 -12 27 -7 207 -22 351 -27 66 -3 130 -8 142 -11 12 -3 61 -9 110 -15 48
-5 120 -14 158 -20 39 -5 115 -13 170 -16 55 -3 102 -9 105 -13 3 -4 31 -7 62
-7 32 0 61 -3 65 -7 4 -4 2 -21 -4 -37 -8 -21 -8 -31 1 -40 7 -7 10 -77 7
-233 -6 -370 -6 -388 3 -512 12 -166 13 -180 16 -442 1 -128 6 -263 10 -299
10 -80 -1 -107 -40 -99 -37 8 -163 25 -262 35 -48 5 -123 16 -165 24 -71 13
-243 23 -553 31 -63 1 -151 -1 -195 -6 -44 -5 -188 -11 -320 -14 -132 -3 -274
-9 -315 -15 -42 -6 -94 -12 -115 -15 -22 -3 -56 -7 -75 -10 -19 -2 -55 -7 -80
-10 -25 -3 -57 -8 -72 -11 -50 -10 -52 7 -55 401 -1 198 -4 378 -7 400 -2 22
-7 112 -10 200 -3 88 -8 201 -11 250 -3 50 -8 124 -10 165 -6 104 -16 190 -24
215 -4 11 -7 45 -7 75 1 54 1 55 31 56 39 1 156 14 175 19 8 3 114 7 235 10
120 3 220 7 221 8 4 4 170 -1 219 -6z m1680 -162 c50 -4 104 -8 120 -10 17 -2
66 -7 110 -10 44 -3 85 -8 91 -10 14 -4 10 -128 -13 -415 -2 -36 -4 -72 -3
-80 1 -8 0 -62 -2 -120 -3 -128 -3 -265 4 -695 2 -186 0 -335 -5 -342 -5 -7
-17 -9 -30 -4 -12 4 -60 9 -107 10 -47 1 -101 4 -120 7 -19 2 -73 7 -120 11
l-85 8 -2 185 c-4 287 -12 551 -18 590 -6 36 -7 652 -1 791 2 42 7 82 11 89 5
7 21 10 44 7 20 -3 77 -8 126 -12z m1444 -1 c2 -2 -1 -10 -8 -17 -7 -9 -9 -38
-6 -78 13 -163 16 -239 15 -441 -1 -126 3 -219 9 -222 9 -6 9 -22 -3 -127 -4
-30 -9 -137 -12 -239 -7 -213 -7 -188 -4 -393 2 -89 -1 -162 -6 -167 -8 -8
-293 -13 -434 -7 l-44 2 1 85 c1 70 2 271 1 355 0 11 1 207 1 435 1 228 0 458
-2 510 -2 52 -1 135 2 185 l6 89 35 7 c19 4 87 10 150 13 185 10 232 14 237
20 6 5 53 -3 62 -10z m117 8 c5 -4 59 -5 119 -2 61 3 118 2 127 -2 9 -4 69 -8
132 -8 148 0 143 7 126 -179 -13 -138 -9 -521 5 -591 9 -40 9 -157 1 -417 -4
-116 -2 -184 4 -188 6 -4 8 -10 5 -15 -2 -4 -5 -66 -6 -138 0 -113 -3 -132
-17 -136 -9 -3 -120 -8 -245 -11 -126 -3 -240 -8 -254 -11 -14 -4 -28 -2 -32
4 -10 17 -3 693 8 787 12 98 1 699 -15 858 -5 51 -4 57 13 57 10 0 23 -4 29
-8z m1034 -16 l205 -1 2 -125 c1 -69 5 -161 9 -205 4 -44 6 -96 6 -115 -1 -19
5 -54 14 -77 20 -55 32 -174 23 -232 -4 -25 -1 -134 7 -241 15 -219 11 -458
-8 -493 -7 -13 -12 -60 -12 -115 l0 -93 -36 5 c-61 10 -422 27 -495 25 -75 -3
-136 7 -147 24 -3 5 -4 100 -2 211 7 314 6 704 -1 716 -21 34 -21 299 1 525 2
22 7 77 10 122 l7 82 106 -6 c58 -3 198 -6 311 -7z m-1725 -146 c-9 -139 -9
-68 -1 -545 8 -570 5 -952 -8 -973 -8 -14 -451 -18 -460 -4 -5 8 -7 144 -7
487 -1 105 -3 231 -5 280 -3 50 -5 101 -4 115 0 14 2 90 4 170 3 80 8 188 12
240 4 52 6 105 5 117 -2 22 16 176 25 205 8 26 28 29 224 35 102 3 187 7 189
9 2 2 11 -2 19 -8 12 -11 14 -32 7 -128z"/>
<path d="M8257 4942 c-15 -16 -16 -34 -11 -123 6 -119 -6 -230 -34 -308 -11
-29 -18 -60 -15 -70 12 -43 24 -48 153 -55 69 -3 161 -9 205 -11 70 -5 83 -3
103 14 19 16 21 24 13 40 -10 18 -44 27 -142 35 -19 2 -54 9 -78 15 -24 7 -60
10 -80 7 -64 -11 -66 -5 -47 140 23 183 22 274 -5 308 -24 31 -40 33 -62 8z"/>
<path d="M8900 4697 c-32 -16 -85 -66 -100 -95 -7 -16 -9 -45 -5 -87 8 -68 16
-76 94 -100 41 -12 140 25 183 68 20 22 37 42 36 45 -1 4 4 18 11 30 19 36 7
64 -50 110 -45 36 -58 42 -98 41 -25 0 -57 -6 -71 -12z m132 -94 c16 -14 16
-17 1 -49 -9 -19 -26 -36 -37 -40 -12 -3 -31 -10 -44 -17 -48 -23 -91 48 -59
97 25 37 101 42 139 9z"/>
<path d="M9353 4678 c-67 -32 -91 -51 -121 -95 -30 -43 -29 -94 4 -132 23 -28
31 -31 86 -31 50 0 66 5 104 30 24 17 44 35 44 40 0 6 8 10 19 10 17 0 35 -31
32 -53 -2 -14 22 -87 28 -87 4 0 8 -23 9 -51 2 -40 -4 -65 -25 -105 -34 -68
-81 -89 -192 -88 l-74 1 -53 56 c-29 32 -57 57 -63 57 -20 0 -24 -50 -6 -96
15 -39 25 -49 78 -76 49 -25 76 -32 130 -34 37 -1 70 2 73 7 3 5 18 9 35 9 16
0 29 5 29 10 0 6 8 10 18 10 27 0 91 68 113 118 29 68 34 137 14 217 -18 73
-76 191 -102 210 -14 10 -14 15 2 39 25 38 6 55 -67 59 -46 3 -68 -2 -115 -25z
m74 -103 c-26 -38 -72 -75 -94 -75 -7 0 -17 9 -24 21 -9 19 -6 25 27 53 42 35
95 57 108 46 4 -5 -3 -25 -17 -45z"/>
<path d="M6173 5194 c-7 -18 2 -54 19 -77 10 -14 30 -19 78 -22 67 -4 84 -6
210 -29 41 -8 98 -17 125 -21 80 -10 249 -43 279 -55 15 -5 38 -10 51 -10 13
0 39 -9 57 -19 18 -10 67 -26 108 -35 41 -9 84 -21 95 -26 33 -14 183 -60 199
-60 21 0 38 35 30 64 -8 35 -34 55 -85 65 -24 5 -64 16 -89 25 -25 8 -65 20
-90 27 -25 6 -53 15 -62 20 -10 5 -23 9 -28 9 -6 0 -30 9 -54 19 -56 26 -242
69 -353 81 -48 5 -124 17 -168 25 -44 9 -111 18 -150 21 -38 2 -92 6 -118 8
-34 2 -50 -1 -54 -10z"/>
<path d="M16077 4774 c-2 -2 -88 -6 -193 -9 -386 -10 -507 -17 -619 -36 -100
-17 -116 -18 -230 -25 -135 -7 -171 -17 -190 -54 -8 -15 -12 -30 -8 -33 5 -6
16 -94 28 -241 12 -147 -1 -634 -21 -751 -3 -16 -8 -66 -12 -110 -4 -45 -16
-95 -26 -114 -14 -27 -19 -62 -21 -170 -4 -139 -9 -204 -26 -301 -13 -75 0
-85 96 -74 101 11 451 13 515 3 73 -12 575 -13 720 -2 63 4 237 7 385 5 935
-8 1131 -6 1279 12 17 3 60 7 96 11 36 4 99 13 140 20 74 14 322 27 475 25 44
0 114 4 155 9 219 30 251 35 256 43 11 17 6 86 -10 138 -24 86 -46 217 -51
310 -7 125 -16 229 -25 280 -5 25 -6 64 -3 87 3 23 0 65 -7 95 -8 29 -14 71
-15 93 -1 22 -3 77 -5 123 -1 46 -9 109 -17 140 -8 31 -18 95 -23 142 -16 150
-20 170 -50 237 -28 60 -63 81 -125 72 -48 -7 -153 -4 -300 7 -68 5 -237 9
-870 20 -271 4 -499 16 -580 29 -70 11 -709 28 -718 19z m683 -117 c15 -5 65
-10 230 -23 47 -4 92 -10 101 -15 8 -4 22 -4 30 1 14 10 336 6 534 -6 61 -4
121 -6 135 -6 186 4 413 0 432 -7 13 -5 44 -5 71 -1 26 4 68 4 95 -1 26 -4 52
-4 57 0 6 4 36 5 68 3 55 -4 58 -5 77 -42 11 -21 22 -60 24 -87 8 -82 16 -145
28 -208 6 -33 12 -78 14 -100 2 -22 6 -49 8 -61 3 -11 8 -83 11 -160 3 -76 10
-155 15 -174 5 -19 11 -64 15 -100 3 -36 8 -86 11 -112 2 -25 5 -90 6 -143 0
-52 5 -98 9 -101 5 -3 9 -26 9 -52 1 -41 13 -106 35 -179 6 -18 2 -23 -32 -32
-21 -6 -57 -11 -80 -11 -23 0 -45 -5 -48 -10 -4 -7 -43 -11 -93 -10 -199 1
-494 -10 -513 -21 -12 -6 -53 -13 -92 -15 -40 -3 -94 -10 -122 -15 -27 -6
-104 -13 -170 -15 -66 -3 -136 -9 -155 -13 -20 -4 -45 -5 -55 -1 -11 4 -166 7
-345 6 -179 -1 -354 3 -390 7 -88 12 -448 10 -595 -3 -163 -14 -496 -14 -695
0 -91 6 -247 10 -347 8 -192 -3 -205 0 -184 40 5 9 9 85 10 167 2 168 5 191
33 221 14 16 18 32 15 70 -3 43 11 171 27 244 16 75 24 555 11 741 -10 151 -7
159 54 159 26 0 72 4 102 10 109 19 125 21 169 26 70 8 172 12 470 20 151 3
277 8 280 11 6 5 712 -4 730 -10z"/>
<path d="M15438 4324 c-2 -1 -19 -5 -38 -7 -111 -13 -147 -74 -101 -170 25
-51 55 -73 171 -123 102 -44 169 -91 186 -132 21 -51 15 -63 -41 -94 -45 -25
-58 -27 -128 -24 -91 4 -116 20 -126 82 -8 52 -33 65 -66 34 -41 -38 -34 -75
25 -131 36 -35 64 -53 106 -65 107 -31 239 1 299 74 30 36 33 56 16 119 -17
62 -141 183 -188 183 -10 0 -35 11 -55 25 -20 14 -41 25 -46 25 -20 0 -92 61
-92 79 0 27 65 34 224 25 72 -5 135 -9 141 -9 5 0 16 12 25 27 27 50 -8 65
-175 74 -44 2 -92 6 -107 8 -15 2 -28 2 -30 0z"/>
<path d="M16039 3928 c-21 -15 -48 -41 -61 -59 -21 -27 -27 -30 -60 -25 -31 5
-39 3 -48 -14 -16 -31 -3 -60 26 -60 19 0 29 -9 42 -38 10 -22 31 -54 47 -72
36 -38 147 -93 227 -110 56 -13 58 -12 98 15 42 29 44 33 34 59 -12 31 -40 37
-67 16 -23 -18 -30 -19 -74 -9 -60 15 -100 34 -143 69 -48 39 -36 56 45 63 74
7 119 28 142 68 25 41 11 72 -46 103 -63 34 -110 32 -162 -6z"/>
<path d="M17225 3955 c-5 -2 -22 -6 -37 -9 -33 -7 -36 -30 -10 -64 25 -32 66
-27 69 8 1 14 3 34 5 44 3 19 -8 27 -27 21z"/>
<path d="M16758 3919 c-10 -5 -18 -18 -18 -27 0 -22 34 -156 52 -204 20 -54
75 -128 96 -128 23 0 68 47 75 80 11 50 38 113 72 166 47 74 45 106 -9 116
-24 4 -69 -58 -86 -117 -14 -50 -38 -102 -49 -109 -16 -10 -38 30 -44 79 -7
58 -45 155 -61 155 -6 0 -19 -5 -28 -11z"/>
<path d="M16515 3880 c-22 -16 -47 -36 -57 -45 -13 -14 -19 -14 -37 -3 -52 32
-75 -39 -46 -140 9 -32 19 -68 23 -82 18 -61 97 -12 94 58 -2 74 40 146 92
156 12 3 41 8 66 13 41 7 45 10 45 38 l0 30 -70 2 c-64 3 -74 0 -110 -27z"/>
<path d="M17575 3850 c-29 -12 -90 -80 -116 -129 -17 -33 -20 -52 -15 -88 7
-56 24 -82 72 -120 50 -38 147 -44 217 -14 45 19 48 23 45 53 -3 33 -3 33 -53
30 -27 -2 -54 -8 -59 -13 -6 -5 -25 -9 -44 -9 -27 0 -42 8 -68 36 -20 20 -34
46 -34 60 0 34 66 102 115 119 33 11 39 17 37 37 -2 12 -9 29 -14 36 -12 14
-53 15 -83 2z"/>
<path d="M18014 3806 c-42 -19 -72 -51 -99 -110 -14 -28 -36 -56 -54 -67 -39
-23 -39 -40 -2 -78 16 -17 32 -39 36 -50 7 -23 61 -81 97 -105 38 -25 175 -32
213 -12 17 9 39 16 51 16 42 0 106 95 77 113 -5 3 -35 -8 -68 -23 -99 -45
-137 -51 -198 -29 -28 10 -53 19 -54 19 -1 0 -10 14 -18 30 -17 33 -13 50 12
50 22 0 105 36 163 71 74 45 83 83 30 138 -35 37 -45 41 -97 46 -37 3 -69 0
-89 -9z m116 -89 c0 -27 -17 -47 -42 -47 -10 0 -32 -9 -50 -20 -18 -11 -36
-20 -40 -20 -19 0 -5 44 24 75 25 28 39 35 70 35 33 0 38 -3 38 -23z"/>
<path d="M17215 3782 c-6 -4 -16 -25 -22 -47 -30 -101 -24 -135 23 -135 26 0
36 12 43 55 14 90 -8 153 -44 127z"/>
<path d="M3089 4580 c-13 -17 -55 -62 -93 -98 -98 -95 -272 -270 -336 -338
-140 -148 -230 -249 -230 -258 0 -6 -17 -35 -39 -66 -53 -77 -91 -147 -91
-170 0 -11 9 -29 20 -40 19 -19 22 -19 46 -3 14 9 55 62 91 117 37 56 72 105
80 109 7 4 13 14 13 22 0 8 66 81 148 164 81 82 154 158 163 168 14 15 215
203 342 319 21 19 37 40 35 46 -7 21 -53 48 -89 54 -32 5 -39 2 -60 -26z"/>
<path d="M13725 4029 c-66 -4 -137 -7 -158 -8 -31 -1 -39 -6 -48 -28 -5 -14
-6 -37 -2 -50 l8 -23 370 -4 c204 -2 381 -6 395 -9 14 -3 77 -8 140 -11 63 -3
139 -9 167 -12 64 -8 103 12 103 51 0 23 -30 64 -47 66 -5 0 -84 2 -178 4 -93
1 -242 7 -330 11 -88 5 -189 9 -225 9 -36 0 -67 2 -70 5 -3 3 -59 2 -125 -1z"/>
<path d="M1480 3873 c-8 -2 -24 -8 -35 -13 -11 -4 -45 -16 -75 -25 -30 -9 -75
-28 -100 -42 -25 -14 -71 -39 -103 -55 -32 -16 -69 -39 -81 -52 -13 -12 -37
-28 -54 -35 -26 -11 -136 -115 -137 -130 -2 -14 -49 -98 -65 -116 -17 -19 -64
-115 -56 -115 2 0 0 -17 -6 -37 -13 -53 -19 -225 -8 -265 5 -18 11 -49 14 -68
11 -75 19 -115 26 -125 8 -11 21 -58 26 -90 4 -32 59 -141 90 -180 58 -74 175
-204 186 -207 13 -5 17 -184 6 -261 -6 -40 -4 -51 16 -73 30 -36 67 -27 139
34 31 26 73 54 94 61 21 7 48 22 60 33 18 17 22 17 30 5 21 -37 152 -74 177
-50 6 6 17 9 76 17 14 2 46 -6 71 -18 53 -24 54 -24 129 -41 30 -6 93 -29 140
-49 108 -48 131 -53 152 -29 24 27 30 107 11 172 -16 58 -39 155 -48 205 -3
16 -10 37 -15 47 -14 24 -12 39 3 39 14 0 91 63 121 100 12 13 39 43 62 65 48
47 84 104 88 139 1 14 8 32 15 40 14 16 19 197 8 276 -21 147 -172 471 -268
575 -16 17 -45 50 -66 74 -37 43 -145 120 -213 153 -61 30 -356 59 -410 41z
m230 -124 c47 -5 92 -11 100 -13 35 -7 75 -20 80 -25 3 -4 26 -17 51 -30 25
-14 56 -39 69 -58 12 -18 26 -33 31 -33 13 0 112 -131 143 -190 16 -30 34 -58
40 -62 8 -5 47 -106 60 -153 1 -5 10 -28 19 -49 17 -39 38 -159 39 -226 3
-127 -76 -267 -201 -358 -29 -21 -32 -22 -56 -6 -41 27 -77 20 -142 -28 -32
-24 -68 -52 -81 -63 -39 -34 -82 -44 -127 -28 -21 7 -47 20 -56 29 -9 8 -35
17 -59 20 -33 4 -51 0 -86 -21 -24 -14 -44 -30 -44 -35 0 -22 -67 -8 -147 30
-47 22 -90 40 -95 40 -6 0 -30 14 -55 30 -52 36 -71 37 -107 9 -27 -21 -28
-21 -44 -3 -38 42 -73 104 -103 179 -17 44 -36 90 -41 102 -6 12 -10 41 -10
65 0 24 -7 74 -15 112 -17 83 -10 193 17 251 61 134 76 164 104 200 49 64 99
111 142 134 21 12 57 33 79 47 22 13 87 47 144 75 140 68 196 78 351 58z"/>
<path d="M1713 3417 c-42 -15 -48 -23 -60 -74 -10 -38 -8 -45 18 -84 27 -42
72 -69 113 -69 29 0 86 36 86 55 0 8 4 15 9 15 5 0 12 13 16 28 9 42 -18 85
-67 109 -61 30 -79 33 -115 20z"/>
<path d="M1294 3386 c-49 -39 -52 -90 -12 -160 l32 -56 68 0 c80 0 113 16 122
61 9 44 -19 99 -69 137 -59 45 -101 50 -141 18z"/>
<path d="M1889 2999 c-6 -3 -11 -17 -13 -31 -3 -31 -22 -62 -70 -114 -20 -22
-36 -44 -36 -51 0 -6 -30 -26 -67 -43 -60 -28 -76 -32 -163 -32 -109 -1 -158
17 -195 73 -52 77 -115 84 -115 13 0 -31 10 -46 66 -105 62 -63 100 -86 159
-96 55 -9 126 -9 179 0 85 15 236 91 236 120 0 4 20 28 45 53 40 41 85 130 85
169 0 38 -74 67 -111 44z"/>
<path d="M8471 3620 c-25 -27 -54 -64 -65 -82 -12 -18 -40 -59 -63 -89 -24
-31 -43 -62 -43 -68 0 -7 -22 -41 -50 -76 -27 -35 -50 -67 -50 -72 0 -5 -10
-23 -22 -40 -13 -17 -30 -41 -38 -53 -8 -12 -29 -41 -46 -64 -17 -22 -39 -57
-49 -76 -10 -19 -27 -47 -37 -61 -16 -22 -17 -29 -7 -52 21 -46 52 -36 98 31
22 31 49 68 60 82 11 14 21 30 21 37 0 6 4 13 8 15 10 4 105 139 182 257 30
47 64 95 75 106 27 29 69 85 74 98 2 6 14 22 27 36 36 38 41 81 14 103 -12 10
-27 18 -34 17 -6 0 -31 -22 -55 -49z"/>
<path d="M12115 3387 c-16 -25 -12 -73 10 -97 16 -18 119 -235 128 -270 3 -14
15 -35 27 -47 11 -12 20 -24 20 -27 0 -10 74 -131 82 -134 4 -2 8 -10 8 -17 0
-7 4 -15 8 -17 7 -3 75 -121 131 -228 23 -43 54 -60 89 -50 23 6 27 12 24 39
-2 34 -13 53 -79 144 -23 32 -54 83 -69 115 -15 31 -37 71 -50 88 -42 58 -164
288 -164 311 0 21 -75 176 -95 196 -23 24 -52 21 -70 -6z"/>
<path d="M6285 2849 c-49 -4 -164 -10 -255 -14 -90 -3 -167 -8 -171 -10 -3 -3
-82 -7 -175 -10 -203 -6 -315 -13 -409 -26 -38 -6 -79 -11 -90 -12 -38 -4 -62
-64 -45 -113 5 -16 12 -54 16 -84 10 -80 11 -630 1 -665 -6 -24 -9 -196 -4
-320 0 -11 -5 -63 -11 -115 -6 -52 -14 -125 -16 -161 -6 -77 -13 -99 -31 -99
-8 0 -25 -4 -38 -9 -23 -9 -24 -11 -13 -53 18 -70 18 -70 110 -63 44 3 374 8
731 10 609 4 725 7 800 21 17 3 143 7 280 9 138 2 412 7 610 11 411 8 506 9
695 5 127 -3 412 2 758 14 84 3 160 5 168 5 31 0 34 45 9 150 -14 55 -27 116
-29 135 -3 19 -7 38 -9 42 -3 4 -8 33 -12 63 -4 30 -11 77 -15 105 -4 27 -6
58 -4 68 1 9 -1 43 -6 75 -5 31 -12 109 -15 172 -4 63 -8 124 -9 135 -2 11 -6
61 -10 110 -15 210 -47 408 -72 456 -20 40 -45 50 -138 55 -44 3 -110 9 -146
14 -36 6 -123 9 -195 8 -231 -2 -675 17 -870 38 -27 3 -88 7 -135 9 -47 3
-116 9 -155 14 -38 6 -108 12 -155 15 -47 3 -92 7 -100 10 -22 8 -740 12 -845
5z m658 -105 c94 -2 179 -6 187 -9 8 -2 74 -7 145 -11 72 -3 132 -8 135 -9 3
-2 61 -6 130 -9 69 -4 136 -9 150 -11 107 -19 435 -34 880 -41 129 -2 244 -5
255 -7 11 -2 43 -7 72 -11 46 -7 53 -11 63 -39 7 -18 12 -50 12 -72 0 -22 6
-71 15 -110 15 -74 21 -133 28 -280 2 -49 6 -108 9 -130 4 -22 8 -78 11 -125
7 -123 34 -340 56 -449 11 -51 18 -96 15 -98 -3 -3 -1 -16 4 -29 17 -43 -11
-49 -280 -52 -463 -5 -566 -6 -770 -4 -113 2 -239 0 -280 -3 -41 -3 -138 -5
-215 -4 -161 2 -172 2 -558 -5 -159 -3 -325 -10 -370 -15 -82 -10 -256 -13
-782 -12 -637 0 -617 0 -642 16 -13 9 -21 20 -18 25 3 5 7 35 10 67 6 92 16
177 22 187 3 5 7 122 9 260 2 138 6 262 9 276 6 29 7 414 0 541 l-4 87 57 10
c81 15 155 21 332 27 85 3 171 7 190 10 19 2 98 7 174 10 77 3 144 9 150 12 5
4 142 7 303 8 161 1 296 5 300 8 3 4 10 4 15 1 5 -3 86 -7 181 -10z"/>
<path d="M5803 2377 c-53 -28 -79 -61 -94 -120 -10 -41 -9 -50 8 -79 19 -32
108 -86 144 -87 9 -1 30 -8 45 -16 16 -8 37 -15 47 -15 37 0 147 -96 147 -127
0 -27 -39 -71 -88 -98 -38 -22 -61 -27 -122 -29 l-75 -1 2 30 c1 17 -1 41 -3
53 -4 20 -9 23 -32 17 -71 -18 -84 -82 -27 -139 34 -34 47 -38 165 -49 28 -2
119 25 131 39 6 8 17 14 24 14 18 0 71 68 93 121 17 41 18 46 3 79 -22 49 -81
120 -100 120 -8 0 -24 8 -35 19 -12 10 -50 28 -86 40 -130 44 -160 65 -152
106 10 56 106 70 237 35 41 -11 84 -20 94 -20 23 0 45 34 37 56 -11 30 -123
62 -236 69 -74 4 -90 1 -127 -18z"/>
<path d="M7486 2208 c-8 -33 -7 -71 3 -87 7 -11 15 -11 47 -1 75 24 77 40 11
84 -46 32 -53 32 -61 4z"/>
<path d="M7323 2149 c-15 -5 -23 -17 -23 -32 0 -13 -4 -27 -8 -32 -11 -13 -31
-108 -35 -160 -2 -32 -6 -41 -23 -43 -18 -3 -25 10 -54 88 -39 102 -70 136
-96 103 -8 -11 -11 -28 -8 -43 3 -14 7 -29 8 -35 1 -5 12 -32 24 -59 12 -27
22 -54 22 -60 0 -23 49 -82 83 -101 36 -19 36 -19 58 0 32 30 56 84 69 155 12
69 21 89 46 114 35 35 -18 123 -63 105z"/>
<path d="M7873 2113 c-21 -4 -57 -35 -93 -79 -37 -45 -63 -111 -68 -170 -4
-58 -3 -64 28 -102 22 -28 44 -43 73 -51 52 -13 78 -16 97 -9 8 3 42 14 75 24
33 10 74 31 91 46 l31 27 39 -40 c21 -22 48 -49 59 -60 70 -70 193 -93 273
-51 63 33 94 65 90 93 -4 29 -46 40 -60 16 -4 -9 -34 -23 -66 -33 -48 -14 -64
-14 -102 -5 -41 11 -90 44 -90 62 0 4 20 10 45 14 44 6 66 20 128 82 53 53 51
108 -5 159 -44 39 -146 52 -196 25 -46 -25 -73 -68 -83 -132 -5 -35 -15 -77
-21 -92 l-11 -28 -19 21 c-25 26 -37 25 -84 -6 -21 -14 -49 -28 -63 -30 -14
-3 -37 -7 -51 -10 -17 -3 -38 3 -60 19 -31 20 -35 28 -34 65 1 76 72 162 138
167 10 1 25 13 34 27 28 47 -11 67 -95 51z m491 -141 c21 -16 25 -42 6 -42 -5
0 -36 -19 -68 -41 -65 -45 -92 -46 -92 -5 0 34 18 79 37 94 24 18 91 15 117
-6z"/>
<path d="M6370 2090 c0 -4 -17 -12 -38 -18 -62 -19 -89 -58 -97 -139 -6 -62
-5 -75 18 -119 14 -27 36 -58 49 -69 25 -22 109 -51 173 -60 22 -4 56 -10 75
-16 50 -13 48 -14 72 36 21 42 21 46 5 62 -14 14 -20 15 -44 3 -52 -24 -172
-1 -224 44 -29 24 -13 39 60 55 69 15 131 65 131 105 0 30 -33 72 -73 93 -36
18 -107 34 -107 23z m78 -112 c-2 -5 -29 -21 -60 -33 -57 -23 -57 -23 -64 -3
-8 26 14 48 57 57 36 8 73 -3 67 -21z"/>
<path d="M6790 2070 c0 -5 -11 -10 -24 -10 -28 0 -38 -11 -72 -76 -22 -43 -24
-57 -18 -114 7 -73 27 -116 58 -124 39 -10 50 15 37 83 -25 126 13 177 122
166 101 -11 162 29 105 69 -26 18 -208 23 -208 6z"/>
<path d="M7520 1968 c-6 -29 -14 -60 -17 -68 -3 -8 -7 -22 -9 -30 -3 -17 33
-60 51 -60 12 0 35 41 35 62 0 6 7 19 15 28 13 14 12 22 -2 68 -14 42 -21 52
-39 52 -18 0 -24 -9 -34 -52z"/>
<path d="M11314 2430 c-107 -4 -156 -9 -167 -19 -21 -16 -21 -61 -3 -122 8
-25 14 -81 14 -125 1 -43 6 -113 11 -154 13 -89 18 -421 9 -500 -19 -150 -21
-183 -20 -284 2 -100 -1 -116 -28 -185 -29 -74 -55 -251 -45 -303 7 -33 22
-38 135 -38 114 -1 215 -6 270 -15 54 -9 118 -13 340 -25 113 -6 216 -13 230
-16 50 -8 243 -15 580 -19 190 -3 406 -6 480 -7 166 -2 641 11 965 27 218 11
424 18 525 17 276 -3 526 -14 548 -24 20 -11 26 -8 47 18 13 16 22 36 19 44
-21 55 -31 318 -35 900 -1 151 -6 322 -11 380 -10 121 -35 239 -56 259 -11 11
-50 13 -220 7 -210 -7 -300 -12 -384 -21 -26 -3 -49 -1 -53 4 -4 7 -14 6 -30
-1 -13 -6 -32 -7 -42 -3 -10 4 -56 9 -103 11 -98 4 -411 24 -455 29 -104 11
-217 27 -260 36 -27 6 -60 12 -72 14 -12 2 -26 6 -32 9 -5 4 -54 11 -108 16
-166 17 -406 41 -440 45 -18 2 -37 6 -43 10 -5 3 -193 8 -418 11 -336 3 -837
17 -967 27 -16 1 -98 0 -181 -3z m301 -102 c165 -4 329 -10 365 -14 36 -3 72
-5 80 -5 87 3 544 0 645 -4 136 -6 181 -10 255 -25 52 -11 132 -18 283 -25 59
-3 127 -9 151 -15 24 -5 68 -12 98 -16 29 -3 67 -9 83 -14 39 -11 179 -31 225
-32 8 0 62 -6 120 -13 160 -21 707 -34 732 -19 4 3 95 7 202 10 181 5 195 4
204 -13 11 -21 24 -96 23 -132 -1 -13 4 -42 11 -65 8 -29 12 -200 13 -576 1
-294 5 -554 9 -577 l8 -43 -34 0 c-18 -1 -86 -3 -151 -6 -66 -3 -149 -1 -185
5 -86 14 -106 15 -227 6 -55 -3 -129 -8 -166 -9 -36 -2 -75 -9 -88 -15 -18
-10 -34 -10 -72 -1 -26 7 -65 9 -86 6 -21 -4 -51 -2 -68 2 -16 5 -46 5 -65 1
-19 -4 -102 -10 -185 -13 -82 -3 -208 -9 -280 -12 -152 -8 -468 -8 -965 0
-371 6 -420 8 -591 25 -57 6 -151 13 -209 16 -58 2 -143 9 -190 15 -47 5 -126
10 -177 10 -50 0 -94 4 -98 10 -3 5 -15 6 -27 1 -34 -12 -68 -1 -74 25 -9 35
12 198 31 233 11 22 16 73 20 193 3 90 9 195 15 233 15 113 22 414 10 470 -14
65 -30 378 -20 385 12 7 42 7 375 -2z"/>
<path d="M11774 1999 c-3 -5 -12 -9 -21 -9 -27 0 -82 -49 -98 -87 -14 -34 -14
-38 9 -77 28 -48 85 -91 187 -143 94 -47 154 -96 168 -135 10 -29 9 -33 -31
-71 l-42 -40 -69 7 c-95 9 -147 52 -147 122 0 29 -21 40 -49 24 -59 -31 -26
-126 62 -178 65 -39 108 -51 175 -48 60 3 141 48 156 88 6 15 14 28 18 28 11
0 10 54 -2 85 -18 48 -74 107 -143 151 -37 24 -70 44 -74 44 -11 0 -108 67
-128 89 -42 47 11 71 154 71 66 0 91 -4 118 -20 44 -26 45 -26 67 11 19 32 19
32 -5 50 -13 11 -40 23 -59 29 -48 13 -239 20 -246 9z"/>
<path d="M13438 1735 c-17 -37 21 -75 74 -75 36 0 39 2 32 23 -22 72 -83 102
-106 52z"/>
<path d="M12823 1667 c-41 -15 -77 -45 -93 -77 -7 -14 -24 -38 -39 -53 -32
-35 -35 -102 -7 -162 27 -58 51 -69 80 -40 12 12 15 32 12 88 -4 62 -1 78 20
118 21 38 32 47 70 57 107 29 147 2 170 -116 2 -12 13 -38 24 -57 11 -20 20
-42 20 -50 0 -25 42 -55 77 -55 27 0 37 6 53 33 23 37 42 87 65 169 14 51 18
57 48 63 33 8 57 22 57 35 0 14 -70 50 -95 50 -35 0 -67 -57 -91 -157 -19 -82
-29 -98 -53 -83 -12 7 -45 106 -58 172 -3 14 -16 37 -30 50 -21 20 -36 23
-111 25 -50 1 -101 -3 -119 -10z"/>
<path d="M12382 1661 c-39 -7 -92 -49 -92 -73 0 -9 -11 -30 -25 -46 -30 -35
-31 -70 -7 -132 18 -48 97 -130 125 -130 9 0 19 -5 22 -10 11 -18 155 -5 203
19 45 23 47 27 32 65 -12 33 -30 33 -80 1 -70 -44 -152 -29 -194 35 -14 22
-26 44 -26 49 0 5 25 12 55 16 55 6 131 30 173 53 47 27 20 102 -50 138 -47
24 -74 27 -136 15z m79 -76 c33 -17 30 -35 -5 -35 -12 0 -27 -5 -33 -11 -13
-13 -55 -8 -60 8 -5 15 32 53 52 53 9 0 29 -7 46 -15z"/>
<path d="M13911 1634 c-25 -7 -55 -24 -69 -36 -25 -24 -77 -117 -69 -125 3 -2
2 -17 -3 -32 -11 -40 37 -115 87 -137 72 -32 223 -14 223 26 0 6 13 10 29 10
24 0 29 -5 35 -30 7 -39 44 -73 114 -106 50 -24 64 -26 134 -21 42 3 91 12
109 21 18 9 40 16 50 16 10 0 34 9 53 21 42 25 47 54 11 71 -21 9 -37 6 -104
-20 -105 -42 -184 -44 -248 -7 -51 31 -58 61 -15 71 15 4 32 10 37 14 6 3 20
7 32 8 13 0 35 8 50 16 16 9 35 18 43 21 8 4 27 32 42 63 21 44 25 60 16 76
-31 62 -118 75 -202 30 -58 -31 -91 -66 -105 -115 -8 -27 -21 -41 -45 -53 -19
-9 -38 -16 -44 -16 -5 0 -23 -7 -38 -15 -44 -23 -87 -28 -132 -16 -36 10 -41
15 -47 49 -12 72 36 140 103 146 48 5 72 20 72 47 0 20 -29 40 -57 38 -10 -1
-38 -7 -62 -15z m479 -104 c0 -11 -32 -46 -62 -69 -24 -18 -87 -31 -94 -20
-10 16 24 57 64 78 40 22 92 27 92 11z"/>
<path d="M13502 1548 c-29 -59 -45 -135 -36 -174 8 -32 14 -40 37 -42 17 -2
27 2 28 10 1 7 2 27 4 43 1 17 10 58 20 92 14 51 15 66 5 78 -18 22 -45 18
-58 -7z"/>
</g>
</svg>
