<?xml version="1.0" standalone="no"?>
<!DOCTYPE svg PUBLIC "-//W3C//DTD SVG 20010904//EN"
 "http://www.w3.org/TR/2001/REC-SVG-20010904/DTD/svg10.dtd">
<svg version="1.0" xmlns="http://www.w3.org/2000/svg"
 width="1509.423768pt" height="400.000000pt" viewBox="0 0 1509.423768 400.000000"
 preserveAspectRatio="xMidYMid meet">
<metadata>
Created by potrace 1.15, written by Peter Selinger 2001-2017
</metadata>
<g transform="translate(-50.503179,415.015307) scale(0.062387,-0.062387)"
fill="#444444" stroke="none">
<path d="M21761 6639 c-22 -18 -23 -20 -12 -106 15 -110 17 -273 6 -337 -7
-45 -6 -50 16 -67 28 -21 82 -25 97 -6 5 6 13 28 16 47 4 19 14 52 23 73 36
84 105 15 104 -104 0 -55 2 -60 30 -74 23 -12 34 -13 50 -4 20 10 21 17 15 70
-10 96 -40 168 -90 217 -35 33 -52 42 -79 42 -19 0 -40 -7 -47 -15 -16 -20
-36 -19 -44 1 -9 23 -7 143 3 184 11 47 -1 75 -36 88 -23 8 -33 6 -52 -9z"/>
<path d="M20125 6613 c-14 -14 -16 -30 -10 -107 4 -50 11 -110 15 -134 4 -23
8 -88 9 -143 1 -55 5 -107 8 -115 3 -8 0 -20 -6 -28 -27 -33 16 -64 64 -46
l28 11 -8 92 c-4 51 -8 110 -10 132 -27 335 -30 355 -55 355 -10 0 -26 -7 -35
-17z"/>
<path d="M19067 6493 c-7 -15 -5 -33 7 -65 21 -55 27 -174 8 -170 -17 3 -82
-25 -82 -36 0 -15 33 -40 63 -47 15 -4 29 -10 31 -14 2 -3 1 -48 -3 -99 -7
-104 2 -132 43 -132 33 0 45 20 44 71 0 36 5 126 11 162 0 4 25 7 55 7 70 0
89 19 56 55 -16 17 -35 25 -69 27 l-46 3 -3 40 c-2 35 -26 162 -38 206 -7 25
-64 19 -77 -8z"/>
<path d="M5946 6441 c-17 -18 -17 -23 -3 -68 9 -26 18 -64 21 -83 3 -19 10
-60 16 -90 7 -30 14 -95 17 -143 5 -87 5 -89 -15 -78 -16 8 -33 8 -66 -1 -75
-20 -148 11 -163 69 -8 33 29 65 94 84 52 14 58 21 41 49 -23 36 -52 35 -122
-5 -82 -49 -114 -99 -97 -154 16 -50 31 -67 90 -99 48 -27 55 -28 123 -20 43
5 80 16 91 26 18 16 28 11 39 -20 2 -4 19 -9 38 -10 l35 -3 2 72 c3 84 31 153
63 153 11 0 37 -18 58 -41 38 -39 46 -59 58 -148 6 -44 55 -54 80 -16 11 17
10 26 -5 57 -10 20 -22 49 -25 65 -10 39 -62 118 -98 148 -36 31 -70 32 -115
4 -29 -18 -37 -19 -44 -8 -5 8 -8 21 -7 29 0 8 -2 26 -5 40 -3 14 -14 59 -23
100 -15 68 -36 110 -54 110 -4 0 -15 -9 -24 -19z"/>
<path d="M3561 6424 c-14 -16 -13 -23 14 -139 10 -45 16 -117 16 -200 0 -143
10 -178 49 -168 30 8 37 29 36 106 -1 58 1 67 17 67 10 0 26 -15 37 -32 20
-35 87 -94 132 -117 32 -17 58 -2 58 33 1 21 1 21 13 1 31 -54 64 -86 96 -97
56 -19 104 -7 179 46 34 24 42 35 40 56 -3 21 -8 25 -36 23 -18 0 -41 -8 -51
-17 -39 -35 -107 -37 -132 -5 -23 30 -16 39 29 39 47 0 129 50 143 87 8 21 6
30 -9 47 -11 12 -22 28 -25 37 -3 9 -25 26 -49 38 -36 17 -50 19 -79 11 -69
-19 -117 -101 -119 -202 l0 -37 -44 25 c-24 13 -56 43 -72 66 -27 39 -28 42
-10 52 34 21 66 47 66 56 0 16 -32 40 -53 40 -12 0 -44 -11 -71 -25 -28 -14
-53 -22 -57 -18 -10 12 -44 165 -41 187 3 23 -25 56 -47 56 -9 -1 -22 -8 -30
-16z m527 -274 c15 -24 8 -40 -16 -40 -9 0 -26 -7 -36 -15 -29 -22 -39 -18
-31 13 14 57 59 80 83 42z"/>
<path d="M4736 6427 c-18 -13 -17 -16 1 -85 11 -39 18 -74 15 -77 -3 -3 -26
-5 -51 -5 -73 0 -118 -45 -72 -70 11 -5 42 -10 70 -10 l51 0 0 -62 c0 -35 -4
-80 -9 -100 -7 -31 -5 -42 10 -62 17 -21 23 -23 47 -15 28 9 28 10 30 106 3
114 10 131 50 125 37 -5 72 13 72 37 0 27 -23 42 -71 47 -23 2 -44 5 -46 7 -1
2 -7 27 -13 55 -13 68 -36 122 -53 122 -7 0 -21 -6 -31 -13z"/>
<path d="M17414 6429 c-3 -6 1 -52 10 -102 33 -196 46 -296 46 -366 0 -63 2
-72 16 -67 9 3 26 6 38 6 32 0 48 38 31 70 -7 14 -12 28 -9 31 2 3 -3 48 -10
100 -8 52 -14 101 -14 109 -1 51 -26 207 -34 218 -13 15 -64 16 -74 1z"/>
<path d="M3190 6415 c-8 -10 -10 -29 -5 -57 4 -24 8 -110 10 -193 4 -178 10
-224 33 -241 24 -19 29 -17 47 10 12 18 14 30 6 44 -11 20 -11 35 -11 267 0
140 -2 151 -21 168 -26 21 -43 22 -59 2z"/>
<path d="M2593 6390 c-15 -6 -24 -21 -29 -46 -7 -37 11 -139 25 -149 19 -11
-3 -54 -37 -71 -46 -24 -69 -50 -81 -92 -12 -39 2 -79 31 -87 10 -4 18 -11 18
-16 0 -18 104 -10 137 11 37 22 67 63 60 82 -2 7 0 24 5 36 6 19 3 30 -17 54
-32 37 -65 147 -68 223 -3 62 -8 69 -44 55z m40 -342 c37 -18 29 -32 -24 -39
-54 -8 -80 8 -54 35 20 19 42 20 78 4z"/>
<path d="M16808 6383 c-14 -16 -14 -28 -3 -98 7 -44 11 -84 8 -88 -3 -4 0 -13
5 -20 6 -7 12 -26 14 -42 3 -29 2 -30 -55 -36 -50 -6 -63 -12 -92 -42 -37 -39
-51 -88 -41 -141 8 -41 29 -61 82 -75 52 -14 123 8 157 49 13 15 33 33 45 39
19 10 22 20 22 73 0 46 -5 67 -18 82 -19 21 -41 120 -46 211 -6 94 -39 132
-78 88z m46 -374 c19 -18 19 -19 1 -39 -23 -26 -78 -50 -111 -50 -20 0 -24 5
-24 33 0 40 8 52 45 71 33 18 61 13 89 -15z"/>
<path d="M17817 6364 c-23 -12 -27 -20 -22 -37 26 -84 33 -187 22 -340 l-8
-107 26 -12 c31 -14 59 -1 61 28 1 10 3 39 5 64 1 25 4 48 6 53 3 4 28 -13 56
-39 76 -69 128 -82 163 -43 18 20 18 21 -1 36 -11 8 -36 22 -55 30 -33 14 -90
66 -90 81 0 7 89 57 102 57 18 0 48 37 48 59 0 36 -41 42 -109 15 -31 -12 -63
-28 -72 -36 -8 -7 -21 -13 -27 -13 -12 0 -14 6 -31 119 -11 69 -24 102 -40
101 -3 -1 -19 -8 -34 -16z"/>
<path d="M16235 6360 c-44 -3 -91 -11 -105 -17 -14 -6 -47 -13 -73 -17 -37 -6
-51 -13 -59 -31 -25 -56 23 -77 111 -50 87 26 96 21 94 -50 -2 -98 -12 -195
-22 -213 -5 -10 -35 -26 -66 -36 -50 -18 -56 -22 -53 -45 3 -24 7 -26 53 -26
88 1 305 45 305 62 0 2 -5 13 -10 24 -8 15 -21 19 -60 19 -66 0 -83 18 -75 78
3 26 6 77 7 115 1 92 18 112 92 104 29 -3 60 -1 69 4 29 17 20 45 -20 62 -50
21 -92 25 -188 17z"/>
<path d="M1980 6338 c-62 -11 -80 -22 -80 -49 0 -30 47 -47 118 -41 l62 4 2
-38 c1 -22 2 -69 3 -105 l1 -66 -91 -29 c-82 -26 -90 -31 -93 -56 -3 -22 2
-29 22 -34 15 -3 43 -3 64 1 20 5 54 9 75 11 52 3 143 51 178 93 16 20 29 39
29 42 0 15 -46 17 -74 4 -16 -8 -30 -14 -32 -13 -1 2 -4 48 -6 103 l-3 100 27
0 c16 0 34 10 47 27 l22 27 -30 16 c-34 17 -152 19 -241 3z"/>
<path d="M21555 6334 c-48 -24 -102 -83 -109 -117 -10 -51 20 -124 63 -153 35
-23 41 -24 91 -13 35 7 65 22 88 43 31 29 33 35 23 54 -14 26 -49 29 -92 6
-38 -19 -73 -15 -77 9 -6 28 39 87 66 87 31 0 82 27 82 43 0 19 -55 57 -82 57
-13 0 -36 -7 -53 -16z"/>
<path d="M16584 6326 c-29 -13 -84 -99 -84 -130 0 -32 36 -59 60 -46 10 5 23
23 28 40 6 16 22 45 36 63 l25 33 -22 25 c-18 21 -26 24 -43 15z"/>
<path d="M17621 6308 c-11 -29 -9 -35 10 -50 32 -26 48 -23 78 15 12 15 11 21
-9 42 -34 36 -65 33 -79 -7z"/>
<path d="M20945 6284 c-14 -33 -30 -67 -36 -77 -5 -10 -20 -37 -31 -59 -18
-34 -23 -37 -31 -23 -5 9 -10 49 -11 87 -1 64 -4 73 -27 90 -23 17 -29 18 -47
7 -29 -18 -30 -30 -14 -134 11 -72 19 -96 40 -119 60 -63 107 -53 158 33 l33
54 14 -34 c29 -69 77 -91 99 -44 9 20 7 33 -11 74 -11 27 -21 67 -21 88 0 38
-31 103 -49 103 -5 0 -17 3 -25 6 -12 5 -22 -8 -41 -52z"/>
<path d="M20534 6315 c-10 -8 -25 -15 -33 -15 -15 0 -147 -64 -172 -83 -23
-18 -60 -107 -57 -137 4 -37 49 -70 105 -77 61 -7 106 18 162 88 l39 49 41
-45 c22 -24 41 -49 41 -55 0 -5 16 -10 35 -10 28 0 36 4 41 24 7 28 -17 78
-45 98 -21 15 -71 107 -71 131 0 14 -40 47 -58 47 -4 0 -17 -7 -28 -15z m-55
-155 c-13 -22 -38 -50 -57 -62 -31 -19 -35 -19 -50 -5 -15 15 -14 19 9 43 22
24 110 75 118 68 1 -1 -7 -21 -20 -44z"/>
<path d="M2348 6283 c-32 -36 -78 -115 -78 -136 0 -18 41 -33 65 -23 9 3 18
14 22 23 4 10 17 35 30 55 25 41 30 77 11 96 -17 17 -21 16 -50 -15z"/>
<path d="M21221 6295 c-18 -8 -46 -15 -61 -15 -33 0 -39 -13 -40 -80 0 -70 10
-124 28 -137 37 -30 85 -4 80 44 -3 38 14 81 38 92 21 9 26 7 41 -16 11 -16
18 -48 19 -78 2 -87 1 -85 37 -85 25 0 37 6 47 24 29 55 -24 210 -84 247 -37
22 -59 23 -105 4z"/>
<path d="M3357 6286 c-12 -10 -17 -24 -15 -43 2 -22 9 -29 30 -31 44 -5 69 14
62 46 -11 43 -42 54 -77 28z"/>
<path d="M18359 6260 c-20 -4 -50 -17 -67 -31 -53 -42 -121 -206 -93 -223 6
-4 11 -16 11 -28 0 -11 15 -35 33 -53 73 -73 195 -66 292 18 40 35 40 35 21
56 -23 25 -58 27 -77 5 -37 -45 -140 -57 -176 -21 -14 13 -13 16 8 22 69 19
173 72 203 104 27 28 27 30 12 57 -41 76 -95 106 -167 94z m61 -96 c17 -19 2
-35 -58 -58 -77 -29 -88 -13 -33 47 29 30 71 36 91 11z"/>
<path d="M19443 6229 c-24 -11 -43 -25 -43 -32 0 -7 -9 -23 -19 -36 -10 -14
-17 -30 -14 -37 2 -7 -9 -20 -25 -28 -38 -20 -48 -53 -18 -62 11 -4 33 -17 48
-30 68 -56 183 -58 238 -3 28 29 31 36 25 73 -11 67 -58 139 -103 159 -45 20
-36 20 -89 -4z m84 -101 c45 -42 21 -88 -46 -88 -31 0 -43 21 -21 35 7 4 7 12
1 23 -7 12 -5 22 6 34 21 23 32 23 60 -4z"/>
<path d="M5072 6209 c-19 -6 -37 -20 -44 -34 -6 -14 -15 -25 -19 -25 -14 0
-29 -73 -23 -110 3 -19 11 -42 17 -50 18 -23 95 -45 151 -43 58 1 93 24 119
75 15 30 15 39 4 60 -18 35 -64 79 -114 111 -47 30 -44 29 -91 16z m102 -121
l26 -33 -25 -22 c-27 -23 -69 -30 -93 -14 -19 12 -20 80 -2 92 31 19 68 10 94
-23z"/>
<path d="M6510 6197 c-34 -13 -75 -41 -107 -72 -49 -47 -52 -54 -49 -90 6 -61
14 -73 62 -91 57 -22 104 -9 157 42 l38 37 16 -23 c42 -60 70 -73 93 -45 11
13 15 14 29 1 24 -21 58 -29 67 -15 8 13 15 69 14 112 -1 46 17 68 48 60 33
-8 69 -32 78 -53 15 -35 22 -85 13 -96 -12 -14 19 -43 51 -46 19 -3 25 3 32
31 9 34 9 34 21 11 17 -34 74 -70 112 -70 32 0 125 53 125 71 0 5 4 9 8 9 15
0 32 -98 32 -179 0 -96 -17 -121 -83 -121 -62 1 -117 54 -102 100 4 13 -1 22
-15 30 -48 26 -82 -37 -53 -98 40 -84 116 -128 197 -115 l40 6 -16 -25 c-14
-21 -14 -31 -3 -74 7 -27 16 -73 20 -102 l7 -54 -58 7 c-107 11 -102 7 -103
75 0 33 -6 70 -12 81 -6 12 -9 34 -5 49 4 24 1 29 -20 34 -21 6 -64 -7 -64
-19 0 -2 7 -35 15 -74 20 -98 18 -141 -9 -142 -106 -2 -146 -13 -146 -40 0
-17 60 -39 108 -39 27 0 51 -2 53 -5 3 -2 2 -32 -1 -65 -6 -59 -5 -63 21 -81
37 -26 61 -15 58 25 -1 17 -1 52 0 79 l1 47 54 0 c42 0 58 5 79 24 l26 24 10
-51 c5 -29 10 -70 10 -91 1 -53 19 -71 54 -55 15 7 28 17 28 23 1 6 3 18 3 26
8 71 20 131 29 137 20 12 42 -31 74 -149 5 -21 61 -38 85 -27 29 15 63 10 76
-12 23 -36 97 -61 176 -61 76 1 100 16 94 57 -3 17 -11 20 -53 21 -72 1 -125
13 -143 31 -17 17 -7 28 38 39 45 12 90 52 90 82 -1 46 -53 92 -105 92 -57 0
-120 -61 -129 -128 -3 -17 -34 -42 -53 -42 -7 0 -17 19 -23 41 -14 51 -51 112
-82 133 -29 20 -57 20 -86 0 -13 -9 -25 -14 -27 -12 -2 2 -7 50 -11 107 -6 89
-10 104 -26 109 -25 6 -23 14 11 34 26 14 31 24 38 80 9 78 9 124 0 208 -8 65
-8 65 10 39 10 -15 33 -39 52 -55 30 -25 41 -28 102 -27 110 2 159 28 159 84
0 14 -59 11 -105 -5 -43 -16 -76 -12 -112 12 -27 17 -29 31 -5 38 49 17 100
45 121 68 19 20 23 32 18 60 -9 58 -39 81 -102 80 -52 0 -57 -3 -100 -47 -25
-26 -45 -53 -45 -60 0 -7 -6 -21 -13 -31 -12 -17 -16 -13 -41 37 -32 66 -60
77 -134 53 -79 -27 -110 -51 -136 -108 l-24 -53 -19 40 c-43 90 -64 114 -125
144 -56 29 -62 30 -93 16 -19 -7 -43 -11 -53 -8 -28 7 -51 -31 -46 -73 2 -19
6 -50 8 -69 3 -23 1 -35 -7 -35 -16 0 -67 78 -67 101 0 10 -4 21 -10 24 -5 3
-10 17 -10 30 0 61 -34 70 -130 32z m1046 -71 c21 -16 15 -25 -29 -44 -23 -10
-29 -9 -34 3 -5 15 22 55 37 55 3 0 15 -6 26 -14z m-1016 -33 c-1 -26 -33 -61
-65 -69 -24 -6 -26 -4 -23 17 2 15 17 32 43 46 48 27 45 27 45 6z m731 -20
c-5 -10 -16 -34 -24 -54 -15 -35 -45 -51 -75 -41 -19 6 -14 36 9 66 33 42 109
66 90 29z"/>
<path d="M3405 6169 l-27 -22 7 -101 c4 -56 12 -104 17 -107 13 -8 56 1 67 15
8 10 6 40 -15 194 -3 23 -9 42 -13 42 -5 0 -21 -10 -36 -21z"/>
<path d="M17665 6096 c-17 -12 -20 -26 -20 -103 0 -48 3 -98 6 -109 10 -27 42
-36 68 -17 17 12 20 21 14 58 -4 30 0 57 11 85 14 35 14 46 4 68 -15 32 -53
40 -83 18z"/>
<path d="M21716 5774 c-19 -18 -20 -74 -6 -172 5 -37 11 -118 13 -180 4 -96 7
-115 23 -127 26 -20 51 -18 63 4 6 10 9 20 7 22 -7 8 -36 421 -30 430 2 4 1
14 -2 23 -8 21 -48 21 -68 0z"/>
<path d="M20187 5742 c-26 -27 -28 -34 -33 -158 -3 -71 -7 -134 -9 -141 -3 -8
-15 -9 -39 -3 -58 13 -127 -25 -165 -92 -41 -71 -42 -129 -3 -156 62 -44 148
-35 262 27 66 36 89 56 90 78 0 7 -14 36 -31 64 l-32 51 6 131 c3 73 11 149
18 170 11 32 10 40 -2 48 -23 14 -34 11 -62 -19z m-63 -393 c24 -11 42 -48 28
-60 -6 -6 -137 -49 -148 -49 -14 0 0 57 22 86 28 36 54 42 98 23z"/>
<path d="M2545 5746 c-17 -12 -17 -17 -5 -45 7 -18 13 -62 14 -99 l1 -67 -85
0 c-47 0 -91 -4 -97 -8 -7 -5 -13 -21 -13 -36 0 -36 32 -51 108 -51 78 0 86
-7 78 -64 -3 -25 -9 -66 -12 -90 -6 -41 -5 -44 21 -50 17 -4 35 -2 49 7 19 13
21 24 21 103 l0 89 47 0 c34 0 51 5 60 18 12 16 16 4 32 -89 17 -96 23 -110
53 -140 19 -19 38 -34 44 -34 21 0 56 51 78 114 13 36 27 66 32 66 6 0 18 -20
29 -44 12 -29 30 -51 50 -61 54 -28 80 3 129 156 16 50 14 56 -16 63 -34 9
-51 -8 -67 -70 -7 -27 -18 -49 -24 -49 -6 0 -26 25 -44 55 -38 63 -63 72 -108
40 -21 -15 -30 -30 -30 -49 0 -16 -7 -46 -16 -67 l-16 -39 -13 40 c-7 22 -15
69 -18 104 -3 40 -11 70 -22 80 -15 15 -18 14 -37 -9 -14 -16 -22 -21 -25 -12
-3 7 -24 12 -59 12 -62 0 -60 -4 -68 130 -3 65 -8 87 -22 97 -22 16 -26 16
-49 -1z"/>
<path d="M21045 5699 c-4 -11 -2 -33 3 -47 27 -71 21 -121 -13 -108 -25 9 -52
-2 -58 -24 -6 -25 32 -60 65 -60 31 0 41 -20 32 -66 -11 -57 4 -122 32 -140
22 -15 26 -15 50 1 18 11 23 21 18 33 -3 9 -8 54 -10 100 l-4 82 26 0 c27 0
84 26 84 38 0 24 -30 45 -74 49 -33 4 -46 10 -42 19 5 13 -6 53 -30 112 -11
26 -19 32 -43 32 -21 0 -32 -6 -36 -21z"/>
<path d="M5203 5645 c-18 -13 -20 -20 -13 -47 16 -59 49 -261 54 -333 4 -49
11 -74 23 -82 23 -17 37 -16 56 5 12 14 14 27 6 67 -4 28 -18 113 -29 190 -34
224 -41 239 -97 200z"/>
<path d="M21888 5649 c-23 -13 -23 -30 3 -63 23 -29 72 -36 102 -13 16 11 16
14 0 47 -15 29 -24 35 -53 37 -19 2 -43 -2 -52 -8z"/>
<path d="M4306 5539 l-26 -21 21 -29 c25 -35 54 -37 92 -6 l28 22 -23 21 c-36
34 -61 37 -92 13z"/>
<path d="M18307 5533 c-8 -16 -20 -46 -27 -68 -7 -22 -16 -44 -20 -50 -3 -5
-7 -20 -8 -33 -1 -31 -31 -120 -42 -127 -5 -3 -20 14 -35 38 -38 65 -58 80
-95 72 -28 -6 -37 -17 -65 -78 l-33 -70 -8 34 c-4 19 -8 39 -9 44 -5 55 -19
122 -27 133 -6 6 -23 12 -38 12 -15 0 -32 -6 -38 -12 -12 -15 -11 -70 1 -79 4
-3 10 -25 13 -50 3 -24 9 -48 13 -54 5 -5 11 -27 15 -47 9 -48 57 -90 99 -86
27 3 33 10 58 68 15 35 31 66 37 68 5 1 24 -20 43 -47 84 -124 145 -69 203
182 9 37 23 81 31 97 23 44 11 80 -26 80 -21 0 -32 -7 -42 -27z"/>
<path d="M18933 5536 c-118 -37 -204 -143 -142 -176 11 -7 27 -9 34 -6 19 7
27 -8 27 -51 0 -23 -6 -39 -16 -45 -23 -13 -20 -41 7 -66 20 -19 22 -29 21
-124 0 -57 -6 -120 -13 -140 -16 -49 -1 -81 37 -76 44 5 53 37 50 187 l-2 135
57 13 c70 16 106 33 145 72 l30 30 12 -29 c7 -16 24 -37 38 -46 25 -16 26 -16
44 6 12 15 18 39 18 70 0 46 28 132 47 142 4 3 46 1 92 -3 95 -10 105 -5 96
46 -7 40 -14 44 -71 50 -56 6 -88 11 -124 20 -39 10 -67 -20 -94 -99 -32 -91
-39 -95 -62 -44 -27 61 -89 125 -127 133 -18 4 -39 8 -47 10 -8 2 -34 -2 -57
-9z m126 -121 c17 -20 31 -46 31 -59 0 -42 -107 -117 -145 -102 -11 4 -15 22
-15 78 0 110 4 118 55 118 37 0 48 -5 74 -35z"/>
<path d="M22185 5531 c-31 -14 -45 -29 -63 -67 -13 -27 -28 -58 -34 -69 -6
-11 -13 -52 -16 -92 l-5 -72 37 -6 c58 -11 66 -3 66 64 0 42 7 75 25 112 l24
53 12 -30 c6 -16 16 -59 22 -96 12 -77 40 -115 76 -103 19 6 26 24 24 60 -3
41 -46 221 -53 223 -6 2 -16 10 -23 17 -23 23 -51 25 -92 6z"/>
<path d="M22525 5543 c-42 -10 -83 -52 -100 -103 -10 -31 -28 -59 -47 -73 -26
-21 -29 -27 -19 -45 11 -21 46 -38 69 -34 6 2 12 -2 12 -8 0 -5 16 -28 35 -49
44 -49 99 -62 140 -35 15 10 41 25 58 34 30 16 51 58 38 77 -12 19 -41 22 -70
7 -45 -22 -105 -31 -99 -14 5 15 17 22 65 40 25 10 33 19 38 49 8 49 -26 126
-65 146 -16 8 -30 14 -32 14 -2 -1 -12 -4 -23 -6z"/>
<path d="M20624 5520 c-25 -10 -53 -51 -52 -76 3 -29 -49 -99 -88 -120 -35
-19 -36 -19 -50 1 -8 11 -12 31 -10 45 3 14 8 46 12 71 6 47 6 47 -26 54 -28
6 -36 3 -56 -21 -18 -23 -23 -41 -24 -87 0 -32 6 -72 14 -90 15 -36 75 -87
103 -87 34 0 120 48 142 79 12 17 26 31 31 31 8 0 21 -33 24 -60 1 -18 86 -28
86 -10 0 15 36 4 73 -22 32 -23 61 -20 156 19 63 26 63 26 57 61 -8 52 -19 58
-60 34 -25 -15 -50 -20 -88 -19 -47 2 -53 4 -56 26 -4 27 42 81 70 81 24 0 58
35 61 63 2 19 -3 22 -33 24 -19 2 -59 -7 -89 -20 -42 -17 -58 -31 -75 -62 -39
-73 -40 -74 -48 -30 -4 22 -7 59 -7 83 -1 37 -4 42 -23 41 -13 0 -32 -4 -44
-9z"/>
<path d="M4743 5498 c-12 -6 -24 -20 -27 -32 -7 -29 -61 -80 -76 -71 -6 4 -15
18 -20 31 -13 34 -38 41 -62 16 -25 -25 -19 -57 17 -100 29 -34 25 -52 -19
-111 -33 -44 -33 -55 1 -70 26 -12 30 -11 55 20 16 18 28 39 28 45 0 28 28 18
65 -24 56 -63 90 -83 125 -70 16 5 31 16 34 25 7 17 -20 53 -39 53 -6 0 -23
12 -37 28 -14 15 -37 37 -52 49 -35 26 -30 43 30 117 46 57 52 74 32 94 -14
14 -26 14 -55 0z"/>
<path d="M5465 5489 c-16 -5 -48 -22 -70 -37 -68 -47 -58 -116 21 -154 63 -29
119 -81 111 -102 -6 -14 -18 -16 -78 -14 -60 2 -73 -1 -85 -17 -20 -27 -19
-29 24 -53 34 -19 46 -20 95 -12 165 27 183 120 41 218 -72 49 -86 75 -44 80
104 11 110 13 110 37 0 28 -43 65 -74 64 -11 0 -34 -5 -51 -10z"/>
<path d="M4020 5481 c-48 -10 -57 -16 -86 -63 -32 -50 -29 -83 8 -83 36 0 40
-6 44 -72 2 -32 9 -81 16 -110 6 -32 8 -74 3 -110 -14 -114 -14 -118 22 -121
45 -4 55 21 55 139 l0 99 42 12 c85 25 152 88 163 152 5 29 0 39 -38 78 -29
30 -63 52 -102 67 -61 22 -70 23 -127 12z m115 -101 c11 -5 30 -18 43 -30 l22
-21 -20 -29 c-22 -32 -94 -60 -109 -44 -5 5 -12 40 -16 77 l-7 69 34 -7 c18
-4 42 -11 53 -15z"/>
<path d="M19598 5474 c-39 -21 -60 -68 -66 -146 -4 -65 -4 -68 21 -77 14 -5
28 -18 31 -29 14 -43 91 -54 159 -22 75 37 100 66 105 124 3 44 0 56 -26 92
-16 22 -46 48 -65 57 -43 21 -123 21 -159 1z m149 -96 c13 -12 23 -29 23 -37
-1 -29 -39 -63 -86 -77 -62 -18 -65 -18 -59 9 3 12 2 34 -3 47 -11 29 3 67 27
73 40 11 76 6 98 -15z"/>
<path d="M16525 5450 c-10 -11 -23 -20 -28 -20 -18 0 -119 -72 -159 -114 -48
-49 -68 -86 -70 -129 -1 -44 14 -71 57 -97 50 -31 95 -29 136 7 56 46 109 105
109 120 0 24 27 13 55 -22 30 -40 95 -85 122 -85 55 1 55 58 0 86 -32 17 -86
71 -87 88 0 5 -8 14 -17 21 -11 9 -18 32 -21 76 -5 67 -19 88 -58 89 -11 0
-29 -9 -39 -20z m-33 -188 c-8 -27 -25 -47 -59 -71 -46 -33 -70 -34 -80 -4 -5
15 43 70 91 105 49 35 64 26 48 -30z"/>
<path d="M1971 5441 c-6 -11 -11 -31 -11 -44 0 -66 -115 -312 -177 -378 -40
-43 -43 -49 -31 -68 15 -24 21 -25 51 -9 48 25 91 97 156 262 45 112 80 231
70 240 -2 2 -14 7 -26 10 -16 5 -25 2 -32 -13z"/>
<path d="M3299 5453 c-24 -6 -79 -88 -85 -126 -8 -49 16 -110 46 -118 49 -14
91 -9 139 16 69 34 101 76 101 130 0 43 -1 44 -57 74 -53 29 -98 37 -144 24z
m106 -104 c18 -17 -63 -73 -91 -62 -17 6 -18 55 -1 72 13 13 74 7 92 -10z"/>
<path d="M4361 5421 c-24 -24 -24 -25 -11 -71 6 -19 11 -65 11 -102 0 -63 1
-66 26 -73 14 -3 30 -2 36 4 14 14 16 134 3 200 -12 63 -32 75 -65 42z"/>
<path d="M17269 5426 c-14 -6 -33 -17 -43 -25 -13 -11 -19 -11 -31 -1 -19 16
-61 5 -69 -17 -4 -10 2 -28 14 -46 17 -22 21 -40 19 -80 -5 -79 12 -116 53
-117 24 0 35 25 47 109 10 76 20 91 58 91 24 0 54 -37 59 -73 4 -34 24 -130
27 -131 1 -1 12 -7 24 -13 31 -18 46 -16 60 6 9 15 9 23 -2 37 -8 11 -15 27
-15 38 0 15 8 11 43 -20 104 -94 148 -114 200 -93 25 10 96 52 125 75 2 1 -1
12 -8 23 -13 25 -47 27 -77 6 -29 -21 -121 -24 -133 -5 -14 22 -12 28 13 35
100 29 173 96 148 137 -6 10 -11 24 -11 32 0 22 -89 48 -138 40 -50 -8 -116
-72 -127 -125 -4 -19 -13 -42 -20 -52 -12 -17 -17 -11 -48 55 -47 100 -107
141 -168 114z m401 -80 c0 -16 -22 -26 -53 -26 -22 1 -22 1 2 20 27 23 51 26
51 6z"/>
<path d="M21928 5423 c-28 -32 -49 -84 -46 -111 4 -34 50 -54 73 -31 21 20 31
110 16 137 -14 27 -23 27 -43 5z"/>
<path d="M6075 5420 c-11 -4 -35 -22 -52 -39 -25 -22 -33 -38 -33 -63 0 -19
-4 -38 -9 -43 -5 -6 -2 -30 8 -58 15 -47 25 -56 91 -87 20 -10 104 4 150 23
59 26 100 81 100 138 0 25 -10 42 -45 75 -59 57 -149 80 -210 54z m143 -102
c17 -11 32 -23 32 -28 0 -25 -17 -43 -61 -66 -52 -26 -65 -24 -110 14 -26 23
-25 66 4 85 46 30 78 29 135 -5z"/>
<path d="M5021 5400 c-42 -10 -80 -38 -106 -78 -11 -17 -32 -34 -47 -37 -15
-3 -32 -13 -40 -22 -11 -13 -7 -20 25 -47 23 -19 37 -40 37 -54 0 -18 11 -28
47 -44 59 -26 115 -25 171 4 55 28 99 77 80 89 -21 14 -49 11 -106 -11 -58
-22 -97 -26 -107 -10 -10 16 10 35 68 64 69 35 82 46 90 78 6 21 1 31 -24 52
-33 28 -36 28 -88 16z"/>
<path d="M6414 5382 c-51 -42 -64 -76 -59 -148 3 -38 10 -84 16 -102 10 -31
13 -33 42 -27 18 4 35 10 38 14 4 3 2 41 -3 85 -8 67 -7 81 6 94 14 15 19 13
54 -21 38 -37 79 -127 68 -146 -7 -11 24 -31 49 -31 27 0 36 45 18 87 -10 21
-18 45 -19 53 -1 8 -16 39 -35 68 -49 79 -128 113 -175 74z"/>
<path d="M22811 5286 c-19 -21 -21 -27 -10 -47 7 -13 15 -31 19 -39 9 -18 38
-14 63 7 22 21 23 88 1 97 -29 11 -50 6 -73 -18z"/>
<path d="M24654 5282 c-17 -9 -45 -25 -62 -34 -24 -14 -37 -16 -58 -8 -15 6
-72 10 -125 9 -83 -1 -104 2 -133 19 -20 12 -48 19 -63 18 -15 -2 -33 -4 -40
-5 -37 -3 -80 -89 -53 -106 6 -3 10 -17 10 -30 0 -14 10 -43 21 -65 18 -35 21
-53 17 -126 -4 -75 -7 -87 -31 -112 -15 -16 -27 -33 -27 -39 0 -5 -26 -27 -57
-48 -76 -49 -103 -75 -103 -96 0 -10 -11 -30 -24 -46 -13 -16 -26 -49 -30 -75
-4 -26 -12 -51 -18 -54 -17 -11 0 -192 22 -239 11 -22 42 -65 69 -95 28 -30
51 -61 51 -68 0 -15 78 -52 122 -57 17 -3 35 -8 42 -13 6 -5 36 -15 66 -22 30
-8 60 -18 67 -24 8 -8 9 -35 3 -98 -8 -80 -11 -91 -48 -140 -23 -29 -45 -65
-50 -79 -17 -43 -241 -357 -294 -411 -10 -10 -18 -22 -18 -28 0 -13 41 -50 56
-50 15 0 123 119 143 158 8 15 29 45 47 67 45 56 124 175 124 189 0 6 8 20 16
31 15 18 16 -3 10 -243 -3 -144 -10 -270 -15 -280 -5 -10 -8 -60 -7 -110 4
-103 -13 -193 -41 -226 -33 -37 -103 -144 -103 -156 0 -6 -13 -30 -29 -53 -16
-24 -36 -58 -45 -77 -9 -19 -29 -55 -46 -80 -16 -25 -33 -52 -37 -60 -3 -8
-17 -32 -30 -52 -39 -63 -89 -162 -96 -189 -5 -20 0 -33 19 -55 l25 -29 24 30
c14 17 32 53 41 80 10 28 20 52 24 55 5 4 122 191 155 248 146 254 172 291
194 277 6 -3 11 -13 11 -21 0 -17 100 -275 140 -359 16 -33 42 -89 58 -125 38
-83 69 -112 113 -108 46 4 50 31 11 72 -17 17 -56 87 -87 156 -31 69 -66 148
-79 175 -37 78 -78 204 -88 270 -5 33 -14 74 -20 90 -6 17 -11 44 -11 60 10
506 15 681 20 685 3 3 10 -3 17 -13 6 -11 44 -62 85 -115 40 -54 97 -128 126
-167 29 -38 78 -94 108 -123 l54 -54 32 16 c49 26 41 50 -48 137 -43 42 -95
101 -115 131 -21 29 -57 78 -82 108 -24 30 -72 96 -107 145 -61 89 -62 91 -65
169 -3 43 1 96 7 116 13 43 24 47 166 56 44 3 89 9 100 14 11 4 54 18 95 31
41 13 81 29 88 36 7 7 20 13 28 13 8 0 18 8 21 18 4 9 18 32 31 50 27 36 36
109 22 172 -5 19 -11 51 -13 70 -12 92 -32 168 -54 200 -20 30 -22 43 -17 90
5 46 2 62 -15 92 -12 20 -28 39 -35 41 -11 4 -46 60 -46 73 0 2 17 6 38 9 49
8 111 35 138 60 26 24 44 82 37 119 -7 37 -81 80 -123 71 -42 -9 -69 1 -63 25
8 28 -30 83 -75 108 -47 26 -48 26 -88 4z m-345 -174 c1 -10 -3 -18 -8 -18
-13 0 -51 50 -51 67 0 22 59 -27 59 -49z m177 -53 c16 -12 17 -14 2 -15 -23 0
-48 11 -48 21 0 14 24 11 46 -6z m418 -20 c-3 -17 -88 -54 -126 -55 -52 0 -49
23 5 43 74 27 123 32 121 12z m-604 -226 c0 -18 8 -34 20 -41 31 -20 24 -35
-31 -64 -40 -22 -55 -38 -75 -79 -30 -66 -30 -82 3 -150 21 -43 34 -57 60 -66
32 -10 32 -11 26 -57 -3 -26 -9 -50 -12 -54 -4 -4 -24 4 -45 19 -35 26 -39 26
-64 12 -37 -20 -38 -43 -8 -90 20 -29 33 -39 54 -39 43 0 54 -13 50 -56 -3
-38 -4 -39 -38 -36 -19 2 -42 10 -50 17 -8 7 -31 20 -51 28 -20 8 -52 32 -70
53 -19 20 -42 44 -51 53 -10 8 -18 26 -18 39 0 13 -5 32 -11 43 -9 17 -7 21
10 26 12 3 22 10 22 17 1 6 3 20 4 32 4 41 36 120 65 164 16 25 30 52 30 60 1
20 18 40 63 74 35 27 57 61 72 112 9 34 45 20 45 -17z m180 -25 c0 -63 -1 -65
-22 -58 -33 10 -33 10 -19 62 10 38 24 61 39 62 1 0 2 -30 2 -66z m130 19 c18
-27 50 -66 70 -88 21 -22 44 -52 51 -66 8 -14 29 -46 48 -72 47 -64 84 -178
77 -240 -3 -26 -1 -59 5 -73 18 -48 -7 -75 -91 -101 -41 -12 -95 -30 -120 -38
-25 -8 -61 -14 -80 -14 -19 1 -60 -8 -90 -18 -63 -22 -115 -18 -114 10 3 57 5
70 11 64 3 -4 8 -19 9 -34 3 -28 19 -43 45 -43 21 0 36 18 41 50 2 18 11 26
33 31 43 9 100 35 113 52 16 18 17 92 3 143 -7 26 -26 55 -52 79 -38 35 -40
41 -36 81 5 49 21 74 48 74 11 0 28 14 38 31 25 41 14 71 -29 83 -32 9 -32 11
-26 54 3 25 6 53 6 63 0 11 1 19 3 19 2 0 19 -21 37 -47z m-154 -225 c-3 -13
-6 -30 -6 -38 0 -8 -5 -22 -10 -30 -9 -13 -11 -13 -20 0 -11 17 -13 73 -3 83
3 4 15 7 26 7 15 0 18 -5 13 -22z m-134 -60 c-7 -7 -14 -3 -22 12 -10 18 -9
24 7 35 16 12 18 11 21 -12 2 -14 -1 -30 -6 -35z m93 -165 c-10 -67 -28 -92
-21 -29 3 27 6 55 6 62 0 8 5 14 11 14 8 0 9 -15 4 -47z m105 -39 c0 -13 -6
-24 -13 -24 -9 0 -12 10 -9 30 5 35 22 30 22 -6z"/>
<path d="M9423 5089 c-17 -5 -35 -18 -38 -29 -4 -11 -14 -24 -24 -30 -28 -14
-33 -60 -10 -89 26 -33 26 -110 -1 -141 -28 -32 -35 -61 -18 -74 20 -16 17
-80 -4 -84 -10 -2 -18 -7 -18 -12 0 -4 -45 -38 -100 -74 -55 -37 -100 -71
-100 -77 0 -6 -11 -24 -25 -41 -14 -16 -28 -42 -31 -56 -4 -15 -10 -31 -14
-37 -4 -5 -11 -30 -15 -55 -4 -25 -13 -55 -21 -67 -9 -14 -14 -51 -14 -101 0
-66 4 -85 23 -114 13 -18 35 -59 50 -89 25 -54 131 -167 159 -170 7 -1 29 -4
48 -7 47 -7 174 -5 232 3 41 6 48 4 58 -15 6 -12 9 -38 6 -58 -4 -20 -9 -75
-12 -121 -3 -46 -9 -93 -15 -102 -5 -10 -7 -29 -4 -41 7 -30 -2 -42 -50 -64
-31 -15 -45 -31 -65 -73 -14 -29 -33 -58 -41 -65 -8 -6 -34 -38 -57 -71 -24
-33 -104 -125 -180 -204 -75 -79 -138 -147 -140 -152 -6 -14 18 -49 34 -49 26
0 99 67 202 184 125 142 205 243 226 284 17 34 41 41 69 20 21 -17 23 -92 7
-258 -13 -130 -15 -165 -24 -420 -5 -142 -11 -176 -37 -220 -5 -8 -16 -31 -25
-50 -9 -19 -33 -55 -53 -80 -35 -42 -86 -119 -226 -335 -32 -49 -85 -118 -117
-152 -58 -61 -69 -88 -46 -111 22 -22 53 -13 90 26 36 38 150 194 178 244 22
40 95 155 166 262 34 50 69 106 78 124 18 35 36 42 36 15 0 -18 89 -167 168
-282 23 -34 42 -65 42 -67 0 -3 13 -22 30 -42 58 -71 160 -214 160 -224 0 -16
62 -4 74 14 9 14 5 23 -20 45 -32 29 -117 137 -144 184 -8 14 -51 80 -95 145
-92 138 -164 277 -165 317 0 16 -5 37 -10 47 -6 10 -6 21 -2 24 5 3 7 42 5 88
-5 102 -5 73 2 263 3 88 8 171 12 185 3 14 9 95 12 180 l6 155 32 -48 c18 -26
37 -53 43 -60 5 -6 26 -32 45 -56 20 -24 46 -52 59 -62 13 -10 57 -51 98 -91
41 -40 97 -91 126 -113 28 -22 54 -47 57 -56 7 -21 70 -30 93 -13 15 11 14 14
-2 38 -9 15 -28 31 -40 36 -13 5 -25 12 -27 17 -2 5 -29 29 -59 53 -82 68
-259 247 -311 315 -97 127 -123 202 -114 338 8 137 10 141 49 132 17 -3 45 -9
61 -11 17 -3 42 -9 56 -13 27 -9 83 -1 155 21 50 15 131 83 168 138 62 94 74
117 80 147 3 18 14 52 25 75 28 63 34 88 22 88 -6 0 -11 12 -11 26 0 28 -28
132 -39 149 -4 6 -13 29 -19 51 -14 47 -80 114 -112 114 -28 0 -25 17 5 24 32
8 33 37 2 79 -21 28 -29 78 -16 92 3 2 21 6 39 9 75 9 125 29 158 62 31 31 34
39 29 72 -10 60 -63 92 -139 85 -49 -4 -58 2 -34 21 7 6 16 30 19 52 l5 41
-37 -9 c-49 -12 -335 -9 -356 4 -5 3 -37 11 -70 18 -33 7 -64 16 -70 20 -17
13 -148 20 -182 9z m159 -105 c33 -8 71 -22 85 -31 14 -9 47 -16 78 -17 l54 0
-15 -24 c-13 -19 -13 -26 -2 -39 11 -14 10 -15 -7 -10 -29 9 -68 9 -180 -2
-111 -12 -115 -10 -115 50 0 28 -6 39 -26 49 -24 13 -24 15 -8 27 24 17 63 16
136 -3z m633 -134 c11 -18 -13 -37 -62 -49 -40 -11 -48 -10 -55 3 -5 9 -16 16
-25 16 -30 0 3 22 44 30 57 11 91 11 98 0z m-495 -174 c0 -8 -4 -18 -10 -21
-5 -3 -10 -25 -11 -48 -1 -23 -5 -53 -10 -67 -6 -20 -8 -14 -7 25 2 53 -8 95
-22 95 -19 0 -49 -53 -55 -99 -7 -54 -19 -68 -107 -125 -54 -35 -58 -41 -58
-76 0 -63 24 -105 73 -129 l44 -21 -12 -70 c-7 -39 -15 -74 -19 -77 -13 -13
-61 25 -66 53 -11 61 -76 56 -74 -5 1 -19 14 -45 33 -66 17 -20 31 -39 31 -44
0 -5 13 -14 29 -21 26 -10 29 -16 24 -45 -4 -25 0 -38 16 -54 28 -28 39 -27
52 5 9 25 11 26 23 9 19 -26 53 -4 62 41 5 30 17 42 79 84 90 61 106 83 95
136 -13 68 -28 93 -66 111 -36 18 -36 18 -29 67 7 59 20 86 41 86 8 0 26 12
41 26 l25 25 -23 25 c-12 13 -28 24 -35 24 -22 0 -24 16 -8 49 8 17 12 36 9
42 -4 6 2 17 14 25 12 8 21 24 21 35 0 10 7 19 15 19 10 0 15 -10 15 -34 0
-70 11 -96 49 -115 20 -11 46 -33 59 -50 12 -17 27 -31 32 -31 5 0 32 -22 59
-48 47 -45 87 -112 83 -138 -1 -6 5 -30 13 -53 10 -30 12 -48 5 -61 -6 -10
-10 -34 -10 -52 0 -31 -32 -105 -75 -173 -21 -34 -61 -74 -102 -102 -31 -22
-114 -46 -135 -38 -7 2 -40 6 -73 9 -33 2 -87 8 -120 14 -206 36 -259 41 -283
26 -16 -11 -27 -12 -41 -4 -11 5 -29 10 -40 10 -12 0 -48 27 -85 63 -55 54
-63 67 -59 90 4 23 7 25 17 13 15 -19 48 -28 65 -17 10 7 11 18 3 55 -6 27 -6
49 -1 52 5 3 7 10 3 15 -3 6 -1 48 6 94 8 59 19 93 36 116 25 35 31 59 13 59
-5 0 8 22 30 48 23 27 41 52 41 57 0 5 20 30 44 55 25 25 55 60 68 79 29 43
76 59 186 60 65 1 82 -2 82 -13z m-157 -357 c-6 -6 -15 -4 -23 6 -12 14 -11
18 0 25 18 11 37 -17 23 -31z m167 -178 c-15 -29 -30 -35 -30 -13 0 22 8 32
27 32 10 0 11 -5 3 -19z m-604 -27 c-3 -9 -6 -22 -6 -30 0 -8 -4 -14 -10 -14
-11 0 -14 43 -3 53 12 13 25 7 19 -9z"/>
<path d="M15003 5060 c-40 -11 -101 -34 -135 -51 -35 -18 -76 -39 -93 -48 -79
-40 -163 -198 -185 -346 -4 -30 -2 -86 6 -138 24 -160 101 -281 193 -304 14
-3 54 -19 88 -34 35 -16 83 -34 108 -40 25 -6 48 -16 51 -21 11 -18 23 -143
18 -175 -5 -26 -11 -33 -29 -33 -25 0 -35 -17 -35 -60 0 -15 -7 -33 -15 -40
-9 -7 -37 -45 -63 -84 -43 -66 -88 -123 -148 -187 -13 -14 -24 -29 -24 -34 0
-12 -100 -133 -159 -192 -42 -42 -52 -58 -49 -80 2 -22 9 -29 30 -31 21 -3 38
9 86 60 109 115 323 391 362 467 32 64 40 40 41 -124 0 -262 -2 -330 -16 -415
-8 -54 -11 -123 -8 -187 9 -156 -26 -260 -97 -289 -20 -9 -32 -23 -39 -48 -5
-20 -23 -53 -39 -74 -42 -54 -172 -252 -172 -263 0 -6 -9 -20 -21 -32 -11 -12
-28 -35 -36 -52 -15 -29 -73 -99 -160 -195 -67 -74 -76 -120 -23 -120 29 0 32
3 153 133 38 41 128 168 192 272 81 131 156 233 196 265 23 18 45 46 51 62 6
16 15 27 22 26 6 -2 65 -111 131 -243 66 -132 148 -282 183 -333 34 -51 62
-97 62 -102 0 -5 15 -25 34 -45 25 -26 42 -36 58 -33 34 5 35 42 3 76 -14 15
-32 37 -38 49 -7 11 -30 47 -51 78 -52 76 -81 130 -222 415 -23 47 -56 121
-73 165 -18 43 -37 85 -43 92 -7 9 -7 26 -1 55 6 24 11 81 12 128 1 47 7 126
14 175 6 50 12 198 12 330 0 132 4 246 8 253 5 7 39 28 75 46 197 97 206 103
482 346 201 177 202 178 198 197 -5 25 -45 19 -78 -11 -14 -13 -52 -41 -85
-64 -33 -22 -94 -70 -135 -107 -71 -63 -105 -92 -168 -141 -84 -65 -285 -174
-298 -162 -2 3 -1 63 3 134 l8 129 45 5 c25 3 61 15 80 27 19 12 50 29 68 39
45 23 142 131 177 198 16 31 33 56 37 56 4 0 8 9 8 19 0 11 4 22 9 25 5 4 14
36 21 74 9 55 9 79 -3 132 -35 151 -66 210 -161 305 -87 86 -105 94 -241 110
-27 3 -63 8 -80 10 -16 2 -63 -5 -102 -15z m206 -99 c20 -6 57 -15 82 -21 72
-18 135 -93 189 -225 19 -46 25 -78 24 -137 0 -47 -5 -83 -12 -90 -7 -7 -12
-18 -12 -26 0 -7 -11 -28 -25 -46 -14 -18 -25 -37 -25 -42 0 -21 -87 -108
-149 -148 -106 -68 -174 -76 -297 -35 -194 65 -274 139 -295 274 -16 101 -7
176 35 278 35 86 55 112 106 139 14 7 40 23 57 36 18 13 56 30 85 37 64 16
187 18 237 6z"/>
<path d="M2626 4818 l-17 -41 26 -21 c25 -20 27 -29 34 -136 5 -63 4 -123 0
-132 -16 -30 -11 -105 7 -112 47 -18 74 8 74 73 0 31 44 86 76 96 36 10 79
-42 95 -117 15 -67 39 -101 67 -96 12 2 17 13 16 33 -2 47 -10 94 -18 102 -4
4 -15 26 -25 48 -22 50 -74 111 -100 118 -11 3 -42 -5 -69 -18 l-49 -23 -10
108 c-10 119 -28 160 -67 160 -19 0 -28 -9 -40 -42z"/>
<path d="M16753 4823 c-8 -21 -23 -47 -32 -59 -9 -12 -23 -32 -31 -44 -49 -73
-212 -216 -298 -260 -51 -26 -67 -52 -52 -79 15 -29 45 -35 77 -14 47 30 217
169 238 195 11 14 43 52 72 84 71 81 99 124 107 166 5 28 3 37 -10 42 -37 14
-55 6 -71 -31z"/>
<path d="M1201 4739 c-24 -4 -49 -13 -57 -19 -7 -7 -31 -21 -53 -33 -116 -64
-213 -176 -259 -300 -27 -71 -30 -216 -7 -295 47 -156 179 -292 283 -292 12 0
31 -4 44 -10 13 -5 42 -14 66 -20 31 -8 43 -16 41 -28 -1 -9 1 -25 6 -35 4
-10 4 -39 0 -65 -4 -26 -9 -72 -11 -102 -2 -30 -8 -73 -14 -95 -30 -109 -58
-183 -82 -219 -15 -23 -28 -46 -28 -52 0 -6 -23 -49 -51 -95 -28 -46 -55 -93
-60 -104 -5 -11 -20 -38 -34 -60 -13 -22 -24 -43 -25 -47 0 -7 56 -28 75 -28
6 0 18 19 26 42 7 24 34 74 59 113 67 103 150 249 151 265 0 8 9 33 18 55 l18
40 8 -82 c4 -45 4 -86 1 -92 -4 -5 -2 -12 3 -16 6 -3 10 -39 10 -80 0 -41 5
-84 12 -97 6 -12 11 -49 11 -82 -1 -33 3 -65 8 -71 6 -7 6 -24 1 -42 -7 -24
-5 -35 8 -47 22 -22 27 -272 6 -314 -7 -15 -19 -47 -25 -72 -6 -25 -24 -72
-40 -105 -15 -33 -31 -76 -35 -95 -4 -19 -13 -44 -19 -55 -7 -11 -16 -33 -20
-50 -4 -16 -20 -50 -35 -76 -16 -25 -32 -56 -36 -70 -4 -13 -16 -36 -27 -51
-10 -15 -32 -56 -48 -90 -16 -35 -43 -83 -59 -108 -36 -52 -39 -80 -11 -105
18 -17 21 -17 45 -1 30 20 65 73 65 99 0 10 22 59 49 110 41 77 90 180 187
394 8 17 14 38 14 47 0 18 60 139 66 133 2 -2 17 -28 33 -58 37 -72 107 -185
141 -229 15 -19 30 -42 34 -50 3 -8 19 -34 34 -57 58 -88 112 -170 139 -207
15 -22 49 -71 74 -110 39 -60 50 -71 74 -71 15 0 33 8 38 17 13 20 5 38 -58
126 -25 35 -45 70 -45 78 0 8 -6 17 -14 20 -14 5 -57 64 -121 163 -16 25 -35
52 -42 59 -7 7 -25 34 -40 60 -15 26 -43 72 -63 102 -21 30 -40 65 -44 77 -4
13 -13 29 -20 36 -23 22 -56 95 -56 121 0 19 -7 27 -25 32 -24 6 -25 8 -25 98
0 161 -20 438 -36 498 -8 32 -14 73 -14 91 2 61 -8 235 -14 246 -4 5 -2 12 4
16 6 3 46 -29 90 -72 44 -43 101 -97 127 -121 27 -24 75 -68 108 -98 33 -30
75 -65 92 -77 18 -12 38 -34 44 -49 6 -16 17 -28 24 -28 19 0 45 28 45 48 -1
24 -93 121 -165 174 -33 24 -94 81 -135 127 -41 45 -118 125 -171 177 l-96 95
-5 77 c-6 88 -3 102 22 102 50 0 175 83 283 188 87 84 128 224 107 357 -6 33
-13 79 -16 102 -4 24 -13 48 -20 54 -8 6 -14 18 -14 26 0 19 -56 126 -78 147
-45 45 -126 96 -152 96 -16 0 -40 4 -53 9 -36 14 -185 20 -236 10z m232 -105
c31 -4 57 -10 57 -14 0 -4 18 -13 39 -20 22 -7 48 -25 59 -39 48 -65 91 -181
97 -261 1 -14 6 -41 10 -62 7 -39 -15 -135 -41 -173 -44 -63 -150 -154 -219
-189 l-74 -37 -74 10 c-41 6 -94 17 -118 25 -24 8 -60 17 -79 21 -58 12 -105
58 -149 145 -84 168 -57 344 71 477 43 44 199 130 217 119 6 -4 19 -3 28 3 17
9 56 8 176 -5z"/>
<path d="M3453 4665 c-18 -8 -33 -20 -33 -28 0 -16 -41 -57 -58 -57 -6 0 -16
-8 -22 -17 -9 -17 -11 -17 -20 -1 -5 9 -31 28 -56 43 -39 23 -54 26 -92 21
-52 -7 -81 -30 -123 -95 -31 -48 -36 -80 -17 -114 15 -28 59 -63 75 -59 7 2
13 -2 13 -8 0 -13 44 -13 93 1 46 12 117 78 117 107 0 12 4 22 9 22 12 0 34
-67 28 -84 -13 -35 48 -49 76 -18 16 18 18 34 14 133 -3 77 43 106 77 49 9
-17 20 -55 23 -85 6 -58 21 -72 54 -55 10 6 25 23 34 39 17 35 42 46 63 29 21
-18 64 -118 58 -135 -4 -8 4 -17 20 -23 37 -14 52 -12 70 9 16 18 17 18 48
-11 29 -28 34 -29 85 -23 30 4 65 11 77 15 12 5 42 11 65 14 25 3 49 12 56 22
12 16 13 16 15 -7 0 -13 1 -31 0 -39 0 -8 6 -39 15 -69 15 -54 15 -185 -2
-223 -6 -16 -1 -18 34 -18 35 0 43 4 51 24 9 24 -2 225 -15 279 -8 31 9 59 31
50 16 -6 91 22 115 43 15 13 17 12 23 -10 3 -14 22 -37 41 -52 30 -23 42 -26
84 -22 59 6 100 35 133 96 13 23 26 42 29 42 3 0 26 -25 50 -55 28 -35 47 -51
53 -45 17 17 36 11 63 -20 13 -16 33 -30 44 -30 40 0 96 33 134 80 36 45 41
48 53 32 7 -9 11 -27 9 -39 -3 -14 1 -23 9 -23 30 0 56 -160 39 -237 -11 -47
-102 -68 -162 -38 -44 22 -56 40 -50 77 9 65 -26 88 -62 42 -25 -32 -26 -62
-6 -112 26 -62 77 -99 147 -107 39 -5 64 -3 71 4 6 6 20 11 31 11 23 1 78 46
95 78 17 33 13 170 -8 245 -10 37 -16 67 -14 67 2 0 25 -17 51 -39 56 -46 106
-64 185 -65 50 -1 61 2 77 22 16 19 17 27 8 48 -10 22 -17 24 -73 24 -69 0
-128 16 -122 34 2 6 27 16 56 22 83 19 106 47 89 112 -13 53 -66 102 -109 102
-59 0 -165 -79 -187 -139 l-9 -25 -19 30 c-10 16 -25 33 -32 37 -8 5 -12 22
-10 40 2 26 -2 34 -23 44 -43 21 -73 4 -185 -104 -30 -29 -54 -59 -54 -68 0
-29 -30 -15 -59 28 -16 23 -37 50 -46 60 -9 10 -20 29 -25 43 -22 57 -96 39
-202 -48 -26 -21 -49 -38 -52 -38 -3 0 -8 15 -11 33 -4 18 -21 49 -38 70 -25
29 -43 39 -81 46 -64 12 -109 -2 -159 -48 l-40 -37 -30 27 c-72 66 -168 35
-222 -71 -18 -35 -33 -51 -57 -59 -27 -9 -35 -9 -43 3 -5 7 -25 35 -42 60 -44
62 -72 75 -120 52 -19 -9 -36 -16 -37 -14 -27 64 -52 98 -79 107 -38 14 -45
13 -84 -4z m930 -117 c26 -14 19 -66 -13 -89 -14 -10 -42 -21 -62 -25 l-38 -6
0 60 c0 48 4 63 18 71 18 11 64 6 95 -11z m1012 -10 c14 -6 25 -15 25 -19 0
-7 -112 -30 -118 -24 -5 4 51 55 60 55 4 0 19 -5 33 -12z m-2152 -25 c9 -9 17
-22 17 -29 0 -20 -48 -53 -87 -60 -30 -6 -39 -3 -54 17 -26 33 -23 54 8 79 31
24 84 21 116 -7z m1827 4 c0 -14 -58 -108 -73 -118 -5 -4 -17 -4 -27 -2 -26 7
-14 39 35 89 42 44 65 55 65 31z m-888 -61 c-2 -23 -6 -43 -8 -44 -1 -2 -24
-5 -51 -7 -26 -1 -74 -6 -105 -10 -83 -11 -77 12 15 53 39 18 83 41 96 51 37
29 60 10 53 -43z m477 22 c-5 -18 -9 -34 -9 -36 0 -9 -69 -42 -87 -42 -64 0
27 105 94 109 8 1 9 -8 2 -31z"/>
<path d="M5642 4377 c-12 -13 -22 -27 -22 -31 0 -12 44 -45 60 -45 22 -1 57
31 63 57 10 44 -64 58 -101 19z"/>
<path d="M23485 3424 c-33 -37 -89 -99 -124 -138 -35 -39 -119 -125 -187 -191
-68 -67 -124 -129 -124 -139 0 -28 19 -56 39 -56 21 0 132 106 252 240 42 47
118 130 168 185 79 85 92 103 89 130 -2 24 -8 31 -28 33 -20 2 -38 -12 -85
-64z"/>
<path d="M20731 2827 c-8 -10 -6 -28 8 -68 27 -77 35 -119 22 -119 -5 0 -22 5
-36 12 -22 10 -29 8 -50 -12 -14 -13 -25 -29 -25 -35 0 -23 46 -54 85 -57 l40
-3 3 -60 c2 -33 -2 -86 -8 -119 -11 -55 -10 -60 11 -82 52 -55 77 -16 83 131
2 61 5 118 5 128 1 12 9 17 29 17 15 0 51 7 80 14 40 11 52 11 52 2 0 -7 11
-23 25 -36 23 -21 26 -22 49 -7 16 11 26 30 31 59 9 49 39 123 54 132 16 10
13 62 -4 76 -18 15 -53 4 -77 -24 -9 -11 -30 -52 -45 -89 -22 -58 -28 -65 -35
-48 -11 30 -28 34 -100 23 -35 -6 -66 -7 -71 -3 -4 4 -15 43 -24 87 -9 43 -22
82 -27 86 -18 12 -63 9 -75 -5z"/>
<path d="M21998 2805 c-42 -28 -58 -67 -58 -140 0 -51 -1 -53 -31 -59 -17 -3
-43 -6 -58 -6 -38 -1 -61 -23 -61 -57 0 -41 13 -49 90 -57 35 -3 67 -9 72 -14
4 -4 9 -27 11 -52 3 -25 7 -52 10 -60 3 -8 8 -32 12 -52 5 -35 27 -68 44 -68
18 0 52 43 45 59 -3 9 -9 49 -12 90 l-5 73 53 -3 c42 -3 55 0 64 14 16 26 -3
49 -60 72 -27 11 -51 23 -52 28 -2 4 -10 14 -18 21 -18 18 -19 106 -1 129 8
11 30 17 67 19 54 3 55 4 58 34 3 28 -1 33 -29 43 -52 18 -101 13 -141 -14z"/>
<path d="M19756 2699 c-37 -10 -128 -23 -202 -28 -169 -13 -205 -32 -173 -92
9 -18 18 -19 115 -14 82 5 105 3 109 -7 10 -25 16 -93 19 -223 l3 -129 27 -7
c20 -6 31 -2 47 14 18 19 19 31 15 132 -3 60 -8 138 -12 171 l-6 61 58 18 c33
9 71 21 86 25 18 6 30 5 36 -3 21 -28 44 -156 43 -247 0 -52 4 -102 9 -109 5
-9 24 -15 45 -15 39 0 58 18 49 47 -3 9 -7 38 -8 63 -3 35 1 50 16 64 47 43
114 -31 122 -132 4 -69 10 -78 46 -78 36 0 42 17 31 94 -11 76 -37 129 -86
176 -33 32 -41 35 -95 34 l-60 -1 -10 36 c-5 20 -10 44 -10 55 0 27 -22 100
-33 107 -17 12 -112 5 -181 -12z"/>
<path d="M22206 2684 c-40 -39 -8 -94 55 -97 l44 -2 -1 44 c-1 30 -7 48 -19
58 -25 18 -60 17 -79 -3z"/>
<path d="M21220 2622 c-37 -18 -64 -64 -54 -95 9 -33 73 -95 122 -119 23 -12
50 -30 59 -41 17 -18 17 -20 -2 -33 -29 -21 -93 -36 -125 -29 -36 8 -70 -9
-70 -35 0 -10 12 -28 28 -40 23 -19 36 -21 92 -17 36 3 76 10 90 16 45 20 104
58 108 70 10 30 -52 141 -80 141 -5 0 -16 6 -23 13 -8 6 -32 26 -54 42 -22 17
-40 33 -41 38 0 4 19 7 43 7 84 0 114 27 78 71 -22 27 -125 34 -171 11z"/>
<path d="M22804 2606 c-30 -11 -74 -42 -120 -83 -19 -18 -24 -32 -24 -70 0
-26 7 -61 15 -77 19 -36 19 -42 1 -26 -8 6 -20 28 -27 48 -7 20 -20 53 -30 72
-11 19 -19 40 -19 46 0 7 -16 26 -36 44 -30 26 -42 31 -67 26 -41 -8 -74 -41
-82 -80 -4 -17 -15 -45 -25 -63 -17 -29 -17 -35 -3 -75 19 -56 40 -78 74 -78
33 0 44 24 35 83 -3 23 -2 58 2 77 l8 34 21 -34 c11 -19 31 -64 43 -100 32
-91 41 -99 85 -76 26 14 35 26 35 45 0 23 4 20 29 -23 40 -68 60 -78 146 -70
87 8 100 15 115 59 19 58 9 68 -58 60 -31 -4 -62 -11 -68 -16 -7 -6 -20 -2
-35 10 -13 11 -22 21 -19 23 3 2 38 17 79 33 79 31 94 50 88 108 -5 42 -32 94
-56 107 -24 12 -66 11 -107 -4z m46 -96 c0 -10 -52 -40 -70 -40 -15 0 42 49
58 50 6 0 12 -4 12 -10z"/>
<path d="M20470 2538 c-41 -19 -124 -74 -140 -94 -25 -30 -50 -81 -50 -99 0
-34 34 -74 78 -90 41 -16 46 -16 84 1 60 27 88 52 88 80 0 13 4 24 8 24 13 0
48 -41 66 -77 14 -27 22 -33 49 -33 72 0 75 42 6 118 -28 32 -55 66 -60 77
-49 101 -73 118 -129 93z m-20 -153 c0 -7 -12 -23 -27 -35 l-28 -22 -3 23 c-3
15 4 30 18 41 23 19 40 16 40 -7z"/>
<path d="M22246 2531 c-12 -13 -17 -34 -15 -72 1 -30 0 -59 -2 -64 -2 -6 5
-22 16 -36 24 -30 65 -55 65 -39 0 5 6 10 14 10 21 0 28 44 11 76 -8 16 -15
50 -15 76 0 36 -4 50 -19 58 -27 14 -35 13 -55 -9z"/>
<path d="M8247 2503 c-3 -4 -33 -62 -67 -128 -35 -66 -80 -140 -101 -164 -22
-24 -39 -48 -39 -52 0 -5 -19 -21 -42 -35 -67 -43 -148 -118 -148 -139 0 -6
-19 -18 -42 -26 -24 -7 -61 -28 -83 -44 -22 -17 -48 -34 -57 -37 -24 -10 -50
-52 -42 -72 9 -24 52 -19 101 12 108 69 183 112 193 112 22 0 170 153 221 227
27 40 49 74 49 76 0 2 25 50 55 106 30 57 56 117 58 135 2 27 -1 31 -25 34
-14 2 -28 0 -31 -5z"/>
<path d="M23077 2342 c-19 -21 -21 -45 -7 -73 15 -27 64 -25 84 3 21 29 21 31
-10 62 -31 31 -45 32 -67 8z"/>
<path d="M6177 2329 c-22 -13 -91 -152 -106 -211 -20 -85 -34 -134 -46 -162
l-13 -29 -21 48 c-12 26 -21 54 -21 62 0 24 -40 186 -52 211 -8 15 -20 22 -39
22 -24 0 -29 -6 -44 -49 -9 -27 -15 -53 -14 -57 4 -14 -12 -94 -52 -261 -6
-24 -14 -43 -19 -43 -20 0 -78 280 -66 324 12 47 -54 74 -89 36 -15 -17 -16
-25 -7 -62 6 -24 16 -70 22 -103 28 -153 95 -340 126 -352 29 -11 61 14 77 59
20 59 43 141 60 213 11 46 16 55 22 40 4 -11 11 -29 15 -40 5 -11 14 -46 21
-77 16 -77 54 -115 101 -102 41 12 51 32 87 177 15 63 38 128 50 145 11 17 21
36 21 44 0 7 12 36 25 63 30 60 31 91 6 105 -23 12 -21 12 -44 -1z"/>
<path d="M5067 2272 c-14 -15 -15 -38 -10 -157 3 -82 1 -155 -5 -176 -7 -26
-6 -44 4 -67 15 -38 17 -38 54 -12 l29 20 -1 183 c0 169 -2 184 -21 205 -25
27 -29 27 -50 4z"/>
<path d="M3273 2169 c-32 -16 -43 -27 -43 -44 0 -27 26 -39 63 -30 33 9 131
-21 166 -51 16 -13 33 -24 38 -24 14 0 82 -70 115 -118 67 -97 46 -166 -70
-239 -74 -46 -80 -48 -151 -48 -49 0 -76 -4 -78 -12 -8 -22 17 -51 51 -63 30
-10 48 -7 126 16 75 22 101 36 141 72 65 59 93 112 93 182 1 47 -4 62 -34 105
-62 90 -182 202 -251 235 -90 42 -116 45 -166 19z"/>
<path d="M4658 2154 c-14 -14 -14 -20 2 -62 9 -26 20 -63 23 -84 6 -41 -5 -48
-75 -48 -29 0 -41 -6 -55 -26 -17 -26 -16 -27 11 -50 15 -14 32 -22 37 -18 6
3 26 3 45 -1 l35 -6 -7 -95 -7 -94 29 0 c42 0 55 12 59 56 1 21 6 62 10 91 7
51 8 52 53 67 25 9 56 16 68 16 39 0 74 21 74 45 0 31 -39 49 -87 40 -103 -19
-97 -22 -111 48 -6 34 -14 73 -16 86 -11 50 -55 68 -88 35z"/>
<path d="M4472 2142 c-7 -5 -19 -32 -27 -61 -7 -29 -21 -61 -29 -70 -9 -10
-18 -31 -22 -47 -5 -25 -1 -33 21 -48 26 -17 27 -17 59 18 18 19 45 65 59 103
21 58 23 71 13 88 -14 22 -53 30 -74 17z"/>
<path d="M6321 2073 c-35 -7 -91 -62 -113 -113 -11 -25 -28 -54 -39 -66 -19
-20 -18 -20 24 -61 97 -95 261 -144 362 -109 27 9 59 16 71 16 14 0 31 12 43
29 31 42 27 43 -189 39 -60 -1 -120 9 -120 21 0 4 14 15 31 25 105 62 129 127
66 177 -43 35 -92 50 -136 42z m47 -125 c-22 -17 -79 -38 -87 -32 -9 8 11 36
40 53 26 16 35 17 50 8 18 -11 18 -13 -3 -29z"/>
<path d="M3329 2049 c-18 -18 -20 -29 -15 -68 4 -25 9 -71 11 -101 3 -30 8
-62 11 -70 3 -8 8 -44 10 -80 5 -69 16 -90 45 -90 32 0 42 34 29 108 -18 108
-32 224 -32 262 0 35 -12 60 -29 60 -5 0 -19 -10 -30 -21z"/>
<path d="M4180 1883 c-51 -35 -66 -72 -77 -190 -5 -57 -4 -62 20 -78 21 -13
29 -14 45 -4 16 10 21 26 24 86 4 77 20 109 51 97 27 -10 59 -69 52 -97 -4
-14 -2 -28 4 -31 6 -4 11 -18 11 -30 0 -46 74 -37 86 9 9 38 -9 90 -57 164
-56 84 -109 109 -159 74z"/>
<path d="M3873 1842 c-97 -61 -113 -202 -23 -202 19 0 21 -3 12 -12 -16 -16
-15 -33 4 -52 22 -23 60 -20 114 10 86 47 126 131 90 189 -23 37 -63 67 -109
83 -42 15 -38 16 -88 -16z m103 -80 c25 -17 24 -45 -1 -78 -21 -27 -33 -34
-61 -34 -32 0 -34 2 -34 33 0 36 13 58 45 75 24 13 36 14 51 4z"/>
<path d="M5056 1731 c-23 -26 -12 -66 27 -89 27 -17 28 -16 51 13 25 31 39 72
26 80 -4 2 -25 7 -46 11 -32 5 -43 2 -58 -15z"/>
<path d="M6243 1438 c-5 -13 -6 -34 -2 -48 4 -14 7 -47 8 -74 1 -27 5 -76 11
-110 5 -33 12 -104 16 -157 5 -79 9 -97 24 -107 42 -26 101 36 70 74 -13 14
-26 103 -34 229 -9 125 -18 189 -28 203 -17 20 -54 14 -65 -10z"/>
<path d="M5123 1413 c-10 -25 -8 -67 6 -175 6 -53 14 -138 16 -188 4 -100 18
-130 61 -130 27 0 49 35 59 95 7 40 39 85 59 85 14 -1 86 -67 86 -79 0 -5 6
-16 13 -23 8 -7 18 -27 24 -43 11 -33 53 -46 79 -24 26 21 6 67 -68 155 -90
108 -153 132 -209 78 l-27 -25 -5 33 c-3 18 -11 79 -18 135 -11 91 -14 102
-36 112 -31 14 -32 14 -40 -6z"/>
<path d="M5555 1415 c-3 -8 -7 -22 -10 -30 -2 -8 5 -35 16 -60 30 -68 17 -85
-67 -85 -61 0 -65 -2 -75 -27 -15 -39 7 -54 85 -60 l65 -6 -2 -96 -2 -96 30 3
c41 4 43 8 50 77 8 88 16 123 29 133 6 5 35 15 64 23 70 17 85 42 41 68 -24
15 -38 17 -62 10 -49 -14 -54 -12 -62 27 -15 83 -86 166 -100 119z"/>
<path d="M4480 1350 c-26 -26 -25 -34 5 -58 38 -30 96 -38 112 -16 20 28 16
39 -28 67 -49 32 -63 33 -89 7z"/>
<path d="M6767 1339 c-22 -13 -47 -61 -47 -90 0 -27 57 -104 88 -118 14 -7 22
-19 22 -36 0 -26 -3 -27 -84 -40 -30 -5 -38 -3 -33 7 14 37 -64 139 -116 152
-16 4 -42 0 -66 -10 -30 -12 -43 -25 -55 -55 -9 -22 -16 -53 -16 -70 0 -25 6
-33 31 -42 21 -8 29 -17 25 -29 -11 -45 84 -63 142 -28 30 18 39 19 69 9 52
-17 126 -7 165 23 26 20 34 34 36 63 2 34 -3 42 -59 96 -36 34 -59 65 -56 73
3 7 23 22 44 33 48 25 49 46 3 54 -19 4 -44 10 -55 13 -11 3 -28 1 -38 -5z
m-166 -209 c12 -7 19 -21 19 -40 0 -31 -22 -50 -59 -50 -17 0 -21 6 -21 34 0
19 7 42 16 50 18 19 20 19 45 6z"/>
<path d="M7040 1284 c-52 -29 -57 -37 -69 -99 -10 -54 2 -121 27 -148 63 -70
206 -75 265 -10 17 20 17 22 1 38 -13 13 -26 15 -53 10 -20 -4 -48 -9 -63 -12
-29 -5 -90 16 -85 30 1 5 29 19 61 32 85 35 130 74 134 116 3 33 1 35 -45 48
-82 23 -123 22 -173 -5z m90 -68 c0 -2 -18 -13 -40 -24 -43 -21 -54 -13 -18
12 20 14 58 22 58 12z"/>
<path d="M4851 1175 c-109 -103 -136 -195 -75 -260 13 -14 35 -30 49 -35 46
-18 135 8 160 46 8 13 19 24 24 24 9 0 38 -97 45 -156 9 -64 -3 -103 -35 -119
-40 -21 -81 -18 -120 8 -42 28 -57 67 -42 107 13 34 9 40 -27 40 -35 0 -60
-29 -60 -69 0 -95 96 -191 193 -191 61 0 106 19 140 59 64 77 55 180 -36 420
-16 42 -32 68 -48 76 -49 26 -89 -15 -89 -89 0 -41 -26 -66 -68 -66 -30 0 -32
2 -26 28 8 34 52 100 76 113 10 5 29 26 43 46 l25 37 -22 23 c-12 13 -25 23
-30 23 -4 0 -39 -29 -77 -65z"/>
<path d="M4235 1223 c-30 -7 -50 -29 -70 -73 l-18 -40 -23 34 c-28 41 -82 76
-117 76 -16 0 -36 -12 -56 -35 -17 -19 -40 -35 -51 -35 -13 0 -24 -10 -31 -27
-11 -28 -5 -112 11 -148 4 -11 14 -48 21 -83 12 -62 27 -82 63 -82 23 0 51 47
38 63 -6 7 -17 41 -25 76 -14 61 -14 65 9 117 13 30 30 54 37 54 24 0 87 -96
87 -131 0 -11 11 -24 25 -31 40 -18 71 10 85 79 24 113 44 129 81 63 13 -22
26 -40 30 -40 5 0 11 -17 14 -37 11 -62 15 -72 37 -84 25 -13 64 -4 72 17 3 9
-2 30 -12 48 -11 17 -25 47 -32 66 -24 60 -77 135 -104 148 -28 12 -37 13 -71
5z"/>
<path d="M4564 1145 c-15 -24 -16 -34 -6 -84 7 -32 12 -71 12 -88 0 -47 9 -63
37 -63 64 0 77 34 43 119 -11 28 -21 69 -22 91 -2 22 -6 40 -10 40 -3 0 -13 3
-21 6 -10 3 -22 -4 -33 -21z"/>
<path d="M8260 975 c-10 -12 -10 -29 -1 -83 7 -37 16 -98 20 -137 8 -68 19
-106 43 -153 16 -32 53 -26 52 8 -2 55 -49 356 -57 368 -13 17 -42 15 -57 -3z"/>
<path d="M8000 686 c-49 -25 -89 -87 -90 -140 0 -15 -11 -41 -24 -57 -22 -26
-26 -27 -40 -13 -10 9 -16 34 -17 62 -1 26 -2 52 -3 57 -14 64 -20 74 -47 84
-34 12 -47 -1 -56 -56 -12 -77 -78 -173 -118 -173 -25 0 -38 32 -39 100 -2 52
-7 74 -21 90 l-18 20 -24 -22 c-28 -26 -30 -76 -6 -161 13 -49 22 -63 54 -83
21 -13 51 -24 66 -24 35 0 98 42 122 80 l17 29 18 -39 c16 -36 20 -39 44 -34
15 3 35 15 45 27 l18 21 47 -48 c65 -67 106 -86 158 -72 47 13 120 67 129 97
4 11 5 22 3 24 -2 2 -35 -7 -73 -21 -39 -14 -72 -25 -75 -26 -75 -12 -74 58 1
91 44 20 98 84 99 117 0 30 -26 77 -47 86 -35 13 -79 8 -123 -16z m90 -51 c0
-16 -36 -57 -66 -74 l-34 -20 0 25 c0 32 42 74 75 74 14 0 25 -2 25 -5z"/>
<path d="M5850 613 c-60 -10 -91 -27 -134 -74 -54 -58 -76 -105 -65 -134 4
-11 5 -45 2 -76 -5 -51 -3 -58 18 -73 31 -21 66 -20 78 2 5 10 7 45 4 78 -4
48 -1 68 17 107 25 54 83 107 117 107 27 0 56 28 49 47 -3 8 -6 17 -6 19 0 5
-44 3 -80 -3z"/>
<path d="M6899 611 c-67 -13 -93 -42 -108 -118 -8 -37 -18 -78 -24 -90 -8 -18
-4 -26 28 -55 60 -53 103 -75 159 -82 59 -8 115 11 140 46 l16 22 24 -23 c48
-45 100 -6 75 55 -15 37 -12 103 6 130 17 26 58 22 92 -9 27 -24 53 -97 53
-149 0 -39 0 -39 38 -36 l37 3 -2 51 c-2 60 -34 145 -70 188 -26 31 -97 76
-121 76 -27 0 -88 -39 -103 -67 -24 -41 -32 -77 -37 -158 -2 -29 -5 -32 -60
-43 -76 -16 -152 -1 -152 28 0 4 25 25 55 46 57 39 95 87 95 120 0 20 -45 64
-66 64 -7 0 -18 2 -26 4 -7 2 -29 1 -49 -3z m41 -82 c0 -14 -55 -69 -69 -69
-15 0 -14 53 1 68 15 15 68 16 68 1z"/>
<path d="M6670 593 c-37 -14 -66 -49 -104 -126 -23 -45 -48 -83 -56 -85 -15
-2 -39 42 -71 131 -14 39 -33 46 -61 25 -30 -23 -27 -34 49 -196 22 -46 60
-64 104 -49 54 19 57 23 111 130 28 56 59 115 70 130 11 16 19 30 17 31 -10 9
-46 14 -59 9z"/>
<path d="M6035 524 c-32 -35 -50 -68 -59 -110 -6 -27 -2 -37 37 -78 40 -43 49
-48 113 -58 91 -15 147 -13 179 8 48 31 29 49 -55 52 -88 3 -120 9 -120 22 0
6 10 15 23 21 56 26 77 42 83 64 15 59 -22 92 -113 101 -59 6 -63 5 -88 -22z
m97 -59 c2 -13 -49 -31 -59 -21 -10 10 27 38 45 34 7 -2 14 -7 14 -13z"/>
<path d="M8352 442 c-8 -5 -17 -25 -21 -43 -6 -26 -3 -40 13 -61 24 -35 49
-35 81 -3 27 26 32 62 13 88 -15 20 -67 31 -86 19z"/>
</g>
</svg>
