<?xml version="1.0" standalone="no"?>
<!DOCTYPE svg PUBLIC "-//W3C//DTD SVG 20010904//EN"
 "http://www.w3.org/TR/2001/REC-SVG-20010904/DTD/svg10.dtd">
<svg version="1.0" xmlns="http://www.w3.org/2000/svg"
 width="487.533441pt" height="400.000000pt" viewBox="0 0 487.533441 400.000000"
 preserveAspectRatio="xMidYMid meet">
<metadata>
Created by potrace 1.15, written by Peter Selinger 2001-2017
</metadata>
<g transform="translate(-73.174522,439.016509) scale(0.052203,-0.052203)"
fill="#444444" stroke="none">
<path d="M6892 8366 l-47 -45 -1 -83 c0 -46 -6 -139 -13 -208 -7 -69 -16 -168
-21 -220 -11 -107 -4 -170 16 -170 8 0 14 -4 14 -10 0 -19 36 -10 77 20 48 35
55 64 53 208 -1 64 4 111 16 149 14 44 15 59 5 75 -6 10 -9 23 -5 29 12 19 4
145 -11 189 -10 27 -14 58 -10 78 9 46 -15 42 -73 -12z"/>
<path d="M4687 8259 c-29 -24 -37 -37 -37 -64 0 -19 5 -37 10 -40 6 -3 10 -24
10 -45 0 -21 4 -41 8 -44 5 -3 14 -51 22 -106 8 -68 17 -103 26 -107 8 -3 14
-16 14 -30 0 -49 24 -119 52 -151 15 -18 28 -39 28 -48 0 -23 26 -27 54 -9 24
16 26 23 26 84 0 55 -4 70 -20 84 -12 10 -18 22 -15 27 7 12 -22 228 -34 250
-5 9 -5 42 0 74 7 54 5 62 -19 98 -22 34 -55 58 -80 58 -4 0 -24 -14 -45 -31z"/>
<path d="M9129 7865 c-37 -20 -133 -142 -152 -195 -10 -25 -33 -63 -53 -85
-20 -21 -44 -56 -55 -76 -10 -21 -23 -40 -29 -44 -10 -6 -70 -130 -70 -146 0
-15 68 -79 84 -79 23 0 86 65 86 88 0 12 9 26 20 32 11 6 29 29 41 52 11 22
34 59 50 81 16 22 29 49 29 59 0 11 15 39 34 64 19 24 37 59 40 78 4 19 12 36
20 39 7 3 19 26 26 51 12 44 12 48 -10 71 -27 29 -27 29 -61 10z"/>
<path d="M2889 7513 c-9 -2 -24 -21 -34 -42 -17 -38 -17 -40 6 -72 13 -19 43
-55 66 -81 23 -25 58 -71 77 -101 19 -30 84 -105 144 -166 85 -86 115 -111
135 -111 31 0 33 11 13 104 -10 49 -17 61 -37 68 -16 5 -30 21 -38 43 -7 19
-16 35 -21 35 -5 0 -12 10 -15 21 -4 12 -23 37 -41 56 -23 23 -34 43 -34 63 0
24 -14 44 -61 93 -34 34 -69 70 -77 80 -15 16 -47 20 -83 10z"/>
<path d="M6166 6795 c-8 -21 -59 -42 -121 -50 -84 -11 -93 -14 -99 -39 -3 -13
-17 -31 -31 -40 -14 -9 -25 -22 -25 -30 0 -7 -11 -19 -25 -26 -32 -17 -49 -44
-75 -116 -25 -69 -51 -161 -48 -172 1 -4 -2 -21 -6 -39 -5 -20 -2 -50 8 -84 9
-29 16 -65 16 -81 0 -48 39 -114 104 -178 69 -68 76 -96 29 -127 -22 -15 -24
-21 -22 -107 1 -83 -14 -218 -29 -256 -4 -8 -7 -42 -7 -75 -1 -33 -7 -89 -14
-125 -7 -36 -12 -73 -12 -84 0 -10 -9 -20 -20 -23 -14 -4 -19 -12 -16 -25 3
-11 -2 -22 -15 -29 -15 -8 -18 -17 -14 -35 4 -13 0 -40 -9 -60 -8 -20 -15 -47
-15 -59 0 -12 -16 -54 -35 -91 -19 -38 -35 -73 -35 -77 0 -18 -61 -96 -80
-102 -36 -11 -119 -14 -125 -4 -4 6 -20 2 -39 -11 -47 -29 -67 -25 -100 19
-19 27 -39 41 -61 45 -32 6 -70 36 -46 36 6 0 11 4 11 9 0 5 -30 8 -67 7 l-68
-1 -5 35 c-4 31 -8 35 -36 35 -25 0 -39 10 -75 55 -66 81 -79 102 -79 126 0
11 -9 29 -21 40 -43 39 -89 120 -89 157 0 25 -6 39 -18 46 -27 14 -65 98 -59
129 3 17 -1 34 -10 44 -14 16 -14 18 1 24 21 8 21 57 0 75 -26 21 -44 66 -44
108 0 22 -4 42 -9 45 -12 8 -44 127 -42 159 1 15 -3 37 -9 48 -16 29 -3 58 35
73 40 17 78 91 77 148 -1 24 5 41 15 46 13 8 11 21 -17 103 -17 52 -36 99 -42
106 -5 7 -7 16 -4 22 7 10 -64 91 -81 91 -6 0 -22 12 -36 26 -21 20 -32 24
-55 19 -16 -3 -51 -1 -77 6 -39 10 -61 9 -128 -5 -45 -10 -99 -26 -119 -37
-20 -10 -43 -19 -50 -19 -24 0 -135 -62 -148 -83 -18 -30 -40 -115 -40 -160 0
-33 -4 -40 -30 -51 l-31 -12 19 -25 c24 -30 37 -69 23 -69 -5 0 -16 12 -23 28
-7 15 -23 28 -35 30 -12 2 -25 12 -28 23 -4 11 -15 19 -27 19 -12 0 -29 7 -38
15 -29 26 -100 22 -178 -9 -54 -22 -72 -34 -76 -53 -4 -13 -22 -41 -41 -62
-19 -21 -35 -44 -35 -50 0 -6 -4 -11 -10 -11 -5 0 -10 -18 -10 -39 0 -22 -4
-52 -10 -66 -14 -37 -14 -191 0 -248 8 -30 20 -52 34 -59 24 -13 86 -76 86
-88 0 -4 -7 -10 -15 -14 -27 -10 -17 -36 16 -43 21 -4 34 -14 41 -32 6 -14 14
-34 19 -43 5 -9 8 -135 8 -280 0 -232 10 -440 27 -519 2 -14 -1 -39 -7 -55 -7
-16 -14 -49 -15 -74 -1 -25 -9 -82 -16 -128 l-14 -83 38 -54 c42 -61 46 -80
22 -113 -10 -15 -13 -27 -6 -35 8 -10 21 -134 26 -248 1 -20 9 -44 19 -53 9
-10 17 -26 17 -37 0 -11 4 -27 9 -37 27 -49 57 -287 65 -512 3 -95 9 -143 22
-192 3 -9 25 -26 49 -37 25 -12 45 -26 45 -31 0 -6 9 -10 20 -10 11 0 20 -5
20 -10 0 -6 10 -15 23 -20 12 -6 43 -23 68 -39 25 -16 57 -32 70 -36 13 -4 38
-17 54 -30 17 -12 45 -30 64 -39 19 -10 45 -30 58 -44 21 -22 27 -24 43 -14
28 17 38 15 45 -8 5 -16 15 -20 50 -20 24 0 47 -5 50 -10 3 -6 19 -10 34 -10
16 0 48 -7 72 -15 24 -9 87 -20 139 -25 52 -5 118 -14 145 -20 105 -22 218
-26 387 -15 65 4 114 3 125 -3 12 -7 25 -7 35 -1 23 13 537 18 545 6 3 -5 9
-4 13 3 11 17 142 30 325 31 227 1 275 4 320 17 22 6 78 14 125 18 47 3 93 11
103 16 10 5 24 5 35 -1 28 -15 204 3 216 22 8 13 15 13 55 2 25 -8 93 -15 151
-16 128 -2 467 19 495 31 11 5 54 11 95 14 102 6 171 19 268 51 60 20 92 25
118 20 28 -5 39 -2 49 11 7 10 39 24 71 31 33 8 76 17 97 22 21 5 44 17 51 27
8 10 32 27 54 38 22 12 73 43 113 71 41 27 96 57 122 66 39 13 55 26 82 66 31
47 33 54 29 114 -3 35 -9 78 -14 94 -10 33 -21 283 -20 444 1 76 5 110 17 128
13 19 14 28 4 46 -22 41 -36 122 -31 171 5 51 11 58 87 97 12 7 34 29 49 50
21 31 24 44 18 71 -4 18 -7 56 -6 85 1 48 -2 53 -33 75 -22 14 -46 46 -65 84
l-30 62 -4 263 c-6 317 -1 344 67 372 23 9 48 17 55 17 7 0 15 7 18 15 4 8 12
15 20 15 20 0 40 38 54 100 6 30 16 70 22 88 6 22 6 37 0 45 -13 15 -18 114
-8 148 8 29 -3 55 -54 124 -17 22 -39 59 -50 82 -25 52 -104 133 -130 133 -10
0 -22 5 -25 10 -8 12 -52 13 -59 1 -3 -4 -20 -11 -38 -15 -20 -4 -47 -22 -69
-46 -30 -33 -43 -40 -73 -40 -36 0 -36 0 -36 -42 0 -23 -7 -49 -15 -58 -8 -9
-19 -54 -24 -104 -6 -49 -12 -91 -15 -93 -2 -2 0 -20 4 -39 5 -20 4 -37 -2
-40 -6 -4 -7 -20 -4 -38 11 -55 14 -170 5 -188 -6 -11 -4 -32 6 -60 8 -24 15
-51 15 -60 0 -21 -49 -68 -71 -68 -22 0 -29 -19 -22 -66 3 -22 -3 -68 -12
-103 -10 -38 -16 -103 -16 -156 0 -65 -5 -100 -16 -121 -9 -16 -24 -51 -33
-79 -15 -43 -21 -50 -51 -57 -38 -8 -63 -3 -54 11 3 6 -6 18 -20 27 -14 9 -25
21 -25 28 0 6 -6 22 -13 36 -12 23 -28 73 -55 173 -9 31 -7 46 9 82 14 31 18
57 14 92 -3 26 -7 93 -11 148 -3 55 -9 118 -15 140 -5 22 -11 66 -14 99 -3 32
-10 75 -16 96 -7 24 -9 53 -3 77 4 21 8 52 8 68 1 24 8 33 36 47 19 10 60 45
91 78 31 33 68 64 83 69 23 9 25 13 16 36 -7 18 -7 33 1 47 14 26 15 153 1
241 -12 80 -46 129 -144 202 -94 72 -179 108 -268 113 -65 4 -81 1 -120 -20
-99 -54 -160 -140 -140 -194 6 -15 6 -34 -1 -51 -14 -38 -3 -100 26 -145 14
-21 25 -42 25 -48 0 -6 14 -16 30 -21 38 -14 39 -41 3 -67 -27 -20 -28 -24
-31 -129 -3 -91 -7 -112 -25 -138 -19 -25 -22 -42 -20 -105 5 -162 4 -181 -18
-228 -11 -26 -22 -69 -24 -97 -1 -27 -10 -70 -19 -94 -12 -30 -15 -57 -11 -84
6 -31 3 -43 -13 -60 -25 -27 -46 -76 -43 -100 4 -29 -43 -91 -95 -126 -45 -29
-127 -61 -163 -61 -9 -1 -29 -19 -44 -41 -22 -31 -32 -39 -45 -33 -9 5 -58 9
-109 9 -86 0 -93 2 -120 28 -16 15 -37 27 -46 27 -10 0 -21 8 -24 18 -4 9 -25
44 -49 77 -23 33 -49 78 -58 100 -9 22 -27 56 -40 75 -13 19 -24 53 -25 75 -1
21 -6 44 -10 50 -4 5 -11 19 -14 30 -3 11 -17 52 -32 90 -63 170 -82 251 -90
390 -2 33 -8 81 -13 108 -6 30 -6 50 0 53 5 4 18 25 28 49 18 42 14 80 -13
122 -13 21 5 42 41 49 60 9 95 33 120 80 12 24 22 51 22 59 0 8 4 23 9 33 21
42 29 85 21 105 -5 12 -14 63 -20 112 -8 64 -21 110 -45 160 -18 39 -41 89
-50 113 -10 23 -24 42 -31 42 -8 0 -20 12 -28 28 -13 26 -87 62 -126 62 -8 0
-24 12 -36 27 -20 26 -24 26 -134 28 -77 1 -115 5 -118 13 -5 17 -29 15 -36
-3z m259 -250 c101 -49 155 -102 155 -152 0 -16 4 -33 9 -38 12 -13 23 -88 22
-154 -1 -56 -10 -71 -60 -92 -18 -7 -30 -6 -48 6 -19 13 -30 14 -66 4 -74 -20
-70 -18 -57 -34 6 -8 8 -20 4 -27 -4 -7 -11 -30 -15 -53 -3 -22 -10 -52 -14
-67 -6 -22 -4 -28 9 -28 11 0 16 -10 17 -32 0 -43 17 -305 24 -388 4 -36 13
-85 21 -109 8 -25 14 -57 14 -72 0 -25 19 -90 39 -134 6 -11 19 -48 31 -83 12
-34 28 -75 36 -90 8 -15 14 -38 14 -52 0 -14 9 -38 20 -55 10 -16 22 -53 26
-82 5 -41 10 -53 23 -53 16 0 91 -125 91 -152 0 -6 15 -25 33 -43 19 -19 37
-50 44 -78 11 -38 18 -48 40 -53 16 -4 46 -25 67 -46 40 -41 90 -68 125 -68
11 0 24 -7 29 -16 7 -13 27 -17 88 -19 44 -1 84 -4 89 -5 20 -6 137 30 193 59
46 25 169 143 211 205 18 26 35 62 38 81 3 19 12 40 19 46 8 6 14 24 14 38 0
16 10 37 25 51 27 26 45 76 45 130 0 19 10 62 21 95 11 33 22 74 24 90 12 92
19 117 38 130 20 14 20 15 2 49 -17 31 -17 37 -4 53 12 14 15 49 14 176 -1 86
2 157 7 157 32 0 62 -169 73 -405 2 -44 6 -91 10 -105 12 -47 16 -125 16 -279
-1 -163 13 -239 50 -293 11 -14 19 -35 19 -46 0 -12 27 -54 59 -95 33 -41 66
-88 75 -106 9 -17 22 -31 29 -31 33 0 185 22 209 30 23 7 31 5 48 -17 11 -14
20 -31 20 -38 0 -7 19 -31 42 -53 50 -49 44 -62 -35 -88 -29 -9 -65 -28 -80
-40 -16 -13 -41 -27 -55 -30 -15 -3 -67 -17 -117 -31 -49 -14 -111 -26 -136
-28 -26 -1 -62 -10 -80 -20 -71 -36 -108 -45 -134 -33 -21 9 -28 8 -38 -4 -13
-17 -48 -25 -147 -33 -36 -3 -74 -8 -85 -12 -20 -7 -70 -12 -130 -14 -16 0
-50 -7 -75 -14 -25 -8 -91 -22 -148 -31 -82 -14 -110 -15 -134 -6 -25 9 -37 8
-67 -5 -31 -14 -96 -16 -491 -18 -254 -1 -460 2 -466 7 -7 5 -31 3 -59 -4 -45
-12 -48 -12 -63 10 -14 21 -56 30 -66 14 -7 -12 -566 -5 -652 8 -41 6 -259 13
-496 16 -233 2 -440 4 -461 5 -36 1 -38 2 -32 29 4 20 2 29 -9 33 -9 4 -16 13
-16 22 0 30 -68 47 -162 40 -79 -6 -88 -5 -107 14 -12 12 -30 21 -40 21 -25 0
-51 10 -51 20 0 4 30 13 68 20 62 12 71 17 123 69 36 37 58 69 62 90 11 56 8
108 -8 121 -27 22 -16 34 51 60 63 25 67 29 101 90 19 36 40 71 46 78 6 8 10
28 9 44 -1 17 2 36 8 43 14 17 40 193 33 228 -3 15 0 34 6 41 10 12 9 20 -5
40 -15 23 -15 34 -4 109 8 45 19 89 27 98 16 20 16 27 0 44 -18 18 -37 165
-38 295 -1 68 -7 122 -17 153 -14 40 -14 50 -3 56 11 7 9 13 -8 30 -11 11 -21
29 -21 39 0 10 -8 28 -17 42 -10 15 -16 39 -14 62 1 21 -1 43 -6 50 -4 7 -13
29 -18 48 -9 31 -15 36 -50 41 -51 7 -125 40 -148 66 -14 16 -16 29 -10 73 10
68 33 80 33 17 0 -37 5 -49 26 -66 15 -12 31 -21 37 -21 6 0 18 -7 27 -15 20
-18 39 -13 62 20 13 17 16 30 9 47 -5 15 -2 44 9 83 15 56 20 62 66 87 68 38
127 38 151 1 9 -16 27 -41 40 -56 17 -21 21 -35 16 -60 -6 -36 -65 -101 -104
-116 -23 -8 -27 -17 -32 -72 -6 -57 -3 -84 23 -174 19 -67 21 -129 5 -159 -11
-20 -12 -33 -5 -40 5 -5 10 -29 10 -52 0 -23 6 -47 14 -53 8 -6 16 -26 19 -44
14 -81 30 -140 51 -189 13 -29 26 -70 30 -91 4 -21 18 -53 31 -73 13 -19 29
-52 36 -72 6 -20 22 -48 34 -62 28 -31 105 -173 105 -193 0 -8 12 -22 26 -32
14 -9 53 -43 85 -76 33 -32 73 -66 88 -75 16 -10 34 -27 39 -39 6 -12 32 -40
59 -61 26 -22 54 -47 61 -56 7 -10 22 -18 34 -18 31 0 76 -31 89 -62 12 -30
45 -38 66 -17 9 9 20 9 44 0 43 -15 80 -14 104 2 11 8 42 19 70 26 27 7 60 24
74 38 14 13 38 31 54 39 34 18 132 115 128 128 -1 6 2 19 8 30 52 110 74 163
72 173 -1 7 5 26 14 42 8 17 15 45 15 64 0 19 7 40 15 47 8 7 15 20 15 29 0
10 7 26 15 37 8 10 15 29 15 41 0 12 9 38 21 57 14 25 22 58 24 108 8 156 15
226 28 300 11 62 19 81 43 101 21 19 26 28 18 38 -15 20 -9 181 7 206 7 12 30
32 51 45 38 23 45 33 29 42 -4 3 -6 17 -4 30 5 26 12 24 -97 41 -108 16 -111
17 -136 54 -24 36 -29 57 -18 85 8 20 24 21 24 2 0 -8 21 -21 50 -31 47 -16
53 -16 75 -1 28 19 28 19 16 64 -11 36 -6 50 34 117 31 51 31 80 0 110 -47 48
-130 26 -155 -41 -9 -22 -30 -34 -30 -16 0 18 47 81 89 120 41 37 51 42 91 41
25 -1 58 6 75 14 16 9 39 14 50 11 11 -3 34 2 50 10 17 9 34 16 39 16 5 0 51
-20 101 -45z m1574 -309 c87 -28 128 -58 142 -106 10 -33 9 -38 -25 -73 -19
-21 -43 -55 -52 -75 -10 -20 -33 -59 -53 -85 l-36 -48 -8 43 c-4 24 -10 72
-14 107 -4 49 -11 69 -27 83 -23 19 -71 24 -81 8 -16 -26 -25 -4 -25 64 l0 73
38 16 c50 20 56 20 141 -7z m-4016 -271 c20 -19 45 -35 55 -35 11 0 27 -11 36
-25 9 -14 21 -25 26 -25 26 0 62 -57 84 -133 18 -65 22 -104 21 -187 -1 -67 5
-142 17 -208 10 -56 16 -107 13 -113 -4 -5 -6 -103 -6 -217 1 -180 -2 -215
-18 -262 -10 -30 -26 -59 -35 -66 -9 -6 -16 -25 -16 -43 0 -39 -18 -47 -59
-27 -20 11 -28 21 -24 31 3 9 -2 24 -11 34 -9 10 -21 47 -27 82 -5 35 -19 76
-29 91 -11 15 -20 38 -20 51 0 14 -9 45 -20 71 -13 28 -22 75 -25 120 -2 42
-6 90 -9 108 -3 18 -7 70 -10 116 l-5 83 34 38 c27 30 35 47 35 77 0 22 7 51
14 66 17 32 13 102 -11 218 -17 79 -37 120 -58 120 -10 0 -11 8 -2 35 6 19 11
35 12 35 1 0 18 -16 38 -35z m-215 -14 c20 -25 32 -51 32 -70 0 -16 10 -47 22
-67 17 -28 22 -53 22 -98 -2 -94 -6 -108 -42 -129 -33 -19 -33 -19 -39 1 -6
26 -71 54 -95 41 -32 -17 -60 -9 -94 28 -28 30 -34 45 -34 81 l0 45 21 -27 21
-26 28 22 c15 13 36 28 46 34 17 10 17 12 -5 47 -26 42 -22 68 14 91 16 10 25
26 25 41 0 40 40 33 78 -14z m5062 -165 c50 -25 63 -61 56 -149 -8 -111 -16
-142 -38 -156 -18 -11 -24 -9 -50 16 -17 15 -43 45 -58 66 -28 37 -28 38 -12
77 10 21 29 46 45 55 32 19 34 28 7 55 -11 11 -20 24 -20 28 0 11 23 33 30 29
3 -1 21 -11 40 -21z m-5059 -586 c3 -85 11 -168 17 -185 5 -16 13 -53 15 -81
5 -49 5 -50 -26 -62 -17 -6 -33 -9 -36 -6 -3 3 -6 94 -7 202 0 108 -4 219 -8
245 -7 47 -7 48 16 45 23 -3 23 -5 29 -158z m4910 -253 c-13 -13 -15 21 -3 50
6 15 8 13 10 -11 2 -16 -1 -33 -7 -39z m4 -87 c10 -20 17 -68 20 -145 4 -108
3 -116 -17 -135 -25 -23 -21 -22 -70 -24 -42 -1 -41 -14 -8 120 10 38 21 90
25 115 3 24 8 53 10 64 2 11 4 23 4 28 2 17 22 5 36 -23z m-4889 -56 c4 -14 4
-28 0 -31 -3 -3 4 -19 16 -36 17 -24 19 -33 9 -48 -6 -11 -9 -30 -5 -44 9 -35
-1 -54 -25 -48 -25 6 -30 21 -42 121 -11 101 -5 136 22 122 10 -6 22 -22 25
-36z m4860 -890 c0 -27 6 -59 12 -71 15 -26 16 -153 2 -153 -5 0 -10 4 -10 9
0 5 -17 17 -37 26 -21 10 -45 24 -54 32 -9 7 -39 16 -68 20 -57 6 -64 17 -25
35 16 8 34 29 45 55 10 24 25 43 33 43 8 0 30 14 48 30 18 17 37 29 43 27 5
-2 10 -26 11 -53z m-334 -131 c21 -9 38 -20 38 -23 0 -4 -13 -17 -29 -29 -31
-24 -76 -121 -85 -185 -8 -60 -20 -65 -59 -23 -58 61 -93 77 -171 77 -58 0
-77 -5 -120 -29 -28 -17 -59 -39 -68 -50 -10 -12 -25 -21 -34 -21 -27 0 -98
22 -114 36 -42 34 -317 -63 -319 -113 -1 -22 -23 -25 -44 -5 -51 46 -86 51
-225 28 -57 -9 -90 -20 -106 -35 -31 -29 -54 -26 -74 9 -12 21 -31 34 -62 44
-101 32 -150 25 -213 -29 -26 -23 -45 -31 -59 -27 -18 4 -20 2 -16 -16 8 -28
-12 -92 -27 -92 -7 0 -30 20 -53 45 -22 25 -45 45 -50 45 -5 0 -15 11 -22 25
-12 22 -20 25 -66 25 -29 0 -63 -4 -76 -9 -13 -5 -34 -12 -48 -15 -28 -6 -113
-81 -123 -108 -7 -21 -24 -16 -83 24 -23 15 -46 28 -52 28 -5 0 -15 7 -22 15
-18 21 -90 28 -156 15 -33 -7 -63 -15 -69 -20 -29 -21 -46 -18 -73 12 -15 17
-45 42 -67 56 -83 54 -265 22 -265 -46 -1 -15 -10 -38 -20 -51 -21 -24 -32
-21 -65 14 -5 6 -37 18 -70 27 -53 15 -63 15 -100 2 -22 -9 -49 -18 -60 -21
-11 -4 -31 -14 -44 -25 -28 -22 -41 -23 -41 -4 0 18 -47 56 -68 56 -9 0 -26
10 -39 22 -35 33 -134 30 -187 -6 -21 -14 -45 -26 -53 -26 -8 0 -37 25 -66 56
-55 60 -136 104 -191 104 -17 0 -56 -6 -86 -13 -61 -15 -80 -6 -94 41 -4 12
-13 22 -19 22 -7 0 -24 14 -39 32 -25 32 -30 33 -100 34 l-73 0 3 30 c4 38
-18 60 -46 45 -25 -13 -30 -8 -24 29 5 33 22 39 43 14 23 -28 69 -47 84 -34
10 9 21 7 46 -7 86 -49 85 -48 174 -63 28 -5 86 -16 130 -24 44 -9 99 -16 122
-16 23 0 45 -5 49 -11 4 -7 22 -9 48 -5 22 4 136 8 251 10 168 2 216 0 243
-12 21 -9 36 -11 45 -5 17 13 226 9 316 -6 49 -9 81 -10 95 -3 13 6 45 6 86 0
36 -5 119 -7 185 -5 75 3 163 -2 235 -12 95 -12 245 -19 575 -23 79 -1 547 12
553 16 4 2 50 7 102 11 52 4 113 11 135 16 22 5 59 9 83 9 23 0 58 6 77 14 19
8 71 18 117 22 45 4 101 15 123 25 27 13 65 19 120 19 44 1 100 5 125 11 25 6
68 14 96 18 28 3 63 17 79 29 15 12 35 22 44 22 9 0 25 7 35 15 25 19 31 19
78 -2z m248 -218 c9 -8 21 -15 26 -15 13 0 58 -48 73 -77 18 -35 14 -81 -9
-93 -17 -9 -22 -7 -30 14 -7 20 -19 27 -50 32 -31 5 -44 13 -51 30 -9 26 -55
34 -77 12 -13 -13 -42 6 -42 28 0 21 41 93 58 103 18 10 74 -9 102 -34z
m-4551 -119 c16 -20 40 -105 31 -111 -11 -7 -69 6 -76 16 -2 4 -11 6 -19 2
-12 -4 -15 4 -15 39 0 24 5 49 12 56 16 16 53 15 67 -2z m4091 -53 c25 -33 16
-57 -19 -48 -14 4 -52 7 -83 6 -65 -2 -74 10 -35 46 40 38 106 36 137 -4z
m-410 -19 c25 -9 51 -20 57 -26 18 -15 16 -45 -4 -57 -14 -7 -15 -12 -4 -25
24 -29 3 -39 -71 -32 -57 5 -77 12 -111 39 -23 17 -44 33 -47 35 -3 2 4 10 15
19 13 9 32 13 53 9 18 -3 40 -2 48 1 16 6 19 33 4 33 -5 0 -10 5 -10 10 0 14
17 12 70 -6z m-3277 -49 c4 -8 15 -15 24 -15 12 0 14 -6 8 -27 -11 -44 -25
-56 -61 -50 -35 6 -110 54 -119 77 -3 8 2 20 12 28 23 18 124 8 136 -13z
m2408 -26 c34 -34 7 -88 -47 -92 -23 -2 -30 2 -32 21 -2 12 -10 22 -17 22 -27
0 -28 23 -1 47 33 28 69 30 97 2z m1534 -9 c3 -5 24 -10 46 -10 27 0 42 -5 46
-16 3 -9 13 -14 24 -11 10 3 35 -4 56 -14 21 -10 68 -21 103 -24 35 -3 65 -7
67 -8 1 -2 4 -14 5 -27 3 -20 -3 -25 -37 -32 -22 -5 -71 -24 -108 -43 -38 -19
-77 -35 -87 -35 -10 0 -21 -4 -25 -9 -8 -13 -106 -45 -132 -43 -12 1 -28 -7
-35 -17 -7 -10 -36 -23 -66 -30 -29 -6 -74 -22 -101 -35 -33 -17 -73 -27 -127
-31 -43 -4 -92 -11 -107 -17 -15 -6 -60 -12 -100 -13 -40 -1 -130 -8 -202 -15
-147 -15 -227 -15 -268 1 -20 9 -39 9 -70 0 -91 -23 -156 -30 -187 -20 -22 8
-46 8 -88 -1 -31 -7 -102 -15 -158 -19 -61 -3 -107 -11 -117 -20 -18 -14 -132
-7 -154 11 -8 6 -19 5 -32 -2 -11 -6 -56 -12 -98 -14 -43 -2 -106 -9 -141 -16
-48 -10 -69 -10 -88 -1 -18 8 -43 9 -87 2 -171 -27 -212 -31 -279 -31 -40 0
-90 5 -111 11 -28 7 -48 7 -73 -1 -22 -8 -135 -14 -287 -17 -139 -2 -286 -5
-327 -7 -41 -1 -82 1 -91 5 -8 4 -42 9 -75 10 -32 1 -69 9 -82 16 -17 10 -27
11 -43 2 -25 -13 -111 -3 -151 17 -15 8 -48 14 -74 14 -26 0 -55 6 -63 14 -15
12 -66 28 -146 43 -16 3 -43 14 -60 24 -16 11 -36 19 -43 19 -8 0 -26 8 -40
19 -15 10 -40 22 -57 25 -36 8 -55 22 -78 59 -10 15 -24 27 -32 27 -22 0 -85
60 -85 81 0 23 8 24 31 3 14 -12 24 -13 54 -5 41 11 75 37 75 56 0 7 19 20 41
29 l42 17 28 -33 c16 -18 31 -43 35 -54 3 -12 16 -27 29 -34 20 -11 26 -10 41
5 21 20 92 14 110 -10 13 -18 70 -10 96 12 21 18 45 11 93 -27 50 -40 72 -45
96 -24 19 17 21 17 51 -6 39 -29 36 -29 126 0 81 26 92 22 92 -31 0 -28 16
-39 54 -39 12 0 31 -7 42 -15 26 -20 39 -19 99 10 29 14 68 27 87 28 19 1 55
13 81 27 45 24 47 24 82 7 24 -12 42 -14 53 -8 9 5 56 9 105 9 85 0 89 -1 128
-34 46 -39 57 -40 105 -18 28 13 40 14 60 5 14 -6 62 -11 107 -11 67 0 91 4
131 25 54 27 92 25 114 -7 14 -20 47 -24 57 -8 4 7 28 8 63 5 70 -8 138 17
195 73 l38 37 25 -33 c14 -17 31 -32 37 -32 6 0 23 -11 37 -25 l26 -25 50 32
c41 26 57 31 99 29 38 -1 62 4 98 23 l47 25 16 -24 c19 -29 93 -69 119 -64 10
2 23 13 29 24 17 31 31 36 109 41 116 8 151 17 156 39 5 30 19 34 71 20 26 -7
54 -9 61 -4 7 4 24 2 39 -6 40 -21 111 -43 163 -49 37 -4 58 -1 101 19 30 14
59 25 64 25 6 0 13 7 16 16 3 9 13 14 21 11 8 -3 28 7 44 22 35 33 72 41 153
33 70 -6 145 13 153 39 16 48 73 86 90 59z m-2792 -52 c19 -32 19 -33 -4 -48
-28 -18 -86 -21 -93 -4 -3 7 -2 29 1 48 5 34 8 36 42 36 30 0 39 -5 54 -32z
m1677 23 c0 -14 -29 -41 -43 -41 -7 0 -21 7 -31 15 -20 15 -17 18 29 28 35 8
45 7 45 -2z m-872 -13 c25 -25 14 -65 -28 -98 -39 -31 -40 -31 -65 -13 -20 14
-24 24 -20 47 3 16 5 37 5 47 0 12 9 19 28 22 52 8 68 7 80 -5z m-1568 -25 c0
-31 -16 -44 -57 -50 -34 -4 -41 -2 -56 21 -19 28 -17 29 28 39 51 11 85 7 85
-10z m1138 -33 c44 -27 41 -58 -8 -76 -54 -19 -108 -17 -141 7 -49 35 -34 56
56 79 47 12 58 11 93 -10z m-763 -6 l20 -15 -20 -12 c-39 -23 -67 -26 -91 -10
-30 19 -30 27 -1 41 32 15 69 14 92 -4z"/>
<path d="M6061 4760 c-17 -17 -34 -30 -39 -30 -4 0 -30 -22 -59 -49 -36 -36
-53 -61 -58 -88 -4 -23 -19 -49 -41 -69 -35 -34 -44 -70 -22 -92 9 -9 9 -19 0
-45 -12 -32 -5 -101 13 -150 4 -9 2 -31 -5 -47 -12 -28 -10 -32 24 -70 20 -22
36 -46 36 -54 0 -7 18 -25 41 -40 30 -21 48 -26 69 -21 23 5 37 0 67 -23 45
-36 90 -45 158 -33 226 40 310 70 375 132 40 38 50 55 59 101 22 103 -9 238
-75 325 -13 17 -24 40 -24 51 0 11 -19 31 -50 51 -27 18 -58 43 -69 57 -10 13
-35 31 -55 39 -20 9 -56 31 -81 50 -46 34 -57 36 -165 23 -8 -1 -27 1 -41 5
-21 5 -33 1 -58 -23z"/>
<path d="M4607 4589 c-32 -10 -77 -32 -100 -49 -23 -16 -54 -38 -69 -47 -17
-11 -31 -32 -37 -58 -6 -22 -23 -66 -39 -97 l-29 -57 28 -58 c16 -32 29 -63
29 -70 0 -21 109 -102 152 -114 23 -6 64 -8 92 -6 28 3 67 0 87 -7 28 -10 45
-10 76 -1 56 17 171 108 215 171 34 48 36 56 26 84 -5 17 -8 44 -4 60 4 22 2
30 -9 30 -8 0 -15 8 -15 18 0 47 -104 158 -187 201 -53 26 -134 27 -216 0z"/>
<path d="M7770 4566 c-49 -17 -126 -71 -147 -103 -10 -15 -39 -48 -64 -73 -56
-55 -65 -79 -42 -111 10 -13 27 -41 37 -61 15 -31 17 -40 6 -53 -7 -9 -9 -22
-5 -32 5 -10 7 -22 6 -26 -3 -14 41 -45 89 -64 25 -9 61 -28 80 -41 32 -22 41
-23 110 -17 72 7 258 62 286 86 23 19 29 96 9 125 -9 15 -19 48 -20 74 -2 28
-15 68 -32 98 -28 52 -140 177 -178 199 -26 16 -90 16 -135 -1z"/>
<path d="M10522 6592 c-11 -11 -38 -22 -61 -26 -22 -3 -50 -14 -60 -23 -22
-18 -122 -52 -231 -77 -73 -17 -153 -38 -216 -57 -17 -5 -39 -9 -49 -9 -11 0
-39 -19 -62 -42 -51 -50 -57 -91 -20 -125 53 -48 106 -56 182 -25 28 11 66 26
85 32 19 7 49 19 65 26 29 13 84 33 204 75 30 10 59 23 66 29 6 5 42 21 80 35
97 37 106 45 110 99 2 41 -1 49 -31 76 -41 35 -39 35 -62 12z"/>
<path d="M1738 5913 c-23 -28 -40 -79 -34 -100 11 -34 46 -63 75 -63 19 0 42
-14 75 -45 54 -50 49 -48 132 -49 56 -1 64 -4 106 -42 57 -49 117 -71 134 -49
6 8 21 15 33 15 37 0 24 45 -30 104 -17 19 -51 39 -85 51 -31 10 -58 24 -61
31 -2 7 -19 18 -36 25 -18 6 -37 17 -42 23 -11 12 -66 43 -135 77 -25 12 -53
26 -62 30 -28 14 -54 11 -70 -8z"/>
<path d="M10285 4632 c-3 -3 -86 -5 -185 -5 l-180 1 -45 -51 c-25 -29 -45 -55
-45 -60 0 -8 49 -75 77 -104 9 -10 41 -11 150 -3 76 5 163 9 193 9 30 0 66 4
80 9 14 5 67 13 118 17 50 4 94 11 97 15 3 5 23 6 46 3 22 -3 50 -1 62 5 12 5
30 13 40 16 9 3 17 13 17 23 0 10 7 27 15 37 39 51 9 71 -120 82 -105 9 -313
12 -320 6z"/>
<path d="M1860 4399 c-102 -4 -214 -12 -249 -18 -36 -5 -68 -8 -72 -5 -5 3
-30 -3 -57 -11 -81 -27 -106 -101 -51 -156 12 -12 18 -27 14 -36 -9 -26 13
-31 63 -17 40 12 95 21 232 38 83 11 129 21 168 38 35 16 60 19 116 16 45 -3
83 0 104 9 27 11 32 18 32 48 0 31 -4 36 -28 41 -16 3 -34 17 -44 35 -10 16
-23 28 -30 27 -7 -1 -96 -5 -198 -9z"/>
<path d="M9967 3018 c-18 -14 -37 -59 -37 -87 0 -10 17 -37 38 -60 30 -35 45
-43 82 -48 25 -3 57 -12 72 -19 15 -8 35 -14 45 -14 10 0 35 -9 56 -20 20 -11
42 -20 48 -20 6 0 79 -33 163 -74 83 -40 168 -76 188 -80 20 -4 38 -11 40 -16
2 -6 13 -3 26 5 37 27 28 61 -30 116 -29 27 -56 49 -60 49 -8 0 -24 12 -83 63
-18 15 -37 27 -41 27 -5 0 -29 14 -53 30 -24 17 -53 30 -65 30 -12 0 -35 8
-53 18 -17 9 -49 26 -70 38 -21 12 -57 24 -80 28 -23 3 -62 15 -88 26 -54 23
-75 25 -98 8z"/>
<path d="M2595 2969 c-38 -4 -78 -5 -88 -2 -10 2 -24 0 -31 -6 -7 -6 -46 -15
-87 -20 -41 -5 -105 -16 -144 -25 -38 -9 -79 -16 -89 -16 -41 0 -126 -50 -152
-90 -28 -42 -27 -61 8 -105 36 -46 57 -47 164 -15 53 17 103 30 112 30 9 0 29
4 46 9 33 10 82 20 236 46 52 9 117 23 144 31 26 8 56 14 66 14 9 0 36 14 59
30 40 30 41 31 27 58 -18 36 -91 75 -115 63 -10 -6 -23 -6 -32 0 -16 10 -23
10 -124 -2z"/>
<path d="M3213 2028 c-21 -15 -54 -38 -73 -51 -19 -13 -55 -46 -80 -72 -25
-27 -54 -58 -66 -69 -41 -42 -117 -101 -165 -128 -26 -15 -53 -36 -58 -47 -6
-10 -21 -21 -33 -25 -34 -9 -62 -76 -47 -110 7 -14 16 -26 20 -26 5 0 19 -11
33 -25 25 -25 27 -25 63 -10 21 9 47 24 58 34 11 10 29 23 40 29 11 6 38 27
60 47 22 19 64 56 93 82 28 25 52 50 52 56 0 6 28 38 63 72 35 33 86 89 115
124 46 54 52 67 48 98 -3 19 -8 38 -11 42 -16 16 -77 4 -112 -21z"/>
<path d="M8847 1970 c-55 -65 -50 -86 67 -264 21 -33 45 -75 53 -93 19 -46
101 -162 133 -189 26 -22 96 -151 109 -202 11 -39 43 -40 91 -1 55 45 56 88 2
147 -21 22 -57 80 -81 129 -24 48 -61 111 -82 140 -22 29 -39 61 -39 71 0 10
-10 27 -21 38 -12 10 -34 44 -48 74 -46 94 -92 170 -104 170 -7 0 -21 3 -33 6
-15 4 -28 -3 -47 -26z"/>
<path d="M7434 1588 c-20 -17 -40 -43 -46 -57 -14 -38 -11 -132 7 -183 8 -23
15 -52 15 -64 0 -11 7 -29 15 -40 8 -10 15 -27 15 -36 0 -10 6 -32 14 -50 38
-88 64 -167 67 -203 1 -22 7 -48 12 -58 10 -22 66 -47 104 -47 l28 0 0 79 c-1
57 -5 85 -16 98 -22 26 -46 99 -52 160 -3 28 -15 70 -26 92 -12 22 -21 49 -21
59 0 11 -6 35 -14 53 -8 21 -10 42 -5 54 4 11 8 45 8 76 1 42 -4 60 -19 77
-28 30 -43 28 -86 -10z"/>
<path d="M4458 1552 c-34 -34 -36 -40 -24 -57 12 -16 10 -25 -12 -69 -14 -28
-38 -63 -54 -78 -16 -15 -28 -37 -28 -51 0 -26 -33 -81 -85 -138 -18 -20 -41
-58 -51 -85 -10 -27 -35 -75 -55 -107 -21 -32 -40 -76 -44 -98 -6 -34 -3 -44
16 -66 35 -37 58 -47 75 -32 19 16 116 154 143 204 11 22 32 58 46 80 43 70
172 331 190 384 l17 51 -39 50 c-21 27 -42 49 -48 49 -5 1 -27 -16 -47 -37z"/>
<path d="M5994 1435 c-21 -28 -25 -41 -20 -67 4 -18 11 -71 16 -118 5 -47 16
-130 24 -185 9 -55 19 -134 22 -175 8 -92 20 -113 77 -133 51 -17 58 -14 81
30 21 42 20 70 -4 146 -11 34 -24 98 -29 142 -5 44 -19 125 -30 180 -11 56
-17 116 -14 137 5 34 2 39 -28 57 -47 29 -64 26 -95 -14z"/>
</g>
</svg>
