<?xml version="1.0" standalone="no"?>
<!DOCTYPE svg PUBLIC "-//W3C//DTD SVG 20010904//EN"
 "http://www.w3.org/TR/2001/REC-SVG-20010904/DTD/svg10.dtd">
<svg version="1.0" xmlns="http://www.w3.org/2000/svg"
 width="851.410218pt" height="400.000000pt" viewBox="0 0 851.410218 400.000000"
 preserveAspectRatio="xMidYMid meet">
<metadata>
Created by potrace 1.15, written by Peter Selinger 2001-2017
</metadata>
<g transform="translate(-11.020164,412.045329) scale(0.060601,-0.060601)"
fill="#444444" stroke="none">
<path d="M7063 6784 c-26 -10 -50 -28 -65 -49 -28 -42 -37 -43 -69 -9 -69 76
-137 61 -184 -38 -17 -37 -17 -37 -73 -34 -100 5 -157 -29 -180 -108 -11 -36
-17 -43 -33 -39 -49 13 -179 -76 -179 -122 0 -9 -9 -15 -24 -15 -57 0 -136
-86 -136 -149 0 -33 -4 -38 -46 -61 -26 -13 -57 -41 -71 -61 -21 -33 -24 -47
-22 -121 1 -45 -2 -96 -5 -113 -10 -43 38 -135 81 -155 18 -8 33 -21 33 -27 0
-7 19 -33 43 -58 40 -41 48 -45 90 -45 32 0 47 -4 47 -13 0 -21 56 -76 84 -83
15 -3 44 -2 66 4 24 6 42 6 46 1 7 -12 60 -39 84 -44 11 -2 35 1 55 6 28 8 46
6 81 -7 38 -14 51 -15 78 -6 42 15 46 15 46 -3 0 -8 19 -24 42 -36 50 -26 109
-21 143 11 15 14 25 18 30 11 3 -6 4 -15 1 -19 -3 -5 -7 -87 -11 -183 -6 -198
-14 -253 -39 -291 -23 -35 -15 -70 25 -109 20 -20 40 -29 62 -29 18 0 62 -9
98 -19 94 -25 130 -18 179 35 47 51 50 73 12 95 -24 13 -31 28 -44 85 -15 66
-15 70 3 86 11 9 19 20 19 25 0 14 39 43 58 43 29 0 32 -10 11 -31 -24 -24
-24 -41 0 -63 17 -16 21 -15 61 19 31 26 51 35 79 35 37 0 71 -23 71 -47 0
-14 30 -27 57 -24 28 3 48 -36 39 -74 -5 -19 -21 -32 -62 -52 -44 -21 -55 -30
-51 -45 8 -30 -17 -16 -28 16 -7 19 -5 33 4 48 7 12 17 34 22 50 7 26 6 28
-21 28 -19 0 -33 -7 -40 -21 -9 -16 -19 -20 -53 -17 -39 3 -42 1 -42 -22 0
-17 8 -29 28 -38 15 -8 32 -25 37 -38 20 -51 53 -84 83 -84 27 0 29 2 24 30
-8 36 -5 36 33 8 35 -26 38 -55 10 -86 -24 -26 -52 -28 -70 -7 -15 18 -28 19
-63 3 -16 -8 -30 -24 -33 -38 -10 -45 -13 -50 -36 -59 -26 -9 -88 15 -88 34 0
52 -112 73 -119 23 -7 -40 -68 -66 -115 -48 -22 8 -26 16 -26 49 0 45 -11 57
-39 42 -20 -11 -51 -64 -51 -87 0 -21 -52 -33 -90 -20 -32 10 -36 17 -51 70
-19 73 -39 89 -71 59 -49 -44 -64 -46 -98 -13 -30 30 -31 32 -16 55 9 13 16
31 16 40 0 9 6 18 14 21 9 3 14 17 12 32 -2 27 -3 27 -65 24 -76 -4 -75 10 3
32 41 12 61 14 82 6 15 -6 33 -9 41 -6 13 5 31 -40 20 -51 -19 -18 60 -107 86
-98 25 10 30 38 9 55 -37 29 -43 55 -28 114 3 12 1 28 -4 36 -8 12 -13 13 -29
3 -17 -11 -30 -8 -82 14 -53 23 -59 28 -44 39 29 21 111 28 136 11 32 -23 51
-11 49 32 -1 20 -2 41 -1 48 1 14 38 28 68 24 20 -2 43 23 43 48 0 6 -18 16
-41 22 -35 11 -45 10 -73 -5 -18 -10 -40 -33 -49 -52 -9 -19 -20 -34 -24 -34
-52 -2 -139 -23 -163 -40 -25 -17 -30 -28 -30 -60 0 -34 -4 -42 -32 -56 -62
-31 -77 -51 -67 -92 9 -43 32 -62 71 -62 31 0 34 -7 14 -35 -12 -17 -18 -18
-53 -7 -22 7 -63 12 -91 12 -28 0 -54 5 -57 10 -7 12 -55 13 -72 2 -7 -4 -41
-5 -75 -2 -35 4 -76 2 -93 -3 -16 -5 -84 -11 -150 -13 -66 -2 -140 -6 -165 -9
-126 -17 -263 -18 -350 -1 -19 4 -66 9 -105 11 -38 2 -137 9 -220 14 -82 6
-161 8 -175 6 -71 -13 -109 -18 -145 -17 -50 2 -112 -24 -118 -50 -3 -10 -3
-31 -1 -45 3 -15 0 -39 -6 -54 -8 -19 -9 -45 -2 -91 6 -37 6 -67 1 -72 -12
-13 -12 -46 0 -46 5 0 8 -6 8 -12 -1 -7 2 -56 6 -108 12 -149 17 -292 23 -620
4 -246 3 -317 -9 -368 -19 -80 -12 -211 12 -228 8 -7 19 -10 24 -7 5 3 5 -11
2 -31 l-7 -36 73 -1 c211 -4 267 -7 304 -17 22 -6 66 -12 98 -13 32 -1 60 -6
63 -11 3 -5 10 -6 15 -2 5 3 36 7 68 9 33 2 74 11 92 21 23 11 38 14 48 7 17
-10 70 -11 86 -1 6 4 93 6 195 6 102 0 241 2 310 5 102 4 140 1 206 -15 82
-20 82 -20 162 0 44 11 99 31 123 44 40 21 57 23 192 24 166 1 186 8 168 57
-6 15 -16 25 -23 22 -24 -9 -134 32 -161 59 -32 32 -33 40 -7 66 31 31 25 57
-19 84 -48 31 -56 43 -41 61 7 8 9 26 6 40 -6 24 -4 25 39 25 25 0 45 4 45 9
0 4 16 11 35 14 19 3 49 16 66 28 30 21 30 21 52 1 55 -50 125 -56 267 -25 52
12 99 19 103 16 26 -16 86 -21 127 -11 25 6 74 12 110 13 36 1 83 7 105 14 22
7 49 13 60 14 11 0 23 6 27 11 5 7 16 5 35 -6 54 -32 150 -28 192 8 28 23 35
25 62 15 46 -16 112 6 146 48 9 10 28 14 62 12 42 -2 54 2 82 27 42 38 45 94
5 136 -14 16 -26 32 -26 36 0 4 -16 18 -35 31 -19 13 -39 37 -45 53 -5 16 -22
40 -37 54 -34 32 -131 82 -158 82 -37 1 -65 12 -65 28 0 20 -38 123 -53 142
-26 33 -71 60 -101 60 -32 0 -109 -42 -135 -73 -11 -13 -17 -14 -35 -5 -34 18
-97 27 -126 16 -21 -7 -35 -4 -64 13 -36 21 -77 22 -134 4 -19 -6 -24 -2 -38
31 -18 41 -32 233 -20 277 l6 24 47 -23 c53 -28 92 -30 132 -9 30 15 41 33 41
67 0 17 4 19 28 14 65 -17 78 -16 109 3 18 11 39 34 48 51 20 39 22 105 4 126
-11 14 -11 18 4 29 9 6 25 31 36 55 19 43 19 44 0 94 -10 28 -31 61 -46 74
-44 37 -151 82 -194 82 -22 0 -57 9 -79 20 -50 26 -81 25 -114 -1 -16 -12 -31
-18 -36 -13 -4 5 -11 75 -15 157 -6 144 -6 147 14 148 12 1 26 3 31 4 6 1 17
3 25 4 8 0 30 15 49 31 34 30 59 32 70 5 6 -18 89 -54 146 -65 58 -11 97 5
139 59 23 29 40 41 59 41 30 0 99 44 107 69 3 12 17 17 47 17 88 0 126 25 158
99 13 30 27 46 43 50 58 15 132 135 123 198 -8 46 -47 112 -78 128 l-22 12 22
8 c28 11 36 46 22 97 -12 45 -52 89 -116 128 -37 21 -42 30 -46 69 -9 74 -98
165 -162 165 -14 0 -26 4 -26 9 0 9 -58 -1 -79 -13 -7 -4 -20 13 -34 46 -25
56 -76 103 -127 118 -36 10 -108 -6 -137 -33 -22 -19 -22 -19 -50 0 -40 29
-97 36 -154 22 -45 -12 -51 -11 -77 8 -24 18 -95 45 -112 42 -3 0 -24 -7 -47
-15z m127 -79 c18 -16 18 -17 -1 -36 -25 -25 -34 -66 -19 -84 20 -24 44 -17
60 18 22 48 73 77 133 77 41 0 58 -6 93 -32 39 -30 43 -37 44 -76 0 -30 5 -44
16 -49 44 -16 66 41 43 110 -15 46 -5 57 51 57 25 0 47 -9 74 -32 35 -29 38
-35 34 -72 -3 -23 -19 -63 -37 -91 -43 -68 -57 -123 -38 -143 22 -22 44 -9 51
31 4 19 13 40 21 47 8 7 15 18 15 26 0 7 21 27 46 45 56 38 130 44 173 12 52
-39 85 -113 50 -113 -21 0 -89 -59 -119 -102 -38 -55 -46 -113 -16 -113 17 0
40 28 63 75 4 8 17 24 30 36 19 18 32 21 71 16 97 -10 165 -72 140 -127 -6
-13 -19 -26 -29 -28 -27 -7 -23 -33 7 -60 57 -48 74 -72 74 -105 0 -39 -24
-88 -54 -114 -50 -41 -86 -19 -268 169 -44 44 -84 57 -130 41 -20 -7 -28 -17
-28 -33 0 -32 21 -45 62 -39 31 5 41 2 71 -26 20 -18 39 -45 42 -60 7 -30 27
-53 51 -56 18 -3 104 -72 104 -84 0 -22 -15 -42 -41 -55 -45 -24 -56 -20 -55
22 1 27 -3 38 -16 41 -11 2 -30 -21 -64 -77 -56 -92 -79 -106 -127 -70 -42 31
-63 16 -59 -43 4 -61 -20 -82 -85 -76 -56 5 -119 33 -127 55 -9 21 11 42 33
36 30 -8 87 25 104 60 9 18 19 49 22 69 4 29 11 39 30 44 14 3 25 14 27 27 2
17 11 23 38 25 29 2 38 8 47 32 11 28 10 30 -22 36 -18 3 -42 3 -52 0 -16 -5
-24 6 -51 65 -34 72 -52 84 -76 47 -8 -13 -6 -25 7 -47 10 -17 24 -48 32 -70
11 -33 11 -40 0 -45 -24 -9 -65 32 -65 65 0 42 -26 88 -57 100 -15 5 -54 9
-87 8 -42 -1 -72 5 -96 17 -43 22 -154 31 -174 15 -11 -10 -25 -9 -62 4 -39
13 -57 14 -98 5 -28 -6 -73 -8 -101 -5 -41 6 -55 3 -75 -13 -14 -11 -41 -27
-60 -35 -45 -20 -98 -71 -106 -103 -4 -14 -12 -23 -18 -21 -6 2 -31 -8 -56
-23 -43 -25 -45 -28 -48 -79 -3 -63 34 -150 73 -171 23 -12 24 -15 10 -30 -10
-12 -13 -27 -9 -49 l7 -32 -49 3 c-36 2 -51 8 -59 23 -30 57 -30 58 -56 44
-13 -8 -28 -20 -34 -27 -8 -10 -20 -11 -45 -5 -40 11 -52 40 -36 92 8 28 7 35
-8 46 -20 15 -46 9 -46 -10 0 -18 -53 -37 -83 -30 -50 13 -47 74 4 101 24 12
34 13 45 4 24 -21 46 -4 41 32 -2 18 0 45 6 61 8 24 14 27 57 27 59 0 79 19
49 46 l-20 18 20 8 c18 6 20 14 17 50 -2 24 1 54 6 68 13 35 58 80 80 80 10 0
21 7 24 15 4 8 10 15 15 15 4 0 6 -6 3 -14 -9 -24 15 -58 39 -54 18 2 22 10
24 42 2 75 59 103 159 81 25 -5 33 -3 38 11 10 27 -22 52 -82 64 -68 13 -110
-4 -146 -57 -23 -34 -31 -38 -69 -38 -26 0 -52 -8 -69 -20 -67 -51 -107 -169
-74 -220 l17 -26 -44 2 c-62 4 -95 -20 -103 -72 -4 -24 -13 -43 -23 -46 -9 -3
-31 -17 -49 -30 -18 -13 -48 -27 -67 -30 -33 -5 -36 -3 -51 32 -19 47 -12 85
15 78 19 -5 61 27 61 46 0 5 -16 15 -35 22 -38 14 -52 41 -41 84 6 24 72 71
111 78 48 9 54 16 41 50 -6 18 -14 34 -17 37 -13 11 22 70 50 85 42 21 69 19
123 -10 56 -30 78 -32 78 -7 0 19 -16 38 -59 70 -30 24 -22 54 23 82 40 24
105 26 151 4 45 -21 69 -15 73 17 3 22 -3 27 -38 39 -47 15 -53 40 -15 60 14
7 25 19 25 26 0 15 98 29 131 19 12 -4 38 -15 58 -23 20 -9 50 -17 68 -18 19
-1 46 -13 69 -32 42 -35 54 -33 54 7 0 35 -73 91 -131 98 -44 6 -50 24 -20 61
32 37 46 31 129 -61 37 -40 59 -40 68 2 10 49 24 71 56 92 38 23 89 20 118 -6z
m-296 -724 c-4 -22 -1 -47 5 -60 15 -26 52 -27 75 -2 16 18 16 20 -4 34 -20
14 -20 15 -2 37 13 16 31 23 61 26 58 4 71 -3 71 -36 0 -25 15 -40 41 -40 4 0
15 13 23 29 31 59 118 62 182 5 44 -40 50 -41 64 -14 13 24 71 28 90 5 10 -12
9 -20 -4 -40 -17 -25 -24 -28 -61 -26 -29 2 -57 -21 -50 -41 8 -22 55 -32 105
-23 22 4 40 4 40 1 0 -3 -18 -17 -40 -31 -45 -28 -51 -49 -17 -66 32 -17 32
-17 7 -44 -14 -15 -35 -25 -52 -25 -26 0 -28 2 -28 43 0 24 5 48 11 54 9 9 6
19 -12 42 -13 16 -30 30 -37 30 -9 1 -11 8 -7 20 6 21 -9 36 -26 25 -16 -9
-89 -11 -89 -1 0 4 -16 7 -35 7 -19 0 -44 5 -55 12 -15 10 -22 9 -39 -6 -13
-12 -39 -19 -73 -20 -31 -2 -66 -11 -82 -21 -18 -12 -30 -15 -37 -8 -22 22
-95 -12 -118 -55 l-12 -23 -30 26 c-17 14 -35 25 -40 25 -18 0 -9 84 11 110
l20 25 18 -24 c28 -35 57 -25 58 21 1 45 18 68 50 68 22 0 24 -3 18 -39z
m-235 -184 c5 -13 16 -29 25 -36 17 -14 22 -71 7 -71 -5 0 -16 -3 -25 -6 -20
-8 -66 39 -66 66 0 22 29 69 43 70 4 0 11 -10 16 -23z m934 -28 c6 -24 -1 -49
-14 -49 -5 0 -9 16 -9 35 0 38 14 47 23 14z m-603 -13 c0 -7 8 -24 18 -37 11
-13 22 -37 26 -53 7 -28 4 -26 -48 25 l-55 54 21 17 c24 17 38 15 38 -6z m226
14 c18 0 25 -60 13 -105 -31 -118 -39 -237 -19 -275 6 -11 13 -59 16 -107 4
-75 15 -203 29 -365 3 -33 -8 -58 -21 -46 -19 20 -35 140 -36 273 0 83 -4 155
-8 160 -15 19 -37 374 -31 469 1 4 11 6 24 2 12 -3 27 -6 33 -6z m-107 -63 l0
-52 -24 50 c-21 45 -22 51 -7 56 27 10 32 1 31 -54z m-294 3 c14 0 55 -46 55
-61 0 -18 -70 -9 -90 11 -23 23 -24 33 -9 62 10 19 12 20 21 5 5 -10 15 -17
23 -17z m534 -78 c29 -27 30 -29 15 -51 -14 -19 -22 -22 -53 -16 -49 9 -52 14
-39 58 14 45 35 48 77 9z m-386 -34 c-8 -14 -40 -8 -56 10 -10 10 -15 21 -12
24 8 8 73 -26 68 -34z m-233 22 c0 -17 81 -52 106 -46 13 4 24 2 24 -4 0 -5
18 -19 40 -30 37 -19 43 -19 75 -6 41 18 45 12 10 -16 -14 -11 -25 -26 -25
-34 0 -18 -41 -34 -68 -27 -12 3 -27 21 -36 44 -18 44 -30 47 -66 19 -47 -37
-100 -17 -120 45 -6 19 -17 35 -23 36 -7 1 6 7 28 14 50 17 55 17 55 5z m384
-177 c3 -42 6 -99 6 -128 0 -28 5 -56 11 -62 6 -6 12 -66 15 -144 1 -74 8
-152 13 -174 6 -22 11 -43 11 -47 0 -14 -48 -8 -78 9 -28 16 -30 21 -26 63 2
25 6 127 7 227 3 129 7 186 16 197 12 14 10 65 -5 119 -3 10 0 17 9 17 10 0
16 -20 21 -77z m-691 -698 c161 -15 160 -15 201 -61 22 -24 47 -44 57 -44 19
0 31 -31 18 -51 -4 -7 -5 -25 -2 -39 3 -17 -1 -31 -11 -39 -9 -8 -16 -19 -16
-26 0 -8 -5 -15 -11 -17 -9 -3 -9 -9 0 -25 9 -19 7 -26 -14 -49 -29 -31 -30
-39 -10 -78 25 -48 19 -63 -36 -91 -47 -24 -50 -28 -44 -56 8 -34 -9 -40 -25
-9 -17 32 -87 63 -126 55 -58 -10 -194 -146 -194 -194 0 -10 -18 -38 -39 -60
-22 -23 -44 -56 -50 -74 -10 -30 -14 -32 -50 -29 -51 5 -78 -11 -97 -56 -12
-31 -19 -38 -41 -37 -37 0 -40 -25 -7 -64 34 -41 93 -71 139 -71 19 0 43 -4
53 -9 44 -22 170 -49 216 -46 36 2 62 -3 90 -17 39 -20 101 -21 147 -3 10 4
19 -3 27 -20 10 -22 9 -32 -8 -65 -11 -22 -20 -53 -20 -70 0 -43 -18 -35 -48
21 -49 93 -99 127 -162 108 -31 -9 -41 -9 -62 5 -31 21 -145 17 -159 -5 -10
-16 -1 -128 11 -144 5 -5 10 -23 12 -40 3 -27 7 -30 38 -30 31 0 35 3 35 25 0
14 -6 36 -12 50 -16 32 -16 53 -1 68 26 26 78 7 78 -28 0 -9 6 -25 14 -35 13
-18 15 -18 40 -2 14 10 26 26 26 37 0 14 7 20 23 20 29 0 62 -35 71 -75 15
-63 62 -85 86 -40 13 25 14 25 34 6 12 -11 37 -23 56 -28 29 -8 40 -18 62 -63
31 -63 33 -69 16 -74 -116 -34 -165 -53 -181 -69 -10 -10 -25 -16 -33 -13 -8
3 -33 -1 -55 -8 -47 -16 -60 -15 -109 10 -23 12 -58 18 -100 19 -51 0 -68 4
-81 19 -15 18 -16 18 -59 -4 -45 -23 -91 -28 -220 -22 -113 5 -391 -8 -413
-20 -25 -13 -186 -6 -332 16 -66 10 -121 12 -163 7 -34 -4 -81 -5 -104 -2 -60
8 -64 28 -48 225 20 235 19 480 -3 919 -2 21 1 41 4 43 4 2 3 21 -2 41 -11 51
-9 213 3 236 6 12 6 23 -2 32 -7 8 -9 18 -6 23 3 6 -1 15 -9 22 -25 21 -19 59
10 66 14 4 28 4 31 1 3 -3 33 2 67 9 46 11 103 13 231 9 94 -3 194 -5 221 -5
28 0 75 -6 105 -14 42 -11 97 -14 235 -10 316 8 368 11 470 27 130 22 156 25
178 20 9 -3 36 -6 60 -8z m548 -193 c42 4 55 -10 40 -40 -5 -9 -14 -49 -21
-88 -15 -94 -62 -177 -127 -222 -26 -18 -37 -21 -52 -12 -15 7 -31 6 -63 -6
-70 -25 -78 -27 -78 -16 0 6 17 16 39 22 49 13 57 43 27 112 l-21 50 44 38
c36 31 43 42 37 63 -7 30 10 84 37 114 l20 22 40 -20 c26 -14 53 -20 78 -17z
m184 14 c22 0 51 3 65 7 l25 8 -1 -90 c-2 -144 23 -234 94 -343 13 -20 21 -41
18 -47 -10 -15 -67 -2 -93 21 -26 24 -71 159 -80 239 -5 52 -9 59 -34 68 -25
9 -29 7 -41 -20 -7 -16 -16 -29 -20 -29 -4 0 -5 -7 -1 -16 6 -15 -23 -140 -37
-159 -4 -5 -11 -24 -14 -42 -11 -50 -28 -57 -72 -32 -22 13 -41 24 -43 26 -3
2 5 13 15 26 11 12 37 51 58 86 30 52 41 86 59 188 20 115 23 123 42 117 11
-4 38 -7 60 -8z m-27 -395 c-12 -94 -15 -104 -37 -112 -13 -5 -25 -8 -27 -6
-2 2 13 53 34 114 20 61 38 110 39 109 2 -2 -3 -49 -9 -105z m752 79 c30 -16
60 -65 69 -115 8 -42 7 -47 -14 -61 -28 -18 -36 -36 -25 -54 7 -11 19 -11 68
0 84 17 140 7 189 -35 23 -19 50 -54 61 -78 11 -23 31 -49 45 -56 38 -20 72
-71 60 -89 -18 -29 -41 -38 -63 -24 -31 19 -48 14 -65 -18 -8 -16 -24 -34 -34
-40 -29 -15 -87 -12 -101 5 -18 21 -25 19 -64 -20 -31 -31 -42 -35 -85 -35
-31 0 -55 6 -65 15 -18 18 -53 20 -58 3 -3 -7 -20 -13 -39 -14 -19 -1 -61 -6
-93 -12 -52 -10 -62 -9 -78 5 -17 15 -17 17 2 30 54 38 43 86 -13 56 -24 -12
-34 -12 -61 -2 -37 14 -86 57 -86 75 0 19 -18 27 -46 20 -33 -9 -30 -30 12
-81 35 -42 85 -71 131 -77 21 -3 21 -3 2 -26 -12 -16 -34 -26 -60 -29 -39 -6
-44 -3 -70 28 -25 31 -30 33 -49 21 -27 -16 -33 -11 -32 27 1 33 -22 48 -45
29 -9 -7 -13 -22 -9 -38 4 -21 -1 -31 -23 -48 -65 -48 -160 -50 -205 -3 -20
21 -26 39 -30 94 -6 79 -10 87 -41 87 -29 0 -39 -35 -24 -79 9 -26 8 -35 -11
-61 -27 -38 -68 -60 -102 -53 -18 4 -32 -1 -43 -15 -15 -17 -23 -18 -54 -10
-46 13 -60 24 -54 46 3 12 -5 23 -24 32 -15 8 -33 21 -38 28 -6 7 -18 10 -27
7 -20 -8 -31 -45 -17 -61 7 -9 0 -14 -30 -19 -49 -8 -119 12 -126 37 -8 22
-13 22 -52 3 -33 -17 -79 -11 -173 22 -25 9 -70 15 -101 14 -43 -2 -59 2 -73
18 -11 12 -14 21 -7 26 6 3 11 14 11 24 0 10 8 25 19 35 17 15 22 15 64 1 59
-20 79 -12 72 29 -7 38 11 72 47 94 25 15 28 15 47 -2 11 -10 24 -15 29 -12 5
3 10 -14 10 -39 1 -44 26 -94 47 -95 6 0 17 4 25 10 12 8 12 13 -1 42 -15 32
-13 77 5 120 9 21 -29 35 -49 18 -11 -9 -21 -6 -44 11 -17 13 -31 26 -31 30 0
4 11 21 25 37 14 17 25 34 25 39 0 11 49 56 78 72 25 13 72 14 91 2 13 -8 13
-12 1 -26 -8 -10 -16 -31 -17 -49 -9 -87 -8 -99 10 -110 15 -9 22 -6 38 17 12
15 29 27 40 27 13 0 19 7 19 24 0 14 -5 28 -10 31 -6 4 -8 11 -4 16 7 11 47 5
115 -19 25 -8 54 -12 64 -9 16 7 17 9 1 25 -9 10 -16 24 -16 30 0 15 43 28 48
13 2 -6 12 -11 22 -11 33 0 41 -23 31 -91 -11 -80 1 -119 35 -119 23 0 24 3
24 58 0 34 6 66 14 77 13 18 16 17 54 -22 49 -49 111 -66 142 -38 28 25 39 11
37 -45 -2 -56 13 -81 41 -64 9 6 18 25 19 43 1 18 4 39 7 47 5 13 72 47 166
86 14 6 32 14 40 18 8 4 33 5 54 2 l39 -5 -6 37 c-4 23 -2 36 5 36 6 0 28 18
48 40 56 60 122 53 134 -15 6 -29 11 -35 33 -35 15 0 34 7 44 16 15 13 16 20
6 36 -10 17 -7 24 30 59 44 40 61 46 93 29z m-412 -32 c15 -19 10 -98 -6 -98
-25 0 -50 19 -71 55 -26 44 -26 43 2 48 43 8 65 7 75 -5z m-271 -122 c-9 -26
-27 -15 -27 16 1 31 1 32 15 13 9 -10 14 -24 12 -29z"/>
<path d="M6926 6365 c-65 -34 -101 -131 -57 -155 28 -15 29 -14 41 29 13 49
51 81 97 81 31 0 33 -2 27 -25 -7 -27 9 -55 31 -55 7 0 24 11 38 24 22 21 31
23 64 16 40 -10 72 -43 73 -76 0 -29 40 -40 58 -17 18 25 15 50 -10 84 -28 37
-15 49 55 49 62 0 109 -32 101 -67 -5 -19 -2 -25 15 -30 11 -3 21 -11 21 -19
0 -18 34 -35 54 -28 9 3 32 3 51 0 30 -6 39 -15 60 -57 28 -55 47 -68 70 -49
24 20 18 53 -17 99 -33 43 -120 96 -142 88 -17 -7 -27 1 -59 50 -15 23 -41 50
-58 59 -50 25 -128 29 -190 8 -30 -9 -72 -18 -94 -19 -22 -1 -47 -5 -56 -9
-12 -5 -18 -1 -22 13 -3 13 -14 21 -29 22 -12 0 -36 2 -53 3 -16 1 -47 -7 -69
-19z"/>
<path d="M5234 4518 c-4 -6 -6 -59 -5 -118 2 -116 -4 -131 -61 -145 -33 -8
-62 10 -90 56 -18 29 -18 38 -9 95 12 69 2 104 -31 104 -26 0 -41 -62 -36
-146 4 -58 11 -82 32 -114 59 -90 141 -102 217 -32 l40 38 4 118 c2 68 0 127
-6 138 -11 20 -44 24 -55 6z"/>
<path d="M5410 4417 c-45 -16 -69 -30 -79 -48 -29 -53 9 -99 82 -99 74 0 104
-65 39 -84 -27 -7 -36 -6 -55 12 -26 24 -57 14 -57 -19 0 -33 39 -58 90 -59
93 0 159 84 115 147 -19 27 -88 63 -121 63 -40 0 -19 17 30 24 60 9 81 26 72
59 -8 33 -28 34 -116 4z"/>
<path d="M6125 4419 c-39 -7 -95 -57 -95 -86 0 -7 -5 -13 -11 -13 -15 0 -5
-107 14 -143 12 -23 16 -24 38 -13 22 11 30 44 20 81 -2 6 -3 27 -2 48 1 34 5
40 38 53 28 12 54 14 110 9 62 -6 73 -4 73 9 0 38 -102 69 -185 55z"/>
<path d="M5761 4402 c-18 -2 -43 -12 -54 -23 -11 -10 -24 -19 -27 -19 -9 0
-40 -68 -40 -89 0 -10 3 -21 6 -24 4 -4 8 -21 9 -38 7 -78 57 -114 158 -112
38 1 82 9 99 18 17 8 37 15 44 15 17 0 23 21 12 43 -11 21 -37 22 -83 3 -49
-21 -100 -27 -130 -16 -25 9 -35 40 -13 40 27 0 116 51 141 82 35 42 32 76 -8
99 -37 20 -69 27 -114 21z m62 -71 c15 -6 12 -11 -23 -34 -40 -26 -100 -37
-100 -18 0 4 9 20 21 35 21 27 61 34 102 17z"/>
<path d="M5120 3744 c-120 -43 -171 -117 -146 -212 35 -135 96 -179 232 -169
79 6 123 25 131 58 5 16 8 14 27 -14 13 -19 30 -32 43 -32 12 0 28 -8 35 -18
30 -41 113 -16 167 50 33 40 37 62 20 111 -20 59 -111 90 -183 62 -39 -14 -85
-64 -92 -98 -7 -33 3 -29 -154 -56 -100 -16 -119 -9 -149 58 -32 71 -33 90 -8
127 29 43 67 62 140 67 58 4 70 16 49 49 -9 14 -88 26 -112 17z m445 -238 c19
-14 19 -16 3 -50 -10 -19 -30 -42 -46 -50 -28 -14 -31 -14 -52 9 -13 14 -32
25 -42 25 -10 0 -18 3 -18 6 0 12 42 59 58 66 29 12 77 9 97 -6z"/>
<path d="M5761 3584 c-17 -13 -28 -14 -46 -6 -16 7 -26 7 -34 -1 -15 -15 -14
-27 10 -104 36 -117 40 -123 64 -123 26 0 39 33 24 61 -13 25 -11 83 3 97 15
15 45 16 54 1 3 -6 9 -34 13 -63 6 -48 8 -51 35 -51 24 0 31 5 38 30 5 17 6
38 4 48 -5 19 7 22 35 7 23 -13 61 -83 54 -102 -2 -7 2 -22 11 -33 11 -15 18
-17 32 -9 28 18 25 50 -10 115 -36 68 -94 119 -137 119 -14 1 -37 7 -51 15
-33 19 -70 19 -99 -1z"/>
<path d="M7652 4038 c-15 -15 -16 -45 -2 -53 6 -3 10 -14 10 -25 0 -20 22 -32
45 -24 17 7 20 50 5 88 -10 28 -38 34 -58 14z"/>
<path d="M7398 3958 c-22 -26 -23 -42 -4 -57 10 -8 21 -7 46 5 26 13 37 14 51
5 38 -23 82 -8 73 25 -4 14 -20 24 -50 32 -65 18 -97 15 -116 -10z"/>
<path d="M7780 3946 c0 -8 12 -28 26 -45 38 -45 31 -83 -18 -95 -27 -7 -38
-15 -38 -28 0 -15 8 -18 48 -18 60 0 92 28 92 81 0 33 -31 96 -54 111 -19 13
-56 9 -56 -6z"/>
<path d="M7925 3900 c-4 -6 2 -21 14 -34 30 -32 38 -82 16 -106 -39 -43 13
-69 53 -27 27 29 29 87 4 137 -13 27 -24 36 -49 38 -17 2 -34 -2 -38 -8z"/>
<path d="M6616 3877 c-20 -15 -36 -91 -28 -133 7 -35 44 -59 71 -44 25 13 27
36 6 48 -19 10 -23 76 -5 96 14 18 7 46 -13 46 -7 0 -21 -6 -31 -13z"/>
<path d="M1062 5394 c-14 -9 -22 -26 -22 -43 0 -30 -15 -41 -53 -41 -12 0 -34
-6 -48 -13 -14 -8 -45 -17 -69 -21 -23 -4 -55 -16 -70 -26 -16 -11 -31 -20
-36 -20 -4 0 -26 -16 -50 -35 -32 -26 -46 -47 -54 -78 -6 -23 -24 -68 -40
-100 -17 -32 -27 -63 -24 -68 3 -6 0 -16 -6 -24 -6 -8 -9 -18 -6 -23 2 -4 7
-29 10 -54 6 -44 5 -46 -44 -87 -28 -23 -50 -47 -50 -52 0 -6 -20 -53 -45
-105 -25 -51 -45 -100 -45 -108 0 -8 -4 -17 -10 -21 -5 -3 -7 -12 -4 -19 3 -7
-2 -19 -11 -26 -19 -15 -45 -74 -45 -100 0 -9 -10 -28 -21 -41 -29 -32 -46
-74 -55 -134 -4 -27 -15 -64 -25 -81 -10 -18 -15 -34 -12 -37 2 -3 -3 -17 -12
-31 -10 -15 -14 -33 -10 -46 4 -12 2 -26 -4 -33 -5 -7 -13 -35 -16 -62 -6 -43
-4 -53 14 -70 39 -34 128 -26 223 21 26 13 56 24 66 24 11 0 35 6 53 14 19 7
72 16 119 20 47 3 94 8 106 12 17 4 24 -1 34 -28 8 -18 22 -39 32 -46 16 -12
15 -15 -13 -40 -24 -22 -30 -35 -29 -67 1 -22 1 -53 2 -70 1 -37 12 -45 66
-45 52 0 93 20 112 54 13 26 13 26 114 20 56 -3 152 -5 214 -4 90 2 117 -1
130 -13 21 -19 132 -18 156 2 34 28 9 100 -50 149 -35 29 -35 30 -29 88 l7 59
111 3 c112 2 269 -19 294 -40 7 -6 24 -7 37 -4 15 4 26 1 28 -7 3 -8 35 -14
94 -17 96 -6 120 4 108 45 -3 11 -8 40 -10 65 -9 87 -42 172 -106 268 -15 24
-28 47 -28 53 0 5 -6 9 -13 9 -22 0 -49 36 -93 124 -52 104 -134 248 -150 261
-6 6 -23 27 -36 48 -14 20 -43 56 -64 79 -38 42 -64 81 -64 99 0 5 -8 28 -19
52 -10 23 -25 58 -32 77 -29 77 -115 180 -151 180 -9 0 -37 9 -62 20 -25 10
-52 17 -60 14 -28 -11 -53 14 -60 60 -5 31 -14 49 -31 60 -31 21 -114 21 -143
0z m120 -230 c3 -27 7 -84 7 -127 1 -64 -2 -82 -18 -98 -19 -20 -19 -19 -18
130 1 95 6 150 12 148 6 -2 13 -26 17 -53z m229 -216 c24 -17 48 -37 52 -45 4
-7 14 -13 21 -13 41 0 152 -94 201 -170 12 -19 37 -51 54 -70 17 -19 56 -84
86 -144 31 -60 62 -118 70 -130 8 -11 15 -27 15 -34 0 -7 15 -28 33 -45 56
-55 107 -123 107 -145 0 -11 7 -27 15 -36 8 -8 20 -39 25 -68 6 -29 13 -61 16
-71 11 -35 -32 -1 -103 82 -64 74 -90 118 -177 301 -44 92 -84 162 -95 170 -4
3 -16 19 -24 37 -9 17 -25 34 -34 37 -10 3 -26 18 -37 34 -10 15 -34 38 -52
50 -19 12 -34 27 -34 32 0 6 -5 10 -12 10 -6 0 -19 6 -27 13 -9 8 -46 26 -82
40 -54 21 -72 24 -105 17 -21 -5 -62 -10 -91 -10 -42 0 -54 -4 -63 -20 -10
-18 -13 -19 -44 -6 -34 14 -94 19 -201 18 -117 -2 -143 -10 -194 -61 -59 -58
-91 -84 -99 -77 -9 10 -42 -26 -42 -45 0 -10 -4 -21 -10 -24 -6 -3 -10 -16
-10 -29 0 -12 -18 -48 -40 -79 -22 -31 -37 -63 -34 -71 3 -8 -6 -37 -21 -66
-14 -28 -25 -59 -24 -68 5 -30 -11 -89 -41 -156 -17 -36 -30 -73 -30 -82 0 -8
-18 -33 -40 -55 -46 -45 -43 -39 -30 -75 8 -21 7 -31 -6 -45 -10 -11 -23 -19
-29 -19 -20 0 -25 40 -10 69 7 15 19 55 26 91 7 36 18 74 25 85 7 11 15 38 17
61 5 40 18 72 97 239 21 44 44 100 51 125 7 25 25 63 39 85 15 22 32 55 40 73
7 18 25 41 40 52 15 10 38 35 51 55 13 19 32 38 42 41 9 3 17 10 17 17 0 20
43 57 67 57 13 0 23 4 23 9 0 14 131 49 178 47 29 -1 52 -9 75 -27 52 -42 76
-52 92 -39 10 8 21 7 44 -4 40 -21 61 -12 61 28 0 41 18 64 52 69 15 1 30 6
34 10 13 13 31 7 75 -25z m-260 -268 c-11 -37 -17 -149 -10 -200 3 -30 1 -35
-18 -38 -12 -2 -36 -21 -54 -43 -26 -33 -30 -46 -27 -83 3 -44 3 -44 -32 -49
-19 -3 -59 -10 -88 -16 -48 -9 -58 -7 -115 17 -96 42 -96 42 -108 107 -5 33
-16 87 -24 120 -7 33 -11 62 -9 64 2 2 11 -5 21 -17 38 -43 114 -74 202 -82
85 -8 116 -5 139 13 9 7 12 4 12 -12 0 -32 38 -28 50 7 6 15 14 34 20 44 6 10
6 28 0 50 -14 46 -12 58 5 58 23 0 18 39 -7 61 l-23 19 35 -2 c26 -2 34 -7 31
-18z m393 -212 c3 -34 12 -89 18 -120 8 -37 8 -61 3 -67 -10 -9 -130 -23 -189
-22 -40 1 -86 23 -86 42 0 9 -11 31 -25 50 -25 35 -68 119 -63 125 2 1 24 -3
48 -10 72 -22 163 -35 193 -29 30 6 67 46 67 73 0 19 10 31 20 25 4 -2 10 -33
14 -67z m-350 -113 c36 -33 31 -59 -11 -63 -65 -6 -97 40 -51 72 29 21 30 20
62 -9z m1 -313 c5 -31 9 -66 11 -77 2 -11 6 -65 10 -121 5 -87 4 -102 -9 -107
-20 -7 -24 16 -31 158 -3 55 -10 135 -16 178 -6 43 -8 83 -4 89 9 14 30 -49
39 -120z m-91 -9 c4 -32 8 -108 11 -170 4 -104 3 -112 -15 -118 -31 -10 -41 3
-34 43 5 33 7 85 13 255 2 65 18 59 25 -10z m-350 -69 c8 -21 9 -20 -34 -29
l-35 -7 24 26 c28 30 37 32 45 10z m555 -57 c18 -36 21 -49 12 -65 -15 -28
-14 -79 2 -85 6 -3 2 -6 -10 -6 -25 -1 -35 21 -32 71 1 18 -1 57 -5 86 -8 62
1 61 33 -1z m-312 -117 c-6 -22 -17 -40 -24 -40 -17 0 -16 5 3 46 22 46 34 43
21 -6z m401 -16 c-5 -28 -28 -29 -28 -1 0 13 3 27 7 31 10 10 25 -10 21 -30z
m133 -45 c14 -28 -2 -46 -30 -33 -15 7 -17 14 -10 32 11 28 25 28 40 1z"/>
<path d="M3302 4958 c-7 -9 -6 -34 4 -78 7 -36 17 -93 20 -127 l7 -63 -37 0
c-49 0 -94 -24 -102 -55 -3 -14 -4 -43 -2 -65 2 -22 1 -40 -2 -40 -14 0 -50
80 -52 114 -2 20 -6 36 -10 36 -4 0 -7 10 -5 22 3 33 -28 34 -68 4 -18 -14
-39 -26 -44 -26 -6 0 -21 -6 -34 -12 -93 -53 -99 -120 -15 -164 39 -20 63 -17
109 11 l40 26 25 -31 c28 -32 52 -37 85 -17 17 10 23 10 26 0 12 -33 163 9
163 45 0 11 -13 12 -65 7 -55 -6 -69 -5 -85 10 -37 33 -19 75 32 75 17 0 37
-10 53 -27 25 -27 25 -28 44 -8 18 19 18 24 4 115 -8 52 -20 125 -25 163 -12
82 -39 117 -66 85z m-238 -345 c-13 -55 -56 -78 -94 -53 -12 9 -8 16 24 45 49
44 79 47 70 8z"/>
<path d="M2570 4925 c-9 -11 -8 -21 3 -47 14 -31 49 -229 42 -237 -2 -1 -27 5
-55 14 -125 42 -205 1 -169 -88 22 -57 50 -87 102 -113 42 -22 59 -25 98 -20
94 13 146 50 103 74 -14 8 -14 10 0 21 10 9 12 18 6 29 -12 22 -50 209 -50
247 0 17 -6 52 -13 79 -14 52 -43 70 -67 41z m-38 -315 c32 -12 67 -35 89 -60
34 -37 36 -41 19 -50 -29 -15 -102 -10 -135 9 -41 24 -73 85 -55 106 16 19 19
19 82 -5z"/>
<path d="M13170 4794 c-23 -11 -73 -17 -148 -19 -65 -2 -118 -8 -126 -14 -19
-16 -229 -27 -413 -22 -40 1 -120 -5 -178 -14 -78 -11 -138 -14 -233 -9 -70 4
-179 6 -242 4 -63 -1 -189 -3 -280 -3 -91 0 -210 0 -265 0 -55 -1 -134 0 -175
1 -41 0 -219 2 -395 3 l-319 2 -20 -26 c-19 -26 -19 -27 0 -48 23 -25 23 -25
23 -354 1 -310 -6 -542 -20 -645 -5 -41 -12 -151 -15 -245 -3 -93 -10 -185
-15 -204 -9 -36 -1 -56 31 -75 8 -6 76 -11 150 -12 74 -1 223 -5 330 -8 117
-4 227 -2 275 4 44 6 97 13 117 15 21 2 43 7 50 12 7 4 153 9 323 10 447 3
569 7 577 18 5 6 71 9 175 7 110 -1 212 3 294 14 144 18 203 16 241 -10 28
-19 48 -15 48 10 0 10 14 14 56 14 48 0 60 -4 80 -25 23 -25 29 -26 121 -24
54 1 125 6 158 10 198 25 508 37 710 26 25 -1 45 -9 53 -19 15 -20 37 -23 47
-8 20 32 24 315 11 665 -11 310 -11 338 -2 430 5 44 10 100 12 125 1 25 5 63
8 85 3 22 9 86 12 141 l5 101 -39 31 -39 31 -142 -2 c-79 -1 -144 0 -146 3 -2
3 -57 2 -122 -3 -77 -5 -146 -4 -198 3 -44 6 -132 15 -195 20 -63 4 -122 10
-130 14 -8 3 -31 -2 -50 -10z m171 -97 c-6 -7 -10 -27 -10 -43 0 -16 -3 -87
-6 -159 -5 -79 -3 -173 4 -240 18 -169 25 -715 11 -858 -16 -170 -10 -159 -88
-156 -37 1 -89 8 -116 15 -27 7 -75 14 -108 16 -33 1 -61 5 -63 8 -1 3 1 48 6
100 7 78 10 455 5 690 0 30 2 87 6 125 10 101 22 318 19 330 -2 6 -6 36 -10
69 -6 44 -4 61 6 72 17 16 9 15 137 20 55 2 104 8 110 14 5 5 32 10 59 10 40
0 47 -3 38 -13z m194 -8 c33 -7 89 -13 125 -13 l65 -1 -2 -35 c-7 -166 -9
-251 -4 -256 10 -10 12 -52 15 -269 1 -115 6 -291 11 -390 7 -150 5 -195 -8
-270 -9 -50 -19 -110 -22 -135 -3 -24 -7 -46 -9 -47 -2 -2 -74 -6 -161 -8
l-158 -5 8 32 c9 41 21 364 19 513 -1 118 -11 335 -20 480 -8 113 -8 192 1
324 l7 103 37 -5 c20 -3 63 -11 96 -18z m495 -16 c26 -15 31 -15 69 1 37 14
42 14 47 1 4 -8 4 -24 1 -34 -2 -11 -1 -39 3 -62 5 -24 6 -48 2 -53 -3 -5 -6
-39 -7 -75 -1 -36 -7 -98 -14 -136 -16 -93 -16 -211 0 -505 13 -246 16 -546 6
-574 -5 -13 -11 -12 -44 3 -66 31 -156 52 -188 43 -17 -5 -51 -6 -77 -4 -56 5
-56 5 -32 120 18 83 21 257 9 427 -4 55 -7 132 -5 170 5 172 4 259 -4 390 -5
77 -8 145 -8 150 1 6 4 40 8 77 l7 67 86 4 c47 1 92 4 99 5 8 1 26 -5 42 -15z
m-1552 -77 c6 -30 8 -101 6 -162 -3 -60 -5 -125 -5 -144 1 -19 1 -129 -1 -245
-4 -407 -3 -581 5 -687 l8 -106 -127 3 c-79 2 -129 8 -134 15 -3 6 -2 39 3 73
5 34 5 136 1 227 -4 91 -6 180 -5 199 1 19 -3 49 -9 65 -22 69 -26 357 -6 455
7 34 10 64 6 66 -3 2 -3 30 0 62 3 32 5 91 5 131 0 65 2 73 20 77 67 13 202
31 211 28 6 -3 16 -28 22 -57z m426 52 c-3 -5 0 -15 6 -23 7 -8 10 -20 7 -27
-2 -7 0 -21 5 -31 14 -27 10 -211 -9 -392 -5 -44 -7 -105 -6 -135 6 -107 3
-636 -3 -675 -3 -22 -7 -48 -8 -57 -3 -27 -6 -28 -102 -32 -49 -2 -121 -7
-160 -11 l-72 -7 -6 38 c-22 145 -28 409 -13 564 5 47 9 135 9 195 0 61 1 162
1 225 1 63 1 172 0 241 l0 126 41 -4 c23 -2 68 0 101 4 83 12 216 12 209 1z
m-1414 -13 c545 -6 643 -9 659 -19 10 -7 7 -154 -5 -251 -12 -100 -11 -414 2
-500 16 -107 30 -308 28 -420 -2 -79 -12 -197 -19 -203 -3 -3 -300 -21 -445
-26 -41 -2 -117 1 -169 7 -86 10 -233 2 -331 -18 -74 -15 -226 -24 -328 -20
-64 3 -194 5 -288 5 -153 0 -173 2 -176 17 -5 29 11 316 21 368 13 61 21 319
25 728 2 189 7 312 13 318 6 6 34 13 64 15 29 3 54 6 56 7 1 1 86 1 190 0 103
-1 420 -5 703 -8z"/>
<path d="M10770 4551 c-8 -4 -53 -13 -99 -19 -46 -7 -90 -17 -97 -23 -20 -17
-17 -53 6 -74 25 -23 25 -33 0 -60 -20 -21 -20 -22 -2 -46 11 -13 19 -41 20
-61 1 -30 -4 -41 -28 -58 -36 -26 -30 -44 21 -64 28 -12 45 -13 65 -6 14 6 57
11 95 11 38 1 72 5 75 10 13 21 -47 57 -106 64 -62 7 -70 16 -62 63 4 19 10
22 56 22 59 0 100 25 94 56 -3 16 -13 19 -76 22 -63 3 -72 5 -72 22 0 23 21
35 77 45 23 3 52 15 64 26 12 10 26 19 31 19 5 0 8 12 6 28 -2 20 -9 28 -28
29 -14 2 -32 -1 -40 -6z"/>
<path d="M11742 4434 c-5 -10 -5 -34 0 -61 6 -26 6 -49 1 -54 -5 -5 -36 -4
-73 2 -57 9 -66 8 -77 -7 -16 -22 -16 -26 0 -47 7 -9 41 -22 80 -29 l67 -13
-1 -65 c-3 -115 -1 -127 23 -134 13 -3 27 -1 32 4 4 4 10 48 12 96 2 48 6 89
9 93 4 3 40 7 81 9 70 4 74 5 74 28 0 25 -29 46 -58 43 -9 -1 -36 -1 -58 0
l-41 1 -6 66 c-5 64 -15 83 -44 84 -7 0 -16 -7 -21 -16z"/>
<path d="M11190 4363 c-66 -13 -119 -89 -120 -170 0 -85 90 -146 183 -123 52
13 117 41 117 50 0 23 -29 29 -114 23 -83 -5 -93 -4 -109 15 -28 30 -13 45 38
38 74 -12 146 40 145 102 -1 48 -69 79 -140 65z m68 -75 c-8 -24 -98 -31 -98
-8 0 12 20 18 63 19 26 1 37 -3 35 -11z"/>
<path d="M10976 4328 c-14 -68 -27 -108 -35 -103 -5 2 -14 26 -21 52 -12 49
-23 63 -52 63 -24 0 -31 -35 -14 -69 9 -17 16 -39 16 -49 0 -10 14 -38 30 -60
23 -33 37 -42 59 -42 36 0 61 35 61 85 0 19 5 55 12 79 9 36 9 48 -1 60 -23
27 -48 19 -55 -16z"/>
<path d="M11447 4285 c-29 -29 -47 -92 -47 -164 0 -64 7 -81 35 -81 34 0 49
24 37 59 -13 38 7 125 30 129 31 6 88 -105 88 -170 0 -22 6 -31 27 -39 46 -17
54 15 24 102 -28 83 -57 134 -91 163 -40 33 -70 33 -103 1z"/>
<path d="M10634 3875 c-4 -9 -3 -28 1 -43 15 -51 6 -160 -21 -272 -19 -77 -17
-97 13 -117 45 -32 101 -41 199 -32 49 4 96 8 104 9 8 0 23 7 33 14 14 11 16
19 7 40 l-10 26 -138 -6 c-95 -5 -141 -4 -146 4 -3 6 1 50 9 99 16 90 21 245
9 276 -8 21 -52 23 -60 2z"/>
<path d="M11460 3680 c-87 -52 -150 -112 -150 -144 0 -24 32 -54 73 -69 18 -7
114 18 131 34 21 19 33 6 49 -51 24 -85 22 -108 -8 -116 -26 -6 -124 0 -182
12 -25 5 -33 2 -42 -14 -28 -52 27 -80 150 -76 111 3 154 20 162 64 7 35 1
103 -13 135 -10 23 -20 65 -27 117 -3 20 -14 45 -24 54 -19 17 -21 16 -64 -26
-43 -42 -110 -76 -120 -60 -6 10 50 57 105 85 25 14 56 33 70 44 20 16 22 21
11 35 -20 24 -49 18 -121 -24z"/>
<path d="M11088 3690 c-22 -13 -68 -91 -68 -114 0 -10 -8 -34 -17 -53 l-17
-36 30 -24 c44 -35 97 -47 131 -29 67 37 93 74 93 134 0 74 -100 154 -152 122z
m82 -89 c17 -33 11 -58 -21 -85 -39 -33 -47 -33 -60 1 -10 27 -3 54 24 91 14
18 45 15 57 -7z"/>
<path d="M3834 4730 c-28 -14 -46 -31 -59 -58 -11 -22 -28 -43 -40 -48 -11 -5
-19 -16 -18 -24 8 -51 38 -138 54 -154 17 -19 19 -19 38 -2 16 15 18 29 16
100 -4 112 7 126 101 133 93 6 114 11 114 28 0 40 -136 57 -206 25z"/>
<path d="M2856 4678 c-14 -29 -26 -58 -26 -66 0 -22 -19 -3 -35 34 -11 28 -19
35 -37 32 -31 -4 -34 -32 -9 -67 12 -16 21 -35 21 -41 0 -7 9 -28 21 -46 29
-47 65 -47 85 1 7 19 14 42 14 52 0 45 22 94 46 103 29 11 31 26 5 40 -40 21
-58 12 -85 -42z"/>
<path d="M3523 4714 c-18 -8 -47 -33 -64 -57 -27 -37 -30 -48 -26 -91 5 -53
23 -74 84 -102 85 -37 249 15 188 60 -17 12 -24 12 -55 0 -22 -10 -48 -13 -72
-9 -47 8 -56 21 -20 28 39 9 126 69 130 90 5 25 -24 56 -73 78 -47 22 -50 22
-92 3z m64 -62 c17 -11 4 -25 -39 -45 -37 -17 -58 -21 -58 -12 0 4 7 19 15 35
12 22 23 30 43 30 15 0 32 -4 39 -8z"/>
<path d="M4206 4403 c-16 -4 -17 -11 -12 -55 4 -28 10 -64 13 -80 l6 -29 -69
7 c-38 4 -73 7 -79 6 -5 0 -62 -3 -125 -6 -117 -7 -229 -8 -239 -2 -3 2 -28 0
-54 -4 -27 -4 -127 -1 -225 7 -115 9 -316 13 -577 12 -478 -2 -442 0 -482 -22
-38 -20 -36 -17 -23 -52 10 -26 13 -27 63 -21 157 17 780 27 897 14 47 -6 268
-11 493 -12 290 -2 411 -6 419 -14 7 -7 11 -47 10 -104 0 -81 2 -96 21 -115
11 -13 27 -23 34 -23 8 0 42 23 76 50 34 28 67 54 72 58 129 95 185 151 185
184 0 26 -3 29 -32 28 -18 0 -42 0 -53 1 -20 2 -192 110 -248 156 -29 23 -36
25 -71 16z"/>
<path d="M3624 2954 c-4 -15 -2 -70 5 -123 6 -53 13 -138 14 -190 2 -90 3 -94
27 -103 18 -7 27 -5 36 6 12 17 9 115 -7 221 -5 39 -12 97 -15 130 -7 78 -9
85 -33 85 -14 0 -23 -9 -27 -26z"/>
<path d="M6391 2911 c-12 -16 -21 -36 -21 -45 0 -22 -48 -116 -59 -116 -5 0
-14 -12 -20 -27 -6 -16 -24 -48 -40 -73 -36 -55 -36 -60 -9 -95 20 -26 24 -27
85 -21 62 6 69 3 64 -26 -12 -80 -19 -547 -8 -588 8 -32 32 -49 47 -34 5 5 11
108 14 229 2 121 8 232 14 247 6 14 9 57 7 95 -2 38 0 75 5 82 6 10 26 13 80
9 64 -5 74 -3 96 17 25 23 32 45 14 45 -5 0 -10 6 -10 14 0 7 -12 19 -27 25
-39 16 -142 189 -127 212 6 11 -58 79 -74 79 -6 0 -20 -13 -31 -29z"/>
<path d="M4287 2896 c-3 -8 -4 -45 -2 -84 2 -41 -2 -93 -11 -128 -26 -101 -27
-110 -9 -127 25 -26 45 -20 52 13 6 35 18 38 33 10 6 -11 16 -20 22 -20 7 0
26 -13 43 -29 24 -23 35 -27 53 -20 36 14 26 35 -38 84 -33 25 -60 49 -60 53
0 10 63 61 83 68 19 6 23 44 5 62 -9 9 -23 3 -60 -23 l-48 -35 -2 53 c-1 28
-2 66 -3 82 0 17 -4 36 -8 43 -11 16 -44 15 -50 -2z"/>
<path d="M5201 2871 c-15 -11 -21 -23 -16 -31 4 -7 10 -151 12 -321 l4 -309
-65 0 c-58 0 -67 -3 -81 -24 -18 -27 -9 -59 20 -70 9 -3 13 -10 10 -16 -3 -5
-2 -10 3 -10 10 0 82 -138 82 -157 0 -7 8 -18 18 -25 10 -7 21 -29 25 -50 7
-44 -2 -48 -111 -48 -40 0 -105 -7 -145 -16 -47 -11 -92 -15 -133 -11 -48 5
-65 3 -74 -8 -8 -10 -13 -71 -15 -182 -2 -93 -8 -211 -14 -263 -14 -127 -15
-310 -3 -390 10 -67 7 -451 -3 -528 -4 -26 -2 -49 5 -57 8 -10 8 -24 -1 -54
-11 -38 -11 -43 10 -62 20 -19 34 -20 189 -21 92 0 204 5 249 11 45 7 115 9
155 6 40 -3 135 -8 210 -10 75 -2 164 -9 198 -15 116 -21 479 -11 555 16 113
38 513 75 553 50 7 -4 62 -7 122 -7 60 0 140 -6 176 -13 62 -13 67 -13 85 5
14 14 17 24 11 37 -5 9 -12 78 -16 152 -4 74 -13 167 -20 205 -11 55 -29 365
-29 490 0 29 10 105 28 220 35 215 28 433 -14 437 -49 4 -79 3 -106 -3 -16 -5
-77 -2 -135 5 -62 8 -222 13 -390 14 -263 1 -334 4 -415 17 -37 6 -399 6 -417
0 -7 -2 -43 -6 -80 -9 -37 -3 -86 -9 -107 -12 -22 -4 -92 -3 -154 1 l-114 7
13 45 c15 51 89 189 107 200 7 5 24 25 39 47 27 40 27 66 0 66 -8 0 -12 3 -9
7 4 3 -1 12 -11 19 -12 10 -34 12 -73 8 -50 -6 -58 -4 -62 12 -3 11 -5 157 -5
327 0 348 -3 363 -61 318z m984 -1116 c17 -3 39 -7 51 -10 11 -2 103 -4 205
-4 332 1 454 -2 484 -11 17 -5 65 -11 108 -14 123 -9 121 -6 113 -150 -8 -165
-22 -295 -36 -333 -14 -39 3 -548 20 -603 6 -19 13 -95 16 -169 l5 -134 -68 8
c-37 4 -185 7 -327 6 -227 -1 -268 -3 -331 -21 -131 -37 -424 -57 -591 -41
-244 24 -501 31 -849 23 -132 -3 -195 12 -195 46 0 10 -4 22 -9 27 -6 6 -6 41
-1 90 13 111 13 419 0 484 -13 67 -13 239 0 351 10 90 22 300 20 362 -1 43 7
49 68 52 26 2 81 8 122 16 47 8 156 12 290 12 118 0 292 5 385 13 161 12 454
12 520 0z"/>
<path d="M6123 1578 c-7 -8 -13 -95 -17 -208 -3 -107 -10 -215 -15 -240 -10
-48 0 -80 24 -80 20 0 31 26 40 88 4 28 8 52 10 52 15 0 63 -36 107 -81 79
-82 150 -111 163 -69 8 26 -11 50 -40 50 -22 0 -135 100 -135 120 0 5 -12 10
-27 12 -14 2 -28 8 -30 14 -4 11 22 30 155 114 55 35 66 62 33 80 -27 14 -35
13 -62 -11 -23 -20 -51 -39 -129 -86 l-35 -22 0 137 c0 117 -2 137 -16 140 -9
1 -21 -3 -26 -10z"/>
<path d="M4941 1556 c-9 -10 -9 -31 0 -82 15 -93 15 -292 1 -306 -18 -18 -14
-38 7 -38 11 0 21 -4 23 -9 4 -11 300 -17 317 -7 15 10 14 56 -1 57 -7 1 -40
3 -73 4 -96 3 -199 17 -207 28 -3 6 -7 56 -7 111 0 56 -3 136 -7 179 -5 64 -9
77 -24 77 -10 0 -23 -6 -29 -14z"/>
<path d="M5436 1380 c-41 -13 -65 -38 -77 -84 -15 -54 4 -109 53 -158 43 -44
76 -48 152 -19 69 26 89 54 83 111 -4 38 -12 51 -54 89 -44 39 -100 72 -120
70 -4 0 -21 -5 -37 -9z m124 -99 c21 -17 36 -39 38 -55 3 -24 -3 -29 -53 -52
-61 -28 -86 -27 -78 5 4 15 -2 24 -20 32 -31 14 -41 56 -20 88 13 20 20 22 56
17 23 -4 58 -19 77 -35z"/>
<path d="M5800 1354 c-49 -21 -69 -42 -76 -81 -8 -40 9 -87 45 -126 50 -54
192 -71 207 -24 8 26 -23 52 -43 36 -17 -15 -80 -3 -114 22 -28 20 -44 75 -27
95 5 7 23 15 41 18 18 3 47 15 65 26 28 17 32 23 22 35 -16 19 -75 19 -120 -1z"/>
<path d="M3860 2763 c-24 -9 -71 -56 -81 -82 -16 -41 42 -111 91 -111 67 0
120 43 120 97 0 20 -36 84 -54 95 -13 9 -54 9 -76 1z m63 -112 c-13 -21 -40
-26 -58 -11 -23 19 -18 38 12 54 25 13 29 12 42 -6 10 -15 11 -25 4 -37z"/>
<path d="M4047 2725 c-43 -30 -46 -50 -16 -112 24 -50 66 -83 104 -83 30 0 65
16 65 30 0 16 -32 41 -46 36 -22 -9 -42 4 -59 37 -8 16 -15 32 -15 34 0 2 20
12 45 23 32 14 45 25 45 40 0 31 -74 28 -123 -5z"/>
<path d="M7628 2635 c-9 -20 -9 -58 0 -168 19 -217 31 -274 60 -297 14 -11 31
-20 38 -20 16 0 19 41 4 56 -20 20 -42 173 -44 309 -3 135 -4 140 -24 143 -16
2 -25 -4 -34 -23z"/>
<path d="M6853 2413 c-13 -2 -23 -9 -23 -14 0 -5 -8 -19 -18 -30 -30 -31 -44
-91 -31 -127 21 -61 174 -100 238 -61 57 34 35 50 -76 53 -104 3 -126 27 -76
86 24 29 30 31 70 25 41 -6 43 -5 43 18 0 47 -47 65 -127 50z"/>
<path d="M7140 2385 c-71 -53 -89 -131 -44 -185 21 -25 32 -30 51 -25 14 3 40
0 59 -7 31 -11 40 -10 79 11 79 42 84 102 12 177 -56 58 -106 67 -157 29z
m111 -61 c9 -3 22 -18 29 -32 10 -24 9 -29 -16 -50 -22 -19 -34 -22 -63 -17
-48 9 -51 12 -51 45 0 21 8 33 33 49 17 11 37 18 42 16 6 -3 17 -8 26 -11z"/>
<path d="M7470 2383 c-23 -9 -60 -45 -76 -75 -19 -37 -17 -77 6 -115 18 -31
22 -32 68 -28 100 8 152 48 152 115 0 28 -8 44 -38 73 -37 36 -70 45 -112 30z
m66 -61 c6 -4 14 -19 18 -34 5 -24 1 -31 -34 -54 -41 -27 -41 -27 -61 -8 -18
19 -19 23 -5 56 19 44 52 60 82 40z"/>
<path d="M3360 2365 c-13 -15 -11 -90 6 -207 l7 -48 -42 0 c-82 0 -143 -57
-145 -135 -2 -71 56 -115 149 -115 63 0 104 14 163 53 40 27 48 29 75 19 56
-21 78 10 96 138 9 70 6 90 -14 90 -18 0 -34 -23 -40 -56 -2 -16 -7 -46 -10
-66 -6 -40 -19 -49 -29 -20 -3 9 -15 33 -26 52 -11 19 -21 38 -23 43 -5 16
-47 -3 -47 -21 0 -8 10 -35 21 -59 21 -43 21 -44 3 -59 -75 -58 -180 -76 -231
-38 -36 27 -41 63 -11 91 25 23 36 26 86 24 26 -1 32 -5 32 -24 0 -29 18 -47
47 -47 36 0 46 31 22 76 -23 44 -40 146 -42 249 -2 55 -5 70 -18 73 -9 1 -22
-4 -29 -13z"/>
<path d="M4024 2273 c8 -84 10 -96 18 -108 3 -6 8 -22 12 -37 6 -25 4 -28 -19
-28 -30 0 -106 -36 -118 -56 -12 -21 -26 -17 -37 11 -6 16 -17 25 -31 25 -21
0 -21 1 -4 20 10 11 15 26 11 35 -10 27 -45 8 -112 -57 -53 -52 -61 -64 -62
-99 -2 -33 4 -46 27 -70 47 -47 103 -33 137 34 l17 31 23 -29 c22 -27 24 -28
41 -12 17 15 22 15 65 -1 44 -15 50 -15 105 2 32 10 61 23 65 29 4 7 21 1 47
-17 45 -32 129 -52 145 -36 5 5 22 10 37 10 37 0 43 12 40 85 -3 71 12 91 69
97 30 3 35 7 35 28 0 23 -3 25 -42 23 -68 -3 -101 -28 -119 -93 -33 -112 -40
-118 -104 -79 -33 20 -34 22 -15 33 11 6 32 24 48 40 22 23 27 35 22 55 -9 37
-21 48 -58 55 -49 9 -89 -7 -114 -43 -20 -29 -23 -31 -29 -15 -3 11 -10 30
-14 44 -5 14 -17 62 -26 108 -16 76 -19 82 -42 82 -25 0 -25 -1 -18 -67z m223
-188 c-33 -30 -47 -32 -47 -7 0 26 9 32 44 32 l31 -1 -28 -24z m-437 -63 c0
-39 -32 -88 -51 -77 -16 11 -9 56 14 85 30 39 37 37 37 -8z m330 15 c0 -19
-34 -36 -87 -42 -60 -7 -88 8 -58 31 15 11 33 13 71 8 33 -4 54 -2 58 5 9 15
16 14 16 -2z"/>
<path d="M4589 2323 c-56 -5 -90 -33 -69 -58 10 -11 29 -15 74 -13 49 2 60 0
58 -12 -24 -110 -19 -138 30 -164 31 -17 37 -18 50 -5 17 16 13 35 -14 63 -24
26 -23 37 7 103 15 31 23 63 20 74 -7 20 -32 22 -156 12z"/>
<path d="M7840 2240 c-14 -26 2 -58 35 -66 30 -7 45 1 45 27 0 54 -57 82 -80
39z"/>
<path d="M4693 1889 c-46 -29 -23 -69 40 -69 25 0 45 34 26 46 -5 3 -9 14 -9
25 0 24 -17 24 -57 -2z"/>
</g>
</svg>
