<?xml version="1.0" standalone="no"?>
<!DOCTYPE svg PUBLIC "-//W3C//DTD SVG 20010904//EN"
 "http://www.w3.org/TR/2001/REC-SVG-20010904/DTD/svg10.dtd">
<svg version="1.0" xmlns="http://www.w3.org/2000/svg"
 width="1337.439999pt" height="400.000000pt" viewBox="0 0 1337.439999 400.000000"
 preserveAspectRatio="xMidYMid meet">
<metadata>
Created by potrace 1.15, written by Peter Selinger 2001-2017
</metadata>
<g transform="translate(-15.320046,414.103801) scale(0.061280,-0.061280)"
fill="#444444" stroke="none">
<path d="M940 6733 c-19 -16 -62 -37 -95 -47 -36 -11 -70 -30 -86 -47 -15 -16
-31 -29 -36 -29 -11 0 -82 -123 -95 -163 -5 -18 -12 -59 -15 -92 -3 -41 -14
-75 -32 -105 -15 -25 -35 -61 -45 -80 -11 -19 -34 -54 -53 -77 -18 -23 -33
-47 -33 -54 0 -7 -11 -27 -25 -45 -14 -18 -25 -35 -25 -38 0 -3 -24 -43 -53
-88 -52 -80 -97 -185 -97 -224 0 -30 48 -53 85 -42 31 10 360 12 375 3 5 -3 5
-16 0 -31 -23 -59 -4 -107 54 -136 22 -12 37 -12 68 -4 35 9 39 13 34 36 -5
28 7 56 20 47 5 -2 60 -8 123 -12 73 -4 122 -12 135 -21 11 -8 37 -14 58 -14
51 0 77 37 60 83 -14 38 -4 47 51 47 21 0 49 7 63 16 19 13 39 16 87 11 34 -3
69 -9 78 -12 9 -3 24 1 32 10 13 12 21 13 36 5 20 -10 84 -14 93 -5 13 14 -6
56 -28 61 -28 7 -28 8 -12 33 15 24 -3 83 -45 150 -17 25 -41 66 -55 91 -13
25 -33 54 -42 65 -10 11 -25 38 -34 60 -10 22 -29 56 -45 75 -71 89 -99 138
-88 149 8 8 6 26 -8 69 -39 118 -108 219 -184 269 -31 20 -69 51 -86 70 -43
48 -89 54 -135 16z m103 -389 c56 12 130 5 177 -15 39 -17 52 -30 85 -87 21
-37 53 -88 72 -114 50 -73 21 -57 -41 21 -31 39 -61 73 -68 78 -36 23 -91 35
-158 35 -59 0 -77 -4 -87 -18 -12 -17 -17 -17 -61 -4 -61 18 -189 28 -224 17
-46 -15 -68 -3 -23 12 22 8 48 22 58 33 23 24 59 38 97 38 15 0 38 8 51 19 22
18 23 18 56 -2 24 -14 42 -17 66 -13z m431 -348 c46 -63 55 -86 36 -86 -5 0
-10 4 -10 8 0 5 -18 37 -40 71 -22 34 -40 64 -40 66 0 13 13 -1 54 -59z m-737
-20 c29 -3 75 -1 103 3 40 6 52 5 65 -9 13 -14 12 -18 -5 -33 -11 -9 -20 -26
-20 -38 0 -20 -4 -21 -42 -15 -24 4 -71 11 -105 15 -77 11 -79 13 -87 57 -4
19 -10 43 -13 51 -5 12 1 11 23 -5 18 -14 49 -24 81 -26z m551 -32 l-3 -55
-40 8 c-22 4 -72 8 -111 7 -67 -1 -71 1 -91 29 l-21 29 21 21 c19 19 25 20
106 9 70 -10 89 -9 106 2 30 20 36 10 33 -50z m281 -110 c16 -30 33 -69 36
-87 l7 -32 -25 23 c-33 31 -80 119 -73 137 10 27 24 16 55 -41z m-1164 -37
c-24 -69 -40 -97 -56 -97 -17 0 -9 33 16 66 14 18 25 38 25 44 0 12 31 62 36
58 2 -2 -8 -34 -21 -71z m675 33 c0 -13 -7 -20 -20 -20 -22 0 -23 1 -14 24 9
23 34 20 34 -4z m-11 -207 c-1 -48 -3 -53 -9 -28 -11 45 -11 85 0 85 6 0 9
-25 9 -57z m-79 25 c0 -13 3 -33 6 -45 5 -17 2 -23 -10 -23 -12 0 -16 10 -16
45 0 25 5 45 10 45 6 0 10 -10 10 -22z m-183 -103 c12 -12 13 -19 3 -30 -19
-23 -40 -18 -40 8 0 38 13 46 37 22z"/>
<path d="M3128 6679 c-24 -14 -23 -40 12 -196 17 -73 30 -135 30 -137 0 -2
-30 -6 -66 -9 -75 -7 -111 -26 -120 -62 -3 -14 -11 -25 -18 -24 -6 0 -36 29
-66 64 -30 35 -63 64 -73 65 -25 0 -88 -34 -114 -62 -32 -35 -46 -94 -26 -114
32 -31 63 -36 107 -15 72 33 100 34 130 2 21 -22 34 -27 58 -25 17 2 42 -3 54
-11 17 -11 34 -12 76 -5 116 20 155 43 128 75 -8 10 -7 16 3 22 23 14 28 43
11 68 -9 14 -20 42 -26 62 -29 114 -48 212 -46 245 2 33 -14 68 -31 68 -3 0
-14 -5 -23 -11z m-308 -389 c0 -14 -49 -44 -58 -35 -4 3 4 15 17 26 26 21 41
24 41 9z m368 -26 c12 -8 22 -18 22 -22 0 -5 -27 -13 -59 -20 -46 -10 -65 -10
-85 -1 -31 14 -32 21 -8 41 32 29 84 30 130 2z"/>
<path d="M2215 6570 c-18 -19 -17 -23 4 -108 39 -148 40 -139 -11 -147 -23 -3
-54 -11 -68 -16 -27 -11 -73 -76 -75 -108 -3 -36 23 -79 57 -97 39 -21 165
-26 176 -7 4 6 19 16 32 21 22 8 26 17 28 58 1 29 -4 54 -12 63 -7 9 -16 30
-19 46 -3 17 -11 48 -17 70 -7 22 -20 81 -29 131 -24 122 -31 132 -66 94z m60
-332 c3 -7 6 -31 8 -52 2 -38 1 -40 -35 -48 -53 -11 -112 10 -116 40 -4 26 13
50 43 62 31 13 95 11 100 -2z"/>
<path d="M4878 6553 c-21 -5 -20 0 -23 -85 -2 -38 1 -71 6 -74 5 -3 7 -55 4
-117 -3 -62 -7 -177 -10 -257 -3 -80 -7 -165 -9 -190 -2 -25 -8 -97 -12 -160
-4 -63 -8 -131 -10 -150 -17 -210 16 -1068 46 -1217 28 -140 41 -289 45 -538
3 -148 8 -283 13 -300 4 -16 7 -88 7 -160 -2 -100 -6 -137 -18 -160 -22 -40
-21 -49 7 -64 16 -9 29 -10 42 -3 11 5 44 13 76 16 65 8 453 9 578 1 47 -2
128 0 180 5 186 19 476 41 560 42 47 0 168 1 270 0 102 0 289 2 415 4 127 2
291 -1 365 -6 139 -12 530 -15 610 -7 49 6 103 7 195 6 33 -1 77 1 97 4 21 4
40 2 43 -3 3 -5 19 -5 38 1 17 5 59 9 92 9 87 0 114 33 53 64 -19 9 -26 16
-16 16 9 0 20 9 23 20 8 24 9 526 1 538 -3 5 -8 62 -11 128 -3 65 -11 191 -17
279 -16 220 -15 213 -22 545 -7 391 -8 656 -2 1055 3 182 1 355 -4 385 -4 30
-14 111 -20 180 -7 69 -13 132 -15 140 -4 30 -45 37 -170 28 -118 -8 -461 -38
-520 -45 -16 -2 -84 -7 -150 -12 -66 -5 -151 -14 -188 -20 -41 -7 -133 -9
-225 -6 -112 3 -193 0 -282 -11 -85 -11 -157 -15 -225 -10 -55 3 -176 8 -270
10 -396 9 -753 25 -800 36 -27 6 -79 13 -115 15 -36 2 -110 7 -165 10 -55 4
-129 12 -165 20 -58 12 -102 16 -165 16 -17 0 -41 5 -108 23 -7 2 -20 2 -29
-1z m297 -118 c39 -7 77 -13 85 -13 70 0 262 -17 332 -28 49 -8 181 -17 295
-19 115 -2 249 -7 298 -10 96 -7 484 -16 600 -15 39 0 108 6 155 12 53 7 152
8 265 4 141 -5 199 -3 267 9 48 8 151 19 229 25 77 6 144 12 148 14 3 2 44 7
91 10 47 4 114 11 150 16 86 13 257 13 279 0 26 -13 31 -30 42 -149 5 -59 13
-131 16 -161 4 -30 5 -167 3 -305 -9 -570 -2 -1349 14 -1570 8 -121 18 -272
21 -335 3 -63 8 -133 10 -155 3 -22 7 -147 10 -277 3 -130 8 -243 11 -251 4
-12 -3 -13 -47 -5 -28 5 -59 6 -68 3 -9 -4 -128 -12 -266 -20 -267 -14 -614
-12 -730 4 -85 12 -1110 5 -1200 -8 -33 -5 -85 -10 -115 -10 -78 -2 -125 -7
-200 -21 -42 -8 -140 -11 -280 -9 -118 2 -301 2 -407 1 l-192 -3 0 151 c0 83
-3 155 -6 160 -4 6 -9 131 -11 278 -4 205 -11 306 -29 437 -24 173 -42 374
-53 590 -6 141 -6 762 1 820 16 132 40 659 37 808 l-1 48 88 -6 c48 -4 120
-13 158 -20z"/>
<path d="M5647 6293 c-14 -4 -17 -10 -12 -26 4 -12 10 -79 12 -149 8 -200 -30
-328 -97 -328 -66 0 -104 90 -115 267 -8 130 -19 158 -53 136 -32 -20 -10
-287 30 -366 29 -57 147 -133 164 -106 3 5 13 9 23 9 13 0 31 26 62 86 l44 87
0 189 c0 157 -3 190 -15 198 -8 5 -17 9 -20 9 -3 -1 -13 -3 -23 -6z"/>
<path d="M5865 6110 c-39 -26 -65 -60 -65 -88 0 -26 4 -30 78 -89 29 -23 62
-53 73 -66 17 -22 17 -26 3 -37 -17 -15 -76 -15 -102 -1 -9 5 -21 24 -28 43
-16 49 -48 46 -52 -5 -6 -69 55 -112 150 -105 46 3 64 10 85 30 23 23 24 29
14 59 -7 21 -38 59 -81 98 -38 35 -70 71 -70 80 0 23 40 41 89 41 28 0 41 5
45 17 17 42 -84 59 -139 23z"/>
<path d="M6154 6035 c-58 -25 -68 -47 -69 -149 0 -110 11 -133 81 -166 35 -16
59 -21 88 -17 36 5 66 27 66 48 0 14 -42 21 -53 10 -17 -17 -61 -13 -83 8 -11
10 -27 33 -34 51 -17 42 -5 62 46 75 21 6 44 13 49 16 6 3 22 9 36 12 27 7 63
62 52 80 -9 15 -74 39 -114 41 -20 2 -50 -2 -65 -9z m94 -54 c10 -6 5 -11 -19
-20 -39 -13 -69 -14 -69 -1 0 23 61 38 88 21z"/>
<path d="M6522 5987 c-18 -18 -32 -37 -32 -43 0 -5 -5 -15 -12 -22 -9 -9 -15
-5 -24 18 -15 35 -39 39 -54 9 -9 -16 -7 -34 9 -84 12 -35 21 -71 21 -80 0
-25 28 -72 46 -79 26 -10 42 13 45 64 2 25 6 54 10 65 4 11 10 36 13 56 10 58
37 79 100 76 64 -2 76 5 51 33 -14 16 -31 20 -80 20 -56 0 -64 -3 -93 -33z"/>
<path d="M7877 5464 c-16 -22 -18 -38 -14 -112 3 -48 12 -123 20 -167 15 -82
12 -94 -23 -95 -20 -1 -55 -30 -70 -59 -26 -51 19 -139 87 -167 54 -23 163 9
163 48 0 21 -46 36 -63 19 -6 -6 -30 -11 -54 -11 -49 0 -66 20 -61 73 4 46 32
47 74 3 37 -38 64 -45 83 -22 10 12 7 22 -13 53 -13 21 -32 72 -41 113 -9 41
-20 82 -24 90 -4 8 -9 66 -10 129 -1 63 -4 118 -7 122 -9 16 -29 9 -47 -17z"/>
<path d="M5550 5331 c-19 -4 -61 -23 -92 -43 -67 -44 -106 -103 -115 -177 l-6
-51 54 -54 c44 -44 67 -58 123 -75 85 -26 156 -27 229 -1 31 11 83 21 114 21
183 4 257 152 126 252 -91 68 -188 -3 -202 -147 l-6 -61 -45 -14 c-86 -27
-269 17 -306 74 -25 39 -20 92 14 134 26 33 158 110 190 111 22 0 13 20 -14
30 -14 6 -26 9 -27 9 -1 -1 -18 -4 -37 -8z m417 -193 c32 -38 6 -98 -52 -123
-62 -25 -85 3 -64 77 15 53 25 66 52 70 25 5 48 -5 64 -24z"/>
<path d="M6752 5183 c-21 -21 -45 -49 -54 -63 l-16 -25 -18 37 c-23 49 -66 66
-94 38 -11 -11 -25 -20 -31 -20 -13 0 -3 -195 12 -222 7 -13 19 -18 37 -16
l27 3 -4 94 c-2 67 0 92 8 87 6 -4 11 -14 11 -22 0 -16 28 -65 45 -76 28 -20
46 -1 59 64 9 41 59 91 84 84 23 -8 62 -83 69 -135 10 -74 41 -103 64 -60 13
26 -10 117 -48 191 -29 56 -38 64 -81 73 -29 6 -37 2 -70 -32z"/>
<path d="M6127 5162 c-33 -23 -37 -30 -31 -52 5 -14 8 -41 9 -61 1 -44 19 -69
50 -69 34 0 46 21 35 61 -23 77 3 96 28 20 23 -68 83 -83 96 -24 8 34 42 93
54 93 5 0 22 -39 37 -87 15 -49 32 -94 37 -100 12 -15 44 -17 53 -4 8 14 -60
209 -81 232 -32 36 -79 21 -114 -36 -12 -19 -25 -35 -28 -35 -4 1 -22 21 -40
45 -18 25 -40 45 -50 44 -9 -1 -34 -13 -55 -27z"/>
<path d="M7195 5166 c-55 -20 -153 -106 -181 -159 -13 -24 -13 -31 2 -62 21
-45 63 -75 103 -75 45 0 103 33 125 70 l18 32 18 -39 c23 -52 43 -67 69 -53
11 6 32 8 46 4 39 -10 55 11 55 73 0 62 22 113 49 113 42 0 124 -129 137 -217
3 -24 13 -44 21 -48 20 -7 53 3 53 16 0 14 -36 118 -55 159 -33 71 -44 86 -94
127 -46 38 -54 41 -79 32 -32 -12 -82 -58 -82 -75 0 -6 -7 -14 -15 -18 -11 -4
-15 -21 -15 -63 l0 -58 -44 66 c-25 37 -57 75 -71 86 l-27 19 26 17 c25 17 25
19 10 42 -18 27 -24 28 -69 11z m29 -75 c3 -5 -1 -14 -9 -21 -8 -7 -15 -29
-15 -49 0 -46 -21 -77 -57 -84 -91 -17 -80 74 16 135 48 30 57 33 65 19z"/>
<path d="M3720 6407 c-14 -7 -33 -22 -43 -34 -10 -13 -24 -29 -31 -36 -7 -6
-15 -20 -19 -30 -4 -11 -17 -21 -28 -24 -19 -5 -20 -11 -14 -47 3 -23 7 -48 9
-58 4 -27 27 -48 52 -48 24 0 51 34 35 45 -14 8 -2 74 21 116 21 37 61 63 116
74 36 7 36 8 22 36 -12 22 -78 26 -120 6z"/>
<path d="M20415 6390 c-22 -5 -137 -9 -255 -9 -118 1 -235 -4 -260 -9 -25 -6
-94 -13 -155 -17 -60 -3 -157 -11 -215 -17 -175 -18 -689 -25 -719 -9 -10 6
-20 9 -22 7 -4 -4 -195 -14 -379 -20 -106 -4 -184 -19 -208 -41 -17 -15 -17
-22 -6 -390 10 -340 7 -648 -7 -715 -6 -25 -13 -225 -16 -445 l-5 -401 23 -10
c29 -13 49 -8 49 13 0 14 18 15 158 8 177 -9 516 -15 854 -15 217 0 434 -16
556 -41 81 -16 659 -18 844 -3 87 7 168 10 180 7 41 -11 531 -14 593 -4 70 12
346 36 359 32 5 -1 57 5 115 15 58 9 122 17 141 18 l35 1 -3 90 c-1 50 -7 128
-12 175 -14 115 -14 153 -4 465 12 356 10 705 -5 787 -10 57 -12 159 -10 413
0 28 0 53 0 57 -3 19 -366 58 -446 47 -58 -8 -356 -5 -635 6 -281 11 -506 13
-545 5z m810 -90 c128 -6 275 -8 330 -3 111 8 192 6 245 -7 19 -5 58 -11 87
-14 90 -8 87 0 88 -198 0 -95 6 -209 13 -253 17 -104 15 -820 -2 -895 -10 -42
-7 -253 4 -295 5 -22 13 -81 16 -132 l7 -92 -37 6 c-20 3 -62 1 -94 -6 -31 -6
-102 -13 -157 -16 -55 -3 -143 -11 -195 -19 -52 -7 -117 -15 -145 -16 -47 -3
-422 -1 -565 3 -36 1 -96 -2 -135 -6 -38 -4 -243 -8 -455 -8 -370 -1 -391 0
-535 25 -135 23 -178 26 -420 26 -415 2 -623 5 -828 15 -175 8 -190 10 -202
29 -11 17 -13 74 -10 292 5 279 11 420 20 434 6 10 20 288 18 345 -2 46 -12
440 -15 595 l-3 105 40 13 c24 9 74 13 125 11 121 -3 168 -3 315 -2 126 1 312
2 445 1 140 -1 247 4 287 13 22 5 106 13 185 19 78 6 192 17 252 26 76 10 151
14 250 10 78 -3 173 -1 211 4 82 10 533 5 860 -10z"/>
<path d="M19351 6096 c-6 -7 -12 -35 -12 -62 -1 -61 10 -239 17 -276 l5 -27
-68 5 c-63 4 -71 3 -108 -24 -49 -35 -62 -68 -47 -119 13 -42 70 -83 116 -83
66 0 185 71 173 104 -3 8 -2 18 4 21 10 7 8 42 -3 60 -11 18 -21 136 -22 265
-1 69 -5 131 -10 138 -10 16 -31 15 -45 -2z m2 -445 l38 -29 -33 -20 c-74 -46
-158 -34 -158 23 0 58 90 73 153 26z"/>
<path d="M18404 6059 c-21 -24 -10 -52 24 -57 24 -4 31 -43 36 -217 4 -124 2
-135 -25 -135 -19 0 -23 -10 -19 -40 1 -14 67 -80 80 -80 3 0 15 6 26 14 11 8
52 19 91 24 87 12 157 55 180 110 12 29 13 43 2 79 -11 42 -89 157 -134 198
-44 41 -119 95 -130 95 -7 0 -26 7 -41 15 -40 20 -68 19 -90 -6z m184 -127
c90 -70 152 -152 152 -202 0 -58 -69 -100 -167 -100 l-43 0 -1 43 c-9 267 -8
296 11 289 10 -4 31 -17 48 -30z"/>
<path d="M20124 6015 c-6 -15 -3 -125 12 -385 6 -119 10 -130 39 -130 30 0 30
4 14 262 -5 95 -11 193 -12 218 -2 38 -5 45 -25 48 -13 2 -25 -3 -28 -13z"/>
<path d="M21035 5991 c-3 -5 4 -25 15 -43 10 -18 22 -59 26 -91 l7 -57 -64 6
c-35 3 -66 7 -68 10 -8 8 -31 -19 -31 -36 0 -20 69 -50 117 -50 18 0 34 -4 37
-8 2 -4 0 -56 -6 -116 -9 -89 -9 -109 3 -121 16 -15 58 -3 60 17 0 7 2 22 4
33 2 11 6 55 11 98 4 43 11 80 16 83 5 3 23 0 39 -7 26 -10 33 -10 47 5 14 14
14 18 2 31 -8 7 -33 20 -55 27 -33 11 -41 19 -48 48 -26 104 -42 147 -61 162
-23 20 -42 23 -51 9z"/>
<path d="M20241 5846 c-9 -11 -9 -19 1 -35 15 -25 31 -27 52 -5 19 19 20 26 4
42 -16 16 -43 15 -57 -2z"/>
<path d="M18878 5797 c-25 -10 -48 -43 -48 -71 0 -7 -7 -27 -15 -44 -15 -29
-14 -32 12 -78 17 -27 49 -62 78 -82 45 -31 55 -34 99 -28 87 10 103 56 19 56
-56 0 -107 23 -121 55 -13 29 -11 31 48 39 55 9 117 34 124 51 7 19 -18 49
-71 84 -48 32 -79 37 -125 18z m69 -63 c31 -8 19 -24 -18 -24 -28 0 -37 9 -22
23 8 8 12 8 40 1z"/>
<path d="M20502 5774 c-46 -20 -68 -42 -91 -94 -37 -82 -20 -145 49 -180 61
-31 120 -36 149 -13 33 27 19 43 -39 43 -38 0 -55 6 -79 26 -17 14 -31 35 -31
47 1 41 34 97 70 116 37 20 50 48 28 62 -16 11 -15 11 -56 -7z"/>
<path d="M19899 5750 c-33 -10 -86 -48 -94 -68 -9 -23 4 -52 24 -52 10 0 28
11 41 25 32 34 91 35 125 0 43 -42 24 -88 -43 -101 -30 -6 -32 -5 -32 24 0 17
-5 34 -10 37 -15 9 -52 -5 -47 -18 2 -7 -3 -20 -11 -30 -14 -16 -14 -21 2 -47
18 -31 49 -292 39 -330 -6 -22 26 -43 47 -30 10 6 12 34 6 140 -4 72 -9 145
-13 161 -5 26 -3 29 19 29 29 0 119 37 130 54 13 19 9 86 -7 116 -18 35 -67
73 -114 89 -19 6 -34 11 -35 10 -1 0 -13 -4 -27 -9z"/>
<path d="M20780 5706 c-94 -58 -124 -97 -114 -151 16 -80 99 -102 160 -41 19
19 34 41 34 49 0 8 6 20 14 26 11 10 20 2 45 -43 35 -60 45 -67 79 -55 28 11
28 21 -2 56 -27 32 -66 132 -66 168 0 24 -26 46 -52 44 -7 -1 -51 -24 -98 -53z
m60 -55 c0 -17 -51 -99 -65 -105 -8 -3 -22 -3 -30 0 -28 11 -15 43 31 79 47
35 64 42 64 26z"/>
<path d="M19486 5728 c-35 -49 -7 -152 53 -195 52 -39 112 -27 152 31 13 20
27 36 30 36 3 0 11 -18 18 -40 11 -37 45 -80 63 -80 4 0 12 8 17 18 7 14 4 35
-14 79 -14 34 -26 75 -28 91 -2 17 -10 41 -19 53 -15 23 -16 23 -41 6 -15 -10
-27 -24 -27 -33 0 -26 -39 -93 -65 -110 -23 -15 -26 -15 -54 5 -38 27 -46 52
-30 95 7 18 9 41 6 50 -9 23 -43 20 -61 -6z"/>
<path d="M21298 5709 c-48 -25 -67 -68 -60 -137 7 -75 26 -89 97 -72 73 17
112 42 132 84 15 32 15 36 -4 68 -19 33 -85 78 -113 77 -8 0 -32 -9 -52 -20z
m88 -73 c18 -14 18 -16 -13 -47 -39 -39 -63 -34 -63 14 0 19 3 37 7 40 11 12
48 8 69 -7z"/>
<path d="M21747 5699 c-49 -11 -87 -32 -111 -58 -25 -28 -31 -27 -65 11 -26
29 -31 31 -55 20 -34 -15 -33 -24 6 -68 29 -33 33 -43 35 -108 1 -59 5 -73 22
-85 33 -21 54 2 46 51 -5 25 -3 38 5 38 6 0 17 15 25 33 19 46 72 95 109 102
17 4 42 15 56 25 20 15 22 20 11 34 -15 18 -27 18 -84 5z"/>
<path d="M20296 5648 c-3 -7 -9 -29 -16 -48 -10 -31 -9 -37 11 -53 15 -12 25
-14 34 -7 17 14 26 91 13 107 -13 17 -38 17 -42 1z"/>
<path d="M16202 6378 c-5 -7 -19 -31 -30 -53 -11 -22 -46 -69 -78 -105 l-57
-65 -51 4 c-28 1 -54 5 -58 8 -17 10 -6 25 26 38 31 13 46 32 46 57 0 7 -20 9
-60 5 -61 -7 -67 -3 -61 36 2 12 -47 8 -52 -5 -2 -7 -2 -28 1 -45 4 -30 2 -33
-21 -33 -27 0 -38 17 -31 47 4 13 -3 23 -21 33 -24 13 -28 13 -41 -4 -11 -16
-11 -23 3 -46 20 -34 13 -54 -24 -72 -33 -16 -55 -65 -34 -78 8 -4 28 -2 47 6
44 18 51 18 57 -5 6 -23 -9 -51 -28 -51 -8 0 -19 -9 -24 -19 -14 -25 8 -44 42
-36 19 5 28 2 37 -14 14 -27 56 -28 65 -2 3 11 0 29 -7 41 -11 17 -11 22 2 30
18 12 41 13 38 3 -1 -5 2 -27 6 -51 9 -49 40 -71 65 -47 12 12 12 22 -3 73
-20 73 -20 72 3 72 10 0 30 9 45 21 21 17 29 19 41 9 23 -19 68 4 100 50 15
21 35 46 45 55 18 16 20 15 38 -26 45 -104 45 -116 2 -131 -25 -10 -100 -67
-100 -77 0 -21 38 -20 105 3 43 15 76 21 85 16 9 -5 21 -3 31 6 9 8 43 19 75
24 53 9 84 28 84 51 0 4 -36 8 -81 8 -44 0 -84 3 -90 6 -15 10 -38 73 -61 169
-12 50 -26 94 -32 98 -16 11 -32 10 -44 -4z m-343 -232 c9 -11 7 -15 -11 -20
-13 -3 -26 -6 -30 -6 -13 0 -9 28 5 33 20 9 24 8 36 -7z"/>
<path d="M3336 6330 c-62 -55 -55 -131 16 -182 66 -48 124 -51 184 -11 19 12
22 19 13 34 -9 17 -17 19 -72 13 -48 -4 -67 -2 -82 10 -19 15 -19 15 13 16 37
0 67 13 98 43 18 17 20 26 13 51 -12 43 -34 56 -96 56 -44 0 -58 -5 -87 -30z"/>
<path d="M2390 6315 c-13 -16 -6 -65 9 -65 5 0 18 -15 29 -34 26 -45 80 -64
115 -42 13 9 29 28 37 44 7 15 19 39 26 54 18 34 8 58 -23 58 -19 0 -28 -9
-44 -45 -30 -68 -39 -67 -83 3 -28 44 -46 52 -66 27z"/>
<path d="M4270 6243 c-18 -21 -18 -28 -1 -67 6 -16 14 -55 18 -87 5 -47 3 -59
-8 -60 -8 0 -351 -2 -764 -4 -451 -1 -768 -7 -795 -13 -25 -5 -94 -11 -154
-11 -61 -1 -112 -4 -115 -6 -5 -3 -60 -6 -362 -20 -47 -2 -97 -9 -111 -14 -14
-5 -29 -7 -33 -3 -4 4 -6 0 -3 -8 10 -34 58 -44 198 -41 74 1 155 3 180 5 25
2 124 7 220 11 96 3 182 9 190 12 8 3 364 7 791 10 l776 4 7 -95 c3 -52 9
-102 12 -110 11 -29 38 -26 108 9 104 53 116 60 150 92 51 49 71 56 91 33 27
-29 55 -26 55 6 0 20 -31 57 -137 163 -172 172 -277 237 -313 194z"/>
<path d="M9569 6188 c-23 -29 -53 -63 -66 -76 -29 -29 -30 -59 -1 -68 17 -5
29 2 60 37 20 23 39 41 41 38 6 -6 39 -180 35 -184 -2 -1 -30 -11 -63 -21 -46
-15 -61 -24 -63 -40 -6 -43 17 -45 134 -12 60 16 124 31 142 33 21 1 39 10 49
25 15 21 15 24 -3 37 -13 10 -31 12 -59 7 -22 -4 -47 -7 -55 -8 -18 -1 -46 98
-56 198 -10 104 -31 112 -95 34z"/>
<path d="M9252 6158 c-7 -13 -11 -36 -10 -53 3 -28 1 -30 -32 -30 -30 0 -35 4
-40 31 -9 43 -17 53 -39 47 -26 -7 -33 -27 -21 -59 15 -37 13 -44 -13 -44 -33
0 -64 -36 -51 -58 6 -9 21 -18 33 -20 18 -3 19 -6 10 -24 -15 -28 14 -60 47
-52 20 5 24 2 24 -15 0 -19 26 -41 49 -41 5 0 11 17 13 38 3 32 7 37 31 40 21
3 27 -1 27 -17 0 -23 40 -55 53 -42 5 5 9 26 10 46 1 35 3 36 30 32 23 -3 30
1 38 21 13 34 -2 46 -51 44 -23 -2 -40 2 -40 8 0 11 23 14 88 10 40 -2 42 -1
42 27 0 17 -6 30 -12 31 -7 1 -39 2 -70 3 -55 2 -57 3 -63 33 -11 55 -16 66
-29 66 -7 0 -18 -10 -24 -22z"/>
<path d="M13134 6170 c-10 -10 -209 -14 -414 -9 -46 1 -202 -4 -520 -17 -96
-4 -184 -7 -195 -7 -11 0 -58 1 -105 1 -47 0 -107 1 -135 1 -252 4 -759 1
-920 -4 -248 -8 -243 -4 -205 -155 18 -73 30 -227 24 -314 -3 -45 -7 -326 -8
-626 -2 -300 -6 -570 -10 -600 -11 -88 -14 -120 -22 -228 l-7 -103 28 -29 c15
-16 32 -27 37 -24 17 11 262 3 383 -11 153 -19 907 -30 986 -15 30 6 101 13
159 15 58 2 125 7 150 9 25 3 79 2 120 -3 41 -4 107 -4 145 1 39 4 108 10 155
13 312 18 310 18 328 3 26 -23 49 -28 79 -18 15 5 157 11 315 14 159 2 292 8
298 11 5 3 10 -3 10 -14 0 -22 34 -46 50 -36 6 3 10 17 10 31 0 16 6 24 18 24
38 1 381 20 432 25 30 3 80 10 110 16 77 16 551 11 568 -5 8 -9 42 -7 43 2 7
94 11 296 13 683 2 262 6 481 10 487 6 10 8 467 2 692 -2 63 -8 127 -14 142
-14 35 -67 47 -112 24 -27 -13 -40 -14 -83 -4 -29 6 -128 12 -222 12 -185 1
-595 -13 -606 -20 -13 -8 -312 -5 -414 5 -55 5 -120 14 -145 21 -25 6 -88 11
-140 11 -52 -1 -102 -1 -110 -1 -8 0 -28 2 -45 6 -17 3 -35 0 -41 -6z m-29
-100 l33 -20 7 -174 c7 -168 1 -260 -26 -401 -16 -85 -19 -116 -24 -240 -3
-66 -9 -158 -14 -205 -15 -143 -6 -591 14 -695 9 -49 17 -112 18 -140 l1 -50
-45 5 c-87 8 -383 -4 -444 -18 -16 -4 -46 -6 -65 -5 -117 6 -362 2 -437 -7
-48 -6 -102 -13 -118 -15 -51 -6 -217 -6 -435 0 -113 3 -258 6 -322 6 -65 0
-120 5 -124 10 -3 5 -9 7 -13 5 -4 -3 -54 0 -111 5 -58 6 -109 10 -115 10 -5
0 -52 -1 -103 -2 -51 -1 -97 2 -102 7 -6 6 -6 44 0 99 5 50 12 122 15 160 3
39 7 88 9 110 3 33 6 599 3 685 0 14 3 88 8 165 11 187 10 525 -2 602 -5 34
-6 68 -2 74 11 19 302 29 574 21 132 -5 323 -7 425 -5 102 1 192 3 200 3 131
-1 419 3 465 6 33 2 198 5 367 7 169 2 310 6 314 10 10 10 13 9 49 -13z m295
-11 c17 -25 16 -11 9 -739 -4 -417 3 -541 43 -775 19 -109 31 -341 20 -387 -4
-16 -19 -18 -147 -18 l-143 0 -6 78 c-2 42 -5 92 -5 110 0 18 -7 52 -15 77
-15 43 -18 103 -19 405 -1 161 30 560 57 745 16 109 19 223 11 385 -3 57 -3
112 0 121 7 20 36 26 120 24 50 -2 61 -6 75 -26z m1467 -5 c15 -11 43 -24 61
-27 29 -6 35 -4 39 13 3 11 9 20 13 20 13 0 25 -263 23 -525 -1 -143 -4 -485
-6 -760 -3 -502 -9 -585 -40 -585 -7 0 -41 5 -77 10 -36 5 -91 10 -122 12 -32
2 -58 6 -58 10 0 4 -14 5 -31 1 l-32 -6 6 89 c3 49 11 138 17 197 12 116 9
272 -10 532 -7 90 -10 230 -7 320 4 101 1 231 -9 355 -13 177 -16 320 -7 360
6 25 202 12 240 -16z m-1332 6 c17 -12 98 -15 384 -13 179 2 271 -1 265 -7 -6
-6 -6 -44 2 -107 7 -54 10 -156 8 -228 -10 -292 -13 -501 -14 -920 -1 -321 -4
-461 -14 -518 -8 -43 -16 -80 -18 -83 -3 -2 -62 -6 -131 -9 l-125 -4 0 77 c1
42 -5 171 -12 287 -9 146 -11 304 -6 520 16 721 5 965 -44 965 -21 0 -39 -45
-34 -85 16 -117 21 -364 18 -850 -2 -318 1 -563 7 -595 5 -30 9 -100 10 -155
1 -175 4 -162 -38 -170 -21 -4 -78 -9 -128 -11 -49 -3 -99 -6 -110 -7 -19 -2
-20 4 -21 108 -1 105 -5 147 -38 365 -7 52 -14 102 -14 110 0 8 -4 69 -9 135
-10 148 -10 408 1 661 9 230 9 471 0 519 -6 36 -6 36 22 29 16 -4 34 -10 39
-14z m1009 -22 c3 -18 8 -94 11 -168 7 -164 12 -227 25 -283 5 -24 7 -126 3
-237 -3 -121 -1 -243 6 -320 19 -202 24 -416 11 -545 -6 -66 -14 -152 -17
-191 l-5 -71 -67 -6 c-36 -3 -112 -11 -169 -17 -56 -7 -108 -10 -115 -7 -11 4
-11 21 -1 88 9 57 13 223 13 519 0 239 3 462 6 495 4 33 6 123 6 200 0 77 3
174 7 216 8 84 -3 281 -18 316 -8 19 -6 24 13 28 34 7 72 10 184 13 l102 2 5
-32z"/>
<path d="M12702 5848 c-15 -15 -15 -28 1 -47 13 -16 37 -87 37 -111 0 -8 -11
-10 -37 -5 -79 13 -97 -55 -19 -69 71 -13 74 -29 34 -175 -11 -40 -17 -83 -14
-96 6 -23 31 -39 46 -30 9 6 40 139 55 238 l6 38 58 -2 c67 -3 81 4 81 35 0
21 -5 24 -67 29 -75 6 -93 20 -93 73 0 18 -5 36 -11 39 -6 4 -8 13 -5 20 6 16
-30 75 -47 75 -7 0 -18 -5 -25 -12z"/>
<path d="M10984 5789 c-39 -11 -67 -41 -64 -71 1 -13 2 -99 3 -192 2 -147 4
-170 19 -180 9 -5 20 -7 24 -4 3 4 11 48 17 98 5 49 13 90 17 90 4 0 20 -17
35 -37 36 -49 165 -172 189 -179 10 -3 25 1 33 9 13 13 18 13 44 0 51 -26 153
16 147 60 -3 23 -4 23 -90 10 -25 -3 -38 -1 -38 6 0 6 10 11 23 11 30 0 107
65 107 90 0 32 -42 68 -98 84 -48 14 -55 14 -82 -2 -24 -14 -30 -24 -30 -53 0
-23 -7 -42 -20 -54 -26 -24 -25 -43 3 -65 12 -10 18 -22 14 -26 -9 -10 -180
163 -175 177 2 6 28 20 58 32 78 32 97 51 94 93 -4 45 -6 48 -58 77 -49 27
-127 39 -172 26z m130 -79 c14 -5 26 -17 26 -25 0 -22 -77 -54 -120 -51 -32 3
-35 7 -38 36 -2 20 2 36 10 41 18 12 91 11 122 -1z m221 -190 c23 -9 25 -13
15 -25 -14 -16 -60 -21 -60 -6 0 12 11 41 15 41 2 0 16 -5 30 -10z"/>
<path d="M12162 5614 c-12 -8 -38 -48 -57 -88 -42 -90 -40 -129 11 -169 26
-21 45 -27 88 -28 55 -2 106 19 106 41 0 6 17 -1 38 -15 47 -31 113 -35 165
-10 32 15 37 22 37 51 0 42 -20 63 -94 99 -31 15 -54 30 -51 34 4 3 34 8 68
11 55 4 62 7 65 28 6 37 -14 51 -66 48 -49 -4 -132 -37 -153 -62 -20 -25 6
-56 81 -97 39 -21 70 -42 70 -48 0 -12 -77 -12 -85 1 -8 13 -52 13 -60 0 -4
-6 -13 -5 -24 2 -15 9 -24 8 -45 -5 -24 -16 -47 -16 -96 -1 -22 8 8 24 45 24
56 1 81 42 64 105 -11 38 -54 95 -73 95 -6 0 -22 -7 -34 -16z m40 -82 c3 -12
-2 -24 -14 -31 -26 -16 -31 -10 -19 23 12 30 27 34 33 8z"/>
<path d="M11575 5560 c-59 -37 -122 -152 -110 -200 15 -60 56 -74 113 -40 18
11 37 20 42 20 13 0 13 -171 -1 -301 -10 -105 -7 -118 29 -119 15 0 22 15 63
149 17 57 38 115 45 130 18 33 18 50 0 57 -22 8 -54 -13 -59 -38 -2 -13 -5 25
-6 84 0 67 3 109 10 114 13 8 3 53 -18 77 -9 9 -11 17 -6 17 16 0 24 42 11 57
-16 19 -79 15 -113 -7z m70 -82 c-13 -10 -22 -25 -19 -32 6 -15 -57 -66 -80
-66 -30 0 -14 54 28 96 25 26 43 32 73 26 l23 -4 -25 -20z"/>
<path d="M11786 5558 c-10 -40 -6 -117 8 -152 24 -58 75 -59 121 -4 27 31 40
30 47 -7 2 -10 15 -26 30 -35 25 -13 29 -13 43 1 14 14 12 22 -20 83 -19 37
-35 74 -35 81 0 41 -55 26 -70 -19 -12 -37 -46 -73 -58 -62 -4 4 -7 35 -7 69
0 59 -1 62 -26 65 -20 2 -28 -2 -33 -20z"/>
<path d="M10939 4904 c-11 -13 -10 -19 1 -37 11 -17 14 -62 15 -179 0 -156 0
-158 25 -175 40 -29 69 -33 178 -26 100 6 122 13 135 45 4 10 7 10 15 0 5 -8
18 -12 28 -10 15 3 19 12 17 42 -3 47 10 66 46 66 27 0 71 -50 71 -82 0 -19
-82 -52 -110 -43 -12 4 -26 0 -35 -9 -20 -20 -20 -21 19 -40 95 -45 214 44
177 132 -25 58 -89 112 -133 112 -41 0 -89 -48 -97 -96 -7 -44 0 -42 -173 -51
-87 -4 -97 -3 -101 14 -3 10 -5 83 -4 163 1 153 -7 190 -42 190 -10 0 -24 -7
-32 -16z"/>
<path d="M11721 4675 c-74 -27 -107 -56 -125 -110 -15 -43 -7 -86 20 -116 23
-26 80 -35 114 -18 33 16 100 94 100 116 0 26 21 9 48 -37 38 -67 72 -176 72
-229 0 -72 -21 -86 -124 -85 -73 0 -86 3 -134 32 -63 38 -82 40 -82 10 0 -17
15 -33 58 -59 81 -51 105 -59 173 -59 69 0 114 16 149 54 22 24 25 36 23 94 0
40 -10 93 -23 132 -29 84 -104 232 -130 255 -11 10 -20 24 -20 32 0 20 -46 15
-119 -12z m69 -65 c0 -21 -40 -89 -62 -104 -30 -21 -61 -20 -74 2 -19 29 1 59
58 86 58 27 78 31 78 16z"/>
<path d="M17512 6018 c-16 -16 -15 -33 3 -48 9 -7 13 -21 10 -31 -3 -9 -1 -20
5 -24 10 -6 15 -137 5 -147 -3 -3 -26 -1 -53 4 -87 16 -143 13 -158 -7 -8 -10
-14 -22 -14 -27 0 -8 62 -25 95 -26 11 -1 36 -3 55 -6 19 -2 43 -5 52 -5 14
-1 16 -7 11 -33 -8 -46 -43 -151 -54 -164 -6 -8 -4 -17 6 -28 22 -22 26 -21
71 14 21 17 70 55 109 85 38 30 90 63 115 75 72 34 75 36 85 64 11 31 -3 45
-38 39 -17 -2 -38 16 -97 89 -97 119 -163 188 -182 188 -8 0 -19 -5 -26 -12z"/>
<path d="M10198 5903 c0 -10 -2 -25 -3 -33 -1 -8 4 -22 11 -30 7 -8 15 -37 18
-65 l6 -50 -138 0 c-129 -1 -202 -8 -367 -36 -66 -11 -259 -9 -751 5 -190 6
-283 -3 -298 -26 -8 -14 -7 -21 6 -34 14 -14 46 -17 210 -20 106 -2 231 -6
278 -8 165 -9 496 -7 570 4 132 20 242 31 369 37 l124 6 -6 -39 c-13 -74 -17
-89 -27 -92 -22 -8 -30 -40 -14 -56 26 -26 60 -18 142 34 43 28 88 50 99 50
11 0 46 11 79 24 56 23 77 46 55 61 -6 3 -11 16 -11 28 0 25 -15 38 -142 130
-99 71 -186 127 -199 127 -5 0 -10 -8 -11 -17z"/>
<path d="M15615 5796 c-19 -14 -19 -14 0 -35 10 -12 24 -20 30 -17 6 2 30 1
53 -4 84 -15 95 37 13 60 -49 14 -74 13 -96 -4z"/>
<path d="M16457 5792 c-22 -24 -3 -52 38 -57 17 -2 46 -6 65 -10 27 -5 39 -3
49 9 17 20 7 34 -43 57 -52 24 -88 24 -109 1z"/>
<path d="M15882 5785 c-62 -27 -30 -60 68 -69 60 -6 75 -5 90 9 28 26 14 42
-42 49 -28 4 -59 11 -67 16 -10 5 -29 3 -49 -5z"/>
<path d="M16178 5786 c-38 -28 -26 -40 73 -67 129 -36 152 10 30 59 -62 25
-79 27 -103 8z"/>
<path d="M16797 5790 c-27 -5 -55 -14 -63 -21 -13 -10 -12 -14 2 -30 14 -15
32 -19 90 -19 86 0 104 6 104 32 0 12 -12 24 -35 34 -19 7 -38 13 -42 13 -4
-1 -30 -5 -56 -9z"/>
<path d="M15320 5762 c-35 -12 -40 -48 -7 -58 24 -8 141 -7 170 2 20 6 22 27
5 42 -14 11 -144 22 -168 14z"/>
<path d="M17016 5749 c-29 -23 -33 -41 -12 -58 10 -8 21 -8 41 -1 17 7 39 7
60 1 43 -12 99 0 103 21 2 11 -12 23 -44 37 -60 27 -114 27 -148 0z"/>
<path d="M2203 5710 c-10 -11 -23 -20 -31 -20 -7 0 -34 -16 -59 -35 -25 -19
-50 -35 -56 -35 -5 0 -29 -10 -52 -21 -51 -26 -50 -44 6 -98 118 -112 235
-202 272 -208 43 -7 56 11 29 40 -14 16 -21 43 -26 100 -8 89 -12 86 99 67 33
-6 98 -13 145 -15 47 -3 119 -8 160 -11 176 -14 736 -21 865 -11 255 21 593
38 732 37 24 -1 62 6 86 14 29 10 67 13 115 10 61 -4 73 -3 78 11 4 9 0 23 -7
30 -17 17 -126 35 -171 30 -18 -3 -60 -7 -93 -9 -33 -2 -96 -9 -140 -15 -44
-5 -154 -12 -245 -15 -91 -4 -221 -11 -290 -17 -265 -24 -760 -13 -1163 25
-109 10 -144 17 -165 33 -35 26 -40 60 -13 80 29 20 26 29 -10 42 -43 15 -46
14 -66 -9z"/>
<path d="M4327 5323 c-33 -54 -39 -74 -26 -89 21 -26 47 -15 71 28 32 57 44
58 40 2 -4 -45 -4 -45 24 -42 22 2 30 10 38 36 7 27 6 35 -10 47 -10 8 -23 13
-29 11 -5 -1 -14 7 -20 18 -6 12 -22 22 -37 24 -22 3 -31 -4 -51 -35z"/>
<path d="M2507 5288 c-19 -14 -19 -12 42 -107 25 -40 38 -51 55 -49 13 2 20
10 20 21 -2 19 -82 147 -93 147 -4 0 -15 -6 -24 -12z"/>
<path d="M2380 5266 c-16 -20 28 -95 81 -137 l39 -31 9 24 c7 19 2 30 -25 60
-18 20 -40 51 -49 67 -17 34 -36 39 -55 17z"/>
<path d="M2721 5243 c-37 -7 -71 -33 -71 -53 0 -22 46 -62 116 -102 97 -54 97
-81 0 -76 -56 3 -61 1 -64 -19 -6 -45 73 -68 147 -42 34 12 51 35 51 69 0 27
-52 83 -107 116 -24 14 -42 31 -40 37 2 6 23 15 47 19 44 8 84 34 74 49 -5 9
-109 10 -153 2z"/>
<path d="M4210 5191 c-64 -34 -66 -107 -5 -151 19 -14 34 -32 32 -40 -3 -21
-44 -24 -64 -5 -9 9 -24 14 -34 12 -10 -3 -28 2 -40 11 -12 8 -40 25 -62 37
-56 29 -57 42 -2 56 48 12 66 32 47 51 -14 14 -57 13 -110 -1 -32 -9 -42 -17
-47 -39 -10 -49 9 -78 70 -107 47 -22 54 -29 44 -41 -15 -18 -45 -18 -53 1 -6
17 -33 19 -55 6 -12 -8 -12 -13 3 -36 34 -52 110 -57 161 -9 27 25 28 25 49 6
46 -42 129 -35 160 13 22 34 12 66 -35 108 -48 43 -49 63 -5 81 45 19 51 31
24 50 -29 20 -36 20 -78 -3z"/>
<path d="M3383 5183 c-30 -6 -69 -48 -76 -81 -8 -42 8 -110 33 -137 38 -41
131 -35 115 7 -4 9 -18 19 -33 23 -41 10 -52 24 -52 65 0 33 4 40 35 54 43 21
49 30 35 56 -11 20 -16 21 -57 13z"/>
<path d="M2946 5158 c-21 -30 -20 -44 8 -103 28 -61 53 -84 97 -91 27 -4 40 0
61 21 28 26 28 26 49 6 12 -11 27 -17 35 -14 15 6 19 39 5 47 -5 3 -14 26 -20
50 -10 42 -33 76 -50 76 -17 0 -45 -42 -50 -77 -13 -76 -70 -36 -81 56 -6 53
-29 65 -54 29z"/>
<path d="M3552 5144 c-35 -24 -59 -83 -54 -131 5 -47 29 -74 81 -92 28 -9 40
-8 70 6 21 11 38 28 42 43 4 14 8 18 8 10 1 -8 12 -27 25 -41 42 -48 167 -48
174 0 3 20 0 23 -17 18 -12 -3 -23 -2 -26 3 -2 4 -15 6 -27 3 -13 -2 -30 1
-38 7 -13 9 -13 11 0 19 8 5 34 23 58 41 59 42 54 64 -21 103 -48 25 -61 28
-82 19 -37 -17 -56 -54 -57 -110 l0 -50 -51 -6 c-43 -6 -54 -4 -64 10 -23 31
-16 72 15 91 52 32 63 45 51 60 -15 18 -59 17 -87 -3z m265 -51 c5 -14 -56
-55 -69 -47 -12 8 -10 38 4 52 16 16 60 12 65 -5z"/>
<path d="M16065 4961 c-22 -10 -48 -27 -58 -39 -18 -20 -18 -21 7 -37 24 -16
28 -16 61 4 66 38 118 23 150 -44 9 -20 15 -38 13 -39 -1 -2 -25 0 -53 3 -80
11 -144 -31 -145 -95 0 -37 24 -61 74 -75 30 -8 44 -6 83 11 26 12 58 30 69
41 25 23 25 23 127 -39 48 -30 60 -33 68 -21 14 22 7 31 -62 77 -89 60 -96 68
-102 113 -3 22 -17 58 -32 80 -50 76 -120 97 -200 60z m150 -225 c8 4 15 2 15
-4 0 -9 -75 -42 -97 -42 -6 0 -16 6 -22 14 -17 21 34 47 66 35 13 -5 30 -6 38
-3z"/>
<path d="M9470 4958 c-43 -12 -70 -35 -70 -59 0 -26 45 -36 65 -15 24 24 85
20 116 -7 36 -31 59 -68 59 -92 0 -18 -5 -21 -29 -17 -66 9 -142 -38 -159
-101 -9 -34 -8 -39 15 -57 45 -35 113 -20 180 42 29 27 54 17 105 -43 46 -55
60 -60 75 -26 9 20 6 28 -27 64 -21 22 -52 50 -69 62 -27 20 -31 28 -31 70 0
40 -7 57 -40 104 -49 69 -117 95 -190 75z m140 -258 c0 -11 -36 -35 -67 -45
-37 -10 -28 23 10 39 39 17 57 19 57 6z"/>
<path d="M9160 4946 c0 -7 7 -27 15 -42 8 -16 15 -39 15 -52 0 -19 -5 -23 -27
-20 -21 2 -29 10 -33 33 -14 67 -48 95 -69 58 -6 -12 -4 -32 9 -65 l18 -48
-42 -10 c-62 -16 -63 -17 -69 -39 -8 -31 20 -42 72 -30 40 9 73 2 44 -8 -7 -3
-23 -13 -35 -23 -19 -15 -20 -20 -9 -33 7 -9 24 -17 38 -19 14 -2 30 -11 34
-20 5 -10 13 -26 18 -35 4 -10 17 -18 27 -18 15 0 20 9 22 43 3 39 5 42 32 42
25 0 29 -4 32 -32 2 -28 8 -34 31 -36 26 -3 27 -2 27 42 0 31 4 46 13 46 7 0
22 7 34 15 32 23 19 45 -27 45 -30 0 -39 4 -43 21 -4 15 1 22 19 30 14 5 31 9
39 9 13 0 25 21 25 46 0 11 -12 13 -54 9 -49 -4 -56 -2 -70 20 -9 13 -16 31
-16 38 0 18 -32 47 -53 47 -9 0 -17 -6 -17 -14z m68 -197 c4 -19 -23 -32 -49
-24 -22 7 -25 31 -6 39 22 9 52 1 55 -15z"/>
<path d="M15652 4938 c-7 -9 -7 -29 -2 -58 16 -80 15 -84 -40 -107 -37 -16
-50 -27 -50 -41 0 -26 25 -34 73 -23 47 11 48 0 2 -22 -42 -20 -54 -43 -32
-64 14 -15 19 -15 49 0 l33 16 3 -27 c4 -31 17 -42 49 -42 20 0 22 4 20 47 -3
58 19 69 45 22 13 -22 24 -30 40 -27 13 2 22 8 22 13 -1 6 -5 24 -9 42 -6 31
-5 32 37 44 74 21 108 69 49 69 -25 0 -30 5 -33 26 -3 23 -8 28 -43 31 -48 5
-45 2 -65 61 -11 33 -22 48 -37 50 -29 4 -37 -36 -17 -83 10 -25 12 -41 6 -47
-17 -17 -31 0 -47 57 -18 60 -36 82 -53 63z"/>
<path d="M640 4706 c0 -19 4 -46 9 -60 6 -13 13 -90 17 -171 5 -131 4 -148
-11 -165 -15 -17 -16 -22 -5 -36 9 -10 10 -18 3 -22 -5 -4 -13 -70 -17 -149
l-7 -141 35 -13 35 -13 3 -94 c2 -66 -1 -97 -9 -104 -7 -6 -13 -16 -13 -22 0
-22 62 -87 118 -124 129 -85 123 -84 276 -83 83 0 143 4 149 10 6 6 18 11 26
11 42 1 96 31 133 74 22 25 45 46 51 46 30 1 87 74 87 111 0 12 -7 27 -15 33
-11 8 -15 34 -16 101 -1 139 -17 298 -30 306 -7 4 -13 16 -14 28 -1 11 -16 36
-33 55 -18 20 -43 60 -57 89 -28 62 -99 132 -141 140 -16 3 -56 12 -89 18
-105 22 -185 9 -237 -39 -15 -13 -37 -30 -49 -36 -12 -6 -30 -26 -40 -45 -22
-41 -46 -67 -55 -59 -3 4 -12 57 -19 120 -17 147 -34 240 -47 256 -20 24 -38
13 -38 -22z m522 -258 c15 -5 32 -7 37 -3 13 7 91 -62 91 -81 0 -16 -50 -27
-92 -19 -43 8 -76 -21 -59 -54 6 -11 11 -22 11 -26 0 -3 -51 -5 -112 -5 -62 1
-144 -3 -183 -9 -38 -5 -73 -7 -77 -3 -4 4 19 38 51 76 61 71 139 131 181 138
35 6 120 -2 152 -14z m191 -250 c21 1 33 -7 48 -31 31 -52 19 -105 -32 -136
-70 -42 -147 -102 -146 -113 0 -7 -1 -22 -2 -33 l-2 -20 -9 20 c-18 43 -11 64
27 82 21 10 44 30 51 45 7 15 22 30 33 33 11 4 25 18 30 33 8 22 6 30 -16 51
-25 25 -28 26 -188 27 -108 2 -175 -2 -202 -11 -22 -7 -57 -10 -78 -8 -38 5
-67 -9 -67 -32 0 -8 21 -34 46 -59 51 -51 38 -62 -23 -21 -58 39 -97 129 -60
139 51 15 195 28 320 31 82 2 152 6 155 10 4 3 25 3 47 -1 22 -4 53 -6 68 -6z
m-352 -249 c3 -6 7 -72 8 -147 1 -75 5 -140 7 -144 8 -12 -6 -69 -16 -63 -4 2
-8 25 -8 50 -1 25 -6 64 -13 87 -6 23 -9 78 -8 123 4 89 -1 105 -36 105 -17 0
-23 4 -19 15 5 13 10 13 42 -1 20 -8 39 -19 43 -25z m437 -81 l1 -123 -55 -52
c-30 -29 -58 -53 -62 -53 -4 0 -8 52 -9 116 -2 69 -7 122 -14 130 -15 19 26
53 63 54 18 0 33 9 44 25 9 14 20 25 24 25 4 0 8 -55 8 -122z m-637 94 c15 -9
44 -29 66 -44 l40 -26 7 -89 c4 -48 10 -121 14 -161 7 -69 7 -72 -12 -66 -31
10 -94 63 -99 85 -3 10 -16 23 -29 28 -38 14 -47 32 -43 91 2 30 4 88 4 128 1
78 7 85 52 54z m444 -246 c-1 -50 -3 -99 -4 -108 -1 -10 -5 -18 -10 -18 -6 0
-10 8 -10 18 -1 9 -5 60 -10 112 -10 111 -7 128 20 104 15 -14 17 -29 14 -108z"/>
<path d="M17415 4710 c-17 -18 -17 -24 -4 -63 18 -54 19 -281 1 -299 -17 -17
-15 -47 3 -54 12 -5 11 -11 -7 -36 -21 -30 -21 -31 -3 -44 26 -19 30 -18 67
14 79 67 221 169 280 202 24 13 40 30 44 47 6 23 1 32 -35 64 -23 21 -70 52
-104 69 -34 18 -81 45 -105 61 -50 34 -97 59 -110 59 -5 0 -17 -9 -27 -20z"/>
<path d="M10083 4655 c-3 -9 -3 -37 1 -63 3 -26 8 -71 12 -99 l5 -53 -53 -2
c-29 0 -64 -2 -78 -4 -120 -13 -940 0 -1035 17 -60 11 -186 -2 -227 -23 -28
-14 -21 -41 22 -76 39 -32 40 -32 71 -17 17 9 40 15 50 12 10 -3 26 1 36 8 13
9 44 10 118 5 120 -9 415 -14 807 -14 l287 1 -5 -46 c-3 -25 -10 -58 -16 -73
-6 -16 -8 -39 -6 -52 4 -18 -2 -28 -24 -40 -15 -10 -28 -21 -28 -26 0 -21 13
-40 28 -40 19 0 169 63 228 96 99 55 139 75 175 84 36 10 69 33 69 48 0 15
-17 30 -78 71 -35 24 -89 70 -120 104 -165 178 -223 222 -239 182z"/>
<path d="M16573 4507 c-35 -11 -51 -40 -34 -61 13 -16 172 -9 183 8 12 18 9
23 -24 39 -47 21 -88 26 -125 14z"/>
<path d="M16877 4503 c-36 -41 -15 -57 85 -68 65 -7 68 -6 76 16 8 21 5 25
-31 41 -65 29 -109 33 -130 11z"/>
<path d="M17228 4504 c-54 -29 -28 -64 48 -64 65 0 84 7 84 31 0 34 -90 57
-132 33z"/>
<path d="M15534 4463 c-12 -2 -30 -13 -40 -24 -18 -20 -18 -21 1 -35 19 -14
80 -13 153 2 24 5 29 26 10 41 -15 12 -93 22 -124 16z"/>
<path d="M16200 4462 c-58 -6 -69 -46 -17 -59 66 -18 177 0 177 27 0 23 -84
39 -160 32z"/>
<path d="M15858 4453 c-37 -6 -53 -27 -33 -43 24 -20 139 -19 143 0 2 10 -12
22 -36 33 -21 9 -41 16 -43 16 -2 -1 -16 -4 -31 -6z"/>
<path d="M2977 4425 c-4 -8 -4 -21 -2 -27 2 -7 6 -31 9 -53 5 -41 18 -97 30
-126 6 -13 -2 -17 -43 -21 -68 -7 -109 -41 -106 -90 2 -45 -11 -41 -55 13 -42
52 -73 51 -111 -6 -33 -48 -54 -52 -54 -10 0 26 7 33 45 52 25 12 57 25 71 28
26 5 45 38 33 57 -16 26 -134 -10 -183 -55 -76 -71 -53 -177 39 -177 31 0 46
7 73 35 l34 35 28 -30 c34 -35 74 -40 82 -10 3 11 7 20 10 20 3 0 16 -9 30
-20 35 -27 105 -26 163 3 50 24 65 59 34 81 -12 9 -14 15 -5 20 8 6 6 16 -9
40 -11 18 -32 82 -48 142 -19 77 -32 110 -43 112 -9 2 -19 -4 -22 -13z m66
-301 c48 -15 -12 -50 -68 -40 -39 8 -57 32 -34 47 13 9 59 5 102 -7z"/>
<path d="M15223 4418 c-18 -19 -20 -26 -9 -40 11 -16 24 -17 92 -12 80 7 114
17 114 34 0 16 -33 27 -105 34 -65 6 -72 5 -92 -16z"/>
<path d="M2188 4404 c-12 -12 -14 -24 -8 -48 4 -17 11 -51 14 -76 l5 -45 -38
3 c-20 2 -55 -3 -76 -12 l-38 -16 6 -57 c8 -75 38 -102 114 -103 29 0 64 -5
78 -12 27 -12 69 2 78 27 6 15 -17 104 -36 142 -9 16 -24 71 -33 121 -19 97
-31 111 -66 76z m15 -251 c31 -29 21 -44 -24 -41 -45 3 -67 24 -55 53 7 20 50
14 79 -12z"/>
<path d="M2475 4290 c-3 -5 -4 -14 -1 -19 6 -9 -18 -128 -27 -137 -8 -9 -49
79 -44 96 7 27 -29 37 -53 15 -21 -19 -18 -66 5 -95 6 -8 17 -29 24 -47 17
-42 44 -65 73 -61 29 4 46 39 59 119 5 34 16 71 23 81 21 30 9 58 -25 58 -15
0 -31 -4 -34 -10z"/>
<path d="M3180 4270 c-27 -27 -34 -61 -27 -129 8 -75 28 -121 66 -149 45 -33
85 -38 131 -17 33 15 40 23 40 47 0 32 -10 35 -44 13 -29 -20 -71 -11 -91 18
-21 29 -19 34 13 42 64 15 109 77 96 130 -13 53 -144 85 -184 45z m119 -65
c10 -9 12 -18 6 -23 -14 -12 -75 -36 -79 -31 -6 6 -9 30 -7 58 1 21 4 23 33
17 18 -4 39 -13 47 -21z"/>
<path d="M3552 4241 l-39 -40 -21 22 c-20 19 -24 20 -37 6 -14 -13 -12 -25 12
-110 26 -93 42 -118 74 -119 22 0 29 31 24 104 -5 76 18 113 74 122 55 9 68
18 52 38 -9 10 -30 16 -57 16 -38 0 -49 -5 -82 -39z"/>
<path d="M4232 4138 c-17 -17 -15 -28 10 -55 16 -17 19 -26 10 -35 -7 -7 -8
-17 -2 -28 5 -10 9 -38 8 -62 l0 -45 -212 0 c-209 1 -492 -14 -636 -34 -195
-27 -708 -32 -875 -8 -49 7 -165 13 -257 13 -139 1 -170 -2 -183 -15 -20 -19
-10 -47 19 -55 12 -3 49 -1 81 4 56 9 259 1 295 -12 31 -11 205 -17 490 -16
257 0 339 4 510 26 19 2 80 6 135 9 55 3 170 10 255 15 93 5 196 5 258 0 56
-5 109 -7 117 -4 15 6 18 -12 20 -119 0 -32 6 -42 43 -72 34 -27 48 -32 65
-25 56 21 147 73 179 103 20 17 47 40 61 49 18 13 26 29 29 59 4 41 3 42 -71
98 -41 31 -119 87 -175 124 -55 37 -108 75 -117 82 -19 18 -41 19 -57 3z"/>
<path d="M20095 4059 c-13 -60 -21 -283 -11 -317 14 -49 -7 -223 -38 -311 -14
-41 -26 -82 -26 -92 0 -53 -102 -181 -172 -215 -51 -26 -174 -61 -243 -70 -27
-3 -68 -12 -91 -19 -22 -8 -75 -14 -117 -14 -43 0 -82 -3 -87 -6 -15 -9 -485
-6 -613 4 -67 6 -239 13 -382 16 -143 3 -309 10 -370 15 -60 5 -183 14 -273
19 -89 6 -166 12 -170 15 -5 3 -84 10 -178 16 -93 6 -196 16 -229 22 -33 6
-139 10 -235 10 -96 -1 -236 6 -310 14 -75 8 -212 14 -310 13 -96 -1 -341 1
-545 4 -355 6 -442 3 -730 -24 -71 -6 -164 -12 -205 -11 -81 0 -190 0 -370 0
-63 -1 -160 2 -215 5 -75 4 -123 1 -195 -13 -82 -16 -162 -27 -400 -56 -125
-15 -129 -15 -160 -26 -43 -16 -124 -38 -137 -38 -37 0 -190 -43 -214 -61 -15
-10 -33 -19 -40 -19 -7 0 -20 -6 -28 -13 -9 -8 -38 -20 -66 -27 -27 -8 -66
-22 -85 -33 -19 -11 -69 -37 -110 -59 -68 -36 -130 -87 -130 -107 0 -17 -58
-59 -90 -65 -19 -3 -68 -17 -109 -29 -57 -18 -76 -29 -83 -47 -6 -16 -4 -28 6
-39 8 -9 16 -27 18 -41 1 -14 13 -29 24 -34 12 -6 30 -24 40 -40 10 -17 36
-56 58 -86 22 -30 41 -56 42 -58 5 -9 54 24 54 37 0 9 17 39 38 66 20 28 50
70 66 94 36 55 74 91 96 91 18 0 36 43 25 59 -2 5 -34 15 -70 22 -36 7 -65 18
-65 24 0 21 58 64 137 100 17 8 34 19 37 24 4 5 39 22 79 37 39 15 79 33 87
40 36 29 119 57 260 89 219 49 249 55 405 75 88 11 223 30 299 42 130 20 149
20 277 8 75 -7 141 -10 147 -6 5 3 151 6 323 7 173 1 327 6 343 10 46 13 344
24 636 23 408 -1 702 -3 730 -3 14 -1 80 -8 146 -16 68 -8 197 -15 290 -14 93
0 180 -2 194 -6 33 -9 684 -62 860 -70 41 -2 109 -6 150 -10 41 -3 165 -8 275
-10 110 -2 265 -8 345 -12 136 -7 370 -7 675 1 87 2 161 10 225 25 52 12 117
26 144 33 27 6 60 17 75 24 14 8 32 14 39 14 7 0 31 12 55 26 79 50 121 96
158 174 19 41 36 77 36 80 2 13 25 101 39 147 9 29 18 65 20 80 6 39 17 241
15 278 -1 17 -3 77 -6 134 -5 121 -8 131 -34 131 -14 0 -21 -9 -26 -31z"/>
<path d="M15743 3682 c-10 -6 -9 -20 2 -62 8 -30 15 -56 15 -57 0 -2 -7 -3
-15 -3 -9 0 -18 12 -21 28 -8 42 -38 76 -59 68 -13 -5 -16 -13 -11 -36 3 -17
9 -43 12 -59 6 -27 3 -29 -45 -47 -49 -17 -70 -41 -56 -64 8 -13 44 -13 84 1
18 6 35 9 38 5 3 -3 -16 -11 -42 -18 -50 -13 -78 -44 -54 -59 8 -5 35 -6 61
-3 l46 6 7 -46 c8 -52 27 -78 51 -69 13 5 15 17 9 75 -7 65 -6 70 11 66 10 -2
20 -12 22 -23 2 -11 8 -37 13 -58 9 -34 13 -38 37 -35 25 3 27 6 23 38 -11 85
-8 105 19 108 32 4 75 36 66 50 -4 6 -27 8 -61 5 -46 -5 -55 -3 -55 10 0 11
13 18 38 23 20 4 45 14 54 24 15 16 15 18 -6 30 -13 6 -43 10 -66 8 l-43 -3
-16 50 c-16 49 -33 63 -58 47z"/>
<path d="M16224 3653 c-60 -80 -107 -123 -146 -134 -35 -9 -39 -13 -36 -37 3
-23 8 -27 42 -30 35 -3 43 1 104 62 36 36 66 65 67 64 4 -5 34 -133 40 -174
l6 -42 -73 -11 c-119 -19 -141 -25 -151 -42 -6 -9 -7 -24 -4 -33 7 -18 60 -21
142 -6 102 19 208 31 293 33 81 3 88 4 99 27 12 24 11 25 -35 36 -26 6 -81 9
-123 6 -48 -2 -79 0 -83 7 -4 6 -16 65 -27 132 -30 184 -58 217 -115 142z"/>
<path d="M2385 3560 c-11 -4 -44 -36 -74 -70 -30 -34 -69 -69 -87 -76 -18 -8
-38 -23 -44 -34 -6 -11 -21 -20 -34 -20 -30 0 -50 -23 -42 -48 4 -10 23 -32
44 -49 48 -38 187 -113 211 -113 10 0 24 -7 31 -15 7 -8 20 -15 28 -15 9 0 27
-11 41 -24 15 -13 37 -26 51 -28 21 -2 26 2 28 25 2 17 -3 36 -13 47 -9 10
-16 29 -14 42 1 13 -3 41 -9 63 -17 59 -16 78 6 71 10 -4 56 1 103 9 148 28
341 46 459 43 140 -3 387 8 456 21 53 10 194 7 434 -9 80 -5 189 -12 242 -16
89 -5 224 -6 338 -1 39 2 45 5 42 22 -2 11 -5 21 -6 23 -2 1 -48 4 -102 6 -54
2 -162 11 -239 20 -77 9 -180 18 -230 21 -49 2 -115 7 -145 11 -30 4 -59 7
-65 6 -104 -2 -318 -13 -323 -16 -14 -8 -291 -21 -399 -18 -105 3 -395 -22
-416 -35 -20 -12 -181 -22 -194 -12 -6 6 -19 45 -29 87 -10 42 -20 80 -23 83
-3 4 -15 3 -26 -1z"/>
<path d="M4511 3298 c-6 -7 -26 -31 -46 -53 -38 -43 -43 -66 -20 -85 26 -21
48 -6 83 58 27 51 31 66 22 77 -15 18 -26 19 -39 3z"/>
<path d="M4609 3261 c-15 -11 -39 -45 -55 -75 l-29 -56 22 -21 c27 -28 48 -15
57 35 4 19 18 46 31 60 29 31 30 36 12 60 -12 16 -14 16 -38 -3z"/>
<path d="M2630 3170 c-12 -23 -7 -36 48 -115 36 -54 66 -65 83 -33 10 18 12
18 28 4 37 -33 76 12 42 48 -10 12 -26 35 -34 52 -16 30 -44 50 -55 39 -3 -3
-6 -21 -5 -40 l1 -35 -24 32 c-13 18 -27 41 -30 51 -8 23 -41 22 -54 -3z"/>
<path d="M2959 3150 c-63 -11 -88 -26 -95 -56 -9 -34 18 -60 119 -117 43 -25
75 -47 70 -50 -27 -15 -66 -16 -93 -2 -27 14 -30 14 -40 -6 -11 -20 -3 -41 25
-61 26 -20 120 -3 152 28 20 19 20 74 0 74 -7 0 -20 8 -28 18 -9 11 -42 33
-73 51 -31 18 -56 38 -56 46 0 8 21 16 58 21 52 8 57 11 57 34 0 29 -21 33
-96 20z"/>
<path d="M4290 3130 c-11 -11 -20 -26 -20 -34 0 -8 25 -43 55 -78 30 -34 55
-66 55 -70 0 -18 -30 -6 -47 18 -18 24 -22 25 -41 13 -28 -17 -28 -31 1 -64
30 -36 93 -44 125 -17 36 32 29 73 -23 132 -46 52 -52 64 -35 75 6 3 10 15 10
26 0 26 -53 26 -80 -1z"/>
<path d="M3708 3098 c-77 -44 -95 -153 -33 -206 23 -20 35 -23 66 -18 56 9 89
24 89 40 0 22 -19 30 -70 31 -44 0 -45 0 -48 36 -2 30 3 42 27 65 34 32 38 46
18 62 -9 8 -22 5 -49 -10z"/>
<path d="M3533 3100 c-40 -16 -56 -54 -49 -113 10 -70 45 -117 90 -117 62 0
80 53 22 64 -31 6 -35 11 -41 46 -5 29 -2 47 11 70 16 26 16 32 4 44 -10 10
-22 11 -37 6z"/>
<path d="M3158 3089 c-25 -14 -23 -64 6 -125 28 -59 58 -84 102 -84 23 0 36 7
49 26 17 27 30 23 37 -10 4 -27 55 -40 67 -18 12 22 -68 185 -93 190 -27 6
-46 -18 -46 -57 0 -20 -5 -43 -10 -51 -7 -12 -13 -11 -34 10 -19 17 -26 34
-26 61 0 66 -14 81 -52 58z"/>
<path d="M4088 3086 c-29 -21 -17 -116 14 -116 7 0 19 -10 27 -21 12 -20 11
-21 -7 -17 -24 7 -52 -8 -52 -27 0 -24 42 -45 90 -45 84 0 123 57 57 85 -35
14 -60 39 -70 68 -5 12 2 25 20 41 15 13 23 28 19 34 -10 16 -77 15 -98 -2z"/>
<path d="M3943 3070 c-43 -10 -55 -21 -82 -72 l-22 -43 32 -59 c23 -43 41 -62
66 -73 51 -21 94 -14 113 19 20 37 5 52 -39 37 -29 -10 -35 -9 -57 12 l-25 23
45 23 c51 26 66 47 66 92 0 46 -29 58 -97 41z"/>
<path d="M18489 2366 c-3 -3 -68 -12 -144 -20 -180 -20 -224 -31 -335 -85 -70
-35 -119 -67 -163 -108 -63 -59 -61 -44 -63 -422 -1 -190 -7 -393 -14 -451 -6
-58 -11 -112 -12 -120 0 -8 -5 -37 -10 -65 -21 -116 -24 -247 -7 -292 5 -14 9
-46 9 -72 -1 -25 1 -80 3 -121 4 -54 1 -81 -9 -97 -17 -26 -9 -73 12 -73 7 0
28 -13 46 -28 36 -31 147 -110 183 -130 38 -21 177 -52 233 -52 29 0 94 7 145
15 50 8 115 16 142 18 73 6 257 54 401 103 39 14 75 24 80 22 5 -2 23 8 39 20
60 47 137 102 144 102 4 0 15 15 26 32 16 28 19 48 16 128 -3 95 25 412 38
440 4 8 8 140 9 293 1 153 3 281 6 285 2 4 7 43 11 87 12 160 25 247 40 277
20 42 20 44 -21 121 -45 85 -58 92 -299 159 -102 29 -125 31 -305 35 -108 2
-198 2 -201 -1z m441 -95 c253 -63 296 -86 314 -168 8 -33 12 -30 -96 -84 -20
-11 -69 -24 -109 -29 -40 -6 -98 -21 -128 -35 -31 -13 -92 -31 -136 -40 -44
-10 -90 -21 -103 -26 -30 -12 -92 -12 -92 0 0 17 -38 23 -62 10 -21 -11 -332
-15 -413 -5 -40 5 -131 31 -178 51 -112 47 -101 124 31 211 69 47 180 90 252
99 19 3 62 9 95 15 120 21 203 26 370 24 135 -1 187 -6 255 -23z m300 -338 c0
-21 -5 -76 -10 -123 -17 -147 -21 -219 -24 -445 -2 -137 -9 -263 -20 -335 -9
-63 -19 -178 -22 -255 -3 -77 -8 -147 -11 -155 -3 -8 -7 -19 -7 -25 -3 -29
-125 -125 -160 -125 -8 0 -31 -9 -53 -20 -68 -35 -392 -108 -579 -131 -157
-19 -271 -1 -365 58 -33 20 -63 41 -67 47 -4 6 -20 18 -37 26 -16 9 -36 27
-42 41 -17 36 -26 159 -14 191 7 18 6 39 -1 64 -28 103 -28 198 0 439 16 139
23 259 25 447 1 141 5 259 8 263 4 3 26 -3 50 -14 95 -44 197 -64 359 -68 85
-2 165 -9 177 -15 16 -8 56 -5 160 11 157 25 171 28 308 70 85 26 180 48 180
42 0 -1 27 10 60 23 82 33 85 33 85 -11z"/>
<path d="M18602 1414 c-46 -17 -64 -52 -42 -79 12 -15 9 -213 -6 -331 -6 -47
-5 -52 15 -59 20 -6 21 -8 6 -19 -13 -9 -14 -14 -3 -29 10 -13 29 -18 73 -19
87 -2 139 27 170 94 l23 50 -20 37 c-11 20 -33 50 -49 66 -16 17 -29 34 -29
39 0 4 14 19 31 34 17 14 39 44 49 66 16 38 16 43 0 78 -9 21 -29 47 -45 59
-35 29 -114 34 -173 13z m136 -74 c27 -17 32 -25 26 -43 -10 -33 -23 -47 -62
-63 -60 -25 -72 -20 -72 30 0 25 5 48 11 51 6 4 8 13 5 20 -11 29 47 32 92 5z
m-47 -223 c44 -30 78 -80 72 -109 -7 -35 -50 -61 -111 -66 l-54 -5 13 24 c8
15 12 50 10 91 -4 96 8 107 70 65z"/>
<path d="M18151 1382 c-7 -14 -5 -23 10 -35 16 -14 19 -31 21 -109 4 -188 2
-206 -19 -243 -11 -19 -12 -19 -22 9 -8 19 -16 26 -27 22 -9 -3 -18 -6 -20 -6
-2 0 -4 -10 -4 -23 0 -14 16 -39 40 -62 34 -33 47 -39 93 -43 190 -15 319 139
242 289 -24 46 -114 136 -177 179 -67 45 -120 53 -137 22z m135 -104 c90 -67
144 -140 144 -193 0 -35 -47 -95 -87 -111 -18 -8 -48 -14 -67 -14 l-35 0 2
170 c1 93 5 170 8 170 4 0 19 -10 35 -22z"/>
<path d="M11028 2204 c-3 -2 -150 -6 -329 -9 -178 -3 -332 -8 -342 -11 -16 -5
-18 -13 -13 -47 13 -90 17 -346 7 -432 -6 -49 -18 -151 -26 -225 -8 -74 -17
-146 -20 -160 -7 -35 -8 -203 -5 -500 2 -173 -1 -284 -10 -347 -11 -76 -11
-94 0 -108 11 -14 10 -18 -8 -31 -28 -19 -29 -60 -3 -67 11 -2 24 0 31 7 12
12 216 12 641 -2 157 -5 256 -3 296 4 75 13 210 11 283 -6 34 -7 88 -10 140
-6 47 3 171 10 275 15 105 5 208 14 230 21 48 13 481 14 540 0 21 -5 44 -5 50
-1 11 9 210 19 585 28 317 9 323 9 500 0 304 -15 347 -16 495 -17 142 0 266 6
292 15 6 2 14 -3 17 -11 7 -17 42 -19 53 -1 12 18 13 39 18 352 3 160 10 331
16 380 37 315 49 1028 17 1060 -3 3 -28 0 -55 -8 -39 -11 -127 -13 -458 -11
-225 2 -459 5 -520 7 -60 2 -134 1 -162 -3 -31 -4 -77 -2 -111 5 -33 7 -148
16 -258 20 -109 4 -202 9 -206 11 -4 3 -66 7 -138 11 -100 4 -134 2 -146 -8
-27 -22 -405 -30 -506 -10 -29 6 -170 13 -313 16 -197 5 -287 11 -370 27 -60
11 -132 24 -160 28 -54 10 -321 21 -327 14z m172 -75 c74 -7 146 -13 160 -14
14 -1 32 -4 40 -7 8 -3 67 -15 130 -27 88 -16 172 -22 355 -26 132 -3 290 -10
350 -16 100 -9 254 -7 423 7 l62 5 0 -143 c0 -79 2 -260 4 -403 2 -143 -1
-307 -6 -365 -9 -98 -10 -156 -6 -340 1 -41 0 -152 -1 -247 l-3 -172 -91 -2
c-51 -1 -110 -1 -132 -1 -22 0 -85 1 -140 2 -55 1 -145 -5 -200 -13 -55 -8
-163 -16 -239 -16 -77 -1 -147 -6 -157 -11 -22 -12 -136 -13 -143 -1 -3 5 12
11 35 14 49 6 107 49 125 92 22 53 2 153 -52 263 -30 62 -53 97 -69 104 -19 8
-22 15 -15 28 13 24 2 58 -18 54 -10 -1 -29 -5 -44 -9 -66 -13 -137 -128 -124
-199 8 -42 25 -57 73 -62 46 -6 80 11 109 53 25 37 33 33 59 -29 41 -99 39
-173 -5 -213 -25 -22 -144 -32 -191 -16 -25 9 -34 8 -40 -1 -10 -16 15 -44 47
-52 13 -4 24 -11 24 -16 0 -5 -6 -7 -12 -5 -31 10 -165 12 -236 4 -86 -11
-320 -11 -515 -1 -72 4 -132 3 -137 -2 -5 -5 -22 -4 -40 4 -23 9 -62 11 -146
6 -63 -3 -114 -5 -114 -4 0 2 8 39 17 83 14 67 17 146 18 480 1 353 4 419 24
560 12 88 24 180 26 205 7 63 5 390 -2 418 -3 14 -1 22 8 23 176 17 628 22
789 8z m1747 -73 c109 -7 141 -16 146 -37 8 -29 -1 -622 -11 -754 -4 -60 -9
-279 -11 -485 -1 -206 -4 -377 -6 -379 -5 -4 -52 -8 -183 -15 -77 -4 -94 -2
-99 10 -11 29 -2 1643 9 1660 4 6 26 10 50 8 24 -2 71 -6 105 -8z m450 -32
c28 -3 57 -12 64 -20 9 -11 10 -73 4 -267 -5 -139 -9 -468 -9 -732 -1 -374 -4
-493 -15 -537 -14 -55 -14 -56 -55 -62 -22 -3 -88 -4 -146 -3 l-105 2 -8 200
c-8 212 -3 515 12 705 17 205 26 412 24 565 -1 106 2 152 10 157 11 7 107 4
224 -8z m465 -17 c-14 -17 -9 -159 9 -252 27 -135 7 -1137 -25 -1311 l-7 -34
-147 1 c-81 0 -154 -2 -162 -5 -30 -11 -38 6 -30 61 11 66 12 161 11 628 -1
366 3 492 15 545 3 14 6 102 6 197 l0 172 47 3 c25 2 102 4 170 6 103 2 122 1
113 -11z m238 -1 c74 -2 140 -4 145 -5 6 0 11 -48 13 -114 2 -61 7 -164 12
-227 6 -63 13 -304 16 -535 6 -404 5 -443 -23 -690 l-5 -40 -71 2 c-112 3
-271 13 -275 18 -2 2 0 48 6 102 6 54 11 219 12 367 0 148 3 273 6 277 2 4 7
112 11 240 5 224 0 316 -28 466 -7 34 -7 58 -1 70 7 13 6 29 -4 51 l-13 33 32
-6 c18 -4 93 -8 167 -9z m465 3 c7 -10 35 -8 102 6 31 7 32 6 32 -21 -1 -16 4
-69 10 -119 14 -115 15 -407 2 -505 -6 -41 -13 -111 -16 -155 -4 -44 -8 -93
-10 -110 -3 -16 -9 -181 -14 -366 -4 -186 -12 -342 -15 -348 -4 -6 -11 -9 -15
-6 -5 2 -77 5 -161 6 l-153 1 9 72 c11 83 11 862 1 1051 -3 72 -10 210 -13
307 l-7 177 24 5 c22 5 78 10 176 14 23 1 45 -3 48 -9z m-2962 -1226 c-8 -61
-29 -93 -59 -93 -38 0 -49 34 -24 76 19 30 61 62 82 64 4 0 5 -21 1 -47z"/>
<path d="M11047 1992 c-34 -37 -77 -243 -77 -365 0 -111 -22 -76 -76 122 -34
122 -52 142 -89 99 -13 -15 -31 -53 -39 -85 -9 -32 -23 -71 -30 -88 l-14 -30
-10 40 c-5 22 -19 85 -32 140 -32 147 -46 169 -95 147 -26 -12 -25 -37 2 -57
17 -13 75 -235 89 -339 4 -37 21 -56 50 -56 25 0 24 -1 79 188 19 63 30 76 39
45 2 -10 17 -63 32 -118 32 -115 55 -155 88 -155 43 0 51 24 61 190 4 52 11
115 16 140 6 25 14 62 18 83 5 21 16 46 25 56 21 23 20 34 -3 48 -15 10 -22 9
-34 -5z"/>
<path d="M11674 1932 c-5 -4 -9 -42 -9 -84 0 -42 -3 -79 -6 -82 -3 -4 -19 -2
-34 4 -31 12 -65 5 -65 -14 0 -16 37 -49 74 -64 23 -11 27 -17 23 -40 -7 -36
18 -82 44 -82 20 0 21 4 14 55 -4 35 -3 55 4 55 5 0 12 -4 15 -8 3 -5 18 -7
34 -4 23 3 34 -2 53 -28 87 -113 118 -130 208 -115 43 7 98 54 107 92 8 28 -2
41 -20 28 -53 -39 -72 -49 -109 -56 -33 -6 -47 -4 -66 10 -31 21 -38 41 -16
41 38 0 125 60 125 87 0 20 -74 64 -117 69 -45 6 -103 -25 -103 -54 0 -30 -7
-30 -64 -8 -50 20 -54 23 -50 51 14 117 13 132 -10 143 -13 6 -27 7 -32 4z
m264 -201 c14 -9 3 -22 -30 -34 -22 -8 -29 2 -17 24 10 20 26 24 47 10z"/>
<path d="M11412 1858 c-29 -29 -5 -57 51 -58 23 0 22 32 -1 53 -22 20 -34 21
-50 5z"/>
<path d="M11242 1794 c-12 -8 -31 -33 -42 -54 -11 -21 -24 -40 -30 -42 -13 -4
-14 -25 -4 -91 5 -38 11 -48 30 -53 35 -9 42 1 42 65 0 80 18 115 61 121 42 6
49 22 22 49 -25 25 -49 27 -79 5z"/>
<path d="M11446 1692 c-10 -19 -16 -56 -16 -97 0 -62 1 -65 24 -65 22 0 24 4
29 83 3 59 1 86 -8 96 -11 11 -16 9 -29 -17z"/>
<path d="M10731 1156 c-8 -10 -7 -23 6 -52 14 -32 18 -71 18 -221 0 -206 0
-206 81 -219 42 -6 163 0 221 12 34 7 71 39 59 51 -4 5 -65 6 -136 5 -71 -2
-138 -1 -149 3 -20 6 -21 13 -20 163 2 152 -8 229 -33 260 -14 16 -33 15 -47
-2z"/>
<path d="M11205 881 c-43 -26 -65 -63 -72 -122 -5 -43 -3 -52 15 -65 11 -8 22
-24 24 -37 4 -29 51 -34 118 -12 100 33 131 119 68 191 -31 35 -81 64 -110 64
-7 0 -27 -8 -43 -19z m93 -67 c53 -37 49 -79 -10 -107 -42 -20 -100 -33 -78
-18 12 8 12 12 -3 29 -23 25 -21 54 4 86 23 29 54 33 87 10z"/>
<path d="M17340 1385 c-9 -11 -8 -25 5 -66 14 -42 16 -71 11 -153 -3 -56 -7
-108 -7 -116 -3 -40 -26 -97 -46 -113 -28 -23 -29 -31 -3 -57 27 -27 49 -25
85 5 45 37 95 68 145 89 25 11 56 30 70 42 14 12 40 25 58 29 28 6 32 10 32
41 0 19 -5 34 -11 34 -6 0 -68 57 -138 128 -104 105 -161 152 -185 152 -2 0
-9 -7 -16 -15z"/>
<path d="M16118 1248 c-14 -5 -29 -16 -33 -25 -11 -30 17 -41 105 -45 81 -3
85 -2 88 19 2 16 -5 26 -25 36 -37 19 -101 26 -135 15z"/>
<path d="M15758 1243 c-20 -3 -30 -12 -34 -29 -11 -44 5 -49 116 -37 93 10
130 23 130 44 0 22 -126 35 -212 22z"/>
<path d="M15424 1233 c-34 -4 -58 -40 -44 -63 12 -20 205 -25 231 -6 20 13 20
14 -6 34 -24 19 -110 44 -138 40 -7 0 -26 -3 -43 -5z"/>
<path d="M14937 1209 c-52 -8 -64 -22 -49 -55 12 -25 15 -26 75 -21 54 4 178
31 199 44 4 2 2 12 -4 23 -10 16 -23 18 -97 17 -48 -1 -103 -5 -124 -8z"/>
<path d="M16421 1201 c-34 -9 -50 -37 -31 -55 11 -11 42 -16 118 -17 57 -1
106 1 109 4 12 12 -7 37 -39 50 -41 17 -125 26 -157 18z"/>
<path d="M16789 1167 c-17 -38 4 -61 45 -52 17 4 49 10 70 14 22 3 41 11 43
16 7 24 -18 37 -80 42 -64 5 -67 5 -78 -20z"/>
<path d="M17077 1163 c-18 -17 -6 -54 20 -64 24 -9 118 -1 201 17 27 5 29 30
3 44 -21 11 -214 14 -224 3z"/>
</g>
</svg>
