<?xml version="1.0" standalone="no"?>
<!DOCTYPE svg PUBLIC "-//W3C//DTD SVG 20010904//EN"
 "http://www.w3.org/TR/2001/REC-SVG-20010904/DTD/svg10.dtd">
<svg version="1.0" xmlns="http://www.w3.org/2000/svg"
 width="217.145975pt" height="400.000000pt" viewBox="0 0 217.145975 400.000000"
 preserveAspectRatio="xMidYMid meet">
<metadata>
Created by potrace 1.15, written by Peter Selinger 2001-2017
</metadata>
<g transform="translate(-76.097618,514.598541) scale(0.049825,-0.049825)"
fill="#444444" stroke="none">
<path d="M5153 10323 c-13 -2 -23 -8 -23 -12 0 -5 -20 -5 -45 0 -41 8 -50 5
-92 -21 -43 -28 -47 -33 -49 -75 -1 -25 2 -45 7 -45 12 0 11 -37 -1 -45 -5 -3
-10 -15 -10 -26 0 -18 25 -25 68 -20 6 1 12 -7 12 -18 0 -11 7 -36 16 -55 12
-25 14 -41 7 -62 -12 -40 -5 -75 18 -81 14 -4 19 -14 19 -37 0 -18 5 -37 11
-43 13 -13 -7 -115 -29 -151 -8 -12 -12 -32 -9 -44 3 -12 0 -33 -7 -47 -8 -14
-19 -37 -25 -51 -47 -99 -101 -157 -135 -144 -18 7 -21 -7 -5 -23 8 -8 3 -16
-16 -29 -15 -11 -44 -34 -65 -52 l-39 -33 -47 16 c-25 8 -55 20 -65 25 -26 14
-154 29 -257 31 -116 2 -167 11 -167 29 0 12 -11 14 -45 12 -25 -2 -49 -8 -54
-13 -19 -18 -55 -9 -90 23 -28 25 -36 39 -36 66 0 25 -5 35 -20 39 -14 4 -19
13 -18 37 1 17 -4 41 -10 53 -7 12 -12 31 -12 43 0 12 -7 35 -17 50 -15 26
-15 32 0 87 10 33 17 73 17 90 0 17 11 47 25 67 14 21 23 40 21 44 -9 15 16
118 34 137 25 29 40 60 40 87 0 13 7 32 15 42 21 28 19 49 -10 76 -20 19 -36
24 -78 23 -28 -1 -75 3 -104 8 -95 18 -225 -24 -209 -68 7 -17 -41 -88 -70
-104 -13 -7 -24 -17 -24 -22 0 -5 -10 -22 -22 -37 -52 -65 -87 -118 -111 -165
-14 -27 -35 -59 -47 -70 -24 -21 -53 -82 -45 -95 2 -4 -7 -36 -21 -70 -14 -35
-26 -73 -27 -84 0 -12 -5 -26 -10 -33 -5 -7 -11 -34 -13 -60 -3 -26 -12 -58
-20 -71 -9 -14 -13 -34 -10 -48 4 -13 3 -24 -1 -24 -6 0 -8 -140 -4 -242 1
-10 7 -18 15 -18 31 0 28 -24 -5 -51 -32 -26 -32 -28 -11 -29 12 0 25 -7 28
-15 4 -8 11 -15 18 -15 6 0 12 -20 12 -49 2 -55 -14 -78 -77 -109 -20 -10 -35
-26 -37 -38 -2 -12 -14 -32 -28 -45 -13 -12 -24 -27 -24 -33 0 -19 -54 -66
-76 -66 -28 0 -40 -16 -48 -63 -4 -21 -16 -47 -26 -57 -10 -10 -22 -36 -25
-57 -4 -21 -16 -51 -27 -66 -11 -16 -22 -50 -24 -77 -9 -92 -32 -191 -50 -211
-14 -16 -17 -35 -15 -107 1 -49 8 -132 16 -185 17 -124 4 -214 -32 -223 -14
-4 -23 -14 -23 -24 0 -11 -5 -22 -10 -25 -6 -4 -22 -24 -35 -45 -23 -36 -23
-41 -11 -82 7 -24 18 -42 25 -40 6 1 25 -5 41 -13 17 -9 45 -15 63 -14 17 1
38 1 45 0 19 -2 14 -29 -7 -40 -33 -18 -60 -105 -33 -106 18 -2 72 -37 73 -48
5 -59 -4 -83 -42 -117 -39 -35 -39 -36 -40 -107 -1 -70 -1 -72 -42 -110 -22
-21 -59 -57 -81 -80 -47 -48 -74 -57 -131 -45 -37 7 -40 11 -42 42 -5 74 -5
112 1 117 3 3 -2 11 -11 18 -13 10 -17 35 -21 129 -2 74 0 116 6 116 23 0 41
32 38 68 -1 20 3 51 10 69 8 18 12 38 9 45 -2 7 -7 26 -9 42 -3 16 -15 38 -27
49 -21 20 -22 46 -4 120 5 19 3 33 -8 45 -9 9 -19 40 -22 69 -7 51 -7 51 24
58 17 4 31 11 31 16 0 16 1 18 15 52 12 30 12 37 -1 55 -8 12 -17 38 -20 58
-2 21 -8 42 -13 48 -4 6 -13 40 -20 76 -22 121 -42 170 -70 177 -14 3 -30 9
-36 13 -5 5 -29 13 -52 19 -49 13 -69 6 -120 -42 -39 -37 -57 -114 -29 -129
20 -11 20 -31 0 -74 -12 -24 -23 -34 -40 -34 -32 0 -42 -24 -40 -103 2 -67 3
-69 47 -107 24 -22 57 -45 72 -52 23 -11 27 -17 22 -38 -4 -14 -14 -33 -22
-43 -13 -13 -14 -22 -5 -40 17 -35 22 -119 7 -113 -16 6 -35 -64 -35 -132 0
-35 5 -54 18 -65 13 -12 17 -26 14 -47 -2 -18 0 -30 7 -30 7 0 9 -28 6 -86 -3
-59 1 -100 11 -129 7 -23 11 -56 8 -72 -4 -19 -1 -33 9 -41 15 -13 13 -97 -4
-118 -5 -5 -10 -27 -13 -47 -5 -45 -14 -59 -29 -50 -6 3 -49 7 -96 8 -88 2
-121 9 -121 27 0 6 -14 31 -31 56 -27 40 -29 49 -19 66 9 15 10 21 1 24 -6 2
-11 12 -11 21 0 10 -8 25 -19 35 -21 19 -17 64 8 83 17 13 10 18 -33 25 -14 2
-24 19 -35 59 -9 30 -24 67 -33 82 -10 14 -18 33 -18 42 0 22 28 75 40 75 22
0 8 17 -22 25 -26 8 -33 16 -34 35 0 24 21 68 40 81 5 4 5 12 1 18 -4 7 -4 23
-1 37 6 21 12 24 57 24 53 0 111 24 142 58 18 20 18 21 -18 53 -20 18 -42 44
-50 58 -31 59 -65 132 -63 139 4 16 -13 82 -22 82 -5 0 -7 6 -5 13 3 7 -13 18
-42 27 -30 9 -52 23 -59 38 -10 21 -11 21 -27 4 -10 -10 -17 -24 -17 -30 0 -7
-3 -12 -7 -12 -5 0 -36 -26 -70 -58 -34 -31 -73 -65 -86 -74 -14 -10 -35 -38
-47 -63 -12 -25 -26 -45 -31 -45 -14 0 -40 -58 -29 -65 6 -3 10 -15 10 -25 0
-12 17 -31 41 -47 37 -25 40 -30 36 -61 -4 -23 -2 -35 9 -39 20 -7 17 -40 -6
-70 -28 -36 -28 -40 15 -122 11 -20 17 -52 16 -75 -1 -23 1 -72 5 -109 5 -60
9 -69 30 -77 13 -5 24 -17 24 -27 0 -9 5 -31 12 -50 10 -27 9 -42 -5 -86 -22
-69 -21 -93 2 -116 11 -11 24 -29 31 -40 6 -11 24 -28 40 -36 17 -9 30 -20 30
-25 0 -5 10 -21 22 -35 16 -19 32 -25 62 -25 39 -1 104 -27 106 -42 0 -5 0
-12 0 -18 0 -5 15 -10 34 -10 19 0 38 -4 41 -10 3 -5 21 -10 38 -10 37 0 131
-47 151 -75 7 -11 17 -51 21 -88 6 -63 5 -71 -16 -93 -21 -22 -22 -28 -12 -67
10 -37 9 -46 -10 -80 -18 -33 -19 -39 -7 -47 12 -7 12 -12 2 -22 -16 -16 -15
-45 2 -51 22 -9 9 -168 -15 -185 -27 -19 -23 -58 7 -89 22 -22 25 -31 19 -62
-13 -70 -12 -173 2 -178 16 -6 17 -61 2 -100 -8 -22 -7 -30 6 -39 15 -11 17
-27 12 -142 -1 -42 2 -56 16 -63 13 -8 17 -23 17 -64 0 -30 -4 -57 -10 -60
-15 -9 -12 -22 10 -43 23 -21 27 -60 11 -122 -8 -34 -8 -63 1 -118 9 -55 9
-80 1 -103 -12 -32 -6 -130 8 -139 4 -3 5 -39 1 -80 -4 -41 -7 -100 -6 -130 6
-175 4 -234 -6 -266 -7 -19 -9 -46 -6 -59 4 -14 0 -29 -8 -37 -21 -21 -32
-168 -20 -274 6 -58 5 -62 -25 -96 -28 -32 -30 -39 -20 -61 8 -17 8 -30 0 -44
-11 -22 2 -47 28 -55 23 -7 18 -121 -8 -157 -25 -35 -26 -47 -6 -58 13 -8 13
-24 5 -117 -10 -101 -26 -156 -50 -171 -5 -3 -10 -22 -10 -41 0 -19 -4 -34 -9
-34 -5 0 -11 -13 -13 -30 -3 -23 2 -35 21 -53 23 -21 34 -23 93 -21 59 3 69 1
78 -16 10 -20 12 -19 61 5 66 34 80 65 49 107 -22 30 -23 34 -12 118 7 48 12
111 12 139 0 31 8 67 19 89 14 27 16 43 9 55 -6 11 -6 36 1 70 5 28 10 68 10
87 6 218 6 322 0 360 -5 31 -2 51 7 65 16 22 19 39 5 31 -12 -8 -22 65 -15
105 4 19 22 59 40 90 39 66 40 67 17 65 -15 -1 -17 6 -15 44 2 25 8 52 13 62
6 11 4 22 -7 33 -13 12 -16 35 -16 98 0 45 -4 103 -10 128 -10 41 -8 51 15 96
17 34 22 54 15 61 -7 7 -6 17 2 32 10 19 8 25 -10 42 -14 14 -19 25 -13 37 4
9 8 70 9 136 1 66 4 129 8 141 5 13 2 25 -8 33 -9 8 -16 22 -16 32 0 11 -7 19
-15 19 -15 0 -22 52 -17 120 5 62 0 119 -13 164 -23 78 -21 84 40 112 31 13
65 24 76 24 12 0 32 9 46 20 14 11 32 20 40 20 7 0 45 18 84 40 39 22 79 40
90 40 10 0 33 9 51 20 18 11 41 20 51 20 11 0 31 6 45 14 15 8 47 20 72 27 56
15 112 44 169 86 24 18 51 33 60 33 27 0 84 24 118 48 17 12 42 22 55 22 21 0
84 27 118 50 8 5 26 14 40 20 14 5 32 14 40 18 40 23 61 32 73 32 7 0 24 12
38 26 13 15 42 35 64 45 22 10 53 32 69 48 17 17 40 31 52 31 14 0 34 13 51
35 32 41 173 145 195 145 20 0 30 -74 15 -108 -8 -16 -8 -27 -2 -29 13 -4 8
-91 -7 -120 -7 -13 -8 -41 -4 -70 15 -103 14 -267 -1 -301 -9 -17 -13 -44 -10
-59 3 -15 1 -35 -4 -45 -7 -12 -4 -18 9 -22 15 -5 17 -21 19 -133 1 -115 -1
-130 -19 -146 -13 -13 -18 -27 -14 -45 12 -53 29 -218 28 -257 -3 -80 -7 -100
-24 -113 -22 -16 -23 -42 -3 -42 23 0 20 -57 -4 -65 -17 -5 -18 -8 -5 -34 11
-21 13 -63 9 -179 -2 -84 -7 -156 -10 -161 -3 -5 -7 -44 -10 -87 -4 -60 -10
-82 -25 -96 -11 -10 -20 -25 -20 -33 0 -8 -9 -19 -19 -25 -16 -8 -18 -15 -11
-40 9 -30 4 -60 -15 -95 -48 -89 -91 -155 -101 -155 -6 0 -14 -8 -18 -17 -3
-10 -10 -25 -15 -33 -31 -50 -55 -96 -56 -110 -2 -22 -70 -143 -90 -160 -8 -7
-15 -17 -15 -23 0 -6 -17 -33 -38 -61 -20 -28 -50 -71 -67 -96 -16 -25 -40
-57 -53 -72 -13 -14 -33 -57 -43 -95 -10 -37 -25 -72 -32 -78 -7 -5 -31 -35
-54 -65 -22 -30 -47 -61 -56 -69 -10 -7 -17 -26 -17 -41 0 -16 -10 -41 -22
-57 -27 -33 -38 -51 -73 -113 -14 -25 -29 -52 -34 -60 -44 -71 -47 -134 -6
-150 23 -9 68 -13 123 -11 26 1 36 7 50 32 9 18 41 68 70 111 28 44 52 84 52
88 0 5 29 53 65 106 36 54 65 102 65 108 0 18 103 196 137 235 18 22 33 43 33
48 0 5 11 20 25 33 14 13 25 27 25 31 0 12 105 173 156 241 24 31 52 74 62 95
11 21 27 52 36 68 9 17 16 35 16 42 0 6 16 29 36 50 20 21 43 55 52 76 9 20
20 37 25 37 15 0 52 41 52 57 0 9 5 18 11 20 15 5 46 -26 39 -38 -4 -5 -2 -9
4 -9 9 0 39 -56 60 -112 6 -16 15 -28 21 -28 6 0 19 -20 30 -45 11 -25 23 -45
27 -44 23 4 32 -4 38 -33 4 -18 19 -44 34 -59 50 -50 68 -74 74 -101 4 -15 19
-40 33 -55 39 -42 84 -112 84 -131 0 -9 14 -30 29 -45 16 -16 32 -41 36 -55 4
-15 15 -35 26 -45 10 -10 19 -24 19 -31 0 -8 7 -16 15 -20 8 -3 15 -12 15 -19
0 -8 6 -20 14 -26 8 -7 17 -34 21 -62 4 -27 13 -55 20 -62 7 -7 20 -27 29 -44
8 -17 25 -34 36 -38 11 -4 18 -10 15 -15 -3 -5 -1 -10 4 -12 12 -4 101 -136
101 -149 0 -7 10 -20 23 -31 12 -11 22 -31 22 -46 0 -19 7 -30 24 -37 13 -6
31 -28 42 -52 10 -24 25 -43 34 -43 14 0 19 -11 16 -37 -2 -18 53 -43 110 -50
27 -3 49 -10 49 -14 0 -5 9 -9 20 -9 11 0 20 5 20 10 0 6 11 22 24 35 l24 24
-26 83 c-22 66 -32 85 -54 96 -14 7 -32 26 -39 42 -8 16 -23 34 -34 40 -23 12
-51 56 -76 116 -9 23 -35 58 -58 79 -23 21 -41 43 -40 49 5 43 -5 67 -51 116
-29 31 -55 70 -60 91 -6 20 -17 40 -25 43 -8 3 -15 12 -15 20 0 7 -11 21 -24
29 -24 16 -76 99 -76 121 0 7 -12 28 -26 47 -15 21 -24 43 -21 57 3 15 -2 26
-14 33 -11 5 -28 28 -39 49 -11 22 -24 40 -28 40 -4 0 -16 15 -27 32 -10 18
-27 42 -37 52 -9 10 -15 23 -12 28 3 5 -11 34 -32 66 -21 31 -55 84 -77 117
-22 33 -43 70 -48 83 -5 12 -12 22 -17 22 -5 0 -14 17 -21 38 -7 21 -27 48
-47 62 -31 23 -35 32 -38 94 -1 17 -12 28 -101 99 -30 25 -35 35 -35 71 0 24
7 65 16 92 11 37 15 87 13 204 -6 437 -5 461 14 475 15 10 18 32 21 126 2 73
-1 133 -10 167 -7 29 -13 72 -13 95 0 23 -1 57 -1 75 0 18 6 43 14 55 13 19
13 31 2 85 -14 66 -13 334 2 402 9 39 38 53 48 23 9 -24 75 -93 90 -93 6 0 17
-13 24 -29 6 -16 22 -39 36 -52 13 -12 24 -27 24 -32 0 -12 50 -71 50 -60 0 4
6 1 13 -7 7 -8 24 -23 40 -33 15 -10 27 -22 27 -28 0 -16 129 -147 151 -154
10 -3 20 -14 23 -23 3 -10 42 -49 86 -87 43 -39 87 -85 95 -103 9 -18 26 -37
38 -41 12 -5 33 -21 46 -35 14 -14 32 -26 41 -26 9 0 25 -17 36 -37 28 -55
103 -141 129 -147 12 -3 34 -17 48 -30 27 -25 83 -46 124 -46 38 0 92 38 89
63 -5 44 -26 76 -60 92 -20 10 -71 50 -113 91 -43 40 -86 76 -95 79 -11 4 -18
16 -18 31 0 13 -6 24 -12 24 -7 0 -51 36 -98 81 -98 92 -117 109 -127 110 -10
0 -73 95 -73 109 0 5 -7 10 -15 10 -22 0 -81 56 -103 98 -10 20 -28 39 -39 42
-11 3 -33 21 -48 40 -16 19 -41 49 -57 65 -15 17 -42 48 -58 70 -16 22 -35 47
-43 55 -7 8 -20 26 -29 40 -9 14 -30 41 -47 60 -17 19 -31 43 -31 52 0 10 -12
25 -26 34 -14 10 -34 35 -45 56 -13 25 -32 44 -53 53 -40 17 -63 63 -47 93 6
12 11 38 11 60 0 43 10 52 61 52 17 0 43 7 58 15 16 8 68 19 117 24 201 24
240 35 334 96 36 23 88 51 115 61 28 10 65 29 84 41 19 13 39 23 46 23 7 0 18
7 25 15 7 8 21 15 32 15 33 0 180 133 194 175 3 11 17 31 29 45 13 14 42 61
64 105 23 44 48 89 56 100 8 10 15 26 15 35 0 16 17 62 43 122 10 21 17 46 17
56 0 11 7 25 15 32 9 7 13 21 10 31 -3 10 2 30 11 44 13 20 15 39 11 81 -3 31
-1 67 4 81 8 21 6 28 -10 39 -13 9 -21 31 -25 71 -4 32 -12 75 -17 95 -7 26
-6 44 1 58 6 11 7 20 3 20 -9 0 -33 48 -33 66 0 6 -6 17 -14 23 -7 6 -16 32
-19 57 -2 26 -9 49 -15 53 -5 3 -13 21 -17 39 -3 17 -10 32 -15 32 -11 0 -43
51 -43 69 0 8 -9 23 -19 33 -10 10 -18 26 -18 37 0 10 -9 30 -20 44 -11 14
-20 30 -20 36 0 6 -9 15 -20 21 -12 7 -22 25 -26 51 -5 30 -14 43 -34 54 -22
11 -31 26 -39 65 -15 68 -15 65 18 102 17 20 31 50 36 78 7 45 12 58 56 155
13 28 22 57 22 65 -1 8 5 42 14 75 9 33 15 74 13 90 -1 17 -2 35 -1 40 13 176
13 207 -4 224 -9 11 -19 43 -22 72 -3 30 -12 63 -19 75 -11 16 -12 28 -4 51 8
23 7 36 -5 59 -8 16 -15 41 -15 55 0 14 -9 44 -20 67 -11 22 -20 47 -20 54 0
7 -9 27 -20 43 -11 17 -20 37 -20 46 0 27 -63 98 -86 98 -38 1 -118 63 -125
96 -4 17 -7 27 -8 22 0 -4 -14 -1 -31 8 -29 15 -44 16 -87 8z m173 -420 c16
-21 18 -79 4 -88 -6 -4 -10 8 -10 29 0 19 -4 38 -10 41 -11 7 -14 35 -4 35 4
0 13 -8 20 -17z m-1586 -73 c0 -32 -40 -80 -67 -80 -21 0 -23 2 -12 23 14 27
60 77 71 77 4 0 8 -9 8 -20z m1610 -117 c0 -10 -4 -25 -10 -33 -8 -12 -10 -12
-16 3 -7 20 1 47 16 47 5 0 10 -8 10 -17z m-1655 -39 c4 -30 2 -50 -6 -60 -9
-11 -9 -17 2 -30 10 -13 10 -20 -5 -44 -9 -17 -15 -41 -12 -57 2 -15 5 -31 5
-35 1 -5 10 -8 21 -8 13 0 25 -10 32 -27 25 -63 45 -97 71 -122 34 -33 33 -50
-4 -81 -17 -14 -42 -36 -57 -50 -31 -29 -109 -80 -121 -80 -5 0 -11 -6 -14
-12 -3 -7 -19 -21 -35 -31 l-31 -18 -6 38 c-4 21 -11 53 -16 72 -5 21 -4 41 2
53 7 14 6 20 -6 24 -19 8 -19 28 0 48 14 14 14 17 -5 36 -21 21 -21 65 1 134
5 16 9 39 9 51 0 12 9 40 20 63 11 22 20 48 20 56 0 9 11 23 25 32 16 11 25
26 25 43 0 34 17 51 51 51 24 0 27 -4 34 -46z m1671 -38 c15 -12 17 -17 7 -27
-18 -19 -16 -35 8 -58 34 -31 30 -126 -7 -166 l-25 -27 31 -28 c27 -25 30 -32
25 -70 -3 -24 -10 -49 -16 -56 -6 -8 -9 -20 -6 -27 3 -7 -1 -24 -9 -38 -7 -13
-13 -36 -14 -51 0 -31 -36 -60 -100 -83 -46 -16 -72 -9 -126 35 -18 14 -50 36
-73 50 -23 13 -40 27 -39 31 2 3 34 34 73 68 69 61 119 127 109 143 -3 5 6 24
20 43 14 18 26 44 26 57 0 13 9 42 20 63 12 22 18 50 15 61 -2 12 2 38 10 58
17 39 38 46 71 22z m-987 -570 c25 -1 62 1 82 6 38 8 106 -3 251 -40 91 -24
99 -28 91 -49 -5 -13 -2 -15 18 -10 46 12 129 -24 203 -90 26 -24 52 -43 57
-43 5 0 14 -11 19 -25 6 -17 17 -25 33 -25 16 0 33 -14 58 -47 18 -27 37 -55
41 -65 4 -9 20 -24 37 -34 19 -11 31 -26 31 -39 0 -12 13 -31 30 -44 17 -12
30 -27 29 -34 -3 -15 33 -77 44 -77 5 0 6 -4 2 -9 -8 -15 16 -101 29 -102 6
-1 19 -1 29 0 13 2 17 -5 17 -27 0 -16 7 -35 15 -42 8 -7 15 -18 15 -24 0 -6
9 -19 20 -29 18 -15 25 -50 21 -99 -1 -9 3 -19 9 -23 5 -3 10 -17 10 -29 0
-13 7 -30 16 -37 12 -10 15 -24 11 -60 -4 -34 -2 -51 8 -59 7 -6 14 -19 14
-28 -1 -9 3 -42 7 -72 13 -94 8 -132 -17 -153 -19 -16 -21 -21 -11 -38 8 -12
10 -36 6 -62 -6 -42 -9 -51 -38 -119 -9 -20 -16 -45 -16 -56 0 -11 -14 -46
-31 -78 -18 -33 -41 -77 -51 -98 -11 -21 -34 -51 -51 -65 -18 -14 -41 -35 -52
-47 -11 -11 -38 -31 -60 -44 -22 -13 -46 -30 -53 -37 -7 -7 -22 -13 -32 -13
-10 0 -49 -15 -86 -34 -38 -18 -85 -36 -105 -40 -21 -4 -42 -13 -49 -21 -7 -8
-27 -17 -46 -21 -19 -3 -37 -10 -40 -15 -3 -5 -20 -9 -37 -9 -18 -1 -43 -7
-57 -15 -14 -8 -37 -14 -53 -15 -15 0 -35 -4 -45 -9 -23 -13 -97 -28 -157 -32
-60 -4 -87 -4 -325 0 l-184 3 -65 34 c-36 19 -72 34 -80 34 -16 0 -71 54 -71
70 0 5 -5 10 -11 10 -13 0 17 51 38 63 25 15 13 26 -22 20 -19 -3 -42 -2 -52
2 -10 4 -27 8 -39 9 -28 2 -122 66 -130 89 -5 15 -12 17 -45 12 -33 -6 -46 -2
-86 24 -25 17 -52 31 -59 31 -8 0 -20 13 -29 30 -9 16 -31 44 -50 62 -43 39
-44 62 -5 80 21 9 30 20 30 35 0 13 4 23 9 23 17 0 21 33 6 56 -8 13 -15 35
-15 50 0 17 -6 28 -19 31 -10 2 -33 25 -52 49 -18 24 -36 44 -41 44 -4 0 -8 9
-8 20 0 11 -9 29 -19 39 -17 17 -18 25 -10 56 12 44 6 54 -24 36 -15 -10 -22
-11 -25 -2 -2 6 -10 18 -18 25 -9 9 -12 25 -8 44 4 19 0 38 -10 54 -14 21 -14
36 -5 114 6 49 21 123 34 164 12 41 28 96 35 122 9 35 30 65 85 125 122 130
135 145 135 157 0 19 79 64 123 71 50 9 69 24 113 93 29 44 46 58 105 87 38
18 75 38 82 43 7 6 26 14 42 17 17 4 35 13 40 19 6 6 26 23 45 36 29 21 50 25
137 30 85 5 106 9 125 27 13 11 33 24 46 28 12 3 22 11 22 16 0 6 9 7 22 3 12
-3 42 -7 67 -8z m-1082 -2068 c19 -24 96 -78 112 -78 22 0 83 -32 73 -39 -17
-10 17 -36 53 -38 43 -3 55 -10 55 -32 0 -13 5 -19 14 -15 19 7 65 -18 100
-55 18 -18 54 -39 92 -51 34 -12 68 -27 74 -35 6 -8 32 -17 56 -21 24 -3 47
-10 50 -15 3 -5 20 -9 38 -9 18 0 48 -7 66 -16 18 -10 58 -17 94 -17 33 -1 64
-6 68 -11 7 -10 -27 -46 -44 -46 -4 0 -8 -12 -8 -27 0 -34 -31 -88 -60 -103
-12 -6 -30 -20 -40 -30 -9 -9 -40 -25 -66 -34 -31 -10 -53 -24 -59 -38 -12
-27 -132 -121 -198 -155 -27 -13 -68 -41 -90 -61 -64 -57 -133 -89 -206 -97
-39 -4 -76 -14 -92 -25 -14 -11 -37 -24 -50 -29 -13 -5 -58 -32 -99 -60 -74
-51 -100 -61 -100 -40 0 6 -12 -4 -27 -22 -15 -17 -41 -37 -58 -45 -17 -7 -39
-22 -49 -33 -13 -14 -31 -21 -58 -21 -21 0 -59 -11 -86 -24 -26 -13 -66 -33
-89 -45 -23 -11 -50 -21 -61 -21 -10 0 -29 -11 -42 -24 -26 -29 -98 -56 -147
-56 l-33 0 6 43 c4 23 12 48 17 55 8 10 7 16 -6 23 -22 13 -24 91 -2 109 12
10 14 25 9 64 -4 28 -10 55 -15 61 -12 13 -11 52 1 60 6 4 8 14 6 23 -16 51
-2 187 21 214 8 9 12 25 9 36 -10 30 27 67 100 101 36 17 71 31 76 31 13 0
112 84 156 132 18 20 43 40 55 44 21 7 87 71 87 85 0 3 14 12 30 19 34 14 64
62 57 91 -3 10 4 30 14 43 11 14 18 28 17 33 -3 13 23 85 43 119 11 17 19 45
19 62 0 32 2 33 82 40 9 1 25 -8 35 -20z"/>
</g>
</svg>
