<?xml version="1.0" standalone="no"?>
<!DOCTYPE svg PUBLIC "-//W3C//DTD SVG 20010904//EN"
 "http://www.w3.org/TR/2001/REC-SVG-20010904/DTD/svg10.dtd">
<svg version="1.0" xmlns="http://www.w3.org/2000/svg"
 width="675.919637pt" height="400.000000pt" viewBox="0 0 675.919637 400.000000"
 preserveAspectRatio="xMidYMid meet">
<metadata>
Created by potrace 1.15, written by Peter Selinger 2001-2017
</metadata>
<g transform="translate(-57.090284,456.922591) scale(0.044870,-0.044870)"
fill="#444444" stroke="none">
<path d="M13289 10173 c-140 -28 -236 -43 -274 -43 -48 0 -149 -22 -270 -60
-49 -16 -125 -34 -168 -41 -78 -12 -104 -26 -125 -65 -7 -13 -15 -111 -19
-240 -10 -286 -9 -310 11 -502 14 -136 15 -186 6 -299 -6 -74 -9 -170 -5 -212
14 -185 16 -336 5 -461 -6 -74 -12 -305 -14 -512 -2 -207 -7 -381 -10 -387 -8
-12 10 -52 28 -63 6 -4 18 -8 27 -8 9 0 44 -27 78 -59 38 -37 75 -62 94 -66
18 -4 53 -20 80 -36 26 -16 54 -29 62 -29 7 0 16 -4 19 -9 3 -5 17 -12 31 -15
13 -3 47 -20 75 -36 34 -20 64 -30 91 -30 23 0 78 -11 123 -24 44 -13 95 -24
113 -24 17 -1 42 -6 55 -13 28 -16 97 -27 243 -39 61 -5 126 -14 145 -19 200
-55 310 -61 479 -27 68 14 128 23 133 20 8 -5 56 8 151 42 20 8 50 14 65 14
24 0 217 98 231 118 3 4 26 23 51 42 24 19 56 46 70 59 59 55 107 90 133 96
32 8 92 74 113 124 19 45 18 50 -11 63 -23 10 -24 15 -20 72 3 34 7 75 10 91
10 58 6 790 -4 824 -6 19 -9 37 -7 40 9 14 19 310 18 496 -2 201 -14 329 -35
374 -7 13 -12 48 -11 78 0 29 -3 53 -7 53 -4 0 -12 53 -18 118 -7 64 -14 128
-16 141 -1 14 4 36 13 49 10 15 17 55 20 106 l4 82 -35 31 c-43 37 -146 78
-251 98 -43 8 -89 21 -101 29 -12 8 -51 20 -86 26 -35 6 -78 16 -96 21 -18 6
-51 10 -75 9 -24 0 -137 2 -253 6 -260 8 -244 8 -455 6 -96 -1 -214 -1 -261 1
-48 1 -115 -3 -150 -10z m581 -98 c6 -4 141 -7 298 -7 277 1 289 0 357 -23
129 -44 280 -89 289 -87 4 2 31 -5 58 -14 33 -11 53 -24 60 -40 10 -22 7 -29
-23 -60 -19 -20 -54 -46 -79 -59 -25 -13 -61 -39 -79 -59 -19 -20 -44 -36 -56
-36 -11 0 -29 -6 -40 -13 -11 -8 -57 -24 -103 -36 -46 -12 -118 -37 -160 -55
-72 -31 -132 -42 -277 -51 -22 -2 -73 -9 -112 -15 -51 -9 -76 -10 -85 -2 -9 7
-32 6 -78 -5 -94 -22 -463 -8 -565 21 -11 3 -49 8 -85 11 -36 3 -76 7 -90 9
-14 1 -63 6 -110 10 -47 5 -89 11 -95 15 -13 9 -71 27 -110 36 -40 8 -58 24
-70 60 -6 16 -30 43 -55 61 -89 65 -120 96 -120 121 0 53 26 75 104 87 20 3
50 13 66 21 16 8 38 15 49 15 25 0 123 25 148 38 10 5 43 12 73 15 30 3 66 9
80 12 14 3 57 10 95 16 39 6 90 14 115 18 56 10 583 7 600 -4z m1055 -527 c-2
-68 1 -127 5 -133 13 -16 37 -97 44 -143 3 -24 8 -46 10 -50 13 -22 20 -208
16 -427 -2 -137 -4 -297 -4 -355 3 -466 2 -882 -1 -915 -2 -22 -4 -65 -4 -95
-1 -52 -3 -57 -33 -75 -33 -19 -58 -37 -183 -137 -90 -71 -193 -134 -236 -142
-19 -4 -61 -18 -94 -32 -33 -14 -82 -30 -110 -35 -27 -5 -84 -15 -125 -24 -41
-8 -122 -20 -180 -26 -100 -11 -111 -10 -220 16 -106 24 -308 56 -355 56 -36
-1 -198 29 -244 45 -25 8 -77 22 -115 30 -98 20 -188 50 -274 90 -41 19 -77
34 -80 34 -28 2 -130 66 -156 99 -11 13 -28 32 -39 42 -19 17 -20 33 -23 236
-1 120 2 313 7 428 13 280 12 468 -2 586 -9 79 -8 124 4 236 15 137 15 163 0
360 -5 56 -5 115 -1 130 5 15 4 78 -2 140 -14 155 -7 167 72 114 65 -44 156
-91 176 -91 9 0 42 -10 72 -21 50 -20 131 -34 250 -44 25 -2 74 -9 110 -15 36
-7 85 -14 110 -15 44 -3 59 -5 165 -24 28 -5 57 -10 65 -10 230 -4 365 1 495
19 50 7 115 12 145 12 71 -1 287 59 375 105 11 6 40 13 65 17 39 6 196 81 254
122 41 28 44 21 41 -108z"/>
<path d="M14100 8989 c-41 -11 -86 -27 -100 -37 -14 -9 -42 -26 -62 -37 -48
-25 -72 -78 -53 -115 15 -29 20 -153 20 -472 l-1 -228 36 0 c20 0 61 -12 91
-26 29 -14 63 -30 74 -34 11 -5 40 -18 65 -29 156 -67 214 -75 337 -42 146 38
209 117 183 226 -13 54 -79 142 -127 168 -42 23 -128 85 -147 106 -10 11 -34
23 -52 27 -37 7 -67 34 -56 50 4 6 27 22 52 34 111 56 160 118 167 214 6 75
-12 118 -60 142 -17 9 -42 25 -53 36 -23 20 -115 38 -194 37 -25 0 -79 -9
-120 -20z m298 -142 c33 -11 37 -16 35 -46 -3 -61 -70 -110 -200 -145 -47 -13
-68 -14 -83 -6 -43 23 -110 -24 -110 -76 0 -25 37 -50 129 -86 24 -9 51 -23
60 -31 9 -7 32 -20 51 -27 45 -18 149 -78 176 -102 11 -10 25 -18 30 -18 6 0
32 -21 59 -46 39 -38 49 -54 53 -89 4 -41 3 -44 -36 -70 -62 -41 -110 -54
-187 -51 -63 2 -192 35 -220 56 -5 4 -38 16 -72 25 -35 10 -68 24 -75 33 -10
11 -13 71 -14 226 0 116 -4 248 -8 293 -5 45 -6 93 -2 107 8 31 100 78 171 86
52 5 178 -12 243 -33z"/>
<path d="M12987 8939 c-79 -11 -127 -42 -127 -79 0 -15 6 -33 14 -39 9 -8 14
-40 15 -104 1 -50 5 -141 9 -202 11 -144 8 -280 -7 -341 -16 -68 -3 -104 38
-104 32 0 40 8 57 57 8 24 8 33 0 36 -6 2 -8 8 -3 12 4 5 20 -3 35 -17 55 -52
133 -77 287 -93 69 -7 139 13 239 69 96 54 121 89 151 214 16 64 16 83 6 145
-14 81 -32 137 -74 225 -20 42 -128 133 -214 179 -51 27 -338 56 -426 42z
m295 -125 c75 -10 118 -20 131 -32 10 -9 29 -21 41 -27 36 -16 114 -108 138
-161 29 -67 37 -198 14 -257 -34 -91 -130 -149 -276 -168 -145 -19 -309 43
-334 126 -3 11 -8 126 -10 256 -4 203 -3 239 11 258 12 18 22 22 47 17 17 -2
49 -1 71 3 22 4 43 6 47 4 4 -2 58 -11 120 -19z"/>
<path d="M9385 9303 c-48 -18 -149 -60 -190 -79 -71 -34 -187 -174 -207 -250
-5 -22 -14 -66 -18 -99 -5 -33 -14 -75 -19 -92 -9 -31 -8 -64 3 -128 4 -16 9
-46 12 -65 16 -101 72 -219 131 -276 51 -50 172 -143 213 -165 34 -18 133 -12
173 10 18 10 53 21 79 25 68 8 180 60 239 110 20 17 45 38 55 46 34 27 74 99
84 150 17 90 20 159 9 202 -6 24 -14 75 -19 113 -8 73 -30 142 -47 154 -6 3
-23 31 -39 61 -26 52 -43 75 -121 169 -18 21 -33 43 -33 48 0 5 -17 21 -38 34
-29 19 -54 26 -100 28 -34 1 -77 7 -94 12 -18 5 -33 9 -33 8 0 -1 -18 -8 -40
-16z m115 -124 c0 -6 12 -10 28 -9 15 1 35 2 45 1 31 -2 141 -116 172 -179 15
-31 38 -73 50 -92 50 -79 77 -280 50 -372 -32 -112 -175 -219 -310 -233 -35
-4 -72 -2 -89 5 -24 9 -35 7 -72 -14 -41 -23 -43 -23 -59 -6 -9 10 -27 21 -40
24 -33 8 -143 131 -171 191 -19 42 -31 96 -47 225 -4 35 16 169 33 220 25 73
87 136 181 183 100 49 229 81 229 56z"/>
<path d="M9474 9013 c-28 -5 -46 -46 -34 -77 10 -26 4 -239 -10 -357 -5 -42
-6 -93 -3 -113 5 -33 8 -36 39 -36 43 0 52 17 65 122 16 120 17 458 2 458 -6
0 -17 2 -25 4 -7 2 -23 1 -34 -1z"/>
<path d="M11331 8764 c-28 -36 -26 -49 9 -74 19 -14 30 -30 30 -46 0 -13 14
-52 30 -86 48 -99 40 -123 -52 -154 -29 -9 -100 -39 -158 -67 -116 -55 -230
-104 -273 -117 -16 -5 -50 -22 -75 -38 -26 -17 -65 -35 -87 -42 -22 -7 -66
-26 -97 -41 -32 -16 -92 -43 -135 -60 -43 -17 -100 -41 -128 -54 -80 -37 -184
-80 -265 -110 -41 -15 -79 -31 -85 -35 -5 -5 -37 -16 -70 -25 -33 -10 -67 -22
-75 -26 -8 -5 -33 -15 -55 -23 -22 -8 -80 -30 -130 -49 -49 -19 -106 -40 -125
-47 -19 -7 -49 -18 -66 -26 -18 -7 -49 -16 -70 -20 -36 -6 -115 -41 -209 -92
-51 -28 -131 -62 -145 -62 -5 0 -29 -9 -53 -19 -93 -43 -269 -111 -286 -111
-9 0 -41 -11 -69 -25 -29 -14 -61 -25 -72 -25 -10 0 -43 -9 -72 -21 -29 -12
-79 -29 -111 -40 -32 -10 -70 -25 -85 -33 -15 -7 -49 -23 -77 -35 -27 -12 -70
-39 -94 -60 -38 -33 -43 -41 -37 -65 9 -37 32 -43 64 -17 72 58 115 78 293
137 106 35 200 64 208 64 9 0 57 14 106 30 202 66 316 110 435 169 136 68 246
112 355 141 81 22 189 61 244 90 22 11 75 33 118 50 43 17 87 35 98 40 49 22
153 60 166 60 8 0 28 8 44 18 17 10 64 31 105 47 41 16 91 39 110 52 19 13 43
23 53 23 10 0 39 11 65 24 26 13 58 27 72 31 14 4 63 25 110 47 47 22 108 51
135 64 28 13 75 33 105 45 30 11 62 26 70 33 8 7 49 27 90 45 41 17 92 41 112
51 20 11 44 20 54 20 9 0 37 11 63 23 53 27 80 22 102 -22 8 -14 29 -45 47
-69 17 -24 35 -54 38 -68 3 -13 10 -24 15 -24 5 0 9 -5 9 -11 0 -18 57 -95 84
-112 33 -22 51 -14 72 31 9 20 24 48 34 62 9 14 27 52 40 85 41 106 101 219
131 248 16 15 29 33 29 38 0 25 -32 69 -50 69 -11 0 -34 13 -52 29 -30 26 -95
51 -268 103 -19 6 -39 14 -45 18 -5 5 -30 13 -55 20 -25 6 -69 25 -99 41 -67
36 -94 36 -120 3z"/>
<path d="M1445 7700 c-83 -11 -118 -20 -139 -37 -35 -28 -43 -76 -23 -139 18
-59 31 -291 32 -579 1 -115 4 -221 8 -235 23 -78 27 -421 8 -635 -6 -71 -16
-229 -21 -350 -6 -121 -13 -241 -16 -266 -5 -41 -3 -47 20 -62 38 -25 260 -26
506 -2 25 2 126 7 225 11 99 3 183 8 188 11 4 3 49 5 100 4 51 0 160 7 242 16
126 14 199 19 315 25 8 0 39 -5 68 -11 72 -15 395 -16 452 -2 50 13 267 31
430 36 92 3 251 -5 390 -21 25 -2 90 -6 145 -9 55 -2 129 -7 165 -11 36 -4
211 -9 390 -10 276 -3 459 -8 480 -14 8 -3 530 1 995 7 537 6 752 5 790 -7 35
-10 265 -23 448 -24 179 -1 172 -11 163 234 -4 102 -11 210 -16 240 -16 100
-30 253 -35 387 -3 73 -10 166 -16 205 -17 119 -20 154 -29 343 -4 99 -15 241
-24 315 -8 74 -21 221 -27 326 -8 131 -16 197 -26 210 -12 16 -27 19 -96 20
-46 0 -90 4 -97 9 -8 5 -91 10 -185 11 -93 1 -240 2 -325 3 -155 2 -320 -14
-508 -49 -36 -6 -60 -6 -73 0 -17 10 -258 15 -419 9 -109 -4 -222 -2 -280 5
-51 6 -252 6 -469 1 -52 -1 -113 2 -135 8 -23 5 -144 11 -271 12 -126 2 -302
7 -390 11 -88 4 -187 7 -220 7 -33 0 -127 0 -210 -1 -82 0 -253 0 -380 1 -126
1 -277 -2 -335 -8 -213 -20 -1117 -10 -1328 16 -109 13 -330 8 -467 -11z m637
-117 c31 -18 973 -25 1143 -8 55 5 219 9 365 8 146 -1 303 -1 350 -1 295 0
508 -2 750 -7 399 -7 484 -10 497 -18 7 -4 56 -5 110 -2 169 9 345 7 412 -5
36 -6 81 -8 100 -4 20 4 196 8 391 9 205 2 399 8 460 15 176 21 623 27 785 11
55 -6 103 -11 106 -11 14 0 28 -124 35 -295 4 -99 11 -191 16 -204 5 -13 13
-114 18 -223 5 -110 16 -273 24 -362 8 -88 18 -215 21 -281 8 -164 14 -230 32
-370 8 -66 15 -162 15 -213 0 -131 -1 -132 -156 -132 -105 0 -261 9 -496 27
-188 14 -537 17 -570 5 -14 -5 -50 -6 -80 -3 -30 3 -120 4 -200 2 -80 -2 -172
-3 -205 -2 -33 1 -199 3 -370 5 -170 2 -366 6 -435 10 -125 7 -232 8 -495 5
-155 -2 -441 8 -550 19 -89 9 -411 8 -490 -2 -33 -4 -91 -11 -130 -17 -81 -11
-366 -30 -374 -24 -3 1 -42 6 -86 9 -44 4 -102 10 -130 13 -70 9 -147 6 -425
-16 -63 -5 -133 -9 -155 -9 -140 0 -516 -12 -545 -17 -73 -12 -355 -14 -393
-3 -34 10 -37 14 -32 37 4 24 11 180 20 456 1 61 8 178 13 260 12 162 7 319
-11 375 -7 22 -10 107 -9 230 1 107 -3 301 -9 431 -7 130 -9 247 -6 261 8 29
29 37 117 45 30 2 57 7 60 9 5 6 502 -7 512 -13z"/>
<path d="M5763 7220 c-26 -11 -43 -40 -45 -78 -2 -31 11 -238 17 -274 13 -82
26 -352 24 -513 -3 -269 -5 -253 34 -269 18 -7 37 -10 43 -5 13 11 8 476 -7
674 -6 72 -12 198 -15 280 -7 204 -6 203 -51 185z"/>
<path d="M5450 7133 c-20 -25 -21 -35 -15 -143 3 -63 11 -134 16 -158 12 -55
30 -365 28 -485 -2 -110 4 -133 39 -151 48 -25 97 16 74 61 -15 30 -21 82 -23
208 -1 66 -8 188 -15 270 -8 83 -17 200 -20 260 -9 152 -37 198 -84 138z"/>
<path d="M2430 7050 c-47 -9 -105 -22 -130 -29 -79 -22 -213 -98 -270 -153
-49 -48 -59 -64 -95 -163 -37 -103 -39 -116 -39 -215 2 -132 10 -189 41 -266
37 -93 80 -126 228 -174 75 -24 197 -37 280 -28 44 4 103 10 130 13 113 11
168 34 163 68 -2 18 -9 22 -38 20 -135 -10 -170 -13 -205 -18 -72 -12 -290 11
-338 35 -23 12 -58 30 -77 40 -23 11 -45 35 -65 71 -29 53 -30 57 -30 199 0
144 0 146 35 225 40 91 82 137 167 183 32 18 69 38 83 46 54 31 133 54 278 82
30 6 30 47 0 68 -12 9 -25 15 -28 15 -3 -1 -43 -9 -90 -19z"/>
<path d="M4136 7025 c-17 -13 -18 -20 -8 -67 37 -173 41 -370 8 -393 -20 -15
-71 -11 -168 12 -56 14 -69 14 -83 3 -25 -21 -14 -50 30 -73 66 -34 69 -35
141 -42 38 -4 72 -9 75 -11 3 -2 0 -40 -8 -86 -7 -46 -14 -122 -15 -170 -2
-80 0 -89 22 -113 13 -14 34 -25 48 -25 24 0 24 1 20 78 -5 75 13 227 32 277
9 24 13 25 98 25 57 0 94 -5 107 -13 39 -27 65 -27 77 -2 13 29 -6 64 -43 81
-28 13 -150 42 -194 46 l-30 3 -1 105 c-1 58 -9 152 -18 209 -9 58 -16 110
-16 118 0 14 -35 53 -47 53 -5 0 -17 -7 -27 -15z"/>
<path d="M6190 6656 c-56 -20 -86 -39 -112 -71 -32 -37 -68 -105 -68 -125 0
-8 -9 -28 -20 -45 -26 -39 -25 -55 8 -146 26 -74 70 -139 92 -139 6 0 21 -6
33 -14 50 -32 250 -32 282 0 20 21 20 80 -1 88 -9 3 -25 -1 -37 -9 -24 -17
-132 -21 -142 -5 -3 6 -18 10 -33 10 -48 1 -96 56 -85 98 3 15 13 22 28 22 33
0 134 55 178 98 48 47 64 98 49 151 -13 43 -30 60 -76 77 -17 6 -38 14 -46 17
-8 3 -31 0 -50 -7z m78 -124 c5 -31 -57 -87 -111 -100 -22 -6 -44 -9 -49 -6
-13 8 12 58 50 97 31 32 43 37 72 35 28 -2 36 -8 38 -26z"/>
<path d="M6885 6622 c-130 -37 -189 -81 -242 -180 -15 -29 -32 -53 -38 -53 -5
0 -14 17 -19 38 -14 64 -24 83 -45 83 -59 0 -50 -133 20 -288 10 -23 19 -58
19 -78 0 -48 14 -70 51 -83 50 -17 57 -4 58 102 1 208 33 277 154 336 48 23
80 31 141 34 43 3 93 1 111 -4 42 -12 85 3 85 30 0 11 -8 22 -17 25 -18 5
-136 20 -140 18 -2 -1 -22 7 -45 17 -39 16 -48 16 -93 3z"/>
<path d="M5080 6560 c-53 -13 -114 -87 -136 -166 -30 -114 9 -188 100 -189 23
0 46 -3 52 -7 24 -16 126 29 162 71 42 49 54 80 47 124 -9 55 -58 128 -106
155 -40 23 -61 25 -119 12z m104 -122 c36 -51 6 -112 -71 -144 -69 -29 -91 -5
-68 73 12 39 22 53 52 71 48 27 68 28 87 0z"/>
<path d="M4675 6547 c-51 -21 -75 -40 -106 -88 -30 -48 -43 -102 -54 -228 -7
-79 7 -111 47 -111 39 0 58 35 58 110 0 82 22 157 55 187 34 31 127 55 179 48
32 -5 45 -3 55 9 12 14 11 20 -5 37 -10 12 -27 25 -38 31 -29 16 -157 19 -191
5z"/>
<path d="M2955 6483 c-25 -7 -94 -54 -118 -81 -22 -24 -39 -169 -26 -214 13
-46 58 -118 74 -118 8 0 19 -9 25 -20 41 -76 351 -23 424 73 47 62 47 143 -2
199 -54 63 -109 116 -132 128 -60 32 -182 48 -245 33z m230 -111 c55 -37 105
-101 105 -133 0 -39 -40 -78 -113 -113 -82 -39 -181 -53 -183 -26 -1 8 -2 20
-3 27 0 6 -14 14 -30 18 -45 10 -54 28 -52 102 1 54 7 75 26 105 28 42 57 53
143 53 48 0 65 -5 107 -33z"/>
<path d="M3569 6470 c-20 -3 -50 -16 -67 -28 -83 -59 -112 -133 -112 -283 0
-96 0 -98 29 -118 57 -41 60 -34 76 135 11 114 16 138 36 163 29 36 80 55 92
34 5 -8 18 -13 30 -12 87 9 147 -78 152 -219 3 -72 7 -79 53 -88 l32 -6 0 43
c0 116 -47 262 -95 296 -99 69 -166 94 -226 83z"/>
<path d="M7756 5084 c-9 -8 -16 -21 -16 -29 0 -26 96 -97 195 -146 55 -27 107
-54 115 -59 8 -5 35 -19 60 -30 71 -34 146 -74 161 -87 8 -6 41 -21 74 -34 33
-12 67 -27 75 -34 8 -7 50 -32 93 -54 44 -23 97 -58 118 -78 22 -20 65 -50 97
-66 31 -16 68 -37 82 -47 14 -10 49 -30 79 -45 29 -14 84 -54 122 -88 83 -76
113 -98 164 -122 22 -10 64 -36 94 -58 95 -70 156 -66 149 11 -2 29 -8 37 -33
45 -16 5 -79 43 -139 84 -60 41 -116 77 -125 81 -17 5 -107 74 -170 128 -20
17 -56 41 -81 53 -44 21 -106 58 -192 114 -114 76 -255 158 -297 174 -25 9
-102 45 -171 78 -69 34 -141 67 -160 75 -19 7 -42 19 -50 26 -8 7 -51 31 -94
54 -44 23 -89 48 -100 56 -26 18 -31 18 -50 -2z"/>
<path d="M9913 4975 c-12 -8 -25 -30 -28 -48 -4 -17 -12 -40 -17 -50 -9 -18
-11 -18 -35 5 -14 12 -31 35 -39 51 -24 45 -74 30 -74 -23 0 -40 60 -133 94
-145 24 -8 31 -6 47 14 19 23 20 23 39 6 32 -29 47 -13 60 67 6 40 13 79 16
87 4 13 -22 51 -35 51 -4 0 -16 -7 -28 -15z"/>
<path d="M14017 4893 c-2 -1 -79 -5 -173 -8 -93 -3 -221 -10 -284 -15 -63 -5
-169 -12 -235 -16 -66 -4 -165 -15 -220 -25 -83 -14 -142 -17 -340 -14 -225 3
-456 18 -477 31 -5 3 -83 6 -172 7 l-164 1 -36 -28 c-39 -30 -44 -51 -21 -96
19 -37 23 -340 6 -495 -5 -55 -15 -163 -21 -240 -7 -77 -18 -198 -26 -270 -9
-71 -20 -170 -25 -220 -5 -49 -14 -290 -19 -535 -12 -501 -14 -583 -24 -900
-6 -171 -4 -257 7 -358 8 -73 13 -141 10 -152 -22 -84 54 -104 282 -75 66 8
416 9 480 0 33 -4 67 -7 75 -7 52 3 282 0 315 -4 22 -3 63 -7 90 -10 185 -17
279 -26 340 -33 39 -4 80 -4 93 0 52 19 203 9 320 -20 23 -6 66 -13 95 -15 28
-2 94 -9 145 -15 51 -6 140 -13 197 -16 118 -5 397 -40 435 -54 88 -33 137
-35 650 -34 283 0 542 -3 575 -7 64 -7 200 11 218 29 14 14 102 14 127 1 26
-14 46 -4 70 35 24 39 25 65 5 124 -24 68 -28 124 -30 461 -2 207 3 384 13
515 8 110 16 256 17 325 2 69 5 159 8 200 15 201 17 404 7 505 -6 61 -12 218
-14 350 -4 264 -26 532 -56 695 -36 188 -69 340 -80 360 -13 25 -32 27 -100
14 -14 -3 -104 -7 -200 -10 -96 -3 -206 -7 -245 -9 -218 -13 -857 -19 -930 -9
-16 2 -75 9 -130 14 -55 6 -120 13 -145 17 -45 6 -408 12 -413 6z m307 -134
c33 -6 69 -11 80 -11 12 0 77 -7 146 -15 177 -20 781 -19 965 2 17 2 157 6
312 10 l281 6 16 -78 c8 -43 23 -107 31 -143 9 -36 18 -85 20 -110 2 -25 9
-88 14 -140 24 -221 26 -266 27 -495 1 -132 4 -359 7 -505 3 -169 0 -330 -9
-445 -14 -203 -28 -412 -44 -655 -6 -91 -8 -290 -6 -442 l6 -278 -23 -15 c-46
-30 -174 -36 -778 -37 -535 -2 -610 0 -659 15 -62 18 -389 58 -680 82 -107 9
-242 21 -300 26 -58 4 -118 12 -135 17 -16 5 -64 6 -105 2 -90 -9 -158 -6
-265 10 -48 8 -182 13 -339 13 -193 0 -266 3 -285 13 -13 7 -28 11 -33 8 -5
-3 -88 -7 -186 -10 -194 -4 -287 -10 -299 -17 -21 -12 -114 -17 -149 -8 l-39
10 -1 63 c0 35 -5 132 -11 216 -8 104 -8 188 -1 260 5 59 11 190 13 292 17
855 25 1096 41 1210 8 58 19 155 24 215 5 61 14 173 20 250 7 77 15 259 18
405 l7 265 35 5 c47 8 273 -6 324 -19 46 -11 164 -22 306 -27 156 -5 371 -5
379 0 5 3 23 7 42 10 19 2 50 7 69 10 19 3 112 11 205 16 94 6 215 13 270 17
55 3 102 7 104 9 9 8 534 2 585 -7z"/>
<path d="M12451 4343 c-48 -24 -57 -52 -42 -124 17 -83 15 -338 -5 -625 -8
-109 -2 -137 30 -152 20 -9 29 -8 45 6 20 16 21 30 26 312 7 327 11 383 28
378 24 -7 158 -299 189 -411 10 -37 57 -87 82 -87 39 0 85 106 146 343 14 53
26 60 34 20 4 -16 9 -39 12 -53 15 -74 46 -284 49 -340 9 -153 15 -181 43
-191 34 -13 69 -4 83 22 8 16 7 23 -5 32 -18 14 -30 71 -51 252 -8 72 -26 207
-40 300 -14 94 -28 188 -31 210 -6 48 -28 85 -50 85 -9 0 -29 -9 -45 -21 -22
-15 -29 -28 -29 -53 0 -18 -9 -64 -20 -102 -12 -38 -25 -85 -30 -104 -26 -99
-53 -186 -62 -197 -13 -16 -28 -17 -28 -1 0 7 -17 46 -39 88 -21 41 -42 86
-46 100 -26 88 -145 290 -185 313 -23 14 -29 14 -59 0z"/>
<path d="M14417 4247 c-25 -38 -36 -96 -38 -192 -1 -101 15 -294 30 -341 5
-18 12 -76 16 -130 9 -130 21 -189 42 -219 23 -31 58 -32 78 -1 15 22 15 29 1
78 -37 130 -79 545 -70 698 3 46 3 94 -1 107 -7 30 -38 30 -58 0z"/>
<path d="M14010 4189 c-18 -33 -8 -63 29 -81 26 -13 39 -14 60 -5 67 28 68 74
2 95 -57 17 -79 15 -91 -9z"/>
<path d="M13625 3933 c-11 -3 -56 -25 -101 -50 -181 -97 -247 -266 -146 -372
88 -92 223 -67 294 55 l26 46 18 -28 c52 -86 66 -105 89 -120 21 -13 28 -14
41 -4 37 31 36 47 -5 115 -21 36 -45 89 -51 118 -23 98 -53 167 -90 207 -21
22 -42 39 -46 39 -5 -1 -18 -4 -29 -6z m-8 -197 c-7 -93 -32 -145 -81 -169
-46 -22 -52 -21 -87 3 -24 18 -27 26 -22 53 9 46 27 77 67 116 31 30 96 68
120 70 4 1 6 -32 3 -73z"/>
<path d="M14018 3733 c-24 -27 -30 -75 -19 -140 5 -32 12 -77 15 -101 7 -58
11 -62 55 -62 60 0 67 17 42 99 -13 42 -21 97 -21 139 0 54 -3 71 -16 76 -26
10 -40 7 -56 -11z"/>
<path d="M12523 2897 c-24 -6 -56 -24 -73 -39 -24 -21 -30 -34 -30 -67 0 -42
14 -72 60 -126 44 -52 103 -105 116 -105 7 0 14 -3 16 -8 4 -9 142 -100 166
-109 32 -12 121 -106 132 -139 15 -44 -1 -69 -65 -101 -65 -32 -164 -51 -240
-45 -68 4 -83 13 -87 50 -3 31 -34 40 -67 22 -44 -23 -14 -112 46 -136 19 -9
82 -18 139 -21 158 -9 259 20 330 95 66 70 68 147 5 216 -29 32 -140 116 -153
116 -20 0 -168 111 -235 176 -85 83 -94 113 -40 135 38 16 298 15 359 -2 53
-14 80 2 76 44 -3 27 -8 32 -38 39 -65 15 -372 18 -417 5z"/>
<path d="M14651 2656 c-17 -20 -2 -72 24 -84 17 -8 29 -6 53 8 40 25 44 34 31
64 -10 22 -19 26 -54 26 -24 0 -48 -6 -54 -14z"/>
<path d="M13305 2615 c-51 -18 -108 -83 -134 -154 -28 -76 -33 -82 -72 -90
-22 -4 -39 -16 -49 -34 -14 -27 -14 -29 9 -48 13 -10 34 -19 46 -19 18 0 32
-14 60 -60 35 -58 138 -156 193 -184 27 -13 63 -22 137 -31 56 -7 148 47 153
89 5 41 -7 47 -63 30 -73 -22 -128 -20 -197 7 -51 20 -66 32 -96 76 -38 58
-37 79 4 89 50 13 146 77 171 115 50 76 39 151 -30 203 -38 29 -73 32 -132 11z
m55 -170 c-22 -23 -97 -62 -105 -54 -2 3 0 21 5 40 12 42 55 86 90 91 21 2 26
-2 28 -26 2 -18 -4 -36 -18 -51z"/>
<path d="M15063 2588 c-34 -7 -52 -21 -90 -65 l-48 -56 1 -91 c1 -108 26 -178
85 -237 49 -49 68 -58 122 -60 57 -3 123 29 161 77 24 31 27 39 17 60 -13 29
-35 30 -93 4 -64 -28 -142 -4 -171 54 -19 39 -20 111 -2 151 14 31 78 75 109
75 9 0 16 5 16 10 0 6 7 10 15 10 20 0 30 46 15 65 -14 17 -71 18 -137 3z"/>
<path d="M13864 2544 c-22 -8 -52 -27 -66 -42 -28 -30 -78 -119 -78 -140 0 -7
-10 -34 -21 -60 l-22 -46 24 -99 c19 -83 27 -102 51 -118 40 -29 60 -21 74 28
9 31 10 61 3 113 -11 80 0 159 32 222 29 58 56 70 140 67 59 -3 74 -1 82 13
15 23 -4 43 -60 62 -56 19 -104 19 -159 0z"/>
<path d="M15503 2540 c-61 -31 -109 -89 -129 -156 -26 -90 -7 -191 46 -239 11
-10 20 -23 20 -30 0 -22 91 -76 185 -108 88 -31 255 15 255 69 0 41 -13 46
-111 43 -97 -2 -151 12 -208 53 -29 20 -22 53 8 43 24 -7 114 36 154 73 47 45
58 140 21 198 -40 65 -165 92 -241 54z m123 -115 c4 -8 3 -26 0 -39 -6 -25
-28 -34 -103 -43 -37 -4 -43 -2 -43 15 0 23 24 46 70 66 45 20 69 20 76 1z"/>
<path d="M14449 2470 c-22 -22 -42 -53 -45 -68 -27 -113 -73 -252 -84 -252
-16 0 -59 61 -79 112 -62 164 -78 193 -109 196 -23 2 -31 -2 -35 -18 -10 -40
21 -154 68 -247 70 -138 140 -194 210 -167 28 11 57 83 110 274 14 46 33 96
45 112 23 31 25 56 6 81 -21 27 -46 20 -87 -23z"/>
<path d="M14659 2418 c-26 -49 -28 -92 -9 -193 11 -55 20 -116 20 -136 0 -45
25 -55 78 -33 34 14 35 15 29 62 -4 26 -13 83 -21 127 -9 44 -15 99 -16 122 0
66 -55 100 -81 51z"/>
<path d="M10063 4870 c-17 -10 -43 -35 -58 -55 -25 -33 -27 -38 -14 -61 7 -14
22 -30 34 -36 11 -6 30 -23 43 -39 13 -16 41 -34 63 -40 34 -11 41 -10 59 6
39 35 16 94 -37 95 -31 0 -34 21 -6 47 39 37 29 70 -28 92 -20 7 -33 5 -56 -9z"/>
<path d="M9626 4788 c-24 -34 -19 -52 19 -72 44 -24 40 -39 -10 -47 -39 -7
-95 -55 -95 -82 0 -27 45 -40 110 -32 l61 7 -20 -41 c-27 -53 -26 -77 4 -97
24 -16 65 -12 65 7 0 5 15 26 33 46 18 21 39 53 47 71 11 29 16 33 39 27 45
-11 91 -46 98 -73 4 -15 7 -47 7 -72 l1 -44 -57 -11 c-32 -5 -61 -14 -66 -20
-15 -17 -32 -113 -26 -144 8 -39 -3 -81 -20 -81 -16 0 -100 -63 -159 -119 -47
-43 -101 -149 -129 -249 -31 -116 -18 -197 60 -360 23 -49 44 -75 92 -113 77
-63 120 -89 144 -89 10 0 41 -14 69 -31 46 -28 56 -31 121 -27 66 3 79 8 171
62 181 106 235 148 281 216 60 89 79 219 44 302 -5 13 -21 54 -36 92 -51 132
-130 231 -219 277 -33 17 -65 36 -72 41 -14 11 -7 115 12 173 12 36 11 42 -6
58 -10 9 -32 20 -49 24 -37 7 -42 14 -51 79 -14 101 -43 141 -148 201 -80 46
-104 43 -136 -20 -6 -12 -18 -23 -26 -25 -17 -3 -29 40 -29 104 0 27 -6 34
-51 58 -28 14 -52 26 -54 26 -2 0 -11 -10 -19 -22z"/>
<path d="M8115 3504 c-128 -25 -207 -53 -254 -91 -77 -62 -167 -159 -199 -215
-38 -67 -69 -190 -84 -339 l-12 -117 43 -133 c36 -112 53 -147 99 -213 57 -79
122 -141 177 -168 34 -17 167 -58 205 -64 14 -1 86 -4 160 -5 173 -2 219 12
451 139 89 49 111 72 128 132 7 25 23 65 34 90 20 42 22 61 21 250 -1 212 -12
291 -59 421 -21 59 -104 158 -153 183 -20 10 -51 30 -69 43 -23 18 -53 27
-104 34 -40 5 -82 15 -94 23 -12 8 -55 17 -96 21 -41 4 -87 10 -104 14 -16 4
-57 2 -90 -5z m215 -128 c36 -9 79 -21 96 -26 17 -6 38 -10 48 -10 23 0 163
-74 198 -104 32 -28 76 -112 95 -181 17 -62 26 -350 13 -420 -12 -59 -50 -185
-62 -201 -15 -21 -162 -102 -242 -134 -75 -30 -83 -31 -160 -24 -45 4 -117 9
-161 10 -176 4 -271 47 -354 161 -127 175 -158 386 -90 599 55 173 170 287
333 332 82 22 192 21 286 -2z"/>
<path d="M8123 3262 c-23 -10 -48 -23 -55 -30 -6 -6 -17 -12 -23 -12 -19 0
-75 -65 -75 -88 0 -25 36 -62 62 -62 10 0 41 18 69 40 78 61 168 71 236 25 26
-16 47 -41 56 -63 20 -51 30 -162 18 -194 -10 -26 -10 -26 -94 -21 -128 8
-200 -25 -277 -126 -30 -40 -35 -55 -38 -111 -3 -78 22 -132 78 -164 49 -29
157 -29 221 1 45 20 132 103 157 149 7 13 16 24 21 24 8 0 48 -75 70 -132 9
-23 17 -28 44 -28 55 0 89 59 53 90 -8 6 -24 30 -35 53 -11 23 -37 67 -58 97
l-37 55 -2 138 c-3 184 -17 229 -92 305 -45 46 -66 60 -97 65 -69 12 -158 7
-202 -11z m245 -525 c17 -16 18 -23 9 -58 -19 -78 -129 -147 -213 -134 -54 8
-72 38 -56 93 12 41 25 55 82 95 29 20 46 24 96 23 44 -1 68 -6 82 -19z"/>
<path d="M11312 3398 c-20 -25 -70 -124 -97 -193 -48 -120 -66 -135 -118 -95
-14 11 -31 20 -37 20 -7 0 -24 8 -38 19 -15 10 -41 21 -57 25 -17 4 -51 20
-75 36 -25 17 -48 30 -52 30 -4 0 -50 25 -103 55 -52 30 -101 55 -108 55 -20
0 -47 -33 -47 -58 0 -16 15 -32 53 -56 28 -18 62 -36 75 -40 29 -9 148 -82
185 -112 16 -13 36 -24 46 -24 9 0 21 -4 27 -8 5 -5 25 -15 44 -22 76 -28 100
-43 100 -60 0 -24 -70 -174 -103 -224 -15 -21 -27 -48 -27 -60 0 -12 -9 -36
-20 -54 -28 -46 -25 -65 16 -101 l36 -32 33 20 c18 10 50 19 70 19 23 0 48 8
64 21 36 29 148 88 190 102 20 6 47 18 61 25 14 7 50 20 81 28 64 18 129 78
129 120 0 23 -47 136 -92 221 -44 82 -76 151 -123 265 -15 35 -34 70 -44 77
-21 16 -56 16 -69 1z"/>
</g>
</svg>
