<?xml version="1.0" standalone="no"?>
<!DOCTYPE svg PUBLIC "-//W3C//DTD SVG 20010904//EN"
 "http://www.w3.org/TR/2001/REC-SVG-20010904/DTD/svg10.dtd">
<svg version="1.0" xmlns="http://www.w3.org/2000/svg"
 width="502.756308pt" height="400.000000pt" viewBox="0 0 502.756308 400.000000"
 preserveAspectRatio="xMidYMid meet">
<metadata>
Created by potrace 1.15, written by Peter Selinger 2001-2017
</metadata>
<g transform="translate(-11.827613,431.636616) scale(0.031436,-0.031436)"
fill="#444444" stroke="none">
<path d="M8812 13717 c-24 -29 -35 -110 -29 -216 8 -122 21 -181 43 -181 13 0
14 20 9 143 -4 80 -2 163 3 191 13 66 1 96 -26 63z"/>
<path d="M9190 13704 c-16 -42 -13 -199 5 -214 26 -22 38 -1 31 59 -4 31 -3
76 2 101 4 25 6 53 4 63 -5 26 -31 21 -42 -9z"/>
<path d="M9396 13675 c-19 -20 -21 -49 -3 -63 21 -18 59 14 55 46 -4 32 -29
40 -52 17z"/>
<path d="M9863 13668 c-16 -20 -65 -361 -56 -385 8 -21 32 -15 37 10 3 12 12
72 21 132 9 61 23 133 32 161 8 28 13 60 11 70 -4 23 -31 30 -45 12z"/>
<path d="M9490 13615 c-5 -14 -10 -35 -10 -45 0 -11 -11 -73 -25 -138 -29
-137 -38 -333 -17 -354 21 -21 29 4 36 125 4 61 16 158 26 216 25 137 29 212
13 218 -7 3 -17 -7 -23 -22z"/>
<path d="M16310 13591 c0 -25 14 -34 40 -26 27 9 25 31 -2 39 -35 9 -38 8 -38
-13z"/>
<path d="M9217 13398 c-19 -15 -13 -53 9 -62 20 -8 54 15 54 36 0 10 -9 22
-19 28 -24 13 -24 13 -44 -2z"/>
<path d="M9629 13306 c-35 -17 -80 -137 -76 -199 5 -59 34 -95 63 -79 59 32
72 74 66 223 -2 63 -14 75 -53 55z"/>
<path d="M8923 13203 c-7 -2 -13 -15 -13 -28 0 -30 36 -44 57 -22 12 12 13 18
1 36 -13 21 -22 24 -45 14z"/>
<path d="M9203 13202 c-16 -10 -53 -143 -53 -188 0 -74 54 -109 96 -63 16 18
19 35 18 105 -1 47 -5 95 -8 107 -6 25 -38 48 -53 39z"/>
<path d="M9813 13174 c-3 -9 -1 -39 5 -67 22 -99 24 -247 8 -437 -18 -205 -21
-407 -6 -430 22 -35 31 11 36 181 3 96 10 203 15 239 19 112 8 435 -17 512 -7
22 -33 23 -41 2z"/>
<path d="M8776 13103 c-4 -21 -14 -65 -22 -98 -22 -93 -40 -226 -34 -265 3
-24 12 -38 28 -45 17 -8 22 -18 22 -50 0 -22 9 -58 19 -80 21 -46 107 -145
125 -145 7 0 23 11 35 24 21 22 22 29 12 56 -6 18 -14 61 -17 96 -6 56 -4 71
20 125 24 51 27 68 21 112 -4 29 -17 77 -30 107 -13 30 -26 74 -30 98 -7 45
-32 67 -64 57 -25 -8 -33 -29 -21 -60 15 -40 8 -160 -12 -182 -9 -10 -21 -36
-27 -58 -6 -22 -15 -47 -21 -55 -15 -23 -12 84 5 160 44 197 46 211 34 226
-20 24 -37 15 -43 -23z m144 -286 c0 -27 -9 -56 -25 -82 -26 -43 -31 -88 -14
-148 16 -58 5 -67 -20 -18 -17 33 -22 55 -18 90 9 86 52 216 68 205 5 -3 9
-24 9 -47z"/>
<path d="M8526 13008 c5 -51 9 -226 9 -388 0 -267 2 -295 17 -298 9 -2 19 5
22 15 3 10 7 140 8 288 4 331 -13 475 -55 475 -6 0 -7 -31 -1 -92z"/>
<path d="M9054 13070 c-12 -5 -25 -14 -29 -20 -8 -13 22 -50 42 -50 17 0 38
44 30 64 -7 18 -13 19 -43 6z"/>
<path d="M9268 12938 c-10 -9 -18 -37 -22 -88 -5 -59 -15 -93 -46 -157 -22
-44 -40 -94 -41 -110 0 -27 -1 -27 -9 -5 -5 12 -18 22 -28 22 -11 0 -32 16
-47 35 -21 29 -30 34 -41 24 -21 -17 -17 -46 10 -82 13 -18 29 -50 36 -71 21
-66 -1 -246 -31 -246 -4 0 -26 -19 -49 -42 -23 -24 -45 -43 -49 -43 -14 0 -68
-70 -92 -120 -22 -47 -24 -60 -21 -187 l2 -138 -29 0 c-16 0 -36 -3 -45 -6 -9
-3 -17 0 -19 7 -20 71 -43 138 -55 159 -9 13 -19 54 -23 90 -15 134 -32 180
-65 180 -35 0 -40 -23 -21 -114 10 -45 17 -93 17 -108 0 -31 -40 -111 -75
-152 -14 -16 -25 -39 -25 -50 0 -43 -10 -46 -105 -35 -125 14 -178 23 -265 47
-102 28 -449 41 -770 29 l-155 -6 -4 -308 c-2 -192 2 -383 10 -508 18 -257 18
-680 0 -961 -13 -208 -13 -222 4 -248 30 -46 66 -57 180 -57 56 0 140 5 186
10 168 21 196 23 329 26 74 2 160 -1 190 -5 30 -5 109 -16 175 -24 66 -9 168
-22 226 -30 130 -18 470 -30 859 -29 414 0 518 3 523 17 4 11 4 27 -7 271 -9
222 -10 1176 -1 1451 9 291 12 280 -60 275 -58 -3 -85 21 -96 88 -10 65 5 156
32 193 23 32 25 71 4 88 -24 20 -49 7 -65 -35 -8 -22 -35 -60 -60 -85 l-44
-45 -9 35 c-5 19 -22 60 -38 91 -16 31 -29 64 -29 73 0 9 -5 16 -11 16 -8 0
-9 16 -5 53 4 28 11 83 14 120 8 71 23 94 80 117 30 13 28 70 -4 70 -8 0 -14
9 -14 20 0 30 -42 25 -76 -9 -25 -25 -32 -28 -46 -17 -22 16 -38 58 -32 82 3
11 20 29 39 41 43 29 53 71 32 145 -8 29 -18 73 -22 98 -7 42 -28 80 -46 80
-4 0 -15 -7 -24 -16 -13 -13 -15 -27 -10 -65 7 -47 -4 -85 -29 -101 -16 -11
-25 19 -25 94 -1 37 -5 70 -11 73 -5 3 -10 16 -10 28 -1 12 -6 32 -13 45 -11
19 -15 20 -29 10z m27 -358 c2 -83 12 -110 47 -128 14 -8 29 -30 36 -54 13
-40 12 -41 -22 -74 -19 -18 -40 -51 -48 -74 l-13 -41 -34 78 c-33 74 -43 128
-44 218 0 47 21 135 33 135 4 0 11 12 15 27 6 26 7 26 17 9 6 -11 12 -54 13
-96z m-88 -327 c27 -54 34 -79 30 -103 -16 -76 15 -150 55 -135 23 9 48 61 48
99 0 51 34 133 67 162 15 13 32 24 36 24 5 0 5 -26 1 -57 -5 -32 -8 -88 -9
-125 0 -63 -2 -68 -22 -68 -33 0 -61 -37 -74 -97 -14 -68 -5 -118 26 -149 35
-35 63 -31 81 11 19 46 18 73 -6 118 -18 34 -19 40 -6 59 14 20 15 19 41 -23
39 -61 47 -95 40 -177 -7 -73 -7 -73 -33 -67 -15 3 -49 7 -77 10 -27 2 -75 7
-106 11 l-56 6 -13 54 c-7 30 -21 66 -31 81 -52 78 -61 113 -47 173 14 61 6
82 -28 78 -22 -3 -32 -17 -69 -98 -24 -52 -49 -124 -55 -160 -25 -141 -39
-161 -80 -120 -17 17 -20 33 -20 110 0 50 4 98 9 108 5 9 15 31 22 47 7 17 50
66 95 110 90 89 108 117 119 190 7 46 8 48 17 25 6 -14 26 -57 45 -97z m-528
-520 c1 -23 -12 -30 -69 -35 -48 -4 -49 14 -4 86 l37 59 18 -44 c10 -24 18
-54 18 -66z m979 25 c12 -75 5 -86 -45 -67 -35 14 -38 18 -41 57 -3 37 -1 42
18 42 11 0 28 9 38 20 19 23 18 24 30 -52z m-1823 -59 c11 0 56 0 100 1 45 2
112 -5 153 -14 187 -42 223 -48 307 -54 101 -8 286 1 355 16 25 6 75 13 110
16 302 24 304 24 489 8 91 -8 189 -25 304 -54 l170 -42 -8 -210 c-7 -198 -8
-1285 -1 -1534 2 -82 0 -115 -10 -123 -20 -16 -959 -12 -1197 6 -71 6 -326 43
-337 50 -3 2 -64 7 -135 10 -72 4 -133 9 -136 11 -16 9 -202 3 -334 -11 -196
-20 -176 -19 -285 -17 -52 1 -101 6 -109 11 -17 11 -16 100 4 441 8 135 12
279 10 320 -2 41 -10 183 -17 315 -14 267 -14 261 -10 607 l2 247 58 4 c44 3
413 0 517 -4z"/>
<path d="M8459 11508 c-12 -22 -12 -30 16 -283 8 -77 15 -156 15 -176 0 -31 4
-38 26 -43 15 -4 28 -5 31 -3 2 3 -1 42 -6 88 -21 167 -31 279 -31 346 0 86
-25 120 -51 71z"/>
<path d="M7480 11474 c-6 -14 -8 -49 -6 -77 2 -29 0 -77 -5 -107 -4 -30 -15
-99 -24 -153 -17 -104 -14 -131 12 -141 25 -10 24 -14 42 129 5 39 12 103 16
143 5 40 11 75 15 77 8 5 75 -143 86 -187 6 -29 51 -65 64 -51 4 4 20 49 35
98 15 50 31 101 35 115 10 32 14 19 29 -85 30 -212 54 -278 91 -255 10 6 11
14 2 37 -12 28 -62 319 -62 358 0 25 -17 85 -30 105 -17 27 -47 -18 -74 -110
-14 -47 -31 -103 -39 -125 l-14 -39 -18 49 c-11 28 -27 64 -37 81 -10 17 -27
57 -38 89 -11 33 -26 63 -33 67 -22 14 -37 8 -47 -18z"/>
<path d="M8246 11418 c-22 -30 -20 -45 5 -53 33 -11 56 17 41 50 -14 31 -26
32 -46 3z"/>
<path d="M7983 11213 c-60 -58 -72 -75 -78 -112 -7 -42 -5 -47 24 -73 25 -22
38 -27 59 -22 36 9 67 38 89 86 l19 39 25 -38 c31 -48 69 -58 69 -17 0 15 -8
37 -18 48 -10 12 -25 37 -32 56 -17 45 -59 100 -75 100 -6 0 -44 -30 -82 -67z
m61 -55 c-13 -46 -34 -77 -55 -83 -41 -13 -37 21 10 73 35 38 55 42 45 10z"/>
<path d="M8264 11255 c-4 -8 -3 -54 1 -100 5 -66 11 -87 24 -95 14 -7 21 -4
31 14 18 34 -8 189 -33 194 -9 2 -20 -4 -23 -13z"/>
<path d="M9360 10690 c0 -13 28 -66 47 -90 19 -24 53 -161 53 -214 0 -27 -5
-67 -12 -90 -14 -47 -84 -160 -122 -195 -31 -29 -33 -47 -7 -60 27 -15 63 17
121 106 65 99 84 162 78 260 -9 131 -78 285 -131 291 -16 2 -27 -2 -27 -8z"/>
<path d="M9140 10630 c-11 -11 -21 -35 -21 -52 -2 -58 2 -162 7 -189 5 -26 3
-27 -52 -31 -47 -4 -62 -10 -81 -32 -29 -34 -31 -86 -3 -111 28 -26 101 -27
137 -4 15 11 35 19 44 19 33 0 36 22 18 130 -21 122 -23 172 -9 220 10 36 5
70 -11 70 -5 0 -18 -9 -29 -20z m-20 -340 c21 -13 4 -27 -42 -35 -33 -6 -38
-5 -38 12 0 11 3 23 7 26 9 10 56 8 73 -3z"/>
<path d="M7490 10593 c-59 -22 -93 -94 -96 -207 -3 -102 15 -163 67 -235 25
-33 37 -41 58 -39 35 4 38 30 7 61 -13 13 -35 44 -47 68 -45 85 -26 289 26
289 16 0 31 43 20 59 -7 12 -12 12 -35 4z"/>
<path d="M7730 10549 c-8 -14 -10 -49 -5 -110 l7 -89 -23 9 c-63 23 -149 -28
-149 -89 0 -61 35 -98 110 -115 32 -8 88 16 129 54 l31 29 -21 54 c-16 38 -24
84 -28 163 -5 92 -9 110 -23 113 -9 2 -22 -6 -28 -19z m3 -271 c25 -30 21 -42
-18 -57 -28 -10 -40 -10 -62 1 -38 18 -44 64 -11 77 31 12 69 3 91 -21z"/>
<path d="M7913 10416 c-50 -42 -70 -153 -35 -196 13 -16 32 -23 79 -27 59 -5
63 -4 92 25 39 38 40 79 6 138 -23 39 -78 84 -103 84 -6 0 -24 -11 -39 -24z
m87 -73 c29 -37 23 -74 -14 -92 -53 -25 -79 14 -56 84 14 43 40 46 70 8z"/>
<path d="M8159 10399 c-49 -18 -69 -106 -38 -164 29 -55 56 -75 106 -75 34 0
45 5 61 28 44 61 40 121 -11 177 -35 38 -77 50 -118 34z m76 -74 c29 -28 32
-61 9 -93 -34 -50 -74 -14 -74 67 0 59 24 68 65 26z"/>
<path d="M8377 10399 c-33 -19 -48 -64 -41 -126 9 -74 19 -95 47 -91 21 3 22
8 20 78 -2 71 -2 74 12 48 24 -43 48 -51 80 -26 32 25 40 19 63 -53 15 -46 21
-54 45 -57 24 -3 27 0 26 25 0 15 -19 64 -42 108 -46 88 -72 104 -101 63 l-16
-23 -26 33 c-27 34 -38 38 -67 21z"/>
<path d="M8749 10381 c-15 -11 -34 -36 -43 -55 -13 -27 -20 -33 -37 -29 -37
10 -54 -41 -18 -52 11 -4 28 -25 38 -49 25 -57 45 -71 102 -70 53 1 119 37
119 66 0 27 -15 29 -65 8 -66 -28 -86 -25 -99 17 -6 18 -1 23 31 33 64 21 103
49 103 75 0 59 -82 95 -131 56z"/>
<path d="M9657 12879 c-8 -30 -18 -90 -22 -134 -3 -44 -10 -102 -15 -130 -11
-60 -1 -119 22 -123 14 -3 17 11 21 90 3 51 12 127 21 168 20 92 20 140 2 165
-12 17 -15 14 -29 -36z"/>
<path d="M9540 12692 c0 -10 6 -27 14 -37 12 -16 16 -17 30 -6 20 17 21 47 0
55 -28 11 -44 6 -44 -12z"/>
<path d="M9707 12634 c-14 -15 -6 -43 14 -49 25 -8 42 6 37 31 -3 19 -38 31
-51 18z"/>
<path d="M8276 12603 c-2 -10 -4 -81 -3 -158 2 -137 2 -140 25 -143 21 -3 22
0 24 60 3 96 -3 210 -13 236 -10 26 -26 29 -33 5z"/>
<path d="M8818 12239 c-19 -11 -25 -63 -9 -73 17 -11 41 6 47 31 8 32 -14 56
-38 42z"/>
<path d="M8466 12159 c-12 -20 -18 -52 -19 -97 -1 -75 5 -92 34 -92 17 0 19 7
19 64 0 36 5 77 10 92 12 30 5 64 -14 64 -6 0 -20 -14 -30 -31z"/>
<path d="M9667 12142 c-22 -25 -21 -39 4 -52 30 -17 52 -5 44 22 -13 41 -29
51 -48 30z"/>
<path d="M8230 12094 c-17 -43 -32 -133 -25 -144 8 -12 32 -13 39 -1 3 5 10
40 15 77 8 56 8 72 -4 83 -12 13 -16 11 -25 -15z"/>
<path d="M8017 12073 c-9 -16 -38 -225 -33 -239 4 -11 44 -21 47 -11 6 28 25
236 21 245 -5 13 -28 16 -35 5z"/>
<path d="M13311 11674 c-25 -8 -47 -18 -50 -22 -16 -24 -49 -32 -78 -17 -15 8
-37 15 -47 15 -33 0 -83 -42 -116 -97 -26 -42 -32 -61 -28 -91 5 -35 3 -38
-36 -57 -103 -50 -116 -185 -28 -294 16 -19 29 -24 70 -25 37 -1 57 -7 74 -23
34 -32 79 -53 115 -53 40 0 110 63 119 107 6 29 7 30 56 25 68 -6 140 32 180
96 25 41 21 112 -9 145 -15 17 -19 32 -16 64 10 90 -45 201 -114 229 -38 16
-35 16 -92 -2z m106 -82 c26 -27 53 -98 53 -142 0 -17 -7 -20 -47 -20 -60 0
-82 -13 -67 -37 7 -11 28 -20 58 -23 93 -11 113 -82 37 -134 -39 -27 -71 -34
-71 -14 0 6 -3 8 -7 5 -3 -4 -12 -2 -20 5 -7 6 -16 8 -20 5 -3 -3 -17 0 -32 7
-58 31 -119 -11 -80 -55 31 -36 35 -68 11 -92 -20 -19 -23 -19 -39 -5 -10 9
-27 18 -38 19 -11 2 -27 18 -35 34 -20 40 -52 75 -67 75 -7 0 -19 -12 -26 -26
l-14 -27 -28 37 c-22 29 -26 42 -21 70 6 31 46 75 96 106 7 4 10 17 7 29 -3
12 -1 23 3 26 4 3 11 27 15 55 7 51 36 100 60 100 23 0 83 -72 90 -107 6 -33
25 -42 53 -25 10 7 10 14 -3 38 -8 16 -15 36 -15 44 0 15 85 79 107 80 6 0 24
-13 40 -28z"/>
<path d="M13701 11401 c-40 -38 -64 -94 -56 -132 5 -20 0 -39 -14 -63 -43 -69
-13 -170 57 -188 18 -5 32 -15 32 -23 0 -17 56 -55 79 -55 21 0 71 50 71 71 0
11 19 29 45 45 48 27 75 67 75 107 0 35 -56 116 -91 131 -21 9 -37 28 -54 64
-36 77 -90 93 -144 43z m99 -71 l20 -40 -45 0 c-45 0 -45 0 -45 34 0 32 9 43
37 45 7 1 22 -17 33 -39z m100 -120 c54 -55 29 -93 -52 -82 -43 5 -60 -17 -40
-49 16 -25 15 -52 0 -47 -7 3 -14 20 -16 39 -2 18 -9 37 -15 41 -18 12 -62 9
-74 -3 -21 -21 -27 37 -9 76 17 36 30 42 101 48 22 2 48 4 58 5 10 1 31 -12
47 -28z"/>
<path d="M13230 10942 c-58 -26 -92 -73 -105 -145 -4 -20 -11 -37 -15 -37 -16
0 -71 -53 -86 -83 -21 -39 -11 -107 21 -145 23 -27 23 -28 4 -51 -61 -75 29
-191 138 -178 25 2 57 14 73 25 l27 21 34 -25 c52 -37 141 -42 199 -12 25 13
53 37 64 57 17 30 18 39 8 77 l-12 44 41 37 c89 80 95 189 16 271 -61 64 -178
105 -210 73 -5 -5 -19 1 -35 16 -50 47 -125 72 -162 55z m95 -76 c28 -15 68
-67 85 -111 11 -28 31 -32 49 -11 9 11 8 23 -4 52 -8 20 -14 39 -12 41 9 8 91
-29 127 -58 102 -82 79 -191 -40 -194 -47 -1 -90 -24 -90 -47 0 -5 23 -31 52
-57 49 -45 52 -50 41 -73 -15 -33 -88 -60 -120 -45 -21 9 -43 53 -43 85 0 26
-44 111 -60 115 -9 2 -24 -1 -34 -8 -13 -10 -14 -18 -6 -39 25 -66 6 -112 -57
-145 -29 -15 -33 -14 -33 5 0 9 -14 21 -31 27 -33 13 -35 29 -8 93 11 28 10
34 -9 59 -37 47 -22 155 23 155 7 0 27 12 44 27 25 22 31 35 31 67 0 65 39 91
95 62z"/>
<path d="M12655 10921 c-22 -10 -51 -30 -64 -44 -19 -21 -28 -24 -46 -17 -19
7 -32 2 -68 -25 -56 -43 -76 -74 -84 -130 -5 -36 -10 -46 -29 -51 -30 -8 -59
-80 -51 -129 10 -61 56 -105 111 -105 12 0 35 -13 51 -30 63 -66 123 -59 206
24 26 25 55 46 64 46 35 0 93 42 110 80 15 33 15 40 1 74 -8 20 -22 39 -29 42
-12 4 -13 14 -6 45 6 24 6 63 0 99 -21 131 -68 165 -166 121z m94 -65 c15 -18
28 -156 14 -156 -5 0 -18 7 -29 15 -25 19 -50 19 -58 -1 -10 -27 -7 -31 33
-47 21 -9 41 -24 44 -36 2 -11 15 -21 28 -23 31 -4 35 -28 10 -59 l-19 -24
-51 28 c-86 46 -132 33 -87 -26 15 -19 26 -40 26 -48 0 -17 -56 -69 -74 -69
-23 1 -49 51 -43 85 3 20 1 38 -6 43 -20 17 -64 2 -76 -25 l-12 -25 -29 43
c-16 24 -30 52 -30 61 0 26 18 31 30 8 13 -24 43 -20 74 10 14 14 16 22 7 38
-18 34 -13 96 10 126 25 32 61 34 108 5 36 -22 53 -14 44 20 -5 19 39 71 60
71 8 0 20 -6 26 -14z"/>
<path d="M6822 10740 c-33 -14 -35 -27 -14 -121 23 -100 28 -224 11 -265 -28
-66 -14 -144 26 -144 6 0 51 43 100 96 73 78 97 97 132 107 66 17 64 35 -14
114 -82 84 -153 168 -153 181 0 10 -44 42 -57 41 -4 0 -18 -4 -31 -9z"/>
<path d="M10954 10722 c-71 -25 -114 -65 -152 -142 -50 -103 -43 -207 27 -352
36 -77 99 -127 160 -129 20 0 73 -2 119 -3 74 -3 86 -1 110 20 15 12 50 41 78
62 64 50 79 96 71 212 -4 63 -11 90 -38 140 -52 99 -97 142 -183 178 -86 36
-120 39 -192 14z m198 -80 c51 -25 70 -42 99 -85 69 -106 87 -253 38 -306 -24
-26 -39 -27 -33 -3 3 10 -10 34 -32 61 -35 40 -37 47 -35 101 5 113 -61 190
-165 192 -50 1 -70 -13 -76 -51 -5 -37 23 -49 64 -27 32 17 36 17 66 2 43 -22
64 -57 59 -98 -3 -30 -7 -33 -33 -30 -81 7 -95 5 -121 -15 -64 -47 -7 -130 81
-117 22 4 53 14 68 22 27 16 29 15 63 -18 41 -40 45 -67 10 -80 -41 -15 -140
-1 -177 26 -39 29 -44 30 -51 3 -4 -16 2 -25 29 -41 74 -44 21 -38 -68 8 -34
18 -84 111 -99 185 -18 91 -8 150 35 215 66 100 154 117 278 56z m-67 -302 c7
-11 -39 -25 -55 -15 -5 3 -8 11 -5 16 8 12 52 12 60 -1z"/>
<path d="M4028 10714 c-58 -21 -115 -63 -138 -101 -17 -29 -20 -52 -21 -150 0
-63 5 -146 12 -185 11 -61 18 -76 55 -113 46 -48 91 -63 137 -46 16 6 52 11
81 11 42 0 61 6 92 29 81 59 119 111 143 196 13 47 -1 138 -30 196 -17 34
-104 119 -122 119 -4 0 -26 14 -49 30 -46 34 -95 38 -160 14z m197 -119 c78
-59 89 -78 101 -167 6 -40 2 -58 -16 -96 -26 -55 -85 -109 -136 -127 -45 -15
-109 -3 -141 27 -22 20 -24 21 -42 4 -19 -17 -20 -17 -29 1 -23 43 -32 123
-27 223 6 116 10 124 100 170 69 35 106 28 190 -35z"/>
<path d="M4100 10545 c-8 -9 -10 -25 -5 -42 4 -16 8 -68 10 -117 2 -79 5 -92
25 -108 12 -10 26 -15 31 -12 5 3 9 60 9 127 0 95 -4 128 -16 145 -18 26 -36
28 -54 7z"/>
<path d="M6423 10538 c-25 -12 -30 -33 -11 -44 6 -4 47 -9 92 -11 45 -2 97 -5
116 -6 29 -2 36 2 38 21 3 18 -1 22 -25 22 -15 0 -41 7 -57 15 -33 17 -120 19
-153 3z"/>
<path d="M10033 10539 c-15 -15 -17 -45 -3 -54 5 -3 73 -8 150 -10 113 -4 148
-8 184 -25 25 -11 51 -20 58 -20 7 -1 31 -12 53 -25 22 -14 47 -28 55 -31 55
-25 250 -211 324 -309 67 -90 94 -136 150 -263 65 -144 136 -367 166 -517 7
-33 32 -121 57 -195 24 -74 56 -179 70 -234 25 -100 68 -222 83 -242 6 -6 -11
-20 -50 -40 -59 -29 -85 -60 -74 -89 4 -8 16 -15 29 -15 30 0 296 -138 311
-161 7 -12 61 -12 68 0 3 5 1 33 -5 63 -9 43 -7 80 9 195 21 143 20 183 -4
183 -26 0 -67 -21 -107 -55 -22 -19 -47 -35 -54 -35 -8 0 -25 -7 -39 -17 -22
-14 -27 -14 -39 -2 -16 17 -45 102 -80 235 -14 54 -41 144 -59 199 -39 115
-46 141 -82 290 -79 325 -231 665 -352 787 -15 14 -74 74 -132 133 -117 118
-221 189 -342 232 -59 20 -98 26 -203 30 -99 4 -133 2 -142 -8z"/>
<path d="M6130 10503 c-111 -11 -120 -13 -120 -38 0 -31 13 -34 90 -22 36 5
80 9 98 8 33 -1 39 9 26 43 -6 16 -17 17 -94 9z"/>
<path d="M5690 10428 c-19 -5 -53 -13 -75 -17 -44 -8 -85 -27 -85 -39 0 -5 6
-17 14 -27 12 -17 16 -18 37 -4 26 17 89 35 157 45 48 7 57 29 16 44 -14 6
-26 10 -27 9 -1 -1 -18 -5 -37 -11z"/>
<path d="M5212 10330 c-49 -22 -63 -47 -38 -65 13 -10 23 -9 53 6 21 11 54 19
75 19 39 0 45 9 32 44 -9 22 -69 20 -122 -4z"/>
<path d="M12572 10309 c-43 -13 -74 -62 -66 -106 5 -27 1 -36 -21 -55 -17 -15
-28 -37 -32 -64 -5 -36 -1 -44 30 -77 29 -32 56 -43 89 -38 3 0 24 -17 46 -39
34 -35 46 -40 84 -40 24 0 54 7 67 16 30 22 53 77 45 110 -5 18 -1 32 14 47
73 81 35 174 -87 211 -26 8 -62 21 -79 30 -35 18 -43 18 -90 5z m88 -74 c16
-17 33 -24 55 -23 19 1 45 -8 64 -21 52 -37 36 -96 -25 -89 -36 4 -44 -26 -15
-53 22 -21 29 -83 10 -94 -14 -9 -77 22 -89 45 -5 10 -10 29 -10 43 0 20 -5
24 -31 24 -21 0 -35 -8 -46 -24 -18 -28 -33 -16 -33 27 0 22 5 26 28 25 24 0
27 4 30 34 2 18 -1 38 -7 44 -14 14 -14 28 -1 61 12 33 40 33 70 1z"/>
<path d="M4798 10225 c-41 -23 -50 -75 -13 -75 7 0 26 6 42 14 15 8 50 22 76
31 26 10 46 22 44 29 -6 17 -117 18 -149 1z"/>
<path d="M12210 10180 c-14 -4 -39 -8 -57 -9 -51 -2 -132 -47 -139 -79 -3 -15
-8 -33 -10 -41 -2 -7 3 -38 13 -68 13 -42 24 -58 48 -70 16 -8 38 -22 47 -30
13 -12 33 -14 74 -11 47 4 62 10 82 33 16 19 22 36 19 54 -4 17 2 34 19 54 19
22 24 40 24 82 0 50 -2 55 -34 74 -35 22 -46 24 -86 11z m54 -66 c22 -21 21
-54 -2 -54 -16 0 -62 -49 -62 -65 0 -4 9 -14 21 -24 19 -15 20 -18 5 -30 -14
-12 -21 -12 -42 0 -23 12 -26 18 -20 55 7 57 -17 68 -56 25 -15 -17 -30 -31
-33 -31 -13 0 -3 80 11 95 15 15 18 15 34 0 24 -22 63 -15 75 12 8 20 20 27
47 32 4 0 14 -6 22 -15z"/>
<path d="M4510 10045 c-25 -6 -65 -24 -88 -39 -36 -22 -43 -32 -40 -54 3 -31
44 -44 54 -18 6 16 58 46 78 46 6 0 24 10 39 23 24 19 26 24 15 38 -11 14 -19
15 -58 4z"/>
<path d="M4174 9800 c-58 -44 -74 -62 -80 -87 -11 -42 38 -74 51 -34 3 11 22
32 43 47 55 42 81 74 75 90 -9 23 -47 16 -89 -16z"/>
<path d="M12179 9797 c-31 -16 -50 -35 -64 -64 -14 -28 -32 -46 -56 -57 -65
-29 -97 -145 -59 -216 21 -40 74 -70 123 -70 29 0 59 -8 79 -20 46 -28 85 -24
138 14 34 25 46 40 48 63 2 20 12 37 27 47 53 35 72 123 41 183 -21 41 -43 53
-98 53 -37 0 -45 4 -60 29 -9 16 -30 37 -46 45 -28 14 -33 14 -73 -7z m76 -72
c14 -13 25 -33 25 -43 0 -26 45 -66 66 -58 10 4 14 13 11 26 -6 25 2 30 30 19
23 -8 39 -56 29 -87 -4 -10 -18 -25 -32 -33 -25 -13 -28 -12 -49 16 -20 24
-26 27 -39 16 -20 -17 -20 -35 0 -52 8 -7 22 -26 31 -43 15 -29 15 -31 -11
-53 -31 -26 -46 -29 -46 -10 0 8 -9 22 -20 32 -14 13 -20 29 -18 48 3 33 -30
65 -39 38 -3 -7 -14 -21 -24 -29 -11 -9 -19 -27 -19 -39 0 -16 -6 -23 -18 -23
-44 0 -68 65 -53 140 5 25 9 35 10 24 1 -12 8 -27 16 -34 22 -18 69 14 62 42
-6 21 41 127 56 128 4 0 19 -11 32 -25z"/>
<path d="M9650 9555 c-10 -12 -10 -21 -2 -38 7 -12 25 -58 41 -102 16 -44 53
-127 83 -185 49 -95 118 -269 118 -296 0 -13 -65 -34 -103 -34 -14 0 -28 -4
-31 -9 -9 -14 5 -71 15 -65 5 3 32 -15 59 -39 63 -57 138 -107 160 -107 11 0
28 24 49 73 18 39 39 86 47 102 8 17 15 48 17 70 2 39 1 40 -28 37 -16 -2 -49
-10 -73 -19 -23 -9 -44 -14 -46 -12 -2 2 -13 36 -25 74 -23 72 -77 209 -92
235 -29 48 -101 204 -121 260 -24 67 -44 84 -68 55z"/>
<path d="M3935 9500 c-27 -10 -117 -104 -128 -132 -12 -32 0 -68 22 -68 11 0
24 14 36 39 9 21 37 58 61 82 55 54 60 99 9 79z"/>
<path d="M9038 9377 c-75 -44 -93 -61 -127 -121 -73 -128 -32 -372 74 -444 52
-36 92 -41 186 -25 110 19 173 53 243 132 66 75 79 113 64 185 -32 152 -183
292 -327 302 -49 4 -63 0 -113 -29z m206 -65 c106 -57 176 -154 176 -244 0
-42 -5 -52 -50 -102 -28 -30 -72 -67 -98 -81 -40 -23 -57 -26 -123 -24 -42 1
-80 -1 -86 -4 -15 -10 -68 22 -86 52 -43 73 -54 198 -26 288 12 38 87 108 144
134 48 21 81 17 149 -19z"/>
<path d="M9110 9279 c-27 -11 -70 -48 -70 -60 0 -4 7 -15 16 -24 15 -14 19
-14 48 5 26 16 43 19 87 14 62 -7 69 -10 69 -29 0 -24 -57 -47 -108 -44 -43 3
-46 2 -54 -26 -4 -16 -5 -31 -2 -34 2 -3 30 -9 62 -13 82 -12 84 -12 115 -32
36 -25 24 -39 -59 -66 -57 -19 -66 -20 -85 -6 -19 13 -23 13 -42 -4 -27 -26
-10 -46 46 -58 70 -14 201 35 228 85 18 33 -1 68 -52 94 -42 21 -42 21 -21 38
30 23 44 66 31 94 -23 51 -147 90 -209 66z"/>
<path d="M12125 9265 c-23 -8 -63 -13 -97 -10 -50 3 -60 0 -73 -17 -9 -13 -11
-27 -6 -37 10 -18 7 -179 -4 -291 -4 -41 -7 -79 -7 -85 6 -68 14 -194 16 -250
2 -38 7 -125 11 -192 7 -106 -4 -337 -20 -448 l-5 -30 -144 3 c-128 2 -146 0
-166 -16 l-24 -19 18 -59 c48 -160 50 -179 37 -349 -7 -88 -14 -176 -16 -195
-12 -113 -11 -319 2 -430 17 -153 21 -487 9 -840 -5 -146 -8 -274 -7 -285 4
-37 1 -190 -4 -225 -9 -60 -1 -63 137 -61 67 2 143 5 168 7 25 3 351 5 725 5
539 0 693 3 745 14 119 25 140 26 519 30 207 2 383 6 391 9 18 6 491 12 670 7
157 -3 150 -4 150 15 0 9 7 22 15 28 12 9 13 18 4 46 -14 47 -28 163 -34 285
-3 55 -7 125 -10 155 -3 30 -8 168 -10 305 -6 244 -10 329 -20 410 -17 133
-32 943 -22 1170 l2 40 -50 5 c-27 3 -56 9 -63 14 -16 9 -106 21 -142 17 -14
-1 -149 -1 -300 0 -740 7 -1626 -6 -1752 -26 -206 -31 -242 -35 -249 -28 -4 4
-4 49 0 98 3 50 3 128 0 175 -4 47 -10 141 -13 210 -4 69 -11 181 -16 250 -5
69 -8 230 -7 357 2 189 0 234 -11 238 -32 12 -122 17 -134 7 -8 -6 -31 -7 -63
-2 -71 12 -104 11 -150 -5z m252 -65 l63 0 -5 -212 c-3 -116 -1 -268 5 -337
14 -181 25 -396 24 -471 -1 -151 -8 -251 -17 -257 -5 -3 -77 -9 -160 -13 -143
-8 -152 -7 -165 11 -7 10 -19 19 -26 19 -22 0 -86 67 -86 90 0 21 4 19 45 -19
60 -55 115 -77 115 -46 0 8 -15 25 -34 37 -18 12 -44 37 -57 56 -12 19 -34 38
-47 43 -16 6 -22 14 -18 25 3 9 6 28 7 42 0 26 1 26 12 7 17 -28 88 -95 102
-95 6 0 16 5 22 11 9 9 -4 28 -54 75 -36 35 -70 64 -74 64 -5 0 -9 9 -9 20 0
27 9 25 45 -10 36 -35 95 -52 95 -27 0 9 -17 29 -37 44 -52 40 -103 94 -103
110 0 18 3 17 57 -17 54 -34 96 -40 91 -12 -2 9 -18 24 -35 33 -18 9 -49 29
-70 44 -21 16 -39 29 -40 30 -2 1 -6 17 -10 36 l-6 34 48 -43 c47 -42 87 -53
101 -30 4 7 0 16 -10 22 -10 6 -32 21 -50 33 -17 13 -43 28 -58 34 -25 10 -28
16 -28 56 l0 45 52 -47 c48 -43 77 -53 85 -30 2 6 -31 39 -72 75 -41 36 -75
68 -75 72 0 17 23 7 65 -27 41 -34 75 -39 75 -11 0 14 -108 96 -126 96 -6 0
-14 9 -17 19 -6 23 3 71 13 71 4 0 28 -23 54 -50 36 -38 52 -49 67 -45 10 4
19 11 19 16 0 6 -34 43 -76 82 -70 67 -75 74 -68 104 l6 32 38 -25 c38 -26 70
-29 77 -8 2 6 -24 30 -57 53 -33 23 -60 46 -60 50 0 21 16 18 56 -11 40 -29
74 -33 74 -8 0 5 -27 29 -60 53 -33 23 -60 48 -60 55 0 16 1 16 51 -13 53 -30
59 -31 59 -6 0 11 -13 28 -30 38 -16 9 -30 21 -30 25 0 11 60 16 154 12 49 -2
118 -4 153 -4z m2018 -1281 c95 -6 241 -7 333 -3 166 7 277 -5 284 -30 2 -6 2
-65 0 -131 l-3 -120 -47 3 c-34 2 -56 -3 -79 -17 -60 -37 -29 -89 33 -56 16 8
41 15 57 15 19 0 27 5 28 18 1 9 5 -8 10 -38 12 -79 4 -110 -29 -110 -15 0
-34 -5 -42 -10 -23 -15 1 -44 39 -48 l31 -3 0 -75 c0 -41 -2 -74 -5 -74 -3 0
-14 6 -26 13 -17 10 -22 9 -34 -7 -18 -24 -13 -31 34 -56 38 -19 39 -20 43
-87 2 -37 2 -78 0 -90 l-4 -22 -18 21 c-21 26 -50 18 -50 -14 0 -24 46 -78 67
-78 8 0 13 -11 13 -27 0 -16 4 -86 10 -158 9 -131 33 -875 30 -971 0 -28 4
-71 9 -95 5 -24 12 -59 15 -76 l6 -33 -83 1 c-45 1 -92 4 -105 8 l-23 6 -4
265 c-2 146 -9 308 -14 360 -6 52 -11 127 -11 167 0 107 7 104 -228 99 -109
-2 -260 -11 -337 -20 -152 -18 -484 -20 -567 -4 -81 16 -87 8 -82 -119 2 -60
8 -142 15 -183 12 -80 13 -385 2 -460 -4 -25 -7 -63 -7 -85 l-1 -40 -50 -3
c-27 -1 -93 -10 -145 -19 -81 -14 -199 -17 -780 -19 -377 -1 -748 -7 -825 -12
-77 -5 -144 -7 -148 -4 -5 2 -6 81 -3 176 25 711 25 966 0 1131 -17 115 -15
277 6 524 25 278 23 343 -17 459 -8 24 -12 46 -10 49 3 2 90 3 193 2 328 -4
493 -1 569 12 322 54 411 60 845 64 426 5 506 7 518 19 8 8 360 -1 587 -15z
m395 -1536 c15 -17 31 -259 35 -528 l4 -281 -197 -2 c-108 -2 -206 -4 -217 -4
-11 0 -31 0 -45 1 l-25 1 0 282 c0 156 -4 337 -9 403 l-8 121 39 3 c21 1 63 6
93 10 69 10 320 6 330 -6z m-757 -25 l227 -3 2 -30 c0 -16 2 -41 3 -55 13
-134 24 -490 19 -586 l-7 -121 -226 -7 c-124 -4 -250 -4 -279 0 l-54 7 6 56
c14 132 18 416 6 510 -9 74 -15 208 -11 240 1 2 20 1 44 -3 23 -3 144 -7 270
-8z"/>
<path d="M14459 7714 c-37 -75 -40 -87 -27 -100 24 -24 42 -8 79 70 32 66 34
75 21 95 -8 11 -18 21 -23 21 -5 0 -28 -39 -50 -86z"/>
<path d="M12078 7774 c-4 -4 -55 -7 -113 -8 -86 -2 -109 -6 -123 -20 -16 -16
-16 -18 2 -31 14 -11 19 -27 19 -70 0 -31 -6 -62 -12 -68 -15 -15 -14 -32 4
-47 11 -9 14 -32 13 -86 -1 -74 10 -104 38 -104 19 0 25 32 22 115 l-3 70 90
3 c100 3 118 11 91 41 -15 17 -34 21 -100 23 l-81 3 -9 47 c-5 27 -7 50 -5 52
2 3 36 8 74 11 172 16 180 18 180 45 0 22 -5 25 -40 28 -23 2 -44 0 -47 -4z"/>
<path d="M13976 7772 c-6 -10 1 -149 8 -161 3 -5 15 -11 26 -14 23 -6 23 -3
20 93 -1 36 -7 71 -12 78 -12 14 -34 16 -42 4z"/>
<path d="M14203 7758 c-5 -7 -16 -46 -23 -86 -10 -56 -11 -75 -1 -85 19 -19
43 4 57 58 18 69 17 112 -2 119 -21 8 -20 8 -31 -6z"/>
<path d="M14754 7758 c-45 -64 -60 -130 -31 -136 24 -5 47 16 47 43 0 12 9 34
20 48 11 14 17 32 14 41 -7 19 -38 21 -50 4z"/>
<path d="M13777 7732 c-16 -17 -15 -22 2 -72 20 -57 51 -84 73 -62 9 9 9 17 0
34 -6 13 -20 44 -31 71 -11 26 -22 47 -24 47 -2 0 -11 -8 -20 -18z"/>
<path d="M13592 7678 c-7 -7 -12 -16 -12 -20 0 -13 121 -88 131 -82 19 11 8
44 -19 58 -15 8 -36 23 -46 35 -22 24 -37 26 -54 9z"/>
<path d="M12794 7651 c-31 -14 -72 -68 -79 -105 -9 -45 13 -86 64 -119 82 -54
119 -24 47 38 -42 36 -47 45 -44 75 2 28 9 38 33 48 53 23 60 29 60 48 0 21
-45 30 -81 15z"/>
<path d="M13110 7638 c-1 -7 -14 -28 -29 -46 -33 -39 -60 -37 -87 4 -18 26
-55 32 -72 11 -9 -10 0 -25 38 -65 l50 -52 -20 -36 c-36 -64 -54 -88 -91 -130
-21 -23 -44 -56 -53 -72 -15 -30 -15 -32 5 -43 12 -6 25 -7 29 -2 56 61 170
218 170 236 0 3 14 26 30 50 17 25 30 49 30 55 0 5 14 25 30 42 32 34 31 43
-7 55 -16 4 -23 2 -23 -7z"/>
<path d="M12468 7593 c-46 -50 -69 -175 -36 -196 28 -18 46 10 52 78 3 41 10
63 22 72 25 18 30 17 53 -13 16 -20 21 -41 21 -84 0 -59 12 -76 44 -64 23 9
26 29 14 96 -9 52 -18 70 -48 101 -47 46 -85 49 -122 10z"/>
<path d="M12221 7560 c-61 -40 -108 -85 -116 -110 -4 -13 0 -31 9 -45 14 -21
25 -25 62 -25 46 0 75 19 102 65 11 19 13 19 42 -12 17 -18 40 -33 51 -33 31
0 34 28 7 58 -14 15 -31 42 -38 60 -12 30 -54 73 -69 71 -3 0 -26 -13 -50 -29z
m19 -75 c0 -14 -37 -45 -54 -45 -18 0 -18 2 4 25 21 22 50 34 50 20z"/>
<path d="M14576 7543 c-6 -6 -395 -17 -526 -15 -52 1 -99 2 -105 2 -103 1
-230 -9 -233 -18 -2 -7 -9 -12 -16 -12 -8 0 -20 -19 -29 -42 -13 -36 -15 -78
-11 -243 9 -331 14 -398 32 -419 15 -16 26 -18 97 -11 44 4 95 7 113 6 18 -1
43 4 55 11 14 7 91 12 212 14 104 1 215 8 245 14 30 6 136 12 235 12 212 1
241 8 231 61 -3 18 -7 89 -7 159 0 69 -5 143 -9 165 -5 21 -10 92 -12 157 l-3
120 -30 17 c-29 16 -226 34 -239 22z m118 -84 c6 -5 1 -12 -10 -16 -36 -15
-133 -83 -147 -104 -20 -28 -112 -88 -163 -105 -40 -13 -45 -13 -115 17 -41
17 -121 47 -179 66 -58 19 -125 46 -150 59 -45 23 -100 67 -100 80 0 3 75 5
168 4 198 -3 571 5 579 13 7 8 106 -4 117 -14z m111 -395 l7 -132 -185 0
c-101 1 -189 -2 -194 -5 -5 -3 -40 -6 -78 -8 -39 -1 -78 -6 -87 -11 -10 -5
-57 -9 -105 -9 -49 0 -126 -4 -173 -9 -47 -5 -118 -12 -158 -15 l-73 -6 2 183
c1 101 -1 208 -5 238 -5 37 -3 68 6 93 l14 38 40 -34 c55 -48 165 -102 288
-142 57 -19 119 -43 137 -54 19 -11 53 -24 76 -30 38 -10 47 -9 100 16 31 16
64 33 73 40 22 18 101 76 118 88 8 6 24 18 36 27 11 10 48 37 81 62 l60 44 6
-121 c4 -67 10 -181 14 -253z"/>
<path d="M13479 7484 c-11 -14 -10 -19 11 -35 41 -33 78 -49 94 -43 27 10 17
28 -31 59 -61 39 -58 38 -74 19z"/>
<path d="M13438 7299 c-10 -5 -18 -16 -18 -23 0 -18 99 -78 123 -74 29 4 33
26 5 37 -13 5 -36 23 -52 40 -33 34 -34 35 -58 20z"/>
<path d="M12922 7218 c-14 -14 -16 -88 -3 -155 5 -26 12 -65 16 -85 l6 -38
-45 0 c-56 0 -76 -19 -76 -72 0 -32 7 -47 34 -74 47 -47 111 -46 171 1 16 13
18 19 7 35 -6 11 -12 35 -12 53 0 19 -6 47 -14 63 -14 27 -32 144 -38 239 -3
42 -23 56 -46 33z m48 -354 c50 -20 41 -35 -24 -37 -32 -1 -50 3 -56 13 -27
42 9 52 80 24z"/>
<path d="M12180 7085 c-9 -11 -11 -33 -6 -73 3 -31 10 -105 16 -164 10 -117
20 -148 51 -148 24 0 36 27 21 50 -6 10 -16 82 -22 160 -14 180 -26 215 -60
175z"/>
<path d="M11946 7055 c-21 -7 -58 -32 -81 -55 -40 -39 -42 -44 -44 -105 -4
-114 48 -175 148 -175 55 0 160 32 172 52 14 23 -8 32 -49 20 -22 -7 -67 -12
-100 -12 -49 0 -66 4 -88 23 -23 20 -28 32 -28 75 -1 45 3 56 31 84 30 30 39
33 107 36 81 4 95 15 70 51 -18 25 -77 28 -138 6z"/>
<path d="M13440 7020 c-19 -11 -5 -39 25 -50 32 -12 85 -13 104 -1 22 14 5 41
-26 41 -16 0 -42 4 -59 9 -17 5 -37 5 -44 1z"/>
<path d="M12383 6960 c-29 -12 -53 -59 -60 -118 -5 -44 -3 -48 24 -64 49 -28
114 0 133 57 13 41 5 76 -26 110 -25 27 -36 29 -71 15z m41 -107 c-12 -34 -44
-44 -44 -14 0 11 5 32 12 46 10 23 13 24 27 11 11 -12 13 -22 5 -43z"/>
<path d="M12540 6955 c-8 -9 -16 -43 -18 -76 -4 -47 -1 -64 13 -79 30 -33 69
-25 108 21 l35 41 12 -24 c18 -33 51 -68 66 -68 23 0 26 39 6 65 -10 13 -25
44 -32 69 -23 85 -51 83 -96 -6 -35 -69 -57 -65 -52 9 2 46 0 58 -13 61 -9 1
-22 -4 -29 -13z"/>
<path d="M14865 6829 c-19 -31 44 -139 81 -139 28 0 33 30 9 50 -8 7 -24 32
-35 56 -18 42 -41 56 -55 33z"/>
<path d="M13485 6772 c-9 -10 -5 -22 15 -42 15 -15 28 -19 48 -15 15 4 37 8
50 11 24 5 27 11 13 32 -8 13 -115 25 -126 14z"/>
<path d="M14437 6703 c-9 -28 -11 -52 -6 -57 5 -6 9 -22 9 -36 0 -15 9 -35 21
-46 17 -16 22 -16 30 -4 5 8 7 29 3 45 -3 17 -7 55 -8 85 -1 43 -5 55 -18 58
-13 2 -21 -9 -31 -45z"/>
<path d="M14652 6720 c-9 -15 -9 -32 -1 -69 12 -59 33 -82 54 -60 13 12 13 24
3 74 -16 75 -32 92 -56 55z"/>
<path d="M14244 6715 c-9 -22 6 -109 19 -117 7 -4 20 -8 31 -8 17 0 18 5 11
58 -4 31 -12 63 -17 70 -14 17 -37 15 -44 -3z"/>
<path d="M13875 6712 c-5 -4 -10 -36 -10 -72 l0 -65 30 0 c28 0 29 2 32 50 2
28 1 60 -2 73 -5 22 -30 29 -50 14z"/>
<path d="M14041 6711 c-7 -4 -18 -37 -26 -72 -12 -59 -12 -65 5 -83 30 -31 46
-14 54 54 4 34 9 67 12 75 7 17 -27 36 -45 26z"/>
<path d="M13720 6684 c-8 -8 -27 -21 -44 -29 -17 -8 -40 -21 -51 -30 -20 -16
-20 -16 4 -36 12 -10 28 -16 35 -11 123 79 126 83 116 102 -13 24 -43 26 -60
4z"/>
<path d="M12962 6592 c-21 -14 16 -388 41 -404 36 -23 57 17 39 74 -14 43 -25
153 -26 253 -1 72 -3 80 -21 83 -11 1 -26 -2 -33 -6z"/>
<path d="M12016 6513 c-10 -3 -54 -10 -99 -16 -87 -13 -117 -34 -86 -59 12
-10 20 -48 30 -151 10 -106 17 -141 30 -153 21 -19 39 -11 39 16 0 19 1 19 40
-1 43 -23 150 -42 163 -29 17 15 2 45 -23 48 -14 2 -54 13 -90 25 -36 11 -73
20 -82 18 -14 -2 -18 5 -18 33 l0 36 84 0 c90 0 146 14 146 36 0 18 -27 24
-140 27 l-95 2 -3 43 c-3 47 0 50 63 56 22 2 61 7 88 11 43 7 47 10 47 36 0
27 -3 29 -37 28 -21 -1 -46 -3 -57 -6z"/>
<path d="M12792 6508 c-18 -18 -15 -36 7 -48 32 -17 50 -12 57 16 10 38 -35
61 -64 32z"/>
<path d="M12605 6387 c-53 -21 -74 -37 -89 -65 -45 -87 -1 -162 85 -143 22 5
49 17 59 26 17 15 19 14 38 -9 20 -26 65 -35 77 -16 4 6 13 5 24 -2 10 -6 26
-8 35 -5 15 6 16 17 11 89 -7 90 -16 109 -43 92 -13 -9 -16 -23 -14 -62 5 -65
-5 -97 -23 -82 -20 17 -56 98 -64 144 -6 37 -10 41 -36 43 -17 1 -43 -3 -60
-10z m35 -91 c0 -30 -24 -56 -51 -56 -33 0 -35 30 -5 57 35 30 56 30 56 -1z"/>
<path d="M12205 6351 c-22 -13 -29 -25 -28 -42 13 -148 25 -185 58 -173 16 7
20 31 16 112 -3 60 10 67 33 18 25 -52 76 -59 76 -11 0 27 17 42 32 27 5 -5
15 -31 22 -57 7 -28 21 -54 33 -62 59 -39 44 101 -18 172 -37 42 -52 43 -84 9
l-25 -27 -21 27 c-24 30 -51 32 -94 7z"/>
<path d="M12075 5980 c-11 -5 -30 -9 -42 -9 -13 -1 -45 -15 -72 -31 -37 -23
-53 -41 -62 -68 -48 -144 59 -214 251 -164 36 10 70 21 76 25 8 4 14 -3 19
-21 11 -45 34 -62 81 -62 35 0 49 6 78 34 63 59 43 136 -39 152 -46 8 -87 -9
-109 -47 -14 -23 -21 -28 -31 -19 -9 8 -25 8 -52 1 -84 -22 -149 -24 -187 -6
-32 15 -36 22 -36 54 0 26 7 44 23 58 21 19 113 53 144 53 10 0 13 9 11 27 -3
30 -21 37 -53 23z m300 -221 c9 -14 -24 -49 -46 -49 -24 0 -32 16 -19 40 11
21 54 28 65 9z"/>
<path d="M12517 5734 c-13 -14 -7 -62 9 -68 27 -10 56 12 52 42 -2 20 -9 28
-28 30 -14 2 -29 0 -33 -4z"/>
<path d="M14616 6330 c-22 -4 -76 -8 -119 -9 -44 -1 -84 -4 -89 -7 -11 -7 -10
-101 1 -108 12 -8 20 -124 11 -179 -9 -58 8 -87 50 -87 16 0 31 4 34 8 3 5 60
12 127 15 68 3 127 11 135 18 18 15 18 46 -2 100 -8 24 -17 86 -19 137 -2 53
-9 99 -15 107 -13 16 -50 17 -114 5z m68 -127 c4 -32 11 -80 16 -107 7 -35 7
-53 0 -60 -12 -12 -194 -15 -205 -5 -3 4 -7 50 -7 104 -2 120 2 125 113 125
l78 0 5 -57z"/>
<path d="M14536 6205 c-20 -15 -20 -15 0 -42 30 -40 68 -65 94 -61 22 3 22 4
-9 42 -17 21 -31 44 -31 51 0 7 -7 16 -16 19 -19 7 -15 8 -38 -9z"/>
<path d="M14428 5832 c-43 -26 -33 -63 24 -93 16 -9 26 -7 47 9 32 24 37 46
17 77 -19 29 -48 31 -88 7z"/>
<path d="M13885 6301 c-33 -3 -66 -10 -72 -14 -16 -10 -17 -61 -2 -88 9 -18
15 -183 7 -238 -4 -33 28 -40 106 -25 65 14 203 10 255 -7 38 -13 54 0 46 36
-15 65 -26 169 -24 225 3 100 -1 106 -73 114 -69 7 -154 6 -243 -3z m239 -77
c11 -11 16 -35 16 -80 l0 -65 -27 19 c-16 11 -50 43 -76 71 -52 55 -71 62 -87
32 -8 -17 -1 -28 53 -75 34 -31 81 -65 105 -76 74 -35 56 -45 -85 -44 l-128 0
-3 54 -3 53 23 -16 c59 -41 100 -58 114 -46 18 15 13 22 -49 64 -80 54 -87 60
-89 86 -3 22 1 24 57 30 119 11 163 10 179 -7z"/>
<path d="M14144 5849 c-15 -17 -15 -21 0 -54 23 -48 50 -61 82 -40 34 22 39
40 21 78 -13 28 -22 33 -51 34 -22 1 -41 -6 -52 -18z"/>
<path d="M3657 9159 c-21 -13 -77 -124 -77 -154 0 -12 8 -29 19 -39 21 -19 33
-10 46 34 4 14 21 51 38 82 25 48 28 60 17 72 -15 19 -19 19 -43 5z"/>
<path d="M3464 8743 c-3 -10 -12 -34 -19 -53 -28 -70 -35 -111 -22 -131 24
-39 46 -20 66 56 6 28 19 63 27 79 23 47 19 66 -16 66 -20 0 -32 -6 -36 -17z"/>
<path d="M9713 8724 c-13 -14 -23 -33 -23 -42 0 -10 -9 -30 -20 -47 -28 -43
-26 -81 7 -102 15 -10 37 -16 49 -15 13 2 32 -7 48 -23 22 -22 26 -34 24 -78
-2 -62 7 -111 30 -155 17 -32 17 -33 -8 -53 -15 -11 -35 -18 -49 -15 -30 5
-119 -33 -143 -61 -16 -18 -17 -21 -1 -43 9 -13 17 -34 18 -47 2 -47 68 -68
123 -39 15 8 49 40 76 72 43 49 51 54 57 38 11 -28 10 -92 -1 -99 -14 -8 -12
-26 4 -48 12 -15 22 -16 97 -7 185 22 184 22 181 50 -2 14 -6 58 -9 99 l-5 75
40 -35 c30 -26 38 -40 35 -59 -16 -106 108 -151 138 -50 7 23 21 42 35 49 20
9 23 15 17 43 -3 18 -10 41 -15 50 -12 25 -61 48 -101 48 -21 0 -41 7 -51 19
-17 18 -17 22 -2 43 18 26 21 103 6 144 -9 22 -8 29 5 37 9 5 20 20 25 33 7
19 17 24 43 24 43 0 85 20 93 44 7 21 -23 66 -53 80 -11 5 -27 22 -36 37 -33
58 -117 40 -117 -25 0 -17 4 -37 9 -44 5 -9 0 -23 -15 -39 l-24 -26 -40 28
c-35 25 -49 28 -110 27 -41 -1 -83 -8 -100 -17 -16 -8 -35 -15 -43 -15 -24 0
-50 38 -49 72 1 37 -10 54 -47 72 -53 27 -75 27 -98 0z m85 -89 c2 -40 8 -54
29 -71 25 -21 25 -44 -1 -44 -23 0 -39 29 -39 70 0 28 -6 45 -23 61 -27 25
-22 42 9 37 19 -3 22 -10 25 -53z m349 -110 c37 -26 77 -105 77 -155 1 -40 -3
-50 -34 -78 -19 -17 -42 -32 -50 -32 -25 0 -40 -21 -40 -54 -1 -28 -2 -29 -12
-11 -6 11 -12 21 -13 23 -6 8 -35 -12 -35 -25 0 -8 -4 -11 -10 -8 -5 3 -10 16
-10 29 0 22 -17 46 -33 46 -15 0 -5 -203 12 -222 12 -16 12 -18 -2 -18 -10 0
-20 1 -23 3 -5 2 -14 94 -18 182 -1 33 -5 41 -23 43 -53 8 -99 148 -59 178 12
8 16 20 12 32 -5 15 1 26 22 41 16 11 32 18 35 14 4 -3 12 -1 19 5 13 10 54
17 128 20 20 1 45 -5 57 -13z m122 -354 c-11 -3 -59 37 -59 51 0 5 16 -4 35
-19 19 -15 30 -30 24 -32z m101 -10 c0 -5 3 -17 7 -26 5 -15 1 -16 -25 -11
-23 6 -33 3 -41 -11 -9 -16 -10 -15 -11 7 0 16 8 29 23 36 28 15 47 16 47 5z
m-571 -47 c6 -6 -67 -74 -78 -74 -22 0 -19 18 4 28 17 8 25 20 25 37 0 23 3
25 23 19 12 -3 24 -8 26 -10z"/>
<path d="M9928 8481 c-40 -39 -9 -105 43 -94 26 5 28 3 23 -13 -4 -11 -11 -25
-17 -31 -14 -19 18 -63 46 -63 27 0 86 34 93 55 7 17 -56 85 -79 85 -11 0 -14
5 -11 15 4 8 -1 26 -10 40 -20 30 -62 33 -88 6z"/>
<path d="M10080 8485 c-17 -21 -3 -71 27 -95 30 -23 43 -25 66 -7 17 11 17 15
2 57 -9 24 -21 48 -28 52 -20 12 -54 9 -67 -7z"/>
<path d="M3351 8391 c-6 -4 -13 -22 -16 -39 -2 -18 -9 -48 -15 -68 -7 -19 -9
-46 -6 -59 7 -29 44 -53 50 -33 5 21 39 172 40 181 1 13 -39 26 -53 18z"/>
<path d="M3276 8004 c-3 -9 -6 -53 -6 -99 0 -62 4 -86 16 -95 12 -11 18 -11
29 1 18 18 29 178 13 196 -15 18 -45 16 -52 -3z"/>
<path d="M422 7663 c-52 -23 -53 -25 -37 -77 11 -37 13 -83 9 -194 -3 -80 -8
-150 -11 -155 -10 -16 -3 -376 8 -447 11 -73 27 -480 34 -855 5 -289 -10 -259
135 -281 129 -20 527 -10 930 23 89 7 301 9 570 4 63 -2 180 0 260 3 80 3 226
8 325 11 186 6 401 21 445 31 14 3 108 10 210 14 101 5 196 12 210 15 14 3
162 0 330 -7 168 -6 388 -13 490 -14 102 -1 191 -3 198 -5 20 -6 37 25 27 47
-13 29 -13 46 -19 599 -3 286 -7 619 -8 740 -1 121 1 257 5 301 l8 81 -38 20
c-36 19 -62 24 -178 38 -22 3 -62 9 -90 14 -27 5 -129 12 -225 15 -328 11
-435 18 -486 31 -28 7 -57 9 -65 5 -8 -4 -61 -4 -119 1 -218 19 -329 26 -475
30 -217 5 -774 5 -1195 -1 -228 -3 -461 0 -620 8 -372 18 -596 20 -628 5z
m588 -78 c41 -3 158 -10 260 -16 102 -6 259 -9 350 -5 91 3 319 9 507 12 l342
7 11 -27 c5 -15 10 -51 10 -79 0 -29 6 -92 14 -142 15 -97 32 -270 45 -455 15
-219 -2 -919 -26 -1060 l-8 -45 -75 -7 c-41 -4 -185 -7 -320 -6 -443 4 -514 3
-610 -5 -381 -31 -904 -45 -977 -26 l-42 11 -1 239 c0 131 -2 244 -5 251 -2 7
-6 119 -9 248 -3 133 -12 277 -20 330 -17 105 -15 321 4 463 6 46 9 133 7 193
-2 60 -2 115 1 123 4 12 43 13 236 7 127 -4 265 -9 306 -11z m1835 -10 c77 -4
143 -9 146 -11 8 -4 27 -182 34 -314 3 -52 7 -133 10 -179 3 -46 7 -98 9 -115
18 -109 31 -1122 15 -1148 -4 -6 -54 -15 -116 -19 -270 -21 -349 -25 -355 -19
-4 3 -3 21 2 39 5 19 12 115 16 215 3 99 8 185 11 190 9 14 4 506 -7 681 -6
88 -17 221 -26 295 -9 74 -20 169 -24 210 -5 41 -9 98 -9 127 l-1 52 63 3 c34
2 69 3 77 2 8 -2 78 -6 155 -9z m354 -20 c4 -2 63 -6 131 -10 69 -4 128 -9
133 -12 4 -3 7 -37 6 -76 -3 -70 19 -456 26 -467 2 -3 6 -82 10 -175 3 -94 10
-237 15 -320 5 -82 8 -163 6 -180 -2 -16 -4 -128 -4 -247 -2 -217 -2 -218 -26
-233 -18 -12 -64 -17 -188 -22 l-165 -6 -7 44 c-3 24 -6 213 -6 419 1 206 -4
443 -9 525 -6 83 -15 236 -21 340 -6 105 -15 234 -20 289 -16 158 -20 147 51
141 34 -3 65 -7 68 -10z m456 -29 c334 -19 325 -18 326 -35 0 -9 2 -108 5
-221 2 -113 9 -266 14 -340 6 -74 14 -180 18 -235 12 -172 8 -816 -6 -848
l-12 -27 -202 5 c-111 3 -204 8 -207 10 -2 3 -6 155 -7 338 -2 182 -5 373 -8
422 -2 50 -7 158 -11 240 -3 83 -10 182 -15 220 -11 85 -22 470 -13 478 3 4 9
5 12 3 3 -2 51 -6 106 -10z m640 -35 c33 -6 83 -11 112 -11 28 0 54 -3 56 -7
3 -5 8 -156 12 -338 4 -181 7 -339 8 -350 0 -11 0 -56 -1 -99 -2 -75 -3 -78
-19 -63 -10 8 -36 17 -58 19 -33 2 -40 6 -38 23 6 48 6 125 0 131 -3 4 -18 4
-32 0 -24 -6 -25 -10 -25 -76 0 -63 -2 -70 -19 -70 -30 0 -33 14 -22 89 12 78
8 101 -20 101 -27 0 -36 -25 -44 -122 -7 -84 -7 -87 18 -112 15 -14 38 -26 52
-26 25 0 25 -1 25 -81 0 -87 10 -119 39 -119 25 0 30 16 22 70 -4 25 -5 64 -3
87 l4 43 37 -7 c20 -3 45 -6 56 -7 28 -1 32 -41 22 -206 -4 -74 -6 -226 -5
-337 3 -173 1 -204 -12 -209 -27 -11 -243 -12 -307 -2 l-61 10 1 327 c0 337
-6 513 -24 736 -6 72 -13 241 -14 377 l-4 247 92 -4 c51 -2 119 -9 152 -14z"/>
<path d="M732 7420 c-52 -8 -65 -24 -47 -59 30 -61 54 -255 35 -290 -6 -13 -9
-33 -6 -45 14 -57 376 -78 376 -22 0 27 -27 34 -148 38 -68 3 -128 10 -134 16
-16 16 -16 111 0 117 8 3 63 5 122 5 99 0 110 2 120 20 8 15 6 24 -8 38 -16
16 -33 18 -136 16 -81 -1 -119 2 -121 10 -2 6 -6 28 -10 48 l-6 37 134 -1 c73
-1 138 2 145 6 21 13 13 41 -17 59 -23 14 -52 17 -143 16 -62 -1 -133 -5 -156
-9z"/>
<path d="M2134 7396 c-3 -8 -1 -30 4 -48 6 -18 13 -55 16 -81 5 -43 4 -48 -12
-43 -9 3 -30 8 -47 11 -16 4 -47 14 -68 22 -35 15 -39 15 -54 0 -9 -8 -13 -23
-10 -31 8 -22 111 -66 153 -66 18 0 36 -5 40 -12 4 -7 9 -44 11 -82 3 -82 18
-132 40 -140 33 -13 40 10 35 110 -6 111 -3 115 71 110 39 -3 52 0 68 17 29
31 7 46 -73 48 -38 1 -72 7 -77 13 -4 6 -11 32 -14 58 -12 88 -65 161 -83 114z"/>
<path d="M1540 7233 c-76 -29 -101 -54 -127 -130 -10 -28 -8 -37 16 -75 36
-56 83 -96 125 -103 67 -13 156 31 156 76 0 29 -20 33 -51 10 -36 -27 -98 -28
-130 -2 l-24 19 45 12 c27 7 59 26 83 50 32 32 37 43 31 67 -13 54 -77 94
-124 76z m57 -78 c4 -14 -49 -45 -76 -45 -27 0 -27 10 0 39 21 23 69 26 76 6z"/>
<path d="M1799 7190 c-31 -16 -39 -27 -49 -70 -23 -97 12 -187 55 -140 14 15
16 29 10 70 -12 87 34 110 99 51 39 -35 57 -79 43 -102 -14 -23 16 -59 48 -59
31 0 36 18 21 87 -14 71 -60 134 -117 163 -47 24 -64 24 -110 0z"/>
<path d="M1153 7185 c-3 -9 -2 -39 1 -67 11 -83 51 -148 91 -148 35 0 60 28
104 114 31 62 38 83 30 98 -7 13 -19 18 -37 16 -27 -3 -35 -15 -77 -113 l-17
-40 -14 34 c-8 18 -14 46 -14 61 0 47 -52 82 -67 45z"/>
<path d="M803 6588 c-10 -12 0 -300 11 -353 3 -11 5 -25 5 -32 1 -6 22 -19 47
-29 59 -22 305 -27 312 -6 2 8 15 3 38 -18 28 -24 44 -30 80 -30 47 0 100 21
122 49 35 44 -14 158 -88 207 -34 22 -45 25 -72 18 -46 -13 -73 -55 -73 -114
0 -43 -3 -50 -24 -55 -30 -8 -245 5 -261 15 -20 12 -31 97 -29 222 1 64 -2
121 -6 127 -9 15 -50 14 -62 -1z m507 -268 c10 -5 28 -26 40 -45 20 -33 21
-37 7 -59 -15 -22 -70 -42 -87 -31 -16 10 -22 102 -8 124 14 24 21 25 48 11z"/>
<path d="M1607 6370 c-49 -27 -109 -93 -125 -141 -12 -34 -11 -43 6 -82 17
-38 26 -46 58 -54 55 -13 95 13 136 88 18 32 36 59 40 59 13 0 79 -147 85
-190 11 -84 -48 -142 -145 -142 -36 0 -50 5 -61 21 -14 21 -36 26 -65 15 -24
-9 -20 -21 25 -63 93 -87 240 -56 301 63 32 62 19 126 -51 265 -88 177 -123
204 -204 161z m42 -110 c-14 -48 -59 -100 -84 -100 -15 0 -17 6 -12 36 3 20 7
37 9 38 2 1 23 19 46 40 24 20 46 35 49 33 2 -3 -1 -24 -8 -47z"/>
<path d="M2795 6811 c-6 -11 3 -206 11 -233 5 -15 51 -34 61 -24 3 3 5 15 4
28 -1 30 -19 232 -20 236 -3 7 -51 1 -56 -7z"/>
<path d="M3239 6820 l-24 -20 24 -20 c17 -15 32 -19 52 -15 36 8 69 -23 69
-66 0 -29 -2 -31 -26 -25 -64 17 -131 -43 -105 -92 15 -27 43 -35 99 -27 47 6
48 5 80 -34 28 -35 36 -40 53 -31 26 15 24 24 -15 76 -31 41 -33 47 -25 85 21
90 -42 189 -119 189 -25 0 -48 -7 -63 -20z"/>
<path d="M3722 6834 c-39 -16 -46 -28 -30 -54 11 -18 19 -20 50 -16 39 6 88
-7 88 -23 0 -5 -20 -13 -45 -16 -61 -10 -75 -28 -45 -60 13 -14 33 -25 45 -25
22 0 55 -28 55 -47 0 -6 -18 -18 -40 -27 -32 -13 -44 -14 -59 -4 -15 9 -23 9
-35 -1 -27 -23 -19 -47 22 -65 47 -21 104 -10 152 30 37 32 42 85 9 120 -20
21 -20 24 -5 46 20 29 21 82 0 102 -40 41 -116 60 -162 40z"/>
<path d="M8165 7623 c-22 -2 -83 -8 -135 -13 -117 -13 -585 -13 -814 -1 -118
6 -174 6 -186 -1 -24 -15 -33 -241 -35 -848 -1 -278 -7 -511 -14 -580 -6 -63
-14 -147 -18 -187 -4 -58 -9 -72 -24 -76 -26 -7 -24 -32 3 -51 16 -12 47 -16
113 -16 49 0 120 -5 156 -10 36 -5 106 -12 155 -16 49 -3 109 -8 134 -10 70
-6 522 -5 650 0 63 3 162 8 220 11 93 5 353 6 525 2 142 -3 693 14 722 22 17
5 33 7 35 5 2 -2 35 -6 74 -9 38 -2 94 -7 124 -10 38 -4 66 -2 91 9 35 15 36
17 41 78 3 35 2 88 -3 118 -4 30 -8 78 -8 106 -1 28 -14 118 -30 200 -28 140
-30 169 -35 474 -4 179 -9 357 -13 395 -7 71 -7 90 -4 203 1 46 4 62 14 59 6
-2 24 2 40 10 34 17 37 53 5 53 -13 0 -38 9 -57 21 l-35 21 -17 -24 -18 -23
-33 20 c-29 17 -58 20 -218 25 -102 3 -191 9 -197 13 -7 5 -18 5 -25 1 -21
-13 -169 -15 -233 -3 -68 12 -128 15 -565 24 -173 3 -322 7 -330 9 -8 1 -33 1
-55 -1z m390 -77 c354 -10 468 -15 584 -27 63 -6 129 -8 147 -5 59 12 59 10
60 -373 1 -321 8 -473 44 -911 11 -135 15 -318 8 -325 -4 -5 -414 -17 -508
-15 -239 3 -477 2 -635 -4 -471 -18 -568 -16 -1035 23 l-205 16 1 45 c0 25 8
122 17 215 19 196 20 212 18 644 -2 353 7 663 20 698 8 22 12 23 106 17 54 -3
229 -9 390 -12 230 -6 319 -4 420 8 129 15 204 16 568 6z m1227 -52 l47 -15
-1 -77 c-1 -42 2 -140 6 -217 12 -221 14 -290 16 -445 2 -146 13 -314 25 -360
32 -121 64 -436 49 -475 -8 -19 2 -19 -174 5 -41 6 -119 7 -172 4 -96 -7 -98
-7 -106 17 -5 13 -10 58 -10 99 -1 41 -3 90 -6 110 -3 19 -10 109 -16 200 -6
91 -12 185 -15 210 -23 216 -36 926 -18 944 3 3 12 1 19 -5 10 -8 19 -7 33 3
30 21 261 22 323 2z"/>
<path d="M7433 7455 c-125 -59 -183 -133 -183 -234 0 -40 6 -57 33 -93 39 -51
78 -67 162 -67 71 1 223 46 239 71 19 31 -7 44 -49 24 -48 -23 -201 -41 -250
-30 -50 12 -75 47 -77 106 0 38 5 53 33 87 36 46 153 111 198 111 35 0 63 21
52 38 -18 29 -83 24 -158 -13z"/>
<path d="M7671 7466 c-9 -11 -8 -31 8 -93 11 -44 23 -122 25 -173 3 -62 9 -96
18 -101 23 -15 33 -4 38 42 8 58 24 85 54 91 34 7 62 -21 71 -69 10 -56 23
-75 48 -71 19 3 22 9 20 39 -3 47 -37 112 -75 144 -32 27 -95 34 -115 14 -8
-8 -14 5 -22 47 -23 123 -44 162 -70 130z"/>
<path d="M8625 7371 c6 -57 4 -69 -9 -74 -20 -8 -21 -35 -1 -57 13 -15 14 -28
4 -90 -9 -62 -9 -75 4 -88 20 -20 47 -8 47 20 0 13 5 30 10 38 8 12 14 10 38
-13 52 -50 192 -89 192 -54 0 8 -33 30 -72 50 -76 37 -121 76 -132 114 -6 19
-2 24 21 30 15 3 42 7 60 7 23 0 33 5 37 20 9 35 -11 46 -74 39 -64 -6 -60 -9
-75 67 -9 41 -22 60 -42 60 -13 0 -14 -12 -8 -69z"/>
<path d="M8065 7326 c-13 -13 -29 -43 -35 -67 -6 -24 -15 -52 -20 -61 -15 -27
-13 -33 38 -85 80 -85 108 -95 197 -71 40 11 45 15 45 40 0 33 2 32 -42 14
-38 -16 -65 -13 -115 12 -39 19 -42 32 -10 32 12 0 38 12 56 28 29 24 33 33
34 80 2 47 -1 57 -26 78 -38 32 -90 32 -122 0z m93 -38 c33 -33 -9 -94 -60
-86 -19 2 -23 9 -21 32 4 51 52 83 81 54z"/>
<path d="M8393 7283 c-74 -70 -66 -174 17 -215 43 -22 123 -24 140 -3 20 24 4
45 -33 45 -59 0 -104 25 -112 62 -7 30 -4 36 40 75 30 28 45 49 41 58 -10 26
-51 16 -93 -22z"/>
<path d="M8952 7258 c-18 -18 -15 -34 11 -51 20 -13 71 -23 87 -17 3 1 26 3
52 5 26 2 57 9 69 15 19 11 20 13 6 28 -11 11 -37 16 -84 17 -37 1 -82 5 -98
9 -19 4 -35 2 -43 -6z"/>
<path d="M8356 6767 c-15 -11 -15 -15 2 -52 11 -22 22 -59 26 -83 6 -42 6 -43
-16 -37 -25 8 -24 8 -55 6 -16 -1 -23 -7 -23 -21 0 -19 28 -37 83 -54 16 -5
17 -15 11 -94 -6 -79 -5 -90 11 -95 9 -4 21 -5 25 -2 11 7 30 97 30 145 l0 40
49 0 c56 0 62 5 50 39 -6 15 -14 21 -24 17 -8 -3 -28 -3 -44 0 -26 5 -31 13
-42 58 -14 59 -43 131 -57 140 -5 3 -17 0 -26 -7z"/>
<path d="M7333 6730 c-48 -21 -54 -41 -21 -64 19 -13 24 -14 30 -2 12 21 73
28 119 14 45 -13 109 -66 109 -89 0 -19 -78 -69 -106 -69 -13 0 -26 -4 -29
-10 -15 -25 -35 -9 -35 28 0 56 -10 82 -31 82 -11 0 -20 -9 -23 -22 -12 -61
-14 -119 -5 -149 5 -19 12 -86 15 -149 5 -124 17 -156 49 -130 12 10 15 25 11
64 -3 28 -8 88 -11 132 l-6 82 48 7 c90 13 173 76 173 131 0 64 -64 125 -156
149 -73 19 -80 19 -131 -5z"/>
<path d="M7869 6724 c-16 -20 -1 -48 30 -52 26 -4 37 19 21 47 -13 25 -33 27
-51 5z"/>
<path d="M8672 6615 c-65 -28 -53 -70 42 -145 81 -64 87 -77 39 -97 -35 -14
-65 -13 -120 3 -19 5 -23 2 -23 -15 0 -45 104 -65 180 -35 75 30 67 91 -19
161 -33 27 -60 53 -60 60 -1 7 17 18 39 24 44 13 65 32 55 49 -9 15 -94 12
-133 -5z"/>
<path d="M7679 6607 c-48 -36 -73 -122 -49 -168 17 -30 63 -49 104 -42 41 6
96 60 96 94 0 30 -25 73 -60 103 -34 28 -65 33 -91 13z m79 -70 c20 -15 14
-44 -14 -66 -49 -38 -86 13 -49 66 15 22 34 22 63 0z"/>
<path d="M7889 6604 c-8 -10 -13 -48 -13 -112 -1 -97 -1 -97 24 -97 25 0 25 2
32 100 4 55 5 106 3 113 -6 17 -30 15 -46 -4z"/>
<path d="M8104 6579 c-32 -16 -45 -54 -52 -142 l-5 -79 29 4 c28 3 29 5 32 68
3 68 13 90 42 90 29 0 51 -35 57 -94 6 -62 24 -86 48 -66 34 28 5 149 -47 197
-29 27 -75 36 -104 22z"/>
<path d="M9599 6793 c-1 -10 -1 -68 0 -130 1 -124 11 -166 39 -161 15 3 17 17
14 143 -3 115 -6 142 -20 153 -22 17 -32 15 -33 -5z"/>
<path d="M10003 7535 c-27 -19 -28 -28 -7 -49 14 -14 18 -14 45 0 22 11 29 21
27 37 -4 27 -35 33 -65 12z"/>
<path d="M10100 7535 c-10 -13 -10 -19 5 -35 23 -25 37 -25 59 -1 16 17 16 20
1 35 -21 20 -49 21 -65 1z"/>
<path d="M10213 7533 c-7 -2 -13 -13 -13 -23 0 -26 21 -39 48 -29 15 6 22 17
22 34 0 20 -5 25 -22 24 -13 0 -29 -3 -35 -6z"/>
<path d="M10339 7521 c-20 -16 -21 -21 -10 -35 19 -22 48 -20 61 5 9 15 8 24
-1 35 -15 18 -22 18 -50 -5z"/>
<path d="M10414 7485 c-12 -48 37 -70 51 -24 7 22 -10 49 -31 49 -8 0 -16 -11
-20 -25z"/>
<path d="M10434 7366 c-19 -15 -19 -15 3 -37 29 -29 51 -20 45 20 -5 34 -18
39 -48 17z"/>
<path d="M10441 7266 c-6 -7 -8 -21 -5 -30 7 -19 38 -38 48 -29 10 11 7 48 -6
61 -15 15 -23 15 -37 -2z"/>
<path d="M10455 7149 c-9 -26 16 -55 40 -45 25 9 16 60 -12 64 -15 2 -23 -3
-28 -19z"/>
<path d="M10480 7005 c-15 -18 -7 -31 25 -37 31 -6 40 5 25 32 -13 24 -33 26
-50 5z"/>
<path d="M10487 6933 c-13 -12 -7 -41 9 -47 18 -7 54 -8 54 -1 0 2 -5 16 -12
30 -11 24 -37 33 -51 18z"/>
<path d="M10083 6808 c-27 -9 -33 -16 -33 -38 0 -32 22 -42 73 -33 27 4 34 0
50 -25 9 -17 17 -39 17 -50 0 -18 -5 -20 -34 -15 -29 4 -39 1 -60 -22 -31 -33
-33 -68 -6 -95 26 -26 64 -25 107 1 32 20 34 20 61 3 15 -9 31 -23 35 -31 12
-20 45 -16 52 7 5 15 -1 27 -21 43 -66 51 -78 65 -80 93 -4 61 -28 116 -63
145 -38 31 -48 33 -98 17z m87 -227 c0 -6 -5 -13 -10 -16 -15 -9 -43 3 -35 15
8 13 45 13 45 1z"/>
<path d="M10507 6793 c-14 -14 -6 -42 14 -48 27 -9 41 12 26 37 -12 18 -28 23
-40 11z"/>
<path d="M10519 6658 c-9 -18 -8 -24 6 -34 9 -7 23 -10 31 -7 19 7 18 49 -2
57 -22 8 -22 8 -35 -16z"/>
<path d="M10530 6535 c-23 -28 16 -57 49 -36 10 7 11 13 2 30 -14 25 -33 27
-51 6z"/>
<path d="M10535 6369 c-8 -25 8 -39 37 -31 27 7 20 46 -9 50 -15 2 -23 -4 -28
-19z"/>
<path d="M10531 6231 c-17 -11 -7 -41 12 -41 19 0 40 26 32 40 -8 12 -25 13
-44 1z"/>
<path d="M10531 6102 c-7 -13 -6 -23 1 -30 26 -26 54 -7 43 28 -8 25 -31 26
-44 2z"/>
<path d="M10536 5974 c-11 -28 -7 -34 24 -34 34 0 38 10 12 33 -23 21 -28 21
-36 1z"/>
<path d="M10140 5874 c-18 -21 9 -49 39 -39 23 7 27 25 9 43 -16 16 -33 15
-48 -4z"/>
<path d="M10028 5873 c-21 -5 -24 -39 -4 -46 18 -7 56 20 56 39 0 14 -18 16
-52 7z"/>
<path d="M10240 5865 c-18 -21 -5 -47 22 -43 26 3 37 36 16 49 -18 12 -24 11
-38 -6z"/>
<path d="M10355 5850 c-9 -10 -15 -26 -12 -35 10 -24 42 -18 57 11 12 22 12
27 0 34 -21 13 -25 13 -45 -10z"/>
<path d="M10426 5855 c-9 -24 1 -35 30 -35 21 0 25 4 22 23 -4 27 -42 36 -52
12z"/>
<path d="M10539 5854 c-11 -14 -10 -18 6 -30 16 -12 21 -12 33 0 17 17 9 46
-11 46 -8 0 -21 -7 -28 -16z"/>
<path d="M9642 5748 c-9 -12 -17 -63 -25 -158 -2 -19 3 -26 20 -28 27 -4 33
14 36 117 2 74 -8 96 -31 69z"/>
<path d="M3313 5614 c-8 -4 -9 -14 -3 -34 5 -16 11 -59 15 -95 6 -49 12 -68
26 -76 31 -16 38 23 23 121 -7 47 -13 86 -13 88 -1 4 -35 1 -48 -4z"/>
<path d="M10182 5556 c-16 -19 -46 -58 -65 -88 -20 -30 -64 -83 -97 -118 -33
-36 -60 -68 -60 -71 0 -3 9 -14 19 -23 17 -15 31 -17 104 -11 53 5 87 3 91 -3
11 -19 -22 -100 -70 -173 -58 -86 -148 -180 -233 -243 -34 -24 -84 -64 -113
-88 -61 -52 -267 -260 -282 -287 -6 -10 -30 -45 -52 -78 -88 -124 -136 -217
-149 -283 -13 -67 -12 -277 2 -359 9 -48 34 -74 54 -54 10 10 9 25 -1 70 -19
83 -15 302 6 366 22 66 32 84 142 250 69 106 296 328 421 413 63 43 179 158
220 219 87 127 101 151 101 177 0 15 5 39 10 53 10 26 12 27 63 19 28 -4 66
-8 84 -8 18 -1 35 -5 39 -9 14 -14 43 -7 54 12 16 31 12 47 -14 59 -13 6 -34
28 -46 50 -12 22 -33 45 -46 51 -13 6 -36 36 -53 71 -39 78 -69 120 -86 120
-7 0 -26 -15 -43 -34z"/>
<path d="M9556 5465 c-12 -13 -31 -43 -41 -66 -19 -40 -19 -42 0 -55 10 -8 21
-14 24 -14 5 0 51 90 79 153 9 18 -41 4 -62 -18z"/>
<path d="M13263 5283 c-7 -15 -13 -38 -13 -52 -1 -43 -44 -134 -93 -199 -48
-62 -58 -96 -32 -105 8 -4 45 0 82 8 93 20 116 19 109 -2 -3 -10 -6 -126 -6
-258 -2 -344 -16 -523 -47 -605 -30 -77 -90 -209 -137 -300 -18 -36 -44 -92
-56 -125 -13 -33 -38 -82 -55 -110 -81 -127 -106 -165 -115 -170 -5 -3 -35
-41 -67 -83 -77 -104 -144 -173 -233 -240 -249 -189 -410 -281 -665 -383 -71
-28 -159 -65 -195 -81 -74 -35 -276 -88 -332 -88 -21 0 -38 -4 -38 -10 0 -5
-10 -10 -22 -10 -13 0 -54 -7 -93 -14 -43 -9 -110 -14 -175 -12 -58 2 -150 -1
-205 -6 -55 -6 -109 -10 -120 -10 -11 0 -45 -4 -75 -8 -30 -5 -149 -12 -265
-15 -115 -4 -212 -7 -215 -8 -3 -1 -36 2 -73 6 -113 13 -158 -5 -128 -51 19
-30 341 -24 821 14 25 2 115 4 200 5 153 1 237 11 395 49 44 10 105 24 135 30
70 15 120 32 120 41 0 4 17 10 37 14 20 3 62 19 92 35 31 15 67 31 81 35 32
10 94 37 190 82 78 37 351 190 360 202 3 4 47 35 99 70 159 105 266 217 461
477 49 66 140 226 140 248 0 4 32 74 71 155 123 253 140 301 149 421 5 58 11
233 14 390 3 157 10 299 14 315 8 27 12 30 53 30 24 0 67 4 94 8 97 15 97 15
93 45 -2 21 -9 28 -30 30 -18 2 -54 32 -115 95 -161 168 -189 186 -210 140z"/>
<path d="M3324 5235 c-7 -18 24 -162 36 -170 4 -3 16 -2 25 1 14 6 16 15 11
58 -18 130 -16 126 -42 126 -14 0 -27 -7 -30 -15z"/>
<path d="M9370 5224 c-28 -18 -100 -106 -100 -123 0 -6 11 -11 25 -11 18 0 33
11 53 39 15 21 39 47 54 57 55 37 24 73 -32 38z"/>
<path d="M8275 5107 c-47 -17 -75 -36 -132 -92 -84 -83 -98 -120 -95 -240 1
-64 7 -91 28 -133 29 -58 104 -138 144 -154 37 -15 206 -19 275 -7 111 20 146
58 180 196 14 62 15 85 6 154 -12 89 -42 165 -85 216 -21 25 -47 39 -110 58
-97 30 -131 30 -211 2z m188 -63 c72 -20 101 -43 128 -102 59 -129 43 -310
-35 -382 -25 -22 -36 -24 -149 -28 -110 -4 -128 -2 -164 16 -86 44 -136 136
-137 253 -1 71 1 80 34 128 75 111 189 151 323 115z"/>
<path d="M8254 4998 c-4 -7 -8 -42 -9 -78 -1 -36 -7 -82 -14 -103 -12 -36 -11
-40 10 -63 20 -21 31 -25 69 -22 l45 3 0 -54 c0 -57 17 -80 50 -68 14 6 15 14
10 47 -4 22 -4 53 0 70 6 29 8 30 65 30 51 0 60 3 65 21 4 12 2 26 -3 31 -10
10 -79 13 -113 6 -11 -2 -15 13 -17 62 -3 69 -13 90 -44 90 -18 0 -19 -7 -16
-82 l3 -81 -29 -8 c-17 -5 -32 -6 -34 -4 -3 2 0 36 6 75 7 46 7 82 1 105 -10
35 -31 46 -45 23z"/>
<path d="M9113 4973 c-12 -2 -36 -20 -52 -39 -17 -19 -36 -34 -42 -34 -7 0 -9
-9 -5 -22 3 -13 6 -26 6 -30 0 -18 27 -6 50 23 14 17 42 42 63 56 53 33 42 58
-20 46z"/>
<path d="M3364 4832 c-19 -11 -19 -54 -1 -89 9 -18 17 -43 17 -56 0 -17 7 -26
22 -31 34 -8 42 7 29 56 -7 24 -15 57 -18 73 -9 47 -25 63 -49 47z"/>
<path d="M10000 4756 c-102 -30 -148 -82 -185 -209 -22 -76 -22 -219 0 -274
21 -53 74 -90 152 -106 33 -7 68 -19 77 -26 24 -20 125 -26 172 -11 59 20 141
96 175 162 28 56 29 58 19 157 -11 113 -26 156 -74 216 -64 77 -228 122 -336
91z m221 -85 c50 -23 105 -78 114 -114 11 -47 23 -168 18 -190 -14 -64 -72
-134 -128 -156 -5 -2 -17 -9 -25 -16 -8 -7 -30 -15 -47 -17 -30 -4 -32 -3 -27
19 8 29 1 31 -109 37 -138 7 -160 31 -160 176 0 117 24 194 74 242 21 20 49
39 61 42 51 11 183 -2 229 -23z"/>
<path d="M9980 4589 c0 -29 52 -49 125 -49 43 0 65 -4 65 -12 0 -14 -86 -155
-113 -185 -22 -25 -17 -53 11 -53 24 0 41 20 82 92 17 32 45 69 61 82 18 16
29 34 29 50 0 16 6 26 15 26 18 0 21 49 3 55 -7 2 -73 5 -145 8 -123 3 -133 2
-133 -14z"/>
<path d="M8837 4689 c-28 -22 -87 -125 -87 -154 0 -34 35 -8 66 47 18 32 44
68 58 81 49 45 17 66 -37 26z"/>
<path d="M3470 4415 c-7 -8 -10 -25 -6 -38 8 -34 64 -107 81 -107 18 0 30 25
20 43 -65 120 -73 129 -95 102z"/>
<path d="M8672 4358 c-5 -7 -17 -40 -27 -73 -9 -33 -20 -72 -24 -86 -5 -15 -5
-32 -1 -38 15 -25 36 3 63 82 42 122 43 127 19 127 -11 0 -24 -6 -30 -12z"/>
<path d="M3661 4026 c-9 -11 -4 -28 24 -80 32 -58 39 -65 56 -56 25 14 24 20
-11 90 -30 60 -48 72 -69 46z"/>
<path d="M8576 3997 c-17 -12 -18 -22 -12 -85 8 -81 15 -75 -94 -87 -57 -6
-100 -27 -100 -47 0 -6 26 -37 58 -69 31 -31 68 -73 82 -93 14 -19 38 -45 53
-57 l29 -21 41 33 c23 18 48 42 56 54 8 11 45 50 83 87 70 68 81 94 52 122
-12 12 -37 16 -109 16 l-94 0 -3 77 c-3 79 -11 93 -42 70z"/>
<path d="M3857 3623 c-16 -15 -5 -52 28 -91 39 -45 69 -107 60 -122 -11 -17
22 -11 46 9 21 17 22 20 8 47 -24 48 -112 164 -124 164 -6 0 -15 -3 -18 -7z"/>
<path d="M3395 3540 c-38 -4 -78 -15 -110 -33 -27 -15 -55 -27 -61 -27 -34 0
-113 -119 -126 -190 -31 -165 -15 -271 53 -367 19 -27 76 -52 144 -64 28 -4
63 -11 78 -15 34 -8 161 20 214 47 21 11 43 19 49 19 7 0 24 14 38 30 122 145
111 355 -25 505 -77 84 -134 105 -254 95z m161 -103 c152 -96 181 -376 47
-460 -80 -50 -246 -77 -259 -42 -3 8 -21 10 -53 7 -42 -4 -50 -1 -77 26 -18
17 -40 58 -52 95 -20 58 -21 71 -11 142 22 163 47 195 189 251 56 23 166 13
216 -19z"/>
<path d="M3326 3411 c-38 -8 -43 -47 -10 -78 34 -32 36 -88 3 -111 -54 -38 5
-70 86 -47 54 16 103 12 117 -9 17 -25 6 -46 -33 -67 -34 -17 -56 -20 -116
-18 -57 3 -76 0 -83 -11 -15 -23 -12 -28 21 -46 48 -24 186 -6 235 31 84 64
61 156 -46 185 -21 6 -48 9 -61 8 -20 -3 -24 3 -29 34 -8 43 -11 41 93 59 71
12 89 27 67 55 -10 11 -22 13 -44 8 -39 -9 -132 -6 -155 4 -9 5 -29 6 -45 3z"/>
<path d="M9760 3492 c-30 -15 -87 -17 -420 -20 -727 -6 -856 -7 -1085 -4 -377
4 -891 -5 -1023 -19 -143 -15 -168 -27 -166 -80 1 -19 -3 -42 -7 -51 -15 -29
-38 -164 -45 -266 -4 -56 -1 -179 7 -292 18 -258 16 -639 -6 -915 -5 -60 -12
-219 -21 -460 -2 -71 -9 -157 -15 -189 -6 -32 -8 -69 -5 -81 7 -27 72 -73 123
-87 47 -13 375 -25 578 -21 83 2 238 5 346 7 225 4 373 14 409 28 14 5 66 11
115 13 50 3 149 7 220 9 164 7 236 14 305 31 30 8 91 16 135 18 44 3 87 7 95
10 46 16 506 29 526 15 7 -5 21 -1 33 10 21 16 22 21 12 82 -5 36 -12 108 -15
160 -3 52 -10 131 -16 175 -6 44 -13 152 -16 240 -4 88 -12 250 -18 360 -7
110 -12 247 -10 305 7 376 25 960 30 987 8 44 -18 58 -66 35z m6 -115 c-7 -51
-21 -678 -21 -937 0 -252 13 -660 25 -800 17 -183 27 -371 22 -396 -4 -20 -11
-24 -46 -26 -22 -1 -50 -1 -61 0 -22 1 -219 -12 -435 -29 -74 -6 -160 -16
-190 -24 -30 -7 -125 -16 -210 -20 -165 -7 -199 -9 -325 -25 -222 -27 -299
-32 -426 -26 -77 3 -163 1 -200 -5 -35 -6 -116 -11 -179 -11 -193 -1 -603 19
-633 31 -36 14 -50 53 -41 116 4 27 8 102 9 165 2 129 11 322 25 510 19 259
23 570 9 730 -17 194 -18 489 -2 550 6 25 19 75 28 113 10 37 19 67 20 67 2 0
39 7 82 15 78 15 331 19 2061 30 227 2 415 4 417 6 2 2 20 5 40 6 l37 2 -6
-42z"/>
<path d="M8305 3180 c-3 -6 1 -47 11 -93 9 -45 18 -122 20 -172 1 -49 3 -105
3 -123 1 -30 4 -33 29 -30 l27 3 -3 110 c-4 110 -25 285 -37 305 -8 13 -42 13
-50 0z"/>
<path d="M7282 3137 c-21 -22 -21 -26 -8 -53 23 -46 30 -177 13 -269 -15 -82
-10 -115 18 -115 7 0 16 8 19 18 13 47 26 134 27 192 2 76 8 112 18 105 4 -2
18 -24 30 -49 13 -24 39 -59 57 -77 45 -43 57 -36 111 66 22 44 45 81 51 83
11 3 26 -87 43 -248 12 -122 26 -154 53 -130 24 19 19 77 -25 345 -19 113 -30
145 -50 145 -12 0 -84 -97 -118 -159 l-28 -52 -24 30 c-13 17 -49 66 -79 111
-30 44 -62 80 -71 80 -8 0 -25 -10 -37 -23z"/>
<path d="M8132 3118 c-25 -25 -3 -68 37 -68 16 0 23 38 11 60 -12 23 -30 26
-48 8z"/>
<path d="M7928 2937 c-7 -7 -39 -28 -72 -47 -60 -36 -86 -73 -86 -124 0 -26
60 -86 86 -86 40 0 83 40 110 100 l15 35 32 -60 c35 -65 67 -83 86 -47 8 15 6
24 -12 40 -13 12 -38 62 -57 112 -32 82 -37 90 -62 90 -15 0 -33 -6 -40 -13z
m-23 -153 c-14 -18 -35 -34 -46 -34 -18 0 -20 4 -23 31 -1 5 19 26 44 44 42
31 45 32 48 14 2 -11 -8 -36 -23 -55z"/>
<path d="M8149 2887 c-6 -14 -7 -46 -2 -87 8 -64 9 -65 38 -65 27 0 30 3 29
30 -5 119 -38 182 -65 122z"/>
<path d="M9554 2509 c-3 -6 5 -32 19 -57 58 -109 85 -346 52 -456 -8 -27 -32
-79 -53 -115 -50 -87 -56 -108 -30 -117 12 -3 27 1 38 11 26 24 84 140 103
206 21 74 21 220 1 308 -37 164 -99 269 -130 220z"/>
<path d="M9452 2422 c-16 -11 -21 -46 -29 -194 l-6 -118 -32 0 c-57 0 -115
-65 -115 -128 0 -38 37 -72 78 -72 40 0 192 57 192 72 0 6 -11 25 -23 42 -39
52 -47 91 -41 195 3 53 10 114 15 136 5 22 9 48 9 58 0 18 -25 23 -48 9z m-32
-387 c7 -8 10 -21 7 -29 -6 -15 -85 -42 -95 -32 -10 11 18 57 40 66 32 12 34
12 48 -5z"/>
<path d="M8787 2378 c-2 -7 -1 -47 3 -88 4 -41 7 -75 6 -76 -1 0 -16 -5 -35
-10 -69 -19 -65 -64 6 -64 l32 0 -6 -98 c-5 -82 -3 -99 11 -111 33 -27 43 -7
50 100 4 57 9 105 11 107 2 2 22 5 44 6 48 3 55 8 47 34 -7 20 -33 32 -73 32
-24 0 -25 3 -40 99 -6 38 -14 58 -29 68 -17 11 -23 11 -27 1z"/>
<path d="M8006 2354 c-3 -8 -1 -45 4 -82 16 -109 16 -109 -32 -116 -24 -4 -45
-3 -52 4 -5 5 -38 10 -71 10 -69 0 -105 -22 -105 -65 0 -24 53 -93 93 -123 25
-19 12 -32 -33 -32 -46 0 -70 -8 -70 -24 0 -13 -129 -10 -143 3 -5 5 13 21 40
36 60 35 82 62 83 101 0 59 -63 87 -135 60 -53 -21 -82 -65 -86 -132 -3 -42 1
-52 34 -90 22 -25 49 -45 68 -49 41 -9 116 12 134 38 14 19 16 20 33 4 10 -9
31 -17 46 -17 30 0 106 35 106 49 0 5 3 17 6 25 4 11 -10 32 -45 66 -81 79
-70 89 78 74 l61 -7 0 -59 c0 -72 22 -131 47 -126 16 3 18 15 17 102 l0 98 53
-6 c43 -5 55 -3 59 9 10 26 -24 54 -69 57 l-41 3 -17 94 c-15 82 -27 110 -50
111 -4 0 -10 -7 -13 -16z m-351 -296 c-5 -12 -76 -58 -90 -58 -17 0 3 46 25
57 33 17 71 17 65 1z"/>
<path d="M7243 2308 c-83 -94 -114 -261 -79 -429 22 -102 50 -153 96 -174 32
-15 42 -15 55 -5 23 19 18 39 -15 58 -48 27 -70 87 -86 233 -9 79 11 183 50
255 17 33 30 66 28 72 -6 19 -27 14 -49 -10z"/>
<path d="M9043 2165 c-90 -39 -88 -167 4 -230 64 -43 153 -26 153 31 0 27 -2
28 -48 15 -23 -7 -41 -6 -59 2 -25 11 -25 11 27 37 67 32 80 51 60 87 -31 55
-88 79 -137 58z m64 -71 c4 -11 -56 -39 -64 -30 -3 2 1 14 7 26 12 22 50 25
57 4z"/>
<path d="M8560 2133 l-55 -28 -3 -67 c-3 -62 -1 -68 22 -83 35 -23 46 -12 46
50 0 65 21 85 87 85 34 0 43 4 48 21 8 24 -8 39 -42 39 -12 0 -27 2 -35 5 -7
3 -38 -7 -68 -22z"/>
<path d="M7415 2134 c-16 -8 -46 -32 -65 -53 l-35 -37 5 -82 c5 -88 19 -114
48 -96 13 9 17 27 18 85 0 87 11 111 64 144 68 43 37 77 -35 39z"/>
<path d="M8330 2136 c-98 -26 -150 -81 -135 -143 9 -43 29 -63 69 -70 33 -5
40 -2 76 36 l39 41 15 -27 c21 -41 62 -77 81 -69 29 11 28 35 -3 66 -30 30
-62 105 -62 146 0 17 -21 38 -33 33 -1 0 -22 -6 -47 -13z m0 -85 c0 -11 -11
-32 -24 -48 -20 -24 -26 -25 -40 -14 -23 20 -20 33 17 59 39 27 47 28 47 3z"/>
<path d="M13049 3261 c-85 -18 -161 -98 -195 -207 -20 -64 -15 -190 11 -265
30 -86 122 -168 207 -184 67 -13 177 52 229 134 37 57 69 159 69 217 0 115
-52 233 -124 280 -43 29 -129 40 -197 25z m169 -88 c43 -21 67 -63 82 -143 24
-125 -43 -285 -140 -335 -49 -25 -70 -28 -70 -10 0 12 -8 16 -32 14 -58 -4
-66 0 -100 49 -60 83 -73 190 -38 304 25 82 60 116 137 134 68 15 110 12 161
-13z"/>
<path d="M13105 3161 c-54 -33 -88 -83 -115 -168 -11 -37 -11 -48 5 -90 26
-71 41 -90 87 -114 40 -21 41 -21 67 -1 34 25 71 90 71 125 0 46 -66 97 -126
97 -38 0 -29 20 36 80 44 41 59 61 54 73 -8 22 -42 21 -79 -2z m43 -238 c17
-23 15 -30 -13 -59 -32 -32 -45 -28 -68 19 -16 31 -17 40 -6 53 16 19 68 11
87 -13z"/>
<path d="M4066 3228 c-12 -46 97 -115 111 -71 6 17 -66 93 -87 93 -10 0 -20
-10 -24 -22z"/>
<path d="M4235 3010 c-13 -21 8 -52 75 -109 50 -44 74 -58 89 -54 36 9 24 40
-31 84 -29 22 -61 51 -71 65 -19 25 -51 32 -62 14z"/>
<path d="M4567 2773 c-16 -16 -4 -43 31 -70 52 -40 88 -57 106 -50 30 12 16
36 -38 71 -30 19 -57 39 -60 45 -8 12 -29 15 -39 4z"/>
<path d="M4817 2613 c-32 -31 48 -87 139 -98 90 -11 98 29 12 54 -24 7 -60 22
-80 32 -39 20 -60 24 -71 12z"/>
<path d="M5177 2519 c-19 -11 -23 -49 -5 -49 6 0 19 -6 27 -13 23 -20 95 -40
144 -41 36 -1 42 2 42 19 0 16 -15 25 -75 46 -41 14 -84 31 -95 36 -14 8 -26
8 -38 2z"/>
<path d="M5658 2363 c-46 -12 -15 -73 38 -73 12 0 26 -4 29 -10 3 -5 29 -10
56 -10 47 0 50 2 47 23 -3 21 -16 28 -138 69 -8 3 -22 4 -32 1z"/>
<path d="M6764 2335 c-12 -8 -24 -12 -27 -9 -3 3 -11 -4 -17 -16 -8 -16 -9
-49 0 -133 6 -62 8 -139 5 -172 -6 -49 -4 -64 9 -74 20 -17 71 1 101 35 22 25
120 94 133 94 21 0 42 39 40 71 -3 28 -20 50 -100 127 -53 50 -102 92 -110 92
-7 0 -23 -7 -34 -15z"/>
<path d="M6024 2259 c-27 -30 -9 -51 46 -54 25 -1 62 -7 84 -13 50 -14 87 -1
79 27 -3 12 -11 21 -18 21 -7 0 -41 9 -75 20 -78 25 -92 25 -116 -1z"/>
<path d="M6460 2215 c-29 -35 18 -65 98 -65 55 0 75 10 70 35 -5 31 -147 55
-168 30z"/>
</g>
</svg>
