<?xml version="1.0" standalone="no"?>
<!DOCTYPE svg PUBLIC "-//W3C//DTD SVG 20010904//EN"
 "http://www.w3.org/TR/2001/REC-SVG-20010904/DTD/svg10.dtd">
<svg version="1.0" xmlns="http://www.w3.org/2000/svg"
 width="802.207771pt" height="400.000000pt" viewBox="0 0 802.207771 400.000000"
 preserveAspectRatio="xMidYMid meet">
<metadata>
Created by potrace 1.15, written by Peter Selinger 2001-2017
</metadata>
<g transform="translate(-21.092226,423.120111) scale(0.040883,-0.040883)"
fill="#444444" stroke="none">
<path d="M8525 10339 c-4 -5 9 -42 29 -82 40 -83 66 -173 66 -233 0 -43 19
-74 46 -74 16 0 23 25 26 99 2 39 8 57 21 65 20 13 41 -9 103 -101 37 -57 48
-62 75 -37 17 15 16 18 -17 62 -73 99 -87 114 -118 133 -38 23 -64 24 -86 4
-16 -14 -19 -9 -45 62 -15 43 -35 86 -43 96 -17 19 -47 23 -57 6z"/>
<path d="M9442 10290 c-11 -12 -27 -51 -37 -88 -22 -83 -29 -92 -48 -56 -22
42 -63 78 -82 70 -9 -3 -23 -19 -33 -36 -9 -16 -20 -30 -24 -30 -8 0 -25 53
-30 90 -2 19 -9 25 -28 25 -22 0 -25 -5 -28 -39 -6 -66 49 -196 83 -196 17 0
52 40 65 74 l11 29 34 -49 c63 -88 103 -78 125 29 11 54 34 111 50 127 8 8 6
44 -3 58 -12 18 -34 15 -55 -8z"/>
<path d="M8941 10201 c-40 -21 -49 -40 -50 -96 0 -54 19 -85 63 -100 71 -25
149 20 162 93 8 44 -8 77 -48 102 -41 25 -82 25 -127 1z m99 -65 c17 -21 -8
-70 -38 -74 -43 -6 -70 46 -40 76 17 17 63 15 78 -2z"/>
<path d="M8423 10125 c-44 -19 -64 -54 -66 -117 -2 -94 40 -130 150 -130 79 1
112 27 85 70 -7 10 -14 10 -38 -3 -34 -17 -80 -20 -90 -4 -3 6 7 25 23 42 67
71 77 103 43 137 -23 23 -62 25 -107 5z m57 -58 c0 -1 -13 -15 -29 -30 -33
-31 -53 -19 -21 13 16 16 50 28 50 17z"/>
<path d="M8187 10012 c-10 -10 -17 -30 -17 -45 0 -14 -4 -29 -10 -32 -5 -3
-10 -2 -10 3 0 4 -18 18 -40 31 -49 27 -75 17 -90 -37 -14 -52 -14 -54 21
-137 32 -75 51 -94 75 -74 22 18 17 51 -18 118 -24 47 -29 64 -20 73 9 9 22 0
56 -36 56 -62 80 -60 84 7 2 26 6 47 9 47 7 0 23 -19 73 -92 31 -44 44 -55 60
-51 11 3 23 9 25 14 6 9 -93 159 -133 202 -30 32 -43 34 -65 9z"/>
<path d="M7682 9865 c-75 -33 -93 -95 -41 -139 17 -14 38 -26 46 -26 21 0 92
-33 93 -42 0 -4 -26 -15 -57 -24 -96 -28 -137 -72 -98 -104 13 -10 19 -10 33
2 9 9 49 25 87 36 81 25 115 46 115 71 0 23 30 37 41 20 13 -21 47 -20 72 4
64 60 62 128 -6 174 -58 40 -82 40 -122 0 -20 -20 -35 -45 -35 -58 0 -50 -13
-54 -75 -25 -31 14 -53 31 -50 36 3 5 24 15 45 21 22 7 40 16 40 21 0 4 7 8
15 8 24 0 18 27 -7 34 -35 9 -60 7 -96 -9z m266 -98 c12 -25 12 -31 -4 -48
-12 -13 -21 -16 -28 -9 -5 5 -18 10 -27 10 -25 0 -32 29 -14 57 21 32 56 27
73 -10z"/>
<path d="M9816 9821 c-14 -15 -15 -26 -6 -64 9 -43 7 -106 -7 -172 -9 -46 -11
-142 -3 -156 5 -6 15 -9 23 -6 13 5 17 22 33 127 10 60 16 240 10 264 -8 31
-26 33 -50 7z"/>
<path d="M9564 9765 c-7 -19 -14 -61 -14 -94 0 -80 -12 -107 -52 -120 -31 -10
-55 -41 -72 -95 -5 -15 -9 -16 -21 -6 -13 10 -24 10 -56 1 -40 -12 -99 -7 -99
9 0 4 13 13 30 18 76 27 104 103 56 155 -36 39 -73 45 -128 22 -13 -5 -18 -3
-18 8 0 40 -53 43 -66 4 -9 -27 -53 -87 -65 -87 -5 0 -30 23 -57 50 -27 28
-53 50 -59 50 -5 0 -15 -12 -22 -26 -11 -25 -8 -30 44 -81 30 -30 55 -60 55
-68 0 -8 -9 -29 -20 -48 -40 -67 -70 -158 -60 -178 17 -32 40 -10 83 80 48
101 147 271 157 271 7 0 1 -36 -20 -119 -8 -30 -5 -37 26 -69 19 -19 34 -38
34 -42 0 -4 17 -12 38 -17 36 -9 92 -1 145 22 14 6 17 2 17 -23 0 -48 40 -82
96 -82 81 0 171 67 136 102 -7 7 -12 33 -12 59 0 31 -6 55 -20 72 -24 30 -25
66 -5 170 16 85 14 97 -16 97 -13 0 -25 -12 -35 -35z m-264 -180 c0 -10 -13
-19 -62 -43 -12 -6 -9 43 3 55 13 13 59 4 59 -12z m237 -146 c2 -24 5 -49 8
-56 5 -15 -22 -25 -46 -18 -24 8 -26 71 -3 103 23 33 37 23 41 -29z"/>
<path d="M8441 9596 c-12 -14 -5 -46 9 -46 10 0 120 -214 120 -234 0 -22 39
-31 57 -13 13 12 6 30 -53 143 -86 166 -103 186 -133 150z"/>
<path d="M8729 9579 c-38 -22 -65 -60 -79 -109 -7 -23 -4 -36 14 -62 38 -57
101 -47 132 21 11 22 22 41 25 41 3 0 16 -11 29 -25 33 -35 70 -29 70 12 0 8
-138 143 -147 143 -4 0 -24 -10 -44 -21z m31 -73 c0 -20 -25 -66 -36 -66 -20
0 -17 47 4 59 17 11 32 14 32 7z"/>
<path d="M8042 9508 c-17 -17 -15 -43 5 -59 17 -15 73 -98 73 -110 0 -3 -18
-9 -39 -13 -51 -8 -111 -62 -111 -100 0 -40 24 -90 52 -108 41 -27 88 -25 145
5 59 31 127 93 117 108 -4 7 14 8 53 4 105 -11 209 43 160 83 -11 9 -23 7 -53
-7 -21 -11 -41 -17 -44 -14 -3 3 1 8 8 10 20 7 43 74 37 104 -12 52 -66 75
-132 57 -51 -14 -74 -70 -66 -160 4 -50 3 -68 -6 -68 -8 0 -10 7 -6 19 4 13
-4 30 -23 53 -16 18 -46 62 -67 98 -39 66 -73 110 -85 110 -3 0 -11 -5 -18
-12z m345 -114 c5 -15 -56 -76 -70 -71 -20 6 -20 47 -1 68 19 21 65 23 71 3z
m-217 -139 c7 -8 19 -15 26 -15 35 0 -5 -39 -70 -67 -42 -19 -64 -16 -82 12
-19 29 -11 63 19 75 35 14 93 11 107 -5z"/>
<path d="M9754 9278 c-32 -24 -33 -42 -4 -85 17 -26 52 -30 69 -10 18 22 24
73 12 96 -15 27 -40 27 -77 -1z"/>
<path d="M8824 9133 c-5 -5 -20 -25 -33 -45 -12 -21 -27 -38 -32 -38 -15 0
-10 -56 6 -70 11 -10 18 -9 30 3 8 9 15 19 15 24 1 13 45 60 69 73 33 17 24
54 -14 58 -16 1 -35 -1 -41 -5z"/>
<path d="M8976 9107 c-10 -7 -16 -22 -14 -33 3 -16 11 -19 52 -16 32 2 56 -2
73 -13 13 -9 31 -14 39 -11 20 8 17 50 -4 69 -23 21 -120 23 -146 4z"/>
<path d="M9212 9008 c-14 -17 -2 -35 41 -62 16 -10 35 -33 43 -52 9 -22 21
-34 34 -34 21 0 22 1 25 42 4 59 -110 145 -143 106z"/>
<path d="M8619 8917 c-18 -14 -39 -69 -39 -103 0 -28 25 -54 52 -54 18 0 19 4
14 34 -5 25 -1 45 13 72 15 28 18 41 9 51 -13 16 -28 16 -49 0z"/>
<path d="M9357 8763 c-4 -3 -7 -46 -7 -95 0 -73 3 -90 16 -95 35 -13 47 9 46
86 -1 40 -4 81 -7 92 -6 18 -35 26 -48 12z"/>
<path d="M8742 8678 c-23 -18 -52 -47 -64 -64 -21 -29 -26 -30 -42 -18 -13 9
-24 10 -37 3 -23 -12 -24 -32 -3 -64 15 -24 15 -25 -4 -25 -33 0 -52 -11 -52
-30 0 -10 -6 -25 -13 -32 -19 -19 -47 -61 -47 -70 0 -4 11 -15 25 -24 24 -16
26 -15 45 7 19 22 51 84 62 119 3 10 10 5 22 -17 12 -25 23 -33 43 -33 24 0
25 2 20 38 -3 20 -8 45 -12 55 -5 12 -2 17 9 17 9 0 16 5 16 11 0 6 25 35 56
64 44 42 54 58 49 74 -9 29 -26 26 -73 -11z"/>
<path d="M8932 8648 c-22 -22 -13 -35 43 -63 30 -14 60 -35 65 -46 12 -21 40
-25 57 -8 19 19 -10 62 -63 98 -50 33 -82 39 -102 19z"/>
<path d="M9153 8433 c-20 -7 -15 -44 9 -70 12 -13 21 -35 20 -52 -1 -30 25
-50 48 -36 24 15 6 106 -28 140 -26 26 -28 27 -49 18z"/>
<path d="M9436 8424 c-13 -13 -16 -31 -13 -88 4 -87 10 -100 46 -91 36 9 47
21 33 38 -7 8 -15 44 -19 82 -8 72 -20 87 -47 59z"/>
<path d="M7490 8355 c-22 -26 -8 -50 30 -51 19 -1 61 -9 93 -19 68 -20 88 -12
69 29 -19 42 -165 74 -192 41z"/>
<path d="M8703 8350 c-28 -12 -31 -53 -4 -72 10 -7 25 -27 35 -45 17 -33 43
-53 70 -53 26 0 18 42 -14 80 -17 19 -30 42 -30 52 0 10 -4 18 -10 18 -5 0
-10 7 -10 15 0 17 -5 18 -37 5z"/>
<path d="M1247 8302 c-10 -10 -17 -24 -17 -30 0 -16 -28 -28 -77 -35 -31 -4
-60 -19 -110 -58 -38 -30 -70 -58 -72 -64 -1 -5 -10 -23 -20 -40 -10 -16 -23
-50 -30 -75 -7 -25 -17 -52 -21 -61 -5 -9 -6 -34 -3 -55 4 -35 0 -44 -34 -80
-21 -23 -45 -51 -53 -64 -8 -12 -35 -49 -60 -84 -25 -34 -56 -81 -68 -105 -34
-62 -103 -251 -117 -321 -4 -19 -18 -56 -31 -82 -18 -35 -22 -53 -15 -70 5
-13 6 -37 4 -53 -3 -21 1 -36 14 -47 28 -26 68 -32 86 -14 8 9 24 16 34 16 11
0 23 4 29 10 5 5 39 20 74 33 36 14 88 33 115 44 28 11 57 18 65 16 24 -6 52
-71 40 -93 -17 -32 -11 -65 18 -92 53 -49 95 -41 116 23 l11 34 95 -3 c177 -5
230 -12 230 -31 0 -10 11 -28 25 -41 19 -18 31 -22 60 -17 58 10 68 23 62 87
-4 44 -1 63 17 94 19 35 25 39 66 41 77 3 202 -39 264 -89 32 -27 48 -33 72
-29 18 3 35 0 38 -6 4 -6 22 -11 41 -11 25 0 35 5 40 20 4 12 2 27 -4 34 -7 8
-7 16 0 23 16 16 -9 112 -46 173 -18 30 -38 73 -45 95 -7 22 -22 54 -35 70
-12 17 -25 43 -29 59 -6 25 -67 135 -131 237 -13 19 -48 65 -79 101 -31 37
-56 75 -56 85 0 10 -9 24 -20 31 -11 7 -20 21 -20 32 0 49 -44 156 -77 188
-44 41 -137 101 -183 117 -20 7 -40 23 -48 38 -15 32 -59 67 -82 67 -9 0 -24
-8 -33 -18z m81 -295 c0 -18 2 -50 6 -73 6 -31 3 -44 -8 -54 -14 -11 -16 -8
-17 21 -3 115 -1 151 11 144 5 -3 9 -20 8 -38z m-172 -144 c27 -9 67 -29 88
-45 46 -33 69 -35 103 -8 14 11 34 20 45 20 10 0 21 7 25 16 3 8 17 20 31 25
33 13 132 -21 194 -66 74 -54 180 -201 252 -350 65 -134 126 -265 126 -271 0
-3 11 -20 25 -38 18 -24 24 -43 23 -70 -2 -20 -5 -36 -8 -36 -7 0 -27 42 -56
118 -13 34 -35 79 -48 100 -14 20 -39 71 -56 112 -18 41 -36 82 -41 90 -5 8
-15 26 -21 40 -43 87 -139 193 -212 231 -49 26 -192 52 -221 40 -39 -16 -90
-33 -100 -33 -5 1 -48 12 -95 26 -93 28 -148 26 -188 -5 -13 -10 -36 -21 -52
-24 -30 -7 -115 -91 -137 -136 -23 -46 -60 -134 -68 -159 -4 -14 -21 -51 -36
-82 -16 -32 -39 -84 -50 -115 -12 -32 -30 -76 -40 -99 -10 -22 -19 -52 -19
-67 0 -14 -4 -29 -10 -32 -6 -4 -10 6 -10 22 0 15 -4 34 -9 42 -6 9 -3 29 9
55 10 23 37 99 60 171 49 150 86 230 130 273 16 17 30 35 30 40 0 5 17 27 38
49 20 23 56 63 79 91 43 50 110 92 149 92 11 0 43 -8 70 -17z m172 -298 c2
-70 1 -75 -19 -75 -19 0 -20 4 -15 53 3 28 6 67 6 86 0 27 2 31 13 23 9 -8 14
-38 15 -87z m-390 -45 c26 -24 57 -42 80 -46 48 -10 140 -9 174 0 l27 8 -2
-76 c-2 -74 -3 -76 -27 -76 -53 0 -255 33 -262 43 -3 6 -9 37 -13 68 -5 45
-11 60 -26 64 -24 8 -19 46 6 55 1 0 20 -18 43 -40z m699 -112 c-1 -46 -6 -89
-10 -95 -10 -16 -66 -17 -140 -2 -50 10 -60 10 -75 -5 -21 -18 -38 -10 -20 11
6 8 12 41 12 73 1 57 7 72 21 50 3 -5 18 -10 32 -10 34 0 160 38 168 50 13 21
15 7 12 -72z m-288 -2 c16 -20 -10 -39 -43 -30 -30 7 -33 19 -8 33 24 14 38
13 51 -3z m-19 -152 c0 -8 -4 -14 -10 -14 -5 0 -10 5 -10 10 0 6 -9 10 -20 10
-25 0 -27 17 -2 22 21 5 42 -9 42 -28z m-146 18 c8 -13 -13 -39 -21 -26 -5 6
-17 16 -28 22 -18 10 -17 11 12 12 17 0 34 -4 37 -8z m65 -174 c-1 -18 1 -43
5 -55 5 -17 3 -23 -7 -23 -17 0 -30 27 -21 42 4 6 7 24 6 39 0 16 4 29 9 29 5
0 9 -15 8 -32z m-79 -36 c0 -5 -6 -16 -13 -27 -16 -20 -31 -7 -21 19 6 16 34
23 34 8z"/>
<path d="M7761 8303 c-13 -14 -12 -19 12 -37 15 -12 48 -38 73 -59 50 -41 67
-43 72 -9 4 28 -29 75 -72 101 -40 25 -66 26 -85 4z"/>
<path d="M7374 8230 c-33 -13 -65 -61 -62 -89 4 -36 40 -40 61 -8 9 13 30 27
47 30 28 6 31 10 28 39 -2 27 -8 33 -28 35 -14 1 -35 -2 -46 -7z"/>
<path d="M8344 8134 c-58 -59 -66 -87 -25 -92 33 -5 132 97 124 127 -9 35 -40
24 -99 -35z"/>
<path d="M9149 8156 c-23 -12 -110 -65 -118 -72 -8 -7 33 -44 49 -44 9 0 27
11 39 24 13 14 36 30 52 36 31 13 38 40 16 58 -9 8 -20 8 -38 -2z"/>
<path d="M7967 8143 c-14 -13 -6 -49 12 -60 23 -14 48 -63 57 -110 7 -39 48
-73 66 -55 12 12 -22 128 -54 180 -26 42 -63 63 -81 45z"/>
<path d="M9475 8109 c17 -99 67 -168 96 -133 10 13 10 21 0 47 -7 18 -21 52
-30 77 -14 37 -22 46 -45 48 -28 3 -28 3 -21 -39z"/>
<path d="M8800 8100 c-8 -15 -5 -23 18 -39 15 -12 33 -26 40 -32 8 -6 37 -12
65 -13 49 -1 52 0 55 26 3 24 -1 28 -35 34 -21 4 -49 14 -63 24 -34 22 -68 23
-80 0z"/>
<path d="M2445 8070 c-4 -6 -6 -52 -6 -102 l1 -90 -26 5 c-33 6 -89 -11 -110
-34 -49 -54 13 -178 103 -208 35 -12 45 -10 105 14 67 27 82 42 72 70 -7 16
-38 12 -83 -11 -39 -21 -97 -18 -121 6 -25 25 -36 68 -23 89 15 23 70 16 105
-14 58 -49 90 -22 56 48 -14 27 -20 65 -22 135 -3 89 -4 97 -23 100 -12 2 -24
-2 -28 -8z"/>
<path d="M3143 8033 c-6 -16 9 -135 22 -178 5 -16 -2 -24 -37 -40 -36 -17 -45
-27 -53 -59 -12 -51 17 -105 68 -125 33 -12 39 -11 71 9 20 12 36 28 36 36 0
21 -29 29 -52 15 -22 -14 -52 -1 -69 31 -10 18 -8 24 7 35 15 11 21 11 38 -2
31 -22 66 -36 77 -29 16 9 10 51 -15 101 -13 26 -27 71 -30 98 -16 120 -17
125 -37 125 -11 0 -23 -8 -26 -17z"/>
<path d="M7301 8011 c-16 -29 -14 -36 25 -96 39 -58 66 -69 84 -36 10 20 4 51
-11 51 -5 0 -19 21 -31 48 -25 51 -51 64 -67 33z"/>
<path d="M8185 7951 c-92 -51 -117 -81 -91 -110 14 -15 14 -20 1 -38 -11 -16
-13 -28 -5 -48 5 -14 10 -46 10 -71 0 -44 20 -69 40 -48 16 17 21 159 6 179
-12 17 -11 21 12 39 14 11 39 27 56 36 34 16 47 57 24 71 -16 11 -16 11 -53
-10z"/>
<path d="M9591 7877 c-6 -9 -9 -48 -7 -103 3 -86 4 -89 29 -98 45 -16 52 1 37
91 -20 119 -32 142 -59 110z"/>
<path d="M2594 7855 c-3 -8 5 -47 18 -87 40 -120 99 -141 140 -50 11 26 27 59
34 74 33 63 -1 104 -43 52 -12 -16 -23 -36 -23 -44 -1 -8 -7 -26 -15 -40 l-13
-25 -21 48 c-12 27 -21 55 -21 62 0 25 -47 33 -56 10z"/>
<path d="M2873 7818 c-78 -72 -88 -134 -29 -173 21 -14 29 -15 53 -3 15 7 37
31 47 52 l19 39 18 -34 c10 -19 18 -40 19 -48 1 -32 70 -57 70 -26 0 9 -20 57
-44 108 -24 51 -46 100 -50 110 -10 31 -53 20 -103 -25z"/>
<path d="M7486 7833 c-30 -16 -34 -47 -8 -58 68 -30 118 -43 134 -34 34 19 20
44 -41 75 -54 28 -62 29 -85 17z"/>
<path d="M7850 7832 c-25 -8 -51 -16 -57 -18 -18 -5 -16 -53 1 -60 8 -3 40 1
70 10 30 9 61 13 69 10 25 -9 39 29 21 54 -17 25 -40 26 -104 4z"/>
<path d="M3335 7794 c-14 -15 -25 -34 -25 -42 0 -9 -8 -24 -17 -35 -17 -18
-17 -20 2 -35 11 -10 33 -33 48 -53 35 -47 117 -84 143 -65 24 18 12 42 -25
49 -32 7 -81 47 -81 67 0 5 11 10 24 10 14 0 38 13 55 31 25 24 29 34 21 49
-29 55 -105 67 -145 24z"/>
<path d="M3671 7799 c-22 -5 -48 -22 -70 -48 -28 -31 -40 -38 -51 -31 -28 18
-33 10 -27 -40 10 -85 27 -128 53 -133 34 -6 39 2 40 64 2 88 42 139 109 139
25 0 32 15 17 36 -11 17 -34 21 -71 13z"/>
<path d="M8984 7658 c-18 -4 -37 -15 -44 -23 -21 -26 4 -40 73 -42 34 0 73 -3
87 -5 19 -2 26 2 28 18 2 11 -4 27 -13 34 -22 18 -94 28 -131 18z"/>
<path d="M8774 7579 c-26 -29 -33 -149 -10 -168 30 -25 46 -6 46 53 0 35 5 60
15 70 20 19 19 29 -3 49 -23 21 -25 21 -48 -4z"/>
<path d="M9565 7541 c-10 -22 -28 -50 -41 -62 -30 -28 -31 -55 -3 -64 35 -11
81 44 104 124 5 15 2 27 -6 32 -25 16 -36 9 -54 -30z"/>
<path d="M9254 7556 c-7 -17 74 -136 92 -136 24 0 44 12 44 27 0 9 -21 40 -46
69 -45 54 -79 68 -90 40z"/>
<path d="M8118 7548 c-16 -13 -38 -89 -38 -130 0 -34 15 -51 37 -44 16 5 21
18 26 62 3 30 11 62 17 69 8 10 8 19 0 34 -12 24 -20 26 -42 9z"/>
<path d="M2300 7474 c1 -33 72 -68 180 -88 47 -9 118 -25 157 -35 40 -11 119
-29 175 -39 57 -11 148 -36 203 -57 55 -20 120 -40 145 -45 25 -4 75 -20 110
-34 35 -14 69 -26 75 -26 7 0 62 -15 122 -34 98 -30 234 -94 248 -116 3 -4
-11 -38 -30 -74 -19 -37 -35 -71 -35 -77 0 -6 12 -26 27 -45 25 -34 29 -35 77
-31 28 2 76 11 106 21 30 9 88 25 129 35 41 11 82 29 93 40 10 12 27 21 37 21
10 0 25 8 35 19 19 21 10 33 -34 46 -34 10 -54 28 -121 115 -88 115 -155 182
-175 178 -12 -2 -21 -17 -26 -42 -6 -30 -39 -104 -64 -144 -3 -5 -92 46 -123
70 -13 10 -70 32 -125 49 -207 62 -334 101 -451 139 -66 21 -185 53 -265 70
-80 17 -163 35 -185 41 -42 11 -183 37 -247 46 -21 3 -38 1 -38 -3z"/>
<path d="M9497 7383 c-17 -16 -4 -43 37 -77 25 -20 48 -45 51 -56 8 -26 52
-27 57 -2 11 54 -112 169 -145 135z"/>
<path d="M10878 7377 c-40 -10 -63 -31 -55 -50 4 -12 27 -15 102 -16 54 -1
101 -4 107 -7 13 -8 38 15 38 37 0 10 -6 21 -12 26 -20 12 -144 19 -180 10z"/>
<path d="M11128 7329 c-10 -5 -18 -15 -18 -22 0 -7 29 -43 64 -81 56 -60 68
-68 90 -62 15 4 26 13 26 23 0 14 -127 153 -140 153 -3 -1 -13 -5 -22 -11z"/>
<path d="M9405 7300 c-11 -4 -31 -22 -44 -39 -14 -18 -40 -39 -58 -48 -37 -17
-40 -25 -18 -43 21 -17 100 24 139 73 26 32 28 39 15 51 -9 9 -21 11 -34 6z"/>
<path d="M10662 7271 c-27 -22 -59 -53 -71 -69 -21 -30 -21 -30 -2 -53 l19
-24 41 47 c24 26 60 54 86 64 38 16 45 23 45 47 0 24 -4 27 -34 27 -25 0 -48
-11 -84 -39z"/>
<path d="M8746 7284 c-8 -20 4 -42 31 -57 11 -7 42 -25 67 -41 89 -54 109 0
21 58 -30 20 -57 41 -60 46 -10 16 -52 11 -59 -6z"/>
<path d="M5026 7273 c-1 -2 -72 -5 -157 -8 -167 -6 -254 -16 -345 -40 -70 -18
-127 -19 -175 -1 -24 8 -42 9 -57 3 -21 -9 -21 -14 -17 -153 2 -79 9 -192 16
-251 8 -74 9 -152 3 -248 -10 -164 -7 -407 7 -520 5 -44 12 -203 16 -353 l6
-273 -26 -25 c-30 -28 -35 -59 -11 -68 9 -3 89 0 177 8 89 8 218 15 287 15
162 1 280 9 408 27 72 10 201 15 415 16 492 1 773 -1 814 -7 117 -17 229 -26
313 -26 99 0 177 -11 269 -36 45 -13 55 -13 65 -2 8 10 10 66 6 189 -3 96 -2
207 2 245 10 107 22 287 21 315 -1 14 -5 86 -9 160 -15 271 -5 700 16 726 15
17 4 51 -19 63 -24 13 -127 47 -182 60 -50 11 -125 19 -264 25 -49 3 -111 9
-136 15 -26 6 -91 13 -145 17 -55 3 -103 8 -108 11 -4 3 -61 11 -125 18 -64 7
-168 20 -231 29 -142 19 -206 25 -340 31 -58 3 -152 12 -210 20 -91 13 -277
24 -284 18z m274 -88 c69 -8 163 -18 210 -21 47 -3 89 -8 93 -11 4 -3 39 -5
78 -4 38 0 106 -6 152 -14 83 -15 232 -35 407 -55 52 -6 129 -16 171 -21 42
-5 157 -14 255 -19 165 -9 295 -24 316 -36 12 -7 10 -62 -3 -69 -6 -5 -7 -25
-2 -58 4 -29 6 -101 3 -162 -7 -178 -6 -218 15 -560 4 -55 2 -165 -5 -245 -6
-80 -12 -223 -12 -318 l0 -173 -56 7 c-32 3 -61 9 -67 12 -5 4 -62 7 -125 8
-122 1 -240 10 -330 24 -30 5 -120 9 -198 9 -79 1 -147 3 -151 6 -5 2 -73 0
-152 -6 -79 -5 -259 -10 -399 -10 -140 -1 -282 -5 -315 -9 -33 -5 -94 -13
-135 -19 -41 -5 -202 -12 -358 -15 -156 -3 -288 -8 -293 -11 -16 -10 -17 11
-23 284 -3 146 -11 305 -18 355 -11 86 -13 231 -9 590 0 87 -2 226 -5 310 -7
157 -7 186 -2 191 2 2 21 0 43 -4 28 -5 64 -2 115 11 41 10 129 23 195 29 66
5 127 11 135 13 43 10 361 4 470 -9z"/>
<path d="M4664 6968 c-22 -35 25 -309 59 -345 42 -47 108 -15 194 94 30 39 43
65 48 102 12 85 -26 152 -76 136 -24 -8 -24 -30 1 -62 11 -14 20 -38 20 -52 0
-54 -88 -161 -131 -161 -28 0 -40 33 -50 143 -11 112 -16 138 -33 149 -16 11
-24 10 -32 -4z"/>
<path d="M5027 6849 c-20 -22 -26 -36 -21 -52 7 -23 61 -79 121 -124 18 -14
33 -29 33 -34 0 -4 -19 -13 -42 -19 -37 -11 -43 -10 -57 8 -27 32 -50 35 -63
7 -10 -22 -8 -29 17 -55 20 -21 38 -30 60 -30 73 0 145 44 145 88 0 24 -23 50
-103 115 -55 44 -58 57 -17 57 37 0 80 19 80 36 0 20 -34 34 -82 34 -35 0 -48
-6 -71 -31z"/>
<path d="M5312 6817 c-13 -7 -40 -38 -61 -68 l-38 -54 35 -42 c53 -66 165 -94
213 -54 34 28 16 41 -61 46 -83 5 -96 19 -39 44 60 26 89 56 89 90 0 24 -6 31
-31 40 -41 14 -78 13 -107 -2z"/>
<path d="M5607 6772 c-10 -4 -26 -20 -36 -36 -18 -27 -19 -28 -26 -7 -7 22
-39 29 -51 10 -10 -16 38 -149 58 -160 28 -15 48 0 48 37 0 19 7 50 14 69 14
34 17 35 68 35 59 0 84 11 75 33 -8 22 -109 35 -150 19z"/>
<path d="M6668 6366 c-28 -20 -31 -90 -10 -213 l18 -113 -27 0 c-72 0 -134
-62 -122 -123 14 -73 120 -119 189 -82 41 22 61 44 66 70 5 29 -24 30 -67 1
-46 -31 -74 -33 -103 -6 -59 55 21 102 92 54 42 -29 75 22 46 71 -19 34 -42
178 -44 281 -1 70 -9 82 -38 60z"/>
<path d="M4813 6271 c-60 -28 -127 -93 -143 -140 -46 -141 129 -264 309 -216
42 11 52 11 62 -1 14 -17 71 -28 104 -20 39 10 95 64 95 93 0 92 -121 149
-183 87 -15 -14 -29 -41 -33 -60 -5 -26 -11 -34 -28 -34 -12 0 -27 -5 -33 -11
-31 -31 -167 5 -212 56 -38 44 -39 75 -5 123 24 33 116 92 143 92 5 0 22 5 38
11 27 10 27 11 9 25 -27 19 -73 17 -123 -5z m361 -253 c8 -13 5 -22 -13 -42
-20 -21 -27 -23 -47 -14 -31 14 -36 31 -17 57 18 26 60 25 77 -1z"/>
<path d="M5270 6079 c-35 -67 -19 -189 25 -189 26 0 36 35 25 84 -10 48 -5 79
13 73 7 -2 14 -18 18 -36 8 -38 8 -38 38 -43 19 -2 27 4 40 29 20 40 28 41 42
6 6 -16 15 -36 20 -45 5 -10 9 -28 9 -42 0 -34 22 -49 54 -36 29 11 30 13 16
38 -5 9 -25 52 -44 95 -19 42 -42 80 -51 83 -9 4 -32 -2 -51 -12 l-35 -19 -21
28 c-13 19 -29 27 -49 27 -23 0 -32 -7 -49 -41z"/>
<path d="M5639 6108 c-24 -19 -39 -73 -39 -143 0 -60 1 -63 31 -75 40 -17 47
-6 39 64 -3 30 -3 62 0 72 6 17 8 17 18 -3 7 -12 12 -28 12 -36 0 -7 11 -24
25 -37 28 -27 50 -17 60 28 7 31 32 68 40 60 4 -3 14 -40 25 -81 10 -42 21
-80 25 -86 10 -17 30 -13 50 9 17 19 18 19 54 -10 19 -17 42 -30 49 -30 30 0
73 37 93 78 12 24 23 41 26 39 2 -3 14 -24 26 -48 22 -44 50 -60 69 -41 7 7 1
30 -21 71 -19 37 -31 75 -31 99 0 21 -5 43 -12 50 -14 14 -54 16 -62 3 -4 -5
-34 -25 -69 -44 -60 -34 -97 -77 -97 -111 0 -9 -3 -16 -8 -16 -12 0 -28 32
-46 95 -30 102 -73 124 -117 60 -13 -19 -27 -34 -31 -32 -4 1 -17 18 -30 37
-26 38 -54 48 -79 28z m433 -159 c-11 -20 -27 -34 -38 -34 -26 0 -26 38 1 44
11 2 26 13 34 24 22 31 25 4 3 -34z"/>
<path d="M6314 6078 c-69 -33 -78 -251 -10 -225 12 5 16 22 16 75 0 74 13 98
44 86 24 -9 68 -108 61 -136 -8 -33 16 -62 43 -54 33 11 44 38 29 72 -41 94
-76 151 -106 171 -37 25 -46 27 -77 11z"/>
<path d="M8036 7198 c-26 -41 -57 -130 -51 -148 7 -22 35 -34 48 -21 12 12 57
148 57 174 0 25 -37 22 -54 -5z"/>
<path d="M9150 7151 c-8 -5 -40 -17 -70 -26 -102 -31 -110 -36 -110 -61 0 -13
6 -24 13 -24 19 0 155 36 194 51 30 12 48 42 37 61 -7 10 -45 10 -64 -1z"/>
<path d="M9661 7141 c-8 -14 -4 -31 19 -74 35 -64 51 -80 74 -71 22 8 21 15
-19 94 -36 71 -56 85 -74 51z"/>
<path d="M14587 7148 c-25 -13 -22 -22 27 -85 65 -84 84 -177 61 -301 -8 -42
-57 -126 -92 -156 -24 -20 -25 -26 -14 -40 24 -29 55 -19 94 32 80 106 106
209 82 327 -17 81 -37 124 -87 186 -35 44 -48 50 -71 37z"/>
<path d="M12501 7112 c-6 -10 -8 -41 -6 -68 12 -156 12 -169 -13 -172 -34 -5
-102 -74 -102 -104 0 -15 14 -39 35 -61 58 -60 126 -48 208 37 45 47 47 66 9
66 -26 0 -31 6 -46 53 -10 28 -20 90 -22 137 -3 47 -7 95 -10 108 -5 27 -39
30 -53 4z m24 -314 c28 -13 33 -43 9 -52 -58 -22 -106 12 -64 46 26 21 23 21
55 6z"/>
<path d="M10522 7080 c-39 -37 -56 -154 -26 -184 19 -19 41 -21 47 -3 2 6 2
35 0 62 -5 44 -2 55 21 82 43 51 7 88 -42 43z"/>
<path d="M13288 7054 c-9 -20 -9 -36 1 -72 25 -87 26 -96 8 -89 -19 7 -73 -28
-98 -63 -31 -43 0 -112 57 -126 32 -8 141 15 160 33 21 21 18 86 -5 107 -25
23 -71 137 -71 175 0 63 -30 83 -52 35z m56 -248 c15 -13 26 -26 26 -29 0 -11
-69 -17 -94 -7 -28 10 -33 29 -14 48 19 19 55 14 82 -12z"/>
<path d="M11281 7056 c-9 -10 -9 -20 -3 -33 6 -10 7 -25 2 -33 -4 -8 -7 -40
-6 -70 1 -51 3 -55 26 -58 25 -3 26 -1 38 93 7 52 10 99 7 105 -9 15 -51 12
-64 -4z"/>
<path d="M12256 6993 c-56 -84 -75 -209 -44 -278 37 -83 90 -137 118 -120 12
8 3 43 -15 62 -7 7 -23 33 -35 58 -21 43 -21 51 -11 120 6 41 20 94 32 118 37
76 0 108 -45 40z"/>
<path d="M14350 7007 c-8 -7 -23 -25 -33 -40 -10 -16 -34 -46 -53 -67 -30 -33
-34 -42 -24 -59 14 -27 19 -27 67 8 l40 29 17 -77 c23 -108 25 -103 -44 -99
-65 3 -86 -8 -76 -40 8 -25 51 -33 174 -34 57 0 97 5 111 13 26 17 26 24 3 47
-14 14 -24 16 -46 9 -17 -6 -31 -6 -37 0 -12 12 -27 99 -33 193 -5 79 -13 110
-30 122 -14 10 -18 10 -36 -5z"/>
<path d="M12837 6962 c-9 -9 -29 -46 -45 -82 -30 -65 -30 -65 -41 -37 -6 15
-13 39 -15 52 -7 36 -12 42 -38 40 -29 -2 -35 -34 -14 -85 8 -21 12 -40 9 -43
-3 -3 4 -16 16 -28 12 -13 21 -26 21 -30 0 -4 10 -11 21 -14 25 -8 69 12 69
32 0 8 7 24 15 36 22 34 57 147 51 163 -7 19 -30 17 -49 -4z"/>
<path d="M13015 6938 c-11 -6 -22 -14 -25 -17 -3 -3 -13 -11 -24 -16 -30 -17
-78 -91 -78 -120 0 -67 79 -72 139 -9 l32 35 16 -31 c18 -35 49 -40 65 -10 8
16 5 27 -18 58 -15 21 -36 58 -46 80 -20 44 -29 48 -61 30z"/>
<path d="M16170 6927 c-30 -15 -53 -57 -40 -72 5 -6 12 -49 16 -95 9 -110 9
-114 -4 -190 -6 -36 -14 -112 -17 -170 -3 -58 -8 -123 -11 -145 -2 -22 -7
-114 -9 -205 -12 -398 -18 -528 -27 -565 -5 -22 -15 -68 -23 -103 -7 -36 -22
-73 -34 -86 -19 -20 -21 -34 -21 -158 0 -110 3 -137 15 -141 23 -9 215 3 270
17 35 9 76 10 140 5 50 -5 221 -10 380 -12 167 -3 315 -10 349 -17 62 -12 411
-9 475 5 31 7 33 6 26 -11 -22 -53 -27 -96 -16 -121 11 -23 13 -24 34 -10 12
8 22 23 23 33 0 11 8 44 18 75 l17 56 112 6 c81 3 123 1 153 -9 29 -10 50 -11
74 -4 20 6 222 7 529 2 273 -4 535 -7 582 -7 l86 1 11 -43 c9 -32 17 -43 31
-43 24 0 32 12 33 50 1 24 6 30 30 35 50 11 309 8 321 -4 25 -25 334 -2 405
30 49 22 52 36 17 69 -26 24 -26 26 -19 130 3 58 7 157 9 220 1 63 6 170 10
238 4 69 2 241 -4 390 -20 441 -20 444 -41 575 -9 50 -9 71 -1 81 16 19 -6 65
-34 72 -12 3 -75 3 -141 0 -169 -7 -154 -7 -439 -1 -290 6 -516 20 -588 35
-26 5 -79 10 -117 10 -37 0 -104 7 -147 15 -43 8 -143 20 -223 25 -80 6 -153
12 -163 14 -9 2 -43 1 -75 -4 -44 -6 -61 -5 -73 7 -9 7 -20 13 -25 12 -5 -1
-17 1 -26 5 -9 4 -26 3 -37 -3 -23 -13 -187 -16 -366 -7 -415 19 -1045 25
-1256 11 -85 -5 -132 -4 -145 3 -15 8 -27 7 -44 -1z m1090 -81 c391 -5 695
-16 722 -27 14 -6 29 -20 32 -32 20 -74 40 -802 26 -987 -5 -69 -12 -172 -15
-230 -3 -58 -11 -139 -18 -180 -6 -41 -10 -111 -9 -154 2 -56 -1 -82 -10 -87
-10 -7 -10 -11 0 -21 32 -32 14 -38 -110 -39 -126 0 -222 -9 -293 -28 -68 -17
-355 -18 -430 -1 -49 12 -166 17 -485 24 -135 3 -261 6 -280 7 -19 1 -97 -4
-173 -11 -76 -7 -141 -10 -143 -7 -3 3 -7 34 -8 70 -1 55 1 63 15 60 9 -3 23
6 33 22 15 23 16 31 6 54 -17 33 -13 79 11 158 15 48 21 102 24 219 2 85 7
159 10 164 3 5 6 87 6 182 0 95 4 214 9 263 24 213 34 357 33 458 -1 59 2 107
5 107 101 6 200 14 247 20 33 5 177 6 320 4 143 -3 357 -7 475 -8z m1073 -33
c61 -4 85 -9 77 -17 -5 -5 -10 -44 -10 -86 0 -41 -7 -107 -15 -145 -41 -184
-48 -282 -35 -445 7 -85 12 -202 10 -260 -3 -116 -3 -194 0 -510 2 -118 0
-225 -4 -236 -6 -21 -11 -21 -137 -18 -72 2 -136 7 -141 10 -5 4 -8 23 -6 43
3 20 1 52 -3 71 -5 19 -4 67 2 105 5 39 12 90 15 115 9 72 12 95 13 95 1 0 4
61 6 135 10 278 13 332 19 337 3 4 2 11 -4 18 -5 6 -12 137 -15 291 -4 153
-10 324 -15 379 -5 55 -5 103 -1 108 12 12 93 26 126 21 17 -3 70 -7 118 -11z
m251 -33 c17 -5 65 -12 107 -14 42 -2 86 -9 99 -16 21 -11 22 -15 15 -113 -4
-56 -13 -145 -19 -197 -11 -82 -11 -294 -2 -650 3 -143 -43 -663 -62 -682 -8
-8 -279 -15 -286 -7 -5 5 -18 567 -14 599 2 14 1 102 -1 195 -9 378 -7 457 12
535 18 73 49 290 48 341 0 23 3 25 36 22 20 -1 50 -7 67 -13z m519 -55 c130
-7 137 -8 143 -29 3 -12 3 -83 0 -157 -3 -74 -7 -298 -9 -499 -4 -344 -12
-511 -37 -710 -15 -120 -32 -214 -41 -224 -10 -12 -330 -16 -351 -5 -13 7 -16
15 -9 27 5 9 9 53 10 96 1 44 4 83 7 87 2 4 11 87 19 185 11 132 14 258 10
484 -4 248 -2 332 12 450 9 80 18 183 19 230 2 47 3 86 4 86 0 1 19 -2 43 -7
23 -4 104 -11 180 -14z m490 -4 l78 -1 -6 -202 c-3 -112 -6 -207 -6 -213 0 -5
0 -84 1 -175 1 -194 -7 -387 -20 -450 -5 -25 -14 -104 -20 -175 -11 -136 -25
-226 -42 -261 -5 -11 -8 -24 -7 -30 1 -5 -1 -30 -5 -56 -7 -40 -12 -48 -30
-49 -11 0 -30 -3 -41 -5 -11 -2 -75 -7 -142 -10 -137 -5 -134 -7 -113 65 5 18
12 59 15 90 3 31 10 88 15 126 19 140 40 588 39 820 0 66 3 211 7 322 l7 202
41 3 c23 2 66 2 96 2 30 -1 90 -2 133 -3z m397 -19 c0 -15 6 -52 14 -82 8 -30
17 -113 20 -185 29 -609 32 -810 14 -868 -5 -18 -12 -131 -14 -252 -3 -121 -6
-221 -8 -222 -1 -2 -43 -6 -92 -9 -49 -3 -96 -6 -104 -7 -8 -1 -56 5 -106 13
l-91 13 12 61 c23 119 35 192 45 291 6 55 17 145 25 200 8 55 17 190 20 300 6
215 17 643 19 712 1 22 4 44 8 48 3 3 34 1 68 -6 54 -10 63 -10 78 5 9 9 32
16 54 16 35 0 38 -2 38 -28z"/>
<path d="M16485 6751 c-27 -3 -56 -10 -62 -14 -16 -10 -17 -43 -2 -52 7 -5 8
-53 4 -154 -9 -201 -10 -208 -25 -227 -20 -23 -1 -47 46 -57 61 -13 214 -3
224 14 13 21 -12 41 -57 45 -21 2 -58 7 -83 11 l-45 8 -3 69 c-2 39 1 72 7 75
6 4 49 8 97 9 97 3 104 5 104 33 0 25 -36 39 -103 39 -93 0 -99 4 -95 68 l3
56 40 9 c22 5 68 6 102 3 65 -5 76 0 78 37 1 10 -3 20 -9 22 -26 8 -175 12
-221 6z"/>
<path d="M17602 6598 c-6 -6 -8 -18 -3 -27 5 -9 11 -33 14 -53 l6 -38 -65 0
c-49 0 -66 -4 -71 -15 -5 -14 -7 -13 -19 3 -7 11 -27 25 -44 32 -35 15 -83 0
-112 -35 -26 -30 -48 -103 -48 -156 0 -39 4 -51 21 -60 32 -17 46 5 58 90 5
41 16 78 23 82 24 15 48 9 57 -13 5 -13 13 -32 17 -43 4 -11 13 -45 18 -75 9
-47 15 -56 35 -58 39 -6 44 10 27 86 -9 38 -18 76 -21 84 -5 12 4 12 62 3 67
-11 68 -12 65 -41 -2 -16 -8 -46 -13 -67 -13 -50 -4 -77 26 -77 31 0 32 3 46
91 7 41 15 77 18 81 3 4 28 9 54 12 26 2 54 10 63 16 25 22 -10 50 -62 50 -58
0 -74 8 -74 36 0 13 -7 42 -16 64 -16 41 -39 51 -62 28z"/>
<path d="M17073 6552 c-24 -19 -53 -80 -53 -112 0 -11 -5 -28 -11 -38 -9 -14
-6 -29 15 -69 34 -68 57 -83 127 -83 60 0 84 14 77 47 -3 15 -12 17 -49 15
-34 -2 -52 3 -70 17 -30 24 -23 31 38 42 59 11 113 47 113 75 0 24 -64 97 -95
109 -42 15 -71 14 -92 -3z m88 -73 c16 -11 29 -24 29 -29 0 -9 -82 -25 -98
-19 -15 6 7 69 24 69 9 0 29 -9 45 -21z"/>
<path d="M16885 6434 c-14 -31 -25 -62 -25 -70 0 -18 -31 -47 -40 -37 -3 4
-12 28 -19 53 -22 77 -30 90 -51 90 -11 0 -23 -7 -27 -15 -7 -19 12 -92 43
-162 21 -49 26 -53 57 -53 25 0 38 7 53 28 24 34 41 69 48 102 3 14 16 37 30
51 33 36 25 69 -15 69 -26 0 -32 -7 -54 -56z"/>
<path d="M16477 5942 c-12 -13 -14 -29 -10 -60 3 -25 -1 -80 -11 -130 -38
-192 -37 -183 -21 -208 16 -24 63 -30 98 -12 10 5 52 12 95 16 69 6 77 9 80
29 3 17 -3 24 -23 29 -34 8 -99 8 -149 -1 l-38 -7 5 43 c28 252 30 288 18 303
-17 20 -24 20 -44 -2z"/>
<path d="M17220 5725 c-14 -8 -45 -21 -70 -30 -46 -16 -100 -56 -100 -75 0 -5
-4 -10 -9 -10 -6 0 -13 -21 -17 -47 -5 -36 -3 -54 12 -81 36 -67 102 -68 177
-2 l45 40 7 -38 c13 -61 14 -74 15 -146 1 -54 -3 -76 -18 -95 -36 -49 -107
-77 -184 -72 -9 1 -30 12 -46 26 -35 29 -62 32 -62 7 0 -50 81 -101 159 -102
54 0 121 31 166 76 63 62 67 201 13 404 -11 41 -21 93 -22 115 -1 46 -22 55
-66 30z m0 -99 c0 -1 -5 -18 -12 -37 -15 -43 -47 -79 -73 -79 -66 0 -56 62 15
97 41 20 70 28 70 19z"/>
<path d="M16818 5711 c-66 -42 -91 -111 -55 -153 44 -51 89 -60 169 -33 77 27
93 107 34 169 -29 31 -39 36 -77 35 -24 0 -56 -8 -71 -18z m106 -67 c20 -20
20 -28 -1 -45 -56 -44 -103 -47 -103 -6 1 53 69 87 104 51z"/>
<path d="M13517 6919 c-45 -26 -53 -116 -19 -201 18 -43 73 -79 126 -80 45 -1
86 20 86 44 0 17 -50 28 -69 16 -15 -9 -24 -7 -50 11 -18 13 -30 28 -28 35 1
6 23 21 48 33 24 11 55 32 67 46 23 24 23 26 7 50 -29 45 -125 71 -168 46z
m79 -59 c25 0 15 -18 -18 -29 -37 -13 -42 -10 -33 19 4 14 12 19 22 16 8 -3
21 -6 29 -6z"/>
<path d="M7883 6908 c-13 -6 -23 -16 -23 -23 0 -6 -16 -26 -35 -44 -38 -34
-44 -61 -19 -82 14 -12 24 -5 75 50 61 65 67 79 47 99 -14 14 -16 14 -45 0z"/>
<path d="M13806 6884 c-21 -14 -44 -40 -53 -57 -8 -18 -20 -42 -27 -55 -25
-44 11 -141 49 -129 13 5 34 64 34 103 1 17 11 46 24 65 18 27 31 35 59 37 68
6 53 62 -17 62 -17 0 -48 -12 -69 -26z"/>
<path d="M9793 6849 c-19 -19 -15 -40 12 -73 20 -25 26 -28 39 -17 23 19 20
36 -11 71 -23 25 -30 29 -40 19z"/>
<path d="M10571 6816 c-9 -11 -10 -25 -2 -53 6 -21 11 -55 11 -75 0 -28 5 -40
22 -49 18 -10 24 -8 35 7 7 10 11 25 9 33 -3 9 -8 42 -12 74 -4 41 -12 60 -25
67 -23 13 -24 13 -38 -4z"/>
<path d="M11695 6795 c-16 -7 -45 -19 -63 -26 -24 -9 -32 -17 -30 -32 6 -37
31 -42 87 -19 29 12 53 17 56 11 4 -5 19 -9 36 -9 25 0 29 4 29 28 0 55 -51
76 -115 47z"/>
<path d="M13999 6738 c-6 -13 -24 -36 -40 -53 -15 -16 -32 -42 -38 -57 -9 -24
-7 -29 10 -38 21 -12 59 -5 59 10 0 6 15 33 33 62 44 70 49 85 31 92 -28 11
-43 6 -55 -16z"/>
<path d="M11164 6716 c-23 -17 -55 -39 -73 -48 -33 -18 -41 -48 -17 -67 17
-14 28 -9 100 39 44 30 56 47 56 80 0 30 -23 29 -66 -4z"/>
<path d="M11922 6728 c-24 -24 -14 -57 26 -77 20 -10 46 -28 56 -40 11 -12 31
-21 46 -21 22 0 29 6 35 27 7 28 -9 47 -65 75 -14 7 -37 20 -52 30 -31 21 -31
21 -46 6z"/>
<path d="M9887 6712 c-24 -26 -21 -34 18 -62 20 -14 49 -37 65 -52 16 -16 34
-28 38 -28 16 0 41 35 34 46 -10 16 -124 114 -132 114 -4 0 -14 -8 -23 -18z"/>
<path d="M7611 6670 c-7 -3 -34 -6 -61 -6 -44 1 -50 -1 -55 -22 -9 -37 12 -55
59 -49 106 14 122 21 112 55 -7 22 -37 34 -55 22z"/>
<path d="M15354 6665 c-4 -9 -2 -39 5 -67 6 -27 11 -63 11 -79 0 -25 -3 -29
-22 -25 -103 21 -136 11 -124 -37 6 -26 9 -27 70 -27 41 0 66 -4 68 -12 3 -7
1 -34 -3 -62 -5 -27 -6 -53 -2 -59 3 -5 0 -27 -7 -48 -9 -26 -10 -42 -3 -51 6
-7 13 -25 17 -40 5 -22 13 -28 49 -33 41 -6 75 8 187 75 144 85 174 100 208
100 50 1 73 20 79 68 5 38 4 41 -31 57 -20 10 -36 24 -36 31 0 8 -7 14 -15 14
-15 0 -178 68 -230 97 -45 24 -139 86 -145 95 -4 4 -20 11 -38 14 -25 5 -33 3
-38 -11z"/>
<path d="M11463 6640 c-9 -16 -21 -30 -26 -30 -4 0 -14 -15 -22 -34 -30 -70
15 -91 59 -28 15 22 38 49 52 61 25 21 25 23 8 42 -25 27 -50 24 -71 -11z"/>
<path d="M7348 6635 c-3 -3 -39 -6 -82 -6 -61 -1 -78 -4 -85 -18 -20 -37 2
-46 106 -43 54 2 101 6 105 8 5 3 8 18 8 35 0 24 -4 29 -23 29 -13 0 -26 -2
-29 -5z"/>
<path d="M10718 6574 c-13 -12 -9 -31 8 -48 12 -13 39 -16 125 -16 108 0 109
0 109 24 0 19 -6 25 -32 29 -66 11 -203 19 -210 11z"/>
<path d="M10111 6546 c-22 -27 -5 -43 69 -66 74 -23 100 -21 100 5 0 25 -20
39 -75 54 -27 7 -57 15 -66 18 -8 2 -21 -3 -28 -11z"/>
<path d="M10458 6529 c-21 -12 -24 -42 -5 -57 12 -10 73 -10 83 1 3 3 16 2 29
-3 29 -11 48 8 43 42 -3 21 -9 23 -68 25 -36 2 -73 -2 -82 -8z"/>
<path d="M12119 6519 c-13 -24 -12 -25 63 -64 26 -14 49 -29 53 -35 3 -5 22
-10 41 -10 31 0 34 2 34 30 0 17 -5 30 -11 30 -5 0 -7 5 -4 10 3 6 -2 10 -12
10 -10 0 -40 11 -67 25 -60 31 -82 31 -97 4z"/>
<path d="M13009 6492 c-5 -13 -9 -26 -9 -30 0 -22 68 -31 186 -23 7 1 14 7 17
15 4 10 -9 24 -38 41 -35 20 -55 25 -96 23 -43 -3 -53 -7 -60 -26z"/>
<path d="M14916 6501 c-18 -20 -18 -22 -1 -41 15 -17 30 -19 106 -19 76 0 90
3 99 19 13 24 -4 36 -60 43 -25 3 -63 9 -85 12 -33 6 -44 3 -59 -14z"/>
<path d="M12698 6493 c-16 -20 0 -45 38 -55 37 -10 143 7 162 26 8 8 12 21 9
29 -8 21 -191 21 -209 0z"/>
<path d="M10641 6482 c-21 -16 -21 -19 -7 -85 8 -38 16 -70 18 -72 4 -4 39 -8
56 -6 17 1 15 47 -4 76 -10 16 -14 34 -9 54 9 40 -23 59 -54 33z"/>
<path d="M13288 6475 c-17 -39 6 -56 78 -58 75 -2 126 17 122 47 -3 19 -10 21
-70 22 -36 1 -78 4 -92 8 -22 5 -28 2 -38 -19z"/>
<path d="M13573 6488 c-31 -15 -36 -35 -12 -59 14 -14 26 -18 37 -12 9 4 47 8
84 8 59 0 70 3 84 23 9 13 14 24 13 26 -7 4 -149 26 -167 25 -9 0 -27 -5 -39
-11z"/>
<path d="M12540 6480 c-14 -5 -51 -14 -82 -20 -51 -10 -58 -14 -58 -35 0 -36
27 -45 85 -29 28 8 64 17 80 20 41 9 53 20 53 49 0 21 -5 25 -27 24 -14 0 -37
-4 -51 -9z"/>
<path d="M13869 6469 c-20 -38 8 -52 112 -57 92 -5 108 1 109 34 0 14 -115 44
-169 44 -31 0 -43 -5 -52 -21z"/>
<path d="M14520 6465 c-13 -35 -14 -34 18 -46 30 -12 213 -13 223 -1 4 4 3 16
-1 28 -7 19 -19 22 -97 27 -48 3 -98 9 -110 13 -18 5 -25 1 -33 -21z"/>
<path d="M14202 6459 c-41 -44 -20 -58 80 -54 81 3 98 8 98 29 0 24 -24 35
-91 42 -61 6 -68 5 -87 -17z"/>
<path d="M11318 6445 c-6 -14 -14 -25 -18 -25 -4 0 -10 -8 -14 -17 -23 -65
-24 -72 -9 -77 28 -11 41 -6 52 22 6 15 25 42 41 61 23 26 28 37 19 47 -19 23
-58 17 -71 -11z"/>
<path d="M3001 6421 c-19 -12 -8 -36 26 -58 15 -10 33 -22 39 -28 27 -25 93
-151 114 -215 26 -81 23 -130 -11 -166 -43 -45 10 -75 60 -34 21 18 23 29 24
97 0 70 -4 88 -43 178 -76 175 -155 260 -209 226z"/>
<path d="M2562 6277 c-8 -10 -9 -28 -4 -59 9 -43 8 -45 -20 -56 -36 -13 -36
-37 1 -57 22 -11 31 -23 33 -47 2 -27 8 -34 30 -36 24 -3 27 0 30 35 4 51 24
47 86 -19 45 -47 53 -51 103 -55 66 -5 86 5 70 36 -8 14 -22 21 -44 22 -18 0
-40 4 -51 8 -16 6 -13 11 22 33 77 51 62 111 -31 123 -46 7 -53 5 -72 -17 -30
-34 -82 -28 -91 11 -17 76 -21 86 -36 89 -8 2 -20 -3 -26 -11z m226 -139 c-7
-19 -38 -22 -38 -4 0 10 9 16 21 16 12 0 19 -5 17 -12z"/>
<path d="M7342 6278 c-6 -6 -12 -21 -12 -32 -1 -12 -9 -39 -20 -61 -11 -22
-20 -47 -20 -55 0 -8 -9 -28 -20 -45 -11 -16 -20 -39 -20 -50 0 -11 -9 -38
-20 -60 -23 -48 -26 -91 -6 -98 19 -7 33 11 56 70 20 54 35 61 91 43 29 -10
40 -20 44 -42 12 -51 74 -59 75 -9 1 12 6 9 23 -11 32 -38 121 -44 132 -8 9
29 -9 47 -43 42 -30 -4 -56 16 -44 34 4 6 27 22 52 36 34 19 45 31 45 49 0 20
-5 24 -28 22 -67 -5 -137 -69 -137 -125 0 -17 -4 -27 -10 -23 -5 3 -10 19 -10
34 0 15 -4 31 -9 37 -10 11 -50 176 -53 224 -3 29 -7 35 -28 38 -14 2 -31 -3
-38 -10z m32 -155 c3 -16 9 -39 12 -51 7 -24 7 -24 -25 -8 -17 9 -31 18 -31
20 0 14 24 66 30 66 4 0 10 -12 14 -27z"/>
<path d="M11100 6253 c-8 -3 -26 -14 -39 -24 -13 -11 -31 -19 -41 -19 -9 0
-25 -9 -35 -20 -15 -16 -15 -22 -5 -35 18 -21 35 -19 97 12 52 27 74 57 58 82
-7 12 -12 12 -35 4z"/>
<path d="M2044 6231 c-46 -28 -66 -79 -65 -167 0 -94 33 -174 80 -198 34 -18
67 -21 76 -6 8 14 -13 50 -30 50 -28 0 -63 63 -70 126 -9 73 12 128 57 153 19
11 28 23 26 36 -4 27 -36 30 -74 6z"/>
<path d="M10735 6219 c-4 -11 -5 -21 -3 -22 1 -2 24 -21 50 -45 53 -46 72 -52
88 -23 14 28 5 45 -40 70 -22 12 -40 26 -40 32 0 19 -49 9 -55 -12z"/>
<path d="M2948 6212 c-22 -13 -29 -27 -34 -65 -4 -26 -10 -50 -15 -52 -13 -9
11 -64 33 -76 37 -20 51 -4 45 52 -8 61 7 99 39 99 12 0 30 7 39 16 38 39 -52
61 -107 26z"/>
<path d="M2145 6209 c-4 -6 0 -29 8 -52 38 -107 68 -221 64 -238 -7 -27 25
-64 48 -55 25 9 15 80 -30 221 -19 60 -35 116 -35 122 0 16 -46 17 -55 2z"/>
<path d="M8605 6210 c-4 -6 -2 -16 3 -23 5 -7 13 -38 17 -70 l7 -58 -32 16
c-29 15 -34 15 -47 2 -22 -22 -8 -53 30 -63 31 -9 32 -11 37 -79 4 -62 7 -70
26 -73 25 -4 34 19 34 85 l0 41 60 4 c57 3 60 2 65 -22 7 -30 33 -63 61 -78
29 -15 105 -18 131 -4 12 7 35 9 53 5 32 -6 32 -6 30 33 -5 70 -1 84 25 96 29
13 31 44 3 62 -29 17 -75 -35 -83 -94 -6 -40 -11 -49 -31 -54 -65 -17 -144 23
-138 69 4 40 42 92 79 109 41 20 52 35 34 47 -42 27 -112 -18 -144 -93 -11
-24 -20 -44 -20 -46 -1 -1 -18 5 -38 13 -20 8 -48 15 -62 15 -22 0 -25 4 -25
38 0 35 -16 93 -33 120 -10 15 -33 16 -42 2z"/>
<path d="M10087 6168 c-15 -12 -15 -19 -1 -78 26 -116 28 -134 16 -126 -17 10
-68 -23 -81 -51 -24 -53 -5 -101 49 -123 55 -23 152 24 137 65 -7 17 -48 20
-64 4 -16 -16 -67 -7 -71 13 -4 21 44 36 61 19 15 -15 47 -14 53 3 3 7 -4 40
-14 72 -11 33 -23 88 -27 124 -7 61 -18 90 -34 90 -4 0 -15 -6 -24 -12z"/>
<path d="M9680 6155 c-8 -10 -9 -19 -3 -27 6 -7 13 -32 16 -55 5 -42 4 -43
-23 -43 -37 0 -49 -20 -24 -36 58 -39 57 -38 47 -86 -12 -56 6 -112 34 -106
14 2 19 15 21 53 4 76 10 95 32 95 16 0 20 -7 20 -31 0 -45 45 -114 86 -134
47 -22 99 -13 107 17 9 33 -8 47 -51 41 -29 -4 -41 0 -56 16 -19 21 -19 21 17
21 74 0 112 40 82 87 -19 28 -53 37 -109 29 -25 -4 -47 -3 -50 2 -3 6 -22 13
-41 16 -30 6 -35 11 -35 36 0 33 -35 120 -48 120 -5 0 -15 -7 -22 -15z"/>
<path d="M2331 6099 c-49 -49 -60 -82 -40 -118 23 -41 62 -40 104 2 19 19 37
31 40 26 3 -4 19 -17 35 -29 l29 -21 7 25 c4 19 -1 34 -19 56 -14 16 -31 46
-38 65 -11 30 -18 35 -45 35 -24 0 -42 -10 -73 -41z"/>
<path d="M11550 6116 c-13 -16 -10 -138 5 -183 6 -20 4 -23 -17 -23 -45 0 -68
-26 -68 -78 0 -68 8 -89 38 -101 52 -21 127 10 139 57 3 14 1 39 -6 56 -14 35
-15 40 -36 121 -8 33 -14 82 -13 110 2 39 0 50 -13 53 -9 1 -22 -4 -29 -12z
m30 -285 c15 -29 12 -39 -10 -46 -27 -9 -50 11 -50 41 0 19 5 24 25 24 14 0
29 -8 35 -19z"/>
<path d="M12839 6114 c-11 -13 -10 -19 1 -37 7 -12 14 -42 15 -68 1 -25 4 -50
8 -56 3 -5 7 -34 8 -64 2 -59 -10 -90 -67 -169 -19 -26 -34 -53 -34 -60 0 -10
-12 -11 -47 -5 -27 4 -64 10 -83 12 -60 7 -982 1 -1583 -11 -248 -5 -337 -4
-332 4 4 6 -10 27 -32 47 -61 58 -73 81 -73 149 0 64 14 118 36 145 17 19 18
45 2 55 -18 11 -65 -50 -82 -107 -31 -103 -17 -174 50 -256 l36 -44 -183 2
c-101 0 -200 5 -219 9 -19 5 -120 12 -225 15 -179 6 -266 14 -360 35 -22 5
-80 10 -129 11 -49 1 -106 6 -125 11 -20 4 -54 11 -76 15 -50 9 -808 7 -894
-2 -41 -4 -103 0 -175 11 -93 14 -124 15 -192 6 -108 -16 -153 -15 -256 5 -91
17 -106 15 -203 -20 -43 -16 -233 -9 -342 12 -85 16 -94 16 -107 2 -19 -22 -5
-55 31 -69 33 -12 215 -33 293 -33 68 0 170 17 184 31 13 13 90 13 136 0 49
-14 169 -15 265 -3 50 6 106 6 150 1 39 -5 142 -9 230 -7 580 7 894 1 947 -20
15 -6 44 -9 65 -7 40 3 259 -21 274 -30 8 -4 191 -17 559 -39 133 -8 477 -9
860 -3 554 10 1064 19 1090 21 14 1 59 -2 100 -6 93 -9 262 -18 401 -22 58 -1
121 -7 140 -13 35 -11 56 -11 286 3 89 5 136 5 145 -3 7 -5 32 -15 54 -21 33
-9 49 -8 77 4 50 21 320 21 397 0 30 -8 98 -15 150 -16 52 0 111 -4 130 -9
125 -32 513 -42 642 -18 32 6 66 8 77 5 11 -3 38 -1 59 4 21 4 60 10 87 13 28
2 61 7 75 10 24 5 119 14 223 21 45 2 47 1 47 -24 0 -14 -5 -44 -10 -66 -6
-27 -5 -44 2 -53 8 -9 8 -16 0 -24 -21 -21 6 -58 45 -58 24 0 193 86 262 133
29 20 61 32 93 35 31 3 48 9 48 18 0 7 6 11 14 8 8 -3 19 3 26 15 18 34 -34
121 -72 121 -28 0 -73 26 -163 93 -44 33 -103 71 -132 85 -45 22 -56 24 -78
14 -19 -9 -25 -17 -20 -31 3 -10 -1 -24 -10 -31 -8 -7 -12 -17 -8 -22 3 -6 7
-34 8 -64 2 -52 1 -52 -31 -59 -18 -3 -79 -10 -136 -15 -57 -6 -134 -15 -173
-20 -156 -23 -227 -30 -365 -35 -80 -3 -159 -9 -177 -14 -17 -5 -34 -7 -36 -5
-3 3 -22 7 -43 9 -22 2 -95 11 -164 20 -69 9 -172 17 -230 19 -58 2 -118 9
-133 15 -17 6 -131 13 -283 16 -141 3 -264 9 -274 15 -18 10 -146 6 -285 -8
-50 -6 -85 -5 -93 1 -7 5 -28 7 -47 4 -45 -7 -52 6 -22 45 43 57 77 139 77
186 0 46 -34 203 -51 234 -12 22 -32 23 -50 2z"/>
<path d="M7778 6093 c-35 -5 -78 -56 -78 -92 0 -16 11 -40 24 -54 20 -21 31
-25 70 -23 59 3 76 18 51 46 -12 13 -28 19 -49 17 -46 -3 -40 24 11 48 23 11
42 25 43 31 0 14 -21 34 -34 33 -6 -1 -23 -4 -38 -6z"/>
<path d="M7930 6081 c-37 -19 -60 -52 -60 -87 0 -25 42 -74 64 -74 8 0 18 -4
21 -10 18 -29 134 5 136 40 1 17 4 8 13 -32 4 -16 18 -34 34 -42 23 -12 32
-12 60 0 18 7 35 21 38 31 3 10 12 31 19 47 l13 29 7 -24 c10 -31 34 -59 52
-59 8 0 21 -7 30 -16 9 -8 25 -14 36 -12 17 3 20 11 21 52 1 38 6 52 23 63 21
14 23 13 43 -27 13 -26 20 -55 18 -78 -3 -32 0 -37 21 -40 46 -7 50 49 9 131
-59 117 -127 116 -168 -3 -10 -30 -19 -47 -19 -38 -1 10 -7 32 -15 50 -8 18
-20 48 -27 66 -9 25 -17 32 -32 30 -21 -3 -41 -34 -71 -110 -8 -21 -20 -38
-25 -38 -14 0 -14 73 -1 86 15 15 1 44 -21 44 -11 0 -26 -14 -37 -36 l-19 -36
-13 31 c-16 39 -64 81 -93 81 -12 0 -38 -8 -57 -19z m87 -63 c28 -26 29 -44 4
-58 -26 -13 -26 -13 -55 14 -30 27 -32 41 -8 55 25 15 33 13 59 -11z"/>
<path d="M12487 6062 c-39 -43 -13 -66 62 -57 55 7 66 0 75 -41 7 -31 7 -31
-42 -36 -64 -6 -122 -41 -122 -74 0 -63 85 -85 153 -38 45 30 58 27 89 -20 25
-39 40 -48 63 -40 29 12 10 58 -54 127 -18 20 -25 37 -23 58 4 31 -19 91 -46
122 -22 25 -132 24 -155 -1z"/>
<path d="M10870 6035 c-7 -9 -12 -36 -12 -60 2 -41 0 -45 -20 -45 -26 0 -71
-43 -82 -78 -21 -66 60 -145 127 -123 17 6 49 26 70 45 43 38 43 54 3 101 -27
31 -52 106 -43 130 15 37 -18 60 -43 30z m24 -197 c18 -36 10 -48 -35 -48 -34
0 -53 23 -45 55 5 20 13 25 35 25 23 0 33 -7 45 -32z"/>
<path d="M9238 6029 c-65 -17 -71 -26 -65 -97 6 -81 33 -112 97 -112 54 0 70
8 70 37 0 23 -2 24 -40 18 -61 -10 -68 4 -15 31 73 38 80 48 61 88 -13 27 -23
35 -50 38 -18 2 -45 1 -58 -3z m42 -63 c-8 -8 -26 -17 -38 -21 -22 -6 -23 -5
-13 14 8 13 22 21 38 21 24 0 25 -2 13 -14z"/>
<path d="M10278 6013 c-21 -5 -35 -50 -20 -65 14 -14 53 -6 66 14 8 14 6 22
-9 36 -11 10 -28 17 -37 15z"/>
<path d="M12038 5985 c-24 -19 -51 -47 -59 -63 -8 -15 -20 -31 -26 -35 -38
-24 18 -137 60 -121 15 5 18 16 16 62 -2 48 1 59 26 87 15 18 41 36 57 39 30
6 38 32 16 54 -20 20 -42 14 -90 -23z"/>
<path d="M1135 5996 c-16 -7 -54 -30 -84 -50 -29 -20 -60 -36 -70 -36 -17 0
-47 -38 -43 -54 2 -5 -2 -12 -9 -16 -6 -4 -12 -21 -14 -38 -1 -17 -10 -43 -19
-58 -10 -14 -16 -37 -13 -50 2 -14 -3 -30 -13 -39 -9 -9 -25 -33 -35 -55 -10
-22 -22 -40 -26 -40 -4 0 -18 -18 -30 -40 -13 -22 -26 -40 -31 -40 -4 0 -8 -6
-8 -14 0 -8 -12 -29 -26 -46 -25 -29 -26 -35 -20 -103 5 -51 14 -83 32 -110
14 -21 23 -46 20 -55 -4 -11 7 -31 30 -56 19 -21 49 -68 65 -105 58 -129 62
-135 115 -152 77 -26 113 -16 182 50 47 45 65 56 92 56 31 0 36 -5 63 -55 15
-30 37 -58 47 -62 10 -4 21 -11 25 -17 12 -21 87 -52 124 -53 21 0 48 5 62 12
13 7 31 16 39 20 16 7 58 85 59 109 1 8 8 22 17 32 16 18 63 99 89 157 9 18
30 56 47 84 36 58 45 125 23 168 -7 14 -15 41 -19 60 -4 24 -21 51 -51 80 -25
25 -45 53 -45 65 0 12 -11 32 -25 45 -14 13 -25 35 -25 49 0 14 -11 60 -25
102 -46 136 -157 231 -288 244 -96 10 -152 16 -167 20 -8 2 -28 -2 -45 -9z
m210 -81 c99 -19 188 -93 220 -185 8 -23 15 -44 15 -46 0 -3 -110 35 -131 47
-10 5 -102 11 -206 14 -157 4 -192 3 -208 -10 -51 -38 -73 0 -35 62 20 34 56
73 66 73 3 0 18 8 32 19 55 38 136 47 247 26z m-415 -345 c0 -6 -5 -19 -11
-29 -19 -30 -2 -69 41 -96 49 -31 55 -31 94 -2 75 56 124 77 178 77 50 0 78
-12 78 -32 0 -4 -16 -8 -36 -8 -42 0 -109 -36 -123 -67 -6 -12 -23 -30 -38
-39 -15 -10 -41 -29 -56 -43 l-29 -26 -18 23 c-12 15 -28 22 -41 20 -30 -4
-33 -20 -9 -48 11 -13 20 -32 20 -44 1 -12 15 -46 33 -75 25 -43 40 -57 66
-64 39 -10 63 5 43 25 -7 7 -12 20 -12 30 0 10 -9 23 -20 30 -11 7 -20 16 -20
20 0 4 25 26 55 49 54 41 56 41 125 37 68 -4 71 -5 119 -52 46 -46 55 -69 30
-86 -4 -3 -9 -19 -11 -35 -3 -27 0 -30 30 -33 31 -3 34 0 54 47 11 28 24 51
28 51 4 0 20 19 35 42 26 39 27 42 9 55 -21 16 -40 17 -49 3 -3 -5 -9 -10 -13
-10 -11 0 -108 83 -131 111 -24 31 -41 91 -20 72 7 -7 21 -13 31 -13 10 0 41
-11 68 -25 27 -14 60 -25 73 -25 31 0 107 57 107 81 0 24 25 25 42 2 7 -10 22
-23 33 -29 11 -6 20 -20 20 -32 0 -11 7 -28 16 -38 9 -11 24 -33 33 -51 15
-31 15 -35 -14 -113 -39 -108 -93 -204 -123 -217 -19 -9 -26 -22 -31 -62 -7
-52 -26 -80 -26 -39 0 46 -55 108 -112 127 -48 16 -65 6 -73 -39 -6 -33 -3
-43 21 -70 42 -47 88 -65 130 -52 27 8 34 7 34 -4 0 -7 -18 -19 -40 -25 -35
-11 -47 -10 -87 7 -36 15 -52 29 -70 64 -13 25 -30 51 -38 59 -10 10 -11 18
-3 31 8 12 6 32 -7 76 -21 72 -55 106 -99 102 -29 -3 -31 -6 -34 -45 -2 -24
-7 -43 -12 -43 -15 0 -41 -57 -34 -74 3 -9 10 -16 15 -16 21 0 6 -29 -32 -64
-53 -47 -70 -56 -111 -56 -47 0 -72 20 -63 49 6 21 8 21 24 7 22 -20 65 -21
81 -1 7 8 19 15 26 15 7 0 20 12 28 27 12 24 12 31 0 55 -17 32 -38 35 -91 13
-50 -21 -73 -47 -67 -76 4 -24 4 -24 -8 1 -7 14 -25 37 -39 52 -14 15 -40 55
-58 88 -17 32 -36 62 -41 65 -6 4 -10 17 -10 31 l0 25 40 -22 c24 -14 40 -30
40 -41 0 -10 7 -21 16 -25 10 -4 14 -13 10 -29 -5 -17 -1 -26 14 -34 17 -9 25
-6 50 18 33 34 34 65 1 70 -15 2 -21 9 -17 18 3 8 -1 17 -9 20 -9 4 -15 19
-15 35 0 19 -5 29 -14 29 -11 0 -13 9 -9 35 5 30 3 35 -14 35 -10 0 -24 -5
-31 -12 -9 -9 -12 -7 -12 9 0 13 -8 24 -20 28 -14 4 -20 15 -20 36 0 31 25 89
38 89 4 0 18 18 32 40 22 36 60 55 60 30z"/>
<path d="M1664 5356 c-15 -12 -17 -17 -6 -27 17 -18 15 -29 -7 -29 -28 0 -33
-25 -10 -54 l20 -26 -25 0 c-20 0 -30 -8 -42 -33 -9 -20 -28 -38 -45 -44 -26
-10 -29 -15 -23 -40 10 -41 18 -46 61 -36 28 6 39 14 41 31 2 12 7 22 12 22 5
0 20 10 34 23 23 22 24 25 11 50 -12 23 -12 27 1 27 9 0 14 11 14 30 0 17 3
29 8 29 34 -6 49 33 26 68 -17 26 -42 29 -70 9z"/>
<path d="M9466 5985 c-70 -35 -86 -53 -86 -91 0 -70 101 -86 139 -22 l19 30
23 -31 c25 -34 36 -37 64 -17 17 12 16 16 -27 62 -25 27 -47 58 -49 69 -6 29
-27 29 -83 0z"/>
<path d="M11740 5943 c-17 -19 -31 -38 -31 -43 -2 -15 -4 -23 -12 -47 -9 -25
34 -99 62 -108 67 -21 151 5 151 46 0 20 -4 21 -62 15 l-63 -7 43 27 c37 23
42 30 42 63 -1 48 -29 84 -69 86 -25 1 -38 -6 -61 -32z m73 -29 c11 -12 -13
-44 -33 -44 -23 0 -24 4 -10 31 11 19 31 25 43 13z"/>
<path d="M11164 5958 c-13 -6 -27 -27 -34 -51 -7 -23 -18 -50 -26 -61 -14 -21
-12 -24 -44 62 -14 36 -18 38 -44 19 -17 -12 -17 -17 -5 -53 23 -66 44 -99 71
-108 39 -14 54 -2 77 61 12 32 27 68 33 80 17 33 0 64 -28 51z"/>
<path d="M11310 5941 c-77 -42 -109 -107 -70 -148 11 -13 32 -23 45 -23 25 0
65 31 65 50 0 19 28 10 44 -15 19 -29 41 -32 55 -7 7 13 2 25 -20 52 -16 19
-34 52 -40 72 -11 43 -26 47 -79 19z"/>
<path d="M2858 5899 c-26 -15 -27 -12 43 -167 25 -55 24 -69 -3 -77 -41 -11
-68 -28 -68 -42 0 -7 -4 -13 -8 -13 -16 0 -52 46 -52 67 0 11 -7 26 -15 33
-22 18 -55 -1 -112 -64 -37 -41 -44 -55 -41 -84 6 -74 89 -90 131 -26 24 37
38 42 57 19 7 -8 19 -15 26 -15 8 0 32 -12 54 -26 35 -24 45 -26 81 -18 39 9
52 23 86 92 3 8 43 -24 53 -43 26 -49 121 -73 154 -39 17 17 22 64 6 64 -5 0
-21 -5 -35 -12 -19 -8 -31 -8 -50 0 -29 13 -34 42 -7 42 22 0 85 56 80 72 -14
40 -131 75 -163 48 -9 -8 -15 -29 -15 -56 0 -24 -4 -44 -8 -44 -28 0 -95 116
-137 234 -22 63 -30 71 -57 55z m107 -329 c0 -19 -45 -26 -56 -8 -15 23 -10
29 24 26 20 -2 32 -8 32 -18z"/>
<path d="M12230 5848 c-67 -85 -78 -105 -68 -121 15 -27 46 -20 70 17 13 18
36 52 52 75 16 23 27 43 25 45 -2 3 -15 7 -29 10 -20 4 -30 -1 -50 -26z"/>
<path d="M10298 5863 c-16 -4 -36 -48 -27 -57 15 -14 53 -8 65 10 13 18 12 23
-3 36 -10 8 -26 13 -35 11z"/>
<path d="M2176 5805 c-9 -9 -16 -17 -16 -18 0 -1 14 -40 30 -86 17 -46 30 -84
30 -86 0 -1 -21 0 -47 2 -41 3 -52 0 -76 -22 -25 -23 -28 -30 -22 -65 19 -111
122 -164 206 -107 19 13 42 26 52 30 9 3 22 17 27 29 7 19 4 28 -19 48 -35 31
-60 81 -91 180 -35 114 -43 125 -74 95z m44 -265 c22 -11 40 -22 40 -24 0 -3
3 -11 6 -20 7 -18 -49 -50 -75 -41 -34 11 -64 52 -57 79 8 32 32 33 86 6z"/>
<path d="M3400 5774 c-50 -17 -80 -46 -80 -76 0 -14 -5 -18 -19 -13 -32 10
-45 -18 -25 -57 37 -72 54 -89 88 -86 27 3 31 6 27 28 -2 14 -4 47 -5 74 -1
44 2 52 24 63 14 6 38 15 53 18 24 5 28 10 25 33 -4 33 -26 37 -88 16z"/>
<path d="M2533 5685 c-15 -11 -26 -35 -35 -75 -6 -33 -15 -60 -19 -60 -4 0
-21 19 -37 43 -20 29 -34 41 -48 39 -34 -6 -38 -20 -18 -58 39 -74 131 -119
163 -80 7 8 15 41 18 73 3 32 13 68 21 81 11 18 12 25 2 37 -16 19 -20 19 -47
0z"/>
<path d="M3737 5693 c-14 -26 -15 -66 -2 -102 11 -32 12 -43 2 -46 -39 -12
-164 -35 -190 -35 -17 0 -44 -4 -61 -10 -84 -26 -255 -60 -371 -75 -71 -9
-159 -22 -195 -30 -36 -8 -112 -19 -170 -25 -58 -6 -145 -15 -195 -20 -49 -6
-135 -15 -190 -20 -106 -11 -201 -32 -218 -49 -5 -5 -7 -17 -4 -25 8 -22 53
-20 177 4 56 11 125 20 153 20 29 1 99 7 157 14 58 7 137 14 175 15 64 1 125
11 270 41 28 6 88 13 135 15 47 3 114 14 150 24 36 11 128 31 205 46 77 14
152 28 166 31 30 7 33 0 44 -111 4 -33 9 -72 11 -88 7 -32 40 -55 57 -38 6 6
18 11 27 11 9 0 46 32 81 72 107 120 151 158 181 158 21 0 28 5 28 18 0 25
-31 52 -58 52 -12 0 -22 5 -22 10 0 6 -6 10 -13 10 -14 0 -144 64 -222 110
-48 28 -99 39 -108 23z"/>
<path d="M4333 5179 c-18 -5 -35 -14 -38 -19 -3 -6 -15 -10 -26 -10 -10 0 -19
-4 -19 -10 0 -5 -5 -10 -11 -10 -5 0 -40 -30 -77 -67 -37 -38 -87 -84 -111
-103 -23 -19 -73 -66 -109 -105 -37 -38 -80 -83 -96 -99 -55 -58 -114 -153
-135 -217 -12 -35 -25 -73 -30 -84 -14 -31 -28 -111 -41 -225 -6 -58 -18 -132
-26 -165 -23 -102 -25 -126 -26 -300 -1 -264 2 -366 13 -415 10 -49 46 -135
67 -160 24 -29 112 -151 122 -170 5 -10 40 -43 78 -74 37 -30 80 -66 95 -80
l28 -26 -41 -54 c-45 -62 -48 -74 -22 -106 16 -20 21 -21 62 -10 28 7 105 9
205 6 180 -6 278 -6 283 -1 9 9 -22 46 -49 60 -23 13 -29 22 -27 43 3 23 -1
27 -27 30 -36 4 -50 14 -128 89 -84 79 -136 123 -146 123 -5 0 -23 -22 -41
-50 -18 -27 -36 -50 -41 -50 -41 0 -166 120 -253 242 -98 138 -107 162 -116
322 -11 186 -11 463 -1 501 5 17 14 55 19 85 6 30 16 80 22 110 6 30 15 87 20
125 10 71 49 216 70 254 14 27 72 114 80 121 3 3 44 46 90 95 46 50 116 117
154 149 39 32 73 62 76 65 31 37 160 121 186 121 25 0 56 54 41 69 -13 13 -30
13 -74 0z"/>
<path d="M6544 5146 c-11 -28 1 -51 35 -68 18 -9 40 -27 49 -39 24 -35 92
-169 92 -182 0 -7 17 -55 39 -107 21 -53 50 -145 65 -205 14 -61 33 -136 41
-167 8 -32 15 -71 15 -87 0 -16 5 -42 10 -57 13 -34 31 -249 31 -379 1 -240
-21 -364 -93 -523 -15 -35 -28 -66 -28 -69 0 -3 -16 -28 -35 -54 -19 -27 -35
-51 -35 -54 0 -7 -79 -123 -105 -154 -35 -42 -55 -61 -65 -61 -16 0 -60 73
-60 102 0 28 -24 43 -53 32 -20 -7 -50 -52 -42 -64 3 -5 -7 -10 -22 -12 -27
-3 -28 -6 -33 -68 -4 -51 -13 -76 -38 -114 -33 -52 -39 -84 -22 -116 8 -15 20
-19 58 -17 26 2 52 6 59 10 25 16 105 24 141 15 20 -5 44 -9 52 -9 8 1 32 1
54 1 21 -1 50 7 64 16 24 16 25 17 7 30 -10 8 -25 14 -33 14 -15 0 -51 39 -52
56 0 6 -9 23 -20 36 l-19 25 38 39 c21 22 45 53 54 69 8 17 27 41 41 54 14 14
26 30 26 38 0 7 5 13 10 13 6 0 10 6 10 13 0 7 16 36 35 64 19 29 35 56 35 61
0 5 8 20 19 33 21 27 74 187 97 293 17 78 23 320 11 471 -9 115 -36 311 -47
350 -5 17 -18 71 -30 120 -28 123 -93 319 -148 443 -35 81 -58 116 -103 163
-57 59 -94 75 -105 45z"/>
<path d="M6934 5135 c-10 -15 -13 -32 -9 -42 12 -29 4 -159 -13 -233 -20 -84
36 -137 118 -110 37 12 42 12 59 -6 20 -21 101 -200 101 -224 0 -8 7 -27 14
-43 13 -24 21 -69 57 -312 22 -147 2 -400 -41 -535 -6 -19 -20 -69 -31 -110
-11 -41 -33 -102 -48 -135 -16 -33 -36 -77 -45 -98 -9 -21 -33 -62 -54 -90
-22 -29 -54 -79 -72 -112 -31 -57 -114 -170 -152 -208 -10 -10 -25 -32 -34
-49 -13 -25 -14 -32 -2 -39 30 -20 38 -14 112 79 32 39 62 72 67 72 5 0 9 4 9
9 0 14 63 122 119 206 26 39 63 106 81 150 19 44 37 85 40 90 9 14 44 128 81
265 29 103 32 133 36 290 4 149 2 190 -16 275 -11 55 -25 136 -30 180 -9 71
-50 208 -80 263 -6 10 -8 22 -5 25 3 3 -1 16 -10 29 -31 44 -14 52 31 14 26
-22 36 -24 91 -19 73 7 91 22 72 58 -7 14 -19 25 -26 25 -7 0 -26 16 -41 35
-15 19 -36 35 -46 35 -22 0 -247 217 -247 238 0 16 -39 51 -57 52 -7 0 -20
-11 -29 -25z"/>
<path d="M4503 5038 c-74 -50 -87 -58 -103 -65 -8 -3 -38 -23 -67 -44 -29 -22
-56 -39 -60 -39 -4 0 -25 -15 -46 -33 -39 -32 -39 -33 -20 -55 16 -20 21 -21
50 -10 25 9 35 9 47 -1 9 -8 16 -17 16 -22 0 -4 -32 -41 -71 -81 -59 -61 -81
-94 -129 -193 -32 -66 -68 -147 -80 -180 -12 -33 -30 -78 -40 -100 -49 -106
-64 -184 -65 -335 0 -133 2 -152 29 -235 47 -147 132 -347 164 -386 60 -74
124 -139 159 -161 24 -15 43 -32 43 -38 0 -5 5 -10 11 -10 9 0 116 -89 140
-118 67 -76 119 -121 152 -130 69 -19 94 15 35 46 -18 9 -58 42 -88 72 -77 78
-295 270 -307 270 -25 0 -163 191 -163 227 0 7 -4 21 -10 31 -19 35 -40 90
-71 182 -40 122 -51 288 -25 390 29 112 32 124 53 170 11 25 30 74 42 110 38
112 129 269 200 347 36 40 71 73 77 73 12 0 146 -93 184 -127 29 -27 34 -28
54 -7 12 11 13 20 6 34 -11 21 -12 187 -1 324 10 133 -20 157 -116 94z"/>
<path d="M19263 4762 c-6 -4 -18 -44 -26 -89 -13 -77 -13 -84 4 -99 33 -30 46
-10 75 118 13 58 -14 95 -53 70z"/>
<path d="M17586 4724 c-3 -9 -6 -26 -6 -39 0 -13 -4 -27 -10 -30 -14 -9 -13
-78 2 -93 15 -15 48 3 48 27 0 10 7 35 15 54 8 20 15 50 15 67 0 26 -3 30 -29
30 -17 0 -31 -6 -35 -16z"/>
<path d="M2557 4639 c-16 -9 -17 -20 -10 -107 9 -131 9 -181 0 -219 -7 -27 -5
-33 13 -43 16 -9 25 -8 37 2 14 11 15 35 10 182 -6 179 -13 206 -50 185z"/>
<path d="M3128 4614 c-12 -12 -14 -24 -7 -52 8 -37 0 -119 -22 -215 -9 -36 -8
-51 1 -62 17 -20 47 -19 59 2 8 16 13 15 48 -13 48 -39 79 -49 98 -34 24 20
17 40 -14 46 -17 4 -44 22 -61 40 -17 19 -35 34 -40 34 -6 0 -10 5 -10 10 0 6
9 10 20 10 47 0 110 42 110 73 0 18 -5 19 -42 13 -24 -3 -53 -9 -65 -12 -22
-6 -23 -4 -23 62 0 109 -14 136 -52 98z"/>
<path d="M5871 4511 c-12 -8 -13 -30 -6 -128 5 -65 7 -138 6 -162 -2 -61 30
-96 67 -72 11 6 11 13 3 27 -6 11 -14 91 -18 179 -7 130 -11 160 -23 162 -8 2
-21 -1 -29 -6z"/>
<path d="M6371 4461 c-9 -6 -15 -33 -17 -83 -2 -40 -6 -91 -8 -113 -3 -22 -5
-46 -5 -52 -1 -9 -21 -13 -66 -13 -81 0 -96 18 -46 57 33 26 42 63 15 63 -9 0
-39 -11 -66 -25 -48 -24 -51 -24 -64 -8 -7 10 -14 23 -14 30 -1 35 -80 43
-109 11 -48 -51 -33 -121 34 -152 42 -20 74 -20 96 0 17 15 20 15 45 -5 34
-27 85 -36 133 -23 34 8 42 7 59 -11 35 -34 52 -16 52 53 l0 60 62 -45 c69
-50 79 -53 104 -28 19 19 20 17 -55 66 -45 29 -47 39 -11 60 40 24 53 49 37
71 -11 16 -17 14 -70 -14 -31 -16 -57 -27 -58 -23 0 5 0 30 1 56 1 26 -4 55
-10 63 -14 16 -20 17 -39 5z m-301 -217 c0 -13 -4 -24 -10 -24 -14 0 -32 40
-26 57 9 22 36 -3 36 -33z"/>
<path d="M2920 4440 c-70 -37 -74 -101 -10 -170 29 -32 59 -37 104 -20 53 20
25 59 -41 60 -45 0 -58 64 -16 75 16 4 34 11 40 17 18 14 16 48 -1 48 -8 0
-20 2 -28 5 -7 2 -29 -4 -48 -15z"/>
<path d="M17536 4441 c-10 -11 -27 -53 -37 -93 l-20 -73 22 -17 c12 -10 27
-18 34 -18 15 0 28 27 19 41 -3 5 2 35 12 67 19 62 19 80 0 100 -10 10 -16 9
-30 -7z"/>
<path d="M19296 4435 c-19 -19 -20 -37 -4 -53 7 -7 12 -41 13 -79 0 -74 7 -93
34 -93 31 0 37 19 34 97 -5 107 -40 165 -77 128z"/>
<path d="M2703 4420 c-26 -10 -43 -39 -43 -72 0 -33 96 -83 132 -69 60 23 65
91 9 128 -36 24 -62 28 -98 13z"/>
<path d="M4697 4346 c-3 -8 0 -43 8 -78 12 -58 25 -162 28 -233 2 -22 8 -32
29 -39 15 -5 30 -7 33 -4 6 6 -27 259 -43 328 -8 37 -44 55 -55 26z"/>
<path d="M4245 4224 c-64 -33 -115 -105 -115 -163 0 -38 29 -88 55 -95 64 -18
178 1 189 31 4 10 14 13 29 9 13 -3 39 -1 58 4 27 8 41 7 65 -6 40 -22 97 -12
131 22 19 19 24 33 21 66 -2 35 -9 46 -38 66 -37 25 -80 23 -113 -6 -16 -14
-20 -13 -50 16 -62 60 -132 33 -131 -51 0 -23 3 -49 7 -58 6 -13 1 -19 -24
-28 -71 -25 -139 -7 -139 37 0 32 39 80 79 98 44 19 57 39 40 60 -15 18 -27
17 -64 -2z m191 -92 c6 -4 14 -17 18 -29 6 -19 3 -23 -12 -23 -25 0 -46 25
-38 45 6 16 15 19 32 7z m173 -31 c21 -13 5 -41 -23 -41 -27 0 -40 22 -23 39
13 13 27 14 46 2z"/>
<path d="M7958 4194 c-9 -19 -9 -57 1 -162 7 -75 13 -148 13 -162 0 -31 15
-51 34 -43 12 5 14 32 9 177 -4 94 -8 181 -11 194 -6 30 -32 28 -46 -4z"/>
<path d="M2280 4115 c-6 -8 -9 -19 -5 -25 4 -6 10 -43 15 -83 4 -40 11 -81 15
-93 6 -18 2 -20 -34 -20 -44 0 -86 -29 -102 -73 -13 -33 6 -85 42 -116 54 -45
150 -28 205 38 l25 30 -28 31 c-16 17 -34 47 -41 67 -16 46 -32 173 -25 198
12 45 -39 80 -67 46z m47 -323 c26 -31 17 -42 -38 -42 -23 0 -42 7 -54 20 -17
19 -17 21 1 41 23 26 61 18 91 -19z"/>
<path d="M19250 4118 c-6 -7 -24 -40 -40 -73 -18 -38 -29 -52 -29 -39 -1 33
-22 45 -57 34 -16 -5 -41 -12 -55 -15 -15 -2 -37 -13 -50 -24 -20 -16 -22 -22
-12 -43 l11 -25 72 18 c40 9 75 20 78 23 3 4 12 -8 19 -25 10 -23 18 -30 35
-27 17 2 24 12 30 42 12 55 27 72 44 48 8 -12 26 -19 49 -20 20 -1 51 -8 67
-17 60 -29 89 -15 68 35 -15 35 -99 75 -141 66 -24 -5 -28 -2 -31 22 -3 30
-38 42 -58 20z"/>
<path d="M2896 4074 c-9 -24 -7 -55 8 -114 15 -57 8 -76 -22 -65 -8 3 -27 -4
-43 -16 -23 -16 -29 -28 -29 -57 l-1 -37 -29 59 c-41 84 -51 93 -87 71 -15 -9
-44 -37 -63 -61 l-35 -44 -5 47 c-4 40 -9 49 -27 51 -25 4 -48 -30 -39 -55 8
-20 -3 -55 -14 -48 -5 3 -16 28 -25 55 -19 58 -27 65 -55 50 -25 -13 -25 -25
1 -91 37 -92 99 -132 133 -84 8 10 13 9 25 -6 9 -10 31 -22 49 -25 29 -6 37
-2 72 36 l40 43 15 -37 c15 -36 48 -58 73 -49 6 3 12 11 12 19 0 10 8 12 30 8
17 -4 46 0 71 10 l41 17 34 -31 c35 -30 52 -35 114 -30 44 3 50 12 50 81 0 71
16 94 67 94 31 0 39 4 41 21 4 26 -45 49 -84 40 -55 -14 -84 -64 -84 -147 0
-42 -3 -49 -20 -49 -21 0 -60 33 -60 50 0 6 16 20 35 31 19 11 37 30 41 41 19
60 -97 122 -127 67 -17 -33 -28 -11 -41 84 -11 80 -14 87 -34 87 -12 0 -25 -7
-28 -16z m8 -254 c30 -11 33 -25 10 -34 -19 -7 -44 10 -44 30 0 17 1 17 34 4z"/>
<path d="M7465 4075 c-47 -24 -79 -78 -72 -121 12 -70 70 -106 131 -80 52 22
46 51 -9 51 -51 0 -65 9 -65 44 0 27 26 61 47 61 17 0 64 41 58 51 -9 14 -56
10 -90 -6z"/>
<path d="M17447 4063 c-3 -16 -11 -51 -18 -80 -13 -61 -8 -83 21 -83 22 0 40
34 40 76 0 14 11 36 24 49 23 23 24 24 4 44 -28 31 -64 28 -71 -6z"/>
<path d="M7658 4075 c-3 -4 -13 -8 -22 -9 -43 -6 -79 -99 -53 -137 20 -28 117
-38 138 -13 11 13 14 11 25 -14 27 -66 174 -38 174 33 0 12 -9 34 -21 49 -16
20 -29 26 -59 26 -22 0 -43 -6 -50 -15 -12 -14 -17 -10 -39 32 -21 39 -32 49
-56 51 -17 2 -34 0 -37 -3z m40 -67 c17 -17 -4 -48 -33 -48 -17 0 -25 6 -25
18 0 35 35 53 58 30z m159 -74 c2 -6 -8 -14 -22 -16 -24 -5 -34 9 -18 26 10
10 36 3 40 -10z"/>
<path d="M3269 4044 c-18 -22 0 -47 37 -54 24 -5 28 -10 25 -30 -1 -14 -7 -33
-12 -42 -20 -37 -10 -83 25 -117 29 -28 37 -31 55 -22 27 15 26 26 -4 56 -36
37 -36 37 10 141 30 69 19 84 -62 84 -43 0 -64 -5 -74 -16z"/>
<path d="M5783 4014 c-3 -9 -3 -60 0 -115 4 -72 2 -99 -6 -97 -32 5 -79 -16
-104 -48 -32 -42 -33 -87 -2 -120 44 -47 123 -40 194 19 37 30 44 50 23 64
-32 20 -42 59 -45 178 -1 66 -3 123 -3 128 0 14 -51 7 -57 -9z m1 -290 c9 -8
16 -20 16 -25 0 -10 -42 -29 -66 -29 -23 0 -28 29 -9 50 22 24 38 25 59 4z"/>
<path d="M19559 3980 l-24 -20 28 -23 c15 -12 47 -39 71 -59 51 -44 72 -47 88
-13 10 23 8 29 -23 61 -28 30 -96 74 -112 74 -3 0 -15 -9 -28 -20z"/>
<path d="M6330 3955 c-11 -14 -11 -23 16 -191 4 -28 2 -32 -37 -47 -24 -9 -43
-16 -44 -14 0 1 -9 14 -18 29 -9 15 -17 34 -17 41 0 8 -13 20 -29 27 -26 10
-33 9 -52 -9 -13 -12 -28 -21 -35 -21 -7 0 -22 -12 -34 -27 l-22 -28 8 63 c6
59 5 62 -14 62 -28 0 -48 -33 -57 -93 -7 -55 -20 -53 -36 6 -14 56 -35 87 -59
87 -21 0 -36 -35 -22 -53 5 -7 17 -36 26 -64 17 -50 54 -93 81 -93 7 0 24 9
39 21 19 15 26 17 26 6 0 -23 35 -47 69 -47 24 0 41 9 63 32 l30 32 39 -41
c72 -78 113 -91 162 -53 31 25 29 25 73 -5 78 -53 115 -25 111 83 -2 61 1 73
18 86 11 9 27 16 36 16 9 0 19 10 22 22 12 43 -45 52 -91 13 -25 -21 -34 -23
-62 -15 -25 7 -41 6 -67 -6 -18 -9 -33 -21 -33 -27 0 -7 -3 -8 -10 -1 -5 5
-13 52 -16 104 -4 52 -11 101 -17 108 -13 16 -32 15 -47 -3z m36 -300 c17 -16
11 -35 -10 -35 -18 0 -39 27 -31 40 9 14 24 13 41 -5z m174 -9 c0 -34 -14 -40
-36 -15 -16 17 -16 22 -4 29 26 16 40 11 40 -14z"/>
<path d="M6736 3951 c-59 -7 -83 -33 -51 -57 11 -8 30 -12 43 -9 27 7 28 -7 7
-58 -22 -53 -19 -84 10 -103 36 -23 59 -3 50 43 -4 25 1 46 25 90 16 32 30 61
30 65 0 14 -32 38 -48 36 -9 0 -39 -4 -66 -7z"/>
<path d="M18816 3903 c-4 -5 -11 -8 -15 -8 -3 0 -17 -10 -31 -22 -13 -13 -28
-23 -33 -23 -15 0 -3 -63 14 -73 14 -9 26 -2 63 35 25 26 46 51 46 56 0 14
-36 43 -44 35z"/>
<path d="M4677 3816 c-20 -24 -52 -51 -71 -60 -46 -22 -52 -33 -30 -57 21 -24
45 -18 96 22 42 33 39 36 57 -65 16 -90 16 -94 -26 -105 -21 -6 -50 -11 -64
-11 -40 0 -53 -22 -31 -50 l18 -22 115 22 c62 12 139 22 169 21 66 -1 85 9 76
37 -8 25 -58 37 -112 29 -39 -7 -70 15 -78 55 -19 87 -26 133 -26 161 -1 36
-20 67 -42 67 -9 0 -32 -20 -51 -44z"/>
<path d="M19779 3784 c-11 -13 -10 -21 6 -50 10 -19 21 -50 24 -70 7 -44 33
-64 59 -48 43 29 -10 184 -64 184 -6 0 -17 -7 -25 -16z"/>
<path d="M4221 3776 c-7 -8 -10 -19 -7 -24 3 -5 -3 -17 -14 -27 -26 -24 -26
-29 12 -64 34 -31 33 -33 -23 -45 -40 -9 -44 -33 -9 -51 16 -8 38 -15 50 -15
14 0 20 -6 20 -23 0 -28 26 -67 46 -67 20 0 27 22 15 51 -13 35 3 59 39 59 24
0 30 -5 35 -31 8 -36 43 -54 64 -33 12 11 12 18 3 39 -15 31 -7 48 17 40 22
-7 44 17 35 39 -3 9 -20 20 -38 25 l-31 9 31 1 c30 1 64 27 64 49 0 6 -22 14
-50 18 -39 5 -50 10 -50 25 0 22 -32 41 -54 33 -9 -3 -16 -17 -16 -29 0 -18
-7 -25 -31 -30 -35 -8 -46 -1 -51 35 -4 29 -38 39 -57 16z m146 -129 c-4 -15
-67 -22 -67 -8 0 5 8 11 18 13 38 8 53 6 49 -5z"/>
<path d="M19174 3759 c-10 -12 -17 -23 -16 -25 2 -2 1 -22 -3 -43 -10 -60 29
-123 64 -102 6 4 10 16 9 27 -2 10 1 48 5 83 6 49 5 66 -5 72 -21 14 -33 11
-54 -12z"/>
<path d="M17303 3753 c-7 -2 -13 -12 -13 -21 0 -8 -9 -35 -21 -59 -25 -51 -22
-87 7 -91 15 -2 25 8 42 41 12 24 22 51 22 58 0 8 7 24 15 36 14 20 14 23 -4
33 -21 11 -29 11 -48 3z"/>
<path d="M3417 3708 c-23 -8 -28 -15 -25 -36 4 -35 33 -40 64 -11 13 12 24 26
24 30 0 17 -35 26 -63 17z"/>
<path d="M16484 3697 c-11 -7 -33 -22 -49 -35 -25 -20 -27 -25 -17 -47 14 -30
47 -33 62 -5 25 47 104 5 116 -62 6 -38 6 -38 -28 -38 -18 0 -54 -10 -78 -22
-80 -41 -88 -110 -17 -139 40 -17 114 2 143 37 l21 25 25 -33 c14 -18 30 -43
37 -55 15 -29 71 -33 71 -5 0 20 -39 82 -80 127 -22 24 -29 43 -33 91 -3 34
-13 78 -23 99 -29 63 -99 92 -150 62z"/>
<path d="M7441 3686 c-8 -10 -8 -21 -1 -40 16 -43 12 -56 -19 -62 -37 -8 -68
-38 -50 -50 7 -4 26 -10 43 -14 39 -8 41 -33 2 -40 -40 -7 -57 -37 -32 -56 11
-8 28 -14 38 -14 14 0 18 -8 18 -36 0 -45 15 -74 40 -74 18 0 20 7 20 56 l0
55 37 -3 c35 -3 38 -6 44 -41 7 -45 21 -62 44 -53 13 5 16 16 13 50 -3 44 -3
44 34 50 33 5 38 10 38 32 0 24 -3 26 -30 21 -19 -4 -34 -1 -45 9 -28 28 -16
56 30 71 19 6 31 17 33 31 3 19 -1 22 -32 22 -36 0 -49 11 -51 43 -2 27 -20
40 -45 32 -19 -6 -21 -12 -15 -46 7 -39 6 -39 -25 -39 -32 0 -32 1 -27 34 8
50 -1 76 -28 76 -12 0 -28 -6 -34 -14z m129 -181 c0 -21 -5 -25 -30 -25 -23 0
-30 5 -30 19 0 18 14 27 48 30 6 0 12 -10 12 -24z"/>
<path d="M18664 3675 c-24 -37 -27 -85 -7 -107 31 -34 59 -17 55 34 -1 14 2
29 8 33 5 3 10 19 10 36 0 24 -4 29 -25 29 -15 0 -31 -10 -41 -25z"/>
<path d="M6781 3614 c-12 -15 -21 -30 -21 -35 0 -14 40 -30 60 -24 24 8 38 64
19 76 -23 14 -37 10 -58 -17z"/>
<path d="M7771 3631 c-13 -3 -29 -14 -35 -24 -16 -26 17 -49 51 -36 20 7 31 4
58 -16 18 -14 35 -38 38 -53 6 -34 4 -36 -21 -23 -61 33 -120 -7 -102 -68 21
-75 67 -99 129 -66 26 13 30 13 50 -11 44 -50 68 -4 27 51 -20 25 -26 46 -26
81 0 36 -8 59 -31 96 -48 74 -74 87 -138 69z m80 -211 c25 -14 25 -40 -1 -40
-16 0 -40 26 -40 44 0 9 19 7 41 -4z"/>
<path d="M19725 3480 c-27 -16 -70 -35 -96 -41 -25 -7 -54 -18 -65 -26 -19
-14 -19 -15 1 -29 55 -42 273 54 252 110 -9 23 -35 19 -92 -14z"/>
<path d="M19241 3491 c-31 -20 18 -72 102 -109 39 -17 61 -15 82 8 15 16 15
22 5 35 -7 8 -22 15 -33 15 -11 0 -44 14 -74 30 -58 33 -62 34 -82 21z"/>
<path d="M18684 3447 c-5 -13 6 -29 76 -109 31 -36 96 -50 106 -24 5 13 -12
35 -61 82 -68 63 -109 81 -121 51z"/>
<path d="M17066 3369 c-15 -17 -33 -44 -41 -59 -13 -25 -12 -29 5 -45 18 -16
20 -16 39 7 11 12 36 40 54 60 24 27 31 41 25 52 -15 26 -54 19 -82 -15z"/>
<path d="M18937 3283 c-17 -16 -2 -40 61 -99 37 -35 71 -64 75 -64 21 0 46 21
40 36 -11 29 -84 102 -118 118 -36 18 -48 19 -58 9z"/>
<path d="M16832 3080 c-56 -53 -63 -73 -32 -90 16 -9 27 -3 67 35 26 24 52 45
57 45 18 0 35 34 24 47 -22 27 -62 14 -116 -37z"/>
<path d="M19120 3085 c-9 -11 -10 -18 -1 -29 6 -8 14 -37 18 -65 5 -43 10 -52
29 -57 39 -10 47 3 39 65 -10 88 -50 128 -85 86z"/>
<path d="M16572 2864 c-61 -55 -77 -89 -48 -100 12 -4 108 60 160 107 11 10
-21 49 -39 49 -6 0 -39 -25 -73 -56z"/>
<path d="M19283 2890 c-26 -11 -30 -42 -9 -59 20 -17 223 -21 237 -5 15 18 -9
62 -35 62 -11 0 -55 3 -96 6 -41 3 -85 2 -97 -4z"/>
<path d="M19165 2880 c-3 -5 -3 -19 0 -30 6 -17 2 -20 -30 -20 -24 0 -43 -8
-59 -24 -13 -12 -31 -26 -40 -29 -25 -10 -58 -88 -44 -104 16 -20 27 -16 63
20 18 18 50 46 69 61 l36 27 0 -29 c0 -39 31 -66 66 -58 20 5 24 11 18 24 -5
9 -9 42 -9 72 -1 30 -6 63 -11 71 -12 21 -50 33 -59 19z"/>
<path d="M19617 2808 c-8 -29 3 -45 44 -66 23 -11 37 -27 44 -49 5 -18 15 -33
21 -33 7 0 19 -3 28 -6 25 -10 29 20 12 80 -13 42 -23 59 -50 75 -45 28 -92
28 -99 -1z"/>
<path d="M16286 2639 c-31 -28 -56 -55 -56 -60 0 -5 11 -14 25 -21 21 -10 29
-7 63 23 21 19 51 43 66 54 35 25 27 55 -14 55 -20 0 -45 -15 -84 -51z"/>
<path d="M19215 2640 c-12 -14 -15 -27 -9 -56 12 -69 31 -94 72 -94 18 0 22 6
22 28 0 15 -5 33 -12 40 -6 6 -12 28 -12 48 -2 46 -34 64 -61 34z"/>
<path d="M17627 2623 c-31 -8 -14 -35 53 -85 117 -86 109 -82 125 -68 24 20
18 41 -21 77 -64 58 -120 85 -157 76z"/>
<path d="M18829 2613 c-28 -17 -59 -89 -59 -135 0 -21 5 -28 18 -28 20 0 52
29 52 47 0 5 10 21 23 34 33 37 48 74 34 88 -15 15 -37 13 -68 -6z"/>
<path d="M4635 2573 c-99 -7 -193 -18 -210 -23 -16 -5 -64 -14 -105 -21 -117
-17 -119 -18 -131 -40 -7 -14 -12 -189 -14 -557 -2 -296 -5 -555 -8 -577 -3
-22 -8 -112 -12 -200 -3 -88 -13 -230 -21 -315 -16 -158 -13 -223 10 -255 13
-18 15 -18 50 -1 28 13 52 16 113 11 283 -22 578 -33 803 -29 140 3 487 6 770
8 283 2 571 4 640 4 69 1 157 -1 195 -3 130 -9 153 9 128 100 -10 39 -13 135
-11 430 4 540 3 630 -4 998 -4 260 -8 331 -19 341 -14 12 -139 39 -254 53 -33
5 -96 5 -140 1 -96 -8 -380 -2 -485 12 -216 27 -274 32 -315 27 -25 -4 -91 0
-148 8 -57 8 -139 15 -183 15 -43 1 -133 8 -199 16 -141 17 -209 16 -450 -3z
m370 -68 c66 -8 158 -15 205 -15 47 0 135 -7 195 -14 61 -8 171 -17 245 -20
74 -3 221 -14 325 -25 142 -15 243 -19 400 -17 206 3 357 -3 369 -15 4 -3 9
-66 11 -140 3 -74 8 -206 12 -294 8 -195 9 -345 4 -850 -3 -214 -1 -399 2
-410 16 -49 35 -48 -668 -51 -362 -1 -755 -8 -874 -14 -123 -7 -267 -9 -336
-5 -66 4 -181 8 -255 9 -74 1 -173 6 -220 11 -47 5 -98 9 -115 10 -16 1 -50 2
-74 3 l-44 2 6 98 c4 53 9 113 12 132 3 19 9 167 15 328 5 161 12 297 15 302
3 5 5 125 4 267 -4 484 -2 612 10 631 16 25 242 67 386 72 22 1 69 5 105 9 98
12 134 12 265 -4z"/>
<path d="M4415 2257 c-4 -12 -1 -35 4 -51 14 -36 14 -143 -1 -222 -21 -114 2
-132 174 -141 99 -5 108 -4 124 16 14 15 21 18 31 9 10 -8 17 -8 24 -1 6 6 36
9 73 6 46 -4 71 -1 93 11 43 22 73 67 73 109 0 59 -84 124 -163 126 -44 1
-102 -34 -120 -72 -18 -37 -25 -116 -12 -136 5 -9 2 -12 -11 -8 -11 3 -65 9
-122 12 -56 4 -105 12 -108 17 -3 5 -1 44 6 86 20 128 -7 262 -52 262 -4 0
-10 -10 -13 -23z m505 -220 c48 -39 47 -67 -3 -92 -32 -16 -66 -19 -116 -9
-26 6 -31 11 -31 36 0 45 39 78 92 78 24 0 50 -6 58 -13z"/>
<path d="M5372 2268 c-5 -8 -11 -102 -13 -218 l-4 -205 25 0 c21 0 25 5 28 35
1 19 5 50 8 67 l5 33 57 -47 c58 -47 149 -96 164 -87 18 11 6 34 -29 55 -54
32 -123 89 -123 100 0 6 3 8 8 5 9 -5 133 17 150 28 6 4 12 16 12 27 0 16 -7
19 -52 19 -28 0 -80 -5 -115 -11 -35 -6 -66 -9 -69 -7 -2 3 -5 46 -5 97 0 67
-5 95 -16 106 -18 18 -18 18 -31 3z"/>
<path d="M5115 2089 c-34 -20 -45 -41 -45 -90 0 -84 64 -169 128 -169 31 0 92
41 92 63 0 22 -27 34 -43 18 -19 -19 -62 -12 -86 13 -13 13 -25 42 -28 65 -5
39 -4 41 20 41 33 0 76 35 61 50 -16 16 -76 22 -99 9z"/>
<path d="M13557 2573 c-5 -4 -143 -13 -222 -14 -134 -1 -367 -35 -504 -74 -68
-19 -141 -78 -158 -128 -9 -26 -10 -57 -4 -104 4 -38 4 -185 -1 -328 -5 -143
-8 -285 -7 -315 1 -30 2 -68 1 -85 -7 -331 -15 -491 -22 -500 -5 -6 -7 -34 -5
-63 3 -28 0 -54 -5 -57 -6 -4 -8 -10 -5 -15 8 -12 231 -120 250 -120 8 0 37
-11 64 -24 27 -13 84 -31 127 -41 44 -9 111 -27 149 -39 55 -16 93 -21 178
-19 112 2 248 18 276 33 9 5 73 28 142 51 70 22 139 52 154 65 16 13 40 24 55
24 l27 0 3 113 c4 152 4 164 -3 307 -4 69 -9 161 -11 205 -2 44 0 116 5 160 5
44 10 195 12 335 3 176 7 262 16 278 7 12 13 55 14 96 2 65 -1 77 -27 114 -32
47 -145 126 -196 138 -28 7 -297 13 -303 7z m298 -94 c60 -22 81 -34 114 -69
18 -19 37 -47 42 -62 8 -29 -5 -93 -25 -117 -11 -15 -136 -76 -148 -73 -3 1
-28 -5 -55 -13 -26 -8 -77 -17 -113 -20 -36 -3 -93 -10 -128 -17 -37 -6 -94
-8 -135 -4 -40 4 -148 8 -242 9 -171 3 -188 6 -265 48 -8 4 -38 20 -67 35 -66
34 -108 91 -98 131 16 67 55 85 270 127 194 38 766 54 850 25z m-1004 -356
c72 -37 124 -56 169 -62 77 -12 272 -17 286 -9 5 4 33 -1 61 -11 40 -14 64
-15 110 -9 32 5 94 12 138 17 204 22 279 40 335 77 19 13 38 24 41 24 10 0 1
-459 -10 -545 -4 -38 -7 -124 -5 -190 6 -160 6 -163 5 -215 0 -25 2 -61 4 -80
2 -19 1 -80 -2 -135 l-6 -100 -58 -38 c-32 -20 -67 -37 -76 -37 -10 0 -40 -7
-66 -15 -27 -8 -52 -14 -55 -13 -4 1 -29 -9 -57 -21 -36 -16 -85 -26 -170 -33
-164 -14 -173 -14 -235 6 -49 16 -78 23 -206 45 -38 7 -92 27 -274 106 -70 30
-75 34 -73 61 11 171 19 528 22 1027 0 115 5 207 10 205 4 -1 55 -27 112 -55z"/>
<path d="M12904 1685 c-4 -8 2 -27 11 -42 10 -15 19 -52 22 -87 2 -34 5 -82 7
-107 2 -26 -1 -73 -5 -105 -9 -70 0 -86 67 -104 86 -24 189 5 229 66 25 39 23
101 -5 159 -35 74 -162 197 -224 218 -61 21 -95 22 -102 2z m147 -100 c61 -45
122 -119 140 -168 17 -49 0 -84 -56 -111 -44 -20 -109 -26 -123 -11 -10 11
-24 325 -15 325 3 0 27 -16 54 -35z"/>
<path d="M13420 1643 c-16 -7 -22 -12 -69 -51 -35 -29 -35 -29 -17 -57 12 -18
19 -51 21 -98 6 -166 20 -257 38 -257 7 0 29 -9 50 -20 50 -27 151 -37 203
-20 113 36 123 113 26 209 -26 26 -61 56 -79 66 -25 14 -30 22 -21 32 6 7 18
13 28 13 28 0 70 56 70 92 0 27 -8 38 -43 63 -37 26 -52 30 -117 32 -41 1 -82
0 -90 -4z m171 -79 c5 -3 9 -13 9 -22 -1 -25 -68 -52 -128 -52 -40 0 -51 -4
-55 -17 -2 -10 -4 -2 -4 18 0 20 -3 41 -7 47 -13 21 54 42 117 37 32 -3 63 -7
68 -11z m-124 -154 c26 0 155 -78 179 -108 39 -49 39 -69 2 -88 -56 -29 -213
-17 -216 18 0 7 -6 45 -11 83 -6 39 -10 85 -11 103 l0 32 20 -20 c11 -11 28
-20 37 -20z"/>
<path d="M19780 2538 c-28 -74 -42 -98 -56 -98 -24 0 -41 -22 -36 -46 4 -20 9
-22 41 -17 55 9 78 30 101 91 25 67 20 102 -14 102 -17 0 -27 -9 -36 -32z"/>
<path d="M17477 2553 c-51 -13 -137 -81 -137 -108 0 -9 11 -21 25 -27 23 -10
28 -8 53 19 15 17 43 36 63 43 20 7 42 22 49 33 10 17 10 23 -6 34 -10 7 -20
12 -23 12 -3 -1 -14 -3 -24 -6z"/>
<path d="M16040 2487 c-43 -14 -70 -34 -93 -66 -15 -23 -15 -26 -1 -42 15 -17
19 -16 64 17 26 19 52 34 57 34 5 0 20 11 33 26 21 21 22 27 10 34 -18 12 -26
11 -70 -3z"/>
<path d="M17888 2379 c-16 -9 -16 -13 -4 -47 8 -20 17 -54 21 -74 6 -39 37
-60 58 -39 20 20 -27 172 -52 171 -3 0 -14 -5 -23 -11z"/>
<path d="M14568 2358 c-7 -13 -33 -70 -59 -128 -80 -180 -90 -200 -98 -200 -5
0 -30 17 -57 38 -59 46 -100 65 -124 57 -28 -9 -31 -42 -6 -62 13 -10 47 -49
77 -87 117 -149 165 -191 187 -162 5 6 19 38 31 71 60 163 80 226 96 295 9 41
21 95 26 119 8 36 7 47 -7 62 -23 25 -51 24 -66 -3z m-15 -221 c-8 -28 -31
-90 -50 -137 -19 -47 -37 -93 -40 -103 -3 -10 -10 -16 -16 -14 -19 6 -91 97
-82 105 4 4 12 -1 19 -11 31 -52 32 -52 60 -38 19 11 26 22 26 44 0 33 80 218
92 211 4 -2 0 -28 -9 -57z"/>
<path d="M19323 2353 c-28 -11 -10 -34 47 -63 81 -41 142 -41 190 -1 31 26 33
31 20 44 -13 13 -22 13 -72 0 -53 -13 -59 -13 -99 6 -42 21 -62 24 -86 14z"/>
<path d="M18663 2343 c-7 -2 -13 -15 -13 -27 0 -13 -9 -31 -20 -41 -25 -23
-23 -63 3 -79 15 -9 21 -7 33 9 8 11 20 27 27 35 7 8 19 30 26 48 20 47 -8 75
-56 55z"/>
<path d="M15745 2315 c-16 -14 -45 -37 -62 -52 -36 -29 -41 -44 -18 -63 12
-10 24 -6 68 24 29 20 58 36 64 36 7 0 18 10 24 22 10 18 8 24 -11 40 -28 23
-29 23 -65 -7z"/>
<path d="M15023 2295 c-5 -8 -24 -23 -43 -33 -19 -10 -70 -41 -113 -70 -43
-29 -82 -52 -86 -52 -5 0 -27 -14 -51 -31 -31 -23 -39 -34 -31 -42 6 -6 11
-19 11 -28 0 -11 19 -24 53 -39 28 -12 91 -42 139 -66 133 -67 223 -78 202
-24 -3 8 -9 40 -13 72 l-7 56 65 7 c37 4 71 11 78 17 6 5 24 10 40 11 28 2 44
30 26 47 -4 4 -48 2 -96 -5 -49 -8 -95 -11 -102 -9 -13 5 -25 70 -25 138 0 56
-28 86 -47 51z"/>
<path d="M17348 2283 c-40 -10 -31 -112 14 -179 26 -39 37 -41 69 -15 l23 18
-29 26 c-26 22 -30 32 -32 84 -1 32 -2 61 -2 66 -1 7 -15 8 -43 0z"/>
<path d="M15418 2171 c-15 -3 -37 -14 -49 -24 -19 -17 -20 -20 -6 -34 14 -14
24 -14 89 -2 57 11 74 18 76 33 7 33 -38 44 -110 27z"/>
<path d="M17963 2063 c-6 -2 -42 -33 -78 -68 -68 -65 -77 -87 -43 -108 14 -9
29 1 87 60 39 39 71 75 71 80 0 16 -25 41 -37 36z"/>
<path d="M17504 2035 c-10 -26 22 -61 73 -80 26 -10 56 -24 65 -32 23 -20 52
-13 56 14 3 18 -11 30 -75 67 -83 48 -110 55 -119 31z"/>
<path d="M18447 1999 c-44 -39 -57 -57 -57 -79 0 -52 32 -44 101 24 69 68 83
106 39 106 -17 0 -46 -18 -83 -51z"/>
<path d="M18828 1903 c-8 -10 -25 -38 -37 -63 -13 -25 -37 -62 -53 -83 -33
-41 -31 -67 5 -67 26 0 59 31 86 80 9 18 20 33 24 34 8 1 33 -41 66 -112 23
-49 21 -50 -66 -73 -48 -11 -53 -15 -53 -40 0 -49 62 -47 177 6 29 13 74 32
101 40 72 24 95 85 32 85 -8 0 -34 -7 -58 -15 -24 -9 -48 -13 -53 -9 -5 3 -28
45 -51 92 -68 142 -88 162 -120 125z"/>
<path d="M17776 1834 c-16 -63 139 -175 161 -117 4 10 -2 22 -18 34 -13 10
-34 27 -47 36 -13 10 -30 30 -38 46 -19 35 -50 36 -58 1z"/>
<path d="M18180 1845 c-109 -26 -115 -29 -115 -61 0 -26 3 -29 38 -32 77 -6
217 73 176 99 -18 11 -32 10 -99 -6z"/>
<path d="M17664 1819 c-10 -11 -35 -29 -54 -39 -44 -22 -66 -47 -75 -82 -5
-21 -3 -27 15 -33 16 -5 39 9 106 65 88 74 102 102 53 108 -16 2 -32 -5 -45
-19z"/>
<path d="M17408 1609 c-15 -4 -43 -19 -63 -35 -28 -21 -35 -33 -33 -53 4 -37
36 -38 94 -2 26 17 56 31 65 31 9 0 19 7 23 15 6 16 -2 44 -13 46 -37 5 -50 4
-73 -2z"/>
<path d="M16630 1484 c-74 -33 -86 -52 -47 -73 19 -10 31 -8 80 14 32 14 63
25 70 25 7 0 18 5 25 12 9 9 8 16 -5 30 -22 24 -57 22 -123 -8z"/>
<path d="M16865 1490 c-20 -22 -8 -37 59 -65 33 -14 44 -24 40 -35 -10 -27 -9
-32 8 -43 14 -9 23 -9 38 1 11 6 33 12 48 12 35 0 92 19 92 30 0 5 3 15 6 24
5 13 -2 16 -45 16 -38 0 -68 8 -114 31 -90 46 -112 51 -132 29z"/>
<path d="M16390 1425 c-60 -9 -65 -12 -68 -37 -2 -19 2 -28 18 -33 21 -7 72 1
100 16 8 4 23 10 33 13 10 3 17 15 17 29 0 26 -7 27 -100 12z"/>
<path d="M16078 1403 c-29 -3 -37 -9 -43 -30 -4 -17 -1 -29 7 -35 20 -13 148
2 169 20 17 15 17 17 2 34 -16 18 -45 20 -135 11z"/>
<path d="M14410 1383 c-94 -34 -166 -90 -201 -157 -44 -83 -43 -134 7 -251 20
-48 35 -66 71 -89 67 -43 126 -51 180 -25 85 41 158 104 193 165 31 56 32 61
26 135 -3 42 -11 92 -18 110 -13 40 -52 85 -90 105 -26 14 -137 18 -168 7z
m87 -89 c19 -5 20 -9 10 -32 -6 -15 -18 -34 -27 -43 -19 -20 -37 -43 -74 -94
-16 -22 -46 -57 -67 -78 l-37 -39 -16 33 c-28 57 -13 112 49 176 30 31 69 60
91 68 46 17 43 16 71 9z m107 -149 c-1 -43 -6 -62 -19 -71 -9 -7 -14 -17 -11
-22 10 -16 -157 -118 -175 -107 -18 11 -9 40 24 76 17 21 52 60 77 87 25 28
53 62 63 77 28 40 42 26 41 -40z"/>
<path d="M15100 1372 c-8 -3 -36 -27 -62 -54 -26 -26 -52 -48 -57 -48 -5 0
-11 -4 -13 -10 -6 -18 -112 -100 -129 -100 -9 0 -27 -8 -39 -18 -19 -16 -21
-22 -11 -40 12 -23 67 -55 113 -66 14 -3 39 -16 55 -28 15 -13 44 -32 63 -42
19 -11 64 -39 99 -63 93 -63 144 -56 137 18 -4 43 -16 79 -26 79 -8 0 -30 54
-30 71 0 5 6 9 13 9 49 0 157 62 157 90 0 16 -32 19 -63 6 -18 -7 -53 -16 -78
-20 -55 -8 -52 -12 -79 118 -20 95 -26 107 -50 98z"/>
<path d="M15800 1319 c-19 -10 -42 -18 -51 -19 -9 0 -20 -7 -23 -16 -8 -21 -9
-20 19 -38 18 -12 30 -14 42 -7 10 6 39 19 66 30 33 14 47 26 47 39 0 36 -44
41 -100 11z"/>
<path d="M17147 1313 c-13 -12 -7 -37 13 -58 10 -11 32 -35 48 -54 31 -37 62
-38 62 -2 0 25 -54 107 -76 115 -20 8 -39 8 -47 -1z"/>
<path d="M16768 1279 c-39 -22 -65 -122 -37 -139 21 -14 49 8 49 37 0 15 9 37
21 49 14 15 19 29 14 43 -7 23 -21 26 -47 10z"/>
<path d="M15485 1235 c-22 -8 -41 -15 -41 -15 -9 -1 -10 -47 -2 -57 12 -15 54
-18 62 -4 3 4 26 14 52 21 39 11 45 16 40 34 -3 12 -6 24 -6 29 0 12 -62 7
-105 -8z"/>
<path d="M17232 1045 c-7 -14 -12 -31 -12 -38 0 -7 -14 -24 -32 -38 -28 -23
-30 -29 -19 -43 20 -24 64 -20 81 7 35 53 50 98 40 118 -15 27 -45 24 -58 -6z"/>
<path d="M16759 1011 l-24 -19 20 -22 c11 -12 36 -35 56 -51 33 -26 37 -27 57
-13 18 12 20 19 11 35 -5 11 -21 25 -35 31 -13 6 -24 17 -24 24 0 7 -9 18 -19
24 -15 7 -25 5 -42 -9z"/>
<path d="M17036 834 c-21 -8 -55 -11 -75 -9 -20 3 -43 1 -51 -4 -13 -9 -12
-13 6 -29 42 -40 60 -44 121 -28 66 18 88 35 78 65 -7 24 -24 25 -79 5z"/>
</g>
</svg>
