<?xml version="1.0" standalone="no"?>
<!DOCTYPE svg PUBLIC "-//W3C//DTD SVG 20010904//EN"
 "http://www.w3.org/TR/2001/REC-SVG-20010904/DTD/svg10.dtd">
<svg version="1.0" xmlns="http://www.w3.org/2000/svg"
 width="876.901587pt" height="400.000000pt" viewBox="0 0 876.901587 400.000000"
 preserveAspectRatio="xMidYMid meet">
<metadata>
Created by potrace 1.15, written by Peter Selinger 2001-2017
</metadata>
<g transform="translate(-60.576861,439.164501) scale(0.037300,-0.037300)"
fill="#444444" stroke="none">
<path d="M14619 11759 c-16 -16 -18 -27 -13 -62 4 -23 13 -46 20 -50 8 -4 14
-17 14 -27 0 -10 4 -29 9 -42 14 -36 50 -199 53 -243 l3 -40 -50 -3 c-63 -3
-111 -28 -136 -70 -14 -25 -24 -32 -37 -27 -9 3 -30 9 -47 12 -16 4 -36 15
-45 25 -22 27 -101 26 -173 -1 -49 -19 -63 -31 -101 -84 -26 -38 -49 -84 -57
-117 -7 -30 -16 -59 -21 -65 -4 -5 -8 -30 -8 -56 0 -26 -4 -51 -10 -54 -17
-11 -11 -25 14 -35 13 -5 27 -18 31 -29 3 -10 12 -22 20 -25 8 -3 15 -18 15
-34 0 -23 7 -32 36 -45 30 -15 40 -15 61 -5 15 7 29 20 33 28 31 63 32 68 21
89 -7 12 -13 53 -15 92 -2 38 -5 72 -8 74 -2 2 -2 20 0 40 3 27 12 40 39 56
33 21 37 21 63 6 16 -10 37 -17 48 -17 61 0 147 75 122 106 -21 24 5 16 49
-17 32 -23 58 -32 104 -37 l62 -7 3 -45 c2 -25 5 -79 7 -120 7 -156 10 -170
39 -201 44 -46 98 -35 119 24 4 10 7 83 8 163 2 126 4 146 19 154 10 5 20 6
24 3 3 -4 16 3 29 14 12 11 32 26 44 32 21 11 53 62 53 86 0 24 -48 45 -103
45 -34 0 -59 5 -66 14 -12 14 -29 83 -38 159 -3 26 -10 50 -14 53 -5 3 -9 17
-9 31 0 13 -9 36 -20 50 -11 14 -20 33 -20 42 0 9 -7 24 -15 35 -11 14 -11 22
-2 38 10 16 8 22 -13 39 -14 10 -32 26 -41 34 -9 9 -31 20 -48 25 -26 7 -36 5
-52 -11z"/>
<path d="M15249 11637 c-37 -31 -44 -69 -20 -116 22 -43 64 -58 97 -34 10 7
25 13 34 13 32 0 51 34 44 77 -8 55 -15 63 -60 73 -56 13 -66 12 -95 -13z"/>
<path d="M15681 11390 c-52 -54 -68 -97 -72 -190 -3 -71 21 -192 44 -217 31
-34 71 -30 101 10 27 35 28 56 11 194 -4 39 15 49 55 28 30 -15 70 -64 70 -85
0 -6 9 -19 19 -28 16 -13 21 -34 25 -96 6 -99 26 -133 77 -128 18 2 47 14 63
27 28 22 30 28 27 82 -1 32 -9 73 -18 90 -8 18 -13 44 -9 57 4 18 0 28 -20 40
-13 10 -29 28 -34 42 -5 13 -14 24 -19 24 -5 0 -12 11 -15 25 -9 34 -80 110
-131 140 -22 13 -59 26 -82 30 -41 6 -44 5 -92 -45z"/>
<path d="M15292 11309 c-30 -29 -38 -49 -32 -74 2 -5 7 -32 11 -60 5 -27 13
-69 18 -93 8 -40 7 -44 -20 -63 -16 -11 -29 -26 -29 -32 0 -19 46 -57 68 -57
11 0 25 -7 32 -15 18 -22 39 -19 82 11 l38 27 0 71 c0 86 -17 207 -30 220 -6
6 -10 18 -10 28 0 27 -45 68 -73 68 -13 0 -38 -14 -55 -31z"/>
<path d="M12887 11306 c-13 -13 -29 -37 -37 -53 -8 -15 -20 -35 -27 -43 -7 -9
-35 -62 -63 -117 -27 -56 -54 -104 -59 -107 -5 -4 -13 -21 -16 -39 -8 -34 -31
-67 -48 -67 -6 0 -54 44 -106 98 -53 54 -118 113 -144 132 l-48 34 -33 -18
c-56 -30 -86 -141 -53 -191 18 -27 38 -121 31 -140 -4 -9 0 -21 9 -28 8 -7 20
-34 26 -62 6 -27 23 -102 38 -165 14 -63 28 -131 30 -150 10 -95 12 -100 41
-100 21 0 38 12 65 44 20 25 37 51 37 59 0 8 7 18 16 21 13 5 12 9 -4 27 -23
24 -32 59 -39 144 -2 33 -11 85 -19 116 -8 31 -14 65 -14 74 0 17 1 17 20 0
11 -10 20 -23 20 -29 0 -14 72 -46 125 -56 28 -6 52 -3 85 10 25 9 51 15 59
12 10 -3 12 2 7 21 -5 21 -1 30 18 42 18 12 24 27 29 71 3 30 15 74 26 98 12
23 21 47 21 53 0 6 7 16 15 23 12 10 21 8 49 -14 26 -19 36 -36 41 -68 10 -58
44 -148 56 -148 6 0 7 -9 4 -20 -4 -12 2 -36 13 -57 11 -21 30 -62 43 -92 36
-83 79 -113 109 -76 7 8 16 12 21 9 19 -12 29 44 13 81 -8 20 -12 46 -8 60 5
20 0 31 -20 50 -14 13 -23 30 -20 38 3 8 -4 30 -15 48 -12 19 -21 46 -21 60 0
15 -7 32 -15 39 -8 7 -15 24 -15 39 0 15 -7 37 -16 49 -8 12 -12 27 -9 32 3 6
-14 51 -39 102 -51 102 -54 115 -28 121 12 3 8 6 -13 12 -16 4 -41 16 -54 27
-32 24 -58 23 -84 -6z"/>
<path d="M13645 11180 c-9 -14 -171 -120 -184 -120 -6 0 -11 -5 -11 -11 0 -6
-27 -37 -60 -69 -65 -65 -79 -87 -110 -177 -24 -69 -18 -98 28 -146 50 -52 81
-64 184 -71 l97 -6 60 45 c33 25 69 58 79 73 20 26 21 26 40 9 11 -10 23 -17
28 -15 5 1 30 -8 57 -21 45 -22 49 -22 80 -7 17 9 45 29 61 46 l29 30 -37 35
c-21 19 -45 35 -55 35 -26 0 -91 79 -91 110 0 6 -11 28 -25 48 -14 20 -25 47
-25 60 0 12 -7 25 -15 28 -9 4 -15 19 -15 40 0 27 -5 37 -24 45 -13 6 -27 20
-29 30 -5 20 -51 27 -62 9z m-20 -307 c0 -71 -4 -96 -16 -108 -21 -21 -105
-26 -147 -8 -30 12 -33 17 -28 41 4 15 19 36 33 47 15 11 49 44 77 73 71 74
81 68 81 -45z"/>
<path d="M3948 10736 c-10 -7 -18 -25 -18 -40 0 -16 -5 -26 -15 -26 -24 0 -17
-28 7 -32 14 -2 24 -11 26 -23 5 -29 31 -85 58 -125 13 -20 27 -56 30 -82 l6
-45 -48 -9 -49 -9 -3 -63 c-4 -81 5 -92 75 -92 31 0 60 -6 67 -13 7 -7 19 -37
26 -67 6 -30 16 -62 20 -71 5 -9 4 -21 -1 -26 -8 -8 25 -115 50 -163 4 -8 34
-25 66 -38 53 -21 59 -22 81 -7 27 18 26 37 -9 115 -18 41 -29 105 -42 243 -4
36 -1 47 10 47 8 0 30 11 49 24 21 14 57 26 93 30 83 9 89 15 74 65 -13 46
-40 65 -88 63 -24 -1 -33 3 -33 15 0 14 -11 15 -84 10 -79 -6 -85 -5 -98 16
-18 28 -55 132 -62 175 -9 51 -42 92 -75 92 -16 0 -37 10 -51 25 -26 28 -37
30 -62 11z"/>
<path d="M4510 10682 c-55 -4 -78 -23 -75 -63 4 -52 91 -119 155 -119 36 0 45
24 29 82 -25 93 -38 105 -109 100z"/>
<path d="M5195 10633 c-46 -24 -65 -44 -65 -68 0 -15 -13 -31 -40 -49 -22 -14
-40 -32 -40 -40 0 -7 -9 -21 -19 -30 -10 -10 -22 -34 -25 -54 -3 -20 -9 -64
-15 -97 -12 -80 -2 -261 16 -276 7 -7 13 -31 13 -55 0 -35 5 -47 25 -60 31
-20 74 -11 105 21 20 22 22 31 16 77 -19 141 -22 185 -13 247 4 36 14 73 22
81 7 8 18 34 24 57 14 52 39 67 93 59 61 -10 113 -41 128 -76 7 -17 21 -35 31
-41 11 -5 19 -18 19 -27 0 -10 7 -27 15 -38 8 -10 15 -27 15 -36 0 -9 11 -38
25 -64 18 -34 22 -51 15 -64 -6 -10 -10 -31 -10 -45 0 -37 74 -105 113 -105
23 0 27 4 23 18 -4 10 0 37 8 60 16 44 8 89 -20 123 -8 8 -14 25 -14 37 0 32
-50 164 -72 188 -10 11 -18 25 -18 31 0 41 -93 146 -172 195 -27 17 -48 34
-48 39 0 15 -102 8 -135 -8z"/>
<path d="M2185 10413 c-22 -8 -51 -16 -64 -17 -28 -3 -37 -39 -17 -68 12 -17
10 -41 -12 -173 -4 -28 -11 -56 -16 -63 -4 -7 -9 -27 -11 -45 -8 -65 -28 -107
-53 -107 -21 0 -122 93 -122 112 0 4 -13 14 -30 23 -16 9 -30 22 -30 30 0 23
-67 92 -101 104 -27 9 -31 8 -39 -14 -5 -14 -16 -25 -24 -25 -10 0 -17 -14
-21 -37 -3 -21 -11 -54 -17 -74 -12 -40 3 -125 28 -165 16 -26 54 -137 54
-158 0 -15 33 -118 64 -201 8 -22 15 -57 16 -77 0 -20 5 -40 10 -43 6 -3 7
-17 4 -30 -3 -12 -1 -26 5 -29 5 -4 8 -12 5 -20 -5 -14 55 -36 100 -36 32 0
86 26 86 41 0 6 -8 23 -19 37 -10 15 -22 46 -26 70 -4 24 -13 56 -21 70 -8 15
-14 46 -14 69 0 23 -5 43 -11 45 -6 2 -19 37 -29 78 -9 41 -25 92 -34 114 -19
45 -20 56 -6 56 6 0 10 -4 10 -10 0 -19 50 -82 87 -109 70 -50 148 -65 190
-36 22 16 63 110 63 146 0 11 6 22 14 25 10 4 13 15 9 40 -12 74 28 20 72 -96
46 -121 64 -212 47 -233 -30 -36 -2 -122 43 -133 14 -3 39 -24 56 -45 17 -21
39 -39 50 -39 10 0 35 18 55 40 40 44 82 53 118 25 11 -8 33 -15 49 -15 15 0
36 -4 45 -9 27 -13 192 11 238 36 23 12 44 28 47 35 2 7 26 24 51 37 26 12 52
31 59 42 21 33 47 21 52 -25 1 -11 3 -24 4 -28 0 -5 9 -8 20 -8 10 0 39 -9 64
-20 44 -19 59 -20 120 -3 11 3 17 14 17 35 0 33 -34 80 -122 171 -26 27 -50
62 -54 80 -3 17 -12 41 -20 52 -7 11 -15 41 -19 66 -5 36 -17 57 -57 100 -69
74 -108 128 -108 151 0 10 -6 21 -14 24 -17 7 -134 -32 -156 -52 -9 -7 -37
-23 -63 -34 -33 -15 -47 -27 -47 -40 0 -11 -4 -20 -9 -20 -17 0 -101 -141
-111 -187 -6 -26 -16 -53 -21 -60 -6 -6 -9 -20 -7 -30 2 -9 -8 -28 -21 -41
-20 -20 -22 -29 -16 -68 l6 -45 -33 3 c-29 3 -35 8 -47 43 -7 22 -14 47 -15
55 -10 74 -22 121 -38 152 -11 20 -18 45 -16 55 1 11 -5 39 -16 63 -10 25 -27
68 -38 95 -11 28 -27 66 -36 85 -9 19 -16 42 -17 50 0 18 -37 84 -65 120 -11
14 -21 42 -23 62 -2 21 -6 40 -8 42 -2 2 -22 -3 -44 -11z m798 -487 c15 -20
27 -47 27 -63 0 -15 7 -41 15 -57 18 -35 10 -72 -20 -92 -19 -12 -27 -13 -43
-3 -16 10 -23 9 -43 -10 -13 -13 -34 -27 -47 -32 -33 -13 -96 -11 -109 2 -15
15 -5 71 14 82 7 4 13 14 13 21 0 22 30 75 53 93 12 10 35 35 50 56 35 46 54
47 90 3z"/>
<path d="M3523 10313 c-18 -9 -33 -22 -33 -29 0 -7 -13 -23 -30 -36 -28 -22
-29 -25 -19 -68 12 -53 3 -128 -17 -151 -8 -9 -19 -30 -23 -47 -8 -26 -2 -46
44 -139 29 -59 58 -125 64 -145 13 -40 62 -78 99 -78 12 0 33 11 48 23 23 20
27 31 26 67 -1 23 -10 57 -21 74 -20 32 -51 231 -46 296 2 32 5 35 38 41 74
12 102 77 53 122 -66 62 -108 88 -139 86 -7 0 -27 -8 -44 -16z"/>
<path d="M13440 10301 c-38 -9 -70 -42 -70 -71 0 -14 -5 -31 -11 -37 -8 -8 -6
-13 9 -17 23 -8 59 -110 72 -206 5 -36 16 -103 25 -150 8 -47 14 -110 13 -140
-2 -65 8 -156 29 -260 8 -41 14 -106 13 -143 0 -37 6 -99 16 -137 16 -66 18
-70 49 -76 66 -12 115 50 97 122 -6 22 -10 46 -10 54 -1 8 -5 33 -11 55 -6 22
-11 59 -11 83 0 23 -4 42 -9 42 -5 0 -8 42 -7 93 2 52 -3 118 -11 152 -8 33
-12 75 -9 94 3 19 1 40 -4 46 -6 7 -5 26 1 49 9 33 8 41 -9 60 -17 19 -33 95
-34 161 0 11 -6 38 -13 60 -7 22 -18 64 -25 94 -16 80 -26 88 -90 72z"/>
<path d="M4641 10239 c-19 -18 -22 -27 -15 -58 4 -20 8 -61 9 -91 0 -30 4 -60
8 -66 4 -7 0 -14 -8 -18 -23 -9 -18 -20 19 -40 19 -10 36 -28 38 -39 2 -11 15
-29 29 -39 20 -15 33 -18 59 -11 18 5 36 15 40 23 4 8 12 25 18 37 16 30 15
48 -3 63 -8 7 -15 27 -15 44 0 17 -7 40 -15 50 -8 11 -15 29 -15 40 0 40 -28
99 -51 112 -35 20 -72 17 -98 -7z"/>
<path d="M17690 10055 c-7 -8 -18 -15 -24 -15 -20 0 -86 -61 -102 -93 -39 -82
-36 -79 -76 -74 -29 4 -41 0 -58 -18 -20 -21 -21 -30 -14 -72 4 -26 8 -54 9
-62 0 -8 6 -16 13 -19 6 -2 12 -12 12 -23 0 -10 5 -19 10 -19 6 0 10 -10 10
-22 0 -13 7 -34 15 -48 8 -14 17 -32 21 -40 4 -8 18 -30 31 -47 21 -29 30 -33
69 -33 46 0 66 18 46 43 -6 8 -6 58 0 141 10 154 30 204 87 220 32 9 35 8 71
-35 32 -36 41 -58 54 -125 9 -45 14 -89 10 -98 -5 -12 3 -20 31 -32 44 -18 91
-11 105 16 6 10 22 20 37 22 23 2 28 7 25 28 -1 14 -11 32 -22 42 -11 9 -20
23 -20 31 0 8 -7 20 -15 27 -8 6 -20 39 -26 71 -6 33 -16 62 -20 65 -5 3 -9
14 -9 24 0 18 -105 120 -123 120 -5 0 -20 9 -34 20 -31 24 -95 27 -113 5z"/>
<path d="M16513 9999 c-91 -16 -138 -53 -242 -188 -30 -39 -57 -71 -60 -71 -3
0 -7 -12 -8 -26 0 -15 -5 -29 -10 -33 -5 -3 -15 -39 -22 -79 -13 -82 -10 -89
47 -137 29 -24 38 -27 80 -21 104 14 125 19 145 39 24 24 97 154 97 173 0 53
72 -39 106 -134 10 -30 27 -58 36 -63 20 -11 24 -39 6 -39 -6 0 -3 -6 7 -14
32 -23 95 -9 132 31 59 62 52 89 -36 143 -25 14 -39 30 -36 37 2 8 -8 35 -24
61 -16 26 -36 70 -46 97 -10 28 -25 57 -34 65 -25 24 -39 62 -33 98 8 55 -25
75 -105 61z m-58 -230 c4 -6 -2 -21 -14 -33 -12 -12 -21 -28 -21 -35 0 -20
-60 -91 -76 -91 -16 0 -19 16 -5 25 5 3 12 19 16 36 6 28 70 108 87 109 4 0
10 -5 13 -11z"/>
<path d="M17075 9974 c-17 -7 -45 -18 -63 -25 -19 -7 -40 -25 -49 -43 -9 -16
-27 -39 -40 -49 -13 -11 -22 -24 -20 -31 2 -6 0 -22 -5 -36 -18 -47 -23 -131
-18 -258 2 -48 7 -65 19 -69 9 -4 28 -15 43 -25 52 -36 80 -21 93 47 13 75 13
106 -1 133 -20 39 -15 120 9 149 25 28 31 28 68 3 43 -31 79 -111 79 -175 0
-37 4 -55 15 -59 8 -3 12 -12 9 -21 -10 -24 21 -61 71 -85 46 -22 47 -22 64
-4 10 11 23 42 29 69 13 53 7 148 -9 153 -9 4 -49 83 -49 99 -1 4 -9 26 -20
48 -11 22 -19 45 -20 51 0 12 -79 78 -140 118 -32 20 -39 21 -65 10z"/>
<path d="M12779 9936 c-2 -2 -22 -6 -44 -9 -22 -2 -52 -10 -67 -17 -26 -12
-26 -13 -11 -54 8 -22 17 -63 20 -91 3 -27 11 -57 18 -65 9 -10 12 -34 9 -69
-2 -30 1 -59 6 -66 5 -6 11 -44 14 -85 3 -41 9 -118 15 -170 7 -64 7 -98 0
-107 -6 -7 -8 -17 -5 -22 4 -5 9 -35 12 -66 10 -101 15 -110 62 -113 39 -3 42
-1 62 37 15 30 19 51 14 80 -4 23 -2 41 5 45 7 5 8 37 4 95 -3 50 -1 91 4 94
10 6 45 -14 149 -86 177 -121 200 -137 208 -137 6 0 22 -12 37 -26 17 -16 42
-27 66 -30 21 -2 49 -5 63 -6 24 -3 25 -1 22 42 -1 25 -7 54 -13 65 -15 31
-291 235 -316 235 -7 0 -13 6 -13 13 0 7 -16 29 -35 47 -33 32 -34 36 -18 47
9 7 27 13 39 13 13 0 25 4 29 9 3 5 20 13 38 16 49 11 151 60 173 83 10 11 30
22 44 24 21 2 25 8 22 33 -5 50 -23 85 -48 91 -14 4 -54 3 -90 -1 -52 -5 -68
-11 -79 -29 -21 -32 -50 -43 -138 -51 -53 -5 -77 -11 -77 -21 0 -14 -19 -21
-70 -26 l-35 -3 -8 65 c-4 36 -8 83 -9 105 -1 22 -6 43 -11 46 -5 4 -5 14 1
26 8 14 8 23 0 31 -12 12 -40 16 -49 8z"/>
<path d="M15472 9877 c-43 -44 -47 -54 -69 -184 -3 -18 -11 -38 -19 -44 -17
-14 -18 -31 -2 -47 6 -6 13 -20 15 -29 20 -122 26 -151 35 -166 6 -12 6 -23
-2 -31 -7 -10 -6 -17 6 -27 9 -7 14 -22 11 -36 -5 -28 11 -39 73 -47 54 -8 74
5 84 54 6 30 -4 100 -22 150 -3 8 -4 24 -3 35 1 11 -6 38 -15 60 -17 40 -20
117 -5 142 5 10 16 4 41 -22 30 -31 33 -40 33 -89 0 -54 0 -55 37 -70 28 -11
37 -20 36 -38 -1 -21 3 -23 41 -22 64 1 70 9 105 153 7 30 18 56 25 58 12 4
43 -50 43 -78 0 -9 3 -19 8 -21 12 -5 42 -77 42 -101 0 -13 -5 -28 -11 -34 -9
-9 -6 -21 10 -48 11 -20 21 -46 21 -58 0 -23 44 -49 103 -63 46 -11 77 26 76
90 -1 28 -7 58 -14 66 -7 8 -27 62 -45 120 -18 59 -51 139 -76 181 -24 42 -44
82 -44 91 0 23 -65 48 -125 48 -39 0 -55 -4 -55 -13 0 -8 -11 -24 -25 -37 -14
-13 -25 -31 -25 -41 0 -21 -22 -38 -28 -21 -2 6 -14 27 -28 47 -13 19 -23 45
-21 57 2 20 -6 24 -78 40 -44 9 -82 17 -85 17 -3 1 -25 -18 -48 -42z"/>
<path d="M21120 9843 c-14 -3 -29 -8 -35 -13 -5 -4 -25 -11 -43 -15 -31 -6
-98 -41 -185 -96 -68 -42 -114 -88 -120 -118 -3 -16 -24 -50 -47 -76 -28 -32
-39 -53 -35 -66 3 -10 1 -37 -5 -60 -6 -23 -13 -73 -16 -111 -2 -38 -9 -78
-15 -89 -5 -11 -7 -28 -4 -38 3 -10 7 -45 10 -77 2 -36 14 -80 29 -111 15 -29
26 -68 26 -87 0 -18 7 -39 15 -46 8 -7 15 -19 15 -27 0 -22 61 -102 131 -173
33 -33 59 -69 59 -80 0 -16 5 -19 23 -15 16 4 41 -4 77 -25 72 -42 147 -60
257 -60 83 0 97 3 141 29 26 15 64 36 83 45 128 61 219 261 219 484 0 64 -3
78 -26 107 -14 19 -23 39 -18 46 4 7 9 25 10 42 3 24 1 27 -10 18 -7 -6 -20
-9 -27 -6 -15 5 -77 9 -316 21 -120 5 -152 4 -210 -12 -70 -18 -85 -31 -90
-74 -2 -14 -8 -37 -13 -53 -12 -36 -3 -57 43 -97 50 -44 96 -49 133 -15 15 14
37 25 49 25 12 0 25 3 29 7 10 11 153 5 176 -7 11 -6 19 -16 17 -23 -1 -7 7
-11 21 -9 22 3 23 1 16 -50 -3 -29 -14 -64 -25 -78 -10 -14 -25 -39 -33 -56
-8 -18 -21 -36 -28 -40 -8 -5 -17 -17 -21 -26 -6 -17 -79 -60 -94 -56 -5 1
-27 -2 -50 -6 -24 -4 -57 -3 -75 2 -18 6 -45 13 -59 16 -14 3 -31 16 -37 30
-6 13 -31 39 -57 57 -48 34 -119 131 -112 152 2 6 -4 20 -13 29 -28 31 -48
135 -44 239 2 52 7 103 13 114 5 11 17 49 27 85 15 53 29 76 73 123 30 31 63
57 72 57 10 0 26 10 36 23 28 33 54 45 102 45 23 1 49 6 57 13 7 6 25 9 39 7
29 -6 50 14 61 56 4 16 15 31 25 33 29 8 22 31 -12 38 -17 4 -33 4 -36 1 -3
-3 -20 5 -37 17 -17 12 -38 23 -46 23 -8 1 -26 4 -40 7 -14 2 -36 2 -50 0z"/>
<path d="M15188 9774 c-12 -12 -36 -17 -86 -18 -58 -1 -75 -5 -109 -29 -23
-16 -53 -48 -68 -72 -15 -24 -38 -48 -51 -54 -14 -6 -24 -19 -24 -31 0 -30
-15 -24 -36 16 -13 25 -38 45 -84 70 -60 32 -72 35 -155 35 -121 0 -160 -8
-196 -42 -17 -16 -37 -29 -45 -29 -17 0 -18 5 6 -60 11 -30 20 -56 20 -57 0
-2 9 -3 21 -3 17 0 19 -5 16 -28 -3 -16 -11 -38 -18 -50 -11 -18 -11 -24 4
-40 23 -25 21 -49 -3 -64 -15 -10 -20 -24 -20 -55 0 -23 5 -45 11 -48 6 -4 8
-13 5 -21 -6 -14 26 -54 43 -54 15 0 84 -237 100 -343 4 -26 6 -61 3 -77 -4
-25 -9 -30 -33 -30 -16 0 -29 -5 -29 -11 0 -15 31 -38 51 -39 9 0 19 -9 22
-21 3 -11 15 -23 26 -26 11 -3 18 -10 15 -15 -7 -11 13 -28 34 -28 6 0 12 8
12 17 0 9 9 36 21 60 17 36 19 50 11 87 -5 24 -10 78 -11 120 -1 43 -6 87 -11
99 -19 48 -22 65 -26 137 l-4 75 90 78 c50 43 90 85 90 94 0 8 11 28 25 45 14
16 25 36 25 44 0 8 7 14 15 14 15 0 21 -34 16 -89 -1 -14 2 -34 8 -45 5 -12
20 -57 32 -101 11 -44 24 -84 27 -90 4 -5 7 -26 8 -45 2 -43 22 -162 36 -211
6 -22 8 -67 4 -111 -6 -64 -5 -77 12 -97 19 -25 56 -30 101 -16 18 6 22 5 16
-5 -5 -8 -3 -11 5 -8 29 9 34 35 21 100 -7 35 -15 95 -18 133 -2 39 -9 74 -14
80 -5 5 -9 39 -9 76 0 47 -5 72 -15 83 -8 8 -15 26 -15 41 0 14 -5 35 -11 46
-8 16 -7 25 7 40 9 10 25 19 35 19 34 0 151 55 182 85 12 12 32 27 45 34 12 6
22 18 22 27 0 8 6 25 14 37 14 22 18 48 18 122 1 44 -35 115 -58 115 -15 0
-29 43 -19 59 3 7 -3 11 -15 11 -12 0 -34 7 -51 15 -24 13 -28 20 -23 40 7 29
4 31 -18 9z m4 -197 c33 -27 48 -65 38 -93 -14 -37 -118 -122 -156 -126 -44
-5 -50 -1 -57 47 -10 65 3 142 29 170 31 34 106 35 146 2z m-524 -63 c49 -25
50 -27 39 -53 -19 -44 -31 -58 -85 -102 -66 -52 -87 -48 -79 16 4 25 2 47 -3
50 -6 3 -10 16 -10 27 0 12 -9 32 -21 44 -30 32 -16 44 51 44 43 0 71 -7 108
-26z"/>
<path d="M13948 9684 c-32 -15 -58 -33 -58 -41 0 -7 -21 -35 -47 -62 -64 -65
-96 -108 -90 -124 2 -6 -4 -28 -14 -49 -33 -66 -49 -121 -38 -134 6 -7 8 -38
4 -72 -4 -49 -2 -63 15 -85 11 -14 20 -30 20 -37 0 -14 44 -54 96 -85 34 -21
50 -24 110 -22 66 3 154 33 169 58 4 5 25 19 48 29 86 41 160 134 130 164 -4
4 -8 15 -8 24 0 23 -51 40 -73 24 -9 -7 -23 -15 -31 -19 -8 -3 -22 -14 -32
-24 -10 -10 -51 -33 -92 -52 -41 -19 -77 -39 -81 -46 -12 -19 -63 -12 -91 12
-14 12 -29 36 -34 54 -10 34 -4 39 52 49 103 17 255 85 306 138 31 32 33 40
38 118 6 94 -5 134 -41 148 -13 5 -33 19 -44 31 -17 17 -35 22 -89 26 -58 3
-76 0 -125 -23z m148 -129 c20 -14 25 -49 10 -73 -9 -16 -72 -42 -99 -42 -14
0 -38 -7 -53 -15 -62 -32 -81 -12 -41 41 40 54 67 79 100 91 44 16 59 15 83
-2z"/>
<path d="M22511 9501 c-39 -5 -51 -13 -88 -59 -24 -29 -43 -63 -43 -76 0 -13
-7 -41 -16 -62 -10 -24 -16 -66 -16 -116 1 -67 -2 -80 -20 -92 -11 -8 -17 -19
-13 -26 4 -6 0 -22 -9 -35 -22 -34 -20 -82 5 -103 11 -9 45 -41 76 -71 62 -59
121 -90 169 -91 17 0 48 -7 69 -16 30 -12 49 -13 102 -5 35 5 70 8 76 5 19 -7
110 68 117 96 4 15 1 30 -7 38 -7 7 -19 22 -27 33 -11 16 -18 19 -33 11 -21
-12 -152 -4 -170 10 -7 5 -25 7 -41 3 -42 -9 -51 20 -13 39 15 8 66 53 112 99
62 62 94 104 122 159 20 41 37 80 37 85 0 15 -60 72 -83 79 -11 4 -41 21 -66
39 -80 58 -134 70 -240 56z m134 -202 c8 -13 -23 -49 -42 -49 -19 0 -27 28
-13 45 14 17 46 20 55 4z"/>
<path d="M23199 9442 c-113 -89 -191 -173 -194 -211 -1 -16 -12 -41 -23 -56
-12 -15 -22 -35 -22 -44 0 -10 -5 -22 -11 -28 -6 -6 -14 -41 -16 -77 -5 -63
-5 -66 20 -77 14 -6 28 -22 31 -34 10 -39 116 -49 159 -15 14 11 28 20 32 20
3 0 21 11 39 25 18 14 39 25 46 25 6 0 10 6 7 14 -3 8 3 22 14 32 10 9 19 23
19 31 0 7 6 13 14 13 7 0 19 7 26 15 17 21 27 19 36 -7 4 -13 17 -45 29 -73
12 -27 28 -70 35 -95 7 -25 16 -50 21 -55 4 -6 13 -33 19 -59 15 -67 -5 -193
-32 -202 -11 -3 -18 -15 -18 -29 0 -16 -9 -29 -27 -39 -94 -52 -161 -79 -211
-86 -143 -21 -192 -41 -192 -81 0 -22 63 -75 99 -83 104 -23 124 -25 178 -15
114 21 257 99 338 183 28 29 58 57 68 63 10 5 20 20 22 34 2 13 9 46 15 72 9
35 9 56 1 75 -6 15 -12 58 -13 95 -1 41 -7 72 -15 79 -7 6 -10 20 -7 33 3 13
1 26 -5 29 -6 4 -11 20 -11 37 0 16 -4 37 -10 47 -31 56 -90 189 -90 203 0 16
-43 103 -63 127 -8 10 -7 16 2 22 10 6 5 14 -18 31 -23 17 -30 28 -25 43 4 12
12 24 18 28 6 5 2 8 -11 8 -12 0 -47 11 -77 25 -81 37 -99 33 -197 -43z"/>
<path d="M22026 9365 c-15 -8 -37 -15 -48 -15 -11 0 -29 -11 -40 -25 -11 -14
-25 -25 -31 -25 -30 0 -77 -69 -104 -151 -24 -71 -27 -93 -21 -139 4 -30 5
-68 2 -83 -3 -15 -1 -34 5 -41 6 -7 12 -35 14 -63 2 -27 11 -60 20 -73 9 -14
17 -32 17 -40 0 -29 43 -57 96 -64 64 -8 84 -1 84 30 0 15 10 30 28 41 15 9
29 18 31 20 2 2 -1 13 -6 26 -19 37 -35 108 -42 182 -4 39 -13 82 -19 97 -6
15 -10 33 -8 40 3 7 7 25 10 39 5 24 30 39 71 43 21 2 85 48 85 61 0 8 16 30
35 51 19 20 35 39 35 42 0 15 -40 31 -77 32 -23 0 -43 4 -45 10 -6 18 -62 21
-92 5z"/>
<path d="M5390 9239 c-58 -21 -110 -67 -110 -98 0 -10 -11 -26 -24 -34 -14
-10 -31 -37 -41 -67 -9 -28 -24 -54 -34 -57 -9 -4 -20 -12 -24 -20 -4 -7 -14
-13 -21 -13 -7 0 -21 -9 -31 -20 -17 -19 -17 -22 0 -59 9 -22 18 -54 20 -71 1
-18 10 -37 19 -42 9 -5 16 -14 16 -21 0 -7 7 -25 15 -40 24 -47 30 -96 11
-103 -22 -8 -2 -44 24 -44 11 0 28 -8 38 -18 28 -28 49 -33 103 -26 l49 7 0
46 c0 26 -5 52 -11 58 -10 10 -18 115 -21 254 -1 70 24 126 69 154 18 11 32
25 33 32 0 7 15 19 33 28 17 9 41 22 52 31 20 15 20 15 -2 32 -12 9 -32 37
-46 62 -29 52 -42 56 -117 29z"/>
<path d="M4041 9157 c-33 -88 -34 -93 -22 -142 22 -98 37 -145 49 -157 7 -7
12 -16 12 -21 0 -5 6 -23 14 -40 8 -18 17 -45 20 -62 15 -82 20 -102 31 -120
7 -11 15 -49 19 -85 3 -36 8 -78 11 -94 3 -16 0 -35 -7 -44 -11 -13 -10 -14
14 -9 39 10 59 -1 52 -28 -11 -43 54 -87 94 -66 47 25 70 102 38 123 -8 5 -7
11 2 20 14 14 16 67 3 100 -5 13 -23 38 -40 57 -17 19 -31 43 -31 53 0 11 -5
29 -12 41 -10 19 -27 101 -30 147 -1 8 -9 21 -20 28 -10 7 -18 19 -18 25 0 7
-7 25 -15 41 -9 16 -17 53 -20 82 -5 74 -39 130 -93 154 l-43 19 -8 -22z"/>
<path d="M4627 8970 c-24 -8 -106 -74 -107 -85 0 -6 -14 -51 -31 -100 -16 -50
-30 -97 -29 -105 0 -8 0 -45 0 -83 -1 -80 14 -143 36 -151 8 -3 13 -10 9 -16
-6 -10 127 -145 147 -149 7 -1 43 -5 79 -7 61 -5 71 -3 130 28 35 19 89 53
119 76 47 36 60 41 89 36 30 -6 33 -5 26 15 -5 15 -2 21 9 21 18 0 22 25 5 35
-10 6 -6 60 7 107 3 9 -5 26 -17 37 -28 26 -35 26 -41 3 -3 -11 -27 -30 -54
-42 -50 -25 -61 -32 -95 -63 -11 -10 -24 -15 -29 -12 -11 7 -45 -11 -82 -44
-20 -17 -33 -22 -52 -17 -42 10 -34 46 17 75 107 62 213 177 193 210 -3 5 1
16 8 27 19 25 14 33 -67 117 -45 47 -85 79 -107 86 -34 10 -135 11 -163 1z
m165 -132 c40 -45 48 -72 24 -81 -8 -3 -22 -26 -31 -51 -17 -43 -20 -46 -54
-45 -20 0 -52 -4 -71 -10 -48 -15 -52 -14 -44 12 4 12 7 29 7 37 0 8 3 20 7
25 4 6 11 28 15 50 4 22 13 55 20 73 12 28 19 32 52 32 32 0 43 -7 75 -42z"/>
<path d="M2424 8696 c-17 -8 -50 -26 -75 -42 -63 -41 -89 -54 -106 -54 -8 0
-21 -7 -29 -15 -17 -17 -70 -20 -79 -5 -11 17 -36 11 -33 -7 2 -14 -10 -22
-46 -34 -98 -33 -135 -118 -76 -174 30 -29 31 -29 88 -17 32 7 63 12 69 12 18
0 27 -58 11 -78 -12 -15 -11 -16 4 -4 15 12 18 10 24 -15 4 -15 16 -47 26 -70
11 -23 17 -47 13 -52 -3 -6 3 -23 14 -38 12 -17 22 -51 25 -88 8 -89 16 -117
42 -148 13 -16 24 -34 25 -40 1 -7 2 -19 3 -27 2 -8 3 -23 4 -32 1 -10 18 -24
38 -33 46 -19 54 -19 54 0 0 9 11 20 25 27 23 10 24 15 19 67 -3 37 0 65 8 81
12 21 12 29 0 53 -7 15 -18 27 -24 27 -13 0 -37 30 -38 46 0 15 72 44 108 44
16 0 37 7 48 15 10 8 38 15 61 15 39 0 45 4 68 40 14 22 30 40 35 40 12 0 13
40 2 56 -16 24 -49 34 -80 23 -23 -8 -45 -7 -92 5 -34 9 -95 16 -135 16 -84 0
-98 9 -116 70 -14 48 -8 66 31 88 29 16 150 99 176 121 7 5 28 13 49 17 45 8
54 27 28 62 -11 15 -22 34 -25 43 -8 21 -101 24 -144 5z"/>
<path d="M3891 8657 c-16 -8 -30 -32 -43 -74 -18 -54 -19 -65 -6 -90 10 -21
11 -37 4 -63 -5 -19 -11 -37 -12 -39 -2 -2 -18 11 -36 28 -18 17 -38 31 -44
31 -6 0 -21 11 -33 24 -12 13 -43 30 -68 37 -44 12 -47 11 -65 -10 -10 -13
-19 -33 -19 -45 -3 -56 -17 -88 -37 -84 -21 4 -81 93 -89 130 -7 34 -28 36
-80 8 -21 -11 -47 -20 -58 -20 -11 0 -26 -4 -34 -9 -12 -8 -12 -12 2 -26 10
-9 17 -24 17 -33 0 -10 9 -23 19 -29 11 -7 22 -29 26 -53 4 -26 14 -44 28 -52
12 -6 39 -30 60 -54 21 -24 47 -46 57 -49 11 -4 20 -13 20 -20 0 -8 9 -19 21
-25 36 -20 101 14 138 70 17 26 31 55 31 64 0 19 9 20 44 6 14 -5 26 -17 26
-25 0 -9 6 -17 13 -19 6 -2 36 -12 66 -21 79 -24 113 -15 152 43 l32 47 -1
133 c-1 125 -2 135 -29 182 -30 54 -54 62 -102 37z"/>
<path d="M3030 8410 c-14 -4 -38 -15 -55 -24 -16 -9 -35 -16 -41 -16 -6 0 -32
-16 -57 -36 -32 -25 -47 -44 -47 -60 0 -13 -9 -39 -19 -58 -18 -31 -18 -37 -4
-77 10 -30 12 -61 8 -100 -6 -52 -5 -58 19 -76 32 -26 104 -37 141 -23 23 9
30 8 37 -5 5 -8 18 -15 28 -15 43 0 182 41 248 73 28 13 64 61 60 79 -1 7 4
24 11 37 11 21 11 25 -3 33 -9 5 -16 22 -16 37 0 16 -9 40 -20 54 -11 14 -20
29 -20 35 0 10 -103 116 -135 138 -21 15 -94 17 -135 4z m150 -148 c40 -19 49
-56 15 -58 -48 -2 -55 -5 -55 -19 0 -8 -8 -15 -19 -15 -33 0 -65 -65 -40 -81
11 -6 11 -13 3 -26 -20 -32 -46 -27 -81 13 -52 61 -58 119 -14 141 13 6 29 19
34 28 20 36 100 45 157 17z"/>
<path d="M15039 8333 c-4 -12 -13 -23 -18 -23 -5 0 -12 -12 -15 -26 -4 -14
-28 -46 -54 -72 -26 -26 -47 -50 -47 -54 0 -3 -17 -25 -38 -48 -20 -23 -41
-49 -46 -59 -5 -9 -39 -52 -76 -96 -37 -44 -74 -93 -82 -110 -15 -29 -30 -47
-120 -151 -24 -26 -43 -51 -43 -55 0 -4 -12 -20 -26 -36 -40 -44 -224 -277
-276 -351 -26 -37 -73 -96 -106 -131 -47 -52 -61 -63 -73 -54 -75 61 -107 95
-102 113 4 14 0 20 -10 20 -9 0 -30 12 -48 27 -25 22 -33 25 -37 13 -3 -8 -18
-26 -34 -40 -15 -13 -28 -30 -28 -37 0 -6 -9 -15 -20 -18 -11 -3 -20 -15 -20
-25 0 -11 -9 -24 -20 -30 -11 -6 -20 -20 -20 -30 0 -11 -4 -20 -10 -20 -5 0
-10 -5 -10 -12 0 -6 -10 -22 -21 -34 -12 -13 -27 -32 -33 -42 -42 -72 -117
-174 -144 -197 -19 -16 -32 -36 -32 -50 0 -13 -4 -27 -10 -30 -18 -11 -11 -51
13 -72 12 -11 38 -28 59 -37 20 -10 62 -41 95 -70 42 -39 73 -58 115 -70 31
-9 60 -21 63 -26 9 -14 73 -40 99 -40 13 0 33 -11 46 -25 12 -13 39 -30 59
-36 38 -12 130 -69 168 -102 22 -20 23 -20 75 -1 41 15 61 17 89 10 31 -7 39
-6 58 13 18 18 20 26 12 62 -10 46 -7 59 26 108 20 29 21 36 9 43 -10 5 -14
23 -13 55 1 47 -4 54 -46 67 -10 3 -25 19 -35 36 -9 16 -25 33 -34 36 -11 3
-18 15 -18 30 0 15 -6 24 -16 24 -8 0 -13 4 -10 9 4 5 -7 21 -24 34 -16 14
-30 33 -30 42 0 9 -11 36 -24 59 -28 50 -30 122 -4 137 9 5 40 39 69 77 29 37
70 87 91 112 21 25 44 52 51 61 6 8 46 56 88 105 42 50 79 99 83 110 3 10 35
49 70 86 35 37 66 78 70 93 4 14 18 31 31 37 14 6 25 19 25 30 0 10 9 23 20
30 11 7 20 20 20 28 1 8 14 31 30 50 17 19 30 40 30 46 0 7 15 22 34 33 19 12
39 34 45 49 20 49 52 97 85 127 18 17 47 50 64 75 18 25 45 54 61 65 44 29 51
82 17 139 -22 38 -31 45 -57 44 -23 -1 -33 -7 -40 -25z"/>
<path d="M22239 8108 c-14 -6 -32 -26 -41 -47 -9 -20 -46 -65 -83 -101 -36
-36 -96 -99 -132 -140 -36 -41 -76 -81 -89 -88 -25 -13 -34 -11 -129 33 -27
13 -61 28 -75 34 -14 6 -39 19 -55 30 -17 10 -46 21 -67 25 -42 8 -62 28 -54
54 8 23 -25 32 -108 32 -58 -1 -85 -13 -116 -52 l-21 -27 42 -38 c23 -21 64
-49 93 -63 28 -14 62 -33 76 -42 14 -9 38 -20 53 -24 16 -3 31 -13 34 -20 3
-8 12 -14 20 -14 48 0 298 -141 290 -163 -2 -7 0 -21 6 -31 11 -22 -14 -150
-39 -199 -8 -16 -11 -34 -7 -40 5 -7 8 -60 8 -118 1 -156 35 -211 121 -194 30
5 107 37 122 50 6 5 -40 75 -49 75 -23 0 12 83 53 123 22 21 14 41 -13 34 -23
-6 -23 -4 -5 31 12 24 12 30 0 47 -17 24 -9 122 12 146 17 19 18 36 2 42 -10
3 -10 9 0 26 6 11 12 37 12 56 0 19 5 35 10 35 19 0 10 17 -15 28 -28 13 -33
45 -9 64 18 15 27 24 97 99 28 31 62 62 75 68 15 8 22 21 22 41 0 19 5 30 14
30 8 0 18 9 21 20 3 11 11 20 16 20 5 0 9 9 9 20 0 11 9 40 21 65 22 47 19 65
-11 65 -10 0 -22 5 -25 10 -8 12 -52 11 -86 -2z"/>
<path d="M24675 7776 c-38 -12 -94 -39 -123 -59 -64 -46 -170 -149 -197 -192
-51 -83 -77 -116 -88 -113 -7 2 -29 37 -49 77 -21 41 -56 90 -78 111 -22 20
-40 43 -40 51 0 18 -87 84 -143 110 -85 38 -176 17 -225 -52 -15 -21 -35 -41
-45 -45 -14 -4 -18 -13 -14 -32 3 -17 -2 -33 -19 -51 -16 -17 -22 -32 -18 -47
3 -12 1 -25 -5 -28 -14 -9 -14 -61 -1 -86 7 -13 6 -21 -5 -30 -17 -14 -20 -71
-6 -86 9 -8 18 -45 20 -80 1 -7 12 -15 26 -18 14 -4 25 -11 25 -16 0 -6 20
-10 45 -10 34 0 47 4 52 18 4 9 13 22 21 28 12 9 12 15 -2 47 -20 48 -23 208
-4 262 11 34 19 41 56 52 53 15 98 -1 149 -55 47 -50 93 -152 93 -207 0 -24 5
-47 10 -50 15 -9 12 -56 -5 -75 -14 -15 -12 -18 12 -31 16 -7 41 -24 56 -36
l28 -23 36 20 c20 11 39 24 42 29 4 5 23 1 45 -10 94 -45 234 -27 283 38 14
18 29 31 33 28 15 -9 76 71 89 118 8 26 19 47 26 47 18 0 55 -44 55 -67 0 -12
7 -24 16 -27 8 -3 13 -10 10 -15 -7 -10 5 -40 34 -88 20 -34 51 -128 44 -136
-2 -2 2 -32 10 -66 8 -33 12 -61 9 -61 -3 0 0 -7 7 -15 17 -20 6 -155 -18
-212 l-16 -41 -96 -23 c-85 -21 -121 -24 -185 -19 -61 5 -185 57 -185 77 0 14
-45 18 -74 7 -16 -6 -23 -54 -8 -54 4 0 14 -27 21 -60 13 -58 15 -61 60 -81
127 -57 240 -81 321 -67 36 5 76 11 90 12 47 4 125 50 178 105 28 30 52 61 52
69 0 7 14 26 30 41 27 24 29 29 16 41 -9 7 -13 16 -10 22 19 31 -15 322 -50
428 -51 153 -67 194 -83 205 -15 11 -15 15 -3 30 12 15 12 19 -3 30 -9 7 -17
17 -17 23 0 7 -11 19 -25 28 -14 9 -24 22 -23 28 1 6 -11 31 -27 56 -16 25
-28 55 -27 68 1 14 -4 22 -13 22 -10 0 -15 10 -15 28 0 22 2 24 11 12 9 -13
10 -13 6 2 -3 9 -1 18 5 20 18 6 -1 42 -39 71 -43 32 -47 32 -138 3z m-42
-255 c2 -10 1 -25 -4 -32 -5 -8 -9 -28 -9 -44 0 -37 -55 -95 -114 -119 -21 -9
-40 -16 -42 -16 -14 0 -1 73 15 89 11 11 21 27 23 37 2 11 17 22 36 28 23 6
31 14 27 25 -3 11 5 23 23 33 35 22 39 22 45 -1z"/>
<path d="M23240 7696 c-24 -36 -30 -55 -30 -98 0 -74 -17 -162 -43 -228 -22
-55 -33 -70 -52 -70 -26 0 -34 21 -40 100 -6 80 -8 87 -41 118 -19 18 -44 32
-58 32 -39 0 -74 -42 -81 -97 -3 -27 -9 -59 -13 -73 -5 -16 -3 -34 5 -50 7
-14 13 -39 13 -55 0 -19 7 -35 20 -43 11 -7 20 -21 20 -32 0 -12 10 -25 25
-32 14 -6 25 -15 25 -19 0 -5 23 -20 51 -35 36 -18 59 -24 78 -19 37 9 110 57
116 76 3 9 19 31 36 50 16 18 32 44 35 56 8 29 12 29 52 -7 20 -19 32 -39 32
-55 0 -18 18 -43 58 -82 50 -50 62 -57 96 -57 28 -1 42 5 50 18 6 11 19 28 29
38 9 10 17 23 17 30 0 19 -52 88 -66 88 -8 0 -21 12 -31 26 -24 37 -55 133
-47 146 4 6 3 8 -3 5 -6 -4 -16 5 -21 21 -6 15 -23 59 -37 97 -15 39 -31 85
-37 104 -12 41 -34 66 -71 80 -45 17 -54 14 -87 -33z"/>
<path d="M22510 7550 c-100 -24 -173 -78 -200 -150 -8 -19 -21 -40 -29 -46
-13 -9 -15 -28 -13 -85 1 -41 2 -93 2 -115 0 -31 8 -51 30 -79 17 -21 33 -50
36 -64 12 -64 19 -74 65 -92 38 -14 58 -16 108 -9 64 9 171 61 171 84 0 7 18
22 39 34 22 13 42 30 45 40 4 9 21 33 40 53 28 29 35 46 41 95 7 68 -5 108
-48 160 -15 18 -27 38 -27 46 0 30 -164 139 -206 137 -11 -1 -35 -5 -54 -9z
m108 -189 c43 -22 72 -67 71 -107 -2 -34 -26 -94 -39 -94 -5 0 -29 -16 -54
-35 -25 -19 -57 -37 -72 -41 -26 -7 -26 -6 -19 34 6 40 5 42 -27 55 -33 14
-33 14 -31 76 2 82 5 88 55 111 54 25 70 25 116 1z"/>
<path d="M6990 7530 c-68 -14 -176 -28 -265 -35 -44 -4 -84 -11 -90 -15 -5 -4
-28 -10 -50 -13 -53 -7 -96 -17 -120 -27 -70 -29 -329 -85 -346 -74 -6 3 -19
-2 -29 -11 -10 -9 -29 -15 -42 -13 -18 2 -24 -2 -26 -22 -4 -27 -28 -49 -54
-50 -10 0 -25 -15 -33 -32 -30 -63 -40 -78 -48 -78 -10 0 -109 -101 -130 -133
-9 -14 -32 -34 -51 -46 -41 -26 -45 -36 -51 -127 -2 -38 -13 -94 -24 -124 -24
-66 -26 -90 -6 -116 19 -25 19 -83 -1 -105 -8 -9 -17 -37 -19 -61 -2 -25 -7
-62 -10 -82 -6 -30 -3 -41 14 -60 20 -21 22 -30 15 -85 -4 -34 -11 -64 -15
-67 -5 -3 -9 -29 -9 -58 0 -62 29 -102 81 -113 31 -6 31 -6 25 -54 -5 -39 -4
-49 8 -49 12 0 13 -11 9 -54 -5 -48 -3 -56 16 -68 11 -7 21 -19 21 -26 0 -7 9
-22 20 -34 11 -12 20 -28 20 -35 0 -26 32 -63 55 -63 31 0 48 -23 41 -58 -13
-58 46 -152 96 -152 20 0 28 -5 28 -18 0 -27 59 -102 80 -102 9 0 23 7 30 15
11 13 14 13 26 -2 7 -10 14 -31 14 -46 0 -16 11 -38 25 -53 14 -14 25 -29 25
-35 0 -20 29 -20 68 0 31 16 41 27 46 55 4 20 10 37 14 40 5 3 25 -11 46 -30
43 -39 66 -42 108 -13 16 12 31 19 33 17 2 -2 13 -24 24 -48 11 -25 32 -58 46
-75 l26 -30 18 23 c11 12 22 22 25 22 10 0 1 -124 -10 -141 -16 -25 -34 -83
-34 -111 0 -14 -4 -28 -8 -30 -14 -5 -72 -90 -72 -104 0 -7 -12 -26 -27 -42
-102 -108 -123 -132 -123 -144 0 -7 -30 -44 -66 -83 -36 -38 -73 -82 -82 -97
-9 -15 -20 -28 -24 -28 -4 0 -19 -19 -32 -43 -14 -24 -37 -54 -51 -67 -14 -13
-25 -27 -25 -32 0 -12 -71 -113 -147 -209 -18 -23 -33 -49 -33 -58 0 -20 -196
-216 -226 -225 -26 -8 -62 -57 -65 -87 -4 -45 1 -69 15 -69 7 0 19 -7 26 -15
7 -8 29 -15 50 -15 35 0 47 9 148 109 60 60 142 156 183 213 41 57 92 123 115
148 23 25 44 57 48 72 3 14 25 50 48 78 24 29 56 71 72 93 16 22 38 49 48 59
10 10 18 23 18 28 0 6 7 10 15 10 16 0 55 30 55 42 0 10 140 207 152 214 7 5
8 -7 3 -32 -3 -22 -6 -172 -4 -334 1 -162 1 -313 0 -335 -4 -61 -5 -86 -2
-140 1 -27 -1 -90 -5 -140 -4 -49 -6 -99 -5 -110 2 -11 3 -45 4 -75 2 -30 7
-62 12 -70 5 -8 10 -35 12 -60 4 -62 8 -88 16 -96 4 -4 7 -23 7 -43 0 -20 7
-54 15 -76 8 -22 14 -52 15 -67 0 -26 -46 -108 -62 -108 -4 0 -15 -14 -23 -30
-9 -17 -20 -28 -25 -25 -6 4 -10 -1 -10 -10 0 -10 -11 -26 -25 -37 -14 -11
-25 -24 -25 -29 0 -5 -16 -23 -35 -41 -38 -36 -115 -169 -115 -200 0 -10 -7
-21 -15 -24 -8 -4 -15 -10 -15 -15 0 -4 -20 -40 -45 -78 -25 -38 -45 -80 -45
-92 0 -12 -11 -37 -25 -55 -14 -18 -25 -36 -25 -39 0 -4 -10 -21 -22 -37 -11
-17 -25 -50 -29 -73 -4 -24 -21 -65 -38 -92 -16 -26 -33 -61 -37 -78 -4 -16
-10 -34 -14 -40 -5 -5 -10 -23 -13 -40 -3 -16 -15 -52 -26 -80 -30 -74 -71
-235 -71 -277 0 -30 7 -42 37 -67 21 -17 43 -31 49 -31 14 0 74 66 74 82 0 6
6 19 13 27 12 15 31 60 78 188 12 32 28 73 35 91 8 18 14 41 14 51 0 10 9 30
20 44 11 14 20 36 20 49 0 13 11 48 25 76 14 29 25 56 25 61 0 5 20 36 45 70
25 34 45 67 45 75 0 16 46 113 65 136 7 8 15 29 19 45 7 32 61 115 83 128 7 4
13 16 13 26 0 10 8 25 18 34 10 9 28 37 40 61 12 24 31 46 41 49 10 2 25 17
32 33 10 20 24 30 44 34 25 4 31 10 33 38 2 17 8 32 13 32 12 0 77 -137 95
-200 4 -14 22 -45 40 -69 19 -24 34 -52 34 -62 0 -10 5 -21 11 -25 6 -3 22
-32 36 -63 42 -95 81 -168 118 -220 19 -28 35 -55 35 -60 0 -5 11 -22 23 -38
13 -15 29 -42 34 -59 6 -17 23 -43 37 -57 14 -14 26 -33 26 -41 0 -23 41 -86
75 -118 57 -52 100 -106 110 -138 4 -14 30 -45 56 -70 27 -26 49 -49 49 -53 0
-8 73 -125 120 -191 8 -12 24 -37 35 -55 11 -19 34 -52 51 -75 37 -49 71 -52
115 -10 l28 26 -26 72 c-14 39 -31 78 -38 86 -7 8 -18 33 -25 55 -27 86 -60
147 -159 293 -20 28 -40 60 -46 70 -12 20 -31 43 -91 107 -24 26 -44 51 -44
55 0 5 -18 28 -40 51 -22 24 -40 49 -40 55 0 7 -10 25 -23 41 -29 35 -77 127
-77 147 0 8 -8 21 -18 28 -11 7 -24 30 -31 50 -7 20 -22 52 -35 70 -12 18 -35
60 -51 93 -16 33 -34 67 -41 75 -25 30 -64 111 -64 134 0 13 -13 36 -29 53
-16 17 -31 47 -35 69 -4 21 -16 55 -26 74 -42 81 -53 117 -60 202 -8 101 -17
117 -55 100 -56 -26 -85 -12 -85 42 0 13 -3 26 -7 30 -5 4 -9 22 -9 39 -4 80
-2 339 3 512 8 291 4 600 -10 621 -4 7 -2 49 4 95 6 46 11 98 11 115 1 25 5
30 20 26 10 -2 18 -8 18 -13 0 -4 15 -25 33 -45 17 -20 50 -65 72 -99 84 -131
115 -175 125 -175 5 0 15 -11 22 -24 7 -13 37 -43 66 -66 28 -23 52 -49 52
-59 0 -9 20 -37 45 -61 25 -24 45 -50 45 -57 0 -7 12 -21 28 -31 64 -40 95
-69 112 -107 10 -22 27 -50 37 -62 10 -12 30 -42 45 -67 16 -26 36 -49 45 -53
27 -9 53 -34 53 -51 0 -29 50 -82 76 -82 30 0 71 29 95 68 15 25 15 29 0 57
-9 17 -19 32 -24 33 -4 2 -21 34 -38 70 -17 37 -37 74 -44 82 -7 8 -23 35 -36
60 -13 25 -35 57 -49 71 -14 14 -44 50 -67 80 -104 132 -129 161 -215 247 -78
77 -87 87 -153 165 -27 31 -55 57 -62 57 -7 0 -13 11 -13 25 0 14 -3 25 -7 25
-5 0 -21 25 -38 56 -17 32 -42 62 -57 70 -16 8 -28 21 -28 30 0 8 -16 36 -35
61 -19 25 -35 51 -35 58 0 7 -9 24 -21 39 -28 36 -17 47 46 44 46 -2 58 2 80
22 15 14 48 30 73 36 l47 11 40 -45 c38 -41 42 -43 77 -37 21 4 47 16 59 26
14 12 37 19 64 19 48 0 75 22 75 62 0 34 17 47 72 54 55 8 68 29 68 109 0 44
3 55 16 55 12 0 15 -6 10 -25 -5 -21 -2 -27 19 -35 41 -16 68 -12 96 14 23 22
25 29 23 107 -1 46 -5 99 -8 117 -6 25 -2 42 18 77 15 25 35 49 46 55 17 9 20
21 20 76 0 43 5 73 16 89 9 14 14 34 11 45 -3 11 3 44 14 72 10 29 19 60 19
69 0 9 9 44 20 79 15 47 17 67 9 82 -9 16 -7 26 10 49 12 15 21 35 21 44 0 8
4 15 9 15 13 0 23 32 13 39 -5 3 -10 13 -10 21 -3 29 -21 120 -26 128 -8 13
23 52 40 52 8 0 12 5 9 10 -3 6 -13 10 -22 10 -23 0 -42 30 -43 65 0 17 -7 41
-16 54 -13 18 -14 28 -5 47 8 19 6 43 -15 117 -28 102 -52 164 -70 187 -7 8
-15 27 -19 42 -4 15 -13 32 -21 39 -8 6 -14 18 -14 25 0 8 -5 14 -10 14 -6 0
-15 11 -20 25 -5 14 -14 25 -19 25 -5 0 -12 11 -15 24 -3 14 -14 27 -24 30
-10 4 -43 34 -73 67 -70 79 -174 149 -289 197 -42 17 -263 25 -330 12z m307
-253 c95 -46 121 -84 102 -149 -5 -19 -3 -31 7 -39 8 -6 14 -24 14 -39 0 -28
28 -65 118 -155 41 -41 44 -50 54 -119 6 -48 6 -81 0 -92 -7 -13 -2 -23 23
-45 18 -16 39 -29 47 -29 16 0 39 -55 31 -76 -3 -8 4 -24 16 -35 27 -26 27
-35 -4 -43 -28 -7 -33 -21 -10 -30 21 -8 19 -24 -5 -31 -12 -4 -20 -15 -20
-28 0 -18 -9 -25 -43 -35 -24 -7 -51 -10 -61 -6 -34 13 -80 7 -129 -16 -43
-20 -49 -21 -65 -8 -22 20 -90 21 -119 3 -12 -8 -31 -15 -42 -15 -11 0 -23 -4
-26 -10 -3 -5 -15 -10 -26 -10 -10 0 -19 -7 -19 -15 0 -8 -4 -15 -9 -15 -5 0
-11 7 -15 15 -3 8 -10 15 -16 15 -5 0 -10 -7 -10 -15 0 -22 -21 -18 -51 11
-22 21 -32 24 -62 19 -37 -7 -47 -20 -53 -68 -2 -15 -9 -38 -15 -50 l-12 -21
-9 23 c-6 18 -14 22 -33 18 -14 -2 -28 0 -31 4 -3 5 -16 9 -30 9 -13 0 -24 5
-24 10 0 13 -37 13 -45 0 -3 -5 -18 -9 -33 -9 -176 -1 -170 0 -193 -37 -11
-19 -20 -46 -19 -61 1 -16 2 -43 1 -61 -2 -50 -24 -34 -34 23 -10 63 -21 75
-66 75 -58 0 -77 -9 -94 -46 -21 -43 -39 -44 -35 -1 2 25 -3 38 -26 60 -16 15
-33 27 -38 27 -4 0 -8 7 -8 15 0 26 -19 16 -26 -12 -7 -32 -41 -73 -60 -73 -6
0 -17 13 -23 29 -14 33 -51 54 -72 40 -30 -19 -36 -9 -33 59 1 37 -3 73 -8 79
-6 7 -7 24 -4 39 4 15 3 23 -3 20 -14 -9 -22 23 -10 45 5 11 8 27 5 37 -8 23
-19 102 -18 127 0 11 -4 40 -9 65 -9 41 -6 53 30 135 30 67 51 98 81 123 22
19 51 55 64 81 23 45 45 62 94 76 20 6 22 11 17 36 -6 24 -3 29 13 29 11 0 25
6 31 14 6 7 48 19 94 26 45 7 89 19 98 27 9 7 52 20 95 27 44 8 124 26 178 40
111 29 151 35 281 45 147 11 231 3 302 -32z m-299 -1284 c46 -11 76 -14 80 -8
10 15 139 12 154 -3 10 -10 10 -15 -1 -22 -12 -7 -10 -15 12 -44 15 -19 27
-38 27 -43 0 -4 14 -14 30 -22 23 -10 29 -18 25 -32 -8 -24 16 -25 55 -3 55
33 118 -18 72 -59 -17 -16 -21 -16 -32 -2 -7 8 -19 15 -28 15 -20 0 -52 -29
-52 -47 0 -7 -3 -13 -7 -13 -5 0 -18 -3 -30 -6 -16 -4 -23 0 -28 15 -6 20 -8
20 -36 6 -16 -9 -29 -24 -29 -34 0 -26 -8 -30 -43 -20 -28 8 -35 6 -54 -16
-12 -14 -31 -25 -41 -25 -46 0 -85 -15 -113 -43 -16 -16 -32 -27 -34 -25 -3 2
-11 22 -19 44 -12 34 -17 39 -42 38 -16 -1 -42 -7 -57 -13 -25 -10 -27 -14
-22 -44 5 -24 2 -37 -9 -46 -20 -17 -56 2 -56 31 0 17 -4 19 -22 13 -68 -22
-115 12 -121 87 -3 26 -9 54 -16 62 -9 10 -8 16 5 27 11 9 14 22 10 43 -4 20
0 42 11 63 16 29 22 33 60 33 40 0 42 1 45 33 2 26 8 32 28 34 48 4 85 16 110
34 28 20 48 19 168 -8z m488 -114 c3 -6 1 -16 -5 -22 -9 -9 -14 -8 -21 3 -9
15 -4 30 10 30 5 0 12 -5 16 -11z m-1048 -74 l27 -26 -25 -19 c-14 -10 -25
-18 -26 -17 -5 8 -13 87 -9 87 3 0 18 -11 33 -25z"/>
<path d="M18132 7345 c-13 -7 -30 -22 -39 -34 -15 -22 -15 -22 -37 -3 -41 38
-61 37 -93 -7 -15 -22 -37 -41 -48 -42 -55 -4 -131 5 -140 16 -5 7 -25 15 -43
19 -24 4 -37 1 -52 -14 -11 -11 -29 -20 -40 -20 -11 0 -32 -13 -46 -30 -15
-16 -35 -32 -45 -35 -19 -6 -59 -75 -59 -101 0 -9 -13 -21 -29 -27 -16 -6 -35
-21 -41 -33 -7 -12 -23 -27 -35 -32 -20 -9 -26 -7 -40 14 -8 13 -34 38 -57 54
l-40 30 -30 -23 c-16 -12 -38 -27 -49 -33 -32 -19 -57 -45 -63 -67 -3 -12 -26
-38 -51 -57 -33 -26 -47 -44 -51 -70 -4 -19 -15 -56 -25 -82 -10 -26 -16 -54
-13 -63 4 -8 2 -15 -4 -15 -5 0 -12 -9 -15 -20 -3 -11 -9 -20 -14 -19 -21 4
-33 -2 -33 -16 0 -11 -8 -13 -30 -8 -27 5 -30 3 -30 -20 0 -14 -8 -31 -17 -36
-17 -10 -17 -12 -1 -24 10 -8 15 -16 12 -19 -11 -11 8 -78 22 -78 16 0 16 -6
5 -35 -5 -13 -3 -28 6 -42 19 -29 9 -77 -21 -101 -19 -14 -24 -28 -24 -70 -2
-55 17 -84 62 -98 27 -9 57 -44 50 -56 -4 -6 2 -7 15 -3 14 4 21 2 21 -7 0 -7
7 -26 16 -43 8 -16 14 -38 12 -50 -3 -24 21 -113 33 -121 5 -3 9 -29 9 -57 0
-34 7 -63 20 -85 11 -18 20 -48 20 -67 0 -59 18 -85 60 -85 28 0 39 -5 49 -24
7 -13 10 -33 7 -44 -5 -16 0 -22 23 -30 26 -9 33 -20 50 -80 12 -38 21 -74 21
-79 0 -6 7 -23 15 -39 10 -19 11 -32 4 -40 -12 -14 8 -54 27 -54 6 0 19 -9 29
-20 14 -16 26 -19 48 -14 24 5 29 3 24 -9 -3 -9 1 -21 9 -27 8 -7 14 -21 14
-30 0 -10 16 -28 36 -40 19 -13 40 -34 45 -47 8 -21 14 -24 39 -18 26 6 32 2
50 -27 11 -18 20 -43 20 -55 0 -26 17 -33 48 -22 16 6 30 4 45 -6 12 -8 35
-15 52 -15 21 0 40 -9 55 -25 13 -14 29 -25 37 -25 18 0 16 -13 -5 -41 -10
-13 -30 -49 -45 -81 -15 -31 -33 -58 -40 -61 -7 -3 -19 -24 -27 -48 -7 -24
-30 -60 -49 -79 -20 -19 -36 -37 -36 -40 -3 -26 -21 -53 -41 -60 -14 -6 -24
-16 -23 -22 4 -30 -3 -42 -48 -87 -27 -26 -63 -67 -81 -89 -18 -23 -40 -42
-48 -42 -9 0 -14 -10 -14 -29 0 -23 -7 -32 -34 -45 -26 -12 -35 -24 -40 -51
-4 -22 -17 -42 -36 -55 -19 -14 -30 -30 -30 -46 0 -15 -6 -24 -15 -24 -9 0
-15 -9 -15 -24 0 -16 -8 -27 -27 -35 -16 -6 -58 -40 -95 -74 -55 -51 -68 -68
-68 -93 0 -16 -5 -35 -12 -42 -9 -9 -7 -20 6 -49 14 -31 26 -42 63 -55 49 -18
93 -10 93 15 0 7 26 39 58 70 79 78 122 126 122 136 0 4 63 79 141 166 78 88
145 168 149 180 4 11 25 43 47 70 22 28 42 58 46 67 7 18 76 58 102 58 22 0
38 -48 31 -95 -7 -42 -9 -87 -7 -145 1 -52 -10 -133 -20 -146 -11 -14 -3 -172
10 -188 5 -6 10 -57 10 -111 -1 -55 4 -140 11 -188 12 -96 13 -91 -44 -154
-18 -19 -35 -29 -44 -25 -11 4 -14 1 -9 -11 4 -11 -3 -26 -19 -42 -20 -20 -23
-28 -14 -45 24 -44 11 -236 -16 -247 -8 -3 -14 -11 -14 -19 0 -8 -4 -22 -9
-32 -5 -9 -17 -36 -26 -59 -10 -24 -24 -43 -32 -43 -7 0 -13 -8 -14 -17 -7
-115 -10 -148 -18 -157 -5 -6 -12 -26 -16 -44 -3 -17 -11 -32 -16 -32 -5 0 -9
-16 -9 -35 0 -19 -4 -35 -9 -35 -5 0 -11 -12 -13 -27 -2 -17 -12 -32 -25 -38
-12 -5 -30 -27 -39 -48 -10 -21 -25 -44 -34 -50 -18 -13 -90 -129 -90 -144 0
-15 -49 -105 -70 -128 -9 -11 -21 -37 -24 -57 -4 -21 -13 -43 -20 -51 -7 -7
-20 -26 -29 -42 -9 -17 -27 -43 -41 -59 -14 -16 -26 -38 -26 -49 0 -10 -7 -34
-16 -52 -21 -45 -16 -65 25 -92 57 -39 106 -28 109 24 0 12 17 44 36 72 20 28
36 53 36 55 0 3 17 31 38 63 21 32 49 83 61 113 13 30 34 69 47 86 13 17 24
35 24 39 0 16 85 135 96 135 6 0 18 17 26 38 12 31 22 40 47 45 28 6 30 9 20
25 -10 16 -8 25 13 53 14 19 28 52 31 73 4 21 15 48 26 60 14 15 17 27 10 43
-9 23 46 204 76 249 8 13 15 34 15 47 0 13 11 37 25 53 17 20 25 41 25 68 0
50 21 156 31 156 4 0 11 -5 14 -10 3 -5 15 -10 26 -10 11 0 23 -10 29 -24 5
-13 20 -35 33 -48 25 -23 55 -78 126 -226 22 -46 50 -93 62 -106 12 -12 37
-52 57 -87 41 -76 102 -191 147 -274 54 -101 89 -157 121 -194 17 -20 36 -51
43 -69 8 -17 17 -32 22 -32 5 0 20 -22 34 -49 13 -27 54 -78 90 -114 36 -35
65 -69 65 -75 0 -14 45 -42 68 -42 10 0 23 -5 30 -12 19 -19 62 9 62 41 0 32
-68 146 -114 190 -20 19 -36 42 -36 51 0 9 -11 27 -25 40 -14 13 -25 28 -25
33 0 5 -9 22 -20 37 -11 16 -17 35 -14 44 4 10 -2 19 -18 27 -26 12 -82 93
-81 118 0 9 -11 28 -24 43 -24 26 -55 80 -128 228 -21 41 -48 89 -61 107 -13
17 -24 38 -24 46 0 8 -11 26 -25 41 -14 15 -25 33 -25 41 0 7 -11 27 -25 43
-14 17 -25 39 -25 50 0 12 -18 47 -40 78 -21 31 -44 72 -51 93 -7 20 -22 46
-34 59 -25 25 -37 72 -35 145 0 40 -2 47 -18 47 -11 0 -26 7 -33 16 -9 11 -23
14 -46 11 l-34 -6 2 78 c2 42 0 81 -4 87 -3 6 -2 27 3 47 5 22 4 53 -2 78 -8
29 -7 51 1 79 10 33 9 44 -5 64 -8 14 -13 29 -10 34 11 19 28 234 32 407 3
166 27 441 38 453 3 3 9 -4 12 -14 4 -10 18 -32 31 -47 14 -17 23 -42 23 -62
0 -25 5 -35 19 -40 18 -5 43 -38 93 -122 25 -41 41 -65 61 -92 9 -13 17 -30
17 -38 0 -7 15 -27 34 -44 19 -16 38 -43 41 -59 4 -17 11 -30 16 -30 5 0 19
-15 31 -34 13 -18 45 -67 72 -107 82 -122 194 -252 237 -275 27 -13 59 -63 59
-91 0 -8 4 -12 9 -9 5 3 11 -3 14 -14 3 -11 13 -20 24 -20 10 0 35 -9 56 -20
20 -11 44 -20 52 -20 8 0 32 -9 52 -20 48 -25 89 -25 131 0 24 15 32 27 32 48
0 29 -26 62 -49 62 -24 0 -61 33 -61 54 0 24 -57 68 -102 79 -45 12 -252 226
-264 273 -4 16 -20 42 -36 57 -16 15 -31 41 -35 57 -3 16 -16 36 -29 45 -13 8
-35 37 -49 64 -13 27 -29 53 -35 56 -6 4 -22 24 -36 46 -13 22 -34 49 -44 59
-11 11 -20 28 -20 38 0 9 -9 23 -20 30 -11 7 -20 17 -20 23 0 5 -16 31 -35 56
-19 25 -35 52 -35 60 0 8 -9 26 -20 40 -11 14 -20 32 -20 40 0 8 -16 51 -36
96 -25 58 -47 92 -76 117 -37 32 -39 37 -24 49 14 12 20 11 41 -9 26 -25 46
-20 38 10 -5 17 -2 18 28 10 18 -5 42 -19 53 -29 24 -23 75 -21 133 5 17 8 38
14 47 14 9 0 16 5 16 10 0 6 7 10 16 10 14 0 14 3 4 15 -10 12 -10 21 0 44
l12 29 33 -19 c22 -14 35 -16 40 -9 4 6 25 22 47 36 25 16 46 40 55 62 9 21
33 50 57 67 l41 31 8 124 c5 88 12 128 22 136 15 11 18 83 5 105 -9 13 8 53
41 99 25 35 52 185 56 310 2 84 -1 116 -16 160 -38 107 -38 106 24 106 44 0
58 4 74 23 21 24 21 42 0 99 -5 13 -9 35 -9 49 0 15 -17 45 -41 74 -22 27 -38
49 -34 49 15 0 -77 98 -98 104 -12 3 -31 19 -42 35 -11 16 -37 54 -59 85 -27
39 -36 60 -31 73 16 36 -2 83 -32 83 -21 0 -61 48 -88 105 -12 28 -30 57 -40
65 -9 7 -25 31 -36 53 -23 43 -73 97 -92 97 -7 0 -32 16 -56 35 -51 41 -68 43
-106 13 l-27 -21 -19 24 c-10 13 -19 32 -19 41 0 11 -15 24 -36 33 -42 17 -41
17 -72 0z m-542 -556 c14 -5 34 -9 45 -8 41 4 53 -2 81 -43 16 -24 31 -45 34
-48 3 -3 11 -17 17 -31 16 -38 95 -99 127 -99 14 0 26 -4 26 -10 0 -5 9 -10
21 -10 11 0 42 -18 68 -40 26 -22 55 -40 64 -40 8 0 18 -4 21 -9 3 -4 18 -11
33 -14 16 -3 47 -22 70 -42 50 -42 104 -56 128 -31 9 9 22 16 29 16 8 0 19 7
26 15 9 11 17 12 31 4 10 -5 19 -15 19 -21 0 -16 60 -82 83 -91 13 -5 33 -2
55 9 30 14 33 19 28 45 -5 24 -2 29 14 29 11 0 25 -9 32 -20 7 -11 18 -20 25
-20 7 0 13 -8 13 -18 0 -10 6 -24 13 -31 6 -6 13 -26 14 -44 1 -18 4 -57 7
-87 11 -104 8 -134 -16 -153 -20 -17 -23 -17 -34 -2 -8 10 -14 12 -19 6 -3 -6
-23 -11 -44 -11 -27 0 -46 -8 -70 -29 -33 -29 -35 -30 -117 -24 -65 5 -90 2
-117 -11 -19 -9 -46 -16 -60 -16 -14 0 -28 -4 -31 -9 -3 -4 -19 -11 -36 -14
-16 -4 -30 -13 -30 -20 0 -7 -13 -23 -29 -34 -24 -18 -30 -19 -42 -8 -16 15
-68 23 -86 12 -7 -4 -14 0 -18 12 -7 23 -24 31 -85 41 -49 8 -85 -4 -128 -43
-16 -15 -37 -21 -75 -22 -62 -1 -92 -15 -112 -55 -9 -17 -21 -30 -29 -30 -7 0
-18 -12 -24 -26 -10 -20 -17 -24 -35 -18 -12 3 -29 13 -38 20 -8 8 -23 14 -33
14 -14 0 -17 8 -15 41 2 22 -2 43 -8 47 -6 4 -13 27 -16 52 -3 25 -6 46 -6 47
-1 1 -15 18 -32 38 -19 21 -40 35 -54 35 -23 0 -23 1 -8 33 9 17 22 35 29 40
9 5 12 27 9 77 -3 64 -2 71 26 106 16 20 29 42 29 48 0 7 15 27 33 46 28 29
29 33 10 28 -28 -7 -51 16 -29 29 16 9 24 37 25 86 1 17 6 27 16 27 22 0 18
21 -5 27 -21 6 -28 23 -9 23 6 0 8 8 4 19 -4 13 0 23 12 29 15 9 16 13 4 35
-21 39 -6 95 36 134 30 29 40 33 71 28 21 -4 48 -11 62 -16z m555 -1084 c11
-2 32 -6 46 -8 14 -2 31 -7 36 -10 6 -4 16 0 23 8 15 18 43 19 71 3 17 -11 22
-10 33 4 11 15 17 16 44 6 36 -14 44 -50 15 -67 -15 -8 -16 -13 -5 -30 6 -12
12 -29 12 -38 0 -10 9 -31 20 -48 11 -16 20 -38 20 -48 0 -21 -37 -56 -60 -57
-8 0 -39 -11 -68 -25 -30 -14 -65 -25 -78 -25 -14 0 -24 -6 -24 -14 0 -26 -19
-28 -49 -7 -38 27 -55 26 -71 -4 -18 -34 -67 -33 -123 2 -49 31 -100 45 -174
47 -58 2 -68 8 -78 47 -6 23 -3 27 25 33 l32 6 -4 57 c-2 32 -8 66 -12 76 -7
14 -3 17 23 17 18 0 51 9 73 20 50 24 56 24 96 4 44 -22 76 -15 80 16 4 32 31
53 57 45 11 -3 29 -8 40 -10z m-239 -1396 c10 -17 -13 -36 -27 -22 -12 12 -4
33 11 33 5 0 12 -5 16 -11z"/>
<path d="M11930 7328 c0 -20 -54 -58 -84 -58 -11 0 -31 -11 -45 -23 -25 -23
-103 -57 -131 -57 -7 0 -22 -8 -32 -17 -10 -9 -26 -17 -36 -18 -9 -1 -37 -14
-62 -30 -59 -39 -90 -55 -104 -55 -6 -1 -27 -14 -46 -30 -19 -17 -39 -30 -45
-30 -25 0 -155 -170 -155 -203 0 -11 -9 -26 -19 -35 -20 -17 -93 -181 -106
-237 -4 -17 -16 -37 -27 -46 -20 -16 -20 -16 1 -36 18 -17 23 -34 25 -88 1
-42 -3 -73 -11 -83 -15 -21 -17 -52 -2 -52 7 0 8 -11 4 -30 -3 -16 -2 -37 3
-47 7 -11 6 -31 -3 -59 -7 -24 -9 -48 -4 -55 5 -8 9 -26 9 -40 0 -14 3 -29 7
-33 15 -15 33 -84 33 -129 0 -60 26 -154 51 -186 11 -13 19 -29 19 -37 0 -47
156 -301 200 -324 11 -6 20 -15 20 -21 0 -15 50 -58 85 -74 17 -7 39 -23 49
-34 11 -12 25 -21 31 -21 7 0 20 -11 28 -24 9 -13 28 -27 44 -30 15 -4 45 -18
65 -32 43 -28 56 -29 82 -9 28 21 49 19 76 -10 13 -14 30 -25 39 -25 8 0 30
-5 48 -12 29 -11 33 -16 28 -37 -3 -13 -8 -61 -11 -105 -3 -45 -6 -97 -9 -116
-5 -49 -33 -110 -50 -110 -8 0 -19 -8 -24 -18 -5 -9 -31 -40 -58 -68 -129
-134 -202 -217 -238 -274 -22 -34 -48 -74 -57 -89 -10 -14 -21 -33 -24 -41 -4
-8 -17 -24 -28 -35 -12 -11 -33 -36 -46 -55 -13 -19 -42 -56 -64 -82 -23 -25
-70 -87 -106 -137 -38 -55 -73 -94 -86 -97 -13 -3 -25 -16 -28 -30 -4 -14 -14
-24 -24 -24 -33 0 -92 -87 -92 -136 0 -49 22 -92 56 -110 31 -17 33 -17 59 0
15 10 30 27 32 37 3 10 9 19 14 19 5 0 14 11 19 25 5 14 14 25 19 25 13 0 91
78 91 91 0 5 15 24 33 42 18 17 55 61 84 97 28 36 63 76 77 89 14 14 26 30 26
38 0 7 8 21 18 31 9 9 31 40 49 67 40 62 93 137 107 150 6 6 29 35 52 65 23
30 67 82 98 114 45 46 60 56 67 45 8 -13 4 -94 -7 -127 -2 -7 1 -24 6 -37 10
-27 26 -232 22 -300 -1 -22 -1 -58 0 -80 1 -22 1 -65 0 -95 0 -30 -2 -260 -2
-510 -2 -506 3 -463 -71 -544 -14 -16 -36 -54 -48 -85 -12 -31 -26 -63 -32
-71 -21 -36 -89 -186 -89 -198 0 -16 -51 -121 -61 -128 -5 -3 -7 -14 -4 -25 4
-12 -6 -34 -29 -65 -22 -29 -36 -58 -36 -76 0 -18 -9 -36 -25 -50 -15 -13 -28
-37 -31 -60 -4 -21 -13 -43 -20 -49 -8 -6 -14 -22 -14 -36 0 -13 -7 -31 -15
-39 -8 -9 -18 -27 -22 -42 -6 -24 -33 -67 -93 -144 -11 -14 -23 -48 -27 -74
-3 -26 -16 -58 -27 -71 -11 -14 -38 -68 -60 -121 -21 -53 -45 -106 -52 -117
-22 -31 -18 -102 6 -117 11 -7 20 -18 20 -25 0 -14 31 -33 53 -33 16 0 87 90
87 110 0 6 19 53 41 103 58 128 69 154 69 162 0 3 13 23 28 43 16 20 37 60 47
87 10 28 24 57 31 66 8 8 14 24 14 33 0 10 8 30 18 44 10 15 24 41 32 57 8 17
20 37 27 46 7 9 30 61 51 116 21 55 45 111 53 124 9 13 20 35 24 49 4 14 16
41 26 60 11 19 19 42 19 51 0 9 7 22 15 29 8 7 15 27 15 44 0 18 7 41 15 52 8
10 15 29 15 40 0 12 7 27 15 34 8 7 20 31 27 54 14 48 62 139 83 156 8 7 15
19 15 26 0 8 7 14 16 14 16 0 50 -66 60 -119 4 -17 11 -34 15 -37 5 -3 9 -14
9 -24 0 -11 14 -42 30 -70 17 -28 30 -59 30 -68 0 -17 13 -40 100 -187 69
-117 116 -186 159 -235 97 -111 169 -196 206 -245 22 -29 74 -83 115 -121 41
-37 83 -75 93 -86 10 -10 21 -18 25 -18 11 0 202 -189 202 -200 0 -5 14 -23
32 -40 28 -29 36 -31 72 -26 67 11 74 25 43 93 -26 58 -150 202 -261 303 -130
118 -190 178 -214 212 -29 39 -117 146 -156 189 -20 22 -65 86 -111 160 -5 9
-30 41 -54 70 -24 30 -47 64 -52 78 -5 13 -36 79 -69 147 -33 67 -60 129 -60
136 0 8 -4 18 -9 23 -15 16 -41 116 -41 157 0 47 -34 98 -66 98 -12 0 -31 8
-43 18 -21 17 -21 20 -10 142 6 69 11 141 10 160 -2 47 -1 143 3 335 9 381 7
497 -8 602 -15 106 -16 223 -2 223 11 1 75 -88 104 -145 15 -29 82 -126 149
-216 181 -244 186 -249 216 -265 15 -8 27 -21 27 -28 0 -18 86 -123 175 -211
39 -38 83 -87 99 -107 16 -21 34 -38 41 -38 8 0 26 -15 42 -34 50 -61 165
-142 211 -150 41 -6 45 -4 89 39 l46 46 -28 29 c-16 16 -37 33 -48 36 -36 12
-105 64 -240 183 -34 30 -65 60 -70 67 -4 7 -54 59 -111 116 -61 60 -117 127
-136 161 -18 31 -40 63 -49 70 -10 6 -38 44 -64 82 -25 39 -64 93 -86 120 -70
89 -208 298 -244 372 -38 77 -55 124 -66 190 -7 37 -5 45 16 65 26 25 30 60 8
78 -8 7 -15 21 -15 31 0 10 -11 25 -23 34 -19 12 -24 25 -26 61 l-1 47 45 -5
c30 -4 48 -1 55 8 13 15 94 44 124 44 11 0 41 -22 68 -52 46 -48 50 -50 73
-38 21 11 27 11 44 -4 16 -14 19 -28 16 -59 -5 -47 26 -113 57 -123 25 -8 34
-29 42 -99 5 -45 3 -66 -8 -80 -10 -14 -11 -25 -4 -38 5 -11 7 -30 4 -43 -10
-39 24 -132 56 -155 24 -18 28 -27 28 -68 0 -31 5 -53 15 -61 8 -6 14 -26 14
-43 -1 -18 2 -50 5 -72 3 -22 10 -66 14 -97 10 -65 54 -138 83 -138 11 0 19
-6 19 -14 0 -7 7 -19 15 -26 8 -7 15 -22 15 -34 0 -26 54 -71 95 -79 26 -6 33
-2 53 30 30 47 42 115 36 200 -5 65 -22 123 -35 123 -16 0 -17 33 -2 67 27 64
32 101 17 114 -8 6 -19 29 -24 50 -6 21 -20 47 -31 58 -16 15 -20 33 -23 102
-1 46 -8 98 -15 114 -21 50 -32 155 -26 240 6 63 3 89 -10 123 -16 40 -16 46
-1 102 10 33 14 65 11 71 -4 6 0 18 8 27 8 9 17 35 20 57 4 21 15 51 25 65 10
14 24 48 31 77 8 33 21 57 35 66 12 8 28 34 35 57 11 39 50 127 89 207 14 27
17 29 27 16 18 -25 40 -10 41 28 1 19 4 45 8 59 3 14 1 49 -5 79 -12 56 -14
62 -44 119 -10 20 -17 53 -16 80 4 120 7 150 19 165 8 9 11 21 7 27 -10 16 3
62 15 55 25 -16 27 10 3 57 -17 35 -22 53 -15 56 34 11 -2 67 -48 74 -24 3
-25 6 -22 58 3 48 0 59 -23 84 -14 15 -24 33 -23 39 2 7 -10 29 -25 49 -16 20
-26 41 -23 47 11 18 -6 42 -41 56 l-35 15 7 55 c6 54 6 55 -19 55 -29 0 -58
27 -82 78 -26 54 -69 92 -107 92 -21 0 -45 10 -67 28 -19 16 -47 32 -61 35
-14 4 -50 32 -80 62 -45 47 -58 55 -80 51 -15 -3 -29 -2 -33 1 -15 15 -124 53
-153 53 -39 0 -134 19 -148 30 -5 4 -58 10 -117 12 -100 4 -108 3 -108 -14z
m-280 -583 c0 -15 -15 -35 -26 -35 -8 0 -14 -9 -14 -19 0 -42 -74 -171 -97
-171 -16 0 -17 58 -2 97 5 15 26 44 46 64 24 26 33 43 29 56 -5 17 -2 18 29
15 19 -2 35 -6 35 -7z m667 -200 c29 -29 41 -35 78 -35 24 0 45 -3 47 -7 7
-17 78 -63 96 -63 10 0 38 -13 60 -30 23 -16 46 -30 50 -30 18 0 50 -47 63
-94 18 -64 56 -96 114 -96 25 0 47 -6 54 -14 7 -8 25 -18 41 -21 16 -3 35 -16
42 -28 16 -25 48 -176 47 -222 -1 -16 1 -49 4 -72 6 -59 -9 -133 -33 -158 -11
-12 -20 -26 -20 -32 0 -5 -9 -18 -20 -28 -10 -9 -18 -20 -18 -24 7 -26 -25
-59 -110 -115 -95 -61 -144 -88 -189 -101 -13 -3 -23 -10 -23 -16 0 -11 -83
-53 -147 -75 -26 -9 -66 -24 -88 -34 -22 -10 -51 -22 -65 -25 -14 -4 -49 -19
-78 -32 -58 -27 -87 -25 -79 7 3 11 1 23 -4 26 -5 3 -9 18 -9 35 0 23 -4 29
-22 29 -13 0 -34 -7 -48 -15 -14 -8 -33 -18 -42 -21 -12 -4 -18 -17 -18 -39 0
-21 -6 -35 -16 -39 -27 -10 -34 -7 -44 19 -5 14 -15 25 -21 25 -7 0 -9 9 -5
24 3 14 2 27 -3 30 -4 3 -39 -1 -76 -9 -70 -14 -91 -12 -79 7 5 8 -6 9 -35 4
-43 -7 -72 4 -136 48 -45 31 -105 89 -105 101 0 6 -18 29 -41 50 -47 46 -99
133 -99 164 0 13 -12 43 -27 69 -16 26 -27 53 -25 59 2 7 -5 24 -13 37 -18 27
-13 46 11 46 19 0 18 19 -1 27 -31 11 -53 95 -34 128 4 6 9 22 13 38 3 15 13
27 21 27 7 0 17 10 21 23 3 12 13 30 22 39 8 10 17 37 19 60 5 46 18 78 33 78
5 0 17 -11 27 -25 50 -71 48 -70 80 -56 35 14 69 77 59 109 -4 10 -2 32 4 46
8 22 15 27 38 24 23 -3 27 -7 24 -30 -7 -58 33 -98 99 -98 69 0 99 21 99 70 0
43 8 51 68 70 26 8 53 26 67 44 23 29 29 31 86 31 60 1 63 2 99 43 39 46 91
79 129 81 15 1 36 -12 58 -34z"/>
<path d="M2452 7210 c-18 -11 -41 -20 -52 -20 -13 0 -20 -7 -20 -19 0 -11 -5
-23 -10 -26 -6 -3 -8 -16 -4 -28 3 -13 -4 -44 -15 -70 -19 -44 -19 -50 -6 -71
12 -19 14 -33 6 -66 -5 -24 -15 -46 -21 -50 -9 -5 -9 -18 1 -51 7 -24 17 -49
21 -56 6 -7 5 -20 -2 -33 -8 -14 -8 -36 -1 -75 6 -30 8 -61 5 -69 -3 -8 10
-31 30 -52 20 -21 36 -44 36 -51 0 -7 8 -17 19 -22 10 -6 21 -26 24 -46 5 -33
28 -70 104 -173 29 -38 114 -112 129 -112 4 0 22 -13 41 -30 18 -16 41 -30 51
-30 9 0 33 -10 52 -22 63 -40 82 -48 110 -48 15 0 33 -7 40 -15 7 -8 23 -15
35 -15 12 0 33 -8 46 -18 13 -11 36 -22 50 -25 14 -4 42 -18 63 -32 20 -14 47
-25 60 -25 13 0 26 -7 30 -15 3 -8 15 -15 26 -15 11 0 20 -5 20 -11 0 -7 11
-8 30 -4 23 5 35 1 54 -18 22 -22 23 -28 14 -68 -5 -24 -13 -66 -18 -93 -5
-27 -18 -59 -30 -71 -11 -12 -17 -25 -13 -28 3 -4 1 -17 -6 -30 -7 -13 -11
-43 -9 -67 3 -38 7 -45 33 -53 17 -5 38 -16 47 -25 14 -12 21 -12 33 -2 16 14
94 19 142 9 20 -4 42 -1 58 7 15 8 55 23 88 33 102 33 149 51 171 66 11 8 36
15 56 15 19 0 51 4 69 10 42 12 86 14 126 5 16 -3 39 -1 52 6 18 9 29 10 48 1
41 -19 89 -15 111 9 10 12 38 32 62 46 48 29 63 54 55 99 -7 34 -20 45 -48 38
-43 -11 -159 67 -306 206 -38 36 -81 75 -96 88 -16 13 -46 40 -68 60 -50 45
-130 102 -144 102 -6 0 -10 9 -8 21 1 16 -7 24 -37 34 -46 16 -89 55 -114 104
-15 29 -26 37 -56 42 -20 3 -39 8 -42 11 -3 3 -19 -7 -37 -23 -19 -18 -38 -27
-48 -24 -24 8 -33 -12 -12 -24 14 -7 18 -21 16 -58 -1 -26 3 -53 8 -59 5 -6 6
-50 3 -102 -9 -119 -22 -135 -89 -103 -24 11 -48 21 -52 21 -3 0 -14 6 -22 14
-34 30 -218 115 -316 146 -22 7 -56 20 -75 30 -19 9 -79 38 -132 64 -88 43
-101 54 -145 113 -26 36 -56 74 -65 84 -10 10 -18 23 -18 28 0 5 -7 14 -15 21
-8 7 -15 23 -15 37 0 13 -9 41 -20 63 -21 42 -26 80 -10 80 15 0 12 28 -6 55
-13 20 -15 46 -11 142 5 136 14 219 27 243 6 11 0 29 -21 60 -16 24 -31 45
-32 47 -2 1 -17 -7 -35 -17z"/>
<path d="M22608 5893 c-27 -20 -35 -34 -32 -48 3 -11 -2 -34 -10 -50 -9 -17
-16 -37 -16 -45 0 -8 -11 -35 -25 -59 -14 -23 -25 -51 -25 -61 0 -10 -7 -20
-15 -24 -9 -3 -15 -18 -15 -38 0 -19 -8 -44 -17 -57 -9 -14 -17 -38 -19 -55
-1 -28 -10 -57 -35 -121 -4 -11 -11 -38 -14 -60 -4 -22 -15 -56 -24 -75 -33
-63 -51 -110 -51 -130 0 -10 -9 -25 -20 -33 -15 -11 -20 -24 -18 -49 1 -28 -8
-48 -54 -109 -31 -41 -68 -85 -82 -98 -14 -14 -26 -33 -26 -43 0 -10 -4 -18
-9 -18 -6 0 -37 -23 -71 -51 -34 -28 -92 -63 -133 -80 -39 -16 -103 -45 -142
-64 -39 -18 -93 -36 -122 -39 -28 -3 -73 -13 -100 -24 -86 -34 -117 -44 -175
-57 -32 -7 -78 -23 -102 -35 -31 -14 -70 -22 -128 -25 -46 -3 -100 -7 -120
-11 -31 -5 -39 -2 -45 12 -4 10 -2 19 5 22 14 4 16 34 2 48 -5 5 -10 34 -12
64 -1 52 1 57 39 95 35 35 40 45 37 79 -4 43 -19 66 -44 66 -9 0 -29 11 -44
25 -15 14 -38 28 -51 31 -13 3 -29 11 -34 18 -18 22 -79 7 -104 -26 -12 -16
-32 -40 -44 -52 -13 -13 -23 -33 -23 -44 0 -13 -20 -36 -52 -62 -29 -23 -57
-48 -61 -56 -4 -8 -13 -14 -20 -14 -7 0 -17 -10 -22 -22 -6 -13 -30 -33 -55
-45 -29 -14 -47 -29 -50 -44 -3 -13 -15 -26 -25 -28 -11 -2 -26 -12 -33 -22
-7 -11 -31 -28 -52 -39 -64 -33 -93 -68 -95 -117 -2 -41 0 -45 46 -78 27 -19
52 -35 57 -35 14 0 352 -339 352 -353 0 -8 10 -22 21 -33 12 -10 28 -34 36
-52 8 -20 20 -32 32 -32 25 0 41 -21 55 -75 9 -38 18 -50 51 -68 22 -12 43
-26 47 -32 5 -6 8 -3 8 6 0 20 20 29 64 29 45 0 55 14 45 61 -6 24 -6 47 0 57
6 11 6 24 -1 36 -6 10 -12 64 -14 120 -9 238 -14 303 -24 336 -5 19 -10 36
-10 37 0 2 16 3 35 3 24 0 35 -5 35 -14 0 -12 5 -12 33 2 17 9 63 18 101 20
39 3 75 10 82 17 7 7 32 15 56 19 24 4 72 15 108 26 36 10 83 21 105 23 22 3
60 17 85 31 25 14 52 26 61 26 9 0 30 7 45 15 16 8 40 15 55 15 14 0 29 4 35
9 19 20 154 81 177 81 14 0 30 7 37 15 7 8 19 15 26 15 8 0 14 8 14 18 0 11
14 27 35 38 19 10 35 22 35 25 0 13 110 124 122 124 7 0 15 16 18 35 3 19 18
47 33 62 15 15 27 32 27 39 0 6 11 24 25 41 14 16 28 42 31 56 9 42 26 82 34
82 5 0 11 18 15 40 4 22 15 50 26 64 10 13 19 38 19 55 0 17 5 31 10 31 6 0
10 12 10 26 0 14 5 35 12 47 6 12 12 31 14 42 4 40 32 152 43 173 6 11 11 32
11 46 0 14 5 28 10 31 6 3 10 19 10 35 0 16 5 32 10 35 16 10 68 121 76 160 4
24 12 35 23 35 10 0 28 11 40 24 20 22 21 25 6 40 -9 9 -22 16 -28 16 -7 0
-17 10 -22 23 -16 35 -71 35 -117 0z"/>
<path d="M10840 4800 c36 -12 62 -12 55 0 -3 6 -23 10 -43 9 -33 -1 -34 -2
-12 -9z"/>
</g>
</svg>
