<?xml version="1.0" standalone="no"?>
<!DOCTYPE svg PUBLIC "-//W3C//DTD SVG 20010904//EN"
 "http://www.w3.org/TR/2001/REC-SVG-20010904/DTD/svg10.dtd">
<svg version="1.0" xmlns="http://www.w3.org/2000/svg"
 width="1217.105196pt" height="400.000000pt" viewBox="0 0 1217.105196 400.000000"
 preserveAspectRatio="xMidYMid meet">
<metadata>
Created by potrace 1.15, written by Peter Selinger 2001-2017
</metadata>
<g transform="translate(-56.989359,425.095663) scale(0.057940,-0.057940)"
fill="#444444" stroke="none">
<path d="M15439 7335 c-4 -4 -231 -16 -389 -20 -79 -3 -166 -9 -250 -20 -19
-2 -54 -11 -78 -20 -24 -8 -78 -17 -120 -19 -86 -4 -144 -19 -183 -47 -14 -10
-56 -29 -94 -44 -38 -14 -87 -34 -110 -45 -22 -10 -71 -28 -108 -39 -64 -19
-167 -76 -167 -91 0 -4 -27 -24 -60 -45 -57 -36 -140 -129 -140 -157 0 -8 -9
-21 -19 -30 -19 -16 -59 -111 -66 -157 -2 -14 -7 -48 -11 -76 -7 -47 -9 -104
-5 -170 1 -16 0 -100 -3 -185 -3 -85 -1 -171 4 -190 5 -19 12 -62 15 -95 4
-33 8 -67 10 -75 2 -8 7 -91 10 -185 4 -93 11 -188 15 -211 8 -36 15 -274 9
-299 -1 -5 3 -23 10 -40 9 -20 11 -56 7 -110 -19 -260 -28 -455 -31 -700 -2
-110 -7 -229 -11 -265 -4 -36 -6 -91 -5 -123 3 -49 -1 -64 -24 -97 -25 -36
-26 -41 -14 -77 32 -99 42 -121 68 -148 36 -38 79 -75 87 -75 4 0 26 -18 49
-39 24 -22 66 -48 94 -58 28 -10 51 -21 51 -25 0 -5 10 -8 23 -8 12 0 56 -10
97 -22 41 -11 91 -21 110 -22 19 -1 42 -6 50 -11 34 -22 63 -35 69 -30 4 2 36
-3 70 -11 35 -8 66 -12 71 -9 4 3 25 -1 47 -9 21 -8 68 -14 104 -15 35 0 75
-3 89 -6 14 -3 45 -8 69 -11 25 -3 48 -7 51 -9 11 -7 266 -18 430 -19 128 0
182 4 240 18 41 10 80 22 85 27 6 4 22 10 35 12 14 2 38 9 53 15 16 7 41 12
55 12 15 0 55 15 89 33 73 38 207 126 211 138 2 5 12 9 22 9 10 0 32 11 49 26
16 14 34 25 38 26 18 1 53 18 53 25 0 5 14 14 31 22 24 10 36 11 55 2 33 -15
89 -14 101 2 20 24 24 72 29 334 2 146 7 271 11 277 4 6 8 54 10 106 1 52 4
118 6 145 1 28 -1 55 -6 62 -4 6 -3 14 3 18 5 3 10 22 10 41 0 20 4 43 9 53 5
9 10 48 12 86 1 39 5 79 9 90 22 60 28 405 14 795 -9 224 -3 1010 8 1040 3 8
11 29 18 45 7 17 15 62 18 102 4 68 2 76 -31 135 -38 67 -152 188 -202 214
-16 8 -49 32 -74 52 -60 49 -93 66 -182 92 -41 12 -82 29 -91 37 -10 9 -43 16
-90 18 -40 2 -122 10 -182 19 -60 9 -117 14 -127 11 -10 -4 -26 -2 -36 3 -24
12 -69 23 -74 17z m-54 -166 c6 -3 51 -7 100 -8 50 -1 110 -7 135 -12 24 -6
58 -9 75 -8 17 2 35 1 40 -3 6 -3 27 -11 49 -18 32 -10 40 -10 48 1 7 11 11
11 15 2 2 -7 19 -13 37 -13 18 0 51 -9 74 -20 22 -11 50 -20 61 -20 11 0 22
-4 26 -9 3 -5 30 -21 60 -35 30 -14 55 -30 55 -35 0 -6 6 -11 13 -11 7 0 28
-16 47 -35 19 -19 39 -35 46 -35 6 0 24 -18 39 -40 15 -22 31 -40 35 -40 11 0
50 -77 50 -100 0 -13 -12 -35 -27 -50 -16 -16 -39 -44 -53 -64 -14 -19 -32
-36 -41 -36 -9 0 -22 -7 -29 -15 -14 -17 -100 -43 -185 -56 -53 -8 -111 -21
-235 -49 -79 -19 -143 -30 -168 -30 -14 0 -46 -10 -71 -22 -27 -14 -67 -23
-96 -24 -27 -1 -61 -4 -75 -8 -42 -10 -150 -9 -164 3 -7 6 -16 8 -20 4 -3 -4
-25 -8 -49 -10 -23 -3 -51 -13 -62 -23 -16 -15 -41 -20 -140 -24 -66 -3 -136
-10 -155 -16 -19 -5 -66 -10 -103 -10 -38 0 -78 -5 -90 -12 -12 -7 -53 -16
-92 -21 -83 -9 -79 -9 -180 -2 -44 4 -100 8 -125 9 -25 2 -69 8 -99 15 -29 6
-67 11 -83 11 -16 0 -48 9 -70 20 -23 11 -49 20 -58 20 -9 0 -41 22 -71 49
l-54 48 0 64 c0 101 10 135 60 218 15 25 54 61 65 61 6 0 10 5 10 10 0 6 5 10
11 10 6 0 33 16 59 35 26 19 51 35 55 35 5 0 23 11 41 25 18 14 37 25 43 25 6
0 26 9 45 19 19 11 36 18 39 15 2 -2 10 2 17 11 7 8 23 15 36 15 12 0 26 5 29
10 3 6 13 10 20 10 15 0 116 58 125 72 5 7 45 15 116 23 18 2 40 7 50 13 11 5
44 10 75 11 31 1 82 6 115 11 48 8 225 20 296 21 10 0 20 5 23 10 4 5 11 7 16
4 5 -4 9 -3 9 2 0 9 219 10 235 2z m967 -726 c4 -41 6 -188 5 -328 -3 -358 5
-873 14 -890 3 -5 4 -21 2 -35 -1 -14 -5 -95 -8 -180 -4 -85 -11 -170 -17
-189 -6 -19 -12 -55 -14 -80 -1 -25 -7 -80 -13 -121 -22 -162 -27 -231 -30
-380 -2 -140 -7 -180 -31 -246 -5 -12 -2 -34 6 -54 11 -26 12 -45 4 -88 -5
-31 -10 -82 -10 -115 l0 -59 -48 7 c-38 5 -51 3 -62 -10 -8 -9 -31 -23 -51
-32 -21 -8 -45 -26 -54 -39 -8 -13 -24 -24 -34 -24 -10 0 -27 -8 -39 -17 -44
-38 -76 -59 -112 -73 -20 -8 -44 -20 -51 -26 -8 -7 -30 -16 -49 -22 -19 -5
-73 -24 -120 -42 -154 -58 -214 -67 -425 -65 -122 1 -251 10 -360 23 -254 31
-376 43 -386 36 -6 -3 -31 -1 -57 5 -26 6 -56 13 -67 15 -12 2 -61 16 -110 30
-50 15 -115 34 -145 43 -30 8 -69 26 -87 39 -21 16 -45 24 -72 24 -25 0 -41 5
-41 12 0 6 -22 32 -49 57 l-48 46 3 337 c1 226 6 343 14 357 6 12 8 25 5 30
-15 25 0 421 16 432 13 7 15 164 5 264 -4 33 -7 76 -6 95 0 19 -4 49 -8 65 -5
17 -6 39 -2 49 3 10 3 44 -2 75 -9 67 -18 185 -23 301 -1 47 -7 103 -13 125
-5 22 -16 125 -23 228 -12 177 -11 189 5 205 12 11 20 13 23 6 2 -6 36 -21 76
-34 40 -13 79 -25 87 -28 18 -6 35 -10 80 -18 19 -4 40 -11 46 -16 7 -5 43
-10 80 -12 38 -2 87 -8 109 -14 81 -21 315 -2 416 33 23 8 45 12 50 10 5 -3
21 1 37 9 22 12 42 13 81 7 28 -4 54 -5 56 -1 3 5 58 7 122 6 65 0 143 2 173
5 30 3 67 1 82 -5 24 -9 30 -7 43 11 17 25 67 44 85 33 11 -7 43 4 93 31 10 5
22 7 28 4 5 -4 38 0 72 9 34 8 78 14 97 13 19 -2 43 1 54 6 10 5 31 10 45 12
63 5 121 18 121 26 0 5 3 8 8 7 4 -1 33 6 64 16 35 10 70 15 91 11 24 -5 37
-2 46 9 8 9 24 16 37 16 29 0 126 44 144 65 17 20 40 19 42 -2z"/>
<path d="M14938 5783 c-18 -6 -43 -12 -55 -12 -28 -1 -126 -63 -167 -105 -100
-103 -132 -161 -141 -253 -4 -37 -9 -76 -12 -86 -2 -10 2 -46 10 -80 9 -34 21
-96 27 -137 7 -41 20 -97 31 -124 24 -61 24 -75 -1 -106 -156 -194 -194 -296
-186 -505 6 -173 17 -218 83 -353 25 -52 78 -103 119 -116 37 -11 85 -16 221
-23 131 -6 132 -6 188 22 31 16 68 39 81 52 14 13 29 23 34 23 16 0 112 67
177 123 66 58 133 235 128 337 -5 102 -22 171 -67 267 -32 69 -76 116 -140
150 -23 12 -44 27 -48 33 -4 6 -52 13 -111 16 -57 2 -107 8 -112 13 -5 5 3 17
18 27 95 67 237 211 265 270 12 24 25 46 29 49 4 2 8 20 9 38 1 19 11 59 23
88 27 69 36 221 15 271 -18 41 -57 82 -94 96 -39 15 -103 26 -131 23 -13 -1
-31 1 -40 5 -25 12 -117 10 -153 -3z m226 -148 c16 -3 42 -13 57 -21 24 -12
29 -21 29 -52 0 -38 -22 -117 -46 -164 -8 -14 -14 -32 -14 -38 0 -7 -10 -34
-22 -59 -26 -55 -171 -201 -200 -201 -11 0 -32 -13 -46 -30 -21 -24 -35 -30
-65 -30 -21 0 -47 -5 -58 -10 -36 -20 -62 6 -74 72 -3 13 -9 46 -15 73 -20
104 -13 211 20 275 29 57 130 157 180 178 33 14 65 17 134 16 50 -1 104 -5
120 -9z m-326 -844 c28 -11 52 -17 52 -15 0 3 6 2 13 -3 18 -11 32 -13 147
-20 58 -3 119 -12 135 -19 35 -14 94 -67 116 -104 30 -49 52 -151 45 -210 -7
-57 -35 -140 -48 -140 -5 0 -8 -6 -8 -14 0 -21 -47 -73 -104 -115 -123 -90
-277 -135 -401 -118 -33 5 -64 13 -69 18 -6 5 -17 9 -25 9 -22 0 -97 117 -106
165 -14 77 -6 245 16 328 12 43 27 83 33 90 7 7 29 36 49 66 43 62 78 101 92
101 6 0 34 -9 63 -19z"/>
<path d="M1150 7095 c-7 -8 -19 -15 -26 -15 -15 0 -19 -26 -5 -34 8 -5 14 -40
27 -156 2 -19 9 -69 15 -110 6 -41 11 -85 11 -97 0 -13 4 -23 8 -23 3 0 7 -6
8 -12 0 -7 8 -42 17 -78 9 -36 18 -90 19 -120 4 -98 48 -161 115 -166 14 -1
78 -9 141 -17 119 -16 157 -16 179 -3 7 5 50 9 97 11 80 2 121 16 108 36 -3 5
2 9 10 9 20 0 48 43 41 61 -17 44 -170 81 -250 61 -24 -6 -88 -8 -159 -4
l-119 7 -9 30 c-5 17 -13 39 -18 50 -17 40 -30 87 -25 94 2 4 -1 25 -6 47 -23
92 -29 134 -34 239 -6 124 -14 164 -38 185 -25 24 -89 27 -107 5z"/>
<path d="M16855 7086 c-40 -17 -53 -35 -60 -81 -6 -37 -4 -41 23 -56 19 -11
45 -15 73 -13 50 4 179 -15 179 -27 0 -5 18 -26 39 -47 l40 -39 2 -109 c5
-207 4 -409 -3 -424 -3 -8 0 -23 7 -33 10 -14 11 -27 3 -54 -5 -20 -6 -52 -2
-72 4 -20 9 -162 11 -316 1 -154 3 -296 4 -315 1 -19 -3 -69 -9 -110 -12 -98
-8 -198 11 -285 16 -69 16 -69 -8 -101 -20 -26 -25 -47 -31 -137 -4 -67 -3
-112 3 -119 6 -7 13 -47 16 -88 4 -41 17 -118 31 -170 13 -52 31 -153 41 -225
9 -71 23 -166 32 -210 35 -181 35 -173 6 -239 -34 -76 -63 -126 -73 -126 -4 0
-24 -27 -45 -59 -38 -61 -89 -97 -123 -87 -9 3 -71 8 -137 12 -66 3 -128 11
-138 16 -23 12 -112 1 -149 -18 -23 -12 -27 -20 -26 -52 1 -57 13 -69 70 -81
62 -13 91 -14 179 -7 39 3 79 0 97 -6 33 -13 185 4 232 25 38 17 79 63 99 110
10 23 25 48 34 55 9 7 25 32 37 55 12 23 30 51 40 62 10 12 24 57 34 110 19
106 20 149 5 177 -6 11 -13 30 -15 42 -1 11 -12 80 -23 151 -19 126 -55 315
-65 345 -3 8 -7 43 -10 78 -4 35 -11 72 -17 83 -5 11 -8 52 -7 91 l4 71 70 23
c38 13 76 22 84 19 59 -17 237 6 297 40 15 8 48 27 72 40 24 13 59 41 78 61
28 30 33 42 28 63 -9 36 -15 40 -76 53 -92 18 -216 12 -308 -16 -69 -20 -154
-21 -174 -1 -49 49 -57 79 -59 213 0 71 3 135 7 142 12 20 19 309 7 323 -5 7
-7 34 -2 65 3 29 4 55 0 57 -4 2 -7 92 -7 200 0 108 -3 198 -6 201 -3 3 1 29
7 58 7 28 11 67 10 86 -2 19 -5 89 -8 155 -14 300 -15 306 -65 346 -18 13 -46
36 -63 52 -17 15 -35 27 -40 27 -16 0 -23 2 -40 11 -29 16 -190 19 -223 5z"/>
<path d="M3000 6900 c-8 -5 -26 -10 -39 -10 -23 0 -183 -86 -189 -102 -2 -4
-8 -8 -14 -8 -11 0 -83 -60 -83 -69 -1 -3 -11 -22 -23 -41 -27 -43 -28 -75 -2
-132 17 -40 87 -117 108 -119 57 -6 103 -3 131 8 19 7 42 11 50 8 8 -3 27 6
43 22 15 15 28 23 28 19 0 -4 19 13 43 38 24 24 48 41 53 38 19 -14 54 -91 48
-107 -4 -9 0 -23 8 -33 21 -24 29 -74 15 -92 -19 -23 -78 -46 -119 -46 -21 1
-38 -3 -38 -7 0 -5 -4 -6 -8 -3 -4 2 -27 -8 -50 -24 -49 -33 -107 -43 -242
-44 -52 -1 -101 -5 -107 -9 -16 -10 -16 -32 0 -78 18 -52 34 -67 81 -80 47
-14 172 -15 189 -2 7 5 39 17 72 27 33 10 79 27 102 37 24 11 50 19 58 19 9 0
40 13 68 29 29 16 69 32 89 36 36 7 37 7 48 77 9 51 9 81 1 111 -5 23 -13 62
-17 86 -3 25 -19 65 -34 90 -15 25 -36 68 -46 95 -10 27 -33 64 -52 82 -34 33
-34 34 -18 59 22 33 7 96 -29 119 -27 18 -101 21 -125 6z m5 -179 c3 -5 -1
-15 -8 -23 -7 -7 -22 -26 -32 -42 -10 -15 -35 -38 -54 -51 -43 -26 -101 -38
-101 -19 0 16 66 84 82 84 7 1 29 14 48 30 35 31 55 37 65 21z"/>
<path d="M2142 6871 c-17 -17 -35 -31 -40 -31 -9 0 -48 -51 -44 -58 2 -3 0 -8
-5 -11 -22 -15 -63 -117 -69 -170 -6 -57 7 -144 27 -183 5 -10 9 -24 9 -31 0
-15 45 -59 75 -75 11 -5 58 -8 104 -6 65 2 95 8 137 29 30 15 54 31 54 36 0 5
6 9 13 9 12 0 75 61 106 102 14 20 24 76 23 135 -2 85 -57 168 -155 235 -54
37 -68 42 -132 45 -68 4 -72 3 -103 -26z m194 -162 c8 -16 18 -29 22 -29 14 0
31 -64 25 -95 -3 -16 -16 -40 -29 -52 -23 -21 -121 -63 -148 -63 -18 0 -76 66
-76 86 0 81 56 165 123 182 44 12 65 4 83 -29z"/>
<path d="M6627 5874 c-2 -2 -64 -7 -138 -9 -74 -3 -186 -8 -249 -12 -63 -3
-130 -6 -147 -5 -241 7 -627 -1 -661 -13 -8 -3 -18 -2 -23 1 -6 3 -47 5 -92 4
-375 -8 -604 -7 -667 1 -41 5 -181 10 -310 10 -573 1 -702 1 -810 0 -474 -8
-700 -4 -733 11 -11 6 -32 5 -55 -3 -42 -14 -196 -21 -226 -9 -13 4 -29 2 -43
-7 -14 -9 -30 -12 -40 -7 -39 17 -158 26 -358 27 -115 1 -214 -1 -220 -4 -5
-4 -32 -9 -60 -12 -27 -3 -84 -10 -125 -17 -41 -7 -86 -12 -100 -12 -113 5
-284 1 -293 -6 -7 -5 -59 -10 -117 -11 -57 -1 -110 -7 -117 -12 -6 -6 -16 -8
-21 -5 -5 3 -17 0 -26 -7 -17 -12 -17 -16 3 -58 11 -24 20 -53 19 -64 0 -11 9
-62 21 -114 12 -52 19 -101 16 -108 -2 -8 0 -35 5 -60 6 -25 12 -66 14 -92 2
-25 6 -53 9 -61 6 -16 14 -90 23 -205 4 -38 11 -76 17 -83 6 -7 10 -41 9 -74
-1 -35 4 -73 13 -92 8 -18 13 -51 11 -80 -2 -28 2 -73 9 -100 16 -60 27 -186
25 -271 -2 -79 -2 -73 9 -125 14 -62 14 -83 -1 -74 -8 5 -9 2 -3 -12 10 -23
14 -184 4 -184 -4 0 -5 -15 -3 -32 7 -54 7 -61 -1 -106 -7 -40 -5 -44 26 -74
34 -31 34 -31 139 -29 104 1 218 13 317 32 28 6 111 12 185 14 73 2 214 9 314
14 99 6 191 9 205 6 13 -2 74 -6 134 -10 61 -3 128 -8 150 -10 22 -2 87 -7
145 -10 58 -3 146 -8 195 -11 50 -4 236 -7 415 -9 179 -1 344 -7 367 -12 23
-6 47 -7 54 -2 7 4 22 5 33 3 12 -2 55 -6 96 -9 41 -3 96 -8 121 -11 63 -8
1178 -7 1254 1 78 8 87 8 305 -3 195 -11 588 -10 1005 3 501 14 691 23 861 40
33 3 195 6 360 6 231 0 312 4 357 15 37 9 63 12 70 6 16 -12 75 -13 82 -2 3 6
47 10 98 10 51 1 115 3 142 6 28 2 111 6 185 9 74 2 187 7 250 10 63 4 187 8
275 10 88 2 160 4 160 5 0 3 462 13 525 12 218 -5 328 -10 350 -16 14 -3 142
-8 284 -11 208 -4 264 -8 282 -20 41 -27 64 -15 64 33 0 23 48 43 106 43 682
4 672 4 789 -32 131 -41 196 -27 209 44 7 43 16 366 21 752 2 176 5 321 5 323
1 1 2 17 2 35 1 17 5 37 10 44 5 7 9 25 7 40 -1 15 1 36 6 45 4 10 3 30 -2 45
-6 18 -5 60 2 118 7 50 11 133 9 185 -2 52 0 127 4 166 4 39 4 77 0 85 -4 8
-16 35 -28 61 -22 50 -52 78 -86 78 -11 0 -23 3 -27 6 -3 3 -27 7 -54 9 -26 2
-59 6 -72 9 -13 3 -72 2 -131 -3 -83 -7 -119 -6 -161 5 -75 20 -238 31 -323
23 -39 -4 -109 -10 -156 -13 -47 -3 -110 -14 -140 -25 -30 -11 -59 -16 -65
-13 -11 7 -70 10 -296 15 -80 2 -150 7 -156 10 -6 4 -24 2 -39 -4 -36 -13
-431 -14 -466 0 -14 5 -58 12 -99 15 -41 4 -91 9 -113 12 -29 5 -37 3 -31 -6
6 -10 1 -11 -21 -5 -35 9 -234 22 -234 15 0 -3 -150 -5 -332 -5 -183 0 -457
-4 -608 -9 -151 -4 -291 -7 -310 -6 -19 0 -82 3 -140 6 -140 6 -931 10 -1150
6 -8 -1 -35 4 -60 9 -49 10 -235 20 -243 13z m334 -175 c64 -7 172 -9 275 -5
93 4 176 7 184 6 8 0 60 -2 115 -4 55 -1 106 -4 113 -4 17 -3 15 -49 -3 -56
-15 -5 -15 -42 -1 -65 10 -15 20 -150 19 -246 0 -49 -1 -155 -1 -235 0 -80 0
-149 0 -155 0 -5 -4 -32 -8 -60 -4 -27 -6 -81 -4 -120 4 -85 4 -81 -4 -490 -4
-181 -7 -342 -7 -357 0 -15 -4 -30 -9 -33 -18 -11 -472 -35 -654 -34 -99 0
-210 -4 -246 -9 -67 -10 -887 -11 -1152 -1 -100 3 -152 9 -160 17 -9 9 -13 58
-14 165 -1 84 -5 206 -8 272 -4 66 -9 199 -11 295 -2 96 -7 247 -10 335 -6
182 -9 436 -6 605 1 63 0 124 -1 135 -3 19 5 20 157 27 88 4 329 9 535 13 206
3 416 10 465 14 110 9 294 5 436 -10z m1102 -14 c99 -2 188 0 197 5 11 6 31 5
54 -2 26 -8 43 -9 54 -2 9 6 67 9 127 8 115 -2 289 -4 388 -4 31 0 63 0 70 0
6 0 161 3 342 6 182 3 337 6 345 6 50 0 269 -20 279 -26 13 -8 72 -15 169 -20
35 -2 68 -8 74 -14 13 -13 22 -108 21 -217 0 -143 0 -472 1 -545 0 -72 -11
-233 -19 -276 -3 -11 -7 -83 -10 -160 -3 -76 -8 -155 -11 -174 -4 -19 -8 -84
-9 -145 -2 -60 -8 -122 -14 -137 -12 -31 -3 -29 -171 -34 -58 -1 -152 -5 -210
-8 -101 -5 -459 -15 -755 -21 -273 -6 -453 -13 -462 -18 -5 -3 -45 -7 -89 -8
-43 -1 -101 -6 -129 -11 -67 -14 -518 -19 -526 -7 -6 11 -3 361 7 634 3 99 6
189 6 200 -1 11 -1 48 -2 81 0 34 4 91 10 127 14 87 13 78 6 357 -7 273 -10
314 -25 354 -24 63 -9 79 62 64 21 -5 120 -10 220 -13z m-5781 0 c40 -2 138
-7 218 -10 304 -13 291 -8 292 -96 0 -30 4 -58 8 -64 14 -21 32 -94 27 -108
-3 -8 -1 -19 4 -24 5 -5 13 -60 18 -123 5 -63 16 -158 25 -210 8 -52 15 -124
14 -160 -1 -137 12 -602 17 -610 8 -13 9 -389 2 -397 -10 -9 -135 -4 -180 8
-36 9 -272 21 -417 21 -336 -1 -601 -11 -655 -26 -63 -17 -77 -18 -217 -16
l-87 0 -11 42 c-8 28 -9 54 -2 82 9 41 9 76 -1 151 -3 22 -3 56 2 75 4 19 3
60 -1 90 -5 30 -11 83 -14 118 -3 34 -11 97 -18 140 -6 42 -9 88 -6 102 3 14
-6 85 -21 159 -15 73 -31 181 -35 240 -15 236 -20 273 -64 501 -6 32 -5 48 3
56 14 14 128 23 377 28 102 2 232 10 290 16 58 7 156 14 219 16 63 2 116 6
119 9 3 2 8 2 13 -1 4 -2 41 -7 81 -9z m2411 -12 c4 -2 32 -4 62 -3 30 0 61 1
68 0 6 0 95 -1 197 -3 178 -2 185 -3 183 -22 -1 -11 2 -39 8 -62 5 -24 9 -82
8 -130 0 -49 0 -104 -1 -123 0 -93 12 -449 17 -480 3 -19 7 -58 9 -87 3 -29 7
-57 11 -63 3 -5 2 -10 -3 -10 -10 0 -8 -132 4 -365 4 -77 7 -148 6 -157 0 -10
3 -20 8 -23 15 -10 0 -298 -16 -315 -16 -16 -120 -17 -334 -1 -58 4 -114 4
-125 1 -23 -9 -506 -5 -645 4 -52 4 -141 8 -197 10 -56 2 -107 7 -112 11 -6 3
-179 6 -385 6 -271 1 -378 4 -384 12 -17 21 -23 106 -28 372 -9 553 -14 703
-23 727 -6 17 -6 29 1 36 7 7 6 41 -2 109 -6 54 -13 112 -15 129 -5 44 -9 58
-16 64 -4 3 -9 39 -12 80 -3 41 -10 93 -16 115 -6 22 -11 70 -11 106 l0 67 68
-5 c85 -6 161 -5 235 3 39 4 62 2 72 -6 11 -9 19 -9 28 -2 9 8 133 11 385 10
205 0 376 3 380 7 7 7 561 -3 575 -12z m6808 3 c47 -2 92 -6 98 -11 10 -6 287
-19 326 -15 6 0 26 2 45 3 l35 2 -1 -175 c0 -96 -1 -200 -2 -230 0 -30 -1 -84
0 -120 0 -36 -3 -119 -7 -185 -8 -137 -9 -180 -6 -250 1 -27 -1 -113 -5 -190
-3 -77 -5 -144 -5 -150 0 -5 4 -50 9 -100 4 -49 7 -108 6 -130 -7 -112 -15
-180 -24 -189 -5 -5 -26 -1 -53 12 -47 22 -267 49 -329 40 -18 -3 -44 -1 -57
4 -15 5 -28 5 -36 -2 -7 -6 -25 -9 -41 -6 -39 7 -263 8 -299 0 -16 -3 -95 -7
-175 -8 -178 -3 -168 -1 -172 -28 -3 -21 -8 -23 -53 -20 -27 1 -147 4 -265 5
-118 1 -221 6 -227 10 -16 10 -18 149 -3 177 5 10 12 98 15 196 3 99 10 198
15 221 5 22 12 90 16 150 3 59 8 131 11 158 5 53 5 77 3 340 -1 94 1 204 5
245 5 41 7 104 7 140 -1 67 8 88 36 89 9 0 54 1 99 2 46 1 89 -3 95 -9 22 -17
325 -15 404 4 86 20 252 32 364 27 47 -3 124 -6 171 -7z"/>
<path d="M6390 5265 c-27 -16 -52 -44 -45 -55 2 -3 6 -33 9 -66 4 -32 11 -95
17 -139 18 -142 19 -152 10 -197 -8 -48 9 -113 39 -143 14 -13 21 -12 63 9 59
30 157 42 217 26 64 -17 160 -116 160 -166 0 -23 -5 -34 -15 -34 -8 0 -28 -13
-45 -30 -55 -54 -168 -100 -245 -100 -22 1 -71 10 -110 21 -83 24 -195 34
-205 18 -15 -24 -1 -92 24 -118 47 -49 108 -62 273 -58 160 4 197 13 281 69
24 15 46 28 50 28 12 1 72 59 72 70 0 6 9 24 21 39 16 22 21 45 23 97 1 62 -2
74 -31 117 -18 26 -33 52 -33 56 0 20 -100 106 -150 129 -48 22 -67 25 -157
24 -89 0 -102 1 -101 16 0 9 -4 46 -10 82 -11 73 -10 145 1 157 5 4 59 8 122
8 62 0 117 3 120 7 4 4 26 5 49 3 132 -16 153 -14 180 14 21 22 24 33 19 64
-3 21 -14 42 -23 47 -14 7 -187 14 -302 12 -10 0 -42 0 -70 0 -29 0 -71 -1
-93 -1 -22 0 -51 1 -65 3 -14 2 -36 -2 -50 -9z"/>
<path d="M5698 4875 c-33 -29 -34 -34 -9 -84 23 -45 43 -63 74 -66 41 -5 140
-25 219 -46 108 -28 167 -28 189 0 21 26 18 78 -7 115 -18 28 -34 36 -89 42
-22 3 -65 10 -95 16 -30 6 -86 14 -125 17 -38 4 -80 12 -92 19 -29 16 -34 15
-65 -13z"/>
<path d="M9233 5353 c-15 -8 -53 -16 -83 -18 -64 -4 -164 -39 -210 -75 -18
-14 -39 -40 -47 -58 -7 -18 -20 -35 -28 -39 -8 -3 -15 -11 -15 -18 0 -7 -13
-29 -29 -49 -16 -20 -33 -51 -37 -69 -3 -18 -11 -35 -17 -38 -11 -8 -22 -198
-13 -232 9 -32 70 -97 96 -102 12 -2 28 -9 36 -16 11 -9 22 -8 46 2 18 7 39
14 48 14 8 1 24 2 36 3 11 1 64 45 117 97 55 54 106 95 117 95 31 0 44 -58 75
-350 8 -74 14 -166 13 -203 -1 -58 2 -71 22 -92 30 -32 52 -31 92 4 l32 28
-12 54 c-6 30 -11 74 -10 99 2 83 -4 155 -17 205 -7 28 -16 84 -20 125 -4 41
-9 93 -12 115 -3 22 -7 87 -8 145 -2 58 -6 135 -9 171 -6 57 -4 72 13 100 26
42 26 60 2 90 -15 19 -29 23 -84 25 -42 1 -76 -3 -94 -13z m-10 -155 c16 -12
16 -18 1 -93 -16 -76 -20 -82 -74 -135 -156 -151 -180 -170 -222 -170 -38 0
-78 87 -48 105 6 3 10 14 10 24 0 10 11 35 25 55 13 20 22 36 19 36 -3 0 5 18
17 40 13 22 26 40 30 40 4 0 9 8 11 18 3 11 33 26 92 46 47 16 89 32 92 37 7
13 27 11 47 -3z"/>
<path d="M8356 5114 c-11 -11 -16 -33 -15 -67 0 -29 0 -85 -1 -124 l-2 -73
-108 0 c-116 0 -123 -3 -134 -55 -8 -40 21 -97 54 -106 14 -4 57 -7 97 -8 39
-1 75 -6 78 -11 4 -6 8 -64 10 -129 2 -97 6 -123 21 -145 15 -20 25 -25 44
-20 14 3 27 10 28 15 2 5 10 9 18 9 11 0 14 17 14 78 -1 70 4 97 26 170 7 24
7 24 69 7 13 -4 37 6 68 26 45 30 48 35 43 63 -8 41 -48 73 -112 92 -51 15
-52 15 -57 62 -3 26 -9 74 -13 107 -9 75 -43 125 -84 125 -16 0 -36 -7 -44
-16z"/>
<path d="M1915 5163 c-67 -15 -181 -57 -205 -75 -16 -11 -31 -31 -34 -44 -4
-13 -15 -24 -28 -26 -15 -2 -23 -11 -25 -33 -3 -16 -8 -34 -12 -40 -5 -5 -12
-36 -15 -67 -4 -32 -11 -58 -16 -58 -10 0 -2 -69 10 -85 4 -5 14 -37 24 -70
33 -114 57 -154 146 -242 47 -46 96 -87 110 -90 14 -3 50 -19 80 -34 137 -68
171 -65 273 25 9 9 20 16 24 16 17 0 108 111 130 160 26 55 40 174 23 185 -5
3 -11 33 -15 67 -4 35 -16 79 -26 98 -10 19 -27 56 -38 81 -32 78 -167 197
-246 217 -51 14 -134 21 -160 15z m158 -187 c41 -20 124 -106 139 -146 31 -78
47 -160 41 -209 -3 -28 -9 -51 -12 -51 -4 0 -15 -15 -26 -32 -10 -18 -38 -52
-63 -76 -44 -41 -45 -42 -86 -31 -109 28 -159 53 -216 108 -60 58 -71 81 -99
221 -13 60 2 148 26 163 7 4 13 14 13 21 0 11 66 34 108 38 6 1 12 5 12 9 0
14 125 3 163 -15z"/>
<path d="M4290 5309 c-119 -15 -132 -18 -143 -27 -7 -6 -23 -12 -37 -14 -23
-3 -25 -7 -27 -64 0 -34 3 -67 8 -75 10 -17 83 -17 103 0 7 6 33 14 57 17 196
23 254 17 303 -29 38 -36 59 -71 48 -81 -4 -4 -11 -26 -17 -49 -9 -40 -13 -43
-60 -55 -27 -7 -63 -13 -80 -13 -16 0 -35 -5 -42 -11 -7 -6 -25 -8 -40 -5 -15
3 -46 -3 -70 -14 -24 -10 -44 -18 -46 -18 -1 0 -10 -2 -19 -5 -10 -3 -24 -8
-32 -10 -12 -4 -12 -14 -3 -58 12 -51 14 -54 67 -79 30 -15 82 -29 115 -32 69
-7 103 -17 162 -46 23 -12 46 -21 51 -21 5 0 34 -27 64 -61 65 -70 65 -83 6
-142 -21 -21 -38 -42 -38 -47 0 -4 -34 -16 -74 -26 -84 -20 -156 -14 -296 24
-193 52 -219 52 -240 2 -18 -44 -1 -70 73 -109 77 -40 109 -49 222 -66 133
-20 206 -14 308 25 89 33 156 86 199 155 45 74 5 236 -79 320 -25 25 -49 45
-54 45 -24 0 -99 42 -99 55 0 8 3 15 8 15 4 0 21 13 39 28 18 15 44 35 58 45
33 23 65 96 64 144 -1 54 -29 125 -66 168 -18 21 -33 42 -33 46 0 7 -48 26
-88 34 -11 2 -33 10 -49 18 -35 18 -149 26 -223 16z"/>
<path d="M3540 5091 c-19 -4 -34 -11 -33 -17 2 -10 3 -24 19 -148 l7 -59 -24
7 c-54 17 -75 17 -88 2 -7 -9 -40 -21 -72 -28 -54 -11 -59 -15 -74 -50 -27
-69 -20 -95 33 -122 24 -12 37 -14 51 -6 11 5 42 12 71 14 28 2 54 7 57 10 13
12 50 6 65 -11 11 -14 14 -42 12 -112 -1 -74 3 -105 17 -139 19 -43 21 -44 54
-39 39 6 61 24 60 47 -1 8 2 20 7 26 4 6 6 21 3 33 -7 36 -8 181 -2 188 4 3
30 7 59 9 68 5 62 5 133 -2 l60 -5 16 33 c21 42 7 91 -33 121 -36 27 -151 46
-200 33 -51 -14 -64 1 -73 82 -3 37 -11 84 -16 105 -9 33 -13 37 -42 36 -18
-1 -48 -5 -67 -8z"/>
<path d="M11543 5278 c-29 -47 -41 -82 -34 -97 5 -9 11 -54 15 -101 8 -118 13
-160 21 -211 10 -59 13 -115 15 -374 4 -307 21 -361 105 -329 29 11 44 61 33
108 -5 22 -11 151 -13 286 -2 135 -6 256 -9 270 -4 14 -9 81 -11 150 -5 147
-13 244 -21 265 -7 17 -55 45 -78 45 -8 0 -18 -6 -23 -12z"/>
<path d="M10832 5062 c-16 -11 -22 -38 -29 -138 -3 -50 -1 -94 6 -114 14 -40
7 -52 -23 -40 -13 5 -55 12 -94 15 l-70 7 -16 -30 c-19 -36 -20 -67 -6 -109
11 -30 12 -30 102 -37 50 -3 97 -11 105 -18 11 -9 13 -35 8 -133 -5 -112 -4
-123 12 -128 10 -2 25 -8 34 -11 17 -7 51 18 64 49 5 11 11 63 14 115 l6 95
50 -1 c216 -6 215 -7 240 60 30 79 6 95 -160 102 -135 6 -148 27 -131 222 6
59 5 63 -18 72 -13 5 -27 14 -31 19 -7 13 -45 14 -63 3z"/>
<path d="M20745 5605 c-27 -12 -29 -16 -27 -56 2 -24 8 -75 14 -114 5 -38 11
-86 13 -105 1 -19 5 -60 10 -91 7 -53 6 -56 -16 -64 -13 -4 -46 -9 -72 -10
-75 -6 -109 -61 -69 -112 19 -24 50 -32 71 -19 7 5 16 5 20 0 3 -5 14 -9 24
-10 51 -2 57 -5 57 -24 0 -11 4 -20 9 -20 5 0 8 -21 5 -47 -2 -27 -6 -80 -8
-120 -3 -40 -12 -88 -22 -108 -10 -23 -14 -46 -10 -67 7 -36 36 -63 48 -45 6
9 8 9 8 0 0 -7 9 -13 20 -13 37 0 65 86 79 245 5 55 8 111 7 125 -5 45 23 61
113 64 88 3 121 19 121 62 0 18 -12 27 -68 48 -37 14 -86 26 -109 26 -54 0
-69 17 -77 87 -4 32 -14 72 -21 89 -8 17 -17 55 -21 85 -3 30 -12 72 -20 93
-7 22 -10 53 -7 69 9 45 -17 56 -72 32z"/>
<path d="M18677 5583 c-2 -1 -37 -3 -78 -4 -41 -1 -89 -7 -106 -14 -48 -20
-121 -73 -139 -99 -25 -40 10 -115 91 -192 37 -35 72 -64 78 -65 31 -3 74 -7
90 -8 9 0 17 -6 17 -11 0 -19 74 -80 97 -80 13 0 26 -7 29 -15 4 -8 12 -15 20
-15 8 0 14 -5 14 -11 0 -5 13 -24 30 -42 16 -18 30 -39 30 -48 0 -9 7 -22 15
-29 35 -29 9 -76 -68 -119 -38 -21 -100 -27 -247 -24 -96 3 -143 -2 -148 -15
-2 -7 -10 -19 -18 -26 -8 -8 -14 -17 -14 -20 0 -16 94 -64 145 -74 63 -13 208
-12 222 1 13 13 95 47 114 47 10 0 21 5 24 10 3 6 15 10 26 10 11 0 23 10 28
23 5 12 18 30 30 39 17 15 20 27 18 100 -2 74 -5 87 -29 119 -16 20 -28 40
-28 45 -2 30 -262 244 -297 244 -12 0 -34 10 -50 23 -15 12 -37 27 -48 33 -37
21 -12 67 40 72 53 5 189 1 231 -7 70 -13 94 6 100 80 4 44 -15 64 -54 56 -15
-3 -57 0 -94 7 -37 7 -69 11 -71 9z"/>
<path d="M19318 5473 c-9 -2 -20 -16 -24 -31 -10 -37 -7 -151 4 -165 12 -15
21 -64 28 -143 5 -56 4 -61 -18 -71 -13 -6 -59 -11 -103 -12 -70 -1 -82 -4
-98 -23 -24 -29 -17 -86 14 -110 26 -22 75 -23 95 -3 11 10 21 12 32 6 22 -12
90 -12 98 0 10 18 32 9 32 -13 1 -54 11 -217 16 -257 10 -74 34 -88 86 -49
l30 22 -5 147 c-4 125 -2 151 11 164 8 8 23 15 32 16 100 3 175 31 180 66 2
13 -7 29 -24 42 -23 18 -40 21 -120 21 l-94 0 -21 43 c-12 23 -25 63 -29 89
-5 26 -16 62 -25 81 -9 19 -15 38 -14 43 6 31 -3 114 -12 114 -6 0 -17 7 -25
15 -16 15 -17 16 -46 8z"/>
<path d="M13010 5203 c-39 -7 -47 -25 -39 -92 4 -34 5 -82 3 -108 -2 -27 -3
-78 -4 -115 0 -88 -8 -93 -127 -75 -48 8 -121 12 -161 9 -40 -2 -85 0 -100 6
-35 14 -218 24 -271 16 -34 -5 -41 -10 -41 -30 0 -12 -4 -26 -10 -29 -15 -9
-12 -17 21 -53 22 -25 40 -34 72 -38 23 -2 74 -11 112 -19 40 -9 140 -17 235
-19 91 -2 172 -6 180 -9 8 -3 31 -10 50 -15 l35 -8 2 -85 c3 -133 3 -160 -1
-167 -7 -12 14 -135 25 -148 15 -19 68 -6 95 23 12 12 24 23 28 23 4 0 68 61
142 135 75 74 141 135 149 135 22 0 93 44 114 72 29 37 19 83 -30 133 -58 59
-109 121 -109 132 0 11 -82 114 -128 161 -18 18 -32 36 -32 40 -1 4 -24 23
-51 42 -28 19 -65 47 -82 62 -18 15 -36 27 -42 26 -5 0 -21 -3 -35 -5z"/>
<path d="M21524 5170 c-44 -21 -123 -99 -147 -147 -10 -18 -17 -45 -17 -60 0
-15 -6 -39 -13 -53 -23 -45 6 -153 45 -166 10 -3 16 -9 14 -13 -3 -4 17 -31
43 -59 38 -41 55 -52 79 -52 17 0 33 -4 37 -9 10 -18 185 -10 219 9 17 10 65
25 106 35 83 18 100 33 100 81 0 31 -2 33 -45 40 -25 3 -57 4 -72 1 -117 -22
-229 -36 -247 -31 -12 4 -28 8 -36 9 -21 2 -50 16 -50 24 0 3 17 15 38 26 100
53 174 99 189 118 10 12 30 30 46 40 33 21 35 56 7 102 -13 21 -31 35 -50 39
-18 3 -30 12 -30 21 0 8 -5 15 -11 15 -5 0 -34 11 -62 24 -62 29 -90 30 -143
6z m159 -112 c9 -27 -24 -67 -75 -92 -55 -26 -148 -45 -148 -30 0 15 70 98 98
116 32 21 118 25 125 6z"/>
<path d="M20150 5127 c-19 -6 -39 -16 -45 -23 -5 -6 -26 -17 -45 -23 -19 -6
-47 -22 -62 -36 -15 -14 -32 -25 -37 -25 -15 0 -56 -59 -74 -107 -10 -25 -15
-62 -13 -98 3 -47 8 -61 34 -86 23 -22 39 -29 64 -28 18 1 45 -1 59 -5 21 -6
29 -3 43 18 9 14 22 26 28 26 7 0 36 23 64 51 56 55 82 59 101 16 17 -37 91
-114 123 -127 16 -7 36 -23 45 -36 8 -13 22 -24 30 -24 8 0 15 -4 15 -10 0
-16 53 -11 76 8 27 23 31 122 5 122 -10 0 -24 11 -31 25 -9 17 -22 25 -40 25
-18 0 -40 14 -68 43 -108 109 -132 142 -158 213 -14 40 -33 75 -43 78 -9 3
-20 8 -26 10 -5 2 -26 -1 -45 -7z m-26 -191 c-3 -25 -46 -84 -71 -95 -23 -11
-53 -5 -53 10 0 24 26 58 63 81 46 29 63 30 61 4z"/>
<path d="M11743 3408 c-29 -61 -35 -113 -19 -174 18 -72 27 -259 14 -294 -11
-29 -17 -59 -21 -116 -3 -44 -32 -87 -82 -122 -32 -23 -11 -21 -515 -38 -96
-3 -197 -7 -225 -8 -93 -6 -262 16 -463 60 -40 9 -87 14 -105 11 -18 -2 -72 0
-122 5 -49 5 -126 11 -170 12 -248 10 -393 17 -420 21 -17 3 -45 1 -64 -5 -26
-7 -47 -5 -90 9 -43 14 -70 16 -116 11 -33 -4 -64 -5 -70 -1 -5 3 -237 6 -515
7 -278 0 -686 5 -908 9 -394 7 -404 7 -445 -13 -23 -11 -64 -25 -91 -32 -59
-13 -203 -120 -219 -162 -4 -9 -18 1 -44 28 -57 61 -90 76 -233 98 -14 2 -50
8 -80 14 -30 5 -129 10 -220 11 -91 2 -181 5 -200 7 -36 5 -362 14 -535 15
-104 1 -512 -6 -955 -16 -140 -4 -268 -11 -285 -17 -43 -14 -562 -20 -670 -8
-49 5 -160 12 -245 14 -93 3 -185 11 -230 21 -92 21 -134 24 -320 22 -80 0
-163 -1 -185 0 -22 0 -112 7 -200 16 -88 9 -230 19 -315 22 -85 2 -173 7 -195
10 -22 3 -71 7 -110 9 -78 5 -158 20 -195 38 -31 15 -70 49 -70 61 0 5 -9 21
-19 36 -21 29 -34 107 -35 212 -1 77 -32 134 -78 144 -35 8 -45 2 -63 -42 -14
-32 -13 -41 5 -102 15 -50 19 -91 17 -166 -2 -97 -1 -101 24 -122 15 -13 30
-38 33 -56 3 -18 22 -49 40 -68 43 -44 111 -64 280 -85 67 -8 153 -18 191 -23
39 -5 106 -7 150 -5 44 1 121 -3 170 -11 50 -7 122 -16 160 -19 91 -8 496 -20
559 -17 26 1 53 -2 60 -7 31 -26 157 -38 471 -47 283 -8 382 -8 500 -2 61 4
157 9 215 12 58 2 119 8 135 13 17 5 50 5 75 0 39 -7 171 1 275 17 17 3 89 5
160 4 151 -1 124 -1 420 5 127 2 239 4 250 4 11 0 83 -1 160 -2 77 -1 176 -5
220 -9 81 -8 273 -18 310 -18 140 4 216 -4 319 -34 68 -20 146 -69 146 -92 0
-10 11 -37 25 -61 14 -24 25 -53 25 -65 0 -19 7 -82 35 -352 12 -107 41 -144
101 -129 26 7 68 81 59 106 -3 7 -7 58 -10 113 -2 55 -12 154 -21 220 -19 144
-12 178 48 236 23 21 46 39 51 39 6 0 24 11 41 24 17 13 67 34 111 46 81 22
186 26 375 15 91 -6 328 -8 885 -7 149 0 279 0 290 -1 43 -1 122 1 165 3 46 3
203 -5 345 -16 44 -4 144 -6 221 -5 78 1 173 -4 210 -10 65 -10 246 -20 342
-19 54 1 233 -29 248 -41 7 -5 34 -9 61 -8 27 1 59 -3 71 -10 12 -6 43 -11 69
-11 27 0 114 -2 195 -4 227 -7 329 -8 383 -2 28 3 98 8 157 11 113 6 142 10
158 20 11 7 25 10 113 28 31 6 57 17 57 23 0 6 7 17 15 24 8 7 15 21 15 31 0
10 14 60 31 111 22 68 32 119 36 188 3 54 10 102 18 113 9 13 11 27 4 45 -5
15 -13 81 -18 147 -5 66 -12 127 -16 136 -3 9 -18 19 -33 23 -15 3 -36 8 -47
11 -15 5 -24 0 -32 -17z"/>
<path d="M15018 2737 c-24 -9 -28 -17 -29 -51 -3 -81 3 -182 13 -220 10 -40
-3 -115 -24 -143 -6 -8 -1 -23 14 -43 21 -29 23 -42 25 -173 1 -119 -2 -149
-18 -185 -26 -60 -15 -76 60 -92 70 -15 156 -7 217 20 23 10 56 21 73 25 17 3
33 11 37 16 8 14 81 59 96 59 6 0 21 -8 32 -18 26 -23 98 -52 130 -52 52 0
196 93 196 127 0 7 9 17 20 23 15 8 24 5 45 -17 14 -15 25 -33 25 -39 0 -6 9
-19 20 -29 11 -10 20 -24 20 -31 0 -7 18 -32 40 -55 22 -24 40 -47 40 -51 0
-8 54 -38 69 -38 6 0 13 11 17 25 11 44 28 48 69 15 21 -16 46 -30 56 -30 10
0 39 -7 64 -15 36 -13 49 -13 67 -4 13 7 32 13 43 15 48 6 89 16 109 26 28 14
76 59 76 72 0 5 7 17 16 27 8 9 17 23 18 31 2 7 6 20 10 28 9 22 -46 119 -84
150 -17 14 -48 39 -68 56 -20 17 -63 50 -94 73 -37 26 -58 49 -58 61 0 11 5
21 10 21 6 1 14 2 19 3 5 0 13 4 17 9 15 14 139 8 162 -9 13 -9 25 -14 27 -13
5 6 65 110 65 113 0 6 -54 24 -95 32 -22 4 -85 6 -140 5 -82 -2 -110 -7 -152
-27 -29 -13 -56 -31 -61 -40 -16 -29 12 -114 55 -167 13 -16 21 -33 18 -37 -3
-5 5 -14 17 -21 13 -6 41 -26 63 -44 22 -18 50 -35 62 -39 11 -4 27 -13 33
-21 7 -8 23 -15 36 -15 15 0 24 -6 24 -15 0 -8 5 -24 12 -35 10 -15 9 -24 -2
-46 -8 -14 -21 -29 -30 -31 -8 -3 -34 -14 -58 -25 -24 -11 -53 -18 -65 -15
-12 3 -37 10 -55 14 -22 5 -39 19 -50 38 -34 60 -62 60 -98 0 -29 -51 -40 -55
-55 -22 -6 13 -24 31 -40 41 -16 9 -29 22 -29 28 0 17 -96 208 -119 237 -17
22 -22 24 -61 15 -40 -8 -46 -14 -79 -75 -69 -126 -133 -179 -173 -142 -13 12
-17 25 -13 43 8 33 131 147 175 162 36 11 64 30 131 87 28 24 39 41 39 61 0
33 -23 55 -47 45 -10 -4 -31 -9 -47 -11 -33 -4 -150 -66 -182 -95 -11 -10 -24
-19 -28 -19 -10 0 -100 -94 -123 -127 -22 -33 -36 -29 -86 27 -92 102 -191
166 -272 175 -11 1 -23 3 -27 4 -15 3 -27 73 -32 194 -8 172 -22 201 -88 174z
m171 -508 c18 -6 43 -21 56 -33 13 -11 45 -39 70 -61 70 -60 71 -65 22 -117
-41 -44 -44 -45 -120 -53 -43 -4 -80 -5 -82 -3 -9 10 -12 216 -3 233 8 14 8
20 -1 23 -18 6 -13 22 8 22 10 0 33 -5 50 -11z"/>
<path d="M13866 2679 c-28 -22 -33 -48 -14 -67 17 -17 42 -239 31 -268 -5 -13
-17 -13 -95 2 -32 6 -41 3 -66 -23 -23 -22 -29 -36 -25 -56 3 -14 10 -30 17
-35 18 -14 90 -32 127 -32 19 0 39 -4 45 -8 7 -4 12 -48 13 -107 6 -249 6
-247 26 -261 24 -18 49 -18 64 -1 18 23 32 115 35 230 2 60 8 113 14 119 8 8
22 6 50 -5 50 -20 128 -6 137 24 4 12 19 22 36 26 36 7 37 20 2 35 -16 6 -48
20 -73 31 -25 11 -75 24 -112 30 l-68 11 0 40 c0 23 -5 57 -10 76 -6 19 -15
73 -21 120 -12 113 -24 140 -59 140 -15 0 -39 -9 -54 -21z"/>
<path d="M12661 2619 c-47 -10 -53 -24 -45 -99 4 -36 6 -78 4 -95 -1 -16 -1
-46 -1 -65 8 -318 7 -358 -16 -389 -13 -16 -23 -32 -23 -34 0 -2 17 -22 38
-45 38 -41 41 -42 103 -42 39 0 83 8 114 19 27 11 78 27 112 37 43 11 76 30
110 59 26 23 58 47 70 54 21 10 23 8 33 -31 16 -62 27 -80 68 -107 61 -40 222
-30 222 13 0 7 11 18 25 24 14 7 29 20 33 29 4 10 14 28 21 40 l15 22 32 -35
c18 -18 37 -49 43 -67 13 -40 91 -107 123 -107 13 0 29 -5 36 -12 9 -9 15 -3
27 25 25 60 20 84 -22 111 -49 31 -71 57 -118 136 -21 36 -49 78 -62 93 -13
16 -23 42 -23 58 0 25 6 33 35 45 29 12 35 19 35 45 0 31 0 31 -40 25 -24 -4
-49 -2 -62 5 -15 8 -31 8 -57 1 -162 -46 -163 -46 -226 -104 -34 -32 -65 -54
-69 -51 -3 3 -6 33 -6 65 0 32 -4 58 -9 58 -5 0 -12 24 -15 53 -4 31 -18 67
-34 91 -35 51 -128 126 -157 126 -12 0 -36 7 -51 15 -34 18 -84 20 -84 3 0 -6
-8 -4 -19 6 -23 21 -112 35 -160 25z m271 -181 c85 -43 96 -54 124 -117 21
-47 24 -64 18 -120 -5 -55 -12 -73 -39 -106 -18 -22 -43 -45 -56 -52 -64 -30
-150 -54 -185 -51 -45 4 -41 -21 -48 250 -2 91 -7 176 -11 187 -10 34 2 41 70
41 53 0 76 -6 127 -32z m526 -288 c2 -23 -2 -48 -7 -53 -6 -6 -11 -21 -11 -33
0 -12 -7 -27 -15 -34 -8 -7 -15 -18 -15 -26 0 -7 -7 -19 -15 -27 -28 -28 -116
9 -131 55 -4 14 7 31 43 64 58 55 124 103 138 100 6 -1 11 -22 13 -46z"/>
<path d="M16939 2339 c-86 -46 -126 -87 -127 -130 0 -17 -5 -36 -11 -42 -5 -7
-21 -44 -35 -82 -25 -70 -25 -70 -5 -91 11 -11 22 -31 24 -44 2 -12 12 -34 22
-48 10 -13 23 -32 28 -41 6 -9 18 -22 28 -29 9 -7 17 -21 17 -31 0 -23 49 -60
109 -85 56 -22 302 -29 309 -8 2 7 8 12 14 12 6 0 29 12 53 27 43 29 73 87 52
100 -17 11 -108 3 -155 -14 -77 -26 -174 -15 -258 29 -41 21 -56 37 -73 74
-21 44 -21 47 -5 65 9 10 25 19 34 19 26 0 87 28 93 42 4 10 6 9 6 -1 1 -12 4
-11 19 2 9 8 28 17 42 19 17 2 36 19 58 52 28 42 32 57 32 113 0 60 -2 67 -33
98 -31 31 -38 33 -99 33 -57 0 -76 -5 -139 -39z m171 -104 c0 -14 -4 -25 -9
-25 -4 0 -23 -10 -42 -23 -42 -28 -119 -58 -130 -51 -41 25 80 121 154 123 22
1 27 -3 27 -24z"/>
<path d="M14625 2331 c-6 -5 -44 -23 -85 -41 -140 -59 -195 -90 -243 -135
l-49 -45 5 -63 c5 -72 30 -128 79 -175 31 -29 41 -32 96 -33 90 -2 145 24 174
81 29 56 50 61 76 18 11 -18 29 -42 40 -54 11 -11 27 -34 35 -50 8 -16 27 -40
41 -53 l26 -24 42 18 c65 28 75 39 58 70 -7 14 -20 25 -27 25 -22 0 -71 60
-66 80 3 12 -2 20 -16 25 -19 6 -28 18 -72 107 -10 20 -23 39 -28 43 -14 8
-41 65 -41 84 0 9 7 25 15 35 31 40 -25 120 -60 87z m-85 -224 c0 -73 -41
-157 -76 -157 -25 0 -104 44 -104 58 0 39 77 117 129 130 46 11 51 8 51 -31z"/>
<path d="M9141 1798 c-5 -13 -6 -41 -4 -63 2 -22 6 -83 9 -135 6 -132 33 -308
54 -344 12 -23 25 -32 48 -34 l31 -3 -4 85 c-4 73 -9 111 -30 246 -2 14 -5 72
-7 130 -2 85 -5 107 -20 122 -26 26 -66 23 -77 -4z"/>
<path d="M7266 1688 c-12 -46 -7 -80 31 -188 3 -8 7 -32 8 -54 l4 -38 -45 5
c-38 4 -47 1 -59 -17 -11 -17 -12 -30 -5 -58 14 -50 30 -59 91 -56 l54 3 9
-40 c4 -22 12 -49 16 -60 28 -78 38 -122 34 -154 -2 -20 1 -66 7 -103 10 -62
13 -68 46 -83 33 -16 35 -16 48 2 17 22 20 200 5 253 -6 19 -13 58 -16 85 -2
28 -5 61 -7 75 l-2 25 95 -3 c52 -2 110 -7 128 -12 41 -11 59 -5 68 22 8 27
-26 62 -79 78 -23 8 -54 22 -70 33 -16 11 -42 18 -65 17 -20 -1 -55 -2 -78 -1
-39 1 -41 3 -54 44 -7 23 -18 56 -25 72 -8 17 -17 52 -22 80 -7 44 -12 52 -48
72 -50 28 -61 29 -69 1z"/>
<path d="M5867 1579 c-8 -29 1 -118 18 -192 8 -34 15 -79 15 -99 0 -34 -3 -38
-26 -38 -14 0 -35 -5 -47 -12 -30 -16 -156 -37 -163 -27 -3 5 -7 21 -9 36 -2
16 -8 58 -14 96 -6 37 -13 79 -15 95 -15 114 -16 118 -55 135 -42 19 -81 22
-81 8 0 -9 16 -88 35 -176 7 -32 9 -53 19 -245 4 -68 11 -129 15 -135 5 -5 11
-26 14 -45 15 -96 31 -157 43 -171 8 -8 14 -20 14 -26 0 -14 59 -28 70 -17 14
14 14 91 2 183 -7 47 -11 85 -9 86 5 3 114 42 160 57 68 22 84 7 91 -88 7 -99
25 -151 64 -185 39 -35 46 -35 73 -8 13 13 17 24 11 32 -5 7 -12 32 -16 57 -3
25 -12 80 -19 122 -8 42 -11 81 -8 87 4 5 27 15 52 21 42 11 45 14 47 46 3 36
2 37 -89 72 -29 11 -47 71 -56 192 -8 111 -39 160 -98 160 -25 0 -34 -5 -38
-21z"/>
<path d="M6257 1464 c-4 -22 -1 -50 8 -70 l14 -33 71 1 c105 2 113 29 31 105
-29 26 -44 33 -77 33 -40 0 -42 -1 -47 -36z"/>
<path d="M8414 1431 c-22 -17 -52 -40 -67 -52 -16 -12 -49 -52 -73 -90 l-46
-69 7 -66 c9 -82 61 -210 96 -236 21 -16 31 -18 47 -9 34 18 34 44 2 116 -34
76 -40 153 -15 183 9 9 27 32 41 50 14 17 33 32 42 32 9 0 26 10 39 22 19 17
36 22 88 22 61 1 65 3 76 29 16 37 -7 62 -74 82 -78 23 -118 19 -163 -14z"/>
<path d="M6890 1409 c-36 -5 -102 -8 -147 -7 -45 1 -86 -1 -90 -5 -3 -4 -10
-33 -14 -65 -4 -31 -10 -64 -13 -73 -7 -15 8 -32 103 -119 18 -17 51 -36 72
-43 21 -6 39 -15 39 -18 0 -4 12 -10 27 -14 59 -14 111 -75 66 -75 -10 0 -29
-9 -43 -20 -19 -15 -41 -20 -87 -20 -56 0 -64 3 -79 25 -13 20 -24 25 -59 25
-33 0 -45 -4 -49 -17 -8 -27 19 -106 40 -117 10 -6 36 -21 57 -34 33 -20 47
-23 102 -18 63 6 115 22 115 37 0 5 6 6 13 3 17 -6 114 70 122 97 18 57 -26
141 -88 170 -23 10 -78 41 -122 67 -111 67 -109 81 15 104 52 10 110 21 128
24 36 7 37 11 20 51 -14 30 -37 53 -53 51 -5 0 -39 -4 -75 -9z"/>
<path d="M8597 1293 c-13 -12 -7 -77 11 -128 28 -79 49 -111 97 -150 43 -36
57 -67 35 -80 -12 -7 -52 -93 -71 -150 -7 -22 -21 -51 -30 -65 -23 -36 -60
-110 -54 -110 2 0 0 -12 -7 -27 -6 -16 -12 -52 -13 -80 -2 -48 0 -53 19 -53
12 0 28 -6 35 -13 18 -16 39 16 67 102 20 60 41 111 62 151 13 22 40 75 83
162 22 42 43 79 48 83 5 3 16 18 24 33 37 72 61 109 89 135 26 24 31 37 34 87
3 52 1 61 -18 75 -13 8 -32 15 -43 14 -22 0 -81 -73 -97 -121 -6 -18 -17 -28
-30 -28 -10 0 -27 -4 -37 -10 -24 -12 -48 15 -86 93 -15 32 -37 64 -49 72 -21
16 -58 20 -69 8z"/>
<path d="M6355 1272 c-25 -18 -31 -67 -19 -147 10 -74 7 -141 -11 -186 -3 -9
0 -20 7 -25 21 -16 87 -36 97 -29 6 3 13 25 16 48 4 23 15 53 25 66 17 23 17
26 -2 68 -11 25 -17 51 -14 59 7 18 -31 136 -47 146 -15 10 -39 10 -52 0z"/>
<path d="M7858 1253 c-19 -21 -41 -92 -44 -143 -2 -19 -6 -55 -9 -80 -6 -40
-3 -50 24 -87 45 -62 99 -86 176 -81 62 5 155 42 155 62 0 5 11 21 24 35 58
63 47 120 -36 199 -84 78 -135 105 -208 110 -54 3 -68 1 -82 -15z m187 -134
c86 -65 87 -89 3 -129 -95 -45 -115 -40 -109 24 1 10 -6 30 -14 43 -21 31 -11
60 28 84 18 10 33 19 35 19 2 0 27 -18 57 -41z"/>
<path d="M9310 928 c-19 -5 -39 -14 -44 -19 -6 -5 -20 -9 -33 -9 -29 0 -29 -7
4 -69 39 -76 84 -81 136 -16 28 35 28 37 14 78 -15 46 -25 50 -77 35z"/>
</g>
</svg>
