<?xml version="1.0" standalone="no"?>
<!DOCTYPE svg PUBLIC "-//W3C//DTD SVG 20010904//EN"
 "http://www.w3.org/TR/2001/REC-SVG-20010904/DTD/svg10.dtd">
<svg version="1.0" xmlns="http://www.w3.org/2000/svg"
 width="811.074547pt" height="400.000000pt" viewBox="0 0 811.074547 400.000000"
 preserveAspectRatio="xMidYMid meet">
<metadata>
Created by potrace 1.15, written by Peter Selinger 2001-2017
</metadata>
<g transform="translate(-42.310697,438.166709) scale(0.071713,-0.071713)"
fill="#444444" stroke="none">
<path d="M9686 6081 c-12 -22 -13 -37 -5 -62 25 -88 20 -214 -9 -207 -4 1 -21
-2 -38 -6 -32 -7 -44 -26 -44 -72 0 -24 38 -54 68 -54 35 0 40 -20 31 -140
-10 -138 -7 -157 32 -194 56 -53 106 -6 91 86 -8 52 -7 152 2 202 l7 36 54 0
c46 0 56 4 74 26 42 53 27 73 -72 94 -32 6 -60 17 -62 23 -2 7 -6 70 -9 141
-3 73 -10 134 -17 142 -6 8 -29 14 -50 14 -32 0 -41 -5 -53 -29z"/>
<path d="M8020 5970 c-53 -34 -90 -103 -90 -166 0 -73 -28 -117 -82 -128 -33
-7 -78 -54 -78 -82 0 -12 9 -33 20 -47 22 -28 48 -27 76 4 9 10 28 19 41 19
21 0 23 -4 22 -43 -3 -71 33 -157 66 -157 23 0 35 27 41 98 8 89 23 106 78 91
41 -11 102 -5 124 13 6 6 12 27 12 47 0 31 -5 38 -30 50 -17 7 -42 10 -56 7
-30 -8 -131 23 -139 42 -5 13 20 120 31 131 3 3 27 11 52 16 45 10 47 12 50
47 3 31 -2 40 -31 62 -42 32 -51 32 -107 -4z"/>
<path d="M7268 5975 c-46 -26 -49 -42 -32 -177 8 -67 15 -160 15 -206 0 -134
35 -262 72 -262 6 0 23 9 35 18 l24 18 -16 185 c-9 101 -18 207 -21 234 -3 28
-6 84 -8 125 -2 67 -4 75 -22 77 -11 2 -32 -4 -47 -12z"/>
<path d="M7112 5922 c-25 -16 -32 -77 -27 -227 7 -189 24 -338 38 -347 22 -14
54 -8 82 14 30 24 30 12 2 208 -8 52 -15 149 -16 215 -1 67 -7 125 -13 132
-12 15 -46 17 -66 5z"/>
<path d="M9428 5923 c-14 -4 -18 -15 -18 -59 0 -45 5 -59 28 -85 37 -42 65
-33 93 28 18 39 19 49 8 75 -16 40 -58 55 -111 41z"/>
<path d="M8226 5858 c-20 -28 -20 -46 -1 -92 17 -41 34 -51 68 -42 40 10 62
90 37 137 -16 28 -84 27 -104 -3z"/>
<path d="M6423 5838 c-33 -25 -42 -38 -38 -54 3 -12 -8 -62 -24 -110 -15 -49
-32 -104 -37 -123 -13 -47 -30 -49 -48 -7 -11 26 -21 36 -37 36 -12 0 -31 8
-41 17 -18 16 -21 16 -51 -2 -18 -10 -38 -27 -45 -37 -7 -10 -19 -18 -26 -18
-17 0 -43 79 -57 170 -6 41 -13 77 -15 79 -2 2 -22 6 -44 8 -34 3 -45 0 -70
-25 -27 -27 -28 -31 -17 -63 7 -19 22 -50 33 -69 26 -43 54 -123 93 -265 13
-48 52 -80 87 -71 13 4 24 12 25 19 1 28 65 144 77 140 6 -3 12 -9 12 -13 0
-8 28 -54 65 -107 21 -31 67 -51 93 -42 28 11 38 33 45 105 4 34 18 97 32 139
14 43 25 88 25 101 0 13 14 53 31 89 56 119 22 172 -68 103z"/>
<path d="M6951 5813 c-36 -43 -41 -54 -41 -100 0 -66 17 -86 60 -71 17 5 30
17 30 26 0 8 15 43 34 77 31 54 33 64 23 86 -22 43 -59 37 -106 -18z"/>
<path d="M8670 5699 l-53 -53 -18 22 c-9 12 -19 27 -21 34 -7 19 -79 -14 -89
-40 -14 -36 -11 -48 16 -80 30 -36 31 -53 6 -76 -10 -9 -26 -34 -36 -56 -17
-38 -17 -41 0 -60 33 -36 54 -35 91 4 40 43 48 44 70 11 17 -26 92 -65 126
-65 46 0 33 78 -23 139 -55 59 -56 87 -2 123 32 22 45 39 53 69 16 60 11 74
-32 77 -32 3 -42 -3 -88 -49z"/>
<path d="M9436 5665 c-26 -20 -30 -32 -34 -86 -5 -73 15 -195 37 -216 19 -19
92 -9 106 15 13 24 13 32 -3 72 -8 19 -17 81 -20 138 l-5 102 -26 0 c-14 -1
-39 -12 -55 -25z"/>
<path d="M6646 5643 c-10 -3 -40 -18 -66 -34 -83 -51 -115 -167 -72 -258 21
-44 123 -117 174 -126 29 -5 51 -1 93 19 51 23 55 28 55 58 0 53 -11 62 -77
60 -89 -3 -93 8 -19 57 70 46 75 56 71 140 -3 43 -8 58 -27 73 -22 17 -86 22
-132 11z"/>
<path d="M8296 5518 c-9 -12 -16 -30 -16 -40 0 -9 -4 -19 -9 -22 -5 -3 -11
-19 -13 -35 -3 -24 1 -34 23 -50 34 -25 56 -26 97 -5 35 17 37 26 21 106 -9
44 -16 58 -33 62 -38 10 -55 6 -70 -16z"/>
<path d="M10367 5202 c-14 -15 -17 -38 -17 -118 0 -65 -4 -106 -12 -117 -9
-11 -35 -19 -84 -23 -64 -6 -73 -10 -87 -34 -9 -15 -14 -30 -11 -33 4 -3 -11
-13 -31 -21 -21 -9 -55 -32 -77 -51 -40 -36 -58 -38 -58 -6 0 27 -21 39 -57
34 -44 -7 -58 -43 -44 -118 12 -62 8 -76 -33 -114 -14 -14 -26 -30 -26 -37 0
-8 -14 -10 -43 -7 -35 4 -52 0 -85 -21 -69 -43 -102 -33 -102 32 0 24 9 31 69
59 86 41 131 95 131 159 0 46 -11 57 -90 96 -37 19 -55 22 -108 20 -46 -3 -85
-45 -77 -84 4 -17 0 -40 -9 -59 -9 -18 -16 -41 -16 -52 0 -11 -14 -35 -30 -54
l-31 -35 21 -34 c11 -20 20 -40 20 -46 0 -21 44 -103 65 -120 60 -51 145 -43
204 18 19 19 37 34 41 34 4 0 12 11 18 25 10 22 15 24 30 14 27 -17 67 -4 109
36 21 19 41 35 46 35 5 0 24 -13 42 -28 25 -23 46 -30 96 -36 73 -7 89 3 89
61 0 29 -5 36 -37 52 -54 25 -103 55 -103 63 0 4 12 16 28 27 44 34 72 65 78
88 5 20 11 21 62 16 83 -7 85 -8 78 -46 -4 -17 -8 -48 -10 -67 -1 -19 -6 -54
-10 -78 -11 -63 1 -130 26 -143 33 -18 65 -3 72 32 3 18 11 38 17 45 6 8 12
62 13 128 0 63 4 118 8 122 4 4 26 -1 47 -11 44 -19 100 -15 121 10 6 7 10 31
8 52 -3 37 -4 38 -56 49 -29 7 -67 18 -83 24 -30 13 -30 13 -22 74 11 100 9
165 -7 180 -26 25 -64 29 -83 8z m-708 -458 c-11 -14 -39 -19 -39 -8 0 3 5 14
11 25 8 16 13 18 25 8 11 -9 12 -15 3 -25z"/>
<path d="M7483 5110 c-29 -12 -38 -49 -24 -107 6 -27 12 -77 14 -113 l2 -65
-54 -5 c-52 -6 -81 -25 -81 -56 0 -22 35 -51 83 -69 l49 -17 -4 -137 -3 -136
36 -3 c33 -3 39 1 58 33 17 29 21 53 21 118 0 103 7 131 29 120 9 -4 38 -7 64
-8 31 0 51 -5 57 -15 14 -22 12 -137 -2 -161 -11 -17 -9 -27 13 -66 14 -26 33
-51 42 -57 38 -24 79 59 92 186 10 101 55 98 55 -4 0 -50 14 -106 33 -132 13
-17 17 -18 58 -4 26 8 48 23 54 36 5 12 14 22 20 22 19 -1 53 -25 80 -58 40
-48 80 -64 163 -68 63 -2 81 1 133 26 85 40 109 65 109 112 0 48 -9 49 -137 6
-91 -30 -97 -31 -136 -16 -22 8 -43 20 -45 26 -2 6 21 23 50 38 29 15 67 38
85 53 17 14 43 34 57 44 48 33 32 107 -41 188 -28 31 -42 39 -70 39 -57 0
-144 -53 -164 -101 -6 -16 -15 -29 -20 -29 -16 0 -42 -72 -41 -116 1 -48 -20
-94 -44 -94 -9 0 -14 11 -14 31 0 30 -59 161 -85 188 -16 16 -120 7 -132 -12
-4 -7 -13 22 -20 63 -6 41 -16 95 -22 120 -6 25 -10 73 -11 108 0 48 -4 66
-20 82 -26 26 -76 26 -89 1 -20 -37 -24 -97 -8 -132 16 -38 38 -180 28 -191
-8 -8 -97 14 -111 28 -6 6 -11 61 -11 125 -1 144 -12 189 -48 188 -14 0 -36
-4 -48 -9z m844 -407 c12 -30 11 -32 -23 -52 -37 -22 -74 -28 -74 -11 0 5 10
26 21 47 35 62 55 66 76 16z"/>
<path d="M6463 4943 c-36 -12 -43 -20 -49 -48 -7 -42 13 -101 44 -126 19 -14
28 -16 47 -7 27 12 35 35 34 98 -1 54 -11 93 -24 95 -6 1 -29 -4 -52 -12z"/>
<path d="M9190 4841 c-49 -19 -157 -89 -179 -115 -11 -13 -13 -43 -9 -127 5
-103 8 -112 33 -139 33 -34 57 -30 103 19 28 30 32 40 27 67 -3 18 -11 34 -18
37 -7 2 -11 21 -11 46 2 68 53 121 89 91 23 -19 62 -102 70 -150 4 -24 11 -51
16 -60 4 -8 10 -27 13 -41 7 -33 25 -41 67 -29 72 21 83 62 35 138 -12 20 -28
59 -35 86 -7 27 -19 58 -27 70 -7 11 -14 27 -14 36 0 19 -27 43 -77 69 -37 18
-40 18 -83 2z"/>
<path d="M5679 4801 c-31 -7 -128 -84 -156 -123 -10 -15 -56 -59 -102 -99 -94
-82 -112 -112 -82 -142 13 -13 27 -18 43 -13 30 8 153 117 256 230 79 85 101
123 87 145 -7 12 -7 12 -46 2z"/>
<path d="M6786 4713 c-15 -8 -36 -28 -45 -44 -11 -21 -24 -29 -43 -29 -17 0
-34 -10 -48 -27 -18 -24 -21 -35 -15 -73 4 -25 8 -65 9 -90 2 -25 12 -67 24
-93 19 -42 24 -48 44 -42 13 4 34 15 48 25 23 16 25 23 25 101 0 93 23 151 62
157 35 5 54 -39 59 -136 3 -48 7 -93 9 -99 7 -20 79 -16 97 5 29 33 29 37 4
167 -14 72 -21 92 -44 128 -14 21 -38 45 -53 53 -35 18 -95 16 -133 -3z"/>
<path d="M6469 4688 c-37 -31 -39 -43 -22 -99 9 -32 16 -94 17 -150 2 -108 12
-130 54 -124 58 7 62 13 62 81 0 84 -20 264 -31 287 -11 20 -58 23 -80 5z"/>
<path d="M4619 4415 c-3 -3 -46 -5 -95 -6 -106 -1 -166 -14 -190 -40 -9 -10
-22 -19 -29 -19 -7 0 -20 -9 -30 -20 -10 -11 -27 -20 -37 -20 -62 0 -143 -79
-208 -203 l-40 -76 -1 -136 c-1 -131 0 -136 25 -169 28 -38 109 -96 132 -96 8
0 23 -4 34 -10 11 -5 29 -14 40 -20 11 -5 49 -10 85 -10 63 0 65 -1 60 -22 -3
-13 -7 -52 -9 -87 -3 -63 -3 -64 -39 -76 -37 -13 -71 -45 -82 -77 -4 -10 -11
-18 -16 -18 -5 0 -13 -8 -16 -17 -4 -10 -18 -33 -32 -52 -14 -19 -35 -49 -46
-67 -35 -58 -117 -176 -139 -199 -12 -13 -30 -40 -41 -62 -10 -21 -27 -50 -37
-65 -10 -14 -18 -31 -18 -36 0 -19 31 -42 55 -42 25 0 76 61 129 154 15 28 35
59 44 69 9 10 37 51 62 92 91 147 145 225 155 221 6 -2 9 -58 8 -147 -7 -504
-13 -707 -19 -729 -9 -32 -66 -113 -120 -170 -24 -25 -60 -68 -81 -95 -53 -69
-81 -92 -132 -106 -33 -9 -48 -9 -60 -1 -9 6 -47 30 -86 52 -38 22 -101 63
-140 91 -38 27 -88 62 -110 76 -22 14 -63 45 -92 69 -28 24 -54 44 -57 44 -3
0 -25 13 -48 29 -24 16 -68 45 -100 65 -31 20 -58 40 -60 44 -1 5 -37 26 -78
47 -89 46 -89 47 -252 164 -70 50 -142 97 -160 103 -18 6 -44 19 -57 30 -13
10 -30 18 -37 18 -8 0 -14 3 -14 8 -1 11 -78 66 -289 207 -49 33 -94 69 -99
81 -6 12 -32 34 -59 49 -26 16 -70 45 -98 66 -27 20 -61 40 -75 44 -42 12
-199 121 -271 188 -22 20 -47 37 -56 37 -23 0 -83 -31 -83 -43 0 -5 -10 -24
-23 -41 -39 -51 -67 -120 -67 -162 0 -22 -4 -44 -9 -49 -12 -13 -41 -160 -53
-270 -15 -144 -12 -228 13 -303 43 -130 59 -151 189 -241 75 -52 120 -85 215
-160 28 -21 88 -62 135 -91 47 -29 104 -73 126 -97 24 -24 51 -43 63 -43 11 0
44 -21 73 -48 72 -65 122 -102 139 -103 8 0 34 -14 59 -30 25 -16 68 -40 96
-54 28 -14 61 -36 74 -50 13 -14 27 -25 32 -25 13 0 148 -92 259 -177 23 -18
49 -33 58 -33 9 -1 29 -11 45 -25 l29 -23 -57 -58 c-82 -83 -87 -118 -19 -148
21 -9 46 -21 56 -26 52 -29 66 -37 112 -67 28 -17 66 -46 85 -63 45 -41 63
-47 179 -66 108 -18 181 -23 361 -28 69 -1 130 -4 135 -6 21 -8 85 24 85 42 0
25 -59 60 -90 53 -14 -3 -50 0 -80 5 -30 6 -104 13 -165 16 -60 3 -139 14
-175 24 -36 11 -85 22 -110 26 -25 4 -52 12 -60 18 -8 7 -35 22 -60 34 -59 30
-115 76 -107 90 5 6 31 2 77 -14 49 -16 77 -21 93 -15 12 5 40 6 62 4 90 -12
248 -5 276 13 7 4 124 9 259 11 135 1 288 3 340 4 52 0 131 -2 175 -6 56 -4
101 -2 150 9 64 13 72 13 88 -2 15 -13 23 -14 50 -4 27 10 41 9 83 -7 28 -10
59 -23 69 -28 17 -10 17 -11 -3 -22 -11 -6 -31 -11 -44 -10 -13 0 -79 -2 -147
-5 -99 -5 -129 -10 -155 -26 -29 -17 -150 -36 -206 -31 -8 1 -40 4 -72 7 -33
3 -65 1 -77 -5 -28 -15 -28 -62 0 -87 19 -17 36 -19 143 -18 89 1 131 5 156
17 46 21 137 36 236 38 82 2 236 23 255 35 6 3 38 6 72 5 77 -1 137 15 137 35
0 9 -7 28 -16 44 -17 27 -17 28 -100 22 -57 -3 -84 -1 -84 6 0 6 5 14 10 17
12 8 13 62 1 69 -5 3 -26 8 -47 12 -22 3 -63 12 -93 19 -30 8 -58 12 -62 9 -9
-5 -22 14 -26 40 -2 10 -10 30 -17 45 -27 48 -70 200 -61 210 13 12 139 19
315 16 141 -1 199 -6 243 -19 36 -11 69 -15 85 -11 32 9 221 17 312 13 155 -7
258 -3 283 11 20 11 44 12 99 6 86 -9 87 -9 202 -1 49 4 96 12 103 18 16 13
210 3 228 -12 8 -7 144 -20 230 -21 6 0 35 4 65 9 30 5 89 8 130 6 158 -8 450
-5 468 5 10 5 34 10 53 9 19 0 68 2 109 6 41 3 112 1 157 -4 55 -6 94 -5 120
2 21 6 135 11 253 12 154 1 233 6 280 17 36 9 112 17 170 18 58 1 130 4 160 6
30 2 153 6 273 9 120 3 244 10 275 17 31 6 80 15 107 19 65 9 100 26 114 56
17 39 -10 46 -136 33 -59 -6 -218 -13 -353 -15 -135 -2 -312 -9 -395 -16 -82
-6 -172 -12 -200 -12 -27 -1 -56 -5 -64 -10 -7 -5 -37 -10 -65 -12 -28 -1 -69
-8 -91 -14 -38 -11 -194 -15 -1105 -26 -179 -2 -370 -5 -425 -7 -55 -2 -108 1
-117 5 -26 13 -159 36 -188 33 -14 -1 -74 -10 -135 -19 -90 -15 -146 -17 -305
-12 -107 4 -208 3 -225 -2 -18 -5 -51 -4 -85 3 -36 7 -86 9 -145 3 -154 -13
-286 -16 -386 -7 -53 5 -164 10 -245 12 -84 1 -158 8 -169 14 -11 6 -31 15
-45 21 -18 7 -31 26 -48 73 -13 35 -30 80 -39 99 -9 19 -19 51 -23 70 -21 96
-43 157 -65 180 -22 23 -24 30 -15 59 6 21 6 111 0 245 -9 203 -8 262 6 499 7
119 16 132 52 69 11 -21 82 -101 156 -177 75 -77 136 -143 136 -147 0 -3 32
-27 71 -53 90 -59 123 -59 127 0 3 38 1 41 -30 53 -18 6 -48 25 -66 42 -18 16
-37 30 -41 30 -5 0 -36 33 -69 73 -34 39 -91 104 -128 142 -80 84 -126 153
-155 232 -12 32 -25 63 -29 68 -5 6 -8 31 -8 57 0 65 18 80 86 69 48 -7 54 -6
84 21 21 19 42 28 65 28 92 0 209 74 254 163 30 58 30 251 -1 327 -12 30 -27
62 -35 70 -7 8 -22 34 -34 57 -17 34 -34 48 -107 87 -47 25 -91 46 -97 46 -6
0 -20 9 -32 20 -12 11 -24 18 -26 15z m3 -133 c5 -15 98 -62 121 -62 27 0 65
-53 95 -133 19 -52 21 -71 15 -158 -6 -94 -8 -101 -37 -130 -17 -17 -43 -37
-57 -45 -37 -19 -136 -19 -188 0 -24 9 -45 16 -47 16 -2 0 -10 -16 -19 -36
-14 -34 -17 -36 -52 -30 -21 3 -76 7 -123 8 -47 1 -92 6 -100 10 -8 4 -32 14
-53 22 -50 20 -77 81 -77 173 0 92 14 130 79 214 52 68 61 75 112 89 30 8 69
25 87 38 27 20 41 23 95 19 35 -3 70 -1 78 4 18 11 66 12 71 1z m-2898 -999
c129 -115 189 -158 272 -199 48 -24 90 -48 93 -52 3 -5 29 -24 56 -42 60 -41
60 -41 106 -80 20 -16 45 -30 56 -30 11 0 28 -9 38 -20 10 -12 39 -29 63 -40
24 -11 56 -32 71 -47 44 -44 85 -73 104 -73 9 0 17 -4 17 -9 0 -16 90 -71 115
-71 19 0 28 -10 43 -44 17 -38 29 -48 97 -82 42 -22 100 -60 127 -86 28 -27
55 -48 60 -48 5 0 44 -27 86 -60 43 -33 85 -60 94 -60 9 0 20 -5 24 -11 3 -6
21 -18 38 -25 44 -21 124 -72 188 -122 30 -23 60 -42 65 -42 6 0 33 -18 59
-40 27 -22 53 -40 58 -40 5 0 27 -19 50 -42 45 -46 62 -58 267 -195 19 -13 44
-23 55 -23 12 0 39 -16 60 -35 21 -19 43 -35 50 -35 7 0 25 -11 41 -24 15 -13
44 -30 64 -39 20 -8 45 -22 55 -31 11 -8 28 -22 39 -30 18 -14 19 -16 4 -31
-14 -14 -20 -15 -36 -4 -15 9 -31 9 -59 2 -22 -5 -172 -11 -334 -12 -173 -2
-302 -7 -313 -13 -13 -7 -33 -6 -62 1 -24 6 -72 11 -107 11 -45 0 -72 6 -96
20 -18 11 -37 20 -43 20 -16 0 -95 50 -139 88 -25 22 -48 32 -69 32 -33 0
-121 44 -121 61 0 5 -18 18 -39 29 -22 11 -46 28 -53 38 -23 30 -219 168 -275
192 -11 5 -24 14 -28 20 -4 6 -33 24 -64 39 -32 15 -67 36 -79 47 -106 94
-317 247 -378 273 -12 5 -39 26 -60 46 -21 20 -63 53 -92 72 -30 19 -62 43
-73 54 -10 10 -25 19 -31 19 -24 0 -108 81 -108 103 0 28 -9 40 -40 53 -14 7
-38 30 -54 53 -33 48 -35 77 -16 280 13 130 28 206 53 263 8 18 17 41 21 51 8
26 21 21 80 -30z m210 -18 c23 -21 33 -35 24 -35 -16 0 -87 50 -88 63 0 16 27
4 64 -28z m941 -645 c10 -11 15 -23 12 -27 -8 -7 -47 25 -47 39 0 14 16 9 35
-12z m242 -160 c15 -17 51 -42 78 -56 28 -14 68 -38 90 -54 22 -16 63 -41 91
-55 28 -14 59 -34 69 -45 10 -11 23 -20 30 -20 13 0 98 -70 92 -76 -9 -9 -63
18 -92 45 -29 27 -181 122 -221 138 -24 10 -165 115 -183 137 -26 31 15 18 46
-14z m1273 -312 c18 -46 46 -113 61 -150 16 -36 26 -73 23 -82 -7 -19 -39 -30
-56 -20 -14 9 -119 17 -210 16 -54 0 -57 2 -63 28 -4 16 -13 34 -21 41 -13 10
-11 16 14 43 16 17 53 64 82 105 48 66 89 99 126 101 6 0 25 -37 44 -82z
m-562 -157 c20 -11 60 -41 89 -68 29 -26 65 -58 80 -70 22 -18 24 -22 10 -23
-22 0 -53 19 -147 94 -106 84 -108 86 -87 86 10 0 34 -9 55 -19z m587 -188
c55 -3 108 -10 117 -15 10 -5 25 -34 33 -66 9 -31 20 -66 25 -77 25 -54 30
-75 16 -75 -7 0 -21 9 -32 21 -10 12 -52 39 -93 62 -41 22 -92 54 -115 71 -23
17 -53 39 -68 49 -35 22 -38 52 -5 43 12 -3 67 -9 122 -13z m-288 -18 c25 -22
26 -24 8 -25 -19 0 -85 34 -85 45 0 15 53 2 77 -20z m403 -321 c0 -10 -13 -14
-40 -14 -45 0 -46 1 -24 35 15 23 17 23 40 8 13 -8 24 -22 24 -29z"/>
<path d="M9213 4174 c-16 -25 -17 -41 -10 -129 5 -56 2 -60 -43 -61 -64 -2
-103 -52 -65 -84 8 -7 15 -18 15 -25 0 -6 18 -20 41 -30 50 -23 55 -33 57
-119 2 -75 27 -195 47 -222 10 -15 14 -15 42 -1 16 9 38 28 48 43 16 24 16 29
1 63 -9 20 -18 70 -21 111 l-5 75 77 0 c103 1 110 4 105 49 -5 44 -38 70 -85
68 -18 0 -47 1 -65 4 l-33 5 3 92 c2 51 7 99 11 108 6 11 -1 26 -22 47 -37 40
-74 42 -98 6z"/>
<path d="M8547 4099 c-43 -25 -41 -75 6 -126 43 -48 117 -15 117 51 0 27 -7
39 -34 60 -37 28 -60 32 -89 15z"/>
<path d="M7404 3930 c-91 -9 -171 -104 -145 -172 21 -53 116 -118 174 -118 39
0 77 -14 77 -29 0 -9 -39 -26 -84 -36 -20 -4 -41 0 -62 11 -30 17 -33 17 -59
0 -50 -33 -46 -75 12 -119 32 -24 42 -27 87 -21 64 8 177 66 216 111 26 29 30
42 30 92 0 39 -5 63 -15 71 -18 15 -69 28 -155 41 -71 11 -94 24 -70 39 21 13
67 12 76 -1 10 -16 85 -2 100 19 11 15 10 99 -1 110 -6 6 -129 7 -181 2z"/>
<path d="M7821 3929 c-118 -35 -185 -152 -118 -207 9 -8 26 -10 41 -6 21 5 26
2 27 -12 1 -11 2 -44 4 -74 2 -58 9 -93 25 -136 9 -22 11 -114 7 -261 -2 -72
64 -111 99 -58 19 30 22 101 11 257 l-7 106 43 21 c73 36 137 119 137 180 0
40 -42 132 -63 142 -12 5 -29 13 -37 18 -17 11 -115 41 -127 40 -4 0 -23 -5
-42 -10z m92 -128 c29 -11 59 -64 50 -89 -10 -28 -35 -52 -53 -52 -14 0 -19
13 -24 61 -4 33 -10 67 -13 75 -6 16 6 18 40 5z"/>
<path d="M8284 3906 c-17 -8 -44 -31 -60 -52 -16 -20 -46 -55 -66 -76 -37 -38
-49 -80 -28 -93 5 -3 17 -30 25 -59 25 -86 76 -116 121 -71 26 26 26 28 20
118 -9 120 -5 127 94 133 62 4 79 9 99 28 l24 24 -27 28 c-23 26 -33 29 -98
31 -47 2 -84 -2 -104 -11z"/>
<path d="M8909 3882 c-8 -4 -33 -21 -54 -39 -32 -26 -40 -42 -50 -91 -13 -63
-7 -185 11 -201 19 -18 62 -21 76 -6 32 35 40 47 50 75 8 24 7 36 -7 56 -20
31 -16 78 7 82 18 4 58 -62 58 -96 0 -26 59 -102 78 -102 10 1 28 10 42 21 34
29 36 111 3 153 -13 16 -23 36 -23 46 0 9 -15 33 -32 52 -44 48 -113 70 -159
50z"/>
<path d="M8600 3859 c-19 -12 -39 -27 -43 -33 -4 -6 -7 -69 -5 -141 3 -141 4
-144 67 -166 27 -10 34 -7 63 20 28 26 31 33 21 53 -24 48 -33 96 -34 173 -1
125 -6 132 -69 94z"/>
<path d="M9573 3623 c-30 -34 -29 -74 1 -102 37 -35 79 -22 105 33 35 71 24
96 -43 95 -31 0 -46 -7 -63 -26z"/>
<path d="M10408 2059 c-97 -4 -181 -10 -186 -13 -5 -3 -112 -15 -238 -26 -125
-12 -234 -26 -242 -32 -7 -6 -12 -21 -10 -32 2 -17 13 -22 58 -29 68 -9 398 5
420 18 5 3 38 8 72 10 137 10 315 25 351 30 36 5 37 4 27 -15 -16 -29 -4 -40
43 -40 64 0 179 -19 194 -31 9 -8 54 -8 163 1 175 15 352 8 430 -16 30 -9 78
-18 105 -20 294 -16 305 -15 305 30 0 41 -34 52 -172 60 -69 3 -150 11 -180
16 -29 6 -98 13 -153 16 -121 7 -140 9 -280 24 -60 7 -139 14 -175 15 -36 2
-86 8 -113 14 -38 9 -54 8 -84 -4 -37 -16 -38 -15 -56 10 -15 20 -26 25 -60
23 -23 0 -122 -4 -219 -9z"/>
<path d="M628 1759 c-21 -13 -38 -30 -38 -39 0 -22 28 -47 60 -54 42 -10 204
-13 281 -5 62 7 78 5 99 -9 20 -13 52 -17 170 -18 80 -1 183 -8 230 -14 83
-12 160 -15 325 -12 44 1 112 1 150 0 135 -1 460 2 500 6 115 12 173 20 191
27 26 9 37 45 19 63 -19 19 -119 27 -195 16 -44 -6 -85 -6 -128 1 -44 8 -75 8
-105 1 -23 -6 -58 -8 -77 -5 -19 3 -55 5 -80 5 -25 -1 -128 -2 -229 -2 -117 0
-195 -4 -216 -11 -28 -11 -42 -9 -97 9 -91 32 -116 35 -288 38 -156 2 -264 7
-440 19 -87 5 -98 4 -132 -16z"/>
<path d="M5670 1648 c-145 -64 -180 -90 -180 -134 0 -29 32 -36 75 -18 19 8
43 14 54 14 10 0 42 16 70 35 28 19 55 35 61 35 20 0 11 57 -13 72 -20 14 -27
13 -67 -4z"/>
<path d="M6250 1583 c-39 -49 -14 -79 39 -47 37 22 40 47 6 62 -21 10 -27 8
-45 -15z"/>
<path d="M1618 1509 c-25 -14 -22 -51 9 -112 30 -58 58 -83 88 -79 51 7 65 13
65 30 0 10 -10 29 -22 42 -13 13 -39 46 -59 74 -37 54 -53 62 -81 45z"/>
<path d="M2263 1460 c-18 -28 -1 -64 48 -99 55 -41 75 -46 104 -27 35 23 31
51 -12 83 -21 15 -40 31 -43 34 -10 12 -49 29 -67 29 -10 0 -24 -9 -30 -20z"/>
<path d="M5558 1315 c-3 -4 -44 -15 -90 -26 -92 -21 -152 -42 -216 -79 -24
-14 -56 -32 -70 -40 -15 -8 -43 -27 -62 -42 -32 -24 -104 -52 -190 -75 -42
-10 -62 -51 -40 -78 14 -17 61 -15 99 4 9 5 41 17 71 27 61 19 161 69 230 114
25 16 50 32 55 34 18 7 209 65 267 81 58 15 83 44 60 67 -13 13 -104 23 -114
13z"/>
<path d="M2075 1165 c-32 -31 -32 -68 -1 -85 13 -7 27 -21 29 -31 3 -11 20
-26 39 -35 18 -9 56 -29 83 -45 68 -39 91 -49 155 -66 106 -28 108 -28 116 1
3 15 1 32 -5 40 -7 8 -58 34 -114 57 -102 43 -217 125 -217 155 0 14 -30 34
-50 34 -6 0 -22 -11 -35 -25z"/>
<path d="M2659 1120 c-11 -6 -16 -21 -15 -42 1 -29 8 -36 56 -60 30 -15 76
-34 102 -42 25 -8 56 -20 68 -26 12 -6 58 -15 103 -20 45 -5 106 -12 135 -16
51 -6 52 -6 52 20 0 47 -63 91 -153 107 -29 5 -64 11 -80 14 -15 2 -32 7 -37
10 -10 6 -201 65 -210 65 -3 -1 -12 -5 -21 -10z"/>
<path d="M6090 1070 c-27 -9 -101 -25 -163 -35 -43 -7 -64 -37 -53 -79 6 -23
12 -26 49 -26 47 0 125 19 177 43 19 8 51 19 70 22 43 9 60 22 60 46 0 35 -74
50 -140 29z"/>
<path d="M3944 970 c-24 -9 -49 -62 -41 -84 14 -35 200 -48 397 -27 52 6 149
13 214 16 95 5 123 10 133 23 16 22 17 59 1 68 -16 10 -209 12 -223 3 -5 -3
-86 -9 -180 -13 -152 -5 -217 -1 -265 17 -8 3 -24 2 -36 -3z"/>
<path d="M1783 963 c-18 -6 -16 -44 2 -70 8 -12 30 -25 48 -28 17 -4 44 -16
59 -26 14 -11 29 -19 33 -19 4 0 30 -16 56 -35 27 -19 55 -35 62 -35 7 0 21
-6 32 -13 26 -17 88 -35 143 -41 23 -3 51 -10 61 -16 11 -5 42 -10 69 -10 57
0 78 17 68 54 -6 26 -52 46 -106 46 -32 0 -127 26 -143 38 -7 5 -30 15 -52 22
-47 15 -134 58 -155 75 -8 7 -44 20 -79 29 -36 9 -69 20 -75 25 -6 5 -17 6
-23 4z"/>
<path d="M5439 775 c-25 -7 -55 -18 -66 -23 -21 -12 -135 -34 -167 -33 -28 0
-76 -37 -76 -59 0 -11 9 -24 20 -30 22 -12 108 -4 150 13 14 6 33 11 42 12 27
3 190 55 228 73 23 11 35 24 35 37 0 18 -7 20 -60 21 -33 1 -81 -4 -106 -11z"/>
<path d="M2823 760 c-16 -7 -23 -18 -23 -38 0 -27 5 -30 75 -52 l76 -24 22 22
c27 27 17 49 -34 74 -46 23 -89 30 -116 18z"/>
<path d="M3679 660 c-11 -6 -15 -18 -12 -35 11 -53 119 -78 363 -81 91 -1 214
-5 273 -9 60 -4 112 -3 117 1 4 5 6 24 3 42 -4 23 -12 34 -27 37 -44 9 -209
20 -456 30 -91 3 -181 11 -200 16 -42 11 -41 11 -61 -1z"/>
</g>
</svg>
