<?xml version="1.0" standalone="no"?>
<!DOCTYPE svg PUBLIC "-//W3C//DTD SVG 20010904//EN"
 "http://www.w3.org/TR/2001/REC-SVG-20010904/DTD/svg10.dtd">
<svg version="1.0" xmlns="http://www.w3.org/2000/svg"
 width="931.890294pt" height="400.000000pt" viewBox="0 0 931.890294 400.000000"
 preserveAspectRatio="xMidYMid meet">
<metadata>
Created by potrace 1.15, written by Peter Selinger 2001-2017
</metadata>
<g transform="translate(-40.709491,425.133421) scale(0.044014,-0.044014)"
fill="#444444" stroke="none">
<path d="M19717 9649 c-10 -6 -65 -12 -121 -13 -83 -2 -110 -7 -137 -23 -19
-11 -54 -23 -79 -27 -54 -8 -142 -32 -189 -52 -18 -8 -76 -17 -130 -21 -74 -4
-107 -11 -146 -31 -53 -27 -67 -28 -345 -36 -69 -2 -134 -6 -145 -9 -78 -20
-107 -29 -132 -42 -19 -10 -43 -13 -74 -9 -29 4 -55 2 -69 -6 -13 -7 -41 -12
-64 -12 -23 1 -66 -7 -96 -17 -30 -11 -73 -23 -95 -27 -22 -4 -49 -13 -60 -19
-11 -7 -55 -15 -99 -19 -43 -3 -84 -10 -90 -15 -7 -6 -52 -13 -102 -16 -49 -3
-118 -12 -154 -20 -153 -33 -248 -46 -307 -41 -46 4 -65 1 -74 -10 -6 -8 -26
-14 -43 -14 -17 0 -51 -5 -76 -11 -25 -6 -85 -11 -135 -11 -62 0 -108 -6 -148
-19 -31 -10 -105 -26 -164 -34 -58 -8 -111 -19 -117 -24 -6 -4 -63 -25 -126
-46 -63 -20 -125 -43 -136 -51 -34 -21 -253 -72 -316 -74 -32 0 -70 -7 -85
-15 -15 -8 -48 -17 -73 -21 -25 -3 -65 -13 -90 -21 -27 -9 -90 -17 -156 -18
-115 -3 -149 -9 -174 -30 -8 -7 -42 -18 -75 -24 -105 -20 -188 -40 -250 -60
-33 -10 -109 -28 -170 -40 -60 -11 -153 -34 -205 -50 -52 -17 -129 -38 -170
-47 -41 -8 -127 -33 -190 -54 -63 -21 -144 -46 -179 -55 -35 -9 -70 -23 -78
-31 -16 -16 -25 -18 -138 -33 -44 -6 -107 -16 -140 -22 -33 -6 -80 -13 -105
-15 -47 -4 -140 -27 -175 -43 -11 -5 -74 -12 -140 -15 -67 -4 -140 -13 -165
-22 -25 -9 -76 -18 -115 -20 -38 -3 -101 -12 -140 -20 -38 -9 -78 -17 -88 -19
-10 -2 -33 -17 -50 -32 -25 -22 -53 -32 -127 -46 -52 -10 -132 -29 -177 -43
-58 -18 -109 -26 -180 -28 -100 -3 -222 -28 -235 -49 -4 -7 -6 -18 -3 -24 3
-10 -17 -13 -80 -13 -47 0 -93 -4 -103 -9 -38 -20 -180 -70 -232 -81 -30 -6
-71 -17 -90 -24 -76 -28 -108 -36 -156 -36 -48 0 -80 -9 -159 -45 -38 -17
-143 -34 -249 -40 -26 -1 -52 -8 -56 -16 -10 -16 -84 -39 -127 -39 -18 0 -58
-7 -90 -17 -32 -9 -83 -18 -113 -20 -30 -2 -68 -10 -85 -17 -55 -25 -149 -40
-250 -41 -79 -1 -112 -5 -155 -23 -39 -16 -77 -22 -130 -22 -41 -1 -93 -7
-115 -15 -22 -8 -58 -15 -81 -15 -40 0 -88 -12 -129 -31 -11 -6 -40 -7 -64 -4
-24 3 -49 1 -55 -4 -19 -15 -118 -41 -157 -41 -25 0 -45 -7 -56 -19 -10 -11
-36 -26 -58 -34 -57 -21 -190 -40 -226 -32 -16 4 -35 2 -42 -3 -7 -5 -39 -13
-71 -17 -33 -4 -69 -13 -80 -20 -12 -8 -59 -20 -106 -29 -47 -8 -107 -24 -133
-35 -29 -13 -70 -21 -102 -21 -42 0 -64 -7 -111 -35 -32 -19 -67 -35 -78 -35
-12 0 -41 -9 -65 -20 -36 -17 -65 -20 -171 -20 -70 0 -140 -4 -156 -9 -16 -5
-69 -14 -119 -21 -49 -6 -100 -16 -112 -20 -21 -9 -128 -24 -338 -50 -49 -6
-104 -19 -120 -29 -17 -10 -44 -21 -60 -25 -67 -15 -141 -41 -164 -55 -13 -9
-37 -14 -53 -12 -16 1 -40 -6 -57 -18 -23 -16 -43 -21 -83 -19 -60 2 -203 -19
-230 -33 -10 -6 -35 -12 -56 -15 -20 -3 -66 -9 -102 -13 -36 -5 -78 -15 -95
-22 -16 -7 -57 -16 -90 -20 -33 -4 -98 -15 -145 -24 -47 -9 -101 -16 -120 -15
-19 1 -53 2 -75 3 -64 1 -292 -36 -330 -54 -23 -11 -295 -40 -306 -33 -4 2
-40 -7 -80 -21 -40 -14 -79 -25 -86 -25 -8 0 -33 -13 -56 -28 -23 -16 -55 -29
-70 -30 -15 -1 -36 -6 -45 -11 -9 -5 -43 -11 -74 -15 -32 -3 -74 -12 -94 -21
-20 -8 -53 -15 -73 -15 -55 0 -234 -56 -272 -86 -8 -6 -34 -12 -59 -13 -25 -1
-61 -10 -81 -21 -20 -10 -52 -23 -70 -28 -70 -21 -183 -64 -202 -77 -13 -9
-40 -12 -90 -9 -52 3 -80 0 -105 -12 -20 -9 -56 -16 -82 -15 -28 0 -63 -7 -87
-19 -22 -10 -56 -21 -74 -23 -19 -2 -59 -16 -90 -31 -39 -18 -88 -31 -155 -40
-55 -7 -114 -21 -133 -30 -53 -28 -113 -47 -161 -53 -25 -3 -52 -9 -60 -13 -8
-4 -36 -11 -63 -15 -26 -4 -59 -17 -73 -28 -21 -16 -39 -20 -90 -19 -62 2
-138 -21 -174 -52 -8 -8 -62 -23 -120 -35 -58 -12 -127 -28 -155 -36 -27 -8
-69 -19 -92 -25 -23 -6 -68 -23 -100 -39 -55 -27 -74 -32 -167 -47 -22 -3 -63
-19 -93 -36 -61 -34 -116 -52 -223 -73 -41 -9 -91 -20 -112 -26 -24 -8 -45 -8
-65 -2 -17 6 -40 6 -58 1 -16 -5 -49 -10 -72 -12 -31 -3 -62 -17 -114 -52 -63
-43 -74 -55 -85 -94 -17 -57 -12 -74 32 -99 28 -17 33 -24 26 -38 -5 -10 -12
-38 -16 -62 -6 -39 -4 -47 18 -70 16 -17 30 -47 35 -78 6 -29 17 -67 24 -85 9
-22 11 -42 6 -56 -9 -25 10 -66 37 -76 8 -3 14 -16 14 -29 0 -13 12 -39 26
-58 20 -27 24 -42 21 -71 -3 -21 -1 -40 3 -43 5 -3 14 -31 21 -63 6 -31 16
-68 22 -82 6 -14 12 -35 13 -47 4 -28 45 -125 61 -141 7 -7 22 -34 33 -60 11
-25 24 -49 28 -52 16 -11 53 -72 48 -77 -6 -6 30 -80 50 -104 8 -8 17 -38 21
-65 4 -29 24 -81 50 -128 23 -43 43 -84 43 -91 0 -16 57 -192 74 -230 8 -16
17 -40 20 -52 4 -12 25 -44 47 -70 25 -31 39 -58 39 -76 0 -16 7 -35 15 -43 9
-9 15 -35 16 -62 1 -72 12 -124 32 -144 29 -30 76 -126 70 -146 -2 -11 2 -45
11 -74 8 -30 15 -70 14 -89 0 -19 4 -44 10 -56 7 -12 12 -33 12 -47 0 -15 4
-34 9 -44 41 -76 54 -136 55 -250 1 -104 3 -121 23 -145 16 -21 20 -36 16 -65
-4 -30 0 -44 25 -74 20 -26 32 -54 36 -90 14 -100 31 -119 136 -155 38 -13 53
-14 95 -3 28 7 59 18 70 24 60 37 104 46 171 37 44 -7 75 -6 92 1 44 17 278
26 354 14 32 -6 62 -3 101 8 30 9 88 16 129 16 45 0 79 5 86 12 9 9 55 13 145
13 91 1 150 7 192 18 33 10 78 19 100 22 74 9 100 17 150 45 52 28 129 46 178
41 16 -1 38 4 50 12 21 13 93 32 222 58 33 7 80 20 105 30 25 9 80 20 123 24
56 5 87 14 112 31 27 18 43 22 77 18 24 -3 74 2 111 10 38 9 82 16 98 16 17 0
32 6 35 15 4 10 20 15 51 15 25 0 84 9 132 21 47 12 95 23 106 25 11 2 86 6
167 8 80 2 155 9 165 14 10 6 45 13 78 17 33 4 71 14 84 22 22 14 47 13 118
-4 17 -4 23 -1 23 11 0 25 40 44 120 55 45 6 79 16 86 25 14 19 46 31 108 40
27 4 83 21 125 37 64 25 85 29 132 24 48 -5 58 -3 74 15 24 27 113 69 160 77
21 3 44 16 55 30 14 18 28 24 57 23 21 0 68 3 105 6 52 5 67 10 71 24 5 18 21
23 137 41 71 11 158 36 177 51 7 5 36 12 65 14 29 3 60 7 68 10 63 22 288 44
500 49 119 3 206 12 235 25 42 18 114 30 144 24 19 -4 37 -2 46 6 11 9 36 11
83 7 59 -5 70 -3 90 16 17 16 36 22 70 22 26 0 54 4 62 9 8 5 73 10 145 11
116 0 133 3 160 22 17 11 51 24 78 27 26 3 60 15 76 27 23 17 47 22 118 26 66
3 101 10 139 27 28 14 73 27 100 31 27 4 70 13 95 21 25 8 70 14 100 13 92 -3
181 12 219 37 31 21 39 22 78 12 32 -8 50 -8 68 1 14 6 39 11 57 11 18 0 67 9
111 20 43 11 95 20 116 20 20 0 63 10 96 22 39 14 76 20 109 18 94 -5 192 2
320 22 39 6 106 10 149 9 62 -1 84 3 98 16 13 11 46 19 106 23 48 4 98 12 112
18 14 7 50 16 80 21 30 5 81 16 113 24 33 8 75 13 95 10 21 -3 71 2 112 11
113 23 397 39 460 25 44 -9 58 -8 91 6 25 12 51 16 73 12 25 -4 40 -1 56 13
12 11 43 22 68 25 47 6 152 29 272 60 36 9 108 23 160 30 52 8 123 23 158 34
35 11 103 26 150 32 120 15 134 18 127 28 -8 14 22 21 88 21 34 1 89 7 122 15
33 8 81 19 106 25 44 10 89 41 89 59 0 5 17 12 38 16 20 4 42 10 47 15 6 4 28
10 50 14 22 3 69 10 105 15 36 6 81 12 100 15 19 3 55 10 80 15 67 15 272 32
298 25 14 -4 45 4 83 20 47 22 75 27 132 27 66 0 75 3 110 31 36 28 44 30 119
30 55 0 88 4 103 14 13 8 31 16 41 18 44 8 161 27 182 30 13 2 42 -1 64 -6 38
-8 43 -7 74 23 28 27 39 31 82 31 40 -1 53 3 72 23 21 23 31 25 104 25 51 1
87 5 98 14 11 8 50 14 100 15 62 1 89 6 108 20 33 24 53 29 128 36 34 3 94 10
134 15 39 6 79 8 88 5 10 -3 37 1 61 10 24 8 67 15 94 15 47 0 66 4 160 30 22
6 59 13 82 15 23 2 51 8 62 14 11 6 29 11 41 11 12 0 39 14 60 30 31 24 47 30
89 30 28 0 72 8 98 18 50 18 223 22 289 7 20 -4 54 0 100 14 38 11 94 23 124
26 50 5 109 15 195 32 17 3 80 5 140 4 78 -2 127 2 170 14 33 10 80 22 105 27
35 7 46 15 47 30 3 37 32 48 128 47 87 -1 91 -2 117 -32 22 -24 27 -37 23 -66
-13 -108 -14 -139 -4 -171 10 -31 17 -82 35 -260 3 -30 10 -60 16 -67 5 -7 8
-25 7 -40 -2 -15 3 -38 10 -51 6 -12 10 -26 7 -31 -3 -5 -35 -12 -72 -16 -61
-6 -104 -28 -104 -52 0 -5 -7 -21 -15 -37 -9 -16 -13 -31 -11 -34 3 -2 -5 -23
-17 -46 -17 -32 -22 -60 -24 -126 -3 -183 -11 -329 -18 -340 -4 -6 -9 -79 -11
-163 -4 -153 -6 -172 -25 -282 -6 -33 -13 -85 -14 -115 -2 -30 -8 -84 -13
-120 -5 -36 -6 -96 -3 -133 4 -37 3 -73 -1 -80 -4 -6 -2 -17 3 -23 6 -8 1 -27
-16 -59 -34 -65 -32 -99 10 -166 31 -51 34 -61 24 -86 -6 -15 -13 -41 -15 -58
-3 -16 -7 -40 -9 -52 -3 -13 -2 -23 2 -23 13 0 16 -216 3 -240 -9 -17 -7 -34
10 -86 15 -43 20 -78 16 -102 -22 -147 -22 -152 -8 -166 11 -10 14 -38 13
-104 -1 -55 3 -93 9 -97 7 -4 8 -23 4 -51 -4 -29 -2 -49 6 -59 6 -8 9 -18 6
-23 -39 -63 -10 -358 41 -415 20 -21 77 -49 143 -68 60 -18 415 -18 448 0 17
9 35 9 83 -1 49 -10 62 -10 68 1 6 10 68 14 257 17 137 2 327 6 422 9 116 4
179 2 193 -5 11 -6 52 -13 92 -16 40 -2 110 -7 157 -11 98 -8 326 -4 385 6 22
4 67 3 100 -2 100 -14 110 -14 123 -4 8 7 123 9 300 8 158 -1 301 -1 317 1 17
1 74 2 127 3 82 0 100 -3 120 -20 37 -32 62 -43 133 -60 87 -20 108 -19 130 5
19 21 14 84 -8 94 -9 3 -8 8 3 18 15 13 50 64 89 130 19 33 21 42 11 78 -6 24
-8 61 -4 88 11 74 11 106 1 127 -11 20 -16 104 -20 292 -1 61 -5 114 -9 118
-4 4 -2 15 4 25 9 13 8 26 -4 51 -22 46 -23 67 -9 117 8 30 9 47 2 56 -9 10
-9 60 -1 76 2 3 4 16 6 30 1 14 7 42 12 63 7 27 7 48 0 69 -8 24 -8 32 3 39
12 7 11 14 -3 41 -18 34 -24 143 -9 152 5 3 2 33 -6 66 -10 43 -11 71 -4 98 5
20 9 74 9 119 0 45 5 90 10 99 6 10 7 27 3 38 -7 23 -6 83 3 191 4 39 7 77 7
85 1 8 5 30 11 48 6 19 12 62 13 97 2 36 7 70 11 77 8 13 15 107 14 194 0 28
4 62 9 76 6 17 6 29 -1 36 -8 8 -8 26 1 65 7 34 8 63 3 78 -11 29 -4 99 10 99
6 0 7 19 4 48 -4 26 -6 79 -6 117 0 39 1 84 1 100 0 35 -15 49 -105 99 -75 42
-79 42 -130 17 -48 -25 -80 -15 -103 34 -14 29 -15 38 -3 59 7 14 10 31 8 38
-3 7 -2 23 3 34 6 17 13 20 33 17 31 -6 33 6 7 33 -39 42 -42 58 -22 116 22
65 24 225 2 251 -9 12 -10 21 -4 30 13 15 17 71 13 167 -9 194 -4 409 10 435
10 19 11 31 4 43 -6 9 -9 34 -6 55 2 20 -1 43 -7 51 -6 7 -9 20 -5 29 17 46
29 136 20 156 -6 14 -5 29 2 46 8 18 10 96 7 263 -5 225 -6 305 -4 415 0 26
-2 51 -6 56 -10 17 -26 104 -29 163 -2 31 -7 61 -10 67 -4 6 -2 11 4 11 11 0
3 47 -12 66 -5 8 -4 17 5 25 20 20 28 61 15 76 -7 9 -7 13 1 13 8 0 10 8 6 19
-3 11 -2 22 3 25 5 3 9 20 10 39 1 18 17 66 37 105 19 39 35 78 35 87 0 9 6
31 14 50 8 18 11 35 6 37 -11 4 8 96 26 123 7 11 16 49 20 85 3 36 10 70 14
75 3 6 6 114 4 240 -2 176 -6 246 -19 300 -10 39 -19 94 -21 124 -2 30 -9 60
-15 68 -7 7 -9 30 -6 54 3 22 1 53 -3 69 -5 18 -5 32 1 36 5 3 7 9 5 13 -3 4
-8 44 -11 89 -3 44 -9 92 -15 106 -5 14 -7 32 -4 40 3 8 1 17 -5 21 -6 3 -11
13 -11 22 0 9 -12 32 -27 52 -20 26 -28 48 -28 81 -1 41 -19 98 -37 110 -4 3
-6 14 -4 25 4 28 -23 74 -47 80 -12 3 -42 6 -67 7 -27 2 -45 8 -46 16 -1 6 -2
21 -3 31 0 11 -7 26 -14 33 -6 7 -21 30 -31 50 -12 21 -37 46 -60 59 -23 13
-47 29 -54 36 -8 7 -27 20 -43 28 -16 9 -29 19 -29 24 0 4 -12 14 -27 22 -16
8 -43 24 -62 37 -19 12 -47 22 -63 22 -16 0 -39 7 -52 15 -25 17 -93 36 -196
56 -60 11 -130 44 -145 69 -3 5 -42 10 -88 10 -75 0 -89 3 -157 38 l-75 37
-180 1 c-105 0 -195 6 -215 12 -43 14 -140 18 -196 8 -29 -5 -53 -3 -79 8 -43
18 -82 20 -108 5z m147 -199 c32 -5 62 -7 67 -5 10 7 176 7 209 1 14 -2 57 -8
95 -12 87 -10 81 -9 135 -18 25 -4 77 -9 115 -11 157 -8 283 -34 333 -68 20
-14 62 -33 92 -43 30 -10 73 -28 95 -41 22 -12 49 -23 60 -23 11 0 32 -7 48
-15 15 -8 37 -21 50 -28 13 -7 38 -29 57 -50 18 -21 45 -44 59 -52 47 -25 130
-109 137 -140 4 -16 14 -46 23 -65 8 -19 16 -46 18 -60 6 -63 101 -190 141
-190 6 0 23 -5 37 -12 28 -12 33 -35 10 -44 -23 -9 -18 -25 16 -60 25 -25 33
-45 40 -95 5 -35 9 -70 9 -76 0 -7 0 -23 1 -35 0 -13 2 -59 4 -104 1 -45 5
-86 9 -92 3 -6 1 -23 -6 -39 -17 -41 -19 -75 -7 -103 6 -14 17 -38 25 -55 64
-142 65 -147 58 -220 -4 -38 -12 -84 -19 -101 -7 -17 -12 -50 -11 -73 1 -23
-1 -44 -4 -46 -4 -3 -13 -26 -20 -52 -8 -27 -23 -61 -34 -77 -15 -21 -18 -30
-8 -33 14 -5 16 -43 2 -43 -5 0 -10 -18 -10 -39 0 -46 -15 -60 -38 -37 -20 19
-24 70 -11 116 9 30 7 41 -14 79 -21 36 -23 49 -15 72 5 16 13 29 17 29 3 0
11 8 18 18 8 14 7 27 -8 58 -10 21 -19 46 -19 54 0 8 -9 49 -19 90 -13 52 -20
122 -22 225 l-4 150 -30 31 c-44 45 -56 75 -81 209 -13 74 -29 121 -42 131
-13 10 -13 14 4 37 10 15 22 27 27 27 15 0 6 28 -21 66 -16 22 -27 45 -24 52
2 7 0 25 -6 40 -5 15 -15 45 -22 67 -15 50 -33 72 -90 112 -25 17 -63 50 -85
73 -22 23 -79 63 -126 90 -73 42 -124 77 -175 119 -22 18 -103 49 -145 56 -50
7 -155 39 -214 65 -48 21 -134 40 -181 40 -19 0 -73 7 -121 15 -96 17 -339 25
-408 15 -24 -4 -72 -2 -107 3 -34 5 -79 9 -98 9 -33 0 -203 -54 -225 -72 -5
-4 -48 -10 -95 -13 -47 -3 -98 -9 -115 -12 -16 -4 -72 -9 -124 -11 -52 -2 -99
-8 -105 -12 -16 -12 -74 -14 -81 -2 -9 15 -58 12 -93 -6 -34 -16 -191 -44
-255 -44 -21 0 -59 -9 -85 -19 -26 -11 -79 -29 -118 -40 -39 -11 -79 -30 -90
-42 -24 -27 -72 -52 -84 -44 -6 4 -25 1 -44 -5 -18 -6 -107 -13 -197 -15 -251
-7 -519 -24 -569 -36 -25 -5 -74 -14 -110 -18 -36 -5 -85 -16 -110 -24 -93
-30 -180 -47 -247 -47 -43 0 -88 -7 -123 -20 -30 -11 -74 -20 -97 -20 -23 0
-43 -5 -45 -11 -2 -6 -26 -15 -53 -20 -27 -5 -79 -26 -115 -47 -67 -40 -96
-52 -165 -70 -22 -6 -66 -18 -98 -27 -33 -10 -71 -15 -89 -11 -17 3 -47 2 -67
-3 -65 -17 -151 -32 -204 -37 -62 -5 -178 -23 -187 -29 -17 -10 -163 -35 -239
-40 -49 -3 -92 -12 -104 -20 -12 -8 -31 -15 -42 -15 -12 0 -41 -10 -65 -21
-67 -32 -154 -59 -200 -61 -22 -1 -43 -5 -46 -10 -3 -4 -19 -8 -35 -8 -17 0
-42 -6 -58 -14 -15 -8 -65 -22 -112 -31 -46 -10 -111 -26 -144 -37 -59 -19
-151 -31 -335 -43 -81 -5 -201 -30 -314 -66 -16 -5 -38 -9 -50 -9 -12 0 -34
-7 -50 -15 -15 -8 -36 -15 -45 -15 -9 0 -31 -9 -49 -20 -18 -11 -38 -20 -45
-20 -7 0 -35 -11 -63 -24 -27 -13 -62 -27 -79 -30 -16 -3 -79 -18 -140 -32
-60 -14 -148 -30 -195 -34 -153 -15 -428 -67 -468 -89 -25 -13 -141 -39 -212
-46 -25 -3 -61 -9 -80 -14 -43 -12 -112 -25 -123 -23 -4 1 -34 -9 -67 -23 -33
-14 -67 -25 -77 -25 -10 0 -32 -8 -48 -19 -17 -10 -48 -24 -70 -31 -22 -7 -44
-16 -50 -20 -5 -4 -53 -11 -105 -15 -157 -11 -339 -52 -445 -99 -16 -8 -59
-17 -95 -21 -36 -4 -83 -11 -105 -16 -37 -9 -102 -18 -265 -39 -36 -4 -83 -13
-105 -19 -22 -6 -60 -11 -84 -11 -24 0 -67 -6 -95 -14 -28 -8 -80 -20 -116
-26 -36 -6 -69 -16 -74 -21 -6 -5 -27 -9 -47 -9 -21 0 -50 -5 -66 -11 -15 -6
-59 -13 -98 -15 -38 -3 -79 -11 -90 -18 -11 -7 -54 -23 -95 -35 -41 -12 -102
-31 -135 -42 -33 -10 -72 -19 -87 -19 -15 0 -30 -4 -33 -10 -3 -5 -28 -10 -54
-10 -26 0 -83 -9 -127 -20 -43 -12 -90 -20 -104 -19 -34 3 -158 -11 -195 -21
-16 -5 -61 -18 -100 -29 -38 -12 -78 -21 -87 -21 -10 0 -41 -9 -70 -20 -29
-11 -63 -20 -76 -20 -13 0 -48 -12 -78 -26 -58 -27 -202 -53 -329 -60 -38 -1
-83 -6 -100 -9 -16 -3 -67 -10 -113 -15 -53 -6 -95 -16 -116 -29 -18 -12 -41
-21 -50 -21 -21 0 -187 -48 -200 -58 -23 -18 -145 -52 -200 -57 -31 -3 -72
-11 -89 -18 -76 -33 -91 -37 -143 -37 -31 0 -99 -11 -152 -26 -54 -14 -127
-26 -166 -26 -43 -1 -83 -8 -106 -19 -19 -9 -53 -20 -75 -24 -59 -10 -129 -31
-217 -65 -42 -17 -95 -30 -116 -30 -23 0 -45 -6 -52 -15 -9 -10 -32 -15 -74
-15 -42 0 -76 -7 -104 -20 -22 -11 -59 -20 -82 -20 -22 0 -73 -9 -112 -20 -40
-11 -93 -20 -118 -20 -25 0 -79 -7 -120 -16 -41 -9 -104 -20 -140 -25 -71 -10
-191 -28 -230 -35 -14 -2 -63 -6 -110 -10 -47 -3 -105 -12 -130 -19 -25 -8
-85 -13 -135 -13 -53 0 -121 -6 -165 -17 -41 -9 -118 -25 -170 -35 -186 -35
-286 -58 -321 -73 -20 -8 -60 -18 -90 -22 -30 -4 -88 -16 -129 -27 -41 -10
-102 -26 -135 -34 -33 -8 -73 -19 -90 -24 -52 -15 -236 -70 -337 -101 -54 -17
-122 -34 -151 -39 -30 -5 -72 -13 -93 -18 -22 -6 -64 -13 -94 -17 -30 -4 -82
-15 -115 -26 -33 -10 -69 -20 -80 -22 -17 -2 -99 -32 -160 -57 -11 -5 -54 -14
-95 -20 -41 -7 -100 -23 -130 -36 -30 -14 -75 -25 -100 -26 -25 0 -74 -9 -110
-20 -75 -23 -204 -84 -221 -104 -6 -8 -20 -14 -31 -14 -10 0 -33 -8 -51 -17
-18 -9 -59 -20 -92 -24 -86 -11 -364 -90 -406 -116 -20 -13 -51 -23 -68 -23
-18 0 -46 -10 -62 -22 -25 -19 -42 -23 -92 -21 -47 2 -73 -3 -114 -22 -29 -13
-66 -23 -82 -23 -16 1 -45 -6 -64 -15 -35 -17 -72 -16 -120 2 -16 6 -47 11
-70 12 -23 0 -51 4 -62 8 -18 7 -17 10 14 26 19 9 61 20 93 23 32 2 61 9 64
13 3 5 13 9 23 9 10 0 24 7 31 15 6 7 33 17 58 21 26 4 74 19 107 34 33 15 79
30 102 33 22 4 76 20 120 36 43 16 119 41 168 56 50 15 128 40 175 56 152 54
284 91 350 98 36 5 90 15 120 24 30 9 83 24 118 33 35 10 65 21 68 26 3 4 18
8 34 8 16 0 47 7 67 15 21 8 49 17 63 19 14 3 50 14 80 25 30 11 63 20 73 21
10 0 37 10 60 22 23 12 60 25 82 29 22 4 85 16 140 28 55 11 123 21 150 21 29
0 60 7 73 16 12 8 51 21 86 28 82 18 129 32 191 61 28 13 77 29 110 36 33 7
64 16 70 21 5 4 18 8 30 8 11 0 34 7 50 16 17 9 63 24 103 35 40 10 77 21 82
24 4 3 43 12 85 20 43 8 83 19 89 24 6 5 23 12 36 15 58 12 74 16 143 40 41
13 100 27 133 31 75 8 269 44 312 57 18 5 76 11 130 13 53 1 129 8 167 14 39
5 99 11 135 11 36 0 77 6 92 14 14 8 59 17 100 20 180 16 253 28 277 47 14 12
40 19 65 19 71 0 299 45 331 65 11 7 45 15 75 18 82 8 190 34 237 57 23 11 57
20 75 20 18 1 51 7 73 15 22 8 58 15 80 15 22 0 54 8 70 18 42 25 170 50 300
58 61 3 128 10 150 16 22 5 67 16 100 24 33 8 110 19 170 24 148 12 227 26
280 50 24 11 48 20 54 20 5 0 25 8 43 19 18 10 65 24 103 31 39 7 80 19 92 26
12 8 41 14 63 14 23 0 53 6 68 14 15 7 51 16 80 20 30 4 61 11 70 16 37 18
127 40 171 41 25 0 66 4 91 9 25 4 77 14 115 20 39 7 94 23 123 36 29 13 63
24 75 24 12 0 63 9 112 20 50 10 124 26 165 35 41 8 105 22 142 30 37 8 138
19 225 25 87 5 173 14 191 19 19 6 47 7 63 4 19 -4 35 0 47 10 16 14 84 29
222 47 181 23 312 53 330 75 9 10 32 15 73 15 33 0 75 5 93 12 31 11 44 9 76
-14 14 -10 20 -8 35 10 10 12 41 34 68 48 48 26 70 33 180 55 28 6 60 17 73
25 13 9 50 20 82 25 32 5 89 23 127 41 37 17 102 37 143 44 113 20 217 43 290
65 36 10 99 23 140 29 103 14 269 49 305 65 17 7 64 23 105 35 41 13 99 33
129 46 29 13 67 24 84 24 34 0 137 16 212 32 68 15 160 25 355 37 122 8 168
15 176 26 6 8 29 18 52 24 24 5 55 17 69 27 20 13 52 18 118 21 93 3 171 19
197 40 8 7 39 17 69 23 67 14 107 29 117 45 4 6 61 25 127 42 66 17 147 38
180 47 99 25 201 46 276 55 39 5 78 16 87 23 9 8 37 20 62 27 25 7 56 18 70
23 83 33 152 48 223 48 43 0 86 4 95 9 9 5 42 11 72 14 30 3 80 12 110 20 30
8 105 22 165 31 176 26 238 37 265 46 14 5 57 18 96 29 39 12 87 32 107 45 20
14 57 28 84 32 26 4 66 15 88 24 22 9 67 20 100 25 33 4 67 11 76 16 9 4 38
11 65 14 27 4 67 11 89 15 22 5 103 12 180 16 77 4 149 11 160 17 11 6 40 12
65 12 84 3 185 16 229 31 70 23 182 46 222 45 20 0 59 6 85 14 27 8 70 15 97
15 26 0 55 4 65 9 45 23 95 33 232 46 94 9 218 35 273 56 26 11 72 19 102 19
30 0 56 4 59 9 6 9 114 20 261 27 122 5 167 11 174 21 7 11 168 45 236 51 27
2 58 10 70 17 11 7 43 16 70 20 28 3 73 13 101 21 30 9 100 15 171 16 96 1
127 5 154 19 36 20 85 19 223 -1z m206 -359 c58 -6 125 -15 149 -21 24 -6 83
-10 130 -9 75 1 97 -3 171 -31 47 -18 112 -36 145 -40 33 -4 74 -14 90 -23 17
-9 46 -23 65 -32 38 -17 216 -134 240 -158 46 -45 80 -93 80 -113 0 -14 12
-32 31 -46 26 -19 29 -27 25 -57 -5 -40 16 -98 38 -107 9 -3 14 -10 11 -14 -5
-8 46 -160 66 -193 7 -12 8 -43 3 -85 -4 -37 -7 -73 -5 -81 1 -8 -3 -34 -9
-57 -11 -37 -10 -45 6 -67 11 -14 36 -36 57 -48 32 -21 37 -29 37 -61 0 -21
-4 -38 -10 -38 -5 0 -7 -6 -4 -13 3 -8 -2 -20 -11 -27 -14 -11 -25 -3 -88 65
-40 43 -75 86 -79 95 -7 18 -118 130 -129 130 -3 0 -22 16 -43 35 -21 19 -57
40 -80 47 -22 6 -48 17 -57 25 -8 7 -21 13 -27 13 -15 0 -15 13 -2 26 5 5 11
32 12 59 l3 50 -57 28 c-32 15 -58 34 -58 42 0 15 -49 65 -64 65 -9 0 -142 57
-222 96 -97 46 -156 61 -259 65 -195 7 -198 7 -245 -26 -23 -16 -50 -34 -58
-40 -9 -5 -39 -32 -66 -59 -39 -38 -57 -49 -78 -47 -32 3 -73 -18 -112 -59
-16 -16 -33 -30 -38 -30 -5 0 -22 -16 -39 -35 -17 -19 -39 -35 -50 -35 -10 0
-28 -10 -39 -22 -17 -18 -20 -31 -16 -60 4 -23 2 -38 -4 -38 -5 0 -10 -6 -10
-14 0 -8 -11 -28 -25 -44 -14 -17 -25 -37 -25 -45 0 -8 -10 -27 -21 -42 -12
-15 -23 -44 -24 -65 -2 -41 -25 -100 -39 -100 -4 0 -6 -6 -3 -14 7 -18 -22
-146 -33 -146 -26 0 -13 -83 16 -94 20 -8 17 -33 -7 -67 -13 -19 -19 -38 -15
-52 3 -12 1 -28 -3 -36 -6 -9 -1 -29 15 -57 13 -23 26 -60 29 -81 12 -79 35
-130 69 -154 41 -28 100 -113 103 -147 3 -33 144 -169 242 -233 41 -27 78 -49
82 -49 4 0 22 -23 39 -51 51 -78 130 -104 305 -100 87 2 213 25 229 41 5 5 34
10 63 10 49 0 54 2 84 40 27 33 39 40 67 40 35 0 78 25 131 77 13 13 27 23 32
23 4 0 10 9 14 19 11 37 91 34 83 -3 -2 -6 7 -27 18 -46 31 -50 37 -86 20
-113 -19 -29 -14 -101 8 -126 14 -16 16 -29 10 -80 -5 -43 -3 -65 6 -76 7 -8
10 -20 7 -28 -6 -16 17 -127 33 -157 7 -13 10 -40 7 -63 -3 -22 -2 -49 3 -61
7 -18 1 -26 -41 -51 -27 -16 -52 -38 -55 -48 -3 -10 -20 -25 -38 -32 -24 -10
-38 -26 -51 -59 -20 -47 -27 -53 -85 -66 -115 -26 -135 -35 -155 -68 l-20 -33
-65 7 c-102 10 -208 6 -238 -9 -15 -8 -54 -27 -86 -43 -32 -16 -58 -33 -57
-39 4 -17 -33 -24 -101 -18 -57 5 -72 2 -101 -16 -19 -11 -50 -21 -68 -21 -22
0 -38 -6 -45 -18 -7 -10 -29 -23 -50 -30 -53 -16 -162 -42 -204 -48 -19 -3
-50 -12 -69 -20 -18 -8 -63 -16 -100 -19 -81 -7 -230 -34 -252 -46 -9 -5 -52
-9 -95 -10 -57 -1 -88 -7 -113 -21 -22 -12 -57 -20 -98 -21 -35 -2 -67 -8 -71
-14 -24 -37 -233 -102 -332 -103 -19 -1 -46 -7 -60 -15 -14 -8 -37 -14 -52
-15 -15 0 -31 -6 -35 -14 -5 -8 -33 -16 -73 -19 -61 -5 -265 -25 -320 -31 -14
-1 -35 -8 -47 -14 -12 -7 -32 -11 -45 -10 -33 2 -180 -30 -263 -57 -38 -13
-97 -27 -130 -30 -33 -4 -78 -13 -100 -21 -22 -7 -87 -20 -145 -28 -58 -8
-130 -19 -160 -25 -30 -5 -84 -10 -120 -11 -36 0 -96 -9 -135 -20 -38 -11 -87
-20 -108 -20 -21 0 -54 -7 -74 -15 -19 -8 -45 -15 -57 -15 -12 0 -31 -7 -42
-15 -10 -8 -28 -15 -39 -15 -11 0 -38 -7 -60 -15 -22 -8 -55 -14 -73 -15 -19
0 -45 -9 -59 -20 -15 -12 -41 -20 -62 -20 -20 0 -49 -7 -66 -16 -74 -39 -151
-64 -197 -64 -27 0 -58 -5 -68 -10 -23 -12 -148 -40 -210 -46 -25 -3 -54 -9
-65 -13 -27 -11 -109 -28 -170 -36 -73 -8 -146 -25 -182 -41 -17 -8 -48 -14
-70 -14 -21 0 -87 -16 -148 -35 -60 -19 -126 -35 -146 -35 -20 0 -39 -3 -43
-7 -17 -18 -250 -90 -310 -97 -25 -2 -53 -9 -64 -15 -39 -21 -108 -39 -167
-45 -126 -11 -213 -23 -226 -32 -13 -8 -55 -16 -329 -64 -58 -10 -121 -23
-140 -29 -19 -6 -66 -11 -105 -11 -38 0 -89 -5 -113 -10 -71 -17 -142 -23
-223 -21 -41 1 -89 -3 -104 -9 -31 -12 -47 -14 -249 -30 -71 -5 -135 -15 -142
-21 -8 -6 -48 -13 -91 -16 -43 -3 -91 -11 -107 -19 -16 -8 -43 -14 -60 -14
-57 0 -220 -31 -236 -44 -8 -7 -35 -19 -60 -25 -158 -43 -202 -52 -260 -55
-36 -2 -166 -10 -290 -19 -124 -9 -226 -14 -228 -12 -2 1 -29 -4 -60 -13 -31
-8 -91 -16 -132 -17 -84 -2 -304 -22 -329 -29 -9 -3 -41 -8 -71 -11 -30 -4
-58 -8 -62 -11 -14 -9 -309 -64 -343 -64 -18 0 -50 -8 -71 -17 -40 -18 -206
-32 -424 -36 -64 -2 -117 -8 -135 -16 -26 -12 -93 -24 -350 -61 -72 -10 -117
-22 -170 -44 -25 -11 -52 -15 -75 -11 -22 4 -52 0 -80 -11 -69 -25 -127 -36
-225 -41 -49 -2 -95 -9 -102 -15 -7 -6 -39 -12 -70 -14 -32 -1 -98 -12 -146
-23 -48 -12 -98 -21 -110 -21 -12 0 -35 -7 -51 -15 -15 -8 -54 -15 -85 -16
-31 0 -78 -5 -106 -11 -27 -5 -80 -12 -118 -14 -44 -2 -73 -9 -83 -19 -8 -8
-30 -15 -48 -15 -17 0 -58 -7 -89 -15 -32 -8 -67 -15 -77 -15 -11 0 -34 -6
-52 -14 -18 -8 -91 -27 -163 -42 -71 -15 -152 -38 -179 -52 -31 -15 -72 -26
-105 -27 -31 -2 -81 -11 -111 -19 -49 -15 -119 -27 -234 -42 -21 -2 -42 -6
-45 -9 -4 -2 -36 -6 -71 -10 -36 -3 -76 -10 -90 -15 -14 -4 -57 -11 -97 -14
-44 -3 -87 -13 -112 -26 -42 -21 -117 -40 -181 -45 -57 -4 -114 -17 -129 -28
-7 -6 -36 -14 -65 -18 -57 -8 -192 -42 -246 -63 -61 -23 -106 -36 -127 -36
-11 0 -54 -11 -94 -24 -41 -13 -90 -26 -110 -30 -20 -4 -47 -15 -59 -26 -21
-18 -41 -25 -63 -21 -6 1 -50 -6 -237 -40 -30 -5 -67 -12 -81 -14 -15 -2 -43
-11 -64 -19 -21 -9 -47 -16 -59 -16 -11 0 -34 -7 -49 -15 -45 -23 -97 -34
-167 -35 -36 -1 -130 -17 -210 -35 -236 -56 -333 -73 -377 -68 -24 3 -60 -1
-85 -10 -24 -9 -86 -23 -138 -31 -133 -23 -180 -32 -305 -61 -60 -14 -146 -30
-190 -35 -44 -6 -143 -26 -220 -44 -239 -57 -398 -70 -510 -40 -33 8 -71 13
-85 11 -27 -6 -71 33 -105 93 -19 34 -24 51 -43 136 -9 44 -60 125 -93 147
-27 19 -59 111 -59 170 0 45 -37 138 -61 153 -12 7 -12 64 0 64 5 0 11 11 13
24 4 19 -6 37 -38 74 -24 27 -46 62 -50 78 -4 16 -14 42 -22 59 -8 16 -15 45
-15 65 0 19 -4 37 -7 40 -4 3 -21 34 -37 69 l-31 64 19 34 c27 48 24 69 -19
122 -65 78 -75 97 -62 120 6 12 7 21 3 21 -4 0 -2 5 5 12 18 18 15 36 -13 66
-14 15 -36 45 -49 67 -23 40 -117 308 -131 375 -4 19 -18 58 -31 85 -22 49
-81 213 -125 350 -12 39 -26 79 -30 90 -4 11 -11 36 -15 55 -3 19 -18 69 -32
110 l-25 75 29 20 c15 11 37 31 49 44 63 74 95 87 233 97 87 6 150 20 172 39
33 28 223 95 287 101 36 3 85 14 110 25 24 10 61 19 82 19 40 0 211 62 303
111 32 16 86 35 120 41 35 6 74 16 88 23 14 7 50 16 80 20 69 8 146 34 185 61
50 35 192 84 243 84 26 0 74 5 107 11 33 6 74 13 91 14 35 3 65 11 109 30 17
7 57 19 90 28 33 8 75 20 92 26 56 19 97 32 115 36 9 2 25 8 35 13 10 6 56 17
103 26 47 10 101 23 120 30 19 8 60 17 90 21 30 4 60 10 65 14 15 9 116 30
152 30 17 1 39 9 48 18 12 11 39 18 89 20 40 2 125 19 194 38 68 19 138 35
155 35 18 0 69 9 114 20 48 11 137 22 210 25 71 3 155 10 188 15 66 11 166 26
260 40 33 4 94 13 135 19 41 6 93 15 115 20 122 28 207 43 357 61 92 11 177
24 190 29 13 5 66 21 118 36 52 14 140 43 195 65 169 65 276 86 517 104 31 2
65 9 76 15 11 6 68 19 128 30 125 23 229 53 294 86 25 13 65 26 90 30 25 4 59
15 75 23 17 9 64 22 105 29 41 7 98 18 125 24 28 5 100 14 160 19 61 5 130 13
155 19 25 6 71 11 103 11 38 0 70 7 94 20 21 11 49 20 63 20 14 1 43 9 65 20
22 11 52 19 67 20 15 0 30 4 33 10 8 13 164 60 201 60 16 0 58 6 94 14 80 18
216 40 376 61 66 8 161 28 210 44 49 16 130 38 179 50 85 20 117 29 240 65 28
8 75 17 105 21 79 8 172 25 269 47 79 18 194 35 401 59 47 6 114 22 150 36
103 41 206 67 370 92 30 5 75 14 100 20 25 6 64 11 87 11 26 0 86 17 150 41
66 26 135 45 178 49 39 4 95 15 125 23 133 36 167 45 205 51 22 4 58 16 80 26
22 10 62 21 89 24 27 3 54 10 60 15 6 5 31 11 56 14 55 6 173 27 345 62 72 15
157 30 190 35 59 8 221 62 281 93 31 16 222 68 299 81 22 4 59 14 81 21 23 8
99 19 169 25 70 6 145 15 168 20 49 10 161 34 265 55 40 8 81 15 92 15 11 0
39 9 63 19 23 11 58 22 77 26 19 3 51 12 70 20 19 7 62 19 95 26 33 6 92 22
130 35 65 21 127 35 250 54 28 4 74 15 102 23 29 8 76 18 105 22 48 6 112 20
208 45 19 6 82 12 140 15 58 3 116 9 130 14 14 5 57 12 95 14 69 5 181 44 179
63 -2 12 147 71 210 84 155 30 270 49 344 55 45 3 115 18 155 31 69 24 169 46
267 59 25 4 151 10 280 15 389 15 447 18 467 28 10 5 35 10 57 11 21 1 54 8
73 16 20 8 65 15 102 15 61 0 69 2 105 35 35 31 46 35 95 35 31 0 85 9 121 20
36 11 90 20 120 20 30 0 93 7 140 15 61 11 117 14 195 10 130 -7 465 9 474 23
5 9 26 15 151 51 37 10 117 8 290 -8z m78 -862 c18 -17 32 -35 32 -40 0 -13
-58 -37 -133 -56 -52 -13 -159 -66 -227 -113 -36 -24 -170 -64 -181 -53 -5 5
7 17 29 28 20 11 56 38 80 61 34 35 43 50 44 81 0 21 5 43 10 50 9 12 136 54
206 68 17 4 32 10 32 15 0 17 78 -13 108 -41z m348 -430 c73 -35 108 -34 126
6 18 41 62 32 163 -31 28 -17 68 -37 90 -44 52 -17 101 -40 145 -67 19 -12 65
-31 101 -43 58 -17 68 -24 79 -53 7 -17 29 -52 49 -77 20 -25 45 -65 56 -90
10 -25 31 -61 46 -80 37 -49 49 -75 49 -103 0 -14 7 -30 15 -37 8 -7 15 -16
15 -21 0 -5 10 -30 22 -55 17 -38 19 -47 7 -54 -11 -7 -10 -14 7 -37 42 -57
74 -141 75 -195 1 -29 5 -60 10 -69 8 -15 39 -172 61 -304 5 -33 11 -130 13
-215 3 -85 6 -159 8 -165 3 -5 0 -37 -5 -70 -14 -91 -16 -175 -5 -226 6 -26 7
-55 3 -65 -5 -11 -9 -39 -11 -64 -2 -25 -7 -70 -11 -100 -4 -30 -7 -75 -6
-100 0 -25 1 -74 2 -110 0 -36 -3 -90 -8 -120 -9 -55 -8 -128 3 -185 2 -16 4
-67 4 -112 -1 -46 -2 -102 -2 -125 -1 -24 2 -85 5 -135 7 -87 6 -94 -16 -120
-14 -18 -23 -42 -23 -67 -1 -21 -6 -41 -11 -45 -21 -13 -17 -46 14 -104 24
-43 25 -67 4 -113 -11 -23 -20 -50 -20 -58 0 -21 -85 -45 -145 -41 -27 1 -93
4 -146 5 -104 2 -125 9 -116 35 4 9 2 36 -3 61 -8 36 -7 48 4 60 8 8 15 32 14
53 0 22 3 44 6 50 4 6 7 47 7 91 0 44 4 82 10 86 6 3 8 37 5 81 -2 43 0 86 7
100 7 17 7 42 -2 90 -9 50 -9 68 0 73 7 5 9 22 4 51 -13 82 -16 104 -19 159
-1 30 0 60 4 65 14 19 28 105 18 111 -5 4 -6 18 -3 33 4 14 9 39 11 55 2 16
11 40 19 52 20 31 19 46 -5 72 -20 21 -21 32 -20 214 0 14 4 38 10 53 8 21 5
42 -15 99 -29 84 -30 90 -11 109 17 16 24 66 12 86 -5 7 -10 60 -12 117 -2 66
-9 113 -18 127 -7 12 -14 51 -16 86 -1 43 -9 78 -23 105 -11 23 -20 46 -18 51
7 22 7 132 0 152 -5 14 -3 36 7 59 32 76 24 154 -23 223 -17 25 -22 43 -18 65
4 17 -1 50 -9 75 -9 24 -16 52 -16 63 0 11 -13 36 -30 55 -16 18 -30 38 -30
44 0 6 -7 17 -15 26 -8 8 -12 19 -9 25 4 6 2 13 -3 17 -11 6 -115 95 -143 121
-14 14 -49 32 -110 59 -32 14 -56 30 -88 59 -36 32 -64 36 -135 22 -34 -7
-106 -14 -160 -15 -56 -1 -103 -7 -110 -14 -15 -15 -43 -14 -79 5 -57 30 -201
13 -212 -24 -4 -10 -24 -38 -46 -62 -57 -64 -59 -66 -66 -94 -3 -15 -12 -30
-19 -34 -7 -4 -33 -26 -57 -48 -25 -23 -53 -44 -64 -46 -22 -5 -67 40 -56 56
4 6 7 13 7 16 3 24 19 50 31 50 8 0 14 8 14 18 0 10 8 25 18 33 9 9 31 36 48
61 32 46 58 58 125 58 22 0 30 6 40 33 11 29 87 97 109 97 5 0 24 -9 42 -20
47 -29 108 -26 144 6 34 29 87 58 126 68 15 3 44 24 64 46 21 22 39 40 41 40
2 0 33 -14 69 -31z m-30 -465 c47 -20 63 -40 64 -79 0 -40 -21 -68 -65 -89
-20 -10 -39 -25 -42 -34 -4 -9 -12 -24 -20 -32 -40 -45 -103 -130 -103 -139 0
-14 -37 -22 -78 -18 -29 4 -36 -1 -67 -44 -19 -27 -41 -49 -47 -50 -58 -5
-106 13 -156 57 -20 19 -50 45 -65 59 -25 22 -27 29 -21 62 4 21 15 50 25 65
11 14 19 34 19 45 0 10 4 23 8 29 12 18 53 27 76 16 78 -36 125 -42 145 -18 6
7 30 16 52 19 44 6 103 52 95 74 -6 13 39 53 60 53 7 0 19 6 26 13 12 13 34
24 49 26 4 1 24 -6 45 -15z m494 -1964 c0 -11 9 -43 20 -72 11 -29 20 -61 20
-71 0 -26 -50 -128 -65 -134 -16 -6 -9 -29 17 -55 16 -16 18 -29 12 -101 -5
-71 -6 -120 -4 -249 0 -16 0 -36 -1 -45 -2 -33 4 -94 10 -98 3 -2 5 -50 4
-107 -2 -124 -4 -138 -15 -138 -4 0 -8 -12 -8 -27 0 -63 -19 -102 -60 -123
-38 -20 -42 -20 -91 -4 -36 12 -67 15 -110 10 -43 -4 -83 0 -147 15 -76 18
-97 19 -162 10 -100 -15 -300 9 -385 44 -46 20 -133 21 -335 5 -74 -5 -151 -7
-170 -4 -19 4 -89 6 -156 5 -100 -2 -123 1 -134 14 -10 12 -13 51 -11 149 1
109 -1 135 -14 146 -8 7 -11 17 -7 24 4 6 7 63 7 126 1 116 13 178 41 201 8 6
38 17 67 23 47 11 54 16 72 53 20 41 21 42 84 49 35 3 98 4 140 1 54 -4 88 -2
116 8 22 8 70 15 106 15 48 0 70 5 85 18 23 21 100 42 153 42 22 0 52 5 68 12
15 6 66 15 113 19 47 4 119 12 160 19 41 6 82 12 90 12 8 0 24 8 35 18 33 28
157 98 203 114 24 9 60 24 80 35 57 30 135 60 155 61 10 0 17 -7 17 -20z
m-19707 -200 c52 -23 88 -67 66 -81 -25 -16 -48 -9 -99 27 -83 60 -62 96 33
54z m133 -261 c8 -6 14 -25 14 -41 0 -28 -2 -30 -27 -23 -33 8 -86 62 -77 77
8 12 70 4 90 -13z m17608 -11 c10 -9 9 -20 -3 -55 -17 -47 -29 -53 -55 -24
-16 17 -16 24 -5 55 14 37 38 47 63 24z m-29 -186 c26 -19 33 -63 33 -192 -1
-74 4 -160 10 -190 6 -30 13 -79 16 -107 6 -61 0 -66 -78 -77 -80 -10 -99 23
-46 82 24 28 27 37 18 57 -6 13 -32 35 -59 50 -27 14 -49 29 -49 33 0 4 7 18
16 31 22 30 54 120 54 149 0 15 -11 29 -35 44 l-36 20 23 16 c13 9 42 33 65
54 44 39 51 43 68 30z m-17441 -338 c49 -13 96 -47 83 -60 -3 -4 -24 1 -47 10
-22 9 -55 16 -73 16 -37 0 -57 15 -57 43 0 15 5 17 23 11 12 -4 44 -13 71 -20z
m137 -253 c13 -11 21 -23 17 -26 -9 -9 -63 12 -79 31 -18 22 34 18 62 -5z
m18331 -111 c62 -16 221 -47 308 -61 145 -22 223 -26 375 -18 35 2 93 -4 140
-15 44 -10 105 -20 136 -21 31 -2 70 -10 86 -18 25 -13 42 -14 102 -6 49 7 95
7 144 0 49 -8 85 -8 112 -1 22 6 110 13 195 17 l155 6 59 -29 c38 -18 67 -41
81 -64 22 -33 23 -43 19 -165 -2 -71 -4 -141 -3 -155 4 -114 3 -142 -10 -149
-7 -5 -11 -14 -7 -20 4 -6 0 -24 -9 -41 -15 -30 -12 -72 7 -97 6 -8 6 -24 -1
-46 -6 -18 -13 -51 -16 -73 -2 -21 -8 -63 -13 -92 -5 -29 -8 -79 -6 -110 1
-31 -1 -61 -5 -67 -9 -11 -23 -164 -26 -291 -2 -44 -7 -90 -13 -101 -7 -12 -7
-24 -2 -29 8 -8 14 -259 9 -374 -1 -19 -1 -44 -1 -55 1 -11 -1 -85 -4 -165 -4
-107 -9 -149 -20 -161 -13 -15 -12 -21 6 -58 26 -49 33 -144 14 -183 -17 -32
-18 -74 -4 -83 9 -6 13 -75 11 -200 -2 -88 -10 -164 -20 -183 -7 -13 -9 -37
-5 -58 l7 -36 -98 7 c-54 4 -133 16 -174 26 -57 15 -108 20 -206 20 -108 0
-136 3 -166 19 -38 19 -84 27 -109 17 -14 -5 -145 -14 -375 -24 -119 -5 -115
-5 -225 2 -41 3 -95 7 -120 8 -25 2 -52 0 -60 -4 -8 -4 -60 -3 -115 2 -55 5
-143 11 -195 13 -52 2 -108 9 -123 15 -38 15 -94 14 -191 -3 -112 -20 -308
-27 -385 -14 -54 9 -68 8 -90 -5 -20 -12 -59 -16 -159 -16 -106 -1 -138 -5
-159 -18 -19 -13 -53 -17 -144 -19 -131 -3 -174 7 -203 50 -20 31 -20 36 -1
36 9 0 15 9 15 24 0 14 5 28 11 32 7 4 9 25 4 60 -5 46 -3 56 15 74 l22 22
-35 37 c-45 46 -52 71 -32 116 8 21 15 59 15 84 0 40 -5 53 -32 80 -29 29 -30
34 -15 42 17 10 23 49 10 63 -4 4 -8 96 -9 204 -2 188 -5 230 -19 252 -3 5 -1
19 5 30 6 11 13 55 15 98 2 60 -2 92 -20 147 l-22 70 27 40 c28 40 28 41 10
65 -10 13 -16 30 -13 37 3 7 0 43 -7 80 -20 111 -22 126 -23 173 -2 67 11 160
24 176 6 8 9 14 6 14 -3 0 -1 15 4 33 5 17 12 86 15 152 9 216 11 249 19 296
4 26 9 125 11 220 2 96 5 185 7 199 4 30 20 33 247 50 84 6 170 18 205 29 33
11 94 24 135 31 41 6 84 17 95 24 11 7 52 16 90 20 39 4 95 13 125 20 67 16
524 13 592 -4z m-18254 -202 c17 -17 15 -63 -3 -78 -8 -7 -15 -11 -16 -9 0 2
-2 25 -4 52 -3 48 2 56 23 35z m74 -195 c28 -32 60 -105 50 -115 -9 -9 -64 49
-96 100 -18 30 21 43 46 15z m365 -1113 c12 0 -1 -32 -16 -40 -16 -8 -23 -6
-35 12 -26 37 -21 48 16 37 18 -5 34 -9 35 -9z"/>
<path d="M18854 7848 c-16 -11 -43 -38 -58 -60 -15 -21 -32 -38 -37 -38 -5 0
0 -13 12 -29 21 -29 21 -31 5 -80 -9 -27 -16 -63 -16 -80 0 -16 -4 -32 -9 -35
-9 -6 -20 -64 -25 -127 -2 -20 -7 -42 -11 -50 -10 -15 -19 -75 -24 -155 -1 -5
-7 -19 -15 -29 -14 -19 -15 -19 -59 4 -25 13 -55 33 -65 45 -23 26 -112 154
-112 161 0 3 -15 30 -34 59 -18 29 -37 67 -41 85 -7 34 -65 81 -100 81 -11 0
-34 -13 -52 -28 -17 -15 -39 -32 -50 -38 -17 -11 -17 -13 4 -35 12 -13 26 -35
32 -49 6 -14 24 -48 40 -75 16 -28 32 -65 36 -83 3 -18 14 -38 23 -44 20 -15
48 -56 75 -111 11 -21 58 -77 106 -125 70 -72 95 -90 134 -101 68 -19 119 -17
164 6 53 28 79 69 82 134 1 29 6 58 12 65 5 6 6 14 2 17 -3 4 -1 12 4 19 15
19 24 65 29 143 5 83 36 252 53 282 6 12 11 35 11 52 0 19 11 42 29 64 l30 33
-24 30 c-29 35 -30 42 -8 66 20 22 15 27 -34 39 -57 13 -75 11 -109 -13z"/>
<path d="M17745 7520 c-33 -5 -82 -20 -109 -34 -27 -14 -58 -26 -68 -26 -10 0
-18 -5 -18 -11 0 -6 -24 -36 -53 -67 -29 -31 -72 -86 -96 -121 -38 -55 -45
-72 -48 -125 -2 -33 2 -84 7 -112 9 -44 20 -60 79 -118 38 -36 74 -66 80 -66
6 0 11 -4 11 -10 0 -5 7 -10 15 -10 17 0 20 -26 4 -35 -21 -14 -27 -49 -12
-78 15 -29 100 -77 137 -77 38 0 102 25 151 59 28 19 52 37 55 40 3 4 18 17
34 29 16 12 34 31 40 41 6 10 26 40 45 67 50 69 79 158 86 259 2 28 4 50 5 50
1 0 4 22 6 49 7 78 -30 140 -133 226 -46 39 -92 70 -101 70 -9 0 -26 2 -37 4
-11 2 -47 0 -80 -4z m113 -216 c12 -4 22 -11 22 -18 0 -6 11 -21 25 -34 19
-19 23 -31 20 -60 -8 -63 -22 -115 -48 -175 -28 -66 -56 -100 -98 -117 -16 -7
-26 -16 -23 -21 3 -5 1 -9 -5 -9 -5 0 -16 -3 -25 -6 -12 -5 -15 1 -14 29 1 23
-6 42 -20 58 -12 12 -22 26 -22 29 0 3 -20 14 -44 24 -25 10 -55 29 -67 42
l-22 24 38 56 c21 31 50 63 64 72 14 9 45 31 68 49 74 59 103 70 151 57z"/>
<path d="M16761 7342 c-7 -17 -20 -33 -28 -36 -26 -10 -127 -79 -149 -102 -11
-12 -40 -35 -64 -53 -24 -17 -53 -51 -67 -78 -14 -27 -33 -57 -43 -68 -9 -11
-23 -42 -30 -70 -7 -27 -18 -59 -23 -70 -19 -37 -25 -113 -14 -185 8 -49 53
-150 74 -163 7 -4 13 -14 13 -21 0 -24 65 -75 112 -87 67 -18 162 -1 220 39
91 62 137 123 186 245 7 15 19 27 29 27 42 0 92 -107 144 -308 11 -42 27 -88
34 -102 8 -14 17 -42 20 -62 3 -21 11 -38 17 -38 6 0 9 -3 6 -6 -3 -3 1 -33 9
-67 8 -34 15 -103 16 -154 l1 -92 -45 -57 c-48 -62 -113 -104 -199 -130 -69
-20 -142 -8 -208 36 -25 16 -49 30 -53 30 -5 0 -22 20 -39 45 -17 25 -41 56
-53 69 -12 13 -30 50 -41 82 -10 33 -27 83 -38 112 -19 48 -23 52 -53 52 -47
0 -54 -15 -50 -105 6 -114 44 -212 110 -285 13 -14 26 -35 30 -48 3 -12 40
-51 82 -86 63 -53 91 -69 168 -95 l92 -32 88 16 c48 8 101 15 117 15 22 0 42
13 83 57 30 31 55 61 55 66 0 9 34 59 86 125 21 27 29 56 39 147 7 61 -17 236
-40 290 -9 21 -19 52 -21 68 -2 16 -10 39 -17 51 -8 11 -16 32 -19 46 -3 14
-20 65 -38 114 -18 49 -32 104 -32 122 0 18 -6 38 -13 44 -8 6 -17 25 -20 42
-4 17 -16 45 -26 63 -11 18 -22 43 -24 54 -14 74 -57 166 -163 354 -17 29 -21
50 -18 96 2 50 -1 64 -19 87 -21 26 -30 29 -97 32 l-75 4 -12 -30z m57 -251
c11 -6 8 -14 -13 -35 -25 -25 -26 -28 -11 -45 9 -10 16 -24 16 -33 0 -8 9 -23
20 -33 21 -19 27 -60 10 -70 -5 -3 -10 -18 -10 -33 0 -27 -44 -126 -67 -150
-7 -7 -13 -20 -13 -28 0 -8 -6 -14 -13 -14 -8 0 -22 -9 -32 -20 -21 -23 -71
-50 -93 -50 -30 0 -81 33 -90 58 -6 15 -16 51 -23 81 -12 54 -12 55 19 82 20
18 32 40 37 69 9 54 50 100 129 144 36 20 67 46 74 60 12 26 36 33 60 17z"/>
<path d="M14915 7062 c-27 -1 -65 -9 -82 -18 -33 -15 -83 -71 -83 -92 0 -7 -4
-12 -9 -12 -10 0 -41 -72 -41 -98 -1 -9 -11 -39 -24 -66 -12 -27 -21 -61 -20
-75 3 -26 -13 -91 -25 -101 -11 -9 -31 -76 -31 -106 0 -21 8 -36 28 -51 16
-12 32 -38 40 -66 8 -25 20 -51 28 -58 8 -6 12 -15 9 -19 -3 -5 11 -28 31 -52
52 -62 105 -81 214 -75 118 6 166 18 251 59 41 20 85 39 99 43 14 4 48 18 76
31 49 22 51 24 45 56 -12 64 -23 73 -88 71 -38 -1 -88 -12 -139 -31 -144 -55
-181 -62 -264 -51 -74 9 -100 24 -100 56 0 8 -7 27 -15 43 -14 28 -14 30 7 42
35 20 118 49 173 60 59 12 175 63 175 77 0 5 12 13 27 18 26 9 27 12 29 84 1
41 -2 79 -5 84 -4 6 -8 26 -10 45 -2 28 -16 49 -69 103 -37 37 -74 67 -83 67
-10 0 -19 5 -21 11 -5 14 -64 25 -123 21z m93 -204 c23 -18 61 -62 62 -69 0
-4 -13 -21 -30 -39 -22 -23 -45 -35 -87 -45 -32 -7 -73 -19 -90 -26 -36 -14
-52 -7 -57 27 -4 22 16 65 38 83 9 8 16 23 16 35 0 20 24 43 60 57 18 7 66 -5
88 -23z"/>
<path d="M13504 7007 c-60 -34 -71 -111 -22 -152 43 -36 119 -36 154 2 22 24
23 28 9 43 -8 9 -15 22 -15 28 0 18 -62 78 -86 84 -12 3 -30 1 -40 -5z"/>
<path d="M14280 6880 c-54 -17 -131 -63 -151 -89 -12 -16 -32 -35 -45 -42 -13
-7 -24 -17 -24 -23 0 -7 -9 -19 -20 -28 -19 -17 -23 -29 -35 -99 -3 -21 -15
-49 -26 -63 -17 -22 -20 -35 -15 -74 4 -26 9 -80 12 -121 3 -41 14 -94 25
-117 10 -24 19 -51 19 -62 0 -10 13 -36 30 -58 16 -21 30 -47 30 -56 0 -41
147 -64 171 -27 15 22 1 145 -20 186 -10 21 -31 51 -46 66 -22 21 -28 39 -32
84 -3 32 -11 64 -18 72 -12 12 -11 16 8 25 18 10 78 109 75 125 -4 20 18 62
38 76 14 9 30 27 36 40 8 17 22 26 47 30 123 19 137 24 155 62 17 36 17 36 -8
60 -14 13 -37 28 -51 33 -31 12 -119 12 -155 0z"/>
<path d="M12955 6525 c-38 -13 -75 -24 -81 -25 -16 0 -105 -87 -122 -118 -16
-30 -18 -39 -27 -169 -9 -130 10 -163 93 -163 20 0 43 -4 50 -8 12 -8 11 -59
-1 -79 -3 -5 7 -26 24 -46 16 -19 32 -50 36 -67 6 -30 5 -32 -18 -25 -26 8
-264 244 -319 318 -69 91 -199 120 -282 61 -24 -16 -48 -40 -55 -53 -6 -13
-17 -27 -23 -31 -7 -4 -14 -22 -16 -40 -7 -63 -40 -78 -69 -32 -10 15 -60 68
-111 118 -72 71 -101 93 -130 98 -34 7 -40 4 -80 -39 -24 -25 -44 -53 -44 -61
0 -8 -16 -22 -35 -30 -20 -8 -38 -21 -41 -28 -3 -8 -19 -20 -35 -26 -28 -12
-33 -20 -30 -47 1 -6 -10 -28 -24 -49 -14 -20 -25 -40 -25 -45 0 -4 16 -20 34
-34 19 -15 40 -41 46 -59 6 -18 22 -44 35 -56 14 -13 25 -30 25 -37 0 -8 9
-33 20 -55 11 -23 20 -54 20 -68 0 -14 4 -30 9 -35 4 -6 13 -25 19 -42 16 -48
63 -102 100 -114 94 -31 127 29 88 161 -10 36 -20 79 -21 96 -1 16 -9 41 -18
55 -31 47 -50 190 -27 204 6 4 8 10 5 14 -10 17 20 41 43 35 12 -4 22 -10 22
-14 0 -5 16 -27 35 -50 19 -23 35 -49 35 -58 0 -10 17 -37 38 -61 33 -38 43
-44 78 -44 41 0 114 28 114 44 0 5 13 30 29 56 16 27 32 59 36 74 7 28 64 64
97 62 26 -2 123 -76 145 -111 9 -15 42 -54 73 -87 31 -33 71 -79 89 -102 45
-56 97 -77 173 -68 51 6 59 5 64 -12 3 -10 12 -32 20 -50 8 -17 16 -52 19 -77
2 -24 11 -60 19 -80 8 -19 12 -36 10 -39 -3 -3 2 -21 10 -41 8 -20 15 -40 16
-44 0 -4 2 -14 5 -22 3 -8 9 -44 15 -80 15 -88 26 -147 39 -195 14 -52 3 -162
-19 -200 -24 -41 -10 -83 36 -112 59 -38 80 -39 108 -6 37 43 49 93 32 134 -7
19 -14 68 -15 109 -1 81 -4 103 -28 225 -9 44 -17 87 -17 95 -1 9 -5 21 -9 27
-10 16 -28 103 -28 131 1 13 -4 32 -9 42 -6 11 -17 54 -26 97 -9 43 -25 92
-36 110 -14 24 -17 37 -9 51 6 10 6 23 2 28 -5 5 -14 27 -21 49 -7 22 -17 46
-23 53 -14 17 -5 24 86 60 42 17 91 41 109 54 53 39 138 130 138 147 0 10 6
26 14 37 8 10 12 29 9 42 -3 14 1 30 11 41 18 20 21 11 -33 133 -12 26 -21 50
-21 52 0 16 -82 80 -137 107 -58 29 -80 34 -153 36 -69 2 -98 -2 -155 -22z
m287 -202 c16 -15 28 -34 26 -43 -1 -8 1 -28 6 -44 7 -27 1 -35 -61 -98 -37
-38 -80 -76 -95 -84 -31 -16 -78 -9 -78 11 0 7 -9 23 -19 36 -14 19 -18 35
-14 68 4 34 0 50 -16 72 -26 35 -26 38 4 72 30 34 82 48 160 42 47 -4 65 -11
87 -32z"/>
<path d="M13560 6426 c-11 -25 -20 -51 -20 -58 0 -8 -5 -19 -10 -24 -10 -10 2
-50 32 -111 8 -17 8 -26 -1 -37 -8 -10 -9 -16 -2 -21 25 -15 88 -186 75 -206
-7 -11 21 -28 69 -43 45 -13 47 -13 72 10 14 13 33 24 41 24 23 0 9 49 -36
128 -22 38 -40 76 -40 84 0 7 -5 19 -11 25 -7 7 -13 22 -15 35 -2 13 -8 47
-13 76 -10 50 -8 82 4 101 8 15 -22 39 -63 51 -56 15 -60 13 -82 -34z"/>
<path d="M15788 6447 c-17 -14 -30 -38 -36 -68 -9 -44 -7 -50 25 -98 26 -39
41 -51 61 -52 69 -3 125 9 118 26 -2 7 7 25 22 40 30 30 31 27 -41 124 -36 47
-42 51 -80 51 -29 0 -50 -7 -69 -23z"/>
<path d="M9760 6117 c-3 -3 -64 -8 -136 -11 -103 -5 -146 -12 -200 -32 -38
-14 -82 -30 -99 -36 -16 -6 -39 -19 -51 -29 -11 -11 -25 -19 -31 -19 -6 0 -21
-11 -34 -25 -13 -13 -29 -25 -35 -25 -16 0 -94 -70 -94 -84 0 -7 -12 -23 -26
-37 -15 -13 -46 -54 -70 -90 -24 -36 -54 -77 -68 -92 -13 -14 -21 -28 -18 -32
3 -3 -4 -19 -17 -35 -12 -17 -19 -35 -16 -40 3 -5 -11 -25 -31 -44 -29 -28
-35 -40 -30 -60 3 -13 2 -68 -4 -121 -7 -64 -7 -103 0 -115 6 -12 6 -21 1 -25
-16 -9 -2 -52 41 -125 4 -8 15 -28 23 -45 22 -46 124 -140 185 -170 30 -15 69
-37 85 -49 41 -31 199 -78 260 -78 28 0 70 -7 95 -15 38 -13 60 -14 145 -4
114 14 164 30 214 70 21 16 53 31 76 33 84 11 161 32 181 49 11 11 25 19 31
19 34 0 190 137 195 172 2 18 -6 27 -46 47 l-48 24 -54 -19 c-30 -10 -54 -22
-54 -27 0 -5 -9 -22 -20 -37 -16 -22 -31 -30 -68 -35 -64 -9 -292 -49 -427
-75 -68 -13 -127 -19 -155 -15 -25 3 -75 9 -111 14 -37 5 -86 18 -110 29 -24
11 -73 30 -108 43 -40 14 -66 29 -68 40 -3 10 -16 25 -28 33 -13 9 -35 38 -49
66 -32 63 -30 119 7 184 16 29 27 64 27 86 0 31 8 46 45 83 25 26 45 51 45 57
0 6 44 56 98 111 53 55 106 115 117 134 11 19 24 35 30 35 5 0 57 23 116 50
l106 51 125 2 c113 2 129 0 175 -22 43 -20 51 -28 51 -50 0 -14 2 -45 6 -67 5
-26 3 -44 -3 -48 -6 -4 -16 -26 -22 -49 -6 -23 -22 -55 -36 -71 -13 -16 -27
-42 -30 -57 -4 -19 -12 -29 -23 -29 -31 0 -49 -11 -43 -26 8 -21 -16 -44 -47
-44 -16 0 -30 -7 -34 -15 -3 -9 -18 -15 -35 -15 -16 0 -37 -8 -47 -17 -9 -10
-59 -34 -111 -55 -103 -42 -164 -48 -214 -22 -27 13 -29 17 -17 33 7 10 27 37
43 61 45 65 95 112 150 142 28 16 57 32 65 37 8 4 36 18 62 29 36 16 49 28 54
49 4 16 12 34 17 41 8 11 0 23 -33 53 -43 39 -47 40 -95 33 -27 -3 -54 -12
-60 -19 -5 -8 -32 -23 -58 -36 -27 -12 -53 -32 -59 -43 -5 -12 -22 -27 -37
-34 -15 -6 -40 -31 -57 -53 -26 -38 -76 -97 -129 -153 -24 -25 -44 -80 -46
-121 0 -16 -4 -39 -8 -50 -32 -80 133 -174 305 -175 87 0 146 18 201 63 42 35
89 50 133 44 89 -12 188 82 277 265 18 37 33 73 33 81 0 7 7 22 15 33 8 10 15
31 15 46 0 15 5 30 10 33 6 3 10 17 10 29 0 13 7 40 15 60 24 56 14 148 -21
194 -41 56 -106 121 -134 136 -25 14 -171 32 -180 23z"/>
<path d="M10996 6079 c-50 -8 -154 -56 -191 -88 -11 -10 -32 -25 -47 -34 -35
-22 -97 -127 -108 -186 -5 -25 -19 -71 -31 -101 -27 -69 -30 -221 -5 -269 9
-16 16 -35 16 -40 0 -6 16 -35 35 -65 19 -30 35 -59 35 -65 0 -20 142 -160
173 -170 80 -25 271 -20 342 9 11 5 38 14 60 21 22 7 65 25 96 41 31 15 61 28
67 28 17 0 192 119 192 130 0 3 16 23 35 44 33 36 34 39 19 62 -10 14 -26 24
-40 24 -36 0 -163 -47 -204 -75 -23 -16 -50 -25 -74 -25 -29 0 -43 -6 -63 -30
-20 -24 -33 -30 -66 -30 -23 -1 -60 -7 -82 -15 -67 -25 -126 -28 -188 -12 -83
22 -121 51 -151 117 -14 30 -33 66 -43 79 l-17 24 64 -5 c57 -5 71 -2 116 22
29 16 78 34 110 40 32 7 70 19 84 28 25 16 31 21 110 91 24 22 57 45 72 52 15
6 28 18 28 25 0 8 18 33 40 56 40 43 54 76 46 113 -10 47 -45 120 -62 130 -10
5 -31 18 -45 27 -39 26 -167 58 -224 57 -27 -1 -72 -5 -99 -10z m234 -218 c0
-6 -9 -13 -20 -16 -11 -3 -20 -10 -20 -14 0 -8 -35 -26 -160 -84 -88 -41 -216
-70 -242 -56 -24 13 -23 21 7 47 14 13 23 27 20 33 -13 20 24 55 96 94 60 31
88 40 149 45 65 5 81 3 123 -17 26 -13 47 -27 47 -32z"/>
<path d="M5944 5692 c-17 -15 -34 -41 -37 -58 -5 -28 23 -153 51 -224 5 -14
12 -45 16 -69 3 -24 13 -57 21 -74 8 -16 15 -35 15 -41 0 -6 11 -32 25 -57 13
-26 22 -49 19 -51 -5 -5 46 -134 71 -180 8 -14 15 -32 15 -38 0 -7 8 -19 18
-26 22 -17 5 -48 -29 -52 -132 -14 -279 -73 -279 -111 0 -6 -4 -11 -10 -11
-27 0 -79 -195 -75 -285 4 -112 15 -146 66 -215 27 -36 63 -74 81 -86 93 -59
85 -57 198 -52 83 4 115 10 150 28 54 27 143 89 149 103 2 5 18 26 35 46 17
20 40 52 51 72 10 20 35 61 56 90 21 30 52 82 69 117 25 50 35 62 54 62 30 0
54 -23 62 -58 27 -117 84 -205 159 -245 35 -19 55 -22 157 -21 99 1 121 5 145
22 15 10 48 29 72 41 23 13 72 49 107 82 35 32 67 59 71 59 5 0 29 20 55 45
27 25 52 45 57 45 5 0 18 20 30 45 12 25 27 45 34 45 20 0 73 61 85 97 20 59
-29 63 -140 12 -16 -7 -28 -16 -28 -20 0 -5 -17 -18 -37 -29 -48 -26 -102 -65
-126 -91 -10 -11 -35 -30 -55 -43 -20 -13 -55 -41 -77 -61 -71 -67 -125 -82
-266 -76 -32 1 -82 72 -77 109 3 22 11 27 53 37 28 6 59 16 70 22 11 6 37 13
58 16 20 3 49 15 64 26 14 12 32 21 39 21 18 0 131 88 138 107 3 8 2 22 -3 30
-5 10 -5 30 1 51 8 29 6 37 -13 58 -12 13 -23 33 -24 43 -2 29 -110 109 -169
125 -114 32 -141 34 -169 12 -14 -12 -39 -31 -54 -43 -73 -57 -103 -87 -103
-100 0 -7 -9 -31 -20 -53 -11 -22 -20 -50 -20 -62 0 -25 -27 -100 -57 -160
-18 -36 -37 -48 -80 -48 -13 0 -32 -8 -44 -17 -46 -40 -101 -100 -115 -126
-38 -72 -202 -210 -284 -240 -97 -36 -180 -7 -224 77 -14 28 -26 61 -26 73 0
12 -5 33 -11 47 -9 19 -8 34 7 73 21 55 23 57 84 100 56 40 86 47 156 38 44
-5 61 -13 89 -41 19 -19 39 -34 46 -34 6 0 25 -7 43 -15 46 -22 108 -9 113 24
2 14 8 30 14 37 14 17 -13 57 -57 85 -23 14 -34 28 -34 44 0 13 -15 44 -34 69
-19 24 -38 62 -42 82 -4 21 -22 64 -40 95 -19 32 -34 63 -34 71 0 7 -18 57
-40 111 -22 53 -40 105 -40 115 0 10 -4 22 -9 28 -9 9 -37 103 -46 154 -2 14
-11 48 -19 75 -9 28 -16 60 -16 73 0 35 -38 102 -58 102 -9 -1 -31 -13 -48
-28z m1181 -812 l25 -24 -32 -27 c-20 -16 -55 -32 -87 -38 -30 -6 -62 -18 -72
-27 -19 -17 -69 -12 -69 7 0 6 12 35 26 65 20 42 32 56 57 64 52 15 124 6 152
-20z"/>
<path d="M8515 5616 c-10 -6 -37 -22 -60 -36 -22 -13 -57 -32 -77 -42 -21 -9
-38 -22 -38 -27 0 -6 -26 -24 -59 -40 -32 -16 -72 -41 -88 -55 -17 -14 -34
-26 -38 -26 -28 0 -209 -155 -233 -200 -7 -14 -19 -32 -26 -40 -8 -8 -21 -30
-30 -47 -15 -30 -21 -33 -64 -33 -45 -1 -48 -3 -73 -44 -23 -38 -24 -45 -12
-62 7 -10 19 -37 25 -59 7 -22 27 -57 46 -79 19 -21 43 -59 54 -85 11 -25 35
-78 54 -117 19 -39 34 -76 34 -82 0 -23 52 -35 90 -21 56 19 79 47 69 82 -5
16 -15 37 -23 46 -34 38 -48 97 -53 222 -6 138 1 162 52 189 14 7 25 18 25 24
1 17 82 118 105 130 11 6 48 32 82 58 75 58 149 103 183 113 14 4 39 18 57 31
17 13 42 26 55 28 13 2 22 9 20 16 -1 6 7 23 18 37 20 25 28 73 12 73 -5 0
-17 8 -28 19 -35 32 -57 40 -79 27z"/>
<path d="M3013 5082 c-7 -4 -21 -33 -32 -64 -18 -52 -18 -61 -5 -104 8 -26 23
-63 35 -82 11 -19 18 -41 15 -48 -7 -19 29 -109 115 -290 32 -67 48 -137 39
-173 -4 -17 -28 -35 -90 -68 -47 -24 -102 -61 -122 -81 -20 -20 -52 -51 -70
-69 -64 -62 -85 -92 -129 -183 -17 -36 -37 -72 -44 -80 -16 -18 -35 -115 -35
-176 0 -31 7 -51 25 -72 14 -17 25 -34 25 -39 0 -14 51 -58 86 -76 54 -27 117
-47 154 -47 64 0 235 22 265 35 17 7 50 18 75 24 92 23 195 80 232 127 10 12
42 38 72 58 31 20 57 40 60 45 3 5 -1 22 -9 39 -20 38 -55 48 -98 25 -17 -9
-34 -17 -38 -18 -3 0 -34 -14 -70 -32 -106 -52 -157 -73 -181 -73 -13 0 -75
-11 -138 -24 -157 -32 -256 -19 -280 37 -6 12 -15 29 -21 38 -10 13 -6 28 15
73 28 59 137 193 165 203 9 3 27 16 41 28 25 23 161 85 185 85 23 0 55 -65 66
-132 11 -66 36 -138 54 -150 33 -24 145 7 145 39 0 11 5 24 11 30 8 8 0 24
-27 59 -20 27 -41 59 -47 72 -6 12 -14 22 -19 22 -4 0 -8 33 -8 74 0 86 -18
146 -62 199 -17 22 -41 67 -53 100 -33 91 -76 191 -86 201 -5 6 -9 19 -9 30 0
12 -14 50 -30 85 -18 37 -28 72 -25 82 4 11 -5 42 -19 72 -15 29 -28 75 -31
102 -3 28 -13 61 -24 75 -19 26 -57 36 -78 22z"/>
<path d="M5133 4717 c-21 -18 -69 -57 -108 -87 -38 -30 -73 -59 -77 -65 -4 -6
-32 -37 -62 -70 -31 -32 -56 -61 -56 -65 0 -3 -18 -26 -41 -50 -84 -93 -119
-183 -119 -313 0 -61 3 -73 36 -122 56 -84 113 -110 233 -106 98 3 162 43 251
157 8 10 23 46 34 79 10 33 25 79 34 102 8 23 12 48 10 55 -3 7 -2 23 3 35 6
16 13 21 26 16 18 -6 87 -61 147 -116 17 -15 38 -30 48 -33 9 -3 19 -13 23
-22 6 -21 89 -87 128 -101 16 -6 54 -11 85 -11 51 0 59 3 84 33 28 32 37 67
18 67 -6 0 -23 9 -38 20 -15 11 -52 24 -82 30 -38 7 -60 17 -70 32 -8 12 -35
40 -60 62 -25 22 -85 82 -135 132 -49 50 -100 96 -113 103 -13 7 -30 27 -37
44 -12 28 -11 34 12 64 l26 34 -20 22 c-11 12 -32 41 -47 65 -23 36 -31 42
-61 42 -25 0 -45 -9 -72 -33z m-27 -364 c18 -29 -3 -158 -39 -243 l-31 -76
-55 -17 c-76 -24 -93 -22 -126 13 -27 28 -28 33 -17 63 7 19 12 43 12 55 0 26
126 155 190 194 54 33 53 32 66 11z"/>
<path d="M4308 4590 c-22 -12 -38 -28 -38 -38 0 -10 -7 -27 -15 -39 -8 -12
-16 -30 -18 -40 -1 -10 -12 -35 -24 -56 -16 -26 -20 -46 -16 -71 3 -19 0 -58
-7 -87 -7 -28 -14 -86 -16 -128 -2 -42 -6 -99 -10 -127 -6 -46 -8 -50 -29 -47
-35 7 -110 129 -207 338 -23 50 -48 98 -56 108 -24 27 -66 21 -96 -14 -34 -40
-33 -76 4 -146 17 -31 30 -63 30 -73 0 -9 14 -26 30 -38 18 -14 30 -32 30 -46
0 -13 8 -34 18 -47 10 -13 40 -59 66 -102 62 -103 155 -193 207 -202 63 -11
97 2 125 46 38 61 43 80 58 227 8 75 18 162 21 192 8 64 9 89 6 150 -4 72 -4
73 49 127 28 28 50 58 50 67 0 23 -36 56 -62 56 -13 0 -32 2 -43 5 -11 3 -37
-4 -57 -15z"/>
<path d="M20121 3180 c-24 -5 -50 -18 -57 -28 -7 -11 -31 -22 -54 -26 -22 -3
-40 -10 -40 -14 0 -4 -15 -16 -34 -26 -35 -19 -96 -86 -96 -106 0 -6 -11 -15
-24 -21 -28 -13 -39 -44 -25 -70 7 -14 5 -21 -11 -29 -23 -12 -20 -42 6 -68 8
-7 14 -19 15 -25 4 -37 1 -96 -5 -105 -13 -21 17 -108 55 -158 61 -79 65 -102
35 -167 -22 -46 -24 -58 -15 -86 9 -26 8 -35 -5 -50 -10 -11 -16 -36 -16 -68
0 -27 -6 -63 -14 -79 -8 -16 -17 -73 -21 -126 -6 -83 -10 -98 -26 -103 -36
-12 -49 -35 -49 -85 0 -27 5 -52 11 -55 16 -10 28 -49 17 -56 -14 -9 8 -56 29
-63 35 -10 198 -10 218 1 11 6 72 13 137 17 l116 7 22 -31 c26 -36 71 -50 122
-36 49 13 56 37 38 131 -14 72 -15 98 -5 220 3 39 5 86 4 105 0 19 0 118 1
220 1 177 2 187 25 222 13 20 32 39 42 42 23 8 76 122 93 199 8 32 17 60 21
63 5 3 4 16 -1 30 -6 14 -7 31 -3 37 4 7 13 26 19 44 10 29 9 34 -12 48 -26
17 -46 51 -69 119 -9 25 -29 60 -45 78 -17 18 -30 36 -30 40 0 37 -266 79
-369 58z"/>
</g>
</svg>
