<?xml version="1.0" standalone="no"?>
<!DOCTYPE svg PUBLIC "-//W3C//DTD SVG 20010904//EN"
 "http://www.w3.org/TR/2001/REC-SVG-20010904/DTD/svg10.dtd">
<svg version="1.0" xmlns="http://www.w3.org/2000/svg"
 width="1435.125070pt" height="400.000000pt" viewBox="0 0 1435.125070 400.000000"
 preserveAspectRatio="xMidYMid meet">
<metadata>
Created by potrace 1.15, written by Peter Selinger 2001-2017
</metadata>
<g transform="translate(-33.111661,420.539061) scale(0.070083,-0.070083)"
fill="#444444" stroke="none">
<path d="M14045 5980 c-16 -17 -17 -36 -14 -167 l4 -148 -35 -1 c-63 0 -99
-15 -131 -51 -27 -31 -30 -41 -25 -74 10 -62 27 -89 70 -111 62 -32 114 -28
201 17 53 27 75 43 75 56 0 31 14 22 39 -26 13 -26 37 -55 52 -66 26 -18 31
-19 58 -5 42 22 67 58 92 134 12 37 30 79 40 94 11 14 19 33 19 41 0 18 -39
49 -52 41 -12 -8 -44 -73 -67 -139 -21 -61 -45 -95 -67 -95 -17 0 -42 81 -50
162 -7 71 -19 86 -51 63 -15 -11 -18 -25 -15 -90 3 -91 -9 -95 -50 -18 -19 36
-28 70 -31 120 -2 39 -6 74 -9 79 -3 5 -2 44 3 88 10 105 -12 144 -56 96z m2
-398 c6 -4 13 -25 15 -47 3 -38 2 -40 -39 -54 -37 -13 -45 -13 -69 -1 -15 8
-33 25 -42 38 -14 21 -13 25 8 47 18 20 33 25 69 25 25 0 51 -4 58 -8z"/>
<path d="M14985 5956 c-15 -11 -16 -24 -11 -97 3 -46 8 -101 12 -121 6 -35 5
-37 -22 -43 -87 -19 -114 -49 -114 -127 0 -48 22 -89 60 -112 39 -23 68 -20
112 10 79 55 51 114 -31 67 -38 -22 -66 -9 -66 32 0 45 26 53 81 27 44 -22 47
-22 65 -6 21 19 24 45 8 61 -17 17 -38 145 -38 230 -1 60 -4 74 -20 82 -13 7
-23 6 -36 -3z"/>
<path d="M1261 5836 c-45 -40 -53 -44 -90 -39 -37 5 -46 1 -133 -65 -136 -103
-183 -162 -194 -245 -3 -23 -9 -72 -13 -109 -7 -47 -16 -77 -35 -101 -14 -19
-26 -37 -26 -40 0 -4 -15 -28 -34 -54 -41 -58 -86 -143 -86 -162 0 -7 -16 -48
-35 -91 -87 -194 -152 -502 -141 -675 12 -198 17 -209 96 -209 44 0 53 5 105
52 31 29 61 52 66 52 5 0 36 25 69 55 l60 56 90 -3 89 -3 21 -37 21 -38 -30
-44 c-26 -38 -31 -54 -31 -104 0 -75 11 -85 79 -76 39 5 58 14 84 40 l34 35
170 -3 c129 -2 175 -7 193 -18 17 -10 52 -15 109 -15 81 0 86 1 100 26 19 35
9 69 -39 124 -22 25 -40 54 -40 64 0 9 9 45 21 79 17 50 25 62 42 62 34 0 117
-25 177 -52 30 -14 72 -31 92 -37 21 -7 40 -17 43 -22 4 -5 18 -6 32 -3 28 7
43 -7 43 -43 0 -31 48 -66 82 -59 15 3 39 -1 53 -8 54 -28 95 3 95 73 0 43
-22 56 -60 36 -46 -24 -80 -13 -80 25 0 16 -4 31 -9 34 -13 8 -45 79 -71 155
-11 36 -26 74 -33 85 -18 33 -46 117 -57 168 -13 64 -100 245 -144 297 -20 23
-36 46 -36 49 0 9 -79 91 -119 124 -21 17 -54 30 -94 37 -33 6 -65 15 -71 21
-27 27 -111 5 -189 -48 -63 -44 -88 -43 -198 11 l-95 48 -60 -26 c-173 -75
-256 -141 -289 -230 -10 -27 -34 -71 -53 -97 -25 -36 -34 -60 -36 -95 -3 -46
-8 -65 -41 -143 -8 -19 -20 -82 -25 -140 -14 -146 -28 -260 -36 -293 -10 -41
-24 -43 -24 -2 0 20 -6 48 -14 63 -15 29 -14 70 5 227 15 125 77 323 134 430
24 44 46 94 48 112 6 41 13 51 68 109 79 84 116 112 176 130 69 21 217 20 269
-2 52 -22 87 -17 129 16 29 23 48 30 82 30 59 0 183 -43 258 -89 33 -20 67
-41 76 -46 77 -47 123 -93 155 -154 20 -36 44 -82 54 -101 11 -19 36 -71 57
-115 20 -44 47 -93 59 -110 26 -35 52 -96 59 -137 3 -16 26 -80 50 -141 25
-61 45 -116 45 -122 0 -20 49 -60 60 -49 18 18 13 58 -19 149 -17 49 -31 100
-31 112 0 17 -62 148 -147 308 -25 47 -51 112 -58 145 -4 19 -16 47 -26 62
-11 14 -19 29 -19 32 0 3 -19 32 -43 63 -24 32 -44 67 -44 78 -2 41 -35 186
-49 213 -7 15 -14 32 -14 38 0 42 -93 159 -150 190 -19 11 -37 21 -40 24 -19
21 -73 51 -99 54 -16 2 -46 13 -66 25 -20 12 -53 21 -75 21 -36 0 -41 4 -60
40 -38 74 -79 78 -149 16z m-167 -721 c-10 -8 -24 -15 -30 -15 -6 0 -28 -11
-48 -25 -43 -29 -47 -30 -39 -9 3 9 29 27 57 40 60 27 90 32 60 9z m311 -112
c-4 -20 -15 -48 -26 -61 l-19 -25 0 43 c0 26 7 51 17 62 26 29 36 22 28 -19z
m-18 -230 c-12 -13 -15 -11 -20 16 -4 17 -1 43 5 59 l11 27 9 -44 c8 -34 7
-47 -5 -58z m-426 46 c28 -20 47 -23 148 -25 91 -3 120 0 139 12 13 9 26 14
28 11 4 -4 14 -195 15 -297 0 -36 -92 -274 -116 -299 -18 -19 -27 -11 -59 56
-15 32 -34 70 -41 86 -11 21 -12 33 -3 52 13 30 37 37 98 32 62 -5 102 16 98
51 -3 26 -6 27 -68 29 -211 8 -187 2 -241 57 -47 47 -50 53 -53 110 -2 34 -11
81 -20 105 -9 24 -16 47 -16 52 0 12 57 -7 91 -32z m582 17 c103 -46 172 -56
227 -32 18 7 42 11 52 8 18 -4 20 -12 16 -81 -3 -69 -6 -81 -39 -126 -34 -47
-38 -50 -80 -49 -80 1 -140 8 -145 16 -3 5 -21 6 -39 2 -30 -5 -35 -3 -40 17
-7 33 -13 247 -7 254 8 8 22 6 55 -9z m118 -357 c63 1 69 0 69 -19 0 -23 -78
-160 -91 -160 -10 0 -69 111 -81 150 -8 25 7 44 25 33 5 -3 40 -5 78 -4z m427
-81 c15 -15 16 -68 1 -68 -24 0 -49 22 -49 44 0 36 24 48 48 24z m-568 -38
c10 -24 10 -36 0 -61 -15 -36 -27 -24 -30 31 -4 70 8 82 30 30z"/>
<path d="M13145 5864 c-13 -13 -15 -28 -10 -63 10 -77 13 -141 8 -161 -3 -11
-28 -30 -59 -44 -60 -27 -94 -72 -94 -122 0 -27 -5 -32 -47 -47 -27 -9 -54
-17 -60 -17 -24 0 -13 25 21 48 44 30 71 81 62 117 -11 44 -59 85 -98 85 -111
0 -153 -175 -65 -267 59 -63 128 -65 189 -6 25 24 29 25 45 11 44 -39 116 -29
171 22 33 32 36 38 26 64 -9 23 -38 20 -72 -9 -30 -25 -48 -30 -76 -19 -48 19
17 84 84 84 51 0 63 12 57 51 -3 19 -10 68 -17 109 -6 41 -9 92 -6 114 10 58
-23 86 -59 50z m-245 -290 c0 -17 -55 -74 -72 -74 -16 0 0 63 19 78 24 17 53
15 53 -4z"/>
<path d="M9214 5862 c-6 -4 -30 -72 -54 -151 -27 -88 -53 -155 -68 -173 -13
-16 -21 -35 -18 -44 3 -8 -4 -42 -15 -74 -22 -65 -19 -95 12 -103 22 -6 42 19
53 66 4 15 15 36 25 46 15 15 26 16 82 8 35 -5 71 -12 79 -16 8 -5 24 -32 35
-61 22 -57 42 -77 70 -66 21 8 19 21 -25 136 -44 117 -65 187 -96 315 -28 120
-43 142 -80 117z m55 -266 c25 -100 21 -108 -41 -88 -27 8 -48 19 -48 24 0 10
40 139 47 151 10 17 22 -9 42 -87z"/>
<path d="M11395 5835 c-27 -8 -54 -14 -58 -15 -20 -1 -112 -100 -129 -140 -38
-88 -1 -192 86 -241 30 -17 63 -24 140 -29 103 -7 136 -1 136 25 0 22 -16 27
-119 35 -117 9 -172 36 -191 94 -31 94 101 217 214 201 56 -8 83 20 54 57 -19
24 -75 29 -133 13z"/>
<path d="M12544 5836 c-3 -8 2 -44 11 -81 22 -88 15 -115 -29 -115 -21 0 -36
-6 -40 -15 -8 -21 29 -55 59 -55 24 0 25 -3 25 -54 0 -59 -16 -83 -34 -51 -6
10 -31 41 -55 67 -32 35 -51 48 -72 48 -26 0 -27 2 -23 33 9 61 -7 66 -81 28
-135 -69 -176 -190 -80 -235 65 -31 129 -10 170 54 28 44 36 44 59 -1 6 -12
24 -31 39 -43 23 -17 31 -18 47 -8 15 9 25 9 45 0 38 -17 49 1 55 85 l5 72 44
5 c51 6 73 29 51 55 -7 8 -20 15 -29 14 -33 -4 -71 13 -76 35 -2 11 -9 48 -16
81 -6 33 -15 68 -20 78 -12 20 -47 23 -55 3z m-192 -303 c-32 -54 -74 -85 -93
-66 -6 6 -8 20 -4 32 7 24 82 81 107 81 15 0 14 -6 -10 -47z"/>
<path d="M5576 5783 c-39 -26 -42 -37 -24 -80 14 -33 22 -109 20 -178 -1 -16
0 -91 2 -165 1 -74 -1 -170 -5 -213 -8 -92 6 -375 21 -438 6 -24 14 -55 16
-69 3 -14 5 -167 5 -340 l-1 -316 31 -18 c18 -11 40 -16 54 -12 13 3 79 6 147
5 301 -2 632 -8 730 -14 73 -5 125 -3 165 6 66 15 235 13 303 -2 34 -8 69 -7
143 4 68 10 108 12 135 5 43 -10 632 -11 661 0 11 4 64 4 118 0 216 -16 290
-19 332 -11 59 11 256 -4 309 -23 38 -14 45 -14 66 -1 21 14 23 21 18 69 -3
29 -8 55 -13 58 -4 3 -7 88 -7 190 0 102 -3 230 -7 285 -4 55 -9 165 -10 245
-2 80 -8 208 -15 285 -6 77 -8 154 -5 172 3 17 1 34 -4 37 -5 3 -7 15 -4 27 3
11 -2 110 -12 220 -18 195 -19 201 -49 240 -31 40 -32 41 -81 34 -69 -9 -85
-8 -126 3 -27 7 -71 4 -165 -9 -71 -10 -158 -19 -194 -18 -36 0 -83 -5 -105
-10 -23 -6 -97 -8 -170 -5 -71 2 -240 6 -375 9 -218 3 -297 8 -365 21 -63 12
-567 27 -1002 29 l-502 3 -35 -25z m709 -67 c110 -3 319 -8 465 -11 146 -4
271 -9 279 -11 31 -10 388 -25 671 -28 291 -4 496 7 668 35 55 9 76 9 84 1 7
-7 39 -12 72 -12 85 0 135 -15 140 -43 7 -34 25 -303 32 -477 3 -85 8 -171 10
-190 2 -19 6 -109 9 -200 3 -91 7 -196 10 -235 7 -131 7 -300 -1 -413 l-7
-113 -311 6 c-171 4 -414 6 -541 4 -327 -2 -391 -2 -655 6 -249 7 -397 8 -600
4 -176 -4 -909 17 -918 25 -2 2 -5 136 -7 297 -2 232 -6 309 -19 363 -18 74
-20 173 -14 693 3 236 5 264 21 280 15 15 43 19 195 23 97 3 186 5 197 3 11
-1 110 -5 220 -7z"/>
<path d="M6102 5480 c-26 -25 -26 -24 -6 -55 43 -65 -4 -315 -59 -315 -18 0
-58 63 -68 107 -5 21 -9 79 -9 130 0 111 -11 146 -43 141 -22 -3 -22 -5 -22
-148 1 -137 2 -148 27 -195 29 -55 80 -95 121 -95 96 0 164 197 127 370 -18
82 -31 94 -68 60z"/>
<path d="M6350 5385 c-14 -7 -37 -18 -52 -24 -36 -14 -62 -54 -54 -86 4 -15
33 -44 74 -74 94 -70 103 -80 92 -101 -12 -22 -89 -45 -103 -31 -16 16 -54 13
-61 -5 -9 -22 -1 -31 40 -44 65 -22 165 2 207 48 17 19 17 22 3 51 -9 17 -50
56 -91 88 -97 75 -97 94 -2 107 58 9 62 30 14 64 -38 25 -34 25 -67 7z"/>
<path d="M7122 5349 c-71 -9 -124 -37 -149 -80 l-17 -29 -21 20 c-21 20 -22
20 -38 2 -16 -17 -16 -23 -1 -85 18 -72 40 -103 80 -113 36 -9 45 5 47 78 2
53 7 71 29 101 27 35 57 46 153 60 12 1 20 10 20 21 0 26 -30 33 -103 25z"/>
<path d="M6605 5303 c-30 -7 -66 -59 -72 -103 -11 -83 94 -190 186 -190 82 0
162 67 125 105 -20 20 -27 19 -50 -6 -10 -12 -31 -27 -46 -35 -23 -12 -31 -12
-63 2 -50 21 -43 41 30 82 104 58 117 85 62 126 -27 20 -124 31 -172 19z m90
-62 c5 -8 -11 -25 -25 -26 -3 -1 -20 -9 -37 -18 -29 -15 -33 -16 -33 -2 0 37
77 74 95 46z"/>
<path d="M8324 4975 c-15 -10 -16 -23 -11 -90 4 -42 12 -106 18 -140 14 -74 8
-95 -25 -95 -14 0 -38 -11 -53 -24 -24 -21 -28 -32 -28 -74 0 -58 19 -99 57
-118 57 -29 123 -12 172 46 34 41 33 75 -4 147 -44 84 -60 146 -60 232 0 42
-3 86 -6 98 -7 26 -37 35 -60 18z m47 -405 c22 -12 25 -42 7 -58 -7 -5 -26
-12 -43 -14 -26 -3 -30 0 -33 23 -3 26 19 59 39 59 6 0 19 -5 30 -10z"/>
<path d="M6065 4747 c-27 -13 -64 -36 -82 -51 -39 -33 -83 -119 -83 -163 0
-79 133 -160 238 -146 26 3 76 19 111 35 35 16 65 27 65 26 15 -26 24 -61 20
-73 -4 -9 0 -15 7 -16 8 0 25 -3 39 -5 34 -6 110 13 135 34 78 66 85 122 22
188 -36 39 -48 45 -84 46 -52 0 -103 -36 -128 -92 -12 -27 -23 -39 -33 -35 -7
3 -35 -4 -60 -16 -109 -48 -194 -43 -240 16 -27 34 -28 70 -2 113 23 38 104
92 137 92 42 0 95 28 91 47 -5 29 -91 29 -153 0z m425 -206 c18 -35 11 -68
-21 -95 -39 -33 -51 -33 -66 1 -20 41 -16 70 13 92 33 26 60 27 74 2z"/>
<path d="M7955 4670 c-11 -5 -37 -24 -58 -44 -37 -35 -37 -36 -31 -91 5 -39 3
-55 -5 -55 -6 0 -15 8 -18 18 -4 9 -15 26 -25 36 -10 11 -18 25 -18 31 0 7 -9
20 -20 30 -11 10 -20 26 -20 36 0 31 -43 34 -88 7 -59 -35 -120 -91 -131 -119
-15 -41 7 -94 44 -108 69 -24 106 -11 154 57 l24 34 19 -29 c10 -15 26 -43 35
-61 13 -27 19 -31 37 -25 11 4 39 8 61 8 l40 0 6 89 c6 86 14 105 46 106 27 0
65 -47 77 -95 7 -27 22 -55 33 -62 17 -12 23 -11 46 7 l27 21 -26 52 c-36 70
-62 103 -103 131 -43 28 -79 37 -106 26z m-265 -136 c0 -24 -56 -75 -74 -68
-23 9 -20 23 15 55 34 32 59 38 59 13z"/>
<path d="M6689 4645 c-26 -13 -49 -31 -53 -40 -5 -15 8 -140 20 -177 5 -17 49
-33 65 -22 6 3 10 23 8 43 -4 71 1 110 17 125 14 14 18 13 41 -14 39 -47 56
-53 98 -33 34 16 36 16 50 -3 8 -10 17 -30 20 -44 15 -68 20 -75 52 -78 25 -2
33 1 38 18 4 11 3 26 -2 33 -5 7 -15 31 -22 55 -7 24 -28 61 -48 83 -38 42
-69 49 -117 28 -21 -10 -30 -7 -69 20 -25 17 -47 31 -49 31 -2 -1 -24 -12 -49
-25z"/>
<path d="M7107 4633 c-8 -10 -22 -38 -31 -63 -13 -37 -14 -55 -4 -108 13 -68
32 -94 65 -86 24 7 35 47 22 82 -12 31 -12 92 1 92 5 0 16 -15 25 -34 10 -21
28 -39 45 -45 27 -9 32 -7 58 26 24 30 31 34 48 25 18 -10 61 -85 84 -148 12
-33 51 -61 69 -50 14 9 14 63 1 71 -11 7 -50 88 -50 105 0 6 -19 31 -41 55
-34 36 -48 45 -76 45 -18 0 -45 -7 -59 -16 -24 -16 -26 -16 -40 4 -15 21 -74
62 -91 62 -6 0 -17 -8 -26 -17z"/>
<path d="M18580 5779 c-126 -19 -439 -29 -714 -23 -160 3 -293 7 -296 9 -5 3
-171 -17 -280 -34 -53 -8 -240 -12 -690 -16 -316 -3 -305 -2 -335 -27 l-26
-23 16 -75 c8 -41 17 -95 19 -120 2 -25 9 -88 16 -140 12 -93 7 -269 -18 -650
-7 -118 -10 -410 -4 -490 2 -25 11 -97 19 -160 11 -83 14 -152 9 -250 -9 -196
-10 -197 -39 -220 -23 -18 -25 -24 -15 -44 23 -51 60 -66 201 -81 72 -8 168
-19 212 -25 115 -15 449 -16 510 -1 92 23 318 41 503 42 100 0 186 -2 191 -5
8 -5 168 6 286 21 101 12 229 8 263 -10 31 -15 65 -13 89 5 7 6 45 9 85 9 40
-1 102 -2 138 -2 44 0 70 -5 81 -15 16 -14 20 -14 49 1 27 14 51 16 134 11
153 -9 162 -10 179 -24 12 -11 24 -11 49 -3 18 6 85 15 148 21 63 6 123 13
133 16 9 3 33 0 53 -6 26 -9 38 -9 49 0 7 6 60 13 117 15 57 3 121 9 143 15
22 5 58 10 80 10 22 0 61 7 87 14 90 28 301 58 356 52 37 -4 61 -2 82 9 16 8
42 15 57 15 15 0 46 7 68 15 28 10 87 14 203 15 l162 0 0 26 c0 16 -11 37 -28
52 -39 37 -44 84 -31 320 14 241 14 251 4 487 -5 105 -9 402 -9 662 -1 410 -3
474 -16 488 -18 17 -38 19 -142 9 -65 -6 -81 -4 -104 11 -33 22 -70 23 -659
30 -236 2 -459 9 -495 14 -36 5 -130 9 -209 10 -79 0 -189 7 -245 15 -196 28
-356 37 -436 25z m137 -99 l52 1 3 -83 c2 -46 0 -130 -5 -188 -4 -58 -8 -334
-10 -615 -2 -431 1 -539 16 -695 23 -234 29 -506 12 -520 -23 -19 -275 -13
-295 7 -3 2 -6 38 -7 79 -1 40 -5 79 -8 85 -12 19 -4 642 10 724 3 17 7 181
10 365 7 516 15 823 21 829 8 9 107 19 129 14 11 -2 43 -4 72 -3z m-532 -25
c99 -1 195 -2 213 -3 l34 -2 -7 -555 c-3 -306 -8 -565 -11 -578 -10 -51 -25
-499 -23 -709 2 -156 -1 -231 -9 -241 -9 -10 -24 -11 -70 -3 -45 7 -79 5 -149
-7 -50 -10 -109 -17 -131 -17 -23 0 -43 -3 -45 -7 -3 -5 -49 -5 -104 -2 -150
10 -314 10 -416 0 -51 -6 -121 -12 -157 -15 -36 -3 -105 -12 -155 -21 -140
-23 -446 -10 -730 32 -60 9 -114 18 -119 21 -5 3 3 11 16 18 23 12 27 23 38
113 14 107 5 347 -19 531 -10 77 -7 295 7 490 34 469 41 643 27 660 -13 16
-35 152 -35 213 0 50 16 55 160 53 271 -3 836 14 910 29 60 11 126 13 335 7
143 -4 341 -7 440 -7z m885 -18 l95 -13 -1 -104 c-2 -264 -2 -706 0 -1293 1
-439 -1 -643 -9 -653 -9 -12 -32 -13 -145 -7 l-135 8 -1 120 c-1 187 -13 408
-31 550 -13 111 -14 187 -7 515 4 212 9 439 11 505 2 120 10 358 12 384 1 15
23 14 211 -12z m438 -23 c39 -3 73 -9 73 -13 13 -64 18 -875 8 -1091 -4 -80
-10 -210 -14 -290 -9 -211 -25 -519 -29 -566 -7 -77 -10 -80 -150 -92 -69 -7
-131 -9 -139 -6 -12 4 -13 145 -11 942 3 1174 2 1111 10 1123 5 9 95 7 252 -7z
m887 1 c21 -4 34 -13 42 -32 18 -43 24 -175 13 -287 -9 -98 -13 -176 -26 -586
-3 -107 -8 -198 -10 -202 -3 -4 -7 -173 -10 -375 -3 -202 -8 -384 -12 -403
l-8 -35 -90 -11 c-49 -6 -122 -19 -161 -28 -40 -9 -82 -16 -94 -16 -20 0 -21
3 -14 43 9 51 11 88 24 512 6 182 15 416 21 520 18 349 21 479 10 540 -14 79
-25 305 -16 338 6 24 11 26 69 30 66 4 212 -1 262 -8z m-420 -77 c0 -72 10
-209 24 -318 3 -30 3 -129 0 -220 -4 -91 -10 -271 -13 -400 -4 -129 -9 -255
-11 -280 -2 -25 -7 -151 -10 -280 -5 -231 -20 -394 -37 -416 -15 -20 -120 -35
-218 -32 -78 2 -94 6 -91 18 11 47 21 193 26 400 3 129 10 289 16 355 6 66 9
136 8 155 -2 19 1 127 5 240 13 313 13 459 3 647 -5 95 -7 179 -3 188 4 12 30
15 153 15 l148 0 0 -72z m722 42 c119 -14 113 -8 114 -108 1 -48 1 -91 0 -95
-6 -37 1 -630 10 -817 9 -184 9 -285 -1 -465 -7 -126 -13 -260 -12 -297 0 -67
0 -68 -26 -69 -57 -1 -158 -8 -187 -13 -16 -3 -50 -8 -75 -12 l-45 -6 3 343
c1 189 6 369 11 399 5 30 10 104 11 164 0 60 3 112 5 116 2 4 5 67 5 141 2
134 15 333 26 399 3 19 7 103 8 185 2 83 3 153 4 156 1 4 19 2 40 -3 20 -5 69
-14 109 -18z"/>
<path d="M17981 5476 c-8 -10 -6 -24 8 -57 11 -25 21 -73 23 -114 l3 -70 -43
-6 c-97 -13 -93 -78 5 -70 12 1 24 -3 27 -7 3 -5 -3 -63 -14 -128 -29 -174
-27 -184 30 -184 23 0 25 8 45 150 19 138 30 170 58 170 26 0 99 21 115 33 6
5 12 19 12 31 0 21 -5 22 -72 23 -40 1 -76 2 -80 2 -3 1 -9 27 -11 59 -9 93
-14 117 -31 150 -18 35 -54 43 -75 18z"/>
<path d="M16622 5455 c-31 -22 -28 -53 7 -73 26 -15 27 -18 15 -37 -10 -16
-11 -41 -5 -115 5 -52 6 -163 4 -245 l-5 -150 33 -12 c17 -7 36 -10 41 -7 5 3
41 7 80 9 64 2 74 5 95 29 13 15 21 32 18 37 -4 5 -42 8 -87 8 -44 -1 -85 4
-90 9 -6 6 -11 47 -11 93 l-2 83 30 8 c17 5 58 11 92 13 l62 5 25 -80 c67
-210 132 -237 203 -82 18 40 33 79 33 87 0 7 6 20 13 27 8 7 17 30 21 51 14
77 -59 56 -94 -27 -12 -28 -29 -68 -38 -88 -9 -21 -21 -38 -28 -38 -6 0 -19
26 -28 58 -38 130 -41 137 -69 140 -16 2 -27 10 -27 19 0 12 -12 14 -72 10
-40 -3 -83 -9 -95 -12 -25 -8 -30 10 -35 114 l-3 64 90 3 c50 1 93 2 97 3 4 0
14 14 23 30 15 29 15 30 -19 41 -19 6 -54 10 -78 10 -43 -2 -130 12 -158 24
-8 3 -25 -1 -38 -9z"/>
<path d="M17334 5131 c-34 -21 -74 -78 -74 -106 0 -9 -10 -34 -21 -55 -23 -41
-20 -66 8 -77 10 -4 24 -15 31 -24 7 -10 36 -23 65 -29 43 -9 60 -8 90 5 20 8
47 15 59 15 25 0 88 35 88 48 0 18 -51 31 -98 26 l-47 -7 39 41 c35 37 38 44
33 82 -7 52 -30 78 -76 86 -20 3 -43 8 -51 10 -8 2 -29 -5 -46 -15z m94 -88
c-3 -15 -94 -60 -103 -51 -2 2 2 17 10 33 11 27 18 31 54 33 36 3 42 0 39 -15z"/>
<path d="M17681 5132 c-43 -21 -70 -57 -81 -108 -15 -63 -11 -117 10 -144 l19
-25 28 21 c26 20 28 26 28 90 0 63 2 69 27 83 26 15 28 14 57 -13 32 -31 49
-70 53 -124 2 -22 10 -38 26 -48 23 -15 26 -15 45 5 20 19 20 24 8 73 -13 52
-59 150 -73 156 -4 2 -23 14 -43 28 -43 29 -59 30 -104 6z"/>
<path d="M16728 4563 c-12 -14 -17 -57 -22 -213 -4 -107 -9 -205 -12 -217 -4
-15 4 -32 29 -59 31 -34 38 -37 88 -38 92 0 235 10 247 18 15 9 16 52 1 61
-12 8 -175 10 -232 3 -59 -7 -61 0 -52 195 12 278 13 262 -11 265 -11 2 -27
-5 -36 -15z"/>
<path d="M17604 4314 c-136 -82 -179 -157 -131 -227 42 -61 122 -59 185 3 l39
39 16 -35 c10 -19 17 -43 17 -52 0 -10 5 -23 11 -29 6 -6 14 -41 16 -78 6 -62
4 -68 -22 -95 -34 -36 -72 -49 -148 -52 -54 -2 -59 0 -85 31 l-28 34 -27 -25
-26 -24 37 -39 c44 -45 87 -65 139 -65 60 0 143 36 187 79 32 33 41 49 46 92
6 48 -5 130 -25 184 -41 112 -70 182 -77 190 -4 5 -8 31 -8 57 0 46 -1 48 -28
48 -16 0 -55 -16 -88 -36z m45 -97 c-13 -49 -47 -85 -84 -89 -50 -5 -38 29 29
84 33 26 61 46 63 45 1 -2 -2 -20 -8 -40z"/>
<path d="M17182 4320 c-34 -21 -82 -106 -82 -146 0 -76 55 -126 131 -117 63 7
143 66 147 108 11 112 -111 208 -196 155z m111 -93 c22 -33 3 -68 -46 -84 -66
-22 -88 6 -53 70 16 31 25 37 52 37 22 0 36 -7 47 -23z"/>
<path d="M10956 5767 c-18 -13 -18 -15 2 -59 11 -26 18 -57 15 -72 -5 -22 -11
-26 -39 -26 -62 0 -53 -42 15 -70 21 -9 23 -15 20 -73 -5 -107 -1 -124 23
-131 34 -8 39 4 44 90 5 88 22 114 74 114 16 0 36 7 45 17 16 15 16 17 -2 27
-10 6 -38 11 -63 12 l-45 2 -6 53 c-6 53 -35 119 -55 126 -5 2 -18 -3 -28 -10z"/>
<path d="M15593 5738 c-27 -16 -54 -51 -82 -106 -19 -37 -26 -43 -46 -38 -38
10 -49 -14 -34 -78 10 -46 17 -57 42 -67 28 -12 32 -11 52 15 12 15 32 59 45
97 30 93 63 122 134 117 47 -3 51 -1 60 24 5 15 7 31 3 34 -13 14 -151 15
-174 2z"/>
<path d="M13342 5728 c-16 -21 -24 -58 -13 -58 6 0 13 -11 17 -25 3 -14 12
-25 19 -25 17 0 42 31 50 61 5 21 2 30 -16 43 -28 19 -43 20 -57 4z"/>
<path d="M14665 5713 c-46 -10 -83 -29 -128 -66 -55 -46 -77 -82 -77 -130 0
-28 6 -38 42 -61 32 -21 51 -27 75 -23 32 6 123 71 123 88 0 24 32 4 50 -31
24 -47 40 -56 69 -40 23 12 29 60 8 60 -23 0 -70 106 -63 140 10 52 -31 78
-99 63z m5 -88 c0 -3 -9 -23 -20 -44 -35 -70 -110 -109 -110 -58 0 29 16 50
60 81 32 23 70 34 70 21z"/>
<path d="M15186 5699 c-36 -28 -54 -67 -62 -131 -5 -45 -2 -58 18 -87 32 -47
68 -72 114 -78 32 -4 48 1 91 29 49 30 52 35 47 63 -9 41 -10 42 -42 18 -33
-24 -107 -39 -116 -24 -4 6 16 22 44 36 72 36 92 105 49 166 -18 25 -27 29
-68 29 -34 0 -56 -6 -75 -21z m84 -88 c-7 -14 -21 -21 -40 -21 -17 0 -30 3
-30 8 1 29 72 71 78 46 2 -7 -2 -22 -8 -33z"/>
<path d="M3882 5668 c-17 -17 -15 -38 13 -182 14 -70 23 -131 20 -137 -4 -5
-35 -22 -69 -38 -57 -26 -64 -32 -70 -64 -4 -20 -11 -39 -16 -42 -5 -3 -26 16
-47 42 -57 71 -90 103 -105 103 -29 0 -134 -99 -158 -150 -30 -64 -21 -97 32
-123 32 -16 43 -17 73 -7 32 11 43 21 94 89 15 21 19 22 32 9 29 -30 58 -39
80 -27 18 9 25 6 52 -23 48 -51 90 -65 140 -47 48 17 87 63 69 81 -9 9 -24 8
-66 -6 l-55 -19 -25 29 c-29 33 -34 75 -11 94 18 15 71 6 96 -16 21 -19 58
-15 73 8 8 13 7 26 -6 50 -38 75 -71 202 -83 312 -3 33 -8 63 -11 68 -8 12
-38 10 -52 -4z m-292 -463 c0 -9 -11 -27 -25 -40 -46 -47 -64 -21 -18 27 30
32 43 35 43 13z"/>
<path d="M11969 5637 c-19 -12 -45 -43 -58 -68 -23 -43 -24 -49 -12 -91 10
-36 23 -53 57 -78 39 -28 50 -31 106 -28 58 3 63 5 72 31 8 22 7 30 -4 37 -8
5 -17 7 -21 4 -5 -2 -26 -6 -48 -8 -28 -2 -42 1 -45 11 -8 19 1 33 17 27 17
-6 97 52 97 70 0 33 -23 73 -55 94 -44 28 -63 28 -106 -1z m71 -71 c0 -16 -19
-25 -38 -18 -9 3 -10 8 -1 18 15 18 39 18 39 0z"/>
<path d="M11710 5642 c-13 -4 -40 -28 -58 -52 -31 -40 -33 -47 -27 -94 11 -88
40 -123 76 -90 21 19 25 49 9 59 -21 13 -10 66 20 97 25 25 36 29 60 24 23 -4
32 -1 41 15 7 14 8 24 1 31 -13 13 -90 19 -122 10z"/>
<path d="M10688 5584 c-23 -20 -45 -41 -47 -48 -21 -61 -18 -62 -64 6 -64 93
-89 89 -141 -21 -17 -35 -38 -63 -52 -70 -22 -10 -24 -8 -24 18 0 15 5 42 11
60 10 28 9 35 -9 52 -46 42 -72 14 -72 -79 0 -45 5 -67 23 -93 25 -37 43 -44
93 -35 28 6 39 16 70 71 19 36 38 65 41 65 2 0 16 -13 30 -30 24 -30 56 -39
68 -20 9 15 35 0 35 -21 0 -31 22 -69 40 -69 27 0 37 21 38 78 1 64 9 92 26
92 22 0 56 -92 56 -152 0 -16 6 -28 13 -28 6 0 21 -3 32 -6 24 -6 55 34 35 46
-6 4 -16 26 -21 49 -21 94 -75 171 -119 171 -10 0 -38 -16 -62 -36z"/>
<path d="M10065 5596 c-46 -20 -72 -56 -79 -107 -9 -62 16 -118 56 -126 15 -3
28 -11 28 -18 0 -28 57 -28 108 0 110 60 111 171 1 241 -43 27 -70 29 -114 10z
m107 -83 c10 -9 18 -26 18 -37 0 -55 -73 -95 -111 -60 -23 21 -24 36 -3 80 13
28 22 34 47 34 17 0 39 -7 49 -17z"/>
<path d="M9533 5587 c-49 -14 -85 -59 -93 -114 -14 -88 53 -150 144 -137 122
19 127 78 6 72 -51 -2 -64 0 -74 15 -8 13 -8 23 4 44 15 27 31 38 95 65 41 18
46 54 8 61 -35 7 -50 6 -90 -6z"/>
<path d="M9777 5567 c-51 -41 -63 -138 -24 -188 19 -25 79 -59 104 -59 29 0
71 19 77 35 2 7 -1 21 -7 30 -10 13 -18 14 -40 6 -42 -16 -50 -14 -69 20 -25
42 -23 48 23 95 31 32 39 47 34 63 -9 29 -61 28 -98 -2z"/>
<path d="M2946 5532 c-17 -20 -17 -37 4 -153 17 -90 10 -105 -47 -114 -26 -4
-60 -15 -74 -26 -30 -21 -63 -86 -72 -140 -5 -32 -1 -41 28 -69 47 -46 91 -49
189 -13 52 19 86 38 99 55 19 26 19 26 -1 81 -12 30 -19 57 -16 60 3 3 -4 36
-16 73 -11 37 -23 102 -27 144 -9 117 -27 145 -67 102z m7 -343 c32 -14 45
-78 21 -96 -19 -14 -109 -27 -124 -18 -21 13 -11 66 19 96 32 32 47 35 84 18z"/>
<path d="M13343 5500 c-21 -8 -22 -12 -11 -37 20 -45 48 -55 81 -30 15 10 16
16 5 45 -13 34 -32 39 -75 22z"/>
<path d="M4615 5393 c-65 -14 -96 -37 -123 -93 -16 -33 -32 -55 -39 -53 -7 3
-13 11 -13 18 0 16 -23 26 -40 15 -17 -11 -5 -93 24 -150 14 -29 32 -48 50
-55 46 -16 60 2 68 88 7 80 17 107 51 145 17 18 31 22 78 22 76 0 95 20 47 50
-32 19 -59 23 -103 13z"/>
<path d="M4125 5360 c-15 -16 -41 -57 -56 -91 l-27 -63 31 -39 c76 -95 79 -97
154 -97 108 1 190 48 151 87 -14 13 -18 13 -42 -2 -16 -10 -45 -17 -76 -17
-88 1 -92 17 -15 67 68 43 83 70 61 112 -17 35 -83 73 -124 73 -18 0 -39 -11
-57 -30z m95 -60 c0 -18 -26 -40 -49 -40 -18 0 -12 38 7 49 27 16 42 13 42 -9z"/>
<path d="M15718 5343 c-19 -23 -32 -73 -18 -73 15 0 13 -117 -2 -126 -7 -5
-131 -9 -275 -10 -145 -1 -276 -5 -291 -8 -65 -13 -398 -21 -797 -20 -236 1
-443 2 -460 3 -16 1 -77 -1 -135 -3 -58 -3 -145 -6 -195 -7 -139 -2 -990 10
-1085 15 -47 3 -155 1 -240 -5 -85 -6 -164 -10 -175 -10 -102 6 -928 15 -1075
12 -25 0 -52 0 -60 0 -8 0 -94 -2 -190 -5 -96 -3 -245 -5 -330 -5 -398 2 -513
1 -765 -6 -148 -4 -313 -9 -365 -10 -52 -1 -134 -5 -181 -9 -58 -6 -93 -5
-107 3 -27 15 -50 5 -67 -30 -22 -41 -19 -48 29 -68 42 -19 45 -19 126 0 62
15 157 23 369 32 157 7 306 10 331 7 25 -3 79 -2 120 2 41 4 158 4 260 1 102
-4 199 -6 215 -6 17 1 77 1 135 2 58 0 129 1 158 2 54 2 129 2 317 1 61 0 151
0 202 0 50 0 96 -3 101 -6 6 -3 57 -1 114 5 56 6 299 12 538 14 239 2 444 4
455 5 15 1 417 -8 505 -12 8 0 44 -1 80 -1 123 1 235 1 365 0 637 -1 1531 3
1620 8 125 6 402 14 613 18 l144 3 -5 -46 c-11 -92 -19 -115 -50 -142 -28 -26
-30 -29 -17 -53 17 -31 31 -31 106 -1 84 33 150 72 240 141 25 19 55 35 66 35
12 0 29 7 39 16 23 20 13 49 -38 109 -20 25 -42 59 -47 77 -9 26 -17 34 -41
36 -18 2 -45 19 -69 43 -22 21 -44 39 -49 39 -4 0 -25 11 -45 25 -43 30 -54
31 -74 8z"/>
<path d="M3272 5295 c-12 -25 -22 -62 -22 -83 0 -35 -14 -72 -23 -62 -14 15
-47 87 -47 103 0 21 -42 42 -65 33 -23 -8 -14 -59 27 -148 34 -75 50 -93 90
-103 45 -11 72 26 87 120 7 44 19 95 27 114 20 44 10 71 -25 71 -22 0 -31 -8
-49 -45z"/>
<path d="M5027 5143 c-12 -12 -7 -63 9 -87 8 -13 16 -44 17 -68 l2 -43 -65 2
c-36 1 -120 6 -187 13 -105 9 -127 9 -160 -5 -31 -13 -81 -16 -298 -14 -168 0
-270 -3 -288 -10 -16 -6 -48 -11 -72 -11 -24 0 -56 -5 -72 -11 -17 -7 -118
-13 -253 -14 -124 -2 -234 -5 -245 -6 -11 -1 -94 2 -185 6 -91 5 -237 10 -325
10 -88 1 -216 5 -285 10 -110 7 -127 6 -139 -8 -20 -24 -7 -67 18 -60 11 3 59
0 108 -7 48 -7 165 -13 258 -15 94 -2 244 -7 335 -11 182 -10 233 -9 365 4 50
5 94 5 100 1 20 -19 256 -7 418 22 32 5 88 12 125 15 111 10 694 10 732 1 19
-5 55 -12 80 -15 l45 -7 0 -120 0 -120 25 -3 c18 -2 47 14 100 53 41 31 105
71 142 89 160 80 194 119 118 140 -44 12 -139 75 -220 146 -34 30 -81 72 -104
93 -40 34 -82 47 -99 30z"/>
<path d="M6145 3790 c-15 -17 -17 -31 -11 -107 7 -91 29 -268 47 -383 6 -36
10 -173 10 -305 -1 -132 3 -279 8 -327 14 -131 16 -130 -90 -126 -80 2 -91 0
-110 -19 -32 -31 -20 -83 23 -102 40 -18 118 -95 118 -117 0 -9 18 -39 40 -66
22 -28 40 -61 40 -73 0 -12 9 -30 20 -40 19 -17 21 -17 40 0 11 10 37 43 57
74 21 31 54 74 75 97 21 23 44 56 52 75 8 19 28 51 45 73 36 45 36 45 14 85
-17 29 -22 31 -83 33 -36 1 -84 1 -106 0 -35 -2 -43 1 -49 20 -4 13 -9 151
-11 308 -4 275 -19 487 -50 693 -8 54 -14 121 -14 150 0 74 -28 98 -65 57z"/>
<path d="M7867 3712 c-10 -10 -17 -24 -17 -31 0 -18 -46 -103 -69 -128 -11
-12 -29 -24 -40 -28 -10 -3 -22 -16 -25 -28 -3 -12 -23 -44 -46 -71 -45 -54
-49 -72 -20 -109 17 -21 28 -25 68 -25 26 0 54 -2 62 -5 8 -4 22 -6 30 -5 8 1
30 0 49 0 l34 -2 -8 -212 c-5 -117 -7 -249 -6 -293 7 -249 0 -573 -14 -627 -9
-36 25 -57 59 -34 22 14 23 20 30 228 6 190 3 325 -9 397 -3 14 0 54 5 90 5
36 10 148 11 248 1 128 5 185 13 192 16 14 86 -5 106 -28 8 -10 27 -25 42 -34
26 -16 28 -16 38 2 17 32 12 68 -14 98 -13 15 -36 57 -51 93 -15 36 -50 110
-77 165 -79 159 -112 191 -151 147z"/>
<path d="M5056 3691 c-16 -16 -26 -33 -23 -38 3 -4 8 -87 12 -183 4 -96 9
-179 12 -183 3 -5 17 -13 31 -18 22 -9 30 -7 44 11 22 28 23 54 2 71 -14 12
-15 29 -9 129 12 201 12 210 -10 226 -25 19 -27 18 -59 -15z"/>
<path d="M5692 3678 c-6 -8 -8 -56 -5 -128 10 -215 8 -222 -80 -224 -64 -1
-97 21 -97 65 0 27 15 42 75 75 43 24 25 74 -26 74 -20 0 -43 -13 -73 -40 -37
-34 -44 -48 -50 -90 -15 -116 94 -198 209 -157 29 10 46 11 62 4 27 -12 50 3
55 36 4 27 22 26 106 -4 61 -22 65 -23 77 -6 23 32 6 54 -61 83 -74 31 -101
55 -81 72 7 6 34 20 60 31 46 20 75 59 61 82 -7 12 -47 12 -60 -1 -5 -5 -31
-13 -57 -16 l-47 -7 0 66 c0 36 -3 72 -6 81 -7 19 -47 21 -62 4z"/>
<path d="M5228 3537 c-54 -45 -78 -136 -50 -189 7 -13 34 -37 59 -52 l45 -29
35 19 c103 55 119 175 33 248 -39 33 -85 34 -122 3z m91 -67 c21 -18 22 -23
12 -52 -22 -62 -61 -86 -81 -49 -15 30 -12 60 11 92 24 34 27 34 58 9z"/>
<path d="M5265 3120 c-15 -17 -17 -26 -7 -58 6 -20 16 -68 22 -107 6 -38 13
-82 16 -96 6 -29 -5 -39 -59 -58 -35 -12 -40 -11 -53 6 -9 11 -12 30 -8 51 7
42 -9 62 -50 62 -25 0 -44 -12 -91 -57 -33 -32 -69 -75 -80 -95 -18 -35 -18
-41 -5 -80 11 -30 22 -44 40 -48 44 -12 88 7 117 51 29 45 40 45 63 3 10 -16
29 -33 46 -37 16 -5 43 -13 59 -19 43 -15 84 -10 115 12 41 29 56 25 89 -24
32 -46 47 -56 87 -56 28 0 84 26 84 39 0 20 34 21 55 1 18 -17 27 -19 49 -10
l27 10 -7 105 c-5 86 -4 109 9 128 16 26 97 71 97 55 0 -17 75 -78 95 -78 25
1 55 23 55 40 0 7 -14 26 -31 41 -38 34 -35 64 16 128 40 50 43 70 15 96 -18
17 -27 17 -82 7 -67 -13 -98 -34 -98 -68 0 -16 9 -25 30 -33 35 -12 35 -14 13
-52 -15 -26 -23 -29 -66 -29 -42 0 -54 -5 -82 -33 -30 -30 -55 -100 -55 -155
0 -10 -26 -41 -59 -69 -50 -45 -61 -50 -76 -39 -15 11 -11 17 39 59 85 73 87
130 4 173 -62 32 -98 14 -143 -72 -16 -31 -34 -58 -40 -58 -5 -1 -12 16 -16
36 -3 21 -13 55 -22 75 -8 21 -23 81 -33 133 -16 88 -36 140 -54 140 -4 0 -15
-9 -25 -20z m305 -313 c0 -8 -9 -22 -20 -32 -19 -18 -20 -17 -20 1 0 20 17 44
32 44 4 0 8 -6 8 -13z"/>
<path d="M4557 3112 c-16 -17 -16 -26 -3 -113 7 -52 11 -99 9 -106 -3 -7 -25
-15 -51 -19 -31 -5 -56 -17 -80 -39 -30 -27 -36 -39 -40 -88 -4 -50 -1 -61 22
-92 53 -69 132 -85 231 -48 54 20 83 57 63 80 -6 7 -17 13 -25 13 -11 0 -13 7
-9 25 3 13 -3 59 -15 102 -12 43 -27 128 -33 188 -10 99 -13 110 -32 113 -11
2 -28 -6 -37 -16z m13 -332 c11 -11 20 -26 20 -34 0 -7 11 -21 25 -30 34 -22
31 -32 -11 -46 -52 -18 -99 -5 -122 31 -22 36 -19 63 11 84 29 20 53 19 77 -5z"/>
<path d="M8860 3010 c-8 -15 -7 -32 5 -66 18 -53 49 -305 42 -340 -2 -15 3
-30 14 -40 27 -24 73 -4 66 29 -3 12 -8 49 -12 82 -14 147 -49 330 -63 343
-23 17 -40 15 -52 -8z"/>
<path d="M4892 2903 c-6 -16 -16 -46 -23 -68 -6 -22 -14 -44 -16 -48 -7 -11
-43 69 -43 94 0 17 -27 39 -49 39 -24 0 -33 -41 -20 -89 6 -25 16 -50 20 -55
5 -6 9 -16 9 -23 0 -7 11 -31 25 -53 21 -33 31 -40 58 -40 41 0 74 46 83 115
4 28 13 62 20 77 14 27 9 57 -10 70 -22 15 -44 7 -54 -19z"/>
<path d="M8223 2800 c-83 -19 -118 -71 -107 -158 6 -50 12 -62 52 -101 44 -43
46 -43 96 -36 98 13 162 68 113 99 -13 8 -24 7 -48 -6 -38 -22 -102 -23 -123
-3 -25 25 -30 79 -11 109 10 14 22 26 29 26 6 0 28 5 49 11 29 8 37 15 37 33
0 35 -23 41 -87 26z"/>
<path d="M8478 2780 c-60 -46 -87 -171 -49 -217 31 -37 104 -25 172 29 42 32
49 34 49 13 0 -9 14 -29 30 -45 37 -36 82 -39 140 -10 47 24 52 32 61 89 6 41
4 46 -24 70 -63 54 -76 59 -115 48 -23 -8 -42 -23 -56 -46 l-20 -35 -8 31
c-11 43 -76 93 -121 93 -19 0 -45 -9 -59 -20z m106 -72 c15 -25 -28 -67 -78
-75 l-38 -6 21 41 c31 61 71 78 95 40z m219 -29 c29 -16 28 -14 21 -33 -6 -17
-53 -46 -74 -46 -14 0 -13 63 2 78 15 15 24 15 51 1z"/>
<path d="M5998 2769 c-12 -6 -18 -22 -18 -43 0 -25 6 -35 25 -44 34 -16 40
-15 59 4 19 19 21 58 4 72 -22 17 -52 22 -70 11z"/>
<path d="M9060 2590 c-18 -33 -12 -64 16 -77 37 -17 51 -7 56 40 3 23 4 42 4
43 -1 1 -16 4 -33 7 -26 5 -35 2 -43 -13z"/>
<path d="M6649 2080 c-16 -9 -29 -10 -189 -11 -122 -1 -190 -4 -435 -19 -110
-6 -240 -13 -288 -15 -115 -5 -153 -26 -128 -73 5 -9 16 -109 25 -222 9 -113
19 -216 22 -229 8 -39 6 -292 -6 -521 -17 -345 -19 -376 -35 -442 -8 -35 -15
-102 -15 -149 0 -107 10 -116 110 -99 281 48 682 71 780 45 45 -12 106 -14
325 -10 149 3 302 8 340 12 39 4 196 6 350 5 161 -1 295 2 314 8 19 5 89 12
155 15 198 9 286 15 389 26 98 10 155 8 302 -11 99 -13 142 -27 155 -48 9 -15
13 -14 35 11 29 32 31 51 11 98 -9 23 -16 95 -20 219 -6 198 -29 483 -46 565
-5 28 -17 97 -25 154 -9 58 -19 109 -22 114 -3 5 -7 32 -8 61 -5 79 -15 158
-25 191 -5 17 -14 62 -20 100 -32 196 -36 204 -91 186 -41 -13 -253 -30 -409
-34 -102 -2 -187 3 -285 18 -39 5 -156 7 -223 2 -29 -1 -56 1 -59 6 -6 10 -63
-1 -81 -16 -10 -7 -23 -7 -47 2 -22 8 -41 9 -51 3 -9 -5 -37 -5 -67 0 -29 5
-123 11 -210 13 -87 3 -179 10 -205 16 -26 6 -101 13 -167 15 -66 3 -124 9
-130 14 -6 5 -17 5 -26 0z m316 -113 c22 -3 108 -10 190 -16 83 -5 184 -15
225 -22 89 -14 153 -15 235 -4 64 9 235 10 485 2 150 -4 400 5 468 18 30 6 34
3 46 -27 15 -36 38 -156 56 -288 11 -82 27 -191 49 -330 25 -163 41 -354 47
-587 l6 -251 -58 4 c-33 3 -86 9 -119 15 -57 10 -317 5 -335 -6 -4 -3 -75 -8
-157 -10 -81 -3 -211 -12 -289 -21 -81 -8 -244 -15 -385 -15 -735 -2 -891 -1
-964 9 -47 6 -98 7 -125 2 -25 -4 -50 -4 -55 0 -6 5 -17 5 -25 0 -8 -6 -34
-10 -58 -10 -23 0 -85 -7 -137 -15 -102 -17 -144 -21 -301 -31 l-100 -7 7 59
c8 73 28 185 35 195 2 5 9 79 14 166 5 87 12 196 15 243 8 110 7 479 -1 491
-6 10 -25 254 -28 354 l-1 50 45 2 c25 2 90 7 145 12 55 6 197 13 315 17 118
3 217 8 219 10 7 6 486 -2 536 -9z"/>
<path d="M5979 1724 c-10 -12 -10 -39 -1 -142 14 -149 15 -262 3 -315 l-9 -39
46 6 c134 18 264 26 318 21 52 -5 64 -10 83 -35 11 -16 21 -33 21 -39 0 -5 18
-16 39 -24 74 -30 151 15 190 110 26 64 26 79 0 123 -47 77 -143 119 -202 89
-38 -20 -76 -61 -82 -90 -4 -15 -12 -32 -18 -37 -7 -6 -72 -10 -152 -9 l-140
2 -12 100 c-6 55 -12 127 -12 160 -2 115 -33 166 -72 119z m592 -337 c47 -31
51 -79 12 -124 -15 -17 -40 -34 -54 -37 -23 -5 -29 -1 -43 27 -9 17 -22 39
-28 48 -23 33 19 109 61 109 10 0 33 -10 52 -23z"/>
<path d="M7186 1687 c-17 -13 -19 -32 -19 -237 0 -205 1 -224 18 -236 31 -23
53 7 57 74 2 33 8 57 16 60 6 2 12 -2 12 -10 1 -34 149 -148 193 -148 8 0 20
-7 27 -15 24 -29 80 -15 80 20 0 29 -14 40 -70 55 -63 17 -160 92 -160 124 0
7 26 26 58 42 66 34 95 75 69 101 -14 14 -19 14 -53 -6 -36 -22 -151 -71 -164
-71 -4 0 -8 45 -9 101 -1 68 -6 110 -16 130 -18 34 -16 33 -39 16z"/>
<path d="M6955 1486 c-102 -25 -175 -97 -175 -172 0 -37 5 -47 40 -77 44 -37
76 -47 149 -47 98 1 151 26 151 73 0 18 -5 19 -95 12 -68 -5 -100 -4 -110 5
-8 6 -19 9 -25 5 -14 -9 -40 13 -40 34 0 28 39 57 120 88 77 31 98 49 87 77
-7 19 -32 19 -102 2z"/>
</g>
</svg>
