<?xml version="1.0" standalone="no"?>
<!DOCTYPE svg PUBLIC "-//W3C//DTD SVG 20010904//EN"
 "http://www.w3.org/TR/2001/REC-SVG-20010904/DTD/svg10.dtd">
<svg version="1.0" xmlns="http://www.w3.org/2000/svg"
 width="769.977122pt" height="400.000000pt" viewBox="0 0 769.977122 400.000000"
 preserveAspectRatio="xMidYMid meet">
<metadata>
Created by potrace 1.15, written by Peter Selinger 2001-2017
</metadata>
<g transform="translate(-10.722244,416.382111) scale(0.039806,-0.039806)"
fill="#444444" stroke="none">
<path d="M18257 10436 c-21 -13 -47 -22 -57 -19 -10 3 -30 -3 -45 -13 -25 -16
-28 -17 -39 -2 -15 21 -102 25 -167 9 -62 -16 -151 -102 -185 -178 -47 -107
-28 -186 50 -208 l36 -10 -30 -33 c-41 -45 -56 -78 -64 -137 -7 -50 9 -101 46
-145 26 -31 79 -62 115 -66 49 -6 50 -9 20 -36 -37 -33 -68 -120 -56 -160 4
-17 6 -34 4 -38 -6 -9 22 -67 36 -75 5 -4 9 -14 9 -23 1 -25 66 -70 128 -88
60 -18 99 -14 156 17 37 20 50 18 76 -12 3 -3 30 -20 61 -37 47 -27 67 -32
121 -32 71 0 140 24 173 60 27 30 56 122 43 138 -6 7 -9 14 -7 16 2 3 38 6 79
7 77 3 193 41 232 75 11 10 26 14 40 11 114 -30 126 -31 165 -15 21 9 45 19
53 22 8 3 35 21 60 39 47 35 79 85 79 127 1 37 -22 97 -47 123 -12 13 -22 29
-22 37 0 7 -16 26 -35 43 -22 18 -34 36 -31 46 7 23 9 82 3 106 -9 33 -38 85
-48 85 -5 0 -9 6 -9 13 0 7 -12 18 -27 25 -16 7 -39 19 -53 27 -14 8 -50 15
-82 15 -47 0 -59 4 -68 20 -6 11 -8 25 -5 30 3 6 1 10 -6 10 -7 0 -19 7 -28
15 -9 8 -26 23 -39 35 -12 11 -27 18 -32 15 -6 -4 -16 -3 -22 2 -7 4 -38 13
-68 20 -30 6 -82 18 -115 27 -33 8 -78 15 -101 16 -39 0 -84 27 -84 50 0 6
-19 23 -42 40 -53 38 -115 41 -171 6z m162 -115 c24 -24 45 -113 38 -161 -5
-39 13 -70 41 -70 20 0 36 43 36 100 1 52 3 55 27 58 14 2 56 -8 92 -22 37
-14 67 -23 67 -21 0 6 104 -31 128 -46 20 -13 20 -14 -20 -58 -54 -62 -79
-120 -69 -157 6 -20 4 -37 -7 -55 -21 -37 -9 -79 22 -79 22 0 36 14 158 168
41 52 75 71 127 72 62 0 121 -57 121 -118 0 -28 -52 -98 -80 -107 -26 -8 -26
-47 0 -63 17 -11 28 -9 67 8 54 24 53 24 53 6 0 -7 9 -16 20 -19 11 -3 23 -13
26 -24 3 -10 13 -33 21 -52 23 -51 9 -79 -61 -118 -32 -18 -69 -33 -82 -33
-22 0 -24 4 -24 48 0 37 -5 54 -21 68 -19 17 -23 17 -47 3 -18 -10 -26 -22
-24 -36 2 -14 -11 -32 -40 -57 -98 -85 -244 -119 -323 -77 -53 28 -101 37
-120 21 -22 -18 -19 -57 5 -65 11 -3 20 -10 20 -15 0 -4 8 -10 19 -13 15 -4
18 -14 17 -60 -1 -30 -3 -57 -6 -60 -14 -13 -71 -37 -87 -37 -17 1 -63 32 -63
44 0 19 -51 56 -78 56 -24 0 -29 4 -25 18 2 10 -5 26 -16 36 -19 18 -21 18
-47 -3 -15 -12 -34 -30 -41 -41 -7 -10 -29 -24 -47 -30 -28 -9 -40 -8 -65 4
-16 9 -43 16 -60 16 -40 0 -70 43 -73 104 0 26 -5 49 -10 52 -13 8 -10 17 17
48 14 16 25 38 25 48 0 10 6 20 13 22 6 2 37 9 67 16 57 13 90 34 90 56 0 20
-34 26 -109 18 -62 -6 -69 -5 -75 13 -3 10 -26 29 -51 41 -47 22 -45 19 -60
130 l-5 42 55 25 c45 20 55 28 55 48 0 14 -7 27 -15 31 -8 3 -15 11 -15 18 0
17 -36 48 -55 48 -8 0 -16 6 -16 13 -1 6 -2 19 -3 27 0 8 3 35 8 60 4 25 8 53
8 63 -1 34 145 86 162 58 3 -4 1 -22 -4 -39 -12 -44 24 -98 63 -94 15 1 27 -2
27 -8 0 -33 57 9 63 47 8 52 112 129 150 110 10 -5 27 -17 36 -26z"/>
<path d="M15628 10383 c-115 -12 -276 -143 -297 -243 -14 -64 -14 -77 1 -140
10 -44 17 -54 49 -70 20 -11 39 -17 41 -14 3 2 15 -17 28 -43 30 -64 63 -88
120 -87 59 1 111 29 185 100 33 32 87 71 120 88 138 72 163 187 65 299 -33 38
-152 97 -194 97 -19 0 -38 5 -41 10 -3 6 -14 9 -23 8 -9 -1 -34 -3 -54 -5z
m-23 -103 c3 -11 13 -20 21 -20 7 0 19 9 26 20 21 33 103 28 161 -11 56 -37
107 -93 107 -119 0 -48 -73 -123 -111 -113 -11 3 -27 16 -35 28 -17 25 -43 24
-68 -4 -13 -14 -13 -23 -4 -54 11 -35 9 -40 -18 -74 -36 -43 -54 -52 -54 -25
0 11 -6 25 -14 31 -14 12 -15 71 -1 117 8 26 -19 56 -43 47 -9 -3 -28 -16 -42
-28 -40 -35 -59 -38 -66 -11 -6 27 28 116 45 116 19 0 12 28 -9 33 -29 8 -16
33 34 62 50 30 63 31 71 5z"/>
<path d="M16824 10257 c-16 -7 -45 -23 -63 -36 -30 -22 -36 -23 -71 -11 -115
38 -270 -52 -339 -195 -27 -55 -31 -75 -31 -142 0 -79 0 -79 41 -120 24 -24
47 -39 55 -36 11 4 14 -8 14 -59 0 -36 3 -68 7 -72 4 -4 9 -19 11 -33 5 -42
51 -110 89 -134 48 -30 152 -32 208 -4 l40 20 20 -35 c32 -54 91 -88 187 -106
172 -33 298 20 333 140 12 40 13 60 5 80 -19 51 -13 65 38 89 26 12 49 25 50
30 2 4 16 14 31 22 40 20 68 108 49 151 -16 38 -100 113 -168 150 -43 25 -50
33 -47 53 3 14 0 35 -6 48 -18 41 -109 70 -167 53 -25 -7 -32 -6 -36 8 -21 67
-42 98 -83 124 -49 31 -110 36 -167 15z m141 -93 c8 -9 22 -29 31 -46 l16 -30
-57 -53 c-52 -48 -57 -55 -50 -83 9 -43 27 -55 51 -37 10 8 31 15 47 15 15 0
27 6 27 13 0 24 60 66 105 72 24 4 48 4 54 0 13 -8 14 -55 2 -75 -6 -8 -7 -19
-3 -24 3 -6 5 -26 3 -46 -1 -19 1 -45 6 -57 8 -20 9 -21 43 -4 28 13 34 22 32
41 -5 46 4 51 46 27 22 -12 40 -25 41 -29 0 -5 15 -21 31 -37 17 -15 30 -36
30 -45 0 -21 -47 -63 -80 -71 -14 -4 -33 -13 -42 -22 -15 -14 -19 -14 -34 1
-9 9 -30 24 -47 32 -29 16 -32 16 -49 -6 -23 -28 -23 -50 -1 -50 22 0 63 -39
63 -60 0 -9 5 -21 11 -27 18 -18 15 -105 -5 -134 -20 -32 -101 -69 -150 -69
-36 0 -112 15 -152 30 -19 7 -21 13 -14 47 4 21 11 49 16 63 8 21 10 79 5 138
-2 28 -44 9 -91 -40 -55 -60 -143 -117 -188 -123 -25 -3 -31 0 -36 20 -4 14
-20 35 -36 47 -17 12 -30 30 -30 41 0 10 -9 30 -20 44 -16 20 -18 34 -13 67 9
58 40 95 90 109 38 10 43 15 43 39 0 18 -5 28 -15 28 -8 0 -15 5 -15 10 0 6
-14 10 -31 10 -22 0 -44 -11 -72 -37 l-41 -37 -9 35 c-14 54 -2 105 33 145 34
40 35 56 1 64 -22 5 -22 6 -4 21 10 9 27 19 38 22 11 3 40 13 64 22 50 18 86
12 75 -13 -13 -33 -9 -55 16 -74 34 -25 61 -15 58 22 -3 34 14 55 71 92 51 32
110 37 136 12z"/>
<path d="M15847 9738 c-22 -6 -50 -25 -70 -47 -17 -21 -56 -51 -86 -66 -73
-40 -105 -82 -124 -164 -10 -38 -17 -79 -17 -90 0 -31 34 -94 59 -109 13 -7
21 -23 21 -38 0 -90 60 -164 133 -164 36 0 48 6 73 33 17 17 41 49 53 69 21
36 22 36 75 31 64 -7 105 12 135 60 23 38 36 113 21 122 -6 3 -19 27 -31 52
-18 40 -20 53 -11 96 6 32 6 62 0 86 -10 39 -48 101 -61 101 -5 0 -15 7 -23
15 -9 8 -30 15 -49 15 -18 0 -39 2 -47 4 -7 2 -30 -1 -51 -6z m121 -89 c32
-11 42 -31 42 -87 0 -30 -2 -33 -22 -25 -63 21 -133 -12 -133 -63 0 -26 3 -29
30 -27 17 1 44 5 62 8 28 6 33 4 49 -26 9 -19 23 -38 30 -42 18 -10 18 -81 2
-95 -7 -6 -30 -13 -50 -17 -34 -7 -38 -5 -38 14 0 16 -6 21 -29 21 -25 0 -33
-8 -64 -67 -35 -67 -72 -103 -87 -86 -24 24 -9 142 21 169 11 9 19 30 19 47 0
30 0 30 -46 23 l-47 -6 6 67 c8 80 32 113 83 113 18 0 45 5 59 12 l25 11 -21
23 c-23 25 -21 27 26 37 35 8 51 7 83 -4z"/>
<path d="M14931 9591 c-51 -30 -80 -61 -102 -111 -34 -76 -48 -144 -39 -186 7
-30 5 -43 -11 -65 -10 -15 -19 -30 -19 -33 0 -3 -9 -15 -19 -25 -22 -22 -39
-72 -48 -143 -16 -130 88 -260 191 -241 20 4 31 0 42 -16 8 -11 22 -21 30 -21
8 0 14 -4 14 -8 0 -4 20 -13 45 -20 39 -10 51 -9 102 10 63 24 73 33 104 92
15 27 21 59 22 112 2 65 4 74 21 74 25 0 94 38 134 74 30 28 32 33 32 102 0
40 -4 76 -10 79 -5 3 -10 14 -10 24 0 10 -14 29 -31 42 -18 13 -46 36 -63 52
-17 15 -42 30 -56 33 -39 8 -72 27 -84 49 -6 11 -23 35 -38 53 -16 18 -28 37
-28 42 0 6 -7 10 -15 10 -7 0 -18 7 -23 15 -14 25 -101 29 -141 6z m137 -91
c33 -27 64 -77 52 -85 -18 -11 -10 -44 13 -56 12 -6 32 -20 43 -31 20 -18 23
-18 37 -3 22 21 48 8 105 -52 49 -53 57 -103 22 -141 -33 -35 -87 -54 -113
-40 -33 18 -93 20 -107 3 -15 -18 -4 -52 19 -58 41 -10 37 -148 -5 -195 l-23
-27 -1 28 c0 20 -7 30 -26 37 -22 9 -25 15 -22 40 6 38 -19 48 -63 26 -16 -8
-37 -12 -45 -9 -22 8 -70 -16 -81 -40 -17 -37 -55 62 -56 143 -1 83 5 111 31
148 17 23 31 30 69 35 26 3 55 1 65 -4 25 -14 58 -11 64 6 5 13 -23 66 -29 55
-1 -3 -21 3 -43 13 -43 20 -45 24 -47 125 -2 60 0 66 28 88 35 29 71 26 113
-6z"/>
<path d="M15185 8588 c-14 -8 -61 -11 -150 -10 -99 2 -156 -2 -240 -19 -60
-11 -122 -23 -137 -26 -17 -3 -33 1 -43 11 -15 15 -19 14 -51 -11 -27 -20 -34
-31 -29 -47 3 -12 9 -29 12 -38 3 -11 0 -18 -7 -18 -9 0 -9 -4 1 -17 8 -9 15
-37 15 -62 1 -25 7 -83 13 -128 21 -141 -7 -833 -34 -862 -10 -10 -11 -21 -4
-39 10 -26 5 -164 -6 -183 -4 -5 -14 -7 -24 -4 -9 4 -77 6 -151 6 -74 -1 -151
4 -170 9 -19 6 -78 13 -130 16 -84 6 -98 5 -114 -11 -12 -12 -15 -25 -10 -39
6 -18 7 -554 3 -1356 0 -113 2 -270 6 -350 4 -80 8 -311 10 -515 2 -203 6
-404 10 -445 8 -81 -9 -436 -30 -630 -2 -25 -7 -94 -10 -155 -7 -129 -28 -241
-50 -265 -20 -22 -19 -56 3 -77 13 -14 35 -18 102 -19 113 -1 186 -11 313 -45
20 -5 144 -14 275 -19 130 -5 307 -14 392 -19 85 -6 209 -13 275 -16 146 -8
950 -7 985 0 14 3 86 5 160 5 74 -1 144 -1 155 -1 47 0 392 0 535 -1 85 0 223
5 305 11 83 6 335 13 560 15 226 3 417 7 425 10 8 3 87 12 176 20 165 14 341
13 404 -4 44 -11 170 -21 325 -25 66 -1 140 -7 165 -13 25 -6 59 -14 75 -18
17 -4 34 -13 38 -20 4 -8 24 -14 44 -14 l36 0 -7 88 c-29 370 -40 792 -24 947
5 55 13 154 16 220 9 184 8 903 -1 965 -5 30 -10 134 -12 230 -1 96 -6 227
-10 290 -10 151 -10 159 -16 164 -2 2 -1 62 3 133 14 228 11 653 -4 668 -5 5
-447 5 -708 0 -63 -2 -146 1 -185 6 -38 5 -160 12 -270 15 -110 3 -225 7 -255
10 -81 7 -357 17 -580 20 -251 4 -359 10 -390 22 -14 5 -77 10 -140 11 -141 2
-174 7 -225 37 -33 19 -65 24 -190 34 -82 6 -229 13 -325 15 -96 2 -236 7
-310 9 -74 3 -238 6 -364 7 -125 1 -247 4 -270 6 l-41 5 -2 107 c-2 58 -4 140
-7 181 -2 41 1 109 5 150 10 84 13 293 5 415 -3 44 -11 151 -17 239 -12 161
-7 324 12 373 7 20 6 30 -3 39 -19 19 -89 27 -113 12z m5 -113 c12 -7 19 -72
11 -101 -4 -15 -2 -69 5 -120 11 -85 18 -196 29 -444 2 -52 0 -144 -6 -205
-13 -134 -18 -406 -8 -420 4 -5 9 -34 10 -63 l4 -53 -155 4 c-85 2 -171 7
-190 11 -19 3 -42 6 -50 7 -42 2 -71 12 -63 20 11 11 -1 72 -22 124 -14 32
-37 85 -43 98 -3 5 5 4 17 -2 32 -18 82 15 52 33 -5 4 -12 25 -16 49 -3 23
-13 64 -22 90 -16 51 -12 73 7 38 7 -14 21 -21 40 -21 27 0 30 3 30 30 0 17
-4 38 -9 48 -4 9 -15 31 -23 47 -9 17 -18 42 -22 58 -5 22 -3 27 13 27 27 0
42 31 35 72 -7 42 -120 275 -136 280 -7 3 -12 26 -12 55 -1 49 0 51 16 36 10
-9 18 -22 18 -30 0 -48 86 -158 115 -147 25 10 18 38 -39 151 -61 123 -80 173
-65 173 5 0 13 -8 16 -17 16 -44 56 -83 84 -83 39 0 38 19 -7 103 l-35 67 31
0 c35 0 47 19 30 50 -14 27 -10 31 37 40 40 7 310 3 323 -5z m-497 -565 c4
-15 0 -20 -14 -20 -15 0 -19 7 -19 31 0 26 3 29 14 20 8 -6 16 -21 19 -31z
m32 -70 c8 -16 15 -37 15 -47 0 -16 -1 -16 -14 2 -14 21 -30 75 -21 75 2 0 11
-13 20 -30z m-60 -368 c-11 -29 -32 22 -26 66 l4 37 14 -43 c8 -23 12 -50 8
-60z m-4 -197 c30 -64 49 -165 30 -165 -5 0 -17 21 -27 48 -9 26 -23 62 -31
81 -13 33 -18 101 -7 101 3 0 19 -29 35 -65z m-480 -221 c15 -2 91 -6 170 -8
79 -3 155 -8 169 -11 36 -7 322 -46 415 -56 44 -4 175 -8 290 -8 116 0 260 -3
320 -7 61 -3 115 -6 120 -6 180 3 367 1 427 -3 42 -2 197 -7 344 -10 239 -5
271 -8 289 -24 23 -20 185 -50 280 -52 66 -1 283 -26 330 -38 17 -4 70 -4 118
0 49 4 119 5 155 3 37 -1 132 -6 212 -9 80 -3 201 -10 270 -15 69 -5 217 -12
330 -16 113 -4 219 -8 235 -9 42 -4 304 -4 535 -1 107 2 215 1 241 -1 l45 -5
11 -57 c6 -31 9 -126 7 -211 -8 -405 -8 -532 0 -615 5 -49 10 -171 11 -270 1
-163 11 -309 21 -327 8 -13 -1 -903 -10 -983 -4 -27 -11 -74 -17 -104 -18 -89
-11 -711 9 -846 6 -38 10 -71 8 -73 -2 -1 -40 7 -86 19 -48 12 -105 20 -139
18 -83 -3 -123 0 -117 10 3 5 8 53 12 107 3 55 9 126 14 159 4 35 4 68 -2 78
-19 37 -24 218 -17 680 4 252 6 246 -96 222 -53 -12 -122 -15 -299 -15 -127 1
-249 5 -272 10 -53 12 -263 14 -444 5 -99 -5 -164 -4 -205 4 -33 7 -123 14
-200 17 -77 3 -176 9 -220 14 -44 6 -112 10 -151 10 -44 0 -93 7 -130 20 -67
22 -91 25 -96 9 -2 -5 -12 -11 -23 -13 -11 -2 -19 -7 -17 -12 2 -5 9 -22 16
-39 18 -42 36 -162 42 -280 3 -55 10 -113 15 -130 18 -55 31 -753 16 -846 l-8
-47 -117 3 c-161 3 -584 4 -1242 0 -305 -1 -565 1 -577 6 -13 5 -96 11 -185
14 -90 3 -206 10 -258 15 -52 5 -165 9 -250 8 -93 -1 -169 3 -190 9 -38 13
-189 39 -282 49 -67 7 -67 6 -43 124 29 142 61 609 59 855 -1 88 -2 277 -2
420 -1 143 -1 265 -2 270 0 6 -3 89 -5 185 -2 96 -7 189 -10 207 -8 44 -6 455
3 533 4 36 5 101 2 145 -6 89 -4 582 3 715 2 47 5 113 6 147 1 78 3 79 162 57z
m3274 -2520 c143 -8 296 -20 340 -26 44 -6 126 -13 182 -15 l103 -4 0 -57 c0
-31 0 -95 1 -142 1 -47 -3 -143 -10 -215 -17 -175 -20 -302 -10 -410 4 -49 11
-147 15 -217 l7 -128 -139 0 c-308 -1 -593 -9 -656 -19 -73 -12 -95 -8 -100
17 -2 9 0 57 4 106 10 125 0 585 -17 797 -1 14 -4 30 -8 36 -3 5 -6 55 -6 111
0 56 -5 111 -11 122 -6 11 -8 31 -4 46 5 20 11 24 28 20 11 -4 138 -13 281
-22z m1044 -45 c80 -7 229 -10 367 -7 l233 5 7 -66 c4 -37 1 -133 -6 -216 -15
-190 -13 -331 10 -500 8 -64 6 -218 -4 -305 -2 -19 -4 -41 -5 -47 -1 -18 -79
-16 -171 3 -61 13 -111 15 -265 9 -104 -3 -233 -13 -286 -21 -53 -8 -125 -14
-159 -12 -72 3 -62 -17 -75 158 -4 52 -9 122 -11 155 -8 96 -5 244 6 330 26
212 30 285 19 392 -6 59 -12 113 -12 118 -2 12 108 24 173 19 25 -2 105 -9
179 -15z"/>
<path d="M14755 6830 c-89 -25 -115 -28 -188 -23 -55 4 -86 2 -103 -7 -24 -13
-32 -44 -15 -54 26 -16 37 -205 26 -432 l-5 -101 30 5 c17 2 33 9 37 16 4 6 8
45 9 86 1 41 2 91 3 110 l1 36 113 -11 c61 -6 122 -16 133 -22 18 -10 25 -9
43 11 18 19 19 25 8 40 -17 23 -153 56 -229 56 -34 0 -60 5 -65 13 -4 6 -8 47
-8 89 l0 78 61 0 c72 0 180 34 195 61 7 13 6 25 -1 39 -6 11 -12 20 -13 19 -1
-1 -15 -5 -32 -9z"/>
<path d="M18584 6706 c-19 -13 -21 -26 -23 -130 -2 -110 -1 -116 18 -116 11 0
31 12 45 27 20 21 23 30 14 46 -6 12 -7 48 -3 95 5 58 4 77 -7 83 -18 12 -20
11 -44 -5z"/>
<path d="M17842 6672 c-17 -17 -18 -27 -9 -93 5 -41 9 -84 9 -97 0 -13 10 -30
25 -39 24 -16 26 -16 39 2 15 20 19 86 7 99 -4 3 -8 14 -9 24 -18 125 -27 139
-62 104z"/>
<path d="M17221 6649 c-18 -20 -18 -21 14 -87 43 -87 86 -136 113 -128 35 12
33 35 -7 86 -22 27 -47 70 -56 94 -20 53 -38 63 -64 35z"/>
<path d="M15807 6630 c-20 -4 -48 -17 -62 -30 -27 -26 -55 -98 -55 -144 0 -47
41 -100 88 -114 65 -20 162 -12 162 13 0 8 6 16 13 19 8 3 6 9 -7 20 -14 11
-31 14 -57 10 -52 -9 -86 2 -105 32 -14 21 -15 31 -5 64 12 40 21 46 81 53 37
4 50 15 50 43 0 17 -8 27 -26 34 -14 6 -28 9 -32 9 -4 -1 -24 -5 -45 -9z"/>
<path d="M16357 6601 c-16 -10 -51 -42 -78 -70 -27 -28 -57 -51 -68 -51 -10 0
-37 18 -59 40 -42 42 -52 46 -82 30 -16 -9 -17 -14 -7 -41 13 -33 60 -87 92
-105 18 -10 17 -13 -18 -61 -20 -28 -37 -57 -37 -66 0 -8 -7 -17 -15 -21 -8
-3 -15 -12 -15 -19 0 -8 -7 -21 -16 -28 -20 -17 -64 -85 -64 -99 0 -6 -9 -20
-19 -31 -18 -20 -18 -22 -3 -50 30 -51 47 -39 120 85 61 102 56 95 135 213 37
56 67 106 67 111 0 6 30 40 66 76 41 41 64 72 62 83 -5 25 -28 26 -61 4z"/>
<path d="M15055 6563 c-78 -17 -150 -67 -180 -124 -20 -38 -8 -105 23 -129 27
-22 78 -26 114 -9 13 5 41 35 63 65 22 30 43 54 47 54 3 0 17 -15 29 -32 42
-62 74 -74 88 -35 6 15 5 24 -4 29 -7 4 -16 20 -20 35 -3 15 -23 48 -43 73
-68 83 -70 84 -117 73z m-3 -105 c-8 -32 -62 -88 -84 -88 -32 0 -33 29 -2 62
46 48 96 64 86 26z"/>
<path d="M15380 6543 c-14 -3 -31 -9 -37 -15 -7 -6 -19 -8 -27 -5 -23 9 -44
-16 -48 -55 -1 -20 1 -40 5 -44 4 -4 7 -18 7 -31 0 -13 7 -39 14 -58 12 -27
21 -35 40 -35 28 0 34 13 41 84 7 71 20 89 58 80 17 -3 39 -12 49 -18 21 -13
48 -66 48 -94 0 -12 5 -33 10 -47 8 -21 16 -26 38 -23 24 3 27 8 30 42 6 74
-59 184 -125 211 -35 15 -56 16 -103 8z"/>
<path d="M19149 6497 c-93 -31 -149 -72 -149 -108 0 -38 33 -48 69 -21 15 11
55 34 89 51 74 38 106 69 91 88 -15 17 -21 16 -100 -10z"/>
<path d="M16743 6358 c-19 -27 -5 -42 77 -85 47 -25 95 -54 108 -66 18 -17 27
-19 40 -11 22 14 27 39 10 53 -126 106 -208 144 -235 109z"/>
<path d="M18687 6254 c-5 -5 -168 -19 -332 -29 -33 -2 -85 -7 -115 -11 -30 -4
-172 -9 -315 -11 -143 -1 -273 -3 -290 -4 -16 0 -105 1 -197 3 l-167 3 -37
-38 c-33 -34 -36 -40 -25 -63 6 -14 11 -45 11 -69 0 -24 4 -46 9 -49 5 -3 7
-15 4 -25 -3 -11 1 -37 7 -57 15 -44 15 -155 1 -229 -18 -93 -23 -185 -19
-353 0 -15 8 -24 24 -28 21 -6 24 -12 24 -58 0 -108 21 -125 123 -102 43 10
115 16 200 16 72 0 215 2 317 5 252 7 259 8 310 5 25 -1 79 3 120 8 85 12 280
32 355 36 28 2 89 -1 137 -6 49 -5 103 -5 120 0 20 5 44 4 60 -2 22 -8 31 -6
46 8 26 23 33 75 15 103 -11 17 -14 45 -12 108 2 47 1 86 -3 88 -12 4 -20 168
-8 182 8 9 8 15 0 20 -7 4 -8 48 -4 138 4 73 7 141 7 152 -3 142 -8 217 -16
222 -10 6 -228 23 -286 23 -18 -1 -39 4 -45 10 -7 5 -15 7 -19 4z m136 -111
c53 -3 97 -9 97 -12 0 -4 -12 -14 -27 -23 -16 -9 -49 -37 -76 -62 -26 -25 -56
-48 -67 -51 -10 -3 -34 -20 -52 -38 -61 -58 -166 -130 -208 -142 -14 -4 -38
-13 -55 -20 -16 -7 -50 -18 -75 -25 -25 -7 -61 -19 -81 -27 -34 -14 -40 -13
-84 6 -26 12 -57 21 -68 21 -11 0 -41 10 -66 21 -168 79 -324 146 -381 165
-64 21 -160 66 -160 76 0 3 -15 11 -33 17 -19 7 -47 25 -62 41 l-29 30 44 -6
c60 -9 316 -6 413 4 50 5 108 4 165 -4 76 -10 101 -9 197 7 70 12 134 17 175
14 36 -3 90 -1 120 4 70 11 188 13 313 4z m-1445 -119 c74 -65 152 -107 317
-169 55 -21 154 -64 220 -95 114 -55 242 -101 312 -114 21 -3 48 1 75 13 24
10 64 21 90 25 26 4 50 11 53 17 4 5 15 9 25 9 25 0 84 34 134 76 22 19 46 34
53 34 8 0 26 14 40 30 13 17 30 30 37 30 7 0 21 9 31 20 10 11 26 20 35 20 9
0 30 15 47 33 51 55 113 111 117 106 8 -10 15 -69 8 -73 -12 -7 -8 -436 6
-569 7 -66 9 -124 5 -129 -4 -7 -46 -8 -127 -3 -164 10 -234 6 -515 -29 -68
-8 -127 -13 -131 -11 -10 6 -88 6 -265 0 -88 -2 -260 -7 -381 -9 l-222 -5 -4
71 c-3 48 -9 74 -19 82 -13 9 -15 25 -11 81 2 39 4 93 3 122 -1 28 3 54 8 57
5 4 10 43 11 89 1 45 2 87 2 92 0 6 -3 39 -7 75 -4 36 -8 76 -9 90 -1 14 -5
30 -9 37 -8 12 1 43 12 43 3 0 30 -21 59 -46z"/>
<path d="M19213 5997 c-29 -15 -29 -41 -2 -60 19 -14 112 -14 177 -1 35 7 28
40 -10 53 -53 16 -141 21 -165 8z"/>
<path d="M16108 5978 c-17 -26 -11 -131 15 -265 l14 -73 -40 0 c-54 0 -124
-35 -142 -71 -55 -106 135 -233 270 -181 36 14 84 56 85 74 0 4 -9 12 -21 18
-16 9 -26 8 -45 -5 -47 -30 -159 -19 -197 20 -24 23 -21 40 8 53 38 17 76 14
110 -8 36 -24 52 -25 71 -6 18 18 18 31 -1 59 -20 31 -44 142 -59 272 -6 61
-15 116 -20 123 -11 19 -32 14 -48 -10z"/>
<path d="M14997 5916 c-11 -12 -12 -25 0 -88 13 -73 19 -392 7 -421 -3 -10 4
-22 21 -33 26 -17 27 -17 52 9 21 21 24 29 15 40 -8 10 -11 60 -10 158 4 279
-25 395 -85 335z"/>
<path d="M14670 5861 c-114 -18 -225 -127 -250 -247 -15 -70 -3 -107 54 -166
33 -35 55 -48 96 -58 65 -16 197 -8 241 14 18 9 38 16 45 16 7 0 22 10 33 22
16 16 18 25 10 35 -13 15 -65 18 -73 4 -3 -5 -34 -14 -68 -20 -58 -10 -82 -9
-175 5 -18 3 -47 18 -65 35 -29 26 -33 36 -32 77 1 73 61 155 137 187 38 16
128 19 162 6 28 -12 55 5 55 34 0 31 -25 55 -58 55 -15 0 -36 2 -47 4 -11 2
-40 1 -65 -3z"/>
<path d="M16748 5739 c-10 -5 -18 -18 -18 -28 0 -22 30 -51 53 -51 9 0 18 -4
21 -9 11 -16 154 -63 174 -57 23 8 35 41 18 54 -6 5 -29 15 -51 22 -22 7 -70
28 -106 46 -74 38 -68 37 -91 23z"/>
<path d="M15520 5680 c-11 -11 -20 -32 -21 -47 -4 -95 18 -140 79 -162 39 -14
45 -14 77 3 19 11 35 23 35 28 0 13 42 68 52 68 4 0 16 -17 27 -38 25 -49 42
-63 69 -55 16 4 21 12 20 32 -1 14 -6 31 -11 38 -5 7 -6 17 -2 23 3 5 0 10 -7
10 -7 0 -25 21 -40 46 -15 24 -35 47 -43 51 -29 10 -64 -15 -89 -65 -27 -52
-50 -69 -72 -51 -19 16 -22 50 -6 82 7 16 11 35 8 43 -8 21 -53 17 -76 -6z"/>
<path d="M15253 5653 c-50 -45 -67 -83 -59 -137 4 -25 12 -46 18 -46 6 0 8
-10 4 -25 -9 -37 22 -49 108 -41 64 5 74 9 104 41 28 30 32 41 32 90 0 30 -3
55 -7 55 -5 0 -18 16 -31 34 -41 60 -118 73 -169 29z m117 -85 c28 -30 25 -55
-10 -73 -37 -19 -50 -19 -50 0 0 8 -6 15 -14 15 -24 0 -30 39 -10 61 23 25 58
24 84 -3z"/>
<path d="M19210 5490 c-13 -8 -13 -13 3 -43 20 -37 124 -147 140 -147 5 0 25
-13 44 -30 37 -33 61 -38 69 -15 4 9 -15 36 -51 72 -62 64 -66 69 -114 131
-33 42 -60 52 -91 32z"/>
<path d="M16915 5130 c-27 -16 -63 -42 -80 -58 -16 -15 -49 -43 -73 -61 -47
-37 -49 -51 -9 -62 23 -6 38 2 102 52 41 33 90 62 108 65 48 9 77 31 77 58 0
45 -53 48 -125 6z"/>
<path d="M14849 5006 c-2 -2 -76 -7 -164 -11 -104 -4 -163 -11 -167 -18 -14
-22 -8 -50 15 -69 25 -22 26 -26 33 -158 3 -52 8 -129 10 -170 5 -67 3 -78
-15 -94 -45 -41 -20 -61 84 -69 257 -21 252 -21 265 3 21 39 8 45 -121 59 -68
7 -130 15 -137 17 -9 3 -12 23 -10 71 l3 67 45 8 c103 18 206 41 221 49 9 5
19 20 21 34 8 38 -23 41 -158 15 -63 -12 -121 -19 -128 -17 -8 3 -12 33 -11
93 l0 89 55 6 c170 19 234 42 212 76 -8 12 -46 25 -53 19z"/>
<path d="M18248 4998 c-11 -8 -18 -29 -19 -58 -2 -64 12 -190 23 -196 5 -3 19
1 31 9 21 13 22 21 22 133 -1 111 -2 119 -20 122 -11 1 -28 -3 -37 -10z"/>
<path d="M18970 4991 c-16 -31 -12 -88 12 -144 25 -62 35 -74 68 -82 22 -5 26
-2 28 17 1 13 -7 41 -17 63 -10 22 -24 64 -32 93 -15 61 -42 84 -59 53z"/>
<path d="M15981 4969 c-23 -9 -23 -12 -18 -92 3 -45 14 -148 25 -230 11 -81
19 -176 17 -212 -3 -72 9 -94 43 -76 33 18 35 51 17 296 -4 44 -10 98 -15 120
-5 22 -10 72 -11 110 -4 101 -6 105 -58 84z"/>
<path d="M17595 4912 c-40 -28 -74 -82 -94 -152 -9 -29 -8 -37 6 -47 28 -21
43 -15 59 25 36 86 50 111 72 123 35 20 42 80 9 79 -7 -1 -30 -13 -52 -28z"/>
<path d="M15796 4847 c-34 -27 -31 -51 9 -69 38 -17 60 8 51 56 -8 42 -20 45
-60 13z"/>
<path d="M15015 4733 c-10 -21 -29 -50 -42 -65 -20 -21 -24 -33 -19 -55 4 -15
9 -48 12 -72 4 -44 26 -81 49 -81 27 0 44 35 39 80 -5 56 5 140 17 140 5 0 15
-12 21 -27 17 -40 49 -73 70 -73 21 0 50 24 46 37 -3 12 21 53 32 53 15 0 41
-71 38 -102 -3 -33 27 -72 48 -64 9 3 20 6 26 6 28 0 -19 193 -57 234 -39 42
-77 30 -123 -40 -9 -14 -14 -15 -18 -6 -18 40 -57 72 -89 72 -28 0 -35 -5 -50
-37z"/>
<path d="M15554 4711 c-78 -28 -116 -58 -151 -119 -46 -78 53 -149 135 -97 15
10 41 34 58 53 l31 36 16 -29 c19 -36 82 -105 95 -105 5 0 16 7 23 16 11 14
10 21 -5 48 -61 102 -85 148 -96 180 -14 42 -29 45 -106 17z m4 -111 c-22 -30
-55 -46 -79 -38 -18 6 53 68 78 68 l24 0 -23 -30z"/>
<path d="M15785 4640 c-14 -16 -17 -31 -13 -82 3 -35 11 -81 18 -104 11 -36
16 -41 38 -38 30 3 56 32 43 48 -4 6 -11 45 -14 87 -4 42 -9 83 -13 93 -8 22
-37 20 -59 -4z"/>
<path d="M14710 4131 c-40 -9 -107 -41 -167 -83 -47 -32 -83 -99 -83 -155 0
-63 52 -143 121 -185 79 -49 264 -67 347 -33 36 15 46 15 52 5 6 -9 45 -14
139 -17 117 -4 134 -2 171 17 79 40 98 116 47 181 -31 37 -108 87 -165 105
-48 16 -50 15 -101 -10 -61 -31 -105 -93 -115 -160 -6 -41 -9 -44 -44 -50 -65
-10 -185 -6 -241 8 -35 10 -64 26 -86 48 -69 70 -62 138 20 200 46 35 92 48
204 61 7 1 20 12 28 23 12 19 12 24 -1 36 -15 16 -71 20 -126 9z m522 -275
c55 -30 71 -68 42 -97 -17 -16 -34 -20 -91 -21 -82 -1 -124 16 -137 55 -9 24
-6 31 23 57 42 39 101 41 163 6z"/>
<path d="M15574 3670 c-32 -13 -36 -37 -10 -66 18 -22 28 -26 49 -20 23 5 27
12 27 41 0 24 -6 37 -19 45 -22 11 -19 11 -47 0z"/>
<path d="M17329 4429 l-24 -19 31 -28 c31 -27 31 -28 33 -132 1 -58 4 -128 6
-157 3 -29 0 -55 -5 -58 -12 -7 -13 -35 -1 -53 22 -35 263 -74 368 -59 49 6
78 5 102 -3 28 -10 36 -10 49 3 18 19 33 152 20 187 -6 14 -11 72 -11 130 -2
97 -4 105 -24 115 -12 6 -30 20 -40 32 -30 35 -123 52 -309 56 -156 4 -172 3
-195 -14z m366 -84 c27 -3 54 -10 59 -15 6 -6 23 -10 38 -10 l28 0 0 -87 c0
-49 4 -106 9 -128 19 -75 17 -82 -39 -94 -115 -25 -294 -6 -335 35 -11 11 -15
36 -15 92 l1 77 21 -30 c33 -46 120 -125 138 -125 8 0 21 4 29 9 13 9 6 20
-115 169 -21 25 -33 33 -51 29 -21 -4 -23 -1 -23 38 0 23 3 45 8 49 6 8 132 3
247 -9z"/>
<path d="M17533 4339 c-13 -5 -23 -14 -23 -22 0 -13 139 -157 170 -177 24 -16
50 -12 50 8 0 9 -13 31 -28 48 -22 26 -59 72 -82 103 -3 4 -18 16 -35 28 -22
15 -36 18 -52 12z"/>
<path d="M17893 3755 c-28 -28 -33 -39 -27 -62 9 -37 8 -36 51 -35 27 1 43 9
60 28 26 31 27 34 12 68 -18 39 -57 40 -96 1z"/>
<path d="M18373 4353 c-19 -18 -21 -26 -13 -48 6 -15 10 -100 10 -189 0 -145
2 -165 18 -179 24 -22 48 -22 56 -1 5 14 15 16 59 9 28 -4 77 -11 107 -15 30
-4 92 -13 138 -20 60 -9 95 -9 124 -2 28 7 47 7 64 0 55 -25 59 14 40 372 -2
25 -3 52 -4 60 -3 23 -60 42 -85 28 -14 -7 -55 -8 -131 -2 -61 4 -167 8 -236
8 -116 1 -127 -1 -147 -21z m197 -79 c0 -4 -7 -12 -15 -18 -14 -10 -8 -20 37
-71 29 -33 77 -83 106 -112 45 -45 57 -51 73 -43 26 14 25 17 -18 76 -73 99
-97 129 -123 151 l-25 22 86 1 c47 0 113 -3 146 -6 56 -6 61 -9 71 -38 5 -17
11 -69 12 -116 1 -80 -1 -87 -25 -110 -21 -20 -36 -24 -80 -24 -30 1 -74 6
-97 12 -24 5 -74 15 -113 22 -38 6 -89 16 -112 22 l-43 11 -2 66 c-1 36 -1 75
1 86 1 11 2 32 2 48 0 26 1 27 59 27 33 0 60 -3 60 -6z"/>
<path d="M18245 3759 c-20 -5 -35 -19 -44 -39 -13 -30 -12 -33 15 -61 15 -16
38 -29 50 -29 53 0 71 65 31 111 -19 23 -26 25 -52 18z"/>
<path d="M7898 7643 c-27 -7 -33 -42 -10 -63 16 -15 42 -19 160 -22 78 -3 147
-1 153 3 19 11 -5 57 -33 64 -27 6 -225 26 -242 24 -6 -1 -19 -3 -28 -6z"/>
<path d="M7263 7616 c-26 -12 -61 -71 -49 -83 9 -9 207 -6 281 5 34 5 51 12
53 23 5 27 -55 47 -156 53 -50 2 -95 7 -100 9 -4 2 -17 -1 -29 -7z"/>
<path d="M8480 7613 c-66 -8 -73 -60 -10 -81 20 -8 50 -8 97 0 37 6 88 8 113
5 67 -8 100 22 62 56 -13 12 -45 17 -122 21 -58 2 -121 2 -140 -1z"/>
<path d="M6939 7586 c-2 -2 -38 -7 -79 -10 -93 -8 -129 -14 -157 -28 -28 -14
-29 -29 -3 -53 18 -16 27 -17 131 -4 78 9 118 18 135 31 22 18 23 20 8 44 -16
23 -26 29 -35 20z"/>
<path d="M8976 7577 c-11 -8 -17 -23 -14 -37 2 -21 13 -27 63 -41 33 -9 85
-30 116 -48 56 -31 93 -39 104 -22 7 12 -15 61 -27 61 -5 0 -26 13 -46 30 -33
26 -137 70 -167 70 -6 0 -19 -6 -29 -13z"/>
<path d="M6385 7503 c-21 -4 -36 -10 -95 -35 -44 -19 -69 -60 -50 -83 18 -22
36 -19 130 20 47 19 93 35 103 35 27 0 57 19 57 36 0 27 -78 42 -145 27z"/>
<path d="M9465 7361 c-7 -23 10 -43 75 -83 19 -12 53 -41 76 -65 45 -48 71
-54 83 -21 11 30 -23 74 -101 134 -69 54 -122 68 -133 35z"/>
<path d="M5911 7313 c-40 -8 -123 -58 -168 -101 -43 -42 -53 -71 -30 -90 13
-11 67 -5 67 8 0 15 112 92 155 107 24 8 46 21 49 29 5 14 -27 55 -41 53 -5
-1 -19 -4 -32 -6z"/>
<path d="M9883 7044 c-3 -9 -1 -30 5 -47 26 -80 49 -137 61 -151 12 -14 8 -16
-37 -16 -35 0 -52 -4 -56 -15 -4 -11 -20 -15 -55 -15 -62 0 -118 -25 -126 -57
-7 -30 9 -60 37 -69 13 -4 69 -47 125 -95 56 -49 106 -89 110 -89 12 -1 63
-48 63 -58 0 -16 36 -42 58 -42 12 0 37 -14 56 -31 20 -17 40 -28 45 -25 5 4
21 1 35 -5 20 -9 32 -9 59 4 40 19 315 295 383 385 27 34 54 62 61 62 8 0 11
14 10 39 -1 46 -38 77 -71 59 -10 -5 -61 -12 -114 -14 -54 -3 -115 -10 -136
-15 -22 -6 -76 -12 -120 -15 -45 -2 -103 -7 -131 -12 -76 -12 -95 -4 -112 48
-9 25 -26 58 -39 73 -13 16 -24 37 -24 47 0 40 -22 70 -52 70 -17 0 -31 -6
-35 -16z"/>
<path d="M5470 7033 c-22 -8 -100 -93 -100 -109 0 -8 -6 -23 -12 -34 -11 -17
-9 -23 8 -41 29 -28 60 -18 68 22 6 31 60 89 83 89 18 0 16 31 -3 58 -16 23
-19 24 -44 15z"/>
<path d="M5243 6748 c-13 -6 -23 -20 -23 -30 0 -11 -5 -28 -11 -40 -6 -11 -13
-44 -15 -72 -5 -58 2 -70 49 -81 30 -8 29 -9 31 70 1 28 9 67 19 88 18 37 18
40 1 58 -19 22 -21 22 -51 7z"/>
<path d="M327 6593 c-28 -7 -40 -49 -22 -76 11 -17 14 -63 14 -205 1 -101 3
-187 5 -191 11 -17 19 -537 20 -1216 1 -401 4 -735 8 -741 12 -18 18 -326 7
-340 -17 -21 -1 -49 34 -61 17 -6 66 -17 107 -23 41 -7 86 -17 100 -22 14 -5
104 -11 200 -14 496 -11 856 -27 979 -44 36 -5 68 -7 72 -5 3 3 42 1 85 -5
139 -16 336 -21 954 -22 549 0 1153 13 1222 28 29 6 443 5 608 -1 52 -2 106
-4 120 -3 14 0 214 1 446 2 231 2 425 5 430 9 15 9 116 9 264 1 74 -4 184 -7
244 -7 74 1 113 -2 121 -11 9 -9 33 -10 86 -5 41 4 89 5 107 2 53 -9 58 3 56
134 -1 65 -5 251 -8 413 -8 461 -16 771 -21 820 -2 25 -7 143 -10 263 -4 120
-8 224 -10 230 -3 7 -12 59 -20 117 -24 159 -34 426 -21 578 2 28 0 52 -5 52
-5 0 -9 9 -9 19 0 31 -14 33 -87 15 -70 -17 -59 -17 -678 -9 -104 1 -230 7
-280 14 -181 22 -475 40 -660 40 -194 0 -648 16 -765 27 -36 3 -81 11 -100 17
-19 6 -82 10 -140 8 -58 -1 -199 5 -314 14 -114 9 -236 14 -270 11 -33 -3 -92
0 -131 5 -81 12 -109 13 -460 27 -143 6 -287 15 -320 21 -33 5 -134 13 -225
16 -91 4 -177 9 -191 10 -14 2 -97 6 -185 10 -99 4 -205 16 -279 30 -66 13
-154 26 -195 30 -41 3 -86 7 -100 9 -134 20 -236 26 -480 29 -157 3 -293 2
-303 0z m648 -90 c22 -6 80 -14 129 -17 49 -4 162 -20 250 -37 89 -17 202 -33
251 -34 50 -2 158 -9 240 -14 83 -6 191 -11 240 -11 50 0 128 -7 175 -15 60
-11 156 -16 325 -16 132 -1 264 -6 293 -12 58 -11 64 -20 61 -92 -2 -46 8
-343 17 -520 8 -161 11 -268 18 -600 4 -154 9 -345 12 -425 5 -136 8 -758 5
-900 -1 -36 -5 -71 -10 -79 -17 -27 -766 -15 -1211 19 -69 6 -181 13 -250 15
-69 3 -219 10 -335 16 -115 6 -264 7 -330 4 -102 -6 -142 -3 -263 18 -79 14
-148 29 -152 33 -9 9 -14 70 -25 299 -3 66 -8 464 -11 885 -2 421 -8 846 -12
945 -5 99 -8 263 -8 365 l1 185 29 5 c48 8 518 -6 561 -17z m2435 -183 c80 -5
199 -12 265 -15 66 -3 130 -8 143 -12 22 -5 24 -11 27 -98 0 -16 4 -46 8 -65
12 -64 15 -283 6 -435 -6 -82 -11 -179 -13 -215 -10 -172 -18 -279 -25 -315
-4 -23 -6 -52 -5 -65 14 -119 22 -518 13 -620 -11 -109 -13 -583 -4 -677 7
-67 6 -71 -15 -78 -35 -11 -723 -14 -737 -4 -8 7 -11 132 -12 456 -1 246 -4
456 -6 467 -5 20 -14 394 -19 781 -5 382 -19 758 -32 842 -3 24 -4 48 -1 55 5
15 174 14 407 -2z m770 -46 c316 -5 530 -16 537 -27 11 -18 13 -66 3 -72 -6
-4 -7 -13 -1 -23 4 -9 9 -59 10 -111 1 -51 4 -98 7 -103 7 -11 14 -423 19
-1038 2 -283 7 -474 14 -505 6 -27 14 -184 17 -347 6 -286 6 -298 -12 -300
-11 0 -174 -2 -364 -3 -190 -2 -374 -7 -410 -12 -36 -6 -70 -8 -76 -6 -25 9
-33 157 -27 473 7 347 8 538 2 795 -4 168 1 283 22 545 17 209 19 564 5 641
-15 75 -6 115 22 104 9 -4 114 -9 232 -11z m850 -25 c47 -6 141 -15 210 -19
69 -5 168 -15 220 -22 l95 -13 2 -215 c1 -257 17 -562 29 -582 3 -4 7 -85 9
-180 2 -95 11 -229 19 -298 17 -139 33 -421 36 -605 1 -66 5 -160 9 -210 4
-49 4 -112 0 -140 -4 -27 -8 -80 -8 -116 -2 -111 28 -103 -396 -108 -209 -2
-371 1 -376 6 -5 5 -11 129 -14 277 -2 147 -9 293 -14 325 -20 116 -23 199
-26 726 -2 468 -10 844 -20 1020 -8 121 -8 152 -2 162 8 12 91 9 227 -8z
m1241 -59 c11 -6 35 -4 69 6 66 19 74 12 76 -64 2 -71 13 -275 19 -362 5 -68
18 -163 36 -267 6 -34 13 -126 15 -205 2 -79 6 -190 9 -248 3 -58 7 -307 10
-555 3 -247 8 -517 11 -599 6 -162 4 -166 -49 -166 -28 0 -67 16 -77 31 -3 4
-25 3 -50 -3 -77 -17 -593 -8 -612 10 -4 4 -3 61 2 127 7 79 7 162 0 245 -6
69 -10 189 -9 267 0 79 -2 147 -5 151 -3 5 -8 70 -11 143 -4 74 -13 181 -21
238 -8 57 -17 176 -20 265 -4 88 -12 206 -18 261 -10 86 -12 280 -7 605 1 47
0 94 -1 105 -3 18 4 20 92 25 142 7 521 0 541 -10z"/>
<path d="M769 6209 c-22 -22 -24 -40 -6 -57 14 -15 39 -561 26 -576 -9 -10 54
-55 93 -67 29 -8 138 4 199 23 38 11 59 45 37 59 -6 4 -46 5 -88 2 -100 -7
-167 3 -174 25 -8 24 -12 229 -5 236 3 3 57 0 121 -6 126 -12 148 -9 148 22 0
29 -65 49 -222 67 -34 4 -49 11 -53 23 -8 25 -8 147 0 160 4 6 48 9 121 6 114
-3 116 -3 127 21 19 41 -5 52 -128 59 -61 3 -125 10 -143 14 -27 7 -37 5 -53
-11z"/>
<path d="M2423 6058 c3 -13 15 -59 26 -102 11 -44 18 -83 15 -88 -3 -4 -27 -8
-53 -8 -50 0 -71 -12 -71 -42 0 -20 66 -58 102 -58 40 0 44 -11 43 -100 -3
-146 4 -197 28 -204 12 -3 25 0 29 7 4 7 8 69 8 139 0 142 3 148 74 148 19 0
42 7 50 16 30 29 21 36 -61 49 -63 10 -73 23 -99 125 -27 105 -45 140 -75 140
-17 0 -20 -5 -16 -22z"/>
<path d="M1222 5874 c-23 -16 -23 -18 21 -114 14 -30 29 -69 33 -85 19 -80 80
-165 118 -165 28 0 57 53 86 160 7 25 17 56 22 70 34 87 40 113 26 126 -18 19
-59 -3 -68 -36 -4 -14 -20 -69 -35 -123 -16 -54 -32 -100 -36 -103 -11 -6 -46
50 -60 96 -29 99 -62 179 -74 183 -7 3 -22 -1 -33 -9z"/>
<path d="M1725 5839 c-30 -8 -95 -92 -95 -122 0 -7 -3 -17 -7 -21 -4 -3 -8
-14 -9 -24 -2 -9 -6 -36 -10 -58 -4 -27 -2 -44 5 -48 6 -4 11 -15 11 -25 0
-28 52 -69 102 -80 65 -15 139 2 184 41 40 35 46 63 12 55 -13 -3 -52 -13 -88
-23 -60 -15 -68 -15 -103 -1 -70 30 -58 61 37 92 71 24 156 80 156 105 0 27
-58 90 -97 106 -36 16 -54 16 -98 3z m86 -69 c44 -24 5 -61 -77 -74 -53 -8
-61 9 -27 52 26 34 65 42 104 22z"/>
<path d="M2062 5813 c-30 -47 -50 -127 -53 -207 -2 -72 3 -86 35 -86 35 0 45
17 34 57 -17 63 8 177 42 188 24 8 44 -2 67 -33 35 -49 55 -113 52 -172 -4
-63 9 -94 37 -88 47 8 16 225 -44 308 -39 54 -63 70 -107 69 -35 0 -43 -4 -63
-36z"/>
<path d="M888 4980 c-15 -9 -16 -26 -12 -143 3 -72 9 -161 15 -197 5 -36 9
-75 9 -87 0 -13 5 -23 11 -23 6 0 23 -8 37 -18 48 -34 342 -80 342 -54 -1 31
-39 49 -180 86 -73 19 -137 39 -142 44 -14 14 -27 116 -33 256 -7 153 -8 158
-47 136z"/>
<path d="M1918 4730 c-73 -48 -125 -111 -133 -159 -6 -38 -4 -46 21 -72 59
-61 154 -40 208 46 16 25 31 45 33 45 2 0 13 -21 24 -47 11 -27 28 -64 38 -83
10 -19 23 -57 31 -85 7 -27 16 -54 20 -60 14 -21 32 -135 26 -168 -8 -45 -50
-82 -115 -101 -68 -20 -124 -20 -187 -1 -111 34 -121 7 -16 -46 60 -31 73 -34
156 -34 87 0 93 1 140 34 94 65 108 162 48 331 -44 126 -99 265 -139 353 -35
76 -36 77 -73 77 -24 0 -52 -10 -82 -30z m62 -87 c0 -79 -76 -134 -127 -91
-14 11 4 45 43 83 57 55 84 57 84 8z"/>
<path d="M1368 4678 c-37 -41 -39 -45 -36 -103 3 -59 4 -60 42 -79 27 -13 62
-19 113 -20 68 -1 76 1 93 24 11 14 20 41 20 63 0 30 -8 46 -42 83 -81 87
-131 96 -190 32z m144 -65 c35 -33 36 -56 3 -71 -38 -18 -67 -14 -99 12 -29
24 -30 51 -3 84 16 20 66 7 99 -25z"/>
<path d="M3386 5141 c-15 -17 -16 -23 -4 -43 8 -15 13 -66 14 -156 0 -147 6
-163 50 -143 l26 12 -4 148 c-3 119 -7 154 -21 175 -21 31 -38 33 -61 7z"/>
<path d="M4204 5132 c-22 -15 -22 -40 0 -61 17 -16 35 -21 77 -21 66 0 98 -26
106 -87 7 -52 -22 -92 -55 -74 -38 20 -77 13 -116 -22 -41 -38 -45 -58 -16
-87 24 -24 85 -27 126 -5 16 8 36 15 44 15 19 0 76 -59 113 -117 29 -45 62
-57 74 -27 7 19 10 14 -74 122 -61 79 -62 81 -48 109 21 40 19 116 -5 164 -30
57 -99 99 -164 99 -28 0 -56 -4 -62 -8z"/>
<path d="M5087 5092 c-20 -12 -27 -24 -25 -42 3 -25 4 -25 81 -22 42 1 77 -1
77 -6 0 -10 -44 -32 -64 -32 -19 0 -30 -48 -15 -66 6 -8 17 -14 23 -14 12 0
109 -76 114 -90 4 -10 -44 -27 -100 -35 -61 -8 -77 -26 -47 -54 27 -25 64 -26
144 -5 128 33 135 62 38 152 l-68 62 25 23 c56 50 65 112 20 134 -38 19 -169
16 -203 -5z"/>
<path d="M5980 5155 c-11 -13 -10 -21 0 -43 8 -15 13 -30 12 -33 -1 -4 -2 -37
-3 -75 -2 -80 12 -98 88 -109 l48 -6 3 -62 c4 -80 19 -111 56 -115 27 -3 28
-2 22 30 -8 40 -13 119 -9 133 2 7 28 8 79 1 61 -8 77 -7 84 4 16 26 -8 45
-84 68 l-76 24 0 47 c0 26 5 52 10 57 15 15 2 42 -22 50 -37 11 -58 -22 -58
-93 0 -60 -1 -63 -25 -63 -34 0 -45 27 -45 106 0 52 -4 70 -17 80 -24 18 -48
17 -63 -1z"/>
<path d="M11700 6230 c-8 -5 -80 -9 -160 -10 -157 0 -231 -4 -355 -22 -44 -6
-163 -12 -265 -14 -102 -1 -205 -6 -230 -10 -44 -8 -266 -7 -480 1 -58 2 -238
4 -400 4 -170 0 -327 5 -370 12 -112 17 -126 18 -375 25 -394 12 -369 13 -373
-14 -2 -13 3 -45 12 -71 18 -56 25 -158 31 -471 5 -256 11 -381 21 -450 4 -25
8 -79 9 -120 1 -41 5 -158 9 -260 4 -108 3 -241 -4 -320 -5 -74 -12 -171 -15
-215 -3 -44 -12 -136 -19 -205 -8 -69 -14 -186 -15 -260 -2 -122 -5 -143 -32
-224 -27 -78 -29 -90 -16 -103 24 -24 121 -31 312 -24 165 6 563 -9 660 -25
48 -8 306 -21 350 -18 57 5 374 5 480 0 549 -22 847 -25 960 -7 190 29 225 33
316 38 65 4 102 2 118 -6 12 -7 43 -15 67 -17 41 -5 45 -3 54 22 6 16 7 31 1
38 -5 6 -11 43 -14 81 -3 39 -10 106 -16 150 -15 108 -20 337 -12 525 7 150 2
254 -19 410 -13 93 -18 148 -25 270 -4 52 -11 133 -16 180 -22 202 -45 461
-54 603 -9 155 -60 471 -77 480 -1 1 -12 10 -23 19 -14 12 -25 14 -35 8z
m-2410 -105 c30 -19 200 -29 420 -26 129 2 374 -3 543 -10 254 -10 327 -10
415 1 59 7 175 14 258 15 83 2 215 10 295 20 140 16 468 19 484 4 18 -19 62
-323 70 -494 3 -55 14 -183 25 -285 11 -102 22 -210 25 -240 3 -30 8 -80 11
-110 3 -30 5 -71 5 -90 -1 -37 9 -142 33 -353 11 -96 13 -162 6 -265 -12 -206
-2 -518 21 -594 5 -18 12 -63 14 -100 l5 -66 -98 4 c-66 4 -161 -3 -297 -19
-169 -20 -239 -23 -450 -21 -137 2 -295 6 -350 9 -55 4 -289 8 -521 10 -421 3
-485 6 -602 31 -63 13 -392 22 -606 16 -70 -1 -113 2 -122 9 -8 6 -22 8 -31 4
-10 -4 -35 -9 -56 -11 -34 -3 -38 -1 -32 14 18 44 51 172 62 235 4 27 1 42
-11 56 -17 18 -15 48 19 456 23 274 19 651 -11 1045 -8 102 -11 199 -13 438
-1 111 -6 228 -11 259 -5 31 -8 59 -6 62 6 9 491 5 506 -4z"/>
<path d="M10690 5935 c-14 -17 -6 -519 10 -621 6 -33 9 -95 8 -137 -1 -84 9
-107 49 -107 27 0 27 -20 2 255 -6 61 -10 222 -10 360 -1 179 -4 252 -12 257
-18 12 -33 9 -47 -7z"/>
<path d="M9350 5902 c-8 -2 -26 -17 -40 -31 -22 -24 -24 -30 -13 -51 8 -17 10
-51 7 -105 -4 -44 -8 -102 -9 -130 -2 -27 -9 -103 -15 -168 -13 -129 -8 -147
36 -147 29 0 29 -3 48 234 9 105 20 194 25 199 5 5 15 -8 24 -30 9 -21 28 -65
42 -98 14 -33 32 -84 40 -113 17 -58 34 -70 70 -54 17 8 26 24 34 59 11 51 75
240 84 250 9 8 30 -78 31 -127 1 -25 4 -47 8 -50 4 -3 13 -60 19 -125 7 -66
17 -126 22 -132 5 -7 20 -13 33 -13 33 0 33 -6 -15 335 -13 85 -42 196 -59
223 -35 55 -86 -8 -131 -163 -13 -44 -28 -93 -34 -108 l-10 -28 -13 28 c-7 15
-21 46 -30 68 -10 22 -19 44 -19 50 -1 5 -18 45 -38 88 -20 42 -37 80 -37 85
-1 17 -46 59 -60 54z"/>
<path d="M10374 5719 c-19 -21 -18 -21 5 -40 20 -16 27 -18 37 -7 15 16 7 68
-11 68 -6 0 -20 -9 -31 -21z"/>
<path d="M10100 5583 c-80 -27 -206 -103 -235 -143 -19 -26 -22 -37 -14 -62 9
-32 19 -42 81 -83 67 -45 159 -27 198 37 l18 31 20 -39 c37 -72 96 -109 126
-79 23 23 20 30 -16 52 -38 22 -85 105 -112 198 -28 92 -33 99 -66 88z m-30
-122 c14 -28 13 -67 -5 -100 -14 -28 -16 -28 -61 -20 -56 11 -87 35 -75 57 8
14 109 81 123 82 4 0 12 -9 18 -19z"/>
<path d="M10370 5500 c-8 -15 -6 -43 6 -107 9 -49 17 -102 17 -120 -1 -26 4
-33 25 -38 19 -5 30 -2 39 11 7 9 10 21 7 25 -2 4 -7 27 -9 51 -8 82 -23 177
-30 188 -10 17 -44 11 -55 -10z"/>
<path d="M13236 5281 c-16 -18 -17 -28 -8 -103 5 -46 10 -109 11 -141 l2 -59
-63 6 c-72 6 -126 12 -183 21 -130 21 -191 27 -280 29 -55 1 -136 8 -180 15
-44 6 -109 14 -145 17 -36 3 -76 9 -90 13 -37 12 -136 -2 -158 -23 -22 -19
-19 -52 7 -65 17 -9 103 -6 129 4 8 3 21 0 28 -6 8 -6 51 -13 96 -14 82 -4
136 -9 213 -19 22 -3 99 -10 170 -16 167 -12 343 -35 376 -48 15 -6 36 -8 47
-6 28 8 34 -18 22 -90 -16 -95 -18 -99 -50 -136 -34 -40 -37 -60 -12 -83 15
-14 20 -14 49 1 17 10 93 47 170 85 76 37 145 71 153 77 8 5 28 17 45 26 16 9
35 23 43 30 7 8 19 14 27 14 21 0 72 66 71 91 -1 17 -12 29 -43 44 -23 11 -79
56 -125 100 -46 44 -115 110 -153 146 -39 36 -74 73 -80 82 -16 28 -67 32 -89
8z"/>
<path d="M10245 3131 c-3 -5 -1 -30 5 -54 5 -24 11 -87 12 -138 3 -128 -12
-466 -22 -509 -4 -19 -14 -73 -20 -120 -7 -47 -18 -110 -26 -141 -15 -64 -85
-215 -124 -271 -40 -55 -139 -136 -190 -154 -55 -20 -76 -28 -115 -44 -16 -7
-39 -14 -50 -16 -25 -4 -115 -33 -135 -43 -8 -5 -46 -9 -85 -10 -38 -1 -78 -4
-87 -7 -10 -3 -48 -9 -85 -14 -37 -5 -102 -15 -143 -24 -122 -25 -244 -37
-440 -41 -102 -3 -207 -7 -235 -9 -58 -5 -154 -14 -240 -22 -139 -12 -913 -16
-1025 -5 -63 7 -185 18 -269 27 -100 10 -191 13 -258 9 l-103 -7 -9 25 c-6 14
-10 59 -10 100 0 66 3 77 25 98 61 58 2 80 -83 31 -26 -15 -64 -34 -83 -42
-19 -7 -43 -20 -53 -28 -9 -8 -26 -20 -36 -26 -10 -6 -44 -28 -75 -48 -31 -21
-61 -38 -66 -38 -23 0 -53 -51 -57 -94 -3 -45 -3 -45 39 -65 24 -11 55 -32 69
-48 14 -15 68 -66 120 -113 52 -47 109 -99 127 -117 43 -41 67 -49 97 -29 26
17 34 56 12 56 -26 0 -38 51 -36 152 l2 99 196 -4 c230 -6 374 -15 416 -27 17
-4 37 -8 45 -8 8 0 141 0 295 -1 462 0 802 10 925 29 30 4 91 8 135 9 160 2
351 11 410 21 33 6 114 19 180 30 123 21 246 38 300 41 44 3 138 27 190 49 11
5 56 20 100 34 145 47 210 83 283 156 76 76 167 243 192 351 7 30 15 61 18 69
3 8 6 17 7 20 1 3 5 32 9 65 4 33 11 76 16 96 12 45 26 361 23 545 -2 164 -15
214 -57 214 -14 0 -27 -4 -31 -9z"/>
<path d="M510 2861 c-14 -4 -59 -9 -100 -10 -135 -4 -154 -14 -134 -70 15 -45
18 -93 9 -176 -9 -87 -9 -798 0 -875 31 -255 39 -411 40 -741 0 -283 3 -349
14 -363 13 -15 12 -18 -6 -22 -31 -8 -36 -42 -10 -58 21 -13 128 -26 272 -32
194 -8 909 -10 970 -2 39 5 151 11 250 13 99 2 288 6 420 9 132 3 263 2 290
-2 30 -5 77 -4 118 3 37 6 70 9 73 6 3 -3 59 -4 124 -3 94 3 120 0 127 -11 16
-28 56 -38 173 -47 114 -9 169 -7 510 20 141 12 296 5 318 -13 9 -7 24 -7 49
2 24 9 38 10 45 3 7 -7 19 -7 37 -1 52 20 164 25 456 21 119 -2 150 2 168 17
21 17 21 20 1 88 -13 46 -19 54 -37 51 -16 -2 -26 -15 -36 -45 -8 -23 -22 -43
-30 -46 -9 -2 -47 2 -86 8 -40 7 -190 12 -363 12 -161 1 -295 3 -298 6 -6 6
-15 111 -18 222 -4 131 12 762 24 960 23 363 23 393 1 520 -23 137 -37 295
-27 295 4 0 15 -4 24 -9 21 -11 166 -23 247 -21 34 0 74 -4 90 -10 17 -6 111
-14 210 -17 l180 -6 28 -28 c26 -28 28 -29 53 -13 20 14 24 24 22 53 -3 32 -8
38 -58 62 -51 25 -67 28 -240 34 -102 4 -192 11 -201 15 -9 5 -72 9 -140 9
-123 1 -236 20 -250 42 -9 15 -120 40 -144 32 -44 -14 -654 -25 -690 -13 -11
4 -49 4 -83 0 -37 -5 -77 -4 -95 2 -30 9 -176 19 -462 32 -71 3 -168 11 -215
17 -47 6 -92 11 -100 11 -72 1 -295 -1 -335 -4 -108 -7 -282 -2 -330 9 -27 6
-95 14 -150 18 -55 3 -122 10 -150 15 -27 5 -106 12 -175 14 -69 3 -138 9
-153 15 -32 12 -189 13 -227 2z m355 -100 c83 -6 180 -17 217 -25 37 -8 85
-12 106 -9 22 3 97 -6 177 -22 111 -22 152 -26 205 -20 161 17 226 20 390 13
96 -4 198 -10 225 -13 28 -2 111 -9 185 -14 74 -5 205 -17 290 -26 88 -9 184
-14 223 -11 l68 6 -7 -117 c-8 -158 -8 -171 15 -320 22 -145 42 -544 37 -722
-5 -159 -7 -424 -5 -681 0 -52 0 -112 0 -133 l-1 -38 -172 0 c-95 0 -202 -1
-238 -2 -36 -1 -94 0 -130 2 -77 4 -601 -7 -715 -15 -44 -3 -136 -8 -205 -10
-69 -2 -172 -7 -230 -12 -58 -5 -121 -7 -140 -5 -19 2 -191 7 -382 11 -275 6
-350 11 -363 22 -16 13 -17 41 -14 305 2 183 -1 340 -9 425 -7 74 -14 169 -16
210 -2 41 -9 109 -15 150 -19 136 -14 903 7 952 6 15 12 43 14 62 l2 35 66 6
c36 4 70 8 75 10 14 5 160 -2 340 -14z m2828 -128 c9 -2 17 -9 17 -14 0 -6 13
-24 29 -39 16 -16 29 -40 30 -52 1 -47 30 -264 40 -303 7 -23 9 -92 6 -165 -3
-69 -7 -159 -9 -200 -9 -200 -17 -340 -24 -385 -4 -27 -4 -86 0 -130 4 -44 5
-87 3 -95 -5 -16 -18 -422 -16 -480 1 -19 6 -62 11 -95 13 -77 13 -75 -5 -69
-8 3 -43 -1 -78 -10 -36 -9 -84 -16 -108 -15 -24 0 -98 -3 -164 -8 -125 -8
-305 -8 -340 1 -20 5 -20 12 -18 368 4 763 4 954 0 973 -3 11 -8 70 -11 130
-4 61 -14 151 -23 200 -10 64 -13 113 -7 170 4 44 8 106 9 138 0 38 6 61 15
67 8 5 59 7 114 4 56 -2 112 -5 126 -5 14 -1 77 3 140 8 132 11 237 13 263 6z"/>
<path d="M996 2614 c-3 -9 -4 -20 -1 -25 11 -17 34 -256 32 -336 -2 -77 -1
-83 21 -93 13 -5 29 -10 36 -10 15 0 39 57 30 71 -8 14 16 81 39 107 11 12 31
22 43 22 25 0 64 -43 64 -69 0 -10 4 -21 9 -26 6 -6 11 -30 13 -55 3 -41 5
-45 31 -48 48 -6 56 10 40 72 -30 120 -103 206 -174 206 -22 0 -50 -7 -63 -15
-22 -15 -24 -14 -30 7 -3 13 -9 59 -12 103 -4 44 -11 86 -17 93 -14 17 -54 15
-61 -4z"/>
<path d="M754 2565 c-175 -68 -256 -151 -258 -266 -1 -46 4 -61 27 -92 45 -59
75 -69 186 -65 79 3 106 8 154 31 41 19 57 32 57 47 0 26 -43 37 -78 20 -15
-7 -72 -15 -128 -18 l-100 -4 -26 31 c-23 27 -25 35 -17 63 5 18 9 34 9 35 0
7 78 81 100 94 48 29 115 52 175 58 57 6 60 7 63 36 7 59 -58 71 -164 30z"/>
<path d="M2191 2532 c-6 -11 -6 -48 1 -101 9 -80 9 -84 -14 -108 l-23 -25 28
-22 c34 -27 35 -63 6 -135 -25 -59 -16 -81 32 -81 31 0 51 27 64 87 3 18 11
36 17 39 5 3 35 -21 66 -55 31 -34 62 -61 68 -61 6 0 19 -9 28 -19 20 -22 49
-32 66 -21 20 12 7 43 -24 60 -16 8 -39 24 -50 35 -33 31 -96 117 -96 132 0
17 44 35 93 38 41 3 41 3 32 45 -8 35 -8 35 -105 12 -103 -24 -110 -22 -111
41 -2 71 -7 128 -13 144 -8 19 -54 16 -65 -5z"/>
<path d="M1510 2384 c-22 -20 -40 -45 -40 -55 0 -11 -14 -32 -32 -48 -27 -24
-30 -31 -20 -44 7 -8 24 -18 37 -21 15 -4 26 -16 30 -35 8 -35 62 -96 95 -106
14 -4 30 -12 36 -17 7 -5 35 -11 63 -15 38 -4 57 -2 77 12 23 15 25 19 12 32
-8 8 -39 17 -69 20 -74 7 -134 47 -134 88 0 24 5 31 25 33 40 5 108 40 120 61
28 54 -4 103 -80 120 -68 16 -77 14 -120 -25z m108 -56 c-5 -15 -55 -35 -64
-25 -4 4 -1 13 6 22 15 18 64 21 58 3z"/>
<path d="M1922 2370 c-18 -4 -42 -16 -54 -26 -25 -23 -68 -115 -68 -148 0 -61
96 -143 177 -152 85 -10 118 47 36 61 -60 11 -71 15 -103 42 -60 50 -30 129
58 152 55 15 70 35 47 61 -19 21 -38 23 -93 10z"/>
<path d="M2601 2281 c-28 -52 3 -75 92 -69 43 3 63 10 73 23 24 32 -10 55 -89
61 -58 5 -67 3 -76 -15z"/>
<path d="M1340 1681 c-23 -44 -8 -61 56 -61 40 0 44 15 13 54 -24 31 -54 34
-69 7z"/>
<path d="M1998 1683 c-23 -6 -31 -33 -14 -52 12 -13 46 -121 46 -145 0 -3 -9
-6 -20 -6 -22 0 -60 -19 -72 -35 -16 -22 -6 -35 31 -41 21 -3 43 -9 48 -13 6
-3 13 -55 17 -115 3 -59 9 -112 12 -117 8 -14 64 -11 65 4 1 6 0 61 -1 121
l-2 109 76 -6 c89 -6 116 -1 116 23 0 25 -43 50 -88 50 -21 0 -42 4 -47 9 -6
5 -21 11 -34 13 -24 3 -26 7 -64 143 -17 63 -25 70 -69 58z"/>
<path d="M659 1610 c-33 -17 -109 -94 -109 -109 0 -3 14 -15 30 -26 18 -12 34
-34 40 -55 13 -47 13 -48 -12 -52 -17 -2 -23 -10 -23 -27 0 -19 7 -27 31 -33
27 -7 31 -12 32 -45 0 -21 5 -69 11 -108 5 -38 7 -102 4 -141 -5 -68 -5 -71
18 -77 14 -4 30 -1 39 8 13 12 14 32 7 142 -15 224 -17 208 29 211 45 3 119
35 151 64 30 28 38 80 17 120 -56 111 -183 172 -265 128z m143 -81 c9 -5 29
-25 44 -45 22 -28 25 -40 17 -52 -18 -30 -86 -62 -131 -62 -39 0 -43 2 -41 23
1 12 -1 29 -4 37 -3 8 -8 31 -11 50 -5 31 -2 38 21 53 28 17 68 15 105 -4z"/>
<path d="M1045 1524 c-65 -33 -101 -134 -65 -184 19 -27 52 -40 152 -60 64
-13 83 -7 117 36 40 51 19 129 -51 188 -33 29 -50 36 -82 35 -23 0 -55 -7 -71
-15z m133 -87 c38 -35 20 -97 -29 -97 -37 0 -109 33 -109 50 1 24 23 47 60 63
38 15 44 14 78 -16z"/>
<path d="M1392 1527 c-14 -17 -20 -49 -26 -138 -3 -42 -8 -83 -11 -91 -9 -22
32 -55 53 -42 22 14 49 226 33 261 -12 25 -33 30 -49 10z"/>
<path d="M2420 1498 c-67 -19 -91 -31 -101 -50 -17 -32 31 -114 121 -206 45
-46 80 -88 77 -95 -5 -17 -201 -17 -219 1 -6 6 -22 12 -35 12 -18 0 -23 -6
-23 -25 0 -19 9 -28 46 -45 26 -11 56 -20 69 -20 12 0 25 -3 28 -7 12 -11 120
-11 159 0 96 26 88 69 -37 202 -52 55 -95 108 -95 117 0 12 13 21 43 29 96 26
118 48 78 81 -25 20 -57 21 -111 6z"/>
<path d="M1623 1449 c-27 -13 -43 -28 -43 -39 0 -11 -5 -22 -10 -25 -6 -4 -8
-11 -4 -16 3 -5 0 -20 -8 -32 -7 -12 -12 -29 -12 -37 1 -8 2 -22 3 -31 0 -9
12 -22 26 -29 36 -19 55 1 55 57 0 36 6 50 30 75 26 25 36 29 63 24 18 -3 45
-20 60 -37 26 -28 28 -37 25 -89 -3 -61 10 -90 42 -90 29 0 39 22 35 80 -9
162 -135 252 -262 189z"/>
<path d="M3354 1885 c-3 -14 -4 -40 0 -58 3 -17 6 -100 7 -184 l1 -152 29 -6
c16 -4 33 -4 39 0 15 9 5 392 -11 411 -20 24 -58 18 -65 -11z"/>
<path d="M5248 2628 c-42 -25 -46 -36 -20 -67 15 -20 20 -21 52 -10 48 16 60
27 60 55 0 17 -8 28 -26 34 -31 12 -22 14 -66 -12z"/>
<path d="M5011 2619 c-12 -12 -20 -28 -17 -36 3 -8 6 -22 6 -30 0 -12 7 -14
36 -8 55 10 84 26 90 51 9 34 -3 44 -50 44 -29 0 -49 -6 -65 -21z"/>
<path d="M4735 2616 c-16 -12 -18 -19 -9 -43 l10 -28 84 3 c47 1 95 7 106 13
29 15 20 45 -18 58 -45 16 -150 14 -173 -3z"/>
<path d="M5452 2594 c-37 -26 -46 -52 -27 -81 21 -32 57 -25 97 20 33 38 35
53 9 67 -28 14 -53 13 -79 -6z"/>
<path d="M5577 2529 c-16 -10 -34 -71 -28 -99 7 -33 56 -41 77 -12 7 9 14 35
14 58 0 33 -4 43 -23 51 -15 7 -29 7 -40 2z"/>
<path d="M4666 2394 c-40 -39 -20 -114 32 -122 24 -4 44 31 37 64 -14 69 -16
74 -34 74 -11 0 -27 -7 -35 -16z"/>
<path d="M5538 2225 c-15 -34 13 -79 45 -69 42 12 51 28 33 63 -21 40 -61 43
-78 6z"/>
<path d="M4692 2193 c-7 -3 -19 -18 -28 -34 -21 -42 -1 -84 41 -84 29 0 30 2
33 48 4 61 -11 84 -46 70z"/>
<path d="M5560 2035 l-22 -24 21 -22 c12 -13 21 -26 21 -31 0 -4 13 -8 29 -8
34 0 45 20 33 64 -11 42 -53 52 -82 21z"/>
<path d="M4689 1975 c-25 -14 -45 -60 -39 -95 5 -38 46 -56 80 -35 18 11 10
146 -9 145 -3 -1 -18 -7 -32 -15z"/>
<path d="M4183 1900 c-45 -10 -63 -28 -63 -61 0 -34 23 -43 89 -34 47 6 50 5
73 -27 32 -43 39 -64 32 -94 -5 -21 -12 -24 -53 -24 -49 0 -103 -26 -133 -63
-14 -19 -15 -24 -2 -49 17 -32 38 -35 110 -13 80 24 97 20 154 -35 52 -51 76
-60 98 -38 19 19 15 26 -49 94 -60 61 -61 64 -49 93 13 33 7 92 -16 146 -15
37 -64 82 -111 102 -35 14 -34 14 -80 3z"/>
<path d="M4993 1873 c-25 -5 -34 -36 -20 -70 13 -29 30 -34 67 -21 38 13 121
3 164 -19 l30 -16 -28 -23 c-15 -13 -37 -25 -49 -25 -12 -1 -31 -2 -42 -3 -10
-1 -26 -13 -34 -28 -14 -24 -14 -28 2 -46 12 -13 36 -21 69 -24 45 -5 56 -11
85 -44 40 -48 40 -55 6 -76 -39 -22 -117 -30 -186 -18 -67 11 -107 0 -107 -29
0 -35 44 -52 156 -58 100 -6 107 -5 159 21 30 16 60 35 67 43 16 20 13 90 -7
117 -8 11 -26 38 -40 58 l-25 37 25 37 c67 98 -40 196 -209 193 -34 -1 -71 -4
-83 -6z"/>
<path d="M5576 1799 c-29 -42 12 -92 58 -71 22 10 24 15 16 41 -5 17 -11 35
-15 41 -11 17 -43 11 -59 -11z"/>
<path d="M4688 1683 c-10 -2 -19 -11 -19 -19 -3 -27 -4 -32 -11 -40 -11 -11
-10 -72 2 -95 11 -20 36 -24 59 -10 25 16 18 174 -7 170 -4 -1 -15 -3 -24 -6z"/>
<path d="M5604 1596 c-28 -24 -28 -26 -14 -53 22 -39 62 -43 78 -8 13 28 6 51
-21 74 -12 9 -21 7 -43 -13z"/>
<path d="M5587 1342 c-22 -24 -21 -32 8 -65 19 -22 30 -26 51 -21 36 9 40 28
14 69 -24 39 -48 44 -73 17z"/>
<path d="M4664 1339 c-3 -6 -7 -33 -7 -60 -1 -37 4 -55 20 -70 l20 -21 29 25
c24 21 26 27 16 40 -8 9 -10 26 -6 41 4 16 1 32 -6 41 -14 17 -56 20 -66 4z"/>
<path d="M4673 1112 c-6 -4 -15 -30 -18 -58 -8 -57 8 -80 48 -70 17 4 26 17
35 52 11 41 11 49 -4 65 -18 20 -41 24 -61 11z"/>
<path d="M5616 1059 c-30 -24 -33 -49 -8 -72 47 -43 93 -3 68 58 -17 41 -24
42 -60 14z"/>
<path d="M4640 885 c-6 -8 -14 -32 -17 -54 -5 -33 -2 -41 17 -51 12 -6 33 -9
46 -6 20 5 24 12 24 47 0 22 -5 49 -10 60 -13 23 -43 25 -60 4z"/>
<path d="M5612 828 c-26 -26 -5 -91 26 -82 44 14 60 27 55 43 -16 45 -56 64
-81 39z"/>
<path d="M5635 576 c-8 -13 -13 -29 -10 -37 7 -19 53 -40 61 -27 3 5 15 13 26
17 19 7 18 9 -10 39 -36 38 -47 40 -67 8z"/>
<path d="M4873 562 c-42 -7 -39 -90 4 -106 13 -6 63 15 90 36 15 12 -4 48 -26
48 -8 0 -22 6 -30 13 -9 7 -26 11 -38 9z"/>
<path d="M5129 537 c-27 -21 -29 -44 -6 -65 38 -34 64 -36 92 -8 31 31 31 41
3 60 -34 22 -71 27 -89 13z"/>
<path d="M5276 505 c-13 -20 -13 -25 0 -44 26 -37 104 -26 104 14 0 27 -9 35
-56 45 -28 7 -35 4 -48 -15z"/>
<path d="M5495 474 c-21 -32 -14 -51 21 -60 51 -13 82 30 48 67 -24 26 -49 24
-69 -7z"/>
</g>
</svg>
