<?xml version="1.0" standalone="no"?>
<!DOCTYPE svg PUBLIC "-//W3C//DTD SVG 20010904//EN"
 "http://www.w3.org/TR/2001/REC-SVG-20010904/DTD/svg10.dtd">
<svg version="1.0" xmlns="http://www.w3.org/2000/svg"
 width="705.191183pt" height="400.000000pt" viewBox="0 0 705.191183 400.000000"
 preserveAspectRatio="xMidYMid meet">
<metadata>
Created by potrace 1.15, written by Peter Selinger 2001-2017
</metadata>
<g transform="translate(-45.094986,453.198025) scale(0.054545,-0.054545)"
fill="#444444" stroke="none">
<path d="M10603 8290 c-30 -27 -37 -92 -24 -207 15 -138 23 -309 25 -513 1
-166 2 -177 24 -207 24 -33 37 -39 59 -25 18 11 33 134 28 222 -3 41 -7 152
-9 245 -10 370 -17 458 -39 483 -25 27 -37 28 -64 2z"/>
<path d="M12123 8160 c-37 -22 -42 -49 -19 -104 8 -19 13 -58 12 -88 l-2 -53
-64 -1 c-36 0 -76 -4 -89 -9 -50 -16 -78 -78 -47 -104 8 -6 40 -16 72 -22 33
-6 76 -15 96 -20 l38 -10 -3 -245 c-2 -206 0 -246 13 -254 8 -5 19 -5 25 0 5
4 12 8 15 7 3 -1 15 6 28 14 19 14 23 27 26 90 16 317 21 347 55 333 79 -32
131 -16 131 40 0 32 -33 76 -57 76 -5 0 -18 9 -28 20 -10 11 -23 20 -29 20 -6
1 -21 9 -33 19 -17 14 -23 36 -32 110 -14 108 -40 195 -61 199 -8 1 -30 -7
-47 -18z"/>
<path d="M10861 8004 c-35 -45 -23 -94 33 -132 67 -46 103 -16 84 71 -10 49
-45 87 -79 87 -9 0 -27 -12 -38 -26z"/>
<path d="M6050 8001 c0 -5 -15 -14 -34 -21 -18 -6 -42 -20 -51 -30 -10 -11
-26 -20 -36 -20 -26 0 -72 -62 -85 -114 -18 -71 8 -126 85 -178 14 -10 35 -18
46 -18 11 0 31 -9 45 -20 14 -11 33 -20 43 -20 14 0 59 -24 106 -57 2 -2 6
-29 8 -61 5 -70 0 -75 -88 -98 -88 -23 -103 -21 -144 15 -67 58 -133 53 -149
-12 -8 -30 -6 -40 10 -58 20 -22 133 -79 158 -79 8 0 18 -5 21 -10 4 -6 32
-10 63 -9 46 1 72 9 132 42 41 22 76 44 78 48 2 4 14 20 27 35 23 26 24 35 19
99 -8 97 -19 134 -55 188 -34 52 -109 119 -137 122 -38 4 -112 28 -122 40 -43
52 101 99 211 68 l58 -16 20 24 c31 36 26 63 -17 97 -30 24 -51 31 -107 37
-39 4 -78 9 -87 11 -10 3 -18 1 -18 -5z"/>
<path d="M12472 7870 c-17 -28 -15 -42 13 -80 14 -19 25 -30 25 -25 0 5 5 4
12 -3 16 -16 48 -15 70 2 17 12 17 16 1 57 -23 62 -31 69 -72 69 -25 0 -40 -6
-49 -20z"/>
<path d="M9132 7805 c-23 -25 -42 -49 -42 -54 0 -6 -6 -14 -12 -18 -37 -24
-52 -57 -59 -131 -5 -48 -4 -81 2 -89 6 -6 13 -38 15 -70 8 -93 12 -101 51
-119 35 -17 36 -17 56 7 17 21 19 33 13 104 -4 44 -7 85 -7 90 2 34 19 113 29
133 15 26 42 30 42 6 0 -33 105 -91 142 -78 13 4 26 7 31 6 19 -5 9 97 -15
150 -19 43 -26 49 -94 77 -40 17 -82 31 -92 31 -9 0 -37 -20 -60 -45z"/>
<path d="M10331 7798 c-101 -71 -200 -157 -216 -188 -8 -16 -16 -60 -17 -99
-1 -56 2 -75 17 -91 23 -26 118 -54 152 -45 26 6 103 77 103 94 0 30 22 15 41
-26 26 -59 54 -82 97 -83 26 0 34 5 43 28 9 23 5 36 -26 94 -47 87 -69 168
-66 244 1 48 -2 66 -19 87 -12 15 -27 27 -35 27 -7 0 -41 -19 -74 -42z m-17
-185 c11 -27 -45 -107 -77 -111 -23 -3 -27 0 -27 23 0 19 13 39 42 66 48 44
53 46 62 22z"/>
<path d="M8661 7813 c-48 -9 -145 -126 -170 -203 -23 -74 -18 -132 19 -201 35
-67 52 -89 68 -89 5 0 22 -6 37 -14 41 -21 117 -29 163 -17 30 9 46 21 63 49
13 20 27 38 31 40 4 2 15 19 24 38 26 55 5 211 -37 284 -5 8 -15 26 -21 40 -7
14 -22 32 -33 40 -17 13 -102 41 -115 38 -3 0 -16 -3 -29 -5z m66 -148 c39
-27 73 -102 73 -160 0 -50 -2 -55 -34 -74 -49 -31 -66 -26 -121 29 -44 45 -48
53 -37 70 6 11 12 29 12 41 0 28 17 60 48 87 30 26 31 26 59 7z"/>
<path d="M9570 7803 c-14 -10 -46 -28 -73 -40 -59 -28 -76 -60 -52 -96 9 -15
14 -30 12 -35 -3 -4 -8 -44 -11 -87 -3 -44 -8 -93 -11 -110 -5 -24 -1 -36 20
-57 36 -38 56 -35 104 17 l41 45 0 94 c0 52 4 98 10 101 6 4 10 -13 10 -43 0
-27 7 -66 16 -87 13 -33 18 -36 42 -30 42 10 70 43 83 96 18 69 40 66 62 -8
10 -32 22 -87 28 -123 10 -63 21 -84 64 -122 33 -29 53 -22 66 23 10 33 10 45
-1 62 -12 20 -22 61 -22 97 0 24 -39 154 -50 168 -6 6 -8 12 -5 12 12 0 -17
66 -39 89 -26 26 -63 25 -119 -5 -24 -13 -31 -13 -40 -2 -18 24 -72 58 -92 58
-10 0 -30 -8 -43 -17z"/>
<path d="M11129 7759 c-11 -11 -19 -33 -19 -51 0 -45 41 -68 120 -68 80 0 86
-19 25 -77 -25 -24 -45 -51 -45 -59 0 -9 -6 -30 -14 -47 -16 -35 -25 -72 -32
-133 -6 -50 15 -73 81 -85 48 -9 79 -1 124 33 13 10 34 18 46 18 13 0 25 7 29
15 7 19 52 20 63 2 23 -38 70 -59 140 -60 61 -2 75 1 112 26 23 15 56 48 74
73 l32 45 33 -36 c19 -20 52 -43 74 -51 36 -13 44 -12 65 1 24 16 24 16 5 43
-43 62 -94 196 -113 302 l-14 75 -53 14 c-51 14 -54 13 -68 -7 -8 -12 -21 -22
-27 -22 -7 0 -28 -13 -47 -30 -19 -16 -40 -29 -46 -30 -6 0 -19 -9 -29 -20
-10 -11 -20 -18 -23 -15 -8 8 -80 -59 -108 -101 -15 -21 -30 -52 -34 -69 -5
-28 -9 -30 -50 -31 -26 0 -63 -10 -87 -22 -56 -29 -67 -28 -58 5 8 33 113 173
135 181 8 3 28 18 44 33 25 24 28 32 21 66 -6 37 -45 84 -76 92 -8 2 -69 5
-137 6 -111 3 -126 1 -143 -16z m660 -211 c0 -7 -8 -44 -18 -83 l-18 -70 -56
-9 c-63 -10 -87 0 -87 39 0 21 41 75 56 75 13 0 94 41 100 51 8 13 24 11 23
-3z"/>
<path d="M8230 7752 c-8 -2 -22 -10 -30 -17 -8 -7 -32 -16 -54 -19 -47 -8 -56
-13 -56 -32 0 -8 -7 -26 -16 -40 -14 -20 -15 -38 -9 -102 4 -42 8 -104 9 -137
2 -65 12 -106 30 -117 21 -14 73 -8 90 11 13 15 17 43 20 140 2 97 6 125 19
138 15 15 18 15 36 -1 17 -16 39 -84 40 -126 1 -41 19 -112 33 -127 8 -10 18
-26 21 -35 9 -26 24 -22 59 12 25 25 29 36 25 63 -3 18 -10 62 -15 99 -14 95
-56 199 -102 251 -38 43 -61 52 -100 39z"/>
<path d="M7275 7699 c-20 -23 -43 -55 -51 -73 -8 -17 -25 -45 -37 -62 -12 -18
-30 -47 -40 -65 l-18 -32 -54 53 c-36 36 -57 65 -61 87 -7 38 -8 38 -51 47
-28 6 -34 3 -59 -29 l-27 -36 44 -84 c24 -46 52 -86 61 -88 9 -3 26 -19 36
-37 22 -36 27 -25 -64 -163 -22 -34 -44 -75 -48 -92 -4 -16 -21 -51 -37 -78
-16 -26 -29 -51 -29 -55 -1 -4 -9 -25 -20 -47 -20 -41 -25 -92 -12 -110 6 -9
56 -35 67 -35 2 0 44 83 95 184 50 101 100 192 111 202 10 9 19 23 19 30 0 7
6 19 13 26 8 7 20 25 28 40 42 80 147 237 199 297 33 38 60 78 60 89 0 28 -42
72 -67 72 -12 0 -37 -18 -58 -41z"/>
<path d="M10873 7727 c-34 -15 -43 -60 -33 -167 11 -128 30 -194 58 -198 37
-6 50 39 51 173 0 172 -18 218 -76 192z"/>
<path d="M13455 7670 c-22 -16 -44 -29 -50 -30 -9 0 -25 -22 -69 -92 -9 -16
-24 -28 -33 -28 -22 0 -65 -49 -59 -68 14 -50 19 -92 18 -138 -2 -45 1 -52 27
-72 76 -56 109 -33 122 85 4 43 8 87 8 99 1 29 68 114 89 113 21 -1 74 -63 78
-92 1 -12 8 -44 14 -72 6 -27 11 -59 11 -70 0 -33 18 -93 34 -108 25 -26 77
-7 98 35 16 32 16 40 4 74 -8 22 -23 75 -33 119 -10 44 -21 82 -24 85 -3 3
-21 36 -39 73 -19 37 -43 73 -55 79 -11 6 -23 14 -26 19 -3 4 -21 10 -40 13
-29 5 -42 0 -75 -24z"/>
<path d="M6597 7675 c-16 -8 -63 -42 -105 -76 -55 -44 -82 -74 -94 -103 -32
-79 -16 -159 44 -218 28 -27 35 -29 77 -23 58 8 88 29 126 88 17 25 33 46 37
46 3 1 18 -23 32 -53 21 -44 33 -57 61 -66 43 -14 52 -9 61 35 5 28 0 44 -30
92 -20 32 -36 62 -36 66 0 5 -10 29 -22 55 -11 26 -23 69 -26 95 -7 72 -58 97
-125 62z m-24 -211 c7 -8 -16 -56 -35 -72 -19 -16 -40 1 -36 29 4 29 55 59 71
43z"/>
<path d="M12823 7643 c-41 -14 -47 -21 -106 -117 -10 -16 -29 -38 -43 -48 -45
-36 -25 -96 58 -173 47 -44 68 -55 142 -79 71 -23 128 -20 184 8 57 29 84 58
101 110 18 52 6 164 -20 191 -10 11 -31 34 -46 52 -16 18 -45 39 -66 48 -52
21 -152 25 -204 8z m160 -135 c53 -54 61 -107 21 -149 -22 -23 -32 -26 -63
-22 -40 6 -120 76 -121 104 0 28 35 62 76 75 56 17 61 17 87 -8z"/>
<path d="M12536 7583 c-26 -7 -55 -43 -56 -69 0 -11 -3 -24 -7 -28 -4 -4 -6
-51 -5 -104 3 -83 6 -100 24 -119 28 -30 49 -29 81 5 25 26 26 32 19 74 -10
51 0 144 18 178 11 20 9 25 -16 46 -15 13 -30 23 -33 23 -3 -1 -15 -4 -25 -6z"/>
<path d="M5509 7302 c-20 -15 -51 -49 -70 -75 -19 -27 -56 -73 -84 -102 -45
-48 -59 -67 -102 -140 -7 -11 -25 -33 -41 -50 -49 -51 -92 -117 -92 -142 0
-25 32 -63 54 -63 13 0 129 149 156 200 7 14 29 44 49 66 20 23 54 63 76 90
22 26 61 70 87 97 47 48 67 98 54 132 -8 23 -47 17 -87 -13z"/>
<path d="M10079 6979 c-19 -19 -20 -28 -14 -122 3 -56 10 -124 15 -152 5 -27
11 -79 15 -114 6 -63 30 -129 42 -117 4 3 14 -1 23 -9 15 -14 19 -14 39 2 25
22 32 105 10 143 -12 22 -21 107 -32 303 -3 42 -9 61 -23 72 -27 20 -51 18
-75 -6z"/>
<path d="M9250 6870 c-27 -27 -25 -52 5 -100 28 -45 54 -51 85 -20 24 24 24
29 4 80 -24 60 -59 75 -94 40z"/>
<path d="M7745 6703 c-41 -12 -54 -22 -70 -51 -11 -21 -34 -44 -51 -53 -38
-18 -124 -104 -143 -141 -34 -67 18 -196 93 -232 18 -8 39 -22 46 -31 17 -20
39 -19 95 6 50 22 76 62 90 142 4 20 11 40 16 42 4 3 32 -18 61 -46 75 -72 86
-78 154 -82 44 -3 71 -11 102 -32 35 -23 47 -26 82 -20 60 10 126 51 164 101
25 33 36 41 44 31 20 -24 52 -122 63 -196 10 -65 9 -84 -6 -134 -15 -53 -20
-59 -63 -79 -37 -18 -65 -23 -131 -23 l-83 0 -18 45 c-11 29 -29 52 -49 64
-37 21 -66 15 -58 -14 3 -11 1 -35 -3 -55 -7 -32 -4 -40 35 -87 36 -43 54 -56
106 -73 48 -16 74 -20 109 -14 85 13 126 28 181 67 79 55 92 89 91 234 0 104
-4 125 -32 205 -73 201 -101 306 -94 349 6 40 4 43 -25 59 -61 31 -131 9 -246
-78 -70 -52 -115 -97 -115 -113 0 -6 -6 -17 -14 -23 -8 -7 -17 -34 -21 -62 -4
-28 -12 -49 -19 -49 -15 0 -96 85 -130 137 -22 33 -24 43 -16 78 6 25 6 54 -1
77 -9 35 -16 41 -79 61 -8 2 -38 -2 -65 -10z m598 -208 c-8 -55 -42 -109 -87
-140 -56 -38 -70 -28 -63 44 6 67 17 90 61 116 84 53 100 50 89 -20z m-628
-39 c-10 -108 -17 -134 -37 -139 -20 -6 -65 16 -80 38 -24 32 17 95 85 132 29
15 36 9 32 -31z"/>
<path d="M8880 6672 c0 -4 -19 -20 -43 -35 -23 -15 -50 -35 -60 -45 -9 -9 -40
-37 -69 -62 -57 -48 -98 -119 -98 -166 0 -38 20 -66 67 -95 21 -13 44 -29 51
-36 17 -16 13 -17 90 9 60 21 68 27 101 80 41 65 63 72 82 27 19 -46 88 -119
113 -119 31 0 66 28 66 52 0 12 -15 39 -33 62 -74 92 -111 169 -121 249 -6 42
-13 61 -29 72 -22 15 -117 21 -117 7z m-18 -225 c-6 -30 -16 -43 -52 -67 -40
-27 -46 -28 -61 -14 -13 11 -15 22 -10 37 9 24 113 99 123 89 3 -4 3 -24 0
-45z"/>
<path d="M9605 6608 c-88 -60 -100 -73 -114 -126 -6 -27 -24 -66 -38 -87 -16
-23 -28 -58 -31 -84 -4 -44 -2 -48 37 -79 35 -28 46 -32 76 -26 19 3 39 12 45
19 6 7 12 51 13 97 1 86 23 149 58 171 26 17 63 0 100 -45 32 -40 34 -47 32
-109 -2 -49 1 -70 12 -79 8 -7 15 -18 15 -25 0 -16 33 -45 52 -45 8 0 23 9 32
19 15 16 17 33 13 93 -8 115 -21 164 -60 221 -48 69 -74 93 -117 105 -19 5
-42 12 -50 16 -9 3 -41 -12 -75 -36z"/>
<path d="M9260 6568 c-16 -17 -20 -36 -21 -92 0 -39 -3 -93 -5 -120 -5 -52 9
-103 34 -123 18 -15 82 -17 82 -3 0 5 11 20 25 33 l26 23 -22 49 c-15 35 -23
77 -26 140 -4 67 -9 93 -21 103 -24 18 -49 15 -72 -10z"/>
<path d="M4377 6409 c-10 -6 -64 -11 -120 -11 -92 0 -106 -2 -139 -25 -31 -21
-45 -24 -81 -19 -36 6 -49 3 -78 -17 -20 -13 -52 -27 -71 -31 -20 -4 -41 -13
-48 -21 -7 -8 -19 -15 -26 -15 -8 0 -14 -6 -14 -13 0 -7 -16 -19 -36 -26 -57
-21 -193 -163 -234 -246 -19 -38 -42 -77 -51 -85 -15 -14 -30 -90 -45 -230 -3
-30 -10 -69 -16 -86 -9 -24 -8 -38 4 -61 10 -21 14 -51 12 -94 -3 -55 0 -71
26 -121 17 -31 30 -66 30 -77 0 -11 18 -34 41 -53 100 -80 101 -82 110 -137
16 -103 36 -137 115 -196 40 -30 81 -55 91 -55 10 0 37 -11 61 -25 27 -15 68
-27 108 -31 84 -9 106 -33 102 -108 -3 -50 -4 -51 -34 -51 -56 0 -117 -74
-153 -187 -9 -28 -18 -38 -33 -38 -16 0 -19 -5 -15 -22 4 -12 3 -27 -2 -32 -4
-6 -20 -41 -36 -79 -15 -37 -34 -72 -42 -78 -7 -6 -13 -17 -13 -25 0 -22 -118
-260 -161 -324 -21 -33 -39 -68 -39 -78 0 -34 32 -63 75 -68 l40 -6 28 59 c15
32 27 63 27 68 -1 8 59 132 151 317 5 10 9 24 9 32 0 8 7 16 15 20 8 3 15 13
15 23 0 10 22 63 49 118 27 55 56 118 65 139 13 30 20 36 29 27 12 -12 14
-448 2 -606 -3 -44 -8 -116 -10 -160 -5 -109 -20 -249 -28 -262 -4 -7 -9 -47
-12 -90 -6 -100 -25 -223 -36 -223 -4 0 -42 -53 -85 -117 -42 -65 -85 -130
-95 -145 -11 -15 -31 -49 -45 -75 -15 -26 -46 -77 -69 -113 -23 -36 -66 -110
-95 -165 -61 -115 -147 -244 -166 -252 -8 -3 -14 -12 -14 -19 0 -8 -7 -26 -16
-39 -19 -29 -10 -65 16 -65 10 0 22 -4 25 -10 12 -19 40 -9 67 23 33 39 103
145 136 207 14 25 30 52 37 60 7 8 29 47 49 85 21 39 55 102 78 140 22 39 54
94 70 123 16 29 49 86 73 125 25 39 45 75 45 80 0 5 7 15 15 23 12 13 15 12
25 -6 6 -11 19 -20 29 -20 27 0 154 -143 183 -205 6 -14 14 -25 17 -25 4 0 15
-15 25 -32 11 -18 36 -53 55 -78 20 -25 48 -63 62 -85 38 -57 102 -163 117
-191 7 -13 26 -31 43 -39 26 -14 32 -14 57 -1 68 35 65 56 -15 146 -28 30 -71
87 -96 125 -26 39 -64 92 -84 119 -21 28 -47 64 -58 82 -32 51 -58 87 -80 110
-11 11 -45 60 -75 108 -30 48 -66 104 -79 124 l-24 37 17 145 c10 80 22 200
27 268 4 67 10 126 13 131 11 17 18 190 18 456 0 164 4 281 10 298 6 16 21 30
35 33 33 9 259 -4 408 -22 66 -8 161 -17 210 -19 50 -3 106 -11 125 -17 19 -6
88 -11 153 -11 64 0 117 -3 117 -6 0 -3 -10 -36 -22 -73 -17 -54 -19 -70 -9
-82 19 -23 83 -29 125 -12 34 14 39 14 74 -5 20 -12 45 -28 56 -38 17 -15 20
-14 47 19 16 19 29 40 29 46 0 7 6 14 13 17 9 3 9 9 -2 30 -11 21 -13 53 -8
146 4 65 11 130 16 144 12 31 40 36 117 24 51 -9 72 -7 162 17 113 29 183 33
204 13 7 -7 34 -19 59 -25 46 -11 48 -11 83 21 20 19 36 40 36 48 0 8 17 32
39 53 35 34 38 41 36 86 -2 44 -7 53 -50 92 -52 48 -88 62 -117 47 -14 -7 -28
-7 -46 -1 -52 20 -400 17 -433 -4 -7 -4 -72 -9 -144 -9 l-130 -2 -34 -31 c-50
-45 -88 -164 -88 -272 0 -45 -5 -86 -11 -92 -15 -15 -141 -18 -247 -5 -49 6
-108 10 -129 9 -22 -1 -44 2 -50 7 -10 8 -37 12 -161 27 -22 2 -58 7 -80 9
-22 3 -112 8 -200 11 -102 4 -163 10 -167 18 -9 13 -10 72 -2 101 7 28 101 76
135 69 15 -3 30 -1 33 5 4 6 18 11 32 11 35 0 128 49 204 108 106 83 134 114
149 167 6 22 18 49 26 59 9 12 15 41 15 72 0 29 5 56 11 60 7 4 9 32 4 86 -7
73 -5 81 14 99 12 11 21 31 21 45 0 14 8 38 19 52 10 15 21 51 25 81 4 30 14
70 22 89 18 44 18 61 -2 83 -15 16 -15 23 0 79 8 34 20 68 26 75 8 10 7 26 -4
60 -9 25 -16 65 -16 89 0 40 -6 50 -76 127 -41 46 -93 99 -116 117 -41 32 -41
32 -155 32 -78 0 -125 5 -150 15 -42 18 -52 18 -76 4z m27 -814 c11 -8 26 -15
34 -15 8 0 25 -9 38 -19 20 -16 30 -17 64 -9 49 13 70 5 70 -25 0 -13 9 -42
20 -64 35 -73 40 -117 17 -152 -12 -20 -20 -51 -21 -81 -1 -57 -16 -69 -30
-25 -26 88 -37 101 -92 111 -13 2 -35 15 -48 29 -16 16 -36 25 -56 25 -30 0
-166 -65 -201 -96 -8 -8 -25 -14 -36 -14 -25 0 -34 -11 -61 -79 -14 -34 -22
-75 -22 -112 0 -48 -4 -60 -22 -73 -34 -24 -45 -20 -73 24 -14 23 -36 45 -49
50 -47 17 -56 37 -55 113 1 40 7 78 13 86 6 7 9 40 8 71 -3 55 -1 60 34 94 20
20 41 36 45 36 4 0 9 15 11 33 2 26 8 33 29 35 14 2 40 16 58 33 37 33 45 35
94 14 20 -8 47 -15 61 -15 13 0 26 -5 28 -12 6 -17 52 -2 85 27 33 29 32 29
57 10z m-36 -450 c65 -32 76 -47 69 -90 -3 -19 -2 -48 3 -65 8 -26 5 -33 -16
-46 -45 -30 -154 1 -154 44 0 8 12 30 26 49 23 30 24 37 14 69 -11 31 -8 64 4
64 2 0 27 -11 54 -25z"/>
<path d="M10160 6296 c-17 -10 -30 -31 -42 -72 -21 -70 -13 -88 43 -102 38
-10 43 -9 71 19 28 26 30 32 23 75 -4 31 -15 54 -32 70 -30 28 -30 28 -63 10z"/>
<path d="M11195 5040 c-22 -24 -16 -97 14 -188 11 -31 23 -76 26 -99 4 -23 15
-53 25 -65 10 -13 26 -55 35 -93 10 -39 28 -90 41 -115 30 -56 30 -56 -2 -102
-33 -48 -77 -163 -77 -203 0 -137 6 -261 12 -270 4 -5 13 -30 20 -55 29 -102
95 -201 167 -251 33 -22 45 -40 63 -91 12 -35 35 -93 51 -129 16 -36 32 -82
35 -102 5 -25 20 -47 46 -71 l40 -34 0 -269 c1 -292 -6 -451 -21 -468 -5 -6
-9 -26 -9 -45 0 -19 -1 -51 -2 -70 0 -19 1 -84 2 -145 2 -102 0 -114 -25 -165
-38 -79 -126 -215 -183 -284 -56 -68 -153 -207 -153 -220 0 -4 -23 -34 -50
-66 -28 -32 -62 -82 -75 -111 -14 -30 -57 -103 -95 -164 -41 -65 -70 -121 -70
-136 0 -34 42 -64 68 -50 40 22 97 99 155 214 23 45 57 104 75 130 17 26 32
51 32 54 0 4 8 15 17 26 10 10 29 38 43 62 14 24 59 88 100 142 41 54 87 116
102 138 42 63 93 107 117 103 14 -2 30 -18 43 -43 11 -22 28 -53 36 -70 9 -16
19 -37 24 -45 4 -8 23 -51 43 -95 19 -44 39 -87 45 -95 5 -8 23 -40 41 -70 17
-30 39 -64 49 -75 10 -11 25 -46 34 -78 9 -32 26 -73 36 -92 11 -20 22 -50 25
-68 7 -36 41 -77 64 -77 9 0 28 10 43 23 l27 22 -25 65 c-26 66 -146 312 -210
430 -20 36 -47 91 -60 123 -14 32 -40 91 -59 132 -19 41 -35 82 -35 91 0 9
-14 38 -32 65 -38 59 -39 74 -20 264 17 178 25 483 18 747 -1 30 5 52 16 65
20 22 58 120 58 151 0 12 4 30 10 40 15 26 50 139 50 160 0 26 25 46 95 78 62
28 130 76 153 107 7 9 44 53 82 97 95 111 157 206 171 265 6 28 15 60 19 71
10 26 3 132 -12 194 -7 26 -38 82 -75 134 -35 49 -63 94 -63 99 0 16 69 217
92 267 11 25 34 64 50 88 40 58 37 106 -7 110 -64 5 -118 -56 -140 -158 -4
-19 -11 -39 -15 -45 -4 -5 -13 -26 -18 -45 -16 -54 -38 -109 -45 -116 -4 -4
-15 0 -24 8 -42 35 -200 72 -308 71 -75 0 -200 -25 -245 -48 -25 -13 -61 -26
-80 -30 -19 -3 -48 -11 -63 -17 -43 -17 -73 5 -97 69 -11 30 -20 65 -20 79 0
29 -34 100 -51 106 -10 3 -21 35 -56 173 -9 33 -20 66 -26 73 -14 18 -41 15
-62 -8z m794 -564 c63 -3 80 -8 124 -37 57 -38 63 -60 33 -121 -9 -17 -16 -38
-16 -45 0 -8 -6 -27 -14 -41 -16 -31 -49 -118 -66 -177 -17 -57 -50 -147 -61
-168 -5 -10 -21 -50 -35 -90 -14 -40 -29 -80 -34 -89 -6 -10 -10 -24 -10 -32
0 -21 -31 -72 -53 -86 -11 -6 -37 -13 -58 -15 -34 -3 -39 -1 -39 18 -1 39 -36
68 -107 87 -134 36 -141 40 -178 84 -19 24 -35 48 -35 54 0 6 -11 28 -25 48
-14 20 -25 51 -26 68 0 17 -2 45 -4 61 -13 109 3 214 39 270 8 12 20 41 27 64
15 49 44 76 95 86 21 3 65 20 98 35 39 19 78 29 106 29 64 0 129 7 137 15 3 3
11 1 18 -4 7 -5 45 -12 84 -14z m314 -248 c22 -47 24 -66 23 -161 -1 -84 -4
-111 -16 -120 -8 -7 -24 -30 -35 -52 -23 -45 -114 -145 -187 -207 l-50 -42 7
45 c4 24 18 67 30 94 13 28 33 86 45 130 53 191 122 365 146 365 7 0 24 -24
37 -52z"/>
<path d="M1662 5008 c-8 -8 -40 -12 -90 -10 -89 2 -158 -13 -188 -40 -16 -14
-33 -18 -65 -15 -32 2 -52 -2 -73 -16 -15 -11 -45 -22 -65 -24 -20 -2 -43 -11
-51 -21 -8 -10 -36 -29 -62 -41 -25 -13 -73 -46 -106 -73 -46 -37 -61 -57 -66
-84 -4 -19 -15 -54 -25 -77 -32 -74 -53 -236 -41 -313 9 -58 73 -197 107 -234
13 -14 23 -30 23 -35 0 -10 62 -74 144 -150 34 -31 74 -55 93 -56 32 0 156
-56 158 -70 1 -8 5 -66 9 -129 l6 -115 -40 -17 c-22 -9 -40 -23 -40 -30 0 -23
-163 -341 -196 -384 -39 -50 -84 -127 -84 -145 0 -8 -16 -29 -34 -48 -30 -29
-33 -36 -25 -65 10 -37 43 -66 74 -66 18 0 31 14 57 57 18 32 44 76 57 98 23
38 93 169 132 247 11 20 19 42 19 48 0 5 4 10 10 10 5 0 21 25 35 55 27 55 49
70 59 38 6 -19 27 -227 31 -303 1 -25 7 -126 14 -225 9 -131 9 -204 2 -265
-11 -84 -11 -84 -66 -138 -44 -43 -55 -60 -55 -85 0 -45 -26 -175 -37 -190 -6
-6 -15 -39 -22 -71 -6 -33 -17 -67 -25 -75 -7 -9 -17 -29 -20 -46 -4 -16 -22
-55 -41 -85 -18 -30 -36 -65 -39 -76 -4 -12 -15 -29 -26 -39 -11 -10 -20 -22
-20 -28 0 -15 -80 -130 -104 -149 -11 -10 -29 -18 -38 -18 -26 0 -25 -71 1
-94 18 -16 24 -17 63 -4 35 12 49 24 75 69 18 30 37 63 42 75 5 11 20 28 34
37 14 9 28 30 32 46 3 16 13 35 21 42 8 6 14 16 14 21 0 5 14 29 30 53 17 24
30 48 30 53 0 5 13 36 30 68 16 32 30 66 30 74 0 18 21 79 34 98 9 14 33 107
41 155 7 47 29 64 41 32 4 -8 20 -30 38 -49 17 -18 41 -48 54 -67 32 -49 82
-122 149 -218 32 -47 76 -113 98 -147 22 -34 62 -95 88 -136 27 -40 65 -98 85
-129 21 -31 44 -62 54 -67 20 -14 88 -4 95 14 2 7 -17 41 -44 76 -27 35 -57
74 -66 88 -9 14 -29 43 -45 65 -15 22 -48 76 -72 120 -24 44 -66 116 -94 160
-28 44 -56 87 -61 96 -6 9 -37 52 -70 95 -33 43 -68 94 -77 114 -10 19 -27 47
-39 62 -18 21 -21 37 -19 75 7 92 4 438 -4 513 -4 41 -9 131 -11 200 -2 69 -8
139 -13 157 -16 49 4 69 78 76 34 4 70 12 82 18 11 6 46 12 77 13 31 1 92 10
136 19 142 31 388 75 415 76 8 0 32 4 53 9 20 6 37 9 37 8 1 0 2 -27 5 -59 4
-67 26 -107 58 -108 12 -1 40 -3 62 -6 145 -18 234 19 215 88 -5 17 -9 75 -8
130 0 85 3 101 19 109 26 14 50 12 71 -6 15 -15 25 -15 70 -5 159 36 250 51
311 52 64 1 69 3 78 28 6 14 8 42 5 61 -4 19 -8 66 -9 104 -3 63 -6 72 -31 90
-24 18 -42 21 -179 21 -133 1 -158 3 -199 22 -29 13 -50 18 -54 12 -3 -5 -36
-9 -72 -8 -96 2 -201 -11 -247 -32 -22 -9 -49 -20 -60 -23 -18 -5 -20 -14 -20
-82 0 -60 -3 -77 -17 -85 -16 -9 -16 -12 -1 -53 13 -35 15 -55 7 -93 l-9 -48
-65 -8 c-36 -4 -112 -10 -170 -11 -58 -2 -130 -9 -160 -15 -48 -10 -124 -23
-275 -46 -22 -3 -53 -10 -70 -15 -16 -5 -57 -10 -90 -12 l-60 -3 -13 100 c-7
55 -10 123 -8 150 3 28 5 54 6 58 0 5 24 8 53 7 96 -2 221 16 267 39 74 36
170 136 170 179 0 10 7 27 15 38 8 10 15 34 15 51 0 18 7 51 16 73 9 23 13 47
9 57 -5 10 -9 34 -10 53 -4 62 -21 136 -38 160 -10 14 -14 33 -10 51 3 16 -4
50 -16 84 -21 56 -21 57 -2 62 11 3 27 21 36 41 8 21 26 57 39 82 49 95 42
154 -22 184 -20 10 -56 31 -80 47 -43 29 -45 29 -108 18 -46 -8 -72 -8 -95 0
-40 14 -42 14 -57 -1z m-166 -383 c38 -20 69 -19 105 2 28 16 31 16 60 -1 16
-10 36 -15 44 -13 18 7 99 -56 114 -89 79 -174 83 -414 9 -503 -16 -18 -28
-36 -28 -41 0 -19 -130 -43 -219 -42 -24 1 -49 -2 -55 -6 -13 -8 -76 -13 -161
-13 -106 -1 -104 -1 -122 36 -13 26 -26 38 -53 45 -39 11 -145 94 -155 122 -3
10 1 28 9 40 9 12 16 34 16 47 0 14 14 68 31 121 17 52 38 118 46 145 9 28 29
64 44 80 16 17 29 37 29 44 0 9 6 11 18 5 9 -5 37 -7 62 -6 26 1 54 -5 68 -14
26 -17 44 -10 87 34 11 12 21 21 21 21 1 1 15 -6 30 -14z"/>
</g>
</svg>
