<?xml version="1.0" standalone="no"?>
<!DOCTYPE svg PUBLIC "-//W3C//DTD SVG 20010904//EN"
 "http://www.w3.org/TR/2001/REC-SVG-20010904/DTD/svg10.dtd">
<svg version="1.0" xmlns="http://www.w3.org/2000/svg"
 width="1030.268780pt" height="400.000000pt" viewBox="0 0 1030.268780 400.000000"
 preserveAspectRatio="xMidYMid meet">
<metadata>
Created by potrace 1.15, written by Peter Selinger 2001-2017
</metadata>
<g transform="translate(-36.359060,434.378170) scale(0.024369,-0.024369)"
fill="#444444" stroke="none">
<path d="M18583 17790 c-26 -25 -42 -48 -41 -62 0 -37 29 -96 48 -101 10 -3
20 -18 24 -40 4 -20 13 -49 21 -64 8 -15 15 -38 15 -51 0 -13 4 -31 9 -40 5
-10 10 -37 12 -62 2 -34 -1 -44 -11 -42 -8 2 -35 0 -60 -3 -78 -11 -95 -66
-52 -168 14 -31 21 -38 39 -34 13 2 28 -2 35 -10 7 -8 21 -12 37 -9 46 10 71
-21 81 -96 4 -36 13 -75 20 -88 7 -12 12 -39 12 -59 -2 -91 46 -165 108 -167
32 -1 90 41 90 66 0 11 9 24 21 31 l21 11 -21 22 c-12 13 -21 36 -21 53 0 18
-4 44 -10 58 -5 14 -13 57 -16 94 -6 64 -5 68 16 74 12 3 39 0 59 -8 21 -7 67
-16 103 -20 60 -6 69 -5 106 20 55 36 68 71 46 119 -10 20 -34 46 -53 58 -20
13 -41 26 -47 30 -6 4 -22 1 -35 -6 -42 -21 -76 -27 -105 -16 -15 6 -46 12
-69 14 -40 3 -95 40 -95 64 0 6 -10 32 -22 59 -11 26 -20 58 -19 71 1 12 -5
36 -13 54 -9 17 -16 39 -16 49 0 10 -4 21 -10 24 -5 3 -10 16 -10 28 0 12 -7
31 -15 41 -8 11 -15 28 -15 38 0 10 -7 21 -15 24 -8 4 -15 10 -15 16 0 11 -49
58 -61 58 -4 0 -13 2 -21 5 -7 2 -32 -13 -55 -35z"/>
<path d="M19590 17514 c-19 -9 -42 -20 -50 -25 -8 -5 -23 -12 -32 -15 -10 -4
-18 -13 -18 -20 0 -8 -14 -26 -31 -41 -58 -51 -101 -142 -101 -212 0 -25 -32
-60 -55 -61 -13 0 -19 -17 -28 -81 -7 -45 -6 -46 41 -87 26 -23 51 -42 55 -42
5 0 9 -11 9 -24 0 -15 21 -45 60 -85 33 -34 60 -66 60 -71 0 -5 15 -17 33 -26
17 -9 34 -20 37 -23 9 -11 76 -31 104 -31 15 0 48 -5 73 -11 84 -22 279 18
329 66 16 17 50 49 75 71 24 23 55 63 69 88 23 44 24 48 8 57 -12 6 -18 22
-18 43 0 19 -6 38 -12 44 -19 15 -77 2 -89 -19 -5 -11 -18 -19 -28 -19 -10 0
-26 -9 -35 -19 -10 -11 -30 -21 -44 -23 -18 -2 -28 -10 -32 -27 -4 -17 -19
-28 -55 -42 -64 -25 -150 -35 -159 -20 -4 6 -16 11 -27 11 -64 0 -179 67 -179
104 0 16 98 86 120 86 5 0 18 4 28 9 9 5 40 17 67 27 113 39 145 84 124 170
-25 103 -99 206 -158 221 -14 3 -43 14 -63 24 -44 22 -35 22 -78 3z m61 -223
l24 -19 -30 -12 c-16 -6 -43 -18 -59 -26 -16 -8 -30 -13 -32 -12 -6 7 50 88
61 88 7 0 23 -9 36 -19z"/>
<path d="M18157 17510 c-39 -12 -55 -27 -74 -69 -29 -64 -20 -96 38 -137 22
-15 38 -32 36 -37 -2 -6 -23 -15 -47 -21 -34 -9 -47 -19 -62 -46 -10 -19 -17
-46 -14 -60 7 -40 61 -179 74 -192 7 -7 12 -18 12 -25 0 -8 9 -39 21 -71 11
-31 24 -91 27 -132 7 -71 9 -76 37 -89 17 -8 32 -18 33 -23 4 -10 43 -10 57 0
6 4 25 24 43 43 l33 36 -11 63 c-6 34 -16 74 -22 88 -6 15 -12 29 -13 32 -7
30 -30 89 -40 105 -7 11 -24 52 -38 90 -14 39 -39 97 -56 129 -31 60 -30 75 7
76 25 0 72 31 72 46 0 9 11 29 25 46 31 36 33 68 5 68 -11 0 -20 6 -20 13 0
17 -49 63 -75 70 -11 3 -33 1 -48 -3z"/>
<path d="M17656 17253 c-14 -15 -29 -24 -33 -20 -4 4 -26 -11 -49 -34 -37 -36
-42 -46 -37 -74 8 -51 -27 -109 -84 -137 l-48 -23 -3 -75 c-3 -73 -2 -76 28
-101 17 -15 50 -60 73 -100 32 -56 51 -78 79 -92 36 -18 37 -18 86 7 42 21 51
31 58 63 10 47 6 83 -10 103 -40 46 -50 193 -16 247 23 38 48 52 115 67 68 15
73 45 16 110 -23 26 -41 51 -41 55 0 6 -78 31 -100 31 -5 0 -20 -12 -34 -27z"/>
<path d="M17107 17228 c-21 -6 -41 -18 -44 -27 -3 -9 -17 -40 -31 -68 l-25
-53 28 -40 c25 -37 27 -45 18 -73 -7 -18 -10 -83 -9 -149 1 -65 -1 -123 -5
-129 -8 -14 -29 -3 -29 15 0 7 -9 21 -20 31 -11 10 -20 25 -20 33 0 13 -31 56
-75 103 -8 9 -15 23 -15 32 0 9 -11 24 -25 33 -14 9 -25 22 -25 28 0 15 -48
61 -74 70 -25 9 -116 -52 -116 -78 0 -5 -7 -18 -16 -27 -14 -15 -15 -25 -6
-61 12 -47 2 -78 -27 -78 -21 0 -97 90 -118 140 -26 60 -73 120 -94 120 -10 0
-28 5 -38 12 -14 8 -31 9 -58 2 -31 -7 -39 -14 -41 -35 -2 -15 -12 -35 -23
-45 -23 -20 -24 -51 -4 -78 8 -11 15 -27 15 -36 0 -23 29 -46 67 -55 23 -4 34
-14 42 -36 5 -16 15 -29 20 -29 6 0 11 -7 11 -15 0 -8 14 -27 30 -42 17 -15
30 -36 30 -49 0 -13 6 -27 13 -31 16 -10 57 -69 57 -82 0 -6 9 -18 19 -28 11
-10 21 -29 23 -43 2 -18 10 -26 27 -28 14 -2 40 -15 58 -29 26 -20 39 -23 65
-18 51 11 88 42 88 74 0 15 9 44 20 66 11 22 20 59 20 84 l0 44 25 -23 c14
-13 25 -30 25 -37 0 -8 14 -34 30 -58 17 -24 30 -48 30 -54 0 -6 18 -22 39
-35 22 -14 42 -30 46 -36 11 -18 73 -11 108 13 19 12 42 27 52 32 25 15 60
192 58 295 0 30 -2 103 -3 162 -1 58 2 121 8 140 6 18 13 50 17 71 5 33 3 38
-20 49 -14 6 -25 19 -25 29 0 19 -29 40 -52 38 -7 -1 -30 -6 -51 -11z"/>
<path d="M22390 16440 c-19 -5 -100 -9 -180 -9 -170 -1 -339 -14 -369 -30 -11
-6 -32 -9 -45 -5 -13 3 -33 1 -44 -5 -11 -6 -109 -12 -219 -15 -109 -3 -206
-8 -215 -11 -9 -4 -19 -2 -23 4 -6 11 -47 15 -57 6 -3 -3 -50 -8 -104 -11 -54
-3 -124 -7 -154 -9 -78 -5 -239 -14 -348 -20 -51 -2 -98 -8 -105 -12 -12 -8
-63 -16 -202 -34 -66 -8 -132 -7 -230 2 -5 1 -30 -6 -55 -14 -82 -28 -232 -59
-299 -63 -36 -2 -88 -8 -114 -15 -26 -6 -57 -9 -69 -5 -12 3 -27 1 -32 -3 -10
-7 -36 -12 -169 -26 -20 -3 -46 -9 -56 -14 -10 -6 -21 -8 -24 -4 -4 3 -41 5
-84 3 -43 -2 -139 -4 -213 -5 -167 -3 -350 -23 -370 -40 -8 -7 -33 -15 -55
-19 -22 -3 -71 -11 -110 -17 -38 -6 -98 -12 -132 -13 -35 -1 -67 -6 -74 -13
-7 -7 -30 -13 -50 -13 -21 0 -40 -4 -43 -9 -4 -5 -41 -12 -84 -16 -42 -3 -85
-10 -95 -16 -10 -5 -47 -13 -83 -16 -35 -3 -67 -10 -70 -14 -3 -5 -18 -9 -34
-9 -29 0 -48 -4 -185 -35 -38 -9 -97 -18 -130 -21 -33 -2 -67 -7 -75 -10 -8
-3 -49 -9 -90 -14 -70 -7 -176 -28 -345 -67 -38 -9 -92 -18 -120 -19 -27 -1
-61 -7 -75 -12 -14 -5 -61 -10 -105 -11 -43 -1 -100 -7 -125 -12 -25 -6 -81
-13 -125 -15 -258 -13 -352 -22 -385 -39 -17 -9 -55 -15 -95 -15 -37 0 -76 -5
-88 -12 -12 -6 -69 -25 -127 -40 -58 -16 -121 -33 -140 -39 -19 -6 -66 -15
-105 -19 -96 -11 -162 -25 -215 -45 -25 -9 -112 -23 -195 -31 -130 -12 -312
-45 -411 -75 -17 -5 -39 -9 -49 -9 -32 0 -167 -43 -215 -69 -9 -5 -40 -12 -70
-16 -30 -3 -68 -11 -85 -16 -16 -5 -73 -21 -125 -35 -92 -26 -215 -78 -226
-95 -3 -5 -16 -6 -30 -3 -13 3 -24 2 -24 -4 0 -18 -52 -44 -124 -62 -39 -10
-83 -23 -98 -29 -16 -6 -28 -8 -28 -4 0 3 -8 -1 -17 -9 -10 -9 -40 -19 -68
-23 -55 -8 -124 -36 -170 -69 -16 -12 -48 -28 -70 -35 -22 -7 -47 -19 -55 -27
-22 -19 -99 -50 -145 -58 -21 -4 -51 -16 -66 -27 -15 -10 -30 -19 -35 -19 -10
0 -108 -63 -112 -72 -2 -5 -24 -8 -49 -8 -43 0 -110 -17 -180 -47 -17 -7 -36
-13 -42 -13 -5 0 -14 -8 -19 -17 -5 -9 -20 -18 -33 -19 -52 -6 -81 -18 -112
-47 -17 -16 -48 -40 -67 -52 -19 -12 -41 -29 -48 -38 -11 -13 -19 -13 -44 -5
-26 9 -33 8 -47 -9 -16 -21 -58 -47 -76 -49 -5 0 -39 -30 -75 -67 -36 -37 -87
-84 -115 -104 -27 -20 -77 -62 -111 -92 -84 -77 -112 -99 -146 -117 -16 -8
-58 -43 -94 -76 -36 -34 -77 -69 -92 -78 -15 -9 -38 -30 -52 -47 -14 -16 -36
-37 -50 -46 -13 -9 -31 -32 -40 -50 -9 -20 -24 -33 -38 -35 -19 -3 -23 -9 -20
-30 2 -20 -2 -28 -17 -30 -22 -5 -84 -61 -85 -77 -1 -10 -12 -25 -98 -139 -24
-31 -48 -70 -54 -87 -6 -18 -19 -31 -34 -35 -19 -5 -24 -13 -24 -38 0 -18 -4
-36 -9 -41 -15 -15 -61 -105 -61 -118 0 -7 -9 -30 -20 -52 -11 -22 -20 -45
-20 -53 0 -7 -5 -10 -10 -7 -6 4 -19 -12 -29 -34 -10 -23 -20 -38 -23 -35 -3
2 -9 -12 -13 -33 -4 -21 -10 -42 -15 -48 -4 -5 -15 -35 -24 -65 -18 -62 -82
-195 -108 -224 -10 -10 -15 -23 -12 -28 3 -4 1 -8 -4 -8 -13 0 -72 -98 -72
-121 0 -11 -11 -31 -25 -45 -14 -14 -25 -27 -25 -29 0 -13 -92 -147 -104 -151
-8 -3 -16 -18 -19 -33 -3 -15 -22 -51 -41 -80 -20 -29 -36 -57 -36 -62 0 -16
-134 -163 -229 -252 -19 -18 -49 -47 -67 -64 -18 -18 -40 -33 -49 -33 -9 0
-18 -7 -21 -15 -8 -20 -66 -55 -92 -55 -11 0 -23 -8 -26 -18 -5 -16 -50 -49
-69 -51 -4 0 -20 -7 -36 -15 -16 -9 -31 -13 -34 -9 -3 3 -25 -10 -49 -29 -24
-19 -68 -48 -98 -64 -30 -15 -61 -33 -69 -38 -19 -15 -82 -36 -108 -36 -12 0
-25 -5 -28 -10 -4 -6 -28 -20 -53 -31 -26 -11 -55 -25 -64 -30 -10 -5 -35 -9
-57 -9 -22 0 -52 -5 -67 -10 -15 -6 -61 -15 -102 -20 -40 -5 -79 -13 -85 -17
-6 -4 -26 -6 -43 -4 -17 1 -49 -5 -70 -14 -29 -12 -54 -15 -96 -10 -46 5 -63
2 -85 -12 -19 -13 -47 -18 -98 -19 -39 0 -75 -3 -80 -6 -6 -3 -169 -4 -362 -3
-321 3 -357 2 -400 -15 -79 -30 -103 -44 -103 -62 0 -9 -4 -20 -10 -23 -24
-15 -8 -61 39 -113 l47 -53 42 16 c23 10 42 21 42 26 0 15 210 10 270 -6 49
-13 216 -29 310 -28 97 0 357 12 370 17 8 4 89 15 180 27 312 39 343 44 463
87 49 18 96 32 105 32 9 0 49 16 87 36 39 19 104 49 145 66 41 17 81 35 88 41
6 5 51 29 100 54 48 24 96 53 107 64 32 30 106 89 113 89 4 0 25 16 46 35 22
19 46 35 53 35 7 0 13 4 13 9 0 5 43 46 95 92 53 45 98 93 101 105 3 13 17 30
30 39 13 8 24 23 24 33 0 9 7 28 15 42 8 14 19 35 24 48 6 12 14 21 18 20 21
-6 51 16 67 48 9 20 25 38 36 41 16 4 110 138 110 157 0 4 12 25 27 49 40 61
53 87 53 105 0 20 79 182 101 207 21 24 89 155 89 173 0 13 17 46 36 72 6 8
19 39 28 67 10 29 22 55 27 58 5 4 9 13 9 21 0 8 16 40 35 70 19 30 35 60 35
68 0 7 12 30 26 51 18 27 24 48 22 74 -3 31 0 36 19 39 25 4 80 66 108 122 10
19 38 56 63 82 25 26 50 55 56 65 21 38 129 168 145 174 9 4 27 19 41 34 14
15 48 42 75 61 63 41 85 62 108 97 10 15 27 27 38 27 11 0 40 20 65 45 24 25
47 45 52 45 6 0 29 18 53 39 24 21 78 69 119 106 41 37 95 76 118 87 24 12 49
29 55 40 7 10 16 18 21 18 5 0 36 17 70 39 62 39 147 81 164 81 5 0 15 6 21
14 6 8 33 19 59 26 26 6 65 21 87 32 22 11 48 24 57 29 10 5 26 9 37 9 10 0
24 6 30 14 11 13 24 17 101 32 19 4 40 10 45 14 6 4 34 15 64 25 51 17 134 65
146 86 4 5 32 21 63 36 31 15 67 38 79 50 12 13 27 22 32 21 5 -2 16 5 23 14
10 14 33 19 94 22 77 5 99 12 154 48 14 9 41 19 60 23 19 4 71 25 116 46 44
22 90 39 102 39 11 0 24 5 27 10 4 6 10 8 15 5 5 -3 20 1 32 8 20 13 99 40
263 90 28 9 78 20 111 26 34 5 99 25 145 44 106 43 147 53 289 68 63 6 122 15
130 19 9 5 44 11 79 14 38 3 76 14 97 27 25 15 62 23 136 30 99 9 104 10 133
43 28 31 36 34 103 38 40 3 79 11 85 17 6 6 19 11 28 11 10 0 60 13 111 29 90
27 339 71 405 71 18 0 50 6 70 14 42 15 272 43 428 51 56 3 123 11 150 19 28
8 86 17 130 21 44 3 89 12 100 19 25 16 161 47 224 51 25 1 64 8 86 13 41 11
234 40 270 41 26 0 109 15 210 36 44 10 93 19 108 22 15 2 51 11 80 19 61 17
173 34 237 35 25 0 59 7 75 14 31 14 182 37 250 39 22 1 45 4 50 7 6 3 27 7
49 7 21 1 43 5 50 10 11 9 138 23 241 27 28 1 68 5 90 10 41 8 239 17 323 15
9 0 49 4 87 10 39 6 96 12 127 14 32 2 64 8 70 14 7 5 25 10 40 10 57 -1 165
14 208 29 25 8 74 16 110 18 36 2 78 8 93 14 15 6 65 16 110 21 45 6 103 14
129 19 26 4 77 6 113 4 37 -3 111 3 165 12 54 9 107 15 117 14 10 -1 36 0 58
4 71 13 366 17 386 6 13 -7 26 -6 41 2 26 14 51 16 208 20 63 1 120 6 126 11
7 5 65 9 130 10 69 0 142 6 174 15 30 8 76 16 102 17 27 1 50 5 53 8 3 2 49 3
103 1 53 -1 122 1 152 6 30 5 59 6 65 3 5 -3 37 -7 71 -7 34 -1 76 -8 93 -15
21 -8 35 -9 44 -3 18 15 1034 2 1058 -13 5 -3 17 0 28 5 14 8 30 7 60 -4 25
-9 50 -11 68 -6 15 4 66 6 113 4 47 -2 92 -4 100 -4 21 -1 67 0 138 3 94 4
364 -14 406 -27 27 -8 80 -15 117 -15 39 0 71 -5 75 -11 3 -6 19 -9 35 -5 16
3 41 0 57 -6 42 -17 169 -36 185 -27 7 5 38 4 68 -2 30 -5 69 -11 88 -14 19
-2 37 -7 40 -12 3 -4 24 -9 46 -10 22 0 74 -8 115 -17 41 -8 98 -15 126 -16
27 0 54 -4 60 -9 5 -6 43 -12 84 -15 103 -6 233 -32 287 -56 25 -11 61 -20 80
-20 18 0 59 -9 91 -19 31 -10 86 -22 122 -26 36 -4 70 -11 75 -15 15 -12 98
-34 119 -31 19 3 134 -36 151 -51 5 -4 18 -8 30 -8 11 0 60 -20 108 -45 48
-25 99 -45 113 -45 27 0 98 -33 109 -50 4 -6 15 -8 25 -5 13 4 24 -2 36 -20
12 -19 25 -25 52 -25 34 0 107 -38 157 -81 11 -9 40 -27 65 -40 25 -12 54 -30
65 -40 80 -74 100 -89 116 -89 27 0 69 -21 69 -35 0 -12 41 -35 63 -35 7 0 41
-29 75 -65 34 -35 78 -72 97 -81 19 -9 59 -39 88 -68 29 -28 81 -76 115 -106
39 -35 84 -90 122 -152 34 -53 67 -99 75 -102 8 -3 31 -30 50 -60 19 -30 43
-61 53 -68 20 -14 92 -112 92 -125 0 -5 15 -24 33 -43 18 -19 39 -49 46 -67 7
-18 24 -39 37 -47 13 -9 29 -35 36 -58 8 -26 31 -62 61 -93 27 -27 55 -64 62
-82 7 -17 22 -36 33 -42 11 -6 22 -21 26 -35 3 -13 22 -43 41 -66 19 -23 35
-50 35 -60 0 -10 13 -30 30 -43 29 -25 67 -80 111 -162 12 -22 32 -55 46 -72
13 -18 29 -45 36 -60 7 -16 30 -55 51 -88 66 -101 70 -108 101 -170 17 -33 33
-61 37 -63 4 -2 23 -38 43 -80 20 -42 49 -105 65 -139 17 -34 30 -66 30 -71 0
-5 9 -21 20 -34 20 -26 36 -77 49 -158 4 -25 22 -67 39 -94 18 -28 32 -55 32
-61 0 -6 14 -38 31 -71 17 -33 33 -82 36 -111 3 -29 9 -53 14 -53 4 0 11 -17
14 -37 11 -67 36 -177 46 -203 14 -34 20 -281 8 -297 -7 -8 -7 -19 1 -34 10
-18 9 -24 -4 -31 -19 -11 -21 -40 -5 -71 9 -16 9 -22 0 -25 -6 -2 -11 -13 -11
-25 -1 -12 -7 -33 -15 -47 -8 -14 -14 -38 -15 -53 0 -15 -7 -39 -16 -52 -9
-13 -13 -28 -10 -33 3 -5 8 -23 11 -41 4 -23 1 -33 -10 -37 -8 -4 -15 -18 -15
-33 0 -24 -17 -65 -55 -131 -16 -28 -98 -115 -138 -145 -14 -11 -28 -29 -31
-41 -3 -11 -17 -26 -31 -32 -14 -6 -25 -16 -25 -21 0 -5 -21 -19 -47 -31 -27
-12 -70 -37 -98 -56 -49 -33 -135 -64 -186 -67 -15 -1 -35 -9 -45 -18 -11 -9
-37 -20 -59 -24 -22 -4 -45 -11 -51 -16 -7 -6 -21 -6 -35 -1 -13 5 -33 6 -44
1 -45 -18 -52 -12 -59 49 -3 31 -9 108 -11 171 -3 63 -8 118 -11 123 -3 5 -6
40 -6 77 0 59 -3 72 -26 99 -15 17 -36 31 -47 31 -11 0 -31 3 -45 6 -31 8 -96
-45 -87 -70 8 -21 -2 -45 -19 -45 -17 0 -17 -10 -4 -45 13 -34 -18 -93 -60
-119 -16 -9 -32 -25 -35 -36 -4 -11 -12 -20 -18 -20 -7 0 -26 -12 -42 -27 -71
-66 -141 -105 -210 -116 -85 -14 -101 -18 -132 -33 -17 -8 -35 -24 -38 -35 -9
-27 3 -127 16 -134 5 -4 9 -17 9 -31 0 -22 9 -28 36 -25 7 1 14 -5 18 -14 3
-8 13 -15 21 -15 21 0 115 -93 115 -114 0 -9 6 -16 14 -16 14 0 52 -45 98
-117 15 -24 32 -43 38 -43 5 0 10 -6 10 -13 0 -14 95 -121 188 -213 28 -29 52
-57 52 -63 0 -6 10 -11 22 -11 35 0 97 -33 98 -52 0 -12 16 -22 52 -33 78 -23
92 -20 111 20 9 19 21 35 26 35 14 0 8 133 -7 138 -6 2 -12 14 -12 26 0 12 -4
26 -9 32 -6 5 -12 23 -15 39 -3 17 -12 62 -21 100 -8 39 -12 86 -9 106 4 22 2
39 -5 43 -12 8 -15 67 -5 101 5 20 108 75 139 75 36 0 150 37 217 71 10 5 26
9 36 9 21 0 94 34 134 61 14 11 31 19 38 19 7 0 29 12 49 28 48 36 77 52 96
52 10 0 15 10 15 30 0 32 30 56 66 51 17 -2 27 11 51 66 22 48 49 86 92 128
47 46 60 65 56 81 -3 13 3 28 15 39 11 10 20 24 20 32 0 8 7 28 17 46 9 18 17
57 18 87 1 30 7 65 14 77 6 13 14 67 17 120 4 68 10 106 22 123 12 17 17 48
18 102 0 42 7 90 14 108 9 22 11 52 5 108 -4 42 -8 98 -9 124 -1 25 -4 50 -8
54 -4 4 -3 13 3 20 7 9 2 24 -20 55 -21 28 -31 54 -31 77 0 20 -7 43 -16 53
-9 10 -16 36 -16 63 -1 28 -6 47 -15 50 -7 3 -13 12 -13 19 0 8 -9 22 -20 32
-11 10 -20 30 -20 44 0 14 -9 45 -19 67 -10 23 -22 57 -26 75 -4 19 -17 50
-29 69 -37 57 -88 172 -93 210 -3 19 -13 44 -22 55 -30 35 -48 69 -54 104 -9
44 -52 134 -72 151 -8 7 -15 19 -15 26 0 12 -50 94 -78 129 -5 6 -14 25 -20
44 -6 18 -30 60 -52 92 -22 32 -40 65 -40 72 0 7 -13 28 -30 47 -16 19 -29 38
-30 42 -1 21 -82 176 -100 193 -27 24 -70 90 -70 107 0 7 -12 24 -26 38 -35
35 -164 210 -175 238 -5 12 -12 22 -17 22 -19 0 -97 89 -117 135 -20 45 -95
153 -187 272 -18 24 -45 49 -59 58 -16 9 -29 26 -33 45 -6 34 -71 121 -148
202 -27 27 -48 54 -48 61 0 7 -14 20 -30 29 -17 10 -38 32 -48 49 -9 18 -26
39 -36 48 -10 9 -44 39 -76 66 -31 28 -77 60 -102 72 -52 27 -84 51 -148 116
-26 26 -52 47 -56 47 -5 0 -35 18 -67 40 -31 22 -66 40 -77 40 -21 0 -90 38
-90 50 0 4 -26 21 -59 38 -32 18 -64 39 -71 47 -7 8 -25 15 -39 15 -17 0 -38
11 -56 30 -16 17 -37 30 -47 30 -10 0 -35 8 -56 19 -20 10 -80 33 -131 50 -52
18 -107 41 -122 52 -15 10 -34 19 -42 19 -8 0 -31 11 -51 25 -21 15 -51 25
-71 25 -19 0 -37 5 -40 10 -3 6 -15 10 -27 10 -11 0 -41 7 -67 15 -25 7 -66
19 -91 26 -25 7 -76 22 -115 35 -38 12 -84 22 -101 22 -18 0 -51 6 -75 13 -24
6 -61 11 -83 10 -21 -1 -55 6 -75 15 -21 10 -70 19 -116 22 -48 3 -86 10 -96
18 -9 8 -40 15 -74 15 -32 1 -81 10 -109 20 -36 12 -70 16 -115 13 -40 -3 -69
0 -77 7 -8 7 -34 13 -57 14 -24 1 -56 8 -73 17 -21 10 -38 12 -54 6 -12 -5
-28 -4 -34 0 -18 14 -184 35 -222 27 -30 -5 -39 -3 -50 14 -11 16 -20 18 -43
11 -17 -5 -33 -4 -39 2 -5 5 -43 12 -83 14 -41 3 -85 9 -99 14 -14 5 -47 9
-75 8 -27 -1 -86 4 -129 11 -44 7 -93 10 -110 7 -27 -5 -83 -7 -161 -5 -11 1
-45 -1 -75 -3 -30 -3 -91 -1 -135 3 -44 5 -170 11 -280 14 -110 2 -222 6 -250
8 -27 2 -67 -1 -87 -6 -20 -5 -45 -6 -55 -2 -10 5 -40 9 -67 9 -30 1 -51 6
-53 14 -6 15 -30 16 -35 1 -6 -17 -150 -18 -171 0 -15 12 -26 13 -65 3 -26 -6
-78 -10 -117 -7 -38 2 -104 7 -145 9 -41 3 -91 1 -110 -4z"/>
<path d="M6419 13976 c-3 -3 -55 -8 -115 -11 -134 -6 -256 -15 -309 -22 -22
-3 -62 -7 -90 -9 -131 -7 -213 -15 -268 -25 -37 -6 -103 -8 -171 -4 -98 6
-376 11 -811 13 -121 1 -213 -6 -315 -23 -131 -23 -398 -41 -514 -36 -16 1
-36 -5 -46 -14 -9 -8 -28 -15 -42 -15 -32 0 -303 -46 -348 -60 -19 -5 -65 -10
-102 -10 -37 0 -69 -4 -72 -9 -3 -5 -40 -12 -82 -16 -42 -4 -91 -13 -109 -21
-40 -16 -111 -33 -168 -39 -37 -3 -167 -41 -222 -65 -11 -4 -55 -15 -98 -24
-43 -9 -91 -23 -107 -31 -16 -8 -37 -15 -47 -15 -25 0 -203 -40 -229 -52 -11
-5 -47 -11 -80 -12 -33 -2 -95 -16 -144 -34 -121 -43 -192 -57 -292 -57 -49 0
-88 -2 -88 -5 0 -3 -14 -20 -31 -38 -26 -28 -30 -38 -25 -68 3 -19 9 -50 12
-69 3 -19 10 -38 15 -41 5 -3 9 -21 9 -40 0 -19 4 -33 9 -30 11 7 22 -50 25
-124 2 -30 12 -75 23 -100 14 -33 20 -70 21 -136 1 -51 9 -132 17 -180 9 -49
16 -113 16 -143 0 -29 4 -61 9 -71 5 -9 10 -35 11 -56 2 -36 14 -99 27 -134 3
-8 4 -19 3 -25 -9 -32 -9 -45 -2 -41 4 3 8 -15 9 -40 0 -27 7 -53 16 -63 12
-14 14 -24 8 -42 -6 -15 -6 -34 1 -49 5 -14 11 -41 13 -60 8 -76 15 -115 29
-144 14 -34 28 -135 26 -206 0 -24 5 -53 13 -65 7 -11 13 -37 14 -59 1 -21 6
-44 13 -52 7 -8 7 -19 1 -30 -11 -19 -4 -94 9 -108 5 -6 9 -41 9 -79 0 -37 5
-77 11 -88 5 -11 12 -45 15 -77 4 -50 10 -107 30 -257 5 -35 15 -370 14 -450
-2 -93 -6 -144 -13 -151 -12 -12 -8 -63 7 -93 8 -15 11 -33 7 -40 -9 -13 -7
-244 2 -258 3 -5 2 -44 -3 -88 -5 -44 -14 -147 -20 -230 -12 -156 -30 -254
-55 -302 -9 -17 -13 -39 -9 -57 4 -20 3 -26 -5 -21 -8 5 -10 -1 -5 -20 4 -15
2 -30 -3 -34 -6 -3 -14 -25 -18 -48 -5 -34 -3 -45 13 -61 17 -17 18 -26 10
-98 -5 -43 -18 -98 -28 -121 -21 -44 -21 -95 0 -132 30 -58 132 -96 210 -80
36 8 118 16 229 25 35 2 89 12 119 20 32 10 73 14 99 11 24 -2 45 -1 48 3 2 4
71 11 152 15 82 4 180 9 218 11 196 10 235 11 293 1 48 -8 80 -8 135 2 40 8
81 13 92 13 21 -1 187 0 220 1 31 0 121 -18 227 -47 62 -17 120 -26 160 -25
83 1 103 1 298 -6 199 -8 235 -8 370 0 215 12 775 23 875 16 33 -2 101 0 150
4 139 12 342 8 520 -10 94 -10 491 -32 502 -28 6 3 60 -12 120 -33 78 -27 127
-38 178 -39 69 -2 71 -2 102 34 20 22 30 42 26 51 -3 8 -7 39 -9 69 -4 90 -15
143 -35 170 -17 24 -20 42 -18 116 1 11 -6 40 -16 64 -23 63 -29 205 -9 242 8
16 13 33 10 38 -3 4 -12 40 -20 80 -13 63 -13 76 -2 93 12 16 12 27 2 57 -7
23 -10 64 -6 111 3 41 1 88 -3 103 -6 17 -5 44 2 71 6 27 7 55 2 77 -15 56
-27 432 -17 529 2 19 -2 53 -9 75 -7 22 -15 70 -18 107 -4 36 -18 94 -32 129
-27 67 -31 109 -15 140 6 11 11 43 11 72 0 129 -13 577 -18 623 -2 28 0 76 6
108 6 35 7 65 2 74 -5 10 -12 80 -15 157 -4 77 -11 169 -16 205 -5 36 -11 95
-14 132 -2 37 -10 76 -16 88 -16 29 -26 119 -33 282 -2 31 -6 60 -10 64 -4 4
-7 24 -7 45 0 21 -4 48 -9 61 -5 13 -15 69 -22 126 -7 57 -16 105 -21 108 -4
3 -8 18 -8 33 0 15 -9 67 -19 116 -14 60 -17 93 -10 101 10 13 -3 65 -42 169
-10 28 -23 73 -28 100 -18 88 -44 180 -54 186 -5 3 -8 9 -7 13 2 4 -2 32 -8
64 -6 31 -17 87 -23 123 -7 38 -32 106 -58 160 -42 85 -49 94 -76 97 -17 2
-33 1 -36 -2z m-74 -261 c42 -28 63 -55 70 -90 4 -16 14 -40 22 -53 8 -13 18
-48 23 -77 5 -30 17 -72 27 -92 11 -23 18 -61 18 -95 0 -31 3 -54 8 -51 4 2 7
-9 7 -25 0 -16 9 -58 21 -93 11 -35 23 -95 26 -134 2 -38 11 -97 20 -130 9
-33 22 -100 29 -150 7 -49 24 -137 38 -195 23 -94 28 -138 24 -220 0 -14 4
-70 11 -125 6 -55 12 -116 13 -135 1 -19 7 -46 14 -60 7 -14 11 -63 11 -115 0
-49 3 -102 6 -118 4 -15 3 -36 -2 -46 -7 -12 -6 -22 1 -29 15 -15 19 -326 5
-370 -10 -28 -8 -39 12 -76 18 -32 22 -50 17 -72 -12 -46 -5 -255 12 -399 6
-44 9 -127 7 -185 -1 -58 1 -109 5 -115 12 -16 20 -224 10 -251 -5 -13 -6 -24
-1 -24 17 0 33 -59 26 -99 -4 -24 0 -71 10 -120 9 -45 13 -86 8 -93 -4 -7 -9
-49 -10 -93 -1 -44 -5 -116 -9 -160 -4 -44 -6 -138 -6 -210 1 -71 2 -147 2
-168 0 -20 -5 -46 -12 -57 -10 -15 -9 -28 4 -67 9 -26 17 -57 17 -68 0 -11 1
-50 1 -87 0 -37 5 -70 10 -73 6 -3 10 -11 10 -16 0 -6 -5 -7 -11 -3 -9 5 -10
-7 -4 -47 4 -30 9 -86 10 -125 l2 -71 -128 0 c-81 0 -134 -5 -142 -12 -10 -8
-77 -9 -233 -5 -297 9 -675 8 -754 -1 -43 -5 -86 -3 -125 6 -33 7 -64 11 -70
9 -5 -2 -64 -5 -130 -6 -66 -2 -136 -6 -155 -10 -19 -4 -251 -7 -515 -7 -474
0 -668 9 -895 44 -172 27 -443 37 -640 24 -30 -2 -197 -6 -370 -9 -173 -3
-362 -7 -419 -9 -74 -3 -116 -1 -144 9 -22 8 -52 14 -68 14 -18 0 -29 6 -33
18 -6 20 -1 140 7 162 3 8 8 43 11 77 3 34 13 80 22 102 13 32 14 54 8 99 -5
31 -7 75 -5 97 1 22 3 52 3 68 1 15 4 27 8 27 4 0 6 12 4 28 -6 51 -7 277 -4
734 1 251 -1 462 -6 469 -7 12 -19 107 -29 234 -3 33 -7 87 -11 120 -3 33 -7
88 -9 123 -2 35 -8 86 -14 115 -9 46 -13 112 -12 172 0 11 -8 54 -19 96 -10
42 -22 114 -25 160 -4 46 -13 107 -20 135 -7 27 -13 75 -14 105 -1 54 -23 160
-61 299 -11 41 -23 109 -27 150 -3 41 -9 82 -13 90 -4 8 -8 35 -9 60 -2 48
-25 183 -36 213 -4 9 -2 24 5 32 10 12 10 32 -1 97 -7 46 -12 87 -11 91 1 4
-2 17 -8 27 -10 19 -23 162 -21 225 2 39 13 48 91 73 67 22 79 25 255 62 55
11 118 27 140 34 22 8 85 24 140 36 55 12 109 26 120 30 11 4 52 15 90 23 155
35 180 42 185 48 3 3 34 9 69 13 36 3 72 12 80 19 14 12 179 43 284 53 21 2
42 6 47 9 4 3 25 7 46 10 54 7 247 42 292 54 55 14 185 36 202 34 8 -1 62 3
120 8 58 5 157 12 220 15 63 4 122 10 130 14 9 5 47 11 85 15 39 4 80 11 93
16 27 11 403 13 455 4 20 -4 37 -3 37 1 0 9 219 9 228 -1 3 -2 12 1 20 8 15
12 143 17 508 17 109 0 182 4 200 11 45 19 53 20 167 24 60 2 110 5 112 7 2 2
39 1 82 -2 55 -4 87 -11 108 -25z"/>
<path d="M3550 12903 c-8 -3 -17 -9 -20 -12 -3 -3 -32 -19 -64 -35 -59 -30
-106 -71 -106 -92 0 -7 -31 -45 -70 -86 -38 -40 -70 -79 -70 -85 0 -22 -40
-14 -117 23 -74 36 -121 82 -170 164 -18 31 -52 45 -67 30 -6 -6 -26 -10 -46
-10 -38 0 -75 -31 -114 -93 -20 -32 -23 -26 63 -115 34 -34 61 -67 61 -73 0
-19 65 -75 120 -103 30 -16 62 -34 70 -41 8 -7 34 -22 57 -34 23 -12 57 -34
76 -50 18 -16 46 -33 63 -37 37 -9 45 -21 38 -60 -3 -17 -8 -58 -10 -90 -7
-107 -12 -141 -22 -161 -6 -11 -8 -34 -3 -54 9 -44 7 -71 -9 -109 -22 -54 26
-126 93 -137 35 -5 36 -5 42 33 14 85 27 152 40 204 18 72 25 113 30 178 2 30
9 60 16 68 6 8 9 14 5 14 -4 0 4 19 16 43 26 50 31 111 12 150 -9 19 -10 36
-4 51 7 20 4 27 -21 45 -26 19 -29 27 -23 53 3 17 17 43 30 57 13 14 24 28 24
31 0 4 41 42 91 85 50 44 95 91 100 104 6 14 5 45 -3 81 -10 53 -14 59 -41 64
-34 7 -46 7 -67 -1z"/>
<path d="M5445 12421 c-3 -5 -20 -13 -38 -16 -17 -4 -52 -20 -77 -37 -25 -16
-58 -32 -73 -35 -16 -3 -31 -13 -35 -22 -3 -9 -16 -28 -28 -44 -13 -15 -21
-33 -18 -40 3 -8 -2 -27 -11 -43 -8 -16 -15 -52 -15 -80 0 -28 -6 -67 -14 -85
-12 -30 -12 -47 4 -137 10 -56 24 -109 31 -118 19 -23 59 -41 107 -47 34 -4
42 -2 38 8 -3 8 4 46 15 86 15 53 19 96 17 168 -2 83 1 102 20 142 29 58 67
73 173 68 l74 -4 43 48 c23 26 42 52 42 58 0 6 -14 23 -32 37 -17 15 -47 41
-67 58 -28 24 -49 33 -93 38 -32 3 -59 2 -63 -3z"/>
<path d="M4710 12388 c-65 -23 -84 -38 -101 -81 -7 -18 -16 -37 -21 -43 -14
-19 -43 -5 -55 26 -10 27 -14 29 -58 26 -32 -2 -50 -8 -57 -19 -5 -10 -26 -26
-48 -37 -59 -30 -82 -65 -74 -115 5 -34 3 -43 -11 -49 -9 -3 -13 -11 -9 -17 4
-6 13 -46 20 -89 12 -69 18 -82 57 -123 38 -41 152 -107 183 -107 15 0 73 64
104 115 13 22 29 43 36 48 7 4 18 22 24 41 6 18 19 41 30 51 18 16 20 15 45
-22 94 -139 102 -146 169 -137 49 7 106 52 106 84 0 10 2 30 6 46 4 23 -3 38
-33 76 -48 60 -82 114 -129 208 -51 103 -80 140 -107 139 -12 -1 -47 -10 -77
-21z"/>
<path d="M3891 12223 c-13 -3 -30 -10 -36 -16 -6 -7 -34 -27 -61 -46 -51 -35
-68 -64 -108 -186 -15 -48 -16 -120 -2 -156 4 -9 6 -20 5 -25 -2 -16 13 -54
22 -54 5 0 9 -6 9 -14 0 -18 57 -54 98 -62 17 -3 45 -1 64 4 18 6 56 14 83 17
28 3 52 10 53 15 2 6 10 10 18 10 18 0 94 71 94 88 0 6 5 12 10 12 6 0 10 6
10 14 0 8 7 21 15 29 8 8 26 44 40 80 15 36 33 71 40 77 9 7 11 26 8 58 -3 26
-6 47 -6 48 -1 0 -42 19 -91 43 -58 28 -107 44 -137 47 -27 1 -57 8 -68 13
-11 6 -23 10 -28 10 -4 -1 -19 -4 -32 -6z m133 -257 c-11 -33 -56 -67 -79 -60
-22 7 -36 24 -29 35 2 4 -1 9 -8 11 -9 3 -8 11 5 31 33 50 127 35 111 -17z"/>
<path d="M3332 10873 c-80 -24 -107 -55 -117 -133 -5 -36 -9 -72 -10 -80 -2
-39 -18 -108 -30 -135 -8 -17 -15 -62 -17 -100 -2 -39 -6 -72 -9 -75 -10 -9
-41 -169 -34 -180 4 -7 -2 -14 -14 -17 -12 -3 -21 -13 -21 -22 0 -9 -9 -22
-19 -28 -28 -17 -37 -70 -17 -92 9 -10 16 -22 15 -27 -1 -5 1 -17 6 -27 4 -10
-2 -53 -15 -105 -13 -48 -23 -103 -24 -121 -1 -21 -10 -45 -23 -59 -29 -31
-31 -106 -5 -138 30 -35 70 -54 116 -54 40 0 47 4 60 29 12 22 13 37 5 65 -7
27 -6 48 5 85 8 27 12 52 9 54 -3 3 0 21 6 39 6 18 12 49 15 68 5 52 17 80 32
80 7 0 16 11 20 24 5 21 12 24 81 29 41 3 85 2 97 -3 14 -5 28 -3 41 6 14 10
35 13 69 9 27 -3 50 -6 51 -8 0 -1 13 -21 29 -43 25 -38 26 -46 17 -80 -14
-54 -15 -104 -3 -135 11 -28 57 -69 77 -69 7 0 18 -7 25 -15 20 -24 55 -18 68
10 6 14 17 25 24 25 7 0 26 18 41 40 l29 40 27 -19 c38 -28 81 -86 79 -108 -3
-38 2 -64 12 -58 6 3 10 3 10 -2 0 -29 23 -139 30 -148 5 -6 5 -27 0 -50 -21
-90 -16 -105 56 -162 61 -47 94 -58 94 -29 0 6 14 20 30 31 16 11 30 29 30 39
0 10 8 25 18 32 16 12 16 14 -1 41 -32 50 -45 87 -51 153 -9 87 -17 131 -28
153 -11 21 1 159 13 151 5 -3 21 7 35 21 14 14 42 37 62 50 42 27 89 72 133
130 31 39 31 41 27 132 -6 105 -12 117 -78 145 -147 63 -169 66 -335 42 -89
-13 -117 -21 -145 -43 -78 -60 -89 -64 -134 -51 -23 7 -49 19 -59 28 -25 22
-77 135 -92 202 -25 107 -57 183 -141 345 -33 62 -91 135 -107 134 -7 0 -36
-8 -65 -16z m78 -413 c12 -17 26 -47 32 -68 5 -20 16 -50 23 -67 30 -73 35
-87 35 -107 0 -19 -4 -20 -49 -14 -26 3 -59 3 -71 -2 -34 -13 -66 -3 -80 23
-10 18 -9 29 4 57 9 19 18 48 20 66 8 57 41 142 56 142 5 0 18 -14 30 -30z
m806 -425 c18 -17 7 -51 -24 -71 -24 -16 -26 -16 -43 7 -9 13 -19 36 -21 51
-4 25 -2 27 36 26 22 0 45 -6 52 -13z m-323 -50 c30 -22 58 -83 51 -109 -7
-30 -49 -70 -63 -61 -33 20 -61 144 -38 170 15 18 27 18 50 0z"/>
<path d="M4959 10306 c-2 -3 -27 -7 -54 -10 -62 -8 -85 -15 -85 -27 0 -5 -8
-9 -19 -9 -10 0 -31 -7 -47 -15 -35 -18 -105 -105 -96 -120 4 -5 7 -59 9 -120
1 -60 7 -135 13 -165 7 -30 13 -76 14 -101 1 -29 9 -55 24 -73 12 -16 22 -38
22 -50 0 -12 5 -27 11 -33 11 -11 14 -22 49 -163 17 -70 33 -198 31 -247 0 -7
-1 -25 -2 -40 -2 -30 42 -75 98 -99 35 -15 83 -19 83 -6 0 4 16 31 35 60 l34
52 -25 76 c-13 42 -26 83 -28 92 -1 10 -6 28 -9 42 -31 124 -39 171 -41 249
l-3 90 51 17 c28 10 68 28 88 41 21 12 41 23 45 23 19 1 112 99 133 140 39 75
44 280 8 280 -5 0 -27 12 -50 28 -81 54 -96 60 -173 76 -79 16 -108 19 -116
12z m149 -225 c18 -22 11 -61 -15 -88 -13 -12 -23 -29 -23 -38 0 -8 -5 -15
-11 -15 -5 0 -7 6 -4 13 4 6 -2 2 -12 -9 -23 -28 -48 -40 -98 -48 l-40 -7 -18
59 c-23 78 -23 132 1 132 10 0 42 8 71 19 43 15 61 16 94 8 23 -5 48 -17 55
-26z"/>
<path d="M41864 13711 c-6 -7 -219 -22 -287 -21 -32 0 -81 -6 -110 -14 -65
-19 -199 -46 -252 -51 -74 -7 -180 -26 -225 -40 -25 -7 -83 -19 -130 -26 -139
-20 -448 -127 -550 -190 -39 -24 -87 -54 -106 -65 -58 -35 -114 -109 -114
-151 0 -14 -16 -44 -89 -177 -33 -60 -37 -73 -30 -105 17 -76 22 -201 9 -226
-10 -19 -11 -27 -1 -39 9 -11 14 -65 16 -169 1 -85 6 -164 10 -176 4 -13 2
-28 -5 -36 -9 -11 -10 -15 -1 -15 15 0 13 -139 -2 -157 -6 -9 -6 -17 1 -25 14
-18 28 -300 22 -453 -2 -58 8 -263 15 -303 4 -25 2 -42 -4 -47 -17 -10 -13
-33 7 -39 19 -6 21 -20 23 -179 1 -78 -2 -102 -14 -115 -15 -14 -17 -14 -23 4
-4 10 -25 36 -48 56 -39 36 -43 37 -93 32 -58 -6 -95 8 -92 34 1 9 1 22 0 28
-1 15 -75 54 -101 54 -11 0 -19 4 -17 9 1 5 -9 20 -23 34 -49 49 -81 89 -90
113 -5 13 -16 24 -25 24 -8 0 -15 9 -15 19 0 11 -4 23 -10 26 -5 3 -16 21 -25
39 -23 49 -80 104 -125 122 -22 9 -40 20 -40 24 0 14 -104 29 -117 17 -3 -3 2
-20 10 -37 15 -29 15 -32 -2 -49 -10 -10 -25 -21 -32 -23 -12 -4 -12 -9 0 -31
7 -14 14 -44 15 -66 1 -27 8 -45 21 -55 11 -8 20 -25 20 -38 1 -13 4 -29 8
-35 4 -6 7 -34 8 -62 1 -29 6 -54 10 -57 5 -2 5 -12 2 -21 -5 -13 -17 -14 -82
-8 -42 4 -189 9 -327 10 -139 1 -256 5 -260 8 -7 4 -185 10 -244 8 -72 -2
-252 -11 -325 -16 -107 -8 -175 -35 -175 -69 0 -12 -4 -26 -9 -32 -13 -12 -16
-45 -7 -69 5 -11 10 -26 12 -32 2 -7 11 -13 20 -13 10 0 25 -7 35 -16 14 -13
24 -14 56 -5 21 6 61 11 88 11 28 0 73 6 102 14 35 9 65 11 90 6 20 -5 113 -9
205 -9 111 0 180 -4 203 -12 31 -12 40 -11 81 9 25 12 51 19 57 15 14 -9 141
-20 305 -27 158 -7 156 -6 149 -75 -7 -61 -25 -113 -61 -170 -28 -43 -33 -139
-10 -183 8 -15 14 -43 14 -63 0 -20 7 -49 15 -65 14 -26 21 -30 59 -30 58 0
101 16 121 46 8 13 12 24 8 24 -5 0 9 11 30 24 20 12 49 34 65 48 15 13 65 59
112 102 47 43 100 84 118 93 17 8 32 22 32 29 0 8 12 24 27 37 14 12 33 29 41
38 12 14 20 15 54 5 22 -7 42 -17 46 -22 18 -28 51 -21 93 17 23 21 45 39 49
39 3 0 13 -13 23 -29 15 -25 16 -48 12 -157 -3 -71 -11 -134 -16 -140 -6 -7
-12 -43 -15 -81 -2 -37 -9 -87 -15 -109 -16 -59 2 -365 22 -390 5 -6 11 -37
14 -70 l5 -58 -67 -62 -67 -62 32 -7 c36 -7 42 -30 15 -51 -16 -12 -17 -13 -1
-14 9 0 27 -14 40 -31 13 -17 40 -47 61 -67 24 -23 37 -43 34 -54 -3 -11 9
-30 34 -53 26 -23 39 -44 39 -60 0 -18 5 -25 19 -25 10 0 38 -21 62 -47 51
-56 75 -72 149 -101 30 -11 83 -34 118 -51 34 -17 68 -31 75 -31 7 0 46 -11
87 -25 170 -58 185 -61 214 -54 21 6 42 1 89 -22 33 -16 76 -29 95 -29 19 0
60 -6 91 -14 31 -8 83 -17 116 -20 33 -3 92 -9 130 -14 39 -5 99 -8 135 -7 36
1 92 -2 125 -7 33 -4 125 -10 205 -12 161 -5 471 -15 510 -18 48 -2 134 23
244 71 61 27 127 51 147 55 21 4 54 18 75 33 22 14 64 37 94 51 71 33 132 77
148 108 7 13 19 24 26 24 7 0 26 15 43 33 17 17 42 41 57 51 14 10 26 24 26
31 0 7 17 20 38 28 41 16 64 38 60 55 -3 11 98 82 115 82 5 0 11 -8 14 -18 2
-10 14 -22 26 -27 12 -6 22 -19 22 -30 0 -28 55 -31 120 -7 48 19 51 22 72 83
21 61 21 65 4 84 -32 36 -54 79 -44 82 7 3 7 20 2 49 -5 28 -5 53 1 64 6 12 7
28 1 44 -6 13 -11 69 -12 123 -1 53 -6 110 -11 125 -8 22 -6 35 12 63 12 19
17 35 12 35 -5 0 -12 15 -16 32 -5 25 -2 36 10 45 23 17 26 149 4 163 -14 9
-7 14 14 11 4 -1 7 28 4 63 -2 36 0 67 5 69 6 2 12 31 14 66 3 47 0 67 -11 80
-15 16 -8 43 10 42 5 0 8 9 7 20 -2 11 1 17 7 14 6 -3 10 1 10 9 0 8 -9 20
-21 26 -16 9 -18 14 -9 25 7 8 9 28 5 47 -14 73 -14 108 0 134 12 23 12 30 -3
52 -12 18 -15 46 -14 116 3 162 10 305 16 315 3 5 -1 37 -10 71 -12 47 -13 64
-4 75 7 9 9 22 5 32 -12 27 -13 126 -1 141 12 17 8 193 -7 277 -3 17 -1 35 4
41 13 16 13 142 0 183 -7 24 -8 37 0 41 5 4 10 15 9 26 -3 95 -2 145 5 177 7
34 5 39 -14 44 -18 4 -19 8 -9 27 6 11 13 85 15 166 3 79 8 151 13 160 5 9 2
29 -6 49 -8 20 -11 38 -5 45 4 6 9 38 10 71 0 33 4 78 7 101 5 37 3 43 -26 67
-17 15 -36 27 -41 27 -6 0 -8 4 -4 10 7 11 -13 36 -72 98 -24 23 -43 48 -43
53 0 13 -114 129 -126 129 -6 0 -20 9 -32 20 -32 30 -112 70 -139 70 -13 0
-36 6 -51 14 -15 7 -69 21 -120 30 -51 9 -109 25 -128 35 -22 12 -57 19 -100
20 -37 1 -70 4 -75 7 -27 16 -920 50 -935 35z m676 -231 c146 -11 283 -24 305
-30 22 -5 54 -12 70 -16 17 -4 35 -13 40 -21 6 -8 37 -17 70 -20 33 -3 70 -13
82 -20 12 -8 35 -14 50 -12 15 1 35 -1 43 -3 8 -3 33 -12 55 -20 26 -9 45 -24
55 -43 8 -17 26 -39 39 -50 13 -11 29 -26 35 -33 6 -7 19 -21 29 -30 9 -9 17
-22 17 -29 0 -7 4 -13 9 -13 5 0 14 -21 21 -47 6 -26 16 -53 21 -60 7 -7 6
-18 -2 -31 -9 -15 -10 -27 -2 -44 22 -48 -69 -163 -148 -187 -24 -7 -87 -35
-139 -61 -90 -45 -162 -65 -270 -77 -25 -2 -70 -11 -101 -19 -31 -8 -68 -14
-81 -14 -14 0 -65 -14 -114 -31 -67 -24 -117 -34 -204 -40 -63 -5 -138 -13
-165 -17 -28 -4 -93 -5 -145 -1 -88 6 -97 5 -129 -17 -37 -25 -71 -26 -291 -3
-75 8 -116 8 -145 0 -46 -12 -154 -8 -183 8 -11 6 -56 11 -99 12 -43 1 -112 8
-153 16 -41 8 -111 18 -155 24 -49 5 -101 18 -133 34 -28 14 -57 25 -63 25 -6
0 -9 7 -5 15 4 11 -1 15 -18 15 -13 0 -29 7 -36 15 -7 8 -21 15 -31 15 -10 0
-24 9 -31 20 -7 11 -18 20 -24 20 -6 0 -23 9 -37 20 -14 11 -37 20 -52 20 -17
0 -24 4 -19 12 4 6 3 8 -3 5 -6 -4 -16 0 -23 8 -6 8 -28 19 -48 25 -67 21 -92
32 -87 40 8 13 -12 56 -37 80 -23 21 -25 29 -30 134 -2 45 1 60 12 64 8 3 26
16 39 29 13 13 36 26 50 29 14 4 49 17 78 30 28 13 58 24 65 24 8 0 22 6 33
13 39 26 171 77 235 90 36 8 110 22 165 31 55 10 129 24 165 31 36 8 76 14 90
14 38 -1 173 26 199 41 22 11 67 17 286 36 33 3 60 6 61 7 2 1 119 3 261 4
181 2 337 -3 523 -17z m-2328 -792 c11 -7 31 -23 44 -35 12 -12 35 -25 51 -29
15 -4 36 -15 46 -25 9 -10 34 -23 55 -29 20 -5 59 -21 86 -35 27 -14 55 -25
61 -25 6 0 22 -11 34 -24 13 -13 35 -27 49 -31 14 -3 39 -15 54 -26 56 -41
150 -70 253 -79 54 -5 102 -7 106 -5 3 3 55 -2 115 -10 288 -37 464 -49 714
-48 252 1 401 8 430 21 8 4 42 7 75 7 87 1 206 23 289 51 39 14 105 31 146 39
105 18 261 55 274 63 6 4 40 10 76 13 92 10 146 25 208 61 29 16 56 27 59 24
3 -3 12 -1 19 5 9 7 19 4 36 -11 24 -20 24 -24 23 -166 -1 -80 2 -147 5 -149
4 -3 6 -35 4 -72 -2 -39 2 -73 8 -80 8 -10 8 -20 -1 -36 -6 -13 -13 -91 -15
-192 -6 -208 -6 -190 0 -250 6 -63 6 -54 1 -470 -2 -204 0 -358 6 -369 16 -33
14 -80 -7 -119 -18 -34 -18 -38 -3 -50 14 -10 15 -22 6 -87 -5 -41 -9 -113 -8
-160 1 -58 -3 -98 -14 -125 -9 -22 -16 -56 -17 -76 0 -20 -8 -60 -19 -90 -18
-53 -18 -56 0 -80 11 -16 20 -52 25 -101 6 -69 5 -78 -14 -94 -18 -15 -19 -19
-6 -32 11 -10 12 -18 5 -25 -6 -6 -11 -17 -11 -25 0 -7 -11 -37 -25 -67 -19
-42 -37 -63 -85 -96 -33 -24 -60 -46 -60 -50 0 -3 -13 -22 -30 -40 -16 -19
-30 -37 -30 -41 0 -4 -27 -26 -60 -48 -33 -22 -67 -52 -77 -66 -15 -24 -132
-114 -147 -114 -4 0 -22 -11 -40 -25 -18 -13 -68 -36 -112 -50 -43 -15 -88
-30 -99 -34 -20 -9 -75 -21 -178 -41 -33 -7 -172 -12 -315 -13 -228 -2 -262 0
-304 16 -44 17 -49 17 -64 2 -11 -10 -23 -13 -33 -8 -9 4 -50 6 -91 4 -87 -3
-308 18 -316 31 -3 4 -29 8 -57 8 -29 0 -86 9 -127 20 -41 11 -111 24 -155 30
-45 5 -98 19 -120 30 -22 11 -56 20 -76 20 -21 0 -44 6 -51 13 -7 8 -37 17
-67 21 -29 4 -63 14 -76 22 -12 8 -60 28 -106 45 -46 17 -99 40 -116 51 -42
25 -99 95 -108 130 -4 15 -12 26 -19 25 -6 -1 -10 7 -8 17 4 22 -16 65 -37 82
-11 9 -11 14 3 30 22 26 30 180 9 188 -9 4 -13 28 -12 85 1 54 -4 86 -14 102
-27 43 -30 84 -8 120 14 23 17 38 11 49 -5 10 -6 21 -2 25 7 7 11 35 15 125 2
30 7 61 11 69 5 8 9 45 8 83 -1 38 3 79 7 91 5 12 5 31 1 42 -4 11 -3 37 2 59
6 25 5 43 -2 50 -13 13 -13 43 1 48 16 5 15 94 -2 114 -9 11 -14 45 -14 105 0
49 -3 89 -6 89 -3 0 -13 57 -23 128 -13 96 -15 134 -6 156 6 17 7 33 1 40 -12
15 -21 225 -11 270 5 24 4 41 -4 52 -7 9 -11 27 -8 40 2 13 -1 30 -7 38 -8 10
-9 16 -1 21 13 8 13 52 0 60 -12 7 -7 56 10 100 8 20 7 31 -2 42 -14 17 -13
14 -22 113 -4 41 -10 93 -15 116 -4 22 -4 51 1 65 5 13 7 38 3 56 -3 18 -1 34
5 38 6 3 7 11 4 17 -4 6 -9 59 -10 117 -2 58 -6 121 -9 139 -7 36 -4 38 27 20z"/>
<path d="M42185 11690 c-22 -4 -69 -16 -105 -28 -36 -11 -77 -23 -92 -26 -33
-7 -85 -100 -68 -121 6 -7 8 -19 5 -27 -3 -8 12 -31 37 -57 41 -40 43 -45 39
-89 -5 -53 -5 -67 1 -239 2 -67 7 -125 10 -129 9 -8 -2 -155 -12 -179 -5 -11
-14 -38 -20 -61 -5 -22 -19 -49 -31 -59 -20 -19 -20 -19 -1 -35 31 -24 19 -74
-24 -101 -30 -18 -32 -22 -19 -35 15 -15 22 -36 28 -81 4 -31 76 -104 128
-130 101 -51 239 -64 354 -35 201 50 223 59 284 107 33 26 61 51 61 55 0 4 14
10 30 14 24 4 35 15 54 58 42 92 55 146 45 184 -7 25 -6 41 6 63 20 40 19 51
-10 85 -14 16 -25 32 -25 35 0 4 -15 15 -32 26 -44 25 -168 127 -168 137 0 4
-8 8 -19 8 -14 0 -105 42 -119 54 -8 9 23 66 40 71 10 4 17 13 15 20 -4 8 9
17 34 24 41 12 66 43 111 136 12 24 26 41 31 38 6 -4 8 1 4 11 -4 10 -2 26 3
37 8 14 6 27 -5 49 -9 16 -19 30 -23 30 -4 0 -8 10 -8 23 -6 85 -24 104 -146
146 -81 29 -96 31 -220 30 -73 -1 -151 -5 -173 -9z m307 -247 c15 -15 28 -34
28 -43 0 -31 -29 -58 -70 -65 -22 -4 -40 -11 -40 -16 0 -16 -174 -89 -212 -89
-11 0 -10 28 2 32 5 2 6 17 1 38 -4 20 -4 47 1 60 5 14 7 44 3 67 -6 41 -6 42
27 46 18 3 78 3 132 1 92 -3 101 -5 128 -31z m-141 -504 c116 -45 136 -54 181
-85 71 -48 98 -71 98 -83 0 -5 8 -15 19 -20 11 -7 22 -29 28 -61 10 -49 9 -52
-14 -67 -13 -9 -30 -28 -38 -42 -20 -39 -152 -95 -292 -126 -91 -19 -123 -19
-173 1 -47 19 -74 54 -41 54 22 0 67 53 72 85 2 11 0 26 -5 33 -5 9 -1 15 13
19 27 7 26 21 -4 80 -23 45 -23 48 -6 56 15 8 18 20 15 93 l-2 84 48 0 c26 0
72 -9 101 -21z"/>
<path d="M40967 11621 c-17 -15 -40 -31 -50 -34 -9 -4 -20 -15 -23 -24 -3 -10
-10 -26 -15 -35 -5 -11 -5 -19 2 -23 5 -4 9 -14 7 -23 -4 -19 3 -30 55 -81 36
-37 37 -39 37 -114 0 -84 -6 -107 -26 -107 -8 0 -14 -4 -14 -10 0 -5 9 -10 20
-10 11 0 20 -3 21 -7 3 -22 10 -197 10 -258 -1 -155 -24 -288 -57 -326 -8 -8
-14 -23 -14 -32 0 -8 -9 -19 -20 -22 -24 -8 -25 -22 -4 -63 8 -18 13 -36 9
-42 -8 -12 77 -67 128 -82 48 -14 222 15 282 48 75 42 209 104 224 104 5 0 17
12 27 28 9 15 37 44 61 66 24 21 50 50 58 65 7 14 27 41 44 59 20 21 31 44 31
63 0 16 5 29 10 29 6 0 10 19 10 43 -1 23 -1 75 0 115 0 40 -5 82 -11 93 -6
11 -12 46 -13 77 -1 31 -7 66 -13 77 -5 11 -17 34 -27 50 -9 17 -28 55 -43 85
-14 30 -30 57 -35 58 -4 2 -8 10 -8 18 0 7 -17 25 -37 38 -21 13 -50 36 -66
51 -26 25 -80 55 -157 87 -102 44 -118 49 -131 47 -8 -1 -39 1 -69 4 -156 19
-168 18 -203 -12z m354 -257 c87 -40 164 -108 174 -154 4 -17 18 -44 33 -61
23 -28 26 -43 34 -153 8 -119 7 -129 -23 -188 -5 -10 -9 -26 -9 -36 0 -25 -55
-79 -139 -136 -43 -30 -151 -74 -203 -83 -28 -5 -28 -5 -24 42 3 25 10 53 17
61 9 11 9 14 0 14 -8 0 -10 8 -6 21 4 12 2 32 -5 45 -10 18 -10 32 -1 66 22
83 30 302 12 338 -8 16 -8 99 1 121 6 18 6 39 0 63 -9 30 -8 38 6 46 26 15 96
12 133 -6z"/>
<path d="M18450 13646 c-23 -8 -48 -9 -73 -4 -32 7 -49 4 -95 -18 -52 -24 -65
-26 -196 -26 -78 0 -168 3 -201 7 -74 8 -84 9 -113 1 -13 -3 -32 0 -41 6 -13
8 -27 8 -48 1 -18 -7 -36 -7 -46 -2 -14 8 -52 10 -137 7 -14 -1 -47 0 -75 1
-27 1 -97 0 -155 -3 -58 -2 -175 -7 -260 -10 -105 -4 -164 -10 -185 -20 -21
-10 -63 -15 -131 -15 -54 0 -120 0 -146 0 -27 0 -63 0 -80 0 -18 0 -60 0 -93
-1 -33 0 -96 4 -140 10 -107 13 -493 15 -525 3 -33 -14 -276 -9 -293 6 -10 8
-18 7 -31 -2 -13 -10 -41 -10 -119 -4 -74 6 -112 5 -139 -4 -28 -9 -75 -9
-195 -2 -87 5 -159 6 -161 1 -5 -12 -104 -10 -141 3 -25 9 -39 9 -59 -1 -26
-12 -608 -41 -787 -39 -119 1 -244 -5 -259 -13 -11 -6 -21 -6 -25 -1 -3 5 -37
10 -75 11 -43 1 -78 7 -93 17 -19 13 -33 14 -68 7 -24 -5 -56 -7 -71 -4 -26 5
-27 4 -21 -32 3 -20 3 -36 -1 -36 -4 0 -12 -11 -19 -25 -6 -14 -8 -25 -4 -25
3 0 12 -21 19 -47 7 -27 18 -64 24 -83 7 -19 13 -80 14 -135 0 -55 5 -116 9
-135 4 -19 8 -57 9 -85 1 -27 8 -61 15 -75 18 -32 26 -188 12 -231 -5 -19 -11
-67 -12 -106 -1 -40 -5 -73 -8 -73 -3 0 -5 -35 -4 -78 1 -42 2 -94 2 -114 1
-20 5 -39 11 -43 14 -8 13 -92 -1 -101 -7 -4 -9 -21 -6 -40 4 -26 1 -39 -14
-53 -14 -13 -17 -21 -9 -26 7 -4 11 -34 9 -79 -1 -39 4 -98 10 -131 14 -74 14
-142 1 -147 -6 -2 -6 -26 1 -68 7 -46 7 -91 0 -155 -6 -49 -10 -103 -9 -120 0
-16 -3 -131 -8 -255 -8 -224 -10 -343 -5 -410 3 -40 -7 -198 -13 -209 -2 -3 0
-29 6 -56 7 -39 18 -253 19 -410 2 -107 22 -425 29 -442 5 -12 12 -70 16 -130
4 -65 12 -116 20 -128 9 -13 12 -35 9 -65 -3 -25 -7 -84 -9 -132 -3 -64 -8
-91 -20 -104 -14 -13 -14 -19 -4 -32 14 -16 12 -193 -2 -202 -8 -5 -19 -96
-25 -199 -2 -45 -8 -68 -19 -76 -9 -7 -16 -17 -16 -24 0 -19 92 -195 109 -208
18 -13 56 -23 115 -30 37 -4 115 -37 126 -53 13 -18 143 -31 256 -26 118 5
120 5 219 -30 109 -40 203 -54 215 -34 17 27 124 39 238 27 98 -10 224 -14
327 -9 34 1 310 -4 355 -8 8 0 67 2 130 6 63 3 140 5 170 5 30 -1 96 -3 145
-4 52 -1 100 -8 113 -15 15 -9 28 -10 35 -4 23 18 82 23 102 8 12 -9 28 -11
45 -6 15 4 73 11 131 15 57 4 140 13 184 20 46 8 84 9 91 4 6 -5 34 -5 65 0
30 5 58 7 62 4 4 -2 100 -6 213 -7 199 -2 281 2 409 23 140 24 179 26 350 19
99 -4 212 -10 250 -14 39 -3 84 -6 100 -7 17 -1 35 -5 40 -8 6 -3 47 -7 93 -7
45 -1 91 -6 101 -11 13 -7 24 -6 40 5 11 8 29 13 39 10 9 -3 50 -8 90 -10 41
-3 92 -14 118 -25 47 -21 75 -20 124 5 35 17 238 37 397 38 72 1 135 4 138 8
3 3 19 -1 35 -8 30 -16 155 -10 166 7 6 11 316 10 399 0 33 -5 119 -3 191 2
116 10 135 9 166 -6 33 -16 39 -16 79 -1 44 16 178 22 198 10 6 -4 11 -16 11
-27 0 -25 12 -24 28 2 13 20 19 21 130 14 179 -11 286 -11 299 -2 7 5 32 6 55
3 24 -4 70 -9 103 -12 33 -2 65 -6 70 -8 6 -2 50 0 99 4 60 6 94 5 106 -2 10
-6 25 -8 36 -3 11 4 30 9 44 11 14 1 60 8 102 15 43 6 90 9 105 6 16 -3 41 0
58 7 31 13 104 13 168 1 27 -5 37 -4 37 5 0 9 15 11 55 8 40 -3 56 -1 59 9 4
9 19 13 43 12 21 -1 94 4 163 11 69 7 132 12 140 12 8 -1 69 -2 135 -3 142 -1
148 -1 200 -1 22 0 42 -4 45 -8 3 -5 53 -2 110 6 102 14 169 21 295 29 33 2
107 8 165 13 58 6 109 7 114 5 20 -13 225 -16 240 -4 6 4 26 8 45 9 18 2 41 7
51 12 23 12 70 13 89 1 9 -6 22 -6 33 0 17 9 160 -2 204 -16 14 -4 27 -1 38
11 15 14 39 18 134 19 65 1 129 5 143 9 18 5 31 3 40 -6 13 -15 65 -13 85 3 6
5 67 11 135 13 110 4 126 2 150 -15 22 -16 30 -17 41 -6 9 9 55 12 171 11 147
-1 159 -2 180 -22 26 -24 82 -30 90 -9 4 10 36 13 148 10 79 -2 148 -8 153
-14 14 -13 47 -11 80 6 36 19 85 19 123 0 19 -10 52 -14 89 -13 50 3 60 6 69
25 7 17 24 25 62 34 48 9 55 14 69 47 9 20 17 42 18 48 1 7 8 19 15 28 10 12
10 23 1 51 -6 19 -11 86 -11 148 2 146 2 145 -16 192 -15 38 -23 112 -27 220
0 28 -5 56 -9 63 -5 6 -10 31 -11 55 -2 23 -8 57 -14 75 -7 22 -7 32 0 32 7 0
7 5 -1 14 -8 9 -10 44 -6 107 6 111 8 357 5 520 -2 64 1 123 5 130 5 7 9 29
11 48 3 51 32 257 45 316 6 28 13 93 14 145 4 113 15 289 21 345 2 22 6 67 8
100 10 141 19 215 29 215 5 0 7 14 5 32 -6 35 17 322 26 337 3 5 6 29 7 53 0
23 7 63 15 88 8 25 14 57 13 70 -1 14 6 108 15 209 10 100 14 197 11 213 -5
20 -1 44 11 70 17 37 17 41 1 49 -20 12 -23 65 -5 104 10 22 9 28 -3 35 -15
10 -16 24 -21 275 -2 128 6 271 19 330 4 17 6 41 4 55 -4 48 29 231 49 271 26
50 19 79 -30 118 -37 30 -38 30 -99 19 -48 -9 -73 -9 -111 1 -27 7 -53 10 -58
7 -12 -7 -364 -22 -422 -17 -14 1 -66 1 -117 1 -53 -1 -102 4 -114 11 -13 7
-38 9 -63 4 -78 -12 -371 -22 -546 -17 -52 2 -131 -2 -175 -8 -127 -17 -264
-17 -270 -2 -4 11 -31 12 -134 7 -86 -4 -131 -3 -136 4 -7 13 -83 12 -91 -1
-9 -14 -91 -9 -104 7 -12 14 -15 13 -35 -5 -18 -17 -44 -22 -160 -31 -131 -11
-139 -11 -152 7 -11 15 -17 16 -31 7 -14 -8 -26 -8 -48 2 -42 17 -102 27 -116
18 -7 -4 -19 -8 -28 -9 -8 -1 -38 -7 -67 -13 -42 -8 -57 -7 -82 5 -17 8 -36
12 -41 9 -22 -14 -222 -17 -246 -4 -15 7 -28 9 -36 3 -14 -10 -98 -11 -213 -2
-38 3 -83 1 -98 -5 -20 -7 -41 -6 -69 2 -32 10 -43 10 -55 -1 -11 -9 -41 -12
-89 -11 -45 1 -84 -3 -99 -11 -26 -14 -40 -14 -300 -1 -77 4 -169 6 -205 6
-81 -2 -215 -2 -255 0 -16 1 -55 -2 -85 -5 -56 -7 -249 -16 -330 -16 -193 -1
-209 1 -225 16 -13 13 -21 14 -44 4 -20 -8 -40 -9 -67 -1 -22 5 -81 10 -132
10 -58 0 -99 4 -108 11 -8 7 -35 14 -61 15 -27 2 -73 11 -103 20 -85 26 -181
37 -207 24 -14 -8 -51 -10 -103 -6 -45 3 -94 2 -110 -3 -18 -5 -37 -4 -52 4
-13 7 -39 9 -60 6 -21 -4 -42 -2 -47 3 -5 5 -34 12 -63 15 -59 5 -55 5 -153
-3 -45 -3 -78 -1 -93 7 -18 9 -30 9 -57 -1 -43 -15 -142 3 -147 26 -2 12 -31
16 -143 18 -85 3 -162 10 -195 19 -64 18 -56 18 -100 2z m225 -241 c113 -13
146 -18 151 -26 3 -5 30 -9 59 -9 30 0 70 -7 89 -17 26 -12 41 -14 57 -7 14 6
47 7 88 2 36 -5 129 -10 206 -12 77 -2 173 -7 213 -11 51 -5 85 -4 112 5 31
10 46 10 81 -1 40 -13 44 -17 47 -51 5 -57 -15 -118 -38 -118 -21 0 -27 -15
-10 -25 6 -4 8 -16 5 -27 -5 -13 3 -33 21 -60 26 -37 27 -41 11 -53 -23 -16
-21 -25 4 -25 19 0 20 -4 13 -47 -5 -27 -7 -82 -5 -123 4 -75 4 -88 3 -235 -2
-126 7 -544 12 -608 3 -31 8 -62 12 -68 5 -8 15 -204 15 -281 0 -10 -1 -24 -1
-30 0 -7 3 -44 5 -82 3 -46 1 -74 -7 -84 -10 -11 -9 -17 5 -27 10 -7 17 -17
16 -21 -2 -5 1 -69 5 -142 6 -94 5 -136 -3 -146 -6 -7 -11 -33 -10 -57 1 -24
1 -109 -1 -188 -1 -120 -5 -152 -21 -185 -16 -34 -17 -46 -8 -74 6 -19 9 -55
5 -81 -3 -26 -9 -124 -12 -217 -6 -202 -9 -238 -18 -253 -4 -6 -4 -16 0 -23 5
-7 7 -29 5 -50 -1 -20 2 -46 8 -57 7 -13 8 -28 2 -45 -10 -24 2 -144 18 -176
12 -27 14 -319 1 -334 -7 -9 -9 -40 -6 -88 3 -40 1 -87 -5 -104 -7 -23 -6 -56
3 -115 10 -60 11 -115 6 -194 -5 -61 -6 -140 -3 -177 4 -44 1 -83 -8 -115 -7
-26 -13 -79 -12 -116 1 -58 -2 -70 -18 -78 -10 -6 -26 -8 -35 -4 -9 3 -96 6
-192 5 -96 -1 -319 -3 -495 -4 -207 -2 -349 -7 -402 -16 -66 -11 -93 -11 -137
-1 -49 11 -56 16 -66 46 -6 19 -10 45 -9 57 2 13 -1 33 -5 45 -4 12 -2 57 5
100 6 43 12 175 14 293 2 209 4 234 27 312 7 25 8 41 1 50 -11 13 -9 156 3
218 3 19 6 64 5 100 -1 41 4 76 14 94 13 24 13 39 4 92 -11 63 -8 200 12 519
5 77 10 199 12 270 3 142 14 228 28 219 12 -7 11 3 -3 25 -9 15 -9 34 1 83 7
35 12 79 12 98 -1 19 3 50 9 69 6 22 6 39 0 46 -11 13 -1 153 11 161 5 3 6
122 3 265 -5 190 -3 267 5 283 10 17 9 28 -3 50 -12 24 -12 35 -1 72 9 31 10
44 1 47 -7 2 -12 34 -13 83 -3 157 -11 290 -17 321 -4 18 -3 41 4 53 8 15 8
29 -2 56 -9 26 -10 39 -1 53 9 15 8 24 -5 42 -14 20 -17 52 -18 194 0 94 -4
177 -7 185 -3 8 -8 40 -10 70 -3 30 -8 63 -12 72 -3 9 -2 25 3 35 12 22 5 108
-11 141 -8 17 -8 28 1 42 7 12 8 28 3 47 -5 15 -12 40 -15 55 l-6 28 82 -6
c46 -3 97 -7 113 -9z m-1076 -9 c36 -3 73 -8 83 -12 10 -3 41 2 69 11 41 14
58 15 94 6 40 -10 328 -6 346 5 4 2 26 -3 48 -12 38 -15 54 -37 56 -74 2 -31
16 -116 26 -152 14 -55 28 -261 18 -274 -5 -6 -5 -14 -1 -18 4 -4 10 -69 13
-144 8 -158 17 -258 25 -287 19 -59 45 -1028 30 -1054 -2 -3 -7 -78 -11 -166
-4 -88 -10 -164 -12 -168 -3 -5 -7 -82 -9 -170 -6 -233 -10 -314 -23 -387 -7
-42 -8 -91 -2 -135 4 -39 4 -83 0 -100 -5 -16 -9 -52 -9 -80 0 -27 -7 -91 -15
-142 -8 -50 -12 -99 -8 -108 3 -10 1 -20 -5 -24 -8 -5 -9 -17 -1 -46 6 -21 8
-57 5 -79 -6 -38 -8 -72 -6 -113 4 -78 -7 -163 -24 -182 -13 -14 -17 -29 -13
-53 11 -63 24 -123 31 -140 4 -9 -1 -34 -13 -58 -16 -33 -19 -55 -16 -102 3
-33 1 -67 -5 -79 -8 -14 -8 -45 -1 -109 8 -63 8 -96 0 -117 -6 -15 -11 -53
-11 -83 0 -30 -6 -87 -13 -126 -8 -40 -11 -82 -8 -94 3 -12 0 -32 -7 -46 -12
-21 -11 -27 8 -47 26 -28 27 -43 6 -108 l-17 -51 -201 6 c-111 4 -221 12 -246
18 -25 6 -73 11 -107 11 -37 0 -64 4 -66 11 -3 6 -22 10 -43 10 -369 -13 -454
-17 -483 -26 -18 -6 -167 -12 -330 -15 -163 -2 -309 -5 -326 -5 -37 -1 -422 0
-490 2 -27 0 -99 0 -160 -1 -60 -1 -126 -2 -145 -2 -19 0 -122 3 -229 7 -149
5 -196 4 -202 -6 -6 -9 -16 -9 -42 -1 -25 8 -47 8 -76 0 -31 -8 -46 -8 -65 2
-13 8 -33 10 -43 7 -50 -20 -344 -25 -367 -7 -6 5 -63 8 -126 8 -63 0 -139 4
-167 8 -39 5 -53 4 -53 -5 0 -8 -6 -9 -17 -5 -35 15 -92 22 -101 13 -6 -6 -41
-1 -90 11 -44 12 -91 21 -103 21 -22 0 -67 12 -118 32 -14 5 -28 5 -35 -1 -8
-7 -31 -7 -67 -1 -30 6 -67 12 -83 13 -16 2 -34 10 -39 18 -8 12 -21 13 -78 6
-52 -7 -72 -7 -84 3 -19 16 -19 44 0 60 12 10 13 16 4 27 -13 15 -6 204 15
393 15 137 13 462 -3 504 -7 16 -14 79 -17 139 -4 73 -11 118 -21 133 -10 16
-12 28 -5 41 6 10 7 24 2 34 -12 21 -21 291 -25 699 -2 173 -4 353 -6 400 -2
47 1 91 5 98 4 7 5 34 1 60 -3 26 -1 115 5 197 5 83 11 182 11 220 1 39 6 76
13 84 20 25 11 246 -13 327 -20 66 -21 86 -7 189 32 231 31 218 23 445 -3 63
-1 142 3 175 4 33 3 74 -2 90 -4 17 -9 115 -9 219 -1 166 -4 193 -20 220 -31
51 -23 138 12 129 10 -3 34 4 52 15 23 13 39 17 50 11 9 -6 27 -5 44 2 15 6
44 11 63 11 19 -1 53 4 75 10 22 7 45 10 50 9 29 -8 402 -6 412 1 7 6 23 4 41
-6 24 -12 42 -13 98 -5 112 16 178 20 384 21 107 0 200 4 205 9 14 10 263 -7
346 -24 44 -9 72 -11 84 -5 9 6 36 7 59 4 24 -4 85 0 142 10 109 18 379 22
639 10 271 -13 389 -15 400 -6 7 6 26 5 48 -1 21 -5 41 -8 46 -5 16 10 71 -6
71 -21 0 -19 25 -11 25 8 0 8 4 19 7 25 11 17 137 26 175 12 27 -10 35 -9 52
6 16 14 37 17 135 15 64 -1 119 0 121 3 7 6 271 2 364 -6z m7243 -110 c85 -3
140 -1 144 6 6 9 26 8 175 -7 19 -2 39 -5 45 -6 5 -1 34 1 65 5 34 5 77 4 105
-2 31 -7 53 -7 59 -1 11 11 58 12 69 2 12 -13 189 -11 223 3 24 10 35 10 48 0
19 -13 21 -45 11 -171 -6 -84 -18 -325 -19 -405 -1 -19 3 -93 7 -165 10 -138
10 -533 1 -649 -3 -39 -10 -73 -16 -76 -9 -6 -13 -50 -24 -250 -6 -128 -17
-225 -27 -237 -8 -10 -13 -42 -24 -173 -2 -25 -9 -83 -14 -130 -6 -47 -13
-121 -15 -165 -1 -44 -6 -123 -11 -175 -8 -105 -9 -140 -5 -155 2 -5 3 -34 2
-62 -1 -46 -4 -53 -21 -53 -24 0 -25 -8 -5 -37 16 -23 11 -83 -16 -203 -18
-75 -21 -93 -24 -132 -1 -21 -8 -45 -16 -54 -10 -12 -10 -20 -1 -35 16 -25 15
-29 -8 -29 -11 0 -20 -4 -20 -10 0 -5 6 -10 14 -10 21 0 27 -27 10 -45 -10 -9
-13 -22 -9 -33 23 -55 31 -133 23 -242 -5 -63 -6 -144 -2 -180 4 -53 1 -76
-16 -119 -19 -50 -20 -57 -6 -100 8 -25 18 -91 21 -146 4 -55 11 -105 16 -112
9 -10 26 -85 33 -140 1 -13 9 -31 18 -40 26 -31 30 -43 18 -58 -9 -10 -8 -24
3 -57 14 -41 10 -129 -7 -157 -6 -9 -399 -5 -526 5 -36 3 -86 7 -111 8 -25 1
-51 6 -57 10 -7 4 -25 0 -40 -10 -27 -15 -31 -15 -62 1 -29 15 -40 16 -90 5
-42 -9 -63 -9 -78 -1 -11 6 -29 11 -40 11 -25 0 -52 30 -53 61 -1 13 6 56 14
94 9 39 16 101 16 138 0 38 4 74 10 81 7 8 6 21 -4 40 -17 32 -19 103 -5 161
6 22 13 87 16 145 3 58 10 110 16 117 6 8 3 21 -13 42 -19 27 -21 38 -17 118
4 60 1 107 -9 148 -11 43 -13 68 -5 90 5 16 10 48 11 70 2 63 12 98 33 122 21
22 17 43 -7 43 -20 0 -29 56 -15 91 10 24 10 35 0 54 -7 13 -14 61 -16 107 -1
46 -4 97 -5 113 -1 34 6 83 14 91 3 3 1 20 -4 37 -16 52 -17 166 -2 171 16 6
17 42 3 51 -6 4 -8 15 -5 26 4 11 8 54 10 96 3 66 7 80 26 96 18 14 21 22 13
35 -8 14 -11 101 -3 122 1 3 1 44 0 91 -2 68 1 88 14 99 9 8 13 20 9 33 -3 11
0 38 7 59 10 31 10 44 1 59 -7 11 -10 25 -6 31 4 6 8 31 10 57 9 127 29 191
60 191 22 0 17 21 -12 51 -22 23 -27 39 -31 96 -2 37 -9 110 -15 161 -9 75 -8
98 3 118 10 20 11 29 1 45 -7 11 -10 28 -7 39 3 10 -2 37 -11 60 -14 34 -15
58 -9 128 4 48 8 119 10 158 2 40 6 82 10 94 4 14 1 28 -11 41 -15 16 -15 23
-4 43 13 25 6 51 -11 41 -5 -4 -9 1 -9 9 0 9 9 21 20 28 25 16 25 23 -1 49
-16 16 -20 29 -16 54 3 18 1 37 -5 43 -8 8 -8 24 0 54 9 36 8 45 -5 61 -23 24
-28 157 -8 204 12 27 18 33 37 29 13 -3 85 -7 160 -10z m-4687 -27 c55 -4 145
-14 200 -22 55 -8 104 -12 108 -10 4 3 47 4 95 3 121 -2 152 -1 172 10 10 5
21 5 26 0 11 -11 157 -16 173 -5 7 4 18 0 25 -10 12 -16 15 -16 37 -2 23 15
140 19 155 5 3 -3 17 0 31 7 22 12 29 11 48 -3 28 -21 46 -90 46 -173 -1 -35
2 -80 5 -100 4 -26 0 -48 -14 -76 l-21 -40 22 -21 c19 -20 20 -25 9 -54 -9
-26 -9 -35 2 -47 10 -12 12 -36 9 -89 -3 -40 -2 -80 2 -90 4 -9 9 -66 11 -126
2 -75 9 -121 20 -144 14 -29 15 -54 10 -151 -4 -64 -6 -123 -6 -131 0 -8 0
-24 0 -35 0 -11 7 -44 17 -73 14 -42 15 -58 6 -82 -8 -22 -8 -38 3 -68 16 -47
17 -98 6 -172 -7 -41 -6 -57 3 -62 14 -9 25 -93 30 -236 5 -123 13 -203 26
-269 5 -28 9 -58 8 -65 -1 -7 0 -24 4 -38 19 -80 30 -402 14 -412 -8 -5 -6
-20 6 -55 20 -55 22 -93 6 -93 -7 0 -5 -9 5 -25 9 -13 16 -34 16 -47 -2 -93 2
-172 9 -190 4 -12 4 -41 0 -65 -6 -32 -5 -50 5 -66 7 -12 21 -94 31 -182 9
-88 21 -171 26 -185 7 -21 27 -172 28 -220 1 -35 13 -191 20 -262 4 -42 3 -86
-1 -98 -4 -12 -3 -30 2 -40 14 -26 13 -110 -1 -110 -7 0 -8 -7 -4 -17 27 -69
14 -412 -17 -448 -4 -5 -27 -10 -51 -11 -23 0 -87 -6 -142 -12 -242 -28 -286
-31 -398 -28 -67 2 -123 9 -131 15 -10 8 -21 8 -41 1 -16 -6 -89 -10 -167 -9
-122 2 -142 5 -164 22 -22 17 -29 18 -48 7 -23 -12 -35 -13 -171 -13 -38 0
-110 0 -160 0 -85 0 -91 1 -103 24 -9 16 -11 44 -7 87 5 45 3 62 -5 62 -12 0
-11 12 5 85 9 40 8 70 -3 140 -6 33 -9 105 -7 160 2 55 3 114 3 130 -2 47 1
133 6 215 7 112 9 371 3 400 -9 39 -22 384 -17 440 1 8 -1 30 -4 48 -3 18 -1
45 5 59 5 15 9 88 9 162 -1 75 -2 151 -1 170 0 18 7 41 17 52 13 15 15 24 6
46 -9 24 -9 64 -3 185 0 15 11 36 23 47 17 17 19 25 11 43 -12 29 -8 151 7
178 9 16 8 25 0 35 -12 15 -14 37 -9 165 1 54 -2 84 -15 107 -9 18 -16 52 -16
75 2 104 -2 189 -9 215 -5 15 -4 39 1 52 5 15 4 28 -3 37 -14 18 -4 44 17 44
12 0 14 5 8 18 -4 9 -8 28 -9 42 -1 14 -7 41 -13 60 -28 84 -36 366 -12 395 7
9 7 35 0 85 -7 51 -7 76 0 85 7 9 8 15 1 20 -15 8 -10 77 6 93 15 15 17 32 4
32 -10 0 -21 59 -11 65 8 5 5 241 -5 288 -5 27 -3 47 10 73 12 26 15 48 10 73
-3 20 -7 43 -8 52 -1 8 -10 23 -19 33 -20 20 -20 19 -13 38 4 11 19 13 53 10
26 -2 92 -8 147 -13z m2394 9 c79 1 148 -1 154 -5 6 -4 56 -7 112 -8 115 -2
154 -17 173 -67 6 -16 16 -27 21 -24 10 7 15 -7 24 -68 4 -22 0 -30 -14 -33
-15 -4 -19 -15 -19 -48 0 -26 6 -47 15 -55 8 -7 15 -27 15 -46 0 -18 4 -35 9
-39 11 -6 4 -70 -11 -101 -7 -15 -7 -39 0 -75 6 -30 11 -74 12 -99 3 -107 15
-254 24 -290 4 -14 9 -50 11 -80 3 -30 8 -73 11 -95 2 -22 7 -65 9 -95 2 -30
6 -71 9 -90 3 -20 -1 -46 -8 -59 -12 -21 -12 -28 1 -48 10 -15 14 -38 10 -70
-2 -27 0 -79 6 -116 8 -52 7 -73 -3 -92 -10 -18 -10 -38 -2 -87 19 -109 23
-182 12 -214 -8 -24 -6 -56 10 -145 31 -166 34 -195 21 -203 -8 -5 -7 -16 2
-39 9 -20 11 -43 6 -60 -5 -18 -2 -41 7 -63 13 -32 13 -39 0 -59 -12 -19 -13
-24 -1 -36 19 -19 23 -202 5 -224 -10 -12 -10 -21 -1 -43 13 -31 13 -178 -1
-205 -6 -12 -4 -22 7 -33 17 -18 21 -74 4 -74 -8 0 -8 -5 1 -15 7 -8 14 -42
15 -74 3 -48 0 -61 -13 -66 -16 -6 -15 -7 1 -17 15 -8 18 -21 17 -71 -1 -34
-2 -98 -2 -142 -1 -44 -2 -105 -2 -135 -1 -30 -5 -58 -11 -62 -6 -4 -3 -12 8
-20 16 -12 17 -23 9 -101 -4 -48 -5 -90 -1 -95 10 -10 -8 -273 -21 -308 -18
-47 -30 -148 -39 -327 -5 -104 -13 -173 -20 -180 -8 -8 -19 -8 -41 0 -23 8
-33 8 -47 -3 -10 -7 -34 -14 -53 -14 -19 0 -53 -5 -75 -10 -22 -5 -87 -11
-145 -14 -58 -3 -114 -8 -125 -10 -65 -12 -138 -16 -280 -15 -385 3 -444 2
-507 -5 l-68 -8 -11 28 c-8 22 -8 39 1 69 13 43 13 50 6 135 -11 126 -14 386
-4 397 6 8 6 19 -1 32 -14 25 -14 68 -1 76 13 8 13 42 1 47 -15 5 -17 118 -2
127 10 6 10 13 2 27 -24 42 -38 92 -40 144 -2 30 -5 58 -7 62 -3 4 -1 15 4 24
6 10 2 35 -11 72 -11 32 -24 98 -29 147 -4 50 -12 126 -17 170 -4 44 -13 94
-20 112 -11 28 -10 36 5 62 17 29 17 32 2 43 -18 14 -24 80 -29 288 -1 52 -6
116 -11 142 -6 30 -6 70 0 110 8 51 7 66 -4 79 -8 9 -14 29 -13 45 1 16 -4 60
-10 98 -7 38 -10 71 -7 73 2 3 -2 26 -10 53 -10 35 -11 55 -4 75 7 17 6 41 -1
72 -5 26 -9 90 -8 142 1 55 -4 116 -11 141 -7 25 -12 68 -12 95 1 28 -3 60
-10 72 -8 17 -8 29 -1 46 8 17 7 38 -3 77 -7 29 -11 58 -7 64 4 6 6 71 5 146
-1 74 2 159 7 187 4 29 5 55 2 59 -8 8 -11 45 -12 129 -1 50 -5 75 -17 88 -13
15 -14 20 -3 26 9 6 10 14 3 27 -16 32 -24 94 -12 94 7 0 9 8 4 23 -4 12 -7
49 -6 81 1 33 -2 64 -7 70 -14 18 -23 84 -11 91 6 3 8 22 4 43 -3 20 -7 82 -9
137 -1 55 -5 124 -8 153 -5 50 -3 54 21 63 17 7 62 7 132 0 152 -14 579 4 600
26 3 3 48 2 100 -3 52 -4 160 -7 239 -6z m969 -4 c17 -12 36 -14 73 -10 27 3
71 9 97 12 37 4 51 2 61 -10 17 -20 31 -21 31 -2 0 21 25 26 49 9 20 -13 25
-13 53 0 29 14 34 14 56 -4 31 -24 67 -24 94 0 19 18 33 19 172 16 156 -3 178
-7 206 -35 15 -15 15 -19 2 -38 -11 -18 -12 -25 -2 -37 32 -39 45 -166 26
-269 -13 -74 -12 -81 5 -110 21 -35 27 -136 8 -136 -7 0 -5 -10 5 -25 13 -20
16 -43 13 -110 -2 -47 -7 -88 -11 -92 -3 -4 3 -17 15 -29 l21 -23 -21 -27
c-27 -34 -26 -40 5 -81 14 -18 22 -38 19 -43 -4 -6 -2 -17 5 -25 6 -7 11 -42
10 -77 0 -35 4 -98 10 -141 8 -53 8 -82 1 -90 -6 -8 -6 -18 -1 -27 6 -8 10
-27 10 -42 0 -15 5 -30 10 -33 9 -6 6 -37 -7 -75 -3 -8 -6 -44 -8 -79 -2 -48
-7 -68 -20 -77 -14 -11 -16 -16 -6 -28 9 -11 9 -30 2 -78 -6 -34 -13 -124 -15
-198 -4 -139 -8 -179 -20 -198 -6 -10 -15 -55 -20 -102 -1 -14 -5 -32 -8 -40
-23 -55 -26 -81 -15 -115 8 -27 8 -41 0 -55 -7 -10 -10 -26 -7 -37 3 -10 1
-38 -5 -62 -7 -32 -6 -57 5 -98 16 -63 18 -166 4 -193 -6 -12 -7 -21 0 -25 5
-3 10 -36 10 -73 1 -37 2 -92 2 -122 1 -30 -4 -73 -10 -95 -9 -33 -8 -43 4
-57 12 -12 14 -25 8 -50 -5 -18 -9 -64 -10 -103 0 -38 -4 -95 -8 -125 -5 -41
-3 -65 9 -93 11 -28 13 -47 7 -71 -7 -25 -5 -41 10 -72 18 -35 19 -51 13 -169
-4 -71 -9 -146 -12 -165 -2 -19 -5 -107 -6 -196 -1 -101 -6 -166 -13 -175 -18
-22 -27 -108 -14 -124 8 -9 8 -19 1 -32 -5 -10 -19 -39 -30 -64 l-21 -46 -45
7 c-25 4 -48 10 -51 13 -4 3 -16 1 -28 -5 -11 -7 -52 -13 -91 -14 -38 -1 -117
-6 -175 -10 -58 -3 -118 -6 -135 -6 -79 2 -95 3 -124 12 -17 5 -33 5 -36 1 -6
-10 -88 -21 -187 -25 -60 -2 -78 1 -78 11 0 19 -18 16 -48 -8 -25 -19 -27 -19
-39 -3 -14 19 -19 205 -6 217 3 4 7 37 8 75 0 37 6 81 12 97 18 47 32 148 39
290 5 103 10 132 23 142 14 11 14 14 1 22 -12 8 -15 38 -17 148 -1 76 -2 199
-4 273 -1 74 2 172 6 218 5 57 3 87 -5 97 -7 8 -10 48 -8 107 1 51 -1 188 -6
303 -4 116 -7 221 -6 235 5 58 1 118 -10 160 -6 24 -10 69 -10 100 1 30 -3 77
-9 103 -6 27 -12 119 -15 205 -2 100 -8 167 -17 185 -9 19 -10 31 -2 35 16 11
24 102 12 147 -20 80 -21 115 -4 115 21 0 19 27 -5 57 -21 27 -26 78 -11 102
5 8 5 27 0 45 -6 17 -12 81 -14 141 -5 114 -16 300 -22 370 -13 145 -18 308
-13 430 1 43 -12 168 -21 200 -1 6 3 30 10 54 9 31 10 51 3 66 -6 13 -7 28 -1
36 5 8 9 11 9 8 0 -3 23 -2 52 2 28 5 56 5 61 2 19 -12 72 -6 102 10 37 20 36
20 63 1z"/>
<path d="M19023 10942 c-12 -28 -13 -59 -8 -146 3 -61 2 -132 -3 -158 -6 -33
-6 -62 3 -95 8 -31 9 -70 5 -108 -6 -44 -4 -66 6 -82 8 -12 14 -29 14 -38 0
-8 6 -15 13 -15 6 0 23 -9 37 -20 32 -25 43 -25 84 2 41 27 60 77 45 116 -8
22 -15 211 -10 312 0 14 1 43 3 65 2 52 1 91 -2 136 -3 29 -9 38 -34 48 -17 7
-55 14 -84 16 -53 3 -54 3 -69 -33z"/>
<path d="M14650 12820 c-30 -4 -70 -5 -87 -2 -18 2 -52 0 -75 -7 -24 -6 -78
-12 -120 -15 -79 -4 -142 -26 -162 -59 -13 -20 6 -121 27 -142 13 -12 12 -19
-4 -52 -33 -68 -40 -227 -15 -357 8 -41 10 -81 6 -97 -8 -28 -6 -131 6 -262 5
-50 3 -72 -7 -85 -44 -54 -48 -83 -19 -127 11 -16 20 -37 20 -46 0 -9 18 -33
40 -52 41 -35 41 -35 83 -22 45 15 134 30 155 26 6 -1 12 4 12 12 0 15 96 32
123 21 9 -3 16 3 20 17 6 22 7 22 25 6 18 -17 19 -15 32 38 10 41 17 54 27 50
8 -3 4 8 -9 24 -14 18 -30 28 -39 25 -9 -2 -22 2 -28 10 -14 17 -119 19 -139
3 -7 -6 -35 -11 -62 -12 -38 -1 -51 2 -54 14 -19 70 -25 346 -8 363 23 23 169
37 188 18 7 -7 21 -5 45 7 19 10 50 19 69 20 93 7 100 9 106 25 3 9 21 22 40
28 25 9 34 16 30 27 -3 8 -6 21 -6 28 0 29 -130 84 -200 85 -25 1 -98 -1 -162
-5 l-118 -6 -1 28 c-1 16 -3 62 -4 103 -2 41 -6 82 -10 91 -8 20 48 64 70 55
9 -3 28 -1 43 5 15 6 47 12 72 14 187 12 264 29 313 68 65 53 59 117 -11 117
-20 0 -50 7 -66 15 -30 16 -56 17 -146 5z"/>
<path d="M17179 12812 c-8 -2 -24 -8 -36 -14 -48 -24 -18 -149 42 -176 15 -7
23 -27 34 -83 7 -41 18 -79 23 -86 5 -6 13 -46 17 -88 8 -90 8 -91 -78 -81
-49 6 -64 3 -95 -15 -46 -27 -47 -53 -5 -125 33 -58 43 -68 74 -71 11 -1 41
-9 67 -18 36 -13 49 -24 57 -47 15 -43 14 -48 -9 -48 -24 0 -25 -11 -3 -53 19
-36 19 -162 0 -185 -14 -18 -9 -135 8 -161 3 -5 18 -12 34 -16 16 -3 35 -13
42 -21 6 -8 24 -14 39 -14 24 0 31 7 49 54 12 29 22 69 22 87 -1 19 -2 52 -2
74 -1 22 4 74 10 115 6 41 14 117 17 167 6 73 10 94 23 97 43 13 129 23 156
20 24 -4 41 4 83 38 57 46 54 38 36 127 -3 17 -15 38 -25 47 -18 16 -27 16
-102 4 -45 -7 -86 -15 -91 -18 -18 -10 -96 -4 -111 8 -9 8 -14 22 -11 32 2 11
-4 40 -13 66 -10 26 -29 92 -41 147 -46 199 -105 266 -211 237z"/>
<path d="M15505 12236 c-39 -17 -85 -71 -85 -100 0 -12 -7 -31 -15 -43 -8 -11
-17 -40 -21 -64 -3 -24 -14 -55 -23 -69 -10 -14 -21 -52 -24 -85 -4 -45 -12
-64 -28 -78 -27 -22 -49 -7 -49 33 0 15 -10 38 -21 51 -30 34 -66 117 -74 172
-4 26 -11 50 -16 53 -5 3 -9 20 -9 37 -1 18 -9 43 -20 55 l-20 24 -55 -18
c-65 -20 -85 -48 -85 -119 0 -33 4 -45 15 -45 8 0 15 -7 15 -15 0 -36 47 -161
105 -280 35 -71 72 -150 83 -174 l18 -43 17 26 c20 30 33 32 58 10 36 -33 159
17 159 65 0 9 4 21 9 27 5 5 28 68 50 140 23 72 53 146 67 165 13 18 27 51 31
71 3 21 10 38 15 38 17 0 44 35 57 74 13 37 12 39 -15 66 -35 33 -96 45 -139
26z"/>
<path d="M15929 12211 c-29 -18 -69 -53 -107 -93 -31 -33 -77 -154 -87 -234
-14 -99 -7 -216 15 -265 55 -124 324 -250 408 -191 15 11 42 23 60 27 17 3 32
11 32 16 0 5 13 9 29 9 20 0 32 6 36 19 8 26 83 86 118 95 15 3 27 11 27 16 0
18 21 10 50 -20 31 -32 57 -34 98 -9 37 23 47 63 33 136 -13 71 -6 179 14 203
6 8 15 23 18 33 4 9 17 22 31 28 22 10 30 7 74 -31 52 -43 82 -105 82 -168 0
-16 6 -35 14 -41 10 -8 12 -21 6 -46 -5 -24 -4 -38 5 -45 7 -6 15 -28 19 -50
4 -28 12 -41 29 -46 12 -4 33 -15 46 -25 13 -11 36 -19 50 -19 71 0 75 133 10
320 -11 33 -18 64 -15 69 4 5 2 12 -3 15 -5 3 -26 36 -46 74 -21 37 -51 83
-68 102 -33 38 -99 80 -126 80 -9 0 -27 8 -41 17 -15 11 -39 16 -64 14 -70 -5
-186 -130 -186 -200 0 -9 -8 -29 -18 -46 -13 -20 -17 -42 -14 -68 6 -50 -15
-99 -38 -92 -9 3 -23 -1 -30 -10 -7 -8 -21 -15 -30 -15 -10 0 -28 -16 -40 -35
-12 -19 -36 -45 -53 -57 -18 -12 -34 -25 -37 -28 -3 -3 -23 -16 -46 -27 -33
-17 -53 -20 -110 -16 -104 6 -111 9 -139 56 -32 56 -32 75 3 88 15 6 44 19 64
30 45 23 43 23 63 3 14 -15 18 -15 33 -1 9 8 42 20 72 26 30 7 61 18 70 25 8
8 24 16 34 17 13 3 25 20 36 51 9 26 25 57 35 68 16 17 17 24 7 38 -15 21 -19
30 -26 64 -4 15 -29 46 -61 74 -49 41 -65 49 -133 61 -114 21 -173 22 -203 4z
m191 -187 c8 -8 4 -15 -12 -26 -30 -20 -141 -57 -150 -52 -5 3 -8 17 -8 32 0
21 10 34 40 54 37 24 44 25 80 14 22 -6 44 -16 50 -22z"/>
<path d="M14267 10620 c-27 -5 -54 -13 -61 -19 -18 -15 -14 -119 7 -193 21
-78 33 -218 18 -218 -8 0 -10 -16 -7 -47 2 -27 -1 -57 -7 -68 -6 -11 -12 -38
-13 -60 -2 -22 -6 -83 -9 -135 -12 -189 -14 -293 -5 -309 10 -19 100 -45 145
-43 17 1 71 11 120 22 66 15 135 22 260 24 94 2 179 7 190 11 11 4 37 13 58
21 39 15 57 12 57 -9 0 -6 7 -31 16 -54 13 -33 22 -43 40 -43 12 0 26 -5 29
-11 4 -5 32 -21 63 -35 32 -14 68 -31 82 -38 14 -7 36 -9 50 -5 14 4 39 7 56
8 39 1 222 93 247 124 10 12 28 33 40 47 39 44 49 73 42 115 -3 22 -13 47 -21
56 -8 9 -29 44 -47 77 -26 49 -45 70 -92 100 -33 22 -71 49 -84 61 -13 11 -32
21 -42 21 -10 0 -21 5 -24 10 -10 16 -128 12 -151 -5 -10 -8 -28 -15 -39 -15
-11 0 -34 -14 -52 -30 -18 -17 -36 -30 -40 -30 -4 0 -19 -19 -33 -41 -18 -29
-25 -55 -25 -89 0 -27 -5 -53 -10 -58 -6 -5 -52 -5 -105 0 -149 13 -193 14
-225 5 -26 -7 -196 -26 -280 -30 -28 -2 -30 0 -37 48 -5 28 -6 86 -3 130 15
214 24 315 29 323 3 5 1 49 -5 98 -6 49 -11 130 -12 179 -1 118 -7 124 -120
105z m1151 -768 c30 -17 82 -74 82 -88 0 -4 7 -16 16 -26 16 -17 15 -20 -13
-45 -17 -16 -33 -36 -36 -45 -4 -10 -12 -15 -20 -12 -7 2 -27 -2 -43 -11 -16
-8 -44 -15 -62 -15 -18 0 -40 -5 -50 -11 -14 -9 -28 -6 -65 11 -48 23 -57 41
-34 69 8 9 19 41 26 72 7 32 21 65 32 75 49 44 120 56 167 26z"/>
<path d="M16130 10063 c-8 -3 -21 -14 -28 -25 -7 -10 -19 -18 -26 -18 -8 0
-19 -7 -26 -15 -7 -8 -19 -15 -27 -15 -8 0 -24 -11 -35 -25 -11 -14 -38 -36
-60 -48 -22 -12 -54 -30 -71 -39 -38 -21 -120 -79 -128 -90 -3 -5 -4 -46 -1
-91 4 -69 9 -88 31 -116 40 -54 67 -81 80 -81 6 0 20 -9 31 -20 14 -14 34 -20
73 -21 28 -1 75 -3 102 -4 45 -2 53 1 81 29 16 17 54 49 82 71 29 21 52 43 52
48 0 5 6 15 13 22 6 8 18 22 26 31 14 16 16 16 30 -6 28 -42 70 -144 71 -171
0 -15 8 -37 19 -50 10 -13 21 -45 25 -71 4 -26 14 -61 23 -78 14 -29 14 -35 0
-72 -9 -21 -14 -45 -11 -52 3 -7 -2 -26 -11 -42 -8 -16 -15 -34 -15 -40 0 -23
-26 -64 -41 -64 -9 0 -24 -10 -35 -21 -22 -25 -77 -52 -114 -55 -14 -1 -50 -8
-80 -14 -55 -11 -144 -6 -184 10 -12 5 -34 11 -50 15 -16 3 -50 28 -78 57 -27
28 -51 48 -54 45 -3 -3 -21 1 -39 9 -45 19 -55 18 -55 -5 0 -10 -9 -25 -19
-32 -40 -29 -35 -53 21 -104 29 -26 71 -65 94 -86 22 -22 46 -39 53 -39 8 0
28 -9 45 -19 93 -57 301 -66 474 -22 46 12 128 68 187 127 35 35 81 112 77
128 -2 4 4 29 12 55 20 58 20 170 0 239 -8 29 -14 58 -12 65 1 7 -2 26 -8 42
-7 17 -17 50 -25 75 -7 25 -25 73 -40 108 -16 34 -26 69 -23 77 3 8 -11 39
-30 69 -20 30 -36 58 -34 63 1 4 -11 23 -28 41 -16 18 -41 50 -55 72 -13 22
-32 40 -42 40 -32 0 -57 20 -57 44 0 44 -31 69 -91 72 -30 2 -61 1 -69 -3z
m49 -225 c0 -13 -9 -36 -20 -53 -10 -16 -22 -36 -25 -43 -15 -31 -67 -76 -102
-87 -43 -15 -48 -14 -56 21 -8 30 12 57 59 81 29 15 85 58 115 88 20 21 30 19
29 -7z"/>
<path d="M24945 11145 c-16 -13 -40 -24 -52 -25 -12 0 -25 -4 -28 -10 -11 -19
-7 -200 5 -215 7 -8 13 -52 15 -99 2 -81 3 -85 36 -115 31 -28 38 -31 82 -25
49 6 87 -9 114 -45 15 -21 10 -27 -28 -35 -23 -4 -38 -1 -50 10 -37 33 -124
-18 -155 -91 -13 -31 -13 -38 1 -59 24 -37 85 -56 199 -63 l103 -6 75 62 75
61 -12 65 c-7 36 -18 72 -25 80 -6 8 -9 18 -6 23 3 5 -8 22 -24 37 -17 16 -30
39 -30 53 0 18 -4 22 -19 17 -15 -4 -36 10 -85 59 -36 36 -66 71 -66 80 0 27
60 48 147 51 89 3 113 13 113 51 0 13 4 24 9 24 5 0 11 15 13 34 3 25 -3 41
-22 65 -25 29 -29 30 -58 20 -24 -8 -41 -8 -69 2 -38 13 -47 13 -136 3 -30 -4
-53 -2 -60 5 -16 16 -29 14 -62 -14z"/>
<path d="M20640 11151 c0 -5 -18 -16 -39 -24 -22 -9 -42 -21 -46 -27 -3 -5
-15 -10 -25 -10 -12 0 -22 -9 -25 -23 -3 -12 -19 -31 -36 -42 -16 -11 -32 -30
-35 -43 -7 -23 31 -107 67 -151 20 -24 20 -24 34 -4 7 10 32 25 53 32 24 8 42
21 45 32 3 11 14 19 24 19 10 0 24 5 31 12 8 8 21 4 52 -17 33 -23 40 -33 36
-51 -4 -13 1 -38 9 -56 14 -29 14 -39 2 -78 l-13 -45 -50 3 c-68 4 -150 -25
-178 -63 -38 -54 -62 -155 -36 -155 6 0 10 -9 10 -21 0 -12 8 -23 20 -26 23
-6 25 -14 8 -31 -7 -7 -10 -12 -7 -13 74 -13 135 -14 163 -1 30 13 122 42 134
42 5 0 14 -17 19 -37 6 -24 15 -37 23 -35 24 6 61 -21 75 -55 17 -41 40 -51
65 -28 10 9 32 18 47 19 15 1 37 7 48 13 17 10 18 15 8 32 -7 12 -13 33 -13
49 0 22 -13 40 -61 83 -34 30 -65 64 -70 77 -5 12 -15 22 -24 22 -18 0 -18 -3
0 90 28 144 33 185 25 195 -4 6 -11 31 -15 58 -5 30 -15 53 -27 61 -18 13 -68
85 -80 117 -14 37 -218 112 -218 80z"/>
<path d="M22180 11170 c-16 -12 -34 -17 -51 -13 -16 3 -41 -3 -65 -16 -21 -12
-44 -21 -50 -21 -24 0 -54 -47 -54 -83 0 -20 5 -37 10 -37 10 0 32 -43 34 -65
1 -11 146 -14 146 -4 0 4 19 17 42 29 35 18 45 20 64 9 19 -9 26 -9 38 0 19
16 47 7 75 -23 25 -27 21 -46 -9 -46 -10 0 -34 -9 -53 -20 -19 -11 -57 -22
-84 -24 -28 -2 -56 -6 -62 -10 -23 -15 -8 -143 20 -166 3 -3 8 -13 12 -22 3
-10 15 -18 25 -18 11 0 31 -15 46 -34 28 -38 35 -72 12 -63 -7 3 -18 1 -24 -5
-7 -7 -16 -7 -29 0 -12 7 -24 7 -34 1 -7 -5 -27 -6 -42 -3 -36 8 -67 -19 -67
-58 0 -15 -5 -28 -11 -28 -33 0 38 -89 72 -90 8 0 20 -5 26 -11 7 -7 50 -11
108 -10 84 0 101 3 120 21 12 11 25 20 29 20 11 0 92 73 89 80 -1 3 -4 33 -7
67 -4 43 -2 63 7 66 7 2 -1 10 -16 17 -24 12 -27 18 -21 43 5 25 3 29 -10 24
-10 -4 -23 4 -36 24 l-22 29 39 16 c21 9 42 22 46 30 4 8 14 14 22 14 8 0 21
15 29 33 8 17 26 45 40 61 31 35 32 43 6 71 -12 12 -29 44 -39 70 -17 46 -53
78 -111 101 -8 3 -31 12 -50 20 -19 7 -59 13 -88 13 -36 -1 -59 4 -71 15 -22
20 -21 20 -51 -4z"/>
<path d="M23680 11179 c-34 -29 -35 -31 -37 -111 -1 -44 -5 -84 -10 -87 -26
-19 10 -306 44 -344 11 -12 23 -29 26 -38 16 -45 172 -49 202 -6 24 34 37 4
32 -71 -3 -34 -1 -65 5 -68 5 -3 4 -11 -2 -19 -17 -21 -1 -85 31 -126 16 -20
29 -43 29 -51 0 -8 12 -20 26 -27 21 -9 32 -8 62 6 53 25 73 52 67 88 -3 17
-6 37 -6 45 -2 25 -21 93 -36 129 -13 28 -13 38 -2 60 7 14 11 33 10 43 -1 11
8 18 28 23 20 4 31 13 33 28 2 12 13 26 26 32 25 11 31 55 7 55 -7 0 -18 6
-22 13 -10 18 -58 49 -65 42 -8 -8 -48 41 -53 66 -3 13 -8 51 -10 84 -6 60
-24 101 -51 112 -8 3 -33 -11 -59 -33 -44 -38 -45 -40 -41 -90 3 -31 0 -56 -7
-63 -7 -7 -12 -31 -12 -54 0 -40 -1 -42 -32 -43 -36 -1 -40 9 -42 104 -1 23
-2 54 -3 70 0 15 5 57 12 94 12 62 11 70 -8 111 -31 66 -84 76 -142 26z"/>
<path d="M26234 13558 c-4 -5 -17 -7 -30 -4 -20 5 -25 2 -30 -21 -9 -38 -40
-80 -64 -88 -23 -7 -26 -30 -6 -42 8 -4 23 -28 34 -53 29 -68 39 -73 114 -59
41 7 76 21 100 40 20 16 41 29 46 29 5 0 15 6 21 14 15 18 -22 102 -48 109
-11 3 -22 17 -26 36 -4 21 -14 32 -28 35 -56 12 -78 13 -83 4z"/>
<path d="M26542 13531 c-31 -35 -35 -45 -35 -98 0 -49 3 -59 19 -62 11 -2 24
-7 29 -11 6 -4 28 -11 49 -14 21 -4 46 -17 56 -28 14 -17 20 -19 38 -9 11 6
33 11 48 11 48 0 69 54 39 97 -9 13 -13 32 -10 46 5 19 -1 29 -29 50 -19 15
-45 27 -58 27 -13 1 -34 7 -48 15 -40 23 -60 18 -98 -24z"/>
<path d="M26876 13491 c-12 -13 -14 -21 -6 -26 7 -5 9 -25 5 -60 -6 -46 -4
-56 13 -71 12 -10 29 -19 39 -20 10 -1 38 -10 63 -19 46 -18 46 -18 83 6 35
23 37 26 37 82 0 69 -10 91 -50 112 -44 23 -162 20 -184 -4z"/>
<path d="M27265 13438 c-61 -36 -73 -58 -65 -128 5 -52 7 -56 47 -78 l43 -23
-16 -37 c-8 -20 -23 -46 -33 -57 -23 -27 -41 -70 -41 -102 0 -33 65 -99 94
-95 78 11 178 86 139 104 -11 4 -53 65 -53 75 0 4 -7 21 -15 37 -12 23 -13 31
-3 37 20 13 37 98 26 131 -6 16 -8 44 -5 63 4 26 0 38 -19 56 -13 12 -24 28
-24 36 0 19 -19 15 -75 -19z"/>
<path d="M30782 13358 c-8 -8 -34 -12 -71 -10 -40 2 -77 -4 -117 -17 -32 -12
-67 -21 -77 -21 -19 0 -77 -51 -77 -67 0 -5 14 -23 30 -41 21 -23 30 -44 30
-66 0 -19 6 -39 14 -45 8 -7 16 -31 19 -54 3 -23 10 -69 16 -102 5 -33 12 -98
15 -145 3 -47 11 -107 16 -135 10 -48 13 -142 5 -155 -2 -3 1 -33 6 -66 10
-60 12 -87 23 -233 3 -47 10 -99 15 -117 5 -20 5 -49 0 -74 -6 -27 -6 -48 1
-61 6 -11 8 -28 5 -39 -3 -10 4 -56 15 -102 14 -52 21 -110 20 -155 -1 -40 -2
-85 -2 -100 0 -48 9 -156 17 -207 6 -35 4 -50 -5 -56 -13 -8 -14 -12 -5 -155
3 -49 7 -142 9 -205 2 -63 9 -151 15 -195 6 -44 12 -116 13 -160 1 -44 6 -89
12 -100 13 -25 45 -164 53 -230 3 -27 10 -56 16 -63 11 -14 13 -405 1 -423 -3
-6 -7 -38 -9 -72 -1 -34 -6 -84 -10 -112 -10 -75 -12 -288 -2 -302 11 -16 15
-173 6 -194 -5 -8 -2 -27 5 -40 7 -14 17 -45 21 -70 12 -68 15 -392 3 -406 -5
-7 -7 -17 -3 -23 4 -6 2 -24 -4 -39 -9 -20 -9 -35 -1 -56 21 -56 86 -87 190
-92 178 -7 428 -9 465 -3 29 5 45 3 54 -7 7 -8 20 -11 30 -7 43 18 115 24 211
19 58 -3 113 -8 122 -11 10 -3 23 -2 30 2 20 13 72 14 95 2 19 -9 27 -8 43 7
21 19 82 25 162 15 26 -4 53 -3 60 1 6 4 22 3 35 -2 13 -5 101 -11 196 -13
100 -2 186 -9 205 -16 22 -8 40 -9 60 -2 32 11 59 8 152 -18 36 -10 76 -19 90
-18 57 0 186 -15 197 -24 7 -6 25 -7 40 -3 16 4 111 10 213 12 206 6 248 8
400 23 75 7 118 6 151 -2 38 -9 54 -8 86 5 29 11 67 15 149 12 60 -1 116 1
125 6 20 10 130 20 274 24 61 2 124 8 142 13 17 6 66 9 109 7 42 -2 111 3 153
11 42 8 96 17 121 20 25 3 68 12 97 20 29 8 90 14 140 13 48 0 145 -2 216 -2
70 -1 127 0 127 3 0 11 109 3 124 -9 8 -7 20 -10 26 -6 6 4 37 9 68 11 92 7
141 15 147 24 7 12 191 10 244 -2 33 -9 56 -8 95 3 66 17 332 15 354 -3 12
-10 16 -10 19 0 3 8 34 12 107 12 56 0 106 4 112 10 11 11 96 16 111 7 13 -8
83 -9 178 -3 44 3 155 9 248 12 164 6 168 7 187 31 11 14 20 34 20 44 0 11 5
20 10 20 6 1 13 2 18 3 16 3 72 48 72 59 0 6 -12 24 -27 39 -15 15 -22 28 -16
28 15 0 5 38 -18 71 -12 16 -18 43 -18 75 1 27 -2 67 -6 89 -11 67 -11 80 -4
90 12 16 20 85 10 85 -5 0 -8 21 -7 46 1 25 -1 47 -5 50 -10 6 -19 95 -20 199
-1 50 -5 95 -10 101 -12 14 -18 62 -24 174 -3 47 -7 101 -9 120 -2 19 -7 73
-10 120 -3 47 -10 108 -14 137 -5 29 -5 58 -1 65 11 17 12 68 1 68 -19 0 -58
200 -55 283 2 43 -3 79 -11 95 -8 16 -13 49 -11 82 4 73 -21 289 -36 307 -9
10 -9 19 0 36 9 17 9 35 2 70 -6 26 -10 50 -9 54 5 18 -13 113 -23 119 -6 3
-8 13 -4 22 6 16 -13 120 -26 137 -7 11 -26 150 -34 255 -7 98 -22 211 -34
250 -6 19 -11 55 -11 80 0 25 -7 83 -16 130 -9 47 -18 144 -19 215 -2 72 -5
137 -8 145 -3 8 -10 42 -17 75 -7 33 -23 83 -37 112 -14 28 -26 72 -27 96 -1
25 -7 51 -13 58 -6 8 -14 32 -18 54 -4 22 -15 54 -25 70 -12 19 -16 42 -13 63
4 25 2 32 -11 32 -9 0 -19 6 -22 14 -3 8 -14 16 -25 19 -12 3 -19 14 -19 30 0
13 -9 32 -20 42 -11 10 -18 20 -16 23 3 2 -13 27 -35 55 -42 53 -76 69 -194
96 -75 16 -407 8 -470 -12 -192 -61 -212 -62 -695 -58 -415 3 -642 6 -885 12
-55 1 -114 8 -132 15 -24 11 -44 11 -90 3 -32 -6 -79 -9 -104 -6 -26 3 -50 2
-55 -3 -10 -10 -140 -13 -191 -5 -17 2 -100 7 -185 10 -188 7 -179 7 -203 5
-11 -1 -54 1 -95 4 -41 2 -115 -2 -165 -9 -49 -7 -139 -11 -200 -9 -60 2 -125
4 -143 4 -18 1 -40 -4 -47 -10 -10 -8 -19 -8 -35 0 -11 6 -47 12 -79 14 -32 2
-63 6 -70 10 -12 8 -106 11 -126 5 -5 -2 -36 1 -67 5 -37 5 -64 3 -78 -4 -12
-6 -94 -16 -183 -21 -88 -5 -166 -13 -171 -18 -6 -4 -54 -9 -106 -10 -52 -1
-109 -6 -125 -11 -17 -6 -46 -7 -65 -4 -19 4 -62 8 -96 9 -33 1 -66 5 -72 9
-7 4 -25 5 -40 2 -15 -4 -61 -1 -102 5 -41 6 -120 12 -175 14 -55 1 -145 6
-200 11 -55 4 -120 7 -145 6 -29 -1 -51 4 -62 15 -14 12 -41 17 -107 18 -49 2
-94 6 -100 9 -6 4 -49 9 -94 11 -45 2 -95 8 -110 14 -36 14 -50 14 -65 -1z
m163 -232 c30 -8 60 -18 66 -22 6 -3 45 -8 88 -11 99 -5 218 -18 306 -32 78
-13 152 -19 368 -26 82 -3 152 -7 157 -10 4 -3 63 -5 131 -6 68 -1 130 -6 136
-11 9 -7 23 -6 44 2 22 9 33 10 38 2 13 -21 61 -25 81 -7 25 23 130 35 335 40
88 2 183 6 212 10 30 4 54 2 57 -4 11 -18 627 -18 701 0 6 1 22 -1 38 -5 18
-6 33 -4 43 4 16 14 277 16 298 2 6 -4 72 -7 146 -8 74 0 181 -5 238 -11 61
-7 142 -8 202 -3 57 4 118 4 141 -1 22 -5 45 -7 50 -3 10 6 192 5 349 -1 209
-8 352 -9 356 -3 3 4 28 5 57 2 111 -12 305 -14 367 -4 36 6 110 13 165 15 55
1 113 8 128 14 16 6 45 11 65 11 20 0 74 9 120 20 83 20 296 29 333 15 10 -3
36 -1 60 5 l43 12 46 -50 c133 -148 154 -186 181 -327 13 -72 13 -72 31 -92 9
-10 20 -36 23 -58 4 -22 12 -48 17 -58 5 -10 11 -51 12 -91 2 -41 6 -79 10
-85 14 -21 15 -232 1 -244 -9 -9 -8 -15 6 -27 11 -10 21 -41 27 -90 14 -102
39 -237 46 -248 3 -5 7 -58 10 -118 3 -60 12 -140 21 -178 8 -38 12 -79 9 -91
-3 -14 0 -24 9 -28 17 -6 25 -42 32 -152 3 -44 10 -94 16 -112 7 -23 6 -40 -4
-65 -13 -31 -13 -39 1 -69 25 -55 40 -156 41 -274 1 -61 5 -124 10 -142 6 -20
5 -46 -1 -71 -8 -31 -6 -46 6 -71 9 -17 14 -41 11 -54 -3 -12 1 -36 9 -52 9
-17 16 -53 16 -82 0 -28 5 -64 11 -80 6 -15 13 -104 15 -196 2 -93 7 -174 11
-180 3 -6 8 -36 10 -66 1 -31 7 -83 13 -116 5 -33 9 -96 8 -140 -1 -95 5 -154
21 -182 6 -12 8 -29 5 -37 -3 -9 -1 -39 6 -67 9 -36 9 -54 2 -61 -8 -8 -8 -17
0 -32 7 -12 11 -48 11 -81 -1 -32 3 -67 7 -76 6 -10 4 -23 -4 -35 -8 -11 -16
-30 -18 -43 -2 -17 -17 -32 -46 -48 -37 -21 -61 -25 -180 -30 -167 -8 -240 -8
-314 2 -32 4 -65 4 -75 0 -16 -7 -169 -12 -461 -15 -57 0 -114 -5 -128 -10
-16 -6 -41 -6 -67 -1 -23 6 -46 6 -52 1 -8 -7 -47 -11 -225 -22 -14 -1 -50 0
-80 1 -48 2 -305 -5 -582 -14 -48 -2 -92 -6 -98 -10 -14 -9 -103 -24 -180 -30
-36 -3 -85 -9 -110 -15 -61 -12 -423 -34 -452 -27 -12 4 -40 1 -61 -5 -29 -9
-46 -9 -72 1 -28 10 -39 9 -63 -3 -18 -9 -63 -16 -118 -17 -49 -2 -94 -7 -101
-12 -7 -5 -106 -11 -220 -13 -114 -2 -221 -8 -238 -12 -16 -5 -66 -6 -110 -3
-44 3 -103 2 -131 -3 -29 -5 -60 -5 -70 -1 -11 4 -37 9 -59 10 -112 5 -226 19
-231 26 -3 5 -25 9 -48 9 -24 0 -68 5 -97 11 -30 7 -98 11 -152 10 -61 -2
-110 2 -128 10 -24 9 -41 9 -86 -1 -45 -11 -62 -11 -96 -1 -27 9 -93 13 -187
13 -88 -1 -149 3 -157 10 -9 7 -17 7 -28 -2 -8 -7 -21 -10 -29 -7 -9 3 -43 2
-77 -4 -48 -8 -239 -12 -384 -8 -11 0 -105 -2 -208 -5 -157 -5 -194 -3 -218
10 -17 8 -39 12 -50 9 -11 -4 -31 -4 -45 -1 -19 5 -24 13 -23 39 0 30 -2 74
-19 357 -4 63 -11 121 -15 128 -5 8 -3 19 4 28 10 13 10 20 0 36 -8 12 -15 65
-18 122 -2 56 -8 126 -13 156 -5 38 -4 66 4 91 8 23 10 43 4 53 -6 10 -5 16 1
16 5 0 9 24 8 53 -1 83 11 194 23 216 8 15 8 42 0 98 -6 43 -12 132 -14 198
-3 111 -13 164 -46 255 -5 14 -12 52 -15 85 -3 33 -10 80 -16 105 -6 25 -13
86 -14 135 -2 50 -4 106 -6 125 -1 19 1 59 6 89 5 41 4 55 -6 62 -11 6 -14 45
-14 171 0 90 -4 169 -9 176 -10 17 3 191 17 213 8 13 8 24 0 41 -12 25 -26
165 -24 235 1 25 -5 53 -15 68 -12 19 -15 37 -10 71 3 25 1 66 -4 91 -8 33 -7
54 1 78 10 27 10 37 0 49 -8 10 -14 67 -16 178 -2 90 -8 193 -13 229 -6 36 -8
77 -5 93 3 15 -2 59 -12 98 -11 48 -15 87 -10 123 5 40 3 55 -9 65 -10 8 -16
29 -16 57 0 36 4 45 23 53 34 14 120 12 182 -4z"/>
<path d="M32220 12720 c-41 -4 -88 -13 -103 -19 -15 -6 -38 -11 -50 -11 -56 1
-139 -27 -176 -59 -52 -45 -111 -135 -111 -169 1 -73 58 -182 103 -198 25 -8
101 -60 116 -78 7 -8 19 -12 26 -9 8 2 40 -11 72 -30 32 -19 78 -41 103 -48
55 -16 113 -54 122 -80 4 -11 21 -25 38 -31 35 -12 75 -78 67 -112 -17 -69
-43 -116 -64 -116 -8 0 -28 -9 -44 -21 -47 -33 -178 -28 -239 10 -19 11 -45
21 -56 21 -12 0 -33 9 -47 20 -28 22 -67 26 -84 9 -6 -6 -27 -11 -47 -11 -33
0 -39 -5 -59 -41 -39 -74 -39 -73 -1 -99 18 -12 34 -29 34 -35 0 -13 21 -12
52 1 10 5 40 -4 80 -23 34 -17 74 -31 87 -31 13 0 48 -8 78 -17 46 -14 60 -15
96 -4 23 7 60 16 82 20 53 11 106 31 125 46 8 7 20 14 27 16 20 7 113 99 113
113 0 8 7 16 15 20 10 4 15 20 15 51 0 25 7 57 16 71 13 19 15 40 12 88 -6 72
-29 113 -67 122 -37 9 -48 20 -55 54 -4 22 -20 39 -61 66 -31 19 -71 40 -88
46 -18 6 -56 24 -85 40 -29 15 -57 28 -63 28 -6 0 -31 14 -56 30 -24 17 -48
30 -54 30 -5 0 -14 11 -19 25 -6 15 -17 25 -29 25 -20 0 -33 20 -37 57 -3 26
20 42 63 45 15 1 33 5 38 9 15 11 145 22 290 25 143 3 215 12 215 26 0 10 -49
79 -65 90 -5 4 -22 8 -37 8 -15 0 -30 5 -34 11 -3 6 -19 9 -34 6 -15 -3 -31
-2 -36 3 -14 14 -102 19 -184 10z"/>
<path d="M33504 12119 c-10 -11 -33 -27 -51 -34 -55 -23 -92 -121 -100 -262
-3 -59 0 -89 10 -110 11 -21 12 -34 5 -47 -20 -35 26 -150 73 -185 l31 -23 56
18 c73 25 90 44 90 102 0 31 5 48 16 54 21 12 20 25 -3 31 -12 3 -20 17 -24
43 -4 22 -9 54 -13 72 -5 27 -4 31 9 26 9 -3 13 -12 11 -19 -8 -19 14 -55 32
-55 8 0 30 -11 48 -25 43 -33 95 -33 124 -2 12 13 22 28 22 34 0 6 6 16 14 22
7 6 16 24 19 39 3 15 12 36 21 47 14 20 16 19 55 -20 23 -21 41 -43 41 -49 0
-5 12 -24 26 -43 14 -18 32 -54 41 -78 8 -25 19 -47 24 -51 14 -8 11 -62 -3
-67 -9 -4 -10 -8 -3 -14 6 -4 16 -26 23 -48 16 -57 48 -73 135 -65 56 6 72 11
98 36 30 29 32 42 14 89 -8 20 -8 20 13 1 12 -11 22 -24 22 -29 0 -16 120
-135 170 -169 59 -41 156 -62 187 -42 28 18 164 45 190 38 14 -4 27 4 44 28
46 61 71 110 60 121 -32 32 -261 51 -261 22 0 -8 -9 -15 -20 -15 -11 0 -20 5
-20 10 0 6 -12 16 -27 23 -44 19 -83 58 -83 83 0 30 35 54 80 55 57 2 74 11
133 75 55 60 56 61 63 137 6 72 5 82 -22 140 -25 54 -36 67 -74 85 -59 29
-152 29 -217 0 -25 -11 -53 -18 -63 -15 -11 3 -26 -3 -36 -14 -9 -10 -22 -19
-28 -19 -15 0 -72 -140 -93 -225 -9 -38 -16 -91 -16 -117 0 -27 -4 -48 -10
-48 -5 0 -2 -10 6 -23 10 -16 12 -29 6 -38 -8 -12 -10 -12 -19 1 -5 8 -10 22
-10 31 0 8 -7 24 -15 35 -8 10 -15 27 -15 36 0 10 -13 40 -30 66 -17 27 -30
63 -30 81 0 20 -5 31 -14 31 -8 0 -17 8 -20 18 -3 9 -22 34 -41 55 -19 21 -35
42 -35 46 0 11 -52 65 -80 82 -30 19 -219 21 -241 3 -31 -25 -69 -22 -100 7
-36 33 -76 44 -114 29 -22 -8 -31 -7 -45 5 -15 14 -19 13 -36 -6z m1196 -187
c20 -16 21 -20 7 -33 -8 -9 -17 -27 -19 -40 -3 -26 -25 -34 -64 -25 -30 8 -31
33 -3 80 23 40 46 45 79 18z"/>
<path d="M33001 12055 c-18 -8 -49 -15 -69 -15 -51 0 -127 -50 -189 -124 -45
-53 -53 -71 -64 -130 -14 -75 -1 -188 27 -245 30 -61 118 -98 159 -68 14 11
25 12 42 4 44 -20 198 46 221 95 7 15 21 29 31 33 11 3 22 16 25 29 3 12 16
34 30 49 13 14 32 50 41 79 10 29 24 60 31 69 17 19 17 31 2 80 -9 31 -16 39
-35 39 -20 0 -23 5 -23 35 0 30 -16 52 -40 53 -3 0 -18 6 -35 13 -48 19 -117
21 -154 4z m70 -208 c18 -22 14 -49 -14 -104 -16 -30 -56 -63 -78 -63 -6 0
-19 -10 -29 -22 l-19 -23 -18 25 c-29 41 -32 99 -5 139 12 19 22 40 22 48 0
36 113 36 141 0z"/>
<path d="M32242 10488 c-5 -5 -67 -10 -138 -13 -167 -5 -201 -11 -276 -50
-112 -57 -171 -130 -161 -199 7 -53 52 -133 91 -162 43 -32 85 -69 117 -102
15 -14 47 -28 91 -37 37 -8 80 -23 95 -35 16 -11 31 -20 35 -20 14 0 130 -76
152 -99 26 -29 29 -72 5 -93 -45 -38 -98 -59 -159 -63 -55 -4 -72 -1 -113 21
-27 13 -57 34 -67 45 -13 14 -25 18 -48 14 -17 -4 -39 -7 -48 -9 -10 -1 -21
-5 -24 -9 -4 -4 -15 -7 -25 -7 -10 0 -21 -12 -28 -31 -14 -41 -14 -59 1 -90
13 -26 91 -89 111 -89 7 0 30 -10 52 -22 32 -17 59 -22 130 -24 49 -1 98 2
108 8 11 5 51 19 91 30 39 11 74 25 78 33 7 12 67 50 150 97 39 21 67 100 65
180 -1 46 -5 58 -19 61 -10 3 -25 21 -33 41 -9 22 -20 33 -28 30 -8 -3 -36 14
-63 36 -27 23 -61 44 -76 47 -15 3 -33 12 -39 19 -6 8 -18 14 -26 14 -8 0 -29
11 -47 25 -18 14 -37 25 -43 25 -5 0 -18 9 -28 20 -10 11 -24 20 -32 20 -7 0
-21 9 -30 20 -10 11 -24 20 -33 20 -17 0 -120 90 -120 105 0 13 57 45 80 45
10 0 31 5 47 12 39 16 48 17 135 21 63 3 83 8 115 30 33 22 59 33 96 36 10 1
9 41 -2 41 -5 0 -15 14 -24 32 -14 29 -20 32 -61 33 -26 0 -50 -3 -54 -7z"/>
<path d="M34685 10238 c-6 -14 -15 -17 -44 -12 -30 4 -47 -2 -98 -32 -35 -21
-63 -42 -63 -48 0 -6 12 -33 25 -61 14 -27 25 -54 25 -60 0 -5 11 -17 23 -26
50 -37 175 32 196 109 9 31 -4 75 -36 118 -19 25 -22 27 -28 12z"/>
<path d="M35931 10069 c-18 -6 -36 -8 -38 -5 -3 3 -26 -9 -52 -27 -25 -18 -63
-40 -83 -49 -21 -9 -38 -23 -38 -31 0 -7 -14 -23 -30 -36 -17 -12 -28 -26 -25
-30 5 -9 -1 -31 -32 -124 -11 -35 -14 -66 -9 -109 l6 -61 -69 6 c-54 4 -80 2
-118 -13 -59 -22 -85 -20 -175 17 -72 29 -106 63 -121 122 -14 57 78 176 156
201 42 13 48 35 17 70 -11 12 -17 26 -14 31 9 16 -50 22 -103 11 -84 -17 -184
-82 -224 -143 -47 -73 -68 -143 -69 -222 0 -78 19 -116 92 -183 87 -80 189
-110 363 -108 165 3 215 19 261 85 31 45 39 47 55 17 29 -54 97 -108 186 -148
l90 -40 122 5 c67 3 130 9 141 15 10 5 30 10 44 10 14 0 36 11 51 24 14 13 42
26 63 30 22 3 47 16 58 29 26 29 37 102 19 117 -20 17 -134 70 -149 70 -7 0
-25 -15 -39 -32 -33 -44 -85 -61 -177 -59 -68 2 -79 6 -122 38 -26 19 -48 39
-48 44 0 18 54 60 83 66 16 3 35 16 44 29 8 13 21 24 28 24 8 0 30 15 49 34
20 18 55 46 78 62 56 38 58 41 58 96 0 28 5 48 13 51 7 2 -4 20 -31 45 -33 33
-49 42 -77 42 -24 0 -35 5 -35 15 0 12 -14 15 -69 15 -38 0 -75 2 -83 4 -7 2
-28 0 -47 -5z"/>
<path d="M34224 10025 c-10 -8 -29 -15 -41 -15 -13 0 -23 -4 -23 -8 0 -5 -13
-24 -30 -42 -34 -38 -36 -51 -15 -84 14 -21 13 -24 -5 -41 -19 -18 -20 -17
-20 1 0 24 -95 114 -133 125 -26 7 -35 4 -66 -23 -50 -43 -55 -55 -42 -97 6
-20 13 -49 15 -66 1 -16 12 -52 24 -78 12 -27 22 -51 22 -53 0 -3 11 -20 24
-37 13 -18 30 -45 38 -62 37 -72 48 -88 81 -110 62 -43 81 -42 142 4 30 22 59
41 65 41 14 0 32 50 27 72 -3 10 -1 21 4 24 5 3 9 15 9 27 0 13 7 32 15 45 9
12 20 61 26 109 6 53 16 94 25 104 14 16 14 20 -2 48 -15 26 -16 34 -5 55 20
36 8 56 -33 56 -19 0 -38 5 -41 10 -9 15 -38 12 -61 -5z"/>
<path d="M33615 10016 c-88 -12 -150 -47 -161 -92 -3 -13 -15 -41 -25 -61 -10
-21 -19 -43 -19 -50 0 -7 -14 -28 -31 -48 -28 -32 -30 -39 -20 -61 18 -41 14
-78 -11 -91 -68 -34 -98 -45 -147 -53 -29 -5 -60 -15 -68 -22 -24 -19 -150
-18 -175 1 -19 16 -17 18 64 74 129 89 208 171 208 217 0 25 -39 80 -56 80 -7
0 -28 19 -48 43 l-35 42 -83 0 c-193 -1 -273 -29 -306 -107 -6 -16 -16 -28
-22 -28 -5 0 -10 -5 -10 -11 0 -6 -6 -25 -14 -42 -8 -18 -16 -76 -19 -130 l-4
-99 40 -70 c38 -65 88 -112 140 -131 9 -4 17 -11 17 -16 0 -15 74 -51 103 -51
14 0 42 6 63 14 26 9 47 10 63 5 19 -8 47 2 145 50 143 71 213 83 252 44 18
-18 30 -21 61 -17 73 10 83 14 98 44 9 17 20 28 24 25 13 -8 34 23 27 40 -3 9
0 15 9 15 17 0 20 25 5 35 -5 3 -7 12 -3 20 3 8 0 15 -5 15 -23 0 -45 72 -46
148 -1 74 0 78 27 95 17 10 37 15 51 11 29 -7 56 18 56 52 0 15 6 24 15 24 24
0 18 44 -10 74 -26 28 -29 29 -150 12z m-645 -206 c12 -7 12 -12 -4 -29 -11
-12 -25 -21 -31 -21 -7 0 -18 -7 -25 -15 -15 -18 -70 -20 -70 -3 0 7 14 27 32
45 32 33 68 42 98 23z"/>
<path d="M34658 9910 c-16 -16 -32 -30 -34 -30 -13 0 -35 -31 -29 -40 3 -5 1
-36 -6 -67 -6 -32 -11 -70 -11 -85 1 -16 -3 -28 -8 -28 -6 0 -10 -13 -10 -28
0 -19 11 -39 36 -63 33 -32 39 -34 111 -35 74 -2 77 -1 111 33 l35 35 -29 24
c-16 13 -24 23 -19 24 12 0 13 173 1 213 -5 17 -17 29 -32 33 -14 4 -29 15
-35 25 -14 28 -46 23 -81 -11z"/>
<path d="M27229 12717 c-27 -22 -39 -62 -45 -144 -2 -32 0 -41 11 -37 8 4 20
-6 30 -25 19 -38 38 -39 101 -4 60 33 69 45 88 108 15 48 15 51 -5 66 -14 10
-19 22 -15 35 5 17 0 19 -67 21 -61 2 -76 -2 -98 -20z"/>
<path d="M27298 12240 c-35 -10 -77 -42 -78 -57 0 -7 -4 -13 -9 -13 -10 0 -22
-95 -14 -115 3 -8 12 -15 21 -15 8 0 23 -7 33 -16 15 -13 30 -15 74 -9 30 3
61 13 69 21 8 8 19 14 25 14 6 0 15 9 20 19 8 14 5 30 -15 66 -13 26 -22 55
-19 65 4 13 -3 22 -26 34 -35 18 -42 18 -81 6z"/>
<path d="M27193 11776 c-12 -12 -27 -34 -32 -49 -6 -15 -21 -29 -36 -33 -25
-6 -32 -18 -16 -28 5 -4 12 -29 16 -56 4 -28 11 -50 16 -50 6 0 21 -11 35 -25
l24 -24 35 20 c19 11 39 18 45 14 21 -13 55 4 68 35 12 26 11 32 -2 46 -27 26
-48 74 -55 123 -6 44 -8 46 -41 48 -25 1 -42 -5 -57 -21z"/>
<path d="M26505 11331 c-11 -5 -23 -7 -27 -5 -13 8 -100 -43 -116 -68 -9 -14
-36 -54 -59 -89 -23 -35 -49 -71 -58 -80 -8 -9 -15 -25 -15 -37 0 -28 -38 -92
-55 -92 -9 0 -13 -11 -13 -30 1 -18 -13 -53 -35 -87 -32 -53 -34 -59 -17 -65
21 -8 46 -105 35 -137 -3 -11 -2 -22 4 -25 5 -3 12 -25 16 -49 4 -23 12 -47
17 -54 5 -7 7 -17 3 -23 -3 -5 -1 -10 4 -10 6 0 11 -6 11 -12 1 -7 14 -31 29
-53 25 -35 35 -41 88 -50 32 -6 68 -8 80 -5 18 4 70 48 175 147 44 42 57 65
72 134 21 91 15 139 -25 184 -16 18 -29 40 -29 48 0 19 -47 57 -71 57 -10 0
-20 4 -24 9 -3 5 -18 12 -34 16 -48 10 -54 26 -29 76 25 53 75 99 107 99 36 0
95 64 87 96 -3 13 -9 36 -12 52 -12 50 -59 73 -109 53z m-84 -574 c40 -31 48
-80 19 -119 -12 -16 -19 -36 -16 -43 7 -20 -24 -36 -46 -24 -27 14 -51 74 -43
108 3 16 2 32 -3 35 -9 5 -8 27 4 65 6 18 49 7 85 -22z"/>
<path d="M27113 11062 c-27 -3 -33 -8 -33 -26 0 -12 -13 -35 -30 -51 -29 -28
-39 -66 -22 -92 4 -7 35 -19 69 -28 59 -15 62 -15 97 6 45 26 56 46 56 98 0
37 -3 42 -35 55 -19 8 -35 19 -35 24 0 13 -27 18 -67 14z"/>
<path d="M27057 10528 c-72 -39 -83 -126 -22 -172 28 -22 37 -24 66 -16 19 6
46 10 60 10 15 0 36 8 48 18 21 17 21 17 2 57 -10 22 -22 52 -25 66 -4 17 -18
32 -40 43 -42 20 -42 20 -89 -6z"/>
<path d="M26951 10081 c-7 -11 -18 -21 -26 -21 -8 0 -15 -5 -15 -11 0 -6 -9
-18 -21 -28 -19 -15 -19 -19 -7 -46 7 -17 34 -50 59 -75 25 -25 48 -52 51 -60
5 -12 9 -13 27 -2 11 6 29 12 40 12 10 0 24 7 31 15 7 8 18 15 25 15 25 0 44
46 42 100 -2 49 -5 54 -36 71 -19 10 -38 24 -42 30 -4 7 -32 14 -62 17 -48 4
-56 2 -66 -17z"/>
<path d="M26865 9599 c-15 -16 -32 -26 -40 -23 -10 4 -18 -3 -25 -21 -13 -35
-14 -34 15 -45 13 -5 41 -34 60 -64 27 -40 44 -55 67 -60 43 -9 48 -8 48 9 0
8 13 21 29 29 25 13 30 23 36 71 5 41 2 64 -10 93 l-17 37 -68 1 c-62 0 -71
-2 -95 -27z"/>
<path d="M26862 9151 c-26 -13 -32 -21 -29 -40 3 -16 -1 -25 -13 -28 -14 -4
-17 -14 -14 -55 5 -100 90 -142 151 -75 28 31 39 67 48 150 1 11 -14 26 -41
42 -48 28 -56 29 -102 6z"/>
<path d="M26773 8718 c-4 -7 -17 -18 -28 -24 -24 -13 -32 -82 -16 -141 12 -43
47 -63 110 -63 18 0 41 -5 53 -11 11 -6 23 -7 26 -3 4 4 1 9 -5 11 -21 7 -15
29 11 47 16 10 23 22 19 35 -3 13 2 21 17 26 11 4 19 12 16 18 -3 7 -9 19 -12
27 -3 9 -22 24 -42 33 -20 9 -53 26 -72 37 -40 23 -66 25 -77 8z"/>
<path d="M26447 8484 c-15 -8 -27 -21 -27 -29 0 -8 -9 -19 -20 -25 -17 -9 -20
-21 -20 -74 0 -54 3 -66 25 -86 23 -22 28 -23 102 -14 l77 9 8 35 c9 45 -7 81
-69 146 -47 50 -50 51 -76 38z"/>
<path d="M26102 8430 c-18 -11 -39 -20 -46 -20 -34 0 -25 -116 12 -158 14 -17
25 -19 73 -15 47 4 59 10 70 29 6 13 20 26 31 30 35 11 19 62 -40 127 -30 32
-55 34 -100 7z"/>
<path d="M26702 8409 c-7 -11 -27 -25 -43 -31 -27 -9 -30 -14 -28 -49 2 -21 0
-41 -4 -45 -4 -4 -7 -12 -7 -18 0 -6 5 -5 12 2 18 18 23 15 52 -29 21 -31 32
-40 48 -36 11 3 30 2 42 -2 35 -13 80 13 100 56 17 38 17 40 -4 75 -12 20 -20
49 -18 65 l3 28 -70 2 c-62 2 -72 0 -83 -18z"/>
<path d="M34581 7939 c-14 -5 -43 -24 -65 -42 -23 -18 -58 -44 -78 -57 -26
-17 -38 -33 -38 -48 0 -13 -12 -33 -26 -45 -15 -12 -45 -41 -67 -64 -43 -46
-107 -88 -150 -98 -15 -4 -27 -11 -27 -17 0 -10 -9 -22 -68 -88 -30 -34 -59
-54 -90 -65 -54 -18 -144 -102 -148 -137 -2 -13 0 -42 3 -65 5 -39 7 -42 44
-48 21 -4 39 -11 39 -16 0 -17 43 -69 56 -69 7 0 22 -9 33 -21 16 -17 26 -20
59 -14 27 4 59 0 103 -14 35 -10 81 -22 101 -26 30 -5 41 -13 54 -40 9 -19 31
-44 49 -55 18 -11 36 -27 39 -35 9 -25 36 -18 36 10 0 20 6 27 30 32 17 3 30
10 30 15 0 13 56 0 102 -23 21 -11 57 -19 80 -19 24 -1 54 -7 68 -15 14 -8 39
-14 57 -15 17 0 34 -4 38 -9 3 -5 19 -12 35 -16 17 -4 43 -13 60 -21 19 -10
51 -14 92 -12 59 3 64 5 85 38 12 19 27 40 31 46 11 12 4 72 -9 80 -5 3 -9 14
-9 25 0 14 -7 19 -25 19 -18 0 -36 14 -66 52 -37 48 -92 147 -94 173 0 6 -3
15 -6 20 -4 6 -12 28 -19 50 -7 22 -21 53 -31 70 -11 16 -19 41 -19 54 0 14
-6 32 -13 40 -21 24 -55 129 -63 191 -4 30 -13 62 -21 71 -7 9 -21 48 -30 88
-13 52 -22 73 -36 77 -11 3 -35 17 -54 30 -40 27 -39 27 -72 13z"/>
<path d="M19146 7485 c-30 -30 -59 -55 -65 -55 -5 0 -9 -20 -9 -45 0 -39 3
-47 26 -59 15 -8 38 -26 51 -40 47 -50 118 -30 157 44 27 51 30 97 10 154 -15
43 -32 54 -83 55 -26 1 -42 -10 -87 -54z"/>
<path d="M19293 7031 c-40 -37 -42 -42 -32 -70 6 -17 9 -36 6 -43 -2 -7 2 -25
9 -39 10 -21 23 -28 61 -34 41 -6 49 -4 63 14 65 88 96 121 112 121 25 0 23
12 -7 38 -14 12 -25 29 -25 37 0 12 -15 15 -72 15 -71 0 -74 -1 -115 -39z"/>
<path d="M19480 6786 c0 -8 -7 -27 -15 -42 -22 -43 -18 -76 15 -126 36 -54 69
-78 106 -78 33 0 84 36 84 59 0 9 4 21 9 27 4 5 11 23 14 40 5 28 0 38 -45 82
-49 48 -53 50 -109 51 -44 0 -59 -3 -59 -13z"/>
<path d="M34165 6513 c-67 -15 -125 -82 -125 -145 0 -14 -9 -37 -20 -51 -11
-14 -20 -29 -20 -34 0 -6 17 -28 38 -51 45 -48 72 -53 127 -21 42 25 55 46 55
91 0 18 9 57 20 86 18 48 19 55 5 82 -13 25 -46 53 -57 49 -2 -1 -12 -3 -23
-6z"/>
<path d="M19804 6328 c-3 -5 -14 -8 -24 -8 -14 0 -23 -12 -33 -47 -13 -44 -13
-51 4 -85 11 -21 19 -44 19 -51 0 -30 31 -41 103 -39 39 2 76 7 82 12 7 6 16
6 20 2 5 -4 5 -1 1 6 -10 17 3 52 20 52 20 0 17 31 -6 60 -11 14 -20 32 -20
41 0 29 -74 69 -120 66 -23 -1 -44 -5 -46 -9z"/>
<path d="M20150 6053 c-8 -3 -26 -16 -40 -28 -14 -13 -34 -25 -45 -27 -16 -3
-21 -13 -25 -56 -5 -47 -3 -54 17 -67 12 -8 29 -15 38 -15 9 0 27 -8 42 -17
24 -16 27 -16 55 0 16 9 45 17 64 17 19 0 34 5 34 11 0 5 4 8 9 5 5 -3 12 20
16 51 5 40 4 58 -5 61 -6 2 -20 14 -31 25 -11 12 -39 27 -62 34 -46 14 -45 14
-67 6z"/>
<path d="M33830 5875 c-7 -8 -18 -15 -24 -15 -6 -1 -23 -20 -39 -43 -15 -23
-36 -53 -47 -67 -11 -14 -22 -48 -26 -76 l-6 -51 44 -17 c25 -10 63 -16 88
-14 40 3 44 6 55 38 8 24 19 36 33 38 26 4 24 0 27 77 3 72 -18 131 -48 139
-34 9 -43 7 -57 -9z"/>
<path d="M20529 5735 c-1 -3 -2 -10 -3 -17 0 -7 -12 -15 -26 -18 -21 -6 -25
-11 -22 -41 6 -85 42 -119 125 -119 56 0 69 -8 92 -53 6 -12 19 -23 30 -25 51
-7 65 -13 65 -27 0 -31 19 -14 26 23 3 20 17 48 29 62 31 34 40 66 20 74 -8 3
-15 11 -15 18 0 13 -20 27 -125 86 -48 27 -74 34 -127 37 -38 3 -69 2 -69 0z"/>
<path d="M20913 5417 c-13 -14 -23 -31 -23 -38 0 -7 -7 -20 -16 -30 -10 -11
-13 -23 -7 -31 4 -7 8 -22 8 -33 0 -14 10 -21 40 -27 22 -4 57 -15 78 -25 36
-16 38 -16 61 6 13 12 36 25 52 30 40 10 60 52 42 88 -18 36 -87 71 -156 78
-52 5 -59 4 -79 -18z"/>
<path d="M33490 5290 c-8 -5 -24 -10 -35 -10 -24 0 -50 -32 -79 -97 -32 -71
-25 -94 35 -121 31 -15 58 -21 72 -16 28 8 87 63 87 81 0 8 7 16 15 19 8 4 15
13 15 20 0 8 7 26 16 39 13 20 14 28 4 40 -7 8 -17 15 -22 15 -5 0 -21 9 -35
20 -28 22 -50 25 -73 10z"/>
<path d="M21422 5138 c-12 -6 -24 -21 -27 -32 -15 -78 -14 -86 9 -113 23 -26
29 -28 103 -28 82 0 145 21 157 52 9 23 -3 53 -20 53 -11 0 -13 6 -9 19 4 15
-1 24 -22 34 -38 20 -162 30 -191 15z"/>
<path d="M22046 4890 c-27 -9 -57 -26 -67 -39 -19 -24 -26 -95 -11 -105 18
-11 123 -23 128 -15 8 14 54 10 104 -7 53 -18 110 -11 110 13 0 9 7 25 16 34
16 17 15 20 -16 49 -18 16 -35 30 -38 30 -3 0 -20 12 -39 26 -23 18 -41 24
-57 20 -12 -3 -36 -2 -52 2 -19 5 -46 2 -78 -8z"/>
<path d="M33007 4698 c-2 -7 -17 -20 -33 -28 -33 -17 -84 -64 -84 -77 0 -5
-11 -20 -25 -33 -64 -60 8 -149 108 -133 30 4 53 17 79 43 21 20 53 48 73 61
34 23 47 49 24 49 -8 0 -10 15 -7 45 6 46 -9 72 -42 73 -8 0 -31 3 -51 6 -26
5 -38 3 -42 -6z"/>
<path d="M22623 4618 c-50 -53 -60 -66 -65 -91 -6 -29 29 -69 72 -84 44 -15
234 0 269 22 11 6 22 91 15 110 -3 8 -10 13 -14 10 -5 -3 -21 6 -36 20 -25 23
-75 34 -124 26 -27 -5 -55 -3 -75 3 -14 5 -27 0 -42 -16z"/>
<path d="M23305 4341 c-49 -12 -84 -41 -94 -78 -9 -32 -8 -37 26 -66 20 -18
45 -35 57 -39 35 -10 129 -9 190 4 50 10 60 15 73 43 12 25 13 42 6 71 -8 35
-12 39 -43 42 -19 2 -49 9 -67 17 -33 16 -97 18 -148 6z"/>
<path d="M32420 4200 c-8 -5 -27 -10 -43 -10 -30 0 -92 -36 -119 -69 -10 -12
-18 -34 -18 -50 0 -39 54 -111 83 -111 36 1 101 18 105 28 2 6 12 8 22 5 14
-4 22 2 29 19 8 22 32 38 74 52 28 9 19 48 -23 93 -41 43 -84 60 -110 43z"/>
<path d="M24081 4089 c-26 -30 -34 -49 -35 -84 -1 -30 3 -50 14 -60 20 -18
116 -31 132 -17 15 11 78 4 78 -9 0 -5 8 -9 18 -9 9 0 30 -7 46 -15 41 -22 71
-19 90 10 23 35 20 96 -6 135 -21 31 -33 36 -133 62 -146 37 -162 36 -204 -13z"/>
<path d="M31804 3904 c-8 -18 -19 -34 -25 -34 -21 0 -79 -73 -79 -100 0 -44
65 -90 128 -90 15 0 52 16 82 35 30 19 60 35 68 35 19 0 50 32 53 55 8 51 -84
123 -166 130 -45 4 -47 3 -61 -31z"/>
<path d="M24770 3874 l-73 -34 7 -62 c4 -35 15 -71 23 -80 19 -22 59 -23 66
-4 3 8 23 19 44 24 52 13 169 8 188 -8 9 -7 22 -9 32 -4 10 4 29 8 43 8 20 1
28 10 42 48 l18 48 -43 27 c-23 15 -51 34 -62 44 -15 12 -46 18 -116 21 -93 5
-99 4 -169 -28z"/>
<path d="M25490 3652 c-19 -8 -48 -23 -63 -34 -27 -19 -29 -25 -24 -65 2 -25
10 -50 15 -55 10 -10 54 -21 127 -32 11 -2 28 -7 38 -11 10 -4 39 -5 65 -2 34
4 60 0 94 -15 26 -11 54 -18 62 -15 8 3 27 27 42 53 25 43 26 48 11 59 -9 7
-17 20 -17 30 0 13 -6 16 -21 12 -19 -5 -80 20 -87 36 -2 4 -11 7 -20 7 -9 1
-35 8 -57 16 -66 26 -127 32 -165 16z"/>
<path d="M31265 3561 c-11 -5 -32 -10 -47 -10 -15 -1 -31 -7 -35 -15 -4 -7
-18 -18 -29 -24 -14 -7 -24 -24 -26 -44 -3 -18 -8 -41 -12 -50 -17 -39 94 -73
202 -62 57 6 62 8 62 30 0 16 9 28 29 38 28 15 49 46 32 46 -5 0 -12 16 -15
35 -4 20 -16 39 -27 45 -28 15 -110 22 -134 11z"/>
<path d="M26355 3510 c-72 -8 -161 -36 -189 -59 -24 -20 -20 -74 9 -105 31
-34 103 -40 134 -12 15 14 36 18 90 18 61 0 71 2 76 19 4 11 18 25 31 31 29
14 30 29 4 53 -11 10 -20 25 -20 33 0 9 -7 13 -19 9 -12 -3 -22 1 -25 9 -3 8
-9 13 -13 13 -4 -1 -39 -5 -78 -9z"/>
<path d="M26911 3336 c-20 -32 -27 -88 -15 -120 3 -9 17 -16 29 -16 13 0 27
-5 30 -10 4 -6 32 -10 63 -9 31 1 75 -2 98 -6 39 -7 42 -6 72 33 32 40 39 62
25 76 -5 4 -8 18 -8 29 0 17 -5 21 -20 18 -45 -8 -112 1 -151 19 -62 31 -98
27 -123 -14z"/>
<path d="M27730 3299 c-47 -43 -51 -74 -14 -114 25 -27 27 -28 102 -19 90 9
137 9 174 -1 23 -6 32 -2 58 26 37 41 38 71 3 107 -21 22 -38 29 -68 29 -22 1
-79 2 -128 4 l-88 4 -39 -36z"/>
<path d="M30670 3304 c-73 -26 -120 -72 -120 -119 0 -25 5 -35 20 -40 11 -3
25 -15 31 -26 9 -18 17 -19 72 -13 34 4 73 12 87 19 14 7 43 16 65 19 22 4 52
19 67 33 22 22 25 29 17 51 -21 54 -48 69 -139 75 -47 3 -92 4 -100 1z"/>
<path d="M28465 3253 c-62 -7 -121 -27 -137 -46 -21 -23 -23 -66 -5 -89 21
-29 115 -49 188 -42 44 4 74 2 89 -6 20 -10 26 -8 56 21 25 24 34 42 34 65 0
28 -6 36 -43 57 -41 22 -125 49 -144 46 -4 -1 -21 -4 -38 -6z"/>
<path d="M29159 3241 c-39 -8 -98 -46 -100 -64 -5 -47 -9 -70 -13 -74 -11 -11
15 -43 35 -43 11 0 34 -6 52 -14 29 -12 45 -11 132 9 l100 22 3 37 c3 31 0 38
-17 43 -12 3 -21 9 -21 13 0 4 -16 23 -35 43 -38 39 -58 43 -136 28z"/>
<path d="M29863 3202 c-13 -2 -23 -7 -23 -11 0 -8 -55 -35 -75 -37 -5 0 -22
-7 -37 -14 -23 -11 -28 -20 -28 -51 0 -36 2 -39 40 -49 75 -20 174 -27 250
-18 83 10 185 52 195 81 4 9 11 17 16 17 6 0 6 8 -1 20 -6 11 -17 20 -24 20
-8 0 -19 7 -26 15 -7 8 -22 15 -35 15 -12 0 -25 3 -29 7 -6 7 -182 11 -223 5z"/>
<path d="M25375 2805 c-33 -6 -69 -17 -81 -23 -11 -6 -30 -9 -41 -6 -13 4 -22
0 -26 -10 -4 -9 -18 -16 -32 -16 -14 0 -28 -7 -31 -15 -4 -8 -17 -15 -31 -15
-14 0 -22 -4 -18 -11 4 -5 -4 -20 -17 -33 -113 -110 -129 -133 -139 -198 -6
-34 -7 -76 -3 -93 3 -16 8 -72 9 -123 2 -54 8 -98 15 -107 7 -8 10 -22 6 -30
-3 -10 1 -18 12 -21 9 -3 26 -10 37 -15 24 -10 70 -16 70 -9 0 3 14 24 31 45
28 36 29 44 21 80 -5 22 -11 80 -14 128 -4 83 -3 91 22 129 34 51 104 128 117
128 6 0 21 9 35 20 30 23 85 26 163 8 44 -10 56 -9 83 5 18 9 41 17 52 19 17
3 20 10 17 53 -1 27 -9 56 -18 66 -15 17 -112 44 -122 35 -2 -3 -16 1 -31 8
-20 10 -39 10 -86 1z"/>
<path d="M27942 2733 c-13 -3 -27 -15 -32 -29 -5 -13 -14 -24 -19 -24 -5 0 -7
-9 -4 -20 3 -11 1 -20 -5 -20 -5 0 -12 -15 -15 -32 -3 -18 -13 -64 -22 -103
-9 -38 -20 -101 -24 -140 -5 -38 -14 -83 -20 -99 -6 -16 -13 -45 -14 -65 -2
-20 -9 -54 -15 -76 -6 -22 -14 -70 -17 -107 -4 -38 -11 -68 -17 -68 -5 0 -35
7 -65 16 -48 14 -64 14 -117 3 -49 -10 -71 -22 -115 -61 -30 -26 -63 -48 -72
-48 -17 0 -49 -50 -49 -77 0 -8 -11 -35 -25 -61 -19 -35 -25 -62 -25 -106 0
-51 4 -63 31 -94 92 -104 198 -131 395 -98 95 15 116 28 203 125 35 39 70 71
77 71 19 0 18 51 -1 76 -9 12 -12 32 -8 56 4 26 -2 56 -21 105 -29 77 -32 143
-9 233 8 30 16 75 18 100 12 132 16 154 27 168 7 8 11 26 10 39 -3 23 29 135
50 176 5 10 6 27 3 38 -4 11 0 25 9 35 12 12 14 20 5 35 -28 53 -54 64 -117
52z m-277 -954 c5 -5 17 -9 26 -9 24 0 51 -29 45 -47 -4 -8 4 -17 19 -23 14
-5 28 -17 31 -25 24 -60 -199 -122 -283 -78 -53 28 -59 51 -28 115 14 30 36
60 48 66 41 21 119 21 142 1z"/>
<path d="M25995 2630 c-22 -11 -45 -19 -51 -20 -6 0 -22 -16 -35 -35 -13 -19
-31 -37 -39 -40 -22 -8 -159 -234 -160 -265 0 -8 -9 -33 -20 -55 -20 -42 -28
-162 -11 -181 5 -5 14 -25 20 -44 8 -24 31 -50 72 -82 66 -52 57 -51 244 -50
69 0 100 5 135 21 25 11 53 21 63 21 10 0 37 21 61 47 l44 47 -36 33 c-20 18
-41 33 -46 34 -6 0 -19 2 -29 4 -10 2 -36 -3 -58 -10 -59 -21 -180 -30 -221
-16 -26 9 -40 22 -53 50 -19 42 -13 65 13 57 30 -10 252 -16 252 -8 0 8 54 34
97 46 11 4 24 13 27 21 3 8 12 15 19 15 18 0 37 42 37 81 0 16 6 40 14 52 7
12 16 40 19 63 4 34 -1 49 -24 85 -16 24 -37 56 -47 71 -9 15 -39 39 -67 53
-64 32 -160 34 -220 5z m159 -181 c32 -25 33 -49 4 -76 -40 -36 -166 -56 -221
-34 -17 6 -15 10 13 46 31 40 112 84 156 85 12 0 33 -9 48 -21z"/>
<path d="M26895 2347 c-33 -10 -75 -25 -93 -33 -18 -8 -44 -14 -58 -14 -31 0
-80 -24 -87 -43 -3 -8 -26 -19 -51 -26 -27 -6 -46 -17 -46 -25 0 -7 -7 -19
-15 -26 -8 -6 -30 -41 -50 -76 -42 -77 -48 -152 -15 -194 11 -14 20 -33 20
-44 0 -25 73 -90 141 -126 50 -26 63 -28 105 -21 27 4 56 11 65 17 34 19 139
123 139 137 0 8 6 20 14 26 15 13 26 -4 26 -38 0 -10 9 -26 20 -36 12 -10 19
-24 16 -31 -4 -12 15 -78 26 -89 3 -4 4 -24 1 -45 -5 -33 -2 -41 13 -46 11 -3
27 -10 36 -15 10 -5 27 -9 38 -9 31 0 88 57 102 102 12 40 11 42 -21 69 -29
23 -33 32 -28 58 5 21 0 37 -14 55 -12 15 -22 43 -24 64 -1 20 -6 45 -10 55
-4 9 -4 33 -1 51 4 20 2 37 -4 41 -5 3 -10 15 -10 26 0 10 -5 28 -12 38 -8 13
-8 29 0 61 7 31 7 57 -1 96 -11 52 -12 54 -47 56 -88 4 -119 2 -175 -15z m-24
-224 c14 -37 -6 -107 -40 -143 -14 -15 -30 -34 -36 -43 -10 -16 -29 -21 -75
-18 -37 2 -61 25 -70 68 -11 47 8 83 45 83 13 0 35 12 48 26 20 21 83 52 110
54 4 0 12 -12 18 -27z"/>
</g>
</svg>
