<?xml version="1.0" standalone="no"?>
<!DOCTYPE svg PUBLIC "-//W3C//DTD SVG 20010904//EN"
 "http://www.w3.org/TR/2001/REC-SVG-20010904/DTD/svg10.dtd">
<svg version="1.0" xmlns="http://www.w3.org/2000/svg"
 width="3311.205653pt" height="400.000000pt" viewBox="0 0 3311.205653 400.000000"
 preserveAspectRatio="xMidYMid meet">
<metadata>
Created by potrace 1.15, written by Peter Selinger 2001-2017
</metadata>
<g transform="translate(-104.179090,481.614292) scale(0.169676,-0.169676)"
fill="#444444" stroke="none">
<path d="M9448 2833 c-31 -8 -49 -49 -39 -91 11 -49 2 -492 -15 -792 -9 -154
-9 -180 -1 -513 4 -148 10 -273 13 -279 4 -5 8 -107 11 -225 4 -186 2 -217
-11 -232 -34 -38 17 -121 64 -106 47 15 55 48 55 225 0 91 -4 203 -8 250 -4
47 -10 155 -13 239 -3 85 -7 158 -9 161 -2 3 0 23 5 43 4 20 5 37 1 37 -4 0
-8 15 -8 33 -3 200 -2 370 2 407 11 117 14 207 16 483 1 164 6 300 10 303 16
9 11 54 -5 48 -8 -3 -17 -1 -21 5 -6 11 -17 12 -47 4z"/>
<path d="M13109 2549 c-15 -15 -19 -28 -15 -47 8 -38 10 -1098 2 -1202 -8
-102 -10 -118 -18 -126 -4 -3 -4 -12 -2 -19 3 -8 0 -64 -6 -127 -15 -147 -20
-216 -24 -310 -4 -82 3 -98 50 -112 35 -11 45 15 49 126 2 57 7 132 10 168 4
36 8 88 10 115 2 28 6 64 9 80 22 130 32 567 20 930 -8 259 -8 225 -1 353 3
56 9 106 12 111 3 5 1 12 -5 16 -5 3 -10 15 -10 25 0 18 -27 40 -49 40 -6 0
-20 -9 -32 -21z"/>
<path d="M8302 2245 c-38 -44 -37 -234 2 -430 10 -49 22 -98 27 -107 5 -10 9
-27 9 -37 0 -11 7 -46 16 -78 20 -73 33 -137 29 -141 -2 -2 -13 2 -25 8 -19
10 -69 13 -145 9 -11 0 -37 -7 -57 -15 -21 -8 -38 -12 -38 -10 0 2 -14 -8 -32
-22 -48 -41 -99 -92 -92 -92 3 0 0 -7 -7 -16 -8 -10 -13 -41 -12 -86 2 -126
63 -188 220 -223 68 -15 74 -15 135 5 34 11 74 26 88 33 28 13 118 84 137 107
24 29 10 80 -22 80 -7 0 -32 -15 -56 -33 -61 -46 -163 -88 -231 -94 -45 -5
-62 -2 -85 14 -15 11 -36 23 -46 26 -11 4 -21 16 -24 27 -3 11 -9 20 -14 20
-11 0 -4 63 10 88 21 40 84 93 120 101 39 8 122 -6 156 -28 11 -7 29 -27 40
-45 16 -24 28 -32 58 -34 21 -2 44 1 50 6 15 13 13 68 -3 107 -25 61 -28 71
-41 135 -6 36 -16 70 -21 77 -5 7 -7 21 -3 32 3 10 2 22 -4 25 -8 5 -20 52
-26 101 -1 6 -4 17 -7 25 -7 15 -13 46 -26 135 -5 28 -8 100 -7 162 0 91 4
115 18 131 22 24 22 39 -2 52 -33 17 -66 11 -89 -15z"/>
<path d="M11379 2052 c-15 -2 -29 -11 -32 -20 -3 -9 -8 -24 -11 -33 -5 -10 6
-25 33 -47 35 -28 42 -30 69 -20 33 13 36 32 13 79 -16 32 -39 45 -72 41z"/>
<path d="M14935 1970 c-3 -5 -27 -10 -53 -10 -29 0 -73 -12 -114 -29 -37 -16
-69 -26 -72 -23 -4 3 -6 -2 -6 -11 0 -10 -5 -17 -12 -17 -17 0 -98 -88 -98
-106 0 -53 74 -148 139 -180 23 -10 41 -22 41 -26 0 -5 6 -8 14 -8 8 0 17 -4
20 -9 9 -13 -87 -41 -142 -41 -46 0 -50 -2 -55 -27 -6 -31 9 -69 30 -77 25
-10 204 15 259 35 67 25 84 48 74 96 -10 41 -14 44 -95 83 -58 27 -160 102
-160 118 0 4 -4 12 -8 19 -5 8 18 24 70 49 65 32 91 39 156 42 69 4 80 7 88
26 15 33 -18 106 -48 106 -12 0 -25 -4 -28 -10z"/>
<path d="M14408 1938 c-28 -10 -32 -17 -28 -51 1 -10 -4 -25 -10 -33 -10 -11
-10 -17 0 -29 13 -15 11 -39 -10 -165 -17 -106 -50 -209 -74 -236 -33 -36 -77
-40 -114 -9 -62 52 -78 170 -41 306 16 59 6 99 -24 99 -43 -1 -63 -30 -76
-110 -7 -41 -16 -84 -20 -95 -7 -19 -6 -65 2 -131 8 -68 76 -156 142 -184 108
-46 196 5 247 145 40 110 48 139 48 181 0 21 7 62 15 89 18 59 21 185 5 214
-12 23 -21 24 -62 9z"/>
<path d="M10532 1887 c-26 -27 -28 -54 -7 -104 20 -48 19 -135 -2 -176 -25
-45 -82 -114 -110 -133 -47 -30 -64 14 -67 168 -1 85 -2 88 -35 122 -39 41
-49 44 -58 19 -3 -10 -13 -26 -21 -35 -12 -14 -12 -26 -4 -60 6 -24 16 -88 22
-143 6 -55 16 -110 22 -122 6 -12 11 -30 13 -40 6 -62 41 -98 87 -88 54 12
196 158 239 247 37 76 41 87 35 97 -4 6 -2 11 4 11 6 0 8 5 3 13 -4 6 -9 23
-10 37 -5 52 -10 80 -16 87 -4 3 -7 21 -7 39 0 18 -4 36 -10 39 -5 3 -10 15
-10 26 0 27 -41 25 -68 -4z"/>
<path d="M17104 1876 c-68 -29 -124 -63 -124 -76 0 -5 -6 -10 -12 -10 -7 0
-29 -14 -48 -31 -19 -17 -52 -43 -72 -58 -41 -31 -128 -133 -128 -150 0 -6 -4
-11 -10 -11 -29 0 5 -138 41 -166 46 -37 149 -45 224 -18 22 8 44 16 50 17 5
1 18 12 28 25 10 12 25 22 33 22 7 0 16 -10 18 -22 14 -66 23 -629 11 -660 -8
-20 31 -58 60 -58 12 0 33 12 47 27 27 29 98 168 98 191 0 8 6 26 13 40 18 35
64 125 94 182 13 25 34 54 47 65 19 16 23 27 19 53 -4 27 -10 32 -32 32 -57 0
-79 -25 -162 -185 -18 -33 -34 -62 -38 -65 -3 -3 -7 -9 -8 -15 -3 -15 -32 -81
-34 -75 -2 9 -11 363 -12 526 -2 125 1 165 12 178 8 9 11 19 8 23 -4 3 -2 14
4 25 8 16 7 25 -9 41 -29 33 -33 55 -17 93 13 32 13 37 -3 53 -28 29 -45 30
-98 7z m-8 -153 c-2 -16 -10 -59 -17 -97 -7 -37 -19 -70 -26 -73 -7 -3 -13
-13 -13 -22 0 -15 -24 -34 -95 -73 -54 -30 -113 -20 -128 24 -7 21 41 97 82
129 18 13 49 38 69 55 42 35 113 83 125 83 5 1 6 -11 3 -26z"/>
<path d="M10956 1869 c-35 -10 -98 -77 -128 -136 -12 -24 -24 -43 -28 -43 -9
0 -12 -36 -11 -165 1 -122 16 -194 43 -206 7 -3 23 -11 34 -17 24 -12 53 2 58
28 1 8 7 25 14 36 10 18 9 23 -6 26 -24 7 -42 107 -36 196 5 78 41 141 87 153
25 7 31 3 57 -39 17 -26 29 -56 27 -67 -1 -11 5 -25 13 -32 12 -9 15 -40 16
-160 0 -181 -1 -173 27 -173 56 0 90 27 67 55 -6 7 -6 23 -1 43 9 31 7 186 -3
252 -13 83 -111 220 -176 247 -15 6 -37 6 -54 2z"/>
<path d="M17859 1866 c-41 -21 -69 -54 -69 -80 0 -27 -47 -116 -61 -116 -5 0
-8 -3 -7 -7 9 -29 -82 -153 -112 -153 -15 0 -21 34 -27 138 -4 75 -3 109 7
127 11 21 11 30 -6 60 -15 29 -24 35 -51 35 -25 0 -38 -8 -58 -34 -24 -32 -25
-37 -12 -58 14 -22 21 -84 31 -257 4 -68 7 -77 38 -106 20 -20 47 -35 70 -38
36 -5 40 -3 95 58 52 58 73 90 114 178 7 15 17 26 23 24 12 -4 30 -66 47 -157
5 -30 14 -64 18 -75 5 -11 13 -32 19 -46 6 -15 23 -31 39 -37 25 -8 33 -6 57
15 l28 24 -19 22 c-26 29 -39 69 -59 181 -20 118 -25 148 -31 221 -3 34 -12
68 -20 78 -19 20 -21 21 -54 3z"/>
<path d="M15152 1815 c-56 -16 -101 -55 -102 -89 0 -10 -8 -26 -18 -35 -9 -9
-19 -32 -21 -51 -1 -19 -7 -39 -11 -45 -17 -21 -22 -103 -9 -142 24 -70 63
-109 138 -138 87 -33 156 -38 250 -19 76 15 125 44 135 79 8 30 -13 37 -99 29
-135 -13 -218 -7 -264 17 -36 18 -61 45 -61 63 0 10 65 33 95 35 68 3 260 92
290 134 8 12 15 40 15 62 0 37 -4 42 -47 70 -27 17 -55 30 -64 31 -8 1 -51 4
-95 7 -55 4 -95 2 -132 -8z m136 -99 c70 -8 81 -16 48 -33 -48 -25 -216 -52
-216 -35 0 20 37 55 71 67 19 6 36 10 39 9 3 -1 29 -5 58 -8z"/>
<path d="M18394 1809 c-44 -13 -129 -96 -152 -150 -22 -52 -37 -108 -33 -126
1 -7 -2 -13 -7 -13 -6 0 -12 -6 -15 -12 -8 -21 36 -141 66 -180 30 -39 115
-88 152 -88 12 0 25 -3 29 -7 20 -20 235 28 269 61 7 7 28 22 48 34 19 12 43
30 53 41 17 18 17 21 1 45 -12 18 -26 26 -46 26 -16 0 -29 -4 -29 -8 0 -9 -29
-25 -112 -61 -68 -30 -187 -29 -247 2 -51 26 -63 46 -29 48 13 1 26 1 30 0 20
-3 125 23 142 35 11 8 30 14 42 14 12 0 32 11 45 25 13 13 29 25 34 25 23 0
85 70 85 95 0 15 4 35 10 45 8 14 2 26 -30 59 -22 23 -46 41 -54 41 -8 0 -21
6 -28 13 -40 39 -151 57 -224 36z m161 -119 c70 -36 71 -72 3 -107 -50 -24
-133 -49 -200 -58 l-48 -7 0 41 c0 49 37 113 77 135 40 22 121 20 168 -4z"/>
<path d="M19196 1799 c-50 -12 -141 -80 -168 -125 -11 -19 -24 -34 -29 -34 -5
0 -9 -9 -9 -19 0 -34 -21 -34 -49 -1 -24 30 -29 31 -48 19 -26 -16 -36 -49
-24 -81 4 -13 16 -68 26 -123 23 -125 38 -163 72 -176 37 -14 73 6 74 40 0 14
3 51 5 81 3 30 5 64 5 75 0 10 5 25 10 32 6 7 9 18 6 25 -2 7 1 24 8 38 7 14
18 37 26 53 33 70 150 116 247 96 45 -9 57 -8 78 6 14 9 22 21 18 28 -19 33
-40 47 -69 47 -17 0 -35 3 -38 7 -4 3 -19 8 -34 9 -16 2 -37 5 -48 7 -11 3
-38 0 -59 -4z"/>
<path d="M15845 1788 c-55 -19 -145 -126 -145 -174 0 -8 -4 -14 -10 -14 -5 0
-10 10 -10 23 -1 50 -51 75 -84 41 -21 -20 -20 -44 3 -91 10 -21 29 -72 41
-113 35 -117 34 -116 76 -123 46 -8 53 1 55 63 3 63 3 68 11 76 4 4 5 17 2 29
-3 13 -1 26 5 29 6 4 11 17 11 28 0 12 9 40 20 63 23 48 65 71 143 78 51 5 87
29 87 57 0 10 -8 21 -17 25 -29 12 -156 14 -188 3z"/>
<path d="M12021 1763 c-13 -3 -41 -16 -62 -29 -21 -13 -42 -24 -46 -24 -24 -2
-143 -134 -143 -159 0 -6 -4 -11 -10 -11 -5 0 -10 -6 -10 -14 0 -7 -7 -27 -15
-42 -18 -35 -19 -120 -2 -153 16 -32 64 -59 104 -60 27 -1 113 14 200 34 22 5
25 -2 37 -80 17 -114 29 -585 16 -620 -12 -32 10 -74 51 -101 45 -28 59 -30
59 -9 0 9 21 47 46 86 48 72 131 221 141 252 3 9 9 17 14 17 5 0 9 5 9 11 0
21 34 84 67 126 18 23 33 46 33 51 0 6 5 12 10 14 6 2 11 17 13 33 2 27 -2 31
-36 39 -31 8 -42 6 -65 -11 -15 -11 -27 -29 -27 -40 0 -11 -7 -28 -15 -37 -15
-19 -26 -37 -58 -96 -73 -135 -134 -232 -141 -224 -3 2 -5 109 -6 237 0 128
-4 237 -8 244 -4 6 -10 92 -12 190 -6 207 -11 250 -32 262 -17 9 -28 61 -13
61 5 0 2 14 -6 30 -16 31 -31 34 -93 23z m21 -153 c-1 -13 -7 -27 -13 -31 -8
-4 -8 -22 1 -60 20 -89 14 -101 -55 -121 -123 -34 -186 -17 -148 39 11 15 25
43 32 61 8 17 17 32 21 32 4 0 33 25 64 56 40 38 64 54 79 52 17 -2 21 -9 19
-28z"/>
<path d="M19535 1732 c-22 -19 -22 -57 0 -82 7 -8 23 -40 35 -70 13 -30 33
-78 46 -107 13 -28 24 -57 24 -63 0 -6 11 -28 25 -48 14 -20 25 -42 25 -49 0
-6 -18 -30 -40 -53 -22 -23 -40 -46 -40 -51 0 -5 -18 -28 -40 -51 -23 -24 -56
-66 -76 -95 -19 -29 -39 -55 -44 -58 -6 -4 -28 -30 -49 -58 -21 -29 -48 -62
-60 -74 -12 -12 -21 -25 -21 -29 0 -4 -35 -41 -77 -83 -97 -95 -109 -115 -84
-140 43 -43 53 -39 168 76 59 59 115 122 123 138 15 29 74 109 128 170 14 17
37 46 50 65 13 19 33 44 43 55 28 28 63 71 112 135 38 50 63 82 139 170 15 18
37 48 49 66 11 19 29 39 40 44 10 6 19 17 19 25 0 7 22 38 49 67 l50 55 -19
31 c-11 18 -28 32 -38 32 -20 0 -62 -39 -62 -57 0 -6 -3 -13 -8 -15 -4 -1 -23
-23 -42 -48 -57 -73 -62 -80 -126 -146 -33 -35 -65 -64 -70 -64 -11 0 -69 112
-129 252 -9 21 -15 46 -13 55 4 25 -60 29 -87 5z"/>
<path d="M11421 1699 c-10 -22 -13 -64 -11 -138 3 -107 2 -197 -3 -261 -2 -33
0 -35 31 -38 42 -4 57 8 75 63 13 37 13 44 1 49 -10 4 -11 12 -6 28 4 13 6 46
5 73 -2 28 -5 92 -7 144 -3 97 -10 111 -51 111 -13 0 -25 -11 -34 -31z"/>
<path d="M1459 1654 c-95 -26 -209 -133 -179 -168 5 -7 7 -15 5 -18 -8 -8 46
-50 146 -116 48 -31 119 -83 159 -116 l72 -58 -22 -23 c-12 -13 -42 -28 -68
-34 -26 -7 -63 -16 -83 -21 -52 -14 -121 8 -129 40 -7 31 -46 39 -65 13 -20
-26 -18 -40 12 -82 24 -33 34 -39 92 -49 112 -21 290 11 327 59 12 15 25 62
25 91 0 9 -13 30 -30 46 -17 16 -31 34 -31 40 0 6 -22 24 -50 41 -27 17 -50
35 -50 40 0 5 -11 12 -25 15 -13 3 -40 22 -59 41 -20 19 -39 35 -43 35 -5 0
-25 15 -46 33 l-38 33 25 23 c28 26 131 50 222 50 27 1 55 6 62 13 14 14 16
47 4 65 -13 20 -168 25 -233 7z"/>
<path d="M2840 1600 c-25 -3 -55 -11 -67 -18 -46 -25 -113 -135 -113 -185 0
-11 -7 -28 -15 -37 -18 -20 -35 -112 -24 -132 4 -7 12 -39 18 -70 7 -31 19
-62 27 -68 7 -7 14 -18 14 -25 0 -19 35 -45 61 -45 42 0 47 14 32 88 -21 102
-31 205 -22 224 5 9 9 27 10 40 0 13 15 43 33 68 37 52 65 59 163 41 64 -12
74 -7 79 38 3 26 0 32 -24 37 -15 4 -36 12 -47 19 -37 22 -80 31 -125 25z"/>
<path d="M637 1580 c-24 -19 -25 -25 -21 -83 7 -100 24 -185 57 -292 56 -180
91 -234 166 -259 87 -28 109 -23 165 37 84 91 113 183 116 372 1 44 0 87 -2
95 -5 18 -15 52 -30 103 -15 49 -45 58 -82 24 -32 -30 -33 -40 -1 -61 14 -9
25 -22 23 -29 -1 -7 1 -33 5 -58 7 -40 3 -88 -18 -245 -4 -33 -19 -55 -68
-103 -41 -39 -49 -43 -80 -37 -19 3 -42 15 -51 25 -29 32 -82 187 -92 267 -3
27 -7 51 -9 55 -3 3 -5 43 -6 88 -2 63 -6 85 -21 101 -23 24 -20 24 -51 0z"/>
<path d="M2043 1570 c-18 -11 -33 -27 -33 -35 0 -8 -4 -15 -9 -15 -13 0 -51
-67 -51 -90 0 -10 -15 -30 -32 -44 -36 -27 -39 -53 -14 -101 8 -16 13 -32 10
-37 -7 -11 47 -104 89 -153 52 -61 109 -96 179 -111 89 -19 112 -17 172 11 47
22 105 79 93 92 -3 2 -21 8 -41 13 -26 6 -39 4 -47 -6 -19 -23 -180 -19 -229
6 -71 36 -128 157 -82 175 9 4 51 9 92 11 41 3 94 12 118 20 23 7 53 14 65 14
17 0 26 9 35 33 16 45 15 76 -3 83 -8 4 -15 11 -15 16 0 35 -171 138 -229 138
-20 0 -51 -9 -68 -20z m127 -102 c27 -18 48 -37 46 -43 -5 -21 -148 -54 -180
-42 -12 5 -13 11 -3 38 12 30 59 79 78 79 5 0 31 -15 59 -32z"/>
<path d="M4200 1570 c-19 -10 -64 -29 -100 -42 -98 -34 -163 -108 -205 -231
-13 -39 -13 -50 1 -98 8 -30 21 -58 27 -64 7 -5 19 -23 27 -38 8 -16 23 -33
35 -39 11 -6 25 -17 30 -24 17 -22 135 -55 195 -55 34 0 71 6 88 15 17 9 37
16 43 16 7 0 21 7 30 16 17 15 17 19 3 44 -16 26 -17 26 -123 26 -108 -1 -152
11 -204 54 -52 43 -66 130 -26 166 10 9 19 22 19 28 1 23 177 125 217 126 7 0
26 20 43 45 l31 45 -35 15 c-45 19 -54 19 -96 -5z"/>
<path d="M7563 1575 c-33 -11 -58 -41 -113 -132 -17 -29 -37 -53 -44 -53 -28
0 -44 -34 -39 -80 3 -25 6 -59 8 -76 1 -17 5 -36 9 -43 4 -6 5 -24 2 -39 -8
-36 2 -49 53 -67 54 -19 51 -19 51 3 0 10 3 22 6 25 11 10 13 67 3 73 -13 7
-11 84 2 125 20 61 57 134 77 152 15 13 25 15 44 8 44 -17 107 -117 129 -207
7 -27 15 -53 19 -59 4 -5 8 -30 10 -55 4 -62 4 -67 -5 -132 -7 -55 -6 -58 16
-66 64 -24 66 -24 82 8 13 25 14 42 6 88 -5 31 -12 86 -15 122 -3 35 -9 69
-14 75 -4 5 -15 38 -24 72 -9 34 -32 89 -51 123 -19 34 -35 66 -35 71 0 5 -6
9 -14 9 -8 0 -16 6 -19 14 -6 15 -56 41 -92 48 -11 2 -34 -1 -52 -7z"/>
<path d="M6292 1547 c-18 -18 -32 -38 -32 -44 0 -6 -10 -36 -21 -67 -24 -63
-14 -66 -94 29 -93 111 -118 122 -164 74 -17 -17 -31 -37 -31 -44 0 -6 -14
-21 -30 -34 -28 -20 -30 -26 -24 -59 4 -20 13 -46 20 -57 8 -11 14 -32 14 -48
0 -15 7 -44 15 -63 8 -20 13 -39 11 -43 -8 -12 19 -97 35 -114 23 -23 63 -31
76 -15 16 19 21 138 7 138 -19 0 -26 29 -31 128 -4 57 -2 92 4 92 20 0 53 -47
104 -146 22 -41 63 -74 93 -74 17 0 56 68 56 97 0 25 22 85 41 113 l16 24 35
-54 c19 -30 47 -80 61 -110 15 -30 31 -62 36 -70 23 -37 61 -126 61 -141 0
-27 44 -51 74 -40 38 15 39 27 11 86 -14 30 -37 81 -52 112 -15 32 -43 83 -62
113 -20 30 -37 65 -38 78 -1 12 -12 35 -25 50 -13 16 -32 44 -42 64 -11 20
-30 39 -42 42 -12 3 -28 8 -36 11 -7 3 -28 -9 -46 -28z"/>
<path d="M5086 1545 c-15 -14 -36 -25 -47 -25 -19 0 -79 -26 -79 -34 0 -2 6
-19 14 -37 12 -31 32 -153 28 -171 -1 -5 3 -40 8 -79 6 -44 7 -76 1 -83 -6 -7
-4 -18 5 -30 7 -10 11 -22 9 -26 -10 -16 26 -31 67 -28 41 3 43 5 48 38 3 19
0 55 -6 80 -34 125 -35 264 -2 297 15 14 19 14 47 -3 31 -19 89 -113 97 -161
3 -15 9 -32 14 -38 4 -5 10 -21 12 -35 2 -19 11 -26 42 -34 33 -7 41 -6 53 10
7 10 13 28 13 41 0 20 16 74 41 141 l9 24 36 -21 c43 -26 134 -103 134 -114 0
-4 16 -25 36 -47 41 -44 64 -84 64 -110 0 -25 32 -50 72 -56 51 -9 53 12 9
103 -35 71 -144 223 -161 223 -3 0 -33 24 -66 53 -66 60 -93 77 -123 77 -32 0
-68 -20 -81 -46 -7 -13 -17 -21 -22 -18 -4 3 -8 -8 -8 -25 0 -23 -4 -29 -15
-25 -8 3 -17 16 -21 27 -12 39 -62 103 -101 130 -49 34 -92 35 -127 2z"/>
<path d="M7049 1543 c-18 -3 -33 -16 -45 -39 -10 -18 -23 -34 -28 -34 -9 0
-31 -19 -133 -119 -35 -34 -63 -64 -63 -67 0 -3 -11 -20 -25 -37 -18 -25 -23
-41 -19 -69 5 -47 21 -88 33 -88 5 0 32 -16 60 -35 60 -42 119 -47 181 -15 47
24 75 62 97 131 l17 52 33 -39 c18 -22 33 -43 33 -48 0 -5 16 -24 36 -43 48
-45 88 -43 92 3 2 25 -5 40 -32 70 -20 22 -36 46 -36 55 0 9 -7 19 -15 22 -8
4 -25 28 -39 55 -14 27 -32 52 -41 56 -8 3 -19 14 -23 24 -6 15 -12 17 -38 10
-39 -10 -68 -64 -61 -112 6 -41 -19 -121 -45 -146 -28 -26 -72 -25 -114 0 -44
28 -50 50 -22 92 23 34 118 118 133 118 5 0 32 23 61 50 29 28 57 50 62 50 15
0 32 71 21 92 -9 17 -24 20 -80 11z"/>
<path d="M4620 1530 c-18 -5 -39 -15 -46 -24 -6 -9 -16 -16 -23 -16 -6 0 -11
-6 -11 -12 0 -7 -11 -23 -24 -35 -37 -35 -68 -144 -65 -233 2 -82 12 -110 59
-160 27 -28 29 -35 16 -42 -19 -11 -21 -42 -3 -56 27 -22 74 -22 158 2 76 21
91 29 132 72 100 105 119 143 120 237 0 73 -31 144 -88 202 -68 67 -133 86
-225 65z m122 -110 c23 -7 49 -25 67 -47 29 -35 30 -42 27 -105 -3 -50 -11
-79 -30 -113 -15 -25 -30 -45 -35 -45 -4 0 -21 -13 -37 -29 -28 -27 -142 -77
-152 -66 -3 3 7 17 21 31 22 22 25 30 15 48 -6 11 -21 30 -35 41 -17 14 -26
36 -33 79 -8 53 -7 63 19 120 15 33 34 66 42 72 28 23 78 28 131 14z"/>
<path d="M16091 1407 c-38 -27 -42 -67 -7 -94 21 -17 40 -19 195 -16 95 1 183
-2 196 -7 37 -14 82 5 88 38 5 28 -18 55 -40 47 -7 -2 -41 4 -77 14 -35 10
-97 19 -137 20 -40 1 -76 4 -79 6 -4 2 -30 6 -57 9 -41 4 -57 0 -82 -17z"/>
<path d="M3143 1050 c-16 -24 -17 -50 -3 -50 6 0 10 -6 10 -12 2 -50 178 -73
446 -59 12 1 33 10 48 22 24 19 25 22 11 49 -14 27 -16 28 -107 29 -84 1 -208
15 -248 28 -8 3 -44 7 -80 9 -57 4 -67 2 -77 -16z"/>
</g>
</svg>
