<?xml version="1.0" standalone="no"?>
<!DOCTYPE svg PUBLIC "-//W3C//DTD SVG 20010904//EN"
 "http://www.w3.org/TR/2001/REC-SVG-20010904/DTD/svg10.dtd">
<svg version="1.0" xmlns="http://www.w3.org/2000/svg"
 width="3130.397917pt" height="400.000000pt" viewBox="0 0 3130.397917 400.000000"
 preserveAspectRatio="xMidYMid meet">
<metadata>
Created by potrace 1.15, written by Peter Selinger 2001-2017
</metadata>
<g transform="translate(-103.724294,508.403036) scale(0.166774,-0.166774)"
fill="#444444" stroke="none">
<path d="M9534 3032 c-19 -16 -21 -28 -21 -103 3 -230 -6 -767 -15 -958 -6
-119 -11 -416 -12 -661 -1 -245 -5 -481 -10 -526 -9 -81 -9 -81 20 -107 16
-15 34 -27 40 -27 36 0 40 102 31 795 -2 143 0 328 5 410 10 182 16 383 23
785 3 168 7 320 9 339 2 23 -3 40 -16 53 -22 22 -27 22 -54 0z"/>
<path d="M13386 2972 c-15 -17 -16 -67 -14 -568 2 -302 -1 -639 -6 -749 -10
-227 -10 -380 0 -710 8 -247 9 -254 61 -255 34 0 37 29 27 274 -11 265 -8 626
7 906 7 113 11 210 11 215 -1 6 -3 200 -6 432 -5 370 -7 426 -22 448 -19 30
-35 32 -58 7z"/>
<path d="M17820 2540 c-6 -11 -8 -41 -5 -67 2 -27 7 -75 10 -108 3 -33 10 -80
14 -105 5 -25 7 -48 5 -51 -2 -4 5 -78 16 -165 25 -204 44 -477 36 -531 -5
-38 -3 -45 19 -59 14 -9 33 -13 44 -9 22 7 36 38 26 55 -7 12 -11 46 -20 220
-4 69 -15 195 -26 280 -25 197 -36 299 -44 428 -7 103 -18 132 -50 132 -8 0
-19 -9 -25 -20z"/>
<path d="M16534 2498 c-3 -10 -1 -24 4 -31 11 -14 30 -189 34 -317 3 -70 0
-84 -12 -82 -8 2 -57 5 -110 8 -52 2 -121 6 -152 9 -50 4 -59 2 -72 -17 -14
-19 -13 -23 11 -41 25 -20 46 -23 276 -43 l69 -6 -7 -207 c-9 -256 -3 -336 29
-357 13 -8 30 -12 39 -9 13 6 15 42 12 291 l-4 285 175 -5 174 -5 0 24 c0 44
-34 55 -194 64 -81 5 -150 11 -153 14 -2 3 -7 34 -9 69 -8 117 -36 343 -45
359 -12 23 -57 21 -65 -3z"/>
<path d="M8464 2302 c-45 -30 -48 -185 -11 -497 8 -60 12 -112 10 -114 -2 -3
-29 -6 -61 -8 -127 -7 -191 -51 -256 -176 -31 -57 -36 -78 -37 -135 -1 -90 21
-144 75 -181 78 -53 176 -47 311 20 92 46 217 162 213 198 -2 21 -9 27 -35 29
-32 3 -33 5 -33 47 0 58 -16 93 -62 135 -33 31 -39 43 -48 105 -13 80 -21 219
-23 381 -1 91 2 117 17 138 17 26 16 27 -6 46 -25 21 -37 24 -54 12z m4 -724
c6 -7 17 -49 26 -93 13 -61 23 -85 42 -103 26 -23 26 -23 8 -44 -35 -38 -157
-91 -209 -89 -11 0 -36 1 -55 1 -21 1 -47 10 -64 25 -24 19 -30 32 -32 74 -5
76 42 169 106 212 36 24 53 29 105 29 38 0 67 -5 73 -12z"/>
<path d="M11431 2151 c-13 -4 -28 -17 -32 -29 -7 -19 -1 -31 39 -72 55 -57 92
-67 92 -24 0 14 -11 39 -25 56 -14 16 -25 35 -25 43 0 20 -23 32 -49 26z"/>
<path d="M15210 1970 c-26 -14 -103 -208 -131 -325 -26 -111 -46 -133 -66 -72
-6 17 -21 59 -34 92 -12 33 -36 112 -53 175 l-31 115 -40 0 c-34 0 -40 -3 -43
-23 -2 -13 3 -31 11 -40 8 -9 38 -91 67 -182 57 -179 115 -290 152 -290 51 0
61 17 103 175 29 106 64 213 75 230 4 6 10 22 14 36 4 18 15 29 31 33 47 12
42 46 -12 74 -25 14 -24 14 -43 2z"/>
<path d="M14255 1960 c-103 -17 -175 -51 -175 -85 0 -8 -14 -36 -31 -64 -75
-121 -21 -275 121 -341 25 -12 60 -30 78 -42 61 -38 244 -34 404 9 158 43 83
87 -94 55 -24 -4 -93 -5 -154 -1 -99 6 -117 10 -180 41 -91 46 -91 63 1 64 88
1 193 25 225 50 34 26 108 103 148 152 22 28 32 51 32 75 0 63 -55 87 -210 92
-58 2 -132 0 -165 -5z m263 -97 l23 -14 -30 -34 c-16 -19 -33 -40 -38 -47 -35
-55 -265 -107 -361 -82 -20 6 -22 11 -16 43 3 20 13 51 23 70 21 45 87 70 206
81 104 9 161 4 193 -17z"/>
<path d="M10494 1943 c-3 -10 -11 -29 -18 -43 -13 -27 -6 -88 13 -99 25 -16
13 -128 -24 -204 -31 -66 -66 -101 -93 -93 -23 8 -61 63 -84 121 -32 81 -32
120 -2 255 3 15 -1 33 -10 45 -14 20 -14 20 -43 -1 -50 -38 -69 -182 -38 -285
22 -70 20 -65 58 -134 35 -63 84 -105 123 -105 46 0 106 60 152 150 24 47 46
86 50 88 11 3 30 -50 56 -153 13 -49 28 -91 34 -93 6 -2 25 10 43 26 26 23 31
33 22 43 -6 8 -21 43 -33 79 -12 36 -25 70 -30 75 -4 6 -13 26 -18 45 -6 19
-20 59 -31 88 -15 40 -17 60 -10 78 12 33 12 74 -1 74 -6 0 -15 11 -19 24 -6
15 -20 25 -41 30 -46 9 -50 8 -56 -11z"/>
<path d="M10990 1923 c-8 -3 -30 -19 -48 -35 -26 -22 -37 -26 -51 -18 -14 7
-23 5 -35 -9 -14 -16 -16 -26 -7 -58 5 -21 10 -51 10 -68 3 -144 11 -252 21
-276 16 -37 64 -42 74 -7 4 19 0 182 -8 263 -3 29 22 99 44 122 10 11 29 19
42 18 12 -1 31 -3 41 -4 29 -2 86 -70 128 -156 39 -77 40 -83 38 -170 -1 -49
1 -100 5 -112 8 -24 51 -42 66 -27 21 21 3 253 -21 279 -5 5 -9 19 -9 31 0 12
-7 27 -15 34 -8 7 -15 19 -15 27 0 24 -89 122 -135 149 -40 23 -91 30 -125 17z"/>
<path d="M12084 1917 c-3 -8 -42 -41 -87 -73 -236 -168 -322 -322 -225 -405
28 -24 42 -28 92 -29 74 0 130 30 186 101 21 27 41 45 44 41 12 -21 43 -388
51 -617 l6 -170 31 -27 32 -28 22 21 c11 11 38 59 59 107 20 48 41 94 46 102
5 8 21 37 35 64 32 60 99 159 119 176 19 16 19 64 1 79 -23 19 -65 2 -90 -38
-13 -20 -33 -45 -45 -55 -11 -11 -21 -24 -21 -29 0 -6 -10 -24 -23 -41 -12
-17 -35 -59 -52 -93 -16 -35 -32 -63 -36 -63 -12 0 -19 54 -23 200 -3 74 -7
158 -9 185 -21 219 -23 357 -7 399 7 20 8 32 0 40 -5 5 -10 20 -10 32 0 13 -4
26 -10 29 -5 3 -10 18 -10 32 0 36 -65 87 -76 60z m-10 -165 c7 -22 -43 -129
-78 -167 -14 -15 -26 -31 -26 -35 0 -10 -75 -40 -102 -40 -31 0 -47 38 -23 56
8 6 15 18 15 26 0 13 74 87 121 123 8 6 27 20 43 33 35 27 43 27 50 4z"/>
<path d="M16075 1890 c-25 -10 -95 -77 -95 -91 0 -5 -9 -23 -21 -38 -26 -35
-30 -98 -12 -170 8 -30 12 -63 9 -74 -3 -14 4 -30 24 -49 35 -33 41 -34 65 -8
17 19 17 22 1 63 -10 27 -16 73 -16 123 0 68 4 85 25 116 28 42 53 53 101 43
90 -16 162 -171 166 -353 0 -15 8 -24 24 -28 45 -12 54 0 49 63 -13 158 -39
230 -114 322 -63 76 -143 108 -206 81z"/>
<path d="M15436 1871 c-35 -20 -68 -62 -70 -88 -3 -33 -29 -103 -43 -114 -15
-13 -17 -45 -3 -54 6 -3 10 -25 10 -48 0 -23 7 -53 15 -67 8 -14 19 -35 24
-46 26 -58 124 -90 238 -79 43 4 83 10 88 14 6 5 33 13 60 20 78 19 116 41
113 65 -4 27 -34 26 -193 -7 -98 -21 -128 -24 -165 -16 -56 13 -87 41 -101 92
-12 47 -4 57 52 57 19 0 54 9 77 20 22 11 50 20 60 20 11 0 22 7 26 15 3 8 11
15 18 15 7 0 37 22 66 49 61 56 66 84 25 123 -35 32 -101 48 -195 47 -50 0
-82 -6 -102 -18z m215 -72 c19 -10 18 -12 -18 -40 -21 -17 -40 -34 -43 -39 -6
-10 -107 -40 -134 -40 -44 0 -50 14 -27 64 26 60 63 78 144 71 32 -2 67 -10
78 -16z"/>
<path d="M19145 1881 c-60 -15 -200 -91 -271 -148 -22 -18 -53 -50 -69 -73
-25 -36 -27 -46 -22 -94 10 -97 63 -137 179 -136 55 1 85 15 143 68 26 23 52
42 59 42 6 0 24 16 39 35 15 19 32 35 36 35 5 0 14 -15 21 -32 7 -18 16 -42
21 -53 5 -11 11 -40 14 -65 3 -25 10 -80 16 -123 11 -90 7 -203 -10 -265 -12
-41 -57 -94 -130 -150 -31 -23 -107 -42 -172 -42 -70 0 -158 58 -159 105 0 11
-8 30 -18 43 -18 23 -18 23 -42 4 -25 -21 -25 -25 16 -117 35 -81 132 -130
238 -121 120 10 214 58 279 144 50 64 62 97 76 196 11 76 -8 291 -34 381 -35
123 -65 254 -65 282 0 26 -7 34 -52 59 -64 35 -57 33 -93 25z m45 -121 c8 -14
7 -28 -5 -52 -19 -43 -37 -71 -51 -80 -6 -4 -33 -25 -59 -47 -60 -49 -130 -69
-172 -49 -24 12 -28 19 -25 48 4 46 44 86 128 129 61 31 148 68 166 70 4 1 12
-8 18 -19z"/>
<path d="M978 1855 c-9 -21 -8 -35 6 -75 15 -41 16 -67 11 -152 -7 -107 -16
-143 -67 -266 l-31 -74 -36 7 c-41 8 -94 59 -118 115 -19 45 -22 235 -3 279
10 26 10 35 -4 56 -22 34 -56 32 -91 -5 -25 -26 -28 -33 -17 -50 8 -13 12 -64
11 -153 0 -124 2 -138 26 -188 33 -70 41 -79 99 -118 115 -79 194 -53 246 79
67 169 77 223 73 423 -2 122 -13 147 -65 147 -21 0 -32 -7 -40 -25z"/>
<path d="M18274 1847 c-73 -46 -83 -55 -107 -106 -14 -30 -22 -72 -25 -121 -3
-72 -2 -76 27 -107 16 -18 32 -41 36 -50 11 -35 61 -82 112 -108 50 -24 55
-25 118 -14 97 17 197 77 224 134 11 24 21 57 22 72 3 52 -31 141 -76 196
-111 137 -222 172 -331 104z m212 -79 c66 -50 98 -95 115 -162 10 -42 9 -49
-12 -80 -63 -93 -224 -139 -289 -83 -17 14 -19 21 -9 39 10 19 8 25 -17 45
-16 13 -35 28 -41 34 -17 13 -16 49 3 106 28 85 79 122 170 123 37 0 58 -6 80
-22z"/>
<path d="M1468 1840 c-177 -22 -276 -150 -184 -239 18 -17 55 -39 82 -47 26
-8 57 -22 68 -32 12 -10 41 -26 66 -35 25 -9 60 -32 78 -51 l32 -34 -25 -16
c-13 -9 -28 -16 -33 -16 -5 0 -15 -6 -21 -14 -12 -14 -123 -43 -171 -45 -46
-2 -70 8 -70 29 0 27 -49 27 -84 -1 -34 -27 -33 -40 7 -82 27 -29 41 -35 93
-41 85 -9 182 8 281 51 87 37 123 71 123 115 0 17 8 10 33 -33 30 -53 92 -114
141 -141 58 -32 149 -26 265 16 24 9 51 16 61 16 27 0 40 23 31 56 -9 37 -38
41 -123 19 -75 -20 -188 -34 -188 -23 0 4 -16 14 -35 23 -28 14 -83 81 -73 90
2 2 35 8 74 13 77 11 218 72 273 118 33 27 39 60 22 107 -16 41 -57 58 -168
72 -135 17 -203 2 -241 -53 -30 -41 -58 -118 -67 -178 l-7 -52 -48 49 c-27 27
-54 49 -59 49 -6 0 -30 13 -54 29 -24 17 -75 44 -115 62 -39 18 -73 38 -76 45
-14 36 100 77 200 72 54 -2 66 1 78 17 19 25 20 59 2 74 -19 16 -90 21 -168
11z m602 -236 c9 -9 -4 -19 -52 -41 -73 -35 -131 -55 -170 -59 -25 -3 -28 -1
-28 27 0 21 10 40 30 61 30 30 32 30 120 26 49 -1 94 -8 100 -14z"/>
<path d="M6378 1797 c-23 -18 -48 -42 -53 -52 -6 -11 -17 -31 -25 -45 -14 -25
-15 -30 -18 -82 -2 -36 -18 -36 -26 -1 -11 42 -61 107 -98 127 -33 18 -35 18
-73 0 -26 -13 -41 -28 -45 -44 -5 -23 -11 -25 -55 -25 l-50 0 -1 -58 c0 -36 5
-62 13 -69 7 -6 13 -22 13 -36 0 -13 5 -43 11 -66 6 -22 14 -55 18 -72 5 -17
4 -39 -1 -47 -7 -13 -1 -24 24 -47 39 -35 39 -35 69 -12 21 18 22 22 10 63
-18 66 -20 206 -3 261 16 53 32 71 55 63 23 -9 75 -133 89 -212 9 -57 16 -74
34 -84 59 -31 78 17 88 218 4 90 25 132 79 160 36 18 98 9 123 -18 9 -10 13
-19 9 -19 -5 0 2 -11 14 -24 32 -34 43 -147 24 -244 -8 -40 -12 -79 -10 -86 8
-20 68 -29 85 -12 23 23 17 249 -9 323 -40 116 -106 173 -201 173 -37 0 -55
-7 -90 -33z"/>
<path d="M11489 1803 c-11 -12 -13 -46 -11 -136 2 -70 -2 -133 -8 -153 -11
-31 -9 -36 12 -54 31 -26 63 -25 74 1 6 13 7 49 2 88 -5 36 -8 97 -8 135 1 96
-8 136 -30 136 -10 0 -24 -7 -31 -17z"/>
<path d="M2760 1790 c-132 -21 -171 -34 -240 -80 -66 -46 -102 -84 -120 -127
-15 -40 -22 -41 -40 -8 -15 28 -36 31 -64 10 -24 -19 -23 -58 4 -142 11 -36
19 -68 15 -71 -3 -3 1 -15 9 -27 8 -12 20 -42 26 -66 8 -30 23 -54 48 -75 l36
-31 17 22 c15 18 17 42 16 161 -2 153 3 172 63 231 49 48 165 100 240 108 83
9 143 32 136 52 -3 8 -6 20 -6 26 0 29 -34 33 -140 17z"/>
<path d="M4240 1800 c-8 -5 -29 -10 -46 -10 -35 0 -121 -28 -181 -59 -51 -25
-100 -69 -120 -107 -70 -131 -89 -200 -77 -290 11 -94 100 -198 192 -224 55
-15 186 -12 245 6 113 34 193 66 217 85 l25 21 -22 17 c-20 17 -25 17 -104 -1
-46 -11 -102 -25 -124 -31 -53 -16 -184 -14 -226 3 -74 29 -114 92 -112 175 2
97 79 224 158 260 63 29 132 53 175 60 74 12 102 50 55 75 -14 7 -25 17 -25
22 0 11 -11 10 -30 -2z"/>
<path d="M7668 1772 c-46 -22 -105 -74 -110 -98 -3 -15 -11 -18 -36 -16 -25 3
-38 -2 -53 -19 -21 -25 -24 -35 -9 -44 19 -12 59 -209 55 -276 -2 -30 4 -43
25 -64 l28 -27 22 22 c21 21 22 28 15 84 -27 210 2 318 97 357 76 31 171 -54
201 -181 18 -76 11 -162 -16 -200 -32 -46 -17 -100 29 -100 30 0 40 15 59 90
24 93 14 213 -25 296 -37 77 -98 147 -153 173 -52 25 -80 26 -129 3z"/>
<path d="M7225 1771 c-11 -5 -23 -7 -26 -5 -8 4 -126 -39 -171 -62 -16 -8 -57
-36 -90 -61 -66 -51 -98 -105 -100 -171 -2 -47 48 -153 79 -168 13 -6 31 -18
41 -27 13 -12 36 -17 73 -17 69 0 137 42 190 118 l37 52 22 -47 c12 -27 33
-61 46 -76 13 -16 24 -35 24 -42 0 -22 75 -41 95 -25 23 19 19 30 -30 80 -30
31 -52 65 -66 105 -11 33 -25 65 -29 70 -4 6 -11 33 -16 60 -8 58 -29 95 -53
95 -29 0 -63 -44 -60 -76 8 -69 -11 -115 -69 -171 -71 -68 -100 -70 -162 -13
-41 38 -42 41 -36 82 8 55 43 86 156 140 90 43 100 47 169 70 58 19 70 38 48
72 -18 27 -36 31 -72 17z"/>
<path d="M5590 1743 c-34 -13 -80 -67 -80 -95 0 -32 -16 -38 -25 -9 -3 11 -26
38 -50 60 -37 34 -50 40 -72 35 -36 -8 -102 -51 -110 -70 -4 -10 -14 -13 -32
-9 -15 3 -34 0 -44 -7 -17 -13 -17 -19 -2 -123 9 -61 18 -121 20 -135 15 -118
32 -150 76 -150 l31 0 -5 58 c-3 31 -8 83 -12 114 -13 119 28 228 85 228 24 0
31 -5 36 -27 3 -16 12 -50 20 -77 8 -27 14 -64 14 -82 0 -38 21 -54 68 -54 34
0 40 12 67 135 20 90 30 115 48 115 22 0 127 -89 127 -107 0 -6 9 -18 19 -27
23 -21 46 -106 36 -135 -7 -23 17 -66 42 -75 18 -7 63 30 63 51 0 8 -7 35 -15
61 -8 26 -19 67 -25 91 -6 24 -23 54 -37 67 -14 13 -22 24 -17 24 10 0 -81 95
-116 120 -28 20 -86 32 -110 23z"/>
<path d="M4733 1728 c-13 -6 -42 -28 -65 -49 -89 -83 -103 -241 -34 -379 12
-25 21 -51 18 -58 -7 -21 47 -71 89 -84 68 -20 161 8 235 72 98 84 140 234 95
333 -24 51 -101 127 -158 156 -47 23 -141 28 -180 9z m152 -94 c46 -19 95 -54
95 -68 0 -5 7 -18 16 -27 45 -49 16 -171 -55 -229 -20 -17 -45 -40 -57 -51
-11 -11 -38 -23 -60 -26 -34 -6 -38 -5 -26 9 13 16 -2 33 -66 77 -20 14 -25
28 -42 131 -8 48 -6 61 15 108 13 28 29 52 34 52 6 0 20 9 31 20 24 24 64 26
115 4z"/>
<path d="M17067 1483 c-4 -3 -7 -19 -7 -33 0 -32 14 -39 136 -70 113 -28 419
-39 449 -16 20 16 20 16 -7 40 -30 27 -41 29 -273 45 -77 6 -162 17 -190 25
-53 17 -97 20 -108 9z"/>
<path d="M2887 1273 c-14 -4 -17 -13 -15 -41 4 -49 31 -61 155 -67 54 -2 137
-10 184 -16 47 -6 149 -10 227 -7 132 3 142 5 166 27 14 14 26 28 26 33 0 19
-62 30 -185 33 -71 1 -175 10 -230 18 -106 17 -298 28 -328 20z"/>
</g>
</svg>
