<?xml version="1.0" standalone="no"?>
<!DOCTYPE svg PUBLIC "-//W3C//DTD SVG 20010904//EN"
 "http://www.w3.org/TR/2001/REC-SVG-20010904/DTD/svg10.dtd">
<svg version="1.0" xmlns="http://www.w3.org/2000/svg"
 width="616.201305pt" height="400.000000pt" viewBox="0 0 616.201305 400.000000"
 preserveAspectRatio="xMidYMid meet">
<metadata>
Created by potrace 1.15, written by Peter Selinger 2001-2017
</metadata>
<g transform="translate(-47.668796,448.495815) scale(0.094437,-0.094437)"
fill="#444444" stroke="none">
<path d="M1536 4736 c-24 -7 -44 -22 -52 -38 -7 -14 -20 -28 -29 -32 -18 -7
-20 -26 -2 -26 16 0 104 -78 120 -107 57 -103 130 -253 157 -326 32 -85 33
-90 20 -145 -28 -124 -46 -154 -120 -192 -14 -7 -41 -25 -60 -40 -35 -28 -52
-34 -185 -66 -38 -10 -79 -25 -90 -34 -11 -10 -29 -21 -41 -24 -37 -11 -75
-61 -79 -102 -2 -21 -11 -44 -20 -51 -16 -11 -16 -20 -5 -95 6 -46 19 -98 27
-116 13 -28 14 -35 3 -42 -7 -4 -19 -6 -27 -3 -7 3 -19 1 -26 -4 -6 -5 -39
-17 -72 -27 -33 -10 -72 -25 -86 -32 -70 -36 -141 -133 -161 -219 -24 -103
-23 -106 24 -295 11 -47 23 -99 25 -116 3 -20 13 -35 28 -42 12 -6 32 -24 44
-41 l22 -30 -23 -15 c-13 -8 -36 -18 -52 -22 -35 -8 -106 -79 -142 -140 -20
-34 -28 -65 -34 -139 -8 -96 -5 -129 13 -153 5 -6 9 -32 9 -57 -1 -24 3 -47 8
-50 4 -3 16 -27 25 -54 12 -37 24 -53 50 -67 37 -20 54 -44 30 -44 -7 0 -43
-20 -79 -45 -37 -25 -73 -45 -81 -45 -9 0 -20 -11 -25 -24 -4 -13 -21 -33 -37
-45 -51 -39 -85 -106 -89 -171 -1 -25 -7 -64 -13 -87 -8 -30 -8 -49 0 -70 6
-15 13 -57 16 -93 3 -41 10 -68 19 -73 8 -4 14 -16 14 -27 0 -10 12 -31 28
-47 39 -42 62 -71 74 -98 12 -26 143 -105 175 -105 12 0 23 -4 25 -10 2 -5 20
-11 40 -13 21 -2 45 -10 53 -17 11 -9 48 -13 121 -12 101 1 104 1 104 -21 1
-27 44 -60 68 -53 58 18 212 37 307 37 283 -1 613 -8 623 -15 7 -4 80 -9 164
-11 109 -3 154 -8 160 -17 6 -11 10 -10 17 1 13 19 169 17 309 -5 24 -3 68 -3
98 1 48 6 54 9 49 26 -5 15 -1 19 17 19 32 0 181 38 378 97 74 23 246 104 377
180 61 35 101 108 104 193 6 144 -12 230 -80 369 -17 36 -31 70 -31 76 0 6
-16 34 -35 61 -27 38 -34 55 -29 76 3 16 3 41 -1 58 -6 27 -10 30 -46 30 -47
0 -92 21 -125 58 -31 36 -30 39 12 57 19 8 48 24 64 35 15 11 34 20 42 20 20
0 51 45 73 105 10 28 22 54 27 59 11 13 10 83 -1 91 -6 3 -17 20 -25 37 -15
30 -15 33 5 54 25 26 22 57 -6 62 -32 6 -51 29 -89 105 -19 40 -46 85 -60 101
-15 16 -26 33 -26 38 0 11 -103 114 -160 160 l-45 36 24 32 c19 27 22 37 13
51 -7 10 -15 36 -18 59 -4 22 -11 43 -15 46 -5 3 -9 13 -9 23 0 9 -25 68 -57
131 -49 99 -61 116 -100 139 -25 14 -66 40 -92 56 -25 17 -67 40 -92 53 -45
21 -47 25 -58 82 -7 34 -25 80 -42 104 -16 24 -29 50 -29 56 0 7 -15 36 -34
64 -18 28 -37 61 -40 74 -5 15 -15 22 -34 22 -15 0 -43 10 -62 22 -19 12 -70
34 -112 49 -66 23 -80 25 -95 13 -10 -7 -27 -14 -37 -14 -37 0 -172 72 -233
126 -33 30 -64 54 -68 54 -13 0 -175 142 -175 154 0 7 -12 23 -26 37 -14 13
-32 38 -40 55 -9 18 -30 50 -49 71 -19 22 -37 52 -41 67 -3 14 -15 31 -25 37
-11 5 -19 16 -19 24 0 16 -41 83 -85 138 -33 41 -57 45 -129 23z m404 -627 c0
-8 18 -23 41 -33 23 -10 76 -46 118 -80 42 -33 87 -67 101 -73 14 -7 32 -17
40 -22 62 -39 247 -98 309 -99 51 -1 78 -17 143 -85 51 -53 72 -88 83 -136 6
-28 4 -31 -35 -42 -31 -9 -43 -10 -52 -1 -18 18 -48 14 -55 -5 -3 -10 -15 -26
-27 -35 -20 -16 -20 -18 -4 -45 26 -44 65 -61 138 -62 66 -1 131 -18 152 -39
7 -7 20 -12 30 -12 29 0 87 -32 94 -52 3 -10 18 -21 34 -24 15 -4 33 -17 41
-30 11 -21 10 -27 -9 -47 -12 -13 -22 -31 -22 -39 0 -16 -39 -49 -72 -61 -10
-4 -19 -16 -19 -27 -1 -11 -2 -25 -3 -32 -3 -27 -67 -49 -141 -47 l-73 2 -64
61 c-36 33 -82 69 -104 80 -21 10 -47 23 -57 28 -30 15 -153 22 -161 9 -4 -6
-19 -11 -32 -11 -58 0 -175 -136 -200 -231 -21 -79 -26 -186 -15 -279 14 -110
16 -124 36 -195 9 -33 22 -82 29 -110 17 -66 58 -144 93 -177 70 -66 195 -104
294 -89 66 10 121 47 188 124 110 127 140 267 102 466 -11 57 -18 108 -15 113
3 5 -3 19 -14 31 -11 12 -25 33 -32 46 -12 23 -12 23 32 16 55 -9 66 -19 45
-43 -9 -10 -17 -21 -17 -25 0 -3 20 -18 45 -33 42 -24 48 -25 78 -13 20 8 74
14 143 14 l111 0 60 -42 c34 -24 66 -43 73 -43 12 0 49 -75 50 -102 0 -9 20
-31 44 -47 60 -42 66 -61 19 -61 -45 0 -73 -24 -73 -62 0 -32 12 -39 102 -58
42 -10 59 -18 67 -36 18 -41 5 -42 -142 -3 -53 14 -90 -9 -81 -49 4 -15 9 -31
12 -36 8 -15 66 -34 125 -41 82 -10 71 -25 -15 -19 -93 7 -166 26 -224 60
l-47 28 -23 -28 c-28 -31 -30 -49 -9 -66 18 -15 20 -40 2 -40 -7 0 -47 11 -89
25 -42 14 -83 22 -91 19 -8 -3 -18 -25 -22 -50 -6 -42 -8 -44 -39 -44 -18 0
-55 6 -82 14 -92 26 -123 27 -146 4 -13 -13 -18 -28 -15 -45 6 -32 -8 -37 -79
-24 -33 6 -84 11 -114 13 -55 2 -55 2 -76 -37 -18 -35 -24 -40 -55 -39 -42 2
-85 10 -172 30 -76 18 -90 13 -102 -37 -7 -29 -10 -27 89 -64 l59 -22 -89 -6
c-67 -4 -96 -1 -117 9 -15 8 -32 12 -38 8 -6 -3 -61 -6 -122 -5 -62 0 -146 -4
-187 -10 -54 -8 -75 -8 -78 0 -5 16 -23 14 -43 -5 -10 -9 -63 -24 -122 -34
-58 -10 -120 -25 -138 -34 -44 -22 -181 -13 -236 15 -21 11 -43 19 -51 19 -38
0 -152 84 -152 113 0 21 48 18 63 -3 8 -12 33 -19 82 -24 39 -4 96 -12 128
-17 47 -8 63 -7 93 7 52 25 62 54 31 88 -19 21 -31 25 -50 21 -29 -8 -67 9
-67 30 0 16 -57 37 -92 34 -42 -4 -69 1 -63 11 3 6 17 10 30 10 15 0 31 11 46
33 12 17 31 39 42 48 30 25 32 74 2 93 -26 17 -100 22 -110 7 -3 -5 -30 -15
-60 -21 -48 -10 -54 -14 -60 -41 -5 -20 -14 -31 -31 -35 -36 -9 -41 2 -16 36
12 16 22 37 22 47 1 26 22 51 61 69 19 8 48 23 64 32 19 10 58 17 103 18 77 2
114 20 111 53 -2 29 1 41 11 41 6 0 10 -7 10 -16 0 -33 59 -181 93 -234 70
-108 87 -128 123 -145 43 -20 106 -16 133 9 14 12 29 15 57 10 88 -14 267 65
280 124 3 15 16 36 29 47 16 14 29 45 41 100 25 105 22 205 -6 286 -16 43 -19
64 -11 67 17 6 13 30 -9 49 -12 11 -20 30 -20 49 0 17 -7 37 -15 44 -8 7 -15
21 -15 32 0 24 -25 73 -61 118 -15 19 -30 45 -33 56 -5 15 -18 24 -42 29 -19
3 -44 15 -54 25 -35 35 -130 70 -191 70 -30 0 -141 -70 -165 -104 -8 -11 -33
-46 -55 -76 -22 -30 -42 -66 -45 -80 -3 -14 -9 -34 -14 -45 -16 -38 -22 -60
-26 -95 -8 -69 -19 -93 -41 -95 -12 -1 -38 -14 -58 -30 -64 -48 -135 -51 -135
-4 0 22 49 48 97 51 35 3 52 24 53 65 0 24 -7 37 -25 49 -24 16 -24 18 -10 35
22 23 15 62 -12 74 -27 11 -28 18 -8 35 8 7 15 18 15 25 0 18 -62 55 -91 55
l-24 1 28 25 c25 21 35 24 77 18 40 -5 54 -3 78 15 17 11 34 21 39 21 6 0 18
10 29 21 25 29 75 49 120 49 26 0 44 8 63 28 16 15 49 42 74 60 31 22 48 43
52 64 11 46 -6 56 -63 34 -26 -11 -65 -21 -87 -24 l-40 -4 19 21 c11 11 31 21
45 21 39 1 61 23 61 60 0 19 12 50 30 77 34 50 37 65 15 83 -23 19 -18 33 16
53 42 24 52 22 45 -9 -9 -36 17 -64 59 -64 18 0 38 7 45 15 7 8 19 15 27 15
25 0 73 30 73 46 0 8 -7 28 -15 44 -11 22 -23 30 -43 31 -18 0 -22 3 -12 7 36
16 70 45 70 60 0 8 11 30 25 48 14 18 25 36 25 39 0 4 8 19 19 33 20 28 45
180 35 207 -5 13 -1 13 25 -2 17 -10 31 -25 31 -34z m1264 -1124 c-3 -20 -12
-35 -20 -35 -10 0 -13 8 -9 25 17 84 16 81 26 62 6 -9 7 -33 3 -52z m-1599 43
c25 -7 45 -16 45 -20 0 -4 15 -14 33 -22 36 -14 87 -69 87 -92 0 -14 4 -23 34
-81 9 -17 16 -47 16 -66 0 -20 5 -37 11 -39 5 -2 12 -19 15 -38 3 -19 9 -48
14 -65 12 -42 14 -77 5 -98 -4 -10 -2 -23 4 -31 9 -11 8 -23 -4 -51 -8 -21
-15 -43 -15 -51 0 -32 -64 -106 -107 -125 -55 -23 -152 -25 -194 -4 -25 14
-35 14 -65 3 -34 -12 -37 -11 -57 16 -27 37 -57 97 -57 113 0 8 -7 30 -16 51
-9 20 -16 49 -15 64 1 14 -2 29 -8 33 -23 14 -1 254 26 286 7 8 13 23 13 31 0
22 26 79 48 104 27 32 112 94 128 94 7 0 34 -5 59 -12z m938 -29 c39 -23 127
-108 127 -122 0 -6 8 -29 18 -51 36 -79 61 -182 66 -273 3 -55 1 -95 -5 -99
-5 -3 -7 -14 -4 -25 3 -10 -3 -38 -13 -62 -20 -45 -87 -127 -103 -127 -5 0
-26 -10 -47 -22 -30 -19 -47 -22 -92 -18 -48 4 -57 8 -68 33 -8 16 -26 33 -41
38 -27 9 -75 63 -76 84 -1 10 -11 46 -45 160 -25 81 -34 276 -15 301 8 11 15
35 15 55 0 27 10 49 41 88 22 28 44 51 47 52 4 0 17 2 29 3 13 2 26 6 30 9 11
12 106 -5 136 -24z m-1343 -450 c15 -26 9 -64 -10 -64 -14 0 -33 62 -24 77 9
14 23 9 34 -13z m1765 -625 c16 -12 50 -15 180 -13 163 2 184 -2 229 -41 9 -8
38 -33 65 -55 32 -26 50 -48 50 -63 1 -12 8 -25 16 -28 22 -9 19 -22 -16 -62
-26 -29 -30 -41 -26 -68 5 -31 3 -34 -25 -42 -18 -4 -41 -20 -52 -35 -17 -23
-18 -31 -8 -48 10 -16 10 -20 -3 -25 -8 -4 -21 -2 -28 4 -6 6 -28 13 -47 17
-34 6 -36 5 -50 -29 -7 -20 -19 -36 -25 -36 -6 0 -41 -8 -76 -19 -35 -10 -84
-23 -109 -29 -53 -12 -79 -23 -140 -57 -24 -14 -49 -24 -55 -22 -22 9 -142
-13 -182 -32 -23 -12 -48 -21 -55 -21 -8 0 -23 -7 -35 -15 -34 -24 -195 -77
-230 -76 -18 0 -33 -4 -33 -9 0 -6 -12 -10 -27 -10 -14 0 -34 -7 -44 -16 -15
-14 -52 -29 -209 -84 -19 -7 -55 -21 -80 -30 -25 -10 -76 -28 -114 -39 -38
-12 -76 -26 -85 -30 -17 -9 -222 -31 -344 -38 -63 -3 -70 -1 -91 23 -24 28
-39 30 -128 18 -49 -6 -61 3 -33 26 43 35 -6 85 -73 74 -44 -7 -152 3 -152 14
0 8 44 28 82 37 35 9 57 44 51 78 -8 40 -40 43 -127 12 -41 -15 -101 -28 -133
-29 -32 -2 -70 -9 -86 -16 -31 -15 -41 -9 -51 33 -6 24 -3 27 17 27 13 0 37 4
53 9 16 5 56 17 89 26 179 53 210 72 170 105 -8 7 -18 30 -21 51 -4 21 -13 44
-20 50 -23 19 -16 36 31 70 37 26 43 35 34 50 -17 33 -47 42 -96 29 -25 -6
-58 -8 -74 -5 -23 5 -31 2 -45 -22 -26 -41 -44 -53 -81 -53 -33 0 -33 0 -17
24 25 40 134 105 175 106 14 0 31 6 38 13 8 8 41 11 104 10 118 -4 245 14 276
38 13 11 35 19 50 19 23 1 61 12 112 34 11 5 23 -10 49 -58 18 -36 46 -78 62
-93 15 -15 28 -32 29 -37 1 -13 123 -121 159 -141 14 -8 36 -19 50 -25 14 -6
41 -18 60 -27 19 -8 49 -22 65 -29 36 -17 181 -32 247 -26 32 3 53 11 69 28
12 13 33 24 46 24 50 0 146 106 175 192 13 39 36 68 55 68 9 0 13 13 13 39 0
40 20 71 45 71 18 0 30 92 16 118 -8 14 -8 29 -1 47 10 26 11 26 72 18 120
-15 258 4 258 37 0 14 12 12 35 -6z m-660 -189 c28 0 60 4 72 8 17 6 24 3 32
-12 9 -16 7 -27 -9 -53 -11 -18 -23 -40 -27 -48 -3 -8 -17 -29 -30 -46 -13
-17 -23 -36 -23 -41 0 -20 -70 -73 -96 -73 -14 0 -38 -7 -55 -15 -26 -14 -38
-14 -122 1 -50 9 -108 18 -127 21 -19 3 -48 16 -63 29 -16 13 -32 24 -37 24
-5 0 -34 25 -65 56 -55 55 -92 111 -81 121 15 15 234 24 308 13 57 -8 83 -8
98 0 12 6 33 10 48 9 15 -1 34 1 42 4 29 11 55 15 70 9 8 -4 38 -7 65 -7z
m1335 -180 c0 -12 -13 -15 -62 -14 -53 1 -58 2 -30 9 18 4 36 10 39 14 13 13
53 6 53 -9z m54 -154 c-9 -10 -103 -10 -109 0 -4 5 6 9 22 10 15 0 37 4 48 8
20 8 51 -6 39 -18z m-146 -98 c28 -3 52 -10 52 -16 0 -11 -171 -4 -190 8 -23
14 4 27 44 21 22 -4 65 -9 94 -13z m189 -10 c4 -9 1 -41 -5 -72 -9 -43 -20
-64 -47 -88 -41 -39 -58 -42 -49 -9 3 13 1 27 -5 30 -25 16 -11 36 24 36 45 0
55 23 25 55 -23 24 -23 25 -5 45 22 24 53 26 62 3z m-562 -119 c29 -12 29 -12
5 -13 -14 0 -52 8 -85 19 l-60 19 55 -6 c30 -3 69 -11 85 -19z m-487 -148 c17
-9 45 -16 61 -16 17 0 59 -9 93 -20 35 -10 89 -24 121 -30 38 -8 57 -16 57
-26 0 -9 -11 -14 -32 -13 -46 1 -73 5 -417 72 -35 6 -66 17 -68 24 -11 33 126
40 185 9z m-294 -61 c3 -9 20 -22 38 -30 18 -8 47 -27 63 -41 33 -29 27 -29
-55 -1 -25 9 -64 21 -86 28 -63 18 -73 26 -50 44 26 20 82 20 90 0z m-274 -81
c0 -8 -3 -14 -7 -15 -5 0 -30 -2 -58 -5 -57 -6 -53 7 10 29 44 15 55 13 55 -9z"/>
<path d="M1905 3820 c-44 -60 -43 -86 3 -84 73 4 132 97 76 123 -37 16 -39 15
-79 -39z"/>
<path d="M1537 2816 c-38 -12 -67 -49 -67 -85 0 -9 -4 -21 -10 -27 -6 -6 -6
-29 1 -64 5 -30 11 -64 12 -75 1 -11 28 -46 60 -77 33 -31 56 -61 53 -66 -4
-6 10 -6 37 0 96 21 117 30 141 59 24 28 26 36 22 104 -4 70 -28 145 -47 145
-5 0 -15 13 -24 30 -8 16 -25 36 -38 44 -32 20 -96 25 -140 12z"/>
<path d="M2441 2897 c-13 -6 -38 -29 -54 -49 -29 -36 -30 -43 -31 -130 0 -136
11 -163 104 -257 73 -74 84 -81 119 -81 35 0 42 5 63 38 15 25 23 52 23 84 0
25 3 49 7 53 4 4 3 15 -2 24 -5 9 -19 48 -31 86 -35 109 -60 156 -106 203 -47
45 -55 48 -92 29z"/>
<path d="M5595 3076 c-19 -29 -14 -42 52 -128 23 -31 43 -60 43 -65 0 -5 15
-24 34 -42 32 -31 35 -40 41 -110 3 -42 11 -87 16 -101 15 -34 -11 -51 -66
-43 -31 4 -50 1 -66 -11 -13 -9 -34 -16 -47 -16 -52 0 -142 -71 -142 -113 0
-8 -6 -20 -14 -26 -7 -6 -21 -31 -30 -56 -16 -41 -16 -46 -1 -69 19 -29 18
-30 -50 -41 -47 -8 -85 -30 -85 -50 0 -17 -31 -35 -61 -35 -29 0 -100 -80
-115 -130 -9 -31 -9 -44 5 -72 8 -18 21 -39 29 -47 7 -8 21 -25 30 -39 15 -23
15 -25 -2 -38 -11 -7 -24 -24 -30 -36 -8 -16 -22 -24 -44 -26 -19 -2 -32 -9
-32 -17 0 -8 -12 -21 -27 -29 -50 -26 -133 -128 -133 -163 0 -10 -7 -31 -15
-47 -14 -26 -14 -35 0 -88 8 -33 15 -68 15 -78 0 -9 7 -23 15 -30 8 -7 15 -20
15 -30 0 -10 7 -23 15 -30 26 -21 17 -34 -45 -63 -52 -25 -60 -32 -66 -63 -3
-19 -15 -40 -25 -48 -11 -7 -19 -24 -18 -37 1 -13 -6 -46 -14 -73 -24 -73 -7
-147 44 -203 39 -43 48 -66 29 -78 -37 -23 87 -95 259 -151 102 -34 104 -34
155 -19 40 12 76 14 171 8 143 -9 137 -9 292 0 68 4 134 12 149 17 44 17 99
12 130 -12 25 -20 41 -23 134 -24 58 -1 161 -4 228 -8 72 -4 129 -3 135 2 7 5
36 12 65 14 32 3 62 13 75 24 12 11 39 28 60 39 21 10 43 27 48 37 5 10 26 27
47 37 20 11 45 33 55 50 10 17 24 31 32 31 8 0 21 10 29 21 8 12 28 29 44 39
24 15 31 29 43 81 7 35 12 76 11 91 -2 14 2 29 7 33 14 8 14 65 1 65 -6 0 -27
26 -47 57 -20 32 -55 76 -79 98 l-42 40 5 70 c4 57 2 73 -11 84 -22 18 -20 52
5 105 24 51 21 60 -52 136 -23 24 -54 61 -70 83 -16 22 -43 49 -59 59 -30 18
-30 18 -14 49 18 37 12 110 -11 129 -8 7 -15 20 -15 29 0 17 -65 90 -132 147
-37 32 -148 171 -148 185 0 4 -17 34 -39 66 -40 60 -156 172 -209 201 -32 18
-112 103 -112 119 0 5 -25 36 -56 69 -31 32 -65 78 -75 100 -23 50 -76 100
-117 109 -21 4 -35 16 -46 40 -25 51 -75 62 -101 21z m355 -511 c0 -27 18 -45
46 -45 12 0 35 -14 51 -31 15 -17 38 -35 51 -40 12 -5 22 -17 22 -28 0 -11 6
-32 12 -47 12 -26 10 -29 -37 -70 -27 -24 -64 -47 -82 -50 -26 -5 -41 -18 -67
-57 l-34 -51 24 -18 c38 -31 78 -38 111 -21 15 8 70 19 122 24 94 10 95 10
155 -20 34 -16 71 -33 84 -36 25 -7 30 -42 7 -51 -8 -3 -27 3 -42 14 -48 34
-96 37 -156 12 -49 -22 -66 -27 -167 -49 -51 -11 -64 -22 -80 -71 -7 -22 -23
-46 -35 -54 -15 -10 -22 -25 -23 -51 -1 -20 -5 -41 -8 -47 -4 -6 -8 -68 -9
-137 l-2 -126 49 -74 c27 -43 60 -80 75 -88 16 -7 35 -17 43 -22 28 -18 129
-43 148 -37 14 5 28 -3 49 -27 28 -32 33 -34 144 -45 73 -8 149 -9 212 -4 77
6 103 5 118 -6 26 -18 17 -28 -30 -36 -46 -7 -63 -36 -37 -65 23 -25 20 -34
-24 -80 -28 -29 -40 -50 -40 -71 0 -23 -10 -37 -47 -65 -31 -24 -56 -35 -73
-33 -18 2 -33 -6 -54 -29 -15 -18 -35 -33 -44 -33 -8 0 -23 -7 -33 -16 -10 -9
-38 -16 -70 -17 l-53 -2 -9 -42 c-8 -42 -9 -43 -46 -43 -21 0 -64 12 -95 26
-55 25 -58 25 -97 10 -28 -11 -86 -18 -192 -21 -170 -6 -331 -19 -364 -30 -21
-7 -23 -4 -20 26 2 30 6 34 32 37 45 4 62 48 37 93 -20 36 -26 39 -136 63 -60
13 -70 13 -83 0 -20 -19 -39 -18 -84 8 l-39 22 -25 -24 c-14 -13 -25 -32 -25
-42 0 -23 -1 -23 -64 7 -29 14 -67 28 -84 31 -36 7 -37 11 -17 38 8 11 15 36
15 57 0 32 6 42 56 83 l57 46 139 -1 c129 -2 141 0 169 20 27 20 30 21 54 5
14 -9 41 -49 60 -89 26 -56 41 -75 65 -85 17 -7 40 -26 51 -42 22 -30 74 -69
140 -103 34 -18 55 -20 175 -19 123 2 140 5 163 23 14 12 41 28 59 37 44 20
105 81 122 122 7 18 28 44 45 58 28 21 33 30 31 64 -3 57 -30 83 -79 76 -22
-4 -44 -3 -51 2 -6 5 -33 12 -61 16 -27 3 -72 11 -100 16 -27 5 -142 12 -255
16 -113 3 -213 11 -224 16 -12 7 -22 6 -29 -1 -6 -6 -28 -11 -48 -11 -28 0
-43 -6 -56 -24 l-19 -23 -26 22 c-15 13 -33 25 -40 27 -10 4 -8 11 7 28 l20
22 -35 29 c-32 27 -84 48 -120 49 -8 0 -31 14 -50 30 l-35 29 28 27 c27 25 28
29 22 85 -5 40 -3 59 4 59 6 0 11 -9 11 -19 0 -11 4 -23 10 -26 5 -3 29 -36
53 -73 109 -168 251 -239 365 -184 56 27 82 46 82 57 0 6 20 41 44 78 46 69
58 108 75 238 9 65 8 83 -9 138 -11 34 -20 71 -20 80 0 26 -73 120 -130 168
-58 48 -99 58 -184 43 -42 -7 -71 -19 -98 -41 -21 -17 -52 -34 -68 -39 -24 -7
-30 -5 -35 11 -8 24 11 49 36 49 11 0 19 7 19 15 0 26 87 57 150 54 68 -4 94
5 114 36 11 17 26 25 46 25 16 0 46 8 67 17 21 10 39 18 40 18 2 1 -6 19 -17
40 -11 22 -20 45 -20 52 0 20 -15 23 -56 8 -48 -17 -114 -19 -114 -4 0 26 45
81 77 94 44 19 81 19 113 0 14 -8 33 -14 43 -15 28 0 125 109 132 150 11 62
13 65 35 45 11 -10 20 -28 20 -40z m-358 -641 c59 -50 88 -112 93 -201 3 -40
2 -73 -2 -73 -12 0 -43 44 -43 62 0 10 -13 37 -30 60 -16 22 -30 45 -30 51 0
19 -35 36 -72 37 -28 0 -46 -8 -74 -32 -90 -79 -87 -212 7 -274 86 -57 91 -58
137 -35 22 11 52 35 66 53 18 23 28 30 36 22 7 -7 5 -18 -10 -36 -11 -15 -20
-32 -20 -40 0 -7 -22 -38 -49 -67 -46 -50 -52 -54 -86 -48 -19 3 -53 14 -74
23 -34 15 -39 22 -44 56 -3 22 -12 47 -20 56 -8 9 -17 30 -21 45 -4 16 -16 31
-31 37 -31 12 -51 54 -50 105 2 58 11 78 45 97 17 10 37 33 45 53 17 40 52 65
103 76 66 12 80 9 124 -27z m730 -1 c21 -27 38 -70 38 -101 0 -16 4 -32 10
-38 25 -25 10 -232 -19 -280 -21 -33 -80 -68 -134 -80 -58 -14 -72 -8 -105 42
-13 20 -27 31 -36 28 -8 -3 -18 1 -22 8 -19 29 -41 106 -39 136 1 18 2 59 3
92 2 58 4 62 51 110 39 39 57 50 83 51 18 0 56 11 83 24 62 29 68 29 87 8z
m274 -206 c35 -25 44 -36 39 -52 -18 -57 -25 -95 -25 -137 0 -37 -4 -48 -16
-48 -8 0 -28 -14 -43 -31 -17 -18 -36 -29 -47 -27 -13 2 -25 -9 -39 -35 -21
-40 -43 -52 -75 -42 -23 7 -27 25 -5 25 23 0 82 101 94 162 7 30 12 90 13 134
0 43 3 83 5 87 8 14 50 -1 99 -36z m-1436 -66 c15 -37 8 -50 -24 -44 -33 7
-45 42 -20 60 25 18 30 17 44 -16z m-101 -104 c8 -11 5 -16 -15 -25 -14 -7
-27 -12 -29 -12 -10 0 -5 26 7 38 15 15 23 15 37 -1z m836 -453 c204 -7 245
-10 253 -18 11 -11 -12 -40 -50 -61 -19 -11 -46 -28 -59 -37 -16 -11 -53 -18
-107 -22 -45 -3 -87 -8 -92 -11 -6 -4 -43 2 -83 11 -63 15 -78 24 -120 66 -27
27 -46 55 -44 61 5 15 61 26 112 21 22 -3 108 -7 190 -10z"/>
<path d="M6160 1807 c-50 -31 -85 -76 -86 -111 -3 -54 24 -130 55 -160 22 -21
43 -30 79 -34 43 -4 54 0 93 28 24 17 43 36 41 42 -1 5 -4 37 -6 71 -4 76 -30
134 -75 164 -41 28 -56 28 -101 0z"/>
</g>
</svg>
