<?xml version="1.0" standalone="no"?>
<!DOCTYPE svg PUBLIC "-//W3C//DTD SVG 20010904//EN"
 "http://www.w3.org/TR/2001/REC-SVG-20010904/DTD/svg10.dtd">
<svg version="1.0" xmlns="http://www.w3.org/2000/svg"
 width="928.001753pt" height="400.000000pt" viewBox="0 0 928.001753 400.000000"
 preserveAspectRatio="xMidYMid meet">
<metadata>
Created by potrace 1.15, written by Peter Selinger 2001-2017
</metadata>
<g transform="translate(-12.323262,437.686690) scale(0.045689,-0.045689)"
fill="#444444" stroke="none">
<path d="M11676 9565 c-16 -12 -18 -19 -8 -40 13 -27 52 -183 58 -230 2 -16 7
-69 12 -117 4 -47 14 -93 20 -101 23 -28 93 -38 146 -22 57 17 72 28 92 67 13
25 13 32 -5 66 -24 47 -96 108 -151 127 -22 8 -44 14 -48 14 -4 0 -13 26 -20
58 -30 132 -53 194 -71 193 -3 0 -15 -7 -25 -15z m200 -337 c36 -24 50 -40 52
-61 2 -19 -2 -29 -15 -33 -10 -3 -26 -10 -35 -15 -41 -22 -55 -12 -68 51 -12
58 -9 90 9 90 5 0 31 -15 57 -32z"/>
<path d="M11220 9425 c-9 -11 -8 -28 5 -81 9 -36 17 -85 18 -107 2 -40 1 -42
-25 -39 -35 4 -68 -14 -68 -38 0 -28 15 -36 78 -38 28 -2 32 -6 32 -28 0 -15
5 -56 12 -91 12 -63 12 -64 42 -61 34 3 33 -4 21 124 l-8 72 37 12 c20 6 43 9
51 6 11 -4 15 2 15 23 0 27 -3 29 -51 34 -29 4 -54 8 -56 11 -2 2 -13 42 -24
87 -28 116 -51 148 -79 114z"/>
<path d="M12515 9413 c-17 -3 -47 -20 -67 -41 -55 -52 -52 -83 12 -142 36 -33
49 -52 44 -63 -7 -19 -59 -24 -69 -7 -3 6 -19 10 -36 10 -23 0 -29 -4 -29 -21
0 -28 -13 -17 -65 56 -41 57 -44 66 -34 89 10 22 9 29 -5 45 -17 19 -19 19
-68 -12 -72 -45 -104 -79 -116 -128 -26 -102 71 -171 139 -98 16 17 29 37 29
45 0 23 15 16 34 -16 25 -43 62 -66 80 -51 11 9 19 9 34 0 29 -18 119 4 154
38 46 44 30 99 -45 148 -15 9 -27 22 -27 27 0 20 43 48 75 48 59 0 77 50 24
69 -18 6 -32 10 -33 10 -1 -1 -14 -4 -31 -6z m-325 -215 c-1 -29 -25 -62 -39
-53 -15 9 -14 23 7 50 22 31 32 31 32 3z"/>
<path d="M12736 9333 c-11 -3 -26 -11 -33 -19 -8 -7 -22 -19 -31 -26 -10 -7
-26 -34 -36 -60 -19 -51 -19 -50 29 -126 26 -42 140 -90 181 -76 73 24 104 45
104 69 0 29 -20 33 -64 10 -15 -8 -41 -15 -58 -15 -35 0 -108 36 -108 53 0 6
38 30 85 51 79 37 84 41 79 65 -10 44 -14 52 -23 47 -4 -3 -16 3 -26 14 -18
19 -55 24 -99 13z"/>
<path d="M10483 9314 c-52 -26 -35 -82 22 -72 21 4 25 1 25 -18 0 -13 11 -82
25 -152 20 -98 23 -135 16 -155 -6 -15 -15 -27 -21 -27 -15 0 -12 -15 8 -40
18 -22 18 -22 72 -4 98 31 177 105 191 177 11 55 0 135 -20 157 -9 10 -27 30
-41 46 -14 15 -48 42 -75 60 -63 42 -151 54 -202 28z m165 -89 c45 -23 91 -74
102 -114 13 -49 13 -58 -7 -92 -18 -30 -89 -86 -98 -77 -3 3 -10 43 -15 89 -6
46 -15 102 -20 124 -12 50 -13 85 -2 85 5 0 23 -7 40 -15z"/>
<path d="M11556 9242 c-68 -40 -113 -97 -117 -149 -4 -53 1 -71 30 -102 22
-23 38 -31 64 -31 52 0 66 8 88 51 11 22 22 39 26 39 3 0 21 -11 39 -25 27
-21 38 -24 54 -15 25 13 25 25 1 48 -10 9 -39 37 -65 61 -46 43 -46 44 -67 25
-12 -10 -30 -38 -39 -60 -21 -49 -36 -60 -55 -44 -28 23 30 115 83 129 39 11
49 34 29 65 -20 30 -31 31 -71 8z"/>
<path d="M11011 9213 c-11 -10 -39 -31 -61 -48 -69 -52 -99 -139 -69 -200 32
-66 115 -52 165 27 15 24 28 45 31 47 2 3 25 -18 51 -45 57 -60 86 -71 107
-42 13 19 11 23 -19 47 -18 15 -60 54 -92 88 -51 54 -57 65 -47 80 20 26 15
50 -9 57 -32 8 -32 8 -57 -11z m22 -100 c-16 -43 -69 -113 -85 -113 -22 0 -4
49 34 87 45 46 61 54 51 26z"/>
<path d="M15872 8704 c-12 -8 -22 -24 -22 -34 0 -11 -11 -43 -24 -72 -13 -29
-31 -72 -41 -95 -10 -24 -20 -43 -22 -43 -3 0 -16 9 -30 20 -48 38 -127 18
-183 -46 -38 -44 -39 -84 -2 -124 42 -46 103 -54 273 -35 l46 5 9 -46 c5 -26
16 -52 25 -57 24 -15 65 0 108 38 21 19 48 35 59 35 12 0 26 9 32 21 14 25 15
23 -37 36 -38 10 -44 8 -64 -13 -12 -13 -31 -24 -41 -24 -15 0 -18 8 -18 55 0
42 -4 55 -15 57 -8 0 -20 1 -27 2 -7 1 -15 -9 -18 -22 -3 -13 -8 -23 -12 -23
-5 1 -20 1 -34 1 -21 0 -25 3 -19 18 5 9 9 33 10 52 3 35 17 76 74 207 17 40
31 79 31 87 0 20 -29 20 -58 0z m-160 -308 c27 -33 23 -56 -9 -56 -37 0 -101
18 -108 31 -8 12 13 39 40 49 27 11 56 2 77 -24z"/>
<path d="M11535 8620 c-60 -4 -126 -11 -145 -18 -19 -6 -66 -20 -105 -31 -38
-11 -104 -30 -145 -42 -41 -12 -79 -23 -85 -23 -29 -3 -203 -97 -225 -122 -32
-37 -36 -127 -6 -149 10 -8 16 -18 13 -22 -11 -18 -10 -408 1 -429 6 -12 9
-23 7 -25 -6 -7 -15 -139 -20 -299 -4 -139 -7 -181 -21 -350 -4 -41 -6 -93 -6
-115 0 -95 15 -531 18 -537 2 -3 2 -13 -1 -21 -5 -11 -13 -8 -36 14 -16 15
-55 35 -87 43 -114 33 -157 49 -181 67 -41 33 -81 23 -107 -26 -18 -36 -18
-45 5 -69 11 -12 22 -44 26 -75 6 -46 5 -53 -8 -48 -19 7 -190 -43 -249 -74
-10 -5 -25 -9 -33 -9 -8 0 -43 -13 -77 -29 -90 -42 -140 -62 -145 -57 -2 2
-37 -12 -76 -32 -40 -19 -78 -37 -85 -38 -8 -1 -21 -9 -30 -16 -10 -8 -37 -23
-62 -35 -115 -53 -245 -118 -250 -123 -3 -3 -41 -22 -85 -43 -44 -21 -88 -43
-97 -48 -22 -11 -24 4 -3 21 8 7 22 38 31 69 9 31 18 57 19 59 2 2 12 -2 24
-9 25 -16 74 -2 79 24 2 9 -7 31 -19 48 -12 17 -26 51 -30 76 -7 37 -6 48 11
66 23 24 26 47 8 65 -19 19 -31 15 -71 -22 -30 -28 -37 -41 -37 -72 0 -28 -6
-43 -20 -52 -26 -16 -25 -30 2 -59 18 -19 19 -23 5 -23 -20 0 -35 -26 -35 -61
1 -35 -42 -97 -69 -102 -29 -5 -30 16 -2 46 30 31 59 96 59 129 0 24 -7 32
-35 44 -45 18 -79 18 -121 -2 -60 -29 -81 -104 -50 -179 8 -19 11 -35 7 -35
-24 0 -82 33 -98 56 -10 14 -30 41 -45 59 -16 18 -28 39 -28 47 0 18 -44 40
-65 32 -39 -15 -20 -78 40 -134 46 -43 50 -67 15 -106 -42 -48 -42 -104 -1
-145 17 -17 40 -29 55 -29 38 0 31 -11 -32 -52 -31 -20 -89 -60 -127 -88 -39
-28 -113 -74 -165 -102 -52 -28 -111 -63 -131 -79 -19 -15 -47 -31 -62 -34
-15 -4 -27 -11 -27 -16 0 -5 -8 -9 -18 -9 -10 0 -29 -11 -42 -25 -13 -14 -28
-25 -33 -25 -9 0 -27 -13 -108 -78 -23 -17 -52 -35 -65 -38 -13 -3 -24 -9 -24
-13 0 -5 -15 -19 -34 -32 -19 -13 -68 -56 -109 -94 -41 -39 -94 -87 -118 -107
l-44 -37 -8 46 c-22 124 -157 208 -337 208 -62 0 -84 -5 -125 -27 -27 -15 -68
-34 -90 -44 -61 -27 -180 -130 -198 -172 -27 -64 -30 -83 -29 -188 1 -145 29
-219 112 -291 35 -30 145 -83 174 -83 23 0 195 59 241 82 49 25 135 130 185
226 43 83 142 204 232 284 34 31 81 72 103 92 22 19 43 36 47 36 8 0 70 43
138 95 25 19 63 44 84 56 21 11 61 36 87 55 27 19 52 34 55 34 4 0 22 11 40
25 18 14 36 25 40 25 7 0 117 62 159 90 13 8 51 33 86 55 35 21 69 44 74 51
19 23 172 116 315 191 25 13 59 32 75 42 53 33 250 131 263 131 6 0 12 4 12 8
0 5 17 17 38 28 20 11 46 26 57 32 55 31 337 162 385 178 30 11 70 29 87 40
38 26 318 119 385 129 l47 7 6 -34 c4 -18 5 -38 4 -43 -2 -11 7 -40 22 -68 7
-13 7 -23 -1 -32 -8 -9 -4 -17 14 -29 14 -9 29 -16 34 -16 11 0 62 65 62 79 0
5 12 22 28 38 15 15 42 47 61 71 18 23 53 56 77 72 28 20 41 35 38 45 -4 8 -1
15 5 15 13 0 15 -110 2 -160 -5 -19 -12 -57 -15 -83 -5 -44 -4 -48 20 -59 13
-6 23 -17 20 -24 -13 -34 45 -58 174 -74 36 -4 94 -14 130 -23 36 -9 145 -25
243 -37 99 -11 186 -24 195 -29 72 -38 483 -18 605 30 26 11 62 19 80 19 18 0
41 7 51 15 11 8 36 15 56 15 20 0 55 9 78 20 22 11 48 20 56 20 8 0 31 8 53
19 21 10 65 27 98 36 33 10 67 25 76 32 8 7 21 13 28 13 9 0 9 5 1 20 -7 12
-9 76 -5 177 10 325 5 539 -20 848 -7 96 -10 193 -6 223 7 51 -7 216 -28 326
-6 32 -6 59 1 75 21 57 28 643 8 696 -4 11 -30 43 -58 72 -37 38 -60 53 -88
59 -22 3 -47 11 -58 16 -10 6 -30 12 -45 14 -41 7 -804 10 -926 4z m695 -85
c235 -3 322 -20 377 -71 28 -27 33 -38 33 -78 0 -39 -4 -48 -22 -55 -13 -5
-66 -27 -118 -49 -92 -39 -167 -67 -240 -90 -44 -13 -249 -36 -257 -28 -3 3
-12 1 -20 -6 -14 -12 -256 -13 -275 -2 -6 4 -111 8 -235 10 -123 2 -228 6
-234 9 -5 4 -13 4 -18 0 -5 -3 -56 2 -113 10 -119 18 -195 55 -190 92 2 14 -4
24 -18 28 -12 4 -20 12 -18 18 9 29 270 131 358 140 19 2 49 9 65 16 97 41
149 47 513 55 106 2 196 7 200 11 3 3 18 3 32 -1 14 -4 95 -8 180 -9z m428
-452 c-3 -114 -9 -176 -18 -193 -12 -22 -19 -63 -21 -115 0 -11 8 -60 17 -110
11 -60 18 -156 20 -285 3 -204 20 -514 31 -565 7 -32 5 -482 -2 -600 -3 -38
-5 -73 -5 -76 0 -4 -21 -12 -47 -19 -40 -10 -204 -59 -305 -90 -15 -5 -36 -6
-48 -3 -21 6 -103 -28 -115 -47 -3 -5 -12 -7 -19 -4 -8 3 -28 -2 -45 -11 -18
-9 -35 -14 -39 -11 -4 3 -41 0 -82 -5 -146 -19 -307 -11 -510 27 -47 9 -110
17 -140 19 -106 8 -165 16 -215 30 -27 7 -79 17 -115 20 -118 12 -156 38 -123
84 11 17 13 53 8 198 -13 399 -8 933 9 962 3 4 8 126 11 272 3 145 8 271 11
281 2 9 0 19 -6 23 -7 5 -10 56 -9 151 1 79 3 144 4 144 4 0 75 -27 135 -51
46 -18 79 -22 205 -25 195 -4 315 -11 322 -18 4 -3 11 -2 17 3 6 5 38 5 73 0
84 -12 268 -16 318 -7 22 4 69 10 105 13 152 13 273 41 345 79 17 9 38 16 48
16 9 0 17 4 17 9 0 5 19 14 43 20 23 5 58 19 77 30 19 11 39 20 44 20 5 1 7
-73 4 -166z m-3558 -2071 c0 -23 -29 -64 -41 -57 -13 9 -11 63 4 68 24 10 37
7 37 -11z m18 -222 l37 -1 -24 -19 c-13 -11 -30 -20 -38 -20 -8 0 -29 -11 -47
-25 -18 -14 -39 -25 -46 -25 -7 0 -22 -7 -32 -17 -30 -27 -30 -9 1 33 17 23
32 59 36 87 l7 47 34 -30 c25 -22 45 -30 72 -30z m-193 11 c7 -12 -28 -76 -40
-75 -20 3 -29 33 -17 58 11 26 45 35 57 17z m-1422 -811 c29 -11 69 -36 88
-56 l34 -35 0 -104 c0 -99 -1 -105 -27 -132 -23 -25 -98 -130 -98 -138 0 -9
-109 -115 -118 -115 -6 0 -15 -6 -19 -13 -8 -14 -106 -57 -129 -57 -20 0 -105
49 -136 78 -15 13 -39 49 -53 78 -24 50 -26 61 -22 151 6 119 9 144 22 162 25
36 129 130 148 134 12 3 56 19 97 35 90 36 141 39 213 12z"/>
<path d="M11631 7807 c-9 -11 -8 -17 4 -27 8 -7 15 -23 15 -35 0 -12 7 -42 16
-66 8 -24 16 -69 17 -99 2 -49 -1 -59 -28 -86 -16 -18 -50 -42 -75 -54 -49
-25 -100 -74 -100 -97 0 -8 -10 -36 -21 -62 -17 -35 -32 -51 -63 -66 -48 -23
-98 -70 -113 -105 -6 -15 -7 -47 -3 -78 l6 -52 -52 -41 c-66 -51 -78 -80 -71
-170 5 -55 12 -78 31 -104 15 -19 26 -36 26 -38 0 -2 -27 -16 -60 -31 -50 -22
-66 -37 -94 -81 -45 -70 -56 -137 -28 -168 11 -12 27 -35 35 -52 15 -30 84
-72 158 -94 42 -13 126 -15 133 -3 8 13 81 16 161 8 81 -9 99 -12 120 -23 37
-20 151 -35 251 -33 55 1 115 -1 136 -5 82 -16 328 74 376 138 7 9 24 17 38
17 15 0 27 7 31 18 3 9 16 26 29 37 17 15 24 32 25 68 2 26 -2 52 -9 59 -7 7
-12 18 -12 24 0 12 -19 40 -113 168 l-38 51 27 23 c43 37 37 122 -11 162 -8 7
-15 17 -15 22 0 5 -19 33 -42 63 -36 46 -41 60 -44 109 -3 76 -37 143 -92 181
-37 26 -55 30 -120 34 l-77 3 -37 58 c-27 44 -43 60 -67 65 -31 7 -76 50 -84
82 -3 10 -13 52 -22 93 -10 44 -25 82 -36 91 -10 10 -29 37 -41 60 -25 47 -47
59 -67 36z m198 -423 c67 -33 85 -61 78 -120 -4 -40 -2 -47 14 -51 22 -6 20
-27 -2 -29 -50 -3 -82 -19 -103 -53 -22 -34 -37 -79 -37 -111 0 -8 -3 -32 -6
-53 l-5 -37 -25 50 c-39 78 -154 174 -205 172 -10 0 -18 3 -18 9 0 10 34 13
88 10 26 -2 32 1 32 17 0 10 9 27 20 37 11 10 20 26 20 36 0 10 4 20 10 24 5
3 6 13 3 21 -4 10 10 32 38 60 24 24 44 44 45 44 1 0 25 -12 53 -26z m265
-140 c15 -6 15 -8 -1 -19 -17 -13 -17 -14 2 -35 11 -12 29 -26 39 -30 15 -5
20 -18 22 -58 1 -29 0 -52 -3 -52 -3 0 -30 23 -61 51 -30 28 -73 57 -94 66
l-39 16 22 24 c13 13 37 27 53 32 40 12 42 12 60 5z m-617 -121 l-25 -25 -21
21 -21 21 28 6 c15 3 32 7 37 9 24 6 25 -9 2 -32z m506 -22 c51 -19 127 -112
127 -155 0 -8 -5 -37 -11 -64 -9 -44 -18 -55 -73 -101 -35 -28 -71 -51 -79
-51 -23 0 -64 65 -86 136 -16 50 -18 74 -11 128 11 87 30 116 75 116 18 0 45
-4 58 -9z m-366 -83 c24 -23 43 -46 43 -51 0 -6 8 -15 17 -22 13 -9 18 -32 21
-82 l4 -70 -38 -17 c-22 -9 -51 -24 -66 -32 -30 -16 -55 -10 -63 17 -4 10 -12
19 -18 19 -38 0 -60 157 -32 224 29 68 72 73 132 14z m613 -33 c0 -8 -6 -15
-14 -15 -26 0 -5 -41 29 -57 25 -12 31 -20 27 -39 -3 -19 0 -24 16 -24 11 0
22 -6 25 -14 7 -16 -27 -51 -41 -42 -5 3 -21 -12 -36 -34 -16 -24 -34 -40 -46
-40 -10 0 -22 -5 -26 -11 -3 -6 -16 -8 -28 -5 -17 4 -24 -1 -35 -25 -14 -33
-9 -59 12 -59 14 0 63 18 124 46 43 19 46 18 38 -15 -4 -21 -2 -30 9 -34 20
-8 21 -36 2 -62 -30 -44 -29 -63 4 -84 35 -21 24 -39 -12 -20 -18 10 -24 9
-34 -6 -9 -12 -10 -23 -4 -36 9 -16 4 -19 -35 -24 -31 -5 -46 -13 -50 -26 -7
-22 -18 -24 -45 -7 -25 16 -56 -1 -53 -28 1 -11 -5 -23 -13 -27 -8 -4 -14 -15
-14 -24 0 -13 -3 -14 -12 -5 -21 21 -57 14 -76 -15 -21 -34 -32 -35 -147 -18
-49 7 -94 11 -98 8 -5 -3 -16 2 -26 11 -19 18 -89 28 -206 30 -54 1 -78 7
-105 24 -19 12 -45 25 -57 28 -23 6 -32 24 -13 24 16 0 12 15 -10 40 -11 13
-20 29 -20 35 0 17 27 38 38 31 5 -3 19 6 31 19 18 22 27 24 60 19 33 -5 42
-3 52 14 7 11 18 18 26 15 7 -3 18 7 25 22 11 24 9 28 -20 51 -18 14 -32 32
-32 40 0 8 -10 14 -25 14 -21 0 -25 5 -25 30 0 17 -4 30 -10 30 -5 0 -9 10 -7
22 1 17 -4 24 -22 26 -23 4 -23 4 8 23 41 25 40 67 -1 87 -38 18 -35 32 7 32
l35 0 0 -49 c0 -32 8 -64 25 -95 14 -26 25 -56 25 -66 0 -11 12 -27 26 -37 40
-26 132 -7 223 46 l71 42 1 87 c0 48 2 83 4 77 1 -5 8 -30 16 -55 7 -25 17
-50 21 -57 5 -6 6 -28 2 -48 -8 -45 9 -79 47 -95 126 -52 338 136 314 278 -5
34 -3 40 17 50 32 15 38 14 38 -3z"/>
<path d="M11936 7041 c-21 -8 -49 -72 -49 -113 0 -64 78 -121 131 -96 35 17
40 61 15 130 -14 41 -57 91 -75 87 -1 0 -11 -4 -22 -8z"/>
<path d="M11554 6999 c-38 -13 -47 -36 -41 -95 8 -74 29 -98 80 -91 21 3 44
11 52 17 21 18 18 76 -6 125 -22 45 -48 58 -85 44z"/>
<path d="M11510 6545 c-16 -19 -6 -56 25 -93 14 -17 25 -35 25 -41 0 -7 7 -14
15 -17 8 -3 17 -16 21 -27 23 -74 155 -121 258 -93 49 14 106 68 106 101 0 15
12 36 30 51 33 30 31 41 -18 95 -32 36 -47 37 -60 1 l-10 -29 -73 9 c-127 15
-247 36 -268 47 -26 15 -36 14 -51 -4z m300 -116 c19 -5 47 -9 63 -9 24 0 26
-2 16 -18 -29 -46 -117 -80 -134 -52 -3 6 -16 10 -28 10 -30 0 -64 25 -83 61
l-15 30 73 -6 c40 -4 89 -11 108 -16z"/>
<path d="M7180 4900 c-9 -17 -1 -25 67 -70 48 -32 85 -64 98 -87 11 -20 29
-41 40 -47 23 -13 45 -33 45 -40 0 -3 -21 -6 -46 -6 -42 0 -50 4 -85 44 -21
24 -52 49 -69 56 -36 15 -133 8 -156 -11 -24 -20 -44 -77 -44 -125 0 -38 4
-45 30 -59 17 -9 35 -13 40 -10 14 8 31 80 24 98 -3 10 4 22 20 32 22 15 31
15 55 5 16 -6 37 -20 46 -30 16 -18 15 -22 -29 -73 -41 -48 -46 -60 -48 -107
-2 -45 1 -55 22 -72 32 -26 88 -19 134 16 38 29 46 55 36 121 -9 56 -5 59 85
52 58 -4 67 -3 80 17 14 19 14 22 -6 39 -12 9 -31 17 -43 18 -18 0 -17 2 9 16
41 21 105 102 105 133 -1 75 -101 104 -194 56 l-49 -25 -43 25 c-23 14 -48 31
-54 39 -18 21 -57 18 -70 -5z m329 -84 c8 -10 6 -21 -12 -46 -30 -45 -42 -47
-61 -9 -15 30 -15 34 0 51 20 21 57 24 73 4z m-222 -313 c-2 -41 -5 -48 -24
-51 -13 -2 -23 2 -23 8 0 12 38 90 44 90 3 0 4 -21 3 -47z"/>
<path d="M13300 8484 c-19 -7 -44 -13 -56 -13 -21 -1 -54 -30 -54 -48 0 -12
-103 -103 -147 -128 -17 -10 -34 -26 -37 -34 -4 -9 -13 -27 -20 -40 -8 -13
-12 -29 -9 -36 5 -14 48 -25 93 -25 15 0 33 -6 39 -14 6 -7 41 -16 79 -19 37
-3 92 -15 122 -27 89 -33 131 -24 109 23 -7 15 -15 27 -19 27 -6 0 -20 203
-20 299 0 27 -17 52 -34 50 -6 -1 -27 -7 -46 -15z"/>
<path d="M16680 8365 c-13 -14 -44 -75 -70 -137 l-46 -113 -65 3 c-54 3 -69 0
-99 -20 -28 -19 -36 -31 -38 -61 -5 -56 22 -102 71 -123 69 -28 147 -17 147
20 0 12 11 33 25 46 13 12 21 28 18 34 -10 15 -3 76 12 111 7 17 22 54 34 83
12 29 35 74 51 99 34 53 37 68 14 77 -24 9 -29 8 -54 -19z m-148 -345 c27 -34
23 -50 -13 -50 -56 0 -116 49 -91 74 14 15 86 -2 104 -24z"/>
<path d="M13522 8359 c-85 -37 -30 -76 81 -57 72 13 108 38 87 62 -18 23 -114
20 -168 -5z"/>
<path d="M13866 8341 c-41 -9 -57 -38 -31 -57 15 -12 34 -14 80 -9 65 6 68 7
105 3 19 -2 26 2 28 20 6 41 -89 64 -182 43z"/>
<path d="M14225 8313 c-33 -5 -45 -18 -45 -47 0 -31 28 -44 71 -35 23 6 48 5
65 -1 62 -24 88 24 32 58 -38 23 -80 31 -123 25z"/>
<path d="M16235 8263 c-79 -7 -141 -24 -177 -50 -30 -20 -38 -32 -38 -57 0
-32 21 -70 50 -93 27 -21 88 -15 124 12 40 30 46 31 46 5 0 -26 33 -92 54
-109 20 -17 46 1 46 31 0 11 -7 26 -15 34 -18 18 -20 106 -4 153 9 25 8 36 -5
56 -9 14 -22 24 -29 23 -6 -1 -30 -3 -52 -5z m-35 -90 c0 -3 -7 -15 -17 -25
-17 -19 -83 -26 -83 -8 0 6 1 10 3 10 1 0 20 7 42 15 46 16 55 18 55 8z"/>
<path d="M14504 8226 c-10 -40 27 -65 93 -64 28 0 67 -5 87 -12 40 -13 56 -7
56 20 0 18 -50 54 -75 55 -5 0 -15 4 -22 8 -6 4 -38 10 -72 13 -59 7 -60 6
-67 -20z"/>
<path d="M14920 8162 c-26 -9 -40 -35 -27 -50 13 -16 73 -42 97 -42 9 0 25 -9
35 -20 20 -22 36 -15 56 22 12 23 -4 48 -31 48 -9 0 -28 8 -41 18 -28 22 -67
32 -89 24z"/>
<path d="M15265 8048 c-14 -21 -14 -24 1 -35 9 -6 34 -15 56 -18 23 -4 56 -14
74 -21 43 -18 60 -18 68 1 11 29 -5 42 -82 69 -93 32 -97 32 -117 4z"/>
<path d="M16775 8006 c-16 -7 -43 -25 -58 -40 -15 -14 -34 -26 -42 -26 -36 0
-64 -109 -46 -178 8 -28 22 -45 53 -66 40 -26 48 -28 116 -23 50 4 80 11 93
23 45 41 7 65 -92 57 -59 -5 -66 -3 -88 20 -12 14 -20 30 -16 36 8 14 38 14
52 0 18 -18 72 -20 104 -4 58 31 77 118 37 171 -38 49 -58 54 -113 30z m63
-95 c-2 -21 -9 -27 -33 -29 -16 -1 -37 2 -45 8 -13 8 -10 14 14 33 38 31 68
25 64 -12z"/>
<path d="M15646 7984 c-30 -30 -19 -52 39 -78 22 -10 67 -31 99 -47 33 -16 70
-29 83 -29 21 0 23 3 17 23 -8 28 -23 47 -37 47 -6 0 -20 8 -31 19 -23 20
-132 81 -146 81 -5 0 -16 -7 -24 -16z"/>
<path d="M10153 7958 c-15 -26 -12 -80 7 -107 20 -27 39 -97 40 -143 0 -23 -5
-27 -52 -38 -29 -7 -57 -16 -63 -20 -5 -3 -30 -12 -55 -19 -25 -7 -63 -21 -86
-31 -22 -10 -84 -29 -136 -44 -53 -14 -116 -34 -140 -44 -23 -11 -92 -36 -153
-56 -60 -21 -122 -43 -136 -51 -14 -8 -48 -21 -75 -30 -27 -9 -84 -34 -127
-56 -43 -22 -100 -48 -126 -59 -48 -18 -123 -53 -266 -120 -44 -21 -109 -48
-144 -59 -34 -12 -79 -33 -99 -46 -20 -14 -44 -25 -53 -25 -9 0 -22 -6 -28
-14 -7 -8 -24 -17 -38 -21 -15 -3 -38 -14 -52 -24 -42 -30 -148 -87 -281 -150
-47 -23 -92 -45 -100 -49 -8 -5 -24 -13 -35 -19 -53 -26 -141 -77 -151 -88 -7
-7 -26 -18 -43 -25 -17 -7 -31 -16 -31 -20 0 -4 -15 -14 -32 -21 -18 -7 -41
-21 -52 -31 -10 -9 -35 -25 -55 -34 -20 -9 -52 -30 -71 -46 -19 -15 -40 -28
-46 -28 -7 0 -32 -18 -55 -40 -24 -22 -53 -40 -65 -40 -13 0 -30 -8 -40 -17
-9 -10 -22 -18 -28 -19 -32 -3 -36 -5 -36 -14 0 -18 -51 -68 -83 -81 -18 -7
-51 -28 -75 -46 -24 -18 -49 -33 -55 -33 -7 0 -18 -9 -25 -20 -7 -11 -19 -20
-27 -20 -8 0 -15 -4 -15 -9 0 -4 -20 -16 -45 -25 -25 -10 -45 -21 -45 -26 0
-7 -74 -66 -119 -95 -9 -6 -31 -25 -50 -43 -18 -18 -45 -35 -60 -38 -48 -10
-53 -14 -64 -44 -8 -21 -18 -30 -33 -30 -12 0 -24 -6 -27 -14 -3 -8 -38 -42
-79 -77 -74 -63 -256 -260 -315 -341 -18 -23 -51 -64 -75 -90 -56 -60 -88
-103 -88 -117 0 -6 -20 -40 -45 -75 -24 -35 -52 -82 -60 -104 -9 -22 -23 -43
-31 -46 -8 -3 -14 -15 -14 -26 0 -24 -39 -101 -57 -113 -7 -4 -13 -16 -13 -26
0 -9 -11 -32 -25 -51 -14 -19 -25 -39 -25 -45 0 -7 -9 -20 -20 -30 -33 -30
-10 -105 31 -105 22 0 50 37 42 56 -3 8 11 40 31 70 48 71 66 104 140 249 66
128 107 198 137 230 10 11 24 33 32 48 8 15 30 45 49 65 18 20 59 69 91 109
31 40 86 102 122 137 35 36 72 77 81 91 9 14 22 25 30 25 7 0 17 6 21 13 10
17 149 127 160 127 5 0 31 20 60 45 28 25 55 45 60 45 5 0 22 14 39 31 31 33
78 62 87 53 3 -3 8 4 12 15 3 12 14 21 23 21 10 0 37 18 61 41 28 27 49 39 62
36 12 -3 20 1 24 14 3 10 23 28 43 41 20 12 59 39 86 59 27 21 64 40 82 44 18
3 35 13 38 23 3 9 26 28 51 41 25 13 45 28 45 32 0 5 22 20 50 34 27 14 57 36
66 50 9 14 21 25 27 25 5 0 35 17 65 38 30 20 69 45 86 55 17 11 40 27 52 38
11 10 29 19 41 19 11 0 28 10 39 21 21 23 119 89 133 89 5 0 35 16 67 35 32
19 66 35 75 35 10 0 20 4 23 9 3 5 45 29 93 53 49 25 127 66 175 92 47 25 91
46 98 46 7 0 25 11 42 25 16 14 38 25 48 25 9 0 23 7 30 15 7 8 18 15 24 15 7
0 31 9 54 20 22 11 49 20 58 20 10 0 25 6 33 13 9 8 45 24 81 37 36 13 76 31
90 40 14 9 48 25 75 35 28 10 91 39 140 65 50 26 113 53 140 60 28 7 55 16 60
19 6 3 15 6 20 6 6 1 24 7 40 14 75 34 94 41 114 41 11 0 58 17 103 38 46 21
119 47 163 57 44 10 103 28 132 41 28 13 56 24 62 24 6 0 25 6 43 14 18 8 56
21 83 29 28 8 57 18 66 22 13 5 21 -8 38 -60 22 -64 22 -66 4 -93 -52 -77 -53
-102 -2 -102 30 0 59 19 59 39 0 6 11 18 24 26 13 9 26 29 29 44 6 27 114 131
216 209 26 19 30 28 25 50 -10 40 -32 61 -73 68 -56 10 -160 45 -174 58 -6 7
-35 21 -64 31 -36 13 -53 25 -57 40 -3 12 -17 27 -31 33 -33 15 -42 15 -52 0z"/>
<path d="M15932 7838 c-7 -7 -12 -18 -12 -24 0 -19 50 -54 76 -54 22 0 73 -24
119 -56 11 -8 29 -14 42 -14 81 0 -14 102 -136 145 -52 18 -73 19 -89 3z"/>
<path d="M17046 7808 c-11 -6 -33 -11 -50 -12 -27 -1 -34 -8 -55 -51 -27 -58
-39 -129 -22 -139 15 -10 51 2 51 17 0 7 16 33 35 59 45 61 85 71 155 38 84
-39 108 -6 40 53 -53 45 -114 59 -154 35z"/>
<path d="M16322 7648 c-7 -7 -12 -24 -12 -39 0 -23 9 -30 68 -58 37 -17 79
-41 94 -53 27 -21 28 -21 48 -3 11 10 20 23 20 29 -1 13 -106 91 -142 105 -14
5 -29 15 -33 20 -8 14 -28 14 -43 -1z"/>
<path d="M17700 7651 c-52 -15 -98 -41 -174 -100 -166 -128 -213 -199 -203
-304 13 -132 27 -157 157 -287 130 -130 144 -140 189 -140 17 0 31 -4 31 -8 0
-12 70 -49 109 -57 18 -4 52 -15 75 -26 82 -36 140 -32 241 17 47 22 115 76
115 90 0 4 11 22 25 40 14 18 25 37 25 42 0 5 9 17 20 27 11 10 20 26 20 35 0
9 5 21 12 28 8 8 12 44 13 95 0 73 -4 90 -32 147 -18 36 -59 94 -93 129 -33
35 -60 68 -60 72 0 5 -17 19 -37 32 -21 14 -52 38 -70 54 -18 17 -48 38 -67
47 -19 9 -38 21 -42 27 -6 10 -46 30 -74 36 -35 8 -157 11 -180 4z m190 -104
c19 -12 57 -40 84 -64 26 -24 52 -43 57 -43 13 0 108 -91 114 -110 3 -9 16
-22 29 -28 25 -11 87 -107 99 -150 3 -13 1 -52 -5 -85 -8 -49 -22 -80 -64
-143 -48 -71 -63 -86 -115 -112 -47 -24 -59 -27 -53 -14 4 9 15 55 25 102 11
47 24 98 29 114 16 46 12 84 -11 107 -20 20 -29 21 -108 16 -47 -4 -101 -11
-120 -17 -81 -23 -93 -77 -33 -141 37 -41 38 -41 110 -40 40 0 72 -2 72 -4 0
-3 -7 -23 -16 -44 -15 -37 -15 -43 0 -72 9 -18 14 -34 11 -37 -5 -6 -219 74
-250 93 -11 6 -36 17 -56 24 -35 11 -175 142 -216 201 -10 14 -23 31 -30 38
-29 30 -50 97 -33 107 5 3 7 27 4 53 -6 47 -5 47 56 110 34 34 66 62 70 62 5
0 26 15 48 33 43 36 99 64 109 54 20 -21 -48 -127 -103 -159 -19 -11 -34 -28
-34 -39 0 -20 44 -66 73 -75 25 -8 21 -22 -14 -55 -40 -37 -57 -95 -35 -117
15 -15 19 -15 49 2 50 30 67 47 67 73 0 31 18 29 68 -8 41 -30 42 -30 72 -13
16 10 30 21 30 25 0 4 3 14 6 22 4 10 -4 16 -28 21 -18 3 -46 16 -61 29 l-28
22 46 62 c59 82 60 134 2 119 -13 -3 -34 -26 -50 -56 -33 -59 -67 -84 -67 -49
0 12 11 36 24 53 12 17 31 47 41 66 10 19 23 38 28 42 8 5 7 14 0 31 -12 25
-11 25 30 20 23 -3 58 -15 77 -26z m111 -506 c-21 -38 -95 -44 -116 -11 -12
19 15 30 73 30 49 0 52 -1 43 -19z"/>
<path d="M8053 7515 c-75 -39 -95 -58 -91 -87 4 -33 41 -34 83 -3 19 15 40 25
47 22 8 -2 14 -26 16 -58 3 -71 19 -107 53 -124 36 -19 63 -19 100 1 24 12 29
19 23 37 -10 36 -21 41 -54 27 -27 -11 -32 -11 -45 6 -17 23 -19 57 -4 123 20
94 -20 112 -128 56z"/>
<path d="M16650 7420 c-15 -28 5 -55 54 -71 23 -7 56 -21 75 -32 l34 -20 18
22 c26 32 12 52 -60 90 -70 36 -106 39 -121 11z"/>
<path d="M10000 7341 c-57 -22 -160 -69 -180 -81 -8 -6 -22 -13 -30 -16 -71
-28 -124 -50 -175 -74 -100 -47 -147 -66 -215 -85 -36 -10 -72 -24 -81 -32 -8
-7 -21 -13 -27 -13 -6 0 -28 -7 -49 -16 -21 -9 -47 -20 -58 -25 -11 -4 -40
-17 -65 -27 -25 -11 -75 -29 -112 -41 -37 -11 -85 -29 -105 -40 -63 -33 -223
-107 -303 -141 -41 -17 -81 -37 -90 -44 -8 -8 -60 -37 -115 -66 -55 -29 -118
-67 -140 -84 -22 -18 -53 -41 -69 -52 -16 -10 -45 -30 -66 -44 -20 -14 -58
-38 -85 -55 -26 -16 -65 -45 -87 -62 -22 -18 -44 -33 -49 -33 -4 0 -32 -14
-61 -32 -29 -18 -101 -57 -160 -88 -135 -70 -303 -167 -395 -227 -66 -44 -104
-76 -290 -245 -34 -32 -66 -58 -71 -58 -21 0 -237 -211 -276 -270 -13 -19 -40
-53 -60 -75 -20 -22 -50 -67 -67 -100 -36 -68 -109 -173 -154 -219 -16 -17
-34 -38 -40 -47 -24 -39 -77 -103 -93 -115 -16 -11 -26 -7 -75 31 -88 70 -112
68 -153 -11 -17 -33 -18 -45 -9 -68 10 -24 7 -37 -25 -104 -21 -43 -44 -83
-53 -90 -8 -7 -13 -21 -10 -32 3 -11 0 -27 -7 -35 -6 -7 -11 -27 -9 -42 1 -15
-1 -35 -4 -43 -4 -8 -8 -33 -9 -54 -3 -35 0 -40 24 -48 29 -10 27 -12 187 125
69 60 148 102 164 88 23 -18 78 -5 103 25 35 43 27 90 -18 107 -9 3 -26 24
-38 47 l-21 41 33 41 c18 22 43 52 56 65 35 38 177 234 197 273 10 18 35 56
56 84 143 190 220 273 334 361 84 66 173 142 240 207 53 50 160 125 321 223
27 16 96 53 154 82 114 58 314 176 370 217 82 62 229 156 242 156 3 0 3 -11 0
-25 -5 -28 20 -62 126 -174 55 -57 64 -63 89 -56 38 9 39 12 17 32 -26 24
-165 191 -186 224 l-17 27 52 33 c110 72 240 141 352 189 11 4 36 15 57 24 20
9 40 16 46 16 5 0 15 7 22 15 7 8 18 15 26 15 7 0 41 13 76 30 35 16 106 45
158 64 52 19 120 44 150 56 73 29 214 78 270 94 59 17 116 44 131 62 6 8 18
14 26 14 7 0 30 8 51 17 20 9 42 17 47 18 6 1 24 9 42 18 18 9 39 17 46 17 8
0 37 15 65 33 27 19 79 42 115 53 71 20 88 41 58 68 -22 20 -44 19 -101 -3z"/>
<path d="M7980 7254 c-45 -38 -60 -81 -49 -139 5 -26 6 -57 3 -69 -3 -14 1
-28 10 -35 22 -19 20 -34 -3 -21 -29 15 -53 3 -41 -20 8 -15 3 -26 -24 -54
-34 -37 -50 -42 -74 -27 -11 6 -7 20 18 64 38 68 34 99 -16 123 -31 15 -96 15
-111 0 -9 -9 -3 -144 8 -173 50 -132 236 -113 255 27 6 47 24 65 39 40 8 -13
62 -13 70 0 8 12 -13 80 -24 80 -5 0 -16 21 -26 46 -17 45 -17 46 9 95 20 39
24 55 16 70 -14 25 -22 24 -60 -7z"/>
<path d="M16955 7264 c-25 -25 -14 -47 33 -70 24 -11 47 -25 50 -31 10 -14 40
-23 57 -17 35 14 7 70 -56 109 -45 29 -62 31 -84 9z"/>
<path d="M8328 7169 c-10 -5 -18 -20 -18 -33 0 -30 36 -76 60 -76 21 0 50 41
50 71 0 40 -53 61 -92 38z"/>
<path d="M7306 7115 c-21 -22 -20 -51 2 -67 10 -7 42 -33 72 -58 29 -25 66
-56 82 -70 l30 -26 -21 -35 c-13 -22 -19 -43 -15 -54 6 -16 4 -17 -17 -11 -13
5 -48 13 -76 19 -46 9 -53 14 -53 34 0 18 -5 23 -27 23 -34 0 -60 -37 -91
-129 -25 -74 -26 -91 -11 -144 8 -30 18 -42 44 -53 47 -19 52 -18 84 15 27 28
57 113 46 131 -3 5 -1 19 5 31 9 16 17 19 38 14 15 -4 37 -8 49 -10 13 -1 41
-14 63 -29 29 -19 52 -26 90 -26 47 0 50 2 68 38 11 20 22 56 26 80 6 39 3 46
-27 77 -18 18 -46 37 -62 41 -37 8 -110 63 -190 140 -89 87 -90 88 -109 69z
m333 -291 c2 -2 -3 -12 -11 -21 -9 -10 -14 -23 -11 -29 2 -6 -6 -19 -17 -29
-19 -17 -20 -17 -50 15 -34 37 -36 43 -14 64 11 12 26 14 57 10 23 -4 44 -8
46 -10z m-351 -111 c0 -42 -25 -106 -39 -97 -14 8 -10 55 8 101 21 49 31 47
31 -4z"/>
<path d="M17214 7059 c-19 -21 -19 -22 31 -65 48 -43 67 -50 99 -38 34 13 16
50 -46 97 -44 33 -59 34 -84 6z"/>
<path d="M15052 6988 c-5 -7 -22 -53 -37 -103 -43 -143 -36 -133 -92 -124
-112 18 -193 -27 -193 -106 0 -38 63 -92 123 -105 67 -14 147 -13 149 3 1 6 2
28 3 47 3 50 29 149 70 270 19 57 33 110 31 117 -7 17 -40 17 -54 1z m-110
-343 c-4 -38 -3 -38 -46 -30 -36 7 -86 39 -86 55 0 12 37 16 90 10 43 -5 45
-6 42 -35z"/>
<path d="M17420 6875 c-16 -19 8 -58 49 -79 16 -9 31 -22 35 -31 7 -19 44 -12
64 13 18 23 17 25 -39 70 -54 44 -88 52 -109 27z"/>
<path d="M7044 6710 c-42 -16 -53 -116 -23 -197 11 -31 3 -29 -59 13 -49 33
-56 34 -88 24 -33 -11 -43 -31 -26 -57 9 -14 197 -113 215 -113 6 0 22 8 34
18 23 17 23 18 8 89 -8 39 -19 82 -24 95 -10 25 -4 76 10 94 14 18 -22 43 -47
34z"/>
<path d="M15100 6685 c-15 -18 -15 -158 0 -185 17 -32 48 -34 89 -6 21 15 43
37 50 49 6 12 27 32 46 45 19 12 35 28 35 36 0 20 -27 38 -47 32 -23 -8 -88
-68 -96 -90 -4 -9 -11 -16 -17 -16 -7 0 -11 23 -10 63 1 34 1 68 1 75 -1 17
-36 15 -51 -3z"/>
<path d="M15846 6648 c-13 -29 -29 -77 -37 -106 -18 -71 -28 -79 -84 -58 -41
16 -47 16 -79 1 -52 -25 -66 -76 -38 -135 40 -84 225 -113 210 -33 -2 12 -14
19 -33 21 -67 6 -115 34 -115 68 0 19 39 10 99 -22 l44 -24 23 21 c16 15 23
36 27 72 2 29 14 88 26 132 30 105 30 109 3 113 -19 3 -26 -5 -46 -50z"/>
<path d="M13282 6649 c-15 -17 -38 -36 -49 -42 -11 -7 -52 -33 -91 -59 -39
-27 -80 -48 -90 -48 -11 0 -25 -7 -32 -15 -7 -8 -18 -15 -25 -15 -6 0 -18 -11
-25 -25 -7 -14 -19 -25 -27 -25 -8 0 -13 -12 -13 -33 0 -29 5 -34 58 -58 84
-40 170 -69 229 -80 29 -6 65 -16 80 -24 35 -19 43 -18 70 3 21 16 22 19 8 46
-8 16 -15 55 -15 88 0 53 2 59 18 53 27 -8 74 32 70 59 -2 16 -12 22 -43 26
l-40 5 -3 75 c-2 55 -8 78 -20 88 -23 17 -28 16 -60 -19z"/>
<path d="M17667 6642 c-10 -10 -17 -23 -17 -29 0 -5 25 -29 57 -52 49 -37 59
-41 80 -32 44 20 28 52 -54 109 -39 27 -45 27 -66 4z"/>
<path d="M6562 6637 c-24 -29 -14 -48 71 -137 48 -49 87 -93 87 -97 0 -8 -41
-43 -51 -43 -15 0 -69 -94 -69 -121 0 -31 46 -76 88 -85 15 -3 36 -7 46 -9 35
-7 120 15 158 41 51 36 64 82 47 175 -10 56 -16 69 -31 69 -10 0 -22 -10 -27
-22 -5 -14 -10 -17 -15 -10 -4 7 -19 12 -33 12 -19 0 -49 23 -113 86 -49 47
-91 96 -94 108 -7 28 -50 50 -64 33z m242 -322 c26 -14 31 -14 46 0 23 21 30
19 30 -10 0 -40 -48 -85 -97 -92 -52 -7 -103 12 -103 37 0 27 49 80 73 80 12
0 35 -7 51 -15z"/>
<path d="M15419 6575 c-57 -15 -98 -42 -110 -72 -13 -34 -12 -38 17 -72 31
-37 60 -39 122 -11 l43 19 9 -25 c6 -14 10 -32 10 -40 0 -8 8 -24 18 -35 22
-23 55 -16 48 10 -3 9 -8 40 -11 70 -3 30 -10 62 -15 72 -13 24 -13 26 10 32
25 6 36 33 21 51 -14 17 -96 17 -162 1z m36 -79 c-28 -19 -63 -28 -76 -20 -17
10 29 33 66 34 28 0 28 -1 10 -14z"/>
<path d="M13610 6520 c-29 -4 -36 -10 -38 -32 -4 -33 7 -36 120 -40 84 -3 89
-1 115 24 22 23 24 29 14 42 -10 12 -31 15 -95 13 -44 -1 -97 -4 -116 -7z"/>
<path d="M9384 6497 c-98 -70 -117 -107 -69 -129 22 -10 29 -8 55 17 l30 29 0
-52 c0 -39 5 -57 23 -75 31 -35 79 -42 111 -16 34 27 33 37 -9 55 -29 12 -35
20 -35 44 0 16 5 40 11 54 7 14 9 40 5 60 -7 35 -9 36 -49 36 -27 -1 -53 -9
-73 -23z"/>
<path d="M13901 6507 c-23 -23 -12 -44 32 -55 71 -18 97 -20 138 -9 32 8 39
14 37 30 -4 25 -37 35 -129 41 -42 3 -71 0 -78 -7z"/>
<path d="M14323 6460 c-48 -19 -21 -57 42 -61 79 -5 118 28 65 56 -32 17 -73
18 -107 5z"/>
<path d="M17916 6421 c-22 -25 -15 -38 47 -85 54 -41 99 -46 105 -12 4 19 -37
63 -91 99 -33 22 -40 21 -61 -2z"/>
<path d="M14560 6401 c-13 -26 -13 -31 5 -31 9 0 39 -12 68 -27 40 -21 66 -28
114 -28 74 0 96 14 69 44 -13 14 -26 18 -45 15 -16 -3 -57 5 -101 20 -88 31
-96 32 -110 7z"/>
<path d="M15940 6384 c-8 -3 -25 -22 -37 -43 -20 -35 -21 -42 -9 -94 20 -87
70 -137 138 -137 23 0 29 4 24 16 -3 9 -6 22 -6 30 0 8 -6 14 -13 14 -15 0
-47 31 -47 46 0 5 19 9 43 8 76 -2 111 39 82 96 -26 49 -112 81 -175 64z"/>
<path d="M15010 6281 c0 -24 6 -31 31 -40 45 -16 89 -14 95 4 4 8 12 15 20 15
21 0 17 28 -5 40 -11 5 -47 10 -80 10 -61 0 -61 0 -61 -29z"/>
<path d="M16958 6258 c-7 -4 -29 -8 -49 -8 -54 0 -136 -59 -284 -205 -117
-116 -144 -226 -84 -341 17 -32 39 -73 48 -90 16 -31 136 -140 179 -163 13 -7
38 -13 55 -13 20 -1 53 -15 87 -39 62 -42 134 -66 154 -50 6 5 36 13 66 17 30
3 80 17 110 29 30 12 66 25 80 28 35 9 110 80 153 147 71 109 90 221 55 330
-13 41 -139 167 -218 217 -30 20 -64 44 -75 54 -45 40 -150 86 -207 91 -32 2
-63 1 -70 -4z m166 -128 c48 -24 94 -52 103 -62 9 -10 21 -18 27 -18 13 0 150
-131 185 -177 18 -24 24 -43 23 -75 -2 -53 -7 -87 -17 -113 -52 -135 -112
-184 -260 -215 -22 -5 -66 -15 -98 -24 l-59 -15 -75 50 c-42 27 -82 49 -89 49
-8 0 -33 12 -57 27 -23 15 -56 34 -73 43 -33 16 -114 103 -114 122 0 6 -7 19
-16 29 -37 41 -8 168 54 232 54 56 171 151 216 175 65 35 144 26 250 -28z"/>
<path d="M16929 6128 c-26 -39 -59 -70 -112 -104 -34 -22 -38 -29 -32 -52 8
-33 20 -48 67 -82 l36 -26 -69 -75 c-38 -41 -69 -79 -69 -85 0 -44 81 -39 109
7 39 63 67 99 78 99 7 0 10 -6 7 -13 -6 -17 36 -40 66 -35 42 6 47 32 16 78
-33 49 -29 61 38 137 31 36 37 49 29 62 -6 9 -16 16 -23 16 -19 0 -84 -55
-109 -93 -21 -31 -22 -32 -46 -16 -14 9 -25 21 -25 27 0 6 30 41 66 78 57 60
64 71 54 89 -17 31 -55 26 -81 -12z"/>
<path d="M17234 5953 c-12 -2 -26 -14 -33 -26 -59 -116 -146 -217 -208 -243
-18 -8 -33 -21 -33 -30 0 -8 16 -40 35 -70 51 -79 134 -114 203 -85 36 15 63
61 64 110 0 44 -13 74 -52 116 l-28 30 48 80 c35 57 48 87 43 103 -3 12 -8 21
-12 21 -3 -1 -16 -4 -27 -6z m-62 -304 c16 -22 17 -29 7 -52 -14 -32 -16 -32
-70 -11 -36 15 -40 19 -34 43 4 14 7 26 8 26 1 0 11 5 22 12 28 17 45 12 67
-18z"/>
<path d="M8190 6243 c-59 -24 -90 -78 -90 -155 0 -44 -2 -49 -15 -38 -21 18
-137 15 -173 -4 -42 -22 -75 -71 -76 -115 -1 -30 3 -37 21 -39 13 -2 25 -14
32 -33 5 -16 25 -38 43 -49 40 -24 82 -75 91 -112 8 -32 44 -46 76 -28 21 11
20 12 -19 70 -22 32 -44 62 -50 65 -19 12 -10 41 18 57 33 19 64 99 55 141 -7
36 3 34 23 -5 25 -48 42 -57 108 -58 75 0 123 26 159 87 30 49 28 83 -4 83
-30 0 -33 -2 -45 -36 -16 -47 -40 -66 -90 -72 -45 -5 -63 11 -27 25 24 9 72
65 73 85 0 9 5 20 10 23 17 11 11 71 -9 89 -20 19 -86 30 -111 19z m40 -88 c0
-28 -44 -80 -60 -70 -24 15 -4 75 30 88 26 10 30 8 30 -18z m-200 -185 c0 -18
-11 -42 -28 -61 l-28 -31 -33 30 c-22 19 -32 36 -28 46 7 18 61 44 95 45 18 1
22 -4 22 -29z"/>
<path d="M9590 6214 c-14 -37 -14 -38 27 -51 27 -8 41 -8 51 -1 7 6 10 13 7
16 -3 3 0 11 6 19 17 20 -8 43 -47 43 -28 0 -36 -5 -44 -26z"/>
<path d="M15285 6210 c-4 -12 -3 -25 2 -29 121 -85 157 -103 192 -97 43 7 68
34 49 52 -7 6 -39 19 -70 28 -32 10 -68 26 -82 37 -13 11 -38 22 -54 25 -25 5
-31 2 -37 -16z"/>
<path d="M16210 6211 c-8 -5 -26 -7 -41 -4 -32 6 -38 -3 -54 -79 -12 -57 -12
-58 10 -64 26 -6 65 11 65 29 1 23 53 52 90 49 19 -1 51 -3 70 -4 29 -3 36 1
38 18 5 35 -32 58 -101 61 -34 2 -69 -1 -77 -6z"/>
<path d="M18166 6174 c-27 -26 -18 -50 35 -98 53 -48 87 -57 109 -31 14 17 15
16 -59 97 -48 52 -61 57 -85 32z"/>
<path d="M6035 6149 c-35 -8 -126 -48 -220 -97 -53 -28 -123 -86 -129 -108 -3
-11 -28 -40 -56 -63 -27 -23 -50 -48 -50 -56 0 -7 -7 -15 -14 -18 -8 -3 -18
-23 -21 -44 -3 -21 -12 -63 -20 -93 -25 -99 -20 -173 15 -254 22 -48 57 -82
124 -121 47 -27 53 -28 149 -22 55 3 103 9 106 14 3 5 21 15 40 23 71 29 224
208 277 325 25 55 50 90 111 157 46 49 53 62 53 97 0 22 -5 43 -10 46 -6 4 -8
10 -5 15 12 20 -64 118 -134 170 -48 36 -134 48 -216 29z m122 -71 c15 -6 30
-12 33 -13 33 -8 50 -19 50 -30 0 -7 16 -29 36 -49 19 -19 33 -40 29 -46 -9
-15 -131 -13 -147 3 -12 13 -24 16 -65 18 -10 0 -28 5 -40 11 -30 15 -65 -14
-57 -46 3 -12 -2 -47 -10 -79 -8 -32 -13 -63 -11 -70 2 -7 6 -25 9 -40 4 -16
20 -36 39 -47 87 -54 167 10 167 133 l0 38 47 -5 c57 -7 63 -12 35 -32 -39
-27 -91 -104 -113 -167 -11 -32 -17 -37 -34 -31 -24 9 -78 8 -160 -1 -57 -7
-61 -6 -92 23 -51 49 -154 67 -212 37 -22 -11 -30 -24 -38 -64 -9 -46 -8 -52
13 -72 21 -20 24 -20 47 -4 14 9 27 25 30 35 7 26 29 34 75 25 37 -7 37 -7 16
-24 -28 -23 -52 -70 -60 -118 -7 -45 14 -77 58 -87 22 -5 34 1 67 31 32 31 40
47 46 88 10 72 9 72 62 74 71 2 103 -7 96 -27 -9 -26 -36 -53 -60 -63 -13 -5
-23 -16 -23 -25 0 -30 -40 -73 -93 -98 -64 -31 -133 -28 -206 9 -66 33 -99 78
-112 152 -11 61 0 135 21 148 6 3 10 13 10 22 0 8 14 35 30 60 17 24 30 48 30
54 0 5 35 45 78 87 55 56 98 89 152 116 41 21 80 43 87 48 16 13 92 36 120 37
12 1 34 -4 50 -11z m-41 -302 c-6 -24 -31 -40 -47 -30 -17 10 -10 92 8 103 14
7 20 3 31 -20 8 -16 12 -39 8 -53z"/>
<path d="M8568 6142 c-18 -2 -28 -11 -33 -29 -3 -14 -2 -30 3 -35 13 -13 79 1
86 17 8 23 -26 51 -56 47z"/>
<path d="M10293 6073 c-13 -2 -23 -8 -23 -13 0 -4 -12 -11 -27 -15 -16 -3 -35
-12 -43 -19 -8 -7 -46 -25 -85 -41 -38 -15 -83 -36 -100 -46 -16 -9 -56 -25
-87 -34 -32 -9 -60 -21 -63 -26 -4 -5 -17 -9 -30 -9 -13 0 -27 -4 -30 -10 -3
-5 -25 -18 -48 -29 -23 -11 -60 -31 -82 -45 -22 -14 -58 -34 -80 -46 -22 -12
-44 -27 -50 -34 -9 -11 -169 -102 -207 -118 -9 -4 -21 -16 -27 -27 -10 -17
-109 -80 -189 -119 -15 -7 -34 -17 -42 -23 -8 -5 -28 -16 -45 -24 -16 -7 -54
-32 -84 -54 -29 -23 -58 -41 -65 -41 -6 0 -27 -13 -46 -30 -19 -16 -39 -29
-44 -30 -17 0 -76 -51 -76 -65 0 -7 -9 -16 -19 -20 -11 -3 -37 -18 -58 -32
-51 -35 -227 -123 -246 -123 -9 0 -29 -11 -45 -25 -17 -14 -34 -25 -39 -25 -5
0 -16 -9 -26 -20 -9 -11 -48 -40 -86 -64 -38 -25 -70 -49 -72 -55 -7 -20 -66
-1 -80 26 -14 25 -57 53 -83 53 -20 0 -59 -57 -52 -76 6 -16 -11 -101 -24
-119 -4 -5 -10 -39 -14 -75 -4 -36 -14 -93 -22 -127 -9 -37 -12 -72 -8 -85 4
-13 7 -27 6 -32 -4 -12 30 -35 51 -36 17 0 174 79 282 142 51 30 98 50 153 64
18 5 15 30 -10 85 -14 31 -29 49 -40 49 -9 0 -20 5 -23 10 -3 6 -15 10 -26 10
-11 0 -22 7 -25 15 -4 8 -16 15 -28 15 -12 0 -16 3 -10 8 6 4 16 17 23 30 6
12 18 22 25 22 7 0 21 9 31 20 10 11 22 20 27 20 5 0 30 17 56 39 47 38 99 68
202 115 100 46 164 85 222 136 31 27 61 50 66 50 5 0 26 14 47 30 21 17 42 30
48 30 5 0 42 24 81 53 39 30 115 76 168 102 54 27 119 66 145 86 72 57 135
100 158 109 11 4 63 33 114 64 51 31 99 56 106 56 7 0 15 6 18 14 7 16 175
101 222 112 17 4 66 23 110 44 73 35 153 70 293 131 40 17 52 27 52 45 0 31
-30 40 -97 27z"/>
<path d="M15696 6051 c-13 -21 4 -47 44 -70 45 -25 87 -22 114 8 15 17 15 19
1 31 -9 7 -35 17 -58 21 -23 4 -54 11 -68 14 -16 4 -30 2 -33 -4z"/>
<path d="M18403 5885 c-18 -20 -17 -22 27 -66 31 -31 47 -39 75 -39 40 0 55
21 35 45 -18 22 -99 75 -113 75 -7 -1 -18 -7 -24 -15z"/>
<path d="M7659 5875 c-25 -14 -59 -77 -59 -110 0 -20 -13 -19 -52 5 -70 43
-148 16 -169 -57 -11 -40 -13 -42 -29 -28 -22 20 -33 19 -55 -4 -17 -19 -15
-22 56 -91 66 -64 77 -71 104 -65 16 3 36 12 44 20 13 13 11 19 -15 52 -45 57
-47 61 -32 93 12 29 20 31 77 21 2 -1 -2 -8 -9 -16 -29 -35 64 -90 110 -65 14
8 19 17 15 28 -12 30 -10 37 7 34 23 -4 58 15 58 32 0 8 14 13 36 14 59 2 89
22 92 63 2 26 -3 42 -22 62 -21 23 -33 27 -78 27 -29 -1 -65 -7 -79 -15z m106
-65 c0 -9 -14 -17 -40 -21 -50 -9 -57 -3 -26 22 27 22 66 22 66 -1z"/>
<path d="M16041 5872 c-17 -32 -14 -37 35 -51 28 -8 71 -35 109 -68 53 -45 69
-54 96 -51 55 5 50 19 -38 99 -83 76 -181 110 -202 71z"/>
<path d="M8543 5755 c-15 -25 -31 -45 -35 -45 -5 0 -8 -7 -8 -15 0 -8 -4 -15
-8 -15 -29 0 -42 -109 -17 -130 8 -7 15 -18 15 -25 0 -27 65 -33 108 -11 29
15 42 35 63 99 14 41 18 42 66 25 24 -9 36 -9 44 -1 21 21 -1 48 -62 78 -35
17 -65 39 -69 51 -8 21 -29 34 -55 34 -7 0 -26 -20 -42 -45z m47 -124 c0 -49
-25 -75 -39 -40 -5 13 -7 27 -5 30 2 3 8 18 14 33 14 37 30 24 30 -23z"/>
<path d="M9850 5750 c-28 -7 -42 -44 -27 -75 18 -36 22 -42 70 -111 26 -38 57
-83 70 -101 25 -37 51 -42 67 -13 8 16 0 35 -46 112 -32 51 -69 116 -83 144
-23 44 -29 50 -51 44z"/>
<path d="M8336 5654 c-9 -22 -7 -69 3 -96 32 -88 19 -99 -44 -38 -28 27 -52
41 -80 45 -38 6 -40 5 -41 -19 -2 -21 12 -37 71 -85 121 -97 191 -92 196 12 2
26 -3 52 -11 62 -7 8 -10 18 -7 22 4 3 2 12 -4 19 -7 8 -7 19 -1 30 15 27 3
51 -30 58 -43 8 -45 8 -52 -10z"/>
<path d="M18625 5649 c-11 -17 4 -62 34 -99 15 -19 33 -45 40 -57 15 -29 32
-29 60 1 l22 24 -37 48 c-20 27 -41 59 -47 72 -11 23 -60 32 -72 11z"/>
<path d="M16476 5598 c-15 -21 -14 -24 29 -65 37 -36 51 -43 85 -43 52 0 54
26 4 58 -19 12 -39 34 -44 47 -12 32 -53 34 -74 3z"/>
<path d="M7912 5588 c-28 -28 -10 -59 98 -164 38 -37 42 -44 24 -44 -37 0 -82
-21 -97 -44 -24 -36 -29 -123 -10 -154 24 -39 43 -52 75 -52 67 0 158 72 207
163 36 67 31 87 -23 87 -28 0 -46 14 -136 110 -57 61 -109 110 -115 110 -6 0
-16 -5 -23 -12z m189 -288 c18 -10 18 -12 3 -35 -24 -36 -83 -70 -97 -56 -12
12 -13 72 -2 90 8 14 70 14 96 1z"/>
<path d="M16702 5437 c-8 -10 2 -30 41 -84 62 -85 77 -96 112 -83 33 13 32 30
-7 72 -18 19 -47 51 -65 71 -32 38 -62 47 -81 24z"/>
<path d="M9673 5411 c-27 -12 -31 -26 -38 -128 -4 -62 -2 -84 8 -90 8 -4 24
-22 36 -40 41 -55 131 -62 188 -14 56 47 95 141 59 141 -15 0 -86 -68 -86 -82
0 -13 -68 -20 -89 -9 -25 14 -27 34 -4 52 9 8 34 38 55 67 40 54 44 84 12 96
-30 12 -119 16 -141 7z"/>
<path d="M18819 5357 c-12 -26 -3 -46 51 -119 40 -55 72 -69 100 -43 18 17 17
19 -29 78 -27 34 -53 72 -60 85 -15 29 -49 28 -62 -1z"/>
<path d="M10068 5318 c-28 -10 -30 -13 -32 -53 -2 -48 62 -66 105 -28 15 13
15 17 2 44 -19 38 -41 49 -75 37z"/>
<path d="M9420 5248 c-62 -40 -100 -80 -100 -105 0 -27 -1 -27 -44 -9 -45 19
-114 11 -144 -17 -50 -46 -58 -81 -36 -158 4 -14 -4 -12 -43 7 -27 13 -59 24
-73 24 -14 0 -31 4 -39 9 -17 11 -66 -2 -87 -23 -8 -9 -21 -16 -29 -16 -24 0
-25 -42 -3 -79 39 -64 102 -131 124 -131 22 0 44 18 44 36 0 7 -16 31 -35 54
-20 24 -35 53 -35 67 0 25 2 26 48 19 32 -4 54 -14 69 -31 31 -35 65 -41 87
-16 21 23 51 27 62 10 19 -31 135 26 154 77 5 13 14 24 20 24 13 0 13 46 0 71
-23 43 9 14 73 -65 63 -78 124 -176 110 -176 -3 0 0 -7 7 -15 16 -19 79 -20
86 -1 8 20 -15 59 -101 171 -21 27 -19 37 14 69 47 45 65 95 51 144 -13 50
-43 73 -103 79 -32 3 -50 -2 -77 -19z m108 -74 c2 -24 -4 -38 -29 -62 l-32
-31 -18 24 c-30 37 -24 69 14 88 45 22 61 18 65 -19z m-266 -111 c25 -22 23
-46 -8 -82 l-26 -31 -29 21 c-35 25 -37 52 -4 84 28 29 42 31 67 8z"/>
<path d="M16943 5220 c-28 -11 -29 -31 -4 -54 11 -10 22 -28 25 -41 7 -27 47
-40 76 -25 11 6 20 13 20 15 0 3 -16 25 -35 51 -19 25 -35 50 -35 55 0 11 -18
11 -47 -1z"/>
<path d="M19018 5026 c-9 -21 -6 -32 15 -68 43 -73 52 -81 75 -74 35 11 35 40
1 105 -26 49 -37 61 -56 61 -15 0 -27 -9 -35 -24z"/>
<path d="M17139 4979 c-8 -15 -8 -24 0 -32 6 -6 11 -19 11 -29 0 -27 50 -78
76 -78 33 0 37 14 14 57 -11 21 -20 43 -20 50 0 18 -37 53 -55 53 -8 0 -19 -9
-26 -21z"/>
<path d="M1197 4965 c-15 -14 -37 -25 -48 -25 -24 0 -118 -28 -139 -41 -8 -5
-35 -19 -60 -32 -25 -12 -50 -26 -56 -32 -6 -5 -24 -22 -40 -36 -16 -14 -43
-41 -61 -61 -17 -20 -45 -44 -62 -52 -18 -10 -28 -22 -25 -30 3 -7 -5 -41 -16
-75 -19 -54 -25 -87 -29 -163 -1 -10 -18 -33 -40 -53 -22 -20 -41 -49 -45 -66
-3 -17 -24 -52 -47 -77 -45 -51 -79 -111 -79 -139 0 -10 -11 -31 -25 -47 -14
-16 -25 -39 -25 -51 0 -12 -7 -35 -15 -52 -8 -17 -17 -43 -20 -59 -3 -16 -14
-69 -24 -117 -11 -49 -17 -95 -14 -103 3 -8 0 -21 -7 -29 -6 -8 -9 -23 -5 -34
3 -11 -5 -55 -19 -98 -30 -95 -32 -109 -17 -149 19 -50 74 -58 117 -19 16 14
37 25 48 24 68 -5 94 1 100 24 7 29 46 50 121 67 33 7 67 19 75 25 16 13 129
40 136 33 2 -3 6 -24 8 -47 2 -23 9 -48 15 -55 7 -8 19 -45 29 -82 17 -67 18
-70 65 -92 l47 -22 51 21 c38 17 55 31 70 61 l20 39 110 -5 c60 -3 125 -10
144 -17 30 -11 35 -17 35 -46 0 -40 15 -49 103 -58 77 -8 141 12 153 47 8 27
-5 89 -23 110 -11 13 -13 31 -7 87 3 39 11 74 17 78 5 3 39 6 76 5 81 0 252
-55 318 -102 24 -17 60 -34 81 -37 21 -3 50 -18 68 -34 48 -46 85 -52 126 -23
l35 25 -13 72 c-15 89 -17 93 -67 197 -22 47 -48 103 -57 125 -35 81 -55 121
-87 176 -18 31 -33 64 -33 73 0 9 -4 16 -10 16 -5 0 -19 19 -31 43 -12 23 -35
58 -50 78 -16 20 -29 42 -29 49 0 6 -18 30 -40 52 -32 31 -39 43 -30 53 9 10
7 36 -6 102 -34 180 -139 358 -257 438 -21 14 -46 25 -56 25 -10 0 -62 16
-117 35 -54 19 -115 35 -135 35 -24 0 -45 8 -63 25 -57 52 -96 58 -139 20z
m167 -189 c-3 -14 -10 -26 -16 -26 -7 0 -7 31 1 70 1 2 6 -1 12 -7 5 -5 7 -22
3 -37z m-11 -104 c-6 -25 -16 -28 -31 -9 -9 10 -7 19 5 36 13 19 17 21 24 9 4
-8 5 -24 2 -36z m-3 -56 c0 -2 -3 -11 -6 -20 -9 -24 -33 -20 -27 4 4 16 33 30
33 16z m207 -106 c12 0 29 -7 38 -17 9 -9 42 -28 73 -43 66 -32 97 -62 88 -86
-8 -21 29 -64 55 -64 10 0 20 -9 24 -20 3 -11 33 -46 66 -79 32 -33 59 -62 59
-66 0 -4 15 -25 34 -48 18 -23 45 -62 58 -87 14 -25 35 -62 48 -83 12 -21 21
-40 18 -42 -8 -9 -107 113 -128 158 -24 51 -85 124 -205 244 -91 91 -118 103
-272 124 -97 13 -146 3 -183 -36 -20 -22 -24 -22 -88 -10 -38 7 -76 9 -88 5
-12 -5 -39 -4 -60 1 -74 17 -165 10 -218 -16 -27 -13 -54 -21 -60 -19 -7 3
-23 -7 -36 -21 -13 -14 -29 -25 -35 -25 -6 0 -37 -22 -70 -50 -32 -27 -61 -48
-63 -45 -10 10 115 149 145 161 17 8 34 18 37 23 4 5 21 13 39 17 17 3 45 17
60 30 17 14 42 24 60 24 18 0 41 7 51 15 22 17 87 20 114 6 148 -79 160 -80
202 -22 15 22 36 34 78 46 31 8 66 20 77 25 11 5 29 7 40 5 11 -3 30 -5 42 -5z
m-270 -367 c6 -65 8 -122 5 -126 -12 -22 -28 22 -39 106 -12 97 -9 137 11 137
8 0 16 -38 23 -117z m-687 -11 c0 -13 -38 -113 -48 -125 -5 -7 -13 -30 -17
-52 -9 -50 -69 -230 -89 -270 -9 -17 -16 -41 -17 -55 0 -14 -5 -34 -10 -45 -6
-14 -8 7 -4 65 5 92 6 102 26 170 6 25 13 52 14 60 2 8 21 57 44 109 22 52 41
100 41 107 0 7 10 20 22 28 24 17 38 20 38 8z m109 -64 c23 -66 133 -140 257
-172 52 -14 57 -13 130 15 42 16 78 28 80 26 2 -1 1 -12 -2 -23 -6 -21 -27
-30 -159 -68 -33 -9 -79 -26 -102 -38 -42 -22 -42 -22 -64 -3 -24 22 -89 120
-89 135 0 5 -22 28 -50 52 -52 45 -57 56 -40 89 15 27 26 24 39 -13z m1164
-10 c8 -11 2 -27 -23 -61 -18 -26 -41 -49 -51 -52 -11 -4 -23 -23 -30 -48 -14
-53 -37 -97 -50 -97 -5 0 -38 13 -72 29 -34 16 -95 39 -134 52 -72 23 -102 47
-42 34 17 -4 70 -7 118 -7 69 0 96 4 135 23 68 31 116 82 116 120 0 32 16 36
33 7z m-535 -130 c5 -7 12 -28 15 -46 5 -31 4 -33 -16 -27 -12 4 -32 9 -44 12
-25 6 -29 23 -13 54 12 22 42 25 58 7z m-54 -245 c3 -16 8 -82 11 -148 5 -104
4 -118 -8 -105 -17 18 -33 141 -29 223 3 60 17 76 26 30z m952 -38 c29 -70 8
-91 -26 -25 -24 47 -25 60 -4 60 8 0 22 -16 30 -35z m-849 -116 c2 -24 -1 -38
-7 -34 -6 3 -10 25 -10 47 0 52 13 41 17 -13z m933 -73 c0 -8 -11 -11 -30 -8
-34 5 -37 13 -14 48 l17 24 13 -26 c8 -14 14 -32 14 -38z m-1129 -38 c-3 -4
-12 -4 -18 0 -10 6 -10 17 -1 47 l12 40 7 -40 c4 -22 4 -43 0 -47z m-127 -52
c20 -19 36 -39 36 -45 0 -20 -37 -31 -69 -20 -24 8 -32 18 -37 46 -5 25 -3 38
7 44 21 13 23 12 63 -25z m577 -46 c41 -23 3 -68 -47 -56 -28 7 -31 28 -8 50
18 19 28 20 55 6z"/>
<path d="M19157 4753 c-14 -14 -6 -65 15 -93 24 -33 67 -40 88 -15 11 13 9 20
-9 38 -11 13 -21 30 -21 38 0 30 -52 53 -73 32z"/>
<path d="M17310 4720 c-12 -8 -12 -14 3 -45 9 -20 17 -44 17 -53 0 -10 13 -25
29 -35 25 -15 30 -15 41 -2 10 12 10 25 0 63 -20 73 -50 97 -90 72z"/>
<path d="M2655 4701 c-21 -8 -21 -5 -7 -182 l7 -85 -74 -2 c-71 -1 -77 -3
-130 -45 -72 -55 -79 -89 -28 -134 47 -41 157 -61 212 -39 21 9 48 16 60 16
34 0 44 20 42 82 -3 76 14 94 48 53 13 -17 24 -38 25 -47 0 -9 4 -19 9 -23 5
-3 12 -19 16 -35 5 -24 13 -31 42 -36 46 -9 67 12 99 102 14 38 36 80 49 94
37 38 25 70 -27 70 -38 0 -39 -1 -68 -65 -32 -71 -47 -81 -56 -36 -9 43 -39
66 -81 62 -6 0 -20 -15 -31 -32 l-20 -32 -6 39 c-3 22 -11 90 -16 153 -6 63
-13 118 -16 122 -6 11 -22 10 -49 0z m-27 -367 c31 -9 28 -17 -11 -29 -36 -12
-127 -8 -127 6 0 19 94 34 138 23z"/>
<path d="M3527 4672 c-13 -14 -15 -32 -12 -77 5 -77 12 -122 25 -164 11 -38 6
-51 -18 -51 -9 0 -40 -10 -68 -21 -82 -34 -97 -94 -41 -156 29 -31 41 -37 89
-41 46 -4 61 0 96 22 46 29 63 63 39 81 -13 9 -13 13 -1 30 16 22 19 61 4 70
-21 13 -46 166 -50 308 0 23 -42 23 -63 -1z m48 -392 c6 -10 -24 -35 -32 -27
-3 4 -11 3 -17 -2 -15 -12 -56 5 -56 23 0 22 92 27 105 6z"/>
<path d="M17395 4427 c-11 -17 -14 -34 -9 -53 5 -16 8 -44 8 -63 1 -39 22 -57
58 -48 23 6 25 11 23 54 -4 65 -15 123 -25 123 -5 0 -15 3 -23 6 -10 3 -22 -4
-32 -19z"/>
<path d="M19281 4421 c-17 -30 -13 -52 17 -111 26 -51 30 -55 61 -53 51 2 58
32 19 77 -5 6 -19 31 -31 56 -24 50 -50 62 -66 31z"/>
<path d="M3155 4417 c-50 -20 -115 -61 -115 -74 0 -6 -5 -13 -11 -15 -5 -2
-12 -21 -15 -43 -6 -49 20 -96 67 -120 42 -22 75 -12 121 36 l38 40 10 -26 c6
-15 10 -30 10 -35 0 -5 16 -14 36 -20 34 -12 38 -11 55 11 24 31 23 36 -1 49
-11 6 -20 16 -20 21 0 6 -11 24 -24 39 -14 17 -26 48 -30 79 -9 69 -47 87
-121 58z m11 -123 c-3 -9 -6 -20 -6 -24 0 -16 -41 -33 -52 -22 -14 14 -1 50
20 55 35 9 44 7 38 -9z"/>
<path d="M9010 4414 c-8 -8 -17 -34 -21 -57 -11 -57 -36 -146 -53 -182 -7 -16
-19 -54 -26 -83 -7 -31 -20 -58 -32 -66 -12 -8 -17 -19 -13 -26 4 -7 -2 -25
-14 -41 -11 -15 -21 -33 -21 -38 0 -16 50 -45 59 -35 17 18 61 105 61 120 0
23 39 32 110 25 64 -6 65 -7 77 -42 6 -20 13 -58 15 -84 4 -43 8 -50 32 -58
21 -7 32 -6 44 6 13 14 14 20 3 44 -7 15 -15 39 -17 53 -3 14 -8 36 -13 50 -5
14 -19 59 -31 100 -73 252 -97 313 -125 324 -22 8 -21 8 -35 -10z m55 -196
c10 -35 22 -67 27 -72 4 -6 8 -16 8 -24 0 -11 -11 -13 -50 -10 -28 3 -53 8
-56 11 -3 3 1 25 9 49 9 24 18 60 22 81 3 21 10 35 14 33 4 -3 16 -33 26 -68z"/>
<path d="M13941 4364 c-8 -19 -9 -42 -2 -83 6 -31 15 -87 20 -126 6 -38 14
-80 17 -91 5 -19 1 -23 -38 -29 -58 -9 -88 -30 -88 -60 0 -35 -20 -23 -53 31
-22 37 -25 49 -16 60 9 11 9 20 -1 39 -21 40 -57 32 -140 -30 -79 -60 -110
-94 -110 -119 0 -9 -4 -16 -9 -16 -17 0 7 -60 31 -80 13 -11 34 -23 47 -26 35
-10 108 29 132 71 l21 35 39 -35 c40 -36 54 -42 64 -26 3 5 20 -4 37 -20 49
-44 96 -41 153 12 73 68 50 109 -31 54 -44 -30 -55 -31 -85 -6 -21 17 -22 21
-9 36 12 14 26 16 77 12 61 -5 63 -4 70 21 3 14 0 34 -7 45 -19 32 -50 173
-50 232 0 56 -25 125 -45 125 -7 0 -17 -12 -24 -26z m-260 -390 c-7 -41 -49
-81 -75 -71 -25 10 -19 29 20 70 47 48 63 48 55 1z"/>
<path d="M3775 4358 c-32 -19 -86 -91 -85 -115 0 -5 -3 -16 -6 -26 -9 -27 22
-83 63 -114 32 -25 45 -28 106 -27 63 1 72 3 94 28 12 15 23 33 23 40 0 22
-48 28 -102 15 -43 -11 -50 -11 -65 4 -16 16 -16 17 8 17 14 0 49 9 79 19 41
15 57 26 71 52 16 32 16 35 1 53 -25 27 -107 66 -139 66 -15 0 -37 -6 -48 -12z"/>
<path d="M10800 4349 c-37 -15 -85 -65 -142 -147 -39 -58 -52 -87 -60 -137
-13 -79 -2 -111 55 -160 44 -38 84 -53 132 -50 17 2 42 3 56 4 14 0 43 13 65
27 36 25 39 25 65 10 25 -15 27 -15 35 2 4 9 6 22 5 27 -2 6 -3 42 -4 82 -1
79 11 103 50 103 28 0 63 16 63 30 0 24 -34 40 -85 40 -51 0 -56 -2 -72 -32
-10 -20 -18 -65 -21 -115 -4 -78 -5 -81 -31 -86 -14 -3 -45 -10 -68 -16 -60
-15 -131 0 -161 35 -20 22 -23 36 -19 70 10 90 91 205 172 244 52 25 59 33 50
60 -7 22 -42 26 -85 9z"/>
<path d="M10388 4333 c-22 -5 -21 -4 -3 -73 8 -30 15 -66 15 -79 0 -23 -1 -23
-25 -7 -15 10 -34 14 -45 11 -31 -10 -24 -44 12 -63 65 -35 71 -47 66 -128 -5
-81 3 -98 44 -92 22 3 23 8 26 83 3 100 5 105 40 105 15 0 37 6 47 14 16 11
17 18 9 37 -9 20 -18 24 -55 24 l-43 0 -11 55 c-13 61 -35 112 -50 116 -5 1
-18 0 -27 -3z"/>
<path d="M13066 4327 c-16 -12 -18 -23 -12 -88 3 -41 9 -88 12 -105 5 -29 3
-33 -29 -43 -75 -25 -127 -95 -127 -171 0 -41 15 -64 62 -93 33 -21 106 -31
123 -17 7 6 38 14 68 17 54 5 55 7 62 41 5 29 3 39 -13 51 -11 9 -23 30 -26
46 -4 17 -16 48 -27 70 -24 50 -50 221 -38 252 17 46 -15 69 -55 40z m20 -324
c4 -10 15 -36 25 -58 17 -36 17 -40 2 -57 -20 -22 -52 -23 -98 -4 -30 13 -35
20 -35 49 0 36 18 59 60 76 35 14 40 13 46 -6z"/>
<path d="M4159 4320 c-26 -8 -91 -49 -97 -61 -2 -4 -11 -5 -20 -2 -10 2 -26
-5 -36 -16 -17 -19 -17 -22 1 -83 17 -57 22 -64 57 -77 46 -17 56 -8 56 54 0
22 6 51 13 65 16 31 70 51 121 45 28 -4 44 -1 57 11 27 24 25 60 -3 68 -31 8
-117 6 -149 -4z"/>
<path d="M12295 4310 c-15 -16 -17 -30 -11 -77 11 -91 13 -106 24 -145 12 -46
5 -53 -61 -63 -59 -9 -83 -32 -92 -91 -17 -117 115 -178 217 -101 29 22 44 42
46 60 4 35 -22 36 -58 2 -30 -28 -99 -37 -125 -15 -36 30 1 90 55 90 19 0 34
-7 42 -20 19 -31 66 -27 79 6 7 21 6 31 -6 44 -8 9 -15 24 -15 33 0 9 -4 18
-9 21 -8 5 -16 46 -22 106 -1 8 -5 20 -9 25 -9 11 -8 65 2 80 3 6 4 22 1 38
-6 32 -32 36 -58 7z"/>
<path d="M5137 4292 c-23 -24 -27 -34 -19 -48 10 -18 38 -307 47 -489 3 -44 9
-114 15 -155 18 -124 23 -224 24 -465 1 -126 7 -311 13 -410 7 -99 12 -282 11
-407 0 -209 -2 -229 -19 -244 -23 -21 -25 -54 -4 -54 9 0 26 -6 38 -14 26 -17
70 -19 305 -12 122 4 180 2 195 -6 43 -23 177 -26 547 -15 111 3 230 12 275
21 99 19 218 25 307 16 39 -5 114 -2 180 5 62 7 187 11 278 10 360 -6 608 -5
660 4 54 9 255 7 425 -3 50 -3 144 -17 210 -31 108 -22 121 -23 136 -9 18 16
18 17 -12 89 -18 44 -29 105 -28 157 1 31 -1 60 -5 66 -3 5 -9 65 -13 133 -8
141 -8 123 1 294 4 72 7 137 7 145 -1 8 -1 51 -1 95 0 44 -5 115 -11 158 -7
43 -9 81 -5 84 8 8 54 -35 62 -59 3 -10 13 -18 22 -18 10 0 31 -15 48 -33 35
-36 130 -87 160 -85 10 1 36 -2 57 -6 30 -6 43 -3 68 15 24 17 48 22 117 25
113 4 143 10 207 40 107 51 130 101 129 282 -2 118 -3 125 -33 182 l-32 60 44
0 c24 0 88 -7 143 -15 71 -11 138 -13 239 -9 77 4 147 6 155 6 119 -3 428 -1
470 4 157 15 244 19 445 19 278 0 575 -11 955 -35 69 -4 193 -10 275 -13 114
-4 158 -9 183 -22 33 -17 154 -20 591 -16 67 1 160 -3 205 -9 91 -11 352 -20
360 -12 5 4 220 16 256 13 74 -4 364 -5 382 0 13 3 43 -1 67 -9 34 -11 54 -13
82 -5 26 7 49 6 79 -3 24 -7 48 -10 53 -7 5 3 77 4 160 2 84 -1 231 -2 327 -1
126 1 177 -2 182 -11 11 -16 10 -131 -1 -159 -30 -80 -33 -100 -18 -115 24
-25 57 -9 130 62 37 36 74 65 82 65 9 0 18 7 22 15 3 9 23 25 44 36 22 11 39
27 39 37 1 16 1 16 14 0 17 -22 65 -24 73 -2 3 8 -4 29 -16 45 -12 16 -24 42
-27 59 -6 30 -20 40 -91 74 -42 21 -119 91 -155 144 -16 23 -33 42 -39 42 -6
0 -25 -12 -43 -27 -29 -22 -33 -30 -26 -52 5 -14 11 -48 13 -74 l4 -48 -84 2
c-55 2 -87 7 -95 16 -8 10 -14 11 -25 1 -22 -18 -512 -19 -662 -2 -64 8 -123
13 -131 12 -8 0 -105 -2 -215 -3 -110 -1 -240 -5 -290 -10 -49 -4 -103 -8
-120 -7 -109 2 -277 11 -317 17 -45 7 -181 10 -333 7 -38 -1 -81 -1 -95 0 -14
1 -94 -2 -177 -6 -108 -6 -153 -5 -153 2 0 24 -46 33 -197 37 -87 3 -210 10
-273 14 -63 5 -128 9 -145 8 -16 0 -75 3 -130 6 -55 4 -154 7 -220 8 -66 0
-165 4 -220 10 -104 10 -317 12 -395 4 -261 -26 -1097 -37 -1245 -16 -44 6
-111 10 -150 9 -38 -1 -119 2 -180 8 -198 17 -485 3 -518 -25 -24 -19 -21 -46
6 -65 20 -14 21 -16 4 -26 -9 -6 -24 -25 -32 -43 -32 -68 -74 -131 -76 -111
-2 29 -7 174 -10 269 -4 163 -31 434 -48 470 -5 11 -16 40 -25 65 -17 47 -48
76 -69 63 -7 -4 -93 -8 -192 -8 -184 0 -431 -17 -520 -35 -27 -6 -102 -15
-165 -20 -202 -17 -224 -19 -285 -35 -75 -18 -304 -39 -410 -38 -44 1 -143 8
-220 16 -77 8 -147 15 -155 15 -8 0 -51 4 -95 11 -144 19 -287 30 -465 36
-190 5 -336 13 -388 20 -18 2 -90 9 -160 15 -70 6 -147 15 -172 20 -25 5 -68
12 -95 15 -46 6 -52 4 -78 -23z m163 -73 c30 -5 116 -14 190 -19 74 -5 182
-15 240 -22 58 -7 177 -13 265 -13 147 -2 197 -6 400 -35 129 -18 349 -40 491
-49 156 -10 312 2 474 37 109 24 160 30 337 42 70 5 164 16 208 24 44 7 87 14
95 14 8 -1 56 3 105 8 99 10 387 7 395 -4 3 -4 14 -12 25 -18 70 -38 96 -418
99 -1434 0 -212 4 -390 9 -397 4 -6 9 -60 12 -120 3 -59 7 -119 10 -133 l6
-26 -118 13 c-357 37 -349 37 -511 24 -237 -17 -393 -20 -537 -9 -95 8 -182 7
-325 -2 -107 -7 -261 -12 -341 -11 -80 1 -183 -3 -230 -8 -120 -15 -365 -25
-574 -24 -139 0 -195 4 -245 18 -68 18 -305 24 -417 9 -41 -5 -53 -3 -54 7 -1
8 -3 133 -4 279 -1 146 -8 330 -15 410 -11 133 -13 292 -6 445 2 33 -1 85 -6
115 -5 30 -11 102 -14 160 -8 137 -9 154 -17 167 -4 6 -9 55 -12 110 -3 54
-10 149 -16 212 -6 62 -9 135 -6 162 3 27 2 51 -4 54 -5 4 -9 13 -9 22 0 11 6
14 23 9 12 -4 47 -11 77 -17z m3901 -613 c69 -8 132 -14 140 -14 43 3 63 -6
98 -42 30 -31 41 -52 49 -97 9 -49 17 -160 13 -186 0 -4 -25 20 -55 53 -38 42
-56 71 -58 93 -4 42 -25 45 -100 15 -67 -26 -131 -76 -153 -118 -42 -82 83
-169 158 -110 14 11 35 36 47 56 l22 35 42 -44 c22 -24 47 -46 55 -48 25 -9
-36 -39 -122 -60 -81 -21 -133 -21 -240 -3 -30 5 -41 3 -52 -12 -10 -15 -11
-22 -2 -33 10 -12 8 -13 -13 -7 -14 4 -37 10 -53 13 -15 3 -41 18 -58 34 -17
16 -54 47 -82 69 -74 60 -98 96 -91 140 3 19 18 54 34 76 15 23 31 51 35 63 8
26 17 26 40 1 16 -17 26 -19 68 -14 37 5 48 4 43 -5 -4 -6 -17 -11 -29 -11
-34 0 -52 -17 -53 -47 -1 -38 13 -53 50 -53 17 0 37 -4 45 -9 26 -17 1 -29
-58 -28 -45 1 -64 -3 -80 -17 -28 -25 -26 -42 5 -63 54 -35 240 20 264 78 15
35 -10 78 -52 86 -15 3 -28 7 -28 9 0 2 13 24 29 48 30 49 32 90 2 105 -9 5
-38 5 -66 0 -67 -11 -75 -11 -75 0 0 11 103 52 150 60 3 0 62 -6 131 -13z m89
-288 c0 -18 -31 -48 -51 -48 -35 0 -32 24 6 47 26 15 45 16 45 1z"/>
<path d="M5940 3953 c-36 -13 -41 -25 -22 -47 27 -29 35 -96 22 -185 -16 -114
-44 -195 -75 -221 -12 -10 -21 -10 -45 0 -58 24 -72 78 -71 279 0 121 -7 151
-36 151 -20 0 -65 -58 -59 -77 3 -10 8 -74 11 -143 9 -191 10 -194 89 -277 34
-36 46 -43 78 -43 53 0 121 62 141 128 42 135 59 412 27 432 -16 11 -37 11
-60 3z"/>
<path d="M6227 3744 c-32 -6 -71 -17 -88 -24 -32 -14 -79 -64 -79 -84 0 -21
42 -60 97 -91 42 -24 73 -58 73 -80 0 -2 -16 -13 -35 -25 -31 -19 -40 -20 -65
-10 -57 24 -97 -17 -66 -65 23 -34 71 -33 151 4 65 30 88 54 99 104 6 25 1 34
-36 68 -24 21 -48 39 -54 39 -6 0 -21 12 -35 26 -24 25 -24 26 -5 40 11 8 43
14 70 14 64 0 79 9 71 43 -12 46 -32 55 -98 41z"/>
<path d="M6510 3733 c-32 -12 -100 -75 -114 -106 -8 -18 -18 -56 -21 -85 -6
-46 -4 -58 17 -87 53 -79 191 -103 282 -48 34 20 46 33 44 48 -3 23 -10 23
-109 4 -54 -10 -72 -10 -98 0 -41 18 -39 28 8 41 22 6 41 14 43 18 2 4 25 18
53 32 27 14 51 32 53 41 6 32 -49 106 -95 128 -24 11 -45 21 -46 20 -1 0 -9
-3 -17 -6z m52 -106 c8 -13 -47 -53 -86 -63 -33 -8 -33 1 0 50 22 32 30 37 52
31 15 -4 30 -12 34 -18z"/>
<path d="M6921 3723 c-35 -5 -97 -38 -119 -66 -8 -9 -20 -13 -27 -11 -7 3 -20
-5 -29 -18 -13 -19 -14 -34 -6 -78 6 -30 13 -72 17 -93 7 -48 41 -74 72 -57
19 10 21 20 21 98 0 97 13 133 50 144 14 4 44 12 67 18 28 7 44 17 48 31 11
35 -9 42 -94 32z"/>
<path d="M8189 3043 c-14 -3 -16 -17 -12 -96 2 -51 8 -124 13 -162 5 -39 7
-80 4 -92 -3 -11 -1 -23 4 -27 5 -3 7 -16 5 -30 -4 -19 -15 -26 -51 -36 -123
-31 -186 -96 -158 -163 28 -67 116 -109 199 -93 47 9 111 66 125 112 10 34 9
43 -18 95 -26 51 -29 70 -35 185 -3 71 -8 152 -10 179 -3 28 -1 65 4 83 8 27
7 34 -9 42 -19 10 -33 11 -61 3z m19 -558 c2 -11 11 -25 19 -32 14 -11 13 -14
-11 -23 -36 -13 -69 -13 -103 2 -41 18 -45 30 -20 56 17 19 30 22 67 20 36 -2
46 -7 48 -23z"/>
<path d="M5769 2868 c-30 -15 -81 -54 -112 -86 -54 -54 -59 -63 -64 -115 -5
-50 -3 -62 21 -97 14 -22 26 -42 26 -45 0 -12 38 -41 70 -54 126 -49 301 -34
317 27 l6 25 16 -33 c9 -18 24 -34 34 -36 10 -1 25 -11 32 -21 17 -22 108 -22
152 1 42 22 92 78 98 111 9 41 -46 104 -115 134 -44 19 -56 20 -92 11 -23 -7
-52 -18 -64 -27 -34 -22 -64 -75 -64 -113 0 -26 -3 -30 -13 -21 -9 7 -31 8
-71 1 -61 -10 -151 2 -196 25 -37 19 -67 56 -73 91 -5 25 1 38 35 78 41 47
108 86 150 86 11 0 36 10 55 21 32 20 33 23 20 43 -22 32 -98 30 -168 -6z
m487 -273 c15 -9 24 -25 24 -40 0 -25 -20 -41 -75 -60 -27 -9 -33 -7 -62 22
-37 37 -41 53 -15 76 31 28 87 29 128 2z"/>
<path d="M7483 2752 c-66 -36 -159 -105 -194 -144 l-37 -41 -19 44 c-22 49
-84 109 -112 109 -10 0 -30 -9 -44 -20 -32 -25 -36 -25 -67 5 l-26 25 -55 -17
c-68 -20 -94 -50 -78 -89 11 -30 5 -74 -11 -74 -5 0 -12 11 -16 25 -3 13 -15
27 -25 30 -10 4 -19 10 -19 15 0 5 -12 21 -27 35 -33 30 -90 34 -129 9 -23
-15 -26 -15 -43 0 -10 9 -34 19 -53 22 -29 5 -41 1 -72 -26 -53 -47 -70 -84
-57 -122 6 -17 11 -44 11 -59 0 -40 41 -66 76 -50 19 9 23 15 15 28 -5 10 -6
45 -2 78 8 76 30 85 52 23 13 -35 21 -44 43 -46 29 -4 58 13 54 32 -1 6 2 21
6 34 9 27 46 30 68 5 24 -28 47 -83 42 -98 -16 -41 53 -76 75 -37 7 12 22 17
58 17 l48 0 1 71 c1 105 15 118 58 54 34 -51 56 -51 97 1 l33 42 23 -29 c13
-16 26 -50 29 -77 7 -52 37 -83 68 -71 10 4 25 -1 37 -12 49 -44 158 -5 206
73 l22 36 22 -46 c19 -39 29 -48 57 -53 19 -4 38 -2 44 4 6 6 24 8 39 5 45 -9
59 11 59 78 0 32 4 60 9 64 31 19 111 -68 111 -121 0 -34 21 -64 45 -64 8 0
21 12 28 28 30 58 -35 173 -126 226 -36 20 -49 23 -89 17 -70 -11 -81 -25 -76
-91 8 -92 -7 -105 -42 -38 -42 81 -61 138 -51 156 11 20 -3 52 -22 52 -7 0
-26 -8 -44 -18z m-28 -130 c0 -9 -3 -22 -7 -27 -3 -6 -8 -22 -12 -37 -7 -32
-57 -62 -86 -53 -26 8 -25 23 3 57 22 28 85 78 97 78 4 0 6 -8 5 -18z"/>
<path d="M11697 4278 c-2 -7 0 -28 5 -47 6 -19 7 -49 3 -67 -5 -30 -8 -32 -25
-22 -14 9 -22 9 -34 -1 -22 -19 -20 -26 17 -63 25 -25 33 -40 31 -63 -1 -16
-3 -48 -4 -70 -1 -22 -4 -32 -7 -22 -2 9 -10 17 -18 17 -7 0 -25 24 -40 54
-15 30 -36 57 -47 59 -10 3 -24 19 -31 36 -15 40 -46 41 -87 1 -17 -16 -35
-30 -40 -30 -5 0 -23 -25 -40 -55 -17 -30 -36 -52 -42 -49 -6 4 -28 1 -49 -6
-35 -12 -41 -11 -59 5 -11 10 -20 21 -20 25 0 9 47 30 66 30 20 0 53 39 54 62
0 42 -127 76 -173 45 -27 -17 -52 -86 -37 -101 6 -6 10 -17 10 -27 0 -20 54
-90 83 -106 52 -29 123 -7 135 41 8 31 8 31 15 6 9 -33 65 -70 106 -70 24 0
41 8 62 31 16 17 29 37 29 45 0 8 4 14 9 14 13 0 43 -49 36 -59 -3 -5 12 -15
32 -22 29 -9 38 -9 41 0 3 8 12 5 28 -10 34 -32 54 -12 54 56 0 92 8 112 46
120 38 7 55 30 44 60 -5 15 -14 19 -41 17 l-35 -3 0 68 c-1 94 -9 113 -44 113
-16 0 -30 -6 -33 -12z m-202 -278 c3 -5 3 -21 -1 -35 -4 -17 -13 -25 -28 -25
-34 0 -37 10 -15 41 21 30 34 36 44 19z"/>
<path d="M9591 4181 c-32 -32 -69 -123 -65 -159 8 -72 50 -114 134 -133 29 -7
38 -5 50 12 16 20 16 20 63 -7 55 -30 84 -27 120 12 l24 26 39 -36 c30 -28 45
-35 64 -31 29 7 91 74 85 93 -5 13 9 94 20 124 4 11 0 18 -15 23 -28 9 -60
-20 -60 -53 0 -38 -22 -102 -35 -102 -16 0 -43 52 -29 57 15 5 4 64 -14 70 -8
4 -23 1 -34 -6 -15 -9 -20 -9 -24 4 -8 20 -67 55 -94 55 -64 0 -128 -81 -115
-146 6 -34 5 -34 -22 -28 -45 10 -71 31 -77 61 -8 35 15 85 49 107 17 11 25
26 25 46 0 28 -3 30 -35 30 -21 0 -43 -8 -54 -19z m257 -133 c17 -17 15 -73
-3 -88 -12 -10 -21 -10 -40 -2 -30 14 -34 56 -8 84 19 21 34 23 51 6z"/>
<path d="M9387 4176 c-65 -24 -91 -61 -104 -148 -6 -47 8 -72 59 -104 54 -34
108 -29 152 16 40 40 27 49 -64 42 l-68 -5 -7 33 c-9 39 19 73 83 101 50 22
58 54 16 69 -14 6 -26 10 -27 10 -1 -1 -19 -7 -40 -14z"/>
<path d="M12465 4135 c-3 -8 -7 -21 -9 -29 -5 -17 34 -56 56 -56 17 0 28 20
28 49 0 38 -65 69 -75 36z"/>
<path d="M13437 4122 c-21 -23 -47 -85 -47 -114 -1 -13 -6 -33 -14 -46 -10
-20 -14 -21 -24 -9 -7 8 -15 36 -18 63 -7 56 -27 79 -55 63 -24 -12 -24 -68
-1 -125 29 -70 44 -85 88 -91 40 -5 41 -5 62 38 11 24 25 74 32 112 7 37 16
70 21 73 5 3 9 16 9 30 0 29 -29 33 -53 6z"/>
<path d="M14640 4130 c-25 -4 -56 -12 -70 -17 -32 -14 -100 -88 -100 -109 0
-10 -6 -14 -15 -10 -18 6 -45 -19 -45 -42 0 -9 9 -37 20 -61 11 -24 20 -49 20
-56 0 -8 10 -17 21 -20 36 -12 54 17 56 91 1 67 19 110 51 121 9 3 25 13 34
20 9 8 35 16 57 17 48 2 89 33 69 52 -19 18 -48 22 -98 14z"/>
<path d="M14260 4113 c-28 -11 -75 -56 -89 -84 -7 -16 -20 -29 -28 -29 -11 0
-13 -6 -8 -22 4 -13 9 -36 12 -53 9 -55 43 -115 76 -135 52 -32 93 -25 149 28
26 24 27 27 12 43 -13 15 -21 16 -37 8 -51 -28 -78 -29 -103 -4 -13 13 -24 32
-24 42 0 15 9 18 49 19 62 2 104 27 120 71 11 29 10 38 -3 58 -28 43 -91 72
-126 58z m70 -89 c0 -11 -44 -24 -81 -24 -25 0 -15 22 18 42 21 12 31 13 45 5
10 -7 18 -17 18 -23z"/>
<path d="M10203 4100 c-32 -13 -47 -48 -48 -112 0 -54 2 -59 29 -72 49 -24 75
3 50 52 -12 23 -8 62 6 62 20 0 41 -40 39 -77 -2 -21 1 -44 5 -51 11 -18 65
-15 73 3 10 28 -18 134 -42 158 -52 50 -67 55 -112 37z"/>
<path d="M11980 4103 c-51 -19 -80 -37 -80 -53 0 -9 -9 -27 -19 -39 -16 -19
-19 -32 -14 -74 10 -92 57 -150 131 -161 47 -7 72 2 115 42 47 44 32 71 -27
47 -19 -8 -53 -15 -75 -15 -33 0 -44 5 -58 26 -21 33 -9 55 38 66 94 23 122
54 94 107 -11 23 -71 64 -87 60 -1 0 -10 -3 -18 -6z"/>
<path d="M17146 4073 c-1 -1 -65 -5 -141 -8 -139 -6 -201 -11 -214 -20 -4 -2
-38 -5 -77 -5 -38 -1 -85 -6 -105 -11 -34 -9 -77 -10 -369 -11 -154 -1 -214 0
-252 5 -45 4 -78 -11 -78 -38 0 -12 3 -24 6 -28 3 -3 8 -50 10 -104 2 -54 6
-116 8 -138 3 -22 7 -96 11 -165 3 -69 10 -173 15 -231 10 -117 6 -318 -10
-479 -6 -58 -13 -244 -15 -415 -2 -170 -8 -345 -14 -387 -7 -55 -7 -86 1 -109
9 -26 8 -33 -6 -41 -18 -10 -21 -45 -6 -68 19 -31 370 -35 520 -6 75 14 111
15 300 5 254 -13 340 -14 725 -7 172 3 304 9 325 16 19 6 92 16 162 22 107 9
131 8 150 -4 35 -21 88 -27 148 -16 30 5 111 11 180 14 69 2 132 7 140 10 8 3
85 7 170 9 85 3 168 10 184 16 21 9 83 10 210 6 100 -4 237 -9 306 -11 154 -5
168 -6 255 -6 39 0 86 -1 105 -4 72 -8 361 -19 525 -19 175 0 220 8 256 45 20
20 8 50 -21 50 -10 0 -21 3 -23 8 -2 4 0 50 4 102 15 160 11 668 -6 955 -2 33
-6 143 -10 245 -6 194 -22 445 -31 469 -2 7 -5 55 -5 106 l0 92 -35 16 c-39
19 -149 23 -159 6 -4 -6 -22 -8 -44 -4 -21 3 -71 8 -112 10 -70 3 -74 4 -71
26 3 20 1 21 -30 15 -18 -3 -38 -14 -45 -23 -11 -14 -30 -15 -160 -10 -81 3
-164 11 -183 17 -20 6 -157 13 -315 15 -154 3 -316 10 -360 15 -44 6 -125 17
-180 25 -55 7 -131 16 -170 20 -38 3 -119 11 -180 16 -60 6 -168 10 -240 10
-109 0 -131 -2 -142 -17 -13 -17 -9 -18 -153 7 -51 9 -185 13 -413 14 -186 0
-340 -1 -341 -2z m809 -107 c152 -26 142 -14 143 -174 1 -76 -5 -204 -12 -287
-10 -106 -13 -259 -10 -525 2 -206 4 -408 4 -449 2 -133 27 -578 34 -590 5 -7
-12 -10 -56 -9 -96 3 -229 -4 -263 -14 -34 -11 -138 -29 -175 -31 -14 0 -81 2
-150 6 -69 3 -201 1 -295 -4 -136 -9 -187 -8 -255 3 -111 18 -426 17 -540 -2
-90 -15 -230 -17 -317 -5 -53 8 -53 8 -53 44 1 20 5 56 10 81 4 26 4 50 0 56
-11 13 -4 633 10 819 10 151 12 321 4 425 -3 36 -7 112 -8 170 -2 58 -8 148
-15 200 -7 53 -11 129 -9 170 l3 75 240 -2 c162 -2 289 3 390 14 172 18 375
29 695 38 124 4 227 9 229 11 10 10 307 -5 396 -20z m441 -176 c1 -169 10
-315 21 -334 4 -5 7 -216 9 -470 3 -408 5 -477 24 -596 11 -74 23 -206 26
-292 l6 -157 -33 -5 c-44 -8 -119 -11 -191 -8 -56 2 -58 3 -58 30 0 15 -5 44
-11 64 -10 39 -16 148 -23 428 -3 91 -7 210 -10 265 -7 107 -8 690 -2 740 9
69 22 356 20 433 l-2 83 112 -3 111 -3 1 -175z m255 154 c47 -3 91 -9 98 -13
9 -6 12 -34 11 -97 -3 -114 -3 -135 6 -214 4 -36 8 -81 10 -100 2 -19 6 -147
8 -285 14 -695 21 -1089 21 -1175 l0 -95 -120 0 -120 0 -6 125 c-4 69 -11 150
-17 180 -18 88 -34 258 -34 345 5 583 3 719 -9 830 -13 124 -22 415 -14 471 6
41 6 42 43 38 20 -2 76 -6 123 -10z m387 -50 c122 -7 123 -7 118 -30 -3 -12
-2 -34 4 -48 18 -48 22 -231 24 -1032 l3 -802 -147 1 -147 1 -7 85 c-3 47 -9
370 -11 716 -3 347 -10 683 -16 747 -5 64 -9 176 -8 248 l3 132 30 -6 c17 -3
86 -9 154 -12z m395 -9 c124 -10 111 12 116 -197 6 -273 5 -668 -3 -983 -4
-154 -3 -328 1 -386 11 -137 0 -328 -18 -340 -7 -4 -68 -7 -134 -6 l-120 2 -3
145 c-5 279 -7 787 -4 970 3 173 -2 445 -13 658 -5 115 3 139 47 145 18 2 39
2 46 1 7 -2 45 -6 85 -9z m493 -41 l51 -5 9 -72 c11 -92 6 -890 -6 -937 -11
-44 -13 -226 -5 -480 5 -152 3 -216 -9 -289 -9 -52 -17 -95 -19 -97 -9 -10
-299 0 -316 10 -6 4 -5 840 2 1086 2 74 7 143 12 153 4 10 5 51 1 90 -4 40 -9
122 -11 182 -1 61 -4 115 -5 120 -1 6 -2 65 -1 133 l1 123 123 -6 c67 -3 145
-8 173 -11z m465 -16 c6 -9 26 -197 35 -328 2 -30 6 -128 8 -217 8 -304 25
-801 30 -863 1 -19 -3 -66 -9 -105 -6 -40 -8 -84 -4 -99 4 -16 4 -38 0 -49 -4
-12 -6 -39 -4 -60 1 -26 -2 -40 -12 -44 -8 -3 -12 -10 -8 -16 4 -7 7 -32 8
-58 l1 -46 -145 3 c-81 1 -172 3 -205 3 -46 1 -57 4 -53 15 21 54 32 303 24
571 -2 83 0 220 4 305 18 366 21 465 21 640 -1 102 -4 220 -7 263 -9 111 -13
108 164 100 80 -3 149 -10 152 -15z"/>
<path d="M17665 3786 c-17 -12 -18 -17 -7 -40 7 -15 12 -58 12 -96 l0 -70 -42
-6 c-88 -14 -99 -77 -15 -89 l42 -7 -10 -75 c-14 -101 -8 -150 18 -165 17 -9
24 -7 39 12 10 12 18 34 18 49 0 47 7 125 14 163 7 32 13 38 42 44 19 3 34 10
34 15 0 5 10 9 23 9 12 0 29 5 37 10 13 8 13 13 -1 37 -14 26 -20 28 -72 27
l-57 -1 0 52 c0 59 -26 145 -44 145 -7 0 -21 -6 -31 -14z"/>
<path d="M16279 3746 c-9 -18 -8 -29 5 -48 9 -14 15 -35 14 -49 0 -13 3 -69 7
-124 5 -55 9 -147 9 -205 l1 -105 100 0 c79 -1 110 3 147 20 27 11 48 23 48
27 0 12 -61 27 -89 22 -16 -3 -54 -1 -85 6 l-56 11 0 87 0 87 63 -1 c70 -2
147 -13 148 -23 4 -37 12 -58 24 -67 8 -6 15 -22 15 -35 0 -34 57 -128 83
-138 29 -11 76 15 89 49 10 29 42 99 66 150 9 19 22 39 29 43 46 29 26 85 -23
66 -33 -12 -60 -44 -75 -89 -17 -52 -58 -130 -68 -130 -5 0 -23 37 -41 83 -37
93 -56 120 -80 112 -12 -4 -19 1 -23 15 -9 34 -47 43 -200 49 -15 1 -18 8 -15
48 l3 46 50 2 c222 10 232 13 202 59 -16 23 -21 24 -156 28 -95 2 -144 7 -153
16 -18 18 -27 15 -39 -12z"/>
<path d="M17019 3548 c-32 -28 -59 -72 -59 -95 0 -10 -7 -31 -15 -47 -17 -33
-19 -62 -5 -71 5 -3 20 -29 31 -56 37 -85 110 -108 208 -67 l52 21 15 -21 c34
-50 80 -10 71 60 -5 36 13 105 36 136 5 6 22 12 38 12 36 0 77 -49 104 -127
19 -52 24 -58 52 -61 33 -3 53 22 33 42 -5 5 -10 18 -10 28 0 27 -43 107 -82
151 -26 30 -42 40 -76 44 -53 7 -122 -20 -122 -49 0 -13 -7 -18 -29 -18 -43 0
-53 -18 -41 -80 5 -29 10 -54 10 -56 0 -8 -80 -24 -121 -24 -46 0 -69 14 -82
52 -4 12 1 19 16 23 76 20 104 33 134 61 18 17 33 38 33 45 0 28 -41 81 -73
93 -65 27 -90 28 -118 4z m89 -71 c17 -20 -2 -38 -48 -44 l-42 -6 16 32 c18
33 54 42 74 18z"/>
<path d="M16291 2776 c-8 -9 -8 -27 0 -67 6 -30 12 -115 14 -189 2 -74 3 -138
4 -142 3 -23 67 -36 202 -42 130 -5 148 -4 153 10 15 38 -51 65 -169 70 -38 1
-82 7 -96 12 -26 10 -26 11 -27 127 -1 124 -6 164 -28 208 -16 29 -35 35 -53
13z"/>
<path d="M17115 2570 c-16 -16 -36 -32 -45 -35 -10 -3 -25 -24 -35 -46 -39
-85 -3 -199 62 -199 38 0 90 40 109 85 l12 30 12 -30 c40 -99 54 -231 29 -261
-7 -9 -18 -26 -24 -37 -16 -32 -74 -67 -111 -67 -37 0 -58 17 -87 69 -21 39
-41 36 -45 -8 -4 -36 39 -113 74 -131 31 -17 104 -15 140 3 59 31 110 95 128
161 15 56 16 70 3 146 -13 77 -39 163 -74 247 -7 17 -13 34 -13 38 0 17 -61
65 -82 65 -14 0 -37 -13 -53 -30z m26 -152 c-7 -21 -18 -38 -26 -38 -34 0 -31
48 7 96 l23 29 3 -25 c2 -13 -1 -41 -7 -62z"/>
<path d="M16752 2542 c-47 -47 -67 -99 -57 -150 9 -47 21 -62 51 -62 16 0 24
-6 24 -18 0 -27 20 -42 58 -42 59 0 104 38 130 109 10 29 10 43 -3 85 -22 75
-56 108 -115 114 -45 4 -50 2 -88 -36z m117 -58 c32 -40 28 -97 -6 -120 -34
-22 -61 -19 -83 9 -31 38 9 136 57 137 6 0 21 -12 32 -26z"/>
<path d="M2394 4019 c-34 -38 -2 -54 136 -68 113 -12 252 -35 335 -55 33 -8
87 -17 120 -21 33 -4 78 -12 100 -17 22 -6 51 -12 65 -14 14 -2 50 -8 80 -14
110 -21 177 -30 265 -35 105 -6 236 -25 250 -36 6 -4 37 -10 70 -14 33 -4 94
-15 135 -25 41 -10 107 -23 145 -29 78 -14 183 -37 232 -52 42 -13 162 -30
233 -33 30 -1 70 -6 88 -10 37 -9 36 3 13 -131 -5 -27 -7 -53 -5 -56 2 -4 -3
-10 -11 -13 -9 -3 -20 -18 -26 -33 -8 -22 -7 -30 7 -40 28 -20 60 -15 132 20
100 50 223 91 288 96 5 1 20 11 33 22 29 27 23 55 -21 101 -36 36 -119 136
-220 263 -71 89 -95 101 -135 63 -20 -18 -23 -29 -18 -53 13 -53 16 -143 6
-150 -6 -3 -45 1 -88 9 -43 9 -112 17 -153 20 -41 2 -118 14 -170 26 -52 11
-106 23 -120 25 -23 5 -93 18 -217 44 -29 6 -60 15 -70 20 -42 23 -175 46
-323 55 -179 11 -358 40 -470 76 -30 10 -85 21 -123 24 -81 7 -257 35 -269 42
-5 3 -70 7 -144 7 -112 2 -138 -1 -150 -14z"/>
<path d="M12538 3969 c-28 -16 -40 -46 -28 -69 12 -23 31 -25 83 -6 33 11 36
14 22 26 -8 7 -15 21 -15 31 0 11 -4 19 -9 19 -5 0 -15 2 -23 5 -7 2 -21 0
-30 -6z"/>
<path d="M3415 3749 c-49 -5 -126 -11 -170 -13 -112 -7 -190 -32 -237 -77 -38
-36 -38 -36 -42 -134 -1 -11 -4 -25 -8 -31 -9 -14 8 -134 21 -147 6 -6 11 -24
11 -40 0 -16 10 -42 23 -57 12 -16 34 -46 48 -67 38 -54 156 -123 211 -123 91
-1 245 7 278 15 63 15 194 82 228 118 89 93 67 221 -73 427 -47 70 -68 91
-104 109 -50 26 -83 29 -186 20z m170 -112 c29 -17 49 -40 77 -92 76 -141 88
-171 88 -218 0 -39 -5 -50 -34 -77 -45 -43 -105 -76 -179 -99 -51 -16 -81 -18
-175 -13 -104 4 -116 7 -152 33 -22 16 -45 29 -51 29 -6 0 -9 6 -7 13 3 6 20
13 39 14 120 9 135 13 152 43 26 43 22 50 -29 50 l-47 0 7 41 c4 28 2 44 -8
54 -20 20 -39 165 -27 198 9 23 16 27 53 28 24 0 61 4 83 8 81 17 167 12 210
-12z m-444 -35 c-15 -50 -72 -132 -93 -132 -11 0 -1 85 12 111 10 18 60 47 82
49 4 0 3 -13 -1 -28z m36 -226 c-2 -61 -6 -64 -74 -50 -22 4 -31 14 -39 40
-11 35 -11 35 16 29 23 -5 31 0 55 31 35 45 46 32 42 -50z"/>
<path d="M3440 3520 c-95 -52 -110 -89 -66 -164 42 -72 85 -81 145 -30 30 25
61 24 61 -2 0 -21 60 -54 96 -54 25 0 33 5 36 23 6 30 0 47 -17 47 -40 0 -130
117 -123 159 4 26 -21 51 -51 51 -14 0 -51 -14 -81 -30z"/>
<path d="M14895 2876 c-18 -28 -22 -190 -5 -246 5 -19 10 -36 10 -38 0 -2 -12
-3 -27 -2 -47 3 -54 1 -82 -29 -35 -37 -31 -77 9 -116 47 -45 177 -47 201 -3
11 20 9 29 -22 90 -21 41 -41 205 -35 286 6 77 5 82 -14 82 -11 0 -27 -11 -35
-24z m6 -382 c14 -17 9 -17 -25 -4 -14 5 -26 14 -26 19 0 13 37 2 51 -15z"/>
<path d="M13876 2824 c-9 -24 -7 -137 3 -170 5 -16 12 -41 15 -56 6 -27 6 -27
-43 -25 -85 4 -119 -53 -83 -136 16 -36 30 -49 73 -70 29 -15 61 -27 71 -27
23 0 84 32 123 65 25 20 28 28 19 42 -16 26 -43 28 -65 4 -46 -49 -159 -25
-159 35 0 12 81 2 94 -12 24 -23 59 -14 70 18 8 23 6 32 -11 50 -21 24 -42
120 -48 222 -2 30 -6 60 -10 66 -10 16 -42 12 -49 -6z"/>
<path d="M13042 2810 c-23 -37 -6 -171 32 -261 6 -13 0 -18 -27 -23 -19 -4
-40 -13 -47 -21 -7 -8 -19 -15 -26 -15 -17 0 -18 -35 -4 -77 30 -85 182 -113
224 -41 18 29 18 32 2 44 -11 8 -13 14 -7 19 18 10 12 49 -8 62 -47 30 -109
241 -83 283 9 14 7 21 -7 34 -23 21 -34 20 -49 -4z m101 -379 c16 -16 -3 -31
-37 -31 -32 0 -81 34 -71 49 6 10 95 -5 108 -18z"/>
<path d="M8980 2797 c-19 -10 -27 -24 -33 -62 -4 -27 -12 -54 -16 -60 -5 -5
-11 -23 -15 -40 -4 -16 -20 -49 -36 -72 -16 -24 -27 -50 -24 -58 3 -8 -3 -26
-14 -40 -41 -52 16 -103 58 -53 11 13 19 31 20 41 0 18 36 37 93 51 21 5 29 2
33 -11 4 -10 12 -31 19 -48 7 -16 16 -45 20 -63 6 -30 10 -33 38 -30 43 4 45
30 11 103 -22 46 -25 61 -16 74 30 41 20 71 -22 71 -18 0 -24 9 -35 53 -19 76
-42 147 -50 152 -4 2 -18 -2 -31 -8z m40 -223 c0 -2 -13 -4 -30 -4 -35 0 -35
1 -14 42 l16 32 14 -33 c8 -18 14 -35 14 -37z"/>
<path d="M12420 2789 c-7 -11 -9 -28 -5 -37 3 -9 8 -50 11 -90 l4 -73 -43 6
c-50 7 -70 -4 -65 -35 2 -19 14 -26 56 -38 l53 -15 -7 -42 c-7 -52 19 -118 45
-113 12 3 17 18 19 68 3 73 13 90 52 90 36 0 75 31 67 53 -5 14 -16 16 -57 11
-50 -5 -57 -1 -51 38 0 3 -6 41 -14 83 -8 42 -13 81 -10 85 5 8 -24 30 -39 30
-3 0 -10 -9 -16 -21z"/>
<path d="M11305 2759 c-11 -11 -34 -27 -51 -35 -40 -19 -144 -112 -144 -129 0
-7 -7 -19 -16 -26 -23 -19 -10 -87 23 -121 34 -35 84 -51 153 -50 69 1 130 23
153 54 25 33 13 60 -22 51 -14 -3 -29 -10 -32 -15 -3 -5 -36 -11 -73 -14 -76
-7 -118 6 -133 39 -12 25 2 77 21 77 6 0 29 16 51 35 22 19 45 35 50 35 21 0
87 77 83 96 -5 26 -39 27 -63 3z"/>
<path d="M10840 2735 c0 -9 6 -26 14 -38 8 -12 16 -38 18 -57 3 -33 1 -35 -27
-35 -66 -1 -75 -38 -15 -63 38 -16 40 -19 40 -62 0 -25 -7 -58 -15 -74 -19
-35 -6 -56 35 -56 26 0 29 3 39 63 6 35 11 73 11 85 0 24 27 42 62 42 32 1 61
25 56 47 -3 15 -13 18 -57 18 l-54 0 -17 70 c-16 70 -16 70 -53 73 -29 2 -37
0 -37 -13z"/>
<path d="M11623 2700 c-40 -9 -77 -33 -98 -62 -59 -84 -67 -102 -61 -136 14
-90 92 -81 89 10 -1 22 6 53 16 71 16 28 30 39 91 67 17 8 21 52 5 56 -5 1
-25 -2 -42 -6z"/>
<path d="M13287 2683 c-12 -3 -16 -11 -12 -23 3 -10 1 -21 -5 -25 -18 -11 -11
-23 21 -34 39 -14 40 -13 62 3 16 12 16 16 2 50 -15 35 -26 40 -68 29z"/>
<path d="M14553 2632 c-108 -87 -133 -120 -133 -181 0 -37 27 -60 81 -67 40
-5 48 -3 74 22 17 16 38 40 47 54 l16 25 25 -24 c27 -24 53 -23 63 3 8 20 -54
96 -91 112 -16 7 -24 13 -17 14 19 0 35 49 21 66 -18 22 -33 17 -86 -24z m17
-108 c-15 -39 -39 -64 -61 -64 -16 0 -16 2 -3 30 15 28 63 74 71 67 2 -3 -1
-17 -7 -33z"/>
<path d="M15165 2631 c-45 -27 -66 -66 -72 -131 -5 -49 -2 -64 17 -94 25 -41
53 -51 112 -42 54 9 98 41 98 72 0 29 -2 29 -62 7 -38 -13 -52 -14 -73 -5 -37
17 -33 42 8 40 38 -1 63 10 96 46 19 20 22 31 17 60 -12 63 -79 85 -141 47z"/>
<path d="M11843 2623 c-17 -9 -40 -31 -50 -50 -10 -20 -23 -31 -31 -28 -13 5
-27 -1 -61 -23 -20 -14 5 -55 30 -49 14 4 20 -1 24 -19 3 -13 7 -34 10 -46 3
-13 22 -36 43 -52 34 -26 42 -28 100 -22 35 3 78 12 94 21 41 20 46 19 68 -7
28 -36 99 -32 139 6 17 17 36 45 43 63 13 37 27 38 44 4 24 -46 71 -64 94 -36
11 13 8 22 -21 53 -19 20 -43 54 -52 75 -9 20 -22 37 -28 37 -6 0 -9 7 -5 15
10 27 -5 45 -38 45 -45 0 -148 -69 -186 -125 -43 -62 -71 -78 -145 -82 -67 -3
-83 5 -87 48 -3 20 1 23 20 21 34 -5 94 18 120 46 27 28 25 71 -5 104 -20 22
-76 23 -120 1z m370 -125 c-11 -54 -42 -98 -69 -98 -14 0 -27 7 -30 14 -6 15
24 65 38 66 4 0 18 11 32 25 33 33 37 32 29 -7z"/>
<path d="M14309 2630 c-8 -5 -31 -40 -49 -77 -19 -37 -36 -70 -37 -72 -8 -11
-42 38 -56 79 -17 51 -48 66 -67 30 -13 -23 -2 -67 33 -135 37 -71 86 -94 120
-57 8 9 31 49 49 87 19 39 42 82 52 98 15 22 16 30 6 42 -14 17 -28 18 -51 5z"/>
<path d="M15472 2627 c-59 -18 -122 -92 -122 -142 0 -44 28 -95 52 -95 22 0
30 14 34 59 7 82 24 104 100 126 57 16 69 36 35 55 -24 12 -55 11 -99 -3z"/>
<path d="M9303 2597 c-52 -20 -103 -72 -103 -105 0 -43 52 -118 92 -131 56
-18 157 -11 211 16 81 40 48 78 -43 48 -56 -19 -134 -13 -162 13 -10 8 -18 28
-18 43 0 33 25 50 84 58 42 6 68 33 50 51 -17 17 -76 21 -111 7z"/>
<path d="M9704 2585 c-54 -25 -107 -81 -125 -134 -28 -79 81 -132 207 -100 24
6 45 15 46 20 5 33 2 34 -79 34 -46 0 -87 5 -93 11 -23 23 1 60 66 103 51 34
64 48 62 64 -4 29 -24 30 -84 2z"/>
<path d="M10258 2590 c-13 -8 -17 -26 -17 -91 0 -78 1 -83 30 -110 17 -16 39
-29 48 -29 25 0 57 26 81 65 l21 35 37 -25 c39 -26 67 -32 77 -15 11 18 25 11
25 -13 0 -29 32 -60 57 -55 15 3 18 14 18 71 1 86 17 107 63 83 24 -12 36 -30
53 -76 21 -59 36 -71 66 -52 21 13 17 36 -15 99 -61 119 -124 145 -199 81 -50
-44 -53 -47 -53 -87 l0 -34 -35 39 c-19 21 -34 46 -35 54 0 9 -7 26 -16 38
-20 29 -67 27 -72 -3 -6 -35 -55 -125 -68 -125 -22 0 -24 15 -13 74 15 74 -5
103 -53 76z"/>
<path d="M9980 2571 c-79 -15 -124 -74 -100 -131 16 -38 46 -60 80 -60 15 0
47 -7 73 -16 59 -20 110 -6 132 36 20 38 19 59 -5 97 -32 53 -114 86 -180 74z
m98 -91 c36 -22 43 -55 13 -65 -23 -7 -141 44 -141 62 0 28 83 30 128 3z"/>
<path d="M12763 2573 c-38 -5 -90 -52 -110 -101 -13 -32 -13 -36 9 -59 54 -58
142 -78 213 -49 29 13 55 41 55 61 0 4 -27 4 -59 0 -80 -9 -93 1 -42 32 35 20
41 29 41 57 0 50 -34 68 -107 59z"/>
<path d="M3402 2515 c-18 -23 -19 -29 -7 -73 7 -26 18 -60 25 -77 23 -56 60
-159 57 -160 -1 -1 -21 -9 -44 -19 -56 -25 -87 -58 -78 -85 10 -33 -7 -24 -38
19 -16 22 -34 40 -40 40 -21 0 -111 -57 -141 -88 -20 -21 -30 -44 -33 -75 -5
-39 -2 -49 20 -71 40 -40 99 -36 143 8 19 19 34 41 34 50 0 23 12 20 43 -14
16 -16 37 -30 47 -30 22 0 50 26 50 46 0 12 10 15 43 13 58 -4 103 16 122 54
32 64 2 92 -45 42 -30 -31 -88 -34 -114 -6 -17 19 -17 20 3 30 11 6 43 11 71
11 53 0 100 22 100 46 0 7 -14 24 -31 36 -37 28 -80 115 -108 220 -12 43 -21
80 -21 82 0 3 -9 10 -19 16 -16 8 -23 5 -39 -15z m-162 -483 c0 -13 -30 -52
-41 -52 -14 0 -11 22 8 42 17 19 33 24 33 10z"/>
<path d="M13340 2493 c-51 -19 -65 -66 -26 -84 45 -21 89 29 65 73 -10 19 -14
20 -39 11z"/>
<path d="M4126 2454 c-45 -17 -56 -29 -91 -101 -20 -41 -32 -54 -60 -63 -40
-13 -43 -25 -14 -56 20 -21 18 -51 -2 -39 -5 4 -35 -18 -67 -48 -63 -60 -115
-81 -126 -50 -5 13 1 24 21 40 15 13 33 23 39 23 17 0 54 48 60 78 7 35 -16
57 -78 73 -44 12 -48 11 -81 -14 -20 -15 -47 -52 -66 -91 l-31 -65 32 -45 c46
-61 98 -90 150 -82 21 4 51 14 65 23 28 19 103 116 103 134 0 7 11 2 24 -10
16 -15 33 -21 52 -19 25 3 29 7 30 38 1 19 5 63 9 98 6 52 13 67 37 87 16 14
38 25 49 25 23 0 36 44 19 65 -15 18 -22 17 -74 -1z m-336 -218 c0 -14 -37
-32 -46 -23 -6 6 25 37 37 37 5 0 9 -6 9 -14z"/>
<path d="M4706 2429 c-36 -28 -37 -84 -2 -100 15 -7 26 -22 29 -43 3 -17 9
-45 12 -63 6 -28 4 -33 -22 -47 -16 -8 -60 -22 -97 -30 -38 -9 -96 -27 -130
-40 -33 -13 -101 -36 -151 -51 -49 -15 -119 -38 -155 -52 -36 -13 -96 -36
-135 -50 -69 -26 -183 -74 -280 -119 -130 -61 -369 -136 -489 -154 -44 -7 -91
-16 -105 -22 -14 -5 -53 -15 -86 -23 -33 -8 -98 -28 -145 -46 -47 -17 -114
-37 -150 -44 -253 -49 -315 -68 -336 -100 -33 -51 20 -66 103 -29 18 8 49 15
70 16 21 0 43 4 48 8 6 4 53 18 105 30 52 13 103 27 112 31 10 5 26 9 35 9 10
0 47 11 83 24 60 22 284 77 374 91 21 4 46 10 55 15 9 4 39 15 66 23 85 26
205 72 310 117 55 23 145 62 200 85 106 46 228 91 335 125 36 11 74 24 85 30
62 29 287 85 308 77 14 -5 32 -77 44 -170 4 -30 11 -41 32 -48 14 -6 33 -17
42 -25 24 -22 47 -7 74 50 37 76 128 214 172 261 45 47 76 105 71 131 -4 26
-45 30 -69 8 -19 -17 -21 -17 -57 1 -20 11 -48 30 -62 42 -33 27 -129 71 -198
89 -67 18 -64 18 -96 -7z"/>
<path d="M15047 2323 c-20 -14 -37 -30 -37 -35 0 -5 11 -24 24 -41 26 -35 40
-99 25 -114 -6 -6 -43 -8 -83 -5 -49 3 -100 -1 -151 -13 -42 -9 -82 -14 -89
-12 -14 5 -68 -1 -231 -26 -134 -21 -186 -26 -345 -32 -74 -2 -175 -7 -223
-11 -48 -3 -237 -8 -420 -10 -500 -7 -696 -12 -872 -22 -181 -11 -481 -7 -630
9 -55 6 -221 13 -370 15 -148 2 -280 6 -292 9 -22 5 -124 6 -393 4 -251 -3
-391 2 -510 16 -63 8 -245 17 -405 20 -330 6 -436 11 -465 20 -37 12 -650 15
-675 3 -32 -14 -37 -31 -18 -58 12 -18 24 -21 62 -20 89 5 90 4 46 -38 -52
-47 -105 -116 -105 -135 0 -8 -8 -25 -18 -38 -60 -79 -86 -295 -47 -394 11
-27 23 -51 28 -53 4 -2 7 -9 7 -16 0 -21 53 -64 96 -80 39 -13 83 -20 330 -46
109 -12 123 -9 237 45 102 49 223 209 254 337 24 101 0 227 -54 287 -10 11
-23 26 -29 33 -6 7 -30 31 -55 52 l-44 38 35 -6 c62 -9 259 -17 515 -21 138
-3 270 -6 295 -8 25 -3 214 -7 420 -11 206 -3 430 -8 496 -12 67 -3 210 -5
317 -5 134 0 218 -5 266 -14 99 -21 515 -29 711 -14 159 12 437 20 685 18 367
-2 867 16 1025 36 25 3 86 10 135 16 115 12 129 14 141 21 5 3 41 6 79 7 39 1
107 6 152 11 111 14 192 10 203 -10 4 -8 2 -71 -6 -139 -10 -90 -10 -128 -2
-138 15 -19 29 -16 57 11 15 14 52 38 83 55 32 16 73 41 91 55 20 15 47 26 65
26 21 0 35 7 42 20 6 11 29 24 53 30 23 6 47 18 54 27 7 9 21 13 32 10 28 -7
48 12 55 54 7 42 -8 59 -69 80 -22 7 -63 30 -92 51 -28 21 -70 45 -92 54 -23
9 -41 19 -41 24 0 4 -18 12 -39 19 -22 6 -61 26 -88 45 -70 48 -83 50 -126 19z
m-5714 -343 c34 -7 82 -20 106 -31 24 -10 61 -21 81 -24 75 -9 115 -36 164
-112 22 -34 29 -57 33 -121 5 -72 3 -85 -21 -137 -52 -109 -184 -226 -288
-255 -66 -19 -288 44 -288 82 0 5 -10 8 -22 6 -17 -2 -24 -11 -26 -32 -3 -27
-5 -28 -45 -22 -62 10 -88 27 -113 71 -37 67 -47 139 -30 220 18 86 38 143 69
187 19 29 25 32 35 21 9 -9 40 -13 95 -13 122 0 147 -29 39 -45 -27 -4 -54
-16 -69 -31 -37 -37 -23 -57 50 -69 43 -7 109 -60 105 -84 -2 -11 -18 -18 -51
-22 -62 -7 -93 8 -89 43 2 25 1 26 -28 18 -29 -8 -60 -32 -60 -45 0 -17 55
-75 85 -89 38 -19 107 -21 138 -5 34 17 78 61 88 88 8 19 4 29 -22 60 -18 20
-43 43 -56 52 l-23 16 40 32 c26 21 40 40 40 55 0 59 -83 108 -182 109 -32 0
-58 4 -58 8 0 11 49 43 85 57 57 21 140 26 218 12z"/>
<path d="M9342 1927 c-8 -9 -6 -40 4 -107 17 -119 18 -149 0 -156 -21 -8 -27
-59 -11 -97 27 -64 142 -103 215 -73 39 15 80 57 80 81 0 44 -120 125 -186
125 -18 0 -21 11 -33 113 -7 61 -15 115 -18 120 -7 11 -40 8 -51 -6z m196
-320 c19 -15 15 -20 -27 -41 -66 -31 -126 0 -86 44 14 16 26 19 59 14 23 -4
47 -11 54 -17z"/>
<path d="M2586 2231 c-16 -18 -16 -24 13 -113 17 -51 37 -112 45 -135 l13 -41
-56 -7 c-70 -9 -103 -26 -135 -68 -34 -45 -34 -96 0 -155 l26 -44 74 4 c56 4
82 11 111 30 21 14 68 45 105 69 38 24 68 47 68 51 0 11 -43 38 -62 38 -10 0
-24 10 -32 23 -18 26 -59 160 -82 261 -8 38 -19 77 -25 87 -13 24 -41 24 -63
0z m87 -406 c15 -32 15 -35 -1 -43 -42 -21 -102 -34 -127 -28 -24 6 -26 10
-20 39 10 45 21 55 63 60 20 2 44 4 53 5 9 1 22 -13 32 -33z"/>
<path d="M2985 2080 c-16 -17 -19 -35 -17 -98 l2 -77 -21 25 c-11 14 -30 41
-42 60 -13 20 -33 36 -45 38 -26 4 -52 -13 -52 -34 0 -15 58 -103 92 -140 37
-41 120 -35 134 10 4 11 8 55 10 96 1 41 4 89 6 105 3 26 -1 30 -23 33 -16 2
-32 -5 -44 -18z"/>
<path d="M1360 1993 c-71 -7 -223 -35 -248 -46 -100 -43 -242 -182 -299 -293
-49 -93 -53 -114 -59 -280 l-5 -120 35 -63 c20 -35 36 -66 36 -70 0 -17 76
-116 135 -177 60 -60 73 -69 138 -88 40 -11 93 -19 120 -18 61 2 104 3 202 4
248 1 367 40 476 155 33 34 86 138 104 203 3 14 12 39 20 55 39 86 45 108 45
162 -1 141 -57 280 -168 412 -79 94 -98 106 -222 143 -62 18 -219 29 -310 21z
m310 -125 c78 -19 89 -25 133 -71 57 -59 147 -194 147 -218 0 -10 4 -20 9 -23
8 -5 14 -78 14 -169 0 -15 -7 -35 -15 -45 -8 -9 -23 -37 -33 -62 -10 -25 -24
-52 -31 -60 -7 -8 -18 -37 -25 -64 -13 -51 -61 -116 -85 -116 -8 0 -14 -3 -14
-8 0 -4 -8 -12 -19 -17 -10 -6 -47 -25 -82 -44 -50 -27 -79 -35 -139 -39 -128
-9 -229 1 -243 24 -11 20 -31 17 -52 -6 -28 -31 -51 -33 -110 -6 -30 15 -61
26 -67 26 -22 0 -136 130 -163 187 -15 32 -37 75 -47 97 -38 75 -19 280 36
376 57 101 129 162 236 200 19 7 60 21 90 32 30 11 84 22 119 24 36 2 67 6 69
8 10 11 196 -7 272 -26z"/>
<path d="M1517 1689 c-41 -34 -47 -61 -22 -109 21 -40 94 -52 133 -23 45 33
37 119 -13 155 -22 16 -62 7 -98 -23z"/>
<path d="M1164 1690 c-31 -12 -54 -49 -54 -85 0 -23 8 -37 30 -53 40 -30 80
-28 112 6 35 36 38 73 10 111 -24 32 -54 39 -98 21z"/>
<path d="M1732 1417 c-13 -14 -22 -36 -22 -54 0 -17 -7 -36 -15 -43 -8 -7 -15
-17 -15 -23 0 -5 -11 -25 -25 -43 -14 -18 -25 -35 -25 -37 0 -10 -59 -67 -69
-67 -6 0 -11 -4 -11 -9 0 -14 -51 -30 -100 -32 -57 -1 -98 10 -180 50 -93 45
-120 72 -172 172 -24 47 -58 72 -90 67 -20 -3 -23 -8 -20 -43 2 -22 13 -53 25
-70 11 -16 28 -44 36 -61 43 -86 129 -151 259 -194 94 -31 160 -35 232 -14 35
10 128 82 135 104 3 10 17 25 30 34 14 9 25 21 25 27 0 6 13 29 29 53 36 52
54 117 45 159 -11 52 -38 61 -72 24z"/>
<path d="M3490 1638 c-14 -6 -43 -19 -65 -28 -22 -10 -63 -25 -92 -35 -28 -9
-53 -19 -55 -23 -5 -11 -79 -57 -115 -71 -18 -8 -33 -16 -33 -20 0 -3 -6 -56
-14 -118 -14 -111 -11 -277 5 -298 5 -5 25 -30 44 -55 51 -65 87 -100 100
-100 7 0 18 -6 24 -14 13 -16 76 -34 141 -40 25 -2 52 -7 60 -10 9 -4 60 5
115 19 77 20 115 37 173 76 87 58 173 134 192 169 17 31 13 150 -5 204 -8 23
-15 50 -15 61 -1 49 -124 177 -227 237 -63 37 -90 46 -143 51 -38 3 -75 1 -90
-5z m229 -131 c27 -18 50 -38 50 -45 1 -7 12 -17 26 -24 13 -6 29 -23 35 -37
6 -14 24 -51 40 -81 26 -48 29 -65 28 -130 -1 -84 -1 -84 -109 -161 -119 -84
-138 -90 -296 -88 -130 3 -183 11 -183 31 0 4 10 8 22 8 30 0 191 52 200 65 9
12 -1 47 -16 58 -6 4 -24 5 -41 2 -51 -8 -53 -4 -81 153 -9 51 -12 107 -9 137
6 41 3 54 -10 65 -15 12 -10 17 46 42 92 42 95 40 103 -39 4 -38 9 -79 11 -93
18 -126 28 -210 29 -237 1 -37 40 -83 70 -83 28 0 125 46 153 72 28 27 37 69
23 111 -21 66 -95 106 -159 87 -19 -5 -37 -7 -39 -5 -3 3 -7 57 -9 121 l-3
116 34 -6 c19 -4 57 -21 85 -39z m-431 -117 c-58 -115 -108 -141 -94 -48 8 52
20 68 66 90 56 27 60 22 28 -42z m47 -228 l13 -64 -32 -13 c-17 -7 -46 -16
-63 -20 -31 -6 -33 -5 -33 23 0 17 -4 32 -8 34 -5 2 -12 20 -15 40 l-6 37 49
-6 c48 -5 49 -5 56 23 10 41 18 52 22 29 2 -11 10 -49 17 -83z m393 66 c21
-21 13 -48 -20 -68 -18 -11 -37 -19 -42 -17 -5 2 -15 20 -24 41 -13 32 -13 39
-1 47 20 13 73 11 87 -3z"/>
</g>
</svg>
