<?xml version="1.0" standalone="no"?>
<!DOCTYPE svg PUBLIC "-//W3C//DTD SVG 20010904//EN"
 "http://www.w3.org/TR/2001/REC-SVG-20010904/DTD/svg10.dtd">
<svg version="1.0" xmlns="http://www.w3.org/2000/svg"
 width="1380.357593pt" height="400.000000pt" viewBox="0 0 1380.357593 400.000000"
 preserveAspectRatio="xMidYMid meet">
<metadata>
Created by potrace 1.15, written by Peter Selinger 2001-2017
</metadata>
<g transform="translate(-80.621387,480.004854) scale(0.037299,-0.037299)"
fill="#444444" stroke="none">
<path d="M35577 12850 c-24 -19 -25 -21 -12 -65 8 -25 19 -143 25 -267 6 -123
13 -268 17 -323 3 -55 6 -112 7 -127 0 -14 3 -29 6 -31 9 -9 2 -172 -9 -199
-13 -34 -22 -35 -69 -3 -20 14 -42 25 -49 25 -7 0 -13 7 -13 16 0 9 -9 18 -20
21 -10 3 -22 13 -25 23 -3 9 -14 25 -25 35 -11 10 -20 27 -20 37 0 10 -10 22
-22 27 -26 10 -111 92 -145 139 -15 19 -23 44 -23 70 0 25 -6 45 -18 55 -25
23 -89 22 -127 -2 -42 -25 -205 -187 -205 -203 0 -7 -13 -38 -28 -69 -27 -55
-27 -56 -10 -85 10 -16 18 -39 18 -51 0 -32 59 -73 138 -94 80 -23 128 -24
162 -4 14 8 37 20 52 27 15 6 32 22 39 35 7 12 20 25 31 29 10 3 18 10 18 15
0 17 35 9 47 -10 7 -11 28 -27 47 -36 18 -9 51 -31 72 -49 22 -18 49 -38 61
-45 29 -15 70 -5 76 20 8 30 45 23 96 -20 25 -21 55 -43 66 -48 82 -43 300 74
394 211 36 52 40 66 45 149 5 85 -12 121 -84 178 -90 71 -168 101 -276 107
-52 3 -97 9 -101 15 -7 12 -11 75 -20 307 -5 152 -9 187 -22 197 -24 19 -65
15 -94 -7z m394 -676 c72 -40 91 -64 91 -118 0 -38 -7 -53 -37 -91 -21 -25
-40 -45 -44 -45 -3 0 -22 -15 -42 -33 -20 -19 -62 -44 -93 -57 l-57 -23 -34
33 c-32 31 -35 38 -34 89 2 77 -8 212 -16 234 -4 10 -1 24 6 33 12 14 28 16
113 10 80 -5 108 -11 147 -32z m-806 -132 c3 -7 0 -22 -5 -32 -5 -10 -7 -25
-4 -33 13 -36 -46 -87 -101 -87 -14 0 -46 5 -71 11 -51 13 -57 33 -24 87 11
18 20 39 20 46 0 8 21 32 47 54 l46 40 43 -36 c24 -19 46 -42 49 -50z"/>
<path d="M34305 12699 c-4 -12 -2 -26 4 -32 6 -6 11 -24 11 -39 0 -15 5 -28
10 -28 6 0 10 -13 10 -28 0 -16 9 -37 20 -47 11 -10 20 -28 20 -40 0 -12 10
-44 22 -71 12 -27 22 -58 23 -69 1 -11 5 -28 9 -37 11 -24 -22 -53 -85 -73
-63 -20 -89 -40 -89 -67 0 -59 50 -82 141 -66 38 6 64 7 70 1 12 -12 29 -155
29 -242 0 -100 20 -177 55 -216 25 -28 34 -32 53 -25 31 13 45 56 37 110 -4
25 -8 59 -10 75 -8 77 -27 225 -34 270 -11 63 -2 75 58 76 54 1 106 28 106 55
0 10 4 25 9 32 11 17 2 25 -31 28 -16 1 -65 5 -110 9 l-83 8 0 29 c0 16 -7 40
-17 54 -17 26 -62 149 -63 172 0 6 -9 21 -20 32 -11 11 -20 31 -20 43 0 30
-70 107 -98 107 -12 0 -23 -9 -27 -21z"/>
<path d="M37363 12469 c-89 -8 -95 -10 -129 -45 -48 -48 -56 -101 -22 -159 44
-77 70 -115 78 -115 5 0 11 -9 15 -19 3 -11 14 -23 23 -26 9 -3 28 -21 42 -41
14 -19 35 -45 47 -57 23 -23 38 -85 26 -103 -18 -26 -148 -68 -215 -70 -69 -2
-88 6 -69 30 9 11 4 18 -24 34 -29 18 -40 19 -65 10 -17 -5 -35 -18 -40 -28
-20 -38 -11 -63 40 -111 67 -62 125 -77 240 -61 116 17 209 65 245 129 21 38
26 56 21 90 -6 48 -37 111 -69 140 -38 35 -87 93 -114 136 -15 23 -36 52 -47
65 -15 17 -17 25 -8 34 18 18 121 28 175 16 52 -11 117 -3 129 15 27 42 -27
120 -89 131 -80 13 -101 14 -190 5z"/>
<path d="M36661 12404 c-11 -8 -49 -29 -83 -46 -79 -39 -145 -83 -182 -122
-88 -93 -117 -136 -131 -190 -27 -104 -15 -140 63 -191 41 -26 55 -30 113 -29
61 2 70 5 122 45 30 24 68 62 83 86 15 24 32 43 38 43 6 -1 25 -19 41 -41 68
-91 87 -109 114 -109 37 0 53 14 50 41 -2 13 0 29 4 36 8 12 -1 43 -12 43 -18
0 -72 60 -87 96 -9 21 -25 51 -36 66 -11 16 -17 36 -13 47 4 14 -2 22 -27 32
-18 7 -43 14 -55 14 -34 0 -38 13 -7 21 16 4 44 15 62 26 30 18 32 24 29 61
-3 25 -12 45 -23 53 -11 7 -24 18 -30 23 -8 6 -19 5 -33 -5z m-37 -215 c-8
-17 -16 -50 -18 -74 -2 -44 -11 -60 -56 -105 -71 -71 -107 -84 -148 -52 -21
16 -21 21 -11 52 17 48 121 159 182 192 58 32 73 28 51 -13z"/>
<path d="M32840 12330 c-69 -6 -123 -29 -139 -58 -5 -9 -6 -31 -4 -49 4 -24
13 -36 38 -47 32 -16 107 -17 121 -3 15 14 54 7 54 -10 0 -9 4 -30 9 -47 26
-87 40 -161 45 -231 1 -22 9 -51 19 -65 9 -14 16 -34 16 -45 -1 -35 13 -108
27 -153 16 -50 18 -118 4 -127 -7 -4 -5 -14 5 -28 14 -20 13 -22 -17 -34 -25
-11 -33 -11 -41 -1 -7 11 -10 10 -14 0 -3 -7 -14 -22 -25 -32 -20 -19 -20 -19
14 -56 l35 -37 54 13 c32 7 81 30 120 56 36 24 69 44 74 44 13 0 96 92 139
155 119 172 152 303 112 440 -40 136 -156 236 -346 299 -78 25 -156 29 -300
16z m345 -177 c74 -28 145 -76 145 -98 0 -8 6 -18 13 -22 35 -20 46 -113 25
-205 -12 -50 -17 -60 -45 -92 -7 -8 -10 -16 -7 -19 6 -6 -82 -136 -101 -150
-18 -13 -56 -20 -65 -11 -9 9 -30 124 -35 184 -2 29 -13 74 -26 110 -5 14 -11
45 -14 69 -3 24 -8 48 -11 52 -3 5 -9 32 -14 61 -6 29 -14 73 -19 98 -5 25 -7
49 -4 53 8 13 79 0 158 -30z"/>
<path d="M37995 12259 c-89 -49 -125 -89 -175 -194 -45 -94 -47 -103 -39 -150
13 -84 25 -129 40 -155 34 -61 117 -131 184 -157 71 -28 243 -53 335 -49 84 3
95 6 111 27 10 13 19 34 19 45 0 27 -31 34 -143 34 -44 0 -94 4 -111 9 -17 6
-61 17 -97 25 -84 18 -175 77 -195 125 -14 33 -10 81 7 81 52 0 231 37 272 56
29 13 62 24 74 24 12 0 41 15 64 33 34 25 44 40 46 65 4 44 -50 119 -104 146
-22 12 -47 27 -56 34 -9 8 -52 15 -104 18 -77 4 -93 2 -128 -17z m220 -125
c31 -20 32 -31 3 -39 -13 -3 -32 -10 -43 -15 -17 -8 -71 -18 -192 -37 -46 -7
-44 19 6 68 39 39 39 39 120 39 58 0 89 -5 106 -16z"/>
<path d="M33945 12182 c-6 -5 -32 -17 -60 -27 -27 -10 -54 -24 -58 -32 -4 -7
-14 -13 -21 -13 -22 0 -140 -110 -163 -151 -12 -22 -28 -48 -36 -57 -18 -21
-47 -107 -47 -139 0 -76 121 -171 237 -187 42 -5 68 3 162 54 44 24 111 121
111 160 0 16 4 31 9 34 5 3 7 15 4 26 -8 29 18 25 48 -7 61 -66 141 -133 159
-133 25 0 33 15 36 68 3 38 0 44 -23 53 -14 5 -41 26 -60 47 -52 56 -159 195
-166 215 -4 9 -11 17 -16 17 -5 0 -20 18 -32 40 -17 31 -29 40 -49 40 -14 0
-30 -4 -35 -8z m17 -207 c9 -32 1 -134 -12 -150 -4 -5 -11 -24 -14 -41 -6 -28
-13 -32 -62 -44 -30 -7 -57 -17 -60 -22 -3 -4 -18 -8 -34 -8 -34 0 -78 36 -82
67 -3 22 50 123 64 123 4 0 8 6 8 13 0 14 73 71 112 87 42 17 71 8 80 -25z"/>
<path d="M36395 11285 c-5 -2 -50 -9 -100 -14 -49 -6 -137 -17 -195 -26 -97
-15 -230 -30 -340 -40 -25 -2 -65 -6 -90 -9 -25 -3 -263 -8 -530 -12 -266 -3
-489 -8 -494 -11 -5 -3 -25 -7 -45 -9 -20 -3 -52 -6 -71 -8 -19 -2 -71 -7
-115 -11 -44 -4 -97 -11 -119 -17 -21 -5 -69 -13 -105 -18 -36 -5 -95 -14
-131 -20 -36 -6 -85 -12 -110 -14 -25 -2 -58 -8 -73 -14 -16 -7 -35 -12 -42
-12 -8 0 -40 -7 -72 -16 -32 -9 -110 -21 -173 -26 -94 -8 -131 -16 -205 -45
-49 -19 -97 -41 -105 -48 -8 -7 -31 -16 -50 -20 -53 -11 -115 -43 -146 -75
-16 -16 -35 -30 -43 -30 -8 0 -33 -16 -57 -35 -23 -19 -46 -35 -50 -35 -14 0
-54 -52 -54 -71 0 -10 -4 -21 -10 -24 -5 -3 -10 -17 -10 -29 0 -51 -63 -133
-110 -143 -19 -3 -36 -17 -50 -40 -11 -19 -20 -36 -20 -38 0 -9 80 -85 90 -85
16 0 51 -85 44 -104 -3 -9 1 -27 10 -41 9 -14 12 -26 6 -30 -6 -3 -9 -84 -8
-198 l2 -192 39 -38 c33 -33 38 -42 31 -65 -4 -15 -6 -31 -3 -37 2 -5 4 -59 5
-120 9 -441 16 -648 24 -665 1 -3 1 -29 0 -58 -1 -30 3 -59 10 -67 8 -10 9
-15 2 -15 -8 0 -8 -9 0 -30 5 -17 8 -40 4 -53 -3 -12 0 -63 6 -112 5 -50 12
-121 14 -160 2 -38 8 -117 13 -175 6 -65 6 -136 1 -185 -5 -44 -6 -83 -2 -87
5 -5 5 -34 0 -66 -4 -31 -12 -111 -18 -177 -5 -66 -17 -194 -26 -285 -8 -91
-16 -190 -18 -220 -2 -30 -4 -55 -5 -55 -2 0 -4 -31 -6 -70 -2 -38 -6 -83 -9
-100 -3 -16 -8 -66 -11 -110 -3 -44 -8 -87 -11 -95 -3 -8 -7 -55 -10 -105 -2
-49 -6 -139 -8 -200 -11 -225 -9 -706 2 -717 8 -8 8 -17 0 -32 -11 -20 -8 -98
13 -361 5 -66 11 -163 13 -215 2 -52 7 -131 9 -175 3 -44 8 -202 11 -350 2
-149 10 -291 15 -317 6 -25 13 -106 16 -179 3 -72 8 -136 11 -140 3 -5 7 -91
10 -191 5 -172 16 -370 29 -518 6 -72 -13 -139 -40 -141 -28 -3 -33 -4 -41
-11 -4 -4 5 -18 21 -30 15 -12 33 -35 40 -52 15 -36 117 -146 135 -146 14 0
113 -69 170 -117 20 -18 41 -33 45 -33 5 0 31 -15 59 -33 71 -46 84 -53 146
-82 30 -14 61 -32 70 -39 8 -8 26 -17 40 -21 14 -4 43 -22 65 -39 22 -17 49
-37 60 -43 84 -53 123 -74 145 -79 14 -3 45 -14 70 -24 25 -9 63 -21 85 -25
22 -4 47 -13 56 -21 8 -8 38 -19 65 -24 166 -35 209 -43 304 -51 58 -4 139
-12 180 -17 125 -14 854 -5 978 12 59 8 208 17 332 20 151 4 246 11 290 22 91
21 248 34 497 39 118 2 218 7 224 11 9 5 89 27 144 39 11 3 56 10 100 16 117
15 184 28 235 45 25 8 54 14 65 14 11 0 33 7 48 15 28 14 63 23 123 29 17 2
37 6 43 10 18 11 180 38 341 56 58 7 117 19 132 26 15 8 38 14 51 14 14 0 30
7 37 14 6 8 28 20 48 27 20 6 51 20 68 30 35 21 253 63 278 53 12 -4 15 -2 10
9 -4 12 8 19 53 32 56 16 94 39 150 91 14 13 29 24 33 24 4 0 27 29 51 65 44
64 44 65 91 65 42 0 48 3 54 24 3 14 3 30 -2 37 -4 7 -9 42 -10 78 -2 36 -6
80 -9 96 -4 25 -18 584 -16 635 1 26 -1 172 -4 240 -1 36 -6 72 -9 81 -4 10
-3 20 2 23 6 4 7 21 2 43 -5 21 -9 94 -9 163 1 133 -9 369 -17 435 -12 98 -14
335 -3 398 7 44 8 72 1 80 -5 7 -10 56 -11 110 -1 54 -6 110 -12 124 -5 14 -9
42 -8 62 2 55 -12 294 -18 311 -7 18 -15 342 -12 460 1 8 -5 42 -11 75 -7 33
-12 135 -11 230 0 93 1 178 1 188 0 9 -1 25 -1 35 0 9 2 71 4 137 1 66 0 130
-5 142 -4 12 -3 25 2 28 4 3 9 31 10 63 3 109 6 152 11 157 3 2 3 67 1 142 -7
182 -7 193 12 713 7 189 18 348 26 375 10 37 8 256 -3 273 -5 7 -6 20 -3 30 4
13 10 300 8 395 0 9 0 34 0 55 1 20 -1 85 -4 144 -3 60 -3 109 -1 111 2 2 4
148 6 325 l2 322 28 11 c15 6 27 17 27 23 0 6 10 24 22 40 32 38 57 104 57
148 1 46 -52 161 -94 204 -16 17 -51 56 -77 86 -26 30 -67 68 -90 84 -24 16
-52 38 -64 49 -33 32 -93 82 -169 139 -65 49 -76 54 -170 71 -55 10 -116 19
-135 21 -70 7 -186 14 -221 14 -20 -1 -49 5 -65 11 -16 6 -58 12 -92 13 -44 1
-68 6 -75 17 -7 8 -21 13 -32 11 -10 -2 -44 1 -75 8 -30 7 -98 14 -150 15 -52
2 -124 6 -160 9 -121 12 -185 16 -205 15 -76 -6 -465 2 -530 10 -87 12 -354
23 -370 16z m410 -174 c66 -5 238 -10 383 -10 145 -1 268 -4 273 -7 6 -3 63
-7 127 -9 65 -2 135 -8 157 -14 22 -6 85 -15 140 -21 55 -6 117 -16 137 -21
21 -5 68 -12 105 -14 38 -3 92 -10 122 -16 29 -6 66 -9 81 -6 15 3 58 -1 96
-9 38 -8 81 -14 95 -14 15 0 37 -8 50 -19 13 -10 42 -27 64 -39 22 -11 65 -44
96 -74 31 -29 71 -61 89 -71 17 -9 34 -26 37 -36 2 -10 16 -24 29 -31 13 -8
24 -17 24 -21 0 -5 20 -31 45 -59 53 -60 63 -77 63 -112 0 -20 -8 -29 -32 -39
-45 -18 -66 -39 -66 -65 0 -17 -11 -29 -37 -44 -21 -11 -51 -29 -68 -40 -61
-40 -214 -110 -240 -110 -15 0 -48 -7 -74 -15 -44 -13 -121 -35 -204 -56 -21
-5 -45 -14 -55 -19 -9 -5 -60 -18 -112 -29 -52 -11 -113 -24 -135 -30 -22 -6
-78 -11 -125 -10 -47 1 -103 -3 -125 -9 -45 -11 -438 -41 -531 -40 -33 0 -69
-2 -80 -5 -10 -4 -98 -9 -196 -12 -214 -7 -450 -25 -758 -57 -122 -13 -83 -12
-680 -5 -587 7 -927 17 -1095 32 -27 3 -124 7 -214 10 -90 3 -168 8 -173 11
-5 3 -50 8 -100 10 -49 2 -95 7 -101 12 -7 5 -39 12 -72 16 -127 12 -193 25
-289 55 -54 17 -106 31 -115 31 -9 0 -50 18 -92 39 -42 22 -94 44 -117 50 -22
6 -45 18 -52 26 -7 8 -16 15 -21 15 -22 0 -95 64 -117 103 -18 33 -21 46 -13
59 6 10 11 25 11 34 0 24 62 145 77 151 7 3 13 12 13 19 0 8 12 20 28 27 15 6
37 23 49 37 12 15 58 40 110 60 48 19 102 42 119 52 42 25 168 68 198 68 13 0
41 6 62 14 22 7 74 16 116 20 42 4 130 16 195 27 65 12 145 25 178 30 33 5 74
14 91 19 17 6 53 13 80 15 27 3 85 9 128 14 44 5 85 7 93 4 7 -3 48 2 91 12
42 9 88 19 101 21 14 3 216 7 450 10 234 3 440 7 456 8 17 2 77 7 135 11 58 3
159 13 225 21 66 8 158 19 205 25 107 12 213 29 218 34 7 7 321 -3 447 -14z
m2089 -963 c-16 -25 -19 -541 -4 -568 5 -8 4 -23 -2 -33 -6 -13 -6 -66 2 -163
7 -79 10 -184 6 -232 -4 -48 -8 -235 -9 -417 -2 -181 -8 -373 -14 -425 -10
-77 -24 -523 -23 -695 1 -235 0 -278 -12 -292 -10 -12 -9 -18 5 -28 13 -9 15
-15 7 -20 -8 -5 -11 -37 -9 -99 2 -50 -1 -98 -6 -106 -5 -8 -8 -32 -6 -53 1
-21 -2 -44 -8 -51 -7 -8 -7 -23 -2 -43 5 -17 9 -98 10 -180 1 -81 5 -204 9
-273 5 -69 7 -143 5 -165 -5 -50 -5 -51 7 -160 5 -49 12 -134 15 -188 2 -54 7
-103 11 -108 3 -5 0 -16 -6 -24 -6 -8 -9 -19 -5 -25 8 -12 17 -117 15 -177 0
-24 4 -60 9 -80 6 -21 13 -193 16 -383 3 -190 10 -399 15 -465 5 -66 11 -214
13 -330 3 -115 7 -217 10 -225 10 -27 23 -488 17 -635 -2 -44 2 -105 9 -135 6
-30 11 -96 10 -146 -2 -49 0 -95 4 -101 4 -6 3 -23 -2 -37 -17 -42 -119 -174
-142 -181 -11 -4 -35 -19 -52 -34 -32 -26 -72 -43 -134 -56 -18 -3 -50 -15
-72 -26 -27 -13 -62 -19 -108 -19 -43 0 -83 -7 -108 -18 -22 -10 -74 -29 -115
-42 -41 -14 -77 -28 -80 -31 -5 -7 -92 -23 -215 -39 -38 -6 -76 -12 -85 -15
-8 -2 -35 -7 -60 -10 -119 -13 -147 -18 -170 -30 -39 -21 -111 -43 -160 -50
-25 -4 -65 -14 -90 -22 -42 -14 -135 -26 -188 -24 -13 1 -33 -6 -45 -14 -12
-8 -32 -15 -45 -15 -29 0 -130 -27 -156 -41 -10 -6 -132 -15 -270 -21 -392
-15 -397 -15 -471 -32 -48 -12 -140 -18 -295 -22 -159 -4 -257 -11 -333 -25
-87 -16 -132 -19 -235 -14 -70 4 -192 5 -272 4 -211 -4 -317 0 -348 12 -15 6
-92 13 -172 15 -80 2 -161 6 -180 8 -77 9 -208 39 -270 61 -36 13 -104 36
-151 50 -54 16 -109 42 -150 69 -125 85 -295 184 -344 201 -53 17 -145 72
-145 85 0 5 -6 10 -14 12 -8 2 -62 42 -119 90 l-104 87 10 47 c8 34 7 85 -2
193 -8 80 -15 220 -17 311 -4 193 -21 475 -35 575 -16 122 -18 164 -24 499 -3
180 -10 347 -15 369 -12 52 -25 344 -32 677 -2 135 4 379 18 715 11 253 14
296 25 373 7 43 11 98 10 124 0 26 6 82 14 125 8 43 15 96 15 119 0 22 3 44 7
48 4 4 8 40 9 79 2 98 13 268 18 276 5 8 25 319 26 406 1 39 -1 104 -4 145
-14 192 -25 404 -21 408 3 3 0 11 -6 19 -7 7 -11 44 -11 81 0 37 -6 139 -14
227 -15 175 -17 582 -2 591 5 4 5 10 0 17 -8 10 -16 132 -14 212 0 11 1 60 1
109 1 64 6 96 19 119 13 22 14 31 5 34 -16 6 -17 45 -2 60 7 7 3 18 -15 38
-25 27 -43 29 -88 11 -14 -6 -17 1 -20 48 -3 53 3 69 17 46 3 -5 17 -10 31
-10 14 0 27 -7 30 -15 4 -8 12 -15 20 -15 8 0 22 -4 32 -9 46 -25 110 -51 125
-51 10 0 25 -9 34 -20 10 -12 30 -20 48 -20 16 0 50 -9 74 -20 24 -11 53 -20
65 -20 12 0 26 -4 31 -8 10 -8 91 -34 150 -48 17 -4 50 -8 75 -9 67 -2 240
-33 255 -45 8 -6 14 -7 17 -1 2 5 25 5 61 0 32 -5 167 -14 300 -20 133 -6 267
-12 297 -14 379 -26 1466 -32 1705 -10 22 1 103 8 180 14 77 6 174 16 215 21
41 6 136 12 210 15 74 3 164 7 200 8 36 2 70 0 77 -5 7 -6 20 -5 33 2 12 6 63
13 113 15 51 2 147 11 213 19 68 8 135 11 150 7 17 -4 47 -2 74 5 25 7 124 20
220 28 212 18 267 27 300 48 14 9 45 22 70 28 25 7 51 17 59 23 8 7 47 13 89
14 41 1 79 7 86 12 6 5 37 17 70 26 72 21 156 64 156 80 0 12 60 43 73 37 4
-2 4 -8 1 -14z"/>
<path d="M33930 9434 c-33 -9 -42 -42 -29 -102 8 -39 9 -110 5 -222 -6 -167
-6 -165 -51 -226 -6 -9 -2 -27 13 -58 20 -42 21 -52 11 -128 -5 -46 -14 -92
-19 -103 -14 -30 -7 -210 9 -229 7 -9 25 -16 40 -16 15 0 35 -6 46 -13 53 -36
165 -41 225 -12 14 7 54 27 90 44 96 47 142 100 163 189 16 66 16 75 2 109
-20 48 -56 85 -120 125 -27 17 -61 38 -75 47 -33 21 -158 71 -176 71 -8 0 -26
11 -39 25 -26 25 -28 47 -27 416 0 61 -2 68 -25 78 -13 6 -25 10 -26 10 -1 -1
-9 -3 -17 -5z m177 -689 c99 -33 163 -64 185 -90 26 -30 23 -76 -8 -105 -14
-14 -39 -39 -57 -57 -21 -21 -46 -34 -72 -39 -92 -14 -144 -15 -165 -4 -22 12
-22 16 -15 84 10 82 13 134 14 194 1 51 8 52 118 17z"/>
<path d="M34815 9290 c-16 -11 -46 -25 -66 -30 -33 -9 -38 -15 -53 -68 -10
-31 -22 -68 -27 -82 -5 -14 -15 -59 -22 -100 l-13 -75 -64 -6 c-78 -7 -134
-29 -150 -59 -10 -19 -8 -26 16 -51 30 -31 100 -59 150 -59 29 0 32 -3 38 -38
3 -21 1 -65 -4 -98 -6 -32 -10 -109 -10 -171 0 -109 1 -112 26 -132 31 -24 76
-27 94 -6 7 8 11 42 10 85 0 38 0 76 0 83 8 117 11 151 18 202 l7 60 125 0
c118 0 127 1 153 24 37 33 34 47 -15 73 -44 22 -101 35 -196 45 -68 6 -74 19
-57 108 24 124 68 182 131 172 20 -3 41 -13 48 -21 14 -20 105 -37 128 -25 17
9 17 12 2 47 -9 20 -18 42 -20 48 -3 6 -23 18 -44 28 -22 10 -40 21 -40 26 0
9 -96 40 -122 40 -7 0 -26 -9 -43 -20z"/>
<path d="M35828 9223 c-21 -3 -28 -10 -28 -27 0 -12 -5 -27 -11 -33 -7 -7 -6
-22 5 -49 14 -39 28 -188 19 -211 -3 -8 -23 -13 -46 -14 -67 -1 -134 -14 -148
-30 -63 -68 -61 -63 -43 -98 l16 -32 97 1 c53 1 103 1 112 1 24 -1 29 -42 17
-166 -5 -60 -11 -141 -13 -178 -3 -37 -7 -72 -11 -78 -10 -16 36 -75 69 -87
25 -10 34 -8 56 8 25 17 27 24 23 72 -1 29 -3 58 -4 63 0 6 5 57 11 114 6 57
11 124 11 150 0 26 6 56 14 66 14 19 17 19 103 3 162 -31 170 -32 182 -9 15
27 -2 68 -34 83 -14 6 -25 16 -25 22 0 19 -31 32 -130 56 -52 12 -102 26 -110
30 -11 5 -18 35 -25 101 -5 52 -14 100 -18 107 -5 6 -5 17 -1 23 3 6 2 21 -4
32 -6 12 -16 37 -24 55 -7 17 -17 31 -23 31 -5 -1 -22 -4 -37 -6z"/>
<path d="M36513 9104 c-24 -10 -33 -20 -33 -39 0 -28 20 -75 32 -75 4 0 8 -11
8 -24 0 -14 4 -27 9 -30 5 -3 12 -32 16 -63 3 -32 9 -74 13 -93 3 -19 6 -48 6
-65 l1 -30 -72 1 c-43 0 -78 5 -87 13 -32 26 -96 -25 -96 -76 0 -32 81 -72
195 -97 17 -4 42 -12 58 -18 24 -9 27 -14 21 -43 -3 -18 -1 -43 6 -55 8 -15 8
-25 0 -34 -7 -9 -7 -22 -1 -39 6 -16 6 -28 0 -34 -6 -6 -10 -40 -10 -77 0 -81
16 -111 63 -119 27 -4 38 0 58 22 24 26 25 33 24 127 -1 54 -5 131 -9 170 -5
47 -4 74 3 78 6 3 55 13 109 20 54 8 112 21 128 30 17 9 38 13 47 10 10 -3 28
4 42 18 19 18 24 32 23 63 l-2 40 -70 1 c-38 1 -115 -2 -170 -7 -126 -10 -127
-9 -139 96 -1 17 -6 46 -10 65 -4 19 -8 42 -10 50 -1 8 -9 34 -16 57 -12 38
-11 45 4 62 17 19 17 21 -22 48 -22 15 -43 36 -45 46 -6 20 -30 21 -74 1z"/>
<path d="M35220 8826 c-25 -6 -57 -19 -70 -29 -13 -9 -31 -17 -38 -17 -19 0
-100 -89 -119 -130 -22 -50 -22 -199 0 -231 10 -13 17 -35 17 -50 0 -16 7 -29
18 -33 9 -3 37 -21 62 -40 25 -19 48 -35 53 -35 4 -1 25 -12 47 -26 22 -14 47
-25 55 -25 9 0 26 -7 39 -16 35 -22 192 -37 220 -20 11 8 37 17 57 20 46 8 70
49 39 66 -11 6 -20 17 -20 25 0 12 -17 15 -82 17 -46 0 -95 0 -110 -1 -14 -1
-49 10 -76 24 -27 14 -56 23 -65 19 -10 -3 -17 -1 -17 5 0 6 -8 11 -19 11 -19
0 -71 36 -71 49 0 4 26 12 58 18 54 10 106 29 142 52 8 5 33 18 55 28 67 31
106 66 131 117 21 43 23 54 13 90 -6 23 -22 53 -37 68 -48 51 -180 72 -282 44z
m163 -117 c20 -5 37 -12 37 -15 0 -11 -66 -64 -80 -64 -8 0 -33 -9 -55 -19
-49 -23 -124 -41 -168 -40 -17 0 -26 3 -19 6 6 2 12 13 12 24 0 10 4 19 9 19
5 0 11 9 14 20 3 13 11 18 20 14 9 -3 20 2 26 14 6 11 23 24 38 30 25 10 42
13 113 20 8 1 32 -3 53 -9z"/>
<path d="M36328 7769 c-28 -11 -34 -28 -30 -84 3 -46 13 -246 16 -315 2 -41 6
-95 9 -120 24 -181 25 -209 2 -237 -1 -2 -48 4 -104 12 l-103 16 -82 -27 c-96
-32 -153 -80 -186 -156 -43 -99 3 -220 109 -289 31 -20 70 -40 86 -44 178 -42
311 -41 346 1 6 8 19 14 28 14 9 0 29 16 44 36 16 19 35 33 42 30 9 -3 35 31
35 47 0 1 -16 11 -35 21 -31 17 -40 17 -82 6 -26 -7 -57 -18 -68 -25 -24 -14
-82 -25 -140 -25 -22 0 -53 0 -69 0 -16 0 -62 16 -103 36 -67 33 -74 40 -69
61 4 13 2 23 -4 23 -5 0 -10 13 -10 30 0 21 12 42 44 76 44 45 45 46 123 51
71 5 80 3 97 -16 11 -11 31 -21 45 -21 18 0 44 -19 93 -70 37 -38 74 -70 81
-70 16 0 57 41 57 57 0 6 7 13 15 17 22 8 18 26 -15 75 -19 28 -28 51 -24 63
3 10 0 34 -6 52 -6 19 -13 76 -15 128 -4 91 -11 192 -20 273 -2 21 -1 42 4 45
9 6 -7 161 -18 173 -4 4 -3 25 2 46 8 29 7 47 -5 77 -17 43 -41 51 -90 33z"/>
<path d="M34041 7731 c-19 -26 -20 -39 -16 -212 2 -101 8 -215 13 -254 6 -42
6 -77 0 -88 -5 -9 -6 -22 -3 -27 9 -14 1 -13 -82 11 -62 17 -82 18 -129 10
-50 -9 -113 -42 -122 -63 -2 -4 -10 -8 -18 -8 -7 0 -16 -11 -20 -24 -3 -14
-14 -32 -25 -42 -10 -9 -19 -25 -19 -36 0 -10 -5 -18 -11 -18 -18 0 11 -204
32 -225 5 -5 9 -17 9 -27 0 -16 57 -52 76 -46 5 1 25 -6 44 -16 29 -16 49 -18
126 -13 83 5 100 10 186 52 53 25 104 55 113 65 10 11 23 20 29 20 6 0 19 17
27 37 13 29 14 44 6 68 -12 35 -52 101 -67 110 -7 4 -7 13 1 27 9 17 8 24 -3
32 -36 26 -54 435 -23 510 14 33 14 39 -1 61 -11 17 -15 37 -11 59 11 66 -72
94 -112 37z m-86 -717 c72 -33 130 -89 137 -131 4 -29 -29 -63 -62 -63 -15 0
-44 -7 -63 -15 -45 -19 -207 -21 -207 -3 0 6 -7 20 -16 30 -11 11 -17 34 -16
65 1 83 7 94 69 133 50 32 59 31 158 -16z"/>
<path d="M34351 7194 c-12 -28 -10 -57 16 -169 14 -64 45 -158 63 -195 4 -8
13 -40 21 -70 17 -69 46 -120 67 -120 10 0 31 -9 47 -20 44 -29 89 -26 119 8
36 40 75 117 82 163 4 22 11 42 15 45 5 3 9 14 9 25 0 25 37 99 50 99 5 0 12
20 15 44 7 42 14 57 59 121 l20 28 -28 23 c-15 13 -37 24 -49 24 -29 0 -109
-76 -105 -98 2 -9 -11 -46 -29 -81 -19 -35 -31 -71 -28 -81 3 -11 -1 -20 -10
-24 -9 -3 -15 -11 -13 -18 1 -7 -6 -41 -17 -75 -14 -43 -25 -63 -36 -63 -22 0
-71 39 -63 51 3 6 -3 33 -15 62 -19 48 -70 255 -74 302 -3 25 -33 44 -73 45
-24 0 -34 -6 -43 -26z"/>
<path d="M37757 7173 c-15 -2 -55 -20 -88 -39 -34 -19 -67 -34 -75 -34 -8 0
-14 -6 -14 -14 0 -8 -10 -22 -21 -30 -30 -20 -89 -115 -89 -142 0 -8 -4 -14
-10 -14 -5 0 -10 -4 -10 -10 0 -5 -9 -19 -20 -30 -11 -11 -20 -29 -20 -41 0
-34 -25 -15 -28 22 -4 43 -27 69 -61 69 -21 0 -30 -9 -48 -44 -12 -26 -17 -46
-11 -48 5 -2 11 -18 12 -35 2 -18 8 -38 13 -45 15 -19 32 -84 27 -105 -3 -11
11 -34 36 -61 22 -24 40 -47 40 -52 0 -12 70 -13 85 -2 13 8 31 86 40 164 3
31 13 62 21 69 8 6 14 18 14 27 0 8 11 30 25 48 14 18 25 38 25 45 0 23 95
100 160 130 47 22 75 29 100 26 20 -3 51 2 72 12 31 13 38 21 38 44 0 16 -8
42 -17 58 -16 26 -22 29 -73 29 -30 0 -64 2 -75 4 -11 2 -32 1 -48 -1z"/>
<path d="M35377 7127 c-15 -6 -61 -44 -102 -83 -42 -40 -84 -75 -94 -79 -12
-3 -34 -36 -54 -78 -30 -60 -35 -84 -37 -145 -1 -91 8 -108 91 -151 93 -49
132 -42 210 35 32 32 59 63 59 69 0 6 14 24 30 40 17 16 30 37 30 47 0 28 15
22 82 -32 49 -39 70 -50 97 -50 50 0 60 10 56 52 -5 51 -22 78 -49 78 -17 0
-34 15 -61 55 -21 30 -43 55 -49 55 -6 1 -26 14 -45 30 -26 22 -32 32 -24 42
6 7 13 28 15 47 3 30 -2 38 -31 58 -36 25 -78 28 -124 10z m76 -165 c-13 -9
-31 -41 -41 -70 -11 -29 -24 -58 -31 -65 -6 -6 -11 -22 -11 -36 0 -34 -7 -42
-57 -68 -102 -55 -134 2 -60 107 17 25 35 47 39 48 5 2 15 11 24 19 54 54 98
83 127 83 l32 0 -22 -18z"/>
<path d="M36935 7130 c-16 -4 -46 -8 -65 -9 -28 -1 -47 -12 -94 -56 -54 -51
-96 -113 -96 -141 0 -7 -13 -22 -28 -32 -24 -18 -27 -25 -24 -64 2 -23 10 -50
17 -58 7 -8 15 -31 18 -50 5 -38 62 -142 97 -177 12 -12 49 -38 82 -57 51 -31
68 -36 123 -36 79 0 172 40 233 100 44 42 50 58 30 78 -15 15 -80 16 -95 1
-16 -16 -177 -47 -210 -41 -16 3 -47 18 -70 34 -40 27 -43 32 -43 73 0 43 1
45 28 45 70 0 238 76 276 126 43 55 51 113 23 170 -18 38 -31 50 -83 75 -65
30 -71 31 -119 19z m63 -152 c12 -6 22 -15 22 -19 0 -10 -172 -65 -192 -61
-34 7 12 66 72 94 18 8 66 1 98 -14z"/>
<path d="M33584 6057 c-26 -23 -26 -24 -15 -83 7 -32 14 -71 15 -85 2 -15 7
-45 11 -68 4 -22 9 -96 11 -163 3 -68 5 -130 6 -138 3 -38 -14 -260 -23 -300
-5 -25 -10 -49 -10 -55 2 -51 12 -80 34 -103 l27 -26 37 21 c36 21 38 25 38
70 0 26 6 58 13 70 7 13 10 33 7 46 -4 13 -1 52 5 86 23 129 87 193 134 133
12 -15 28 -34 36 -42 15 -16 35 -74 49 -145 5 -22 15 -60 24 -85 10 -28 14
-59 10 -82 -5 -32 -2 -41 18 -58 13 -10 39 -19 57 -20 30 0 32 2 32 38 0 20
-5 55 -11 77 -7 22 -13 56 -14 75 -3 37 -6 52 -28 142 -28 110 -103 235 -157
263 -54 27 -86 28 -112 2 -28 -30 -64 -42 -74 -26 -4 6 -6 82 -6 168 1 86 -3
173 -9 194 -7 26 -7 43 0 51 7 8 0 19 -24 39 -41 33 -47 33 -81 4z"/>
<path d="M35698 6058 c-31 -11 -33 -18 -17 -68 6 -19 13 -96 15 -170 12 -439
12 -515 3 -527 -7 -7 -7 -18 -1 -30 10 -19 9 -92 -3 -135 -6 -23 -3 -28 28
-43 40 -19 58 -13 104 33 29 29 34 55 16 87 -7 13 -11 88 -12 195 0 96 -2 238
-6 315 -3 77 -7 184 -9 237 -2 53 -7 102 -11 107 -8 13 -70 13 -107 -1z"/>
<path d="M34557 5738 c-7 -4 -24 -8 -39 -8 -31 0 -168 -51 -215 -80 -79 -48
-76 -103 8 -178 29 -26 108 -101 175 -167 89 -88 123 -129 129 -152 l7 -33
-48 0 c-63 0 -169 19 -189 34 -9 6 -17 22 -18 35 -3 48 -87 54 -108 7 -9 -19
-6 -32 15 -73 28 -52 35 -57 185 -117 77 -31 114 -33 148 -6 14 11 33 20 42
20 29 0 69 52 77 97 8 53 -10 93 -65 148 -23 21 -41 42 -41 46 0 4 -13 21 -30
39 -16 18 -30 36 -30 41 0 5 -31 39 -70 75 -38 37 -70 70 -70 74 0 9 96 42
180 61 30 7 62 19 71 26 8 7 19 13 22 13 16 0 77 46 77 57 0 28 -51 46 -127
47 -41 1 -80 -2 -86 -6z"/>
<path d="M35050 5578 c-19 -13 -44 -34 -55 -47 -23 -29 -56 -117 -47 -126 4
-3 0 -10 -8 -15 -22 -13 -16 -93 10 -165 29 -77 35 -84 97 -111 28 -13 54 -28
58 -34 13 -20 95 -50 138 -50 57 0 136 54 174 117 25 43 28 57 27 138 -1 82
-4 95 -33 146 -19 35 -48 67 -74 85 -23 15 -49 36 -57 45 -15 17 -109 39 -164
39 -17 0 -47 -10 -66 -22z m210 -176 c68 -47 78 -71 57 -143 -14 -46 -23 -57
-57 -77 -46 -26 -102 -32 -108 -12 -5 15 -28 37 -64 63 -31 22 -42 81 -22 114
8 12 14 31 14 41 0 10 10 29 21 41 18 20 28 22 63 17 22 -4 66 -24 96 -44z"/>
<path d="M36290 5584 c-70 -22 -101 -40 -150 -86 -40 -37 -90 -120 -90 -147 0
-5 -6 -13 -13 -20 -9 -7 -12 -28 -11 -58 5 -75 11 -95 43 -127 27 -27 33 -28
56 -18 45 21 99 15 125 -13 13 -14 29 -25 35 -25 6 0 36 -12 66 -27 49 -25 64
-28 159 -27 120 0 143 9 213 78 69 67 74 154 16 240 -33 50 -148 166 -163 166
-6 0 -27 11 -47 24 -20 14 -65 30 -100 36 -35 6 -71 13 -79 14 -8 2 -35 -2
-60 -10z m238 -182 c47 -16 127 -104 117 -130 -3 -7 -5 -26 -5 -41 0 -17 -11
-40 -28 -57 -24 -25 -36 -29 -92 -32 -36 -2 -98 4 -138 13 -40 8 -87 15 -103
15 -22 0 -32 6 -39 24 -5 14 -20 32 -34 41 -39 26 -41 58 -6 106 31 43 111 89
155 89 13 0 26 4 29 9 5 8 34 1 144 -37z"/>
<path d="M33732 4460 c-19 -25 -22 -38 -17 -78 3 -26 7 -99 9 -163 2 -64 6
-122 10 -128 4 -6 3 -11 -1 -11 -5 0 -8 -15 -6 -32 7 -77 21 -453 23 -638 1
-41 4 -48 42 -74 l41 -29 19 24 c17 22 18 36 13 154 -12 283 -15 369 -20 603
-4 171 -3 248 5 257 14 17 -2 80 -29 112 -31 37 -63 39 -89 3z"/>
<path d="M35190 4151 c-40 -12 -102 -56 -130 -90 -14 -17 -29 -31 -35 -31 -5
0 -11 -11 -11 -25 -3 -41 -31 -75 -62 -75 -33 0 -45 -8 -61 -38 -14 -27 -4
-143 13 -154 6 -4 12 -33 13 -65 5 -152 24 -218 69 -248 26 -17 72 -14 85 6 3
5 2 35 -2 66 -4 30 -7 110 -6 177 2 119 3 122 41 201 67 137 91 156 201 160
89 3 105 10 105 45 0 47 -60 81 -143 79 -29 0 -63 -4 -77 -8z"/>
<path d="M38015 4039 c-22 -5 -51 -15 -65 -23 -14 -7 -41 -16 -60 -20 -19 -3
-52 -18 -72 -31 -21 -14 -42 -25 -47 -25 -5 0 -12 -7 -15 -15 -3 -9 -22 -23
-41 -31 -21 -8 -45 -29 -57 -49 -11 -19 -24 -35 -29 -35 -5 0 -9 -9 -9 -19 0
-11 -4 -22 -9 -25 -12 -8 -13 -130 -1 -162 6 -14 34 -50 64 -78 48 -47 60 -54
109 -59 42 -5 64 -3 94 11 52 23 122 81 140 115 8 15 22 36 31 46 9 10 25 32
34 49 9 18 22 32 27 32 10 0 81 -113 81 -128 0 -12 83 -98 112 -115 32 -20 70
-22 101 -4 12 6 23 13 25 13 9 4 -20 54 -32 54 -14 0 -86 97 -86 117 0 6 -7
13 -15 17 -8 3 -23 25 -34 48 -34 77 -51 112 -75 154 -22 40 -26 104 -5 104 5
0 9 7 9 15 0 8 -6 15 -14 15 -8 0 -18 9 -21 20 -5 16 -15 20 -53 19 -26 -1
-65 -5 -87 -10z m-37 -210 c0 -18 -6 -38 -14 -46 -8 -8 -14 -25 -14 -37 0 -13
-9 -31 -20 -41 -12 -10 -18 -25 -16 -32 4 -8 -5 -18 -22 -25 -15 -6 -37 -15
-49 -21 -15 -7 -34 -7 -55 -1 -30 9 -33 13 -33 49 0 42 31 85 61 85 8 0 19 11
24 25 5 14 21 27 37 31 15 4 42 16 58 26 40 24 42 23 43 -13z"/>
<path d="M34325 4013 c-82 -43 -114 -74 -131 -125 -9 -27 -19 -48 -22 -48 -4
0 -13 -13 -20 -30 -19 -42 -22 -160 -7 -263 12 -83 15 -90 52 -122 40 -36 58
-41 83 -25 10 6 32 -1 76 -25 60 -34 117 -45 128 -26 3 5 18 12 33 15 36 10
127 89 147 129 9 18 20 39 25 47 42 71 48 231 13 298 -12 23 -31 48 -42 54
-11 7 -20 18 -20 24 0 19 -61 73 -113 98 -69 35 -136 35 -202 -1z m217 -163
c24 -16 50 -42 57 -56 15 -34 4 -137 -20 -185 -22 -44 -92 -119 -111 -119 -8
0 -18 -4 -23 -9 -18 -17 -84 -17 -97 0 -7 8 -25 23 -40 32 -80 50 -48 291 46
348 50 31 132 26 188 -11z"/>
<path d="M35885 4032 c-11 -2 -44 -21 -75 -40 -30 -20 -62 -41 -71 -47 -8 -5
-31 -20 -50 -32 -19 -12 -41 -28 -49 -35 -8 -7 -22 -17 -31 -23 -9 -5 -41 -30
-70 -54 -96 -78 -147 -228 -105 -309 8 -16 13 -32 11 -34 -6 -6 81 -80 114
-98 34 -17 97 2 205 63 41 23 144 140 176 199 19 35 38 42 50 18 14 -27 40
-122 40 -145 0 -13 4 -35 10 -49 5 -14 18 -89 29 -168 23 -165 23 -318 0 -345
-8 -10 -27 -37 -43 -60 -31 -46 -70 -69 -149 -85 -46 -10 -58 -9 -101 10 -27
12 -55 22 -63 22 -39 0 -120 130 -109 175 5 19 1 23 -25 27 -33 5 -109 -11
-109 -23 0 -4 8 -10 18 -13 11 -4 26 -35 44 -91 32 -100 51 -120 157 -172 68
-33 81 -36 170 -37 89 -1 101 1 162 32 37 18 70 39 73 47 3 8 12 15 20 15 8 0
17 14 21 33 4 17 11 37 17 44 18 22 46 132 51 203 2 19 -1 73 -6 120 -5 47
-11 110 -12 140 -2 30 -6 62 -9 70 -3 8 -10 35 -15 60 -8 41 -40 181 -61 270
-19 79 -27 107 -38 127 -7 12 -12 33 -12 46 0 14 -13 39 -30 57 -16 18 -30 35
-30 40 0 25 -66 52 -105 42z m33 -176 c6 -30 -48 -149 -89 -196 -61 -71 -89
-97 -118 -110 -14 -7 -40 -19 -56 -26 -22 -11 -42 -12 -70 -6 -36 7 -40 11
-43 41 -4 39 15 70 76 125 24 23 59 56 78 74 18 17 38 32 44 32 13 0 93 45
129 72 28 21 45 19 49 -6z"/>
<path d="M36533 3983 c-18 -9 -60 -42 -92 -74 -33 -31 -69 -60 -81 -64 -12 -4
-19 -10 -15 -13 3 -3 -23 -35 -59 -71 -73 -76 -116 -150 -116 -202 0 -30 6
-41 35 -63 19 -15 54 -34 77 -42 55 -20 191 -28 218 -14 31 17 109 101 127
138 8 17 20 32 25 32 5 0 18 -19 28 -43 29 -65 55 -94 105 -112 52 -20 82 -15
118 21 32 32 24 57 -26 78 -18 7 -39 22 -48 32 -27 33 -59 94 -59 115 0 11 -7
33 -15 49 -9 17 -13 40 -9 54 4 15 1 25 -9 29 -8 3 -18 21 -22 39 -22 111 -94
155 -182 111z m32 -172 c29 -132 -132 -310 -229 -253 -49 29 -55 17 89 176 37
42 74 76 80 76 7 0 18 7 25 15 18 22 28 18 35 -14z"/>
<path d="M37071 3940 c-28 -22 -59 -40 -69 -40 -24 0 -49 -28 -55 -60 -2 -14
-6 -32 -10 -40 -6 -16 -7 -27 -8 -107 0 -29 -5 -53 -10 -53 -31 0 21 -114 65
-141 40 -24 95 -25 102 -1 3 9 10 25 15 35 5 10 7 22 3 28 -3 6 -8 45 -10 87
-4 66 -1 83 19 122 22 43 26 45 64 44 103 -3 175 -102 187 -259 3 -27 5 -53 5
-56 2 -11 80 -59 97 -59 9 0 23 8 30 18 16 20 18 124 3 139 -5 5 -16 34 -24
64 -24 95 -47 149 -76 180 -16 17 -29 34 -29 38 0 14 -65 68 -102 84 -20 10
-61 17 -91 17 -49 0 -61 -4 -106 -40z"/>
<path d="M7787 9933 c-15 -15 -50 -16 -359 -15 -327 2 -373 -1 -433 -28 -26
-12 -130 -24 -552 -61 -67 -6 -128 -7 -135 -2 -7 4 -112 9 -233 11 -121 2
-251 4 -290 4 -38 1 -119 -1 -180 -5 -81 -4 -134 -1 -200 11 -89 16 -250 17
-1105 9 -80 -1 -230 -1 -335 0 -104 0 -386 0 -625 -1 -239 -1 -496 1 -570 5
-95 5 -137 3 -142 -5 -4 -7 -32 -10 -69 -9 -49 2 -67 -2 -95 -21 -19 -12 -31
-26 -28 -29 4 -4 1 -27 -6 -51 -12 -45 -12 -45 34 -115 l47 -70 -17 -32 c-11
-22 -15 -48 -12 -80 3 -26 1 -55 -4 -64 -7 -11 -5 -22 5 -33 15 -17 15 -30 3
-92 -3 -19 -8 -85 -10 -145 -3 -73 -9 -124 -20 -150 -12 -28 -16 -64 -15 -117
2 -71 0 -79 -22 -97 -21 -17 -22 -21 -9 -36 12 -15 12 -19 -3 -30 -14 -10 -18
-32 -21 -121 -2 -60 -7 -116 -10 -124 -3 -8 -8 -62 -10 -120 -8 -170 -17 -274
-28 -293 -5 -9 -7 -21 -4 -25 4 -8 -1 -50 -28 -233 -9 -58 -15 -142 -13 -187
2 -45 0 -85 -4 -89 -4 -5 -10 -69 -12 -143 -3 -74 -8 -180 -10 -235 -2 -55 1
-114 6 -131 7 -20 6 -53 -2 -100 -7 -38 -14 -148 -15 -244 -2 -96 -7 -188 -11
-204 -5 -18 -4 -31 3 -35 8 -5 9 -22 1 -61 -12 -63 -12 -71 -5 -200 3 -59 1
-105 -5 -123 -8 -18 -8 -31 -1 -40 15 -18 1 -302 -17 -349 -5 -14 -6 -30 -1
-37 4 -7 3 -29 -3 -50 -12 -44 -16 -431 -5 -568 14 -188 14 -197 -1 -216 -11
-13 -12 -22 -3 -42 10 -21 9 -31 -4 -51 -13 -19 -14 -30 -7 -47 7 -15 7 -41 1
-77 -14 -84 -20 -123 -19 -145 1 -11 0 -38 -1 -60 -3 -89 2 -128 17 -145 14
-16 14 -18 -1 -24 -13 -5 -15 -15 -11 -48 3 -22 2 -50 -3 -62 -4 -12 -5 -41
-1 -63 5 -22 5 -81 1 -129 -4 -49 -4 -98 0 -108 3 -11 1 -36 -7 -58 -16 -46
-15 -218 1 -239 19 -25 59 -49 82 -49 12 0 29 -10 37 -23 18 -27 105 -55 217
-68 41 -5 80 -9 85 -9 114 2 281 10 324 15 31 3 99 8 151 10 123 5 198 13 213
22 12 7 25 8 282 17 196 8 307 14 360 22 48 7 72 9 290 24 94 7 233 12 310 12
167 0 625 -11 710 -18 53 -4 363 -5 470 -2 22 1 141 -2 265 -6 124 -4 290 -9
370 -11 80 -2 278 1 440 7 162 6 410 9 550 8 393 -5 476 -5 748 2 173 5 262 4
280 -4 15 -6 74 -12 132 -15 58 -2 141 -5 185 -6 44 -2 112 2 150 8 55 9 78 9
106 -1 31 -10 46 -10 90 3 42 12 62 13 103 5 80 -17 255 -33 321 -29 33 2 69
1 80 -3 12 -5 61 -4 109 1 58 6 131 5 210 -2 66 -6 154 -13 194 -16 39 -2 72
-8 72 -13 0 -4 42 -8 93 -9 52 0 116 -6 143 -12 36 -9 245 -13 784 -14 767 -1
1025 -11 1046 -40 7 -9 14 -11 20 -5 5 5 54 11 109 14 55 2 170 11 255 20 216
21 745 18 778 -6 25 -17 79 -11 107 12 9 7 37 12 68 10 28 -1 72 -2 97 -1 193
6 439 6 458 -1 12 -4 55 -3 95 2 40 6 122 12 182 14 61 3 149 8 198 12 63 5
87 4 87 -5 0 -15 30 -14 71 3 34 14 283 40 342 35 18 -2 56 3 86 11 65 15 249
19 377 6 116 -11 160 1 172 47 8 28 6 33 -14 42 -12 6 -30 18 -41 27 -10 9
-36 18 -58 20 -36 3 -40 6 -47 38 -4 19 -9 95 -12 168 -4 123 -3 134 15 145
22 13 25 27 7 27 -9 0 -14 20 -15 62 -1 35 -2 74 -3 88 -1 19 6 237 10 325 1
6 -1 39 -4 75 -3 37 0 70 5 77 6 7 8 16 6 20 -3 5 -9 65 -12 133 -4 69 -10
157 -15 195 -4 39 -3 78 1 87 6 10 5 19 -2 23 -7 5 -8 68 -4 198 4 106 8 291
10 412 3 308 15 831 24 1080 4 116 5 246 4 290 -2 44 -4 87 -4 95 3 133 -6
399 -15 441 -14 68 -19 245 -17 584 1 131 -17 369 -36 475 -12 73 -14 797 -2
804 6 4 4 17 -5 34 -7 15 -11 35 -8 45 3 10 1 39 -6 66 -7 32 -8 55 -1 73 13
34 -8 79 -49 108 -36 25 -50 25 -50 0 0 -29 -23 -34 -62 -14 -18 10 -46 19
-63 20 -16 2 -48 7 -70 13 -22 6 -71 11 -109 11 -69 0 -112 6 -306 41 -122 22
-147 22 -620 14 -364 -6 -401 -7 -483 -20 -31 -5 -52 -3 -61 4 -10 8 -16 9
-21 1 -8 -13 -78 -13 -92 1 -7 7 -22 8 -47 1 -23 -7 -48 -7 -69 -1 -17 5 -111
12 -207 14 -96 3 -206 8 -245 11 -38 4 -124 8 -190 9 -66 2 -160 6 -210 10
-211 15 -266 17 -375 20 -552 11 -701 16 -741 25 -25 6 -50 10 -55 9 -5 -2
-40 2 -79 9 -193 31 -482 43 -553 23 -15 -5 -94 -4 -177 1 -260 17 -905 22
-967 8 -21 -4 -40 -4 -46 2 -6 6 -23 6 -48 -1 -32 -9 -43 -7 -67 8 -29 19 -31
19 -65 -1 -31 -17 -56 -19 -256 -20 -121 0 -234 0 -251 1 -16 1 -158 3 -315 3
-324 1 -362 3 -480 19 -47 6 -98 11 -115 10 -16 0 -39 6 -52 14 -28 19 -35 19
-56 -2z m2658 -210 c105 -8 356 -5 389 5 16 4 59 4 95 0 36 -4 80 -9 96 -9 32
-2 169 -20 330 -46 84 -13 228 -18 335 -11 14 1 102 -2 195 -7 94 -5 226 -10
295 -11 69 -1 152 -5 185 -8 33 -3 172 -8 308 -10 218 -4 348 -10 492 -21 22
-1 74 -8 115 -14 41 -6 101 -12 132 -12 63 -1 86 -16 70 -46 -5 -10 -10 -29
-10 -43 0 -14 -4 -65 -10 -115 -13 -103 -13 -175 -1 -175 5 0 4 -11 -1 -24
-11 -29 -13 -180 -4 -346 4 -69 6 -161 4 -205 -4 -132 -4 -147 3 -220 6 -66 7
-78 7 -107 0 -7 2 -71 5 -143 11 -260 11 -370 2 -382 -5 -7 -5 -18 -1 -25 5
-7 7 -56 5 -108 -8 -237 -4 -469 8 -484 7 -8 12 -34 11 -58 0 -24 0 -52 1 -63
4 -46 1 -206 -4 -211 -3 -3 -22 7 -43 22 -52 40 -97 55 -184 63 -95 9 -190 -2
-291 -34 -44 -14 -92 -25 -107 -25 -15 0 -49 -12 -77 -25 -27 -14 -75 -33
-105 -42 -30 -8 -69 -26 -87 -39 -17 -13 -36 -24 -41 -24 -5 0 -15 -7 -22 -15
-7 -9 -20 -13 -29 -10 -9 2 -38 -3 -65 -13 -58 -20 -80 -60 -52 -91 9 -10 16
-31 16 -47 0 -54 143 -274 178 -274 3 0 30 -12 61 -27 98 -49 202 -31 294 49
32 28 38 39 38 73 0 22 6 53 11 68 7 19 8 31 1 35 -5 4 -15 28 -22 53 -13 46
-58 103 -116 146 -36 27 -28 35 55 58 53 15 73 23 123 45 12 6 76 12 142 13
110 2 123 0 158 -21 20 -13 40 -35 43 -48 3 -13 10 -24 16 -24 12 0 37 -61 48
-118 7 -37 5 -48 -7 -58 -9 -6 -13 -16 -9 -23 20 -31 -107 -133 -154 -124 -20
3 -29 -2 -43 -26 -21 -36 -13 -58 32 -90 25 -18 33 -19 62 -10 19 7 38 16 43
20 6 5 20 9 33 9 12 0 27 9 33 20 11 21 68 55 78 46 3 -3 5 -65 4 -138 -1 -73
-2 -142 -1 -153 2 -147 -3 -326 -11 -359 -5 -22 -10 -64 -10 -91 0 -28 -4 -55
-9 -60 -5 -6 -12 -77 -15 -160 -3 -82 -8 -163 -11 -180 -3 -16 -8 -64 -10
-105 -2 -41 -8 -120 -14 -175 -5 -55 -7 -104 -4 -108 3 -4 1 -16 -3 -25 -6
-15 -14 -199 -16 -414 -1 -43 -5 -78 -10 -78 -5 0 -6 -19 -3 -44 4 -24 2 -52
-3 -63 -6 -10 -15 -52 -21 -93 -18 -134 -21 -154 -32 -223 -6 -38 -9 -70 -6
-73 2 -3 0 -22 -5 -42 -5 -20 -11 -75 -13 -122 -6 -114 -13 -140 -38 -149 -12
-4 -71 -6 -132 -4 -108 4 -133 4 -157 3 -7 -1 -29 3 -49 8 -20 5 -57 6 -85 1
-64 -11 -403 -30 -574 -32 -74 -1 -191 4 -260 10 -127 12 -369 27 -405 25
-109 -4 -662 -11 -855 -10 -135 0 -274 0 -310 -1 -36 -1 -135 8 -220 19 -243
33 -316 40 -455 48 l-130 7 -20 40 c-18 33 -20 49 -13 95 4 30 5 64 1 75 -10
33 -5 227 8 273 9 34 9 48 -1 66 -7 13 -9 37 -6 52 6 30 7 301 2 499 -2 61 -1
114 2 120 9 15 9 275 0 360 -5 44 -13 84 -19 90 -12 12 -12 52 1 60 6 4 8 26
5 53 -12 102 -13 147 -4 159 6 7 7 19 2 30 -5 10 -8 43 -7 73 3 135 15 368 19
395 7 39 15 274 15 440 1 72 1 220 1 330 0 110 2 243 4 295 3 52 6 239 9 415
4 234 9 334 20 372 10 39 12 72 6 130 -14 132 -17 211 -10 224 5 6 2 29 -5 49
-7 20 -13 53 -13 73 0 20 -4 42 -8 49 -5 7 -10 83 -11 168 -1 85 -5 214 -9
285 -7 130 -8 178 -7 290 1 33 2 107 3 165 2 174 8 244 19 248 6 2 11 15 11
28 0 14 9 44 20 66 26 54 25 65 -6 81 -25 13 -21 14 62 20 80 5 261 -7 272
-17 2 -3 16 0 31 6 14 5 67 10 116 10 50 0 110 3 135 8 25 4 59 6 75 3 17 -3
62 -7 100 -10z m-2320 -8 c61 -4 123 -6 139 -6 15 0 35 -6 42 -14 12 -11 20
-12 42 -3 18 8 111 10 287 8 358 -4 797 -1 803 5 9 9 56 5 72 -5 8 -5 10 -10
4 -10 -16 0 -25 -41 -13 -56 7 -9 7 -20 -2 -36 -7 -13 -13 -41 -14 -63 -1 -22
-6 -69 -12 -105 -7 -37 -9 -120 -6 -195 2 -71 6 -215 8 -320 7 -312 16 -508
26 -545 5 -19 9 -67 9 -107 0 -39 4 -74 9 -78 9 -5 5 -104 -4 -113 -2 -2 3
-19 11 -38 12 -28 12 -49 3 -121 -6 -49 -13 -171 -15 -273 -1 -102 -3 -187 -4
-190 -2 -4 0 -307 1 -335 0 -5 -5 -39 -11 -75 -6 -36 -13 -94 -15 -130 -2 -36
-4 -69 -5 -75 -4 -29 8 -323 14 -333 3 -6 2 -50 -4 -98 -18 -166 -26 -729 -18
-1339 1 -77 1 -201 0 -275 -1 -74 -1 -254 0 -400 1 -146 1 -292 -1 -325 -1
-33 -2 -72 -2 -87 -4 -254 0 -380 13 -395 6 -7 9 -16 6 -19 -8 -8 -113 -8
-238 0 -133 9 -151 9 -524 8 -153 -1 -282 0 -285 2 -12 8 -209 16 -351 15
-527 -2 -1062 5 -1079 15 -6 4 -9 11 -6 16 9 14 10 174 1 188 -7 12 1 159 9
173 4 6 8 212 5 234 -1 10 1 215 4 392 1 64 -2 104 -9 106 -6 2 -5 10 4 20 13
16 23 74 35 202 3 28 8 64 11 80 3 17 7 98 9 181 3 82 9 178 16 212 6 35 12
109 14 165 2 56 11 152 20 212 10 61 19 130 20 154 2 24 7 46 12 50 5 3 11 62
13 131 1 69 7 132 11 140 4 8 6 112 4 230 -4 274 -9 364 -22 420 -10 42 -8
182 3 240 11 58 20 652 13 970 0 24 10 122 17 155 9 45 12 813 4 903 -4 42
-10 151 -13 242 -7 188 -12 238 -25 273 -8 21 -7 27 7 30 26 7 831 0 957 -8z
m-2785 -30 c41 -4 165 -9 275 -10 110 -2 286 -7 390 -11 232 -8 484 -5 507 7
9 5 54 9 100 9 46 0 150 5 231 12 152 12 185 8 180 -24 -2 -7 4 -65 12 -128 9
-63 15 -121 14 -127 -2 -27 -1 -124 5 -253 7 -172 8 -613 2 -750 -3 -58 -8
-166 -11 -240 -3 -74 -9 -146 -14 -160 -4 -14 -5 -35 0 -46 4 -12 8 -82 8
-155 1 -74 1 -141 2 -149 5 -66 -10 -502 -18 -512 -9 -14 -9 -60 6 -418 13
-309 14 -332 3 -440 -5 -52 -8 -109 -5 -126 3 -19 -1 -35 -10 -43 -11 -8 -14
-23 -10 -45 3 -19 0 -67 -7 -107 -7 -41 -14 -84 -16 -96 -1 -12 -5 -27 -9 -33
-3 -6 -6 -60 -7 -120 0 -61 -4 -112 -8 -115 -5 -3 -6 -29 -3 -58 3 -33 1 -62
-6 -76 -8 -14 -14 -89 -17 -193 -3 -94 -7 -174 -9 -178 -2 -4 -5 -38 -6 -76
-1 -38 -6 -78 -12 -89 -5 -10 -9 -41 -8 -66 1 -26 -3 -50 -9 -54 -7 -4 -7 -13
1 -26 6 -11 7 -28 3 -37 -3 -9 -6 -61 -6 -115 0 -62 -5 -111 -13 -132 -8 -18
-12 -35 -9 -37 11 -12 25 -526 14 -533 -4 -3 -3 -28 1 -56 5 -29 5 -57 2 -62
-13 -22 -29 -157 -20 -166 20 -20 -3 -40 -57 -51 -31 -6 -65 -9 -75 -5 -11 3
-37 1 -58 -4 -111 -30 -637 -27 -703 3 -14 7 -60 11 -105 9 -44 -1 -175 -4
-291 -6 -116 -2 -216 -7 -223 -11 -17 -11 -341 6 -361 19 -4 2 -80 6 -169 9
-94 2 -167 9 -175 15 -7 6 -15 8 -18 5 -14 -13 -281 -36 -473 -40 -115 -2
-241 -9 -280 -14 -135 -19 -299 -26 -445 -20 -47 3 -91 1 -99 -4 -7 -5 -50
-11 -95 -13 -103 -5 -292 -21 -376 -32 -54 -7 -156 -7 -370 -2 -48 1 -88 21
-94 46 -7 29 -45 42 -74 26 -11 -6 -21 -8 -24 -6 -2 3 0 33 5 67 13 95 22 369
22 690 0 159 3 289 6 290 4 2 9 28 12 58 3 30 10 68 16 83 6 16 9 33 5 38 -7
12 -17 258 -17 419 1 232 14 373 35 386 5 3 2 15 -8 25 -15 16 -15 23 -5 47 9
19 12 91 10 262 -4 481 0 669 19 850 4 41 6 95 4 120 -5 68 -5 66 3 200 4 69
9 143 10 165 1 22 3 42 4 45 1 3 2 103 3 224 0 164 4 225 14 245 8 14 14 36
14 48 0 12 5 25 10 28 7 4 7 12 0 24 -6 12 -6 39 1 77 5 33 12 95 14 139 6
102 13 177 25 240 9 45 20 173 24 265 0 19 4 40 8 45 3 6 9 32 12 59 3 26 8
51 10 55 3 4 1 13 -4 21 -5 8 -3 22 6 35 8 12 13 32 13 46 -1 13 4 37 10 53 7
16 14 61 17 100 3 39 10 109 16 156 11 91 14 183 9 295 -2 39 -3 102 -2 142
l1 72 43 3 c85 6 2604 -1 2677 -7z m9257 -78 c80 -2 136 -7 145 -14 7 -7 28
-11 45 -11 18 1 39 -4 46 -10 8 -7 56 -15 108 -18 52 -4 119 -15 149 -25 49
-16 57 -16 72 -3 14 13 25 14 77 3 55 -10 61 -14 66 -41 11 -49 17 -339 12
-583 0 -41 14 -381 18 -405 23 -159 34 -303 29 -420 -2 -74 -7 -142 -10 -152
-3 -9 -1 -19 4 -22 5 -3 8 -79 7 -168 -1 -90 3 -179 7 -198 16 -62 31 -777 16
-786 -5 -3 -6 -14 -3 -24 3 -11 1 -36 -4 -57 -6 -22 -7 -39 -1 -43 5 -3 9 -26
10 -50 2 -70 -8 -401 -16 -540 -8 -134 -9 -185 -5 -295 3 -69 -5 -500 -8 -500
-7 0 -9 -291 -2 -299 5 -6 9 -77 9 -158 0 -80 3 -151 6 -157 4 -6 0 -24 -9
-40 -10 -21 -12 -32 -4 -37 14 -8 4 -585 -11 -658 -7 -32 -7 -53 0 -61 5 -6 7
-15 3 -19 -10 -10 -12 -175 -2 -182 5 -3 4 -14 -2 -25 -8 -17 -7 -23 7 -34 17
-12 16 -13 -4 -19 -13 -4 -92 -6 -176 -4 -136 3 -156 1 -173 -15 -18 -16 -36
-17 -189 -11 -124 5 -197 2 -274 -8 -58 -8 -118 -15 -135 -16 -16 -1 -104 -5
-195 -10 -91 -5 -223 -7 -295 -5 -71 3 -179 4 -240 2 -172 -6 -213 -5 -223 6
-15 16 17 257 35 272 17 13 11 43 -8 43 -7 0 -9 9 -4 28 10 40 16 74 16 97 -1
39 31 190 42 204 12 15 15 81 21 476 4 273 15 412 47 615 5 36 11 115 12 175
1 61 6 116 10 123 7 10 17 8 45 -10 33 -20 46 -22 181 -19 80 1 164 4 187 7
l41 5 -2 -48 c-1 -26 -6 -56 -10 -65 -4 -10 -5 -25 -1 -33 3 -8 -2 -19 -11
-23 -21 -12 -12 -91 13 -109 51 -37 109 0 132 83 8 27 20 66 28 87 8 20 14 48
14 62 0 14 8 29 19 34 22 12 151 2 151 -11 0 -5 13 -7 28 -3 16 3 40 1 54 -4
44 -16 96 4 115 45 17 34 17 35 -13 63 -28 28 -35 30 -172 40 -79 6 -148 13
-153 17 -5 3 -9 24 -8 47 2 81 -13 242 -24 256 -9 11 -9 15 0 18 19 7 5 54
-21 75 -28 23 -75 22 -106 -2 l-25 -19 23 -31 c16 -21 21 -37 16 -53 -4 -12
-8 -80 -9 -150 -1 -85 -6 -132 -14 -140 -9 -8 -57 -11 -164 -10 -126 1 -153 4
-163 18 -14 18 -2 84 17 95 6 5 10 14 7 22 -3 8 0 22 8 33 8 10 14 28 14 39 0
11 9 30 21 42 16 17 21 37 23 83 3 57 1 64 -25 86 -22 18 -35 22 -56 16 -15
-4 -28 -14 -28 -22 -1 -24 -26 -101 -48 -151 -34 -75 -48 -63 -48 40 1 109 -6
336 -14 507 -7 139 -8 235 -6 495 1 91 -1 176 -3 190 -3 14 -10 46 -15 71 -13
59 -13 62 -11 514 1 209 0 405 -3 435 -5 49 -9 101 -20 272 -2 26 -6 51 -10
54 -4 4 -2 13 4 21 6 7 12 39 13 71 1 32 6 63 10 70 4 6 2 29 -3 50 -10 35
-13 84 -12 222 0 30 0 99 0 153 0 53 5 115 11 137 6 21 10 79 9 127 -2 123 -1
152 6 200 6 36 12 44 39 52 55 17 115 22 354 25 128 2 235 6 238 9 4 3 54 4
113 1 58 -3 165 -6 238 -7z m-1980 -3008 c15 -6 54 -11 85 -10 51 2 59 -1 73
-23 9 -14 24 -28 33 -31 10 -3 24 -23 33 -44 16 -37 16 -42 -1 -79 -10 -23
-28 -43 -40 -47 -33 -11 -91 -8 -103 4 -6 6 -20 11 -30 11 -14 0 -18 5 -14 20
3 14 -5 30 -29 54 -19 19 -34 44 -34 55 0 12 -7 24 -15 27 -8 4 -14 17 -13 32
3 46 8 49 55 31z"/>
<path d="M11402 9599 c-24 -16 -31 -26 -27 -40 4 -11 -2 -31 -13 -47 -18 -25
-18 -31 -5 -82 31 -119 35 -173 36 -460 1 -571 -6 -872 -24 -918 -7 -16 -10
-109 -8 -232 1 -113 -1 -281 -6 -375 -4 -93 -8 -179 -7 -190 0 -11 3 -175 6
-365 3 -190 8 -381 10 -425 2 -44 7 -152 11 -240 4 -88 10 -167 14 -175 4 -8
6 -55 5 -105 -8 -324 -2 -558 15 -579 9 -11 10 -20 1 -36 -7 -14 -10 -60 -7
-133 3 -62 5 -132 5 -157 -1 -66 -1 -64 7 -200 9 -147 9 -124 0 -275 -4 -66
-9 -124 -12 -129 -9 -15 -10 -80 -1 -92 5 -6 4 -23 -1 -37 -7 -18 -7 -28 0
-33 5 -3 10 -31 10 -62 0 -32 1 -122 3 -202 2 -80 -2 -197 -10 -260 -9 -78 -9
-118 -3 -127 6 -7 8 -20 5 -30 -9 -32 102 -71 120 -42 3 6 6 46 5 89 -1 48 3
81 9 85 6 4 9 14 5 22 -3 9 0 73 6 142 9 106 9 146 -5 248 -8 67 -13 128 -11
135 5 13 13 236 17 458 1 58 -2 227 -6 375 -15 610 -17 985 -4 985 9 0 10 3 2
8 -18 12 -31 128 -33 292 -1 125 -2 135 -7 165 -8 53 -11 897 -2 970 4 39 7
97 6 130 -1 65 -1 79 0 140 0 22 -1 87 -3 145 -1 58 1 134 5 170 5 36 10 120
11 188 2 67 6 127 10 134 4 6 3 22 -2 35 -6 17 -4 35 7 61 13 31 14 53 5 137
-5 55 -9 174 -7 265 2 91 -1 170 -6 176 -5 7 -4 33 3 62 7 37 8 66 0 104 -10
50 -20 156 -25 275 -2 60 -3 61 -42 68 -20 4 -39 -1 -62 -16z"/>
<path d="M12766 9120 c-9 -22 -16 -48 -16 -58 0 -18 -36 -56 -80 -83 -14 -9
-38 -29 -55 -46 -43 -42 -201 -153 -218 -153 -8 0 -27 -10 -42 -21 -30 -25
-30 -36 3 -149 25 -86 27 -92 74 -189 60 -126 115 -171 205 -171 82 1 137 28
183 89 44 59 44 57 30 132 -8 40 -19 63 -48 92 -45 47 -102 86 -162 112 -87
37 -90 51 -19 89 28 16 53 34 55 41 3 7 16 16 28 19 32 8 156 133 156 157 0
10 4 19 9 19 5 0 12 11 15 25 5 19 -2 40 -26 80 -42 69 -69 73 -92 15z m-179
-556 c66 -22 101 -49 118 -91 8 -20 15 -38 15 -42 0 -12 -58 -41 -82 -41 -29
0 -78 39 -78 61 0 9 -14 41 -31 72 -29 54 -29 57 -10 57 11 0 42 -7 68 -16z"/>
<path d="M12805 8186 c-22 -6 -44 -14 -50 -17 -5 -4 -35 -12 -65 -20 -30 -7
-59 -16 -64 -21 -6 -4 -19 -8 -31 -8 -11 0 -36 -11 -55 -23 -19 -13 -47 -27
-61 -30 -32 -8 -126 -97 -139 -133 -19 -48 -2 -91 54 -140 28 -25 70 -57 94
-71 23 -14 42 -29 42 -34 0 -5 10 -9 23 -9 12 0 32 -7 43 -15 12 -8 54 -22 94
-31 61 -13 79 -14 117 -4 39 11 44 16 39 35 -3 12 1 36 10 54 16 32 11 55 -9
48 -7 -2 -28 4 -47 15 -42 22 -56 23 -64 3 -10 -26 -89 -19 -154 14 -60 30
-89 56 -92 81 -5 32 1 50 14 50 8 0 28 11 44 25 17 14 33 25 37 25 8 0 135 48
156 60 9 4 41 11 73 15 47 6 60 12 77 36 26 36 22 56 -16 83 -26 20 -35 21
-70 12z"/>
<path d="M10754 7611 c-27 -3 -63 -15 -80 -25 -53 -35 -154 -150 -179 -206
-14 -30 -31 -67 -39 -81 -18 -35 -3 -141 24 -176 11 -14 20 -30 20 -34 0 -5 7
-17 15 -26 9 -10 28 -33 42 -51 19 -24 32 -32 46 -28 11 3 36 -2 56 -11 35
-15 102 -22 206 -22 64 0 115 35 115 80 0 16 -4 29 -8 29 -5 0 -14 11 -20 25
-10 21 -8 31 13 62 14 21 34 48 44 61 23 26 36 113 27 180 -15 117 -18 124
-58 161 -77 69 -104 77 -224 62z m83 -159 c4 -9 11 -20 17 -24 15 -10 35 -106
29 -142 -8 -51 -42 -96 -90 -116 -15 -6 -21 -15 -17 -25 11 -29 -16 -47 -60
-39 -70 12 -83 30 -101 141 -5 34 -2 47 15 71 12 16 22 35 23 43 3 21 43 69
56 69 7 0 23 11 36 24 13 13 30 26 37 29 18 6 48 -11 55 -31z"/>
<path d="M12818 7569 c-21 -10 -66 -26 -100 -35 -35 -8 -72 -19 -83 -24 -11
-5 -33 -11 -50 -15 -90 -18 -107 -24 -126 -41 -13 -12 -18 -25 -15 -41 5 -19
-1 -25 -39 -42 -35 -16 -45 -25 -45 -44 0 -26 52 -105 75 -114 8 -3 15 -11 15
-18 0 -26 151 -165 179 -165 6 0 11 -4 11 -10 0 -5 8 -10 19 -10 10 0 38 -7
62 -15 60 -21 87 -13 150 48 l55 52 2 70 c2 81 -16 131 -61 166 -16 13 -43 36
-60 50 l-30 25 37 22 c21 12 43 22 49 22 23 0 78 40 86 63 6 16 3 30 -11 50
-24 33 -65 35 -120 6z m-168 -240 c0 -4 17 -11 38 -15 55 -11 88 -40 103 -92
11 -39 10 -46 -4 -57 -9 -7 -17 -17 -17 -23 0 -21 -20 -22 -40 -2 -11 11 -31
20 -44 20 -16 0 -43 20 -85 65 -87 94 -82 127 17 116 17 -2 32 -7 32 -12z"/>
<path d="M10849 6655 c-3 -2 -45 -5 -94 -6 -50 -1 -117 -5 -150 -10 -33 -4
-132 -10 -219 -13 -87 -3 -164 -10 -170 -15 -6 -4 -38 -11 -71 -15 -175 -20
-187 -22 -202 -41 -35 -49 14 -90 107 -89 30 1 120 8 200 17 80 9 195 17 255
17 61 0 136 4 167 10 61 9 130 11 289 7 l96 -3 22 34 22 33 -21 35 c-13 21
-30 34 -43 35 -130 7 -185 8 -188 4z"/>
<path d="M10700 6222 c-14 -9 -27 -19 -30 -23 -3 -3 -24 -14 -47 -25 -23 -10
-43 -25 -43 -32 0 -7 -11 -35 -25 -62 -42 -83 -28 -185 36 -258 41 -46 125
-112 143 -112 8 0 18 -4 21 -10 8 -12 86 -13 117 -1 36 14 137 119 143 149 4
15 13 42 22 60 14 28 15 37 4 54 -9 15 -10 23 -2 31 17 17 13 42 -9 62 -11 10
-20 24 -20 31 0 7 -9 31 -21 53 -42 82 -217 132 -289 83z m155 -144 c7 -7 23
-44 36 -81 27 -79 23 -90 -39 -125 -36 -20 -46 -22 -80 -13 -53 15 -74 41 -80
100 -3 39 0 57 18 85 12 20 29 41 38 46 22 13 91 6 107 -12z"/>
<path d="M12408 5999 c-25 -14 -46 -67 -47 -117 -1 -24 -3 -48 -7 -53 -3 -5 1
-9 8 -9 7 0 33 -20 58 -45 25 -24 63 -51 85 -58 34 -12 40 -18 38 -41 -3 -38
69 -90 112 -81 17 3 57 10 90 14 118 15 165 49 168 122 2 30 -2 36 -37 53 -22
11 -66 20 -105 22 -138 7 -156 9 -169 22 -7 6 -22 12 -32 12 -11 0 -31 16 -46
35 -21 28 -25 42 -21 70 5 28 2 38 -16 50 -25 17 -54 19 -79 4z"/>
<path d="M10954 5576 c-43 -15 -99 -67 -123 -113 -11 -22 -27 -45 -35 -52 -9
-8 -16 -19 -16 -26 0 -7 -11 -20 -25 -29 -14 -9 -25 -22 -25 -30 0 -7 -11 -30
-25 -50 -14 -20 -25 -42 -25 -49 0 -17 -69 -87 -85 -87 -17 0 -35 30 -35 57 0
10 -9 27 -21 37 -17 14 -20 24 -15 51 4 21 2 36 -5 41 -7 4 -9 24 -6 58 7 55
-2 74 -40 94 -29 16 -85 15 -105 0 -23 -18 -27 -84 -10 -148 8 -30 16 -66 17
-80 7 -52 18 -86 41 -134 13 -28 24 -56 24 -63 0 -7 6 -13 14 -13 7 0 16 -8
18 -17 7 -25 107 -57 151 -50 24 4 48 19 76 49 22 24 41 48 41 54 0 6 13 29
28 50 48 67 74 113 76 138 3 28 65 108 77 100 5 -3 9 6 9 21 0 19 8 29 35 42
19 9 37 15 39 12 4 -4 9 -182 6 -234 -2 -44 -24 -92 -60 -130 -30 -31 -37 -46
-33 -65 7 -34 43 -59 76 -53 38 7 127 89 127 117 0 12 9 39 20 60 28 50 51
237 34 261 -7 9 -15 33 -19 53 -11 59 -47 97 -112 119 -47 16 -64 18 -89 9z"/>
<path d="M12610 5469 c-96 -19 -132 -52 -196 -184 -35 -71 -39 -87 -37 -148 1
-54 8 -79 34 -128 41 -77 126 -163 176 -179 21 -7 42 -16 48 -21 24 -23 253 6
282 35 17 17 31 92 26 136 -5 40 -2 50 18 68 12 12 18 22 12 22 -6 0 -14 20
-17 45 -4 25 -11 45 -17 45 -5 0 -9 8 -9 18 0 9 -8 33 -18 52 -11 19 -22 47
-26 63 -13 56 -90 130 -156 152 -27 9 -52 21 -55 26 -4 5 -9 9 -13 8 -4 -1
-27 -5 -52 -10z m85 -156 c19 -9 35 -20 35 -24 0 -4 19 -40 41 -80 29 -50 41
-84 40 -108 -2 -92 -23 -160 -50 -162 -54 -4 -112 15 -160 53 -45 34 -71 93
-71 158 0 56 9 82 45 140 29 46 59 52 120 23z"/>
<path d="M10995 4684 c-8 -9 -37 -24 -63 -34 -80 -30 -254 -109 -299 -136 -24
-14 -43 -31 -43 -39 0 -7 -6 -20 -13 -27 -12 -12 -57 -121 -57 -137 0 -4 14
-23 30 -41 l31 -34 -23 -10 c-27 -11 -102 -21 -252 -36 -60 -5 -125 -14 -145
-20 -20 -5 -52 -10 -73 -10 -28 0 -42 -7 -62 -31 -32 -38 -32 -40 1 -70 50
-45 63 -48 112 -32 44 14 338 55 521 73 47 5 110 12 141 15 37 5 59 4 63 -4 5
-7 12 -7 26 1 14 9 28 9 57 0 82 -24 91 -24 109 3 23 35 36 99 22 104 -7 2
-23 15 -37 30 -24 23 -32 25 -103 22 -60 -2 -86 2 -123 18 -26 12 -57 21 -69
21 -26 0 -46 18 -46 40 0 44 182 153 248 148 28 -1 110 37 148 70 16 14 21 26
17 48 -7 36 -30 64 -54 64 -10 0 -21 5 -24 10 -9 14 -21 12 -40 -6z"/>
<path d="M12382 4495 c-9 -5 -71 -12 -137 -16 -123 -8 -294 -31 -353 -48 -72
-21 -80 -55 -28 -107 37 -37 73 -43 118 -20 31 16 223 50 237 42 5 -3 28 1 52
10 24 8 71 15 104 14 33 0 96 2 140 4 44 2 161 5 260 5 99 1 185 5 190 9 20
14 37 60 31 80 -6 17 -18 22 -69 27 -104 10 -527 11 -545 0z"/>
<path d="M8460 8533 l-42 -65 4 -86 c2 -49 10 -96 18 -109 11 -17 11 -24 2
-36 -10 -12 -7 -23 16 -58 16 -24 32 -53 36 -64 3 -11 49 -51 101 -89 52 -38
95 -73 95 -78 0 -4 11 -8 24 -8 23 0 96 -26 96 -34 0 -2 -16 -13 -35 -25 -42
-24 -43 -36 -8 -73 33 -35 43 -35 140 1 43 16 94 34 113 41 19 7 45 16 57 21
15 5 23 20 28 48 9 53 -1 81 -28 81 -51 -1 -165 23 -221 46 -32 13 -67 24 -75
24 -60 1 -219 165 -246 254 -10 34 -12 53 -5 61 6 7 8 20 4 29 -3 9 -1 23 6
31 10 12 43 137 37 141 -1 1 -18 4 -39 7 -36 5 -37 4 -78 -60z"/>
<path d="M8968 7659 c-10 -5 -23 -19 -29 -30 -9 -17 -6 -25 18 -48 15 -15 29
-38 31 -51 1 -13 9 -32 18 -41 18 -20 28 -155 13 -165 -5 -3 -7 -20 -3 -39 3
-20 1 -35 -6 -40 -6 -4 -9 -18 -5 -34 5 -22 0 -31 -24 -48 -33 -25 -41 -21
-41 19 0 16 -5 38 -11 50 -6 11 -13 32 -15 46 -11 62 -49 162 -61 162 -8 0
-18 11 -23 24 -4 13 -25 34 -45 46 -32 20 -45 22 -98 16 -58 -5 -65 -9 -106
-53 -25 -26 -45 -57 -46 -68 -1 -11 -5 -51 -10 -88 -4 -43 -4 -77 3 -90 5 -12
18 -42 28 -66 29 -69 108 -144 179 -169 80 -29 160 -36 211 -20 43 14 126 84
157 134 51 81 67 129 62 189 -2 33 -8 76 -14 95 -6 19 -11 49 -11 66 0 42 -26
102 -58 134 -15 15 -34 36 -42 48 -19 25 -49 34 -72 21z m-234 -288 c12 -13
15 -27 10 -46 -5 -21 -2 -31 12 -42 14 -10 18 -27 19 -73 0 -32 4 -62 8 -66
12 -12 8 -24 -8 -24 -25 0 -65 23 -65 37 0 7 -4 13 -9 13 -29 0 -42 135 -19
193 12 32 28 34 52 8z"/>
<path d="M8899 6923 c-8 -22 -7 -34 5 -55 19 -31 11 -39 -36 -37 -18 1 -60 -8
-93 -20 -101 -37 -252 -58 -530 -75 -79 -5 -178 -27 -199 -46 -18 -14 -11 -66
12 -92 22 -25 88 -31 162 -14 36 8 99 18 140 21 41 4 98 11 125 16 28 5 82 11
120 14 l70 4 -1 -27 c0 -15 -4 -35 -9 -45 -9 -22 9 -96 39 -156 19 -37 35 -52
80 -74 31 -16 63 -26 71 -24 7 3 29 2 48 -4 26 -7 41 -6 63 6 16 8 42 15 59
15 34 0 100 63 128 123 18 36 25 202 10 209 -8 3 -63 108 -63 120 0 4 -11 19
-25 35 -125 141 -156 159 -176 106z m83 -172 c21 -19 34 -46 48 -101 26 -100
25 -120 -7 -158 -24 -28 -37 -33 -98 -42 -60 -8 -74 -7 -100 8 -16 10 -31 27
-32 38 -1 10 -5 32 -9 47 -5 23 -3 29 15 34 11 3 21 12 21 20 0 8 27 41 61 73
49 47 60 64 59 87 -3 37 0 51 7 34 3 -7 19 -25 35 -40z"/>
<path d="M8941 6130 c-50 -44 -102 -82 -115 -86 -14 -3 -27 -12 -30 -20 -3 -8
-18 -14 -34 -14 -37 0 -44 -8 -29 -31 17 -28 -2 -37 -23 -11 -18 21 -22 22
-61 12 -69 -19 -79 -28 -72 -75 3 -22 11 -47 17 -55 7 -8 21 -33 31 -54 10
-22 26 -49 37 -60 11 -12 35 -43 54 -71 67 -96 82 -114 110 -137 50 -41 81
-57 128 -68 52 -11 91 5 119 49 9 14 22 33 28 42 9 12 7 31 -11 87 -24 75 -32
89 -92 157 -21 23 -38 47 -38 52 0 5 -11 20 -24 32 -32 30 -25 46 49 108 87
72 148 147 140 173 -7 21 -53 50 -79 50 -8 0 -55 -36 -105 -80z m-70 -390 c47
-48 92 -117 86 -133 -4 -12 -97 77 -97 92 0 5 -11 20 -25 35 -22 24 -26 46 -8
46 3 0 23 -18 44 -40z"/>
<path d="M8541 5342 c-21 -16 -21 -18 -6 -55 9 -21 23 -41 33 -44 9 -3 26 -16
37 -28 12 -13 43 -27 74 -34 30 -6 73 -20 95 -30 59 -27 138 -59 161 -66 52
-15 70 -65 25 -65 -11 0 -21 -4 -24 -8 -3 -5 -58 -26 -123 -47 -171 -55 -263
-89 -263 -96 0 -22 33 -80 51 -90 21 -11 75 -6 108 10 58 28 251 83 299 85 12
1 22 7 22 14 0 6 4 12 10 12 5 0 36 26 68 58 56 54 58 58 46 82 -8 14 -11 32
-9 41 9 27 -65 85 -131 104 -33 9 -75 25 -94 34 -19 10 -57 26 -85 35 -27 10
-72 26 -99 35 -27 10 -59 29 -70 44 -17 21 -30 27 -63 27 -24 0 -50 -7 -62
-18z"/>
<path d="M8979 4577 c-14 -13 -50 -29 -81 -36 -49 -12 -60 -12 -88 3 -44 21
-78 20 -125 -5 -26 -13 -73 -23 -135 -29 -52 -5 -150 -14 -217 -20 -67 -6
-137 -15 -155 -21 -18 -5 -56 -9 -83 -9 -61 0 -105 -18 -105 -43 0 -10 10 -31
22 -47 21 -29 22 -29 97 -23 42 3 81 9 87 14 5 5 30 8 55 7 92 -1 325 15 343
24 30 16 41 -5 20 -41 -15 -25 -16 -34 -6 -56 9 -19 9 -32 1 -46 -29 -56 58
-196 161 -258 19 -11 44 -21 55 -21 11 -1 38 -7 59 -15 36 -12 42 -12 65 4 14
10 43 21 63 25 41 7 99 66 124 124 8 18 22 36 30 39 13 5 15 15 10 46 -4 24
-2 45 5 53 9 11 9 25 -1 59 -7 24 -10 52 -6 61 3 9 -2 28 -12 42 -10 15 -24
48 -31 73 -17 63 -64 119 -99 119 -15 0 -39 -11 -53 -23z m63 -201 c4 -26 2
-60 -3 -74 -7 -19 -6 -33 3 -50 11 -21 10 -26 -11 -41 -13 -10 -21 -23 -17
-30 11 -17 -24 -69 -53 -80 -72 -27 -124 -19 -179 28 -37 32 -35 164 4 249 16
34 11 33 137 38 38 1 71 5 75 9 18 18 37 -4 44 -49z"/>
<path d="M2905 8366 c-32 -31 -37 -40 -31 -67 4 -19 0 -42 -10 -61 -15 -28
-14 -34 1 -68 13 -29 15 -54 11 -118 -4 -59 -2 -83 7 -89 25 -16 45 -67 36
-91 -5 -13 -7 -28 -3 -33 8 -14 9 -103 0 -117 -4 -6 -2 -30 4 -53 8 -28 8 -44
1 -53 -20 -24 8 -101 39 -111 17 -5 30 1 54 24 31 30 33 36 34 108 2 41 5 79
7 84 3 4 0 11 -6 15 -22 13 12 22 53 12 43 -9 257 -4 321 8 43 8 70 45 49 66
-7 7 -8 17 -2 29 13 24 -1 28 -154 40 -72 5 -159 17 -193 26 -56 14 -63 19
-64 42 -6 95 -9 129 -14 151 -16 75 -17 100 -4 100 132 3 215 9 264 20 33 7
74 13 92 14 17 1 35 5 39 9 4 4 13 7 19 7 7 0 29 7 48 15 l36 15 -25 44 c-28
50 -67 71 -116 62 -152 -26 -180 -28 -294 -18 -66 5 -128 13 -140 17 -16 5
-30 -2 -59 -29z"/>
<path d="M5642 8143 c-19 -9 -36 -21 -38 -27 -2 -6 9 -36 26 -66 58 -107 81
-178 67 -213 -6 -17 -118 -5 -228 25 -87 24 -121 20 -145 -17 -16 -24 -15 -27
1 -45 21 -23 15 -24 -38 -9 -63 17 -159 -17 -219 -78 -26 -26 -50 -60 -53 -74
-4 -15 -24 -39 -46 -55 -35 -26 -39 -33 -39 -75 0 -25 7 -70 16 -99 9 -30 14
-68 11 -85 -6 -41 0 -53 33 -70 78 -40 100 -11 104 136 3 95 7 120 25 149 11
19 21 45 21 56 0 16 11 26 43 38 23 9 50 16 60 16 25 0 101 -83 122 -133 9
-23 25 -61 36 -85 10 -23 19 -57 19 -75 0 -17 9 -47 20 -64 17 -28 25 -33 59
-33 59 0 72 8 65 39 -22 106 -46 184 -84 266 -10 22 -25 57 -34 78 -8 20 -20
37 -26 37 -5 0 -10 7 -10 15 0 8 -7 15 -15 15 -8 0 -15 5 -15 10 0 15 37 12
73 -7 31 -16 46 -20 152 -43 78 -16 85 -20 84 -43 0 -12 1 -36 4 -52 3 -17 2
-61 -2 -98 -6 -53 -4 -70 7 -79 8 -7 18 -22 22 -34 6 -14 21 -24 45 -28 39 -8
70 7 61 30 -3 7 2 51 10 98 10 58 12 97 5 125 -10 45 -9 46 65 55 138 18 198
42 225 92 11 22 10 26 -11 41 -15 11 -39 16 -66 14 -23 -1 -78 3 -121 9 -91
13 -79 -2 -128 165 -17 55 -36 99 -50 112 -13 12 -27 33 -31 45 -12 41 -32 46
-82 21z"/>
<path d="M3697 7913 c-4 -3 -7 -14 -7 -24 0 -10 -10 -25 -23 -34 -18 -12 -23
-22 -19 -45 2 -16 10 -35 18 -41 8 -6 14 -21 14 -33 0 -12 7 -31 15 -42 8 -10
15 -32 15 -47 0 -16 6 -43 14 -60 8 -18 22 -54 31 -82 29 -83 122 -148 187
-132 14 4 48 25 76 49 40 32 52 48 52 69 0 15 5 31 10 34 6 3 10 14 10 23 0 9
7 31 16 47 9 17 23 53 31 80 8 28 22 56 30 62 17 13 21 51 9 96 -5 23 -11 27
-44 27 -52 0 -87 -20 -87 -50 0 -14 -10 -40 -22 -58 -11 -19 -19 -42 -16 -52
3 -10 0 -21 -6 -24 -6 -4 -11 -21 -11 -37 0 -37 -48 -108 -72 -109 -10 0 -20
10 -24 25 -3 13 -12 29 -19 35 -8 7 -17 33 -20 58 -3 26 -15 66 -26 88 -21 46
-40 131 -32 150 7 18 -85 43 -100 27z"/>
<path d="M4474 7834 c-37 -25 -114 -129 -114 -154 0 -5 -4 -10 -8 -10 -5 0 -9
-23 -9 -51 0 -28 -5 -54 -10 -58 -6 -3 -13 -20 -16 -37 -5 -24 2 -49 27 -100
37 -75 67 -101 150 -128 26 -9 57 -21 68 -27 37 -20 279 26 304 57 13 16 7 59
-10 73 -7 6 -38 5 -86 -3 -48 -9 -84 -10 -99 -4 -14 5 -31 6 -38 4 -22 -9
-124 22 -139 41 -11 16 -10 18 7 21 10 2 19 8 19 13 0 5 21 9 47 9 64 0 146
28 183 62 17 15 37 28 44 28 17 0 71 69 79 102 12 46 -40 118 -105 147 -57 26
-64 28 -178 36 -70 6 -78 4 -116 -21z m143 -109 c19 -8 45 -15 57 -15 22 0 46
-17 46 -32 0 -4 -5 -8 -11 -8 -7 0 -17 -8 -24 -17 -9 -12 -35 -18 -96 -23 -77
-5 -85 -4 -101 15 -15 19 -14 22 22 57 43 42 55 45 107 23z"/>
<path d="M2897 7418 c-22 -22 -24 -30 -17 -67 4 -23 11 -45 14 -49 10 -9 132
-21 276 -26 88 -4 144 -1 188 10 35 8 74 14 88 14 13 0 24 5 24 12 0 6 9 21
20 33 18 20 19 23 5 35 -8 7 -15 18 -15 25 0 15 -77 33 -126 28 -63 -7 -110
-6 -275 2 l-157 8 -25 -25z"/>
<path d="M3155 6551 c-49 -10 -64 -55 -66 -196 -1 -66 -6 -126 -11 -132 -6 -7
-8 -19 -5 -28 4 -8 2 -40 -3 -72 -5 -32 -14 -108 -21 -170 -11 -105 -10 -114
8 -150 41 -79 111 -111 308 -142 110 -18 297 -19 328 -2 22 12 47 55 47 82 0
16 -72 39 -134 44 -149 11 -257 28 -334 51 -74 23 -82 28 -76 46 3 12 1 24 -6
28 -16 10 -14 136 5 275 17 126 17 119 12 163 -2 17 0 32 3 32 13 0 26 66 22
107 -5 50 -32 72 -77 64z"/>
<path d="M4015 6097 c-115 -45 -195 -145 -195 -244 0 -20 -7 -45 -17 -55 -15
-17 -14 -22 8 -75 15 -35 34 -63 49 -70 27 -13 44 -39 35 -53 -3 -5 0 -18 6
-28 11 -18 23 -19 126 -17 99 3 121 7 168 30 30 14 64 37 77 51 13 14 33 29
46 34 12 6 25 18 28 27 3 10 12 34 21 54 14 35 13 58 -10 156 -16 66 -140 181
-211 194 -56 11 -95 10 -131 -4z m168 -160 c35 -29 44 -44 53 -86 8 -39 8 -54
-2 -62 -6 -5 -15 -20 -18 -34 -8 -31 -135 -105 -181 -105 -30 0 -33 3 -39 38
-3 22 -14 50 -24 63 -25 31 -33 86 -15 100 7 6 13 19 13 28 1 17 44 67 76 88
32 21 90 8 137 -30z"/>
<path d="M4786 6059 c-27 -11 -69 -32 -95 -47 -63 -36 -200 -170 -207 -202 -3
-14 -12 -41 -19 -60 -21 -52 -15 -121 13 -143 12 -10 22 -25 22 -33 0 -8 9
-14 21 -14 11 0 34 -10 51 -21 27 -20 34 -21 91 -9 34 6 74 20 88 31 15 10 30
19 33 19 15 0 76 65 76 80 0 22 79 120 97 120 7 0 15 -12 19 -27 4 -16 12 -37
19 -49 16 -25 46 -111 50 -141 1 -13 7 -28 12 -35 11 -14 25 -88 24 -130 0
-14 6 -29 14 -32 8 -3 15 -14 15 -25 0 -11 4 -22 8 -25 9 -5 7 -94 -4 -186 -8
-64 -45 -145 -74 -160 -11 -6 -18 -14 -16 -18 16 -26 -87 -83 -161 -89 -57 -4
-170 7 -248 25 -48 11 -137 57 -148 77 -4 8 -24 22 -43 31 -34 16 -36 16 -57
-4 l-21 -22 22 -29 c12 -17 22 -34 22 -39 0 -23 100 -92 133 -92 8 0 20 -7 27
-15 7 -8 20 -15 30 -15 9 0 37 -11 63 -23 49 -25 94 -32 222 -32 67 1 88 5
134 28 66 34 167 132 182 178 7 19 17 41 24 49 12 14 17 35 31 125 3 22 8 43
11 48 2 4 1 12 -3 18 -3 6 -7 49 -7 95 0 47 -4 87 -9 90 -4 3 -8 20 -8 37 0
18 -7 42 -15 55 -9 12 -19 45 -22 74 -5 46 -33 126 -63 180 -6 10 -10 26 -10
37 0 11 -5 21 -11 23 -7 2 -13 19 -16 38 -2 19 -13 44 -24 56 -11 12 -23 40
-26 63 -7 55 -47 95 -85 87 -19 -4 -28 -1 -28 8 0 16 -39 52 -65 59 -11 3 -42
-3 -69 -14z m64 -158 c0 -28 -58 -131 -92 -163 -15 -14 -28 -31 -28 -37 0 -19
-63 -29 -92 -14 -16 7 -27 17 -26 21 1 4 -2 18 -6 30 -6 19 -3 27 16 40 12 8
41 35 64 58 36 38 116 82 152 83 6 1 12 -8 12 -18z"/>
<path d="M14008 8213 c-24 -6 -30 -46 -14 -95 7 -24 14 -52 14 -63 4 -85 10
-144 18 -156 10 -17 6 -81 -7 -94 -5 -5 -28 -15 -52 -21 -75 -22 -193 -69
-217 -86 l-23 -17 33 -40 c36 -46 50 -49 89 -22 14 11 51 24 81 29 30 6 68 15
83 21 47 18 49 16 46 -66 -3 -92 6 -114 56 -132 34 -12 39 -11 59 8 12 12 26
21 30 21 4 0 5 -42 2 -92 -4 -51 -8 -112 -9 -136 -2 -49 -16 -61 -67 -62 -19
-1 -73 -15 -120 -31 -47 -17 -108 -36 -136 -42 -28 -7 -66 -23 -83 -37 l-33
-25 18 -38 c15 -32 22 -37 52 -37 18 0 67 11 109 25 41 14 108 28 149 32 41 3
77 10 80 14 3 5 11 9 19 9 11 0 12 -6 3 -32 -6 -18 -18 -41 -26 -51 -15 -16
-14 -21 1 -50 10 -18 34 -41 52 -52 33 -17 36 -17 53 -2 10 10 24 17 30 17 7
0 12 10 12 23 0 12 9 42 20 66 11 24 20 56 20 72 0 38 13 40 179 36 119 -4
138 -2 167 15 44 26 51 51 25 87 -26 35 -72 46 -165 36 -41 -5 -77 -3 -100 5
-28 9 -40 9 -51 0 -8 -6 -19 -9 -25 -5 -15 9 -13 92 3 98 9 3 9 7 -1 19 -7 9
-15 51 -18 93 -10 127 -46 182 -111 169 -30 -6 -30 -6 -31 44 -1 44 2 51 25
61 14 7 71 14 127 17 55 3 107 7 115 10 8 2 45 9 83 14 48 7 80 18 103 35 40
31 37 56 -11 84 -31 18 -42 19 -107 11 -89 -12 -291 -33 -332 -34 -26 -1 -30
3 -33 29 -2 17 -11 38 -19 47 -9 10 -19 34 -24 55 -4 21 -13 60 -19 87 -13 66
-32 119 -45 128 -11 8 -49 9 -77 1z"/>
<path d="M14482 6838 c-13 -13 -16 -50 -5 -62 21 -21 72 -198 66 -230 -3 -13
0 -27 6 -30 8 -5 8 -13 0 -28 -6 -11 -9 -29 -6 -39 7 -28 -10 -82 -40 -129
-41 -63 -55 -51 -71 60 -7 52 -23 114 -34 139 -12 27 -18 55 -14 72 5 24 -1
32 -44 63 -64 46 -90 52 -126 29 -44 -27 -116 -110 -132 -151 -51 -133 -54
-147 -48 -203 3 -31 12 -69 20 -85 8 -16 17 -36 19 -44 7 -22 142 -88 207
-100 30 -6 86 -11 124 -11 63 0 72 3 101 31 17 16 36 30 42 30 20 0 84 75 110
130 32 69 40 118 18 126 -18 7 -20 35 -4 51 32 32 12 138 -49 273 -21 47 -40
73 -69 93 -44 30 -54 32 -71 15z m-213 -431 c16 -51 20 -80 15 -117 -6 -47 -9
-50 -35 -50 -20 0 -35 10 -55 35 -22 30 -26 41 -20 76 8 50 55 145 66 133 4
-5 17 -40 29 -77z"/>
<path d="M14334 5159 c-3 -5 -14 -9 -25 -9 -37 0 -95 -67 -151 -177 -61 -120
-75 -189 -56 -277 15 -73 9 -75 -185 -75 -88 0 -161 -2 -163 -4 -9 -9 -11 -74
-2 -90 15 -30 97 -60 127 -48 34 13 196 25 551 40 107 5 205 9 218 10 31 1 72
44 72 75 0 29 -41 62 -64 53 -22 -9 -32 12 -35 68 -2 27 -7 58 -13 68 -5 10
-10 33 -10 50 0 18 -4 37 -8 42 -4 6 -15 35 -25 65 -32 102 -57 140 -113 178
-51 34 -107 49 -118 31z m81 -227 c26 -60 31 -83 31 -147 -1 -41 2 -75 7 -75
4 0 7 -13 7 -30 0 -25 -4 -30 -22 -29 -13 1 -51 -2 -85 -6 l-62 -7 -11 41
c-16 60 -15 129 2 149 9 9 15 32 15 50 0 19 9 44 21 60 12 15 27 37 32 50 15
36 30 23 65 -56z"/>
<path d="M23438 9465 c-2 -1 -93 -5 -203 -9 -225 -7 -240 -8 -345 -24 -41 -6
-115 -17 -165 -23 -49 -7 -94 -15 -100 -19 -5 -4 -35 -11 -65 -15 -30 -4 -77
-16 -103 -26 -26 -11 -56 -19 -65 -19 -28 0 -72 -24 -72 -38 0 -7 -13 -18 -29
-23 -23 -8 -27 -14 -24 -37 3 -15 8 -36 12 -47 15 -36 31 -116 38 -179 3 -33
10 -67 15 -73 6 -7 11 -32 13 -56 1 -24 8 -53 14 -65 6 -11 16 -56 22 -99 5
-43 15 -87 21 -98 8 -14 8 -20 0 -23 -7 -2 -9 -46 -5 -141 4 -98 2 -143 -6
-160 -10 -17 -10 -25 0 -37 7 -8 14 -49 15 -91 2 -42 6 -90 10 -107 4 -17 8
-62 10 -101 1 -38 2 -77 3 -85 1 -8 -1 -132 -4 -275 -8 -352 -8 -344 0 -480 3
-66 6 -126 5 -132 0 -7 0 -21 -1 -30 -1 -57 -10 -78 -31 -80 -166 -16 -156
-17 -170 7 -7 11 -40 38 -73 58 -33 20 -66 44 -73 54 -7 10 -18 18 -24 18 -11
0 -93 62 -113 85 -14 15 -170 117 -220 143 -90 46 -91 46 -128 29 -64 -31 -65
-37 -13 -138 27 -53 44 -99 41 -109 -3 -9 -8 -73 -10 -141 -4 -119 -8 -158
-20 -224 -7 -39 -7 -343 0 -365 3 -9 -4 -29 -15 -43 -23 -29 -16 -58 20 -77
41 -22 74 -11 136 43 33 28 108 90 166 136 59 46 109 90 112 97 3 8 11 14 19
14 16 0 62 59 62 80 0 9 11 16 25 18 14 2 56 31 95 66 116 106 241 159 220 93
-4 -12 -7 -35 -6 -52 0 -16 -4 -45 -10 -63 -7 -22 -8 -42 -1 -61 6 -18 7 -32
1 -38 -5 -5 -9 -86 -8 -179 2 -225 -1 -356 -9 -369 -4 -5 -7 -23 -8 -40 -1
-16 -9 -70 -18 -120 -23 -124 -22 -117 -31 -240 -4 -60 -8 -316 -9 -568 l-1
-459 -24 -19 c-13 -11 -31 -24 -39 -28 -13 -8 -13 -15 6 -54 12 -25 26 -48 32
-52 5 -3 10 -17 10 -30 0 -34 38 -40 97 -14 38 16 60 19 103 15 30 -4 62 -6
70 -6 62 2 126 -3 147 -11 13 -5 48 -9 77 -9 29 0 77 -4 107 -10 30 -5 72 -12
94 -14 22 -2 96 -10 165 -18 69 -8 141 -16 160 -17 64 -5 393 -5 555 -1 112 3
178 0 220 -10 64 -14 276 -19 415 -9 79 6 140 15 265 40 98 19 308 38 325 29
9 -5 21 -5 28 -1 6 4 69 6 139 4 139 -3 200 -4 223 -2 8 1 74 -2 145 -6 172
-9 292 -5 610 19 86 7 284 7 325 1 19 -3 55 -7 80 -9 97 -8 329 -49 365 -66
27 -12 192 -25 430 -34 185 -8 257 -14 285 -24 14 -4 88 -7 165 -6 140 3 140
3 162 31 27 33 25 95 -6 188 -25 76 -29 111 -33 262 -2 68 -6 123 -9 123 -4 0
-6 33 -7 73 0 39 -3 88 -7 107 -10 47 -12 389 -3 735 13 539 14 670 6 687 -5
10 -4 20 3 23 11 7 6 306 -6 325 -3 5 -2 10 2 10 5 0 5 37 1 83 -16 185 -5
755 18 912 35 236 48 485 46 905 0 102 1 199 2 215 1 17 -2 41 -6 54 -5 15 -4
29 4 38 9 11 9 16 -1 22 -9 6 -12 34 -10 92 2 85 -11 171 -30 207 -6 11 -31
27 -55 35 -39 14 -58 14 -158 1 -62 -8 -169 -14 -238 -13 -185 2 -186 2 -305
-8 -104 -9 -446 -8 -545 2 -25 2 -56 5 -70 6 -186 12 -287 22 -295 29 -5 4
-32 13 -60 19 -27 7 -79 19 -115 27 -36 9 -103 19 -150 24 -47 5 -107 14 -135
20 -71 15 -939 44 -1365 45 -210 0 -729 -13 -739 -19 -3 -2 -51 0 -106 5 -117
10 -263 17 -267 14z m1502 -160 c47 -3 171 -8 275 -10 105 -3 233 -7 285 -9
52 -3 156 -8 230 -11 172 -7 221 -12 254 -25 15 -5 48 -10 72 -10 25 0 53 -4
62 -9 9 -5 37 -11 62 -14 25 -3 65 -12 90 -20 153 -51 330 -65 780 -61 390 3
523 9 528 23 5 15 31 13 60 -3 22 -12 80 -9 193 9 31 6 42 2 73 -25 27 -24 36
-40 36 -63 0 -18 2 -97 4 -177 15 -471 15 -715 -1 -864 -9 -83 -17 -186 -18
-228 -1 -42 -6 -89 -10 -105 -3 -15 -8 -94 -11 -175 -2 -80 -8 -157 -13 -170
-9 -23 -7 -365 4 -603 10 -232 8 -508 -5 -569 -6 -33 -8 -76 -4 -100 4 -22 6
-68 4 -101 -5 -77 -5 -173 -1 -305 4 -131 -6 -296 -19 -320 -5 -10 -7 -55 -4
-102 2 -45 4 -121 4 -166 -1 -46 3 -89 8 -95 6 -7 13 -70 16 -142 7 -182 7
-216 -7 -245 -10 -20 -10 -33 1 -65 23 -66 32 -191 15 -205 -4 -3 -80 -2 -168
2 -168 9 -403 17 -468 17 -22 0 -45 6 -54 12 -11 10 -21 10 -48 0 -23 -8 -40
-9 -52 -2 -10 5 -52 17 -93 26 -41 8 -93 20 -115 25 -205 49 -666 60 -900 21
-33 -5 -89 -8 -125 -5 -36 2 -177 5 -315 7 -137 2 -259 7 -270 10 -20 7 -242
-6 -405 -22 -259 -27 -306 -32 -320 -36 -41 -12 -293 -14 -445 -4 -220 15
-364 17 -498 8 -75 -5 -130 -3 -185 7 -42 7 -90 11 -107 9 -48 -8 -516 42
-623 66 -23 5 -73 9 -110 9 -38 0 -89 7 -114 15 l-45 16 4 57 c3 31 9 69 15
85 6 15 11 46 12 70 3 51 19 93 58 149 14 19 16 33 10 68 -6 32 -13 44 -23 41
-46 -12 -44 -25 -42 294 2 261 7 340 27 465 2 14 9 57 15 96 6 40 15 83 20 97
13 33 15 103 7 197 -7 80 -7 182 -1 240 2 19 7 71 9 115 3 44 8 109 12 145 4
36 6 88 5 115 -1 28 -2 61 -2 75 4 200 1 326 -8 375 -6 36 -10 226 -11 470 0
226 -5 453 -10 505 -5 52 -12 165 -15 250 -4 139 -17 281 -32 350 -2 14 -4 38
-4 54 0 16 -4 35 -10 42 -5 6 -12 36 -16 65 -3 30 -10 63 -16 73 -17 34 -16
125 2 145 28 31 159 74 261 86 30 3 59 10 65 15 5 5 48 11 95 14 47 4 128 12
180 18 106 13 490 14 620 2 47 -4 101 -8 120 -7 19 1 139 4 265 7 127 3 243 9
259 13 31 10 484 8 626 -2z"/>
<path d="M23483 8828 c-29 -14 -41 -72 -21 -96 39 -46 48 -88 49 -233 2 -160
-9 -309 -22 -309 -5 0 -9 -20 -9 -44 0 -25 -4 -48 -10 -51 -5 -3 -10 -17 -10
-29 0 -13 -7 -29 -15 -36 -8 -7 -15 -20 -15 -29 0 -25 -50 -114 -74 -131 -44
-32 -86 -41 -117 -25 -16 9 -29 20 -29 25 0 5 -10 10 -22 12 -14 2 -31 17 -43
39 -11 20 -35 60 -52 90 -18 30 -33 61 -33 70 0 8 -4 19 -10 25 -5 5 -12 48
-15 94 -9 142 -16 203 -26 222 -5 10 -12 33 -14 51 -2 17 -7 51 -11 74 -4 24
-2 55 4 70 6 16 13 47 16 70 12 87 -76 128 -109 50 -7 -18 -17 -36 -22 -40
-12 -12 -14 -60 -13 -236 1 -91 6 -163 12 -175 10 -19 39 -115 58 -196 18 -78
71 -201 100 -231 8 -9 36 -41 62 -71 27 -31 63 -61 80 -68 18 -7 42 -16 53
-20 29 -12 104 -10 129 4 30 16 95 66 127 99 65 66 118 240 145 472 9 77 14
158 11 180 -3 22 -2 58 2 80 12 74 -36 242 -80 279 -33 28 -43 30 -76 14z"/>
<path d="M23910 8389 c-53 -18 -150 -85 -150 -103 0 -5 -7 -18 -16 -27 -13
-15 -15 -24 -6 -46 6 -16 13 -41 16 -56 4 -17 17 -32 34 -40 15 -6 29 -14 32
-17 23 -25 111 -90 138 -101 17 -8 32 -20 32 -26 0 -7 7 -13 15 -13 14 0 69
-39 133 -95 24 -21 29 -50 10 -61 -17 -11 -54 -15 -163 -20 -107 -4 -164 8
-145 31 8 10 3 16 -21 24 -47 16 -73 14 -104 -10 -22 -18 -26 -27 -21 -52 7
-35 40 -63 119 -99 58 -27 62 -28 216 -24 150 4 158 5 218 35 59 29 63 33 78
83 15 51 15 53 -10 90 -23 34 -123 118 -142 118 -4 0 -21 18 -37 40 -17 22
-36 40 -42 40 -17 0 -71 38 -106 73 -15 15 -33 27 -41 27 -20 0 -50 37 -44 53
3 8 38 24 77 36 66 20 79 21 167 11 64 -8 99 -8 105 -2 7 7 8 33 3 67 -6 49
-9 55 -25 50 -11 -3 -34 2 -52 11 -49 25 -200 27 -268 3z"/>
<path d="M25868 8265 c-2 -1 -41 -5 -87 -9 -131 -10 -306 -66 -342 -111 -9
-11 -26 -31 -38 -44 -12 -13 -21 -29 -21 -35 0 -6 -11 -24 -25 -41 -23 -27
-26 -28 -35 -12 -15 23 -55 22 -91 -4 -29 -21 -39 -61 -18 -74 6 -4 8 -13 5
-21 -3 -8 0 -27 6 -42 12 -31 29 -108 29 -137 0 -24 13 -41 57 -78 25 -20 44
-27 78 -27 24 0 44 1 45 3 0 1 6 61 13 133 8 71 18 139 23 150 6 10 23 45 39
77 22 44 38 62 68 77 22 10 43 17 48 14 5 -3 17 1 26 9 31 28 76 39 194 47
125 8 153 18 177 63 13 24 12 28 -10 46 -18 15 -38 20 -81 19 -31 0 -58 -1
-60 -3z"/>
<path d="M24610 8189 c-79 -27 -100 -42 -117 -78 -9 -20 -27 -48 -40 -62 -21
-23 -25 -39 -30 -130 -6 -113 5 -155 47 -182 11 -6 20 -17 20 -23 0 -15 82
-68 135 -87 59 -22 114 -28 275 -31 171 -2 190 4 190 62 0 34 -4 39 -50 65
-49 26 -52 27 -81 11 -42 -21 -181 -13 -279 16 -77 23 -87 40 -29 52 66 13
124 32 149 48 14 9 55 36 91 59 99 65 125 114 99 187 -13 37 -74 80 -125 89
-22 4 -44 10 -50 14 -20 12 -161 6 -205 -10z m179 -135 c41 -20 36 -34 -20
-52 -24 -8 -57 -22 -74 -30 -16 -9 -42 -15 -57 -14 -16 1 -40 -5 -53 -14 -32
-21 -39 -14 -30 25 4 18 23 45 48 66 36 31 47 35 97 35 32 0 71 -7 89 -16z"/>
<path d="M23245 6604 c-102 -40 -145 -67 -203 -125 -34 -35 -62 -70 -62 -80 0
-9 -9 -28 -20 -42 -11 -14 -20 -35 -20 -46 0 -12 -6 -37 -14 -56 -17 -39 -31
-155 -29 -235 1 -80 30 -176 66 -224 47 -63 148 -105 254 -106 23 0 63 -7 89
-16 98 -33 142 -34 240 -7 53 15 102 23 116 20 14 -4 81 -61 149 -127 113
-110 127 -121 153 -116 40 8 56 24 56 56 0 20 -9 34 -32 50 -18 13 -49 42 -68
66 -19 24 -56 65 -82 91 -27 25 -48 52 -48 58 0 6 19 38 41 71 77 109 107 230
82 329 -8 33 -16 65 -17 72 -1 7 -10 20 -19 31 -9 10 -17 22 -17 26 0 16 -69
95 -140 162 -75 70 -161 121 -245 143 -75 19 -187 22 -230 5z m294 -161 c66
-37 211 -166 211 -188 0 -7 6 -18 14 -24 17 -14 28 -66 30 -141 1 -44 -5 -68
-31 -118 -18 -35 -33 -70 -33 -78 0 -13 -30 -34 -49 -34 -6 0 -11 9 -11 20 0
11 -8 23 -17 27 -10 3 -36 23 -58 45 -22 21 -62 58 -89 81 -50 43 -140 145
-148 167 -7 22 -59 14 -86 -13 l-26 -26 20 -36 c10 -20 27 -43 37 -52 9 -9 17
-21 17 -27 0 -6 19 -30 43 -52 23 -23 68 -67 100 -98 32 -31 69 -63 83 -72 13
-9 24 -22 24 -28 0 -17 -53 -32 -119 -35 -30 -1 -59 -5 -64 -8 -5 -3 -19 6
-31 21 -19 24 -31 27 -134 39 -106 11 -115 14 -145 44 -27 26 -35 44 -45 105
-50 309 131 559 382 526 39 -5 82 -21 125 -45z"/>
<path d="M27139 6133 c-18 -27 -48 -66 -66 -87 -18 -22 -33 -44 -33 -49 0 -5
-11 -20 -24 -32 -13 -12 -36 -41 -50 -64 -14 -22 -31 -41 -36 -41 -6 0 -10 -5
-10 -12 0 -6 -11 -26 -26 -45 -14 -18 -30 -48 -36 -66 -6 -17 -25 -50 -43 -72
-18 -22 -47 -69 -65 -105 -18 -36 -37 -72 -41 -80 -5 -8 -15 -26 -21 -40 -7
-14 -19 -36 -29 -50 -9 -14 -22 -41 -28 -61 -7 -22 -20 -39 -31 -42 -12 -3
-20 -14 -20 -27 0 -12 -24 -65 -54 -118 -30 -54 -58 -109 -61 -124 -4 -15 -13
-32 -21 -39 -8 -6 -21 -35 -30 -65 -12 -43 -13 -56 -3 -73 24 -37 96 -55 117
-28 5 6 15 30 22 52 20 63 71 167 97 198 12 16 26 41 30 55 9 38 34 83 61 110
12 12 22 30 22 40 0 10 11 42 25 70 14 29 25 56 25 60 0 5 11 19 25 32 14 13
25 32 25 42 0 10 4 18 8 18 4 0 13 12 20 28 20 43 56 106 80 139 12 17 22 33
22 36 0 2 33 55 74 118 128 195 146 225 146 237 0 6 9 16 20 22 11 6 20 19 20
30 0 10 6 21 13 23 19 8 -40 57 -68 57 -17 0 -33 -13 -56 -47z"/>
<path d="M24138 6129 c-50 -26 -74 -72 -58 -108 6 -14 16 -84 21 -156 10 -134
25 -199 62 -273 18 -35 37 -52 101 -88 64 -37 83 -44 100 -36 124 57 157 77
179 111 38 57 59 101 71 150 7 30 17 47 29 49 10 2 17 -3 17 -12 0 -25 45 -90
120 -173 26 -30 65 -30 85 1 13 20 14 28 3 52 -7 16 -18 33 -25 37 -7 4 -13
14 -13 21 0 7 -9 21 -20 31 -11 10 -20 28 -20 40 0 13 -7 28 -15 35 -8 7 -15
16 -15 21 0 5 -8 28 -19 52 -20 47 -46 113 -55 140 -3 9 -20 24 -39 33 -31 15
-35 15 -70 -6 -36 -21 -37 -23 -37 -82 0 -62 -53 -248 -71 -248 -5 0 -9 -9 -9
-19 0 -41 -91 -90 -147 -79 -36 6 -102 194 -81 232 6 11 6 21 0 29 -5 7 -12
54 -15 105 -2 52 -10 99 -16 105 -6 6 -11 21 -11 34 0 28 -4 28 -52 2z"/>
<path d="M25360 6130 c-14 -4 -53 -22 -88 -39 -34 -17 -66 -31 -70 -31 -17 0
-72 -67 -72 -86 0 -12 -9 -29 -20 -39 -11 -10 -17 -21 -15 -25 3 -4 -2 -30
-10 -57 -12 -40 -21 -52 -50 -66 -19 -9 -35 -21 -35 -25 0 -5 -12 -21 -26 -35
-21 -21 -24 -29 -14 -46 6 -12 17 -21 24 -21 8 0 19 -7 26 -15 7 -8 27 -15 44
-15 27 -1 35 -8 64 -56 19 -30 46 -62 60 -71 15 -9 36 -25 48 -35 11 -10 63
-36 115 -59 l94 -41 144 5 c117 5 147 9 162 23 11 10 18 25 16 33 -2 9 3 28
10 43 12 24 11 28 -6 38 -27 14 -72 13 -113 -4 -61 -26 -231 1 -317 50 -18 10
-43 24 -55 31 -11 7 -29 29 -38 50 l-17 38 32 8 c18 5 50 16 72 26 22 10 65
26 95 36 30 10 64 26 75 35 11 10 36 27 55 37 56 31 92 94 96 166 3 60 2 61
-42 102 -40 39 -50 43 -112 48 -81 8 -100 8 -132 -3z m153 -126 c4 -4 -5 -20
-18 -36 -14 -16 -25 -33 -25 -38 0 -5 -16 -12 -35 -16 -19 -3 -39 -12 -46 -20
-6 -8 -19 -14 -29 -14 -9 0 -38 -11 -64 -24 -57 -29 -79 -25 -70 13 4 14 13
33 20 42 8 8 14 20 14 25 0 17 97 54 166 63 38 4 72 9 75 10 3 0 9 -2 12 -5z"/>
<path d="M26308 6090 c-31 -9 -82 -21 -112 -24 -51 -7 -62 -13 -124 -71 -37
-35 -78 -85 -92 -112 -20 -39 -25 -44 -30 -28 -8 29 -39 72 -57 79 -20 8 -60
-32 -64 -64 -1 -14 7 -57 19 -96 12 -39 22 -80 22 -91 0 -12 7 -34 15 -49 8
-16 15 -42 15 -59 0 -49 12 -105 22 -105 5 0 16 -7 24 -15 22 -21 55 -18 87 8
26 20 28 28 32 107 9 175 16 212 50 265 18 28 45 62 61 76 43 38 129 60 218
57 68 -3 76 -5 81 -25 5 -22 101 -93 126 -93 8 0 23 -7 33 -15 11 -8 27 -15
35 -15 9 0 27 -9 41 -20 52 -41 148 -20 164 36 10 32 -13 49 -106 78 -105 33
-194 92 -190 124 2 14 -2 22 -12 22 -8 0 -22 10 -30 22 -16 23 -45 26 -118 13
-25 -5 -38 -3 -38 4 0 14 -2 13 -72 -9z"/>
<path d="M31961 7241 c-32 -13 -49 -28 -62 -54 -11 -20 -23 -39 -29 -42 -14
-9 -13 -31 3 -47 15 -15 38 -87 42 -133 1 -18 6 -51 10 -74 6 -35 4 -45 -12
-56 -10 -9 -13 -14 -5 -15 6 0 12 -6 12 -14 0 -16 -42 -26 -63 -15 -8 5 -64
11 -123 14 -60 2 -131 7 -159 10 -100 10 -424 27 -595 31 -96 2 -258 6 -360 9
-241 7 -711 6 -870 -1 -69 -3 -156 -4 -195 -3 -99 2 -101 2 -195 -5 -47 -4
-141 -6 -210 -5 -250 5 -653 -7 -713 -21 -23 -5 -61 -10 -85 -10 -23 0 -60 -5
-81 -12 -36 -11 -40 -16 -43 -51 -2 -21 0 -41 4 -43 4 -3 8 -14 8 -24 0 -27
13 -32 78 -30 31 1 74 1 96 1 21 -1 43 2 50 7 21 17 68 20 174 11 125 -10 295
-11 517 -4 88 2 264 7 390 11 127 4 271 8 320 10 141 6 169 6 353 4 94 0 177
2 183 5 5 4 22 2 37 -4 20 -8 440 -21 640 -21 35 1 57 -1 178 -8 72 -5 136
-12 143 -16 6 -4 14 0 18 10 5 14 16 16 82 10 45 -3 80 -11 86 -19 8 -10 33
-12 103 -9 91 4 205 -10 229 -29 8 -7 10 -51 6 -152 -3 -78 -6 -170 -6 -205
-1 -34 -7 -66 -12 -70 -6 -4 -19 -20 -28 -35 -17 -26 -17 -30 -3 -53 23 -34
62 -57 89 -51 45 10 130 47 149 64 12 11 37 18 66 18 77 2 82 4 82 25 0 13 12
26 35 37 19 9 35 21 35 25 0 5 14 14 30 20 17 5 35 19 41 29 5 10 18 19 28 19
17 0 64 18 101 39 8 4 44 23 80 42 108 55 133 76 152 126 10 26 16 48 15 49
-1 1 -20 9 -42 19 -74 31 -90 43 -107 78 -10 19 -41 61 -70 94 -30 32 -66 75
-82 96 -15 21 -39 43 -52 49 -13 6 -24 17 -24 23 0 7 -10 19 -22 27 -13 9 -53
42 -89 74 -37 33 -93 76 -125 97 -126 82 -134 89 -134 117 0 43 -18 51 -69 31z"/>
<path d="M16739 6930 c-54 -16 -80 -41 -77 -73 5 -50 43 -70 145 -75 49 -2 95
-8 105 -13 19 -10 166 -14 189 -4 20 8 30 70 15 90 -6 7 -27 15 -46 18 -154
20 -267 42 -276 54 -12 14 -17 15 -55 3z"/>
<path d="M17521 6900 c-79 -33 -101 -78 -57 -119 21 -20 34 -23 113 -21 227 3
220 3 239 -24 16 -26 48 -34 59 -16 3 6 17 10 30 10 29 0 32 4 36 55 3 32 0
41 -17 50 -12 6 -28 16 -35 22 -42 33 -314 65 -368 43z"/>
<path d="M18413 6895 c-38 -17 -41 -37 -17 -89 19 -39 45 -46 182 -47 71 -1
93 -5 148 -31 35 -16 66 -34 70 -39 13 -21 124 -1 124 23 0 17 -28 63 -54 87
-14 13 -60 42 -103 63 -75 38 -82 40 -198 44 -92 3 -128 0 -152 -11z"/>
<path d="M15953 6859 c-18 -11 -33 -29 -33 -38 0 -22 31 -51 54 -51 9 0 25 -4
34 -9 10 -5 80 -11 157 -12 82 -2 150 -8 165 -15 32 -15 77 -10 101 12 17 15
18 19 4 34 -8 9 -12 20 -9 23 4 4 1 13 -5 21 -7 8 -10 24 -6 36 8 24 -19 29
-32 5 -8 -13 -18 -13 -78 -1 -39 7 -126 14 -195 15 -112 1 -128 -1 -157 -20z"/>
<path d="M20970 6845 c-41 -7 -76 -17 -78 -24 -2 -6 -11 -11 -19 -11 -13 0
-15 -8 -10 -42 10 -76 73 -101 190 -75 155 33 188 38 218 32 41 -9 59 9 59 57
0 77 -4 79 -153 77 -73 -2 -166 -8 -207 -14z"/>
<path d="M20190 6822 c-47 -1 -94 -6 -105 -11 -11 -5 -32 -12 -46 -15 -14 -3
-31 -17 -37 -31 -13 -29 -16 -75 -4 -75 4 0 19 -11 34 -25 26 -24 30 -24 70
-13 72 19 251 22 287 4 59 -31 97 -11 102 55 3 28 -4 44 -28 74 -26 31 -35 36
-46 27 -14 -12 -40 -11 -107 5 -19 4 -73 7 -120 5z"/>
<path d="M19365 6806 c-37 -8 -51 -16 -53 -31 -2 -11 -9 -25 -14 -32 -15 -19
0 -51 35 -69 25 -13 54 -16 129 -15 72 2 102 -1 120 -13 20 -13 83 -20 155
-17 30 1 44 30 36 75 -7 44 -30 56 -138 75 -38 7 -86 17 -105 21 -61 15 -113
17 -165 6z"/>
</g>
</svg>
