<?xml version="1.0" standalone="no"?>
<!DOCTYPE svg PUBLIC "-//W3C//DTD SVG 20010904//EN"
 "http://www.w3.org/TR/2001/REC-SVG-20010904/DTD/svg10.dtd">
<svg version="1.0" xmlns="http://www.w3.org/2000/svg"
 width="1981.829249pt" height="400.000000pt" viewBox="0 0 1981.829249 400.000000"
 preserveAspectRatio="xMidYMid meet">
<metadata>
Created by potrace 1.15, written by Peter Selinger 2001-2017
</metadata>
<g transform="translate(-72.609710,478.010444) scale(0.104371,-0.104371)"
fill="#444444" stroke="none">
<path d="M17850 4573 c0 -9 -18 -13 -55 -13 -46 0 -72 -8 -158 -50 -174 -87
-212 -114 -221 -163 0 -4 -6 -11 -13 -15 -16 -10 -83 -213 -90 -273 -5 -42
-10 -52 -35 -65 -28 -15 -31 -14 -66 13 -20 15 -47 33 -59 40 -12 6 -28 16
-35 22 -93 79 -141 96 -170 61 -9 -12 -22 -19 -27 -16 -19 12 -23 -15 -7 -49
9 -18 14 -40 10 -48 -3 -9 2 -16 15 -20 11 -3 20 -13 20 -23 0 -11 0 -50 1
-89 1 -81 -7 -123 -27 -146 -20 -23 -14 -118 9 -132 12 -8 25 -5 52 14 20 13
36 29 36 35 0 6 42 50 94 99 93 87 160 135 172 122 3 -3 8 -30 10 -59 5 -83
16 -129 45 -185 10 -21 19 -43 19 -50 0 -7 5 -13 11 -13 7 0 21 -10 33 -22 57
-59 111 -99 149 -110 41 -11 78 -34 151 -91 50 -40 91 -47 196 -33 62 9 100
20 127 37 21 14 76 40 123 58 47 18 91 38 98 44 8 6 27 10 43 9 38 -3 89 24
89 46 0 10 28 63 62 117 33 55 61 105 61 112 0 7 6 14 13 17 8 3 11 12 8 21
-4 8 -1 22 6 30 6 8 9 19 5 25 -4 6 -2 17 5 25 6 8 12 64 14 139 2 101 0 133
-14 163 -9 21 -15 44 -12 51 2 7 -5 23 -16 35 -11 12 -29 40 -40 63 -11 22
-37 53 -56 68 -19 14 -50 40 -68 56 -18 17 -38 30 -45 30 -7 0 -37 12 -66 26
-77 38 -184 63 -288 69 -58 3 -96 10 -101 18 -6 9 -8 9 -8 0z m135 -137 c55
-3 109 -9 120 -11 65 -17 102 -31 113 -42 7 -7 19 -13 26 -13 7 0 21 -9 31
-20 11 -12 36 -31 57 -42 21 -12 38 -27 38 -33 0 -7 9 -20 20 -30 44 -40 83
-161 76 -236 -2 -30 -6 -56 -7 -59 0 -3 0 -13 1 -23 1 -10 -4 -25 -11 -33 -6
-8 -9 -17 -5 -21 3 -3 -1 -17 -9 -30 -9 -13 -13 -23 -9 -23 4 0 1 -7 -6 -15
-7 -8 -9 -15 -4 -15 5 0 1 -5 -9 -11 -9 -6 -15 -14 -12 -20 4 -5 -3 -22 -14
-38 -12 -16 -21 -35 -21 -43 -1 -32 -103 -121 -154 -134 -16 -4 -41 -13 -55
-20 -14 -8 -33 -14 -43 -14 -9 0 -18 -3 -20 -7 -3 -8 -56 -35 -128 -66 -19 -8
-57 -20 -83 -26 -40 -10 -54 -9 -83 5 -31 15 -33 18 -18 29 12 8 15 20 11 37
-6 21 -15 27 -50 32 -24 4 -51 4 -60 0 -26 -10 -120 23 -152 54 -35 33 -90 99
-91 110 0 4 -4 14 -8 23 -4 10 -6 23 -5 30 2 8 -2 24 -9 36 -6 12 -12 32 -12
45 0 13 1 66 1 118 0 52 4 99 9 106 6 6 11 25 13 42 2 17 9 37 15 44 6 8 10
28 10 45 -1 37 26 98 47 107 8 3 15 11 15 19 0 35 91 95 180 117 19 5 51 15
70 22 37 14 61 14 225 4z"/>
<path d="M18058 4234 c-21 -22 -38 -49 -38 -58 0 -9 -3 -16 -8 -16 -4 0 -6
-19 -4 -43 4 -49 23 -62 103 -73 52 -7 81 4 105 41 14 21 14 32 4 77 -15 62
-45 97 -91 107 -31 6 -37 3 -71 -35z"/>
<path d="M17722 4260 c-55 -8 -77 -19 -54 -27 10 -4 10 -8 1 -19 -15 -18 -6
-107 11 -112 7 -3 20 -12 29 -21 13 -13 25 -14 66 -7 73 12 75 13 75 41 0 14
5 25 11 25 17 0 2 82 -19 101 -23 22 -57 27 -120 19z"/>
<path d="M18145 3800 c-6 -10 -63 -37 -120 -57 -121 -43 -251 -42 -331 2 -27
15 -56 33 -65 41 -23 21 -63 17 -87 -9 -19 -20 -20 -27 -10 -48 24 -50 107
-99 208 -120 25 -5 52 -14 62 -19 10 -5 29 -5 48 0 18 5 53 10 79 11 25 1 65
8 88 15 48 15 136 55 143 64 3 4 14 12 26 18 26 14 30 69 7 94 -18 20 -39 23
-48 8z"/>
<path d="M15210 4369 c-48 -12 -169 -18 -172 -8 -2 4 -48 0 -103 -8 -80 -12
-118 -13 -190 -5 -49 6 -101 9 -115 6 -14 -2 -72 -11 -130 -19 -58 -9 -119
-20 -137 -26 -53 -16 -320 -23 -424 -10 -102 12 -203 19 -429 26 -80 3 -165 7
-190 10 -78 8 -373 5 -417 -4 -23 -4 -46 -5 -52 -2 -6 4 -43 4 -83 1 -79 -6
-234 -4 -481 5 -187 6 -217 -2 -217 -60 0 -18 4 -37 10 -40 5 -3 8 -16 6 -28
-1 -12 1 -37 5 -57 8 -35 11 -252 5 -365 -2 -33 -4 -73 -5 -88 0 -16 -8 -30
-18 -34 -34 -12 -53 -36 -53 -68 0 -29 4 -33 35 -39 79 -15 429 -17 504 -3 54
11 135 13 310 10 130 -2 331 -5 446 -6 116 -1 215 -6 221 -10 11 -6 131 -8
384 -4 58 1 202 -2 320 -7 152 -6 243 -5 309 3 52 7 98 8 102 4 10 -10 249 -8
437 3 76 4 176 8 223 8 102 1 121 11 109 59 -5 18 -11 77 -15 132 -6 106 -8
125 -25 232 -6 38 -14 102 -16 143 -3 41 -9 90 -14 107 -6 26 -4 38 11 57 27
34 25 41 -27 70 -49 27 -67 30 -124 15z m10 -128 c5 -11 10 -31 10 -45 0 -14
4 -26 8 -26 7 0 11 -24 16 -110 1 -19 6 -43 10 -53 5 -9 6 -29 4 -42 -3 -14
-2 -25 1 -25 9 0 31 -153 31 -212 0 -44 -2 -47 -31 -53 -17 -4 -68 -6 -113 -5
-131 2 -155 2 -276 -9 -63 -5 -117 -8 -119 -5 -7 6 -6 77 2 144 3 30 9 88 13
128 4 39 10 72 14 72 4 0 12 -11 18 -24 16 -36 56 -59 92 -54 16 3 30 1 30 -3
0 -5 7 -6 15 -3 26 10 65 -5 65 -25 0 -21 -34 -30 -122 -33 -36 -1 -48 -5 -48
-16 0 -9 -7 -23 -16 -33 -15 -17 -15 -19 1 -36 35 -35 210 -10 269 39 45 37
47 74 9 128 -26 35 -115 88 -162 95 -8 1 -17 7 -19 13 -2 8 17 12 64 12 64 0
68 2 105 38 54 52 52 72 -8 74 -88 3 -178 -3 -203 -14 -58 -24 -76 -37 -91
-66 l-16 -30 -11 32 c-7 18 -12 44 -12 59 0 14 -4 29 -10 32 -6 4 -6 12 2 24
8 13 23 18 52 17 23 0 66 5 97 13 38 9 72 11 105 6 58 -10 106 -9 154 4 52 13
58 13 70 -8z m-2817 -20 c34 -8 97 -10 158 -7 l101 5 -6 -191 c-4 -124 -2
-197 5 -210 7 -14 7 -23 -2 -34 -7 -8 -12 -37 -11 -63 l1 -48 -112 -12 c-70
-8 -121 -9 -136 -3 -14 5 -46 5 -75 0 -64 -10 -133 -1 -140 19 -4 8 -2 32 3
52 5 20 9 137 8 259 l-2 224 24 12 c28 15 102 14 184 -3z m2267 -1 c5 -8 5
-19 1 -25 -10 -12 -7 -83 4 -108 4 -10 5 -31 2 -47 -4 -16 -2 -30 3 -32 10 -3
-16 -297 -30 -333 -7 -19 -18 -20 -206 -23 -109 -2 -226 0 -260 4 -57 6 -62 8
-51 24 8 14 8 25 -1 45 -7 15 -10 31 -6 36 3 6 8 96 10 202 3 106 8 195 13
199 4 5 95 22 201 38 107 17 200 32 205 34 23 9 107 -1 115 -14z m-1310 -8
l65 -7 -2 -50 c-1 -27 -4 -75 -7 -105 -11 -101 -24 -305 -20 -311 2 -4 1 -22
-3 -40 l-6 -32 -221 8 c-122 5 -239 7 -261 6 -46 -3 -79 -4 -117 -2 -42 2 -45
40 -39 427 2 115 -9 111 293 112 139 1 282 -2 318 -6z m430 -18 c63 -2 148 -9
188 -14 40 -6 76 -10 78 -10 3 0 0 -8 -5 -18 -5 -9 -12 -98 -15 -197 -3 -99
-9 -203 -12 -231 l-6 -51 -111 -9 c-138 -10 -274 -10 -347 0 l-56 7 -2 57 c-8
171 6 445 24 473 5 8 29 9 78 5 39 -3 123 -9 186 -12z"/>
<path d="M12442 4116 c-9 -5 -20 -13 -23 -18 -3 -5 -4 -71 -3 -148 3 -145 14
-190 50 -204 15 -6 45 12 67 39 4 6 5 26 2 45 -17 96 -15 132 7 163 17 24 19
33 9 49 -6 10 -9 23 -6 28 4 6 4 19 0 29 -7 22 -74 33 -103 17z"/>
<path d="M14256 4144 c-3 -9 -6 -45 -6 -80 0 -35 -5 -73 -12 -83 -27 -43 54
-106 123 -95 37 6 38 6 45 -31 4 -21 2 -53 -5 -74 -9 -31 -8 -38 7 -49 9 -7
35 -12 57 -10 l40 3 1 75 c1 100 -2 94 48 109 47 14 70 32 80 68 6 19 2 22
-43 28 -27 4 -59 4 -69 1 -24 -8 -31 13 -27 77 4 51 -10 70 -51 70 -38 0 -53
-29 -54 -100 0 -63 -7 -75 -29 -49 -12 15 -4 103 11 112 5 3 -2 14 -16 25 -30
24 -91 26 -100 3z"/>
<path d="M12867 4132 c-8 -9 -21 -30 -27 -47 -10 -26 -8 -31 12 -47 17 -14 33
-17 60 -13 21 3 62 2 93 -1 58 -7 73 -23 60 -65 -6 -17 -12 -20 -37 -15 -97
19 -208 -121 -134 -169 46 -30 89 -30 137 1 52 33 86 33 139 -1 50 -32 103
-33 124 -3 20 29 4 58 -32 58 -15 0 -35 9 -45 20 -9 11 -23 20 -30 20 -8 0
-22 9 -31 19 -15 16 -16 23 -5 43 7 13 14 48 16 77 5 78 -16 94 -170 130 -68
16 -111 14 -130 -7z"/>
<path d="M13659 4120 c-14 -3 -43 -20 -64 -39 -42 -37 -41 -55 8 -79 22 -11
31 -10 62 8 42 24 78 26 95 5 10 -12 9 -16 -6 -21 -65 -20 -95 -39 -101 -62
-9 -36 6 -53 70 -84 32 -15 57 -32 57 -37 0 -15 -71 -22 -128 -13 -51 9 -53 8
-66 -16 -13 -24 -11 -28 14 -52 26 -24 43 -28 123 -30 73 -1 179 81 167 129
-5 20 -81 81 -102 81 -19 0 3 18 29 25 33 8 93 70 93 95 0 21 -61 70 -87 70
-11 0 -23 4 -28 9 -13 11 -102 19 -136 11z"/>
<path d="M15463 4009 c-18 -28 -21 -68 -4 -69 3 -1 45 -3 92 -6 l87 -6 0 29
c0 38 -23 61 -67 68 -20 4 -48 9 -62 11 -21 4 -30 -1 -46 -27z"/>
<path d="M15770 4019 c-29 -12 -40 -26 -40 -56 0 -27 33 -38 91 -30 50 7 79
32 79 69 0 27 -1 28 -52 27 -29 0 -64 -5 -78 -10z"/>
<path d="M16015 3993 c-11 -3 -30 -14 -42 -25 -18 -17 -20 -24 -11 -44 13 -27
45 -41 61 -25 6 6 25 11 42 11 21 0 40 9 56 26 l24 26 -24 19 c-22 18 -62 23
-106 12z"/>
<path d="M16251 3961 c-33 -27 -34 -28 -16 -54 15 -24 24 -27 71 -27 35 0 54
-4 54 -12 0 -6 9 -2 20 10 43 46 9 112 -58 112 -26 0 -47 -9 -71 -29z"/>
<path d="M16795 3954 c-18 -17 -25 -33 -25 -60 l0 -37 62 7 c35 3 69 13 78 21
13 14 13 20 -6 53 -27 46 -70 52 -109 16z"/>
<path d="M16553 3955 c-50 -21 -60 -97 -15 -103 36 -5 126 35 137 61 9 19 6
24 -22 40 -39 20 -57 21 -100 2z"/>
<path d="M11604 3921 c-10 -10 -81 -31 -107 -31 -15 0 -41 -7 -56 -15 -15 -7
-50 -15 -77 -17 -29 -1 -64 -12 -86 -25 -32 -20 -38 -29 -38 -57 0 -27 5 -36
23 -42 29 -9 50 -39 53 -77 1 -20 13 -40 33 -56 16 -14 35 -37 40 -51 6 -14
21 -41 33 -60 13 -20 33 -52 46 -72 25 -39 45 -51 71 -43 23 7 47 52 55 103 3
24 10 51 15 60 5 9 17 44 26 77 10 33 21 64 26 70 5 5 9 17 9 26 0 9 6 19 14
22 8 3 14 20 14 41 0 19 7 43 16 51 38 38 38 52 2 80 -24 18 -43 25 -70 23
-21 -2 -40 -5 -42 -7z"/>
<path d="M6339 3644 c-9 -11 -14 -45 -15 -98 0 -45 -4 -135 -8 -201 -7 -101
-6 -123 6 -133 18 -15 332 -29 340 -16 3 5 8 21 12 37 5 20 3 27 -8 27 -8 0
-19 6 -23 13 -5 7 -34 13 -73 14 -78 2 -117 7 -148 18 -21 7 -22 11 -17 74 2
36 7 97 10 135 3 38 9 74 14 80 6 7 2 19 -12 32 -32 31 -62 38 -78 18z"/>
<path d="M11192 3553 c-24 -3 -38 -13 -53 -36 -24 -40 -24 -42 1 -67 28 -28
51 -25 95 14 37 33 38 36 25 65 -7 17 -18 30 -24 29 -6 0 -26 -3 -44 -5z"/>
<path d="M7200 3496 c-20 -13 -51 -27 -70 -31 -45 -10 -78 -32 -93 -62 l-13
-24 -32 40 c-17 21 -56 52 -85 66 -61 31 -98 30 -155 -5 -56 -34 -80 -129 -46
-178 8 -12 21 -34 29 -48 13 -25 18 -26 82 -25 65 1 131 11 181 26 13 5 22 3
22 -4 0 -6 14 -18 30 -26 47 -25 92 -11 151 46 61 58 65 57 105 -37 23 -54 26
-71 18 -102 -8 -31 -15 -38 -49 -48 -42 -12 -149 -3 -190 16 -27 12 -77 16
-93 7 -60 -38 111 -120 250 -119 57 0 74 4 110 29 53 35 66 79 49 156 -7 29
-15 65 -18 82 -3 16 -15 43 -27 58 -16 22 -21 44 -22 94 -1 59 -4 67 -30 89
-36 29 -59 29 -104 0z m-301 -102 c35 -20 56 -53 43 -66 -5 -5 -33 -15 -62
-23 -47 -13 -55 -12 -76 3 -46 33 -19 102 39 102 16 0 41 -7 56 -16z m301 -12
c0 -16 -66 -71 -92 -77 -32 -8 -35 1 -12 33 22 32 104 66 104 44z"/>
<path d="M10900 3385 c-7 -8 -19 -15 -26 -15 -8 0 -14 -9 -14 -20 0 -11 5 -20
10 -20 6 0 10 -7 10 -15 0 -21 39 -40 53 -26 6 6 21 11 33 11 25 0 57 51 48
74 -10 26 -95 34 -114 11z"/>
<path d="M798 3254 c-50 -21 -62 -72 -31 -134 12 -26 16 -62 17 -149 0 -64 -3
-129 -6 -146 -14 -74 -20 -195 -23 -443 -1 -186 -7 -301 -19 -377 -9 -60 -19
-130 -22 -155 -3 -25 -10 -50 -15 -56 -6 -7 -4 -16 6 -24 10 -9 13 -23 9 -49
-6 -35 -4 -37 31 -50 20 -7 72 -14 116 -17 44 -2 84 -6 89 -9 5 -3 11 -1 15 5
4 6 60 10 138 10 85 0 149 5 179 14 28 9 98 15 180 16 73 1 149 4 168 6 19 3
121 7 225 9 105 2 210 8 235 14 43 9 148 9 440 -3 187 -8 269 -7 385 4 55 5
231 7 390 4 332 -5 296 -5 400 1 133 8 298 6 350 -5 28 -6 71 -13 96 -17 44
-5 46 -4 59 28 8 19 23 41 34 50 19 16 19 16 -3 40 -26 27 -42 62 -48 99 -1
14 -6 41 -9 60 -11 55 -7 139 5 154 8 9 8 15 2 18 -6 1 -12 30 -15 63 -2 33
-10 82 -16 109 -6 28 -10 59 -9 70 1 12 -3 34 -10 50 -6 16 -9 31 -7 33 3 3 0
17 -5 32 -10 24 -20 94 -35 246 -7 70 -8 75 -18 140 -5 28 -14 60 -22 72 -7
12 -14 37 -16 55 -1 18 -7 45 -15 60 -7 15 -10 33 -7 42 3 9 -5 24 -20 37 -21
18 -36 22 -74 20 -26 -2 -51 -6 -57 -9 -15 -10 -31 -12 -130 -17 -50 -2 -113
-9 -140 -16 -29 -6 -163 -13 -318 -15 -148 -2 -274 -7 -280 -11 -20 -12 -307
-15 -322 -3 -9 8 -15 8 -20 0 -4 -6 -14 -9 -23 -6 -10 3 -53 7 -97 10 -143 10
-309 35 -406 60 -52 13 -114 27 -139 31 -25 4 -58 11 -75 15 -55 16 -174 32
-273 36 -122 6 -442 5 -452 -1 -3 -2 -74 -6 -157 -9 -126 -5 -153 -3 -163 9
-15 18 -25 18 -72 -1z m1035 -133 c65 -12 153 -30 195 -42 89 -24 197 -44 332
-59 52 -6 127 -15 165 -20 100 -11 392 -10 445 3 25 5 135 11 245 13 187 2
405 17 425 29 15 9 190 17 226 11 29 -6 38 -15 60 -62 26 -56 33 -82 37 -144
2 -19 7 -41 11 -49 5 -8 10 -46 11 -85 3 -77 20 -191 37 -246 6 -19 12 -58 13
-86 1 -28 6 -57 10 -65 5 -7 10 -24 12 -38 5 -45 16 -254 17 -328 1 -40 4 -73
9 -73 14 0 7 -37 -10 -53 -15 -13 -42 -15 -178 -11 -262 7 -904 9 -985 3 -41
-4 -169 -3 -285 2 -346 14 -428 15 -470 7 -22 -4 -125 -10 -230 -13 -311 -9
-453 -15 -580 -25 -259 -22 -532 -27 -548 -11 -5 5 -2 35 7 72 8 35 18 98 22
139 3 41 8 79 11 84 3 4 7 156 9 338 2 181 7 334 10 340 8 12 11 29 23 143 5
44 7 83 4 88 -10 17 -10 138 1 144 17 11 166 11 172 1 3 -5 11 -5 18 1 20 16
82 19 366 16 221 -3 298 -8 393 -24z"/>
<path d="M1195 2743 c-82 -25 -119 -48 -138 -89 -16 -32 -17 -41 -6 -61 18
-33 74 -64 189 -104 97 -34 155 -63 179 -93 20 -24 -3 -45 -76 -68 -76 -23
-104 -23 -110 2 -4 13 -18 22 -47 28 -51 11 -65 6 -72 -24 -11 -44 87 -114
161 -114 16 0 64 9 107 21 64 17 85 28 117 62 l39 40 -16 36 c-10 20 -21 38
-26 40 -5 2 -24 18 -41 35 -30 29 -94 66 -116 66 -6 0 -17 7 -25 15 -8 8 -32
19 -52 25 -31 9 -92 50 -92 63 0 2 17 12 39 21 31 14 60 17 150 14 99 -3 111
-1 111 14 0 9 5 20 10 23 23 14 -13 34 -78 44 -121 18 -156 19 -207 4z"/>
<path d="M2662 2673 c-40 -8 -52 -65 -20 -97 19 -19 47 -20 82 -5 25 12 43 39
26 39 -6 0 -10 6 -10 13 0 13 -42 58 -51 56 -2 -1 -14 -4 -27 -6z"/>
<path d="M3049 2547 c-74 -34 -116 -92 -122 -167 -7 -83 10 -135 54 -165 69
-48 224 -40 274 15 23 26 42 25 50 -1 12 -36 75 -98 128 -125 44 -21 58 -24
106 -18 72 9 121 29 148 62 33 40 29 57 -17 72 -38 12 -42 12 -65 -10 -20 -19
-37 -24 -80 -24 -50 -1 -58 2 -80 29 -13 17 -24 35 -25 40 0 6 18 18 40 28 23
9 59 29 80 42 35 22 40 30 40 63 0 93 -164 163 -245 105 -25 -18 -55 -73 -55
-100 0 -45 -24 -71 -75 -79 -28 -4 -45 -11 -45 -20 0 -18 -91 -19 -108 -2 -20
20 -15 112 6 131 10 10 23 17 29 17 14 0 39 31 45 57 4 13 -2 29 -14 42 -21
23 -32 25 -69 8z m416 -141 c0 -11 -64 -30 -72 -22 -3 3 -3 12 1 21 4 11 16
15 38 13 18 -2 33 -7 33 -12z"/>
<path d="M1698 2543 c-54 -6 -94 -57 -103 -132 -4 -32 -10 -63 -15 -70 -9 -16
8 -50 51 -102 36 -43 79 -71 149 -98 44 -17 50 -17 116 -1 105 25 134 43 134
85 0 47 -24 50 -105 13 -11 -5 -48 -9 -82 -10 -53 -1 -67 2 -88 22 -14 13 -25
26 -25 29 0 3 19 15 43 26 53 24 114 71 128 97 6 11 8 35 5 53 -6 28 -15 37
-69 64 -34 17 -71 30 -82 29 -11 -1 -37 -3 -57 -5z m70 -127 c-16 -15 -68 -19
-68 -5 0 5 15 18 32 29 28 17 34 17 41 5 5 -10 3 -20 -5 -29z"/>
<path d="M2470 2534 c-25 -14 -29 -29 -15 -77 4 -16 3 -32 -4 -41 -6 -7 -7
-16 -3 -21 4 -4 0 -6 -8 -3 -8 2 -17 19 -21 37 -14 65 -85 106 -108 62 -19
-34 72 -251 105 -251 8 0 14 -4 14 -10 0 -5 12 -10 26 -10 29 0 98 66 90 86
-3 7 -2 14 1 17 3 3 7 25 9 49 9 92 12 109 18 115 9 10 -45 63 -63 62 -9 -1
-27 -7 -41 -15z"/>
<path d="M2102 2517 c-41 -23 -58 -71 -51 -140 14 -127 36 -167 91 -167 29 0
41 6 54 26 16 24 16 26 -4 54 -44 60 -41 130 6 130 17 1 34 10 45 25 17 24 17
25 -15 55 -36 32 -85 39 -126 17z"/>
<path d="M2690 2472 c-11 -5 -16 -28 -18 -93 -3 -73 -1 -87 13 -93 36 -13 60
4 78 55 32 88 -9 160 -73 131z"/>
<path d="M10631 3244 c-39 -49 -22 -94 34 -94 38 1 61 18 84 63 23 45 13 57
-50 57 -39 0 -51 -5 -68 -26z"/>
<path d="M10394 3098 c-38 -30 -44 -38 -44 -71 0 -21 7 -30 26 -38 30 -11 84
7 84 29 0 7 7 15 15 18 8 4 15 17 15 30 0 15 -6 24 -15 24 -8 0 -15 7 -15 15
0 22 -33 18 -66 -7z"/>
<path d="M14639 3107 c-37 -29 -48 -126 -25 -217 9 -34 16 -82 16 -106 0 -36
5 -50 27 -70 23 -21 52 -25 71 -9 1 1 -7 42 -19 91 -16 64 -23 121 -23 204 -1
94 -4 115 -16 117 -8 2 -22 -3 -31 -10z"/>
<path d="M13403 3003 c-9 -21 -10 -45 -3 -93 6 -36 14 -108 20 -160 13 -130
20 -182 25 -190 3 -4 17 -11 31 -14 44 -11 67 51 33 89 -5 5 -9 32 -9 60 0 28
-5 89 -12 135 -6 47 -11 104 -10 127 3 68 -51 101 -75 46z"/>
<path d="M10158 2967 c-36 -28 -43 -39 -43 -67 0 -29 5 -36 27 -44 24 -8 30
-6 48 17 13 16 31 27 46 27 18 0 29 9 41 35 16 34 16 36 -3 50 -31 23 -69 18
-116 -18z"/>
<path d="M9625 2958 c-22 -5 -53 -10 -70 -12 -16 -3 -32 -6 -35 -7 -3 -1 -135
-3 -295 -5 -159 -1 -373 -4 -475 -5 -186 -4 -318 0 -334 9 -4 2 -52 4 -105 3
-53 -1 -109 2 -126 7 -16 5 -43 5 -60 1 -16 -4 -109 -11 -205 -15 -247 -9
-244 -9 -257 -17 -6 -4 -49 -10 -95 -13 -46 -3 -123 -9 -173 -13 -49 -4 -247
-6 -440 -5 -192 2 -371 3 -397 3 -28 0 -48 5 -48 11 0 6 -8 9 -18 6 -9 -3 -47
-2 -84 2 -53 7 -75 5 -110 -9 -39 -15 -43 -20 -40 -48 1 -17 -2 -31 -8 -31 -5
0 -10 -5 -10 -12 0 -6 3 -9 6 -5 14 14 43 -37 50 -88 1 -11 3 -20 4 -20 5 0
11 -109 14 -268 4 -165 -1 -209 -25 -258 -4 -9 -5 -42 -2 -73 5 -50 4 -56 -11
-50 -9 3 -16 1 -16 -5 0 -6 5 -11 10 -11 6 0 8 -10 5 -22 -6 -25 -1 -35 29
-58 16 -12 69 -15 305 -17 157 -1 286 -3 286 -3 0 0 45 -2 100 -5 55 -2 141
-7 190 -11 50 -3 97 -5 105 -4 63 9 189 13 390 14 129 1 258 5 286 10 35 6 54
5 58 -3 5 -7 22 -9 45 -5 25 4 41 2 46 -5 4 -8 11 -9 18 -3 11 8 58 17 155 28
19 2 59 8 90 15 31 6 65 11 75 10 9 0 25 -2 35 -2 9 -1 31 1 47 5 48 11 235
30 295 29 30 0 84 -6 120 -13 36 -7 101 -15 145 -17 78 -5 109 -5 225 -1 30 1
100 -2 155 -6 55 -4 138 -8 185 -9 68 -2 92 -7 120 -25 19 -12 42 -22 51 -22
23 0 61 44 49 56 -5 5 -12 55 -15 109 -9 164 -13 203 -18 212 -3 4 -6 31 -7
58 -2 59 -7 140 -10 140 -7 0 -7 76 1 81 6 4 5 10 -4 17 -20 15 -33 197 -15
197 9 0 9 3 0 12 -7 7 -12 26 -12 43 0 16 -6 48 -14 69 -13 37 -17 41 -67 51
-31 6 -71 7 -94 3z m-1367 -133 c4 -3 8 -34 9 -68 1 -34 4 -136 7 -226 7 -182
6 -170 7 -334 0 -65 2 -124 5 -131 4 -10 -6 -12 -46 -8 -39 4 -55 1 -70 -13
-16 -15 -28 -16 -67 -10 -61 11 -177 11 -274 2 l-76 -7 -5 37 c-3 21 -4 97 -3
168 2 90 -3 172 -16 265 -11 74 -19 146 -18 160 1 14 0 30 -1 35 -1 6 -1 20 0
33 1 13 -6 35 -15 49 -24 36 -9 42 95 44 47 0 123 5 170 9 96 9 288 6 298 -5z
m1427 5 c3 -5 8 -31 10 -58 6 -87 16 -186 27 -279 6 -51 8 -99 5 -107 -4 -9
-2 -18 4 -22 5 -3 9 -13 8 -22 -1 -10 -1 -19 0 -22 11 -31 20 -259 11 -265 -5
-3 -85 0 -177 6 -92 7 -206 11 -253 9 -203 -6 -233 -3 -210 25 6 8 9 18 7 22
-3 5 -8 65 -11 133 -4 69 -11 202 -17 295 -5 94 -11 189 -12 212 -1 24 -5 43
-9 43 -4 0 -5 6 -2 14 4 10 22 13 77 9 127 -7 358 -8 365 -1 6 6 49 11 139 16
17 1 35 -2 38 -8z m-1075 -12 c52 0 141 3 197 6 95 7 104 6 131 -14 27 -20 30
-29 37 -104 4 -44 8 -88 10 -96 6 -34 16 -240 15 -310 -2 -122 -1 -133 16
-178 9 -24 14 -46 11 -48 -3 -3 -41 3 -84 15 -63 16 -99 19 -183 15 -58 -3
-148 -6 -200 -8 -52 -2 -108 -9 -124 -15 -16 -7 -33 -8 -37 -4 -8 8 -14 111
-25 422 -3 101 -10 195 -15 209 -5 13 -6 29 -2 35 4 6 6 25 5 41 -3 40 12 48
88 41 36 -4 108 -7 160 -7z m-977 -20 c-32 -16 -35 -60 -12 -198 22 -137 31
-339 20 -468 -4 -50 -3 -82 3 -82 5 0 7 -2 4 -5 -7 -7 -372 -27 -468 -26 -116
2 -108 -8 -109 144 -1 73 -1 143 -2 157 -3 179 3 400 13 406 7 5 5 11 -7 21
-12 8 -15 16 -9 22 5 5 97 12 204 16 107 3 229 10 270 14 41 4 84 8 95 9 19 1
19 0 -2 -10z m-983 -13 c58 -2 172 -5 254 -5 l150 -1 -52 -25 c-53 -25 -63
-38 -38 -47 12 -5 14 -32 11 -149 -3 -79 -6 -229 -7 -335 l-3 -192 -110 -1
c-60 -1 -119 -2 -130 -2 -11 0 -84 2 -163 4 -118 4 -145 7 -160 21 -16 17 -16
19 0 47 12 21 14 37 8 59 -4 16 -4 64 1 107 9 78 4 361 -6 394 -3 10 -1 29 4
42 5 14 6 29 2 34 -5 5 -11 22 -15 38 l-7 28 78 -6 c43 -4 125 -8 183 -11z"/>
<path d="M7886 2636 c-10 -9 -20 -30 -21 -49 -2 -40 20 -54 83 -53 23 1 42 -1
42 -4 -1 -3 -15 -14 -33 -25 -18 -11 -33 -31 -35 -43 -4 -25 23 -62 43 -62 7
0 24 -11 39 -25 l26 -24 -32 -15 c-18 -9 -48 -17 -66 -19 -44 -5 -94 -43 -90
-68 2 -11 15 -28 30 -37 23 -14 32 -14 70 -2 24 7 47 17 53 22 5 4 18 8 30 9
33 1 110 53 113 76 4 24 -39 97 -65 111 -14 9 -15 13 -4 26 7 9 19 16 27 16
37 0 59 65 30 90 -8 6 -13 17 -10 25 5 13 -49 40 -73 36 -7 -1 -13 2 -13 8 0
5 -10 9 -22 9 -13 0 -41 3 -63 6 -28 5 -46 2 -59 -8z"/>
<path d="M9390 2689 c-13 -5 -33 -9 -45 -8 -82 6 -117 -2 -147 -31 -20 -21
-28 -37 -25 -50 3 -11 1 -23 -4 -26 -5 -3 -6 -10 -2 -17 4 -6 7 -32 7 -59 1
-26 6 -52 12 -58 6 -6 42 -13 80 -14 89 -4 137 -24 154 -66 11 -27 11 -33 -1
-41 -22 -14 -126 -11 -141 4 -46 45 -95 59 -116 35 -12 -15 -4 -68 10 -68 6 0
22 -8 36 -19 45 -31 101 -44 186 -43 112 2 131 16 127 98 -1 32 -7 62 -13 65
-6 4 -7 12 -4 18 4 6 0 11 -8 11 -9 0 -16 7 -16 15 0 8 -7 15 -15 15 -8 0 -15
5 -15 10 0 6 -7 10 -15 10 -8 0 -15 3 -15 8 0 4 -34 18 -75 31 -41 14 -75 30
-75 37 0 26 65 54 127 54 39 0 66 5 79 16 13 11 15 17 7 20 -7 3 -13 12 -13
19 0 13 -37 46 -50 44 -3 0 -16 -5 -30 -10z"/>
<path d="M8541 2639 c-22 -8 -23 -13 -15 -52 4 -23 8 -80 8 -127 1 -84 1 -84
34 -106 24 -17 46 -22 92 -22 33 1 63 -2 66 -5 3 -3 5 -20 6 -38 0 -84 36
-127 94 -113 22 6 24 10 19 43 -7 42 -16 88 -18 97 -1 3 20 13 47 22 43 15 50
21 51 45 1 37 -27 57 -82 57 l-43 0 -1 45 c-2 56 -1 53 -22 93 -20 37 -36 40
-62 12 -15 -16 -17 -31 -13 -85 6 -70 3 -77 -30 -69 -22 6 -33 38 -37 109 -2
47 -33 105 -55 104 -8 0 -26 -5 -39 -10z"/>
<path d="M7228 2582 c-35 -21 -37 -61 -5 -82 12 -8 44 -15 70 -15 42 0 53 -5
78 -33 31 -35 39 -88 17 -110 -7 -7 -33 -12 -58 -12 -61 0 -120 -39 -120 -78
1 -55 50 -79 103 -50 24 13 85 12 102 -1 22 -17 91 -21 112 -6 18 13 20 18 10
40 -7 14 -24 27 -39 31 -33 7 -34 11 -9 38 19 21 19 22 0 94 -37 147 -171 241
-261 184z"/>
<path d="M6743 2580 c-19 -8 -22 -18 -27 -97 -6 -113 -6 -116 -6 -191 0 -57 2
-63 24 -72 13 -5 26 -14 28 -20 5 -16 34 -2 52 25 11 17 13 31 6 56 -6 21 -6
37 1 45 5 7 6 15 1 18 -10 6 -8 134 2 158 5 11 -3 27 -26 51 -27 28 -37 33
-55 27z"/>
<path d="M12450 2907 c-78 -29 -99 -39 -103 -51 -3 -7 7 -39 23 -72 28 -62 46
-120 41 -141 -1 -7 2 -13 7 -13 5 0 9 -20 10 -44 0 -25 4 -51 8 -58 5 -7 7
-23 5 -36 -3 -28 23 -39 55 -22 22 12 23 17 17 68 -4 33 -2 53 3 51 9 -4 131
-63 196 -96 51 -25 93 -9 82 33 -3 13 -26 28 -67 43 -64 25 -157 78 -157 89 0
4 21 18 48 32 54 28 89 61 103 97 13 34 -23 90 -69 110 -48 20 -159 26 -202
10z m179 -102 c15 -15 14 -17 -4 -28 -22 -13 -87 -40 -121 -51 -19 -6 -23 -2
-28 30 -6 28 -3 41 11 56 15 17 26 19 72 15 30 -3 61 -13 70 -22z"/>
<path d="M16960 2877 c-79 -32 -110 -54 -151 -107 -101 -129 -109 -267 -19
-313 28 -14 50 -16 105 -11 129 10 212 31 227 57 8 16 11 16 31 2 12 -8 40
-15 63 -15 23 0 57 -6 75 -13 50 -20 90 -13 122 23 23 25 27 27 27 11 0 -20
18 -31 54 -31 31 0 46 19 46 57 0 18 5 33 10 33 6 0 10 9 10 19 0 25 16 36 27
19 4 -7 13 -29 18 -48 9 -31 15 -35 47 -38 24 -2 44 3 57 15 22 18 29 53 11
53 -5 0 -20 17 -33 38 -41 64 -87 102 -124 102 -33 0 -73 -31 -73 -57 0 -7
-11 -15 -25 -19 -13 -3 -29 -12 -35 -19 -8 -10 -25 2 -78 54 -59 59 -71 66
-101 63 -36 -4 -47 -10 -92 -57 -28 -28 -44 -78 -42 -131 0 -20 -4 -21 -156
-20 l-156 1 4 35 c1 19 12 47 22 61 10 15 19 30 19 33 0 3 12 20 28 37 30 34
75 61 109 65 13 1 39 12 58 24 30 18 34 25 29 48 -14 58 -31 62 -114 29z m324
-231 c27 -14 66 -57 66 -74 0 -11 -33 -22 -68 -22 -13 0 -37 9 -52 20 -32 23
-31 51 3 75 26 18 19 18 51 1z"/>
<path d="M13572 2878 c-5 -7 -12 -26 -14 -43 -3 -26 0 -30 25 -33 34 -4 53 10
60 44 7 37 -47 61 -71 32z"/>
<path d="M14350 2874 c-8 -3 -21 -17 -27 -31 -32 -68 -4 -126 101 -208 39 -31
31 -38 -33 -31 -58 7 -59 6 -69 -22 -7 -21 -6 -33 4 -46 11 -16 24 -18 88 -14
95 6 126 24 126 74 0 29 -8 42 -41 72 -23 20 -58 52 -77 71 -33 32 -34 35 -17
47 10 8 26 14 35 14 9 0 24 8 33 18 15 16 15 20 1 40 -12 18 -24 22 -62 21
-26 -1 -54 -3 -62 -5z"/>
<path d="M14055 2798 c-77 -66 -119 -129 -110 -166 10 -41 24 -52 66 -52 31 0
47 8 79 36 22 20 40 43 40 51 0 22 16 12 42 -27 15 -23 33 -36 50 -38 47 -6
56 52 14 87 -9 7 -16 21 -16 31 0 9 -9 29 -21 44 -11 15 -19 33 -16 40 5 12
-15 27 -54 39 -9 3 -39 -15 -74 -45z"/>
<path d="M12885 2830 c-11 -4 -31 -20 -44 -34 -22 -23 -24 -35 -24 -108 1 -53
7 -96 17 -120 16 -38 64 -79 100 -85 11 -1 44 -7 71 -12 54 -10 105 7 105 34
0 19 -39 45 -68 45 -41 0 -110 22 -116 36 -4 11 15 25 67 48 68 32 97 61 97
97 0 23 -60 69 -117 88 -35 12 -64 21 -65 20 -2 0 -12 -4 -23 -9z m78 -92 c35
-17 34 -21 -6 -36 -54 -19 -64 -16 -59 18 5 33 21 38 65 18z"/>
<path d="M13224 2826 c-43 -19 -92 -74 -106 -119 -10 -33 -9 -41 10 -67 12
-16 22 -35 22 -43 0 -7 5 -18 11 -24 17 -17 38 -140 27 -151 -6 -6 -4 -19 7
-36 10 -15 15 -37 12 -52 -6 -33 31 -61 61 -45 26 14 35 40 21 57 -6 7 -9 34
-7 59 2 25 0 45 -3 45 -4 0 -12 21 -18 47 -11 42 -10 49 5 60 10 7 21 13 25
13 18 0 83 52 95 76 8 15 14 46 14 70 0 36 -6 48 -37 79 -20 19 -46 35 -59 35
-12 0 -28 2 -36 5 -7 2 -27 -2 -44 -9z m80 -87 c31 -25 28 -52 -12 -86 -33
-30 -50 -29 -62 3 -15 39 -12 75 8 90 24 18 35 17 66 -7z"/>
<path d="M13803 2818 c-18 -11 -33 -26 -33 -34 0 -8 -7 -14 -16 -14 -8 0 -13
-4 -10 -9 3 -5 2 -41 -3 -81 -11 -84 -2 -114 40 -136 37 -19 51 -18 93 6 40
24 50 44 36 71 -9 15 -20 19 -53 17 -41 -3 -42 -2 -40 27 5 55 9 66 41 100 37
39 38 43 15 61 -23 17 -31 16 -70 -8z"/>
<path d="M9915 2804 c-60 -32 -75 -85 -30 -106 20 -9 32 -8 62 8 81 41 94 72
41 98 -37 19 -35 19 -73 0z"/>
<path d="M17900 2810 c-8 -5 -25 -10 -37 -10 -13 0 -23 -4 -23 -9 0 -5 -18
-16 -41 -25 -31 -13 -39 -21 -35 -33 5 -11 -2 -24 -19 -38 -25 -19 -26 -23
-14 -49 7 -15 31 -37 53 -48 43 -22 76 -47 76 -58 0 -4 -14 -7 -31 -8 -124 -3
-116 -98 10 -117 9 -1 22 6 29 16 7 11 19 19 26 19 17 0 86 67 86 83 0 20 -39
77 -53 77 -16 0 -87 48 -87 59 0 11 65 42 95 45 35 4 55 25 55 57 0 41 -52 64
-90 39z"/>
<path d="M18178 2781 c-16 -16 -28 -36 -28 -44 0 -8 -6 -30 -14 -48 -7 -19
-16 -43 -20 -54 -6 -17 -9 -18 -16 -4 -10 17 -3 59 10 59 4 0 10 14 14 32 7
37 -15 78 -42 78 -26 0 -74 -53 -66 -73 3 -9 2 -21 -2 -28 -13 -22 -16 -137
-3 -161 37 -73 92 -89 128 -39 12 16 21 32 21 36 0 3 7 13 15 21 8 9 15 24 15
33 0 10 6 24 14 30 16 14 27 -5 31 -58 4 -39 46 -80 82 -81 32 0 37 16 18 55
-8 19 -24 72 -34 117 -21 95 -49 152 -77 156 -11 1 -31 -10 -46 -27z"/>
<path d="M18397 2785 c-51 -56 -78 -95 -67 -95 6 0 8 -5 5 -10 -4 -6 -1 -17 5
-25 7 -8 10 -28 8 -45 -2 -16 0 -32 6 -34 7 -3 5 -8 -4 -15 -12 -8 -11 -14 10
-35 24 -26 54 -33 78 -17 16 10 26 98 12 106 -6 3 -10 13 -10 21 0 27 17 14
36 -28 35 -78 93 -67 110 20 4 18 11 31 16 30 14 -5 60 -140 54 -160 -7 -28
48 -64 79 -52 8 4 15 18 15 33 -1 27 -21 109 -31 126 -4 6 -15 37 -25 70 -20
67 -60 115 -96 115 -18 0 -30 -11 -48 -42 l-24 -42 -10 25 c-13 31 -64 79 -83
79 -8 0 -24 -11 -36 -25z"/>
<path d="M19500 2785 c-36 -12 -77 -34 -92 -48 -23 -23 -26 -33 -24 -82 3 -48
8 -61 42 -100 21 -25 42 -45 47 -45 10 0 90 -52 99 -65 11 -16 -42 -38 -97
-40 -36 -2 -57 3 -74 17 -31 24 -47 10 -57 -48 -6 -39 -5 -42 22 -49 16 -5 36
-10 44 -13 8 -3 41 -5 73 -4 48 1 70 8 123 38 103 61 104 112 5 187 -28 20
-54 37 -59 37 -17 0 -82 63 -82 79 0 15 88 61 117 61 21 0 27 48 9 75 -19 29
-13 29 -96 0z"/>
<path d="M18923 2763 c-18 -9 -33 -22 -33 -29 0 -6 -6 -14 -13 -17 -18 -7 -61
-154 -58 -197 3 -38 33 -104 53 -117 27 -16 93 -13 135 7 24 11 53 20 66 20
13 0 32 6 43 14 17 13 22 12 45 -10 l26 -24 25 23 c24 22 26 29 21 89 -7 81
11 122 58 132 66 13 77 45 27 76 -96 58 -178 -29 -180 -190 -1 -36 -4 -57 -7
-46 -4 10 -25 24 -47 32 -36 12 -40 12 -54 -6 -18 -23 -61 -34 -95 -26 -34 9
-32 32 3 39 16 3 48 22 71 42 24 19 49 39 56 43 7 4 16 21 19 38 6 27 2 36
-27 63 -32 30 -82 62 -96 60 -3 0 -21 -8 -38 -16z m50 -90 c4 -3 -2 -13 -14
-21 -24 -17 -37 -9 -19 13 14 16 23 19 33 8z"/>
<path d="M13608 2747 c-9 -8 -17 -29 -18 -52 -3 -57 -1 -68 14 -88 11 -15 19
-16 34 -8 25 14 42 138 20 152 -18 12 -30 11 -50 -4z"/>
<path d="M5415 2673 c-28 -7 -57 -44 -49 -62 4 -9 6 -27 5 -40 0 -13 5 -31 12
-40 7 -9 14 -30 16 -47 2 -27 -2 -33 -24 -38 -14 -4 -41 -4 -58 -1 -60 10
-132 17 -207 21 -41 2 -129 8 -195 12 -66 4 -133 5 -150 2 -16 -3 -88 -3 -160
0 -147 7 -190 0 -198 -31 -8 -30 20 -69 52 -71 14 -1 152 -2 306 -3 154 -2
303 -5 330 -9 28 -3 102 -9 165 -12 138 -6 167 -11 153 -25 -6 -6 -8 -24 -3
-43 7 -33 -8 -140 -23 -163 -18 -28 87 -95 111 -71 7 7 12 17 12 23 0 10 136
142 208 200 28 24 38 26 77 21 25 -4 48 -14 53 -22 13 -23 38 -6 52 36 l13 38
-65 65 c-35 36 -87 76 -115 91 -28 14 -53 29 -55 33 -4 11 -123 83 -136 83 -6
0 -12 3 -14 8 -2 6 -69 42 -88 48 -3 1 -14 -1 -25 -3z"/>
<path d="M14708 2548 c-40 -14 -54 -66 -25 -91 27 -23 64 -15 94 21 27 33 25
42 -13 63 -22 13 -36 14 -56 7z"/>
<path d="M9859 2493 c-5 -16 -11 -33 -14 -40 -5 -16 25 -40 63 -48 17 -3 32
-11 32 -17 0 -6 7 -7 16 -4 9 4 22 2 29 -4 18 -15 62 -2 67 18 3 10 7 22 9 27
4 10 -51 45 -103 66 -16 6 -28 15 -28 20 0 5 -14 9 -30 9 -24 0 -33 -6 -41
-27z"/>
<path d="M10190 2363 c-8 -2 -23 -15 -32 -28 -17 -22 -17 -24 3 -49 15 -19 30
-26 54 -26 18 0 35 -4 37 -9 2 -5 21 -11 43 -13 35 -3 41 0 49 24 14 41 -7 71
-62 91 -47 17 -63 19 -92 10z"/>
<path d="M10434 2226 c-39 -17 -48 -30 -35 -54 18 -34 143 -71 167 -51 26 21
13 62 -25 81 -19 9 -39 22 -44 27 -14 14 -25 13 -63 -3z"/>
<path d="M10758 2049 c-21 -12 -24 -52 -5 -66 6 -6 30 -13 52 -16 22 -3 50 -9
62 -13 18 -5 25 -1 33 21 15 40 5 58 -40 73 -48 14 -79 15 -102 1z"/>
<path d="M17694 2020 c-38 -10 -113 -38 -165 -63 -95 -44 -111 -59 -218 -193
-13 -17 -66 -135 -84 -192 -12 -35 -18 -86 -19 -152 0 -55 -4 -100 -8 -100 -4
0 -19 18 -34 40 -21 31 -33 40 -55 40 -18 0 -47 13 -73 33 -51 39 -174 112
-222 132 -33 14 -34 14 -51 -18 -15 -28 -15 -40 -6 -91 14 -78 15 -76 -15 -76
-44 0 -65 -17 -58 -48 8 -34 30 -52 65 -52 15 0 30 -4 33 -8 6 -11 -15 -95
-26 -103 -4 -3 -8 -16 -7 -30 0 -13 0 -38 0 -56 0 -35 6 -42 42 -48 16 -3 40
10 81 43 32 26 66 52 74 57 9 6 45 31 80 58 66 49 85 54 126 35 21 -9 29 -8
45 6 17 16 19 15 34 -26 8 -24 19 -54 22 -68 15 -49 54 -116 89 -150 29 -27
35 -40 31 -60 -12 -55 61 -123 175 -164 92 -33 319 -20 443 25 28 10 54 24 55
29 2 6 8 10 13 10 6 0 22 11 37 25 15 14 31 25 37 25 6 0 18 8 26 18 9 9 25
24 35 33 61 51 122 144 145 223 12 39 27 78 35 86 8 9 15 50 19 99 3 45 10 92
16 103 8 14 8 23 0 31 -6 6 -11 31 -12 57 -2 143 -89 330 -173 372 -54 28
-208 86 -281 107 -102 29 -168 32 -251 11z m229 -123 c15 -9 39 -18 54 -20 16
-1 42 -10 58 -19 17 -9 49 -19 70 -23 22 -4 51 -18 65 -30 14 -12 35 -28 48
-34 12 -6 22 -20 22 -30 0 -10 6 -24 13 -30 14 -11 37 -75 44 -121 11 -69 13
-259 4 -265 -6 -3 -11 -16 -11 -28 0 -34 -34 -134 -52 -154 -16 -17 -18 -22
-18 -42 0 -20 -146 -152 -201 -181 -32 -17 -61 -35 -64 -40 -6 -10 -83 -27
-180 -39 -55 -7 -89 -5 -157 10 -48 10 -100 25 -115 33 -27 15 -26 15 27 10
47 -5 59 -3 83 16 51 40 23 75 -65 83 -50 4 -74 13 -98 37 -3 3 -14 10 -24 16
-11 6 -24 19 -30 30 -6 10 -13 21 -17 24 -12 11 -46 88 -59 132 -10 38 -10 51
0 63 7 8 8 15 3 15 -11 0 -11 1 -18 99 -3 51 1 90 11 125 19 62 46 129 55 136
3 3 14 20 23 38 42 83 161 163 289 196 74 19 206 15 240 -7z"/>
<path d="M17717 1765 c-9 -7 -28 -10 -41 -8 -18 4 -31 -3 -51 -26 -15 -17 -31
-29 -34 -27 -3 2 -6 -17 -6 -42 0 -55 34 -112 67 -112 31 0 98 22 98 32 0 9
13 27 37 51 9 9 6 22 -13 55 -14 23 -23 46 -20 50 2 4 -1 15 -8 24 -10 13 -15
14 -29 3z"/>
<path d="M17996 1668 c-73 -42 -101 -119 -50 -138 14 -6 38 -10 54 -10 38 0
60 -9 60 -26 0 -38 66 14 75 60 4 17 8 38 11 46 2 9 -9 30 -25 48 -24 25 -38
32 -68 32 -21 0 -47 -6 -57 -12z"/>
<path d="M18023 1340 c-13 -5 -23 -16 -23 -25 0 -8 -8 -23 -17 -33 -10 -10
-22 -27 -28 -36 -20 -35 -102 -65 -187 -67 -86 -3 -101 11 -134 129 -6 20 -62
14 -85 -9 -19 -19 -19 -24 -8 -52 39 -94 90 -147 160 -162 31 -8 146 -9 194
-3 50 7 131 87 176 174 21 41 21 45 5 69 -18 27 -20 28 -53 15z"/>
<path d="M15070 1963 c-30 -7 -80 -10 -110 -6 -35 3 -79 -1 -120 -11 -36 -8
-85 -17 -110 -20 -25 -2 -63 -9 -85 -15 -42 -11 -202 -28 -340 -35 -44 -3
-100 -9 -125 -15 -44 -10 -222 -23 -310 -23 -25 0 -128 8 -230 17 -102 9 -264
21 -360 25 -96 4 -202 13 -235 20 -55 11 -207 9 -340 -6 -22 -2 -89 -6 -150
-8 -88 -3 -114 0 -127 12 -12 10 -18 11 -18 3 0 -7 -19 -11 -52 -11 -29 0
-116 -2 -193 -4 -154 -4 -140 3 -165 -82 -10 -33 -10 -46 0 -64 14 -26 18
-214 7 -315 -18 -165 -18 -165 -40 -176 -20 -11 -20 -12 -1 -26 16 -12 18 -24
16 -88 -2 -50 1 -76 10 -81 48 -30 326 -58 688 -70 102 -3 221 -7 266 -9 45
-2 119 1 165 6 46 5 199 13 339 19 232 9 263 8 346 -9 78 -16 108 -17 210 -9
65 5 146 11 179 13 33 2 80 8 105 13 47 10 106 9 225 -4 85 -10 97 -10 308 6
115 8 181 9 210 2 23 -5 94 -8 157 -5 98 3 123 8 168 30 42 20 53 29 49 44 -3
11 -1 22 4 25 5 3 5 13 -1 23 -10 21 -6 334 6 352 3 6 0 15 -7 20 -15 9 -16
14 -24 149 -2 47 -7 113 -9 147 -5 53 -3 64 13 72 25 14 55 61 44 72 -21 21
-294 38 -363 22z m198 -194 c1 -45 7 -111 12 -148 16 -102 24 -454 12 -478 -8
-14 -19 -18 -44 -16 -18 2 -58 3 -88 3 -30 -1 -68 -1 -85 -1 -134 2 -206 0
-259 -9 -33 -5 -80 -10 -103 -10 -39 0 -43 2 -43 24 0 14 5 28 10 31 8 5 8 11
1 19 -6 7 -8 40 -6 77 9 122 5 260 -10 324 -4 17 -8 65 -9 109 -1 72 0 80 21
93 54 35 200 53 503 61 l86 2 2 -81z m-2298 31 c152 -12 186 -18 171 -33 -7
-7 -7 -16 1 -30 17 -32 21 -96 20 -332 0 -154 -4 -235 -13 -270 -13 -46 -17
-50 -54 -58 -22 -4 -56 -6 -75 -3 -19 3 -96 8 -170 11 -121 5 -216 10 -260 14
-13 1 -17 16 -19 69 -1 37 -5 104 -9 150 -4 46 -6 85 -4 87 7 6 14 130 12 203
-1 34 -7 77 -15 95 -23 57 -8 73 82 82 43 5 100 9 126 11 27 1 51 5 54 8 8 7
2 8 153 -4z m-497 -29 c7 -7 7 -15 0 -23 -14 -17 -14 -69 0 -87 6 -7 11 -43
10 -80 -1 -36 -2 -160 -3 -274 l-1 -208 -92 6 c-235 14 -265 21 -292 61 -9 14
-12 30 -8 37 4 7 9 19 11 27 6 27 14 272 12 375 -1 82 3 106 18 135 18 32 24
36 78 41 79 9 255 2 267 -10z m2073 -8 c12 -28 14 -176 2 -190 -8 -10 -6 -13
4 -13 12 0 17 -18 22 -72 4 -40 9 -94 12 -120 3 -25 2 -54 -4 -64 -6 -11 -6
-26 1 -44 7 -17 7 -49 1 -91 -9 -63 -9 -64 -39 -61 -108 9 -269 10 -317 2 -31
-6 -97 -13 -145 -16 -48 -2 -97 -6 -108 -9 -34 -7 -58 19 -50 54 4 17 12 31
18 31 7 0 4 5 -6 11 -13 7 -17 18 -13 33 10 39 20 140 17 171 -6 55 -6 343 -1
349 3 2 44 6 90 6 47 1 104 6 127 11 24 5 93 12 155 15 62 4 114 7 115 9 2 1
27 3 57 4 43 2 55 -2 62 -16z m-1036 -8 c19 -2 97 -7 172 -11 114 -6 139 -10
143 -23 3 -9 7 -59 10 -111 3 -52 9 -142 14 -200 6 -77 5 -130 -5 -199 -8 -51
-12 -96 -10 -100 5 -7 -590 -8 -597 -1 -3 3 -1 28 4 55 18 91 24 265 15 454
-3 68 -8 126 -11 129 -19 19 7 23 113 17 64 -4 133 -8 152 -10z"/>
<path d="M14982 1684 c-40 -7 -86 -17 -103 -23 -16 -6 -42 -8 -57 -5 -51 10
-83 -56 -53 -109 10 -18 21 -49 25 -69 9 -49 35 -67 84 -58 44 8 62 3 62 -15
0 -7 6 -15 13 -18 8 -3 5 -12 -10 -28 -20 -21 -25 -22 -64 -10 -53 16 -119 6
-119 -18 0 -36 91 -91 149 -91 43 0 103 41 131 90 23 38 25 50 17 80 -5 19
-16 43 -25 54 -24 27 -85 64 -112 68 -46 6 -29 25 42 48 76 25 128 62 128 91
0 24 -25 27 -108 13z"/>
<path d="M12734 1648 c-74 -35 -80 -42 -67 -71 15 -31 59 -43 82 -22 38 34
105 2 123 -59 11 -34 10 -40 -7 -52 -10 -8 -36 -14 -57 -14 -50 0 -102 -47
-92 -84 11 -44 29 -51 87 -37 97 23 129 24 162 7 36 -20 77 -10 95 23 9 18 5
24 -45 52 -30 17 -55 32 -55 33 0 2 5 17 11 34 9 25 7 42 -7 84 -19 59 -43 97
-60 98 -7 0 -14 6 -17 14 -10 27 -90 24 -153 -6z"/>
<path d="M12246 1664 l-28 -16 5 -91 c8 -142 42 -259 77 -264 8 -1 30 10 48
26 32 28 32 28 14 52 -37 48 -54 129 -61 297 -1 16 -20 15 -55 -4z"/>
<path d="M14135 1613 c-10 -3 -29 -12 -40 -19 -19 -13 -21 -20 -15 -61 4 -26
3 -60 -2 -75 -8 -22 -6 -37 7 -64 l17 -35 56 6 c31 3 67 8 79 11 37 10 50 -11
58 -86 6 -57 11 -72 30 -84 43 -28 115 2 88 37 -15 19 -36 104 -28 116 3 6 24
11 46 11 21 0 39 5 39 10 0 6 6 10 14 10 24 0 29 19 12 45 -11 16 -26 25 -44
25 -62 0 -70 8 -70 63 0 77 0 77 -25 77 -33 0 -58 -31 -60 -75 -3 -45 -22 -57
-80 -53 l-42 3 3 45 c2 25 8 49 13 54 8 9 -17 47 -30 45 -3 -1 -15 -4 -26 -6z"/>
<path d="M13475 1640 c-73 -8 -93 -22 -87 -60 5 -35 27 -44 109 -44 41 0 50
-3 41 -13 -6 -7 -27 -13 -47 -13 -42 0 -54 -7 -70 -39 -11 -20 -10 -26 15 -52
15 -16 37 -29 49 -29 24 0 62 -36 51 -48 -4 -4 -42 -9 -84 -12 -73 -5 -77 -6
-80 -30 -6 -56 112 -91 184 -55 45 22 81 66 88 108 6 31 3 41 -18 62 -26 26
-26 45 0 75 6 8 21 32 32 52 l21 36 -24 26 c-33 36 -87 46 -180 36z"/>
<path d="M11502 1952 c-13 -10 -25 -33 -29 -55 -3 -22 -11 -37 -19 -37 -8 0
-14 -10 -14 -23 0 -26 -28 -57 -51 -57 -31 -1 -51 -27 -44 -59 5 -23 -1 -46
-26 -95 -32 -65 -32 -66 -14 -86 12 -14 15 -24 9 -28 -24 -16 -23 -41 2 -61
24 -19 28 -19 72 -5 26 9 55 18 65 21 9 3 17 8 17 12 0 4 24 15 53 25 55 19
110 18 225 -2 42 -7 55 -6 59 5 3 7 12 13 20 13 8 0 28 14 45 31 l31 30 -37
32 c-20 18 -58 52 -83 77 -41 40 -57 61 -114 147 -38 56 -111 133 -127 133 -9
0 -27 -8 -40 -18z"/>
<path d="M11064 1916 c-13 -33 2 -60 44 -83 49 -27 99 -28 116 -1 8 14 2 24
-34 58 -35 32 -51 40 -82 40 -24 0 -41 -5 -44 -14z"/>
<path d="M15508 1488 c-29 -8 -38 -16 -43 -40 -8 -35 18 -61 50 -52 11 3 41 8
68 11 49 6 51 9 41 62 -6 28 -10 31 -43 30 -20 -1 -53 -5 -73 -11z"/>
<path d="M15718 1476 c-23 -17 -23 -41 1 -65 15 -15 32 -19 70 -18 57 2 76 16
66 46 -13 43 -100 66 -137 37z"/>
<path d="M15938 1426 c-45 -25 -50 -56 -14 -76 20 -10 34 -10 78 0 70 17 80
25 67 58 -6 15 -16 30 -22 34 -21 14 -71 6 -109 -16z"/>
<path d="M16210 1433 c-8 -2 -21 -16 -28 -31 -12 -25 -10 -29 13 -49 21 -19
33 -21 78 -17 28 3 58 7 65 10 19 5 14 49 -7 68 -18 16 -90 28 -121 19z"/>
<path d="M16478 1433 c-10 -2 -21 -17 -24 -31 -3 -15 -7 -32 -9 -39 -6 -20 13
-26 92 -29 63 -3 77 0 94 17 27 27 21 40 -32 66 -42 21 -82 26 -121 16z"/>
</g>
</svg>
