<?xml version="1.0" standalone="no"?>
<!DOCTYPE svg PUBLIC "-//W3C//DTD SVG 20010904//EN"
 "http://www.w3.org/TR/2001/REC-SVG-20010904/DTD/svg10.dtd">
<svg version="1.0" xmlns="http://www.w3.org/2000/svg"
 width="1048.034944pt" height="400.000000pt" viewBox="0 0 1048.034944 400.000000"
 preserveAspectRatio="xMidYMid meet">
<metadata>
Created by potrace 1.15, written by Peter Selinger 2001-2017
</metadata>
<g transform="translate(-21.510837,405.313646) scale(0.047740,-0.047740)"
fill="#444444" stroke="none">
<path d="M18876 8474 c-9 -8 -16 -27 -16 -41 0 -22 3 -24 27 -18 39 9 53 23
53 51 0 19 -5 24 -24 24 -14 0 -32 -7 -40 -16z"/>
<path d="M18653 8018 c-16 -8 -23 -20 -23 -40 0 -26 3 -29 27 -26 34 4 65 55
42 69 -17 11 -18 10 -46 -3z"/>
<path d="M19119 7969 c-7 -4 -15 -22 -17 -38 -3 -28 0 -31 25 -31 41 0 55 13
48 43 -7 27 -34 40 -56 26z"/>
<path d="M18826 7828 c-15 -24 -30 -134 -30 -228 -1 -44 2 -55 16 -58 25 -5
48 48 47 110 0 29 2 64 6 78 7 32 -4 120 -16 120 -5 0 -15 -10 -23 -22z"/>
<path d="M18436 7773 c-11 -35 -8 -249 4 -298 6 -27 14 -62 17 -76 5 -28 40
-56 54 -42 5 5 3 41 -6 84 -7 41 -15 131 -16 199 -1 69 -4 130 -6 137 -7 19
-41 16 -47 -4z"/>
<path d="M18573 7773 c-7 -2 -13 -15 -13 -29 0 -17 7 -25 24 -30 34 -8 46 2
46 37 0 24 -4 29 -22 28 -13 0 -29 -3 -35 -6z"/>
<path d="M18946 7648 c-3 -13 -6 -35 -6 -49 0 -14 -3 -29 -7 -32 -3 -4 -7 -35
-8 -70 -9 -284 -9 -283 31 -275 16 3 20 16 26 78 9 99 11 347 3 360 -11 18
-32 11 -39 -12z"/>
<path d="M21765 7500 c-19 -22 -19 -22 0 -36 42 -31 93 -5 68 35 -15 24 -47
24 -68 1z"/>
<path d="M22064 7288 c4 -90 9 -190 11 -223 3 -33 7 -129 10 -212 l5 -153 -32
0 c-47 0 -62 -13 -54 -45 6 -23 10 -26 34 -20 15 3 33 13 40 22 11 15 12 15
14 -3 0 -10 0 -27 0 -37 -2 -13 4 -17 15 -15 16 3 18 17 16 138 -2 212 -8 341
-23 533 -11 139 -17 177 -28 177 -12 0 -13 -26 -8 -162z"/>
<path d="M18647 7380 c-34 -27 -34 -45 -2 -66 31 -20 52 -13 61 21 5 20 1 32
-13 46 -19 20 -20 20 -46 -1z"/>
<path d="M18661 7136 l-25 -26 26 -28 c29 -30 44 -74 53 -147 6 -45 3 -55 -25
-100 -36 -55 -83 -199 -74 -227 3 -9 15 -25 27 -35 12 -10 33 -38 46 -63 32
-59 50 -80 72 -80 26 0 32 15 35 100 2 66 6 84 34 129 30 48 32 59 33 144 1
75 -4 105 -25 164 -15 40 -33 85 -42 100 -14 25 -39 76 -41 80 0 0 -16 4 -35
8 -30 5 -39 2 -59 -19z m116 -378 c-8 -24 -20 -67 -28 -95 -12 -51 -29 -71
-29 -36 0 9 -5 31 -12 48 -10 29 -8 38 22 91 18 33 38 65 44 73 18 23 20 -31
3 -81z"/>
<path d="M18387 7132 c-21 -23 -22 -48 -1 -56 28 -11 41 -6 59 20 13 20 14 28
4 40 -16 19 -43 18 -62 -4z"/>
<path d="M18521 7044 c-19 -24 -21 -39 -21 -160 0 -94 -7 -179 -25 -288 -14
-85 -25 -169 -25 -185 0 -35 14 -40 29 -12 14 25 71 249 71 276 0 12 3 25 7
29 11 10 5 348 -5 358 -6 6 -18 -2 -31 -18z"/>
<path d="M21035 6989 c-10 -15 -13 -484 -4 -564 17 -145 33 -183 56 -132 7 16
8 63 2 148 -5 68 -11 162 -13 209 -3 47 -8 135 -12 195 -4 61 -7 120 -7 133 1
23 -11 29 -22 11z"/>
<path d="M19009 6959 c-15 -29 -37 -173 -32 -204 7 -34 27 -49 50 -36 16 8 19
21 17 82 0 41 3 91 8 112 13 57 -19 91 -43 46z"/>
<path d="M21504 6892 c-6 -4 -15 -32 -19 -62 -9 -66 -9 -279 -1 -288 4 -3 13
1 22 9 26 27 40 349 15 349 -3 0 -11 -4 -17 -8z"/>
<path d="M21342 6841 c-3 -41 31 -61 59 -35 31 28 21 58 -21 62 -33 3 -36 1
-38 -27z"/>
<path d="M18256 6597 c-28 -20 -17 -52 18 -52 40 0 58 29 31 49 -25 19 -27 19
-49 3z"/>
<path d="M20667 6560 c-44 -34 -9 -88 48 -74 31 8 35 52 7 77 -23 21 -24 21
-55 -3z"/>
<path d="M18934 6501 c-15 -17 -32 -31 -38 -31 -17 -1 -77 -83 -92 -126 -8
-21 -14 -72 -14 -112 0 -66 2 -73 24 -83 18 -9 33 -7 69 10 25 12 50 21 56 21
5 0 19 13 30 29 22 31 29 105 10 116 -12 8 -2 124 13 142 14 18 6 57 -14 61
-9 2 -29 -11 -44 -27z m-30 -223 c5 -11 1 -20 -13 -27 -29 -16 -30 -15 -25 37
7 68 16 84 24 42 4 -19 11 -43 14 -52z"/>
<path d="M21886 6461 c-23 -25 -13 -41 25 -41 33 0 48 22 29 45 -17 20 -33 19
-54 -4z"/>
<path d="M18682 6388 c-7 -7 -12 -20 -12 -30 0 -9 -16 -51 -36 -92 -38 -82
-47 -118 -45 -183 2 -47 -12 -83 -33 -83 -7 0 -22 10 -33 23 -28 29 -93 157
-93 182 -1 47 -56 75 -89 47 -26 -23 -37 -90 -17 -98 20 -8 47 -61 39 -80 -3
-7 -1 -14 5 -14 15 0 20 -107 7 -164 -7 -28 -22 -67 -33 -86 -38 -63 -51 -217
-26 -306 5 -19 0 -22 -37 -27 -23 -3 -48 -11 -55 -19 -9 -9 -15 -66 -19 -206
-3 -106 -9 -223 -15 -260 -10 -69 -16 -267 -25 -822 -3 -181 -13 -402 -22
-498 l-17 -173 -84 6 c-46 3 -95 11 -109 16 -14 5 -40 11 -59 14 -18 2 -52 9
-75 15 -37 10 -44 9 -62 -9 -17 -17 -19 -24 -9 -45 10 -22 29 -201 25 -236 -1
-8 -4 -188 -7 -400 -3 -212 -8 -578 -12 -815 -3 -236 -8 -433 -10 -436 -2 -4
-6 -96 -9 -205 -2 -110 -10 -251 -16 -315 -8 -87 -8 -122 1 -138 6 -12 8 -26
4 -32 -3 -6 -7 -32 -9 -58 -1 -25 -5 -93 -10 -151 -7 -95 -6 -107 11 -128 24
-28 31 -29 237 -18 125 6 183 5 230 -4 96 -20 109 -20 492 -29 284 -7 378 -12
445 -27 72 -15 133 -18 395 -17 171 1 366 6 435 11 69 6 170 14 225 17 54 4
103 9 107 12 5 2 169 7 366 9 196 2 449 7 562 10 256 7 390 5 412 -7 12 -6 30
-4 55 6 24 10 65 16 113 15 83 -1 286 8 395 17 108 9 126 26 85 81 -15 21 -21
47 -24 112 -2 47 -7 146 -11 220 -9 163 -9 196 4 420 5 96 8 213 6 260 -2 47
-6 171 -9 275 -4 105 -10 240 -14 300 -4 61 -6 178 -5 260 2 83 5 338 8 568 2
229 6 421 9 426 3 5 -4 17 -15 27 -17 15 -24 16 -39 6 -11 -7 -23 -12 -27 -12
-7 0 -8 79 -3 255 2 77 28 184 61 248 16 32 29 65 29 73 0 8 4 14 9 14 5 0 12
16 15 35 5 24 22 48 61 82 55 50 79 90 76 132 0 13 4 30 11 38 7 9 8 17 1 24
-6 6 -7 28 0 62 21 119 10 233 -34 344 -12 29 -18 56 -15 62 4 6 4 22 0 36 -7
30 -39 33 -69 7 -18 -15 -20 -29 -19 -140 1 -126 -12 -204 -41 -248 -19 -29
-28 -30 -74 -2 -65 38 -149 128 -167 179 -18 50 -43 66 -74 49 -20 -11 -33
-75 -21 -99 5 -9 11 -33 15 -53 4 -20 13 -50 21 -65 8 -15 15 -36 15 -45 0 -9
4 -19 9 -22 22 -14 46 -240 34 -329 -3 -22 -16 -49 -32 -65 -48 -48 -68 -86
-74 -137 -4 -27 -12 -79 -20 -115 -12 -57 -15 -62 -23 -42 -7 16 -6 48 3 95
13 76 17 217 7 255 -8 27 -45 30 -65 5 -29 -37 -42 -67 -30 -71 16 -5 14 -72
-4 -106 -8 -15 -15 -34 -15 -41 0 -7 -27 -42 -61 -77 -33 -34 -76 -82 -96
-105 -38 -46 -53 -53 -53 -25 0 10 -5 23 -11 29 -7 7 -9 34 -5 74 3 35 5 74 6
87 0 13 6 33 12 45 21 38 19 85 -3 101 l-21 14 23 44 c12 23 25 50 29 58 7 18
5 90 -4 118 -4 12 -2 31 5 44 9 16 9 23 0 26 -6 2 -11 15 -11 28 0 13 -4 32
-9 42 -20 37 -51 122 -51 138 0 15 -50 133 -68 160 -4 6 -19 29 -34 50 -33 46
-53 136 -38 165 15 28 2 68 -25 75 -37 9 -57 1 -75 -31 -16 -29 -14 -57 11
-107 9 -19 -8 -144 -24 -173 -6 -11 -18 -40 -27 -64 -16 -46 -40 -66 -40 -34
-1 20 -64 210 -73 219 -3 4 -17 4 -31 0 -27 -7 -51 -57 -35 -73 6 -6 16 -45
24 -88 11 -66 11 -84 -1 -118 -16 -46 -19 -113 -4 -122 6 -4 -2 -22 -19 -43
-37 -46 -68 -128 -77 -205 -3 -31 -10 -60 -15 -62 -12 -8 -30 31 -34 78 -3 23
-13 98 -24 167 -37 230 -33 215 -63 218 -40 5 -67 -13 -61 -40 3 -13 9 -28 14
-33 4 -6 8 -28 8 -50 0 -22 4 -62 8 -90 11 -64 -4 -200 -26 -236 -20 -33 -109
-104 -171 -137 -63 -33 -81 -53 -116 -124 -54 -110 -64 -176 -40 -269 8 -31
16 -62 18 -70 3 -12 -34 -14 -232 -15 -138 -1 -309 -9 -415 -19 -177 -17 -875
-28 -889 -14 -3 3 -15 48 -27 100 -16 77 -20 127 -19 279 0 102 0 374 -1 605
-2 581 -2 615 2 827 2 133 0 191 -8 199 -8 8 -9 18 -3 29 5 9 9 34 8 56 -4
128 2 255 12 274 9 17 8 26 -5 46 -24 37 -51 31 -76 -18 -12 -24 -28 -51 -37
-61 -19 -21 -37 -51 -57 -97 -9 -19 -27 -57 -40 -85 -15 -34 -21 -61 -18 -82
3 -18 2 -44 -1 -58 -6 -22 -9 -24 -27 -14 -21 11 -21 17 -17 153 5 159 14 187
74 206 51 17 83 74 94 167 4 41 13 80 19 86 8 8 7 15 -3 26 -10 13 -11 39 -4
129 11 125 6 142 -41 142 -15 0 -32 -5 -39 -12z m4 -224 c-3 -9 -7 -37 -7 -62
l-2 -47 -7 45 c-9 49 -4 80 12 80 5 0 7 -7 4 -16z m-22 -203 c-20 -22 -24 -10
-11 32 l12 38 6 -28 c3 -17 0 -34 -7 -42z m-121 -58 l38 -6 -21 -22 c-30 -32
-60 -117 -60 -170 0 -26 -5 -45 -11 -45 -8 0 -9 21 -4 70 l7 70 -26 0 c-41 0
-56 -42 -59 -170 -1 -68 -6 -109 -12 -107 -5 2 -10 12 -11 23 0 10 -4 34 -8
52 -8 33 17 162 36 188 27 37 56 106 51 121 -5 13 -2 15 18 9 13 -4 41 -10 62
-13z m233 -731 c-4 -125 -6 -245 -5 -267 3 -98 3 -695 1 -946 -2 -178 1 -293
8 -325 20 -87 27 -144 19 -150 -5 -3 -35 0 -66 5 -51 10 -186 18 -320 20 -30
1 -43 5 -43 15 0 7 -13 19 -30 26 -34 14 -131 110 -124 122 8 12 45 -11 92
-57 39 -39 85 -60 104 -48 5 2 8 18 8 34 0 21 -6 32 -22 39 -13 5 -43 27 -68
50 -25 23 -57 48 -72 56 -25 13 -28 20 -28 64 0 28 2 50 5 50 3 0 29 -24 58
-54 51 -54 97 -75 124 -58 20 13 0 67 -23 65 -12 -1 -37 21 -69 58 -34 40 -57
59 -72 59 -21 0 -23 5 -23 50 0 46 1 49 22 41 12 -4 40 -32 63 -62 48 -64 78
-73 114 -35 l24 25 -24 10 c-13 5 -53 39 -88 75 -43 44 -72 66 -88 66 -20 0
-23 5 -23 43 l0 42 45 -45 c25 -25 52 -57 60 -72 10 -19 24 -28 39 -28 34 0
56 10 56 26 0 21 -159 174 -181 174 -12 0 -19 7 -19 20 0 11 2 20 4 20 11 0
76 -43 76 -50 0 -4 12 -19 27 -34 36 -37 87 -34 91 5 2 21 -4 32 -30 50 -18
13 -49 38 -68 57 -19 18 -47 35 -62 39 -27 5 -28 8 -28 64 0 33 3 59 8 58 4 0
32 -29 62 -64 42 -49 61 -63 80 -62 41 3 36 33 -17 95 -60 71 -71 81 -106 88
-23 6 -28 11 -25 33 4 35 32 30 78 -15 43 -41 96 -55 106 -29 9 22 -6 46 -35
61 -13 7 -37 25 -54 42 -18 16 -42 33 -53 36 -20 6 -34 32 -34 64 0 23 18 12
81 -48 64 -62 87 -71 109 -45 10 12 1 26 -51 80 -65 68 -99 86 -124 65 -13
-11 -15 -5 -15 39 l0 52 28 -20 c16 -11 45 -38 64 -59 38 -42 74 -58 95 -40
25 21 13 47 -44 93 -32 25 -66 53 -77 61 -10 9 -27 14 -37 11 -17 -4 -19 1
-19 39 0 41 2 44 19 34 11 -5 41 -35 67 -65 54 -62 88 -72 104 -30 13 34 3 55
-26 55 -13 0 -24 5 -24 12 0 6 -29 40 -64 74 -36 35 -60 66 -55 70 6 3 31 -16
57 -44 70 -74 113 -89 125 -42 5 19 -30 60 -51 60 -24 0 -11 19 15 22 41 5 38
23 -13 78 -43 46 -45 51 -22 45 27 -7 68 8 68 25 0 6 -8 18 -19 28 -95 88
-112 107 -97 110 9 2 27 -10 41 -27 23 -27 28 -29 56 -19 25 9 30 15 25 34 -8
29 -8 28 172 31 l144 2 -6 -227z m2544 -478 c0 -9 11 -30 25 -48 14 -18 25
-41 25 -51 0 -9 9 -34 19 -54 39 -72 64 -178 61 -254 -1 -29 -2 -66 -1 -83 0
-18 -6 -37 -14 -44 -8 -7 -15 -20 -15 -28 0 -9 -21 -59 -46 -110 l-47 -95 -15
44 c-11 33 -13 68 -9 137 7 100 23 137 65 148 30 8 28 30 -7 65 -37 36 -55 36
-96 2 -18 -16 -44 -36 -58 -47 -15 -10 -29 -26 -32 -35 -3 -10 -32 -40 -66
-67 -33 -27 -66 -60 -74 -74 l-13 -25 -10 25 c-18 48 8 167 49 226 15 23 51
58 78 80 28 21 51 41 51 46 0 4 11 24 25 44 14 20 25 49 25 65 0 15 4 30 9 33
7 4 31 62 47 114 5 17 24 6 24 -14z m740 -205 c73 -59 99 -70 138 -59 21 5 51
23 67 40 16 16 33 30 38 30 4 0 5 -26 2 -57 -4 -32 -9 -71 -11 -88 -2 -20 -19
-44 -54 -75 -27 -26 -50 -52 -50 -58 0 -6 -9 -27 -20 -47 -11 -20 -20 -40 -20
-46 0 -6 -9 -24 -21 -41 -12 -16 -32 -59 -46 -96 -33 -92 -42 -184 -34 -386 4
-89 -1 -96 -66 -96 -33 0 -42 4 -42 18 0 32 -21 115 -32 129 -12 14 -10 28 16
148 9 39 18 84 21 100 8 40 32 96 55 120 24 27 62 132 56 156 -3 10 -2 21 3
24 17 10 -3 171 -36 283 -8 27 3 28 36 1z m-847 -443 c-4 -70 -2 -106 6 -110
6 -4 11 -15 11 -26 0 -10 7 -21 16 -24 9 -4 14 -9 11 -13 -4 -3 4 -18 17 -34
20 -23 23 -35 19 -76 -3 -26 -10 -54 -16 -61 -9 -11 -32 -92 -44 -154 -3 -16
-13 -28 -27 -32 -29 -8 -232 -8 -291 1 -42 5 -49 10 -61 39 -10 24 -12 45 -5
73 10 45 0 111 -24 158 -9 18 -18 49 -21 70 -13 98 -14 101 -39 107 -28 7 -75
-12 -75 -30 0 -7 4 -24 9 -37 8 -21 1 -44 -45 -134 -44 -88 -56 -122 -61 -176
l-6 -67 -33 0 c-30 0 -34 4 -53 54 -20 54 -23 140 -6 197 12 42 50 109 61 109
7 0 14 7 17 15 4 8 30 28 59 45 93 55 143 95 161 134 l18 37 24 -30 c14 -16
25 -32 25 -35 0 -3 16 -28 35 -55 19 -26 35 -55 35 -63 0 -8 5 -19 12 -26 20
-20 36 -79 26 -97 -12 -20 7 -45 34 -45 27 0 58 18 58 34 0 8 6 16 14 19 10 4
13 27 11 99 -2 51 2 101 7 112 9 17 115 126 122 126 2 0 1 -47 -1 -104z m577
-366 c18 -12 58 -98 61 -130 3 -28 1 -35 -13 -34 -10 0 -61 1 -113 2 -73 2
-95 5 -95 16 0 7 -7 19 -16 27 -8 7 -22 25 -30 40 -13 27 -12 30 26 76 22 26
57 67 78 89 l37 41 29 -61 c16 -33 32 -63 36 -66z m-3555 -137 c32 -36 32 -43
-5 -43 -28 0 -30 3 -30 35 0 19 2 35 5 35 2 0 16 -12 30 -27z m37 -118 c167
-3 353 -10 413 -16 61 -7 286 -12 505 -13 331 -1 424 2 575 19 206 23 517 26
1075 10 184 -5 346 -8 360 -8 273 15 391 17 635 12 110 -2 221 0 247 4 l47 8
3 -98 c2 -54 2 -262 0 -463 -3 -201 -5 -396 -5 -435 -1 -112 13 -518 23 -669
5 -76 8 -142 5 -146 -2 -4 -5 -54 -5 -111 -1 -57 -5 -151 -10 -209 -11 -127
-13 -219 -6 -365 2 -63 0 -112 -5 -116 -6 -3 -3 -37 6 -85 8 -43 15 -79 15
-79 0 0 -15 0 -32 -1 -18 0 -77 -4 -130 -8 l-98 -8 -2 91 c-1 50 -2 103 -3
119 -2 15 -5 83 -9 152 -9 187 -16 284 -27 395 -6 55 -12 141 -13 190 -4 104
-14 167 -30 178 -16 10 -134 -1 -261 -26 -67 -13 -149 -22 -210 -22 -259 0
-784 16 -814 25 -25 7 -38 6 -49 -2 -22 -19 -33 -57 -22 -77 11 -22 12 -52 5
-196 -5 -120 -16 -503 -19 -712 -1 -73 -4 -134 -6 -136 -5 -5 -72 -10 -290
-22 -52 -3 -131 -10 -175 -16 -113 -15 -676 -21 -777 -9 -211 27 -367 39 -533
41 -99 1 -211 3 -250 3 -38 1 -126 10 -195 20 -124 18 -173 18 -390 0 l-75 -6
12 168 c7 93 16 197 21 231 5 36 5 69 -1 78 -5 9 -6 55 -3 103 3 48 9 164 12
257 3 94 7 215 10 270 2 55 7 342 9 638 3 296 10 548 15 562 5 13 6 36 1 52
-4 15 -4 84 1 153 4 69 5 136 3 150 -2 14 -7 57 -10 96 l-5 72 80 -19 c65 -15
136 -20 382 -24z m3491 -1860 c4 -66 12 -174 17 -240 6 -66 13 -174 16 -240 3
-66 9 -190 13 -275 4 -85 6 -157 3 -160 -2 -3 -50 -5 -107 -6 -57 0 -110 -5
-117 -11 -9 -7 -42 -7 -103 -1 -49 5 -127 8 -173 6 -67 -2 -82 0 -83 12 -10
151 -10 668 1 690 1 3 2 8 1 12 0 4 -3 55 -5 115 -2 59 -8 122 -11 140 l-7 31
103 1 c57 0 129 5 159 10 126 21 185 32 188 36 2 1 24 2 50 1 l47 -1 8 -120z
m-877 85 c174 0 224 -3 240 -14 18 -14 19 -29 19 -328 1 -172 2 -371 4 -443 1
-71 2 -151 2 -176 l-1 -46 -87 -8 c-71 -7 -336 -10 -520 -6 l-33 1 0 96 c0 52
5 193 10 312 10 211 16 343 20 487 2 39 -1 85 -5 104 l-7 34 68 -6 c38 -4 168
-7 290 -7z"/>
<path d="M18052 3246 c-35 -7 -71 -20 -80 -29 -15 -16 -15 -19 3 -50 18 -28
20 -53 22 -211 1 -99 7 -184 12 -189 25 -25 85 24 61 50 -4 4 -5 37 -1 72 l6
64 85 2 c78 1 130 15 130 33 -1 25 -23 33 -105 38 -49 3 -95 10 -102 15 -12
11 -38 117 -31 125 3 2 62 10 131 16 132 13 147 20 127 59 -9 17 -22 19 -103
18 -51 -1 -120 -7 -155 -13z"/>
<path d="M19009 2991 c-47 -47 -59 -67 -59 -92 0 -59 49 -111 132 -140 32 -11
40 -10 63 5 23 15 24 20 13 33 -7 9 -29 23 -48 31 -42 17 -80 50 -80 70 0 19
58 72 80 72 9 0 25 9 36 21 26 28 8 53 -41 57 -35 3 -42 -2 -96 -57z"/>
<path d="M21385 3039 c-63 -10 -607 -17 -815 -10 -58 2 -114 1 -125 -2 -38
-12 -49 -82 -35 -205 7 -61 10 -135 6 -172 -4 -36 -8 -137 -10 -225 -2 -88 -7
-183 -11 -212 l-7 -52 33 -5 c190 -28 694 -32 944 -7 113 12 239 14 248 5 3
-3 45 -8 94 -10 48 -2 107 -9 131 -15 41 -11 44 -11 60 12 30 42 40 122 28
216 -4 36 -1 66 10 99 13 38 17 99 19 296 2 277 -1 296 -50 288 -17 -2 -46 -4
-65 -3 -122 6 -423 7 -455 2z m445 -88 c0 -4 -12 -14 -27 -21 -16 -8 -48 -28
-73 -46 -55 -39 -122 -73 -215 -108 -38 -15 -79 -31 -90 -36 -147 -67 -205
-79 -261 -55 -21 9 -73 27 -114 41 -41 14 -83 32 -92 41 -20 17 -117 68 -168
87 -19 8 -59 30 -88 49 l-53 36 108 1 c59 0 122 3 138 5 17 3 183 7 370 11
187 3 341 6 342 7 5 6 223 -6 223 -12z m-1195 -91 c68 -43 77 -48 165 -91 47
-22 94 -49 105 -59 21 -18 113 -61 230 -106 69 -27 70 -27 115 -10 25 10 68
24 95 31 28 7 91 31 141 54 51 23 101 41 112 41 12 0 24 5 27 10 4 6 41 27 83
47 42 21 82 42 87 48 19 22 64 45 70 36 3 -5 5 -24 4 -43 0 -18 2 -91 5 -161
2 -70 0 -142 -5 -160 -6 -18 -10 -83 -10 -146 l0 -113 -27 6 c-15 4 -109 14
-210 23 -159 14 -202 15 -340 3 -175 -15 -554 -19 -677 -7 -44 5 -80 9 -80 10
-1 2 9 134 19 257 3 36 8 77 12 92 3 15 0 36 -6 48 -6 12 -7 26 -2 36 5 8 5
44 0 81 -7 48 -6 73 3 89 13 25 23 23 84 -16z"/>
<path d="M18438 3001 c-68 -34 -116 -68 -145 -101 -58 -66 -29 -126 61 -124
46 0 53 4 92 47 23 26 44 47 47 47 2 0 12 -20 21 -44 25 -66 41 -76 109 -69
31 3 58 11 59 17 1 6 2 29 3 51 2 22 8 53 14 68 9 23 15 27 34 22 34 -10 67
-52 68 -88 1 -18 2 -45 3 -62 1 -25 6 -31 30 -33 16 -2 32 2 37 10 32 50 -24
200 -92 245 -34 22 -42 24 -70 14 -53 -18 -100 -75 -108 -129 l-7 -47 -16 35
c-9 19 -18 44 -21 55 -14 52 -36 99 -49 106 -10 6 -34 -1 -70 -20z m-17 -110
c-11 -20 -54 -51 -71 -51 -21 0 -9 21 28 44 45 30 56 32 43 7z"/>
<path d="M19324 2993 c-15 -46 -27 -73 -33 -73 -3 0 -19 9 -36 20 -16 11 -42
20 -56 20 -21 0 -28 -6 -32 -27 -6 -34 -1 -43 22 -43 10 0 27 -10 38 -22 l21
-23 -38 -65 c-21 -36 -59 -89 -85 -118 -53 -62 -55 -86 -7 -90 27 -3 39 3 68
33 19 20 45 61 59 91 14 30 28 54 33 54 5 0 16 16 25 35 10 21 24 35 35 35 10
0 27 6 37 14 16 12 17 17 6 42 -10 25 -9 35 4 62 23 46 16 66 -23 70 -24 2
-34 -1 -38 -15z"/>
<path d="M19153 2528 c-11 -18 -15 -236 -5 -255 5 -8 7 -26 4 -39 -4 -20 -10
-24 -39 -24 -25 0 -43 -8 -64 -29 -78 -78 15 -182 137 -152 45 12 93 39 94 53
0 4 -11 32 -25 63 -33 71 -35 86 -38 240 -1 72 -6 136 -10 143 -10 16 -44 16
-54 0z m8 -399 c27 -14 14 -29 -22 -25 -36 4 -48 14 -29 26 19 12 27 12 51 -1z"/>
<path d="M18290 2481 c-10 -7 -14 -29 -14 -78 0 -95 20 -369 28 -382 11 -18
45 -12 56 9 6 11 9 35 6 53 -7 40 -17 161 -25 297 -6 108 -14 124 -51 101z"/>
<path d="M18063 2454 c-56 -28 -115 -87 -139 -138 -44 -94 -25 -172 52 -219
55 -33 100 -34 200 -5 56 16 74 25 74 39 0 27 -9 29 -99 20 -95 -10 -143 -1
-166 32 -26 38 -19 75 28 133 49 61 55 65 121 73 63 8 82 33 47 62 -28 23 -75
24 -118 3z"/>
<path d="M18838 2303 c-8 -10 -23 -40 -33 -68 -32 -93 -37 -105 -46 -105 -4 0
-11 16 -15 36 -5 28 -2 42 16 66 25 34 21 78 -8 78 -18 0 -62 -26 -74 -44 -3
-5 -9 -35 -13 -67 -6 -49 -3 -63 17 -98 44 -77 106 -80 142 -7 21 42 22 42 58
-23 34 -62 87 -17 54 47 -7 15 -17 52 -21 82 -14 114 -39 147 -77 103z"/>
<path d="M18496 2239 c-19 -17 -45 -46 -57 -65 -21 -34 -21 -35 -3 -102 10
-37 27 -75 39 -84 27 -23 62 -22 77 2 7 11 17 20 23 20 20 0 63 66 70 108 9
56 -1 95 -32 126 -35 35 -74 34 -117 -5z m80 -90 c-7 -44 -33 -88 -53 -89 -22
0 -25 21 -6 42 13 15 15 22 6 25 -20 7 -15 30 9 47 39 28 51 21 44 -25z"/>
<path d="M19282 1837 c-8 -9 -7 -55 4 -162 9 -83 14 -178 12 -212 -4 -65 1
-73 42 -73 33 0 34 27 14 358 l-6 102 -28 0 c-15 0 -32 -6 -38 -13z"/>
<path d="M18110 1794 c-30 -8 -72 -22 -94 -31 l-38 -17 6 -55 c3 -31 9 -110
12 -176 4 -87 9 -124 20 -137 31 -34 162 -40 249 -11 55 18 75 33 75 59 0 15
-7 16 -62 8 -64 -9 -194 -11 -202 -3 -2 2 -6 26 -7 52 l-4 48 108 4 c138 5
151 9 142 43 -4 15 -9 29 -11 31 -2 2 -50 3 -106 2 -115 -2 -132 4 -142 57 -5
29 -3 32 19 32 13 0 26 4 29 9 6 9 93 26 110 22 5 -1 27 1 48 4 33 6 38 10 38
35 0 16 -7 30 -16 34 -27 10 -116 5 -174 -10z"/>
<path d="M19097 1753 c-12 -11 -8 -58 6 -78 10 -13 21 -16 38 -12 47 13 52 21
35 54 -19 37 -60 56 -79 36z"/>
<path d="M18445 1590 c-10 -11 -26 -20 -35 -20 -20 0 -50 -31 -50 -51 0 -8 7
-44 16 -82 14 -55 21 -68 40 -73 35 -9 54 15 47 62 -10 77 33 130 69 83 33
-44 39 -49 53 -49 8 0 25 10 36 21 17 17 23 19 31 8 23 -36 41 -77 52 -118 9
-39 15 -46 38 -49 37 -4 53 26 33 65 -8 15 -18 44 -22 63 -3 19 -22 59 -41 88
-30 45 -39 52 -67 52 -18 0 -38 -7 -46 -16 -12 -14 -14 -14 -24 0 -28 37 -102
46 -130 16z"/>
<path d="M18880 1578 c-99 -60 -125 -138 -65 -194 40 -37 86 -33 131 14 23 24
37 33 41 24 10 -25 35 -42 63 -42 16 0 40 -4 54 -10 19 -7 30 -5 48 9 21 17
22 22 11 53 -7 18 -10 43 -7 55 9 31 -30 83 -56 76 -16 -4 -20 -14 -21 -52 -1
-25 0 -54 1 -65 1 -11 -3 -15 -9 -12 -6 4 -11 11 -11 16 0 18 -65 120 -77 120
-7 0 -13 6 -13 14 0 11 -20 26 -34 26 -1 0 -26 -15 -56 -32z m50 -75 c0 -10
-52 -63 -62 -63 -14 0 -9 18 15 44 21 24 47 35 47 19z"/>
<path d="M18149 1126 c-103 -28 -189 -122 -189 -208 0 -84 84 -152 186 -150
49 0 143 28 172 51 19 14 19 18 7 35 -13 17 -19 18 -71 7 -97 -19 -169 -15
-200 12 -23 20 -26 29 -20 58 8 44 66 104 114 119 96 30 109 42 76 74 -18 18
-15 18 -75 2z"/>
<path d="M18410 946 c-48 -36 -60 -54 -60 -91 0 -22 10 -40 33 -62 61 -60 123
-68 189 -25 38 24 43 32 46 69 3 37 -1 47 -35 84 -34 36 -46 42 -89 46 -41 4
-54 1 -84 -21z m114 -62 c26 -10 19 -49 -9 -62 -44 -20 -62 -15 -69 20 -8 43
27 62 78 42z"/>
<path d="M18656 800 c-18 -19 -18 -20 13 -50 l31 -31 30 18 c20 12 28 23 24
33 -3 8 -7 22 -8 30 -4 23 -67 23 -90 0z"/>
<path d="M21263 1548 c-2 -5 -1 -12 2 -18 3 -5 1 -19 -5 -31 -9 -17 -8 -23 6
-33 12 -9 15 -20 10 -39 -3 -15 1 -65 10 -112 15 -73 15 -93 4 -140 -10 -41
-10 -58 -1 -68 14 -17 93 -28 256 -34 66 -2 141 -7 167 -10 45 -5 48 -3 59 23
10 29 10 35 -11 109 -10 36 -21 122 -36 292 -7 74 -15 78 -137 66 -86 -8 -124
-8 -245 -2 -41 2 -76 1 -79 -3z m395 -183 c-1 -11 2 -47 6 -80 4 -33 8 -72 9
-88 l2 -27 -100 -4 c-55 -2 -123 -2 -151 1 l-51 5 -3 62 c-1 33 -3 97 -4 141
l-1 80 124 7 c69 4 130 9 135 11 12 4 37 -76 34 -108z"/>
<path d="M21422 1418 c-19 -19 -14 -41 14 -67 14 -14 44 -51 65 -83 39 -57 64
-70 96 -50 16 10 10 42 -9 53 -15 8 -63 77 -96 136 -14 25 -50 31 -70 11z"/>
<path d="M21309 947 c-8 -7 -21 -27 -27 -44 -9 -27 -8 -36 4 -48 46 -45 100
-41 140 12 14 19 24 36 23 37 -2 2 -22 15 -43 30 -42 28 -72 32 -97 13z"/>
<path d="M20628 1528 c-7 -13 -10 -27 -8 -33 3 -5 8 -82 11 -170 8 -183 16
-245 33 -251 6 -2 72 -6 146 -9 74 -2 151 -5 170 -6 19 -1 56 -2 81 -1 l46 2
1 63 c1 34 -6 107 -15 162 -9 55 -16 123 -17 150 0 59 -15 74 -71 75 -22 0
-107 9 -190 20 -184 24 -172 25 -187 -2z m232 -93 c30 -8 74 -15 97 -15 23 0
44 -4 47 -9 4 -5 8 -38 11 -73 3 -34 9 -86 13 -115 5 -29 5 -58 1 -65 -5 -8
-9 -9 -9 -2 0 15 -91 152 -124 187 -34 36 -62 32 -59 -8 l2 -30 -30 35 c-16
19 -29 38 -29 42 0 14 -43 8 -62 -9 -18 -16 -18 -15 -14 28 3 24 5 45 5 47 2
8 105 -1 151 -13z m-122 -122 c11 -10 43 -46 71 -80 56 -68 87 -85 107 -59 11
16 14 15 38 -9 l27 -27 -33 8 c-18 4 -79 7 -136 6 -84 -1 -102 1 -93 12 12 14
4 73 -10 82 -12 7 -12 84 0 84 5 0 18 -8 29 -17z"/>
<path d="M20962 937 c-13 -23 -17 -39 -11 -43 6 -3 14 -16 19 -29 12 -32 64
-40 104 -17 24 14 32 26 34 52 3 50 -8 60 -70 67 -54 5 -55 5 -76 -30z"/>
<path d="M21632 6364 c-12 -22 -22 -219 -15 -276 6 -44 19 -49 33 -13 15 40
19 273 5 292 -11 15 -13 15 -23 -3z"/>
<path d="M21978 6319 c-24 -14 -22 -35 4 -53 21 -15 24 -14 40 2 11 11 15 25
12 40 -7 23 -28 28 -56 11z"/>
<path d="M21435 6300 c-17 -18 -17 -52 1 -111 3 -10 -12 -34 -38 -61 -24 -24
-45 -55 -48 -69 -2 -13 -4 -78 -4 -145 l1 -121 57 -55 57 -56 -4 -89 c-3 -48
-1 -98 4 -110 10 -26 45 -31 73 -10 14 10 15 17 7 41 -6 15 -8 32 -5 37 10 16
6 102 -6 133 -9 24 -8 29 9 33 30 8 37 137 11 211 -15 43 -22 94 -26 212 -4
85 -11 161 -16 168 -15 18 -53 15 -73 -8z m13 -297 c0 -16 7 -48 16 -73 15
-43 22 -110 11 -110 -3 0 -15 9 -28 20 -21 18 -24 31 -25 97 -1 41 1 79 4 84
11 18 23 8 22 -18z"/>
<path d="M18483 6268 c-26 -12 -31 -49 -9 -67 31 -26 67 20 46 59 -6 11 -12
20 -13 19 -1 0 -12 -5 -24 -11z"/>
<path d="M16411 6150 c-12 -7 -13 -19 -4 -65 5 -31 8 -68 5 -82 -4 -22 -9 -24
-48 -22 -32 2 -49 -2 -62 -15 -16 -16 -16 -18 2 -31 10 -8 38 -17 62 -21 51
-7 50 0 32 -152 -11 -99 -11 -103 9 -124 37 -36 49 -19 57 79 9 116 16 176 22
185 2 4 26 10 52 13 61 8 92 24 92 47 0 16 -9 18 -75 18 -71 0 -75 1 -75 23 0
35 -28 129 -42 143 -8 9 -18 10 -27 4z"/>
<path d="M21875 6092 c-16 -9 -47 -36 -67 -60 -98 -114 -98 -382 0 -370 32 4
36 13 57 123 9 50 29 115 45 145 41 80 64 161 48 172 -19 12 -50 8 -83 -10z"/>
<path d="M18846 6074 c-9 -8 -16 -19 -16 -23 0 -16 38 -41 52 -36 18 7 41 53
33 66 -10 14 -52 10 -69 -7z"/>
<path d="M21156 6035 c-22 -23 -20 -40 8 -58 21 -14 26 -14 45 0 32 22 25 67
-10 71 -15 2 -34 -4 -43 -13z"/>
<path d="M14090 6006 c-7 -9 -13 -63 -16 -139 -3 -118 -14 -177 -31 -177 -5 0
-21 33 -36 73 -16 39 -39 97 -52 127 -13 30 -27 65 -30 78 -5 18 -11 21 -33
15 -15 -3 -30 -11 -34 -17 -4 -6 -8 -49 -8 -96 0 -47 -1 -92 -1 -100 0 -8 0
-59 1 -113 2 -93 3 -97 25 -103 13 -3 29 -3 34 1 7 4 11 54 11 128 l1 122 23
-50 c13 -27 29 -68 37 -89 18 -49 60 -96 88 -96 30 0 47 34 62 120 12 74 15
302 4 321 -9 14 -31 11 -45 -5z"/>
<path d="M15135 5960 c-22 -24 -14 -47 20 -56 47 -12 77 43 36 66 -27 14 -35
13 -56 -10z"/>
<path d="M20618 5889 c-26 -15 -21 -79 6 -79 15 0 66 52 66 67 0 22 -44 29
-72 12z"/>
<path d="M15323 5857 c-27 -18 -33 -29 -33 -58 0 -30 7 -43 45 -78 24 -22 49
-41 55 -41 5 0 10 -7 10 -15 0 -15 -73 -40 -89 -31 -5 3 -17 -4 -27 -15 -18
-20 -18 -21 5 -38 25 -19 26 -19 121 14 21 8 43 25 54 44 l19 32 -29 30 c-16
17 -42 38 -57 47 -38 23 -33 54 11 68 19 6 38 17 42 24 26 42 -72 54 -127 17z"/>
<path d="M14720 5845 c-14 -8 -36 -30 -50 -49 -20 -28 -30 -34 -48 -29 -16 4
-34 -2 -54 -17 l-31 -23 5 32 c6 43 -22 69 -60 55 -33 -11 -39 -41 -18 -83 9
-16 16 -38 16 -48 0 -31 57 -83 91 -83 17 0 29 5 29 13 0 7 6 21 13 30 10 15
16 16 39 5 16 -7 28 -18 28 -24 0 -16 41 -25 57 -12 8 7 11 23 7 48 -4 25 -1
47 11 70 12 22 15 46 12 73 -7 51 -16 59 -47 42z"/>
<path d="M16147 5832 c-49 -31 -67 -152 -27 -192 17 -17 28 -19 63 -14 76 12
126 57 127 112 0 89 -88 140 -163 94z m93 -81 c0 -19 -43 -61 -61 -61 -17 0
-9 59 9 69 28 17 52 13 52 -8z"/>
<path d="M15161 5819 c-18 -7 -22 -14 -18 -32 4 -12 9 -59 13 -104 7 -83 16
-99 49 -87 17 7 19 59 9 162 -7 65 -15 74 -53 61z"/>
<path d="M15856 5798 l-49 -31 7 -60 c3 -33 6 -72 6 -86 1 -38 24 -64 49 -56
18 6 21 14 21 70 0 149 65 169 105 31 17 -57 47 -85 71 -65 21 17 17 41 -19
112 -37 73 -83 117 -118 116 -13 0 -46 -14 -73 -31z"/>
<path d="M20841 5816 c-8 -10 -9 -21 -1 -42 6 -15 10 -86 10 -158 -2 -191 -1
-225 10 -267 11 -41 33 -51 44 -22 14 35 4 471 -11 496 -7 12 -40 8 -52 -7z"/>
<path d="M22226 5814 c-23 -23 -15 -38 21 -42 25 -2 33 1 38 18 8 25 7 25 -21
34 -14 4 -28 1 -38 -10z"/>
<path d="M14233 5760 c-39 -24 -59 -79 -46 -130 7 -25 16 -36 31 -38 12 -2 22
-10 22 -18 0 -28 38 -54 81 -54 55 0 109 53 109 107 0 53 -27 101 -75 128 -50
30 -80 31 -122 5z m105 -65 c45 -13 16 -120 -30 -113 -12 2 -24 10 -28 18 -4
8 -12 25 -19 38 -10 19 -9 28 4 48 10 16 23 23 33 20 9 -2 27 -7 40 -11z"/>
<path d="M20527 5705 c-12 -12 -13 -23 -6 -49 5 -19 9 -38 7 -43 -1 -4 2 -42
6 -83 4 -41 9 -95 11 -120 3 -25 6 -56 9 -70 20 -107 30 -487 17 -635 -6 -71
-14 -159 -17 -194 -6 -65 2 -151 14 -151 24 1 37 24 39 67 1 26 3 50 4 53 3 7
3 11 19 130 14 116 5 395 -19 595 -6 44 -15 134 -22 200 -6 66 -18 153 -26
193 -8 40 -12 84 -9 97 7 28 -5 32 -27 10z"/>
<path d="M20981 5671 c-11 -24 -9 -34 8 -67 36 -66 22 -154 -31 -207 -9 -9
-23 -48 -33 -86 -22 -92 -14 -138 31 -182 19 -18 34 -39 34 -46 0 -7 3 -13 8
-13 4 0 21 -20 37 -45 34 -51 51 -60 89 -46 30 12 35 49 11 91 -17 29 -20 86
-5 95 6 4 8 10 6 14 -3 4 8 45 24 92 39 112 39 164 -1 223 -16 25 -34 48 -39
51 -4 3 -11 24 -15 47 -7 41 -29 85 -50 100 -5 4 -22 8 -36 8 -20 0 -30 -7
-38 -29z m119 -250 c11 -22 -5 -107 -34 -173 -9 -21 -16 -47 -16 -58 0 -26 -2
-25 -39 9 -26 25 -30 34 -25 62 5 26 90 176 101 179 1 0 7 -9 13 -19z"/>
<path d="M21975 5616 c-18 -13 -18 -16 -3 -64 19 -56 10 -117 -25 -163 -10
-15 -20 -39 -21 -55 -2 -16 -6 -54 -10 -84 -6 -45 -3 -66 14 -115 13 -33 33
-71 45 -85 12 -14 25 -37 28 -51 4 -14 16 -38 28 -53 16 -21 28 -26 53 -24 35
3 36 8 8 88 -21 61 -19 111 7 150 53 79 44 207 -23 335 -9 17 -16 44 -16 60 0
61 -43 92 -85 61z m74 -314 c1 -45 -19 -105 -39 -117 -15 -9 -32 15 -24 35 3
8 10 40 16 70 5 30 15 64 21 75 10 19 10 19 18 0 4 -11 8 -39 8 -63z"/>
<path d="M22267 5503 c-4 -3 -7 -22 -7 -42 0 -20 -5 -52 -11 -71 -5 -19 -12
-48 -13 -65 -2 -16 -8 -52 -14 -78 -15 -74 4 -112 37 -73 13 16 44 290 36 317
-7 20 -17 24 -28 12z"/>
<path d="M15831 5439 c-24 -19 -24 -22 -18 -133 l6 -113 -40 -6 c-113 -15
-135 -166 -30 -198 38 -11 43 -10 96 22 30 18 56 37 56 41 1 4 2 12 3 17 0 5
4 13 9 17 12 12 8 39 -12 85 -20 48 -35 201 -21 234 7 20 -4 55 -18 55 -4 -1
-18 -10 -31 -21z m9 -351 c0 -15 -71 -41 -82 -30 -15 15 -1 48 25 59 17 8 26
7 40 -5 9 -8 17 -19 17 -24z"/>
<path d="M21652 5377 c-12 -13 -19 -27 -15 -30 4 -4 -14 -29 -39 -55 -26 -26
-59 -72 -75 -102 -23 -46 -28 -67 -28 -131 0 -65 4 -80 25 -107 26 -33 66 -42
88 -20 7 7 12 33 12 58 0 40 5 51 35 80 19 19 35 42 35 51 0 10 6 24 14 31 8
8 22 32 33 54 16 34 17 44 7 69 -6 16 -10 34 -7 41 6 15 -36 84 -51 84 -7 0
-22 -10 -34 -23z"/>
<path d="M21381 5286 c-12 -49 -7 -154 9 -170 16 -16 38 53 41 134 4 70 3 75
-17 78 -18 3 -23 -5 -33 -42z"/>
<path d="M14201 5170 c-57 -45 -101 -113 -101 -157 0 -36 28 -64 79 -79 46
-14 75 1 118 63 l31 45 27 -45 c25 -43 62 -77 85 -77 19 0 10 41 -19 83 -15
23 -43 71 -61 107 -58 116 -78 124 -159 60z m67 -74 c11 -52 -62 -123 -94 -92
-21 22 -18 32 27 77 41 41 61 46 67 15z"/>
<path d="M14950 5193 c-118 -80 -193 -180 -169 -226 41 -75 154 -64 194 20 9
18 20 33 24 33 10 0 21 -25 21 -49 0 -9 5 -22 12 -29 31 -31 56 -158 37 -193
-29 -55 -111 -83 -173 -58 -41 17 -47 27 -40 66 5 25 2 34 -11 39 -42 16 -63
-68 -30 -123 31 -53 154 -83 225 -55 83 33 125 159 85 255 -8 19 -12 37 -9 40
3 3 -1 16 -9 29 -8 12 -18 34 -22 48 -12 42 -56 135 -68 142 -5 3 -17 4 -26 0
-12 -4 -11 1 5 19 40 46 6 78 -46 42z m10 -89 c0 -3 -10 -28 -21 -55 -15 -33
-32 -55 -52 -65 -42 -22 -56 -5 -34 41 18 38 107 104 107 79z"/>
<path d="M15227 5159 c-28 -16 -55 -81 -58 -138 -3 -46 0 -56 20 -72 56 -45
178 3 193 76 4 17 8 14 23 -17 26 -53 86 -76 138 -54 80 33 99 132 37 189 -52
47 -127 31 -161 -35 -10 -20 -19 -44 -19 -53 0 -9 -4 -13 -10 -10 -5 3 -10 15
-10 25 0 10 -12 32 -27 48 -47 50 -88 63 -126 41z m316 -71 c15 -23 -9 -67
-41 -75 -33 -8 -44 7 -32 47 15 51 50 65 73 28z m-233 -8 c15 -27 5 -54 -24
-70 -30 -15 -46 -6 -46 26 0 58 47 87 70 44z"/>
<path d="M21670 4908 c-12 -13 -18 -29 -14 -38 48 -115 50 -193 7 -244 -32
-39 -63 -100 -69 -139 -15 -96 0 -227 26 -227 5 0 10 -11 10 -24 0 -81 33
-120 77 -91 21 14 24 22 20 56 -2 22 -1 42 4 45 5 3 9 13 9 23 0 9 19 31 43
47 36 26 44 39 57 91 23 87 13 156 -41 298 -8 22 -25 92 -35 145 -7 37 -39 80
-60 80 -7 0 -23 -10 -34 -22z m94 -334 c9 -23 7 -137 -2 -152 -10 -15 -73 -62
-83 -62 -14 0 -15 35 -3 61 7 15 11 29 7 32 -9 10 6 70 27 105 21 35 44 42 54
16z"/>
<path d="M20842 4878 c-17 -17 -15 -26 13 -44 24 -16 27 -16 45 1 19 17 19 19
4 37 -20 21 -45 23 -62 6z"/>
<path d="M14473 4488 c-4 -7 -8 -44 -8 -82 l0 -70 -40 -9 c-22 -5 -51 -10 -64
-10 -32 -3 -49 -30 -30 -49 25 -25 48 -28 94 -12 25 8 49 13 54 10 4 -3 9 -36
10 -73 2 -71 18 -103 52 -103 16 0 17 9 12 95 -7 106 -10 101 73 113 94 14 57
66 -39 56 -50 -6 -51 -4 -62 69 -8 51 -37 88 -52 65z"/>
<path d="M15356 4459 c-86 -24 -132 -147 -92 -244 28 -66 112 -91 189 -55 48
23 60 38 47 59 -5 9 -13 10 -26 3 -36 -19 -101 -24 -123 -10 -30 18 -26 36 12
51 61 27 84 72 68 135 -15 52 -38 72 -75 61z m17 -73 c7 -17 -29 -66 -47 -66
-20 0 -7 48 17 65 26 18 24 18 30 1z"/>
<path d="M14691 4388 c-17 -44 37 -68 59 -27 16 29 5 49 -25 49 -17 0 -28 -7
-34 -22z"/>
<path d="M14868 4357 l-47 -42 14 -55 c8 -30 17 -67 20 -82 4 -19 13 -30 31
-34 36 -9 44 7 44 98 0 42 4 79 10 83 13 8 49 -16 56 -38 3 -10 17 -25 31 -34
25 -16 26 -16 48 10 27 31 32 27 65 -50 24 -57 40 -65 64 -31 14 19 13 23 -4
46 -11 14 -20 31 -20 38 0 13 -45 100 -59 117 -4 4 -24 -4 -45 -18 -20 -14
-39 -25 -42 -25 -3 0 -19 14 -34 30 -40 43 -74 39 -132 -13z"/>
<path d="M20438 4355 c-20 -45 41 -78 73 -39 17 21 2 46 -35 55 -23 6 -29 4
-38 -16z"/>
<path d="M12350 4340 c-18 -18 -20 -33 -20 -180 0 -142 2 -160 18 -169 10 -5
24 -6 33 0 14 7 17 31 18 141 1 73 4 148 7 166 6 31 -8 62 -27 62 -5 0 -18 -9
-29 -20z"/>
<path d="M15620 4295 c-24 -26 -24 -52 1 -68 12 -8 24 -5 48 12 39 28 40 56 2
69 -25 9 -32 7 -51 -13z"/>
<path d="M14742 4267 c-14 -17 -18 -65 -8 -95 5 -16 14 -22 29 -20 18 2 23 12
28 53 6 50 -2 75 -26 75 -7 0 -17 -6 -23 -13z"/>
<path d="M10828 4235 c-10 -21 -8 -29 10 -48 19 -21 52 -97 52 -124 0 -8 -12
-10 -36 -6 -39 6 -54 -5 -54 -43 0 -24 23 -34 82 -34 20 0 40 -4 43 -10 3 -5
8 -43 11 -82 8 -109 11 -118 39 -118 20 0 42 27 38 50 0 3 -4 40 -7 83 l-7 77
25 0 c14 0 36 4 50 9 19 8 23 15 19 33 -8 32 -21 38 -55 26 -32 -11 -78 2 -78
23 0 18 -72 173 -84 181 -20 14 -36 8 -48 -17z"/>
<path d="M16766 4191 c-4 -5 -4 -16 -1 -24 4 -8 -8 -25 -30 -43 -50 -40 -140
-138 -229 -246 l-38 -47 -31 15 c-34 18 -103 14 -170 -9 -59 -21 -70 -38 -73
-111 l-4 -65 50 -59 c28 -33 50 -63 50 -66 0 -3 -8 -6 -18 -6 -32 0 -121 -38
-164 -69 -52 -38 -123 -128 -151 -190 -11 -26 -22 -76 -25 -116 -4 -58 0 -78
18 -118 47 -99 218 -200 278 -163 7 4 25 5 41 1 27 -6 29 -10 35 -72 8 -76 1
-89 -53 -99 -20 -4 -44 -11 -53 -15 -9 -5 -54 -16 -100 -24 -128 -23 -337 -83
-388 -111 -14 -8 -65 -24 -114 -37 -95 -24 -120 -43 -100 -74 18 -27 62 -20
229 38 83 28 211 64 285 80 74 16 142 32 150 35 27 11 135 32 143 27 10 -6 9
-262 -3 -422 -5 -75 -11 -184 -13 -244 l-3 -107 -54 -78 c-30 -42 -77 -107
-105 -144 -27 -37 -63 -88 -80 -114 -16 -26 -42 -66 -57 -88 -15 -23 -41 -63
-58 -91 -59 -95 -95 -142 -153 -199 -65 -62 -71 -89 -22 -94 39 -4 100 54 174
163 95 139 108 159 185 277 42 64 89 132 104 150 16 18 41 54 56 81 16 26 31
47 35 47 4 0 24 -15 44 -33 27 -24 63 -85 138 -237 203 -414 212 -430 232
-436 11 -3 25 0 34 9 14 13 12 20 -14 59 -17 23 -51 86 -76 138 -180 375 -227
470 -250 504 -15 21 -27 48 -27 59 0 11 -7 28 -16 38 -13 15 -16 42 -15 149 1
73 3 136 6 140 3 5 6 70 7 145 0 74 4 138 8 140 3 2 12 -13 19 -33 7 -20 18
-53 25 -72 8 -19 26 -69 41 -110 44 -119 104 -239 127 -251 16 -9 24 -8 36 4
13 14 12 21 -15 64 -17 26 -45 86 -63 133 -18 47 -38 99 -45 115 -52 123 -117
367 -131 493 l-7 62 60 0 c93 0 158 24 218 81 64 60 104 132 112 200 l6 51 51
-7 c95 -14 159 -15 172 -4 9 7 14 32 14 65 0 44 -8 68 -40 129 -22 41 -40 81
-40 89 0 8 15 27 33 43 18 16 64 67 103 113 71 86 133 150 145 150 4 0 21 19
37 43 l29 43 -28 16 c-16 9 -35 32 -42 51 -9 19 -33 46 -58 63 -23 16 -72 56
-108 90 -124 115 -168 144 -216 144 -24 0 -46 -4 -49 -9z m-187 -464 c14 -15
29 -27 33 -27 5 0 53 -39 106 -87 53 -49 106 -97 118 -108 l22 -19 -25 -32
-24 -32 -25 23 c-13 12 -37 25 -52 28 -18 4 -71 49 -149 125 l-121 119 36 37
c33 35 36 37 46 19 6 -10 22 -31 35 -46z m-188 -284 c8 -9 39 -34 69 -56 30
-23 75 -63 98 -89 24 -26 64 -57 88 -67 42 -19 44 -22 44 -63 0 -48 -33 -127
-72 -173 -61 -71 -208 -106 -298 -70 -110 43 -121 45 -141 34 -30 -16 -62 -4
-108 39 -104 97 -91 230 33 356 40 41 67 57 126 78 88 31 142 35 161 11z"/>
<path d="M11458 4179 c-22 -12 -24 -57 -4 -65 27 -10 57 15 54 44 -3 29 -23
38 -50 21z"/>
<path d="M11998 4091 c-28 -18 -38 -31 -38 -51 0 -31 35 -83 87 -127 35 -30
36 -33 24 -57 -20 -36 -98 -57 -128 -34 -17 13 -53 -8 -53 -31 0 -31 63 -54
123 -47 87 12 134 47 144 109 5 32 0 40 -53 97 -33 34 -60 66 -62 71 -2 5 17
9 42 9 36 0 48 4 57 22 10 18 8 24 -11 40 -12 10 -30 18 -39 19 -9 0 -25 2
-36 3 -11 1 -37 -9 -57 -23z"/>
<path d="M11283 4084 c-33 -14 -63 -49 -63 -72 0 -8 -7 -30 -17 -49 -15 -33
-15 -38 4 -96 23 -68 42 -88 67 -68 18 15 21 48 6 85 -9 24 0 120 13 133 4 3
19 6 34 7 21 1 29 7 31 24 4 25 -13 53 -32 51 -6 0 -25 -7 -43 -15z"/>
<path d="M11684 4065 c-80 -85 -63 -235 29 -264 66 -21 164 -1 173 35 9 35 -2
44 -39 33 -47 -13 -113 -11 -126 4 -9 11 1 20 47 41 31 15 64 31 72 35 8 5 22
19 30 34 13 24 12 28 -24 71 -34 42 -41 46 -83 46 -39 0 -50 -5 -79 -35z m111
-38 c23 -18 13 -34 -28 -42 -17 -4 -38 -12 -45 -18 -22 -17 -26 2 -9 38 18 38
48 46 82 22z"/>
<path d="M10572 4005 c-68 -59 -85 -172 -34 -238 15 -20 34 -36 43 -37 8 0 19
-4 25 -9 26 -26 106 -12 176 31 35 22 48 36 48 53 0 36 -28 38 -78 5 -45 -30
-114 -41 -126 -21 -3 5 11 21 32 37 105 79 126 132 73 185 -24 23 -38 29 -73
29 -36 0 -52 -7 -86 -35z m101 -42 c19 -21 8 -40 -44 -79 -43 -31 -49 -30 -49
7 0 20 10 40 29 60 34 34 42 35 64 12z"/>
<path d="M15686 4025 c-17 -17 -12 -39 14 -70 10 -11 52 -72 94 -135 99 -150
101 -152 123 -148 27 5 27 41 0 74 -25 30 -96 142 -165 256 -24 41 -42 47 -66
23z"/>
<path d="M11456 4014 c-19 -18 -19 -19 -5 -64 5 -19 10 -51 10 -72 0 -31 4
-37 26 -43 42 -10 48 6 34 92 -17 101 -32 121 -65 87z"/>
<path d="M10335 4001 c-23 -11 -48 -32 -59 -52 -11 -19 -25 -38 -33 -42 -19
-12 -15 -53 15 -137 22 -60 31 -76 49 -78 35 -5 50 37 35 94 -13 48 -16 103
-6 129 4 9 24 25 46 36 30 15 39 25 36 42 -4 29 -33 32 -83 8z"/>
<path d="M12332 3820 c-27 -44 -11 -90 30 -90 57 0 76 55 32 89 -33 26 -46 26
-62 1z"/>
<path d="M1265 3569 c-77 -3 -171 -11 -210 -18 -105 -17 -224 -40 -264 -51
-20 -5 -88 -17 -151 -26 -63 -9 -125 -21 -138 -25 -33 -13 -41 -44 -26 -113 7
-34 15 -115 19 -181 14 -249 7 -1414 -11 -1665 -2 -41 -9 -138 -14 -215 -6
-77 -13 -179 -16 -226 -6 -85 -6 -87 19 -104 15 -9 30 -14 36 -11 5 4 103 6
218 5 725 -3 1084 5 1263 28 111 15 201 18 509 16 243 -1 378 -6 385 -13 12
-12 49 -13 60 -3 4 5 80 8 169 8 160 1 413 15 637 36 178 17 204 19 370 24 85
2 209 7 275 10 113 6 208 -1 490 -34 118 -15 145 -22 156 -42 14 -27 49 -25
50 4 2 71 -3 151 -16 217 -8 41 -17 108 -20 149 -3 40 -10 128 -16 195 -5 66
-14 148 -19 181 -12 76 -14 355 -3 500 10 142 10 1201 0 1211 -4 5 -22 2 -40
-5 -18 -7 -36 -13 -42 -12 -23 1 -157 10 -255 16 -58 4 -148 9 -200 10 -180 6
-309 19 -470 45 -63 11 -155 22 -205 25 -49 3 -148 10 -220 15 -71 5 -168 9
-215 8 -47 -1 -155 3 -240 10 -87 7 -399 14 -715 17 -350 2 -582 8 -620 15
-60 11 -264 10 -530 -1z m490 -85 c106 -10 304 -17 585 -19 234 -2 435 -4 446
-5 22 0 22 -1 23 -302 0 -167 3 -343 5 -393 4 -68 6 -610 5 -790 -1 -55 11
-274 16 -300 3 -16 8 -106 10 -200 2 -93 5 -222 7 -285 l3 -115 -175 4 c-356
9 -540 5 -640 -14 -71 -14 -157 -19 -340 -21 -135 -2 -291 -9 -347 -15 -65 -7
-177 -9 -305 -4 -112 3 -275 6 -362 6 l-159 -1 7 82 c3 46 8 117 10 158 3 41
7 109 10 150 12 169 21 855 17 1358 -1 111 0 206 3 210 6 9 -12 244 -23 306
-5 28 -7 55 -4 62 6 16 47 31 108 39 109 13 131 17 160 25 121 35 306 59 510
66 88 3 161 7 162 8 8 8 129 3 268 -10z m1488 -40 c156 -6 185 -12 156 -30
-13 -8 -7 -205 10 -344 8 -71 7 -1893 -2 -1953 -2 -15 -6 -30 -8 -32 -7 -7
-130 -20 -179 -19 -25 0 -97 2 -160 5 l-115 5 -7 74 c-3 41 -8 163 -11 270 -2
107 -9 254 -15 325 -6 72 -14 348 -17 615 -3 267 -8 624 -11 794 l-4 309 97
-7 c54 -3 173 -9 266 -12z m493 -25 l152 -12 -10 -29 c-7 -18 -7 -77 -3 -161
8 -125 10 -249 20 -987 5 -337 11 -472 25 -560 5 -30 11 -84 14 -120 3 -36 8
-92 11 -125 3 -33 6 -67 7 -75 1 -8 0 -66 0 -127 -2 -110 -3 -113 -24 -112
-13 0 -114 -5 -225 -12 -111 -7 -206 -10 -210 -6 -4 4 -7 31 -6 60 4 247 6
526 5 697 0 113 -1 410 -1 660 0 430 -3 571 -17 735 -10 125 -14 156 -19 166
-14 22 9 30 69 25 33 -3 129 -11 212 -17z m334 -36 c8 -2 80 -11 159 -18 87
-9 150 -19 157 -27 28 -28 32 -205 21 -863 -5 -246 3 -436 29 -730 3 -38 8
-110 9 -158 2 -48 9 -128 16 -177 13 -96 8 -245 -8 -261 -8 -8 -119 -19 -354
-35 l-67 -4 1 103 c1 122 -10 314 -23 377 -20 103 -37 600 -45 1310 -1 102 -6
249 -10 326 -4 78 -5 149 -2 158 5 12 16 15 54 10 26 -3 55 -8 63 -11z m807
-43 l81 0 1 -256 c0 -140 3 -260 7 -265 6 -10 6 -457 0 -514 -20 -185 -26
-296 -21 -443 3 -95 7 -183 10 -195 3 -12 8 -35 10 -52 2 -16 4 -30 5 -30 0 0
3 -40 5 -90 5 -123 15 -228 33 -347 5 -32 5 -63 1 -69 -5 -9 -28 -8 -95 4
-202 36 -274 47 -320 47 l-49 0 -1 163 c0 89 -6 194 -12 232 -6 39 -14 115
-17 170 -7 128 -12 197 -25 370 -7 90 -9 228 -4 385 4 135 8 389 9 565 1 176
2 324 3 329 1 5 64 6 150 3 81 -4 184 -7 229 -7z"/>
<path d="M920 3110 c-150 -12 -178 -37 -161 -147 22 -147 25 -196 18 -338 -2
-22 4 -33 21 -40 15 -7 22 -18 22 -37 0 -22 9 -34 45 -56 53 -33 111 -39 194
-19 57 13 79 33 67 62 -6 15 -15 17 -71 12 -69 -7 -123 6 -170 40 -22 16 -24
25 -25 91 0 39 2 72 4 72 2 0 25 -9 51 -20 35 -15 69 -20 135 -20 80 0 90 2
100 20 23 42 5 58 -73 65 -113 10 -164 25 -176 52 -7 15 -19 23 -37 23 -20 0
-25 4 -20 16 3 8 1 36 -5 60 -7 28 -8 49 -2 55 14 14 150 19 243 8 82 -10 86
-9 103 12 27 33 19 63 -18 67 -16 1 -48 7 -70 12 -68 15 -87 17 -175 10z"/>
<path d="M2435 2970 c-3 -10 -1 -47 5 -80 15 -81 6 -93 -66 -86 -29 3 -62 11
-74 18 -19 12 -24 10 -45 -15 -13 -15 -22 -34 -19 -42 10 -24 87 -55 139 -55
l48 0 -9 -47 c-4 -27 -8 -86 -8 -133 l-1 -85 28 -3 c23 -3 30 2 41 30 7 18 17
73 20 123 4 49 12 95 17 101 8 10 63 21 137 28 13 2 33 12 45 24 33 33 10 46
-87 50 l-83 4 -5 69 c-6 75 -27 119 -58 119 -10 0 -21 -9 -25 -20z"/>
<path d="M1685 2741 c-49 -22 -67 -43 -89 -103 -19 -52 -19 -54 41 -144 50
-77 122 -105 226 -87 37 6 38 7 35 42 l-3 36 -65 0 c-66 1 -120 23 -120 49 0
7 19 20 43 30 55 24 84 52 92 88 9 38 -15 73 -61 93 -46 19 -50 19 -99 -4z
m65 -81 c0 -12 -48 -25 -58 -16 -8 9 18 26 41 26 9 0 17 -4 17 -10z"/>
<path d="M1275 2716 c-16 -24 -16 -27 3 -58 11 -18 23 -44 27 -58 21 -72 48
-119 75 -130 44 -18 79 4 113 70 15 30 37 68 49 84 19 27 20 32 7 55 -25 44
-54 39 -89 -15 -16 -26 -30 -56 -30 -65 0 -31 -17 -29 -32 4 -54 117 -64 132
-85 135 -14 2 -27 -5 -38 -22z"/>
<path d="M1995 2688 c-11 -5 -39 -36 -63 -69 -35 -47 -42 -63 -35 -81 4 -13 8
-27 9 -33 0 -5 8 -27 17 -47 18 -43 45 -50 76 -19 16 16 18 29 14 79 -5 57 -5
59 26 81 l32 23 40 -27 c52 -37 79 -82 79 -134 0 -35 4 -43 25 -53 14 -6 27
-9 28 -7 23 29 42 78 36 89 -4 8 -13 35 -20 58 -9 32 -29 58 -73 98 -57 52
-61 54 -115 53 -31 0 -65 -5 -76 -11z"/>
<path d="M865 2054 c-11 -11 -14 -24 -10 -38 4 -12 9 -99 10 -194 3 -111 8
-178 15 -187 14 -17 70 -36 118 -41 86 -7 132 -17 143 -30 17 -21 47 -17 60 7
8 15 14 18 22 10 14 -14 74 -14 82 -1 4 6 10 8 15 5 4 -2 28 -6 53 -6 36 -2
52 3 79 26 44 36 57 62 58 109 0 34 -7 46 -50 88 -65 64 -86 71 -149 52 -81
-24 -126 -95 -123 -196 0 -16 -1 -28 -3 -28 -2 0 -39 11 -82 24 -93 29 -143
41 -160 37 -10 -1 -13 36 -13 161 0 160 -8 206 -36 215 -7 2 -19 -4 -29 -13z
m519 -289 c8 -8 17 -15 21 -15 12 0 35 -29 35 -44 0 -21 -45 -49 -78 -49 -33
0 -94 56 -85 79 6 17 51 43 75 44 9 0 23 -7 32 -15z"/>
<path d="M1741 1846 c-45 -14 -127 -89 -151 -137 -55 -106 7 -203 113 -179 41
9 103 63 133 115 10 18 14 14 38 -40 31 -68 48 -137 41 -157 -3 -8 -20 -22
-36 -32 -47 -28 -110 -23 -173 14 -30 16 -58 30 -63 30 -5 0 -15 -12 -22 -26
-14 -32 -8 -41 58 -85 38 -26 58 -32 122 -36 l76 -6 42 38 c76 69 86 114 51
227 -25 81 -97 192 -127 196 -18 3 -30 -9 -60 -59 -53 -87 -68 -101 -106 -97
-29 3 -32 6 -29 33 5 38 61 97 110 114 20 8 43 18 50 23 17 15 15 65 -4 72
-18 7 -17 7 -63 -8z"/>
<path d="M13446 3481 c-18 -20 -21 -42 -7 -56 12 -14 31 -107 31 -156 l0 -39
-207 5 c-198 4 -305 13 -401 34 -24 5 -92 10 -150 11 -196 4 -475 7 -672 7
-710 0 -1655 9 -1720 17 -30 3 -95 13 -145 21 -137 22 -162 22 -186 2 -12 -11
-19 -27 -17 -40 2 -18 10 -22 48 -25 25 -1 99 -12 165 -24 111 -20 160 -22
660 -26 734 -6 896 -6 1135 -2 230 3 706 -5 820 -15 41 -4 109 -14 150 -22 75
-15 177 -22 387 -26 62 -2 115 -6 119 -9 12 -12 -15 -128 -36 -155 -12 -16
-18 -34 -14 -45 4 -13 -1 -24 -13 -33 -14 -11 -16 -18 -7 -32 18 -29 45 -26
98 9 130 86 137 90 209 107 48 11 155 85 156 108 1 7 -8 37 -20 68 -16 44 -40
76 -117 153 -100 101 -151 140 -213 166 -34 14 -38 14 -53 -3z"/>
<path d="M7520 3469 c-183 -9 -331 -25 -363 -40 -36 -16 -45 -43 -51 -144 -9
-149 -15 -231 -32 -430 -15 -174 -14 -345 2 -460 6 -45 5 -589 -1 -670 -3 -38
-7 -173 -10 -300 -5 -263 -11 -331 -31 -362 -18 -28 0 -73 29 -73 10 0 21 -9
24 -20 6 -24 42 -26 100 -6 29 10 93 14 231 14 105 0 215 5 244 11 29 5 112
13 183 16 72 3 181 13 243 21 109 14 316 21 487 16 44 -1 157 1 250 3 94 3
265 6 380 6 223 1 213 2 432 -62 79 -24 96 19 76 201 -25 236 -39 425 -48 635
-4 77 -8 174 -10 215 -4 71 -9 270 -20 790 -8 355 -29 581 -57 617 -7 9 -27
10 -66 6 -32 -3 -208 -7 -392 -9 -184 -2 -351 -4 -370 -5 -38 -2 -275 6 -615
22 -312 15 -449 17 -615 8z m600 -98 c185 -13 1188 -18 1327 -8 l81 7 6 -28
c30 -146 37 -290 52 -1032 5 -293 19 -626 34 -825 5 -71 14 -193 20 -269 6
-77 9 -140 7 -142 -3 -4 -101 18 -187 41 -53 15 -107 18 -300 18 -460 0 -1016
-7 -1055 -14 -142 -25 -643 -59 -795 -54 -58 2 -123 0 -145 -5 -22 -5 -41 -7
-43 -6 -1 2 2 34 7 72 10 66 20 507 21 874 0 96 -5 295 -12 442 -9 202 -9 291
0 365 6 54 14 152 17 218 4 66 9 134 11 150 3 17 8 62 11 100 3 39 8 73 12 78
4 4 43 10 87 14 43 3 99 9 124 13 61 11 504 5 720 -9z"/>
<path d="M8792 3248 c-14 -14 -16 -164 -2 -223 5 -22 12 -122 16 -223 6 -153
10 -187 25 -205 16 -21 18 -21 37 -4 16 15 18 25 11 70 -4 28 -10 104 -13 167
-16 353 -20 406 -29 418 -12 15 -30 15 -45 0z"/>
<path d="M7702 3208 c-6 -8 -9 -60 -6 -133 3 -101 -12 -291 -27 -345 -6 -23
47 -26 60 -3 5 10 15 65 22 122 12 94 14 102 27 82 14 -21 55 -28 79 -13 6 4
22 39 36 77 64 180 62 183 83 -128 6 -91 9 -100 31 -110 42 -19 46 -3 33 164
-11 157 -25 250 -41 282 -15 27 -52 20 -86 -15 -32 -34 -63 -87 -63 -110 -1
-7 -7 -26 -14 -43 l-13 -30 -15 35 c-8 19 -21 60 -28 90 -18 78 -51 110 -78
78z"/>
<path d="M8561 3101 c-39 -30 -6 -89 44 -77 21 5 25 12 25 45 0 26 -5 41 -16
45 -22 9 -26 8 -53 -13z"/>
<path d="M8265 2968 c-137 -59 -188 -147 -135 -233 26 -42 101 -62 152 -40 38
16 78 50 78 68 0 7 10 -4 21 -23 26 -42 65 -80 83 -80 16 0 36 20 36 37 0 7
-18 31 -40 53 -22 22 -40 47 -40 55 0 8 -7 31 -16 52 -28 64 -33 77 -39 111
-4 17 -12 32 -18 31 -7 0 -43 -14 -82 -31z m39 -102 c7 -35 -7 -85 -27 -98
-15 -9 -59 -10 -81 -2 -19 7 -21 44 -3 68 11 15 83 63 98 65 4 1 10 -14 13
-33z"/>
<path d="M8557 2903 c-4 -3 -7 -48 -7 -100 0 -80 3 -96 20 -113 11 -11 25 -20
30 -20 20 0 30 49 20 93 -5 23 -10 63 -10 88 0 33 -5 49 -16 53 -20 8 -29 8
-37 -1z"/>
<path d="M13598 2708 c-15 -12 -15 -17 -3 -53 22 -60 29 -131 16 -140 -14 -8
-193 26 -202 39 -4 5 -12 5 -20 0 -8 -5 -183 -9 -389 -10 -206 0 -483 -5 -615
-9 -295 -11 -436 -11 -585 0 -126 9 -136 9 -290 0 -186 -11 -383 -12 -470 -2
-47 5 -180 10 -296 12 -116 2 -236 8 -265 13 -30 6 -115 14 -189 17 -159 7
-240 14 -251 21 -8 5 -49 -34 -49 -48 0 -16 47 -37 95 -42 107 -12 154 -16
255 -22 58 -3 132 -10 165 -15 33 -6 123 -11 200 -10 77 0 183 -4 235 -10 133
-13 306 -14 510 -3 96 5 238 7 315 4 194 -7 360 -6 790 5 204 5 379 8 390 8
11 0 144 -4 295 -7 151 -4 290 -12 307 -17 18 -6 37 -8 43 -4 19 11 23 -27 11
-89 -22 -108 -22 -145 -1 -156 25 -13 23 -14 56 16 62 55 147 106 226 136 46
17 94 41 108 54 23 23 24 26 10 51 -17 30 -17 30 -123 78 -61 28 -95 52 -159
115 -45 44 -86 80 -93 80 -6 0 -19 -6 -27 -12z"/>
<path d="M6710 2495 c-16 -20 -20 -133 -5 -165 22 -48 10 -59 -63 -62 -64 -3
-67 -4 -70 -29 -4 -36 14 -47 83 -51 l60 -3 -3 -125 c-1 -69 -5 -138 -8 -154
-5 -19 -2 -31 7 -37 23 -15 57 -10 71 10 31 43 227 241 240 241 38 0 52 59 19
82 -10 7 -35 36 -56 63 -40 53 -78 96 -109 123 -10 9 -26 25 -35 35 -77 87
-105 103 -131 72z"/>
<path d="M5513 2310 c-26 -11 -47 -46 -39 -66 7 -17 201 -21 211 -3 10 16 -32
56 -66 63 -68 14 -85 15 -106 6z"/>
<path d="M5227 2292 c-10 -10 -17 -23 -17 -29 0 -36 181 -62 194 -27 15 39 7
50 -45 62 -72 17 -113 15 -132 -6z"/>
<path d="M6078 2303 c-23 -6 -33 -42 -17 -59 12 -11 51 -18 153 -27 39 -3 57
25 32 52 -26 28 -119 47 -168 34z"/>
<path d="M5763 2283 c-13 -8 -23 -21 -23 -28 0 -28 26 -34 113 -28 82 6 87 7
87 28 0 18 -8 25 -44 34 -61 15 -107 13 -133 -6z"/>
<path d="M6311 2262 c-4 -9 -6 -23 -4 -30 8 -23 61 -43 101 -38 20 3 42 5 49
5 14 1 43 29 43 42 0 16 -52 32 -117 35 -51 2 -65 0 -72 -14z"/>
<path d="M13450 2005 c-9 -11 -10 -36 -5 -90 6 -68 5 -75 -12 -76 -10 -1 -88
-3 -173 -4 -139 -2 -261 -7 -505 -21 -140 -8 -408 -18 -462 -18 -29 0 -155 1
-280 2 -313 1 -403 3 -438 7 -16 2 -101 6 -188 9 -87 3 -199 11 -250 16 -63 8
-119 8 -177 1 -185 -22 -696 -31 -868 -15 -104 10 -127 5 -137 -26 -13 -40 12
-50 130 -56 60 -2 114 -9 119 -13 11 -9 103 -8 266 3 52 4 176 8 275 10 99 3
192 7 207 11 23 6 183 0 563 -22 167 -10 864 -9 1065 1 236 12 273 14 589 21
l294 7 -5 -85 c-3 -59 -10 -93 -23 -113 -17 -27 -17 -28 5 -46 28 -23 30 -23
74 7 20 14 43 25 50 25 7 0 22 14 34 30 13 17 29 30 36 30 7 0 25 11 38 25 15
15 32 23 41 20 8 -4 22 3 33 17 11 13 30 24 43 26 25 2 64 30 59 41 -10 20
-215 204 -271 244 -70 49 -106 58 -127 32z"/>
<path d="M13571 1408 c-5 -13 -6 -27 -3 -32 5 -9 7 -28 14 -120 l3 -49 -140
-3 c-77 -2 -180 -8 -230 -14 -166 -18 -418 -32 -700 -37 -154 -2 -300 -6 -325
-9 -62 -5 -829 -6 -839 0 -4 3 -103 7 -221 10 -118 4 -294 9 -390 12 -96 4
-202 5 -235 3 -61 -4 -236 -4 -424 0 -79 1 -109 -2 -127 -14 -25 -16 -32 -49
-13 -60 13 -9 217 -14 449 -12 241 2 227 2 680 -12 471 -15 977 -18 1170 -7
74 4 257 9 405 11 149 2 317 8 375 14 58 6 168 16 245 21 77 5 149 11 160 12
11 1 53 1 94 0 l74 -2 -6 -81 c-4 -45 -11 -87 -17 -94 -15 -18 8 -55 34 -55
10 0 33 10 50 23 17 12 45 29 61 36 36 15 125 81 178 130 32 31 45 36 85 36
46 0 47 1 50 32 4 45 -14 76 -41 69 -14 -3 -33 4 -57 22 -60 47 -97 70 -121
77 -40 12 -143 72 -161 94 -24 29 -66 28 -77 -1z"/>
<path d="M2493 186 c-13 -13 -23 -35 -23 -48 0 -37 42 -35 74 3 30 35 33 54
10 63 -26 10 -38 7 -61 -18z"/>
</g>
</svg>
