<?xml version="1.0" standalone="no"?>
<!DOCTYPE svg PUBLIC "-//W3C//DTD SVG 20010904//EN"
 "http://www.w3.org/TR/2001/REC-SVG-20010904/DTD/svg10.dtd">
<svg version="1.0" xmlns="http://www.w3.org/2000/svg"
 width="3524.555990pt" height="400.000000pt" viewBox="0 0 3524.555990 400.000000"
 preserveAspectRatio="xMidYMid meet">
<metadata>
Created by potrace 1.15, written by Peter Selinger 2001-2017
</metadata>
<g transform="translate(-48.415992,471.198786) scale(0.072561,-0.072561)"
fill="#444444" stroke="none">
<path d="M40610 6489 c-58 -4 -242 -6 -410 -4 -168 1 -330 -1 -360 -6 -30 -5
-135 -11 -232 -14 -98 -2 -182 -6 -187 -10 -6 -3 -63 -6 -128 -6 -216 0 -363
-25 -386 -65 -4 -8 -14 -14 -21 -14 -7 0 -23 -11 -36 -25 -25 -27 -28 -64 -11
-118 6 -18 13 -47 16 -66 3 -19 11 -43 17 -54 7 -15 7 -44 -2 -108 -10 -72
-10 -91 0 -104 8 -10 14 -55 16 -127 2 -61 8 -116 13 -122 5 -6 7 -124 5 -276
-9 -517 -9 -718 -2 -976 5 -179 4 -271 -3 -295 -6 -19 -10 -64 -10 -100 1 -36
-3 -79 -10 -95 -6 -16 -12 -81 -14 -144 -2 -63 -7 -200 -10 -305 -3 -104 -5
-210 -4 -235 6 -156 -3 -630 -12 -630 -5 0 -11 -24 -39 -165 -7 -33 -15 -105
-17 -160 -3 -55 -9 -108 -15 -118 -5 -9 -6 -33 -2 -53 5 -27 2 -38 -11 -48
-17 -12 -16 -16 9 -69 30 -64 41 -68 101 -36 67 35 410 48 510 19 17 -5 59
-11 95 -14 36 -3 110 -10 165 -16 55 -7 147 -13 205 -15 58 -2 141 -7 185 -10
120 -10 309 -9 410 3 50 6 205 14 345 17 140 3 279 8 310 11 30 3 114 6 185 6
72 0 141 4 155 9 26 10 133 29 300 54 52 8 115 18 140 22 47 8 228 10 555 6
214 -3 408 3 475 13 73 12 88 13 245 14 218 2 465 -10 500 -25 25 -10 34 -10
53 3 26 17 39 17 403 14 166 -2 266 1 340 12 225 32 285 36 610 36 185 0 358
4 385 9 27 6 150 13 274 17 124 3 248 7 275 9 193 13 378 15 391 4 16 -13 88
-7 108 10 7 6 39 10 72 9 33 -1 127 1 209 5 199 10 893 11 973 2 40 -5 67 -4
74 3 11 11 52 8 180 -14 48 -8 178 -17 290 -19 252 -6 340 -11 398 -25 25 -5
79 -12 120 -14 41 -2 75 -7 77 -12 2 -5 17 -33 33 -61 l30 -53 64 0 c58 0 64
2 70 23 10 39 7 74 -11 106 -17 29 -17 31 -1 43 13 10 18 28 18 73 2 112 -7
303 -15 314 -4 7 -1 18 5 26 7 8 10 24 7 34 -2 11 -1 39 3 63 9 44 17 125 24
235 3 34 9 70 15 81 6 12 8 69 5 148 -5 126 -5 159 0 297 1 38 -2 71 -6 73 -4
3 -8 14 -8 25 0 11 5 17 10 14 12 -8 11 115 -1 159 -6 20 -5 32 2 37 7 4 9 19
5 40 -7 32 -11 121 -7 164 4 47 -12 251 -20 267 -6 10 -5 19 1 23 14 9 13 62
-2 67 -8 3 -7 13 4 35 12 24 14 41 7 75 -20 93 -28 175 -20 208 4 19 4 47 0
62 -4 14 -3 48 2 74 5 27 9 64 9 84 0 101 9 373 13 429 3 36 3 69 0 74 -12 19
-9 93 5 116 9 15 12 39 8 70 -10 81 -2 241 13 269 6 11 11 29 11 40 0 21 24
51 55 68 38 21 49 125 18 181 -19 35 -32 39 -82 22 -23 -8 -39 -8 -63 1 -18 7
-80 16 -138 21 -127 11 -243 24 -330 38 -89 15 -375 42 -425 41 -49 -1 -292
17 -326 24 -13 3 -94 8 -179 11 -252 10 -310 14 -349 25 -20 5 -47 10 -60 10
-13 0 -43 10 -67 21 l-42 22 -34 -24 c-32 -23 -39 -24 -193 -22 -326 4 -572
13 -647 24 -43 6 -85 8 -95 4 -32 -12 -701 -17 -863 -6 -85 6 -191 13 -235 15
-44 2 -135 11 -203 20 -77 10 -154 14 -205 11 -45 -3 -113 -5 -152 -4 -38 1
-81 2 -95 2 -252 -8 -376 -4 -490 13 -128 19 -127 19 -805 12 -222 -3 -389 3
-511 18 -67 8 -136 14 -155 13 -19 -1 -59 3 -89 10 -30 6 -104 14 -165 17 -60
3 -155 12 -209 21 -77 12 -126 14 -215 8 -64 -5 -150 -8 -191 -8 -162 2 -539
23 -562 32 -28 11 -186 29 -267 31 -30 1 -57 2 -60 3 -3 2 -53 0 -111 -4z
m230 -205 c63 -3 140 -9 170 -14 70 -13 287 -41 320 -41 14 -1 147 0 295 1
149 2 329 -2 400 -9 284 -25 341 -30 375 -35 19 -3 67 -8 105 -11 39 -3 115
-10 170 -16 124 -13 480 -17 595 -7 96 8 122 -2 101 -40 -6 -11 -11 -39 -11
-61 0 -22 -4 -42 -10 -46 -5 -3 -9 -40 -9 -83 1 -42 0 -84 0 -92 -1 -8 3 -37
9 -65 17 -83 12 -432 -7 -500 -5 -16 -7 -93 -5 -170 7 -213 12 -527 11 -650
-4 -350 8 -691 30 -816 5 -30 7 -75 4 -100 -7 -62 -6 -67 5 -131 6 -32 9 -82
6 -113 -2 -33 1 -65 8 -78 8 -15 12 -101 14 -272 1 -150 7 -261 13 -278 15
-39 14 -104 -1 -110 -10 -3 -10 -9 0 -28 6 -13 12 -44 11 -69 0 -25 1 -78 3
-118 3 -70 2 -73 -21 -79 -13 -3 -65 -3 -115 1 -106 8 -103 9 -266 -5 -69 -5
-167 -10 -217 -10 -51 0 -95 -4 -98 -8 -3 -7 -525 -4 -695 3 -46 1 -43 18 6
32 22 7 38 16 37 22 -1 5 13 22 31 36 19 14 43 40 54 58 28 47 49 163 31 174
-5 3 -9 20 -9 38 0 29 -8 64 -27 116 -3 8 -6 29 -7 45 -1 17 -11 48 -22 70
-12 23 -24 68 -27 105 -3 35 -10 66 -16 68 -6 2 -18 20 -27 40 -9 20 -25 55
-35 78 -11 22 -19 45 -19 52 0 6 -10 21 -23 34 -17 18 -26 44 -36 116 -8 51
-19 96 -25 99 -6 4 -41 8 -78 9 -36 1 -71 5 -77 8 -5 4 -34 -9 -63 -27 -29
-19 -90 -54 -135 -78 -49 -25 -96 -59 -115 -82 -18 -21 -51 -57 -73 -80 l-40
-42 11 -60 c14 -77 41 -129 97 -183 36 -35 58 -47 116 -62 65 -18 78 -18 158
-5 88 14 111 27 140 80 5 8 19 16 33 17 28 3 48 -29 79 -132 51 -167 51 -287
0 -344 -23 -27 -41 -35 -106 -49 -105 -23 -229 -22 -280 1 -72 32 -121 96 -99
130 11 19 -58 82 -91 82 -19 0 -82 -22 -101 -36 -6 -4 25 -100 43 -135 45 -89
236 -229 311 -229 58 0 6 -22 -62 -26 -38 -3 -80 -9 -94 -14 -30 -10 -126 -18
-315 -26 -77 -3 -156 -8 -175 -11 -39 -5 -214 -13 -330 -14 -41 0 -111 -4
-155 -9 -123 -14 -468 -20 -559 -9 -45 5 -121 11 -171 15 -49 3 -126 10 -170
15 -44 6 -125 14 -180 20 -55 5 -107 12 -115 15 -12 5 -149 5 -315 1 -75 -1
-87 2 -80 23 4 12 2 27 -4 34 -7 9 -8 22 -3 37 5 13 12 53 16 89 4 36 16 95
26 132 10 36 16 68 14 71 -2 2 3 21 12 42 20 49 24 113 31 455 7 393 7 411 4
450 -1 19 3 103 9 185 6 83 11 156 10 163 -1 40 6 162 15 242 17 156 19 383 6
611 -5 81 -6 164 -2 186 4 22 4 48 0 59 -8 24 -4 259 6 274 15 25 18 363 3
445 -8 44 -14 105 -13 135 1 30 -2 63 -7 73 -6 12 -5 23 2 32 14 17 11 117 -6
175 -18 59 -17 85 2 126 27 56 56 65 207 64 156 -1 318 5 488 19 68 6 268 9
444 7 176 -2 329 1 340 5 11 5 61 7 110 4 50 -3 142 -8 205 -11z m2995 -143
c66 -12 152 -20 191 -19 87 1 103 -6 76 -36 -11 -11 -32 -43 -47 -70 -25 -43
-27 -52 -16 -81 8 -22 9 -75 5 -171 -3 -77 -6 -146 -6 -154 1 -22 13 -218 16
-270 2 -25 6 -57 11 -72 4 -15 3 -32 -1 -39 -10 -17 -12 -388 -2 -417 5 -13 5
-29 1 -35 -9 -15 -4 -89 7 -102 8 -9 4 -91 -5 -105 -2 -3 3 -45 10 -95 7 -49
16 -135 20 -190 4 -55 8 -118 10 -140 1 -22 8 -74 14 -115 6 -41 11 -97 10
-125 -2 -47 1 -121 17 -435 4 -74 8 -187 9 -250 1 -63 5 -136 9 -163 4 -26 4
-53 -1 -59 -9 -15 -4 -79 7 -93 5 -5 9 -35 9 -65 1 -30 2 -109 4 -175 1 -66
-1 -160 -6 -210 -4 -49 -9 -117 -11 -150 l-3 -60 -230 -3 c-327 -5 -337 0
-322 137 6 57 5 78 -6 94 -8 12 -11 28 -6 41 4 11 6 41 4 66 -6 81 -12 251
-17 487 -2 128 -7 237 -10 242 -4 5 -8 71 -11 145 -2 75 -7 141 -10 146 -3 5
-5 21 -5 37 0 15 -2 48 -5 73 -5 44 -17 300 -17 370 -1 91 11 280 17 290 4 7
2 16 -5 20 -17 10 -20 115 -4 172 10 39 10 48 -1 48 -15 0 -18 87 -3 96 12 8
-1 132 -17 164 -10 19 -10 31 -2 45 12 23 16 63 17 183 0 45 4 82 8 82 4 0 8
29 9 65 1 36 7 72 13 80 9 11 10 19 1 28 -6 8 -10 31 -10 53 2 62 -11 407 -15
412 -2 2 0 18 5 35 5 18 5 45 -1 66 -13 50 -21 167 -14 195 11 46 131 57 309
27z m997 -38 c9 -10 9 -13 0 -13 -6 0 -18 -12 -26 -27 -11 -23 -13 -87 -12
-324 2 -162 7 -302 12 -310 5 -8 10 -52 11 -99 7 -230 11 -311 16 -316 3 -3 3
-21 0 -40 -4 -25 -2 -35 11 -40 13 -5 14 -9 5 -20 -6 -8 -8 -21 -4 -31 5 -10
10 -29 12 -43 2 -14 7 -43 13 -66 5 -22 12 -96 16 -165 3 -68 7 -147 8 -175 2
-28 5 -55 8 -60 8 -14 4 -118 -5 -132 -5 -8 -3 -19 5 -29 9 -11 13 -53 15
-132 0 -64 4 -150 7 -191 3 -41 7 -109 9 -150 3 -41 8 -103 12 -137 5 -45 4
-67 -5 -78 -7 -8 -9 -15 -4 -15 8 0 12 -32 13 -112 4 -163 5 -433 2 -498 -1
-25 -1 -54 0 -65 3 -54 -10 -355 -15 -364 -4 -6 -2 -11 4 -11 7 0 8 -5 3 -12
-4 -7 -8 -40 -8 -73 l0 -60 -80 -7 c-279 -25 -339 -32 -389 -49 -16 -5 -54 -9
-84 -9 l-55 0 9 62 c4 35 8 120 8 191 1 70 4 127 8 127 4 0 5 28 2 63 -4 34
-7 130 -8 212 0 83 -5 156 -9 163 -5 7 -7 38 -6 70 1 32 -1 64 -5 70 -4 6 -2
20 4 31 13 25 13 64 0 77 -9 9 -11 33 -9 139 0 11 -4 60 -10 108 -5 49 -7 103
-4 120 8 45 8 57 -1 202 -4 72 -8 157 -10 191 -2 34 -6 66 -10 73 -4 6 -12 55
-17 109 -6 53 -12 115 -14 137 -7 60 -17 228 -19 331 -1 49 -5 95 -9 101 -4 6
0 42 9 79 10 43 12 76 7 89 -5 11 -8 72 -8 135 1 63 -2 120 -7 127 -5 7 -6 33
-2 60 5 26 7 59 6 73 -2 14 -4 75 -5 135 -1 77 -6 113 -15 120 -10 8 -11 17
-1 40 6 17 12 89 13 160 2 72 8 143 14 158 14 33 16 71 3 63 -8 -5 -26 23 -19
29 26 25 586 31 610 8z m295 -16 c5 -3 72 -7 149 -8 131 -1 218 -10 230 -22 3
-3 -4 -19 -17 -36 -17 -23 -19 -33 -11 -43 12 -15 24 -108 26 -208 0 -36 5
-71 9 -77 4 -7 10 -61 13 -120 3 -60 8 -124 12 -143 4 -19 4 -68 -1 -110 -12
-102 -11 -164 6 -230 4 -14 9 -56 12 -95 2 -38 7 -97 10 -130 14 -148 16 -177
14 -225 0 -14 4 -72 9 -130 5 -58 10 -116 10 -130 1 -14 6 -52 13 -86 8 -41 9
-71 3 -90 -10 -28 -10 -353 -1 -477 3 -34 2 -81 -3 -105 -4 -23 -3 -45 1 -48
5 -3 5 -12 0 -22 -4 -9 -10 -75 -11 -147 -4 -155 -5 -175 -13 -195 -3 -8 -8
-42 -11 -75 -3 -33 -8 -87 -11 -120 -3 -33 -5 -95 -5 -138 -1 -43 -6 -89 -12
-102 -7 -17 -8 -28 -1 -37 6 -7 9 -22 7 -33 -2 -11 -6 -81 -8 -155 -5 -151
-13 -215 -30 -229 -35 -29 -365 -31 -400 -2 -7 6 -10 24 -8 43 2 18 3 49 2 68
-5 105 6 365 18 415 5 22 8 81 7 130 -4 114 -15 319 -20 365 -4 40 -7 257 -5
408 0 18 -6 40 -15 48 -9 9 -13 25 -10 37 8 30 5 146 -9 462 -3 60 -1 104 5
112 6 7 8 17 4 24 -4 6 -11 41 -16 78 -4 36 -13 107 -20 156 -6 50 -12 122
-13 160 -1 39 -5 75 -9 82 -7 10 -24 166 -32 278 -1 22 -3 40 -4 40 -1 0 -4
79 -7 175 -3 96 -7 191 -10 210 -6 41 -7 72 -4 120 4 47 -8 298 -16 332 -5 26
-4 27 43 30 61 5 118 3 130 -5z m960 -20 c2 -3 17 -2 31 2 30 9 134 3 165 -8
18 -7 21 -17 22 -94 0 -48 -3 -87 -8 -87 -5 0 -6 -16 -2 -37 3 -21 8 -94 10
-163 2 -69 5 -127 6 -130 1 -3 4 -39 6 -80 1 -41 5 -94 7 -117 3 -25 1 -43 -5
-43 -6 0 -7 -5 -3 -11 3 -6 8 -70 11 -142 6 -182 6 -185 5 -337 -1 -74 -1
-146 -1 -160 0 -14 -2 -279 -4 -590 -2 -311 0 -593 5 -627 11 -85 13 -346 3
-363 -4 -7 -8 -55 -9 -107 0 -51 -4 -93 -8 -93 -3 0 -6 -25 -5 -56 2 -30 -1
-58 -5 -60 -4 -3 -6 -37 -4 -77 2 -40 6 -125 9 -190 l5 -118 -35 -14 c-37 -16
-441 -34 -564 -26 -26 2 -30 27 -12 68 12 28 16 75 17 183 0 80 4 150 8 156 4
7 3 26 -3 43 -9 26 -8 35 4 49 8 9 12 28 10 42 -10 56 0 303 14 340 3 8 7 44
10 80 2 36 8 89 13 118 5 29 7 73 3 97 -3 27 -1 50 5 58 11 13 8 223 -4 322
-6 54 -7 120 0 180 9 90 10 131 3 142 -4 6 -7 26 -7 45 -1 99 -7 260 -13 308
-3 30 -9 109 -12 174 -3 66 -8 123 -11 127 -2 4 -7 47 -10 96 -3 48 -12 118
-19 155 -9 47 -10 80 -4 109 6 27 6 45 0 53 -6 7 -8 48 -5 102 7 120 7 133 -4
177 -6 20 -8 46 -5 56 2 10 -1 38 -7 62 -7 24 -14 69 -17 99 -2 30 -6 69 -7
85 -2 17 0 35 3 40 8 15 7 104 -1 98 -5 -2 -8 5 -8 16 0 10 -3 26 -6 35 -5 13
7 16 73 19 103 4 353 0 360 -6z m788 -17 c65 5 185 2 218 -4 l34 -6 7 -70 c4
-38 10 -72 14 -74 4 -2 9 -37 10 -78 2 -40 8 -107 13 -148 12 -90 18 -161 24
-255 2 -38 7 -95 10 -125 3 -30 7 -80 10 -110 2 -30 6 -64 8 -75 7 -29 21
-208 18 -220 -5 -17 -1 -216 6 -290 6 -77 6 -78 4 -150 -1 -27 2 -95 7 -150 4
-55 7 -131 5 -170 -3 -38 -4 -88 -4 -110 0 -22 0 -53 0 -70 0 -61 -8 -243 -14
-345 -7 -118 -8 -172 -6 -297 0 -49 -1 -104 -4 -123 -7 -42 -7 -24 -1 -285 3
-163 1 -220 -10 -250 -7 -22 -14 -52 -14 -67 0 -15 -4 -38 -9 -51 -6 -16 -6
-38 0 -61 18 -66 -8 -75 -222 -80 -79 -2 -215 -10 -301 -17 -207 -16 -209 -16
-206 83 1 40 -1 78 -5 85 -4 7 0 16 10 22 11 6 13 11 5 11 -7 0 -10 5 -6 12 4
6 7 44 6 85 -1 46 3 73 10 73 6 0 8 12 4 33 -8 36 -8 59 1 172 3 44 7 125 9
180 2 55 5 147 7 205 2 58 0 113 -5 123 -5 10 -5 24 1 36 6 10 8 21 5 23 -2 3
-7 45 -9 94 -2 49 -6 105 -9 124 -7 57 -6 100 4 200 5 52 7 118 4 145 -6 54
-8 337 -4 530 2 80 -1 128 -9 143 -7 13 -10 30 -7 40 17 61 22 291 11 557 -2
66 -7 201 -10 300 -3 99 -7 229 -10 289 -2 60 -2 113 1 118 4 6 80 7 188 3 99
-4 195 -6 211 -5z m740 -34 c101 -5 257 -15 312 -22 39 -5 43 -8 49 -39 3 -18
7 -57 9 -86 1 -30 6 -75 10 -100 6 -36 3 -52 -10 -72 -13 -21 -14 -30 -5 -48
7 -12 10 -39 7 -61 -3 -22 1 -57 8 -77 14 -42 27 -167 31 -316 1 -55 5 -165 9
-245 4 -80 8 -206 9 -280 2 -91 8 -151 19 -185 8 -27 16 -63 15 -80 -1 -171 9
-346 19 -356 9 -9 10 -16 1 -26 -8 -10 -8 -19 1 -36 14 -26 9 -93 -8 -125 -9
-18 -9 -23 1 -27 10 -4 13 -40 14 -143 1 -75 4 -146 7 -157 3 -11 1 -59 -4
-105 -5 -47 -11 -130 -14 -185 -5 -129 -13 -195 -23 -209 -4 -6 -7 -53 -6
-103 2 -52 -2 -95 -7 -99 -6 -4 -7 -10 0 -17 6 -8 4 -31 -5 -67 -8 -30 -14
-77 -14 -106 0 -28 -3 -53 -6 -57 -3 -3 -8 -34 -10 -69 -2 -35 -6 -83 -10
-106 l-6 -44 -71 7 c-40 3 -98 11 -129 17 -43 8 -61 8 -72 -1 -10 -9 -39 -9
-107 -2 -51 5 -103 5 -114 1 -29 -11 -117 0 -136 16 -13 11 -14 24 -7 66 5 29
13 80 18 113 17 101 29 269 21 280 -12 15 -3 185 11 218 6 17 7 32 2 35 -11 8
-13 38 -15 232 -2 157 5 309 20 405 5 34 5 65 0 71 -5 6 -4 25 1 45 6 19 10
72 10 119 0 47 0 110 0 140 1 55 -5 171 -15 265 -8 86 -17 258 -14 300 4 63 3
104 -6 185 -4 41 -8 91 -8 110 0 35 -13 219 -22 316 -3 28 -9 73 -14 100 -5
27 -7 73 -5 101 3 30 0 62 -7 74 -8 17 -8 23 1 29 8 5 9 13 4 21 -5 8 -9 32
-10 54 0 22 -4 51 -8 65 -4 14 -7 75 -8 137 -1 61 -6 109 -10 107 -10 -6 -11
20 -2 29 4 4 55 4 113 1 58 -3 142 -7 186 -8z m855 -52 c102 -2 221 -11 265
-18 44 -8 99 -17 122 -21 47 -6 111 -39 95 -49 -6 -3 -8 -35 -5 -73 5 -88 6
-59 -3 -363 -4 -146 -7 -316 -6 -379 1 -63 -3 -119 -8 -126 -5 -6 -6 -24 -1
-41 4 -16 3 -49 -2 -74 -13 -64 -10 -506 4 -531 6 -11 8 -28 5 -36 -9 -22 -20
-217 -17 -278 1 -27 4 -102 6 -165 2 -63 4 -115 5 -115 1 0 3 -93 5 -206 1
-114 6 -213 11 -222 12 -20 0 -198 -17 -260 -7 -27 -21 -53 -31 -58 -22 -12
-24 -42 -3 -59 8 -7 13 -16 10 -20 -3 -5 1 -15 9 -22 18 -19 15 -70 -16 -233
-6 -33 -12 -71 -13 -85 -1 -14 -3 -25 -5 -25 -7 0 -7 -75 0 -104 8 -29 6 -38
-14 -57 -34 -35 -66 -43 -117 -32 -24 5 -93 13 -154 18 -229 19 -371 29 -387
30 -31 0 -37 30 -22 105 8 39 18 90 21 115 3 25 12 54 18 65 8 12 13 61 13
125 1 58 6 137 12 175 7 39 13 113 15 165 2 52 4 95 5 95 1 0 3 23 4 50 2 28
6 102 10 165 9 157 10 449 1 480 -4 14 -9 84 -10 156 -1 72 -6 141 -10 155 -5
13 -10 67 -11 119 -2 52 -5 120 -7 150 -21 289 -22 299 -17 350 1 14 -2 50 -6
80 -4 30 -7 76 -7 103 1 26 -2 47 -6 47 -9 0 -7 67 2 77 8 8 9 48 1 55 -9 10
-12 312 -3 330 6 12 4 36 -6 71 -14 49 -21 114 -29 282 -2 33 -5 67 -7 75 -3
11 7 16 36 20 22 4 49 4 60 2 11 -2 103 -6 205 -8z m-6691 -2796 c0 -29 1 -75
2 -102 2 -44 -1 -52 -27 -73 -16 -12 -38 -23 -49 -23 -12 0 -26 -5 -32 -11
-16 -16 -91 8 -119 38 -33 36 -31 72 7 108 49 46 161 113 191 114 25 1 26 -1
27 -51z"/>
<path d="M40010 5800 c-41 -4 -133 -8 -205 -9 -85 0 -144 -6 -170 -15 -39 -14
-40 -16 -42 -63 -2 -68 2 -77 46 -101 36 -20 39 -26 46 -77 3 -31 5 -95 4
-143 -2 -48 0 -96 4 -108 5 -15 -1 -29 -23 -54 -35 -39 -37 -49 -11 -76 10
-11 24 -31 31 -44 17 -31 18 -214 1 -234 -19 -23 -5 -69 26 -83 38 -18 127
-17 143 2 19 23 22 101 6 133 -9 17 -14 52 -13 89 l2 62 65 4 c315 23 367 29
406 48 50 24 54 24 54 -1 0 -10 6 -23 14 -27 7 -4 19 -19 26 -33 7 -14 22 -35
33 -48 27 -29 68 -99 107 -182 54 -114 152 -154 252 -103 25 12 78 96 78 123
0 21 101 215 135 258 18 24 37 56 40 72 8 38 -28 77 -81 86 -37 5 -42 3 -59
-22 -23 -35 -33 -49 -62 -80 -13 -14 -23 -31 -23 -38 0 -7 -8 -24 -18 -37 -38
-49 -84 -140 -78 -155 4 -9 -3 -19 -19 -26 -14 -6 -27 -9 -29 -7 -7 7 -66 147
-66 156 0 4 -8 13 -18 19 -9 6 -28 38 -41 70 -13 32 -31 67 -39 77 -18 21 -60
22 -86 2 -31 -23 -65 -19 -76 9 -5 13 -14 27 -20 31 -20 12 -145 13 -200 1
-69 -14 -277 -13 -292 2 -8 8 -11 58 -9 149 2 109 6 142 18 155 9 10 21 18 28
18 7 0 25 6 41 14 34 16 218 32 322 27 85 -4 112 11 112 63 0 41 -7 49 -60 76
-51 26 -170 34 -300 20z"/>
<path d="M42610 5587 c-39 -20 -56 -123 -34 -211 13 -49 11 -103 -3 -117 -10
-10 -84 -12 -138 -4 -36 6 -43 3 -73 -28 -19 -20 -32 -43 -30 -53 3 -19 97
-79 138 -89 15 -3 44 -28 68 -60 35 -45 41 -57 33 -77 -5 -13 -6 -42 -2 -64 4
-21 6 -70 4 -109 -3 -63 -1 -71 19 -87 30 -23 60 -22 108 2 39 20 39 20 40 83
1 34 2 106 3 159 l2 97 38 17 c30 14 65 17 162 16 109 -1 127 2 149 19 32 25
32 70 0 100 -27 25 -117 42 -175 33 -24 -4 -47 0 -69 11 -18 9 -47 18 -64 18
-27 2 -31 6 -34 32 -1 17 -9 62 -18 101 -8 40 -12 83 -8 98 6 27 -20 75 -60
108 -25 21 -25 21 -56 5z"/>
<path d="M41350 5254 c-57 -22 -104 -48 -128 -72 -81 -80 -142 -184 -142 -240
0 -21 -5 -32 -14 -32 -13 0 -29 -70 -16 -70 3 0 16 -23 30 -51 24 -50 82 -109
106 -109 6 0 17 -6 24 -14 14 -18 136 -60 149 -52 5 3 56 8 114 11 58 3 117 9
132 15 15 6 55 13 89 15 60 5 63 4 84 -25 13 -17 29 -30 36 -30 7 0 19 -7 26
-15 8 -10 31 -15 66 -15 46 0 56 3 70 25 18 27 18 23 -17 139 -15 48 -11 208
6 236 8 14 19 35 24 48 6 12 16 22 23 22 7 0 25 6 39 14 24 12 32 12 65 -4 35
-15 42 -25 67 -93 22 -59 27 -89 24 -136 -2 -33 -6 -64 -10 -67 -30 -30 46
-124 101 -124 38 0 52 11 76 63 16 33 20 51 14 68 -5 13 -10 65 -12 115 -2 71
-8 100 -23 126 -11 19 -26 51 -32 71 -7 20 -29 51 -49 68 -20 18 -42 42 -47
53 -16 31 -79 49 -154 42 -58 -5 -70 -10 -138 -62 -45 -33 -80 -69 -88 -87 -8
-18 -23 -45 -35 -62 -11 -16 -20 -39 -20 -50 0 -11 -7 -29 -15 -39 -18 -24
-19 -65 -3 -117 6 -22 9 -42 6 -45 -4 -3 -23 3 -45 13 -43 22 -47 22 -194 0
-103 -16 -167 -11 -192 12 -8 8 103 61 125 61 6 0 40 14 75 30 34 17 67 30 72
30 20 0 44 67 46 130 3 50 -1 72 -16 96 -22 36 -60 64 -87 64 -10 0 -36 9 -57
20 -41 21 -128 34 -155 24z m123 -175 c84 -22 28 -67 -126 -100 -50 -11 -60
-10 -73 3 -13 13 -9 20 37 67 56 57 57 57 162 30z"/>
<path d="M40328 4775 c-4 -5 -272 -13 -475 -15 -38 0 -113 -61 -113 -90 0 -22
45 -60 71 -60 10 0 20 -4 23 -9 17 -27 126 -22 351 15 50 8 117 17 150 21 70
7 85 19 92 73 5 37 4 39 -32 54 -39 17 -58 20 -67 11z"/>
<path d="M39702 4062 c-42 -45 -43 -48 -32 -82 6 -19 13 -51 15 -70 7 -51 43
-240 49 -257 20 -51 28 -429 11 -469 -4 -11 -9 -23 -9 -29 -1 -5 -7 -28 -13
-50 -13 -45 -4 -119 18 -140 17 -17 190 -24 319 -14 106 9 319 1 385 -13 82
-19 181 -11 199 15 11 14 15 14 38 -6 15 -12 38 -41 52 -64 15 -24 32 -43 39
-43 6 0 25 -7 41 -15 19 -10 41 -13 65 -9 20 4 45 8 55 10 40 7 92 28 129 51
49 31 107 93 107 114 0 10 5 21 11 25 17 10 1 111 -28 174 -87 190 -303 252
-420 120 -25 -27 -53 -110 -58 -168 -4 -49 -16 -112 -22 -112 -2 0 -19 11 -36
24 -19 14 -63 31 -107 40 -41 9 -91 21 -110 27 -23 8 -113 12 -266 11 l-230
-1 3 216 c2 119 -1 221 -6 227 -4 6 -11 40 -15 76 -17 179 -26 243 -37 256 -6
8 -9 23 -6 33 9 34 -12 115 -36 137 -40 39 -58 37 -105 -14z m1286 -897 c27
-22 29 -29 22 -55 -5 -16 -6 -37 -4 -47 8 -34 -114 -101 -131 -73 -4 7 -8 51
-8 98 0 75 3 87 19 93 37 15 73 9 102 -16z"/>
<path d="M18185 6434 c-22 -23 -41 -61 -77 -161 -32 -91 -63 -148 -92 -172 -9
-7 -16 -21 -16 -30 0 -9 -8 -28 -17 -41 -22 -32 -54 -89 -93 -170 -17 -36 -37
-76 -45 -90 -8 -14 -22 -40 -30 -59 -9 -18 -28 -52 -43 -75 -51 -81 -102 -188
-102 -215 0 -29 23 -51 67 -65 16 -5 28 1 52 26 17 18 31 41 31 51 0 18 17 57
29 67 9 8 40 61 56 96 13 29 75 128 93 149 5 6 12 24 16 40 4 16 11 32 14 35
11 8 69 130 88 185 10 28 30 73 44 100 46 86 72 139 83 165 6 14 22 37 35 52
17 19 23 33 18 50 -9 36 -19 46 -58 62 -33 14 -38 14 -53 0z"/>
<path d="M25539 6316 c-6 -6 -68 -12 -219 -22 -41 -2 -154 -4 -250 -4 -205 2
-192 2 -272 1 -35 0 -142 1 -238 3 -96 2 -206 -1 -245 -6 -38 -5 -128 -13
-200 -18 -262 -18 -301 -22 -330 -35 -21 -9 -114 -15 -315 -20 -157 -4 -307
-12 -335 -17 -86 -17 -192 -20 -361 -9 -112 7 -174 16 -194 26 -22 11 -52 15
-103 13 l-72 -3 -1 -62 c0 -40 -7 -70 -18 -88 -17 -26 -17 -28 5 -51 21 -23
22 -29 20 -221 -1 -204 -5 -265 -16 -282 -3 -6 0 -21 6 -33 15 -29 16 -77 1
-104 -8 -16 -7 -35 4 -79 9 -32 13 -70 9 -84 -8 -32 -6 -121 3 -135 8 -12 9
-32 16 -216 5 -133 13 -257 20 -330 3 -25 5 -58 5 -75 -1 -37 1 -139 5 -315 1
-78 -2 -162 -10 -200 -9 -48 -9 -70 -1 -85 9 -16 15 -104 17 -263 0 -13 7 -38
14 -57 10 -23 11 -37 5 -41 -6 -3 -8 -16 -4 -28 4 -11 9 -37 10 -56 4 -36 18
-333 17 -360 -2 -89 -12 -322 -17 -385 -13 -154 -1 -469 24 -635 5 -36 9 -96
9 -134 -1 -52 3 -71 13 -75 8 -2 32 -22 54 -44 22 -22 57 -51 78 -65 35 -24
42 -25 85 -14 26 6 99 16 162 22 63 7 127 18 142 26 18 10 72 16 170 18 79 3
143 5 143 6 0 4 186 9 270 8 44 0 98 1 120 3 35 3 112 2 178 -1 65 -3 357 23
388 35 47 18 92 22 494 47 187 11 387 25 445 30 159 14 185 16 465 22 332 8
414 12 555 28 63 7 135 12 160 11 25 -1 176 7 335 19 344 25 779 29 990 8 77
-7 174 -12 215 -12 227 5 252 4 291 -13 31 -15 41 -15 54 -5 10 9 47 12 122
10 203 -6 238 -4 383 19 184 28 193 33 200 94 3 26 11 52 18 59 17 17 15 77
-3 84 -24 10 -34 71 -35 209 -1 162 -6 275 -13 295 -9 24 -18 126 -20 235 -3
99 4 180 24 303 7 43 7 68 0 76 -6 7 -10 61 -10 122 1 60 -2 208 -6 329 -3
121 -5 252 -4 290 1 39 2 81 1 95 -7 106 -13 267 -16 445 -4 203 -23 603 -32
675 -4 31 -7 85 -19 291 -1 32 -10 68 -20 83 -11 16 -15 37 -12 54 2 15 1 54
-4 87 -14 95 -40 308 -40 329 0 10 -16 38 -35 61 -32 40 -37 42 -77 37 -47 -5
-56 -5 -182 2 -200 10 -406 25 -414 30 -16 10 -175 18 -351 17 -444 -1 -519
-2 -573 -10 -33 -4 -101 -4 -155 2 -142 15 -232 11 -362 -13 -91 -18 -457 -9
-635 14 -172 23 -515 43 -526 32z m167 -198 c4 -5 21 -7 41 -3 19 3 67 2 106
-4 40 -6 119 -13 177 -16 58 -3 166 -10 240 -15 153 -11 306 -6 529 16 121 13
163 14 193 5 48 -15 443 -6 499 10 28 9 45 9 66 1 19 -8 99 -11 243 -8 118 2
225 -1 238 -5 13 -5 87 -11 164 -14 77 -3 148 -10 157 -14 22 -12 143 -15 208
-6 43 6 56 4 80 -12 15 -11 36 -23 46 -26 10 -4 17 -17 17 -32 0 -14 6 -38 14
-53 14 -26 20 -68 31 -201 3 -35 7 -66 10 -70 2 -4 9 -45 15 -92 7 -46 13 -95
16 -109 26 -165 28 -200 38 -855 3 -220 9 -408 12 -419 7 -21 17 -613 15 -871
0 -82 -6 -169 -12 -192 -8 -29 -9 -91 -5 -195 4 -84 7 -173 7 -198 -1 -25 2
-52 6 -60 4 -8 8 -55 9 -105 1 -49 4 -119 6 -155 2 -36 -1 -90 -8 -120 -10
-45 -10 -59 2 -82 18 -36 18 -40 -11 -60 -16 -13 -53 -20 -122 -25 -108 -8
-104 -8 -388 1 -110 4 -288 8 -395 10 -107 2 -214 8 -236 15 -25 6 -138 12
-270 14 -126 1 -231 5 -234 9 -3 4 -23 3 -45 -3 -22 -5 -87 -12 -145 -14 -58
-3 -141 -10 -185 -15 -44 -5 -138 -12 -210 -15 -71 -4 -159 -11 -195 -17 -36
-6 -103 -12 -150 -13 -351 -6 -720 -17 -853 -26 -87 -5 -162 -7 -166 -4 -5 3
-24 -1 -42 -9 -23 -10 -117 -18 -294 -26 -143 -6 -298 -16 -345 -21 -47 -5
-123 -14 -170 -19 -47 -5 -112 -14 -144 -19 -33 -5 -64 -7 -69 -4 -4 3 -83 4
-175 2 -92 -1 -194 -2 -226 -1 -33 1 -65 -3 -71 -8 -13 -11 -134 3 -163 19
-17 9 -27 8 -47 -5 -19 -12 -37 -15 -73 -10 -35 4 -62 1 -102 -14 -47 -17 -80
-20 -226 -20 -140 0 -174 -3 -184 -15 -9 -11 -34 -15 -99 -15 -95 0 -96 1
-129 48 -24 34 -38 84 -54 202 -12 89 -12 90 -4 250 4 69 7 170 7 225 0 55 0
172 1 260 2 391 -4 557 -21 621 -5 22 -9 57 -7 79 2 22 -1 67 -7 100 -7 48
-10 255 -5 505 1 78 -13 558 -18 605 -3 28 -10 69 -15 93 -6 26 -6 50 0 60 6
11 4 31 -5 57 -9 26 -14 74 -12 136 1 52 -2 101 -7 109 -11 18 -7 192 5 204 5
5 4 20 -1 34 -18 46 -9 496 9 514 7 7 34 8 74 4 93 -10 347 -8 476 5 62 6 228
12 370 13 141 1 284 8 317 14 33 6 105 16 160 21 55 6 150 16 210 23 109 13
222 16 505 14 307 -2 599 3 695 12 137 13 323 13 331 0z"/>
<path d="M23590 5659 c-83 -37 -88 -50 -50 -134 32 -70 29 -379 -5 -474 -8
-24 -15 -52 -15 -63 0 -26 -65 -102 -124 -145 -41 -29 -55 -34 -85 -29 -58 9
-90 51 -107 137 -8 41 -15 97 -15 124 -2 196 1 295 8 330 13 61 9 191 -6 209
-8 9 -28 16 -50 16 -48 -1 -73 -33 -62 -81 4 -19 4 -45 0 -57 -11 -28 -22
-228 -21 -376 1 -179 38 -360 76 -372 12 -4 35 -22 51 -41 24 -27 41 -36 83
-42 65 -10 122 -7 130 6 4 6 21 17 37 26 58 29 155 136 170 187 4 14 20 52 35
85 43 96 70 380 50 535 -25 198 -22 193 -100 159z"/>
<path d="M24069 5349 c-13 -10 -29 -19 -35 -19 -21 0 -128 -51 -162 -76 -17
-14 -45 -30 -62 -35 -26 -10 -29 -15 -32 -62 -3 -51 -1 -54 55 -119 32 -36 89
-87 126 -112 37 -25 74 -52 81 -61 7 -8 18 -15 26 -15 7 0 18 -9 23 -19 14
-26 -2 -37 -63 -45 -53 -7 -86 10 -86 44 0 16 -35 60 -48 60 -4 0 -29 -19 -54
-43 l-47 -43 23 -49 c30 -63 78 -101 153 -120 58 -15 148 -12 159 6 3 5 18 9
33 9 28 0 31 4 64 80 40 94 28 139 -54 205 -28 22 -65 53 -82 68 -18 16 -56
44 -84 63 -32 20 -53 41 -53 51 1 24 36 48 82 57 21 4 44 13 52 21 8 8 29 15
47 15 17 0 47 9 65 21 29 18 33 24 28 52 -9 52 -12 57 -36 57 -13 1 -39 7 -59
14 -32 11 -39 11 -60 -5z"/>
<path d="M24650 5273 c-47 -32 -73 -58 -86 -88 -8 -16 -24 -42 -36 -57 -17
-22 -21 -39 -19 -92 2 -62 0 -66 -23 -72 -44 -11 -50 -28 -21 -62 18 -21 25
-42 25 -70 0 -75 89 -196 160 -217 14 -4 41 -16 60 -27 29 -15 47 -17 105 -12
89 9 148 39 243 123 77 70 90 102 54 134 -26 23 -45 21 -72 -8 -13 -14 -29
-25 -36 -25 -7 0 -19 -7 -28 -15 -25 -25 -79 -44 -148 -51 -56 -6 -70 -3 -114
19 -53 27 -84 69 -84 112 0 26 2 27 39 22 31 -4 44 -1 57 14 9 10 27 19 38 19
12 0 36 9 54 20 18 11 44 20 57 20 14 0 56 17 95 37 67 35 69 38 72 77 3 34
-3 48 -32 84 -19 23 -40 42 -47 42 -7 0 -48 18 -90 41 -93 48 -181 61 -223 32z
m183 -162 c19 -19 -2 -39 -60 -56 -32 -9 -67 -20 -78 -24 -26 -9 -55 -3 -55
13 0 13 44 76 60 86 14 9 120 -6 133 -19z"/>
<path d="M25366 5215 c-45 -22 -76 -46 -93 -69 -13 -20 -28 -36 -33 -36 -6 0
-10 -11 -10 -25 0 -34 -26 -95 -48 -111 -19 -14 -21 -24 -26 -134 -2 -52 1
-81 11 -96 8 -13 11 -32 8 -46 -5 -20 1 -30 41 -61 l46 -36 39 22 c46 26 57
62 34 106 -19 38 -14 194 8 256 18 49 59 85 97 85 16 0 33 7 37 15 7 12 15 13
43 5 19 -6 78 -20 130 -30 l95 -20 18 25 c10 14 25 25 32 25 10 0 5 14 -16 44
-21 32 -38 46 -62 51 -17 4 -52 16 -76 27 -44 19 -133 38 -181 37 -14 0 -56
-15 -94 -34z"/>
<path d="M27816 3952 c-21 -41 -48 -151 -40 -164 4 -6 10 -66 14 -132 7 -115
29 -251 51 -324 6 -19 9 -36 6 -38 -3 -3 -40 -8 -84 -11 -60 -5 -81 -10 -91
-25 -7 -10 -25 -18 -41 -18 -32 0 -51 -16 -51 -45 0 -11 -9 -26 -20 -33 -22
-13 -22 -62 -1 -115 6 -16 11 -34 11 -42 0 -47 154 -155 222 -155 56 0 139
-28 167 -54 41 -40 89 -36 139 12 67 63 77 86 62 135 -18 56 -48 88 -80 86
-43 -2 -50 0 -61 25 -9 20 -7 29 12 55 l22 31 -23 72 c-13 40 -33 84 -45 98
-23 26 -48 129 -38 156 3 8 1 25 -5 37 -12 24 -20 85 -28 197 -5 83 8 150 36
175 15 13 16 21 6 48 -18 52 -24 57 -76 57 -44 0 -51 -3 -64 -28z m62 -834 c5
-7 10 -37 11 -66 0 -29 3 -57 6 -62 21 -34 -101 -8 -150 32 -39 33 -42 47 -19
83 14 22 23 25 79 25 38 0 66 -5 73 -12z"/>
<path d="M23455 3689 c-27 -5 -76 -11 -108 -14 -64 -5 -80 -12 -144 -61 -88
-67 -185 -179 -195 -225 -3 -13 -15 -57 -26 -98 -27 -105 -8 -160 98 -278 95
-106 183 -163 270 -177 127 -20 200 -19 272 4 40 12 82 26 93 30 49 21 68 21
108 2 104 -50 115 -53 132 -36 14 15 18 14 39 -9 38 -41 69 -56 126 -62 52 -5
58 -4 110 33 66 46 135 152 144 223 6 38 3 50 -16 74 -13 16 -30 47 -39 69
-22 54 -117 120 -196 136 -95 20 -213 -15 -289 -85 -24 -23 -53 -89 -61 -142
-10 -64 -110 -98 -283 -97 -122 0 -131 3 -235 63 -66 39 -111 90 -126 143 -17
63 -13 93 16 132 14 19 25 40 23 48 -1 7 12 34 29 59 25 36 50 56 114 89 75
39 90 43 173 47 113 5 136 15 136 58 0 35 -21 59 -60 70 -44 12 -54 12 -105 4z
m671 -532 c77 -33 108 -74 100 -132 -9 -70 -56 -115 -119 -115 -40 0 -50 7
-68 45 -13 27 -20 30 -66 33 -28 2 -56 8 -61 15 -30 36 44 128 124 153 52 16
57 16 90 1z"/>
<path d="M25009 3437 c-43 -32 -62 -54 -78 -93 -12 -29 -30 -59 -41 -69 -17
-16 -19 -15 -42 19 -31 45 -95 96 -120 96 -28 0 -118 -52 -118 -68 0 -8 -16
-33 -36 -57 -43 -53 -53 -85 -43 -145 4 -25 8 -80 8 -123 1 -76 2 -78 42 -122
l41 -44 33 16 c30 14 34 22 44 79 11 62 5 196 -9 224 -5 9 -1 25 12 43 l20 28
25 -27 c27 -29 46 -71 38 -84 -3 -4 11 -22 30 -39 69 -60 136 -30 164 74 6 23
19 50 29 61 10 11 22 32 26 47 4 16 18 33 32 39 24 11 29 9 50 -15 13 -16 24
-37 24 -48 0 -11 11 -36 23 -57 17 -25 26 -60 31 -110 9 -88 51 -161 95 -164
82 -5 102 9 79 55 -9 17 -19 43 -21 57 -13 64 -35 138 -49 165 -8 17 -27 69
-42 117 -23 72 -36 97 -75 138 -61 65 -92 66 -172 7z"/>
<path d="M25942 3450 c-44 -10 -80 -45 -104 -100 -29 -67 -57 -75 -76 -20 -6
16 -35 46 -67 70 -49 36 -62 41 -92 37 -43 -7 -59 -20 -92 -74 -25 -40 -26
-47 -26 -195 1 -209 10 -270 46 -304 41 -39 70 -28 103 41 29 63 33 100 12
141 -8 15 -13 32 -10 36 3 5 -2 18 -11 28 -14 16 -16 30 -10 75 7 59 24 77 50
55 8 -7 15 -20 15 -29 0 -30 59 -90 95 -97 38 -7 105 14 105 33 0 7 9 18 20
25 11 7 20 24 20 38 0 15 11 32 25 42 23 17 24 17 44 -8 11 -14 27 -49 36 -77
9 -29 20 -60 26 -69 5 -10 9 -25 9 -35 0 -9 4 -30 10 -47 5 -17 12 -42 14 -56
4 -17 19 -34 45 -48 l39 -22 36 41 36 42 61 -33 c55 -29 66 -31 117 -25 49 6
60 12 91 47 20 22 45 50 56 62 11 11 27 34 35 50 8 16 23 34 33 40 15 9 22 6
40 -18 80 -105 136 -139 167 -101 15 18 5 70 -21 106 -10 14 -26 47 -36 73
-11 25 -42 73 -71 106 l-53 60 11 42 c10 37 10 44 -6 55 -23 16 -108 7 -144
-16 -39 -24 -114 -81 -125 -94 -5 -7 -38 -36 -72 -65 -35 -30 -63 -58 -63 -63
0 -5 -9 -29 -21 -53 -20 -44 -27 -66 -28 -96 -2 -26 -30 25 -41 73 -5 26 -18
66 -29 89 -10 24 -29 76 -42 117 -17 53 -33 81 -57 102 -34 30 -45 32 -100 19z
m566 -261 c1 -8 -13 -32 -33 -54 -19 -22 -39 -46 -45 -52 -15 -18 -59 -16 -66
2 -9 21 56 93 84 94 12 1 25 8 29 16 7 19 27 15 31 -6z"/>
<path d="M27075 3451 c-42 -13 -81 -41 -120 -86 -51 -60 -59 -96 -63 -287 -2
-62 -5 -78 -17 -78 -20 0 -20 -49 0 -56 10 -4 13 -14 9 -29 -5 -21 -1 -25 46
-39 44 -13 57 -14 79 -3 14 7 24 20 22 28 -10 41 -19 175 -14 221 4 29 7 62 7
73 1 11 9 26 19 33 9 7 17 21 17 31 0 46 65 55 113 15 17 -14 45 -44 62 -67
37 -48 95 -175 95 -206 0 -36 26 -86 53 -104 19 -12 38 -15 76 -10 28 3 51 10
51 16 0 20 -24 93 -35 107 -18 22 -55 110 -55 131 0 10 -5 21 -10 24 -6 4 -20
26 -31 50 -21 45 -133 178 -180 214 -27 21 -90 32 -124 22z"/>
<path d="M16295 6239 c-49 -11 -82 -29 -160 -87 -105 -79 -135 -112 -135 -150
0 -18 6 -45 14 -61 16 -31 121 -131 138 -131 17 0 127 -74 127 -86 1 -7 -15
-24 -34 -38 -34 -26 -36 -26 -66 -10 -23 11 -44 14 -75 9 -99 -14 -81 -114 28
-159 42 -18 114 -21 123 -6 3 6 19 10 34 10 35 0 111 48 145 92 20 27 26 46
26 85 0 46 -3 54 -40 86 -21 20 -58 46 -82 58 -24 12 -71 42 -105 67 -79 58
-82 79 -15 106 26 10 54 24 62 31 8 7 31 15 51 18 19 3 58 16 87 30 l51 25 33
-23 c18 -12 51 -25 73 -29 22 -4 60 -11 84 -15 50 -9 57 -18 71 -88 20 -92 21
-174 3 -246 -20 -84 -12 -115 36 -139 30 -15 37 -15 61 -3 22 11 29 24 36 62
4 26 8 50 9 53 1 3 7 25 14 50 15 51 10 184 -10 250 -17 55 -6 64 79 61 53 -2
73 2 86 14 27 27 31 63 10 87 -37 41 -81 51 -249 55 -94 3 -184 10 -218 19
-53 14 -61 13 -84 -1 -22 -15 -28 -15 -70 -1 -51 18 -78 18 -138 5z"/>
<path d="M15000 6183 c-76 -3 -88 -7 -112 -30 -38 -36 -38 -86 -1 -125 17 -17
37 -28 54 -28 15 0 31 -5 35 -12 11 -18 25 -85 33 -163 7 -62 6 -72 -11 -84
-23 -17 -23 -48 2 -89 14 -23 21 -56 24 -113 6 -109 25 -179 48 -179 36 0 128
41 129 58 3 37 -3 68 -17 89 -16 26 -19 84 -7 128 8 25 24 38 94 73 46 23 109
65 139 92 30 28 65 50 76 50 20 0 21 -3 13 -42 -6 -23 -12 -45 -14 -49 -3 -4
-1 -18 4 -31 5 -12 11 -50 14 -84 3 -33 9 -74 13 -90 10 -40 72 -112 116 -135
37 -19 38 -19 70 1 18 11 45 20 60 20 15 0 38 4 51 9 35 14 157 136 157 158 0
10 9 32 20 48 22 33 28 131 11 163 -6 9 -19 43 -31 75 -19 54 -78 157 -90 157
-3 0 -18 11 -34 25 -39 34 -105 42 -161 20 -25 -9 -45 -20 -45 -25 0 -4 -11
-11 -24 -14 -15 -4 -33 -22 -47 -51 -13 -25 -28 -46 -32 -47 -5 -2 -15 15 -22
36 -23 65 -77 108 -190 149 -107 38 -172 46 -325 40z m243 -168 c71 -6 117
-26 117 -52 0 -18 -27 -42 -97 -88 -28 -19 -54 -39 -58 -45 -11 -18 -42 -10
-53 14 -6 13 -14 60 -18 105 l-7 82 24 -5 c13 -3 55 -7 92 -11z m543 -76 c54
-33 108 -173 75 -193 -4 -3 -11 -23 -15 -44 -3 -21 -15 -49 -26 -62 -11 -13
-20 -26 -20 -30 0 -10 -75 -40 -99 -40 -11 0 -29 12 -40 26 -18 23 -20 37 -17
127 3 86 7 111 30 159 25 53 47 77 70 78 5 0 24 -9 42 -21z"/>
<path d="M19035 6114 c-16 -8 -37 -21 -45 -29 -8 -7 -35 -21 -60 -31 -70 -27
-87 -42 -120 -103 -31 -55 -31 -57 -15 -87 19 -36 153 -131 230 -164 67 -29
78 -39 64 -56 -9 -11 -35 -13 -121 -9 -81 4 -112 2 -121 -7 -14 -15 -47 -65
-47 -72 0 -3 24 -21 54 -41 45 -30 67 -37 123 -42 59 -5 80 -1 160 26 50 17
97 31 104 31 6 0 31 -17 54 -37 65 -58 125 -98 174 -117 76 -30 230 -19 285
20 11 8 28 14 37 14 9 0 33 20 53 45 40 48 75 58 105 31 33 -29 95 -24 118 10
16 25 16 28 -6 68 -22 40 -23 45 -11 134 6 51 10 99 7 106 -3 8 9 24 26 37 18
12 38 31 45 41 7 10 22 18 32 18 10 0 22 5 25 10 3 6 27 10 51 10 48 0 83 26
84 62 0 32 -67 61 -149 65 -74 4 -77 3 -124 -32 -56 -42 -110 -113 -104 -137
4 -12 -6 -24 -27 -37 -18 -11 -41 -29 -51 -41 -17 -19 -17 -21 1 -67 18 -47
26 -174 13 -188 -4 -3 -23 1 -44 9 -36 15 -36 15 -70 -19 -42 -42 -79 -50
-191 -40 -82 7 -88 9 -125 45 -21 21 -39 42 -39 48 0 5 28 15 63 22 76 15 137
41 174 76 15 15 42 33 59 40 48 20 57 37 52 100 -6 65 -17 79 -105 124 -81 41
-153 44 -233 10 -58 -26 -120 -79 -120 -104 0 -8 -11 -34 -25 -57 -14 -24 -25
-52 -25 -61 0 -24 -26 -23 -48 3 -9 11 -48 36 -85 55 -89 45 -136 82 -130 104
4 16 29 29 140 76 78 32 78 99 0 134 -51 24 -54 24 -92 4z m512 -285 c16 -6
22 -13 16 -16 -7 -3 -13 -12 -13 -20 0 -25 -31 -42 -75 -43 -44 0 -65 13 -65
42 0 12 11 19 35 24 19 3 35 10 35 15 0 12 33 11 67 -2z"/>
<path d="M18629 6071 c-31 -28 -49 -53 -58 -83 -7 -24 -17 -47 -21 -53 -5 -5
-11 -38 -13 -72 -8 -87 -37 -175 -56 -171 -34 7 -50 74 -37 157 4 32 2 49 -9
61 -10 11 -13 27 -9 51 18 100 17 119 -4 119 -11 0 -45 -12 -76 -26 -41 -18
-56 -31 -56 -45 0 -11 -5 -30 -12 -42 -24 -46 -21 -98 17 -243 37 -139 39
-145 74 -166 66 -41 96 -48 157 -36 35 7 58 17 61 27 3 9 18 43 33 76 34 75
56 155 81 294 7 36 20 66 39 88 44 49 39 72 -19 91 -45 16 -40 17 -92 -27z"/>
<path d="M37365 6072 c-22 -33 -25 -51 -29 -147 -2 -61 -5 -114 -7 -120 -1 -5
1 -46 6 -90 4 -44 9 -93 10 -110 1 -16 7 -54 12 -83 7 -39 7 -55 -1 -57 -6 -2
-38 -12 -71 -21 -103 -29 -190 -99 -215 -173 -12 -38 -12 -45 3 -71 24 -40 22
-42 -22 -24 -44 18 -65 11 -114 -35 -25 -23 -37 -26 -94 -26 -44 0 -68 4 -70
13 -3 7 4 12 16 12 11 0 41 11 67 25 26 14 53 25 60 25 7 0 35 26 63 57 65 73
68 106 13 178 -45 60 -70 66 -205 54 -104 -10 -157 -36 -211 -102 -28 -35 -31
-47 -34 -122 -5 -99 6 -126 79 -208 32 -36 60 -58 80 -62 17 -4 47 -16 66 -28
33 -19 36 -19 69 -3 19 9 46 16 61 16 31 0 139 53 174 86 37 36 90 30 159 -17
30 -20 83 -19 178 4 58 14 140 50 152 66 3 4 28 22 57 40 53 35 77 72 71 113
-2 17 -10 24 -30 26 -16 2 -28 8 -28 13 0 5 -16 32 -35 59 -19 27 -35 55 -35
60 0 6 -12 23 -26 37 -19 19 -25 33 -21 56 2 16 0 50 -6 76 -5 25 -10 144 -11
264 -3 244 -7 257 -72 257 -28 0 -38 -7 -59 -38z m65 -812 c22 -11 40 -25 40
-30 0 -6 -1 -10 -3 -10 -2 0 -29 -5 -61 -11 -92 -17 -157 16 -114 59 19 19 95
14 138 -8z"/>
<path d="M20555 6064 c-27 -13 -55 -24 -62 -24 -7 0 -29 -9 -49 -21 -138 -77
-165 -153 -85 -241 20 -22 56 -49 81 -60 67 -29 150 -81 150 -94 0 -26 -32
-38 -97 -36 -57 2 -69 -1 -99 -23 -48 -37 -48 -82 0 -119 30 -23 43 -26 107
-25 51 1 82 7 106 20 18 11 42 19 53 19 32 0 97 52 116 92 12 26 15 49 10 77
-10 67 -25 89 -64 96 -20 4 -42 15 -49 25 -7 9 -26 20 -43 24 -18 3 -44 15
-60 26 -15 11 -32 20 -37 20 -4 0 -16 12 -27 26 -15 22 -16 28 -5 39 18 16 85
34 181 49 42 6 79 14 83 17 15 15 14 61 -1 85 -38 58 -124 69 -209 28z"/>
<path d="M36185 6020 c-26 -27 -27 -31 -15 -60 7 -17 18 -34 24 -38 30 -20 54
-94 62 -192 2 -30 5 -64 7 -75 2 -19 -4 -20 -113 -22 l-115 -1 -32 -36 c-18
-20 -33 -44 -33 -54 0 -32 97 -69 235 -90 l50 -8 1 -59 c0 -33 -6 -74 -13 -92
-7 -18 -13 -44 -13 -58 0 -30 -16 -32 -50 -5 -14 11 -30 20 -37 20 -26 0 -89
54 -127 108 -23 31 -50 64 -60 73 -16 13 -20 27 -17 62 4 65 -24 92 -87 83
-24 -3 -55 -6 -67 -6 -14 0 -26 -9 -33 -25 -7 -14 -24 -31 -39 -37 -79 -34
-293 -213 -293 -245 0 -6 10 -22 21 -37 25 -32 19 -44 -16 -28 -34 16 -67 15
-107 -2 -18 -8 -49 -21 -70 -30 -62 -27 -222 -17 -204 13 3 5 25 11 48 15 78
12 161 48 220 95 32 25 58 52 58 59 0 7 12 24 27 37 l28 23 -28 22 c-19 15
-27 31 -27 52 0 39 -39 78 -115 112 -88 41 -176 32 -240 -24 -11 -10 -30 -21
-42 -24 -12 -4 -38 -31 -58 -61 -20 -30 -40 -55 -45 -55 -5 0 -11 -14 -15 -30
-4 -17 -17 -58 -31 -91 l-23 -61 24 -36 c14 -20 25 -43 25 -52 0 -8 17 -39 38
-68 31 -45 46 -57 92 -74 96 -34 112 -38 131 -28 10 6 42 10 71 10 57 0 85 11
74 29 -5 7 4 11 24 11 17 0 47 8 68 17 20 9 48 19 62 23 16 3 26 13 28 27 6
44 28 49 92 18 46 -22 67 -27 104 -23 61 7 163 62 204 109 19 22 38 39 44 39
5 0 36 -25 68 -56 54 -51 63 -56 114 -61 72 -7 100 1 114 32 17 36 30 31 43
-17 22 -85 34 -102 78 -115 55 -17 58 -17 78 14 13 19 18 49 20 103 1 83 25
258 36 278 5 7 31 12 66 12 63 0 111 25 111 59 0 30 -61 78 -110 86 -65 10
-82 22 -79 53 3 38 -8 112 -33 212 -28 118 -34 131 -75 168 -48 42 -89 43
-128 2z m-968 -571 c20 -17 16 -37 -9 -45 -13 -4 -38 -20 -56 -36 -31 -26 -38
-28 -80 -22 -74 10 -78 16 -30 55 83 68 134 82 175 48z"/>
<path d="M12390 5956 c-130 -10 -163 -11 -425 -7 -115 1 -300 0 -410 -4 -110
-3 -319 -8 -465 -10 -292 -4 -374 -9 -437 -23 -23 -5 -90 -10 -149 -11 -59 -1
-111 -4 -116 -7 -9 -6 -305 -8 -323 -3 -5 2 -23 0 -40 -4 -16 -3 -86 -9 -155
-12 -68 -4 -127 -8 -131 -11 -18 -11 -308 -33 -514 -38 -65 -2 -121 -8 -122
-13 -2 -5 -28 -6 -61 -3 -94 11 -315 0 -363 -18 -13 -5 -78 -15 -144 -21 -66
-7 -145 -16 -175 -21 -30 -4 -118 -7 -195 -5 -161 4 -196 -7 -233 -74 -34 -60
-38 -108 -13 -141 11 -16 21 -34 21 -40 0 -6 7 -24 15 -40 11 -21 16 -79 20
-227 5 -175 9 -238 15 -238 2 0 3 -58 4 -130 2 -134 12 -216 27 -226 5 -3 11
-48 14 -100 7 -150 15 -234 36 -363 11 -67 21 -170 23 -231 4 -100 12 -233 21
-325 2 -19 4 -73 5 -120 0 -46 5 -90 11 -96 5 -7 8 -42 6 -78 -3 -36 -1 -68 3
-71 5 -3 9 -47 9 -98 2 -99 3 -116 13 -132 10 -17 20 -108 23 -222 2 -59 7
-160 10 -223 10 -180 9 -277 -5 -385 -6 -55 -11 -183 -11 -285 2 -422 1 -441
-12 -468 -52 -101 -51 -101 -33 -121 30 -33 132 -54 204 -44 34 6 92 8 129 6
239 -13 603 -16 853 -7 323 11 418 12 466 3 27 -5 85 -11 129 -14 44 -2 132
-8 195 -14 63 -5 180 -11 260 -12 80 -1 164 -8 188 -15 23 -7 76 -12 118 -13
41 0 135 -5 207 -11 73 -5 152 -10 177 -10 84 -2 254 -3 605 -6 193 -1 359 -3
370 -4 25 -1 475 9 610 14 147 6 356 25 385 36 14 5 34 8 45 8 25 -2 124 10
190 22 188 36 301 52 330 47 19 -3 49 -2 67 3 18 5 73 11 121 15 49 3 97 10
107 15 17 9 62 13 276 24 44 3 150 -1 235 -7 135 -11 159 -10 184 3 17 8 31
16 33 16 1 1 -7 35 -18 75 -37 128 -38 138 -46 349 -5 163 -4 211 6 231 28 50
31 901 6 1499 -1 36 -4 108 -6 160 -2 91 -21 238 -36 283 -4 12 -7 54 -6 92 1
39 -3 97 -9 130 -18 101 -18 106 -24 249 -3 76 -8 142 -10 146 -5 7 -22 192
-32 340 -2 36 -6 142 -8 235 -6 276 -16 509 -23 519 -3 6 -7 42 -9 81 -7 127
-9 144 -26 163 -17 19 -112 46 -127 37 -12 -7 -123 -7 -305 1 -88 4 -194 7
-235 7 -651 -5 -1015 -5 -1105 -2 -60 2 -157 0 -215 -5z m1560 -183 c222 -5
266 -11 294 -42 17 -19 28 -173 40 -541 3 -91 8 -179 10 -196 3 -17 2 -44 -3
-60 -4 -16 -4 -47 0 -69 5 -22 13 -103 19 -180 6 -77 13 -158 15 -180 3 -22 9
-116 14 -210 6 -93 17 -208 25 -255 19 -104 33 -262 35 -395 1 -55 6 -118 11
-140 5 -22 9 -105 10 -185 5 -311 3 -808 -2 -860 -4 -30 -3 -98 1 -150 4 -52
4 -99 0 -105 -3 -5 -10 -24 -13 -42 -7 -30 -9 -366 -4 -546 l3 -87 -180 -6
c-99 -3 -198 -9 -221 -14 -43 -10 -265 -33 -298 -32 -11 1 -26 -3 -35 -8 -9
-4 -41 -9 -71 -11 -30 -1 -71 -8 -90 -14 -19 -7 -77 -15 -129 -19 -51 -4 -119
-14 -150 -22 -31 -8 -74 -15 -96 -15 -21 0 -66 -7 -100 -14 -33 -8 -96 -15
-140 -15 -44 0 -111 -5 -150 -10 -57 -7 -388 -10 -940 -7 -38 0 -88 -3 -110
-6 -22 -3 -170 -6 -330 -5 -159 0 -303 0 -320 -1 -16 -1 -66 3 -110 8 -44 6
-120 13 -170 16 -49 3 -119 10 -155 15 -36 6 -136 14 -223 19 -87 5 -204 14
-260 20 -90 9 -226 19 -519 38 -57 3 -99 1 -120 -7 -41 -15 -188 -20 -293 -9
-95 10 -284 21 -305 19 -8 -1 -130 -1 -270 -1 -205 1 -257 4 -268 15 -11 10
-14 36 -11 98 3 94 4 328 1 373 -2 34 2 124 13 265 13 163 6 486 -13 610 -6
36 -13 103 -17 150 -3 47 -10 101 -15 120 -5 20 -9 65 -9 100 1 36 -6 133 -15
215 -14 126 -20 271 -15 385 3 77 -21 360 -37 427 -8 34 -14 79 -14 100 0 21
-4 53 -9 70 -5 18 -6 35 -1 38 4 3 4 20 0 38 -20 78 -29 157 -26 217 3 36 0
92 -4 125 -30 200 -47 604 -31 700 l7 40 64 12 c36 7 99 17 140 22 41 6 86 13
100 16 14 3 57 8 95 11 39 3 84 7 100 9 75 10 164 15 355 20 113 2 221 7 240
10 77 11 250 24 330 24 47 1 101 6 120 11 19 6 100 13 180 16 80 3 161 9 180
13 19 5 89 9 155 10 66 1 206 9 310 17 105 9 291 17 415 20 1463 24 1362 23
2200 21 266 0 460 3 500 10 36 6 72 8 80 6 8 -3 112 -7 230 -10z"/>
<path d="M9508 5235 c-21 -18 -38 -43 -38 -53 0 -11 -7 -25 -15 -32 -8 -6 -14
-15 -13 -18 1 -4 -3 -17 -10 -29 -7 -13 -10 -23 -7 -23 3 0 -15 -40 -40 -88
-25 -49 -45 -93 -45 -99 0 -6 -6 -16 -14 -22 -8 -7 -17 -30 -21 -51 -4 -21
-13 -44 -21 -51 -8 -6 -14 -27 -14 -45 0 -19 -4 -34 -9 -34 -5 0 -15 -16 -21
-36 -7 -19 -19 -38 -27 -41 -8 -3 -12 -11 -10 -17 3 -7 -10 -37 -29 -66 -19
-30 -34 -62 -34 -73 0 -18 -17 -57 -29 -67 -14 -12 -61 -80 -61 -88 0 -6 -5
-12 -12 -14 -8 -3 -12 -21 -11 -48 3 -54 33 -90 78 -90 28 0 37 7 67 53 19 28
50 84 69 123 46 96 62 105 186 103 63 -1 119 4 156 15 77 21 124 21 136 -2 5
-10 12 -38 16 -62 4 -25 21 -79 39 -120 18 -41 38 -102 45 -135 25 -118 124
-177 175 -103 22 32 21 43 -19 106 -19 32 -49 100 -65 152 -17 52 -35 99 -40
105 -4 5 -10 32 -11 58 l-3 48 54 32 c51 31 90 38 90 16 0 -5 13 -21 29 -35
24 -21 31 -37 37 -87 13 -102 11 -140 -8 -179 l-18 -37 37 -36 c40 -39 49 -41
97 -21 30 13 34 19 45 77 10 54 10 70 -3 101 -9 20 -13 43 -10 51 2 7 0 33 -5
57 -11 50 4 92 35 96 110 17 271 71 295 100 6 8 18 14 25 14 37 0 57 83 45
182 -7 53 -15 73 -37 96 -30 31 -160 103 -210 117 -49 14 -56 15 -160 29 -98
14 -136 11 -211 -12 -18 -6 -33 -8 -33 -6 0 8 -52 -31 -83 -61 -32 -33 -34
-53 -7 -88 14 -18 37 -29 78 -38 31 -7 62 -16 68 -21 6 -4 14 -41 17 -82 4
-62 2 -81 -15 -115 -11 -23 -21 -41 -22 -41 -1 0 -19 9 -41 20 -22 11 -49 20
-62 20 -12 0 -25 5 -28 10 -3 6 -15 10 -25 10 -15 0 -24 15 -40 73 -12 39 -23
79 -26 87 -3 8 -8 39 -10 69 -3 30 -8 59 -13 65 -5 6 -25 63 -45 127 -59 189
-108 229 -188 154z m85 -317 c9 -24 19 -56 23 -73 4 -16 8 -32 9 -35 1 -3 5
-21 9 -40 4 -19 14 -54 22 -78 8 -23 14 -46 14 -51 0 -13 -139 -51 -203 -55
-52 -4 -59 -2 -73 19 -14 21 -14 27 0 53 9 17 23 52 32 79 9 26 25 60 35 75
11 14 19 33 19 42 0 9 5 16 10 16 6 0 16 12 22 28 11 26 45 61 60 62 3 0 13
-19 21 -42z m790 -66 c48 -34 81 -77 74 -97 -3 -7 -17 -15 -32 -19 -15 -4 -49
-18 -77 -31 -60 -29 -132 -35 -154 -13 -13 13 -33 108 -34 161 0 9 13 25 30
35 27 17 36 17 89 6 33 -6 79 -25 104 -42z"/>
<path d="M11015 5051 c-2 -2 -64 -10 -137 -17 -144 -15 -213 -33 -246 -64 -25
-24 -18 -53 22 -94 26 -25 26 -25 187 -23 l161 2 4 -40 c7 -76 5 -190 -6 -265
-5 -41 -11 -110 -13 -152 -2 -43 -7 -82 -12 -86 -6 -5 -39 -6 -75 -2 -77 9
-109 -6 -123 -59 -15 -58 20 -79 168 -102 67 -11 141 -7 315 18 25 3 117 8
204 10 180 5 192 9 214 74 14 44 9 57 -28 60 -8 1 -26 3 -40 6 -14 2 -122 4
-240 4 l-215 -1 -13 29 c-8 17 -10 49 -7 82 12 119 35 407 35 436 0 28 12 32
140 39 l109 7 6 28 c4 16 2 44 -4 62 -11 32 -15 35 -79 46 -59 10 -318 12
-327 2z"/>
<path d="M10750 3434 c-8 -1 -32 -5 -52 -9 -45 -7 -47 -19 -18 -97 20 -56 38
-130 46 -188 2 -19 9 -48 14 -65 5 -16 12 -51 16 -77 7 -56 18 -52 -136 -52
l-94 -1 -18 -50 c-10 -27 -17 -58 -16 -68 3 -18 54 -44 103 -52 11 -2 53 -9
93 -16 40 -7 75 -16 79 -21 3 -6 9 -55 14 -111 4 -56 11 -126 14 -154 3 -29 1
-53 -4 -53 -5 0 -36 18 -69 40 -33 22 -64 40 -69 40 -22 0 -122 138 -175 240
-37 72 -43 92 -41 132 3 40 1 49 -18 59 -57 30 -168 3 -331 -83 -94 -49 -218
-124 -240 -145 -37 -35 -72 -142 -58 -178 6 -15 10 -38 10 -53 0 -21 13 -36
58 -70 l57 -43 70 6 c38 3 74 10 79 15 6 6 22 10 38 10 30 0 94 58 160 147 21
29 48 58 60 64 13 7 29 18 37 26 12 12 19 6 51 -44 33 -51 92 -122 171 -204
19 -21 40 -29 84 -34 43 -6 60 -4 63 4 6 17 51 61 62 61 6 0 10 -7 10 -15 0
-19 71 -55 107 -55 18 1 35 10 47 26 17 24 17 30 4 87 -9 35 -15 114 -16 182
l-1 121 40 17 c21 9 60 17 87 17 67 0 132 22 146 49 17 31 8 79 -18 93 -13 7
-67 11 -139 10 -133 -1 -138 2 -151 87 -4 24 -15 72 -26 105 -11 34 -22 72
-25 86 -6 31 -54 180 -64 199 -8 16 -18 20 -41 15z m-586 -770 c10 -26 -53
-94 -123 -133 -35 -19 -47 -21 -67 -12 -13 6 -24 18 -24 27 0 33 92 101 170
125 36 11 37 11 44 -7z"/>
<path d="M9555 3369 c-22 -5 -60 -12 -85 -16 -25 -3 -47 -9 -50 -12 -9 -11
-75 -40 -100 -44 -66 -11 -90 -22 -135 -63 -27 -24 -52 -44 -55 -44 -17 0
-146 -140 -187 -203 -73 -112 -90 -154 -88 -217 2 -57 23 -130 37 -130 4 0 8
-17 8 -38 0 -32 7 -45 43 -78 23 -22 61 -49 85 -59 23 -10 47 -24 53 -32 6 -7
19 -13 28 -13 10 0 39 -11 67 -25 64 -31 211 -55 267 -43 136 31 166 46 259
134 37 35 49 54 59 98 11 52 11 55 -27 132 -53 110 -119 173 -211 201 -169 52
-178 53 -277 48 -90 -4 -96 -3 -96 15 0 11 6 20 13 20 8 0 19 11 25 24 6 14
24 33 39 43 15 10 30 20 33 23 3 3 19 12 35 20 17 8 37 20 45 26 8 7 49 26 90
44 41 18 83 36 94 42 10 5 46 14 80 19 96 15 168 41 161 57 -3 7 -5 20 -5 28
0 37 -122 62 -205 43z m-163 -580 c29 -5 69 -19 89 -30 20 -10 44 -19 53 -19
8 0 20 -9 26 -19 5 -11 17 -27 26 -36 11 -11 14 -23 8 -43 -4 -15 -7 -32 -6
-38 1 -5 -35 -29 -81 -53 -82 -42 -83 -42 -164 -36 -97 7 -190 34 -237 70 -37
28 -76 100 -76 140 0 22 4 25 38 25 20 0 57 6 82 14 113 36 162 41 242 25z"/>
<path d="M13135 2996 c-16 -7 -88 -52 -158 -100 -70 -47 -132 -86 -137 -86 -5
0 -14 -9 -20 -20 -6 -11 -16 -20 -22 -20 -28 0 -88 -115 -88 -169 0 -52 14
-81 57 -117 65 -54 204 -78 220 -38 3 8 9 14 14 14 10 0 47 30 100 81 l37 36
26 -24 c14 -13 31 -44 37 -68 8 -30 22 -54 43 -70 17 -14 37 -30 44 -36 9 -7
21 -5 42 8 17 9 30 20 31 23 6 41 -3 70 -57 177 -63 125 -92 197 -101 254 -3
24 1 35 16 46 16 10 21 25 21 57 0 23 -5 47 -12 54 -16 16 -55 15 -93 -2z
m-135 -343 c0 -10 -11 -31 -24 -48 -21 -27 -26 -28 -50 -17 -31 14 -27 29 17
60 38 27 57 28 57 5z"/>
<path d="M13930 2963 c-23 -27 -50 -64 -60 -84 -10 -19 -25 -41 -33 -48 -8 -6
-18 -26 -21 -44 -3 -18 -25 -53 -50 -81 -38 -41 -47 -46 -64 -37 -12 6 -28 11
-38 11 -26 0 -76 43 -107 91 -16 24 -40 52 -54 63 -22 16 -28 17 -51 5 -40
-20 -82 -61 -82 -80 0 -22 140 -166 203 -208 67 -45 67 -43 -46 -226 -14 -23
-65 -89 -96 -124 -11 -13 -21 -28 -21 -32 0 -4 -22 -37 -49 -73 -27 -36 -55
-82 -63 -103 -7 -21 -15 -40 -18 -43 -3 -3 -7 -12 -9 -20 -14 -53 -12 -58 23
-85 45 -34 66 -30 90 20 11 22 30 50 43 62 13 12 23 27 23 34 0 15 53 99 63
99 4 0 7 6 7 14 0 7 12 27 28 43 15 17 38 50 52 73 14 24 30 48 35 54 6 6 16
23 23 37 8 14 27 41 42 59 16 19 37 50 47 69 10 20 24 42 31 49 6 7 12 17 12
22 0 5 6 15 13 22 16 16 107 177 107 189 0 11 82 131 110 161 53 57 68 141 28
152 -55 14 -76 7 -118 -41z"/>
<path d="M11913 2964 c-6 -3 -22 -26 -34 -51 -20 -41 -21 -50 -10 -77 7 -17
20 -60 28 -96 8 -36 19 -74 25 -86 5 -11 9 -27 8 -35 -4 -25 0 -37 14 -51 7
-8 23 -33 34 -55 22 -42 96 -113 118 -113 6 0 17 -7 24 -15 23 -28 78 -19 116
19 19 19 34 41 34 50 0 27 53 94 73 93 11 -1 27 -17 38 -39 31 -61 147 -103
179 -65 50 59 115 181 104 198 -3 5 -1 15 4 22 5 7 12 40 16 75 3 35 10 72 16
82 6 11 13 39 16 62 3 24 7 47 8 52 2 13 -44 36 -72 36 -59 0 -123 -88 -121
-166 1 -22 -2 -59 -6 -84 -12 -81 -40 -90 -94 -32 -58 61 -92 81 -136 79 -39
-2 -40 -3 -71 -72 -18 -38 -38 -85 -44 -102 -18 -49 -42 -42 -73 21 -15 30
-27 67 -27 83 0 15 -10 48 -21 72 -11 26 -19 62 -18 85 3 51 -14 79 -61 100
-38 17 -47 18 -67 10z"/>
<path d="M11490 2934 c-8 -3 -47 -21 -86 -40 -60 -30 -74 -42 -92 -80 -12 -24
-22 -46 -23 -49 0 -2 -6 -26 -13 -53 -22 -82 -6 -187 33 -221 12 -10 21 -25
21 -33 0 -21 79 -82 159 -124 70 -36 74 -37 144 -29 40 4 79 7 87 7 31 0 168
47 203 70 50 32 54 48 17 80 -24 23 -40 28 -80 28 -27 0 -61 -5 -77 -11 -36
-14 -196 -13 -223 1 -31 16 -21 40 23 55 20 7 52 24 71 39 19 14 37 26 39 26
3 0 21 15 42 34 20 19 49 39 64 46 40 16 48 37 42 110 -4 46 -12 72 -26 86
-45 47 -67 54 -191 59 -65 3 -126 2 -134 -1z m149 -160 c13 -12 -20 -41 -70
-61 -87 -35 -139 -38 -139 -9 0 16 65 66 87 66 10 0 24 4 31 9 13 8 82 5 91
-5z"/>
<path d="M33047 5937 l-29 -24 26 -52 c15 -28 28 -63 31 -79 7 -45 23 -116 30
-135 13 -33 -13 -47 -89 -47 -65 0 -76 -3 -114 -31 -63 -46 -57 -72 23 -109
36 -17 69 -24 120 -24 l70 -1 1 -115 c0 -108 4 -140 24 -200 5 -14 11 -37 14
-51 11 -50 94 -66 122 -24 13 21 15 38 10 88 -27 238 -31 292 -19 310 3 6 33
7 73 3 84 -7 114 11 124 75 9 55 -4 69 -68 69 -60 1 -134 14 -146 26 -5 5 -12
32 -14 59 -6 60 -38 175 -48 175 -5 0 -8 13 -8 29 0 68 -80 102 -133 58z"/>
<path d="M34145 5910 c-22 -10 -52 -19 -66 -19 -31 -1 -132 -66 -187 -120
-100 -98 -155 -172 -203 -271 -48 -97 -51 -107 -45 -158 4 -30 12 -64 18 -75
22 -41 111 -147 129 -152 9 -3 33 -18 52 -34 80 -63 306 -77 495 -30 88 21 94
22 128 6 49 -24 58 -22 77 17 11 25 15 56 13 108 -1 40 2 87 8 103 17 48 60
105 78 105 9 0 20 5 23 10 3 6 18 10 32 10 13 0 37 6 51 14 15 8 39 19 55 25
34 13 34 31 1 62 -24 22 -32 24 -117 21 -118 -3 -162 -16 -184 -50 -15 -23
-41 -59 -72 -97 -4 -6 -11 -28 -15 -48 -4 -23 -13 -37 -21 -37 -8 0 -15 -4
-15 -9 0 -21 -62 -101 -78 -102 -9 0 -69 -4 -132 -9 -166 -12 -232 5 -318 85
-52 47 -65 79 -51 123 16 49 37 91 66 126 13 15 30 43 38 61 7 19 24 39 37 45
12 7 37 25 53 40 39 36 111 75 155 84 33 7 120 90 120 115 0 20 -53 72 -73 70
-7 0 -30 -9 -52 -19z"/>
<path d="M29886 5827 c-39 -29 -77 -120 -81 -197 -7 -130 -58 -269 -119 -328
-66 -62 -68 -69 -39 -115 22 -36 23 -40 9 -56 -9 -10 -16 -27 -16 -37 0 -11
-13 -36 -30 -54 -16 -18 -30 -42 -30 -51 0 -10 -4 -20 -9 -24 -10 -6 -41 -63
-41 -75 0 -4 10 -19 23 -33 18 -21 32 -27 62 -27 22 0 49 7 59 15 10 8 24 12
29 8 6 -4 8 0 5 8 -3 8 -1 25 5 39 25 61 37 96 37 113 0 19 17 53 38 75 6 7
12 20 12 29 0 23 39 53 69 54 14 0 40 2 56 5 132 18 133 18 163 -14 16 -17 29
-36 29 -44 0 -7 7 -34 14 -60 11 -41 11 -51 -6 -87 -10 -23 -16 -43 -14 -44
12 -10 92 -37 109 -37 23 0 60 50 60 83 0 13 -4 37 -9 53 -29 99 -44 185 -33
196 21 21 13 38 -37 88 -27 27 -51 61 -54 77 -12 64 -26 102 -60 171 -21 40
-37 79 -37 85 0 7 -9 30 -20 52 -11 22 -20 47 -20 55 0 22 -69 90 -90 90 -9 0
-24 -6 -34 -13z m100 -342 c12 -18 24 -47 27 -66 3 -19 9 -47 13 -63 l7 -29
-68 6 c-76 7 -99 20 -85 47 5 9 7 20 3 23 -3 4 2 18 11 31 9 14 16 32 16 41 0
9 7 30 16 48 16 29 18 30 28 13 6 -10 21 -33 32 -51z"/>
<path d="M32667 5485 c-50 -19 -96 -55 -96 -77 -1 -32 -20 -19 -31 22 -7 27
-16 40 -28 40 -9 0 -26 3 -38 6 -14 4 -36 -7 -72 -36 -43 -34 -52 -46 -52 -73
0 -32 -56 -118 -91 -140 -21 -13 -89 0 -96 19 -3 8 4 25 15 37 11 12 26 35 32
51 9 26 8 32 -16 57 -55 57 -136 47 -172 -22 -12 -23 -22 -54 -22 -69 0 -16
-4 -31 -9 -35 -10 -6 -61 54 -61 71 0 6 -17 27 -38 47 -39 39 -118 67 -186 67
-69 0 -236 -113 -236 -160 0 -9 -4 -20 -10 -26 -5 -5 -11 -36 -12 -69 -4 -63
-8 -68 -46 -54 -31 12 -76 11 -88 -1 -15 -15 -96 -23 -149 -16 -62 10 -115 56
-115 100 0 33 25 66 49 66 19 0 91 42 91 52 0 5 14 14 30 20 17 6 28 15 25 22
-3 6 -8 19 -11 28 -8 23 -68 42 -109 35 -49 -8 -145 -57 -171 -86 -14 -15 -21
-33 -18 -44 3 -10 0 -25 -7 -33 -45 -55 -14 -181 62 -243 49 -41 179 -84 213
-71 12 4 48 11 81 14 33 4 70 14 82 22 12 8 28 14 36 14 7 0 19 16 26 35 13
38 31 44 51 19 24 -28 47 -35 75 -22 21 10 31 8 64 -10 69 -39 189 -27 248 23
42 36 83 105 83 139 0 12 6 31 14 41 13 18 14 17 31 -14 35 -70 106 -150 138
-157 17 -3 39 -11 48 -17 17 -11 85 3 119 24 8 5 27 15 41 21 15 6 35 25 45
42 10 17 25 36 35 43 9 7 31 35 49 63 18 27 33 50 34 50 2 0 3 -19 4 -42 3
-57 22 -160 34 -175 15 -18 83 -26 106 -12 40 25 59 120 27 133 -34 12 -8 102
32 112 19 5 31 -2 58 -32 19 -22 35 -50 35 -64 0 -14 7 -36 15 -50 8 -14 14
-42 15 -62 0 -24 6 -40 17 -46 9 -5 14 -16 10 -25 -4 -11 3 -17 25 -21 48 -10
93 -7 106 6 22 22 14 109 -13 153 -13 22 -25 47 -25 55 0 8 -6 27 -14 42 -8
14 -19 43 -26 64 -23 69 -133 165 -187 163 -10 0 -35 -7 -56 -14z m-872 -215
c14 -16 15 -22 5 -34 -6 -9 -20 -18 -30 -21 -10 -3 -20 -14 -23 -25 -4 -17
-11 -19 -58 -13 -65 7 -79 17 -79 53 0 29 15 40 55 40 13 0 27 5 30 10 11 18
81 11 100 -10z"/>
<path d="M30716 5481 c-4 -6 -17 -11 -29 -11 -36 0 -231 -97 -239 -119 -4 -11
-17 -37 -30 -58 -29 -46 -58 -121 -58 -149 0 -11 7 -29 15 -40 8 -10 15 -33
15 -50 0 -22 8 -36 31 -53 16 -12 35 -33 41 -46 6 -14 28 -30 57 -40 25 -10
56 -23 67 -31 17 -10 40 -11 105 -4 101 11 150 24 180 49 20 16 22 22 12 44
-10 20 -22 26 -80 36 -171 29 -217 43 -250 77 -28 27 -33 39 -33 78 0 25 4 46
9 46 5 0 12 8 15 18 6 17 198 112 228 112 21 0 57 45 53 67 -2 10 -4 23 -4 29
-2 27 -93 65 -105 45z"/>
<path d="M21006 5231 c-4 -6 -25 -20 -47 -31 -45 -23 -47 -31 -18 -72 20 -27
29 -75 33 -177 l1 -33 -68 -5 c-38 -2 -86 -11 -108 -18 -30 -11 -59 -12 -122
-6 -45 5 -95 9 -112 9 -16 1 -61 4 -99 7 -39 3 -81 2 -95 -4 -17 -7 -79 -8
-171 -3 -80 4 -161 5 -180 2 -19 -3 -55 -1 -80 4 -58 13 -136 12 -225 -2 -81
-13 -241 5 -310 34 -35 14 -54 15 -145 7 -58 -6 -142 -7 -187 -3 -46 3 -104 4
-130 1 -27 -3 -79 -4 -118 -1 -38 3 -135 -1 -215 -8 -126 -12 -210 -15 -545
-23 -33 0 -121 0 -195 1 -74 0 -196 -4 -270 -11 -155 -13 -358 -12 -411 2 -20
5 -94 7 -165 5 -93 -2 -140 1 -169 11 -21 7 -69 13 -105 12 -36 -1 -211 -1
-390 -1 -179 0 -329 1 -335 1 -5 -1 -79 2 -163 6 -408 16 -926 3 -957 -26 -5
-5 -23 -9 -40 -9 -29 0 -85 -26 -134 -62 -30 -22 -21 -48 29 -83 36 -25 44
-26 117 -22 43 3 98 6 123 7 25 1 52 6 60 10 23 12 203 13 370 2 87 -5 179 -5
230 0 47 5 162 6 255 3 94 -4 206 -5 250 -3 147 6 549 -3 635 -14 47 -6 110
-12 140 -14 30 -1 87 -7 125 -12 39 -5 73 -8 76 -6 4 2 133 6 288 8 155 3 286
8 292 12 6 3 70 5 142 3 240 -4 460 0 602 12 77 6 181 12 230 12 201 2 576 -6
675 -14 103 -10 141 -12 390 -23 69 -3 125 -6 125 -7 0 -8 491 -5 527 3 34 8
76 8 150 0 67 -7 131 -7 183 -1 218 24 200 24 226 -5 26 -30 39 -80 28 -111
-4 -11 -9 -70 -12 -130 -6 -110 -16 -156 -43 -207 -8 -14 -11 -33 -8 -41 3 -8
1 -18 -5 -22 -15 -8 -13 -46 2 -66 12 -16 79 -35 106 -30 8 2 24 15 35 29 33
43 98 101 133 117 18 9 35 20 38 25 3 6 15 10 26 10 11 0 34 15 52 34 54 57
274 177 424 231 34 12 72 29 85 37 13 8 46 20 73 28 69 18 171 75 178 99 8 32
-70 106 -121 114 -22 4 -61 16 -87 27 -26 11 -55 20 -65 20 -9 0 -23 6 -29 14
-6 7 -33 22 -59 31 -26 10 -69 31 -95 47 -26 15 -53 28 -59 28 -7 0 -30 9 -52
19 -23 11 -84 36 -136 57 -52 21 -108 46 -125 56 -16 10 -36 18 -43 18 -8 0
-40 21 -73 46 -60 46 -120 66 -133 45z"/>
<path d="M6836 5104 c-15 -7 -43 -29 -63 -48 -34 -32 -36 -37 -25 -61 7 -14
12 -34 12 -45 0 -10 9 -39 20 -65 34 -79 54 -235 33 -256 -4 -4 -31 -10 -58
-13 -28 -3 -63 -9 -78 -13 -16 -5 -74 -4 -130 1 -95 8 -227 -4 -249 -23 -5 -4
-70 -6 -145 -4 -174 3 -319 2 -763 -1 -251 -3 -378 0 -435 9 -56 9 -84 10 -93
2 -13 -10 -52 -11 -402 -10 -621 1 -1029 -8 -1072 -23 -20 -7 -38 -11 -40 -8
-12 11 -40 -39 -45 -78 -3 -24 -10 -48 -14 -54 -6 -7 -1 -18 12 -30 23 -20 84
-23 244 -8 75 7 344 9 475 5 19 -1 134 -2 254 -2 135 0 246 -6 287 -14 38 -7
71 -10 74 -6 4 3 298 7 653 8 764 4 1158 9 1338 19 150 8 184 3 184 -26 0 -11
4 -20 9 -20 10 0 2 -73 -8 -78 -3 -1 -6 -30 -6 -65 0 -37 -6 -78 -17 -103 -14
-32 -15 -48 -8 -75 15 -51 13 -62 -10 -56 -16 4 -19 0 -18 -27 0 -17 -2 -40
-5 -51 -12 -38 121 -99 150 -69 8 8 21 14 29 14 8 0 14 3 14 8 0 4 15 13 33
21 17 8 44 24 59 36 15 13 46 32 70 44 24 12 55 30 69 39 69 45 319 191 357
209 34 17 55 20 97 16 33 -4 55 -1 59 6 4 6 17 11 29 11 32 0 47 31 53 113 5
70 4 73 -23 92 -16 11 -42 19 -64 18 -47 -2 -105 35 -225 142 -94 85 -103 94
-258 254 -54 56 -111 108 -128 117 -16 8 -32 22 -35 30 -7 19 -130 121 -153
127 -11 3 -30 -1 -44 -9z"/>
<path d="M37241 4906 c-31 -33 -38 -100 -17 -168 9 -29 18 -84 19 -123 l2 -70
-100 -12 c-75 -10 -105 -10 -122 -2 -14 8 -35 9 -60 3 -21 -4 -53 -7 -70 -5
-18 1 -49 -3 -69 -9 -47 -16 -325 -27 -529 -21 -124 4 -417 -8 -428 -17 -12
-10 -263 -8 -294 2 -10 3 -50 1 -88 -5 -39 -6 -95 -12 -126 -13 -30 -1 -60 -5
-65 -9 -9 -5 -208 -9 -294 -5 -55 2 -515 -11 -615 -18 -49 -3 -112 -13 -138
-21 -37 -12 -65 -14 -120 -8 -99 11 -192 10 -402 -4 -299 -21 -497 -41 -604
-64 -41 -8 -66 -8 -110 3 -31 7 -72 13 -91 12 -267 -7 -498 -5 -516 5 -23 13
-154 28 -339 40 -112 7 -497 7 -570 0 -22 -2 -56 2 -76 8 -30 11 -194 18 -354
15 -16 0 -93 0 -170 -1 -77 0 -158 -5 -180 -11 -22 -6 -85 -9 -140 -8 -140 4
-131 5 -225 -20 -74 -19 -109 -22 -275 -22 -104 1 -219 3 -255 6 -36 3 -155 6
-264 6 -182 1 -202 -1 -225 -18 -36 -27 -64 -77 -56 -102 14 -43 48 -53 188
-56 259 -6 483 -16 516 -23 33 -6 86 -3 327 19 61 5 151 10 200 10 49 0 157 6
239 14 105 10 243 12 460 9 171 -2 413 -4 538 -4 131 1 236 -3 246 -9 10 -5
70 -12 132 -15 62 -3 163 -14 224 -24 99 -18 146 -19 460 -14 193 3 381 5 419
4 41 -1 72 2 76 9 7 11 173 29 320 34 47 2 114 7 150 10 108 11 222 10 285 -3
62 -13 145 -8 202 12 25 8 45 8 83 -2 44 -11 54 -11 75 3 31 20 227 32 281 17
27 -7 53 -6 98 4 70 16 149 19 223 9 34 -4 57 -3 66 4 16 14 106 13 124 -1 7
-5 18 -5 24 -1 7 4 46 11 88 15 42 4 104 10 139 15 50 5 70 3 102 -11 37 -17
44 -17 102 -2 65 16 248 23 453 19 135 -4 275 2 275 10 0 11 12 10 155 -22
l99 -22 24 27 c22 26 29 28 99 27 53 0 83 4 100 15 26 17 88 18 188 4 46 -7
67 -5 88 6 15 7 44 15 64 16 34 2 38 -1 49 -32 6 -18 10 -70 9 -115 -2 -73 -8
-107 -36 -202 -5 -17 -9 -72 -9 -122 0 -79 3 -95 20 -112 34 -34 137 -18 153
23 3 8 63 53 134 100 107 71 209 145 272 198 7 7 32 21 55 32 22 11 57 32 76
47 33 26 148 92 218 125 36 17 40 36 17 82 -18 36 -97 65 -118 44 -17 -17 -44
-13 -85 12 -20 13 -53 29 -72 37 -19 8 -48 24 -65 36 -16 12 -62 38 -101 57
-39 20 -78 47 -88 61 -11 18 -25 26 -44 26 -28 0 -106 52 -169 113 -25 24 -33
39 -33 67 0 37 -21 65 -67 89 -33 17 -57 13 -82 -13z"/>
<path d="M1886 4783 c-1 -2 -61 -7 -132 -13 -216 -17 -233 -19 -264 -35 -16
-8 -37 -15 -48 -15 -10 0 -22 -3 -26 -7 -3 -4 -14 -8 -23 -9 -10 -2 -26 -7
-38 -12 -11 -5 -40 -16 -65 -23 -25 -7 -49 -16 -55 -19 -5 -4 -33 -15 -61 -24
-62 -20 -244 -156 -244 -181 0 -3 -21 -33 -46 -67 -25 -35 -55 -81 -66 -103
-12 -22 -24 -42 -27 -45 -4 -3 -15 -34 -26 -70 -10 -36 -22 -70 -27 -76 -4 -6
-6 -13 -3 -16 3 -3 -1 -24 -10 -47 -8 -23 -17 -70 -21 -104 -4 -49 -30 -220
-37 -246 0 -3 5 -29 12 -57 7 -28 11 -80 10 -115 -1 -61 23 -173 42 -193 5 -6
9 -19 9 -30 0 -12 11 -41 25 -65 14 -23 25 -47 25 -52 0 -8 40 -63 114 -154
24 -30 212 -170 244 -183 9 -3 23 -12 30 -19 7 -7 19 -13 25 -14 38 -2 157
-40 232 -74 93 -41 109 -48 130 -52 10 -2 48 -12 83 -23 107 -33 244 -26 422
22 41 11 98 23 125 27 69 10 168 46 218 79 57 37 153 125 227 207 33 37 135
180 150 210 8 17 20 33 27 38 6 4 19 31 29 60 9 28 20 57 24 62 11 15 39 152
45 224 3 36 10 84 15 107 7 32 6 58 -6 105 -9 34 -14 70 -11 80 3 10 2 21 -3
24 -4 3 -11 26 -15 52 -4 27 -13 66 -19 88 -7 22 -21 74 -31 115 -10 41 -24
87 -31 102 -8 15 -14 33 -14 41 0 8 -16 41 -35 73 -19 32 -35 65 -35 73 -1 9
-14 32 -30 51 -17 19 -30 38 -30 42 0 4 -33 41 -73 81 -70 71 -77 76 -178 110
-74 26 -142 40 -239 52 -121 14 -287 24 -294 18z m252 -226 c7 -5 50 -10 95
-11 89 -3 153 -21 213 -60 71 -45 92 -65 98 -93 4 -16 22 -51 40 -78 18 -28
37 -62 41 -75 4 -14 16 -37 27 -52 11 -16 17 -32 14 -37 -4 -5 1 -16 9 -24 8
-9 15 -25 15 -37 0 -11 7 -37 15 -57 9 -21 18 -55 21 -77 2 -21 9 -60 15 -85
26 -112 33 -278 14 -339 -8 -26 -20 -63 -26 -82 -24 -76 -79 -175 -108 -195
-30 -19 -51 -53 -51 -80 0 -8 -5 -15 -10 -15 -6 0 -14 -8 -17 -17 -11 -29 -81
-106 -154 -169 -46 -40 -204 -105 -366 -149 -45 -13 -84 -21 -86 -18 -3 2 -50
-1 -104 -8 -125 -15 -193 1 -242 56 -17 20 -31 40 -31 44 0 17 -66 40 -108 38
-34 -1 -48 4 -74 29 -41 39 -58 45 -136 49 -53 3 -70 9 -115 41 -119 86 -158
125 -188 191 -16 35 -29 68 -29 74 0 5 -7 24 -16 40 -51 99 -52 513 -1 629
103 238 99 230 168 299 82 80 102 95 199 145 95 49 138 64 225 81 39 7 88 19
110 26 22 6 81 15 130 18 131 9 398 7 413 -2z"/>
<path d="M2009 4253 c-35 -38 -53 -71 -67 -119 -7 -23 -19 -47 -27 -54 -27
-22 -19 -40 57 -124 36 -40 38 -41 103 -41 65 0 67 1 105 44 22 24 42 58 44
75 3 17 8 47 11 67 12 77 -82 179 -167 179 -25 0 -41 -8 -59 -27z"/>
<path d="M1394 4216 c-92 -20 -139 -86 -147 -206 -2 -30 2 -37 28 -49 98 -49
186 -63 235 -38 29 15 72 78 87 128 12 42 -4 117 -31 144 -16 17 -75 35 -106
34 -8 -1 -38 -6 -66 -13z"/>
<path d="M2410 3593 c-33 -11 -45 -14 -50 -15 -3 0 -31 -27 -62 -59 -31 -33
-94 -88 -140 -122 -103 -79 -164 -98 -316 -100 -101 -1 -113 1 -227 41 -123
43 -131 48 -207 139 -35 43 -96 55 -126 25 -10 -10 -22 -35 -26 -55 -5 -29 0
-47 30 -102 29 -52 49 -74 94 -104 32 -21 81 -46 108 -55 28 -10 56 -23 62
-31 6 -7 30 -17 53 -20 23 -4 62 -16 86 -27 36 -16 67 -20 170 -21 109 0 132
3 173 21 26 12 49 22 53 22 3 0 34 14 70 31 50 25 88 56 174 146 61 63 111
119 111 124 0 5 6 9 14 9 21 0 46 39 46 71 0 62 -41 99 -90 82z"/>
<path d="M4095 3563 c-11 -3 -27 -11 -35 -18 -8 -8 -28 -16 -45 -20 -46 -10
-138 -47 -156 -62 -8 -7 -19 -13 -24 -13 -11 0 -86 -50 -100 -67 -5 -6 -26
-20 -45 -30 -49 -26 -271 -177 -303 -207 -14 -13 -60 -40 -101 -60 -79 -38
-116 -76 -116 -119 0 -37 7 -42 205 -140 72 -35 148 -81 170 -100 50 -45 96
-78 162 -117 69 -42 195 -155 209 -189 17 -41 61 -71 103 -71 20 -1 47 -7 61
-15 40 -23 73 -18 114 18 l37 32 -15 37 c-9 21 -16 44 -16 53 0 8 -8 24 -17
34 -9 11 -17 28 -18 38 -1 10 -7 59 -14 108 -22 158 -26 199 -23 223 4 25 0
24 302 22 74 -1 149 0 165 1 113 6 745 -11 980 -27 167 -11 698 -18 743 -9 13
2 65 -2 116 -9 77 -10 96 -10 113 1 14 10 86 15 269 19 137 3 260 6 274 5 278
-7 390 1 430 31 32 23 32 36 4 105 -24 60 -98 78 -249 60 -33 -4 -134 -1 -230
7 -178 15 -299 15 -375 -2 -56 -13 -199 -7 -265 11 -44 13 -51 12 -61 -2 -15
-19 -232 -30 -364 -18 -86 7 -268 14 -645 22 -115 2 -293 6 -395 9 -102 2
-268 4 -370 4 -347 1 -395 3 -433 14 -34 10 -37 14 -33 42 3 17 8 67 11 111 7
93 22 144 50 166 27 22 25 72 -5 104 -24 25 -29 27 -65 18z"/>
<path d="M15657 3546 c-35 -17 -59 -22 -86 -19 -23 3 -41 1 -45 -6 -4 -6 -15
-11 -25 -11 -10 0 -38 -16 -62 -35 -24 -19 -49 -35 -55 -35 -7 0 -34 -19 -60
-43 -72 -63 -171 -137 -182 -137 -6 0 -31 -16 -56 -35 -26 -19 -49 -35 -52
-35 -3 0 -42 -18 -88 -40 -45 -22 -97 -40 -115 -40 -26 0 -43 -10 -77 -45 -24
-24 -44 -47 -44 -50 0 -17 55 -84 73 -89 35 -9 95 -7 102 4 10 17 52 11 90
-11 20 -12 38 -19 42 -16 17 18 181 -97 268 -188 33 -34 158 -141 228 -194 31
-24 45 -41 45 -59 0 -27 46 -71 75 -72 50 -1 106 60 114 123 3 23 10 48 16 54
5 7 11 70 12 140 1 71 6 144 9 163 l7 35 182 2 c101 1 205 7 232 13 27 6 110
11 185 10 322 -2 1111 9 1122 16 14 9 227 27 318 27 36 0 76 -5 88 -12 16 -9
27 -9 43 -1 22 12 282 33 359 29 119 -6 860 1 970 9 86 6 141 5 175 -2 31 -7
82 -8 135 -4 110 9 338 17 723 23 169 2 324 9 345 14 47 13 295 6 342 -9 19
-6 57 -11 84 -11 28 -1 61 -6 75 -11 14 -6 65 -10 114 -9 49 1 96 -3 108 -10
25 -13 92 -14 488 -10 33 0 47 5 59 23 9 12 24 30 34 40 10 10 18 22 18 26 0
11 -50 57 -75 70 -26 13 -246 27 -350 23 -60 -2 -105 3 -182 22 -55 14 -110
30 -121 36 -25 13 -93 14 -146 1 -26 -6 -58 -5 -90 2 -28 6 -64 11 -81 11 -86
1 -286 -13 -326 -22 -25 -6 -162 -10 -304 -9 -301 1 -733 -9 -747 -18 -5 -3
-39 -2 -76 2 -67 8 -269 6 -307 -3 -26 -6 -228 -17 -280 -15 -22 1 -69 1 -105
0 -127 -1 -196 -1 -260 2 -134 5 -792 -10 -847 -19 -97 -17 -322 -24 -338 -11
-11 9 -23 9 -47 1 -20 -7 -172 -13 -373 -17 -522 -9 -611 -11 -735 -19 -63 -4
-182 -8 -263 -10 -133 -2 -149 -1 -157 16 -6 9 -10 28 -9 41 0 13 -3 44 -7 70
-8 56 10 133 38 164 10 11 15 23 12 26 -3 4 -7 36 -9 73 -2 37 -9 73 -16 81
-17 21 -78 16 -132 -10z"/>
<path d="M21884 2527 c-44 -47 -58 -96 -58 -207 -1 -86 8 -205 15 -205 0 0 2
-13 4 -30 1 -16 10 -66 20 -109 17 -76 17 -80 -1 -93 -10 -7 -23 -13 -29 -13
-23 0 -126 -62 -137 -83 -6 -12 -17 -26 -25 -32 -17 -13 -21 -138 -5 -186 13
-39 42 -63 129 -111 50 -28 62 -30 120 -25 80 6 171 51 225 110 40 46 45 66
24 100 -8 12 -17 39 -21 60 -5 30 -20 52 -65 96 -62 59 -90 114 -90 177 0 18
-5 45 -11 61 -17 46 -23 288 -8 381 l12 83 -29 24 c-35 30 -43 30 -70 2z m35
-840 c7 0 24 -11 37 -24 13 -12 30 -23 39 -23 22 0 18 -15 -8 -29 -32 -17
-106 -17 -142 0 -23 11 -31 22 -33 46 -3 28 0 32 25 36 15 2 37 2 48 -1 11 -3
26 -5 34 -5z"/>
<path d="M20621 2414 c-23 -29 -27 -64 -11 -80 27 -27 45 -110 40 -184 l-5
-75 -45 -2 c-108 -5 -165 -13 -179 -28 -18 -18 -19 -88 -2 -109 20 -24 96 -39
162 -32 74 9 90 -1 79 -47 -3 -18 -6 -50 -4 -72 1 -22 3 -70 4 -107 1 -57 5
-72 31 -107 16 -23 37 -41 48 -41 11 0 26 -3 34 -6 10 -3 22 4 32 20 14 21 15
33 6 74 -11 52 -14 238 -5 288 5 29 11 33 82 54 43 13 88 34 101 47 13 12 30
23 37 23 8 0 14 7 14 16 0 23 -103 67 -140 59 -17 -4 -48 -4 -69 0 l-39 6 -5
62 c-9 103 -23 181 -41 214 -19 37 -20 38 -68 47 -31 6 -39 3 -57 -20z"/>
<path d="M7153 2237 c-18 -12 -36 -31 -40 -42 -8 -22 -4 -135 5 -150 3 -5 7
-20 8 -32 2 -13 7 -47 13 -76 11 -55 23 -149 21 -157 -1 -3 3 -17 9 -31 5 -14
12 -59 16 -100 8 -86 16 -104 53 -122 86 -44 118 -25 108 65 -4 32 -14 74 -21
93 -8 19 -15 57 -15 85 0 28 -5 60 -10 70 -15 28 -23 110 -24 258 -1 72 -5
132 -9 132 -5 0 -15 7 -23 15 -21 21 -53 18 -91 -8z"/>
<path d="M16455 2204 c-11 -3 -46 -10 -79 -16 -48 -9 -65 -19 -98 -52 -74 -76
-109 -189 -109 -352 0 -48 6 -87 20 -122 22 -55 17 -66 -15 -31 -44 49 -147
99 -205 99 -36 0 -53 23 -45 61 9 47 -12 154 -35 175 -10 9 -19 22 -19 28 -1
15 -107 86 -128 86 -9 1 -28 7 -42 15 -14 8 -36 14 -48 15 -13 0 -36 9 -52 20
-30 21 -32 21 -155 -24 -38 -15 -76 -34 -83 -44 -7 -10 -12 -36 -10 -61 3 -40
6 -46 33 -53 17 -5 59 -6 95 -2 104 11 147 6 216 -27 68 -31 84 -52 84 -110 0
-39 -20 -59 -59 -59 -47 0 -185 -55 -232 -92 -54 -43 -119 -134 -119 -167 0
-63 84 -105 167 -83 24 7 53 12 66 13 12 0 41 10 64 22 23 12 63 33 88 46 25
13 56 36 67 52 20 27 27 29 84 29 79 0 110 -12 150 -57 27 -30 40 -37 82 -41
l50 -4 21 41 c22 42 30 48 46 32 6 -5 26 -14 46 -20 42 -14 85 -2 106 29 15
21 48 27 58 10 13 -21 81 -9 153 26 71 35 73 37 108 110 28 60 36 88 37 142 2
59 -2 75 -33 137 -64 127 -203 243 -275 229z m85 -197 c34 -30 42 -43 62 -107
25 -77 23 -106 -8 -135 -28 -26 -84 -35 -197 -32 -66 2 -67 2 -78 35 -7 20 -8
60 -4 100 5 56 12 73 38 102 18 19 33 36 34 38 1 2 19 10 40 18 45 16 79 10
113 -19z"/>
<path d="M16946 2174 c-24 -30 -29 -44 -29 -92 0 -32 7 -91 16 -132 8 -41 18
-95 22 -120 3 -25 12 -63 20 -85 8 -22 14 -59 15 -83 0 -23 7 -59 15 -79 8
-19 15 -44 15 -54 0 -16 8 -19 48 -19 26 0 52 4 58 8 19 12 25 83 9 116 -7 17
-16 49 -18 71 -3 22 -14 95 -26 161 -12 67 -20 140 -18 163 2 23 0 44 -4 47
-4 2 -5 22 -2 45 8 59 -11 89 -56 88 -28 0 -42 -8 -65 -35z"/>
<path d="M18387 2199 c-125 -29 -221 -97 -333 -235 -42 -52 -47 -62 -48 -110
0 -30 5 -59 12 -66 7 -7 12 -20 12 -30 0 -30 46 -111 83 -147 36 -34 44 -40
113 -77 41 -22 144 -44 208 -44 101 0 286 72 312 121 13 26 12 30 -12 58 -21
25 -31 30 -52 25 -15 -4 -31 -10 -37 -14 -5 -4 -30 -10 -55 -14 -25 -4 -54
-13 -65 -20 -15 -10 -42 -11 -106 -6 -97 7 -151 30 -211 87 -50 48 -56 87 -22
147 25 44 100 116 121 116 6 0 16 7 23 15 7 9 37 27 66 41 81 38 104 60 104
99 0 24 -7 37 -25 49 -27 18 -33 18 -88 5z"/>
<path d="M18995 2102 c-108 -46 -148 -91 -184 -212 -12 -38 -25 -71 -30 -75
-9 -5 1 -47 35 -156 8 -26 14 -58 14 -72 0 -27 41 -67 69 -67 9 0 34 10 55 23
49 28 54 61 20 127 -21 41 -23 51 -13 73 9 21 9 30 -1 42 -22 27 -20 62 6 109
36 64 46 69 145 74 49 3 93 10 98 16 5 6 12 25 15 41 15 71 -130 119 -229 77z"/>
<path d="M20093 2073 c-55 -26 -65 -34 -155 -130 -38 -39 -63 -77 -74 -109 -9
-27 -22 -56 -30 -65 -8 -8 -14 -31 -14 -51 0 -60 -18 -67 -165 -69 -131 -1
-178 8 -189 37 -3 9 4 16 22 20 52 11 127 46 152 70 14 13 38 34 53 45 41 31
77 109 77 168 0 46 -3 52 -30 66 -47 24 -133 37 -165 25 -15 -6 -44 -13 -64
-16 -82 -11 -91 -16 -145 -77 -49 -57 -100 -153 -107 -202 -4 -32 11 -96 34
-148 42 -91 173 -151 325 -148 48 1 91 6 97 11 6 5 31 12 55 16 25 4 53 11 63
16 11 6 47 5 96 -2 77 -12 79 -11 122 15 48 30 119 94 119 108 0 21 52 116 67
121 22 9 66 -34 105 -103 62 -111 104 -157 159 -174 59 -20 69 -16 69 23 0 17
7 33 17 39 16 9 16 12 -7 36 -14 15 -37 33 -52 41 -15 8 -35 29 -44 47 -9 17
-24 41 -34 52 -10 11 -31 45 -47 75 -48 89 -56 100 -104 129 -43 27 -45 31
-41 65 4 31 -1 43 -24 67 -35 36 -70 37 -141 2z m-541 -159 c-5 -9 -27 -23
-48 -30 -48 -17 -54 -17 -54 -1 0 18 50 46 83 47 23 0 26 -3 19 -16z m552 -93
c-50 -98 -54 -103 -101 -119 -60 -20 -52 33 15 105 22 23 41 45 43 50 7 14 61
53 75 53 9 0 -1 -30 -32 -89z"/>
<path d="M21165 2047 c-51 -15 -73 -31 -118 -84 -28 -34 -38 -57 -47 -114 -15
-89 -16 -184 -3 -201 6 -7 13 -30 17 -50 6 -33 37 -80 104 -155 28 -30 119
-47 217 -39 54 5 82 12 88 21 4 8 14 15 20 15 7 0 46 33 86 74 75 77 81 93 48
134 -16 21 -97 4 -132 -27 -53 -47 -89 -68 -128 -74 -34 -5 -46 -1 -98 34 -40
28 -61 49 -65 67 -3 15 -7 32 -9 38 -6 21 32 41 90 48 32 3 70 15 86 27 16 11
48 23 71 27 l43 7 3 75 c2 70 0 77 -25 106 -18 20 -45 35 -77 43 -27 7 -62 19
-77 27 -32 16 -39 16 -94 1z"/>
<path d="M3738 1975 c-2 -2 -55 -7 -117 -10 -101 -4 -120 -8 -175 -36 -77 -39
-92 -53 -108 -98 -13 -38 -13 -43 3 -104 12 -47 155 -194 214 -220 22 -10 54
-25 70 -33 17 -8 74 -25 128 -38 136 -33 166 -64 106 -107 -63 -44 -123 -69
-171 -69 -45 0 -112 25 -149 57 -42 36 -131 -31 -119 -90 6 -34 66 -97 91 -97
11 0 19 -5 19 -11 0 -6 6 -9 13 -6 7 2 35 1 62 -4 89 -16 155 -20 155 -11 0 5
19 14 42 21 61 19 136 64 193 116 27 25 55 43 62 41 7 -3 27 -28 45 -55 44
-67 110 -101 194 -101 76 1 115 22 154 83 16 26 30 51 30 55 0 5 12 20 28 34
20 20 34 25 55 21 15 -3 27 -9 27 -14 0 -5 12 -22 28 -38 15 -16 34 -39 42
-51 29 -43 109 -66 127 -37 26 42 14 77 -59 176 -27 35 -48 70 -48 77 0 18
-78 161 -106 194 -25 30 -104 10 -104 -26 0 -8 -4 -14 -9 -14 -10 0 -36 -68
-46 -120 -10 -46 -31 -87 -66 -124 -16 -17 -29 -34 -29 -38 0 -15 -45 -7 -70
11 -20 16 -24 27 -22 63 6 82 12 104 45 152 12 17 15 27 7 24 -7 -2 -30 13
-51 34 -23 23 -48 38 -62 38 -27 0 -55 -26 -60 -56 -8 -45 -39 -135 -45 -132
-4 2 -54 27 -112 56 -58 29 -126 56 -152 61 -48 8 -192 86 -223 121 -10 11
-23 20 -30 20 -11 0 -35 41 -35 60 0 26 69 40 220 44 85 3 163 8 173 12 25 9
50 61 43 89 -3 13 -20 37 -36 54 -28 28 -36 30 -99 30 -38 0 -71 -2 -73 -4z"/>
<path d="M6800 1773 c-14 -3 -29 -11 -33 -19 -4 -8 -14 -14 -21 -14 -25 0 -70
-82 -74 -135 -3 -44 0 -54 28 -85 55 -62 143 -150 151 -150 17 0 50 -74 44
-100 -7 -33 -23 -39 -100 -35 -66 4 -83 16 -89 65 -3 19 -6 36 -7 38 -2 2 -6
18 -8 31 -1 10 -98 73 -141 92 -16 8 -33 22 -36 31 -3 10 -10 18 -15 18 -5 0
-23 14 -40 31 -34 35 -36 71 -4 74 107 9 131 16 149 46 41 70 -10 109 -144
109 -49 0 -99 -4 -112 -9 -64 -26 -106 -106 -93 -181 8 -49 121 -166 191 -200
l49 -23 -34 -14 c-28 -12 -42 -12 -75 -2 -23 6 -59 12 -81 12 -34 1 -47 -6
-82 -40 -23 -22 -59 -48 -79 -58 -47 -22 -124 -32 -124 -16 0 6 -6 11 -14 11
-8 0 -22 7 -31 16 -12 13 -13 19 -4 30 7 8 17 13 23 11 6 -2 46 15 88 37 124
66 169 146 129 228 -23 48 -47 63 -158 98 -58 19 -85 22 -143 17 -92 -8 -128
-29 -163 -96 -15 -30 -25 -56 -22 -59 3 -3 -3 -14 -12 -24 -9 -10 -24 -49 -34
-85 -15 -62 -19 -68 -60 -90 -47 -25 -107 -30 -156 -12 -28 9 -32 16 -37 62
-7 53 13 127 33 127 5 0 35 24 66 54 44 43 59 66 70 104 16 62 7 77 -44 76
-53 -2 -124 -38 -179 -91 -25 -23 -49 -43 -54 -43 -4 0 -8 -5 -8 -11 0 -7 -10
-28 -22 -48 -28 -44 -29 -50 -31 -133 -1 -65 -5 -77 -21 -61 -4 5 -33 8 -64 9
-98 1 -140 28 -149 93 -4 31 2 47 47 113 43 63 51 82 46 106 -6 27 -9 28 -60
27 -41 0 -63 -7 -95 -28 -23 -15 -45 -36 -48 -45 -3 -9 -12 -24 -18 -32 -7 -8
-18 -44 -24 -80 -12 -63 -12 -67 18 -130 43 -91 98 -148 165 -171 49 -16 58
-16 98 -2 71 24 108 44 108 59 0 7 21 -7 47 -33 26 -25 64 -56 83 -68 47 -30
133 -39 195 -20 27 8 52 12 55 10 4 -3 15 4 24 14 9 10 34 24 56 31 22 7 40
17 40 22 0 4 7 8 16 8 15 0 62 -45 104 -98 8 -10 49 -31 90 -45 67 -24 82 -26
134 -17 39 6 76 21 114 47 39 25 68 37 92 37 270 -2 296 -6 325 -58 6 -10 29
-29 52 -41 50 -29 131 -29 189 -1 22 11 53 26 69 34 48 23 114 93 125 130 17
63 -34 160 -148 279 -33 34 -62 69 -65 78 -9 21 2 45 20 45 8 0 27 13 42 28
16 15 33 26 40 24 6 -2 11 9 11 27 0 17 -4 31 -10 31 -5 0 -7 6 -4 14 8 21
-84 32 -156 19z m-811 -249 c17 -4 31 -10 31 -14 0 -12 -58 -30 -95 -30 -35 0
-68 26 -44 34 45 15 70 17 108 10z"/>
<path d="M7382 1149 c-18 -17 -32 -37 -32 -44 0 -6 -7 -26 -15 -42 -21 -42
-11 -59 40 -72 89 -22 122 -9 155 66 24 55 24 55 2 79 -49 53 -104 58 -150 13z"/>
</g>
</svg>
