<?xml version="1.0" standalone="no"?>
<!DOCTYPE svg PUBLIC "-//W3C//DTD SVG 20010904//EN"
 "http://www.w3.org/TR/2001/REC-SVG-20010904/DTD/svg10.dtd">
<svg version="1.0" xmlns="http://www.w3.org/2000/svg"
 width="2362.948718pt" height="400.000000pt" viewBox="0 0 2362.948718 400.000000"
 preserveAspectRatio="xMidYMid meet">
<metadata>
Created by potrace 1.15, written by Peter Selinger 2001-2017
</metadata>
<g transform="translate(-45.584527,485.446255) scale(0.065078,-0.065078)"
fill="#444444" stroke="none">
<path d="M32981 7434 c-26 -33 -29 -126 -6 -200 8 -27 15 -63 15 -80 0 -17 7
-48 15 -67 8 -20 15 -57 15 -81 0 -84 34 -120 106 -114 38 3 39 4 38 38 -1 19
-9 64 -18 100 -68 263 -78 321 -62 361 22 61 -62 95 -103 43z"/>
<path d="M32733 7303 c-12 -2 -25 -14 -28 -26 -4 -12 -11 -32 -17 -45 -9 -17
-9 -25 0 -34 7 -7 12 -29 12 -50 0 -22 7 -52 15 -67 8 -16 19 -46 24 -67 5
-22 15 -57 21 -79 30 -108 41 -165 40 -217 -1 -63 -8 -57 77 -74 32 -6 57 35
49 78 -4 18 -9 51 -12 73 -3 22 -11 54 -19 70 -7 17 -18 50 -24 75 -7 25 -25
95 -40 157 -16 62 -27 120 -25 130 5 19 -30 84 -43 82 -5 -1 -18 -4 -30 -6z"/>
<path d="M31785 7206 c-22 -7 -58 -20 -80 -30 -22 -9 -65 -24 -95 -33 -32 -9
-72 -29 -94 -49 l-40 -35 26 -53 c15 -30 32 -83 39 -118 6 -34 15 -72 20 -83
24 -59 49 -163 49 -209 0 -65 8 -77 60 -86 39 -7 43 -6 60 23 12 19 16 35 10
42 -14 17 -40 98 -40 128 0 30 11 32 127 27 67 -2 92 6 104 37 21 56 -30 82
-181 92 l-85 6 -14 62 c-17 76 -7 108 36 115 15 3 48 13 73 21 25 9 66 19 91
22 43 5 47 8 52 38 4 26 -1 38 -26 65 -34 35 -33 35 -92 18z"/>
<path d="M32476 7141 c-25 -26 -27 -33 -19 -72 8 -41 11 -44 44 -47 52 -4 83
24 81 73 -2 43 -14 60 -53 69 -20 4 -32 -1 -53 -23z"/>
<path d="M32231 6954 c-15 -6 -39 -22 -53 -35 -13 -13 -64 -59 -111 -103 l-87
-79 0 -52 c0 -45 5 -57 36 -93 34 -40 38 -42 94 -42 32 0 62 5 65 10 3 6 15
10 26 10 10 0 27 9 36 20 10 11 23 20 30 20 8 0 18 11 23 25 14 36 39 43 61
17 9 -12 21 -22 26 -22 5 0 25 -13 43 -30 18 -16 40 -30 47 -30 18 0 53 36 53
55 0 19 11 19 36 0 27 -21 72 -18 102 6 22 17 26 27 23 61 -1 23 -9 51 -16 62
-15 24 -39 105 -36 123 2 14 -37 43 -59 43 -8 0 -28 -13 -43 -30 l-28 -30 21
-72 c12 -40 24 -81 27 -90 9 -30 -39 -22 -83 13 -22 17 -60 66 -86 109 -38 63
-47 84 -42 108 6 29 5 30 -36 34 -23 2 -54 -2 -69 -8z m-3 -195 c-14 -21 -92
-79 -109 -79 -24 0 -4 28 44 62 61 43 84 49 65 17z"/>
<path d="M33172 6765 c-33 -8 -46 -18 -62 -47 -28 -52 -26 -115 3 -152 23 -29
24 -29 72 -17 28 7 61 25 78 41 26 25 29 34 24 70 -3 27 -16 53 -39 78 -33 37
-35 37 -76 27z"/>
<path d="M31318 6543 c-101 -107 -218 -307 -218 -374 0 -43 2 -45 52 -54 34
-7 36 -6 43 26 8 34 51 112 92 167 13 18 35 57 48 87 18 41 34 60 65 77 31 18
40 29 40 51 0 27 -38 77 -58 77 -5 0 -34 -26 -64 -57z"/>
<path d="M30175 6390 c-16 -18 -17 -24 -4 -63 16 -50 45 -103 73 -135 18 -20
19 -26 7 -58 -10 -28 -10 -38 0 -50 11 -13 17 -188 10 -306 -1 -24 -92 -86
-151 -104 -28 -8 -66 -23 -83 -33 -18 -9 -54 -23 -81 -31 -26 -7 -59 -23 -71
-34 -13 -12 -40 -34 -60 -51 -37 -30 -99 -129 -122 -195 -7 -19 -13 -62 -13
-96 0 -51 5 -68 29 -105 16 -24 28 -46 25 -50 -2 -4 -21 -13 -42 -20 -52 -17
-60 -25 -98 -103 -38 -78 -39 -85 -19 -141 8 -22 14 -53 15 -69 0 -16 13 -45
30 -66 l29 -37 -27 -25 c-15 -14 -37 -29 -49 -33 -13 -3 -23 -10 -23 -15 0 -5
-9 -12 -20 -15 -53 -17 -104 -107 -101 -180 1 -43 7 -55 38 -87 21 -21 54 -50
75 -65 26 -17 38 -33 38 -49 0 -22 45 -74 63 -74 5 0 27 -13 50 -28 23 -16 50
-32 60 -35 9 -4 21 -17 26 -30 11 -29 52 -39 107 -27 74 18 253 12 329 -10 39
-11 80 -18 93 -15 22 5 106 11 292 20 47 2 108 7 136 11 28 3 68 1 88 -4 22
-6 49 -7 69 -2 17 5 59 11 92 13 33 2 79 12 103 22 26 11 54 15 72 11 20 -3
45 1 73 14 23 11 67 24 99 30 55 11 82 28 123 80 11 14 33 35 48 47 34 26 87
102 87 124 0 9 7 22 15 29 23 19 18 78 -15 173 -16 48 -30 97 -30 108 0 12
-11 32 -25 45 -17 15 -25 34 -25 56 -1 42 -17 64 -71 91 -55 28 -58 42 -18 63
41 21 68 53 69 79 0 11 7 31 16 44 16 22 15 24 -20 57 -20 19 -36 40 -36 48 0
18 -35 80 -66 118 -13 16 -25 36 -29 47 -6 20 -111 105 -153 124 -39 17 -51
37 -52 84 0 30 -9 55 -30 86 -16 25 -30 51 -30 59 0 17 -44 59 -84 78 -15 8
-32 25 -37 37 -6 15 -17 23 -33 23 -23 0 -86 59 -86 81 0 20 -64 80 -81 76
-10 -3 -27 4 -39 15 -11 11 -40 28 -63 38 -36 16 -121 92 -192 173 -11 12 -32
31 -46 42 -40 31 -101 116 -94 132 5 15 -24 44 -69 70 -32 18 -71 15 -91 -7z
m304 -508 c6 -20 8 -46 5 -58 -7 -26 36 -64 71 -64 13 0 46 -8 76 -17 l52 -17
-34 -9 c-48 -13 -53 -27 -16 -54 18 -13 37 -30 43 -38 9 -13 43 -22 86 -24 26
-1 48 -53 48 -110 l0 -49 -40 -7 c-26 -4 -46 -3 -55 5 -11 9 -16 6 -27 -14 -7
-13 -29 -35 -48 -48 -19 -13 -45 -43 -57 -68 -12 -25 -28 -52 -35 -61 -9 -12
-12 -47 -11 -110 1 -52 2 -110 2 -130 1 -20 7 -51 15 -70 7 -19 17 -55 20 -81
13 -88 122 -158 314 -203 83 -20 176 -15 242 11 34 14 43 14 85 0 25 -9 50
-14 55 -11 12 7 1 -115 -13 -143 -8 -18 -8 -28 1 -42 7 -11 12 -26 12 -33 0
-14 -97 -66 -155 -83 -24 -8 -31 -16 -33 -41 -3 -30 -4 -31 -33 -21 -47 16
-81 -3 -77 -44 3 -32 2 -32 -52 -44 -68 -14 -121 -36 -139 -57 -20 -25 -131
-21 -115 4 3 5 20 16 37 23 79 35 257 228 257 280 0 26 -28 54 -87 86 -41 23
-45 23 -127 11 -98 -15 -252 -7 -335 16 -30 9 -90 15 -134 15 -91 0 -116 10
-109 44 3 18 16 27 56 40 28 9 72 34 97 55 26 22 52 39 58 39 6 0 11 5 11 10
0 6 8 18 18 28 10 10 31 35 47 55 28 37 28 42 29 162 1 87 -3 128 -11 136 -7
7 -13 29 -13 48 0 44 -33 94 -115 176 -74 74 -123 100 -158 84 -19 -8 -34 -9
-56 -1 -27 10 -39 7 -90 -19 -71 -35 -91 -37 -84 -9 10 37 160 103 225 100 18
-1 38 -2 45 -1 19 2 52 42 73 89 15 33 24 42 43 42 22 0 25 5 30 51 4 28 15
67 27 86 11 19 20 49 20 67 0 19 3 48 7 66 l6 33 18 -22 c10 -13 23 -39 28
-59z m-249 -587 c54 -28 110 -114 110 -170 0 -17 9 -55 19 -85 16 -46 17 -57
6 -70 -7 -8 -25 -39 -40 -67 -14 -29 -30 -53 -35 -53 -5 0 -21 -11 -37 -23
-26 -22 -129 -51 -145 -41 -4 2 -5 19 -2 37 4 28 0 35 -27 52 -66 41 -82 87
-82 235 0 52 30 140 47 140 7 0 23 11 36 25 13 14 19 25 14 25 -5 0 -2 5 6 10
18 11 96 2 130 -15z m613 -7 c38 -20 77 -62 77 -83 0 -11 7 -31 15 -45 49 -85
67 -151 45 -165 -11 -7 -33 33 -50 92 -7 23 -28 58 -45 78 -31 33 -37 35 -95
35 -34 0 -70 -5 -81 -10 -14 -8 -19 -7 -19 2 0 25 27 90 41 99 20 13 86 11
112 -3z m262 -17 c16 -6 19 -16 16 -53 -1 -26 2 -49 8 -53 6 -3 23 -29 36 -56
18 -34 31 -49 45 -49 26 0 36 -25 20 -45 -7 -8 -16 -30 -19 -48 -7 -34 -30
-44 -76 -33 -20 5 -22 10 -18 53 5 52 -33 199 -63 241 -28 41 -2 63 51 43z
m-1251 -37 c20 -19 20 -30 1 -38 -16 -6 -57 32 -49 46 8 13 31 9 48 -8z m846
-222 c0 -18 -3 -20 -13 -10 -8 6 -11 23 -9 36 6 29 22 10 22 -26z m286 -53
c25 -41 -15 -161 -58 -173 -40 -10 -107 -7 -143 8 -24 11 -40 27 -54 58 -28
61 -34 88 -22 88 6 0 11 -5 11 -11 0 -5 17 -17 38 -25 20 -8 47 -20 60 -26 17
-9 25 -9 34 0 7 7 21 12 32 12 22 0 56 27 56 45 0 12 20 35 31 35 4 0 11 -5
15 -11z m-1048 -133 c20 -37 41 -96 35 -96 -2 0 -14 5 -26 11 -39 20 -67 52
-67 75 0 59 29 64 58 10z m152 -279 c14 0 32 3 41 7 13 5 18 0 23 -21 20 -86
35 -120 70 -160 22 -25 47 -59 55 -76 14 -26 78 -85 156 -142 14 -9 50 -15
111 -17 l90 -2 -20 -38 c-21 -37 -39 -47 -51 -28 -3 6 -37 10 -74 10 -42 0
-80 6 -97 15 -16 8 -40 15 -54 15 -14 0 -37 8 -50 17 -31 21 -90 83 -90 93 0
11 -85 60 -104 60 -10 0 -16 9 -16 25 0 22 -10 30 -62 54 -50 22 -68 26 -85
18 -13 -6 -23 -14 -23 -19 0 -4 -17 -8 -39 -8 -30 0 -40 4 -44 19 -7 28 -51
53 -97 54 -42 2 -51 16 -25 37 9 7 14 22 13 34 -3 17 2 20 24 18 15 -2 40 4
56 12 20 11 45 14 78 10 37 -4 54 -2 69 11 15 12 31 14 70 9 28 -4 61 -7 75
-7z m390 -113 c69 -6 228 -5 256 2 12 3 26 -1 34 -11 11 -13 10 -19 -5 -35
-10 -11 -23 -20 -30 -20 -6 0 -22 -12 -36 -26 -53 -59 -157 -81 -222 -48 -45
23 -137 115 -137 137 0 17 5 19 43 13 23 -4 67 -9 97 -12z"/>
<path d="M30106 5197 c-27 -22 -30 -30 -36 -118 l-7 -94 36 -42 c41 -47 56
-51 113 -23 23 11 47 20 54 20 30 0 24 131 -7 165 -5 5 -9 19 -9 31 0 12 -13
36 -29 53 -35 38 -74 40 -115 8z"/>
<path d="M7218 5354 c-3 -3 -248 -7 -544 -9 -724 -6 -824 -9 -852 -24 -27 -14
-82 -97 -82 -121 0 -9 7 -32 16 -49 9 -18 18 -63 20 -99 5 -103 4 -253 -2
-263 -6 -10 -15 -84 -13 -111 4 -85 3 -185 -5 -303 -5 -77 -9 -162 -9 -190 0
-107 2 -261 4 -280 1 -11 1 -33 1 -50 -1 -16 -3 -100 -5 -185 -1 -85 -6 -161
-10 -167 -4 -7 -10 -115 -13 -240 -4 -125 -9 -235 -13 -243 -4 -8 -8 -87 -10
-175 -1 -88 -6 -176 -11 -195 -5 -19 -14 -95 -19 -168 -6 -73 -15 -141 -19
-150 -5 -9 -10 -42 -11 -72 -1 -30 -5 -58 -9 -61 -4 -4 -25 -9 -47 -12 -22 -3
-60 -9 -85 -12 -50 -7 -89 -43 -90 -83 0 -13 -15 -60 -34 -106 -48 -116 -53
-149 -27 -175 49 -49 85 -19 127 109 18 56 40 113 49 127 19 28 10 28 170 -2
58 -10 138 -16 225 -15 74 1 175 1 223 0 48 0 92 2 98 5 15 10 128 15 399 20
192 2 271 0 320 -10 70 -15 359 -26 400 -15 14 4 35 3 47 -1 12 -5 107 -10
210 -13 103 -3 240 -12 303 -21 116 -17 583 -25 660 -12 57 10 373 20 700 22
168 1 359 5 425 9 77 5 136 3 165 -4 63 -15 259 -15 430 0 80 7 175 12 213 11
37 -1 77 4 90 10 27 15 198 30 212 19 5 -4 30 -10 55 -14 43 -6 47 -5 84 33
33 34 38 46 43 102 4 34 11 73 18 86 8 16 9 41 3 85 -11 83 0 631 16 758 7 54
8 648 2 659 -9 14 -21 417 -18 581 2 80 4 262 6 405 3 255 8 331 28 369 8 14
3 33 -18 77 -31 62 -55 77 -108 63 -15 -4 -32 -1 -41 6 -17 14 -186 7 -229
-10 -15 -5 -51 -10 -79 -10 -29 -1 -72 -6 -97 -12 -25 -6 -103 -12 -175 -14
-71 -1 -182 -6 -245 -10 -119 -7 -269 7 -442 42 -75 15 -257 20 -596 15 -67
-1 -127 1 -133 5 -6 3 -108 8 -227 9 -119 2 -305 6 -412 10 -107 3 -213 2
-235 -2 -22 -5 -62 -5 -90 -1 -27 4 -97 10 -155 12 -58 3 -118 7 -135 9 -16 2
-50 7 -75 11 -68 9 -141 18 -180 21 -19 1 -53 8 -75 14 -44 12 -79 14 -87 5z
m-963 -165 c470 8 1015 8 1058 0 29 -5 62 -11 74 -13 12 -2 34 -7 50 -10 67
-14 310 -26 588 -31 365 -5 523 -13 552 -27 17 -8 26 -8 39 3 13 10 52 14 158
14 122 1 145 -2 169 -18 18 -12 37 -17 55 -13 38 8 284 10 302 2 8 -3 45 0 82
8 49 10 79 11 110 4 24 -5 63 -8 88 -7 25 1 52 0 60 -4 8 -3 58 -11 110 -17
52 -6 131 -16 175 -22 110 -16 281 -12 379 8 56 12 241 26 336 26 124 0 181
-7 190 -23 5 -6 21 -12 37 -13 24 -1 28 -5 30 -31 3 -59 5 -370 2 -380 -1 -5
0 -24 4 -40 4 -17 2 -64 -4 -105 -11 -74 -18 -141 -20 -190 -1 -52 6 -170 11
-170 8 0 15 -391 14 -755 -1 -376 -10 -612 -25 -668 -8 -29 -7 -42 2 -53 16
-19 5 -330 -14 -394 -12 -43 -15 -45 -52 -47 -48 -2 -169 -18 -245 -33 -30 -5
-131 -14 -225 -19 -207 -11 -252 -5 -212 28 8 6 19 30 26 53 7 24 20 54 29 68
21 30 53 90 111 207 24 48 52 99 61 113 10 14 22 41 29 61 6 19 27 53 46 74
20 21 35 48 35 61 0 25 67 167 101 216 11 14 19 32 19 40 0 7 14 31 32 52 30
37 31 39 15 65 -21 35 -92 44 -102 12 -3 -10 -12 -22 -20 -25 -12 -4 -55 -83
-55 -101 0 -3 -15 -26 -32 -50 -18 -24 -41 -57 -50 -74 -9 -17 -23 -31 -30
-31 -18 1 -86 92 -117 155 -16 33 -61 75 -79 75 -30 0 -53 -24 -62 -65 -8 -33
-6 -42 8 -53 9 -7 24 -26 32 -42 8 -15 29 -48 46 -72 112 -160 104 -144 91
-180 -11 -29 -50 -105 -76 -148 -5 -8 -37 -71 -71 -140 -34 -69 -66 -130 -71
-136 -5 -7 -21 -40 -34 -74 -24 -62 -52 -103 -64 -96 -19 12 -211 13 -306 2
-67 -8 -115 -9 -122 -4 -7 5 -32 6 -60 1 -26 -5 -61 -6 -78 -3 -16 3 -42 3
-56 -1 -28 -7 -275 3 -284 13 -3 3 -24 2 -45 -3 -22 -5 -117 -11 -212 -14 -95
-3 -202 -10 -238 -16 -36 -6 -150 -10 -255 -10 -196 1 -227 3 -355 21 -41 6
-239 13 -440 15 -417 6 -593 12 -667 24 -28 4 -75 7 -105 5 -117 -5 -411 -16
-543 -19 -77 -2 -204 -6 -282 -10 -78 -3 -144 -2 -147 3 -3 5 1 33 9 63 31
121 56 421 70 831 6 177 13 267 22 281 5 9 17 433 14 525 -1 23 3 42 9 42 7 0
7 7 -1 21 -7 14 -9 55 -5 123 3 55 9 196 12 311 3 116 7 233 9 261 2 29 7 147
9 264 6 224 11 273 30 289 16 13 88 19 166 13 36 -3 106 -4 155 -3z"/>
<path d="M6843 5015 c-26 -18 -79 -126 -88 -181 -4 -21 -16 -55 -26 -74 -10
-19 -23 -47 -28 -62 -10 -27 -64 -58 -100 -58 -21 0 -61 -41 -61 -62 0 -9 16
-23 36 -33 36 -17 36 -17 29 -63 -6 -44 -72 -173 -96 -187 -5 -4 -7 -16 -3
-28 11 -37 35 -57 70 -57 31 0 36 5 60 53 15 28 34 63 43 77 16 24 53 111 66
158 9 31 61 62 94 56 14 -2 52 -6 84 -8 64 -3 97 -25 97 -62 0 -12 8 -48 18
-81 13 -42 15 -65 8 -84 -7 -22 -5 -32 13 -55 27 -34 44 -42 93 -43 29 -1 42
5 62 30 14 17 26 27 26 22 0 -4 22 -21 50 -36 l50 -28 25 25 26 26 -5 152 c-6
160 -2 178 38 178 11 0 35 9 51 20 17 11 37 20 45 20 8 0 50 24 92 52 63 43
83 62 104 104 23 46 25 56 15 87 -14 43 -48 64 -150 96 -61 19 -86 22 -143 17
-149 -15 -217 -48 -270 -130 l-32 -49 28 -23 c15 -13 38 -24 50 -24 34 0 38
-39 9 -86 -26 -44 -29 -64 -10 -64 37 0 52 -46 62 -196 5 -62 2 -75 -16 -98
l-21 -27 -44 66 c-29 43 -45 79 -47 103 -2 20 -9 47 -16 60 -13 24 -43 106
-63 172 -34 115 -100 248 -147 299 -42 46 -47 47 -78 26z m732 -171 c24 -10
18 -22 -32 -69 -49 -45 -151 -92 -179 -81 -9 4 -13 14 -9 28 3 13 7 45 8 73 2
47 4 50 32 57 32 7 155 1 180 -8z m-650 -86 c40 -85 37 -92 -37 -84 -34 3 -63
8 -66 10 -8 9 28 99 45 112 28 21 32 18 58 -38z"/>
<path d="M7914 4948 c-2 -3 -22 -9 -45 -13 -22 -4 -52 -17 -66 -29 -33 -29
-26 -74 17 -99 26 -16 33 -16 86 -2 60 16 140 22 150 13 3 -3 5 -97 5 -208 1
-243 3 -238 -113 -250 -129 -13 -161 -39 -133 -106 l15 -37 173 7 c232 10 253
12 317 33 82 27 103 44 91 76 -5 14 -15 28 -21 32 -7 4 -55 7 -108 6 -56 -1
-98 2 -101 8 -4 6 -4 36 -1 68 6 65 5 180 -3 296 l-5 77 26 1 c15 0 63 0 108
-1 87 -1 96 3 108 53 6 25 3 29 -28 42 -18 8 -76 19 -127 26 -105 12 -339 18
-345 7z"/>
<path d="M6915 3653 c-147 -18 -538 -222 -580 -302 -8 -17 -19 -31 -23 -31
-13 0 -52 -121 -52 -159 0 -38 14 -90 36 -134 8 -16 14 -33 14 -39 0 -6 19
-36 43 -67 23 -31 47 -65 52 -75 6 -10 19 -24 30 -30 11 -6 25 -18 31 -26 7
-8 36 -32 65 -52 l54 -37 75 13 c110 20 150 44 252 152 67 72 84 119 68 189
-18 81 -41 101 -139 124 -138 31 -159 33 -298 32 -125 -1 -133 0 -133 19 0 12
24 37 63 66 34 26 67 52 72 58 21 24 189 116 211 116 9 0 28 8 42 18 15 10 61
31 102 46 41 16 79 33 85 37 5 5 17 9 27 9 25 0 68 21 68 34 0 7 -13 19 -29
29 -27 16 -66 19 -136 10z m-236 -588 c35 -2 82 -7 105 -11 23 -4 47 -8 55 -8
26 -2 22 -21 -17 -80 -81 -122 -206 -160 -279 -83 -67 70 -84 91 -99 123 -10
21 -13 39 -8 44 17 17 88 29 134 23 25 -3 74 -7 109 -8z"/>
<path d="M7729 3531 c-34 -34 -37 -70 -10 -95 13 -12 23 -42 31 -89 6 -40 13
-87 16 -104 4 -27 2 -33 -14 -33 -10 0 -23 5 -29 11 -6 6 -24 12 -40 14 -15 1
-41 8 -56 14 -41 16 -52 14 -78 -14 -26 -27 -52 -31 -94 -15 -23 9 -37 3 -111
-43 -47 -28 -97 -58 -110 -65 -38 -20 -167 -153 -183 -187 -7 -16 -17 -37 -21
-46 -5 -9 -3 -38 4 -65 10 -41 19 -53 52 -71 21 -13 48 -23 59 -23 11 0 30 -7
43 -15 16 -12 27 -13 41 -5 11 5 29 10 40 10 47 0 165 88 208 156 12 19 13 19
30 -1 47 -51 129 -95 178 -95 34 0 35 1 35 39 0 41 -8 50 -119 139 -23 18 -48
48 -56 65 -8 18 -20 39 -26 48 -13 18 -7 54 14 84 14 19 16 18 54 -16 31 -28
53 -38 111 -49 40 -7 78 -20 85 -28 8 -11 12 -59 12 -159 0 -117 3 -145 15
-153 8 -5 22 -7 30 -3 8 3 27 8 41 10 43 8 64 57 52 119 -6 27 -8 79 -6 116
l5 68 57 -1 c75 -1 175 32 179 59 5 34 -46 62 -116 62 -32 0 -80 3 -105 6 -50
7 -44 -4 -70 139 -8 44 -22 96 -30 115 -9 19 -18 46 -21 60 -6 28 -40 70 -57
70 -6 0 -24 -13 -40 -29z m-363 -563 c-13 -66 -64 -111 -139 -123 -52 -9 -69
7 -39 37 42 42 147 117 166 117 16 1 18 -4 12 -31z"/>
<path d="M9833 3260 c-37 -9 -74 -27 -90 -42 -16 -14 -51 -37 -79 -52 -57 -28
-109 -82 -144 -150 -19 -37 -22 -56 -18 -115 3 -61 7 -74 33 -101 16 -17 49
-42 73 -55 35 -20 52 -23 95 -18 74 8 122 38 173 110 24 34 44 66 44 71 0 5 6
15 14 21 10 9 21 -1 50 -48 20 -32 36 -66 36 -74 0 -19 42 -29 86 -21 32 6 45
26 25 39 -6 3 -4 19 4 39 14 33 13 35 -11 51 -14 9 -34 36 -45 60 -10 23 -25
48 -33 54 -24 20 -59 114 -57 157 1 33 -4 44 -26 60 -41 30 -61 32 -130 14z
m1 -196 c3 -8 -10 -49 -29 -90 -39 -82 -78 -116 -130 -112 -28 3 -30 6 -33 49
-3 46 -2 47 60 102 75 65 120 83 132 51z"/>
<path d="M8448 3229 c-70 -10 -91 -20 -143 -69 -22 -21 -59 -56 -82 -77 -30
-28 -45 -53 -54 -86 -6 -26 -15 -50 -20 -53 -17 -10 -9 -53 16 -82 14 -17 25
-34 26 -38 0 -14 112 -92 161 -113 50 -21 141 -22 217 -1 23 6 46 8 51 5 6 -4
23 3 40 15 16 11 42 25 57 31 27 9 83 76 83 98 0 31 -122 23 -178 -11 -29 -18
-45 -20 -130 -16 -135 7 -186 36 -99 58 58 15 111 44 185 103 78 64 96 107 64
159 -47 77 -89 93 -194 77z m26 -121 c-7 -19 -128 -89 -133 -77 -4 13 26 47
64 70 35 22 77 25 69 7z"/>
<path d="M9337 3185 c-23 -16 -37 -34 -37 -47 0 -24 -15 -75 -37 -128 l-15
-35 -32 36 c-42 48 -103 82 -145 81 -38 -2 -70 -31 -96 -89 -8 -18 -18 -33
-23 -33 -24 0 -71 110 -72 165 -1 29 -20 65 -35 65 -4 0 -28 -10 -52 -22 -42
-21 -67 -62 -47 -77 11 -8 30 -63 39 -116 4 -21 15 -51 26 -66 10 -15 19 -34
19 -42 0 -8 16 -22 35 -31 19 -9 37 -21 40 -26 3 -6 25 -10 49 -10 53 0 105
32 125 78 21 45 34 42 74 -20 10 -16 23 -28 31 -28 7 0 25 -11 40 -25 32 -30
51 -31 91 -7 30 18 59 72 85 157 7 22 25 65 40 95 42 86 43 93 16 123 -32 34
-70 35 -119 2z"/>
<path d="M20160 5149 c-47 -5 -132 -11 -190 -14 -58 -3 -136 -10 -175 -15
-112 -15 -201 -22 -344 -26 -74 -2 -150 -9 -169 -15 -45 -15 -145 -6 -178 16
-24 15 -27 15 -44 0 -35 -31 -47 -170 -21 -232 14 -34 13 -48 -12 -196 -8 -49
-12 -117 -10 -151 4 -46 1 -71 -11 -94 -9 -18 -14 -37 -10 -43 3 -6 7 -50 9
-98 2 -49 8 -98 15 -111 7 -12 10 -36 7 -53 -2 -17 0 -83 6 -147 5 -63 11
-155 14 -205 2 -49 9 -146 14 -215 6 -69 8 -192 5 -275 -3 -82 -8 -217 -10
-300 -3 -134 -7 -224 -21 -550 -2 -49 -7 -124 -10 -165 -7 -74 -7 -76 23 -109
17 -18 32 -45 34 -59 4 -34 39 -43 103 -26 51 13 262 18 447 10 54 -3 100 -1
103 4 3 5 63 7 135 5 83 -2 146 1 177 9 34 9 105 11 238 9 105 -3 237 0 295 5
82 7 107 6 116 -4 6 -7 31 -12 65 -11 53 1 169 -8 241 -19 21 -4 46 -3 55 2
10 4 104 9 208 11 105 2 197 4 205 5 8 1 35 0 60 -2 25 -2 55 0 67 4 13 4 32
2 45 -6 18 -10 150 -13 613 -15 325 -1 727 -5 895 -8 860 -17 1163 -19 1260
-6 47 6 128 10 180 9 168 -3 611 11 735 24 66 6 158 12 205 13 47 0 103 6 125
12 22 6 95 11 163 12 68 0 187 3 265 7 78 4 153 6 167 6 14 0 148 -3 299 -6
302 -6 310 -5 345 56 16 25 16 35 5 78 -10 41 -10 79 5 227 9 98 19 196 22
218 18 140 28 468 33 1097 1 64 -3 127 -8 140 -9 25 -12 72 -36 558 -3 47 -6
171 -7 277 -2 111 -7 196 -13 202 -5 5 -22 12 -36 16 -21 5 -31 1 -48 -20 -15
-20 -26 -25 -38 -20 -10 4 -38 9 -63 11 -169 15 -243 18 -262 11 -12 -4 -42
-4 -67 0 -25 3 -72 6 -103 5 -45 0 -65 4 -93 24 -43 29 -41 29 -87 5 -19 -11
-38 -17 -41 -14 -7 6 -29 9 -172 22 -60 5 -150 14 -200 20 -49 6 -106 10 -125
10 -19 -1 -127 1 -240 5 -113 4 -212 7 -220 7 -8 0 -44 0 -80 1 -143 2 -411 1
-505 -1 -130 -3 -549 6 -690 15 -60 3 -153 8 -205 9 -52 1 -155 8 -228 16
-103 9 -144 10 -180 1 -58 -15 -82 -15 -317 -7 -104 4 -217 7 -250 6 -247 -5
-394 -10 -620 -21 -143 -7 -289 -10 -325 -6 -36 4 -105 6 -155 6 -344 -1 -444
0 -475 6 -19 4 -66 8 -105 9 -168 4 -333 17 -365 28 -19 6 -51 12 -70 13 -142
8 -298 9 -370 3z m365 -160 c5 -5 30 -9 56 -9 26 0 82 -5 123 -11 88 -12 318
-20 716 -24 157 -1 326 -7 375 -12 50 -6 97 -6 107 -2 9 5 82 11 162 14 l146
6 -11 -28 c-6 -17 -8 -44 -3 -68 4 -22 9 -71 10 -110 2 -38 5 -92 8 -120 24
-263 28 -620 8 -687 -13 -44 -14 -651 -1 -753 5 -44 12 -186 14 -315 3 -129 7
-276 10 -327 3 -50 2 -130 -1 -179 -6 -75 -11 -91 -34 -117 l-26 -30 -220 -3
c-209 -2 -265 3 -301 29 -7 5 -18 5 -25 1 -6 -4 -109 -6 -227 -5 -119 2 -236
2 -261 1 -78 -6 -111 -4 -255 9 -77 7 -152 17 -167 23 -19 7 -53 6 -115 -2
-48 -7 -169 -14 -268 -16 -99 -1 -236 -7 -305 -13 -69 -6 -285 -11 -480 -11
-195 0 -370 0 -389 0 -31 0 -33 2 -27 26 4 14 7 109 7 211 0 109 4 194 10 205
7 12 7 24 1 31 -6 7 -6 38 -1 77 21 172 32 827 16 905 -17 76 -29 214 -32 375
-2 96 -9 210 -15 253 -8 57 -8 87 0 110 6 19 8 59 4 102 -5 53 -2 86 10 129 9
31 15 60 12 65 -3 4 2 34 10 65 8 32 13 65 10 73 -3 8 1 27 8 42 13 25 23 29
98 40 46 6 124 14 173 16 129 6 220 14 300 24 39 6 106 9 150 7 44 -1 159 3
255 10 179 12 348 9 365 -7z m2311 -23 c3 -8 -2 -28 -10 -45 -9 -17 -23 -70
-32 -118 -18 -100 -14 -275 12 -543 8 -85 17 -301 19 -480 7 -483 13 -670 31
-862 8 -95 17 -211 20 -258 5 -86 -11 -360 -25 -415 l-7 -30 -159 -1 c-88 -1
-167 -2 -175 -3 -20 -3 -164 10 -169 15 -2 2 1 43 8 91 20 152 15 508 -11 737
-18 156 -14 706 7 906 16 166 20 275 12 355 -2 27 0 59 6 72 7 15 7 26 0 35
-6 7 -11 69 -12 138 -1 69 -5 140 -10 157 -5 18 -6 48 -1 70 5 21 7 62 5 91
-4 50 -2 54 23 63 14 6 69 12 122 15 77 4 199 12 323 23 10 0 20 -5 23 -13z
m595 -30 c5 -16 11 -90 14 -165 3 -75 7 -179 10 -231 6 -121 16 -474 20 -750
4 -214 7 -305 25 -665 11 -231 6 -903 -7 -916 -16 -16 -501 -4 -519 13 -4 4
-2 52 3 105 6 54 11 107 11 118 0 11 1 77 2 147 1 70 -1 131 -4 136 -3 4 -8
55 -11 113 -3 57 -10 129 -15 159 -10 63 -22 503 -25 950 -1 207 -5 314 -13
333 -8 18 -13 110 -14 260 -3 228 -2 233 20 265 13 17 21 36 18 40 -8 13 13
79 29 96 12 12 49 14 186 14 94 0 173 3 177 7 3 3 24 5 46 3 34 -3 41 -7 47
-32z m355 2 c5 -3 76 -9 159 -13 82 -3 152 -8 154 -10 2 -2 5 -89 7 -192 2
-103 5 -208 8 -233 3 -25 8 -90 11 -145 3 -55 9 -127 14 -160 13 -94 13 -228
0 -365 -9 -98 -9 -155 1 -265 20 -226 23 -414 15 -893 -3 -173 -10 -343 -15
-379 -5 -37 -8 -71 -7 -77 2 -11 -380 -15 -473 -5 l-44 5 0 54 c8 420 3 781
-11 920 -3 25 -5 173 -6 330 -1 157 -4 289 -7 293 -2 5 -6 142 -7 305 -2 163
-8 351 -14 417 -5 66 -10 161 -10 210 -1 50 -3 114 -6 143 -3 29 -4 56 -1 60
5 9 217 8 232 0z m610 -12 c54 2 146 5 204 8 58 2 112 0 121 -5 33 -17 41 -80
51 -409 0 -8 -2 -62 -5 -120 -3 -58 -2 -124 3 -147 6 -22 10 -171 11 -330 0
-158 5 -319 10 -358 10 -72 13 -376 5 -520 -2 -44 0 -138 5 -210 13 -200 13
-419 0 -443 -6 -11 -11 -47 -11 -79 0 -97 -1 -98 -187 -100 -87 -1 -200 -6
-251 -10 -51 -5 -95 -7 -98 -4 -2 3 -2 70 1 150 3 80 7 299 10 486 3 187 8
356 10 375 3 19 1 69 -4 110 -12 87 -26 286 -25 345 0 22 4 94 8 160 11 183 7
324 -14 499 -11 88 -20 200 -19 250 1 131 1 145 -4 206 -4 47 3 101 18 147 3
8 13 9 33 4 15 -5 73 -7 128 -5z m898 -8 l200 -3 14 -65 c12 -53 13 -84 4
-165 -7 -66 -8 -103 -1 -111 6 -7 12 -70 14 -141 2 -70 6 -135 8 -143 14 -42
15 -77 6 -215 -5 -82 -12 -195 -14 -250 -2 -55 -7 -129 -11 -165 -4 -36 -6
-166 -5 -290 2 -426 -20 -801 -59 -1005 -12 -63 -14 -80 -8 -105 2 -12 -6 -15
-37 -14 -22 1 -83 -4 -135 -12 -100 -14 -349 -22 -366 -12 -10 7 -3 89 18 220
6 38 8 101 4 145 -10 125 -18 523 -30 1576 -3 186 -7 412 -11 502 -4 117 -3
165 5 170 7 5 9 21 5 46 l-7 38 59 3 c32 2 78 2 103 1 25 -2 135 -4 244 -5z
m556 -33 c178 -19 223 -25 233 -35 5 -4 10 -90 13 -191 2 -101 4 -193 4 -204
1 -30 2 -185 2 -220 -3 -276 4 -493 18 -535 9 -24 13 -189 16 -532 4 -457 2
-508 -16 -633 -11 -75 -20 -150 -20 -167 0 -16 -9 -43 -21 -59 -19 -27 -25
-29 -87 -29 -37 0 -80 -2 -97 -4 -16 -3 -70 -5 -120 -6 -49 -1 -117 -6 -149
-11 -45 -8 -61 -8 -67 2 -11 18 -5 91 14 179 32 144 48 439 51 955 2 191 8
367 15 419 24 175 27 413 9 621 -12 136 -21 434 -13 453 6 15 43 15 215 -3z
m655 -47 c50 1 127 4 173 6 109 4 114 0 102 -89 -6 -44 -5 -84 1 -107 5 -20 7
-76 4 -123 -2 -48 0 -108 6 -134 6 -25 13 -98 15 -161 2 -63 8 -158 14 -210
14 -133 23 -240 22 -275 -1 -16 -3 -151 -5 -300 -6 -312 -17 -626 -23 -637 -2
-4 -7 -64 -9 -135 -7 -166 -12 -220 -25 -243 -5 -10 -10 -45 -10 -78 0 -77
-10 -86 -87 -77 -32 4 -141 7 -243 7 -122 -1 -194 3 -213 11 -26 11 -27 15
-21 62 3 27 10 73 14 100 31 166 48 756 30 965 -6 69 -11 153 -10 187 1 33 -4
90 -11 125 -8 42 -11 167 -9 383 1 176 2 329 2 340 0 11 -3 95 -7 187 -8 219
-12 212 108 201 51 -4 133 -6 182 -5z"/>
<path d="M21654 4720 c-47 -19 -71 -100 -44 -149 13 -26 25 -177 13 -184 -5
-3 -47 -8 -93 -11 -45 -3 -88 -10 -94 -16 -5 -5 -18 -10 -28 -10 -27 0 -24
-51 5 -78 19 -18 36 -22 102 -23 44 0 87 -3 96 -5 23 -6 24 -100 2 -177 -15
-54 -15 -61 0 -93 20 -40 60 -60 97 -47 24 8 24 8 22 133 -4 203 0 207 135
189 95 -12 105 -8 120 50 9 38 -35 54 -180 68 -32 2 -60 10 -62 16 -7 21 -37
240 -39 282 -1 40 -11 66 -24 64 -4 0 -17 -4 -28 -9z"/>
<path d="M19768 4695 c-13 -14 -120 -22 -188 -15 -83 8 -113 1 -141 -33 -21
-25 -17 -70 10 -101 21 -23 22 -191 2 -252 -12 -37 -11 -44 4 -68 15 -23 16
-33 6 -64 -21 -69 -18 -127 8 -161 35 -46 251 -62 359 -26 73 24 119 85 74 99
-9 3 -71 4 -137 1 -114 -5 -120 -4 -157 20 -22 15 -38 33 -38 44 0 11 -2 25
-5 33 -9 25 12 39 66 43 166 14 258 38 260 67 2 26 -3 53 -13 66 -13 16 -182
16 -244 1 -64 -16 -71 -7 -69 93 2 68 6 84 21 95 12 7 71 14 149 16 139 5 205
23 205 54 0 9 -5 31 -12 49 -9 26 -18 33 -47 38 -45 7 -106 8 -113 1z"/>
<path d="M20725 4360 c-3 -5 -16 -10 -27 -10 -24 0 -98 -75 -98 -99 0 -8 -12
-28 -27 -44 -25 -25 -28 -35 -27 -95 0 -51 8 -83 29 -132 42 -97 61 -114 174
-157 29 -11 180 11 221 32 16 8 49 33 75 55 25 22 51 40 56 40 5 0 18 -14 27
-30 23 -40 48 -47 81 -22 24 18 26 25 25 91 0 39 -7 83 -14 97 -17 31 -4 57
30 62 16 3 34 -9 65 -43 49 -52 54 -74 41 -157 -7 -40 -6 -65 2 -83 13 -28 28
-30 85 -14 36 10 38 13 31 37 -4 15 -6 60 -5 100 2 68 0 76 -40 147 -59 103
-82 123 -157 136 l-62 11 -48 -43 c-42 -39 -79 -109 -65 -123 8 -8 -6 -56 -17
-56 -13 0 -81 -47 -95 -66 -21 -30 -86 -48 -170 -49 -94 0 -121 14 -141 72
-12 33 -12 39 3 50 21 16 107 41 159 46 42 4 86 30 112 68 10 15 13 36 8 73
-9 81 -64 116 -183 116 -23 0 -45 -4 -48 -10z m65 -108 c0 -12 -46 -32 -72
-32 -20 0 -21 1 -3 20 18 20 75 28 75 12z"/>
<path d="M20066 4315 c-19 -29 -19 -39 -5 -102 35 -154 85 -241 155 -273 24
-11 45 -20 48 -20 19 0 94 96 124 158 24 51 50 86 84 116 48 42 50 45 43 84
-6 35 -10 40 -37 44 -16 3 -35 0 -41 -7 -7 -6 -26 -19 -43 -29 -38 -23 -78
-82 -106 -158 -17 -48 -25 -58 -44 -58 -18 0 -29 11 -45 42 -22 43 -53 168
-44 177 9 8 -38 51 -56 51 -9 0 -24 -11 -33 -25z"/>
<path d="M19484 3364 c-15 -22 -15 -31 -4 -82 12 -52 15 -178 9 -400 -2 -67 0
-75 25 -101 36 -38 91 -55 152 -47 110 15 226 21 256 13 18 -4 38 -8 43 -8
133 4 140 6 150 37 l10 31 30 -19 c17 -10 40 -18 52 -18 15 0 28 -10 38 -29
32 -63 118 -102 167 -77 13 7 36 16 50 19 17 5 38 25 59 59 27 45 33 65 37
130 4 76 4 79 -29 124 -19 26 -50 63 -69 82 -39 38 -127 82 -165 82 -26 0 -80
-31 -126 -72 -31 -27 -74 -138 -64 -167 3 -11 1 -30 -6 -42 -11 -21 -15 -21
-103 -13 -111 11 -277 11 -331 1 -71 -13 -70 -17 -67 248 3 214 2 238 -14 256
-26 29 -79 25 -100 -7z m932 -390 c24 -23 32 -42 37 -85 9 -70 -12 -102 -68
-107 -34 -3 -42 1 -81 44 -24 26 -54 52 -66 58 -47 24 -13 97 62 136 32 16 36
17 60 1 14 -9 39 -30 56 -47z"/>
<path d="M20944 3140 c-12 -5 -25 -14 -29 -20 -4 -6 -19 -16 -33 -21 -14 -6
-58 -30 -98 -55 -79 -49 -87 -63 -100 -160 -6 -47 -4 -55 29 -100 39 -54 114
-112 155 -120 40 -7 149 60 167 103 25 59 55 41 76 -47 7 -30 17 -60 22 -67 5
-7 11 -47 13 -90 4 -74 3 -79 -24 -108 -64 -70 -138 -73 -272 -13 -46 21 -103
72 -135 121 -20 31 -44 34 -73 10 -26 -23 -20 -72 12 -105 52 -53 175 -148
192 -148 3 0 29 -12 57 -26 137 -68 326 16 348 156 11 69 -15 251 -43 305 -9
17 -19 46 -23 65 -4 19 -31 81 -61 136 -30 56 -54 115 -54 130 0 16 -4 34 -8
41 -9 15 -91 24 -118 13z m19 -212 c8 -43 6 -51 -20 -90 -49 -73 -120 -62
-143 21 -11 40 -10 42 78 93 63 36 75 33 85 -24z"/>
<path d="M33039 5106 c-2 -3 -42 -7 -89 -10 -47 -2 -132 -12 -190 -21 -58 -9
-168 -18 -245 -20 -249 -8 -356 -13 -371 -19 -9 -3 -28 1 -43 8 -17 10 -32 11
-42 5 -8 -5 -27 -9 -42 -9 -15 0 -42 -7 -58 -16 -17 -8 -37 -13 -45 -10 -8 3
-22 -4 -32 -16 -9 -12 -27 -32 -39 -45 -26 -27 -28 -40 -12 -80 7 -15 11 -43
10 -60 -2 -18 2 -33 7 -33 11 0 13 -158 2 -165 -10 -6 -4 -121 14 -265 8 -69
17 -179 20 -245 3 -67 10 -145 16 -175 6 -30 13 -136 15 -234 6 -226 -13 -309
-49 -221 -11 24 -34 47 -83 78 -66 42 -153 129 -153 153 0 6 -22 31 -48 55
-44 41 -82 97 -82 121 0 20 -53 78 -72 78 -36 0 -75 -29 -98 -73 l-23 -44 16
-159 c10 -92 17 -228 16 -324 -1 -141 -4 -171 -21 -204 -16 -33 -18 -46 -8
-88 7 -37 7 -60 -2 -90 -11 -38 -10 -42 11 -59 44 -36 72 -26 142 54 167 189
350 357 390 357 9 0 22 7 29 15 7 8 16 15 21 15 12 0 11 -160 -1 -196 -10 -28
-12 -63 -26 -339 -3 -66 -9 -145 -14 -175 -32 -202 -40 -270 -34 -318 4 -29 3
-86 -1 -128 -6 -63 -10 -77 -26 -81 -10 -3 -19 -13 -20 -22 -4 -63 19 -130 46
-132 28 -3 33 -4 41 -12 17 -16 88 -7 112 16 19 18 34 22 81 21 31 -1 67 -7
80 -13 16 -9 98 -14 260 -17 130 -2 277 -9 327 -15 66 -8 97 -8 112 0 14 8 41
7 101 -4 45 -8 86 -17 91 -20 15 -10 260 15 315 32 29 9 89 14 200 18 55 1
141 6 190 9 50 4 149 7 220 7 72 -1 168 0 215 1 146 2 425 0 688 -6 142 -3
263 -1 277 4 14 5 38 5 61 -2 33 -9 171 -14 499 -18 50 -1 171 2 270 6 214 8
178 9 355 -11 186 -21 493 -32 555 -20 11 2 37 4 58 4 30 1 39 6 47 25 5 13
14 27 19 31 16 9 13 73 -3 82 -26 15 -33 78 -29 285 3 131 0 226 -7 260 -13
59 -23 142 -21 173 7 110 6 1088 -1 1145 -5 41 -11 116 -13 165 -2 50 -6 124
-9 165 -7 84 -12 209 -19 483 -6 222 -5 221 -120 258 -54 17 -88 22 -137 20
-36 -2 -76 -4 -90 -3 -14 0 -166 3 -338 6 -172 3 -317 8 -323 11 -19 12 -413
8 -444 -5 -25 -9 -392 -25 -530 -22 -16 0 -55 1 -85 2 -80 1 -337 -11 -395
-19 -60 -8 -223 13 -320 41 -139 39 -223 50 -355 44 -118 -6 -252 -9 -330 -8
-19 1 -75 0 -125 0 -134 -2 -235 3 -241 13 -6 10 -18 12 -25 5z m121 -166 c69
-5 206 -10 305 -10 99 -1 187 -1 195 -2 8 0 40 3 70 7 87 12 219 6 290 -14
193 -53 208 -55 400 -53 102 1 208 3 235 4 28 1 70 0 95 -1 67 -5 683 17 855
30 107 8 171 8 225 1 41 -6 140 -11 220 -11 80 0 179 -4 220 -10 41 -5 79 -6
83 -2 14 14 278 1 308 -15 16 -8 39 -14 52 -14 14 0 29 -6 34 -12 18 -22 25
-107 29 -329 2 -119 8 -245 13 -279 6 -35 8 -67 5 -72 -3 -5 -1 -55 5 -111 6
-58 10 -308 10 -582 -1 -862 3 -1234 15 -1253 3 -6 2 -13 -3 -16 -5 -3 -9 -27
-8 -52 0 -29 -5 -49 -14 -55 -18 -12 -414 -4 -459 10 -52 15 -311 30 -506 30
-105 -1 -180 3 -192 10 -15 8 -29 7 -54 -3 -26 -11 -56 -12 -138 -5 -58 5
-193 8 -300 8 -107 0 -204 0 -215 0 -144 0 -500 14 -532 21 -25 6 -51 6 -65 1
-20 -7 -79 -9 -353 -12 -182 -1 -225 -2 -255 -6 -19 -2 -64 -5 -100 -8 -179
-12 -221 -16 -295 -26 -152 -20 -317 -22 -378 -4 -38 11 -80 15 -129 12 -40
-3 -82 -1 -93 3 -12 4 -79 4 -150 -2 -72 -5 -139 -9 -150 -9 -206 4 -272 8
-285 15 -8 6 -28 9 -45 8 -18 -1 -48 4 -68 13 -20 8 -43 12 -51 9 -9 -3 -19 3
-26 16 -20 38 0 348 31 470 6 25 13 113 14 195 2 83 8 162 13 176 10 25 21
239 26 489 3 168 -24 605 -52 841 -12 95 -7 297 8 344 8 24 6 39 -9 68 -18 36
-18 38 0 74 25 50 52 63 125 61 34 0 65 2 71 5 5 3 108 9 228 12 120 3 227 11
238 16 10 6 42 9 70 8 29 -2 77 3 107 9 30 6 64 14 75 16 21 4 48 3 255 -14z"/>
<path d="M32622 4724 c-25 -17 -29 -65 -11 -124 11 -38 14 -58 23 -195 12
-165 -34 -293 -113 -315 -29 -8 -44 -6 -83 12 -28 12 -50 30 -54 42 -4 12 -12
28 -20 36 -29 34 -45 145 -41 295 4 127 2 148 -14 175 -20 33 -34 36 -74 18
-29 -13 -27 -5 -27 -168 1 -139 9 -242 22 -280 4 -14 14 -47 22 -74 11 -41 24
-58 76 -102 35 -30 69 -54 75 -54 7 0 25 -7 42 -16 37 -19 117 -10 171 20 36
20 72 74 105 161 25 65 37 272 20 340 -6 22 -11 66 -11 98 0 58 -21 125 -43
139 -19 12 -41 9 -65 -8z"/>
<path d="M32962 4460 c-57 -26 -93 -55 -109 -88 -8 -15 -20 -38 -28 -52 -15
-26 -12 -76 8 -115 11 -22 57 -64 71 -65 5 0 38 -17 72 -37 59 -34 62 -38 44
-50 -11 -8 -55 -16 -99 -20 -67 -5 -86 -10 -112 -33 -32 -26 -32 -26 -15 -53
23 -35 93 -60 148 -54 106 11 238 95 238 151 0 34 -68 102 -119 119 -52 18
-119 76 -120 103 -2 47 88 91 163 80 34 -5 48 -3 69 14 29 23 35 56 15 82 -33
40 -155 50 -226 18z"/>
<path d="M33403 4338 c-4 -8 -28 -30 -53 -50 -40 -33 -49 -47 -78 -135 -35
-105 -36 -135 -7 -221 20 -60 30 -72 87 -101 45 -22 53 -23 175 -16 70 4 146
13 168 21 22 7 47 14 56 14 17 0 59 40 58 56 0 5 -13 20 -30 32 -26 21 -36 23
-87 18 -146 -16 -248 -17 -285 -4 -49 18 -52 32 -7 36 19 2 63 17 98 33 34 16
68 29 76 29 21 0 106 40 106 50 0 23 -22 117 -33 138 -6 13 -32 35 -57 50 -25
14 -52 31 -60 38 -24 19 -116 28 -127 12z m93 -106 c12 -7 38 -53 32 -55 -2
-1 -22 -12 -45 -24 -23 -13 -58 -23 -78 -23 -34 0 -35 1 -29 28 4 15 11 29 17
31 5 2 19 14 30 27 20 24 52 31 73 16z"/>
<path d="M34075 4317 c-53 -26 -94 -66 -164 -160 -35 -45 -41 -60 -32 -71 8
-9 10 -31 6 -60 -7 -50 3 -75 53 -128 33 -36 61 -35 95 0 32 33 35 72 7 97
-24 22 -25 50 -5 96 21 48 34 62 86 92 47 28 96 36 137 23 31 -10 102 22 102
46 0 26 -108 76 -180 83 -45 5 -64 2 -105 -18z"/>
<path d="M36282 3508 c-18 -27 -31 -62 -35 -93 -7 -59 16 -315 36 -395 8 -30
14 -69 13 -85 -1 -28 -4 -30 -46 -36 -63 -7 -173 -81 -192 -128 -16 -36 -9
-124 11 -167 10 -20 37 -51 61 -70 37 -29 50 -34 99 -34 50 0 186 40 201 60 3
3 19 16 36 28 38 26 46 52 28 88 -19 37 -19 40 22 77 l36 33 -45 49 c-82 93
-108 166 -127 364 -13 136 -9 205 15 253 21 43 19 50 -18 76 -47 31 -62 28
-95 -20z m107 -756 c14 -9 27 -17 29 -18 2 -1 -12 -16 -30 -34 -49 -49 -104
-71 -153 -60 -57 13 -82 53 -50 80 57 47 155 63 204 32z"/>
<path d="M32565 3303 c-11 -2 -29 -8 -40 -12 -11 -5 -40 -15 -65 -22 -142 -42
-263 -141 -342 -277 -27 -48 -29 -59 -23 -108 7 -55 36 -117 77 -165 34 -40
171 -109 266 -135 72 -19 94 -21 155 -13 40 5 99 12 132 15 67 7 165 48 165
69 0 35 -41 43 -240 48 -122 3 -214 11 -247 20 -75 20 -130 62 -160 120 -22
44 -23 53 -12 81 19 49 55 92 106 126 26 18 52 33 58 34 6 1 26 14 45 28 39
29 102 47 167 48 40 0 44 3 58 36 8 20 15 42 15 49 0 12 -73 66 -87 64 -5 -1
-17 -3 -28 -6z"/>
<path d="M34197 3059 c-43 -37 -59 -76 -83 -196 -13 -70 -15 -99 -7 -116 11
-23 1 -58 -12 -45 -3 3 -16 34 -29 69 -57 158 -135 269 -189 269 -28 0 -92
-55 -111 -95 -9 -19 -21 -35 -25 -35 -5 0 -21 17 -37 38 -35 46 -47 56 -107
88 -58 30 -99 26 -124 -14 -9 -15 -39 -49 -67 -77 -28 -27 -56 -60 -61 -73
l-10 -23 -27 21 c-15 11 -33 33 -40 48 -8 16 -32 36 -60 49 -25 12 -49 27 -53
32 -3 6 -27 11 -53 11 -35 0 -58 -7 -87 -27 -82 -55 -115 -121 -115 -227 0
-52 5 -69 33 -111 l33 -50 74 0 c41 0 84 -5 96 -12 12 -7 45 -10 81 -8 56 4
65 8 102 44 24 24 41 50 41 63 0 13 4 29 9 37 7 11 11 10 20 -7 6 -11 11 -27
11 -35 0 -22 21 -35 66 -43 39 -6 42 -4 62 31 17 28 20 41 11 56 -5 11 -13 51
-16 90 -5 62 -4 72 15 89 12 11 25 20 29 20 14 0 90 -83 97 -105 4 -11 23 -32
43 -47 55 -43 111 -22 134 51 15 47 27 61 45 54 18 -7 45 -57 55 -103 8 -36
33 -116 50 -157 7 -19 16 -23 48 -23 55 0 71 8 71 36 0 32 18 31 26 -1 13 -54
115 -71 128 -22 10 40 6 94 -8 106 -8 7 -18 26 -21 42 -7 31 12 168 26 183 5
5 18 2 32 -7 18 -12 26 -28 31 -66 9 -65 44 -103 90 -94 32 5 66 36 66 59 0
20 39 81 56 88 8 3 30 -9 52 -29 39 -35 62 -85 112 -240 24 -74 53 -115 80
-115 8 0 30 13 48 29 34 32 34 40 -2 110 -20 40 -57 132 -66 166 -6 26 -64
120 -102 165 -7 9 -29 25 -48 37 -57 35 -170 12 -170 -34 0 -24 -39 -14 -54
15 -17 33 -83 72 -123 72 -19 0 -43 -11 -66 -31z m-1047 -197 c36 -24 73 -64
89 -95 12 -23 12 -29 -3 -52 -13 -19 -25 -25 -54 -25 -20 1 -48 7 -61 14 -19
10 -32 11 -54 3 -25 -8 -32 -7 -43 8 -21 29 4 104 48 145 27 25 45 25 78 2z"/>
<path d="M35581 3055 c-9 -11 -32 -32 -52 -47 -36 -27 -80 -90 -94 -138 -4
-14 -16 -35 -25 -47 -24 -31 -36 -129 -18 -150 11 -14 11 -15 -2 -11 -13 4
-31 40 -65 128 -7 19 -27 54 -42 71 -6 8 -14 30 -18 49 -8 40 -39 78 -73 91
-18 7 -38 2 -85 -21 -34 -16 -68 -30 -76 -30 -16 0 -73 -40 -112 -79 -55 -55
-78 -123 -68 -199 6 -45 14 -59 46 -88 35 -31 43 -34 103 -34 92 0 136 27 173
103 26 54 47 73 47 43 0 -7 7 -19 15 -26 8 -7 15 -20 15 -29 0 -9 19 -36 43
-59 39 -38 47 -42 87 -39 45 2 45 2 42 36 -2 33 -2 34 31 28 19 -3 38 -2 44 1
18 13 43 92 43 137 0 45 24 109 59 154 13 18 31 25 67 28 74 7 79 -2 81 -166
2 -94 7 -139 16 -148 20 -20 97 -20 112 0 15 21 18 146 6 233 -12 85 -43 145
-98 194 -47 41 -48 41 -116 38 -55 -2 -73 -7 -86 -23z m-461 -238 c0 -7 -7
-23 -15 -37 -7 -14 -20 -39 -28 -56 -16 -35 -65 -50 -93 -29 -13 9 -14 15 -2
40 13 32 30 47 88 81 36 21 50 22 50 1z"/>
<path d="M17120 5067 c-13 -7 -29 -22 -35 -34 -6 -11 -17 -28 -24 -37 -11 -13
-11 -27 -1 -75 7 -33 9 -69 4 -82 -9 -28 -8 -23 -25 -124 -11 -64 -22 -93 -56
-147 -41 -63 -97 -118 -120 -118 -12 0 -37 49 -55 110 -18 62 -17 317 1 393
17 68 6 103 -35 113 -62 16 -89 -70 -86 -276 3 -233 23 -336 84 -414 43 -56
43 -56 98 -56 50 0 60 4 101 40 71 60 179 257 179 324 0 12 6 53 14 91 8 39
17 112 21 163 6 76 4 97 -9 117 -19 29 -22 29 -56 12z"/>
<path d="M15090 5039 c-131 -41 -170 -75 -178 -158 -7 -78 36 -134 162 -210
32 -19 61 -42 67 -53 5 -10 32 -29 60 -43 43 -23 69 -53 69 -83 0 -16 -44 -33
-99 -38 -58 -7 -58 -6 -69 23 -9 28 -14 30 -51 28 -48 -3 -85 -25 -105 -64
-14 -27 -14 -29 22 -68 78 -84 224 -77 379 16 50 30 60 54 43 108 -27 85 -44
110 -95 137 -27 15 -70 45 -95 67 -25 22 -73 61 -107 86 -39 27 -63 52 -63 63
0 20 38 52 51 44 5 -3 18 0 29 6 17 9 131 28 210 34 46 4 70 27 70 67 0 47 -8
50 -135 55 -81 3 -112 0 -165 -17z"/>
<path d="M14590 4982 c-39 -12 -65 -63 -44 -85 7 -7 14 -56 17 -117 2 -35 2
-35 -38 -32 -22 2 -44 7 -50 12 -25 20 -74 21 -99 3 -48 -35 -27 -85 44 -105
14 -4 49 -14 79 -22 57 -16 74 -31 66 -55 -7 -18 -8 -221 -1 -241 2 -8 7 -27
10 -42 6 -26 10 -28 51 -28 40 0 47 3 56 28 7 17 8 54 3 102 -4 41 -8 100 -9
130 l0 55 89 7 c123 9 136 13 136 43 0 36 -36 55 -134 69 -48 7 -88 15 -91 18
-3 3 -8 54 -10 114 -5 104 -6 109 -33 130 -15 11 -34 19 -42 16z"/>
<path d="M11787 4952 c-17 -17 -27 -39 -27 -57 0 -33 -77 -243 -96 -263 -7 -6
-20 -38 -29 -70 -9 -31 -22 -70 -29 -87 -7 -16 -19 -46 -26 -65 -8 -19 -21
-46 -30 -60 -29 -44 -31 -60 -9 -91 22 -31 51 -37 94 -17 26 11 27 14 30 59 3
34 41 89 63 89 9 0 53 11 97 25 111 34 119 33 145 -17 35 -66 71 -167 81 -227
6 -30 12 -58 15 -63 9 -14 68 -9 92 8 31 21 28 43 -18 138 -22 46 -42 101 -46
123 -6 38 -4 41 30 62 43 27 56 21 56 -27 0 -54 63 -125 130 -147 27 -9 52
-21 56 -26 6 -11 157 -3 215 12 20 5 57 25 82 44 25 19 49 35 53 35 4 0 21
-17 39 -37 l32 -37 97 -4 97 -4 39 41 c43 45 48 65 25 91 -13 15 -23 16 -68 8
-63 -12 -136 -5 -148 13 -16 25 -10 84 10 106 11 11 40 25 66 32 40 10 49 17
65 54 19 41 19 42 -1 62 -44 45 -170 9 -231 -67 -24 -29 -32 -51 -40 -118
l-11 -82 -39 6 c-28 5 -46 1 -65 -11 -21 -14 -47 -18 -118 -17 -107 2 -150 18
-158 61 -9 47 39 82 133 98 24 4 66 20 94 35 57 32 69 59 39 92 -30 33 -148
17 -275 -38 -24 -11 -49 -35 -73 -70 -38 -59 -59 -68 -69 -30 -7 27 -62 52
-94 42 -10 -3 -25 0 -33 6 -9 7 -39 85 -68 173 -79 244 -111 283 -174 217z
m73 -218 c0 -20 28 -113 42 -138 16 -30 -17 -53 -89 -61 -35 -4 -63 -3 -63 2
0 4 9 22 20 38 11 17 20 41 20 55 0 14 7 34 15 44 8 11 15 29 15 41 0 24 19
47 32 39 4 -3 8 -12 8 -20z"/>
<path d="M15497 4849 c-37 -21 -40 -48 -11 -91 50 -72 100 -89 130 -43 15 23
15 27 -5 57 -49 77 -79 96 -114 77z"/>
<path d="M13592 4691 c-24 -10 -47 -23 -51 -29 -4 -6 -6 -41 -5 -77 1 -43 -2
-65 -10 -65 -10 1 -49 48 -85 105 -8 12 -33 32 -57 44 -102 54 -222 29 -276
-57 -18 -30 -23 -52 -23 -117 -2 -118 18 -160 104 -219 37 -25 75 -46 83 -46
43 0 150 44 196 80 46 37 51 45 61 102 13 73 27 93 37 52 16 -69 39 -129 56
-146 13 -13 33 -18 76 -18 63 0 86 12 157 78 36 35 45 39 55 27 6 -8 9 -19 6
-24 -4 -5 8 -26 26 -46 29 -34 35 -37 75 -32 33 3 44 1 48 -12 7 -20 51 -71
62 -71 15 0 60 65 66 97 3 17 2 44 -2 61 -13 44 -2 81 28 97 29 14 61 5 61
-19 0 -7 9 -21 19 -30 11 -10 33 -46 50 -81 38 -81 76 -95 135 -50 17 13 17
16 -14 61 -17 26 -40 70 -51 98 -33 88 -147 186 -201 173 -32 -8 -105 -72
-123 -108 -8 -15 -15 -41 -15 -56 0 -15 -4 -34 -9 -42 -8 -12 -13 -12 -33 1
-17 11 -28 34 -41 87 -28 119 -41 141 -79 141 -46 0 -83 -38 -105 -106 -21
-67 -63 -117 -94 -112 -33 5 -50 69 -41 152 8 60 7 68 -10 77 -10 5 -17 13
-17 17 6 35 1 37 -59 13z m-246 -143 c43 -22 74 -62 74 -94 0 -30 -111 -114
-123 -93 -1 2 -12 18 -25 36 -12 18 -22 37 -22 43 0 5 -4 10 -9 10 -5 0 -12 8
-15 18 -2 9 -7 27 -11 39 -5 18 0 27 27 43 42 25 54 25 104 -2z"/>
<path d="M17308 4689 c-21 -5 -56 -21 -79 -36 -37 -24 -40 -30 -38 -67 1 -23
-1 -56 -5 -74 -5 -23 -3 -40 7 -55 16 -25 32 -99 28 -137 -1 -14 5 -45 13 -68
9 -24 19 -86 22 -139 8 -110 20 -132 79 -140 39 -5 40 -4 51 30 6 22 7 42 1
52 -11 21 -38 199 -35 239 1 18 -1 36 -4 41 -4 6 21 10 61 11 53 0 75 5 98 22
44 31 67 71 64 112 -2 37 -52 119 -98 161 -66 60 -87 67 -165 48z m73 -123
c75 -31 93 -89 29 -89 -55 0 -90 12 -90 30 0 9 -8 25 -17 35 -15 17 -15 20 -3
28 21 13 42 12 81 -4z"/>
<path d="M16218 4666 l-38 -10 0 -147 c0 -122 3 -149 16 -160 9 -7 20 -24 25
-37 8 -20 15 -23 46 -20 37 3 38 5 44 48 14 94 38 165 64 188 l26 22 35 -26
c19 -15 34 -30 34 -35 0 -4 13 -36 29 -70 23 -51 27 -67 19 -85 -8 -17 -8 -27
2 -39 16 -19 69 -19 94 0 16 13 17 19 6 67 -7 29 -18 65 -26 80 -8 14 -14 31
-14 37 0 14 -60 111 -81 131 -50 47 -68 59 -105 65 -34 5 -45 3 -60 -13 -31
-32 -61 -36 -71 -10 -7 21 -11 22 -45 14z"/>
<path d="M15849 4602 c-53 -42 -119 -115 -119 -129 0 -6 -7 -16 -15 -23 -8 -7
-15 -22 -15 -34 0 -12 -5 -27 -12 -34 -8 -8 -1 -24 29 -64 56 -75 56 -75 38
-101 -21 -32 -10 -103 20 -132 56 -52 100 -83 136 -95 36 -12 47 -11 110 9 59
19 75 29 100 64 l30 41 -7 106 c-4 58 -13 122 -20 144 -8 21 -14 48 -14 60 -1
11 -9 37 -18 56 -14 28 -16 42 -8 68 12 40 3 48 -61 58 -23 3 -50 15 -59 25
-26 29 -64 22 -115 -19z m101 -114 c0 -23 -60 -78 -85 -78 -24 0 -24 0 -7 29
25 45 92 80 92 49z m74 -174 c3 -9 9 -39 12 -68 11 -91 -21 -126 -117 -126
-32 0 -49 23 -49 67 0 16 -5 34 -11 40 -16 16 7 53 32 53 11 0 37 11 57 25 42
29 67 32 76 9z"/>
<path d="M15550 4558 c-11 -12 -20 -24 -21 -27 -6 -33 -9 -74 -10 -112 0 -37
5 -52 25 -72 22 -22 30 -25 55 -16 40 14 49 42 44 134 -4 66 -9 83 -27 97 -28
23 -41 22 -66 -4z"/>
<path d="M4920 4363 c-8 -3 -23 -12 -32 -21 -23 -19 -25 -87 -3 -96 9 -3 15
-18 15 -34 0 -16 3 -32 6 -35 4 -4 15 -30 25 -59 18 -52 18 -53 -2 -69 -22
-16 -36 -17 -244 -4 -60 4 -146 9 -190 11 -44 2 -107 7 -140 12 -33 6 -78 8
-100 5 -48 -6 -47 -6 -155 1 -47 2 -137 8 -201 12 -156 9 -499 9 -579 0 -147
-16 -444 -24 -523 -13 -57 7 -57 7 -102 -34 -41 -38 -59 -79 -35 -79 6 0 10
-9 10 -20 0 -37 106 -81 124 -51 12 19 101 31 271 36 473 12 891 14 925 3 19
-6 122 -12 235 -13 110 -1 243 -7 295 -14 52 -6 160 -14 240 -17 191 -8 205
-9 205 -20 -1 -44 -17 -147 -29 -178 -18 -52 -5 -89 40 -115 44 -26 60 -26
109 -1 22 11 45 20 52 20 6 0 29 10 49 22 62 36 256 118 281 118 13 0 31 9 41
21 9 11 35 38 56 60 28 27 39 48 40 69 1 29 -5 34 -81 72 -45 22 -92 53 -104
69 -12 16 -25 29 -30 29 -4 0 -35 26 -69 58 -34 31 -94 81 -133 109 -40 29
-85 64 -102 78 -16 13 -35 25 -42 25 -6 0 -13 10 -15 23 -3 19 -10 22 -48 24
-25 1 -52 -1 -60 -4z"/>
<path d="M1565 4314 c-48 -18 -132 -42 -200 -56 -233 -49 -352 -95 -431 -167
-43 -40 -94 -110 -94 -130 0 -7 -16 -41 -35 -75 -99 -177 -133 -442 -79 -619
18 -61 83 -195 118 -247 59 -85 67 -94 146 -160 30 -25 74 -63 99 -86 59 -53
121 -94 142 -94 27 0 78 -30 73 -44 -3 -7 5 -21 17 -32 26 -24 97 -24 133 -1
22 15 28 15 59 2 19 -8 36 -12 39 -10 10 11 175 3 240 -11 19 -4 37 1 64 20
28 19 52 26 85 26 53 0 172 37 221 69 18 11 56 32 83 45 91 43 217 191 241
283 6 23 24 61 40 84 16 23 30 52 31 63 1 12 7 59 13 106 6 47 12 103 12 125
1 70 -31 235 -50 258 -6 7 -10 14 -10 17 0 3 -3 29 -7 57 -5 41 -14 60 -41 87
-19 19 -34 40 -34 48 0 7 -12 25 -28 39 -15 15 -40 51 -54 80 -26 52 -71 109
-86 109 -4 0 -16 14 -27 30 -11 16 -26 30 -33 30 -19 0 -110 48 -131 69 -19
19 -116 54 -186 66 -22 4 -79 7 -127 6 -62 -2 -95 2 -117 13 -36 19 -36 19
-86 0z m192 -178 c18 -4 63 -8 100 -10 54 -1 81 -8 132 -34 36 -18 72 -32 82
-32 19 0 199 -174 199 -192 0 -5 18 -32 41 -59 22 -27 39 -56 38 -66 -2 -10 4
-29 13 -43 25 -38 50 -120 44 -143 -3 -12 2 -29 11 -39 12 -14 15 -39 14 -119
-1 -56 -4 -105 -7 -110 -3 -5 -7 -34 -9 -63 -5 -98 -57 -185 -187 -315 -67
-67 -158 -108 -283 -126 -44 -7 -111 -21 -150 -31 -92 -25 -171 -18 -215 20
-36 29 -52 31 -131 12 -73 -17 -128 -3 -205 50 -31 21 -67 46 -79 54 -11 8
-39 32 -60 53 -21 21 -49 40 -62 43 -14 4 -32 22 -43 43 -10 21 -26 43 -34 50
-9 8 -16 19 -16 26 0 8 -4 15 -9 17 -18 7 -71 119 -80 169 -6 30 -14 74 -19
98 -12 52 10 236 32 279 8 15 18 46 22 67 4 22 25 74 47 116 46 88 100 135
187 164 30 9 69 25 87 36 40 22 84 36 194 58 47 10 93 22 102 27 19 11 195 10
244 0z"/>
<path d="M1860 3848 c-19 -5 -42 -16 -51 -24 -8 -8 -20 -14 -26 -14 -12 0 -47
-37 -62 -67 -34 -66 50 -176 157 -205 71 -20 118 -13 149 21 22 24 24 32 19
106 -6 102 -19 137 -61 169 -36 27 -67 31 -125 14z"/>
<path d="M1243 3813 c-109 -62 -127 -116 -69 -208 46 -71 63 -79 149 -72 64 6
74 9 109 44 30 30 38 44 38 74 0 20 -7 42 -15 49 -8 7 -15 18 -15 26 0 31 -25
62 -66 82 -54 27 -89 28 -131 5z"/>
<path d="M1990 3246 c-55 -6 -118 -8 -149 -3 -29 4 -68 4 -85 -1 -17 -5 -107
-10 -201 -11 -171 -1 -298 -13 -346 -32 -22 -8 -28 -19 -33 -53 -4 -23 -4 -50
0 -59 3 -10 1 -24 -6 -32 -19 -23 -10 -26 66 -14 91 14 246 14 310 1 32 -6 66
-7 90 -2 24 6 64 5 104 -1 42 -7 71 -7 85 0 11 5 59 14 107 20 48 5 96 16 107
23 16 10 30 9 71 -1 29 -7 55 -9 59 -5 15 17 26 69 23 107 -3 33 -8 41 -35 52
-54 22 -69 23 -167 11z"/>
<path d="M18127 4111 c-30 -32 -30 -60 -2 -127 20 -49 29 -120 16 -128 -16
-10 -14 -41 4 -56 16 -14 21 -85 6 -94 -22 -14 -653 -2 -678 13 -8 4 -34 4
-57 0 -69 -14 -171 -10 -202 6 -20 11 -45 14 -79 10 -27 -3 -75 -1 -105 5 -30
6 -104 12 -165 14 -60 2 -128 8 -150 13 -22 4 -125 7 -230 5 -104 -2 -262 -4
-350 -6 -121 -2 -175 -7 -220 -21 -62 -19 -162 -29 -275 -27 -87 1 -159 8
-167 16 -3 3 -27 6 -52 6 -25 0 -62 5 -81 10 -19 6 -132 13 -250 15 -118 3
-251 8 -296 13 -44 4 -125 5 -179 1 -120 -8 -503 -3 -527 6 -10 4 -38 -1 -62
-10 -39 -15 -87 -18 -358 -18 -280 0 -520 6 -663 16 -27 2 -60 1 -71 -4 -38
-14 -306 -16 -464 -4 -85 7 -218 11 -295 10 -77 -2 -174 1 -215 7 -41 5 -111
13 -155 18 -44 6 -93 13 -110 16 -41 9 -510 16 -560 9 -36 -5 -43 -10 -58 -47
-10 -22 -16 -47 -13 -54 8 -20 79 -52 99 -45 10 4 58 6 108 5 49 -1 92 2 95 7
3 5 15 3 27 -5 15 -10 60 -14 148 -15 70 0 171 -7 226 -15 54 -9 115 -13 135
-9 20 3 52 0 70 -6 70 -25 1161 -31 1185 -7 3 3 14 1 23 -4 17 -9 200 -20 420
-25 58 -1 137 2 175 8 48 7 89 7 130 -1 47 -8 79 -7 150 6 96 16 121 17 670 8
608 -9 648 -11 675 -26 17 -9 69 -14 172 -15 126 -2 153 -5 190 -24 57 -27 78
-27 138 5 44 23 175 47 255 46 49 -1 76 0 165 3 52 2 140 4 195 6 145 5 438
-10 525 -26 41 -8 129 -17 195 -20 66 -3 143 -10 170 -16 56 -12 49 -11 200
-10 61 0 148 0 195 0 47 0 114 3 150 6 36 2 76 6 90 7 60 5 108 -3 114 -17 3
-9 1 -61 -4 -116 -7 -77 -16 -114 -37 -155 -24 -47 -25 -56 -14 -77 9 -16 11
-39 6 -65 -5 -34 -3 -43 16 -61 33 -31 54 -26 108 24 55 51 219 165 238 165 7
0 25 14 40 30 14 17 31 30 38 30 6 0 40 19 75 42 68 43 229 118 258 118 24 1
60 33 67 61 13 51 -101 154 -246 223 -31 14 -61 26 -67 26 -6 0 -17 6 -24 13
-7 6 -40 30 -73 52 -132 87 -231 163 -284 217 -70 71 -88 77 -124 39z"/>
<path d="M27132 3577 c-40 -42 0 -100 77 -112 20 -4 47 -11 60 -16 16 -7 41
-6 78 2 41 9 56 10 65 1 19 -19 44 -14 56 13 9 20 8 31 -8 58 -27 45 -50 54
-150 62 -47 3 -101 8 -120 11 -29 5 -39 1 -58 -19z"/>
<path d="M28105 3526 c-16 -42 -16 -48 -2 -69 18 -28 58 -37 173 -37 93 0 114
13 114 72 0 43 -8 47 -110 59 -41 4 -94 11 -116 15 l-41 6 -18 -46z"/>
<path d="M28558 3555 c-35 -20 -38 -65 -6 -95 27 -25 38 -27 155 -34 105 -5
123 3 123 58 0 49 -20 70 -59 63 -17 -4 -41 -3 -54 2 -49 19 -131 22 -159 6z"/>
<path d="M27590 3541 c-25 -49 -2 -86 67 -107 66 -20 307 -10 299 13 -3 8 -6
23 -6 34 0 42 -33 58 -123 58 -46 0 -96 5 -111 11 -47 18 -114 13 -126 -9z"/>
<path d="M29000 3543 c-62 -24 -99 -85 -67 -110 25 -21 114 -35 151 -24 20 5
61 7 90 4 49 -5 54 -4 61 17 18 58 -16 111 -63 96 -16 -5 -108 6 -142 17 -8 3
-22 3 -30 0z"/>
<path d="M3270 3514 c-39 -25 -73 -54 -175 -150 -71 -67 -130 -111 -237 -175
-67 -41 -78 -53 -78 -89 0 -14 -7 -37 -15 -53 -13 -26 -12 -29 23 -63 41 -40
120 -84 152 -84 11 0 37 -10 58 -23 20 -12 50 -29 66 -37 15 -8 46 -31 67 -52
21 -20 56 -46 77 -57 22 -11 76 -45 122 -75 87 -59 141 -77 171 -57 11 6 24
11 31 11 20 1 58 37 58 55 0 9 -15 32 -34 51 -31 31 -34 39 -33 89 1 42 -4 61
-22 85 -13 19 -21 42 -19 58 3 29 10 30 103 17 22 -3 92 -12 155 -21 63 -9
124 -20 135 -24 48 -19 62 -23 90 -21 17 1 50 -4 75 -12 25 -7 77 -14 115 -15
39 -1 85 -6 102 -11 19 -6 48 -5 73 0 24 6 66 6 103 0 34 -5 71 -9 82 -9 134
-1 232 -7 241 -14 6 -4 92 -6 190 -3 194 6 198 6 294 4 36 -1 90 3 120 9 30 6
89 14 130 17 41 3 82 8 90 11 24 7 51 70 41 96 -12 30 -47 59 -63 53 -19 -7
-172 -16 -250 -15 -37 1 -73 -2 -79 -5 -22 -14 -155 -19 -394 -15 -82 2 -168
0 -190 -4 -25 -4 -52 -2 -70 5 -17 7 -55 13 -85 14 -368 14 -417 19 -520 50
-25 7 -63 17 -85 21 -22 3 -44 9 -50 13 -5 3 -32 7 -60 8 -47 3 -153 16 -220
29 -16 3 -50 6 -75 7 -36 2 -45 6 -48 22 -2 11 -10 34 -17 51 -8 17 -17 74
-21 127 -3 54 -12 118 -18 144 -10 41 -16 48 -42 53 -20 4 -39 0 -64 -16z"/>
<path d="M29328 3492 c-16 -15 -28 -35 -28 -45 0 -23 79 -60 136 -63 23 -1 51
-8 61 -15 13 -7 33 -9 57 -5 29 6 40 14 53 41 16 33 15 36 -2 55 -11 12 -31
20 -51 20 -18 0 -61 9 -96 20 -81 25 -97 25 -130 -8z"/>
<path d="M29797 3466 c-18 -16 -27 -33 -23 -42 3 -9 6 -19 6 -24 0 -5 14 -16
32 -24 24 -12 47 -15 93 -10 40 4 70 2 83 -5 17 -9 32 -9 65 0 23 7 45 15 49
18 4 3 2 25 -4 49 -10 41 -12 42 -52 43 -22 1 -50 3 -61 5 -11 2 -51 6 -90 10
-66 6 -72 5 -98 -20z"/>
<path d="M30233 3473 c-29 -6 -53 -40 -53 -75 0 -31 -3 -30 184 -73 60 -14
113 -22 117 -18 9 9 13 36 11 70 -2 27 -69 63 -116 63 -17 1 -49 9 -71 20 -22
11 -42 19 -45 18 -3 0 -15 -3 -27 -5z"/>
<path d="M31080 3468 c-41 -5 -79 -13 -83 -17 -5 -5 -5 -29 -2 -54 6 -41 11
-47 40 -57 22 -7 46 -8 76 -1 24 6 67 11 96 11 71 0 113 25 108 63 -7 51 -30
67 -99 66 -34 -1 -95 -6 -136 -11z"/>
<path d="M30765 3445 c-14 -11 -32 -13 -66 -9 -39 5 -50 3 -68 -15 -26 -26
-27 -61 -3 -91 19 -23 24 -23 202 -18 14 1 33 -3 43 -7 14 -6 17 -2 17 18 0
14 5 29 10 32 30 19 -10 77 -62 89 -14 3 -32 8 -40 11 -7 2 -22 -2 -33 -10z"/>
<path d="M2367 2263 c-14 -16 -13 -24 9 -92 13 -41 28 -79 33 -85 5 -6 12 -24
15 -41 4 -16 18 -43 31 -60 l24 -29 36 17 c30 14 35 22 35 51 0 18 -7 39 -15
46 -8 7 -15 20 -15 29 0 9 -4 21 -8 27 -4 5 -19 36 -32 69 -12 33 -27 66 -33
73 -14 18 -61 15 -80 -5z"/>
<path d="M2178 2254 c-28 -14 -36 -38 -19 -48 5 -3 12 -21 15 -39 3 -19 17
-44 31 -57 14 -13 25 -34 25 -48 0 -26 31 -77 64 -104 34 -28 81 -23 105 11
12 16 21 34 21 40 0 6 -19 32 -42 58 -24 27 -58 79 -77 116 -19 37 -40 67 -47
67 -8 0 -14 5 -14 10 0 14 -31 12 -62 -6z"/>
<path d="M5273 2162 c-38 -4 -50 -21 -51 -75 -1 -21 -10 -50 -20 -65 -19 -27
-52 -105 -52 -121 0 -21 53 -71 75 -71 24 0 57 36 67 75 4 11 20 58 38 105 18
47 34 94 37 106 8 34 -30 52 -94 46z"/>
<path d="M2675 2006 c-63 -24 -96 -48 -121 -87 -25 -40 -25 -41 -8 -85 27 -71
74 -121 160 -172 43 -26 78 -51 78 -57 -1 -5 -18 -18 -38 -28 -35 -17 -40 -17
-93 0 -53 17 -56 17 -69 -2 -27 -36 -18 -60 36 -91 30 -18 48 -20 129 -17 126
6 164 29 176 110 6 39 3 46 -30 82 -20 22 -58 49 -85 60 -135 58 -164 169 -42
160 20 -2 56 0 80 5 50 9 61 34 39 88 -11 27 -22 37 -47 42 -48 9 -131 5 -165
-8z"/>
<path d="M3183 1921 c-14 -13 -23 -39 -28 -73 -4 -29 -11 -70 -16 -90 -10 -39
-46 -81 -61 -72 -4 3 -8 42 -8 88 0 52 -5 89 -13 100 -12 16 -16 17 -48 3 -56
-23 -62 -37 -60 -137 2 -77 5 -95 26 -126 32 -46 68 -74 97 -74 40 0 110 30
130 55 24 31 32 31 46 0 7 -14 18 -28 26 -31 19 -7 96 14 96 27 0 6 -10 31
-22 57 -12 26 -22 52 -23 57 -1 10 -7 33 -26 110 -20 76 -32 110 -43 117 -20
14 -52 8 -73 -11z"/>
<path d="M4693 1852 c-85 -40 -103 -61 -103 -119 0 -41 4 -49 53 -94 28 -27
60 -51 70 -55 9 -3 17 -10 17 -15 0 -5 4 -9 10 -9 5 0 35 -12 67 -26 l58 -27
-35 -8 c-19 -5 -86 -6 -147 -3 -106 6 -113 5 -113 -12 0 -44 13 -62 53 -78 80
-30 118 -30 185 -2 34 14 66 26 72 26 6 0 19 -14 29 -31 59 -97 253 -117 317
-34 21 27 23 38 15 54 -6 11 -11 30 -11 43 0 15 -24 48 -70 95 -38 40 -70 76
-70 81 0 5 18 14 40 21 56 17 92 50 84 79 -6 21 -11 22 -119 22 l-114 0 -20
-29 c-33 -46 -25 -110 18 -151 9 -9 43 -34 76 -58 62 -43 93 -79 78 -92 -4 -4
-24 -10 -45 -13 -28 -4 -43 0 -69 19 -18 13 -43 24 -56 24 -12 0 -27 8 -32 19
-6 10 -22 22 -36 25 -24 6 -25 7 -9 31 10 15 12 25 5 25 -6 0 -11 6 -11 13 0
7 -10 19 -22 27 -12 8 -32 25 -44 38 -11 12 -28 22 -37 22 -19 0 -57 46 -57
70 0 20 40 40 80 40 45 0 79 17 92 46 11 23 9 28 -12 44 -43 32 -110 29 -187
-8z"/>
<path d="M3491 1813 c-50 -51 -73 -83 -89 -125 l-21 -57 20 -48 c14 -33 35
-59 67 -83 26 -19 53 -41 60 -47 29 -28 170 0 211 41 l24 25 29 -22 c15 -12
47 -37 69 -54 44 -35 50 -37 123 -27 35 5 57 16 82 40 l35 33 45 -44 c52 -50
91 -60 160 -45 53 12 145 55 156 73 27 42 -12 58 -106 41 -92 -17 -96 -17 -96
1 0 9 23 25 54 39 113 50 156 95 156 160 0 39 -5 45 -61 82 -86 58 -151 52
-227 -20 -44 -40 -67 -87 -82 -163 l-12 -61 -73 -7 c-85 -8 -110 2 -120 44 -5
23 0 41 20 75 26 45 32 49 93 61 22 5 36 15 42 31 10 25 4 54 -11 54 -5 0 -9
7 -9 15 0 11 -13 15 -53 15 -51 0 -55 -2 -110 -55 -63 -62 -85 -97 -95 -158
l-8 -42 -86 -7 c-68 -6 -95 -4 -123 8 -34 14 -36 17 -30 47 14 61 30 88 80
125 30 22 51 47 53 61 5 33 -25 61 -66 61 -29 0 -44 -10 -101 -67z m829 -98
c0 -17 -44 -49 -60 -43 -15 5 27 58 46 58 8 0 14 -7 14 -15z"/>
</g>
</svg>
