<?xml version="1.0" standalone="no"?>
<!DOCTYPE svg PUBLIC "-//W3C//DTD SVG 20010904//EN"
 "http://www.w3.org/TR/2001/REC-SVG-20010904/DTD/svg10.dtd">
<svg version="1.0" xmlns="http://www.w3.org/2000/svg"
 width="1859.028726pt" height="400.000000pt" viewBox="0 0 1859.028726 400.000000"
 preserveAspectRatio="xMidYMid meet">
<metadata>
Created by potrace 1.15, written by Peter Selinger 2001-2017
</metadata>
<g transform="translate(-81.439518,456.837119) scale(0.115517,-0.115517)"
fill="#444444" stroke="none">
<path d="M12381 3946 c-7 -8 -9 -25 -6 -38 9 -35 13 -93 14 -200 1 -89 3 -97
22 -103 34 -11 41 7 40 96 -3 134 -8 239 -12 243 -15 13 -48 15 -58 2z"/>
<path d="M11896 3703 c-30 -8 -64 -55 -71 -98 -4 -22 -13 -50 -21 -62 -13 -20
-10 -26 41 -79 l54 -57 53 6 c37 5 58 13 71 28 26 32 18 55 -18 50 -63 -8 -98
-6 -102 6 -3 7 4 16 14 19 131 41 165 97 97 160 -35 34 -65 40 -118 27z m74
-69 c0 -23 -38 -54 -67 -54 -28 0 -31 25 -6 52 21 23 73 25 73 2z"/>
<path d="M10373 3685 c-3 -9 9 -62 27 -118 35 -110 50 -160 75 -249 12 -45 20
-58 35 -58 27 0 32 14 34 95 0 40 5 77 9 81 16 16 62 -21 77 -62 8 -22 22 -51
31 -65 16 -24 17 -24 38 -5 11 11 21 26 21 35 0 31 -90 151 -125 168 -34 16
-36 16 -65 -6 -45 -33 -46 -32 -80 122 -13 54 -30 77 -60 77 -6 0 -13 -7 -17
-15z"/>
<path d="M11717 3678 c-10 -7 -25 -42 -36 -78 -11 -40 -23 -65 -32 -65 -7 0
-24 20 -36 45 -24 47 -48 58 -67 28 -8 -13 -5 -27 12 -60 48 -93 57 -103 93
-106 31 -2 36 1 61 45 37 67 63 170 47 189 -14 17 -20 17 -42 2z"/>
<path d="M12116 3670 c-17 -18 -56 -131 -56 -159 0 -16 28 -76 47 -100 2 -2
14 2 28 9 24 13 25 18 24 91 -1 42 2 82 5 88 9 14 51 14 75 -1 26 -16 51 -3
51 27 0 49 -139 85 -174 45z"/>
<path d="M11365 3649 c-22 -20 -50 -62 -72 -110 -20 -44 -39 -79 -42 -79 -4 0
-13 16 -20 35 -19 53 -78 103 -130 111 -41 6 -47 4 -73 -25 -33 -37 -37 -82
-12 -155 13 -39 20 -47 38 -44 17 2 21 10 20 38 0 19 -4 51 -8 71 -7 34 -6 37
19 43 36 9 69 -21 102 -92 26 -57 50 -66 68 -25 16 36 36 36 74 0 20 -19 57
-41 83 -50 46 -15 47 -15 92 14 29 18 46 36 46 48 0 31 -16 34 -57 10 -32 -17
-43 -19 -66 -10 -38 15 -32 33 28 73 28 20 52 45 55 59 11 42 -9 85 -47 103
-47 22 -57 21 -98 -15z m75 -54 c7 -8 10 -21 7 -28 -5 -14 -85 -42 -94 -33 -9
8 46 76 61 76 8 0 19 -7 26 -15z"/>
<path d="M10822 3593 c-12 -2 -41 -21 -62 -42 -37 -35 -40 -42 -40 -91 0 -50
3 -56 49 -101 45 -46 51 -49 100 -49 68 0 121 22 121 50 0 20 -3 21 -62 15
-48 -5 -68 -3 -83 8 -19 14 -17 17 38 68 32 31 58 64 59 78 5 40 -62 76 -120
64z m48 -71 c0 -14 -51 -62 -66 -62 -23 0 -28 29 -9 50 17 19 75 28 75 12z"/>
<path d="M10316 3417 c-9 -23 -16 -53 -16 -65 0 -31 -21 -28 -55 8 -38 40 -63
35 -89 -16 -12 -22 -31 -53 -42 -69 l-22 -29 -33 70 c-29 58 -38 70 -61 72
-24 3 -28 0 -28 -20 0 -34 76 -173 111 -202 52 -44 73 -32 90 55 7 34 18 60
27 64 9 3 32 -11 61 -40 25 -25 50 -45 57 -45 22 0 42 36 48 85 3 28 13 74 22
104 17 58 12 71 -32 71 -16 0 -25 -11 -38 -43z"/>
<path d="M12397 3402 c-21 -23 -22 -59 -3 -78 20 -20 29 -18 60 12 31 32 33
59 7 74 -28 15 -46 12 -64 -8z"/>
<path d="M15256 3283 c-1 -1 -245 -5 -542 -7 -425 -4 -554 -8 -609 -20 -38 -8
-101 -21 -140 -29 -38 -8 -89 -23 -113 -32 -40 -16 -70 -48 -64 -69 24 -81 38
-237 48 -526 3 -102 7 -210 9 -240 4 -78 16 -251 18 -275 3 -30 -32 -31 -57
-2 -14 16 -44 30 -89 42 -37 9 -77 25 -90 34 -12 10 -39 25 -59 34 -20 10 -38
21 -40 26 -4 12 -96 81 -107 81 -5 0 -23 -14 -40 -32 l-31 -32 7 -98 c7 -112
12 -105 -87 -116 -52 -6 -66 -12 -83 -34 -17 -23 -18 -29 -7 -44 11 -12 23
-14 50 -9 19 3 57 9 83 12 l49 5 -2 -54 c-5 -106 -2 -124 24 -138 27 -14 53
-2 132 61 45 36 180 106 217 113 33 6 100 41 116 60 8 9 17 16 20 16 12 0 43
-198 56 -350 3 -36 8 -90 11 -120 4 -30 7 -135 8 -232 l1 -178 56 0 c30 0 80
4 110 10 30 5 169 12 309 15 140 3 296 7 345 10 50 2 142 7 205 10 63 3 149 8
190 11 41 3 104 7 138 10 35 2 68 6 72 9 5 3 76 12 157 20 81 8 177 17 213 20
36 4 81 10 101 14 19 5 72 9 117 10 45 1 92 4 104 6 13 3 34 7 48 9 23 5 102
9 370 21 189 9 285 17 303 27 21 11 20 37 -6 173 -28 146 -55 363 -77 630 -5
61 -12 121 -15 135 -6 27 -12 150 -20 421 -3 96 -8 197 -9 224 -12 163 -18
232 -24 250 -3 11 -5 27 -3 37 3 26 -7 30 -114 43 -97 12 -122 14 -275 20 -80
3 -172 9 -205 12 -57 5 -774 11 -779 6z m584 -88 c58 -3 137 -8 175 -10 39 -2
115 -7 170 -10 55 -3 127 -8 160 -11 33 -3 88 -7 122 -8 70 -1 81 -8 94 -62
21 -85 35 -458 25 -677 -1 -27 2 -51 6 -53 5 -3 8 -17 7 -32 0 -15 5 -70 11
-122 7 -52 14 -108 15 -125 8 -75 25 -266 30 -325 3 -36 8 -85 12 -110 3 -25
7 -58 9 -75 4 -40 21 -126 29 -147 6 -15 2 -18 -21 -19 -16 0 -58 -2 -94 -5
-36 -2 -146 -9 -245 -14 -365 -21 -452 -28 -502 -44 -10 -3 -67 -10 -128 -16
-60 -6 -123 -13 -140 -16 -16 -2 -75 -7 -130 -10 -55 -4 -107 -11 -117 -15 -9
-5 -81 -11 -160 -14 -78 -3 -174 -8 -211 -10 -86 -6 -377 -16 -562 -19 -77 -2
-192 -6 -256 -11 l-115 -7 -1 38 c0 22 -3 71 -7 109 -4 39 -8 118 -11 177 -2
59 -7 113 -11 120 -4 6 -8 39 -9 72 -3 70 -22 234 -30 246 -3 4 -6 34 -6 67
-1 32 -5 63 -10 69 -5 6 -11 89 -14 185 -3 96 -7 208 -10 249 -10 158 -15 238
-20 335 -3 55 -8 130 -11 166 l-6 67 33 5 c19 2 61 12 94 20 140 35 293 43
745 38 267 -3 930 6 937 12 3 4 15 5 27 2 12 -2 68 -7 126 -10z"/>
<path d="M15297 3003 c-10 -9 -8 -111 3 -174 18 -104 20 -125 26 -239 6 -120
17 -150 55 -150 23 0 40 30 29 51 -5 9 -12 54 -14 100 -6 86 -11 123 -20 137
-3 5 -8 47 -11 93 -9 133 -13 159 -26 175 -12 15 -31 18 -42 7z"/>
<path d="M14530 2913 c-24 -10 -46 -40 -65 -90 -35 -91 -85 -153 -85 -105 0
10 -5 23 -12 30 -7 7 -9 12 -4 12 4 0 -1 12 -12 28 -11 15 -22 37 -26 49 -11
34 -46 73 -66 73 -36 0 -41 -33 -39 -244 1 -112 -2 -209 -6 -216 -9 -15 14
-60 30 -60 29 0 39 33 41 138 3 159 2 152 23 152 13 0 24 -13 35 -40 11 -28
22 -40 36 -40 34 0 79 52 108 125 31 77 46 88 49 37 1 -18 6 -39 12 -46 6 -7
13 -51 16 -97 14 -241 16 -251 58 -232 18 8 23 19 24 53 1 24 -4 51 -11 62 -9
12 -12 35 -8 63 2 25 0 57 -7 72 -6 16 -15 77 -20 136 -7 79 -14 114 -27 128
-18 20 -20 21 -44 12z"/>
<path d="M15065 2836 c-19 -29 -12 -66 13 -66 9 0 29 8 44 18 24 16 26 20 15
42 -17 35 -52 37 -72 6z"/>
<path d="M14865 2687 c-100 -61 -125 -79 -143 -109 -46 -75 -29 -133 47 -158
55 -18 96 -1 112 47 7 21 16 33 25 31 8 -2 15 -7 14 -11 -2 -16 44 -47 70 -47
40 0 47 36 13 67 -14 13 -32 45 -39 71 -15 48 -59 122 -72 121 -4 0 -16 -6
-27 -12z m-18 -129 c-10 -63 -14 -73 -31 -76 -23 -5 -46 16 -43 38 5 31 37 70
58 70 18 0 20 -5 16 -32z"/>
<path d="M15086 2611 c-19 -21 -21 -64 -5 -127 14 -54 22 -60 54 -37 30 22 31
54 5 108 -11 22 -19 45 -20 52 0 21 -17 23 -34 4z"/>
<path d="M14358 2100 c-50 -15 -88 -49 -88 -79 0 -35 44 -103 81 -125 16 -10
29 -21 29 -27 0 -5 7 -9 15 -9 15 0 55 -33 111 -89 28 -28 20 -52 -28 -77 -40
-21 -128 -14 -143 11 -30 50 -31 50 -59 31 -37 -24 -30 -54 20 -89 45 -31 110
-40 186 -24 50 10 98 57 98 95 0 29 -27 94 -42 100 -5 2 -8 9 -8 15 -1 7 -35
39 -78 73 -71 56 -113 106 -100 119 9 10 127 14 156 6 32 -10 72 3 72 22 0 34
-25 45 -110 50 -47 3 -97 2 -112 -3z"/>
<path d="M15548 2003 c-21 -5 -24 -46 -5 -60 18 -15 77 12 77 36 0 27 -27 36
-72 24z"/>
<path d="M16098 1939 c-60 -9 -73 -29 -87 -124 l-13 -84 37 -33 c84 -75 160
-95 246 -67 44 15 51 22 43 42 -5 14 -20 17 -79 17 -41 0 -77 5 -80 10 -3 6
-15 10 -26 10 -39 0 -16 34 34 51 166 55 102 208 -75 178z m82 -89 c9 -17 8
-20 -10 -20 -11 0 -32 -7 -46 -17 -23 -15 -26 -15 -41 0 -15 15 -15 18 2 37
24 27 80 27 95 0z"/>
<path d="M15795 1919 c-79 -40 -87 -203 -12 -240 44 -21 142 -19 165 5 16 16
16 18 -2 32 -11 8 -37 14 -57 14 -29 0 -43 7 -63 31 -14 17 -26 35 -26 40 0
19 35 45 78 59 23 7 42 19 42 25 0 37 -77 58 -125 34z"/>
<path d="M15411 1882 c-11 -21 -22 -55 -26 -75 -4 -21 -16 -42 -26 -47 -16 -9
-22 -4 -40 32 -28 56 -48 78 -71 78 -27 0 -23 -36 15 -121 59 -135 74 -145
124 -88 29 31 36 49 73 163 22 67 22 70 5 83 -27 19 -33 17 -54 -25z"/>
<path d="M15022 1875 c-18 -15 -32 -33 -32 -41 0 -8 -8 -31 -17 -52 -9 -20
-20 -48 -23 -62 -5 -23 -9 -25 -67 -25 -34 0 -65 3 -69 7 -4 4 10 26 30 48 20
22 36 45 36 51 0 66 -137 106 -195 57 -19 -17 -28 -37 -34 -78 -4 -30 -13 -66
-20 -79 -15 -28 -6 -40 35 -46 16 -2 53 -9 83 -15 58 -13 158 -7 192 11 18 9
22 6 32 -20 13 -36 25 -38 60 -11 25 20 26 23 20 103 -7 104 2 117 83 117 39
0 54 4 54 14 0 22 -22 34 -81 41 -51 6 -58 5 -87 -20z m-233 -73 c5 -10 7 -23
3 -29 -12 -17 -53 -35 -68 -29 -23 9 -13 49 16 63 33 17 38 16 49 -5z"/>
<path d="M15554 1819 c-8 -14 -13 -145 -5 -156 14 -19 63 -34 77 -23 15 13 9
117 -8 137 -6 7 -7 13 -4 13 4 0 2 9 -4 20 -12 22 -45 27 -56 9z"/>
<path d="M11693 3034 c-3 -9 3 -39 14 -67 21 -54 40 -155 50 -271 10 -122 -34
-265 -125 -398 -60 -89 -66 -118 -24 -118 31 0 44 13 97 95 76 120 121 243
130 360 4 50 8 92 8 95 2 12 -16 111 -34 190 -12 51 -28 93 -41 107 -25 27
-66 30 -75 7z"/>
<path d="M10847 3013 c-64 -70 -109 -125 -140 -173 -86 -132 -89 -348 -6 -544
28 -69 112 -176 137 -176 6 0 19 11 28 25 16 25 16 26 -30 71 -25 25 -46 52
-46 60 0 8 -7 25 -15 38 -26 39 -55 194 -54 291 0 79 3 96 27 140 47 87 108
169 151 203 45 36 51 56 22 72 -29 15 -55 12 -74 -7z"/>
<path d="M11127 2954 c-10 -10 -9 -52 2 -58 5 -3 12 -23 16 -43 13 -71 62
-143 97 -143 13 0 18 8 18 29 0 16 -4 31 -9 33 -5 2 -22 44 -38 93 -26 78 -33
90 -54 93 -14 2 -28 0 -32 -4z"/>
<path d="M12711 2949 c-66 -11 -83 -24 -79 -58 2 -19 8 -25 23 -24 126 13 213
14 240 2 17 -7 33 -13 37 -13 3 -1 10 -4 14 -8 13 -14 42 -9 48 8 12 31 -17
67 -63 81 -63 18 -157 23 -220 12z"/>
<path d="M10953 2912 c-6 -10 -7 -25 -3 -33 4 -8 11 -32 14 -54 12 -72 72
-144 109 -129 26 10 21 37 -18 94 -19 29 -32 56 -29 61 9 15 -27 79 -45 79 -9
0 -21 -8 -28 -18z"/>
<path d="M12501 2907 c-11 -13 -21 -31 -21 -40 0 -9 -8 -40 -19 -69 -10 -29
-31 -91 -46 -138 -25 -78 -53 -149 -75 -191 -5 -9 -12 -34 -16 -55 -4 -21 -15
-57 -25 -79 -10 -22 -19 -50 -19 -62 0 -34 43 -31 68 5 19 27 23 37 63 162 11
36 27 74 34 86 7 12 15 34 18 50 2 16 7 38 11 49 38 102 50 132 84 208 28 60
28 59 -7 80 -27 16 -29 16 -50 -6z"/>
<path d="M11518 2898 c-15 -12 -30 -41 -74 -148 -32 -80 -61 -117 -146 -188
-90 -75 -181 -132 -244 -152 -51 -16 -64 -28 -64 -54 0 -43 18 -46 94 -19 78
28 197 103 294 185 63 54 142 166 142 202 0 11 12 39 26 63 42 72 23 150 -28
111z"/>
<path d="M3370 2870 c-19 -4 -100 -10 -180 -13 -82 -2 -173 -11 -210 -21 -88
-21 -426 -35 -990 -41 -250 -3 -498 -7 -550 -10 -52 -3 -140 -5 -195 -5 -97 0
-235 -10 -440 -34 l-100 -11 2 -40 c1 -22 8 -101 16 -175 9 -74 23 -308 32
-520 9 -212 18 -392 20 -400 5 -21 13 -139 21 -305 3 -77 8 -143 9 -146 3 -5
19 -386 18 -429 0 -8 -9 -52 -19 -97 -10 -45 -16 -84 -13 -87 2 -3 52 -12 109
-21 150 -22 533 -31 705 -15 82 7 358 13 670 15 292 2 582 8 645 15 63 6 162
15 220 20 58 5 150 18 205 30 55 11 163 27 240 36 77 8 150 19 162 24 l23 10
-6 262 c-4 145 -7 364 -8 488 -2 161 -9 273 -24 395 -23 179 -46 813 -35 962
3 39 3 83 -1 97 l-6 26 -143 -1 c-78 -1 -158 -5 -177 -9z m246 -152 c-3 -228
29 -863 50 -998 11 -69 16 -222 20 -551 l6 -456 -89 -6 c-123 -10 -177 -16
-258 -34 -245 -51 -545 -69 -1305 -77 -206 -2 -388 -6 -405 -10 -111 -25 -729
-6 -758 23 -7 7 -7 22 0 48 6 21 16 58 22 83 6 25 16 66 23 92 13 53 6 68 -22
50 -10 -6 -21 -8 -24 -4 -2 4 -5 72 -6 152 -2 164 -3 192 -18 380 -20 252 -22
285 -27 509 -3 124 -10 281 -16 350 -13 160 -21 283 -23 345 -1 57 -21 49 174
66 69 6 251 13 405 16 154 2 286 7 292 9 7 2 230 5 495 6 477 2 683 12 887 42
53 8 142 13 205 11 92 -3 116 0 138 14 19 13 52 18 131 20 l104 2 -1 -82z"/>
<path d="M1391 2436 c-20 -21 -21 -28 -12 -62 6 -22 18 -48 26 -58 20 -26 19
-93 -1 -153 -16 -46 -98 -173 -112 -173 -37 0 -84 25 -97 50 -19 37 -44 164
-50 252 -4 71 -26 128 -50 128 -24 0 -32 -29 -23 -83 4 -29 12 -88 18 -132 19
-154 63 -254 121 -274 64 -22 96 -15 151 37 69 63 118 169 118 251 0 50 -44
218 -62 236 -2 3 -15 -6 -27 -19z"/>
<path d="M2550 2353 c-95 -16 -134 -42 -167 -111 -14 -29 -20 -33 -45 -30 -23
4 -30 0 -34 -19 -4 -12 -3 -31 1 -40 5 -10 11 -40 15 -68 4 -27 13 -63 19 -80
6 -16 15 -48 21 -70 5 -22 16 -49 23 -59 14 -18 15 -18 36 3 15 15 20 28 16
39 -4 9 -12 52 -18 94 -12 87 2 171 36 214 29 37 100 74 154 81 59 7 96 29 73
43 -15 10 -83 11 -130 3z"/>
<path d="M1727 2324 c-4 -4 -30 -11 -58 -15 -62 -10 -99 -40 -99 -81 0 -41 23
-71 88 -112 96 -60 119 -83 106 -103 -15 -25 -117 -39 -163 -23 -42 15 -67 -4
-57 -43 7 -30 35 -38 124 -38 96 0 191 53 192 108 0 20 -95 111 -174 166 -50
35 -30 54 69 66 45 5 50 9 53 33 3 22 -2 30 -23 38 -30 12 -49 13 -58 4z"/>
<path d="M1967 2208 c-47 -45 -67 -92 -67 -158 1 -71 54 -120 130 -120 72 1
190 63 190 101 0 24 -10 24 -83 -2 -77 -28 -150 -31 -155 -6 -2 11 3 17 15 17
44 0 157 47 177 73 19 26 19 28 3 62 -12 26 -30 41 -63 55 -69 30 -95 26 -147
-22z m125 -34 c17 -9 26 -19 22 -24 -10 -9 -120 -50 -134 -50 -19 0 -10 28 19
59 33 35 49 38 93 15z"/>
<path d="M1180 1451 c-88 -28 -160 -83 -160 -122 0 -29 45 -73 106 -102 176
-85 186 -92 198 -133 18 -58 -106 -122 -168 -86 -29 17 -40 31 -50 65 -3 9
-14 17 -25 17 -15 0 -22 -9 -27 -35 -9 -48 13 -78 81 -111 67 -31 115 -27 179
16 49 34 76 76 76 122 0 54 -58 122 -133 156 -91 40 -161 78 -165 89 -2 8 16
22 45 34 41 18 64 20 153 17 94 -3 105 -1 108 15 6 29 -16 45 -71 52 -111 13
-123 13 -147 6z"/>
<path d="M2585 1440 c-3 -5 -3 -21 1 -35 5 -21 12 -25 32 -23 53 6 56 68 3 68
-16 0 -32 -4 -36 -10z"/>
<path d="M3264 1400 c-85 -20 -145 -97 -157 -200 -5 -43 -4 -46 46 -96 43 -43
62 -54 108 -64 79 -18 124 -7 173 41 51 52 39 66 -34 38 -62 -24 -120 -20
-160 11 l-25 19 28 10 c38 15 115 68 154 108 29 29 32 35 22 60 -14 37 -26 50
-62 68 -33 16 -45 17 -93 5z m75 -74 c9 -11 4 -20 -27 -44 -43 -34 -119 -68
-130 -58 -4 4 3 24 14 44 33 58 116 91 143 58z"/>
<path d="M2940 1375 c-25 -13 -67 -44 -94 -69 -47 -44 -49 -48 -50 -101 0 -54
1 -58 44 -95 66 -57 160 -61 217 -8 29 27 31 68 4 68 -11 0 -23 -4 -26 -10 -3
-5 -24 -14 -45 -20 -34 -9 -46 -8 -80 10 -33 17 -40 26 -40 50 0 35 55 95 106
116 41 17 61 49 43 70 -15 19 -26 17 -79 -11z"/>
<path d="M2401 1289 c-10 -17 -29 -66 -41 -110 -13 -43 -28 -79 -34 -79 -6 0
-27 39 -46 88 -19 48 -35 88 -36 90 -1 2 -12 -2 -24 -8 -16 -8 -20 -18 -17
-33 21 -86 29 -108 52 -150 28 -50 59 -77 86 -77 23 0 69 56 69 83 0 32 27
116 50 154 30 51 27 73 -10 73 -23 0 -35 -7 -49 -31z"/>
<path d="M2615 1280 c-6 -10 0 -119 11 -187 4 -29 9 -33 34 -33 28 0 30 3 30
38 0 36 -15 136 -26 175 -6 18 -39 23 -49 7z"/>
<path d="M1995 1268 c-71 -24 -71 -24 -95 -98 -20 -64 -22 -76 -11 -109 19
-54 39 -81 60 -81 33 0 41 22 26 65 -27 77 -10 155 33 155 36 0 90 21 97 37
13 37 -45 53 -110 31z"/>
<path d="M1620 1250 c-179 -30 -208 -209 -47 -283 48 -22 59 -23 137 -16 76 7
87 10 107 36 20 24 30 53 20 53 -2 0 -28 -7 -58 -16 -37 -11 -72 -14 -113 -10
-85 9 -110 35 -49 51 43 10 116 61 136 94 13 22 15 35 8 55 -17 44 -48 52
-141 36z m68 -72 c-5 -16 -105 -68 -130 -68 -11 0 -18 7 -18 20 0 15 13 27 43
40 49 23 111 27 105 8z"/>
<path d="M9960 2842 c-19 -9 -37 -20 -40 -24 -3 -4 -66 -17 -140 -29 -170 -28
-158 -24 -166 -54 -12 -50 5 -54 128 -28 62 14 123 27 135 30 13 3 38 2 57 -1
37 -7 50 -32 81 -156 9 -36 25 -90 36 -120 12 -30 25 -74 30 -98 8 -38 21 -71
50 -122 5 -8 13 -24 18 -35 17 -40 31 -44 106 -33 39 6 138 12 220 13 190 3
178 1 170 28 -17 55 -22 56 -239 47 -166 -7 -201 -6 -213 5 -13 14 -28 53 -75
195 -11 36 -34 103 -49 150 -16 46 -29 98 -29 115 0 17 -7 40 -15 51 -8 10
-15 31 -15 46 0 36 -9 40 -50 20z"/>
<path d="M4450 2662 c-97 -48 -131 -75 -158 -126 -24 -46 -27 -63 -28 -161 -3
-168 9 -234 55 -319 59 -110 85 -134 172 -158 137 -39 210 -28 305 45 113 87
187 214 177 307 -1 8 -4 38 -7 67 -7 70 -22 121 -49 164 -12 21 -33 55 -47 78
-19 31 -42 50 -99 78 -70 36 -79 38 -180 40 -83 2 -113 -1 -141 -15z m258 -95
c46 -13 129 -69 131 -90 1 -4 10 -20 21 -35 31 -42 53 -147 46 -215 -9 -87
-47 -149 -131 -214 l-70 -56 -119 7 c-78 4 -127 11 -142 21 -12 8 -42 51 -67
97 -43 79 -46 89 -55 198 -10 119 0 202 28 236 16 19 62 43 115 61 46 15 163
10 243 -10z"/>
<path d="M4606 2491 c-8 -13 -14 -308 -7 -366 5 -45 9 -50 30 -50 l25 0 2 195
c2 107 1 203 -2 213 -6 18 -39 24 -48 8z"/>
<path d="M8410 2543 c-61 -11 -223 -16 -360 -11 -14 0 -52 -5 -85 -11 -33 -7
-187 -14 -345 -16 -687 -10 -839 -15 -947 -30 -130 -18 -334 -23 -449 -12 -70
7 -84 6 -98 -9 -10 -9 -15 -23 -12 -31 17 -43 28 -166 21 -238 -5 -61 -15
-270 -17 -380 -1 -55 16 -395 22 -446 4 -37 6 -96 3 -132 l-6 -64 133 -13
c123 -12 338 -8 402 6 24 6 45 8 238 25 105 9 204 6 435 -15 22 -2 103 0 180
5 577 33 593 34 622 43 84 25 530 64 673 58 8 0 49 7 90 15 90 20 360 23 403
5 16 -7 39 -9 51 -6 20 5 23 12 25 62 2 71 5 100 14 132 11 42 37 358 38 465
1 129 -10 320 -21 365 -5 19 -11 69 -15 110 -7 90 -28 121 -69 102 -19 -9 -42
-8 -97 4 -97 20 -177 25 -489 27 -184 2 -288 -1 -340 -10z m444 -95 c3 -13 10
-92 16 -176 6 -84 15 -164 20 -177 27 -72 41 -245 38 -482 l-3 -242 -50 -6
c-66 -8 -331 -12 -339 -4 -3 3 -6 48 -6 100 -1 52 -5 189 -10 304 -5 116 -12
265 -14 332 -3 67 -10 159 -16 206 -6 46 -10 99 -8 118 3 32 6 34 48 40 25 3
107 7 182 7 135 2 138 2 142 -20z m327 -4 c28 -10 61 -14 92 -10 26 3 47 2 48
-2 6 -55 9 -77 18 -132 12 -71 30 -347 26 -395 -1 -16 -5 -70 -9 -120 -15
-197 -38 -380 -49 -388 -7 -4 -79 -6 -162 -5 l-150 3 1 55 c8 329 5 501 -11
580 -9 47 -21 112 -27 145 -12 72 -22 251 -14 271 8 20 179 19 237 -2z m-776
-66 c4 -40 9 -91 10 -113 2 -22 6 -69 9 -105 3 -36 9 -134 12 -218 3 -84 8
-165 10 -180 3 -15 7 -112 11 -216 6 -213 11 -202 -77 -211 -74 -8 -95 -12
-159 -24 -68 -14 -76 -7 -72 60 3 57 -13 258 -35 429 -8 63 -15 192 -15 285
-1 94 -5 206 -9 250 -5 49 -5 84 1 90 9 9 101 17 260 23 l46 2 8 -72z m-391
-52 c3 -55 11 -202 17 -326 6 -124 15 -242 21 -263 12 -48 21 -197 22 -342 l1
-110 -147 -3 c-133 -3 -148 -2 -156 15 -8 16 -14 113 -27 518 -3 77 -10 174
-15 215 -6 42 -15 125 -20 185 -5 61 -13 127 -16 147 -10 63 -12 63 159 64
l155 2 6 -102z m-392 33 c4 -30 12 -104 17 -166 6 -61 13 -122 16 -135 13 -58
15 -96 20 -288 3 -113 10 -234 15 -270 4 -36 9 -100 9 -142 1 -68 -1 -78 -19
-88 -21 -11 -461 -16 -510 -5 -65 13 -170 13 -330 -1 -96 -9 -193 -17 -215
-19 -22 -2 -78 -6 -125 -10 -47 -4 -130 -4 -184 0 l-99 7 7 65 c5 50 3 69 -7
82 -23 25 -29 477 -10 691 8 91 12 193 9 226 l-5 62 112 -2 c162 -2 303 8 320
23 9 7 44 12 89 12 166 -1 550 8 555 12 3 3 78 4 167 3 l161 -3 7 -54z"/>
<path d="M6354 2075 c-3 -14 -1 -62 5 -107 7 -46 11 -128 9 -184 -4 -140 -8
-137 156 -128 72 3 134 8 139 11 12 7 8 50 -6 61 -8 7 -53 10 -118 9 l-104 -3
-1 136 c-1 74 -4 156 -8 183 -7 44 -9 47 -36 47 -23 0 -31 -5 -36 -25z"/>
<path d="M6830 1959 c-64 -26 -95 -85 -105 -196 -6 -75 -5 -82 13 -92 59 -32
225 5 281 63 31 32 32 36 25 82 -9 60 -24 85 -77 124 -43 32 -89 38 -137 19z
m100 -86 c58 -40 65 -66 25 -103 -32 -30 -114 -40 -138 -15 -21 20 -22 57 -2
95 22 43 71 53 115 23z"/>
<path d="M7264 1950 c-5 -5 -26 -18 -45 -27 -55 -27 -109 -79 -115 -111 -8
-38 36 -92 74 -92 37 0 110 38 117 61 6 19 8 19 25 4 17 -15 26 -47 53 -180
17 -83 12 -101 -36 -133 -35 -23 -51 -27 -115 -27 -70 0 -75 1 -103 33 -51 56
-85 37 -59 -34 27 -69 112 -98 221 -75 129 27 192 107 167 211 -4 19 -15 69
-24 110 -18 85 -48 178 -76 233 -15 29 -24 37 -46 37 -15 0 -32 -4 -38 -10z
m-24 -125 c0 -18 -36 -38 -52 -29 -7 4 -2 13 13 25 29 23 39 24 39 4z"/>
<path d="M12199 2296 c-6 -6 -93 -15 -204 -21 -242 -13 -259 -15 -273 -29 -10
-9 -12 -24 -8 -41 7 -26 9 -27 59 -21 29 3 108 9 176 11 68 3 143 10 167 15
23 5 56 7 71 4 30 -6 44 4 56 38 8 24 -28 60 -44 44z"/>
<path d="M5342 2048 c-16 -16 -15 -64 2 -163 8 -44 13 -82 10 -86 -6 -11 -336
-15 -353 -5 -4 3 -61 1 -127 -5 -65 -5 -308 -12 -538 -14 -425 -5 -436 -6
-436 -40 0 -24 20 -32 100 -42 88 -11 257 -10 937 2 221 4 410 4 421 1 18 -6
20 -16 18 -134 -1 -125 -1 -127 22 -130 16 -3 32 7 55 35 17 21 78 86 135 144
93 96 128 122 195 143 25 8 31 32 18 64 -9 21 -23 31 -56 41 -33 10 -48 20
-57 42 -9 20 -20 29 -36 29 -29 0 -160 56 -187 80 -25 22 -79 50 -98 50 -7 0
-18 -5 -25 -12z"/>
<path d="M12853 2021 c-72 -4 -133 -8 -136 -11 -16 -17 -16 -50 -1 -65 16 -15
34 -17 161 -12 147 6 173 13 173 47 0 42 -30 48 -197 41z"/>
<path d="M12417 1971 c-82 -7 -102 -26 -73 -66 12 -17 25 -19 106 -17 93 2
130 12 130 36 0 21 -45 56 -71 54 -13 0 -55 -4 -92 -7z"/>
<path d="M11592 1945 c-8 -10 -11 -26 -8 -41 6 -22 11 -24 66 -24 32 0 70 -4
84 -10 30 -11 100 13 94 33 -8 23 -75 47 -149 52 -60 5 -76 3 -87 -10z"/>
<path d="M11943 1948 c-41 -54 -15 -78 84 -78 59 0 84 5 114 22 61 34 52 46
-38 54 -32 2 -79 6 -104 9 -31 4 -50 1 -56 -7z"/>
<path d="M11217 1940 c-49 -9 -65 -25 -51 -48 8 -11 25 -17 55 -18 24 0 51 -3
59 -7 8 -3 34 -8 57 -10 42 -5 73 13 73 41 0 29 -121 56 -193 42z"/>
<path d="M10402 1920 c-23 -37 6 -56 94 -64 41 -4 86 -12 100 -18 29 -14 74 3
74 27 0 26 -104 66 -185 72 -64 4 -71 3 -83 -17z"/>
<path d="M10817 1919 c-9 -6 -17 -20 -17 -33 0 -41 22 -49 109 -42 90 7 111
13 111 31 0 21 -25 35 -76 40 -27 3 -63 7 -79 9 -17 2 -39 0 -48 -5z"/>
<path d="M9638 1906 c-10 -7 -18 -25 -18 -38 0 -31 13 -34 170 -44 90 -5 107
-4 119 10 11 12 11 22 2 43 -11 26 -15 28 -74 28 -34 0 -89 3 -122 7 -44 6
-65 4 -77 -6z"/>
<path d="M10021 1891 c-19 -34 -3 -49 63 -60 79 -14 125 -14 165 0 37 13 38
19 9 46 -19 17 -42 22 -125 28 -95 6 -102 5 -112 -14z"/>
</g>
</svg>
