<?xml version="1.0" standalone="no"?>
<!DOCTYPE svg PUBLIC "-//W3C//DTD SVG 20010904//EN"
 "http://www.w3.org/TR/2001/REC-SVG-20010904/DTD/svg10.dtd">
<svg version="1.0" xmlns="http://www.w3.org/2000/svg"
 width="695.006648pt" height="400.000000pt" viewBox="0 0 695.006648 400.000000"
 preserveAspectRatio="xMidYMid meet">
<metadata>
Created by potrace 1.15, written by Peter Selinger 2001-2017
</metadata>
<g transform="translate(-18.014901,415.985596) scale(0.038628,-0.038628)"
fill="#444444" stroke="none">
<path d="M4986 10749 c-39 -21 -56 -37 -125 -121 -57 -68 -58 -80 -20 -144 65
-106 154 -136 269 -90 60 24 120 66 120 84 0 20 -28 32 -71 32 -36 0 -50 -5
-60 -21 -8 -11 -33 -24 -57 -30 -82 -18 -83 13 -4 90 31 31 70 62 85 69 26 11
28 16 22 45 -9 38 -39 83 -65 97 -27 15 -50 12 -94 -11z"/>
<path d="M4423 10743 c-15 -3 -23 -12 -23 -26 0 -23 36 -104 51 -113 18 -10 9
-51 -16 -72 -16 -14 -25 -32 -25 -52 0 -28 3 -30 51 -36 50 -7 51 -7 75 -63
43 -101 58 -114 98 -87 25 16 26 18 12 44 -8 15 -21 49 -30 77 -18 59 -9 75
40 75 47 0 80 15 87 40 7 27 -21 39 -106 43 -35 2 -69 7 -76 11 -6 4 -25 35
-41 69 -29 59 -57 98 -69 96 -3 -1 -16 -4 -28 -6z"/>
<path d="M7760 10678 c-241 -6 -574 -28 -734 -48 -39 -5 -91 -12 -116 -15 -25
-3 -85 -12 -135 -20 -49 -9 -139 -22 -200 -30 -147 -19 -213 -32 -266 -51 -24
-9 -75 -22 -114 -30 -38 -8 -92 -23 -120 -34 -45 -18 -219 -61 -320 -80 -22
-4 -51 -12 -65 -18 -20 -8 -161 -53 -180 -57 -87 -18 -261 -73 -274 -86 -6 -5
-16 -9 -24 -9 -8 0 -36 -10 -61 -21 -76 -36 -103 -47 -176 -74 -74 -27 -171
-73 -265 -127 -8 -4 -35 -17 -60 -28 -25 -11 -56 -26 -70 -35 -14 -8 -44 -24
-68 -35 -24 -11 -69 -38 -99 -60 -31 -22 -62 -40 -68 -40 -7 0 -30 -12 -51
-28 -21 -15 -51 -33 -65 -39 -98 -43 -436 -328 -583 -492 -42 -46 -92 -97
-119 -118 -22 -18 -135 -181 -149 -215 -4 -10 -11 -18 -15 -18 -5 0 -18 -22
-31 -49 -12 -27 -38 -68 -57 -91 -19 -23 -35 -46 -35 -50 0 -5 -21 -45 -48
-89 -133 -225 -168 -294 -262 -506 -34 -77 -100 -219 -147 -315 -46 -96 -106
-221 -134 -278 -27 -56 -49 -107 -49 -113 0 -6 -10 -25 -22 -42 -29 -41 -48
-76 -48 -91 0 -21 -122 -251 -140 -263 -10 -7 -20 -26 -23 -42 -7 -34 -46
-120 -114 -256 -26 -49 -52 -110 -59 -135 -20 -69 -39 -119 -52 -132 -7 -7
-12 -23 -12 -36 0 -14 -9 -39 -19 -56 -28 -45 -101 -348 -101 -417 0 -9 -7
-22 -15 -29 -8 -7 -11 -17 -7 -24 4 -6 7 -29 7 -51 0 -36 3 -40 32 -48 36 -11
63 7 63 40 0 10 7 50 16 88 9 39 25 124 35 190 11 66 29 137 39 158 11 21 20
44 20 52 0 13 68 181 133 330 37 84 148 299 163 316 37 41 204 413 204 456 0
7 18 47 40 90 48 95 150 313 150 321 0 6 44 103 163 357 33 72 91 185 129 251
37 67 68 125 68 129 0 4 22 37 49 74 27 36 59 86 71 111 12 25 29 53 38 63 9
10 29 42 46 71 17 30 45 71 61 92 45 58 278 306 322 343 21 19 70 64 108 101
39 37 90 83 115 102 63 47 168 118 176 118 8 0 104 57 194 115 81 52 410 218
545 275 55 23 131 56 169 72 37 17 82 34 100 38 17 5 67 22 111 38 101 38 465
143 564 162 85 17 94 19 155 40 34 11 90 26 126 34 173 38 239 54 250 61 13 8
86 20 215 34 44 5 130 17 190 27 61 9 126 18 145 19 19 1 58 5 85 9 72 9 120
14 205 21 41 3 127 10 191 15 63 5 223 10 355 10 131 1 437 2 679 3 373 2 536
-2 765 -18 19 -1 67 -5 105 -9 39 -4 138 -9 220 -11 83 -2 186 -8 230 -14 44
-6 98 -14 120 -16 57 -8 735 -6 829 2 43 3 169 1 280 -6 111 -7 284 -14 386
-16 102 -2 199 -6 215 -9 112 -18 187 -26 305 -31 74 -3 155 -10 180 -15 25
-6 81 -17 124 -25 44 -8 112 -31 151 -50 40 -19 123 -52 184 -74 62 -22 129
-51 150 -65 20 -14 42 -26 48 -26 6 0 31 -16 55 -36 23 -21 79 -61 123 -90 99
-65 189 -147 428 -386 110 -111 193 -202 201 -223 8 -19 19 -35 24 -35 36 0
195 -298 227 -425 26 -102 -7 -362 -59 -467 -9 -17 -16 -37 -16 -45 0 -7 -4
-13 -8 -13 -4 0 -28 -20 -53 -45 -52 -53 -84 -72 -159 -92 -74 -21 -180 -27
-181 -10 -6 104 2 279 15 317 8 25 12 48 8 52 -13 13 -83 -12 -90 -31 -7 -19
-30 -39 -232 -206 -164 -135 -220 -188 -220 -211 0 -10 28 -45 63 -79 35 -33
71 -73 81 -88 9 -15 27 -32 40 -37 13 -4 53 -44 89 -88 79 -95 112 -113 163
-88 33 15 35 19 34 64 -1 26 6 76 14 112 8 36 15 81 16 101 0 45 15 59 60 59
31 0 91 13 242 51 21 6 57 28 84 54 25 25 52 45 58 45 12 0 87 164 111 245 29
93 43 200 42 314 0 125 -7 152 -68 277 -21 45 -39 91 -39 102 0 12 -6 25 -13
29 -8 4 -29 31 -48 58 -124 181 -205 277 -329 390 -30 28 -67 64 -81 80 -14
17 -38 42 -55 56 -16 15 -34 33 -40 40 -16 20 -116 112 -135 124 -34 22 -116
83 -190 143 -43 34 -89 67 -101 72 -13 6 -48 24 -78 41 -30 16 -82 41 -115 54
-33 13 -127 51 -210 85 -174 71 -237 83 -525 105 -107 8 -215 19 -240 24 -71
16 -140 20 -380 27 -124 3 -263 9 -310 13 -47 4 -159 3 -250 -2 -150 -8 -396
-15 -635 -18 -86 -1 -202 12 -223 25 -6 3 -133 8 -284 11 -150 2 -289 6 -308
9 -164 19 -1042 28 -1550 14z"/>
<path d="M4170 10570 c-22 -41 15 -81 68 -72 18 3 22 10 22 42 0 40 -11 50
-55 50 -14 0 -29 -9 -35 -20z"/>
<path d="M4220 10430 c-17 -32 -5 -77 40 -147 32 -50 45 -63 65 -63 33 0 53
44 31 69 -7 9 -26 41 -41 71 -15 30 -30 62 -34 70 -13 24 -48 24 -61 0z"/>
<path d="M4002 10393 c-30 -12 -42 -59 -35 -145 6 -79 8 -85 44 -121 23 -23
46 -37 56 -35 25 5 30 64 7 89 -19 21 -22 116 -4 149 16 29 12 38 -20 55 -16
8 -30 15 -32 14 -2 0 -9 -3 -16 -6z"/>
<path d="M3785 10246 c-15 -11 -17 -22 -11 -74 4 -34 13 -84 20 -112 7 -27 11
-50 9 -50 -10 0 -51 25 -92 57 -45 34 -75 41 -87 22 -10 -17 -8 -87 5 -139 23
-99 10 -102 -80 -24 -71 62 -97 75 -128 67 -22 -6 -38 -44 -26 -63 4 -6 27
-20 52 -32 24 -11 50 -29 56 -40 7 -10 16 -18 21 -18 4 0 29 -15 55 -33 74
-53 99 -61 129 -41 23 15 24 20 19 78 -4 33 -10 71 -13 84 -8 29 12 29 74 -2
43 -21 50 -22 80 -9 18 7 35 19 38 27 4 11 -9 64 -47 193 -5 17 -9 35 -8 40 1
4 -1 20 -6 36 -10 36 -36 51 -60 33z"/>
<path d="M8223 9752 c-7 -5 -11 -35 -11 -82 1 -93 -9 -240 -18 -264 -16 -43
73 -86 180 -86 24 0 57 -5 75 -11 29 -10 35 -9 57 12 l25 24 17 -21 c33 -41
90 -67 133 -61 45 6 118 57 142 99 32 56 -9 129 -96 172 l-54 26 -49 -17 c-67
-25 -87 -45 -90 -92 -2 -53 -10 -63 -37 -50 -12 5 -62 15 -112 22 l-90 12 1
70 c0 39 2 102 4 140 4 91 -4 115 -38 115 -15 0 -32 -4 -39 -8z m510 -331 c20
-20 20 -21 2 -41 -24 -26 -36 -25 -82 6 -36 24 -45 38 -35 58 8 15 93 -1 115
-23z"/>
<path d="M9084 9635 c-19 -19 -40 -35 -47 -35 -17 0 -101 -89 -114 -120 -21
-53 28 -131 74 -116 10 3 33 19 51 36 19 17 37 28 42 25 16 -10 40 -112 40
-167 0 -47 -3 -56 -23 -67 -35 -19 -143 -8 -179 19 -33 24 -76 24 -92 -2 -15
-24 15 -84 46 -91 13 -3 41 -11 63 -17 22 -6 66 -15 99 -20 61 -9 83 -2 126
40 51 50 51 169 2 333 -28 93 -29 99 -12 115 30 30 32 51 5 78 -32 32 -39 31
-81 -11z"/>
<path d="M6874 9070 c-12 -11 -86 -16 -102 -6 -7 4 -19 3 -26 -3 -7 -6 -15 -9
-18 -6 -11 11 -343 7 -373 -5 -37 -15 -104 -15 -118 -1 -16 16 -63 13 -77 -4
-7 -8 -24 -21 -40 -28 -23 -12 -30 -12 -45 0 -64 46 -143 -40 -85 -92 20 -18
22 -18 60 4 28 16 40 18 40 9 0 -15 53 -48 77 -48 8 0 29 6 46 14 58 25 72 30
102 32 217 17 339 21 364 14 17 -5 75 -4 138 2 122 12 200 14 209 6 10 -11 22
-137 28 -297 4 -85 11 -173 16 -196 5 -23 9 -80 9 -126 0 -46 5 -115 11 -153
7 -42 8 -115 4 -185 -8 -150 -8 -142 0 -171 7 -24 5 -25 -41 -26 -118 -3 -286
-3 -378 1 -56 2 -107 0 -114 -5 -8 -4 -48 1 -97 15 -74 19 -86 20 -105 7 -18
-12 -22 -12 -32 2 -14 18 -58 16 -81 -4 -19 -15 -20 -66 -3 -100 9 -18 24 -27
57 -33 69 -13 212 -15 240 -4 14 6 117 12 230 14 113 2 234 5 270 6 36 1 71
-2 78 -6 7 -6 18 -5 27 3 9 8 32 11 59 8 24 -3 84 -2 133 3 48 5 124 11 168
15 44 3 96 10 115 15 19 5 81 9 137 9 56 0 112 4 125 8 24 9 125 3 303 -18 55
-6 139 -11 186 -10 79 0 348 -25 357 -35 2 -2 15 0 28 5 16 6 34 5 52 -2 19
-8 166 -13 487 -15 253 -1 514 -5 580 -8 178 -8 206 -8 375 -6 239 2 412 -9
451 -29 17 -9 74 -11 223 -6 111 4 215 6 231 6 50 -3 79 -2 90 0 6 2 33 4 60
5 67 3 137 15 153 28 7 5 34 10 62 11 27 0 55 7 62 14 14 14 43 16 68 2 12 -7
21 -6 27 3 23 29 22 48 -2 73 -14 14 -32 38 -40 54 -19 36 -56 40 -82 10 -10
-11 -23 -20 -30 -20 -7 0 -13 -7 -13 -15 0 -10 -10 -15 -29 -15 -16 0 -42 -5
-58 -11 -34 -13 -119 -22 -188 -18 -68 3 -74 2 -120 -9 -92 -23 -339 -20 -415
5 -8 2 -49 7 -90 9 -96 6 -130 10 -132 15 0 2 2 14 6 26 4 12 -2 48 -14 87
-22 68 -29 200 -16 316 11 97 16 191 22 365 4 94 7 181 7 195 1 14 -3 53 -7
87 -8 60 -7 62 16 67 39 9 231 17 512 22 239 4 273 3 310 -12 24 -10 71 -18
113 -19 61 -2 79 -6 118 -32 l46 -30 30 28 c16 15 29 31 29 37 0 5 11 17 25
26 14 9 25 25 25 36 0 43 -63 67 -90 35 -15 -19 -82 -15 -150 8 -25 8 -70 18
-100 22 -67 9 -298 10 -397 2 -42 -4 -86 -1 -103 5 -19 6 -35 7 -43 1 -10 -9
-84 -13 -307 -16 -30 -1 -190 3 -355 7 -389 11 -630 10 -785 -4 -74 -7 -195
-9 -295 -5 -218 8 -212 8 -396 0 -128 -6 -171 -4 -240 10 -89 19 -182 20 -389
7 -69 -5 -165 -6 -215 -2 -49 3 -137 2 -195 -3 -146 -13 -238 -13 -435 2 -93
7 -200 14 -236 16 -37 1 -71 5 -76 8 -6 4 -14 2 -19 -3z m1481 -121 c204 -24
255 -26 399 -18 83 5 212 6 286 2 l135 -6 2 -46 c0 -25 4 -71 8 -101 4 -30 7
-64 7 -75 0 -11 5 -74 10 -140 5 -66 9 -176 9 -245 -1 -69 -1 -132 -1 -140 0
-8 3 -58 6 -110 4 -58 1 -125 -6 -170 -7 -41 -12 -83 -12 -92 1 -23 -77 -39
-124 -26 -19 5 -38 7 -42 4 -7 -4 -264 10 -342 19 -19 2 -51 5 -70 6 -19 1
-39 6 -45 9 -18 13 -119 21 -260 21 -75 0 -147 4 -158 9 -12 5 -16 9 -8 9 10
1 12 10 6 39 -4 20 -10 42 -14 47 -5 6 -7 42 -5 80 12 229 -3 521 -31 650 -7
33 -13 108 -13 167 0 90 3 108 17 111 31 9 157 7 246 -4z m1563 -4 c63 -4 190
-6 282 -6 152 1 170 -1 179 -16 11 -21 5 -531 -7 -648 -7 -65 -7 -275 1 -465
1 -29 -2 -35 -18 -33 -11 1 -87 2 -170 2 -228 -1 -596 6 -700 13 -22 1 -53 1
-70 -1 -16 -2 -51 -3 -77 -2 l-47 1 3 234 c2 129 7 239 10 244 3 6 0 68 -8
139 -8 70 -17 208 -20 306 -3 97 -10 186 -15 196 -14 26 7 30 144 32 61 1 144
5 185 9 74 7 98 6 328 -5z m-2568 -12 c93 -6 227 -3 298 6 66 9 266 6 308 -4
17 -4 24 -17 34 -62 6 -32 13 -74 16 -93 2 -19 8 -66 14 -105 30 -198 37 -290
39 -501 2 -201 0 -232 -14 -244 -9 -8 -15 -24 -13 -39 3 -25 2 -26 -50 -23
-28 2 -100 -1 -160 -7 -59 -6 -156 -14 -217 -17 -168 -9 -197 -12 -240 -23
-22 -5 -74 -9 -115 -8 l-75 2 -1 195 c0 107 -3 231 -7 275 -4 44 -11 114 -14
155 -4 41 -7 112 -7 158 -1 45 -4 82 -7 82 -10 0 -21 196 -13 236 l7 36 81 -7
c44 -5 106 -10 136 -12z"/>
<path d="M8406 8651 c-16 -18 -16 -24 -2 -83 20 -85 25 -140 32 -315 3 -81 9
-152 13 -156 5 -5 24 -4 42 1 l34 8 0 65 c0 77 -11 233 -21 309 -8 58 -8 73
-2 130 2 19 0 41 -5 48 -14 19 -72 15 -91 -7z"/>
<path d="M8733 8646 c-85 -31 -113 -100 -114 -272 0 -98 23 -183 60 -225 77
-87 67 -81 124 -74 85 12 134 48 175 130 24 49 24 174 -2 223 -9 17 -16 39
-16 49 0 10 -18 40 -40 67 -23 27 -44 55 -48 61 -8 13 -86 56 -99 54 -4 -1
-22 -7 -40 -13z m91 -109 c38 -28 87 -137 88 -195 1 -120 -12 -147 -85 -177
-40 -17 -39 -17 -51 36 -3 14 -17 31 -30 37 -28 12 -34 36 -39 147 -3 68 7
127 26 153 12 16 68 16 91 -1z"/>
<path d="M9926 8590 c-19 -23 -23 -36 -17 -48 17 -34 25 -120 25 -292 l1 -174
34 -10 c55 -16 61 3 55 158 -2 72 -8 174 -13 226 -4 52 -4 99 1 105 14 16 9
42 -9 48 -10 2 -25 8 -34 11 -11 5 -25 -3 -43 -24z"/>
<path d="M9676 8581 c-11 -12 -18 -35 -18 -58 5 -426 8 -453 51 -453 44 1 45
6 43 260 -1 168 -5 246 -13 256 -16 20 -43 17 -63 -5z"/>
<path d="M7631 8706 c-6 -7 -46 -31 -89 -51 -105 -51 -138 -79 -158 -130 -22
-59 -13 -102 35 -154 36 -38 41 -41 93 -41 46 0 62 5 98 31 23 17 46 27 51 22
4 -4 10 -73 12 -153 3 -80 6 -152 9 -161 5 -22 28 -49 41 -49 18 0 58 51 53
68 -14 46 -25 147 -26 237 -5 283 -5 278 -29 330 -13 28 -29 53 -35 57 -18 12
-43 9 -55 -6z m6 -155 c-16 -80 -62 -132 -116 -131 -25 1 -51 25 -51 48 0 34
107 111 154 112 15 0 17 -5 13 -29z"/>
<path d="M12243 9053 c-28 -19 -29 -54 -3 -78 16 -14 23 -16 32 -7 7 7 21 12
33 12 42 0 59 44 29 74 -20 20 -62 20 -91 -1z"/>
<path d="M5060 9032 c0 -6 -7 -18 -16 -27 -10 -10 -17 -33 -17 -56 0 -22 -4
-42 -8 -45 -17 -10 -9 -64 11 -84 15 -15 25 -18 38 -11 33 17 53 49 54 82 1
19 9 50 19 69 23 43 23 47 2 58 -30 16 -83 24 -83 14z"/>
<path d="M5643 9023 c-26 -5 -39 -20 -48 -55 -6 -23 -3 -29 18 -37 64 -25 143
21 117 68 -6 12 -17 21 -25 21 -7 0 -19 2 -27 4 -7 2 -23 1 -35 -1z"/>
<path d="M5860 9023 c-25 -9 -60 -46 -60 -63 0 -9 6 -24 13 -33 11 -16 16 -15
72 2 64 20 77 39 55 80 -11 21 -46 27 -80 14z"/>
<path d="M12452 9017 c-27 -12 -38 -48 -22 -76 8 -16 20 -21 54 -21 54 0 74
19 58 55 -16 34 -61 55 -90 42z"/>
<path d="M5289 8999 c-14 -5 -32 -21 -39 -34 -11 -20 -10 -28 4 -50 9 -14 21
-25 27 -25 18 0 64 28 88 54 24 25 24 26 6 46 -19 21 -45 24 -86 9z"/>
<path d="M11962 8978 c-6 -16 -8 -36 -5 -44 6 -16 42 -28 70 -22 20 4 62 73
50 84 -4 4 -29 8 -55 10 -45 2 -49 0 -60 -28z"/>
<path d="M5467 8979 c-21 -11 -43 -31 -49 -45 -10 -21 -8 -28 12 -49 l23 -24
43 30 c48 32 64 56 56 79 -12 34 -33 37 -85 9z"/>
<path d="M11751 8981 c-12 -12 -21 -33 -21 -48 0 -37 31 -51 88 -40 40 8 42
10 42 43 0 27 -5 36 -22 43 -59 22 -67 22 -87 2z"/>
<path d="M12616 8938 c-22 -32 -20 -44 12 -68 15 -11 36 -36 46 -55 21 -39 66
-50 66 -17 0 10 3 22 7 25 11 12 13 65 4 90 -7 18 -20 26 -49 31 -22 3 -47 9
-55 12 -9 3 -22 -4 -31 -18z"/>
<path d="M6163 8860 c-27 -11 -30 -41 -7 -75 19 -30 54 -32 77 -7 23 25 21 45
-6 70 -25 24 -31 25 -64 12z"/>
<path d="M5052 8773 c-29 -57 -20 -126 18 -136 23 -6 42 15 59 66 11 33 10 41
-3 62 -19 29 -61 33 -74 8z"/>
<path d="M11562 8747 c-25 -27 -29 -69 -7 -87 19 -16 65 -4 65 17 0 9 7 21 16
27 13 10 12 15 -10 39 -31 33 -37 33 -64 4z"/>
<path d="M12724 8708 c-40 -8 -42 -11 -46 -51 -5 -45 9 -76 52 -114 33 -30 37
-29 55 13 19 46 19 71 0 90 -9 10 -13 25 -9 39 7 30 -2 34 -52 23z"/>
<path d="M5537 8699 c-116 -10 -117 -10 -117 -59 0 -59 33 -71 155 -59 49 5
97 11 105 14 26 7 179 9 186 2 4 -3 2 -12 -3 -19 -6 -7 -14 -28 -18 -46 -4
-18 -13 -36 -21 -39 -8 -3 -14 -13 -14 -23 0 -9 -9 -27 -20 -40 -11 -13 -20
-27 -20 -32 0 -12 -72 -125 -104 -164 -14 -18 -26 -36 -26 -41 0 -11 -20 -51
-50 -98 -28 -45 -25 -73 7 -86 37 -14 70 -4 79 24 4 12 15 33 25 46 11 13 19
32 19 42 0 9 6 24 13 31 6 7 22 33 35 58 33 66 71 132 85 149 23 27 53 85 61
116 4 16 11 32 15 35 20 15 43 67 48 110 5 47 5 49 -28 69 -31 19 -49 21 -179
20 -80 -1 -185 -5 -233 -10z"/>
<path d="M6163 8700 c-31 -12 -29 -45 2 -74 40 -38 85 -19 85 35 0 45 -34 60
-87 39z"/>
<path d="M6577 8703 c-35 -9 -63 -29 -105 -74 -61 -67 -55 -110 26 -197 19
-20 26 -34 19 -37 -40 -11 -48 -17 -56 -37 -10 -28 5 -65 30 -73 14 -5 16 -12
10 -33 -11 -36 1 -118 23 -165 10 -21 39 -56 65 -78 45 -40 47 -40 106 -34 52
5 64 10 91 40 18 19 35 50 38 70 8 39 -9 111 -32 138 -9 9 -20 25 -26 36 -6
10 -23 37 -38 59 -16 23 -28 46 -28 52 0 5 18 36 40 67 61 89 53 129 -43 221
-54 51 -72 57 -120 45z m43 -93 c10 -5 28 -24 40 -40 19 -27 20 -34 10 -65 -6
-19 -18 -42 -27 -50 -13 -14 -18 -13 -46 7 -67 47 -80 88 -41 129 31 32 37 34
64 19z m97 -420 c33 -56 37 -79 17 -101 -9 -10 -30 -19 -46 -19 -51 0 -108 81
-108 152 0 41 9 54 40 66 21 8 28 4 50 -27 14 -20 35 -52 47 -71z"/>
<path d="M10773 8626 c-22 -10 -30 -44 -25 -111 3 -42 -21 -310 -29 -333 -12
-32 3 -57 42 -71 18 -6 33 -11 35 -11 16 0 26 63 29 178 3 75 7 162 9 192 14
146 13 153 -14 160 -14 3 -35 1 -47 -4z"/>
<path d="M11036 8630 c-32 -10 -76 -47 -76 -66 0 -6 9 -22 19 -35 18 -22 22
-23 54 -11 81 29 141 -40 140 -159 -1 -86 -11 -97 -83 -96 -56 0 -64 -3 -95
-33 -43 -42 -44 -63 -5 -102 27 -27 34 -29 73 -23 23 4 54 15 69 26 15 10 31
19 35 19 4 0 39 -20 77 -45 66 -42 70 -43 97 -30 26 14 27 17 17 46 -6 18 -22
36 -38 43 -14 6 -42 24 -60 39 -32 27 -33 30 -21 62 7 19 12 73 12 121 0 70
-4 94 -22 127 -12 23 -27 52 -33 64 -6 13 -15 23 -21 23 -5 0 -21 9 -35 20
-27 21 -57 24 -104 10z"/>
<path d="M12160 8623 c-46 -9 -80 -80 -48 -99 7 -5 41 -7 75 -6 45 2 70 -2 88
-14 40 -26 36 -33 -50 -96 -57 -41 -89 -88 -66 -96 12 -4 112 -82 136 -106 17
-17 38 -74 31 -84 -10 -16 -68 -20 -124 -9 -51 11 -53 10 -80 -16 l-27 -28 33
-30 c33 -29 36 -30 124 -28 62 1 100 7 119 18 26 15 69 87 69 116 0 32 -82
134 -140 175 -21 15 -21 15 24 47 136 96 80 236 -104 257 -19 2 -46 2 -60 -1z"/>
<path d="M11938 8604 c-25 -13 -46 -73 -33 -93 16 -26 6 -271 -14 -362 -11
-50 -7 -63 26 -78 51 -23 59 -11 72 112 6 61 12 162 11 222 0 61 1 119 2 130
7 72 -15 95 -64 69z"/>
<path d="M6186 8565 c-30 -30 -30 -57 -2 -82 25 -22 28 -22 51 -7 30 20 33 63
7 87 -23 21 -36 21 -56 2z"/>
<path d="M5066 8557 c-16 -12 -18 -22 -12 -61 6 -37 13 -49 33 -59 l26 -12
-24 -5 c-22 -6 -24 -10 -24 -75 0 -62 2 -71 23 -81 l22 -11 -20 -26 c-34 -43
-25 -99 19 -121 22 -12 29 -12 45 0 16 11 18 21 12 61 -3 27 -15 56 -28 70
l-21 23 23 25 c31 33 35 79 9 114 -16 22 -18 32 -9 55 14 37 13 89 -2 104 -16
16 -50 15 -72 -1z"/>
<path d="M11544 8501 c-19 -45 -18 -65 4 -84 46 -42 87 0 71 74 -9 41 -13 47
-35 45 -19 -1 -29 -10 -40 -35z"/>
<path d="M12720 8487 c-32 -16 -40 -65 -14 -84 20 -14 61 -8 86 14 16 14 15
18 -10 49 -31 39 -29 38 -62 21z"/>
<path d="M6170 8394 c-13 -34 -13 -38 8 -57 23 -21 46 -21 77 -1 31 20 32 40
3 65 -34 28 -76 25 -88 -7z"/>
<path d="M11540 8264 c-13 -52 -12 -56 7 -76 19 -18 23 -19 49 -6 25 12 29 19
28 55 -1 46 -25 83 -54 83 -12 0 -20 -15 -30 -56z"/>
<path d="M6204 8268 c-23 -11 -44 -47 -44 -76 0 -21 53 -44 78 -35 41 16 52
58 26 98 -18 27 -28 29 -60 13z"/>
<path d="M12699 8263 c-20 -5 -31 -51 -18 -75 13 -24 46 -32 79 -18 35 14 43
33 29 64 -14 31 -46 41 -90 29z"/>
<path d="M6198 8133 c-21 -5 -33 -42 -24 -71 4 -11 18 -32 31 -46 l25 -27 -33
-29 c-31 -28 -32 -30 -17 -57 19 -34 63 -43 91 -17 23 21 24 45 3 86 -10 19
-14 42 -10 63 9 46 -18 109 -44 104 -3 -1 -13 -3 -22 -6z"/>
<path d="M11546 8122 c-13 -21 -37 -105 -34 -119 3 -16 8 -18 64 -29 29 -5 31
-4 37 28 3 18 8 40 12 49 12 31 -62 98 -79 71z"/>
<path d="M12690 8084 c-9 -3 -21 -14 -29 -26 -11 -17 -11 -25 1 -47 23 -46 46
-53 78 -21 29 29 26 74 -5 88 -14 7 -27 11 -28 11 -1 -1 -9 -3 -17 -5z"/>
<path d="M5108 8052 c-22 -25 -28 -59 -16 -93 8 -24 16 -29 42 -29 48 0 68 26
55 73 -13 48 -58 76 -81 49z"/>
<path d="M15195 8037 c-20 -31 -35 -152 -24 -192 5 -16 9 -53 9 -82 0 -51 -1
-52 -43 -73 -83 -42 -123 -151 -83 -228 31 -61 77 -75 155 -47 62 21 90 46 97
85 4 19 12 40 19 45 6 6 16 26 23 46 12 35 11 37 -32 80 -39 40 -44 50 -52
109 -4 36 -8 112 -9 170 0 100 -1 105 -22 108 -14 2 -27 -5 -38 -21z m44 -459
l28 -32 -32 -22 c-52 -35 -71 -38 -94 -13 -26 28 -26 34 2 69 29 38 61 38 96
-2z"/>
<path d="M18111 7971 c-15 -27 -14 -41 6 -63 13 -15 17 -37 16 -104 -1 -50 -6
-91 -13 -99 -8 -9 -31 -15 -60 -15 -59 0 -96 -25 -86 -58 9 -27 32 -40 80 -45
20 -2 40 -8 45 -13 5 -5 5 -44 0 -88 -10 -100 1 -130 45 -122 17 4 34 10 39
15 5 5 10 48 11 95 1 47 5 88 9 93 5 4 57 13 117 19 115 12 143 24 138 58 -4
27 -60 46 -160 53 l-76 6 -4 111 c-4 133 -17 169 -65 174 -23 2 -34 -2 -42
-17z"/>
<path d="M17074 7965 c-3 -8 2 -38 12 -67 17 -52 23 -175 10 -197 -4 -6 -17
-11 -30 -11 -43 0 -87 -22 -98 -49 l-11 -26 -8 31 c-5 17 -18 39 -29 49 -19
17 -21 17 -75 -10 -33 -17 -73 -49 -99 -79 -55 -65 -66 -87 -68 -132 -2 -59
71 -109 143 -98 21 4 51 17 66 30 20 17 31 20 45 13 25 -13 86 -1 98 20 6 12
4 26 -4 42 -7 13 -18 34 -24 47 -27 51 -32 62 -32 73 0 8 5 7 16 -2 9 -7 33
-12 54 -10 21 1 40 -1 43 -6 2 -4 1 -35 -4 -68 -15 -109 13 -164 67 -128 18
11 23 28 29 96 7 84 14 97 53 97 34 0 80 27 88 52 9 29 -19 48 -72 48 -41 0
-43 2 -50 34 -3 19 -3 39 1 45 3 6 3 16 -1 23 -4 7 -7 31 -5 54 1 23 -2 45 -8
49 -6 3 -11 15 -11 25 0 11 -5 31 -12 45 -9 19 -19 25 -45 25 -20 0 -36 -6
-39 -15z m-230 -431 c9 -23 -20 -53 -45 -47 -35 10 -17 63 22 63 9 0 20 -7 23
-16z"/>
<path d="M15762 7953 c-32 -11 -56 -31 -88 -72 -42 -52 -45 -59 -41 -106 2
-27 12 -67 21 -88 l18 -37 -26 -38 c-15 -20 -36 -48 -47 -62 -28 -37 -36 -96
-15 -119 9 -10 21 -34 26 -53 14 -49 66 -95 115 -101 63 -9 129 37 161 110 26
59 26 124 0 140 -20 13 -76 96 -76 113 0 20 20 38 82 73 33 19 52 39 68 71 20
42 20 47 5 75 -27 53 -71 86 -140 104 -11 3 -39 -2 -63 -10z m90 -117 c4 -6 8
-16 8 -23 0 -26 -115 -82 -133 -64 -10 10 10 93 27 104 15 10 89 -3 98 -17z
m-142 -403 c0 -5 14 -16 32 -26 28 -16 30 -19 16 -33 -14 -14 -18 -14 -42 1
-25 17 -37 65 -16 65 6 0 10 -3 10 -7z"/>
<path d="M16506 7929 c-18 -22 -22 -78 -10 -144 9 -50 5 -288 -6 -325 -17 -61
-13 -78 25 -96 42 -19 65 -7 66 35 1 46 7 264 9 316 1 41 -3 116 -9 192 -1 16
-30 43 -44 43 -7 0 -21 -10 -31 -21z"/>
<path d="M12672 7872 c-15 -12 -21 -24 -16 -35 5 -14 0 -17 -28 -17 -65 0 -91
-63 -40 -98 30 -22 60 -16 83 15 8 10 25 18 38 18 16 0 29 11 44 37 l22 37
-29 30 c-34 36 -43 37 -74 13z"/>
<path d="M5086 7848 c-9 -12 -16 -29 -16 -37 0 -23 43 -80 65 -87 11 -4 34
-23 51 -43 28 -32 34 -35 55 -25 13 6 41 19 62 27 20 9 37 23 37 30 0 25 -41
51 -87 57 -43 5 -49 9 -73 50 -31 54 -68 65 -94 28z"/>
<path d="M6092 7817 c-19 -20 -21 -29 -13 -50 14 -36 74 -53 106 -29 51 38 32
81 -40 96 -25 5 -36 2 -53 -17z"/>
<path d="M5703 7814 c-29 -12 -63 -48 -63 -66 0 -24 97 -25 142 -2 33 17 35
37 8 64 -23 23 -42 24 -87 4z"/>
<path d="M5923 7790 c-32 -19 -51 -59 -38 -79 12 -21 72 -12 104 15 35 29 40
59 12 74 -28 14 -42 13 -78 -10z"/>
<path d="M11814 7774 c-20 -21 -20 -24 -7 -53 15 -29 17 -30 61 -24 77 11 107
61 50 82 -54 20 -83 18 -104 -5z"/>
<path d="M5492 7776 c-18 -7 -44 -23 -57 -37 -23 -22 -24 -26 -10 -45 13 -20
17 -21 66 -8 59 15 94 36 108 63 8 15 6 20 -15 30 -30 13 -48 13 -92 -3z"/>
<path d="M12360 7783 c-56 -10 -83 -64 -45 -89 19 -12 28 -13 45 -4 11 6 29 8
40 5 26 -8 55 36 46 70 -7 26 -23 29 -86 18z"/>
<path d="M12063 7768 c-66 -32 -17 -98 72 -98 41 0 46 7 38 52 -4 29 -11 37
-32 41 -14 3 -33 8 -41 11 -8 2 -25 0 -37 -6z"/>
<path d="M14092 7761 c-36 -19 -82 -80 -82 -110 0 -11 -12 -34 -27 -51 -26
-32 -26 -32 -10 -78 9 -26 24 -82 34 -124 17 -71 20 -78 47 -84 21 -4 34 -1
49 14 18 19 19 25 9 59 -35 111 -33 260 4 288 10 8 27 17 36 20 22 8 33 42 18
59 -18 22 -44 24 -78 7z"/>
<path d="M14830 7758 c-14 -6 -42 -10 -62 -9 -31 2 -39 -3 -52 -26 -8 -15 -31
-43 -51 -61 -32 -28 -37 -37 -32 -65 3 -17 1 -48 -5 -68 -13 -47 -2 -149 16
-149 8 0 19 -6 25 -14 24 -29 66 -35 108 -16 32 14 48 31 74 79 30 55 35 59
50 45 13 -12 25 -13 50 -6 29 8 34 13 32 37 -1 15 -11 37 -21 49 -35 41 -69
119 -61 146 15 54 11 70 -18 69 -16 0 -39 -5 -53 -11z m-15 -210 c-11 -56 -41
-98 -70 -98 -51 0 -42 71 16 128 28 27 35 30 47 19 9 -10 11 -25 7 -49z"/>
<path d="M14378 7713 c-41 -42 -77 -114 -78 -154 0 -15 -9 -38 -21 -53 -24
-31 -20 -71 10 -81 10 -3 26 -21 36 -40 24 -44 75 -67 140 -62 67 6 125 32
125 56 0 27 -58 67 -73 52 -24 -24 -127 -1 -109 25 4 5 21 19 38 29 79 50 144
131 144 179 0 30 -35 60 -86 74 -67 19 -87 15 -126 -25z m100 -74 c-3 -24 -74
-87 -84 -76 -14 13 12 72 36 84 37 19 52 16 48 -8z"/>
<path d="M16021 7707 c-18 -20 -22 -32 -16 -56 7 -34 14 -37 110 -45 148 -13
180 -16 195 -21 8 -2 29 7 45 20 29 24 29 26 15 52 -12 21 -24 29 -50 31 -41
3 -214 29 -250 38 -19 4 -31 -1 -49 -19z"/>
<path d="M17409 7695 c-56 -36 -75 -71 -82 -145 -8 -85 3 -130 43 -180 32 -41
101 -80 141 -80 12 0 48 12 80 26 63 29 82 56 55 82 -14 14 -23 14 -80 3 -62
-12 -67 -12 -96 9 -35 25 -39 40 -10 40 58 0 178 98 186 152 6 31 2 38 -35 67
-71 56 -142 65 -202 26z m124 -82 c30 -18 -34 -63 -89 -63 -19 0 -34 2 -34 5
0 14 31 64 42 68 13 6 66 -1 81 -10z"/>
<path d="M17788 7713 c-15 -2 -49 -24 -77 -49 l-49 -44 18 -36 c10 -19 30 -47
44 -61 33 -33 33 -36 -4 -50 -18 -7 -32 -21 -36 -37 -5 -22 0 -32 27 -57 60
-53 73 -59 140 -60 76 -1 109 10 137 46 33 41 14 76 -72 135 -94 65 -149 116
-118 108 4 -1 23 6 42 14 19 9 50 22 68 29 34 12 57 42 47 59 -6 10 -111 11
-167 3z m42 -273 c35 -29 35 -29 9 -30 -22 0 -79 44 -79 62 0 13 36 -4 70 -32z"/>
<path d="M12912 7638 c-19 -9 -22 -18 -20 -47 3 -38 -2 -35 108 -60 19 -5 47
-14 62 -21 24 -11 31 -11 48 5 38 35 16 74 -52 90 -14 4 -34 15 -44 26 -19 21
-65 24 -102 7z"/>
<path d="M5729 7579 c-33 -12 -41 -47 -21 -90 22 -44 57 -59 82 -33 17 17 17
24 7 64 -19 73 -23 75 -68 59z"/>
<path d="M13240 7460 c-11 -11 -20 -24 -20 -29 0 -18 55 -48 113 -61 51 -12
60 -12 74 2 26 27 9 65 -39 88 -54 26 -102 26 -128 0z"/>
<path d="M13512 7318 c-13 -13 -16 -37 -6 -63 4 -9 31 -28 62 -42 54 -25 55
-25 74 -5 24 24 14 49 -35 86 -41 31 -78 41 -95 24z"/>
<path d="M5760 7261 c-45 -24 -48 -43 -16 -92 26 -39 27 -39 56 -24 24 13 30
22 29 48 -1 42 -12 80 -24 84 -6 2 -26 -5 -45 -16z"/>
<path d="M13767 7032 c-10 -10 -17 -25 -17 -34 0 -13 95 -98 109 -98 3 1 17
10 30 20 l23 20 -47 55 c-49 58 -72 66 -98 37z"/>
<path d="M5780 7011 c-24 -47 0 -111 42 -111 38 0 62 78 33 110 -23 25 -61 26
-75 1z"/>
<path d="M5822 6774 c-42 -29 -19 -114 31 -114 19 0 57 46 57 70 0 17 -39 60
-56 60 -5 0 -20 -7 -32 -16z"/>
<path d="M14016 6764 c-9 -8 -16 -23 -16 -33 0 -19 34 -54 63 -64 9 -4 17 -15
17 -25 0 -15 8 -18 48 -17 43 0 47 2 50 25 3 31 -49 89 -100 113 -44 21 -43
21 -62 1z"/>
<path d="M14266 6495 c-10 -8 -23 -16 -29 -18 -5 -1 -7 -16 -3 -33 8 -38 80
-84 119 -77 50 10 52 28 11 78 -32 39 -63 66 -76 65 -2 0 -12 -7 -22 -15z"/>
<path d="M5863 6470 c-41 -24 -41 -46 -4 -88 33 -36 38 -37 64 -18 22 17 22
60 0 97 -21 34 -19 34 -60 9z"/>
<path d="M14724 6378 c-19 -18 -53 -46 -75 -63 -22 -16 -57 -45 -78 -62 -21
-18 -48 -33 -59 -33 -25 0 -62 -36 -62 -61 0 -27 -131 -147 -226 -207 -103
-65 -85 -113 48 -127 40 -3 78 -10 83 -14 6 -5 49 -11 97 -15 48 -3 97 -10
110 -15 66 -25 105 -29 239 -28 161 2 188 11 207 66 9 24 7 34 -13 63 -13 18
-40 76 -60 128 -20 52 -43 106 -50 120 -25 49 -55 163 -55 211 0 44 -3 51 -26
59 -37 14 -42 13 -80 -22z"/>
<path d="M6138 6335 c-9 -9 -170 -35 -223 -35 -27 -1 -113 -2 -190 -3 -125 -2
-144 -4 -178 -24 l-38 -23 7 -52 c7 -55 22 -73 270 -322 12 -11 27 -38 33 -58
13 -40 53 -78 80 -78 9 0 39 32 66 70 28 39 59 83 71 98 11 15 49 79 84 142
35 63 70 124 79 135 35 44 40 62 30 99 -7 25 -18 40 -35 46 -28 11 -48 13 -56
5z"/>
<path d="M9690 5819 c-64 -17 -373 -44 -620 -54 -41 -2 -76 -4 -77 -5 -2 -2
-24 -4 -50 -5 -46 -3 -106 -10 -168 -19 -16 -3 -73 -5 -125 -5 -279 1 -386 -2
-420 -11 -66 -18 -131 -23 -300 -24 -157 -2 -340 -12 -405 -23 -16 -2 -149 -6
-295 -7 -146 -1 -269 -4 -275 -8 -5 -3 -172 -9 -370 -13 -198 -4 -380 -8 -405
-10 -100 -6 -164 -6 -368 0 -118 3 -225 10 -238 16 -14 5 -54 9 -88 9 -72 0
-90 -13 -101 -71 -5 -28 -3 -38 10 -42 11 -5 16 -18 15 -44 0 -21 1 -247 3
-503 2 -356 0 -471 -9 -490 -7 -14 -15 -72 -17 -128 -2 -71 -8 -106 -17 -112
-18 -11 -5 -38 22 -49 13 -4 57 -9 99 -9 94 -2 180 -15 277 -41 47 -13 121
-23 200 -26 202 -9 473 -9 527 0 63 10 129 10 180 0 49 -10 205 -16 366 -15
86 0 189 -5 284 -15 28 -3 102 -1 165 3 111 9 195 6 425 -18 156 -15 218 -17
288 -8 34 4 232 10 440 13 209 3 382 7 386 10 7 4 34 5 181 4 52 0 114 8 255
33 54 10 214 12 695 8 80 0 172 -5 204 -9 37 -5 134 -3 255 6 108 8 214 16
236 17 22 1 51 5 65 9 37 11 359 15 426 5 33 -4 73 -10 89 -12 52 -7 372 -9
383 -2 6 3 13 2 16 -3 4 -5 21 -5 43 -1 20 5 41 7 45 4 4 -3 14 -2 21 3 6 4
26 8 42 9 17 1 54 5 84 9 45 7 55 5 63 -8 11 -21 37 -22 66 -1 17 12 22 25 22
60 0 24 4 44 9 44 9 0 7 56 -4 90 -4 12 -9 108 -11 213 -6 285 -14 440 -24
462 -21 48 -43 367 -40 587 1 38 -5 66 -16 84 -16 24 -22 25 -58 19 -23 -4
-52 -6 -66 -5 -14 1 -86 4 -160 5 -74 2 -155 6 -180 8 -63 8 -333 17 -606 21
-127 1 -236 6 -242 10 -6 3 -77 7 -158 7 -92 0 -154 4 -168 11 -13 8 -91 13
-211 14 -104 2 -201 4 -215 5 -14 1 -86 1 -160 0 -74 -2 -146 0 -160 2 -14 3
-41 1 -60 -4z m280 -119 c95 8 401 2 530 -9 74 -6 178 -13 230 -15 52 -3 133
-8 180 -12 70 -6 217 -7 280 -2 8 1 56 -2 105 -6 50 -4 155 -9 235 -11 79 -2
146 -8 147 -12 3 -9 76 -7 227 5 108 9 145 6 148 -12 6 -44 8 -74 12 -169 5
-141 17 -317 23 -342 5 -22 19 -169 29 -285 3 -41 1 -102 -4 -135 -7 -43 -7
-64 1 -74 14 -17 11 -229 -4 -247 -7 -9 -7 -19 0 -33 16 -29 14 -34 -11 -27
-13 3 -78 -2 -146 -11 -96 -13 -127 -15 -142 -5 -11 6 -21 8 -24 4 -8 -13
-240 -14 -360 -2 -172 17 -385 16 -561 -3 -88 -10 -216 -20 -285 -23 -147 -6
-271 -13 -285 -14 -5 -1 -41 1 -80 4 -141 12 -230 18 -245 17 -8 0 -98 -2
-200 -5 -102 -3 -219 -10 -260 -15 -41 -5 -78 -7 -82 -5 -4 3 -17 0 -29 -7
-12 -6 -72 -13 -133 -16 -61 -2 -129 -6 -151 -9 -22 -2 -184 -6 -360 -9 -176
-2 -387 -7 -470 -11 -214 -10 -378 -6 -471 12 -62 11 -142 14 -325 13 -286 -3
-665 8 -729 21 -57 11 -214 13 -300 3 -185 -21 -674 7 -815 47 -16 4 -60 11
-97 15 -57 5 -67 10 -72 28 -4 16 1 28 18 43 23 21 23 22 19 190 -6 241 -7
559 -1 699 2 65 2 152 -2 191 -3 40 -4 77 -2 82 1 5 25 5 55 0 147 -24 400
-28 777 -13 218 9 251 10 350 6 41 -1 116 2 166 8 100 12 457 16 474 6 6 -4
16 -3 23 3 7 5 35 10 62 11 28 1 124 8 215 15 91 7 188 11 215 10 147 -9 302
-1 395 22 50 12 256 20 295 11 62 -14 183 -9 315 13 30 5 109 12 175 15 120 5
399 24 465 31 19 2 67 7 105 12 39 5 129 6 200 4 72 -3 150 -4 175 -2z"/>
<path d="M9799 5389 c-75 -8 -139 -34 -166 -69 -16 -21 -26 -84 -18 -119 15
-69 119 -163 258 -232 42 -22 77 -45 77 -53 0 -8 -24 -24 -54 -36 -61 -24
-116 -20 -147 11 -25 25 -44 24 -68 -2 -20 -21 -20 -22 -1 -59 15 -30 27 -39
62 -48 69 -19 126 -24 133 -12 3 5 16 10 27 10 12 0 45 18 73 39 56 42 73 80
55 125 -11 31 -99 96 -163 122 -78 31 -186 148 -172 186 13 33 62 48 147 47
46 -1 95 3 109 9 32 13 42 44 23 71 -15 21 -43 23 -175 10z"/>
<path d="M5821 5299 c-19 -18 -22 -27 -16 -58 8 -40 11 -191 6 -317 -4 -86 11
-134 49 -154 11 -6 75 -9 157 -8 76 2 156 -1 178 -5 82 -16 98 45 21 86 -36
19 -56 22 -173 22 -72 0 -134 3 -138 6 -6 7 -7 174 -2 338 2 60 -1 88 -11 97
-19 20 -45 17 -71 -7z"/>
<path d="M7915 5285 c-16 -8 -41 -14 -55 -15 -15 0 -30 -4 -35 -8 -6 -5 -31
-17 -58 -26 -53 -20 -67 -39 -57 -76 5 -22 12 -25 47 -24 22 0 60 10 84 21 79
36 86 37 92 6 3 -15 2 -48 -3 -73 -4 -25 -14 -100 -21 -167 -12 -115 -12 -124
6 -143 10 -11 26 -20 35 -20 24 0 49 41 43 71 -2 13 3 93 11 177 9 85 15 157
15 160 -5 33 4 41 49 48 63 9 73 17 59 53 -10 28 -11 29 -96 29 -54 1 -97 -4
-116 -13z"/>
<path d="M10074 5259 c-12 -13 -14 -23 -8 -27 11 -7 22 -41 31 -94 4 -28 4
-28 -50 -28 -64 0 -82 -14 -68 -53 10 -27 55 -47 104 -47 l30 0 -8 -62 c-4
-35 -7 -72 -7 -83 1 -21 36 -55 56 -55 21 0 47 58 45 98 -1 20 -2 54 -1 74 2
39 -4 35 91 54 32 6 76 66 67 90 -6 16 -67 19 -81 5 -6 -5 -26 -11 -45 -13
-28 -2 -35 1 -38 17 -2 11 -10 34 -18 52 -8 17 -14 36 -14 42 0 15 -37 51 -53
51 -8 0 -22 -9 -33 -21z"/>
<path d="M11691 5135 c-38 -21 -101 -85 -101 -104 0 -9 -4 -21 -9 -26 -4 -6
-13 -29 -18 -51 -9 -38 -7 -47 18 -91 41 -71 123 -112 231 -116 64 -2 81 1
104 19 15 11 29 25 32 32 6 20 -52 39 -128 41 -44 1 -81 7 -90 15 -8 7 -23 16
-33 19 -24 9 -18 41 8 45 36 5 100 36 113 54 7 10 19 18 27 18 18 0 30 61 18
96 -18 53 -115 80 -172 49z m79 -86 c0 -10 -59 -39 -81 -39 -18 0 -4 24 22 37
30 16 59 17 59 2z"/>
<path d="M11051 5093 c-46 -43 -59 -53 -69 -53 -5 0 -28 -27 -51 -60 -50 -74
-54 -118 -15 -157 37 -36 97 -28 133 19 14 18 36 44 48 58 l23 25 6 -22 c3
-13 10 -23 15 -23 5 0 17 -17 27 -37 28 -61 80 -85 113 -52 11 11 30 19 42 17
26 -3 84 37 93 64 7 23 24 13 24 -14 0 -12 6 -29 14 -37 21 -25 45 -112 52
-188 5 -57 4 -71 -10 -82 -13 -11 -22 -11 -42 -2 -14 6 -33 11 -42 11 -31 1
-102 80 -102 113 0 24 -19 31 -45 17 -69 -37 -10 -152 109 -217 45 -25 128
-31 169 -12 28 13 57 67 57 108 0 48 -30 204 -45 238 -8 17 -15 35 -15 41 0
21 -72 163 -85 168 -11 5 -12 10 -3 24 6 9 8 25 4 35 -5 14 -14 16 -49 11 -57
-9 -116 -52 -142 -104 -35 -69 -40 -70 -74 -16 -18 29 -31 63 -31 82 0 75 -53
97 -109 45z m314 -145 c-4 -13 -11 -27 -16 -32 -15 -16 -20 0 -10 28 13 32 35
36 26 4z"/>
<path d="M8701 5071 c-24 -26 -30 -43 -35 -99 -10 -121 -5 -175 19 -202 22
-24 48 -13 70 30 12 22 13 42 7 90 -5 33 -6 63 -2 65 11 7 26 -15 34 -47 4
-16 18 -34 35 -42 28 -15 28 -15 66 39 21 30 41 55 44 55 14 0 71 -72 71 -90
0 -10 7 -23 15 -30 8 -7 18 -30 21 -52 10 -60 66 -90 92 -48 14 22 8 62 -14
98 -8 12 -12 22 -9 22 3 0 -6 17 -20 37 -14 21 -25 44 -25 53 0 8 -18 36 -41
63 -35 40 -46 47 -78 47 -24 0 -49 -9 -71 -25 l-34 -25 -36 39 c-49 55 -73 60
-109 22z"/>
<path d="M10712 5069 c-17 -17 -36 -51 -43 -75 -8 -24 -19 -44 -26 -44 -26 0
-32 -35 -13 -76 10 -21 26 -58 36 -81 23 -52 48 -63 76 -34 16 18 18 30 13 61
-10 62 -9 145 4 168 9 16 18 20 44 16 23 -3 39 1 57 16 l25 20 -28 25 c-16 14
-40 25 -57 25 -15 0 -35 2 -43 5 -8 4 -27 -8 -45 -26z"/>
<path d="M8158 5067 c-29 -25 -48 -57 -48 -83 0 -10 -9 -37 -21 -60 -18 -39
-19 -45 -5 -71 8 -16 37 -52 65 -81 47 -48 54 -52 97 -52 36 0 59 8 96 31 55
36 70 69 43 99 -23 26 -33 25 -59 -3 -31 -34 -69 -41 -97 -19 -26 22 -20 36
24 58 65 31 77 39 77 50 0 6 12 16 26 22 21 10 25 18 22 45 -3 28 -10 36 -57
60 -68 34 -126 36 -163 4z"/>
<path d="M10368 5047 c-20 -17 -41 -41 -47 -53 -11 -24 -17 -170 -7 -195 10
-22 93 -41 136 -30 80 21 97 33 110 75 7 23 16 46 22 53 6 7 5 14 -2 18 -5 3
-10 19 -10 34 0 32 -37 86 -77 113 -42 27 -82 23 -125 -15z m112 -97 c16 -30
12 -55 -13 -78 -28 -26 -66 -20 -69 12 -5 75 17 115 53 95 10 -5 23 -18 29
-29z"/>
<path d="M6747 5052 c-36 -22 -67 -70 -67 -104 0 -16 -4 -28 -10 -28 -13 0
-13 -55 0 -102 14 -50 55 -65 88 -33 20 19 22 26 13 43 -11 20 -8 112 4 132
13 22 44 8 71 -32 25 -37 29 -52 29 -115 1 -80 11 -99 48 -89 18 4 29 17 37
42 l12 37 20 -31 c28 -44 80 -74 120 -69 52 6 87 28 105 64 8 18 22 33 29 33
8 0 14 -1 14 -3 0 -1 9 -27 21 -57 48 -126 60 -287 23 -315 -30 -23 -76 -18
-126 14 -54 34 -78 66 -78 102 0 30 -31 62 -52 54 -8 -3 -21 -17 -28 -30 -31
-57 76 -208 172 -245 89 -34 182 14 208 106 24 86 2 248 -51 369 -9 22 -27 64
-40 92 -12 29 -30 60 -40 69 -13 11 -16 25 -12 55 5 33 3 39 -13 40 -51 3 -81
-5 -103 -27 -13 -13 -27 -24 -32 -24 -21 0 -97 -63 -114 -94 -11 -20 -23 -36
-26 -36 -4 0 -13 17 -20 38 -12 38 -24 56 -77 116 -37 43 -84 53 -125 28z
m437 -137 c3 -8 -4 -35 -15 -60 -24 -54 -59 -69 -91 -38 -19 20 -19 22 -2 47
9 15 33 36 53 46 46 23 48 23 55 5z"/>
<path d="M8513 5063 c-20 -3 -33 -10 -33 -19 0 -8 -4 -14 -9 -14 -4 0 -11 -23
-14 -52 -4 -28 -11 -56 -17 -62 -15 -15 -12 -99 5 -123 40 -57 87 -22 84 63
-2 55 23 124 44 124 8 0 22 9 31 19 14 15 15 24 6 40 -6 12 -17 21 -25 21 -7
0 -19 2 -27 3 -7 2 -28 2 -45 0z"/>
<path d="M7425 5018 c-40 -59 -5 -84 127 -91 82 -5 100 -4 118 11 19 15 20 21
9 45 -6 14 -19 29 -28 31 -30 8 -87 16 -148 21 -56 4 -64 2 -78 -17z"/>
<path d="M6395 5016 c-55 -25 -95 -85 -95 -143 0 -48 32 -127 60 -150 51 -42
156 -30 225 25 42 33 53 111 24 172 -36 79 -145 128 -214 96z m123 -119 c46
-43 1 -110 -70 -105 l-42 3 -1 48 c-1 85 53 110 113 54z"/>
<path d="M3535 5669 c-22 -5 -49 -14 -60 -20 -12 -5 -27 -11 -35 -12 -8 -2
-21 -6 -27 -10 -7 -5 -17 -6 -21 -3 -4 2 -55 -3 -112 -12 -58 -9 -161 -16
-230 -17 -124 0 -449 14 -460 20 -10 6 -215 -14 -305 -30 -72 -13 -121 -14
-240 -8 -82 4 -258 5 -390 1 -132 -4 -262 -7 -290 -6 -27 1 -70 1 -95 0 -25
-1 -135 -4 -245 -7 -110 -3 -207 -9 -215 -12 -8 -4 -28 -8 -45 -9 -52 -4 -180
-6 -190 -4 -28 6 -50 -3 -81 -34 -37 -37 -37 -49 2 -101 20 -27 36 -100 38
-175 1 -14 5 -30 9 -37 4 -6 7 -24 6 -40 -1 -15 6 -64 15 -109 18 -87 22 -201
18 -502 -2 -131 0 -198 8 -207 8 -10 7 -22 -4 -49 -21 -51 -6 -59 127 -68 141
-9 573 -12 587 -3 18 11 120 15 440 16 182 1 361 -3 423 -10 115 -12 271 -8
372 11 33 6 170 13 305 15 299 4 371 7 525 23 149 15 415 6 461 -16 28 -14 36
-13 68 0 l36 15 0 64 c0 35 -3 67 -7 71 -21 20 -32 128 -26 249 4 82 2 141 -5
165 -11 37 -32 146 -56 302 -16 100 -32 181 -53 270 -8 36 -21 92 -28 125 -17
78 -40 132 -64 144 -27 15 -110 20 -156 10z m72 -123 c38 -9 52 -24 57 -62 2
-16 13 -67 24 -114 11 -47 27 -128 36 -180 8 -52 19 -113 23 -135 4 -22 8 -44
8 -50 2 -14 14 -63 27 -110 6 -22 12 -101 13 -175 2 -74 7 -178 11 -231 5 -74
4 -98 -6 -104 -7 -4 -128 -9 -269 -9 -141 -1 -261 -5 -268 -9 -9 -6 -238 -18
-348 -18 -11 0 -83 0 -160 0 -152 1 -179 -2 -300 -23 -44 -8 -91 -12 -105 -10
-14 2 -54 6 -90 8 -36 3 -116 10 -178 16 -63 6 -118 8 -123 4 -5 -3 -170 -8
-367 -10 -196 -3 -373 -8 -392 -13 -40 -9 -224 -6 -389 6 l-115 8 -9 30 c-5
17 -11 156 -12 310 -2 246 -9 353 -30 485 -3 19 -7 46 -10 60 -16 100 -27 156
-37 173 -15 29 12 46 61 40 21 -3 74 2 118 11 62 12 144 16 383 16 168 0 316
0 330 -1 14 0 104 4 200 9 96 5 204 8 240 7 36 -1 107 -3 158 -5 51 -1 95 0
99 4 3 3 35 6 69 6 35 0 114 7 176 16 81 11 145 14 228 9 63 -3 145 -8 182
-10 37 -2 71 -6 75 -8 12 -6 253 -1 298 7 22 4 53 11 69 17 16 5 52 9 80 9 28
0 83 11 121 24 39 13 75 20 80 16 6 -4 24 -11 42 -14z"/>
<path d="M1229 5276 c-2 -2 -44 -7 -93 -10 -105 -7 -146 -19 -205 -64 -75 -55
-94 -101 -69 -168 15 -42 88 -83 159 -89 29 -3 62 -8 73 -11 38 -12 97 -57
112 -85 13 -27 13 -28 -20 -48 -24 -16 -47 -21 -85 -19 -46 2 -55 7 -87 42
l-35 39 -24 -23 c-37 -35 -34 -82 8 -113 55 -41 78 -49 146 -51 87 -1 167 35
199 92 31 56 16 97 -64 171 -71 67 -134 101 -187 101 -57 0 -87 16 -87 45 0
20 10 30 50 50 28 14 54 24 58 21 4 -2 45 4 92 13 76 16 86 21 95 45 6 18 6
33 -1 43 -11 18 -27 26 -35 19z"/>
<path d="M2458 5114 c-35 -18 -36 -48 -3 -70 30 -19 70 -12 84 15 8 14 6 25
-10 45 -23 30 -33 31 -71 10z"/>
<path d="M3181 5066 c-42 -15 -93 -89 -85 -122 3 -12 -4 -40 -16 -64 -25 -49
-20 -85 12 -93 13 -4 40 -29 61 -58 42 -55 90 -82 167 -93 42 -6 51 -3 117 39
59 38 72 51 76 78 2 17 3 35 0 40 -9 16 -66 6 -104 -20 -51 -34 -116 -37 -156
-7 -40 30 -39 46 7 74 58 35 130 100 130 117 0 36 -33 75 -83 99 -58 27 -76
28 -126 10z m77 -82 c12 -4 22 -9 22 -13 0 -8 -67 -51 -80 -51 -14 0 -13 26 2
50 14 21 20 23 56 14z"/>
<path d="M1462 5022 c-46 -46 -88 -161 -79 -217 8 -51 29 -88 57 -101 65 -31
99 -36 178 -24 79 12 112 30 112 60 0 26 -26 32 -113 24 -71 -6 -79 -5 -75 10
1 10 28 32 59 49 74 42 94 58 108 84 27 52 -88 153 -174 153 -27 0 -43 -8 -73
-38z m110 -63 c20 -11 20 -11 -3 -35 -19 -20 -72 -54 -86 -54 -7 0 -2 30 12
64 16 38 38 46 77 25z"/>
<path d="M2255 5017 c-8 -13 -16 -42 -17 -65 -1 -23 -5 -42 -10 -42 -5 0 -7
-13 -3 -30 10 -44 -7 -36 -28 13 -10 23 -24 53 -30 67 -13 26 -52 39 -69 22
-6 -6 -21 -4 -41 6 -42 21 -142 28 -172 12 -13 -7 -31 -29 -41 -49 -50 -103
-48 -96 -36 -161 14 -78 25 -92 71 -88 43 4 51 26 38 110 -6 45 -5 63 8 88
l17 32 66 -7 c37 -4 72 -12 78 -18 18 -19 55 -133 49 -149 -4 -10 7 -27 32
-47 47 -39 95 -42 111 -7 13 30 39 137 47 196 3 25 8 63 11 86 5 37 3 42 -18
47 -38 11 -47 8 -63 -16z"/>
<path d="M2812 5003 c-24 -8 -70 -40 -104 -71 l-60 -56 5 -51 c8 -78 23 -102
86 -131 78 -37 178 -43 246 -16 60 23 70 51 30 78 -19 12 -45 16 -108 15 -93
-2 -150 19 -155 56 -4 29 41 69 96 85 53 15 87 59 71 90 -12 22 -47 22 -107 1z"/>
<path d="M2486 4898 c-12 -16 -16 -46 -16 -109 0 -101 14 -124 68 -113 l32 6
-6 75 c-10 129 -17 158 -41 161 -13 2 -27 -5 -37 -20z"/>
<path d="M15348 5606 c-15 -8 -29 -12 -31 -10 -2 3 -32 -11 -67 -31 -34 -19
-67 -35 -72 -35 -17 0 -143 -87 -186 -129 -46 -45 -72 -61 -100 -61 -18 0 -62
-41 -73 -70 -3 -8 0 -30 8 -48 9 -22 10 -38 4 -50 -17 -32 -42 -203 -37 -251
3 -25 14 -66 25 -91 11 -25 21 -53 21 -62 0 -9 11 -30 25 -46 14 -17 25 -35
25 -41 0 -18 92 -101 150 -135 30 -18 75 -40 100 -50 25 -10 54 -23 65 -30 11
-7 38 -19 60 -26 22 -7 53 -22 68 -32 17 -12 34 -17 45 -13 9 4 55 11 102 16
129 12 152 22 233 100 39 38 91 84 114 102 23 18 43 37 43 43 0 6 10 19 21 30
24 21 97 164 99 192 10 163 9 210 -4 243 -8 20 -13 38 -11 40 2 2 8 45 14 94
8 72 7 94 -4 111 -27 42 -46 54 -85 54 -30 0 -40 5 -45 20 -9 28 -107 96 -168
116 -29 9 -63 22 -77 30 -66 34 -213 45 -262 20z m188 -114 c5 -5 50 -24 101
-42 82 -30 114 -52 99 -68 -8 -7 -122 -6 -216 3 -89 8 -97 6 -215 -52 -25 -12
-38 -12 -75 -3 -25 7 -60 14 -78 17 -26 4 -30 8 -21 19 6 8 19 14 29 14 10 0
23 7 31 16 43 52 310 126 345 96z m-64 -317 c-3 -36 1 -73 13 -107 18 -57 90
-147 117 -148 9 0 28 -5 42 -11 15 -7 43 -9 72 -4 40 6 57 16 103 61 31 32 58
51 63 46 11 -11 -7 -132 -26 -176 -22 -48 -224 -265 -249 -266 -4 0 -20 -9
-35 -20 -17 -13 -50 -23 -87 -26 -32 -3 -68 -10 -78 -16 -25 -13 -113 0 -128
19 -16 19 -105 64 -112 57 -3 -3 -35 10 -70 30 -62 35 -147 114 -147 136 0 6
-10 32 -21 58 -29 63 -42 178 -26 234 l13 42 24 -56 c22 -49 29 -57 58 -63 21
-4 46 -20 64 -41 16 -19 36 -34 44 -34 7 0 17 -8 23 -17 8 -15 13 -15 36 -5
14 7 35 12 47 12 43 0 98 23 104 44 4 12 17 34 30 49 13 16 24 36 24 44 0 9
14 38 31 66 18 29 29 60 28 76 -3 28 19 71 37 71 7 0 9 -19 6 -55z"/>
<path d="M15633 4807 c-12 -6 -46 -28 -75 -48 -67 -45 -108 -59 -172 -59 -62
1 -114 19 -161 54 -46 36 -89 33 -93 -6 -2 -20 7 -36 45 -72 26 -25 56 -49 65
-52 10 -3 18 -10 18 -15 0 -5 13 -9 30 -9 16 0 44 -9 62 -20 35 -21 83 -26 93
-10 3 6 17 7 29 4 16 -4 25 0 29 10 4 9 13 16 21 16 21 0 116 51 116 63 0 6
23 31 52 57 l52 46 -20 27 c-21 29 -55 34 -91 14z"/>
<path d="M15185 4223 c-27 -6 -68 -26 -145 -73 -36 -21 -82 -49 -103 -60 -21
-11 -46 -29 -57 -40 -19 -19 -46 -35 -187 -110 -36 -19 -72 -47 -81 -61 -14
-24 -13 -28 4 -52 10 -13 35 -30 54 -37 19 -7 62 -30 96 -51 33 -21 67 -39 75
-39 8 0 19 -4 24 -9 6 -5 37 -13 70 -16 60 -7 94 -19 106 -38 8 -11 111 -54
148 -61 40 -8 103 33 114 73 7 27 4 38 -11 55 -28 31 -35 59 -38 171 -8 292
-21 357 -69 348z"/>
<path d="M11678 3974 c-21 -11 -29 -26 -38 -71 -20 -95 -14 -375 9 -468 6 -22
11 -67 11 -100 0 -33 4 -87 10 -119 8 -53 13 -339 7 -451 l-2 -40 -57 -3 c-34
-2 -77 4 -103 13 -53 17 -72 11 -105 -35 l-21 -29 21 -41 c11 -22 25 -40 30
-40 5 0 16 -15 24 -32 8 -18 23 -46 32 -63 9 -16 21 -37 25 -45 20 -35 51 -88
74 -125 30 -48 45 -81 45 -100 0 -17 30 -35 57 -35 11 0 33 17 51 37 34 40
142 198 142 209 0 3 13 24 29 47 15 23 43 66 61 95 18 29 46 60 62 68 19 10
28 21 24 30 -3 8 1 17 9 20 45 18 -12 62 -62 49 -15 -4 -39 -7 -53 -6 -14 1
-45 -5 -69 -14 -24 -8 -61 -15 -81 -15 -37 0 -39 2 -45 39 -3 22 -3 54 2 73
12 44 8 333 -6 433 -6 44 -12 103 -12 130 -1 28 -7 79 -15 115 -28 140 -27
282 1 425 5 22 2 35 -12 47 -16 14 -21 15 -45 2z"/>
<path d="M14698 3543 c-15 -15 -40 -57 -57 -93 -27 -59 -28 -66 -14 -82 9 -10
28 -18 43 -18 22 0 30 8 51 52 13 29 35 65 47 80 19 23 22 33 15 55 -13 39
-51 42 -85 6z"/>
<path d="M14425 3140 c-23 -15 -49 -44 -60 -64 -17 -31 -17 -38 -5 -60 17 -33
63 -35 88 -5 9 12 29 36 43 53 35 43 40 60 23 85 -20 28 -41 26 -89 -9z"/>
<path d="M14190 2821 c0 -4 -16 -23 -35 -42 -20 -19 -45 -54 -56 -78 l-20 -45
28 -21 c32 -26 61 -21 74 12 5 13 20 39 33 56 13 18 27 48 31 69 6 30 4 38
-13 47 -25 13 -42 14 -42 2z"/>
<path d="M13895 2423 c-57 -56 -85 -99 -85 -130 0 -39 73 -60 85 -24 3 10 26
44 50 76 44 56 51 77 39 109 -11 28 -39 18 -89 -31z"/>
<path d="M15131 2303 c-12 -14 -24 -37 -28 -50 -5 -21 6 -137 23 -238 5 -29 3
-31 -41 -43 -67 -18 -91 -38 -106 -86 l-13 -43 -21 26 c-12 14 -33 47 -47 72
-46 83 -53 90 -90 110 -38 19 -38 19 -75 0 -21 -10 -48 -30 -59 -43 -33 -36
-74 -123 -81 -173 -5 -39 -2 -49 15 -66 27 -25 65 -39 103 -39 34 0 78 41 105
98 17 35 20 35 38 1 6 -11 23 -28 39 -37 22 -14 31 -14 47 -5 16 11 24 9 48
-12 16 -13 49 -30 74 -36 39 -11 50 -10 84 7 21 10 49 35 61 54 12 19 32 45
44 56 19 20 20 26 10 57 -7 20 -18 41 -26 47 -8 6 -17 30 -20 53 -3 23 -9 58
-12 77 -13 79 -14 151 -3 165 9 10 8 21 -5 44 -19 38 -37 39 -64 4z m-381
-387 c0 -37 -37 -93 -51 -79 -16 16 25 111 49 113 1 0 2 -15 2 -34z m380 -57
c0 -17 -5 -20 -32 -17 -35 3 -49 24 -21 31 40 10 53 7 53 -14z"/>
<path d="M15679 2217 c-13 -10 -17 -45 -21 -219 -5 -203 -5 -207 16 -227 33
-31 68 -27 87 11 14 29 14 34 -1 63 -13 26 -16 60 -13 193 3 156 2 162 -19
177 -27 18 -28 18 -49 2z"/>
<path d="M16241 2182 c-26 -48 0 -75 84 -88 28 -4 55 -9 60 -9 6 -1 30 -3 54
-3 42 -2 43 -3 36 -29 -3 -16 -24 -51 -46 -79 -21 -28 -39 -55 -39 -61 0 -5
-12 -20 -26 -34 -14 -13 -40 -48 -56 -76 -16 -29 -34 -56 -39 -59 -5 -3 -9
-18 -9 -34 0 -61 91 -79 105 -22 4 15 35 70 69 122 34 52 70 108 80 123 10 16
44 56 77 89 l59 61 -37 38 c-34 34 -46 39 -128 53 -49 9 -122 19 -161 22 -66
6 -73 5 -83 -14z"/>
<path d="M13613 2120 c-26 -11 -83 -86 -83 -110 0 -23 32 -50 58 -50 12 0 30
13 44 32 12 18 31 41 41 51 12 12 17 29 15 50 -2 26 -8 32 -28 34 -14 1 -35
-2 -47 -7z"/>
<path d="M14138 2104 c-3 -3 -21 -6 -39 -6 -33 -1 -103 -41 -148 -85 -23 -23
-24 -27 -13 -69 7 -24 12 -68 12 -97 0 -85 27 -117 85 -103 26 7 40 33 26 50
-14 17 -7 158 9 184 8 12 26 25 40 28 48 11 50 13 50 59 0 41 -7 54 -22 39z"/>
<path d="M14445 2074 c-27 -8 -76 -19 -109 -24 -67 -12 -88 -32 -106 -97 -23
-80 14 -186 79 -227 34 -22 47 -25 88 -19 26 3 71 17 98 31 74 36 77 40 58 68
-19 30 -64 32 -103 4 -20 -14 -37 -18 -59 -14 -50 10 -37 33 43 70 70 32 76
37 100 88 32 67 33 92 4 117 -27 22 -29 22 -93 3z m-65 -121 c0 -17 -16 -30
-42 -35 -31 -6 -35 3 -12 26 16 16 54 22 54 9z"/>
<path d="M11878 2049 c-52 -30 -41 -109 14 -109 44 0 78 27 78 63 0 47 -49 72
-92 46z"/>
<path d="M10080 2030 c-9 -6 -94 -10 -220 -9 -397 2 -514 -1 -624 -15 -63 -9
-180 -15 -271 -14 -102 1 -170 -3 -188 -10 -16 -7 -34 -9 -40 -5 -18 11 -315
5 -336 -7 -11 -5 -34 -10 -51 -10 -17 0 -40 -5 -51 -11 -19 -10 -130 -20 -194
-18 -36 1 -335 1 -385 0 -19 -1 -82 -1 -140 -2 -58 0 -150 -5 -205 -11 -55 -6
-140 -10 -190 -9 -51 1 -127 -5 -175 -14 -47 -10 -139 -22 -205 -28 -74 -6
-125 -15 -133 -24 -13 -12 -52 -18 -99 -14 -12 1 -39 -5 -59 -14 -20 -8 -62
-15 -94 -15 -32 0 -75 -7 -96 -16 -33 -14 -47 -14 -92 -4 -73 16 -131 15 -325
-4 -133 -14 -179 -15 -216 -6 -36 8 -63 8 -112 -1 -35 -7 -124 -13 -198 -15
-73 -2 -147 -8 -164 -13 -16 -6 -41 -11 -54 -11 -23 0 -29 -2 -91 -33 -19 -9
-39 -17 -46 -17 -7 0 -20 -15 -28 -32 -44 -92 -43 -89 -28 -102 10 -7 16 -33
18 -76 1 -36 7 -88 14 -116 6 -28 8 -70 5 -95 -6 -44 -19 -516 -16 -574 2 -33
2 -44 -2 -130 -3 -50 1 -66 21 -97 14 -20 35 -40 48 -43 12 -3 64 -1 115 5 50
6 112 12 137 15 25 3 59 9 75 14 17 4 53 9 81 9 28 1 82 9 120 18 52 12 91 14
159 9 50 -4 95 -7 100 -6 6 1 26 3 45 6 19 3 215 7 435 11 511 7 648 11 693
18 20 3 87 8 147 11 310 16 427 25 494 40 47 10 121 15 200 15 69 -1 164 4
211 10 227 28 261 30 360 15 120 -18 201 -18 305 0 147 27 408 35 635 21 74
-5 191 -10 260 -11 69 -1 168 -2 220 -3 52 -1 122 2 155 8 158 25 286 33 353
21 37 -7 101 -14 142 -16 41 -3 151 -15 244 -26 164 -21 171 -21 243 -4 55 13
77 15 82 7 5 -8 17 -9 40 -2 17 5 38 7 45 4 7 -3 26 2 42 11 33 17 51 19 56 6
2 -5 17 -12 35 -16 27 -5 37 -2 58 19 32 32 32 59 -2 90 -27 25 -35 26 -95 9
-13 -3 -18 1 -18 15 0 23 -30 52 -55 52 -11 0 -37 -12 -58 -27 -46 -32 -152
-48 -205 -32 -24 8 -37 8 -48 -2 -10 -8 -35 -10 -87 -5 -39 4 -115 9 -167 12
-52 3 -129 11 -170 19 -41 8 -88 16 -105 17 -33 3 -32 -4 -21 131 3 38 8 72
10 76 3 4 8 79 11 167 3 87 10 200 15 249 4 50 9 121 9 158 1 37 6 91 11 119
6 27 7 54 4 59 -3 5 -7 45 -10 88 -3 71 -2 80 14 81 9 0 39 3 65 6 26 3 60 1
75 -5 15 -6 113 -13 217 -16 105 -4 199 -7 210 -8 11 0 46 2 78 6 l58 7 20
-35 c30 -50 56 -46 111 15 28 31 54 50 67 50 34 0 61 18 61 41 0 26 -58 79
-86 79 -11 0 -29 -9 -39 -20 -16 -18 -27 -20 -68 -16 -26 3 -59 9 -73 12 -13
3 -32 3 -41 -1 -25 -10 -407 -6 -464 5 -73 14 -472 22 -489 10z m168 -140 c-1
-16 5 -36 12 -45 9 -11 11 -42 6 -123 -4 -59 -9 -195 -10 -302 -3 -186 -11
-374 -20 -469 -7 -69 -29 -181 -35 -181 -3 -1 -37 -5 -76 -11 -117 -16 -480
-28 -579 -18 -50 5 -138 11 -196 15 -109 6 -136 18 -126 53 12 40 27 233 31
399 3 101 7 186 9 190 2 4 0 30 -5 57 -10 52 -16 145 -21 324 l-3 104 30 3
c95 8 468 11 570 5 66 -4 124 -4 130 1 5 4 29 8 55 9 25 0 63 4 85 8 22 5 63
9 92 10 51 1 52 1 51 -29z m-1152 -22 c16 0 24 -10 33 -40 7 -21 9 -47 6 -58
-3 -10 -2 -21 4 -24 5 -3 8 -22 6 -42 -2 -20 2 -68 10 -107 7 -40 14 -128 15
-197 1 -69 1 -129 2 -135 2 -178 -28 -451 -53 -481 -11 -13 -76 -25 -164 -30
-33 -2 -105 -9 -160 -15 -118 -13 -283 -15 -450 -4 -82 5 -137 3 -175 -5 -30
-6 -72 -14 -92 -17 -44 -6 -44 -7 -27 117 26 190 17 512 -17 620 -7 25 -13 59
-13 75 1 17 -1 73 -5 125 -4 52 -3 108 2 125 7 26 14 31 58 37 27 5 76 10 109
12 33 2 98 11 145 20 47 9 123 16 170 15 115 0 110 -1 245 8 66 4 167 6 225 5
58 -2 115 -4 126 -4z m-1175 -57 c3 -1 6 -65 6 -143 0 -109 6 -179 25 -293 28
-161 30 -286 7 -525 -12 -128 -27 -149 -112 -152 -29 -1 -74 -3 -102 -4 -59
-3 -152 -11 -215 -21 -61 -8 -98 -11 -285 -17 -94 -4 -190 -13 -232 -23 -111
-26 -107 -39 -99 262 7 250 3 318 -29 540 -16 107 -14 300 3 317 4 4 34 10 67
13 33 3 101 10 150 15 186 21 275 27 445 29 96 1 177 4 179 7 3 3 136 0 192
-5z m-1182 -97 c2 -2 7 -34 11 -71 5 -38 13 -86 18 -107 6 -22 9 -43 7 -46 -4
-6 17 -131 30 -180 8 -31 26 -248 26 -310 -1 -25 -5 -99 -11 -165 -5 -66 -9
-127 -8 -135 5 -52 -2 -68 -34 -74 -27 -4 -849 -11 -896 -7 -8 1 -11 8 -8 19
9 29 25 219 32 367 3 77 8 143 11 148 8 12 6 277 -3 365 -5 60 -3 80 11 110
l18 37 183 2 c178 2 389 21 509 47 53 12 91 11 104 0z m-943 -91 c18 -23 22
-44 27 -152 6 -134 1 -317 -9 -333 -3 -5 -8 -80 -10 -166 -3 -86 -9 -184 -14
-217 -6 -33 -10 -76 -10 -95 l0 -36 -102 -17 c-57 -9 -169 -22 -249 -27 -81
-6 -162 -15 -180 -20 -44 -13 -136 -13 -144 0 -3 5 -5 134 -5 287 1 326 1 315
10 328 4 6 3 51 -2 100 -5 50 -8 136 -6 192 4 134 8 138 148 157 58 8 156 17
219 20 62 3 115 7 118 9 2 2 45 3 95 1 86 -4 94 -6 114 -31z"/>
<path d="M9695 1639 c-38 -11 -80 -18 -93 -16 -12 2 -25 1 -28 -4 -2 -4 -10
-6 -17 -4 -26 10 -51 -105 -28 -131 5 -5 18 -39 30 -76 12 -36 28 -71 35 -77
7 -6 34 -10 60 -9 41 0 53 -4 78 -30 41 -41 45 -100 8 -119 -30 -16 -132 -12
-138 6 -2 6 -12 16 -22 21 -15 8 -23 4 -39 -19 -18 -25 -20 -33 -9 -55 6 -15
27 -36 46 -48 27 -17 44 -20 90 -15 72 6 163 48 179 82 17 38 10 107 -15 142
-12 17 -22 35 -22 41 0 12 -73 78 -133 119 -67 46 -62 72 18 89 22 4 47 9 56
9 26 3 69 47 69 72 0 16 -8 27 -26 33 -14 6 -26 10 -27 9 -1 0 -33 -9 -72 -20z"/>
<path d="M8552 1553 c-26 -10 -30 -48 -15 -131 8 -45 13 -89 9 -97 -7 -20 -79
-20 -96 0 -7 8 -14 45 -16 82 -7 127 -31 158 -85 114 -22 -18 -23 -22 -12 -63
7 -25 9 -54 6 -66 -3 -12 -2 -55 2 -96 6 -69 9 -75 34 -86 26 -11 109 -15 161
-8 24 3 25 -1 46 -107 28 -143 29 -147 68 -143 30 3 31 5 30 48 -1 25 -8 81
-17 125 -16 79 -16 80 5 98 15 12 33 17 53 14 16 -2 45 3 63 11 29 14 33 20
29 52 l-3 35 -87 -1 c-48 0 -87 2 -87 5 0 3 -5 35 -11 71 -6 36 -11 79 -11 95
-1 48 -24 65 -66 48z"/>
<path d="M7385 1550 c-16 -5 -54 -16 -82 -24 -85 -24 -108 -38 -111 -69 -2
-16 2 -34 8 -42 14 -17 87 -16 94 1 5 13 164 29 195 19 35 -11 26 -49 -21 -89
-33 -29 -50 -36 -83 -36 -32 0 -47 -6 -69 -29 -41 -43 -33 -72 25 -91 25 -9
57 -23 72 -33 14 -9 29 -17 31 -17 3 0 30 -16 60 -35 68 -43 76 -63 39 -92
-35 -28 -136 -33 -163 -8 -13 12 -23 13 -43 6 -33 -13 -38 -22 -29 -55 14 -50
101 -67 230 -45 80 14 129 54 139 111 5 36 2 41 -60 103 -36 36 -69 65 -74 65
-11 0 -63 49 -63 60 0 5 10 12 23 15 28 9 84 62 103 97 37 71 -5 159 -86 177
-77 17 -104 19 -135 11z"/>
<path d="M6240 1461 c-25 -10 -53 -30 -64 -44 -18 -24 -18 -26 0 -51 26 -35
39 -38 81 -21 34 14 39 14 79 -6 65 -31 97 -74 91 -121 -7 -55 -23 -71 -65
-63 -36 7 -99 -22 -135 -63 -36 -40 -30 -141 9 -156 28 -11 164 51 199 91 15
17 45 1 113 -62 66 -61 96 -67 105 -20 3 19 -7 38 -45 83 -27 31 -63 68 -78
82 l-29 25 14 55 c19 70 19 104 -1 146 -24 51 -164 145 -213 143 -9 0 -36 -8
-61 -18z"/>
<path d="M5459 1493 c-28 -7 -41 -50 -29 -94 15 -55 28 -376 18 -416 -6 -23
-5 -41 6 -62 15 -28 17 -29 57 -18 l41 10 -7 236 c-5 130 -9 247 -10 261 -2
36 -16 80 -25 80 -5 0 -14 2 -22 4 -7 2 -20 2 -29 -1z"/>
<path d="M12043 2022 c-12 -20 -8 -57 10 -79 16 -21 62 -15 85 10 40 42 22 75
-45 84 -30 4 -40 1 -50 -15z"/>
<path d="M15884 2015 c-21 -31 -11 -73 19 -84 64 -25 188 -46 250 -43 33 2 37
32 8 63 -16 17 -215 89 -247 89 -8 0 -21 -11 -30 -25z"/>
<path d="M12210 1993 c-26 -33 -23 -53 12 -73 32 -17 55 -8 75 30 14 29 8 44
-23 59 -35 16 -40 14 -64 -16z"/>
<path d="M11365 1989 c-20 -20 -20 -20 0 -57 25 -47 54 -52 100 -16 42 32 43
39 9 70 -31 30 -81 31 -109 3z"/>
<path d="M11590 1993 c-24 -9 -40 -35 -40 -65 0 -22 6 -31 26 -38 18 -7 31 -7
39 0 8 6 31 10 52 8 38 -3 38 -3 36 32 -2 55 -55 84 -113 63z"/>
<path d="M13292 1801 c-49 -45 -61 -62 -56 -77 23 -63 57 -59 128 14 31 31 56
65 56 74 0 68 -47 65 -128 -11z"/>
<path d="M12240 1748 c-11 -12 -18 -28 -15 -36 3 -7 5 -20 5 -28 0 -17 42 -19
71 -4 24 13 27 75 3 84 -27 10 -43 7 -64 -16z"/>
<path d="M11145 1727 c-14 -8 -20 -23 -20 -47 0 -45 13 -67 45 -75 21 -5 29
-1 40 21 18 33 14 85 -8 102 -20 15 -31 15 -57 -1z"/>
<path d="M10787 1679 c-9 -6 -31 -36 -48 -67 -16 -31 -43 -81 -60 -110 -16
-29 -36 -77 -44 -107 -7 -29 -18 -62 -24 -73 -13 -24 -3 -151 14 -177 7 -11
29 -37 49 -57 31 -32 41 -37 69 -31 65 12 116 61 146 142 19 50 21 61 9 87
-20 45 -44 63 -97 75 -64 14 -76 28 -62 72 7 19 21 43 31 52 11 10 20 24 20
31 0 6 16 35 35 64 36 53 40 66 29 94 -7 18 -40 21 -67 5z m-1 -414 l35 -14
-16 -38 c-18 -42 -30 -53 -63 -53 -35 0 -58 80 -30 108 16 16 31 15 74 -3z"/>
<path d="M11532 1650 c-12 -11 -22 -27 -22 -35 0 -18 48 -55 71 -55 10 0 20
-4 24 -9 11 -19 110 -23 187 -7 98 20 108 20 81 -3 -13 -11 -23 -24 -23 -30 0
-5 -9 -16 -20 -24 -10 -7 -33 -40 -50 -73 -17 -32 -40 -68 -51 -80 -10 -11
-19 -26 -19 -33 0 -18 -67 -152 -91 -183 -21 -25 -21 -28 -6 -52 24 -36 51
-41 81 -15 14 13 26 28 26 36 0 22 52 146 79 188 14 22 37 62 51 89 14 26 44
65 68 86 44 40 52 65 26 84 -13 10 -13 16 -3 38 6 15 9 33 6 41 -8 20 -72 30
-192 30 -55 -1 -104 3 -110 7 -5 4 -28 11 -50 14 -33 6 -44 3 -63 -14z"/>
<path d="M13100 1620 c-8 -5 -38 -19 -67 -31 -36 -14 -53 -28 -57 -44 -18 -71
67 -97 129 -39 14 13 30 24 34 24 4 0 16 9 26 20 18 20 18 21 -2 48 -22 30
-40 36 -63 22z"/>
<path d="M12237 1594 c-36 -19 -35 -58 2 -103 l28 -34 21 28 c24 30 27 51 13
88 -12 32 -31 38 -64 21z"/>
<path d="M11125 1547 c-8 -20 -15 -43 -15 -51 0 -17 46 -56 66 -56 18 0 34 32
34 69 0 16 6 31 13 34 21 8 -6 27 -46 34 -35 5 -38 4 -52 -30z"/>
<path d="M12685 1432 c-58 -13 -90 -63 -65 -102 12 -19 106 -18 141 1 13 7 41
14 63 14 36 0 39 2 41 32 1 18 -3 37 -10 43 -14 12 -136 20 -170 12z"/>
<path d="M12250 1410 c-6 -12 -10 -33 -8 -48 2 -20 11 -29 36 -36 26 -7 36 -6
43 5 13 20 11 73 -3 87 -19 19 -56 14 -68 -8z"/>
<path d="M11148 1356 c-22 -16 -24 -74 -4 -101 12 -16 19 -18 42 -10 38 14 55
76 29 105 -21 23 -43 25 -67 6z"/>
<path d="M11130 1181 c-17 -33 -12 -76 13 -99 l23 -22 21 22 c32 36 36 69 11
95 -26 28 -54 29 -68 4z"/>
<path d="M12250 1170 c-35 -37 -30 -56 17 -69 47 -13 61 -6 69 36 7 37 1 47
-34 58 -17 5 -29 0 -52 -25z"/>
<path d="M12285 1017 c-11 -7 -21 -12 -22 -12 -1 0 -4 -12 -8 -26 -8 -33 16
-59 54 -59 34 0 51 18 56 57 3 23 -2 31 -23 41 -31 14 -31 14 -57 -1z"/>
<path d="M11120 960 c-26 -26 -25 -42 3 -68 26 -25 47 -28 65 -10 13 13 16 56
6 82 -9 22 -50 20 -74 -4z"/>
<path d="M12320 852 c-19 -13 -24 -24 -22 -47 2 -16 8 -34 13 -40 6 -6 -3 -15
-23 -25 -26 -12 -34 -22 -36 -48 -3 -27 1 -34 24 -42 15 -6 39 -10 53 -8 22 3
26 8 28 40 1 21 7 47 14 59 22 42 28 80 17 105 -13 28 -34 30 -68 6z"/>
<path d="M11644 739 c-51 -26 -56 -96 -9 -117 54 -25 119 54 87 105 -11 17
-54 24 -78 12z"/>
<path d="M11842 720 c-26 -35 -28 -53 -6 -74 20 -21 58 -20 89 0 32 21 35 78
6 94 -35 18 -66 12 -89 -20z"/>
<path d="M11458 734 c-14 -4 -18 -16 -18 -49 0 -43 1 -44 37 -51 31 -6 39 -3
55 16 18 23 34 67 26 75 -7 7 -83 14 -100 9z"/>
<path d="M12021 714 c-10 -22 -9 -30 4 -44 8 -9 15 -22 15 -28 0 -19 15 -21
58 -10 33 8 42 15 47 38 11 49 -9 70 -64 70 -42 0 -49 -3 -60 -26z"/>
</g>
</svg>
