<?xml version="1.0" standalone="no"?>
<!DOCTYPE svg PUBLIC "-//W3C//DTD SVG 20010904//EN"
 "http://www.w3.org/TR/2001/REC-SVG-20010904/DTD/svg10.dtd">
<svg version="1.0" xmlns="http://www.w3.org/2000/svg"
 width="1252.272226pt" height="400.000000pt" viewBox="0 0 1252.272226 400.000000"
 preserveAspectRatio="xMidYMid meet">
<metadata>
Created by potrace 1.15, written by Peter Selinger 2001-2017
</metadata>
<g transform="translate(-89.178449,460.853454) scale(0.111473,-0.111473)"
fill="#444444" stroke="none">
<path d="M10187 4134 c-3 -2 -184 -13 -327 -19 -69 -2 -143 -7 -165 -10 -22
-2 -103 -7 -180 -10 -77 -3 -151 -10 -165 -15 -14 -4 -63 -14 -110 -21 -47 -6
-96 -16 -110 -22 -14 -5 -35 -11 -47 -12 -46 -6 -89 -18 -108 -30 -11 -7 -36
-16 -55 -20 -120 -23 -296 -100 -400 -175 -103 -74 -230 -191 -230 -212 0 -3
-11 -20 -24 -36 -26 -30 -76 -151 -76 -183 0 -11 7 -19 15 -19 8 0 15 -4 15
-10 0 -5 6 -10 13 -10 7 0 33 38 57 85 53 99 206 266 280 305 14 7 27 16 30
20 14 18 131 79 175 91 28 7 59 18 70 25 11 6 40 15 65 18 24 4 49 11 55 16 6
5 69 23 140 40 72 18 139 36 150 41 18 8 120 20 300 35 33 2 137 7 230 10 94
3 212 9 263 13 90 8 133 8 457 -4 323 -12 361 -14 390 -20 89 -19 156 -37 203
-55 29 -11 58 -18 63 -14 6 3 18 0 27 -8 9 -8 37 -23 62 -33 25 -10 54 -26 65
-36 11 -9 38 -28 60 -42 22 -14 58 -41 79 -61 22 -20 54 -46 72 -58 17 -12 39
-34 47 -48 9 -14 41 -50 71 -78 31 -29 56 -57 56 -61 0 -5 15 -31 33 -57 53
-77 112 -191 150 -289 64 -163 92 -419 61 -551 -8 -32 -17 -75 -20 -94 -3 -19
-12 -53 -19 -74 -8 -22 -12 -42 -10 -46 8 -12 -73 -258 -93 -283 -10 -13 -45
-72 -71 -122 -17 -33 -36 -54 -121 -140 -30 -30 -61 -55 -69 -55 -8 0 -28 -10
-45 -23 -29 -22 -53 -35 -151 -85 -110 -56 -245 -106 -316 -116 -24 -4 -71
-13 -104 -21 -56 -13 -156 -26 -235 -29 -19 -1 -40 -5 -46 -8 -15 -10 -84 -17
-214 -22 -190 -8 -270 -16 -370 -36 -52 -11 -150 -21 -218 -23 -106 -4 -126
-2 -145 13 -22 18 -22 19 -5 81 18 68 13 93 -23 104 -13 4 -27 1 -38 -9 -10
-9 -21 -16 -24 -16 -4 0 -30 -16 -57 -36 -35 -25 -57 -34 -72 -31 -17 5 -33
-6 -76 -53 -35 -39 -61 -60 -76 -60 -34 0 -58 -23 -61 -58 -2 -28 1 -32 21
-32 25 0 45 -17 79 -64 11 -16 29 -39 40 -52 11 -12 33 -39 48 -58 15 -20 34
-36 42 -36 8 0 18 -7 22 -15 12 -22 119 -30 147 -12 18 12 22 25 24 83 3 95
12 145 25 150 7 2 73 6 148 7 75 2 141 7 148 11 7 4 22 9 34 11 12 1 43 8 69
14 27 6 51 11 55 10 5 -1 10 -1 13 0 6 2 86 8 215 16 145 9 218 15 235 20 8 2
40 7 70 10 30 4 57 8 62 11 4 3 38 7 75 10 37 3 72 8 77 11 5 3 23 8 40 9 52
6 129 25 176 44 25 10 68 24 95 31 28 6 57 17 65 24 8 6 63 36 123 65 59 30
107 58 107 62 0 4 9 8 19 8 32 0 211 151 211 177 0 5 8 17 19 27 10 9 26 34
36 56 10 22 21 40 25 40 15 0 109 227 128 310 6 25 16 68 23 95 6 28 13 64 15
80 2 17 7 37 10 45 29 79 38 302 15 402 -6 27 -10 51 -9 55 5 17 -14 99 -26
118 -7 11 -16 35 -19 54 -8 39 -58 154 -69 159 -4 2 -8 10 -8 17 0 21 -44 99
-74 131 -14 16 -26 32 -26 36 0 33 -245 301 -310 341 -19 11 -49 32 -66 46
-66 55 -184 113 -279 138 -11 2 -29 9 -40 13 -27 12 -142 39 -191 45 -53 7
-166 14 -364 20 -91 3 -207 9 -258 13 -51 4 -94 7 -95 6z"/>
<path d="M10537 3353 c-4 -3 -328 -15 -504 -18 -100 -2 -186 -6 -191 -9 -4 -3
-67 -8 -138 -11 -141 -7 -154 -8 -264 -26 -47 -7 -173 -11 -340 -9 -146 1
-274 2 -285 2 -73 -2 -213 -13 -284 -21 -46 -6 -87 -8 -92 -6 -4 3 -10 1 -13
-4 -3 -4 -24 -6 -46 -4 -22 3 -47 0 -54 -6 -7 -6 -16 -8 -19 -4 -11 10 -82 11
-140 2 -103 -17 -615 -31 -1027 -28 -259 1 -367 0 -475 -8 -107 -7 -166 -7
-260 0 -38 2 -135 0 -215 -5 -80 -5 -203 -11 -275 -13 -71 -2 -173 -7 -225
-10 -52 -3 -156 -7 -230 -10 -74 -2 -163 -7 -197 -10 -66 -6 -67 -6 -106 49
-14 19 -14 19 -40 0 -15 -10 -27 -27 -27 -36 0 -10 -3 -19 -7 -19 -36 -6 -91
-9 -313 -14 -140 -3 -279 -8 -307 -10 -34 -3 -53 -1 -53 5 0 16 -72 1 -87 -18
-8 -9 -11 -33 -8 -61 8 -81 18 -245 17 -276 -1 -16 -1 -61 -1 -100 1 -90 2
-85 -6 -187 -7 -80 -5 -90 19 -142 24 -50 34 -60 57 -58 4 1 44 4 90 6 156 10
223 18 239 26 8 4 54 8 102 8 47 1 105 6 128 12 53 14 429 18 605 6 139 -9
463 -8 479 2 6 3 82 7 171 9 88 1 243 5 345 7 102 3 268 5 370 6 324 2 503 2
575 1 39 0 133 0 210 0 77 0 149 -1 160 -2 41 -4 255 -1 405 5 85 3 213 6 283
7 71 1 156 7 190 13 34 7 80 14 102 15 22 1 69 7 105 12 36 6 88 12 116 14 27
1 73 6 102 10 28 4 74 8 101 10 27 2 71 5 98 9 26 3 102 8 169 11 66 4 143 8
170 11 74 6 498 15 674 13 216 -2 215 -2 310 5 170 14 406 19 461 10 31 -5 40
-2 63 22 14 16 26 31 26 35 0 3 -18 15 -40 28 -23 13 -42 32 -44 44 -17 83
-31 419 -21 525 6 70 8 72 33 72 15 0 34 5 42 10 13 9 13 12 -2 21 -10 5 -18
16 -18 24 0 7 -14 24 -32 36 -32 23 -36 23 -331 24 -164 0 -299 -1 -300 -2z
m278 -104 c6 0 58 1 117 3 62 2 111 -1 117 -7 13 -15 28 -611 15 -624 -9 -9
-484 -26 -606 -21 l-78 2 -8 32 c-5 17 -7 60 -5 96 1 36 3 142 3 235 1 94 6
197 12 231 l11 61 206 -4 c113 -2 211 -3 216 -4z m-533 -17 c7 -7 9 -78 7
-199 -2 -103 -4 -240 -4 -303 l0 -115 -60 -8 c-78 -10 -158 -15 -270 -15 -219
0 -262 -2 -287 -11 -54 -20 -58 8 -57 369 1 265 3 269 82 271 171 3 367 16
376 25 9 8 203 -4 213 -14z m-1207 -53 c110 -2 252 0 316 4 107 7 117 6 124
-10 3 -10 8 -132 11 -271 2 -140 6 -257 8 -261 3 -4 2 -21 -3 -37 l-7 -29
-180 -13 c-98 -6 -211 -14 -249 -16 -39 -3 -77 -7 -85 -10 -8 -3 -49 -10 -90
-15 -41 -6 -106 -15 -143 -22 -45 -8 -71 -9 -78 -2 -15 15 -22 119 -9 143 7
12 13 100 16 210 2 104 6 220 9 257 l4 68 53 3 c29 1 57 7 62 12 5 5 16 5 25
1 9 -5 106 -10 216 -12z m-450 -40 c8 -26 9 -156 1 -255 -3 -44 -8 -144 -11
-224 -3 -80 -8 -153 -11 -162 -4 -14 -15 -17 -52 -16 -26 1 -201 -2 -389 -6
l-342 -7 -12 23 c-15 28 -26 445 -14 543 2 17 4 37 4 45 3 37 16 41 162 45 79
3 158 7 174 10 17 2 80 7 140 11 61 3 111 7 112 7 1 1 53 3 117 4 107 2 115 1
121 -18z m-1000 -24 c44 -3 81 -8 84 -10 2 -3 5 -144 7 -314 l3 -309 -22 -6
c-17 -4 -472 -9 -602 -7 -86 1 -222 14 -230 22 -19 19 -4 594 17 615 2 2 112
5 244 6 131 1 255 5 273 8 40 6 110 5 226 -5z m-1180 -11 c110 -9 133 -9 213
3 36 6 65 6 68 1 3 -5 11 -4 19 2 9 7 16 6 25 -5 10 -12 13 -87 12 -322 -1
-168 -3 -307 -5 -309 -9 -9 -311 -8 -314 1 -2 6 17 21 42 34 53 28 92 75 96
117 3 22 -5 42 -30 72 -18 23 -39 42 -46 42 -7 0 -18 6 -24 13 -8 11 -2 21 29
46 70 56 46 119 -60 161 -19 7 -39 17 -45 21 -10 7 -81 13 -116 10 -9 0 -24
-12 -33 -26 -28 -42 -6 -61 78 -69 90 -8 116 -15 116 -32 0 -8 -12 -19 -27
-25 -16 -6 -35 -15 -43 -19 -8 -4 -41 -15 -73 -24 -53 -15 -57 -19 -57 -46 0
-36 5 -39 82 -45 34 -3 67 -10 72 -15 6 -6 25 -10 43 -10 26 0 34 -5 39 -25 9
-38 -1 -54 -53 -78 -57 -26 -90 -28 -120 -10 -12 8 -36 13 -54 11 -26 -2 -34
-9 -40 -31 -6 -22 -3 -32 12 -45 19 -16 26 -42 12 -42 -107 -4 -191 -2 -201 4
-11 7 -12 47 -7 200 3 105 11 220 16 256 6 36 10 91 10 123 l-1 57 77 2 c112
2 154 5 160 12 4 3 14 4 22 2 9 -3 57 -8 106 -12z m-451 -80 c-2 -75 -6 -177
-19 -493 -2 -47 -8 -77 -17 -82 -7 -5 -35 -8 -63 -8 -27 1 -60 -2 -73 -6 l-23
-8 20 34 c26 43 26 46 -1 54 -50 14 -129 60 -144 82 -14 22 -14 26 0 42 51 56
73 179 41 227 -47 72 -265 90 -265 23 0 -28 31 -60 51 -54 10 3 42 6 70 7 43
0 56 -4 71 -24 9 -12 18 -34 18 -46 0 -35 -28 -88 -56 -107 -22 -14 -27 -14
-54 0 -58 30 -122 12 -145 -40 -12 -28 -6 -107 10 -124 12 -12 26 -10 100 14
47 15 92 24 100 21 8 -3 35 -20 60 -38 51 -38 55 -64 10 -61 -118 8 -240 12
-359 12 -76 1 -144 5 -151 11 -7 6 -10 34 -8 77 2 37 5 169 6 292 l2 225 29 7
c15 4 65 8 110 8 111 1 329 9 396 15 30 3 97 6 148 8 51 1 96 6 98 10 3 4 13
8 22 8 15 0 17 -11 16 -86z m-1429 25 c6 -6 144 -2 162 5 7 3 15 2 17 -3 3 -4
36 -6 73 -3 37 3 115 6 173 6 l105 1 0 -215 c0 -231 -8 -367 -22 -381 -4 -4
-35 -11 -68 -14 -138 -13 -244 -27 -355 -46 -36 -6 -100 -13 -142 -15 l-77 -3
-11 42 c-6 23 -13 49 -15 57 -6 20 -20 378 -18 464 1 38 6 74 13 80 18 19 151
39 165 25z"/>
<path d="M10630 3184 c0 -7 -7 -14 -15 -18 -8 -3 -15 -12 -15 -19 0 -8 -6 -20
-14 -26 -7 -6 -19 -32 -26 -57 -11 -39 -11 -50 3 -80 23 -48 21 -80 -7 -117
-44 -57 -53 -153 -21 -203 17 -26 64 -35 116 -21 42 10 122 79 133 114 4 12
13 27 21 33 19 16 19 61 0 107 -21 51 -19 76 11 104 81 74 48 168 -66 189 -66
12 -120 9 -120 -6z m147 -90 c6 -17 -40 -67 -81 -89 -28 -15 -38 -17 -48 -7
-16 16 -13 93 4 104 18 12 121 5 125 -8z m-43 -224 c14 -14 -9 -95 -33 -119
-52 -52 -95 -54 -111 -6 -10 32 -9 40 14 80 15 24 34 49 44 55 19 11 71 5 86
-10z"/>
<path d="M9902 3051 c-100 -17 -117 -29 -99 -69 10 -22 15 -24 57 -17 41 6
104 13 155 18 35 3 30 -37 -11 -82 -20 -23 -41 -41 -47 -41 -5 0 -32 -17 -58
-37 -45 -34 -49 -40 -49 -80 0 -63 19 -64 96 -5 74 56 160 162 170 207 3 16
10 35 15 41 12 15 -15 66 -38 76 -28 10 -89 7 -191 -11z"/>
<path d="M9135 3047 c-11 -7 -24 -18 -28 -24 -4 -7 -14 -13 -22 -13 -20 0
-115 -124 -144 -187 -20 -44 -23 -61 -17 -110 4 -32 12 -64 19 -70 7 -7 39
-16 72 -19 58 -6 62 -5 107 30 59 45 91 91 91 128 0 46 -23 61 -93 61 -60 0
-61 1 -58 26 2 14 9 25 15 24 7 -2 20 8 28 21 9 13 30 30 48 37 52 22 63 36
59 74 -4 30 -8 35 -31 34 -14 0 -35 -6 -46 -12z m-20 -295 c0 -22 -56 -52 -77
-41 -27 14 -22 28 15 44 37 17 62 15 62 -3z"/>
<path d="M8265 3034 c-27 -8 -80 -15 -117 -17 -66 -4 -117 -25 -119 -50 -6
-54 -4 -79 7 -127 8 -30 14 -69 14 -87 0 -28 4 -33 23 -33 12 0 32 7 44 15 20
14 25 13 58 -6 43 -26 62 -56 46 -72 -7 -7 -35 -17 -63 -23 -40 -9 -59 -9 -88
1 -30 11 -40 10 -64 -2 -38 -20 -34 -70 9 -95 28 -16 36 -16 95 -3 125 29 200
78 200 133 0 30 -46 95 -82 117 -16 9 -28 20 -28 26 0 5 -7 9 -16 9 -32 0 -74
40 -74 70 0 23 7 32 41 48 30 15 48 18 64 12 13 -5 25 -6 28 -4 3 3 30 7 61 9
60 3 86 17 86 46 0 35 -57 50 -125 33z"/>
<path d="M7186 2988 c-9 -12 -16 -32 -16 -45 0 -12 -4 -24 -9 -27 -15 -10 -24
-155 -11 -186 14 -34 41 -46 68 -31 22 12 78 -1 75 -17 -2 -6 -6 -42 -9 -79
-5 -54 -3 -71 9 -81 8 -7 21 -10 28 -7 20 8 39 75 39 139 l0 54 44 11 c25 6
51 8 59 5 20 -7 54 11 68 37 15 29 -15 61 -56 59 -16 -1 -44 -2 -60 -1 l-31 1
-1 69 c-1 83 -5 91 -43 91 -35 0 -42 -19 -45 -107 -1 -67 -13 -88 -51 -96 -26
-5 -26 -4 -20 42 3 25 10 73 15 106 9 52 8 62 -6 73 -23 17 -29 15 -47 -10z"/>
<path d="M4728 2926 c-28 -21 -39 -108 -32 -249 8 -141 16 -161 58 -134 24 16
24 16 19 165 -4 104 -2 151 6 156 15 9 14 49 -1 64 -15 15 -29 15 -50 -2z"/>
<path d="M1997 2902 c-13 -14 -14 -25 -6 -57 5 -22 11 -142 13 -266 4 -225 10
-269 40 -269 26 0 38 27 31 73 -9 59 -12 338 -4 343 3 2 13 -4 22 -14 23 -25
97 -155 97 -169 0 -13 85 -139 101 -148 5 -4 9 -14 9 -24 0 -10 14 -30 32 -45
26 -21 34 -24 45 -13 23 23 31 110 31 329 0 172 -3 220 -14 229 -11 9 -18 8
-30 -1 -31 -27 -35 -48 -24 -127 11 -82 3 -293 -12 -293 -5 0 -13 11 -18 24
-5 14 -26 49 -46 78 -20 29 -48 79 -62 113 -20 50 -74 143 -105 180 -4 6 -17
25 -27 43 -22 36 -49 41 -73 14z"/>
<path d="M3744 2902 c-5 -4 -18 -25 -28 -46 -20 -42 -16 -60 18 -80 26 -17 58
28 52 73 -6 39 -26 64 -42 53z"/>
<path d="M3420 2698 c-11 -18 -20 -37 -20 -42 0 -15 -52 -116 -60 -116 -10 0
-40 35 -40 47 0 6 -9 22 -21 37 -15 19 -30 26 -54 26 -31 0 -34 -3 -66 -75
-47 -109 -77 -98 -88 32 -5 70 -8 78 -28 81 -13 2 -25 -4 -31 -15 -13 -25 -8
-106 12 -173 17 -57 73 -130 100 -130 22 0 52 48 71 113 9 31 20 59 25 62 13
8 50 -13 50 -29 0 -7 10 -21 21 -32 12 -10 25 -29 30 -42 11 -29 35 -38 53
-19 17 17 46 92 46 120 0 20 27 66 49 83 9 7 15 30 16 58 0 42 -2 46 -22 46
-15 0 -30 -11 -43 -32z"/>
<path d="M2613 2580 c-63 -38 -84 -99 -63 -187 12 -47 19 -59 54 -81 23 -14
46 -31 51 -37 48 -53 94 -50 160 11 47 42 50 48 55 107 6 54 4 67 -16 97 -39
59 -57 76 -102 94 -56 21 -100 20 -139 -4z m122 -60 c10 -11 24 -20 30 -20 13
0 55 -79 55 -103 0 -8 -18 -33 -40 -57 -48 -52 -58 -50 -107 26 -18 26 -41 52
-51 55 -15 6 -18 14 -14 41 6 37 22 53 67 67 42 13 40 13 60 -9z"/>
<path d="M3756 2564 c-3 -9 -6 -31 -6 -50 0 -29 3 -34 24 -34 36 0 96 28 96
45 0 19 -57 55 -86 55 -12 0 -25 -7 -28 -16z"/>
<path d="M9108 1839 c-22 -37 -23 -69 -4 -69 24 0 29 -20 10 -41 -17 -19 -17
-23 -3 -47 20 -36 48 -40 70 -11 16 22 16 25 -2 61 -24 47 -24 55 1 63 13 4
20 15 20 30 0 27 -4 30 -45 39 -26 5 -32 2 -47 -25z"/>
<path d="M8975 1828 c-27 -25 -34 -38 -29 -55 4 -13 14 -23 23 -23 26 1 83 33
98 56 12 19 12 24 -2 38 -25 24 -52 19 -90 -16z"/>
<path d="M8668 1819 c-30 -15 -68 -61 -68 -82 0 -13 48 -14 67 -2 12 8 29 15
36 15 8 0 22 9 32 20 24 26 27 25 48 -10 22 -37 31 -37 74 -4 37 28 41 59 10
78 -13 8 -24 7 -46 -6 -25 -14 -32 -14 -48 -2 -24 18 -60 16 -105 -7z"/>
<path d="M8306 1798 c-22 -12 -49 -66 -42 -84 8 -20 34 -17 87 9 l46 24 9 -21
c7 -16 20 -22 52 -24 23 -2 42 1 42 6 0 5 9 19 20 32 23 27 24 34 8 47 -21 15
-61 13 -80 -4 -17 -15 -20 -15 -41 5 -23 22 -71 27 -101 10z"/>
<path d="M7636 1778 c-17 -9 -183 -28 -296 -32 -41 -2 -122 -7 -180 -10 -58
-4 -206 -9 -330 -11 -124 -2 -236 -6 -250 -10 -14 -3 -178 -7 -365 -9 -187 -2
-347 -6 -355 -10 -20 -8 -397 -24 -595 -25 -55 0 -109 -1 -120 -1 -11 -1 -130
-1 -265 -1 -169 1 -268 -3 -320 -13 -44 -8 -121 -13 -187 -12 -153 4 -150 7
-141 -130 17 -242 19 -305 18 -451 -1 -195 17 -239 87 -212 34 13 186 18 232
8 19 -4 39 -5 44 -2 7 4 252 7 252 3 0 -1 25 -3 56 -5 30 -2 67 -9 83 -14 15
-6 60 -14 99 -17 40 -3 101 -9 136 -13 71 -9 273 -5 311 6 14 4 174 8 355 9
323 2 620 10 700 19 22 2 83 6 135 9 52 2 107 9 121 14 14 6 57 10 95 11 301
0 632 17 651 33 7 5 16 7 21 4 6 -3 31 -2 57 3 42 8 49 6 76 -17 l30 -25 30
34 c23 27 28 40 23 64 -3 17 -9 68 -14 115 -5 47 -16 128 -25 180 -51 320 -55
372 -31 421 19 39 20 48 0 74 -11 15 -27 20 -69 20 -30 1 -61 -3 -69 -7z m18
-127 c16 -18 29 -79 41 -191 3 -30 8 -68 11 -83 11 -54 15 -82 21 -162 3 -44
10 -85 15 -92 12 -15 1 -68 -16 -83 -36 -29 -194 -45 -561 -56 -211 -6 -347
-13 -361 -18 -21 -8 -24 32 -24 335 0 237 3 299 13 308 14 11 60 13 452 26 99
3 209 10 245 15 36 6 81 12 100 14 19 1 38 4 41 4 3 1 14 -6 23 -17z m-978
-35 c18 -14 19 -29 20 -308 0 -161 4 -307 8 -324 l7 -31 -108 -8 c-118 -9
-196 -12 -470 -18 -101 -2 -187 -1 -192 3 -6 3 -10 114 -10 280 0 151 -1 299
-1 328 -1 38 3 54 14 58 9 3 150 7 313 9 250 3 317 7 394 24 3 0 14 -5 25 -13z
m-830 -53 c4 -15 8 -165 8 -333 l1 -305 -140 -2 c-77 -2 -156 -8 -175 -14 -22
-7 -82 -8 -165 -5 -71 4 -149 6 -172 6 -24 -1 -51 4 -62 9 -19 10 -19 11 0 48
24 47 24 80 0 92 -15 9 -21 30 -30 123 -7 62 -13 176 -14 253 l-2 140 165 -1
c91 -1 194 1 230 5 36 3 129 7 207 9 l142 3 7 -28z m-841 8 c6 -1 11 -43 11
-103 1 -57 4 -130 8 -163 3 -33 10 -121 15 -195 6 -74 13 -148 17 -165 7 -27
6 -29 -9 -16 -19 15 -112 20 -387 20 -190 -1 -263 -3 -276 -11 -5 -3 -19 -2
-31 3 -22 8 -22 11 -22 224 -1 118 -5 245 -11 280 -12 77 -3 104 38 107 15 1
63 2 107 3 44 2 105 7 135 13 41 7 302 9 405 3z"/>
<path d="M7065 1536 c-23 -17 -56 -149 -51 -204 4 -57 40 -84 106 -80 l45 3 0
-73 c0 -77 8 -92 52 -92 30 0 47 34 35 69 -12 35 -9 96 7 115 18 21 71 29 105
16 23 -8 34 -7 52 5 56 37 4 85 -91 85 l-56 0 6 65 c5 56 3 67 -15 85 -16 16
-23 18 -39 8 -15 -9 -19 -24 -20 -74 -2 -80 -14 -112 -45 -120 -51 -13 -61 -3
-59 56 1 30 5 73 8 96 8 46 -9 63 -40 40z"/>
<path d="M6239 1506 c-3 -3 -26 -6 -51 -7 -63 -3 -82 -19 -74 -63 8 -41 11
-42 83 -19 48 15 58 15 95 3 23 -8 43 -20 45 -26 4 -12 -70 -44 -102 -44 -39
0 -100 -28 -103 -47 -5 -34 73 -103 118 -103 11 0 23 -7 27 -15 7 -19 -24 -55
-42 -49 -18 7 -153 -47 -160 -64 -3 -7 -2 -24 1 -37 5 -21 10 -23 37 -18 18 3
77 28 132 56 55 28 110 55 122 61 46 23 45 96 -1 96 -27 1 -81 44 -72 59 4 6
16 11 28 11 24 0 74 33 104 68 33 37 16 73 -48 106 -50 26 -127 44 -139 32z"/>
<path d="M5328 1428 c-20 -7 -29 -18 -34 -44 -8 -45 2 -55 46 -45 32 6 57 2
117 -20 28 -10 33 -47 12 -80 -16 -23 -24 -25 -73 -23 -46 2 -61 -2 -89 -24
-73 -57 -88 -114 -47 -172 18 -25 26 -29 48 -24 15 4 35 13 44 21 9 8 21 12
26 9 5 -3 31 14 58 39 51 48 64 54 64 30 0 -8 5 -15 11 -15 6 0 30 -20 55 -45
47 -49 62 -53 99 -29 29 19 32 39 9 48 -26 10 -132 100 -139 117 -3 8 1 35 8
60 31 102 2 158 -94 185 -79 22 -91 23 -121 12z m65 -295 c11 -10 -44 -63 -65
-63 -25 0 -23 25 4 50 22 20 49 26 61 13z"/>
<path d="M4627 1463 c-10 -3 -21 -14 -26 -26 -10 -32 2 -374 15 -387 7 -7 16
-6 30 4 17 13 19 29 22 173 2 159 -3 244 -16 242 -4 -1 -15 -3 -25 -6z"/>
<path d="M8133 1773 c-15 -6 -17 -59 -3 -68 6 -3 9 -26 8 -50 0 -24 4 -51 11
-59 7 -8 9 -25 6 -39 -7 -27 11 -71 25 -62 16 10 21 -15 10 -48 -10 -26 -9
-38 4 -62 8 -16 12 -32 7 -35 -26 -17 -54 -181 -33 -194 7 -4 7 -18 1 -39 -5
-20 -5 -46 1 -67 5 -18 6 -38 1 -44 -20 -27 -19 -47 3 -73 14 -17 23 -41 23
-60 0 -18 3 -36 6 -39 4 -4 32 1 62 11 54 16 57 16 76 -1 24 -21 35 -12 54 42
24 70 -27 90 -66 27 -21 -33 -24 -35 -33 -18 -6 10 -22 29 -34 41 -22 21 -23
30 -21 113 2 58 -1 95 -8 102 -13 13 -6 77 10 97 6 7 11 58 11 112 1 79 -2
103 -15 116 -12 12 -15 27 -12 55 4 24 1 45 -8 55 -7 8 -12 34 -10 56 1 22 -3
46 -9 53 -7 8 -9 23 -6 33 13 41 -17 63 -61 45z"/>
<path d="M3220 1655 c-12 -15 -10 -140 4 -230 3 -16 7 -66 10 -110 3 -44 8
-89 10 -100 3 -11 11 -49 19 -85 23 -103 83 -213 100 -182 14 24 16 80 4 90
-25 21 -51 148 -68 330 -4 50 -16 117 -25 147 -13 41 -15 60 -7 78 24 53 -13
102 -47 62z"/>
<path d="M8716 1621 c-4 -5 -13 -8 -20 -5 -8 3 -38 -2 -69 -11 -30 -9 -68 -13
-84 -10 -44 7 -55 -23 -37 -106 7 -35 13 -87 14 -115 0 -70 17 -84 65 -54 31
19 45 22 90 16 81 -9 84 -12 75 -53 -10 -44 -46 -83 -76 -83 -13 0 -25 -4 -28
-9 -14 -22 -152 -20 -216 3 -8 3 -28 -6 -44 -20 -27 -24 -28 -27 -12 -42 18
-19 102 -41 157 -42 57 0 189 39 226 67 43 33 60 66 69 131 6 48 4 53 -23 81
-17 16 -43 33 -59 36 -16 4 -47 13 -70 21 -23 8 -48 12 -58 8 -24 -9 -23 71 2
81 20 9 101 24 157 29 73 6 125 41 99 66 -15 13 -151 23 -158 11z"/>
<path d="M9139 1603 c-21 -5 -42 -45 -37 -69 4 -23 43 -31 64 -14 17 15 19 76
2 82 -7 2 -20 3 -29 1z"/>
<path d="M900 1505 c-14 -8 -32 -14 -41 -15 -20 0 -59 -41 -59 -62 0 -19 26
-32 57 -29 20 2 21 -1 16 -33 -6 -36 7 -160 32 -311 8 -44 12 -82 10 -85 -2
-3 -7 -40 -10 -81 -5 -62 -4 -78 9 -89 14 -11 20 -10 37 6 20 18 21 27 17 148
-4 117 -3 131 14 148 11 11 29 18 41 18 36 -3 44 -1 69 20 12 10 38 31 56 46
86 69 83 175 -5 241 -21 15 -40 30 -43 33 -18 19 -62 38 -104 44 -27 4 -54 9
-60 11 -6 3 -22 -2 -36 -10z m70 -66 c0 -5 4 -7 10 -4 11 7 106 -36 136 -63
30 -26 37 -55 24 -102 -9 -33 -19 -45 -61 -69 -45 -25 -53 -27 -89 -17 -34 9
-42 16 -50 46 -5 19 -10 59 -10 88 0 29 -5 62 -11 73 -8 16 -7 25 7 40 19 21
44 26 44 8z"/>
<path d="M9105 1473 c-25 -6 -55 -32 -55 -47 0 -17 57 -38 80 -31 28 9 53 58
37 74 -11 11 -27 12 -62 4z"/>
<path d="M3848 1439 c-28 -16 -21 -52 15 -87 26 -25 36 -29 45 -20 13 13 16
75 6 102 -7 18 -40 21 -66 5z"/>
<path d="M3041 1354 c-12 -15 -21 -37 -21 -49 0 -25 41 -85 89 -130 18 -16 42
-45 53 -63 19 -31 19 -35 5 -50 -13 -12 -24 -14 -54 -6 -30 7 -42 17 -56 47
-10 20 -24 37 -31 37 -17 0 -46 -33 -46 -51 0 -22 37 -76 59 -89 26 -14 103
-21 116 -11 5 5 21 11 35 14 26 7 50 46 50 81 0 27 -56 108 -91 132 -53 35
-56 76 -5 85 28 6 43 35 30 57 -8 12 -26 18 -62 19 -44 2 -53 -1 -71 -23z"/>
<path d="M9090 1324 c-17 -18 -21 -27 -12 -32 13 -9 42 -85 42 -113 0 -11 9
-28 20 -39 19 -19 21 -19 54 -3 44 21 52 48 20 69 -13 9 -33 14 -44 11 -25 -7
-25 8 0 40 34 44 23 76 -30 86 -18 4 -32 -2 -50 -19z"/>
<path d="M3416 1301 c-4 -5 -9 -29 -12 -53 -6 -45 -8 -41 75 -150 27 -33 26
-40 -4 -88 -14 -22 -25 -45 -25 -51 0 -7 -11 -35 -24 -63 -26 -56 -69 -151
-94 -206 -8 -19 -21 -47 -29 -62 -9 -18 -10 -34 -4 -51 21 -55 41 -40 91 68
17 39 37 77 45 85 7 8 16 26 20 40 3 14 13 39 20 55 7 17 30 69 50 117 32 75
42 90 74 105 38 19 52 53 31 78 -10 12 0 47 21 65 24 22 37 55 28 72 -5 10
-14 18 -20 18 -14 0 -56 -49 -79 -92 -11 -21 -24 -38 -28 -38 -15 0 -70 65
-91 107 -22 45 -36 59 -45 44z"/>
<path d="M2886 1263 c-18 -29 -24 -53 -25 -103 -2 -67 -35 -170 -55 -170 -33
1 -71 103 -63 171 4 35 2 51 -9 60 -23 19 -45 -10 -55 -73 -7 -42 -6 -61 8
-93 23 -55 69 -113 103 -130 27 -14 31 -13 59 10 34 29 45 58 65 170 25 141
28 195 11 195 -8 0 -26 -17 -39 -37z"/>
<path d="M1916 1258 c-20 -28 -21 -81 -2 -116 7 -15 22 -45 31 -67 37 -84 60
-125 73 -130 15 -6 61 22 64 39 0 6 2 16 3 21 12 67 20 96 36 130 20 46 31
116 20 134 -5 7 -19 9 -38 5 -26 -5 -32 -12 -37 -43 -14 -85 -32 -155 -42
-158 -14 -5 -56 91 -62 143 -6 56 -24 73 -46 42z"/>
<path d="M2207 1264 c-15 -15 -6 -51 18 -74 22 -21 38 -21 41 -2 0 4 4 15 9
26 5 11 4 26 -2 35 -11 17 -54 27 -66 15z"/>
<path d="M1654 1217 c-18 -9 -30 -32 -66 -129 -7 -20 -17 -28 -33 -28 -63 0
-71 -26 -20 -68 34 -27 75 -93 75 -118 0 -6 22 -21 48 -32 44 -19 52 -20 93
-7 24 8 65 20 91 26 48 12 108 43 108 56 0 5 -7 16 -15 27 -13 18 -15 18 -49
-3 -19 -12 -48 -23 -65 -24 -17 -1 -31 -5 -31 -8 0 -3 -22 -5 -49 -5 -38 1
-56 7 -75 25 -31 29 -33 51 -6 58 11 3 20 9 20 13 0 4 18 10 39 14 73 11 110
92 70 151 -40 57 -87 76 -135 52z m76 -72 c10 -12 10 -21 2 -40 -14 -30 -61
-52 -73 -34 -7 11 2 57 16 79 9 15 41 12 55 -5z"/>
<path d="M1410 1196 c-14 -7 -43 -21 -65 -32 -37 -17 -42 -26 -68 -99 -30 -88
-31 -168 -1 -212 16 -26 49 -31 57 -9 6 16 0 132 -7 145 -3 4 2 33 11 64 l17
56 51 8 c27 4 58 7 68 5 37 -4 16 56 -28 81 -6 3 -22 0 -35 -7z"/>
<path d="M2485 1169 c-16 -5 -42 -26 -57 -46 -24 -30 -28 -46 -28 -98 0 -66 8
-80 50 -89 14 -3 39 -10 57 -17 25 -10 39 -10 72 1 35 11 43 19 53 54 26 88
22 109 -31 164 -42 44 -60 48 -116 31z m86 -88 c13 -16 15 -29 9 -51 -5 -17
-6 -30 -3 -30 3 0 -2 -9 -12 -20 -24 -26 -29 -25 -65 10 -32 31 -36 52 -20 94
8 22 15 25 42 22 18 -2 40 -13 49 -25z"/>
<path d="M2276 1132 c-2 -4 -7 -25 -11 -47 -4 -22 -10 -49 -13 -60 -14 -58
-13 -102 3 -115 20 -17 28 -8 47 55 19 60 22 129 8 156 -11 20 -25 25 -34 11z"/>
<path d="M3865 1087 c-16 -25 -16 -28 2 -57 25 -43 61 -38 88 12 23 44 16 56
-37 65 -31 4 -38 2 -53 -20z"/>
<path d="M9153 1056 c-26 -12 -29 -33 -9 -62 13 -18 12 -22 -10 -43 -13 -13
-24 -28 -24 -35 0 -19 28 -53 49 -59 26 -6 45 38 36 85 -6 30 -4 36 14 41 23
6 26 22 11 61 -10 28 -30 31 -67 12z"/>
<path d="M8965 1030 c-3 -5 -15 -10 -26 -10 -12 0 -23 -10 -29 -25 -10 -26
-24 -32 -35 -15 -10 15 -38 11 -62 -9 -30 -25 -29 -47 2 -67 25 -17 27 -16 60
16 29 28 39 32 66 26 51 -10 82 29 63 78 -7 18 -30 21 -39 6z"/>
<path d="M8731 991 c-6 -11 -20 -23 -31 -26 -40 -13 -16 -95 28 -95 26 0 29 4
36 66 5 39 3 54 -8 63 -12 10 -17 9 -25 -8z"/>
<path d="M8496 948 c-24 -33 -20 -63 9 -76 23 -11 27 -8 55 30 28 38 29 42 12
54 -26 20 -59 17 -76 -8z"/>
</g>
</svg>
