<?xml version="1.0" standalone="no"?>
<!DOCTYPE svg PUBLIC "-//W3C//DTD SVG 20010904//EN"
 "http://www.w3.org/TR/2001/REC-SVG-20010904/DTD/svg10.dtd">
<svg version="1.0" xmlns="http://www.w3.org/2000/svg"
 width="857.901473pt" height="400.000000pt" viewBox="0 0 857.901473 400.000000"
 preserveAspectRatio="xMidYMid meet">
<metadata>
Created by potrace 1.15, written by Peter Selinger 2001-2017
</metadata>
<g transform="translate(-20.808299,417.391672) scale(0.042903,-0.042903)"
fill="#444444" stroke="none">
<path d="M1465 9719 c-21 -10 -44 -43 -82 -115 -18 -35 -29 -43 -67 -53 -67
-16 -236 -114 -236 -136 -1 -5 -21 -23 -45 -38 -25 -16 -45 -36 -45 -44 0 -9
-8 -30 -19 -47 -10 -17 -27 -53 -37 -81 -9 -27 -24 -59 -31 -70 -7 -11 -13
-26 -13 -35 1 -18 -47 -175 -64 -210 -8 -16 -9 -36 -4 -55 9 -33 2 -82 -14
-103 -14 -17 -53 -87 -79 -142 -12 -25 -26 -48 -32 -51 -5 -4 -6 -12 -3 -18 4
-6 3 -11 -2 -11 -5 0 -14 -12 -20 -27 -28 -78 -82 -235 -98 -288 -10 -33 -23
-67 -30 -75 -6 -8 -12 -22 -12 -30 -1 -13 -28 -112 -45 -166 -5 -15 1 -28 22
-49 25 -23 40 -28 90 -31 l60 -4 48 49 c27 27 73 60 103 74 66 30 229 81 236
75 2 -3 -4 -16 -14 -29 -24 -30 -23 -135 1 -172 28 -43 52 -40 117 14 33 27
62 49 66 49 4 0 15 -7 25 -16 19 -17 17 -17 230 -12 l147 3 15 -26 c11 -19 31
-32 70 -43 74 -22 106 -20 128 6 27 30 24 58 -12 106 -25 34 -30 49 -27 88 3
44 5 47 42 62 55 22 153 4 265 -49 75 -35 104 -45 134 -48 4 -1 7 -7 7 -14 0
-8 10 -23 23 -35 30 -28 90 -29 136 -1 31 19 33 23 29 62 -6 50 -57 160 -86
184 -30 25 -88 141 -97 190 -3 23 -25 80 -47 125 -23 46 -49 108 -59 138 -34
108 -71 206 -96 260 -62 132 -75 168 -79 210 -6 60 -33 207 -46 250 -15 47
-100 161 -136 183 -17 9 -43 17 -58 17 -15 0 -44 11 -63 23 -20 13 -48 31 -62
40 -18 11 -30 30 -38 61 -15 60 -48 78 -96 55z m242 -610 c96 -23 181 -84 218
-155 11 -22 32 -59 47 -83 16 -25 28 -57 28 -72 0 -25 14 -60 76 -197 13 -29
24 -57 24 -62 0 -6 11 -33 25 -61 13 -29 22 -56 19 -61 -3 -5 1 -17 9 -26 8
-9 14 -24 14 -32 -1 -26 51 -129 96 -194 67 -94 98 -152 91 -170 -10 -26 -27
-19 -75 32 -52 54 -111 151 -134 220 -14 40 -49 115 -92 197 -6 11 -19 40 -28
65 -31 82 -96 235 -113 266 -21 39 -135 141 -179 160 -18 8 -52 14 -75 13 -24
-1 -62 2 -85 6 -48 8 -85 -3 -146 -43 l-38 -25 -30 29 c-26 25 -39 29 -92 32
-106 4 -171 2 -177 -7 -3 -4 -21 -16 -40 -26 -19 -9 -45 -27 -57 -38 -13 -11
-26 -17 -30 -14 -3 4 5 17 19 30 14 13 29 37 32 53 5 19 25 42 59 67 99 73
116 80 186 78 57 -2 70 -7 117 -42 67 -49 87 -50 111 -1 12 24 26 38 41 40 12
2 35 10 50 18 33 17 66 18 129 3z m139 -531 c-13 -83 -15 -156 -7 -185 7 -22
6 -35 -2 -41 -7 -5 -93 -12 -193 -16 -163 -6 -182 -5 -195 10 -11 14 -11 18
-1 22 7 2 23 20 37 39 21 32 22 39 11 62 -17 33 -27 109 -15 116 5 3 17 2 26
-3 27 -15 111 -24 117 -13 3 5 49 12 101 16 52 4 95 11 95 16 0 5 7 9 15 9 12
0 15 -8 11 -32z m-844 -11 c70 -45 134 -54 193 -27 59 27 85 26 85 -2 0 -12 7
-29 16 -39 15 -17 15 -21 -6 -53 -13 -22 -19 -43 -15 -56 6 -19 2 -20 -138
-20 l-145 0 -22 52 c-21 49 -40 178 -27 178 4 0 30 -15 59 -33z m402 -14 c-1
-27 -3 -50 -3 -52 -1 -2 -10 4 -21 14 -30 27 -35 54 -13 70 31 24 39 17 37
-32z m-666 -195 c-5 -29 -14 -57 -19 -62 -5 -6 -9 -26 -9 -46 0 -21 -7 -51
-16 -69 -9 -17 -19 -52 -22 -77 -4 -24 -10 -45 -14 -44 -5 0 -17 0 -28 0 -31
0 -30 4 41 231 30 96 43 119 65 119 8 0 9 -14 2 -52z m708 -135 c1 -15 7 -51
12 -79 9 -47 7 -142 -3 -172 -13 -38 -26 5 -30 103 -2 61 -7 133 -11 160 -6
48 -5 49 12 33 9 -9 18 -30 20 -45z m-92 -68 c11 -93 2 -201 -14 -174 -5 7 -7
17 -4 21 3 4 0 25 -6 47 -7 27 -7 47 0 67 7 19 8 30 0 38 -11 11 -14 49 -3 60
12 12 21 -8 27 -59z m227 -94 c9 -18 25 -41 35 -52 22 -24 16 -30 -37 -32
l-44 -2 -3 49 c-5 84 15 100 49 37z m-934 -49 c-18 -41 -55 -84 -68 -80 -7 2
0 17 18 38 16 19 32 43 36 53 4 9 11 17 16 17 6 0 5 -11 -2 -28z m493 -58 c0
-17 -23 -44 -38 -44 -11 0 -22 46 -14 55 12 12 52 4 52 -11z m630 -69 c7 -9
10 -18 7 -21 -10 -11 -54 5 -61 21 -7 20 37 20 54 0z"/>
<path d="M4050 9529 c-9 -31 -8 -74 1 -168 7 -69 13 -142 13 -161 l1 -34 -70
-11 c-73 -11 -145 -46 -145 -71 0 -8 -4 -14 -8 -14 -10 0 -52 85 -52 104 0 7
-8 20 -17 29 -24 21 -103 7 -155 -28 -21 -14 -42 -25 -48 -25 -5 0 -10 -5 -10
-11 0 -7 -10 -21 -22 -33 -13 -12 -31 -32 -40 -46 l-18 -25 7 45 c3 25 10 50
15 56 10 13 -15 44 -36 44 -21 0 -43 -31 -58 -80 -7 -25 -21 -56 -30 -70 -18
-24 -18 -24 -37 -5 -11 11 -25 43 -32 70 -15 67 -22 79 -46 83 -40 6 -47 -21
-24 -94 12 -37 21 -73 21 -80 0 -7 15 -29 34 -48 54 -58 97 -46 155 41 27 40
31 43 31 22 0 -57 60 -96 132 -85 49 8 79 29 101 72 9 17 22 36 31 43 12 10
17 7 30 -18 9 -16 16 -39 16 -50 0 -13 8 -22 23 -25 12 -3 33 -7 47 -10 14 -2
43 -11 65 -20 71 -27 198 -18 216 16 16 30 1 37 -91 41 -105 5 -140 17 -140
52 0 40 39 59 109 52 33 -4 71 -12 85 -18 23 -11 28 -10 41 7 9 11 13 29 9 44
-26 113 -43 241 -44 331 0 88 -3 108 -16 113 -28 11 -33 7 -44 -35z m-370
-434 c0 -14 -28 -63 -45 -77 -29 -25 -65 -23 -65 3 0 28 56 79 86 79 13 0 24
-2 24 -5z"/>
<path d="M3034 9520 c-9 -9 -4 -71 24 -292 l8 -67 -57 3 c-68 4 -95 -7 -126
-53 -32 -47 -29 -83 8 -126 59 -67 117 -82 191 -49 28 12 38 23 38 40 0 21 -3
22 -58 17 -42 -4 -67 -1 -89 11 -43 22 -52 54 -23 78 31 26 86 23 137 -8 35
-20 47 -23 59 -14 18 16 18 53 0 88 -17 33 -33 135 -42 267 -4 55 -12 103 -18
107 -16 11 -40 10 -52 -2z"/>
<path d="M4701 9175 c-24 -13 -50 -33 -57 -44 -14 -20 -15 -20 -39 5 -24 24
-49 24 -58 0 -3 -7 3 -52 14 -101 20 -96 42 -132 77 -121 16 5 22 19 27 69 12
100 71 157 167 157 38 1 78 17 78 33 0 11 -66 27 -114 27 -34 -1 -65 -9 -95
-25z"/>
<path d="M4322 9161 c-35 -10 -90 -59 -94 -83 -2 -13 -13 -27 -25 -33 -35 -15
-28 -39 30 -98 58 -61 106 -82 166 -72 46 8 101 40 101 59 0 18 -27 28 -48 17
-39 -21 -103 -16 -133 9 -21 17 -22 21 -9 30 8 5 28 10 43 10 44 0 87 38 87
75 0 31 -37 85 -59 85 -5 0 -15 2 -23 4 -7 2 -23 1 -36 -3z m43 -91 c-3 -4
-14 -10 -25 -13 -22 -6 -29 18 -7 26 16 5 38 -3 32 -13z"/>
<path d="M10064 9053 c-9 -21 -25 -56 -34 -78 -10 -22 -24 -60 -30 -85 -6 -25
-23 -57 -37 -72 -16 -17 -23 -33 -19 -43 3 -10 -3 -29 -15 -46 -17 -24 -18
-33 -9 -44 21 -25 45 -17 63 20 21 43 53 57 126 53 l56 -3 26 -68 c14 -37 30
-72 36 -78 15 -15 33 -3 33 21 0 21 -33 135 -76 265 -68 201 -89 229 -120 158z
m55 -161 l19 -62 -45 0 c-45 0 -45 0 -40 29 8 39 36 105 42 100 2 -3 13 -33
24 -67z"/>
<path d="M11897 9040 c-50 -31 -106 -88 -107 -106 0 -6 -7 -18 -16 -25 -34
-28 -47 -123 -25 -181 30 -79 146 -123 226 -86 21 10 31 9 54 -5 38 -22 49 -9
63 80 5 37 14 76 20 86 13 24 68 57 96 57 28 0 39 25 21 46 -10 12 -25 15 -58
11 -38 -4 -51 -12 -83 -49 -21 -23 -49 -55 -64 -70 -17 -18 -24 -33 -19 -47
10 -34 -20 -51 -91 -51 -58 0 -68 3 -90 28 -22 23 -25 34 -22 73 10 99 95 193
175 194 48 0 63 18 43 55 -16 30 -67 26 -123 -10z"/>
<path d="M12886 9034 c-20 -20 -20 -19 5 -53 15 -21 22 -49 26 -109 l6 -81
-35 5 c-25 4 -39 1 -51 -11 -25 -25 -21 -31 28 -52 l46 -18 -5 -81 c-5 -72 -3
-85 15 -108 35 -44 49 -20 49 85 l0 89 44 0 c43 0 43 0 50 -42 12 -76 80 -138
166 -152 49 -7 73 1 87 30 14 29 13 30 -66 38 -76 8 -123 56 -54 56 36 0 73
46 73 91 0 40 -18 60 -67 77 -40 13 -71 6 -103 -24 -23 -21 -28 -22 -62 -10
-21 7 -41 16 -45 20 -4 4 -10 44 -14 90 -3 45 -11 91 -17 102 -5 10 -15 31
-23 47 -14 31 -30 34 -53 11z m314 -309 c0 -16 -10 -22 -44 -27 -28 -4 -30 17
-4 30 33 15 48 14 48 -3z"/>
<path d="M11542 9027 c-9 -11 -9 -23 3 -51 20 -46 14 -56 -36 -56 -32 0 -39
-4 -39 -19 0 -32 11 -51 29 -51 10 0 25 -6 34 -12 14 -11 15 -22 7 -82 -15
-103 -43 -126 -52 -44 -8 70 -44 136 -83 155 -34 16 -35 16 -59 -12 -23 -26
-66 -138 -66 -170 0 -8 10 -20 22 -26 18 -10 24 -8 35 7 7 10 13 25 13 33 0
35 22 91 35 91 8 0 20 -23 30 -57 9 -32 18 -64 20 -70 2 -7 18 -13 36 -13 17
0 43 -9 59 -20 24 -17 29 -18 40 -5 12 14 40 134 40 171 0 23 23 34 71 34 59
0 40 54 -24 67 -31 6 -45 27 -62 93 -12 47 -33 61 -53 37z"/>
<path d="M13442 9015 c-10 -22 -10 -127 1 -275 1 -17 -4 -25 -18 -27 -50 -8
-96 -28 -109 -48 -12 -19 -12 -27 6 -67 35 -81 130 -103 206 -47 47 34 51 44
23 58 -11 6 -21 27 -25 53 -4 24 -10 57 -13 73 -4 17 -7 87 -8 156 -1 69 -5
131 -9 138 -12 20 -42 12 -54 -14z m24 -396 c26 -10 27 -12 10 -18 -25 -10
-78 1 -83 16 -4 11 25 23 38 17 3 -2 19 -9 35 -15z"/>
<path d="M14186 9008 c-14 -20 -16 -46 -12 -186 5 -156 4 -162 -14 -152 -10 5
-38 10 -61 10 -35 0 -47 -6 -70 -32 -55 -60 -44 -137 24 -178 66 -40 190 -12
235 53 28 43 28 57 -3 57 -17 0 -26 7 -29 23 -16 71 -24 168 -23 287 0 115 -2
135 -15 138 -9 2 -23 -7 -32 -20z m-21 -425 c38 -27 29 -57 -17 -61 -20 -2
-46 1 -56 7 -25 13 -38 61 -20 73 18 12 63 2 93 -19z"/>
<path d="M15207 8965 c-28 -27 -40 -199 -22 -316 l7 -46 -46 -1 c-51 -1 -100
-23 -116 -51 -25 -47 21 -135 86 -166 50 -24 137 -15 170 16 29 27 30 35 5 49
-14 7 -30 6 -58 -3 -50 -17 -91 -8 -116 25 -28 37 -17 58 31 58 29 0 45 -7 67
-30 33 -34 47 -37 66 -14 11 13 10 26 -10 79 -19 54 -22 84 -23 202 0 76 1
154 3 173 5 39 -17 52 -44 25z"/>
<path d="M10340 8898 c-63 -38 -74 -97 -28 -159 25 -34 134 -87 149 -72 12 12
2 63 -13 63 -15 0 -87 53 -93 69 -8 19 11 39 46 46 34 8 47 30 32 54 -14 21
-58 21 -93 -1z"/>
<path d="M10621 8911 c-32 -8 -60 -48 -72 -100 -8 -36 -6 -45 13 -72 23 -32
85 -69 113 -69 8 0 24 5 34 12 15 9 27 7 60 -10 49 -26 79 -28 108 -7 32 23
63 78 63 115 0 38 -44 85 -87 93 -30 6 -83 -19 -83 -39 0 -6 -7 -17 -15 -24
-8 -7 -17 -27 -21 -46 -5 -26 -11 -33 -23 -30 -9 3 -28 8 -44 12 -51 12 -63
89 -15 96 22 3 49 51 36 63 -9 9 -42 12 -67 6z m247 -139 c4 -23 -31 -61 -55
-62 -18 0 -16 41 3 68 19 28 48 25 52 -6z"/>
<path d="M12328 8881 c-31 -10 -71 -46 -84 -77 -12 -27 -11 -40 2 -84 27 -90
136 -182 182 -153 27 16 24 30 -10 46 -18 9 -48 31 -66 49 l-32 34 59 18 c133
40 137 176 4 173 -23 -1 -48 -3 -55 -6z m82 -65 c0 -22 -40 -46 -77 -46 -37 0
-41 10 -15 32 33 30 92 38 92 14z"/>
<path d="M5888 8863 c-54 -5 -84 -33 -68 -64 12 -21 26 -216 32 -424 0 -11 -5
-47 -11 -79 -13 -62 -14 -75 -25 -276 -4 -69 -9 -139 -11 -155 -28 -181 -44
-775 -26 -976 20 -224 22 -417 7 -594 -9 -118 -11 -213 -6 -310 5 -77 11 -253
14 -391 6 -218 5 -253 -9 -264 -22 -18 -19 -39 8 -51 12 -5 30 -24 40 -40 21
-38 60 -38 65 1 2 14 7 28 11 33 13 13 73 20 207 22 72 1 135 5 141 8 5 3 43
11 84 16 41 6 108 15 149 21 41 6 113 15 160 20 47 5 110 13 140 17 96 14
1032 9 1155 -6 61 -7 198 -15 305 -16 223 -4 444 -13 510 -20 116 -12 145 -17
154 -23 6 -4 18 -7 26 -7 27 -1 105 -16 125 -25 11 -4 79 -16 150 -25 72 -9
162 -21 200 -26 39 -5 93 -11 120 -14 28 -3 83 -10 122 -16 57 -8 76 -8 90 3
19 14 24 63 9 87 -5 8 -10 179 -12 380 -3 496 -10 667 -29 791 -17 110 -17 84
-12 1320 2 427 -7 861 -19 918 -5 23 -7 23 -87 17 -45 -3 -111 -8 -147 -11
-146 -12 -678 -7 -810 6 -90 10 -269 14 -540 15 -595 0 -851 11 -1300 55 -47
4 -148 17 -225 29 -77 11 -203 23 -280 25 -77 3 -175 12 -218 21 -77 15 -92
15 -189 8z m197 -89 c35 -9 117 -17 197 -19 122 -3 311 -26 451 -55 27 -6 75
-10 107 -10 33 0 81 -4 107 -10 71 -15 672 -34 1113 -35 402 -2 539 -7 679
-27 45 -6 124 -11 175 -10 149 2 462 10 589 16 64 3 117 5 117 3 1 -1 4 -92 8
-202 6 -179 7 -509 2 -1550 0 -176 1 -340 4 -365 3 -25 8 -72 11 -104 3 -33 8
-63 10 -67 11 -17 20 -584 14 -867 -4 -205 -2 -201 -81 -182 -23 5 -50 9 -58
8 -22 -4 -164 12 -255 27 -82 14 -125 23 -280 56 -106 22 -386 48 -535 48
-165 1 -418 9 -500 15 -41 4 -122 11 -180 16 -58 6 -163 9 -235 9 -71 -1 -272
-2 -445 -3 -173 -1 -344 -6 -380 -10 -36 -4 -144 -19 -240 -32 -96 -13 -197
-24 -225 -24 -27 0 -79 -4 -115 -9 -181 -28 -262 -34 -271 -20 -5 8 -9 50 -9
94 0 44 -3 125 -6 180 -15 282 -18 499 -8 615 12 137 9 453 -6 625 -10 111 -5
667 6 760 4 28 8 76 10 108 2 31 6 62 10 68 3 6 10 88 15 182 5 95 13 208 19
252 5 44 7 178 4 298 -2 120 -2 222 1 227 9 15 114 12 180 -6z"/>
<path d="M6761 8626 c-9 -11 -9 -25 -1 -58 18 -65 -6 -308 -31 -308 -5 0 -9
-7 -9 -15 0 -35 -95 -49 -122 -17 -29 35 -38 76 -44 210 -3 75 -7 143 -9 150
-6 17 -40 15 -55 -3 -12 -14 -11 -35 6 -240 11 -123 32 -159 114 -189 39 -14
51 -15 89 -4 40 12 48 19 78 78 23 45 37 90 44 145 12 86 4 232 -13 253 -14
16 -33 15 -47 -2z"/>
<path d="M7004 8497 c-76 -30 -132 -96 -120 -143 4 -13 31 -47 61 -76 30 -29
55 -56 55 -60 0 -4 -11 -8 -24 -8 -15 0 -26 7 -29 20 -3 14 -14 20 -31 20 -56
0 -44 -74 17 -103 33 -15 44 -16 89 -5 42 11 56 19 72 47 l19 34 -39 34 c-21
18 -59 51 -84 73 l-45 40 31 29 c22 20 46 30 82 35 56 7 73 28 46 57 -19 21
-54 23 -100 6z"/>
<path d="M7303 8439 c-24 -7 -39 -21 -53 -49 -11 -22 -20 -46 -20 -54 0 -9
-13 -31 -30 -49 -35 -41 -37 -52 -10 -69 11 -7 20 -20 20 -28 0 -29 48 -86 88
-104 54 -25 117 -15 163 24 26 21 31 31 23 40 -9 9 -20 8 -47 -5 -41 -19 -86
-14 -129 17 -29 20 -39 65 -15 72 6 3 44 14 83 25 53 15 74 27 84 45 19 36 -2
79 -58 116 -49 32 -51 33 -99 19z m57 -74 c17 -9 30 -18 30 -20 0 -9 -59 -35
-80 -35 -24 0 -26 17 -4 48 18 26 17 26 54 7z"/>
<path d="M7778 8381 c-49 -10 -82 -33 -118 -82 l-29 -40 -22 50 c-17 41 -26
51 -45 51 -31 0 -41 -38 -20 -78 8 -16 25 -60 37 -97 39 -118 108 -126 109
-12 0 29 31 100 58 130 8 9 25 17 38 17 13 0 25 4 28 9 3 5 26 12 51 15 47 8
53 14 33 34 -13 13 -61 14 -120 3z"/>
<path d="M8952 7714 c-20 -14 -22 -24 -22 -107 0 -86 10 -196 26 -294 l7 -43
-41 0 c-29 0 -49 -7 -71 -26 -27 -23 -31 -32 -31 -79 0 -37 6 -60 20 -78 25
-32 81 -51 126 -44 40 7 94 42 94 62 0 17 -43 32 -48 16 -7 -20 -80 -13 -103
10 -44 44 7 77 70 44 63 -32 89 17 57 110 -25 74 -36 162 -37 293 0 143 -7
164 -47 136z"/>
<path d="M6700 7650 c-62 -9 -155 -55 -196 -95 -49 -49 -94 -140 -94 -189 0
-75 91 -194 170 -224 56 -21 139 -24 197 -7 32 10 73 14 92 11 36 -6 125 32
188 80 l32 25 6 -28 c18 -85 20 -88 50 -88 26 0 30 3 27 25 -6 66 -3 170 6
186 10 18 11 17 21 -9 6 -16 11 -37 11 -48 0 -11 12 -31 26 -45 24 -25 26 -25
45 -8 10 9 24 33 29 53 15 53 42 85 67 77 23 -7 63 -89 63 -128 0 -13 7 -41
14 -63 12 -34 19 -40 45 -43 23 -2 31 1 31 13 0 36 -44 174 -73 230 -29 55
-35 60 -69 63 -32 3 -44 -3 -82 -38 l-45 -41 -21 40 c-17 35 -25 41 -53 41
-25 0 -37 -7 -54 -34 l-22 -34 -48 25 c-36 18 -57 23 -83 18 -67 -12 -120 -87
-120 -168 l0 -45 -66 -7 c-174 -19 -292 41 -318 163 -15 64 61 166 144 196 19
7 64 23 100 36 81 28 91 37 66 56 -11 8 -25 13 -30 13 -6 -1 -31 -5 -56 -9z
m334 -327 c8 -20 -59 -93 -86 -93 -28 0 -24 55 7 85 28 29 70 33 79 8z"/>
<path d="M7656 7429 c-14 -11 -26 -28 -26 -37 0 -9 -11 -27 -24 -41 -24 -26
-24 -27 -10 -91 7 -36 14 -77 14 -93 0 -36 42 -59 66 -35 13 13 14 24 5 69
-12 63 -8 127 10 143 7 7 13 7 16 1 45 -107 79 -130 119 -80 l21 27 7 -26 c4
-15 22 -61 42 -102 32 -69 37 -75 62 -72 31 3 40 29 18 51 -14 13 -36 63 -53
122 -14 43 -59 119 -80 132 -20 14 -23 12 -38 -17 -16 -31 -17 -31 -33 -12 -9
12 -25 34 -34 51 -20 36 -45 39 -82 10z"/>
<path d="M8144 7379 c-17 -5 -52 -30 -77 -56 -69 -70 -75 -141 -15 -213 31
-38 96 -35 131 5 14 17 31 42 38 58 6 15 16 27 21 27 5 0 14 -12 21 -27 20
-46 69 -113 82 -113 6 0 20 9 30 20 18 20 18 21 -7 48 -24 25 -78 130 -78 150
0 13 -45 34 -66 30 -13 -2 -25 -20 -35 -53 -29 -87 -88 -130 -102 -74 -7 28 9
78 30 96 10 8 42 25 71 38 93 44 58 94 -44 64z"/>
<path d="M8512 7335 c-41 -34 -72 -105 -78 -177 -6 -67 7 -98 41 -98 32 0 35
8 39 87 3 79 27 133 57 133 45 0 116 -109 128 -195 5 -36 9 -40 38 -43 42 -4
59 24 39 65 -93 195 -129 241 -191 250 -34 4 -46 1 -73 -22z"/>
<path d="M11014 8852 c-16 -13 -22 -30 -23 -73 -2 -48 2 -61 24 -87 47 -56 95
-41 129 42 16 37 17 38 31 20 8 -10 15 -24 15 -31 0 -7 10 -17 21 -24 17 -9
25 -8 37 4 13 14 12 21 -13 71 -16 31 -39 63 -52 72 -23 14 -26 14 -44 -2 -10
-9 -19 -23 -19 -30 0 -7 -6 -19 -13 -26 -7 -7 -16 -21 -20 -31 -4 -10 -13 -17
-20 -15 -16 6 -21 52 -7 78 9 16 8 25 -1 36 -15 18 -19 17 -45 -4z"/>
<path d="M13670 8838 l-23 -21 23 -19 c29 -23 57 -23 70 1 15 29 13 37 -15 49
-32 15 -27 16 -55 -10z"/>
<path d="M5160 8825 c-8 -9 -10 -25 -5 -42 14 -57 16 -99 6 -125 l-10 -28 -98
6 c-54 3 -129 10 -168 15 -38 4 -106 11 -150 13 -91 6 -117 9 -195 25 -35 7
-86 9 -140 4 -47 -4 -89 -5 -95 -3 -5 2 -91 5 -190 7 -99 2 -243 5 -320 6 -77
2 -161 8 -188 15 -32 8 -142 12 -345 11 -164 0 -330 4 -370 10 -62 9 -77 9
-95 -4 -12 -9 -43 -15 -73 -15 -38 0 -55 -5 -69 -19 -16 -19 -16 -21 8 -44 25
-22 29 -23 99 -14 79 11 123 12 328 5 74 -3 189 -2 255 3 93 6 138 4 200 -8
118 -23 319 -34 698 -38 203 -3 355 -9 380 -16 49 -13 200 -29 312 -33 44 -2
113 -7 153 -11 l72 -7 -5 -52 c-3 -28 -8 -69 -11 -92 -7 -60 10 -71 91 -57 70
12 159 51 252 112 38 25 69 38 81 34 15 -4 21 2 25 24 7 38 -8 53 -56 53 -54
0 -96 28 -169 114 -129 150 -145 166 -171 166 -13 0 -30 -7 -37 -15z"/>
<path d="M12595 8810 c-65 -31 -96 -67 -109 -128 -7 -27 -3 -36 23 -63 27 -26
36 -30 63 -24 18 4 43 20 57 36 14 16 32 29 39 29 8 0 32 -16 55 -35 26 -23
51 -35 70 -35 27 0 29 2 22 27 -6 26 -40 62 -94 102 -23 17 -23 18 -7 50 14
25 15 36 5 47 -16 20 -77 17 -124 -6z m13 -107 c-27 -27 -41 -34 -48 -27 -13
13 42 64 68 64 12 0 6 -11 -20 -37z"/>
<path d="M15786 8719 c-32 -11 -62 -32 -90 -62 -22 -25 -51 -48 -63 -52 -13
-3 -23 -14 -23 -24 0 -39 32 -137 51 -156 l20 -20 20 24 c13 15 19 37 18 65
-1 22 7 61 16 85 21 50 73 80 141 81 45 0 64 14 64 46 0 19 -6 22 -52 26 -32
2 -72 -3 -102 -13z"/>
<path d="M14392 8711 c-24 -15 -15 -93 17 -145 21 -33 45 -46 88 -46 28 0 97
60 113 99 6 16 25 35 41 41 34 15 36 21 10 44 -27 25 -49 15 -109 -49 -29 -30
-57 -55 -62 -55 -13 0 -40 54 -40 79 0 11 -9 25 -19 31 -23 12 -22 12 -39 1z"/>
<path d="M14783 8691 c-55 -26 -110 -83 -124 -131 -10 -33 -9 -43 5 -65 13
-20 24 -25 61 -25 40 0 46 4 72 40 15 22 34 40 41 40 8 0 27 -14 44 -30 37
-38 74 -48 95 -27 21 21 11 42 -26 58 -17 8 -31 19 -31 26 0 6 -14 23 -32 38
-24 21 -28 29 -18 35 11 7 12 14 2 34 -14 31 -33 32 -89 7z m-23 -130 c-12
-23 -30 -28 -30 -9 0 16 34 52 38 39 2 -5 -2 -19 -8 -30z"/>
<path d="M15431 8696 c-29 -8 -53 -23 -71 -45 -33 -39 -55 -109 -45 -142 9
-30 52 -77 88 -95 38 -20 144 -10 171 16 18 18 18 18 -4 30 -12 7 -39 10 -59
8 -20 -3 -50 1 -68 8 -33 14 -52 34 -32 34 35 0 129 48 148 76 30 43 26 66
-12 88 -53 30 -70 33 -116 22z m44 -86 c-11 -12 -30 -20 -49 -20 l-31 1 24 19
c13 11 35 20 49 20 24 0 25 0 7 -20z"/>
<path d="M13682 8657 c-6 -7 -16 -25 -21 -40 -10 -25 -8 -29 14 -37 48 -18 99
29 81 75 -7 18 -59 20 -74 2z"/>
<path d="M10043 8482 c-69 -7 -65 -81 5 -83 20 -1 51 -3 67 -5 17 -2 208 -6
425 -8 217 -2 424 -8 460 -14 36 -5 124 -8 195 -5 88 3 172 -1 260 -12 293
-38 316 -41 463 -50 40 -2 92 -10 115 -16 40 -12 618 -17 1017 -11 329 6 879
-12 1053 -34 65 -8 186 -17 269 -19 116 -3 154 -7 166 -18 12 -12 36 -14 126
-10 61 3 150 1 199 -4 48 -5 92 -6 97 -3 6 4 36 3 68 -2 31 -4 120 -10 197
-13 119 -4 346 -17 540 -30 159 -11 209 -12 241 -5 l36 8 -7 -36 c-16 -89 -17
-145 -4 -153 11 -6 11 -11 1 -21 -17 -17 -15 -57 4 -65 14 -5 73 7 119 26 79
32 273 70 294 57 6 -4 20 -1 32 6 12 7 56 31 98 53 89 47 100 69 43 84 -21 6
-49 22 -62 36 -13 14 -30 25 -38 25 -7 0 -53 33 -100 73 -77 65 -151 121 -201
152 -9 6 -35 23 -59 38 -34 22 -49 26 -69 20 -23 -8 -25 -13 -28 -102 -2 -51
-9 -98 -15 -106 -16 -20 -78 -25 -150 -14 -36 6 -96 12 -135 14 -161 7 -380
27 -396 36 -12 6 -20 5 -25 -2 -5 -9 -50 -10 -163 -5 -86 4 -240 9 -343 12
-103 2 -199 9 -213 14 -15 6 -115 15 -223 20 -108 6 -213 13 -232 16 -147 25
-736 49 -895 36 -16 -1 -68 0 -115 3 -125 9 -204 9 -415 2 -312 -11 -631 -5
-715 13 -25 5 -110 14 -190 20 -79 7 -147 13 -151 15 -3 3 -35 7 -70 10 -35 3
-102 10 -149 15 -47 6 -186 12 -310 14 -133 2 -236 8 -253 14 -19 8 -50 9
-100 2 -94 -12 -405 -12 -482 0 -66 10 -232 17 -282 12z"/>
<path d="M17544 8389 c-93 -3 -176 -9 -183 -13 -7 -5 -89 -10 -182 -12 -148
-3 -169 -2 -169 12 0 21 -38 9 -62 -20 -22 -26 -23 -50 -2 -80 8 -13 16 -40
17 -59 2 -20 5 -38 8 -41 2 -3 -1 -58 -8 -123 -8 -65 -18 -160 -23 -211 -14
-137 -37 -281 -59 -375 -47 -198 -64 -516 -66 -1217 -2 -578 -9 -997 -21
-1235 -3 -60 -7 -180 -8 -265 l-3 -155 -26 -9 c-14 -5 -28 -16 -31 -25 -3 -9
-9 -22 -12 -28 -13 -30 50 -35 371 -34 176 1 367 5 425 10 58 5 224 9 370 10
146 1 295 6 331 12 67 10 209 3 392 -21 42 -5 112 -14 155 -20 76 -9 260 -16
672 -26 118 -2 303 -6 410 -9 214 -5 380 -19 422 -36 15 -6 39 -8 53 -5 l25 6
1 138 c1 75 1 140 0 145 -3 16 -12 535 -11 627 0 52 4 109 10 125 10 32 31
226 35 315 2 48 16 134 41 250 4 19 9 312 11 650 2 338 6 656 8 705 2 50 6
151 9 225 8 192 16 315 26 390 4 36 8 72 9 80 4 142 4 152 -10 161 -8 5 -21 6
-29 3 -44 -18 -50 -17 -50 10 0 26 -1 27 -43 21 -25 -4 -74 0 -117 8 -82 16
-304 17 -545 3 -94 -6 -173 -5 -240 3 -55 6 -145 13 -200 16 -55 3 -129 9
-165 15 -36 5 -103 14 -150 20 -47 6 -101 15 -120 19 -19 5 -132 9 -250 10
-118 0 -249 5 -290 11 -151 21 -441 29 -726 19z m591 -93 c28 -3 75 -9 105
-12 30 -4 58 -8 61 -10 4 -2 113 -4 243 -5 130 -1 253 -5 274 -10 66 -16 199
-31 422 -48 80 -6 167 -16 194 -22 36 -9 93 -10 200 -3 171 9 513 8 566 -2 19
-4 68 -7 108 -8 53 -1 75 -5 82 -16 12 -18 13 -167 2 -174 -4 -2 -9 -62 -10
-133 -4 -153 -10 -358 -11 -358 -5 0 -12 -226 -11 -330 5 -316 4 -1083 -3
-1109 -3 -16 -9 -50 -12 -75 -4 -25 -11 -59 -15 -76 -8 -26 -21 -165 -22 -230
0 -11 -7 -58 -15 -105 -31 -177 -34 -214 -23 -360 6 -80 9 -273 8 -428 l-2
-284 -35 6 c-227 37 -516 54 -1006 60 -260 3 -398 9 -465 20 -52 8 -126 17
-165 20 -38 3 -126 11 -195 17 -109 10 -203 8 -304 -6 -37 -5 -166 -7 -279 -5
-48 0 -91 -1 -95 -4 -18 -11 -293 -21 -576 -21 l-308 1 1 209 c1 116 4 219 6
230 7 33 17 676 21 1295 2 322 5 603 8 625 4 50 15 171 21 250 8 108 24 209
44 290 26 105 40 187 51 315 6 58 14 132 19 165 6 33 13 97 17 143 4 48 11 82
18 82 6 0 5 4 -2 9 -8 4 -14 24 -15 42 l-2 34 145 8 c80 4 172 11 205 15 69 8
675 6 750 -2z"/>
<path d="M17745 8101 c-3 -6 -8 -96 -11 -199 -4 -172 -3 -193 15 -235 23 -53
39 -63 107 -72 57 -8 91 3 146 47 75 59 111 147 110 275 0 61 -8 95 -34 150
-15 30 -49 33 -70 6 -21 -25 -22 -33 -5 -33 38 0 59 -153 34 -241 -33 -113
-164 -183 -223 -118 -24 27 -38 174 -26 295 5 55 11 106 13 114 5 18 -45 27
-56 11z"/>
<path d="M18492 8018 c-17 -22 4 -58 33 -58 26 0 29 9 19 48 -7 24 -35 30 -52
10z"/>
<path d="M18279 7892 c-28 -18 -79 -75 -79 -87 0 -4 -8 -19 -19 -33 -46 -67
-26 -153 32 -138 24 6 27 11 27 52 0 24 6 60 14 79 15 36 59 71 76 60 19 -12
40 -77 40 -126 0 -30 6 -53 16 -64 15 -15 18 -15 35 1 42 38 -4 233 -61 264
-27 15 -52 12 -81 -8z"/>
<path d="M18890 7883 c-109 -37 -220 -154 -220 -233 0 -80 102 -96 177 -27
l22 20 7 -27 c9 -38 -5 -308 -18 -323 -5 -7 -7 -17 -4 -22 4 -5 1 -13 -5 -17
-16 -9 9 -24 43 -24 23 0 36 14 92 98 35 53 83 115 105 137 45 43 51 69 21 85
-25 13 -74 -10 -92 -44 -13 -23 -74 -96 -81 -96 -2 0 0 25 3 56 9 77 3 284 -8
314 -9 26 2 68 23 82 6 5 5 12 -5 22 -13 13 -21 13 -60 -1z m-40 -115 c0 -7
-9 -32 -20 -56 -17 -38 -48 -62 -81 -62 -22 0 -6 44 32 85 41 44 69 57 69 33z"/>
<path d="M18547 7842 c-10 -10 -15 -21 -13 -23 8 -8 8 -133 1 -152 -7 -16 -3
-18 26 -15 32 3 34 6 37 43 2 22 1 68 -3 103 -7 66 -19 76 -48 44z"/>
<path d="M2825 8290 c-33 -17 -89 -48 -125 -70 -36 -22 -73 -40 -82 -40 -22 0
-58 -35 -58 -56 0 -21 115 -129 165 -156 22 -11 70 -31 107 -44 82 -28 92 -21
94 70 2 116 -6 105 77 103 76 -1 300 10 377 19 25 3 129 5 230 5 102 0 223 5
270 10 60 7 117 7 190 -1 138 -16 345 -22 384 -12 17 4 58 4 91 -1 33 -4 110
-10 170 -12 61 -2 146 -11 191 -20 52 -10 152 -17 280 -19 109 -2 209 -7 221
-11 27 -9 42 17 23 40 -19 23 -144 56 -208 56 -90 -1 -313 17 -355 29 -21 6
-82 11 -135 11 -345 1 -562 7 -597 17 -22 6 -78 11 -125 12 -109 1 -504 -15
-730 -30 -96 -6 -211 -10 -255 -8 l-80 3 0 55 c0 30 -4 61 -8 68 -13 19 -47
14 -112 -18z"/>
<path d="M10252 7992 c-109 -75 -128 -87 -183 -116 -25 -14 -60 -37 -78 -51
-17 -15 -37 -25 -45 -22 -8 3 -19 -5 -27 -19 -12 -24 -10 -27 36 -67 27 -23
78 -63 114 -88 36 -25 104 -75 149 -112 89 -71 121 -81 140 -44 15 28 42 159
36 169 -11 17 29 20 113 8 49 -6 160 -10 248 -9 256 3 301 3 480 -5 194 -7
342 -8 895 -3 217 1 447 -1 510 -5 63 -4 189 -10 280 -13 91 -2 192 -9 225
-15 33 -5 137 -13 230 -16 161 -5 216 -10 380 -34 39 -6 111 -10 160 -9 174 3
643 -11 711 -21 38 -5 141 -10 229 -10 88 -1 192 -5 230 -11 39 -5 162 -14
275 -19 252 -13 215 -12 340 -5 81 6 136 3 240 -13 74 -11 176 -20 225 -22 50
-1 122 -5 160 -10 39 -5 98 -10 133 -10 63 0 63 0 60 27 -3 23 -10 28 -58 40
-81 19 -261 46 -305 45 -11 0 -56 7 -99 15 -71 13 -262 21 -431 17 -157 -4
-479 8 -560 21 -49 8 -126 14 -170 15 -44 0 -127 0 -185 1 -58 0 -135 4 -172
9 -36 5 -212 12 -390 15 -200 4 -361 11 -423 20 -133 20 -222 26 -330 25 -49
0 -146 6 -215 14 -69 8 -165 15 -215 16 -49 1 -115 4 -145 6 -46 4 -624 16
-755 17 -22 0 -80 -3 -130 -7 -126 -9 -427 -9 -635 0 -178 8 -285 9 -490 6
-118 -2 -282 4 -357 14 l-43 5 -2 62 c-1 34 -1 76 1 94 1 18 -5 48 -14 69 -8
20 -15 47 -15 60 0 39 -37 29 -128 -34z"/>
<path d="M3100 7858 c-14 -6 -39 -17 -56 -24 -16 -7 -39 -23 -49 -34 -18 -19
-18 -24 -5 -47 17 -28 27 -34 153 -92 48 -22 87 -45 87 -51 0 -16 -88 -12
-122 6 -38 20 -78 11 -78 -17 0 -32 79 -62 173 -63 74 -1 78 0 102 29 13 17
24 37 25 45 0 18 -54 55 -158 108 -44 22 -71 42 -70 51 2 8 26 20 53 28 63 18
83 36 65 57 -14 18 -82 20 -120 4z"/>
<path d="M3373 7809 c-58 -22 -37 -188 30 -232 41 -27 62 -21 110 32 l44 50
22 -40 c12 -21 28 -39 36 -39 7 0 20 -3 28 -6 30 -11 26 36 -8 94 -53 90 -64
102 -91 102 -20 0 -29 -9 -44 -42 -11 -24 -20 -51 -20 -60 0 -12 -8 -18 -23
-18 -34 0 -51 38 -44 99 7 56 -5 74 -40 60z"/>
<path d="M3791 7797 c-62 -32 -85 -120 -45 -174 30 -40 95 -83 121 -78 11 2
33 11 49 21 l27 18 -59 27 c-40 18 -65 36 -77 58 -18 31 -18 31 9 56 15 14 37
25 50 25 23 0 41 30 29 50 -9 14 -75 12 -104 -3z"/>
<path d="M4574 7799 c-11 -6 -28 -24 -38 -40 -26 -43 -7 -88 60 -147 60 -53
70 -78 27 -67 -58 14 -78 11 -81 -11 -5 -34 58 -68 110 -61 26 4 63 -1 102
-14 79 -24 126 -24 181 2 86 41 69 114 -47 203 -21 16 -38 32 -38 36 0 4 20
15 45 25 86 32 99 65 25 65 -54 0 -102 -19 -134 -53 -20 -20 -20 -21 1 -56 11
-20 43 -54 72 -75 39 -30 51 -45 51 -66 0 -25 -4 -28 -50 -34 -73 -10 -127 9
-135 46 -4 16 -31 52 -66 85 -75 71 -75 90 -1 117 38 13 52 23 50 35 -4 19
-100 26 -134 10z"/>
<path d="M4085 7791 c-3 -6 -14 -11 -23 -11 -29 -1 -62 -37 -76 -85 -12 -40
-12 -49 1 -76 31 -62 100 -80 173 -46 37 18 30 31 -21 43 -58 15 -89 31 -89
48 0 16 37 50 75 67 22 10 30 21 30 39 0 21 -5 26 -32 28 -17 2 -34 -2 -38 -7z"/>
<path d="M4272 7767 c-15 -15 -22 -36 -22 -61 0 -26 -6 -43 -21 -55 -20 -16
-20 -17 -2 -41 11 -14 25 -44 32 -68 9 -31 23 -51 53 -72 48 -35 67 -37 99
-10 24 20 24 20 5 35 -11 8 -26 15 -33 15 -18 0 -62 50 -63 71 0 15 9 19 109
47 13 4 30 16 37 27 12 18 11 25 -12 59 -26 38 -94 76 -138 76 -12 0 -32 -10
-44 -23z m82 -53 c30 -12 12 -44 -25 -44 -10 0 -12 33 -2 43 8 8 8 8 27 1z"/>
<path d="M11558 7473 c-36 -6 -52 -27 -44 -59 7 -25 10 -26 47 -20 42 7 119
-9 119 -24 0 -5 8 -11 18 -14 25 -9 72 -80 72 -110 0 -34 -15 -40 -53 -21 -17
9 -63 19 -102 22 -60 5 -75 2 -107 -17 -41 -24 -52 -46 -43 -83 13 -52 146
-71 241 -36 l56 21 39 -21 c21 -12 43 -19 49 -16 17 10 11 33 -12 50 -21 14
-23 24 -23 93 0 70 -3 81 -29 117 -72 96 -138 131 -228 118z m85 -294 c39 -11
47 -23 21 -33 -24 -9 -50 -7 -94 6 -59 19 -54 25 25 36 6 1 27 -3 48 -9z"/>
<path d="M13411 7416 c-16 -17 -19 -25 -9 -28 20 -7 16 -236 -6 -312 -16 -53
-16 -60 -2 -74 21 -22 41 -3 61 59 18 52 25 58 45 34 7 -8 18 -15 26 -15 7 0
48 -18 91 -40 43 -22 83 -40 90 -40 50 0 -13 69 -114 126 -75 42 -81 49 -49
66 13 7 56 43 95 80 64 61 83 93 65 111 -9 9 -48 -9 -77 -35 -14 -13 -53 -45
-86 -72 l-61 -47 0 90 c0 68 -4 93 -16 105 -21 21 -27 20 -53 -8z"/>
<path d="M11992 7423 c-30 -6 -92 -69 -92 -93 0 -10 -4 -21 -8 -24 -12 -7 -14
-89 -3 -120 6 -14 19 -29 28 -33 10 -4 20 -9 23 -13 10 -11 125 -30 150 -23
31 7 67 39 86 75 44 84 -31 225 -122 233 -22 2 -49 1 -62 -2z m111 -99 c53
-51 50 -111 -8 -141 -35 -18 -84 -23 -92 -10 -4 7 -17 17 -28 23 -53 29 -36
120 27 148 49 21 59 19 101 -20z"/>
<path d="M13067 7380 c-57 -11 -80 -26 -111 -76 -33 -52 -45 -141 -26 -198 9
-29 17 -36 37 -36 14 0 38 -11 55 -25 72 -61 250 -8 288 86 21 49 5 111 -43
165 -37 42 -125 96 -152 93 -5 -1 -27 -5 -48 -9z m83 -72 c38 -9 60 -21 85
-50 37 -40 43 -65 24 -101 -26 -47 -93 -77 -174 -77 -29 0 -38 5 -47 28 -7 15
-12 36 -12 47 -1 14 -8 20 -23 19 -54 -2 -7 109 57 135 33 13 31 13 90 -1z"/>
<path d="M12284 7341 c-65 -64 -90 -156 -59 -218 13 -27 18 -29 57 -26 24 2
74 5 112 6 68 2 68 2 99 45 40 55 41 97 3 146 -58 77 -159 99 -212 47z m161
-69 c35 -34 37 -59 7 -88 -15 -13 -41 -28 -59 -33 -38 -11 -112 5 -120 26 -8
20 26 91 51 109 29 20 93 12 121 -14z"/>
<path d="M2939 6594 c-14 -17 -14 -125 0 -255 l7 -67 -87 -4 c-75 -3 -90 -7
-117 -30 -17 -14 -36 -28 -43 -30 -20 -7 -1 -61 35 -100 77 -84 182 -71 363
46 1 1 4 13 8 29 7 26 5 27 -29 27 -21 0 -38 5 -40 13 -2 6 -10 35 -18 62 -9
28 -16 100 -17 165 -1 63 -5 125 -8 138 -6 26 -35 29 -54 6z m-9 -407 c43 -15
41 -28 -8 -45 -76 -27 -191 19 -119 48 31 12 85 11 127 -3z"/>
<path d="M3931 6527 c-13 -17 -30 -137 -26 -197 4 -76 -3 -90 -40 -90 -65 0
-144 -50 -145 -91 0 -16 42 -60 75 -77 54 -27 225 -5 225 30 0 7 14 -4 31 -25
41 -49 102 -84 166 -92 59 -8 93 0 93 21 0 15 -47 39 -132 69 -27 9 -48 20
-48 24 0 4 18 13 40 20 101 30 168 149 95 167 -14 3 -48 1 -77 -6 -44 -11 -64
-23 -117 -76 -35 -35 -66 -64 -67 -64 -1 0 -2 13 -2 29 1 17 -6 41 -15 55 -21
31 -24 137 -7 223 10 50 10 66 0 78 -15 19 -34 19 -49 2z m-16 -370 c24 -19
10 -24 -47 -19 -32 3 -48 9 -48 18 0 18 70 19 95 1z"/>
<path d="M1490 6492 c-30 -2 -60 -8 -67 -13 -6 -6 -34 -11 -62 -12 -53 -3
-101 -34 -101 -66 0 -18 -6 -23 -154 -108 -60 -35 -115 -63 -122 -63 -8 0 -14
-4 -14 -8 0 -5 -16 -16 -35 -25 -20 -9 -40 -28 -45 -41 -5 -13 -14 -27 -20
-31 -6 -4 -15 -17 -20 -30 -5 -12 -26 -48 -47 -80 -21 -32 -42 -65 -48 -74 -5
-9 -16 -20 -22 -24 -8 -5 -13 -32 -13 -72 0 -35 -5 -67 -10 -70 -6 -4 -7 -13
-1 -24 28 -51 30 -236 5 -311 -16 -45 -20 -207 -7 -258 3 -13 0 -48 -7 -77
-13 -52 -12 -55 14 -85 14 -17 26 -35 26 -40 0 -15 72 -51 90 -45 10 3 41 29
68 56 48 49 51 50 62 30 6 -12 16 -21 22 -21 6 0 31 -17 55 -37 25 -21 62 -49
83 -63 21 -14 66 -44 99 -68 34 -23 70 -42 81 -42 21 0 80 -28 133 -64 26 -18
63 -23 184 -27 27 -1 93 50 93 73 0 9 33 47 74 83 41 37 80 81 87 98 7 18 24
42 38 55 23 20 35 22 111 20 l85 -3 12 55 c14 65 17 198 9 485 -3 116 -6 242
-6 281 -1 54 -6 81 -25 119 -14 26 -25 58 -25 71 0 26 -99 224 -112 224 -6 0
-30 18 -54 39 -51 45 -99 69 -169 87 -107 27 -155 48 -161 71 -9 32 -23 38
-84 35z m13 -107 c-1 -11 4 -47 12 -80 13 -57 19 -125 16 -187 -1 -23 -6 -28
-25 -28 -15 0 -27 7 -30 18 -14 48 -30 277 -21 292 12 19 50 7 48 -15z m-112
-102 c0 -38 2 -94 3 -126 1 -36 -3 -62 -11 -68 -18 -16 -29 36 -14 68 9 19 9
29 0 39 -6 8 -9 24 -6 36 3 11 1 30 -4 40 -13 25 -2 78 17 78 11 0 14 -16 15
-67z m235 38 c16 -5 56 -15 89 -22 33 -7 69 -17 80 -23 19 -9 18 -11 -9 -16
-16 -3 -34 -13 -40 -23 -9 -16 -7 -22 12 -35 43 -29 126 -112 119 -119 -4 -3
-27 3 -51 15 -50 26 -82 28 -102 8 -19 -20 -18 -29 9 -54 42 -39 103 -54 195
-47 77 6 82 6 82 -13 0 -11 7 -36 16 -57 19 -46 35 -262 22 -289 -9 -17 4
-295 17 -379 6 -37 -13 -31 -37 11 -14 25 -15 38 -7 58 14 38 1 139 -27 202
-15 34 -23 71 -23 110 0 56 -11 128 -31 204 -9 31 -15 38 -36 38 -14 0 -38 6
-52 14 -53 29 -158 65 -208 71 -49 7 -51 8 -61 48 -10 36 -9 43 6 53 12 9 17
24 15 52 -3 58 -15 164 -20 185 -6 19 1 21 42 8z m-357 -51 c27 -14 27 -183 1
-220 -11 -15 -16 -36 -13 -51 3 -14 -1 -30 -9 -35 -27 -22 -207 -94 -232 -94
-43 0 -99 -28 -131 -65 l-30 -36 -33 34 c-33 34 -33 34 -14 58 11 13 23 35 27
49 4 14 15 35 23 48 17 26 42 24 118 -10 44 -19 116 -19 149 -1 14 8 85 108
85 119 0 4 -7 16 -16 25 -19 21 -36 15 -80 -26 -23 -22 -64 -34 -64 -20 0 2
23 28 50 57 54 57 68 84 51 101 -19 19 -12 27 42 52 61 29 54 27 76 15z m425
-439 c153 -62 144 -56 150 -103 3 -24 7 -81 10 -128 4 -82 4 -86 -19 -100 -13
-8 -48 -37 -79 -63 -47 -41 -62 -49 -108 -54 -48 -4 -57 -2 -95 25 -26 20 -44
42 -48 61 -6 30 -42 51 -89 51 -28 0 -83 33 -188 111 -126 93 -140 103 -163
110 -17 5 -13 9 25 28 25 13 55 33 68 44 20 18 41 22 175 29 83 5 166 13 182
18 42 13 97 4 179 -29z m-838 -82 c3 -6 2 -14 -4 -18 -6 -3 -10 -15 -9 -25 1
-10 -3 -21 -9 -23 -7 -2 -10 10 -8 34 1 21 2 39 3 41 3 6 21 1 27 -9z m179
-39 c-5 -16 7 -28 66 -67 40 -26 82 -55 94 -63 31 -21 74 -50 118 -77 38 -24
42 -30 29 -48 -46 -67 -253 -94 -310 -41 -51 46 -66 84 -68 181 -1 50 1 96 4
101 7 10 50 32 65 33 5 1 6 -8 2 -19z m-207 -150 c0 -41 -5 -63 -15 -72 -14
-11 -15 -7 -10 42 4 30 7 63 7 73 0 9 4 17 9 17 5 0 9 -27 9 -60z m635 -169
c14 -21 42 -48 61 -61 20 -12 36 -25 36 -28 0 -12 -103 -51 -153 -58 -69 -9
-93 -38 -63 -76 19 -26 67 -22 139 10 34 16 75 32 89 35 15 4 46 25 69 47 23
22 46 40 51 40 22 0 106 52 137 84 19 20 39 36 43 36 15 0 9 -97 -7 -110 -9
-7 -25 -34 -37 -59 -19 -43 -57 -94 -109 -148 -30 -32 -132 -63 -204 -63 -34
0 -76 -5 -93 -11 -31 -11 -140 2 -151 19 -3 4 -17 12 -31 18 -30 14 -130 102
-130 116 0 5 -11 24 -24 41 -13 18 -27 43 -31 55 -6 21 -5 23 13 13 37 -20
192 -6 200 18 2 6 23 20 46 32 23 11 58 36 77 54 19 18 37 33 40 34 4 1 18
-16 32 -38z m-648 -146 c3 -93 9 -178 12 -188 4 -14 0 -18 -14 -15 -12 2 -18
12 -18 29 0 14 -6 33 -12 41 -8 9 -13 43 -12 84 0 38 0 84 0 102 -1 19 6 43
14 55 8 12 15 32 15 46 0 13 2 22 4 20 2 -2 7 -80 11 -174z m166 -8 c15 -23
30 -52 33 -64 8 -26 152 -163 172 -163 7 0 17 -7 21 -15 5 -8 31 -23 59 -34
42 -15 60 -16 114 -8 36 5 97 10 135 11 122 4 240 44 277 94 23 30 79 64 95
58 14 -6 14 -8 -1 -24 -9 -10 -16 -22 -16 -26 0 -12 -108 -131 -143 -157 -30
-22 -39 -23 -147 -21 -106 3 -117 2 -134 -17 -17 -19 -28 -21 -88 -16 -65 5
-71 7 -155 71 -106 79 -213 175 -213 191 0 6 -15 20 -33 30 -30 18 -33 23 -29
64 6 83 15 87 53 26z"/>
<path d="M1460 5751 c-9 -17 -3 -24 43 -51 61 -36 77 -45 138 -82 44 -27 79
-35 92 -22 12 12 -7 34 -56 65 -29 18 -79 49 -113 71 -68 43 -89 47 -104 19z"/>
<path d="M1022 5608 c-7 -7 -12 -17 -12 -23 0 -17 148 -108 165 -101 30 11 14
42 -47 89 -64 49 -85 56 -106 35z"/>
<path d="M3156 6301 c-15 -17 -16 -27 -6 -82 17 -99 49 -153 85 -144 6 2 22 6
36 9 28 6 52 38 96 128 18 37 21 52 13 72 -20 52 -68 21 -100 -64 -12 -33 -24
-60 -27 -60 -10 0 -33 72 -33 103 0 54 -32 73 -64 38z"/>
<path d="M3479 6270 c-71 -52 -102 -94 -113 -149 -5 -29 -2 -39 21 -63 44 -46
93 -37 168 34 l29 27 38 -35 c21 -18 40 -34 43 -34 2 0 9 10 16 21 9 17 7 26
-9 49 -27 36 -52 97 -52 125 0 28 -36 75 -58 75 -9 -1 -47 -23 -83 -50z m44
-90 c-7 -27 -49 -70 -68 -70 -18 0 -15 7 22 58 27 36 54 44 46 12z"/>
<path d="M4535 6276 c-17 -7 -45 -29 -62 -50 -31 -34 -33 -35 -43 -16 -13 23
-42 26 -60 5 -12 -14 -8 -60 10 -100 5 -11 11 -32 14 -47 8 -36 34 -60 60 -56
17 2 22 12 27 48 7 55 30 109 55 131 11 10 41 24 69 34 53 17 66 30 58 52 -7
17 -88 17 -128 -1z"/>
<path d="M10123 6208 c-11 -13 -32 -54 -47 -93 -48 -121 -55 -135 -70 -135
-23 0 -39 -36 -27 -58 10 -20 -6 -54 -37 -79 -13 -10 -13 -17 -4 -38 20 -44
52 -30 85 38 l27 57 48 -4 c26 -2 63 -4 83 -5 32 -1 37 -5 45 -33 13 -45 49
-47 49 -3 0 17 8 36 18 43 24 18 21 29 -12 47 -16 8 -32 23 -34 32 -23 84 -72
230 -80 241 -13 17 -21 15 -44 -10z m34 -125 c37 -106 41 -124 28 -129 -7 -3
-23 0 -35 6 -12 6 -24 9 -27 6 -3 -3 -14 -1 -23 4 -17 9 -17 14 8 75 14 36 29
65 32 65 4 0 12 -12 17 -27z"/>
<path d="M11913 6163 c-8 -3 -10 -26 -6 -77 3 -41 3 -85 -1 -100 -7 -27 -11
-27 -74 1 -36 16 -72 10 -72 -12 0 -23 42 -55 85 -67 l40 -11 0 -66 c0 -64 1
-66 25 -66 23 0 25 4 30 57 3 31 7 59 10 62 3 2 30 7 60 11 53 6 80 18 68 31
-4 3 -30 11 -59 18 l-53 11 -2 85 c0 47 -2 90 -2 97 -2 15 -33 32 -49 26z"/>
<path d="M14506 6145 c-20 -15 -20 -33 0 -247 l6 -67 -51 6 c-61 7 -100 -7
-130 -48 -34 -46 -36 -81 -10 -134 13 -26 31 -50 39 -53 8 -3 23 -12 33 -21
38 -32 158 -10 210 40 8 8 24 22 36 31 22 18 29 48 11 48 -5 0 -39 -16 -76
-35 -83 -44 -131 -46 -173 -7 -48 43 -46 83 6 107 35 17 38 17 70 0 18 -10 40
-29 48 -41 17 -27 37 -31 53 -11 10 12 7 56 -14 177 -3 14 -9 77 -15 140 -6
63 -14 118 -18 122 -3 4 -14 0 -25 -7z"/>
<path d="M13785 6118 c-3 -13 -1 -79 3 -148 5 -69 7 -128 5 -132 -2 -5 -19 -8
-37 -8 -51 0 -103 -25 -110 -53 -8 -34 -51 -39 -101 -12 -52 27 -57 45 -11 43
37 -1 79 21 95 50 7 14 5 28 -7 53 -23 46 -78 61 -124 35 -23 -14 -43 -17 -85
-13 -30 3 -57 8 -60 10 -4 4 -10 71 -13 132 -1 26 -18 45 -40 45 -23 0 -32
-24 -20 -56 6 -14 10 -48 10 -75 l0 -49 -45 0 c-58 0 -62 -24 -6 -41 l38 -11
-5 -67 c-5 -71 1 -82 45 -95 22 -7 22 -5 19 41 -3 26 -2 60 1 75 4 23 10 27
49 30 44 3 44 3 44 -29 0 -65 36 -121 97 -150 26 -12 39 -13 67 -3 19 6 36 19
38 28 2 12 10 4 23 -23 25 -49 54 -65 123 -65 46 0 58 4 84 30 16 17 34 30 39
30 13 0 11 13 -5 35 -13 19 -15 18 -53 -8 -46 -31 -94 -29 -118 6 -13 19 -13
22 3 31 9 6 44 11 77 11 67 0 66 -3 46 85 -6 25 -10 95 -11 156 0 109 -7 134
-37 134 -7 0 -15 -10 -18 -22z m-217 -235 c2 -9 -8 -13 -35 -13 -36 1 -37 1
-18 16 22 17 46 15 53 -3z"/>
<path d="M12311 6112 c-52 -20 -162 -126 -192 -184 -48 -94 -13 -180 91 -225
44 -19 136 -4 182 29 14 10 20 10 30 -3 36 -45 63 -24 59 47 -3 53 13 114 40
149 20 24 26 26 65 20 51 -7 66 8 35 39 -16 15 -34 21 -67 21 -40 0 -50 -4
-75 -35 -16 -19 -29 -38 -29 -43 0 -4 -9 -27 -20 -49 -11 -23 -20 -52 -20 -64
0 -32 -20 -43 -87 -50 -80 -9 -125 7 -148 50 -16 30 -17 40 -7 74 13 42 108
142 136 142 9 0 16 5 16 10 0 6 12 10 26 10 38 0 64 18 64 44 0 16 -7 26 -22
30 -28 7 -24 8 -77 -12z"/>
<path d="M10682 6051 c-71 -52 -78 -143 -13 -205 42 -40 92 -49 141 -25 38 19
41 19 67 2 16 -10 34 -23 41 -30 23 -22 105 -16 143 10 43 29 56 64 41 114
-13 43 -63 83 -104 83 -32 0 -87 -37 -113 -77 -15 -23 -32 -33 -67 -41 -62
-15 -100 -2 -121 43 -16 33 -16 35 9 65 14 16 31 30 38 30 15 0 56 37 56 50 0
23 -77 10 -118 -19z m346 -127 c14 -4 22 -14 22 -29 0 -33 -23 -47 -72 -43
-49 3 -59 21 -31 55 18 23 40 28 81 17z"/>
<path d="M10465 6058 c-16 -6 -36 -17 -43 -25 -7 -7 -17 -13 -22 -13 -10 0
-48 -64 -56 -95 -8 -34 29 -91 75 -113 47 -24 130 -19 161 10 33 31 20 43 -46
43 -63 0 -97 14 -114 44 -12 23 17 64 61 86 37 20 57 54 38 66 -17 10 -16 10
-54 -3z"/>
<path d="M15381 6046 c-8 -9 -9 -28 -2 -62 6 -27 12 -88 15 -136 l5 -88 -48 0
c-37 0 -54 -6 -75 -25 -15 -14 -29 -25 -31 -25 -2 0 -13 16 -25 35 -18 29 -20
38 -10 50 10 13 9 19 -5 35 -24 27 -39 25 -119 -18 -58 -31 -74 -45 -94 -84
-28 -55 -22 -89 21 -122 27 -20 28 -20 64 -1 19 11 47 38 61 59 24 39 25 40
39 20 36 -54 73 -86 105 -90 18 -2 50 -6 71 -10 51 -8 113 20 126 59 7 18 7
27 0 27 -6 0 -8 12 -4 29 3 17 2 39 -4 49 -6 11 -13 62 -16 113 -9 139 -22
199 -44 199 -10 0 -24 -6 -30 -14z m-288 -341 c-17 -35 -38 -45 -46 -22 -5 15
31 57 50 57 10 0 9 -8 -4 -35z m316 -28 c38 -16 30 -27 -19 -27 -24 0 -43 7
-55 20 -18 20 -17 20 12 20 17 0 45 -6 62 -13z"/>
<path d="M11338 6013 c-14 -9 -36 -35 -49 -57 -25 -47 -48 -76 -61 -76 -4 0
-8 22 -8 49 0 56 -5 62 -38 50 -21 -8 -23 -14 -20 -75 3 -59 6 -69 29 -87 48
-35 92 -4 145 101 9 17 18 32 20 32 3 0 14 -21 25 -47 23 -55 46 -83 66 -83
25 0 6 70 -45 170 -21 41 -29 44 -64 23z"/>
<path d="M4961 6001 c-22 -17 -24 -24 -19 -77 3 -33 3 -74 0 -92 -4 -33 -5
-34 -41 -26 -20 5 -124 9 -231 10 -107 0 -372 2 -589 3 -217 1 -453 6 -525 12
-72 6 -224 12 -338 14 -114 2 -212 6 -217 9 -5 4 -54 13 -108 20 -54 8 -133
20 -176 27 -87 13 -120 5 -130 -30 -8 -31 32 -47 133 -54 83 -6 132 -14 235
-42 66 -18 149 -25 390 -31 283 -7 1011 -16 1265 -15 189 1 247 -4 318 -25 10
-3 10 -9 -2 -32 -22 -43 -32 -148 -15 -169 8 -9 14 -27 14 -41 0 -13 8 -29 17
-35 22 -14 48 0 129 70 34 30 81 66 103 80 23 14 64 43 91 64 28 20 62 42 77
48 34 13 49 59 24 73 -9 5 -16 18 -16 28 0 14 -14 26 -47 41 -118 52 -180 88
-233 137 -32 28 -64 52 -71 52 -8 0 -25 -9 -38 -19z"/>
<path d="M14000 5986 c-8 -16 -8 -30 -1 -49 12 -32 21 -33 51 -9 18 14 21 25
17 44 -9 35 -51 43 -67 14z"/>
<path d="M11605 5990 c-29 -11 -90 -89 -99 -125 -4 -16 -9 -39 -12 -51 -4 -16
0 -23 17 -27 29 -8 33 -3 49 48 17 53 47 95 69 95 30 0 91 -84 91 -124 0 -21
31 -49 42 -38 14 14 -28 146 -57 181 -29 34 -72 51 -100 41z"/>
<path d="M12705 5971 c-53 -22 -87 -113 -79 -206 6 -68 23 -92 68 -100 44 -8
150 25 154 49 6 30 -12 38 -51 21 -60 -25 -86 -20 -103 20 -18 44 -18 42 12
49 49 13 101 55 108 88 10 49 7 68 -9 68 -8 0 -15 5 -15 10 0 12 -56 12 -85 1z
m48 -58 c11 -10 -14 -33 -36 -33 -19 0 -20 1 -2 20 19 21 28 24 38 13z"/>
<path d="M13050 5961 c0 -6 -7 -11 -15 -11 -24 0 -129 -112 -141 -150 -24 -79
20 -129 84 -96 35 18 102 93 102 114 0 12 4 12 20 -3 11 -10 20 -23 20 -29 0
-17 61 -77 73 -73 7 3 11 10 9 16 -1 6 -3 20 -5 29 -1 10 -12 31 -24 47 -11
17 -28 46 -36 66 -8 20 -20 40 -26 43 -6 4 -11 16 -11 27 0 10 -4 19 -9 19 -5
0 -16 3 -25 6 -9 3 -16 1 -16 -5z m0 -90 c0 -6 -5 -13 -10 -16 -6 -4 -16 -21
-24 -39 -8 -19 -23 -36 -36 -39 -19 -5 -21 -3 -16 19 10 38 86 105 86 75z"/>
<path d="M14872 5828 c-23 -23 -42 -47 -42 -52 -1 -20 -40 -99 -46 -93 -4 3
-19 43 -34 89 -28 84 -46 102 -70 73 -11 -13 -7 -32 20 -118 37 -117 55 -143
95 -133 22 6 35 25 76 111 31 65 55 105 65 105 20 0 29 27 14 45 -19 23 -34
18 -78 -27z"/>
<path d="M15993 5799 c-18 -5 -45 -25 -60 -44 -16 -19 -35 -35 -44 -35 -8 0
-23 -6 -32 -12 -16 -12 -16 -18 0 -91 18 -77 18 -78 48 -75 29 3 30 5 35 59 4
40 13 66 32 91 24 31 34 36 85 42 80 10 90 14 96 37 4 15 -1 23 -19 30 -31 11
-98 10 -141 -2z"/>
<path d="M15627 5770 c-13 -11 -28 -31 -31 -45 -4 -14 -10 -25 -15 -25 -5 0
-17 -8 -26 -17 -16 -15 -16 -17 5 -33 12 -9 26 -36 31 -61 23 -101 143 -156
204 -94 36 35 32 45 -15 33 -51 -13 -102 9 -120 52 -17 41 -9 53 44 68 83 22
108 71 61 117 -31 32 -100 35 -138 5z"/>
<path d="M13967 5733 c-3 -5 -2 -26 2 -48 6 -33 10 -39 26 -37 26 5 35 20 35
60 0 29 -3 32 -29 32 -17 0 -32 -3 -34 -7z"/>
<path d="M10074 5552 c-6 -4 -17 -18 -24 -31 -21 -41 10 -56 142 -71 62 -6
118 -15 123 -20 13 -10 205 -42 330 -55 28 -3 57 -8 65 -10 8 -2 51 -7 95 -10
43 -4 82 -8 86 -10 12 -8 301 -35 310 -30 5 3 17 1 28 -5 11 -5 66 -10 123
-11 57 0 141 -5 188 -10 47 -5 218 -11 380 -14 162 -3 340 -9 395 -15 157 -15
289 -21 570 -25 258 -3 477 -10 650 -20 397 -22 672 -31 1185 -40 102 -2 271
-6 375 -10 105 -4 307 -8 450 -10 143 -1 289 -6 323 -10 l64 -8 -5 -31 c-7
-54 -29 -129 -49 -175 -16 -38 -17 -46 -5 -58 15 -16 28 -11 112 37 28 16 73
41 100 56 28 15 73 41 100 59 114 74 172 105 192 105 12 0 31 12 43 27 18 23
19 28 6 41 -11 12 -21 12 -47 3 -38 -13 -81 -14 -94 -3 -6 5 -29 14 -53 21
-30 8 -62 31 -110 78 -122 119 -156 136 -182 88 -11 -21 -12 -37 -2 -84 7 -31
12 -63 12 -69 0 -14 -55 -16 -131 -3 -30 5 -265 12 -524 16 -258 3 -524 8
-590 10 -66 2 -268 7 -448 9 -180 3 -331 7 -335 10 -4 2 -61 5 -127 7 -66 1
-131 6 -145 10 -14 4 -126 10 -250 13 -124 3 -250 9 -280 14 -31 4 -107 4
-170 0 -174 -11 -458 -4 -620 16 -84 9 -257 19 -410 22 -146 2 -281 6 -300 9
-19 2 -143 11 -275 20 -132 8 -271 22 -310 30 -38 8 -131 19 -205 25 -144 11
-203 20 -370 52 -58 12 -153 28 -212 37 -59 9 -110 20 -114 24 -9 9 -46 9 -60
-1z"/>
<path d="M2758 5328 c-131 -123 -178 -157 -214 -158 -28 0 -46 -23 -43 -52 2
-13 -1 -33 -5 -46 -8 -23 15 -62 36 -62 4 0 74 -45 155 -100 81 -55 157 -100
169 -100 26 0 36 30 24 68 -6 17 -4 54 3 97 l12 70 75 -5 c72 -4 163 -4 530 4
91 2 206 9 256 15 63 9 150 10 275 5 271 -10 748 -16 760 -8 7 4 86 6 411 13
37 1 57 36 34 60 -15 14 -72 16 -554 18 -295 2 -568 4 -607 5 -128 4 -649 -13
-735 -24 -97 -12 -406 -3 -426 13 -8 7 -9 21 -3 47 17 74 11 114 -22 150 -42
45 -74 43 -131 -10z"/>
<path d="M10580 5220 c-19 -4 -62 -15 -95 -24 -32 -9 -73 -16 -90 -16 -17 0
-35 -4 -40 -9 -13 -11 -119 -31 -167 -31 -64 0 -128 -20 -128 -40 0 -24 62
-78 155 -134 75 -46 141 -95 210 -158 17 -15 39 -34 50 -42 12 -9 19 -26 20
-46 0 -34 6 -40 64 -59 42 -13 66 4 76 53 12 63 28 132 41 182 l14 52 172 7
c95 4 227 4 293 0 66 -4 163 -8 215 -11 162 -7 262 -14 270 -19 4 -3 176 -7
381 -10 206 -3 406 -10 444 -15 39 -6 160 -17 270 -25 287 -22 320 -25 420
-35 50 -5 155 -14 235 -20 80 -6 192 -18 250 -26 147 -22 227 -33 363 -49 295
-37 356 -46 412 -60 69 -17 207 -34 344 -41 52 -3 98 -7 101 -9 4 -2 74 -6
156 -10 82 -3 172 -7 199 -10 246 -23 322 -25 885 -21 80 1 170 -1 200 -4 l55
-5 3 30 c6 59 1 60 -448 62 -223 1 -466 6 -540 12 -74 6 -214 16 -310 22 -235
14 -565 46 -620 59 -25 6 -94 17 -155 25 -133 18 -393 52 -455 59 -293 35
-405 46 -515 51 -71 4 -145 11 -163 17 -17 5 -56 10 -85 10 -28 0 -97 4 -152
9 -55 5 -156 14 -225 19 -69 6 -156 15 -195 20 -69 10 -532 23 -710 20 -50 0
-151 6 -225 14 -231 25 -378 30 -760 22 -69 -1 -75 0 -73 19 2 11 6 44 9 73 6
49 5 54 -15 59 -11 3 -21 11 -21 18 0 25 -48 31 -120 15z"/>
<path d="M4585 4930 c-3 -11 -4 -28 -1 -37 3 -10 8 -85 11 -168 3 -82 8 -160
12 -173 7 -28 38 -47 50 -30 8 14 5 368 -4 406 -7 30 -59 32 -68 2z"/>
<path d="M11030 4782 c-25 -8 -30 -25 -24 -72 3 -25 0 -74 -6 -110 -6 -36 -14
-80 -17 -98 -8 -50 7 -60 82 -54 l65 5 0 -40 c0 -22 -3 -43 -7 -47 -20 -20 -4
-86 21 -86 23 0 34 23 40 85 3 33 5 61 6 63 0 1 33 0 73 -3 83 -6 97 -1 90 38
-6 28 -14 31 -80 27 -65 -3 -70 3 -78 92 -9 105 -18 130 -48 126 -24 -3 -25
-11 -12 -110 11 -80 6 -89 -43 -76 l-40 10 5 122 c3 68 2 125 -3 128 -5 3 -16
3 -24 0z"/>
<path d="M3714 4760 c-48 -19 -92 -113 -79 -168 7 -32 41 -75 73 -91 18 -10
35 -9 78 0 54 12 95 41 120 84 9 16 15 17 25 8 10 -10 10 -15 0 -27 -10 -12
-10 -31 -2 -83 5 -37 7 -105 4 -149 -5 -75 -4 -83 14 -93 15 -7 25 -7 37 2 14
10 17 30 17 110 0 54 3 105 6 113 3 8 17 14 33 14 36 0 89 37 120 84 l25 38 8
-33 c26 -107 26 -107 71 -129 65 -31 107 -35 169 -15 43 13 56 22 60 41 2 12
-1 28 -6 33 -16 16 -53 13 -67 -4 -21 -25 -111 -9 -137 24 -25 32 -16 51 25
51 51 0 141 45 153 77 14 36 12 46 -19 82 -28 33 -29 34 -86 27 -67 -9 -118
-46 -136 -101 -13 -39 -34 -38 -48 3 -24 70 -101 120 -167 108 -18 -4 -52 -20
-75 -37 l-42 -31 -33 36 c-28 31 -39 36 -76 35 -24 0 -54 -4 -65 -9z m102 -88
c18 -36 3 -85 -29 -96 -22 -8 -31 -6 -52 14 -32 31 -32 63 2 90 33 26 64 23
79 -8z m268 -3 c31 -25 33 -42 5 -80 -24 -34 -74 -41 -83 -11 -9 30 -10 87 -2
100 11 18 50 14 80 -9z m282 -4 c-22 -17 -56 -20 -56 -6 0 12 19 19 50 20 24
0 24 0 6 -14z"/>
<path d="M3425 4748 c-11 -6 -30 -20 -42 -31 -20 -18 -26 -19 -47 -7 -55 29
-80 -16 -64 -115 9 -51 18 -74 43 -100 50 -55 93 -39 82 31 -4 24 1 54 14 90
17 44 25 54 43 54 20 0 27 -10 45 -63 11 -35 21 -74 21 -88 1 -29 43 -63 69
-54 26 8 34 35 17 54 -8 9 -20 39 -26 66 -14 62 -34 101 -73 143 -33 34 -50
38 -82 20z"/>
<path d="M11905 4657 c-50 -40 -100 -79 -111 -87 -60 -44 -72 -116 -25 -149
48 -34 84 -25 138 37 l33 37 1 -35 c0 -19 0 -67 -1 -105 -2 -94 11 -127 48
-123 20 2 28 9 30 27 2 13 -1 27 -6 30 -16 10 -19 355 -3 374 14 18 12 59 -4
64 -5 1 -51 -30 -100 -70z m-4 -108 c-22 -52 -74 -90 -94 -70 -8 8 -5 16 13
28 13 10 38 29 55 44 35 32 39 31 26 -2z"/>
<path d="M11484 4656 c-61 -27 -104 -123 -106 -235 -2 -120 11 -143 97 -169
46 -14 58 -12 103 14 62 35 81 54 106 108 30 64 28 131 -6 203 -36 75 -122
110 -194 79z m138 -89 c53 -66 41 -155 -26 -214 -71 -61 -112 -65 -123 -12 -3
15 -11 30 -19 33 -10 4 -14 24 -14 69 0 53 5 71 31 111 l30 48 52 -6 c36 -5
57 -14 69 -29z"/>
<path d="M12656 4608 c-40 -20 -73 -62 -116 -148 -48 -95 -48 -169 1 -238 20
-28 114 -42 154 -23 14 6 37 16 53 23 35 16 82 58 82 75 0 18 -14 16 -63 -7
-62 -31 -114 -40 -150 -28 -68 22 -75 76 -22 182 38 78 89 123 150 133 35 6
46 25 23 40 -22 13 -77 9 -112 -9z"/>
<path d="M13692 4583 c-5 -10 -12 -58 -16 -107 -3 -48 -11 -96 -16 -105 -6 -9
-10 -11 -10 -3 0 8 -23 12 -80 12 l-80 0 0 40 c0 55 26 104 48 94 9 -4 30 -8
47 -8 61 -2 27 53 -47 75 -27 7 -34 5 -63 -24 -28 -28 -33 -42 -39 -100 -8
-75 -18 -85 -65 -69 -22 8 -34 7 -48 -4 -17 -13 -17 -15 10 -39 17 -15 40 -25
59 -25 30 0 31 0 24 -42 -12 -72 -12 -80 5 -91 31 -20 48 -1 55 62 6 60 7 61
43 66 20 4 58 11 84 17 53 11 59 9 57 -18 -6 -110 6 -164 36 -164 18 0 33 52
21 72 -8 11 -7 49 1 125 25 237 26 253 3 253 -11 0 -24 -8 -29 -17z"/>
<path d="M14338 4495 c-3 -3 -3 -46 0 -96 l5 -90 -29 6 c-16 4 -35 9 -43 11
-16 5 -51 -23 -51 -42 0 -18 25 -30 78 -39 l43 -7 -8 -46 c-13 -85 -10 -107
14 -110 27 -4 38 17 48 86 8 59 25 75 78 71 55 -3 67 0 67 20 0 14 -9 21 -30
25 -16 3 -43 9 -60 12 -38 7 -40 11 -51 97 -5 39 -12 79 -15 89 -5 17 -34 25
-46 13z"/>
<path d="M4606 4424 c-8 -31 -1 -40 35 -49 36 -9 56 16 41 50 -17 36 -67 35
-76 -1z"/>
<path d="M12900 4379 c-22 -23 -40 -48 -40 -55 0 -8 -6 -23 -12 -34 -11 -17
-10 -25 3 -48 14 -25 20 -27 70 -24 102 5 159 38 159 92 0 65 -45 110 -110
110 -22 0 -40 -11 -70 -41z m118 -41 c7 -7 12 -20 12 -29 0 -31 -107 -52 -117
-23 -2 6 6 23 17 37 23 29 67 36 88 15z"/>
<path d="M13847 4395 c-26 -19 -14 -57 16 -53 26 4 33 27 15 50 -11 15 -15 15
-31 3z"/>
<path d="M13147 4358 c-13 -18 -29 -52 -36 -76 -11 -40 -11 -44 11 -62 30 -24
45 -11 54 47 7 49 21 60 54 43 22 -12 40 -47 44 -88 3 -25 21 -42 45 -42 18 0
10 72 -13 122 -44 92 -114 116 -159 56z"/>
<path d="M14074 4311 c-44 -31 -94 -109 -94 -146 0 -12 11 -32 25 -45 22 -20
35 -24 84 -23 71 2 136 30 136 58 0 21 -24 24 -90 10 -40 -9 -85 9 -85 33 0
28 63 88 100 95 23 5 31 12 28 24 -6 31 -58 28 -104 -6z"/>
<path d="M13867 4269 c-9 -6 -17 -18 -17 -28 0 -10 -7 -33 -16 -51 -18 -36
-11 -62 19 -68 19 -4 29 15 50 85 15 49 15 54 -1 62 -11 6 -24 6 -35 0z"/>
<path d="M18515 4260 c-6 -10 2 -747 9 -759 6 -10 16 -173 21 -336 6 -215 16
-336 28 -365 3 -8 8 -77 11 -152 2 -75 7 -141 10 -146 8 -13 55 -476 60 -595
4 -93 3 -97 -17 -102 -40 -8 -111 -15 -207 -21 -52 -3 -102 -8 -110 -11 -8 -3
-53 -7 -100 -9 -74 -3 -249 -18 -360 -31 -19 -2 -143 -6 -275 -8 -132 -2 -283
-7 -335 -9 -52 -3 -147 -8 -210 -12 -197 -11 -500 -12 -620 -3 -63 4 -196 11
-295 14 -99 2 -225 8 -280 12 -123 9 -780 7 -970 -3 -276 -15 -478 -8 -1080
36 -71 5 -159 10 -195 11 -36 1 -128 10 -205 20 -103 13 -187 17 -320 15 -282
-5 -420 -13 -442 -25 -12 -6 -82 -12 -156 -14 -74 -3 -141 -8 -148 -13 -8 -5
-54 -9 -104 -11 -298 -6 -447 -13 -457 -19 -19 -12 -479 -14 -517 -2 -18 6
-29 13 -24 17 5 3 28 45 50 94 l42 87 65 0 c64 0 64 0 71 -31 4 -17 4 -50 1
-73 -8 -49 9 -72 44 -61 24 8 29 45 14 122 l-6 33 31 -16 c53 -27 94 -28 121
-5 24 21 25 21 6 36 -11 8 -34 15 -52 15 -18 0 -36 4 -39 10 -11 17 16 51 51
66 42 17 53 40 31 61 -14 14 -22 15 -57 4 -33 -10 -45 -21 -70 -64 -20 -35
-30 -45 -30 -32 0 12 -4 25 -10 31 -5 5 -19 57 -29 114 -22 118 -32 150 -54
168 -28 24 -45 3 -65 -81 -55 -222 -52 -217 -87 -217 -28 0 -39 -24 -19 -41
19 -16 13 -45 -29 -126 -30 -59 -31 -62 -14 -81 18 -20 17 -20 -75 -26 -51 -3
-100 -5 -108 -5 -23 1 -168 -10 -227 -17 l-53 -6 0 44 c0 25 -7 67 -15 94 -20
65 -19 68 10 84 14 7 25 22 25 33 0 17 -5 19 -36 14 -20 -4 -47 -15 -59 -27
-12 -11 -27 -20 -33 -20 -7 0 -29 -16 -51 -35 -21 -19 -42 -35 -47 -35 -4 0
-17 -8 -28 -19 -19 -16 -46 -31 -158 -86 -43 -21 -66 -66 -42 -86 8 -6 14 -18
14 -25 0 -8 5 -14 11 -14 7 0 42 -30 79 -68 37 -37 84 -78 105 -92 21 -14 47
-34 59 -46 16 -16 30 -20 58 -16 32 3 37 1 40 -20 2 -17 10 -24 31 -26 17 -2
27 2 28 10 1 7 2 27 3 43 1 17 6 71 10 122 l8 91 59 7 c32 4 64 3 71 -1 16
-10 68 -6 84 7 8 6 51 8 116 4 175 -11 478 -12 572 -3 79 7 214 13 491 23 94
3 216 14 250 23 11 2 65 6 120 7 55 2 125 10 155 18 102 28 541 28 755 0 22
-2 113 -6 203 -8 89 -2 213 -9 275 -14 144 -14 216 -19 407 -26 85 -3 180 -11
210 -17 60 -13 153 -12 244 2 32 5 63 7 67 4 10 -6 95 -5 159 1 40 4 552 17
700 18 30 0 143 -5 250 -11 475 -28 892 -34 1245 -20 94 4 258 9 365 12 107 3
249 11 315 17 66 7 129 11 140 11 11 -1 45 3 75 8 30 5 117 12 193 15 197 8
429 39 454 60 17 15 19 23 11 78 -5 34 -7 76 -4 94 2 17 1 34 -2 38 -4 4 -8
19 -9 33 -3 42 -10 110 -22 197 -6 44 -11 103 -12 130 0 28 -7 82 -14 120 -8
39 -16 115 -19 170 -3 55 -12 159 -20 231 -9 72 -18 207 -22 300 -3 93 -7 192
-9 219 -10 158 -25 552 -26 690 0 88 -4 171 -8 185 -7 26 -35 38 -46 20z
m-7094 -2217 l3 -48 -37 -3 c-20 -2 -37 1 -37 7 0 14 31 134 37 145 9 15 31
-50 34 -101z"/>
<path d="M5880 2669 c-182 -5 -225 -10 -283 -28 -90 -29 -97 -42 -91 -156 6
-113 6 -224 -1 -390 -3 -71 -8 -258 -10 -415 -3 -157 -7 -331 -10 -388 -2 -57
0 -127 6 -155 6 -29 13 -160 15 -292 5 -229 13 -295 37 -295 6 0 0 -11 -13
-25 -21 -23 -22 -26 -7 -48 14 -22 24 -24 124 -30 59 -4 160 -15 223 -26 90
-14 150 -18 275 -14 339 8 613 15 690 16 44 1 439 -2 877 -6 515 -4 799 -3
803 3 4 6 13 7 23 1 9 -5 46 -7 82 -6 36 1 146 4 245 5 99 2 286 11 415 21
262 20 434 28 590 28 125 0 133 -1 154 -19 15 -11 21 -10 44 7 26 20 27 25 24
93 -1 40 2 78 7 84 14 17 15 186 2 275 -7 41 -11 134 -11 205 1 72 -3 154 -9
181 -10 50 -7 578 4 595 3 4 -3 57 -14 117 -15 92 -17 130 -9 263 5 85 13 184
18 220 6 41 5 68 -1 76 -7 9 -44 11 -127 8 -149 -6 -375 -8 -567 -5 -82 1
-220 -1 -305 -5 -85 -4 -290 -6 -455 -5 -279 1 -359 6 -680 41 -49 5 -144 12
-210 16 -66 3 -147 9 -180 13 -33 5 -93 9 -134 10 -41 1 -79 5 -85 8 -29 18
-533 29 -951 21 -71 -2 -166 0 -210 2 -44 3 -177 3 -295 -1z m1075 -83 c138
-3 270 -11 295 -17 25 -5 88 -12 140 -14 52 -2 103 -6 112 -10 9 -4 19 -23 23
-45 6 -38 -1 -336 -9 -349 -2 -3 0 -26 4 -51 8 -40 17 -136 36 -365 3 -38 8
-332 10 -651 l5 -581 -458 -2 c-1257 -6 -1222 -6 -1318 12 -49 9 -119 21 -155
25 l-65 7 -3 246 c-1 135 -8 304 -15 375 -10 103 -10 150 0 234 7 58 12 188
11 290 -2 248 -2 228 8 375 5 72 7 202 6 289 -2 102 1 169 8 187 20 47 89 53
515 47 203 -3 415 -3 470 1 55 3 107 5 115 4 8 -1 128 -4 265 -7z m966 -66
c20 -6 42 -17 49 -25 7 -9 15 -93 21 -232 9 -215 7 -306 -11 -513 -5 -58 -7
-229 -5 -380 9 -537 6 -853 -7 -861 -7 -4 -81 -7 -166 -6 l-153 2 -5 70 c-2
39 -5 176 -5 305 -1 359 -2 579 -1 640 0 30 -4 93 -9 140 -4 47 -11 123 -13
170 -3 47 -9 121 -13 165 -7 71 -8 264 -3 474 l2 74 142 -6 c77 -4 157 -11
177 -17z m324 -25 c50 -8 125 -15 168 -15 l77 0 -7 -57 c-4 -32 -6 -69 -5 -83
4 -36 1 -674 -3 -740 -2 -30 3 -127 11 -215 50 -535 56 -867 16 -879 -31 -10
-432 -10 -442 0 -13 13 -23 1203 -11 1274 15 85 26 367 17 416 -2 11 -7 86
-11 167 l-8 147 54 0 c30 0 95 -7 144 -15z m1739 8 l38 -5 -8 -122 c-5 -66 -8
-177 -6 -246 4 -201 6 -493 4 -660 -3 -240 6 -536 18 -632 7 -48 8 -93 4 -99
-4 -6 -6 -46 -5 -88 1 -42 -1 -85 -5 -94 -6 -16 -7 -16 -18 -2 -9 13 -17 14
-39 6 -16 -6 -63 -11 -105 -10 -42 0 -114 -2 -159 -5 -95 -5 -91 -11 -99 127
-2 45 -10 161 -18 257 -7 96 -13 184 -14 195 -4 133 -21 416 -26 423 -3 5 -8
148 -10 318 -3 170 -10 356 -16 414 -6 58 -14 128 -16 156 l-5 52 143 1 c79 1
161 6 183 10 46 10 103 12 159 4z m-553 -53 c4 -25 14 -97 23 -160 10 -76 17
-225 21 -438 3 -178 7 -328 10 -333 3 -4 8 -63 11 -131 2 -68 7 -159 9 -203 3
-44 10 -152 15 -240 5 -88 11 -167 14 -175 3 -8 7 -63 9 -122 4 -89 2 -108
-11 -113 -8 -3 -111 -10 -229 -16 -159 -8 -217 -8 -227 0 -11 9 -13 34 -11 99
4 85 -4 161 -25 252 -6 25 -13 117 -15 206 -2 89 -6 185 -9 215 -36 396 -48
752 -37 1101 4 115 -26 103 251 103 l195 0 6 -45z m-514 0 c3 -13 1 -77 -6
-141 -7 -66 -9 -166 -6 -230 3 -63 8 -190 10 -284 2 -93 7 -188 10 -210 16
-127 33 -344 33 -421 1 -155 12 -286 29 -343 16 -56 23 -295 8 -309 -11 -11
-379 -14 -395 -3 -11 7 -13 26 -10 78 6 87 4 285 -4 388 -10 140 -27 318 -36
395 -5 41 -7 134 -5 205 2 72 4 212 5 312 1 101 6 185 11 189 5 3 7 9 4 13 -2
5 -7 73 -11 152 -3 79 -6 146 -6 149 0 3 0 23 1 46 l1 41 180 -1 181 -1 6 -25z"/>
<path d="M6019 2315 c-3 -2 -47 -5 -97 -7 -110 -3 -128 -14 -111 -69 12 -38
13 -189 4 -324 -6 -77 -5 -93 9 -104 24 -20 245 -29 257 -10 24 39 12 46 -88
53 -54 4 -103 12 -110 17 -11 10 -10 28 3 117 l5 33 82 -2 82 -2 0 34 0 34
-68 1 c-84 2 -96 12 -99 83 -3 52 -2 55 27 63 17 5 62 9 101 9 65 0 72 2 82
23 9 20 7 27 -7 40 -16 15 -62 22 -72 11z"/>
<path d="M7155 2240 c-5 -14 0 -26 15 -38 15 -12 24 -33 27 -64 l5 -47 -36 -7
c-21 -3 -63 -4 -95 0 -48 6 -60 4 -74 -12 -11 -11 -32 -18 -64 -20 -40 -1 -53
-7 -79 -35 -17 -19 -33 -40 -36 -48 -4 -11 -9 -11 -26 4 -11 11 -26 16 -31 12
-7 -4 -11 5 -11 24 0 46 -35 65 -110 58 -107 -9 -163 -56 -176 -145 -5 -40 -5
-40 58 -85 81 -58 132 -76 178 -64 37 9 50 22 50 49 0 22 -34 32 -58 17 -23
-14 -69 1 -97 31 -15 17 -14 18 21 24 20 4 54 18 75 32 21 13 40 24 42 24 3 0
12 -24 21 -54 9 -29 28 -63 40 -75 21 -20 25 -20 38 -7 8 8 18 35 21 61 15
107 75 140 120 68 13 -21 29 -60 36 -88 15 -59 36 -95 57 -95 22 0 34 41 19
70 -7 14 -20 52 -29 84 -10 32 -24 68 -31 80 -14 21 -13 21 78 21 86 0 92 -1
90 -20 -6 -50 -5 -164 2 -174 7 -12 42 -15 48 -3 3 4 8 48 12 97 3 50 10 94
15 99 4 4 38 11 74 13 70 6 102 26 90 57 -5 14 -19 17 -80 15 -41 -1 -77 0
-79 3 -3 2 -9 26 -14 53 -11 59 -40 99 -74 103 -18 2 -27 -2 -32 -18z m-501
-239 c8 -13 -33 -37 -76 -44 -43 -7 -48 1 -15 23 39 26 82 36 91 21z"/>
<path d="M6384 2080 c-11 -4 -27 -22 -34 -39 -7 -17 -16 -31 -20 -31 -5 0 -11
-27 -15 -60 -4 -33 -11 -63 -17 -66 -14 -9 -37 17 -74 79 -19 33 -38 53 -52
55 -28 4 -38 -21 -23 -56 23 -50 95 -152 112 -157 49 -16 90 34 123 148 9 31
21 57 27 57 13 0 30 46 23 65 -7 17 -19 18 -50 5z"/>
<path d="M5987 1432 c-15 -16 -15 -22 -1 -62 16 -47 14 -178 -5 -254 -7 -30
-6 -48 5 -74 14 -34 15 -34 61 -28 27 4 62 11 78 16 17 5 76 11 133 15 100 6
104 6 137 -19 38 -29 99 -34 167 -14 68 20 93 81 69 167 -9 34 -72 82 -109 83
-49 2 -162 -77 -162 -113 0 -26 -18 -33 -80 -31 -30 1 -93 -3 -138 -10 -98
-14 -102 -11 -91 65 4 28 5 90 2 137 -6 118 -30 162 -66 122z m587 -275 c19
-26 19 -30 6 -55 -9 -15 -29 -30 -49 -36 -44 -12 -65 12 -57 64 10 64 62 78
100 27z"/>
<path d="M6870 1241 c-19 -11 -46 -25 -60 -31 -36 -16 -77 -57 -91 -92 -10
-25 -9 -36 11 -78 24 -52 51 -70 104 -70 41 0 120 49 146 92 l19 32 21 -48
c24 -57 52 -184 53 -243 0 -56 -21 -85 -79 -105 -81 -29 -139 -33 -184 -13
-22 10 -40 22 -40 27 0 30 -56 50 -66 24 -15 -40 67 -118 138 -131 50 -9 193
20 229 48 62 45 79 121 55 247 -25 131 -107 330 -137 330 -9 0 -22 7 -29 15
-17 20 -48 19 -90 -4z m82 -78 c-13 -68 -63 -113 -126 -113 -46 0 -61 45 -24
70 32 21 131 69 144 69 7 1 9 -10 6 -26z"/>
<path d="M15658 2445 c-8 -18 -8 -49 2 -122 7 -54 13 -115 14 -137 l1 -39 -62
-2 c-94 -4 -158 -44 -177 -111 -10 -33 32 -86 94 -117 50 -25 63 -27 133 -23
64 3 83 8 103 27 22 20 22 24 9 39 -8 9 -15 28 -14 41 2 31 -10 132 -21 184
-8 37 -16 114 -24 221 -2 23 -6 46 -10 53 -12 19 -36 12 -48 -14z m14 -377
c10 -8 18 -32 20 -60 3 -45 2 -47 -27 -51 -58 -9 -165 36 -165 68 0 39 134 72
172 43z"/>
<path d="M16612 2378 c-16 -16 -15 -120 3 -213 16 -83 13 -99 -16 -92 -10 3
-39 0 -64 -5 -34 -7 -49 -16 -57 -34 -14 -31 -22 -30 -44 4 -9 15 -25 33 -33
40 -14 11 -14 13 2 23 20 12 22 42 3 58 -10 9 -28 7 -75 -8 -82 -25 -126 -57
-152 -108 -19 -36 -20 -46 -10 -71 29 -69 135 -69 175 -1 22 36 30 36 58 -1
20 -28 68 -43 68 -21 0 5 17 -8 38 -29 30 -30 47 -39 89 -45 70 -9 112 1 126
32 15 33 -4 44 -59 36 -48 -6 -110 11 -118 34 -9 23 0 28 55 27 30 0 55 -7 67
-17 47 -43 75 -1 43 62 -22 42 -38 126 -48 246 -7 87 -22 112 -51 83z m-294
-315 c-9 -10 -19 -28 -22 -41 -12 -37 -66 -54 -66 -20 0 16 69 78 87 78 15 0
15 -2 1 -17z"/>
<path d="M14813 2369 c-25 -9 -27 -21 -14 -82 5 -23 14 -67 20 -97 5 -30 13
-69 16 -87 l6 -32 -60 2 c-51 1 -64 -2 -86 -23 -67 -63 16 -217 128 -234 60
-9 120 17 111 48 -10 33 -24 43 -34 26 -11 -18 -102 -18 -109 1 -2 6 -12 20
-23 31 -10 10 -23 31 -29 46 -8 21 -7 29 7 39 30 22 63 15 101 -22 41 -40 48
-42 57 -18 9 22 -17 198 -43 298 -6 22 -11 54 -11 72 0 38 -7 44 -37 32z"/>
<path d="M14179 2344 c-10 -12 -10 -25 -1 -62 6 -26 12 -67 14 -92 l3 -45 -50
0 c-39 0 -50 -4 -53 -17 -2 -12 8 -23 35 -34 21 -9 45 -20 53 -24 11 -5 16
-29 18 -93 2 -73 6 -88 22 -97 36 -19 48 9 43 99 l-5 81 51 0 c56 0 62 5 50
38 -7 18 -16 22 -49 22 -49 0 -54 10 -64 129 -4 47 -12 91 -18 98 -14 17 -33
16 -49 -3z"/>
<path d="M13109 2336 c-46 -16 -114 -71 -140 -112 -31 -51 -43 -57 -82 -43
-32 11 -35 16 -40 62 -10 80 -50 120 -85 85 -9 -9 -8 -16 4 -29 9 -10 18 -35
21 -57 l5 -39 -50 5 c-31 3 -52 0 -56 -7 -9 -14 28 -46 72 -63 35 -13 34 -10
32 -135 -1 -63 1 -73 20 -83 11 -6 24 -9 29 -6 5 3 12 51 16 107 7 96 8 100
29 95 11 -3 24 -6 29 -6 4 0 7 -16 7 -35 0 -39 46 -93 102 -119 41 -20 196
-37 221 -24 30 15 21 47 -15 52 -159 23 -221 41 -240 70 -17 25 -6 74 27 128
50 80 102 107 180 96 14 -2 21 4 23 20 7 49 -36 64 -109 38z"/>
<path d="M13405 2176 c-16 -7 -44 -29 -61 -47 -17 -19 -39 -39 -49 -45 -35
-20 -10 -140 34 -164 19 -9 22 -7 32 16 5 15 7 34 4 42 -6 15 8 69 27 109 6
12 23 27 39 33 32 14 44 37 28 56 -14 17 -16 17 -54 0z"/>
<path d="M17360 2180 c-19 -4 -47 -12 -62 -18 -32 -13 -118 -125 -118 -153 0
-31 -19 -22 -34 16 -16 38 -44 46 -66 20 -11 -13 -10 -22 3 -48 8 -17 26 -58
39 -90 39 -100 90 -102 103 -4 13 106 94 217 159 217 35 0 49 15 42 44 -7 27
-10 28 -66 16z"/>
<path d="M15051 2171 c-17 -11 -7 -56 15 -65 27 -10 56 12 52 42 -2 20 -9 28
-28 30 -14 1 -31 -2 -39 -7z"/>
<path d="M13539 2130 c-43 -45 -52 -86 -29 -138 21 -48 56 -66 153 -81 39 -6
50 -4 64 11 27 30 6 54 -45 50 -25 -2 -54 4 -74 14 l-33 18 63 11 c69 13 82
24 82 71 0 42 -30 66 -93 75 -51 6 -53 5 -88 -31z m107 -31 c10 -17 -9 -28
-39 -22 -22 4 -25 8 -16 19 14 17 45 18 55 3z"/>
<path d="M14444 2141 c-34 -21 -69 -70 -79 -113 -16 -63 40 -144 113 -166 68
-21 152 -12 152 14 0 8 5 14 12 14 8 0 6 6 -5 17 -14 14 -22 15 -52 6 -29 -9
-45 -8 -79 4 -49 18 -80 53 -47 53 10 0 41 7 68 16 62 20 99 67 84 107 -21 56
-113 82 -167 48z m95 -50 c21 -13 5 -41 -23 -41 -13 0 -26 -5 -28 -12 -3 -7
-14 -9 -31 -4 l-28 7 21 29 c22 31 60 39 89 21z"/>
<path d="M16008 2138 c-8 -13 -20 -42 -26 -65 -22 -74 -47 -67 -77 22 -16 46
-23 55 -42 55 -13 0 -26 -7 -30 -16 -10 -27 38 -145 81 -198 21 -25 26 -27 45
-16 38 20 60 47 71 92 7 24 19 58 27 76 14 30 14 34 -2 52 -23 25 -30 25 -47
-2z"/>
<path d="M16839 2133 c-14 -16 -31 -48 -38 -72 -7 -24 -22 -52 -33 -61 -20
-16 -20 -16 12 -83 37 -79 63 -99 135 -105 44 -4 60 0 98 22 64 38 74 52 47
66 -17 9 -29 8 -58 -7 -47 -24 -114 -15 -142 19 -10 13 -16 26 -14 29 2 3 24
9 50 13 74 10 129 39 144 76 19 47 4 79 -50 106 -64 33 -119 32 -151 -3z m118
-61 c13 -8 21 -18 18 -22 -6 -10 -114 -34 -121 -27 -2 2 3 20 11 41 14 32 18
36 43 30 15 -4 37 -14 49 -22z"/>
<path d="M13945 2125 c-22 -14 -56 -30 -75 -36 -48 -16 -79 -42 -102 -85 -18
-33 -18 -38 -3 -60 32 -50 95 -44 152 14 l38 39 20 -25 c66 -80 79 -92 101
-92 20 0 24 5 24 30 0 18 -7 33 -19 39 -20 11 -91 105 -91 121 0 6 7 10 16 10
11 0 14 8 12 32 -4 42 -22 45 -73 13z m-70 -125 c-21 -23 -47 -27 -39 -6 5 14
46 37 53 30 2 -2 -4 -13 -14 -24z"/>
<path d="M12568 2112 c-9 -2 -28 -21 -42 -43 -15 -21 -31 -39 -38 -39 -6 0
-19 -7 -29 -16 -17 -15 -18 -15 -24 9 -4 14 -18 35 -31 48 -20 19 -27 21 -49
11 -15 -7 -33 -30 -44 -56 -11 -24 -24 -47 -29 -50 -13 -8 -27 30 -23 62 2 16
-3 22 -17 22 -35 0 -52 -11 -52 -35 0 -23 -1 -23 -51 11 -28 19 -64 34 -79 34
-72 0 -117 -45 -106 -105 8 -40 31 -55 117 -78 63 -16 108 -5 128 31 10 20 11
20 52 -1 50 -25 66 -18 94 41 11 23 22 42 25 42 3 0 13 -14 22 -30 14 -24 24
-30 53 -30 19 0 35 -4 35 -10 0 -16 49 -23 65 -10 8 7 15 25 15 40 0 52 20 90
47 90 20 0 29 -11 58 -74 35 -77 52 -93 81 -72 16 12 16 15 1 42 -8 16 -28 55
-44 87 -35 73 -68 92 -135 79z m-447 -132 c33 -18 23 -40 -19 -40 -40 0 -82
23 -82 45 0 26 46 24 101 -5z"/>
<path d="M11793 2085 c-47 -29 -103 -111 -103 -153 0 -30 34 -62 79 -74 35
-10 90 7 124 37 24 21 27 28 17 41 -11 13 -16 13 -38 -2 -24 -16 -94 -15 -110
1 -13 12 34 80 65 95 35 16 45 38 31 64 -12 21 -15 20 -65 -9z"/>
<path d="M15066 2003 c-23 -31 -12 -56 26 -61 19 -2 27 2 32 20 8 32 8 35 -10
52 -21 21 -26 20 -48 -11z"/>
</g>
</svg>
