<?xml version="1.0" standalone="no"?>
<!DOCTYPE svg PUBLIC "-//W3C//DTD SVG 20010904//EN"
 "http://www.w3.org/TR/2001/REC-SVG-20010904/DTD/svg10.dtd">
<svg version="1.0" xmlns="http://www.w3.org/2000/svg"
 width="517.044359pt" height="400.000000pt" viewBox="0 0 517.044359 400.000000"
 preserveAspectRatio="xMidYMid meet">
<metadata>
Created by potrace 1.15, written by Peter Selinger 2001-2017
</metadata>
<g transform="translate(-9.299799,400.781741) scale(0.037390,-0.037390)"
fill="#444444" stroke="none">
<path d="M7930 10698 c-16 -18 -20 -32 -16 -58 23 -167 46 -402 41 -430 -7
-44 -7 -47 -1 -148 4 -71 8 -86 28 -102 23 -19 23 -19 44 4 18 21 22 40 26
152 6 134 16 171 50 193 60 37 134 -115 137 -283 2 -70 5 -76 35 -76 42 0 49
21 44 132 -4 95 -7 109 -44 188 -61 128 -132 179 -190 135 -40 -30 -52 -20
-57 48 -9 131 -28 242 -45 255 -22 17 -28 15 -52 -10z"/>
<path d="M6370 10675 c-21 -22 -22 -30 -16 -97 7 -72 29 -214 42 -262 3 -14 7
-47 8 -73 6 -109 28 -219 53 -265 30 -55 46 -60 67 -20 11 23 11 34 0 72 -7
25 -18 90 -24 145 -6 55 -16 115 -21 134 -6 18 -13 61 -15 95 -3 33 -7 68 -10
76 -3 8 -7 55 -10 105 -3 49 -7 96 -9 103 -7 20 -40 14 -65 -13z"/>
<path d="M4864 10670 c-59 -28 -70 -44 -54 -78 7 -15 14 -50 16 -78 2 -27 7
-61 12 -75 5 -13 10 -57 11 -97 1 -40 6 -84 11 -98 16 -40 12 -155 -5 -174
-44 -49 -4 -98 92 -111 52 -7 63 -5 117 22 34 16 66 29 72 29 23 0 141 135
159 182 25 68 17 178 -19 251 -36 74 -125 159 -211 202 -88 44 -146 51 -201
25z m144 -112 c53 -12 89 -34 145 -87 50 -47 65 -77 81 -162 l14 -69 -51 -56
c-28 -30 -67 -64 -86 -74 -20 -9 -54 -27 -76 -39 -79 -42 -81 -39 -90 169 -4
74 -10 151 -15 170 -4 19 -11 58 -14 86 -6 46 -4 52 16 62 13 6 24 11 26 11 2
1 24 -4 50 -11z"/>
<path d="M9774 10659 c-21 -18 -40 -34 -42 -35 -2 -1 4 -14 13 -28 16 -24 21
-25 103 -23 136 3 188 -29 225 -137 14 -40 15 -56 5 -88 -17 -58 -27 -62 -107
-44 -39 9 -88 16 -110 16 -43 0 -131 -36 -167 -68 -30 -26 -39 -74 -20 -109
20 -41 37 -53 93 -67 79 -20 160 2 259 69 20 14 45 25 54 25 25 0 87 -72 99
-115 11 -40 37 -75 56 -75 16 0 45 33 45 52 0 34 -63 148 -105 191 -39 39 -44
49 -36 69 19 52 16 151 -7 202 -12 27 -22 51 -22 55 0 14 -73 81 -113 105 -29
16 -66 27 -113 31 -70 7 -71 7 -110 -26z m151 -433 c56 -15 61 -28 14 -37 -17
-4 -35 -12 -39 -19 -8 -12 -122 -16 -141 -5 -21 13 -6 32 39 52 57 25 63 26
127 9z"/>
<path d="M10470 10681 c-47 -15 -88 -41 -108 -68 -51 -73 -54 -309 -5 -413 62
-133 77 -146 166 -142 73 3 127 31 176 92 67 84 79 176 35 284 -14 36 -32 70
-40 77 -8 6 -14 19 -14 29 0 23 -84 116 -121 135 -30 16 -50 17 -89 6z m54
-95 c46 -19 112 -106 131 -171 20 -68 17 -149 -7 -198 -32 -65 -144 -98 -208
-62 -22 12 -23 14 -7 20 37 15 41 44 12 85 -23 33 -27 51 -28 107 -2 153 1
172 32 204 34 34 32 33 75 15z"/>
<path d="M9003 10435 c-18 -7 -53 -33 -78 -57 -35 -34 -45 -50 -45 -76 0 -53
37 -112 119 -190 l76 -74 -47 -15 c-35 -12 -65 -14 -123 -8 l-76 7 -26 51
c-14 29 -40 106 -57 172 -18 66 -35 126 -40 134 -12 18 -48 9 -140 -35 -61
-29 -87 -50 -126 -96 -46 -55 -60 -85 -76 -165 -8 -41 39 -96 98 -112 61 -17
106 4 161 74 23 30 48 55 54 55 7 0 22 -19 34 -42 27 -54 68 -98 91 -98 9 0
36 -10 58 -21 54 -28 156 -37 196 -16 44 23 74 60 81 101 7 43 -12 74 -106
179 -49 55 -59 72 -52 86 16 29 34 38 91 44 39 5 60 13 73 28 20 25 22 62 5
76 -20 15 -110 14 -145 -2z m-363 -204 c0 -16 -11 -54 -26 -84 -30 -67 -77
-111 -108 -101 -102 30 -86 95 44 183 59 40 90 41 90 2z"/>
<path d="M7273 10402 c-39 -8 -137 -78 -154 -110 -11 -20 -18 -22 -54 -17 -33
5 -44 3 -58 -13 -18 -19 -17 -22 9 -74 15 -29 29 -66 30 -83 7 -66 19 -89 52
-99 51 -14 58 -5 65 77 7 94 45 178 93 207 29 16 45 18 111 13 43 -3 88 -9
101 -14 34 -13 44 -11 40 9 -1 9 1 23 5 30 11 16 0 32 -20 32 -9 0 -27 10 -40
22 -18 17 -37 23 -86 24 -34 1 -77 -1 -94 -4z"/>
<path d="M5503 10369 c-68 -53 -87 -71 -130 -127 -48 -61 -51 -79 -23 -140 24
-53 180 -207 237 -233 78 -36 183 -13 213 47 8 16 23 40 33 53 15 21 16 26 3
39 -12 13 -19 10 -49 -21 -73 -72 -176 -56 -264 41 -49 54 -51 62 -20 62 51 0
157 38 206 74 l51 38 0 59 c0 50 -4 64 -25 84 -13 14 -34 25 -45 25 -12 0 -29
4 -38 9 -10 5 -38 11 -64 14 -42 4 -53 1 -85 -24z m133 -80 c31 -8 44 -16 44
-29 0 -23 -14 -33 -88 -59 -65 -23 -142 -22 -142 2 0 6 19 31 42 54 46 47 66
51 144 32z"/>
<path d="M6795 10367 c-11 -8 -35 -19 -53 -25 -31 -10 -108 -64 -123 -85 -4
-5 -4 -29 -1 -53 3 -27 0 -50 -8 -59 -10 -12 -7 -20 14 -46 14 -17 26 -37 26
-45 0 -27 29 -73 73 -114 l42 -41 94 3 c92 3 93 3 121 37 24 28 27 37 17 52
-7 11 -19 17 -32 14 -93 -22 -148 -11 -194 39 -28 30 -29 28 28 50 67 26 129
73 150 114 19 39 33 123 22 140 -21 32 -138 45 -176 19z m88 -87 c16 -14 -39
-89 -66 -90 -5 0 -15 -7 -23 -15 -32 -31 -94 -15 -94 24 0 37 25 68 60 76 16
4 32 10 35 15 6 10 75 2 88 -10z"/>
<path d="M6065 10351 c-93 -42 -225 -213 -225 -292 0 -30 64 -116 107 -144 39
-26 121 -45 148 -35 23 9 75 87 75 114 0 31 22 26 65 -13 51 -47 77 -52 93
-16 17 36 16 38 -23 78 -19 19 -55 78 -81 131 -26 53 -56 101 -66 107 -13 7
-18 19 -17 37 4 31 -7 52 -24 51 -7 0 -30 -9 -52 -18z m24 -165 c14 -56 4
-195 -16 -218 -12 -13 -20 -15 -41 -7 -41 16 -92 70 -92 98 0 48 90 169 126
171 7 0 17 -20 23 -44z"/>
<path d="M10941 10099 c-28 -36 -22 -74 15 -91 36 -17 75 6 86 51 18 68 -55
97 -101 40z"/>
<path d="M10438 9687 c-15 -12 -34 -41 -42 -65 -8 -23 -27 -57 -41 -76 -14
-18 -25 -35 -25 -39 0 -3 -32 -57 -70 -121 -43 -69 -84 -152 -104 -210 -29
-84 -32 -102 -25 -148 13 -78 26 -103 77 -142 91 -71 174 -34 260 117 55 96 2
167 -138 184 -33 4 -50 11 -50 19 0 14 36 78 161 289 73 124 87 169 63 196
-22 24 -33 24 -66 -4z m-81 -623 c34 -9 35 -31 3 -68 -40 -45 -66 -51 -96 -21
-28 28 -31 70 -6 84 19 12 66 14 99 5z"/>
<path d="M9865 9647 c-12 -6 -36 -21 -55 -32 -29 -17 -102 -84 -272 -251 -42
-40 -55 -92 -44 -168 8 -53 56 -123 90 -132 33 -8 96 26 150 81 49 51 63 55
70 23 10 -47 13 -143 5 -176 -5 -22 -3 -48 6 -71 7 -20 16 -60 20 -88 8 -64
34 -91 69 -75 21 9 25 20 31 76 4 36 5 80 1 98 -20 108 -27 188 -26 303 3 273
5 311 23 338 42 64 -4 113 -68 74z m-64 -233 c-7 -61 -71 -159 -140 -214 -46
-36 -68 -31 -77 16 -5 25 -1 40 16 61 34 45 182 174 194 170 6 -2 9 -17 7 -33z"/>
<path d="M10710 9643 c-22 -8 -60 -45 -60 -58 0 -6 9 -21 21 -34 19 -20 27
-21 88 -15 54 5 69 3 80 -9 9 -12 10 -21 1 -36 -6 -12 -14 -21 -19 -21 -10 0
-91 -191 -91 -215 0 -66 82 -112 178 -100 62 8 82 18 82 45 0 22 -31 50 -56
50 -39 0 -93 21 -97 38 -5 25 47 126 86 164 43 41 57 68 57 107 0 32 3 30
-136 75 -51 16 -105 20 -134 9z"/>
<path d="M6686 9417 c-18 -13 -18 -16 -2 -88 9 -41 20 -103 25 -139 5 -36 17
-92 26 -125 9 -33 17 -99 18 -146 3 -90 14 -119 46 -119 30 0 41 23 41 87 0
69 13 104 54 142 21 20 32 23 66 18 23 -3 45 -8 48 -12 4 -4 8 -50 9 -103 2
-53 5 -103 8 -110 3 -8 17 -12 37 -10 41 4 51 36 44 138 -9 131 -57 200 -139
200 -63 0 -79 -8 -112 -51 -33 -45 -49 -46 -51 -3 -1 16 -9 72 -19 124 -9 52
-20 120 -24 150 -5 49 -9 55 -31 58 -14 2 -34 -3 -44 -11z"/>
<path d="M5537 9392 c-15 -15 -27 -33 -27 -40 0 -6 -17 -23 -37 -39 -21 -15
-46 -35 -56 -45 -13 -13 -33 -18 -80 -17 -94 1 -197 18 -249 41 -41 18 -51 19
-77 8 -51 -21 -39 -43 55 -98 64 -37 107 -51 169 -53 43 -2 55 -7 88 -41 40
-39 42 -49 34 -143 -2 -22 -9 -56 -15 -75 -6 -19 -14 -70 -17 -113 -5 -73 -4
-80 17 -97 28 -24 33 -24 52 -4 12 11 16 35 16 87 0 145 41 383 69 407 36 30
141 184 141 207 0 48 -44 56 -83 15z"/>
<path d="M8165 9229 c-16 -5 -40 -23 -52 -41 -36 -56 -83 -175 -82 -210 0 -18
17 -64 37 -103 33 -61 45 -74 96 -103 77 -43 127 -54 188 -41 57 13 92 39 107
79 13 38 -1 46 -57 35 -20 -4 -65 -7 -100 -7 -58 -1 -66 2 -98 33 -22 22 -34
42 -34 60 0 28 4 31 65 44 17 3 55 25 85 49 54 42 55 44 55 93 -1 60 -15 77
-86 104 -53 21 -77 22 -124 8z m106 -82 c24 -19 41 -55 29 -62 -23 -14 -145
-44 -151 -37 -12 11 31 100 50 105 30 9 56 6 72 -6z"/>
<path d="M7322 9118 c-86 -76 -114 -114 -125 -167 -17 -86 -13 -112 20 -141
27 -24 37 -27 79 -23 69 8 101 27 136 83 37 60 52 56 91 -24 28 -57 70 -99 96
-94 8 2 19 18 24 35 9 30 4 41 -65 145 -42 62 -81 123 -87 135 -6 12 -19 24
-29 27 -10 4 -24 22 -31 41 -17 48 -38 45 -109 -17z m71 -148 c-20 -74 -61
-115 -102 -105 -35 9 -36 10 -23 53 16 53 120 153 133 129 6 -10 3 -38 -8 -77z"/>
<path d="M7688 9154 c-23 -12 -28 -22 -28 -52 0 -20 7 -50 15 -66 8 -15 15
-33 15 -40 0 -27 72 -156 100 -180 50 -42 81 -15 124 110 24 69 74 173 97 200
16 20 -6 44 -41 44 -44 0 -71 -31 -110 -125 -19 -49 -40 -90 -46 -92 -14 -5
-40 56 -58 134 -20 90 -22 92 -68 67z"/>
<path d="M5690 9064 c-105 -46 -148 -135 -125 -262 24 -132 232 -164 312 -49
43 62 38 145 -15 246 -11 20 -84 69 -112 75 -14 3 -41 -1 -60 -10z m125 -114
c24 -25 27 -34 22 -72 -4 -33 -15 -51 -46 -80 -47 -44 -83 -49 -124 -15 -40
32 -46 83 -17 141 41 80 104 90 165 26z"/>
<path d="M6182 9039 c-11 -11 -22 -42 -26 -68 -7 -57 -55 -156 -75 -156 -8 0
-23 12 -34 27 -16 21 -20 42 -20 107 0 89 -10 111 -46 92 -39 -21 -47 -86 -25
-203 6 -32 56 -98 87 -115 36 -20 71 -15 98 15 29 31 49 74 49 103 0 37 32 17
45 -29 17 -54 31 -72 61 -72 21 0 24 5 24 36 0 41 -43 191 -71 247 -22 42 -40
46 -67 16z"/>
<path d="M10877 8930 c-25 -20 -44 -69 -38 -100 5 -25 43 -60 67 -60 13 0 35
11 51 24 22 19 28 32 28 66 0 35 -6 46 -30 66 -37 29 -45 30 -78 4z"/>
<path d="M9032 8912 c-7 -5 -13 -26 -14 -47 -1 -29 4 -43 21 -57 30 -23 42
-23 75 3 20 16 26 29 26 59 0 25 -5 40 -16 44 -22 9 -77 7 -92 -2z"/>
<path d="M8786 8857 c-34 -45 -33 -55 10 -73 32 -14 38 -13 60 1 42 27 24 105
-24 105 -12 0 -32 -14 -46 -33z"/>
<path d="M8548 8845 c-10 -13 -18 -37 -18 -54 0 -34 23 -45 76 -39 24 2 31 9
39 42 8 34 7 40 -14 57 -31 26 -62 23 -83 -6z"/>
<path d="M5085 8197 c-8 -13 -20 -38 -26 -57 -14 -45 -19 -57 -68 -168 -22
-51 -41 -97 -41 -102 0 -5 -16 -34 -35 -64 -19 -30 -42 -73 -51 -97 l-17 -42
27 -24 c15 -12 33 -23 40 -23 22 0 103 137 140 237 8 21 33 85 56 143 31 76
42 117 41 150 -3 69 -36 93 -66 47z"/>
<path d="M4235 7429 c-143 -28 -315 -107 -315 -145 0 -7 -9 -18 -20 -24 -11
-6 -27 -25 -35 -43 -8 -18 -29 -51 -45 -73 -37 -52 -57 -133 -59 -244 -1 -79
16 -209 35 -255 11 -29 70 -120 91 -140 18 -18 34 -101 33 -168 0 -21 5 -57
11 -80 14 -47 18 -117 8 -132 -15 -23 -19 -68 -8 -81 6 -7 8 -25 5 -39 -4 -17
0 -31 14 -45 19 -19 22 -19 49 -5 16 8 39 29 52 46 12 17 36 37 53 44 17 7 40
23 51 35 11 12 32 28 48 36 24 13 28 13 33 -1 4 -8 3 -36 -1 -61 -5 -36 -17
-56 -56 -97 -27 -29 -52 -61 -55 -71 -4 -11 -29 -48 -55 -83 -27 -34 -49 -66
-49 -71 0 -5 -9 -17 -20 -27 -11 -10 -20 -26 -20 -35 0 -10 -7 -23 -15 -30 -8
-7 -15 -19 -15 -26 0 -25 -36 -82 -68 -109 -18 -15 -32 -33 -32 -41 0 -7 -13
-29 -30 -47 -16 -19 -30 -39 -30 -45 0 -5 -15 -21 -33 -34 -18 -14 -38 -37
-46 -51 -12 -23 -12 -29 3 -52 35 -54 77 -24 188 135 17 25 46 61 64 80 18 19
55 78 81 130 27 52 57 109 68 125 32 50 116 145 129 145 13 0 31 -59 52 -180
23 -122 25 -503 4 -524 -8 -9 -47 -20 -85 -26 -39 -5 -81 -12 -95 -14 -14 -2
-46 -7 -71 -10 -25 -4 -57 -9 -70 -11 -97 -16 -187 -26 -264 -29 -62 -3 -105
-11 -138 -25 -27 -12 -54 -21 -60 -21 -27 0 -140 -88 -167 -130 -28 -44 -29
-47 -15 -85 8 -22 14 -47 15 -55 1 -43 50 -131 96 -175 79 -75 80 -76 319 -76
199 -1 246 -17 216 -73 -12 -21 -12 -37 -1 -93 7 -37 14 -99 15 -138 10 -284
16 -451 15 -460 -2 -46 -16 -92 -30 -102 -12 -9 -22 -37 -30 -85 -14 -85 -36
-161 -79 -273 -17 -44 -31 -88 -31 -98 0 -11 -8 -31 -19 -45 -10 -15 -21 -51
-24 -80 -3 -29 -20 -83 -37 -119 -17 -36 -30 -73 -28 -81 4 -23 48 -43 68 -32
17 9 54 109 65 174 3 21 12 52 20 70 7 17 21 48 30 68 9 21 26 66 39 100 31
82 52 91 41 17 -5 -30 -10 -130 -12 -224 -1 -93 -5 -228 -7 -300 -2 -71 0
-137 5 -146 5 -9 4 -68 -2 -135 l-10 -118 34 -34 35 -35 128 -8 c146 -10 253
-5 353 16 37 8 113 21 167 30 55 8 124 20 154 26 30 6 181 13 335 14 154 2
381 6 505 10 124 3 243 6 265 7 69 1 277 18 365 29 98 13 127 15 350 24 195 8
367 8 430 0 28 -4 66 0 100 10 30 9 75 20 100 24 53 10 82 41 112 121 60 160
57 147 58 315 0 88 -7 211 -15 273 -8 62 -15 188 -15 280 0 92 -1 194 -1 227
0 33 7 125 16 205 14 127 20 376 11 465 -2 17 -6 62 -10 101 l-8 71 30 12 c51
21 70 50 79 121 13 107 1 226 -32 294 -40 84 -137 181 -190 189 -22 4 -143 3
-270 0 -259 -7 -441 -7 -500 2 -122 17 -847 21 -920 5 -22 -5 -148 -10 -280
-10 -313 -3 -298 -3 -390 4 -162 12 -462 24 -488 19 -15 -3 -38 -2 -52 1 l-26
7 3 197 c3 167 0 216 -19 322 -19 112 -27 179 -24 219 1 8 7 11 19 6 9 -4 51
-11 92 -16 41 -5 104 -16 140 -24 36 -7 126 -23 200 -35 74 -12 149 -28 167
-36 17 -8 36 -14 42 -14 7 0 30 -9 52 -20 35 -18 82 -28 223 -47 22 -3 61 -18
86 -34 39 -24 55 -28 96 -25 61 5 67 23 22 70 -39 40 -112 67 -438 156 -47 13
-112 35 -145 48 -38 15 -95 27 -160 33 -55 5 -122 13 -150 19 -27 5 -87 14
-133 19 -45 6 -96 18 -112 26 -31 16 -31 17 -28 88 l3 72 60 -3 c57 -3 62 -5
105 -50 63 -66 137 -125 149 -118 11 7 51 83 51 98 0 6 7 20 16 30 12 13 14
21 6 31 -7 8 -7 18 -2 27 13 20 13 72 0 104 -5 14 -12 72 -16 129 l-7 103 36
80 c52 114 60 166 54 323 -10 270 -65 354 -315 478 -100 50 -150 59 -237 42z
m153 -135 c20 -9 60 -24 87 -34 62 -22 139 -70 165 -103 32 -41 48 -97 60
-219 12 -120 4 -190 -26 -235 -7 -12 -14 -29 -14 -36 0 -25 -26 -40 -41 -24
-38 37 -79 22 -85 -32 -4 -31 -71 -124 -104 -141 -8 -4 -37 -11 -63 -15 -44
-7 -52 -5 -100 28 -29 19 -81 62 -116 95 -73 69 -112 83 -151 54 -63 -47 -95
-35 -127 47 -14 36 -18 75 -18 181 l0 135 39 83 c46 96 72 122 178 176 105 53
245 71 316 40z m1987 -2289 c536 -11 731 -12 815 -2 106 12 151 1 206 -51 31
-30 45 -55 63 -112 21 -66 23 -81 13 -133 -14 -73 -34 -105 -70 -112 -15 -4
-54 -15 -87 -25 -121 -38 -184 -43 -525 -45 -267 -2 -352 -6 -420 -19 -80 -16
-131 -22 -370 -44 -52 -5 -147 -7 -210 -3 -194 9 -390 7 -500 -7 -112 -15
-239 -8 -420 23 -47 8 -155 23 -240 34 -85 11 -172 27 -192 35 -45 19 -264 24
-318 7 -30 -9 -39 -8 -62 9 -34 25 -175 39 -341 35 -64 -2 -134 1 -155 5 -48
11 -89 59 -124 144 l-27 66 46 35 c59 45 152 74 262 81 47 3 109 9 136 14 28
6 115 19 194 30 79 11 147 23 151 25 16 10 597 5 685 -6 150 -19 283 -21 430
-9 77 7 149 12 160 11 25 -3 12 -3 207 7 92 4 170 11 174 15 3 3 58 4 123 2
64 -3 242 -7 396 -10z m983 -522 c5 -10 7 -34 4 -52 -2 -19 1 -93 8 -164 12
-117 12 -145 -5 -281 -26 -215 -26 -627 0 -946 4 -47 7 -147 7 -223 -1 -132
-3 -140 -32 -200 -16 -34 -40 -70 -53 -79 -22 -15 -144 -40 -192 -39 -229 4
-507 1 -517 -5 -7 -4 -67 -9 -133 -10 -66 -1 -138 -7 -160 -13 -44 -12 -135
-16 -700 -31 -254 -7 -400 -7 -440 0 -114 19 -242 6 -505 -52 -181 -39 -507
-58 -554 -31 -16 9 -19 27 -23 119 -7 182 -7 228 6 529 26 616 24 1114 -5
1316 -3 20 0 55 6 78 l11 40 87 3 c135 5 293 -9 387 -32 47 -12 98 -20 113
-19 47 4 174 -12 256 -33 63 -15 112 -19 230 -19 83 1 162 3 176 5 163 26 195
27 419 17 129 -5 238 -8 242 -5 4 2 56 11 116 19 59 8 171 24 248 35 114 18
197 22 440 25 334 4 429 12 495 43 56 26 57 26 68 5z"/>
<path d="M8613 7210 c-144 -11 -247 -48 -317 -115 -105 -99 -165 -232 -146
-319 5 -23 14 -68 19 -101 25 -137 45 -174 136 -248 33 -26 67 -61 75 -77 9
-17 32 -41 52 -55 44 -30 134 -65 168 -65 14 0 32 -5 40 -10 19 -12 44 -189
44 -315 1 -88 0 -92 -40 -160 -53 -90 -134 -245 -134 -258 0 -6 -31 -58 -69
-116 -38 -58 -81 -131 -96 -161 -15 -30 -42 -77 -59 -105 -48 -75 -101 -165
-124 -210 -11 -22 -30 -49 -42 -60 -29 -26 -70 -108 -70 -140 0 -17 8 -29 25
-37 22 -10 29 -8 51 13 27 25 116 167 133 210 5 14 20 39 34 55 14 16 36 50
49 75 12 25 42 83 65 128 23 45 64 115 91 154 27 40 79 129 116 199 64 122 81
146 92 135 6 -6 27 -132 27 -162 0 -21 -10 -100 -19 -146 -3 -14 0 -75 6 -136
7 -76 7 -134 0 -184 -6 -41 -12 -186 -14 -324 -3 -233 -5 -256 -29 -335 -14
-47 -33 -130 -43 -185 -9 -55 -23 -116 -31 -135 -8 -19 -28 -71 -45 -115 -16
-44 -41 -109 -55 -145 -14 -36 -35 -92 -48 -125 -48 -127 -125 -275 -206 -396
-46 -70 -97 -148 -114 -174 -16 -27 -37 -58 -45 -71 -21 -33 0 -74 38 -74 22
0 33 9 52 41 14 22 42 62 63 88 20 27 37 52 37 55 0 4 11 23 24 44 32 48 81
136 107 192 11 25 31 65 45 90 34 62 94 190 94 202 0 9 35 102 67 178 8 19 19
44 23 55 4 11 19 49 34 85 14 36 37 114 52 175 14 60 29 116 33 123 12 21 37
-17 51 -78 7 -30 21 -72 31 -92 11 -21 19 -43 19 -50 0 -13 61 -210 106 -344
13 -39 24 -76 24 -82 0 -11 15 -46 98 -222 17 -36 67 -132 111 -214 45 -82 83
-163 87 -180 3 -17 15 -51 27 -76 17 -35 28 -46 50 -48 33 -4 48 26 36 73 -21
84 -38 134 -56 170 -35 70 -99 188 -132 244 -59 100 -160 347 -206 506 -29 98
-65 215 -90 290 -13 39 -31 95 -39 125 -8 30 -28 102 -44 160 -36 127 -44 249
-31 465 5 83 11 267 13 410 3 143 5 268 5 278 1 26 34 21 63 -10 47 -51 192
-280 248 -393 18 -36 43 -79 56 -96 13 -17 24 -34 24 -38 0 -3 10 -23 23 -44
13 -20 33 -62 46 -92 38 -92 80 -150 107 -150 30 0 47 32 39 73 -8 36 -144
311 -185 372 -14 22 -43 72 -64 110 -21 39 -50 86 -65 105 -15 19 -49 71 -76
115 -26 44 -82 122 -124 174 -42 51 -84 104 -94 117 -27 35 -58 194 -60 304
l-2 95 61 30 c33 17 70 37 81 45 43 32 204 214 225 253 35 69 39 150 13 258
-41 176 -125 295 -253 362 -79 42 -126 48 -269 37z m195 -148 c72 -24 140 -72
171 -121 17 -26 31 -54 31 -62 0 -8 7 -34 15 -57 9 -24 19 -72 24 -105 12 -80
-5 -120 -87 -207 -34 -36 -62 -68 -62 -72 0 -14 -73 -50 -140 -69 -71 -19
-188 -27 -210 -14 -7 4 -9 17 -5 32 8 33 -9 51 -54 59 -59 11 -147 63 -181
109 -34 46 -74 229 -63 289 20 108 116 195 242 220 71 14 276 13 319 -2z"/>
<path d="M9770 1499 l-32 -20 8 -62 c13 -91 11 -387 -2 -417 -6 -14 -8 -34 -4
-45 4 -11 5 -68 2 -127 l-5 -107 32 -19 c27 -17 30 -21 16 -32 -8 -7 -15 -21
-15 -31 0 -32 40 -48 120 -50 66 -2 83 2 144 32 38 18 84 48 102 66 83 83 59
214 -50 278 -24 14 -48 25 -55 25 -6 0 -28 11 -49 25 -20 13 -53 28 -72 31
-19 4 -40 11 -46 15 -7 6 -11 73 -13 186 -2 189 -3 206 -15 240 -10 31 -29 34
-66 12z m217 -590 c58 -25 113 -75 113 -104 0 -33 -19 -51 -93 -90 -58 -29
-79 -35 -133 -35 -35 0 -64 2 -64 4 0 2 7 17 15 32 10 19 15 58 15 110 0 49 5
85 12 92 18 18 81 14 135 -9z"/>
<path d="M10340 1437 c-42 -21 -53 -57 -41 -140 16 -107 29 -349 25 -455 -3
-78 -1 -100 16 -132 35 -68 55 -61 71 26 12 64 5 334 -11 439 -5 33 -11 101
-13 151 -5 111 -12 128 -47 111z"/>
<path d="M13388 1383 c-13 -15 -15 -35 -12 -108 3 -49 9 -112 15 -140 7 -35 7
-72 -1 -125 -6 -41 -15 -131 -21 -199 -8 -110 -7 -127 8 -143 40 -45 75 -10
94 96 7 38 19 70 26 73 8 3 38 -17 67 -43 30 -27 67 -60 84 -74 17 -15 49 -43
71 -63 50 -45 87 -49 101 -11 9 23 5 33 -28 78 -22 28 -78 90 -127 138 -57 57
-85 92 -82 102 3 8 35 24 71 35 126 39 160 72 117 115 -31 31 -94 27 -174 -12
-87 -42 -95 -42 -95 10 -1 58 -31 227 -46 258 -14 31 -47 37 -68 13z"/>
<path d="M11451 1296 c-21 -23 -22 -27 -13 -137 11 -128 1 -374 -17 -406 -14
-28 -64 -44 -124 -39 -38 3 -55 10 -83 37 -19 19 -36 47 -40 67 -5 28 -2 38
22 64 16 17 48 39 71 50 60 26 73 42 64 75 -10 36 -26 38 -96 12 -110 -41
-183 -137 -171 -226 3 -25 16 -56 28 -71 108 -122 141 -136 244 -101 53 18 70
20 85 11 10 -7 30 -12 43 -12 28 0 51 41 66 121 11 56 33 99 52 99 6 0 32 -20
58 -44 26 -24 66 -54 89 -66 42 -21 114 -31 127 -17 17 17 -14 64 -67 98 -56
38 -119 101 -119 121 0 6 35 47 79 92 86 89 105 117 96 145 -8 26 -28 32 -56
16 -13 -8 -34 -19 -46 -24 -12 -6 -58 -46 -103 -90 -45 -45 -85 -81 -90 -81
-4 0 -11 51 -15 113 -9 144 -13 174 -25 198 -14 25 -32 24 -59 -5z"/>
<path d="M3808 1286 c-16 -12 -17 -29 -12 -179 5 -160 4 -166 -16 -177 -11 -6
-35 -8 -55 -4 -36 6 -52 -2 -73 -43 -16 -28 -1 -39 66 -48 68 -9 81 -30 64
-107 -22 -101 -29 -146 -28 -179 1 -28 5 -34 26 -37 48 -6 59 14 71 133 14
132 29 175 61 176 89 2 171 28 183 57 9 24 -3 29 -52 21 -82 -13 -108 -11
-135 14 -23 21 -25 33 -32 135 -3 61 -11 123 -16 137 -6 15 -10 41 -10 59 0
42 -18 59 -42 42z"/>
<path d="M292 1245 c-43 -19 -52 -43 -23 -66 17 -14 21 -24 15 -41 -4 -13 -7
-106 -6 -208 0 -123 -4 -214 -14 -270 l-15 -85 42 -37 c37 -34 48 -38 93 -38
56 0 139 26 183 58 36 26 103 97 134 142 62 89 69 133 40 222 -19 57 -33 77
-124 169 -146 150 -236 193 -325 154z m208 -154 c25 -18 67 -57 93 -87 27 -30
55 -54 62 -54 21 0 49 -68 48 -112 -2 -52 -31 -95 -110 -167 -74 -68 -153
-105 -204 -94 -47 9 -54 35 -41 155 7 57 15 168 18 248 4 80 11 153 16 163 9
17 10 17 41 0 17 -10 52 -33 77 -52z"/>
<path d="M2715 1230 c-15 -17 -17 -29 -10 -87 4 -38 9 -126 10 -197 2 -113 1
-132 -15 -145 -30 -27 -41 -90 -25 -136 7 -22 11 -50 8 -63 -7 -29 37 -78 76
-87 27 -6 160 23 197 43 46 24 59 51 58 117 -3 106 -46 167 -127 180 -83 12
-96 17 -101 33 -3 9 -8 91 -11 181 -3 90 -8 168 -11 173 -9 14 -30 9 -49 -12z
m148 -461 c81 -42 101 -108 44 -146 -44 -29 -107 -46 -123 -32 -24 20 -5 153
24 177 19 15 27 15 55 1z"/>
<path d="M4737 1232 c-16 -18 -20 -89 -18 -330 2 -127 -11 -154 -76 -173 -63
-17 -120 -62 -145 -114 -19 -39 -20 -48 -9 -85 15 -51 42 -68 125 -81 124 -20
227 26 295 131 48 73 42 91 -21 65 -13 -5 -20 -1 -25 11 -3 11 -23 38 -44 61
-37 40 -38 43 -34 105 14 231 16 400 4 414 -15 19 -33 18 -52 -4z m-2 -603
c41 -36 47 -73 13 -83 -64 -17 -164 -2 -179 27 -14 25 10 50 66 71 56 20 60
20 100 -15z"/>
<path d="M7240 1211 c-5 -11 -10 -46 -10 -78 0 -82 -18 -106 -74 -98 -38 6
-44 4 -59 -19 -31 -46 -23 -63 34 -70 67 -9 67 -8 62 -109 -3 -51 -8 -112 -11
-137 -11 -66 -5 -87 27 -98 48 -17 53 -6 67 158 6 84 17 157 23 163 6 6 41 13
78 16 59 5 68 9 71 27 3 23 -15 33 -93 54 -65 17 -70 23 -71 92 -3 115 -3 118
-19 118 -8 0 -19 -9 -25 -19z"/>
<path d="M12075 1200 c-27 -28 -27 -30 -11 -55 23 -35 43 -41 66 -20 33 30 22
105 -15 105 -6 0 -24 -13 -40 -30z"/>
<path d="M1780 1205 c-10 -12 -12 -46 -7 -134 4 -83 2 -122 -6 -130 -6 -6 -34
-11 -61 -12 -60 -1 -98 -10 -103 -25 -8 -25 33 -56 92 -67 l60 -12 -4 -111
c-3 -94 -1 -113 14 -128 31 -30 50 -16 52 39 2 28 7 80 13 116 l11 67 58 21
c32 12 66 21 75 21 23 0 76 28 76 41 0 17 -49 29 -118 29 -37 0 -72 4 -78 8
-6 4 -14 54 -18 112 -8 111 -21 180 -35 180 -5 0 -14 -7 -21 -15z"/>
<path d="M8747 1060 c-68 -21 -127 -63 -127 -90 0 -34 64 -94 127 -120 72 -29
132 -66 140 -86 7 -20 -18 -46 -78 -78 -41 -23 -60 -27 -107 -25 -31 2 -63 0
-69 -4 -21 -13 -15 -44 15 -67 55 -44 206 -5 279 72 81 85 57 157 -70 213 -95
41 -102 45 -116 67 -18 29 -5 37 84 48 79 10 105 24 105 57 0 36 -91 43 -183
13z"/>
<path d="M10765 1010 c-44 -32 -95 -69 -113 -82 -74 -51 -122 -116 -122 -164
0 -27 52 -93 85 -108 75 -36 138 -14 216 76 l36 42 28 -43 c29 -44 96 -86 121
-77 21 8 17 36 -12 86 -34 58 -69 157 -85 240 -7 36 -17 71 -22 78 -18 23 -53
11 -132 -48z m27 -149 c-3 -41 -36 -107 -57 -115 -9 -3 -31 -6 -49 -6 -94 0
-62 98 47 142 53 21 63 18 59 -21z"/>
<path d="M930 1032 c-19 -16 -21 -21 -11 -41 12 -21 48 -41 77 -41 20 0 75 61
72 79 -5 25 -108 27 -138 3z"/>
<path d="M2485 1024 c-30 -32 -31 -40 -6 -54 28 -14 57 -12 75 6 24 23 19 49
-9 62 -34 16 -32 16 -60 -14z"/>
<path d="M8139 1027 c-14 -7 -51 -42 -83 -79 -65 -78 -69 -102 -36 -226 22
-83 26 -92 44 -92 34 0 44 33 43 140 0 67 5 115 13 130 32 63 69 77 94 38 8
-13 24 -61 35 -108 35 -139 67 -144 97 -15 19 84 42 132 65 138 26 7 37 -5 50
-53 9 -36 8 -59 -3 -115 -14 -66 -14 -72 4 -97 11 -16 26 -28 33 -28 30 0 38
41 33 167 -5 112 -7 126 -28 148 -13 14 -41 30 -63 36 -44 12 -52 8 -108 -55
l-36 -40 -18 35 c-25 49 -65 89 -89 89 -12 -1 -33 -6 -47 -13z"/>
<path d="M13058 1015 c-59 -22 -124 -82 -148 -137 -46 -106 -3 -194 130 -266
48 -25 62 -28 105 -22 82 10 115 40 115 102 0 17 -4 19 -27 13 -71 -18 -145
-3 -198 40 -25 21 -29 31 -29 67 1 34 8 47 36 72 19 17 49 39 66 48 24 13 32
24 32 46 0 29 -16 53 -34 51 -6 0 -28 -7 -48 -14z"/>
<path d="M6840 987 c-53 -15 -100 -53 -100 -81 0 -12 32 -50 80 -96 44 -42 80
-83 80 -92 0 -21 -32 -48 -77 -63 -31 -11 -43 -11 -70 0 -27 12 -34 11 -44 -1
-21 -25 1 -67 41 -81 98 -35 240 49 240 141 0 21 -11 39 -42 67 -24 22 -46 39
-50 39 -9 0 -38 54 -38 70 0 5 22 10 50 10 65 0 100 16 100 47 0 40 -92 62
-170 40z"/>
<path d="M12554 979 c-59 -22 -120 -72 -175 -142 -51 -64 -53 -114 -9 -175 50
-69 118 -92 185 -63 40 18 115 85 115 103 0 25 33 1 64 -45 37 -55 68 -77 111
-77 33 0 32 14 -11 96 -35 67 -94 228 -94 256 0 7 -11 26 -25 41 -32 33 -85
36 -161 6z m71 -145 c-1 -69 -46 -129 -106 -139 -34 -6 -44 -3 -65 16 -46 43
-21 92 73 142 88 47 98 45 98 -19z"/>
<path d="M1335 981 c-42 -7 -111 -44 -132 -71 -24 -30 -14 -60 37 -110 27 -28
55 -50 62 -50 18 0 108 -86 108 -103 0 -18 -75 -53 -127 -60 -30 -4 -53 1 -80
14 -36 18 -39 18 -50 2 -7 -9 -13 -20 -13 -25 0 -12 43 -49 70 -60 65 -25 227
27 256 83 29 56 -18 135 -119 199 -90 57 -79 94 35 117 34 7 65 18 69 25 19
31 -44 52 -116 39z"/>
<path d="M12108 979 c-23 -13 -22 -46 3 -139 44 -160 20 -299 -60 -339 -55
-28 -71 -27 -131 15 -28 19 -54 33 -57 31 -3 -3 -6 -24 -8 -47 -3 -36 1 -47
31 -80 64 -71 148 -77 235 -18 61 41 92 93 110 181 15 80 3 202 -30 303 -32
101 -50 119 -93 93z"/>
<path d="M5900 965 c-30 -7 -72 -16 -93 -19 -45 -8 -117 -69 -117 -99 0 -11
21 -44 46 -74 44 -51 59 -61 182 -116 25 -12 28 -29 10 -45 -26 -21 -137 -52
-166 -46 -40 8 -78 -26 -62 -56 13 -25 66 -39 105 -28 16 4 47 8 68 8 84 0
161 63 174 144 5 32 2 36 -38 62 -24 15 -57 33 -74 39 -80 29 -135 68 -135 95
0 23 67 50 121 50 54 0 126 19 141 37 10 13 8 19 -15 39 -32 27 -63 29 -147 9z"/>
<path d="M7634 960 c-32 -13 -71 -69 -79 -115 -3 -22 -17 -59 -31 -82 -22 -38
-23 -43 -8 -57 8 -9 21 -16 29 -16 7 0 16 -10 19 -22 3 -13 24 -38 47 -57 67
-55 170 -56 232 -2 18 16 43 31 57 33 14 1 26 11 28 21 4 22 -29 23 -88 2 -55
-19 -94 -19 -137 1 -47 23 -41 50 17 82 68 38 150 101 150 116 0 22 -44 80
-70 93 -28 14 -134 16 -166 3z m115 -61 c17 -6 31 -15 31 -20 0 -26 -116 -96
-143 -86 -28 11 2 78 44 99 19 10 34 18 35 18 1 0 15 -5 33 -11z"/>
<path d="M2174 919 c-25 -13 -77 -96 -99 -159 -30 -83 6 -193 53 -164 12 8 19
31 23 86 4 51 14 87 30 116 26 45 30 47 59 32 12 -7 21 -6 28 3 7 8 3 24 -17
52 -29 43 -44 50 -77 34z"/>
<path d="M6518 846 c-24 -25 -61 -74 -83 -110 -22 -36 -47 -65 -56 -66 -20 0
-92 93 -106 135 -11 34 -43 44 -63 20 -13 -16 -11 -31 18 -135 8 -28 35 -69
70 -107 27 -29 28 -47 3 -81 -10 -15 -38 -65 -63 -112 -24 -47 -60 -110 -80
-140 -19 -30 -53 -87 -74 -126 -33 -62 -36 -74 -25 -88 22 -26 47 -19 80 23
17 21 31 42 31 46 0 4 22 46 48 94 27 47 53 100 59 116 6 17 29 57 52 89 22
33 41 64 41 70 0 5 9 20 21 32 16 17 28 21 53 17 23 -3 38 0 49 12 23 22 21
32 -8 51 -14 9 -25 25 -25 35 0 39 51 140 95 186 78 84 43 120 -37 39z"/>
<path d="M3212 863 c-23 -9 -62 -82 -62 -115 0 -92 45 -158 107 -158 48 0 122
36 136 67 6 13 15 22 21 20 10 -3 15 -11 39 -68 20 -48 74 -109 96 -109 25 0
48 21 55 53 5 20 3 27 -9 27 -25 0 -67 76 -86 156 -19 79 -40 114 -69 114 -23
0 -66 -49 -79 -92 -19 -59 -47 -88 -86 -88 -24 0 -38 6 -45 20 -13 24 -4 84
18 121 24 42 5 69 -36 52z"/>
<path d="M944 846 c-17 -12 -23 -30 -29 -93 -13 -142 -12 -217 5 -220 39 -7
48 19 65 182 4 33 11 70 17 81 23 49 -14 81 -58 50z"/>
<path d="M2440 840 c-20 -20 -21 -28 -15 -123 3 -56 11 -126 16 -155 6 -29 8
-60 5 -68 -7 -19 20 -30 38 -15 11 9 13 50 11 194 -2 156 -5 182 -18 185 -9 2
-25 -6 -37 -18z"/>
<path d="M4119 843 c-55 -69 -132 -224 -131 -266 0 -16 7 -38 15 -50 17 -26
116 -63 194 -72 44 -6 56 -3 90 19 21 14 46 38 54 53 22 38 32 83 19 83 -13 0
-58 -27 -88 -54 -22 -20 -23 -20 -98 -1 -91 22 -109 34 -100 63 6 16 18 22 62
28 68 8 164 53 193 90 28 35 29 99 2 114 -11 5 -60 10 -109 10 -73 0 -92 -3
-103 -17z m129 -39 c31 -9 24 -33 -17 -61 -36 -24 -95 -31 -107 -12 -3 6 2 26
12 45 16 29 24 34 54 34 19 0 45 -3 58 -6z"/>
<path d="M13968 725 c-27 -36 -28 -67 -5 -92 43 -48 125 -11 113 50 -13 66
-74 89 -108 42z"/>
</g>
</svg>
