<?xml version="1.0" standalone="no"?>
<!DOCTYPE svg PUBLIC "-//W3C//DTD SVG 20010904//EN"
 "http://www.w3.org/TR/2001/REC-SVG-20010904/DTD/svg10.dtd">
<svg version="1.0" xmlns="http://www.w3.org/2000/svg"
 width="709.845816pt" height="400.000000pt" viewBox="0 0 709.845816 400.000000"
 preserveAspectRatio="xMidYMid meet">
<metadata>
Created by potrace 1.15, written by Peter Selinger 2001-2017
</metadata>
<g transform="translate(-4.947081,406.559700) scale(0.032129,-0.032129)"
fill="#444444" stroke="none">
<path d="M9234 12649 c-17 -5 -39 -18 -50 -30 -18 -20 -18 -21 1 -35 12 -9 30
-13 45 -9 24 6 45 10 118 21 38 6 41 16 10 36 -31 20 -87 28 -124 17z"/>
<path d="M7999 12644 c-9 -3 -22 -16 -30 -30 -19 -36 1 -47 71 -37 30 4 71 7
90 8 39 0 52 23 26 45 -16 13 -128 23 -157 14z"/>
<path d="M9920 12631 c-5 -11 -10 -24 -10 -29 0 -16 51 -31 131 -38 144 -12
160 18 31 59 -105 32 -138 34 -152 8z"/>
<path d="M8787 12633 c-28 -3 -41 -10 -49 -29 -6 -13 -8 -27 -4 -31 6 -7 57
-6 126 2 14 1 46 3 73 4 40 1 47 4 47 21 0 36 -62 46 -193 33z"/>
<path d="M9527 12622 c-41 -45 -14 -57 128 -57 95 0 110 2 113 17 2 13 -6 19
-35 24 -21 4 -43 10 -48 15 -6 4 -40 11 -76 14 -56 5 -67 4 -82 -13z"/>
<path d="M7594 12606 c-10 -22 -8 -25 26 -35 45 -13 119 -14 139 -2 12 8 13
12 2 25 -9 11 -17 13 -26 6 -6 -5 -16 -6 -21 -1 -9 8 -84 31 -100 31 -5 0 -14
-11 -20 -24z"/>
<path d="M8362 12613 c-20 -36 0 -46 90 -47 87 -1 138 8 138 24 0 19 -44 32
-130 37 -80 5 -89 4 -98 -14z"/>
<path d="M7062 12588 c-6 -6 -12 -20 -12 -29 0 -19 32 -26 120 -29 30 -1 69
-3 85 -6 17 -2 44 -6 61 -8 17 -2 36 -6 43 -10 13 -8 41 10 41 26 0 34 -308
86 -338 56z"/>
<path d="M10366 12575 c-12 -32 11 -52 69 -60 53 -6 95 -1 95 13 -1 20 -22 35
-61 44 -96 20 -96 20 -103 3z"/>
<path d="M5885 12556 c-24 -36 -5 -61 39 -51 17 4 52 6 77 6 61 -2 105 14 90
33 -12 14 -32 19 -138 31 -48 6 -53 5 -68 -19z"/>
<path d="M6683 12561 c-22 -18 -31 -50 -15 -52 4 -1 46 -2 93 -3 52 -1 92 -6
101 -14 12 -10 18 -10 27 1 16 20 -23 53 -85 72 -64 19 -94 18 -121 -4z"/>
<path d="M6285 12556 c-16 -11 -17 -17 -7 -29 16 -19 169 -40 220 -29 31 6 28
30 -5 37 -16 4 -56 13 -90 21 -77 18 -94 18 -118 0z"/>
<path d="M5507 12553 c-11 -10 -8 -41 4 -48 19 -12 160 -15 180 -5 10 6 19 19
19 29 0 15 -11 19 -61 25 -80 8 -134 8 -142 -1z"/>
<path d="M10677 12553 c-11 -11 -8 -41 6 -50 6 -4 37 -8 67 -9 30 -1 64 -4 75
-6 29 -5 32 32 4 53 -17 13 -42 19 -85 19 -33 0 -64 -3 -67 -7z"/>
<path d="M5133 12444 c-33 -26 -43 -57 -22 -70 13 -8 99 35 99 49 0 4 5 5 11
2 11 -7 49 22 49 37 0 4 -24 8 -52 8 -42 0 -60 -6 -85 -26z"/>
<path d="M10943 12424 c-4 -11 9 -29 41 -56 25 -22 46 -45 46 -51 0 -7 9 -18
20 -25 19 -11 20 -10 20 22 0 44 -13 79 -40 106 -24 24 -78 27 -87 4z"/>
<path d="M4869 12348 c-9 -7 -26 -34 -39 -60 -20 -39 -22 -50 -12 -72 15 -33
40 -33 48 -1 7 29 37 89 54 110 24 29 -20 49 -51 23z"/>
<path d="M11097 12210 c-17 -20 -17 -22 3 -50 11 -15 20 -33 20 -39 0 -15 37
-33 45 -21 14 22 -22 130 -44 130 -4 0 -14 -9 -24 -20z"/>
<path d="M4754 12034 c-24 -55 -22 -100 3 -126 37 -37 49 -20 43 65 -6 95 -22
115 -46 61z"/>
<path d="M905 12036 c-20 -11 -96 -89 -171 -175 -22 -24 -64 -62 -94 -85 -30
-22 -66 -53 -79 -69 -13 -16 -48 -47 -78 -68 -58 -43 -63 -57 -33 -84 17 -15
24 -16 49 -5 28 11 34 8 120 -49 49 -33 125 -74 168 -91 43 -17 87 -36 98 -42
61 -36 150 -78 167 -78 34 0 16 26 -57 84 -42 34 -101 68 -148 87 -43 18 -94
42 -113 55 -19 13 -38 24 -42 24 -4 0 -28 18 -53 40 l-47 40 91 87 c83 81 104
103 183 189 40 43 88 103 92 115 4 11 -17 40 -27 38 -3 -1 -15 -6 -26 -13z"/>
<path d="M9368 12039 c-10 -5 -18 -15 -18 -22 0 -23 107 -238 152 -304 37 -55
88 -84 88 -49 0 19 -184 379 -195 382 -6 2 -18 -1 -27 -7z"/>
<path d="M10583 11966 c-47 -83 -59 -121 -44 -140 26 -31 45 -17 84 57 43 81
47 130 12 135 -15 2 -28 -11 -52 -52z"/>
<path d="M2898 11976 c-3 -13 -1 -71 3 -127 4 -56 6 -105 4 -108 -2 -4 -33 -5
-69 -4 -63 2 -67 1 -78 -23 -17 -37 6 -54 88 -62 l69 -7 -3 -133 c-3 -116 -2
-136 14 -153 22 -24 41 -24 48 -1 3 10 7 77 8 149 l2 131 46 6 c25 4 59 6 77
6 18 0 35 5 38 10 16 26 -60 70 -120 70 -18 0 -38 6 -44 14 -6 7 -14 56 -18
107 -8 119 -14 143 -40 147 -15 2 -22 -4 -25 -22z"/>
<path d="M5191 11986 c-17 -20 -29 -107 -30 -216 0 -52 -3 -173 -7 -267 l-6
-173 26 -11 c14 -7 29 -9 34 -5 4 4 10 114 14 244 8 285 14 365 27 389 20 39
-30 73 -58 39z"/>
<path d="M1332 11978 c-9 -4 -30 -7 -47 -8 -53 -1 -176 -72 -210 -119 -28 -40
-30 -48 -29 -130 1 -74 5 -96 28 -142 47 -93 142 -167 237 -183 65 -11 131 30
170 106 22 42 25 116 7 140 -7 9 -46 28 -86 42 -58 21 -95 26 -180 28 l-107 3
-2 30 c-2 17 3 37 10 45 22 27 81 67 120 81 20 7 37 16 37 19 0 10 163 32 207
28 32 -3 38 0 38 17 0 12 -8 21 -20 24 -11 2 -23 8 -27 14 -7 12 -118 16 -146
5z m59 -358 c22 -6 43 -18 46 -26 15 -41 -65 -134 -115 -134 -27 1 -73 25
-124 66 -27 21 -78 90 -78 105 0 12 220 3 271 -11z"/>
<path d="M9147 11970 c-9 -11 -17 -23 -17 -26 0 -13 133 -165 169 -193 48 -38
88 -49 97 -26 5 12 -11 35 -53 78 -33 34 -83 90 -112 125 -29 34 -56 62 -60
62 -4 0 -14 -9 -24 -20z"/>
<path d="M10799 11972 c-27 -28 -103 -144 -121 -183 -13 -29 -14 -40 -5 -52
28 -34 46 -28 83 31 49 75 96 179 92 200 -4 23 -29 25 -49 4z"/>
<path d="M14185 11910 c-17 -19 -17 -21 0 -47 19 -31 101 -111 135 -131 20
-12 60 -2 60 16 0 4 -27 36 -61 72 -33 36 -67 75 -76 88 -19 27 -35 28 -58 2z"/>
<path d="M17165 11893 c-14 -16 -44 -59 -66 -96 -46 -78 -48 -117 -5 -117 25
0 35 14 114 162 39 72 10 107 -43 51z"/>
<path d="M18040 11900 c-19 -19 -20 -24 -7 -38 8 -9 45 -71 82 -137 96 -170
142 -239 176 -264 l30 -22 -107 -107 c-133 -134 -170 -174 -223 -240 -36 -43
-41 -55 -31 -67 7 -8 20 -15 30 -15 10 0 96 81 191 181 96 100 189 195 207
212 46 44 43 73 -11 96 -62 27 -95 70 -206 275 -71 131 -78 141 -94 144 -9 2
-25 -6 -37 -18z"/>
<path d="M17355 11882 c-16 -10 -43 -39 -60 -63 -16 -24 -43 -60 -58 -81 -31
-39 -32 -65 -4 -82 15 -9 24 -4 57 34 63 73 102 144 98 179 l-3 31 -30 -18z"/>
<path d="M13996 11874 c-9 -8 -16 -20 -16 -25 0 -5 39 -50 86 -99 91 -94 126
-111 139 -69 6 17 -4 32 -43 73 -28 28 -69 70 -91 94 -45 47 -52 49 -75 26z"/>
<path d="M15912 11878 c-7 -9 -4 -36 9 -88 10 -41 19 -94 19 -118 0 -37 -3
-43 -17 -38 -10 2 -37 10 -61 17 -46 13 -85 2 -97 -29 -8 -23 22 -38 148 -73
l47 -13 0 -81 c0 -44 -7 -115 -15 -159 -16 -85 -11 -106 27 -106 33 0 49 61
55 206 l6 131 87 5 c80 5 130 19 130 36 0 8 -154 42 -192 42 -31 0 -43 24 -58
120 -6 41 -16 83 -21 92 -5 10 -9 24 -9 33 0 8 -9 19 -19 25 -25 13 -26 13
-39 -2z"/>
<path d="M11135 11864 c-18 -19 -18 -28 -2 -77 21 -60 44 -75 48 -31 9 94 -11
142 -46 108z"/>
<path d="M14661 11852 c-44 -3 -101 -33 -135 -70 -22 -25 -37 -190 -30 -319 2
-43 -1 -108 -7 -145 -11 -61 -10 -70 6 -88 10 -11 22 -17 27 -14 5 4 16 -3 24
-14 8 -11 39 -30 69 -41 159 -60 308 13 330 160 5 35 3 48 -9 58 -9 8 -16 19
-16 25 0 15 -98 89 -160 122 -28 15 -48 30 -43 34 4 4 32 15 60 25 38 12 64
29 92 61 40 46 50 70 42 112 -7 41 -165 100 -250 94z m121 -88 c20 -4 45 -15
54 -25 16 -17 15 -20 -18 -53 -35 -35 -79 -52 -173 -66 -27 -4 -57 -10 -66
-14 -14 -6 -15 1 -11 51 2 32 10 67 17 79 15 24 85 44 130 38 17 -3 47 -7 67
-10z m-157 -238 c22 -10 47 -22 55 -27 8 -5 38 -20 67 -33 29 -14 73 -45 98
-71 37 -36 45 -50 39 -68 -14 -45 -55 -84 -108 -105 -49 -19 -59 -19 -109 -8
-89 21 -92 25 -95 200 -1 83 1 146 5 140 4 -6 26 -19 48 -28z"/>
<path d="M3225 11814 c-23 -17 -13 -41 21 -55 36 -13 61 8 45 39 -14 25 -43
33 -66 16z"/>
<path d="M2069 11706 c-36 -31 -52 -63 -45 -91 4 -15 1 -25 -9 -29 -8 -3 -15
-11 -15 -17 0 -7 -7 -21 -17 -31 -13 -14 -14 -23 -6 -41 6 -12 19 -42 29 -66
14 -35 27 -47 61 -62 23 -10 57 -21 75 -24 71 -13 181 34 193 84 8 32 0 37
-38 22 -106 -44 -194 -45 -224 -5 -18 25 -16 44 4 44 57 0 189 77 199 116 21
85 -138 162 -207 100z m124 -67 c12 -19 -21 -61 -50 -65 -10 -2 -31 -6 -47
-10 -28 -7 -28 -6 -21 27 11 50 33 71 73 67 19 -2 40 -10 45 -19z"/>
<path d="M9785 11701 c-150 -69 -229 -242 -160 -352 43 -68 107 -97 235 -106
65 -4 81 -2 113 16 21 12 44 21 52 21 16 0 85 66 85 81 0 15 -28 10 -67 -13
-33 -19 -52 -22 -148 -22 -79 0 -120 5 -145 17 -47 21 -80 53 -80 77 0 11 -1
23 -2 26 -2 3 39 7 90 8 69 1 96 5 102 16 6 8 10 12 10 7 0 -18 101 45 115 73
21 41 4 122 -32 150 -33 26 -113 26 -168 1z m126 -72 c11 -11 19 -28 17 -37
-4 -21 -126 -61 -190 -61 -47 -1 -47 -1 -36 24 10 22 80 74 118 88 33 12 71 6
91 -14z"/>
<path d="M8708 11696 c-23 -17 -23 -29 0 -49 20 -18 198 -35 246 -23 34 8 34
40 1 62 -34 22 -222 30 -247 10z"/>
<path d="M17914 11666 c-23 -25 -62 -71 -85 -103 -24 -32 -57 -73 -74 -91 -16
-19 -51 -64 -77 -100 -89 -125 -107 -182 -60 -182 19 0 52 29 52 46 0 8 53 81
145 200 17 21 65 81 108 133 42 52 77 100 77 106 0 14 -20 35 -34 35 -5 0 -29
-20 -52 -44z"/>
<path d="M1731 11677 c-18 -7 -41 -22 -50 -34 -15 -18 -19 -19 -36 -7 -16 12
-21 12 -33 0 -13 -13 -12 -20 6 -58 11 -24 23 -75 27 -113 8 -74 25 -105 58
-105 19 0 19 5 13 93 -5 64 -3 102 5 119 15 34 69 56 146 61 72 4 84 11 60 35
-22 21 -147 27 -196 9z"/>
<path d="M2525 11673 c-79 -42 -145 -130 -145 -193 1 -95 158 -171 268 -131
56 21 141 76 149 96 11 31 -9 33 -70 5 -34 -15 -87 -31 -118 -35 -47 -6 -63
-3 -100 16 -24 12 -39 23 -34 25 104 27 187 59 200 77 34 49 10 118 -51 143
-42 18 -62 17 -99 -3z m93 -80 c3 -19 -6 -24 -67 -44 -39 -13 -74 -20 -78 -16
-9 9 47 64 78 76 37 15 64 9 67 -16z"/>
<path d="M5605 11681 c-8 -14 -89 -68 -112 -75 -11 -4 -45 -31 -75 -61 -86
-85 -87 -152 -4 -192 68 -32 153 14 216 116 l28 44 22 -44 c24 -47 55 -79 76
-79 23 0 25 19 6 57 -11 21 -34 79 -52 128 -18 50 -37 96 -43 103 -11 14 -53
16 -62 3z m-5 -117 c0 -3 -13 -26 -30 -51 -16 -24 -30 -48 -30 -53 0 -15 -66
-50 -94 -50 -20 0 -26 5 -26 22 0 23 55 88 75 88 6 0 26 11 45 25 34 23 60 32
60 19z"/>
<path d="M7370 11640 c-136 -60 -250 -172 -250 -243 0 -83 63 -135 149 -122
67 10 116 49 153 123 17 34 34 62 38 62 4 0 15 -17 24 -37 26 -56 56 -87 102
-102 64 -21 90 9 36 41 -46 28 -61 51 -101 162 -35 96 -63 147 -80 146 -3 0
-35 -14 -71 -30z m40 -82 c0 -27 -25 -118 -32 -118 -5 0 -8 -5 -8 -10 0 -28
-88 -90 -127 -90 -35 0 -48 9 -57 36 -10 33 31 83 117 141 78 53 107 64 107
41z"/>
<path d="M8305 11651 c-67 -31 -155 -150 -155 -210 0 -62 61 -136 122 -148 15
-3 31 -10 34 -14 7 -13 124 -11 165 2 51 16 102 42 122 61 34 33 36 33 -143 9
-121 -17 -220 21 -220 85 0 20 4 24 19 19 16 -5 58 4 196 42 34 10 55 35 55
65 0 43 -16 65 -60 88 -48 25 -83 25 -135 1z m120 -70 c8 -14 -5 -19 -66 -29
-30 -5 -62 -13 -71 -17 -31 -12 -20 12 15 34 33 21 111 29 122 12z"/>
<path d="M13574 11653 c-18 -18 -18 -47 -1 -61 15 -12 163 -32 242 -32 38 0
55 5 68 20 21 24 21 30 3 30 -7 0 -19 7 -26 15 -7 8 -26 15 -42 15 -16 0 -38
4 -48 10 -31 17 -179 19 -196 3z"/>
<path d="M4763 11648 c-13 -18 -33 -90 -33 -120 0 -31 36 -66 51 -51 14 14 17
159 3 173 -8 8 -14 7 -21 -2z"/>
<path d="M5893 11643 c-18 -9 -35 -25 -39 -35 -3 -10 -16 -21 -29 -24 -33 -8
-44 -47 -29 -98 7 -23 18 -61 26 -86 11 -38 17 -46 40 -48 l28 -3 -6 88 c-5
78 -3 92 15 121 17 25 27 32 53 32 48 0 91 -57 125 -164 23 -75 30 -86 48 -84
17 3 20 10 19 54 -2 70 -40 150 -101 213 -55 57 -89 64 -150 34z"/>
<path d="M6699 11614 c-30 -64 -30 -190 1 -233 26 -38 72 -47 118 -24 28 14
44 35 77 101 l42 84 31 -49 c17 -26 38 -65 48 -85 10 -21 23 -38 30 -38 7 0
14 -10 16 -22 2 -17 11 -24 31 -26 15 -2 27 2 27 8 0 16 -84 181 -118 231 -17
24 -42 55 -56 68 -34 32 -47 20 -81 -72 -14 -40 -41 -90 -60 -112 -34 -39 -35
-40 -51 -20 -18 23 -15 100 7 160 10 26 10 41 3 53 -21 32 -41 25 -65 -24z"/>
<path d="M3576 11639 c-15 -4 -36 -15 -45 -23 -10 -9 -21 -13 -24 -9 -4 3 -18
0 -32 -7 -25 -13 -26 -16 -19 -84 8 -82 24 -121 54 -129 25 -6 35 12 26 48
-10 39 11 101 41 125 22 17 35 20 63 15 65 -12 83 -44 84 -154 1 -58 5 -76 18
-85 31 -19 42 7 43 97 0 68 -4 88 -23 118 -44 72 -119 107 -186 88z"/>
<path d="M7950 11639 c-25 -4 -74 -22 -109 -40 -125 -66 -187 -184 -129 -242
27 -27 123 -53 142 -38 6 5 22 12 36 16 14 4 42 19 63 32 l37 23 10 -25 c15
-40 30 -182 30 -293 0 -83 -4 -113 -21 -153 -24 -55 -36 -59 -111 -33 -56 19
-122 74 -160 133 -32 52 -35 77 -11 103 15 17 15 20 3 28 -8 6 -19 10 -23 10
-18 0 -57 -55 -57 -80 0 -45 45 -122 107 -182 116 -113 231 -136 294 -58 67
82 62 346 -12 705 -6 28 -12 60 -14 71 -6 28 -20 32 -75 23z m3 -134 c-1 -41
-6 -54 -30 -73 -49 -40 -92 -54 -130 -41 -18 6 -33 17 -33 24 0 39 134 148
175 143 17 -3 20 -10 18 -53z"/>
<path d="M11689 11643 c-15 -2 -45 -20 -67 -38 -37 -33 -40 -33 -45 -14 -4 15
-12 20 -29 17 l-23 -3 4 -165 c2 -131 6 -169 18 -182 12 -13 20 -15 34 -7 15
8 19 21 19 67 0 83 17 173 38 201 33 44 67 64 99 57 24 -6 32 -15 45 -54 26
-75 30 -102 29 -198 -1 -78 1 -93 16 -98 60 -23 68 193 13 322 -13 29 -36 64
-52 77 -29 24 -43 27 -99 18z"/>
<path d="M3262 11619 c-28 -29 -32 -77 -14 -149 15 -57 42 -94 57 -79 6 7 13
219 7 237 -6 18 -29 15 -50 -9z"/>
<path d="M10295 11618 c-11 -6 -26 -20 -33 -30 -17 -24 -25 -23 -37 4 -12 28
-40 35 -49 12 -4 -9 -1 -33 5 -51 6 -19 12 -83 13 -141 l1 -107 27 -3 c31 -4
33 2 42 106 7 74 28 120 59 127 42 9 62 8 88 -2 44 -19 62 -121 37 -206 -11
-37 -10 -41 11 -58 13 -11 27 -19 31 -19 14 0 40 91 40 137 0 73 -20 130 -62
178 -51 58 -125 81 -173 53z"/>
<path d="M12189 11610 c-20 -10 -47 -30 -60 -44 -13 -14 -27 -26 -32 -26 -28
0 -104 -96 -125 -159 -16 -45 2 -121 29 -121 10 0 21 -4 24 -10 10 -17 82 -11
117 10 20 11 48 44 68 80 35 60 50 73 50 45 0 -22 48 -155 61 -172 17 -20 63
-12 68 11 2 11 -4 25 -13 31 -8 7 -27 58 -41 116 -42 171 -53 210 -70 235 -18
29 -29 29 -76 4z m25 -97 c-6 -46 -40 -129 -69 -167 -27 -36 -80 -56 -105 -41
-19 12 -5 80 25 119 23 31 128 113 146 115 4 1 5 -11 3 -26z"/>
<path d="M13075 11616 c-49 -21 -90 -62 -109 -108 -10 -24 -22 -51 -27 -60
-14 -27 -11 -48 9 -55 9 -3 36 -23 59 -44 23 -21 70 -52 105 -68 87 -41 133
-35 194 25 24 24 49 44 54 44 6 0 10 5 10 10 0 11 -53 14 -64 3 -10 -10 -79
-33 -101 -33 -24 0 -125 46 -125 57 0 9 8 13 82 49 54 26 118 89 118 114 0 12
-17 32 -42 50 -46 34 -109 40 -163 16z m121 -68 c10 -16 -40 -50 -105 -71 -30
-9 -56 -15 -58 -13 -9 8 18 55 43 75 29 23 108 30 120 9z"/>
<path d="M4020 11602 c-65 -31 -97 -61 -125 -117 -31 -64 -28 -94 12 -131 34
-31 108 -34 146 -4 14 11 29 20 33 20 4 0 22 14 39 30 l32 31 16 -38 c33 -80
50 -202 35 -263 -13 -54 -74 -116 -123 -126 -53 -10 -134 19 -176 63 -20 21
-42 48 -48 61 -15 29 -39 28 -47 -3 -18 -71 133 -198 235 -196 190 2 279 154
222 380 -27 106 -84 227 -112 236 -23 7 -49 -10 -49 -32 0 -52 -101 -134 -140
-113 -48 26 -9 81 95 135 39 20 70 41 69 46 -1 5 -2 16 -2 24 -3 20 -66 19
-112 -3z"/>
<path d="M6435 11604 c-60 -21 -158 -118 -184 -181 -29 -71 -27 -96 10 -127
17 -14 36 -26 43 -26 34 0 117 33 126 50 6 11 15 20 21 20 5 0 24 16 41 35 17
20 32 34 34 32 15 -14 46 -217 46 -294 -1 -160 -23 -195 -128 -208 -61 -7
-124 22 -168 78 -26 32 -31 48 -30 88 1 54 -14 65 -35 25 -22 -40 -5 -117 34
-163 84 -99 171 -126 276 -88 56 20 66 28 86 66 12 24 27 80 33 125 11 75 10
94 -14 225 -43 234 -60 286 -103 325 -20 19 -39 34 -42 33 -4 0 -24 -7 -46
-15z m54 -111 c-2 -28 -12 -48 -38 -75 -19 -21 -40 -38 -46 -38 -6 0 -20 -8
-31 -18 -24 -23 -57 -32 -75 -22 -31 20 53 135 126 173 51 27 66 22 64 -20z"/>
<path d="M12525 11580 c-12 -14 -25 -18 -42 -14 -37 10 -55 -12 -48 -60 3 -23
7 -86 10 -140 5 -111 17 -137 50 -112 16 11 19 28 21 104 2 55 9 104 19 128
16 37 17 38 31 19 18 -25 31 -73 40 -152 7 -64 16 -76 53 -66 21 5 26 14 37
76 6 36 46 97 64 97 15 0 50 -100 57 -167 8 -67 8 -68 38 -68 l30 0 0 60 c0
79 -30 170 -69 211 -48 50 -67 51 -113 4 -47 -46 -53 -48 -53 -19 0 42 -62
119 -96 119 -6 0 -19 -9 -29 -20z"/>
<path d="M15201 11587 c-18 -6 -47 -25 -65 -42 -53 -53 -106 -114 -106 -122 1
-33 31 -187 40 -203 7 -14 19 -20 33 -18 21 3 22 8 22 98 1 168 48 226 184
223 36 -1 69 1 73 3 25 16 -74 74 -122 73 -14 -1 -40 -6 -59 -12z"/>
<path d="M16273 11548 c-26 -30 -46 -126 -37 -183 9 -60 47 -105 90 -105 39 0
77 29 110 86 14 24 29 44 33 44 8 0 41 -93 41 -114 0 -7 14 -25 30 -41 25 -24
34 -27 48 -19 21 14 28 44 12 54 -6 4 -26 51 -45 104 -59 170 -79 181 -136 73
-42 -81 -83 -127 -100 -110 -18 18 -21 85 -6 150 10 43 11 65 4 72 -15 15 -21
14 -44 -11z"/>
<path d="M16783 11549 c-64 -25 -98 -66 -84 -101 5 -13 28 -41 52 -61 24 -21
51 -44 59 -51 8 -7 26 -17 40 -21 40 -13 55 -37 51 -82 -2 -20 -57 -43 -104
-43 -49 0 -57 9 -57 61 0 53 -37 29 -54 -36 -8 -29 14 -65 54 -86 52 -28 97
-24 160 14 44 25 58 40 68 71 12 36 11 42 -12 77 -25 37 -79 80 -142 112 -73
38 -32 90 67 86 50 -3 68 8 69 38 0 37 -98 50 -167 22z"/>
<path d="M15459 11523 c-36 -42 -54 -186 -30 -231 6 -12 11 -29 11 -40 0 -28
33 -53 77 -59 51 -6 95 24 149 105 45 67 52 66 60 -8 7 -56 24 -89 55 -104 16
-8 31 -10 34 -6 3 5 -4 44 -15 86 -11 43 -20 86 -20 96 0 10 -9 48 -21 83 -15
47 -26 65 -38 65 -19 0 -51 -30 -51 -47 0 -6 -13 -39 -29 -75 -84 -184 -174
-164 -148 32 14 108 14 114 -4 118 -8 1 -22 -5 -30 -15z"/>
<path d="M11121 11496 c-16 -20 -17 -72 -1 -91 7 -8 10 -21 7 -30 -9 -22 13
-29 28 -9 17 23 18 126 2 136 -17 11 -23 10 -36 -6z"/>
<path d="M8745 11470 l-20 -22 25 -20 c23 -19 35 -20 172 -15 151 5 171 9 162
31 -10 25 -54 35 -186 42 -129 6 -134 6 -153 -16z"/>
<path d="M13568 11444 c-11 -23 -10 -28 7 -40 31 -23 82 -33 192 -39 115 -7
178 9 171 42 -3 15 -18 19 -78 25 -41 3 -115 13 -164 22 -114 21 -114 21 -128
-10z"/>
<path d="M4785 11296 c-24 -36 -32 -129 -15 -162 8 -13 16 -24 20 -24 27 0 50
164 27 194 -14 19 -15 19 -32 -8z"/>
<path d="M11110 11206 c-5 -5 -10 -45 -10 -89 0 -76 1 -78 23 -75 17 2 25 13
34 53 20 80 -9 149 -47 111z"/>
<path d="M4835 10950 c-4 -6 3 -31 14 -55 12 -25 21 -48 21 -53 0 -5 14 -21
31 -38 l32 -29 -7 30 c-3 17 -9 46 -12 65 -10 64 -25 90 -50 90 -12 0 -26 -5
-29 -10z"/>
<path d="M11194 10805 c-10 -25 38 -110 64 -113 27 -4 27 3 1 73 -15 41 -25
55 -40 55 -11 0 -22 -7 -25 -15z"/>
<path d="M2795 10683 c4 -21 11 -51 16 -68 8 -28 21 -77 49 -185 13 -52 94
-233 120 -270 10 -14 33 -54 52 -90 18 -36 45 -81 58 -100 14 -19 34 -55 46
-80 12 -25 34 -59 50 -75 16 -17 53 -60 83 -97 29 -38 56 -68 59 -68 4 0 14
-13 23 -29 21 -35 168 -159 269 -225 41 -27 86 -59 100 -71 31 -28 150 -97
255 -149 44 -21 82 -42 85 -46 10 -13 184 -100 201 -100 6 0 23 -8 37 -19 15
-10 45 -24 67 -31 22 -7 65 -23 95 -35 49 -19 98 -35 254 -81 26 -8 54 -14 62
-14 7 0 28 -7 46 -14 79 -35 169 -65 243 -81 44 -9 91 -21 105 -27 60 -25 204
-50 315 -54 66 -3 129 -7 140 -10 11 -3 47 -7 80 -10 33 -2 74 -9 90 -14 17
-5 111 -17 210 -25 99 -8 194 -18 212 -21 17 -3 44 -8 60 -10 15 -2 75 -11
133 -19 58 -9 119 -18 135 -19 17 -1 41 -5 55 -8 28 -7 203 -35 265 -42 72 -8
178 -27 187 -32 5 -3 90 -10 191 -15 100 -5 209 -11 242 -14 98 -9 308 -14
910 -19 314 -3 589 -8 613 -12 41 -6 42 -7 42 -43 0 -21 3 -41 7 -45 4 -4 8
-24 9 -46 1 -21 6 -45 10 -52 5 -7 8 -22 9 -32 0 -29 22 -30 47 -3 122 132
171 175 200 181 32 6 98 57 98 75 0 5 -6 14 -14 21 -8 6 -13 17 -10 24 7 19
-16 39 -97 88 -39 22 -99 67 -135 100 -68 61 -93 71 -101 39 -3 -11 -11 -22
-19 -25 -11 -4 -13 -25 -7 -110 l6 -104 -294 6 c-337 6 -451 7 -564 2 -76 -3
-460 7 -590 16 -33 2 -141 8 -240 14 -196 11 -323 24 -382 39 -21 5 -63 12
-93 16 -30 3 -100 13 -155 21 -55 9 -145 22 -200 30 -55 8 -107 16 -115 19
-28 9 -162 26 -270 35 -156 13 -363 37 -380 44 -19 8 -302 36 -310 31 -4 -2
-38 0 -76 6 -111 15 -207 38 -404 98 -69 21 -143 43 -165 48 -22 6 -53 16 -70
22 -16 6 -88 29 -160 51 -116 36 -309 114 -390 158 -16 9 -66 34 -110 57 -44
23 -113 63 -154 89 -40 26 -92 57 -115 67 -82 38 -357 249 -423 325 -108 123
-161 191 -204 260 -24 38 -50 79 -56 90 -64 100 -174 300 -194 354 -10 28 -23
58 -29 68 -5 9 -21 66 -36 126 -34 143 -39 156 -64 156 -19 0 -20 -4 -15 -37z"/>
<path d="M5084 10676 c-10 -27 16 -55 64 -70 69 -20 77 -3 22 45 -47 40 -77
49 -86 25z"/>
<path d="M20917 10622 c-15 -17 -16 -28 -3 -128 14 -117 32 -169 56 -169 12 0
15 17 14 95 -2 181 -8 220 -34 220 -9 0 -24 -8 -33 -18z"/>
<path d="M19986 10597 c-22 -16 -35 -83 -35 -189 l-1 -78 -39 0 c-54 0 -105
-36 -109 -77 -4 -36 -51 -83 -84 -83 -24 0 -78 37 -78 53 0 7 20 20 45 31 46
18 85 57 85 83 0 16 -80 53 -114 53 -64 0 -116 -45 -116 -100 0 -13 -7 -20
-19 -20 -28 0 -78 31 -89 55 -8 17 -5 24 20 38 16 9 37 17 47 17 23 0 61 28
61 46 0 19 -52 18 -126 -1 -32 -8 -58 -14 -60 -12 -1 1 -4 22 -8 47 -11 90
-19 120 -33 131 -29 24 -37 -7 -39 -144 -1 -85 -7 -145 -16 -168 -7 -20 -14
-52 -13 -70 0 -31 3 -34 31 -37 30 -3 31 -2 44 57 7 34 15 61 17 61 2 0 25
-16 51 -36 41 -31 53 -35 96 -33 47 3 50 1 70 -34 11 -20 28 -37 36 -37 8 0
30 -9 49 -21 43 -26 84 -18 122 24 26 28 29 29 44 13 43 -43 112 -31 179 30
40 37 46 47 36 59 -27 32 -36 123 -23 224 16 124 10 148 -31 118z m-286 -278
c0 -13 -36 -29 -64 -29 -19 0 -26 5 -26 18 0 10 2 21 4 23 8 8 86 -3 86 -12z
m256 -68 l25 -19 -23 -16 c-40 -29 -88 -15 -88 25 0 32 50 38 86 10z"/>
<path d="M11428 10586 c-16 -12 -16 -14 5 -33 25 -23 128 -76 134 -69 9 9 -18
45 -59 80 -46 39 -54 42 -80 22z"/>
<path d="M16892 10583 c-9 -18 13 -144 43 -239 6 -18 2 -22 -24 -27 -37 -8
-54 -38 -53 -95 0 -59 23 -82 78 -82 34 0 47 5 63 26 30 38 27 44 -26 41 -44
-2 -48 0 -51 22 -4 23 -2 23 36 17 62 -9 70 8 42 96 -13 39 -31 112 -40 162
-14 79 -19 91 -37 94 -13 2 -25 -4 -31 -15z"/>
<path d="M18649 10588 c0 -2 -2 -82 -4 -178 -1 -97 -5 -185 -9 -197 -4 -12 -2
-24 4 -28 5 -3 10 -14 10 -25 0 -25 29 -34 50 -15 9 8 25 15 36 15 69 0 154
53 154 97 0 55 -54 112 -125 131 -36 10 -45 16 -46 34 -3 123 -17 168 -49 168
-11 0 -20 -1 -21 -2z m158 -276 c6 -4 14 -19 18 -33 6 -24 2 -28 -34 -43 -69
-27 -81 -23 -81 27 0 24 3 47 7 50 9 9 75 9 90 -1z"/>
<path d="M5428 10529 c-10 -6 -18 -16 -18 -24 0 -16 104 -52 173 -60 46 -6 48
-5 37 14 -12 24 -60 51 -88 51 -10 0 -22 4 -27 9 -17 15 -59 20 -77 10z"/>
<path d="M15424 10503 c3 -10 8 -40 11 -68 4 -27 9 -58 12 -69 5 -16 1 -18
-29 -12 -21 4 -40 1 -51 -6 -16 -12 -16 -15 -2 -35 9 -12 31 -25 49 -29 42 -7
45 -18 34 -123 -8 -77 -7 -86 10 -103 33 -33 48 -4 57 106 4 62 11 96 18 96 7
1 38 2 70 3 39 1 61 7 67 17 16 24 12 27 -37 34 -72 10 -112 25 -117 44 -2 9
-8 33 -12 52 -10 51 -46 110 -67 110 -13 0 -17 -5 -13 -17z"/>
<path d="M20422 10507 c-17 -20 -3 -54 24 -60 28 -5 34 0 34 28 0 38 -36 58
-58 32z"/>
<path d="M17936 10427 c-26 -19 -17 -51 17 -55 31 -4 47 20 30 46 -13 22 -26
24 -47 9z"/>
<path d="M14690 10410 c-14 -4 -49 -8 -79 -9 -70 -1 -85 -18 -64 -76 15 -42
20 -85 27 -244 5 -98 12 -116 39 -105 21 8 30 51 25 122 l-3 57 79 1 c54 0 81
4 84 12 7 23 -19 40 -82 53 -78 15 -93 26 -98 69 l-3 35 75 21 c66 19 104 43
89 58 -11 11 -64 15 -89 6z"/>
<path d="M18163 10398 c-43 -47 -38 -93 17 -186 11 -18 18 -37 15 -42 -3 -5
-26 -12 -50 -16 -54 -8 -63 -18 -38 -46 15 -17 27 -19 71 -16 90 8 135 65 84
108 -21 18 -57 76 -67 108 -5 17 1 29 25 52 37 35 35 54 -6 58 -21 2 -36 -4
-51 -20z"/>
<path d="M20655 10399 c-11 -6 -35 -33 -52 -61 -29 -44 -33 -59 -33 -118 0
-70 6 -80 49 -80 15 0 20 15 30 82 13 93 33 126 56 94 8 -10 19 -44 25 -75 20
-105 24 -116 49 -119 13 -2 27 0 31 5 11 11 -22 159 -44 203 -38 73 -67 91
-111 69z"/>
<path d="M11797 10370 c-24 -29 -11 -47 36 -53 23 -2 52 -8 65 -12 21 -7 23
-5 20 21 -5 46 -92 78 -121 44z"/>
<path d="M17127 10365 c-15 -14 -39 -49 -52 -79 l-23 -53 20 -34 c44 -73 120
-123 172 -113 38 7 116 67 103 80 -4 4 -27 -2 -51 -14 l-44 -21 -43 22 c-23
12 -49 32 -56 43 -13 20 -11 23 29 42 42 19 98 67 98 82 0 5 -16 22 -35 39
-43 38 -80 39 -118 6z m78 -38 c17 -13 16 -15 -15 -25 -55 -20 -67 -16 -40 13
27 29 30 30 55 12z"/>
<path d="M19055 10365 c-62 -28 -145 -108 -145 -141 0 -29 33 -61 72 -69 32
-7 56 5 119 62 l39 35 10 -27 c5 -14 10 -30 10 -34 0 -14 34 -39 63 -46 31 -8
34 0 13 42 -28 56 -46 104 -46 122 0 24 -27 54 -60 68 -20 8 -35 6 -75 -12z
m29 -82 c-9 -34 -52 -72 -81 -73 -34 0 -28 23 17 64 49 44 73 48 64 9z"/>
<path d="M5814 10366 c-17 -13 -17 -16 -4 -30 19 -18 142 -48 153 -36 16 15
-3 46 -38 63 -44 21 -85 22 -111 3z"/>
<path d="M16622 10368 c-5 -7 -21 -36 -35 -64 -22 -43 -25 -59 -20 -115 3 -35
11 -72 18 -81 11 -16 13 -16 34 -1 21 14 22 21 17 64 -7 50 2 129 14 129 14 0
51 -89 57 -135 8 -63 37 -92 62 -61 21 26 -30 207 -72 254 -22 24 -59 29 -75
10z"/>
<path d="M17473 10355 c-17 -8 -34 -19 -38 -25 -4 -6 -15 -8 -25 -5 -10 3 -25
-2 -35 -11 -14 -14 -15 -28 -10 -78 8 -79 13 -93 31 -100 32 -12 54 12 54 60
0 39 5 51 34 80 29 29 42 34 83 35 81 3 86 4 90 14 11 33 -127 56 -184 30z"/>
<path d="M14830 10330 c-19 -17 -21 -22 -10 -35 19 -22 64 -15 68 10 1 11 -6
25 -17 32 -16 10 -23 9 -41 -7z"/>
<path d="M20150 10330 c-17 -33 3 -49 58 -48 63 1 115 22 110 45 -3 15 -16 18
-80 21 -69 3 -78 1 -88 -18z"/>
<path d="M20432 10328 c-16 -34 -24 -96 -17 -128 6 -29 40 -50 55 -33 12 12
19 146 9 166 -13 24 -33 21 -47 -5z"/>
<path d="M16174 10330 c-11 -4 -33 -22 -47 -40 -15 -17 -27 -27 -27 -21 0 6
-9 11 -20 11 -29 0 -37 -45 -17 -101 10 -26 17 -53 17 -62 0 -8 6 -20 13 -26
25 -20 45 10 56 84 9 64 14 73 52 108 23 20 40 39 38 41 -11 10 -46 14 -65 6z"/>
<path d="M6195 10303 c-19 -19 -9 -40 23 -46 79 -16 153 -19 167 -7 19 16 10
30 -19 30 -12 0 -26 3 -30 8 -4 4 -35 12 -68 18 -48 9 -62 8 -73 -3z"/>
<path d="M16337 10292 c-15 -15 -27 -33 -27 -40 0 -7 -6 -12 -14 -12 -21 0
-38 -27 -31 -50 3 -11 13 -20 21 -20 8 0 14 -9 14 -21 0 -42 43 -94 87 -105
49 -13 133 16 133 46 0 12 -10 14 -49 12 -56 -4 -88 9 -100 41 -7 19 -2 25 43
47 32 16 56 36 64 53 13 26 12 31 -9 53 -33 35 -96 34 -132 -4z"/>
<path d="M15210 10293 c-47 -24 -45 -60 5 -108 l37 -34 -36 -15 c-27 -11 -36
-21 -36 -39 0 -50 106 -42 153 11 25 28 16 50 -39 90 -45 33 -50 52 -13 52 16
0 20 6 17 28 -4 34 -38 40 -88 15z"/>
<path d="M6730 10285 c-18 -22 -5 -45 27 -46 15 0 49 -2 76 -4 60 -5 64 16 7
45 -46 24 -93 26 -110 5z"/>
<path d="M7188 10293 c-10 -2 -18 -9 -18 -14 0 -5 -7 -9 -15 -9 -17 0 -19 -18
-5 -40 7 -12 16 -13 54 -2 25 6 70 15 101 18 97 12 58 55 -48 53 -29 -1 -60
-3 -69 -6z"/>
<path d="M8105 10287 c-52 -31 -34 -56 38 -56 29 0 76 -4 105 -9 42 -7 55 -6
59 4 8 22 -6 33 -73 54 -75 23 -100 24 -129 7z"/>
<path d="M17930 10281 c-7 -14 -7 -27 -1 -38 5 -10 12 -40 16 -68 11 -86 14
-95 35 -95 11 0 24 9 31 21 13 26 5 128 -13 167 -17 34 -53 41 -68 13z"/>
<path d="M12137 10283 c-20 -19 -3 -41 46 -61 68 -28 97 -29 97 -1 0 14 -11
24 -37 35 -21 8 -46 19 -55 24 -21 12 -42 13 -51 3z"/>
<path d="M7643 10264 c-34 -8 -47 -29 -29 -47 16 -15 56 -16 159 -1 50 7 56
14 32 34 -15 13 -124 22 -162 14z"/>
<path d="M15025 10238 c-39 -22 -45 -40 -41 -116 3 -77 20 -110 50 -99 13 5
16 22 14 83 -1 66 2 78 18 88 10 6 24 11 29 11 24 1 36 17 24 31 -14 17 -66
18 -94 2z"/>
<path d="M20970 10227 c-30 -16 -30 -52 0 -81 19 -19 20 -19 40 -1 22 20 27
64 8 83 -15 15 -17 15 -48 -1z"/>
<path d="M12482 10188 c-7 -7 -12 -17 -12 -22 1 -17 105 -76 134 -76 45 0 30
27 -46 83 -40 30 -58 33 -76 15z"/>
<path d="M14831 10172 c-16 -30 19 -132 45 -132 22 0 28 49 12 99 -15 50 -40
64 -57 33z"/>
<path d="M13640 10128 c-24 -56 -58 -105 -125 -178 -65 -71 -81 -100 -64 -111
8 -4 28 -8 44 -7 42 1 103 -14 218 -55 91 -32 140 -37 153 -16 3 5 -11 42 -31
84 -20 41 -39 90 -42 109 -5 32 -4 34 48 58 124 58 245 86 407 94 145 7 150 8
127 34 -19 21 -39 23 -210 21 -76 -1 -119 -7 -180 -26 -97 -30 -188 -67 -209
-84 -13 -11 -16 -8 -22 16 -15 63 -46 113 -69 113 -18 0 -27 -11 -45 -52z"/>
<path d="M8582 10149 c-15 -5 -22 -16 -20 -26 2 -14 17 -19 60 -24 32 -4 69
-14 82 -23 50 -32 77 -8 38 34 -38 41 -112 59 -160 39z"/>
<path d="M8937 10058 c-10 -5 -17 -17 -17 -27 0 -13 25 -27 96 -55 110 -43
139 -45 103 -6 -62 67 -148 108 -182 88z"/>
<path d="M12825 9984 c-16 -17 -16 -18 1 -31 10 -7 33 -17 52 -23 19 -5 43
-16 53 -26 22 -20 39 -11 39 21 0 46 -112 91 -145 59z"/>
<path d="M9322 9838 c-26 -26 -12 -45 56 -73 37 -16 78 -37 91 -47 26 -20 61
-24 61 -8 0 6 -19 31 -41 55 -30 32 -55 49 -86 56 -24 7 -46 15 -49 20 -7 12
-18 11 -32 -3z"/>
<path d="M13143 9813 c-26 -10 -12 -41 36 -81 94 -79 118 -37 32 56 -29 31
-42 36 -68 25z"/>
<path d="M9677 9664 c-14 -15 -6 -44 16 -58 25 -17 99 -15 121 3 23 19 8 50
-23 49 -14 -1 -44 1 -66 6 -22 4 -44 4 -48 0z"/>
<path d="M13376 9585 c-5 -19 1 -32 29 -60 63 -63 88 -35 38 43 -31 47 -58 54
-67 17z"/>
<path d="M3074 9563 c-19 -60 -53 -130 -69 -143 -8 -7 -15 -17 -15 -22 0 -6
-18 -32 -41 -59 -41 -49 -45 -73 -14 -85 10 -4 29 7 52 29 20 20 39 34 43 32
5 -3 15 -25 23 -50 17 -50 84 -155 98 -155 26 0 19 39 -19 114 -22 45 -43 91
-47 103 -6 22 -4 23 38 17 80 -11 157 35 157 94 0 70 -187 183 -206 125z m147
-115 c13 -24 -25 -48 -77 -48 -61 0 -72 19 -38 69 l27 41 39 -22 c22 -13 44
-30 49 -40z"/>
<path d="M9904 9556 c-11 -28 4 -45 43 -51 21 -3 47 -10 58 -14 27 -11 95 -2
95 13 0 16 -86 52 -143 61 -38 5 -48 3 -53 -9z"/>
<path d="M10190 9506 c-19 -7 -36 -20 -38 -29 -3 -15 7 -17 70 -18 40 -1 80
-2 88 -3 44 -5 68 43 25 51 -64 11 -114 11 -145 -1z"/>
<path d="M10570 9456 c0 -9 26 -22 69 -35 96 -29 136 -12 69 29 -40 24 -138
28 -138 6z"/>
<path d="M10970 9370 c0 -5 5 -10 11 -10 5 0 8 -4 5 -9 -6 -10 85 -71 107 -71
45 0 18 48 -45 81 -40 21 -78 25 -78 9z"/>
<path d="M16090 9330 c-25 -3 -60 -13 -79 -23 l-34 -19 21 -21 c21 -20 23 -20
57 -4 20 9 59 17 89 17 60 0 69 5 56 30 -11 21 -47 27 -110 20z"/>
<path d="M16398 9318 c-30 -10 -33 -15 -19 -37 6 -10 23 -12 60 -9 62 6 70 12
46 38 -20 22 -45 24 -87 8z"/>
<path d="M16730 9315 c-23 -28 -4 -45 49 -45 27 0 56 -3 65 -6 27 -10 18 25
-9 38 -14 6 -25 15 -25 20 0 14 -67 9 -80 -7z"/>
<path d="M15653 9287 c-7 -15 -9 -28 -5 -30 4 -2 42 -5 85 -5 58 -1 77 2 77
12 0 24 -28 38 -87 43 -56 5 -59 4 -70 -20z"/>
<path d="M15257 9287 c-13 -9 -17 -20 -12 -39 6 -24 9 -25 43 -16 20 6 56 12
80 15 32 4 42 9 42 23 0 21 -15 26 -85 29 -29 1 -58 -4 -68 -12z"/>
<path d="M14948 9283 c-17 -4 -36 -49 -25 -59 3 -3 40 0 81 7 59 10 76 17 74
28 -5 24 -79 37 -130 24z"/>
<path d="M13631 9251 c-22 -22 -20 -73 6 -124 12 -23 17 -26 34 -17 14 8 17
15 11 26 -5 9 -7 37 -4 63 5 60 -15 84 -47 52z"/>
<path d="M16893 9233 c-8 -3 -13 -23 -13 -49 0 -25 -4 -53 -9 -62 -4 -9 -11
-29 -15 -44 -6 -25 -3 -28 18 -28 19 0 27 9 40 40 27 69 14 155 -21 143z"/>
<path d="M3257 9212 c-10 -10 -17 -24 -17 -30 0 -6 -12 -12 -27 -14 -20 -2
-27 -8 -23 -18 2 -8 5 -44 5 -80 1 -36 8 -78 16 -95 18 -37 73 -75 99 -68 31
8 34 22 7 32 -41 16 -68 60 -65 105 3 39 4 41 33 37 17 -2 62 -5 100 -5 65 -1
70 1 73 21 5 36 -36 83 -95 109 -64 29 -85 30 -106 6z m87 -53 c14 -7 27 -18
31 -27 4 -12 -2 -14 -36 -9 -45 6 -65 19 -55 36 9 14 29 14 60 0z"/>
<path d="M11245 9201 c-6 -10 32 -81 50 -93 5 -4 20 -8 33 -8 36 0 26 32 -22
73 -48 40 -52 42 -61 28z"/>
<path d="M14593 9188 c-21 -7 -34 -19 -38 -36 -10 -41 8 -45 68 -15 90 45 68
82 -30 51z"/>
<path d="M3455 9032 c-20 -22 -45 -52 -56 -69 -19 -29 -18 -30 2 -52 l21 -22
45 61 c37 51 48 61 66 56 12 -3 25 -6 30 -6 4 0 7 -26 7 -57 0 -44 -6 -68 -30
-110 -46 -82 -23 -128 31 -60 89 113 64 297 -41 297 -30 0 -45 -8 -75 -38z"/>
<path d="M3903 9048 c-23 -26 -52 -79 -82 -152 -21 -48 -21 -48 -46 -32 -13 9
-45 16 -70 16 -40 0 -47 -3 -65 -32 -25 -42 -25 -72 1 -114 27 -44 47 -54 104
-54 42 0 95 22 95 40 0 4 -24 7 -53 6 -93 -1 -139 52 -79 92 21 14 24 12 57
-22 41 -44 66 -44 76 -1 8 39 83 192 110 227 37 45 -8 70 -48 26z"/>
<path d="M14356 8980 c-20 -51 -21 -116 -2 -123 17 -7 41 17 32 31 -3 5 1 35
9 66 18 70 19 66 -4 66 -13 0 -24 -13 -35 -40z"/>
<path d="M11460 8986 c0 -35 27 -93 47 -100 42 -17 48 81 7 111 -29 21 -54 16
-54 -11z"/>
<path d="M13691 8961 c-15 -9 -18 -118 -3 -133 19 -19 41 18 44 77 3 61 -8 77
-41 56z"/>
<path d="M16933 8958 c-6 -8 -10 -98 -9 -226 1 -224 3 -231 48 -232 25 0 30
44 26 247 -3 161 -5 183 -22 202 -22 24 -30 26 -43 9z"/>
<path d="M18328 8953 c-16 -15 -14 -20 30 -77 26 -34 52 -64 59 -69 6 -4 27
-29 47 -56 35 -47 121 -120 159 -134 10 -4 17 -11 15 -15 -2 -5 -40 -41 -85
-80 -78 -69 -218 -216 -237 -249 -6 -12 -3 -20 10 -30 33 -24 22 -32 182 132
43 44 111 109 150 144 67 60 91 101 58 101 -20 0 -306 285 -306 306 0 8 -50
44 -62 44 -2 0 -11 -7 -20 -17z"/>
<path d="M16340 8880 c-47 -10 -172 -70 -204 -98 -28 -25 -102 -143 -111 -177
-5 -16 -8 -70 -7 -118 1 -87 2 -90 43 -154 70 -107 145 -151 271 -158 64 -4
99 -1 158 15 226 63 246 70 262 105 20 45 0 47 -123 15 -234 -63 -317 -69
-407 -30 -117 51 -173 195 -124 317 24 59 85 129 133 154 59 30 163 60 212 61
81 1 161 -28 206 -76 23 -24 44 -140 29 -167 -4 -8 -15 -31 -24 -52 -19 -43
-48 -59 -79 -45 -28 12 -69 82 -89 149 -20 68 -51 119 -72 119 -9 0 -28 -8
-42 -18 -15 -10 -45 -27 -67 -36 -85 -38 -165 -140 -165 -210 0 -28 7 -41 37
-65 83 -69 213 -46 262 47 6 12 16 22 21 22 5 0 30 -20 54 -45 38 -38 52 -45
83 -45 58 1 93 38 133 142 13 36 20 77 20 127 l0 75 -54 52 c-80 78 -124 97
-226 100 -47 2 -105 -1 -130 -6z m66 -267 c22 -53 12 -100 -29 -141 -42 -42
-111 -55 -152 -28 -34 22 -32 55 8 104 32 39 120 102 144 102 7 0 20 -17 29
-37z"/>
<path d="M17503 8841 c-26 -22 -88 -73 -138 -115 -49 -42 -107 -84 -127 -94
-21 -9 -40 -23 -43 -30 -8 -21 12 -49 39 -56 14 -3 53 -28 88 -54 101 -77 153
-110 184 -118 16 -4 34 -10 40 -15 13 -11 51 0 58 16 3 8 -19 25 -57 45 -57
30 -194 127 -216 154 -7 8 32 47 129 130 77 66 142 127 145 137 17 52 -38 52
-102 0z"/>
<path d="M14755 8864 c-103 -17 -137 -40 -184 -126 -64 -117 -87 -250 -63
-358 25 -111 79 -177 183 -222 78 -35 238 -39 335 -8 102 31 158 61 162 86 6
39 -31 38 -148 -5 -42 -16 -80 -20 -165 -21 -101 0 -115 2 -170 29 -80 37
-108 73 -130 161 -19 79 -17 116 17 222 29 95 67 135 143 153 127 30 290 13
369 -39 35 -22 66 -86 64 -132 -3 -71 -91 -184 -132 -168 -23 9 -64 85 -81
151 -39 153 -83 160 -207 33 -88 -90 -121 -142 -109 -173 13 -33 91 -93 138
-106 64 -18 138 4 171 51 13 17 15 17 46 -7 18 -14 44 -25 58 -25 35 0 124 91
155 159 22 46 25 62 19 114 -16 153 -121 223 -346 232 -52 2 -108 1 -125 -1z
m115 -268 c0 -13 8 -42 18 -64 25 -55 18 -110 -15 -123 -42 -16 -95 -10 -130
14 -53 36 -42 70 51 158 48 45 76 51 76 15z"/>
<path d="M17852 8841 c-12 -17 -34 -52 -48 -78 -15 -26 -44 -71 -65 -100 -22
-29 -45 -65 -51 -80 -7 -15 -28 -49 -46 -75 -36 -50 -38 -74 -9 -92 27 -17 47
2 100 95 27 46 57 93 67 104 29 32 122 224 116 240 -9 24 -41 17 -64 -14z"/>
<path d="M10445 8830 c-10 -11 -39 -30 -64 -42 -25 -12 -84 -59 -131 -105 -47
-46 -108 -98 -135 -116 -41 -27 -50 -37 -50 -62 0 -21 7 -33 23 -41 13 -6 69
-50 126 -97 116 -97 187 -147 208 -147 7 0 19 -9 26 -20 15 -24 40 -26 49 -4
9 25 -27 79 -71 106 -23 14 -92 64 -153 112 l-110 87 51 53 c28 29 63 59 77
67 41 22 207 162 214 180 16 44 -27 65 -60 29z"/>
<path d="M11701 8836 c-9 -10 -11 -33 -8 -68 3 -29 0 -169 -6 -311 l-11 -257
22 -22 c14 -14 25 -19 31 -13 6 6 13 80 17 166 l7 155 70 -2 c38 -2 91 -8 117
-15 55 -14 54 -11 66 -154 9 -111 36 -172 60 -134 7 12 6 129 -2 184 -2 17 -6
122 -10 235 -6 230 -8 250 -29 250 -27 0 -34 -38 -36 -183 l-1 -146 -32 6
c-17 3 -51 11 -76 17 -25 7 -56 10 -70 6 -48 -12 -55 -4 -52 58 1 31 -1 97 -5
147 -6 70 -11 90 -24 93 -9 1 -22 -4 -28 -12z"/>
<path d="M16837 8822 c-15 -16 -15 -22 0 -67 9 -28 18 -56 19 -62 2 -7 10 -13
18 -13 20 0 23 16 18 93 -4 55 -7 67 -22 67 -9 0 -24 -8 -33 -18z"/>
<path d="M12643 8808 c-7 -16 -6 -69 3 -169 7 -80 14 -206 16 -279 3 -117 5
-134 22 -146 36 -25 46 -1 46 110 -1 174 -33 486 -52 497 -20 13 -24 11 -35
-13z"/>
<path d="M11150 8795 c-11 -20 -11 -27 0 -40 7 -8 19 -15 26 -15 8 0 14 -6 14
-14 0 -7 12 -22 28 -32 37 -24 202 -175 202 -185 0 -4 -10 -19 -22 -32 -13
-13 -42 -51 -65 -83 -23 -33 -60 -84 -83 -114 -22 -30 -40 -63 -40 -73 0 -20
32 -37 38 -19 2 7 10 12 17 12 8 0 20 11 27 24 25 47 126 181 182 243 51 55
55 64 46 87 -8 22 -14 25 -35 20 -25 -6 -36 3 -159 136 -38 41 -131 110 -149
110 -7 0 -20 -11 -27 -25z"/>
<path d="M15510 8797 c-55 -27 -100 -63 -115 -92 -13 -27 -13 -31 2 -42 14
-11 20 -10 37 6 12 11 44 29 71 41 62 27 146 24 175 -6 22 -22 46 -148 36
-187 -5 -23 -9 -25 -36 -17 -55 16 -161 6 -213 -19 -59 -29 -79 -64 -74 -130
5 -57 10 -67 45 -84 69 -34 142 -12 238 69 28 24 55 44 61 44 13 0 101 -89
121 -123 20 -34 46 -31 50 5 3 21 -12 45 -63 108 -37 44 -70 80 -74 80 -4 0
-7 48 -7 108 -1 128 -15 174 -67 216 -32 25 -48 31 -100 33 -34 1 -73 -3 -87
-10z m170 -376 c0 -15 -73 -73 -119 -93 -70 -32 -120 -13 -121 44 0 13 51 41
88 49 54 10 152 10 152 0z"/>
<path d="M18073 8799 c-57 -12 -98 -61 -69 -82 16 -13 25 -123 13 -162 -3 -11
-3 -54 1 -97 8 -83 -3 -270 -18 -298 -12 -22 5 -40 37 -40 16 0 27 8 33 25 9
24 20 146 23 260 2 47 3 50 27 47 76 -8 126 -2 169 21 109 55 92 151 -45 263
-61 49 -126 73 -171 63z m155 -125 c53 -47 62 -61 62 -90 0 -25 -6 -38 -26
-50 -28 -19 -109 -30 -148 -20 -26 6 -26 8 -26 105 0 54 3 101 7 104 3 4 21 7
38 7 24 0 46 -13 93 -56z"/>
<path d="M11561 8781 c-21 -39 -22 -78 -1 -102 20 -24 20 -24 35 -5 18 24 19
66 3 101 -13 30 -24 32 -37 6z"/>
<path d="M12942 8787 c-6 -7 -12 -35 -14 -62 -2 -41 15 -301 27 -420 1 -16 3
-50 4 -75 1 -34 6 -48 22 -58 14 -9 25 -10 31 -4 13 13 -5 415 -24 545 -12 85
-23 102 -46 74z"/>
<path d="M3960 8781 c-56 -18 -90 -42 -97 -69 -3 -15 -12 -33 -20 -40 -20 -20
-17 -29 25 -73 28 -30 51 -43 94 -54 56 -14 112 -15 126 -1 8 9 -19 27 -30 20
-4 -3 -18 2 -30 9 -13 8 -38 17 -57 21 -42 8 -71 32 -71 59 0 17 4 19 33 12
69 -15 103 -16 130 -6 23 9 27 16 27 49 0 24 -7 45 -17 55 -22 19 -80 29 -113
18z"/>
<path d="M14331 8680 c-11 -48 -11 -63 -1 -75 7 -8 15 -13 19 -10 12 7 34 112
28 129 -13 34 -33 15 -46 -44z"/>
<path d="M10693 8690 c-24 -10 -30 -39 -14 -55 6 -6 17 -56 26 -112 15 -95 15
-104 -1 -128 -16 -24 -16 -27 2 -46 17 -19 19 -40 19 -235 0 -163 3 -216 13
-226 11 -11 17 -9 33 11 20 24 25 66 10 75 -5 3 -7 39 -4 78 4 70 4 181 0 242
-2 27 2 31 39 40 23 6 48 16 55 22 8 6 33 16 56 24 83 26 139 114 112 173 -12
26 -112 101 -149 112 -14 4 -29 11 -35 15 -16 13 -138 20 -162 10z m163 -74
c22 -7 44 -11 49 -9 6 2 28 -14 49 -36 29 -30 37 -45 34 -67 -3 -25 -14 -34
-78 -66 -41 -21 -90 -41 -107 -44 l-33 -6 0 53 c0 30 -4 81 -10 113 -5 32 -7
63 -4 67 8 13 56 11 100 -5z"/>
<path d="M4200 8667 c-46 -23 -62 -36 -55 -48 3 -3 -4 -23 -15 -44 -18 -36
-19 -40 -3 -57 25 -28 39 -22 61 26 21 43 73 86 105 86 8 0 36 -9 61 -20 25
-10 46 -16 46 -12 0 5 -20 27 -45 50 -54 49 -86 54 -155 19z"/>
<path d="M4830 8664 c-6 -14 -10 -30 -10 -35 0 -5 -12 -37 -26 -71 -16 -37
-23 -70 -20 -84 15 -58 -20 -97 -65 -74 -12 7 -36 9 -55 5 -70 -13 -83 -109
-22 -160 27 -22 38 -26 70 -21 20 3 53 14 72 24 37 18 48 42 20 42 -13 0 -14
3 -4 15 7 8 10 24 7 35 -6 22 21 150 34 165 5 5 9 17 9 27 0 9 12 43 26 74 14
31 23 62 20 70 -9 24 -46 16 -56 -12z m-87 -346 l32 -32 -35 -8 c-52 -11 -89
-1 -96 27 -8 33 2 45 37 45 21 0 41 -10 62 -32z"/>
<path d="M4463 8600 c-17 -4 -46 -19 -63 -34 -17 -14 -35 -26 -39 -26 -4 0
-16 -18 -26 -40 -25 -56 -13 -103 37 -143 33 -27 47 -31 118 -35 54 -3 80 -1
80 6 0 6 -17 14 -37 18 -44 8 -137 50 -153 69 -17 20 6 69 28 60 9 -4 41 -9
70 -12 46 -5 56 -3 77 17 31 29 33 72 3 100 -12 11 -25 20 -29 20 -4 0 -13 2
-21 4 -7 2 -27 1 -45 -4z m61 -69 c7 -11 -17 -21 -49 -21 -25 0 -39 12 -28 24
10 9 71 7 77 -3z"/>
<path d="M13683 8598 c-20 -25 -24 -59 -11 -88 7 -17 16 -30 19 -30 31 0 48
122 18 128 -9 1 -20 -3 -26 -10z"/>
<path d="M12237 8561 c-44 -22 -62 -63 -59 -139 2 -48 -1 -64 -13 -68 -16 -6
-21 -44 -7 -44 5 0 29 -15 53 -34 24 -18 58 -38 74 -43 52 -17 225 -4 225 17
0 4 9 10 21 13 26 7 19 33 -7 30 -105 -13 -264 3 -264 27 0 3 29 17 65 29 55
20 70 30 100 72 51 71 45 108 -22 142 -39 21 -122 20 -166 -2z m117 -47 c41
-6 46 -9 46 -33 0 -19 -10 -32 -36 -49 -34 -22 -106 -52 -125 -52 -5 0 -9 23
-9 50 0 37 5 55 20 70 22 22 33 23 104 14z"/>
<path d="M5339 8549 c-11 -6 -17 -23 -17 -50 -1 -38 -7 -82 -18 -121 -4 -14
-16 -18 -50 -18 -30 0 -44 -4 -44 -13 0 -18 28 -43 58 -52 18 -5 21 -11 16
-28 -19 -58 -22 -91 -11 -109 21 -33 41 -16 61 55 19 66 20 67 55 68 20 1 48
0 64 -1 18 -1 27 3 27 13 0 22 -25 38 -70 44 l-40 6 6 96 c5 76 4 99 -7 108
-9 7 -20 8 -30 2z"/>
<path d="M11571 8533 c-5 -10 -12 -39 -16 -65 -6 -39 -4 -49 9 -54 37 -14 70
63 47 112 -13 28 -27 31 -40 7z"/>
<path d="M13211 8510 c-53 -24 -124 -116 -116 -150 11 -46 50 -114 76 -133 25
-18 29 -18 130 -1 107 17 175 49 199 94 15 27 12 87 -5 120 -33 65 -202 106
-284 70z m152 -49 c67 -16 107 -75 79 -117 -34 -51 -167 -56 -242 -9 -22 14
-40 31 -40 38 0 20 63 77 96 87 38 11 61 11 107 1z"/>
<path d="M16810 8425 c-10 -12 -10 -26 1 -72 17 -70 34 -78 49 -22 22 80 -11
141 -50 94z"/>
<path d="M14340 8380 c0 -11 -5 -30 -11 -42 -12 -28 4 -82 23 -76 14 5 36 85
30 110 -6 24 -42 31 -42 8z"/>
<path d="M6563 8353 c-8 -3 -13 -24 -13 -51 0 -26 -7 -85 -15 -132 -39 -220
-40 -232 -20 -246 10 -8 22 -14 26 -14 4 0 10 30 14 68 3 37 10 81 15 97 5 17
16 84 25 149 12 96 13 121 3 128 -14 9 -17 9 -35 1z"/>
<path d="M5549 8301 c-29 -29 -45 -37 -63 -34 -33 7 -41 -12 -18 -45 15 -21
17 -34 10 -60 -28 -103 141 -178 246 -110 46 30 46 42 -1 33 -113 -21 -193 1
-193 53 0 39 15 50 63 45 61 -7 117 18 117 52 0 24 -32 80 -55 97 -26 19 -68
7 -106 -31z m108 -37 c8 -21 -15 -35 -50 -30 -37 6 -43 12 -27 31 17 20 69 20
77 -1z"/>
<path d="M14062 8251 c-23 -49 -57 -107 -77 -131 -19 -23 -33 -45 -30 -50 10
-16 46 -18 60 -3 68 67 133 236 101 262 -9 8 -22 -10 -54 -78z"/>
<path d="M16956 8324 c-34 -34 -15 -74 35 -74 20 0 36 40 24 59 -14 24 -43 31
-59 15z"/>
<path d="M7075 8300 c-3 -5 -3 -16 2 -22 4 -7 10 -46 13 -86 4 -64 3 -72 -13
-72 -9 0 -26 5 -36 12 -23 14 -53 4 -45 -16 3 -8 26 -27 50 -41 24 -14 44 -30
44 -35 0 -9 -10 -36 -38 -99 -17 -41 -7 -65 29 -69 21 -2 27 5 46 55 11 32 24
70 27 86 5 21 12 27 32 27 30 0 84 26 84 41 0 5 -10 9 -22 8 -70 -6 -98 13
-98 69 0 63 -12 110 -32 131 -21 23 -34 26 -43 11z"/>
<path d="M11530 8285 c-7 -8 -10 -18 -7 -22 4 -3 3 -11 -2 -17 -5 -6 -11 -28
-15 -48 -6 -31 -4 -37 15 -43 32 -11 44 10 44 77 0 63 -12 81 -35 53z"/>
<path d="M5870 8262 c-32 -16 -35 -22 -51 -99 -13 -69 -14 -85 -3 -94 24 -20
41 -3 64 65 24 68 40 84 40 42 0 -27 33 -56 62 -56 9 0 30 13 45 29 15 16 37
31 48 33 18 3 21 -4 26 -80 5 -66 11 -87 27 -103 12 -10 24 -19 27 -19 3 0 4
30 1 68 -3 37 -5 91 -5 120 -1 38 -6 57 -21 72 l-20 20 -48 -24 c-27 -13 -54
-32 -61 -40 -18 -21 -31 -20 -31 3 0 10 -5 32 -11 50 -13 36 -35 39 -89 13z"/>
<path d="M13700 8234 c-14 -35 -12 -67 4 -89 13 -18 14 -17 29 11 14 27 21 62
18 92 -2 23 -41 13 -51 -14z"/>
<path d="M6223 8185 c-19 -13 -21 -22 -16 -69 3 -29 0 -76 -6 -102 -6 -27 -14
-71 -17 -98 -5 -49 -29 -120 -48 -145 -8 -10 -5 -17 8 -27 11 -7 23 -11 28 -8
18 11 40 69 58 156 11 50 22 93 25 96 2 3 16 -3 31 -13 33 -21 116 -15 145 11
43 38 3 151 -67 191 -45 26 -110 30 -141 8z m131 -66 c39 -23 65 -77 44 -91
-18 -11 -72 -10 -103 2 -23 9 -25 14 -23 60 3 44 6 50 25 50 12 0 38 -9 57
-21z"/>
<path d="M16816 8135 c-17 -26 -21 -70 -7 -79 5 -3 9 -22 9 -42 0 -43 30 -77
55 -62 18 10 16 51 -6 133 -15 55 -14 54 -16 65 -2 18 -18 11 -35 -15z"/>
<path d="M14339 8120 c-9 -5 -20 -22 -24 -37 -3 -15 -10 -30 -15 -33 -13 -8 4
-75 19 -75 14 0 51 96 51 132 0 25 -6 28 -31 13z"/>
<path d="M6780 8105 c-14 -8 -40 -19 -59 -26 -44 -16 -91 -56 -91 -77 1 -21
23 -52 37 -52 6 0 16 -7 23 -15 21 -26 100 -5 147 38 13 11 24 19 26 16 2 -2
15 -23 29 -45 17 -27 36 -43 53 -46 36 -7 42 14 12 45 -13 15 -31 54 -41 88
-12 44 -22 62 -36 66 -11 3 -20 9 -20 14 0 13 -51 9 -80 -6z m40 -63 c0 -16
-56 -60 -80 -63 -25 -3 -50 6 -50 19 0 9 57 39 85 45 34 8 45 7 45 -1z"/>
<path d="M7373 8103 c-13 -2 -49 -30 -82 -61 -45 -43 -61 -66 -67 -95 -9 -51
19 -113 60 -134 43 -22 141 -42 158 -32 7 5 25 9 39 9 30 0 57 24 39 35 -5 3
-14 4 -18 1 -12 -7 -154 12 -178 25 -22 11 -44 48 -44 73 0 9 19 15 58 19 62
5 135 36 150 64 15 25 -6 71 -39 88 -28 15 -36 16 -76 8z m67 -62 c0 -4 -19
-16 -43 -25 -67 -25 -83 -20 -50 16 17 18 93 26 93 9z"/>
<path d="M11506 8017 c-13 -9 -17 -23 -14 -52 3 -35 6 -40 28 -40 23 0 25 3
23 44 -2 52 -13 66 -37 48z"/>
<path d="M13560 7885 c-13 -14 -29 -25 -36 -25 -6 0 -14 -7 -18 -15 -3 -8 -17
-20 -31 -25 -25 -10 -32 -24 -16 -34 11 -7 50 9 114 48 37 22 47 34 45 50 -4
30 -30 31 -58 1z"/>
<path d="M10165 7817 c-17 -12 -57 -51 -90 -87 -32 -36 -71 -78 -86 -94 -15
-16 -37 -45 -50 -65 -12 -20 -43 -53 -68 -75 -25 -21 -97 -86 -160 -145 -120
-112 -374 -313 -428 -339 -18 -9 -33 -19 -33 -24 0 -4 -6 -8 -13 -8 -7 0 -41
-18 -75 -40 -33 -22 -65 -40 -69 -40 -4 0 -53 -22 -108 -49 -125 -62 -232
-111 -240 -111 -4 0 -21 -6 -38 -13 -51 -22 -99 -38 -137 -47 -63 -15 -154
-41 -210 -59 -30 -11 -107 -26 -170 -36 -63 -9 -123 -21 -132 -26 -10 -5 -33
-9 -52 -9 -19 0 -47 -5 -62 -10 -15 -6 -46 -13 -68 -15 -108 -13 -276 -42
-341 -60 -33 -9 -91 -23 -130 -31 -38 -7 -101 -20 -140 -29 -38 -9 -94 -20
-124 -25 -30 -5 -59 -14 -65 -20 -5 -5 -25 -10 -42 -10 -18 0 -45 -5 -61 -11
-15 -6 -68 -17 -118 -25 -49 -8 -114 -19 -143 -26 -28 -6 -55 -9 -57 -6 -3 3
-38 -4 -78 -15 -40 -11 -121 -30 -182 -43 -60 -13 -137 -33 -170 -43 -33 -10
-84 -22 -112 -26 -29 -4 -53 -12 -53 -17 0 -7 -5 -6 -14 1 -9 8 -22 8 -38 2
-13 -5 -46 -11 -73 -12 l-48 -4 -13 48 c-7 26 -19 59 -28 72 -22 33 -20 62 4
70 47 15 70 84 36 107 -22 15 -110 8 -132 -10 -42 -34 -37 -64 27 -158 31 -46
63 -129 55 -143 -3 -5 -47 -12 -96 -16 -50 -4 -96 -12 -103 -19 -7 -6 -41 -12
-77 -13 -36 -1 -66 -7 -68 -12 -2 -6 -16 -8 -31 -5 -16 4 -32 1 -35 -5 -4 -6
-11 -9 -15 -6 -10 5 -133 -18 -211 -40 -30 -9 -86 -24 -125 -35 -80 -20 -105
-29 -122 -42 -7 -5 -36 -11 -66 -12 -34 -2 -73 -12 -107 -29 -30 -15 -66 -27
-81 -27 -14 0 -43 -7 -64 -16 -20 -8 -39 -13 -42 -10 -3 3 -27 -4 -54 -14 -26
-11 -133 -47 -236 -81 -103 -34 -212 -72 -241 -85 -29 -13 -57 -24 -63 -24
-13 0 -115 -43 -217 -91 -46 -21 -88 -39 -93 -39 -6 0 -52 -22 -102 -49 -120
-64 -141 -75 -207 -103 -30 -12 -73 -37 -95 -53 -22 -17 -47 -34 -55 -38 -8
-4 -31 -17 -51 -29 -19 -13 -61 -38 -91 -56 -48 -28 -153 -112 -183 -147 -5
-6 -29 -24 -53 -39 -23 -16 -42 -33 -42 -37 0 -5 -6 -9 -14 -9 -8 0 -21 -6
-28 -13 -7 -7 -29 -24 -49 -38 -47 -32 -211 -221 -278 -321 l-54 -80 -44 5
c-25 3 -59 15 -76 27 -26 20 -34 21 -62 11 -17 -6 -38 -11 -47 -11 -9 0 -18
-9 -21 -20 -5 -20 38 -135 62 -164 7 -9 10 -16 7 -16 -4 0 4 -15 18 -33 15
-19 26 -41 26 -49 0 -8 3 -18 7 -22 11 -11 33 -79 33 -103 0 -16 8 -25 25 -29
26 -7 35 0 262 213 93 87 97 92 88 119 -11 30 -40 41 -132 47 -55 4 -59 9 -37
44 78 122 255 305 403 415 29 22 61 48 70 57 32 31 97 78 166 118 39 23 78 50
89 62 10 11 41 32 70 47 133 70 402 204 408 204 5 0 65 27 134 60 69 33 130
60 135 60 5 0 17 4 27 9 27 15 172 66 237 85 33 10 75 24 94 33 19 8 91 35
160 58 70 24 155 55 189 69 34 14 72 26 85 26 13 0 43 6 68 14 24 7 64 19 89
27 25 7 52 18 60 24 8 6 34 12 58 13 24 0 62 10 85 21 23 11 62 23 87 26 24 4
52 10 60 15 9 5 41 12 71 15 30 4 68 11 84 16 17 5 66 13 110 19 245 31 491
71 558 90 22 6 41 9 43 7 3 -3 46 6 97 20 51 13 103 26 117 29 63 12 197 47
217 56 12 6 28 8 36 5 9 -3 39 1 69 9 29 9 67 17 83 19 88 10 118 16 132 24 9
4 24 6 34 4 9 -3 41 2 71 10 29 8 98 24 153 36 172 36 289 61 308 66 101 28
293 65 334 65 23 0 48 6 55 14 8 7 49 18 91 24 61 8 81 15 96 33 16 21 22 22
45 11 33 -15 138 -5 149 14 5 10 20 12 51 8 32 -5 46 -2 59 11 12 12 26 15 43
11 17 -5 35 -1 51 9 13 9 39 17 56 19 58 5 179 45 178 60 -2 17 0 18 14 6 10
-9 15 -9 15 -1 0 6 8 11 19 11 10 0 24 7 31 15 8 9 21 13 36 9 18 -5 24 -2 24
10 0 9 7 16 15 16 8 0 15 5 15 10 0 6 11 8 25 4 19 -5 25 -2 25 10 0 10 8 15
23 14 12 -1 60 17 107 39 47 23 100 47 118 53 17 7 32 16 32 21 0 5 7 9 15 9
20 0 117 60 133 82 7 10 21 18 31 18 11 0 21 7 24 15 4 8 21 21 39 29 18 8 56
35 83 61 28 26 60 51 73 56 12 5 22 14 22 22 0 7 15 21 33 31 17 11 53 38 78
60 25 23 83 75 129 116 46 41 105 98 130 125 25 28 81 88 126 135 124 131 146
163 134 194 -5 14 -11 26 -12 25 -2 0 -17 -10 -33 -22z"/>
<path d="M14275 7792 c-30 -54 -24 -142 10 -142 10 0 15 10 15 34 0 18 7 53
15 76 11 32 12 46 4 56 -17 20 -22 18 -44 -24z"/>
<path d="M12695 7813 c-31 -8 -42 -22 -25 -33 8 -6 21 -8 29 -5 7 3 19 2 25
-3 19 -15 92 -34 112 -30 12 2 20 13 22 28 3 24 -1 27 -56 38 -60 12 -73 13
-107 5z"/>
<path d="M11586 7791 c-12 -19 6 -38 54 -55 56 -20 80 -16 80 13 0 34 -117 70
-134 42z"/>
<path d="M13016 7773 c-3 -8 -6 -16 -6 -18 0 -2 24 -11 54 -19 94 -28 146 -18
146 26 0 15 -9 18 -52 19 -29 0 -72 2 -95 4 -30 2 -43 -1 -47 -12z"/>
<path d="M12220 7762 c-28 -23 -20 -41 16 -34 14 2 43 -1 65 -8 35 -12 41 -11
59 5 31 28 24 42 -26 49 -72 9 -90 8 -114 -12z"/>
<path d="M11887 7760 c-22 -14 -13 -30 18 -30 13 0 26 -4 29 -9 9 -14 58 -20
82 -9 23 11 39 36 30 46 -11 10 -142 12 -159 2z"/>
<path d="M21354 7722 c-30 -20 -38 -61 -42 -208 l-4 -152 -49 -4 c-80 -8 -133
-73 -131 -158 2 -61 35 -90 100 -89 58 1 70 5 124 51 79 66 88 75 88 87 0 27
-32 20 -82 -17 -66 -49 -110 -66 -144 -58 -23 6 -26 10 -20 38 8 40 43 78 71
78 12 0 34 -9 48 -20 30 -24 50 -25 67 -5 10 12 10 18 0 30 -19 23 -16 280 5
351 21 73 9 103 -31 76z"/>
<path d="M20665 7661 c-3 -5 -1 -20 4 -33 6 -13 15 -54 21 -91 14 -87 5 -101
-55 -92 -31 5 -44 3 -55 -10 -20 -25 8 -47 69 -53 l50 -4 -2 -92 c-2 -87 -1
-91 20 -94 30 -4 42 23 44 101 2 55 5 68 20 72 25 8 24 42 -1 55 -12 7 -20 21
-21 38 0 51 -36 194 -50 203 -18 11 -36 11 -44 0z"/>
<path d="M16903 7644 c-8 -21 14 -115 33 -142 19 -28 44 -28 44 -1 0 11 -5 51
-11 90 -11 63 -14 69 -36 69 -13 0 -26 -7 -30 -16z"/>
<path d="M20136 7645 c-14 -38 7 -383 26 -418 7 -14 17 -18 36 -14 17 3 34 -1
44 -10 9 -8 37 -18 62 -20 53 -6 102 18 153 76 l31 36 11 -30 c19 -52 27 -60
65 -63 41 -4 47 9 15 30 -14 9 -23 27 -25 48 -5 42 -33 122 -47 132 -6 3 -16
4 -24 1 -7 -3 -19 0 -26 6 -10 7 -24 7 -53 0 -95 -27 -161 -80 -185 -147 -6
-18 -14 -30 -17 -27 -4 4 -7 97 -7 208 l0 202 -26 3 c-17 2 -29 -3 -33 -13z
m297 -329 c-32 -45 -86 -86 -114 -86 -10 0 -25 7 -33 16 -14 14 -14 18 1 40
18 28 101 74 133 74 11 0 24 8 28 18 6 16 7 16 10 -2 2 -10 -9 -37 -25 -60z"/>
<path d="M18884 7543 c3 -21 9 -73 12 -116 l7 -78 -35 6 c-25 5 -38 2 -47 -9
-17 -21 -7 -34 34 -42 l35 -6 0 -59 c0 -48 4 -60 22 -73 20 -14 23 -14 31 0 5
9 12 37 16 62 6 47 6 47 46 47 37 0 41 -3 61 -44 12 -25 34 -51 50 -59 40 -21
142 -22 157 -1 7 8 20 18 30 22 19 7 33 34 23 44 -3 3 -28 -4 -56 -15 -54 -23
-100 -21 -122 5 -15 18 4 33 44 33 14 0 47 9 72 20 40 17 46 23 46 50 0 24 -9
36 -42 61 -36 26 -50 30 -85 26 -54 -6 -92 -31 -106 -68 -13 -34 -9 -33 -66
-11 l-44 17 -2 55 c-1 31 -9 71 -18 89 -9 19 -17 39 -17 44 0 11 -30 36 -44
37 -4 0 -5 -17 -2 -37z m355 -198 c11 -11 4 -15 -44 -25 -63 -13 -70 -11 -60
19 10 32 73 37 104 6z"/>
<path d="M18117 7553 c-23 -26 -22 -30 11 -47 23 -12 42 -13 98 -5 37 5 74 7
81 5 17 -7 17 -124 0 -191 l-13 -50 -60 -1 c-92 -1 -110 -21 -46 -52 50 -26
123 -33 226 -22 98 10 112 15 95 36 -7 9 -31 14 -63 14 -76 0 -78 4 -65 91 6
41 11 95 11 122 l0 47 39 0 c21 0 41 -5 44 -10 10 -16 25 -1 25 24 0 39 -40
49 -210 54 -143 4 -156 3 -173 -15z"/>
<path d="M17480 7535 c-48 -35 -94 -72 -154 -124 -60 -53 -63 -55 -99 -82 -27
-20 -27 -22 -11 -40 9 -11 30 -19 46 -19 16 0 43 -7 60 -16 52 -27 142 -106
155 -136 13 -31 34 -36 53 -13 9 11 10 38 5 99 -8 100 -11 97 116 96 145 -1
312 7 369 19 49 9 63 18 61 36 -1 4 -74 8 -163 9 -90 2 -211 6 -270 11 l-108
8 0 72 c0 41 -5 78 -13 88 -11 16 -15 16 -47 -8z"/>
<path d="M14241 7434 c-22 -29 -45 -122 -35 -147 6 -16 11 -18 32 -16 9 1 32
88 39 147 6 49 -6 54 -36 16z"/>
<path d="M20922 7433 c-18 -8 -46 -36 -63 -60 l-30 -45 17 -43 c9 -24 26 -52
38 -63 23 -21 97 -52 123 -52 26 0 103 42 103 57 0 16 -51 18 -67 2 -22 -22
-123 23 -123 56 0 6 25 19 55 29 83 26 99 61 52 114 -24 26 -59 28 -105 5z"/>
<path d="M19518 7408 c-21 -5 -50 -24 -64 -41 -15 -17 -36 -36 -48 -42 -17 -9
-21 -20 -21 -55 1 -25 5 -54 10 -65 4 -11 7 -24 6 -29 -3 -12 19 -36 33 -36
26 1 36 20 46 88 5 40 17 83 25 96 18 28 75 45 133 41 47 -3 54 7 20 29 -32
20 -96 26 -140 14z"/>
<path d="M19734 7359 c-17 -10 -37 -30 -44 -44 -12 -22 -11 -27 5 -39 25 -18
26 -33 21 -315 -1 -41 3 -56 16 -65 31 -19 38 6 42 145 3 73 5 137 5 140 1 3
26 9 57 12 30 3 66 13 79 21 21 14 25 14 49 -5 37 -29 90 -27 121 3 19 20 23
32 19 62 -6 48 -37 94 -69 102 -23 6 -85 -27 -85 -44 0 -4 -4 -14 -10 -22 -7
-12 -13 -9 -30 13 -45 57 -118 72 -176 36z m135 -57 c26 -37 13 -52 -45 -52
-37 0 -42 3 -47 28 -11 54 57 72 92 24z m176 -2 c8 -24 -11 -60 -30 -60 -15 0
-22 60 -8 73 13 13 32 7 38 -13z"/>
<path d="M18614 7355 c-10 -8 -29 -15 -41 -15 -22 0 -23 -3 -20 -75 2 -54 8
-80 20 -92 25 -25 40 -4 52 70 12 77 32 85 69 30 19 -27 26 -51 26 -85 0 -36
4 -50 19 -57 14 -8 22 -7 30 3 44 53 -39 236 -108 236 -15 0 -36 -7 -47 -15z"/>
<path d="M16953 7309 c-7 -7 -7 -22 -1 -47 6 -20 10 -47 10 -60 0 -16 5 -22
17 -20 18 4 38 94 28 122 -7 18 -38 21 -54 5z"/>
<path d="M14175 7036 c-10 -7 -15 -18 -11 -25 4 -6 1 -22 -7 -34 -18 -28 -27
-76 -15 -83 5 -3 6 -14 3 -24 -4 -13 1 -22 15 -30 24 -13 26 -10 35 70 3 30 9
71 12 91 6 42 -6 54 -32 35z"/>
<path d="M16907 6892 c-21 -23 -22 -60 -1 -101 19 -38 37 -36 45 5 13 57 10
102 -7 108 -21 8 -19 9 -37 -12z"/>
<path d="M6300 6742 c0 -4 6 -16 14 -27 16 -23 56 -94 56 -99 0 -2 -13 -9 -30
-15 -51 -17 -29 -66 27 -59 24 3 30 -2 40 -32 6 -19 12 -49 12 -66 1 -39 22
-67 47 -62 16 3 19 11 16 58 l-3 55 19 -34 c29 -54 74 -73 157 -68 114 8 225
74 225 133 0 31 -19 31 -45 0 -49 -56 -235 -98 -275 -61 -27 24 -25 45 3 45
29 0 108 51 142 92 39 46 34 73 -19 91 -55 19 -81 13 -129 -30 -20 -18 -45
-33 -55 -33 -9 0 -27 -3 -38 -6 -17 -5 -32 7 -75 60 -30 36 -62 66 -71 66 -10
0 -18 -3 -18 -8z m374 -101 c7 -11 -61 -58 -96 -66 -39 -10 -37 16 3 49 30 25
82 35 93 17z"/>
<path d="M5847 6663 c-16 -15 -4 -53 57 -177 35 -72 71 -155 80 -183 13 -40
22 -53 37 -53 18 0 24 16 19 50 -1 8 -24 61 -51 118 -27 57 -49 108 -49 114 0
6 -11 31 -24 57 -13 25 -27 54 -30 64 -5 17 -27 23 -39 10z"/>
<path d="M14095 6612 c-18 -13 -45 -70 -45 -95 0 -28 37 -80 51 -72 5 4 9 17
9 30 0 14 5 45 12 70 10 38 10 47 -2 60 -8 8 -19 11 -25 7z"/>
<path d="M16881 6597 c-19 -24 -19 -88 1 -100 25 -17 36 0 39 58 3 39 0 51
-12 53 -9 2 -21 -4 -28 -11z"/>
<path d="M6165 6538 c-95 -52 -158 -187 -102 -222 46 -29 82 -29 118 1 19 15
35 31 37 34 1 3 9 14 16 24 12 17 16 16 51 -19 23 -24 44 -36 58 -34 34 5 30
24 -15 70 -24 24 -55 60 -70 79 -27 33 -28 33 -43 15 -8 -11 -15 -36 -15 -56
0 -44 -21 -66 -72 -75 -32 -6 -38 -5 -38 10 0 31 53 103 88 119 25 12 33 22
30 38 -4 26 -16 31 -43 16z"/>
<path d="M4830 6425 c0 -9 14 -46 30 -82 17 -37 29 -72 26 -79 -2 -6 -25 -16
-50 -23 -35 -9 -46 -16 -46 -31 0 -25 39 -36 80 -22 39 14 50 2 80 -84 22 -65
45 -98 62 -88 13 8 9 60 -6 106 -8 24 -16 57 -18 73 -3 27 2 32 42 52 25 12
48 22 53 23 4 0 7 -23 7 -51 0 -151 148 -208 246 -95 20 23 41 51 47 64 14 30
23 28 36 -8 7 -21 17 -30 32 -30 20 0 21 3 14 65 -11 103 11 135 54 78 51 -69
65 -73 76 -23 4 17 9 30 12 30 10 0 33 -34 49 -73 17 -39 40 -58 62 -50 20 7
14 30 -18 75 -16 22 -30 45 -30 50 0 19 -42 68 -58 68 -8 0 -25 -9 -37 -20
l-22 -20 -25 20 c-37 29 -64 25 -90 -13 -13 -19 -30 -31 -39 -29 -25 5 -43
-23 -24 -38 31 -26 13 -57 -66 -116 -52 -38 -115 -46 -143 -18 -24 23 -21 29
33 63 76 49 101 76 101 110 0 37 -31 61 -79 61 -29 0 -43 -9 -84 -51 -28 -29
-46 -43 -43 -31 8 23 -16 36 -42 23 -26 -13 -93 -33 -97 -29 -2 2 -14 26 -27
53 -13 28 -32 62 -42 78 -20 29 -56 37 -56 12z m418 -113 c12 -8 -25 -42 -77
-70 -31 -16 -37 -9 -21 27 15 38 69 61 98 43z"/>
<path d="M11390 6383 c-6 -15 -13 -35 -16 -43 -5 -13 -6 -236 -2 -375 1 -27
-2 -92 -6 -143 -8 -99 -1 -122 35 -122 17 0 37 36 26 47 -3 2 -1 19 4 36 6 18
10 67 10 109 l1 77 36 6 c20 3 84 7 140 10 l104 3 -7 -144 c-7 -142 -2 -174
26 -174 13 0 30 48 34 95 2 22 6 79 10 128 4 48 10 87 13 87 4 0 14 5 22 10
13 8 11 13 -12 32 -25 21 -27 30 -33 123 -3 55 -8 112 -11 128 -6 27 -37 53
-53 42 -5 -2 -7 -65 -4 -139 l6 -134 -133 -1 c-73 -1 -136 -4 -140 -6 -4 -2
-6 80 -6 183 1 170 -1 187 -16 190 -12 2 -21 -6 -28 -25z"/>
<path d="M10224 6378 c-16 -12 -35 -30 -42 -40 -23 -32 -253 -210 -300 -233
-48 -24 -92 -59 -92 -74 0 -12 29 -24 65 -26 32 -2 91 -35 132 -72 13 -13 31
-23 39 -23 8 0 17 -7 20 -15 4 -8 13 -15 20 -15 15 0 76 -39 82 -52 2 -5 9 -8
16 -8 6 0 35 -18 65 -40 29 -22 59 -40 66 -40 21 0 25 39 6 50 -10 5 -32 22
-50 39 -17 16 -95 71 -171 122 -127 84 -157 109 -131 109 5 0 16 6 23 13 7 7
34 29 59 49 112 85 261 233 257 255 -5 26 -30 27 -64 1z"/>
<path d="M10666 6384 c-23 -23 -20 -33 22 -73 59 -57 112 -118 112 -129 0 -5
15 -20 34 -33 19 -13 41 -35 50 -50 9 -15 32 -37 51 -49 19 -12 35 -25 35 -30
0 -5 -13 -18 -28 -29 -16 -11 -41 -40 -57 -65 -16 -25 -32 -46 -36 -46 -7 0
-92 -107 -103 -130 -4 -8 -13 -26 -21 -40 -13 -22 -13 -26 2 -37 22 -17 48 -1
80 50 24 40 41 59 156 187 79 87 82 94 61 129 -11 16 -68 80 -129 143 -60 62
-130 137 -153 166 -24 28 -48 52 -52 52 -5 0 -16 -7 -24 -16z"/>
<path d="M17015 6383 c-4 -10 -9 -116 -11 -235 -4 -211 -3 -218 17 -232 43
-30 48 -15 50 162 2 253 0 293 -13 310 -15 17 -35 15 -43 -5z"/>
<path d="M18372 6377 c-17 -21 -3 -55 32 -75 18 -11 54 -45 82 -77 55 -65 133
-145 170 -174 l24 -19 -122 -124 c-140 -140 -172 -185 -152 -212 8 -12 19 -16
33 -11 26 8 285 291 289 316 2 11 -2 27 -9 36 -7 8 -14 21 -15 29 -4 23 -52
79 -231 267 -54 57 -81 69 -101 44z"/>
<path d="M12333 6354 c-3 -9 0 -26 7 -37 12 -20 15 -302 4 -402 -16 -144 -16
-181 -2 -193 11 -9 18 -9 31 1 12 9 17 39 23 132 3 66 8 145 10 175 3 30 4 73
4 95 0 22 0 68 1 102 0 33 -5 64 -10 67 -6 4 -8 13 -5 21 8 21 -14 55 -37 55
-11 0 -22 -7 -26 -16z"/>
<path d="M12545 6361 c-3 -6 1 -40 10 -75 13 -52 15 -96 10 -233 -3 -92 -10
-186 -15 -208 -21 -89 -8 -135 34 -119 35 13 55 515 24 599 -15 40 -48 59 -63
36z"/>
<path d="M17619 6306 c-19 -14 -73 -50 -121 -82 -49 -31 -88 -61 -88 -65 0 -5
-5 -9 -11 -9 -6 0 -26 -12 -45 -27 -44 -33 -45 -76 -3 -81 16 -2 32 -14 44
-35 28 -47 194 -207 215 -207 6 0 10 -4 10 -10 0 -6 9 -6 25 0 14 5 32 7 40 4
10 -4 28 7 50 32 19 22 34 43 35 47 0 5 20 32 44 60 68 81 156 213 156 236 0
11 -9 22 -22 27 -26 8 -18 16 -172 -198 l-113 -157 -31 19 c-73 45 -220 217
-200 235 10 9 103 73 166 115 86 56 110 84 92 105 -17 21 -32 19 -71 -9z"/>
<path d="M16864 6265 c-4 -16 2 -42 16 -72 21 -44 23 -46 36 -28 28 38 10 125
-26 125 -13 0 -22 -9 -26 -25z"/>
<path d="M14262 6268 c-13 -16 -7 -48 10 -48 5 0 6 -4 3 -10 -3 -5 -1 -36 4
-67 32 -174 35 -355 8 -352 -51 6 -49 -27 4 -64 32 -22 44 -26 55 -16 8 7 28
9 51 5 133 -24 214 -13 254 32 52 59 59 90 33 144 -16 33 -91 91 -152 117
l-32 13 42 31 c75 54 98 86 98 137 0 41 -114 79 -255 87 -91 5 -112 3 -123 -9z
m230 -62 c78 -16 88 -21 88 -45 0 -36 -118 -101 -183 -101 -49 0 -47 -2 -63
114 -2 17 -10 33 -17 38 -20 13 104 9 175 -6z m8 -244 c58 -21 115 -58 134
-88 21 -31 7 -68 -36 -90 -43 -22 -154 -30 -202 -14 l-36 12 0 103 0 103 48
-5 c26 -3 67 -12 92 -21z"/>
<path d="M15690 6198 c1 -29 1 -81 1 -116 l-1 -63 -44 6 c-51 8 -86 0 -86 -20
0 -14 93 -65 118 -65 11 0 13 -7 8 -27 -4 -16 -9 -71 -13 -124 -5 -90 -4 -98
14 -108 34 -18 50 13 57 110 8 122 15 149 37 149 10 0 21 5 24 10 3 6 17 10
31 10 32 0 100 35 108 55 10 26 8 28 -21 21 -16 -4 -58 -10 -95 -14 l-68 -8 0
49 c0 83 -34 187 -62 187 -5 0 -9 -24 -8 -52z"/>
<path d="M10384 6210 c-12 -4 -33 -23 -47 -41 -20 -26 -23 -36 -15 -47 7 -7
20 -11 30 -9 16 4 18 -2 19 -46 6 -198 -8 -432 -32 -540 -14 -61 -7 -89 23
-95 27 -5 53 138 63 348 3 63 8 116 10 118 2 2 13 -2 25 -8 14 -7 51 -11 96
-8 67 3 76 6 108 37 39 38 55 97 37 142 -14 38 -105 127 -146 145 -37 15 -137
18 -171 4z m141 -61 c25 -7 57 -28 84 -55 38 -39 43 -48 37 -76 -8 -42 -28
-63 -75 -76 -57 -18 -87 -15 -115 12 -24 21 -26 30 -26 108 0 47 3 88 7 91 9
10 42 8 88 -4z"/>
<path d="M18057 6177 c-12 -23 -16 -63 -16 -133 -1 -138 -8 -280 -20 -404 -10
-95 -9 -106 6 -117 22 -17 28 -16 43 1 14 18 27 149 26 264 -1 45 -1 82 0 82
14 0 128 24 149 31 68 24 135 72 135 96 0 7 5 13 10 13 20 0 11 66 -12 86 -78
68 -179 114 -251 114 -52 0 -55 -2 -70 -33z m165 -59 c119 -40 138 -66 84
-115 -34 -32 -72 -46 -154 -59 -43 -7 -44 -6 -30 15 10 16 10 23 1 29 -10 6
-17 74 -14 135 1 23 36 22 113 -5z"/>
<path d="M14030 6134 c0 -9 -8 -26 -18 -39 -18 -23 -29 -105 -14 -105 4 0 18
-3 31 -7 23 -6 24 -4 18 27 -4 19 -3 38 4 46 12 15 15 66 5 83 -10 16 -26 14
-26 -5z"/>
<path d="M4315 6112 c-41 -14 -66 -41 -86 -91 -23 -62 -24 -94 -4 -111 25 -20
14 -20 -60 5 -83 27 -93 49 -33 77 44 21 54 34 38 53 -18 21 -39 18 -81 -11
-40 -28 -61 -54 -73 -92 -7 -20 -1 -25 46 -47 29 -13 70 -27 91 -30 43 -8 46
-18 12 -41 -16 -10 -34 -14 -54 -9 -36 8 -45 -5 -25 -33 26 -38 115 -24 154
23 8 9 13 30 12 45 l-2 28 37 -19 c22 -11 58 -19 88 -19 47 0 55 4 107 50 40
35 56 57 56 75 0 14 -4 25 -9 25 -5 0 -9 -4 -9 -10 0 -5 -5 -10 -11 -10 -6 0
-30 -14 -53 -30 -49 -36 -126 -44 -154 -17 -14 15 -14 17 4 23 29 11 114 97
114 117 0 9 -15 26 -32 37 -35 21 -41 22 -73 12z m18 -85 c-25 -31 -53 -39
-53 -16 0 17 40 49 61 49 20 0 19 -2 -8 -33z"/>
<path d="M16631 6079 c-44 -9 -108 -49 -118 -76 -9 -23 43 -68 132 -113 79
-39 105 -65 90 -90 -8 -13 -135 -50 -174 -50 -19 0 -34 6 -37 15 -8 21 -21 19
-35 -7 -10 -18 -8 -24 7 -35 38 -27 83 -32 161 -17 119 22 176 79 139 136 -14
22 -37 37 -131 87 -57 31 -78 49 -72 65 7 18 67 36 119 36 44 0 75 25 57 46
-13 15 -69 17 -138 3z"/>
<path d="M12005 6053 c-52 -13 -127 -105 -110 -132 3 -5 -5 -17 -17 -25 l-22
-16 20 -22 c12 -13 30 -39 42 -58 33 -56 92 -84 179 -84 77 -1 106 12 147 67
27 36 14 45 -32 20 -45 -25 -144 -36 -180 -20 -29 12 -72 46 -72 57 0 4 19 13
43 20 76 23 92 30 130 66 51 47 61 76 38 105 -15 19 -30 23 -82 25 -35 2 -73
0 -84 -3z m96 -54 c20 -10 20 -12 3 -30 -17 -19 -112 -59 -139 -59 -40 0 4 67
56 86 44 16 56 16 80 3z"/>
<path d="M12822 6034 c-13 -9 -37 -34 -53 -57 -54 -75 -34 -166 44 -201 92
-41 145 -28 216 51 89 98 89 167 3 204 -57 25 -177 26 -210 3z m208 -81 c0
-47 -33 -86 -102 -123 -41 -22 -68 -26 -68 -10 0 6 -6 10 -13 10 -8 0 -21 8
-29 18 -42 47 25 138 106 144 64 5 106 -11 106 -39z"/>
<path d="M16900 6029 c-7 -13 -8 -25 -2 -32 5 -7 12 -29 16 -49 7 -38 12 -44
32 -30 18 12 25 44 18 89 -5 37 -10 43 -30 43 -13 0 -28 -9 -34 -21z"/>
<path d="M16030 6014 c-6 -14 -10 -39 -10 -55 0 -17 -5 -40 -12 -52 -6 -12
-11 -53 -10 -92 2 -66 4 -72 35 -98 24 -20 39 -26 60 -22 34 6 96 51 108 79 5
12 13 28 19 36 5 8 15 29 22 45 9 26 12 27 15 10 8 -39 65 -144 85 -156 40
-26 59 7 29 50 -12 16 -34 80 -50 142 -16 64 -35 117 -43 123 -26 16 -46 -1
-58 -46 -6 -24 -20 -62 -31 -85 -10 -24 -19 -46 -19 -51 0 -4 -12 -24 -26 -45
-20 -31 -31 -38 -52 -35 -24 3 -27 7 -30 49 -2 26 3 83 11 128 13 77 13 82 -4
91 -25 14 -28 13 -39 -16z"/>
<path d="M14899 6000 c-21 -4 -56 -23 -83 -44 -47 -39 -54 -52 -36 -58 6 -2
13 -41 16 -88 2 -46 6 -85 7 -86 1 -2 15 -5 30 -8 l27 -5 0 85 c0 81 2 87 29
115 27 26 36 29 95 29 35 0 67 4 71 9 14 23 -100 60 -156 51z"/>
<path d="M15191 5986 c-8 -9 -13 -60 -14 -134 -2 -116 -1 -120 23 -141 67 -56
142 -24 188 82 14 32 25 26 52 -27 17 -33 37 -43 52 -28 8 8 5 24 -10 56 -12
25 -26 64 -31 87 -5 23 -19 51 -30 63 -30 29 -53 12 -67 -50 -22 -100 -69
-168 -102 -147 -15 9 -17 26 -14 123 2 85 0 115 -10 121 -18 12 -24 11 -37 -5z"/>
<path d="M3877 5928 c-8 -13 -21 -48 -28 -78 l-12 -55 -15 35 c-8 19 -18 45
-23 58 -10 27 -35 29 -48 3 -12 -22 13 -108 41 -141 35 -41 89 -17 104 45 10
45 12 46 46 14 39 -35 68 -38 68 -6 0 19 -89 137 -111 145 -4 2 -14 -7 -22
-20z"/>
<path d="M13275 5908 c-2 -7 -8 -30 -14 -52 -8 -32 -51 -107 -71 -126 -18 -16
-78 -98 -83 -112 -4 -11 2 -22 18 -32 23 -15 25 -14 62 32 96 116 144 219 129
277 -7 26 -34 34 -41 13z"/>
<path d="M3238 5895 c-117 -44 -129 -63 -83 -131 19 -27 36 -60 37 -74 2 -14
13 -38 23 -54 11 -16 34 -56 50 -90 17 -33 36 -62 42 -64 22 -6 26 28 9 80 -9
28 -14 53 -12 55 6 6 101 -25 151 -48 44 -21 85 -16 85 10 0 25 -40 44 -209
97 -9 3 -1 16 27 39 44 38 57 73 44 119 -16 60 -93 87 -164 61z m96 -58 c28
-21 16 -58 -29 -89 -22 -15 -43 -27 -48 -28 -10 0 -47 62 -47 80 0 16 53 47
86 49 11 0 28 -5 38 -12z"/>
<path d="M13992 5778 c3 -83 3 -83 31 -86 l28 -3 -7 63 c-9 79 -19 108 -39
108 -13 0 -15 -13 -13 -82z"/>
<path d="M3595 5825 c-5 -2 -22 -6 -37 -9 -55 -12 -78 -114 -35 -153 31 -29
95 -44 153 -37 69 9 84 19 84 55 0 26 -3 30 -17 24 -10 -4 -43 -9 -73 -12
l-55 -4 37 28 c45 34 48 63 12 92 -25 20 -45 24 -69 16z m25 -61 c0 -2 -11
-11 -25 -20 -33 -22 -56 -7 -24 16 19 15 49 17 49 4z"/>
<path d="M17022 5743 c-7 -3 -17 -13 -22 -24 -8 -15 -6 -24 9 -41 20 -21 21
-21 41 -3 11 10 20 26 20 36 0 20 -28 39 -48 32z"/>
<path d="M16813 5708 c-37 -40 -50 -83 -27 -92 24 -9 52 11 75 55 35 70 6 93
-48 37z"/>
<path d="M14091 5505 c6 -26 48 -55 92 -62 35 -5 37 -4 37 21 0 29 -21 41 -92
52 -35 6 -40 5 -37 -11z"/>
<path d="M16127 5502 c-21 -23 -21 -32 -3 -32 7 0 19 -7 26 -15 7 -8 22 -15
34 -15 12 0 38 -9 59 -20 47 -25 64 -25 72 1 9 28 -4 40 -62 50 -26 5 -60 18
-75 29 -33 24 -31 24 -51 2z"/>
<path d="M16680 5491 c0 -6 -12 -11 -27 -11 -16 0 -48 -11 -72 -23 -82 -42
-59 -63 49 -46 83 14 88 17 92 54 2 25 -1 31 -19 33 -13 2 -23 -1 -23 -7z"/>
<path d="M15450 5469 c-90 -26 -55 -57 61 -54 85 3 103 11 97 41 -3 16 -14 19
-63 21 -33 1 -76 -3 -95 -8z"/>
<path d="M15795 5473 c-43 -5 -71 -21 -58 -34 4 -4 42 -11 83 -15 68 -6 77 -4
94 15 18 20 18 21 -8 31 -27 10 -36 10 -111 3z"/>
<path d="M14391 5461 c-14 -4 -26 -11 -28 -18 -5 -14 30 -23 98 -23 57 0 88
17 74 40 -7 11 -105 12 -144 1z"/>
<path d="M15073 5449 c-73 -21 -48 -49 43 -49 77 0 124 15 124 41 0 17 -8 19
-67 18 -38 0 -82 -5 -100 -10z"/>
<path d="M14664 5426 c-28 -21 -14 -28 73 -37 72 -7 79 -6 95 13 10 11 15 24
12 29 -9 15 -158 11 -180 -5z"/>
<path d="M9180 4352 c-71 -4 -90 -10 -90 -32 0 -29 12 -31 111 -24 63 5 92 11
96 21 3 8 3 16 0 19 -10 11 -72 19 -117 16z"/>
<path d="M9797 4330 c-26 -21 -26 -22 -8 -41 15 -17 23 -19 39 -10 29 15 53
14 74 -6 23 -20 32 -12 24 22 -6 24 -26 37 -79 50 -15 4 -32 -1 -50 -15z"/>
<path d="M8185 4331 c-34 -5 -40 -9 -40 -31 0 -24 3 -25 50 -24 112 3 189 28
154 50 -16 10 -112 13 -164 5z"/>
<path d="M9511 4321 c-16 -29 10 -40 94 -40 127 0 118 41 -12 54 -66 6 -72 5
-82 -14z"/>
<path d="M8745 4321 c-59 -6 -60 -7 -60 -36 l0 -30 65 3 c49 3 75 10 105 30
40 26 40 26 15 33 -28 8 -41 8 -125 0z"/>
<path d="M7765 4293 c-21 -6 -35 -21 -35 -40 0 -13 58 -35 71 -27 5 3 37 8 72
11 100 8 104 32 9 52 -55 11 -83 12 -117 4z"/>
<path d="M7365 4280 c-12 -4 -26 -15 -33 -23 -11 -13 -9 -18 10 -31 15 -10 26
-12 32 -6 6 6 22 10 37 10 55 0 89 12 89 31 0 11 -6 19 -12 19 -7 1 -33 2 -58
4 -25 2 -54 0 -65 -4z"/>
<path d="M6905 4220 c-32 -35 -9 -42 110 -33 60 4 110 13 112 18 6 18 -60 35
-134 35 -57 0 -73 -4 -88 -20z"/>
<path d="M6544 4219 c-23 -6 -49 -18 -58 -28 -15 -16 -15 -19 2 -34 17 -16 23
-16 62 -2 23 8 57 15 74 15 30 0 56 15 56 31 0 9 -58 29 -79 28 -9 -1 -35 -5
-57 -10z"/>
<path d="M10012 4218 c-18 -18 -15 -32 13 -58 14 -13 25 -29 25 -37 0 -7 7
-13 15 -13 21 0 19 38 -3 80 -21 39 -33 45 -50 28z"/>
<path d="M4875 4200 c-16 -5 -47 -17 -67 -27 -32 -15 -38 -23 -38 -50 0 -26 4
-33 19 -33 11 0 23 5 26 10 4 6 33 24 66 41 43 21 59 35 57 47 -4 20 -23 24
-63 12z"/>
<path d="M5688 4179 c-25 -14 -22 -46 4 -60 16 -9 34 -9 72 0 28 6 69 12 90
14 42 2 60 23 29 33 -10 3 -26 10 -35 15 -24 12 -138 11 -160 -2z"/>
<path d="M6122 4177 c-9 -11 -8 -18 6 -34 14 -17 28 -19 82 -17 56 2 65 5 68
22 4 24 -16 32 -89 38 -40 4 -59 1 -67 -9z"/>
<path d="M5203 4173 c-21 -8 -15 -39 10 -50 27 -12 147 -7 161 7 15 15 -4 30
-50 41 -42 9 -101 11 -121 2z"/>
<path d="M17564 4096 c-17 -13 -17 -15 10 -50 23 -30 212 -208 345 -323 l34
-30 -104 -80 c-121 -94 -352 -327 -347 -352 2 -9 15 -17 32 -19 26 -3 46 14
177 145 189 188 222 220 247 227 26 9 72 55 72 72 0 15 -66 82 -145 149 -26
22 -99 90 -162 150 -63 61 -121 113 -127 117 -7 4 -21 1 -32 -6z"/>
<path d="M16768 4069 c-13 -17 -39 -49 -59 -72 -39 -45 -69 -97 -69 -120 0 -8
7 -21 16 -28 14 -12 21 -8 50 26 19 22 37 50 40 63 3 12 11 22 18 22 10 0 50
44 69 77 4 7 5 24 1 38 -9 34 -37 32 -66 -6z"/>
<path d="M16927 4061 c-38 -25 -66 -55 -105 -115 -42 -65 -47 -83 -31 -112 21
-41 42 -29 82 49 21 39 54 91 73 115 53 68 43 102 -19 63z"/>
<path d="M10077 4023 c-10 -9 -9 -40 2 -61 5 -9 17 -36 27 -59 24 -55 39 -49
38 14 -2 74 -40 134 -67 106z"/>
<path d="M13542 4017 l-23 -13 22 -19 c11 -11 35 -35 53 -54 146 -158 207
-203 164 -119 -22 41 -127 176 -154 197 -31 24 -32 24 -62 8z"/>
<path d="M13325 4003 c-4 -12 1 -25 17 -38 13 -11 47 -49 77 -85 54 -65 98
-100 126 -100 8 0 15 4 15 9 0 5 3 16 6 25 4 11 0 16 -14 16 -13 0 -39 25 -76
74 -79 104 -134 141 -151 99z"/>
<path d="M4554 3988 c-41 -47 -48 -61 -50 -99 -1 -30 2 -40 17 -44 28 -9 35
-1 54 69 21 78 12 111 -21 74z"/>
<path d="M14135 3994 c-90 -20 -156 -47 -198 -82 -16 -14 -16 -16 -1 -34 23
-24 37 -23 83 7 95 63 301 47 301 -24 0 -35 -8 -45 -60 -74 -53 -29 -141 -50
-189 -45 -30 3 -36 8 -45 42 -14 49 -39 67 -62 44 -13 -13 -14 -20 -4 -38 8
-14 12 -67 11 -144 -2 -192 -3 -216 -14 -216 -5 0 -4 -7 3 -16 7 -8 23 -14 34
-13 12 1 44 -9 71 -22 42 -19 65 -23 140 -23 79 1 96 4 145 30 46 25 56 35 66
69 7 26 8 49 2 66 -11 32 -84 92 -176 144 -48 28 -50 41 -7 55 101 33 155 86
155 151 0 38 -72 94 -137 108 -82 18 -96 20 -118 15z m-37 -324 c9 -5 44 -20
77 -33 33 -13 88 -41 122 -63 55 -34 62 -43 63 -71 0 -24 -7 -37 -29 -52 -36
-26 -79 -44 -111 -47 -51 -4 -145 18 -168 39 -21 19 -23 28 -18 72 3 28 7 76
8 108 1 60 14 71 56 47z"/>
<path d="M15565 3954 c-6 -2 -9 -50 -8 -123 l3 -119 -67 2 c-62 2 -103 -8
-103 -25 0 -15 71 -39 114 -39 l46 0 0 -52 c-1 -29 -5 -84 -10 -123 -10 -78 0
-103 38 -91 16 5 22 19 27 59 20 167 27 196 49 202 48 13 132 38 154 46 46 18
19 25 -78 21 l-100 -3 0 38 c0 69 -12 178 -22 196 -8 16 -22 20 -43 11z"/>
<path d="M8521 3921 c-20 -13 -9 -45 49 -139 27 -46 50 -88 50 -93 0 -16 40
-49 60 -49 31 0 25 36 -20 115 -22 39 -52 94 -66 123 -26 51 -43 62 -73 43z"/>
<path d="M8320 3872 l-23 -18 26 -40 c48 -75 86 -121 132 -159 35 -29 48 -31
65 -10 9 11 6 21 -15 50 -15 19 -30 35 -34 35 -4 0 -26 28 -49 63 -50 74 -67
97 -74 97 -3 0 -16 -8 -28 -18z"/>
<path d="M9812 3842 c-21 -26 -46 -65 -56 -86 -18 -38 -18 -40 0 -53 31 -22
38 -18 93 65 32 46 42 69 37 86 -10 42 -32 38 -74 -12z"/>
<path d="M17478 3879 c-10 -5 -18 -15 -18 -21 0 -6 -26 -40 -57 -76 -184 -208
-256 -309 -242 -335 6 -9 21 -17 34 -17 22 0 68 51 160 180 11 15 45 59 75 97
97 122 104 132 91 159 -12 26 -18 28 -43 13z"/>
<path d="M9667 3857 c-17 -14 -36 -49 -51 -92 -21 -60 -23 -72 -11 -84 24 -24
54 -1 82 64 47 111 38 159 -20 112z"/>
<path d="M8953 3841 c-54 -34 -62 -55 -65 -181 l-3 -115 -55 -5 c-30 -3 -66
-12 -78 -22 -20 -13 -22 -19 -13 -37 10 -18 21 -21 81 -21 l70 0 1 -92 c1
-180 3 -200 21 -211 12 -8 21 -7 34 3 15 13 16 30 10 157 l-7 143 48 1 c90 1
223 23 223 36 0 16 -40 32 -76 33 -23 0 -75 3 -117 6 l-77 7 0 37 c0 20 3 71
6 113 6 63 10 77 28 85 27 12 170 6 196 -8 17 -9 20 -8 20 8 0 31 -31 49 -105
61 -38 6 -79 13 -90 16 -11 3 -34 -3 -52 -14z"/>
<path d="M595 3831 c-16 -10 -96 -83 -176 -163 -80 -80 -172 -163 -205 -184
-65 -43 -79 -76 -34 -82 14 -2 28 -10 33 -17 4 -8 31 -28 60 -45 57 -34 94
-60 155 -108 22 -18 44 -32 49 -32 5 0 20 -11 33 -25 13 -14 29 -25 35 -25 7
0 24 -9 38 -20 30 -24 60 -26 78 -4 16 20 4 31 -161 142 -63 43 -142 98 -175
122 l-60 44 175 176 c96 96 185 183 197 192 14 10 20 24 17 33 -8 20 -23 19
-59 -4z"/>
<path d="M4795 3760 c-15 -17 -16 -25 -7 -63 17 -66 53 -448 51 -544 -1 -47 3
-89 9 -95 15 -15 49 -1 55 23 7 26 -9 334 -23 444 -5 44 -12 105 -15 135 -12
108 -15 120 -34 120 -10 0 -26 -9 -36 -20z"/>
<path d="M16375 3748 c-39 -21 -65 -52 -65 -75 0 -31 34 -79 90 -129 77 -68
110 -103 110 -117 0 -20 -64 -47 -111 -47 -32 0 -41 4 -48 24 -12 31 -51 42
-51 14 0 -21 16 -56 35 -74 17 -17 80 -33 107 -27 37 8 101 44 120 67 36 44
29 55 -125 194 -27 24 -50 55 -53 71 -5 25 -2 28 34 39 22 7 60 12 86 12 50 0
69 18 47 44 -14 17 -147 20 -176 4z"/>
<path d="M2680 3736 c-14 -7 -23 -19 -22 -27 2 -8 6 -65 9 -126 l6 -113 -29
-1 c-16 -1 -43 0 -60 1 -18 1 -40 -7 -55 -19 -24 -21 -24 -21 -5 -36 13 -10
43 -15 89 -15 l70 0 -7 -101 c-3 -56 -8 -111 -11 -123 -4 -15 3 -27 21 -40 43
-30 52 -10 60 139 3 72 7 131 9 133 6 7 125 22 175 22 63 0 95 14 70 30 -42
28 -129 37 -187 21 -65 -19 -68 -13 -80 125 -6 69 -15 130 -19 134 -6 6 -20 4
-34 -4z"/>
<path d="M12908 3743 c-18 -4 -34 -40 -24 -50 8 -8 162 -21 254 -22 77 -1 100
13 70 43 -23 23 -243 44 -300 29z"/>
<path d="M14660 3708 c-14 -8 -34 -28 -45 -46 -15 -24 -25 -31 -42 -27 -35 8
-55 -28 -38 -68 7 -18 15 -65 19 -106 4 -54 10 -77 23 -87 36 -27 41 -17 45
89 3 95 5 107 32 145 24 35 36 43 83 53 44 10 64 10 96 0 80 -24 90 -25 85
-10 -3 8 -18 21 -34 29 -16 8 -32 19 -35 23 -11 16 -162 19 -189 5z"/>
<path d="M10172 3669 c-11 -30 10 -103 31 -107 22 -4 32 37 20 85 -10 44 -39
56 -51 22z"/>
<path d="M15018 3663 c-21 -38 -41 -158 -33 -205 8 -44 37 -69 85 -70 42 -1
85 41 126 125 34 72 41 73 57 7 9 -35 62 -90 86 -90 24 0 28 22 7 39 -7 6 -19
32 -26 56 -7 25 -17 48 -21 51 -5 3 -9 16 -9 29 0 32 -52 90 -72 82 -9 -3 -18
-17 -22 -31 -21 -85 -99 -206 -132 -206 -30 0 -28 96 2 168 25 60 -16 99 -48
45z"/>
<path d="M15881 3653 c-5 -10 -9 -61 -10 -114 -2 -114 10 -137 75 -146 34 -4
45 -1 72 22 18 15 44 50 58 76 13 27 26 49 28 49 3 0 12 -22 21 -50 21 -62 62
-97 91 -76 17 13 17 16 3 33 -16 19 -30 57 -49 133 -16 63 -36 90 -65 90 -14
0 -25 -6 -25 -14 0 -25 -77 -181 -100 -201 -22 -20 -22 -20 -36 0 -12 15 -14
38 -9 98 6 80 -4 117 -30 117 -8 0 -18 -8 -24 -17z"/>
<path d="M1006 3639 c-95 -23 -132 -49 -187 -130 -37 -55 -40 -64 -34 -106 7
-54 46 -116 123 -197 71 -75 89 -86 142 -86 59 0 110 32 151 94 45 67 45 124
0 170 -30 31 -40 34 -169 55 -75 12 -143 24 -150 27 -10 3 -5 15 17 43 36 45
112 80 234 107 42 9 82 23 88 30 18 21 -119 17 -215 -7z m-30 -254 c66 -7 155
-33 177 -52 55 -50 -30 -166 -110 -149 -54 12 -183 149 -183 194 0 22 3 24 33
18 19 -3 56 -9 83 -11z"/>
<path d="M4516 3649 c-9 -27 -17 -74 -17 -94 0 -31 23 -65 43 -65 16 0 18 9
18 68 0 56 -4 72 -20 87 -16 14 -20 15 -24 4z"/>
<path d="M10795 3623 c-16 -8 -38 -25 -48 -37 -13 -15 -20 -17 -24 -8 -7 18
-31 15 -42 -7 -7 -12 -7 -30 -1 -52 6 -19 10 -84 10 -145 0 -104 1 -112 24
-133 44 -41 51 -26 52 105 1 159 21 206 92 220 27 5 37 1 66 -28 46 -46 65
-112 58 -209 -4 -70 -3 -78 16 -88 18 -9 23 -8 33 10 6 12 13 47 16 79 10 111
-44 228 -133 284 -47 30 -76 32 -119 9z"/>
<path d="M12213 3601 c-53 -38 -90 -102 -104 -177 l-11 -58 39 -36 c32 -31 50
-38 116 -50 50 -8 106 -10 163 -6 102 9 114 12 114 37 0 18 -9 19 -132 19
-119 0 -137 3 -172 23 -22 12 -41 27 -43 32 -2 6 17 16 41 23 53 14 152 71
184 105 46 49 -4 108 -96 115 -51 3 -61 1 -99 -27z m137 -56 c0 -7 -11 -20
-24 -28 -13 -9 -30 -22 -38 -30 -13 -13 -78 -37 -100 -37 -4 0 -2 12 5 28 32
73 80 107 128 90 16 -5 29 -16 29 -23z"/>
<path d="M11379 3594 c-8 -9 -31 -28 -53 -41 -93 -59 -174 -175 -161 -230 8
-36 23 -54 62 -75 49 -28 87 -23 131 16 36 33 71 106 73 151 0 11 11 -10 24
-46 31 -91 41 -106 77 -125 25 -13 32 -14 39 -2 12 18 11 28 -1 28 -17 0 -64
132 -86 240 -16 82 -71 125 -105 84z m5 -161 c-19 -98 -48 -145 -96 -157 -22
-5 -30 -1 -49 25 -21 31 -22 33 -5 63 24 44 154 172 164 161 2 -1 -5 -43 -14
-92z"/>
<path d="M3006 3581 c-17 -19 -17 -20 3 -30 28 -16 48 -14 55 5 7 18 -10 44
-29 44 -6 0 -20 -9 -29 -19z"/>
<path d="M11695 3566 c-8 -19 -25 -43 -38 -53 -22 -17 -23 -23 -16 -73 4 -30
8 -81 8 -112 1 -47 5 -59 22 -68 40 -22 45 -8 48 110 1 62 7 124 12 137 l9 25
19 -24 c23 -29 51 -94 51 -118 0 -25 30 -34 51 -14 10 9 26 38 35 65 10 27 21
49 26 49 4 0 12 -19 18 -42 20 -83 32 -123 41 -140 5 -10 6 -23 3 -31 -3 -8 2
-20 11 -27 13 -11 19 -11 33 3 15 16 15 23 -2 109 -10 51 -30 117 -43 146 -21
44 -29 52 -52 52 -30 0 -64 -30 -79 -69 -8 -23 -9 -22 -31 20 -49 95 -100 117
-126 55z"/>
<path d="M8060 3579 c-62 -6 -110 -26 -110 -45 0 -37 12 -44 59 -38 42 5 95 9
163 13 29 1 51 29 39 49 -10 17 -87 28 -151 21z"/>
<path d="M12872 3518 c-20 -20 -14 -28 34 -49 30 -14 75 -22 132 -25 48 -2
120 -6 160 -9 76 -5 86 1 51 34 -15 13 -47 22 -107 30 -48 6 -115 16 -148 21
-80 13 -107 13 -122 -2z"/>
<path d="M9410 3505 c-14 -8 -32 -17 -41 -21 -9 -3 -27 -24 -40 -47 l-24 -42
-3 35 c-4 43 -14 54 -41 45 -28 -9 -28 -60 1 -180 22 -95 39 -121 68 -105 13
7 19 27 23 79 7 90 36 157 74 172 15 6 51 12 78 13 41 1 50 4 50 19 0 13 -13
23 -40 33 -51 17 -74 17 -105 -1z"/>
<path d="M1874 3479 c-36 -10 -124 -84 -124 -104 0 -8 -10 -23 -22 -35 -17
-16 -19 -23 -10 -32 7 -7 12 -20 12 -31 0 -29 45 -88 88 -113 82 -49 164 -41
243 25 40 34 33 50 -13 28 -57 -27 -103 -30 -156 -13 -45 15 -92 58 -92 85 0
13 26 21 65 21 48 0 143 38 156 62 19 34 -6 73 -61 97 -27 12 -50 21 -52 20
-2 0 -17 -5 -34 -10z m45 -60 c17 -6 31 -15 31 -19 0 -10 -86 -40 -117 -40
-13 0 -23 4 -23 8 0 11 41 48 60 55 8 3 15 6 16 6 1 1 15 -4 33 -10z"/>
<path d="M5264 3476 c-18 -8 -35 -19 -38 -25 -4 -6 -40 -33 -80 -60 -110 -75
-155 -139 -127 -182 6 -10 11 -26 11 -34 0 -18 57 -45 96 -45 40 0 115 46 149
91 16 21 34 38 40 36 5 -2 24 -28 40 -57 38 -66 58 -81 82 -58 15 15 15 19 2
35 -8 10 -25 43 -38 73 -46 109 -71 160 -79 160 -17 0 -50 -46 -57 -80 -10
-49 -55 -117 -86 -130 -15 -6 -42 -10 -60 -8 -30 3 -34 7 -37 35 -3 25 5 40
34 72 20 23 41 41 46 41 6 0 24 11 42 25 17 14 36 29 41 33 6 5 23 17 38 26
17 12 27 27 27 42 0 27 -4 28 -46 10z"/>
<path d="M7668 3479 c-78 -12 -159 -74 -177 -137 -14 -46 16 -133 56 -166 48
-41 97 -54 160 -44 62 10 153 55 153 76 0 9 -6 12 -17 7 -31 -11 -114 -25
-155 -25 -45 0 -98 24 -98 44 0 8 43 35 95 61 115 58 145 83 145 124 0 48 -69
74 -162 60z m70 -55 c41 -12 22 -32 -78 -83 -109 -56 -124 -54 -97 11 23 55
107 90 175 72z"/>
<path d="M3300 3452 c-34 -23 -46 -39 -69 -90 -18 -38 -19 -49 -8 -115 12 -71
13 -72 42 -72 27 0 30 3 28 30 -1 17 1 60 4 98 9 114 56 139 108 58 29 -46 39
-111 27 -172 -8 -41 -7 -48 11 -59 18 -11 24 -9 44 14 52 61 8 246 -75 314
-22 17 -82 14 -112 -6z"/>
<path d="M5563 3456 c-13 -7 -32 -21 -42 -30 -11 -10 -24 -15 -30 -12 -6 4
-20 2 -32 -5 -21 -11 -21 -16 -15 -108 8 -102 19 -128 54 -117 23 8 28 23 37
119 7 68 30 107 61 107 25 0 75 -54 100 -108 22 -48 25 -64 19 -113 -6 -47 -4
-57 10 -63 18 -7 55 9 55 25 0 5 13 3 30 -6 16 -8 40 -15 54 -15 48 0 137 42
183 85 l45 43 13 -31 c24 -60 47 -190 43 -242 -5 -65 -33 -102 -96 -132 -65
-31 -122 -30 -151 1 -17 18 -22 32 -17 50 3 15 2 26 -3 26 -17 0 -61 -61 -61
-84 0 -36 95 -95 155 -96 25 0 120 34 143 51 46 35 75 67 88 99 17 40 20 160
4 189 -5 11 -10 35 -10 54 0 20 -9 59 -20 89 -10 29 -27 82 -37 117 -12 43
-24 66 -35 69 -10 2 -18 10 -18 17 0 20 -24 24 -51 9 -13 -7 -33 -13 -43 -14
-38 0 -115 -62 -163 -128 -38 -53 -48 -63 -51 -47 -12 61 -88 177 -133 200
-33 18 -56 18 -86 1z m497 -86 c0 -11 -4 -28 -8 -38 -5 -9 -15 -30 -23 -46
-23 -47 -81 -88 -135 -94 l-47 -5 6 34 c11 55 140 167 195 169 6 0 12 -9 12
-20z"/>
<path d="M1485 3450 c-17 -5 -47 -25 -68 -44 -23 -21 -44 -32 -55 -29 -21 5
-51 -25 -36 -35 5 -4 10 -25 11 -47 1 -22 8 -44 15 -50 7 -5 14 -30 15 -55 3
-53 25 -80 51 -64 14 10 16 24 13 102 -2 73 0 96 15 121 28 47 74 61 168 51
52 -6 55 11 6 33 -49 23 -97 29 -135 17z"/>
<path d="M2223 3430 c-29 -17 -83 -105 -83 -134 0 -5 -10 -20 -22 -33 -19 -21
-20 -24 -6 -40 8 -10 18 -30 22 -45 4 -16 23 -38 53 -57 41 -27 55 -31 117
-31 70 0 145 20 177 47 8 7 22 13 30 13 17 1 89 59 72 60 -7 0 -32 -6 -55 -14
-146 -48 -192 -54 -263 -35 -71 19 -86 61 -27 80 43 14 96 46 133 81 38 36 29
70 -26 103 -52 30 -79 31 -122 5z m95 -52 c19 -19 15 -26 -27 -52 -40 -26 -91
-43 -91 -32 0 9 30 68 42 84 13 15 60 16 76 0z"/>
<path d="M6458 3439 c-10 -5 -18 -18 -19 -27 0 -9 -14 -46 -32 -82 -36 -73
-74 -103 -101 -81 -20 17 -21 71 -1 119 15 33 14 38 -1 49 -9 6 -22 9 -30 6
-23 -9 -51 -66 -58 -118 -5 -45 -3 -54 22 -84 53 -64 138 -43 202 51 l34 50
18 -53 c41 -120 64 -147 112 -129 28 10 35 37 12 46 -15 6 -48 76 -71 154 -33
113 -43 125 -87 99z"/>
<path d="M7265 3434 c-54 -19 -150 -96 -171 -136 -41 -80 -28 -145 33 -169 56
-21 158 7 202 55 14 14 28 26 32 26 9 0 28 -53 39 -110 5 -25 14 -65 20 -90 6
-25 12 -80 13 -124 1 -90 -6 -100 -77 -110 -55 -9 -90 -1 -143 33 -44 27 -52
46 -33 82 16 30 -7 24 -41 -11 -23 -23 -29 -35 -23 -52 16 -53 146 -126 226
-127 74 -2 139 48 156 119 10 39 6 69 -30 245 -22 110 -44 234 -49 275 -10 84
-18 97 -47 81 -15 -8 -21 -25 -27 -78 -5 -50 -14 -77 -32 -102 -48 -63 -149
-86 -174 -40 -7 14 -5 31 10 65 26 58 78 101 143 117 28 7 41 28 32 52 -7 18
-7 18 -59 -1z"/>
<path d="M6795 3418 c-130 -68 -184 -166 -119 -217 49 -38 124 -22 190 41 l32
30 23 -35 c13 -19 38 -46 56 -61 26 -22 35 -25 57 -16 33 12 33 23 0 49 -43
34 -84 103 -84 142 0 21 -9 47 -21 63 -26 33 -76 34 -134 4z m85 -42 c0 -2
-17 -33 -39 -67 -41 -69 -85 -95 -116 -69 -32 26 -6 76 59 115 35 21 96 34 96
21z"/>
<path d="M3679 3382 c-78 -51 -97 -69 -130 -127 -35 -61 -37 -94 -5 -124 35
-33 89 -42 140 -25 44 15 108 67 118 94 9 25 18 6 38 -76 23 -92 26 -211 6
-257 -14 -34 -69 -83 -121 -108 -47 -22 -100 -4 -159 54 -46 46 -50 48 -63 31
-19 -26 -16 -34 25 -80 52 -58 79 -73 142 -75 76 -2 129 14 178 57 78 66 107
166 83 284 -6 30 -13 64 -15 75 -11 70 -47 205 -66 253 -5 12 -16 22 -23 22
-16 0 -52 -36 -52 -53 -4 -89 -53 -160 -119 -173 -32 -5 -42 -3 -53 11 -7 11
-13 26 -13 35 0 40 79 114 163 152 28 14 37 24 37 43 0 37 -42 32 -111 -13z"/>
<path d="M3021 3401 c-11 -7 -12 -29 -5 -117 9 -115 18 -130 57 -102 15 12 16
25 10 118 -7 95 -10 105 -28 108 -11 1 -26 -2 -34 -7z"/>
<path d="M8017 3382 c-40 -44 -11 -63 95 -64 95 -1 123 6 132 29 8 20 1 27
-42 41 -24 8 -40 9 -53 1 -11 -5 -24 -7 -29 -4 -5 3 -27 8 -48 11 -29 3 -43 0
-55 -14z"/>
<path d="M10179 3363 c-16 -43 23 -183 52 -183 24 0 27 14 17 79 -5 31 -10 72
-11 91 -2 28 -7 36 -24 38 -17 3 -26 -4 -34 -25z"/>
<path d="M4529 3353 c-7 -127 -6 -135 23 -146 38 -14 47 61 17 140 -10 27 -39
31 -40 6z"/>
<path d="M22145 3120 c-7 -11 3 -299 11 -342 4 -22 11 -28 31 -28 l25 0 -6
182 c-6 181 -9 197 -43 198 -6 0 -15 -4 -18 -10z"/>
<path d="M10342 3048 c-16 -16 14 -64 49 -78 15 -6 36 -22 48 -36 11 -13 25
-24 30 -24 14 0 25 21 15 29 -5 3 -18 20 -28 36 -45 73 -87 100 -114 73z"/>
<path d="M4580 2973 c-23 -83 -23 -107 -1 -127 34 -31 51 -7 50 68 -2 96 -29
128 -49 59z"/>
<path d="M17764 2954 c-17 -25 -16 -55 10 -234 3 -19 8 -54 10 -78 3 -24 9
-48 13 -54 4 -8 0 -9 -13 -3 -67 28 -122 10 -164 -53 -37 -55 -34 -112 7 -153
26 -26 41 -33 85 -37 45 -3 58 0 88 22 19 14 42 29 50 32 16 5 54 64 46 71 -5
5 -78 -28 -121 -56 -32 -21 -72 -26 -92 -13 -7 5 -17 29 -22 55 -8 44 -7 49
17 67 31 25 63 25 112 0 70 -36 80 -26 59 55 -18 66 -29 154 -34 260 -8 152
-17 172 -51 119z"/>
<path d="M10617 2884 c-13 -13 36 -65 84 -89 56 -29 59 -30 59 -11 0 25 -85
106 -112 106 -13 0 -28 -3 -31 -6z"/>
<path d="M20993 2796 c-15 -12 -23 -31 -28 -73 -14 -125 -14 -131 6 -149 18
-16 19 -16 25 2 3 11 9 29 14 40 5 12 11 42 15 67 9 58 24 71 75 64 26 -3 43
-1 50 8 29 35 -114 72 -157 41z"/>
<path d="M20904 2792 c-6 -4 -17 -25 -24 -47 -7 -22 -16 -44 -20 -50 -4 -5
-15 -31 -25 -57 -20 -55 -31 -60 -46 -20 -33 88 -51 104 -69 58 -5 -13 -13
-27 -18 -30 -6 -3 -8 -15 -5 -26 8 -29 -16 -25 -27 5 -5 13 -12 47 -16 75 -8
57 -15 66 -44 50 -16 -9 -18 -15 -10 -30 5 -10 10 -39 10 -64 0 -39 11 -77 40
-136 19 -39 71 -10 81 45 6 29 22 23 31 -12 19 -73 91 -46 124 46 9 25 25 67
36 92 28 65 18 125 -18 101z"/>
<path d="M21223 2783 c-11 -10 -34 -37 -52 -60 -38 -50 -36 -68 14 -112 83
-72 203 -54 220 34 5 24 0 39 -25 73 -53 74 -117 100 -157 65z m103 -58 c12
-8 25 -26 29 -42 13 -53 -60 -82 -124 -48 -27 13 -28 16 -18 53 15 58 58 71
113 37z"/>
<path d="M4707 2783 c-14 -13 -6 -35 20 -59 31 -29 57 -37 104 -32 l34 3 -71
48 c-74 50 -77 51 -87 40z"/>
<path d="M21857 2769 c-79 -44 -138 -146 -106 -185 35 -42 100 -27 152 35 l25
31 7 -43 c4 -23 11 -47 15 -52 11 -13 8 -181 -3 -191 -4 -4 -34 -10 -67 -12
-62 -5 -65 -2 -119 63 -15 19 -26 11 -34 -26 -5 -20 1 -32 31 -62 83 -80 235
-63 258 29 7 27 -22 293 -40 374 -12 53 -14 55 -47 57 -19 1 -50 -7 -72 -18z
m24 -77 c-14 -26 -50 -56 -58 -49 -7 8 45 67 59 67 5 0 4 -8 -1 -18z"/>
<path d="M21537 2763 c-42 -11 -68 -146 -34 -180 27 -28 47 -9 47 45 0 26 6
57 14 68 13 17 16 17 30 4 9 -9 21 -43 27 -75 17 -86 16 -85 44 -85 24 0 26 2
20 38 -10 62 -36 141 -53 162 -18 21 -64 32 -95 23z"/>
<path d="M16247 2730 c-3 -12 -1 -35 4 -53 5 -17 9 -49 9 -70 l0 -39 -78 7
c-66 6 -80 4 -92 -10 -23 -28 20 -52 107 -60 l73 -7 0 -73 c0 -98 8 -133 32
-141 32 -10 38 12 36 119 -2 113 3 121 89 132 29 3 55 11 59 16 9 16 -62 40
-88 30 -46 -17 -66 2 -82 79 -1 3 -10 25 -20 48 -21 45 -40 54 -49 22z"/>
<path d="M19728 2740 c-44 -13 -77 -59 -78 -107 0 -23 -4 -44 -9 -48 -5 -3
-12 -19 -16 -35 -11 -50 -38 -32 -50 33 -4 20 -11 40 -16 43 -5 3 -9 13 -9 22
0 18 -42 42 -74 42 -71 0 -179 -154 -160 -228 8 -28 60 -49 85 -34 10 7 26 12
35 12 9 0 38 16 64 35 41 30 48 33 52 17 3 -9 21 -26 42 -37 59 -32 70 -17
105 140 16 71 50 99 108 90 51 -7 55 3 12 39 -32 27 -46 30 -91 16z m-223
-131 c13 -39 -4 -88 -35 -104 -30 -15 -100 -21 -100 -7 0 20 52 90 82 109 42
28 45 28 53 2z"/>
<path d="M19959 2722 c-37 -16 -79 -62 -79 -86 0 -14 -8 -30 -19 -35 -17 -10
-18 -14 -4 -58 32 -107 60 -133 154 -140 62 -5 66 -4 112 31 26 20 47 43 47
51 0 17 -11 19 -25 7 -6 -5 -35 -14 -65 -21 -45 -10 -64 -10 -100 1 -40 12
-45 17 -45 43 0 24 5 30 35 38 19 5 37 12 40 15 3 4 22 15 43 24 47 22 55 42
33 83 -26 47 -80 67 -127 47z m51 -62 c17 -10 17 -10 -32 -33 -41 -18 -46 -13
-22 21 16 24 31 27 54 12z"/>
<path d="M10910 2692 c0 -34 106 -102 158 -102 57 0 41 19 -72 86 -66 38 -86
42 -86 16z"/>
<path d="M18517 2652 c-15 -9 -30 -27 -33 -39 -8 -29 27 -85 74 -121 39 -28
52 -42 52 -54 0 -5 -36 -25 -80 -45 -44 -20 -80 -40 -80 -44 0 -3 7 -12 15
-19 22 -18 144 22 185 60 25 24 30 33 24 57 -4 15 -17 35 -28 42 -44 31 -87
81 -84 98 2 13 15 20 43 23 35 4 40 8 40 30 0 23 -4 25 -50 27 -32 1 -60 -4
-78 -15z"/>
<path d="M22184 2652 c-22 -15 -25 -58 -4 -77 23 -21 46 -14 62 20 9 21 8 28
-7 45 -19 21 -33 24 -51 12z"/>
<path d="M5030 2640 c-19 -12 -4 -39 31 -57 46 -24 139 -12 139 17 0 4 -19 13
-42 20 -24 7 -56 16 -72 21 -36 11 -37 11 -56 -1z"/>
<path d="M14120 2635 c-10 -12 -9 -22 4 -49 9 -19 16 -43 16 -53 0 -10 4 -23
9 -28 6 -6 12 -53 16 -105 4 -73 9 -98 22 -108 27 -20 37 -9 46 48 11 78 23
82 87 27 28 -24 31 -32 26 -60 -8 -41 -50 -62 -106 -53 -48 8 -58 -6 -24 -33
38 -30 61 -34 86 -17 12 9 29 16 38 16 26 1 60 37 60 65 0 36 -21 73 -68 118
-37 36 -69 47 -111 36 -11 -3 -17 16 -26 76 -20 126 -41 161 -75 120z"/>
<path d="M18330 2642 c-38 -18 -69 -45 -74 -66 -3 -13 -17 -31 -30 -39 l-24
-16 17 -78 c15 -66 21 -78 39 -81 23 -4 22 -6 42 115 10 61 17 77 42 98 17 14
42 25 59 25 31 0 37 11 17 28 -18 14 -70 22 -88 14z"/>
<path d="M13658 2625 c-4 -4 -18 -9 -31 -10 -32 -4 -95 -46 -103 -68 -9 -29 6
-75 31 -91 14 -9 47 -21 74 -27 55 -12 136 -67 146 -99 14 -44 -49 -73 -120
-57 -110 25 -148 1 -65 -40 32 -17 62 -23 107 -23 50 0 67 4 88 23 79 68 -16
220 -161 256 -91 23 -19 69 115 74 68 2 80 11 57 42 -10 13 -29 20 -72 23 -33
2 -62 1 -66 -3z"/>
<path d="M5351 2606 c-21 -25 19 -46 90 -48 74 -2 120 16 98 37 -20 19 -174
28 -188 11z"/>
<path d="M5738 2614 c-14 -13 -9 -29 15 -44 22 -14 110 -16 190 -4 41 6 50 29
14 38 -41 10 -212 18 -219 10z"/>
<path d="M17010 2607 c-41 -22 -70 -50 -70 -69 0 -9 -12 -28 -26 -41 -26 -24
-26 -24 -10 -71 9 -26 16 -60 16 -76 0 -30 30 -57 50 -45 6 3 10 43 10 88 0
139 26 187 102 187 l33 0 -25 20 c-30 23 -46 24 -80 7z"/>
<path d="M17406 2598 c-9 -12 -16 -30 -16 -40 0 -9 -7 -24 -16 -33 -12 -11
-14 -25 -9 -51 3 -20 8 -57 9 -83 4 -59 22 -93 44 -89 14 3 17 17 19 88 1 47
2 102 2 123 1 21 5 36 10 33 16 -10 71 -166 71 -200 0 -45 21 -84 48 -89 22
-4 24 -2 19 32 -22 147 -57 255 -99 298 -37 39 -61 42 -82 11z"/>
<path d="M17988 2595 c-14 -14 -33 -46 -43 -71 -15 -39 -15 -52 -5 -89 14 -49
62 -101 107 -114 40 -12 82 -3 96 20 7 11 20 19 29 19 12 0 18 8 18 21 0 13
-5 19 -12 16 -100 -36 -128 -34 -158 16 l-20 32 46 12 c90 23 122 88 68 138
-37 34 -92 34 -126 0z m87 -45 c10 -16 -15 -40 -41 -40 -26 0 -31 19 -12 38
15 15 45 16 53 2z"/>
<path d="M17166 2570 c-32 -28 -38 -43 -52 -126 -6 -33 21 -99 50 -123 44 -37
166 -28 166 11 0 15 -9 18 -44 18 -55 0 -91 13 -100 36 -7 19 19 54 41 54 7 0
32 12 54 26 36 22 40 29 34 52 -9 36 -24 53 -62 69 -44 18 -47 17 -87 -17z
m88 -46 c4 -9 5 -17 4 -18 -24 -11 -73 -25 -76 -21 -3 2 3 16 12 30 19 28 51
33 60 9z"/>
<path d="M6197 2573 c-9 -9 -9 -43 1 -44 4 0 25 -2 47 -5 37 -4 67 -4 123 -1
34 3 31 20 -8 39 -35 17 -150 25 -163 11z"/>
<path d="M12848 2569 c-10 -5 -18 -18 -18 -27 0 -20 -96 -122 -114 -122 -7 0
-23 -11 -36 -25 -13 -14 -29 -25 -36 -25 -15 0 -64 -46 -64 -60 0 -5 26 -26
58 -46 31 -20 91 -72 132 -115 41 -44 79 -79 83 -79 5 0 26 -14 47 -31 33 -26
42 -30 54 -19 17 13 14 84 -4 165 -5 22 -10 59 -10 83 0 39 2 42 28 43 15 1
86 3 157 4 115 3 262 19 273 30 3 2 2 11 -1 20 -7 17 -46 19 -167 6 -41 -4
-110 -5 -153 -1 -44 3 -81 2 -83 -1 -2 -4 -15 -4 -29 -1 -22 4 -25 10 -27 51
-1 25 -1 65 0 88 2 33 -2 44 -20 57 -26 18 -46 20 -70 5z"/>
<path d="M6573 2539 c-7 -7 -13 -19 -13 -26 0 -15 60 -27 105 -20 18 3 36 3
39 -1 4 -3 14 -7 24 -7 9 -1 34 -6 55 -10 53 -10 50 16 -5 45 -53 27 -186 40
-205 19z"/>
<path d="M15473 2538 c-4 -7 -8 -15 -8 -18 0 -3 -15 -24 -34 -47 -45 -57 -62
-57 -55 0 5 32 2 46 -10 56 -25 21 -42 -1 -49 -61 -7 -53 13 -108 39 -108 7 0
19 -2 27 -6 8 -3 28 6 44 20 l30 25 10 -22 c6 -12 16 -34 22 -50 6 -15 23 -33
37 -39 22 -11 28 -10 40 7 12 16 11 20 -5 31 -26 18 -51 102 -51 168 0 42 -4
56 -14 56 -8 0 -18 -6 -23 -12z"/>
<path d="M15647 2515 c-21 -15 -40 -37 -43 -53 -4 -15 -9 -31 -12 -37 -9 -15
-13 -68 -7 -93 9 -36 100 -75 154 -66 23 4 44 11 47 15 3 5 13 9 22 9 23 1 58
31 66 58 9 28 -8 29 -52 2 -39 -24 -143 -28 -161 -7 -8 11 -3 17 25 30 19 9
40 17 47 17 7 1 27 14 46 30 32 27 33 31 22 59 -9 20 -26 35 -52 45 -52 21
-58 20 -102 -9z m83 -54 c0 -10 -27 -24 -52 -26 -20 -3 -24 21 -5 28 21 9 57
7 57 -2z"/>
<path d="M11256 2522 c-16 -26 125 -110 155 -91 7 4 11 9 9 11 -3 2 -26 22
-52 46 -33 29 -56 42 -77 42 -16 0 -32 -4 -35 -8z"/>
<path d="M6999 2499 c-6 -12 -7 -25 -2 -29 9 -8 205 -41 211 -35 2 2 1 13 -3
24 -6 21 -67 43 -152 55 -36 5 -44 3 -54 -15z"/>
<path d="M15962 2470 c-31 -47 -33 -55 -30 -123 3 -69 4 -72 28 -72 24 0 25 3
31 75 5 78 22 124 42 117 19 -6 53 -62 72 -119 19 -61 41 -89 61 -81 19 7 18
39 -5 87 -10 23 -22 54 -26 70 -10 44 -69 96 -108 96 -28 0 -37 -7 -65 -50z"/>
<path d="M14497 2487 c-30 -25 -35 -54 -12 -63 8 -4 15 -12 15 -20 0 -8 4 -14
10 -14 14 0 90 -79 90 -94 0 -50 -85 -45 -102 6 -3 9 -9 8 -22 -5 -22 -22 -14
-48 23 -70 64 -37 170 -2 171 56 0 11 -30 50 -66 87 -36 37 -62 70 -57 73 4 3
27 8 50 12 39 6 60 26 47 46 -3 5 -31 9 -63 9 -46 0 -63 -5 -84 -23z"/>
<path d="M7784 2486 c-14 -35 10 -47 97 -49 100 -2 113 14 34 44 -60 23 -123
25 -131 5z"/>
<path d="M15056 2474 c-20 -14 -36 -29 -36 -35 0 -5 -11 -20 -24 -32 -13 -12
-29 -41 -35 -65 -8 -29 -17 -42 -25 -39 -7 3 -26 -3 -42 -14 -41 -27 -95 -25
-123 4 -24 27 -20 34 34 56 69 28 108 91 73 118 -24 19 -78 23 -111 9 -42 -18
-88 -67 -89 -97 -1 -13 -5 -29 -10 -35 -9 -13 45 -99 76 -119 45 -30 137 -15
167 26 23 33 39 37 39 11 0 -11 9 -27 19 -36 28 -26 74 -13 111 32 16 20 33
32 37 28 5 -4 8 -69 8 -144 l0 -137 26 -2 c20 -1 30 7 52 43 15 25 27 51 27
59 0 8 5 17 10 20 6 3 10 13 10 21 0 8 13 41 29 74 51 103 -9 96 -72 -8 l-28
-47 6 65 c3 36 1 87 -5 115 -7 28 -14 67 -17 88 -3 24 -12 40 -22 43 -9 3 -23
9 -32 14 -11 6 -28 1 -53 -16z m41 -114 c-11 -30 -68 -100 -81 -100 -3 0 -6
12 -6 28 0 29 28 82 63 120 21 22 21 22 29 3 4 -11 1 -34 -5 -51z"/>
<path d="M7387 2472 c-13 -3 -16 -9 -11 -25 11 -38 34 -48 94 -41 112 13 122
53 13 54 -17 0 -42 4 -55 8 -13 5 -31 7 -41 4z"/>
<path d="M8255 2440 c-3 -5 0 -18 7 -29 9 -14 26 -21 67 -24 31 -2 74 -9 96
-15 76 -21 68 24 -10 59 -43 20 -150 26 -160 9z"/>
<path d="M13886 2409 c-10 -17 -16 -40 -12 -51 3 -12 1 -29 -4 -38 -7 -12 -1
-25 21 -49 24 -27 35 -32 57 -27 15 4 37 20 50 36 23 28 24 28 43 9 19 -19 64
-26 73 -10 3 4 -2 18 -12 29 -9 12 -28 40 -42 62 -13 22 -29 39 -35 37 -5 -2
-23 -24 -40 -50 -16 -26 -35 -47 -41 -47 -18 0 -24 37 -11 69 22 58 -16 83
-47 30z"/>
<path d="M11544 2415 c-4 -10 1 -22 12 -30 25 -19 123 -59 130 -53 11 12 -11
40 -50 62 -60 35 -85 41 -92 21z"/>
<path d="M8704 2356 c-9 -24 17 -48 54 -50 17 -1 34 -5 38 -9 4 -4 25 -7 47
-7 43 0 47 17 7 37 -12 6 -26 16 -30 22 -3 7 -30 14 -58 18 -43 5 -53 3 -58
-11z"/>
<path d="M9041 2306 c-18 -21 -2 -46 30 -46 15 0 49 -7 75 -16 25 -8 49 -13
52 -9 12 12 -15 40 -59 62 -51 26 -82 29 -98 9z"/>
<path d="M11835 2276 c-25 -18 -14 -30 51 -60 65 -30 74 -31 74 -12 0 11 -33
38 -96 78 -6 4 -19 1 -29 -6z"/>
<path d="M9432 2218 c-19 -19 -14 -35 16 -46 48 -19 155 -52 169 -52 19 0 16
30 -4 37 -10 3 -25 12 -34 19 -11 10 -121 54 -134 54 0 0 -6 -5 -13 -12z"/>
<path d="M12087 2126 c-8 -21 17 -51 67 -80 81 -48 109 -19 34 34 -24 17 -51
37 -61 45 -22 19 -33 19 -40 1z"/>
<path d="M9791 2086 c-18 -21 -3 -43 42 -61 23 -9 49 -22 57 -29 8 -7 30 -16
48 -19 59 -12 33 32 -48 81 -59 35 -87 43 -99 28z"/>
<path d="M10143 1944 c-7 -20 32 -53 62 -54 11 0 36 -15 55 -33 53 -51 100
-72 100 -44 0 19 -101 122 -133 135 -39 17 -77 15 -84 -4z"/>
<path d="M12343 1923 c-22 -8 -14 -33 22 -70 18 -19 35 -39 37 -43 6 -16 42
-15 46 1 4 21 -89 119 -105 112z"/>
<path d="M10500 1755 c-10 -12 -8 -21 14 -50 54 -71 126 -106 140 -70 4 11 -5
22 -28 36 -19 11 -46 37 -61 59 -30 43 -45 49 -65 25z"/>
<path d="M12567 1673 c-25 -24 37 -143 75 -143 18 0 6 59 -17 86 -14 16 -25
37 -25 47 0 17 -20 23 -33 10z"/>
<path d="M10640 1462 c0 -4 5 -23 10 -42 6 -19 11 -58 11 -87 1 -60 17 -90 44
-79 15 5 17 14 11 53 -13 93 -37 163 -57 163 -11 0 -19 -3 -19 -8z"/>
<path d="M17664 1415 c-3 -8 -4 -18 -2 -23 4 -10 180 -177 266 -252 l63 -55
-107 -110 c-150 -155 -189 -216 -148 -232 15 -5 74 41 74 59 0 4 24 32 53 61
28 30 62 65 74 78 12 13 53 55 93 94 80 79 91 112 32 107 -28 -3 -44 6 -115
66 -45 38 -117 104 -160 146 -75 74 -111 92 -123 61z"/>
<path d="M12671 1401 c-18 -11 -6 -114 15 -131 20 -18 28 10 21 72 -7 57 -16
71 -36 59z"/>
<path d="M16156 1391 c-10 -11 -15 -25 -11 -31 4 -7 7 -102 7 -211 -1 -186 0
-201 18 -219 23 -23 36 -25 46 -9 11 19 2 427 -11 468 -8 26 -26 27 -49 2z"/>
<path d="M15044 1234 l6 -127 -45 6 c-43 6 -85 -6 -85 -25 0 -14 52 -41 88
-47 37 -6 37 -6 40 -61 2 -30 -1 -87 -8 -126 -12 -77 -7 -104 20 -104 22 0 30
20 36 95 3 33 7 69 9 80 1 11 3 38 4 61 l1 41 95 -5 c84 -4 95 -3 95 12 0 19
-56 46 -96 46 -15 0 -44 5 -64 11 l-38 12 -7 106 c-7 103 -21 151 -47 151 -8
0 -9 -35 -4 -126z"/>
<path d="M16777 1334 c-15 -8 -63 -28 -105 -43 -42 -15 -102 -45 -132 -67
-103 -72 -149 -109 -154 -122 -8 -17 11 -52 27 -52 8 0 29 -21 48 -46 38 -52
179 -174 222 -192 15 -7 39 -12 52 -12 34 0 32 28 -3 43 -15 7 -47 30 -71 52
-24 22 -69 62 -99 90 -29 27 -61 62 -69 78 -18 35 -10 46 65 94 28 18 52 38
52 43 0 5 12 13 28 16 41 10 154 72 175 96 33 39 15 50 -36 22z"/>
<path d="M17084 1312 c-12 -1 -33 -15 -47 -30 -29 -31 -54 -74 -168 -292 -22
-41 -47 -82 -56 -92 -10 -11 -13 -26 -9 -43 16 -62 71 -8 146 145 22 47 45 89
50 94 6 6 10 17 10 26 0 8 25 48 55 88 67 89 71 113 19 104z"/>
<path d="M13588 1289 c-119 -10 -128 -14 -128 -52 0 -18 5 -50 11 -72 5 -22
12 -71 15 -108 2 -38 8 -84 12 -104 4 -19 3 -86 -1 -149 -5 -64 -7 -117 -4
-120 9 -9 37 9 37 25 1 11 10 6 30 -18 23 -27 41 -37 90 -47 56 -11 67 -10
131 11 108 35 179 112 179 193 0 50 -19 67 -128 114 -48 20 -88 41 -90 46 -1
4 16 16 39 26 45 20 91 65 100 99 9 35 -18 75 -74 110 -46 29 -116 59 -128 56
-2 -1 -43 -5 -91 -10z m124 -64 c26 -3 50 -10 53 -16 4 -5 14 -9 24 -9 10 0
26 -11 35 -25 17 -25 16 -27 -17 -60 -36 -36 -119 -66 -192 -70 -22 -1 -48 -5
-57 -9 -14 -6 -18 0 -23 41 -3 26 -8 65 -11 85 -5 31 -2 38 18 49 27 15 86 28
108 24 8 -2 36 -6 62 -10z m-122 -245 c51 0 131 -21 191 -51 32 -16 64 -29 71
-29 7 -1 24 -10 37 -20 19 -16 22 -26 17 -54 -5 -26 -19 -42 -64 -74 -100 -70
-177 -76 -259 -20 l-43 29 0 127 c1 91 3 122 11 110 6 -11 22 -18 39 -18z"/>
<path d="M17245 1271 c-24 -5 -30 -12 -30 -31 0 -24 3 -25 60 -27 114 -3 295
-95 295 -149 0 -63 -115 -107 -230 -88 l-35 6 3 81 c2 87 -11 123 -41 111 -13
-5 -16 -52 -21 -332 -3 -180 -6 -338 -7 -351 0 -13 5 -30 13 -38 13 -12 16
-12 28 2 16 19 18 49 24 285 l4 185 29 -2 c120 -10 159 -7 200 15 23 12 54 38
69 57 56 74 6 150 -145 222 -42 20 -83 39 -91 43 -26 12 -93 18 -125 11z"/>
<path d="M11843 1243 c-16 -6 -17 -139 -2 -203 6 -25 12 -138 13 -252 1 -182
3 -209 18 -225 17 -16 19 -16 33 2 12 17 13 55 9 240 -4 121 -7 263 -8 316 -2
115 -16 142 -63 122z"/>
<path d="M12113 1238 c-15 -25 -45 -446 -37 -522 8 -74 30 -116 61 -116 23 0
25 3 18 33 -14 62 -17 243 -5 332 17 123 16 265 -2 276 -18 12 -25 11 -35 -3z"/>
<path d="M10885 1190 c-3 -5 -6 -146 -7 -312 l-1 -303 23 0 c31 0 41 35 41
140 l1 80 112 1 113 2 7 -105 c5 -84 10 -109 23 -119 10 -7 23 -12 28 -10 6 1
11 51 13 113 3 123 3 123 80 123 40 0 72 15 72 34 0 10 -20 15 -69 18 -39 2
-73 6 -76 10 -3 3 -9 62 -12 130 -4 80 -11 131 -19 143 -13 18 -14 18 -35 -1
-20 -18 -21 -25 -14 -119 4 -55 8 -113 9 -130 l1 -30 -110 4 c-60 1 -113 6
-118 10 -12 11 -10 241 3 255 12 16 3 46 -19 63 -20 15 -38 16 -46 3z"/>
<path d="M10250 1175 c-11 -13 -11 -20 0 -40 7 -14 19 -25 27 -25 7 0 39 -26
71 -58 31 -32 62 -61 67 -63 6 -2 37 -32 70 -67 58 -61 59 -62 40 -80 -37 -35
-139 -154 -162 -187 -28 -41 -28 -47 -4 -69 18 -16 20 -15 57 31 86 108 157
183 173 183 27 1 130 148 114 164 -12 12 -33 6 -78 -25 l-45 -30 -113 106
c-61 58 -128 122 -147 140 -39 39 -52 42 -70 20z"/>
<path d="M10704 1145 c-9 -35 3 -104 21 -121 28 -28 36 -16 32 50 -5 84 -38
129 -53 71z"/>
<path d="M12740 1152 c-35 -12 -41 -67 -11 -103 24 -30 32 -22 38 34 6 50 -5
77 -27 69z"/>
<path d="M15875 1143 c-37 -20 -54 -42 -55 -69 0 -35 52 -101 118 -149 63 -46
79 -80 50 -102 -38 -27 -123 -42 -166 -29 -18 6 -22 4 -22 -12 0 -40 54 -57
132 -41 104 21 128 41 128 111 0 31 -9 42 -130 147 -40 35 -50 50 -48 70 2 22
8 26 33 26 17 -1 39 -4 51 -8 14 -5 29 -1 44 11 l24 19 -25 16 c-38 25 -99 30
-134 10z"/>
<path d="M9618 1032 c-25 -21 -53 -45 -61 -53 -34 -31 -205 -188 -242 -222
-56 -50 -43 -69 52 -79 39 -4 90 -15 114 -24 24 -9 67 -24 94 -35 28 -10 74
-30 103 -44 61 -29 85 -22 80 24 -2 19 -10 27 -33 31 -16 4 -44 14 -62 23 -18
9 -41 17 -52 17 -11 0 -23 5 -26 10 -8 13 -72 40 -94 40 -9 0 -26 7 -38 15
l-21 15 26 31 c25 30 42 47 74 76 7 7 33 33 58 58 25 25 57 49 72 52 43 9 51
26 34 67 -8 20 -19 36 -23 36 -5 0 -29 -17 -55 -38z"/>
<path d="M14722 1058 c-5 -7 -22 -49 -38 -92 -43 -124 -111 -183 -156 -139
-15 16 -19 37 -21 119 -2 79 -5 99 -17 99 -42 0 -56 -159 -20 -230 22 -43 70
-70 108 -60 36 9 90 64 127 129 l33 59 11 -41 c7 -23 18 -48 26 -56 8 -8 15
-26 15 -40 0 -27 41 -66 71 -66 22 0 25 25 4 33 -19 8 -39 57 -65 160 -36 137
-50 159 -78 125z"/>
<path d="M15351 1051 c-13 -8 -22 -45 -37 -152 -6 -41 -4 -49 22 -77 46 -48
75 -49 120 -4 22 21 48 56 59 79 l20 41 40 -82 c30 -60 46 -82 63 -84 27 -4
27 3 1 53 -12 22 -28 67 -37 100 -20 80 -39 117 -60 113 -9 -2 -32 -33 -52
-71 -19 -37 -47 -81 -63 -98 -23 -27 -29 -29 -43 -18 -13 10 -15 24 -9 64 17
120 10 157 -24 136z"/>
<path d="M14225 1043 c-11 -2 -39 -13 -62 -23 -46 -22 -116 -104 -109 -129 2
-9 7 -47 11 -84 5 -48 13 -75 26 -88 36 -36 42 -25 35 69 -7 104 7 140 69 184
34 24 54 30 128 35 48 3 87 9 87 13 0 21 -126 36 -185 23z"/>
<path d="M9883 990 c-39 -23 -40 -29 -12 -59 14 -15 26 -51 37 -112 15 -84 15
-92 -1 -119 -17 -27 -17 -29 3 -35 12 -4 22 -19 26 -41 8 -43 11 -250 4 -326
-4 -49 -2 -59 15 -72 13 -10 23 -11 30 -5 6 6 10 93 9 223 l-1 214 44 6 c108
15 202 124 173 202 -16 40 -57 79 -124 113 -72 38 -152 42 -203 11z m141 -65
c19 -8 39 -14 43 -13 25 7 93 -50 93 -79 0 -44 -93 -113 -152 -113 -24 0 -27
4 -33 48 -4 26 -11 71 -17 100 -10 44 -9 55 3 63 19 12 21 11 63 -6z"/>
<path d="M11461 945 c-28 -24 -46 -62 -57 -119 -5 -30 -19 -64 -36 -89 -11
-15 -10 -20 3 -30 9 -7 20 -28 24 -47 9 -44 33 -90 45 -90 6 0 10 -6 10 -14 0
-23 54 -36 92 -24 110 37 218 115 218 159 0 23 -23 25 -40 4 -19 -23 -116 -72
-170 -86 -47 -12 -52 -11 -71 8 -11 11 -21 35 -22 53 -2 29 2 34 33 45 59 21
134 72 153 105 22 37 12 78 -30 122 -37 39 -108 40 -152 3z m104 -31 c24 -10
37 -51 24 -75 -6 -12 -38 -34 -72 -50 -56 -26 -62 -27 -68 -11 -7 19 16 88 39
114 8 9 24 19 36 21 11 2 22 5 23 6 1 0 9 -2 18 -5z"/>
<path d="M12324 901 c-56 -26 -89 -99 -81 -184 7 -74 28 -98 107 -120 120 -34
184 -13 228 73 43 86 7 175 -91 223 -65 32 -106 34 -163 8z m182 -73 c28 -25
48 -92 35 -117 -6 -10 -27 -33 -47 -51 -33 -28 -42 -31 -77 -26 -22 4 -48 11
-59 17 -20 11 -54 85 -50 109 8 42 28 74 55 85 39 16 117 7 143 -17z"/>
<path d="M10722 873 c-18 -36 -22 -97 -6 -117 18 -25 29 -14 41 45 14 67 -11
118 -35 72z"/>
<path d="M16172 744 c-27 -18 -28 -36 -4 -57 16 -15 20 -15 40 -1 27 18 28 36
4 57 -16 15 -20 15 -40 1z"/>
<path d="M12633 728 c-27 -35 -44 -138 -23 -138 28 0 88 105 77 134 -8 19 -41
21 -54 4z"/>
<path d="M12773 683 c-68 -82 -123 -171 -123 -198 0 -26 20 -55 38 -55 5 0 35
53 67 118 32 64 65 125 73 134 15 17 10 48 -7 48 -5 0 -27 -21 -48 -47z"/>
<path d="M10702 678 c-18 -18 -16 -133 3 -148 28 -23 38 -1 32 73 -6 75 -16
94 -35 75z"/>
<path d="M12543 460 c-18 -11 -39 -36 -48 -56 -36 -86 31 -65 88 28 32 51 16
62 -40 28z"/>
<path d="M10714 446 c-9 -23 47 -116 73 -122 25 -7 53 1 53 14 0 8 -109 122
-117 122 -2 0 -6 -7 -9 -14z"/>
<path d="M10965 291 c-11 -19 3 -28 52 -35 27 -4 61 -12 76 -18 32 -12 81 4
75 24 -8 22 -191 48 -203 29z"/>
<path d="M12144 277 c-34 -7 -53 -20 -54 -38 0 -3 30 -9 67 -12 51 -5 73 -3
90 8 50 33 -17 60 -103 42z"/>
<path d="M11785 261 c-35 -4 -50 -10 -50 -21 0 -14 55 -26 150 -31 44 -3 106
26 99 45 -5 13 -21 16 -78 14 -39 0 -93 -4 -121 -7z"/>
<path d="M11381 251 c-25 -3 -46 -11 -48 -18 -6 -18 67 -34 123 -27 78 9 94
13 94 28 0 24 -69 31 -169 17z"/>
</g>
</svg>
