<?xml version="1.0" standalone="no"?>
<!DOCTYPE svg PUBLIC "-//W3C//DTD SVG 20010904//EN"
 "http://www.w3.org/TR/2001/REC-SVG-20010904/DTD/svg10.dtd">
<svg version="1.0" xmlns="http://www.w3.org/2000/svg"
 width="507.521730pt" height="400.000000pt" viewBox="0 0 507.521730 400.000000"
 preserveAspectRatio="xMidYMid meet">
<metadata>
Created by potrace 1.15, written by Peter Selinger 2001-2017
</metadata>
<g transform="translate(-12.232087,410.913397) scale(0.030171,-0.030171)"
fill="#444444" stroke="none">
<path d="M12940 13596 c-11 -22 -9 -31 20 -83 18 -32 43 -78 56 -103 38 -70
59 -94 78 -87 24 9 20 58 -11 124 -15 32 -30 60 -33 63 -3 3 -14 24 -25 48
-27 63 -63 79 -85 38z"/>
<path d="M15905 13602 c-16 -11 -40 -38 -52 -60 l-22 -42 21 -20 c12 -11 25
-20 30 -20 25 0 88 100 88 140 0 25 -25 26 -65 2z"/>
<path d="M16067 13560 c-30 -34 -68 -80 -83 -102 l-28 -40 23 -19 c30 -25 46
-24 72 4 70 74 114 177 86 204 -12 12 -21 6 -70 -47z"/>
<path d="M12789 13568 c-3 -27 4 -43 32 -84 16 -23 34 -53 39 -66 23 -50 40
-72 64 -85 24 -13 27 -12 36 12 7 19 5 33 -9 58 -11 17 -32 56 -47 85 -16 30
-39 62 -52 73 -28 22 -61 25 -63 7z"/>
<path d="M13309 13509 c-16 -16 -19 -28 -14 -47 16 -65 36 -267 37 -382 1
-111 -1 -130 -20 -165 -12 -22 -22 -44 -22 -48 0 -16 44 -46 67 -47 12 0 24
-4 28 -10 3 -5 11 -7 18 -4 7 2 41 6 77 8 121 8 189 47 234 133 19 38 20 58 4
120 -14 51 -76 120 -133 147 -16 8 -36 24 -42 35 -12 19 -9 22 26 40 72 37
122 125 100 174 -21 47 -64 60 -206 64 -124 3 -134 2 -154 -18z m279 -75 c36
-11 -13 -84 -58 -84 -14 0 -30 -4 -35 -9 -6 -5 -30 -11 -55 -13 l-44 -3 -9 48
c-5 26 -7 51 -3 54 15 16 160 21 204 7z m-70 -252 c60 -29 119 -82 133 -121
20 -51 -9 -114 -67 -147 -22 -12 -181 -40 -189 -33 -2 3 0 32 5 65 6 32 8 105
5 162 -3 56 -3 107 0 112 6 10 31 2 113 -38z"/>
<path d="M16796 13511 c-17 -18 -16 -21 4 -58 65 -119 110 -176 195 -245 36
-29 65 -59 65 -66 0 -7 -44 -63 -97 -126 -111 -128 -185 -222 -195 -247 -8
-19 29 -43 58 -37 17 3 84 78 154 172 53 72 142 171 158 174 8 2 19 -1 25 -7
16 -16 42 -14 57 4 10 12 9 20 -3 39 -11 16 -12 27 -6 33 6 6 9 21 7 34 -3 22
-7 24 -51 22 l-48 -3 -98 98 c-56 56 -111 121 -129 154 -27 48 -55 78 -75 78
-2 0 -12 -9 -21 -19z"/>
<path d="M8631 13492 c-7 -14 -3 -29 16 -63 13 -24 45 -83 70 -131 46 -88 62
-101 89 -73 13 12 11 22 -12 77 -14 35 -32 70 -38 78 -7 8 -19 30 -26 48 -29
73 -77 104 -99 64z"/>
<path d="M14696 13495 c-11 -12 -12 -22 -5 -48 6 -17 12 -43 14 -57 1 -14 8
-59 14 -100 6 -41 11 -80 11 -85 0 -6 -14 -10 -32 -8 -49 5 -120 -10 -131 -29
-22 -34 27 -58 128 -61 l50 -2 3 -99 c1 -55 -1 -111 -6 -126 -13 -35 2 -60 34
-60 42 0 58 54 51 179 l-5 103 63 -4 c54 -5 64 -3 75 15 11 18 9 24 -14 44
-17 14 -40 23 -61 23 -19 0 -37 5 -40 10 -3 6 -14 10 -24 10 -18 0 -27 28 -37
110 -5 44 -25 167 -30 183 -7 21 -37 22 -58 2z"/>
<path d="M9848 13456 c-16 -24 -28 -47 -28 -52 0 -5 -14 -27 -30 -48 -36 -47
-37 -60 -8 -80 21 -15 24 -14 51 12 33 30 87 141 87 177 0 20 -17 35 -38 35
-4 0 -19 -20 -34 -44z"/>
<path d="M16670 13450 c-11 -11 -72 -99 -137 -197 -64 -98 -141 -210 -170
-249 -55 -73 -58 -90 -22 -112 18 -12 25 -9 62 31 58 62 79 91 176 246 136
218 170 301 125 301 -8 0 -23 -9 -34 -20z"/>
<path d="M4818 13453 c-22 -6 -22 -4 1 -121 13 -66 22 -165 26 -310 5 -138 11
-215 18 -219 48 -30 69 15 62 132 -2 44 -7 134 -10 200 -7 166 -39 314 -70
320 -5 2 -18 1 -27 -2z"/>
<path d="M10006 13410 c-20 -27 -36 -55 -36 -61 0 -5 -16 -35 -35 -65 -40 -62
-39 -60 -23 -78 32 -34 75 4 142 127 33 61 36 70 24 94 -20 41 -33 38 -72 -17z"/>
<path d="M8486 13414 c-8 -22 71 -178 111 -216 31 -30 34 -31 50 -15 16 16 16
19 -5 59 -60 115 -94 173 -105 180 -20 13 -44 9 -51 -8z"/>
<path d="M854 13365 c-10 -8 -14 -15 -9 -15 6 0 -5 -7 -22 -15 -18 -8 -33 -19
-33 -25 0 -5 -7 -10 -15 -10 -8 0 -23 -9 -32 -20 -10 -11 -23 -20 -30 -20 -6
0 -16 -6 -20 -14 -4 -7 -39 -39 -78 -70 -38 -31 -75 -60 -81 -65 -6 -5 -32
-18 -57 -29 -26 -12 -47 -27 -47 -35 0 -8 -7 -20 -15 -27 -24 -20 -1 -50 38
-50 25 0 37 -7 56 -35 35 -52 241 -245 269 -252 59 -14 51 54 -12 97 -43 29
-98 74 -122 100 -48 50 -84 97 -84 109 0 8 -7 23 -17 33 -14 16 -14 18 -1 18
9 0 18 7 22 15 3 8 10 15 16 15 18 0 120 83 126 102 3 9 30 31 60 48 29 17 54
35 54 40 0 4 20 20 45 34 37 22 45 32 45 56 0 34 -23 40 -56 15z"/>
<path d="M1197 13333 c-4 -3 -15 -7 -25 -8 -39 -3 -104 -48 -141 -98 -61 -82
-71 -108 -71 -190 0 -66 4 -82 44 -163 43 -88 65 -112 133 -147 39 -21 56 -21
120 -2 41 12 58 25 95 72 49 64 63 109 52 178 l-6 45 -179 0 c-167 0 -179 1
-189 20 -16 30 7 106 44 144 44 45 71 60 151 84 55 17 80 19 115 12 25 -4 47
-7 49 -5 10 11 -13 38 -44 50 -35 15 -136 21 -148 8z m137 -396 c16 -12 17
-16 3 -49 -9 -20 -29 -51 -45 -68 -27 -27 -36 -31 -79 -29 -26 2 -61 11 -77
20 -26 16 -96 111 -96 130 0 13 276 9 294 -4z"/>
<path d="M2735 13278 c2 -35 8 -89 11 -120 l6 -58 -44 0 c-31 0 -50 -6 -61
-18 -34 -37 -18 -54 58 -62 l50 -5 3 -50 c2 -27 -1 -90 -6 -140 -10 -96 -3
-128 26 -123 35 6 50 63 51 190 1 66 3 124 6 128 3 4 36 7 75 5 49 -2 70 1 70
9 0 17 -67 52 -113 60 -42 8 -54 27 -62 100 -3 22 -12 65 -21 94 -11 40 -19
52 -34 52 -19 0 -20 -5 -15 -62z"/>
<path d="M15739 13241 c-26 -10 -77 -26 -115 -36 -38 -10 -75 -23 -83 -29 -56
-44 5 -145 108 -177 54 -16 101 -39 101 -48 0 -17 -81 -41 -135 -41 -39 0 -53
3 -50 13 13 36 -37 49 -59 15 -8 -14 -4 -24 24 -53 62 -64 129 -70 232 -21 47
22 59 33 69 63 11 35 11 38 -24 70 -29 26 -45 33 -77 33 -22 0 -40 4 -40 9 0
6 -18 20 -40 32 -23 13 -39 29 -38 37 2 8 35 24 73 37 100 32 103 34 119 65
10 20 11 31 3 39 -14 14 -12 14 -68 -8z"/>
<path d="M12120 13229 c-64 -25 -150 -157 -165 -254 -15 -93 3 -135 78 -182
40 -25 43 -25 118 -15 85 12 165 47 175 75 9 28 -2 31 -42 12 -70 -33 -191
-27 -236 13 -22 18 -25 82 -4 82 21 0 126 48 168 77 72 49 88 124 39 174 -32
31 -80 38 -131 18z m96 -87 c-8 -31 -62 -82 -88 -82 -11 0 -30 -7 -44 -16 -48
-32 -41 11 13 83 50 65 133 76 119 15z"/>
<path d="M11207 13171 c-120 -96 -197 -203 -181 -253 12 -38 50 -87 75 -98 60
-26 171 15 191 70 12 37 21 38 37 3 8 -16 17 -35 21 -43 9 -18 33 -24 66 -16
26 7 33 31 11 39 -15 6 -53 131 -61 202 -4 28 -14 61 -25 75 -10 14 -21 35
-25 47 -12 38 -33 33 -109 -26z m75 -83 c4 -43 -15 -119 -43 -168 -37 -65
-109 -78 -130 -23 -19 49 -11 77 34 119 52 50 119 104 129 104 4 0 8 -15 10
-32z"/>
<path d="M9055 13189 c-58 -37 -80 -61 -106 -116 -11 -24 -25 -43 -30 -43 -25
0 21 -169 59 -215 48 -59 241 -108 298 -76 11 5 30 12 44 15 14 3 49 28 78 56
57 54 72 60 72 31 0 -24 25 -34 48 -20 15 9 18 26 18 93 0 86 23 161 46 154
24 -7 69 -113 74 -173 3 -31 9 -68 14 -81 10 -26 38 -32 58 -12 40 40 -27 264
-94 317 -33 26 -75 27 -105 2 -16 -13 -33 -17 -55 -14 -39 7 -47 -11 -33 -76
17 -80 17 -131 -1 -131 -8 -1 -33 -14 -55 -30 -62 -46 -84 -53 -170 -57 -127
-7 -194 31 -210 119 l-7 37 68 -1 c58 0 77 4 119 27 103 58 125 98 85 155 -23
32 -97 70 -138 70 -15 0 -50 -14 -77 -31z m115 -44 c16 -8 35 -25 41 -36 9
-18 7 -26 -15 -48 -23 -23 -36 -26 -106 -29 -55 -3 -80 -1 -80 7 0 13 20 50
38 69 6 7 12 17 12 22 0 4 17 12 38 18 20 5 38 10 40 11 2 1 16 -6 32 -14z"/>
<path d="M12563 13212 c-67 -3 -71 -4 -77 -28 -11 -44 9 -57 78 -49 33 3 64 9
69 12 5 3 41 6 81 7 65 1 71 3 74 23 2 16 -3 24 -20 28 -31 8 -117 11 -205 7z"/>
<path d="M15070 13202 c-16 -13 -27 -42 -41 -107 -26 -124 -25 -176 4 -203 27
-25 72 -38 81 -23 4 6 15 11 25 11 20 0 101 82 101 102 0 7 14 29 29 48 l29
35 10 -25 c6 -14 23 -58 37 -97 26 -70 60 -113 91 -113 25 0 24 20 -12 132
-75 234 -84 249 -133 223 -27 -14 -81 -101 -81 -132 0 -14 -95 -113 -108 -113
-15 0 -16 68 -2 141 21 106 21 116 7 128 -11 9 -19 7 -37 -7z"/>
<path d="M13970 13184 c-30 -14 -75 -46 -99 -72 -26 -28 -46 -42 -48 -34 -7
18 -31 15 -42 -6 -15 -28 18 -211 40 -223 38 -20 59 9 59 84 0 84 78 176 172
205 33 11 65 27 70 36 7 13 6 17 -4 15 -7 -1 -26 3 -41 9 -39 16 -44 15 -107
-14z"/>
<path d="M10656 13179 c-21 -12 -41 -17 -45 -12 -3 5 -14 12 -23 16 -31 11
-41 -25 -29 -103 6 -38 11 -106 11 -152 0 -67 3 -86 18 -99 18 -15 39 -19 35
-6 -2 4 4 7 13 7 15 0 16 10 11 73 -11 154 21 230 96 225 36 -3 44 -8 75 -56
33 -49 36 -61 40 -143 4 -73 8 -91 23 -99 31 -17 46 11 48 93 1 62 -3 84 -24
128 -14 30 -36 65 -48 79 -19 22 -69 52 -89 54 -3 1 -10 4 -14 9 -13 13 -58 7
-98 -14z"/>
<path d="M11572 13170 c-13 -10 -28 -17 -35 -15 -7 3 -21 -2 -31 -10 -17 -13
-18 -23 -12 -109 6 -95 27 -166 47 -166 27 0 46 41 48 98 0 32 7 78 14 102
l13 45 17 -34 c9 -19 17 -51 17 -72 0 -27 6 -42 21 -53 31 -21 53 -3 84 68
l26 60 19 -30 c11 -16 20 -33 20 -39 0 -5 12 -40 26 -77 21 -57 30 -68 49 -68
36 0 39 38 10 127 -26 83 -86 172 -117 173 -10 0 -33 -16 -52 -35 l-35 -34
-20 35 c-18 29 -55 55 -79 54 -4 -1 -17 -9 -30 -20z"/>
<path d="M14237 13179 c-43 -25 -77 -170 -56 -242 22 -77 114 -126 177 -93 33
17 78 67 106 117 17 31 19 32 27 14 4 -11 8 -34 8 -52 1 -19 12 -45 28 -65 15
-18 27 -34 27 -34 1 -1 11 -5 23 -8 31 -10 52 28 28 53 -18 21 -32 64 -45 137
-11 65 -27 125 -39 143 -16 24 -56 -11 -85 -75 -14 -31 -26 -61 -26 -67 0 -5
-16 -30 -36 -54 -33 -40 -40 -44 -67 -39 -17 3 -36 11 -44 17 -18 15 -17 117
1 155 16 32 16 96 1 100 -6 2 -18 -1 -28 -7z"/>
<path d="M8203 13153 c-12 -3 -27 -11 -34 -19 -10 -12 -8 -19 11 -39 22 -23
31 -25 116 -25 74 0 96 4 115 18 36 30 19 49 -48 56 -90 10 -136 13 -160 9z"/>
<path d="M3027 13143 c-11 -10 -8 -51 4 -58 18 -12 59 4 59 23 0 32 -43 56
-63 35z"/>
<path d="M5509 13078 c-49 -51 -59 -68 -55 -88 3 -14 11 -53 18 -87 13 -64 26
-78 60 -67 16 5 18 15 17 87 -1 84 8 124 34 145 34 29 101 -75 113 -175 11
-99 14 -111 34 -116 69 -18 65 140 -8 258 -43 71 -82 105 -119 105 -28 0 -43
-10 -94 -62z"/>
<path d="M5215 13109 c-16 -10 -37 -22 -45 -26 -19 -8 -60 -49 -74 -72 -44
-74 -53 -99 -50 -135 4 -47 17 -63 61 -75 24 -7 43 -6 66 4 34 14 90 69 100
98 10 27 35 20 42 -13 9 -41 43 -72 69 -64 29 9 30 12 18 26 -5 7 -24 55 -41
106 -29 88 -81 173 -105 171 -6 0 -24 -9 -41 -20z m45 -86 c0 -41 -22 -91 -59
-132 -33 -37 -43 -43 -65 -37 -57 14 -20 119 58 167 39 24 66 24 66 2z"/>
<path d="M7747 13119 c-60 -35 -95 -94 -103 -178 -9 -83 14 -139 79 -193 45
-38 56 -43 111 -45 73 -4 140 25 167 72 31 54 22 58 -47 20 -65 -36 -67 -36
-117 -24 -52 12 -97 46 -97 74 0 8 8 15 19 15 10 0 35 11 55 25 20 14 42 25
49 25 7 0 29 16 50 35 37 33 38 36 27 69 -12 38 -64 83 -119 102 -44 16 -51
16 -74 3z m73 -64 c28 -15 50 -42 50 -64 0 -17 -82 -64 -117 -68 -32 -3 -33
-3 -33 37 0 59 27 106 63 109 4 1 21 -6 37 -14z"/>
<path d="M6950 13095 c-14 -8 -32 -17 -40 -21 -28 -14 -120 -86 -120 -95 0 -4
-11 -19 -25 -33 -35 -35 -34 -93 1 -135 22 -27 33 -31 73 -31 39 0 52 5 73 28
32 34 58 84 58 112 0 32 15 16 59 -58 40 -69 77 -100 105 -89 22 9 20 34 -4
47 -11 6 -20 17 -20 24 0 16 -52 116 -87 168 -17 25 -23 43 -18 59 5 14 2 25
-6 30 -18 11 -20 11 -49 -6z m-8 -115 c-2 -14 -8 -29 -13 -34 -5 -6 -9 -21 -9
-34 0 -25 -58 -92 -79 -92 -6 0 -18 11 -26 24 -12 18 -13 30 -5 50 11 29 73
96 90 96 5 0 10 5 10 11 0 6 8 9 18 7 12 -2 16 -11 14 -28z"/>
<path d="M3803 13048 c-90 -84 -109 -105 -127 -143 -9 -19 -21 -35 -25 -35 -5
0 -14 -13 -21 -29 -23 -56 24 -101 106 -101 62 0 101 18 148 70 20 22 38 40
40 40 8 0 35 -104 47 -180 16 -104 0 -169 -55 -221 -97 -93 -224 -106 -271
-27 -9 16 -22 28 -29 28 -23 0 -25 -40 -5 -75 28 -47 92 -75 172 -75 57 0 70
4 123 38 82 53 119 103 138 185 16 69 16 69 -14 197 -6 25 -12 54 -14 65 -2
11 -15 63 -29 116 -26 100 -51 159 -67 159 -5 0 -12 9 -15 20 -10 33 -42 23
-102 -32z m72 -125 c-7 -38 -55 -97 -95 -118 -30 -16 -70 -10 -70 11 0 19 41
77 107 150 l58 65 3 -38 c2 -20 1 -52 -3 -70z"/>
<path d="M6101 13086 c-7 -8 -30 -17 -52 -21 -22 -4 -61 -21 -86 -38 -38 -26
-50 -41 -62 -80 -13 -42 -13 -53 0 -89 19 -54 59 -70 133 -53 49 12 127 51
134 67 10 22 23 0 46 -74 30 -98 51 -235 43 -270 -5 -17 -25 -34 -69 -57 -73
-39 -112 -38 -203 5 -42 20 -59 24 -67 16 -9 -9 -4 -20 18 -43 42 -44 71 -57
159 -68 72 -9 82 -8 129 13 55 25 99 66 114 106 9 25 -1 141 -15 162 -3 6 -8
27 -10 47 -4 36 -36 156 -78 286 -19 61 -26 70 -48 73 -14 2 -31 10 -37 18
-16 18 -34 18 -49 0z m47 -117 c-5 -69 -15 -80 -97 -103 -88 -25 -105 -4 -70
84 11 28 97 75 143 77 l28 2 -4 -60z"/>
<path d="M6364 13079 c-26 -28 -26 -159 -1 -207 36 -68 111 -56 160 24 15 24
31 44 36 44 5 0 14 -15 21 -32 20 -54 44 -98 61 -114 13 -12 18 -12 34 0 18
13 18 15 1 57 -10 24 -28 71 -41 105 -29 76 -45 103 -69 110 -25 8 -40 -10
-65 -78 -25 -71 -42 -98 -59 -98 -23 0 -34 52 -28 133 6 71 5 77 -12 77 -10 0
-27 -9 -38 -21z"/>
<path d="M1681 13073 c-33 -6 -91 -52 -91 -71 0 -13 -2 -13 -18 1 -21 19 -48
22 -57 7 -8 -12 8 -81 42 -192 18 -57 29 -78 41 -78 39 1 44 14 37 92 -11 120
21 169 117 182 26 4 50 11 53 17 6 8 -77 51 -93 48 -4 -1 -18 -4 -31 -6z"/>
<path d="M2020 13060 c-19 -10 -47 -31 -61 -47 -27 -29 -59 -110 -59 -149 0
-14 -8 -25 -20 -29 -30 -9 -25 -24 23 -67 23 -22 52 -49 64 -60 16 -15 43 -23
105 -29 82 -9 104 -5 167 25 58 27 96 84 49 73 -137 -32 -178 -38 -220 -32
-87 12 -103 49 -32 74 117 40 191 127 164 191 -23 56 -118 82 -180 50z m114
-69 c17 -18 17 -21 1 -45 -16 -24 -66 -56 -89 -56 -6 0 -24 -7 -39 -15 -24
-13 -29 -12 -34 0 -10 28 8 85 35 110 34 32 100 35 126 6z"/>
<path d="M7423 13068 c-18 -6 -33 -15 -33 -19 0 -5 -9 -9 -20 -9 -11 0 -20 -4
-20 -10 0 -5 -6 -10 -14 -10 -22 0 -74 -65 -85 -107 -17 -58 -13 -82 15 -110
22 -22 32 -25 66 -20 32 4 49 15 80 49 21 24 38 46 38 51 0 4 4 7 8 7 27 0 92
-253 92 -358 0 -100 -22 -135 -106 -171 -51 -22 -70 -25 -117 -23 -34 2 -127
91 -127 121 0 31 -17 34 -36 6 -23 -35 -8 -67 67 -141 57 -56 62 -59 107 -58
61 2 111 13 142 32 37 23 110 94 110 108 0 7 5 14 11 16 7 2 10 33 9 83 -1 44
-1 95 -1 112 1 18 -5 46 -14 62 -8 17 -15 49 -15 73 0 24 -7 64 -15 91 -18 60
-75 157 -93 157 -23 0 -52 -20 -52 -36 0 -21 -39 -96 -61 -116 -29 -29 -48
-13 -42 35 6 48 32 81 86 108 49 26 80 57 73 75 -6 16 -9 16 -53 2z"/>
<path d="M2410 13043 c-8 -3 -23 -14 -34 -25 -11 -10 -23 -18 -28 -18 -4 0 -8
-7 -8 -15 0 -9 -6 -26 -14 -38 -8 -12 -18 -49 -21 -82 l-7 -60 51 -57 c47 -52
56 -57 105 -63 30 -4 68 -4 84 0 37 8 82 45 82 67 0 9 5 20 10 23 6 3 10 10
10 16 0 17 -29 9 -56 -16 -47 -43 -139 -31 -189 25 -11 13 -15 25 -10 27 45
16 152 84 168 105 17 23 19 32 9 52 -6 14 -21 32 -34 40 -26 17 -96 28 -118
19z m71 -73 c10 -6 19 -16 19 -22 0 -6 -3 -9 -6 -5 -4 3 -19 0 -35 -8 -36 -19
-59 -19 -59 -1 0 15 36 46 53 46 5 0 17 -5 28 -10z"/>
<path d="M3055 13010 c-18 -20 -18 -37 -1 -200 2 -14 4 -37 4 -52 2 -28 36
-48 53 -31 5 5 6 69 2 153 -7 119 -11 145 -24 148 -8 1 -23 -6 -34 -18z"/>
<path d="M3332 13015 c-13 -7 -35 -29 -50 -49 -23 -32 -26 -47 -26 -119 -1
-98 16 -148 48 -143 20 3 21 8 18 94 -5 141 17 186 79 156 49 -24 74 -100 79
-237 0 -5 12 -7 28 -5 26 3 27 5 27 63 0 33 -4 73 -9 90 -14 45 -76 145 -97
155 -24 13 -69 11 -97 -5z"/>
<path d="M12479 12988 c-10 -18 -8 -24 11 -40 12 -10 39 -19 59 -20 92 -4 205
5 236 18 30 12 34 17 25 34 -5 10 -18 19 -28 20 -9 0 -79 3 -154 5 -133 5
-138 5 -149 -17z"/>
<path d="M8245 12992 c-18 -4 -34 -19 -35 -33 0 -3 9 -15 20 -27 19 -20 30
-22 134 -22 99 0 115 2 130 19 17 19 17 20 -3 30 -11 6 -55 16 -98 21 -43 6
-89 12 -103 14 -14 1 -34 1 -45 -2z"/>
<path d="M13490 12480 c-6 -11 -12 -35 -14 -53 -4 -37 -14 -81 -26 -117 -5
-14 -16 -51 -25 -84 -9 -32 -20 -55 -25 -50 -10 11 -37 88 -56 164 -22 84 -45
138 -60 144 -25 10 -44 -5 -44 -34 0 -27 84 -292 112 -357 26 -57 48 -63 79
-20 20 28 119 341 119 375 0 14 -31 52 -42 52 -4 0 -12 -9 -18 -20z"/>
<path d="M14232 12407 c-6 -7 -12 -42 -14 -77 l-3 -65 -71 3 c-67 3 -72 2 -77
-19 -7 -27 2 -35 58 -49 88 -23 94 -28 88 -68 -3 -21 -12 -52 -19 -70 -13 -32
-12 -35 9 -52 15 -12 26 -15 34 -8 10 8 26 54 28 83 1 6 5 20 9 33 7 21 13 22
70 21 35 -1 68 1 75 5 23 15 9 34 -36 50 -102 37 -93 21 -97 169 -1 21 -24 57
-37 57 -4 0 -11 -6 -17 -13z"/>
<path d="M13639 12391 c-22 -17 -22 -21 -10 -45 17 -31 46 -34 61 -5 14 25 5
69 -14 69 -8 0 -24 -9 -37 -19z"/>
<path d="M15140 12397 c-35 -17 -38 -45 -6 -53 34 -8 56 1 56 24 0 31 -22 43
-50 29z"/>
<path d="M15495 12328 c-48 -17 -109 -63 -125 -94 -8 -16 -18 -31 -22 -34 -3
-3 -11 -30 -16 -60 -8 -44 -8 -60 4 -77 14 -23 74 -40 96 -29 42 22 65 38 103
76 l43 42 27 -60 c31 -69 66 -108 90 -98 21 8 11 63 -16 89 -11 10 -19 29 -19
43 0 14 -6 37 -14 52 -8 15 -17 44 -21 65 -4 20 -11 37 -16 37 -5 0 -9 7 -9
16 0 12 -59 47 -72 43 -2 0 -16 -5 -33 -11z m51 -84 c-3 -9 -6 -21 -6 -27 0
-16 -60 -81 -87 -96 -26 -13 -63 -15 -63 -2 0 29 36 85 72 111 45 33 94 41 84
14z"/>
<path d="M14932 12299 c-41 -16 -114 -73 -128 -100 -9 -19 -11 -47 -7 -97 5
-59 9 -71 25 -76 25 -6 48 2 48 18 6 131 34 184 109 203 54 14 49 30 -19 60
-3 1 -16 -3 -28 -8z"/>
<path d="M13622 12257 c-8 -9 -8 -26 -1 -56 5 -24 8 -79 5 -123 -6 -89 -2
-108 25 -108 34 0 42 36 34 148 -3 58 -11 115 -16 128 -9 26 -31 31 -47 11z"/>
<path d="M13910 12251 c-103 -39 -160 -104 -160 -180 0 -88 131 -133 255 -89
62 23 94 75 38 62 -16 -4 -30 -10 -33 -14 -6 -7 -64 -5 -111 5 -49 10 -79 32
-79 57 0 27 64 87 100 94 56 11 75 20 78 39 3 10 -4 25 -14 32 -21 15 -17 16
-74 -6z"/>
<path d="M15130 12240 c-7 -13 -7 -34 0 -67 8 -35 8 -59 -1 -90 -14 -52 -7
-73 26 -73 38 0 52 47 47 161 -1 21 -11 47 -25 62 -27 32 -33 33 -47 7z"/>
<path d="M14545 12234 c-51 -19 -81 -48 -100 -98 -15 -41 -15 -54 0 -91 14
-33 33 -40 99 -39 68 2 106 17 148 58 29 30 46 78 29 84 -6 2 -9 8 -6 13 9 13
-25 59 -44 59 -9 0 -21 4 -26 9 -19 17 -61 19 -100 5z m105 -69 c20 -24 -2
-59 -52 -84 -54 -26 -74 -26 -86 -3 -31 58 96 138 138 87z"/>
<path d="M13598 11656 c-44 -16 -98 -59 -116 -92 -13 -25 -9 -83 8 -128 4 -12
24 -36 43 -53 43 -37 150 -60 206 -44 45 14 81 38 81 56 0 11 -19 14 -92 13
-113 -1 -162 16 -182 63 -29 68 29 119 132 119 50 0 72 12 72 41 0 23 -7 27
-66 33 -30 4 -63 1 -86 -8z"/>
<path d="M14619 11631 c-33 -27 -16 -56 32 -56 40 0 51 26 23 56 -21 24 -26
24 -55 0z"/>
<path d="M13996 11530 c-80 -39 -98 -59 -103 -117 -4 -39 -1 -51 15 -66 28
-26 49 -12 56 37 5 28 16 52 34 69 24 23 48 32 134 51 36 8 27 42 -14 50 -47
9 -59 7 -122 -24z"/>
<path d="M15016 11543 c-11 -3 -37 -16 -58 -29 -21 -13 -41 -24 -44 -24 -18 0
-72 -52 -84 -79 -10 -25 -10 -33 3 -46 44 -44 110 -36 190 22 58 43 64 39 96
-54 29 -88 40 -168 27 -195 -13 -26 -71 -46 -134 -47 -35 -1 -45 3 -49 18 -3
11 -13 21 -23 24 -14 4 -22 -3 -30 -26 -12 -36 -3 -47 57 -73 69 -30 187 -4
227 49 44 60 11 269 -60 380 -28 43 -44 43 -104 -2 -30 -22 -103 -61 -116 -61
-2 0 -4 4 -4 8 0 5 29 24 66 42 71 37 78 44 88 78 8 23 -3 26 -48 15z"/>
<path d="M14350 11525 c-7 -8 -18 -15 -24 -15 -14 -1 -84 -67 -113 -108 -33
-45 -29 -67 15 -90 34 -18 42 -18 77 -6 21 7 51 22 66 33 l28 21 31 -40 c46
-58 69 -68 92 -40 17 22 17 23 -5 40 -20 16 -41 56 -76 143 -6 16 -18 27 -30
27 -12 0 -21 9 -25 25 -7 29 -18 32 -36 10z m20 -85 c0 -19 -9 -40 -25 -55
-26 -27 -41 -30 -65 -15 -12 8 -7 18 32 55 26 25 49 45 52 45 3 0 6 -14 6 -30z"/>
<path d="M14642 11477 c-18 -19 -22 -35 -22 -90 0 -63 1 -67 25 -73 43 -11 54
8 49 89 -7 107 -13 116 -52 74z"/>
<path d="M10866 11320 c-20 -10 -47 -21 -61 -24 -14 -4 -25 -13 -25 -21 0 -8
-17 -26 -37 -39 -21 -13 -51 -38 -68 -55 -28 -30 -33 -32 -95 -30 -36 1 -85
-3 -110 -9 -28 -7 -49 -7 -54 -1 -6 5 -19 9 -30 9 -12 0 -39 12 -61 25 -49 31
-62 31 -93 3 -20 -20 -35 -23 -105 -24 -97 -1 -137 -9 -184 -36 -34 -21 -71
-21 -178 -3 -27 5 -33 1 -56 -38 -23 -38 -35 -47 -110 -76 -46 -18 -89 -38
-96 -43 -26 -21 -101 -37 -135 -28 -137 35 -175 40 -226 32 -28 -5 -60 -16
-70 -24 -9 -8 -35 -23 -57 -33 -22 -10 -56 -29 -76 -42 -33 -22 -44 -23 -215
-24 -98 0 -189 0 -202 0 -57 2 -89 -25 -129 -104 -24 -49 -46 -80 -60 -86 -23
-8 -63 -44 -63 -55 0 -4 -7 -12 -16 -18 -9 -7 -19 -28 -23 -46 -5 -28 -15 -39
-46 -54 -22 -11 -61 -20 -86 -21 -49 -1 -99 -26 -160 -81 -20 -17 -47 -35 -60
-39 -48 -13 -99 -38 -99 -49 -7 -238 -7 -357 2 -362 6 -4 7 -46 3 -119 -7
-106 -6 -114 14 -134 11 -11 33 -21 47 -21 l26 0 -8 -117 c-9 -162 -9 -220 3
-246 6 -12 19 -58 29 -101 13 -56 27 -88 46 -109 16 -16 28 -36 28 -44 0 -39
-83 -155 -129 -181 -21 -12 -51 -40 -66 -62 -24 -35 -27 -46 -21 -87 4 -27 9
-84 12 -128 3 -44 9 -84 14 -90 10 -12 25 -68 40 -150 10 -50 9 -65 -4 -90
-19 -37 -16 -40 89 -95 146 -75 194 -92 278 -96 43 -2 87 -9 97 -14 10 -6 32
-10 48 -10 16 0 53 -8 83 -19 30 -10 68 -16 86 -14 26 4 41 -2 80 -34 50 -41
92 -63 120 -63 9 0 39 -11 67 -24 54 -25 176 -56 223 -56 25 0 83 18 153 48
14 6 52 19 85 28 33 10 80 26 105 37 25 10 72 23 105 28 115 18 130 22 152 36
12 8 59 18 105 23 102 10 184 25 221 39 16 6 40 11 55 11 15 1 47 12 72 25
105 56 149 73 215 84 182 32 190 34 365 126 47 24 92 44 101 45 9 0 19 3 23 8
4 4 11 7 14 8 16 2 50 20 91 48 48 32 206 69 344 81 38 3 80 11 95 16 15 6 54
16 87 24 88 20 129 37 156 66 24 26 134 89 155 89 7 0 25 7 40 15 16 8 36 15
44 15 9 0 24 6 35 14 11 7 49 21 85 31 65 17 105 48 148 113 8 12 20 21 26 19
15 -5 74 20 111 49 18 13 39 24 47 24 9 0 21 7 28 15 7 8 19 15 27 15 9 0 32
13 52 30 92 76 129 108 172 153 26 26 54 47 63 47 27 0 30 28 12 124 -48 257
-90 401 -114 393 -17 -5 -142 127 -153 162 -6 20 -15 40 -20 46 -5 5 -9 17 -9
27 0 35 -32 67 -120 123 -71 45 -93 64 -109 98 -25 52 -37 160 -22 212 8 31 8
42 -3 54 -8 9 -28 43 -47 75 -18 32 -40 61 -50 63 -13 4 -20 19 -25 59 -7 61
-52 134 -83 134 -10 0 -52 26 -94 58 -65 49 -81 68 -114 132 -32 63 -42 75
-63 76 -116 4 -206 30 -330 94 -19 10 -60 25 -91 34 -41 12 -70 30 -113 70
-74 70 -103 81 -150 56z m133 -130 c44 -38 87 -70 95 -70 8 0 25 -4 38 -9 13
-5 41 -14 63 -21 22 -7 47 -18 55 -25 22 -19 83 -35 185 -49 l90 -12 30 -58
c28 -55 128 -166 148 -166 5 0 26 -14 46 -31 20 -16 46 -39 59 -49 18 -15 22
-29 22 -72 0 -56 12 -78 42 -78 10 0 25 -14 34 -32 9 -18 25 -42 35 -53 16
-18 17 -26 8 -60 -17 -62 -6 -155 29 -228 29 -64 59 -94 131 -133 18 -11 42
-24 52 -30 34 -20 59 -47 59 -65 0 -27 42 -132 62 -153 10 -11 18 -23 18 -28
0 -4 11 -10 25 -14 14 -3 25 -10 25 -15 0 -5 7 -9 15 -9 24 0 35 -34 37 -122
3 -110 -26 -206 -81 -264 -40 -44 -191 -137 -213 -132 -21 4 -141 -24 -158
-36 -8 -7 -37 -23 -65 -36 -27 -13 -63 -33 -80 -45 -16 -12 -52 -34 -80 -50
-27 -16 -62 -41 -76 -55 -38 -40 -115 -91 -194 -129 -38 -18 -87 -42 -108 -52
-21 -10 -47 -19 -58 -19 -11 0 -54 -11 -96 -25 -82 -28 -116 -31 -209 -20
-130 16 -261 -30 -353 -124 -48 -49 -110 -84 -169 -96 -15 -3 -49 -10 -77 -15
-105 -18 -151 -32 -194 -57 -25 -15 -46 -22 -48 -16 -2 6 -18 3 -41 -8 -20
-11 -42 -19 -48 -19 -17 0 -136 -59 -159 -80 -27 -23 -105 -46 -185 -55 -35
-4 -71 -11 -80 -16 -28 -15 -234 -51 -350 -61 -124 -11 -131 -13 -211 -73 -53
-40 -114 -65 -159 -65 -12 0 -50 15 -83 34 -34 18 -82 37 -106 41 -52 9 -130
46 -156 75 -10 11 -24 20 -32 20 -8 0 -35 14 -59 31 -40 27 -53 31 -113 30
-38 0 -80 -5 -94 -10 -22 -9 -29 -7 -46 14 -10 14 -27 25 -36 25 -9 0 -28 9
-42 20 -14 11 -40 20 -58 20 -17 0 -52 7 -77 16 -38 12 -55 28 -96 82 -27 37
-54 77 -61 89 -14 26 -31 183 -22 199 3 7 33 34 66 62 34 28 81 79 105 114 58
81 61 133 14 194 -17 21 -38 59 -46 84 -36 104 -41 149 -33 311 7 153 6 159
-15 186 -12 15 -31 31 -43 34 -17 4 -21 12 -20 35 2 16 2 65 2 109 -5 261 -2
347 12 359 8 7 35 20 60 30 27 10 51 26 59 41 24 44 80 75 137 75 29 0 71 9
96 19 41 18 47 25 68 81 22 60 53 90 93 90 8 0 32 35 57 84 46 94 49 95 149
97 36 1 79 4 95 8 17 3 65 3 108 0 97 -9 207 15 269 57 61 41 97 55 143 56 52
1 121 -10 166 -27 45 -17 125 0 199 43 19 11 53 25 74 32 23 7 60 33 88 61 46
46 50 48 106 48 82 0 95 2 112 16 20 17 116 39 136 31 9 -4 22 -2 28 3 6 5 27
11 46 14 19 3 54 11 77 18 39 12 44 11 80 -14 41 -29 109 -38 150 -21 12 5 57
7 100 4 70 -5 83 -3 128 20 47 24 111 83 128 119 10 20 43 38 73 40 13 1 53
-26 103 -69z m1499 -1717 c5 -29 5 -53 1 -53 -5 0 -9 7 -9 15 0 9 -7 18 -15
21 -8 4 -15 12 -15 20 0 13 22 56 26 51 1 -1 7 -26 12 -54z m-98 -239 c0 -24
-4 -44 -10 -44 -5 0 -10 -7 -10 -15 0 -8 -4 -15 -10 -15 -14 0 -12 98 3 114
19 21 27 9 27 -40z m-106 -46 c14 -68 13 -83 -2 -95 -10 -7 -19 -13 -22 -13
-4 0 -4 105 0 128 0 1 4 2 10 2 5 0 12 -10 14 -22z m-89 -89 c-2 -28 -10 -58
-17 -66 -11 -14 -14 -12 -18 18 -9 59 0 99 21 99 16 0 18 -6 14 -51z m-98 -23
c2 -67 -7 -91 -38 -99 -20 -5 -21 -3 -16 68 5 82 11 98 35 93 13 -2 17 -17 19
-62z m-112 -58 c-3 -83 -10 -118 -25 -118 -12 0 -18 84 -7 91 5 4 8 27 5 53
-6 47 -3 56 17 56 9 0 12 -24 10 -82z m-92 -43 c-4 -54 -2 -79 7 -90 10 -12
10 -19 2 -27 -18 -18 -23 -5 -29 74 -5 66 5 118 22 118 3 0 2 -34 -2 -75z
m-79 -51 c1 -42 7 -69 14 -72 24 -8 12 -32 -15 -32 l-28 0 0 78 c0 70 9 111
22 98 3 -2 6 -35 7 -72z m-80 -9 c3 -8 1 -15 -5 -15 -6 0 -6 -7 1 -19 5 -11 6
-22 1 -25 -4 -3 -6 -16 -4 -29 5 -26 -10 -42 -50 -52 -27 -7 -27 -7 -27 45 0
44 4 56 29 81 33 33 46 36 55 14z m-146 -126 c-2 -40 -8 -55 -25 -67 -23 -14
-23 -14 -23 38 0 39 5 56 18 66 29 22 33 16 30 -37z m-104 -64 c7 -45 3 -65
-15 -65 -5 0 -9 25 -9 55 0 66 15 73 24 10z m-85 -23 c7 -60 5 -75 -11 -86
-21 -13 -26 -9 -28 29 -5 72 -1 93 18 88 10 -2 19 -16 21 -31z m-102 -48 c-5
-51 -11 -60 -47 -69 -25 -6 -25 -5 -25 55 l0 60 39 0 39 0 -6 -46z m-348 -31
c0 -58 -13 -98 -29 -88 -4 3 -8 28 -8 56 -1 28 -6 57 -12 64 -8 10 -7 14 7 18
39 10 42 8 42 -50z m112 -3 c-4 -54 -7 -60 -31 -60 -26 0 -29 8 -23 62 5 43 7
46 32 45 24 -2 26 -5 22 -47z m104 3 c-8 -56 -11 -63 -31 -63 -10 0 -14 13
-14 48 0 54 4 62 33 62 17 0 19 -5 12 -47z m-312 -10 c-7 -85 -9 -93 -21 -105
-17 -17 -20 -10 -23 65 -2 51 1 71 12 78 29 18 36 10 32 -38z m-99 -54 c-3
-38 -1 -65 6 -74 9 -11 3 -18 -29 -34 -22 -12 -43 -21 -47 -21 -4 0 -3 21 1
48 4 26 9 61 11 77 4 28 35 65 55 65 4 0 6 -27 3 -61z m-133 -81 c-5 -13 -7
-35 -4 -49 3 -17 -2 -28 -17 -37 -29 -18 -38 -9 -34 34 2 27 11 44 31 60 33
26 37 25 24 -8z m-198 -35 c9 -16 -12 -136 -25 -144 -31 -20 -38 -10 -38 57 0
52 4 70 18 80 19 15 39 18 45 7z m93 -56 c4 -38 2 -45 -15 -50 -24 -6 -33 30
-19 80 12 45 28 31 34 -30z m-213 -43 c-8 -66 -9 -69 -35 -72 -24 -3 -28 0
-28 20 1 66 41 151 62 130 5 -5 5 -40 1 -78z m-104 -6 c-6 -10 -7 -32 -4 -48
5 -23 2 -31 -16 -40 -29 -16 -41 3 -34 55 6 42 28 67 51 58 10 -4 11 -10 3
-25z m-91 0 c-2 -7 -7 -16 -13 -20 -5 -4 -10 -29 -10 -55 0 -44 -8 -62 -27
-63 -5 0 -8 29 -8 65 0 50 4 66 18 74 24 14 42 13 40 -1z m-2207 -14 c14 -13
16 -21 8 -36 -6 -11 -8 -26 -5 -34 3 -8 2 -14 -3 -14 -7 0 -31 73 -31 94 0 11
13 6 31 -10z m2092 -53 c3 -15 3 -38 0 -50 -3 -11 0 -28 7 -36 10 -12 8 -16
-15 -25 -14 -5 -31 -10 -36 -10 -16 0 -7 113 10 132 22 24 28 22 34 -11z
m-1929 -6 c13 -20 15 -33 7 -60 -5 -18 -6 -36 -3 -39 3 -3 1 -6 -4 -6 -22 0
-34 27 -34 77 0 58 9 66 34 28z m87 -37 c2 -25 -3 -73 -9 -83 -8 -13 -21 52
-15 76 6 21 22 26 24 7z m1739 -48 c0 -57 -1 -60 -25 -60 -14 0 -25 6 -25 13
0 6 -3 28 -6 48 -6 37 -3 40 54 58 1 1 2 -26 2 -59z m-1556 -15 l-17 -40 -9
35 c-9 30 -7 37 14 53 30 25 35 6 12 -48z m81 -16 c0 -55 -3 -64 -19 -67 -17
-4 -18 0 -11 49 4 30 8 62 9 72 0 9 5 16 11 14 5 -2 10 -32 10 -68z m-152 54
c2 -5 -2 -22 -9 -40 -10 -22 -19 -31 -29 -27 -21 9 -20 61 3 67 28 7 31 7 35
0z m1502 -11 c-3 -11 3 -29 15 -44 17 -22 18 -27 5 -38 -7 -6 -24 -10 -37 -8
-19 3 -22 9 -21 42 0 26 7 44 19 53 24 17 26 17 19 -5z m-111 -54 c-2 -54 -3
-56 -14 -37 -5 8 -7 24 -5 35 2 10 4 25 4 32 1 6 5 12 9 12 5 0 7 -19 6 -42z
m-84 -18 c0 -29 -4 -40 -15 -40 -11 0 -15 11 -15 40 0 29 4 40 15 40 11 0 15
-11 15 -40z m-1070 6 c0 -30 -9 -56 -21 -56 -4 0 -6 17 -4 38 4 45 3 42 15 42
6 0 10 -11 10 -24z m967 -30 c-2 -42 -3 -44 -34 -44 -23 0 -33 5 -37 22 -10
36 -7 46 17 56 47 19 56 13 54 -34z m-853 -42 c4 -20 6 -37 4 -39 -10 -10 -59
46 -64 74 l-7 33 30 -16 c23 -11 32 -25 37 -52z m616 46 c0 -23 19 -59 38 -75
10 -8 8 -15 -10 -31 -13 -11 -35 -25 -50 -32 -25 -10 -27 -10 -33 26 -9 54 -9
107 -1 120 4 7 18 12 32 12 17 0 24 -5 24 -20z m98 -9 c2 -13 0 -35 -4 -50
l-7 -26 -7 25 c-13 41 -11 82 3 78 6 -3 13 -15 15 -27z m-623 -35 c19 -14 27
-77 12 -93 -23 -22 -61 45 -50 87 6 24 13 25 38 6z m419 -92 c5 -16 0 -23 -19
-32 -19 -9 -25 -9 -26 1 -2 25 2 83 8 102 6 20 11 10 37 -71z m-309 46 c4 -6
2 -17 -4 -23 -5 -7 -7 -24 -4 -36 4 -18 2 -22 -8 -19 -15 5 -24 50 -15 74 6
16 22 18 31 4z m202 -57 c-3 -46 -4 -48 -36 -51 -34 -3 -34 -3 -28 33 7 44 23
65 48 65 17 0 19 -7 16 -47z m-119 -6 c-4 -36 -23 -47 -31 -17 -8 30 3 60 20
53 9 -4 13 -16 11 -36z"/>
<path d="M9600 10635 c-10 -12 -5 -27 28 -82 47 -80 82 -145 82 -155 0 -3 31
-71 69 -151 62 -128 82 -157 111 -157 16 0 17 53 3 104 -34 113 -18 165 53
180 26 6 36 2 63 -26 18 -18 49 -64 68 -103 40 -79 49 -88 75 -74 26 14 23 33
-22 113 -50 88 -57 98 -97 121 -18 11 -33 23 -33 27 0 4 -25 8 -56 8 -50 0
-59 -3 -86 -32 -17 -18 -34 -43 -39 -55 -5 -13 -13 -23 -18 -23 -6 0 -8 6 -5
13 2 7 -4 22 -16 32 -11 10 -20 23 -20 28 0 10 -41 104 -60 140 -30 53 -37 64
-54 85 -23 26 -29 27 -46 7z"/>
<path d="M10299 10635 c-61 -13 -101 -42 -119 -85 -12 -29 -9 -118 5 -139 4
-7 -2 -20 -14 -30 -43 -37 -7 -95 43 -69 14 8 28 5 57 -11 28 -16 57 -22 111
-23 64 -2 79 2 121 26 49 29 77 73 77 122 0 31 -10 30 -43 -4 -60 -63 -165
-90 -213 -55 -17 12 -16 15 8 40 64 69 78 87 84 107 3 11 13 29 21 38 22 24 9
65 -27 83 -33 17 -34 17 -111 0z m91 -69 c0 -22 -110 -126 -134 -126 -18 0
-34 48 -26 80 4 18 18 30 50 42 56 21 110 23 110 4z"/>
<path d="M11467 10393 c-4 -3 -7 -15 -7 -26 0 -19 44 -143 75 -212 7 -16 25
-59 40 -95 40 -99 49 -115 67 -118 9 -2 21 6 27 17 12 22 -11 96 -68 216 -15
33 -38 87 -50 120 -38 101 -40 105 -59 105 -10 0 -22 -3 -25 -7z"/>
<path d="M9523 10308 c-87 -65 -115 -143 -87 -246 19 -71 36 -85 115 -97 43
-6 48 -5 95 36 27 23 51 47 53 53 2 6 10 16 17 24 7 7 11 19 8 27 -4 8 -1 15
5 15 6 0 11 5 11 10 0 17 -20 11 -43 -13 -30 -32 -90 -65 -130 -72 -42 -8 -66
16 -71 73 -4 31 1 48 19 74 32 44 42 55 58 65 8 4 17 23 20 41 6 29 4 32 -16
32 -13 0 -37 -10 -54 -22z"/>
<path d="M9069 10148 c-104 -99 -149 -177 -149 -260 0 -51 4 -62 26 -83 15
-14 32 -25 38 -26 6 0 25 -2 41 -3 43 -4 74 13 90 48 16 34 35 123 28 130 -7
7 8 66 16 66 5 0 26 -18 47 -41 91 -96 109 -110 134 -107 48 6 33 34 -80 145
-64 64 -110 118 -110 130 0 18 -17 43 -30 43 -3 0 -26 -19 -51 -42z m23 -143
c19 -71 -20 -165 -67 -165 -32 0 -46 28 -36 72 9 40 14 49 49 96 29 38 43 37
54 -3z"/>
<path d="M8474 10125 c-100 -47 -175 -124 -197 -205 -25 -89 -22 -145 13 -218
27 -58 34 -65 92 -92 46 -22 78 -30 118 -30 58 0 162 30 168 49 2 6 10 11 17
11 8 0 44 29 82 64 58 56 65 66 54 80 -19 23 -45 20 -79 -9 -17 -14 -34 -25
-40 -25 -6 0 -12 -3 -14 -7 -1 -5 -28 -24 -58 -43 -51 -32 -61 -35 -132 -35
-72 0 -79 2 -108 30 -42 39 -49 55 -60 122 -8 50 -7 61 16 109 14 29 34 56 44
59 11 4 20 11 20 16 0 5 11 14 25 19 14 5 37 17 52 27 15 10 42 23 61 28 19 6
40 18 46 28 9 15 7 22 -13 38 -13 10 -26 19 -30 18 -3 0 -38 -16 -77 -34z"/>
<path d="M11224 9825 c-17 -8 -45 -30 -62 -50 -27 -30 -32 -43 -32 -89 0 -65
22 -122 51 -131 35 -11 43 7 32 75 -13 79 5 111 70 130 57 15 103 7 140 -25
29 -26 80 -123 71 -137 -9 -14 33 -9 45 6 16 19 -4 100 -38 147 -42 60 -83 80
-170 85 -50 2 -86 -2 -107 -11z"/>
<path d="M11766 9800 c-56 -10 -81 -103 -37 -138 27 -21 121 -8 143 20 25 32
22 65 -7 92 -29 27 -57 34 -99 26z"/>
<path d="M10514 9782 c-17 -12 -24 -40 -11 -50 16 -13 107 -25 107 -15 0 8
-71 73 -80 73 -3 0 -10 -4 -16 -8z"/>
<path d="M10853 9654 c-18 -9 -33 -24 -33 -33 0 -9 -7 -25 -15 -35 -21 -27
-19 -75 5 -121 11 -22 20 -44 20 -50 0 -22 40 -35 95 -30 92 8 136 43 164 132
12 37 12 45 -5 74 -25 43 -73 68 -142 75 -42 3 -66 0 -89 -12z m167 -83 c15
-30 13 -35 -36 -90 -36 -40 -52 -51 -76 -51 -29 0 -30 1 -24 34 4 20 2 37 -4
41 -15 9 -12 71 4 84 42 35 112 26 136 -18z"/>
<path d="M10370 9582 c-72 -48 -130 -106 -130 -129 0 -40 66 -79 149 -89 35
-4 61 -11 61 -18 -1 -16 -89 -76 -131 -90 -24 -8 -35 -18 -37 -35 -4 -23 -2
-23 60 -19 57 3 109 26 138 59 3 3 13 8 22 12 18 6 32 59 26 98 -2 17 -12 26
-38 32 -19 5 -51 12 -70 17 -19 5 -48 12 -63 15 -44 9 -30 33 45 78 49 29 68
47 71 66 3 14 3 29 0 33 -10 17 -51 5 -103 -30z"/>
<path d="M10624 9562 c-8 -22 -6 -43 13 -102 27 -87 44 -113 67 -104 19 7 22
55 4 87 -6 12 -13 40 -14 62 -6 70 -13 85 -37 85 -16 0 -26 -9 -33 -28z"/>
<path d="M9596 9479 c-13 -20 -12 -27 24 -95 21 -40 48 -99 60 -131 12 -32 26
-63 31 -69 4 -6 15 -44 24 -85 19 -90 55 -128 74 -77 11 30 -17 133 -59 221
-11 22 -20 47 -20 54 0 7 -4 13 -10 13 -5 0 -10 9 -10 20 0 11 -9 35 -20 55
-11 20 -20 43 -20 53 0 24 -28 62 -45 62 -8 0 -21 -10 -29 -21z"/>
<path d="M9953 9389 c-44 -13 -83 -71 -83 -123 0 -67 75 -168 114 -153 27 11
25 47 -4 75 -16 15 -32 43 -35 63 -6 32 -3 40 22 63 33 31 46 32 88 6 65 -40
67 -120 6 -186 -32 -35 -62 -48 -103 -46 -19 2 -28 -3 -28 -13 0 -8 5 -15 11
-15 6 0 17 -7 25 -15 19 -19 42 -19 85 -1 67 28 121 117 121 198 -1 63 -19 90
-85 128 -54 31 -80 35 -134 19z"/>
<path d="M8614 9122 c-133 -56 -154 -71 -157 -107 -2 -24 3 -30 29 -37 29 -7
36 -17 74 -112 54 -136 72 -212 54 -227 -18 -15 -18 -33 1 -49 11 -9 35 -9
111 3 100 16 197 56 215 88 5 10 16 25 25 34 24 24 8 31 -29 13 -48 -23 -188
-62 -216 -60 -30 2 -48 26 -56 77 -4 22 -13 50 -21 62 -26 42 -32 37 116 80
82 24 95 31 98 51 l4 24 -96 -6 c-52 -4 -108 -11 -122 -17 -34 -12 -54 -5 -54
19 0 10 -5 23 -11 29 -12 12 32 45 99 74 17 8 32 17 32 22 0 4 12 12 26 17 20
8 25 16 22 37 -2 15 -10 29 -18 30 -8 1 -65 -19 -126 -45z"/>
<path d="M9435 9139 c-16 -6 -39 -12 -50 -13 -11 -2 -23 -4 -27 -5 -5 0 -8 -9
-8 -19 0 -10 -5 -23 -11 -29 -7 -7 -3 -16 14 -30 31 -24 74 -106 58 -111 -24
-8 -11 -50 22 -71 18 -11 40 -37 49 -58 23 -55 78 -229 78 -246 0 -13 27 -26
54 -27 17 0 -12 127 -49 216 -8 17 -16 51 -20 76 -6 42 -5 45 27 67 47 33 66
62 69 107 6 84 1 101 -35 123 -39 25 -128 35 -171 20z m139 -75 c9 -8 16 -19
16 -24 0 -17 -20 -62 -35 -76 -8 -8 -19 -22 -23 -31 -13 -23 -26 -11 -62 59
-31 58 -31 62 -14 75 25 18 99 17 118 -3z"/>
<path d="M9165 8996 c-25 -53 -46 -69 -60 -46 -3 5 -29 21 -57 34 -38 18 -56
22 -70 15 -33 -18 -17 -41 64 -91 26 -16 48 -31 48 -34 0 -7 -42 -79 -50 -84
-4 -3 -12 -15 -18 -26 -10 -19 -8 -24 13 -38 13 -9 27 -16 29 -16 8 0 80 74
91 94 10 17 14 17 70 -11 81 -41 132 -48 145 -22 6 11 8 24 5 29 -6 10 -87 50
-101 50 -4 0 -22 11 -40 25 -30 23 -32 28 -23 54 13 37 8 113 -8 118 -6 3 -24
-21 -38 -51z"/>
<path d="M13337 10992 c-21 -23 -21 -27 -2 -46 12 -12 13 -24 6 -58 -12 -57
-12 -170 1 -185 13 -16 48 1 48 22 0 7 3 16 8 18 8 5 107 -25 118 -36 16 -16
63 -7 78 15 11 16 16 18 16 7 0 -8 12 -29 28 -47 37 -45 114 -58 172 -30 33
17 57 44 47 54 -2 2 -20 -1 -41 -7 -40 -11 -90 -4 -119 16 -22 16 -13 22 44
31 58 10 89 41 89 92 0 49 -29 68 -91 58 -50 -8 -129 -60 -129 -85 0 -9 -6
-26 -14 -37 -14 -19 -16 -19 -68 -1 -123 43 -135 56 -65 74 60 17 98 48 93 79
-7 34 -15 44 -37 44 -10 0 -19 4 -19 9 0 10 -78 31 -118 31 -16 0 -36 -8 -45
-18z m127 -71 c3 -5 -2 -11 -12 -14 -9 -2 -25 -8 -34 -12 -14 -5 -18 -2 -18
14 0 17 6 21 29 21 17 0 32 -4 35 -9z"/>
<path d="M13931 10986 c-9 -11 -9 -20 -2 -35 6 -11 11 -33 11 -50 0 -16 4 -33
10 -36 10 -6 7 -81 -4 -92 -3 -3 -1 -12 5 -19 8 -10 5 -20 -11 -41 -12 -16
-17 -29 -11 -31 6 -2 11 -10 11 -18 0 -8 5 -14 10 -14 15 0 22 -2 57 -17 48
-20 68 -16 102 18 27 27 31 37 30 78 -2 43 -5 50 -35 66 -19 10 -46 19 -61 20
-16 1 -31 3 -34 3 -4 1 -12 37 -18 79 -14 96 -32 122 -60 89z m151 -245 c14
-12 -5 -53 -28 -61 -49 -19 -73 22 -37 62 15 17 46 17 65 -1z"/>
<path d="M14300 10849 c-33 -13 -65 -57 -62 -88 1 -14 -6 -30 -17 -38 -16 -10
-19 -21 -14 -51 7 -46 17 -58 66 -83 34 -18 45 -19 93 -9 38 8 60 19 75 38
l21 27 -22 3 c-11 2 -34 -1 -50 -7 -36 -12 -97 -4 -104 15 -3 8 14 22 49 39
30 14 61 36 69 48 19 29 10 73 -22 97 -27 22 -44 24 -82 9z m48 -68 c10 -6 2
-14 -27 -28 -43 -22 -57 -10 -25 21 17 18 32 20 52 7z"/>
<path d="M15175 10821 c-64 -34 -98 -71 -117 -123 -4 -11 -91 -23 -161 -23
-54 0 -76 11 -77 37 0 15 33 38 70 48 42 11 53 37 27 58 -35 29 -149 -40 -160
-96 -7 -35 10 -77 36 -90 60 -29 98 -34 158 -21 32 7 59 17 59 21 0 4 6 8 13
8 8 0 19 12 26 27 l13 28 14 -26 c16 -33 65 -54 101 -44 15 3 47 26 71 51 25
24 48 44 52 44 3 0 13 -12 20 -26 22 -40 100 -70 123 -47 9 9 -43 63 -60 63
-7 0 -10 6 -7 14 3 7 -1 20 -9 28 -8 8 -18 24 -21 36 -8 26 -50 57 -65 48 -5
-3 -11 1 -15 9 -7 20 -10 19 -91 -24z m79 -48 c-10 -37 -43 -71 -82 -82 -28
-8 -32 -7 -32 10 0 21 16 37 70 74 46 31 52 30 44 -2z"/>
<path d="M14562 10791 c-35 -18 -72 -65 -72 -93 0 -20 45 -68 80 -85 39 -19
84 -19 113 0 14 9 31 17 37 17 6 0 8 5 4 11 -3 6 -15 8 -26 6 -34 -9 -128 41
-128 69 0 8 17 21 38 29 28 12 38 22 40 40 1 21 -2 25 -26 24 -15 -1 -42 -9
-60 -18z"/>
<path d="M13680 10390 c-6 -11 -8 -25 -5 -31 14 -21 12 -64 -3 -95 -12 -26
-13 -41 -4 -75 9 -36 8 -45 -5 -54 -23 -17 -9 -43 24 -47 31 -3 132 8 140 16
3 2 2 13 -1 24 -5 15 -18 21 -56 24 -28 3 -54 8 -57 12 -12 11 19 26 54 26 48
0 83 17 83 40 0 22 -35 35 -76 27 -29 -5 -46 18 -37 51 4 16 13 22 34 22 16 0
37 4 47 9 9 5 25 12 35 15 12 4 17 14 15 28 -3 22 -8 23 -90 26 -79 3 -88 1
-98 -18z"/>
<path d="M14168 10326 c-15 -21 -15 -26 -3 -36 8 -6 24 -10 37 -8 18 2 23 9
23 33 0 39 -33 45 -57 11z"/>
<path d="M14011 10280 c-57 -21 -114 -73 -107 -99 2 -9 7 -29 11 -45 6 -27 29
-55 46 -56 3 0 9 25 12 56 7 65 22 86 83 111 47 20 67 53 31 53 -12 -1 -46 -9
-76 -20z"/>
<path d="M14398 10276 c-32 -14 -78 -72 -78 -98 0 -10 7 -26 14 -35 8 -10 23
-28 33 -40 26 -30 82 -37 112 -14 33 25 22 51 -22 51 -18 0 -41 6 -52 13 -25
19 -14 60 20 75 19 9 25 19 23 34 -4 27 -15 30 -50 14z"/>
<path d="M14175 10244 c-10 -10 -13 -24 -9 -38 4 -11 7 -37 6 -56 -1 -19 5
-44 14 -55 13 -17 16 -18 30 -4 28 28 15 169 -15 169 -5 0 -17 -7 -26 -16z"/>
<path d="M13444 9902 c-17 -11 -27 -51 -16 -65 16 -20 22 -113 9 -146 -6 -17
-8 -33 -5 -37 16 -15 154 -34 182 -24 36 13 36 13 36 -3 0 -16 58 -67 77 -67
22 0 53 19 77 47 l22 25 30 -25 c39 -33 84 -46 84 -24 0 9 -6 22 -12 29 -17
18 -34 45 -55 86 -9 18 -27 35 -40 38 -13 4 -23 12 -23 20 0 8 -2 14 -5 14
-10 0 -144 -101 -147 -110 -3 -11 -44 1 -115 33 -43 19 -43 19 -43 70 0 88
-28 157 -56 139z m346 -225 c0 -7 -12 -25 -28 -40 -20 -19 -31 -24 -42 -16
-12 8 -9 15 20 39 38 33 50 37 50 17z"/>
<path d="M14403 9759 c-41 -20 -42 -22 -48 -84 -8 -72 -4 -85 30 -85 30 0 38
13 45 70 5 45 5 45 44 45 45 0 53 11 28 41 -26 33 -53 36 -99 13z"/>
<path d="M14043 9752 c-15 -10 -46 -100 -38 -112 3 -5 21 -17 39 -25 36 -17
74 -9 109 23 18 16 20 16 32 -1 6 -9 19 -17 28 -17 8 0 17 -7 21 -15 10 -27
22 -16 18 18 -4 38 -51 111 -75 115 -9 2 -31 -13 -51 -34 -38 -42 -56 -38 -56
11 0 36 -9 48 -27 37z"/>
<path d="M14659 9735 c-50 -33 -72 -70 -65 -109 12 -64 96 -73 138 -15 21 28
48 39 48 19 0 -5 9 -19 19 -29 18 -18 20 -18 34 -3 14 15 12 23 -21 75 -26 43
-43 60 -64 64 -15 3 -28 9 -28 14 0 15 -23 9 -61 -16z m40 -69 c-12 -33 -34
-45 -34 -18 0 14 36 64 42 58 3 -3 -1 -21 -8 -40z"/>
<path d="M13471 9418 c-6 -16 -4 -28 5 -39 8 -9 11 -19 7 -23 -13 -13 -10
-236 4 -236 6 0 13 -5 15 -12 7 -19 99 9 131 40 37 35 36 70 -5 103 l-32 27
33 27 c28 24 32 33 27 64 -7 53 -35 71 -112 71 -58 0 -66 -2 -73 -22z m113
-44 c23 -9 20 -34 -3 -34 -11 0 -23 -4 -26 -10 -12 -20 -25 -9 -25 20 0 31 17
38 54 24z m16 -175 c0 -3 -12 -11 -27 -18 -32 -15 -48 -2 -39 33 6 25 6 25 36
8 16 -9 30 -20 30 -23z"/>
<path d="M13805 9304 c-71 -35 -104 -104 -70 -148 20 -26 39 -15 53 32 7 23
25 50 40 61 15 12 32 25 38 30 6 5 21 12 33 16 12 4 20 12 18 18 -7 21 -61 17
-112 -9z"/>
<path d="M14278 9285 c-52 -13 -81 -32 -72 -47 3 -5 -2 -18 -11 -28 -20 -22
-14 -48 12 -56 10 -3 28 -10 39 -16 29 -13 82 -1 97 23 15 24 28 24 50 -1 19
-23 43 -26 50 -7 9 27 -67 101 -82 79 -9 -12 -76 -42 -95 -42 -9 0 -16 5 -16
10 0 15 61 50 88 50 13 0 22 6 22 15 0 25 -32 33 -82 20z"/>
<path d="M14575 9267 c-40 -40 -51 -76 -38 -120 17 -62 55 -40 66 40 2 15 8
28 14 30 14 5 83 -79 83 -100 0 -25 18 -29 30 -7 9 17 7 27 -8 53 -11 18 -23
47 -27 64 -7 34 -46 73 -72 73 -8 0 -30 -15 -48 -33z"/>
<path d="M13981 9251 c-8 -15 -6 -25 11 -46 l21 -27 -21 -26 c-43 -55 -80
-130 -69 -141 19 -19 46 -12 64 17 10 15 23 33 30 40 7 7 13 18 13 23 0 6 6
16 13 24 44 46 87 113 87 135 0 22 -28 28 -48 8 -9 -9 -18 -9 -37 0 -36 17
-53 15 -64 -7z"/>
<path d="M13468 8848 c-15 -22 -14 -25 1 -38 19 -17 71 -103 71 -118 0 -15
-43 -22 -58 -10 -10 9 -16 8 -23 -3 -15 -24 -10 -37 24 -58 33 -20 67 -20 95
2 19 15 14 83 -8 124 -11 21 -20 43 -20 50 0 7 9 13 20 13 11 0 20 3 20 8 0
15 -43 44 -74 49 -26 4 -35 1 -48 -19z"/>
<path d="M14374 8862 c-7 -4 -11 -38 -10 -89 1 -76 3 -83 21 -83 17 0 18 -2 5
-11 -12 -8 -9 -9 10 -4 47 12 54 10 68 -18 27 -55 68 -43 51 16 -12 44 -37 77
-65 87 -16 7 -24 17 -24 34 0 57 -26 88 -56 68z"/>
<path d="M13846 8839 c-15 -22 -9 -57 17 -87 8 -11 6 -18 -10 -30 -11 -10 -23
-29 -27 -44 -5 -22 -1 -31 18 -43 14 -9 37 -15 53 -13 27 3 28 6 30 57 1 30
-2 60 -8 67 -5 6 -12 35 -16 63 -5 40 -10 51 -24 51 -10 0 -25 -10 -33 -21z"/>
<path d="M14203 8833 c-4 -10 -12 -21 -18 -25 -7 -4 -10 -18 -8 -32 4 -18 0
-26 -16 -31 -35 -11 -54 -35 -40 -51 6 -8 17 -14 25 -14 7 0 19 -12 26 -27 16
-34 61 -39 66 -8 2 11 11 28 20 38 8 9 11 17 6 17 -5 0 -3 4 5 9 11 7 10 12
-7 29 -12 12 -20 33 -20 55 0 54 -25 79 -39 40z"/>
<path d="M14014 8822 c-17 -11 2 -52 24 -52 28 0 33 10 15 36 -16 26 -22 28
-39 16z"/>
<path d="M13662 8762 c-7 -5 -15 -24 -18 -44 -5 -27 -1 -40 18 -63 22 -25 26
-26 46 -14 18 11 26 11 42 1 23 -14 47 -16 54 -3 9 14 -57 91 -77 91 -10 0
-26 9 -35 20 -11 13 -22 17 -30 12z"/>
<path d="M14020 8735 c-7 -8 -9 -15 -6 -15 4 0 0 -7 -8 -16 -20 -20 -20 -48
-1 -64 28 -23 45 -4 45 49 0 54 -10 70 -30 46z"/>
<path d="M14236 8467 c-19 -14 -19 -14 2 -35 12 -12 28 -19 37 -16 19 8 19 17
-2 43 -16 19 -20 20 -37 8z"/>
<path d="M13624 8391 c-41 -37 -53 -85 -26 -100 35 -19 101 -25 118 -10 14 11
13 14 -8 25 -13 8 -33 13 -46 14 -29 0 -25 21 7 35 15 7 21 17 19 35 -4 35
-27 35 -64 1z"/>
<path d="M13821 8361 c-30 -32 -36 -64 -17 -81 18 -14 40 -4 56 25 7 14 26 30
42 37 37 17 36 34 -3 42 -47 9 -49 8 -78 -23z"/>
<path d="M14380 8352 l-34 -29 23 -31 c12 -17 33 -40 46 -50 24 -19 24 -19 5
-40 -26 -28 -25 -56 3 -82 l22 -21 31 36 c23 27 29 44 26 66 -2 16 -8 29 -13
29 -5 0 -9 6 -9 14 0 8 -14 26 -30 40 -27 22 -29 28 -20 47 12 21 7 49 -8 49
-4 0 -23 -13 -42 -28z"/>
<path d="M11989 8357 c-23 -17 -8 -53 25 -61 48 -12 207 -153 346 -307 41 -46
87 -96 103 -112 15 -16 27 -34 27 -41 0 -7 12 -23 26 -37 14 -13 35 -40 45
-59 24 -45 36 -62 82 -130 20 -31 37 -61 37 -66 0 -6 9 -19 20 -29 11 -10 20
-24 20 -32 0 -7 5 -13 10 -13 6 0 10 -7 10 -16 0 -9 14 -36 30 -61 29 -43 41
-70 76 -173 24 -73 48 -120 59 -116 12 4 8 41 -10 81 -7 17 -16 41 -20 55 -11
43 -58 154 -77 182 -10 14 -18 32 -18 40 0 8 -13 29 -30 48 -16 19 -29 41 -30
48 0 7 -8 25 -18 40 -84 123 -122 183 -122 192 0 5 -4 10 -10 10 -5 0 -17 15
-26 33 -9 17 -28 46 -41 62 -71 86 -100 120 -124 144 -14 14 -34 38 -43 54
-10 15 -25 27 -32 27 -8 0 -14 6 -14 13 0 6 -23 32 -51 57 -28 25 -68 62 -90
83 -21 21 -43 36 -49 32 -5 -3 -10 1 -10 9 0 8 -17 23 -37 32 -21 10 -40 18
-43 20 -3 1 -12 -3 -21 -9z"/>
<path d="M14249 8347 c-11 -15 -13 -32 -8 -55 8 -40 14 -46 34 -39 11 5 15 21
15 62 0 60 -13 71 -41 32z"/>
<path d="M14016 8339 c-36 -29 -34 -63 5 -83 27 -14 34 -14 60 -1 15 8 37 15
49 15 11 0 23 7 27 15 7 20 -24 55 -48 55 -10 0 -21 5 -24 10 -10 16 -40 11
-69 -11z"/>
<path d="M11090 8145 c-23 -28 -8 -49 43 -57 49 -7 187 -75 270 -134 26 -19
52 -34 57 -34 6 0 10 -4 10 -10 0 -5 7 -10 15 -10 8 0 15 -4 15 -8 0 -5 42
-39 93 -75 51 -36 113 -84 138 -106 24 -23 49 -41 55 -41 6 0 31 -19 55 -41
98 -92 127 -117 184 -165 102 -84 331 -318 350 -357 9 -20 23 -37 31 -37 8 0
25 -21 39 -47 23 -46 160 -202 153 -176 -6 22 -189 281 -242 342 -95 108 -246
264 -296 304 -19 16 -57 50 -85 75 -74 70 -211 182 -223 182 -6 0 -12 3 -14 8
-6 15 -140 122 -152 122 -8 0 -20 8 -27 17 -28 33 -207 159 -274 192 -39 19
-86 43 -106 53 -44 22 -72 23 -89 3z"/>
<path d="M13656 8057 c-19 -19 -24 -34 -24 -71 1 -44 3 -47 38 -57 52 -16 85
2 75 39 -4 15 -13 31 -22 35 -13 8 -12 11 3 28 19 21 13 33 -23 43 -17 5 -29
1 -47 -17z"/>
<path d="M13790 8061 c-11 -22 -13 -55 -4 -88 6 -23 27 -32 87 -39 l39 -5 -7
33 c-10 43 -12 48 -42 59 -15 5 -23 15 -20 23 6 15 -11 36 -30 36 -7 0 -17 -9
-23 -19z"/>
<path d="M13947 8023 c-14 -26 -15 -62 -2 -73 17 -14 103 -22 110 -10 10 17
-17 55 -51 73 -38 19 -51 21 -57 10z"/>
<path d="M14134 8008 c-19 -9 -44 -46 -44 -65 0 -3 20 -3 44 -1 35 4 46 1 57
-13 15 -21 49 -25 66 -8 9 9 19 6 39 -10 52 -41 89 -19 60 37 -22 42 -31 45
-66 27 -28 -15 -30 -14 -30 3 0 30 -19 42 -46 29 -18 -8 -28 -7 -36 1 -14 14
-16 14 -44 0z"/>
<path d="M13816 7770 c-65 -12 -68 -51 -5 -64 27 -5 29 -8 19 -27 -13 -23 -13
-24 16 -33 35 -11 47 14 33 71 -6 26 -14 51 -18 54 -3 3 -23 2 -45 -1z"/>
<path d="M14030 7739 c-14 -26 -9 -51 10 -55 26 -4 115 -36 126 -45 18 -15 44
1 44 25 0 13 -14 35 -31 50 -24 22 -36 26 -60 21 -21 -5 -31 -2 -35 9 -9 23
-41 20 -54 -5z"/>
<path d="M13926 7718 c-21 -30 -20 -33 8 -46 35 -15 63 -5 69 26 6 32 9 28
-30 36 -25 6 -34 3 -47 -16z"/>
<path d="M15815 7498 c-47 -16 -58 -23 -79 -51 -17 -23 -18 -28 -4 -49 8 -13
18 -35 21 -50 9 -35 57 -51 128 -43 85 10 92 17 84 83 -9 76 -43 122 -88 121
-18 -1 -45 -6 -62 -11z m105 -88 c0 -34 -96 -54 -120 -25 -15 18 -5 34 34 50
26 11 35 11 58 -1 16 -8 28 -19 28 -24z"/>
<path d="M14080 7480 c-25 -4 -69 -6 -98 -3 -34 3 -58 0 -68 -8 -11 -9 -20 -9
-40 0 -39 17 -64 13 -73 -11 -6 -17 -4 -26 8 -34 23 -16 107 -17 131 -2 16 10
24 10 41 0 18 -12 24 -11 43 7 25 23 88 22 115 -3 27 -24 41 -19 41 14 0 27
-24 52 -47 49 -4 -1 -28 -5 -53 -9z"/>
<path d="M14068 7248 c-35 -12 -36 -31 -3 -46 21 -10 28 -9 46 9 36 36 11 58
-43 37z"/>
<path d="M13945 7240 c-11 -4 -34 -6 -51 -4 -35 5 -67 -17 -58 -41 4 -10 23
-14 67 -14 34 1 70 -1 81 -3 10 -1 23 5 29 14 9 13 6 21 -14 37 -27 23 -26 23
-54 11z"/>
<path d="M15723 7238 c-13 -6 -23 -16 -23 -21 0 -6 -6 -18 -14 -26 -7 -9 -30
-47 -51 -86 -75 -139 -94 -183 -100 -229 -3 -20 -14 -56 -24 -79 -10 -23 -23
-71 -29 -107 -6 -36 -13 -73 -17 -82 -4 -11 -3 -18 3 -18 12 0 32 61 32 95 0
11 9 35 20 53 11 18 20 40 20 48 0 9 9 27 20 41 11 14 20 34 20 44 0 10 5 21
11 24 6 4 8 13 5 20 -3 8 2 19 10 25 8 7 14 18 14 24 0 7 12 28 26 47 14 19
32 49 39 67 8 18 21 40 30 48 8 9 13 20 10 24 -3 5 11 25 32 44 32 30 35 37
23 46 -18 12 -29 12 -57 -2z"/>
<path d="M13929 7080 c-24 -20 -24 -20 -5 -35 18 -14 39 -18 106 -19 14 -1 30
-4 36 -8 7 -4 17 -1 24 7 20 25 -16 58 -55 51 -18 -3 -37 0 -49 9 -25 19 -29
19 -57 -5z"/>
<path d="M13970 6935 c-16 -20 -4 -35 29 -35 15 0 31 -4 37 -10 14 -14 54 0
54 19 0 9 -5 22 -12 29 -17 17 -93 15 -108 -3z"/>
<path d="M16594 6857 c-12 -17 -25 -49 -28 -70 -6 -32 -4 -38 15 -45 15 -6 18
-11 11 -16 -25 -15 -12 -43 32 -64 55 -28 88 -28 122 1 l27 23 -16 67 c-18 79
-38 114 -73 127 -45 17 -68 12 -90 -23z m84 -59 c23 -75 24 -88 3 -88 -24 0
-51 41 -51 78 0 52 33 59 48 10z"/>
<path d="M11633 6831 c-45 -39 -51 -53 -39 -88 4 -12 2 -31 -4 -42 -8 -16 -7
-22 7 -29 10 -5 23 -7 30 -5 6 2 32 -3 58 -11 64 -22 84 -20 95 9 5 14 13 25
18 25 16 0 31 70 21 94 -9 19 -86 66 -129 79 -9 3 -34 -12 -57 -32z m116 -47
l31 -16 -22 -28 c-26 -33 -62 -38 -90 -13 -24 21 -23 37 5 56 28 20 37 20 76
1z"/>
<path d="M14003 6834 c-18 -8 -33 -20 -33 -27 0 -10 40 -33 112 -65 16 -7 -6
64 -26 84 -19 20 -24 20 -53 8z"/>
<path d="M13998 6699 c-27 -16 -22 -27 25 -48 23 -11 35 -20 26 -20 -9 -1 -24
-10 -34 -21 -10 -11 -29 -20 -42 -20 -13 0 -42 -9 -66 -19 -55 -25 -117 -36
-117 -20 0 6 -8 9 -20 6 -11 -3 -36 -1 -54 4 -43 12 -80 -2 -117 -44 -28 -31
-33 -45 -30 -79 3 -22 -3 -22 -33 -3 -39 26 -126 22 -179 -7 -39 -22 -52 -25
-84 -17 -49 11 -99 11 -121 0 -9 -5 -29 -14 -43 -19 -35 -14 -78 -71 -82 -110
-7 -60 -55 -84 -117 -58 -28 11 -46 12 -88 4 -30 -6 -56 -17 -59 -25 -3 -7 -9
-13 -15 -13 -16 0 -33 -23 -50 -66 -17 -41 -16 -51 4 -131 9 -36 8 -47 -8 -70
-10 -16 -21 -50 -24 -78 -5 -45 -7 -50 -28 -47 -30 3 -102 -53 -102 -78 0 -10
-4 -22 -10 -25 -28 -17 -1 -111 43 -145 23 -19 27 -29 27 -75 0 -36 5 -57 14
-62 8 -4 24 -25 36 -45 13 -22 30 -38 40 -38 11 0 21 -4 24 -9 3 -4 23 -11 44
-15 27 -4 47 -16 68 -41 58 -70 140 -96 212 -66 28 12 32 10 61 -18 28 -27 38
-31 89 -31 40 0 67 6 91 21 26 16 39 18 55 11 63 -30 122 -18 179 36 l38 37
20 -24 c10 -13 19 -29 19 -37 0 -7 6 -17 13 -21 16 -11 52 -63 71 -104 9 -19
19 -41 24 -49 28 -48 52 -108 52 -128 0 -13 5 -33 11 -44 12 -22 14 -36 25
-175 9 -124 7 -129 -55 -98 -78 39 -173 28 -200 -24 -9 -15 -19 -18 -55 -14
-59 7 -86 -1 -126 -35 -30 -26 -32 -34 -28 -69 4 -29 1 -46 -13 -64 -24 -31
-26 -125 -3 -157 33 -47 108 -62 164 -32 16 8 21 4 37 -28 19 -39 69 -71 113
-71 24 0 80 39 80 56 0 5 -25 9 -56 10 -84 2 -121 46 -73 86 16 15 18 21 9 33
-22 25 -59 17 -78 -17 -17 -30 -19 -31 -75 -26 -72 6 -89 19 -85 65 4 47 48
83 79 64 17 -11 27 -11 55 3 49 23 46 49 -4 40 -29 -5 -42 -2 -52 9 -7 9 -21
16 -31 16 -23 0 -25 26 -3 47 19 20 108 30 118 14 4 -6 16 -11 27 -11 11 0 18
-4 14 -10 -3 -5 6 -17 21 -27 25 -16 27 -16 40 2 14 18 15 18 42 -1 15 -12 33
-33 40 -47 16 -33 66 -60 98 -54 20 4 23 1 18 -18 -9 -35 30 -44 62 -14 23 22
25 22 59 6 19 -9 35 -12 35 -7 0 16 15 11 46 -15 40 -34 51 -32 64 15 14 52
34 52 92 1 34 -30 48 -37 61 -30 9 6 17 19 17 29 0 11 5 20 10 20 6 0 10 9 10
19 0 27 13 33 43 22 14 -6 47 -11 74 -13 47 -3 49 -4 80 -60 18 -32 30 -64 27
-72 -6 -17 -82 -30 -98 -17 -21 17 -35 -3 -39 -57 -2 -29 -7 -55 -11 -59 -3
-4 -29 -6 -58 -5 -45 1 -56 6 -89 38 -20 20 -35 42 -33 49 3 6 -4 23 -15 36
-17 20 -22 22 -30 9 -6 -8 -13 -32 -16 -52 -9 -51 -27 -68 -62 -59 -21 6 -30
17 -38 44 -16 57 -29 64 -67 35 -18 -13 -48 -30 -66 -37 -29 -12 -35 -12 -52
4 -11 10 -20 33 -22 58 -2 25 -10 44 -21 51 -28 17 -50 -18 -44 -69 5 -50 46
-117 66 -110 8 3 18 0 22 -6 10 -17 56 -3 86 27 20 20 28 23 40 13 8 -8 12
-21 9 -35 -8 -32 27 -54 86 -54 53 0 54 -2 33 -53 -8 -20 -15 -61 -15 -92 0
-30 -3 -55 -6 -55 -4 0 -22 15 -40 34 l-33 34 30 11 c31 11 31 18 1 54 -21 24
-45 21 -79 -7 -25 -21 -31 -36 -42 -108 -29 -187 -70 -312 -132 -399 -26 -37
-19 -59 19 -59 34 0 62 27 62 61 0 13 7 33 15 43 8 11 15 30 15 42 0 13 7 29
15 38 9 8 23 60 32 118 17 102 17 102 25 58 5 -25 6 -57 4 -72 -3 -15 0 -31 8
-37 8 -7 16 -21 19 -31 4 -16 0 -20 -19 -20 -17 0 -27 -8 -35 -27 -9 -24 -7
-30 13 -47 13 -10 22 -25 20 -32 -2 -12 16 -19 41 -15 4 0 7 -12 7 -29 0 -37
19 -80 37 -80 20 0 6 163 -18 214 -23 48 -23 44 4 48 19 3 22 8 19 43 -2 27
-10 46 -25 58 -22 17 -22 17 -2 32 11 8 26 19 33 25 9 8 12 2 12 -27 0 -48 43
-206 65 -240 10 -14 40 -69 67 -121 46 -85 92 -145 121 -155 6 -2 8 -11 4 -21
-6 -14 -14 -17 -35 -12 -68 17 -81 18 -104 2 -26 -18 -38 -20 -38 -6 0 24
-104 127 -137 136 -13 3 -23 12 -23 19 0 15 -32 45 -50 45 -12 0 -39 -28 -40
-42 0 -4 9 -10 20 -13 26 -8 25 -16 -2 -47 -13 -13 -32 -41 -43 -62 l-20 -37
20 -15 c18 -14 22 -13 43 13 41 51 54 62 84 68 20 5 35 2 47 -9 10 -9 23 -16
29 -16 7 0 12 -7 12 -15 0 -9 6 -18 14 -21 24 -9 28 -36 10 -70 -36 -66 20
-90 70 -29 37 44 72 46 118 7 41 -35 80 -62 90 -62 12 0 10 35 -4 65 -6 14
-18 25 -26 25 -8 0 2 14 23 30 47 37 87 39 127 5 41 -34 61 -34 47 2 -13 35 5
53 59 60 48 6 90 -15 115 -59 17 -30 17 -30 -18 -71 -44 -51 -47 -87 -7 -87
20 0 37 12 67 50 45 55 76 67 152 55 39 -6 57 -16 95 -55 63 -62 65 -95 8
-128 -42 -24 -77 -79 -67 -105 10 -27 53 -17 72 17 23 39 44 55 72 56 12 0 23
6 25 12 6 18 75 -36 84 -64 3 -13 11 -29 17 -37 14 -17 17 -80 5 -103 -13 -26
-43 -22 -81 12 -40 34 -55 37 -65 13 -5 -13 -9 -4 -12 27 -3 31 -10 46 -21 48
-12 2 -21 -12 -34 -57 -26 -85 -72 -103 -141 -56 -44 30 -64 32 -71 6 -4 -15
-18 -20 -76 -25 -40 -3 -91 -9 -115 -12 -23 -3 -58 -3 -76 0 -28 5 -33 10 -29
26 8 30 -28 26 -63 -7 -61 -58 -132 -103 -162 -103 -65 0 -122 41 -144 103
-16 44 -52 30 -60 -23 -2 -21 -11 -27 -58 -37 -73 -17 -114 -9 -180 36 -63 43
-66 60 -17 103 27 25 29 30 19 53 -6 14 -16 25 -22 25 -12 0 -64 -45 -132
-114 -42 -43 -53 -49 -98 -54 -43 -4 -55 -1 -75 18 -13 13 -24 30 -23 39 3 21
-11 90 -23 120 -9 23 -10 23 -29 6 -11 -10 -20 -24 -20 -30 0 -21 -52 -35
-142 -37 -74 -3 -90 0 -115 18 -15 11 -32 30 -37 41 -13 27 -41 44 -61 37 -9
-4 -22 -22 -30 -40 -17 -42 -70 -76 -105 -67 -42 10 -74 30 -126 76 l-49 45
18 37 c15 31 16 40 5 46 -7 5 -16 9 -20 9 -16 0 -48 -41 -48 -60 0 -25 -3 -25
-45 3 -54 34 -45 57 27 75 67 17 103 15 145 -8 41 -22 78 -26 88 -10 4 6 -9
17 -27 24 -19 8 -40 26 -48 40 -12 24 -11 28 10 51 36 38 125 50 143 19 11
-20 63 -17 84 4 46 47 132 77 148 52 14 -23 7 -90 -14 -118 -33 -47 -24 -72
25 -72 21 0 54 77 54 128 0 71 27 105 100 129 46 15 51 15 68 0 10 -10 30 -17
45 -17 33 0 77 -46 77 -80 0 -15 -7 -35 -15 -46 -21 -28 -18 -39 12 -50 24 -8
31 -5 66 33 24 26 55 48 79 55 34 10 42 9 66 -9 15 -11 40 -39 55 -61 16 -23
32 -42 37 -42 16 0 21 39 9 62 -16 32 -69 87 -99 103 -30 16 -94 21 -133 10
-24 -6 -33 -3 -58 25 l-29 32 26 31 c15 18 29 30 31 27 4 -6 93 128 93 141 0
5 13 36 29 69 30 61 50 137 52 195 1 17 5 41 10 55 17 49 17 213 1 248 -20 42
-41 41 -33 -2 5 -23 -21 -234 -35 -290 -9 -33 -20 -81 -26 -106 -14 -60 -64
-166 -99 -211 -16 -20 -29 -41 -29 -47 0 -5 -18 -21 -40 -36 -37 -24 -45 -26
-109 -20 -61 6 -71 4 -90 -15 -11 -11 -27 -21 -35 -21 -8 0 -28 -11 -44 -25
-25 -21 -35 -23 -55 -16 -35 14 -115 5 -136 -13 -13 -12 -40 -16 -105 -16 -97
0 -159 -22 -176 -63 -23 -55 -44 -69 -116 -77 -38 -4 -70 -7 -71 -6 0 1 -4 17
-8 36 -5 29 -2 37 16 48 18 12 23 12 30 0 10 -16 56 -21 65 -7 3 6 -6 21 -21
35 -20 19 -24 28 -16 38 13 16 38 15 67 -1 12 -7 26 -8 34 -3 12 7 11 12 -3
28 -23 25 -22 27 16 51 31 20 32 20 47 2 19 -24 70 -37 70 -18 0 7 -5 18 -12
25 -9 9 -9 12 3 12 20 0 34 -11 48 -37 15 -29 28 -29 57 -1 13 13 31 30 41 39
10 9 23 24 28 34 8 14 26 19 73 21 33 2 64 -1 67 -5 3 -5 19 -2 36 6 22 11 42
13 72 8 66 -12 123 -11 141 4 26 22 1 41 -53 41 -25 0 -66 7 -90 15 -28 10
-47 12 -55 6 -6 -5 -56 -12 -111 -15 -87 -5 -96 -4 -68 6 17 7 35 16 38 20 4
3 22 4 40 1 26 -4 34 -2 39 14 8 24 50 48 98 57 21 4 61 17 90 30 29 13 71 26
93 30 22 4 45 11 50 15 6 4 35 13 65 20 92 21 90 20 90 51 0 28 -29 57 -43 43
-4 -3 -21 -7 -38 -9 -18 -2 -78 -20 -133 -40 -56 -19 -125 -42 -154 -50 -29
-8 -66 -21 -82 -29 -16 -8 -31 -15 -33 -15 -2 0 -7 22 -10 49 -3 27 -20 79
-37 115 -17 37 -33 80 -37 97 -3 17 -12 33 -19 36 -7 3 -18 20 -24 38 -6 18
-18 39 -26 45 -7 7 -14 21 -14 31 0 10 -9 24 -19 31 -10 6 -17 17 -14 24 4 10
-71 122 -110 164 -8 8 -17 24 -21 35 -8 24 -95 124 -96 110 0 -9 14 -27 60
-82 5 -7 10 -17 10 -23 0 -5 5 -10 10 -10 6 0 10 -8 10 -18 0 -10 7 -27 15
-38 8 -10 15 -26 15 -35 0 -8 14 -28 30 -44 17 -16 30 -39 30 -52 0 -17 6 -23
23 -23 15 0 18 -3 9 -9 -11 -6 -11 -13 -1 -37 7 -16 18 -36 24 -44 20 -25 92
-211 115 -294 21 -77 22 -80 4 -93 -11 -8 -29 -16 -41 -20 -13 -3 -23 -9 -23
-13 0 -4 -17 -10 -37 -14 -42 -6 -187 -78 -261 -127 -130 -88 -333 -289 -378
-375 -16 -30 -37 -69 -46 -87 -9 -18 -20 -48 -24 -67 -3 -19 -24 -70 -45 -114
-22 -43 -39 -84 -39 -92 0 -7 -7 -30 -16 -51 -29 -65 -33 -77 -39 -113 -4 -19
-13 -45 -21 -57 -8 -12 -14 -33 -14 -46 0 -12 -11 -61 -25 -107 -13 -47 -26
-101 -28 -120 -3 -19 -8 -60 -12 -90 -3 -30 -11 -64 -16 -75 -20 -44 -27 -114
-25 -229 3 -105 8 -137 39 -241 42 -141 58 -186 85 -238 11 -21 25 -50 31 -65
6 -15 16 -36 23 -47 21 -32 144 -178 175 -206 15 -14 64 -60 108 -101 44 -42
123 -104 175 -140 52 -36 131 -89 175 -119 44 -30 100 -61 125 -68 25 -7 90
-29 145 -48 160 -55 188 -62 276 -73 46 -5 122 -16 169 -24 119 -19 349 -19
425 0 33 8 89 17 125 19 58 4 114 12 230 30 19 3 64 10 100 15 60 9 245 53
280 67 19 7 19 8 105 28 92 21 150 43 205 77 25 15 61 36 80 45 94 47 224 172
277 265 13 22 37 58 54 79 36 45 98 162 110 204 4 17 21 66 38 110 16 44 37
114 45 156 9 42 31 123 50 180 19 57 54 172 77 254 l41 150 4 237 c2 213 1
245 -17 305 -11 38 -24 93 -29 123 -11 62 -119 289 -174 365 -167 230 -217
288 -310 360 -77 59 -190 112 -280 131 -156 34 -266 77 -266 105 0 6 8 26 18
43 10 17 30 65 43 106 13 41 30 81 37 88 6 7 12 22 12 33 0 11 14 32 30 46 17
13 30 35 30 46 0 13 22 44 55 75 48 47 53 56 42 73 -15 24 -22 24 -59 -2 -47
-34 -174 -248 -164 -276 3 -7 -1 -25 -9 -40 -8 -15 -15 -38 -15 -50 0 -12 -7
-28 -15 -37 -8 -8 -15 -26 -15 -40 0 -44 -18 -79 -38 -71 -16 6 -89 22 -207
44 -27 5 -75 15 -105 21 -30 6 -93 15 -140 20 -70 7 -88 6 -102 -7 -14 -13
-17 -12 -22 4 -11 37 -9 219 4 258 18 57 20 59 44 38 83 -73 228 -55 250 30 8
32 60 57 116 57 41 0 55 5 85 31 40 35 42 47 18 92 -9 18 -16 45 -14 60 5 53
-17 84 -82 117 -33 16 -75 30 -94 30 -25 0 -36 5 -42 23 -14 35 -62 74 -109
88 -43 12 -43 13 -37 48 4 20 9 65 11 101 4 70 15 128 45 230 10 36 19 71 19
77 0 6 6 16 14 22 8 7 29 41 46 77 l31 65 40 -36 c23 -20 46 -34 53 -32 6 3
20 -1 31 -9 41 -30 132 -5 161 45 l17 29 31 -33 c42 -45 63 -54 143 -61 56 -5
77 -3 108 12 21 9 40 26 43 36 3 14 14 18 53 18 27 0 59 6 72 13 35 19 67 49
62 57 -3 5 2 10 10 14 20 7 19 45 -2 69 -17 20 -17 20 7 13 56 -17 79 -17 111
-1 39 20 51 32 68 63 8 15 21 22 42 22 36 0 76 20 107 53 46 49 36 175 -16
208 -20 12 -20 13 1 41 15 20 21 44 21 81 1 44 -4 59 -33 99 -37 51 -64 66
-86 48 -12 -10 -8 -19 19 -58 61 -86 51 -129 -32 -134 -39 -2 -48 -7 -50 -24
-4 -30 19 -44 77 -47 50 -2 62 -9 40 -22 -7 -5 -5 -13 5 -24 9 -10 19 -32 22
-50 6 -27 2 -36 -26 -61 -41 -37 -63 -38 -79 -4 -9 21 -14 24 -26 14 -8 -7
-15 -19 -15 -27 0 -30 -43 -113 -62 -119 -11 -3 -39 -3 -63 1 -38 5 -45 3 -55
-16 -7 -11 -10 -29 -7 -39 6 -22 -24 -69 -55 -86 -35 -20 -64 -17 -81 9 l-15
22 -12 -27 c-16 -35 -77 -77 -121 -84 -43 -7 -95 15 -133 55 -30 31 -66 41
-66 19 0 -12 -17 -25 -85 -65 -36 -23 -80 -16 -119 19 -42 37 -47 52 -12 37
19 -9 33 -8 65 7 43 20 48 37 13 42 -25 4 -30 41 -12 87 8 22 15 26 33 21 12
-4 31 -9 42 -11 27 -7 125 14 125 26 0 42 -59 68 -106 47 -23 -11 -28 -9 -55
20 -33 35 -35 44 -14 62 19 16 19 25 -1 44 -14 15 -18 14 -41 -4 -39 -30 -112
-28 -144 6 l-24 25 -17 -21 c-10 -12 -18 -28 -18 -35 0 -22 -51 -34 -85 -19
-16 7 -44 18 -61 25 -25 10 -31 18 -30 41 1 15 4 28 8 28 3 0 9 18 13 41 9 53
-15 84 -59 75 -38 -8 -56 -24 -56 -49 0 -17 5 -19 40 -14 22 3 43 1 46 -4 3
-5 1 -9 -5 -9 -6 0 -8 -7 -4 -16 5 -14 1 -16 -23 -12 -16 3 -37 9 -47 13 -14
6 -20 1 -30 -25 -12 -31 -13 -32 -60 -27 -66 6 -79 22 -81 99 -2 63 -20 108
-43 108 -18 0 -26 -39 -11 -57 10 -13 10 -17 1 -20 -7 -3 -13 -17 -13 -32 0
-19 -15 -43 -47 -78 -69 -73 -117 -103 -168 -103 -36 0 -46 5 -67 33 -31 40
-40 103 -22 145 10 26 11 32 0 32 -17 0 -56 -43 -56 -63 0 -9 -4 -19 -10 -22
-17 -11 -12 -96 7 -117 14 -16 15 -21 4 -27 -19 -12 -89 -2 -138 20 -23 11
-51 19 -61 19 -25 0 -36 -27 -19 -45 18 -18 93 -55 112 -55 8 0 15 -9 15 -19
0 -12 9 -22 23 -26 29 -10 66 -54 67 -82 0 -26 -58 -69 -107 -79 -30 -6 -32
-4 -43 36 -13 49 -35 51 -60 5 -18 -33 -71 -65 -108 -65 -35 0 -60 17 -87 60
-25 39 -55 54 -55 27 0 -8 -17 -22 -38 -31 -30 -14 -43 -15 -67 -6 -49 18 -75
49 -75 88 l0 35 -54 -7 c-45 -5 -58 -2 -86 17 -36 24 -75 89 -67 111 3 8 20
17 37 21 40 9 34 27 -16 43 -43 14 -80 45 -89 73 -7 20 13 63 45 97 28 30 37
28 54 -13 10 -23 27 -41 51 -52 33 -16 36 -16 53 1 16 16 16 18 0 30 -49 36
-65 169 -26 206 13 11 33 23 45 25 13 3 34 7 48 10 14 3 25 10 25 16 0 7 -11
9 -27 6 -58 -11 -118 55 -111 123 3 30 10 39 58 67 39 24 66 33 97 33 l44 0
-16 -30 c-20 -38 -11 -68 21 -76 29 -7 33 -5 39 27 14 70 108 84 209 31 58
-31 76 -33 76 -9 0 12 -23 27 -122 79 -32 17 -58 35 -58 42 0 29 52 82 98 98
65 24 92 23 92 -2 0 -30 45 -38 73 -12 45 41 87 54 154 50 58 -4 67 -7 89 -36
14 -18 30 -32 35 -32 15 0 10 46 -6 60 -20 16 -10 57 22 91 28 30 78 42 137
32 35 -6 38 -8 32 -34 -4 -21 -1 -31 12 -37 23 -12 34 -7 84 38 46 43 101 60
192 60 42 0 58 -5 80 -25 14 -13 26 -30 26 -38 0 -25 26 -40 42 -25 35 33 106
76 136 81 40 8 95 -17 138 -63 36 -37 45 -38 40 -2 -3 28 -3 28 58 27 77 -1
148 -33 179 -80 27 -43 43 -44 52 -5 8 36 12 37 54 5 48 -35 71 -61 83 -96 10
-29 8 -34 -36 -78 -25 -26 -46 -49 -46 -53 0 -17 54 -17 83 0 34 21 40 20 105
-10 44 -21 50 -35 30 -71 -20 -38 -19 -65 4 -71 31 -7 58 11 64 43 13 63 111
65 147 4 15 -27 36 -117 41 -178 1 -23 35 -33 47 -13 5 7 9 38 9 68 0 67 -32
141 -81 187 -34 31 -110 63 -152 63 -12 0 -33 8 -47 18 -13 9 -42 26 -65 37
-31 16 -39 25 -37 42 4 29 -17 68 -67 124 -57 65 -125 78 -134 26 -3 -21 -4
-21 -14 4 -13 29 -66 72 -103 84 -14 4 -31 12 -38 18 -7 5 -39 10 -71 11 -44
1 -64 -4 -79 -17 -16 -15 -24 -16 -41 -7 -12 6 -21 14 -21 18 0 11 -50 30 -96
38 -43 6 -89 -10 -130 -48 -21 -19 -21 -18 -74 17 -28 19 -58 35 -65 35 -20 0
-36 25 -24 37 20 20 4 45 -36 59 -47 16 -45 16 -67 3z m42 -1279 c-37 -138
-47 -231 -28 -259 13 -19 17 -19 34 -6 26 20 38 19 29 -2 -4 -10 -8 -29 -10
-43 -3 -41 -4 -42 -21 -36 -19 7 -76 -24 -71 -39 2 -5 23 -9 46 -8 40 2 41 1
41 -30 0 -21 -7 -36 -20 -45 -24 -15 -25 -28 -5 -49 8 -8 13 -19 10 -24 -9
-13 -25 -11 -25 3 0 6 -6 19 -13 27 -7 9 -19 34 -26 56 -18 53 -60 115 -77
115 -19 0 -18 -19 2 -27 8 -3 13 -12 9 -21 -3 -8 1 -22 9 -31 8 -9 19 -34 25
-56 48 -191 48 -190 34 -236 -18 -61 -17 -69 11 -69 23 0 24 -3 23 -67 -1 -38
2 -85 6 -105 7 -35 6 -38 -16 -38 -12 0 -28 5 -33 10 -6 6 -28 13 -50 15 -75
10 -71 3 -72 133 0 64 -5 130 -11 145 -6 16 -11 43 -11 61 0 17 -5 37 -11 43
-7 7 -13 27 -14 46 -1 19 -14 50 -28 69 -15 19 -27 44 -27 56 0 11 -6 27 -13
34 -24 23 -45 75 -36 89 10 17 0 34 -60 99 -54 59 -63 91 -38 143 14 32 52 36
74 10 17 -22 114 -160 128 -182 47 -75 64 -88 95 -71 13 7 17 16 12 28 -13 32
-80 127 -106 151 -14 14 -26 29 -26 35 0 5 -15 22 -32 37 -18 16 -27 28 -20
29 6 0 12 8 12 19 0 18 5 21 63 40 25 9 27 7 27 -17 0 -14 10 -36 21 -48 12
-13 23 -40 25 -61 6 -63 49 -157 74 -161 21 -3 22 -1 15 40 -9 53 -22 88 -32
88 -5 0 -9 10 -10 23 -2 40 -25 121 -40 144 -23 34 -9 43 45 29 46 -12 107 -4
128 17 14 14 12 1 -16 -103z m205 30 c9 8 25 8 47 2 20 -5 43 -6 58 0 16 6 33
5 48 -1 19 -9 21 -14 12 -30 -5 -11 -17 -26 -25 -35 -45 -45 -185 -248 -185
-269 0 -7 -5 -18 -12 -25 -15 -15 7 -42 36 -42 17 0 29 14 51 60 28 54 45 74
45 51 0 -5 -22 -76 -49 -158 -27 -81 -52 -164 -55 -183 -3 -19 -14 -89 -25
-155 -10 -66 -19 -131 -19 -145 -2 -48 -13 -88 -26 -93 -22 -9 -46 15 -49 48
-2 17 -6 35 -9 41 -9 14 -12 173 -4 181 14 15 4 57 -19 79 -15 14 -25 34 -25
50 0 26 1 26 18 11 10 -10 31 -17 46 -17 26 0 28 2 21 28 -6 23 -7 126 -2 270
1 23 7 46 13 50 6 4 11 28 10 53 -1 30 5 54 15 65 23 27 31 64 13 64 -23 0
-84 33 -84 46 0 6 3 25 6 41 l6 29 65 -13 c48 -10 69 -11 78 -3z m-140 -144
c18 -13 18 -15 2 -40 -29 -43 -54 -29 -42 24 7 34 13 36 40 16z m267 -58 c4
-10 -25 -48 -36 -48 -2 0 1 14 7 30 12 31 23 38 29 18z m-41 -767 c35 -36 38
-56 7 -47 -13 3 -30 6 -39 6 -22 0 -41 44 -26 59 17 17 26 14 58 -18z m215
-123 c36 -32 37 -33 13 -38 -17 -4 -23 -12 -21 -26 2 -16 -1 -14 -20 8 -13 15
-37 32 -53 38 -17 6 -36 19 -43 30 -12 19 -10 20 38 20 41 0 55 -5 86 -32z
m44 -124 c0 -14 -27 -31 -34 -23 -2 2 -7 19 -11 37 l-7 34 26 -17 c14 -10 26
-24 26 -31z m-345 -552 c50 -6 110 -17 135 -25 25 -9 79 -20 120 -27 76 -12
123 -23 172 -42 24 -9 26 -12 13 -25 -8 -8 -15 -29 -15 -47 0 -17 -5 -37 -11
-43 -6 -6 -9 -17 -6 -25 4 -9 8 -5 12 10 4 12 11 22 16 22 5 0 9 11 9 24 0 13
8 34 18 46 17 20 19 21 62 7 76 -25 182 -55 240 -68 67 -14 90 -25 90 -44 0
-14 53 -104 100 -170 16 -22 29 -49 30 -61 0 -29 35 -78 101 -144 31 -31 59
-69 63 -85 4 -17 23 -49 42 -72 19 -23 34 -48 34 -57 0 -8 5 -18 10 -21 6 -3
10 -15 10 -26 0 -18 8 -37 32 -79 4 -8 14 -26 20 -40 7 -14 29 -45 49 -70 20
-25 39 -56 42 -70 38 -155 54 -190 89 -190 10 0 17 -3 14 -8 -2 -4 -1 -26 3
-48 4 -22 4 -70 -1 -105 -4 -35 -10 -84 -12 -109 -6 -63 -17 -123 -26 -135 -3
-5 -12 -37 -19 -70 -8 -33 -21 -84 -31 -113 l-17 -53 -17 26 c-10 15 -26 35
-37 46 -20 20 -22 20 -40 3 -18 -16 -21 -16 -61 0 -24 10 -56 24 -71 32 -16 8
-41 14 -57 14 -15 0 -56 9 -91 21 -134 43 -287 -4 -414 -128 -16 -16 -39 -33
-49 -37 -23 -8 -104 20 -129 46 -10 10 -31 25 -48 34 -24 12 -28 18 -19 29 17
20 3 38 -67 85 -35 23 -72 53 -83 67 -43 55 -10 153 58 170 46 11 219 8 235
-5 29 -24 90 -52 111 -52 21 0 56 35 56 57 0 4 -27 42 -61 83 -57 70 -61 76
-55 114 4 22 13 44 21 50 7 6 23 30 35 52 11 23 36 58 55 77 22 22 35 46 35
62 0 16 7 28 18 31 55 18 72 37 95 104 5 13 6 13 6 -1 2 -38 98 -86 149 -74
15 3 36 16 46 29 16 23 22 24 92 19 68 -5 77 -4 99 17 16 15 25 35 25 52 0 63
-98 148 -170 148 -35 0 -47 7 -90 49 -28 28 -59 52 -69 56 -11 3 -22 17 -25
31 -4 13 -23 42 -42 64 l-36 40 26 0 c26 0 33 17 27 70 -3 22 -57 69 -88 76
-16 4 -35 12 -43 19 -8 6 -50 29 -92 50 l-77 37 -128 -4 c-135 -4 -204 -23
-211 -59 -4 -24 38 -32 67 -13 32 22 256 21 280 0 9 -8 30 -18 46 -21 40 -9
168 -67 177 -80 4 -5 8 -22 8 -38 0 -26 -1 -27 -23 -12 -61 40 -183 57 -211
30 -13 -13 -17 -11 -36 20 -54 87 -158 120 -230 73 -28 -18 -50 -22 -111 -24
l-75 -1 -46 71 c-75 116 -126 217 -153 301 -14 44 -25 81 -25 83 0 1 8 -2 18
-7 10 -5 58 -14 107 -19z m-1212 -305 c-10 -21 -30 -43 -47 -51 -27 -13 -31
-13 -43 2 -7 9 -13 22 -13 28 0 12 107 67 117 60 1 -1 -5 -19 -14 -39z m2307
-98 c50 -53 90 -99 105 -121 6 -9 29 -42 51 -74 23 -33 53 -82 67 -111 15 -28
30 -54 35 -57 33 -20 134 -345 131 -421 l-1 -30 -8 30 c-5 17 -16 59 -25 95
-9 35 -24 74 -34 85 -34 37 -68 121 -58 142 10 23 -22 74 -104 166 -25 29 -56
74 -70 100 -13 27 -39 62 -56 78 -18 15 -47 55 -63 88 -17 33 -35 63 -40 66
-6 4 -10 13 -10 22 0 20 17 7 80 -58z m-2820 -280 c0 -6 9 -9 20 -6 17 4 20 0
20 -28 0 -44 31 -81 75 -89 20 -4 44 -13 53 -21 39 -33 89 -66 122 -81 19 -9
42 -22 50 -29 8 -7 40 -16 71 -20 48 -6 58 -4 70 12 8 10 24 27 37 37 22 19
22 19 51 -14 16 -19 48 -41 72 -50 24 -10 49 -28 56 -40 6 -13 19 -27 27 -32
9 -5 16 -16 16 -24 0 -8 11 -31 24 -52 13 -21 31 -63 41 -93 12 -37 34 -74 70
-114 32 -36 56 -73 60 -92 3 -18 16 -44 28 -57 12 -14 37 -41 55 -61 17 -19
33 -39 33 -43 1 -4 3 -20 5 -36 4 -36 69 -133 94 -141 10 -3 29 -17 42 -30 24
-24 65 -40 163 -65 61 -16 132 -53 163 -86 13 -13 27 -24 32 -24 4 0 22 -11
37 -24 16 -14 40 -27 54 -29 13 -2 31 -6 39 -10 8 -3 26 -8 40 -11 14 -3 53
-30 87 -61 34 -30 68 -55 76 -55 9 0 19 -4 22 -10 3 -5 18 -10 32 -10 23 0 52
-15 145 -75 17 -11 44 -46 60 -77 l30 -57 -21 -56 c-20 -52 -20 -82 -3 -125 3
-8 6 -24 8 -35 17 -164 45 -249 100 -306 19 -19 37 -49 40 -65 6 -34 30 -74
44 -74 6 0 10 -4 10 -9 0 -4 -17 -11 -37 -14 -21 -4 -81 -18 -133 -32 -91 -24
-97 -24 -138 -8 -39 15 -44 15 -60 0 -17 -15 -20 -15 -43 6 -31 27 -65 47 -81
47 -6 0 -19 7 -28 15 -21 19 -247 33 -276 17 -12 -6 -73 -12 -138 -13 -64 -1
-118 -5 -121 -9 -2 -4 -22 -10 -44 -14 -22 -3 -41 -11 -43 -18 -5 -15 -123
-14 -141 0 -30 24 -126 45 -203 45 -65 0 -96 -6 -160 -30 -109 -42 -150 -48
-181 -28 -15 10 -22 22 -19 31 4 10 -6 21 -33 33 -22 9 -58 39 -80 66 -40 49
-48 73 -13 42 10 -10 24 -17 30 -17 6 0 19 -11 30 -25 20 -26 46 -33 57 -15 8
13 64 -15 72 -36 6 -16 33 -19 33 -3 0 14 -56 70 -73 73 -24 4 -46 22 -77 64
-17 24 -44 51 -59 59 -15 9 -40 34 -56 55 -17 22 -47 49 -67 59 -21 11 -38 24
-38 29 0 6 -39 51 -87 101 -49 50 -90 95 -91 100 -6 14 26 -1 32 -16 2 -7 18
-16 35 -20 17 -4 31 -11 31 -16 0 -5 5 -9 10 -9 6 0 10 9 10 20 0 11 -5 20
-10 20 -6 0 -20 11 -32 25 -11 13 -25 22 -29 19 -5 -2 -19 13 -33 34 -23 37
-91 90 -102 80 -2 -3 0 -17 5 -32 6 -14 7 -26 3 -26 -11 0 -105 110 -120 139
-6 15 -24 45 -40 68 -15 23 -46 73 -69 111 -23 38 -49 75 -59 82 -14 13 -19
11 -35 -9 -11 -13 -19 -20 -19 -16 0 4 -7 2 -15 -5 -13 -11 -15 3 -15 113 0
69 4 128 9 132 16 9 31 -31 25 -63 -5 -22 0 -35 20 -57 14 -15 26 -33 26 -40
0 -6 14 -24 30 -40 17 -16 30 -34 30 -41 0 -6 16 -24 35 -38 19 -15 35 -33 35
-41 0 -7 9 -17 20 -20 11 -3 20 -10 20 -15 0 -5 12 -22 26 -39 19 -22 22 -31
11 -31 -17 0 -30 -27 -21 -42 4 -6 10 -6 17 1 19 19 45 12 51 -14 3 -13 16
-30 29 -36 12 -7 26 -18 30 -25 4 -8 12 -14 16 -14 5 0 25 -16 44 -35 34 -34
57 -44 57 -27 0 5 -9 17 -20 27 -11 10 -20 26 -20 35 0 9 -13 29 -30 43 -16
15 -30 31 -30 36 0 5 -9 13 -20 16 -11 3 -20 15 -20 26 0 10 -4 19 -9 19 -10
0 -107 117 -135 164 -10 17 -22 33 -27 34 -5 2 -9 10 -9 19 0 8 -13 33 -29 56
-44 66 -64 97 -93 146 -14 25 -31 47 -37 49 -13 4 -15 42 -2 42 18 0 50 -36
77 -84 15 -28 35 -59 46 -70 11 -12 25 -34 33 -51 12 -29 43 -69 92 -122 31
-33 44 -59 37 -77 -4 -9 21 -41 72 -90 42 -42 81 -76 85 -76 18 0 -6 42 -32
56 -17 8 -29 23 -29 33 0 11 -5 21 -11 23 -5 2 -11 10 -12 18 -2 8 -33 61 -69
117 -37 56 -78 122 -92 147 -43 77 -117 180 -153 213 -30 27 -34 35 -26 58 8
26 9 25 73 -47 36 -40 78 -86 93 -103 16 -16 44 -61 63 -100 37 -78 56 -105
72 -105 6 0 23 -11 37 -26 28 -28 57 -24 31 5 -9 10 -16 22 -16 27 0 6 -14 20
-30 33 -17 12 -39 41 -50 64 -11 23 -38 66 -60 95 -22 29 -40 54 -40 57 0 2
-34 52 -76 112 -61 87 -74 112 -69 133 4 14 10 28 13 32 10 10 115 -89 145
-137 33 -54 97 -123 97 -106 0 17 -130 211 -141 211 -5 0 -9 6 -9 13 -1 6 -14
28 -30 47 -17 19 -30 43 -30 53 0 15 4 14 25 -9 14 -15 25 -33 25 -40 0 -7 13
-21 29 -30 17 -10 33 -29 36 -43 7 -29 108 -131 130 -131 8 0 19 -9 25 -19 11
-22 70 -55 79 -45 3 3 -4 13 -16 21 -13 9 -23 19 -23 24 0 8 -20 28 -117 115
-29 26 -53 52 -53 59 0 7 -7 19 -16 26 -9 7 -20 22 -25 34 -5 11 -25 45 -44
75 -38 60 -41 80 -20 125 l13 30 1 -27 c1 -16 6 -28 12 -28 6 0 8 -8 4 -19 -4
-13 0 -20 15 -24 11 -3 20 -12 20 -21 0 -9 7 -16 15 -16 8 0 12 -6 9 -14 -10
-25 44 -105 78 -119 24 -9 33 11 14 32 -26 29 -20 41 16 30 79 -22 92 -2 19
30 -60 25 -59 25 -63 4 -3 -15 -29 15 -73 86 -31 49 -50 77 -58 82 -4 3 -3 19
3 35 l12 29 21 -26 c12 -14 36 -41 52 -61 17 -19 40 -40 52 -46 12 -7 25 -21
28 -32 6 -18 35 -29 35 -14 0 14 -62 84 -70 79 -5 -3 -11 -1 -15 5 -3 5 -1 10
4 10 6 0 11 8 11 17 0 14 3 14 23 -4 27 -25 63 -37 72 -24 3 6 -3 16 -15 23
-11 7 -20 23 -20 36 0 13 -12 41 -27 61 -16 20 -34 45 -41 56 -7 11 -21 33
-32 50 -12 18 -16 33 -10 39 12 12 42 -13 36 -31 -3 -7 7 -21 22 -30 15 -10
33 -23 40 -30 7 -7 20 -13 28 -13 8 0 14 -4 14 -10 0 -5 11 -10 25 -10 33 0
32 12 -5 33 -16 10 -30 23 -30 28 0 6 -15 29 -34 52 -60 75 -68 91 -56 121 12
32 26 27 91 -33 23 -22 46 -38 51 -35 5 3 16 0 24 -7 8 -6 17 -9 20 -6 11 11
-37 67 -92 108 -30 22 -54 43 -54 47 0 4 7 18 16 30 16 23 44 30 44 11z m2864
-219 c17 -16 27 -33 23 -37 -4 -4 -33 0 -64 8 -61 15 -89 42 -63 60 24 15 72
1 104 -31z m-1954 -106 c17 -36 37 -63 43 -61 7 2 17 -2 24 -8 6 -7 30 -15 52
-19 48 -7 88 7 146 53 l40 32 9 -28 c20 -62 65 -90 163 -99 85 -8 145 7 168
42 l17 26 17 -28 c25 -41 39 -50 99 -64 96 -22 158 2 251 100 18 19 31 27 28
18 -10 -30 30 -48 104 -48 110 0 160 10 169 34 5 12 9 17 10 11 0 -5 4 -5 8 2
5 9 20 6 55 -10 40 -19 47 -25 42 -44 -3 -12 -17 -35 -31 -50 -14 -15 -33 -41
-41 -56 -8 -16 -30 -49 -49 -74 -29 -38 -34 -52 -34 -99 0 -52 3 -58 48 -106
50 -54 46 -56 -37 -20 -20 9 -40 16 -46 17 -5 1 -22 5 -38 9 -18 6 -34 4 -50
-6 -13 -9 -32 -12 -47 -8 -78 20 -167 -59 -183 -163 -4 -28 -2 -40 9 -44 8 -3
14 -10 13 -17 -3 -27 4 -39 52 -85 34 -33 50 -55 46 -65 -6 -16 1 -26 49 -63
69 -54 126 -85 166 -90 24 -2 47 -11 51 -19 13 -22 106 -8 134 21 26 28 101
86 130 103 13 6 43 12 67 12 25 0 48 5 51 10 17 28 180 3 272 -41 46 -23 70
-29 92 -24 20 4 42 0 71 -15 38 -20 42 -24 37 -53 -7 -47 -36 -149 -47 -169
-6 -10 -10 -27 -10 -39 0 -31 -27 -126 -54 -189 -13 -30 -32 -75 -42 -100 -23
-57 -56 -109 -117 -185 -27 -33 -53 -71 -58 -85 -6 -14 -29 -39 -52 -57 -23
-18 -57 -45 -76 -61 -18 -17 -54 -40 -80 -52 -25 -13 -58 -31 -73 -42 -33 -23
-57 -23 -65 0 -3 9 -12 24 -18 32 -28 33 -126 240 -140 293 -24 94 -29 186
-11 234 10 30 12 50 6 70 -5 15 -12 44 -15 64 -8 55 -67 123 -133 154 -113 53
-125 60 -136 80 -16 27 -51 55 -115 91 -122 67 -176 94 -192 94 -6 0 -37 12
-68 26 -31 14 -65 30 -76 34 -11 4 -55 24 -97 43 -48 22 -85 33 -99 30 -18 -5
-20 -3 -15 15 6 17 -3 26 -51 54 -32 19 -71 40 -86 48 -27 13 -49 51 -139 233
-16 32 -35 60 -44 64 -8 3 -26 27 -39 53 -13 26 -31 50 -39 53 -8 3 -20 25
-27 49 -6 24 -24 68 -40 99 -16 31 -29 63 -29 70 0 7 -7 21 -17 31 -15 17 -15
18 14 18 16 0 38 7 49 15 10 8 20 15 21 15 1 0 16 -30 33 -66z m-1032 -34 c7
0 12 -15 12 -37 l0 -38 -35 49 c-40 57 -46 80 -12 48 13 -12 29 -22 35 -22z
m-238 -1025 c0 -13 7 -30 16 -37 8 -7 24 -21 35 -30 10 -10 24 -18 29 -18 6 0
10 -11 10 -25 0 -14 5 -25 10 -25 6 0 10 -7 10 -15 0 -8 4 -15 9 -15 5 0 12
-11 15 -25 4 -14 13 -25 22 -25 9 0 22 -17 31 -40 9 -22 21 -40 27 -40 16 0
82 -79 103 -122 19 -39 33 -49 33 -23 0 8 3 15 7 15 11 0 119 -118 116 -127
-2 -5 5 -18 15 -28 36 -38 111 -105 117 -105 10 0 54 -54 55 -66 0 -6 11 -23
25 -38 27 -30 35 -57 10 -36 -12 10 -15 9 -15 -4 0 -15 -3 -15 -27 -2 -38 20
-103 86 -103 105 0 19 -48 74 -58 67 -10 -6 -51 55 -57 83 -5 27 -28 51 -49
51 -9 0 -16 4 -16 10 0 5 -20 30 -45 56 -39 40 -50 46 -74 41 -22 -5 -30 -2
-34 12 -2 10 -17 21 -35 24 -18 4 -33 14 -37 27 -3 11 -10 20 -15 20 -5 0 -24
15 -43 33 -25 23 -40 50 -52 92 -9 33 -20 69 -25 80 -13 33 -40 126 -40 141 0
8 7 14 15 14 9 0 15 -9 15 -25z m141 -401 c7 -8 34 -26 61 -40 42 -21 208
-179 231 -219 4 -8 14 -15 21 -15 8 0 16 -7 20 -15 3 -8 15 -15 26 -15 11 0
20 -4 20 -10 0 -5 -7 -7 -15 -4 -23 9 -18 -6 13 -35 30 -30 58 -78 50 -86 -3
-3 -13 7 -23 22 -23 36 -91 103 -105 103 -5 0 -10 6 -10 14 0 8 -12 24 -27 35
-16 10 -59 51 -98 90 -38 39 -78 71 -88 71 -11 0 -15 4 -11 12 4 6 3 8 -4 4
-12 -7 -49 28 -76 74 -18 31 -8 41 15 14z m523 -490 c15 -14 26 -27 24 -29 -7
-7 -71 30 -76 43 -6 20 22 13 52 -14z m1497 -145 c19 -6 51 -19 72 -29 54 -26
30 -39 -94 -51 -183 -17 -280 -31 -319 -46 -35 -14 -151 -17 -255 -8 -27 3
-101 9 -163 14 -62 6 -118 14 -125 18 -6 4 -43 12 -82 17 -59 9 -70 14 -73 31
-3 19 3 21 65 23 37 2 69 6 71 11 1 4 24 4 50 0 26 -5 67 -11 92 -15 25 -3 61
-12 81 -19 31 -12 40 -12 65 2 48 26 154 45 234 43 137 -4 165 -3 195 4 16 4
32 9 34 12 9 8 119 4 152 -7z"/>
<path d="M15045 2184 c-42 -45 -42 -85 -3 -109 16 -9 35 -14 43 -11 8 3 43 -5
77 -18 48 -17 71 -21 94 -15 43 12 61 34 44 54 -10 12 -10 18 0 30 11 13 8 21
-16 46 -42 44 -59 51 -137 54 -70 3 -72 2 -102 -31z m169 -25 c51 -30 46 -43
-11 -35 -54 7 -87 35 -56 48 27 10 29 10 67 -13z"/>
<path d="M14709 2003 c-9 -16 -13 -38 -10 -51 8 -30 59 -82 80 -82 10 0 21 -3
24 -7 4 -3 38 -8 75 -10 l68 -3 2 55 c1 50 -2 58 -29 83 -30 27 -78 39 -159
41 -29 1 -39 -4 -51 -26z m171 -48 c24 -29 -3 -36 -35 -10 l-30 24 26 1 c15 0
32 -7 39 -15z"/>
<path d="M12415 1993 c27 -53 118 -133 133 -118 4 4 -4 15 -17 24 -14 9 -30
22 -35 29 -29 35 -84 92 -89 92 -3 0 1 -12 8 -27z"/>
<path d="M11812 6654 c-30 -21 -14 -54 27 -54 39 0 102 -51 181 -145 36 -43
73 -85 83 -94 9 -8 17 -20 17 -25 0 -5 10 -23 23 -40 13 -17 45 -66 71 -108
27 -43 54 -78 62 -78 10 0 12 5 5 18 -5 9 -13 28 -19 42 -20 49 -23 55 -35 76
-7 12 -24 39 -38 60 -13 22 -29 46 -34 55 -56 93 -214 271 -259 293 -42 20
-56 20 -84 0z"/>
<path d="M16424 6594 c-27 -31 -54 -61 -60 -67 -6 -7 -9 -18 -6 -25 2 -6 0
-12 -5 -12 -5 0 -20 -21 -33 -47 -13 -27 -30 -54 -37 -61 -7 -7 -13 -20 -13
-27 0 -14 -33 -79 -52 -102 -7 -9 -7 -13 1 -13 17 0 37 22 46 50 4 14 16 36
27 50 11 14 38 55 62 92 24 37 62 85 84 108 23 22 42 44 42 49 0 5 11 16 25
25 33 22 32 36 -4 36 -22 0 -39 -12 -77 -56z"/>
<path d="M14040 6421 c0 -12 -4 -20 -9 -17 -14 9 -19 -17 -7 -36 10 -16 12
-16 29 -1 14 14 22 15 37 6 18 -12 68 -4 100 16 20 13 11 19 -46 32 -108 23
-104 23 -104 0z"/>
<path d="M14069 6321 c-35 -35 -36 -47 -7 -62 l22 -12 -23 -8 c-39 -15 -22
-43 29 -50 25 -3 58 -11 74 -18 37 -15 58 -7 54 21 -2 16 -16 26 -50 38 -59
20 -64 25 -48 45 18 21 46 19 126 -10 81 -29 74 -28 74 -12 0 17 -74 70 -119
85 -59 21 -99 15 -132 -17z"/>
<path d="M13535 6242 c-52 -7 -85 -52 -49 -66 26 -10 51 -7 64 9 7 8 15 13 19
11 3 -2 33 -1 66 3 l59 6 -28 19 c-29 19 -78 26 -131 18z"/>
<path d="M13817 6224 c-4 -4 3 -20 15 -37 11 -16 21 -41 20 -56 -1 -45 -20
-132 -33 -147 -15 -19 1 -37 27 -32 26 4 63 84 63 133 1 53 -42 145 -67 145
-10 0 -22 -3 -25 -6z"/>
<path d="M14626 6214 c-9 -8 -16 -19 -16 -23 0 -17 27 -31 60 -31 20 0 52 -11
75 -25 52 -32 79 -33 71 -2 -3 12 -6 25 -6 29 0 11 -111 61 -142 65 -15 1 -34
-4 -42 -13z"/>
<path d="M14171 6099 c-31 -6 -50 -22 -51 -41 0 -4 14 -15 31 -24 29 -15 32
-15 50 5 11 12 24 21 29 21 17 0 11 25 -7 36 -11 6 -32 7 -52 3z"/>
<path d="M14378 6074 c-16 -8 -30 -26 -33 -42 -4 -15 -10 -35 -16 -44 -5 -10
-9 -26 -9 -36 0 -10 -24 -42 -52 -71 -51 -50 -52 -53 -34 -67 25 -18 29 -18
56 6 13 11 27 20 31 20 5 0 16 15 25 33 l17 32 8 -30 c5 -18 5 -31 -1 -33 -33
-12 23 -77 73 -85 42 -7 49 9 18 37 -22 20 -37 55 -46 109 -3 20 -10 37 -15
37 -12 0 -2 55 16 94 27 56 14 69 -38 40z"/>
<path d="M13397 6043 c-34 -34 -39 -37 -58 -25 -18 12 -24 11 -38 -2 -13 -13
-13 -20 -3 -34 31 -44 44 -76 33 -80 -8 -3 -8 -10 1 -25 7 -12 12 -40 13 -61
0 -22 5 -41 12 -43 20 -7 36 38 38 107 2 54 7 74 34 114 54 86 35 115 -32 49z"/>
<path d="M14872 6005 c-6 -14 -16 -25 -22 -25 -6 0 -8 -4 -5 -10 3 -5 -5 -22
-19 -37 -15 -15 -26 -33 -26 -39 0 -7 -11 -22 -25 -35 -45 -43 -22 -87 31 -58
33 17 94 143 94 193 0 42 -12 47 -28 11z"/>
<path d="M13000 5974 c-19 -6 -60 -65 -60 -86 0 -15 19 -28 41 -28 5 0 9 6 9
14 0 25 41 66 65 66 23 0 42 16 32 26 -7 7 -70 13 -87 8z"/>
<path d="M14129 5932 c-28 -19 -24 -30 17 -47 42 -17 53 -18 73 -6 11 7 10 14
-8 39 -23 33 -49 37 -82 14z"/>
<path d="M15209 5899 c-11 -6 -11 -12 -3 -27 17 -26 6 -73 -22 -97 -33 -29
-35 -59 -4 -63 76 -8 129 95 83 164 -17 27 -35 35 -54 23z"/>
<path d="M14934 5718 c-20 -25 -23 -47 -8 -63 20 -20 44 -19 44 1 0 12 6 15
23 10 12 -4 34 -9 50 -12 15 -4 27 -12 27 -18 0 -16 59 -41 71 -29 13 13 1 43
-17 43 -7 0 -17 6 -21 14 -23 41 -149 81 -169 54z"/>
<path d="M11665 5653 c-57 -4 -62 -6 -79 -37 -18 -34 -16 -67 11 -118 11 -23
20 -28 52 -28 21 0 52 -5 70 -11 24 -9 35 -8 47 2 14 11 19 10 38 -12 17 -22
27 -25 57 -22 48 6 174 -53 260 -121 14 -12 38 -30 53 -41 16 -11 47 -37 70
-57 22 -21 68 -59 101 -85 34 -26 81 -72 105 -100 25 -29 49 -53 53 -53 14 0
-4 43 -32 76 -14 17 -33 40 -42 50 -54 65 -273 254 -294 254 -3 0 -25 18 -48
41 -98 94 -228 137 -279 92 -10 -9 -18 -11 -18 -5 0 6 5 14 10 17 12 8 13 59
2 83 -5 9 -15 31 -23 47 -16 32 -21 34 -114 28z m82 -69 c1 -10 3 -28 5 -39 3
-18 -2 -20 -37 -17 -82 7 -119 66 -42 68 20 0 40 4 44 7 11 12 28 2 30 -19z"/>
<path d="M12996 5554 c-18 -48 7 -148 40 -161 17 -6 74 16 74 28 0 5 -5 9 -10
9 -6 0 -22 11 -35 25 -19 18 -25 35 -25 70 0 37 -3 45 -19 45 -10 0 -22 -7
-25 -16z"/>
<path d="M15839 5495 c-20 -11 -28 -25 -34 -57 -21 -123 -18 -131 85 -207 81
-61 113 -65 155 -21 30 32 32 48 19 163 -5 47 -10 60 -28 67 -12 4 -28 15 -35
24 -7 9 -19 16 -26 16 -8 0 -15 5 -17 11 -6 17 -89 20 -119 4z m130 -89 c24
-22 42 -91 31 -120 -7 -16 -9 -17 -9 -4 -1 24 -40 48 -76 48 -29 0 -32 3 -44
51 -10 40 -11 53 -1 59 15 9 73 -11 99 -34z"/>
<path d="M15103 5487 c-4 -7 -27 -27 -50 -46 -46 -35 -53 -55 -25 -70 35 -19
122 61 122 112 0 20 -35 24 -47 4z"/>
<path d="M15665 5322 c-16 -10 -42 -22 -57 -25 -15 -4 -36 -21 -48 -37 -12
-17 -26 -28 -31 -25 -5 3 -16 0 -25 -7 -42 -34 -74 -66 -74 -72 0 -4 -24 -31
-54 -60 -29 -29 -57 -63 -61 -76 -4 -13 -21 -36 -37 -51 -17 -15 -28 -32 -24
-37 3 -6 -4 -19 -16 -29 -13 -10 -28 -28 -34 -38 -6 -11 -23 -42 -37 -68 -30
-52 -31 -57 -19 -57 5 0 27 28 49 63 41 62 49 73 111 149 17 22 32 43 32 47 0
15 56 68 68 64 6 -3 12 -1 12 4 0 14 84 103 97 103 6 0 24 10 40 23 15 13 54
36 86 51 32 16 61 36 65 45 3 9 10 19 16 24 7 5 6 10 -4 17 -20 13 -20 13 -55
-8z"/>
<path d="M15160 5130 c0 -11 6 -20 14 -20 20 0 28 27 10 34 -23 9 -24 8 -24
-14z"/>
<path d="M14770 5083 c-14 -8 -34 -27 -44 -41 -19 -24 -19 -26 -1 -59 14 -26
16 -36 7 -45 -7 -7 -12 -20 -12 -29 0 -9 -11 -42 -25 -72 -14 -31 -28 -64 -30
-74 -2 -10 -9 -34 -14 -53 -13 -43 -14 -50 -2 -50 5 0 12 18 16 39 4 22 13 42
21 45 8 3 14 18 14 34 0 17 10 38 25 52 14 13 25 34 25 46 0 40 11 54 41 54
36 0 89 37 89 62 0 20 -37 90 -54 100 -15 11 -27 9 -56 -9z m68 -65 c-7 -21
-36 -34 -49 -21 -6 6 -8 16 -5 22 10 15 59 14 54 -1z"/>
<path d="M12612 4537 c-22 -24 -31 -98 -14 -123 7 -12 43 -22 105 -31 20 -3
40 -9 43 -14 3 -5 10 -9 16 -9 6 0 6 6 -2 15 -8 10 -11 30 -7 56 13 99 -81
170 -141 106z m76 -49 c15 -15 16 -38 0 -38 -14 0 -48 30 -48 42 0 12 34 10
48 -4z"/>
<path d="M11775 4440 c-15 -17 -28 -19 -83 -16 -80 5 -107 -10 -122 -64 -17
-64 -3 -114 46 -165 46 -47 86 -59 98 -29 4 9 13 13 24 10 10 -4 34 1 52 10
18 10 53 17 77 16 37 0 46 4 55 23 10 22 15 23 62 18 28 -3 77 -19 109 -35 31
-17 64 -28 72 -24 8 3 15 1 15 -4 0 -15 33 -50 46 -50 7 0 34 -21 61 -46 26
-25 66 -58 88 -74 22 -16 67 -59 100 -95 33 -36 79 -86 102 -110 23 -24 49
-58 59 -75 10 -16 26 -32 35 -35 17 -6 39 -45 39 -70 0 -8 9 -19 20 -25 11 -6
20 -20 20 -30 0 -11 5 -20 11 -20 7 0 9 9 5 23 -8 35 -84 170 -105 187 -10 8
-38 42 -62 75 -54 75 -242 265 -263 265 -8 0 -17 9 -21 19 -3 11 -22 30 -42
43 -20 13 -55 35 -77 50 -88 58 -142 78 -202 73 -53 -4 -56 -3 -51 17 9 34
-27 91 -81 126 -58 38 -63 38 -87 12z m86 -81 c16 -16 20 -28 15 -52 -8 -40
-11 -42 -38 -23 -36 26 -89 20 -136 -14 -47 -34 -52 -35 -52 -17 0 6 -7 25
-16 42 -12 24 -13 33 -2 53 12 23 15 23 89 17 52 -5 79 -3 83 4 11 17 34 13
57 -10z"/>
<path d="M15085 4367 c-34 -20 -18 -97 21 -97 7 0 18 -8 23 -19 6 -10 23 -22
38 -25 16 -4 36 -9 45 -12 18 -5 55 28 69 64 12 31 -2 55 -46 81 -43 25 -68
27 -86 5 -11 -14 -13 -14 -21 0 -10 18 -15 18 -43 3z m105 -46 c14 -26 13 -41
-3 -41 -16 0 -40 38 -32 50 10 16 23 12 35 -9z"/>
<path d="M13413 3072 c-24 -4 -83 -79 -83 -105 0 -15 37 -30 51 -21 5 3 16 22
25 42 10 20 24 45 32 55 18 21 6 35 -25 29z"/>
<path d="M14007 3023 c-3 -5 -8 -30 -11 -58 -4 -27 -14 -72 -22 -99 -8 -27
-14 -53 -14 -57 0 -11 52 -21 62 -11 18 18 32 200 17 219 -13 15 -26 17 -32 6z"/>
<path d="M14589 2964 c-31 -16 -63 -60 -54 -74 9 -15 51 -12 65 5 7 8 23 15
37 15 28 0 94 -32 113 -55 17 -21 58 -37 72 -29 5 4 2 13 -9 24 -10 10 -29 32
-43 49 -25 32 -114 82 -141 80 -8 -1 -26 -7 -40 -15z"/>
<path d="M13700 2941 c0 -24 -29 -87 -58 -129 -26 -36 -22 -52 13 -52 25 0 48
27 78 89 27 54 21 90 -15 104 -13 5 -18 1 -18 -12z"/>
<path d="M14250 2883 c-46 -19 -74 -57 -66 -89 8 -32 44 -32 71 1 30 38 73 38
95 0 23 -41 50 -46 50 -8 0 47 -56 113 -95 112 -11 -1 -36 -8 -55 -16z"/>
</g>
</svg>
