<?xml version="1.0" standalone="no"?>
<!DOCTYPE svg PUBLIC "-//W3C//DTD SVG 20010904//EN"
 "http://www.w3.org/TR/2001/REC-SVG-20010904/DTD/svg10.dtd">
<svg version="1.0" xmlns="http://www.w3.org/2000/svg"
 width="831.907911pt" height="400.000000pt" viewBox="0 0 831.907911 400.000000"
 preserveAspectRatio="xMidYMid meet">
<metadata>
Created by potrace 1.15, written by Peter Selinger 2001-2017
</metadata>
<g transform="translate(-17.802379,415.299191) scale(0.035577,-0.035577)"
fill="#444444" stroke="none">
<path d="M11995 11661 c-72 -23 -175 -128 -175 -177 0 -28 5 -36 26 -44 35
-14 34 -14 79 40 57 70 90 88 183 102 74 10 88 9 149 -10 37 -12 86 -24 108
-28 l39 -7 -15 24 c-20 31 -101 75 -153 83 -22 4 -45 11 -51 15 -21 18 -139
19 -190 2z"/>
<path d="M11117 11576 c-84 -23 -161 -108 -176 -194 -5 -28 -13 -36 -51 -51
-93 -37 -105 -39 -203 -28 -89 9 -97 9 -130 -12 -19 -11 -46 -21 -59 -21 -14
0 -33 -9 -43 -20 -10 -11 -21 -18 -24 -15 -13 7 -101 -94 -103 -117 -1 -13 -3
-36 -5 -53 -2 -16 -5 -47 -6 -68 -2 -34 -7 -41 -41 -58 -22 -10 -55 -19 -73
-19 -18 0 -41 -4 -51 -9 -9 -5 -34 -17 -54 -27 -21 -10 -38 -22 -38 -26 0 -3
-6 -13 -12 -20 -34 -36 -40 -60 -33 -133 l7 -73 -38 -20 c-58 -30 -114 -112
-123 -178 -6 -41 -4 -59 7 -75 11 -17 12 -23 2 -29 -9 -5 -9 -9 -1 -14 6 -4
11 -14 11 -22 0 -15 58 -74 72 -74 18 0 6 -40 -14 -51 -56 -30 -71 -83 -50
-174 11 -50 20 -69 33 -72 11 -3 19 -14 19 -27 0 -28 18 -46 47 -46 35 0 49
-39 29 -77 -20 -41 -21 -96 -2 -162 18 -63 29 -78 70 -95 73 -30 154 -26 181
11 26 34 18 42 -37 37 -62 -6 -115 16 -135 56 -24 47 -10 170 19 170 4 0 8 7
8 15 0 8 9 23 21 34 14 12 18 24 13 33 -5 7 -7 23 -5 36 2 16 -3 22 -16 22
-11 0 -24 -5 -31 -12 -19 -19 -71 -11 -93 14 -64 75 -63 136 6 211 24 26 48
47 54 47 5 0 25 14 43 30 28 26 30 30 13 31 -11 1 -29 3 -40 4 -11 1 -32 2
-47 3 -16 1 -42 16 -63 37 -29 30 -35 43 -35 78 0 51 37 133 76 168 16 14 56
34 89 43 33 10 67 20 75 22 10 4 4 10 -18 21 -25 12 -30 19 -21 29 14 17 3 34
-22 34 -25 0 -35 25 -21 55 11 24 81 75 103 75 6 0 24 9 39 20 28 20 141 60
171 60 9 0 19 7 23 15 3 8 12 15 21 15 27 0 16 20 -15 26 -24 5 -31 13 -36 40
-3 18 -1 48 5 66 13 41 81 107 136 135 38 19 127 43 160 43 21 0 18 -37 -5
-85 -33 -67 -26 -97 30 -125 l38 -19 7 27 c4 15 7 48 6 75 -2 26 2 47 7 47 6
0 24 12 41 26 17 14 53 33 81 43 27 10 53 21 57 24 3 4 42 7 85 7 63 0 78 -3
78 -15 0 -8 7 -15 16 -15 11 0 14 -5 10 -16 -4 -11 -1 -14 12 -12 22 4 29 46
8 54 -9 3 -16 12 -16 19 0 7 -8 15 -17 19 -10 3 -36 16 -58 29 -53 30 -57 59
-14 103 18 19 37 34 43 34 5 0 19 9 31 20 38 36 166 27 250 -18 42 -23 75 -28
75 -12 0 20 -83 88 -123 100 -23 7 -51 16 -62 21 -38 16 -120 18 -168 5z"/>
<path d="M12868 11544 c-13 -7 -35 -18 -50 -25 -15 -6 -30 -19 -33 -29 -3 -10
-12 -21 -20 -24 -8 -3 -15 -12 -15 -21 0 -26 -34 -16 -73 21 -46 45 -100 73
-154 81 -36 5 -50 1 -83 -21 -22 -15 -47 -25 -54 -24 -16 4 -95 -80 -102 -109
-6 -24 22 -73 42 -73 8 0 25 18 38 39 20 31 38 44 82 61 81 30 146 31 176 3
27 -26 67 -102 83 -160 4 -13 12 -23 20 -23 7 0 15 -6 18 -12 3 -10 8 -10 21
2 14 11 17 24 13 60 -2 25 -6 52 -8 60 -2 9 3 15 13 15 9 0 30 12 45 27 40 39
94 58 168 60 53 2 70 -2 94 -20 17 -12 35 -22 40 -22 5 0 19 -13 31 -29 27
-40 59 -49 79 -25 14 17 29 19 114 17 91 -2 102 -4 146 -33 27 -17 61 -48 76
-69 22 -33 26 -48 24 -93 -3 -47 -1 -53 18 -56 15 -2 26 7 42 33 11 20 21 43
21 51 0 8 5 14 11 14 17 0 78 -57 122 -112 35 -43 37 -50 24 -67 -25 -36 -89
-81 -116 -81 -33 0 -56 -14 -47 -29 4 -6 2 -11 -3 -11 -17 0 -13 -27 5 -34 28
-11 82 -6 122 9 35 15 41 14 83 -4 24 -11 66 -43 92 -70 45 -47 48 -53 41 -88
-16 -91 -67 -173 -106 -173 -26 0 -56 -69 -36 -82 7 -5 22 -6 33 -4 11 3 32 8
47 12 23 5 29 2 37 -17 5 -13 21 -37 35 -54 21 -25 26 -40 26 -87 0 -51 -3
-60 -26 -74 -14 -9 -39 -17 -57 -16 -20 0 -41 -7 -54 -20 -22 -20 -22 -23 -6
-40 23 -26 82 -40 122 -28 52 15 74 34 105 89 23 43 27 59 21 94 -12 70 -91
177 -131 177 -15 0 -16 2 -2 18 8 9 28 42 43 72 24 46 29 67 29 130 l1 76 -48
54 c-26 30 -70 69 -97 85 -35 21 -48 34 -43 45 28 66 3 149 -63 212 -74 71
-123 87 -144 48 -15 -28 -30 -25 -30 6 0 15 -12 38 -30 56 -16 16 -30 33 -30
37 0 12 -45 51 -58 51 -7 0 -12 4 -12 10 0 17 -64 44 -135 57 -88 15 -142 4
-151 -32 -3 -14 -10 -25 -15 -25 -6 0 -39 23 -76 51 -36 27 -78 53 -94 56 -16
3 -29 9 -29 14 0 5 -10 9 -23 9 -13 0 -26 3 -30 6 -12 12 -96 11 -119 -2z"/>
<path d="M11573 11471 c-72 -35 -118 -96 -109 -146 4 -20 15 -36 30 -43 26
-12 36 -7 36 17 0 21 68 87 103 100 73 28 124 11 212 -69 30 -28 95 -46 95
-26 0 16 -117 126 -134 126 -9 0 -35 13 -58 29 -63 42 -104 45 -175 12z"/>
<path d="M14978 11269 c-10 -5 -18 -7 -18 -3 0 4 -8 0 -17 -8 -10 -8 -26 -18
-36 -21 -43 -16 -43 -129 0 -135 18 -3 23 3 28 31 9 48 50 83 103 90 36 4 42
2 42 -13 0 -10 11 -25 25 -34 18 -12 25 -25 25 -47 0 -25 -6 -32 -35 -45 -33
-13 -39 -13 -82 6 -25 11 -48 18 -50 16 -11 -11 10 -44 48 -74 36 -31 43 -33
69 -22 15 6 37 21 48 33 26 28 45 96 31 113 -5 6 -8 16 -7 20 5 17 -45 86 -69
95 -32 12 -83 11 -105 -2z"/>
<path d="M12919 11084 c-14 -14 -15 -23 -3 -77 18 -85 17 -118 -6 -147 -11
-14 -20 -30 -20 -36 0 -17 -67 -74 -86 -74 -11 0 -14 -9 -12 -37 3 -37 4 -38
44 -37 53 1 104 39 143 108 27 48 33 53 66 54 20 1 51 9 68 17 23 12 58 16
130 16 53 -1 97 2 97 7 0 5 -12 20 -27 34 -28 26 -91 44 -169 47 -41 2 -107
-20 -119 -39 -12 -20 -26 -10 -14 11 12 23 4 89 -11 89 -6 0 -10 5 -10 10 0
13 -41 70 -50 70 -3 0 -13 -7 -21 -16z"/>
<path d="M14760 11050 c-19 -11 -60 -32 -90 -47 -30 -15 -71 -39 -90 -54 -19
-14 -53 -36 -76 -47 -49 -25 -150 -110 -146 -123 1 -5 -4 -9 -11 -9 -23 0 -93
-83 -122 -144 -28 -57 -28 -59 -10 -72 10 -8 22 -14 26 -14 11 0 49 50 49 64
0 14 109 126 174 180 28 23 45 44 42 52 -3 8 1 14 8 14 25 0 96 53 96 71 0 17
19 29 48 29 9 0 30 14 46 30 16 17 33 30 37 30 15 0 78 47 72 54 -10 9 -15 8
-53 -14z"/>
<path d="M11959 11056 c-2 -2 -38 -7 -79 -11 -93 -8 -110 -13 -110 -31 0 -8
-6 -23 -12 -35 -11 -17 -10 -22 12 -39 14 -11 31 -20 38 -20 14 0 74 29 82 39
12 16 93 31 164 31 72 0 76 1 67 19 -7 12 -26 20 -60 25 -28 4 -53 11 -56 16
-6 10 -38 14 -46 6z"/>
<path d="M12490 11034 c-73 -24 -90 -37 -90 -70 0 -28 4 -33 33 -40 39 -9 57
-7 78 12 20 18 61 18 106 -1 20 -9 42 -14 49 -11 7 3 15 -2 18 -10 3 -9 10
-13 15 -9 5 3 12 1 16 -4 8 -13 35 -2 35 14 0 19 -81 82 -135 105 -44 19 -92
24 -125 14z"/>
<path d="M11400 10990 c-16 -17 -37 -44 -45 -60 -18 -35 -22 -36 -49 -11 -14
14 -43 22 -87 27 l-66 6 -17 -33 c-16 -32 -16 -34 1 -46 9 -7 33 -13 53 -12
67 2 136 -22 145 -50 3 -9 19 -25 35 -36 17 -11 33 -30 36 -42 8 -30 50 -56
80 -49 13 4 24 11 24 17 0 14 -29 58 -67 101 -33 38 -33 48 -8 109 6 17 73 52
91 48 25 -5 25 4 -1 31 -39 41 -85 41 -125 0z"/>
<path d="M12280 10901 c-42 -7 -109 -42 -131 -67 -9 -11 -19 -31 -22 -45 -6
-23 -2 -28 33 -44 l40 -18 30 30 c40 39 130 65 187 54 24 -5 60 -20 81 -33 20
-14 46 -28 57 -31 27 -9 47 6 39 26 -9 23 -103 97 -124 97 -9 0 -20 3 -24 7
-12 12 -81 33 -106 31 -14 0 -41 -4 -60 -7z"/>
<path d="M10740 10781 c-95 -19 -169 -125 -169 -246 0 -24 6 -33 35 -48 19 -9
40 -15 45 -12 5 4 9 26 9 51 0 25 6 57 14 73 17 32 91 101 109 101 21 0 131
48 135 59 9 26 -93 38 -178 22z"/>
<path d="M13553 10648 c-23 -37 -43 -84 -43 -101 0 -10 -8 -21 -19 -24 -10 -2
-24 -15 -31 -28 -14 -26 -59 -62 -105 -85 -21 -11 -30 -22 -30 -39 0 -36 55
-49 105 -26 47 21 140 132 140 166 0 7 8 21 18 32 12 14 13 21 5 24 -10 4 -10
9 0 25 9 16 9 22 0 25 -7 3 -13 13 -13 24 0 22 -15 25 -27 7z"/>
<path d="M12144 10428 c-12 -10 -26 -18 -31 -19 -4 0 -21 -16 -37 -36 -34 -40
-29 -61 19 -78 22 -8 29 -6 40 8 7 9 16 17 22 17 5 0 30 14 56 30 54 34 99 38
162 14 67 -26 115 -33 115 -18 0 14 -60 64 -77 64 -5 0 -29 9 -52 21 -55 26
-181 24 -217 -3z"/>
<path d="M10414 10333 c-44 -51 -62 -92 -57 -132 5 -33 10 -42 35 -50 38 -13
48 -7 48 28 0 67 72 102 149 75 47 -17 60 -17 67 0 8 20 -52 73 -96 86 -57 16
-128 13 -146 -7z"/>
<path d="M11362 10315 c-32 -70 9 -202 90 -290 34 -37 36 -41 21 -57 -9 -10
-26 -18 -39 -18 -12 0 -36 -11 -52 -25 -50 -42 -111 -30 -225 42 -43 27 -67
24 -67 -7 0 -11 -5 -29 -12 -40 -10 -15 -9 -22 5 -38 9 -10 17 -26 17 -36 0
-9 6 -18 13 -20 77 -22 104 -31 116 -40 22 -17 84 -36 119 -36 36 0 45 -25 12
-35 -32 -10 -24 -33 38 -98 32 -34 65 -70 73 -80 8 -11 29 -33 46 -50 38 -38
34 -50 -27 -72 -113 -41 -110 -41 -130 -15 -15 20 -20 22 -34 11 -9 -7 -16
-22 -16 -32 0 -11 -4 -19 -10 -19 -5 0 -10 5 -10 11 0 7 -9 9 -22 5 -88 -27
-137 -34 -172 -26 -53 12 -73 33 -80 90 -4 28 -11 50 -15 50 -24 0 -69 -74
-58 -95 5 -10 -40 -33 -78 -39 -33 -6 -46 -3 -68 14 -23 18 -27 29 -27 71 0
27 -4 49 -9 49 -5 0 -17 3 -27 7 -14 5 -16 2 -11 -17 4 -15 1 -27 -8 -34 -8
-6 -17 -25 -21 -41 -5 -26 0 -36 37 -72 72 -72 149 -86 238 -45 28 13 38 13
65 3 51 -21 116 -33 140 -27 13 3 47 22 76 41 48 32 54 34 70 20 11 -10 37
-15 82 -15 59 0 69 3 121 40 l57 39 40 -42 c22 -23 40 -46 40 -52 0 -5 19 -30
41 -54 23 -25 51 -71 64 -105 13 -34 33 -81 45 -105 52 -106 72 -182 71 -281
0 -52 -4 -115 -10 -140 -5 -25 -15 -76 -21 -115 -6 -38 -20 -99 -31 -135 -10
-36 -21 -77 -25 -92 -9 -41 -54 -51 -178 -43 -145 10 -203 -3 -262 -61 l-47
-44 -95 -5 c-117 -6 -134 -16 -157 -90 -17 -52 -17 -59 -2 -89 25 -53 142
-100 188 -75 25 13 24 39 -1 39 -33 0 -108 42 -114 64 -8 32 19 64 56 68 41 4
130 -10 143 -23 5 -5 19 -9 30 -9 17 0 24 10 35 50 12 43 19 53 55 70 23 11
60 20 83 20 42 0 54 -8 95 -64 20 -27 51 -14 43 18 -5 20 0 28 30 45 19 12 39
21 44 21 16 0 20 -32 5 -53 -8 -12 -15 -29 -15 -38 0 -12 -13 -19 -47 -25 -27
-4 -56 -6 -66 -5 -9 1 -35 -8 -56 -20 -28 -15 -41 -30 -45 -52 -8 -39 7 -50
59 -42 22 4 53 6 69 5 15 0 34 4 41 10 9 7 16 6 25 -5 14 -17 76 -20 85 -4 4
6 13 8 21 5 8 -3 26 -1 41 5 21 8 30 6 49 -12 12 -12 21 -26 18 -33 -2 -6 9
-16 25 -23 25 -9 32 -8 47 8 9 10 25 19 34 19 10 0 23 7 30 16 37 43 159 57
185 20 7 -9 16 -16 20 -16 5 0 19 -10 33 -22 23 -22 24 -23 37 -4 11 15 17 16
28 8 11 -9 18 -7 32 8 10 11 26 20 37 20 10 0 27 5 37 11 14 9 25 8 51 -5 27
-13 35 -14 42 -4 13 21 10 26 -37 58 -42 29 -49 30 -113 26 -65 -5 -70 -4 -82
18 -16 31 -7 44 44 67 57 26 85 24 139 -11 60 -38 97 -48 97 -27 0 9 -4 19
-10 22 -5 3 -10 13 -10 21 0 10 13 14 50 14 39 0 62 -7 102 -32 75 -46 98 -68
98 -95 0 -20 -5 -23 -35 -23 -41 0 -44 -12 -10 -45 30 -31 50 -31 91 -3 34 24
48 66 34 104 -17 43 -90 103 -185 149 -72 36 -162 40 -208 10 -23 -15 -31 -16
-57 -5 -21 9 -50 10 -88 6 -110 -13 -105 -14 -113 24 -14 62 -19 189 -8 195 5
4 7 16 3 27 -15 49 -2 289 21 392 8 33 12 63 9 68 -3 5 1 17 10 27 8 9 24 44
35 77 11 32 26 75 34 94 8 19 20 50 26 68 7 17 17 32 22 32 5 0 9 9 9 20 0 10
9 24 19 30 11 5 23 20 27 32 4 13 16 32 28 43 12 11 29 31 39 45 13 18 21 22
31 15 103 -77 159 -89 247 -56 88 33 149 106 149 179 0 23 -36 12 -77 -25 -89
-81 -107 -93 -141 -93 -46 0 -101 35 -108 68 -3 15 -7 35 -9 45 -2 9 2 17 9
17 15 0 136 122 136 138 0 6 9 12 20 12 11 0 20 6 20 13 0 7 18 23 40 37 22
14 40 28 40 32 0 5 20 8 44 8 24 0 65 3 91 7 41 5 49 10 61 39 8 18 18 35 24
39 7 4 7 13 0 26 -11 19 -12 19 -58 -7 -26 -14 -49 -30 -52 -35 -3 -4 -23 0
-45 11 -22 10 -52 21 -67 24 -14 3 -40 19 -56 35 -32 32 -72 110 -72 139 0 29
-35 55 -64 48 -13 -3 -24 -11 -23 -18 1 -44 -2 -48 -51 -48 -66 0 -88 18 -96
79 -7 54 -24 76 -33 42 -3 -12 -9 -21 -13 -21 -4 0 -13 -13 -20 -30 -16 -39
-73 -48 -152 -26 -30 9 -62 14 -70 11 -17 -7 -38 39 -38 82 0 16 -8 27 -26 33
-36 14 -38 13 -51 -17 -14 -31 -8 -69 14 -95 10 -11 11 -18 4 -23 -6 -3 -11
-17 -11 -31 0 -19 -5 -25 -17 -22 -18 4 -18 9 -6 72 5 27 5 28 -28 21 -18 -4
-41 -12 -51 -18 -13 -9 -22 -7 -37 7 -22 20 -29 52 -10 40 7 -4 10 -1 7 7 -3
8 -15 16 -29 18 -34 4 -79 39 -73 55 7 19 -33 31 -52 15 -8 -7 -13 -18 -10
-25 3 -7 -2 -18 -10 -25 -13 -10 -17 -10 -24 0 -4 8 -13 10 -19 7 -6 -4 -9
-11 -6 -16 3 -5 -1 -15 -9 -22 -8 -8 -15 -23 -17 -33 -3 -11 -20 -24 -46 -32
-41 -14 -43 -14 -87 16 -59 41 -85 75 -92 123 -8 47 -34 81 -85 114 -49 30
-63 30 -77 -1z m871 -415 c15 -16 36 -30 46 -30 10 0 24 -6 30 -14 11 -13 49
-21 138 -30 18 -2 39 -8 46 -15 16 -13 94 -6 113 10 9 8 22 0 48 -29 24 -27
45 -39 62 -39 14 0 37 -6 50 -14 l24 -13 -27 -28 c-15 -15 -32 -28 -40 -28 -7
0 -17 -9 -23 -20 -6 -11 -17 -20 -25 -20 -8 0 -20 -10 -26 -22 -12 -23 -25
-36 -91 -91 -21 -17 -43 -46 -49 -65 -6 -18 -21 -38 -32 -43 -24 -11 -79 -78
-112 -133 -11 -19 -33 -53 -49 -76 -16 -23 -30 -49 -31 -58 -1 -9 -14 -44 -29
-76 -15 -33 -29 -73 -30 -90 -2 -17 -7 -39 -11 -48 -4 -10 -4 -25 -1 -34 3 -8
-1 -26 -10 -38 -10 -16 -14 -44 -13 -82 1 -33 -5 -85 -13 -118 -10 -36 -15
-86 -12 -130 2 -39 6 -120 8 -181 6 -129 29 -255 52 -290 21 -33 13 -41 -20
-20 -14 9 -52 19 -86 22 -33 3 -60 10 -60 14 0 10 -64 -26 -80 -45 -9 -11 -21
-8 -66 16 -47 26 -59 29 -80 19 -35 -16 -36 -15 -18 20 13 26 13 33 3 40 -11
6 -10 9 3 14 19 7 47 79 46 115 -2 34 7 69 26 105 9 17 16 38 16 48 0 10 7 31
15 46 18 36 35 167 22 180 -5 5 -4 18 3 32 9 15 10 46 6 98 -8 84 -23 139 -67
248 -16 40 -29 77 -29 83 0 19 -114 200 -126 200 -7 0 -15 11 -18 24 -3 13
-20 37 -37 53 -17 15 -39 44 -49 63 -10 19 -46 68 -79 107 -63 75 -72 93 -46
93 19 0 19 14 -1 31 -14 11 -44 61 -44 73 0 2 14 8 32 11 19 5 54 30 91 66 49
49 65 59 94 59 19 0 53 9 77 20 52 23 119 27 206 11 35 -7 76 -9 90 -6 14 4
39 9 55 11 17 2 44 8 60 13 17 5 33 10 36 10 3 1 18 -12 32 -29z"/>
<path d="M12059 9843 c-1 -5 0 -19 1 -32 1 -14 -2 -21 -9 -17 -5 4 -14 -2 -20
-12 -9 -17 -28 -243 -24 -287 1 -11 4 -62 8 -114 7 -103 14 -126 46 -136 37
-12 49 12 38 75 -6 30 -10 131 -10 225 -1 93 -5 178 -10 187 -6 10 -5 19 1 23
5 3 10 26 10 51 0 32 -4 44 -15 44 -8 0 -15 -3 -16 -7z"/>
<path d="M12370 9758 c-16 -24 -40 -56 -52 -71 -13 -15 -30 -47 -38 -71 -9
-24 -20 -50 -26 -57 -36 -47 -87 -184 -85 -226 0 -18 -4 -35 -9 -38 -6 -3 -10
-19 -10 -34 0 -16 -6 -47 -14 -69 -8 -23 -15 -49 -14 -59 0 -10 -3 -36 -6 -58
-6 -35 -4 -44 20 -68 35 -38 44 -27 54 64 5 41 14 97 20 125 6 28 10 55 9 60
-1 5 0 16 4 24 7 19 18 68 21 97 1 12 7 28 13 35 11 13 35 73 54 135 5 18 14
35 19 38 6 4 10 15 10 26 0 10 9 28 20 39 11 11 23 32 26 47 4 16 12 31 17 35
6 3 11 15 12 25 0 10 4 24 9 31 4 7 1 12 -8 12 -9 0 -29 -19 -46 -42z"/>
<path d="M11700 9600 c0 -36 19 -77 49 -104 12 -11 21 -24 21 -31 0 -7 13 -30
28 -51 16 -22 32 -52 36 -67 3 -15 15 -35 26 -45 11 -9 20 -22 20 -29 0 -7 4
-13 9 -13 5 0 12 -17 16 -37 4 -21 10 -42 15 -48 4 -5 22 -56 40 -113 27 -86
36 -103 56 -108 52 -13 74 17 55 75 -29 83 -111 253 -127 264 -7 4 -15 20 -19
35 -3 15 -16 39 -28 52 -12 14 -28 38 -35 53 -6 15 -20 31 -29 35 -10 4 -19
13 -21 20 -4 19 -33 62 -41 62 -4 0 -8 6 -8 13 0 20 -34 67 -49 67 -9 0 -14
-11 -14 -30z"/>
<path d="M12019 8861 c-1 -6 -2 -14 -4 -18 -12 -44 -15 -71 -20 -153 -3 -52
-5 -106 -5 -119 0 -13 -5 -30 -11 -37 -11 -14 -15 -76 -6 -92 4 -4 0 -37 -7
-73 -14 -65 -18 -135 -10 -177 4 -19 10 -23 37 -20 l32 3 12 115 c14 134 10
382 -6 424 -9 23 -8 33 5 54 11 17 13 27 6 30 -7 2 -9 15 -6 31 4 16 1 32 -5
35 -6 4 -12 2 -12 -3z"/>
<path d="M12845 10300 c4 -11 2 -20 -4 -20 -6 0 -11 -7 -11 -15 0 -23 73 -66
122 -72 24 -3 48 -9 53 -13 17 -12 104 -20 110 -10 3 6 16 10 27 10 21 0 21 0
-2 25 -13 14 -34 25 -47 25 -12 0 -46 9 -75 20 -29 11 -59 20 -67 20 -7 0 -26
11 -43 25 -37 31 -72 34 -63 5z"/>
<path d="M10962 10258 c-36 -36 13 -94 128 -149 91 -44 96 -45 133 -36 20 6
27 14 27 32 0 38 -2 40 -39 37 -38 -2 -84 23 -146 80 -46 41 -84 55 -103 36z"/>
<path d="M13576 10201 c-3 -5 1 -11 9 -15 8 -3 15 -12 15 -19 0 -8 8 -29 17
-48 10 -19 16 -45 14 -58 -5 -43 -46 -93 -96 -120 -38 -20 -51 -33 -53 -52 -2
-20 2 -28 20 -33 41 -11 66 -6 95 17 15 12 37 27 48 33 31 17 54 56 61 102 6
37 5 42 -10 36 -15 -6 -17 -2 -11 29 4 21 3 37 -4 41 -6 4 -11 16 -11 27 0 41
-76 89 -94 60z"/>
<path d="M13970 10078 c0 -22 10 -42 32 -65 26 -26 31 -40 30 -73 -1 -22 -8
-55 -16 -73 -16 -39 -84 -107 -107 -107 -19 0 -69 -37 -69 -51 0 -24 31 -39
77 -39 42 0 53 5 89 38 65 59 143 229 114 247 -6 4 -8 15 -5 26 4 11 2 19 -4
19 -6 0 -11 7 -11 15 0 23 -81 95 -107 95 -19 0 -23 -5 -23 -32z"/>
<path d="M10576 9895 c-14 -15 -36 -75 -36 -102 0 -7 9 -30 21 -52 17 -32 30
-43 69 -56 63 -21 96 -17 92 10 -2 11 -9 22 -14 24 -21 7 -88 79 -88 93 0 9 9
27 20 40 19 24 19 26 1 42 -22 20 -45 20 -65 1z"/>
<path d="M8956 9878 c-47 -31 -54 -43 -61 -113 l-6 -70 40 -38 41 -39 90 4 90
3 6 -27 c3 -16 10 -28 16 -28 22 0 152 -97 192 -143 23 -26 49 -50 59 -53 9
-3 17 -10 17 -15 0 -6 20 -31 45 -57 25 -25 45 -49 45 -52 0 -4 16 -15 35 -26
19 -10 35 -23 35 -28 0 -12 93 -101 129 -122 16 -10 34 -28 40 -40 5 -13 20
-28 31 -34 20 -10 21 -10 11 8 -17 31 -173 182 -182 176 -5 -3 -9 2 -9 11 0 9
-25 45 -56 78 -31 34 -65 81 -75 104 -11 23 -37 57 -59 76 -22 19 -40 37 -40
42 0 13 -33 34 -54 35 -12 0 -16 5 -12 15 6 18 -86 95 -114 95 -10 0 -26 7
-35 17 -15 15 -15 17 -1 25 18 10 23 102 6 113 -5 3 -10 14 -10 24 0 10 -10
27 -23 39 -29 27 -159 40 -191 20z m144 -77 c0 -5 8 -12 18 -15 23 -8 18 -57
-8 -81 -15 -13 -25 -14 -53 -7 -19 5 -46 7 -61 5 -29 -6 -35 11 -9 26 14 8 15
11 4 25 -8 9 -12 17 -10 19 63 36 119 49 119 28z"/>
<path d="M14094 9726 c-3 -8 0 -24 6 -36 13 -25 10 -30 -59 -103 -64 -67 -126
-97 -199 -97 -57 0 -59 1 -75 35 -9 20 -28 41 -42 47 -14 6 -25 15 -25 20 0 4
-4 8 -9 8 -19 0 -21 -37 -5 -81 19 -54 25 -135 10 -153 -15 -18 -110 -35 -131
-24 -8 5 -41 11 -73 12 -31 2 -71 7 -89 11 -31 7 -32 9 -26 50 7 51 -4 60 -46
39 -21 -11 -34 -26 -38 -44 -3 -16 -11 -31 -19 -34 -8 -3 -14 -13 -14 -23 -1
-20 -58 -53 -91 -53 -31 0 -74 26 -94 57 -20 32 -66 83 -74 83 -4 0 -12 -14
-20 -31 -16 -37 -5 -64 50 -120 85 -88 192 -97 269 -24 l35 33 85 -13 c47 -7
94 -14 105 -15 131 -15 270 29 277 88 3 22 10 27 61 39 64 14 118 39 130 59 4
8 13 14 20 14 22 0 122 76 145 110 12 18 22 46 22 62 0 61 -69 128 -86 84z"/>
<path d="M10470 9534 c-8 -8 -28 -25 -43 -37 -33 -26 -48 -78 -34 -122 20 -68
31 -84 75 -116 26 -18 56 -42 67 -52 11 -10 31 -20 45 -23 14 -3 41 -9 60 -14
29 -8 38 -6 54 9 20 21 14 41 -13 41 -26 0 -163 93 -188 128 -29 40 -29 74 2
137 14 28 25 53 25 58 0 12 -34 6 -50 -9z"/>
<path d="M13832 9236 c-55 -19 -84 -72 -66 -120 4 -11 19 -16 43 -16 40 0 61
-14 61 -41 0 -39 112 -45 146 -8 9 10 17 36 18 60 1 43 3 40 -87 115 -28 23
-66 26 -115 10z m129 -93 c17 -17 3 -43 -24 -43 -36 0 -90 54 -72 72 8 8 82
-15 96 -29z"/>
<path d="M10132 9181 c-4 -4 -24 -25 -44 -49 -34 -38 -38 -48 -38 -97 0 -43 5
-58 22 -75 26 -24 76 -26 104 -5 10 8 29 15 41 15 37 0 52 11 63 45 24 73 -29
159 -103 167 -20 2 -41 2 -45 -1z m60 -88 c10 -9 18 -27 18 -41 0 -21 -3 -23
-22 -17 -13 3 -32 8 -43 9 -26 3 -31 29 -10 50 21 20 34 20 57 -1z"/>
<path d="M10339 8959 c-1 -2 -3 -13 -4 -24 -2 -11 -6 -28 -10 -38 -7 -16 -3
-17 33 -11 35 5 49 1 100 -30 32 -20 87 -60 120 -90 34 -30 76 -62 94 -70 18
-9 43 -34 56 -56 13 -22 27 -38 33 -35 5 4 50 -33 100 -82 106 -104 129 -118
65 -39 -25 31 -46 61 -46 66 0 5 -12 15 -27 22 -15 7 -33 24 -39 37 -16 32
-97 114 -166 168 -32 24 -58 49 -58 54 0 11 -40 48 -52 49 -5 0 -29 15 -55 34
-30 21 -66 37 -95 41 -27 4 -49 6 -49 4z"/>
<path d="M13595 8940 c-22 -11 -44 -20 -50 -20 -6 0 -16 -5 -23 -12 -6 -6 -20
-13 -29 -14 -32 -4 -162 -63 -206 -92 -23 -16 -45 -29 -49 -28 -4 0 -13 -6
-20 -15 -14 -17 -147 -114 -164 -120 -21 -7 -94 -79 -94 -92 0 -8 -11 -20 -25
-27 -13 -7 -28 -23 -31 -34 -4 -12 -13 -28 -20 -37 -26 -29 -34 -75 -17 -98 8
-12 18 -21 22 -21 5 0 25 29 46 65 59 100 243 272 353 329 15 8 43 30 63 49
19 19 52 40 72 46 20 7 37 19 37 26 0 7 15 16 33 20 41 8 106 39 135 64 41 36
26 41 -33 11z"/>
<path d="M14184 8758 c-33 -21 -45 -36 -54 -68 -15 -54 3 -75 68 -84 26 -3 61
-8 77 -11 27 -5 32 -2 53 34 29 53 28 82 -7 121 -37 43 -79 45 -137 8z m96
-44 c0 -15 -22 -44 -35 -44 -21 0 -28 19 -15 35 12 14 50 21 50 9z"/>
<path d="M13982 8605 c-23 -12 -50 -26 -60 -29 -23 -9 -61 -31 -75 -45 -6 -6
-21 -11 -33 -11 -12 0 -35 -11 -51 -24 -15 -13 -53 -38 -84 -55 -57 -32 -419
-376 -419 -398 0 -6 -18 -33 -40 -61 -22 -27 -40 -55 -40 -62 0 -6 -14 -31
-31 -56 -27 -37 -30 -46 -19 -59 7 -9 22 -15 33 -13 23 3 55 52 56 86 1 12 8
25 16 28 8 4 15 11 15 18 1 15 57 76 71 76 6 0 9 7 5 15 -3 9 3 19 17 26 12 7
29 22 36 33 34 49 217 236 231 236 5 0 12 9 15 20 3 11 12 20 18 20 7 0 38 24
70 53 31 29 74 59 95 66 20 8 39 17 42 20 12 14 77 59 95 65 23 8 91 64 84 70
-2 2 -23 -6 -47 -19z"/>
<path d="M22473 8622 c-18 -11 -63 -118 -63 -148 0 -25 -9 -70 -37 -179 -8
-33 -13 -76 -11 -95 3 -31 6 -35 33 -35 40 0 54 31 77 165 10 58 23 128 29
155 27 124 28 125 8 135 -21 12 -21 12 -36 2z"/>
<path d="M9903 8583 c-12 -2 -27 -11 -33 -19 -7 -8 -18 -14 -24 -14 -6 0 -16
-8 -21 -18 -51 -94 -49 -89 -31 -116 12 -19 25 -26 50 -26 21 0 36 -6 40 -15
8 -23 73 -47 106 -40 15 3 38 17 50 30 21 22 24 23 45 9 12 -8 33 -17 46 -19
71 -14 88 -20 134 -48 28 -17 72 -48 99 -69 27 -21 52 -38 56 -38 4 0 25 -17
47 -37 107 -103 137 -128 149 -125 8 2 14 -4 14 -13 0 -8 4 -15 10 -15 5 0 31
-20 57 -45 26 -24 49 -40 51 -35 7 19 -167 207 -211 230 -15 7 -26 19 -23 26
5 13 -92 94 -112 94 -7 0 -12 6 -12 13 -1 18 -135 117 -159 117 -11 0 -23 5
-26 10 -10 16 -101 12 -115 -5 -16 -19 -30 -4 -30 33 0 38 -28 79 -74 112 -25
16 -48 29 -53 29 -4 -1 -18 -4 -30 -6z m90 -103 c41 -68 2 -96 -83 -59 -28 12
-50 23 -50 26 0 15 24 45 46 56 36 19 68 11 87 -23z"/>
<path d="M20510 8534 c-101 -37 -164 -103 -175 -184 -9 -67 0 -102 38 -137 38
-36 105 -56 172 -51 l49 3 2 -45 c6 -89 4 -278 -2 -295 -10 -24 27 -54 60 -48
31 6 65 58 110 168 78 191 91 250 61 262 -28 10 -49 -17 -121 -157 l-24 -45 4
125 c2 69 9 155 15 192 11 67 9 78 -21 144 -22 48 -118 86 -168 68z m109 -81
c30 -18 40 -33 21 -33 -13 0 -50 -87 -50 -119 0 -34 -43 -61 -97 -61 -48 0
-57 6 -76 53 -15 35 -15 40 3 81 35 83 128 119 199 79z"/>
<path d="M20837 8501 c-23 -40 -26 -201 -3 -235 18 -28 56 -39 90 -27 23 9
106 118 106 140 0 13 17 15 24 3 2 -4 7 -36 11 -71 8 -77 18 -107 43 -120 27
-14 42 4 42 51 0 48 -38 229 -52 246 -28 34 -86 1 -128 -73 -31 -53 -56 -82
-66 -73 -2 3 -1 31 4 62 13 79 3 120 -28 124 -19 2 -30 -5 -43 -27z"/>
<path d="M19703 8479 c-58 -64 -49 -128 22 -171 25 -15 58 -31 73 -34 71 -17
60 -39 -26 -50 -29 -3 -64 -15 -78 -26 -24 -19 -24 -21 -8 -40 16 -17 28 -18
93 -14 72 5 76 7 118 48 43 42 53 74 31 96 -7 7 -21 12 -33 12 -11 0 -32 8
-45 17 -14 10 -38 25 -54 33 -66 34 -56 65 30 97 60 23 66 39 17 52 -71 20
-110 14 -140 -20z"/>
<path d="M21297 8469 c-48 -41 -59 -66 -71 -159 -6 -39 -2 -52 23 -91 44 -70
89 -100 157 -104 31 -2 63 -1 71 2 19 7 56 81 49 99 -5 13 -33 10 -46 -5 -31
-35 -83 -31 -127 11 l-22 21 70 35 c105 53 133 111 83 172 -61 72 -121 78
-187 19z m127 -54 c9 -13 16 -28 16 -33 0 -9 -93 -52 -111 -52 -13 0 -11 45 2
74 10 22 25 30 65 35 7 0 19 -10 28 -24z"/>
<path d="M19453 8374 c-9 -14 -17 -34 -18 -45 -2 -26 -47 -119 -58 -119 -14 0
-68 61 -62 71 3 4 1 16 -4 26 -5 10 -12 30 -15 44 -7 31 -35 42 -59 24 -26
-19 -20 -68 19 -160 31 -74 127 -119 175 -82 22 17 51 76 45 92 -8 22 21 40
39 25 8 -7 15 -18 15 -26 0 -22 30 -44 60 -44 35 0 44 21 25 57 -8 16 -26 53
-40 83 -14 30 -33 61 -42 68 -27 20 -61 14 -80 -14z"/>
<path d="M21625 8372 c-6 -4 -17 -27 -24 -52 -7 -25 -17 -55 -22 -68 -10 -26
-12 -86 -3 -118 7 -26 43 -44 89 -44 43 0 100 47 108 90 9 43 27 37 27 -9 0
-87 41 -134 82 -93 16 15 18 24 10 39 -6 10 -8 50 -5 88 6 89 -3 151 -23 159
-29 11 -60 -5 -79 -42 -36 -68 -151 -189 -132 -138 3 8 11 52 17 97 9 66 9 84
-2 90 -16 11 -30 11 -43 1z"/>
<path d="M18944 8348 c-58 -19 -91 -108 -70 -189 14 -51 48 -91 109 -123 33
-17 38 -17 91 -2 81 24 108 51 111 112 5 86 -42 161 -122 195 -49 21 -72 22
-119 7z m125 -85 c31 -27 52 -84 38 -103 -32 -41 -97 -75 -97 -51 0 5 -13 23
-30 39 -16 17 -30 37 -30 46 0 20 22 69 35 78 18 14 62 8 84 -9z"/>
<path d="M22069 8324 c-32 -22 -73 -88 -93 -147 -3 -9 -16 -21 -29 -26 -36
-14 -41 -38 -12 -57 16 -10 25 -26 25 -41 0 -33 59 -89 108 -102 50 -14 107 1
143 35 52 50 28 75 -48 49 -51 -17 -72 -14 -99 16 -22 25 -19 27 79 65 37 14
74 35 82 47 32 46 7 139 -45 171 -39 23 -69 20 -111 -10z m91 -87 c14 -26 14
-29 -3 -42 -18 -13 -86 -30 -93 -22 -8 7 19 72 35 84 23 18 43 12 61 -20z"/>
<path d="M18421 8280 c-19 -16 -49 -34 -66 -40 -49 -16 -54 -43 -24 -131 14
-42 25 -86 25 -99 -1 -16 8 -29 27 -39 26 -15 29 -15 42 3 11 15 13 39 8 107
-5 73 -3 92 11 114 9 14 24 25 34 25 22 0 52 -34 52 -59 0 -10 9 -26 20 -36
23 -21 68 -14 76 13 11 34 28 62 37 62 13 0 49 -48 70 -94 10 -23 26 -49 35
-59 9 -11 16 -21 15 -23 -5 -7 9 -34 17 -34 5 0 16 7 25 16 21 21 11 74 -26
134 -16 25 -36 59 -44 76 -19 42 -71 84 -103 84 -15 0 -39 -12 -55 -27 -20
-19 -31 -24 -34 -15 -3 6 -14 12 -24 12 -11 0 -18 4 -14 9 7 12 -26 31 -52 31
-10 -1 -34 -14 -52 -30z"/>
<path d="M18144 8236 c-36 -20 -55 -38 -51 -50 2 -6 -4 -22 -14 -35 -11 -13
-19 -34 -19 -47 0 -12 -4 -26 -10 -29 -25 -15 10 -159 47 -197 l21 -20 21 21
c14 14 20 29 16 44 -3 12 -7 39 -9 59 -3 21 -7 42 -10 47 -4 5 -2 12 4 16 5 3
10 24 10 45 0 26 8 48 25 68 13 16 22 32 19 35 -4 3 6 9 20 13 18 4 26 12 24
23 -4 20 -64 25 -94 7z"/>
<path d="M17785 8097 c-70 -39 -96 -166 -45 -212 13 -12 20 -31 20 -57 0 -33
4 -40 27 -49 15 -6 43 -8 61 -4 38 7 108 66 118 98 3 12 13 30 21 39 21 23 12
121 -13 149 -48 53 -131 69 -189 36z m117 -77 c26 -27 30 -36 25 -67 -4 -20
-10 -39 -15 -42 -5 -3 -14 -15 -20 -27 -13 -24 -89 -57 -98 -42 -3 5 3 16 15
24 27 19 26 32 -1 61 -19 20 -20 27 -10 61 10 34 37 59 65 61 5 1 22 -13 39
-29z"/>
<path d="M10320 8000 c-18 -18 -20 -29 -14 -88 3 -37 10 -91 15 -121 5 -30 9
-72 9 -93 0 -21 9 -57 21 -79 17 -34 24 -40 47 -37 26 3 27 4 23 63 -1 33 -9
78 -16 100 -8 22 -16 82 -20 133 -3 60 -11 102 -21 118 -20 29 -19 29 -44 4z"/>
<path d="M17413 8002 c-6 -4 -17 -20 -23 -36 -9 -23 -15 -28 -38 -24 -22 3
-31 -1 -39 -19 -6 -13 -7 -25 -2 -29 5 -3 16 -29 25 -59 8 -30 19 -57 23 -59
4 -3 8 -19 9 -35 1 -48 19 -71 54 -71 30 0 30 0 24 41 -20 124 -16 207 10 216
27 9 126 -124 117 -157 -4 -14 4 -25 28 -39 42 -26 51 -23 55 17 3 22 -2 38
-15 51 -11 11 -17 21 -15 24 11 11 -32 82 -80 131 -45 46 -60 56 -88 56 -18 0
-38 -4 -45 -8z"/>
<path d="M9744 7944 c-4 -16 -2 -29 5 -33 13 -9 71 -157 71 -183 0 -21 -3 -21
-54 -7 -35 10 -42 9 -53 -7 -7 -10 -13 -24 -13 -31 0 -19 54 -43 95 -43 l37 0
-5 -64 c-7 -87 2 -124 35 -144 44 -27 58 -6 52 83 -6 85 5 115 41 115 37 0 96
32 93 50 -2 11 -20 17 -64 21 -33 3 -65 9 -71 12 -6 4 -13 24 -16 44 -9 56
-54 163 -79 190 -30 32 -66 30 -74 -3z"/>
<path d="M17015 7940 c-47 -6 -63 -13 -81 -35 -28 -36 -45 -93 -51 -176 -4
-61 -2 -70 16 -81 12 -7 21 -17 21 -23 0 -23 72 -67 108 -67 20 0 42 -4 47 -8
31 -25 157 -2 243 45 47 25 52 32 52 62 0 28 -4 33 -24 33 -13 0 -34 -8 -47
-18 -37 -29 -87 -42 -176 -49 -73 -5 -83 -4 -83 11 0 9 7 16 15 16 60 0 165
115 165 181 0 109 -39 130 -205 109z m127 -100 c-4 -34 -46 -75 -104 -100 -65
-28 -78 -23 -69 27 13 66 26 81 83 91 78 15 94 12 90 -18z"/>
<path d="M12947 7868 c3 -24 9 -47 14 -52 5 -6 9 -20 9 -32 0 -53 -104 -35
-162 28 -46 50 -74 49 -71 -2 2 -19 8 -61 14 -92 14 -68 9 -77 -56 -109 -78
-39 -165 -13 -200 59 -9 17 -22 32 -29 32 -16 0 -48 -67 -42 -89 6 -19 -9 -41
-46 -65 -27 -17 -29 -17 -60 1 -61 35 -81 109 -53 191 9 24 13 48 10 53 -23
36 -98 -39 -110 -109 -13 -81 -95 -121 -182 -90 -36 13 -36 13 -53 110 -10 54
-16 67 -33 72 -16 4 -26 -1 -37 -16 -41 -60 -119 -108 -176 -108 -40 1 -60 18
-83 73 -15 34 -27 48 -47 53 -23 6 -32 1 -60 -33 -52 -62 -139 -67 -201 -10
-21 19 -21 22 -7 55 18 43 12 62 -18 62 -28 0 -78 -59 -78 -92 0 -13 7 -32 15
-42 8 -11 15 -16 15 -12 0 5 9 -3 21 -17 25 -33 100 -67 147 -67 43 0 122 36
122 56 0 8 5 14 10 14 6 0 10 -8 10 -18 0 -10 12 -30 28 -44 68 -64 166 -78
221 -32 17 14 31 32 31 40 0 31 48 -1 51 -33 1 -12 41 -53 52 -53 6 0 18 -6
26 -13 22 -19 110 -36 146 -30 17 3 47 21 67 41 l37 35 21 -37 c16 -26 29 -36
46 -36 14 0 27 -7 31 -17 10 -27 23 -33 79 -33 57 0 104 27 104 60 0 23 17 35
33 22 18 -13 54 -22 124 -28 51 -5 70 -2 107 16 53 25 92 67 101 110 8 38 16
42 84 44 71 1 131 35 131 72 0 29 -27 86 -46 97 -8 4 -14 17 -14 27 0 11 -4
20 -9 20 -5 0 -16 3 -24 6 -13 4 -14 -2 -10 -38z"/>
<path d="M22295 7886 c-32 -32 -32 -40 6 -76 51 -49 89 -36 89 31 0 38 -10 52
-47 63 -17 5 -29 1 -48 -18z"/>
<path d="M6760 7852 l-24 -20 18 -68 c20 -79 35 -166 30 -175 -2 -4 -25 -12
-51 -19 -56 -13 -73 -26 -73 -50 0 -22 69 -53 87 -38 7 5 22 8 35 6 22 -3 23
-8 26 -83 3 -111 7 -122 42 -130 55 -12 62 4 58 129 l-3 111 40 9 c22 4 60 17
84 28 43 20 44 20 55 2 6 -11 11 -30 12 -44 11 -181 21 -210 72 -210 l34 0 -7
53 c-11 75 -8 161 4 165 6 2 11 10 11 18 0 27 28 14 44 -21 9 -19 21 -37 26
-40 7 -4 7 -13 0 -25 -8 -15 -3 -26 22 -54 37 -43 56 -45 88 -11 29 31 56 32
64 2 3 -13 27 -36 60 -55 43 -27 62 -32 92 -29 51 6 98 34 119 70 26 44 8 50
-65 22 -35 -14 -67 -25 -72 -25 -16 0 -78 63 -78 79 0 10 15 24 35 34 104 50
71 177 -47 177 -51 0 -79 -13 -104 -47 -33 -45 -39 -88 -16 -111 14 -14 17
-24 10 -36 -11 -20 -38 -21 -38 -2 0 31 -59 144 -89 169 -40 33 -46 33 -86 2
l-33 -24 -10 27 c-5 15 -14 45 -20 67 -6 22 -15 59 -21 82 -19 69 -59 94 -82
52 -8 -15 -8 -28 -1 -43 18 -38 31 -80 37 -123 4 -24 11 -45 16 -49 5 -3 9
-15 9 -26 0 -19 -1 -20 -17 -5 -12 10 -45 17 -91 20 -41 3 -76 8 -79 10 -3 3
-16 50 -29 104 -17 66 -32 106 -47 121 -23 23 -24 23 -47 4z m770 -268 c0 -3
-14 -23 -32 -44 -22 -29 -35 -37 -43 -30 -18 15 -6 60 19 70 24 10 56 13 56 4z"/>
<path d="M6264 7795 c-15 -23 -15 -27 3 -62 11 -21 23 -64 27 -95 4 -32 11
-60 15 -63 5 -2 11 -48 15 -102 7 -96 25 -160 49 -175 21 -14 56 -8 66 10 6
12 5 33 -4 63 -7 24 -18 73 -24 109 -41 238 -53 284 -88 322 -22 25 -40 23
-59 -7z"/>
<path d="M9546 7756 c-15 -14 -26 -34 -26 -44 0 -34 27 -86 69 -134 23 -25 41
-48 41 -51 0 -11 -53 -17 -65 -7 -15 12 -65 -6 -65 -24 0 -15 -66 -37 -120
-39 -40 -2 -45 1 -54 25 -9 26 -5 33 57 94 52 52 67 74 67 96 0 59 -110 89
-160 43 -17 -16 -35 -65 -54 -147 -4 -16 -17 -32 -34 -40 -25 -13 -28 -12 -48
18 -12 18 -25 45 -28 61 -4 19 -17 33 -37 42 -39 17 -57 2 -66 -55 -7 -43 -47
-111 -57 -96 -3 6 -9 52 -12 104 -5 75 -10 97 -27 116 -26 28 -29 28 -45 -8
-13 -28 -10 -169 4 -191 3 -5 -8 -37 -24 -72 -17 -34 -34 -71 -38 -82 -6 -13
-10 10 -14 71 -5 97 -17 124 -54 124 -14 0 -30 -15 -50 -45 -30 -48 -52 -65
-85 -65 -25 0 -25 1 -8 43 15 35 89 107 111 107 23 0 27 30 8 55 -9 14 -22 25
-27 25 -6 0 -39 -19 -74 -42 -74 -48 -108 -105 -97 -163 9 -44 -12 -55 -113
-62 -92 -6 -134 7 -129 40 2 15 11 23 27 25 53 8 151 92 151 129 0 53 -120 81
-210 49 -36 -13 -47 -34 -49 -93 -1 -17 -8 -38 -16 -47 -16 -16 -20 -36 -7
-36 9 0 21 -21 44 -78 11 -28 22 -35 67 -49 65 -18 162 -14 209 11 24 12 45
15 80 10 39 -5 55 -2 85 16 50 30 69 22 62 -27 -4 -21 -2 -67 3 -103 5 -36 6
-69 2 -75 -5 -5 -10 -23 -12 -40 -3 -28 0 -30 30 -33 55 -5 76 17 106 115 15
48 32 95 37 103 5 8 15 27 21 41 8 19 18 26 41 26 24 0 40 10 69 43 21 23 38
49 38 56 0 19 5 18 36 -11 31 -28 62 -32 78 -9 9 12 17 13 39 5 15 -6 27 -14
27 -19 0 -20 48 -63 80 -72 69 -20 118 -11 164 29 11 10 37 16 71 17 59 0 168
48 172 74 3 13 -61 85 -116 132 -23 20 -18 63 7 53 23 -9 52 4 52 24 0 26 -29
48 -72 56 -31 6 -41 3 -62 -19z m-182 -111 c-4 -9 -15 -20 -25 -26 -25 -13
-27 16 -1 30 24 15 32 13 26 -4z m-1005 -44 c24 -6 24 -7 -11 -33 -51 -39 -86
-31 -69 16 11 27 30 31 80 17z"/>
<path d="M10093 7725 c-29 -29 -34 -40 -28 -63 8 -35 28 -57 87 -96 65 -44 53
-61 -43 -62 -63 0 -74 -3 -87 -22 -13 -21 -13 -24 4 -37 27 -20 84 -27 124
-15 19 5 46 10 60 10 14 0 40 13 59 28 33 28 33 29 18 59 -9 16 -45 49 -81 73
-86 55 -86 80 -2 93 51 8 59 18 40 45 -12 18 -25 22 -66 22 -44 0 -54 -4 -85
-35z"/>
<path d="M6074 7736 c-7 -19 12 -81 32 -96 7 -7 14 -24 14 -39 0 -15 4 -31 8
-36 13 -16 49 -154 61 -234 13 -83 19 -95 62 -110 27 -9 31 -8 39 15 10 25 -2
96 -42 239 -43 156 -63 210 -87 237 -32 34 -78 47 -87 24z"/>
<path d="M8063 7736 c-43 -16 -113 -82 -113 -107 0 -12 7 -46 16 -76 9 -30 14
-57 11 -60 -7 -6 19 -81 33 -98 14 -16 58 -7 64 14 3 9 0 34 -6 56 -19 70 -17
140 6 182 18 32 29 39 69 47 26 5 47 13 47 16 0 28 -79 44 -127 26z"/>
<path d="M19021 7571 c-12 -12 -24 -21 -29 -21 -16 0 -58 -92 -109 -240 -14
-41 -34 -91 -44 -111 -18 -36 -49 -141 -74 -249 -11 -46 -43 -150 -49 -157 -1
-1 -35 7 -76 18 -75 20 -124 18 -133 -4 -6 -17 6 -86 38 -202 15 -55 32 -122
39 -150 7 -27 23 -72 35 -100 13 -27 29 -66 36 -85 9 -26 18 -36 38 -38 23 -3
30 4 55 55 41 83 89 162 128 210 19 23 34 45 34 51 0 5 14 21 30 35 17 15 30
32 30 37 0 6 11 15 25 20 15 6 25 17 25 29 0 23 -52 81 -74 81 -8 0 -20 9 -26
20 -14 26 -45 25 -71 -1 l-21 -21 -17 28 c-10 16 -14 31 -9 32 4 2 8 13 8 25
0 30 21 86 43 117 9 13 17 41 17 62 0 20 5 40 11 43 6 4 8 13 6 19 -5 13 28
122 42 141 5 6 14 33 20 60 15 58 29 93 49 117 8 9 11 21 8 27 -4 5 3 25 14
43 11 18 20 39 20 47 0 8 8 23 17 33 15 17 15 20 1 34 -14 15 -18 14 -37 -5z"/>
<path d="M10420 7513 c-27 -10 -50 -36 -50 -55 0 -33 41 -78 71 -78 34 0 40 8
42 59 1 27 -5 47 -17 60 -20 22 -22 23 -46 14z"/>
<path d="M11793 7461 c-13 -11 -23 -30 -23 -46 0 -14 -9 -45 -20 -68 -13 -26
-22 -70 -25 -114 -2 -39 -11 -86 -19 -105 -9 -18 -23 -59 -31 -90 -17 -61 -50
-111 -69 -105 -6 2 -33 -4 -61 -15 -27 -10 -81 -23 -119 -28 -58 -9 -71 -8
-78 4 -5 8 -34 20 -66 26 -118 23 -139 29 -207 57 -78 33 -142 47 -150 32 -4
-5 -18 -6 -31 -3 -20 5 -29 1 -42 -17 -38 -55 -108 -120 -151 -141 -25 -13
-48 -25 -51 -28 -10 -10 -93 -50 -97 -47 -6 7 -33 231 -33 278 l0 47 65 7 c35
4 75 5 88 1 13 -3 32 0 42 8 13 9 29 11 56 5 28 -7 51 -5 84 6 25 9 83 20 129
25 47 6 120 17 163 26 43 9 94 19 113 23 19 4 57 3 83 -1 30 -4 57 -3 73 4 19
9 28 8 42 -5 11 -10 36 -17 58 -17 21 0 59 -5 83 -11 43 -9 60 -3 61 23 0 14
-82 88 -103 92 -12 2 -47 9 -77 15 -56 11 -173 5 -360 -19 -91 -11 -228 -37
-242 -46 -4 -3 -27 -5 -51 -6 -23 0 -85 -6 -137 -13 -52 -7 -99 -11 -103 -8
-16 10 -114 -23 -148 -49 -30 -24 -35 -33 -31 -59 2 -17 12 -35 22 -41 14 -9
16 -21 13 -58 -2 -26 1 -67 8 -91 7 -26 13 -112 13 -206 1 -141 4 -165 19
-180 14 -15 21 -16 37 -5 16 10 27 9 60 -4 l41 -16 125 128 c69 71 134 146
146 166 12 21 29 40 37 42 30 9 235 -41 341 -83 8 -3 -18 -7 -58 -9 -77 -3
-123 -23 -166 -71 -13 -14 -26 -19 -38 -15 -10 3 -51 0 -91 -7 -81 -14 -185
-65 -230 -114 -29 -32 -57 -80 -57 -100 0 -26 -94 -46 -208 -44 -99 1 -115 -1
-153 -22 -30 -17 -47 -36 -60 -66 -16 -38 -22 -43 -52 -43 -18 0 -49 -8 -68
-18 -35 -18 -36 -18 -45 2 -13 31 -52 33 -63 4 -11 -29 -4 -46 21 -53 15 -5
18 -13 14 -33 -21 -109 -20 -118 19 -157 31 -32 41 -36 67 -31 25 5 29 3 24
-10 -3 -8 1 -28 8 -43 11 -21 26 -30 66 -39 93 -22 128 -16 191 28 32 22 68
40 81 40 27 0 125 44 151 67 19 18 36 10 19 -9 -11 -14 -13 -46 -5 -121 4 -41
9 -50 32 -60 14 -6 33 -16 41 -23 16 -13 46 -18 92 -16 29 2 106 62 126 98 17
32 29 30 37 -3 10 -47 40 -74 124 -113 90 -41 162 -17 202 69 13 27 27 50 31
51 4 0 18 -11 31 -24 13 -13 48 -31 78 -39 38 -11 66 -28 94 -57 54 -55 148
-100 209 -100 59 0 80 11 132 65 l41 44 48 -25 c29 -14 57 -22 68 -18 11 3 23
1 27 -6 15 -24 99 -2 138 36 36 35 68 48 39 16 -10 -10 -17 -22 -17 -26 0 -31
158 -106 223 -106 14 0 42 9 62 21 37 22 105 114 105 143 0 23 23 20 49 -7 17
-19 33 -24 78 -26 31 -1 70 3 87 9 34 12 101 93 112 134 7 31 5 31 47 6 75
-44 180 -33 229 23 26 31 27 31 64 18 21 -8 72 -14 114 -14 72 -1 80 2 130 35
53 36 54 36 87 20 21 -10 32 -21 28 -30 -3 -7 -5 -20 -5 -27 0 -8 -13 -29 -29
-47 -43 -50 -48 -75 -19 -106 14 -15 31 -42 38 -59 8 -21 19 -33 31 -33 25 0
34 -19 18 -36 -9 -8 -45 -15 -96 -18 -45 -2 -86 -7 -91 -10 -6 -3 -13 -21 -17
-39 -4 -17 -18 -51 -31 -74 -13 -23 -24 -49 -24 -57 0 -21 -4 -20 -48 7 -20
13 -48 27 -62 30 -14 4 -35 24 -49 47 -14 22 -47 63 -73 91 -46 47 -51 50 -70
37 -14 -9 -28 -38 -39 -78 -10 -35 -30 -75 -44 -90 -14 -14 -25 -33 -25 -41 0
-27 -26 -54 -41 -43 -8 6 -30 17 -49 24 -66 25 -155 71 -204 106 -26 19 -54
34 -61 34 -7 0 -31 -24 -54 -54 -37 -48 -179 -176 -196 -176 -3 0 -18 11 -32
24 -14 13 -43 32 -64 42 -22 9 -39 21 -39 25 0 5 -15 16 -32 25 -18 9 -56 32
-85 51 -68 47 -107 46 -253 -2 -109 -36 -149 -45 -263 -61 -47 -7 -49 -6 -93
37 -25 24 -71 82 -101 128 -55 81 -57 83 -89 78 -31 -5 -81 -27 -189 -84 -22
-12 -51 -26 -65 -32 -14 -6 -32 -15 -40 -20 -38 -24 -83 -39 -98 -34 -21 8
-170 105 -238 155 -59 44 -77 47 -99 16 -13 -20 -17 -21 -25 -8 -28 44 -29 45
-42 32 -21 -21 -25 -123 -23 -564 1 -381 3 -419 19 -437 11 -12 25 -17 38 -13
14 3 19 1 14 -6 -4 -6 3 -25 15 -42 22 -29 23 -29 98 -24 42 3 95 9 118 15 23
5 75 12 115 15 40 3 78 10 84 15 7 6 28 6 55 0 26 -6 61 -6 88 -1 128 25 283
41 431 45 91 2 180 8 199 14 21 6 152 10 345 10 182 0 352 4 411 11 55 7 138
14 185 16 47 1 132 8 190 15 117 13 205 14 555 4 434 -13 716 -12 895 2 246
19 461 41 571 59 52 8 130 19 174 24 44 4 100 13 125 20 97 25 117 29 163 39
26 6 75 21 110 35 34 13 80 26 102 30 107 14 178 27 186 32 14 8 10 44 -12
114 -27 86 -36 146 -44 282 -7 147 -16 619 -13 728 3 91 -2 300 -7 365 -7 76
-34 320 -46 405 -6 47 -14 123 -18 170 -4 47 -14 99 -23 115 -11 22 -13 36 -7
48 9 14 5 17 -23 18 -18 1 -51 1 -73 0 -22 -1 -76 8 -120 20 -68 18 -93 20
-170 14 -97 -8 -129 -8 -233 -5 -37 1 -94 -2 -127 -7 -76 -12 -485 -8 -630 6
-163 15 -823 29 -865 18 -18 -5 -54 -6 -80 -3 -37 5 -199 -4 -320 -18 -31 -3
-146 -23 -220 -38 -30 -6 -89 -14 -130 -18 -124 -11 -229 -40 -247 -67 -14
-21 -14 -25 11 -57 27 -36 37 -108 16 -121 -5 -3 -10 -28 -10 -55 0 -27 5 -52
10 -55 6 -3 10 -17 10 -30 0 -33 33 -48 95 -46 131 5 184 9 232 16 80 11 82
10 67 -77 -12 -68 -11 -75 8 -106 13 -22 26 -31 36 -27 8 3 23 -2 33 -11 24
-22 108 -30 214 -21 175 15 160 17 157 -24 -3 -29 1 -40 20 -53 21 -15 22 -18
8 -43 -22 -38 -46 -51 -67 -35 -10 6 -28 16 -39 21 -12 5 -24 17 -27 25 -4 9
-16 16 -28 16 -12 0 -27 7 -33 16 -9 11 -36 17 -96 21 -84 6 -111 16 -157 56
-18 16 -32 19 -69 14 -45 -5 -49 -3 -88 37 -50 52 -128 96 -170 96 -17 0 -55
-11 -84 -25 -30 -14 -57 -25 -61 -25 -20 0 -149 348 -137 369 3 5 -1 14 -8 20
-10 8 -13 23 -9 46 3 19 2 42 -2 52 -5 10 -7 42 -6 72 2 35 -1 56 -10 61 -10
7 -9 14 4 34 35 52 12 63 -32 15 -26 -29 -28 -36 -30 -129 -1 -54 3 -101 8
-105 6 -3 9 -27 9 -53 -1 -46 15 -133 33 -180 5 -13 9 -34 9 -47 0 -13 7 -30
15 -39 8 -8 15 -23 15 -34 0 -11 19 -47 41 -81 23 -34 39 -64 37 -66 -2 -2
-29 -7 -59 -11 -73 -8 -121 17 -130 67 -3 19 -9 40 -13 47 -4 7 -11 33 -16 60
-5 26 -18 99 -30 162 -24 127 -28 157 -29 213 -1 31 -6 39 -27 48 -15 5 -29 7
-32 4 -12 -11 -7 -189 5 -212 7 -13 10 -30 7 -38 -6 -16 24 -106 39 -116 6 -4
7 -17 4 -29 -3 -12 -2 -30 2 -39 5 -9 16 -41 26 -71 10 -30 20 -61 22 -67 3
-8 -4 -13 -19 -13 -14 0 -36 -11 -50 -24 -50 -46 -92 -44 -121 6 -15 27 -21
30 -49 24 -17 -3 -40 -14 -50 -23 -16 -14 -18 -15 -18 0 0 9 5 28 11 44 7 15
11 38 10 51 0 12 3 22 8 22 5 0 15 17 22 38 6 20 16 42 21 48 5 7 8 16 7 20
-1 5 1 16 4 24 25 57 37 105 27 108 -5 2 -1 11 9 20 13 11 22 33 24 62 2 25 7
52 10 60 11 28 27 121 27 154 0 21 -6 36 -15 40 -14 5 -19 -7 -17 -43 0 -8 -7
-20 -15 -26 -12 -9 -13 -16 -4 -33 7 -13 7 -23 2 -27 -16 -9 -47 -81 -102
-230 -28 -77 -55 -146 -61 -152 -6 -7 -8 -13 -5 -13 4 0 -9 -37 -28 -82 -31
-72 -33 -84 -20 -94 22 -16 19 -24 -10 -24 -15 0 -25 6 -25 14 0 8 -18 29 -40
46 -46 37 -48 42 -18 55 25 11 91 101 114 155 8 19 14 45 12 57 -2 12 5 28 14
35 13 9 20 39 28 108 6 52 16 109 21 125 19 53 44 285 31 285 -4 -1 -17 -9
-29 -19z m2252 -226 c55 -3 166 -8 247 -10 80 -3 158 -9 173 -15 35 -13 136
-12 260 2 89 11 222 18 328 17 46 0 161 1 287 3 52 1 125 -2 162 -6 l66 -7 12
-67 c7 -37 16 -119 20 -182 12 -155 36 -366 45 -380 4 -7 9 -163 11 -348 10
-888 14 -980 40 -1030 8 -15 14 -39 14 -54 0 -29 -5 -31 -130 -58 -30 -6 -73
-16 -95 -21 -22 -6 -62 -14 -90 -19 -27 -5 -68 -16 -90 -24 -22 -8 -57 -15
-79 -16 -64 0 -571 -66 -587 -75 -7 -5 -348 -36 -379 -35 -8 0 -73 0 -145 0
-259 -2 -463 -3 -620 -2 -88 1 -169 1 -180 0 -11 0 -49 4 -85 10 -36 5 -85 8
-110 6 -69 -6 -158 -11 -360 -23 -102 -5 -201 -13 -220 -17 -19 -3 -197 -8
-395 -9 -278 -2 -372 -6 -413 -18 -30 -8 -103 -15 -170 -16 -151 -2 -372 -28
-406 -49 -5 -3 -39 -4 -75 -3 -76 2 -267 -15 -284 -26 -6 -4 -39 -9 -74 -11
l-62 -4 5 49 c3 26 1 55 -5 63 -8 12 -13 12 -30 -5 -12 -10 -23 -16 -25 -14
-7 7 -9 116 -7 332 1 108 0 201 -4 206 -3 5 -2 61 1 123 l7 114 36 0 c20 -1
47 -9 61 -18 13 -10 30 -18 37 -18 7 0 13 -3 13 -8 0 -4 21 -18 48 -32 26 -13
60 -34 75 -47 16 -13 34 -23 42 -23 7 0 19 -9 26 -21 14 -20 15 -20 84 17 39
20 75 40 80 44 22 17 142 78 177 89 l37 12 68 -70 c60 -61 111 -118 165 -181
13 -17 21 -18 43 -10 23 9 156 42 225 56 14 3 51 18 82 35 31 16 73 29 92 29
52 0 151 -34 193 -67 21 -16 57 -38 79 -49 49 -24 104 -68 104 -83 0 -19 40
-12 64 12 12 12 43 39 68 59 25 21 65 56 89 78 27 25 53 40 69 40 34 0 103
-25 108 -39 2 -6 11 -11 21 -11 9 0 22 -5 29 -12 7 -7 43 -23 80 -35 l67 -23
20 25 c12 14 25 25 31 25 18 0 50 43 68 90 20 52 43 90 54 90 5 0 41 -41 81
-91 87 -107 111 -125 141 -109 18 9 32 3 103 -44 46 -31 92 -65 102 -76 46
-51 66 -1 37 92 -11 35 -22 72 -25 83 -3 11 -12 44 -20 72 -10 36 -12 55 -5
59 13 8 154 34 185 34 18 0 25 -9 33 -40 6 -22 22 -52 35 -66 13 -14 27 -35
30 -45 4 -11 13 -19 20 -19 8 0 19 -9 25 -20 6 -11 18 -20 27 -20 24 0 53 30
53 54 0 12 18 58 40 104 22 46 40 88 40 94 0 6 14 39 31 74 33 67 31 86 -11
97 -29 7 -55 -17 -75 -70 -27 -76 -86 -193 -97 -193 -14 0 -38 65 -38 103 0
23 -12 49 -37 84 -38 51 -74 109 -80 128 -1 6 -9 33 -16 60 l-14 50 63 10 c52
9 69 17 93 43 57 65 43 158 -36 235 -21 20 -54 53 -73 73 -61 63 -158 96 -209
70 -47 -25 -58 -20 -63 22 -7 56 -4 59 61 54 50 -4 61 -1 86 20 l29 25 -25 16
c-13 9 -46 21 -72 27 -70 15 -124 46 -141 79 l-15 28 47 -4 c42 -4 53 0 100
34 95 70 89 163 -16 221 l-42 23 -72 -17 c-90 -22 -153 -57 -169 -93 -11 -25
-22 -31 -73 -40 -138 -26 -249 -42 -261 -38 -9 4 -12 31 -10 101 2 67 -1 105
-11 124 l-14 28 -186 2 c-102 0 -188 2 -190 4 -2 2 2 34 8 71 12 76 9 74 125
81 45 3 121 15 170 26 48 12 98 18 110 15 12 -3 25 0 28 6 4 6 13 8 19 6 7 -3
32 -1 57 4 24 4 125 11 224 15 99 3 181 8 183 9 5 4 501 -4 617 -10z m-508
-418 c13 -13 11 -18 -20 -41 -41 -31 -125 -37 -151 -10 -23 22 -21 27 27 51
48 25 119 25 144 0z m-2099 -94 c2 -9 -8 -13 -33 -13 -33 0 -36 2 -25 15 15
18 51 16 58 -2z m1155 -41 c21 -10 49 -34 62 -54 22 -33 24 -42 16 -85 -10
-53 -4 -63 42 -63 20 0 27 5 27 19 0 23 16 36 53 45 32 8 107 -28 107 -51 0
-7 6 -13 14 -13 8 0 16 -10 20 -23 3 -12 19 -33 37 -46 29 -21 32 -22 47 -7
14 13 14 20 4 36 -18 29 -15 40 12 40 39 0 76 -18 115 -55 27 -27 36 -44 37
-72 0 -21 7 -39 14 -41 25 -9 80 -77 80 -99 0 -27 -12 -35 -62 -39 -29 -2 -49
4 -75 22 -42 28 -47 29 -68 8 -14 -15 -13 -18 19 -43 22 -16 33 -32 30 -42 -2
-9 2 -22 11 -29 16 -13 20 -67 7 -86 -10 -16 -48 -34 -70 -34 -10 0 -41 11
-67 25 -42 23 -50 24 -64 11 -9 -7 -25 -16 -36 -18 -11 -2 -20 -9 -20 -17 0
-22 -88 -110 -123 -122 -42 -15 -81 1 -104 41 -9 17 -24 30 -33 30 -18 0 -37
-43 -29 -65 4 -8 1 -15 -6 -15 -7 0 -37 -25 -66 -55 -71 -74 -91 -77 -179 -32
-38 19 -78 38 -87 41 -24 7 -23 23 3 36 30 17 22 54 -14 58 -17 2 -29 -2 -33
-11 -3 -9 -23 -28 -45 -43 -34 -23 -51 -28 -105 -28 -57 0 -67 3 -94 29 -16
16 -30 35 -30 43 0 16 -39 51 -58 52 -16 0 -51 -39 -52 -57 0 -6 9 -18 21 -26
30 -22 12 -49 -55 -83 -52 -26 -57 -27 -98 -13 -24 7 -58 28 -77 45 l-34 31
32 23 c38 26 53 58 39 83 -10 20 -23 18 -103 -18 -27 -12 -60 -26 -73 -29 -36
-12 -88 30 -132 105 -29 49 -46 68 -65 71 -33 7 -58 -29 -31 -44 22 -12 20
-46 -4 -101 -38 -86 -112 -112 -170 -59 -31 27 -34 41 -28 122 3 33 1 35 -28
38 -25 2 -33 -1 -39 -20 -7 -22 -7 -22 -14 7 -12 59 -58 37 -96 -46 -18 -39
-86 -89 -121 -89 -13 0 -30 10 -38 22 -18 26 -21 90 -5 120 14 26 3 37 -46 48
-32 7 -46 5 -84 -16 -46 -24 -101 -32 -101 -15 0 5 -17 7 -38 4 -77 -10 -80
62 -3 86 41 14 173 17 241 6 38 -6 49 -3 73 15 40 32 34 42 -25 39 -66 -4
-142 28 -160 65 -9 22 -8 29 8 47 35 39 79 50 178 44 65 -5 98 -2 115 7 40 22
24 33 -47 33 -124 1 -157 50 -77 118 92 79 208 100 279 52 45 -30 81 -41 91
-25 4 6 -1 17 -11 24 -16 12 -16 14 5 35 13 13 20 29 16 40 -6 21 30 41 74 41
34 0 42 -7 31 -29 -22 -41 -30 -85 -18 -93 25 -16 62 -21 66 -9 8 23 55 72 84
87 23 12 39 13 85 4 31 -5 58 -11 59 -13 2 -2 19 -34 39 -72 24 -47 35 -83 35
-111 0 -25 5 -44 13 -47 9 -3 7 -13 -7 -38 -10 -19 -25 -39 -32 -45 -8 -6 -23
-32 -34 -57 -11 -25 -25 -49 -30 -52 -21 -13 -9 -43 21 -55 29 -12 33 -12 50
11 10 13 27 42 39 64 11 22 26 49 33 60 47 76 57 99 57 131 0 29 9 48 45 90
42 48 50 53 99 59 50 7 59 4 122 -31 46 -25 69 -34 72 -26 21 65 131 108 160
63 8 -11 19 -21 24 -21 5 0 19 -9 30 -20 l22 -20 -32 -30 c-18 -16 -32 -35
-32 -43 0 -8 -6 -17 -14 -20 -15 -6 -21 -103 -8 -123 11 -17 47 -33 59 -26 5
4 13 34 17 67 6 51 12 66 44 98 20 20 63 53 96 73 48 28 64 33 80 25 12 -5 32
-13 46 -17 14 -4 30 -14 36 -23 10 -13 14 -13 28 -2 9 7 16 17 16 21 0 4 -36
35 -81 69 -44 35 -78 68 -76 74 3 9 92 65 108 66 3 1 22 -7 42 -17z m807 -321
c42 -6 47 -9 68 -53 19 -41 27 -48 51 -48 25 0 31 5 36 31 9 39 44 54 92 38
48 -16 93 -56 93 -84 0 -13 8 -30 19 -37 22 -16 51 -70 51 -97 0 -25 -65 -61
-109 -61 -40 0 -110 48 -111 76 0 15 -8 24 -27 29 -34 8 -66 -25 -57 -60 4
-18 -2 -26 -36 -44 -49 -26 -150 -30 -170 -6 -7 8 -27 17 -46 21 -47 9 -43 28
9 44 80 24 95 36 102 84 7 43 -3 65 -59 142 -14 17 12 47 33 38 9 -4 36 -10
61 -13z m-2917 -94 c12 -36 3 -46 -54 -58 -52 -12 -84 -39 -110 -93 -26 -55
-24 -67 17 -106 l35 -35 -38 -17 c-65 -28 -136 -17 -148 24 -4 10 -11 18 -17
18 -6 0 -30 10 -54 22 -40 20 -44 25 -44 59 0 25 8 47 24 66 21 24 31 28 97
31 91 4 107 8 91 24 -17 17 -15 53 6 71 22 19 52 25 126 23 56 -1 60 -3 69
-29z"/>
<path d="M15110 7024 c-7 -19 -9 -47 -5 -62 4 -15 9 -42 11 -61 3 -19 7 -37 9
-41 8 -12 -17 -28 -57 -35 -22 -4 -38 -13 -38 -21 0 -7 -8 -18 -17 -24 -17 -9
-16 -11 6 -30 13 -11 34 -20 48 -20 53 0 60 -12 56 -97 -3 -43 -11 -95 -19
-116 -20 -53 -18 -72 11 -85 14 -7 30 -12 34 -12 20 0 44 80 57 184 9 76 19
115 29 122 8 6 48 15 88 18 100 10 135 23 135 52 0 30 -20 36 -133 39 -49 2
-95 4 -101 4 -14 1 -34 68 -34 115 0 23 -5 39 -15 42 -8 4 -12 10 -9 15 8 13
-15 49 -31 49 -7 0 -19 -16 -25 -36z"/>
<path d="M14015 6851 c-16 -9 -50 -30 -75 -47 -25 -17 -67 -43 -93 -58 -58
-33 -107 -97 -107 -140 1 -55 34 -113 79 -135 50 -26 54 -26 96 2 31 20 79 97
99 160 8 26 17 21 59 -34 21 -28 46 -53 55 -57 9 -3 32 -16 51 -29 37 -25 93
-30 108 -10 5 6 10 22 11 35 1 23 -16 35 -69 46 -39 8 -73 39 -119 109 -36 54
-41 67 -36 100 6 36 -6 78 -22 76 -4 -1 -20 -9 -37 -18z m-50 -163 c-3 -13 -9
-34 -12 -48 -9 -38 -71 -110 -95 -110 -28 0 -58 28 -58 53 0 36 113 126 159
127 9 0 11 -7 6 -22z"/>
<path d="M14581 6835 c-78 -29 -103 -52 -119 -110 -19 -72 -15 -109 17 -157
44 -66 139 -112 239 -117 66 -3 132 31 145 74 6 19 2 20 -101 20 -134 0 -192
19 -216 69 -9 19 -16 39 -16 44 0 23 51 69 102 91 29 13 60 27 68 31 9 4 15
22 15 44 1 35 0 36 -35 35 -19 -1 -64 -12 -99 -24z"/>
<path d="M14314 5990 c-21 -8 -54 -65 -54 -94 0 -24 44 -30 73 -11 33 21 42
60 22 91 -8 13 -16 24 -18 23 -1 0 -11 -4 -23 -9z"/>
<path d="M15089 5936 c-62 -22 -93 -51 -133 -127 -48 -90 -52 -150 -17 -221
32 -63 75 -102 139 -127 77 -30 126 -27 215 14 42 19 79 40 82 45 3 6 14 10
25 10 21 0 32 23 23 46 -8 23 -103 13 -162 -16 -34 -17 -57 -21 -93 -18 -69 7
-170 78 -109 78 26 0 123 46 146 69 74 74 87 92 96 129 12 53 -1 86 -43 112
-38 23 -114 26 -169 6z m105 -92 c9 -3 16 -12 16 -20 0 -19 -49 -64 -90 -80
-19 -8 -49 -22 -67 -32 -18 -9 -35 -13 -39 -10 -13 13 8 67 42 107 32 36 40
41 79 41 24 0 50 -3 59 -6z"/>
<path d="M14680 5863 c-14 -2 -57 -20 -97 -40 -96 -47 -128 -92 -118 -166 8
-54 18 -78 50 -115 71 -83 233 -82 323 1 35 34 44 77 15 77 -10 0 -32 -8 -48
-19 -36 -21 -126 -32 -169 -20 -45 13 -89 72 -81 108 7 33 58 72 120 92 56 18
83 44 69 67 -12 19 -26 22 -64 15z"/>
<path d="M14232 5755 c-21 -24 -22 -27 -6 -63 12 -27 16 -67 16 -144 0 -112 4
-122 46 -111 34 9 45 54 39 160 -3 52 -10 100 -16 106 -6 6 -11 18 -11 27 0
15 -29 50 -41 50 -3 0 -15 -11 -27 -25z"/>
<path d="M11196 6491 c-10 -16 -44 -130 -40 -134 2 -2 -5 -12 -16 -22 -11 -10
-20 -22 -20 -27 0 -14 -55 -58 -103 -82 -42 -21 -59 -52 -37 -66 32 -20 116 8
177 60 9 7 11 -3 10 -42 -2 -50 -2 -51 35 -64 31 -10 39 -10 49 2 9 11 9 21
-1 45 -10 24 -10 38 -1 71 16 53 0 75 -30 39 -11 -13 -22 -21 -26 -17 -3 3 1
14 10 24 10 10 17 24 17 30 0 12 3 20 27 67 15 30 6 95 -14 111 -21 16 -30 17
-37 5z"/>
<path d="M12694 6419 c-16 -17 -16 -22 -4 -29 8 -6 17 -10 20 -10 3 0 6 -26 7
-58 1 -31 3 -83 5 -116 2 -42 -2 -61 -12 -70 -24 -17 -50 -63 -50 -86 0 -39
88 -18 109 26 12 28 23 30 54 10 29 -18 114 -28 152 -18 20 6 30 15 30 28 0
14 -7 19 -30 20 -69 3 -165 63 -165 103 0 14 -5 44 -12 66 -6 22 -11 45 -9 52
3 19 -36 90 -54 97 -22 8 -19 9 -41 -15z"/>
<path d="M11800 6180 l-23 -20 26 -28 c15 -16 27 -32 27 -38 0 -5 15 -19 33
-31 24 -17 49 -23 103 -24 63 -3 74 0 106 25 50 38 75 76 57 87 -16 10 -44 3
-77 -18 -13 -8 -45 -17 -72 -20 -60 -7 -95 12 -105 57 -8 36 -40 41 -75 10z"/>
<path d="M12319 6093 c-7 -20 -6 -29 3 -38 24 -21 116 -37 176 -30 51 6 60 10
75 37 10 18 14 35 9 40 -5 5 -41 4 -83 -3 -64 -9 -81 -8 -113 5 -51 21 -55 21
-67 -11z"/>
<path d="M5902 7448 c-7 -7 -12 -22 -12 -35 0 -13 -4 -23 -8 -23 -5 0 -20 -9
-33 -21 -13 -11 -29 -24 -35 -27 -6 -4 -26 -36 -43 -72 -30 -61 -31 -67 -20
-112 13 -57 27 -66 108 -75 69 -7 82 0 108 56 9 20 23 46 31 58 l14 23 38 -30
c41 -32 80 -39 100 -15 19 23 8 47 -36 77 -24 16 -59 56 -85 95 -70 111 -96
132 -127 101z m38 -172 c0 -14 -5 -28 -10 -31 -6 -4 -10 -14 -8 -23 4 -25 -52
-83 -77 -80 -17 3 -20 10 -19 46 1 34 7 50 34 77 41 42 80 47 80 11z"/>
<path d="M1385 7089 c-60 -4 -150 -10 -200 -14 -49 -4 -107 -9 -129 -10 -21
-2 -57 -6 -80 -9 -22 -3 -70 -8 -105 -11 -35 -3 -69 -9 -75 -12 -5 -4 -63 -6
-128 -4 -118 2 -118 2 -130 -24 -6 -14 -17 -25 -25 -25 -16 0 -17 -22 -2 -37
7 -7 9 -28 5 -55 -9 -60 -9 -72 -2 -168 4 -47 9 -132 11 -190 3 -58 7 -134 9
-170 3 -36 8 -110 11 -165 3 -55 8 -129 11 -165 3 -36 5 -85 5 -108 0 -24 4
-85 10 -135 19 -168 27 -578 16 -822 -4 -82 -8 -211 -8 -285 0 -74 -1 -161 -1
-192 -2 -138 -1 -184 4 -372 3 -122 9 -201 16 -205 6 -4 7 -21 3 -47 -10 -54
-4 -174 10 -190 6 -7 7 -28 3 -48 -5 -29 -3 -36 10 -36 20 0 21 -29 1 -57 -14
-20 -13 -23 19 -42 18 -12 57 -26 87 -31 58 -11 470 -17 487 -6 5 3 88 1 183
-5 235 -14 855 -19 954 -8 44 5 134 11 200 14 240 9 331 15 385 24 30 6 147
13 260 16 195 5 451 21 477 30 6 2 49 5 95 6 46 0 103 5 128 10 25 5 90 13
145 19 55 5 116 12 135 15 40 6 210 7 590 1 213 -3 292 0 405 14 77 10 188 23
246 29 157 15 179 31 165 119 -3 20 -8 60 -10 87 -2 28 -9 100 -15 160 -21
208 -33 1071 -18 1270 13 168 17 572 7 655 -6 47 -15 153 -20 235 -10 153 -13
190 -31 330 -12 92 -36 196 -50 209 -5 6 -9 20 -9 32 0 13 -4 26 -10 29 -5 3
-10 18 -10 33 -1 38 -52 187 -76 219 -20 26 -22 27 -153 30 -252 5 -486 13
-601 21 -201 13 -736 8 -754 -7 -8 -7 -19 -11 -23 -8 -4 3 -123 9 -263 13
-275 8 -273 8 -521 4 -91 -2 -172 1 -180 5 -7 5 -122 11 -254 12 -497 7 -692
12 -770 17 -139 10 -326 12 -440 5z m390 -119 c99 0 187 -1 195 -1 8 1 48 -2
88 -5 40 -4 123 -1 183 5 80 9 115 9 124 1 8 -7 88 -12 211 -14 110 -1 253 -7
319 -13 183 -16 1244 -7 1273 11 7 4 148 -8 227 -20 22 -3 213 -7 425 -9 212
-2 400 -4 418 -4 18 -1 34 -7 37 -13 2 -7 15 -53 30 -103 14 -49 33 -112 41
-140 37 -127 57 -238 61 -340 2 -60 6 -117 9 -125 3 -8 7 -77 10 -153 3 -77 9
-149 13 -161 9 -22 5 -491 -4 -591 -4 -33 -8 -152 -10 -265 -2 -113 -5 -243
-6 -290 -1 -76 5 -300 16 -560 4 -98 20 -297 31 -387 7 -61 11 -59 -127 -73
-52 -5 -137 -15 -189 -23 -52 -8 -117 -13 -145 -11 -27 2 -201 5 -385 7 -324
4 -387 2 -590 -22 -52 -5 -138 -15 -190 -21 -52 -6 -140 -13 -195 -15 -55 -3
-120 -8 -145 -11 -25 -3 -139 -8 -255 -10 -115 -2 -246 -9 -290 -14 -44 -6
-152 -13 -240 -16 -88 -3 -194 -12 -235 -20 -97 -19 -328 -32 -405 -23 -33 4
-134 8 -225 9 -91 0 -228 3 -305 6 -77 3 -293 7 -480 9 -187 2 -346 4 -353 5
-9 0 -10 4 -1 19 8 11 9 26 4 37 -5 11 -10 60 -11 109 -1 50 -7 140 -13 200
-17 170 -23 248 -23 275 3 186 13 597 18 710 8 199 8 330 0 495 -10 209 -55
876 -60 883 -4 7 -7 58 -22 407 -3 77 -10 145 -14 150 -5 6 -2 19 6 30 12 17
28 20 94 21 93 2 183 13 190 24 5 7 309 27 560 37 63 2 117 6 119 9 3 2 12 2
20 0 9 -3 97 -5 196 -6z"/>
<path d="M3025 6540 c-21 -23 -22 -12 25 -210 12 -47 23 -107 26 -135 3 -27
10 -59 15 -70 5 -11 11 -40 12 -64 l2 -44 -65 -11 c-79 -14 -113 -36 -145 -98
-19 -36 -25 -63 -25 -112 0 -56 4 -70 33 -112 40 -58 64 -66 176 -60 81 4 85
6 123 43 40 37 68 87 68 118 0 28 -30 29 -58 2 -77 -72 -140 -92 -209 -66 -36
13 -43 25 -43 76 0 31 7 50 27 73 l27 32 73 -6 c41 -4 84 -11 96 -15 17 -6 26
-3 41 17 19 24 19 26 1 91 -19 70 -27 105 -50 216 -30 144 -35 166 -43 183 -5
9 -12 44 -16 77 -10 88 -50 120 -91 75z"/>
<path d="M1093 6405 c-19 -22 -20 -30 -11 -62 5 -21 15 -44 20 -50 6 -7 8 -24
6 -38 -3 -14 3 -69 12 -123 12 -62 15 -101 9 -108 -9 -11 -11 -53 -9 -149 1
-48 -17 -157 -31 -193 -13 -31 -12 -34 11 -52 30 -22 185 -35 309 -26 114 8
192 54 160 92 -8 10 -43 14 -128 15 -64 1 -147 4 -186 8 l-70 6 1 30 c1 17 5
62 10 100 13 105 8 338 -10 445 -12 73 -20 99 -37 113 -27 22 -30 22 -56 -8z"/>
<path d="M2412 6068 c-151 -76 -284 -233 -261 -310 15 -54 34 -74 85 -85 27
-6 63 -9 79 -6 40 8 111 66 131 108 29 61 36 60 86 -8 50 -70 95 -94 154 -82
31 5 35 9 32 33 -2 18 -10 28 -23 30 -29 6 -53 30 -93 92 -19 30 -53 77 -75
103 -32 39 -37 51 -26 57 58 36 75 70 47 98 -20 20 -49 13 -136 -30z m-2 -135
c0 -4 -10 -40 -22 -79 -24 -81 -40 -94 -110 -94 -32 0 -39 3 -34 16 3 9 6 19
6 23 0 4 8 16 18 27 9 10 25 32 35 47 26 41 107 86 107 60z"/>
<path d="M1755 6029 c-95 -50 -135 -113 -135 -212 0 -106 43 -142 169 -145 57
-2 85 3 115 18 37 18 50 32 93 105 16 25 17 84 2 122 -23 62 -118 132 -179
133 -14 0 -43 -9 -65 -21z m145 -125 c20 -41 21 -48 8 -82 -19 -51 -89 -88
-136 -71 -57 20 -68 73 -30 139 26 45 48 58 100 59 33 1 38 -3 58 -45z"/>
<path d="M2216 4928 c-25 -22 -26 -24 -11 -63 8 -22 14 -59 15 -82 0 -23 4
-53 10 -67 17 -46 48 -279 48 -366 0 -79 2 -86 27 -107 33 -29 39 -29 53 2 19
41 16 95 -25 443 -3 29 -10 55 -14 58 -5 3 -9 18 -9 34 0 72 -35 170 -61 170
-4 0 -19 -10 -33 -22z"/>
<path d="M1215 4911 c-11 -4 -48 -11 -83 -15 -72 -8 -152 -46 -188 -88 -29
-36 -31 -55 -4 -63 11 -3 19 -9 18 -13 -1 -4 3 -17 10 -30 7 -12 11 -26 8 -31
-3 -5 0 -14 8 -20 8 -6 16 -43 20 -89 9 -106 32 -230 45 -246 8 -9 8 -28 2
-62 -6 -32 -6 -50 0 -53 6 -2 14 -13 19 -25 4 -12 25 -31 46 -41 22 -11 41
-23 44 -26 12 -15 104 -19 162 -8 91 17 162 59 187 112 47 98 13 163 -144 277
-27 19 -57 39 -67 45 -24 13 -23 24 5 35 43 17 161 116 179 150 26 50 24 115
-5 144 -32 32 -218 66 -262 47z m184 -95 c19 -12 12 -52 -12 -77 -57 -58 -154
-112 -224 -124 -24 -4 -45 -11 -49 -16 -10 -17 -22 1 -29 44 -14 82 -16 90
-26 110 -6 10 -7 22 -2 26 38 33 302 61 342 37z m-208 -316 c35 -7 78 -27 136
-66 90 -60 111 -84 119 -135 6 -33 4 -35 -67 -73 -68 -37 -77 -39 -152 -37
-44 0 -81 2 -83 4 -2 2 -25 216 -30 277 -2 38 3 53 16 45 5 -3 32 -10 61 -15z"/>
<path d="M3715 4698 c-47 -24 -106 -85 -146 -149 -35 -56 -62 -167 -53 -217
11 -63 85 -122 153 -122 14 0 46 11 70 25 23 14 49 25 55 25 26 0 116 114 116
147 0 10 -55 -9 -75 -26 -41 -36 -75 -51 -130 -57 -71 -9 -85 6 -81 86 4 79
45 154 96 180 22 11 40 25 40 31 0 6 9 22 20 36 19 24 19 27 4 45 -21 22 -20
22 -69 -4z"/>
<path d="M4133 4687 c-53 -19 -116 -99 -107 -134 3 -11 1 -38 -5 -59 -7 -25
-7 -42 -1 -48 6 -6 10 -18 10 -27 0 -9 20 -39 44 -65 35 -39 57 -53 108 -69
84 -27 172 -24 236 8 75 37 63 51 -43 53 -104 2 -164 16 -200 47 -33 28 -25
53 20 61 38 8 131 66 157 99 68 85 -90 181 -219 134z m111 -106 c8 -12 -92
-54 -110 -47 -12 5 -12 9 -2 25 7 11 19 22 28 25 29 7 79 6 84 -3z"/>
<path d="M3105 4641 c-16 -10 -36 -29 -43 -44 -10 -20 -21 -27 -41 -27 -36 0
-56 -41 -47 -97 4 -21 8 -51 10 -68 2 -16 11 -50 20 -74 8 -25 13 -48 11 -52
-9 -14 25 -30 57 -27 l33 3 5 121 c6 135 20 174 65 174 20 0 33 -12 60 -55 19
-30 35 -61 35 -69 0 -8 4 -17 8 -20 5 -3 14 -43 21 -89 11 -75 16 -86 38 -96
25 -11 44 -5 64 22 9 12 -10 147 -26 181 -7 17 -16 45 -20 63 -3 17 -13 37
-21 44 -8 6 -14 18 -14 26 0 15 -4 20 -63 71 -30 26 -46 32 -80 31 -23 0 -55
-8 -72 -18z"/>
<path d="M2725 4620 c-22 -16 -54 -35 -70 -43 -51 -24 -123 -103 -136 -150 -6
-23 -14 -46 -19 -52 -15 -20 2 -76 26 -87 13 -6 24 -17 24 -25 0 -17 36 -17
92 3 50 16 70 34 97 85 24 44 36 46 51 9 17 -42 56 -70 96 -70 40 0 45 23 15
61 -10 13 -24 42 -31 64 -7 22 -26 64 -43 94 -24 43 -28 57 -19 71 11 18 6 60
-8 60 -5 0 -14 2 -22 5 -7 2 -31 -9 -53 -25z m-17 -132 c-3 -7 -13 -36 -22
-64 -13 -40 -24 -55 -49 -67 -62 -31 -60 12 4 93 36 45 78 69 67 38z"/>
<path d="M4663 4622 c-15 -8 -43 -28 -61 -44 -35 -30 -62 -27 -76 7 -8 23 -52
16 -48 -7 2 -10 -2 -18 -8 -18 -17 0 -12 -30 11 -61 11 -16 17 -29 13 -29 -4
0 0 -8 10 -19 10 -11 19 -44 23 -84 l6 -66 39 -6 c57 -10 67 3 61 78 -6 80 18
120 97 159 47 22 67 26 135 25 83 -1 105 5 105 27 0 45 -237 74 -307 38z"/>
<path d="M1931 4616 c-6 -7 -40 -30 -74 -50 -135 -79 -213 -176 -216 -269 -2
-61 8 -77 64 -106 46 -24 73 -26 118 -7 33 13 106 92 119 128 12 29 29 18 66
-42 38 -64 69 -83 117 -74 19 3 35 9 35 12 0 3 -11 17 -24 31 -13 15 -50 73
-81 131 -32 58 -67 115 -78 128 l-21 22 21 15 c18 13 20 20 12 47 -12 45 -37
59 -58 34z m-36 -153 c-4 -10 -11 -41 -15 -69 -11 -69 -24 -90 -70 -114 -53
-27 -83 -15 -71 28 16 55 42 92 92 132 55 43 76 51 64 23z"/>
<path d="M23716 6775 c-10 -28 -7 -62 15 -147 13 -51 19 -96 16 -122 -3 -22
-1 -48 4 -58 14 -26 48 -23 53 5 11 51 14 127 7 132 -5 2 -7 24 -4 47 2 26 -3
65 -14 98 -15 46 -22 55 -44 58 -17 2 -29 -3 -33 -13z"/>
<path d="M9140 6770 c-22 -14 0 -44 34 -48 30 -4 35 17 10 42 -18 18 -23 19
-44 6z"/>
<path d="M8223 6746 c-28 -24 -28 -25 -8 -40 21 -17 81 -14 99 5 11 10 -30 59
-50 59 -7 0 -26 -11 -41 -24z"/>
<path d="M8977 6763 c-26 -7 -17 -36 13 -43 46 -12 63 5 34 34 -16 17 -17 17
-47 9z"/>
<path d="M9272 6757 c-30 -14 -28 -51 5 -77 22 -17 29 -19 40 -7 11 11 11 20
-4 54 -17 36 -21 39 -41 30z"/>
<path d="M8386 6741 c-16 -17 -15 -19 6 -33 26 -17 81 -13 98 7 8 10 5 17 -12
29 -30 21 -71 20 -92 -3z"/>
<path d="M6748 6710 c-33 -33 -35 -48 -10 -66 25 -20 29 -18 58 26 44 66 6 98
-48 40z"/>
<path d="M6902 6728 c-32 -32 4 -78 60 -78 27 0 40 6 51 24 15 22 15 25 -1 39
-23 20 -95 30 -110 15z"/>
<path d="M7423 6732 c-17 -11 -6 -45 18 -60 17 -11 23 -10 39 10 11 13 19 30
17 38 -2 17 -55 25 -74 12z"/>
<path d="M7592 6706 l-23 -25 25 -16 c24 -16 27 -16 61 11 39 29 36 40 -10 49
-23 4 -35 0 -53 -19z"/>
<path d="M8800 6714 c-11 -12 -10 -18 4 -32 20 -20 49 -6 54 27 3 17 -2 21
-21 21 -14 0 -30 -7 -37 -16z"/>
<path d="M9705 6722 c-6 -4 -16 -19 -23 -35 -11 -25 -10 -28 14 -39 20 -9 29
-9 42 0 9 7 24 15 34 18 20 7 29 39 15 53 -12 12 -67 15 -82 3z"/>
<path d="M8102 6692 c-38 -32 -39 -38 -11 -53 18 -9 25 -7 50 21 54 58 23 84
-39 32z"/>
<path d="M8563 6713 c-32 -6 -47 -28 -29 -42 16 -14 113 -40 121 -33 14 14 2
39 -28 57 -39 24 -37 23 -64 18z"/>
<path d="M6640 6701 c-60 -25 -75 -57 -38 -80 19 -12 23 -11 35 5 7 10 13 21
13 26 0 4 7 8 15 8 8 0 15 6 15 14 0 19 -22 35 -40 27z"/>
<path d="M9574 6676 l-35 -33 26 -21 c30 -24 47 -20 69 13 20 31 20 61 0 69
-22 9 -20 9 -60 -28z"/>
<path d="M7754 6685 c-8 -19 2 -32 37 -50 33 -18 44 -14 52 15 9 33 -77 67
-89 35z"/>
<path d="M7350 6672 c-29 -10 -70 -44 -70 -58 0 -8 12 -20 26 -26 24 -11 29
-10 50 17 34 43 31 80 -6 67z"/>
<path d="M9334 6666 c-12 -32 0 -61 29 -64 25 -3 27 -1 27 31 0 23 -6 37 -16
41 -24 9 -34 7 -40 -8z"/>
<path d="M9860 6658 c-26 -29 -26 -54 3 -62 50 -12 91 20 65 51 -25 31 -46 34
-68 11z"/>
<path d="M7887 6650 c-16 -19 -16 -22 -2 -36 8 -9 15 -20 15 -25 0 -13 34 -11
48 3 26 26 7 78 -28 78 -8 0 -23 -9 -33 -20z"/>
<path d="M7075 6644 c-20 -15 -20 -16 10 -40 41 -33 81 -32 88 1 8 46 -56 72
-98 39z"/>
<path d="M8722 6644 c-38 -17 -38 -34 2 -47 32 -11 34 -10 42 31 7 36 4 37
-44 16z"/>
<path d="M22910 6646 c-34 -19 -155 -56 -184 -56 -22 0 -56 -27 -56 -45 0 -5
8 -17 17 -27 21 -23 52 -156 59 -248 7 -94 12 -110 33 -110 25 0 34 22 40 104
l6 70 55 27 c37 18 64 26 83 22 19 -4 27 -1 27 9 0 41 -71 62 -151 45 -37 -7
-37 -7 -41 30 -3 21 -5 38 -4 38 1 0 29 19 63 43 34 23 73 42 86 42 19 0 26 6
30 27 3 16 3 31 0 35 -7 12 -35 9 -63 -6z"/>
<path d="M8003 6628 c-23 -28 -24 -54 -2 -74 21 -19 21 -19 40 5 26 31 22 75
-7 79 -11 2 -25 -3 -31 -10z"/>
<path d="M9454 6622 c-6 -4 -17 -18 -24 -31 -14 -27 -2 -41 35 -41 22 0 55 32
55 54 0 22 -43 34 -66 18z"/>
<path d="M23272 6610 c-27 -25 -27 -31 -4 -60 14 -18 25 -21 45 -16 39 9 52
40 31 71 -20 30 -43 32 -72 5z"/>
<path d="M6486 6586 c-39 -36 -43 -51 -24 -91 15 -34 29 -28 55 25 50 101 36
130 -31 66z"/>
<path d="M9947 6572 c-23 -25 -21 -37 8 -50 54 -25 71 -6 39 43 -19 30 -26 31
-47 7z"/>
<path d="M7230 6558 c-11 -12 -20 -29 -20 -37 1 -20 24 -51 38 -51 10 0 52 82
52 101 0 18 -50 8 -70 -13z"/>
<path d="M8652 6548 c-17 -17 -15 -35 4 -42 8 -3 12 -10 9 -16 -4 -6 -10 -8
-14 -5 -5 2 -17 -5 -26 -16 -18 -18 -18 -21 -2 -36 16 -16 18 -16 34 6 10 13
25 31 33 40 8 9 20 31 27 49 11 32 11 32 -21 32 -18 0 -37 -5 -44 -12z"/>
<path d="M7948 6516 c-29 -22 -19 -96 14 -96 11 0 32 76 25 94 -8 19 -16 20
-39 2z"/>
<path d="M9352 6514 c-12 -8 -22 -24 -22 -34 0 -10 -8 -21 -17 -25 -10 -3 -29
-19 -41 -36 -20 -24 -22 -32 -12 -44 17 -20 37 -19 49 4 6 10 21 21 33 24 25
7 57 77 50 110 -4 21 -11 21 -40 1z"/>
<path d="M23557 6498 c-55 -28 -93 -65 -122 -116 -30 -54 -32 -91 -4 -126 27
-34 74 -35 123 -1 20 14 39 25 42 25 10 0 44 -86 44 -112 0 -33 -22 -47 -92
-55 -30 -4 -59 -14 -70 -25 -17 -17 -18 -22 -5 -41 19 -29 103 -35 162 -13 57
22 90 81 80 143 -6 38 -41 159 -62 213 -4 8 -5 19 -4 23 1 5 -8 11 -19 14 -22
6 -26 18 -10 28 16 10 11 44 -7 54 -13 6 -29 3 -56 -11z m5 -125 c-6 -36 -20
-53 -43 -53 -25 0 -24 7 7 47 30 40 43 42 36 6z"/>
<path d="M23140 6481 c-8 -6 -17 -8 -21 -5 -4 2 -18 -9 -31 -26 -13 -17 -33
-43 -44 -58 -27 -35 -38 -68 -24 -77 5 -3 10 -19 10 -35 0 -20 8 -35 25 -46
24 -16 26 -15 45 7 13 16 19 39 20 69 0 25 7 56 16 68 14 21 72 57 79 50 1 -2
10 -31 19 -66 15 -59 41 -112 55 -112 4 0 17 7 29 16 24 17 28 44 10 77 -6 12
-17 44 -23 71 -14 61 -35 78 -65 51 -20 -18 -21 -18 -36 3 -16 23 -39 28 -64
13z"/>
<path d="M6434 6455 c-3 -8 -14 -17 -25 -20 -39 -13 -10 -85 33 -85 19 0 34
66 23 100 -7 23 -23 26 -31 5z"/>
<path d="M10020 6439 c0 -19 35 -58 52 -59 3 0 9 14 13 31 8 35 -4 49 -42 49
-17 0 -23 -6 -23 -21z"/>
<path d="M7179 6419 c-6 -12 -15 -34 -19 -50 -7 -23 -4 -30 16 -43 13 -9 27
-16 32 -16 12 0 46 106 38 119 -12 19 -55 12 -67 -10z"/>
<path d="M8693 6373 c-13 -8 -23 -21 -23 -29 0 -20 32 -33 58 -23 18 7 23 15
20 36 -4 33 -24 39 -55 16z"/>
<path d="M7902 6351 c-29 -39 -28 -65 2 -79 32 -14 43 -1 47 58 5 56 -16 65
-49 21z"/>
<path d="M23802 6338 c-17 -17 -15 -78 3 -98 10 -11 25 -15 44 -12 26 4 30 9
34 45 2 28 -1 48 -11 60 -17 20 -53 22 -70 5z"/>
<path d="M9282 6298 c-22 -29 -23 -56 -2 -76 17 -16 19 -23 10 -46 -12 -32 -8
-42 19 -49 39 -10 50 12 40 75 -16 99 -38 131 -67 96z"/>
<path d="M6417 6273 c-6 -9 -11 -68 -8 -96 1 -13 8 -17 24 -15 20 3 22 9 22
58 0 43 -4 55 -17 58 -9 2 -18 -1 -21 -5z"/>
<path d="M7168 6259 c-24 -13 -23 -51 1 -80 29 -35 46 -14 37 45 -8 49 -11 51
-38 35z"/>
<path d="M8605 6230 c-10 -11 -16 -22 -14 -24 9 -9 83 -25 91 -20 18 11 7 45
-18 54 -35 14 -38 13 -59 -10z"/>
<path d="M22521 6210 c-12 -22 -26 -40 -32 -40 -5 0 -9 -6 -9 -13 0 -7 -13
-38 -28 -68 -32 -62 -56 -157 -46 -182 4 -11 17 -17 35 -17 25 0 29 5 39 43
15 57 58 183 82 236 21 48 21 74 -3 79 -9 2 -24 -13 -38 -38z"/>
<path d="M7928 6229 c-10 -5 -20 -25 -24 -45 -5 -27 -2 -40 14 -57 22 -25 35
-97 17 -97 -7 0 -20 -9 -31 -21 -18 -20 -18 -21 1 -35 10 -8 29 -14 41 -14 19
0 23 6 26 35 l3 35 59 -41 c32 -22 60 -38 63 -35 12 12 -23 81 -42 85 -30 5
-45 20 -69 72 -14 28 -21 58 -19 76 6 35 -14 56 -39 42z"/>
<path d="M6272 6210 c-19 -16 -21 -23 -12 -40 14 -26 52 -26 68 0 9 15 10 26
2 40 -13 25 -28 25 -58 0z"/>
<path d="M6101 6168 c-11 -30 -5 -45 22 -52 39 -10 48 -7 62 26 17 42 13 48
-36 48 -32 0 -41 -4 -48 -22z"/>
<path d="M5919 6153 c-9 -24 -7 -30 11 -45 12 -10 35 -18 51 -18 23 0 30 6 35
27 10 37 -7 57 -50 61 -32 3 -37 0 -47 -25z"/>
<path d="M5636 6138 c-11 -42 -6 -56 24 -68 54 -23 82 28 38 70 -29 26 -54 25
-62 -2z"/>
<path d="M5789 6158 c0 -2 -2 -17 -5 -35 -3 -29 0 -33 32 -43 27 -9 38 -9 49
0 22 18 18 47 -7 64 -19 13 -66 22 -69 14z"/>
<path d="M8685 6140 c-3 -11 -12 -20 -19 -20 -19 0 -43 -31 -48 -61 -3 -19 1
-30 15 -39 18 -10 23 -9 39 11 13 17 17 34 14 57 l-5 33 36 -21 c59 -35 85
-10 37 35 -33 30 -60 32 -69 5z"/>
<path d="M7187 6102 c-22 -25 -21 -37 5 -61 14 -14 25 -17 33 -11 6 5 20 7 32
4 11 -3 24 -1 28 5 8 14 -16 71 -30 71 -5 0 -19 3 -30 6 -13 3 -27 -2 -38 -14z"/>
<path d="M6450 6066 c-15 -40 -15 -50 -2 -82 16 -38 60 -52 79 -27 10 14 10
21 -2 39 -8 13 -15 39 -15 59 0 31 -3 35 -25 35 -18 0 -28 -7 -35 -24z"/>
<path d="M9371 6081 c-9 -6 -11 -15 -6 -27 5 -11 9 -23 9 -29 1 -5 20 -10 44
-10 28 0 41 -4 38 -11 -6 -15 35 -54 57 -54 22 0 31 38 18 73 -11 27 -38 36
-57 17 -6 -6 -21 1 -41 20 -34 32 -41 34 -62 21z"/>
<path d="M8800 6061 c-40 -11 -30 -34 18 -44 66 -13 90 3 56 37 -16 17 -33 18
-74 7z"/>
<path d="M9255 6020 c-28 -29 -28 -30 -10 -50 10 -11 24 -20 31 -20 15 0 38
65 30 85 -8 22 -19 19 -51 -15z"/>
<path d="M9585 6025 c-3 -8 -7 -22 -10 -31 -7 -23 13 -44 40 -44 18 0 25 7 30
30 8 35 -8 60 -37 60 -10 0 -21 -7 -23 -15z"/>
<path d="M8937 6006 c-18 -27 -10 -40 33 -51 18 -4 34 0 53 15 15 12 27 25 27
29 0 8 -67 31 -88 31 -5 0 -17 -11 -25 -24z"/>
<path d="M9842 6018 c-25 -25 1 -83 35 -76 27 5 27 41 0 66 -18 17 -26 19 -35
10z"/>
<path d="M9757 6003 c-39 -6 -73 -41 -60 -62 6 -9 18 -18 27 -19 29 -6 76 19
82 44 6 23 -1 45 -14 43 -4 -1 -20 -4 -35 -6z"/>
<path d="M8340 5991 c-35 -10 -31 -32 7 -48 30 -12 35 -11 54 8 11 11 18 26
16 32 -4 14 -42 18 -77 8z"/>
<path d="M9085 5990 c-12 -19 17 -41 49 -38 23 2 32 9 34 26 3 20 -1 22 -37
22 -22 0 -43 -5 -46 -10z"/>
<path d="M7330 5964 c-8 -21 -6 -29 18 -49 56 -50 92 -19 47 40 -32 41 -52 44
-65 9z"/>
<path d="M8467 5984 c-3 -3 -1 -17 5 -30 10 -21 18 -24 47 -22 38 3 56 33 29
49 -15 10 -72 12 -81 3z"/>
<path d="M8161 5951 c-12 -8 -13 -15 -3 -35 13 -30 55 -44 77 -26 21 18 19 41
-5 47 -11 3 -20 9 -20 14 0 12 -31 11 -49 0z"/>
<path d="M6596 5934 c-10 -25 -7 -30 19 -42 38 -18 55 -15 64 11 7 16 5 25 -7
35 -22 17 -69 15 -76 -4z"/>
<path d="M7480 5925 c-10 -12 -10 -18 0 -30 16 -19 82 -37 93 -26 15 15 -10
48 -44 60 -39 13 -34 14 -49 -4z"/>
<path d="M7664 5916 c-17 -13 -17 -16 15 -45 39 -37 57 -39 64 -9 7 27 3 35
-32 53 -24 12 -31 12 -47 1z"/>
<path d="M7833 5923 c-28 -11 2 -52 38 -53 17 0 33 36 23 52 -6 9 -41 10 -61
1z"/>
<path d="M7105 5896 c-28 -20 -9 -50 34 -54 31 -3 32 -2 29 30 -3 38 -30 48
-63 24z"/>
<path d="M18578 5876 c-38 -14 -104 -65 -136 -107 -40 -52 -55 -210 -30 -319
17 -73 67 -116 148 -125 66 -8 80 -3 80 26 0 16 4 18 18 10 9 -5 48 -14 86
-20 56 -8 76 -7 100 4 17 7 40 16 51 19 12 3 38 26 58 51 64 77 70 184 16 301
-34 74 -90 127 -149 141 -159 38 -182 40 -242 19z m196 -102 c90 -23 130 -69
147 -167 11 -66 -16 -128 -68 -153 -62 -29 -147 -25 -211 11 -61 33 -77 25
-67 -32 7 -40 -1 -41 -43 -5 -28 23 -34 37 -42 88 -13 98 7 170 61 219 65 58
115 67 223 39z"/>
<path d="M17720 5863 c-25 -9 -54 -19 -65 -24 -11 -4 -30 -11 -43 -14 -42 -12
-92 -153 -92 -260 0 -85 55 -196 116 -235 60 -38 110 -47 135 -24 18 16 20 16
32 1 32 -42 169 -69 227 -45 56 24 146 113 175 173 53 113 25 217 -89 329 -83
82 -138 106 -253 111 -74 4 -109 1 -143 -12z m213 -100 c57 -13 78 -25 123
-66 56 -51 90 -106 88 -142 0 -11 -2 -32 -3 -46 -1 -34 -80 -123 -127 -145
-44 -21 -117 -15 -173 14 -40 21 -41 21 -53 3 -9 -14 -18 -17 -43 -11 -60 13
-91 47 -115 120 -19 60 -21 75 -11 120 17 79 52 129 92 130 8 0 20 5 26 11 8
8 62 21 118 28 6 1 41 -6 78 -16z"/>
<path d="M6787 5853 c-13 -12 -6 -38 17 -66 28 -34 59 -33 64 2 6 40 -57 89
-81 64z"/>
<path d="M6920 5811 c0 -33 4 -40 26 -45 14 -4 34 -4 45 -1 41 13 12 65 -44
79 -26 6 -27 5 -27 -33z"/>
<path d="M16995 5820 c-57 -6 -137 -57 -171 -108 -30 -44 -58 -186 -52 -265 6
-75 48 -173 86 -201 53 -40 322 -44 408 -6 54 23 122 85 139 126 24 57 29 140
12 187 -8 23 -18 58 -21 78 -4 21 -13 42 -21 49 -8 7 -15 18 -15 24 0 24 -67
76 -124 96 -63 21 -161 30 -241 20z m204 -100 c71 -20 126 -103 137 -204 10
-92 -29 -149 -126 -185 -98 -37 -154 -43 -231 -25 -88 20 -109 46 -115 141
-10 183 72 281 236 282 36 1 81 -3 99 -9z"/>
<path d="M16205 5801 c-21 -12 -43 -21 -49 -21 -5 0 -24 -11 -42 -25 -18 -14
-35 -25 -39 -25 -12 0 -56 -57 -92 -119 -70 -123 -45 -234 84 -371 l66 -70 63
0 c72 0 231 35 255 56 8 8 22 14 30 14 17 0 81 64 96 95 22 45 34 149 24 216
-15 109 -71 181 -177 230 -85 39 -167 46 -219 20z m193 -111 c56 -28 62 -34
96 -102 35 -72 35 -73 22 -128 -21 -85 -32 -102 -96 -144 -116 -75 -229 -73
-311 5 -28 27 -79 129 -79 158 0 63 71 155 155 199 96 51 131 53 213 12z"/>
<path d="M19258 5803 c-17 -3 -39 -20 -59 -44 -17 -21 -37 -39 -45 -39 -18 0
-62 -91 -74 -150 -7 -35 -5 -51 10 -80 21 -39 72 -83 110 -95 14 -4 36 -14 50
-23 19 -13 50 -17 133 -17 l108 0 30 35 c64 75 79 112 81 191 1 53 -4 84 -17
109 -21 43 -74 100 -92 100 -7 0 -13 5 -13 10 0 10 -163 12 -222 3z m228 -104
c6 -5 19 -27 29 -50 16 -36 17 -46 6 -87 -18 -69 -86 -132 -140 -132 -12 0
-42 11 -68 25 -27 13 -61 27 -76 30 -16 3 -40 17 -53 32 -27 29 -25 53 9 116
19 33 29 40 91 58 39 11 76 22 81 24 16 6 109 -6 121 -16z"/>
<path d="M19878 5790 c-34 -10 -87 -51 -87 -67 -1 -6 -7 -18 -14 -25 -25 -26
-39 -74 -44 -150 l-5 -78 36 -36 c19 -19 40 -33 46 -29 6 4 44 -5 85 -19 70
-24 76 -25 130 -11 31 8 58 15 61 15 3 0 28 24 56 53 l50 52 -5 70 c-8 120
-54 179 -171 218 -53 18 -95 20 -138 7z m171 -124 c39 -25 61 -66 61 -112 0
-32 -71 -81 -129 -90 -36 -6 -53 -3 -84 14 -29 16 -44 19 -57 12 -15 -8 -20
-6 -25 10 -17 53 25 152 75 177 42 21 116 16 159 -11z"/>
<path d="M20387 5715 c-15 -14 -36 -43 -47 -65 -11 -21 -24 -41 -29 -44 -5 -3
-12 -26 -15 -51 -13 -84 49 -147 156 -160 71 -9 115 5 161 51 44 44 52 83 31
147 -20 61 -69 110 -130 131 -66 22 -95 20 -127 -9z m154 -104 c16 -16 31 -42
34 -58 11 -59 -112 -97 -169 -52 -32 25 -32 37 -4 84 36 61 93 72 139 26z"/>
<path d="M20840 5719 c-47 -26 -65 -47 -79 -97 -11 -40 -10 -48 17 -107 36
-76 66 -99 116 -90 19 4 45 16 57 26 12 10 26 19 31 19 17 0 48 66 48 103 0
54 -37 112 -85 136 -61 29 -67 30 -105 10z m84 -85 c9 -3 16 -14 16 -23 0 -9
5 -22 11 -28 17 -17 -12 -58 -50 -71 -32 -11 -36 -9 -61 41 -26 52 27 103 84
81z"/>
<path d="M21527 5684 c-39 -26 -54 -61 -49 -115 3 -33 7 -37 45 -50 52 -16 83
-13 118 12 34 24 42 54 25 102 -16 48 -25 57 -69 67 -29 6 -42 3 -70 -16z m73
-66 c26 -29 25 -35 -7 -41 -36 -7 -43 -2 -43 34 0 35 20 38 50 7z"/>
<path d="M21212 5683 c-34 -16 -56 -54 -68 -117 -8 -46 15 -79 67 -96 39 -13
44 -12 97 17 49 26 58 35 64 67 7 30 4 43 -12 63 -11 14 -20 31 -20 38 0 21
-35 45 -66 45 -16 0 -44 -8 -62 -17z m98 -99 c0 -7 -12 -16 -27 -20 -16 -3
-34 -8 -41 -10 -29 -9 -31 9 -5 41 25 31 28 32 50 18 13 -8 23 -21 23 -29z"/>
<path d="M21818 5635 c-32 -18 -43 -47 -28 -75 8 -15 21 -20 50 -20 23 0 40 5
40 11 0 7 8 17 17 24 14 11 16 18 8 42 -12 33 -46 40 -87 18z"/>
<path d="M22065 5591 c-14 -28 -14 -30 5 -36 32 -10 60 4 60 30 0 21 -17 35
-41 35 -4 0 -15 -13 -24 -29z"/>
<path d="M22347 5596 c-7 -17 11 -36 34 -36 22 0 31 13 23 34 -8 20 -50 21
-57 2z"/>
<path d="M6200 4937 c0 -12 12 -20 63 -45 21 -11 -8 27 -33 42 -24 14 -30 14
-30 3z"/>
<path d="M6307 4843 c-4 -3 0 -15 9 -25 13 -14 20 -15 31 -7 11 10 10 14 -4
25 -21 15 -27 17 -36 7z"/>
<path d="M6380 4780 c-11 -7 -9 -11 10 -18 14 -6 42 -26 62 -46 20 -20 42 -36
48 -36 5 0 10 -4 10 -10 0 -5 7 -7 15 -4 10 4 36 -15 74 -55 43 -44 66 -61 85
-61 14 0 26 3 26 8 0 8 -65 52 -78 52 -5 0 -14 11 -22 24 -7 13 -20 27 -29 30
-28 10 -85 47 -116 76 -41 38 -68 50 -85 40z"/>
<path d="M5870 4746 c0 -8 13 -19 30 -24 34 -12 51 -25 89 -66 14 -15 42 -39
61 -52 19 -13 60 -42 90 -64 30 -22 60 -40 67 -40 6 0 13 -4 15 -8 7 -18 173
-121 332 -207 79 -43 190 -85 223 -85 29 0 48 33 29 49 -19 16 -172 71 -196
71 -11 0 -20 4 -20 9 0 4 -28 23 -62 41 -34 18 -78 44 -97 57 -19 13 -46 26
-60 30 -14 3 -34 17 -44 30 -10 13 -24 23 -32 23 -7 0 -18 7 -25 15 -7 8 -23
15 -35 15 -13 0 -25 3 -27 8 -1 4 -25 18 -51 32 -27 14 -55 33 -64 43 -9 9
-21 17 -28 17 -7 0 -20 9 -30 20 -10 11 -24 20 -32 20 -7 0 -13 5 -13 10 0 6
-8 14 -17 17 -10 4 -35 17 -55 30 -44 27 -48 28 -48 9z"/>
<path d="M6723 4531 c-11 -18 -8 -23 20 -43 17 -12 40 -33 51 -46 11 -14 25
-21 35 -17 11 3 31 -8 55 -30 21 -19 45 -35 52 -35 8 0 14 -6 14 -13 0 -6 20
-23 45 -36 36 -19 48 -22 58 -12 9 10 6 18 -16 37 -16 14 -36 22 -45 20 -24
-8 -45 8 -47 36 -1 15 -7 22 -19 20 -9 -2 -16 2 -16 8 0 5 -9 10 -19 10 -10 0
-21 7 -25 15 -3 8 -12 15 -20 15 -7 0 -17 7 -20 16 -4 10 -13 13 -26 9 -15 -5
-20 -2 -20 13 0 16 -28 52 -41 52 -2 0 -10 -9 -16 -19z"/>
<path d="M7060 4281 c0 -13 16 -28 50 -48 19 -12 45 -36 58 -52 12 -17 29 -31
36 -31 7 0 30 -13 51 -30 21 -16 46 -30 56 -30 11 0 19 -6 19 -13 0 -8 12 -19
28 -27 60 -28 88 -45 119 -69 59 -49 118 -89 140 -95 12 -4 38 -20 59 -37 21
-17 51 -33 66 -36 15 -3 29 -11 32 -18 2 -7 30 -28 61 -46 31 -19 80 -48 108
-66 29 -18 72 -42 97 -55 24 -12 51 -29 60 -38 9 -9 41 -31 71 -49 30 -17 61
-36 69 -41 218 -135 514 -287 585 -300 28 -5 72 -14 99 -19 27 -6 52 -9 54 -6
8 8 -31 34 -50 35 -9 0 -21 6 -25 13 -11 16 -67 47 -87 47 -9 0 -33 11 -54 23
-53 34 -141 77 -156 77 -7 0 -21 9 -31 20 -10 11 -28 20 -40 20 -11 0 -35 10
-52 23 -17 12 -55 34 -84 47 -29 14 -64 35 -78 48 -13 12 -30 22 -37 22 -7 0
-30 11 -50 25 -20 14 -40 22 -45 19 -5 -3 -22 11 -39 30 -17 19 -44 38 -60 41
-17 4 -30 11 -30 16 0 5 -18 18 -39 28 -21 11 -45 27 -53 35 -8 7 -35 23 -60
34 -24 12 -51 28 -58 37 -7 8 -17 15 -22 15 -6 0 -24 10 -41 22 -21 15 -32 18
-35 10 -5 -17 -22 -15 -22 2 0 19 -39 49 -98 77 -26 12 -58 32 -72 44 -14 13
-45 33 -70 46 -25 13 -70 43 -100 67 -89 69 -206 142 -229 142 -12 0 -21 5
-21 11 0 18 -24 34 -52 36 -16 0 -28 -2 -28 -6z"/>
<path d="M5763 4015 c-13 -9 -23 -23 -23 -32 0 -18 65 -83 84 -83 7 0 49 -18
95 -40 45 -22 91 -40 102 -40 10 0 19 -4 19 -10 0 -15 99 -68 167 -90 34 -10
73 -26 87 -35 13 -9 39 -18 57 -20 18 -3 37 -9 43 -15 16 -16 59 -13 52 5 -3
8 0 28 5 45 16 46 -6 64 -131 110 -19 7 -63 25 -98 41 -35 16 -66 29 -70 29
-4 0 -24 9 -45 20 -21 12 -63 30 -94 42 -30 11 -77 34 -103 50 -59 37 -116 46
-147 23z"/>
<path d="M6738 3920 c-27 -17 -51 -30 -56 -30 -11 0 -57 -45 -89 -87 -15 -21
-31 -40 -34 -43 -13 -10 -59 -119 -59 -139 0 -11 -10 -39 -22 -62 -19 -38 -20
-47 -10 -108 16 -101 23 -125 39 -138 8 -6 12 -16 9 -21 -3 -5 1 -15 9 -22 9
-7 22 -27 31 -45 8 -18 26 -37 39 -43 14 -7 25 -15 25 -20 0 -14 102 -79 135
-87 16 -3 48 -15 72 -26 53 -24 74 -24 123 1 26 13 40 16 40 8 0 -6 6 -19 13
-27 8 -9 24 -43 37 -76 18 -45 42 -78 94 -131 75 -75 92 -83 196 -87 37 -2 46
-6 48 -23 2 -11 25 -42 52 -68 28 -27 50 -52 50 -56 0 -4 8 -10 18 -14 9 -3
32 -17 51 -31 19 -14 46 -25 61 -25 15 0 47 -11 71 -23 83 -44 112 -50 170
-33 57 17 60 16 91 -44 6 -14 22 -36 35 -50 13 -14 44 -49 70 -78 69 -78 85
-84 227 -84 66 0 132 2 146 4 19 2 26 -2 28 -18 2 -12 12 -30 23 -40 10 -9 19
-22 19 -29 0 -17 110 -103 149 -116 18 -6 49 -21 67 -34 36 -24 151 -40 220
-30 35 5 43 2 82 -35 24 -22 47 -40 52 -40 5 0 44 -21 85 -46 42 -26 93 -50
113 -55 20 -4 93 -4 162 0 215 14 311 65 325 175 4 28 16 89 26 136 25 114 24
220 -2 305 -39 127 -58 153 -172 228 -89 60 -119 69 -229 66 -83 -2 -93 0 -97
17 -5 29 -64 100 -117 142 -68 53 -86 62 -133 62 -22 0 -43 5 -46 10 -9 15
-174 11 -218 -4 -34 -13 -39 -12 -44 2 -7 18 -63 91 -103 133 -14 15 -49 41
-78 59 -48 29 -61 33 -130 32 -56 0 -90 -6 -126 -21 -27 -12 -55 -20 -62 -17
-7 3 -23 27 -35 53 -28 62 -122 169 -170 193 -38 20 -102 27 -131 16 -12 -6
-20 1 -31 26 -54 125 -68 144 -106 140 -19 -1 -46 7 -69 21 -20 13 -59 31 -87
41 -27 10 -64 25 -81 33 -31 16 -125 15 -166 -2 -14 -5 -18 -2 -18 13 0 12 -6
25 -14 29 -7 4 -19 19 -26 33 -22 43 -115 127 -166 149 -27 12 -51 25 -54 29
-3 4 -40 24 -82 45 -102 49 -170 51 -240 7z m259 -130 c43 -23 83 -46 88 -50
6 -4 26 -13 46 -19 39 -12 69 -39 73 -64 1 -8 8 -22 14 -30 11 -13 3 -22 -55
-60 -87 -56 -112 -84 -162 -178 -39 -72 -41 -79 -37 -150 2 -41 -1 -80 -6 -86
-15 -18 -119 -17 -144 2 -10 8 -29 15 -40 15 -47 0 -184 112 -184 149 0 6 -4
19 -9 29 -33 65 -40 95 -35 139 3 26 10 53 15 59 5 6 16 34 24 61 28 93 101
178 185 217 59 27 136 15 227 -34z m528 -293 c33 -10 62 -22 63 -27 2 -6 9
-10 16 -10 20 0 71 -28 91 -50 10 -11 31 -20 47 -20 17 0 28 -5 28 -14 0 -13
-44 -32 -127 -55 -23 -6 -60 -27 -83 -46 -39 -33 -99 -110 -100 -128 0 -4 -18
-31 -41 -59 -60 -77 -76 -114 -73 -178 4 -75 -3 -84 -56 -75 -60 10 -125 73
-172 167 -69 136 -83 230 -50 324 23 65 46 94 105 128 110 65 226 79 352 43z
m463 -261 c17 -9 48 -37 69 -63 21 -27 43 -52 49 -58 7 -5 14 -21 17 -35 5
-22 -1 -31 -40 -60 -120 -90 -223 -230 -223 -304 0 -13 -4 -27 -8 -30 -9 -5 0
-77 13 -108 13 -32 -80 -24 -151 12 -32 16 -66 30 -76 30 -9 0 -40 12 -69 27
-87 46 -148 165 -137 268 4 31 20 67 53 117 27 40 60 90 73 111 26 39 51 53
162 94 55 19 79 22 152 19 50 -3 99 -11 116 -20z m565 -274 c26 -19 47 -39 47
-45 0 -6 12 -22 28 -34 24 -20 25 -24 11 -35 -84 -67 -152 -148 -180 -215 -11
-26 -25 -57 -30 -69 -6 -11 -11 -69 -12 -129 -2 -127 3 -122 -130 -124 -98 -1
-133 13 -202 83 -59 59 -97 126 -132 231 l-24 69 30 61 c17 33 47 79 68 102
44 47 121 93 157 93 14 0 33 10 43 23 27 34 38 39 127 52 90 13 92 13 199 -63z
m469 -176 c21 -9 46 -16 57 -16 25 0 111 -84 111 -108 0 -13 -11 -22 -38 -30
-20 -6 -64 -31 -97 -55 -65 -47 -83 -69 -145 -178 -23 -41 -25 -54 -25 -179 0
-127 1 -137 23 -165 22 -27 22 -30 6 -34 -9 -2 -24 6 -33 16 -11 14 -30 20
-62 21 -25 1 -59 8 -75 17 -16 8 -35 15 -42 15 -29 0 -104 55 -133 96 -44 64
-59 116 -65 228 l-6 101 41 80 c49 98 58 109 145 165 60 39 79 46 135 50 80 6
153 -3 203 -24z m502 -258 c83 -35 146 -88 146 -122 0 -12 7 -31 14 -42 8 -12
15 -30 14 -40 0 -10 2 -50 6 -87 4 -47 1 -85 -10 -125 -9 -31 -22 -84 -30
-117 -13 -55 -18 -62 -57 -82 -67 -35 -338 -61 -356 -35 -3 5 -40 25 -82 46
-87 42 -115 69 -155 146 -25 47 -29 69 -32 152 -4 91 -2 101 24 153 28 54 101
125 130 125 7 0 19 6 26 13 69 65 230 72 362 15z"/>
<path d="M9598 2146 c-29 -10 -38 -26 -15 -26 16 0 54 27 47 32 -3 3 -17 0
-32 -6z"/>
<path d="M18854 3665 c-36 -16 -38 -27 -50 -228 -6 -102 -5 -120 10 -136 9
-10 16 -24 14 -32 -4 -16 45 -41 65 -33 19 7 25 31 17 64 -3 14 -3 49 1 78 4
30 10 102 14 162 5 91 4 110 -10 124 -19 19 -20 19 -61 1z"/>
<path d="M17284 3526 c-103 -38 -159 -89 -207 -185 -56 -114 -42 -194 50 -283
54 -52 95 -67 183 -64 81 2 105 12 169 72 53 51 22 85 -47 50 -35 -17 -148
-28 -170 -17 -9 5 -30 14 -47 20 -43 16 -80 74 -78 122 4 89 138 209 235 209
47 0 61 9 73 48 16 53 -59 66 -161 28z"/>
<path d="M18175 3388 c-72 -24 -143 -67 -202 -124 -64 -63 -83 -95 -83 -142 0
-35 48 -79 95 -88 36 -6 105 11 105 27 0 5 6 9 13 9 18 0 78 64 93 98 l11 27
12 -45 c29 -109 59 -160 94 -160 28 0 29 44 3 210 -9 52 -16 98 -16 102 0 8
-86 99 -92 97 -1 -1 -16 -6 -33 -11z m-5 -96 c0 -21 -89 -144 -120 -167 -39
-29 -55 -31 -64 -10 -11 29 16 75 63 107 25 17 59 42 74 55 29 24 47 29 47 15z"/>
<path d="M14212 3370 c-21 -9 -76 -12 -147 -9 -16 1 -68 -1 -115 -4 -47 -3
-137 -7 -200 -8 -138 -3 -782 10 -788 15 -2 2 -16 1 -31 -4 -15 -4 -34 -4 -42
1 -8 4 -46 4 -85 -1 -110 -14 -267 -22 -419 -21 -77 0 -216 -4 -310 -10 -93
-5 -231 -12 -305 -15 -74 -3 -139 -8 -145 -12 -5 -3 -44 -7 -85 -9 -41 -1
-172 -4 -290 -8 -118 -3 -238 -11 -266 -16 -31 -6 -60 -6 -75 -1 -13 5 -37 8
-54 7 -315 -19 -319 -20 -321 -97 -1 -23 -5 -113 -9 -198 -4 -85 -8 -182 -9
-215 -1 -33 -8 -104 -15 -157 -6 -54 -11 -144 -9 -200 4 -140 -7 -472 -16
-487 -5 -7 -20 -1 -48 21 -75 60 -97 88 -115 149 -16 53 -20 59 -44 59 -30 0
-33 -5 -75 -147 -28 -93 -36 -103 -72 -83 -23 13 -138 50 -155 50 -8 0 -20 7
-27 15 -17 21 -54 19 -75 -5 -18 -19 -18 -21 1 -59 14 -29 31 -45 65 -60 25
-12 52 -21 60 -21 8 -1 32 -9 54 -20 22 -11 46 -19 53 -20 16 0 17 1 -24 -84
-20 -42 -44 -78 -53 -81 -10 -3 -28 -19 -41 -37 -19 -26 -21 -34 -11 -50 7
-11 9 -32 6 -48 -4 -19 -1 -37 11 -55 16 -24 18 -25 40 -10 13 8 30 12 38 9
22 -8 150 33 237 78 69 35 83 39 122 33 44 -7 45 -8 50 -48 3 -23 4 -118 2
-212 -1 -93 1 -210 5 -260 4 -49 4 -126 0 -170 -7 -86 5 -249 21 -277 6 -12 4
-29 -8 -53 -16 -33 -16 -37 0 -70 l17 -35 37 14 c22 8 110 19 202 25 93 6 170
16 178 22 9 8 20 9 36 2 26 -12 107 -3 262 27 70 13 182 24 310 30 110 5 227
14 260 20 33 6 83 11 111 13 28 1 57 7 65 13 8 7 42 12 77 12 34 1 68 4 74 8
7 5 40 9 73 11 33 1 94 4 135 6 41 3 158 8 260 11 102 4 208 9 236 12 28 3
149 8 270 10 120 2 244 6 274 8 30 2 60 0 66 -5 15 -12 1109 -3 1284 11 202
15 658 32 689 25 15 -3 111 -6 212 -6 190 -1 337 -12 400 -29 46 -13 65 -6 83
32 14 27 13 39 -3 126 -11 53 -21 144 -24 202 -3 58 -13 147 -22 198 -9 52
-13 101 -10 110 4 10 9 102 11 205 1 104 8 230 13 280 11 91 9 523 -3 722 -3
55 -8 150 -11 210 -11 229 -25 372 -44 440 -11 39 -21 80 -21 91 0 44 -22 49
-126 29 -78 -15 -102 -16 -134 -6 -22 6 -110 13 -197 16 -87 2 -183 8 -213 14
-30 6 -179 13 -330 16 -535 12 -606 14 -680 19 -41 3 -85 1 -98 -4z m-1023
-118 c400 -6 780 -4 951 5 80 5 213 4 295 0 83 -5 245 -8 360 -7 143 1 249 -4
330 -14 66 -9 154 -15 195 -15 41 1 165 -3 275 -10 124 -7 218 -8 247 -3 47 9
47 9 57 -22 12 -43 30 -158 36 -236 24 -330 36 -940 22 -1190 -4 -80 -10 -210
-13 -290 -3 -80 -6 -154 -7 -165 0 -18 14 -150 43 -389 16 -125 18 -119 -37
-112 -146 18 -640 29 -778 17 -71 -6 -227 -13 -345 -17 -118 -3 -262 -9 -320
-12 -82 -6 -871 -7 -1170 -2 -30 1 -104 -5 -163 -11 -87 -10 -110 -10 -116 0
-6 10 -21 10 -67 2 -32 -6 -75 -10 -94 -9 -19 0 -62 -2 -95 -5 -33 -3 -114 -7
-179 -7 -65 -1 -130 -6 -144 -11 -16 -6 -29 -6 -37 1 -7 6 -19 8 -26 5 -8 -2
-63 -9 -124 -15 -110 -9 -279 -30 -410 -50 -159 -24 -226 -30 -337 -30 -64 0
-120 -5 -123 -10 -4 -6 -13 -5 -25 2 -14 9 -25 9 -45 0 -14 -7 -46 -12 -71
-12 -35 0 -50 -5 -68 -25 -13 -13 -26 -21 -30 -17 -13 13 -71 11 -93 -4 -12
-8 -41 -14 -63 -14 -23 0 -60 -9 -82 -20 -23 -11 -52 -20 -65 -20 -20 0 -22 3
-13 19 13 26 13 34 -2 25 -15 -9 -267 -14 -272 -5 -2 3 0 37 5 75 7 54 6 73
-5 85 -19 22 -26 226 -19 537 l6 254 25 0 c13 0 55 10 94 21 80 25 102 52 65
81 -12 9 -31 18 -43 20 -11 2 -47 33 -80 69 l-59 66 2 426 c1 234 6 461 11
504 5 43 10 157 11 253 1 96 5 178 10 183 12 12 72 15 441 22 189 4 411 15
530 26 113 11 212 19 220 19 8 -1 42 -2 75 -4 33 -2 105 1 160 5 55 4 159 8
230 7 72 0 144 0 160 0 73 0 276 14 339 23 38 5 77 7 86 4 10 -3 21 -1 25 5 3
6 11 7 17 4 6 -4 139 -9 297 -12z"/>
<path d="M15030 2895 c-9 -11 -10 -36 -6 -87 4 -40 7 -77 7 -83 0 -5 -21 -13
-47 -17 -47 -7 -73 -28 -74 -60 0 -17 43 -34 100 -40 22 -3 26 -9 32 -58 4
-30 5 -94 3 -142 -3 -69 -1 -90 11 -103 22 -22 50 -18 72 10 17 21 19 39 17
160 l-2 135 36 0 c20 0 62 7 94 15 31 8 62 12 70 9 15 -5 87 22 87 34 0 4 -7
18 -16 31 -16 22 -20 23 -151 19 -127 -3 -134 -2 -138 17 -2 11 -9 47 -16 80
-17 85 -49 116 -79 80z"/>
<path d="M12880 2854 c-89 -40 -125 -89 -84 -112 34 -19 42 -322 13 -473 -12
-63 -3 -93 32 -104 47 -15 67 45 75 228 1 26 4 50 6 52 2 3 36 -23 75 -58 38
-34 80 -69 93 -77 13 -8 33 -24 44 -35 76 -75 138 -97 151 -55 11 36 -21 78
-81 104 -40 18 -111 82 -129 116 -8 15 -35 36 -64 50 -48 22 -68 50 -36 50 23
0 163 65 209 97 33 24 45 40 56 77 12 44 11 48 -14 86 -38 57 -89 77 -201 78
-75 0 -99 -4 -145 -24z m245 -78 c22 -10 35 -22 35 -33 0 -25 -28 -63 -46 -63
-8 0 -37 -15 -64 -34 -51 -35 -117 -62 -127 -53 -3 3 -7 34 -9 68 -2 39 -10
69 -20 80 -16 18 -15 20 17 33 19 7 41 16 49 19 25 9 128 -2 165 -17z"/>
<path d="M11960 2730 c-19 -11 -41 -19 -48 -20 -23 0 -156 -106 -187 -149 -16
-22 -34 -41 -38 -41 -4 0 -20 13 -35 29 -15 16 -36 31 -47 33 -11 2 -20 10
-20 18 0 8 -43 37 -102 67 -77 40 -121 56 -177 65 -72 11 -76 11 -113 -13 -21
-13 -47 -29 -57 -35 -42 -23 -61 -62 -59 -125 0 -32 -3 -62 -8 -65 -16 -10
-10 -72 11 -107 11 -19 18 -42 14 -51 -3 -9 -2 -22 3 -29 12 -16 32 -84 35
-121 3 -26 -1 -30 -47 -46 -79 -27 -165 -78 -232 -136 -141 -124 -149 -268
-22 -365 54 -41 176 -89 264 -104 44 -8 107 -19 140 -25 33 -6 70 -8 82 -5 21
5 23 2 23 -33 0 -21 -12 -72 -26 -113 -14 -41 -30 -98 -35 -128 -4 -29 -15
-61 -24 -71 -15 -16 -31 -77 -42 -152 -4 -28 0 -42 16 -59 11 -12 24 -38 27
-56 13 -68 92 -101 166 -69 18 8 53 23 78 34 44 19 171 141 249 240 19 23 38
42 42 42 5 0 22 -21 40 -46 19 -28 45 -52 68 -61 20 -8 43 -21 51 -27 8 -7 39
-18 68 -24 61 -14 82 -7 164 53 53 39 101 120 113 193 12 75 8 224 -9 288 -9
34 -16 66 -16 70 0 10 47 34 65 34 22 0 91 39 117 67 32 33 78 140 78 180 0
50 -34 118 -85 172 -55 59 -141 126 -179 141 l-24 9 -4 188 c-4 164 -7 194
-25 233 -21 45 -78 106 -120 128 -32 18 -93 14 -133 -8z m110 -90 c10 -5 28
-26 40 -45 24 -39 38 -170 32 -299 l-4 -68 -121 7 c-134 7 -157 11 -157 27 0
14 -56 104 -83 135 -17 19 -18 25 -6 57 23 64 106 135 207 176 55 22 67 23 92
10z m-705 -35 c71 -28 183 -97 198 -122 4 -7 18 -13 31 -13 41 0 47 -37 16
-102 -15 -31 -34 -76 -41 -99 l-14 -43 -75 -13 c-41 -8 -91 -16 -110 -18 -19
-2 -55 -7 -79 -11 -53 -8 -50 -12 -98 131 -29 88 -36 126 -37 191 -2 138 49
162 209 99z m375 -344 c0 -6 -9 -11 -19 -11 -11 0 -27 -3 -37 -7 -15 -5 -16
-2 -10 23 13 49 26 57 47 30 11 -13 19 -29 19 -35z m155 -253 c44 -66 85 -128
90 -138 6 -10 16 -24 22 -32 19 -22 -27 -141 -58 -150 -107 -31 -149 -36 -262
-33 l-120 4 -35 34 c-33 34 -34 36 -22 73 6 22 18 53 26 71 8 17 14 36 14 42
0 23 73 226 85 236 7 6 50 11 96 12 l84 2 80 -121z m183 100 c27 -8 32 -14 27
-31 -18 -67 -29 -103 -36 -110 -8 -11 -60 53 -93 114 l-24 46 46 -4 c26 -3 62
-9 80 -15z m-578 -37 c0 -11 -14 -57 -31 -103 -17 -46 -33 -95 -36 -110 -3
-16 -8 -28 -12 -28 -6 0 -63 95 -69 115 -2 5 -15 33 -30 62 -15 28 -23 55 -19
59 7 7 101 20 165 23 25 1 32 -3 32 -18z m735 -11 c4 -6 25 -20 48 -31 47 -24
121 -99 138 -142 16 -38 -4 -98 -41 -125 -26 -19 -129 -52 -163 -52 -19 0 -80
128 -74 155 12 51 49 170 58 186 11 21 25 24 34 9z m-1009 -37 c9 -21 32 -71
50 -110 19 -40 37 -85 40 -100 8 -31 29 -68 56 -99 25 -28 16 -45 -35 -72 -44
-23 -87 -28 -115 -13 -9 5 -60 18 -113 29 -109 23 -219 71 -249 109 -48 61 -2
149 110 209 25 13 57 34 72 46 26 20 77 34 140 37 22 1 30 -6 44 -36z m949
-475 c38 -77 40 -344 2 -398 -27 -39 -69 -63 -117 -68 -41 -4 -54 0 -103 31
-58 37 -77 61 -77 96 0 11 -8 24 -17 30 -15 8 -14 15 18 68 20 32 51 87 69
123 68 134 72 139 137 143 32 2 61 4 65 5 3 1 14 -13 23 -30z m-620 -71 c27
-40 64 -101 81 -137 17 -36 38 -71 47 -79 21 -17 21 -37 -1 -77 -32 -59 -158
-204 -177 -204 -5 0 -26 -12 -46 -26 -27 -19 -47 -25 -75 -22 l-39 3 -14 65
-13 66 45 144 c25 80 53 179 62 220 23 104 30 120 57 120 17 -1 36 -20 73 -73z
m284 -49 c-33 -62 -62 -114 -64 -117 -13 -13 -133 199 -122 216 3 4 59 9 125
11 l120 3 -59 -113z"/>
<path d="M11713 1918 c-66 -62 -98 -148 -53 -148 10 0 23 -7 27 -15 6 -9 30
-18 63 -21 30 -3 58 -8 62 -10 4 -3 22 2 41 9 46 20 71 73 65 139 -7 70 -28
88 -100 88 -55 0 -61 -3 -105 -42z"/>
<path d="M14672 2653 c-19 -3 -51 -14 -72 -26 -46 -27 -132 -132 -132 -162 0
-29 35 -104 65 -136 33 -37 125 -69 196 -69 48 0 65 5 98 29 47 34 73 67 73
93 0 21 -18 23 -44 3 -26 -20 -115 -29 -162 -16 -50 13 -124 67 -124 91 0 32
41 69 116 105 55 26 74 40 74 55 0 18 -29 42 -47 38 -4 0 -23 -3 -41 -5z"/>
<path d="M13405 2611 c-33 -17 -75 -46 -94 -65 -31 -32 -33 -38 -32 -99 3
-236 191 -341 411 -231 25 12 56 33 69 48 43 46 4 74 -59 41 -74 -38 -265 -22
-290 25 -10 18 -7 20 27 20 66 0 187 78 228 148 15 24 16 37 9 63 -13 46 -60
71 -142 76 -60 4 -74 1 -127 -26z m174 -77 c2 -2 -2 -16 -10 -31 -18 -34 -101
-73 -156 -73 -41 0 -43 2 -43 28 0 55 72 94 155 85 28 -3 52 -7 54 -9z"/>
<path d="M14094 2631 c-31 -4 -66 -17 -91 -34 -21 -15 -46 -27 -54 -27 -38 0
-119 -126 -119 -184 0 -42 33 -100 80 -139 57 -49 109 -48 167 4 19 16 38 29
43 29 5 0 22 23 37 51 60 111 53 103 74 83 10 -9 21 -26 25 -38 9 -29 114
-126 136 -126 35 0 26 52 -22 115 -20 28 -48 71 -60 95 -40 80 -125 181 -149
179 -9 -1 -39 -5 -67 -8z m66 -123 c0 -28 -13 -61 -45 -117 -38 -66 -50 -80
-76 -85 -54 -11 -75 -7 -99 19 -19 20 -22 32 -18 70 8 66 35 91 153 141 67 28
85 22 85 -28z"/>
<path d="M13125 1870 c-16 -4 -40 -12 -52 -18 -12 -7 -34 -12 -50 -12 -61 0
-234 -121 -233 -163 1 -44 87 -100 197 -127 152 -38 220 -82 178 -115 -41 -32
-159 -75 -206 -75 -19 0 -28 6 -32 21 -5 19 -7 20 -36 5 -89 -47 -75 -122 24
-134 62 -7 147 15 220 56 110 61 152 120 134 185 -8 30 -18 40 -62 60 -63 30
-80 37 -132 53 -43 13 -141 54 -163 68 -10 6 -9 11 5 22 10 7 25 14 33 14 8 0
31 8 50 18 19 11 63 25 98 33 68 14 76 20 85 60 9 36 -18 58 -58 49z"/>
<path d="M15449 1837 c-84 -52 -140 -118 -160 -186 -12 -39 -10 -50 11 -115
20 -58 35 -81 79 -125 66 -65 102 -81 180 -81 116 0 231 70 210 128 -11 28
-27 28 -85 -3 -35 -19 -62 -25 -108 -25 -56 0 -64 3 -105 38 l-44 38 48 28
c56 31 121 77 171 121 43 37 55 92 30 131 -22 32 -110 74 -156 74 -19 -1 -51
-11 -71 -23z m126 -97 c20 -22 12 -43 -23 -58 -15 -6 -34 -15 -42 -20 -25 -16
-110 -52 -120 -52 -21 0 -9 51 20 84 36 40 103 76 130 69 10 -3 26 -13 35 -23z"/>
<path d="M14673 1819 c-3 -10 -9 -19 -14 -19 -17 0 -9 -47 11 -65 13 -12 27
-15 45 -11 25 6 26 9 20 49 -9 52 -10 53 -36 60 -15 4 -23 0 -26 -14z"/>
<path d="M14989 1707 c-122 -63 -178 -199 -122 -298 21 -36 90 -76 152 -90 44
-9 63 -8 114 6 33 9 69 27 79 38 26 30 47 78 41 94 -8 19 -46 16 -65 -6 -34
-40 -119 -48 -205 -18 -33 11 -43 30 -43 84 0 56 78 123 145 123 30 0 85 29
85 44 0 23 -34 44 -80 48 -35 3 -57 -2 -101 -25z"/>
<path d="M13625 1713 c-36 -8 -123 -42 -162 -63 -21 -11 -43 -20 -49 -20 -15
0 -74 -67 -74 -84 0 -44 26 -131 59 -202 33 -69 47 -86 83 -107 37 -22 55 -26
133 -26 80 0 96 4 162 34 74 34 102 66 90 100 -9 23 -35 29 -55 13 -19 -17
-122 -47 -167 -50 -54 -3 -94 14 -130 53 -39 43 -44 59 -18 59 22 0 103 30
123 45 8 6 32 18 52 28 44 19 66 57 69 118 4 84 -37 120 -116 102z m25 -111
c0 -41 -71 -89 -152 -101 -42 -7 -48 -6 -54 11 -11 36 91 90 199 107 4 0 7 -7
7 -17z"/>
<path d="M14658 1630 c-27 -28 -29 -34 -22 -73 4 -23 8 -73 8 -110 1 -74 10
-87 59 -87 17 0 30 7 34 17 9 22 7 100 -4 188 -13 105 -24 115 -75 65z"/>
<path d="M14242 1627 c-12 -13 -22 -33 -22 -44 0 -39 93 -254 120 -277 8 -7
32 -16 52 -20 35 -6 39 -5 61 31 12 21 31 72 41 113 10 41 27 94 38 118 33 71
6 123 -47 88 -26 -17 -45 -52 -71 -136 -32 -103 -29 -100 -52 -49 -12 26 -26
68 -32 94 -12 52 -27 86 -44 97 -17 11 -21 10 -44 -15z"/>
<path d="M14040 1629 c-14 -6 -38 -24 -54 -40 -16 -17 -36 -27 -43 -24 -8 2
-24 0 -36 -7 -41 -22 -44 -35 -25 -112 10 -39 18 -83 18 -98 0 -45 43 -72 78
-50 7 5 17 47 23 95 10 75 16 90 44 121 29 32 38 36 83 36 43 0 50 3 56 23 14
50 -73 84 -144 56z"/>
<path d="M5877 3353 c-14 -13 -6 -23 19 -23 14 0 34 -5 46 -11 35 -19 31 -2
-5 20 -36 22 -49 25 -60 14z"/>
<path d="M17750 3353 c-13 -5 -85 -60 -139 -105 -22 -19 -7 -155 21 -185 25
-27 36 -28 62 -8 16 12 19 26 17 74 -3 101 34 143 140 160 52 8 71 23 66 51
-2 12 -19 15 -77 17 -41 1 -82 -1 -90 -4z"/>
<path d="M5958 3286 c-20 -15 -14 -26 15 -26 13 0 17 -5 13 -15 -4 -11 1 -15
18 -15 12 0 33 -11 46 -25 13 -14 29 -25 35 -25 6 0 26 -13 45 -30 18 -16 43
-33 54 -36 12 -4 23 -9 26 -13 11 -13 99 -59 207 -107 24 -11 43 -24 43 -29 0
-6 44 -34 98 -63 53 -29 108 -58 122 -66 46 -27 156 -76 169 -76 7 0 25 -8 39
-18 15 -10 47 -24 72 -31 25 -7 58 -17 74 -22 34 -10 78 -12 100 -3 17 7 22
34 6 34 -5 0 -9 6 -7 12 1 8 -17 16 -48 21 -27 5 -75 17 -106 28 -31 10 -61
19 -68 19 -6 0 -24 9 -40 21 -15 11 -34 21 -42 22 -26 4 -79 29 -79 38 0 5 -6
9 -14 9 -8 0 -46 18 -85 40 -39 22 -73 40 -77 40 -4 0 -44 23 -90 50 -46 28
-88 50 -94 50 -6 0 -52 25 -102 55 -50 30 -94 55 -98 55 -4 0 -13 7 -21 16 -7
8 -21 13 -31 11 -10 -3 -18 0 -18 8 0 7 -15 15 -32 19 -52 10 -88 30 -85 46 3
19 -24 23 -45 6z"/>
<path d="M18484 3291 c-41 -7 -84 -32 -118 -70 -18 -19 -18 -22 -3 -39 13 -14
15 -25 7 -53 -6 -23 -6 -67 1 -129 6 -52 12 -151 13 -220 1 -69 5 -131 9 -137
12 -19 52 -16 71 6 16 18 17 36 11 186 -5 117 -4 170 4 179 7 9 26 12 54 9 71
-7 127 17 169 73 44 57 46 70 16 114 -41 60 -143 95 -234 81z m141 -101 c19
-22 14 -50 -10 -50 -9 0 -26 -7 -40 -16 -14 -9 -39 -14 -62 -12 -43 3 -52 23
-34 71 10 25 15 27 69 27 46 0 63 -4 77 -20z"/>
<path d="M16815 3173 c-49 -20 -124 -68 -190 -122 -27 -23 -68 -54 -90 -69
-52 -37 -215 -194 -215 -208 0 -21 44 -36 73 -25 15 6 27 15 27 20 0 5 14 14
30 21 17 7 30 16 30 20 0 4 19 18 43 30 51 26 117 88 117 110 0 9 21 31 48 50
26 18 76 54 111 78 85 60 111 83 111 99 0 18 -46 16 -95 -4z"/>
<path d="M18869 3111 c-38 -38 -39 -83 -3 -116 30 -28 46 -24 92 21 49 50 39
87 -31 113 -25 10 -32 8 -58 -18z"/>
<path d="M5762 2973 c2 -12 12 -18 28 -18 14 0 33 -10 43 -22 18 -23 67 -32
67 -14 0 6 -22 21 -50 35 -27 14 -50 22 -50 19 0 -4 -5 -2 -12 5 -17 17 -30
15 -26 -5z"/>
<path d="M5920 2890 c0 -14 9 -21 35 -26 19 -3 35 -10 35 -16 0 -5 14 -14 30
-19 17 -6 30 -15 30 -20 0 -5 6 -9 14 -9 7 0 40 -12 72 -26 45 -20 63 -23 76
-15 13 8 18 6 23 -10 4 -11 18 -24 31 -29 13 -5 24 -14 24 -20 0 -5 9 -10 19
-10 11 0 32 -6 48 -14 15 -8 39 -18 53 -24 14 -5 46 -19 73 -31 26 -11 54 -21
62 -21 8 0 15 -4 15 -10 0 -5 7 -10 16 -10 8 0 34 -10 57 -22 73 -37 77 -39
128 -45 27 -3 49 -9 49 -14 0 -4 10 -11 23 -15 12 -3 40 -15 62 -24 67 -30
112 -41 139 -34 14 3 26 2 26 -3 0 -12 44 -33 69 -33 10 0 24 -7 31 -15 7 -8
28 -17 49 -20 20 -4 45 -10 56 -15 56 -23 113 -40 133 -40 12 0 30 -4 40 -9
24 -11 109 -40 157 -53 35 -9 271 -98 396 -149 65 -26 149 -34 172 -17 18 13
17 15 -2 39 -15 20 -36 29 -82 38 -34 7 -85 23 -113 36 -29 13 -63 26 -77 28
-29 5 -82 26 -89 35 -7 10 -75 33 -114 39 -17 3 -34 9 -37 15 -3 5 -12 8 -20
7 -14 -2 -52 6 -154 36 -27 7 -77 19 -110 26 -33 7 -64 15 -70 19 -22 15 -286
100 -310 100 -15 0 -23 3 -83 33 -19 9 -44 17 -56 17 -12 0 -27 5 -32 10 -6 6
-19 12 -30 14 -28 6 -95 32 -128 49 -16 9 -33 14 -38 11 -8 -5 -19 0 -105 44
-23 12 -50 22 -60 22 -10 0 -27 7 -37 15 -11 8 -32 15 -47 15 -14 0 -37 8 -50
19 -13 10 -39 22 -56 25 -18 4 -33 11 -33 15 0 5 -28 18 -62 31 -33 12 -80 32
-104 45 -27 14 -46 19 -52 13 -6 -6 -20 0 -37 16 -33 31 -55 33 -55 6z"/>
</g>
</svg>
