<?xml version="1.0" standalone="no"?>
<!DOCTYPE svg PUBLIC "-//W3C//DTD SVG 20010904//EN"
 "http://www.w3.org/TR/2001/REC-SVG-20010904/DTD/svg10.dtd">
<svg version="1.0" xmlns="http://www.w3.org/2000/svg"
 width="607.716062pt" height="400.000000pt" viewBox="0 0 607.716062 400.000000"
 preserveAspectRatio="xMidYMid meet">
<metadata>
Created by potrace 1.15, written by Peter Selinger 2001-2017
</metadata>
<g transform="translate(-21.687945,422.558487) scale(0.038049,-0.038049)"
fill="#444444" stroke="none">
<path d="M2646 11100 c-98 -12 -112 -17 -140 -47 l-24 -26 22 -36 c16 -25 25
-60 30 -111 4 -41 12 -122 18 -180 6 -58 12 -150 14 -205 3 -93 5 -102 29
-122 59 -52 72 -26 74 142 1 71 4 131 6 133 6 7 50 -21 78 -49 15 -16 32 -29
37 -29 6 0 10 -9 10 -20 0 -13 13 -26 38 -39 20 -10 48 -33 60 -51 17 -22 30
-30 43 -27 13 4 19 0 19 -12 0 -20 47 -57 84 -67 36 -9 43 17 18 58 -19 30
-184 190 -247 240 -38 30 -32 46 23 53 26 3 65 15 87 25 22 11 48 20 57 20 9
0 33 19 52 42 30 35 36 49 36 87 0 98 -77 175 -203 204 -101 23 -142 26 -221
17z m233 -112 c55 -14 121 -75 121 -110 0 -20 -12 -31 -61 -57 -58 -31 -66
-32 -158 -29 -53 1 -101 -1 -107 -5 -14 -8 -44 97 -44 152 0 56 22 67 123 63
45 -1 102 -8 126 -14z"/>
<path d="M7768 11096 c-40 -11 -158 -87 -158 -102 0 -11 56 -53 71 -54 34 0
43 -28 40 -123 -2 -51 -3 -103 -1 -117 7 -84 5 -95 -16 -98 -12 -2 -26 -13
-31 -25 -8 -18 -5 -29 15 -54 23 -31 24 -38 18 -115 -12 -157 -12 -218 1 -218
7 0 13 -6 13 -14 0 -8 10 -18 22 -22 25 -8 47 16 50 55 2 33 4 59 13 151 4 41
9 86 10 98 2 24 23 45 37 36 4 -3 24 2 44 11 20 8 43 15 51 15 8 0 28 11 45
25 16 14 37 25 46 25 36 0 80 39 106 93 66 135 24 268 -112 356 -27 17 -56 31
-64 31 -9 0 -18 6 -21 13 -4 10 -56 29 -117 42 -8 2 -36 -2 -62 -9z m221 -147
c105 -84 122 -189 43 -272 -47 -49 -155 -103 -197 -98 -12 1 -12 381 0 401 15
24 109 6 154 -31z"/>
<path d="M6057 11062 c-25 -3 -28 -7 -22 -25 32 -103 58 -224 59 -277 1 -32
-2 -35 -24 -32 -56 6 -77 10 -119 23 -40 12 -44 11 -60 -8 -9 -11 -24 -23 -33
-26 -21 -7 -23 -23 -5 -34 18 -11 146 -53 155 -51 4 1 24 -1 45 -5 l38 -8 -7
-77 c-4 -42 -10 -84 -14 -92 -4 -8 -11 -39 -15 -69 -5 -40 -4 -56 6 -62 17
-11 70 -11 86 -1 19 12 43 94 43 152 0 55 13 126 24 137 3 4 30 10 59 14 28 4
65 12 82 19 l30 11 -25 19 c-14 11 -34 20 -45 20 -11 0 -38 8 -59 18 -39 17
-39 18 -68 132 -39 156 -82 228 -131 222z"/>
<path d="M9937 10992 c-24 -26 -36 -81 -37 -155 0 -32 -4 -66 -9 -75 -5 -9
-12 -100 -16 -202 -4 -102 -9 -203 -12 -225 -2 -22 -6 -56 -8 -75 -2 -19 -7
-58 -11 -85 -6 -50 -6 -50 30 -68 41 -19 66 -22 66 -8 0 6 7 63 16 128 18 134
21 175 29 362 3 74 7 136 9 139 3 2 8 -18 11 -45 5 -33 14 -54 31 -68 16 -14
27 -38 34 -74 6 -30 11 -55 13 -56 1 0 21 -17 45 -38 70 -61 120 -43 161 59
13 33 32 78 42 101 10 24 19 52 19 62 0 24 20 71 30 71 4 0 10 -30 13 -67 9
-129 29 -237 45 -249 14 -10 15 -20 6 -65 -15 -72 -2 -109 47 -137 21 -12 45
-22 54 -22 24 0 29 27 9 57 -11 18 -19 52 -21 93 -2 36 -8 77 -14 92 -6 15 -8
35 -5 44 4 9 2 42 -3 73 -5 31 -12 94 -15 140 -4 46 -8 86 -10 90 -3 4 -7 34
-10 68 -12 124 -42 171 -94 143 -20 -12 -28 -26 -32 -55 -3 -22 -10 -47 -15
-55 -5 -8 -8 -28 -7 -44 2 -16 -5 -37 -13 -47 -9 -9 -17 -23 -19 -31 -1 -7
-10 -26 -21 -41 -15 -24 -16 -33 -7 -48 16 -25 15 -29 -8 -29 -15 0 -23 -12
-35 -52 -8 -28 -15 -58 -15 -65 0 -7 -9 -13 -20 -13 -30 0 -86 119 -115 245
-23 98 -49 161 -86 205 -34 42 -34 42 -52 22z"/>
<path d="M12371 10864 c-21 -21 -22 -28 -12 -50 6 -14 13 -76 16 -138 l5 -114
-64 -4 c-69 -4 -106 -25 -106 -59 0 -22 29 -39 95 -53 l50 -12 -1 -44 c-1 -25
-5 -86 -9 -136 l-8 -90 29 -23 c34 -27 64 -24 81 9 7 14 20 78 29 143 19 137
19 137 123 140 56 2 72 6 81 21 17 27 -4 44 -96 75 -88 30 -90 33 -98 151 -6
89 -53 210 -81 210 -5 0 -21 -12 -34 -26z"/>
<path d="M5609 10855 c-58 -21 -113 -52 -132 -73 -15 -16 -18 -29 -12 -61 7
-41 38 -91 56 -91 14 0 169 -161 169 -175 0 -20 -33 -42 -75 -50 -63 -12 -139
-11 -155 2 -23 18 -62 5 -55 -18 12 -36 -93 -59 -154 -33 -19 8 -41 12 -49 9
-8 -3 -38 6 -68 20 -29 14 -59 25 -66 25 -21 0 -58 29 -58 46 0 8 10 14 24 14
35 0 88 25 115 54 14 14 30 26 37 26 7 0 29 14 49 31 78 69 24 169 -94 173
-45 1 -75 -13 -169 -79 -30 -22 -65 -92 -68 -136 -1 -20 -9 -50 -18 -66 -15
-29 -14 -33 7 -63 15 -22 47 -43 99 -66 85 -38 148 -54 248 -61 62 -4 68 -3
115 30 l50 34 45 -19 c54 -23 194 -36 204 -19 4 6 22 11 39 11 52 1 107 59
107 113 0 24 -84 143 -106 149 -6 2 -39 33 -73 70 -57 61 -62 70 -54 95 8 22
19 30 59 40 27 7 55 10 63 8 8 -3 29 -1 48 6 38 12 45 42 14 59 -26 14 -98 12
-142 -5z m-408 -191 c4 -2 -1 -20 -12 -40 -13 -26 -33 -44 -71 -62 -54 -26
-114 -36 -124 -21 -9 16 54 96 88 111 57 27 87 29 119 12z"/>
<path d="M10781 10736 l-24 -26 41 -37 c23 -21 42 -43 42 -50 0 -6 8 -14 17
-17 22 -9 45 20 34 43 -5 9 -15 36 -22 61 -17 56 -51 66 -88 26z"/>
<path d="M4017 10721 c-13 -9 -43 -29 -67 -44 -23 -16 -59 -35 -79 -42 -64
-23 -95 -43 -140 -88 -38 -40 -42 -49 -36 -76 8 -37 61 -81 98 -81 14 0 29 -4
32 -10 3 -5 27 -10 52 -10 34 0 55 7 79 25 35 27 63 32 65 13 5 -47 7 -57 15
-69 13 -21 34 -134 39 -214 2 -39 9 -91 14 -115 6 -25 11 -75 11 -112 l0 -67
41 -11 c66 -18 70 -11 125 190 19 69 44 148 55 177 11 28 23 77 26 109 l6 57
-33 -6 c-18 -4 -40 -13 -48 -20 -18 -15 -72 -126 -72 -148 0 -9 -7 -22 -15
-29 -13 -11 -15 -8 -15 16 0 16 -7 62 -15 104 -40 202 -66 356 -64 379 6 70
-28 103 -74 72z m-42 -161 c18 -29 -71 -100 -125 -100 -26 0 -30 4 -30 26 0
18 7 28 28 35 15 5 44 18 63 28 40 22 56 25 64 11z"/>
<path d="M6552 10714 c-29 -13 -65 -35 -78 -48 -24 -21 -24 -25 -14 -67 9 -37
30 -64 126 -159 63 -63 114 -120 114 -127 0 -16 -23 -21 -98 -22 -69 -1 -113
14 -167 55 -25 19 -42 25 -60 20 -27 -7 -35 -36 -10 -36 8 0 15 -8 15 -17 0
-33 81 -87 145 -97 125 -19 183 -18 227 5 44 22 67 45 68 66 0 6 -18 33 -40
58 -22 25 -40 50 -40 54 0 4 -38 46 -85 94 -92 95 -105 123 -65 144 28 14 138
17 159 4 15 -10 55 3 80 25 11 10 10 16 -5 38 -19 26 -48 34 -59 16 -4 -7 -13
-6 -27 1 -11 6 -35 8 -53 5 -19 -4 -36 -2 -40 4 -10 16 -35 11 -93 -16z"/>
<path d="M4607 10692 c-9 -9 -32 -56 -52 -102 -43 -102 -76 -162 -92 -167 -7
-3 -22 10 -33 29 -16 27 -20 50 -20 124 0 75 -3 94 -18 107 -46 42 -87 2 -83
-81 1 -31 6 -59 10 -62 4 -3 8 -33 8 -67 -1 -82 20 -105 111 -127 l67 -15 42
46 c24 26 48 63 54 83 21 65 63 93 66 43 0 -14 8 -30 17 -35 9 -5 16 -15 16
-22 0 -18 24 -66 33 -66 4 0 7 -8 7 -18 0 -17 59 -52 88 -52 14 0 16 32 3 46
-5 5 -16 34 -26 64 -10 30 -21 60 -26 65 -8 11 -34 80 -51 135 -5 19 -16 42
-24 51 -8 8 -14 21 -14 27 0 19 -65 14 -83 -6z"/>
<path d="M3364 10690 c-39 -9 -84 -40 -118 -83 -15 -17 -30 -37 -35 -43 -23
-29 -32 -58 -29 -102 2 -49 29 -92 56 -92 9 0 23 -6 31 -14 9 -8 67 -22 129
-31 107 -16 115 -16 163 1 60 22 91 50 69 64 -8 6 -55 10 -105 11 -49 1 -94 2
-100 4 -5 1 -16 3 -22 3 -40 5 18 42 65 42 33 0 88 47 97 83 4 13 5 39 3 58
-6 63 -118 118 -204 99z m104 -90 c31 -8 42 -16 40 -27 -5 -27 -53 -55 -104
-59 -27 -2 -66 -6 -87 -9 -28 -4 -39 -1 -43 10 -10 25 41 82 83 93 40 10 42
10 111 -8z"/>
<path d="M8314 10688 c-35 -22 -84 -66 -84 -77 0 -6 -4 -11 -8 -11 -20 0 -44
-63 -38 -99 5 -34 2 -41 -39 -81 -39 -38 -43 -46 -31 -59 18 -21 56 -109 56
-131 0 -10 7 -23 15 -30 8 -7 15 -18 15 -24 0 -15 37 -48 70 -63 90 -40 133
-41 238 -7 54 18 75 39 115 111 l17 33 -26 0 c-16 0 -34 -11 -50 -29 -23 -28
-50 -37 -124 -45 -96 -10 -159 27 -180 105 -13 47 -2 69 35 69 32 0 121 42
180 84 27 20 55 36 61 36 6 0 21 11 33 24 20 21 21 28 11 65 -6 22 -15 41 -20
41 -5 0 -22 12 -37 26 -60 56 -166 87 -209 62z m129 -103 c15 -13 27 -31 27
-39 0 -18 -132 -84 -175 -88 -29 -3 -30 -1 -26 32 3 36 38 86 75 107 33 19 68
15 99 -12z"/>
<path d="M8908 10643 c-14 -2 -32 -11 -38 -19 -7 -8 -18 -14 -25 -14 -20 0
-74 -67 -99 -124 -13 -29 -31 -56 -39 -59 -30 -11 -45 -58 -37 -112 14 -93 45
-160 84 -184 20 -12 30 -13 44 -5 14 9 18 33 24 143 5 116 9 138 35 193 33 71
64 93 146 103 46 6 97 43 97 71 0 10 -136 15 -192 7z"/>
<path d="M11213 10615 c-30 -13 -78 -63 -102 -105 -15 -27 -21 -89 -23 -234 0
-81 2 -92 22 -108 24 -19 47 -23 67 -10 9 6 14 50 16 148 2 113 7 146 22 177
18 35 22 38 50 33 27 -5 85 -58 85 -78 0 -5 9 -27 19 -51 20 -44 34 -164 21
-188 -25 -47 -22 -58 21 -70 39 -12 42 -11 59 11 27 36 32 79 20 177 -9 71
-19 102 -52 165 -23 43 -53 89 -67 102 -34 32 -118 48 -158 31z"/>
<path d="M13009 10615 c-4 -3 -28 -11 -53 -18 -57 -15 -174 -105 -205 -159
-27 -48 -28 -120 -2 -157 11 -15 23 -39 26 -53 10 -41 61 -94 121 -127 49 -27
67 -30 177 -36 132 -7 157 -1 197 45 37 43 27 58 -37 59 -184 3 -235 10 -275
36 -70 47 -74 113 -6 107 22 -2 39 2 47 12 8 9 19 16 27 16 48 0 154 79 154
114 -2 56 -82 154 -133 163 -18 2 -35 2 -38 -2z m31 -129 c12 -14 20 -32 17
-40 -8 -21 -89 -56 -129 -56 -19 0 -39 -5 -45 -11 -13 -13 -35 -2 -31 15 5 22
122 115 144 115 11 1 31 -10 44 -23z"/>
<path d="M11651 10559 l-34 -31 6 -115 c9 -172 46 -223 160 -223 77 0 114 27
142 103 10 26 21 50 25 52 4 3 18 -21 30 -53 13 -31 34 -74 48 -95 22 -33 30
-38 60 -35 54 5 59 24 27 104 -15 38 -31 73 -36 79 -5 5 -9 16 -9 25 0 30 -67
185 -81 188 -32 6 -82 -42 -98 -93 -17 -51 -88 -175 -101 -175 -12 0 -37 34
-45 60 -4 13 -7 65 -7 113 2 132 -21 157 -87 96z"/>
<path d="M10778 10567 c-26 -20 -46 -122 -35 -177 4 -25 9 -88 10 -140 l2 -95
36 -3 c52 -4 81 31 69 83 -7 28 -11 102 -13 215 l-2 125 -25 2 c-14 2 -33 -3
-42 -10z"/>
<path d="M1246 10118 c-13 -40 -15 -90 -6 -133 6 -28 12 -87 14 -132 4 -84 -3
-100 -38 -87 -8 3 -34 0 -57 -6 -77 -21 -99 -58 -58 -96 20 -18 32 -20 147
-24 10 0 12 -28 8 -136 -3 -75 -8 -140 -11 -144 -10 -17 38 -50 72 -50 44 0
49 13 57 182 7 157 11 172 38 165 11 -3 35 1 55 9 29 12 34 19 29 37 -3 12 -6
25 -6 28 0 4 -19 12 -42 18 -69 18 -79 31 -89 113 -5 40 -12 84 -15 98 -4 14
-8 30 -8 35 -2 20 -29 90 -39 103 -18 23 -47 34 -51 20z"/>
<path d="M592 9934 c-18 -12 -22 -25 -22 -69 0 -30 5 -57 10 -60 6 -3 10 -36
10 -73 0 -37 4 -103 10 -147 5 -44 11 -127 13 -184 4 -88 8 -108 25 -128 26
-30 67 -30 83 -1 16 30 3 320 -21 473 -5 33 -12 80 -16 105 -7 47 -37 100 -57
100 -7 0 -23 -7 -35 -16z"/>
<path d="M1818 9773 c-21 -5 -26 -46 -35 -308 -9 -268 -9 -567 1 -750 4 -82 7
-159 6 -170 -7 -79 -5 -370 2 -460 10 -119 14 -206 22 -475 3 -96 10 -233 16
-305 5 -71 10 -188 10 -260 -1 -71 4 -156 9 -189 6 -34 8 -170 6 -325 -3 -146
-5 -374 -5 -506 0 -132 -4 -323 -10 -425 -16 -311 -20 -513 -21 -1055 0 -287
-5 -583 -11 -660 -13 -158 -13 -175 -9 -335 1 -63 0 -200 -4 -305 -3 -104 -8
-365 -10 -580 -3 -214 -9 -491 -14 -615 -5 -124 -8 -443 -6 -710 2 -267 0
-514 -3 -550 -11 -105 -6 -124 36 -148 35 -20 45 -20 189 -12 84 5 156 11 162
14 10 7 128 14 331 22 80 2 186 7 235 9 214 10 528 17 630 14 128 -4 188 -3
305 5 47 3 209 5 360 5 151 -1 307 0 345 2 136 6 562 4 715 -4 85 -5 160 -9
165 -9 6 0 123 0 260 0 138 0 284 1 325 3 97 5 199 3 330 -5 210 -13 1144 -6
1375 10 36 2 194 7 690 20 94 3 184 9 200 14 17 5 118 9 225 9 188 0 484 10
960 32 124 6 234 10 245 10 11 0 73 0 137 0 64 -1 141 4 170 10 28 6 79 9 113
6 33 -3 220 -9 415 -12 349 -6 456 -9 695 -19 105 -5 301 -11 530 -17 39 -1
87 -6 107 -11 20 -4 58 -8 85 -8 53 -1 209 -19 233 -27 12 -4 207 -5 298 -2 9
1 44 -4 78 -10 95 -17 328 -32 604 -38 204 -4 474 -11 645 -15 11 0 54 3 96 9
42 5 104 6 137 3 33 -3 73 -2 89 3 30 8 238 16 487 17 100 1 160 5 181 14 18
8 37 11 43 7 10 -6 151 -6 812 2 233 3 318 1 358 -10 46 -11 57 -11 83 3 79
40 99 86 54 122 -21 17 -47 20 -197 26 -95 3 -180 6 -188 6 -8 0 -37 0 -65 1
-27 0 -88 0 -135 -1 -47 0 -204 -2 -350 -4 -146 -1 -292 -5 -325 -9 -33 -4
-85 -3 -115 1 -30 4 -84 4 -120 1 -64 -7 -187 -14 -444 -24 -117 -5 -132 -4
-169 15 l-40 21 -29 -21 c-27 -20 -40 -21 -366 -23 -185 -1 -398 2 -472 5
-169 9 -356 11 -368 5 -4 -3 -26 -2 -48 3 -62 14 -226 29 -384 35 -80 4 -177
10 -216 15 -39 5 -88 7 -107 3 -28 -4 -38 -2 -43 11 -5 13 -21 16 -74 16 -37
0 -102 3 -145 7 -72 6 -78 8 -87 33 -5 15 -20 32 -34 39 -23 10 -27 8 -42 -19
-10 -18 -28 -32 -46 -36 -47 -10 -425 -7 -527 5 -52 6 -121 11 -154 10 -33 0
-200 0 -371 1 -203 1 -325 -2 -352 -10 -28 -7 -48 -8 -61 -1 -11 6 -76 8 -162
6 -79 -3 -218 -7 -309 -10 -91 -2 -217 -7 -280 -10 -63 -3 -212 -7 -330 -10
-458 -10 -636 -16 -670 -21 -33 -5 -398 -14 -600 -15 -52 0 -176 -7 -275 -15
-99 -7 -298 -16 -441 -18 -149 -2 -270 -8 -281 -14 -13 -7 -25 -7 -38 1 -24
15 -257 12 -284 -3 -12 -6 -29 -6 -48 0 -50 16 -590 37 -692 27 -37 -4 -48 11
-32 42 10 17 7 23 -12 36 -35 23 -97 0 -117 -43 -14 -30 -18 -32 -75 -34 -144
-4 -555 4 -610 13 -36 6 -264 8 -560 5 -275 -3 -529 -2 -565 2 -36 4 -103 4
-150 -1 -81 -8 -216 -12 -675 -21 -357 -7 -578 -16 -670 -27 -107 -13 -446
-37 -460 -32 -13 4 -9 331 5 428 6 39 7 104 3 145 -12 126 -6 941 14 1770 3
140 7 343 8 450 1 107 5 357 9 555 4 198 8 480 9 626 2 264 2 267 25 285 19
17 21 23 13 52 -6 18 -8 39 -5 47 3 7 1 16 -5 20 -6 3 -11 20 -11 38 l0 31 21
-21 c18 -18 23 -40 31 -130 11 -121 20 -140 49 -104 16 20 19 40 20 140 1 117
9 175 22 155 8 -13 28 -118 30 -159 1 -16 6 -36 11 -43 4 -7 10 -40 13 -72 5
-48 10 -61 26 -66 24 -8 47 18 47 51 0 12 9 30 20 40 14 13 20 31 20 63 0 80
22 221 36 233 11 9 14 6 14 -14 0 -14 5 -29 10 -32 6 -3 10 -22 10 -41 0 -19
8 -51 17 -72 10 -20 18 -62 19 -92 1 -30 4 -73 8 -95 4 -22 7 -64 6 -92 -1
-45 2 -53 18 -53 10 0 28 9 39 19 18 17 22 36 28 156 4 75 9 134 11 133 1 -2
5 -16 8 -31 2 -14 8 -32 12 -39 5 -7 11 -37 15 -67 10 -68 19 -78 58 -61 33
13 54 64 51 118 -4 59 0 113 9 108 8 -5 19 -81 26 -176 2 -19 8 -48 14 -63 6
-16 11 -43 11 -62 0 -18 8 -43 18 -55 16 -19 22 -21 40 -11 12 6 26 28 31 49
13 50 31 194 32 262 1 50 1 52 10 25 6 -16 22 -55 37 -85 16 -34 27 -74 28
-105 2 -88 2 -87 31 -83 42 5 53 38 53 168 0 63 3 125 6 138 12 41 36 20 54
-46 10 -34 25 -71 34 -81 9 -9 16 -33 16 -53 0 -28 5 -37 25 -46 34 -16 72
-15 82 1 4 6 9 46 10 87 6 213 38 297 58 153 4 -29 15 -63 25 -76 12 -15 17
-32 13 -45 -3 -15 0 -24 11 -28 11 -4 14 -13 11 -25 -5 -14 0 -20 22 -25 15
-3 33 -7 40 -9 20 -7 52 44 58 93 4 26 13 76 21 112 9 36 15 73 15 83 0 9 4
17 9 17 16 0 23 -36 26 -130 1 -52 3 -98 3 -102 1 -5 8 -8 16 -8 8 0 15 -7 15
-15 0 -32 46 -10 69 33 5 9 12 49 15 87 12 124 17 155 27 155 6 0 7 -5 4 -10
-4 -6 0 -24 9 -41 8 -16 12 -37 9 -45 -3 -8 0 -21 7 -29 10 -12 10 -21 1 -41
-13 -30 -5 -171 12 -191 16 -21 44 -15 67 14 20 25 21 36 17 192 -2 91 -1 177
3 191 5 23 7 22 29 -23 13 -27 24 -67 26 -90 1 -23 7 -55 13 -72 28 -73 44
-147 38 -175 -7 -39 20 -110 43 -110 30 0 41 16 51 72 10 62 15 180 9 194 -2
5 -3 55 -1 112 3 89 6 103 20 100 12 -2 16 -17 18 -66 1 -35 4 -65 6 -66 2 -2
17 -6 35 -9 31 -6 33 -4 57 47 14 29 27 72 28 95 3 40 18 59 18 22 0 -11 5
-21 11 -23 9 -3 50 -237 51 -300 1 -22 6 -28 22 -28 12 0 30 -3 41 -6 25 -6
50 32 60 91 14 80 16 84 35 40 12 -29 16 -58 12 -105 -5 -79 10 -139 42 -169
48 -45 85 -5 98 104 5 39 11 86 14 105 3 19 6 74 7 123 1 120 20 109 25 -14 2
-52 8 -100 14 -107 6 -7 11 -34 12 -59 1 -42 4 -49 27 -57 20 -7 32 -5 52 10
14 10 29 26 33 34 4 8 8 74 10 145 1 72 2 134 3 138 1 4 9 3 20 -2 13 -8 20
-26 24 -71 3 -33 12 -72 21 -85 9 -13 16 -35 16 -47 0 -32 11 -45 44 -58 64
-24 85 19 96 192 5 71 7 135 4 143 -3 7 0 24 6 36 l13 22 13 -24 c7 -13 13
-31 14 -39 0 -8 7 -28 15 -44 8 -15 15 -33 15 -40 0 -6 6 -23 14 -38 19 -37
66 -183 66 -206 0 -24 35 -48 83 -57 30 -6 38 -3 51 18 24 36 42 172 30 232
-6 31 -6 61 -1 80 6 17 12 36 14 44 2 10 9 5 19 -15 10 -19 17 -63 19 -125 3
-84 15 -143 46 -224 4 -11 13 -44 19 -73 7 -28 18 -55 25 -60 7 -4 12 -18 11
-32 -1 -15 5 -26 15 -28 24 -5 34 30 13 45 -15 11 -15 13 -2 18 13 5 15 30 14
162 -1 120 2 157 12 161 10 3 13 -15 11 -79 -1 -46 3 -104 10 -129 6 -25 12
-58 13 -75 2 -24 8 -31 29 -33 14 -2 30 3 36 10 15 21 33 114 33 176 0 31 7
92 15 135 8 43 15 81 15 83 0 2 5 4 10 4 6 0 10 -13 10 -29 0 -16 6 -41 14
-56 8 -15 12 -33 9 -40 -7 -20 26 -127 48 -154 10 -13 25 -21 32 -18 23 9 47
111 53 223 3 60 12 143 21 184 9 41 17 86 17 100 1 37 26 31 41 -10 7 -19 20
-54 29 -77 10 -28 14 -58 10 -86 -4 -28 0 -60 11 -92 9 -28 18 -73 18 -101 1
-41 6 -54 25 -68 22 -17 25 -17 42 -1 10 9 21 28 24 43 7 31 28 606 26 730 0
46 2 92 5 103 8 25 35 25 35 0 0 -11 4 -22 9 -25 4 -3 14 -34 20 -68 7 -35 19
-86 27 -114 8 -29 13 -63 10 -77 -4 -26 30 -67 57 -67 29 0 48 71 57 214 6 77
12 159 15 181 5 35 15 207 14 243 0 6 0 24 0 40 -1 15 2 86 6 157 6 110 10
133 27 152 20 22 53 137 44 152 -3 4 -1 24 4 43 6 19 12 62 14 94 15 211 30
319 47 332 10 6 23 29 30 49 13 42 21 241 9 248 -5 3 -1 31 7 63 9 34 13 78
10 109 -4 36 -1 55 8 63 17 14 25 2 30 -43 16 -132 23 -236 19 -253 -6 -24 20
-94 35 -94 21 0 42 13 53 34 11 19 30 232 29 319 0 20 3 37 8 37 10 0 25 -48
22 -67 -1 -7 5 -35 13 -63 8 -27 12 -65 9 -84 -3 -22 2 -54 13 -86 16 -45 21
-51 43 -48 32 4 48 55 55 171 3 45 8 111 11 147 4 36 9 110 13 165 6 84 10
100 25 103 13 3 17 -4 17 -30 0 -18 5 -51 10 -73 18 -80 21 -102 31 -240 11
-155 20 -185 56 -185 35 0 51 47 58 171 14 249 24 341 38 355 10 10 33 -57 41
-115 4 -30 10 -59 13 -64 3 -6 8 -42 10 -81 4 -81 29 -139 61 -144 14 -2 24 3
28 15 3 10 12 29 19 43 7 14 15 61 16 104 1 44 6 100 11 125 5 25 13 75 18
111 9 66 22 123 44 195 9 28 18 40 32 40 12 0 18 -6 16 -16 -1 -9 5 -22 13
-29 17 -14 20 -46 5 -55 -15 -9 -12 -43 10 -113 13 -41 18 -77 14 -100 -4 -25
1 -58 15 -99 12 -34 21 -76 21 -94 0 -41 35 -89 65 -89 28 0 38 28 55 145 16
103 31 166 40 160 13 -8 22 -173 10 -195 -8 -15 -7 -27 3 -47 11 -19 12 -34 5
-54 -7 -20 -5 -35 7 -58 27 -53 72 -33 91 42 14 60 29 19 36 -99 3 -65 4 -122
2 -125 -2 -3 13 -13 32 -22 l35 -17 10 28 c6 16 9 85 6 172 -4 156 -2 170 18
170 7 0 23 16 34 36 21 35 22 50 24 360 2 252 5 325 15 329 19 7 30 -34 27
-96 -2 -43 1 -58 16 -72 19 -18 19 -19 1 -42 -19 -23 -19 -27 -2 -87 13 -47
24 -68 49 -86 24 -19 35 -22 43 -14 16 16 29 15 27 0 -2 -7 2 -31 8 -53 15
-54 33 -165 33 -206 0 -56 10 -75 50 -98 62 -35 62 -33 52 -203 -5 -84 -13
-160 -16 -169 -5 -11 2 -22 19 -33 26 -17 28 -17 50 4 29 27 34 70 40 345 4
204 17 264 29 133 3 -40 14 -97 23 -126 12 -42 14 -58 4 -78 -20 -45 -14 -69
22 -82 18 -7 38 -12 44 -12 22 0 42 82 57 235 9 88 22 180 28 205 6 25 11 56
10 70 0 31 14 50 39 50 15 0 17 -6 12 -34 -4 -27 -2 -35 13 -40 16 -5 19 -17
21 -83 3 -172 18 -296 39 -332 30 -50 94 -20 94 43 0 43 32 229 41 240 16 18
39 -54 39 -126 1 -63 4 -77 25 -100 26 -30 56 -36 74 -15 6 8 15 38 21 66 5
29 12 57 16 62 3 5 9 48 14 97 7 75 34 219 42 228 2 1 12 -4 22 -12 14 -10 20
-28 22 -64 2 -28 10 -65 18 -83 15 -33 15 -98 1 -213 l-8 -61 33 -17 c24 -11
37 -13 46 -5 18 15 36 107 37 190 1 66 11 83 28 48 18 -35 38 -168 34 -216 -5
-50 -4 -53 24 -68 50 -25 69 -20 77 20 8 42 29 41 30 -1 1 -16 9 -46 18 -66
10 -24 16 -65 16 -115 0 -43 4 -108 8 -145 4 -38 4 -75 -1 -83 -6 -11 -3 -25
8 -41 22 -34 39 -39 69 -19 28 18 38 61 40 169 l1 61 47 -3 c45 -3 46 -2 58
33 6 19 12 77 14 130 1 52 5 97 9 101 4 4 16 -5 28 -19 28 -37 72 -37 96 0 16
24 18 53 19 218 1 179 12 318 29 345 5 8 16 1 35 -22 15 -18 25 -37 22 -43
-12 -19 -12 -200 -1 -227 8 -21 7 -42 -6 -93 -14 -56 -14 -71 -3 -96 7 -16 16
-29 20 -29 24 0 59 24 73 49 18 35 20 122 3 139 -9 9 -7 13 6 18 25 9 53 -20
38 -39 -21 -25 -20 -81 2 -147 24 -73 46 -86 84 -49 26 24 27 23 51 -23 14
-26 25 -33 47 -33 47 0 64 51 69 202 8 220 40 199 50 -32 5 -117 8 -138 25
-155 25 -25 42 -25 65 0 17 18 20 38 28 147 4 42 12 61 22 51 3 -3 6 -55 6
-116 1 -114 4 -124 45 -134 43 -11 67 34 84 152 5 36 13 83 17 105 5 22 6 60
3 85 -3 25 2 81 11 125 10 44 20 97 23 118 8 44 22 48 30 10 4 -16 9 -39 12
-53 10 -46 4 -360 -7 -406 -11 -41 -10 -48 7 -64 27 -25 74 -10 98 31 18 30
39 162 36 232 -1 39 18 33 26 -8 3 -19 10 -38 15 -41 5 -3 1 -16 -8 -30 -14
-22 -14 -32 -4 -82 7 -31 19 -70 27 -85 8 -16 14 -37 14 -47 0 -11 8 -23 18
-28 23 -13 62 3 62 25 1 62 10 186 14 191 3 3 17 -20 32 -51 14 -32 31 -57 38
-57 28 0 46 37 52 108 4 39 11 69 15 66 5 -3 8 -17 6 -32 -4 -44 23 -205 41
-240 12 -26 21 -32 41 -30 21 2 30 14 49 62 13 32 30 93 39 135 8 42 19 92 22
111 7 31 8 28 15 -35 4 -38 11 -86 16 -105 6 -19 9 -51 7 -70 -2 -19 1 -43 6
-53 5 -12 2 -45 -9 -92 -16 -70 -16 -75 0 -100 25 -38 65 -31 88 15 10 19 17
44 16 55 -2 29 12 85 22 85 20 0 21 -32 1 -155 -6 -33 -6 -76 -2 -95 4 -19 4
-71 0 -115 -17 -196 -21 -232 -29 -265 -5 -19 -12 -64 -16 -99 -7 -63 -7 -64
25 -90 31 -25 32 -29 37 -126 3 -55 10 -147 16 -205 5 -58 12 -154 15 -215 4
-107 5 -130 2 -177 -1 -13 -1 -90 0 -173 2 -82 0 -213 -2 -290 -3 -80 -1 -147
4 -157 11 -20 39 -24 56 -7 8 8 17 8 32 0 21 -12 27 -31 14 -44 -3 -4 -7 -19
-9 -34 -1 -16 -5 -56 -9 -91 -7 -53 -5 -65 10 -82 10 -11 25 -20 33 -20 20 0
72 58 72 82 0 16 5 18 33 13 32 -6 35 -4 58 39 24 47 39 58 39 31 0 -28 30
-75 48 -75 11 0 31 21 50 54 27 43 33 63 31 100 -3 55 17 86 27 40 3 -16 14
-39 24 -52 39 -48 99 15 106 113 5 67 16 125 24 125 8 0 20 -50 20 -85 0 -13
7 -25 15 -29 15 -5 15 -49 1 -86 -8 -19 52 -54 76 -45 9 4 26 29 38 56 l21 50
24 -23 c16 -14 25 -34 25 -53 0 -17 9 -48 20 -70 11 -22 20 -53 20 -70 0 -16
6 -57 13 -91 8 -39 10 -72 4 -94 -7 -29 -6 -37 13 -52 34 -28 59 -23 74 14 8
20 17 104 21 203 5 94 9 184 10 200 1 17 3 45 3 63 1 17 6 32 11 32 10 0 17
-25 27 -86 3 -21 12 -49 20 -62 11 -17 12 -27 3 -43 -6 -13 -8 -40 -4 -72 10
-71 20 -93 50 -113 24 -16 27 -16 45 1 26 24 50 99 50 159 0 62 14 91 25 55 5
-13 9 -37 10 -52 2 -15 4 -29 6 -31 45 -30 58 -34 72 -23 30 23 59 108 52 155
-4 27 -2 42 4 42 6 0 11 -19 11 -43 0 -23 7 -53 16 -65 8 -12 12 -26 9 -32 -3
-5 -1 -36 6 -69 l11 -58 105 -7 c100 -7 106 -6 129 15 l23 22 5 -24 c11 -51
26 -170 26 -207 0 -28 7 -45 24 -61 36 -34 68 -20 101 42 28 50 35 91 49 287
5 66 16 170 22 209 5 31 6 32 18 15 7 -11 16 -59 20 -109 12 -156 25 -218 48
-236 20 -16 23 -15 59 10 58 40 63 57 68 244 0 31 5 57 9 57 12 0 31 -110 38
-221 4 -52 11 -100 17 -106 15 -21 62 -15 84 10 28 30 54 114 56 181 3 86 14
52 27 -79 19 -204 24 -234 44 -247 23 -16 47 -7 86 32 32 32 40 47 40 76 0 19
4 43 9 53 10 18 22 151 26 296 2 50 6 98 10 108 4 9 4 37 1 62 -5 29 -4 45 3
45 6 0 11 -12 12 -27 2 -49 6 -91 14 -130 6 -34 13 -190 15 -325 0 -42 3 -48
24 -54 14 -3 40 -1 59 5 30 10 38 20 58 74 16 42 25 56 27 42 5 -23 21 -45 32
-45 5 0 22 18 38 40 23 32 31 55 36 108 11 108 40 128 42 29 2 -70 12 -156 19
-167 4 -6 16 -10 28 -10 45 0 71 93 82 295 3 54 8 101 10 104 10 10 19 -11 21
-52 3 -53 21 -124 34 -132 19 -12 68 25 80 60 12 37 29 47 31 18 4 -54 1 -132
-5 -162 -6 -23 -3 -44 9 -72 19 -42 25 -45 56 -29 36 20 56 79 63 190 6 102
20 148 30 99 21 -109 41 -244 50 -334 7 -70 41 -84 80 -32 21 28 25 57 25 195
l1 72 32 -2 c26 -3 34 2 50 28 10 18 20 49 23 70 2 22 11 63 18 93 8 30 13 59
11 65 -2 6 0 18 6 26 16 25 31 -3 37 -69 3 -34 10 -64 14 -67 5 -3 9 -16 9
-29 0 -14 9 -29 21 -36 17 -9 25 -7 42 9 16 15 26 18 39 11 22 -12 27 -46 31
-191 4 -132 13 -153 59 -143 16 4 28 2 28 -3 0 -6 7 -18 16 -26 8 -9 17 -27
18 -41 4 -40 20 -50 56 -35 40 17 50 43 50 133 0 40 5 79 10 87 5 8 10 11 10
6 0 -4 11 -1 25 8 13 9 26 16 28 16 2 0 3 -27 3 -59 -1 -66 16 -95 60 -104 33
-6 55 27 79 118 l19 70 11 -71 c18 -119 53 -149 114 -98 23 19 33 39 43 84 13
63 28 71 28 14 0 -41 20 -93 43 -113 14 -11 21 -10 49 6 36 21 46 45 47 121 1
28 4 52 9 52 4 0 16 -24 26 -52 11 -32 34 -68 57 -90 22 -21 40 -48 41 -60 0
-13 1 -30 2 -38 1 -8 10 -15 21 -15 21 0 22 5 39 230 4 50 10 404 7 438 -1 19
-22 22 -49 8 -9 -5 -25 -12 -34 -15 -15 -5 -18 -18 -18 -96 0 -96 -13 -113
-24 -33 -4 27 -12 60 -18 76 -22 58 -99 19 -124 -63 l-11 -35 -7 50 c-3 28
-13 68 -20 90 -12 36 -16 40 -42 37 -46 -5 -60 -31 -67 -127 -3 -48 -2 -97 4
-112 7 -20 6 -28 -8 -39 -16 -11 -19 -8 -25 34 -3 26 -11 99 -17 162 -5 63
-13 123 -16 133 -9 23 -38 22 -60 -3 -10 -11 -24 -20 -32 -20 -10 0 -12 -12
-7 -52 4 -35 0 -74 -10 -114 -9 -34 -16 -75 -16 -90 0 -16 -5 -47 -11 -69 -10
-33 -13 -37 -19 -20 -4 11 -10 65 -13 120 -8 130 -24 202 -47 215 -30 16 -96
12 -120 -8 -20 -16 -22 -28 -25 -127 -1 -61 -6 -131 -10 -158 -4 -27 -3 -52 2
-60 6 -7 7 -34 4 -62 -9 -66 -16 -41 -31 105 -19 199 -20 203 -57 214 -32 9
-33 10 -34 70 -1 34 0 71 1 83 2 28 -19 105 -28 101 -4 -2 -20 -10 -37 -18
-41 -20 -45 -27 -45 -95 0 -78 -12 -97 -29 -47 -8 20 -22 49 -33 65 -19 27
-20 27 -50 10 -28 -16 -71 -91 -102 -178 -7 -19 -8 -19 -21 5 -8 14 -14 33
-15 42 0 22 -10 27 -41 21 -36 -7 -49 -40 -49 -121 0 -102 -16 -107 -23 -8 -4
47 -12 97 -17 111 -6 14 -10 42 -10 61 0 49 -15 74 -41 69 -12 -3 -23 -6 -26
-8 -7 -8 -16 -52 -20 -107 -7 -85 -19 -80 -27 12 -4 46 -9 91 -10 101 -5 35
-21 37 -60 10 -34 -25 -37 -31 -32 -61 5 -34 -26 -178 -42 -194 -10 -10 -27
46 -38 122 -3 25 -11 64 -16 88 -10 40 -13 43 -37 37 -31 -8 -65 -41 -56 -55
6 -9 -9 -233 -22 -340 -10 -84 -22 -13 -22 140 -1 177 -4 190 -41 190 -32 0
-39 -17 -41 -100 -1 -67 -13 -157 -22 -167 -17 -17 -27 22 -37 142 -16 208
-22 237 -47 246 -17 6 -29 2 -54 -22 -30 -28 -31 -31 -28 -101 5 -134 -2 -364
-11 -343 -5 11 -9 41 -9 68 -1 26 -5 47 -10 47 -4 0 -6 11 -3 25 2 14 -1 39
-8 56 -7 17 -13 48 -12 70 1 28 -4 44 -20 58 -16 15 -18 24 -10 34 14 17 -11
93 -30 89 -64 -13 -84 -73 -92 -281 -5 -121 -17 -252 -31 -346 -2 -11 -4 -27
-4 -35 -1 -10 -4 -11 -11 -4 -6 6 -15 74 -20 152 -5 78 -14 150 -20 161 -6 11
-12 78 -15 148 -5 144 -22 241 -47 256 -11 7 -25 7 -46 -2 -28 -12 -30 -17
-35 -74 -3 -34 -6 -142 -7 -241 0 -98 -4 -185 -9 -193 -4 -9 -13 30 -20 99
-19 161 -18 157 -30 223 -13 71 -29 115 -44 115 -22 0 -77 -24 -78 -35 0 -5
-2 -21 -4 -35 -2 -14 -7 -90 -10 -170 -7 -179 -15 -260 -26 -260 -5 0 -11 12
-14 28 -4 15 -10 45 -15 67 -5 22 -12 81 -15 130 -11 162 -16 200 -36 231 -11
18 -17 38 -14 46 3 8 -1 21 -10 28 -13 11 -21 11 -47 -2 -37 -17 -36 -13 -43
-233 -3 -88 -7 -166 -10 -173 -3 -7 -7 -61 -10 -120 -6 -102 -19 -162 -35
-162 -12 0 -24 114 -34 346 -6 135 -50 216 -94 172 -15 -15 -14 -17 -38 77
-23 94 -44 107 -87 56 -25 -30 -25 -32 -24 -208 1 -203 -10 -254 -36 -162 -8
30 -15 68 -15 84 -1 17 -6 59 -12 95 -6 36 -13 103 -15 149 -3 46 -10 90 -16
97 -16 19 -43 17 -69 -4 -20 -16 -22 -23 -13 -49 8 -22 7 -35 -3 -54 -10 -17
-13 -56 -12 -141 2 -82 -1 -121 -9 -129 -7 -7 -15 -10 -18 -8 -7 8 -26 98 -29
144 -4 45 -33 206 -40 212 -8 9 -57 -10 -65 -26 -13 -25 -20 -192 -10 -219 6
-16 6 -37 -1 -58 -6 -18 -11 -55 -12 -81 0 -27 -6 -59 -13 -72 -12 -23 -13
-23 -18 -5 -3 10 -9 37 -13 59 -4 22 -11 48 -15 57 -5 10 -10 40 -10 68 -1 32
-8 59 -19 73 -16 19 -20 20 -43 8 -21 -11 -25 -22 -29 -73 -3 -35 -10 -63 -18
-68 -10 -6 -13 -32 -13 -91 1 -55 -4 -93 -13 -111 -19 -36 -44 -37 -44 -2 0
48 -31 218 -47 259 -9 22 -15 56 -14 75 2 54 -10 65 -48 46 -27 -14 -31 -22
-32 -59 -1 -55 -21 -111 -42 -115 -14 -3 -17 6 -17 50 0 29 -8 98 -16 153 -9
55 -17 120 -18 145 -2 47 -20 90 -36 90 -6 0 -19 -9 -30 -20 -19 -19 -27 -73
-22 -152 1 -15 -3 -30 -8 -33 -6 -3 -10 -30 -10 -58 0 -58 -14 -91 -29 -69 -4
7 -11 65 -15 127 -3 63 -10 125 -16 139 -13 34 -42 33 -80 -1 -28 -27 -29 -29
-18 -70 10 -34 9 -55 -1 -100 -7 -32 -16 -73 -18 -91 -8 -51 -23 -48 -23 5 0
104 -25 203 -51 203 -22 0 -64 -64 -65 -98 -2 -60 -3 -64 -19 -58 -8 3 -32 -4
-51 -15 -20 -11 -38 -18 -40 -16 -2 2 -6 68 -9 146 -5 176 -22 236 -68 243
-20 3 -21 9 -24 128 -2 69 -4 159 -4 200 -1 41 -6 81 -11 87 -7 8 -7 30 -2 60
5 27 9 109 10 183 3 165 10 348 18 415 3 28 8 112 10 188 l5 137 -28 15 -29
14 3 95 c2 52 6 99 9 104 5 9 10 65 23 272 5 85 3 98 -15 120 -17 22 -22 23
-37 10 -26 -22 -36 -55 -50 -180 -12 -108 -43 -210 -65 -210 -4 0 -8 17 -9 38
0 34 -17 271 -24 352 -9 90 -36 126 -77 100 -15 -9 -38 -102 -39 -159 -1 -19
-5 -48 -11 -65 -20 -63 -41 -152 -41 -173 1 -12 -3 -25 -8 -28 -9 -5 -19 39
-26 107 -1 18 -8 46 -14 62 -7 17 -8 33 -2 40 10 13 4 247 -7 291 -10 34 -18
37 -50 14 -20 -14 -25 -30 -33 -110 -12 -110 -26 -169 -39 -169 -6 0 -10 14
-10 30 0 28 -2 30 -38 30 -38 0 -39 -1 -48 -47 -5 -25 -14 -48 -19 -50 -12 -4
-35 72 -35 112 0 33 -17 69 -41 83 -24 15 -73 -4 -75 -28 -2 -36 -4 -43 -11
-37 -3 4 -7 30 -8 59 -2 70 -22 110 -60 120 -55 14 -111 -49 -151 -171 -23
-70 -26 -69 -43 24 -13 71 -29 90 -65 81 -43 -11 -66 -41 -67 -88 -2 -42 -4
-69 -7 -96 -1 -7 -7 -10 -12 -7 -6 4 -8 15 -5 25 7 23 -12 100 -31 121 -20 23
-81 13 -101 -17 -16 -24 -39 -23 -29 2 11 28 -13 129 -35 147 -21 17 -23 17
-53 -2 -17 -11 -36 -35 -42 -53 l-12 -33 -7 27 c-5 22 -12 27 -29 24 -55 -10
-76 -19 -76 -32 0 -8 -7 -14 -16 -14 -12 0 -15 6 -10 24 5 20 1 27 -25 40 -55
28 -99 0 -112 -69 -6 -36 -30 -102 -41 -112 -4 -4 -9 3 -13 15 -7 27 -23 28
-73 2 -30 -15 -41 -29 -49 -57 -6 -21 -11 -43 -11 -49 0 -7 -17 -15 -37 -19
-53 -9 -73 -31 -73 -75 0 -21 -7 -55 -16 -75 -16 -39 -14 -78 8 -140 8 -23 6
-37 -6 -60 -14 -27 -16 -28 -16 -7 0 12 -5 22 -10 22 -6 0 -10 12 -10 28 1
104 -26 303 -44 321 -15 14 -20 14 -64 -1 -26 -10 -50 -14 -54 -10 -5 5 -10
33 -13 64 -2 30 -9 68 -15 82 -5 15 -10 42 -10 60 0 18 -10 46 -23 62 -20 27
-25 30 -54 22 -35 -9 -35 -7 -37 -135 -1 -44 -15 -53 -22 -14 -7 33 -36 61
-64 61 -20 0 -81 -44 -94 -67 -5 -9 -10 -26 -12 -37 -1 -12 -10 -41 -18 -65
-9 -24 -14 -51 -11 -60 2 -9 1 -22 -3 -29 -17 -26 -45 25 -49 88 -5 64 -20
109 -52 149 -17 22 -21 23 -49 12 -38 -16 -51 -47 -48 -107 2 -27 0 -53 -4
-59 -5 -5 -10 -21 -12 -34 -6 -46 -26 -34 -33 21 -4 29 -14 61 -22 70 -8 9
-12 22 -8 28 8 12 -34 120 -47 120 -5 0 -27 -9 -48 -20 -27 -14 -42 -29 -46
-48 -3 -15 -10 -40 -15 -56 -5 -16 -9 -44 -9 -62 0 -18 -4 -36 -10 -39 -5 -3
-10 -21 -10 -39 0 -51 -11 -96 -24 -96 -7 0 -16 38 -23 99 -7 54 -17 109 -22
122 -6 13 -15 43 -21 67 -10 39 -13 42 -44 42 l-34 0 -7 74 c-7 77 -20 100
-52 94 -25 -5 -44 -97 -37 -170 6 -57 0 -108 -14 -108 -4 0 -13 4 -21 9 -11 7
-12 13 -3 23 6 8 9 23 7 34 -5 19 -32 330 -40 454 -11 169 -15 208 -27 248
-15 50 -36 55 -67 16 -19 -24 -20 -35 -14 -112 5 -70 4 -84 -8 -80 -8 3 -17
26 -21 58 -10 83 -62 109 -92 46 -15 -31 -20 -81 -33 -326 -2 -52 -5 -109 -6
-127 -2 -34 -17 -58 -17 -27 0 33 -34 104 -54 110 -37 12 -50 -19 -53 -124 -2
-99 -17 -208 -35 -252 l-10 -25 -13 25 c-7 14 -16 57 -19 95 -11 115 -17 134
-38 141 -31 9 -54 -21 -69 -89 -7 -34 -12 -69 -11 -77 2 -21 -20 -120 -28
-125 -12 -7 -40 19 -44 41 -3 12 -10 32 -18 44 -9 17 -10 24 -1 27 12 5 8 114
-7 148 -8 19 -11 35 -27 124 l-5 33 -47 -6 c-52 -7 -81 -33 -81 -75 0 -15 -4
-31 -9 -37 -6 -5 -12 -20 -14 -34 -3 -14 -17 -59 -31 -101 -14 -41 -26 -98
-26 -125 0 -97 -41 -99 -46 -2 -4 81 -25 169 -48 205 -16 26 -28 33 -53 33
-38 0 -40 -2 -46 -65 -3 -28 -10 -62 -15 -75 -5 -14 -10 -52 -11 -84 -3 -90
-16 -100 -45 -33 -10 23 -18 59 -17 80 1 34 -49 157 -64 157 -3 0 -21 -10 -39
-22 -25 -17 -36 -32 -39 -58 -3 -19 -10 -59 -16 -89 -6 -29 -11 -87 -13 -128
-2 -78 -23 -123 -25 -55 -2 63 -24 195 -40 237 -8 22 -17 50 -20 63 -6 26 -29
28 -62 6 -21 -15 -23 -22 -17 -64 3 -25 3 -50 -1 -54 -5 -4 -8 -60 -8 -123 0
-76 -4 -118 -11 -120 -8 -2 -10 17 -8 62 2 39 -3 82 -12 106 -7 23 -14 60 -14
83 -1 43 -39 147 -56 153 -32 11 -63 -57 -64 -139 0 -22 -5 -38 -11 -38 -8 0
-10 14 -6 45 4 24 3 47 -2 49 -5 3 -12 22 -15 41 -8 41 -22 44 -61 13 l-28
-22 6 -95 c4 -53 9 -121 12 -151 3 -30 6 -190 6 -355 1 -463 0 -497 -11 -490
-5 3 -10 30 -10 58 0 29 -4 81 -9 117 -5 36 -12 85 -15 110 -10 77 -21 105
-42 108 -11 2 -29 -6 -39 -18 -25 -28 -31 -215 -9 -269 9 -22 13 -49 9 -72 -4
-20 -1 -56 5 -80 20 -74 28 -351 15 -544 -11 -168 -15 -220 -20 -270 -3 -27
-7 -94 -8 -148 -3 -101 -18 -142 -35 -96 -79 202 -80 204 -105 207 -15 2 -35
-6 -52 -21 -33 -28 -32 -19 -39 -337 -3 -124 -8 -245 -11 -270 -7 -44 -7 -45
-20 -19 -8 14 -21 68 -30 120 -23 138 -46 232 -60 247 -10 11 -17 8 -38 -20
-25 -33 -34 -78 -42 -203 -6 -86 -16 -148 -25 -160 -4 -5 -13 -40 -20 -77 -19
-102 -22 -97 -64 82 -16 67 -42 130 -54 130 -4 0 -20 -12 -34 -27 -23 -25 -26
-39 -32 -128 -4 -55 -7 -123 -6 -152 2 -78 -28 -83 -35 -5 -8 97 -42 205 -67
210 -26 5 -71 -73 -63 -107 10 -40 -11 -14 -30 39 -9 25 -20 66 -25 92 -10 57
-45 138 -59 138 -5 0 -21 -10 -35 -22 -29 -27 -32 -40 -50 -290 -8 -97 -17
-181 -20 -187 -13 -21 -25 -11 -36 29 -5 22 -15 58 -20 80 -6 21 -22 53 -36
69 -16 19 -23 38 -20 49 7 21 -29 157 -50 189 -8 12 -14 33 -14 46 0 14 -7 48
-17 76 -13 42 -20 51 -39 51 -43 0 -59 -42 -62 -165 -3 -163 -16 -342 -24
-351 -11 -10 -38 15 -32 30 3 8 -4 41 -15 74 -12 34 -21 67 -21 74 0 8 -9 21
-20 31 -22 19 -26 43 -8 49 10 4 9 14 -4 44 -9 21 -22 56 -28 77 -14 46 -38
49 -72 8 -22 -26 -24 -35 -20 -107 3 -43 4 -95 4 -114 0 -19 -1 -52 -1 -72 0
-95 -32 14 -36 123 -1 42 -8 85 -14 97 -6 11 -11 34 -11 50 0 46 -20 92 -39
92 -10 0 -27 -10 -39 -23 -20 -21 -21 -31 -18 -142 2 -66 0 -126 -5 -135 -4
-8 -11 -64 -15 -123 -4 -75 -10 -107 -17 -104 -12 4 -16 20 -37 147 -6 36 -17
94 -25 130 -8 36 -17 83 -20 105 -15 107 -44 146 -77 105 -24 -30 -25 -126 -1
-152 9 -10 11 -18 6 -18 -16 0 -35 -54 -33 -97 1 -21 2 -47 1 -58 -3 -66 -59
114 -76 247 -2 15 -9 36 -14 47 -6 11 -11 29 -11 40 0 28 -14 33 -46 16 -25
-12 -28 -19 -26 -53 2 -27 -2 -43 -17 -56 -19 -17 -20 -17 -30 3 -6 11 -11 34
-11 51 0 52 -39 160 -58 160 -26 -1 -57 -49 -45 -69 11 -18 10 -58 -5 -156 -6
-33 -10 -69 -11 -80 -12 -171 -20 -219 -36 -203 -6 5 -31 110 -44 183 -17 95
-63 225 -80 225 -5 0 -18 -8 -30 -17 -16 -14 -23 -36 -30 -98 -4 -44 -5 -85 0
-90 4 -6 1 -18 -6 -28 -12 -16 -13 -15 -13 16 0 19 -4 43 -10 53 -5 11 -7 25
-5 32 3 7 -3 24 -12 38 -9 14 -14 31 -12 37 5 15 -20 67 -33 67 -6 0 -10 -5
-10 -11 0 -6 -9 -18 -20 -27 -18 -15 -20 -31 -23 -149 -2 -73 -6 -135 -9 -138
-7 -8 -38 5 -38 16 0 5 5 9 10 9 19 0 10 54 -16 92 -25 36 -27 37 -50 21 -13
-8 -24 -21 -24 -28 0 -6 -9 -20 -21 -31 -14 -12 -18 -25 -14 -41 3 -14 -3 -40
-16 -65 -17 -33 -20 -53 -16 -95 3 -29 4 -53 1 -53 -11 0 -44 67 -44 89 0 13
-23 71 -51 128 -44 87 -55 104 -73 101 -12 -2 -21 -10 -21 -18 0 -8 -8 -23
-18 -33 -14 -14 -15 -22 -7 -37 7 -13 7 -27 2 -37 -5 -10 -15 -64 -22 -120 -7
-57 -16 -103 -21 -103 -12 0 -25 29 -33 72 -8 45 -52 146 -73 171 -27 30 -58
21 -77 -21 -10 -21 -16 -42 -15 -48 1 -5 -1 -21 -5 -37 l-8 -27 -28 27 c-21
22 -31 47 -45 112 -24 123 -41 144 -78 103 -23 -26 -32 -172 -23 -374 6 -117
-10 -82 -41 92 -47 266 -65 330 -89 330 -24 0 -28 -25 -29 -160 -1 -201 -4
-252 -14 -246 -10 6 -10 9 -40 176 -12 63 -28 133 -35 155 -8 22 -17 52 -20
68 -4 15 -13 27 -21 27 -23 0 -37 -49 -31 -100 14 -116 8 -210 -7 -118 -3 18
-10 58 -16 88 -5 30 -14 67 -20 82 -6 15 -13 57 -17 93 -5 51 -13 74 -35 102
-16 20 -29 40 -29 45 0 5 -10 8 -22 6 -34 -5 -41 -39 -63 -318 -17 -204 -22
-233 -34 -226 -5 3 -12 25 -16 48 -4 24 -9 48 -11 53 -1 6 -8 36 -14 69 -16
84 -27 106 -49 106 -25 0 -35 -29 -35 -99 -1 -59 -19 -79 -31 -34 -10 41 -25
56 -41 42 -16 -13 -16 -15 -14 111 0 47 4 119 7 160 4 41 6 100 6 130 -4 176
-3 393 3 679 4 210 3 367 -5 445 -6 67 -13 195 -17 286 -8 212 -11 256 -23
441 -20 295 -38 1279 -33 1809 2 214 0 261 -14 296 -17 44 -27 53 -56 47z
m6281 -1300 c9 -41 10 -65 2 -115 0 -5 -5 -8 -9 -8 -14 0 -30 72 -27 120 4 53
3 50 14 50 5 0 14 -21 20 -47z m11 -213 c0 -11 -6 -20 -14 -20 -18 0 -29 16
-21 30 11 18 35 11 35 -10z m1665 -486 c0 -21 3 -43 6 -49 8 -13 5 -100 -6
-142 -16 -68 -25 -29 -23 102 1 89 6 134 13 132 5 -2 10 -21 10 -43z m-120
-175 c0 -7 -8 -15 -17 -17 -18 -3 -25 18 -11 32 10 10 28 1 28 -15z m-7404
-2091 c-9 -31 -9 -30 -10 23 -1 31 2 72 7 90 6 31 7 29 10 -23 2 -31 -1 -71
-7 -90z m12258 -240 c-18 -33 -22 -7 -7 44 l12 43 4 -32 c2 -18 -2 -42 -9 -55z"/>
<path d="M1656 9702 c-36 -2 -63 -13 -102 -38 -56 -37 -69 -64 -60 -126 3 -29
68 -116 93 -125 7 -3 20 -18 28 -33 13 -25 12 -29 -3 -42 -27 -24 -60 -28 -97
-12 -42 17 -82 5 -94 -28 -12 -32 -6 -42 43 -65 68 -33 123 -38 176 -14 64 28
98 67 101 117 4 49 -8 68 -85 146 -79 79 -75 91 39 115 39 8 40 10 39 46 -2
50 -18 63 -78 59z"/>
<path d="M894 9608 c-41 -50 -57 -96 -56 -171 0 -83 10 -96 94 -127 91 -33
150 -25 194 26 18 22 36 53 39 70 10 46 -12 112 -53 161 -41 51 -86 73 -147
73 -36 0 -48 -5 -71 -32z m164 -110 c23 -18 42 -35 42 -39 0 -10 -92 -89 -103
-89 -20 0 -46 47 -47 83 0 82 38 98 108 45z"/>
<path d="M13204 8436 c-3 -7 -4 -69 -2 -137 l3 -124 -51 3 c-54 3 -84 -13 -84
-44 0 -22 35 -52 74 -63 63 -17 66 -25 61 -158 -2 -65 -7 -150 -11 -189 -6
-67 -5 -72 17 -88 52 -36 75 -8 84 99 3 33 7 80 10 105 3 25 7 65 8 90 l2 45
54 3 c33 2 66 -3 85 -12 18 -8 45 -13 62 -11 16 2 32 4 37 4 4 1 7 9 6 19 0
17 -92 83 -154 111 -106 48 -101 40 -108 156 -6 96 -42 205 -68 205 -11 0 -22
-6 -25 -14z"/>
<path d="M14811 8284 l-33 -29 16 -61 c9 -34 20 -104 26 -155 5 -52 15 -130
21 -174 6 -44 12 -118 14 -165 2 -86 18 -164 37 -187 14 -18 43 -16 58 2 13
16 12 31 -21 370 -6 61 -13 142 -15 180 -6 90 -31 194 -53 224 l-18 23 -32
-28z"/>
<path d="M14003 8258 c-4 -7 -8 -80 -8 -163 l0 -150 -60 -6 c-67 -6 -100 -20
-115 -48 -8 -16 -4 -24 22 -46 28 -24 39 -27 85 -23 50 4 52 3 57 -21 3 -14 0
-54 -7 -88 -13 -62 -13 -63 13 -88 29 -27 52 -32 68 -12 11 14 34 136 27 147
-3 5 -2 22 1 39 8 38 45 60 89 55 35 -5 82 26 70 46 -10 16 -105 60 -131 60
-18 0 -21 6 -21 43 0 170 -51 315 -90 255z"/>
<path d="M14448 7910 c-99 -42 -150 -81 -181 -138 -31 -58 -33 -83 -10 -122
50 -86 154 -68 230 40 15 22 31 40 34 40 3 0 11 -11 17 -24 13 -30 69 -94 93
-107 27 -14 69 -1 69 22 0 10 -13 31 -29 46 -16 15 -43 55 -60 87 -17 33 -36
65 -42 72 -7 9 -7 19 1 34 14 27 -7 74 -35 77 -11 1 -50 -11 -87 -27z m-11
-161 c-18 -29 -37 -46 -61 -54 -19 -7 -38 -10 -41 -7 -20 20 11 58 94 114 37
25 40 1 8 -53z"/>
<path d="M12809 7865 c-19 -14 -59 -52 -89 -83 -30 -32 -104 -96 -163 -142
-157 -123 -186 -144 -193 -138 -3 4 -7 26 -9 50 -2 24 -6 71 -9 106 -5 63 -19
102 -36 102 -16 0 -49 -37 -64 -73 -7 -18 -34 -57 -60 -86 -25 -28 -46 -56
-46 -61 0 -8 -38 -45 -172 -172 -27 -26 -39 -78 -18 -78 6 0 33 -22 60 -49 28
-28 67 -62 87 -77 21 -15 52 -40 68 -55 55 -49 211 -89 258 -67 22 11 21 30
-3 158 -29 152 -29 168 6 198 41 36 222 201 258 238 17 16 43 35 59 42 15 6
32 23 37 36 5 14 18 29 28 35 11 6 32 31 46 56 22 36 25 49 16 65 -14 26 -19
25 -61 -5z"/>
<path d="M13644 7840 c-42 -17 -83 -99 -99 -198 -8 -53 9 -77 67 -92 34 -10
46 -7 100 17 139 62 161 218 38 267 -44 18 -74 19 -106 6z m94 -113 c4 -32
-47 -87 -80 -87 -18 0 -20 5 -15 38 7 41 49 85 76 80 9 -2 17 -15 19 -31z"/>
<path d="M13846 4088 c-20 -11 -21 -51 -2 -67 8 -7 27 -11 43 -9 21 2 29 9 31
28 3 31 -45 63 -72 48z"/>
<path d="M13534 4055 c-12 -19 -15 -35 -10 -63 4 -20 10 -48 12 -62 10 -55 21
-289 17 -356 -5 -65 -3 -73 20 -100 25 -28 26 -28 44 -11 16 16 18 38 17 230
0 222 -11 314 -42 356 -26 35 -38 36 -58 6z"/>
<path d="M14741 4071 c-12 -8 -13 -20 -2 -83 7 -40 17 -84 23 -98 12 -31 -11
-50 -62 -50 -38 0 -70 -24 -70 -52 0 -29 44 -58 88 -58 40 0 42 -2 42 -29 0
-17 -7 -60 -16 -97 -19 -85 -16 -132 12 -151 51 -33 97 69 95 210 0 58 19 87
67 102 57 17 47 85 -13 85 -28 0 -37 6 -50 30 -8 16 -15 40 -15 53 0 45 -55
147 -78 147 -4 0 -13 -4 -21 -9z"/>
<path d="M13317 3875 c-36 -12 -78 -32 -92 -43 -92 -73 -135 -127 -135 -172 0
-31 36 -95 67 -120 43 -34 90 -51 183 -65 84 -13 85 -13 123 11 43 28 54 48
38 68 -9 11 -29 13 -86 9 -47 -4 -91 -1 -120 7 -52 15 -105 59 -105 87 0 40
119 128 188 139 52 8 69 26 54 58 -19 43 -41 47 -115 21z"/>
<path d="M14094 3823 c-25 -32 -50 -68 -55 -80 -4 -12 -21 -30 -36 -40 -40
-25 -43 -33 -27 -64 8 -16 14 -37 14 -48 0 -55 115 -126 166 -102 14 6 32 11
40 11 20 0 83 29 105 47 20 17 14 50 -10 58 -9 3 -39 0 -67 -6 -55 -11 -79
-12 -111 -4 -39 9 -26 23 34 36 139 31 182 122 102 214 -25 29 -38 35 -69 35
-35 0 -43 -6 -86 -57z m106 -58 c0 -8 -13 -23 -29 -34 -47 -34 -53 -26 -21 26
19 32 50 37 50 8z"/>
<path d="M13824 3844 c-15 -22 -19 -52 -20 -168 -2 -78 -3 -146 -4 -151 -6
-30 2 -45 23 -45 40 0 55 76 60 300 2 80 1 85 -20 88 -15 2 -27 -5 -39 -24z"/>
<path d="M14458 3798 c-16 -5 -28 -14 -28 -19 0 -4 -13 -15 -29 -23 -32 -17
-42 -55 -43 -170 -1 -56 2 -71 17 -82 44 -32 56 -17 79 97 2 8 6 21 9 29 3 8
10 29 15 45 22 74 60 7 62 -110 1 -84 17 -114 53 -98 16 8 26 25 34 59 10 42
8 59 -13 132 -27 92 -36 113 -56 129 -20 16 -70 22 -100 11z"/>
<path d="M15108 3732 c-51 -3 -57 -5 -62 -28 -13 -51 50 -90 128 -79 28 4 73
9 101 11 27 2 55 10 61 16 18 19 0 58 -28 59 -27 1 -33 3 -70 12 -44 11 -69
13 -130 9z"/>
<path d="M11238 3619 c-29 -17 -21 -45 22 -73 72 -47 99 -26 54 42 -28 43 -45
50 -76 31z"/>
<path d="M12829 3592 c-25 -16 -68 -35 -97 -42 -29 -6 -79 -30 -113 -51 -33
-22 -104 -62 -157 -89 -54 -27 -110 -58 -127 -69 -16 -12 -36 -21 -44 -21 -13
0 -13 1 5 108 6 40 4 46 -27 78 -18 19 -38 34 -44 34 -13 0 -55 -71 -55 -92 0
-16 -114 -130 -165 -165 -20 -14 -40 -19 -61 -16 -25 4 -34 0 -48 -22 -10 -15
-31 -41 -47 -58 -45 -46 -35 -100 21 -112 17 -4 52 -22 79 -40 26 -18 68 -39
92 -45 54 -14 95 -45 175 -127 63 -65 91 -76 135 -52 39 20 41 52 8 149 -69
211 -56 236 191 360 80 40 159 80 175 89 17 9 57 29 89 46 79 40 103 72 90
122 -5 20 -14 38 -19 40 -6 2 -31 -10 -56 -25z"/>
<path d="M11476 3594 c-34 -33 -4 -97 42 -92 22 2 28 9 30 35 2 22 -3 38 -17
52 -25 25 -35 26 -55 5z"/>
<path d="M8779 3564 c-11 -14 -10 -22 8 -52 41 -72 92 -77 79 -8 -12 62 -58
94 -87 60z"/>
<path d="M7004 3560 c-31 -12 -35 -24 -18 -49 19 -26 61 -25 78 1 8 13 6 22
-8 37 -21 23 -22 23 -52 11z"/>
<path d="M9920 3550 c-11 -11 -20 -26 -20 -34 0 -7 -14 -19 -30 -26 -39 -16
-52 -40 -35 -63 9 -12 23 -17 41 -15 22 2 30 10 38 36 6 23 15 32 30 32 43 0
61 44 30 74 -20 21 -30 20 -54 -4z"/>
<path d="M10381 3547 c-14 -6 -33 -27 -43 -46 -16 -28 -17 -39 -8 -59 10 -23
15 -24 57 -18 57 7 75 29 67 76 -10 59 -28 70 -73 47z"/>
<path d="M11162 3521 c-40 -19 -57 -35 -70 -63 -14 -32 -22 -38 -48 -38 -48 0
-61 -48 -21 -74 18 -12 32 -12 74 -4 49 10 53 13 78 62 14 28 33 63 42 77 12
19 14 32 7 46 -9 19 -11 19 -62 -6z"/>
<path d="M7564 3521 c-45 -11 -52 -17 -79 -69 -13 -26 -40 -64 -60 -86 -26
-27 -35 -45 -31 -60 3 -15 -5 -31 -28 -54 l-32 -32 -14 25 c-28 52 -88 37 -74
-19 8 -33 27 -42 59 -28 19 9 24 8 28 -9 4 -13 14 -19 36 -19 27 0 31 4 41 41
6 23 9 47 6 55 -3 9 4 16 20 20 17 4 32 21 46 50 13 30 27 44 39 44 11 0 22 8
25 18 22 68 26 73 43 58 16 -14 34 -19 59 -17 19 2 14 56 -6 74 -20 18 -30 19
-78 8z"/>
<path d="M8210 3493 c-33 -12 -50 -36 -44 -62 9 -36 18 -44 42 -37 32 10 59
107 30 105 -7 0 -20 -3 -28 -6z"/>
<path d="M9144 3475 c-13 -20 -14 -30 -4 -60 16 -49 42 -43 54 12 15 70 -16
100 -50 48z"/>
<path d="M7844 3456 c-8 -34 2 -46 37 -46 28 0 30 2 27 33 -2 26 -8 33 -30 35
-22 3 -29 -2 -34 -22z"/>
<path d="M9401 3445 c-17 -19 -36 -35 -42 -35 -19 0 -28 -44 -11 -62 23 -27
59 -23 74 10 10 20 22 28 46 30 41 4 48 21 27 61 -21 42 -53 41 -94 -4z"/>
<path d="M10010 3445 c-16 -19 -5 -45 29 -72 24 -19 31 -20 47 -9 18 13 18 15
0 55 -20 44 -52 55 -76 26z"/>
<path d="M6946 3416 c-33 -44 -46 -79 -36 -96 6 -10 0 -19 -20 -32 -44 -26
-53 -90 -15 -104 26 -10 47 16 44 55 -3 56 -1 61 26 61 18 0 28 9 39 33 22 50
28 75 21 97 -9 29 -29 25 -59 -14z"/>
<path d="M10680 3410 l-21 -21 23 -29 c13 -16 31 -29 40 -29 46 -2 68 81 26
93 -37 9 -47 7 -68 -14z"/>
<path d="M11332 3404 c-40 -17 -40 -41 0 -63 24 -14 28 -14 46 2 15 14 18 25
13 44 -9 33 -17 35 -59 17z"/>
<path d="M8501 3374 c-28 -36 -26 -60 7 -81 15 -9 37 -25 49 -36 29 -25 57
-15 78 29 23 48 14 64 -34 64 -35 0 -42 4 -47 25 -8 32 -27 32 -53 -1z"/>
<path d="M8700 3369 c-21 -29 -21 -31 -5 -50 28 -30 52 -24 65 16 7 20 9 42 6
50 -9 25 -43 17 -66 -16z"/>
<path d="M8081 3360 c-46 -34 -48 -40 -23 -63 27 -24 38 -21 61 17 41 66 22
89 -38 46z"/>
<path d="M7922 3354 c-27 -19 -28 -36 -3 -58 18 -17 20 -17 40 3 26 26 27 47
3 60 -14 7 -25 6 -40 -5z"/>
<path d="M10928 3346 c-45 -23 -26 -86 27 -86 24 0 52 48 42 73 -8 20 -42 27
-69 13z"/>
<path d="M7164 3315 c-17 -33 -17 -36 -2 -52 15 -15 21 -15 43 -3 42 23 32 90
-14 90 -4 0 -16 -16 -27 -35z"/>
<path d="M9671 3324 c-17 -14 -35 -23 -41 -19 -11 7 -61 -17 -80 -40 -12 -14
-10 -20 12 -42 31 -31 60 -25 80 18 l15 29 25 -19 c13 -11 37 -23 51 -26 15
-4 30 -11 33 -16 3 -5 16 -9 29 -9 51 0 40 86 -11 92 -15 2 -32 12 -38 23 -23
42 -35 43 -75 9z"/>
<path d="M10433 3325 l-28 -25 34 -30 35 -30 23 22 c31 29 30 66 -3 78 -33 13
-29 14 -61 -15z"/>
<path d="M10573 3330 c-18 -11 -33 -27 -33 -36 0 -15 66 -84 81 -84 21 0 31
33 24 85 -7 62 -19 68 -72 35z"/>
<path d="M10774 3297 c8 -75 12 -81 52 -96 27 -10 38 -10 49 -1 17 14 20 37 6
42 -5 2 -20 26 -33 53 -19 41 -28 51 -52 53 l-29 4 7 -55z"/>
<path d="M7815 3324 c-38 -38 -46 -59 -34 -92 8 -23 17 -32 34 -32 19 0 25 9
38 62 9 34 14 66 11 70 -8 13 -31 9 -49 -8z"/>
<path d="M8876 3324 c-21 -20 -20 -37 2 -64 15 -19 22 -21 39 -11 22 11 39 62
28 81 -9 15 -52 12 -69 -6z"/>
<path d="M9031 3309 c-17 -10 -34 -25 -37 -33 -9 -24 15 -56 41 -56 26 0 39
17 49 66 9 41 -10 49 -53 23z"/>
<path d="M7048 3301 c-36 -36 -13 -73 41 -69 26 2 30 5 25 23 -8 27 -33 65
-42 64 -4 0 -15 -8 -24 -18z"/>
<path d="M7668 3306 c-10 -7 -18 -23 -18 -34 0 -16 8 -23 35 -28 57 -10 85 25
47 59 -22 20 -41 21 -64 3z"/>
<path d="M9223 3296 c-27 -24 -28 -24 -9 -45 36 -40 76 -20 76 36 0 41 -26 44
-67 9z"/>
<path d="M11521 3286 c-11 -19 -10 -27 0 -44 18 -29 31 -33 60 -18 29 14 36
48 14 70 -24 24 -59 20 -74 -8z"/>
<path d="M6263 3285 c-45 -19 -57 -46 -42 -96 11 -34 10 -44 -4 -69 -9 -15
-17 -35 -17 -42 0 -23 36 -50 62 -46 25 3 26 10 13 99 -7 45 -6 47 29 74 40
30 45 54 18 78 -22 20 -19 20 -59 2z"/>
<path d="M8226 3248 c-9 -37 -7 -47 14 -58 15 -8 27 -7 49 5 38 19 44 30 31
55 -16 30 -85 29 -94 -2z"/>
<path d="M10246 3254 c-9 -8 -16 -19 -16 -24 0 -20 -36 -20 -52 -1 -19 24 -50
27 -67 7 -18 -21 12 -76 37 -69 12 3 30 -7 50 -26 34 -35 41 -36 65 -18 18 13
40 107 31 132 -8 19 -28 19 -48 -1z"/>
<path d="M13941 3216 c-27 -43 -26 -84 3 -221 13 -60 22 -114 19 -119 -3 -4
-23 -6 -43 -3 -76 10 -140 -64 -140 -162 0 -46 3 -52 42 -83 36 -28 50 -33 93
-32 60 2 137 39 197 93 42 40 42 40 -6 66 -25 13 -40 59 -61 180 -9 55 -21
119 -26 142 -5 23 -9 64 -9 92 0 27 -3 56 -6 65 -10 27 -41 18 -63 -18z m16
-448 c15 -7 35 -21 45 -30 22 -22 6 -36 -56 -44 -55 -8 -88 12 -78 49 9 39 39
47 89 25z"/>
<path d="M6610 3198 c-19 -12 -46 -34 -59 -51 -20 -24 -22 -34 -15 -55 13 -36
64 -38 79 -4 5 12 18 25 28 28 22 7 46 59 40 85 -7 24 -29 23 -73 -3z"/>
<path d="M7097 3192 c-25 -27 -21 -51 10 -63 34 -13 45 -1 41 42 -4 40 -26 49
-51 21z"/>
<path d="M6368 3188 c-12 -10 -14 -19 -7 -35 6 -18 16 -23 44 -23 43 0 55 22
30 50 -21 23 -44 25 -67 8z"/>
<path d="M8445 3164 c-22 -7 -50 -14 -62 -14 -34 0 -74 -22 -71 -38 2 -9 24
-22 49 -31 26 -9 54 -23 64 -31 15 -13 19 -12 31 5 8 10 14 25 14 32 0 8 7 28
16 45 21 40 8 50 -41 32z"/>
<path d="M11572 3147 c-42 -50 -7 -136 57 -137 23 0 23 1 17 62 -4 35 -12 68
-18 75 -13 17 -43 17 -56 0z"/>
<path d="M6714 3129 c-17 -19 -17 -23 -3 -47 10 -18 25 -28 44 -30 17 -2 40
-14 53 -28 26 -27 35 -29 50 -11 12 14 19 93 10 103 -4 3 -22 -1 -40 -11 -33
-16 -33 -16 -59 14 -30 37 -31 37 -55 10z"/>
<path d="M13564 3122 c-18 -11 -21 -67 -5 -86 17 -20 64 -21 81 -1 16 19 5 50
-27 75 -28 22 -33 23 -49 12z"/>
<path d="M6432 3048 c-21 -21 -13 -46 19 -57 17 -6 28 -14 26 -18 -3 -5 1 -23
8 -41 10 -24 20 -32 38 -32 21 0 26 7 36 44 13 53 7 76 -19 69 -12 -3 -24 4
-35 21 -18 28 -53 34 -73 14z"/>
<path d="M13318 3022 c-71 -26 -148 -74 -154 -98 -3 -12 2 -37 12 -55 20 -40
97 -113 137 -130 15 -6 27 -15 27 -18 0 -11 -75 -41 -103 -41 -28 0 -67 -41
-67 -71 0 -10 11 -26 24 -35 22 -13 33 -14 83 -4 32 7 81 23 110 35 45 20 53
28 59 59 10 54 -15 83 -150 180 -43 31 -34 51 37 76 101 35 105 38 112 61 6
17 2 27 -15 41 -27 22 -50 22 -112 0z"/>
<path d="M14419 3030 c-63 -18 -85 -50 -155 -222 -43 -107 -26 -173 62 -240
51 -39 63 -43 123 -46 80 -4 145 24 175 76 17 30 17 35 4 49 -14 13 -20 12
-56 -6 -56 -29 -159 -29 -195 -1 -33 26 -51 75 -32 90 7 6 48 18 91 27 91 19
138 49 154 98 13 41 -1 73 -52 121 -46 44 -88 63 -119 54z m45 -104 c22 -9 35
-22 38 -40 6 -31 2 -36 -33 -36 -15 0 -38 -4 -52 -9 -37 -14 -54 1 -38 36 11
24 39 60 49 62 1 1 18 -5 36 -13z"/>
<path d="M6206 2958 c-8 -13 -20 -43 -26 -68 -6 -25 -14 -54 -16 -65 -3 -12 3
-31 14 -45 17 -21 18 -28 7 -50 -27 -55 -26 -85 4 -114 16 -15 31 -24 33 -19
3 4 6 43 7 86 1 43 9 101 17 130 7 29 19 71 25 94 6 24 9 49 5 58 -8 23 -53
18 -70 -7z"/>
<path d="M11585 2950 c-36 -40 19 -114 61 -80 19 17 12 69 -13 88 -22 16 -27
15 -48 -8z"/>
<path d="M13591 2884 c-23 -29 -28 -52 -35 -171 -4 -69 -3 -82 11 -87 24 -10
73 43 83 90 14 57 12 168 -2 182 -18 18 -35 14 -57 -14z"/>
<path d="M11611 2811 c-9 -6 -16 -31 -18 -65 -3 -47 0 -57 17 -66 36 -19 56 2
63 66 3 32 4 61 1 66 -7 11 -45 10 -63 -1z"/>
<path d="M11612 2580 c-29 -47 0 -89 38 -55 24 22 25 38 4 59 -20 21 -27 20
-42 -4z"/>
<path d="M15801 2501 c-21 -29 -21 -34 -11 -193 14 -217 16 -237 30 -286 13
-50 40 -56 66 -17 15 22 16 50 12 223 -5 166 -9 205 -26 247 -23 60 -42 67
-71 26z"/>
<path d="M6171 2473 c-13 -16 -19 -34 -15 -45 3 -12 -4 -34 -19 -57 -23 -34
-24 -40 -11 -69 14 -35 17 -37 45 -22 15 9 19 22 19 65 0 30 4 55 9 55 14 0
33 64 25 83 -9 25 -30 21 -53 -10z"/>
<path d="M11606 2456 c-20 -37 -12 -67 24 -86 37 -20 60 7 60 71 0 57 -56 67
-84 15z"/>
<path d="M15494 2413 c-12 -28 -13 -45 -4 -89 6 -29 13 -82 14 -116 2 -35 9
-100 15 -146 12 -87 9 -105 -13 -96 -28 11 -76 -26 -107 -82 -39 -69 -56 -78
-136 -71 -49 4 -70 10 -89 28 l-25 24 20 16 c12 10 39 20 61 24 48 8 100 66
100 112 0 41 -52 111 -87 118 -16 4 -36 8 -46 10 -20 4 -46 -8 -95 -43 -24
-18 -36 -21 -46 -13 -21 18 -136 43 -164 36 -41 -10 -90 -52 -112 -95 -16 -31
-20 -59 -20 -139 0 -55 -3 -106 -6 -115 -14 -36 -138 -9 -176 38 -15 19 -15
21 0 33 10 7 26 13 38 13 30 0 101 65 114 104 23 71 -46 142 -125 129 -52 -8
-130 -85 -145 -143 -28 -104 -15 -142 71 -210 87 -69 198 -83 271 -35 50 33
58 58 57 160 -2 141 32 182 139 166 39 -6 47 -10 44 -26 -1 -11 -5 -41 -8 -67
-5 -35 -3 -54 10 -72 9 -14 16 -31 16 -39 0 -17 65 -69 105 -84 64 -25 111
-26 162 -3 l48 21 17 -23 c49 -64 99 -93 146 -82 44 11 91 43 117 82 50 74 22
101 -55 53 -28 -17 -59 -31 -69 -31 -45 0 -70 79 -31 100 12 6 33 7 58 2 21
-5 48 -5 60 -1 29 11 38 51 18 86 -26 48 -36 102 -47 268 -12 168 -27 226 -62
231 -13 2 -23 -8 -33 -33z m-254 -383 c0 -22 -19 -34 -68 -43 -31 -6 -33 -5
-27 16 9 30 33 47 67 47 21 0 28 -5 28 -20z m-595 -40 c0 -21 -69 -72 -88 -64
-15 5 -15 9 4 33 35 45 84 63 84 31z"/>
<path d="M14251 2324 c-11 -15 -19 -30 -16 -33 2 -4 9 -41 15 -82 5 -41 15
-103 20 -138 11 -71 6 -81 -42 -81 -64 0 -124 -66 -137 -150 -11 -68 6 -102
63 -130 43 -20 51 -21 99 -9 63 15 127 72 127 113 0 32 -10 33 -59 1 -53 -35
-112 -42 -136 -15 -24 26 -11 68 27 89 26 15 65 11 129 -14 11 -4 20 3 28 23
11 25 9 40 -7 93 -11 35 -20 94 -21 131 -1 37 -6 79 -11 93 -6 15 -10 37 -10
51 0 29 -26 84 -40 84 -4 0 -18 -12 -29 -26z"/>
<path d="M11626 2301 c-9 -10 -14 -25 -10 -34 7 -18 39 -31 54 -22 14 9 13 48
-2 63 -16 16 -22 15 -42 -7z"/>
<path d="M6116 2167 c-30 -30 -35 -77 -10 -98 11 -9 20 -10 32 -2 22 13 33 88
17 110 -11 15 -15 14 -39 -10z"/>
<path d="M13286 2174 c-12 -5 -33 -18 -48 -28 -24 -16 -29 -16 -57 -2 -27 14
-31 14 -46 -1 -14 -13 -15 -28 -9 -92 4 -42 7 -107 8 -144 1 -60 4 -71 25 -88
50 -40 74 -14 82 90 9 112 30 149 106 186 68 33 87 60 57 82 -20 15 -87 13
-118 -3z"/>
<path d="M13496 2093 c-62 -45 -97 -134 -76 -198 23 -71 195 -194 251 -180 38
10 58 30 65 64 l7 32 -50 -2 c-38 -2 -58 3 -81 19 -16 12 -35 22 -42 22 -6 0
-10 10 -8 22 3 22 19 30 79 43 43 8 91 59 87 92 -12 97 -145 147 -232 86z
m104 -78 c0 -8 -18 -24 -40 -35 -34 -17 -40 -18 -40 -5 0 8 15 24 33 35 38 24
47 25 47 5z"/>
<path d="M13878 2093 c-9 -2 -20 -12 -23 -22 -3 -10 -23 -36 -44 -57 l-38 -40
12 -74 c19 -117 35 -154 66 -158 37 -4 51 34 44 125 -5 68 4 113 23 113 12 0
35 -70 43 -130 4 -30 12 -73 17 -94 16 -60 50 -74 78 -31 15 23 14 32 -11 147
-28 124 -39 152 -84 201 -23 25 -44 31 -83 20z"/>
<path d="M11615 2056 c-15 -27 -17 -40 -8 -58 9 -21 7 -28 -23 -56 -19 -18
-34 -39 -34 -47 0 -31 61 -64 94 -52 14 6 16 29 20 187 1 68 -20 79 -49 26z"/>
<path d="M6114 1958 c-12 -24 -24 -51 -27 -60 -8 -22 25 -63 45 -56 21 8 42
111 28 138 -15 29 -22 25 -46 -22z"/>
<path d="M11620 1779 c-15 -28 12 -59 52 -59 22 0 28 4 28 23 -1 51 -58 78
-80 36z"/>
<path d="M6084 1715 c-20 -62 -14 -77 31 -77 40 0 46 12 38 73 -7 45 -12 55
-30 57 -18 3 -24 -5 -39 -53z"/>
<path d="M15902 1725 c-27 -34 -16 -76 22 -90 34 -12 56 1 69 39 21 62 -51
102 -91 51z"/>
<path d="M11590 1568 c-25 -28 -26 -62 0 -103 24 -40 42 -48 75 -35 37 14 41
36 16 84 -11 24 -21 48 -21 54 0 10 -22 22 -40 22 -5 0 -18 -10 -30 -22z"/>
<path d="M6053 1518 c-31 -64 -16 -106 32 -94 26 7 27 9 21 48 -11 66 -34 86
-53 46z"/>
<path d="M5978 1333 c-8 -10 -21 -29 -28 -42 -10 -20 -9 -26 9 -45 33 -32 57
-11 53 45 -4 53 -13 65 -34 42z"/>
<path d="M11874 1235 c-18 -13 -18 -15 -2 -45 14 -24 15 -35 6 -55 -6 -14 -15
-25 -19 -25 -19 0 -69 -54 -69 -74 0 -26 38 -66 63 -66 23 0 40 37 33 71 -4
22 -2 27 9 22 8 -3 15 -14 15 -25 0 -28 54 -78 84 -78 41 0 36 50 -9 95 -20
19 -39 35 -44 35 -20 0 -20 45 -1 65 25 27 25 57 2 78 -23 21 -42 21 -68 2z"/>
<path d="M1263 1230 c-61 -12 -91 -32 -155 -97 -138 -142 -156 -289 -54 -444
52 -77 133 -116 180 -86 18 12 35 14 68 9 55 -10 156 23 200 64 62 60 110 187
111 299 1 57 -4 81 -26 127 -28 57 -81 108 -114 108 -10 0 -27 6 -38 13 -23
15 -111 19 -172 7z m175 -127 c13 -8 32 -28 43 -46 17 -28 19 -42 13 -107 -5
-62 -13 -85 -43 -134 -38 -62 -62 -78 -138 -91 -34 -5 -48 -3 -72 14 -21 15
-37 19 -59 15 -37 -8 -59 20 -68 87 -13 94 37 178 150 251 54 35 64 38 106 32
25 -3 55 -13 68 -21z"/>
<path d="M11632 1208 c-29 -29 9 -118 52 -118 18 0 46 27 46 45 0 22 -20 69
-33 77 -18 12 -52 9 -65 -4z"/>
<path d="M5931 1191 c-11 -11 -39 -59 -62 -105 -44 -92 -45 -115 -3 -143 24
-15 26 -15 43 3 22 22 58 129 67 194 5 35 2 49 -9 59 -13 10 -19 9 -36 -8z"/>
</g>
</svg>
