<?xml version="1.0" standalone="no"?>
<!DOCTYPE svg PUBLIC "-//W3C//DTD SVG 20010904//EN"
 "http://www.w3.org/TR/2001/REC-SVG-20010904/DTD/svg10.dtd">
<svg version="1.0" xmlns="http://www.w3.org/2000/svg"
 width="1003.403696pt" height="400.000000pt" viewBox="0 0 1003.403696 400.000000"
 preserveAspectRatio="xMidYMid meet">
<metadata>
Created by potrace 1.15, written by Peter Selinger 2001-2017
</metadata>
<g transform="translate(-18.311702,413.985638) scale(0.044626,-0.044626)"
fill="#444444" stroke="none">
<path d="M14316 9254 c-16 -24 -16 -27 -1 -44 9 -10 32 -26 51 -35 26 -12 34
-23 35 -43 1 -15 3 -67 5 -116 3 -70 1 -94 -12 -114 -15 -22 -15 -27 1 -57 19
-33 18 -55 -4 -195 -9 -60 -9 -66 11 -88 20 -20 23 -21 37 -7 12 12 16 40 17
121 1 58 6 110 12 116 7 7 35 8 74 4 164 -16 205 -17 231 -7 15 6 27 14 27 19
0 16 -63 41 -145 57 -132 27 -188 48 -191 70 -8 58 -10 183 -3 203 8 20 15 22
81 22 71 0 160 12 230 32 34 10 36 12 26 34 -6 13 -16 24 -22 24 -6 1 -76 3
-156 5 -135 3 -177 7 -256 20 -26 4 -34 1 -48 -21z"/>
<path d="M15779 9244 c-14 -13 -15 -23 -7 -57 13 -54 3 -406 -13 -471 -15 -66
0 -114 51 -163 56 -52 111 -67 172 -47 59 19 145 87 161 127 8 19 10 51 7 85
-6 51 -11 59 -63 108 -49 46 -63 53 -111 59 -33 4 -68 3 -87 -4 -18 -6 -37
-11 -43 -11 -8 0 -11 47 -11 148 0 81 -2 167 -5 192 -5 49 -24 62 -51 34z
m263 -449 c80 -54 65 -141 -34 -191 -81 -41 -197 -28 -190 21 18 127 29 150
85 176 57 25 95 24 139 -6z"/>
<path d="M15521 9232 c-7 -13 -6 -32 2 -60 9 -28 10 -71 5 -134 -8 -114 -18
-307 -21 -410 -2 -71 0 -80 24 -104 23 -23 28 -24 41 -10 13 13 14 22 2 66 -7
29 -11 75 -9 104 36 418 30 566 -20 566 -8 0 -19 -8 -24 -18z"/>
<path d="M11850 9230 c-18 -11 -19 -64 -7 -307 l8 -162 -62 0 c-46 1 -69 -4
-88 -19 -32 -23 -71 -89 -71 -120 0 -39 -22 -20 -44 39 -12 31 -37 74 -57 97
-30 35 -42 42 -72 42 -22 0 -46 -9 -64 -23 -15 -13 -41 -31 -56 -40 -15 -10
-25 -22 -21 -28 3 -5 6 -59 5 -119 0 -86 3 -113 15 -125 35 -35 54 -3 54 93 0
112 28 172 77 164 45 -6 88 -114 97 -240 2 -36 32 -73 52 -65 9 3 14 20 14 44
0 37 12 51 25 29 4 -6 25 -23 48 -37 40 -25 43 -26 107 -13 92 18 123 33 155
74 42 56 22 66 -57 31 -149 -67 -245 -30 -221 85 8 44 59 83 97 76 16 -4 40
-15 51 -26 12 -11 26 -20 32 -20 6 0 16 -7 23 -15 16 -20 49 -19 57 1 3 9 -1
28 -10 43 -31 52 -46 172 -50 395 -1 89 -6 151 -12 152 -5 2 -17 -1 -25 -6z"/>
<path d="M6376 9188 c-15 -23 -16 -35 -7 -80 27 -133 33 -184 42 -348 9 -151
13 -178 29 -195 32 -31 43 -7 42 85 -1 44 -4 85 -7 90 -3 5 -8 44 -10 87 -9
140 -39 338 -56 363 l-16 24 -17 -26z"/>
<path d="M15312 9190 c-10 -17 -10 -52 -1 -178 6 -86 9 -204 6 -262 -6 -124
-2 -157 23 -190 16 -21 20 -22 35 -10 14 12 16 24 10 75 -4 33 -9 161 -11 285
-3 124 -5 236 -7 250 -5 51 -32 66 -55 30z"/>
<path d="M6148 9194 c-2 -1 -32 -5 -67 -9 -86 -8 -214 -67 -270 -125 -68 -70
-111 -178 -111 -279 0 -67 59 -136 173 -200 55 -31 63 -33 162 -33 97 -1 106
1 137 24 48 37 68 77 56 108 -7 16 -12 20 -15 12 -9 -24 -95 -53 -170 -59
-120 -8 -227 38 -259 114 -20 47 -17 71 15 138 49 101 85 132 215 184 56 22
94 31 136 31 68 0 87 15 73 57 -7 20 -18 29 -41 34 -17 3 -33 5 -34 3z"/>
<path d="M17227 9183 c-4 -3 -7 -112 -7 -242 0 -130 -4 -252 -10 -271 -16 -57
-12 -94 13 -118 21 -20 23 -20 34 -3 10 17 29 121 26 149 -3 32 38 3 126 -89
69 -72 107 -104 136 -114 62 -21 91 16 40 52 -62 44 -164 155 -193 209 -10 20
-6 26 41 62 114 88 154 151 104 160 -24 5 -91 -31 -148 -79 -46 -38 -72 -48
-83 -30 -3 4 -8 55 -10 112 -7 148 -37 235 -69 202z"/>
<path d="M8780 9170 c-19 -5 -73 -16 -120 -26 -99 -20 -157 -43 -184 -73 -17
-19 -18 -24 -5 -47 7 -14 31 -40 54 -57 22 -17 54 -43 70 -58 28 -26 53 -42
157 -99 21 -11 45 -31 54 -45 15 -22 14 -25 -3 -43 -10 -10 -35 -29 -56 -42
-32 -19 -48 -22 -94 -17 -30 3 -65 13 -78 21 -14 9 -31 16 -39 16 -22 0 -44
-37 -39 -65 4 -20 17 -28 71 -45 37 -12 85 -22 107 -23 53 -1 152 48 177 88
19 32 24 89 9 127 -12 32 -71 88 -92 88 -9 0 -32 13 -50 30 -19 16 -37 30 -42
30 -14 0 -97 82 -97 96 0 7 19 18 43 24 23 5 65 17 94 26 32 11 64 14 86 10
49 -9 64 17 37 62 -11 18 -21 32 -22 31 -2 -1 -19 -5 -38 -9z"/>
<path d="M10523 9141 c-42 -5 -58 -13 -87 -43 -33 -34 -35 -39 -24 -63 6 -14
17 -24 23 -21 21 8 31 -8 43 -72 12 -70 9 -88 -19 -97 -10 -4 -24 -15 -30 -26
-8 -16 -5 -27 19 -57 44 -56 49 -70 57 -157 8 -87 18 -115 40 -115 15 0 21 33
16 93 -3 40 17 35 90 -24 56 -44 68 -50 98 -45 65 10 56 27 -50 93 -95 58
-149 116 -149 162 0 32 5 35 80 46 122 17 192 79 176 156 -8 43 -55 114 -88
133 -29 18 -116 47 -133 44 -5 0 -33 -4 -62 -7z m190 -110 c44 -27 53 -51 32
-91 -16 -31 -72 -72 -104 -76 -9 -1 -33 -6 -53 -9 -35 -7 -37 -6 -43 21 -4 16
-10 40 -13 54 -4 14 -7 48 -7 75 l0 50 40 5 c55 7 106 -3 148 -29z"/>
<path d="M9384 9109 c-17 -20 -19 -37 -18 -215 1 -107 1 -194 0 -194 -1 0 -31
11 -66 25 -75 29 -115 31 -151 7 -34 -22 -79 -76 -79 -94 0 -18 66 -81 107
-102 46 -23 159 -21 216 3 25 11 47 24 51 29 3 5 -1 43 -10 83 -18 84 -22 237
-10 382 7 81 6 97 -7 97 -7 0 -22 -10 -33 -21z m-112 -448 c50 -21 76 -47 62
-61 -13 -13 -131 7 -162 27 -23 14 -23 15 -6 34 22 24 50 24 106 0z"/>
<path d="M7703 9063 c2 -26 10 -76 17 -109 18 -84 13 -94 -42 -82 -94 21 -167
1 -142 -40 11 -18 93 -48 156 -57 44 -7 50 -21 37 -88 -34 -163 -36 -183 -28
-204 10 -28 55 -32 62 -5 18 69 28 117 37 186 5 43 13 82 16 87 3 5 32 9 64 9
78 0 114 13 101 38 -11 20 -72 42 -119 42 -39 0 -58 29 -67 102 -8 66 -53 161
-79 166 -16 3 -18 -2 -13 -45z"/>
<path d="M8966 9074 c-21 -20 -20 -33 4 -64 l19 -25 26 26 26 25 -21 27 c-25
31 -33 33 -54 11z"/>
<path d="M12842 9008 c-20 -20 -13 -52 19 -77 39 -30 50 -18 35 39 -11 46 -32
60 -54 38z"/>
<path d="M6616 8961 l-27 -29 30 -21 c37 -27 51 -21 51 23 0 51 -21 62 -54 27z"/>
<path d="M13661 8911 c-96 -34 -138 -71 -183 -162 -49 -98 -53 -136 -19 -153
14 -8 44 -17 66 -20 33 -6 46 -3 74 19 19 14 39 25 45 25 5 0 22 12 37 26 43
41 46 37 70 -121 10 -71 10 -84 -5 -113 -22 -42 -62 -66 -135 -82 -59 -12
-128 -2 -159 23 -9 7 -16 7 -24 -1 -18 -18 16 -80 49 -93 16 -6 69 -12 119
-13 89 -1 93 0 130 30 72 58 79 73 82 195 3 71 -2 137 -11 187 -9 42 -19 113
-22 157 -8 95 -12 112 -28 117 -7 2 -45 -7 -86 -21z m39 -118 c-1 -76 -25
-111 -95 -139 -33 -13 -68 -21 -77 -18 -59 18 51 182 132 197 14 2 28 5 33 6
4 0 7 -20 7 -46z"/>
<path d="M16443 8886 c-100 -49 -163 -101 -199 -162 -23 -39 -26 -53 -22 -111
4 -62 6 -68 46 -104 46 -43 86 -50 145 -25 39 16 117 101 117 128 0 38 31 33
67 -11 44 -52 69 -67 88 -51 12 10 8 24 -24 83 -21 40 -46 97 -54 128 -9 31
-26 67 -37 82 -11 14 -20 36 -20 50 0 14 -6 27 -12 29 -7 2 -50 -14 -95 -36z
m69 -129 c-7 -18 -12 -42 -12 -52 0 -37 -51 -126 -83 -145 -76 -46 -156 -7
-142 69 9 47 35 82 94 125 67 50 121 69 141 50 12 -11 12 -20 2 -47z"/>
<path d="M16914 8889 c-50 -24 -64 -39 -107 -110 -45 -74 -71 -167 -62 -215 9
-50 61 -100 114 -109 72 -12 220 51 229 98 3 14 -2 16 -30 10 -18 -3 -41 -10
-50 -15 -31 -15 -121 -12 -154 5 -18 9 -34 27 -38 41 -13 51 42 155 119 223
34 30 46 48 43 64 -4 31 -16 32 -64 8z"/>
<path d="M9740 8889 c-45 -18 -109 -91 -131 -149 -11 -30 -32 -67 -46 -82
l-26 -27 41 -48 c98 -114 128 -133 205 -133 31 0 57 9 90 30 26 17 52 30 56
30 7 0 41 70 41 85 0 13 -29 3 -46 -16 -28 -31 -80 -49 -143 -49 -48 1 -61 5
-89 31 -19 17 -31 36 -29 43 3 7 25 18 49 24 59 15 124 73 154 138 32 71 31
88 -10 113 -36 22 -76 26 -116 10z m84 -55 c48 -18 -16 -98 -103 -130 l-63
-22 6 31 c15 77 103 143 160 121z"/>
<path d="M6970 8861 c-36 -9 -77 -25 -92 -34 -72 -49 -89 -198 -31 -267 39
-47 118 -83 161 -75 59 11 132 65 132 97 0 14 -6 17 -22 13 -123 -26 -186 -26
-209 1 -15 19 -4 32 39 43 40 11 67 29 119 78 44 42 45 81 1 127 l-33 34 -65
-17z m77 -67 c2 -7 -9 -26 -25 -43 -24 -27 -39 -33 -85 -38 -47 -5 -57 -3 -57
9 0 20 16 33 77 63 50 25 84 28 90 9z"/>
<path d="M13111 8835 c-51 -47 -61 -53 -61 -32 0 6 -7 21 -15 32 -13 17 -17
17 -29 5 -11 -12 -13 -25 -6 -60 5 -25 12 -92 16 -150 4 -75 10 -110 22 -123
27 -30 42 0 52 102 11 118 39 181 80 181 23 0 30 -7 44 -41 9 -23 21 -81 25
-130 8 -87 21 -119 46 -119 20 0 23 19 19 125 -2 61 -10 119 -21 148 -19 53
-71 107 -104 107 -11 0 -42 -20 -68 -45z"/>
<path d="M15025 8861 c-62 -17 -144 -61 -165 -86 -7 -8 -18 -15 -24 -15 -13 0
-66 -54 -91 -92 -35 -55 14 -147 86 -163 68 -15 159 37 206 116 22 36 38 37
58 2 19 -36 44 -64 74 -86 23 -15 26 -15 43 0 24 21 23 43 -1 43 -11 0 -28 12
-39 28 -23 32 -52 142 -52 196 0 37 -14 77 -28 75 -4 0 -34 -8 -67 -18z m15
-119 c0 -22 -48 -99 -81 -129 -35 -32 -108 -46 -136 -27 -31 20 -29 50 5 70
15 10 56 37 91 61 70 46 121 57 121 25z"/>
<path d="M7265 8806 l-57 -55 11 -53 c6 -29 13 -83 17 -120 5 -57 9 -69 31
-83 13 -9 28 -14 31 -10 4 4 7 50 8 103 1 122 15 178 48 186 38 9 91 -27 111
-77 28 -70 43 -126 39 -145 -7 -25 30 -46 57 -32 17 10 19 18 14 58 -7 48 -62
171 -93 207 -37 44 -89 75 -124 75 -30 0 -46 -10 -93 -54z"/>
<path d="M9011 8823 c-12 -15 -21 -36 -20 -47 1 -12 -3 -47 -10 -79 -7 -32
-10 -65 -7 -73 8 -20 40 -18 60 5 22 25 32 194 12 211 -11 8 -19 5 -35 -17z"/>
<path d="M12542 8806 c-46 -43 -52 -46 -71 -34 -18 11 -23 11 -30 -1 -11 -17
-4 -81 15 -143 8 -26 14 -56 14 -67 0 -25 39 -54 55 -41 7 5 13 38 14 72 3 80
30 141 73 168 40 24 56 25 80 3 22 -20 32 -12 25 19 -11 43 -32 60 -79 65 -44
5 -49 3 -96 -41z"/>
<path d="M10995 8812 c-22 -15 -61 -59 -87 -97 -39 -55 -48 -77 -48 -111 0
-38 5 -47 54 -91 62 -57 98 -69 230 -77 82 -5 126 3 126 22 0 11 -75 32 -112
32 -17 0 -45 4 -62 10 -17 5 -52 14 -78 21 -54 13 -101 55 -79 69 8 4 33 11
55 15 69 10 158 64 179 108 34 68 2 110 -94 121 -37 5 -50 1 -84 -22z m114
-51 c18 -12 4 -31 -43 -60 -32 -19 -109 -32 -113 -18 -18 52 102 112 156 78z"/>
<path d="M12155 8801 c-43 -26 -61 -49 -85 -111 -31 -78 -23 -149 23 -190 33
-30 105 -61 141 -59 31 1 135 70 154 101 21 36 10 45 -24 19 -38 -30 -127 -54
-167 -46 -17 4 -42 17 -55 28 l-23 21 32 28 c17 15 42 28 54 28 31 0 112 66
124 101 11 32 6 54 -17 82 -21 24 -116 23 -157 -2z m124 -44 c16 -20 -32 -60
-96 -81 -62 -19 -63 -19 -63 -3 0 27 93 96 131 97 9 0 22 -6 28 -13z"/>
<path d="M12824 8794 c-12 -18 -18 -57 -22 -143 -5 -118 -5 -118 19 -124 39
-11 46 12 47 152 0 103 -2 131 -14 135 -8 3 -21 -5 -30 -20z"/>
<path d="M6626 8788 c-12 -16 -16 -47 -16 -110 0 -87 0 -88 25 -88 14 0 29 8
35 19 11 21 14 159 4 185 -9 23 -30 20 -48 -6z"/>
<path d="M8191 8800 c-93 -5 -95 -5 -102 -33 -6 -21 -3 -32 14 -47 27 -26 77
-26 150 0 31 11 63 20 70 20 8 0 22 9 31 19 17 19 17 20 -6 32 -28 15 -37 15
-157 9z"/>
<path d="M15794 8119 c-15 -16 -20 -43 -26 -123 -7 -108 -11 -143 -23 -197 -5
-19 -9 -52 -9 -74 -1 -22 -10 -64 -20 -94 -18 -52 -18 -53 2 -73 11 -12 25
-17 32 -13 22 14 42 80 50 165 5 47 15 132 23 190 17 117 18 231 1 237 -6 2
-19 -6 -30 -18z"/>
<path d="M13962 8093 c-29 -11 -32 -41 -13 -130 11 -48 27 -105 35 -125 22
-53 21 -57 -26 -77 -68 -29 -80 -49 -77 -123 3 -72 27 -130 64 -154 32 -21 63
-13 101 26 16 17 46 40 67 52 35 21 47 41 29 52 -5 3 -33 -10 -63 -29 -33 -21
-67 -35 -87 -35 -28 0 -35 5 -48 35 -16 38 -18 73 -5 93 10 17 79 23 101 10
10 -6 25 -8 35 -4 20 7 18 22 -19 121 -14 39 -35 117 -46 175 -21 109 -26 121
-48 113z"/>
<path d="M14637 7976 c-13 -14 -32 -47 -41 -73 -9 -27 -26 -65 -37 -85 -19
-37 -19 -38 1 -95 11 -31 20 -59 20 -61 0 -2 12 -2 28 0 27 3 27 3 32 99 7
142 25 162 144 157 33 -2 60 1 62 7 7 17 -83 64 -135 71 -45 6 -52 4 -74 -20z"/>
<path d="M16372 7977 c-7 -8 -20 -47 -31 -88 -10 -41 -37 -105 -60 -144 -22
-38 -41 -75 -41 -82 0 -7 10 -18 22 -24 19 -10 25 -8 45 17 51 64 109 210 115
289 3 34 0 40 -18 43 -11 2 -26 -3 -32 -11z"/>
<path d="M14307 7887 c-33 -15 -107 -102 -107 -127 0 -11 -4 -22 -10 -25 -16
-10 -11 -61 8 -77 32 -28 124 -70 166 -74 92 -10 129 0 141 37 9 28 3 32 -29
15 -30 -15 -59 -11 -114 18 -27 14 -31 20 -22 35 5 11 14 21 18 23 17 6 79 96
86 123 14 56 -61 85 -137 52z m53 -67 c0 -20 -30 -70 -43 -71 -6 0 -22 -2 -34
-5 -32 -6 -29 17 6 55 28 30 71 42 71 21z"/>
<path d="M15404 7886 c-17 -8 -33 -20 -35 -27 -4 -12 -2 -166 2 -219 7 -95
-17 -204 -50 -225 -18 -10 0 -35 26 -35 20 0 29 10 49 57 14 32 31 89 37 128
l12 70 80 6 c100 7 154 33 178 83 15 33 16 40 2 66 -20 38 -113 88 -189 100
-75 12 -74 12 -112 -4z m210 -78 c37 -16 44 -47 15 -69 -28 -21 -64 -29 -130
-29 -39 0 -49 3 -50 18 -8 86 11 106 88 98 29 -3 64 -11 77 -18z"/>
<path d="M16002 7827 c-39 -15 -52 -32 -52 -72 0 -30 24 -55 108 -114 40 -28
40 -42 1 -75 -41 -35 -88 -34 -129 0 -34 29 -45 25 -55 -17 -6 -22 -1 -31 29
-54 48 -36 107 -38 169 -5 86 46 87 106 1 195 -69 73 -70 85 -1 85 57 1 91 19
85 47 -3 15 -14 18 -63 20 -33 1 -75 -4 -93 -10z"/>
<path d="M6364 7696 c-47 -22 -134 -106 -134 -128 0 -6 -13 -27 -30 -48 -37
-47 -38 -63 -2 -88 42 -30 95 -35 159 -17 30 9 56 15 57 13 2 -2 7 -18 12 -37
7 -26 17 -37 39 -42 16 -5 30 -7 32 -5 11 11 -3 128 -26 213 -7 24 -13 69 -15
100 -3 70 -15 75 -92 39z m31 -119 c-9 -52 -30 -94 -54 -105 -33 -16 -81 -15
-81 1 1 37 108 145 130 132 5 -3 7 -15 5 -28z"/>
<path d="M7290 7713 c-14 -2 -39 -15 -55 -28 -25 -20 -28 -27 -19 -42 12 -19
21 -20 136 -7 70 7 128 -7 128 -30 0 -26 -99 -96 -135 -96 -7 0 -20 -11 -29
-25 -16 -24 -16 -27 10 -61 30 -39 90 -74 126 -74 13 0 34 7 46 16 22 15 22
17 7 34 -9 10 -34 20 -55 24 -24 4 -40 12 -40 20 0 7 24 29 54 49 59 39 86 81
86 133 0 27 -6 36 -31 49 -43 23 -182 46 -229 38z"/>
<path d="M13638 7681 c-35 -30 -37 -31 -67 -31 -32 0 -34 -34 -7 -92 14 -29
30 -72 36 -94 10 -43 28 -58 55 -48 12 5 13 22 8 100 -6 99 1 124 37 124 37 0
88 -93 102 -184 5 -30 34 -44 54 -25 36 37 -43 217 -113 259 -46 27 -66 25
-105 -9z"/>
<path d="M6036 7691 c-3 -5 -15 -7 -26 -4 -30 8 -76 -15 -103 -51 -26 -33 -27
-71 -8 -216 4 -38 4 -110 -2 -174 -8 -88 -7 -110 4 -116 8 -5 19 -4 27 2 31
26 42 70 47 184 3 64 7 120 11 125 3 5 15 9 27 9 34 0 94 55 117 107 17 39 19
52 9 80 -14 45 -86 82 -103 54z m34 -80 c0 -19 -21 -66 -33 -73 -7 -4 -22 -8
-34 -8 -30 0 -31 42 -3 70 20 20 70 28 70 11z"/>
<path d="M4622 7668 c-14 -14 -15 -42 -3 -66 5 -9 21 -44 36 -77 14 -33 30
-67 34 -75 5 -8 5 -24 1 -35 -13 -37 4 -156 24 -170 35 -26 46 -8 46 70 0 80
6 105 24 105 16 0 37 -36 63 -110 27 -74 28 -76 66 -85 l28 -7 -7 43 c-5 38
-25 91 -67 177 -6 13 -26 37 -44 52 -28 25 -36 28 -65 19 -18 -5 -34 -9 -35
-9 -2 0 -3 8 -3 19 0 10 -7 24 -15 31 -8 7 -12 17 -9 22 8 13 -36 108 -51 108
-6 0 -16 -5 -23 -12z"/>
<path d="M13358 7660 c-20 -11 -59 -41 -87 -67 -63 -58 -76 -105 -42 -149 11
-15 21 -35 21 -45 0 -19 63 -83 104 -106 39 -23 73 -15 128 30 61 50 88 91 72
107 -8 8 -24 -2 -55 -34 -53 -53 -89 -65 -124 -42 -32 21 -59 62 -50 76 4 6
30 24 59 40 87 49 134 159 84 194 -30 21 -65 19 -110 -4z m61 -67 c0 -29 -56
-65 -106 -71 -42 -4 -45 -3 -35 13 12 22 99 74 125 75 10 0 17 -7 16 -17z"/>
<path d="M5390 7618 c-72 -13 -133 -66 -128 -113 3 -26 12 -35 68 -63 36 -18
75 -31 87 -29 12 2 24 -2 27 -9 6 -16 -3 -24 -26 -24 -22 0 -94 -35 -103 -50
-25 -40 86 -44 159 -6 45 24 81 68 73 89 -5 13 -64 39 -157 68 -58 18 -65 44
-16 64 19 8 48 15 64 15 15 0 36 6 46 13 15 11 17 17 7 35 -13 24 -19 24 -101
10z"/>
<path d="M6680 7601 c-58 -12 -127 -48 -145 -75 -42 -63 38 -156 134 -156 32
0 44 5 57 25 9 14 20 25 25 25 15 0 29 -48 40 -129 14 -112 -8 -161 -73 -161
-41 0 -97 20 -125 45 l-28 23 28 29 c44 47 4 62 -46 19 -16 -14 -34 -27 -40
-29 -8 -2 -8 -15 1 -45 31 -103 234 -158 305 -84 37 39 47 73 47 167 0 114
-44 289 -83 333 -21 23 -37 25 -97 13z m40 -84 c0 -27 -51 -87 -73 -87 -50 0
-62 47 -21 79 30 23 94 29 94 8z"/>
<path d="M12983 7541 c-82 -79 -87 -89 -62 -137 11 -22 22 -56 26 -77 7 -48
34 -83 57 -74 15 6 16 17 10 94 -6 79 -4 92 16 131 25 48 54 72 87 72 29 0 29
14 1 34 -40 28 -69 19 -135 -43z"/>
<path d="M6952 7519 c-49 -25 -63 -45 -58 -88 2 -17 -3 -39 -10 -48 -21 -28
-17 -39 29 -82 81 -78 196 -112 239 -69 23 23 20 41 -8 43 -42 4 -134 36 -134
48 0 7 30 32 65 56 67 45 76 59 49 82 -9 7 -20 24 -25 36 -17 45 -81 54 -147
22z m84 -60 c6 -10 -41 -58 -58 -59 -5 0 -8 11 -8 25 0 17 7 29 23 35 30 12
35 12 43 -1z"/>
<path d="M5095 7512 c-22 -11 -55 -35 -73 -56 -26 -30 -32 -45 -32 -81 0 -34
5 -47 19 -55 38 -20 68 -12 98 27 22 26 34 34 44 27 27 -17 77 -31 110 -30 51
2 49 29 -3 79 -23 23 -48 56 -54 72 -13 37 -51 43 -109 17z"/>
<path d="M16272 7504 c-25 -17 -27 -32 -10 -69 13 -30 53 -34 66 -7 11 20 6
60 -9 79 -14 17 -20 16 -47 -3z"/>
<path d="M14758 7370 c-14 -11 -43 -22 -65 -24 -54 -7 -159 -32 -175 -42 -7
-5 -51 -48 -98 -98 -97 -102 -115 -138 -132 -271 -14 -115 -6 -167 40 -245 53
-91 74 -107 189 -145 84 -28 123 -35 225 -40 l123 -7 125 42 c137 46 188 80
240 156 80 116 79 261 -4 434 -20 41 -36 79 -36 85 0 18 -72 83 -123 110 -35
18 -63 25 -103 25 -35 0 -69 7 -94 20 -49 25 -81 25 -112 0z m222 -110 c36
-11 79 -29 96 -39 40 -24 96 -133 123 -240 24 -92 22 -137 -9 -206 -19 -43
-72 -105 -90 -105 -6 0 -31 -9 -56 -20 -138 -63 -256 -86 -307 -58 -12 6 -62
12 -112 14 -154 4 -226 57 -260 193 -22 84 -13 189 22 247 41 72 143 170 193
187 150 52 175 57 255 52 44 -2 109 -13 145 -25z"/>
<path d="M4245 7325 c-16 -14 -34 -25 -39 -25 -5 0 -17 -7 -27 -16 -17 -16
-17 -18 6 -63 14 -25 25 -55 25 -67 0 -29 20 -52 54 -60 l29 -7 -8 54 c-11 75
-10 118 2 130 17 17 73 -38 73 -71 0 -14 9 -43 20 -65 11 -22 20 -45 20 -52 0
-32 54 -26 63 7 3 11 2 22 -2 25 -5 2 -16 26 -26 52 -10 26 -31 67 -46 91 -16
24 -29 47 -29 51 0 13 -47 41 -67 41 -10 -1 -31 -12 -48 -25z"/>
<path d="M3962 7193 c-63 -67 -102 -127 -102 -157 0 -19 55 -76 89 -94 39 -20
66 -7 107 50 21 29 40 56 44 60 3 4 23 3 43 -3 28 -8 42 -7 53 2 18 15 18 29
1 29 -8 0 -26 24 -42 53 -32 59 -93 127 -115 127 -8 0 -43 -30 -78 -67z m93
-50 c-1 -16 -5 -37 -9 -48 -4 -11 -12 -30 -16 -42 -14 -34 -54 -57 -79 -44
-17 10 -18 15 -10 40 10 28 91 121 107 121 4 0 7 -12 7 -27z"/>
<path d="M7353 7200 c-19 -8 -23 -17 -23 -54 0 -40 3 -46 24 -52 44 -11 61 -1
64 34 3 31 -20 83 -36 81 -4 0 -17 -4 -29 -9z"/>
<path d="M3729 7132 c-47 -32 -67 -60 -83 -116 -27 -91 -11 -135 53 -155 36
-10 45 -9 80 8 41 21 76 58 87 93 10 32 -1 31 -65 -4 -49 -27 -64 -31 -78 -22
-38 24 1 127 53 140 26 7 33 41 12 62 -16 16 -28 15 -59 -6z"/>
<path d="M3246 7108 c-18 -26 -15 -33 24 -47 28 -9 32 -8 42 14 6 13 8 31 5
39 -9 23 -53 20 -71 -6z"/>
<path d="M5546 7013 c-16 -3 -40 -12 -53 -20 -13 -9 -31 -16 -41 -17 -19 -1
-139 -59 -164 -79 -9 -7 -39 -50 -67 -95 -48 -77 -51 -85 -51 -149 0 -82 29
-169 88 -263 57 -91 84 -114 165 -141 40 -13 79 -33 88 -44 16 -18 21 -19 88
-7 39 6 86 12 103 12 52 0 150 21 201 43 58 25 111 91 157 198 30 71 32 83 28
155 -4 60 -12 95 -35 144 -44 95 -83 137 -182 197 -71 42 -102 55 -157 63 -70
10 -115 11 -168 3z m207 -109 c76 -27 163 -82 190 -121 40 -59 70 -167 62
-226 -9 -70 -56 -169 -93 -195 -40 -29 -269 -84 -293 -71 -10 5 -35 9 -56 9
-56 0 -161 35 -185 62 -46 52 -112 166 -123 213 -16 66 -10 97 29 169 28 53
41 66 100 99 37 21 107 49 154 62 93 25 141 25 215 -1z"/>
<path d="M16700 6988 c-11 -18 -20 -41 -20 -50 0 -15 -63 -144 -79 -161 -4 -4
-45 8 -90 27 -45 19 -137 51 -204 70 -224 65 -331 84 -507 91 -69 3 -146 9
-172 14 -32 5 -53 4 -70 -5 -13 -7 -40 -13 -60 -14 -24 0 -45 -7 -58 -20 -29
-29 -26 -50 7 -50 15 0 53 -5 84 -12 46 -9 63 -9 81 0 13 7 37 13 53 14 68 2
413 -35 450 -49 52 -20 185 -61 255 -79 30 -8 84 -29 120 -47 l65 -32 -1 -43
c0 -27 -13 -69 -35 -114 l-34 -70 30 -25 c26 -23 35 -25 82 -19 58 7 127 21
183 38 43 14 64 17 170 28 123 12 150 26 150 77 0 16 -99 149 -195 262 -30 36
-55 69 -55 73 0 20 -54 91 -83 108 -42 26 -44 26 -67 -12z"/>
<path d="M13985 6957 c-27 -4 -88 -6 -135 -3 -65 4 -90 2 -104 -9 -12 -9 -43
-15 -75 -15 -31 0 -81 -7 -111 -16 -30 -8 -77 -17 -105 -20 -27 -4 -59 -12
-70 -19 -11 -6 -42 -15 -70 -19 -61 -9 -107 -22 -162 -47 -24 -10 -49 -19 -56
-19 -7 0 -28 -9 -47 -20 -56 -31 -220 -110 -230 -110 -5 0 -35 -12 -67 -26
-32 -14 -80 -33 -108 -41 -27 -8 -56 -20 -62 -25 -21 -17 -16 -66 7 -78 27
-14 56 -5 215 71 69 32 132 59 141 59 9 0 41 14 71 31 52 30 210 90 287 110
21 5 47 14 57 19 10 6 44 13 76 16 32 3 81 12 108 21 28 8 59 17 70 18 11 2
45 8 74 14 41 8 64 8 89 0 25 -8 44 -8 71 -1 20 6 73 13 118 15 97 4 136 23
131 65 -4 32 -39 42 -113 29z"/>
<path d="M3376 6909 c-13 -19 -13 -25 5 -58 10 -19 19 -41 19 -46 0 -6 9 -30
21 -54 17 -35 23 -40 35 -31 23 20 18 99 -12 158 -28 56 -45 64 -68 31z"/>
<path d="M7437 6873 c-4 -3 -7 -18 -7 -33 0 -15 -3 -30 -7 -33 -3 -4 -8 -24
-10 -45 -4 -46 -23 -121 -33 -127 -4 -2 -39 4 -79 15 -39 11 -81 20 -94 20
-13 0 -27 4 -33 10 -11 11 -86 26 -184 36 -36 3 -87 10 -115 15 -101 19 -217
29 -233 20 -9 -5 -44 -12 -77 -16 -33 -4 -71 -10 -85 -12 -14 -2 -61 -6 -105
-9 -153 -8 -187 -24 -144 -70 27 -29 48 -29 254 -3 147 18 331 14 440 -11 28
-6 73 -12 100 -14 64 -3 223 -39 281 -63 43 -17 45 -20 39 -50 -10 -53 -43
-120 -81 -159 -64 -69 -21 -108 71 -65 24 11 65 25 92 32 26 6 68 18 93 26 50
16 65 18 230 27 151 9 181 14 208 34 22 17 22 19 6 57 -42 103 -168 232 -308
317 -177 107 -202 119 -219 101z"/>
<path d="M8365 6859 c-49 -4 -128 -8 -175 -8 -73 -2 -89 -5 -114 -25 -16 -13
-26 -28 -23 -33 11 -17 6 -327 -10 -608 -4 -77 -8 -176 -7 -220 1 -62 11 -390
13 -415 1 -3 3 -102 6 -220 4 -118 8 -233 10 -255 3 -22 7 -183 9 -357 3 -175
7 -322 10 -327 14 -22 17 -260 6 -413 -17 -232 -16 -240 14 -272 26 -29 46
-28 46 3 0 31 19 39 81 34 32 -3 84 -1 116 5 87 17 212 23 493 27 140 2 302 7
360 11 126 10 214 10 420 0 126 -6 171 -4 240 9 47 9 114 20 150 24 36 5 76
13 90 18 14 6 31 8 38 5 8 -2 45 3 83 13 38 9 73 14 77 11 5 -3 24 -1 43 5 31
9 218 23 459 34 52 3 133 7 180 10 335 21 564 20 695 -5 61 -12 141 -25 178
-30 38 -5 73 -12 78 -16 11 -6 124 -19 270 -30 60 -5 78 -3 91 9 17 18 41 222
33 284 -2 21 -9 83 -15 138 -6 55 -13 116 -15 135 -13 99 -30 421 -28 533 1
71 9 170 17 220 9 51 18 133 22 182 3 50 8 94 11 98 6 10 5 686 -1 696 -2 3
-7 96 -11 206 -8 225 -25 363 -50 401 -16 24 -21 26 -65 21 -26 -3 -166 -11
-312 -18 -204 -10 -281 -10 -334 -1 -157 27 -794 67 -854 54 -49 -10 -407 -8
-510 2 -47 5 -141 8 -210 7 -280 -7 -350 -5 -453 7 -59 7 -143 15 -185 17 -42
2 -135 9 -207 15 -341 29 -571 35 -760 19z m390 -89 c66 -5 152 -11 190 -15
39 -3 113 -10 165 -15 52 -5 174 -14 270 -20 96 -6 191 -16 210 -21 19 -5 134
-7 255 -4 121 2 305 0 409 -6 131 -7 245 -6 375 1 190 11 574 1 746 -19 105
-13 215 -24 240 -24 80 -1 412 16 465 23 118 17 122 15 140 -78 21 -111 33
-982 17 -1202 -9 -126 -13 -162 -34 -305 -12 -83 -14 -144 -9 -250 4 -77 9
-192 12 -255 3 -63 11 -149 19 -190 23 -125 32 -334 20 -433 -2 -17 -12 -38
-22 -45 -21 -15 -10 -16 -288 31 -397 67 -431 70 -783 62 -174 -4 -330 -9
-347 -12 -16 -3 -120 -9 -230 -14 -110 -5 -211 -11 -225 -13 -14 -3 -54 -9
-90 -15 -36 -6 -87 -15 -115 -20 -62 -11 -296 -47 -390 -59 -40 -5 -127 -5
-205 0 -168 10 -285 12 -298 4 -5 -3 -184 -8 -398 -11 -416 -5 -463 -8 -593
-31 -54 -10 -87 -12 -94 -5 -6 6 -5 44 2 108 12 102 8 313 -9 460 -5 43 -9
177 -10 298 0 121 -3 234 -5 250 -8 58 -26 447 -22 459 3 6 1 119 -4 251 -5
144 -5 326 1 455 5 118 12 307 15 420 3 112 7 205 8 206 1 2 97 10 212 19 116
9 217 20 225 25 8 5 24 7 35 3 11 -3 74 -9 140 -13z"/>
<path d="M8912 6398 c-5 -7 -26 -60 -45 -118 -45 -135 -76 -202 -90 -197 -6 2
-34 47 -63 101 -62 117 -105 166 -132 150 -12 -8 -17 -25 -18 -60 -2 -91 -16
-259 -24 -294 -5 -19 -9 -56 -9 -81 1 -25 -6 -69 -15 -97 -15 -51 -15 -52 11
-72 29 -22 40 -19 54 17 12 32 35 193 44 305 4 49 10 90 15 93 16 10 40 -8 40
-30 0 -12 9 -30 20 -40 11 -10 20 -23 20 -29 0 -19 54 -66 76 -66 29 0 39 14
59 85 29 103 62 159 76 132 8 -14 26 -130 35 -227 3 -35 11 -74 17 -85 6 -11
11 -51 11 -90 1 -64 3 -70 23 -73 18 -3 23 3 29 32 5 30 -22 350 -31 366 -2 3
-6 34 -10 70 -7 74 -18 117 -48 178 -22 45 -29 49 -45 30z"/>
<path d="M10575 6387 c-14 -21 -14 -32 -1 -103 8 -43 18 -110 22 -149 4 -38 8
-74 9 -80 1 -5 3 -76 3 -157 2 -140 3 -147 23 -153 43 -14 51 11 50 161 -1 77
-6 164 -11 194 -5 30 -14 100 -21 155 -13 124 -16 133 -39 145 -16 8 -22 6
-35 -13z"/>
<path d="M11160 6355 c-7 -25 -9 -60 -6 -80 4 -20 4 -61 0 -91 l-6 -54 -40 0
c-49 0 -78 -15 -78 -39 0 -25 42 -51 80 -51 41 0 51 -28 39 -116 -25 -188 -25
-182 5 -190 15 -3 31 -3 36 2 10 11 40 175 40 224 0 54 10 61 95 71 127 14
123 27 -22 69 -40 11 -73 22 -74 23 0 1 -3 54 -6 117 -5 109 -18 160 -42 160
-5 0 -14 -20 -21 -45z"/>
<path d="M11431 6383 c-5 -10 -5 -26 0 -41 22 -56 43 -376 29 -437 -5 -24 -9
-73 -9 -108 1 -60 3 -65 25 -70 32 -6 40 7 48 74 3 30 12 73 19 95 12 34 18
39 49 42 30 3 40 -3 68 -34 43 -49 67 -105 75 -174 15 -119 33 -153 65 -115
15 18 7 117 -14 187 -18 61 -88 160 -136 193 -21 15 -57 29 -80 32 -52 7 -55
15 -65 162 -4 63 -9 127 -10 143 -8 60 -43 88 -64 51z"/>
<path d="M10834 6256 c-11 -28 0 -61 22 -64 28 -4 56 24 52 52 -4 26 -65 37
-74 12z"/>
<path d="M9323 6085 c-44 -19 -108 -123 -119 -192 -8 -58 0 -87 31 -101 19 -9
25 -19 25 -42 0 -33 36 -75 78 -91 41 -16 135 -11 164 9 97 64 124 180 65 284
-32 57 -121 136 -156 139 -9 1 -26 3 -37 4 -12 1 -35 -3 -51 -10z m135 -71
c24 -16 82 -126 82 -153 0 -9 -14 -40 -31 -69 -23 -40 -41 -58 -72 -73 -60
-27 -91 -24 -132 12 l-36 32 21 22 c24 26 25 38 4 56 -12 10 -15 24 -10 56 13
97 110 162 174 117z"/>
<path d="M9795 6008 c-22 -11 -51 -25 -65 -32 -16 -8 -24 -19 -22 -32 2 -10 4
-57 6 -104 4 -113 10 -130 47 -130 16 0 29 3 30 8 0 4 2 40 5 80 6 105 42 162
105 162 37 0 89 -101 89 -174 0 -79 34 -96 66 -34 35 68 -33 196 -138 261 -35
22 -73 20 -123 -5z"/>
<path d="M10870 6011 c-15 -29 -1 -248 17 -263 25 -20 52 19 54 77 1 54 -15
178 -26 195 -10 16 -33 12 -45 -9z"/>
<path d="M10173 5969 c-18 -16 -33 -38 -33 -48 0 -9 -7 -26 -15 -37 -15 -20
-19 -82 -9 -121 5 -20 13 -23 51 -23 42 0 45 1 38 23 -26 80 -13 134 39 162
43 23 77 15 128 -33 33 -31 40 -44 40 -76 0 -74 -76 -120 -148 -90 -42 17 -50
14 -35 -14 44 -83 176 -76 229 11 46 75 36 124 -42 205 -55 58 -84 72 -153 72
-51 0 -62 -4 -90 -31z"/>
<path d="M20830 6819 c-37 -9 -213 -15 -655 -24 -148 -3 -328 -8 -400 -11
-196 -9 -358 -2 -428 17 -29 8 -201 11 -567 10 -289 -1 -676 -1 -860 -1 -194
0 -367 -5 -410 -11 -41 -6 -85 -12 -98 -14 -39 -4 -72 -44 -72 -87 0 -43 -17
-164 -32 -223 -33 -134 -40 -168 -48 -240 -24 -219 -27 -287 -22 -690 2 -192
0 -526 -10 -1477 -3 -269 -2 -272 69 -272 133 2 354 16 388 25 60 17 205 30
250 24 22 -3 182 -5 355 -4 173 1 419 0 545 -2 657 -8 935 -3 1209 21 77 7
164 10 195 8 31 -3 90 -1 131 4 103 13 1248 23 1450 13 170 -8 916 -13 955 -7
39 7 40 8 51 65 8 40 9 92 2 175 -12 153 -11 375 2 493 6 52 18 184 26 294 9
110 18 220 20 245 9 104 21 422 19 510 -5 175 -15 393 -19 399 -2 3 -7 53 -10
111 -4 58 -9 139 -11 180 -3 41 -7 131 -10 200 -6 119 -16 181 -37 207 -7 9
-59 11 -191 9 -100 -1 -186 -4 -192 -6 -30 -11 -537 24 -670 45 -133 22 -851
33 -925 14z m660 -94 c222 -6 287 -9 352 -19 24 -3 63 -8 88 -11 25 -3 52 -8
60 -10 28 -8 323 -9 521 -1 108 5 205 5 217 2 31 -10 40 -54 47 -221 3 -82 8
-168 10 -190 6 -50 24 -318 34 -487 3 -69 4 -184 0 -255 -4 -70 -8 -185 -8
-254 -1 -70 -5 -149 -10 -176 -6 -27 -11 -85 -12 -129 -1 -43 -8 -131 -16
-194 -30 -256 -35 -407 -21 -649 7 -125 -1 -166 -35 -175 -37 -10 -637 -6
-709 4 -117 17 -1214 14 -1713 -5 -185 -7 -267 -11 -570 -32 -139 -9 -526 -5
-667 7 -66 6 -225 9 -370 5 -322 -6 -534 -8 -773 -6 -104 1 -201 -1 -215 -5
-52 -13 -169 -24 -285 -26 l-120 -1 1 594 c1 639 11 1535 18 1584 2 17 9 82
16 145 6 63 22 170 36 238 13 68 24 136 24 151 0 57 46 81 188 96 34 4 65 11
68 16 3 5 13 5 23 0 18 -10 332 -19 384 -11 6 1 28 2 47 1 19 -1 244 0 500 2
320 2 533 -1 685 -11 246 -15 591 -20 705 -10 41 3 195 7 342 8 146 1 269 4
272 8 4 3 55 7 114 8 59 1 168 7 242 12 74 6 178 8 230 6 52 -2 187 -6 300 -9z"/>
<path d="M21835 6431 c-8 -14 13 -115 32 -153 7 -15 13 -38 13 -53 l0 -25
-130 0 c-122 0 -130 -1 -141 -22 -10 -18 -8 -24 7 -35 33 -24 93 -34 190 -32
52 1 97 -1 100 -3 2 -3 7 -27 10 -54 5 -45 -7 -135 -37 -276 -10 -46 -10 -59
0 -72 15 -18 47 -21 56 -6 23 36 57 205 60 291 1 54 6 102 9 108 10 15 71 29
139 33 51 3 57 5 55 23 -3 22 -22 28 -149 46 l-86 12 -38 93 c-38 92 -76 146
-90 125z"/>
<path d="M19955 6384 c-46 -24 -50 -30 -30 -61 21 -32 23 -57 28 -381 2 -195
4 -215 21 -224 29 -16 44 10 49 87 6 85 20 93 66 35 34 -43 112 -103 173 -134
31 -15 40 -17 53 -6 19 16 20 50 0 50 -24 0 -94 40 -126 73 -39 39 -119 160
-119 179 0 19 29 28 90 28 51 0 135 35 165 69 29 33 28 127 -3 166 -34 43 -88
76 -177 107 -90 31 -146 35 -190 12z m166 -80 c81 -24 142 -59 157 -89 29 -57
-49 -110 -181 -121 l-75 -7 -5 29 c-3 16 -6 64 -5 107 0 71 2 79 21 87 30 12
28 12 88 -6z"/>
<path d="M18967 6315 c-21 -8 -51 -23 -66 -35 -16 -11 -33 -20 -38 -20 -20 0
-213 -207 -213 -228 0 -5 -7 -16 -16 -23 -14 -12 -20 -9 -47 21 -129 148 -203
212 -265 230 -20 5 -64 10 -97 10 l-60 0 -65 -70 c-104 -111 -123 -197 -79
-360 11 -41 21 -84 22 -94 2 -23 -24 -32 -133 -46 -41 -6 -89 -17 -106 -25
-65 -31 -191 -179 -200 -237 -7 -39 20 -116 66 -192 33 -53 93 -105 168 -144
25 -12 54 -29 65 -37 12 -8 34 -15 50 -15 16 0 59 -7 96 -15 36 -8 97 -21 136
-28 l69 -13 -3 -54 c-1 -29 -7 -60 -12 -69 -4 -9 -18 -49 -30 -90 -11 -41 -31
-97 -44 -125 -47 -105 -66 -165 -63 -197 3 -32 6 -34 43 -37 22 -2 47 -9 55
-16 56 -47 161 -46 254 3 32 17 64 31 71 31 15 0 124 104 150 143 l18 28 61
-59 c59 -56 64 -59 163 -82 90 -21 107 -22 145 -11 55 17 123 72 148 121 37
73 18 225 -43 346 -14 27 -27 60 -28 74 -4 22 0 25 31 28 19 1 61 10 94 20
127 36 246 210 246 361 0 88 -26 164 -72 211 -38 40 -53 46 -196 76 -45 10
-87 22 -92 29 -6 7 -4 31 5 66 19 77 38 269 31 329 -3 28 -15 71 -26 95 -11
24 -20 47 -20 51 0 5 -12 21 -27 36 -31 32 -81 37 -146 13z m102 -88 c24 -30
44 -141 38 -217 -7 -87 -36 -241 -48 -254 -10 -11 -213 -17 -259 -7 -21 4 -40
16 -49 33 -9 14 -29 47 -44 72 -32 53 -30 67 14 134 16 24 36 56 44 73 16 30
129 119 151 119 7 0 19 9 27 21 24 33 105 50 126 26z m-716 -70 c54 -35 62
-42 148 -142 79 -93 85 -109 60 -176 -12 -31 -30 -64 -40 -73 -34 -31 -198
-45 -325 -28 -43 6 -53 12 -69 40 -23 39 -57 164 -57 211 0 49 34 113 85 160
40 37 50 41 95 41 41 0 62 -7 103 -33z m312 -377 c9 -27 -1 -39 -25 -33 -21 6
-24 12 -14 37 9 22 31 20 39 -4z m354 -129 c20 -20 20 -21 -19 -112 -22 -51
-48 -101 -57 -111 -17 -19 -17 -19 -35 4 -9 13 -20 36 -24 52 -3 15 -17 53
-31 84 -13 30 -22 61 -19 68 3 8 20 14 38 15 18 0 42 4 53 9 34 15 74 11 94
-9z m-297 -8 c22 -24 63 -114 87 -188 10 -33 28 -80 40 -105 30 -65 25 -149
-12 -228 -11 -23 -14 -23 -144 -21 -77 2 -146 8 -163 15 -44 19 -84 104 -75
161 7 48 51 172 66 188 5 5 9 19 9 30 0 12 3 25 8 29 4 4 14 33 22 64 13 51
18 57 45 62 68 13 101 11 117 -7z m-242 -3 c13 -8 13 -15 -3 -57 -11 -26 -34
-91 -52 -143 -41 -120 -54 -125 -95 -35 -16 36 -40 80 -54 98 -27 36 -66 111
-66 126 0 6 43 12 103 14 56 1 113 4 127 5 14 1 32 -3 40 -8z m-332 -76 c23
-38 53 -89 65 -114 50 -97 110 -206 119 -217 6 -7 1 -28 -14 -60 -22 -45 -26
-49 -78 -60 -88 -20 -275 13 -380 67 -74 38 -170 167 -170 227 0 60 102 161
186 185 56 16 207 46 219 44 6 -2 29 -34 53 -72z m1097 57 c89 -13 135 -38
164 -90 52 -94 26 -225 -64 -336 -42 -51 -95 -73 -196 -82 l-66 -6 -52 79
c-61 91 -61 90 -3 220 22 49 52 122 67 162 27 73 28 74 59 68 17 -3 58 -10 91
-15z m-703 -698 c113 -174 117 -187 77 -264 -55 -105 -177 -187 -294 -196 -55
-5 -64 -3 -93 22 -29 24 -31 30 -26 68 4 23 18 65 32 92 26 53 39 91 77 244
13 52 29 98 37 102 7 5 29 9 48 9 19 0 42 5 50 10 8 5 18 10 22 10 4 0 35 -44
70 -97z m196 91 c33 -5 52 -12 52 -20 0 -16 -45 -120 -66 -152 -15 -23 -16
-23 -35 -6 -10 9 -19 21 -19 26 0 5 -16 32 -35 61 -34 50 -42 77 -28 90 8 9
62 9 131 1z m295 -22 c34 -30 77 -119 101 -211 23 -86 24 -96 11 -128 -31 -74
-90 -123 -149 -123 -35 0 -129 32 -153 51 -21 18 -69 90 -77 116 -5 16 12 61
63 165 39 80 74 148 78 151 11 12 107 -4 126 -21z"/>
<path d="M18619 5473 c-45 -28 -89 -105 -89 -157 0 -55 25 -86 88 -110 58 -22
109 -8 151 39 28 32 31 42 31 101 0 70 -17 116 -49 134 -29 15 -103 12 -132
-7z"/>
<path d="M20475 6078 c-16 -6 -38 -18 -49 -27 -21 -18 -60 -90 -53 -98 3 -2 1
-20 -4 -38 -8 -29 -5 -43 17 -87 35 -71 68 -104 136 -139 46 -23 71 -29 120
-29 35 0 68 4 74 8 11 7 34 45 34 56 0 2 -35 4 -79 4 -84 -1 -120 13 -170 66
-24 26 -23 56 3 56 43 0 151 44 187 77 64 58 47 108 -51 143 -59 22 -118 24
-165 8z m157 -79 c10 -5 18 -13 18 -18 0 -11 -66 -39 -124 -51 -40 -9 -52 -8
-64 4 -13 13 -12 19 8 51 l23 37 61 -7 c33 -3 68 -11 78 -16z"/>
<path d="M21527 6056 c-108 -66 -155 -174 -112 -257 23 -44 112 -81 195 -80
60 0 67 3 93 32 36 39 25 53 -30 41 -89 -20 -185 17 -191 75 -4 41 64 128 108
138 26 6 30 11 30 41 0 31 -3 34 -27 34 -16 0 -45 -11 -66 -24z"/>
<path d="M21061 6039 c-75 -19 -96 -32 -161 -100 -48 -51 -70 -94 -70 -137 1
-69 49 -104 128 -92 47 8 53 13 136 111 l29 34 26 -35 c56 -76 107 -120 139
-120 19 0 32 6 36 17 6 15 -8 32 -26 33 -9 0 -88 115 -88 127 0 5 -13 24 -29
43 -25 30 -29 41 -24 75 8 61 -6 67 -96 44z m29 -80 c0 -6 -14 -37 -30 -68
-39 -72 -90 -107 -147 -102 -54 5 70 155 143 174 31 8 34 8 34 -4z"/>
<path d="M19931 5331 c-78 -25 -96 -38 -100 -72 -1 -9 166 -149 178 -149 6 0
28 -15 48 -33 21 -19 52 -42 70 -52 17 -10 40 -33 50 -52 16 -30 16 -34 1 -49
-17 -18 -115 -44 -164 -44 -37 0 -123 28 -146 47 -25 22 -52 12 -56 -19 -3
-29 27 -56 88 -77 53 -19 220 -26 263 -12 48 16 87 67 87 114 0 47 -29 80
-149 173 -173 133 -174 134 -115 159 53 22 140 29 191 14 54 -15 68 -5 53 38
-13 36 -38 44 -144 42 -47 -1 -99 -10 -155 -28z"/>
<path d="M21383 5244 c-3 -9 0 -20 8 -25 21 -13 59 -11 59 4 0 34 -55 51 -67
21z"/>
<path d="M22048 5247 c-47 -11 -88 -57 -89 -100 -3 -82 4 -134 27 -195 25 -66
33 -77 88 -120 64 -49 244 -15 295 56 42 60 27 65 -55 21 -102 -56 -200 -39
-243 43 -12 25 -21 53 -19 63 3 15 68 58 146 97 42 21 42 93 0 120 -30 19
-103 27 -150 15z m92 -61 c0 -2 2 -11 6 -19 3 -10 -11 -21 -46 -36 -52 -22
-70 -21 -70 5 0 18 58 54 88 54 12 0 22 -2 22 -4z"/>
<path d="M21758 5215 c-63 -23 -99 -57 -129 -120 -46 -96 -38 -134 34 -172 40
-21 154 -20 195 1 57 29 70 76 15 55 -36 -13 -136 -13 -162 0 -16 9 -21 21
-21 53 0 34 6 47 39 79 21 22 48 39 60 39 30 0 61 18 61 35 0 13 -37 46 -50
44 -3 0 -22 -7 -42 -14z"/>
<path d="M20463 5180 c-49 -22 -103 -86 -137 -164 -24 -54 -25 -61 -11 -76 31
-34 178 -100 250 -111 114 -18 145 -14 145 21 0 16 -7 20 -32 20 -34 0 -194
47 -215 63 -25 19 -14 26 106 68 66 23 81 35 81 65 0 37 -21 73 -56 95 -56 34
-87 39 -131 19z m99 -77 c10 -9 18 -20 18 -25 0 -13 -77 -44 -127 -52 -54 -8
-55 4 -4 55 43 43 82 51 113 22z"/>
<path d="M20899 5176 c-47 -16 -128 -85 -135 -113 -3 -12 -1 -54 5 -95 9 -58
17 -78 37 -96 15 -13 31 -21 38 -19 6 2 13 39 16 93 4 70 10 97 29 127 29 47
69 69 110 61 24 -5 31 -3 31 9 0 33 -77 53 -131 33z"/>
<path d="M21253 5165 c-10 -7 -31 -53 -48 -102 -16 -48 -34 -87 -40 -87 -16 2
-36 52 -44 108 -10 77 -29 96 -57 59 -28 -37 -12 -143 33 -230 46 -88 140 -24
188 129 26 83 27 121 1 131 -8 3 -22 0 -33 -8z"/>
<path d="M21420 5045 c-5 -14 -13 -38 -16 -52 -4 -15 -13 -38 -20 -52 -23 -44
-18 -68 18 -80 24 -9 33 -8 39 1 14 23 31 147 24 178 -8 37 -32 39 -45 5z"/>
<path d="M4795 6619 c-27 -5 -79 -16 -115 -23 -36 -8 -85 -18 -110 -22 -48 -7
-179 -48 -213 -66 -25 -13 -164 -48 -194 -48 -24 0 -163 -44 -192 -61 -9 -5
-56 -19 -104 -32 -72 -18 -91 -27 -105 -49 -13 -23 -14 -29 -2 -43 11 -14 25
-16 63 -11 27 3 54 9 61 14 6 5 25 12 41 15 17 3 80 19 140 35 61 16 129 32
152 36 24 3 57 12 75 20 110 45 211 72 425 110 72 13 136 27 142 30 5 4 42 7
80 8 82 1 96 11 83 60 l-8 33 -85 1 c-46 1 -106 -2 -134 -7z"/>
<path d="M1762 6378 c-115 -9 -406 -57 -444 -73 -27 -11 -29 -33 -8 -98 32
-95 47 -184 49 -276 1 -47 5 -89 8 -94 3 -5 7 -62 8 -126 2 -64 6 -222 10
-351 4 -146 2 -286 -5 -370 -6 -74 -12 -144 -12 -155 -1 -20 10 -147 14 -175
2 -8 -1 -66 -5 -128 -6 -86 -12 -121 -29 -150 -11 -20 -42 -77 -68 -127 -26
-49 -58 -110 -72 -135 -13 -25 -32 -67 -43 -95 -32 -86 -197 -299 -226 -290
-26 9 -42 -20 -34 -62 4 -21 7 -72 6 -113 -1 -67 2 -78 24 -103 14 -16 29 -26
35 -22 5 3 42 -3 82 -13 66 -17 108 -19 429 -17 196 1 362 6 369 10 12 7 154
14 403 19 67 1 244 9 393 16 226 12 288 12 368 1 61 -9 126 -11 176 -7 44 4
216 7 382 7 288 0 696 14 707 25 3 2 4 50 2 106 -2 103 -16 150 -45 161 -10 4
-15 20 -14 46 0 45 -19 82 -56 106 -13 9 -57 57 -97 108 -86 107 -170 193
-254 263 -33 27 -82 70 -110 96 -27 25 -65 59 -83 75 -27 23 -34 39 -43 93 -5
36 -17 97 -25 135 -40 192 -42 236 -38 710 3 253 7 512 9 575 5 135 -9 331
-27 378 -15 40 -39 47 -116 37 -114 -14 -532 -13 -662 3 -135 16 -805 23 -958
10z m804 -102 c100 -3 192 -10 205 -15 23 -8 22 -9 -13 -16 -21 -4 -45 -4 -54
-1 -9 4 -23 1 -31 -6 -20 -16 -220 -11 -448 12 -131 13 -232 16 -241 7 -4 -4
-34 -7 -66 -7 -33 0 -112 -11 -176 -24 -186 -39 -215 -55 -206 -115 14 -96 19
-399 9 -532 -4 -46 -2 -87 5 -105 17 -44 13 -594 -5 -709 -7 -49 -17 -102 -20
-116 -6 -23 -2 -29 25 -43 21 -10 59 -16 104 -16 39 0 91 -2 116 -4 60 -5 337
-20 375 -19 63 0 291 14 313 19 13 2 101 9 195 15 183 10 265 19 417 43 52 9
132 16 178 16 69 0 84 3 90 18 8 21 8 117 -2 577 -7 351 -1 512 25 700 18 128
23 263 9 279 -17 22 -4 36 33 36 l33 0 11 -77 c12 -83 8 -396 -6 -523 -4 -41
-7 -239 -5 -440 3 -358 10 -456 44 -575 5 -16 12 -51 15 -77 6 -38 4 -48 -7
-48 -8 0 -19 5 -26 12 -9 9 -16 7 -31 -6 -17 -15 -37 -18 -138 -17 -65 1 -136
4 -158 7 -59 8 -1165 5 -1179 -3 -6 -4 -29 -8 -51 -9 -22 0 -78 -6 -125 -13
-89 -13 -216 -15 -287 -5 -37 5 -42 9 -46 37 -3 18 -3 77 0 132 6 113 8 724 3
918 -2 71 -7 152 -12 180 -4 29 -10 106 -13 172 -3 66 -13 155 -21 198 -9 44
-12 82 -8 87 5 4 47 13 94 19 47 7 128 20 180 30 81 15 141 17 405 15 171 -2
391 -6 491 -8z m677 -116 l67 0 0 -52 c0 -29 -6 -93 -14 -143 -17 -112 -29
-312 -29 -475 1 -185 2 -371 2 -405 0 -16 2 -75 5 -130 7 -139 6 -198 -4 -209
-9 -9 -133 -20 -195 -18 -16 1 -61 -5 -100 -13 -38 -8 -194 -22 -345 -30 -151
-8 -304 -18 -340 -21 -85 -9 -111 -8 -395 7 -132 6 -251 12 -265 13 -24 1 -25
1 -20 86 5 90 5 454 -1 998 l-4 332 35 6 c19 3 58 12 85 19 28 7 68 13 90 14
22 1 87 5 145 9 131 10 185 9 438 -8 157 -10 214 -11 250 -2 26 6 89 13 139
14 51 1 97 4 102 7 5 3 71 5 148 4 76 -1 168 -2 206 -3z m17 -1724 c102 -3
198 -8 215 -12 26 -6 181 -121 241 -179 11 -11 47 -42 80 -70 32 -27 72 -65
89 -85 16 -19 49 -54 72 -77 24 -24 43 -47 43 -52 0 -13 168 -181 181 -181 22
0 1 -12 -36 -20 -25 -6 -55 -4 -94 7 -66 18 -555 27 -686 13 -99 -11 -479 -14
-760 -6 -460 12 -793 15 -844 6 -30 -5 -94 -12 -142 -14 -48 -3 -134 -10 -191
-15 -232 -22 -378 -30 -378 -19 0 4 13 22 28 40 54 63 112 147 133 195 59 130
88 187 147 293 35 63 68 121 74 127 7 9 43 12 127 10 64 -1 139 1 166 6 115
20 248 27 560 32 182 3 341 7 355 8 39 3 416 -1 620 -7z m951 -804 c-1 -37 -4
-69 -6 -71 -6 -5 -692 -15 -945 -13 -593 5 -711 4 -795 -7 -49 -7 -189 -13
-310 -15 -121 -3 -245 -7 -275 -10 -72 -8 -248 -16 -485 -22 -104 -3 -201 -5
-215 -6 -30 -2 -200 21 -212 28 -4 3 -8 25 -8 49 0 42 1 43 39 50 21 3 65 8
97 11 103 8 346 25 419 29 39 2 120 10 180 17 138 16 962 12 1130 -5 130 -14
222 -17 275 -8 50 9 231 19 485 27 203 6 391 4 435 -7 36 -8 58 -7 115 8 39
10 72 17 75 15 3 -2 3 -34 1 -70z"/>
<path d="M2599 5912 c-13 -10 -37 -24 -54 -32 -16 -8 -58 -43 -92 -77 -62 -63
-85 -75 -100 -50 -14 23 -157 135 -187 147 -25 9 -41 7 -102 -16 -49 -17 -75
-33 -82 -48 -10 -23 -9 -34 23 -180 18 -89 18 -90 -47 -101 -21 -4 -53 -17
-71 -29 -18 -12 -54 -33 -81 -47 -57 -28 -74 -56 -58 -96 6 -15 13 -40 16 -54
6 -28 72 -99 92 -99 7 0 14 -7 18 -15 3 -9 18 -15 36 -15 44 0 190 -50 190
-65 0 -16 -48 -136 -71 -177 -5 -10 -12 -33 -15 -52 -5 -35 -5 -35 63 -67 82
-39 111 -40 185 -6 31 15 61 27 67 27 23 0 88 44 121 81 l35 40 70 -50 c39
-28 75 -55 82 -61 18 -15 49 -12 64 6 10 13 24 15 66 10 127 -15 153 64 79
236 -9 21 -16 39 -16 42 0 2 19 7 43 11 23 4 47 11 52 16 6 4 35 21 65 37 55
28 55 28 63 85 7 53 6 62 -22 110 -51 90 -98 129 -184 155 l-75 23 -1 82 c0
84 -16 171 -35 196 -11 15 -83 50 -102 51 -6 0 -22 -8 -35 -18z m96 -103 c10
-19 14 -48 11 -91 -7 -101 -3 -98 -122 -98 -101 0 -105 1 -115 24 -10 21 -7
30 17 61 35 46 164 144 182 137 7 -2 19 -17 27 -33z m-443 -46 c40 -38 76 -72
80 -78 28 -37 -17 -63 -132 -77 -105 -13 -101 -15 -124 67 -31 110 -31 114 17
135 66 30 80 26 159 -47z m251 -261 c31 -30 36 -47 8 -32 -27 14 -84 13 -103
-2 -19 -15 -68 -87 -68 -100 0 -5 15 -22 32 -39 77 -69 203 -9 177 85 -5 17
-7 32 -5 34 6 5 41 -49 55 -85 12 -28 10 -36 -10 -72 -15 -28 -29 -40 -43 -40
-12 1 -57 -2 -102 -6 l-80 -8 -43 49 c-53 62 -51 91 13 199 18 31 32 41 57 45
51 8 81 0 112 -28z m-243 22 c0 -13 -44 -94 -51 -94 -8 0 -52 71 -47 76 17 16
98 31 98 18z m425 -37 c-7 -43 -20 -67 -36 -67 -10 0 -69 88 -69 101 0 4 25 8
56 8 l56 0 -7 -42z m263 -35 c46 -50 52 -62 52 -99 0 -60 -28 -76 -145 -84
-99 -7 -114 -3 -135 36 -13 24 -12 34 9 98 42 130 33 120 104 112 59 -7 64
-10 115 -63z m-842 11 c9 -16 30 -47 46 -70 27 -40 28 -44 16 -88 -9 -34 -19
-50 -36 -56 -33 -13 -116 -3 -196 21 -57 18 -70 27 -91 60 -14 22 -25 44 -25
50 0 22 192 105 252 109 10 0 25 -11 34 -26z m670 -336 c16 -23 38 -66 48 -96
22 -68 12 -81 -57 -81 -40 0 -70 10 -143 46 l-93 46 40 58 c43 64 50 67 124
68 47 1 52 -1 81 -41z m-421 5 c6 -8 23 -30 38 -48 25 -29 27 -36 16 -56 -15
-29 -50 -68 -61 -68 -5 0 -25 -11 -46 -25 -20 -13 -63 -33 -96 -44 -107 -38
-120 -1 -50 149 19 42 37 85 39 95 2 11 4 21 4 21 1 1 34 -1 74 -3 50 -4 75
-10 82 -21z m139 -4 l-17 -32 -18 23 c-27 33 -24 41 16 41 l36 0 -17 -32z"/>
<path d="M3360 4350 c-36 -4 -108 -13 -160 -19 -52 -7 -198 -19 -325 -27 -126
-8 -254 -18 -283 -22 -54 -9 -672 -5 -772 4 -89 8 -252 17 -277 15 -7 -1 -29
-27 -49 -58 -20 -32 -52 -75 -70 -95 -19 -21 -48 -63 -65 -94 -18 -31 -39 -58
-48 -61 -30 -11 -51 -36 -51 -63 0 -14 -4 -30 -9 -35 -5 -6 -6 -26 -2 -45 7
-33 9 -35 47 -34 21 1 107 4 189 8 392 15 633 16 805 6 102 -6 264 -14 360
-16 256 -8 304 -10 415 -18 66 -6 126 -4 175 4 94 14 242 27 385 34 93 4 175
15 303 42 16 3 22 11 22 33 0 69 -54 140 -167 220 -40 28 -99 77 -132 110
-121 118 -145 127 -291 111z m133 -92 c20 -10 17 -12 -33 -29 -55 -18 -55 -18
-78 4 l-24 22 44 6 c23 3 49 7 56 7 7 1 23 -3 35 -10z m-167 -22 c18 -19 18
-26 -2 -26 -15 0 -44 23 -44 34 0 12 32 6 46 -8z m-102 -22 c11 -28 -4 -34
-62 -28 -104 12 -104 44 -1 44 43 0 58 -4 63 -16z m-204 2 c0 -2 3 -11 6 -20
5 -13 -2 -16 -44 -16 -50 0 -69 10 -57 30 6 9 95 15 95 6z m-1410 -25 c0 -5
-13 -14 -30 -20 -23 -8 -30 -7 -30 3 0 7 3 16 7 19 10 10 53 8 53 -2z m190 3
c0 -3 -5 -14 -10 -25 -11 -20 -36 -23 -88 -13 -27 6 -29 8 -19 25 9 15 24 19
64 19 29 0 53 -3 53 -6z m1065 -4 c4 -6 -11 -10 -39 -10 -25 0 -48 5 -51 10
-4 6 11 10 39 10 25 0 48 -4 51 -10z m-926 -13 c15 -19 4 -27 -36 -27 -38 0
-47 26 -10 33 12 2 25 5 28 6 4 0 12 -5 18 -12z m198 -23 c-2 -2 -31 -6 -65
-8 -45 -3 -62 -1 -66 10 -4 10 10 14 62 16 59 3 84 -4 69 -18z m1526 -29 c19
-19 42 -35 51 -35 9 0 16 -3 16 -8 0 -4 29 -30 65 -57 35 -28 63 -54 61 -60
-6 -22 -110 -33 -123 -12 -4 6 -10 37 -13 67 l-5 55 -65 0 c-56 0 -70 4 -103
29 -21 16 -36 31 -33 33 2 2 26 8 53 13 26 4 51 8 55 9 3 0 22 -15 41 -34z
m-195 -22 c20 -15 39 -29 42 -31 6 -4 -22 -22 -35 -22 -16 0 -65 49 -65 65 0
22 17 18 58 -12z m-136 -10 c10 -9 18 -19 18 -23 0 -14 -127 -22 -150 -10 -29
16 -20 34 21 41 62 11 92 9 111 -8z m-1825 -14 l28 -11 -24 -19 c-26 -21 -71
-26 -71 -7 0 10 28 48 36 48 1 0 15 -5 31 -11z m998 -19 c0 -21 -6 -26 -44
-33 -52 -10 -91 3 -91 31 0 27 3 28 72 28 60 -1 63 -2 63 -26z m189 -2 c8 -41
1 -47 -62 -55 -48 -5 -51 -4 -57 20 -12 45 9 67 64 67 47 0 49 -1 55 -32z
m416 13 c14 -28 15 -27 -34 -40 -63 -16 -103 -14 -110 5 -13 34 -6 43 37 47
91 8 96 7 107 -12z m-220 -21 c0 -29 -1 -30 -50 -31 -27 -1 -56 -2 -62 -3 -17
-1 -22 32 -8 49 8 10 31 15 66 15 53 0 54 0 54 -30z m-1170 10 c0 -14 -30 -27
-77 -33 -46 -6 -62 5 -43 28 14 17 120 21 120 5z m570 1 c0 -13 -26 -21 -66
-21 -38 0 -46 16 -11 23 41 8 77 7 77 -2z m1126 -102 c26 -22 15 -36 -33 -43
-182 -26 -387 -34 -399 -15 -12 20 13 31 92 40 69 7 81 6 110 -11 27 -17 33
-18 44 -5 6 8 9 19 5 25 -3 5 3 14 14 18 30 11 151 5 167 -9z m205 2 c30 -25
17 -40 -38 -48 -44 -6 -73 13 -73 48 0 16 7 19 44 19 28 0 52 -7 67 -19z
m-1573 -17 c-19 -20 -119 -25 -125 -7 -4 12 26 18 102 21 36 2 38 1 23 -14z
m-588 -1 c-1 -18 -17 -31 -48 -35 -39 -6 -53 9 -27 29 20 14 75 18 75 6z m407
-9 c3 -8 -19 -13 -59 -16 -76 -6 -94 -2 -77 19 15 17 130 14 136 -3z m338 6
c15 -6 8 -9 -28 -9 -30 -1 -46 3 -42 9 7 12 42 12 70 0z m285 -2 c0 -14 -23
-19 -88 -21 -55 -2 -75 7 -58 24 8 8 146 5 146 -3z m411 -14 c13 -16 9 -16
-71 -16 -74 0 -74 0 -60 16 11 15 69 24 102 17 10 -2 23 -9 29 -17z m-1321 0
c-53 -16 -60 -17 -60 -5 0 12 25 19 70 19 l35 1 -45 -15z"/>
<path d="M15168 4404 c-3 -2 -63 -7 -134 -9 -253 -11 -310 -15 -369 -25 -33
-7 -148 -13 -255 -15 -283 -6 -310 -12 -310 -75 0 -62 -269 -344 -383 -402
-93 -46 -121 -93 -77 -131 19 -16 20 -29 20 -214 0 -109 -5 -226 -10 -260 -6
-34 -13 -216 -15 -405 -6 -401 -12 -529 -26 -618 -17 -103 -13 -372 7 -460 12
-54 17 -136 19 -290 3 -214 14 -320 35 -346 7 -7 10 -30 8 -50 -2 -30 2 -40
23 -56 21 -16 49 -20 165 -25 140 -6 707 -10 1014 -6 91 1 246 2 345 3 99 1
196 3 215 4 19 2 64 6 100 10 36 3 154 11 263 16 275 13 282 18 279 200 -1 47
-11 148 -22 225 -19 126 -22 195 -25 705 -3 355 -10 663 -21 830 -26 426 -27
523 -13 690 16 177 14 529 -3 608 l-11 52 -61 0 c-43 0 -74 6 -101 20 -37 19
-62 21 -346 25 -169 2 -309 2 -311 -1z m432 -103 c131 0 253 -12 308 -32 l32
-11 2 -141 c2 -215 1 -285 -6 -367 -12 -142 -21 -422 -14 -439 3 -10 8 -65 9
-122 2 -57 7 -124 11 -149 12 -60 23 -435 21 -685 -1 -110 -2 -292 -1 -405 1
-113 1 -232 0 -265 0 -33 5 -98 13 -145 13 -82 30 -234 28 -255 -10 -107 -15
-124 -36 -131 -12 -4 -58 -7 -102 -6 -44 2 -102 -2 -130 -7 -27 -5 -84 -12
-125 -15 -41 -3 -118 -10 -170 -15 -101 -10 -196 -12 -510 -7 -107 1 -211 -1
-230 -5 -19 -4 -227 -10 -463 -14 -331 -5 -435 -3 -462 6 -38 14 -38 14 -35
77 1 23 -3 57 -9 75 -6 17 -12 136 -15 262 -2 156 -9 253 -19 300 -23 104 -31
257 -18 360 20 174 44 872 45 1342 1 183 4 255 13 264 20 20 223 -3 303 -34
36 -14 65 -31 65 -38 0 -8 -9 -48 -19 -90 l-19 -77 23 -32 23 -32 -54 -49
c-30 -26 -58 -47 -64 -45 -5 1 -18 23 -27 47 -15 36 -17 62 -12 140 6 100 -3
139 -32 139 -29 0 -35 -50 -29 -220 4 -91 11 -187 17 -215 5 -27 13 -120 17
-206 5 -122 11 -162 24 -182 17 -26 18 -26 51 -10 37 17 55 16 376 -23 74 -9
155 -17 180 -19 105 -7 375 -4 423 6 76 14 249 31 327 32 60 1 252 -13 315
-22 37 -5 65 -5 72 1 30 24 45 177 49 518 1 146 6 279 9 295 4 17 6 118 6 225
-1 148 3 211 15 262 14 56 14 73 4 98 l-13 31 -29 -28 c-35 -34 -141 -53 -261
-47 -47 3 -114 -2 -163 -11 -45 -9 -118 -15 -161 -14 -72 2 -293 -14 -373 -27
-19 -3 -111 -7 -204 -10 -129 -3 -175 -8 -193 -19 -29 -20 -29 -40 1 -60 19
-13 51 -15 190 -11 91 3 171 8 176 11 6 4 117 10 248 15 130 5 250 13 265 19
44 17 412 26 422 11 18 -29 -1 -582 -21 -635 -4 -8 -13 -15 -21 -15 -12 0 -14
16 -12 88 3 95 0 98 -52 61 -32 -22 -42 -23 -69 -6 -17 10 -22 9 -30 -3 -6
-10 0 -30 19 -65 32 -58 30 -110 -4 -110 -16 0 -21 9 -27 49 -4 27 -11 53 -16
58 -13 13 -37 0 -52 -28 -23 -41 -46 -30 -40 20 4 39 -10 66 -34 66 -31 0 -36
15 -36 120 0 90 -10 116 -34 89 -9 -10 -11 -44 -7 -127 4 -67 2 -117 -4 -123
-20 -20 -84 -9 -129 22 -24 17 -56 32 -71 32 -60 0 -114 -73 -115 -154 0 -71
-20 -79 -57 -21 -17 26 -39 64 -49 84 l-18 38 42 36 c54 46 65 67 57 112 -7
45 -47 72 -105 72 -53 0 -90 -33 -106 -96 -23 -86 -3 -385 25 -384 27 1 32 21
29 114 -2 56 1 95 6 93 5 -2 29 -32 52 -68 108 -162 139 -192 160 -158 4 7 21
9 42 6 39 -7 95 13 130 46 19 18 26 19 42 9 29 -18 55 -15 94 12 22 14 44 22
59 19 16 -3 34 4 57 24 23 19 35 24 38 15 8 -24 46 -52 70 -52 15 0 37 14 58
36 l33 37 33 -28 c18 -15 37 -35 43 -44 14 -24 11 -297 -4 -358 -12 -48 -15
-52 -44 -55 -18 -2 -50 0 -72 4 -101 16 -388 10 -553 -12 -40 -6 -121 -10
-178 -10 -58 0 -114 -5 -124 -10 -23 -12 -222 4 -315 25 -59 14 -103 19 -255
30 -103 8 -119 13 -126 41 -7 29 -1 141 9 150 3 3 25 -10 48 -30 39 -33 48
-36 103 -36 35 0 73 7 90 15 46 24 73 19 112 -25 44 -49 54 -52 134 -37 76 14
75 13 120 166 33 113 37 175 16 234 -18 51 -38 71 -119 124 -66 44 -68 45
-165 48 l-99 4 -15 -33 c-16 -32 -15 -34 11 -65 40 -47 99 -54 136 -17 21 21
33 26 55 21 16 -3 34 -13 41 -21 6 -8 17 -14 25 -14 7 0 29 -15 49 -34 l37
-35 -5 -73 c-6 -91 -38 -207 -62 -225 -11 -7 -40 -13 -66 -13 -40 0 -51 4 -69
27 -23 30 -23 72 0 83 8 4 37 17 63 29 l48 21 -3 47 c-3 42 -6 49 -31 57 -38
14 -74 -7 -102 -59 -33 -64 -102 -122 -157 -134 -26 -6 -53 -9 -60 -7 -7 3
-26 7 -41 10 -33 8 -67 58 -67 99 0 19 13 42 43 73 37 40 44 44 60 32 18 -13
18 -15 0 -46 -22 -38 -13 -59 38 -84 39 -20 86 -13 103 15 14 22 -19 85 -51
100 -15 7 -28 27 -37 56 -8 25 -23 65 -34 89 -16 35 -18 51 -10 85 10 44 34
70 58 61 39 -16 47 -14 58 11 7 14 12 37 12 50 0 33 26 55 64 55 27 0 38 -8
66 -45 35 -47 46 -51 64 -23 7 12 4 26 -15 55 -14 21 -33 50 -43 66 -19 32
-55 36 -105 11 -17 -9 -38 -14 -45 -11 -13 5 -46 176 -46 240 0 18 -7 55 -16
80 -19 56 -12 95 19 106 12 5 72 9 132 10 61 1 166 7 235 13 69 6 139 11 155
11 17 0 98 4 180 10 301 19 382 22 470 15 50 -4 146 -7 215 -7z m-1476 -177
c10 -4 16 -18 16 -39 0 -18 6 -60 14 -92 50 -210 45 -237 -32 -197 -26 13 -91
35 -146 48 -54 13 -102 28 -107 33 -8 8 217 252 233 253 3 0 13 -3 22 -6z
m724 -448 c5 -26 -16 -62 -45 -75 -49 -22 -68 -7 -54 46 13 48 91 71 99 29z
m240 -174 c7 -20 -54 -72 -85 -72 -19 0 -23 5 -23 30 0 42 29 68 69 62 18 -2
35 -11 39 -20z m167 -66 c25 -20 28 -26 16 -40 -27 -33 -81 -14 -81 29 0 42
22 46 65 11z m-122 -46 c10 -38 -82 -76 -122 -51 -21 13 -4 31 53 56 56 25 61
25 69 -5z"/>
<path d="M15657 2574 c-4 -4 -203 -9 -444 -11 -531 -4 -729 -10 -745 -19 -7
-4 -102 -9 -213 -11 -110 -2 -225 -5 -255 -6 l-55 -2 1 -45 c0 -25 6 -121 14
-215 7 -93 15 -261 19 -372 6 -194 7 -202 30 -226 24 -27 24 -51 1 -147 -5
-19 -14 -70 -21 -113 -11 -71 -10 -79 6 -97 17 -19 28 -20 194 -16 97 3 246
10 331 16 85 6 187 9 225 6 117 -10 376 -20 440 -18 33 1 166 5 295 9 205 7
240 10 264 27 32 20 31 0 7 236 -5 47 -6 146 -2 220 8 174 7 330 -2 560 -10
236 -9 230 -51 230 -18 0 -36 -3 -39 -6z m18 -281 c9 -223 9 -219 5 -493 -3
-145 1 -243 10 -303 10 -66 10 -91 2 -99 -14 -14 -127 -19 -427 -16 -633 4
-947 -1 -1082 -18 -29 -3 -69 -3 -88 0 -46 9 -52 36 -31 124 36 151 35 309 -3
363 -15 21 -20 53 -25 180 -4 85 -11 206 -15 269 -4 63 -6 120 -4 126 11 32
167 51 286 35 48 -7 85 -7 112 0 58 15 315 22 771 21 221 -1 414 3 430 7 16 5
34 4 40 0 7 -6 14 -82 19 -196z"/>
<path d="M15372 2192 c-7 -5 -11 -15 -8 -23 2 -8 7 -38 11 -68 l6 -54 -36 6
c-90 15 -89 -38 2 -77 36 -16 45 -38 39 -92 -18 -142 -18 -149 -1 -164 31 -26
50 15 64 131 6 59 17 107 24 111 6 4 37 15 67 24 71 21 84 28 88 46 4 21 -32
29 -105 22 -69 -6 -77 0 -87 65 -11 72 -30 94 -64 73z"/>
<path d="M14381 2076 c-18 -46 -38 -86 -45 -89 -9 -4 -19 12 -31 49 -33 107
-84 128 -86 37 0 -26 -2 -59 -5 -73 -2 -14 -5 -78 -6 -143 -3 -105 -1 -120 15
-135 18 -16 20 -16 33 2 10 14 12 43 8 117 -3 53 -1 100 4 103 5 3 20 -6 32
-19 42 -44 84 -29 96 34 12 60 42 -3 49 -104 3 -40 17 -66 33 -63 22 4 22 35
2 198 -12 95 -21 135 -35 150 -10 11 -21 20 -25 20 -4 0 -22 -38 -39 -84z"/>
<path d="M15150 1983 c-14 -9 -29 -23 -33 -30 -4 -7 -19 -13 -33 -13 -17 0
-27 -8 -34 -25 -14 -36 -24 -31 -38 21 -10 38 -16 45 -35 42 -14 -2 -29 -17
-43 -45 -11 -23 -27 -49 -34 -58 -22 -27 -38 5 -32 65 4 40 2 50 -11 50 -21 0
-32 -18 -45 -78 -10 -44 -9 -58 3 -83 23 -44 74 -43 123 4 l33 32 20 -27 c11
-14 38 -36 60 -47 49 -26 66 -17 75 40 8 46 39 99 59 99 19 0 33 -27 41 -79 4
-23 16 -53 26 -67 17 -20 23 -23 35 -12 12 9 13 24 9 63 -7 49 -48 143 -70
157 -19 13 -50 9 -76 -9z"/>
<path d="M14621 1967 c-30 -15 -79 -102 -80 -140 -2 -57 109 -88 182 -51 38
19 66 52 67 77 0 27 -37 94 -62 111 -27 19 -74 20 -107 3z m93 -53 c17 -16 21
-51 8 -70 -11 -17 -71 -46 -82 -39 -14 9 -12 77 3 96 11 14 31 26 49 28 4 1
14 -6 22 -15z"/>
<path d="M7157 3934 c-4 -4 -222 -8 -485 -9 -290 -1 -514 -6 -572 -13 -136
-16 -304 -25 -460 -23 l-135 2 -66 -43 c-133 -86 -155 -102 -220 -160 -48 -42
-74 -58 -95 -58 -45 -1 -59 -19 -59 -72 1 -26 6 -53 12 -59 17 -17 5 -288 -18
-394 -18 -82 -20 -128 -20 -533 0 -465 1 -472 44 -472 11 0 13 -15 10 -72 -2
-40 -4 -77 -4 -83 0 -5 2 -172 5 -370 3 -198 1 -378 -4 -400 -5 -22 -11 -78
-14 -125 -4 -80 -3 -86 21 -107 24 -23 27 -23 127 -13 57 6 130 17 162 26 70
18 122 25 229 29 44 2 127 8 185 15 58 6 132 11 165 9 72 -2 66 -2 240 6 77 4
147 7 155 7 270 -9 514 0 765 27 45 5 116 5 163 1 46 -5 94 -5 106 0 12 4 67
11 122 15 65 4 104 12 114 21 12 12 15 52 15 237 0 221 -12 576 -20 599 -2 7
-6 54 -9 103 -3 50 -10 124 -16 165 -6 41 -17 173 -25 295 -8 121 -17 243 -20
270 -3 28 -12 111 -20 185 -17 162 -23 267 -30 545 -7 245 -11 299 -31 378 -8
32 -14 60 -14 63 0 2 -46 3 -102 2 -57 -1 -123 2 -148 6 -25 4 -48 4 -53 0z
m-607 -116 c14 1 213 3 443 7 333 4 417 3 416 -7 -2 -7 1 -44 4 -83 4 -38 10
-169 12 -290 2 -121 11 -292 20 -380 9 -88 18 -200 20 -250 3 -49 7 -103 10
-120 3 -16 7 -77 10 -135 3 -58 12 -172 20 -255 8 -82 21 -233 30 -335 8 -102
17 -198 20 -215 2 -16 5 -157 7 -313 3 -243 1 -284 -12 -293 -20 -14 -222 -4
-248 12 -16 10 -26 10 -47 1 -14 -7 -90 -14 -168 -17 -78 -3 -189 -10 -247
-16 -136 -13 -181 -14 -320 -4 l-115 9 85 13 c160 25 225 34 302 43 42 5 86
13 97 19 12 7 29 8 43 3 13 -5 117 -7 232 -6 183 2 210 5 228 21 20 18 20 19
0 108 -5 23 -5 99 1 180 11 184 11 353 -1 368 -17 19 -529 8 -632 -14 -28 -6
-66 -8 -82 -5 -35 7 -158 -11 -173 -25 -5 -5 -26 -9 -48 -9 -21 0 -48 -5 -60
-12 -13 -7 -70 -12 -137 -13 -81 -1 -130 -7 -165 -19 -32 -11 -74 -17 -120
-15 -108 3 -373 -10 -438 -22 -32 -5 -71 -8 -86 -4 -16 3 -39 0 -57 -9 l-29
-16 -1 -275 -1 -275 35 -22 c19 -13 49 -31 65 -40 l31 -17 -39 -17 c-93 -39
-273 -59 -299 -33 -3 2 -1 38 5 79 12 102 24 264 23 330 -1 30 -2 221 -3 423
l-2 369 -27 25 -27 25 -1 335 c0 238 3 358 13 412 7 42 20 148 28 236 9 87 18
161 20 163 2 2 23 -9 47 -25 24 -16 50 -33 59 -38 9 -6 43 -28 75 -49 33 -22
79 -43 103 -48 25 -4 48 -13 52 -19 3 -6 19 -9 35 -7 28 3 29 4 26 58 -2 57
-10 111 -36 266 -17 97 -20 172 -8 191 4 7 41 12 97 12 50 1 113 4 140 6 28 2
133 9 235 14 249 13 310 18 318 26 4 4 50 3 102 -1 52 -4 106 -7 120 -6z
m-1086 -238 c16 -72 28 -192 20 -200 -6 -6 -18 -4 -30 3 -12 7 -52 29 -90 49
-95 52 -148 91 -152 112 -5 24 37 66 128 130 106 75 104 75 111 -3 4 -36 9
-77 13 -91z m1834 -1777 c23 -6 23 -6 19 -137 -7 -199 -8 -288 -5 -326 l3 -35
-120 -2 c-241 -5 -458 -21 -515 -38 -8 -2 -42 -7 -75 -10 -33 -3 -96 -10 -140
-16 -44 -6 -174 -12 -290 -14 -185 -3 -311 -13 -410 -30 -41 -7 -313 -7 -325
0 -6 4 -7 60 -4 143 4 75 7 177 8 227 l1 89 40 8 c22 4 162 12 310 18 149 5
293 14 320 20 28 5 120 17 205 26 85 9 184 23 220 31 80 17 107 20 245 28 237
15 214 21 193 -47 -11 -38 -13 -39 -47 -33 -52 9 -79 -13 -66 -52 8 -21 18
-29 40 -31 69 -6 75 -16 75 -118 0 -102 14 -133 49 -114 23 12 42 101 34 158
-7 55 8 75 53 66 41 -8 71 2 85 27 16 31 -5 49 -56 49 -68 0 -75 6 -75 59 0
26 3 51 6 54 8 8 189 8 222 0z m-1178 -673 c0 -6 -30 -9 -72 -8 -67 1 -69 2
-28 8 70 11 100 11 100 0z"/>
<path d="M7010 3664 c-47 -12 -121 -25 -165 -28 -70 -6 -130 -15 -290 -44 -45
-8 -203 -7 -280 2 -106 12 -138 17 -147 22 -4 3 -59 7 -121 9 -61 2 -142 10
-180 19 -107 25 -227 -1 -227 -49 0 -36 45 -44 325 -61 44 -3 94 -9 111 -15
18 -5 43 -7 57 -4 14 4 28 2 32 -5 4 -6 14 -8 24 -5 10 3 46 1 82 -5 35 -6 72
-11 82 -11 22 0 22 -18 0 -34 -15 -11 -16 -17 -5 -36 13 -25 32 -200 25 -228
-3 -11 6 -20 27 -28 30 -11 32 -11 46 22 8 19 14 41 14 50 0 9 9 15 23 16 108
2 157 27 177 88 12 36 11 43 -6 68 -33 49 -45 76 -37 84 18 18 135 40 233 43
58 2 125 11 150 19 25 8 68 18 96 21 63 8 75 -4 70 -65 -2 -24 0 -80 6 -124 5
-44 9 -97 8 -118 0 -22 3 -53 9 -70 5 -18 11 -53 14 -79 4 -43 2 -47 -22 -57
-41 -15 -366 -33 -471 -25 -52 4 -122 8 -155 9 -33 1 -105 8 -160 15 -55 7
-120 14 -145 16 -74 5 -410 4 -480 -2 -134 -11 -281 -16 -314 -10 -28 5 -34
11 -31 27 2 11 5 49 6 84 2 51 -2 69 -16 85 -24 27 -30 25 -53 -12 -18 -30
-19 -43 -11 -152 4 -65 11 -121 14 -125 4 -3 100 -4 213 -1 324 8 698 3 802
-10 52 -6 133 -13 180 -15 310 -15 343 -15 449 0 60 9 115 15 123 14 25 -5
143 13 156 24 16 12 14 37 -24 309 -21 154 -23 189 -14 263 9 76 9 88 -7 110
-23 31 -71 31 -193 -1z m-471 -264 c19 -16 21 -23 12 -34 -21 -25 -63 -34
-106 -22 -52 15 -58 40 -13 60 46 20 79 19 107 -4z"/>
<path d="M5660 3478 c-24 -9 -25 -16 -3 -48 22 -33 33 -40 65 -40 21 0 29 -7
37 -32 10 -35 14 -61 12 -90 -1 -13 -10 -18 -33 -18 -18 0 -41 -7 -50 -14 -24
-18 -24 -56 1 -56 10 0 24 -7 31 -15 14 -16 105 -21 128 -6 11 6 12 27 5 97
-5 49 -7 96 -5 105 2 9 20 19 45 25 34 7 43 14 45 34 2 19 -5 30 -30 45 -27
16 -52 20 -131 20 -53 0 -106 -3 -117 -7z"/>
<path d="M6066 3479 c-56 -13 -106 -53 -99 -79 7 -27 68 -90 87 -90 12 0 46
-40 46 -54 0 -2 -14 -9 -32 -15 -25 -9 -36 -8 -55 4 -23 15 -73 11 -73 -6 0
-4 9 -23 20 -42 18 -30 27 -35 69 -41 58 -8 71 -3 113 36 26 24 33 38 33 69 0
34 -7 45 -48 82 -26 24 -47 46 -47 50 0 4 21 6 47 5 37 -1 50 3 64 21 15 18
16 26 7 41 -19 30 -59 36 -132 19z"/>
<path d="M7167 2834 c-6 -6 -218 -13 -387 -13 -85 0 -189 -5 -230 -11 -41 -7
-230 -14 -420 -16 -190 -2 -434 -5 -544 -8 -239 -5 -236 -3 -218 -98 14 -80
30 -223 30 -268 -1 -19 3 -81 7 -137 7 -85 5 -107 -9 -137 -11 -24 -18 -74
-22 -156 -8 -159 -11 -155 144 -165 64 -4 128 -9 142 -11 88 -14 140 -15 203
-5 79 12 149 17 370 27 163 7 202 11 357 43 94 20 193 36 375 62 33 5 80 13
105 18 80 16 203 39 283 52 71 12 80 16 94 43 18 36 20 168 3 211 -7 17 -14
89 -16 160 -6 225 -12 349 -19 367 -5 13 -20 16 -75 16 -38 0 -73 3 -78 6 -13
8 -90 24 -95 20z m174 -107 c0 -1 2 -67 5 -147 5 -169 11 -265 19 -300 15 -68
17 -146 4 -156 -23 -18 -303 -84 -356 -84 -18 0 -52 -4 -75 -10 -24 -5 -95
-17 -158 -25 -63 -9 -144 -24 -180 -35 -61 -18 -210 -38 -290 -39 -147 -2
-359 -13 -425 -22 -61 -8 -109 -7 -205 4 -86 10 -136 11 -162 4 -50 -13 -70 3
-66 52 4 42 32 54 54 23 8 -11 34 -28 58 -37 55 -21 155 -14 204 15 38 23 81
25 128 8 45 -16 132 20 171 70 24 32 27 45 28 113 0 60 -4 81 -17 96 -10 11
-18 27 -18 37 0 19 -66 86 -85 86 -6 0 -39 21 -73 46 -57 42 -64 45 -104 39
-77 -12 -99 -90 -32 -116 14 -5 62 -11 106 -13 44 -2 84 -8 89 -13 10 -10 54
-88 69 -122 12 -26 5 -78 -13 -101 -22 -27 -72 -56 -89 -52 -27 5 -22 29 19
86 39 54 55 120 31 128 -7 3 -30 3 -50 0 -34 -4 -38 -8 -52 -51 -8 -25 -17
-60 -21 -78 -7 -33 -25 -46 -50 -37 -26 10 -63 -5 -67 -27 -5 -32 -70 -51
-127 -38 -68 15 -81 50 -35 93 44 40 9 62 -47 29 -15 -9 -30 -15 -33 -12 -2 2
-9 105 -15 229 -7 124 -14 249 -18 277 l-6 53 444 -4 c272 -3 479 -1 534 6 50
5 185 12 300 13 275 5 474 11 479 16 4 4 125 -1 127 -4z"/>
<path d="M6784 2660 c-32 -13 -34 -21 -19 -86 14 -62 15 -111 2 -131 -4 -7
-26 -17 -47 -23 -30 -8 -47 -22 -71 -57 l-32 -46 -21 25 c-25 31 -85 44 -118
27 -37 -19 -82 -60 -90 -81 -10 -24 -46 -21 -62 5 -9 14 -6 21 16 40 50 42 63
100 29 131 -11 10 -18 23 -15 29 8 22 -58 56 -101 52 -56 -6 -77 -19 -116 -78
-31 -47 -34 -59 -34 -122 1 -80 17 -135 50 -170 41 -46 81 -23 69 39 -6 35 -5
36 23 36 23 0 44 -14 91 -62 34 -33 62 -58 62 -54 0 3 13 0 30 -9 16 -8 41
-15 56 -15 36 0 144 50 144 66 0 17 35 18 93 2 53 -14 82 2 115 61 27 48 13
64 -24 28 -36 -36 -72 -43 -103 -19 -32 23 -37 59 -13 90 18 24 19 24 72 8 46
-14 56 -14 68 -2 11 11 11 21 1 57 -7 24 -13 93 -13 153 -1 64 -5 110 -11 112
-5 1 -20 -1 -31 -6z m-475 -201 c39 -53 15 -88 -72 -104 -33 -6 -34 -6 -40 30
-10 63 13 93 84 104 3 1 15 -13 28 -30z m231 -164 c0 -14 -79 -56 -92 -48 -14
8 5 34 36 48 41 18 56 18 56 0z m100 -64 c0 -10 -62 -31 -89 -31 -19 0 -17 5
21 43 l43 42 13 -24 c6 -13 12 -26 12 -30z"/>
<path d="M5674 2589 c-35 -34 -61 -65 -58 -70 3 -5 -3 -20 -12 -34 -15 -23
-16 -38 -4 -158 7 -73 12 -143 12 -157 0 -23 60 -110 77 -110 4 0 24 16 45 35
46 42 44 72 -9 105 -24 15 -36 31 -40 53 -32 194 -29 233 27 289 46 46 63 46
139 -3 46 -29 79 -31 79 -4 0 16 -69 79 -109 99 -54 28 -77 21 -147 -45z"/>
<path d="M7235 2450 c-22 -22 -45 -40 -51 -40 -14 0 -54 43 -54 58 0 14 -46
16 -55 2 -6 -10 19 -55 47 -83 10 -10 18 -24 18 -32 0 -22 -37 -55 -60 -55
-21 0 -21 2 -24 92 -2 54 -15 61 -55 28 -22 -19 -33 -37 -33 -54 0 -15 -4 -29
-9 -31 -14 -9 -31 35 -24 65 8 36 -7 45 -45 25 -25 -13 -29 -19 -20 -35 5 -10
10 -29 10 -42 0 -13 6 -30 12 -36 10 -10 10 -14 1 -20 -10 -6 -10 -15 -1 -40
15 -39 44 -42 95 -11 34 21 34 21 56 1 37 -33 50 -31 100 15 44 41 50 44 65
29 26 -23 89 -47 106 -40 22 9 20 31 -4 39 -11 3 -32 22 -46 41 -24 31 -25 36
-12 52 29 35 51 113 31 112 -5 -1 -26 -19 -48 -40z"/>
<path d="M6690 1568 c-64 -66 -71 -76 -66 -105 3 -23 1 -33 -8 -33 -25 0 -39
31 -43 93 -2 34 -10 65 -16 69 -25 16 -44 7 -67 -33 -51 -83 -65 -102 -75
-101 -5 1 -10 27 -10 56 0 30 -3 58 -7 62 -4 3 -21 1 -38 -6 -22 -9 -30 -20
-32 -39 -5 -100 21 -181 60 -181 22 0 71 33 93 61 19 26 39 18 39 -16 0 -60
71 -72 105 -18 17 27 24 32 47 27 23 -5 30 -1 39 23 29 70 40 93 47 93 4 0 15
-18 26 -39 18 -39 52 -59 70 -41 13 13 -13 126 -38 163 -12 18 -29 33 -39 35
-10 2 -43 -24 -87 -70z"/>
<path d="M5598 1593 c-11 -13 -17 -50 -21 -123 -3 -58 -10 -116 -15 -130 -7
-19 -5 -34 7 -60 34 -72 66 -31 77 98 4 46 11 85 15 88 5 2 18 -10 31 -29 12
-19 34 -39 49 -44 24 -9 31 -7 55 18 32 33 44 27 47 -22 4 -58 53 -79 83 -34
15 23 15 27 -4 57 -11 18 -25 60 -32 93 -13 70 -28 105 -46 105 -16 0 -61 -58
-65 -84 -2 -10 -12 -24 -22 -30 -15 -9 -23 -5 -48 24 -16 19 -36 47 -45 63
-17 31 -44 35 -66 10z"/>
<path d="M6032 1522 c-43 -40 -56 -96 -35 -144 18 -41 45 -56 116 -63 41 -4
51 -1 78 23 34 30 51 86 37 122 -5 13 -20 39 -34 57 -23 30 -30 33 -78 33 -45
0 -59 -5 -84 -28z m148 -93 c0 -36 -2 -39 -37 -48 -50 -14 -63 -14 -63 2 0 6
-3 28 -6 49 -6 34 -4 37 32 57 l39 20 18 -21 c10 -11 17 -37 17 -59z"/>
<path d="M18107 3577 c-16 -12 -50 -41 -75 -64 -26 -23 -96 -81 -157 -128 -60
-47 -124 -97 -142 -111 -17 -14 -45 -35 -61 -47 -17 -12 -50 -36 -74 -54 -23
-17 -56 -42 -73 -55 -16 -13 -38 -28 -50 -34 -11 -6 -60 -33 -110 -61 -49 -28
-108 -57 -129 -64 -22 -8 -67 -29 -100 -46 -85 -46 -135 -66 -193 -78 -10 -2
-36 -11 -58 -21 -22 -9 -49 -18 -61 -19 -11 -2 -52 -10 -90 -18 -38 -8 -94
-20 -124 -25 -30 -6 -109 -22 -175 -36 -65 -14 -129 -26 -141 -26 -13 0 -35
-11 -50 -23 l-27 -24 21 -21 c14 -14 34 -22 55 -22 59 0 241 28 282 44 22 8
85 24 140 36 55 11 143 34 195 50 52 16 106 32 120 36 56 14 441 210 495 252
17 12 68 50 115 84 164 119 195 143 249 191 29 26 74 62 100 79 25 17 48 34
51 37 3 4 21 18 40 32 72 54 91 80 88 118 -4 44 -22 49 -61 18z"/>
<path d="M12262 3579 c-33 -7 -82 -35 -82 -47 0 -4 5 -26 10 -50 12 -52 17
-451 6 -548 l-8 -71 32 -23 32 -23 150 151 c83 84 158 152 167 152 16 0 157
-99 208 -146 12 -11 40 -29 63 -39 22 -10 40 -22 40 -26 0 -15 124 -95 175
-114 28 -10 70 -28 95 -40 64 -32 194 -75 224 -75 19 0 29 7 37 26 19 51 -26
84 -111 84 -47 0 -296 134 -464 250 -174 119 -202 142 -191 159 3 6 32 24 64
40 31 16 75 46 98 68 60 56 118 101 147 114 26 12 31 26 20 67 -5 17 -14 22
-41 22 -19 0 -55 7 -81 15 -26 8 -128 21 -227 30 -99 9 -214 19 -256 23 -41 4
-89 5 -107 1z"/>
<path d="M9630 3535 c-19 -14 -36 -29 -39 -33 -3 -4 -44 -39 -91 -77 -47 -38
-119 -99 -160 -135 -63 -56 -203 -166 -244 -192 -6 -4 -51 -30 -101 -56 -49
-27 -139 -77 -199 -110 -60 -34 -111 -62 -114 -62 -2 0 -16 -9 -31 -19 -27
-19 -100 -48 -196 -78 -27 -8 -75 -28 -106 -44 -86 -43 -237 -69 -422 -73
-135 -2 -160 -5 -177 -21 -27 -24 -25 -41 8 -71 26 -26 29 -26 132 -19 144 9
317 33 365 51 22 8 67 28 100 44 33 15 101 40 150 55 50 15 97 33 105 39 8 7
59 34 113 61 54 26 102 56 108 66 5 11 19 19 31 19 12 0 42 13 67 28 25 16 80
48 121 72 148 85 222 141 395 294 57 50 128 109 159 130 74 52 92 74 100 119
6 34 5 37 -17 37 -13 0 -38 -11 -57 -25z"/>
<path d="M1967 3235 c-34 -36 -115 -95 -133 -95 -5 0 -31 -13 -57 -30 -26 -16
-56 -30 -67 -30 -10 0 -33 -18 -51 -41 -29 -36 -30 -43 -19 -65 15 -27 22 -29
50 -14 34 18 84 19 128 3 47 -17 49 -24 26 -78 -8 -21 -18 -56 -20 -79 -17
-135 -18 -171 -13 -265 4 -86 9 -106 24 -117 48 -35 81 -2 63 62 -23 85 7 372
45 422 13 16 84 7 144 -19 40 -17 42 -17 58 1 16 17 15 22 -3 77 -11 32 -25
83 -32 113 -7 30 -19 69 -26 85 -7 17 -16 47 -19 68 -5 33 -9 37 -36 37 -21 0
-39 -10 -62 -35z"/>
<path d="M3633 3200 c-13 -5 -23 -13 -23 -18 0 -5 14 -58 31 -118 33 -118 35
-150 24 -322 -6 -100 -5 -115 10 -132 25 -28 51 -25 99 10 23 17 66 46 96 64
30 17 65 38 76 46 19 11 24 11 37 -1 8 -8 32 -28 53 -45 22 -18 52 -44 67 -58
15 -14 32 -26 36 -26 4 0 16 -9 26 -20 10 -11 23 -20 28 -20 6 0 20 -8 31 -18
12 -11 41 -27 66 -36 25 -10 59 -24 75 -31 32 -14 112 -39 158 -50 16 -3 69
-24 118 -46 54 -24 97 -38 108 -34 23 7 36 56 22 82 -10 20 -134 69 -296 119
-145 44 -280 114 -360 188 l-70 64 29 31 c16 16 45 38 65 47 45 20 61 40 61
75 0 39 -47 75 -117 88 -73 14 -124 30 -143 46 -33 26 -99 59 -175 87 -106 39
-106 39 -132 28z"/>
<path d="M18563 2898 c-6 -7 -16 -34 -24 -60 -7 -26 -20 -50 -28 -53 -8 -3
-34 8 -58 26 -33 23 -50 29 -69 25 -47 -12 -41 -35 24 -95 59 -54 74 -82 52
-96 -28 -18 -117 -261 -106 -291 8 -20 36 -29 54 -18 8 6 20 28 27 50 19 64
48 126 123 262 12 23 24 59 27 81 3 22 10 52 15 66 6 15 10 46 10 71 0 36 -3
44 -19 44 -10 0 -23 -6 -28 -12z"/>
<path d="M18264 2855 c-44 -18 -84 -70 -84 -109 0 -32 22 -65 57 -85 17 -9 16
-14 -10 -61 -16 -28 -27 -53 -25 -54 39 -32 73 -21 131 43 57 63 49 113 -19
127 -16 3 -37 11 -46 18 -15 11 -16 17 -6 38 7 14 21 29 33 34 23 10 32 49 13
57 -8 3 -28 -1 -44 -8z"/>
<path d="M18019 2659 c-10 -5 -23 -33 -29 -61 -14 -57 -43 -123 -60 -133 -18
-11 -35 12 -50 65 -17 61 -31 76 -59 60 -49 -25 -2 -168 64 -196 71 -29 111
-8 134 74 13 47 22 51 48 23 31 -31 69 -52 87 -45 9 3 16 7 16 8 0 1 -21 44
-47 95 -51 99 -76 126 -104 110z"/>
<path d="M17470 2625 c-15 -18 -3 -52 43 -128 17 -28 31 -67 33 -94 3 -27 20
-75 40 -114 32 -60 40 -69 71 -75 46 -9 102 1 133 24 30 22 39 87 19 135 -20
47 -81 85 -150 93 -32 4 -63 12 -67 18 -5 6 -17 36 -26 66 -27 83 -65 113 -96
75z m261 -255 c39 -21 11 -90 -38 -90 -16 0 -30 11 -43 33 -46 75 -6 103 81
57z"/>
<path d="M19337 2493 c-14 -14 -6 -76 17 -131 13 -31 31 -80 40 -108 20 -60
45 -87 78 -82 29 4 27 20 -14 143 -41 123 -55 152 -81 170 -24 17 -31 18 -40
8z"/>
<path d="M1880 2293 c-8 -2 -38 -46 -65 -98 -28 -52 -57 -97 -65 -100 -17 -7
-40 21 -74 91 -29 58 -48 77 -73 72 -26 -5 -71 -76 -84 -135 -14 -61 -32 -68
-69 -28 -13 14 -27 25 -31 25 -5 0 -25 11 -45 25 -21 14 -54 28 -76 31 -21 4
-38 10 -38 14 0 15 -31 20 -52 9 -17 -9 -19 -18 -14 -52 3 -23 7 -60 10 -82 2
-22 8 -55 11 -72 5 -22 3 -33 -4 -33 -6 0 -50 18 -98 40 -48 22 -113 47 -146
56 -55 14 -61 14 -78 -2 -16 -15 -19 -26 -13 -63 4 -25 13 -61 20 -80 19 -46
18 -75 -2 -67 -8 3 -53 17 -99 30 -46 13 -91 28 -101 33 -18 8 -29 9 -76 4
-10 0 -20 -12 -24 -26 -6 -25 28 -84 85 -148 22 -24 23 -29 11 -41 -15 -14
-200 -111 -250 -131 -42 -17 -39 -60 7 -100 21 -19 47 -37 58 -41 11 -4 39
-20 63 -36 48 -33 52 -53 28 -147 -26 -102 -34 -174 -22 -200 10 -24 11 -24
128 -18 l118 5 0 -36 c-1 -21 -7 -66 -14 -101 -13 -57 -12 -67 1 -88 15 -23
20 -24 97 -20 60 4 96 12 140 32 50 23 61 25 72 13 19 -19 54 -121 54 -156 0
-36 30 -72 60 -72 13 0 74 25 137 55 112 55 139 60 128 25 -8 -26 20 -176 39
-205 9 -14 32 -33 51 -42 32 -15 34 -15 67 8 18 13 65 54 105 91 40 37 77 68
82 68 17 0 29 -32 42 -106 20 -121 71 -192 128 -179 34 7 71 48 146 163 28 43
54 72 64 72 9 0 37 -13 62 -29 25 -15 63 -34 85 -41 21 -7 58 -23 81 -36 23
-13 48 -24 56 -24 18 0 50 66 67 138 6 28 15 52 19 52 4 0 25 -17 47 -39 22
-21 60 -51 85 -67 24 -16 55 -39 68 -51 13 -13 32 -23 41 -23 34 0 37 10 65
195 3 22 10 44 14 48 5 5 36 -6 71 -27 33 -20 67 -36 74 -36 8 0 33 -9 57 -20
107 -48 150 2 115 135 -9 32 -16 64 -16 71 0 8 42 12 153 11 178 0 207 7 207
53 0 18 -12 51 -26 76 -14 24 -23 44 -20 44 3 0 -4 21 -15 46 -22 52 -17 64
34 91 35 18 172 126 204 160 37 39 30 67 -20 87 -44 16 -179 109 -185 126 -2
6 -9 10 -17 10 -31 0 -33 25 -9 120 28 112 29 133 8 154 -19 19 -89 14 -199
-15 -64 -17 -71 -17 -82 -2 -9 11 -9 21 -2 36 14 24 7 143 -8 158 -16 16 -63
3 -128 -37 -32 -19 -61 -34 -66 -34 -5 0 -9 22 -9 50 0 59 -35 173 -61 196
-26 23 -77 11 -130 -31 -122 -98 -149 -116 -175 -118 -26 -2 -29 3 -50 63 -13
36 -23 76 -23 90 -1 14 -12 49 -26 78 -22 47 -28 53 -47 47 -32 -9 -101 -88
-138 -157 -17 -32 -35 -58 -39 -58 -9 0 -41 70 -74 159 -24 67 -50 89 -78 67
-18 -13 -63 -107 -80 -167 -7 -24 -15 -47 -19 -52 -10 -12 -46 33 -80 103 -54
108 -94 152 -130 143z m37 -135 c6 -7 29 -48 52 -91 38 -71 72 -117 87 -117 3
0 14 10 23 21 17 21 18 21 44 4 21 -14 28 -14 31 -4 2 8 11 34 19 59 8 25 18
58 21 73 10 44 28 20 56 -70 13 -43 27 -82 32 -87 4 -6 8 -18 8 -28 0 -26 46
-35 70 -13 11 10 20 23 21 29 0 6 24 49 52 96 51 82 87 113 87 73 0 -11 9 -57
21 -104 24 -97 53 -135 99 -125 27 5 120 60 225 132 27 19 53 34 56 34 8 0 29
-77 30 -110 1 -14 -3 -55 -8 -92 -10 -75 -8 -83 28 -96 20 -8 30 -6 50 10 35
28 141 98 149 98 4 0 -2 -39 -12 -87 -14 -65 -16 -94 -9 -110 13 -28 11 -28
129 1 53 13 114 27 134 29 37 6 37 5 32 -26 -3 -18 -13 -50 -21 -72 -20 -54
-18 -133 4 -157 10 -11 51 -42 93 -70 41 -27 77 -51 78 -53 2 -2 -4 -18 -15
-36 -22 -39 -146 -103 -172 -90 -21 12 -51 -10 -51 -37 0 -12 14 -42 31 -67
40 -59 73 -163 57 -182 -15 -19 -81 -16 -182 8 -163 40 -181 10 -120 -198 12
-43 -22 -38 -140 21 -168 84 -181 80 -190 -68 -3 -54 -8 -101 -10 -104 -4 -3
-83 55 -106 78 -3 3 -33 29 -66 58 -93 78 -127 67 -129 -42 -1 -34 -7 -71 -14
-84 -15 -29 -37 -24 -162 39 -53 27 -107 49 -120 49 -37 0 -83 -47 -120 -120
-37 -72 -86 -140 -103 -140 -6 0 -17 26 -25 58 -34 148 -66 222 -98 222 -7 0
-16 7 -19 15 -9 23 -41 9 -101 -44 -113 -100 -141 -122 -146 -114 -4 7 -14 81
-33 251 -7 53 -16 54 -125 3 -96 -45 -162 -66 -181 -59 -7 3 -22 30 -32 59
-11 30 -32 80 -48 112 -22 45 -33 57 -52 57 -13 0 -29 -7 -37 -16 -22 -27 -90
-56 -146 -61 l-55 -6 2 74 c3 107 1 142 -10 159 -7 12 -32 15 -117 15 l-108 0
1 45 c0 25 10 83 23 129 23 83 23 84 4 110 -11 14 -35 36 -54 48 -51 33 -89
64 -89 72 0 13 208 114 222 107 7 -3 20 -11 29 -18 25 -18 46 -3 54 38 6 36 4
40 -44 86 -28 26 -56 48 -61 48 -6 0 -8 5 -5 11 8 12 63 3 84 -14 13 -11 29
-17 129 -53 80 -28 91 17 36 154 -14 35 -24 70 -22 77 2 10 33 0 113 -39 128
-62 203 -84 217 -64 9 13 5 105 -8 201 -5 33 -3 47 5 47 19 0 121 -68 175
-116 36 -34 56 -44 82 -44 37 0 37 0 49 124 7 79 14 86 38 40 11 -21 32 -55
47 -74 15 -19 30 -43 33 -52 7 -19 24 -23 43 -10 6 4 25 33 42 64 47 89 83
137 103 138 4 0 11 -6 16 -12z"/>
<path d="M2168 1669 c-15 -8 -18 -25 -18 -102 0 -51 -3 -115 -6 -143 l-7 -52
-65 2 -66 1 -27 -40 c-23 -32 -27 -47 -22 -75 9 -54 34 -89 78 -110 58 -28 93
-25 155 14 l55 35 23 -49 c29 -61 55 -78 135 -86 l65 -7 49 46 c37 35 45 49
36 58 -9 9 -22 7 -55 -10 -52 -25 -76 -26 -123 -7 -36 15 -47 36 -20 36 24 0
138 50 158 69 21 20 30 76 17 100 -5 10 -27 30 -49 46 -33 22 -48 26 -77 22
-43 -7 -110 -68 -118 -108 -7 -36 -94 -96 -153 -105 -52 -8 -99 17 -107 57
-13 69 19 76 100 22 41 -27 57 -34 63 -24 4 7 11 72 16 144 4 73 9 150 10 172
4 56 -5 105 -19 105 -6 0 -19 -5 -28 -11z m292 -321 c0 -7 3 -23 6 -35 8 -29
-45 -63 -98 -63 -47 0 -48 13 -8 68 25 36 36 42 65 42 21 0 35 -5 35 -12z"/>
<path d="M2963 1542 c-9 -5 -12 -48 -12 -142 0 -74 -1 -146 -3 -160 -6 -48 26
-27 49 31 23 59 34 208 19 257 -7 22 -30 28 -53 14z"/>
<path d="M1095 1515 c-105 -56 -138 -155 -99 -299 23 -84 53 -108 73 -58 8 20
7 46 -3 105 -16 90 -9 131 29 167 27 26 86 50 123 50 18 0 23 5 20 23 -3 19
-10 22 -58 25 -36 1 -66 -3 -85 -13z"/>
<path d="M1729 1481 c-51 -33 -75 -74 -87 -151 -14 -92 21 -200 64 -200 35 0
40 76 13 182 -13 51 8 100 50 117 23 10 34 11 45 2 22 -19 37 -91 40 -195 2
-97 9 -115 42 -116 28 0 34 27 25 121 -13 139 -33 208 -70 241 -40 35 -66 35
-122 -1z"/>
<path d="M1412 1489 c-29 -11 -101 -87 -108 -115 -3 -12 0 -48 6 -80 16 -78
84 -152 150 -165 79 -15 109 -11 136 16 37 37 19 56 -45 48 -50 -6 -94 10
-121 42 -13 15 -11 20 9 36 13 11 33 19 45 19 11 1 39 13 61 28 33 23 41 35
43 64 3 30 -3 44 -33 76 -31 35 -41 40 -78 40 -24 -1 -53 -5 -65 -9z m97 -75
c12 -11 12 -15 0 -30 -16 -20 -92 -54 -120 -54 -29 0 -15 48 24 82 32 29 67
30 96 2z"/>
<path d="M2718 1345 c-14 -8 -36 -30 -48 -49 -18 -29 -26 -34 -48 -30 -51 9
-57 -5 -36 -86 29 -113 83 -141 100 -51 4 20 8 43 9 51 0 9 10 29 20 44 41 58
53 66 100 66 39 0 45 3 45 20 0 36 -97 60 -142 35z"/>
<path d="M2966 1086 c-14 -23 -14 -26 3 -47 18 -22 19 -22 45 -6 26 18 31 32
20 61 -9 24 -50 19 -68 -8z"/>
<path d="M16484 2292 c-19 -13 -23 -52 -10 -102 15 -58 8 -70 -43 -70 -41 0
-101 -33 -101 -55 0 -23 37 -37 95 -34 30 2 57 0 60 -2 2 -3 7 -27 10 -54 7
-55 19 -75 45 -75 28 0 39 22 42 85 l3 60 48 22 c26 13 47 29 47 38 0 20 -32
35 -78 35 -38 0 -40 2 -47 38 -8 45 -41 122 -52 122 -4 0 -13 -4 -19 -8z"/>
<path d="M17056 2233 c-20 -21 -41 -55 -47 -76 -10 -39 -10 -39 49 -97 49 -49
66 -59 105 -65 60 -9 97 4 125 45 30 44 29 106 -1 151 -28 41 -64 60 -117 61
-22 0 -43 4 -46 9 -10 18 -32 8 -68 -28z m177 -115 c8 -29 -9 -48 -44 -48 -40
0 -46 19 -13 46 36 29 50 30 57 2z"/>
<path d="M16764 2175 c-23 -13 -47 -38 -53 -54 -14 -34 -6 -98 17 -123 22 -26
97 -68 121 -68 31 0 118 52 130 77 32 69 -43 162 -152 188 -13 3 -38 -4 -63
-20z m118 -72 c22 -20 23 -42 2 -71 -34 -48 -105 1 -90 62 5 21 12 26 38 26
17 0 40 -7 50 -17z"/>
<path d="M19244 2180 c-23 -10 -51 -33 -64 -51 -12 -19 -38 -47 -56 -64 l-34
-30 12 -57 c12 -55 11 -58 -12 -84 -14 -14 -46 -37 -72 -50 -26 -13 -49 -28
-53 -34 -10 -16 -48 -11 -75 10 -30 22 -23 32 25 35 56 3 115 72 115 135 0 52
-65 110 -123 110 -33 0 -102 -60 -119 -104 -59 -151 1 -256 147 -256 58 0 67
3 112 38 26 21 55 51 63 66 14 27 29 30 70 12 9 -4 23 -1 33 6 14 10 18 31 21
100 3 97 9 107 71 144 53 30 73 69 45 84 -27 14 -59 11 -106 -10z m-283 -181
c12 -30 11 -33 -15 -55 -28 -24 -61 -30 -84 -15 -31 19 24 101 68 101 10 0 23
-13 31 -31z"/>
<path d="M18557 2122 c-15 -17 -15 -23 3 -88 11 -38 20 -76 20 -84 -1 -8 -26
-42 -56 -74 l-54 -60 -33 31 c-87 81 -112 82 -161 6 -42 -65 -42 -85 -2 -177
28 -63 51 -84 74 -69 21 13 21 39 4 121 -10 45 -11 67 -3 75 15 15 36 -6 73
-75 17 -33 43 -68 56 -79 l25 -20 26 25 c14 13 43 30 64 37 25 9 58 35 94 76
57 65 65 96 26 101 -31 5 -47 36 -67 132 -28 131 -51 164 -89 122z m76 -299
c12 -11 -25 -43 -50 -43 -25 0 -30 19 -11 38 13 13 50 16 61 5z"/>
<path d="M19542 2088 c-33 -33 7 -108 57 -108 12 0 33 11 47 25 21 21 23 27
12 45 -12 20 -67 50 -92 50 -7 0 -17 -5 -24 -12z"/>
<path d="M18006 1814 c-121 -127 -108 -275 27 -304 27 -6 66 -7 86 -4 61 12
128 74 115 108 -5 13 -15 10 -61 -14 -62 -33 -122 -39 -147 -14 -27 26 -19 42
27 49 55 9 84 28 100 68 15 37 7 101 -15 124 -9 8 -33 17 -55 20 -36 5 -43 2
-77 -33z m94 -49 c20 -24 3 -52 -40 -63 -48 -12 -57 -2 -33 35 29 46 51 54 73
28z"/>
<path d="M17769 1765 c-15 -8 -36 -29 -48 -47 -11 -18 -26 -40 -32 -49 -10
-13 -8 -28 11 -75 24 -63 51 -94 81 -94 27 0 28 9 12 86 -21 96 -9 122 65 142
39 11 52 19 50 31 -4 22 -103 26 -139 6z"/>
<path d="M16851 1677 c-6 -8 -14 -46 -16 -83 -3 -38 -9 -70 -15 -72 -5 -2 -29
-14 -53 -26 -31 -17 -43 -29 -45 -49 -3 -21 2 -28 23 -33 15 -4 38 -1 53 7 41
20 44 18 61 -45 17 -61 37 -84 65 -73 13 5 16 22 16 86 l0 80 40 11 c45 12 51
19 44 48 -5 16 -17 23 -57 29 l-51 8 -16 52 c-18 63 -32 80 -49 60z"/>
<path d="M17132 1587 c-12 -7 -34 -29 -47 -49 -21 -31 -25 -49 -25 -106 0 -97
9 -106 96 -100 45 4 81 13 105 27 37 22 69 75 69 115 0 36 -38 76 -97 102 -61
27 -69 28 -101 11z m95 -63 c49 -13 34 -79 -24 -111 -34 -18 -35 -18 -49 1
-20 28 -18 59 7 90 21 27 29 30 66 20z"/>
</g>
</svg>
