<?xml version="1.0" standalone="no"?>
<!DOCTYPE svg PUBLIC "-//W3C//DTD SVG 20010904//EN"
 "http://www.w3.org/TR/2001/REC-SVG-20010904/DTD/svg10.dtd">
<svg version="1.0" xmlns="http://www.w3.org/2000/svg"
 width="1008.189644pt" height="400.000000pt" viewBox="0 0 1008.189644 400.000000"
 preserveAspectRatio="xMidYMid meet">
<metadata>
Created by potrace 1.15, written by Peter Selinger 2001-2017
</metadata>
<g transform="translate(-22.376968,416.804443) scale(0.041603,-0.041603)"
fill="#444444" stroke="none">
<path d="M12154 10002 c-25 -21 -34 -70 -24 -142 29 -215 48 -270 95 -270 24
0 25 3 25 53 0 29 -7 78 -16 107 -9 30 -17 99 -19 153 -1 72 -6 102 -16 108
-19 12 -21 11 -45 -9z"/>
<path d="M11643 9882 c-32 -3 -45 -24 -23 -37 11 -7 30 -69 40 -133 l7 -42
-33 6 c-26 5 -34 2 -43 -14 -19 -35 -12 -49 29 -66 l40 -16 -1 -97 c-2 -106 6
-123 63 -123 28 0 28 0 29 68 3 149 0 137 42 140 31 3 37 7 37 25 -1 26 -17
50 -46 65 -22 12 -54 91 -54 135 0 13 -12 39 -27 58 -23 28 -34 33 -60 31z"/>
<path d="M11374 9704 c-25 -25 -44 -55 -44 -67 0 -34 36 -84 80 -112 46 -29
47 -43 6 -64 -23 -10 -33 -11 -51 -1 -30 16 -58 10 -69 -17 -13 -28 -81 -50
-138 -45 -36 4 -16 29 41 56 33 15 65 34 73 43 30 36 -1 150 -50 191 -49 39
-157 -26 -166 -101 -2 -12 -8 -34 -14 -48 -6 -15 -16 -45 -22 -68 -10 -37 -8
-46 9 -75 30 -48 88 -85 136 -86 58 -1 107 10 130 29 38 31 66 42 103 40 49
-3 141 30 159 58 23 35 7 91 -31 108 -17 8 -38 19 -46 24 -8 5 -23 12 -33 15
-13 4 -17 14 -15 33 2 22 10 30 38 38 51 15 60 23 60 54 0 31 -18 41 -79 41
-27 0 -42 -9 -77 -46z m-200 -110 c23 -22 20 -36 -14 -69 -33 -32 -36 -27 -24
48 7 41 15 45 38 21z"/>
<path d="M11940 9717 c-32 -15 -59 -47 -60 -70 0 -10 20 -42 45 -70 25 -29 45
-55 45 -58 0 -12 -36 -16 -89 -11 l-51 5 0 -35 c0 -32 3 -36 39 -46 49 -15
153 -15 185 -1 34 16 46 67 20 86 -36 25 -63 55 -79 85 -8 17 -15 33 -15 35 0
1 18 3 40 3 39 0 40 1 40 33 0 31 -4 35 -39 45 -46 14 -49 14 -81 -1z"/>
<path d="M10064 9625 c-40 -18 -49 -30 -70 -95 -10 -30 -24 -61 -31 -68 -26
-26 -14 -60 37 -111 57 -57 123 -81 205 -76 28 1 60 3 73 4 13 1 22 7 22 17 0
11 9 15 33 13 64 -4 94 1 115 21 20 19 22 19 31 2 5 -10 13 -42 17 -70 5 -38
11 -53 25 -57 18 -6 18 -7 -3 -26 -23 -19 -23 -19 -4 -34 24 -18 63 -19 80 -2
22 22 75 145 81 191 7 44 7 44 40 39 42 -7 102 28 111 63 9 34 24 26 52 -29
12 -26 26 -47 30 -48 4 0 19 -2 34 -4 25 -3 26 -2 21 33 -3 20 -11 48 -18 62
-7 14 -24 54 -38 90 -24 64 -55 98 -64 73 -3 -7 -12 -13 -22 -13 -12 0 -28
-23 -51 -71 -31 -66 -34 -70 -48 -53 -10 14 -12 35 -8 78 4 37 2 64 -5 72 -19
23 -57 16 -76 -12 -23 -36 -21 -149 3 -176 16 -17 16 -19 -4 -39 -12 -11 -22
-28 -22 -38 0 -10 -7 -24 -15 -31 -12 -10 -15 -7 -20 17 -4 15 -9 35 -12 43
-2 8 -8 49 -13 90 -7 63 -12 78 -34 95 -14 11 -26 28 -26 37 0 32 -33 30 -67
-4 -18 -18 -40 -41 -50 -50 -87 -85 -103 -107 -103 -142 0 -51 -26 -75 -79
-70 -44 4 -105 39 -95 55 3 5 22 16 41 24 20 9 51 31 70 50 42 43 37 74 -19
128 -43 40 -71 45 -124 22z m74 -77 c19 -19 14 -38 -11 -38 -12 0 -30 -9 -40
-20 -25 -29 -37 -17 -25 25 13 41 51 58 76 33z m322 -28 c0 -5 -5 -32 -11 -60
-8 -38 -15 -50 -29 -50 -10 0 -22 -4 -25 -10 -9 -15 -45 -12 -45 4 0 7 21 39
46 70 44 53 64 68 64 46z"/>
<path d="M6786 9582 c-6 -10 9 -121 19 -146 8 -18 5 -19 -51 -12 -55 6 -62 5
-83 -18 -13 -14 -20 -30 -16 -36 12 -19 71 -40 114 -40 22 0 43 -5 47 -11 4
-7 8 -50 10 -98 5 -147 4 -143 48 -160 62 -24 67 -7 45 136 -10 65 -19 123
-19 129 0 6 27 14 60 17 62 7 100 21 100 37 0 11 -57 40 -78 40 -9 0 -31 6
-50 12 -28 11 -40 25 -68 85 -25 53 -40 73 -54 73 -10 0 -21 -3 -24 -8z"/>
<path d="M9814 9561 c-18 -11 -35 -24 -38 -30 -4 -6 -18 -11 -32 -11 -34 0
-52 -40 -36 -83 6 -18 14 -50 18 -71 4 -22 13 -51 20 -65 8 -14 14 -33 14 -42
0 -22 35 -51 57 -47 14 3 18 12 16 48 -1 25 -3 82 -5 127 l-3 82 40 16 c23 8
48 15 58 15 16 0 18 4 21 30 1 10 -70 50 -89 50 -5 0 -24 -9 -41 -19z"/>
<path d="M9407 9508 c-18 -29 -39 -68 -46 -85 -8 -18 -19 -33 -25 -33 -6 0
-34 15 -62 34 -57 38 -83 38 -100 1 -10 -20 -7 -28 25 -63 20 -21 50 -46 68
-56 l32 -16 -29 -53 c-16 -28 -41 -77 -57 -107 -15 -30 -31 -56 -35 -58 -5 -2
-8 -13 -8 -25 0 -12 -7 -31 -15 -41 -22 -29 -18 -39 20 -58 l35 -18 23 38 c13
20 32 55 42 77 10 22 26 49 35 60 9 11 27 45 40 75 14 30 34 69 46 85 12 17
25 41 29 55 4 14 13 35 21 47 7 11 16 34 18 49 3 15 11 31 17 35 7 4 9 17 5
34 -4 15 -2 33 4 41 16 18 4 34 -26 34 -18 0 -32 -12 -57 -52z"/>
<path d="M8659 9521 c-24 -15 -69 -54 -100 -85 -80 -80 -85 -127 -16 -162 76
-40 126 -35 185 20 l24 21 26 -32 c15 -17 35 -43 45 -57 14 -21 25 -25 60 -24
23 1 52 -2 63 -6 30 -11 34 8 18 89 -19 98 -18 118 8 134 20 13 24 11 50 -20
16 -19 31 -45 34 -59 14 -69 46 -166 59 -180 12 -11 20 -12 33 -4 21 14 23 76
5 154 -17 68 -96 188 -135 205 -44 18 -88 7 -107 -26 -9 -16 -20 -29 -26 -29
-5 0 -21 -10 -34 -21 l-24 -20 22 -54 c37 -88 20 -100 -21 -15 -20 42 -46 84
-57 94 -12 11 -21 29 -21 40 0 22 -26 66 -39 66 -4 0 -27 -13 -52 -29z m31
-116 c0 -20 -27 -55 -47 -60 -39 -9 -41 4 -5 36 29 26 52 37 52 24z"/>
<path d="M8051 9490 c-31 -30 -41 -46 -36 -58 4 -9 11 -57 15 -106 6 -86 8
-91 41 -118 64 -53 77 -29 58 107 -6 51 -9 100 -6 109 10 26 35 19 52 -15 22
-42 76 -89 99 -86 12 1 24 15 31 37 7 19 17 35 23 34 7 -1 18 -2 25 -2 17 -2
57 -85 57 -117 0 -14 4 -25 9 -25 5 0 12 -11 15 -25 7 -26 42 -63 61 -65 21
-2 21 47 0 110 -26 77 -81 167 -125 204 -34 28 -77 34 -86 12 -3 -8 -16 -22
-29 -30 -23 -15 -26 -14 -62 20 -71 67 -85 68 -142 14z"/>
<path d="M12280 9491 c-15 -37 1 -77 34 -85 40 -10 66 9 66 47 0 43 -9 53 -52
60 -33 5 -37 3 -48 -22z"/>
<path d="M7170 9394 c-79 -71 -94 -127 -53 -192 12 -19 12 -26 1 -39 -10 -13
-9 -18 11 -34 47 -38 133 -15 198 53 66 69 47 174 -42 224 -54 31 -69 30 -115
-12z m108 -98 c3 -21 -5 -37 -29 -62 -18 -18 -36 -31 -41 -28 -12 7 -10 82 3
105 7 14 19 19 37 17 21 -2 28 -9 30 -32z"/>
<path d="M7520 9420 c-8 -5 -26 -11 -40 -15 -37 -8 -69 -66 -67 -117 2 -33 12
-56 45 -101 l44 -58 51 2 c78 4 138 49 154 115 12 45 11 52 -10 92 -12 23 -26
42 -31 42 -4 0 -21 11 -38 25 -30 26 -79 32 -108 15z m98 -86 c37 -25 27 -76
-19 -99 -43 -23 -74 -19 -87 10 -28 62 -6 93 73 104 6 0 21 -6 33 -15z"/>
<path d="M12044 8983 c-3 -10 -10 -27 -15 -38 -7 -14 -6 -30 1 -49 6 -16 11
-84 11 -152 1 -105 3 -126 17 -133 9 -5 26 -5 38 -1 18 7 21 17 23 96 1 48 4
90 6 94 3 4 0 45 -6 91 -7 57 -15 87 -27 95 -24 19 -42 17 -48 -3z"/>
<path d="M8664 8859 c-15 -30 -15 -33 3 -58 11 -14 23 -52 27 -85 6 -57 6 -58
-16 -52 -13 3 -35 6 -49 6 -28 0 -64 41 -62 71 1 9 -11 32 -27 50 -24 29 -31
32 -47 23 -14 -9 -17 -21 -14 -50 9 -94 8 -99 -19 -96 -39 4 -70 -17 -70 -49
0 -28 15 -39 55 -39 50 0 51 -4 49 -120 -3 -120 0 -126 55 -132 33 -3 35 -1
43 32 5 19 6 74 3 121 -4 48 -3 89 2 92 4 2 29 8 55 11 44 7 48 6 61 -21 8
-15 18 -63 22 -105 6 -66 10 -79 31 -93 42 -27 57 -8 59 71 1 38 5 79 9 92 17
52 52 8 62 -77 3 -25 10 -57 15 -71 10 -26 65 -58 77 -45 4 4 6 41 6 83 -1 78
-13 111 -68 194 -18 27 -60 43 -107 40 -28 -2 -25 -9 -64 133 -31 107 -61 132
-91 74z"/>
<path d="M7930 8855 c-22 -23 -23 -28 -11 -61 7 -19 14 -80 15 -135 2 -89 1
-99 -15 -99 -10 0 -24 -8 -31 -19 -7 -10 -22 -21 -34 -25 -13 -4 -26 -22 -34
-49 -8 -23 -19 -53 -26 -67 -11 -23 -9 -28 14 -51 46 -45 75 -58 142 -64 57
-6 72 -4 121 19 49 23 56 30 55 54 -1 23 -5 27 -28 27 -24 -1 -27 2 -25 36 1
26 -7 47 -26 72 -15 20 -27 49 -27 65 0 16 -5 54 -11 83 -7 30 -12 89 -13 133
-1 68 -4 80 -22 92 -18 13 -23 11 -44 -11z m33 -440 c9 -19 23 -35 31 -35 8 0
18 -4 21 -10 7 -12 -81 -2 -107 12 -24 12 -22 34 4 52 30 22 32 21 51 -19z"/>
<path d="M11755 8844 c-14 -22 -15 -33 -6 -69 17 -68 17 -68 -37 -61 -45 6
-50 4 -60 -18 -15 -33 6 -60 64 -82 41 -16 45 -19 38 -43 -17 -62 -20 -112
-10 -127 11 -14 70 -23 82 -12 2 3 10 34 16 69 14 77 20 86 67 99 55 15 65 24
57 54 -5 22 -12 26 -45 26 -49 0 -64 18 -85 100 -14 57 -35 90 -57 90 -4 0
-14 -12 -24 -26z"/>
<path d="M8941 8782 c-10 -15 -16 -33 -14 -40 4 -10 73 -52 87 -52 13 0 14 54
2 79 -21 40 -51 46 -75 13z"/>
<path d="M11463 8761 c-17 -11 -39 -36 -48 -55 -23 -48 -11 -77 60 -140 61
-54 68 -78 27 -95 -42 -18 -308 -9 -327 11 -14 14 17 47 49 53 44 9 86 49 86
83 0 45 -36 91 -87 113 -44 19 -50 19 -89 4 -33 -13 -45 -24 -64 -65 -13 -28
-27 -50 -32 -50 -4 0 -8 -32 -8 -71 0 -69 1 -73 36 -105 19 -19 43 -34 53 -34
9 0 22 -5 27 -10 15 -15 132 -16 146 -2 16 16 54 15 81 -2 42 -26 103 -28 160
-4 85 35 107 55 107 93 0 26 -9 40 -42 70 -89 77 -98 87 -98 105 0 26 25 42
62 39 64 -4 89 29 50 64 -26 24 -108 22 -149 -2z m-243 -129 c0 -16 -78 -67
-87 -58 -2 2 -1 16 3 31 4 17 18 32 38 40 35 15 46 12 46 -13z"/>
<path d="M7167 8735 c-16 -23 -17 -28 -3 -58 9 -17 20 -56 26 -85 5 -29 15
-62 21 -74 7 -12 14 -64 16 -116 2 -58 9 -105 19 -123 18 -35 59 -58 75 -42
13 13 15 72 5 134 -7 40 -5 49 16 74 16 18 29 25 37 21 21 -14 48 -89 56 -156
9 -77 28 -120 54 -120 27 0 41 47 35 117 l-4 58 15 -33 c9 -18 23 -35 33 -38
9 -3 26 -10 37 -16 11 -6 51 -12 88 -12 89 -1 126 28 97 74 -7 11 -27 15 -72
15 -75 0 -82 15 -24 48 94 52 52 157 -62 157 -80 0 -122 -29 -122 -84 0 -14
-4 -28 -10 -31 -5 -3 -10 -2 -10 4 0 17 -61 81 -91 96 -25 13 -31 13 -57 -2
-32 -19 -62 -12 -62 14 0 28 -52 187 -64 195 -18 13 -30 8 -49 -17z"/>
<path d="M10012 8720 c-33 -33 -76 -39 -141 -20 -26 7 -42 5 -70 -7 -20 -9
-43 -17 -51 -17 -24 -1 -70 -37 -63 -49 4 -6 10 -47 15 -91 4 -45 11 -98 14
-119 7 -45 34 -63 65 -46 20 10 21 17 16 92 -9 134 25 177 138 173 l50 -1 11
-75 c6 -41 16 -76 22 -78 7 -2 22 -21 34 -43 20 -35 30 -44 42 -36 3 1 15 -8
28 -21 35 -32 102 -33 151 -3 20 12 37 29 37 36 0 18 -65 39 -96 31 -50 -13
-116 46 -77 68 10 5 37 28 61 50 24 23 50 47 58 54 32 30 9 66 -69 110 -26 15
-55 22 -92 22 -46 0 -58 -4 -83 -30z m126 -73 c4 -18 -23 -46 -44 -47 -19 0
-23 39 -7 56 20 19 47 14 51 -9z"/>
<path d="M10477 8727 c-97 -77 -156 -145 -180 -209 -8 -24 95 -112 122 -103
11 3 22 1 26 -5 10 -16 62 -12 80 7 14 14 18 14 26 2 9 -14 15 -130 12 -256
-1 -62 1 -73 15 -73 10 0 27 -3 39 -6 27 -7 48 28 58 101 5 27 16 67 26 90 10
22 19 50 19 62 0 35 42 92 68 93 38 0 79 27 103 67 l24 38 6 -35 c7 -43 34
-97 51 -102 7 -3 21 -3 31 0 21 5 19 40 -9 182 -17 83 -31 118 -55 133 -24 15
-68 -28 -76 -76 -3 -21 -12 -41 -19 -44 -8 -3 -14 -13 -14 -23 0 -21 -26 -34
-36 -18 -4 5 -6 37 -5 70 1 32 -4 68 -9 79 -14 25 -42 24 -65 -1 -16 -17 -17
-32 -12 -117 4 -54 10 -108 13 -120 5 -17 2 -23 -9 -23 -8 0 -24 -12 -35 -27
-11 -16 -23 -25 -27 -21 -7 7 -34 158 -42 235 -4 44 -9 53 -32 62 -14 7 -31
21 -36 33 -14 30 -25 31 -58 5z m30 -129 c-5 -29 -9 -72 -9 -95 -1 -46 -11
-53 -48 -33 -34 18 -42 46 -24 82 16 33 72 98 84 98 4 0 2 -24 -3 -52z"/>
<path d="M9205 8704 c-80 -27 -98 -89 -42 -151 17 -20 37 -40 42 -44 55 -42
97 -88 91 -97 -9 -14 -66 -16 -98 -3 -53 21 -64 25 -77 25 -19 1 -33 52 -26
97 3 27 0 43 -13 59 -17 21 -21 22 -48 9 -28 -14 -29 -17 -29 -83 0 -63 2 -69
30 -92 17 -13 34 -22 40 -21 5 2 14 -6 20 -17 6 -11 28 -31 50 -44 36 -20 50
-23 133 -19 102 3 112 9 112 64 0 34 -57 110 -116 154 -10 8 -25 25 -33 39
-12 21 -11 26 8 41 12 10 24 31 27 47 8 42 -17 55 -71 36z"/>
<path d="M6980 8572 c-19 -2 -43 -11 -53 -20 -11 -9 -26 -17 -35 -17 -8 0 -20
-13 -25 -28 -8 -25 -6 -31 14 -45 13 -9 36 -29 51 -44 15 -16 36 -31 46 -33
32 -6 75 -31 101 -59 23 -24 24 -28 9 -43 -12 -11 -36 -16 -81 -17 -65 -1 -89
-11 -108 -48 -8 -15 -4 -22 23 -38 43 -26 102 -26 173 1 86 32 120 104 76 161
-11 13 -53 47 -93 74 -72 48 -73 49 -41 52 18 2 41 -2 52 -7 53 -29 100 -3 80
43 -23 50 -101 79 -189 68z"/>
<path d="M12105 8495 c-41 -40 -27 -75 30 -75 33 0 56 15 50 34 -2 6 -6 23 -9
39 -8 35 -38 36 -71 2z"/>
<path d="M8064 8094 c-33 -34 -35 -40 -31 -83 3 -25 10 -68 17 -94 9 -36 9
-51 0 -62 -6 -8 -11 -22 -10 -32 5 -48 -2 -75 -29 -105 l-29 -33 -114 -3 c-62
-2 -139 -3 -172 -3 -49 0 -66 -5 -103 -30 -30 -21 -46 -40 -50 -60 -3 -16 -9
-29 -12 -29 -4 0 -8 -59 -9 -131 l-2 -130 33 -14 c63 -26 84 -28 92 -8 4 10
10 60 12 111 7 106 3 102 112 133 48 14 98 19 186 19 104 0 125 3 155 21 19
11 40 27 46 34 8 10 20 12 50 5 21 -5 113 -9 204 -9 290 0 267 3 275 -28 4
-16 9 -75 11 -132 3 -83 8 -111 25 -138 26 -42 61 -66 91 -61 25 3 27 15 31
233 1 90 -1 105 -25 150 -14 28 -45 70 -68 93 l-42 41 -216 -3 c-119 -1 -231
1 -249 6 l-31 8 -6 98 c-8 122 -25 220 -43 250 -20 33 -56 28 -99 -14z"/>
<path d="M18672 7190 c-76 -12 -106 -27 -119 -60 -10 -26 -8 -31 13 -45 21
-13 29 -13 81 1 32 9 86 17 121 19 64 3 82 -7 82 -48 0 -29 -71 -71 -134 -78
-64 -8 -86 -25 -86 -66 0 -28 27 -43 78 -43 31 0 47 -8 80 -38 68 -63 52 -94
-58 -113 -66 -11 -79 -10 -107 5 -31 16 -34 15 -53 -4 -46 -46 0 -97 93 -107
43 -4 74 -1 125 16 74 23 112 55 129 107 14 39 -14 114 -58 160 l-32 33 32 27
c60 50 76 112 45 177 -25 52 -119 75 -232 57z"/>
<path d="M18255 7037 c-22 -17 -47 -36 -56 -42 -100 -63 -169 -113 -172 -125
-3 -8 -8 -22 -11 -30 -6 -16 3 -22 105 -68 26 -11 62 -34 82 -51 19 -17 38
-31 41 -31 4 0 24 -13 44 -29 47 -36 104 -46 126 -22 25 27 19 49 -16 64 -35
15 -102 58 -128 82 -8 8 -30 27 -47 41 -41 32 -34 50 39 93 95 55 99 60 85
109 -14 52 -36 55 -92 9z"/>
<path d="M7925 7020 c-93 -19 -163 -46 -203 -79 -54 -43 -126 -143 -142 -196
-20 -67 -22 -178 -4 -242 9 -32 19 -72 24 -90 18 -74 153 -217 252 -266 30
-15 68 -41 83 -57 18 -19 39 -30 55 -30 15 0 47 -6 72 -14 27 -8 52 -10 59 -5
8 5 40 9 71 9 238 0 407 311 327 600 -29 104 -81 199 -148 268 -88 89 -128
105 -280 108 -69 2 -144 -1 -166 -6z m282 -122 c70 -20 117 -58 168 -137 57
-89 77 -153 76 -250 -1 -95 -19 -155 -74 -239 -57 -86 -124 -120 -260 -129
l-94 -6 -28 37 c-21 28 -35 36 -59 36 -51 1 -98 31 -168 106 -57 61 -70 82
-89 145 -43 139 -23 247 62 344 52 59 139 94 234 96 33 0 69 4 80 9 25 12 85
7 152 -12z"/>
<path d="M7842 6714 c-12 -8 -22 -26 -22 -39 0 -30 44 -65 81 -65 24 0 178
-37 187 -45 4 -4 -45 -94 -71 -129 -12 -17 -31 -48 -41 -68 -21 -41 -14 -61
26 -71 26 -7 53 21 114 118 72 114 93 165 85 205 -12 66 -20 71 -109 76 -47 2
-94 10 -111 19 -39 19 -110 19 -139 -1z"/>
<path d="M17607 6877 c-22 -13 -52 -45 -68 -73 -28 -46 -29 -53 -23 -124 8
-103 35 -155 92 -180 59 -27 93 -25 155 6 59 30 67 38 60 64 -4 17 -15 18 -95
17 -65 -1 -92 2 -95 11 -3 6 2 12 10 12 27 0 95 74 111 120 28 81 16 124 -44
155 -39 20 -58 19 -103 -8z m89 -101 c-3 -11 -6 -28 -6 -37 0 -14 -65 -69 -82
-69 -12 0 -18 70 -8 90 25 46 108 60 96 16z"/>
<path d="M16903 6842 c-26 -27 -41 -52 -62 -104 -5 -13 -14 -36 -20 -51 -16
-40 -14 -64 11 -119 41 -90 154 -128 245 -82 45 22 53 32 53 61 0 28 -17 38
-36 22 -21 -18 -121 -30 -152 -18 -24 9 -24 10 -7 29 10 11 27 22 38 26 12 4
30 17 40 30 10 13 25 24 32 24 8 0 22 14 31 32 14 27 14 36 3 71 -7 22 -29 55
-48 74 -44 43 -88 45 -128 5z m99 -78 c10 -21 9 -31 -2 -51 -17 -28 -81 -58
-106 -49 -22 9 -9 63 24 99 33 35 69 36 84 1z"/>
<path d="M17155 6823 c-15 -36 -31 -164 -26 -204 8 -58 45 -85 113 -82 54 2
84 21 99 60 12 31 39 19 39 -17 0 -51 12 -90 28 -90 8 0 23 -7 33 -16 20 -18
39 -11 39 13 0 9 -9 42 -19 72 -11 31 -24 82 -30 114 -11 62 -38 127 -52 127
-5 0 -9 -4 -9 -10 0 -5 -7 -10 -15 -10 -9 0 -20 -12 -25 -27 -6 -16 -15 -36
-20 -45 -6 -10 -10 -23 -10 -30 0 -6 -12 -24 -26 -40 -22 -22 -30 -25 -46 -17
-17 9 -20 20 -18 82 4 96 3 103 -16 121 -20 21 -30 20 -39 -1z"/>
<path d="M6715 6780 c-147 -28 -152 -29 -335 -94 -123 -44 -133 -47 -175 -59
-22 -6 -45 -17 -50 -25 -6 -7 -38 -20 -70 -27 -100 -22 -238 -64 -249 -75 -5
-5 -18 -10 -27 -10 -17 0 -88 -36 -99 -50 -3 -4 -31 -18 -63 -33 -61 -27 -73
-43 -63 -80 7 -28 66 -52 93 -39 107 53 165 76 234 93 45 11 118 37 163 59 45
22 88 40 96 40 8 0 27 6 42 14 23 12 87 36 113 42 16 4 76 25 140 49 33 13 96
28 140 35 44 7 89 18 100 24 40 22 361 5 466 -25 70 -20 81 -21 105 -8 38 20
40 36 9 69 -40 42 -190 84 -335 95 -41 3 -100 7 -130 10 -30 2 -77 0 -105 -5z"/>
<path d="M16447 6772 c-21 -23 -22 -51 -3 -77 7 -11 16 -36 18 -55 3 -19 13
-57 23 -85 45 -126 71 -152 111 -114 26 24 54 74 54 94 0 7 7 18 15 25 12 10
15 9 15 -6 0 -11 9 -34 20 -51 15 -26 27 -33 50 -33 25 0 30 4 30 23 0 12 -6
32 -14 43 -8 11 -20 58 -26 103 -14 103 -35 151 -66 151 -19 0 -24 -7 -30 -37
-3 -21 -12 -48 -20 -60 -8 -12 -14 -35 -14 -50 -1 -15 -9 -46 -20 -68 l-19
-40 -16 39 c-9 21 -21 66 -26 100 -19 113 -43 141 -82 98z"/>
<path d="M16228 6752 c-87 -57 -171 -139 -186 -181 -23 -65 -32 -121 -22 -146
11 -28 58 -74 77 -75 31 -1 101 41 123 74 14 20 31 36 38 36 6 0 12 5 12 12 0
7 3 8 9 3 10 -11 18 -59 30 -185 10 -105 22 -136 55 -142 28 -6 39 4 80 70 65
105 68 111 54 148 -17 48 -42 42 -73 -18 -24 -47 -35 -22 -64 147 -7 39 -16
99 -21 135 -11 81 -24 116 -49 129 -26 14 -31 14 -63 -7z m33 -138 c6 -37 4
-43 -47 -100 -78 -89 -140 -97 -115 -14 12 42 125 164 146 157 5 -2 13 -21 16
-43z"/>
<path d="M9842 6713 c-5 -10 -13 -36 -19 -58 -25 -90 -74 -241 -82 -254 -8
-12 -17 -11 -58 6 -26 12 -91 29 -143 38 -52 9 -120 23 -150 31 -30 8 -134 26
-230 39 -253 36 -286 41 -375 65 -88 23 -139 20 -155 -10 -7 -13 -5 -23 8 -37
24 -27 133 -61 217 -68 38 -3 74 -10 79 -15 6 -6 23 -10 38 -10 15 0 47 -4 70
-10 24 -5 113 -19 198 -30 85 -11 173 -25 195 -30 22 -5 84 -19 137 -30 132
-30 133 -31 114 -104 -9 -32 -30 -89 -47 -128 -36 -77 -34 -84 27 -98 30 -7
45 -5 63 6 34 23 130 35 266 34 101 -1 134 3 205 24 47 14 93 26 103 26 24 0
22 44 -3 80 -11 15 -24 39 -29 53 -14 37 -77 125 -132 182 -55 59 -127 161
-158 228 -13 26 -27 47 -33 47 -5 0 -21 9 -35 20 -32 25 -60 26 -71 3z"/>
<path d="M1353 6640 c-18 -4 -64 -8 -103 -9 -38 -1 -80 -5 -92 -10 -13 -4 -32
-5 -42 -1 -24 8 -139 -9 -147 -22 -4 -5 -35 -12 -70 -14 -72 -4 -84 -6 -156
-27 -90 -27 -123 -59 -102 -99 15 -28 18 -189 8 -373 -5 -82 -11 -199 -14
-260 -3 -60 -10 -137 -15 -170 -6 -33 -10 -91 -10 -129 0 -39 -4 -95 -10 -125
-17 -100 -34 -254 -37 -331 -1 -41 -5 -120 -8 -175 -2 -55 -7 -154 -10 -220
-3 -66 -6 -127 -7 -135 -1 -8 2 -46 7 -85 4 -38 9 -135 10 -215 2 -80 8 -176
13 -214 7 -44 8 -76 1 -87 -24 -46 -34 -149 -29 -314 5 -186 16 -223 69 -244
30 -12 645 -26 906 -21 55 1 116 -1 135 -5 79 -15 447 -22 670 -11 176 9 174
9 235 2 75 -7 339 -16 684 -21 189 -3 349 -9 354 -12 20 -12 480 -10 667 3
107 8 326 16 485 19 160 3 362 7 449 10 181 6 185 8 186 85 1 25 2 74 3 110 2
64 -6 373 -18 660 -3 80 -8 203 -10 273 -3 71 -7 132 -9 135 -2 4 -7 124 -11
267 -4 143 -9 263 -11 267 -3 4 -7 108 -9 230 -5 258 -17 430 -46 648 -32 237
-55 357 -73 385 l-16 25 -183 0 c-100 0 -198 2 -217 4 -19 2 -82 7 -140 11
-58 3 -157 13 -221 21 -64 8 -169 17 -235 19 -65 3 -135 10 -154 15 -19 5
-116 12 -215 15 -99 3 -234 12 -300 20 -66 7 -187 16 -270 20 -82 3 -177 9
-210 14 -33 6 -123 12 -200 15 -77 3 -214 9 -305 12 -191 8 -184 8 -230 4 -19
-2 -66 0 -105 4 -63 6 -513 37 -575 38 -14 1 -65 0 -115 -2 -49 -2 -97 -1
-105 2 -8 3 -30 2 -47 -2z m487 -145 c63 -2 131 -7 150 -12 19 -4 78 -8 130
-9 52 0 190 -7 305 -14 116 -7 275 -14 355 -16 80 -2 181 -6 225 -8 44 -2 145
-7 225 -10 80 -3 210 -12 290 -20 80 -7 159 -13 175 -13 17 1 102 -4 190 -11
88 -6 208 -14 266 -17 58 -2 117 -9 131 -14 14 -5 49 -9 79 -9 30 0 88 -5 129
-11 41 -6 98 -11 125 -11 98 2 506 -8 510 -12 2 -2 6 -15 8 -28 3 -14 8 -36
11 -50 3 -14 8 -53 11 -88 3 -35 10 -96 15 -135 20 -146 39 -440 45 -715 4
-156 8 -293 10 -305 2 -12 7 -87 10 -167 4 -80 9 -170 11 -200 3 -30 5 -111 4
-180 0 -69 4 -242 10 -385 17 -441 20 -574 12 -578 -21 -13 -136 -19 -407 -22
-350 -4 -587 -12 -700 -25 -73 -8 -305 -6 -450 4 -33 3 -177 8 -320 11 -143 3
-354 9 -470 12 -115 3 -365 7 -555 9 -873 10 -1103 15 -1205 24 -60 5 -197 12
-304 15 -107 3 -195 6 -197 7 -1 2 -5 54 -8 116 l-6 112 26 10 c26 10 27 12
21 73 -3 34 -11 91 -16 127 -34 212 -34 767 -1 1190 5 69 12 158 15 199 3 41
8 91 11 110 9 59 20 227 29 441 2 63 9 167 15 230 6 63 8 154 4 202 -7 104
-15 96 141 129 136 28 203 37 315 40 52 2 106 6 120 10 22 6 176 4 510 -6z"/>
<path d="M1063 6142 c-25 -16 -33 -69 -33 -240 -1 -97 -8 -226 -15 -287 -8
-60 -15 -129 -15 -151 0 -38 2 -42 31 -48 17 -3 35 -6 40 -6 33 0 52 173 59
520 0 45 0 45 64 -85 55 -112 70 -134 106 -158 48 -31 71 -33 109 -11 36 22
116 139 166 243 9 18 19 30 22 27 9 -9 22 -106 34 -251 5 -71 13 -176 18 -233
8 -110 20 -137 47 -110 41 41 44 202 10 543 -6 58 -25 132 -51 195 -26 64 -57
79 -77 36 -6 -14 -15 -26 -19 -26 -4 0 -10 -11 -13 -25 -4 -14 -11 -25 -16
-25 -6 0 -10 -6 -10 -13 0 -47 -136 -257 -166 -257 -13 0 -85 105 -133 193
-17 32 -49 84 -71 117 -39 57 -59 70 -87 52z"/>
<path d="M3227 6051 c-22 -38 -22 -90 2 -184 12 -45 26 -161 35 -282 13 -166
20 -213 36 -245 27 -52 56 -54 66 -5 10 57 -4 250 -46 610 -15 129 -53 173
-93 106z"/>
<path d="M3904 5975 c-3 -14 -2 -69 3 -121 5 -52 6 -99 2 -105 -4 -6 -34 -8
-81 -3 l-75 7 -12 -34 c-11 -31 -10 -36 14 -55 14 -11 59 -28 99 -38 l73 -17
-5 -52 c-2 -29 -10 -90 -16 -136 -14 -96 -7 -111 48 -111 44 0 52 20 67 169
l13 121 35 9 c59 15 126 21 139 12 9 -5 15 -44 18 -117 7 -139 9 -150 38 -170
37 -24 62 -5 83 64 25 82 51 113 96 118 70 8 118 -54 132 -170 11 -83 62 -152
86 -115 5 8 9 48 9 89 0 127 -46 228 -133 291 -49 36 -101 38 -164 7 -50 -25
-63 -18 -63 38 0 17 -9 73 -20 125 -12 52 -24 107 -27 122 -8 38 -49 70 -73
57 -31 -16 -32 -46 -9 -138 26 -102 23 -127 -16 -112 -15 6 -41 10 -60 10 -71
0 -79 9 -98 111 -21 113 -44 163 -74 167 -17 3 -24 -3 -29 -23z"/>
<path d="M3470 5911 c-5 -11 -10 -29 -10 -40 0 -24 45 -61 76 -61 20 0 22 5
22 45 0 35 -5 48 -21 60 -29 20 -54 19 -67 -4z"/>
<path d="M2373 5702 c-18 -9 -33 -23 -33 -31 0 -9 -7 -11 -21 -8 -24 6 -59
-24 -59 -50 0 -10 5 -36 10 -58 6 -22 16 -83 25 -135 12 -83 18 -98 42 -117
60 -49 83 -17 65 90 -17 106 2 208 42 223 25 10 63 -14 75 -48 7 -18 17 -41
23 -51 5 -11 15 -66 22 -123 10 -81 17 -108 32 -119 27 -20 37 -14 52 31 36
104 -43 328 -137 391 -40 27 -92 29 -138 5z"/>
<path d="M1940 5657 c-30 -24 -67 -83 -83 -130 -15 -43 -15 -55 -2 -109 12
-55 35 -87 60 -88 6 0 23 -14 38 -30 35 -36 63 -44 123 -35 55 8 117 64 127
115 10 49 8 115 -4 147 -12 34 -74 99 -111 119 -38 20 -129 27 -148 11z m145
-122 c17 -17 25 -35 25 -60 0 -48 -13 -70 -61 -105 -48 -34 -73 -30 -64 10 4
20 0 35 -20 58 -31 37 -26 72 12 102 35 27 78 26 108 -5z"/>
<path d="M3513 5638 c-33 -36 -11 -238 29 -271 25 -21 38 -12 46 35 9 49 2
220 -9 234 -18 22 -47 22 -66 2z"/>
<path d="M2806 5552 c-51 -55 -53 -57 -61 -114 -7 -45 -5 -50 25 -78 18 -17
43 -33 56 -36 13 -3 24 -10 24 -14 0 -12 59 -30 98 -30 30 0 44 8 82 49 97
100 66 210 -71 254 -76 25 -106 19 -153 -31z m152 -63 c60 -21 47 -70 -30
-110 -49 -25 -52 -25 -71 16 -24 50 -22 60 16 83 38 24 45 25 85 11z"/>
<path d="M21017 6328 c-16 -20 -18 -34 -13 -98 4 -41 11 -105 18 -142 14 -84
8 -102 -34 -96 -45 7 -104 -34 -129 -92 l-20 -45 21 -45 c17 -36 30 -49 63
-63 23 -9 51 -17 62 -17 21 0 135 65 147 84 8 12 37 -19 38 -40 0 -18 53 -61
95 -78 45 -19 76 -15 147 21 54 27 94 79 77 99 -12 14 -23 12 -93 -22 -28 -13
-62 -24 -76 -24 -26 0 -70 25 -70 39 0 4 29 20 65 36 69 29 125 83 125 120 0
56 -84 126 -144 120 -40 -5 -71 -38 -112 -122 -20 -41 -46 -79 -58 -85 -11 -6
-30 -21 -41 -33 -24 -28 -101 -48 -127 -34 -32 17 -41 47 -23 76 15 22 22 25
78 22 91 -3 100 3 92 63 -4 27 -14 72 -22 101 -8 29 -15 101 -16 162 -2 89 -5
110 -17 112 -8 2 -23 -7 -33 -19z m325 -345 c31 -28 17 -53 -30 -53 -9 0 -29
-7 -44 -14 -31 -16 -33 -11 -18 31 19 51 58 67 92 36z"/>
<path d="M14350 6288 c-58 -3 -132 -11 -164 -17 -32 -6 -63 -8 -68 -5 -20 12
-1302 1 -1383 -12 -22 -4 -139 -7 -260 -8 -121 -1 -258 -6 -305 -11 -116 -14
-619 -11 -760 4 -152 16 -415 17 -515 3 -116 -16 -258 -32 -291 -32 -15 0 -54
-8 -86 -17 -69 -21 -80 -40 -78 -134 1 -35 -1 -102 -4 -149 -11 -163 -18 -367
-22 -675 -9 -563 -7 -731 11 -925 4 -41 7 -84 7 -95 -4 -108 -2 -164 7 -187 7
-19 7 -28 -1 -30 -14 -5 -18 -278 -5 -330 7 -24 6 -47 -2 -69 -14 -41 2 -68
63 -104 42 -24 47 -25 126 -16 45 5 94 8 109 6 14 -2 58 1 96 5 39 5 156 12
260 15 105 3 232 11 283 16 105 12 386 4 582 -15 87 -9 157 -10 230 -3 200 17
374 10 812 -34 110 -11 139 -11 215 3 49 8 108 14 133 12 25 -1 104 -5 175 -7
72 -3 141 -8 155 -11 24 -6 308 -16 555 -19 66 -1 165 4 220 10 55 7 123 15
150 19 28 3 73 11 100 19 28 8 70 16 95 19 25 2 72 9 105 15 33 5 89 13 125
16 36 4 88 11 115 15 28 4 54 6 58 3 5 -3 61 -5 125 -5 64 0 124 -4 132 -8 9
-5 67 -16 130 -25 88 -13 122 -14 144 -5 l29 11 -8 72 c-9 76 -9 120 -5 362 2
83 0 227 -4 320 -12 243 -9 752 5 832 6 37 13 113 14 168 6 164 15 315 25 400
25 207 15 428 -23 505 -22 45 -22 45 -72 43 -118 -4 -195 -2 -275 8 -47 6
-134 11 -195 11 -77 1 -132 7 -185 21 -65 18 -107 20 -325 21 -137 1 -297 -2
-355 -6z m585 -117 c28 -5 68 -10 90 -10 22 0 51 -5 65 -10 25 -9 224 -19 470
-24 l125 -2 11 -66 c13 -80 11 -227 -5 -369 -7 -58 -17 -186 -22 -285 -5 -99
-14 -216 -19 -260 -18 -146 -22 -454 -9 -720 7 -143 12 -267 12 -275 -1 -8 -2
-129 -3 -267 -1 -147 -5 -253 -11 -253 -5 0 -77 7 -161 16 -145 15 -212 15
-478 0 -61 -3 -162 -21 -255 -45 -22 -6 -57 -11 -78 -11 -21 0 -48 -5 -60 -11
-37 -21 -233 -27 -647 -22 -58 1 -123 1 -145 1 -22 -1 -92 4 -155 11 -136 13
-473 15 -498 3 -25 -13 -165 -15 -209 -3 -116 30 -578 49 -738 31 -100 -12
-185 -8 -395 21 -98 13 -385 12 -568 -1 -80 -6 -170 -10 -201 -9 -76 2 -427
-20 -470 -30 -50 -10 -87 0 -83 25 4 25 1 690 -4 769 -10 182 -2 931 12 1140
8 127 16 304 18 395 l2 165 24 3 c14 2 30 8 36 13 6 5 40 9 75 8 35 -1 84 3
109 9 25 6 74 11 109 11 36 0 67 5 71 10 3 6 64 8 154 6 82 -3 154 -1 160 4
19 14 158 -2 223 -26 43 -16 118 -12 154 8 12 6 21 4 29 -6 10 -12 46 -14 219
-11 113 2 253 10 311 17 58 7 175 13 260 14 283 3 394 7 469 16 73 9 136 10
336 9 55 0 179 0 275 2 96 1 207 1 245 0 39 -1 79 -2 90 -2 11 0 61 -1 110 -1
50 0 98 2 108 6 9 4 23 5 30 2 7 -3 71 1 142 7 146 13 593 11 670 -3z"/>
<path d="M14663 5908 c3 -13 15 -56 26 -96 22 -84 31 -196 15 -212 -7 -7 -25
-7 -60 1 -102 22 -104 22 -124 4 -54 -49 14 -94 175 -118 18 -2 20 -9 18 -67
-1 -36 -10 -97 -19 -137 -19 -82 -15 -100 21 -109 37 -9 53 11 66 82 16 94 29
206 24 215 -9 13 13 20 97 32 88 13 113 31 92 65 -8 13 -31 19 -92 24 -45 4
-86 9 -91 12 -8 5 -23 55 -26 86 -4 52 -30 152 -48 190 -18 36 -28 46 -51 48
-26 3 -28 1 -23 -20z"/>
<path d="M12714 5793 c-6 -21 -2 -31 21 -50 27 -24 38 -52 54 -148 8 -48 -2
-95 -20 -95 -5 0 -13 -9 -19 -19 -8 -16 -5 -26 15 -49 22 -26 25 -39 24 -103
0 -41 -3 -94 -7 -119 -10 -61 -4 -88 20 -101 30 -16 45 5 53 75 9 95 15 95 75
7 21 -32 54 -68 72 -79 18 -12 43 -29 56 -38 20 -15 25 -15 33 -3 16 25 10 39
-39 92 -72 78 -110 130 -143 196 -25 49 -28 64 -19 81 8 16 18 20 39 17 38 -6
140 58 175 109 60 89 15 145 -174 212 -54 19 -160 42 -193 42 -10 0 -19 -11
-23 -27z m294 -140 c58 -22 56 -36 -10 -86 -49 -37 -117 -61 -123 -44 -7 24
-16 157 -11 166 6 9 63 -5 144 -36z"/>
<path d="M11952 5676 c-82 -29 -143 -75 -210 -158 l-54 -68 -27 19 c-14 11
-56 48 -94 83 -76 71 -119 88 -282 107 -138 16 -185 -3 -203 -85 -9 -42 15
-161 55 -267 20 -54 13 -67 -39 -67 -15 0 -39 -5 -55 -11 -15 -6 -55 -18 -88
-25 -68 -16 -185 -73 -185 -89 0 -6 -8 -29 -19 -51 -10 -21 -22 -71 -26 -109
-12 -124 37 -227 140 -293 63 -41 129 -72 145 -70 8 1 25 -3 36 -10 12 -6 37
-13 55 -14 19 -2 55 -12 81 -22 l46 -18 -13 -42 c-17 -53 -57 -158 -83 -218
-37 -83 -42 -118 -31 -188 13 -80 29 -106 82 -131 66 -29 175 -20 281 25 38
16 127 100 236 223 30 35 60 63 65 63 12 0 59 -70 52 -77 -3 -2 -17 3 -31 12
-23 15 -26 15 -26 2 0 -26 20 -71 43 -96 12 -13 67 -46 122 -73 96 -47 103
-49 172 -46 80 4 99 15 140 85 l25 43 -12 127 c-6 71 -18 161 -27 201 -8 40
-13 76 -10 79 4 3 38 16 76 28 39 13 86 36 106 51 39 30 95 108 120 168 21 49
21 160 0 209 -34 81 -140 168 -223 183 -58 10 -58 12 -48 120 20 205 -25 352
-124 402 -54 27 -86 27 -168 -2z m145 -88 c29 -11 36 -20 53 -76 11 -35 20
-87 19 -116 0 -55 -22 -202 -31 -211 -3 -3 -16 -1 -30 4 -14 5 -71 9 -126 8
-65 0 -106 4 -115 11 -30 25 -97 155 -91 175 12 39 67 105 110 132 24 15 44
31 44 35 0 7 66 34 105 43 11 3 22 5 24 6 3 0 20 -4 38 -11z m-742 -38 c93
-11 104 -14 153 -51 28 -22 52 -43 52 -48 0 -5 16 -19 35 -32 19 -13 38 -32
41 -42 3 -10 -9 -48 -28 -87 l-33 -70 -146 4 c-81 2 -155 8 -165 14 -26 15
-94 218 -94 283 0 45 7 52 50 46 19 -3 80 -11 135 -17z m387 -282 c8 -13 18
-33 22 -45 7 -21 4 -23 -28 -23 -44 0 -51 11 -35 55 15 41 22 43 41 13z m-521
-160 c6 -13 35 -59 64 -103 29 -44 63 -98 75 -121 l23 -40 -53 -108 c-30 -59
-57 -109 -60 -111 -4 -2 -42 7 -86 20 -43 13 -110 30 -147 39 -162 37 -227
108 -227 251 0 68 20 98 87 130 32 15 66 31 75 36 10 5 32 9 50 10 18 0 42 4
53 9 11 5 46 9 77 9 50 1 59 -2 69 -21z m276 -2 c3 -3 -4 -29 -16 -58 -46
-111 -54 -117 -83 -70 -9 15 -30 50 -47 77 -17 28 -31 53 -31 57 0 7 169 2
177 -6z m223 -8 c14 0 48 -5 75 -10 43 -8 55 -15 85 -56 58 -77 112 -183 106
-207 -3 -12 -21 -47 -39 -78 -19 -31 -40 -70 -46 -86 -11 -25 -20 -30 -69 -38
-31 -5 -88 -9 -126 -9 l-69 1 -64 89 c-36 49 -69 100 -73 112 -7 18 1 44 36
116 83 173 92 184 134 173 14 -4 36 -7 50 -7z m373 -27 c13 -13 -33 -125 -53
-129 -10 -1 -28 24 -51 67 l-36 70 31 4 c45 6 96 1 109 -12z m209 -22 c9 -5
28 -9 41 -9 33 0 103 -78 111 -124 7 -38 -7 -113 -28 -155 -27 -50 -93 -104
-150 -122 -77 -23 -99 -17 -115 34 -7 23 -18 56 -26 72 -34 80 -36 90 -22 120
8 17 29 64 48 105 18 41 37 80 42 87 9 12 68 7 99 -8z m-812 -356 c17 -26 29
-54 28 -62 -6 -28 -114 -43 -124 -17 -6 16 44 126 57 126 5 0 23 -21 39 -47z
m586 -23 c7 -24 12 -45 11 -46 -1 -2 -21 0 -45 3 -34 5 -42 10 -42 26 0 23 39
69 53 64 6 -2 16 -23 23 -47z m-436 -221 c49 -64 61 -85 56 -105 -7 -27 -100
-139 -189 -226 -43 -43 -66 -58 -87 -58 -15 0 -56 -9 -90 -20 -34 -11 -73 -20
-86 -20 -33 0 -64 34 -64 69 0 16 14 67 31 113 17 46 35 97 39 113 16 59 54
154 72 181 5 7 27 8 65 3 44 -6 73 -3 123 11 36 10 66 18 67 19 1 1 30 -35 63
-80z m470 64 c22 -22 50 -141 60 -258 l12 -130 -38 -32 c-35 -31 -41 -33 -88
-27 -28 4 -57 11 -64 17 -17 13 -68 89 -94 140 -11 23 -34 58 -49 77 -16 19
-29 40 -29 47 0 13 34 68 69 115 12 14 21 30 21 35 0 5 4 13 10 19 12 12 179
10 190 -3z m-312 -2 c10 -6 9 -15 -8 -44 -12 -21 -26 -37 -30 -37 -13 0 -60
60 -60 76 0 16 75 20 98 5z"/>
<path d="M11679 4982 c-39 -23 -50 -46 -59 -126 -6 -59 -5 -76 9 -101 14 -25
24 -31 61 -33 25 -2 69 2 98 9 45 11 59 20 88 57 46 61 47 106 2 149 -66 62
-143 80 -199 45z"/>
<path d="M13293 5530 c-23 -9 -93 -105 -93 -128 0 -7 -11 -30 -25 -53 -23 -35
-24 -43 -13 -63 24 -43 87 -121 107 -134 99 -60 260 -55 305 10 26 37 12 43
-98 43 -70 0 -112 5 -129 14 -35 19 -34 25 6 43 17 9 54 27 82 39 53 26 70 57
52 94 -13 26 -106 119 -134 133 -25 14 -30 14 -60 2z m75 -106 c25 -17 29 -49
7 -58 -29 -11 -115 -18 -115 -10 0 20 52 84 68 84 10 0 28 -7 40 -16z"/>
<path d="M13912 5510 c-109 -26 -179 -84 -221 -182 -34 -80 -36 -107 -9 -135
42 -45 92 -64 151 -57 46 6 58 13 100 56 26 28 47 57 47 65 0 24 23 9 34 -23
31 -87 96 -146 136 -124 27 14 25 23 -9 63 -32 35 -116 222 -135 297 -12 49
-28 56 -94 40z m31 -146 c1 -38 -5 -58 -27 -91 -26 -37 -34 -42 -84 -51 -31
-5 -62 -8 -68 -5 -55 21 19 147 110 189 29 13 54 20 59 15 5 -5 9 -31 10 -57z"/>
<path d="M14358 5441 c-78 -43 -118 -110 -118 -197 0 -137 96 -215 205 -169
35 14 125 97 125 114 0 5 -6 14 -14 20 -10 9 -28 4 -80 -24 -112 -59 -151 -47
-151 44 1 78 21 106 108 148 70 34 79 49 49 76 -24 22 -69 18 -124 -12z"/>
<path d="M12785 4682 c-75 -28 -113 -56 -125 -93 -12 -36 -11 -41 13 -78 23
-34 52 -58 128 -106 60 -37 128 -86 152 -108 39 -38 35 -61 -16 -86 -56 -27
-131 -27 -193 -1 -26 12 -67 24 -91 27 -38 5 -43 4 -43 -14 0 -27 30 -52 97
-80 88 -37 113 -43 176 -39 67 4 128 39 160 93 15 26 16 38 8 70 -13 46 -38
71 -146 142 -178 119 -204 148 -147 169 67 26 102 31 185 27 87 -5 87 -5 87
20 0 40 -38 57 -138 61 -48 2 -96 0 -107 -4z"/>
<path d="M14306 4514 c-22 -21 -20 -29 10 -53 31 -25 64 -13 64 22 0 44 -43
62 -74 31z"/>
<path d="M14974 4479 c-18 -5 -39 -20 -47 -33 -9 -13 -22 -29 -29 -37 -36 -37
-68 -88 -68 -109 0 -48 127 -207 190 -240 79 -40 220 -49 265 -16 22 16 12 54
-18 65 -12 5 -49 4 -82 -1 -47 -7 -69 -5 -96 6 -34 14 -119 96 -119 114 0 5
18 12 40 15 49 6 90 35 135 94 54 70 45 103 -38 138 -40 17 -85 18 -133 4z
m106 -89 c0 -16 -81 -70 -107 -70 -61 0 16 77 80 79 15 1 27 -3 27 -9z"/>
<path d="M13151 4441 c-17 -21 -31 -48 -31 -60 0 -12 -4 -21 -8 -21 -14 0 -32
-72 -32 -124 0 -71 23 -105 118 -170 38 -26 47 -28 116 -24 80 4 72 -1 170 93
34 34 44 50 36 55 -15 9 -70 -8 -85 -26 -13 -16 -67 -27 -138 -27 -43 -1 -64
4 -85 20 -31 23 -41 53 -18 53 14 0 66 20 108 41 128 65 138 72 138 100 0 21
-11 37 -43 63 -57 47 -105 66 -166 66 -45 0 -52 -3 -80 -39z m157 -57 c12 -8
22 -19 22 -24 0 -4 -30 -18 -67 -31 -38 -12 -74 -24 -80 -27 -18 -6 -16 23 2
38 8 7 15 21 15 31 0 17 14 22 70 28 9 0 26 -6 38 -15z"/>
<path d="M13662 4438 c-39 -24 -59 -60 -68 -119 -4 -24 -10 -51 -15 -59 -13
-27 12 -111 37 -122 43 -20 51 -7 57 98 5 86 8 100 31 122 20 21 34 25 71 24
38 -2 46 1 43 14 -9 50 -104 75 -156 42z"/>
<path d="M14630 4429 c-42 -17 -129 -88 -145 -119 -21 -40 -20 -148 2 -180 56
-84 108 -105 190 -74 107 39 153 80 153 134 0 26 -20 25 -78 -4 -82 -41 -148
-59 -171 -46 -18 9 -21 20 -21 69 0 50 4 62 31 95 23 26 47 41 84 52 59 17 71
32 49 63 -16 23 -52 27 -94 10z"/>
<path d="M13897 4423 c-11 -11 -8 -53 12 -153 24 -119 34 -144 63 -164 56 -39
90 -16 180 119 58 88 64 109 44 140 -23 35 -47 31 -75 -13 -44 -67 -92 -122
-106 -122 -16 0 -19 10 -36 100 -6 36 -16 73 -21 83 -9 17 -48 24 -61 10z"/>
<path d="M14281 4341 c-6 -10 -13 -59 -16 -109 -6 -86 -5 -91 17 -106 28 -20
54 -21 62 -1 3 8 6 60 7 116 1 76 -2 103 -12 110 -23 14 -48 10 -58 -10z"/>
<path d="M19145 6268 c-11 -6 -23 -16 -27 -22 -10 -16 1 -152 18 -214 18 -65
10 -84 -47 -102 -32 -11 -49 -25 -71 -59 -34 -54 -35 -81 -5 -117 18 -21 37
-29 82 -35 53 -7 65 -5 115 19 39 19 56 33 58 50 2 12 -2 22 -9 22 -8 0 -10
11 -6 34 3 20 0 42 -7 52 -20 30 -34 100 -47 236 -6 70 -17 132 -23 137 -7 6
-19 5 -31 -1z m20 -432 c30 -22 13 -43 -35 -43 -45 0 -61 17 -40 42 16 19 50
19 75 1z"/>
<path d="M22280 6261 c-5 -11 -10 -42 -10 -69 0 -89 -11 -142 -30 -142 -38 0
-116 -31 -128 -50 -22 -36 0 -50 75 -50 l65 0 -7 -57 c-4 -31 -11 -67 -16 -80
-9 -24 4 -73 19 -73 26 0 53 52 70 136 l19 89 49 8 c29 4 56 16 66 27 9 11 19
20 22 20 12 0 6 -83 -11 -152 -16 -68 -16 -69 4 -90 34 -33 48 -17 66 72 24
124 63 151 125 87 30 -31 33 -39 31 -93 -1 -39 4 -71 15 -92 18 -35 28 -39 46
-18 14 18 0 160 -22 219 -21 55 -72 90 -123 83 -22 -3 -46 -2 -53 3 -8 5 -13
41 -14 110 -2 113 -13 145 -43 121 -14 -12 -16 -28 -11 -112 6 -121 3 -135
-30 -113 -13 8 -39 15 -57 15 -19 0 -39 6 -45 13 -6 7 -13 47 -16 89 -7 100
-32 144 -56 99z"/>
<path d="M18847 6163 c-11 -11 -8 -48 5 -61 7 -7 25 -12 40 -12 23 0 28 4 28
24 0 35 -53 70 -73 49z"/>
<path d="M21725 6100 c-3 -5 -18 -10 -32 -10 -19 0 -39 -14 -69 -45 -36 -39
-46 -45 -69 -39 -18 5 -30 2 -36 -7 -14 -22 -10 -59 6 -65 9 -4 15 -19 15 -39
0 -19 4 -36 9 -39 5 -4 12 -25 16 -49 11 -66 32 -81 70 -53 16 12 18 25 16
104 -3 131 21 162 134 172 53 4 60 8 63 28 3 18 -4 26 -32 37 -41 17 -82 19
-91 5z"/>
<path d="M20140 6078 c-47 -13 -94 -50 -109 -85 -6 -16 -28 -37 -47 -48 -38
-20 -40 -36 -8 -99 8 -16 14 -46 14 -67 0 -36 28 -79 52 -79 17 0 28 42 29
107 0 37 8 90 17 118 14 42 24 53 61 73 24 12 51 20 60 17 9 -2 28 -1 44 3
l27 7 -29 33 c-32 34 -51 37 -111 20z"/>
<path d="M20347 6059 c-21 -12 -59 -94 -56 -118 2 -9 -1 -34 -5 -57 -22 -122
97 -207 240 -172 47 12 60 19 62 36 4 25 -10 29 -112 35 -53 2 -72 7 -82 22
-8 10 -14 22 -14 27 0 4 27 21 60 38 69 35 84 56 74 107 -10 52 -58 92 -109
92 -22 0 -48 -4 -58 -10z m93 -89 c0 -10 -59 -34 -66 -27 -3 3 -3 14 0 24 5
15 13 18 36 15 17 -2 30 -8 30 -12z"/>
<path d="M18455 6038 c-39 -21 -65 -53 -65 -84 0 -33 55 -100 107 -130 55 -32
113 -76 113 -86 0 -10 -57 -26 -117 -34 -33 -4 -59 -14 -70 -26 -17 -19 -17
-21 6 -39 35 -28 123 -26 189 6 54 26 65 40 75 92 6 28 3 35 -21 47 -15 8 -38
26 -51 40 -14 14 -30 26 -37 26 -6 0 -28 16 -47 35 -19 19 -42 35 -50 35 -17
0 -28 22 -19 37 4 5 42 16 84 23 80 14 98 29 73 63 -16 22 -122 19 -170 -5z"/>
<path d="M20667 6039 c-15 -11 -31 -37 -37 -58 -6 -25 -17 -41 -30 -44 -24 -6
-26 -32 -6 -84 8 -21 17 -51 21 -68 23 -105 92 -95 74 10 -9 56 -1 155 13 155
5 0 13 -12 18 -27 6 -16 14 -37 19 -48 5 -11 16 -51 25 -89 17 -75 27 -88 66
-84 31 4 38 36 17 87 -8 20 -22 63 -32 96 -18 62 -23 75 -56 138 -22 43 -52
49 -92 16z"/>
<path d="M23208 6014 c-51 -38 -68 -65 -68 -110 0 -37 5 -46 51 -88 28 -25 59
-46 68 -46 21 0 51 -30 51 -52 0 -10 -16 -20 -46 -27 -41 -10 -51 -9 -86 8
-38 18 -42 19 -65 4 -22 -15 -25 -14 -44 6 -22 23 -35 26 -44 11 -3 -5 -21
-10 -40 -10 -19 0 -37 5 -40 10 -3 6 -15 10 -25 10 -19 0 -50 35 -50 55 0 6
31 24 70 41 95 40 104 48 104 90 0 30 -8 44 -43 76 -37 35 -47 39 -74 34 -43
-8 -97 -67 -97 -106 0 -16 -4 -30 -9 -30 -12 0 -24 -57 -22 -105 4 -96 51
-139 151 -139 42 0 77 6 98 18 l33 17 33 -36 c26 -28 42 -35 72 -36 22 -1 44
0 49 1 6 2 29 7 51 13 75 18 98 97 43 148 -17 16 -35 29 -41 29 -13 0 -77 71
-84 93 -8 26 12 45 55 53 43 8 61 21 61 44 0 45 -64 59 -112 24z m-243 -80
c14 -15 14 -17 -2 -30 -22 -17 -73 -18 -73 -2 0 16 30 48 46 48 7 0 20 -7 29
-16z"/>
<path d="M19450 6005 c-14 -8 -34 -19 -45 -25 -52 -28 -124 -200 -84 -200 7 0
38 -29 71 -64 68 -75 109 -94 163 -76 41 14 88 70 79 94 -8 20 -15 20 -40 1
-34 -25 -71 -18 -115 23 l-40 37 50 38 c28 20 55 37 61 37 16 0 50 62 50 92 0
16 -9 33 -22 42 -28 20 -95 20 -128 1z m25 -105 c-16 -16 -35 -30 -42 -30 -39
0 17 59 56 60 10 0 4 -11 -14 -30z"/>
<path d="M23444 5978 c-52 -45 -74 -104 -74 -192 0 -65 3 -78 29 -113 32 -44
83 -73 131 -73 41 0 180 47 202 69 12 12 14 22 7 39 -10 27 -33 28 -79 4 -72
-39 -172 -36 -178 4 -2 15 11 29 46 52 28 18 55 32 61 32 5 0 15 9 21 20 6 11
17 20 26 20 16 0 34 38 34 72 0 12 -18 38 -40 60 -37 34 -46 38 -95 38 -47 0
-59 -4 -91 -32z m140 -59 c19 -28 8 -46 -57 -85 -61 -37 -93 -48 -101 -36 -3
5 2 33 12 63 19 59 44 79 99 79 21 0 37 -7 47 -21z"/>
<path d="M17553 5982 c-46 -14 -132 -172 -133 -243 0 -33 50 -97 98 -126 66
-41 196 -25 209 25 9 36 -7 45 -58 32 -38 -10 -51 -8 -89 8 -25 11 -51 26 -59
35 -11 14 -9 17 16 22 77 17 112 31 143 57 30 24 34 33 31 70 -3 56 -26 92
-71 112 -39 17 -52 18 -87 8z m74 -84 c6 -7 13 -27 16 -44 6 -29 4 -32 -25
-38 -17 -3 -46 -6 -65 -6 -33 0 -35 2 -29 28 13 52 79 91 103 60z"/>
<path d="M17902 5930 c-29 -27 -56 -50 -61 -50 -5 0 -11 -7 -15 -15 -3 -8 -12
-15 -21 -15 -21 0 -19 -24 8 -100 28 -80 32 -86 57 -93 30 -8 44 26 46 108 1
63 4 74 30 101 16 17 41 34 57 38 29 7 34 24 17 57 -19 35 -60 24 -118 -31z"/>
<path d="M16944 5885 c-18 -8 -42 -30 -54 -50 -17 -28 -26 -34 -44 -29 -17 4
-25 -1 -34 -21 -8 -16 -9 -33 -3 -43 4 -9 12 -37 16 -62 4 -25 17 -63 29 -85
17 -33 26 -40 51 -40 l30 0 5 115 c6 146 13 157 93 162 l60 3 26 -40 c14 -22
43 -75 64 -118 38 -77 39 -78 74 -75 33 3 37 7 49 48 8 25 19 74 25 110 6 36
18 73 26 82 20 22 1 58 -30 57 -35 0 -65 -48 -70 -109 -5 -61 -21 -75 -38 -33
-53 125 -77 159 -101 135 -6 -6 -21 -7 -41 -1 -44 12 -96 10 -133 -6z"/>
<path d="M18876 5867 c-11 -8 -16 -19 -12 -25 4 -6 -2 -20 -14 -32 -28 -28
-24 -61 12 -89 28 -23 32 -23 43 -8 15 20 14 159 0 164 -6 2 -19 -3 -29 -10z"/>
<path d="M16258 5851 c-26 -7 -93 -41 -110 -54 -10 -8 -18 -22 -18 -31 0 -19
66 -86 120 -121 19 -12 44 -32 54 -44 19 -20 19 -23 3 -39 -14 -13 -34 -17
-96 -16 -73 1 -80 0 -91 -22 -17 -30 -2 -50 49 -64 87 -24 206 5 230 56 28 62
-4 113 -116 188 -65 43 -56 58 35 57 31 0 61 4 68 9 13 12 7 55 -10 69 -12 10
-97 19 -118 12z"/>
<path d="M16555 5836 c-37 -17 -93 -84 -99 -122 -3 -16 -8 -41 -11 -55 -5 -22
2 -35 42 -76 43 -44 54 -50 103 -56 30 -4 64 -5 75 -2 11 2 32 6 47 9 32 7 88
52 88 72 0 11 -10 14 -40 10 -22 -3 -45 -8 -50 -11 -16 -10 -80 6 -80 20 0 6
11 17 25 23 14 6 25 16 25 21 0 5 8 11 18 14 12 2 22 17 25 37 13 63 9 78 -30
105 -42 28 -91 32 -138 11z m110 -88 c13 -12 -37 -54 -74 -62 -14 -3 -36 -8
-48 -12 -34 -10 -30 30 7 67 26 26 34 29 67 23 21 -3 43 -11 48 -16z"/>
<path d="M18130 5843 c-14 -2 -30 -14 -36 -28 -18 -38 5 -49 100 -50 72 0 84
3 106 23 l25 23 -24 20 c-23 19 -96 24 -171 12z"/>
<path d="M16860 5293 c-17 -29 -24 -59 -27 -123 -3 -58 -10 -93 -22 -110 -10
-14 -20 -33 -24 -42 -10 -28 -55 -32 -161 -13 -166 29 -251 30 -326 5 -43 -14
-75 -33 -93 -53 -45 -50 -85 -146 -92 -218 -3 -35 -8 -78 -11 -96 -4 -26 1
-38 31 -67 19 -19 35 -42 35 -50 0 -18 38 -46 62 -46 11 0 18 7 18 19 0 11 4
22 9 25 5 3 8 59 7 123 -1 65 1 127 5 138 4 11 26 40 49 64 l42 44 75 -7 c41
-3 98 -13 127 -21 39 -12 86 -15 180 -12 114 4 129 2 152 -15 26 -21 20 -21
179 0 39 6 131 13 205 16 74 3 181 11 238 18 81 9 105 9 115 -1 7 -7 13 -46
13 -104 2 -101 19 -147 62 -166 59 -27 67 -6 66 161 -1 98 -5 126 -24 170 -38
88 -65 101 -225 100 -159 -1 -224 -9 -322 -38 -45 -13 -115 -27 -156 -30 -68
-6 -76 -5 -86 13 -5 11 -8 23 -6 25 3 3 7 43 9 89 3 90 -17 218 -37 231 -25
16 -46 7 -67 -29z"/>
<path d="M16350 4421 c-60 -15 -172 -84 -217 -133 -27 -28 -58 -60 -70 -71
-13 -11 -23 -29 -23 -40 0 -10 -7 -25 -15 -33 -8 -9 -15 -31 -15 -49 0 -19 -4
-36 -9 -40 -5 -3 -12 -33 -16 -68 -5 -53 -2 -72 20 -130 14 -38 36 -84 49
-103 40 -59 188 -153 241 -154 11 0 40 -11 65 -24 32 -17 70 -25 134 -30 79
-6 95 -5 145 15 71 29 121 68 181 144 70 89 81 130 69 262 -16 176 -56 277
-144 366 -64 63 -167 98 -288 96 -45 -1 -93 -4 -107 -8z m223 -107 c131 -42
195 -127 223 -294 27 -163 14 -213 -72 -289 -95 -84 -214 -116 -273 -74 -35
26 -104 47 -127 39 -21 -6 -84 30 -161 93 -58 46 -87 117 -80 191 9 85 33 150
77 210 40 54 67 73 165 117 62 28 172 31 248 7z"/>
<path d="M16367 4173 c-39 -6 -57 -46 -32 -73 15 -16 31 -20 84 -20 79 0 111
-17 111 -59 0 -37 -3 -38 -52 -31 -52 7 -147 -21 -174 -52 -13 -14 -19 -35
-19 -70 0 -45 4 -53 35 -79 47 -40 80 -37 151 11 l58 39 56 -33 c30 -19 61
-38 68 -43 19 -16 46 -23 51 -14 12 19 -43 107 -88 139 -25 18 -46 37 -46 41
0 5 7 28 15 51 21 59 18 108 -8 154 l-22 40 -80 1 c-44 1 -93 0 -108 -2z m93
-263 c24 -15 -1 -43 -45 -52 -29 -6 -43 -5 -53 6 -19 19 -8 34 31 45 43 12 49
12 67 1z"/>
<path d="M17320 4386 c-93 -16 -120 -27 -154 -63 -39 -42 -116 -141 -116 -149
0 -4 -7 -15 -15 -24 -15 -17 -36 -135 -40 -225 -3 -65 27 -164 65 -220 24 -35
47 -52 107 -81 43 -20 106 -56 141 -80 95 -65 125 -72 214 -45 213 64 334 178
379 357 7 28 10 81 6 136 -5 74 -11 101 -37 151 -76 150 -110 188 -207 231
-54 23 -68 25 -116 18 -29 -5 -62 -5 -73 -1 -26 10 -66 9 -154 -5z m272 -107
c9 -5 26 -9 38 -9 32 0 107 -68 144 -130 86 -143 67 -326 -45 -427 -52 -47
-79 -63 -165 -101 -62 -27 -76 -29 -134 -23 -55 5 -65 9 -70 28 -6 24 -109 83
-146 83 -35 0 -71 36 -105 106 -31 64 -32 69 -25 156 10 137 47 212 136 279
39 30 62 39 108 44 31 3 66 8 77 10 32 5 168 -6 187 -16z"/>
<path d="M17278 4136 c-34 -31 -35 -41 -3 -62 18 -11 35 -14 65 -9 33 6 41 4
47 -11 6 -16 -12 -37 -41 -47 -23 -8 19 -60 64 -80 25 -11 55 -33 68 -49 l23
-28 -28 -11 c-15 -6 -71 -13 -123 -15 -83 -3 -97 -6 -112 -25 -10 -12 -18 -27
-18 -33 0 -45 176 -55 267 -16 43 18 53 28 67 65 16 41 16 44 -5 86 -12 24
-31 54 -43 67 l-20 22 31 28 c31 27 58 86 47 103 -3 5 -15 9 -28 9 -12 0 -27
5 -33 11 -6 6 -53 13 -104 15 -90 5 -95 4 -121 -20z"/>
<path d="M18383 4344 c-37 -17 -77 -41 -88 -53 -11 -13 -33 -28 -50 -35 -45
-19 -124 -114 -155 -187 -53 -126 -57 -236 -11 -329 45 -90 93 -143 174 -190
155 -90 435 -123 493 -59 9 10 22 19 28 19 17 0 72 72 106 137 28 57 30 68 30
171 0 192 -16 307 -54 389 -31 64 -42 77 -107 122 l-72 51 -113 -2 c-103 -3
-120 -6 -181 -34z m297 -89 c98 -49 134 -139 143 -352 3 -73 8 -136 10 -140 3
-5 -3 -26 -14 -47 -10 -22 -19 -44 -19 -50 -1 -13 -71 -66 -119 -91 -19 -10
-58 -19 -85 -20 -77 -4 -198 15 -221 35 -11 9 -45 29 -75 43 -52 24 -90 61
-131 127 -38 60 -46 166 -17 230 50 112 59 125 112 158 29 18 64 44 76 57 13
14 34 25 47 25 13 0 23 4 23 9 0 15 112 38 175 36 34 -1 77 -10 95 -20z"/>
<path d="M18582 4120 c-33 -30 -33 -31 -31 -113 l2 -82 -45 -3 c-61 -4 -69 8
-58 87 11 77 6 93 -29 89 -35 -4 -47 -35 -56 -140 l-7 -87 34 -21 c25 -16 46
-20 88 -18 l55 3 5 -69 c5 -66 6 -69 33 -72 17 -2 30 3 36 14 8 16 24 90 25
120 1 19 27 32 66 32 27 0 38 6 46 24 16 33 -6 60 -43 53 -15 -3 -37 -1 -48 3
-20 8 -22 15 -20 95 2 110 -8 126 -53 85z"/>
<path d="M19370 4267 c-19 -11 -65 -39 -102 -63 -37 -24 -71 -44 -76 -44 -20
0 -82 -82 -117 -155 -48 -101 -56 -179 -30 -292 18 -75 21 -81 86 -144 37 -37
85 -77 107 -90 22 -13 61 -37 87 -53 41 -25 56 -29 118 -28 92 2 169 23 223
62 23 16 47 30 52 30 25 0 144 135 174 198 31 63 33 73 31 169 -1 76 -7 113
-21 146 -37 83 -214 250 -295 276 -56 19 -195 12 -237 -12z m273 -131 c75 -48
171 -163 186 -223 18 -70 4 -153 -36 -221 -42 -70 -55 -81 -172 -139 -71 -35
-109 -47 -152 -50 -52 -4 -63 -1 -111 31 -29 19 -67 46 -84 60 -18 14 -38 26
-46 26 -29 0 -66 56 -88 130 -20 67 -21 81 -11 132 12 59 49 137 85 176 24 27
162 108 196 115 14 3 59 4 101 2 67 -2 82 -7 132 -39z"/>
<path d="M19390 4051 c-15 -23 -20 -45 -20 -98 l0 -69 44 -37 c25 -20 50 -37
56 -37 22 0 70 -31 70 -46 0 -23 -31 -50 -74 -64 -37 -12 -39 -11 -66 19 -37
40 -65 40 -79 0 -19 -55 35 -120 104 -124 72 -5 175 78 201 162 11 35 14 58 8
60 -16 5 -115 69 -146 93 -16 12 -28 30 -28 41 0 19 5 20 98 13 l97 -7 15 27
c24 46 5 60 -86 67 -43 3 -86 8 -94 11 -8 4 -29 9 -47 12 -27 4 -35 1 -53 -23z"/>
<path d="M20450 4246 c-90 -18 -148 -37 -161 -53 -6 -7 -17 -13 -24 -13 -12 0
-76 -73 -107 -121 -70 -110 -82 -283 -31 -431 17 -48 40 -99 52 -115 12 -15
32 -44 44 -62 36 -57 86 -80 232 -104 83 -15 176 -2 221 30 16 11 46 26 66 32
51 17 123 99 144 164 23 74 27 253 8 347 -20 95 -32 123 -90 203 -39 55 -56
70 -113 96 -79 36 -151 44 -241 27z m213 -131 c85 -37 131 -116 147 -252 27
-241 2 -311 -139 -382 -35 -18 -61 -23 -136 -23 -94 -1 -125 8 -125 38 0 7
-10 19 -22 25 -13 7 -23 11 -23 10 0 -2 -19 2 -42 8 -28 8 -51 23 -68 45 -29
38 -75 172 -75 219 0 49 35 178 58 217 36 61 121 98 282 124 39 6 85 -3 143
-29z"/>
<path d="M20585 4043 c-24 -6 -85 -62 -85 -79 0 -6 -11 -19 -24 -27 -24 -16
-32 -30 -86 -138 -24 -46 -27 -62 -20 -97 4 -24 9 -44 11 -45 39 -28 69 -39
111 -43 43 -3 59 1 102 26 28 17 59 36 68 43 26 20 39 63 28 91 -11 29 -56 66
-81 66 -25 0 -69 21 -69 34 0 16 80 86 99 86 23 0 41 20 41 45 0 40 -33 53
-95 38z m-25 -298 c34 -7 38 -20 13 -33 -34 -17 -80 -21 -98 -8 -15 11 -16 17
-6 49 l13 37 24 -19 c14 -11 38 -23 54 -26z"/>
<path d="M5732 3618 c-38 -38 14 -119 198 -307 54 -56 69 -80 106 -171 38 -97
67 -93 141 17 54 80 98 133 111 133 44 0 193 -26 261 -46 81 -23 134 -34 277
-53 34 -5 71 -14 84 -21 29 -16 144 -34 200 -32 57 3 75 23 55 62 -21 41 -50
50 -355 116 -41 9 -93 20 -115 25 -52 12 -140 26 -244 39 -47 6 -88 13 -93 16
-5 3 10 31 31 62 30 42 41 69 43 102 l3 45 -275 1 c-169 1 -290 5 -315 12 -53
15 -98 15 -113 0z"/>
<path d="M7945 3604 c-55 -17 -114 -28 -218 -44 -68 -10 -94 -19 -119 -42 -7
-7 -32 -26 -56 -42 -83 -56 -152 -160 -163 -245 -12 -84 13 -247 50 -323 49
-103 87 -157 117 -164 14 -4 51 -21 81 -40 62 -37 146 -51 242 -40 55 6 104
11 251 21 44 4 92 14 117 26 88 42 184 186 205 307 10 63 10 82 -6 149 -10 43
-22 88 -27 101 -5 13 -9 31 -9 41 0 20 -70 128 -103 159 -24 22 -72 52 -127
80 -19 9 -51 27 -70 38 -48 30 -105 36 -165 18z m153 -144 c35 -17 70 -30 77
-30 13 0 66 -61 120 -137 53 -75 74 -248 39 -332 -25 -60 -83 -129 -127 -150
-34 -16 -69 -21 -195 -25 -97 -3 -159 -9 -168 -17 -21 -18 -121 -3 -169 25
-117 70 -175 196 -179 386 -1 72 1 79 34 124 55 76 130 123 225 141 44 8 103
21 130 29 82 24 142 20 213 -14z"/>
<path d="M7910 3333 c-8 -3 -17 -9 -20 -14 -3 -4 -5 -94 -5 -199 l1 -192 28
-24 c32 -28 45 -23 70 31 14 28 15 60 11 193 -2 88 -9 172 -15 186 -9 26 -34
32 -70 19z"/>
<path d="M10210 3367 c-14 -6 -52 -23 -86 -39 -34 -15 -67 -28 -75 -28 -8 0
-19 -4 -24 -9 -6 -6 -35 -14 -65 -20 -30 -5 -89 -20 -130 -32 -41 -12 -88 -21
-104 -20 -16 1 -79 -10 -140 -24 -61 -15 -129 -30 -151 -35 -80 -16 -524 11
-672 42 -60 13 -163 5 -174 -13 -15 -25 19 -68 64 -79 23 -6 49 -13 57 -16 8
-3 101 -16 205 -28 232 -27 563 -31 605 -6 14 8 31 13 38 11 8 -1 37 5 65 14
29 8 111 26 183 40 72 13 141 28 155 33 13 6 63 22 111 37 48 15 93 33 99 41
6 8 21 14 32 14 11 0 31 10 43 21 13 12 34 27 46 33 27 13 35 41 18 61 -15 17
-64 18 -100 2z"/>
<path d="M18007 3357 c-16 -24 -22 -163 -11 -254 5 -43 13 -59 41 -87 19 -18
47 -39 62 -46 14 -7 33 -16 41 -21 73 -43 72 -42 260 -46 326 -7 381 -7 590
-1 219 6 301 -1 332 -29 18 -16 20 -29 16 -174 -3 -178 1 -192 60 -187 28 2
37 8 43 28 61 212 87 280 106 280 7 0 13 4 13 8 0 4 50 9 112 11 62 1 116 5
120 7 5 3 54 5 111 5 56 -1 162 -1 236 -1 74 0 213 -9 310 -21 235 -27 305
-15 367 66 14 19 31 35 37 35 14 0 57 52 57 70 0 9 4 20 9 25 13 15 51 141 51
172 0 32 -44 103 -63 103 -31 -1 -60 -41 -63 -88 -6 -75 -48 -144 -113 -183
-31 -19 -63 -34 -72 -35 -9 -1 -29 -4 -44 -8 -15 -4 -33 -2 -40 4 -7 5 -21 9
-31 8 -11 -1 -48 1 -84 5 -36 4 -114 9 -175 12 -60 2 -144 12 -185 22 -58 13
-120 17 -275 17 -219 0 -214 1 -317 -66 -36 -25 -51 -23 -71 11 -9 16 -32 42
-50 58 -28 25 -47 31 -108 38 -117 12 -141 10 -649 -45 -58 -7 -116 -12 -130
-11 -166 4 -279 23 -348 59 -44 23 -50 43 -45 161 3 68 1 87 -13 102 -24 26
-68 24 -87 -4z"/>
<path d="M24718 2559 c-25 -43 -23 -59 7 -59 19 0 28 8 39 33 9 21 10 36 3 45
-15 20 -31 14 -49 -19z"/>
<path d="M7277 2526 c-17 -13 -17 -19 -1 -137 9 -68 17 -136 19 -150 11 -98
125 -139 290 -103 39 8 90 13 115 11 45 -5 45 -5 52 -48 3 -24 2 -80 -3 -124
-10 -91 -2 -132 29 -153 19 -13 23 -11 47 12 14 14 34 26 45 26 26 0 32 13 52
107 9 45 25 94 34 108 15 23 22 26 53 20 19 -4 49 -16 66 -28 41 -30 137 -28
169 3 28 25 57 91 86 190 12 41 26 87 32 102 7 18 6 33 -1 46 -6 12 -11 29
-11 40 0 34 -27 32 -73 -3 -41 -31 -45 -38 -51 -90 -6 -53 -45 -139 -71 -157
-18 -14 -63 -8 -117 13 -39 15 -67 20 -103 16 -43 -4 -54 -2 -76 19 -25 24
-117 54 -164 54 -13 0 -50 -7 -82 -15 -31 -8 -76 -15 -100 -15 -52 0 -63 16
-63 93 0 35 -5 59 -14 67 -8 6 -20 28 -27 48 -6 20 -18 43 -27 50 -21 16 -82
15 -105 -2z"/>
<path d="M20755 2467 c-93 -115 -164 -261 -189 -390 -24 -122 -26 -145 -11
-157 7 -6 15 -24 19 -40 9 -48 48 -80 95 -80 22 0 43 5 46 10 3 6 17 10 31 10
50 0 124 117 124 196 0 80 -18 106 -100 145 -65 30 -94 50 -84 58 11 7 26 31
55 86 12 22 39 59 60 82 51 56 51 93 2 105 -17 5 -29 -2 -48 -25z m-30 -377
c7 0 27 -13 44 -29 39 -36 40 -67 5 -131 -23 -42 -32 -50 -66 -55 -47 -8 -61
2 -76 53 -21 69 24 182 66 167 8 -3 20 -5 27 -5z"/>
<path d="M18053 2288 c-24 -11 -43 -26 -43 -34 0 -8 -4 -14 -10 -14 -5 0 -10
-6 -10 -13 0 -8 -9 -22 -20 -32 -16 -15 -18 -26 -14 -84 3 -36 12 -81 20 -100
8 -18 14 -44 14 -57 0 -13 14 -38 31 -55 33 -33 31 -33 154 -17 15 3 21 -6 30
-47 7 -28 17 -61 24 -73 7 -13 11 -35 10 -50 -6 -73 2 -112 26 -139 l25 -28
25 28 c14 15 25 33 25 40 0 7 11 34 25 61 14 27 25 56 25 64 0 9 11 35 25 58
18 30 24 51 19 69 -3 14 -9 25 -13 25 -12 0 -51 -31 -51 -41 0 -6 -11 -25 -25
-43 -14 -18 -25 -41 -25 -50 0 -38 -25 -6 -32 40 -22 160 -22 163 2 214 21 44
22 53 11 96 -7 26 -23 61 -37 77 -13 15 -24 34 -24 41 0 6 -17 29 -38 49 -45
44 -83 48 -149 15z m120 -110 c18 -24 18 -27 3 -50 -9 -14 -14 -27 -11 -29 2
-3 6 -26 9 -53 3 -38 0 -52 -15 -67 -24 -24 -59 -25 -59 -1 0 10 -16 33 -35
52 -43 42 -47 92 -12 145 40 62 76 62 120 3z"/>
<path d="M20285 2282 c-11 -2 -38 -17 -60 -32 -47 -32 -138 -76 -179 -86 -37
-9 -75 -51 -68 -76 11 -43 103 -94 234 -128 95 -24 88 -25 88 3 0 26 -35 62
-97 101 -24 14 -43 30 -43 34 0 4 28 24 63 44 47 27 70 35 91 31 l29 -6 -7 49
c-7 54 -21 73 -51 66z"/>
<path d="M18402 2200 c-18 -29 -16 -171 3 -207 9 -15 20 -40 25 -56 5 -15 20
-32 34 -38 38 -18 77 7 106 69 28 58 40 66 40 25 0 -32 33 -91 55 -100 9 -3
24 2 35 12 18 16 18 20 5 44 -9 14 -24 70 -35 125 -10 54 -20 100 -22 101 -2
2 -14 6 -28 10 -24 6 -27 3 -45 -57 -10 -35 -25 -69 -32 -76 -7 -7 -13 -19
-13 -26 0 -7 -8 -20 -19 -30 -28 -25 -39 -3 -47 95 -6 76 -23 129 -42 129 -4
0 -13 -9 -20 -20z"/>
<path d="M18875 2200 c-3 -5 -15 -10 -25 -10 -30 0 -76 -46 -88 -88 -14 -45
-14 -111 -1 -162 10 -42 61 -80 106 -80 55 0 165 100 132 121 -7 4 -17 2 -23
-6 -6 -7 -24 -16 -41 -19 -16 -4 -41 -10 -54 -13 -27 -7 -41 9 -41 48 0 22 4
26 24 22 13 -3 27 0 30 6 4 6 18 11 30 11 58 0 105 104 72 155 -14 21 -24 25
-66 25 -27 0 -52 -4 -55 -10z"/>
<path d="M19471 2160 c-26 -24 -41 -45 -38 -54 3 -8 0 -17 -7 -19 -17 -7 -29
-85 -20 -132 7 -41 27 -57 104 -85 79 -29 170 -32 170 -5 0 8 4 15 8 15 5 0
16 6 26 13 16 12 17 17 6 36 -10 19 -17 22 -45 17 -18 -4 -51 -4 -74 0 l-41 7
43 27 c46 29 87 74 87 96 0 30 -24 61 -70 92 -66 43 -95 42 -149 -8z m110 -69
c24 -20 24 -20 4 -35 -26 -20 -95 -21 -95 -1 0 17 38 55 56 55 6 0 22 -9 35
-19z"/>
<path d="M19274 2172 c-17 -11 -34 -48 -34 -74 0 -13 -9 -36 -20 -53 -11 -16
-25 -47 -30 -67 -8 -27 -16 -38 -29 -38 -42 0 -49 46 -26 165 7 35 -13 69 -35
60 -36 -13 -56 -67 -56 -147 1 -74 2 -78 35 -112 57 -58 117 -45 166 38 14 22
25 39 26 36 13 -75 26 -96 71 -120 36 -19 50 -22 59 -13 9 9 6 19 -10 41 -11
17 -21 35 -21 41 0 7 -9 29 -20 51 -11 22 -20 54 -20 73 0 64 -33 134 -56 119z"/>
<path d="M6432 1713 c-12 -3 -34 -21 -48 -42 -33 -50 -26 -64 75 -170 45 -47
81 -88 81 -92 0 -16 -41 -20 -95 -10 -47 9 -60 8 -81 -5 -13 -9 -24 -22 -24
-29 0 -28 59 -63 123 -74 94 -16 123 -14 167 14 65 41 58 66 -50 184 -49 55
-90 105 -90 111 0 12 27 11 142 -6 40 -5 49 -4 54 10 13 35 -10 58 -91 87 -75
27 -110 32 -163 22z"/>
<path d="M9274 1670 c-12 -5 -24 -12 -27 -17 -2 -4 -1 -54 4 -111 4 -57 5
-110 3 -117 -3 -7 -24 -17 -47 -20 -51 -9 -89 -34 -116 -79 -27 -42 -26 -70 0
-113 46 -74 196 -111 259 -65 62 46 15 88 -78 69 -42 -9 -54 -8 -76 6 -33 22
-34 60 -4 81 33 23 51 20 81 -14 28 -31 35 -34 60 -24 22 8 14 342 -9 385 -16
31 -18 32 -50 19z"/>
<path d="M6885 1579 c-52 -16 -119 -73 -144 -123 -31 -63 -25 -110 24 -176 40
-54 117 -101 188 -114 64 -12 164 46 155 91 -5 26 -40 27 -84 4 -60 -32 -88
-28 -142 23 l-47 45 37 15 c21 9 49 16 63 16 37 0 100 43 115 80 10 24 10 40
2 69 -12 38 -27 50 -91 70 -38 12 -35 12 -76 0z"/>
<path d="M9023 1560 c-31 -12 -29 -38 4 -66 21 -18 31 -21 45 -13 15 8 18 17
12 42 -11 51 -16 55 -61 37z"/>
<path d="M8698 1505 c-55 -30 -48 -96 15 -151 23 -20 52 -41 65 -47 30 -14 28
-31 -5 -47 -60 -27 -80 -29 -117 -9 -48 25 -68 16 -64 -29 6 -72 98 -101 200
-62 65 24 108 68 108 110 0 31 -39 76 -103 120 -20 14 -37 29 -37 33 0 5 30 7
68 5 l67 -3 0 40 c0 33 -4 40 -25 46 -45 12 -144 9 -172 -6z"/>
<path d="M7785 1489 c-22 -11 -47 -29 -57 -40 -21 -25 -25 -24 -43 11 -23 44
-63 41 -104 -7 -42 -50 -46 -55 -58 -78 -12 -20 -12 -20 -19 0 -14 41 -46 105
-52 104 -4 0 -16 -4 -27 -8 -13 -6 -33 -2 -57 10 -57 29 -99 25 -120 -11 -13
-22 -24 -30 -46 -30 -49 0 -62 -25 -57 -111 4 -84 19 -126 47 -135 29 -9 43
10 58 73 16 74 46 133 68 135 56 5 92 -11 92 -41 0 -38 33 -125 55 -147 15
-15 36 -24 54 -24 31 0 49 18 84 81 l18 33 32 -50 c86 -133 213 -182 291 -113
33 29 37 30 58 15 51 -36 86 -10 102 74 17 92 73 148 159 159 85 12 28 64 -70
65 -49 1 -55 -2 -101 -47 l-48 -48 -12 26 c-9 19 -19 25 -42 25 -22 0 -33 7
-45 29 -20 39 -62 71 -94 71 -14 0 -44 -9 -66 -21z m74 -91 c-23 -15 -68 -38
-73 -38 -3 0 -6 5 -6 10 0 17 63 51 74 40 5 -5 8 -11 5 -12z m101 -107 c11
-27 9 -33 -16 -65 -29 -36 -31 -36 -111 -20 -24 4 -83 51 -83 65 0 5 15 9 33
9 17 0 59 9 92 20 76 24 71 25 85 -9z"/>
<path d="M23189 1498 c-1 -7 -3 -67 -5 -132 -3 -130 -5 -135 -64 -136 -73 -1
-83 -45 -15 -65 44 -12 47 -24 31 -111 -7 -37 -5 -41 19 -52 25 -11 27 -10 45
34 11 25 20 58 20 74 0 35 41 70 82 70 19 0 40 10 59 30 l30 29 11 -24 c8 -18
8 -47 1 -103 -8 -61 -8 -80 3 -91 21 -22 41 2 56 67 14 63 55 119 81 109 18
-7 37 -65 37 -113 0 -32 24 -89 42 -100 23 -14 28 14 19 102 -9 89 -25 148
-49 177 -15 17 -57 17 -90 -1 -12 -7 -26 -11 -31 -8 -4 3 -11 56 -13 117 -6
113 -12 128 -49 129 -21 0 -33 -28 -18 -46 11 -13 14 -135 4 -175 -6 -24 -19
-26 -147 -19 -5 0 -8 54 -8 119 0 99 -3 120 -16 125 -24 9 -34 7 -35 -6z"/>
<path d="M20346 1484 c-9 -8 -16 -18 -16 -20 0 -17 74 -67 83 -57 12 11 8 68
-5 81 -17 17 -44 15 -62 -4z"/>
<path d="M22035 1480 c-17 -18 -20 -91 -11 -274 1 -25 -4 -31 -29 -38 -51 -14
-95 -59 -115 -118 -15 -45 -19 -50 -19 -26 -1 16 -6 58 -12 94 -9 51 -19 73
-46 103 -20 22 -43 39 -53 39 -10 0 -36 -20 -57 -44 -21 -23 -48 -46 -61 -50
-23 -8 -23 -9 -16 -104 7 -105 14 -122 50 -122 26 0 31 13 33 85 1 49 14 97
34 123 18 24 41 -28 47 -108 4 -67 8 -76 30 -87 22 -11 27 -10 43 9 l18 21 32
-33 c19 -18 45 -34 61 -36 47 -5 176 70 176 102 0 21 9 18 51 -21 22 -19 47
-35 57 -36 141 -9 184 0 195 42 8 31 3 36 -46 44 -23 4 -45 9 -49 11 -4 3 18
28 48 58 49 47 54 57 48 82 -10 41 -28 59 -81 79 -36 14 -50 15 -64 6 -10 -6
-26 -11 -34 -11 -44 0 -109 -117 -106 -190 2 -61 -13 -43 -49 57 -27 76 -28
87 -24 203 3 67 2 131 -1 141 -8 24 -27 24 -50 -1z m303 -276 c33 -23 28 -44
-10 -44 -18 0 -43 -3 -56 -6 -19 -5 -21 -3 -16 12 9 26 35 54 48 54 6 0 22 -7
34 -16z m-292 -129 c8 -20 21 -38 29 -42 22 -8 -52 -43 -92 -43 -29 0 -33 3
-33 28 0 42 35 82 78 91 2 1 10 -15 18 -34z"/>
<path d="M9575 1461 c-3 -5 -18 -12 -34 -16 -17 -3 -34 -17 -42 -33 -8 -15
-16 -29 -19 -32 -18 -18 -60 -81 -60 -90 0 -19 47 -86 79 -113 30 -25 87 -47
124 -47 27 0 102 38 128 66 21 22 21 26 7 40 -14 15 -21 14 -81 -6 -52 -18
-69 -20 -86 -10 -35 18 -21 41 46 74 34 17 71 40 82 50 23 21 28 64 9 88 -25
30 -138 52 -153 29z"/>
<path d="M18241 1434 c-21 -15 -22 -21 -15 -63 4 -25 8 -98 10 -161 4 -156 13
-200 43 -200 31 0 41 38 33 122 -4 43 -5 99 -2 125 5 43 -1 103 -15 171 -6 26
-22 28 -54 6z"/>
<path d="M19272 1436 c-14 -7 -20 -16 -16 -26 13 -35 27 -110 21 -117 -4 -3
-24 -1 -44 5 -35 11 -40 10 -61 -12 l-24 -23 23 -21 c12 -12 38 -27 58 -33 20
-6 42 -16 49 -22 16 -13 15 -52 -3 -104 -8 -23 -12 -49 -9 -57 3 -8 1 -17 -5
-21 -16 -9 -13 -41 4 -55 13 -11 21 -10 43 7 29 22 47 71 56 154 4 29 8 54 11
57 2 2 18 5 35 6 17 1 35 8 40 16 16 24 11 60 -7 66 -66 20 -83 34 -83 65 0
17 -7 45 -16 62 -9 18 -20 38 -24 46 -9 19 -20 21 -48 7z"/>
<path d="M20340 1312 c0 -85 -14 -112 -57 -112 -11 0 -40 -22 -67 -50 -40 -43
-46 -54 -46 -94 0 -39 4 -48 32 -68 94 -67 218 -69 218 -3 0 24 -24 36 -32 16
-6 -18 -96 11 -123 39 l-26 27 21 25 c30 38 70 43 96 11 16 -18 27 -23 43 -18
20 6 21 12 18 156 l-2 149 -37 0 -38 0 0 -78z"/>
<path d="M18036 1333 c-85 -32 -196 -131 -196 -175 0 -15 5 -30 10 -33 6 -3
10 -15 10 -25 0 -20 78 -90 101 -90 8 0 32 -7 54 -15 22 -8 57 -14 78 -15 31
0 39 4 47 25 5 14 14 25 20 25 17 0 11 27 -7 35 -15 6 -102 20 -163 27 -20 2
-60 45 -60 64 0 30 64 83 115 95 96 22 124 51 89 90 -21 23 -14 24 -98 -8z"/>
<path d="M20076 1332 c-15 -18 -15 -20 2 -35 39 -36 82 -5 47 33 -22 25 -28
25 -49 2z"/>
<path d="M8327 1332 c-9 -2 -20 -15 -23 -29 -10 -39 15 -56 86 -59 105 -4 158
22 146 71 l-7 27 -92 -4 c-51 -1 -100 -4 -110 -6z"/>
<path d="M24341 1325 c-19 -6 -58 -35 -87 -63 -43 -40 -57 -62 -71 -111 -10
-34 -20 -60 -23 -58 -3 1 -27 26 -54 54 -58 63 -57 83 8 83 25 0 47 4 50 8 3
5 1 26 -5 47 -10 35 -13 37 -41 31 -17 -3 -38 -6 -48 -6 -23 0 -90 -66 -90
-89 0 -29 27 -74 60 -101 45 -37 33 -60 -28 -55 -57 4 -92 -3 -92 -19 0 -20
-40 -38 -71 -31 -29 7 -69 47 -69 71 0 7 6 11 14 8 8 -3 37 4 64 16 44 19 51
26 62 65 23 81 1 125 -72 146 -65 18 -148 -61 -162 -155 -10 -65 41 -196 76
-196 6 0 19 -7 28 -15 36 -32 140 -7 140 34 0 29 11 32 40 11 19 -13 40 -18
71 -16 56 3 85 19 104 57 16 31 35 31 35 1 0 -10 13 -31 28 -48 24 -26 38 -32
91 -38 35 -4 68 -3 74 2 7 5 26 12 42 16 53 12 85 30 85 48 0 9 -3 19 -8 22
-9 5 -132 -17 -148 -27 -14 -8 -84 40 -84 59 0 17 12 23 55 27 60 7 120 54
134 104 14 48 -3 100 -39 118 -16 8 -30 14 -32 14 -2 -1 -18 -7 -37 -14z m47
-94 c5 -32 -21 -51 -69 -51 -52 0 -59 18 -20 52 41 37 84 36 89 -1z m-516 -3
c3 -7 2 -24 -1 -37 -6 -22 -12 -25 -55 -26 -54 -1 -66 12 -46 51 11 20 21 24
56 24 24 0 44 -5 46 -12z"/>
<path d="M22624 1280 c-39 -42 -58 -49 -68 -25 -7 19 -30 19 -47 -1 -10 -13
-8 -34 11 -122 25 -115 33 -132 60 -132 27 0 40 23 51 90 5 35 16 78 24 96 15
35 59 64 99 64 34 0 40 15 19 45 -15 20 -27 24 -65 25 -42 0 -51 -4 -84 -40z"/>
<path d="M8963 1275 c-39 -40 -42 -68 -11 -89 44 -31 66 -17 98 63 12 30 12
35 -5 47 -29 21 -47 17 -82 -21z"/>
<path d="M19830 1301 c-80 -12 -108 -62 -59 -107 10 -9 19 -25 19 -35 0 -10 9
-20 19 -24 11 -3 23 -15 26 -26 4 -10 15 -24 26 -29 27 -15 24 -27 -6 -27 -14
0 -46 -6 -71 -13 -37 -11 -44 -17 -42 -34 4 -30 60 -47 128 -40 30 3 63 10 73
15 24 14 23 71 -3 94 -11 10 -20 24 -20 30 0 7 -18 33 -41 58 -45 51 -44 72 3
62 34 -8 48 5 48 43 0 15 -8 26 -26 32 -14 6 -26 9 -27 9 -1 -1 -22 -5 -47 -8z"/>
<path d="M18416 1277 c-15 -11 -17 -17 -7 -35 15 -27 33 -28 56 -2 34 37 -7
68 -49 37z"/>
<path d="M18658 1249 c-16 -11 -28 -28 -28 -36 0 -9 -18 -42 -40 -75 -47 -71
-49 -92 -12 -114 15 -9 40 -26 56 -37 25 -17 39 -19 114 -14 86 6 102 14 102
50 0 15 -7 18 -32 16 -58 -4 -123 1 -137 10 -20 13 7 38 69 67 38 17 48 28 53
53 8 38 -6 76 -32 90 -31 17 -83 12 -113 -10z m70 -72 c3 -13 -3 -17 -27 -17
-33 0 -39 8 -19 28 17 17 42 11 46 -11z"/>
<path d="M21387 1232 c-23 -16 -36 -17 -88 -10 -50 8 -64 7 -78 -6 -10 -9 -25
-16 -35 -16 -9 0 -19 -7 -22 -15 -9 -23 -31 -18 -38 10 -8 30 -27 32 -51 5
-13 -14 -15 -23 -7 -32 5 -7 13 -56 17 -108 7 -94 24 -140 50 -140 17 0 35 53
35 102 0 49 23 89 64 114 61 37 61 37 61 -30 1 -91 23 -131 87 -161 29 -13 72
-26 95 -30 37 -6 46 -3 68 19 35 35 28 50 -26 52 -81 3 -128 25 -129 59 0 6
26 17 58 23 32 7 69 23 85 37 52 46 25 115 -53 130 -19 3 -42 8 -50 11 -8 2
-27 -4 -43 -14z m93 -71 c0 -12 -26 -21 -63 -21 -30 1 -31 1 -13 15 22 16 76
20 76 6z"/>
<path d="M20531 1200 c-93 -67 -128 -153 -86 -216 20 -31 97 -63 166 -71 52
-5 58 -3 89 24 51 46 38 63 -48 58 -60 -3 -72 -1 -98 20 -32 26 -29 28 39 40
20 3 37 10 37 15 0 6 7 10 15 10 29 0 65 47 65 84 0 43 -29 66 -89 69 -32 2
-50 -5 -90 -33z m63 -65 c-30 -26 -54 -32 -54 -15 0 11 49 39 69 40 8 0 1 -11
-15 -25z"/>
<path d="M18984 1196 c-11 -8 -30 -12 -46 -9 l-26 5 0 -98 c0 -104 11 -134 48
-134 14 0 18 13 23 63 8 87 24 119 56 115 31 -4 49 -37 54 -99 5 -55 20 -85
47 -92 40 -10 53 73 24 156 -29 86 -123 134 -180 93z"/>
<path d="M18452 1128 c-31 -68 -34 -85 -20 -107 14 -23 38 -27 56 -9 18 18 16
133 -2 148 -12 9 -18 4 -34 -32z"/>
<path d="M19525 1163 c-11 -3 -28 -14 -38 -25 -18 -18 -18 -21 -3 -37 23 -26
108 -35 163 -19 37 11 43 16 43 40 0 16 -6 30 -12 32 -23 8 -133 13 -153 9z"/>
<path d="M20081 1112 c-33 -52 -37 -72 -21 -103 12 -22 33 -25 48 -6 19 23 32
130 18 145 -11 11 -19 4 -45 -36z"/>
<path d="M9113 1003 c-26 -23 -42 -83 -50 -184 -5 -70 -9 -82 -27 -89 -89 -34
-110 -47 -136 -85 -16 -23 -32 -53 -35 -67 -5 -18 -12 -24 -23 -21 -10 2 -31
-10 -51 -31 -29 -30 -42 -36 -75 -36 -42 0 -85 22 -111 56 -24 32 -18 39 44
52 96 20 132 70 105 148 -28 84 -112 110 -187 60 -34 -23 -41 -24 -109 -17
-68 8 -76 7 -122 -18 -30 -16 -54 -37 -64 -57 -9 -21 -25 -35 -46 -41 -27 -7
-31 -14 -34 -46 -3 -31 -7 -37 -26 -37 -12 0 -40 -13 -62 -30 -27 -20 -47 -27
-62 -23 -21 5 -21 7 13 41 24 25 36 49 41 80 16 108 -72 165 -176 112 -22 -11
-44 -29 -50 -39 -5 -11 -18 -22 -29 -26 -10 -3 -26 -24 -36 -48 -10 -23 -28
-52 -39 -65 l-20 -23 54 -49 c80 -71 135 -94 202 -86 30 4 70 17 88 29 51 33
112 67 121 67 4 0 13 -16 19 -35 15 -46 41 -60 69 -37 16 13 25 40 36 107 17
98 28 114 95 136 19 6 41 17 49 23 12 9 13 8 8 -7 -36 -96 9 -210 110 -280 71
-49 186 -43 225 11 27 39 55 45 102 23 58 -28 106 -27 153 5 22 14 46 23 57
20 30 -8 70 4 102 29 29 23 29 23 10 44 -11 12 -27 21 -38 21 -12 0 -18 7 -18
21 0 12 -10 37 -21 56 -20 32 -21 44 -16 136 3 56 11 116 18 133 11 27 10 36
-4 58 -21 31 -28 32 -54 9z m-440 -277 c7 -19 -12 -34 -53 -42 -30 -7 -32 -6
-21 14 20 38 64 54 74 28z m-673 -44 c0 -26 -65 -86 -84 -79 -27 11 -18 34 26
66 48 36 58 38 58 13z m1096 -73 c19 -11 34 -24 34 -29 0 -16 -131 -47 -150
-35 -15 9 11 55 39 70 34 19 38 18 77 -6z"/>
<path d="M7581 935 c-16 -28 -40 -126 -41 -166 0 -4 -19 -9 -42 -12 -53 -7
-88 -33 -112 -83 -10 -21 -27 -56 -37 -76 -22 -43 -24 -67 -7 -102 14 -32 82
-66 130 -66 44 0 145 52 176 91 13 16 29 29 36 29 15 0 56 42 56 58 0 6 -15
12 -32 14 -26 2 -37 11 -56 43 -20 35 -22 49 -17 110 3 38 11 87 17 107 24 79
-31 120 -71 53z m-37 -297 c28 -40 21 -72 -23 -96 -69 -39 -113 -10 -78 51 37
67 74 84 101 45z"/>
<path d="M6728 880 c-16 -4 -46 -22 -68 -40 l-40 -31 -32 24 c-18 14 -43 28
-55 31 -30 9 -92 -9 -137 -39 -25 -17 -45 -23 -61 -19 -25 6 -65 -10 -65 -27
0 -6 13 -30 29 -53 23 -33 31 -56 33 -102 3 -54 5 -59 37 -78 33 -19 34 -19
47 -1 8 10 14 41 14 67 0 51 24 111 57 140 11 10 41 21 66 24 l47 7 0 -47 c0
-27 8 -61 20 -83 11 -21 20 -43 20 -50 0 -17 95 -91 126 -99 40 -10 89 5 119
36 22 23 26 33 18 41 -13 13 -57 15 -88 5 -15 -5 -31 2 -60 28 l-40 34 28 11
c16 6 37 11 47 11 30 0 96 38 109 64 11 20 9 30 -13 74 -14 28 -34 56 -44 61
-28 15 -85 21 -114 11z"/>
<path d="M7096 836 c-29 -8 -47 -21 -70 -53 -20 -28 -37 -43 -52 -43 -37 0
-48 -24 -35 -74 6 -25 11 -67 11 -94 0 -52 9 -67 50 -76 42 -10 52 6 60 90 8
89 18 114 59 143 38 27 47 26 67 -5 12 -18 17 -46 16 -102 -1 -65 3 -80 20
-99 26 -28 64 -30 78 -4 17 32 12 141 -9 198 -19 51 -56 113 -69 113 -4 1 -25
4 -47 8 -22 4 -58 3 -79 -2z"/>
</g>
</svg>
