<?xml version="1.0" standalone="no"?>
<!DOCTYPE svg PUBLIC "-//W3C//DTD SVG 20010904//EN"
 "http://www.w3.org/TR/2001/REC-SVG-20010904/DTD/svg10.dtd">
<svg version="1.0" xmlns="http://www.w3.org/2000/svg"
 width="1258.531731pt" height="400.000000pt" viewBox="0 0 1258.531731 400.000000"
 preserveAspectRatio="xMidYMid meet">
<metadata>
Created by potrace 1.15, written by Peter Selinger 2001-2017
</metadata>
<g transform="translate(-42.893180,446.954045) scale(0.057597,-0.057597)"
fill="#444444" stroke="none">
<path d="M13686 7741 c-12 -13 -17 -32 -15 -58 2 -21 0 -44 -4 -50 -9 -15 11
-251 24 -275 5 -10 8 -18 7 -18 -2 -1 -32 -2 -67 -3 -62 -2 -64 -3 -111 -54
-57 -62 -74 -114 -59 -185 17 -75 78 -105 183 -88 53 8 66 16 115 63 31 29 73
64 93 78 38 24 49 51 26 65 -6 4 -16 0 -23 -9 -7 -10 -20 -17 -31 -17 -14 0
-15 3 -6 12 16 16 15 38 -2 57 -15 17 -47 150 -52 211 -7 100 -7 217 0 229 13
20 -14 61 -39 61 -12 0 -30 -9 -39 -19z m27 -517 c37 -19 67 -38 67 -42 0 -8
-83 -62 -96 -62 -5 0 -27 -9 -48 -21 -39 -21 -39 -21 -65 -1 -15 12 -25 27
-23 38 12 68 17 81 35 102 28 30 52 28 130 -14z"/>
<path d="M8902 7707 c-29 -30 -27 -46 5 -77 19 -19 39 -26 77 -28 28 -2 72 -4
99 -6 26 -1 49 -5 52 -8 18 -17 46 -494 30 -510 -3 -2 -40 1 -82 8 -104 17
-103 17 -103 -10 0 -13 -5 -26 -12 -28 -18 -6 1 -28 25 -28 12 0 31 -7 41 -15
11 -8 29 -12 42 -9 13 3 39 0 59 -6 27 -9 40 -9 48 -1 6 6 29 11 52 11 41 0
161 34 180 51 6 6 3 15 -7 25 -12 13 -34 16 -86 15 l-69 -1 5 95 c4 83 -10
301 -24 375 -4 22 0 28 29 38 18 7 59 12 91 12 42 0 58 4 63 16 12 32 -30 55
-128 70 -52 8 -100 12 -107 9 -7 -3 -63 2 -125 10 -140 19 -130 19 -155 -8z"/>
<path d="M11784 7703 c-18 -2 -44 -17 -60 -34 -25 -26 -30 -40 -34 -101 -3
-45 -1 -84 7 -107 7 -20 13 -37 13 -38 1 -13 -40 -33 -69 -33 -27 0 -46 -8
-69 -28 -18 -16 -32 -32 -32 -35 0 -14 49 -31 105 -36 l60 -6 7 -105 c6 -92
10 -107 29 -123 12 -10 32 -17 43 -15 20 3 21 9 21 117 l0 115 33 19 c30 18
34 18 51 3 23 -21 90 -21 97 -1 9 21 -8 38 -53 53 -21 8 -47 17 -58 22 -11 4
-35 13 -52 20 -30 11 -33 16 -33 54 0 22 -3 65 -6 93 l-7 53 37 15 c26 11 42
13 56 5 10 -5 34 -10 53 -10 19 0 40 -6 46 -14 23 -27 91 -25 91 3 0 4 -20 24
-45 44 -33 28 -65 43 -121 57 -43 11 -78 19 -78 18 -1 0 -15 -3 -32 -5z"/>
<path d="M9604 7581 c-74 -74 -99 -101 -126 -140 l-30 -45 24 -18 c46 -35 51
-32 179 111 47 53 48 55 33 82 -17 34 -51 38 -80 10z"/>
<path d="M12382 7458 c-17 -17 -15 -29 11 -62 18 -22 28 -27 45 -22 26 9 28
26 7 66 -16 31 -42 39 -63 18z"/>
<path d="M10907 7370 c-21 -4 -43 -12 -50 -19 -6 -6 -18 -11 -27 -11 -25 0
-115 -65 -148 -108 -51 -64 -46 -158 11 -192 48 -30 88 -26 139 14 59 48 98
88 98 103 0 7 5 13 10 13 6 0 10 -6 10 -12 0 -18 53 -142 63 -146 4 -2 14 -19
21 -37 21 -49 136 -104 136 -64 0 10 -23 47 -84 133 -19 27 -32 55 -29 61 4
12 -20 76 -68 182 -10 23 -19 46 -19 51 0 25 -26 38 -63 32z m-11 -124 c6 -17
-50 -101 -81 -122 -13 -8 -36 -16 -51 -17 -63 -4 -34 74 45 125 49 31 79 36
87 14z"/>
<path d="M13172 7362 c-36 -19 -72 -73 -92 -137 -7 -22 -17 -45 -22 -52 -13
-16 12 -130 32 -148 13 -11 20 -12 40 -2 21 11 25 20 26 62 1 102 25 195 50
195 35 0 84 -120 87 -213 2 -46 4 -51 30 -58 38 -10 71 20 63 59 -3 15 -8 49
-12 77 -4 27 -15 63 -25 80 -11 16 -19 37 -19 45 0 8 -18 36 -41 63 -45 52
-64 57 -117 29z"/>
<path d="M12157 7359 c-46 -7 -76 -29 -77 -55 0 -6 -9 -19 -20 -29 -11 -10
-20 -28 -20 -41 0 -13 -5 -26 -10 -29 -12 -8 -2 -104 13 -122 5 -7 24 -13 42
-13 28 0 33 4 39 31 3 17 6 46 6 64 0 86 35 114 122 100 l41 -7 -7 38 c-4 22
-11 42 -15 47 -15 16 -68 23 -114 16z"/>
<path d="M12828 7365 c-1 -2 -19 -5 -38 -7 -51 -5 -83 -31 -150 -119 -60 -78
-60 -79 -45 -109 8 -16 15 -36 15 -45 0 -17 36 -53 86 -85 24 -15 50 -20 112
-21 75 -2 84 0 131 31 28 17 51 36 51 41 0 18 -37 28 -76 19 -61 -15 -115 -11
-161 10 -47 21 -59 44 -18 34 16 -4 34 0 50 10 13 9 35 16 48 16 14 0 30 6 36
14 7 8 25 17 39 21 82 18 48 141 -50 182 -14 7 -28 10 -30 8z m30 -84 c8 -5
11 -17 7 -33 -7 -27 -35 -38 -102 -43 -42 -2 -42 12 -2 53 31 32 69 41 97 23z"/>
<path d="M9760 7350 c-8 -5 -24 -7 -36 -4 -12 3 -30 -3 -44 -14 -24 -19 -24
-23 -22 -143 4 -156 5 -159 47 -159 46 0 55 20 55 122 0 52 5 91 13 102 11 16
14 15 39 -11 17 -18 30 -45 35 -78 l8 -50 53 -3 c44 -3 52 0 52 15 0 10 7 27
16 38 17 23 22 18 52 -47 9 -21 20 -38 23 -38 3 0 4 -11 1 -25 -2 -15 0 -25 7
-25 6 0 11 -9 11 -19 0 -14 9 -21 31 -26 49 -11 53 4 25 94 -14 45 -26 87 -26
92 0 18 -61 137 -76 150 -26 21 -76 13 -97 -16 l-19 -25 -39 40 c-40 41 -76
51 -109 30z"/>
<path d="M12376 7297 c-26 -19 -35 -75 -21 -143 10 -52 15 -61 45 -76 18 -9
37 -15 42 -12 4 3 8 52 8 109 0 81 -3 107 -16 119 -19 19 -35 20 -58 3z"/>
<path d="M12836 6648 c-8 -13 -17 -50 -21 -83 -3 -33 -8 -70 -11 -83 -2 -13
-1 -28 3 -35 4 -7 10 -30 12 -52 6 -55 6 -264 1 -294 -4 -19 2 -28 29 -43 40
-23 63 -20 67 7 11 72 10 125 -3 307 -8 111 -12 218 -9 236 3 18 2 40 -1 48
-8 22 -51 17 -67 -8z"/>
<path d="M10217 6576 c-68 -25 -77 -39 -77 -128 0 -88 0 -88 -76 -62 -40 13
-48 14 -62 1 -10 -8 -25 -17 -34 -20 -30 -11 -20 -35 20 -47 20 -6 51 -18 67
-25 17 -7 42 -17 58 -20 27 -7 31 -14 28 -47 -1 -10 5 -46 14 -80 21 -86 73
-132 105 -93 9 11 9 23 -3 57 -21 58 -29 125 -17 133 5 3 45 8 89 10 43 2 89
8 101 15 21 11 21 12 3 24 -10 7 -47 18 -82 25 -110 22 -111 22 -111 89 0 54
2 59 33 77 35 21 108 44 145 45 28 0 29 24 0 44 -28 20 -147 21 -201 2z"/>
<path d="M11108 6581 c-38 -13 -116 -75 -149 -120 -16 -21 -43 -67 -60 -102
-17 -35 -41 -74 -52 -86 -17 -20 -19 -26 -8 -46 7 -13 10 -36 8 -52 -7 -47 34
-99 103 -130 19 -9 52 -26 74 -37 30 -16 58 -21 125 -22 75 -1 90 2 118 22 17
12 35 31 38 42 9 27 32 25 39 -3 7 -29 47 -48 85 -41 23 5 32 2 40 -14 12 -23
60 -42 105 -42 64 0 166 54 166 88 0 9 7 25 15 35 12 17 17 18 52 6 21 -8 54
-27 74 -42 20 -16 54 -33 75 -38 52 -12 121 -11 129 1 3 6 17 10 30 10 24 0
77 48 102 93 22 40 16 96 -17 136 -55 71 -170 111 -307 106 -47 -1 -57 -6 -93
-41 -21 -21 -42 -51 -45 -66 -4 -16 -9 -28 -11 -28 -3 0 -29 18 -58 40 -30 23
-69 45 -87 50 -76 22 -160 7 -213 -39 -27 -23 -59 -92 -58 -123 0 -16 -4 -28
-9 -28 -5 0 -9 8 -9 18 0 10 -12 31 -27 47 -26 28 -43 38 -135 80 -39 17 -115
35 -122 28 -3 -3 -13 2 -22 11 -16 16 -15 20 7 67 13 28 39 64 59 80 19 16 47
41 61 55 22 22 30 24 47 15 23 -12 102 -10 102 2 0 5 -7 15 -15 23 -8 8 -18
22 -23 30 -10 17 -95 27 -134 15z m977 -348 c43 -29 55 -43 55 -63 0 -62 -61
-100 -161 -100 -59 0 -62 1 -100 43 -22 25 -38 52 -39 67 0 35 26 70 53 70 12
0 29 5 37 10 35 22 98 11 155 -27z m-463 -30 c21 -14 44 -39 52 -55 13 -26 13
-33 -1 -63 -34 -72 -162 -84 -192 -19 -6 13 -22 29 -36 36 -32 14 -32 38 0 88
36 57 106 63 177 13z m-572 -3 c71 -11 180 -70 180 -97 0 -44 -151 -42 -226 2
-24 14 -52 38 -61 52 -16 25 -16 26 7 45 14 11 30 16 39 12 9 -4 36 -10 61
-14z"/>
<path d="M13145 6388 c-28 -16 -53 -47 -71 -88 -32 -69 -54 -201 -42 -246 10
-38 85 -94 146 -109 77 -20 215 8 228 47 10 31 -11 38 -111 36 -100 -1 -148
15 -158 53 -8 29 -1 39 26 39 12 0 36 9 52 20 17 11 37 20 46 20 9 0 35 14 57
30 35 25 42 36 42 64 0 55 -63 116 -135 129 -16 3 -37 8 -45 11 -8 3 -24 0
-35 -6z m103 -106 c20 -26 14 -36 -39 -59 -68 -31 -80 -30 -69 5 23 78 28 84
63 77 17 -4 38 -14 45 -23z"/>
<path d="M12495 6338 c-22 -12 -64 -40 -92 -64 -29 -23 -57 -44 -62 -46 -5 -1
-23 -31 -39 -66 -31 -63 -31 -63 -11 -83 10 -10 19 -25 19 -33 0 -18 76 -46
128 -46 47 0 73 11 111 46 14 13 30 23 36 21 5 -2 15 -23 22 -48 6 -24 12 -44
13 -44 8 0 29 -205 23 -221 -15 -38 -120 -55 -211 -33 -63 16 -74 26 -70 66 5
44 -22 45 -53 2 -18 -26 -21 -37 -13 -68 7 -29 17 -40 50 -56 23 -11 49 -27
59 -35 13 -11 43 -15 115 -15 90 0 100 2 146 30 31 20 56 44 68 68 17 35 17
47 6 135 -6 53 -25 140 -42 192 -16 52 -31 109 -32 125 -17 179 -65 229 -171
173z m53 -134 c4 -59 -12 -90 -59 -114 -74 -38 -144 -7 -114 51 23 43 130 114
160 105 6 -1 11 -20 13 -42z"/>
<path d="M9645 6286 c-37 -16 -83 -68 -91 -102 -9 -34 4 -59 46 -86 19 -13 41
-36 48 -51 7 -15 22 -31 32 -37 28 -15 137 -24 152 -13 7 5 39 20 70 32 62 25
91 57 84 95 -14 80 -100 142 -216 157 -30 4 -64 10 -75 13 -11 3 -34 0 -50 -8z
m217 -113 c25 -23 26 -27 12 -48 -17 -26 -74 -45 -136 -45 -53 0 -61 6 -45 32
10 16 9 22 -5 32 -10 7 -18 20 -18 29 0 28 31 38 100 32 51 -5 71 -11 92 -32z"/>
<path d="M13568 6119 c-55 -41 -17 -109 52 -94 36 8 60 42 35 51 -8 3 -15 14
-15 25 0 10 -9 23 -19 29 -24 13 -21 13 -53 -11z"/>
<path d="M9605 5574 c-14 -15 -28 -39 -32 -53 -3 -14 -12 -35 -19 -46 -7 -11
-25 -51 -39 -89 -14 -38 -37 -88 -51 -111 -13 -23 -24 -47 -24 -54 0 -14 -76
-111 -98 -125 -8 -4 -42 -34 -77 -65 -34 -31 -93 -78 -131 -104 -43 -28 -74
-58 -83 -77 -7 -17 -12 -32 -10 -33 34 -21 60 -29 71 -20 7 6 24 13 38 16 56
14 160 94 289 223 32 31 123 203 168 314 18 47 45 106 59 133 34 63 30 111 -8
115 -20 2 -35 -5 -53 -24z"/>
<path d="M3230 5296 c-69 -26 -137 -76 -210 -156 -83 -90 -105 -124 -132 -195
-25 -68 -23 -160 7 -280 33 -132 73 -211 132 -255 25 -19 62 -51 83 -72 39
-38 103 -57 154 -44 23 6 24 4 29 -72 2 -42 0 -85 -5 -95 -7 -13 -6 -40 3 -81
l12 -62 -49 -46 c-27 -26 -62 -65 -79 -88 -16 -23 -52 -68 -80 -100 -79 -90
-118 -139 -138 -173 -11 -18 -33 -47 -49 -65 -16 -19 -40 -51 -54 -73 -21 -34
-23 -43 -12 -57 17 -22 30 -32 44 -32 11 0 128 150 169 215 10 17 44 57 75 90
31 33 69 79 85 103 16 24 40 52 55 62 l26 19 -3 -77 c-1 -42 -5 -126 -8 -187
-10 -244 -12 -397 -6 -527 3 -75 3 -142 -1 -150 -4 -7 -9 -20 -12 -30 -4 -14
-11 -15 -47 -7 -24 6 -48 14 -54 18 -13 11 -64 25 -140 41 -89 18 -155 42
-155 57 0 7 10 31 21 53 17 33 20 52 16 91 -7 53 -52 148 -77 160 -94 45 -161
53 -205 25 -13 -9 -38 -36 -54 -60 -26 -37 -29 -49 -22 -73 5 -15 12 -47 14
-70 l5 -41 -72 -7 c-71 -7 -181 -12 -366 -18 -145 -5 -251 -17 -298 -34 -23
-8 -49 -13 -56 -10 -7 3 -51 -2 -97 -10 -110 -20 -318 -21 -384 -2 -50 14 -50
15 -47 53 2 21 -7 72 -20 114 -19 66 -30 85 -74 130 -51 50 -54 52 -108 52
-41 0 -65 -6 -89 -22 -35 -23 -77 -85 -77 -114 0 -10 -5 -32 -12 -50 -10 -28
-9 -36 5 -52 9 -10 17 -26 17 -35 0 -8 16 -29 35 -45 30 -24 35 -34 30 -58 -3
-16 -8 -123 -10 -239 -7 -276 -13 -412 -20 -455 -4 -19 -8 -47 -9 -61 -1 -14
-6 -30 -9 -37 -20 -30 -26 -129 -13 -209 7 -49 6 -53 -16 -63 -29 -14 -113
-137 -128 -187 -10 -37 -9 -39 27 -71 36 -31 42 -33 103 -30 36 1 89 -4 118
-11 68 -17 131 -2 167 41 38 45 33 89 -20 179 -43 73 -45 78 -36 125 5 26 10
118 11 203 0 85 2 157 4 160 6 9 26 274 30 401 3 63 5 116 5 118 1 2 19 -12
42 -31 22 -19 55 -37 72 -40 18 -3 57 -11 87 -18 30 -7 84 -13 120 -14 36 0
75 -6 87 -13 27 -15 100 -15 213 -1 47 5 148 12 225 14 152 5 201 9 315 30
125 23 164 33 209 51 29 11 46 13 53 6 6 -6 8 -66 4 -168 -3 -88 -5 -185 -5
-216 0 -31 -5 -83 -10 -115 -6 -32 -13 -87 -15 -123 -2 -36 -7 -77 -11 -92 -5
-19 -2 -32 9 -44 11 -10 16 -30 14 -56 -2 -33 -10 -48 -48 -84 -50 -48 -102
-142 -118 -212 -13 -54 0 -62 94 -60 91 2 230 -9 274 -22 19 -5 63 -10 98 -10
60 0 109 20 134 55 19 27 -15 155 -57 210 -32 41 -32 49 8 104 31 42 226 430
241 476 3 11 21 49 38 85 26 50 38 64 53 63 11 -2 53 -3 94 -4 86 -1 94 -7
181 -139 16 -25 49 -72 72 -105 61 -86 148 -222 148 -231 0 -4 11 -21 24 -38
12 -17 31 -47 41 -66 20 -40 61 -91 81 -103 8 -4 26 -1 43 7 32 17 32 39 -2
86 -36 51 -89 135 -123 197 -20 34 -39 65 -44 68 -4 3 -33 42 -64 88 -31 45
-74 107 -96 137 -46 64 -49 74 -17 67 12 -3 42 -11 67 -17 89 -22 282 -25 344
-5 23 7 60 15 83 18 23 3 56 12 74 21 20 10 58 16 100 16 52 0 79 6 117 25 28
14 65 25 83 25 19 1 51 7 72 14 20 8 39 11 42 7 7 -12 -45 -113 -80 -156 -18
-22 -42 -59 -54 -83 -12 -24 -37 -60 -56 -81 -19 -21 -35 -45 -36 -52 0 -8
-11 -34 -24 -59 -13 -25 -28 -54 -34 -65 -5 -11 -33 -45 -61 -75 -48 -52 -51
-57 -47 -99 4 -32 -1 -55 -14 -80 -26 -48 -25 -77 4 -85 56 -15 45 -29 171
234 9 19 21 42 26 50 5 8 27 51 48 95 21 44 61 112 90 150 28 39 68 99 90 135
50 84 68 87 110 20 17 -27 38 -50 47 -50 9 0 15 -9 15 -23 0 -27 19 -58 71
-112 36 -39 55 -102 36 -121 -14 -14 -7 -54 9 -54 14 0 14 -3 4 -15 -13 -16
-10 -132 5 -155 4 -7 8 -32 9 -57 1 -41 -2 -48 -41 -79 -51 -42 -105 -117
-102 -142 1 -9 -1 -25 -6 -35 -11 -27 25 -70 66 -78 18 -4 137 -5 263 -3 246
4 246 4 246 57 0 46 -89 201 -122 212 -10 4 -18 13 -18 21 0 8 -3 14 -8 14 -4
0 -19 11 -34 25 l-28 25 26 58 c14 31 27 80 29 107 1 28 9 73 16 100 18 65 18
288 0 472 -13 141 -10 193 9 193 6 0 15 -11 20 -24 9 -26 25 -39 52 -43 9 -1
33 -14 52 -27 20 -13 69 -34 108 -46 70 -22 87 -26 142 -33 14 -2 31 -8 38
-14 7 -6 36 -14 63 -18 28 -5 65 -16 84 -26 40 -21 136 -43 156 -35 7 2 26 1
41 -3 28 -7 40 -6 184 23 41 8 101 15 133 15 63 1 142 31 202 76 17 14 40 25
49 25 9 0 30 7 45 15 16 8 31 11 35 8 6 -7 2 -87 -11 -203 -3 -30 -6 -80 -7
-110 -1 -30 -6 -75 -11 -100 -5 -25 -8 -49 -6 -54 1 -5 -13 -25 -31 -45 -40
-43 -78 -111 -78 -139 0 -11 -7 -25 -15 -32 -8 -6 -26 -33 -41 -58 -15 -26
-44 -69 -66 -96 -21 -27 -38 -54 -38 -61 0 -7 -16 -37 -36 -66 -88 -132 -105
-211 -47 -225 32 -8 49 10 97 101 21 39 49 85 63 104 14 18 41 69 60 113 18
44 42 92 52 107 10 14 28 46 40 71 21 46 77 120 90 120 22 0 116 -108 142
-164 24 -52 36 -66 69 -81 22 -10 40 -23 40 -29 0 -6 -18 -31 -40 -56 -22 -25
-40 -48 -40 -52 0 -5 -15 -29 -33 -55 -47 -66 -63 -109 -48 -127 18 -21 87
-24 176 -8 103 18 155 19 235 3 131 -27 135 -26 150 8 7 18 10 49 7 71 -5 39
-86 210 -113 241 -11 13 -13 26 -6 60 13 62 12 43 16 514 3 337 0 440 -10 475
-13 43 -13 45 13 66 22 17 26 28 26 67 -2 97 -52 187 -104 187 -11 0 -19 5
-19 10 0 6 -18 8 -45 5 -26 -3 -45 -2 -45 4 0 17 -62 -7 -91 -35 -25 -23 -27
-31 -23 -87 2 -34 6 -72 9 -84 9 -38 -9 -26 -59 36 -25 33 -69 84 -96 114
l-49 54 10 159 c5 87 10 179 9 202 -1 47 13 74 35 66 22 -9 168 15 184 30 9 8
27 17 41 21 26 6 60 36 131 112 40 42 57 76 90 175 20 62 21 73 9 140 -14 85
-14 96 -5 124 4 14 1 27 -10 38 -9 9 -37 47 -62 84 -61 89 -145 169 -208 198
-72 33 -198 42 -285 19 -36 -9 -93 -20 -127 -25 -34 -5 -77 -16 -97 -24 -40
-16 -133 -100 -147 -131 -5 -11 -18 -33 -29 -50 -39 -61 -56 -171 -40 -258 18
-95 51 -187 71 -197 10 -6 19 -16 19 -22 0 -22 192 -173 233 -183 15 -4 30
-11 33 -16 3 -5 16 -9 30 -9 14 0 33 -4 43 -10 16 -8 17 -15 9 -57 -6 -26 -12
-95 -13 -153 -9 -250 -8 -244 -56 -307 -24 -32 -65 -84 -91 -116 -27 -32 -48
-62 -48 -66 0 -4 -10 -13 -23 -20 -12 -6 -29 -22 -37 -35 -60 -94 -68 -102
-120 -119 -29 -9 -66 -17 -82 -17 -16 0 -37 -4 -47 -9 -45 -25 -278 -12 -347
18 -23 11 -57 22 -75 26 -18 4 -40 11 -49 15 -60 30 -193 72 -217 69 -10 -1
-29 2 -43 8 -14 6 -50 16 -80 24 -30 7 -56 14 -58 15 -2 1 7 19 19 40 17 32
20 49 16 96 -6 71 -34 118 -95 161 -43 29 -54 32 -122 32 -68 0 -78 -3 -113
-30 -45 -36 -51 -53 -38 -100 7 -26 6 -42 -4 -62 -12 -23 -12 -30 5 -53 11
-15 21 -43 24 -63 4 -32 1 -37 -25 -49 -16 -7 -29 -16 -29 -20 0 -5 -84 -38
-97 -38 -8 0 -1 69 16 148 18 82 43 251 40 269 -1 4 -1 24 0 44 1 27 6 38 19
42 21 5 32 44 32 108 0 27 4 39 14 39 8 0 17 -4 21 -9 7 -13 94 -71 104 -71 4
0 28 -15 52 -33 24 -19 60 -42 79 -52 41 -20 90 -64 90 -80 0 -17 51 -62 83
-74 15 -6 32 -21 38 -35 13 -28 84 -70 104 -62 19 7 19 45 0 69 -67 90 -310
307 -342 307 -7 0 -18 6 -25 13 -31 30 -138 106 -171 122 -62 29 -67 40 -69
162 0 61 2 115 5 121 4 5 24 12 44 15 131 16 227 53 317 122 25 19 50 35 54
35 10 0 57 50 66 70 3 8 17 33 30 54 42 71 19 181 -64 301 -44 64 -226 225
-291 257 -80 39 -213 67 -275 59 -58 -8 -161 -68 -254 -148 -20 -18 -42 -33
-48 -33 -6 0 -31 -39 -54 -87 l-43 -88 0 -120 c0 -112 2 -124 28 -177 16 -31
48 -78 73 -104 24 -27 44 -51 44 -54 0 -4 21 -21 46 -39 38 -26 61 -34 128
-41 44 -6 83 -10 86 -10 3 0 6 -56 7 -125 l2 -125 -35 -38 c-18 -20 -39 -41
-45 -47 -66 -60 -225 -248 -304 -359 -22 -31 -42 -56 -45 -56 -11 0 -50 -77
-50 -98 0 -14 10 -24 31 -31 18 -6 34 -11 37 -11 15 0 97 101 122 149 15 31
60 90 100 131 39 41 85 94 101 116 17 23 41 46 54 52 21 10 23 8 28 -21 2 -18
-2 -45 -10 -61 -10 -20 -15 -55 -13 -110 2 -105 2 -92 -4 -163 -2 -34 -9 -70
-15 -81 -11 -21 -24 -102 -25 -167 -1 -35 -5 -40 -26 -43 -14 -1 -43 -7 -65
-13 -22 -6 -89 -20 -150 -31 -196 -34 -215 -38 -258 -54 -23 -9 -65 -19 -94
-24 -28 -4 -57 -11 -63 -15 -10 -6 -142 -18 -190 -17 -8 0 -62 5 -120 12 -58
7 -127 13 -155 14 -104 5 -207 37 -225 71 -12 23 -11 179 4 360 2 28 0 70 -6
95 -6 29 -6 87 1 165 6 66 11 158 12 205 1 46 4 92 7 102 6 23 27 29 60 16 15
-6 56 -14 92 -18 117 -14 264 -39 330 -55 68 -17 161 -33 246 -41 38 -4 53 -2
63 10 30 36 -18 80 -105 95 -123 21 -181 33 -225 47 -26 8 -71 14 -100 14 -83
0 -346 58 -359 80 -3 4 -5 91 -4 191 l0 184 67 11 c37 6 75 17 84 26 10 8 39
23 66 32 38 14 61 35 120 104 40 48 86 109 101 136 53 92 45 219 -21 351 -54
106 -204 274 -271 302 -93 40 -235 53 -302 29z m258 -123 c53 -28 140 -96 168
-131 12 -15 41 -65 65 -111 41 -79 44 -88 44 -165 0 -68 -4 -90 -27 -137 -39
-78 -129 -161 -225 -207 -75 -36 -82 -37 -183 -36 -90 0 -113 4 -160 26 -31
14 -72 40 -93 57 -70 62 -117 198 -117 341 0 74 4 93 30 148 39 84 116 159
210 206 72 36 79 37 160 34 64 -2 95 -8 128 -25z m1423 -387 c35 -2 65 -9 67
-15 2 -6 12 -11 22 -11 10 0 22 -5 25 -10 4 -6 24 -22 44 -35 95 -59 229 -207
246 -270 18 -68 10 -111 -30 -159 -21 -25 -43 -46 -50 -46 -7 0 -23 -8 -36
-19 -96 -74 -275 -132 -337 -109 -24 9 -36 9 -56 -1 -21 -12 -36 -11 -103 4
-43 10 -90 26 -104 36 -14 10 -50 59 -81 109 -54 90 -55 93 -52 156 2 38 13
84 28 116 28 63 117 158 166 178 19 7 49 24 65 36 30 23 104 53 116 48 3 -2
35 -5 70 -8z m1968 -198 c76 -29 166 -119 212 -213 32 -66 34 -75 34 -175 -1
-129 -22 -186 -96 -255 -71 -67 -125 -88 -236 -93 -152 -7 -274 39 -367 137
-67 72 -97 144 -103 245 -7 112 12 177 73 245 56 63 94 83 216 116 107 29 175
27 267 -7z m-1734 -1332 c40 -17 55 -42 55 -94 0 -54 -19 -69 -73 -55 -23 6
-50 8 -62 3 -29 -11 -41 -2 -49 39 -11 60 2 97 37 109 45 14 53 14 92 -2z
m-4053 -37 c29 -21 78 -114 78 -149 0 -15 -53 -80 -65 -80 -3 0 -5 10 -5 23 0
32 -18 47 -49 41 -17 -4 -38 2 -61 18 -30 20 -35 30 -38 69 -6 88 68 129 140
78z m6020 9 c9 -7 18 -31 20 -53 3 -39 2 -40 -31 -43 -19 -2 -54 2 -78 9 -39
10 -44 15 -41 37 2 20 13 29 53 43 62 22 58 21 77 7z m-4324 -30 c17 -11 32
-20 32 -21 19 -85 -2 -118 -78 -124 -50 -4 -52 -3 -82 38 -34 48 -36 59 -15
99 23 44 78 47 143 8z m3851 -85 c0 -27 2 -64 6 -84 8 -41 -3 -54 -55 -62 -19
-3 -57 -10 -84 -16 -27 -6 -51 -10 -52 -8 -2 2 21 28 51 58 30 30 71 78 92
106 21 29 39 53 40 53 2 0 2 -21 2 -47z m136 17 c11 -16 30 -35 42 -41 35 -19
28 -36 -23 -53 -55 -19 -67 -14 -52 19 8 18 8 35 1 60 -17 53 1 62 32 15z
m318 -142 c29 -28 33 -37 26 -56 -5 -13 -6 -29 -2 -35 4 -6 6 -25 5 -41 -2
-16 3 -33 10 -37 9 -6 9 -11 -2 -24 -18 -22 -26 -280 -10 -311 9 -16 9 -27 1
-42 -13 -25 -14 -69 -2 -77 5 -3 7 -31 5 -63 -2 -31 -6 -85 -9 -119 -2 -35 -6
-67 -10 -73 -3 -5 -3 -32 0 -59 7 -59 -5 -70 -78 -69 -42 1 -46 3 -42 22 12
60 24 240 20 306 -20 299 -22 554 -5 625 9 40 39 85 55 85 2 0 19 -15 38 -32z
m-1988 -31 c3 -7 7 -55 9 -107 2 -52 4 -95 5 -95 1 0 12 -247 15 -368 2 -53 5
-100 9 -103 6 -7 -11 -63 -25 -81 -6 -7 -12 -41 -15 -75 -2 -35 -8 -72 -13
-83 -5 -11 -16 -37 -24 -57 -25 -63 -69 -45 -81 33 -3 24 -1 105 6 179 6 74
12 164 14 200 1 36 7 81 13 100 6 19 14 82 17 140 9 160 24 290 35 311 12 22
28 25 35 6z m-2325 -66 c0 -6 -5 -13 -10 -16 -8 -5 -7 -11 1 -21 8 -10 9 -22
1 -41 -10 -29 -11 -147 -1 -157 10 -10 1 -129 -12 -154 -10 -18 -10 -27 -1
-42 16 -26 15 -65 -4 -147 -14 -60 -15 -140 -3 -243 1 -8 1 -32 1 -53 -2 -34
-6 -40 -38 -53 -20 -8 -42 -13 -49 -10 -21 8 -28 88 -16 178 6 46 14 119 16
163 3 44 8 98 13 120 5 22 9 108 10 190 3 215 9 254 37 261 13 3 26 12 29 20
6 16 26 19 26 5z m-1700 -18 c0 -3 -7 -15 -16 -25 -16 -16 -15 -22 1 -79 11
-40 14 -74 10 -98 -4 -20 -9 -79 -12 -131 -2 -52 -6 -113 -9 -135 -3 -22 -7
-74 -8 -117 -2 -42 -6 -81 -10 -86 -3 -5 2 -31 11 -57 13 -40 14 -56 4 -99 -6
-29 -9 -59 -6 -68 8 -21 -17 -38 -44 -31 -24 6 -24 6 -17 122 4 64 11 148 16
186 10 78 27 331 34 505 3 63 5 116 5 118 2 5 41 1 41 -5z m5807 -86 c0 -46 3
-89 7 -96 4 -6 2 -18 -4 -26 -7 -9 -9 -22 -5 -32 5 -10 9 -54 10 -98 3 -102
13 -155 31 -155 18 0 18 -9 -2 -32 -14 -14 -17 -43 -19 -148 -1 -117 -10 -167
-22 -133 -7 19 -75 116 -101 143 -13 14 -39 49 -57 78 -37 56 -36 56 -21 235
3 28 8 95 11 147 8 102 17 130 42 130 9 0 31 11 49 25 18 14 39 25 48 25 8 0
18 5 21 10 12 19 13 10 12 -73z m-1943 -62 c-6 -104 -5 -113 12 -123 17 -10
17 -11 2 -17 -19 -7 -34 -55 -20 -64 5 -3 -1 -25 -14 -49 l-23 -43 -16 23
c-86 119 -156 262 -137 279 4 4 41 26 84 49 42 22 82 47 88 55 25 30 31 3 24
-110z m-2044 37 c0 -5 12 -15 28 -23 15 -7 50 -28 77 -46 28 -17 64 -35 80
-39 17 -4 36 -11 42 -16 7 -6 24 -7 38 -4 20 5 23 3 18 -11 -3 -10 -10 -23
-14 -29 -5 -6 -15 -30 -23 -53 -19 -53 -38 -96 -87 -196 -21 -45 -39 -86 -39
-91 0 -6 -18 -39 -40 -72 -22 -34 -55 -90 -73 -124 -18 -34 -38 -63 -43 -65
-16 -5 -23 203 -14 412 1 44 2 127 1 185 -3 133 5 180 30 180 11 0 19 -4 19
-8z m4242 -924 c2 -13 10 -23 18 -23 16 0 33 -62 19 -71 -5 -3 -64 -7 -131
-10 -68 -2 -131 -7 -140 -10 -24 -7 -23 6 5 47 27 40 78 68 127 69 19 0 42 5
50 10 26 17 48 11 52 -12z m-4342 4 c0 -4 15 -14 34 -20 34 -12 74 -71 62 -91
-10 -16 -117 -18 -159 -4 -22 8 -67 14 -101 14 -96 0 -106 1 -106 9 0 9 48 70
68 85 15 12 202 18 202 7z m-1835 -32 c3 -5 23 -10 43 -10 34 0 39 -4 64 -52
21 -39 25 -54 15 -60 -17 -11 -55 -10 -99 2 -24 7 -61 8 -103 2 -36 -5 -65 -7
-65 -4 0 15 68 113 84 121 28 13 53 13 61 1z m4183 -20 c13 -16 29 -30 37 -30
15 0 30 -35 20 -50 -7 -12 -305 -14 -305 -2 1 12 101 86 134 99 56 21 90 16
114 -17z"/>
<path d="M21848 4825 c-4 -4 -64 -9 -135 -10 -192 -6 -331 -20 -398 -43 -80
-26 -119 -33 -255 -42 -68 -4 -149 -3 -198 3 -75 9 -84 8 -103 -9 -18 -16 -35
-18 -142 -15 -128 3 -146 3 -187 0 -14 -1 -101 4 -195 11 -152 10 -567 8 -850
-5 -234 -11 -626 -6 -744 10 -19 2 -86 9 -150 15 -160 14 -309 28 -416 40
-196 21 -508 32 -585 21 -178 -25 -454 -30 -625 -11 -55 6 -172 11 -259 11
-142 0 -163 -2 -185 -19 -29 -22 -28 -14 -15 -197 10 -129 10 -163 2 -505 -4
-170 -12 -269 -31 -405 -15 -99 -32 -216 -38 -260 -6 -44 -15 -105 -21 -135
-5 -30 -12 -75 -14 -100 -2 -25 -8 -76 -14 -115 -6 -38 -15 -115 -20 -170 -6
-55 -12 -109 -15 -120 -2 -12 0 -93 6 -180 5 -88 12 -200 14 -250 3 -49 9
-115 15 -145 18 -91 29 -226 35 -395 10 -314 14 -361 38 -383 30 -27 118 -40
277 -41 193 -2 269 -7 315 -20 28 -9 66 -10 129 -3 49 4 109 5 134 2 24 -4 83
-3 130 1 99 10 278 19 465 23 80 2 132 7 139 14 7 7 43 12 84 12 39 0 84 5
100 10 34 12 152 31 209 34 22 1 45 5 52 9 12 7 32 9 110 8 23 0 45 4 48 9 4
6 11 8 16 4 5 -3 31 -1 57 5 108 25 212 42 292 46 106 7 255 22 297 30 17 4
39 3 48 -3 10 -5 35 -6 59 -2 84 16 530 32 841 32 55 0 116 0 135 1 64 2 133
1 295 -3 151 -3 360 9 505 30 36 5 88 13 115 16 28 4 57 8 65 10 38 8 80 14
135 19 33 4 74 10 90 14 17 4 46 4 65 -1 48 -11 428 -11 465 0 38 12 297 7
351 -6 21 -5 61 -8 89 -8 48 1 50 2 74 45 21 38 25 62 29 150 2 59 -1 169 -7
246 -6 77 -14 174 -17 215 -2 41 -10 116 -16 165 -6 50 -11 101 -11 115 0 14
-4 63 -9 110 -10 98 -13 424 -4 438 9 16 17 244 21 612 2 184 9 382 14 440 6
58 15 163 21 234 6 71 15 148 20 170 8 33 7 51 -7 90 -17 44 -22 50 -63 62
-25 8 -79 14 -120 15 -41 0 -100 5 -130 10 -106 17 -195 31 -230 34 -130 13
-186 16 -192 10z m-5092 -146 c17 -5 49 -9 70 -8 22 1 77 -4 123 -10 61 -7
149 -7 325 1 267 13 414 14 556 4 52 -4 131 -9 175 -12 99 -6 118 -8 230 -28
50 -9 101 -16 115 -16 109 -1 492 -27 550 -37 45 -8 231 -7 545 2 474 14 689
16 738 6 65 -13 557 -18 732 -8 282 16 297 18 396 51 53 18 121 33 150 35 30
1 71 6 91 12 22 5 52 6 75 1 25 -6 73 -4 133 4 138 19 350 10 478 -22 39 -9
76 -12 95 -8 38 8 109 6 119 -4 8 -8 12 -107 5 -137 -3 -11 -8 -58 -11 -105
-4 -47 -11 -116 -16 -155 -5 -38 -12 -261 -15 -495 -3 -234 -9 -459 -13 -500
-17 -181 0 -696 28 -823 4 -20 4 -52 0 -71 -4 -19 -2 -72 5 -122 35 -242 37
-423 5 -445 -9 -6 -35 -7 -65 -3 -76 11 -162 14 -362 14 -182 0 -183 1 -184
23 -2 40 -7 74 -18 113 -5 22 -12 95 -16 164 -3 69 -7 172 -10 230 -3 58 -7
148 -10 200 -2 52 -7 149 -11 215 -9 179 -12 205 -31 263 l-17 53 -96 -7 c-52
-4 -104 -11 -114 -17 -11 -5 -60 -9 -109 -8 -48 1 -103 -3 -121 -9 -19 -6
-162 -12 -347 -14 -415 -5 -749 -19 -774 -33 -34 -18 -103 -26 -255 -28 -224
-4 -238 -15 -210 -170 10 -55 23 -112 29 -128 6 -16 8 -67 5 -125 -3 -53 -7
-220 -9 -370 -2 -151 -9 -313 -16 -362 l-12 -88 -96 -6 c-53 -4 -121 -11 -151
-16 -30 -5 -154 -12 -275 -15 -241 -7 -281 -10 -320 -25 -15 -6 -30 -8 -35 -5
-5 3 -39 -2 -77 -11 -74 -17 -77 -18 -263 -38 -135 -16 -177 -22 -256 -37 -29
-5 -63 -7 -76 -4 -26 7 -246 -31 -263 -45 -6 -5 -48 -4 -95 2 -47 5 -132 7
-190 4 -406 -23 -438 -23 -849 -13 -140 4 -248 11 -255 17 -7 5 -18 33 -24 62
-10 48 -16 92 -38 290 -3 31 -7 89 -8 130 -2 40 -10 134 -19 208 -26 216 -35
366 -31 495 3 108 31 368 53 500 12 72 40 259 51 335 5 36 14 101 20 145 6 44
14 94 16 110 4 26 14 354 18 600 1 81 -10 242 -20 282 -6 21 -3 22 78 25 92 3
128 1 174 -13z m4898 -1764 c10 -26 17 -133 21 -325 6 -268 35 -724 50 -780
l6 -25 -163 0 c-111 0 -193 -6 -258 -18 -52 -10 -107 -19 -123 -22 -15 -2 -31
-6 -35 -9 -7 -4 -166 -15 -287 -20 l-30 -1 0 550 c-1 411 -4 556 -13 572 -22
40 -16 43 86 39 94 -4 378 8 434 17 14 3 34 9 44 15 9 5 33 7 53 5 20 -3 52 0
71 5 57 16 137 15 144 -3z m-933 -69 c5 -16 9 -126 9 -245 2 -239 2 -791 1
-860 l-1 -44 -132 8 c-148 9 -174 9 -539 -1 -154 -4 -259 -3 -262 3 -3 5 -1
70 4 144 5 73 11 206 13 294 3 88 7 228 11 310 7 136 5 157 -14 226 -11 41
-21 87 -21 101 0 34 22 39 154 34 65 -2 110 1 130 9 39 16 264 37 391 36 28 0
66 4 85 9 19 5 64 8 99 7 62 -2 65 -3 72 -31z"/>
<path d="M21695 4340 c-3 -5 1 -45 9 -88 20 -104 20 -261 1 -268 -7 -3 -39 0
-69 6 -67 14 -86 9 -115 -30 l-22 -30 23 -23 c14 -14 53 -31 96 -42 39 -10 72
-24 72 -31 0 -24 -41 -173 -55 -200 -8 -16 -15 -37 -15 -46 0 -18 48 -68 65
-68 39 2 100 127 111 227 7 62 26 93 55 93 10 0 21 5 24 10 3 6 48 10 101 10
l94 0 0 29 c0 16 -7 34 -16 41 -19 16 -90 30 -169 33 l-60 2 -12 125 c-6 69
-14 134 -16 145 -3 11 -8 32 -12 48 -10 49 -71 88 -90 57z"/>
<path d="M19520 4230 c-25 -16 -51 -30 -58 -30 -14 0 -43 -60 -35 -73 2 -4 21
-14 41 -22 33 -15 40 -14 87 5 67 27 120 28 179 1 54 -23 76 -46 69 -70 -7
-26 -87 -71 -136 -77 -42 -6 -47 -4 -56 17 -5 13 -12 41 -16 62 -5 33 -9 37
-35 37 -18 0 -34 -8 -44 -22 -18 -25 -21 -99 -7 -126 16 -30 32 -331 19 -379
-18 -73 5 -108 64 -95 25 5 30 30 31 168 l1 124 30 -28 c43 -39 66 -68 108
-135 73 -118 139 -168 189 -143 32 15 35 41 9 63 -53 45 -103 102 -127 143
-15 25 -36 56 -48 70 -28 31 -95 132 -95 142 0 5 6 8 14 8 7 0 45 14 84 31 59
26 75 39 102 81 30 45 31 51 19 81 -18 48 -101 123 -161 147 -29 12 -66 28
-81 36 -44 22 -96 16 -147 -16z"/>
<path d="M18305 4214 c-21 -14 -60 -37 -88 -51 -56 -30 -136 -130 -208 -260
-22 -40 -45 -73 -50 -73 -5 0 -25 18 -45 39 -19 22 -70 61 -112 87 -42 26 -93
57 -113 71 -59 39 -202 83 -271 83 -53 0 -66 -4 -108 -35 -50 -37 -97 -99
-111 -147 -14 -50 58 -363 93 -406 15 -18 0 -29 -47 -35 -169 -22 -322 -58
-389 -91 -62 -31 -73 -41 -89 -79 -28 -68 -27 -202 2 -258 25 -49 117 -148
171 -185 19 -13 45 -31 57 -39 11 -9 38 -18 60 -20 21 -2 98 -18 171 -35 76
-18 150 -30 173 -28 21 2 39 2 39 -1 0 -2 -13 -58 -29 -125 -16 -67 -37 -159
-47 -206 -10 -47 -33 -114 -51 -149 -36 -69 -41 -116 -19 -159 21 -40 112 -79
162 -69 13 2 27 1 29 -4 8 -13 97 -9 150 7 28 8 68 17 90 20 50 7 104 38 178
104 57 51 141 148 150 172 3 9 9 7 21 -7 20 -25 20 -35 1 -35 -19 0 -20 -43
-1 -59 7 -6 16 -24 19 -40 4 -16 19 -38 34 -48 44 -30 149 -64 201 -65 80 -1
186 17 212 35 13 9 34 17 46 17 12 0 35 13 52 28 16 15 46 40 65 55 70 53 60
150 -34 364 -33 76 -73 171 -89 211 l-28 72 26 6 c15 3 41 9 57 13 17 4 41 4
55 1 33 -9 81 -1 102 17 9 8 31 22 50 31 40 21 77 75 112 167 41 111 33 218
-23 298 -26 38 -124 107 -171 122 -14 4 -31 12 -37 17 -7 6 -36 13 -65 17 -52
6 -53 7 -50 36 2 17 11 48 19 70 25 65 26 99 9 197 -26 145 -59 227 -115 284
-49 50 -123 94 -158 94 -11 0 -37 -12 -58 -26z m128 -128 c36 -33 56 -77 74
-159 27 -130 28 -209 2 -292 l-23 -75 -172 0 -172 0 -46 64 c-25 36 -46 71
-46 79 0 22 71 167 81 167 5 0 9 6 9 14 0 23 89 150 123 174 76 56 130 65 170
28z m-888 -119 c39 -12 94 -38 124 -59 30 -21 58 -38 63 -38 15 0 102 -72 141
-116 31 -35 37 -47 28 -58 -7 -8 -28 -46 -47 -86 -20 -39 -41 -73 -47 -75 -7
-2 -96 -6 -199 -9 -146 -4 -189 -2 -197 8 -20 24 -72 161 -82 216 -20 111 -21
157 -3 184 9 14 22 26 29 26 7 0 23 9 36 20 27 22 44 21 154 -13z m885 -538
c0 -3 -9 -24 -20 -47 -11 -22 -20 -47 -20 -55 0 -8 -7 -20 -15 -27 -8 -7 -15
-21 -15 -31 0 -43 -22 -23 -69 63 -47 87 -49 93 -30 98 27 7 169 6 169 -1z
m-305 -50 c20 -28 39 -58 42 -67 4 -10 15 -29 25 -44 25 -36 88 -165 88 -179
0 -17 -50 -142 -61 -154 -12 -12 -93 -34 -149 -39 -25 -3 -67 -12 -95 -20 -97
-30 -108 -24 -215 123 -58 80 -63 104 -31 149 10 15 21 36 25 48 3 11 21 43
38 70 18 27 44 69 59 94 25 43 30 45 90 56 35 6 83 12 106 13 39 1 43 -2 78
-50z m630 18 c77 -32 106 -80 107 -175 3 -168 -88 -238 -304 -230 l-83 3 -29
55 -29 55 18 50 c10 28 26 62 36 76 10 14 21 38 25 55 4 16 10 34 14 39 4 6
11 21 15 35 4 14 17 36 29 49 19 21 27 23 83 18 34 -4 87 -17 118 -30z m-1023
0 c3 -6 -7 -26 -22 -46 -16 -20 -41 -60 -55 -88 -14 -29 -31 -53 -38 -53 -11
0 -46 46 -72 95 -6 11 -19 33 -29 48 -11 15 -17 30 -14 32 17 17 220 27 230
12z m-325 -79 c22 -35 48 -79 58 -98 10 -19 35 -58 57 -87 21 -29 38 -61 38
-71 0 -10 -13 -45 -28 -78 -16 -32 -35 -74 -43 -91 -7 -18 -18 -34 -24 -36 -5
-2 -95 13 -200 34 -216 43 -273 66 -336 138 -51 57 -69 100 -69 161 0 42 4 52
33 76 38 32 94 58 122 56 11 -1 47 5 80 13 33 8 85 17 115 21 30 3 64 10 75
15 11 4 34 8 51 8 28 1 36 -6 71 -61z m277 -404 c25 -54 14 -74 -40 -74 -24 0
-44 4 -44 10 0 24 44 108 55 104 6 -3 19 -21 29 -40z m789 -179 c28 -55 56
-113 63 -130 7 -16 30 -70 52 -120 41 -92 58 -162 45 -180 -9 -13 -93 -63
-145 -87 -21 -9 -68 -20 -105 -23 l-68 -7 -37 40 c-39 42 -148 212 -148 231 0
7 14 42 31 79 47 101 75 164 88 197 21 53 45 76 96 90 28 7 56 13 64 12 8 -1
37 -47 64 -102z m-323 36 c0 -6 -4 -12 -9 -15 -5 -4 -22 -39 -37 -79 -39 -103
-56 -120 -68 -72 -4 14 -10 25 -15 25 -11 0 -61 84 -61 103 0 10 25 19 83 29
103 20 107 20 107 9z m-331 -46 c34 -10 161 -228 161 -275 0 -25 -48 -92 -114
-161 -92 -95 -187 -134 -352 -145 -88 -7 -92 -6 -99 15 -6 21 23 170 47 236 6
17 15 57 20 90 6 33 16 76 24 95 7 19 16 51 20 70 15 78 8 75 148 78 69 2 134
1 145 -3z"/>
<path d="M17951 3253 c-17 -21 -31 -41 -31 -46 0 -4 -9 -21 -21 -36 l-21 -29
26 -45 c38 -64 50 -72 121 -72 51 0 70 5 110 30 68 42 75 70 33 133 -24 35
-48 57 -86 76 -72 36 -94 34 -131 -11z"/>
<path d="M20110 4023 c-19 -13 -41 -35 -48 -48 -16 -31 -52 -145 -52 -166 0
-9 -9 -28 -20 -42 -23 -30 -26 -53 -6 -60 8 -3 22 -21 31 -40 24 -52 73 -92
153 -127 63 -27 80 -30 124 -25 28 4 61 11 74 15 12 5 24 7 26 4 14 -13 64 30
79 68 22 54 23 68 4 68 -8 0 -15 -4 -15 -8 0 -10 -127 -42 -167 -42 -42 0
-146 46 -141 62 3 7 18 15 34 19 50 10 158 67 188 98 25 26 27 33 21 74 -6 36
-17 55 -54 92 -83 85 -165 105 -231 58z m151 -114 c21 -22 35 -47 33 -53 -7
-19 -92 -55 -142 -61 l-43 -5 7 38 c3 20 18 56 33 79 34 56 61 57 112 2z"/>
<path d="M20739 3996 c-118 -28 -202 -125 -221 -254 -9 -66 -9 -71 12 -92 24
-24 85 -48 137 -54 56 -7 144 11 170 36 l23 22 48 -47 c41 -41 53 -47 89 -47
28 0 43 5 47 16 10 26 7 34 -27 67 -37 36 -57 79 -83 182 -13 48 -28 81 -51
106 -18 20 -33 40 -33 44 0 12 -33 34 -50 33 -8 0 -36 -5 -61 -12z m80 -191
c1 -49 -10 -75 -39 -90 -35 -18 -109 -22 -137 -6 -27 14 -26 9 -11 52 19 55
59 101 113 125 l50 24 12 -38 c6 -20 12 -50 12 -67z"/>
<path d="M21280 3960 c-57 -12 -95 -33 -128 -71 -28 -32 -32 -44 -32 -95 0
-73 12 -116 46 -166 20 -29 34 -38 55 -38 15 0 30 -4 33 -8 3 -5 32 -5 66 -1
49 6 69 14 105 44 39 32 45 41 45 76 0 44 -19 52 -42 18 -21 -33 -123 -38
-161 -9 -39 31 -37 79 6 119 17 17 37 31 42 31 6 1 27 15 48 33 42 36 43 67 2
67 -13 0 -29 2 -37 4 -7 2 -29 0 -48 -4z"/>
<path d="M21425 2819 c-33 -4 -78 -12 -99 -18 -22 -5 -52 -7 -67 -4 -15 3 -50
0 -77 -7 -27 -6 -77 -12 -112 -12 -60 -1 -62 -2 -78 -34 -13 -29 -14 -42 -2
-103 8 -45 11 -107 7 -179 -5 -96 -3 -113 14 -141 22 -36 11 -35 204 -17 83 8
179 15 215 15 42 0 77 7 99 18 l33 18 -6 209 c-7 219 -17 268 -54 265 -9 -1
-44 -5 -77 -10z m35 -176 c0 -32 3 -88 6 -124 l7 -67 -31 -6 c-16 -4 -59 -9
-94 -12 -34 -2 -105 -8 -156 -12 -52 -4 -96 -4 -98 -1 -2 4 -5 56 -7 116 -2
103 -1 108 19 111 17 2 23 -4 27 -28 5 -21 15 -34 34 -41 16 -7 48 -22 73 -34
25 -13 56 -26 70 -30 14 -4 36 -16 49 -26 28 -22 41 -17 41 16 0 15 -7 26 -21
30 -11 4 -36 21 -55 37 -20 17 -49 39 -67 48 -17 9 -32 21 -34 27 -4 12 29 23
72 23 17 0 50 7 75 14 25 8 55 15 68 15 20 1 22 -3 22 -56z"/>
<path d="M21047 2179 c-23 -13 -47 -62 -47 -95 0 -42 44 -76 99 -78 43 -1 47
1 63 34 26 53 10 104 -42 130 -45 23 -48 23 -73 9z"/>
<path d="M20365 2789 c-27 -5 -72 -14 -100 -18 -27 -5 -89 -16 -136 -25 -48
-9 -100 -16 -116 -16 -59 0 -67 -27 -62 -200 2 -41 2 -30 -8 -183 -7 -105 -6
-120 9 -134 27 -25 78 -31 128 -15 68 21 85 23 210 23 154 1 290 19 303 41 8
11 7 40 -1 95 -6 43 -14 146 -18 228 -3 83 -10 157 -15 166 -12 24 -72 49
-111 48 -18 -1 -55 -5 -83 -10z m115 -116 c0 -5 1 -52 3 -106 3 -107 -7 -132
-40 -106 -10 8 -20 17 -23 20 -3 3 -27 16 -55 30 -27 13 -56 29 -63 36 -7 7
-33 29 -58 50 -40 32 -44 38 -27 44 10 4 38 8 64 8 25 1 49 5 55 10 17 17 144
29 144 14z m-348 -101 c21 -22 54 -44 77 -51 23 -6 41 -16 41 -21 0 -35 -177
27 -200 69 -9 18 -8 23 12 31 33 13 30 14 70 -28z m-19 -127 c47 -20 120 -19
163 1 35 17 59 13 144 -22 57 -24 65 -30 65 -50 0 -24 -45 -32 -175 -34 -52
-1 -117 -5 -145 -10 -27 -5 -69 -12 -92 -16 l-43 -7 0 70 c0 38 3 73 7 76 10
11 38 8 76 -8z"/>
<path d="M20428 2124 c-37 -20 -61 -66 -49 -96 14 -38 45 -59 82 -57 19 1 44
-1 56 -5 33 -11 61 10 69 49 7 39 -10 92 -36 112 -21 17 -89 15 -122 -3z"/>
<path d="M8465 4670 c-96 -14 -169 -40 -244 -90 -94 -61 -130 -99 -170 -178
-46 -91 -42 -176 16 -354 21 -65 34 -87 82 -136 66 -68 109 -85 218 -83 l73 1
-5 -52 c-3 -29 -8 -71 -11 -93 -2 -22 -7 -58 -9 -80 -14 -125 -15 -131 -48
-148 -18 -10 -72 -56 -121 -102 -49 -47 -93 -85 -98 -85 -10 0 -133 -93 -220
-167 -31 -26 -72 -71 -91 -98 -30 -45 -34 -59 -28 -106 1 -4 12 -10 27 -13 21
-6 35 3 92 58 37 36 87 79 112 97 25 17 59 45 76 63 17 17 48 42 68 56 43 29
118 89 158 125 15 14 30 25 35 25 9 0 8 -233 -1 -270 -23 -90 -50 -370 -36
-370 6 0 1 -15 -10 -32 -22 -37 -26 -110 -9 -171 10 -37 9 -39 -40 -94 -28
-31 -51 -60 -51 -64 0 -13 -72 -129 -80 -129 -12 0 -91 -128 -131 -210 -12
-25 -32 -56 -44 -70 -12 -14 -35 -47 -50 -75 -15 -27 -31 -54 -36 -59 -5 -6
-9 -16 -9 -23 0 -7 -15 -34 -34 -60 -18 -27 -36 -62 -39 -79 -5 -27 -2 -32 28
-48 44 -24 71 -14 86 32 6 20 24 53 39 72 15 19 31 51 35 70 4 19 27 64 50
100 23 36 53 83 66 105 13 22 40 62 61 89 21 26 54 80 74 120 63 125 70 125
108 3 16 -50 39 -114 52 -142 12 -27 29 -70 38 -95 8 -25 26 -76 40 -115 14
-38 26 -77 26 -85 0 -8 7 -28 15 -44 8 -15 15 -34 15 -41 0 -7 6 -15 14 -18 7
-3 16 -28 20 -58 4 -30 11 -58 16 -64 5 -6 10 -31 12 -55 3 -40 6 -45 29 -48
15 -2 31 4 39 13 21 25 -3 154 -61 325 -45 134 -63 184 -119 330 -24 63 -80
274 -80 302 0 10 -7 29 -15 42 -12 18 -13 30 -6 50 6 14 15 58 20 98 33 253
44 333 58 413 8 50 18 152 22 227 3 75 9 139 13 143 7 7 46 -33 124 -130 26
-33 60 -69 74 -80 47 -36 199 -194 214 -222 18 -35 95 -113 111 -113 7 0 16
16 19 35 11 58 -24 107 -188 270 -83 83 -168 173 -188 200 -21 28 -58 78 -83
113 -33 45 -51 62 -68 62 l-24 0 18 133 c10 72 24 159 31 192 13 57 14 59 52
67 21 5 50 17 65 27 15 11 39 23 54 26 14 4 31 13 38 21 6 8 20 14 30 14 10 0
33 15 51 33 18 17 50 45 70 60 43 31 88 95 106 148 7 20 13 72 14 116 1 109
-24 164 -111 244 -87 80 -138 105 -255 124 -102 16 -112 16 -191 5z m197 -121
c9 -5 39 -9 67 -9 45 0 55 -5 111 -51 34 -28 64 -58 66 -67 3 -10 10 -26 16
-37 15 -27 11 -131 -8 -188 -22 -66 -74 -102 -204 -143 -60 -18 -221 -18 -284
1 -55 17 -112 20 -121 6 -3 -5 9 -20 26 -34 18 -14 29 -29 25 -36 -9 -14 -43
-15 -51 -1 -3 6 -15 10 -26 10 -26 0 -89 33 -111 57 -10 10 -27 50 -39 88 -54
175 18 288 246 386 80 35 237 44 287 18z"/>
<path d="M10510 4419 c-36 -5 -80 -10 -97 -12 -18 -3 -40 -10 -49 -18 -10 -8
-31 -18 -47 -24 -24 -8 -40 -28 -76 -95 l-45 -85 0 -111 c0 -80 5 -123 17
-153 9 -23 17 -54 17 -69 l0 -28 -74 4 c-56 2 -86 -2 -125 -18 -29 -11 -60
-20 -70 -20 -10 0 -44 25 -76 56 -78 77 -149 108 -241 107 -69 -2 -70 -1 -81
27 -17 45 -67 70 -140 70 -34 0 -74 -5 -89 -10 -27 -11 -69 -56 -69 -75 0 -5
-10 -18 -22 -28 -24 -20 -34 -53 -35 -123 -2 -93 62 -158 167 -170 52 -6 53
-7 80 -60 16 -32 41 -62 60 -74 56 -35 147 -63 210 -65 33 -1 83 -6 112 -10
48 -7 52 -9 58 -42 7 -40 67 -106 122 -135 43 -22 113 -36 223 -44 83 -5 176
13 220 44 47 33 80 46 90 36 13 -13 20 -229 9 -284 -5 -25 -11 -79 -14 -120
-6 -97 -11 -136 -20 -150 -14 -23 -35 -189 -36 -285 -1 -169 -2 -172 -101
-277 -150 -161 -163 -178 -331 -431 -29 -44 -66 -104 -82 -135 -111 -206 -112
-208 -94 -241 19 -33 86 -43 95 -14 14 46 103 219 168 328 40 66 85 141 100
167 14 26 34 53 44 60 9 7 30 31 47 53 32 44 155 165 168 165 4 0 7 -9 7 -20
0 -33 102 -235 139 -274 11 -12 29 -42 40 -67 12 -26 28 -52 36 -59 8 -7 15
-21 15 -32 0 -10 13 -45 29 -76 50 -98 108 -235 122 -284 15 -53 46 -76 80
-58 30 17 24 68 -20 156 -37 77 -72 150 -125 264 -14 30 -42 85 -63 122 -114
201 -154 275 -159 295 -3 11 -17 31 -30 44 -26 24 -31 61 -15 116 5 18 12 81
16 140 4 68 12 117 22 131 8 13 19 67 24 120 5 53 15 144 23 202 8 58 15 140
16 182 0 85 10 102 36 63 9 -14 35 -35 58 -47 23 -11 48 -26 56 -33 8 -7 43
-18 77 -25 44 -9 64 -18 68 -31 3 -10 5 -69 3 -131 -2 -62 0 -126 4 -143 7
-26 3 -36 -28 -70 -71 -78 -97 -189 -59 -250 27 -44 77 -95 92 -95 8 0 33 -10
56 -22 50 -26 126 -28 178 -6 57 25 119 151 119 242 0 16 23 83 51 148 27 66
55 147 61 181 11 64 29 109 56 140 41 46 47 156 14 247 -18 50 -48 80 -103
105 -25 12 -42 30 -57 60 -30 62 -81 116 -188 196 -92 69 -163 108 -197 109
-33 0 -29 28 17 115 41 78 46 94 46 154 0 66 -11 120 -52 255 -24 80 -79 148
-134 166 -19 6 -34 15 -34 19 0 15 -85 40 -155 44 -38 3 -99 1 -135 -4z m204
-117 c6 -5 29 -13 51 -17 74 -13 138 -110 161 -245 18 -104 4 -153 -73 -251
-61 -78 -144 -119 -243 -119 -63 0 -70 2 -70 20 0 14 -11 22 -37 29 -21 6 -44
11 -51 11 -20 0 -102 81 -122 120 -11 22 -23 80 -30 143 -12 114 -8 146 32
212 20 36 120 95 178 105 47 9 189 3 204 -8z m-1253 -358 c20 -10 29 -20 25
-30 -3 -9 -6 -27 -6 -40 0 -37 -94 -134 -131 -134 -84 0 -77 136 10 196 42 28
61 30 102 8z m323 -145 c32 -21 67 -39 77 -39 13 0 19 -7 19 -24 0 -28 48 -72
87 -83 20 -4 31 -1 43 14 11 14 38 24 81 32 97 17 147 13 214 -14 33 -14 68
-25 78 -25 9 0 26 -14 36 -31 20 -33 61 -59 101 -64 24 -3 25 -5 22 -66 -3
-68 -7 -74 -76 -110 -66 -35 -127 -49 -241 -55 -106 -5 -112 -4 -165 23 -46
23 -61 38 -90 89 -19 34 -41 68 -48 76 -8 10 -57 21 -140 33 -134 18 -227 47
-241 74 -5 9 -11 37 -15 63 -6 39 -3 55 18 97 29 55 33 57 120 53 51 -3 70
-10 120 -43z m1191 -245 c29 -4 58 -15 69 -26 10 -11 50 -43 90 -73 39 -29 81
-63 93 -76 27 -30 73 -127 73 -156 0 -39 19 -72 44 -79 30 -7 66 11 66 34 1
31 19 -11 30 -67 15 -78 -6 -105 -45 -61 -24 26 -68 23 -73 -4 -2 -11 4 -43
14 -73 16 -45 16 -59 6 -95 -7 -24 -21 -77 -32 -118 -13 -49 -36 -99 -66 -144
-46 -69 -47 -70 -34 -115 17 -67 14 -99 -15 -137 -43 -56 -109 -81 -134 -50
-6 8 -25 19 -41 26 -36 15 -70 67 -70 106 0 61 67 132 114 120 54 -14 57 52 4
100 l-31 27 6 132 c7 128 17 173 53 215 27 33 13 131 -22 144 -7 3 -27 -12
-44 -34 -47 -59 -133 -74 -208 -36 -30 16 -100 102 -122 151 -38 83 -67 261
-47 282 4 3 25 1 47 -6 36 -11 46 -10 78 8 38 20 81 21 197 5z"/>
<path d="M13800 4300 c-14 -5 -45 -8 -70 -9 -25 -1 -78 -12 -118 -26 -41 -14
-84 -25 -97 -25 -39 0 -254 -117 -317 -172 -21 -18 -58 -49 -84 -68 -78 -59
-174 -169 -174 -200 0 -4 -20 -32 -45 -61 -25 -29 -45 -57 -45 -61 0 -5 -11
-26 -25 -47 -13 -22 -27 -52 -31 -68 -4 -15 -15 -40 -26 -55 -40 -57 -127
-256 -143 -328 -9 -41 -23 -93 -30 -115 -33 -98 -46 -249 -35 -406 l10 -138
-61 -116 c-36 -69 -83 -140 -113 -173 -64 -70 -113 -149 -125 -201 -4 -21 -15
-49 -24 -61 -11 -16 -13 -30 -7 -51 5 -16 8 -33 7 -37 -1 -4 10 -8 25 -10 24
-3 30 5 73 87 26 50 68 119 93 154 110 150 155 207 166 207 6 0 21 -33 33 -73
16 -51 35 -85 63 -117 197 -220 421 -444 485 -485 61 -40 292 -159 322 -167
20 -5 22 -11 17 -49 -3 -24 -11 -114 -19 -199 -8 -85 -14 -156 -15 -157 0 -1
-15 -10 -32 -19 -18 -9 -62 -35 -98 -59 -36 -23 -77 -50 -92 -59 -61 -36 -72
-92 -23 -114 32 -15 46 -9 126 53 45 35 87 57 127 69 48 13 62 22 70 44 17 43
33 150 36 237 4 84 22 194 35 208 9 9 20 10 242 22 139 8 147 7 151 -11 3 -10
6 -84 7 -164 2 -166 1 -163 111 -220 31 -16 87 -60 130 -104 73 -74 94 -85
134 -70 24 9 19 54 -9 97 -14 20 -29 37 -33 37 -4 0 -33 25 -66 55 -32 30 -62
55 -66 55 -4 0 -31 22 -59 48 l-51 48 0 120 c0 65 4 125 9 133 5 7 51 31 102
52 51 22 96 43 99 47 3 4 24 22 48 38 23 17 69 57 102 88 33 31 69 56 79 56
25 0 43 24 39 53 -1 14 8 36 22 55 75 94 98 130 154 238 34 66 69 139 79 164
l17 44 23 -22 c13 -12 28 -22 34 -22 6 0 33 -19 59 -42 120 -105 169 -158 206
-220 41 -69 63 -83 88 -53 7 8 10 23 7 34 -2 10 -1 25 4 32 11 18 -14 48 -145
183 -58 60 -106 112 -106 116 0 4 -27 31 -60 61 -64 58 -68 68 -45 141 7 26
16 74 19 107 3 32 13 92 21 132 9 41 22 113 29 162 11 75 11 90 -2 108 -12 17
-22 20 -48 16 -31 -5 -33 -4 -36 26 -3 32 -4 32 -63 35 -33 1 -89 10 -125 19
-55 13 -128 16 -490 14 -515 -2 -550 -3 -567 -27 -20 -27 -25 -73 -15 -156 4
-42 4 -116 0 -165 -15 -153 -14 -179 4 -200 44 -48 197 -72 465 -72 102 -1
172 4 188 11 14 6 28 9 31 5 15 -14 -183 -263 -247 -310 -46 -34 -240 -97
-298 -97 -60 0 -197 28 -245 49 -25 12 -50 21 -56 21 -20 0 -75 33 -98 59 -13
14 -53 64 -89 111 -37 47 -79 99 -94 115 -65 70 -102 218 -93 374 3 53 11 116
18 141 15 51 88 200 108 221 7 8 42 52 77 99 126 170 268 279 366 281 22 0 48
4 58 8 52 20 217 -38 372 -129 28 -17 67 -35 87 -41 36 -12 38 -11 93 40 31
28 61 51 65 51 5 0 37 24 72 53 34 28 116 88 183 132 123 83 134 96 121 149
-5 22 -148 176 -163 176 -4 0 -25 20 -47 45 -42 46 -196 145 -226 145 -9 0
-45 11 -80 25 -34 13 -88 29 -119 35 -72 13 -288 20 -321 10z m310 -130 c10
-5 30 -10 44 -10 32 0 165 -52 231 -91 28 -16 79 -56 114 -89 35 -33 68 -60
72 -60 14 0 69 -52 69 -64 0 -7 -22 -23 -48 -35 -26 -12 -77 -49 -112 -82 -36
-33 -81 -68 -101 -79 -19 -10 -54 -37 -77 -60 -46 -46 -70 -48 -127 -9 -57 38
-195 99 -267 119 -63 17 -88 18 -178 11 -125 -10 -143 -16 -209 -75 -28 -25
-61 -51 -73 -57 -38 -20 -88 -71 -122 -124 -18 -27 -44 -56 -59 -64 -35 -19
-59 -3 -262 168 -36 30 -65 59 -65 63 0 5 19 37 42 71 95 140 285 294 443 360
39 16 120 44 182 62 62 18 118 37 125 41 33 20 341 24 378 4z m-1165 -669 c24
-16 52 -32 64 -36 11 -3 23 -14 26 -25 3 -10 35 -40 72 -67 79 -58 88 -76 58
-123 -12 -19 -44 -84 -71 -145 l-49 -110 -3 -145 c-5 -195 25 -327 92 -407
l27 -32 -50 -49 c-28 -27 -51 -54 -51 -60 0 -7 -13 -18 -30 -27 -16 -8 -58
-41 -92 -73 -79 -74 -90 -78 -127 -46 -30 25 -91 134 -91 163 0 9 -9 43 -20
75 -26 78 -60 278 -60 352 1 94 27 268 55 362 29 95 129 338 150 362 7 8 16
25 19 38 10 29 29 28 81 -7z m1710 -496 c55 -3 120 -9 145 -16 25 -6 62 -13
83 -16 20 -3 37 -8 37 -12 0 -5 -9 -50 -19 -102 -11 -52 -23 -119 -26 -149
-13 -107 -65 -301 -105 -385 -22 -47 -40 -88 -40 -91 0 -3 -13 -22 -29 -42
-16 -20 -32 -51 -35 -67 -11 -53 -120 -195 -149 -195 -7 0 -20 12 -29 28 -17
28 -63 76 -167 176 -33 32 -61 67 -61 76 0 10 29 54 64 98 35 44 80 105 99
135 23 35 44 57 61 61 32 8 33 34 3 96 l-22 45 -235 1 c-247 1 -419 11 -459
26 -23 8 -24 10 -16 86 4 42 6 115 6 161 -1 59 2 87 11 93 12 7 643 2 883 -7z
m-1359 -767 c72 -84 90 -98 175 -141 98 -50 237 -87 330 -87 72 0 196 36 292
85 49 25 93 45 99 45 6 0 39 -27 74 -60 34 -33 67 -60 72 -60 6 0 15 -14 21
-31 6 -18 33 -54 61 -82 27 -27 50 -53 50 -57 0 -8 -104 -111 -142 -140 -50
-38 -182 -92 -273 -111 -117 -24 -198 -32 -314 -31 -174 3 -431 106 -566 227
-36 32 -80 69 -97 82 -47 34 -148 151 -148 171 0 28 27 60 75 87 24 14 76 64
116 111 40 46 77 84 84 84 6 0 47 -42 91 -92z"/>
</g>
</svg>
