<?xml version="1.0" standalone="no"?>
<!DOCTYPE svg PUBLIC "-//W3C//DTD SVG 20010904//EN"
 "http://www.w3.org/TR/2001/REC-SVG-20010904/DTD/svg10.dtd">
<svg version="1.0" xmlns="http://www.w3.org/2000/svg"
 width="1581.952264pt" height="400.000000pt" viewBox="0 0 1581.952264 400.000000"
 preserveAspectRatio="xMidYMid meet">
<metadata>
Created by potrace 1.15, written by Peter Selinger 2001-2017
</metadata>
<g transform="translate(0.000000,427.007668) scale(0.065505,-0.065505)"
fill="#444444" stroke="none">
<path d="M17255 6478 c-3 -24 -5 -122 -3 -218 l3 -175 26 -3 26 -3 7 138 c3
76 2 174 -2 218 -6 72 -9 80 -29 83 -19 3 -22 -3 -28 -40z"/>
<path d="M12953 6404 c-3 -8 -6 -77 -7 -152 l-1 -137 -36 -3 c-45 -4 -78 -36
-90 -90 -16 -72 40 -162 101 -162 31 0 130 70 130 92 0 17 -2 18 -37 2 -84
-36 -94 -38 -110 -21 -10 9 -17 34 -17 59 -1 42 0 43 35 46 33 3 39 -1 58 -33
23 -39 46 -43 65 -12 9 14 5 28 -18 69 -28 50 -29 57 -28 176 0 68 4 137 7
153 6 26 4 29 -20 29 -14 0 -28 -7 -32 -16z"/>
<path d="M14922 6327 c-6 -7 -12 -49 -14 -92 l-3 -80 -30 2 c-76 6 -87 5 -97
-5 -20 -20 38 -61 90 -64 l47 -3 3 -90 c2 -66 7 -94 20 -108 29 -32 42 3 42
109 l0 93 38 7 c39 7 92 33 92 46 0 11 -65 21 -101 16 -17 -3 -33 0 -35 6 -3
9 -7 55 -13 164 -1 16 -26 16 -39 -1z"/>
<path d="M8504 6306 c-3 -8 -6 -54 -7 -103 l-2 -88 -73 4 c-73 3 -102 -7 -102
-35 0 -15 58 -33 127 -38 l48 -4 0 -89 c0 -91 6 -113 30 -113 22 0 32 29 38
113 3 44 7 81 9 83 2 2 27 0 54 -4 49 -8 104 2 104 18 0 12 -65 40 -93 40 -14
0 -29 5 -32 10 -3 6 -15 10 -26 10 -11 0 -19 7 -20 18 -2 89 -9 174 -14 182
-9 15 -35 12 -41 -4z"/>
<path d="M6895 6284 c-76 -20 -114 -41 -168 -97 -77 -80 -91 -108 -83 -171 12
-107 102 -182 206 -173 105 9 301 80 279 101 -16 17 -157 5 -247 -21 -49 -14
-58 -13 -97 1 -53 21 -74 44 -81 88 -7 43 22 104 68 143 53 45 112 65 188 65
60 0 71 3 81 21 8 15 8 24 0 32 -12 12 -113 19 -146 11z"/>
<path d="M16194 6210 c-22 -9 -64 -60 -64 -78 0 -5 -10 -16 -21 -24 -18 -12
-22 -24 -23 -90 -1 -69 1 -77 24 -97 36 -31 87 -22 165 29 92 60 84 81 -15 39
-60 -26 -113 -30 -117 -9 -2 10 24 28 78 55 89 43 116 74 105 118 -7 28 -62
67 -92 66 -11 0 -29 -4 -40 -9z m70 -56 c18 -17 19 -24 8 -41 -9 -15 -121 -67
-128 -60 -10 9 28 77 54 97 30 24 46 25 66 4z"/>
<path d="M16688 6204 c-68 -21 -98 -61 -98 -130 0 -41 6 -64 25 -94 30 -47 53
-61 104 -62 64 -1 148 55 114 75 -5 3 -31 0 -58 -6 -40 -8 -57 -7 -80 4 -34
17 -44 39 -18 39 10 0 36 11 58 24 22 14 54 32 72 41 17 9 34 23 37 31 10 26
-16 63 -56 78 -45 19 -40 19 -100 0z m86 -40 c29 -11 17 -30 -37 -57 -63 -31
-107 -43 -107 -30 0 25 48 78 75 84 43 9 51 10 69 3z"/>
<path d="M16539 6187 c-9 -12 -28 -53 -43 -92 -16 -38 -32 -74 -36 -79 -12
-12 -25 18 -45 102 -9 39 -20 72 -25 72 -4 0 -14 -8 -23 -18 -13 -14 -15 -25
-7 -48 5 -16 12 -50 15 -76 12 -94 82 -150 118 -94 9 14 31 60 48 103 17 43
38 86 47 96 12 14 14 22 6 35 -16 25 -37 25 -55 -1z"/>
<path d="M16962 6175 c-17 -14 -36 -24 -41 -21 -5 4 -17 -1 -26 -11 -14 -13
-16 -30 -12 -99 6 -89 10 -104 32 -104 22 0 35 33 35 87 0 57 18 87 60 101 26
9 34 8 59 -14 35 -29 40 -42 55 -148 11 -76 13 -81 36 -81 25 0 25 1 24 84 -3
135 -56 215 -151 228 -32 4 -45 0 -71 -22z"/>
<path d="M12072 6176 c-18 -6 -56 -36 -84 -66 l-51 -55 -3 -87 c-3 -74 0 -90
17 -110 19 -23 19 -23 34 -4 10 13 15 42 15 83 0 106 50 178 128 187 54 6 60
11 38 35 -22 25 -54 30 -94 17z"/>
<path d="M15910 6177 c-25 -5 -52 -15 -60 -22 -8 -7 -28 -15 -45 -17 -23 -2
-29 -7 -27 -23 1 -11 6 -62 11 -113 5 -65 13 -98 24 -110 30 -30 42 -1 42 104
0 109 9 124 76 124 51 0 62 -19 63 -101 1 -54 5 -73 17 -80 30 -16 41 14 38
100 -4 72 -7 83 -33 109 -34 37 -49 41 -106 29z"/>
<path d="M15641 6158 c-5 -13 -20 -49 -32 -80 -26 -65 -48 -90 -101 -113 -35
-14 -38 -14 -48 4 -14 27 -13 81 4 129 16 43 13 52 -15 52 -39 0 -68 -112 -48
-183 16 -58 83 -101 104 -67 3 6 12 10 19 10 17 0 80 58 95 88 13 24 47 31 37
7 -8 -23 14 -74 36 -81 35 -11 41 9 25 82 -9 38 -19 91 -24 119 -9 56 -36 74
-52 33z"/>
<path d="M9510 6160 c-55 -8 -127 -46 -133 -71 -6 -23 51 -73 115 -101 45 -19
68 -42 68 -67 0 -6 -6 -11 -12 -11 -7 0 -25 -6 -39 -14 -14 -7 -43 -16 -64
-20 -31 -6 -41 -3 -61 15 -25 23 -50 20 -61 -7 -8 -22 38 -60 84 -69 67 -12
182 45 203 101 9 22 10 22 47 -16 39 -38 117 -70 173 -70 27 0 52 21 63 53 6
16 3 18 -26 11 -49 -12 -96 -6 -138 18 -41 23 -43 38 -4 38 13 0 30 7 39 15 8
8 21 15 30 15 22 0 56 49 56 81 0 40 -38 63 -90 56 -44 -6 -100 -41 -100 -63
0 -8 -4 -14 -9 -14 -5 0 -15 -16 -22 -35 -15 -40 -22 -42 -49 -15 -11 11 -30
22 -42 25 -13 4 -38 19 -57 35 l-34 29 27 11 c15 5 34 10 41 10 23 0 95 31 95
41 0 8 -47 32 -53 28 -1 -1 -22 -5 -47 -9z m275 -110 c7 -11 -62 -42 -83 -38
-10 2 -8 9 8 26 21 22 64 30 75 12z"/>
<path d="M9160 6139 c-58 -20 -96 -45 -105 -67 -9 -25 55 -80 103 -88 21 -3
49 -15 63 -25 24 -19 24 -19 4 -31 -28 -17 -86 -38 -108 -38 -10 0 -20 7 -23
15 -9 21 -21 19 -35 -7 -10 -19 -8 -25 15 -45 33 -28 67 -29 126 -2 119 54
119 123 0 169 -89 34 -79 55 35 69 45 5 50 9 53 32 3 25 0 27 -39 31 -23 2
-62 -3 -89 -13z"/>
<path d="M9974 6141 c-90 -41 -46 -115 94 -156 71 -21 80 -37 40 -67 -54 -41
-78 -50 -126 -47 -52 3 -82 -7 -82 -26 0 -19 45 -45 77 -45 88 0 213 87 213
149 0 21 -6 33 -17 37 -41 11 -163 80 -163 91 0 7 26 14 65 18 36 4 67 11 70
14 2 4 1 17 -2 29 -5 20 -12 22 -67 22 -38 0 -77 -8 -102 -19z"/>
<path d="M10820 6148 c-53 -24 -102 -63 -135 -109 -19 -27 -35 -53 -35 -58 0
-5 -7 -14 -15 -21 -25 -21 -19 -76 12 -105 15 -14 31 -25 35 -25 35 0 124 76
154 133 19 36 31 34 49 -10 31 -73 86 -107 100 -62 5 15 1 25 -13 35 -19 13
-72 130 -72 160 0 24 -29 74 -43 73 -6 0 -23 -5 -37 -11z m20 -77 c0 -21 -75
-138 -104 -163 -59 -49 -77 9 -25 80 44 61 129 115 129 83z"/>
<path d="M7568 6139 c-10 -5 -18 -15 -18 -21 0 -13 30 -37 46 -38 18 0 34 46
21 59 -13 13 -27 14 -49 0z"/>
<path d="M11141 6139 c-13 -5 -36 -18 -51 -29 -16 -11 -35 -17 -43 -14 -28 10
-39 -30 -27 -99 12 -63 24 -87 44 -87 16 0 36 48 36 87 0 50 43 92 110 108
l55 13 -37 16 c-42 18 -53 19 -87 5z"/>
<path d="M12285 6096 c-105 -70 -138 -106 -137 -146 1 -41 42 -80 84 -80 42 0
116 38 146 77 l26 31 27 -29 c23 -25 69 -40 69 -23 0 5 -68 143 -98 200 -7 13
-18 24 -25 24 -7 -1 -48 -25 -92 -54z m85 -55 c-19 -67 -52 -100 -107 -108
-54 -7 -72 15 -39 46 40 38 120 90 138 90 14 1 15 -4 8 -28z"/>
<path d="M13660 6111 l-45 -38 -35 18 c-27 15 -46 18 -80 13 -25 -4 -50 -10
-56 -15 -15 -12 -16 -196 -1 -220 27 -43 57 -8 57 66 0 25 7 61 15 81 13 31
17 34 36 24 22 -12 49 -66 49 -99 0 -18 35 -39 46 -28 3 3 10 37 16 77 11 73
28 103 57 98 26 -5 53 -76 55 -142 1 -66 20 -91 50 -67 38 32 6 184 -51 243
-36 38 -59 35 -113 -11z"/>
<path d="M11325 6109 c-19 -17 -35 -36 -35 -43 0 -6 -7 -24 -15 -40 -37 -70
-11 -144 58 -171 53 -20 109 -9 157 31 36 31 39 49 8 40 -13 -4 -49 -12 -81
-17 -51 -10 -60 -9 -77 6 -34 31 -20 55 31 55 10 0 19 5 19 11 0 5 12 14 28
20 36 13 65 54 57 80 -8 25 -61 59 -92 59 -12 0 -38 -14 -58 -31z m95 -56 c0
-7 -4 -13 -9 -13 -5 0 -23 -3 -40 -6 -36 -8 -41 6 -11 36 17 17 23 18 40 8 11
-7 20 -18 20 -25z"/>
<path d="M14411 6118 c-7 -12 -25 -42 -38 -67 -14 -25 -32 -53 -40 -61 -16
-17 -23 -10 -91 84 -33 47 -67 60 -78 31 -6 -14 39 -103 57 -115 12 -8 59 -80
59 -89 0 -10 -53 -104 -98 -175 -35 -55 -40 -83 -17 -92 26 -10 43 11 134 170
13 22 30 52 39 66 9 14 27 45 40 70 40 73 46 83 75 126 17 25 25 47 21 57 -9
24 -47 21 -63 -5z"/>
<path d="M14603 6120 c-42 -26 -59 -50 -78 -107 l-17 -52 28 -45 c33 -51 45
-56 131 -56 57 0 64 3 97 35 34 33 45 55 29 55 -5 0 -32 -9 -62 -21 -58 -22
-120 -19 -141 6 -8 10 4 19 62 41 82 31 118 61 118 98 0 33 -31 52 -92 59 -34
3 -55 0 -75 -13z m115 -57 c2 -8 -5 -13 -17 -13 -11 0 -23 -4 -26 -10 -3 -5
-17 -10 -31 -10 -14 0 -34 -5 -45 -10 -29 -16 -24 6 8 36 21 20 36 24 67 22
22 -2 41 -9 44 -15z"/>
<path d="M7253 6108 c-60 -68 -75 -128 -50 -198 18 -51 24 -57 63 -70 52 -18
100 -4 149 41 76 71 79 115 11 187 -61 65 -135 82 -173 40z m136 -85 c17 -21
31 -45 31 -54 0 -31 -69 -79 -114 -79 -28 0 -33 9 -15 27 8 8 5 14 -11 23 -19
10 -22 18 -17 51 7 52 22 69 62 69 26 0 40 -8 64 -37z"/>
<path d="M12622 6110 c-39 -24 -52 -25 -52 -5 0 19 -24 19 -40 0 -10 -12 -10
-21 0 -44 6 -16 12 -58 13 -93 2 -56 4 -63 24 -66 23 -3 28 5 38 80 7 54 34
94 57 86 17 -7 38 -79 38 -130 0 -63 45 -80 56 -22 9 48 -9 123 -41 174 -28
45 -46 49 -93 20z"/>
<path d="M13254 6123 c-32 -6 -121 -94 -130 -127 -14 -59 66 -150 133 -150 67
0 143 91 143 170 0 36 -6 47 -40 78 -38 34 -55 39 -106 29z m78 -60 c28 -25
24 -88 -7 -119 -21 -21 -31 -24 -62 -18 -47 8 -59 18 -68 51 -7 30 22 68 70
89 39 17 45 17 67 -3z"/>
<path d="M8819 6069 c-19 -10 -49 -33 -65 -50 -24 -25 -29 -39 -29 -78 0 -121
117 -169 232 -95 70 46 89 98 56 157 -48 84 -117 108 -194 66z m122 -52 c26
-18 35 -31 37 -58 3 -32 -1 -38 -38 -63 -80 -53 -128 -43 -149 31 -10 35 14
72 64 98 39 20 46 19 86 -8z"/>
<path d="M7782 6064 c-12 -8 -30 -13 -40 -10 -38 13 -49 -13 -43 -102 5 -67
10 -86 25 -98 33 -24 49 0 42 63 -6 51 -5 53 29 79 19 14 42 24 50 20 22 -8
35 -49 35 -111 0 -46 3 -55 21 -60 32 -10 44 10 45 78 2 101 -39 157 -114 157
-15 0 -38 -7 -50 -16z"/>
<path d="M7564 6058 c-11 -17 -12 -181 -1 -195 14 -19 35 -16 47 7 13 24 17
144 6 178 -8 23 -40 30 -52 10z"/>
<path d="M17288 5968 c-26 -22 -29 -47 -8 -68 26 -26 36 -25 56 5 14 21 15 31
6 50 -13 28 -30 32 -54 13z"/>
<path d="M23138 5871 c-31 -10 -103 -60 -136 -93 -36 -37 -66 -88 -91 -156
-27 -71 -25 -148 5 -235 l16 -48 -47 -62 c-27 -34 -73 -88 -104 -119 -47 -49
-57 -56 -70 -44 -22 17 -91 36 -136 36 -48 0 -135 -26 -160 -48 -47 -41 -78
-132 -90 -262 -6 -61 -3 -84 12 -123 l19 -48 -42 -45 c-24 -25 -69 -88 -101
-139 -32 -52 -65 -94 -73 -95 -8 0 -29 8 -45 18 -21 13 -58 21 -117 24 -82 5
-89 4 -137 -23 -28 -16 -51 -36 -51 -44 0 -8 -13 -27 -30 -41 -37 -34 -58
-103 -63 -214 -4 -74 -2 -91 19 -134 20 -41 21 -52 11 -72 -17 -33 -245 -265
-251 -255 -6 10 -161 32 -234 34 -47 1 -55 -3 -89 -36 -21 -20 -48 -44 -59
-54 -37 -31 -67 -133 -67 -227 0 -74 4 -90 31 -142 17 -32 30 -67 29 -76 -2
-9 -23 -39 -47 -67 -25 -27 -70 -80 -100 -116 -79 -96 -81 -97 -104 -92 -12 3
-39 10 -60 16 -36 9 -78 8 -173 -4 -27 -3 -33 0 -33 14 0 10 -7 24 -15 31 -9
7 -47 64 -86 126 l-71 114 17 42 c23 58 31 202 15 277 -10 46 -21 69 -49 97
-53 53 -76 61 -179 63 -86 1 -98 -1 -151 -29 -89 -48 -169 -178 -173 -285 -3
-61 21 -124 65 -171 20 -23 27 -38 23 -52 -4 -11 -65 -80 -136 -153 l-129
-133 -55 19 c-46 16 -63 17 -113 8 -32 -6 -61 -9 -65 -7 -3 2 -22 33 -41 68
-20 35 -45 74 -56 87 -61 68 -91 109 -114 155 l-26 51 23 22 c12 12 23 27 24
34 0 6 5 30 11 52 32 122 -18 263 -110 310 -30 16 -166 45 -210 45 -38 0 -129
-43 -167 -80 -54 -52 -63 -81 -64 -191 0 -89 3 -103 26 -144 15 -24 36 -50 47
-56 21 -11 21 -11 -3 -37 -48 -52 -154 -187 -178 -227 -14 -22 -41 -58 -62
-81 l-37 -40 -58 8 c-32 4 -95 11 -141 14 -70 6 -85 10 -94 28 -12 24 -51 75
-141 190 -34 43 -68 88 -76 100 -8 11 -22 33 -32 47 -17 25 -17 27 14 73 26
40 31 58 31 109 0 115 -77 232 -174 267 -49 17 -202 0 -239 -28 -45 -34 -70
-97 -80 -209 -11 -120 -2 -173 39 -224 l28 -35 -69 -79 c-38 -43 -69 -82 -69
-87 0 -12 -89 -107 -111 -119 -12 -6 -27 -4 -46 6 -36 19 -138 19 -191 1 l-41
-15 -52 82 c-28 45 -64 101 -78 125 -14 23 -45 67 -68 98 -24 31 -43 60 -43
63 0 4 14 20 31 37 53 50 72 99 67 169 -6 75 -22 106 -90 179 -77 84 -113 100
-210 92 -43 -4 -88 -10 -101 -15 -39 -15 -97 -79 -125 -139 -24 -50 -27 -69
-26 -147 1 -58 8 -106 19 -135 28 -73 25 -81 -50 -165 -114 -127 -238 -255
-247 -255 -5 0 -35 12 -66 28 -50 24 -69 27 -154 27 -53 0 -94 3 -92 6 2 4
-11 26 -29 49 -17 24 -65 95 -106 159 l-73 116 12 45 c22 77 23 101 10 174
-24 134 -62 203 -144 259 -38 27 -45 29 -106 22 -36 -4 -78 -8 -95 -9 -51 -4
-128 -45 -178 -94 -77 -75 -82 -89 -81 -232 0 -129 14 -192 53 -250 23 -33 16
-45 -84 -145 -44 -44 -98 -101 -119 -127 -22 -27 -44 -48 -49 -48 -6 0 -24 11
-41 24 -62 47 -98 59 -168 58 -160 -3 -296 -137 -301 -296 -1 -32 -6 -47 -17
-50 -54 -16 -707 -25 -751 -11 -12 4 -19 16 -19 31 0 91 -67 208 -135 234 -43
17 -225 13 -280 -6 -58 -19 -74 -14 -105 35 -45 71 -133 166 -242 260 -98 86
-106 95 -97 118 16 42 10 107 -16 187 -73 223 -190 277 -390 180 -55 -27 -96
-62 -136 -114 -25 -33 -26 -40 -23 -140 2 -108 14 -146 63 -203 13 -16 13 -21
-4 -50 -10 -18 -21 -34 -24 -37 -30 -26 -106 -129 -127 -171 -26 -52 -89 -129
-106 -129 -5 0 -22 10 -38 22 -40 29 -142 42 -189 22 -18 -8 -47 -14 -63 -14
-17 0 -52 -15 -84 -36 -69 -46 -114 -126 -114 -203 l0 -49 -39 -7 c-22 -4 -48
-2 -59 4 -11 6 -116 11 -253 12 -265 2 -629 6 -644 8 -5 1 -11 15 -12 32 -1
17 -13 51 -25 77 -19 38 -33 51 -89 79 -69 35 -127 42 -219 28 -45 -6 -46 -6
-63 29 -9 20 -21 36 -26 36 -5 0 -11 8 -15 18 -11 34 -46 86 -84 126 -60 63
-103 128 -93 140 23 29 42 131 36 194 -3 36 -8 69 -10 72 -2 4 -7 21 -10 39
-16 90 -90 171 -174 191 -46 11 -62 10 -119 -6 -116 -31 -183 -79 -231 -164
-18 -34 -18 -211 2 -265 l14 -40 -56 -59 c-137 -144 -331 -336 -341 -336 -5 0
-19 -9 -30 -20 -19 -19 -20 -19 -67 4 -102 51 -200 53 -283 4 l-34 -20 -20 29
c-40 54 -202 224 -271 281 -45 38 -56 67 -44 121 12 59 8 107 -21 216 -26 101
-61 149 -131 186 -80 41 -129 52 -206 47 -115 -9 -176 -53 -231 -166 -24 -51
-27 -68 -27 -162 0 -95 3 -111 27 -158 l27 -52 -59 -61 c-33 -34 -60 -65 -60
-70 0 -10 -102 -111 -148 -146 -29 -23 -34 -24 -50 -11 -47 42 -86 53 -184 53
-74 0 -101 -4 -115 -16 -10 -9 -34 -24 -53 -33 -64 -31 -153 -168 -145 -226 2
-18 -1 -33 -8 -35 -10 -4 -201 -10 -587 -18 -76 -2 -254 7 -346 18 -51 6 -52
7 -69 53 -28 79 -48 113 -97 167 -47 52 -94 75 -154 75 -16 0 -35 4 -42 9 -19
12 -106 -6 -150 -31 -77 -45 -182 -131 -182 -150 0 -5 -11 -25 -25 -46 -14
-21 -23 -48 -21 -63 3 -26 2 -26 -83 -32 -47 -4 -196 -4 -331 -1 -135 3 -288
5 -340 5 -149 0 -200 7 -200 28 0 30 -39 109 -72 147 -46 52 -82 66 -178 71
-119 7 -172 -18 -242 -111 -24 -32 -59 -126 -52 -138 11 -17 -78 -19 -190 -4
-85 11 -177 15 -309 13 -103 -2 -191 -1 -196 2 -4 4 -16 30 -25 58 -19 56 -68
107 -131 137 -72 35 -244 8 -303 -47 -37 -34 -75 -98 -82 -137 l-5 -35 -195 3
c-107 1 -235 6 -285 10 -86 7 -187 2 -340 -15 -38 -4 -91 -7 -117 -5 l-48 3
-15 54 c-29 100 -79 135 -194 137 -46 1 -85 -6 -128 -22 l-63 -23 -67 74 c-86
93 -157 160 -214 200 -24 18 -52 41 -62 52 -18 21 -23 52 -8 61 16 10 34 126
28 186 -9 100 -68 189 -149 226 -38 17 -45 17 -136 1 -168 -29 -222 -90 -222
-250 0 -114 22 -193 66 -246 30 -34 43 -41 111 -56 94 -21 194 -16 224 11 19
17 21 16 57 -18 20 -20 51 -43 67 -51 17 -9 79 -65 139 -126 101 -101 109
-112 95 -128 -15 -18 -32 -53 -43 -87 -6 -18 -14 -18 -144 -11 -170 11 -245
11 -347 1 -82 -7 -140 -10 -277 -14 l-78 -2 0 -46 0 -45 138 6 c155 7 188 10
252 22 25 5 101 7 170 4 69 -2 160 -5 202 -5 l78 -1 0 -46 c0 -36 7 -58 33
-95 38 -57 86 -87 180 -110 80 -19 139 -15 198 14 l42 21 27 -22 c15 -12 36
-35 46 -52 22 -36 113 -123 137 -131 9 -3 17 -9 17 -13 0 -5 26 -34 57 -65 31
-31 52 -56 46 -56 -6 0 -21 -17 -34 -37 -21 -34 -23 -50 -23 -153 0 -65 5
-134 12 -159 14 -47 63 -98 122 -128 19 -10 36 -21 38 -25 2 -5 26 -8 53 -8
39 0 60 7 98 33 27 17 63 40 80 49 39 21 79 103 88 178 6 54 -14 190 -29 190
-22 0 -4 21 34 40 71 34 123 76 260 212 96 95 135 127 147 122 49 -21 128 -44
151 -44 26 0 51 10 132 50 l37 18 102 -156 c57 -87 107 -159 111 -162 4 -3 -5
-21 -20 -40 -47 -59 -65 -121 -57 -197 8 -77 56 -187 92 -210 13 -8 23 -23 23
-32 0 -21 40 -61 60 -61 28 0 199 91 229 122 40 41 57 78 75 168 19 89 20 140
4 175 -11 24 -7 30 69 103 44 43 92 96 105 118 14 22 60 76 102 121 l76 81 63
5 c34 2 102 12 151 21 l89 17 25 -23 c87 -78 156 -143 231 -219 47 -47 99 -96
115 -108 l29 -22 -30 -32 c-90 -94 -95 -184 -21 -338 61 -128 101 -162 197
-164 90 -1 120 8 193 63 90 67 114 97 144 181 35 94 37 188 4 246 l-22 39 110
106 c126 121 266 230 261 203 -4 -22 4 -32 45 -54 l44 -23 63 27 c35 15 67 27
71 27 4 0 31 14 59 31 44 27 54 30 73 20 12 -7 93 -81 179 -166 l157 -153 -35
-52 c-42 -62 -49 -99 -41 -198 10 -107 36 -161 106 -213 72 -53 120 -72 169
-64 25 3 69 10 96 13 42 6 66 19 132 70 108 84 134 123 140 209 5 64 3 72 -35
144 l-39 75 38 45 c70 79 83 91 184 165 55 41 117 90 138 109 44 41 55 42 91
14 32 -25 152 -59 208 -59 73 0 150 48 184 115 8 16 20 65 27 107 l11 78 51
-1 c27 -1 111 3 185 8 136 8 172 9 470 5 91 -1 174 -1 185 -1 45 1 135 -24
135 -37 0 -44 48 -106 166 -215 23 -21 88 -25 177 -10 67 11 152 94 199 196
l33 73 75 -5 c41 -3 118 2 170 10 106 16 316 15 425 -2 39 -6 95 -11 126 -11
l56 0 12 -53 c19 -85 91 -144 233 -190 47 -16 113 -13 124 4 3 5 13 9 24 9 10
0 40 20 67 44 35 32 53 42 64 36 48 -29 265 -242 284 -281 15 -28 15 -33 -5
-67 -34 -57 -37 -128 -10 -230 25 -92 49 -126 120 -167 19 -11 43 -26 55 -32
52 -32 176 -2 275 68 87 61 127 130 137 234 5 53 2 71 -20 119 l-26 57 23 9
c13 5 39 22 58 39 19 17 55 39 79 49 25 11 78 52 118 91 78 75 106 86 145 56
11 -8 26 -15 34 -15 9 0 30 -11 48 -25 38 -29 88 -33 124 -8 105 71 178 166
189 247 l6 40 205 1 c126 1 225 6 256 14 59 14 112 16 340 12 l161 -3 39 -54
c50 -70 123 -120 194 -135 30 -6 74 -15 98 -20 37 -7 50 -5 92 16 27 14 54 25
59 25 12 0 177 -163 208 -207 l22 -30 -35 -32 c-79 -75 -95 -185 -41 -292 15
-30 63 -91 107 -137 l79 -82 65 0 c54 0 75 5 123 31 130 71 184 137 202 249
10 57 8 74 -10 137 l-22 72 59 73 c32 40 92 107 132 148 41 41 87 90 103 109
27 33 29 34 61 21 18 -8 44 -22 58 -31 14 -9 44 -19 67 -22 34 -4 51 0 87 23
43 28 105 97 151 171 l23 36 109 -5 c77 -3 131 0 188 12 48 10 157 19 271 23
l191 6 37 -76 c70 -146 182 -215 262 -162 13 8 32 15 43 15 34 0 164 66 192
96 34 38 69 97 69 117 0 9 5 19 11 23 21 13 424 14 567 2 l142 -12 0 -52 c0
-29 5 -65 11 -81 14 -38 77 -102 116 -119 42 -18 141 -17 173 1 14 8 36 14 48
15 13 0 53 19 88 41 66 43 104 98 104 151 0 25 3 27 73 33 39 4 175 5 302 2
l229 -5 11 -49 c29 -127 117 -200 254 -211 45 -3 63 1 118 29 88 45 146 102
167 167 10 29 23 52 29 52 7 1 46 2 87 4 41 1 127 8 190 14 89 9 260 10 343 3
4 -1 7 -18 7 -39 0 -51 26 -93 82 -136 96 -72 185 -98 206 -60 7 13 15 14 47
5 32 -8 46 -7 80 8 50 22 74 65 90 161 10 55 14 65 31 62 10 -1 60 -9 109 -18
94 -15 364 -13 453 5 36 7 44 6 48 -8 3 -9 19 -45 37 -80 24 -49 44 -72 82
-97 56 -38 70 -40 172 -20 110 21 179 74 232 180 12 25 28 46 34 47 7 0 37 2
67 4 103 9 685 11 725 4 81 -16 534 -7 970 20 88 5 241 12 339 16 99 3 182 8
185 10 9 5 194 19 251 19 25 -1 164 -4 310 -7 146 -4 275 -4 288 -1 18 5 22
13 22 46 l0 40 -97 -4 c-54 -3 -168 -1 -253 4 -215 11 -405 9 -429 -6 -5 -3
-87 -8 -182 -11 -177 -4 -399 -17 -615 -35 -66 -6 -159 -10 -206 -9 -47 1 -91
-2 -97 -5 -16 -10 -269 -9 -411 2 -122 10 -802 7 -847 -3 -20 -5 -23 -1 -23
29 0 25 -11 48 -40 85 -22 28 -40 53 -40 56 0 3 43 56 96 118 53 61 108 129
122 150 13 20 29 37 34 37 5 0 30 -21 55 -46 44 -45 46 -46 93 -41 129 15 228
92 248 193 17 83 15 237 -4 312 l-16 65 134 134 c129 129 136 135 159 122 13
-6 54 -20 91 -29 66 -17 68 -17 136 5 118 39 149 70 167 168 13 72 1 253 -20
304 -15 35 -14 36 17 73 18 21 44 57 58 80 14 23 48 66 75 96 l51 54 61 -22
c54 -20 66 -21 96 -10 28 10 39 10 67 -4 35 -18 36 -17 117 30 70 40 93 88
100 208 5 97 -12 176 -48 222 l-21 27 58 57 c33 32 80 81 105 110 l47 52 63
-27 c104 -43 226 -32 310 28 37 26 51 21 82 -28 13 -21 54 -67 91 -103 36 -35
66 -70 66 -77 0 -7 -9 -29 -20 -50 -25 -49 -43 -165 -35 -223 8 -57 34 -101
99 -168 53 -56 70 -66 148 -86 45 -12 48 -12 55 8 4 12 6 27 5 34 -2 8 11 12
40 12 24 0 54 6 67 13 42 21 80 96 92 183 17 125 7 164 -75 281 -34 47 -229
84 -286 53 -29 -16 -39 -12 -58 20 -10 16 -45 53 -78 81 -32 29 -69 72 -82 96
-23 44 -23 45 -6 111 22 92 23 176 1 234 -20 53 -103 135 -169 169 -45 23
-121 32 -160 20z m117 -83 c18 -8 24 -16 19 -27 -15 -37 -22 -84 -16 -123 l5
-41 -61 5 c-33 3 -65 9 -71 13 -6 3 -11 35 -11 71 0 50 -3 64 -15 64 -27 0
-16 18 23 33 45 19 92 21 127 5z m119 -83 c48 -48 47 -46 51 -165 1 -55 -11
-90 -59 -162 -41 -63 -166 -99 -246 -72 -103 36 -143 75 -160 159 -16 78 0
146 51 218 23 32 43 56 45 54 2 -2 6 -42 8 -88 2 -46 9 -104 16 -129 7 -25 9
-64 6 -87 -6 -47 0 -73 18 -73 18 0 33 52 33 111 l0 54 42 6 c82 11 85 9 92
-55 8 -68 20 -86 44 -62 15 15 16 35 10 176 -4 88 -5 160 -2 160 2 0 26 -20
51 -45z m468 -637 l53 -12 -50 -7 c-27 -4 -73 -8 -101 -8 -60 -1 -97 -29 -77
-59 8 -13 23 -16 66 -14 l56 2 7 -47 c4 -25 4 -88 0 -139 -6 -82 -4 -94 11
-103 17 -10 17 -12 1 -21 -10 -6 -18 -18 -18 -25 0 -18 -3 -18 -43 -1 -18 7
-53 36 -79 64 -38 43 -48 62 -57 114 -19 97 0 176 52 225 17 17 39 33 47 36
26 9 77 7 132 -5z m-1196 -20 c-3 -13 -6 -49 -6 -80 0 -57 0 -58 -29 -58 -16
0 -41 -4 -54 -9 -27 -11 -25 -16 -42 97 -7 43 -11 47 -40 36 -14 -6 -16 -22
-10 -148 8 -173 10 -186 35 -186 20 0 27 23 32 105 l3 40 55 0 55 0 0 -51 c0
-51 16 -84 40 -84 7 0 16 7 19 16 8 21 6 197 -3 262 -4 28 -4 52 0 52 4 0 23
-18 42 -39 40 -44 55 -113 43 -198 -10 -74 -23 -96 -69 -124 -38 -23 -52 -25
-149 -24 l-108 0 -37 38 -38 37 1 93 c0 71 5 106 24 155 29 80 48 91 159 92
82 0 83 0 77 -22z m1342 -91 c14 -38 15 -109 3 -180 -11 -65 -51 -107 -103
-107 -37 0 -38 1 -31 28 4 15 7 83 7 151 l-1 123 37 -6 c27 -4 41 -2 50 9 18
22 25 19 38 -18z m-1947 -602 c14 -5 18 -12 13 -23 -4 -10 -9 -47 -12 -84 l-4
-68 -52 0 c-28 0 -57 4 -64 8 -8 6 -13 38 -15 95 l-2 87 58 -4 c32 -3 67 -8
78 -11z m-177 -372 c4 -4 15 -2 24 3 13 8 18 28 20 79 l3 67 57 -7 c31 -4 60
-9 65 -12 4 -2 7 -24 7 -49 0 -50 14 -84 34 -84 22 0 25 20 27 185 2 137 4
156 18 153 39 -7 65 -177 46 -301 -12 -78 -80 -112 -215 -108 -67 2 -81 5
-127 36 -42 28 -54 43 -63 75 -22 81 6 214 63 297 l22 33 6 -180 c3 -99 9
-184 13 -187z m-6405 -349 c74 -66 122 -227 95 -317 -27 -95 -73 -147 -175
-202 -67 -35 -112 -44 -124 -24 -4 5 -19 7 -35 4 -39 -9 -83 31 -119 108 -43
94 -56 231 -29 316 9 31 57 82 96 105 31 18 148 44 199 45 47 1 57 -3 92 -35z
m1295 -13 c15 -10 48 -43 72 -72 34 -42 44 -63 50 -106 8 -68 -8 -107 -58
-140 -21 -14 -40 -24 -42 -22 -2 2 -6 61 -9 130 -3 70 -10 136 -16 148 -25 46
-67 12 -57 -44 l7 -36 -53 3 -53 3 0 52 c0 29 -6 58 -12 64 -21 21 -15 28 25
32 87 9 118 6 146 -12z m4719 -50 c31 -30 47 -124 41 -226 -8 -107 -29 -161
-78 -199 -39 -29 -116 -48 -116 -28 0 6 -16 14 -36 18 -66 12 -146 65 -174
114 -37 66 -34 162 7 250 51 109 78 122 231 103 79 -9 111 -18 125 -32z
m-4941 27 c-5 -7 -7 -33 -3 -58 3 -25 3 -96 -2 -159 -8 -119 -3 -141 33 -141
24 0 30 20 30 100 0 75 5 80 70 70 35 -5 35 -6 41 -65 3 -33 9 -70 13 -82 9
-28 -5 -36 -68 -38 -74 -3 -76 -4 -76 -20 0 -26 -24 -17 -62 23 -47 49 -55 67
-63 138 -10 84 9 166 47 210 16 19 35 34 40 34 7 0 7 -4 0 -12z m2502 -6 c35
-6 37 -9 23 -21 -12 -9 -17 -29 -17 -67 0 -49 -2 -54 -22 -54 -58 0 -68 9 -68
61 0 37 -5 51 -21 63 l-21 14 23 5 c37 7 61 6 103 -1z m-1194 -12 c12 0 11 -3
-2 -11 -10 -5 -18 -20 -18 -33 0 -40 -29 -86 -55 -86 -13 0 -30 -2 -38 -6 -11
-4 -15 7 -20 48 -3 29 -8 61 -12 70 -9 22 22 26 145 18z m-5367 -22 c18 -11
41 -31 52 -42 27 -28 73 -148 81 -213 8 -61 -13 -103 -74 -149 -36 -28 -41
-29 -155 -29 -116 0 -119 1 -154 29 -50 42 -83 121 -83 199 0 55 4 67 35 110
20 26 39 47 44 47 12 0 21 -97 19 -206 -2 -97 3 -114 31 -114 20 0 31 35 31
95 l0 33 55 -1 55 -1 2 -46 c1 -25 2 -54 2 -64 2 -24 28 -41 51 -32 16 6 17
17 10 129 -4 67 -8 142 -9 167 -1 32 -5 46 -17 48 -22 4 -42 -46 -37 -95 3
-37 2 -38 -31 -41 -19 -2 -44 -1 -57 2 -22 6 -24 12 -24 60 0 37 -5 60 -16 71
-21 21 -15 26 59 46 85 22 94 22 130 -3z m6425 5 c-8 -10 -16 -25 -17 -33 0
-8 -5 -72 -9 -142 -4 -70 -11 -130 -15 -134 -11 -11 -35 15 -49 54 -14 43 -12
144 4 187 15 40 58 84 82 85 17 0 18 -2 4 -17z m1432 -10 c36 -21 56 -86 51
-168 -8 -160 -11 -169 -61 -205 -41 -29 -140 -39 -159 -16 -17 20 -31 21 -31
1 0 -30 -30 -27 -82 8 -65 42 -83 62 -102 109 -23 55 -7 120 53 213 31 48 47
62 86 75 45 14 212 3 245 -17z m-2410 -20 c53 -63 72 -140 50 -198 -15 -40
-77 -111 -117 -135 -32 -19 -41 -20 -92 -9 -31 6 -69 13 -85 15 -39 5 -52 18
-68 67 -19 60 -8 240 17 267 20 22 44 28 27 7 -6 -7 -11 -53 -11 -102 0 -50
-4 -111 -9 -137 -11 -56 2 -84 35 -74 21 7 33 47 33 112 0 31 0 31 53 29 l52
-2 1 -56 c2 -73 9 -89 36 -85 22 3 23 8 31 133 4 72 8 139 9 150 1 11 -2 28
-7 39 -7 16 -5 17 11 8 11 -6 26 -18 34 -29z m1263 -3 c43 -37 62 -99 54 -173
-4 -29 -9 -60 -12 -68 -8 -22 -59 -49 -90 -49 l-26 0 3 160 c3 180 7 187 71
130z m-9535 -38 c39 -17 59 -44 85 -116 22 -60 40 -185 28 -200 -5 -6 -11 -24
-15 -40 -9 -39 -60 -103 -97 -121 -15 -8 -50 -15 -77 -15 -26 0 -54 -6 -61
-12 -10 -11 -15 -9 -26 6 -15 20 -45 16 -45 -6 0 -20 -59 51 -85 103 -45 89
-55 231 -21 297 28 54 71 82 154 102 28 6 54 16 57 21 7 11 60 1 103 -19z
m-1744 -18 c46 -16 47 -17 24 -28 -22 -11 -23 -17 -22 -98 1 -98 -5 -104 -76
-84 -45 13 -47 16 -49 82 -2 57 -17 94 -38 94 -23 0 -33 -37 -26 -102 3 -40 1
-72 -6 -86 -7 -14 -8 -23 -1 -27 5 -3 10 -46 10 -94 0 -93 8 -111 47 -111 22
0 23 3 23 89 l0 89 58 5 c31 2 59 2 62 0 3 -3 4 -40 3 -84 -1 -71 1 -80 20
-90 17 -9 23 -8 35 7 11 16 13 51 7 194 -3 96 -8 183 -11 193 -11 38 28 15 59
-35 37 -58 67 -169 67 -243 0 -40 -6 -56 -37 -97 -21 -27 -47 -55 -59 -62 -33
-23 -152 -49 -187 -42 -18 4 -42 7 -54 6 -30 0 -117 89 -145 148 -26 57 -31
187 -9 242 34 84 87 128 171 141 73 10 84 10 134 -7z m11129 -101 c2 -5 8 -41
11 -80 l7 -73 -26 0 c-14 0 -35 5 -46 11 -16 8 -25 7 -40 -7 -23 -20 -35 -13
-21 13 5 10 13 46 17 81 l7 62 43 0 c24 0 46 -3 48 -7z m-18554 -72 c47 -25
62 -47 90 -138 l22 -72 -23 -58 c-13 -32 -36 -77 -51 -100 l-27 -43 -63 0
c-181 2 -229 52 -228 238 1 98 13 126 68 148 28 12 131 39 166 43 4 1 25 -8
46 -18z m16316 -132 c4 -12 22 -38 39 -58 18 -20 50 -65 70 -101 44 -76 75
-123 110 -166 l25 -31 -47 -97 c-40 -82 -50 -96 -67 -91 -66 18 -230 28 -446
26 l-245 -3 -13 55 c-6 30 -21 63 -31 72 -26 24 -25 37 4 55 23 15 120 118
230 244 55 63 61 67 90 61 17 -4 50 -7 73 -7 40 -1 58 5 143 45 47 21 57 21
65 -4z m2395 -40 c13 -28 38 -66 55 -84 89 -99 120 -144 145 -209 8 -21 4 -27
-29 -49 -40 -26 -71 -79 -74 -125 l-2 -27 -175 -1 c-100 0 -199 -6 -230 -13
-30 -7 -95 -11 -144 -9 l-90 3 -12 49 c-7 28 -20 64 -30 81 l-17 31 49 63 c27
35 83 103 124 153 41 49 89 106 106 127 l31 38 59 -18 c75 -24 84 -23 84 1 0
14 9 21 38 25 20 4 42 8 47 10 30 10 43 1 65 -46z m-3613 -6 c31 -55 103 -161
145 -215 l28 -36 -34 -29 c-37 -31 -96 -133 -96 -167 0 -12 -4 -26 -8 -32 -4
-7 -76 -13 -202 -17 -197 -6 -206 -7 -270 -26 -39 -12 -174 -14 -235 -3 -39 7
-40 8 -37 48 2 23 -4 59 -13 80 l-16 38 40 40 c21 23 85 90 143 150 l104 109
33 -18 c56 -29 172 -18 250 23 34 18 76 48 92 67 17 19 35 35 40 35 4 0 21
-21 36 -47z m2355 33 c59 -61 145 -179 161 -219 3 -9 11 -17 16 -17 5 0 23
-22 39 -49 l30 -48 -39 -39 c-33 -34 -39 -47 -45 -99 -4 -33 -11 -63 -17 -66
-5 -4 -58 -5 -116 -3 -58 2 -188 4 -288 4 l-182 1 -10 49 c-6 26 -24 71 -41
100 l-30 52 26 31 c31 37 150 170 213 240 38 41 48 47 72 42 54 -12 109 -7
146 13 46 25 48 25 65 8z m-5262 -59 c25 -23 56 -52 70 -62 40 -31 151 -156
197 -221 l42 -60 -21 -45 c-11 -24 -23 -75 -26 -114 -8 -81 8 -75 -177 -72
-237 3 -393 0 -450 -10 -60 -11 -322 1 -337 16 -3 3 -9 31 -13 61 -4 30 -14
68 -22 84 -16 30 -15 31 30 57 9 5 47 55 83 111 75 117 170 228 194 228 9 0
21 -5 27 -11 12 -12 47 -13 164 -7 62 3 71 6 115 45 27 23 56 42 64 42 8 1 35
-18 60 -42z m7724 -41 c20 -36 47 -78 59 -93 13 -15 35 -49 49 -75 24 -43 24
-47 8 -51 -10 -3 -30 -24 -45 -48 -25 -39 -33 -75 -35 -156 0 -20 -3 -21 -26
-13 -14 6 -35 8 -47 5 -112 -26 -428 -16 -520 16 -32 12 -42 24 -67 76 l-29
62 67 65 c37 36 90 87 117 113 28 27 66 67 85 91 l35 42 44 -12 c34 -8 55 -8
88 0 24 7 56 12 71 13 15 0 43 6 62 13 19 8 38 14 42 15 3 0 22 -28 42 -63z
m-11049 -70 c17 -25 103 -76 129 -76 9 0 24 4 34 9 9 6 50 14 91 20 52 7 80
16 96 31 31 29 54 23 78 -20 10 -19 28 -42 38 -51 10 -9 19 -19 19 -23 0 -3
22 -34 48 -69 26 -34 55 -74 64 -88 16 -25 15 -26 -12 -42 -63 -38 -121 -137
-104 -180 7 -19 -63 -25 -174 -15 -199 18 -295 19 -462 5 -220 -19 -237 -17
-250 32 -5 20 -19 50 -29 68 l-20 32 28 18 c27 17 227 199 260 236 50 56 134
137 142 137 4 0 15 -11 24 -24z m-1212 -49 c29 -29 63 -62 77 -73 45 -38 191
-200 205 -228 13 -24 12 -30 -10 -63 -14 -20 -25 -50 -25 -68 0 -45 -19 -58
-67 -47 -21 5 -101 10 -178 11 -77 1 -185 5 -240 9 -55 4 -140 4 -190 0 -49
-4 -144 -10 -210 -13 l-120 -5 -2 54 c-2 30 -10 73 -19 96 l-16 40 80 83 c44
45 102 105 129 133 26 28 58 59 71 69 21 17 23 17 35 2 6 -9 40 -28 74 -41 55
-21 70 -23 125 -15 126 17 165 32 198 79 12 16 24 30 27 30 2 0 28 -24 56 -53z
m6574 -115 c88 -48 131 -198 83 -297 -17 -35 -49 -72 -122 -139 -9 -9 -25 -16
-35 -16 -21 0 -89 23 -99 33 -4 4 -20 7 -35 7 -51 0 -139 130 -139 206 0 41
30 116 58 147 58 64 219 97 289 59z m1328 -17 c28 -13 68 -39 89 -58 38 -32
40 -38 44 -100 8 -130 -31 -180 -184 -233 -43 -15 -83 -31 -89 -36 -26 -23
-91 0 -137 49 -37 39 -78 146 -78 203 0 42 26 123 46 143 4 4 12 -3 18 -16 9
-17 23 -23 64 -28 88 -11 83 -2 78 -151 -5 -142 2 -171 37 -166 24 3 23 -3 26
234 l1 61 60 17 c93 26 74 66 -32 66 -29 0 -91 3 -136 7 -66 5 -80 8 -65 17
25 15 110 25 163 19 25 -2 68 -15 95 -28z m4803 -9 c43 -27 67 -59 87 -116 12
-34 12 -46 -2 -87 -34 -101 -111 -178 -186 -186 -51 -6 -115 14 -136 42 -12
15 -25 22 -42 19 -38 -5 -70 69 -71 165 0 41 6 85 12 98 19 37 41 59 59 59 11
0 9 -4 -7 -16 -26 -18 -29 -49 -6 -58 9 -3 35 -6 59 -6 l42 0 7 -48 c3 -26 2
-69 -2 -94 -13 -68 -9 -109 10 -122 36 -22 56 41 57 182 l1 72 53 0 c55 0 94
23 79 46 -11 16 -154 44 -225 44 -60 0 -61 1 -35 14 35 19 58 22 141 18 51 -2
77 -8 105 -26z m-3511 -6 c23 -10 48 -29 57 -42 24 -37 45 -138 42 -202 -2
-47 -8 -63 -30 -87 -15 -16 -34 -29 -41 -29 -7 0 -18 -6 -24 -14 -19 -23 -106
-38 -136 -24 -22 10 -28 9 -40 -10 -13 -17 -20 -19 -47 -11 -18 5 -48 24 -67
43 -30 30 -35 43 -39 94 -5 75 14 142 64 227 35 57 43 65 79 73 54 11 131 3
182 -18z m2306 -13 c55 -24 104 -87 112 -146 8 -58 -9 -173 -31 -208 -18 -28
-72 -39 -118 -23 -36 12 -36 12 -35 68 1 31 4 86 8 122 l6 65 35 2 c46 4 65
23 47 47 -11 15 -30 18 -123 20 -83 2 -113 -1 -126 -12 -37 -31 -9 -62 55 -62
21 0 37 -6 40 -14 3 -8 3 -60 0 -115 -4 -87 -3 -102 11 -107 20 -8 21 -34 1
-34 -32 0 -113 50 -141 87 -25 33 -29 47 -30 113 -2 97 12 131 62 152 21 9 62
25 89 37 59 24 94 26 138 8z m-6244 -41 c57 -55 81 -200 50 -302 -21 -69 -36
-85 -97 -109 -47 -19 -120 -15 -156 8 -12 8 -33 17 -47 20 -46 12 -115 82
-133 137 -19 58 -20 126 -3 159 11 22 18 24 94 26 l81 2 5 -31 c3 -17 6 -75 7
-129 0 -54 5 -109 10 -123 10 -26 44 -33 53 -11 2 7 3 69 1 137 l-5 125 56 2
c39 1 63 7 76 19 19 17 19 19 3 31 -10 7 -25 13 -34 13 -9 0 -32 8 -51 17 -22
11 -58 18 -101 18 -37 0 -64 3 -60 7 10 9 84 16 159 14 54 -2 67 -6 92 -30z
m5116 4 c52 -25 71 -64 74 -150 2 -35 5 -68 7 -72 14 -22 -67 -112 -131 -145
-61 -32 -138 -22 -174 21 -10 12 -17 13 -34 4 -18 -9 -25 -6 -48 21 -29 35
-52 126 -39 151 5 9 4 23 -2 33 -5 10 -7 39 -3 67 6 47 7 48 33 40 15 -5 52
-11 83 -15 69 -8 69 -7 69 -162 0 -88 3 -115 16 -127 41 -41 51 -10 44 139 -3
72 -5 132 -3 134 4 5 60 5 88 0 14 -3 21 2 23 18 3 17 -6 27 -35 42 -50 26
-22 27 32 1z m-6677 -23 c12 -12 34 -41 48 -66 23 -40 27 -61 31 -156 6 -138
-9 -178 -94 -251 -79 -68 -77 -68 -119 -39 -20 14 -47 25 -60 25 -36 0 -126
84 -147 138 -22 56 -26 179 -8 234 19 58 90 115 154 123 29 4 61 11 72 15 31
13 97 0 123 -23z m-4651 -23 c36 -7 87 -58 113 -113 l23 -51 -16 -131 c-13
-109 -21 -138 -44 -175 -39 -61 -90 -79 -169 -58 -30 8 -63 14 -73 14 -23 0
-106 73 -135 119 -37 58 -54 192 -32 245 50 121 184 181 333 150z m-1642 -16
c50 -12 107 -72 144 -148 34 -72 35 -162 3 -208 -12 -16 -22 -35 -22 -40 0
-27 -135 -116 -208 -137 -22 -6 -130 41 -191 84 -37 27 -68 93 -88 190 -16 77
-16 78 6 114 22 36 103 109 151 136 53 30 110 33 205 9z m3229 -53 c75 -35
136 -119 136 -187 0 -56 -48 -143 -102 -187 -28 -23 -56 -41 -62 -42 -6 0 -20
-2 -30 -4 -63 -12 -95 -8 -140 19 -76 45 -142 164 -133 242 10 81 73 162 144
184 41 13 130 1 187 -25z m1478 16 c63 -27 81 -53 93 -129 9 -58 7 -74 -9
-120 -20 -56 -95 -148 -130 -162 -63 -23 -68 -23 -61 -1 6 20 3 20 -65 17 -70
-3 -73 -2 -119 34 -64 51 -75 81 -68 183 8 100 22 121 108 164 54 28 75 33
136 33 48 0 85 -6 115 -19z m-6325 -22 c61 -11 64 -13 103 -68 22 -31 40 -64
40 -74 0 -10 4 -26 9 -35 5 -10 11 -44 12 -77 2 -49 0 -60 -16 -69 -11 -6 -25
-19 -32 -28 -7 -9 -37 -21 -66 -27 -152 -31 -147 -31 -202 -7 -96 43 -127 108
-107 225 14 84 61 134 152 162 35 10 36 10 107 -2z m-1192 -39 c29 -11 78 -64
87 -92 10 -38 7 -191 -5 -225 -15 -39 -62 -93 -82 -93 -8 0 -15 -4 -15 -8 0
-14 -77 -35 -97 -27 -10 4 -36 9 -58 12 -48 5 -108 44 -125 81 -15 32 -25 176
-16 224 20 109 185 176 311 128z m-1480 -54 c34 -32 75 -152 75 -220 0 -29 5
-57 12 -64 6 -6 10 -13 7 -15 -80 -61 -174 -95 -216 -79 -15 6 -44 13 -63 16
-75 13 -85 17 -113 44 -24 25 -30 41 -39 110 -8 69 -7 87 7 116 24 50 49 69
129 93 100 30 167 30 201 -1z m13084 -45 c11 -11 27 -33 35 -49 15 -29 15 -30
-35 -88 -28 -33 -63 -70 -78 -84 -15 -14 -54 -60 -87 -104 -80 -105 -80 -106
-88 -106 -4 0 -24 13 -44 29 -56 45 -111 55 -207 37 -44 -8 -89 -18 -100 -21
-16 -4 -31 9 -75 65 -30 40 -80 96 -111 125 -31 30 -59 61 -63 70 -3 8 3 34
14 58 10 23 21 50 24 60 5 15 15 16 98 11 148 -10 653 0 667 12 10 9 33 2 50
-15z m-3267 -54 c203 -1 330 -6 336 -12 4 -5 21 -41 37 -79 l29 -70 -75 -69
c-41 -38 -87 -76 -104 -84 -16 -8 -56 -37 -87 -64 -31 -27 -65 -49 -75 -49
-11 0 -30 12 -44 26 -13 15 -38 33 -56 40 -46 20 -151 18 -190 -4 -17 -9 -54
-29 -82 -44 l-50 -28 -44 58 c-46 59 -79 91 -215 205 l-80 68 20 59 20 59 166
-5 c92 -2 314 -5 494 -7z m-4922 -46 c96 0 277 2 402 5 l227 5 6 -28 c3 -15
17 -50 31 -76 l26 -49 -23 -25 c-13 -14 -73 -62 -134 -108 -105 -79 -215 -183
-215 -203 0 -22 -44 -19 -91 5 -42 22 -62 26 -134 25 -72 0 -95 -4 -138 -26
l-52 -25 -80 83 c-44 45 -122 122 -174 170 l-94 86 37 71 c20 39 36 77 36 84
0 20 13 21 108 13 48 -4 166 -7 262 -7z m-1408 -5 c202 -2 371 -7 377 -10 5
-3 14 -29 21 -57 7 -28 27 -70 46 -95 l34 -44 -53 -33 c-64 -42 -177 -146
-237 -220 -46 -57 -53 -59 -105 -37 -75 32 -249 28 -287 -7 -17 -15 -21 -16
-28 -2 -7 13 -188 193 -326 326 l-41 39 10 72 c7 51 14 72 26 75 9 3 57 3 106
1 50 -2 255 -6 457 -8z m-2707 -11 c321 -8 325 -9 325 -76 0 -21 8 -61 19 -88
l19 -50 -42 -40 c-22 -23 -67 -65 -98 -94 -31 -28 -99 -91 -151 -139 -87 -81
-117 -101 -117 -80 0 5 -22 21 -49 35 -56 31 -110 35 -164 12 -20 -8 -42 -15
-49 -15 -7 1 -44 30 -83 66 -38 36 -90 82 -114 103 -56 45 -132 126 -148 155
-9 18 -9 31 2 61 7 22 12 59 11 83 -1 50 -5 49 129 56 107 6 188 16 195 23 3
3 30 2 60 -1 30 -4 145 -9 255 -11z m1438 -5 c26 -5 63 -10 81 -10 31 0 35 -4
55 -57 20 -51 47 -87 73 -95 6 -2 -16 -31 -48 -64 -33 -33 -66 -73 -74 -89 -8
-17 -39 -57 -70 -90 -30 -33 -71 -81 -90 -107 -24 -32 -40 -45 -50 -41 -84 35
-128 44 -180 38 -30 -3 -62 -8 -71 -11 -12 -3 -34 21 -78 85 -33 49 -61 92
-61 96 0 3 -5 11 -10 18 -26 31 -81 115 -91 137 -8 18 -7 30 1 44 6 10 17 48
24 85 l12 66 70 5 c109 8 454 1 507 -10z m10530 -321 c30 -15 53 -45 77 -98
28 -62 34 -109 20 -174 -9 -47 -18 -63 -55 -95 -78 -68 -194 -118 -178 -75 5
14 1 15 -32 10 -70 -11 -152 51 -199 153 -37 79 -30 145 22 204 19 22 89 61
142 79 29 10 182 7 203 -4z m-3014 -31 c58 -13 95 -43 71 -58 -21 -13 -107
-23 -122 -14 -7 5 -26 9 -43 9 -16 1 -46 2 -65 4 l-35 2 30 25 c27 22 71 41
102 43 6 1 34 -4 62 -11z m125 -109 c76 -114 28 -246 -115 -319 -102 -52 -188
-47 -265 14 -66 52 -87 225 -34 281 16 17 27 22 34 15 5 -5 24 -10 42 -10 17
0 46 -3 63 -6 l31 -6 0 -140 c0 -135 1 -139 23 -147 40 -15 46 2 41 107 -3 53
-1 115 3 137 9 39 10 40 62 46 51 7 80 27 81 57 0 19 5 15 34 -29z m-4771 -52
c41 -15 90 -57 111 -97 8 -14 23 -43 35 -65 42 -79 19 -175 -51 -211 -18 -9
-51 -32 -73 -51 -38 -34 -42 -35 -99 -29 -32 3 -65 11 -72 16 -9 8 -16 5 -28
-11 -19 -27 -39 -20 -103 35 -51 45 -73 104 -73 201 0 62 4 78 28 114 15 23
38 49 51 58 71 49 195 67 274 40z m-1582 -32 c91 -19 134 -50 150 -108 12 -46
6 -144 -10 -160 -6 -6 -11 -18 -11 -27 0 -17 -65 -83 -117 -119 -38 -26 -116
-51 -158 -51 -65 0 -132 83 -165 206 -28 102 4 178 99 236 63 39 110 44 212
23z m-2840 -56 c60 -42 56 -44 -83 -44 -112 0 -132 -2 -141 -17 -16 -24 25
-58 70 -58 l34 0 -7 -103 c-7 -106 2 -147 30 -147 29 0 38 29 37 119 -1 99 11
146 34 137 19 -7 67 13 79 34 14 21 36 -68 36 -145 0 -70 -25 -120 -68 -135
-15 -6 -44 -20 -65 -31 -73 -40 -190 -3 -219 70 -6 14 -14 67 -18 116 -11 135
2 157 120 203 92 35 112 35 161 1z m1368 -4 c16 -8 41 -29 56 -46 23 -28 26
-39 22 -78 -14 -133 -46 -193 -130 -241 -41 -24 -59 -29 -87 -24 -162 29 -206
308 -60 382 53 26 155 30 199 7z"/>
<path d="M15196 3608 c-13 -19 -15 -51 -10 -218 3 -107 10 -200 15 -206 6 -7
18 -10 29 -7 17 5 20 16 22 97 l3 91 63 5 62 5 0 -81 c0 -84 13 -113 43 -101
20 8 27 168 13 302 -13 129 -19 144 -48 118 -18 -16 -20 -27 -15 -95 6 -88 10
-84 -77 -72 l-46 7 0 54 c0 48 -21 123 -34 123 -3 0 -12 -10 -20 -22z"/>
<path d="M21193 3553 c-16 -24 -18 -47 -16 -170 2 -141 11 -183 37 -183 16 0
26 43 26 110 0 45 2 48 39 64 65 30 75 22 86 -67 10 -76 21 -96 53 -97 19 0
13 343 -6 362 -24 24 -47 -4 -50 -63 -2 -30 -6 -57 -10 -61 -4 -3 -29 -8 -57
-9 l-50 -3 -5 69 c-6 77 -19 91 -47 48z"/>
<path d="M20075 3540 c-16 -18 -17 -28 -6 -142 7 -68 11 -132 10 -143 -4 -40
1 -55 20 -55 28 0 33 13 34 85 l0 63 44 4 c25 2 48 -1 53 -7 5 -6 10 -44 12
-85 2 -59 6 -75 18 -75 31 0 55 333 27 362 -21 22 -37 -2 -43 -65 l-7 -62 -53
2 c-58 2 -58 3 -56 67 1 34 -12 71 -27 71 -4 0 -16 -9 -26 -20z"/>
<path d="M9579 3422 c-9 -28 -13 -56 -8 -67 16 -43 11 -55 -25 -55 l-34 0 -9
73 c-7 63 -11 72 -29 75 -30 4 -41 -34 -37 -128 2 -41 3 -100 3 -130 1 -78 9
-109 32 -121 30 -16 38 3 38 89 l0 73 33 -3 32 -3 0 -77 c0 -61 4 -81 18 -95
18 -17 19 -17 33 1 11 15 14 55 13 175 -1 213 -27 297 -60 193z"/>
<path d="M285 3260 c-13 -15 -16 -29 -11 -62 3 -24 6 -74 7 -113 1 -97 8 -133
27 -140 21 -8 42 20 42 54 0 35 10 47 43 55 26 6 27 5 27 -32 0 -21 6 -47 14
-57 14 -19 15 -19 34 -2 17 16 19 28 16 100 -2 45 -4 106 -4 135 0 45 -3 52
-20 52 -27 0 -53 -43 -48 -80 4 -28 3 -30 -29 -30 -35 0 -36 3 -33 58 2 32
-22 82 -39 82 -4 0 -16 -9 -26 -20z"/>
<path d="M14506 2788 c-11 -15 -16 -44 -16 -90 0 -37 -5 -79 -12 -93 -9 -19
-9 -28 0 -37 7 -7 12 -31 12 -54 0 -55 8 -74 31 -74 25 0 39 30 39 82 l0 44
48 -1 47 0 -3 -46 c-2 -33 1 -51 13 -63 45 -45 61 4 52 158 -10 151 -14 168
-46 164 -25 -3 -26 -5 -26 -78 0 -81 -2 -84 -65 -69 -24 5 -25 8 -25 90 0 70
-3 84 -17 87 -9 2 -23 -7 -32 -20z"/>
<path d="M17121 2761 c-34 -9 -48 -35 -31 -56 11 -13 25 -16 63 -12 l48 4 -5
-46 c-23 -188 -18 -231 24 -231 24 0 30 20 30 104 0 40 3 94 6 120 7 45 7 46
43 46 55 0 83 38 44 58 -23 12 -190 21 -222 13z"/>
<path d="M11581 2677 c-9 -18 -12 -71 -9 -198 3 -159 5 -174 22 -177 28 -6 38
11 50 85 l11 68 48 3 47 3 0 -74 c0 -79 12 -102 47 -95 17 3 18 19 18 197 0
172 -2 194 -17 202 -29 16 -53 -34 -53 -111 l0 -65 -45 4 c-25 1 -48 5 -52 7
-3 2 -6 36 -6 74 0 69 -11 100 -37 100 -6 0 -17 -11 -24 -23z"/>
<path d="M6972 2640 c-7 -12 -12 -54 -12 -102 0 -74 -2 -85 -21 -96 l-21 -13
21 -23 c19 -20 21 -31 16 -79 -6 -55 -5 -57 20 -63 36 -9 44 2 56 77 6 35 12
65 14 68 2 2 21 4 42 5 l38 1 5 -68 c5 -69 18 -90 50 -84 23 4 19 301 -5 347
-16 31 -17 31 -36 14 -15 -13 -19 -31 -19 -81 l0 -63 -39 0 c-38 0 -39 1 -45
43 -4 24 -4 51 0 60 9 24 -15 77 -35 77 -9 0 -22 -9 -29 -20z"/>
<path d="M5523 2633 c-3 -10 -15 -28 -27 -41 -15 -17 -20 -35 -18 -67 l2 -45
-40 0 -40 0 0 64 c0 77 -6 96 -31 96 -32 0 -48 -39 -48 -120 -1 -41 -3 -117
-6 -167 -3 -51 -2 -93 2 -94 65 -7 61 -10 63 52 4 95 6 99 61 99 l49 0 0 -79
c0 -73 2 -79 22 -84 43 -12 50 8 48 132 -1 64 1 141 5 173 4 35 3 64 -4 77
-14 26 -30 27 -38 4z"/>
<path d="M8516 2591 c-15 -16 -15 -19 -1 -31 9 -7 43 -16 77 -19 l62 -6 0
-134 c1 -115 3 -135 18 -145 31 -19 38 5 40 142 1 144 4 151 62 136 19 -4 28
-2 32 11 12 30 -19 45 -112 55 -131 14 -159 13 -178 -9z"/>
<path d="M10055 2594 c-32 -8 -95 -36 -95 -43 0 -3 11 -14 24 -23 22 -16 28
-16 66 -3 24 8 44 15 46 15 4 0 -1 -71 -11 -163 -7 -62 3 -87 35 -87 20 0 26
22 36 148 4 47 12 85 18 87 6 2 23 6 39 9 20 5 27 12 27 31 0 14 -1 25 -2 26
-20 4 -168 6 -183 3z"/>
<path d="M3889 2569 c-6 -12 -9 -39 -6 -59 4 -34 3 -36 -17 -33 -19 4 -22 11
-22 51 1 40 -2 47 -20 50 -38 5 -46 -19 -47 -160 -2 -126 -1 -133 18 -136 33
-4 43 10 47 63 3 46 5 50 31 53 25 3 27 1 28 -35 2 -61 3 -65 20 -76 30 -19
49 -1 49 45 -1 84 -26 240 -41 249 -21 13 -27 11 -40 -12z"/>
<path d="M2542 2546 c-18 -24 -20 -39 -18 -183 1 -143 3 -158 19 -161 34 -7
47 17 47 84 l0 64 40 0 40 0 0 -58 c0 -46 4 -63 20 -77 18 -16 22 -17 35 -4
17 16 17 20 15 183 -1 120 -9 156 -35 156 -22 0 -37 -37 -37 -91 1 -52 -5 -56
-53 -43 -17 4 -20 14 -21 65 -1 40 -6 65 -16 75 -14 14 -17 13 -36 -10z"/>
<path d="M1021 2494 c-65 -15 -86 -33 -76 -64 7 -21 11 -22 64 -16 l56 6 -3
-112 c-3 -108 -3 -114 18 -126 39 -24 49 0 52 125 l3 112 38 6 c45 8 65 36 41
59 -8 9 -23 16 -32 16 -9 1 -37 2 -62 4 -25 2 -69 -3 -99 -10z"/>
<path d="M13959 1986 c-3 -3 -53 -6 -113 -7 -103 -1 -167 -12 -193 -32 -9 -7
-9 -13 0 -28 10 -17 21 -20 75 -17 79 4 82 -1 89 -130 6 -102 13 -122 44 -122
25 0 25 4 15 158 l-7 100 38 7 c57 10 103 32 103 48 0 19 -38 35 -51 23z"/>
<path d="M6109 1763 c-30 -3 -53 -11 -65 -24 -17 -19 -17 -21 0 -37 12 -12 33
-17 76 -17 l60 0 0 -117 c0 -109 1 -117 20 -123 41 -13 50 9 50 130 0 130 6
141 69 130 34 -6 41 -3 51 15 23 44 9 50 -107 48 -59 -1 -129 -3 -154 -5z"/>
<path d="M4618 1772 c-56 -2 -70 -6 -79 -24 -18 -33 10 -52 72 -49 46 2 51 0
43 -16 -4 -10 -9 -48 -10 -85 -1 -37 -5 -87 -8 -112 -6 -38 -4 -45 12 -50 27
-9 49 2 56 27 3 12 6 70 6 130 l0 107 50 0 c43 0 50 3 50 20 0 41 -64 59 -192
52z"/>
<path d="M3138 1736 c-76 -12 -104 -32 -93 -66 7 -21 11 -22 60 -16 l52 6 6
-49 c3 -26 4 -80 2 -118 -3 -59 -1 -73 14 -87 16 -15 19 -15 35 3 15 16 18 38
17 121 -1 119 5 150 28 150 10 0 26 7 37 15 19 15 19 15 -5 35 -26 22 -51 23
-153 6z"/>
<path d="M20358 5458 c-13 -10 -18 -41 -24 -149 -7 -145 0 -179 36 -179 18 0
20 7 21 68 1 37 1 71 0 75 -1 5 4 35 10 67 13 65 5 130 -15 130 -6 0 -19 -6
-28 -12z"/>
<path d="M17160 5251 c-91 -10 -126 -50 -108 -122 16 -61 50 -88 114 -89 36 0
59 -6 75 -19 28 -23 24 -29 -45 -66 -42 -22 -53 -24 -82 -15 -55 18 -73 -11
-33 -51 21 -21 23 -21 81 -5 71 20 124 54 144 91 20 38 18 48 -13 76 -38 34
-76 49 -125 49 -59 0 -87 40 -52 75 13 12 35 16 101 14 63 -1 88 2 99 13 25
24 7 48 -36 48 -21 0 -44 1 -52 3 -7 2 -38 1 -68 -2z"/>
<path d="M17739 5208 c-14 -6 -37 -32 -53 -60 -23 -40 -25 -52 -15 -64 7 -9
20 -13 30 -11 24 6 37 -43 15 -55 -19 -11 -21 -41 -3 -71 17 -28 23 -193 8
-211 -8 -10 -6 -17 8 -30 18 -17 20 -15 35 26 12 32 16 64 13 120 l-5 76 32 6
c79 15 133 150 86 213 -57 74 -86 86 -151 61z m91 -63 c18 -22 23 -96 8 -125
-8 -14 -23 -26 -35 -28 -18 -3 -23 3 -28 32 -4 19 -4 39 -1 45 4 6 0 26 -8 45
-8 19 -12 37 -8 40 11 12 60 6 72 -9z"/>
<path d="M18349 5186 c-20 -6 -44 -18 -54 -26 -20 -17 -48 -77 -41 -88 2 -4
-4 -18 -13 -31 -21 -27 -14 -82 13 -109 24 -24 36 -4 46 69 4 35 13 76 20 91
14 30 72 58 120 58 37 0 40 22 5 38 -31 14 -48 14 -96 -2z"/>
<path d="M18867 5193 c-4 -7 -3 -69 1 -160 3 -45 46 -93 84 -93 34 0 98 56 98
85 0 24 24 13 28 -13 4 -25 38 -53 57 -45 11 4 11 11 0 37 -8 19 -12 36 -9 39
6 5 -10 75 -28 120 -21 53 -65 22 -82 -60 -18 -89 -30 -108 -63 -101 -21 4
-31 36 -32 103 -2 70 -10 95 -32 95 -10 0 -20 -3 -22 -7z"/>
<path d="M17382 5178 c-19 -19 -16 -188 4 -216 36 -51 89 -46 143 12 32 35 39
33 47 -11 8 -50 30 -83 54 -83 20 0 28 24 11 34 -5 4 -12 41 -16 84 -3 42 -10
85 -15 94 -6 10 -6 18 1 20 7 2 7 12 0 31 -16 42 -54 34 -61 -13 -10 -59 -49
-129 -82 -146 -16 -9 -33 -13 -36 -9 -4 4 -7 52 -7 108 0 83 -3 102 -15 105
-9 1 -21 -3 -28 -10z"/>
<path d="M19234 5171 c-39 -24 -54 -65 -54 -147 0 -55 3 -63 21 -69 31 -10 39
4 45 86 4 41 11 77 17 81 27 17 77 -55 83 -121 1 -19 10 -41 19 -50 15 -15 17
-15 30 2 13 18 15 17 53 -8 54 -36 109 -42 161 -19 62 27 54 45 -16 38 -41 -4
-66 -2 -86 9 l-28 14 56 28 c31 15 63 38 72 52 15 23 15 27 -1 58 -42 77 -150
65 -188 -22 -19 -44 -38 -57 -38 -25 0 18 -45 91 -64 104 -19 13 -50 9 -82
-11z m314 -73 c2 -11 -10 -24 -38 -38 -23 -12 -45 -20 -50 -18 -4 2 -1 20 7
41 14 34 19 38 47 35 19 -2 32 -9 34 -20z"/>
<path d="M19817 5137 c-14 -19 -33 -57 -42 -86 -10 -28 -21 -53 -25 -56 -3 -2
-18 28 -32 68 -22 63 -29 72 -52 75 -32 4 -32 0 -5 -91 21 -70 67 -137 95
-137 19 0 61 56 69 90 8 37 29 39 44 3 14 -35 59 -86 88 -101 27 -15 70 -15
79 -1 3 6 19 9 35 5 24 -5 31 -1 44 24 8 16 15 35 15 42 0 7 11 25 25 40 14
15 25 32 25 38 0 6 7 10 17 8 23 -4 41 -62 42 -130 1 -46 5 -59 20 -68 15 -7
23 -6 34 4 19 19 3 143 -27 206 -27 57 -59 64 -117 26 -47 -32 -49 -32 -49 -2
0 29 -10 38 -29 27 -8 -5 -23 3 -42 22 -26 26 -34 28 -72 23 -63 -10 -80 -10
-98 -2 -11 5 -24 -3 -42 -27z m166 -42 c1 -5 -13 -11 -30 -13 -27 -3 -32 0
-27 13 7 17 53 17 57 0z m65 -97 c-3 -50 -5 -53 -31 -56 -20 -2 -35 5 -57 27
-17 16 -30 34 -30 39 0 6 18 13 40 17 22 4 42 11 46 16 3 5 12 9 20 9 12 0 14
-11 12 -52z"/>
<path d="M18050 5147 c-63 -33 -80 -49 -80 -78 0 -18 -7 -32 -20 -39 -28 -15
-25 -31 13 -61 53 -43 93 -59 145 -59 42 0 52 4 82 35 18 19 31 37 29 39 -3 3
-26 -1 -53 -9 -50 -15 -116 -9 -123 12 -3 7 11 15 31 19 35 6 106 70 106 94 0
6 -11 22 -25 35 -27 28 -66 32 -105 12z m40 -69 c-26 -21 -68 -34 -78 -24 -4
4 4 16 18 26 45 34 102 32 60 -2z"/>
<path d="M20630 5101 c-28 -19 16 -48 98 -65 42 -9 118 -30 167 -46 50 -16
133 -39 185 -51 66 -16 103 -31 124 -49 l29 -27 -20 -29 c-11 -16 -36 -55 -57
-87 -20 -32 -43 -60 -51 -64 -24 -9 -17 -30 14 -43 20 -8 34 -9 47 -1 31 17
113 41 142 41 15 0 63 7 107 15 44 8 112 14 150 15 77 0 95 9 95 49 0 19 -27
54 -103 132 -56 58 -126 131 -156 163 -51 55 -54 56 -76 42 -16 -10 -27 -32
-34 -67 -7 -29 -16 -58 -22 -65 -10 -13 -38 -8 -79 13 -14 7 -38 13 -53 13
-15 0 -62 13 -105 28 -160 59 -372 103 -402 83z"/>
<path d="M20402 4969 c-29 -11 -37 -32 -22 -58 10 -21 12 -21 35 -4 23 17 34
57 18 66 -5 3 -18 1 -31 -4z"/>
<path d="M12699 4777 c-18 -19 -44 -50 -56 -70 -21 -35 -21 -37 -4 -69 32 -61
46 -79 79 -100 46 -29 115 -18 159 25 18 17 34 29 35 26 2 -2 8 -13 14 -24 6
-11 21 -21 33 -23 19 -3 21 1 21 46 0 70 9 105 34 136 18 23 25 26 46 18 33
-13 65 -79 81 -169 13 -71 30 -96 52 -74 14 14 -7 146 -32 202 -20 45 -53 81
-83 92 -29 10 -83 -12 -106 -43 -15 -20 -30 -29 -45 -27 -19 2 -22 -3 -22 -33
1 -19 4 -45 9 -58 6 -17 4 -23 -6 -21 -7 2 -27 -5 -45 -14 -37 -20 -67 -21
-112 -6 -50 18 -39 49 26 74 73 28 91 70 52 119 -31 39 -84 36 -130 -7z m100
-33 c9 -8 -13 -24 -54 -37 -37 -13 -45 -13 -45 -2 0 23 51 56 74 49 12 -4 23
-8 25 -10z"/>
<path d="M11784 4776 c-3 -8 -1 -31 5 -53 15 -53 14 -102 -5 -156 -11 -32 -21
-47 -34 -47 -28 0 -37 20 -44 95 -14 151 -19 161 -60 130 -17 -13 -17 -20 -6
-102 13 -105 41 -168 82 -189 29 -15 33 -15 57 3 39 29 73 103 74 165 1 80 -5
142 -16 156 -13 16 -46 15 -53 -2z"/>
<path d="M12572 4744 c-17 -11 -22 -25 -22 -57 0 -47 -9 -87 -19 -87 -4 0 -20
28 -35 63 -32 70 -42 80 -67 66 -16 -8 -15 -14 12 -65 16 -32 32 -72 35 -91 7
-35 36 -63 66 -63 23 0 44 43 51 107 3 29 13 69 22 87 25 52 3 73 -43 40z"/>
<path d="M11996 4733 c-30 -12 -40 -13 -46 -3 -12 19 -46 7 -42 -15 2 -11 5
-59 6 -107 2 -85 14 -118 41 -118 8 0 14 25 18 72 5 62 10 76 36 101 35 36 57
31 66 -15 21 -106 23 -109 61 -106 22 1 39 -3 44 -12 10 -16 82 -40 120 -40
32 0 89 20 121 42 20 14 22 19 10 27 -9 6 -22 6 -31 1 -32 -17 -119 -23 -150
-10 -31 13 -32 30 -2 30 26 0 102 72 105 99 3 30 -41 64 -83 64 -39 0 -83 -41
-99 -93 -6 -22 -15 -40 -19 -40 -9 0 -32 59 -32 82 0 20 -46 58 -69 57 -9 0
-33 -7 -55 -16z m304 -47 c0 -17 -56 -66 -76 -66 -12 0 -13 4 -3 23 19 36 41
57 61 57 10 0 18 -6 18 -14z"/>
<path d="M3705 4325 c-28 -12 -42 -24 -107 -92 -41 -43 -44 -72 -10 -113 56
-67 187 -90 249 -44 30 23 27 40 -7 36 -88 -10 -117 -8 -152 12 -39 22 -48 36
-23 36 24 0 107 50 145 86 l34 34 -20 27 c-24 32 -63 39 -109 18z m45 -59
c-21 -20 -90 -47 -90 -35 0 13 61 49 85 49 17 0 17 -2 5 -14z"/>
<path d="M3477 4302 c-14 -16 -30 -51 -37 -82 -7 -30 -16 -64 -20 -75 l-8 -20
-7 20 c-24 65 -67 145 -77 145 -31 -1 -42 -17 -30 -47 30 -75 35 -89 36 -105
2 -26 75 -108 97 -108 28 0 55 52 63 121 6 63 19 97 44 115 11 8 12 15 4 31
-18 32 -38 34 -65 5z"/>
<path d="M3065 4306 c-17 -6 -40 -18 -52 -27 -48 -34 -68 -140 -38 -199 17
-33 122 -90 167 -90 42 0 94 25 114 54 22 34 13 42 -28 25 -46 -19 -67 -19
-120 -3 -71 23 -77 38 -24 58 51 20 92 58 112 104 13 32 12 35 -13 58 -14 13
-34 24 -44 24 -9 0 -23 2 -31 4 -7 2 -27 -2 -43 -8z m60 -76 c0 -14 -69 -60
-92 -60 -19 0 -16 24 8 54 16 21 28 26 53 24 19 -2 31 -9 31 -18z"/>
<path d="M3983 4300 c-24 -10 -43 -24 -43 -31 0 -6 -11 -22 -25 -35 -14 -13
-25 -33 -25 -46 1 -45 18 -100 37 -113 28 -21 43 0 43 61 0 55 15 103 34 105
36 4 64 -6 84 -29 31 -36 52 -85 52 -120 0 -29 26 -62 49 -62 6 0 16 10 22 23
8 19 5 38 -18 97 -30 77 -67 124 -121 153 -41 21 -37 21 -89 -3z"/>
<path d="M13106 4291 c-16 -17 -15 -20 19 -50 20 -17 42 -31 50 -31 8 0 31
-24 50 -53 33 -50 36 -62 45 -168 10 -110 4 -319 -9 -319 -3 1 -33 7 -66 15
-53 13 -61 13 -77 -2 -29 -26 -17 -107 31 -212 23 -48 41 -92 41 -97 0 -5 5
-26 11 -46 9 -36 12 -38 48 -38 29 0 42 6 54 23 16 24 53 65 149 165 59 61 60
63 48 93 -14 32 -40 48 -120 71 l-45 13 1 50 c0 28 2 86 4 130 4 88 -6 208
-22 270 -18 69 -102 176 -156 196 -32 12 -37 12 -56 -10z"/>
<path d="M11549 4122 c-39 -40 -78 -116 -110 -214 -15 -47 -22 -100 -26 -206
-5 -130 -4 -148 17 -203 12 -33 20 -62 18 -63 -1 -1 -31 -11 -65 -21 -43 -12
-65 -24 -69 -37 -3 -11 -4 -21 -2 -22 1 -1 38 -26 81 -54 43 -29 97 -67 120
-86 23 -18 56 -41 73 -49 28 -14 33 -14 53 -1 11 8 21 23 21 32 0 9 12 42 26
72 26 54 51 135 61 196 9 59 -31 64 -132 18 -16 -8 -44 -17 -62 -20 -29 -6
-33 -3 -55 37 -21 40 -23 57 -23 184 0 174 21 254 101 377 29 44 51 85 48 90
-11 18 -41 6 -75 -30z"/>
<path d="M3821 3761 c-11 -11 -21 -32 -21 -46 0 -13 -8 -50 -17 -81 -15 -46
-24 -59 -48 -70 -40 -16 -148 -18 -575 -8 -637 14 -1278 2 -1331 -27 -11 -6
-46 -17 -77 -25 -88 -23 -141 -50 -151 -77 -6 -14 -15 -28 -20 -32 -17 -10
-13 -141 4 -175 16 -31 29 -37 40 -20 3 5 8 47 11 92 3 56 10 88 21 100 8 9
51 29 95 43 65 21 113 28 252 36 327 18 559 24 725 17 273 -11 949 -16 986 -8
44 10 89 46 110 88 19 39 25 39 50 6 47 -63 131 -88 335 -100 134 -8 816 -10
843 -3 15 4 53 3 85 -3 101 -19 596 -17 767 4 168 20 293 18 329 -5 12 -9 35
-41 50 -73 24 -51 31 -80 35 -146 1 -22 34 -24 51 -3 15 18 9 93 -11 140 -7
17 -13 33 -13 36 -1 3 -14 26 -30 51 -25 39 -37 49 -85 64 -52 16 -70 17 -241
4 -190 -14 -301 -14 -1025 -6 -685 8 -842 13 -919 31 -93 22 -121 43 -146 113
-12 31 -29 68 -39 81 l-18 24 -22 -22z"/>
<path d="M9539 1974 c-19 -25 -64 -75 -101 -111 -36 -35 -73 -79 -82 -96 -8
-18 -26 -43 -40 -56 -20 -19 -23 -27 -15 -38 15 -17 96 -53 119 -53 42 0 47
-8 39 -63 -3 -29 -19 -81 -33 -117 -15 -36 -34 -94 -42 -130 -8 -36 -30 -96
-48 -135 -36 -73 -36 -98 -3 -93 32 5 75 88 124 238 24 74 47 144 52 155 5 11
13 38 17 60 l9 40 55 2 c100 4 160 18 160 38 0 7 -11 32 -24 56 -13 24 -31 78
-40 119 -10 41 -21 82 -25 90 -5 9 -12 31 -16 50 -11 53 -34 90 -54 90 -11 0
-33 -20 -52 -46z"/>
<path d="M15110 1975 c-6 -8 -9 -18 -6 -23 3 -5 7 -19 10 -33 2 -13 9 -44 15
-68 5 -25 8 -47 6 -51 -7 -12 61 -135 86 -152 22 -17 57 -20 270 -29 134 -5
255 -7 269 -5 14 3 126 8 250 11 124 3 277 12 340 20 253 32 303 35 490 30
107 -3 292 -7 410 -10 285 -6 399 -15 432 -31 44 -23 55 -57 63 -204 7 -131
14 -160 40 -160 22 0 33 51 38 162 3 78 9 115 21 133 32 48 49 50 274 31 114
-10 232 -19 262 -22 115 -9 488 -11 550 -2 36 5 108 11 160 13 126 7 579 7
655 0 33 -3 146 -7 250 -10 207 -5 249 2 372 61 63 31 77 46 97 107 20 59 21
111 1 127 -22 18 -31 6 -51 -71 -26 -100 -61 -126 -219 -163 -62 -15 -129 -14
-292 4 -237 25 -589 29 -883 9 -224 -16 -376 -17 -610 -6 -284 13 -365 19
-377 29 -7 6 -46 9 -86 6 -61 -3 -81 -8 -117 -32 l-44 -29 -30 36 c-56 64
-114 79 -321 83 -66 2 -235 6 -375 11 -336 10 -505 7 -615 -11 -179 -30 -244
-35 -465 -42 -472 -13 -685 -8 -729 15 -28 15 -47 59 -60 138 -17 105 -30 143
-50 143 -10 0 -24 -7 -31 -15z"/>
<path d="M7411 1901 c-19 -12 -44 -79 -43 -116 1 -16 -5 -48 -12 -70 -67 -201
-70 -217 -50 -232 13 -10 37 -13 79 -10 76 5 105 -5 105 -37 0 -14 5 -28 10
-31 6 -3 10 -14 10 -25 0 -10 18 -58 41 -107 22 -48 46 -101 53 -118 39 -89
113 -232 129 -247 9 -10 23 -18 31 -18 32 0 23 43 -29 148 -30 59 -77 163
-106 232 -91 223 -92 228 -38 196 21 -12 34 -15 42 -8 7 6 33 12 57 14 41 3
45 6 48 30 2 15 -1 33 -7 40 -5 7 -25 31 -44 53 -19 22 -42 55 -51 73 -9 17
-21 32 -26 32 -6 0 -10 5 -10 11 0 17 -97 144 -132 174 -33 28 -37 29 -57 16z"/>
<path d="M17151 1019 c-19 -4 -47 -21 -64 -37 -26 -27 -30 -38 -33 -100 l-3
-70 43 -40 c61 -57 102 -75 161 -74 42 1 54 6 78 32 25 28 37 70 20 70 -4 0
-16 -9 -28 -20 -26 -24 -77 -27 -128 -8 -65 25 -76 58 -18 58 41 0 107 51 114
89 7 34 -3 71 -24 88 -18 14 -77 20 -118 12z m69 -53 c20 -4 25 -50 6 -65 -8
-7 -37 -18 -65 -26 -58 -15 -66 -8 -49 48 11 35 49 59 78 50 8 -3 22 -6 30 -7z"/>
<path d="M17670 992 c-35 -34 -40 -45 -40 -85 0 -133 113 -204 233 -147 l42
21 18 -26 c14 -19 23 -23 36 -15 14 7 19 27 24 85 8 91 18 113 54 117 60 7
107 -56 119 -156 6 -51 9 -56 31 -56 13 0 26 6 29 14 10 25 -25 136 -56 181
-46 66 -88 95 -127 87 -35 -8 -93 -55 -93 -76 0 -7 -9 -21 -21 -32 -15 -14
-19 -26 -15 -49 l6 -30 -65 -13 c-86 -16 -112 -15 -119 4 -4 9 -5 18 -4 18 23
13 64 26 82 26 37 0 76 37 76 72 0 36 -50 88 -85 88 -12 0 -37 3 -54 6 -27 6
-36 1 -71 -34z m138 -34 c22 -22 13 -33 -41 -50 -78 -26 -89 -24 -76 10 5 15
17 33 26 40 21 15 75 16 91 0z"/>
<path d="M17546 991 c-15 -16 -46 -88 -63 -144 -9 -30 -27 -13 -52 51 -24 61
-47 84 -63 60 -20 -32 47 -191 89 -211 39 -17 55 1 90 103 17 50 41 102 52
114 16 17 18 25 9 34 -17 17 -42 15 -62 -7z"/>
<path d="M8965 694 c-32 -16 -57 -23 -72 -19 -37 9 -76 -25 -92 -81 -21 -72
-22 -72 -52 -5 -29 63 -34 67 -59 51 -13 -8 -13 -14 -1 -42 7 -18 16 -45 18
-60 3 -16 9 -28 14 -28 5 0 9 -7 9 -15 0 -9 12 -27 28 -40 l27 -24 27 26 c16
16 29 41 33 67 4 22 13 56 21 74 16 40 44 43 45 5 2 -45 3 -46 39 -86 80 -87
145 -100 210 -41 38 34 52 64 30 64 -5 0 -32 -14 -59 -31 -44 -26 -53 -29 -73
-18 -25 14 -49 40 -45 51 1 4 22 18 47 30 100 51 88 148 -19 148 -15 0 -50
-12 -76 -26z m103 -46 c-4 -31 -76 -68 -89 -47 -24 39 2 67 64 68 24 1 28 -3
25 -21z"/>
<path d="M9332 707 c-12 -7 -34 -30 -49 -52 -25 -37 -27 -38 -35 -16 -5 14
-15 21 -25 19 -20 -4 -29 -40 -17 -66 8 -19 10 -33 12 -84 1 -25 8 -41 21 -48
26 -13 52 12 50 48 -1 34 19 88 49 130 29 40 52 37 101 -16 37 -42 49 -65 66
-137 10 -43 15 -50 36 -50 38 0 37 34 -4 150 -13 35 -60 93 -96 117 -30 21
-76 23 -109 5z"/>
<path d="M7933 703 c-7 -2 -13 -13 -13 -23 0 -29 -40 -131 -62 -160 -11 -14
-35 -30 -54 -37 -33 -12 -34 -11 -43 21 -5 21 -5 54 1 85 9 50 -1 91 -22 91
-22 0 -50 -46 -52 -84 -4 -86 3 -128 26 -152 28 -30 84 -41 118 -23 27 15 98
94 98 110 0 5 5 9 10 9 6 0 10 -8 10 -17 0 -34 28 -98 43 -101 27 -5 37 29 21
73 -7 22 -14 56 -14 76 0 47 -30 139 -44 138 -6 0 -17 -3 -23 -6z"/>
<path d="M8490 684 c-26 -16 -70 -75 -70 -94 0 -6 -6 -24 -14 -39 -14 -25 -13
-30 6 -57 39 -56 64 -67 149 -68 68 -1 81 2 100 21 12 12 19 28 16 37 -5 13
-9 13 -37 -1 -45 -22 -130 -20 -147 3 -19 26 -16 41 10 48 12 3 43 19 70 36
41 26 47 34 47 64 0 58 -72 86 -130 50z m78 -54 c2 -13 -27 -33 -100 -68 -18
-8 -6 29 18 58 20 23 34 30 53 28 14 -2 27 -10 29 -18z"/>
<path d="M8198 673 c-15 -2 -36 -15 -47 -29 -23 -29 -30 -30 -47 -6 -11 15
-14 15 -28 2 -13 -13 -13 -26 0 -104 16 -101 18 -106 44 -106 20 0 32 22 24
44 -3 8 2 40 10 70 38 129 127 104 145 -39 4 -38 11 -51 25 -53 59 -12 43 142
-21 200 -21 20 -64 28 -105 21z"/>
</g>
</svg>
