<?xml version="1.0" standalone="no"?>
<!DOCTYPE svg PUBLIC "-//W3C//DTD SVG 20010904//EN"
 "http://www.w3.org/TR/2001/REC-SVG-20010904/DTD/svg10.dtd">
<svg version="1.0" xmlns="http://www.w3.org/2000/svg"
 width="456.458761pt" height="400.000000pt" viewBox="0 0 456.458761 400.000000"
 preserveAspectRatio="xMidYMid meet">
<metadata>
Created by potrace 1.15, written by Peter Selinger 2001-2017
</metadata>
<g transform="translate(-18.359703,417.570151) scale(0.033194,-0.033194)"
fill="#444444" stroke="none">
<path d="M8524 12566 c-3 -9 0 -80 6 -158 7 -79 12 -228 12 -333 -1 -175 -3
-191 -20 -206 -38 -30 -35 -52 11 -82 30 -20 49 -26 67 -22 14 4 111 11 215
16 105 5 196 11 203 14 6 2 12 13 12 23 0 39 -124 66 -325 71 -38 2 -73 4 -76
7 -4 2 -7 80 -7 172 2 250 -10 430 -30 472 -18 38 -58 53 -68 26z"/>
<path d="M4093 12539 c-34 -10 -83 -69 -83 -101 0 -9 12 -31 27 -48 19 -23 28
-46 29 -77 2 -25 8 -51 14 -59 7 -7 10 -29 6 -51 -3 -21 -2 -78 2 -128 4 -49
4 -106 -1 -125 -6 -28 -3 -44 16 -80 15 -29 30 -45 43 -45 18 0 19 8 16 138
-2 91 0 137 7 137 6 0 11 -4 11 -8 0 -5 10 -13 23 -19 12 -6 73 -56 134 -112
114 -104 143 -120 143 -77 0 42 -18 75 -45 82 -14 3 -25 11 -25 16 0 13 -115
128 -128 128 -8 0 -22 22 -22 36 0 2 28 17 63 34 100 47 123 116 73 222 -56
122 -174 174 -303 137z m177 -104 c35 -18 80 -81 80 -112 0 -43 -92 -102 -160
-103 l-36 0 -11 98 c-7 53 -8 101 -3 106 8 8 60 23 88 25 7 1 26 -6 42 -14z"/>
<path d="M9717 12472 c-22 -24 -21 -36 2 -98 11 -28 23 -79 27 -113 l7 -63
-32 6 c-17 3 -44 8 -60 12 -30 5 -61 -15 -61 -41 0 -16 52 -55 73 -55 9 0 19
-4 22 -10 3 -5 20 -10 36 -10 l30 0 -5 -119 -5 -119 30 -12 c19 -8 34 -9 40
-3 8 8 17 91 23 213 1 29 13 40 41 40 10 0 39 7 62 16 32 13 43 22 43 38 0 19
-6 22 -51 24 -89 4 -101 15 -115 104 -12 76 -50 174 -77 196 -11 9 -18 8 -30
-6z"/>
<path d="M7059 12295 c-84 -21 -126 -49 -133 -91 -10 -49 18 -90 93 -138 47
-31 58 -43 51 -55 -32 -59 -111 -93 -165 -71 -56 22 -65 23 -71 5 -19 -48 74
-102 146 -86 100 23 180 96 180 165 0 19 -14 36 -53 66 -30 22 -58 40 -63 40
-5 0 -15 14 -23 31 -17 39 -9 45 73 54 85 10 117 42 80 79 -18 19 -40 19 -115
1z"/>
<path d="M5160 12280 c-53 -10 -100 -38 -111 -68 -12 -30 -6 -36 134 -149 63
-51 91 -87 80 -105 -9 -16 -108 -8 -145 11 -28 16 -39 17 -50 8 -46 -37 -12
-83 79 -112 57 -18 75 -16 146 14 37 16 45 24 49 52 8 51 -13 87 -96 169 -70
68 -75 76 -59 88 11 8 39 12 69 11 27 -1 56 1 62 5 20 12 14 64 -7 76 -20 10
-89 10 -151 0z"/>
<path d="M5605 12246 c-49 -21 -93 -64 -106 -103 -9 -29 -8 -45 4 -87 24 -78
41 -244 42 -411 1 -82 2 -156 3 -162 3 -21 50 -15 62 7 6 12 11 96 11 210 l1
190 37 6 c173 28 271 112 247 209 -6 25 -79 103 -121 130 -31 20 -145 27 -180
11z m146 -80 c41 -17 75 -52 84 -86 5 -22 0 -29 -47 -57 -81 -49 -121 -63
-154 -54 -32 8 -41 31 -43 112 -1 49 12 69 59 88 35 14 63 13 101 -3z"/>
<path d="M4634 12221 c-48 -29 -77 -99 -80 -193 l-2 -79 44 -44 c57 -55 125
-77 201 -65 28 5 61 14 72 20 12 6 33 9 48 8 39 -4 42 25 6 57 -29 26 -46 27
-162 9 -22 -3 -18 4 36 54 75 69 90 101 68 145 -22 45 -60 85 -90 97 -42 16
-107 12 -141 -9z m124 -72 c69 -24 48 -64 -66 -126 -45 -24 -54 -26 -62 -13
-16 25 -11 81 11 116 23 37 57 44 117 23z"/>
<path d="M6528 12220 c-28 -8 -45 -20 -84 -59 -18 -18 -24 -20 -24 -9 0 25
-27 29 -52 8 -19 -16 -21 -22 -11 -38 7 -11 21 -60 33 -109 26 -114 35 -133
59 -133 29 0 41 30 41 102 0 35 6 83 14 108 11 38 18 46 47 53 32 8 36 6 76
-40 33 -37 46 -63 58 -115 8 -37 15 -76 15 -86 0 -19 18 -32 45 -32 8 0 19 18
26 39 14 47 -1 97 -55 196 -50 88 -124 134 -188 115z"/>
<path d="M6055 12211 c-48 -16 -74 -36 -95 -73 -20 -35 -22 -50 -17 -110 7
-82 39 -156 70 -162 74 -15 95 -15 128 1 97 47 159 125 159 198 0 25 -5 55
-10 66 -29 54 -168 101 -235 80z m158 -103 c22 -26 16 -62 -16 -97 -28 -30
-98 -78 -132 -91 -24 -9 -26 -8 -20 10 4 13 0 31 -10 47 -17 26 -23 93 -10
114 4 6 21 20 39 30 42 27 123 20 149 -13z"/>
<path d="M7425 12167 c-49 -20 -75 -37 -75 -51 0 -7 -16 -42 -35 -78 l-34 -66
89 -91 c49 -50 95 -91 102 -91 7 0 27 -7 43 -16 17 -9 50 -17 75 -18 38 0 55
7 107 43 34 23 64 50 68 59 8 21 -10 38 -27 25 -20 -16 -108 -35 -156 -33 -54
1 -78 11 -121 47 -45 38 -37 57 36 89 94 42 123 68 123 114 0 55 -34 80 -109
79 -31 0 -69 -6 -86 -12z m50 -97 c-6 -10 -65 -24 -72 -17 -8 8 50 35 64 30 7
-3 11 -9 8 -13z"/>
<path d="M9360 12171 c-53 -15 -105 -44 -158 -89 -58 -50 -82 -87 -82 -125 0
-12 -5 -28 -11 -34 -11 -11 21 -69 63 -110 27 -28 104 -46 133 -31 52 27 92
85 105 152 6 35 26 45 34 18 6 -17 16 -32 56 -79 10 -12 78 -29 84 -22 2 2 7
14 10 27 6 16 3 22 -9 22 -9 0 -14 4 -10 9 3 5 -4 12 -14 16 -23 7 -61 83 -86
170 -10 33 -22 66 -27 73 -11 13 -47 14 -88 3z m4 -110 c12 -18 -17 -127 -42
-162 -32 -45 -67 -55 -102 -30 -42 30 -39 76 7 132 38 45 123 83 137 60z"/>
<path d="M11193 12164 c-90 -39 -189 -121 -215 -179 -23 -51 16 -136 69 -150
15 -3 31 -11 34 -16 8 -14 108 -23 160 -15 56 9 90 36 82 65 -5 19 -12 21 -82
21 -91 1 -175 21 -179 43 -8 41 59 104 194 183 17 10 18 14 5 38 -16 29 -23
30 -68 10z"/>
<path d="M10094 12146 c-37 -27 -77 -144 -77 -227 0 -122 146 -180 335 -133
63 16 138 56 138 74 0 20 -27 22 -144 10 -94 -10 -133 -10 -178 -1 -53 11 -83
36 -55 46 6 2 41 14 77 26 114 38 157 64 170 104 27 83 -5 107 -150 113 -74 3
-100 0 -116 -12z m162 -70 c18 -14 18 -15 -11 -21 -17 -4 -39 -13 -50 -20 -11
-6 -39 -15 -63 -19 l-42 -6 13 32 c12 29 19 34 58 39 72 10 74 10 95 -5z"/>
<path d="M10615 12135 c-13 -10 -30 -13 -52 -9 -32 6 -33 5 -33 -22 0 -16 0
-72 1 -124 1 -102 18 -160 48 -160 24 0 41 54 41 127 0 53 4 65 29 92 16 17
36 31 46 31 21 0 75 -28 75 -39 0 -4 10 -19 23 -33 29 -31 54 -98 63 -165 4
-29 10 -53 15 -53 5 0 9 -9 9 -20 0 -24 22 -26 41 -4 16 19 16 138 1 157 -5 7
-12 29 -16 49 -5 26 -22 52 -60 91 -85 86 -180 120 -231 82z"/>
<path d="M11711 12099 c-14 -16 -52 -57 -84 -90 -50 -51 -61 -58 -78 -49 -37
20 -114 73 -125 86 -5 7 -32 24 -58 38 -36 19 -53 23 -67 16 -47 -26 -34 -49
65 -122 45 -32 96 -72 114 -89 39 -36 37 -51 -15 -119 -31 -41 -136 -195 -173
-255 -13 -22 -13 -26 2 -42 25 -25 57 -6 115 68 26 34 62 78 80 97 18 20 40
52 49 71 9 20 30 55 47 79 24 32 37 42 59 42 39 0 72 34 58 60 -5 10 -15 22
-21 26 -7 4 2 20 24 43 83 88 107 142 73 163 -21 14 -38 8 -65 -23z"/>
<path d="M2053 11343 c-16 -40 -14 -94 12 -247 3 -16 8 -74 11 -130 3 -56 11
-119 17 -141 7 -24 12 -141 14 -300 1 -143 4 -354 5 -470 1 -115 2 -399 1
-630 -1 -231 1 -492 4 -580 2 -88 6 -414 7 -725 3 -504 7 -675 21 -872 8 -107
7 -572 -1 -803 -10 -256 -10 -274 -4 -530 2 -99 3 -268 2 -375 -5 -499 9 -943
44 -1370 3 -41 7 -120 9 -175 2 -55 9 -152 15 -215 6 -63 15 -167 20 -230 5
-63 14 -158 20 -210 6 -52 10 -155 8 -229 -2 -118 0 -135 16 -146 18 -14 66
-15 511 -13 88 1 189 1 225 1 36 1 135 -3 220 -7 187 -10 131 -10 405 0 127 5
248 8 270 7 323 -16 577 -17 627 -2 19 5 81 6 148 2 141 -8 467 -9 655 0 77 3
210 9 295 12 85 4 157 8 160 10 9 6 109 17 180 20 36 2 94 6 130 8 36 3 106 8
155 12 50 3 137 11 195 16 58 6 112 10 120 10 68 -5 216 -1 265 7 33 5 132 11
219 12 87 1 170 6 183 11 14 5 28 7 33 4 4 -3 108 -5 231 -4 123 0 247 -1 274
-2 63 -3 91 -3 135 0 19 1 130 2 245 1 116 0 280 2 365 6 85 3 207 7 270 9 63
1 171 6 240 10 224 16 526 21 655 11 33 -2 89 0 125 5 36 6 151 12 255 15 105
2 264 9 355 14 91 6 229 9 307 7 78 -2 146 0 150 4 4 4 46 4 93 -1 47 -4 144
-6 215 -4 232 7 612 8 985 1 206 -3 383 -2 405 3 25 6 97 5 185 -1 224 -16
338 -18 555 -8 110 5 243 10 295 12 52 2 167 -2 255 -10 88 -8 177 -11 198 -8
21 3 77 1 124 -5 101 -13 108 -9 116 62 4 42 2 49 -20 64 -21 13 -34 14 -88 5
-45 -8 -102 -8 -197 -1 -73 5 -176 10 -229 10 l-96 0 -11 52 c-7 33 -11 150
-11 313 1 251 -3 328 -35 630 -8 77 -18 205 -21 285 -3 80 -10 200 -16 268 -8
96 -12 459 -7 577 0 11 0 43 -1 70 -1 28 -2 122 -2 209 0 88 -2 162 -4 166 -2
4 -7 62 -10 131 -12 230 -26 286 -68 275 -11 -3 -32 1 -46 9 -27 14 -243 12
-341 -2 -25 -4 -124 -5 -220 -3 -237 5 -358 5 -465 -3 -49 -3 -146 -9 -215
-12 -69 -2 -165 -10 -215 -16 -49 -6 -119 -10 -154 -10 -49 0 -72 -5 -93 -20
-31 -23 -34 -39 -15 -72 10 -15 14 -63 16 -155 1 -90 6 -144 16 -167 7 -19 10
-35 5 -35 -5 0 -9 -52 -9 -116 -1 -64 -4 -120 -7 -125 -3 -6 0 -16 6 -24 8 -9
10 -32 6 -62 -3 -27 -5 -72 -5 -101 0 -29 -5 -68 -11 -86 -7 -22 -7 -42 -1
-59 8 -19 6 -28 -4 -37 -8 -7 -12 -17 -9 -22 9 -13 16 -160 13 -258 -1 -41 -2
-86 -1 -100 1 -14 1 -43 1 -66 1 -22 10 -66 20 -97 14 -40 16 -57 8 -60 -9 -3
-13 -123 -14 -468 -2 -255 -3 -477 -3 -494 -2 -139 1 -221 9 -254 5 -22 6 -43
2 -48 -3 -6 -44 -9 -91 -9 -47 1 -229 -2 -405 -6 -176 -4 -352 -5 -392 -1
l-72 6 -5 41 c-3 23 -8 73 -11 111 -2 39 -10 120 -17 180 -15 140 -15 153 -16
1985 -1 1309 -4 1628 -15 1648 -5 6 -18 12 -31 12 -12 0 -27 5 -32 10 -7 7
-38 7 -97 1 -81 -9 -548 -6 -612 4 -24 4 -333 6 -470 3 -90 -1 -302 -19 -329
-27 -17 -5 -56 -17 -87 -26 -31 -10 -65 -14 -76 -11 -27 9 -48 -31 -39 -76 4
-18 7 -44 7 -58 0 -82 1 -145 2 -218 1 -45 -1 -82 -5 -82 -3 0 -4 -17 -2 -37
2 -21 6 -71 9 -111 3 -41 7 -83 10 -95 6 -22 16 -187 19 -307 1 -36 5 -94 9
-130 6 -58 20 -380 19 -437 -1 -60 0 -186 2 -215 1 -18 -1 -45 -5 -60 -4 -15
-3 -30 2 -34 5 -3 7 -9 5 -13 -3 -4 -7 -89 -10 -189 -3 -100 -7 -185 -10 -190
-2 -4 1 -38 8 -74 7 -37 10 -72 6 -77 -7 -12 -4 -579 5 -936 3 -132 6 -249 5
-260 -1 -11 -3 -72 -4 -135 -2 -63 -5 -119 -6 -125 -1 -5 -2 -33 0 -61 1 -35
-3 -54 -14 -63 -10 -9 -66 -14 -177 -17 -89 -2 -165 -7 -170 -10 -5 -3 -114
-7 -243 -8 l-233 -4 -6 70 c-3 38 -11 75 -16 82 -6 7 -8 15 -6 18 3 3 1 26 -5
52 -13 58 -20 147 -24 301 -5 154 -16 1085 -20 1550 -1 251 -6 369 -14 388 -7
16 -10 33 -6 38 18 29 25 1009 9 1339 -15 326 -12 579 13 975 13 222 4 647
-19 893 -15 157 -13 155 -159 142 -106 -9 -608 -5 -618 5 -3 3 4 15 16 28 11
12 30 43 41 70 11 26 24 47 29 47 5 0 35 -9 68 -20 32 -11 70 -20 84 -20 15 0
30 -4 36 -10 16 -16 76 32 89 71 13 37 30 40 88 17 33 -13 82 -6 133 18 35 17
36 19 31 63 -2 25 -6 53 -8 61 -3 11 6 16 36 18 22 2 44 8 50 13 5 5 19 9 31
9 36 0 52 10 74 45 18 30 19 36 6 73 -8 22 -22 54 -31 72 -16 32 -16 34 5 74
13 23 40 59 62 82 21 22 43 56 48 74 12 41 13 120 2 137 -4 6 -30 12 -57 14
-28 2 -67 10 -88 18 -31 12 -37 18 -33 35 28 101 10 233 -29 229 -26 -3 -135
-29 -155 -37 -12 -5 -15 4 -15 51 0 32 -4 70 -8 86 -7 26 -10 27 -50 20 -23
-3 -64 -17 -92 -30 -70 -32 -96 -30 -125 10 -13 17 -23 33 -22 35 7 7 -31 61
-53 76 -24 16 -65 14 -65 -3 0 -4 -34 -43 -75 -86 -41 -44 -75 -83 -75 -87 0
-17 33 -58 46 -58 7 0 17 7 22 16 12 21 113 124 123 124 11 0 50 -70 44 -80
-3 -5 -1 -11 5 -15 5 -3 10 -16 10 -29 0 -50 68 -70 101 -30 6 8 17 14 24 14
7 0 33 11 56 25 24 14 48 25 53 25 8 0 3 -63 -10 -114 -4 -17 1 -30 16 -44 20
-19 24 -19 88 -5 37 8 72 21 78 29 6 8 19 14 28 14 21 0 22 -66 1 -117 -31
-74 -10 -123 53 -123 18 0 32 -4 32 -10 0 -5 18 -10 40 -10 29 0 43 -5 47 -17
4 -9 1 -19 -5 -21 -37 -12 -153 -164 -152 -197 1 -5 16 -41 35 -80 18 -38 32
-72 29 -76 -2 -4 -34 -10 -70 -14 -37 -4 -81 -15 -98 -25 -28 -16 -31 -21 -28
-61 2 -24 9 -50 14 -57 8 -9 8 -16 0 -24 -11 -11 -37 -7 -151 22 -68 17 -81 8
-81 -56 0 -47 -11 -70 -22 -46 -5 12 -146 102 -160 102 -2 0 -22 -17 -45 -37
-28 -26 -50 -59 -68 -105 -15 -38 -30 -68 -34 -68 -4 0 -35 27 -69 60 -33 33
-68 60 -77 60 -9 0 -42 -22 -73 -50 -31 -27 -63 -50 -71 -50 -9 1 -29 19 -46
41 -62 83 -111 138 -127 144 -10 3 -50 -12 -101 -40 -46 -25 -89 -45 -95 -45
-7 0 -12 16 -12 41 0 33 -16 113 -26 127 -1 2 -44 -9 -95 -24 -52 -15 -114
-29 -138 -31 l-44 -5 8 84 7 85 -42 22 c-22 11 -49 21 -59 21 -26 0 -81 21
-81 30 0 13 63 114 77 123 21 13 35 77 31 140 -3 71 -13 66 114 53 64 -6 68
-5 84 19 12 19 15 43 13 107 l-4 83 25 -2 c50 -3 86 -17 108 -40 32 -35 63
-27 85 22 23 51 88 158 100 166 18 13 72 -17 131 -73 33 -32 69 -58 78 -58 17
0 37 31 85 132 10 21 22 38 26 38 16 0 67 -44 67 -59 1 -15 61 -61 80 -61 18
0 22 22 9 53 -17 43 -122 150 -159 164 -35 13 -40 8 -82 -84 -12 -29 -29 -53
-37 -53 -8 0 -32 15 -55 33 -49 41 -69 51 -132 73 -47 16 -48 16 -65 -8 -10
-12 -19 -27 -19 -31 0 -18 -49 -113 -69 -136 l-22 -25 -45 22 c-24 12 -59 22
-77 22 -18 0 -38 5 -44 11 -17 17 -58 3 -71 -25 -7 -15 -8 -37 -2 -58 4 -18
11 -59 14 -92 l6 -59 -42 6 c-24 4 -67 11 -97 16 -87 16 -91 10 -84 -110 4
-78 2 -104 -9 -117 -8 -9 -31 -51 -52 -92 -21 -41 -51 -85 -67 -98 -30 -25
-30 -37 4 -84 24 -32 75 -58 136 -70 46 -8 64 -23 56 -45 -2 -7 0 -15 4 -18 5
-3 4 -20 -1 -39 -9 -29 -8 -38 11 -65 35 -49 50 -53 153 -40 51 6 101 15 110
20 9 5 18 9 20 9 2 0 4 -24 5 -53 2 -45 6 -56 33 -79 18 -14 48 -29 66 -33 29
-5 41 -1 73 24 22 17 44 31 50 31 7 0 23 12 38 26 14 14 31 23 38 20 8 -3 32
-33 53 -68 48 -76 79 -108 104 -108 10 0 18 -5 18 -10 0 -18 41 8 92 58 l47
46 22 -28 c11 -14 43 -38 70 -51 27 -14 49 -28 49 -31 0 -4 -17 -4 -37 -1 -21
3 -97 0 -168 -6 -74 -7 -150 -9 -175 -5 -69 12 -167 13 -375 4 -104 -5 -205
-9 -222 -10 -74 -3 -110 -89 -91 -214 12 -73 12 -68 -1 -129 -6 -32 -7 -71 -1
-105 4 -30 6 -92 3 -139 -7 -137 -8 -229 -2 -231 3 -2 1 -41 -5 -88 -6 -47
-10 -184 -9 -305 0 -121 1 -274 1 -339 1 -66 -2 -124 -5 -130 -4 -5 -8 -120
-10 -255 -4 -248 -4 -277 -2 -453 0 -54 -3 -103 -6 -109 -8 -12 -8 -326 -1
-338 14 -22 21 -332 10 -433 -5 -48 -3 -72 5 -82 10 -11 10 -20 1 -37 -9 -15
-10 -54 -5 -133 10 -149 10 -303 1 -596 -13 -414 -23 -624 -36 -735 -4 -38 -4
-76 0 -83 3 -7 3 -39 -1 -70 -5 -31 -6 -66 -2 -77 12 -38 6 -745 -7 -775 -11
-27 -13 -28 -138 -39 -334 -28 -442 -35 -767 -46 -77 -2 -154 -7 -172 -11 -18
-3 -52 -3 -75 0 -42 6 -43 8 -44 44 -1 90 -16 297 -29 407 -8 66 -17 190 -20
275 -3 85 -8 200 -10 255 -2 55 -7 161 -10 235 -3 74 -13 205 -22 290 -15 150
-14 453 3 635 9 92 10 1467 1 1660 -4 94 -10 296 -13 450 -3 154 -8 283 -10
287 -4 7 -4 292 1 583 5 367 29 1005 47 1280 14 214 15 670 2 940 l-9 180 -27
0 c-16 -1 -28 5 -28 12 0 13 -54 18 -190 16 -36 -1 -132 -3 -215 -4 -82 -1
-220 4 -305 11 -85 7 -247 14 -360 15 -113 1 -240 7 -282 13 -43 6 -91 9 -107
6 -16 -3 -37 -1 -48 4 -11 6 -64 14 -119 18 l-99 6 -24 -28 c-32 -37 -33 -56
-2 -324 7 -58 14 -136 16 -175 3 -38 7 -110 11 -160 3 -49 6 -101 5 -115 0
-14 -1 -68 0 -120 0 -52 1 -102 0 -110 -6 -171 -12 -348 -11 -360 5 -70 4
-464 -1 -495 -4 -22 -5 -43 -3 -47 7 -12 13 -572 6 -583 -4 -5 -8 -122 -9
-260 -4 -358 -9 -527 -17 -553 -5 -13 -3 -29 4 -37 7 -8 7 -16 1 -19 -12 -8
-11 -146 2 -146 6 0 3 -8 -6 -18 -13 -15 -17 -38 -16 -108 0 -49 4 -98 8 -109
5 -12 3 -30 -5 -47 -17 -33 -18 -68 -3 -68 8 0 8 -4 0 -14 -9 -10 -12 -62 -10
-173 1 -87 -2 -175 -6 -195 -5 -28 -4 -38 5 -38 10 0 10 -3 0 -15 -10 -12 -10
-18 0 -30 9 -11 10 -22 1 -42 -6 -17 -11 -95 -11 -198 1 -93 -2 -196 -6 -227
-4 -40 -3 -63 6 -73 9 -11 10 -18 1 -29 -6 -8 -14 -42 -17 -77 -10 -114 -11
-554 -2 -566 6 -7 6 -18 2 -25 -13 -20 -14 -77 -2 -84 7 -4 6 -9 -2 -14 -12
-8 -14 -43 -10 -210 1 -74 -6 -286 -12 -330 -1 -8 3 -34 10 -58 10 -31 10 -47
2 -57 -15 -18 -12 -291 4 -330 7 -16 13 -62 14 -102 0 -40 5 -80 9 -90 5 -10
6 -65 3 -123 -3 -58 -3 -119 1 -137 4 -18 2 -36 -4 -42 -8 -8 -7 -26 2 -62 14
-54 18 -290 6 -346 -9 -40 28 -36 -377 -38 l-318 -1 0 66 c-1 98 -10 220 -20
266 -5 23 -12 90 -15 150 -4 60 -10 129 -16 154 -5 25 -14 142 -20 260 -5 118
-12 238 -14 265 -11 144 -18 247 -20 310 -2 39 -6 117 -10 175 -3 58 -5 290
-4 515 4 467 3 548 0 805 -2 102 0 349 4 549 4 240 2 439 -6 585 -10 192 -22
867 -17 996 3 66 2 92 -6 490 -9 361 -13 1018 -9 1280 6 417 -8 850 -33 1010
-2 14 -9 102 -15 195 -10 151 -14 174 -35 208 -31 47 -51 47 -71 0z m1187
-794 c13 -18 49 -62 102 -128 16 -19 54 -31 46 -13 -34 70 -45 88 -55 95 -19
12 -16 29 5 25 9 -2 22 3 28 10 9 12 25 12 110 1 54 -7 174 -13 265 -14 92 -1
231 -6 310 -10 79 -5 189 -9 244 -10 55 0 106 -4 113 -9 7 -4 39 -5 70 -1 86
9 339 11 348 2 5 -4 9 -58 10 -120 1 -62 5 -184 9 -272 4 -88 8 -169 8 -180 0
-52 -15 -386 -19 -430 -3 -27 -5 -61 -6 -75 0 -14 -5 -88 -11 -165 -5 -77 -12
-210 -13 -295 -2 -85 -5 -184 -7 -220 -2 -36 0 -88 4 -117 5 -31 4 -66 -2 -85
-14 -48 -31 -856 -18 -864 8 -4 3 -80 -6 -94 -3 -5 -3 -10 2 -10 4 0 9 -62 10
-137 0 -76 4 -174 7 -218 3 -44 6 -100 6 -124 0 -24 4 -49 10 -56 7 -9 6 -16
-4 -24 -8 -7 -12 -23 -10 -39 4 -30 5 -113 1 -210 -1 -35 1 -66 5 -68 3 -2 7
-62 8 -132 2 -168 2 -171 -4 -289 -3 -62 -1 -105 5 -108 5 -4 6 -12 2 -18 -11
-18 -12 -290 -1 -304 6 -7 5 -19 -1 -32 -11 -20 -8 -242 3 -260 3 -5 1 -33 -4
-62 -6 -32 -7 -93 -2 -152 4 -53 4 -101 1 -105 -8 -8 -27 -212 -28 -302 0 -30
-3 -84 -6 -120 -4 -39 0 -107 9 -170 9 -58 16 -114 16 -125 0 -11 5 -108 11
-215 5 -107 10 -242 10 -300 0 -57 3 -108 6 -113 3 -5 5 -66 4 -135 -1 -70 4
-163 10 -207 13 -91 14 -111 25 -290 9 -157 9 -183 0 -192 -6 -6 -254 -11
-646 -12 -52 -1 -174 3 -270 9 -96 5 -209 7 -250 5 -41 -3 -130 -7 -197 -10
-114 -5 -121 -4 -116 13 2 11 -11 40 -36 73 -22 30 -50 69 -63 88 -13 19 -40
51 -60 72 -40 40 -48 59 -23 59 8 0 15 -4 15 -10 0 -5 27 -37 60 -72 33 -34
60 -65 60 -69 0 -11 52 -21 61 -12 5 5 -9 26 -32 47 -22 21 -52 55 -67 75 -15
20 -36 45 -48 56 -12 11 -24 28 -27 38 -4 9 -11 17 -17 17 -5 0 -10 5 -10 12
0 6 -11 26 -25 44 -19 25 -25 45 -25 85 0 45 2 50 15 39 9 -7 25 -33 36 -58
23 -49 90 -139 121 -160 19 -14 48 -10 48 5 0 4 -19 29 -43 54 -23 25 -48 58
-56 72 -8 15 -18 27 -23 27 -4 0 -8 6 -8 13 0 8 -11 24 -25 37 -14 13 -25 27
-25 32 0 5 -11 26 -25 48 -15 24 -25 54 -25 77 l0 38 20 -25 c11 -14 20 -37
20 -52 0 -17 8 -31 20 -38 11 -6 27 -27 35 -48 20 -46 50 -79 93 -99 43 -21
52 -10 20 25 -31 32 -138 189 -138 201 0 5 -3 11 -7 13 -5 1 -18 25 -31 51
-12 26 -26 46 -31 42 -10 -6 -16 20 -26 110 -6 53 -5 58 9 46 9 -7 16 -22 16
-32 0 -10 4 -20 9 -23 5 -3 12 -17 15 -31 4 -14 28 -58 54 -98 25 -40 52 -83
58 -97 17 -35 70 -90 88 -90 31 0 24 21 -34 108 -33 50 -73 114 -89 144 -15
29 -46 86 -67 125 -24 46 -45 73 -55 73 -21 0 -26 16 -19 58 6 37 23 47 28 17
2 -11 15 -31 28 -45 13 -14 32 -51 41 -81 25 -77 115 -189 152 -189 24 0 27
15 9 35 -38 39 -84 107 -93 135 -4 14 -21 41 -36 61 -16 20 -29 40 -29 44 0 5
-11 22 -24 40 -13 17 -32 49 -41 71 -15 35 -18 37 -26 19 -5 -13 -7 1 -6 42 1
35 4 63 7 63 6 0 16 -15 52 -80 50 -89 70 -120 78 -120 4 0 10 -10 14 -22 8
-34 57 -85 89 -92 35 -8 34 5 -3 47 -17 19 -30 39 -30 45 0 6 -4 12 -8 14 -8
3 -92 134 -92 144 0 3 -16 24 -35 47 -20 23 -38 52 -41 64 -4 13 -12 23 -20
23 -11 0 -14 17 -13 78 1 42 4 68 6 57 3 -11 10 -26 16 -34 7 -8 11 -23 9 -35
-2 -12 10 -35 28 -54 16 -18 30 -39 31 -45 0 -7 22 -39 48 -72 33 -42 55 -61
74 -63 20 -2 27 1 27 13 0 9 -8 19 -17 22 -10 2 -25 17 -33 32 -22 42 -91 145
-104 156 -7 6 -20 31 -30 58 -10 26 -26 52 -37 57 -15 9 -18 19 -15 53 3 23 5
45 5 50 2 23 22 -1 51 -60 42 -90 90 -154 111 -147 11 3 15 -2 15 -17 -1 -16
7 -24 27 -30 33 -9 34 1 4 38 -13 15 -41 55 -62 88 -21 33 -46 71 -56 85 -11
14 -30 46 -44 72 -13 26 -29 49 -35 53 -6 4 -8 10 -5 14 2 5 0 22 -5 40 -9 33
5 45 17 14 4 -10 15 -24 25 -31 10 -7 18 -18 18 -23 0 -6 18 -32 40 -58 22
-26 40 -54 40 -63 0 -9 10 -18 23 -22 54 -14 61 -2 21 41 -14 15 -34 44 -44
63 -10 19 -30 45 -44 57 -14 13 -26 32 -26 42 0 11 -6 24 -13 28 -37 22 -78
203 -47 203 13 0 29 -41 22 -58 -2 -7 10 -31 27 -52 17 -21 31 -45 31 -52 1
-7 21 -35 45 -62 38 -43 46 -47 60 -36 14 12 13 15 -7 37 -35 37 -138 226
-138 254 0 5 -7 9 -15 9 -8 0 -15 -4 -15 -10 0 -5 -4 -10 -10 -10 -13 0 -13
107 0 115 6 3 14 -5 19 -18 6 -14 15 -28 20 -32 6 -3 11 -17 11 -31 0 -13 8
-32 18 -42 9 -10 25 -35 36 -55 22 -42 52 -72 84 -82 28 -8 28 6 -1 42 -13 15
-45 63 -71 106 -26 42 -52 77 -57 77 -5 0 -9 11 -9 25 0 13 -13 39 -29 57 -24
28 -30 44 -32 96 -4 68 9 78 26 21 6 -19 21 -55 33 -81 12 -26 22 -52 22 -57
0 -6 4 -11 9 -11 5 0 16 -16 26 -36 9 -19 24 -38 33 -40 9 -3 25 -10 35 -15
27 -15 32 -4 8 20 -11 11 -27 34 -36 50 -8 17 -20 31 -26 31 -6 0 -9 6 -6 14
3 8 -2 25 -12 38 -10 13 -25 46 -35 73 -9 28 -29 63 -46 78 -30 29 -38 60 -21
86 6 10 12 4 21 -23 6 -20 16 -36 20 -36 5 0 7 -6 5 -13 -6 -15 116 -157 151
-175 13 -7 24 -10 24 -7 0 4 -24 39 -53 78 -96 129 -167 264 -167 315 0 45 18
37 39 -16 9 -23 27 -49 39 -58 12 -8 20 -20 16 -25 -7 -12 42 -98 70 -121 32
-27 64 -20 36 8 -5 5 -28 45 -50 89 -80 155 -109 207 -124 224 -17 18 -20 39
-10 65 8 20 34 9 34 -15 0 -20 23 -64 73 -141 25 -39 36 -48 59 -48 l29 0 -46
65 c-25 36 -45 68 -45 72 0 3 -11 21 -25 39 -14 18 -25 40 -25 49 0 8 -6 26
-14 38 -8 12 -17 32 -21 44 -10 36 20 18 40 -23 9 -18 24 -38 35 -44 10 -5 21
-18 24 -27 5 -16 26 -30 74 -50 25 -11 11 17 -36 69 -60 66 -86 122 -31 67 31
-31 47 -11 30 39 -23 63 -72 162 -81 162 -4 0 -11 16 -14 35 -4 19 -18 47 -32
62 -21 23 -24 34 -20 72 2 26 5 48 5 50 1 2 15 -23 32 -55 17 -32 38 -66 45
-75 8 -9 11 -19 7 -22 -3 -4 2 -16 12 -27 10 -11 14 -20 10 -20 -5 0 0 -10 11
-22 11 -13 25 -35 32 -50 15 -36 59 -65 74 -50 9 9 6 17 -9 34 -11 13 -28 37
-37 55 -8 17 -21 37 -28 45 -20 21 -48 75 -48 92 0 11 6 9 25 -9 25 -26 45
-32 45 -15 0 6 -9 19 -20 30 -11 11 -20 25 -20 30 0 9 -66 116 -80 130 -12 12
-50 102 -50 118 0 21 40 -25 67 -78 19 -37 72 -110 87 -121 5 -4 5 -12 1 -19
-10 -16 13 -30 50 -30 l30 1 -22 18 c-13 11 -23 23 -23 28 0 5 -11 20 -25 33
-14 13 -25 29 -25 36 0 16 -66 114 -88 130 -9 8 -14 14 -9 14 4 0 -5 23 -19
50 -26 51 -41 144 -25 155 10 5 41 -54 41 -78 0 -9 4 -19 10 -22 5 -3 30 -36
54 -73 46 -68 90 -122 101 -122 12 0 -8 45 -31 73 -13 15 -31 43 -40 62 -9 19
-22 35 -30 35 -7 0 -11 6 -8 13 2 7 -9 33 -26 58 -16 24 -30 49 -30 54 0 6 -9
21 -20 35 -20 26 -29 120 -11 120 15 0 33 -28 26 -40 -4 -6 0 -19 9 -28 40
-43 87 -115 82 -128 -3 -8 1 -17 9 -20 8 -4 15 -12 15 -19 0 -10 31 -56 70
-102 6 -7 20 -13 30 -13 17 0 15 8 -21 68 -23 37 -46 73 -52 81 -6 7 -12 18
-13 25 -1 6 -36 65 -78 132 -67 107 -76 127 -76 169 0 61 19 49 45 -30 11 -30
25 -55 32 -55 7 0 12 -3 11 -7 -4 -13 24 -73 33 -73 5 0 9 -12 9 -26 0 -23 52
-84 72 -84 5 0 8 -6 8 -14 0 -21 28 -46 51 -46 23 0 25 17 4 39 -35 38 -72 88
-83 114 -6 15 -18 27 -26 27 -7 0 -16 14 -20 31 -5 27 -51 102 -83 137 -7 7
-13 19 -13 25 0 7 -6 23 -13 37 -22 41 -27 86 -20 165 6 79 13 90 30 53 11
-22 19 -34 71 -98 12 -15 22 -31 22 -35 0 -26 37 -76 67 -90 44 -21 56 -10 22
18 -15 12 -29 34 -32 48 -6 25 -16 41 -88 144 -80 115 -82 120 -79 208 2 45 4
98 6 117 1 19 3 59 3 89 l1 54 25 -23 c14 -13 25 -29 25 -35 0 -7 9 -20 19
-29 11 -10 25 -32 32 -49 7 -18 20 -41 29 -52 10 -11 20 -33 24 -49 4 -16 15
-30 26 -33 11 -3 20 -12 20 -20 0 -7 7 -25 16 -39 13 -18 20 -22 30 -13 10 8
7 21 -18 62 -17 29 -45 77 -61 107 -16 30 -34 61 -39 68 -7 8 -7 12 1 12 6 0
18 -11 27 -26 9 -14 23 -23 30 -20 7 3 15 -2 18 -10 6 -15 26 -20 26 -6 0 5
-20 38 -45 75 -25 37 -45 72 -45 78 0 16 -49 99 -87 146 -18 23 -33 48 -33 57
0 8 -4 18 -10 21 -5 3 -10 21 -9 38 0 29 1 30 12 13 7 -10 29 -41 50 -68 21
-26 35 -53 32 -58 -3 -6 9 -35 27 -65 23 -38 39 -55 54 -55 33 0 36 11 11 44
-24 32 -97 160 -97 170 0 20 23 0 40 -34 21 -42 60 -66 89 -55 14 5 13 9 -5
23 -28 22 -136 229 -132 250 3 12 12 4 31 -26 31 -48 86 -87 101 -72 6 6 2 16
-12 28 -12 11 -22 23 -22 27 0 4 -13 24 -28 44 -35 44 -97 175 -123 256 -22
71 -21 65 -9 65 6 0 10 -5 10 -11 0 -6 13 -28 29 -48 15 -20 31 -48 34 -62 4
-14 17 -37 29 -52 43 -50 68 -85 68 -96 0 -6 7 -11 15 -11 24 0 18 15 -40 111
-30 50 -55 93 -55 95 0 14 -65 94 -76 94 -12 0 -20 34 -30 123 -4 31 -2 47 5
47 6 0 11 -7 11 -15 0 -9 16 -39 35 -68 19 -28 35 -59 35 -69 0 -9 11 -29 25
-44 14 -15 36 -50 49 -78 24 -49 58 -96 70 -96 10 0 7 45 -3 56 -5 5 -31 50
-56 99 -26 50 -53 97 -61 106 -8 8 -14 19 -14 23 0 4 -14 27 -31 52 -40 59
-69 123 -69 156 0 48 16 39 49 -28 18 -36 39 -68 46 -70 7 -3 18 -18 24 -32 6
-15 15 -34 20 -42 5 -8 21 -40 35 -70 14 -30 37 -67 51 -83 30 -32 54 -27 31
7 -8 12 -32 56 -54 97 -49 91 -65 119 -122 205 -25 38 -53 83 -63 101 -17 32
-22 112 -8 147 6 16 10 14 25 -18 9 -20 21 -36 26 -36 4 0 11 -18 15 -41 4
-22 13 -43 21 -46 8 -3 14 -15 14 -28 0 -13 7 -25 15 -29 8 -3 15 -17 15 -30
0 -14 6 -29 14 -33 8 -4 15 -17 17 -28 5 -21 47 -47 62 -38 6 3 3 11 -6 18
-10 7 -17 15 -17 18 0 11 -93 202 -110 227 -35 50 -100 182 -94 192 3 5 15 -8
26 -29 11 -21 26 -45 33 -53 20 -24 55 -89 55 -104 0 -7 7 -19 16 -27 8 -7 24
-29 34 -50 19 -35 54 -56 66 -38 3 5 -6 24 -19 41 -14 18 -28 43 -32 56 -3 12
-10 22 -15 22 -4 0 -15 19 -25 43 -9 23 -33 65 -54 92 -87 119 -91 128 -88
207 1 56 5 73 17 73 14 0 50 -83 50 -116 0 -9 6 -19 14 -22 13 -5 60 -92 85
-160 10 -25 57 -54 69 -43 5 6 -78 170 -167 331 -53 95 -76 165 -55 165 9 0
32 -29 44 -55 6 -11 19 -33 30 -50 11 -16 29 -48 39 -70 20 -41 71 -95 90 -95
19 0 12 17 -19 52 -17 18 -41 53 -53 78 -12 25 -40 70 -62 100 -44 60 -60 91
-69 132 -10 46 12 41 40 -9 57 -103 113 -180 132 -185 16 -5 19 -2 14 11 -9
25 -65 116 -74 119 -4 2 -8 8 -8 14 0 6 -25 48 -55 93 -52 77 -67 115 -45 115
6 0 10 -5 10 -12 0 -6 11 -25 24 -42 13 -17 33 -49 45 -71 30 -54 69 -108 87
-118 23 -13 28 19 6 50 -10 15 -32 48 -48 73 -16 25 -43 63 -60 85 -59 74 -74
121 -80 233 -2 57 -5 107 -7 112 -1 4 3 9 8 10 16 2 51 -73 37 -78 -21 -7 -13
-68 18 -128 16 -32 30 -63 30 -67 0 -5 10 -23 23 -40 12 -18 27 -41 33 -52 18
-32 76 -68 88 -54 8 8 7 13 -2 16 -13 5 -67 84 -99 144 -11 20 -26 44 -34 52
-35 39 -39 48 -39 83 0 36 0 37 20 19 11 -10 20 -26 20 -36 0 -10 4 -20 9 -23
5 -3 12 -18 16 -33 11 -47 105 -131 105 -94 0 4 -8 19 -19 32 -18 23 -39 59
-84 144 -12 22 -33 54 -47 71 -14 17 -33 46 -42 63 -10 18 -22 30 -27 26 -15
-9 -33 32 -29 68 l3 32 17 -37 c9 -20 25 -41 37 -47 20 -11 29 -26 73 -116 32
-64 80 -115 109 -115 23 0 23 0 -4 28 -15 15 -27 32 -27 37 0 4 -11 23 -25 41
-31 40 -31 44 -1 44 29 0 42 15 23 27 -12 8 -67 95 -67 107 0 14 25 4 46 -19
23 -25 54 -34 54 -15 0 6 -12 24 -27 40 -41 44 -48 53 -56 70 -4 8 -18 33 -32
55 -14 22 -28 47 -32 55 -17 38 -49 70 -69 70 -24 0 -37 -21 -27 -46 3 -9 7
-28 8 -43 3 -45 4 -47 35 -86 32 -40 33 -60 2 -32 -10 10 -24 17 -31 17 -6 0
-16 12 -22 27 -13 34 -17 163 -6 181 12 18 68 6 87 -19z m4472 -1620 c146 0
277 3 291 6 22 6 26 3 33 -27 4 -18 8 -76 8 -128 1 -52 4 -99 7 -105 10 -16 9
-645 -1 -710 -11 -76 -24 -484 -22 -680 5 -374 10 -517 22 -609 8 -62 10 -141
6 -210 -3 -61 -8 -206 -9 -322 -2 -116 -7 -216 -11 -222 -3 -6 -2 -14 4 -17 8
-5 7 -11 -1 -21 -8 -10 -9 -35 -5 -82 4 -37 7 -74 6 -82 -1 -8 -1 -53 0 -100
1 -47 3 -254 5 -460 2 -206 6 -469 10 -585 9 -241 8 -237 7 -410 -1 -71 1
-200 3 -285 3 -85 7 -228 9 -317 2 -89 7 -166 11 -173 11 -18 32 -189 25 -201
-5 -7 -83 -10 -238 -10 -140 1 -233 -3 -237 -9 -4 -6 -15 -6 -30 0 -16 6 -44
6 -76 0 -28 -6 -55 -7 -60 -5 -9 6 -513 7 -624 1 -223 -12 -388 -15 -376 -7
10 6 10 10 1 16 -7 4 -18 22 -26 39 -15 33 -22 46 -64 111 -13 22 -29 48 -35
57 -5 9 -29 44 -53 77 -31 45 -44 74 -47 109 l-5 47 15 -32 c8 -18 23 -36 33
-42 10 -5 24 -25 31 -44 8 -20 23 -38 34 -41 15 -4 18 -8 10 -18 -8 -10 -2
-26 24 -65 19 -29 39 -53 44 -53 5 0 9 -6 9 -13 0 -21 67 -80 81 -72 9 6 7 11
-6 22 -11 7 -16 13 -12 13 3 0 -5 16 -18 37 -14 20 -23 39 -19 42 3 3 10 -2
15 -12 11 -18 39 -24 39 -7 0 6 -7 10 -15 10 -9 0 -15 9 -15 24 0 13 -7 29
-14 36 -25 20 -135 196 -162 258 -14 31 -36 78 -49 104 -13 27 -21 48 -17 48
10 0 52 -64 53 -81 0 -8 9 -27 20 -44 10 -16 21 -37 25 -45 10 -25 46 -94 57
-107 5 -7 20 -13 33 -13 33 0 30 27 -6 70 -17 19 -30 40 -30 47 0 7 -4 13 -9
13 -5 0 -13 10 -17 22 -4 12 -33 70 -65 130 -35 64 -59 119 -59 138 0 33 17
41 27 13 4 -10 16 -31 27 -48 20 -28 25 -40 31 -75 1 -8 10 -14 20 -12 14 3
16 -1 12 -17 -3 -12 -1 -21 4 -21 5 0 9 -6 9 -14 0 -8 10 -22 23 -31 12 -8 22
-19 22 -23 2 -34 48 -66 68 -46 7 7 -49 84 -70 97 -8 5 -11 13 -7 18 3 5 -5
24 -18 42 -13 18 -37 55 -52 82 -16 28 -44 73 -62 102 -29 43 -34 60 -34 109
l0 58 26 -54 c15 -30 30 -62 35 -70 5 -8 15 -26 21 -40 14 -28 95 -110 109
-110 14 0 10 20 -5 26 -8 3 -17 16 -20 30 -4 13 -13 24 -21 24 -8 0 -15 9 -15
20 0 10 -9 24 -20 30 -11 6 -20 17 -20 26 0 8 -14 42 -31 76 -47 93 -62 157
-49 208 2 11 30 -63 30 -81 0 -12 7 -19 20 -19 17 0 19 4 14 28 -4 15 -12 36
-17 47 -16 29 -46 119 -42 124 7 7 35 -27 35 -43 0 -9 9 -25 20 -36 11 -11 20
-22 20 -25 -3 -26 16 -78 31 -85 11 -6 16 -17 12 -25 -3 -9 5 -23 21 -36 14
-11 26 -29 26 -40 0 -12 7 -19 18 -19 33 0 32 12 -3 62 -19 26 -35 53 -35 58
0 6 -13 29 -30 52 -16 22 -30 47 -30 54 0 7 -9 28 -19 46 -10 18 -22 44 -26
57 -12 39 21 12 48 -39 58 -111 70 -127 103 -142 30 -14 34 -14 34 -1 0 8 -11
24 -25 35 -14 11 -25 26 -25 34 0 8 -7 17 -15 20 -8 4 -15 13 -15 22 0 17 -54
117 -78 144 -45 52 -77 201 -36 167 8 -6 14 -20 14 -30 0 -10 14 -38 30 -62
17 -25 30 -50 30 -56 0 -6 5 -11 11 -11 5 0 17 -17 26 -37 8 -21 23 -49 33
-63 9 -14 15 -31 13 -37 -4 -12 34 -33 58 -33 17 0 9 27 -16 50 -14 13 -25 29
-25 37 0 17 -69 126 -87 136 -8 5 -11 16 -8 27 3 10 1 21 -4 24 -6 4 -22 29
-37 56 -15 28 -31 50 -36 50 -5 0 -7 4 -4 8 3 5 -1 26 -9 48 -7 21 -11 42 -8
46 10 17 53 -30 78 -84 14 -32 31 -58 36 -58 6 0 7 -5 3 -11 -3 -6 3 -24 15
-40 11 -15 21 -33 21 -39 0 -5 5 -10 10 -10 6 0 10 -12 10 -27 0 -20 7 -31 25
-40 16 -7 27 -7 31 -2 7 12 -24 79 -36 79 -6 0 -10 9 -10 21 0 12 -10 31 -22
44 -12 12 -23 32 -25 45 -2 12 -12 35 -23 50 -11 16 -20 32 -20 36 0 5 -19 35
-42 69 -39 55 -43 66 -47 133 -2 48 0 72 8 72 6 0 11 -12 11 -26 0 -18 4 -24
13 -21 7 3 19 -4 25 -14 10 -16 9 -19 -4 -19 -16 0 -16 -1 -1 -18 10 -10 17
-23 17 -29 0 -6 6 -16 14 -22 9 -8 12 -25 8 -56 -4 -36 -1 -45 11 -45 8 0 17
-7 21 -15 3 -8 13 -15 21 -15 9 0 14 -4 11 -8 -2 -4 -1 -14 4 -22 7 -11 12
-12 21 -3 8 8 6 26 -10 72 -12 34 -21 69 -21 79 0 16 -25 87 -54 157 -30 70
-35 85 -28 85 17 -1 34 -19 28 -29 -4 -6 0 -18 8 -27 9 -8 16 -24 16 -34 0
-10 11 -25 25 -34 14 -9 23 -21 20 -26 -3 -5 -1 -11 5 -15 6 -4 8 -10 5 -15
-6 -10 34 -35 42 -27 3 3 -2 18 -11 34 -9 15 -20 39 -26 53 -5 14 -14 32 -18
40 -5 8 -24 49 -44 90 -19 41 -47 100 -61 130 -40 85 -57 139 -57 181 0 41 14
53 23 19 8 -31 35 -26 29 5 -3 20 -1 24 11 19 15 -5 27 -34 27 -64 0 -11 -3
-11 -12 -2 -19 19 -28 14 -28 -13 0 -14 6 -25 13 -25 7 0 19 -22 26 -50 7 -27
17 -50 23 -50 5 0 7 -9 3 -19 -6 -19 6 -49 34 -83 7 -10 15 -32 17 -50 2 -18
11 -36 19 -41 8 -4 15 -15 15 -22 0 -9 10 -15 26 -15 l25 0 -24 48 c-14 26
-33 65 -42 87 -10 22 -21 42 -25 45 -10 7 -30 69 -30 92 0 14 11 3 35 -32 19
-29 33 -56 30 -60 -3 -5 -1 -11 4 -15 6 -3 8 -11 5 -19 -3 -7 7 -21 21 -32 14
-10 25 -27 25 -37 0 -17 26 -35 36 -24 9 8 -47 107 -60 107 -8 0 -11 10 -8 29
2 16 -1 32 -7 35 -16 10 -13 29 3 23 18 -7 28 3 18 17 -5 6 -15 31 -22 55 -8
24 -20 45 -27 48 -7 3 -13 12 -13 19 0 8 -6 17 -14 20 -8 3 -12 12 -9 20 3 9
-2 14 -18 15 -17 1 -19 3 -6 6 20 5 20 8 7 34 -6 10 -17 19 -25 19 -9 0 -12 6
-9 15 4 8 -2 27 -12 43 -10 15 -32 54 -48 87 -27 53 -31 71 -33 160 -1 55 0
93 3 85 3 -8 8 -22 11 -30 4 -8 7 -18 7 -21 1 -4 12 -21 26 -39 14 -18 24 -39
22 -47 -2 -8 3 -22 10 -31 23 -29 49 -82 41 -82 -4 0 0 -7 10 -14 10 -8 18
-17 17 -20 -4 -15 13 -66 21 -66 5 0 7 -10 4 -23 -8 -31 58 -108 77 -89 10 10
10 14 -1 21 -8 5 -24 30 -36 55 -12 25 -25 42 -30 38 -4 -4 -5 2 -1 14 3 11 0
28 -9 40 -8 10 -15 27 -15 37 0 9 -7 17 -16 17 -10 0 -14 6 -10 15 3 8 -11 53
-30 99 -28 66 -39 83 -51 79 -12 -5 -15 -2 -11 9 7 16 -11 78 -36 127 -7 14
-16 55 -20 91 -6 59 -5 63 9 46 8 -11 15 -25 15 -32 0 -11 29 -28 36 -21 2 2
-7 27 -21 55 -14 29 -25 54 -25 58 0 3 -7 13 -16 21 -11 11 -14 26 -10 46 3
16 6 40 6 53 0 29 20 32 27 4 3 -11 12 -20 20 -20 8 0 12 -4 9 -8 -6 -10 17
-89 34 -122 6 -11 15 -18 19 -15 5 2 11 -4 14 -15 3 -11 1 -23 -5 -26 -5 -3 0
-13 11 -21 12 -8 21 -21 21 -29 0 -8 4 -14 9 -14 5 0 7 -9 4 -20 -4 -14 0 -20
12 -20 13 0 15 -6 11 -28 -8 -34 16 -73 34 -56 8 9 5 27 -14 72 -33 79 -34 97
-3 80 12 -7 25 -17 29 -23 4 -5 10 -7 13 -4 3 4 -7 35 -23 70 -38 82 -53 129
-47 140 8 12 -75 252 -91 265 -8 7 -14 16 -12 20 7 27 -29 120 -59 152 -13 13
-7 42 8 42 5 0 9 -8 9 -18 0 -11 9 -27 20 -37 11 -10 20 -26 20 -37 0 -10 9
-27 19 -37 11 -11 17 -21 15 -24 -4 -4 27 -98 36 -107 17 -16 41 -63 37 -73
-2 -7 3 -20 11 -30 9 -10 17 -28 17 -40 0 -12 7 -23 18 -25 27 -5 22 47 -13
116 -16 34 -30 66 -30 71 0 22 -45 101 -57 101 -7 0 -10 7 -7 15 6 16 -51 149
-72 166 -19 16 -40 147 -26 161 9 9 12 9 12 -1 0 -12 31 -83 81 -184 10 -22
19 -43 19 -49 0 -5 9 -23 21 -39 11 -16 17 -29 13 -29 -4 0 0 -8 8 -17 8 -10
18 -26 21 -35 9 -24 37 -23 37 1 0 11 -3 21 -7 23 -19 8 -191 380 -204 437
-11 52 -6 82 7 45 4 -10 16 -32 27 -47 35 -50 63 -112 59 -129 -3 -15 33 -36
44 -25 4 4 -16 51 -47 109 -5 10 -9 24 -9 32 0 8 -6 19 -12 23 -7 4 -13 15
-13 23 0 8 -6 14 -13 12 -6 -1 -12 8 -12 20 -1 13 -7 34 -15 48 -25 43 -16
153 11 143 11 -4 12 -9 4 -19 -8 -9 -8 -18 0 -33 11 -22 25 -27 34 -13 5 9
-18 90 -39 137 -16 37 -26 103 -16 109 10 7 38 -27 34 -41 -2 -6 1 -14 6 -18
6 -3 11 -13 11 -21 0 -20 33 -94 42 -94 5 0 8 -7 8 -15 0 -8 7 -15 15 -15 8 0
15 -4 15 -10 0 -5 5 -10 12 -10 9 0 9 3 0 12 -7 7 -12 20 -12 30 0 10 -4 18
-10 18 -5 0 -10 9 -10 20 0 11 -4 20 -9 20 -5 0 -12 12 -16 27 -3 15 -21 59
-40 98 -40 85 -45 105 -51 220 l-4 90 22 -40 c12 -22 22 -47 23 -55 3 -28 16
-60 25 -60 5 0 7 -6 4 -13 -2 -7 9 -40 26 -72 16 -33 30 -71 30 -83 0 -13 8
-38 18 -55 9 -18 18 -34 19 -36 1 -2 9 -1 18 2 12 5 13 11 3 31 -6 14 -20 28
-31 32 -14 4 -16 8 -7 14 16 10 4 66 -16 74 -9 3 -13 10 -9 16 3 5 -7 40 -23
77 -15 37 -34 88 -42 112 -8 26 -22 46 -32 49 -10 2 -21 14 -24 26 -5 21 2
155 9 162 1 2 12 -17 22 -41 11 -25 25 -45 30 -45 6 0 4 -4 -4 -9 -12 -8 -10
-16 12 -45 15 -19 27 -42 27 -50 0 -8 9 -32 20 -51 11 -20 19 -44 18 -53 -2
-9 3 -16 10 -15 7 2 12 -9 12 -30 0 -18 4 -37 9 -42 5 -6 13 -25 18 -44 6 -24
19 -41 41 -53 18 -10 32 -15 32 -11 0 11 -52 113 -61 119 -5 3 -9 16 -9 30 0
13 -4 24 -9 24 -5 0 -13 15 -16 33 -4 17 -10 37 -13 42 -4 6 -7 15 -8 21 -1 6
-13 35 -26 65 -14 30 -40 88 -58 129 -18 41 -37 79 -41 85 -12 12 -12 72 0 79
4 3 21 -26 36 -64 16 -39 32 -70 37 -70 4 0 8 -11 8 -25 0 -14 5 -25 10 -25 6
0 10 -6 10 -12 0 -7 7 -26 16 -43 8 -16 13 -37 11 -47 -4 -13 1 -18 14 -18 21
0 26 -16 8 -22 -7 -2 -1 -16 15 -32 14 -16 26 -33 26 -37 0 -5 5 -9 10 -9 17
0 11 24 -18 81 -15 30 -28 64 -29 77 -2 20 1 21 20 11 12 -7 25 -17 29 -23 4
-6 10 -7 14 -3 4 4 1 15 -7 24 -18 22 -29 47 -65 147 -19 52 -35 80 -47 84
-15 4 -16 7 -5 13 10 7 1 31 -39 111 -36 69 -53 116 -53 140 0 39 16 60 26 34
3 -9 12 -16 19 -16 8 0 11 -8 8 -21 -5 -16 -1 -20 13 -19 30 4 44 1 44 -9 0
-5 -8 -7 -19 -4 -34 9 -32 -15 7 -90 45 -86 56 -115 68 -189 6 -34 47 -78 61
-65 10 10 -73 228 -89 235 -4 2 -8 10 -8 18 0 11 4 12 19 5 42 -23 36 -5 -56
184 -59 118 -74 147 -85 155 -9 7 -5 100 5 100 4 0 7 -8 7 -19 0 -10 6 -24 14
-30 8 -7 18 -26 21 -42 4 -16 11 -31 16 -34 5 -4 9 -14 9 -24 0 -10 7 -24 15
-31 8 -7 15 -23 15 -35 0 -26 45 -120 61 -131 22 -13 27 19 8 53 -10 18 -19
38 -19 44 0 13 -18 55 -76 174 -24 50 -44 95 -44 101 0 7 -9 14 -20 17 -16 4
-20 14 -20 46 0 49 10 52 32 9 49 -101 82 -164 88 -168 4 -3 10 -15 14 -27 7
-23 21 -30 30 -15 5 9 -39 108 -53 117 -6 3 -11 15 -11 26 0 11 -9 38 -21 60
-23 45 -18 63 9 33 19 -22 64 -100 61 -109 -4 -18 26 -65 42 -65 22 0 23 3 10
28 -31 57 -41 86 -31 96 5 5 10 22 10 37 0 20 6 28 23 33 13 3 156 6 317 6
162 0 363 4 445 9 83 4 157 6 165 4 8 -3 135 -4 282 -4z m-1361 -403 c14 -10
17 -16 9 -21 -19 -11 -61 40 -56 67 7 35 7 35 17 1 5 -18 19 -39 30 -47z
m-3120 -185 c10 -13 19 -33 19 -44 0 -20 -1 -20 -25 3 -20 19 -25 32 -24 69 1
28 4 36 6 21 3 -13 14 -35 24 -49z m3089 -35 c0 -8 7 -19 15 -26 8 -7 15 -23
15 -35 0 -13 4 -25 9 -27 15 -5 17 -40 4 -45 -7 -3 -16 4 -19 14 -4 10 -17 42
-31 71 -13 29 -21 57 -18 62 8 13 25 3 25 -14z m-3090 -109 c10 -32 25 -68 34
-82 9 -13 16 -32 16 -41 0 -16 -1 -16 -19 0 -11 10 -23 31 -26 47 -4 15 -15
31 -26 34 -15 5 -19 16 -19 57 0 66 17 59 40 -15z m3170 -77 c6 -11 8 -20 4
-20 -3 0 1 -11 9 -24 15 -22 13 -36 -4 -36 -5 0 -11 16 -15 35 -3 19 -10 38
-15 41 -12 7 -11 24 1 24 5 0 14 -9 20 -20z m-3177 -226 c6 -16 16 -33 24 -37
16 -10 45 -73 49 -107 3 -24 3 -24 -21 5 -13 17 -31 44 -40 62 -10 21 -21 30
-30 27 -12 -5 -15 4 -15 41 0 53 18 58 33 9z m6827 -728 c183 0 196 0 422 3
l187 1 -5 -63 c-3 -35 0 -76 6 -91 5 -15 7 -33 3 -39 -8 -13 -7 -68 1 -162 7
-74 16 -200 17 -225 0 -8 -2 -216 -4 -462 -2 -271 1 -448 6 -448 5 0 4 -6 -2
-14 -6 -7 -11 -24 -11 -37 0 -13 0 -154 1 -312 0 -159 -2 -291 -4 -294 -3 -2
-1 -18 3 -34 5 -16 5 -29 0 -29 -5 0 -6 -46 -4 -102 9 -171 9 -180 1 -185 -4
-2 -3 -13 3 -23 7 -13 7 -21 0 -25 -7 -4 -9 -45 -7 -108 2 -56 0 -146 -5 -200
-6 -72 -5 -104 4 -120 7 -12 11 -26 10 -30 -6 -20 -11 -391 -5 -400 3 -5 7
-42 9 -81 1 -39 9 -109 17 -156 8 -47 12 -89 8 -93 -4 -4 -5 -27 -1 -50 3 -23
4 -62 2 -87 l-4 -45 -136 -1 c-126 0 -212 -3 -637 -18 -82 -4 -244 -7 -360 -8
l-210 -2 -32 55 c-37 61 -39 69 -18 69 21 0 19 20 -10 81 -13 29 -22 55 -20
58 7 7 35 -20 35 -35 0 -11 29 -34 43 -34 10 0 -8 47 -35 93 -15 26 -28 53
-28 58 0 6 -8 23 -19 37 -10 15 -26 43 -35 62 -37 79 -64 113 -83 106 -11 -4
-13 0 -8 15 5 14 0 28 -13 42 -18 19 -29 88 -23 142 2 15 51 -88 51 -107 0 -9
6 -23 14 -31 21 -21 80 -140 78 -157 -2 -9 14 -31 34 -50 26 -25 35 -29 29
-15 -4 11 -8 26 -8 33 0 6 -7 11 -16 10 -12 -2 -15 4 -13 22 1 14 -4 38 -12
55 -43 91 -67 144 -80 175 -18 41 -58 114 -74 133 -6 7 -15 40 -18 73 -7 55
-6 58 10 45 9 -8 14 -21 11 -29 -3 -8 4 -30 15 -49 11 -19 20 -41 20 -48 0 -8
8 -20 18 -26 12 -7 17 -20 15 -33 -3 -12 4 -30 15 -41 10 -12 22 -33 26 -48 3
-15 13 -27 20 -27 8 0 17 -13 21 -29 3 -16 13 -35 21 -42 8 -6 14 -18 14 -25
0 -8 5 -14 10 -14 6 0 10 9 10 20 0 23 -44 116 -68 143 -8 9 -12 17 -9 17 4 0
-13 39 -37 88 -24 48 -54 115 -67 150 -13 34 -29 62 -36 62 -18 0 -21 11 -13
65 5 38 8 45 14 30 4 -11 12 -28 17 -37 5 -10 9 -27 9 -37 0 -11 5 -23 10 -26
13 -8 53 -93 53 -112 0 -8 12 -27 27 -42 15 -14 35 -43 45 -64 23 -48 40 -48
20 1 -21 50 -43 82 -56 82 -6 0 -8 7 -5 16 4 9 2 22 -3 28 -5 6 -21 46 -35 89
-14 42 -30 85 -35 95 -5 9 -17 35 -27 57 -9 22 -20 42 -24 45 -11 8 -20 69
-11 75 14 8 28 -15 59 -105 55 -155 66 -179 84 -183 11 -3 18 -15 18 -31 0
-14 8 -33 18 -43 11 -10 22 -26 25 -35 4 -10 14 -18 23 -18 16 0 16 1 1 18
-10 10 -17 21 -17 24 0 10 -68 153 -77 161 -4 5 -13 27 -19 50 -21 73 -54 161
-64 171 -6 6 -10 19 -10 30 0 12 -9 36 -20 54 -11 18 -20 49 -20 70 l0 37 25
-47 c14 -26 25 -56 25 -68 0 -11 7 -23 15 -26 8 -4 15 -15 15 -26 0 -30 52
-138 67 -138 7 0 13 4 13 8 0 16 -61 160 -136 318 -26 55 -33 129 -11 121 6
-2 11 -12 9 -21 -2 -10 4 -28 12 -41 9 -14 16 -31 16 -40 0 -9 5 -13 10 -10 6
3 10 1 10 -4 0 -6 -5 -11 -11 -11 -7 0 -6 -8 3 -22 8 -13 20 -42 28 -66 7 -23
19 -47 27 -53 7 -6 13 -18 13 -27 0 -8 8 -24 17 -35 10 -10 18 -26 18 -34 0
-18 31 -41 41 -30 4 4 -6 35 -23 69 -16 35 -38 82 -48 106 -11 23 -22 42 -26
42 -4 0 -5 9 -2 19 3 10 -2 30 -10 42 -9 13 -25 51 -37 84 -12 33 -25 69 -30
80 -20 46 -43 166 -33 176 7 7 14 0 23 -20 7 -17 16 -31 21 -31 5 0 6 -7 2
-16 -3 -8 4 -28 16 -44 11 -16 21 -37 21 -46 0 -18 57 -145 69 -154 11 -8 45
-64 46 -75 3 -25 19 -45 36 -45 24 0 24 15 1 48 -11 15 -26 41 -34 57 -8 17
-22 44 -31 60 -32 61 -97 214 -97 228 0 8 -6 20 -14 27 -8 6 -12 18 -9 26 3 7
-2 17 -11 20 -11 4 -14 13 -11 25 4 11 2 19 -4 19 -6 0 -11 -8 -11 -17 0 -10
-3 -13 -8 -7 -4 5 -5 56 -2 114 4 69 8 98 14 85 14 -36 15 -44 5 -51 -6 -4 -6
-11 1 -19 7 -8 9 -19 5 -25 -3 -5 -1 -10 4 -10 6 0 11 -16 11 -35 0 -24 5 -35
15 -35 8 0 15 -8 15 -18 0 -15 53 -135 91 -204 5 -10 9 -23 9 -28 0 -12 50
-59 63 -60 12 0 8 27 -7 39 -17 15 -70 120 -63 127 3 3 14 -5 26 -17 29 -31
36 -18 12 22 -11 19 -28 49 -37 67 -9 18 -29 43 -45 57 -18 15 -25 26 -18 31
13 7 6 50 -15 97 -7 18 -19 48 -26 67 -7 19 -23 45 -34 58 -18 20 -21 38 -23
135 -2 62 -4 147 -6 190 -1 42 1 77 5 77 5 0 8 -11 8 -24 0 -14 5 -28 10 -31
6 -4 8 -10 5 -15 -3 -5 2 -21 11 -35 9 -14 21 -46 25 -72 10 -49 32 -83 56
-83 20 0 11 23 -14 35 -15 8 -18 14 -10 27 8 12 4 29 -16 69 -14 30 -29 68
-33 84 -6 29 -6 29 9 10 9 -11 17 -26 17 -32 0 -7 5 -13 10 -13 6 0 10 -9 10
-19 0 -11 5 -23 10 -26 6 -3 10 -14 10 -24 0 -9 9 -27 20 -39 11 -12 20 -30
20 -42 0 -11 7 -23 16 -27 11 -4 13 -13 9 -34 -7 -30 5 -38 23 -16 8 10 6 22
-8 45 -11 18 -20 39 -20 46 0 7 -9 25 -20 39 -11 14 -20 31 -20 37 0 11 -5 23
-44 112 -9 20 -16 39 -16 44 0 19 -51 112 -65 118 -9 3 -14 10 -11 15 3 5 2
30 -3 57 -12 61 -4 83 18 52 8 -13 16 -27 18 -33 1 -5 7 -26 14 -45 6 -19 18
-54 26 -78 9 -27 24 -47 37 -52 26 -9 28 -8 20 14 -3 9 -12 16 -19 16 -8 0
-11 8 -8 19 6 23 -30 108 -94 226 -20 36 -29 70 -33 118 -3 43 -2 66 5 64 5
-2 12 -14 13 -28 2 -13 9 -31 15 -39 21 -27 37 -59 37 -76 0 -8 6 -14 13 -12
22 8 18 43 -7 71 -14 15 -23 27 -20 27 8 0 -27 74 -39 82 -6 4 -12 13 -12 20
-1 7 -4 29 -7 48 -12 62 -17 140 -10 140 13 0 51 -81 45 -95 -6 -18 24 -32 39
-17 6 6 1 27 -16 64 -14 30 -26 60 -26 66 0 7 -6 12 -12 12 -8 0 -14 15 -15
38 l-2 37 20 -24 c10 -13 19 -31 19 -40 0 -10 13 -35 30 -57 16 -21 30 -50 30
-63 0 -24 25 -61 42 -61 13 0 9 22 -9 42 -16 18 -8 23 21 12 9 -3 16 -12 16
-20 0 -8 5 -14 10 -14 15 0 12 27 -5 44 -8 8 -15 19 -15 25 0 6 -9 11 -19 11
-27 0 -35 17 -15 28 21 12 8 35 -15 29 -20 -5 -44 19 -48 47 -2 11 -12 30 -23
41 -11 12 -20 28 -20 36 0 8 -14 38 -30 68 -17 30 -30 59 -30 65 1 19 49 -47
55 -75 4 -15 13 -30 21 -33 8 -3 14 -12 14 -21 0 -8 14 -34 30 -57 26 -35 30
-38 30 -18 0 22 1 23 20 5 11 -10 22 -16 25 -14 14 14 -46 149 -66 149 -10 0
-3 -22 22 -67 15 -26 15 -32 4 -37 -9 -3 -23 11 -39 39 -14 24 -26 47 -26 51
0 4 -11 22 -25 40 -14 18 -25 37 -25 43 0 6 -9 20 -20 31 -22 22 -27 65 -9 76
13 8 33 -22 34 -50 0 -20 30 -45 41 -34 7 8 -39 102 -62 129 -21 23 -18 72 6
86 14 10 21 10 26 1 4 -7 2 -14 -4 -16 -7 -2 -12 -12 -12 -21 0 -13 8 -18 33
-18 17 0 37 4 44 9 6 5 13 5 17 0 6 -11 -42 -35 -54 -27 -16 10 -22 -17 -9
-41 16 -31 29 -31 29 2 0 22 2 25 15 14 8 -7 25 -10 37 -7 12 4 28 1 35 -5 18
-14 17 6 0 24 -17 17 -31 68 -18 68 5 0 11 -7 15 -15 9 -25 35 -18 29 8 -9 34
-24 48 -44 42 -11 -4 -19 -2 -19 4 0 6 6 11 14 11 17 0 28 27 21 51 -8 23 31
41 72 34 16 -3 105 1 198 8 95 7 228 11 300 8 72 -3 195 -6 275 -5z m-926 -78
c4 -23 12 -48 17 -55 11 -12 5 -33 -9 -33 -7 0 -32 92 -32 118 0 30 18 8 24
-30z m-61 2 c-3 -11 -12 -20 -19 -20 -8 0 -14 9 -14 20 0 13 7 20 19 20 14 0
18 -5 14 -20z m-2755 -494 c13 -14 14 -20 5 -23 -21 -7 -15 -31 12 -55 15 -13
23 -28 20 -37 -3 -8 -1 -17 4 -21 6 -3 13 -21 15 -40 8 -57 37 -144 54 -163 9
-10 17 -33 19 -52 1 -28 -1 -32 -18 -28 -10 3 -17 9 -14 13 10 16 -41 140 -57
140 -5 0 -8 11 -8 25 0 29 -37 85 -57 85 -10 0 -13 26 -12 113 0 84 3 106 10
87 6 -13 18 -33 27 -44z m-3122 -192 c9 -19 14 -37 12 -40 -6 -6 -48 62 -48
77 0 18 19 -1 36 -37z m1 -309 c5 -11 18 -34 27 -52 19 -37 21 -56 4 -51 -28
10 -78 117 -78 168 0 55 13 57 25 3 6 -26 16 -57 22 -68z m10256 51 c25 -23
27 -29 22 -91 -3 -37 -2 -71 1 -77 8 -13 12 -72 18 -283 3 -93 8 -180 11 -192
3 -13 1 -23 -4 -23 -10 0 -9 -199 2 -216 3 -6 1 -28 -4 -50 -14 -57 -11 -285
6 -574 3 -52 8 -133 10 -180 2 -47 8 -99 13 -116 6 -17 7 -49 3 -70 -4 -22 -4
-53 1 -69 18 -62 30 -280 31 -585 1 -173 6 -322 10 -331 7 -14 -16 -17 -190
-29 -203 -14 -323 -15 -618 -6 -93 3 -291 6 -440 6 -152 0 -264 4 -257 9 11 7
10 16 -8 51 -12 23 -18 45 -13 49 19 13 0 105 -20 98 -7 -3 -11 -10 -9 -16 3
-15 -15 -14 -21 2 -2 6 2 17 10 22 11 8 10 15 -2 39 -8 15 -15 34 -15 41 0 15
-58 149 -91 209 -27 49 -40 94 -29 101 4 3 11 -2 14 -11 5 -14 7 -14 22 1 15
14 14 19 -6 63 -25 52 -48 167 -36 179 12 12 26 -19 26 -59 0 -27 6 -41 22
-52 12 -9 17 -16 10 -16 -8 0 -5 -12 8 -36 11 -19 17 -40 14 -46 -4 -6 -3 -13
2 -17 19 -13 76 -120 69 -130 -2 -4 0 -13 5 -21 7 -11 12 -12 20 -4 8 8 3 29
-19 76 -17 36 -31 71 -31 77 0 7 -6 27 -14 44 -8 18 -22 57 -31 87 -16 55 -30
90 -46 122 -5 10 -9 24 -9 32 0 7 -7 27 -15 42 -17 33 -21 149 -5 139 6 -3 10
-15 10 -25 0 -24 20 -37 30 -20 6 9 11 7 19 -8 6 -11 11 -28 11 -36 0 -13 -4
-12 -20 4 -24 24 -40 26 -40 5 0 -8 5 -15 10 -15 6 0 10 -6 10 -14 0 -8 6 -21
13 -28 7 -7 13 -30 13 -52 0 -25 6 -43 17 -51 9 -7 17 -19 17 -27 0 -8 6 -20
12 -26 7 -7 13 -20 13 -29 0 -11 12 -20 35 -24 19 -4 36 -12 38 -18 4 -13 32
-15 32 -2 0 4 -9 20 -20 34 -11 14 -20 37 -20 50 0 14 -4 29 -10 32 -20 12
-10 27 15 23 29 -6 32 8 10 38 -8 10 -20 45 -26 76 -13 65 -32 98 -48 83 -7
-7 -4 -29 10 -69 23 -71 22 -67 5 -60 -8 3 -17 23 -21 45 -4 21 -11 41 -16 45
-15 9 -10 36 11 54 20 17 20 18 0 76 -46 139 -98 269 -117 288 -17 18 -20 37
-22 130 -2 76 1 106 8 101 6 -3 9 -11 5 -16 -3 -6 4 -19 16 -29 12 -11 20 -26
17 -33 -3 -8 1 -27 9 -42 8 -15 14 -32 14 -39 0 -6 12 -33 26 -61 35 -70 56
-134 48 -146 -3 -6 1 -18 9 -27 8 -9 23 -43 33 -74 19 -56 38 -78 56 -60 5 5
2 14 -7 22 -8 7 -15 22 -15 34 0 36 -12 66 -25 66 -7 0 -15 16 -18 38 -3 20
-9 51 -13 67 -7 27 -6 29 10 16 12 -10 20 -11 27 -4 7 7 5 15 -8 24 -10 8 -18
23 -19 34 -1 29 -13 73 -34 128 -10 26 -15 47 -10 47 11 0 40 -58 40 -80 0 -9
9 -25 19 -34 11 -10 17 -24 14 -32 -3 -9 2 -14 16 -14 20 0 20 2 7 23 -7 12
-19 40 -26 62 -6 22 -15 49 -20 60 -4 11 -11 28 -14 39 -5 14 -13 17 -36 12
-28 -5 -30 -4 -30 27 1 29 2 30 14 15 14 -20 36 -24 36 -8 0 6 -4 10 -10 10
-5 0 -10 15 -11 33 0 17 -8 52 -17 77 -16 40 -21 45 -45 42 -29 -4 -37 12 -12
22 21 8 19 23 -15 94 -32 64 -53 171 -32 158 6 -3 30 -44 53 -89 23 -45 54
-101 70 -125 16 -24 29 -52 29 -63 0 -11 7 -36 15 -56 8 -19 15 -50 15 -67 0
-36 15 -56 42 -56 10 0 18 2 18 4 0 14 -33 133 -40 141 -4 6 -14 30 -23 55 -8
25 -18 53 -22 63 -6 15 -4 17 19 11 22 -5 26 -3 26 15 0 12 -9 41 -20 63 -11
23 -20 45 -20 50 0 4 9 8 20 8 11 0 20 5 20 10 0 6 -9 20 -20 32 -11 12 -20
29 -20 38 0 8 -7 26 -16 38 -8 12 -12 22 -7 22 4 0 0 7 -10 14 -12 10 -15 16
-7 21 6 4 19 0 29 -9 10 -9 23 -16 29 -16 15 0 16 36 2 45 -5 3 -10 15 -10 26
0 11 -11 35 -25 53 -14 18 -25 45 -25 59 0 14 -5 29 -10 32 -6 4 -8 10 -5 14
4 8 -55 115 -75 135 -4 4 -13 5 -20 1 -8 -5 -8 -11 3 -23 18 -23 77 -146 77
-163 1 -8 9 -32 20 -54 29 -60 26 -74 -14 -59 -11 4 -14 13 -10 30 4 16 -8 48
-40 108 -50 94 -53 105 -62 219 l-6 78 36 -37 c20 -20 36 -44 36 -53 0 -9 13
-29 28 -46 20 -21 27 -37 24 -54 -4 -20 -2 -23 13 -17 10 3 24 1 31 -5 23 -19
35 0 19 31 -19 37 -19 40 5 40 11 0 20 1 20 3 0 1 -9 20 -20 42 -11 22 -20 46
-20 55 0 9 -7 26 -16 38 -8 12 -14 28 -11 35 2 6 11 -3 21 -20 9 -18 23 -33
31 -33 20 0 19 9 -5 48 -35 57 -21 94 22 55 24 -22 33 -11 20 26 -14 38 -7 41
128 46 58 3 173 7 255 11 191 7 286 7 460 -1 115 -6 151 -4 204 9 45 12 97 17
177 15 63 -1 117 1 121 4 11 11 19 8 46 -17z m-1573 -125 c7 -14 17 -34 22
-44 19 -37 -4 -31 -43 11 -31 34 -39 50 -39 80 l1 37 24 -29 c13 -16 29 -41
35 -55z m85 30 c-11 -10 -35 11 -35 31 l0 23 20 -25 c10 -14 17 -26 15 -29z
m-2841 -203 c3 -7 7 -26 10 -43 6 -27 5 -28 -7 -12 -8 9 -19 17 -26 17 -6 0
-11 11 -11 25 0 26 27 36 34 13z m2756 -242 c-1 -21 -1 -21 -15 -2 -21 27 -20
53 0 36 8 -7 15 -22 15 -34z m-5551 2 c0 -13 2 -33 6 -44 5 -15 2 -23 -9 -27
-12 -5 -16 0 -16 20 0 21 -2 24 -15 13 -13 -10 -15 -9 -15 12 0 26 17 48 37
48 7 0 12 -10 12 -22z m5604 -210 c20 -43 34 -84 31 -92 -3 -7 2 -16 10 -19
10 -4 16 -18 16 -37 0 -32 -9 -36 -41 -20 -22 12 -26 32 -4 24 13 -5 13 -2 1
27 -8 18 -19 35 -25 37 -6 2 -11 12 -11 22 0 9 -7 23 -15 30 -9 7 -24 30 -33
51 -16 34 -18 54 -13 108 2 20 42 -42 84 -131z m-5516 11 c-2 -24 -13 -25 -20
-1 -2 9 -8 26 -13 37 -7 20 -7 20 14 2 11 -11 20 -27 19 -38z m-88 -113 c8
-10 8 -16 -3 -25 -11 -9 -15 -8 -20 5 -13 34 1 47 23 20z m-9 -125 c6 -16 10
-37 8 -47 -3 -17 -4 -17 -20 0 -18 18 -25 76 -9 76 5 0 14 -13 21 -29z m5532
-95 c-2 -10 2 -24 9 -32 14 -18 3 -32 -13 -16 -15 15 -19 74 -4 69 6 -2 10
-12 8 -21z m92 -111 c-13 -32 -36 -11 -39 37 l-3 28 24 -25 c13 -14 21 -32 18
-40z m-23 -82 c15 -41 5 -51 -14 -14 -20 40 -20 41 -7 41 6 0 15 -12 21 -27z
m-41 -294 c0 -16 4 -37 9 -47 26 -47 50 -110 54 -137 2 -16 7 -38 12 -48 4
-10 5 -20 2 -23 -6 -7 -47 63 -47 82 0 8 -4 14 -10 14 -5 0 -10 7 -10 15 0 9
-9 33 -20 55 -25 49 -29 150 -5 130 8 -7 15 -25 15 -41z m104 -445 c9 -3 16
-12 16 -19 0 -24 -15 -24 -33 1 -18 24 -13 29 17 18z m-2852 -376 c0 -7 2 -26
3 -43 1 -16 7 -31 14 -33 6 -2 11 -14 11 -27 0 -13 5 -27 10 -30 6 -3 10 -17
10 -29 0 -13 7 -29 15 -36 8 -7 15 -17 15 -23 0 -5 6 -15 14 -21 9 -7 11 -18
7 -31 -7 -17 -11 -14 -35 25 -15 25 -37 59 -49 75 -17 22 -23 50 -27 108 -3
42 -2 77 3 77 4 0 8 -6 9 -12z m-2853 -117 c8 -14 7 -22 -4 -31 -13 -11 -15
-8 -15 19 0 36 5 39 19 12z m2981 -91 c0 -10 5 -22 10 -25 6 -3 10 -11 10 -18
0 -20 -28 17 -36 47 -5 21 -4 27 5 22 6 -4 11 -16 11 -26z m2636 -85 c7 -19
14 -40 14 -47 -1 -16 -39 52 -40 70 0 22 11 12 26 -23z m-5596 -67 c0 -7 11
-26 25 -42 14 -16 25 -35 25 -42 0 -17 62 -115 84 -133 20 -17 22 -53 2 -45
-8 3 -22 20 -31 37 -9 18 -29 52 -45 77 -40 61 -100 177 -100 192 0 6 9 2 20
-10 11 -12 20 -27 20 -34z m2846 -5 c-4 -9 -1 -22 5 -29 9 -11 8 -14 -5 -14
-12 0 -16 9 -16 36 0 22 4 33 11 29 6 -4 8 -14 5 -22z m2838 -115 c2 -10 1
-18 -3 -18 -9 0 -41 55 -41 72 0 16 37 -30 44 -54z m-5659 -52 c15 -30 26 -59
24 -65 -5 -13 -62 82 -75 121 -12 40 21 3 51 -56z m2821 23 c3 -6 -1 -18 -10
-27 -15 -15 -16 -14 -16 11 0 27 13 36 26 16z m-5944 -141 c32 -50 26 -71 -9
-35 -23 23 -40 77 -25 77 4 0 19 -19 34 -42z"/>
<path d="M3200 7631 c0 -6 5 -13 11 -17 6 -3 8 -20 5 -38 -7 -34 23 -107 61
-149 11 -12 26 -37 33 -55 15 -38 63 -82 91 -82 10 0 19 3 19 8 -1 11 -26 42
-36 42 -5 1 -19 23 -32 49 -12 27 -33 60 -47 75 -14 15 -25 32 -25 37 0 6 -11
35 -25 65 -14 31 -23 60 -20 65 4 5 -3 9 -14 9 -12 0 -21 -4 -21 -9z"/>
<path d="M3194 7239 c3 -17 6 -37 6 -44 0 -7 18 -33 40 -57 22 -25 52 -69 67
-98 27 -51 75 -92 90 -77 4 5 3 11 -3 15 -5 4 -25 31 -44 60 -18 28 -39 52
-46 52 -8 0 -11 6 -8 13 2 7 -7 29 -21 48 -14 18 -34 53 -45 77 -25 50 -45 56
-36 11z"/>
<path d="M6456 8624 c-6 -16 51 -77 65 -68 10 6 -33 84 -47 84 -7 0 -15 -7
-18 -16z"/>
<path d="M6440 7289 c13 -11 25 -28 26 -36 2 -9 8 -19 14 -23 7 -4 11 -11 10
-16 -1 -5 4 -10 11 -12 13 -5 13 -4 -20 61 -18 33 -30 47 -45 47 -20 -1 -20
-2 4 -21z"/>
<path d="M6320 7281 c0 -10 7 -24 15 -31 8 -7 15 -21 15 -31 0 -13 7 -19 21
-19 16 0 19 4 14 23 -4 12 -11 26 -16 32 -5 5 -9 17 -9 27 0 11 -7 18 -20 18
-13 0 -20 -7 -20 -19z"/>
<path d="M6365 7181 c-8 -13 8 -43 41 -76 14 -14 22 -30 19 -35 -3 -6 -1 -10
5 -10 7 0 9 -7 6 -15 -7 -19 14 -55 31 -55 14 0 7 22 -28 92 -12 24 -24 56
-28 73 -7 30 -34 45 -46 26z"/>
<path d="M6404 6943 c2 -10 7 -28 11 -41 4 -13 11 -19 17 -16 8 5 9 1 5 -10
-8 -21 9 -56 27 -56 11 0 9 15 -10 66 -13 37 -24 69 -24 70 0 2 -7 4 -16 4
-10 0 -14 -6 -10 -17z"/>
<path d="M6300 6136 c0 -8 9 -18 21 -21 12 -4 18 -12 15 -21 -3 -7 -1 -16 4
-19 6 -4 10 -15 10 -26 0 -24 26 -25 32 -1 7 25 -36 96 -61 100 -13 2 -21 -2
-21 -12z"/>
<path d="M6380 6020 c-13 -8 -13 -13 3 -39 9 -16 17 -36 17 -45 0 -9 5 -16 11
-16 5 0 7 -5 4 -10 -3 -6 1 -17 9 -26 9 -8 16 -23 16 -32 0 -20 53 -82 70 -82
7 0 10 3 8 8 -29 59 -58 126 -58 133 0 5 -8 9 -18 9 -14 0 -17 7 -15 33 4 40
-24 81 -47 67z"/>
<path d="M6476 5972 c-8 -14 18 -56 41 -67 12 -5 24 -17 26 -27 3 -10 11 -18
17 -18 9 0 10 3 1 13 -6 8 -8 17 -5 20 4 3 0 13 -7 21 -34 37 -40 47 -34 56 3
6 -3 10 -14 10 -11 0 -22 -4 -25 -8z"/>
<path d="M6474 4754 c3 -9 6 -18 6 -20 0 -2 7 -4 15 -4 20 0 19 26 -1 34 -24
9 -27 8 -20 -10z"/>
<path d="M6317 4223 c-14 -14 -6 -42 18 -61 14 -11 25 -26 25 -34 0 -13 71
-88 84 -88 13 0 4 22 -20 49 -24 28 -50 70 -73 119 -11 22 -22 28 -34 15z"/>
<path d="M9120 6875 c0 -17 20 -56 34 -66 4 -4 2 -10 -5 -15 -7 -4 -14 -3 -17
4 -5 16 -32 15 -32 -1 0 -17 29 -57 41 -57 5 0 9 6 9 14 0 8 9 18 21 21 19 6
19 8 5 31 -9 13 -16 32 -16 42 0 18 -18 42 -32 42 -4 0 -8 -7 -8 -15z"/>
<path d="M9196 6742 c-9 -14 5 -52 20 -52 8 0 14 6 14 13 -1 18 -27 50 -34 39z"/>
<path d="M9132 6391 c-15 -9 -3 -47 28 -91 11 -16 20 -35 20 -42 0 -8 9 -23
20 -33 11 -10 20 -27 20 -37 0 -18 26 -36 36 -25 3 3 -1 18 -9 34 -9 15 -29
58 -46 96 -39 86 -54 108 -69 98z"/>
<path d="M9205 6343 c4 -10 12 -31 18 -48 11 -31 24 -45 43 -45 8 0 5 14 -7
37 -10 21 -19 43 -19 49 0 7 -7 15 -16 18 -24 9 -27 7 -19 -11z"/>
<path d="M9152 6121 c-11 -7 -11 -11 2 -24 9 -8 16 -22 16 -29 1 -7 9 -31 20
-53 11 -22 19 -46 20 -52 0 -7 5 -13 10 -13 6 0 10 -11 10 -24 0 -14 5 -28 10
-31 6 -3 10 -14 10 -24 0 -22 25 -45 39 -37 9 6 -12 67 -38 116 -5 9 -12 30
-16 49 -4 18 -13 35 -21 38 -8 3 -14 16 -14 30 0 26 -16 63 -28 63 -4 0 -13
-4 -20 -9z"/>
<path d="M9190 5792 c0 -13 30 -71 40 -77 5 -3 7 -11 4 -18 -7 -18 44 -63 56
-51 7 7 4 18 -10 34 -11 13 -20 28 -20 34 0 6 -5 28 -11 49 -8 30 -15 37 -34
37 -14 0 -25 -4 -25 -8z"/>
<path d="M9100 5570 c0 -6 11 -33 25 -60 14 -27 25 -56 25 -64 0 -8 5 -27 12
-43 6 -15 12 -34 14 -42 1 -7 12 -23 23 -35 11 -11 23 -34 27 -51 4 -16 22
-58 40 -92 17 -34 29 -64 26 -67 -3 -3 0 -6 7 -6 26 0 22 34 -13 105 -20 40
-36 77 -36 80 0 4 -13 35 -28 69 -16 33 -44 96 -63 138 -19 43 -40 78 -46 78
-7 0 -13 -5 -13 -10z"/>
<path d="M9192 5487 c9 -7 24 -31 33 -53 15 -36 65 -87 65 -65 0 5 -14 36 -30
70 -26 53 -34 61 -58 61 -24 -1 -25 -2 -10 -13z"/>
<path d="M9282 5333 c2 -10 11 -19 21 -21 16 -3 17 -1 7 17 -13 25 -33 28 -28
4z"/>
<path d="M9235 4348 c4 -13 11 -27 16 -32 5 -6 9 -16 9 -24 0 -18 27 -45 39
-38 5 3 4 21 -3 40 -20 57 -77 107 -61 54z"/>
<path d="M11963 5725 c7 -14 17 -25 22 -25 12 0 39 -58 36 -77 -2 -12 17 -28
25 -21 7 8 -38 112 -57 131 -26 25 -39 21 -26 -8z"/>
<path d="M12030 4590 c0 -13 7 -20 20 -20 23 0 26 10 8 28 -18 18 -28 15 -28
-8z"/>
<path d="M11986 3953 c12 -50 66 -125 80 -111 10 11 -55 138 -71 138 -12 0
-14 -6 -9 -27z"/>
<path d="M11900 3816 c0 -34 22 -87 43 -105 10 -7 17 -20 17 -27 0 -8 16 -39
36 -70 26 -41 39 -53 47 -45 8 8 5 18 -9 38 -11 16 -28 48 -38 73 -50 129 -96
194 -96 136z"/>
<path d="M4950 11169 c-58 -5 -166 -11 -240 -14 -168 -5 -236 -16 -288 -44
-13 -7 -43 -18 -67 -26 -52 -15 -182 -120 -210 -168 -10 -18 -31 -47 -47 -65
-33 -38 -35 -62 -10 -85 30 -27 50 -20 73 24 35 70 113 136 244 205 28 15 52
30 55 33 16 23 181 42 405 48 619 16 614 16 845 -69 19 -7 41 -17 48 -22 7 -4
16 -6 18 -3 3 3 53 -19 111 -49 59 -30 112 -54 118 -54 6 0 50 -22 98 -50 48
-27 92 -50 97 -50 6 0 18 -8 28 -17 10 -10 38 -34 61 -53 41 -34 76 -93 66
-111 -3 -4 -32 -22 -64 -40 -70 -37 -104 -70 -95 -92 8 -23 84 -65 114 -65 48
2 205 -26 220 -38 8 -7 40 -14 72 -16 86 -5 93 8 108 208 9 123 10 166 1 183
-7 12 -9 26 -6 31 8 14 -15 24 -28 11 -6 -6 -20 -11 -31 -11 -17 0 -95 -45
-180 -103 l-30 -21 -20 29 c-59 81 -83 109 -101 119 -11 6 -22 14 -25 17 -3 3
-36 23 -75 44 -38 22 -76 45 -83 52 -7 7 -21 13 -31 13 -9 0 -21 4 -26 9 -6 5
-35 19 -65 32 -30 13 -70 33 -88 45 -18 13 -47 26 -64 29 -17 4 -52 20 -78 36
-27 16 -79 35 -125 45 -44 8 -91 21 -105 28 -14 7 -63 14 -109 15 -46 1 -92 6
-102 12 -21 11 -240 10 -389 -2z"/>
<path d="M1722 11138 c-17 -17 -15 -30 17 -127 16 -47 34 -105 40 -128 13 -48
34 -73 62 -73 15 0 19 7 19 36 0 35 -36 169 -50 189 -4 6 -11 24 -14 40 -7 31
-38 75 -53 75 -5 0 -14 -5 -21 -12z"/>
<path d="M953 11019 c-7 -7 -7 -22 -1 -47 14 -51 27 -142 37 -242 9 -105 40
-167 73 -149 18 10 19 17 14 84 -10 119 -51 332 -68 352 -13 16 -40 17 -55 2z"/>
<path d="M675 10995 c-54 -12 -110 -38 -120 -56 -10 -16 30 -54 128 -121 110
-76 187 -148 187 -175 0 -16 -11 -24 -58 -37 -76 -21 -104 -20 -154 4 -48 23
-81 18 -76 -12 3 -19 27 -35 100 -69 40 -18 160 -6 204 21 45 28 57 53 49 101
-7 43 -56 92 -189 193 -42 31 -76 64 -76 72 0 18 85 19 143 2 35 -11 41 -10
53 7 22 29 17 45 -18 59 -49 20 -117 24 -173 11z"/>
<path d="M1406 10864 c-20 -19 -20 -16 4 -93 21 -65 48 -121 65 -133 20 -15
59 -8 83 14 l23 23 17 -21 c21 -27 41 -33 68 -23 46 16 58 229 14 229 -40 0
-84 -76 -61 -104 19 -23 0 -26 -30 -4 -28 21 -29 21 -49 3 -27 -24 -44 -9 -60
53 -18 72 -41 90 -74 56z"/>
<path d="M1223 10808 c-34 -24 -76 -81 -88 -118 -11 -36 14 -97 44 -109 94
-36 135 -32 168 16 67 99 54 190 -32 223 -39 15 -57 12 -92 -12z m87 -93 c13
-33 -1 -67 -34 -84 -31 -17 -32 -17 -40 36 -5 36 -3 44 16 57 32 22 47 20 58
-9z"/>
<path d="M1832 10668 c-30 -30 -2 -92 39 -86 31 4 39 51 13 79 -20 22 -35 24
-52 7z"/>
<path d="M7616 9983 c-7 -16 -17 -53 -20 -83 -10 -74 -47 -233 -57 -244 -5 -6
-9 -23 -9 -39 0 -16 -11 -52 -25 -80 -23 -44 -24 -52 -11 -65 9 -9 23 -12 39
-8 19 4 30 20 48 68 13 35 24 68 24 73 1 6 7 24 14 40 7 17 15 46 16 67 2 20
8 45 13 55 6 10 13 45 17 78 4 33 12 65 17 72 13 17 0 73 -18 73 -8 0 -14 5
-14 10 0 20 -20 9 -34 -17z"/>
<path d="M7483 9980 c-13 -5 -23 -15 -23 -22 0 -7 -3 -22 -6 -33 -8 -29 52
-52 77 -29 24 22 29 50 12 73 -15 23 -26 25 -60 11z"/>
<path d="M6813 9966 c-61 -22 -81 -73 -38 -96 20 -11 32 -11 63 -1 20 7 53 11
72 9 32 -3 38 -9 67 -66 29 -56 31 -68 24 -108 -5 -25 -11 -47 -13 -50 -3 -2
-26 1 -51 8 -40 10 -50 10 -80 -7 -33 -18 -87 -88 -101 -131 -10 -34 45 -101
95 -114 37 -10 43 -9 74 15 19 14 46 41 61 60 14 19 31 35 38 35 12 0 54 -51
76 -93 15 -30 37 -32 53 -5 15 23 -7 65 -70 135 -27 30 -31 41 -25 67 24 108
-7 244 -73 313 -39 40 -45 43 -91 42 -27 -1 -64 -7 -81 -13z m135 -392 c33
-10 -48 -94 -91 -94 -29 0 -38 26 -19 51 10 13 21 31 24 40 6 15 45 16 86 3z"/>
<path d="M7193 9902 c-25 -16 -53 -123 -53 -204 0 -66 3 -81 20 -95 11 -10 20
-23 20 -29 0 -26 106 -94 145 -94 62 0 115 116 100 219 -9 60 -27 92 -76 138
-67 63 -123 86 -156 65z m87 -89 c17 -14 30 -31 30 -36 0 -5 11 -18 25 -29 14
-11 25 -28 23 -37 -1 -9 1 -21 5 -27 12 -20 -4 -71 -28 -94 -30 -28 -56 -20
-93 27 -23 32 -27 45 -26 102 1 60 15 121 29 121 3 0 19 -12 35 -27z"/>
<path d="M6557 9710 c-54 -10 -99 -19 -101 -21 -2 -2 -7 -14 -10 -26 -10 -32
26 -66 62 -58 27 5 156 14 218 15 24 0 33 5 37 22 4 12 1 25 -5 29 -6 4 -8 14
-5 23 3 8 3 17 -1 20 -22 13 -108 11 -195 -4z"/>
<path d="M7715 9683 c-42 -11 -59 -67 -29 -97 8 -9 32 -16 53 -16 65 0 92 54
51 98 -20 22 -36 25 -75 15z"/>
<path d="M8580 9401 c-51 -10 -235 -77 -305 -111 -33 -16 -73 -43 -90 -59 -31
-30 -75 -86 -75 -94 0 -2 14 -10 30 -17 27 -11 33 -10 53 7 12 12 38 29 57 38
19 10 40 23 45 30 10 11 90 44 160 65 22 7 45 16 50 20 10 7 74 19 148 26 21
2 42 6 47 9 11 7 276 -23 320 -36 19 -5 53 -18 75 -29 22 -10 54 -24 70 -32
17 -7 63 -40 102 -73 l73 -59 -28 -23 c-15 -12 -43 -27 -62 -34 -91 -30 -106
-68 -37 -99 23 -11 52 -20 65 -20 13 0 44 -8 70 -19 96 -38 155 -53 252 -66
19 -3 47 -7 62 -9 15 -3 31 1 38 9 13 16 17 198 6 285 -4 30 -7 65 -7 78 1 12
-6 25 -14 28 -8 4 -15 12 -15 20 0 20 -18 17 -47 -6 -14 -11 -31 -20 -38 -20
-17 0 -132 -57 -140 -69 -13 -22 -39 -9 -101 48 -102 96 -234 173 -327 192
-29 6 -92 13 -142 15 -49 2 -128 5 -175 8 -47 2 -101 1 -120 -3z"/>
<path d="M10370 8847 c-14 -8 -47 -35 -73 -60 -26 -26 -50 -47 -53 -47 -3 0
-17 -9 -31 -20 -14 -11 -34 -20 -43 -20 -18 0 -64 48 -110 114 -14 19 -33 36
-42 36 -16 0 -58 -48 -58 -67 0 -4 -13 -21 -29 -36 -17 -15 -33 -36 -36 -46
-3 -10 -19 -24 -34 -31 -35 -14 -52 -7 -98 42 -62 64 -71 70 -91 64 -15 -5
-19 -17 -21 -58 -1 -43 -35 -138 -48 -138 -2 0 -20 8 -41 19 -20 10 -64 26
-97 36 -33 10 -69 21 -80 26 -109 44 -119 39 -122 -59 -1 -37 -5 -84 -9 -104
-7 -44 -13 -45 -114 -23 -89 19 -107 19 -120 -6 -9 -16 -8 -24 5 -39 12 -13
13 -20 5 -25 -9 -5 -10 -32 -5 -93 l7 -85 -28 5 c-16 3 -64 15 -108 27 -60 17
-81 19 -92 10 -18 -15 -18 -66 -1 -76 17 -10 37 -88 37 -140 0 -34 -7 -45 -79
-113 -43 -41 -87 -90 -97 -107 -10 -18 -22 -33 -26 -33 -15 0 -8 -38 7 -44 8
-3 15 -9 14 -13 -4 -23 5 -34 37 -48 21 -8 42 -14 48 -13 19 4 89 -12 133 -30
44 -17 63 -47 63 -99 0 -13 4 -31 9 -41 5 -9 12 -25 15 -34 3 -10 17 -20 32
-24 15 -4 35 -15 45 -25 28 -28 49 -23 98 21 25 22 50 40 56 40 7 0 25 10 40
22 23 18 29 20 33 8 3 -8 20 -28 37 -45 17 -16 35 -38 38 -47 4 -13 17 -18 41
-18 29 0 45 11 105 70 38 39 73 70 77 70 11 0 44 -42 44 -55 0 -19 31 -75 41
-75 6 0 25 -11 42 -24 35 -26 59 -23 91 13 25 27 38 27 86 -5 22 -15 60 -29
84 -31 42 -5 45 -4 69 33 14 22 29 52 33 67 6 25 10 28 33 23 133 -28 185 -35
201 -26 10 6 32 10 48 10 43 0 56 22 56 96 l0 65 133 -7 132 -7 11 27 c7 19 7
33 0 47 -6 10 -9 19 -6 19 3 0 -1 20 -9 45 -13 45 -13 45 15 60 16 8 33 15 39
15 5 0 36 15 68 34 51 30 60 40 72 80 12 42 11 48 -9 81 -12 19 -27 35 -34 35
-6 0 -19 13 -29 29 -16 27 -16 29 6 50 13 11 28 21 34 21 6 0 21 16 33 36 19
30 22 44 16 92 -7 65 -18 76 -93 98 -49 14 -67 34 -44 48 5 3 11 16 14 28 2
13 12 49 21 82 15 58 15 59 -12 117 -15 33 -34 58 -42 58 -17 1 -78 -20 -97
-32 -14 -9 -122 -47 -133 -47 -9 0 -35 61 -51 118 -7 23 -16 42 -20 42 -4 0
-9 11 -11 25 -3 23 -5 24 -28 12z m-336 -123 c9 -3 16 -14 16 -24 0 -9 20 -39
44 -65 40 -45 46 -48 80 -42 26 4 57 24 110 71 l73 66 12 -43 c22 -72 50 -125
70 -132 23 -7 101 14 159 44 61 31 71 29 62 -18 -4 -22 -21 -67 -39 -101 -17
-34 -31 -72 -31 -84 0 -22 12 -30 130 -78 l25 -10 -35 -29 c-19 -16 -38 -29
-42 -29 -4 0 -8 -8 -8 -18 0 -11 -9 -27 -20 -37 -39 -35 -28 -57 69 -145 19
-17 30 -35 25 -39 -5 -4 -36 -18 -69 -31 -33 -13 -73 -33 -90 -45 -16 -12 -40
-25 -51 -29 -14 -4 -24 -18 -28 -38 -5 -27 -1 -36 26 -62 29 -26 31 -31 14
-34 -10 -2 -60 1 -111 7 -52 6 -100 8 -108 5 -24 -9 -27 -44 -11 -117 12 -53
13 -71 4 -77 -6 -4 -48 8 -92 27 -60 27 -87 33 -111 29 -18 -4 -46 -9 -63 -12
-34 -6 -43 -27 -59 -126 -8 -51 -30 -49 -94 8 -71 64 -100 70 -147 33 -47 -37
-60 -37 -80 4 -9 17 -30 47 -45 65 -16 18 -29 36 -29 41 0 4 -12 13 -26 19
-30 14 -39 10 -135 -60 -37 -26 -71 -48 -77 -48 -5 0 -15 21 -22 48 -7 26 -19
55 -26 66 -7 10 -10 25 -7 32 12 31 -29 10 -138 -71 -62 -47 -122 -85 -131
-85 -10 0 -18 1 -18 3 0 1 -3 40 -7 87 -3 47 -10 87 -14 88 -5 2 -9 10 -9 17
0 15 -22 25 -55 25 -12 0 -48 12 -79 26 l-56 26 20 25 c11 14 38 40 60 57 l40
31 -3 112 c-3 103 -2 113 14 113 10 0 20 -4 23 -9 4 -5 24 -12 46 -16 22 -4
42 -11 46 -16 13 -22 42 -8 57 29 12 30 14 57 7 133 -4 52 -6 97 -4 101 11 18
122 -17 157 -50 23 -22 24 -22 41 -3 15 16 45 166 46 229 0 16 21 15 56 -3 16
-8 41 -15 55 -15 15 0 29 -6 32 -13 3 -7 24 -19 48 -27 24 -7 50 -18 56 -23
24 -18 74 13 94 57 10 23 19 48 19 57 0 8 6 23 13 33 11 16 16 14 54 -19 23
-19 46 -35 51 -35 6 0 12 -5 14 -12 10 -29 59 5 120 82 35 44 64 80 65 80 1 0
8 -3 17 -6z"/>
<path d="M10374 8436 c-14 -10 -28 -43 -43 -98 -13 -46 -29 -104 -37 -130 -8
-27 -17 -68 -21 -93 -3 -25 -10 -48 -14 -51 -5 -3 -9 -17 -9 -32 0 -15 -7 -48
-15 -74 -12 -42 -12 -49 1 -63 17 -16 33 -19 51 -7 13 8 73 214 73 252 0 14
11 52 25 85 13 33 30 84 36 113 11 45 10 54 -4 65 -8 6 -17 20 -19 30 -3 16
-5 16 -24 3z"/>
<path d="M10150 8311 c-14 -28 -13 -53 6 -79 18 -26 45 -28 66 -4 27 29 26 55
-3 80 -33 27 -55 28 -69 3z"/>
<path d="M9919 8300 c-120 -63 -166 -260 -84 -358 14 -17 25 -35 25 -41 0 -6
11 -18 25 -27 51 -34 196 2 216 53 6 15 15 37 20 48 5 11 13 49 19 84 18 117
-27 204 -124 245 -48 20 -53 20 -97 -4z m126 -116 c41 -88 24 -186 -38 -217
-50 -25 -81 -14 -112 38 -29 51 -30 73 -7 135 13 33 27 50 52 62 58 28 85 24
105 -18z"/>
<path d="M9509 8236 c-2 -2 -20 -7 -40 -10 -56 -9 -68 -16 -71 -44 -2 -19 4
-33 21 -46 21 -18 29 -18 80 -8 76 16 106 15 121 -3 10 -12 10 -18 -1 -31 -15
-18 -73 -49 -110 -57 -20 -5 -28 -15 -33 -39 -3 -17 -2 -36 2 -40 5 -5 37 -13
73 -19 108 -18 109 -18 109 -38 0 -10 -8 -25 -17 -33 -26 -22 -128 -57 -150
-52 -10 3 -26 -1 -36 -9 -18 -13 -18 -14 7 -44 38 -46 76 -50 141 -18 30 14
70 40 90 58 29 26 37 41 41 82 6 46 3 54 -28 95 -32 42 -33 47 -22 75 18 41
17 84 -1 91 -8 4 -15 14 -15 23 0 41 -87 91 -105 61 -3 -5 -13 -10 -21 -10 -8
0 -12 5 -9 10 6 9 -17 15 -26 6z"/>
<path d="M10422 8120 c-20 -43 1 -84 46 -88 45 -5 57 28 30 80 -25 48 -57 51
-76 8z"/>
<path d="M9338 7965 c-2 -3 -18 -7 -34 -9 -52 -7 -128 -24 -168 -38 -29 -10
-42 -21 -49 -42 -9 -26 -7 -32 13 -45 25 -17 157 -17 175 0 5 5 16 9 25 9 30
0 101 41 109 63 9 24 4 48 -13 59 -13 9 -50 10 -58 3z"/>
<path d="M11515 8629 c-66 -10 -147 -23 -180 -28 -111 -17 -274 -67 -332 -103
-44 -26 -103 -97 -96 -114 3 -7 20 -16 40 -20 26 -5 39 -2 56 14 30 27 126 69
190 81 28 6 81 18 117 26 36 9 96 20 133 25 38 5 73 13 79 16 19 12 209 5 298
-12 162 -29 197 -43 254 -98 29 -28 71 -74 94 -102 l42 -51 -58 -17 c-62 -17
-137 -66 -146 -94 -3 -9 -2 -30 2 -47 7 -26 14 -31 53 -35 24 -3 88 -27 142
-54 56 -28 133 -56 180 -67 l82 -19 18 21 c9 12 17 35 18 53 2 108 7 156 18
192 10 31 11 46 2 62 -9 17 -8 28 4 51 10 20 12 32 4 36 -6 4 -8 14 -5 22 6
14 -15 43 -31 43 -4 0 -18 -15 -30 -32 -22 -31 -108 -77 -146 -78 -9 0 -26 14
-37 32 -10 17 -59 72 -107 121 -126 129 -165 145 -438 187 -75 12 -74 12 -220
-11z"/>
<path d="M12515 7940 c-8 -16 -15 -43 -15 -60 0 -17 -6 -43 -14 -58 -7 -15
-17 -45 -20 -66 -4 -21 -14 -50 -23 -63 -14 -21 -20 -23 -66 -17 -43 6 -87 27
-132 62 -48 37 -113 72 -136 72 -40 0 -73 -48 -59 -86 9 -22 6 -63 -6 -94 -1
-3 -5 -15 -9 -28 -9 -26 -9 -26 -105 14 -87 36 -136 36 -167 -2 -16 -20 -22
-37 -18 -54 3 -14 7 -41 10 -60 3 -19 12 -50 21 -68 31 -66 14 -71 -108 -31
-73 24 -79 24 -102 -8 -21 -28 -20 -33 36 -198 26 -77 21 -87 -84 -192 -70
-70 -96 -102 -92 -115 5 -17 -11 -58 -27 -68 -4 -3 1 -15 11 -27 18 -22 91
-53 190 -79 91 -24 90 -24 90 -53 0 -15 8 -43 18 -62 14 -27 15 -40 8 -53 -9
-13 -7 -20 9 -29 42 -25 66 -26 113 -2 26 12 67 32 92 43 25 11 54 30 64 41
11 12 23 21 27 21 12 0 81 -119 75 -129 -6 -10 47 -41 70 -41 7 0 35 29 62 64
27 36 53 61 59 58 6 -4 19 -30 28 -59 9 -29 23 -57 31 -64 8 -6 14 -19 14 -28
0 -26 21 -41 54 -41 23 0 44 12 80 45 26 25 52 45 55 45 4 0 18 -12 32 -26 30
-32 117 -84 143 -84 37 0 116 90 116 133 0 7 6 22 14 32 13 19 15 18 52 -7 47
-32 104 -54 164 -63 89 -13 93 -12 104 20 5 17 15 44 23 62 7 18 11 43 8 56
l-6 23 132 2 c73 2 136 5 141 8 11 7 10 61 -2 69 -5 3 -6 15 -1 28 4 12 6 28
4 35 -3 6 1 12 9 12 57 2 112 11 140 23 28 12 36 23 51 73 9 33 17 65 17 72 0
7 -17 31 -38 55 -72 80 -71 72 -17 122 27 24 59 65 71 92 21 43 22 50 9 70
-10 15 -11 24 -4 28 6 4 8 14 5 22 -4 9 -1 21 5 29 19 23 -6 49 -63 63 -49 12
-138 41 -147 48 -2 1 1 9 8 16 12 16 24 132 15 159 -4 15 -17 18 -77 16 -40 0
-85 2 -102 6 l-30 6 3 69 c2 46 -2 80 -12 106 -14 33 -19 37 -43 31 -16 -4
-39 -16 -53 -27 -130 -102 -131 -102 -145 -82 -8 10 -15 23 -15 28 0 13 -56
124 -71 142 -18 21 -34 16 -113 -37 -41 -27 -79 -50 -85 -50 -6 0 -11 -4 -11
-9 0 -10 -56 -41 -75 -41 -6 0 -36 30 -66 67 -96 118 -100 120 -124 73z m435
-120 c0 -5 13 -31 30 -56 16 -26 33 -63 36 -81 12 -63 63 -70 120 -15 22 20
53 48 69 60 27 22 30 22 36 5 3 -10 2 -28 -2 -41 -14 -38 -10 -92 8 -110 12
-13 41 -18 107 -22 104 -6 98 3 66 -109 -11 -41 -19 -80 -16 -88 6 -16 50 -17
74 -2 13 8 27 7 56 -5 21 -9 46 -16 55 -16 9 0 22 -4 30 -9 12 -8 9 -16 -15
-44 -16 -19 -42 -51 -57 -71 -19 -24 -36 -36 -52 -36 -15 0 -31 -10 -40 -24
-20 -30 -11 -53 53 -139 56 -73 55 -75 -28 -83 -167 -15 -207 -47 -156 -124
14 -22 26 -42 26 -46 0 -12 -94 8 -148 32 -30 13 -61 24 -68 24 -31 0 -43 -73
-25 -152 11 -47 -2 -53 -56 -24 -23 11 -76 39 -118 61 l-77 40 -25 -29 c-14
-16 -23 -37 -20 -47 3 -10 -2 -27 -9 -38 -8 -11 -19 -43 -24 -72 -18 -96 -39
-97 -92 -1 -17 29 -42 61 -57 70 -14 9 -35 27 -46 40 -25 29 -48 22 -69 -23
-23 -47 -103 -112 -123 -99 -8 5 -25 39 -37 76 -41 119 -62 125 -148 38 -32
-33 -62 -60 -67 -60 -9 0 -32 44 -61 123 -19 49 -26 57 -48 57 -14 0 -35 -9
-47 -20 -28 -26 -111 -69 -165 -86 -52 -16 -58 -10 -58 53 0 87 -19 133 -54
133 -10 0 -54 12 -98 26 l-79 26 39 39 c22 22 44 39 49 39 5 0 27 20 48 44 34
39 39 50 35 83 -2 21 -9 43 -14 50 -8 10 -37 112 -38 136 0 13 44 7 85 -12 22
-10 57 -21 77 -25 36 -6 36 -6 51 39 14 39 14 52 2 98 -7 28 -16 70 -19 92 -7
39 -6 40 24 41 16 1 30 -3 30 -7 0 -9 113 -69 130 -69 33 0 74 86 86 177 5 41
10 53 24 53 10 0 23 -6 29 -14 6 -7 24 -16 39 -19 15 -4 42 -20 61 -37 19 -17
44 -32 55 -35 12 -2 32 -6 46 -8 14 -2 32 -8 41 -11 31 -13 93 60 118 138 11
38 21 78 21 88 0 27 23 22 56 -13 38 -40 92 -68 127 -64 30 4 90 36 152 84 41
31 65 39 65 21z"/>
<path d="M12795 7415 c-33 -13 -73 -24 -88 -24 -16 -1 -37 -5 -47 -11 -22 -12
-41 -62 -30 -80 5 -8 14 -42 20 -77 15 -77 28 -86 120 -88 84 -1 110 -15 110
-58 -1 -56 -22 -72 -95 -71 -35 0 -70 6 -77 12 -18 14 -43 -5 -51 -39 -6 -24
-2 -29 31 -45 20 -10 67 -20 103 -22 65 -4 68 -3 104 30 60 54 81 191 36 232
-20 18 -93 45 -149 55 -48 9 -47 8 -56 38 -8 25 -1 29 81 53 23 7 57 25 74 40
27 22 31 31 25 53 -8 34 -30 34 -111 2z"/>
<path d="M13145 7405 c-14 -13 -25 -33 -25 -44 0 -11 -6 -32 -14 -48 -8 -15
-32 -82 -52 -148 -21 -66 -43 -132 -50 -147 -12 -24 -11 -27 11 -42 37 -25 55
-19 72 22 9 20 17 42 18 47 1 6 4 17 8 25 3 8 11 33 16 55 13 58 60 185 77
209 17 25 18 55 0 79 -18 23 -32 22 -61 -8z"/>
<path d="M12982 7369 c-12 -4 -27 -20 -34 -34 -10 -23 -9 -29 15 -53 26 -26
29 -26 55 -12 55 32 23 122 -36 99z"/>
<path d="M12298 7321 c-54 -34 -69 -65 -41 -87 17 -14 49 -14 114 2 40 9 74
-29 89 -99 6 -32 10 -61 7 -64 -3 -2 -14 0 -25 6 -12 6 -45 11 -75 11 -68 0
-92 -23 -101 -98 -10 -81 0 -117 39 -138 29 -16 40 -16 85 -6 29 7 65 21 81
33 l29 21 44 -26 c58 -34 72 -33 80 6 5 28 1 37 -34 73 -36 36 -40 46 -40 89
0 27 -4 65 -9 85 -28 108 -35 128 -54 155 -21 30 -87 65 -123 66 -11 0 -41
-13 -66 -29z m118 -327 c19 -9 33 -22 31 -28 -6 -17 -49 -36 -84 -36 -27 0
-33 4 -33 21 0 29 18 59 36 59 9 0 31 -7 50 -16z"/>
<path d="M13211 7124 c-12 -15 -21 -32 -21 -39 0 -18 34 -45 58 -45 46 0 71
68 35 96 -27 20 -50 17 -72 -12z"/>
<path d="M12179 7095 c-3 -2 -52 -14 -110 -25 -138 -27 -135 -26 -159 -66 -18
-28 -20 -37 -10 -49 17 -20 57 -19 165 6 177 40 162 32 164 89 1 46 -1 50 -23
50 -12 0 -25 -2 -27 -5z"/>
<path d="M1914 3598 c-5 -7 -7 -48 -5 -91 3 -82 39 -218 60 -225 20 -7 42 18
32 37 -5 9 -12 70 -16 136 -4 66 -12 128 -17 138 -10 20 -43 23 -54 5z"/>
<path d="M898 3551 c-37 -10 -64 -25 -78 -43 -11 -15 -21 -30 -20 -33 0 -3 -7
-16 -15 -29 -14 -22 -14 -33 0 -120 8 -53 15 -142 15 -199 0 -91 2 -106 20
-122 17 -15 24 -16 46 -6 l26 11 -7 110 -7 110 43 1 c24 1 60 0 81 -1 38 -1
98 23 98 41 0 13 -35 25 -100 34 -99 12 -130 23 -131 48 -7 101 -7 97 20 103
103 23 211 60 211 73 0 42 -96 53 -202 22z"/>
<path d="M1692 3428 c-16 -16 -15 -31 5 -73 9 -19 15 -37 12 -39 -2 -2 -23 -7
-46 -11 -38 -6 -42 -5 -45 17 -3 20 -9 23 -56 26 -48 3 -56 0 -97 -34 -41 -33
-58 -64 -36 -64 5 0 21 -20 35 -45 16 -27 36 -47 51 -51 13 -3 26 -12 29 -19
6 -16 -65 -65 -93 -65 -25 0 -62 50 -85 113 -10 26 -24 54 -33 62 -8 8 -12 19
-9 23 3 5 -2 18 -10 30 -12 17 -21 21 -41 15 -37 -9 -112 -56 -113 -70 0 -6
-14 -23 -31 -37 -41 -35 -57 -98 -34 -133 45 -68 132 -78 191 -21 35 32 51 30
88 -11 11 -12 29 -21 42 -21 13 0 26 -5 30 -11 10 -18 56 -3 115 36 64 44 89
65 89 77 0 15 -52 59 -87 73 -35 15 -71 61 -57 74 5 5 30 11 55 13 41 5 45 3
45 -16 -1 -15 9 -24 38 -34 21 -7 49 -13 61 -14 19 -2 23 -12 35 -76 11 -64
16 -75 41 -87 25 -13 30 -13 44 1 8 9 13 24 11 33 -10 32 -26 106 -26 122 0
10 21 27 55 44 54 26 70 50 41 61 -8 3 -24 0 -36 -6 -35 -19 -67 -4 -85 38
-39 88 -63 110 -93 80z m-406 -244 c-1 -50 -5 -58 -35 -85 -19 -16 -41 -29
-51 -29 -16 0 -40 37 -40 62 0 15 100 108 116 108 7 0 11 -19 10 -56z"/>
<path d="M2047 3142 c-20 -22 -22 -43 -5 -60 14 -14 68 -16 68 -3 0 5 3 16 6
24 5 15 -27 57 -44 57 -5 0 -16 -8 -25 -18z"/>
<path d="M9841 2833 c-6 -16 -8 -39 -5 -53 4 -14 11 -70 16 -125 5 -55 13
-107 18 -116 6 -12 -1 -18 -37 -28 -32 -10 -47 -21 -54 -40 -6 -14 -18 -34
-26 -44 -25 -27 -26 -107 -2 -130 37 -35 118 -68 156 -65 80 7 105 118 58 263
-15 44 -28 96 -31 115 -2 19 -6 51 -10 70 -3 19 -8 49 -10 65 -10 82 -24 115
-49 115 -7 0 -18 -12 -24 -27z m65 -440 c4 -16 13 -38 21 -51 28 -45 -3 -50
-76 -13 -34 18 -41 26 -41 50 0 31 11 38 62 40 22 1 29 -4 34 -26z"/>
<path d="M13444 2833 c-11 -2 -38 -22 -60 -44 -37 -38 -39 -43 -38 -103 0 -41
7 -71 17 -86 14 -21 15 -26 1 -53 -15 -29 -15 -30 12 -52 l28 -22 -28 -25
c-24 -20 -30 -35 -34 -80 -3 -46 0 -61 21 -94 45 -73 133 -120 197 -107 37 7
84 58 100 107 24 75 -5 181 -66 240 l-36 35 29 25 c29 24 53 82 53 126 0 13
-11 42 -25 65 -34 59 -95 83 -171 68z m81 -98 c16 -4 25 -12 25 -25 0 -32 -31
-87 -56 -99 -20 -9 -27 -7 -44 11 -37 40 -18 132 27 123 12 -3 34 -7 48 -10z
m44 -305 c19 -16 22 -26 17 -53 -3 -17 -8 -45 -11 -62 -9 -55 -48 -68 -102
-35 -29 17 -33 25 -33 62 0 64 9 85 41 98 16 7 29 17 29 22 0 10 25 -3 59 -32z"/>
<path d="M9071 2808 c-6 -13 -11 -39 -10 -58 4 -84 -3 -238 -13 -277 -6 -24
-7 -51 -3 -60 7 -17 10 -67 5 -88 -2 -5 3 -25 10 -42 14 -39 47 -45 55 -10 4
18 12 194 14 300 1 40 16 33 31 -15 32 -102 80 -239 95 -268 17 -33 49 -40 59
-13 27 70 49 464 28 485 -8 8 -18 6 -36 -5 -25 -17 -25 -18 -23 -141 2 -68 0
-133 -4 -143 -8 -21 -5 -28 -53 113 -43 129 -102 244 -126 244 -9 0 -22 -10
-29 -22z"/>
<path d="M10569 2793 c-34 -33 -40 -44 -41 -83 -1 -31 7 -63 25 -101 30 -63
32 -76 15 -81 -10 -4 -10 -11 1 -34 8 -16 13 -33 12 -38 -2 -10 -13 -111 -14
-132 -1 -29 27 -71 56 -86 48 -24 97 -31 103 -13 3 8 21 23 39 34 25 14 37 31
45 62 17 62 5 107 -41 152 -31 31 -38 44 -33 63 4 13 12 28 19 32 19 11 45 68
45 97 0 39 -23 86 -62 128 -31 32 -41 37 -82 37 -40 0 -52 -5 -87 -37z m133
-76 c32 -37 33 -48 13 -87 -17 -32 -50 -55 -65 -45 -17 11 -50 83 -50 110 0
70 52 81 102 22z m14 -284 c28 -18 27 -99 -1 -119 -57 -42 -95 25 -64 114 11
32 21 33 65 5z"/>
<path d="M12066 2788 c-3 -7 -8 -26 -14 -43 -11 -34 -10 -54 6 -110 17 -63 21
-187 7 -241 l-13 -49 -26 60 c-88 200 -198 385 -230 385 -7 0 -18 -11 -24 -25
-14 -31 -16 -147 -3 -191 5 -17 5 -37 1 -44 -5 -7 -4 -24 1 -37 5 -13 5 -33 0
-46 -5 -13 -5 -45 1 -77 6 -30 10 -69 9 -87 -1 -32 20 -63 44 -63 27 0 35 53
31 208 -4 139 2 184 19 132 3 -11 10 -20 15 -20 5 0 12 -17 15 -37 8 -47 42
-123 54 -123 5 0 13 -15 16 -32 4 -18 16 -45 26 -60 11 -14 19 -31 19 -36 0
-14 58 -62 75 -62 7 0 22 21 32 48 15 38 18 76 18 207 0 225 -6 291 -27 325
-18 31 -46 40 -52 18z"/>
<path d="M7050 2771 c-9 -19 -8 -99 5 -223 3 -33 1 -38 -18 -38 -30 0 -107
-39 -107 -55 0 -7 -7 -19 -17 -26 -9 -8 -22 -27 -29 -44 l-13 -30 -1 46 c0 58
-37 131 -72 143 -48 17 -97 -2 -152 -57 -50 -50 -51 -53 -51 -112 -1 -33 -4
-70 -9 -83 -16 -46 52 -92 136 -92 49 0 57 3 91 38 20 20 43 55 50 77 l14 39
11 -47 c16 -63 54 -97 109 -97 23 0 45 5 48 10 3 6 14 10 24 10 28 0 121 95
121 124 0 3 -9 6 -19 6 -27 0 -30 7 -41 97 -5 43 -12 101 -16 128 -3 28 -9 84
-12 125 -6 59 -11 75 -24 78 -9 2 -22 -6 -28 -17z m-263 -303 c16 -21 29 -91
23 -128 -6 -44 -57 -80 -111 -80 -44 0 -46 2 -23 25 15 14 15 18 0 49 -21 44
-20 76 2 102 33 41 89 57 109 32z m279 -98 c18 -61 18 -65 -11 -78 -59 -27
-108 0 -108 60 0 40 35 70 76 66 26 -3 32 -9 43 -48z"/>
<path d="M7973 2771 c-17 -11 -34 -28 -37 -38 -3 -10 -19 -27 -35 -37 -16 -11
-37 -36 -48 -55 -10 -19 -27 -50 -37 -70 -11 -20 -21 -54 -22 -76 -1 -22 -5
-47 -8 -55 -3 -8 -8 -40 -11 -70 -3 -30 -8 -69 -11 -87 -8 -42 20 -69 80 -78
33 -5 55 -3 80 9 19 9 37 16 40 16 4 0 27 21 51 47 36 38 45 54 45 83 0 45
-17 70 -78 109 -39 25 -56 30 -80 25 -18 -4 -32 -4 -32 0 0 27 93 178 136 221
25 25 33 75 12 75 -7 0 -27 -9 -45 -19z m-44 -375 c45 -24 52 -37 35 -73 -17
-35 -62 -58 -93 -48 -17 5 -21 15 -21 45 0 50 15 90 35 90 9 0 28 -6 44 -14z"/>
<path d="M12653 2762 c-20 -12 -24 -54 -13 -122 6 -36 11 -73 11 -83 0 -10 4
-29 9 -42 8 -20 6 -25 -13 -30 -12 -3 -44 -16 -70 -28 -37 -16 -50 -27 -54
-49 -3 -15 -9 -28 -13 -28 -15 0 -32 -72 -27 -112 6 -43 18 -56 90 -93 63 -32
89 -31 140 4 55 38 86 75 94 111 5 26 2 30 -16 30 -17 0 -21 6 -21 29 0 17 -6
58 -14 93 -8 35 -20 112 -27 172 -9 76 -19 116 -32 132 -20 26 -26 28 -44 16z
m24 -405 c4 -7 22 -19 39 -28 l31 -14 -44 -35 c-49 -37 -107 -46 -124 -19 -14
22 -11 62 7 87 17 25 77 31 91 9z"/>
<path d="M4756 2731 c-17 -19 -17 -83 -1 -213 l5 -37 -56 -11 c-30 -7 -57 -10
-58 -8 -1 1 -10 43 -19 92 -9 50 -24 97 -32 105 -15 15 -18 14 -31 -3 -17 -23
-18 -54 -4 -127 6 -30 11 -75 12 -101 0 -43 3 -48 31 -57 17 -7 58 -8 98 -5
l69 7 0 -69 c1 -86 17 -114 55 -94 24 13 30 26 27 60 -9 122 -5 134 50 146 36
8 48 24 37 52 -7 18 -16 22 -53 22 -25 0 -47 4 -50 8 -3 5 -8 42 -11 83 -7 81
-21 137 -40 156 -10 10 -16 8 -29 -6z"/>
<path d="M6237 2723 c-9 -18 -11 -36 -6 -48 4 -11 8 -105 8 -208 1 -158 3
-189 16 -193 34 -13 46 15 45 105 -1 47 -1 108 -1 135 l1 49 24 -22 c13 -13
27 -38 30 -57 4 -19 11 -34 17 -34 5 0 21 -25 35 -55 15 -31 30 -58 35 -61 5
-3 9 -15 9 -26 0 -33 29 -59 50 -48 26 14 40 93 40 223 0 162 -8 214 -33 221
-12 3 -26 -3 -36 -15 -15 -19 -15 -29 -2 -119 18 -125 8 -157 -25 -82 -13 29
-29 58 -34 65 -6 7 -32 46 -58 87 -50 78 -77 110 -92 110 -5 0 -16 -12 -23
-27z"/>
<path d="M3994 2699 c-9 -20 -1 -108 21 -240 l7 -38 -55 0 c-75 1 -110 -21
-153 -97 -45 -81 -44 -103 7 -143 36 -30 45 -32 84 -26 74 11 165 63 165 94 0
10 -7 25 -16 32 -14 11 -24 9 -67 -13 -29 -15 -69 -30 -89 -34 -39 -6 -45 0
-38 46 5 37 100 94 116 69 3 -5 14 -9 24 -9 11 0 29 -10 40 -22 l21 -23 18 22
c15 18 17 29 10 60 -5 21 -18 102 -29 181 -10 78 -22 147 -25 152 -10 17 -32
11 -41 -11z"/>
<path d="M3378 2633 c-24 -28 -27 -45 -29 -153 -1 -55 -5 -100 -9 -100 -11 0
-39 51 -84 153 -39 88 -61 109 -101 93 -21 -8 -24 -120 -4 -158 5 -10 5 -19 0
-22 -10 -7 -9 -242 2 -252 3 -4 17 -4 31 0 21 5 24 10 20 43 -3 21 -1 78 3
127 l8 90 28 -57 c15 -31 32 -57 37 -57 6 0 10 -8 10 -17 0 -10 13 -43 28 -73
35 -70 65 -79 87 -26 20 48 37 367 20 381 -6 6 -16 18 -21 28 -10 17 -11 17
-26 0z"/>
<path d="M7329 2562 c-18 -8 -110 -107 -126 -135 -12 -23 -5 -77 11 -77 6 0
17 -12 24 -27 21 -46 86 -81 144 -78 27 2 57 9 66 17 9 8 30 19 45 26 15 6 30
19 33 27 4 8 12 15 19 15 13 0 29 29 20 38 -2 3 -33 -5 -67 -18 -78 -28 -146
-30 -165 -4 -13 18 -11 19 26 25 91 12 157 110 114 167 -17 23 -28 27 -74 29
-30 1 -61 -1 -70 -5z m81 -86 c0 -20 -40 -42 -87 -48 -50 -7 -56 6 -20 40 44
41 107 46 107 8z"/>
<path d="M10143 2534 c-51 -25 -105 -98 -115 -156 -8 -41 -6 -56 10 -86 10
-20 27 -41 38 -47 11 -5 33 -20 49 -31 34 -24 129 -41 148 -26 7 5 25 12 40
16 16 4 36 20 47 39 36 59 17 104 -24 58 -10 -11 -39 -25 -66 -31 -43 -10 -52
-9 -96 12 -26 13 -50 28 -51 34 -2 6 16 16 40 22 26 7 63 28 90 53 58 50 62
85 18 130 -34 34 -77 38 -128 13z m80 -80 c7 -7 -48 -38 -83 -47 -31 -8 -33 9
-4 32 25 20 74 28 87 15z"/>
<path d="M9530 2532 c-26 -8 -50 -34 -83 -91 -41 -71 -48 -165 -16 -200 21
-22 30 -24 93 -22 44 2 100 32 120 65 60 96 -23 276 -114 248z m73 -156 c3
-35 -32 -64 -88 -73 -36 -6 -39 -5 -27 9 9 11 10 18 2 23 -18 11 -11 41 21 85
l31 43 29 -30 c17 -16 31 -42 32 -57z"/>
<path d="M12969 2508 c-34 -7 -58 -21 -88 -52 -39 -40 -42 -47 -47 -112 -6
-68 -5 -70 29 -109 53 -62 162 -106 191 -78 3 4 13 8 20 9 7 1 24 10 36 20 60
49 79 71 82 94 3 22 -1 25 -31 28 -22 2 -40 -3 -55 -16 -45 -41 -113 -51 -156
-22 -13 8 -10 14 15 35 17 13 38 24 48 25 9 0 17 3 17 8 0 4 18 16 40 26 22
10 42 27 45 37 5 14 15 18 38 16 23 -1 32 3 35 16 6 27 -17 47 -52 47 -19 0
-38 8 -49 20 -18 22 -44 23 -118 8z"/>
<path d="M12296 2483 c-39 -6 -91 -46 -106 -82 -11 -29 -8 -99 6 -123 4 -7 16
-19 26 -26 10 -7 16 -17 14 -21 -3 -4 -1 -13 4 -21 12 -19 99 -16 139 4 16 9
41 30 56 48 24 29 27 38 21 82 -11 92 -78 150 -160 139z m88 -88 c16 -12 17
-18 8 -27 -7 -7 -12 -21 -12 -32 0 -15 -13 -27 -40 -40 -40 -19 -41 -19 -55 0
-27 35 -19 68 23 92 44 25 51 26 76 7z"/>
<path d="M4233 2457 c-44 -32 -113 -105 -114 -120 -6 -63 38 -159 82 -181 67
-33 165 -11 193 43 9 16 16 32 16 36 0 10 -36 5 -48 -7 -18 -18 -113 -10 -136
12 -22 22 -16 35 21 45 61 15 123 50 133 76 16 39 -3 105 -33 113 -44 11 -84
6 -114 -17z m97 -55 c0 -17 -36 -40 -72 -47 -44 -8 -50 5 -15 28 20 13 33 17
80 26 4 0 7 -3 7 -7z"/>
<path d="M3555 2410 c-35 -14 -76 -65 -76 -96 -1 -69 35 -162 67 -170 43 -11
155 41 196 90 39 47 7 139 -59 171 -34 16 -96 19 -128 5z m127 -72 c15 -25 8
-57 -18 -77 -43 -34 -62 -35 -90 -7 -21 20 -25 31 -19 56 4 18 16 35 28 41 28
11 88 4 99 -13z"/>
<path d="M9802 1988 c-13 -51 -18 -84 -21 -120 -1 -15 -11 -18 -60 -18 -61 0
-111 -25 -111 -56 0 -18 49 -40 115 -51 54 -9 50 -1 54 -94 1 -41 34 -66 70
-54 19 6 21 14 21 71 0 61 1 64 24 64 34 0 134 48 146 70 21 39 3 52 -74 50
-39 -1 -77 -2 -83 -1 -9 1 -13 21 -13 65 0 125 -45 174 -68 74z"/>
<path d="M12613 1888 c-4 -7 -6 -21 -4 -31 1 -10 -4 -26 -13 -35 -8 -10 -16
-37 -18 -62 -3 -43 -4 -44 -42 -52 -35 -7 -65 -30 -66 -50 -1 -22 43 -48 79
-48 l39 0 -5 -38 c-5 -34 -1 -42 26 -65 46 -38 61 -27 61 44 0 56 2 60 28 70
15 6 53 13 84 16 63 6 80 25 57 61 -11 17 -24 20 -80 20 -38 0 -73 3 -79 7 -6
4 -8 26 -4 59 7 57 -4 89 -36 106 -14 7 -21 7 -27 -2z"/>
<path d="M7077 1838 c-13 -30 -16 -44 -20 -101 -1 -11 -15 -21 -42 -29 -46
-13 -62 -24 -76 -49 -8 -15 -4 -21 22 -34 19 -10 41 -14 60 -10 24 5 29 3 30
-12 0 -10 3 -34 5 -53 3 -19 5 -57 6 -83 0 -46 1 -48 26 -45 36 4 52 40 52
120 l0 66 63 7 c34 4 67 11 72 15 6 4 22 10 38 14 22 5 27 12 27 37 l0 31 -90
-5 c-67 -4 -92 -1 -100 8 -7 8 -10 42 -8 82 3 67 3 68 -24 71 -22 3 -29 -3
-41 -30z"/>
<path d="M3956 1765 c-11 -17 -16 -47 -16 -101 l0 -77 -74 7 c-61 5 -77 4 -90
-9 -9 -9 -16 -22 -16 -30 0 -19 80 -55 123 -55 28 0 37 -4 38 -17 1 -32 8
-108 14 -140 4 -23 11 -33 24 -33 34 0 50 32 53 104 l3 69 55 12 c64 12 80 21
80 41 0 26 -24 41 -78 49 l-52 7 -2 56 c0 32 0 70 1 85 5 54 -35 75 -63 32z"/>
<path d="M13828 1395 c-81 -76 -143 -255 -143 -416 0 -108 7 -124 73 -155 60
-28 88 -26 135 13 53 44 63 56 83 109 15 38 15 45 0 76 -9 18 -31 41 -49 50
-69 34 -116 50 -126 44 -6 -4 -11 -5 -11 -2 0 20 82 191 104 216 31 38 32 54
6 80 -26 26 -28 26 -72 -15z m40 -390 c50 -16 -2 -110 -55 -100 -36 6 -43 14
-43 52 0 56 28 70 98 48z"/>
<path d="M11705 1364 c-11 -3 -34 -13 -52 -22 -28 -14 -31 -20 -26 -46 3 -17
11 -35 18 -40 9 -7 9 -15 -2 -37 -11 -23 -12 -33 -2 -51 7 -12 11 -42 10 -66
0 -24 2 -49 6 -55 3 -6 5 -34 4 -63 -1 -29 2 -55 7 -58 5 -3 13 -31 17 -61 5
-45 11 -58 28 -64 29 -11 35 0 29 60 -4 46 7 65 23 39 3 -5 46 -37 95 -70 90
-60 150 -79 150 -45 0 26 -23 64 -41 70 -11 4 -25 12 -31 18 -7 7 -32 24 -55
39 -90 59 -140 118 -98 118 8 0 33 10 55 21 23 12 43 19 47 16 8 -8 73 63 84
91 13 34 11 79 -5 111 -20 38 -84 85 -121 88 -16 1 -50 4 -75 7 -25 3 -54 2
-65 0z m173 -115 c17 -6 32 -15 32 -21 0 -36 -89 -102 -154 -114 -21 -3 -24 1
-30 39 -4 23 -14 53 -22 65 -9 13 -14 25 -12 26 31 26 114 27 186 5z"/>
<path d="M13010 1325 c-10 -36 -10 -55 -1 -84 6 -21 11 -47 11 -59 0 -18 -5
-19 -39 -15 -32 4 -44 1 -66 -20 l-27 -24 33 -25 c19 -14 50 -29 69 -34 l35
-10 0 -92 c1 -86 3 -94 27 -119 20 -20 32 -24 53 -19 26 7 26 8 21 72 -3 37
-3 71 1 77 3 6 7 27 7 46 1 31 5 37 34 47 78 25 75 78 -5 90 -49 7 -55 13 -60
63 -7 63 -23 110 -45 131 -12 11 -25 20 -29 20 -3 0 -12 -20 -19 -45z"/>
<path d="M13460 1330 c-18 -18 -21 -29 -16 -64 4 -23 9 -71 11 -107 12 -171
24 -282 34 -292 5 -5 27 -11 48 -12 35 -3 38 -1 40 23 1 15 -2 41 -7 57 -5 17
-11 101 -15 187 -4 127 -9 164 -23 190 -23 41 -44 46 -72 18z"/>
<path d="M11056 1301 c-60 -5 -72 -10 -89 -33 -21 -28 -20 -36 10 -181 7 -36
30 -45 125 -49 64 -4 73 -6 73 -24 1 -61 -65 -130 -136 -142 -54 -9 -69 -30
-43 -64 15 -20 31 -27 69 -31 28 -2 52 -2 55 2 3 3 28 25 55 48 87 71 112 152
68 219 -23 36 -90 76 -145 89 -47 10 -53 15 -55 38 -2 29 -5 28 105 32 37 1
52 17 45 46 -5 19 -50 61 -62 57 -3 -1 -37 -4 -75 -7z"/>
<path d="M10340 1260 c0 -5 -7 -10 -15 -10 -18 0 -18 -2 -1 -68 l15 -53 -29 6
c-23 5 -35 1 -55 -19 -14 -14 -25 -31 -25 -38 0 -15 97 -61 110 -53 17 11 22
-19 21 -120 -2 -100 -2 -102 24 -119 17 -11 36 -15 51 -12 24 6 24 9 24 116 0
60 4 111 9 115 5 3 28 7 51 9 69 7 117 71 72 95 -10 5 -43 8 -73 5 -67 -7 -81
3 -104 76 -9 30 -22 61 -27 68 -12 14 -48 16 -48 2z"/>
<path d="M10791 1256 c-25 -30 -31 -78 -17 -135 8 -31 17 -103 20 -161 6 -92
9 -108 30 -129 20 -20 27 -21 46 -11 22 12 22 15 16 123 -10 172 -26 268 -50
299 -24 31 -29 33 -45 14z"/>
<path d="M8259 1246 c-2 -2 -46 -6 -97 -9 -125 -6 -124 -3 -118 -180 5 -153
14 -175 64 -162 15 3 50 6 77 5 65 -1 86 -21 88 -85 2 -45 -1 -50 -32 -72 -50
-34 -101 -31 -147 9 -35 31 -37 32 -51 13 -8 -12 -11 -30 -8 -45 9 -36 70 -89
106 -92 17 -1 33 -6 35 -10 17 -28 173 80 189 132 10 32 8 104 -6 148 -10 35
-20 47 -52 62 -42 21 -86 31 -140 34 l-32 2 -1 83 -1 83 66 -4 c36 -3 76 0 88
5 25 11 36 43 22 69 -9 16 -39 25 -50 14z"/>
<path d="M9005 1240 c-56 -12 -112 -37 -118 -53 -8 -22 9 -187 21 -199 7 -7 7
-21 -2 -47 -7 -20 -13 -61 -14 -92 -1 -50 2 -59 27 -81 l27 -25 14 31 c8 17
19 53 25 79 l11 48 28 -38 c37 -48 131 -115 163 -115 20 0 52 25 52 42 0 12
-36 47 -69 67 -36 22 -87 71 -79 76 2 1 28 14 57 27 29 13 64 39 78 57 22 29
25 41 20 78 -11 68 -55 121 -118 140 -56 16 -64 17 -123 5z m129 -106 c18 -7
21 -36 6 -64 -12 -23 -61 -40 -116 -40 l-44 0 0 44 c0 39 3 45 28 54 31 12
103 15 126 6z"/>
<path d="M7845 1185 c-24 -23 -34 -55 -17 -55 4 0 8 -86 9 -191 l1 -191 25
-24 c64 -59 79 -15 67 201 -5 88 -9 181 -9 206 0 30 -6 53 -16 63 -22 22 -32
20 -60 -9z"/>
<path d="M6010 1162 c-43 -19 -58 -39 -61 -80 -2 -30 1 -46 11 -52 15 -9 16
-43 11 -305 -4 -153 -4 -153 51 -114 28 21 30 25 24 70 -4 30 -3 50 5 54 12 8
66 -40 75 -67 3 -10 9 -16 13 -14 4 3 21 -3 38 -13 28 -17 38 -17 70 3 1 1 4
13 8 29 7 25 4 29 -31 43 -46 19 -134 101 -134 126 0 9 23 32 53 52 113 76
156 230 66 241 -13 2 -51 10 -84 19 -63 17 -91 19 -115 8z m162 -120 c13 -13
-34 -73 -74 -93 -22 -11 -41 -19 -43 -17 -1 2 -6 31 -10 65 -7 59 -6 62 17 65
26 4 99 -9 110 -20z"/>
<path d="M4337 1144 c-4 -4 -7 -50 -7 -101 0 -112 -8 -133 -53 -133 -61 0 -99
-49 -62 -80 10 -8 32 -11 64 -7 l49 6 -5 -62 c-3 -34 -9 -80 -14 -102 -7 -34
-5 -43 13 -62 15 -16 25 -20 38 -13 22 12 52 119 52 183 0 52 14 73 54 83 18
5 24 13 24 34 0 26 -4 29 -37 32 -42 3 -47 14 -58 118 -6 54 -43 119 -58 104z"/>
<path d="M3015 1109 c-45 -40 -49 -79 -7 -79 l28 0 -8 -77 c-5 -43 -5 -89 -1
-103 4 -14 7 -68 8 -122 0 -53 3 -99 7 -103 13 -13 57 5 63 26 4 11 7 43 7 70
-1 27 3 49 8 49 9 0 24 -30 22 -42 -1 -5 3 -8 10 -8 6 0 26 -18 45 -40 26 -30
42 -40 64 -40 16 0 29 4 29 9 0 5 2 16 5 24 4 8 -30 52 -89 113 -53 54 -94
103 -93 108 2 4 32 24 67 43 79 41 78 41 95 89 9 26 10 45 3 59 -13 30 -90 55
-165 55 -55 0 -66 -3 -98 -31z m193 -59 c1 0 -2 -9 -8 -20 -6 -11 -28 -29 -49
-40 l-39 -19 -5 27 c-2 15 -7 35 -11 44 -7 15 -1 16 51 13 32 -3 59 -4 61 -5z"/>
<path d="M12083 1124 c-19 -9 -33 -24 -33 -34 0 -10 -7 -23 -15 -30 -8 -7 -15
-23 -15 -35 0 -12 -6 -28 -14 -34 -19 -16 -30 -81 -17 -94 6 -6 11 -19 11 -29
0 -10 6 -18 13 -18 8 0 22 -9 32 -20 10 -11 24 -20 31 -20 7 0 17 -6 21 -14 4
-7 31 -18 58 -23 59 -11 101 4 153 53 32 31 40 65 22 94 -8 13 -13 13 -42 -2
-18 -10 -56 -26 -85 -37 -42 -17 -53 -18 -62 -7 -9 10 -4 16 20 26 18 8 54 31
81 52 46 37 48 41 42 76 -8 48 -42 82 -90 92 -22 5 -48 11 -59 14 -11 3 -35
-1 -52 -10z m97 -100 c0 -6 -71 -34 -86 -34 -34 0 1 32 38 35 3 0 9 3 13 7 7
6 35 0 35 -8z"/>
<path d="M4877 1100 c-9 -11 -19 -30 -22 -42 -8 -38 -14 -234 -7 -244 4 -5 39
-9 78 -9 80 0 108 -15 117 -63 10 -49 -19 -89 -76 -108 -48 -16 -52 -16 -84 1
-37 20 -51 14 -55 -24 -2 -19 7 -30 47 -54 62 -37 82 -37 137 -1 161 105 146
279 -28 334 l-59 18 2 57 c1 31 4 59 7 62 7 7 45 6 87 -2 34 -7 38 -5 52 25
28 56 12 68 -91 69 -76 1 -90 -2 -105 -19z"/>
<path d="M12495 1090 c-27 -16 -71 -52 -97 -80 -48 -54 -49 -58 -39 -167 2
-20 73 -60 118 -67 30 -4 46 -2 57 9 8 8 19 15 23 15 5 0 25 14 43 30 18 17
35 30 36 30 1 0 11 -16 22 -35 22 -37 68 -57 82 -36 5 10 21 8 66 -4 32 -10
64 -21 69 -25 12 -9 53 -4 81 11 12 6 28 26 37 45 15 30 15 35 1 49 -19 19
-44 19 -69 1 -18 -13 -33 -11 -103 15 -51 19 -29 68 47 107 43 22 51 57 22 93
l-20 24 -46 -25 c-25 -14 -67 -47 -91 -74 -47 -51 -55 -51 -78 -4 -6 12 -20
27 -31 32 -12 5 -28 26 -37 47 -9 22 -22 39 -30 38 -7 0 -35 -13 -63 -29z m78
-81 c-7 -7 -8 -21 -1 -44 9 -28 8 -35 -10 -53 -24 -24 -92 -45 -116 -36 -18 7
-22 24 -4 24 6 0 8 3 5 6 -10 10 99 114 119 114 13 0 15 -3 7 -11z"/>
<path d="M7346 1098 c-12 -39 -16 -70 -9 -81 16 -27 13 -47 -8 -47 -31 0 -89
-30 -89 -46 0 -16 61 -44 96 -44 13 0 25 -7 28 -17 8 -27 9 -93 1 -139 -7 -41
-7 -42 26 -49 42 -9 58 11 61 74 1 25 2 55 3 66 1 11 3 27 4 36 0 9 17 19 44
25 33 7 43 14 45 32 4 30 -34 65 -65 59 -34 -6 -46 7 -62 75 -14 57 -19 63
-44 66 -16 2 -29 -2 -31 -10z"/>
<path d="M4659 1056 c-8 -17 -8 -37 0 -72 6 -29 9 -118 7 -219 -2 -93 0 -180
5 -192 12 -33 50 -16 66 28 15 43 17 305 2 385 -16 87 -57 122 -80 70z"/>
<path d="M10100 1044 c-60 -33 -89 -85 -92 -162 -3 -54 0 -64 28 -98 17 -21
44 -42 60 -47 46 -14 114 -24 109 -17 -2 4 14 6 35 4 23 -1 38 1 35 7 -4 5 1
12 9 15 24 9 46 62 39 95 -7 36 -26 37 -65 4 -55 -46 -158 -26 -158 31 0 15
14 39 35 60 19 19 35 39 35 44 0 6 11 10 24 10 24 0 24 0 9 40 -19 48 -38 51
-103 14z"/>
<path d="M9350 1044 c-14 -9 -33 -28 -43 -43 -9 -14 -27 -39 -39 -54 -18 -22
-23 -41 -22 -82 0 -51 3 -57 45 -97 49 -48 95 -68 158 -68 28 0 44 -5 47 -15
5 -12 17 -4 48 30 l43 45 46 -24 c52 -28 108 -34 151 -17 47 19 86 51 86 72 0
25 1 25 44 -16 27 -25 46 -35 70 -35 18 0 35 3 39 6 7 7 -46 99 -77 134 -12
14 -31 42 -41 63 -11 20 -23 37 -27 37 -5 0 -13 11 -19 24 -6 13 -27 30 -46
38 -34 12 -37 12 -70 -17 -114 -99 -132 -118 -147 -159 -13 -33 -22 -44 -39
-44 -12 -1 -53 -7 -90 -13 -64 -12 -69 -11 -89 8 l-20 21 23 7 c27 7 46 15
102 39 52 22 65 59 38 106 -36 62 -116 88 -171 54z m460 -113 c0 -10 -3 -39
-6 -65 -6 -42 -9 -47 -43 -56 -44 -12 -52 -12 -70 -1 -11 7 -10 15 8 45 13 20
27 36 32 36 6 0 22 14 36 30 28 34 43 38 43 11z"/>
<path d="M4148 943 c-16 -2 -28 -8 -28 -13 0 -5 -15 -18 -34 -29 -50 -31 -87
-91 -95 -153 -8 -67 -15 -60 -85 82 -32 67 -57 106 -69 108 -19 4 -147 -123
-173 -171 -9 -16 -13 -45 -11 -69 3 -35 9 -44 38 -60 62 -33 75 -28 147 61
l28 33 31 -51 c18 -28 27 -51 21 -51 -6 0 -9 -3 -6 -6 9 -8 51 16 66 38 13 18
16 17 54 -22 55 -55 101 -56 167 -3 53 43 61 52 61 74 0 14 -7 14 -67 2 -89
-18 -113 -12 -113 29 0 40 37 95 72 107 31 11 51 43 46 73 -3 24 -10 27 -50
21z m-340 -165 c-25 -80 -59 -118 -78 -88 -15 24 -12 33 29 78 47 51 63 55 49
10z"/>
<path d="M6809 902 c-25 -26 -58 -58 -74 -72 -38 -33 -105 -119 -105 -133 0
-18 -49 -38 -102 -44 -40 -4 -53 -1 -83 22 -39 30 -44 45 -17 45 28 0 115 31
134 47 28 25 31 67 9 118 -20 44 -20 45 -68 45 -27 0 -54 -5 -60 -11 -5 -5
-25 -18 -44 -27 -35 -18 -114 -122 -100 -132 4 -3 11 -18 15 -34 4 -16 23 -53
42 -81 32 -49 38 -53 93 -64 67 -13 94 -6 150 42 32 27 35 28 44 11 19 -35 43
-51 86 -57 56 -7 106 22 122 73 17 53 26 56 45 17 13 -27 25 -38 48 -42 17 -4
40 -9 51 -11 15 -4 16 -3 6 4 -9 7 -10 12 -2 16 6 4 11 21 11 37 0 21 -6 32
-23 38 -16 6 -30 30 -50 82 -15 41 -35 86 -43 101 -8 15 -13 32 -12 39 7 30
-30 15 -73 -29z m-299 -74 c0 -10 -10 -22 -22 -27 -25 -9 -108 -14 -108 -6 0
3 17 16 38 29 45 29 92 32 92 4z m310 -76 c-29 -90 -69 -123 -102 -84 -21 23
-10 50 38 90 22 18 46 39 54 48 13 13 15 13 18 -1 2 -8 -2 -32 -8 -53z"/>
<path d="M3433 905 c-56 -21 -116 -76 -108 -99 3 -6 6 -31 8 -56 3 -42 7 -47
58 -81 62 -41 109 -59 154 -59 39 0 75 32 68 60 -4 16 -13 20 -50 20 -47 0
-120 29 -93 38 8 3 28 14 45 26 16 12 39 26 49 31 29 15 50 57 43 86 -8 30
-56 60 -91 57 -15 -1 -52 -12 -83 -23z m97 -52 c0 -10 -93 -63 -109 -63 -26 0
-8 28 27 43 64 27 82 31 82 20z"/>
<path d="M7162 903 c-41 -8 -75 -31 -109 -74 -18 -23 -31 -49 -28 -58 2 -9 1
-22 -4 -30 -5 -8 -5 -21 -1 -30 5 -9 11 -28 15 -43 3 -19 12 -28 25 -28 10 0
22 -5 25 -10 4 -6 11 -8 16 -5 5 4 9 2 9 -3 0 -16 64 -40 86 -32 28 11 116
100 111 114 -6 19 -42 18 -67 -2 -20 -16 -29 -17 -74 -7 -79 18 -90 57 -32
118 10 10 23 20 30 21 44 8 57 19 54 44 -3 27 -15 33 -56 25z"/>
</g>
</svg>
