<?xml version="1.0" standalone="no"?>
<!DOCTYPE svg PUBLIC "-//W3C//DTD SVG 20010904//EN"
 "http://www.w3.org/TR/2001/REC-SVG-20010904/DTD/svg10.dtd">
<svg version="1.0" xmlns="http://www.w3.org/2000/svg"
 width="156.476286pt" height="400.000000pt" viewBox="0 0 156.476286 400.000000"
 preserveAspectRatio="xMidYMid meet">
<metadata>
Created by potrace 1.15, written by Peter Selinger 2001-2017
</metadata>
<g transform="translate(-26.469984,415.233969) scale(0.021217,-0.021217)"
fill="#444444" stroke="none">
<path d="M6002 19558 c-14 -14 -16 -168 -3 -215 12 -41 -1 -56 -65 -77 -39
-13 -58 -26 -81 -59 -17 -23 -33 -52 -37 -64 -4 -13 -13 -23 -21 -23 -7 0 -20
-6 -28 -14 -7 -8 -29 -16 -48 -19 -19 -3 -48 -8 -65 -12 -34 -8 -74 8 -74 28
0 7 32 26 72 42 117 49 138 76 103 129 -22 32 -110 45 -154 21 -67 -34 -97
-119 -78 -217 11 -53 61 -83 124 -74 55 7 133 44 133 63 0 7 7 13 15 13 8 0
15 5 15 10 0 18 16 11 29 -13 7 -13 25 -31 41 -40 49 -30 175 -16 232 24 31
22 39 62 11 57 -12 -2 -21 10 -34 44 -26 71 -31 112 -30 240 1 146 -18 195
-57 156z m-312 -329 c0 -8 -63 -29 -89 -29 -22 0 16 38 43 42 26 5 46 -1 46
-13z m318 -61 c9 -17 25 -40 35 -50 17 -18 16 -19 -5 -27 -26 -10 -91 -8 -125
3 -27 9 -29 35 -8 76 13 25 22 30 51 30 29 0 38 -5 52 -32z"/>
<path d="M5332 19490 c-9 -15 -10 -30 -3 -53 13 -43 31 -217 31 -299 0 -58 3
-69 22 -82 45 -32 49 -24 43 96 -4 61 -8 115 -11 120 -3 4 -5 31 -6 59 0 64
-30 173 -49 177 -8 1 -20 -7 -27 -18z"/>
<path d="M7390 19485 c-6 -17 -6 -41 0 -68 5 -23 10 -54 10 -69 0 -26 -3 -28
-38 -28 -27 0 -41 -6 -50 -21 -18 -28 -1 -46 48 -52 35 -3 35 -4 35 -53 0 -27
-3 -75 -8 -106 -7 -60 8 -93 41 -86 24 5 31 27 37 130 l7 98 36 9 c21 5 54 12
74 15 24 4 42 15 49 28 16 30 -2 38 -87 38 l-71 0 -13 58 c-13 55 -45 132 -55
132 -3 0 -10 -11 -15 -25z"/>
<path d="M2626 19485 c-19 -15 -40 -89 -38 -140 2 -36 -11 -45 -56 -38 -27 5
-38 2 -48 -12 -8 -11 -14 -22 -14 -27 0 -14 58 -38 93 -38 l34 0 6 -82 c6 -85
21 -114 54 -101 13 5 15 21 11 90 -3 50 0 87 5 90 6 3 39 5 74 4 34 -1 63 2
63 7 0 23 -53 56 -97 62 -44 5 -48 7 -54 38 -3 17 -3 47 0 65 7 32 7 32 64 31
31 -1 57 2 57 6 0 5 -14 20 -31 34 -35 29 -92 35 -123 11z"/>
<path d="M6767 19475 c-12 -11 -13 -24 -6 -53 18 -82 21 -122 20 -282 0 -95 4
-169 10 -176 5 -7 18 -10 28 -7 21 5 31 31 31 78 0 48 19 102 38 110 25 9 52
-30 52 -77 0 -29 6 -45 27 -64 20 -19 28 -21 35 -12 29 47 -18 195 -71 223
-32 16 -81 7 -81 -15 0 -6 -4 -8 -10 -5 -6 3 -10 51 -10 108 0 70 -5 115 -16
144 -18 47 -25 51 -47 28z"/>
<path d="M6538 19448 c-3 -18 -1 -46 3 -63 5 -16 9 -49 9 -72 l0 -43 -79 0
c-73 0 -80 -2 -95 -25 l-17 -26 46 -20 c25 -11 54 -17 64 -14 11 3 31 3 46 -1
26 -6 27 -9 22 -58 -3 -28 -9 -62 -12 -76 -7 -31 3 -47 36 -55 26 -6 27 -5 39
57 7 35 15 79 18 98 5 37 26 59 55 60 32 0 77 39 77 65 0 26 6 26 -90 10 -20
-3 -32 0 -34 8 -2 6 -9 36 -16 66 -13 55 -45 121 -60 121 -4 0 -10 -15 -12
-32z"/>
<path d="M1261 19426 c-17 -22 -18 -42 -4 -91 7 -27 20 -121 27 -208 16 -178
21 -188 89 -205 59 -15 187 -14 216 2 l24 13 -27 18 c-15 10 -40 19 -54 21
-50 4 -164 22 -168 26 -2 3 -7 32 -10 65 l-7 61 29 5 c16 3 71 9 122 13 50 3
94 10 97 14 2 4 -6 19 -19 33 -24 26 -26 26 -124 20 -115 -7 -118 -5 -129 86
-5 48 -5 49 19 44 27 -5 197 13 206 22 3 3 -2 13 -12 24 -12 13 -42 21 -104
29 -134 18 -162 19 -171 8z"/>
<path d="M2348 19389 c-22 -24 -22 -24 3 -48 17 -15 26 -18 40 -10 24 12 24
41 1 62 -22 20 -22 20 -44 -4z"/>
<path d="M3922 19373 c-31 -6 -89 -68 -112 -121 -32 -73 -22 -163 21 -190 33
-21 41 -6 34 59 -6 50 -3 67 15 107 28 60 68 102 97 102 16 0 23 6 23 20 0 11
-6 20 -14 20 -8 0 -20 2 -28 4 -7 2 -23 1 -36 -1z"/>
<path d="M4119 19293 c-83 -84 -104 -137 -73 -181 11 -15 42 -38 68 -51 45
-23 53 -24 105 -13 35 7 63 20 74 33 25 32 6 41 -69 33 -37 -4 -70 -2 -80 4
-17 9 -13 13 31 33 28 12 53 22 57 21 4 -1 21 12 37 29 33 33 39 67 20 116
-13 35 -25 43 -68 43 -29 0 -45 -10 -102 -67z m121 -7 c0 -25 -12 -46 -25 -46
-7 0 -24 -9 -39 -21 -14 -11 -33 -19 -41 -17 -13 2 -10 10 11 41 33 49 94 76
94 43z"/>
<path d="M4511 19283 c-17 -26 -34 -64 -38 -85 -3 -22 -11 -37 -17 -35 -6 2
-21 32 -33 67 -24 69 -36 86 -52 76 -33 -21 20 -191 72 -230 26 -19 27 -19 48
0 37 34 105 219 88 241 -20 23 -36 15 -68 -34z"/>
<path d="M4750 19311 c-14 -8 -29 -21 -33 -29 -5 -7 -12 -10 -16 -8 -9 6 -65
-61 -82 -98 -15 -33 4 -63 68 -108 40 -27 57 -32 105 -33 44 0 63 5 85 23 15
12 38 27 51 32 12 5 22 18 22 30 0 24 -11 25 -49 6 -28 -15 -71 -21 -130 -18
l-34 2 44 29 c24 17 55 41 68 55 22 24 23 29 13 64 -11 35 -28 51 -72 65 -8 2
-26 -3 -40 -12z m56 -63 c4 -6 2 -14 -4 -16 -6 -2 -27 -14 -47 -28 -62 -42
-79 -21 -22 27 34 30 61 36 73 17z"/>
<path d="M3320 19287 c-8 -7 -26 -33 -39 -59 -13 -27 -29 -48 -35 -48 -6 0
-24 11 -40 25 -33 29 -49 31 -65 11 -16 -19 -3 -44 40 -81 l32 -26 -22 -38
c-32 -58 -25 -91 20 -91 7 0 40 45 65 88 1 2 22 -11 48 -28 45 -31 86 -37 93
-14 2 6 -19 35 -47 65 -27 29 -50 54 -50 56 0 1 11 27 25 58 20 43 23 59 15
75 -12 23 -19 24 -40 7z"/>
<path d="M5126 19268 c-63 -41 -126 -121 -126 -159 0 -44 31 -69 86 -69 39 0
49 5 79 37 l33 36 38 -31 c64 -53 109 -35 57 21 -49 53 -88 111 -85 126 4 16
-17 71 -27 71 -4 0 -29 -14 -55 -32z m30 -90 c-9 -12 -16 -33 -16 -45 0 -37
-61 -55 -68 -21 -4 19 13 39 61 75 36 27 45 23 23 -9z"/>
<path d="M2151 19229 c-11 -29 -21 -57 -21 -64 0 -7 -10 -25 -21 -39 -26 -34
-39 -21 -39 40 0 22 -6 49 -14 60 -15 19 -15 19 -36 -2 -16 -16 -22 -33 -22
-69 0 -53 19 -86 64 -113 35 -21 71 -5 100 45 20 33 23 34 32 18 31 -53 76
-73 76 -34 0 30 -29 138 -47 177 -23 48 -46 41 -72 -19z"/>
<path d="M7148 19214 c-32 -25 -58 -52 -58 -60 0 -8 -7 -14 -15 -14 -16 0 -37
-63 -28 -88 13 -36 36 -52 75 -52 21 0 38 3 38 8 0 4 11 19 24 33 13 14 29 42
36 62 16 42 23 40 45 -11 9 -20 24 -52 33 -71 28 -58 89 -61 65 -3 -102 247
-96 237 -128 239 -23 2 -44 -9 -87 -43z m11 -120 c-23 -25 -49 -32 -49 -13 0
6 15 25 33 41 27 26 33 28 35 13 2 -9 -6 -28 -19 -41z"/>
<path d="M2895 19220 c-22 -10 -51 -30 -64 -44 -28 -30 -47 -112 -29 -133 29
-35 87 -45 129 -22 11 5 32 28 48 49 26 37 29 38 44 22 8 -9 18 -27 21 -39 9
-28 86 -105 100 -100 24 8 15 40 -33 111 -28 41 -51 78 -51 81 0 4 -14 26 -30
51 -26 37 -36 44 -63 44 -18 -1 -50 -9 -72 -20z m55 -65 c0 -27 -22 -62 -50
-78 -38 -23 -42 -22 -38 15 2 24 12 38 37 55 39 27 51 29 51 8z"/>
<path d="M1786 19195 c-73 -39 -134 -89 -148 -121 -8 -18 -7 -31 7 -61 10 -21
25 -43 34 -50 22 -17 76 -16 111 2 29 15 30 15 36 -12 3 -16 8 -35 11 -43 7
-17 17 -80 33 -200 6 -46 18 -95 26 -108 21 -33 56 -26 66 13 73 295 77 315
55 334 -18 15 -44 -14 -53 -57 -4 -18 -11 -35 -15 -38 -5 -3 -9 -14 -9 -25 0
-10 -4 -19 -9 -19 -5 0 -16 42 -24 93 -24 138 -28 167 -29 229 -1 34 -8 64
-17 76 -16 20 -17 20 -75 -13z m14 -90 c0 -45 -55 -103 -86 -91 -24 9 -16 36
24 71 40 38 62 44 62 20z"/>
<path d="M2373 19203 c-19 -7 -16 -96 4 -138 17 -35 49 -48 58 -22 5 13 -19
138 -30 156 -7 12 -13 12 -32 4z"/>
<path d="M6363 18728 c-4 -7 -6 -65 -4 -129 l3 -116 -57 9 c-59 9 -79 1 -86
-36 -4 -15 -8 -14 -38 9 -19 14 -45 25 -58 25 -29 0 -113 -75 -113 -101 0 -29
-19 -33 -29 -6 -35 92 -194 143 -258 84 -19 -17 -21 -23 -10 -36 17 -20 23
-126 20 -349 l-2 -174 27 7 c15 4 29 9 32 12 3 2 6 69 8 148 4 123 7 145 21
149 9 3 42 10 74 16 59 12 97 37 97 65 0 22 18 18 25 -5 3 -11 12 -20 19 -20
7 0 26 -10 41 -21 15 -12 37 -23 50 -25 13 -1 29 -5 35 -9 6 -4 18 -1 26 6 8
6 17 9 21 6 10 -11 42 12 57 42 17 32 9 85 -19 128 l-17 26 51 -7 c86 -11 83
-9 79 -100 -3 -80 -3 -81 24 -90 15 -5 30 -8 32 -5 3 3 8 36 11 74 9 106 12
115 38 115 32 0 49 14 41 33 -4 11 -17 17 -35 17 -16 0 -29 2 -29 5 0 3 -5 49
-11 103 -14 130 -41 190 -66 150z m-454 -339 c26 -20 32 -31 26 -48 -7 -25
-44 -45 -97 -55 l-37 -7 -6 48 c-3 26 -8 58 -11 70 -2 12 1 23 7 25 26 9 87
-9 118 -33z m256 21 c29 -11 59 -71 50 -100 -7 -22 -61 -36 -100 -26 -23 6
-55 50 -55 76 0 16 47 60 64 60 8 0 26 -4 41 -10z"/>
<path d="M5058 18702 c-5 -18 6 -87 37 -237 13 -62 12 -71 -1 -82 -14 -10 -14
-14 0 -36 13 -19 14 -33 6 -75 -5 -28 -15 -60 -22 -71 -17 -27 1 -46 36 -37
19 5 28 17 37 46 7 22 15 40 18 40 3 0 19 -11 35 -25 15 -13 61 -41 101 -62
62 -31 75 -35 89 -24 19 16 6 46 -25 56 -51 16 -179 126 -179 153 0 10 53 53
123 101 47 32 54 44 38 69 -6 10 -24 3 -78 -28 -38 -22 -77 -40 -86 -40 -11 0
-20 15 -27 43 -6 23 -15 56 -20 72 -4 17 -11 47 -15 68 -9 56 -26 87 -45 87
-10 0 -20 -8 -22 -18z"/>
<path d="M7191 18706 c-8 -9 -5 -33 9 -84 11 -40 20 -87 20 -106 0 -32 -2 -34
-41 -39 -46 -6 -83 -35 -71 -55 5 -6 32 -18 60 -24 60 -15 59 -12 41 -133 -10
-68 -10 -79 5 -93 31 -31 49 -4 67 101 20 120 24 130 48 122 25 -8 71 11 71
30 0 18 -45 49 -60 40 -19 -12 -50 6 -50 28 0 30 -35 169 -48 194 -15 27 -38
35 -51 19z"/>
<path d="M8001 18697 l-23 -11 5 -235 c3 -130 8 -246 12 -257 8 -26 54 -49 68
-35 6 6 5 22 -2 43 -7 20 -13 131 -15 268 -1 129 -7 235 -12 236 -5 2 -20 -3
-33 -9z"/>
<path d="M7890 18690 c0 -5 -6 -10 -14 -10 -17 0 -26 -89 -28 -291 -2 -125 1
-151 16 -173 10 -16 24 -26 34 -24 14 3 17 25 19 193 1 105 5 207 8 227 5 39
-8 88 -25 88 -5 0 -10 -4 -10 -10z"/>
<path d="M2740 18675 c-7 -9 -9 -26 -5 -46 4 -18 8 -108 9 -199 1 -125 4 -171
15 -183 19 -24 103 -22 170 3 l54 19 21 -22 c48 -51 116 -88 182 -99 50 -7 68
-7 80 3 17 14 37 59 31 66 -3 2 -25 -2 -50 -8 -38 -11 -51 -10 -91 5 -76 29
-139 96 -91 96 24 0 134 39 161 57 49 32 10 123 -52 123 -34 0 -117 -63 -140
-105 -10 -19 -20 -35 -21 -35 -2 0 -18 17 -37 38 -30 33 -91 68 -147 85 -17 5
-29 64 -29 139 0 66 -30 99 -60 63z m444 -254 c8 -13 -14 -27 -53 -35 l-35 -6
24 25 c24 25 54 33 64 16z m-296 -35 c35 -18 66 -52 58 -65 -6 -9 -91 -31
-121 -31 -23 0 -20 86 3 99 23 14 28 13 60 -3z"/>
<path d="M4022 18674 c-5 -9 -6 -32 -1 -53 4 -20 10 -76 13 -125 l4 -88 -37 6
c-29 4 -42 2 -55 -12 -15 -17 -15 -20 1 -34 10 -9 33 -19 51 -23 17 -3 32 -10
33 -13 0 -4 2 -35 4 -70 3 -66 16 -92 46 -92 22 0 22 2 19 87 -2 73 -7 69 107
77 l81 6 -5 -72 c-5 -66 -3 -75 16 -92 37 -34 50 -7 54 112 4 99 5 104 30 117
14 7 28 11 30 8 10 -9 78 27 72 37 -10 16 -55 31 -68 23 -11 -6 -68 -5 -75 1
-1 2 -7 29 -12 62 -13 75 -26 104 -44 104 -20 0 -35 -58 -24 -88 14 -41 10
-82 -9 -83 -10 -1 -30 -2 -45 -3 -40 -3 -56 -21 -40 -46 15 -24 1 -33 -31 -21
-27 11 -37 47 -37 142 0 39 -7 69 -23 99 -26 49 -41 59 -55 34z"/>
<path d="M7453 18522 c-19 -12 -20 -53 -2 -64 11 -8 23 -6 43 7 24 16 25 20
13 39 -16 23 -36 30 -54 18z"/>
<path d="M2543 18475 c-22 -26 -32 -54 -42 -110 -16 -99 -39 -99 -90 3 -20 39
-51 56 -65 34 -11 -18 30 -110 65 -149 l38 -42 -15 -37 c-8 -20 -33 -75 -55
-122 -21 -46 -39 -89 -39 -93 0 -5 9 -13 21 -19 27 -15 34 -6 110 148 34 67
65 122 70 122 5 0 9 15 9 33 0 17 11 73 24 124 22 86 24 143 6 143 -5 0 -21
-16 -37 -35z"/>
<path d="M6901 18465 c-55 -63 -64 -90 -59 -183 4 -67 8 -88 23 -98 33 -24 44
-1 42 84 -2 60 2 86 18 116 26 52 38 54 63 14 34 -54 52 -119 52 -185 0 -60 1
-63 24 -63 33 0 39 13 39 79 -1 104 -67 238 -129 260 -41 15 -38 16 -73 -24z"/>
<path d="M2163 18433 c-51 -30 -65 -44 -82 -84 -30 -68 -27 -99 11 -138 66
-67 147 -70 216 -8 46 42 18 74 -38 42 -65 -37 -150 -6 -136 50 10 39 56 105
75 106 9 1 21 2 26 4 6 1 18 3 28 3 31 3 18 44 -18 56 -14 4 -41 -6 -82 -31z"/>
<path d="M3774 18421 c-115 -92 -144 -147 -113 -215 11 -24 53 -46 87 -46 21
0 72 49 72 69 0 9 7 25 15 36 15 19 17 17 61 -33 51 -59 75 -75 98 -66 25 10
19 26 -25 69 -54 51 -100 147 -92 187 6 29 -7 48 -32 48 -5 -1 -37 -23 -71
-49z m4 -154 c-18 -32 -29 -42 -48 -42 -52 0 -23 87 40 120 23 12 25 12 28
-11 2 -13 -7 -43 -20 -67z"/>
<path d="M6595 18455 c-51 -18 -105 -76 -105 -112 0 -42 33 -88 86 -119 79
-47 222 -42 232 7 2 13 -12 17 -79 23 -45 4 -86 9 -91 12 -4 3 19 26 53 51 33
25 63 52 66 59 7 19 -25 68 -55 82 -33 15 -57 15 -107 -3z m93 -66 c2 -11 -11
-21 -40 -32 -60 -23 -88 -22 -88 3 0 41 121 68 128 29z"/>
<path d="M3377 18408 c-47 -51 -49 -54 -44 -99 7 -58 35 -116 58 -122 27 -7
31 6 24 66 -8 64 8 134 33 141 9 3 43 5 74 5 61 0 78 5 78 25 0 18 -59 36
-120 36 -52 0 -56 -2 -103 -52z"/>
<path d="M8383 18454 c-6 -3 -28 -38 -49 -77 -51 -100 -51 -100 -83 -78 -14
11 -41 34 -60 51 -25 23 -41 30 -64 28 -59 -6 -49 -23 71 -130 l53 -47 -52
-83 c-28 -46 -73 -112 -99 -148 -76 -104 -83 -132 -39 -143 18 -5 37 14 74 74
6 9 33 50 60 91 28 40 61 95 75 121 14 27 33 57 43 67 9 11 17 27 17 37 0 10
7 32 16 48 30 57 64 149 64 172 0 23 -4 26 -27 17z"/>
<path d="M4605 18433 c-117 -63 -183 -150 -154 -205 16 -29 71 -56 106 -51 35
6 103 64 103 88 0 24 14 17 37 -19 12 -18 35 -38 52 -44 26 -9 33 -8 44 9 14
19 14 19 32 -1 22 -25 75 -40 138 -40 39 0 53 5 82 32 45 41 44 52 -2 43 -49
-9 -114 -9 -148 -1 -24 6 -27 10 -21 38 10 50 51 96 89 100 28 3 32 6 32 33 0
18 -5 30 -12 29 -7 -1 -29 -2 -48 -2 -57 -3 -123 -84 -132 -163 l-6 -53 -29
35 c-16 19 -43 63 -59 99 -26 58 -52 91 -68 90 -3 -1 -19 -8 -36 -17z m19
-100 c-11 -59 -21 -81 -48 -98 -19 -13 -29 -14 -45 -5 -42 22 -15 87 50 121
48 24 51 23 43 -18z"/>
<path d="M1428 18370 c-103 -93 -132 -153 -103 -210 23 -44 82 -59 134 -35 23
10 52 35 67 57 l27 39 41 -45 c23 -25 53 -48 69 -52 24 -5 27 -3 27 19 0 14
-6 30 -14 34 -20 12 -74 101 -81 135 -4 17 -16 50 -26 74 -29 64 -56 61 -141
-16z m80 -65 c2 -15 -4 -47 -12 -70 -17 -44 -47 -65 -91 -65 -47 0 -25 68 45
138 37 38 54 37 58 -3z"/>
<path d="M7680 18397 c-69 -30 -170 -119 -170 -148 0 -24 64 -69 97 -69 17 0
44 13 67 31 l38 32 38 -22 c40 -22 70 -20 70 6 0 9 -18 34 -41 56 -36 37 -40
44 -34 77 9 52 -8 62 -65 37z m-17 -97 c-5 -20 -48 -60 -64 -60 -20 0 -7 41
16 52 14 6 25 15 25 20 0 4 6 8 14 8 9 0 12 -7 9 -20z"/>
<path d="M7430 18260 c-24 -47 -25 -73 -4 -91 21 -17 48 0 51 32 3 37 -8 99
-18 99 -5 0 -18 -18 -29 -40z"/>
<path d="M4722 17977 c-8 -9 -8 -32 -2 -77 5 -36 12 -93 16 -127 l6 -63 -31 0
c-37 0 -98 -29 -125 -59 -15 -16 -17 -29 -12 -65 9 -60 42 -107 96 -133 57
-29 87 -29 132 2 20 14 41 25 45 25 11 0 36 39 45 68 6 20 3 22 -20 20 -24 -3
-27 1 -33 37 -3 22 -13 59 -22 82 -9 23 -21 89 -27 145 -6 57 -15 114 -18 128
-8 28 -34 37 -50 17z m26 -350 c6 -6 14 -26 17 -42 4 -17 14 -35 22 -42 40
-31 -27 -61 -84 -38 -35 15 -66 64 -61 98 4 31 85 50 106 24z"/>
<path d="M6704 17896 c-3 -13 -1 -58 5 -100 6 -43 11 -96 11 -118 0 -38 -1
-40 -25 -34 -43 11 -106 -34 -131 -93 -27 -66 -12 -104 54 -139 33 -17 46 -19
83 -11 71 16 147 96 106 112 -13 5 -19 67 -31 302 -4 77 -15 105 -42 105 -16
0 -25 -7 -30 -24z m-11 -333 c8 -10 19 -30 22 -46 4 -15 12 -30 17 -33 17 -10
-14 -24 -54 -24 -26 0 -41 6 -52 21 -16 24 -12 44 17 77 25 27 29 27 50 5z"/>
<path d="M6159 17889 c-19 -19 -21 -30 -17 -100 3 -75 2 -79 -18 -79 -56 0
-54 -60 2 -70 26 -5 29 -9 32 -50 2 -24 -2 -64 -9 -87 -13 -48 -2 -73 33 -73
28 0 48 57 48 135 l0 67 40 -3 c48 -4 53 1 41 34 -7 18 -22 30 -50 38 -32 10
-42 18 -49 43 -9 30 -10 92 -1 100 2 2 24 1 49 -4 25 -5 46 -7 48 -5 10 9 -21
44 -52 59 -46 22 -72 20 -97 -5z"/>
<path d="M8521 17886 c-8 -9 -10 -24 -7 -33 12 -31 46 -356 46 -441 0 -67 3
-84 16 -89 9 -3 24 -2 33 4 13 9 15 27 13 109 -6 158 -10 215 -21 279 -6 33
-14 87 -18 120 -7 50 -11 60 -29 63 -11 2 -26 -4 -33 -12z"/>
<path d="M7662 17823 c-10 -4 -11 -26 -6 -96 4 -51 3 -89 -1 -85 -10 9 -65
-22 -65 -37 0 -18 23 -35 47 -35 22 0 23 -3 23 -73 0 -68 2 -75 25 -87 14 -7
28 -11 31 -7 3 3 8 42 11 86 l6 81 31 5 c17 2 42 6 56 7 19 2 26 10 28 29 3
25 0 27 -57 33 -34 4 -61 8 -62 9 0 1 -2 29 -5 62 -7 96 -23 124 -62 108z"/>
<path d="M3842 17808 c-7 -7 -12 -18 -12 -25 0 -18 37 -35 60 -28 35 11 18 65
-20 65 -9 0 -21 -5 -28 -12z"/>
<path d="M6439 17768 c-10 -18 -8 -24 11 -40 12 -10 26 -18 31 -18 16 0 27 35
18 58 -11 28 -45 29 -60 0z"/>
<path d="M4105 17771 c-16 -3 -49 -16 -72 -29 -36 -18 -43 -27 -43 -52 0 -23
10 -37 47 -67 26 -21 60 -51 76 -66 l30 -28 -20 -21 c-26 -25 -52 -18 -75 22
-9 16 -21 30 -26 30 -17 0 -21 -64 -5 -88 17 -28 85 -60 91 -43 2 6 12 11 22
11 30 0 60 33 67 72 5 33 2 41 -28 70 -19 19 -52 48 -74 65 -45 36 -40 53 17
59 65 7 78 13 78 38 0 34 -21 40 -85 27z"/>
<path d="M2797 17716 c-47 -46 -56 -84 -45 -171 9 -68 28 -105 54 -105 19 0
22 18 16 96 -6 86 1 120 28 134 11 6 61 13 112 16 87 4 130 17 97 28 -37 13
-100 25 -160 31 -67 6 -67 6 -102 -29z"/>
<path d="M3460 17720 c-11 -11 -26 -20 -32 -20 -7 0 -21 -6 -30 -13 -15 -12
-16 -25 -8 -117 6 -64 14 -107 22 -112 22 -14 43 -4 46 22 5 43 34 165 42 173
4 5 22 -15 39 -43 39 -63 58 -63 89 3 36 75 66 60 84 -45 12 -70 26 -92 51
-82 24 9 22 66 -4 134 -39 103 -100 138 -149 85 -30 -32 -40 -31 -75 5 -34 35
-48 37 -75 10z"/>
<path d="M4302 17708 c-17 -13 -35 -32 -38 -43 -4 -11 -12 -27 -19 -35 -18
-22 -27 -130 -12 -160 20 -41 72 -69 115 -64 101 14 152 42 152 84 0 12 -56 4
-75 -10 -5 -4 -29 -11 -53 -15 -52 -8 -82 12 -82 55 0 24 5 29 35 34 20 4 39
4 44 1 17 -10 101 55 102 78 4 65 -26 97 -90 97 -32 0 -56 -7 -79 -22z m116
-55 c4 -25 -15 -36 -80 -46 -32 -5 -38 -3 -38 12 0 33 39 62 78 59 30 -2 38
-8 40 -25z"/>
<path d="M7950 17705 c-19 -20 -21 -27 -10 -40 20 -24 44 -18 59 16 12 27 12
33 0 40 -20 13 -23 12 -49 -16z"/>
<path d="M3830 17705 c-9 -10 -9 -23 -2 -47 11 -35 24 -130 26 -188 1 -38 25
-52 52 -29 17 14 15 105 -5 193 -20 83 -42 106 -71 71z"/>
<path d="M5315 17708 c-27 -9 -52 -27 -117 -79 -11 -9 -24 -36 -29 -63 -12
-67 8 -105 79 -152 52 -35 57 -37 96 -26 77 20 95 31 102 57 9 37 2 39 -46 14
-41 -22 -42 -22 -95 -4 -144 49 -71 192 102 199 43 2 58 17 44 45 -10 17 -21
21 -59 20 -26 0 -60 -5 -77 -11z"/>
<path d="M6982 17704 c-26 -18 -62 -84 -62 -114 0 -11 -4 -20 -10 -20 -6 0
-10 -26 -10 -57 0 -53 3 -61 36 -92 30 -30 43 -35 94 -39 50 -4 66 0 103 22
25 14 48 33 51 42 8 20 -11 44 -22 29 -13 -20 -63 -35 -112 -35 -41 0 -52 4
-69 26 -29 37 -26 44 15 44 20 0 48 6 62 14 15 7 50 25 77 39 44 23 50 30 47
54 -5 46 -88 103 -149 103 -16 0 -39 -7 -51 -16z m90 -48 c23 -13 44 -28 46
-34 3 -11 -91 -42 -128 -42 -17 0 -20 4 -15 23 4 12 12 27 19 32 7 6 15 18 19
28 8 22 8 22 59 -7z"/>
<path d="M3156 17700 c-63 -19 -101 -80 -93 -149 6 -56 29 -76 104 -91 73 -16
119 -7 155 26 56 54 30 147 -55 197 -48 28 -64 31 -111 17z m106 -77 c38 -44
27 -92 -28 -121 -46 -24 -103 17 -104 74 0 50 99 85 132 47z"/>
<path d="M1387 17673 c-37 -26 -50 -53 -63 -135 -13 -78 52 -123 161 -112 35
4 70 13 76 20 13 16 6 19 -61 28 -82 12 -108 24 -115 57 -5 21 -1 39 14 63 26
41 37 46 106 46 56 0 80 15 69 44 -5 13 -21 16 -78 16 -61 0 -77 -4 -109 -27z"/>
<path d="M2192 17667 c-12 -13 -22 -30 -22 -37 0 -9 -6 -6 -15 7 -9 13 -34 28
-55 34 -40 12 -45 11 -110 -21 -27 -13 -4 -178 25 -181 8 -1 20 -2 27 -3 8 -1
12 21 13 69 0 68 1 70 25 70 18 0 29 -9 42 -34 34 -68 71 -77 83 -20 9 40 23
45 36 12 39 -104 99 -170 99 -107 0 49 -91 234 -116 234 -6 0 -20 -10 -32 -23z"/>
<path d="M2418 17658 c-43 -39 -62 -76 -48 -93 7 -8 19 -15 26 -15 9 0 14 -11
14 -30 0 -17 7 -45 16 -61 21 -41 54 -193 54 -252 0 -52 18 -70 46 -46 18 14
13 85 -12 194 -18 78 -19 75 17 75 38 0 65 13 107 53 39 37 41 71 8 116 -44
59 -83 81 -146 81 -45 0 -62 -5 -82 -22z m169 -77 c12 -14 22 -30 22 -36 0
-23 -37 -52 -76 -58 l-42 -7 -16 56 c-22 77 -17 87 42 78 34 -4 54 -14 70 -33z"/>
<path d="M7353 17654 c-24 -14 -43 -30 -43 -35 0 -6 -8 -8 -18 -5 -11 4 -25
-1 -35 -11 -14 -17 -14 -25 4 -104 22 -96 38 -125 62 -116 12 5 16 23 16 87 1
101 15 134 58 138 18 2 41 -2 53 -8 26 -14 65 -92 75 -148 6 -39 9 -43 33 -40
22 2 28 9 30 36 2 19 -5 52 -16 75 -11 23 -22 51 -26 63 -9 29 -55 69 -95 83
-46 15 -50 14 -98 -15z"/>
<path d="M1717 17646 c-26 -24 -31 -38 -41 -108 -4 -30 1 -45 25 -77 16 -23
30 -41 32 -41 1 0 35 9 76 19 121 32 149 79 91 158 -53 72 -135 94 -183 49z
m129 -73 c23 -30 13 -55 -30 -70 -57 -19 -76 -10 -76 36 0 20 6 43 13 50 16
17 75 7 93 -16z"/>
<path d="M8221 17647 c-70 -46 -81 -54 -131 -100 -64 -59 -68 -96 -16 -146 33
-32 38 -34 85 -28 62 7 94 30 119 81 l19 40 17 -35 c24 -49 38 -65 64 -73 35
-11 62 2 62 30 0 15 -4 23 -11 19 -5 -4 -20 1 -31 12 -21 19 -68 115 -68 140
0 8 -7 30 -16 49 -19 41 -44 44 -93 11z m20 -114 c-21 -81 -87 -129 -121 -88
-10 13 -11 20 -1 38 14 24 122 110 129 102 3 -2 -1 -26 -7 -52z"/>
<path d="M5843 17615 l-43 -44 11 -78 c11 -77 20 -95 49 -90 11 2 16 19 18 71
2 72 20 116 47 116 20 0 55 -58 55 -90 0 -43 11 -67 35 -78 21 -10 23 -8 29
20 9 45 -11 109 -53 164 -30 40 -43 49 -71 51 -30 2 -42 -4 -77 -42z"/>
<path d="M6413 17643 c-5 -10 -8 -38 -7 -63 3 -120 3 -120 22 -120 10 0 23 5
30 12 14 14 16 126 2 162 -11 30 -36 34 -47 9z"/>
<path d="M5579 17617 c-39 -26 -66 -89 -55 -130 9 -38 57 -60 108 -52 51 9
118 67 118 102 0 46 -27 82 -68 88 -20 4 -44 9 -53 11 -9 2 -31 -6 -50 -19z
m101 -63 c0 -34 -20 -54 -55 -54 -39 0 -44 13 -19 48 18 26 74 31 74 6z"/>
<path d="M7945 17510 c-24 -46 -30 -113 -12 -128 39 -33 64 22 59 131 -3 36
-27 35 -47 -3z"/>
<path d="M3702 17217 c-7 -8 -8 -26 -2 -52 5 -22 10 -64 10 -93 l0 -52 -55 6
c-45 6 -56 4 -61 -10 -10 -25 13 -44 62 -52 l44 -6 -6 -78 c-6 -70 -5 -79 15
-99 33 -33 41 -26 41 37 0 100 9 132 39 138 53 12 62 16 59 26 -2 6 -19 16
-38 22 l-35 11 -6 82 c-8 104 -37 156 -67 120z"/>
<path d="M7498 17185 c-5 -5 0 -277 6 -330 4 -40 18 -65 36 -65 10 0 20 6 23
13 7 20 -5 131 -16 145 -5 6 -6 12 -1 12 5 0 7 47 4 105 -4 79 -9 108 -20 115
-17 11 -25 12 -32 5z"/>
<path d="M5760 17161 c-7 -14 -6 -30 3 -58 8 -22 15 -94 16 -173 2 -115 5
-138 21 -154 18 -18 18 -18 33 5 12 18 14 33 7 64 -5 22 -11 89 -14 149 -7
115 -13 153 -29 174 -13 17 -25 15 -37 -7z"/>
<path d="M7374 17143 c-10 -39 -10 -108 0 -243 8 -113 18 -160 33 -160 17 0
35 18 29 28 -6 9 -17 196 -20 332 -1 52 -4 65 -18 68 -12 2 -20 -5 -24 -25z"/>
<path d="M5200 17139 c-6 -11 -11 -49 -11 -85 l0 -64 -49 0 c-27 0 -51 -4 -55
-9 -8 -14 49 -51 79 -51 28 0 31 -8 39 -94 5 -49 27 -84 46 -72 6 4 11 40 11
86 l0 79 48 6 c26 3 53 7 60 8 34 5 7 23 -52 36 l-66 14 0 53 c0 66 11 71 110
45 80 -21 95 -20 81 8 -11 20 -141 61 -195 61 -25 0 -38 -6 -46 -21z"/>
<path d="M6365 17155 c-5 -2 -36 -11 -67 -20 -60 -18 -78 -39 -54 -63 13 -14
19 -14 53 1 45 18 115 28 133 17 17 -10 -33 -48 -76 -56 -20 -4 -34 -12 -34
-20 0 -16 56 -68 101 -96 15 -9 33 -26 38 -37 10 -18 6 -22 -36 -41 -27 -12
-68 -23 -93 -26 -74 -9 -90 -14 -90 -28 0 -32 132 -31 210 1 90 38 92 71 10
146 l-61 55 35 20 c37 22 69 72 61 94 -11 28 -100 64 -130 53z"/>
<path d="M2005 17120 c-46 -21 -53 -38 -54 -128 l-1 -62 -40 6 c-73 12 -63
-46 13 -72 30 -10 33 -15 46 -85 7 -41 15 -84 17 -96 5 -27 41 -50 56 -35 6 6
6 42 -1 101 -15 120 -12 125 75 126 42 0 69 4 71 12 7 20 -37 36 -103 36 -61
1 -62 1 -68 30 -19 92 -2 117 79 119 52 1 60 20 18 41 -48 25 -67 26 -108 7z"/>
<path d="M6077 17134 c-3 -4 -3 -41 0 -84 7 -88 2 -95 -57 -85 -38 6 -38 7
-32 43 3 20 6 51 7 67 0 25 -4 30 -24 30 -22 0 -26 -7 -37 -60 -26 -122 -15
-142 80 -144 33 0 61 -3 64 -5 2 -3 4 -34 3 -69 -1 -52 3 -67 19 -82 18 -17
22 -17 35 -4 12 11 13 25 7 59 -11 68 -5 88 33 104 27 12 32 18 28 40 -5 22
-10 25 -36 23 l-31 -2 -11 85 c-7 63 -14 86 -25 88 -9 1 -19 0 -23 -4z"/>
<path d="M1455 17094 c-25 -19 -10 -48 29 -52 22 -3 26 1 26 20 0 22 -16 48
-29 48 -4 0 -15 -7 -26 -16z"/>
<path d="M3910 17075 c-16 -19 0 -41 35 -47 30 -6 38 13 19 41 -18 25 -37 27
-54 6z"/>
<path d="M7250 17061 c0 -10 7 -25 16 -32 14 -11 18 -10 29 5 18 24 8 46 -21
46 -17 0 -24 -6 -24 -19z"/>
<path d="M7645 17040 c-12 -19 5 -48 32 -54 34 -9 40 0 22 32 -16 29 -43 40
-54 22z"/>
<path d="M2659 17003 c-40 -6 -99 -62 -118 -113 -24 -64 -10 -164 26 -187 21
-14 26 -14 39 -1 13 12 14 27 6 84 -11 80 -6 97 40 141 28 27 41 32 92 35 33
2 61 8 63 14 7 20 -83 36 -148 27z"/>
<path d="M4340 16989 c-10 -22 -9 -37 4 -82 9 -31 16 -60 15 -64 -1 -4 -1 -20
0 -35 1 -24 5 -28 30 -28 24 0 31 5 36 29 3 15 5 32 3 37 -7 28 42 104 68 104
18 0 40 -40 61 -111 17 -56 22 -64 46 -67 24 -3 27 0 27 25 0 41 -37 131 -72
175 -41 52 -83 53 -127 3 -33 -38 -41 -42 -41 -21 0 8 -9 24 -19 37 l-19 24
-12 -26z"/>
<path d="M6845 17001 l-30 -6 -10 -113 c-10 -110 -10 -114 12 -133 l21 -21 11
20 c6 12 11 42 11 69 0 62 17 123 36 130 20 8 37 -10 73 -80 41 -79 40 -77 56
-70 10 3 15 19 15 44 0 37 26 79 48 79 25 0 46 -44 47 -99 1 -31 7 -66 13 -77
12 -19 12 -19 27 0 21 28 19 92 -6 142 -24 51 -36 62 -76 70 -25 5 -36 0 -61
-24 -28 -27 -32 -28 -37 -12 -3 9 -21 34 -41 54 -35 36 -50 40 -109 27z"/>
<path d="M4140 16987 c-33 -17 -70 -84 -70 -129 0 -29 6 -41 24 -53 13 -9 28
-15 32 -14 5 2 27 -3 50 -10 36 -12 46 -11 77 4 61 29 89 93 62 146 -31 59
-115 86 -175 56z m100 -57 c30 -22 30 -68 0 -92 -61 -49 -131 23 -85 89 18 25
54 27 85 3z"/>
<path d="M2887 16955 c-17 -24 -38 -34 -36 -17 7 42 -13 41 -36 -2 -14 -25
-16 -38 -8 -48 6 -7 14 -41 18 -75 4 -41 13 -67 26 -79 24 -22 28 -18 34 40 6
65 26 126 40 126 15 0 39 -34 50 -70 20 -63 69 -55 79 12 7 45 35 88 58 88 21
0 52 -61 59 -118 4 -30 14 -61 23 -70 16 -16 18 -16 32 3 9 11 12 29 9 40 -4
11 -13 42 -21 69 -19 67 -53 114 -87 122 -29 6 -42 -4 -94 -69 l-21 -27 -22
35 c-22 36 -56 65 -75 65 -5 0 -18 -12 -28 -25z"/>
<path d="M3425 16970 c-33 -13 -135 -115 -135 -135 0 -28 50 -79 84 -87 41 -9
76 13 100 63 11 21 23 39 27 39 4 0 17 -14 29 -31 27 -37 69 -56 82 -37 12 19
12 19 -38 73 -25 28 -57 67 -71 88 -26 37 -41 43 -78 27z m-16 -153 c-19 -15
-24 -16 -37 -4 -18 19 -1 54 31 66 19 7 23 5 25 -17 3 -18 -3 -32 -19 -45z"/>
<path d="M4910 16964 c-34 -24 -40 -34 -40 -72 0 -41 25 -92 46 -92 11 0 14
-5 10 -16 -11 -28 13 -44 63 -44 69 0 86 8 110 50 35 62 23 100 -44 149 -54
39 -111 49 -145 25z m131 -63 c36 -37 37 -63 2 -96 -21 -19 -38 -25 -68 -24
-23 1 -30 4 -17 6 28 5 30 39 2 46 -11 3 -25 17 -31 31 -10 22 -9 29 6 46 27
29 71 26 106 -9z"/>
<path d="M8140 16973 c-8 -3 -23 -13 -33 -21 -10 -9 -30 -16 -45 -17 -30 0
-31 -8 -14 -80 6 -22 13 -61 17 -87 4 -35 11 -49 27 -54 27 -8 40 13 31 51
-16 75 12 155 53 155 13 0 38 -15 57 -33 27 -25 37 -44 42 -80 8 -52 35 -94
53 -83 19 12 14 85 -9 132 -43 86 -125 139 -179 117z"/>
<path d="M1475 16943 c-12 -27 -5 -154 10 -190 13 -31 46 -45 59 -25 6 11 -13
183 -24 210 -11 26 -35 29 -45 5z"/>
<path d="M7210 16945 c-11 -13 -11 -18 -1 -25 16 -9 33 -94 25 -126 -9 -37 4
-76 24 -72 25 5 32 102 12 176 -16 60 -36 76 -60 47z"/>
<path d="M7822 16939 c-12 -5 -28 -21 -36 -38 -60 -115 69 -254 148 -160 48
56 47 105 -4 163 -31 35 -72 48 -108 35z m65 -61 c31 -35 33 -52 12 -87 -14
-23 -26 -31 -40 -29 -35 5 -35 138 0 138 4 0 17 -10 28 -22z"/>
<path d="M7626 16925 c-7 -20 -6 -119 3 -160 4 -22 13 -31 30 -33 l24 -4 -8
74 c-4 40 -8 86 -9 103 -1 33 -29 47 -40 20z"/>
<path d="M2263 16920 c-47 -19 -74 -94 -57 -156 6 -24 64 -50 128 -58 34 -4
43 -1 73 29 28 28 33 40 33 82 0 41 -5 54 -30 78 -32 31 -105 43 -147 25z
m115 -103 c3 -43 1 -48 -24 -57 -33 -13 -87 15 -92 47 -5 35 33 65 76 61 37
-3 37 -4 40 -51z"/>
<path d="M3942 16918 c-13 -16 -18 -84 -8 -115 8 -24 35 -38 48 -25 5 5 8 40
6 78 -2 53 -7 69 -19 72 -9 1 -21 -3 -27 -10z"/>
<path d="M1690 16885 c-31 -23 -36 -24 -46 -10 -10 13 -14 12 -28 -10 -14 -22
-15 -34 -7 -81 18 -96 31 -133 50 -144 26 -13 31 4 31 99 0 63 4 81 18 94 10
10 23 17 29 17 26 0 66 -70 79 -140 8 -37 38 -85 57 -88 22 -5 22 14 -4 110
-17 63 -30 88 -66 128 -25 28 -53 50 -62 50 -9 0 -33 -11 -51 -25z"/>
<path d="M1616 16278 c-2 -13 -9 -70 -15 -128 -6 -58 -15 -118 -20 -135 -5
-16 -16 -53 -25 -81 -20 -64 -20 -78 -1 -94 12 -10 18 -5 34 32 10 24 22 58
25 75 9 40 22 51 73 59 39 6 42 4 57 -24 9 -17 16 -38 16 -47 0 -20 38 -57 50
-50 15 10 12 42 -9 83 -13 26 -16 43 -10 54 7 12 5 19 -7 26 -8 5 -22 20 -29
33 -25 44 -55 111 -55 122 0 21 -51 97 -65 97 -8 0 -17 -10 -19 -22z m68 -161
c22 -57 20 -67 -8 -67 -26 0 -35 26 -27 83 5 38 16 34 35 -16z"/>
<path d="M2855 16269 c-7 -22 28 -69 52 -69 17 0 16 9 -2 54 -17 40 -40 47
-50 15z"/>
<path d="M3985 16233 c-49 -11 -74 -27 -86 -56 -8 -18 -12 -38 -11 -45 5 -23
44 -60 76 -73 74 -30 111 -77 70 -93 -29 -11 -48 -6 -75 20 l-27 26 -12 -23
c-11 -20 -9 -26 24 -56 40 -37 63 -40 106 -18 53 28 67 87 28 122 -13 11 -43
31 -68 45 -25 14 -53 35 -63 46 -18 19 -18 20 5 36 13 9 40 19 61 23 43 7 54
18 37 38 -12 15 -27 17 -65 8z"/>
<path d="M3460 16209 c0 -6 -9 -8 -20 -4 -42 13 -147 -79 -169 -148 -16 -46 0
-83 46 -110 28 -16 37 -17 75 -6 54 16 68 26 85 67 7 17 16 32 18 32 3 0 21
-16 40 -36 33 -33 38 -35 78 -29 23 4 45 9 50 12 4 2 7 29 7 59 0 54 21 124
37 124 16 0 53 -31 53 -44 0 -8 6 -19 14 -25 8 -7 22 -45 31 -86 11 -52 21
-75 31 -75 23 0 27 24 14 84 -16 78 -66 175 -97 187 -39 15 -71 10 -87 -12 -8
-12 -19 -18 -26 -14 -23 14 -38 -14 -29 -53 10 -44 12 -106 3 -115 -22 -22
-77 52 -94 128 -6 27 -16 55 -22 62 -13 16 -38 17 -38 2z m0 -89 c0 -42 -27
-107 -54 -129 -24 -20 -68 -9 -86 21 -14 27 -14 29 25 69 38 40 92 79 108 79
4 0 7 -18 7 -40z"/>
<path d="M3120 16172 c-83 -41 -118 -149 -66 -201 36 -36 112 -37 150 -2 32
30 25 42 -17 30 -38 -11 -81 -4 -98 17 -9 12 -9 23 1 54 10 31 22 44 52 57 29
13 38 22 36 37 -4 27 -17 29 -58 8z"/>
<path d="M1900 16143 l-39 -38 11 -85 c11 -88 25 -117 52 -107 13 5 15 18 10
81 -7 81 0 126 19 126 23 0 75 -64 88 -109 21 -69 59 -66 59 6 0 32 35 103 51
103 4 0 18 -31 30 -69 22 -74 42 -102 61 -83 7 7 4 32 -12 86 -38 128 -80 149
-127 66 -15 -27 -32 -48 -38 -47 -5 2 -22 21 -36 42 -23 34 -61 64 -82 65 -4
0 -25 -17 -47 -37z"/>
<path d="M2395 16165 c-5 -2 -23 -6 -38 -9 -34 -8 -57 -55 -57 -115 0 -33 7
-47 35 -76 l36 -35 114 0 c94 0 115 3 115 14 0 23 -16 28 -118 35 -52 3 -97
11 -99 16 -1 6 17 18 41 28 53 22 126 76 126 94 0 31 -39 53 -92 52 -29 0 -57
-2 -63 -4z m85 -55 c0 -11 -36 -28 -87 -40 -28 -7 -33 -5 -33 11 0 10 8 23 18
28 22 14 102 14 102 1z"/>
<path d="M2694 16134 c-19 -19 -34 -40 -34 -45 0 -5 -9 -4 -20 3 -37 23 -43
-1 -21 -87 11 -43 24 -82 29 -87 16 -16 39 30 46 90 12 95 39 123 101 108 20
-5 25 -3 25 13 0 15 -10 23 -37 30 -53 15 -52 15 -89 -25z"/>
<path d="M2860 16118 c0 -47 22 -153 33 -165 8 -8 17 -9 27 -3 13 8 12 17 -3
74 -9 35 -17 76 -17 90 0 19 -5 26 -20 26 -14 0 -20 -7 -20 -22z"/>
<path d="M4253 16018 c-6 -7 -13 -26 -15 -41 -6 -33 16 -49 50 -36 18 7 23 15
20 35 -4 34 -40 61 -55 42z"/>
<path d="M4740 15500 c-11 -26 -11 -38 -1 -64 30 -73 42 -126 50 -221 11 -126
0 -250 -33 -385 -30 -120 -31 -143 -12 -159 17 -14 41 11 32 35 -3 8 -1 24 4
34 6 11 24 72 40 137 35 136 40 274 16 428 -13 85 -22 112 -65 194 l-18 33
-13 -32z"/>
<path d="M4392 14240 c-7 -12 -11 -24 -8 -28 6 -10 18 -241 16 -313 -1 -53 15
-89 39 -89 11 0 31 47 31 71 0 28 29 69 50 69 28 0 70 -65 70 -109 0 -10 9
-29 19 -42 19 -23 21 -23 37 -7 16 16 17 23 6 60 -7 24 -14 48 -15 53 -6 25
-51 87 -77 105 -27 19 -31 20 -66 5 -20 -8 -39 -13 -42 -10 -3 2 -6 55 -8 117
-2 62 -3 119 -4 126 0 19 -34 14 -48 -8z"/>
<path d="M2837 14223 c-3 -5 1 -41 9 -81 8 -41 16 -128 19 -195 3 -67 8 -123
10 -126 3 -2 0 -10 -6 -17 -21 -26 -2 -60 41 -73 35 -10 45 -9 87 11 57 28 83
61 90 117 5 35 2 46 -18 67 -30 32 -63 49 -110 58 l-37 6 -6 68 c-4 37 -12 91
-18 120 -10 44 -15 52 -34 52 -13 0 -25 -3 -27 -7z m171 -319 c38 -26 27 -72
-25 -107 -24 -15 -47 -25 -53 -22 -5 3 -10 37 -10 76 l0 69 33 0 c18 0 43 -7
55 -16z"/>
<path d="M1803 14205 c-3 -9 0 -42 6 -74 14 -70 18 -113 27 -259 7 -107 8
-113 28 -110 18 3 22 12 28 77 8 81 19 101 53 101 44 0 78 -63 78 -143 -1 -47
3 -59 18 -68 25 -13 34 7 34 76 0 106 -80 203 -157 190 -41 -7 -41 -7 -52 115
-2 30 -10 67 -17 83 -13 30 -36 36 -46 12z"/>
<path d="M1540 14189 c-59 -10 -123 -38 -124 -54 -1 -21 53 -37 87 -26 18 5
53 13 79 16 l46 7 4 -59 c2 -32 0 -104 -6 -160 -10 -105 -4 -133 30 -133 23 0
34 44 36 148 2 91 -9 153 -34 188 -11 15 29 31 70 28 41 -3 48 9 17 30 -32 21
-132 28 -205 15z"/>
<path d="M4932 14067 c-17 -20 5 -124 42 -200 39 -79 60 -84 108 -28 19 23 38
41 41 41 4 0 18 -23 32 -51 40 -77 58 -68 122 61 59 119 64 140 30 140 -18 0
-31 -15 -60 -63 -20 -35 -37 -69 -37 -75 0 -28 -21 -19 -35 15 -14 33 -46 73
-59 73 -2 0 -18 -22 -36 -50 -47 -74 -50 -72 -85 65 -20 81 -39 102 -63 72z"/>
<path d="M5754 14044 c-46 -16 -88 -66 -79 -92 11 -32 42 -61 90 -84 58 -28
65 -42 28 -56 -86 -34 -138 -19 -170 49 -44 93 -97 109 -132 40 -20 -38 -45
-64 -73 -74 -24 -9 -28 3 -13 39 17 41 77 86 123 93 31 5 37 10 37 31 0 23 -3
25 -42 23 -109 -5 -218 -144 -169 -218 34 -51 94 -39 155 30 38 43 51 41 86
-15 18 -29 32 -40 50 -40 14 0 25 -4 25 -9 0 -5 16 -15 36 -21 29 -10 49 -10
90 -1 44 10 57 18 75 47 19 32 20 36 6 58 -9 13 -45 40 -81 60 -37 20 -66 43
-66 50 0 8 17 21 38 29 60 26 66 31 53 56 -13 24 -13 24 -67 5z"/>
<path d="M4234 14031 c-74 -34 -118 -116 -90 -170 38 -72 132 -86 194 -29 33
32 27 41 -20 32 -81 -14 -118 -1 -118 40 0 25 30 56 78 80 23 12 32 23 32 41
0 31 -19 32 -76 6z"/>
<path d="M2240 14022 c-76 -10 -109 -45 -117 -126 -5 -46 -2 -55 22 -84 15
-18 41 -40 57 -48 41 -21 131 -21 163 0 43 28 26 41 -53 41 -43 0 -76 5 -83
12 -7 7 -11 14 -8 16 2 1 25 20 52 41 41 33 47 42 46 74 0 44 -39 80 -79 74z
m45 -62 c16 -25 -67 -89 -100 -76 -11 4 -12 12 -4 38 5 18 9 34 9 35 0 12 88
15 95 3z"/>
<path d="M3462 14020 c-34 -14 -82 -97 -82 -142 0 -46 20 -96 48 -121 47 -43
151 -30 210 26 53 51 34 80 -23 35 -49 -38 -165 -34 -165 7 0 9 23 20 60 31
74 21 104 52 94 98 -13 61 -79 91 -142 66z m92 -59 c16 -17 16 -20 1 -35 -11
-10 -34 -16 -65 -16 -43 0 -49 2 -43 18 18 52 74 69 107 33z"/>
<path d="M6547 13995 c-34 -26 -48 -44 -53 -70 -8 -45 0 -65 23 -59 16 4 19
-1 20 -30 1 -29 -3 -36 -18 -36 -24 0 -24 -17 0 -54 19 -29 21 -79 6 -214 -6
-53 17 -69 47 -33 14 18 18 40 18 95 1 125 1 125 40 132 69 11 76 14 99 44 30
41 37 89 21 147 -33 114 -114 146 -203 78z m132 -44 c50 -50 28 -146 -37 -165
-20 -5 -36 -5 -41 0 -5 5 -12 44 -15 86 -6 67 -4 78 11 87 28 16 61 13 82 -8z"/>
<path d="M6915 14008 c-55 -28 -76 -53 -86 -100 -8 -35 -6 -44 19 -81 19 -28
40 -46 65 -54 33 -11 43 -10 109 19 94 39 112 61 60 73 -18 4 -45 -1 -76 -15
-56 -24 -66 -24 -91 -6 -18 13 -16 15 25 35 24 11 49 21 56 21 7 0 24 10 38
23 82 74 -11 141 -119 85z m95 -43 c0 -6 -33 -19 -75 -29 -37 -9 -25 5 18 21
35 13 57 16 57 8z"/>
<path d="M7264 14015 c-18 -7 -35 -18 -38 -24 -4 -6 -17 -9 -29 -6 -34 8 -44
-5 -54 -78 -11 -79 -6 -126 14 -134 20 -8 35 12 68 90 27 66 51 93 71 79 15
-11 44 -110 44 -152 0 -47 24 -77 47 -58 26 21 13 131 -24 210 -37 78 -55 92
-99 73z"/>
<path d="M3833 13990 c-52 -30 -95 -77 -107 -115 -10 -33 40 -83 93 -94 44 -9
46 -9 84 30 22 21 42 39 46 39 3 0 19 -16 34 -35 28 -35 50 -44 62 -25 9 14
-21 72 -59 116 -25 28 -36 35 -53 30 -11 -4 -24 -17 -27 -29 -8 -33 -44 -67
-70 -67 -74 0 -30 89 52 105 23 4 36 14 43 31 20 53 -20 59 -98 14z"/>
<path d="M3232 13990 c-11 -11 -26 -28 -31 -37 -10 -17 -12 -17 -26 1 -17 22
-45 15 -45 -13 0 -25 46 -161 59 -174 20 -20 39 13 46 77 9 86 31 110 91 101
24 -3 44 -3 44 2 -1 16 -27 43 -54 53 -40 15 -60 12 -84 -10z"/>
<path d="M6285 13990 c-23 -11 -50 -35 -60 -52 -27 -44 -46 -137 -33 -158 13
-20 55 -40 85 -40 65 0 158 70 169 125 9 49 -22 114 -62 131 -43 18 -51 18
-99 -6z m93 -60 c27 -25 27 -24 0 -61 -46 -62 -118 -75 -118 -22 0 28 31 72
63 90 29 16 30 16 55 -7z"/>
<path d="M5802 13478 c-6 -18 -13 -58 -16 -88 -6 -59 -14 -109 -20 -126 -2 -6
-29 -16 -59 -23 -64 -14 -85 -32 -62 -51 10 -8 33 -11 66 -8 l51 5 -5 -27
c-19 -93 -20 -130 -2 -136 9 -4 22 -1 29 7 15 16 36 95 36 133 0 21 5 26 24
26 14 0 36 -4 50 -10 17 -6 27 -6 32 1 9 15 -24 47 -62 61 -38 14 -37 8 -25
153 5 50 6 96 4 103 -9 23 -31 12 -41 -20z"/>
<path d="M3830 13486 c-14 -18 -33 -169 -25 -197 10 -31 -5 -67 -25 -62 -23 6
-79 -23 -107 -56 -33 -38 -29 -77 10 -116 30 -30 36 -32 73 -25 64 13 107 32
131 58 13 14 23 26 23 27 0 1 -12 23 -26 49 -25 45 -26 51 -21 164 3 64 7 128
9 142 4 29 -22 39 -42 16z m-16 -342 c27 -11 18 -21 -30 -33 -36 -9 -49 -9
-61 1 -13 10 -13 14 3 25 19 14 62 17 88 7z"/>
<path d="M1675 13479 c-61 -10 -91 -52 -98 -141 -3 -39 -8 -72 -10 -75 -3 -2
-35 4 -71 14 -59 15 -68 16 -76 3 -12 -18 19 -47 59 -56 14 -3 35 -9 46 -14
11 -4 28 -11 38 -14 12 -4 17 -15 16 -38 -4 -79 16 -134 46 -124 6 1 10 35 10
74 0 66 2 72 23 77 13 3 32 3 42 0 13 -4 22 1 29 14 19 34 13 40 -41 43 -61 3
-64 9 -53 95 6 47 11 57 38 74 24 15 43 19 74 15 52 -7 73 0 73 25 0 26 -72
40 -145 28z"/>
<path d="M4629 13433 c-8 -10 -21 -31 -29 -48 -30 -62 -81 -135 -95 -135 -7 0
-33 38 -56 85 -56 112 -91 116 -103 10 -3 -27 -10 -84 -14 -125 -5 -41 -15
-94 -22 -118 -11 -36 -11 -45 0 -52 7 -4 19 -6 25 -4 15 6 37 50 41 84 10 82
17 127 24 145 7 18 10 16 26 -17 10 -21 21 -38 26 -38 4 0 8 -6 8 -13 0 -8 8
-21 19 -31 26 -24 63 -7 94 44 21 36 25 39 30 20 3 -11 2 -33 -2 -48 -10 -37
-6 -141 7 -154 6 -6 17 -8 25 -5 10 4 17 48 28 169 8 89 13 172 11 183 -1 11
-3 29 -5 39 -3 26 -20 30 -38 9z"/>
<path d="M8295 13406 c-105 -51 -127 -73 -135 -134 -6 -47 -4 -54 19 -76 36
-34 71 -40 116 -22 21 9 41 16 45 16 5 0 10 -45 12 -100 3 -107 9 -120 57
-120 22 0 23 2 15 38 -5 20 -9 103 -9 183 0 130 -2 149 -19 168 -17 19 -17 21
-2 27 9 3 16 17 16 30 0 34 -29 31 -115 -10z m45 -85 c0 -43 -9 -60 -41 -76
-92 -48 -115 31 -24 82 53 30 65 29 65 -6z"/>
<path d="M3518 13389 c-21 -12 -23 -32 -5 -48 18 -15 50 9 46 34 -5 23 -19 27
-41 14z"/>
<path d="M7843 13365 c-25 -17 -31 -54 -10 -56 6 -1 35 -1 62 0 28 1 55 -2 62
-6 6 -4 14 -29 18 -54 l7 -45 -49 0 c-87 0 -143 -55 -129 -126 10 -52 32 -68
94 -68 48 0 58 4 88 34 l34 34 21 -49 c22 -47 48 -67 69 -54 5 3 10 14 10 23
0 27 -58 142 -74 148 -8 3 -12 12 -10 19 3 7 1 46 -5 86 -13 93 -35 118 -112
125 -40 4 -60 1 -76 -11z m114 -240 c6 -18 -21 -42 -53 -48 -27 -5 -33 -3 -38
16 -4 14 0 26 12 35 19 15 74 12 79 -3z"/>
<path d="M7243 13358 c-6 -7 -13 -74 -17 -148 -3 -74 -7 -144 -8 -155 -6 -49
12 -102 36 -113 32 -14 38 -4 25 44 -8 28 -8 81 0 189 6 82 8 160 5 173 -7 24
-26 29 -41 10z"/>
<path d="M6563 13323 c-34 -7 -45 -26 -33 -58 11 -28 26 -30 96 -10 18 6 22 1
27 -25 6 -28 47 -130 83 -204 27 -57 23 -60 -75 -53 -67 4 -92 2 -100 -7 -15
-18 0 -28 66 -49 71 -23 128 -22 153 3 20 20 27 68 12 86 -5 5 -15 29 -22 54
-8 25 -21 59 -30 75 -21 39 -45 114 -38 120 3 3 38 9 78 14 76 10 96 20 87 45
-5 12 -30 15 -144 14 -76 0 -148 -3 -160 -5z"/>
<path d="M4043 13268 c-23 -11 -29 -34 -15 -54 4 -6 38 -10 81 -9 64 2 77 5
93 25 10 12 18 26 18 30 0 19 -141 26 -177 8z"/>
<path d="M2420 13263 c-8 -3 -30 -19 -47 -36 -29 -27 -33 -37 -33 -83 0 -54
19 -112 43 -132 23 -20 36 24 26 92 -9 69 2 99 34 94 16 -2 25 -16 37 -55 26
-91 51 -93 94 -8 15 29 36 61 46 70 18 16 20 15 38 -22 10 -21 27 -65 37 -98
22 -72 41 -98 55 -75 21 32 6 96 -46 207 -22 46 -29 53 -54 53 -30 0 -94 -56
-106 -92 -8 -25 -24 -22 -24 3 0 21 -60 90 -76 88 -5 0 -16 -3 -24 -6z"/>
<path d="M1870 13243 c-14 -9 -27 -20 -30 -24 -3 -4 -18 -12 -33 -18 -22 -9
-27 -17 -27 -44 0 -41 28 -140 43 -149 20 -12 36 26 37 85 0 52 4 62 30 89 25
24 36 29 58 23 81 -20 104 -2 42 33 -47 26 -87 28 -120 5z"/>
<path d="M3150 13237 l-45 -22 2 -88 c2 -82 12 -117 34 -117 5 0 9 7 9 15 0 8
5 15 10 15 6 0 10 16 10 36 0 41 19 114 30 114 12 0 40 -48 40 -68 0 -10 5
-23 12 -30 23 -23 43 -12 62 34 11 26 22 42 27 37 5 -5 16 -45 24 -88 18 -91
29 -109 51 -80 34 46 -25 245 -73 245 -8 0 -28 -9 -44 -21 l-29 -21 -29 31
c-34 36 -33 36 -91 8z"/>
<path d="M4875 13235 c-16 -8 -41 -14 -54 -15 -32 0 -111 -80 -111 -111 0 -27
51 -89 73 -89 43 0 82 17 112 47 l32 33 7 -31 c8 -40 59 -89 86 -82 25 7 25 7
0 41 -11 15 -25 54 -31 87 -15 81 -25 98 -52 89 -19 -6 -20 -5 -9 9 15 17 8
38 -11 36 -7 0 -25 -7 -42 -14z m45 -57 c0 -21 -60 -79 -97 -95 -38 -15 -53
-11 -53 16 0 25 34 53 88 73 58 21 62 21 62 6z"/>
<path d="M3511 13231 c-7 -5 -10 -14 -6 -20 4 -7 9 -49 12 -94 6 -90 13 -107
39 -86 14 11 16 26 10 89 -9 117 -18 134 -55 111z"/>
<path d="M5252 13165 l-53 -76 -42 36 c-48 41 -85 54 -97 34 -11 -16 22 -63
58 -86 58 -35 58 -35 -39 -177 -91 -135 -104 -166 -70 -166 18 0 111 94 111
112 0 17 113 156 130 161 14 3 20 14 20 31 0 15 11 44 24 65 35 55 56 109 50
126 -13 32 -41 13 -92 -60z"/>
<path d="M2061 13211 c-10 -10 -22 -40 -26 -67 -7 -48 -7 -49 40 -92 45 -43
48 -44 99 -40 63 5 111 37 127 86 10 31 9 36 -16 62 -61 64 -183 92 -224 51z
m149 -57 c45 -18 51 -41 20 -69 -26 -23 -100 -23 -117 1 -14 19 -18 66 -6 77
11 12 61 7 103 -9z"/>
<path d="M6039 13188 c-53 -14 -77 -44 -79 -98 -3 -67 -3 -67 34 -89 72 -45
181 -45 222 0 9 10 16 34 16 54 0 43 -32 81 -98 120 -47 27 -44 27 -95 13z
m122 -89 c16 -17 29 -35 29 -39 0 -20 -95 -42 -143 -33 -25 5 -28 9 -25 42 6
65 89 84 139 30z"/>
<path d="M7557 13165 c-9 -8 -28 -40 -43 -70 -14 -31 -30 -58 -35 -60 -4 -3
-23 8 -42 24 -48 43 -80 53 -100 34 -15 -15 -11 -22 43 -80 l60 -63 -35 -53
c-20 -28 -39 -61 -44 -72 -5 -11 -23 -33 -40 -49 -17 -17 -31 -33 -31 -37 0
-5 -14 -29 -31 -54 -20 -29 -29 -53 -26 -66 4 -16 2 -19 -10 -15 -9 4 -46 9
-82 12 -84 8 -90 1 -81 -86 7 -69 2 -80 -38 -80 -34 0 -40 -29 -11 -51 13 -10
32 -19 42 -19 10 0 18 -8 19 -22 0 -13 2 -36 3 -51 1 -16 -2 -51 -7 -79 -10
-55 3 -84 34 -73 26 10 38 53 38 140 0 51 4 87 11 91 6 4 32 7 58 8 33 1 46 5
46 16 0 19 -42 40 -81 40 -41 0 -56 20 -52 67 l3 38 78 -3 c80 -3 94 5 55 32
-19 14 -20 16 -5 16 10 0 29 12 44 28 39 42 166 240 235 366 37 68 62 112 68
121 9 13 -3 58 -17 62 -6 2 -18 -3 -26 -12z"/>
<path d="M6901 13126 c-13 -16 -18 -120 -7 -156 12 -37 56 -80 84 -80 40 0 59
17 78 70 10 27 21 50 25 50 3 0 9 -16 12 -36 8 -45 32 -74 64 -74 28 0 28 0 4
42 -11 18 -27 62 -37 98 -9 36 -22 71 -27 78 -15 19 -34 -3 -51 -61 -19 -64
-53 -120 -69 -114 -23 7 -38 58 -38 127 0 71 -11 88 -38 56z"/>
<path d="M8483 13063 c-30 -11 -3 -83 30 -83 21 0 32 42 17 69 -11 21 -23 24
-47 14z"/>
<path d="M4644 12765 c-3 -8 -1 -92 6 -187 7 -95 13 -194 15 -220 4 -57 10
-68 39 -68 19 0 25 10 40 60 17 56 37 80 66 80 20 0 43 -73 41 -135 -1 -67 8
-89 35 -83 24 4 29 55 14 130 -5 29 -12 62 -14 73 -5 34 -35 73 -61 79 -26 7
-88 -14 -99 -33 -17 -27 -21 -2 -22 139 -2 151 -8 180 -41 180 -7 0 -16 -7
-19 -15z"/>
<path d="M1607 12663 c-4 -6 -43 -13 -88 -16 -109 -9 -184 -54 -143 -88 11 -9
22 -9 52 4 20 9 65 19 100 23 l63 6 -1 -163 c-1 -90 -1 -172 -1 -181 1 -12 9
-18 25 -18 32 0 38 27 36 165 -3 197 -4 191 30 205 36 15 51 32 42 47 -10 15
-108 28 -115 16z"/>
<path d="M2467 12664 c-3 -4 -2 -15 4 -25 5 -10 12 -54 16 -97 l6 -78 -74 7
c-43 5 -78 4 -83 -1 -18 -18 16 -39 86 -50 l71 -12 -6 -66 c-6 -62 2 -92 24
-92 21 0 39 36 45 90 6 59 7 60 38 60 50 1 116 35 116 61 0 16 -4 19 -17 14
-33 -13 -100 -17 -119 -7 -14 8 -23 30 -32 80 -6 39 -17 82 -23 96 -11 24 -38
34 -52 20z"/>
<path d="M1801 12647 c-8 -10 -8 -38 0 -103 6 -49 9 -139 6 -201 -5 -106 -4
-113 15 -119 27 -8 39 6 45 57 8 61 19 79 50 79 39 0 89 -58 97 -114 10 -67
56 -91 56 -30 l0 26 31 -26 c17 -14 39 -26 50 -26 49 0 114 47 148 108 8 15
12 13 32 -12 28 -35 83 -60 106 -47 14 7 13 10 -8 21 -29 16 -47 39 -75 100
-29 62 -78 88 -134 71 -21 -6 -52 -23 -69 -36 -29 -25 -71 -98 -71 -125 0 -7
-17 13 -38 46 -44 67 -63 85 -109 103 -23 10 -36 10 -52 1 -20 -10 -21 -8 -22
27 -2 99 -9 195 -14 203 -9 14 -31 12 -44 -3z m457 -300 c-18 -50 -68 -107
-95 -107 -13 0 -26 7 -29 15 -9 24 47 103 78 110 15 4 30 11 34 16 13 21 22
-4 12 -34z"/>
<path d="M5975 12651 c-79 -12 -102 -27 -109 -75 -8 -49 -8 -235 0 -327 6 -63
8 -66 38 -77 40 -15 64 -15 140 -1 71 13 126 37 126 55 0 18 -53 21 -138 7
-68 -11 -102 -9 -102 6 0 3 -3 36 -6 72 l-6 66 39 6 c21 4 64 7 95 7 31 0 59
4 62 8 3 5 -6 20 -20 35 -23 25 -31 27 -99 27 l-75 0 0 49 0 49 48 15 c46 15
149 16 172 2 7 -4 17 -2 23 4 11 11 -12 45 -43 61 -25 13 -92 18 -145 11z"/>
<path d="M3784 12543 c-17 -2 -46 -17 -65 -33 -42 -35 -38 -44 47 -113 32 -26
60 -52 62 -56 2 -5 -13 -19 -33 -31 -26 -16 -43 -20 -63 -14 -15 4 -36 6 -46
5 -23 -3 -59 38 -88 102 -19 44 -24 48 -52 45 -27 -3 -31 -7 -34 -35 -5 -47
-60 -103 -101 -103 -18 0 -31 5 -31 13 0 41 83 121 158 154 38 16 40 46 4 51
-29 4 -88 -34 -159 -101 -45 -43 -53 -55 -53 -87 0 -46 24 -70 77 -76 49 -6
89 14 124 60 l26 35 33 -44 c19 -25 41 -46 49 -46 9 -1 23 -2 31 -3 8 -1 25
-7 37 -14 29 -16 53 -15 99 4 48 20 74 49 74 84 0 21 -13 37 -61 74 -69 54
-68 70 3 68 52 -2 78 5 78 22 0 29 -54 47 -116 39z"/>
<path d="M4572 12528 c-7 -7 -12 -18 -12 -26 0 -21 -51 -132 -61 -132 -4 0
-11 10 -15 23 -11 34 -37 66 -55 67 -9 0 -34 -20 -57 -45 -55 -60 -70 -58 -63
10 3 37 -9 65 -29 65 -40 0 -51 -61 -25 -147 26 -87 56 -92 122 -22 20 21 42
39 48 39 7 0 20 -15 30 -34 18 -34 55 -53 76 -40 11 6 81 151 93 191 13 43
-24 79 -52 51z"/>
<path d="M3263 12488 c-17 -18 -38 -48 -47 -65 -21 -41 -38 -42 -53 -3 -8 22
-18 30 -36 30 -18 0 -28 -8 -37 -30 -21 -50 -40 -32 -40 39 0 46 -3 50 -36 43
-26 -5 -26 -7 -21 -62 5 -59 33 -126 63 -150 15 -13 20 -11 49 23 29 33 34 35
45 22 27 -32 45 -35 71 -11 66 64 117 159 98 182 -16 20 -21 18 -56 -18z"/>
<path d="M5045 12508 c-16 -6 -36 -15 -42 -20 -21 -17 -63 -115 -63 -147 0
-34 52 -94 112 -130 43 -26 71 -22 140 20 26 16 54 26 61 23 20 -7 34 15 51
81 15 55 39 95 58 95 14 0 29 -51 35 -120 5 -71 28 -108 58 -96 13 5 15 13 9
38 -4 18 -8 49 -9 68 -4 49 -15 89 -37 127 -33 54 -77 55 -122 2 -14 -16 -31
-29 -39 -29 -16 0 -27 -41 -27 -96 0 -27 -4 -34 -19 -34 -10 0 -35 -7 -54 -15
-54 -23 -80 -19 -115 18 -52 54 -50 57 91 116 41 17 47 24 47 50 0 50 -64 74
-135 49z"/>
<path d="M6840 12495 c-16 -20 -4 -35 28 -35 36 0 56 14 49 34 -8 20 -60 21
-77 1z"/>
<path d="M6325 12425 c-16 -13 -35 -24 -40 -25 -16 0 -92 -82 -99 -107 -8 -26
16 -78 39 -87 29 -11 70 -6 93 10 29 20 32 17 38 -37 3 -24 11 -80 17 -124 12
-77 13 -80 37 -77 23 2 79 56 80 76 0 5 18 38 41 72 27 43 49 64 67 69 31 7
92 62 92 82 0 7 4 13 9 13 13 0 27 -21 40 -62 14 -44 24 -52 51 -43 19 6 19 8
4 43 -8 20 -20 63 -25 96 -10 62 -34 105 -59 106 -9 0 -24 -23 -38 -58 -25
-67 -62 -108 -88 -98 -19 7 -12 50 13 78 19 21 2 58 -28 58 -38 0 -78 -137
-48 -167 7 -7 3 -18 -15 -38 -14 -15 -26 -33 -26 -39 -1 -6 -14 -26 -30 -45
l-28 -33 -6 53 c-4 30 -8 86 -11 125 -2 39 -9 83 -16 97 -10 23 -9 30 4 45 10
10 17 24 17 30 0 21 -54 13 -85 -13z m15 -79 c0 -25 -40 -84 -59 -89 -10 -2
-25 -1 -32 4 -11 6 -3 19 31 54 47 47 60 54 60 31z"/>
<path d="M7405 12418 c-34 -19 -79 -59 -103 -92 -19 -26 -22 -39 -17 -89 9
-97 34 -124 99 -106 33 9 64 42 80 84 2 6 14 0 27 -11 13 -12 36 -24 52 -28
15 -3 27 -11 27 -16 0 -18 21 -10 67 25 54 41 95 45 162 15 57 -26 106 -27
108 -1 1 14 -16 28 -67 52 -38 19 -69 37 -70 41 0 4 23 21 50 39 52 34 64 63
31 74 -22 7 -91 -25 -121 -55 -29 -29 -47 -25 -76 20 -27 40 -39 46 -61 32
-14 -9 0 -60 29 -104 17 -26 17 -27 -11 -47 -16 -12 -36 -21 -45 -21 -15 0
-86 97 -86 118 0 6 -6 15 -14 19 -8 4 -16 19 -18 32 -4 29 -16 34 -43 19z m11
-137 c-4 -36 -14 -63 -28 -78 -35 -37 -48 -30 -48 27 0 41 5 55 31 85 41 46
53 37 45 -34z"/>
<path d="M6875 12352 c-6 -4 -12 -22 -13 -40 -1 -18 -3 -36 -3 -40 -7 -49 15
-102 42 -102 5 0 9 43 9 95 0 94 -6 108 -35 87z"/>
<path d="M5250 11995 c-10 -12 -12 -47 -7 -143 3 -71 9 -136 13 -145 5 -13 1
-17 -19 -17 -55 0 -144 -62 -148 -103 -1 -7 -3 -26 -5 -44 -3 -24 3 -40 23
-64 25 -30 30 -31 80 -26 32 3 64 14 79 26 15 12 31 21 37 21 6 0 25 11 44 26
37 28 43 59 14 69 -10 3 -21 18 -24 33 -3 15 -10 45 -16 67 -6 22 -14 96 -17
165 -8 143 -21 175 -54 135z m11 -387 c42 -36 41 -43 -11 -77 -68 -44 -117
-30 -103 29 8 34 20 48 46 53 41 8 53 7 68 -5z"/>
<path d="M3135 11964 c-10 -11 -14 -25 -10 -38 3 -12 9 -57 12 -102 5 -79 5
-81 -18 -87 -13 -4 -39 -7 -57 -7 -26 0 -44 -11 -87 -52 -69 -66 -77 -100 -37
-143 35 -38 83 -55 153 -55 61 0 119 17 149 45 26 23 26 55 1 55 -10 0 -22 8
-26 18 -4 9 -11 93 -15 185 -10 191 -22 224 -65 181z m-8 -316 c7 -6 13 -32
13 -59 l0 -49 -49 0 c-89 0 -140 51 -93 93 39 36 97 42 129 15z"/>
<path d="M4597 11963 c-3 -5 -6 -57 -6 -117 -1 -60 -4 -113 -7 -117 -3 -5 -17
-9 -32 -9 -15 0 -38 -7 -51 -17 -23 -15 -23 -17 -6 -30 11 -7 36 -13 57 -13
l39 0 -6 -52 c-3 -29 -8 -68 -11 -86 -9 -58 37 -86 57 -34 6 15 12 58 14 97 5
78 13 87 78 78 20 -3 37 -2 37 3 -1 26 -44 54 -84 54 -20 0 -26 5 -26 23 -1
50 -12 203 -15 215 -5 13 -31 17 -38 5z"/>
<path d="M2472 11937 c-6 -7 -12 -44 -14 -82 -3 -69 -3 -70 -29 -67 -15 2 -31
-4 -39 -13 -17 -21 1 -40 50 -53 l35 -8 0 -103 c0 -89 2 -104 18 -113 32 -18
42 6 45 112 l4 100 73 0 c74 0 96 10 76 34 -10 12 -118 32 -147 27 -16 -2 -24
33 -24 100 0 67 -22 98 -48 66z"/>
<path d="M3664 11919 c-4 -7 -6 -53 -5 -104 l1 -92 -39 -7 c-21 -3 -49 -15
-62 -26 -21 -17 -22 -21 -9 -30 14 -9 56 -14 93 -11 15 2 17 -8 17 -87 0 -71
4 -94 18 -111 12 -15 21 -18 32 -11 12 7 14 28 12 105 -4 94 -3 95 22 105 14
5 48 12 76 16 38 5 50 11 50 24 0 19 -42 30 -112 30 l-38 0 0 86 c0 47 -5 94
-10 105 -12 21 -35 25 -46 8z"/>
<path d="M6024 11900 c-6 -6 -9 -39 -6 -77 2 -36 1 -81 -3 -99 -6 -32 -8 -34
-48 -34 -23 0 -51 -8 -62 -16 -20 -15 -20 -15 4 -35 14 -11 38 -19 62 -19 21
0 39 -1 39 -2 0 -2 -7 -41 -14 -88 -15 -90 -10 -110 25 -110 26 0 37 26 45
104 4 37 13 73 20 80 7 7 40 16 74 20 76 9 90 14 84 31 -8 20 -31 28 -99 34
l-60 6 -2 83 c0 46 -4 94 -7 108 -7 25 -34 32 -52 14z"/>
<path d="M1569 11893 c-37 -6 -57 -31 -61 -78 -3 -37 -5 -40 -38 -45 -89 -13
-89 -53 0 -54 l50 -1 1 -40 c1 -37 -1 -97 -5 -154 0 -13 7 -28 17 -35 33 -20
47 16 47 121 l0 93 34 0 c39 0 60 20 51 50 -4 13 -15 20 -31 20 -14 0 -34 5
-45 10 -20 11 -26 45 -8 55 12 8 56 16 86 16 35 -1 73 17 73 34 0 12 -14 15
-72 14 -40 -1 -85 -4 -99 -6z"/>
<path d="M1736 11771 c-15 -16 -15 -19 -1 -31 10 -9 12 -16 5 -24 -12 -15 -13
-55 -3 -121 7 -45 11 -50 33 -50 24 0 25 2 22 55 -2 30 -8 72 -13 93 -7 28 -7
43 2 53 14 17 5 44 -14 44 -8 0 -21 -8 -31 -19z"/>
<path d="M5718 11760 c-20 -12 -12 -50 11 -50 27 0 55 25 48 44 -7 18 -33 21
-59 6z"/>
<path d="M2245 11750 c-3 -5 -20 -10 -36 -10 -31 0 -89 -25 -89 -38 2 -34 59
-86 117 -106 21 -7 38 -19 38 -26 0 -16 -52 -32 -80 -25 -22 4 -51 -28 -40
-45 20 -33 129 -10 173 37 42 46 31 61 -75 103 -44 17 -62 38 -42 51 8 5 28 9
44 9 38 0 76 25 69 45 -7 17 -69 21 -79 5z"/>
<path d="M1907 11714 c-69 -43 -79 -68 -49 -130 34 -70 65 -57 66 27 1 55 28
93 55 79 47 -25 99 -38 109 -28 12 12 -7 38 -27 38 -6 0 -11 4 -11 8 0 10 -54
42 -72 42 -7 0 -39 -16 -71 -36z"/>
<path d="M3975 11690 c-22 -11 -45 -19 -51 -20 -5 0 -22 -13 -37 -28 -27 -28
-30 -51 -18 -154 2 -18 60 -59 96 -69 49 -14 143 -13 179 1 30 11 75 49 60 51
-5 0 -52 0 -104 -1 -148 -2 -195 28 -102 68 26 11 58 23 72 27 66 19 78 70 29
116 -36 34 -68 36 -124 9z m79 -53 c22 -16 7 -31 -40 -40 -18 -3 -43 -9 -58
-13 -38 -9 -34 19 7 45 37 24 66 26 91 8z"/>
<path d="M4304 11675 c-71 -40 -82 -51 -90 -92 -5 -24 0 -35 26 -61 36 -37
127 -67 172 -58 33 7 98 43 98 55 0 4 -40 7 -89 7 -81 -1 -92 1 -115 23 -32
31 -33 41 0 72 17 16 41 25 77 29 48 5 52 7 55 33 3 25 1 27 -35 27 -25 0 -59
-12 -99 -35z"/>
<path d="M3313 11660 c-33 -34 -40 -48 -41 -85 -2 -36 3 -49 24 -68 53 -49
166 -67 239 -39 78 31 93 77 18 54 -45 -14 -148 -11 -164 5 -8 8 2 15 37 27
89 30 108 74 53 120 -23 20 -42 26 -78 26 -43 0 -52 -4 -88 -40z m122 -31 c8
-12 -25 -40 -38 -32 -4 2 -19 -2 -32 -11 -13 -9 -27 -16 -30 -16 -11 0 -4 35
12 52 18 20 78 25 88 7z"/>
<path d="M4868 11690 c-44 -8 -78 -35 -78 -62 0 -10 -9 -27 -21 -39 -21 -21
-21 -22 -3 -56 38 -72 99 -91 198 -62 78 23 95 34 80 49 -7 7 -33 7 -82 0 -52
-7 -78 -7 -97 2 -33 15 -32 36 3 44 93 20 132 44 132 82 0 51 -34 61 -132 42z
m72 -49 c0 -5 -15 -12 -32 -16 -18 -4 -41 -9 -50 -11 -33 -9 -19 13 15 24 42
13 67 14 67 3z"/>
<path d="M5746 11632 c-3 -5 -8 -53 -11 -108 -6 -81 -4 -103 8 -119 14 -18 17
-19 32 -4 12 12 17 42 21 127 l4 112 -24 0 c-14 0 -27 -4 -30 -8z"/>
<path d="M6207 11443 c-22 -11 -27 -20 -25 -40 7 -59 67 -55 79 6 9 41 -14 55
-54 34z"/>
<path d="M4875 10960 c-3 -5 -3 -20 1 -33 4 -12 7 -35 6 -50 -2 -15 2 -36 8
-47 6 -11 13 -37 15 -57 3 -21 10 -65 16 -98 14 -82 20 -369 8 -430 -17 -88
-17 -104 0 -110 46 -18 76 106 76 310 0 97 -6 163 -18 215 -9 41 -23 102 -31
135 -19 79 -52 169 -64 173 -6 2 -13 -2 -17 -8z"/>
<path d="M6634 9589 c-4 -6 -8 -91 -9 -188 -1 -130 -5 -185 -16 -211 l-15 -35
-24 49 c-14 26 -38 60 -55 75 -25 22 -29 31 -21 44 7 12 7 20 -1 28 -15 15
-150 -25 -182 -54 -28 -26 -51 -76 -51 -111 0 -20 -7 -25 -37 -31 -70 -14 -81
-13 -114 8 l-34 21 50 8 c59 10 85 36 85 84 0 42 -35 81 -77 88 -47 6 -114
-30 -135 -74 -36 -73 -34 -91 14 -142 36 -38 52 -48 99 -57 62 -13 108 -1 143
38 19 20 19 20 44 1 38 -31 85 -26 124 13 18 17 38 41 43 51 10 16 13 17 32 5
12 -7 27 -23 34 -36 11 -21 36 -36 50 -30 4 1 17 -7 29 -18 l22 -20 23 27 c12
14 26 47 29 73 l7 47 34 -35 c39 -40 110 -77 147 -77 15 0 34 8 44 18 17 16
17 17 -2 21 -27 5 -104 50 -136 80 -32 28 -35 46 -11 55 66 26 153 111 138
135 -10 17 -22 13 -72 -23 -47 -34 -123 -70 -130 -62 -2 2 -6 43 -8 91 -7 125
-13 155 -36 155 -10 0 -21 -5 -25 -11z m-481 -302 c9 -23 -6 -34 -55 -41 -52
-8 -61 3 -31 36 19 21 78 24 86 5z m287 -17 c-11 -11 -20 -26 -20 -32 -1 -24
-47 -70 -66 -66 -14 2 -18 10 -16 32 5 35 25 57 66 72 48 18 58 16 36 -6z"/>
<path d="M4722 9488 c-1 -18 4 -51 10 -73 11 -44 16 -105 8 -106 -3 0 -23 -1
-45 -3 -59 -5 -95 -22 -95 -46 0 -18 6 -20 75 -20 l75 0 0 -31 c0 -17 -7 -46
-16 -65 -14 -30 -14 -35 -1 -49 38 -37 72 -2 84 85 l8 55 43 3 c38 3 43 6 40
25 -2 17 -13 24 -45 31 -32 7 -43 14 -43 28 0 14 -23 93 -55 184 0 1 -9 4 -21
8 -18 6 -21 2 -22 -26z"/>
<path d="M7824 9467 c-49 -14 -74 -33 -74 -57 0 -21 72 -87 115 -106 17 -8 43
-25 60 -39 26 -22 28 -26 15 -39 -20 -20 -118 -45 -156 -39 -20 3 -35 -1 -43
-11 -11 -13 -10 -19 10 -35 36 -29 83 -34 144 -16 69 20 125 70 125 113 0 27
-7 35 -61 67 -33 19 -62 35 -65 35 -11 0 -63 54 -58 61 3 5 25 9 49 9 56 0 75
8 75 31 0 12 -11 21 -37 28 -44 13 -45 13 -99 -2z"/>
<path d="M6996 9420 c-19 -17 -38 -44 -41 -60 -4 -17 -12 -33 -19 -37 -10 -6
-10 -27 -2 -90 9 -82 10 -83 37 -83 l28 0 0 75 c-1 89 14 141 42 148 34 9 74
-76 63 -132 -7 -36 33 -86 56 -71 25 16 18 125 -12 185 -48 93 -96 113 -152
65z"/>
<path d="M7564 9429 c-23 -11 -50 -29 -60 -40 -17 -19 -17 -21 -1 -52 18 -33
46 -51 122 -82 l40 -16 -25 -19 c-50 -39 -111 -45 -135 -13 -11 14 -45 8 -45
-8 0 -9 -91 -5 -142 6 -32 7 -38 25 -8 25 55 0 148 87 133 126 -7 19 -66 54
-89 54 -55 -1 -134 -67 -134 -112 0 -9 -7 -21 -17 -26 -15 -9 -14 -13 6 -54
37 -77 49 -83 157 -80 57 1 103 -2 116 -9 31 -17 102 -12 151 9 40 18 97 72
97 93 0 14 -57 61 -108 89 -26 14 -46 30 -46 35 2 16 46 35 80 35 40 0 62 23
44 45 -18 22 -87 19 -136 -6z m-187 -95 c8 -22 -9 -35 -57 -41 l-42 -6 16 32
c13 24 23 31 47 31 18 0 32 -6 36 -16z"/>
<path d="M1650 9389 c-98 -18 -110 -22 -126 -46 -14 -22 -14 -27 -1 -40 13
-13 25 -13 103 0 49 9 91 14 93 11 8 -7 2 -208 -8 -257 -9 -53 -3 -62 40 -55
33 4 42 57 36 204 l-5 120 43 12 c41 11 62 33 49 53 -7 12 -90 12 -132 0 -20
-6 -32 -6 -32 0 0 5 -3 8 -7 8 -5 -1 -28 -5 -53 -10z"/>
<path d="M1936 9387 c-14 -10 -17 -20 -12 -33 19 -45 26 -171 14 -252 -6 -45
-9 -85 -6 -88 3 -3 18 -6 34 -7 27 -2 29 0 36 57 4 32 10 61 12 64 18 17 66
-53 78 -113 4 -24 37 -27 51 -3 26 40 -54 170 -112 183 -28 6 -29 7 -37 103
-10 103 -19 117 -58 89z"/>
<path d="M4446 9391 c-10 -15 5 -40 27 -47 23 -7 49 19 40 42 -6 15 -59 19
-67 5z"/>
<path d="M5874 9372 c-7 -4 -17 -34 -24 -67 -7 -33 -14 -64 -17 -68 -3 -5 -19
9 -37 29 -27 31 -36 36 -59 30 -18 -4 -32 -18 -41 -41 -21 -50 -42 -45 -50 13
-10 70 -16 82 -35 82 -36 0 -42 -22 -25 -100 16 -77 24 -94 56 -111 27 -14 62
11 88 61 21 42 52 56 43 20 -3 -11 -1 -20 5 -20 5 0 15 -13 22 -30 9 -21 19
-30 36 -30 30 0 50 37 67 122 19 96 9 135 -29 110z"/>
<path d="M4034 9263 c-66 -147 -85 -173 -108 -154 -13 11 -14 27 -9 87 6 70 5
74 -14 74 -11 0 -25 -6 -31 -12 -17 -23 -24 -108 -12 -158 10 -41 16 -50 40
-55 29 -6 77 12 97 37 6 7 24 38 39 68 25 48 29 52 32 30 4 -26 62 -119 87
-140 12 -10 18 -10 30 0 14 12 14 15 -3 31 -11 9 -29 55 -41 101 -43 165 -65
184 -107 91z"/>
<path d="M3040 9284 c-78 -25 -113 -53 -103 -82 9 -27 73 -90 104 -103 16 -6
29 -17 29 -24 0 -20 -46 -38 -85 -33 -30 3 -40 0 -52 -19 -36 -55 44 -71 137
-27 61 28 70 37 70 77 0 19 -7 30 -22 37 -39 15 -114 87 -103 98 6 5 32 15 60
21 60 15 75 26 75 57 0 30 -12 30 -110 -2z"/>
<path d="M4305 9303 c-26 -7 -83 -52 -96 -75 -7 -14 -6 -27 5 -50 9 -17 13
-41 10 -54 -7 -28 11 -54 36 -54 23 0 30 19 30 78 0 89 23 107 108 87 45 -11
41 8 -10 45 -41 30 -47 32 -83 23z"/>
<path d="M2230 9280 c-25 -25 -25 -37 -2 -49 24 -13 52 4 52 33 0 32 -26 40
-50 16z"/>
<path d="M3637 9245 c-26 -20 -56 -54 -68 -76 l-20 -41 26 -34 c14 -18 36 -39
47 -45 36 -19 130 -17 161 4 36 24 26 37 -29 37 -59 0 -114 23 -114 48 0 25
25 46 83 71 40 17 48 25 45 43 -2 19 -10 24 -43 26 -34 2 -49 -3 -88 -33z"/>
<path d="M4477 9267 c-12 -8 -18 -24 -17 -47 1 -19 2 -49 3 -67 0 -27 5 -33
29 -39 37 -8 42 -3 39 43 -2 21 -4 56 -4 78 -2 44 -20 55 -50 32z"/>
<path d="M5116 9235 c-25 -25 -47 -45 -49 -45 -3 0 -27 18 -53 41 -27 23 -53
38 -61 35 -8 -3 -19 -6 -24 -6 -21 0 -6 -31 42 -81 62 -66 65 -55 -65 -215
-30 -37 -32 -49 -10 -58 23 -9 54 -7 54 3 0 5 15 27 33 50 17 22 46 58 62 80
25 33 37 40 70 43 45 3 60 30 28 53 -17 13 -17 15 5 44 12 17 22 33 22 37 0 4
7 12 17 19 19 14 11 45 -12 45 -9 0 -35 -20 -59 -45z"/>
<path d="M2465 9247 c-52 -21 -72 -36 -78 -56 -6 -26 41 -99 83 -126 16 -11
29 -24 27 -29 -5 -14 -76 -37 -124 -41 -49 -4 -63 -11 -63 -30 0 -17 50 -28
116 -27 52 1 115 29 141 62 19 23 16 60 -4 60 -18 1 -53 22 -53 33 0 2 -13 19
-30 37 -16 18 -28 36 -25 40 3 5 25 12 50 15 59 9 84 28 69 52 -13 22 -67 27
-109 10z"/>
<path d="M3311 9239 c-39 -8 -61 -29 -90 -83 -14 -28 -17 -44 -11 -56 7 -14 4
-21 -12 -32 -24 -16 -17 -38 12 -38 10 0 25 -8 32 -18 31 -43 70 -62 123 -62
35 0 57 5 65 15 7 8 18 15 24 15 7 0 25 13 41 30 25 26 26 30 11 36 -11 4 -29
-2 -48 -16 -48 -36 -157 -21 -158 22 0 4 12 11 28 14 66 16 122 61 122 99 0
44 -81 87 -139 74z m54 -61 c34 -15 28 -38 -15 -53 -82 -28 -80 -28 -80 -1 0
26 34 66 56 66 7 0 25 -5 39 -12z"/>
<path d="M2204 9185 c-12 -29 19 -185 38 -196 24 -15 49 21 43 60 -21 132 -27
151 -52 151 -13 0 -26 -7 -29 -15z"/>
<path d="M6118 8943 c-25 -6 -34 -53 -37 -184 -1 -42 -4 -48 -27 -53 -66 -17
-124 -88 -124 -154 0 -33 6 -45 30 -66 64 -54 137 -44 220 31 50 44 56 63 21
63 -12 0 -24 15 -36 45 -13 36 -16 71 -14 175 3 132 -1 150 -33 143z m-31
-327 c1 -1 6 -20 11 -43 11 -46 4 -53 -47 -53 -50 0 -67 43 -35 89 13 18 22
21 43 16 14 -4 27 -8 28 -9z"/>
<path d="M8392 8937 c-6 -7 -13 -60 -14 -117 l-3 -104 -30 -8 c-39 -9 -111
-70 -131 -110 -17 -32 -12 -91 9 -116 22 -28 87 -52 137 -52 81 0 190 70 190
121 0 20 -15 26 -25 9 -13 -20 -25 -9 -25 23 0 17 -10 48 -22 67 -18 29 -22
54 -26 155 -2 66 -9 126 -14 133 -13 16 -33 15 -46 -1z m17 -342 c10 -30 18
-36 51 -41 35 -6 37 -8 24 -22 -57 -56 -155 -65 -193 -16 -17 21 -18 30 -9 57
15 42 35 56 78 57 32 0 37 -4 49 -35z"/>
<path d="M7512 8867 c-34 -19 -52 -51 -54 -96 -1 -35 -5 -41 -23 -41 -28 0
-57 -22 -47 -36 4 -7 23 -21 42 -31 41 -23 53 -67 40 -146 -7 -44 -5 -50 16
-64 41 -26 51 -12 59 81 4 47 3 91 -1 97 -7 12 27 10 99 -7 20 -5 27 -3 27 9
0 18 -62 67 -87 67 -30 1 -54 26 -55 59 -1 37 28 73 56 69 15 -2 22 3 24 18 2
17 -4 23 -29 28 -40 8 -40 8 -67 -7z"/>
<path d="M5800 8855 c-11 -13 -10 -22 3 -51 15 -30 19 -33 36 -22 22 13 33 62
17 78 -15 15 -42 12 -56 -5z"/>
<path d="M7024 8845 c-4 -8 -4 -44 -2 -79 l4 -64 -38 -6 c-42 -7 -84 -44 -68
-60 6 -6 31 -13 58 -16 l47 -5 -3 -71 c-4 -76 9 -101 46 -90 16 5 20 20 26 88
4 45 9 84 11 87 3 2 28 5 57 5 40 1 54 5 56 17 4 22 -41 49 -86 52 l-37 2 -10
75 c-9 67 -13 75 -33 78 -13 2 -25 -3 -28 -13z"/>
<path d="M4917 8829 c-10 -6 -16 -18 -13 -27 3 -9 8 -68 10 -130 3 -62 8 -118
12 -123 3 -6 8 -30 10 -52 6 -82 21 -148 35 -163 22 -21 52 -7 45 20 -4 11 -8
48 -10 81 -3 33 -9 103 -15 155 -6 52 -11 124 -11 161 0 82 -18 104 -63 78z"/>
<path d="M3850 8806 c-9 -11 -9 -43 -2 -128 6 -74 6 -134 -1 -175 l-10 -63 44
-39 c64 -58 98 -72 141 -61 46 13 114 63 123 90 14 44 -4 89 -48 121 -36 26
-48 29 -92 25 -27 -2 -60 -7 -72 -11 -21 -7 -21 -4 -28 124 -7 115 -10 131
-25 131 -10 0 -23 -6 -30 -14z m186 -282 c20 -5 44 -41 44 -64 0 -6 -9 -19
-20 -30 -26 -26 -99 -27 -131 -1 -22 18 -22 19 -6 54 20 40 60 55 113 41z"/>
<path d="M4208 8809 c-12 -6 -16 -18 -13 -37 2 -15 7 -83 10 -150 7 -158 19
-210 54 -223 37 -15 54 11 36 54 -7 18 -16 88 -19 157 -11 213 -16 230 -68
199z"/>
<path d="M7760 8805 c-25 -30 23 -58 60 -35 12 7 12 12 -4 29 -23 25 -39 26
-56 6z"/>
<path d="M7237 8768 c-23 -17 -25 -22 -14 -39 14 -23 57 -26 57 -4 0 8 5 15
10 15 17 0 11 24 -8 36 -14 9 -24 8 -45 -8z"/>
<path d="M8003 8756 c-37 -13 -62 -42 -63 -73 0 -12 -11 -34 -24 -50 -16 -19
-22 -34 -16 -42 4 -8 6 -30 3 -50 -9 -70 65 -116 156 -96 29 6 131 88 131 105
0 21 -43 16 -78 -10 -47 -34 -76 -44 -108 -36 -17 5 -24 13 -24 30 0 20 6 24
49 29 102 12 146 59 114 120 -29 58 -91 90 -140 73z m67 -83 c26 -33 16 -44
-44 -50 l-45 -6 9 31 c4 17 11 36 15 42 11 18 43 10 65 -17z"/>
<path d="M4414 8709 c-18 -20 -18 -21 1 -35 19 -14 77 -19 88 -7 9 8 -42 63
-58 63 -7 0 -20 -9 -31 -21z"/>
<path d="M7767 8709 c-16 -9 -18 -21 -13 -102 3 -49 9 -94 15 -100 5 -5 19 -7
32 -5 24 3 24 5 21 93 -4 84 -13 125 -30 125 -4 0 -15 -5 -25 -11z"/>
<path d="M6368 8687 c-7 -8 -18 -16 -25 -18 -6 -2 -29 -29 -52 -59 -55 -74
-56 -109 -1 -161 47 -45 95 -57 158 -40 49 13 112 56 112 77 0 18 -35 18 -53
0 -25 -25 -83 -30 -132 -11 -39 14 -45 21 -45 45 0 20 6 29 23 33 91 22 113
30 139 48 35 25 36 51 2 78 -31 24 -105 29 -126 8z"/>
<path d="M6669 8674 c-7 -9 -21 -13 -33 -10 -46 12 -57 -32 -31 -138 17 -70
25 -81 59 -72 24 6 26 11 26 64 0 31 6 68 13 82 35 69 90 8 121 -132 7 -32 42
-46 63 -26 12 12 12 23 2 64 -16 67 -35 102 -77 147 -32 32 -42 37 -83 37 -30
0 -51 -6 -60 -16z"/>
<path d="M5295 8623 c-65 -83 -65 -83 -74 -83 -10 0 -28 36 -35 72 -8 36 -54
68 -67 47 -5 -8 -7 -19 -4 -26 2 -7 0 -15 -5 -18 -10 -6 29 -85 56 -116 8 -8
14 -23 14 -32 0 -26 -66 -116 -127 -173 -60 -56 -64 -84 -12 -84 36 0 86 49
164 161 42 59 61 79 78 79 38 0 50 20 28 44 -20 21 -19 21 5 51 81 100 94 118
94 126 0 5 -16 9 -34 9 -30 0 -41 -7 -81 -57z"/>
<path d="M5770 8665 c-16 -19 -4 -151 16 -182 17 -27 52 -30 61 -6 6 14 -10
140 -23 186 -6 21 -37 22 -54 2z"/>
<path d="M4655 8643 c-28 -14 -55 -33 -62 -42 -20 -27 -26 -96 -12 -136 18
-48 81 -105 117 -105 47 0 104 21 128 47 32 34 30 47 -3 38 -102 -25 -155 -8
-175 56 -10 36 -9 41 12 64 13 13 38 29 57 36 39 13 63 47 42 60 -24 15 -52
10 -104 -18z"/>
<path d="M7283 8618 c-6 -7 -18 -37 -27 -67 l-18 -55 24 -17 c35 -27 51 -4 56
81 4 57 2 70 -11 70 -8 0 -19 -6 -24 -12z"/>
<path d="M2575 8610 c-83 -21 -142 -75 -136 -125 2 -22 58 -72 111 -99 30 -15
59 -32 64 -36 9 -9 -70 -24 -101 -18 -20 3 -53 -17 -53 -33 0 -18 61 -39 113
-39 44 0 62 5 96 31 26 18 41 36 39 47 -3 17 -55 56 -117 88 -59 30 -91 55
-91 69 0 21 51 44 104 48 25 3 52 10 61 17 18 15 20 39 3 44 -34 11 -66 13
-93 6z"/>
<path d="M3213 8589 c-39 -11 -68 -51 -58 -76 11 -28 14 -60 15 -163 0 -94 -1
-121 -15 -217 -5 -43 -4 -51 11 -57 10 -4 22 -2 27 3 13 13 36 133 37 186 l0
41 56 12 c79 16 148 63 174 117 19 40 20 46 7 78 -22 50 -75 79 -155 83 -37 2
-82 -1 -99 -7z m174 -55 c57 -36 27 -109 -61 -150 -66 -31 -96 -31 -96 -1 0
12 -3 52 -6 88 l-7 66 44 10 c50 11 94 7 126 -13z"/>
<path d="M1563 8569 l-21 -21 20 -47 c10 -25 23 -55 28 -66 5 -11 12 -34 15
-52 3 -17 13 -37 21 -44 8 -6 14 -22 14 -34 0 -28 23 -48 48 -41 10 3 29 29
43 56 13 27 26 50 29 50 6 -1 35 -64 45 -97 7 -26 50 -41 74 -26 10 6 21 38
28 84 19 114 33 158 54 164 22 7 24 18 9 46 -28 52 -91 -8 -110 -104 -7 -37
-10 -78 -8 -92 10 -48 -9 -25 -27 33 -9 31 -21 72 -27 90 -7 24 -15 32 -33 32
-28 0 -40 -19 -49 -75 -8 -46 -22 -73 -32 -62 -4 4 -24 55 -43 114 -20 58 -41
108 -46 110 -6 2 -20 -6 -32 -18z"/>
<path d="M3544 8568 c-14 -6 -25 -26 -32 -60 -16 -68 -15 -77 11 -115 32 -48
66 -45 122 12 25 24 45 51 45 60 0 28 26 15 48 -24 13 -22 31 -42 41 -46 19
-6 52 3 50 14 -2 19 -107 156 -121 159 -22 4 -38 -11 -78 -76 -17 -29 -38 -52
-46 -52 -20 0 -19 78 2 101 28 31 2 49 -42 27z"/>
<path d="M4450 8545 c-32 -34 -35 -109 -4 -113 31 -4 47 23 45 76 -2 59 -12
68 -41 37z"/>
<path d="M2172 8513 c-69 -47 -130 -109 -146 -148 -16 -37 -15 -38 9 -61 33
-30 61 -30 135 1 33 14 67 25 75 25 9 0 21 13 28 29 l12 29 33 -39 c35 -41 70
-51 91 -25 9 11 5 19 -21 41 -17 15 -45 52 -61 83 -16 32 -36 65 -45 75 -22
25 -63 21 -110 -10z m52 -61 c-1 -6 -2 -27 -2 -46 -2 -30 -7 -35 -45 -50 -98
-37 -114 -9 -36 66 47 46 85 60 83 30z"/>
<path d="M7405 8210 c-4 -6 -2 -16 3 -23 12 -16 35 -164 27 -177 -3 -5 -23
-10 -43 -10 -37 0 -82 -22 -82 -41 0 -14 50 -32 88 -31 17 0 34 -3 36 -7 5 -7
-10 -149 -20 -193 -5 -24 -1 -29 22 -38 19 -8 30 -8 38 0 12 12 34 126 35 185
l1 41 58 16 c31 9 69 19 84 22 l27 6 -29 -44 c-43 -62 -39 -107 13 -170 22
-25 33 -29 87 -32 64 -3 81 2 138 36 l32 20 0 -31 c0 -22 6 -32 23 -38 31 -12
60 17 76 78 12 47 42 91 61 91 16 0 60 -78 60 -107 0 -59 10 -74 44 -71 31 3
31 4 28 53 -4 70 -47 151 -94 177 l-36 21 -52 -38 c-28 -20 -53 -35 -57 -32
-3 3 -5 48 -5 99 0 130 -33 198 -75 155 -13 -13 -14 -21 -5 -44 6 -15 14 -84
17 -153 l7 -125 -56 -18 c-55 -18 -71 -17 -128 5 -24 9 -28 16 -28 50 0 52 34
84 101 93 56 8 60 11 48 44 -8 20 -14 22 -39 17 -17 -3 -43 -9 -60 -12 -23 -5
-30 -3 -30 9 0 14 -14 15 -103 10 l-103 -5 -14 87 c-8 53 -21 96 -32 111 -20
25 -52 32 -63 14z"/>
<path d="M5363 8162 c-8 -5 -12 -38 -13 -92 0 -47 -2 -98 -4 -115 -1 -16 -3
-49 -4 -71 -2 -36 -6 -43 -31 -53 -39 -17 -109 -86 -125 -124 l-13 -32 -7 50
c-9 58 -48 140 -71 149 -35 13 -76 6 -101 -19 -14 -14 -34 -25 -44 -25 -37 0
-49 -37 -38 -120 5 -41 10 -83 9 -93 0 -9 11 -25 25 -34 39 -25 49 -6 45 88
-2 70 0 84 21 115 14 22 30 33 42 32 25 -4 46 -71 49 -155 l2 -68 30 0 c27 0
30 4 33 33 4 39 17 42 26 6 8 -31 29 -54 48 -54 8 0 19 -5 24 -10 14 -14 105
-24 138 -16 46 11 109 95 119 159 7 45 -1 46 -42 5 l-31 -32 0 26 c0 15 -9 48
-21 75 -22 50 -22 41 -4 313 4 61 -22 87 -62 62z m-2 -448 c8 -25 21 -54 31
-64 9 -10 14 -21 11 -24 -8 -8 -81 -8 -109 0 -31 8 -50 48 -37 77 9 20 63 56
84 57 4 0 13 -21 20 -46z"/>
<path d="M3857 8046 c-14 -11 -17 -22 -12 -48 15 -86 24 -163 30 -273 3 -66
10 -124 14 -128 5 -5 21 -7 36 -5 24 3 31 11 49 62 11 32 31 65 43 73 20 14
23 12 47 -24 14 -21 32 -65 41 -97 18 -70 26 -80 54 -71 27 8 27 42 0 125 -26
79 -70 136 -112 144 -25 5 -38 0 -68 -24 -37 -29 -38 -29 -44 -9 -4 12 -8 54
-10 93 -3 71 -8 102 -27 164 -11 36 -15 37 -41 18z"/>
<path d="M2831 7994 c-12 -15 -21 -32 -21 -39 0 -7 -11 -33 -25 -56 -14 -24
-25 -53 -25 -65 0 -19 -28 -54 -43 -54 -4 0 -20 45 -37 99 -35 113 -46 127
-76 102 -21 -17 -29 -65 -40 -231 -2 -30 -10 -84 -18 -118 -17 -74 -13 -92 20
-92 31 0 40 23 56 140 6 50 14 90 17 90 3 0 13 -13 23 -29 20 -36 60 -63 81
-55 8 3 27 29 41 59 23 50 45 77 47 58 6 -72 34 -227 44 -243 8 -12 32 -13 39
-1 7 11 -22 383 -32 425 -10 40 -25 42 -51 10z"/>
<path d="M7135 7933 c-71 -52 -135 -113 -151 -146 -43 -82 114 -118 176 -40
23 29 21 30 45 -17 25 -50 50 -70 85 -70 30 0 43 23 18 33 -13 5 -40 55 -74
137 -10 25 -25 50 -33 56 -12 9 -10 12 8 17 27 7 28 43 2 57 -25 13 -18 15
-76 -27z m15 -81 c0 -4 -13 -29 -30 -55 -19 -31 -37 -47 -50 -47 -32 0 -26 20
27 87 17 21 53 31 53 15z"/>
<path d="M1565 7926 c-19 -14 -19 -15 -1 -35 22 -25 54 -27 63 -6 5 15 -22 55
-37 55 -3 0 -15 -6 -25 -14z"/>
<path d="M6654 7906 c-18 -8 -34 -19 -38 -24 -7 -12 20 -42 38 -42 8 0 16 -19
19 -52 8 -65 1 -95 -24 -103 -26 -8 -24 -19 5 -35 32 -16 39 -55 38 -206 0
-119 0 -122 24 -133 22 -10 26 -8 34 14 5 13 8 92 6 175 l-4 150 27 7 c49 12
156 92 167 125 10 34 -14 72 -63 98 -26 14 -54 26 -63 26 -8 1 -42 4 -75 8
-42 4 -69 2 -91 -8z m177 -67 c49 -15 55 -34 21 -66 -23 -22 -96 -73 -104 -73
-6 0 -8 132 -3 141 8 12 40 11 86 -2z"/>
<path d="M6067 7895 c-20 -7 -54 -25 -75 -41 -49 -37 -130 -123 -138 -146 -16
-50 76 -118 159 -118 35 0 50 6 82 35 37 35 39 35 59 17 51 -44 103 -47 136
-7 12 14 12 18 -1 26 -8 5 -25 9 -39 9 -45 1 -72 34 -85 104 -3 22 -13 48 -20
59 -7 10 -11 27 -8 37 8 29 -25 41 -70 25z m35 -67 c-7 -7 -12 -28 -12 -47 0
-45 -32 -116 -58 -130 -41 -22 -120 16 -107 51 8 20 119 116 147 127 33 14 44
13 30 -1z"/>
<path d="M4640 7846 c-25 -18 -53 -44 -62 -57 -8 -13 -36 -46 -61 -74 -29 -31
-45 -56 -42 -66 3 -9 -1 -19 -10 -23 -38 -14 4 -76 64 -95 38 -11 45 -10 98
16 45 22 61 37 77 70 12 23 25 41 30 40 5 -2 19 -23 32 -47 26 -48 62 -73 97
-68 30 4 30 42 0 46 -28 4 -67 82 -83 167 -9 44 -20 69 -43 93 -17 17 -36 32
-41 32 -6 0 -31 -16 -56 -34z m47 -83 c4 -91 -86 -200 -143 -175 -32 15 -30
25 9 75 30 39 123 137 130 137 1 0 3 -17 4 -37z"/>
<path d="M3694 7851 c-61 -28 -134 -137 -134 -198 1 -54 94 -91 181 -72 48 10
131 70 117 84 -4 4 -30 0 -57 -9 -51 -16 -117 -21 -145 -10 -17 6 -20 32 -10
81 6 31 57 73 90 73 33 0 47 16 40 44 -8 31 -26 33 -82 7z"/>
<path d="M3445 7844 c-16 -8 -37 -21 -45 -29 -8 -7 -25 -16 -38 -19 -12 -4
-26 -15 -30 -24 -14 -28 -8 -157 7 -176 21 -25 55 -16 59 14 6 64 25 131 43
154 21 27 66 35 86 15 11 -11 63 -2 63 11 0 12 -35 39 -73 55 -44 18 -36 18
-72 -1z"/>
<path d="M3120 7824 c-41 -28 -131 -117 -146 -146 -8 -15 -14 -52 -14 -82 0
-51 2 -55 36 -75 19 -12 46 -21 60 -21 28 0 102 63 115 98 11 28 30 25 44 -6
13 -29 74 -47 93 -28 11 11 7 19 -21 47 -24 24 -37 50 -46 91 -14 67 -30 85
-59 67 -13 -8 -23 -29 -27 -58 -7 -51 -59 -137 -87 -144 -10 -3 -27 -3 -39 0
-18 5 -19 11 -13 47 8 51 50 101 127 152 61 41 63 44 45 62 -16 16 -39 15 -68
-4z"/>
<path d="M1597 7773 c-8 -10 -15 -29 -15 -43 1 -45 -10 -145 -17 -163 -7 -16
18 -57 34 -57 22 1 34 24 38 76 2 33 8 84 13 114 11 77 -15 114 -53 73z"/>
<path d="M1889 7780 c-71 -21 -115 -81 -126 -170 -7 -58 10 -106 39 -116 33
-10 43 11 39 86 -4 86 3 106 40 126 64 33 101 -12 101 -122 0 -76 11 -100 41
-89 23 10 31 100 13 160 -23 76 -71 134 -111 133 -5 0 -22 -3 -36 -8z"/>
<path d="M5761 7353 c-11 -12 -15 -49 -15 -146 l-1 -130 -52 -17 c-29 -9 -59
-23 -68 -30 -19 -16 -45 -102 -45 -152 0 -83 96 -116 180 -63 22 14 44 25 50
25 5 0 19 13 31 29 21 29 25 48 8 44 -4 -2 -13 16 -20 40 -6 23 -14 47 -18 52
-3 6 -6 89 -6 185 0 147 -2 175 -15 177 -8 1 -21 -5 -29 -14z m-31 -368 c8 -9
10 -28 6 -49 -5 -27 -3 -37 10 -44 22 -12 11 -29 -26 -37 -42 -9 -67 2 -73 31
-7 37 12 91 37 102 29 14 32 14 46 -3z"/>
<path d="M4844 7342 c-6 -4 -10 -77 -10 -202 1 -107 -3 -222 -7 -256 -8 -59
-8 -61 18 -78 16 -11 31 -14 36 -9 5 5 14 47 20 92 11 88 32 145 52 139 7 -2
27 -33 45 -68 26 -52 32 -72 27 -100 -4 -19 -7 -39 -8 -44 -3 -14 46 -37 57
-26 5 5 10 35 11 67 5 106 -80 243 -151 243 l-34 0 0 108 c0 93 -3 111 -18
125 -21 19 -23 20 -38 9z"/>
<path d="M4097 7314 c-4 -4 -4 -55 0 -114 6 -107 6 -108 -18 -114 -41 -12 -99
-39 -99 -46 0 -18 36 -35 74 -35 l41 0 -3 -126 -3 -127 26 -6 c14 -4 30 -4 34
-2 5 3 11 54 14 113 10 166 7 156 52 171 22 7 65 18 95 24 62 11 80 22 80 49
0 16 -8 19 -52 19 -29 0 -69 -4 -88 -9 -41 -9 -75 0 -75 20 -1 8 -5 53 -9 102
-8 86 -9 87 -36 87 -14 0 -30 -3 -33 -6z"/>
<path d="M6461 7241 c-18 -18 -20 -32 -18 -128 1 -59 -3 -114 -7 -122 -5 -8
-8 -42 -7 -75 1 -39 -4 -71 -14 -90 -21 -40 -20 -45 22 -63 47 -19 155 -13
182 11 10 9 22 16 28 16 15 0 36 27 49 66 10 28 9 39 -5 64 -21 38 -75 77
-126 92 -22 6 -44 15 -50 19 -6 4 -8 42 -5 96 5 74 3 92 -11 111 l-18 23 -20
-20z m121 -291 c32 -9 38 -16 44 -45 3 -19 4 -41 1 -48 -7 -20 -70 -47 -107
-47 l-31 0 2 68 c1 37 4 70 6 75 6 10 41 9 85 -3z"/>
<path d="M1628 7216 c-17 -16 -33 -144 -23 -176 6 -19 2 -20 -58 -20 -51 0
-68 -4 -82 -20 -27 -30 -5 -50 55 -50 82 0 81 1 74 -110 -7 -96 -6 -98 16
-105 31 -10 50 16 51 69 2 77 8 118 19 131 8 9 33 14 70 14 32 0 68 4 79 11
26 13 26 9 1 -32 -41 -68 -22 -129 52 -163 63 -30 99 -31 154 -6 61 28 73 66
50 160 -6 26 -49 76 -79 93 -48 25 -115 14 -142 -25 -8 -12 -15 -16 -15 -10 0
15 -34 26 -90 28 -89 3 -89 3 -92 117 -3 104 -11 123 -40 94z m362 -269 c28
-21 50 -61 50 -87 0 -55 -101 -80 -144 -37 -27 28 -25 65 6 110 21 29 61 36
88 14z"/>
<path d="M2697 7177 c-40 -42 -42 -47 -45 -113 -2 -37 -5 -72 -8 -75 -2 -4
-16 -4 -32 0 -29 8 -72 -5 -72 -23 1 -16 41 -42 77 -50 28 -6 32 -12 35 -44 2
-20 0 -54 -3 -74 -3 -20 -3 -41 0 -46 10 -15 52 -34 59 -27 4 4 7 43 8 88 l1
82 44 8 c24 4 51 8 59 8 8 1 20 6 27 11 7 5 17 7 23 3 12 -7 26 22 16 33 -4 4
-31 8 -59 9 -29 2 -65 5 -82 7 l-30 3 4 59 c6 116 37 135 174 109 28 -6 37 -4
37 6 -1 42 -59 68 -148 69 -37 0 -48 -5 -85 -43z"/>
<path d="M3862 7178 c-18 -18 -15 -43 8 -63 28 -25 51 -13 46 26 -5 42 -31 60
-54 37z"/>
<path d="M7525 7069 c-50 -47 -54 -49 -57 -27 -4 31 -43 37 -58 8 -8 -14 -8
-31 0 -58 5 -20 10 -58 10 -84 0 -40 4 -50 25 -64 14 -9 27 -15 29 -13 7 7 36
99 34 107 -6 20 71 122 92 122 26 0 45 -57 50 -149 4 -83 8 -96 23 -99 31 -6
59 28 53 63 -3 16 -8 57 -12 90 -10 96 -50 154 -107 155 -20 0 -43 -14 -82
-51z"/>
<path d="M2941 7097 c-8 -10 -4 -19 19 -35 29 -22 65 -29 73 -14 8 12 -41 62
-61 62 -11 0 -25 -6 -31 -13z"/>
<path d="M7188 7093 c-59 -9 -135 -125 -125 -190 11 -63 58 -93 147 -93 68 0
113 15 153 52 23 22 37 58 22 58 -16 0 -55 -26 -55 -37 0 -13 -20 -16 -108
-16 -45 0 -92 19 -92 38 0 10 67 33 142 49 15 4 39 17 54 29 l27 23 -24 37
c-23 35 -64 59 -98 56 -9 -1 -28 -4 -43 -6z m77 -63 c6 -9 -37 -31 -87 -44
-33 -8 -36 6 -8 34 21 21 84 28 95 10z"/>
<path d="M3312 7067 c-13 -7 -32 -28 -42 -45 -23 -37 -35 -40 -50 -12 -14 25
-44 42 -64 34 -24 -9 -19 -29 14 -67 17 -19 30 -40 30 -47 0 -6 -20 -38 -45
-70 l-46 -59 26 -17 c30 -20 41 -13 82 52 15 24 34 44 41 44 15 0 99 -45 123
-66 8 -8 28 -14 44 -14 l28 0 -25 32 c-14 18 -33 37 -43 42 -10 6 -28 21 -41
34 -13 12 -30 22 -39 22 -13 0 -12 5 5 38 11 20 30 49 41 64 33 41 10 62 -39
35z"/>
<path d="M5280 7032 c-89 -50 -102 -61 -128 -105 -16 -27 -19 -43 -13 -60 14
-35 52 -65 94 -72 31 -6 44 -3 78 21 22 15 50 41 61 57 20 28 22 28 32 10 14
-26 80 -83 95 -83 29 0 21 33 -18 80 -22 27 -41 54 -41 60 0 25 -33 60 -57 60
l-25 0 23 20 c24 20 24 20 5 35 -27 21 -32 20 -106 -23z m68 -64 c-5 -18 -13
-46 -17 -62 -9 -41 -60 -69 -100 -55 -51 18 -50 63 2 94 18 10 34 22 37 25 6
8 59 28 77 29 9 1 9 -7 1 -31z"/>
<path d="M6819 7000 c-57 -59 -57 -60 -46 -97 15 -53 42 -80 100 -99 68 -23
119 -14 160 26 21 21 28 34 19 37 -6 3 -9 9 -6 15 4 6 -13 -1 -37 -15 -53 -31
-74 -34 -117 -17 -51 19 -68 70 -23 70 31 0 115 32 139 53 12 11 22 28 22 37
0 25 -53 50 -106 50 -46 0 -51 -3 -105 -60z m111 -10 c-26 -21 -60 -27 -60
-10 0 14 32 29 60 29 l25 1 -25 -20z"/>
<path d="M3872 7025 c-17 -21 -19 -38 -16 -132 2 -59 3 -111 4 -115 0 -5 16
-8 35 -8 l35 0 -5 100 c-3 55 -1 110 3 122 20 56 -20 79 -56 33z"/>
<path d="M2957 6979 c-15 -9 -18 -22 -16 -82 1 -40 -1 -86 -5 -104 -6 -27 -4
-32 14 -38 34 -11 44 9 55 111 13 117 2 142 -48 113z"/>
<path d="M6313 6563 c-6 -16 -11 -64 -12 -108 -2 -44 -5 -83 -7 -87 -3 -5 -20
-8 -38 -8 -19 0 -44 -8 -57 -19 -20 -16 -21 -21 -10 -35 7 -9 23 -16 35 -16
56 0 61 -7 58 -71 -5 -73 2 -105 24 -113 31 -12 44 13 44 83 0 39 5 74 13 83
6 9 34 19 62 23 28 3 60 8 72 11 25 7 46 -23 33 -46 -16 -31 -21 -135 -7 -154
21 -28 45 -13 52 31 17 103 31 149 53 175 48 57 88 24 98 -83 7 -69 17 -89 44
-89 9 0 23 -12 31 -26 7 -14 27 -37 43 -51 28 -23 36 -25 91 -20 68 7 139 39
163 75 13 20 21 22 53 17 l38 -7 15 53 c9 29 16 64 16 78 0 14 9 36 18 49 15
20 20 21 30 9 11 -13 30 -82 49 -182 7 -36 11 -40 42 -43 l34 -3 -6 75 c-4 41
-13 93 -21 116 -17 51 -57 110 -73 110 -7 0 -13 5 -13 10 0 21 -46 8 -74 -20
-20 -21 -36 -28 -48 -24 -43 13 -53 -26 -28 -108 5 -16 5 -30 0 -33 -5 -3 -7
-12 -4 -20 4 -8 -7 -20 -28 -31 -18 -9 -37 -23 -43 -29 -12 -15 -64 -26 -115
-25 -52 1 -80 24 -80 65 0 37 2 38 88 55 30 5 69 17 88 26 28 14 34 22 34 49
0 41 -56 95 -99 95 -82 0 -161 -56 -161 -115 0 -15 -4 -24 -10 -20 -5 3 -10
14 -10 23 0 9 -17 37 -38 62 -33 38 -44 44 -75 43 -20 -1 -46 -8 -59 -17 -12
-9 -25 -16 -28 -16 -3 0 -6 44 -8 98 -4 106 -17 137 -50 115 -9 -6 -16 -19
-14 -29 10 -55 9 -170 0 -181 -8 -10 -29 -12 -76 -8 -36 3 -68 8 -71 11 -3 2
-4 24 -2 47 1 23 4 65 5 92 2 28 -1 58 -6 68 -14 26 -44 21 -55 -10z m690
-242 c4 -15 -4 -22 -37 -34 -94 -35 -113 -33 -94 8 19 43 121 63 131 26z"/>
<path d="M2716 6515 c-17 -13 -19 -32 -19 -285 0 -178 4 -275 11 -282 15 -15
63 -13 72 2 5 8 4 25 -2 39 -6 16 -10 119 -9 256 1 292 -2 308 -53 270z"/>
<path d="M3573 6498 c-4 -7 -9 -62 -9 -123 -2 -135 -12 -324 -19 -335 -6 -9
40 -60 54 -60 30 0 54 61 30 76 -9 5 -10 63 -5 210 4 112 5 213 1 224 -7 22
-39 27 -52 8z"/>
<path d="M3261 6461 c-11 -7 -15 -40 -16 -138 -3 -130 -5 -154 -19 -186 -5
-10 -6 -38 -3 -62 6 -43 6 -43 -29 -50 -29 -5 -40 -2 -56 15 -23 25 -63 119
-73 172 -9 48 -25 61 -58 49 -33 -13 -138 -107 -156 -140 -8 -14 -20 -30 -27
-34 -39 -23 21 -89 95 -103 36 -7 88 19 103 51 14 32 23 31 49 -4 32 -44 82
-68 112 -54 21 10 28 8 48 -13 35 -37 96 -33 170 12 67 41 89 74 89 137 0 70
-58 112 -139 101 l-50 -6 4 116 c5 144 -1 164 -44 137z m-261 -303 c0 -33 -24
-96 -43 -116 -13 -12 -23 -14 -44 -6 -14 5 -28 15 -31 22 -3 11 95 120 111
121 4 1 7 -9 7 -21z m418 -21 c15 -12 9 -61 -10 -84 -29 -35 -133 -70 -155
-52 -13 11 -8 34 12 59 7 8 16 26 20 40 11 40 44 61 85 53 19 -3 41 -10 48
-16z"/>
<path d="M4735 6419 c-10 -32 8 -44 44 -29 34 13 40 34 15 44 -30 12 -53 6
-59 -15z"/>
<path d="M2540 6395 c-20 -24 -3 -55 31 -55 37 0 48 24 24 50 -21 24 -38 25
-55 5z"/>
<path d="M5313 6371 c-23 -16 -53 -45 -67 -63 -26 -35 -49 -118 -42 -153 3
-11 5 -25 5 -31 1 -6 12 -23 26 -38 21 -23 32 -26 84 -26 60 0 61 1 108 50 42
45 49 49 60 34 33 -45 76 -64 142 -64 78 0 168 39 183 79 7 21 6 23 -14 18
-129 -30 -167 -36 -193 -29 -36 10 -45 32 -13 32 43 0 168 82 168 111 0 20
-30 68 -56 88 -36 29 -112 29 -148 0 -41 -32 -77 -102 -83 -161 -5 -52 -7 -54
-36 -56 -17 -2 -41 -12 -52 -22 -28 -26 -77 -26 -100 0 -16 18 -17 26 -6 75
14 62 52 110 97 121 48 12 76 34 63 50 -20 24 -82 17 -126 -15z m368 -52 c9
-18 7 -26 -17 -50 -36 -36 -108 -50 -118 -24 -4 11 5 31 25 56 25 32 37 39 64
39 25 0 38 -6 46 -21z"/>
<path d="M4950 6368 c-25 -11 -52 -24 -60 -28 -11 -5 -15 -29 -16 -101 -2 -96
7 -125 36 -129 37 -6 39 -1 34 63 -6 82 16 131 63 135 29 3 33 -1 53 -45 13
-29 21 -66 20 -93 -2 -65 8 -92 34 -88 20 3 21 9 20 88 0 94 -13 131 -67 188
-36 37 -55 39 -117 10z"/>
<path d="M4460 6340 c-61 -20 -87 -37 -100 -61 -10 -17 -6 -25 25 -53 33 -31
69 -47 138 -61 34 -7 36 -33 4 -63 -37 -35 -105 -24 -90 14 7 18 -38 19 -55 2
-19 -19 -14 -37 20 -69 49 -44 136 -39 176 10 37 46 44 61 37 89 -5 23 -16 33
-58 51 -29 12 -67 29 -84 36 -53 23 -41 39 40 56 61 12 72 17 72 34 0 28 -65
35 -125 15z"/>
<path d="M1641 6310 c-55 -30 -90 -60 -142 -126 -38 -48 -40 -104 -4 -139 48
-49 107 -29 171 57 25 35 47 64 49 66 2 2 11 -22 19 -53 9 -31 23 -58 31 -62
8 -3 15 -11 15 -19 0 -16 39 -44 63 -44 24 0 34 30 14 42 -10 5 -23 21 -31 36
-20 39 -76 203 -76 224 0 15 -36 49 -50 47 -3 0 -29 -13 -59 -29z m39 -69 c0
-6 -4 -12 -9 -16 -5 -3 -12 -18 -16 -34 -7 -33 -89 -115 -108 -108 -20 6 -19
40 2 74 33 53 131 115 131 84z"/>
<path d="M2059 6315 c-14 -8 -31 -27 -37 -42 -18 -49 -42 -135 -42 -149 0 -23
-19 -16 -24 9 -3 12 -11 54 -18 92 -12 61 -17 70 -37 73 -36 6 -42 -9 -27 -68
8 -30 17 -75 20 -100 14 -95 15 -96 53 -108 26 -8 40 -8 53 0 15 10 46 92 85
226 4 12 18 30 31 39 19 12 22 19 13 29 -14 18 -37 17 -70 -1z"/>
<path d="M4742 6303 c-12 -34 -32 -185 -26 -195 8 -12 41 -9 51 5 6 6 13 32
16 57 4 25 11 65 16 89 11 55 6 71 -24 71 -16 0 -26 -9 -33 -27z"/>
<path d="M2255 6284 c-74 -43 -120 -91 -134 -139 -13 -49 -7 -62 47 -85 61
-27 92 -19 141 36 l40 45 26 -54 c22 -44 33 -56 57 -61 17 -3 34 -3 39 0 17
10 9 40 -16 64 -14 13 -25 29 -25 36 0 27 -55 138 -82 165 -16 16 -30 29 -31
28 -1 0 -29 -16 -62 -35z m40 -86 c-10 -46 -59 -96 -89 -91 -41 8 -11 56 64
106 33 21 33 22 25 -15z"/>
<path d="M3833 6301 c-9 -12 -21 -21 -26 -21 -17 0 -108 -82 -122 -110 -38
-73 58 -212 144 -209 57 1 147 55 138 82 -6 18 -36 21 -55 4 -9 -8 -28 -13
-42 -12 -14 2 -33 4 -43 4 -20 1 -67 44 -67 61 0 5 15 10 33 10 75 0 172 81
165 139 -3 27 -39 57 -80 66 -20 5 -31 2 -45 -14z m65 -60 c22 -13 -62 -74
-103 -75 -47 -1 -46 13 4 51 42 33 74 40 99 24z"/>
<path d="M2551 6252 c-5 -10 -9 -61 -8 -112 2 -76 5 -95 19 -104 14 -8 21 -7
33 5 12 12 16 39 16 112 1 53 -2 101 -6 106 -10 17 -43 13 -54 -7z"/>
<path d="M7482 6238 c-7 -7 -12 -25 -12 -40 0 -56 80 -64 88 -9 7 43 -47 78
-76 49z"/>
<path d="M4854 5283 c-3 -10 -14 -40 -24 -68 -53 -145 -84 -349 -76 -495 9
-177 37 -270 78 -255 16 6 16 23 -1 110 -12 61 -6 348 8 430 6 33 13 77 16 98
2 20 9 46 14 56 6 10 11 34 11 52 0 19 1 45 2 58 4 29 -19 40 -28 14z"/>
<path d="M4742 3890 c-41 -15 -90 -40 -111 -54 -34 -24 -81 -77 -81 -91 0 -3
-9 -18 -20 -33 -19 -26 -22 -46 -21 -169 0 -23 5 -44 11 -48 5 -3 10 -16 10
-28 0 -27 33 -83 71 -119 30 -29 105 -55 184 -65 28 -3 53 -11 57 -17 4 -6 5
-42 2 -81 -4 -59 -9 -74 -32 -96 -65 -62 -205 -220 -244 -274 -24 -33 -78 -94
-120 -135 l-76 -76 -359 -2 c-522 -3 -771 -28 -955 -94 -89 -31 -126 -111 -76
-158 36 -33 108 -70 137 -70 67 0 67 0 69 -133 2 -67 5 -130 8 -139 3 -10 2
-23 -3 -30 -4 -7 -8 -29 -9 -48 -2 -60 -4 -694 -3 -710 1 -8 -1 -55 -5 -103
-3 -49 -3 -94 1 -100 4 -7 6 -60 4 -118 -2 -79 1 -115 13 -143 l16 -38 62 7
c35 3 77 10 93 15 36 11 145 18 365 25 91 3 215 10 275 15 61 6 209 13 330 16
289 6 425 12 451 18 38 10 298 19 514 18 304 -2 420 -1 455 3 17 2 73 6 125
10 52 3 101 8 109 11 13 4 341 5 628 2 80 -1 105 2 117 15 19 18 20 66 4 122
-8 27 -12 226 -14 620 -4 724 -4 738 2 744 2 3 25 4 50 2 118 -6 192 125 122
214 -56 72 -173 89 -543 80 -143 -4 -303 -10 -355 -14 -52 -3 -153 -2 -225 2
-71 4 -211 6 -310 3 -99 -2 -261 -6 -360 -7 l-180 -4 -6 95 c-3 52 -9 139 -14
194 l-8 98 24 -7 c13 -4 40 -20 59 -35 19 -15 49 -34 66 -43 17 -9 55 -42 85
-75 30 -33 77 -72 106 -87 28 -14 57 -33 64 -41 6 -8 17 -14 25 -14 7 0 17 -6
21 -14 13 -21 54 -39 65 -28 26 26 2 58 -93 122 -52 36 -133 97 -180 136 -97
82 -163 127 -201 140 -16 5 -28 12 -28 17 0 4 0 47 0 96 l0 88 48 6 c69 8 130
38 191 93 71 64 91 108 91 205 0 104 -21 162 -84 225 -76 75 -151 108 -256
111 -73 2 -95 -2 -158 -27z m261 -60 c21 -6 62 -34 93 -63 49 -46 58 -61 75
-121 25 -91 14 -136 -47 -199 -72 -75 -109 -89 -250 -95 -135 -5 -182 4 -227
47 -72 66 -104 212 -61 282 27 45 66 83 112 110 97 55 203 68 305 39z m-158
-907 c4 -54 9 -123 11 -153 2 -30 5 -72 8 -93 3 -32 1 -39 -17 -46 -12 -5
-103 -11 -202 -15 l-180 -6 52 49 c28 26 67 73 87 102 37 56 215 259 227 259
3 0 10 -44 14 -97z m1939 -356 c58 -14 80 -37 71 -76 -4 -17 -15 -36 -26 -42
-13 -7 -181 -9 -502 -7 -423 2 -581 -1 -782 -18 -81 -6 -307 -12 -655 -18
-514 -8 -798 -14 -895 -20 -49 -2 -182 -10 -295 -15 -113 -6 -230 -15 -260
-20 -73 -11 -235 -14 -305 -6 -70 9 -119 45 -95 68 23 23 108 46 206 58 49 6
105 13 124 15 19 2 73 9 120 14 47 6 99 8 116 5 17 -3 43 -1 58 5 16 6 163 10
364 10 185 1 384 5 442 10 58 5 177 12 265 16 88 3 194 8 235 10 41 3 355 6
698 8 343 2 625 6 628 9 10 10 445 5 488 -6z m-138 -211 c21 -6 21 -14 10
-996 0 -52 3 -144 7 -205 5 -60 9 -132 10 -160 l2 -50 -330 -2 c-181 -1 -379
-6 -440 -12 -60 -7 -294 -14 -520 -16 -225 -2 -482 -10 -570 -16 -88 -6 -250
-13 -360 -15 -325 -5 -585 -13 -595 -19 -14 -8 -271 -37 -285 -31 -7 2 -81 -4
-166 -13 -85 -10 -158 -15 -162 -11 -8 7 -10 1068 -3 1105 3 11 5 97 5 190 l1
170 88 1 c226 3 510 16 537 24 17 6 77 10 135 9 58 0 200 2 315 5 440 13 549
16 860 22 176 3 340 7 365 9 25 3 105 6 178 9 73 2 135 6 138 9 7 7 757 1 780
-7z"/>
<path d="M4814 2009 c-16 -18 -16 -25 -5 -62 7 -23 12 -50 12 -59 0 -10 4 -20
10 -23 5 -4 9 -19 9 -34 0 -15 3 -31 8 -35 4 -4 8 -26 8 -49 3 -85 14 -184 29
-267 9 -47 18 -103 21 -125 3 -22 8 -47 11 -55 3 -8 7 -35 8 -60 2 -50 28
-110 49 -110 7 0 21 10 32 23 29 32 100 146 117 188 19 46 65 119 75 119 5 0
19 -21 32 -46 12 -26 29 -54 37 -63 48 -56 61 -75 83 -123 25 -54 57 -82 79
-68 7 3 21 42 32 86 36 141 46 178 77 269 52 156 79 247 103 342 23 93 22 102
-7 151 -8 12 -42 -42 -48 -74 -10 -55 -63 -243 -99 -349 -16 -49 -34 -108 -39
-130 -15 -73 -47 -165 -56 -165 -4 0 -17 17 -29 38 -28 50 -142 204 -162 219
-22 17 -31 12 -55 -32 -11 -21 -27 -46 -35 -54 -8 -9 -25 -38 -38 -66 -12 -27
-32 -66 -43 -85 -11 -19 -20 -40 -20 -47 0 -7 -6 -13 -14 -13 -9 0 -15 17 -19
53 -23 215 -54 404 -112 693 -7 30 -30 36 -51 13z"/>
<path d="M4930 1996 c0 -11 5 -39 12 -61 6 -22 12 -44 13 -50 1 -5 3 -12 4
-15 1 -3 3 -36 5 -73 2 -38 8 -73 14 -79 6 -6 8 -17 5 -24 -3 -8 0 -27 6 -42
7 -18 8 -47 2 -87 -10 -69 -1 -100 29 -110 32 -10 58 19 98 108 19 42 40 77
46 77 7 0 42 -30 79 -66 50 -49 68 -75 73 -102 8 -45 21 -62 45 -62 12 0 21
10 25 28 4 15 16 39 27 54 11 14 23 43 27 65 4 21 23 99 43 174 20 75 39 160
43 188 6 46 4 54 -15 72 -31 29 -51 11 -47 -44 3 -38 -18 -130 -60 -257 -8
-25 -14 -53 -14 -64 0 -34 -23 -96 -36 -96 -7 0 -21 15 -33 33 -11 17 -44 55
-73 84 -74 72 -126 89 -142 45 -11 -30 -56 -107 -56 -97 0 6 -5 39 -10 75 -5
36 -12 97 -14 136 -5 68 -28 182 -40 202 -3 5 -17 10 -31 10 -19 0 -25 -6 -25
-22z"/>
<path d="M5951 1994 c-35 -7 -84 -26 -109 -42 -40 -24 -47 -35 -68 -97 -28
-81 -31 -140 -9 -149 8 -3 15 -11 15 -18 0 -15 51 -51 118 -85 26 -13 54 -27
62 -32 8 -5 34 -17 57 -26 112 -46 141 -158 53 -205 -28 -15 -92 -15 -201 1
-81 12 -119 3 -119 -26 0 -13 53 -36 95 -41 11 -1 56 -7 100 -14 69 -10 85 -9
125 6 127 48 157 181 64 284 -19 21 -49 43 -67 50 -191 71 -257 112 -257 161
0 26 45 125 61 135 8 5 52 17 99 27 88 19 187 24 253 12 37 -7 39 -6 35 16 -2
14 -14 29 -32 38 -42 20 -198 23 -275 5z"/>
<path d="M3487 1982 c-13 -14 -15 -38 -12 -117 2 -55 7 -111 13 -125 9 -25 6
-289 -5 -390 -3 -30 -7 -84 -9 -120 -1 -36 -6 -77 -10 -93 -7 -31 9 -57 37
-57 24 0 25 5 55 305 9 86 6 251 -6 385 -12 141 -12 130 1 130 10 0 132 -122
200 -200 42 -49 96 -128 119 -175 11 -22 28 -53 38 -68 30 -45 113 -127 128
-127 37 0 44 127 27 466 -7 136 -11 164 -27 179 -13 14 -22 16 -34 9 -13 -9
-15 -29 -14 -110 1 -54 6 -144 12 -199 5 -55 9 -133 10 -173 l0 -73 -29 33
c-15 18 -40 57 -55 86 -65 129 -234 329 -341 404 -65 46 -80 50 -98 30z"/>
<path d="M4148 1988 c-13 -11 -17 -49 -22 -248 -3 -129 -10 -259 -14 -288 -5
-29 -6 -54 -4 -57 8 -8 1 -210 -8 -219 -11 -11 -92 65 -143 134 -23 30 -78
111 -123 180 -132 198 -187 262 -214 245 -12 -8 -14 -72 -1 -79 5 -3 7 -29 5
-58 -2 -29 -5 -130 -7 -225 -1 -95 -5 -175 -8 -178 -3 -3 -3 -22 0 -43 5 -31
10 -37 31 -37 l25 0 11 204 c6 112 9 224 7 249 -3 45 -3 45 14 25 19 -22 36
-51 86 -143 16 -30 35 -59 41 -65 12 -10 60 -77 81 -113 21 -35 130 -144 173
-173 25 -17 54 -29 66 -27 19 3 22 12 29 83 4 44 6 111 3 149 -3 38 -1 103 4
145 5 42 12 137 14 211 3 74 8 169 11 210 7 100 -17 149 -57 118z"/>
<path d="M4340 1992 c-56 -27 -59 -33 -53 -102 3 -36 10 -70 15 -77 6 -7 6
-19 0 -30 -5 -10 -10 -85 -11 -166 -3 -208 -10 -343 -19 -410 -8 -55 -7 -60
15 -74 17 -11 35 -13 68 -8 76 11 194 17 302 15 108 -1 119 3 109 45 -9 34
-60 59 -105 51 -96 -18 -308 -32 -319 -22 -2 2 2 30 7 63 13 71 18 530 7 592
l-8 44 91 -6 c50 -4 112 -12 136 -18 44 -11 159 -5 182 9 19 12 24 55 9 75
-12 16 -19 17 -60 6 -41 -10 -89 -9 -211 5 -16 2 -55 6 -85 9 -30 4 -62 3 -70
-1z"/>
<path d="M6100 1892 c-41 -1 -85 -4 -97 -7 -31 -7 -83 -54 -83 -75 0 -26 57
-77 109 -97 25 -9 71 -39 102 -65 30 -26 60 -48 65 -48 5 0 25 -14 44 -30 34
-28 35 -30 39 -114 3 -74 0 -90 -19 -121 -52 -84 -147 -115 -354 -114 -78 0
-157 1 -176 2 -29 2 -36 -2 -38 -20 -2 -14 5 -27 22 -38 33 -22 295 -19 408 4
91 19 162 67 205 140 25 42 26 49 20 145 -8 118 -15 133 -103 191 -34 22 -77
54 -96 71 -20 17 -59 42 -87 54 -86 39 -72 46 123 55 71 4 135 9 142 12 9 3
10 12 2 34 -10 30 -10 30 -82 27 -39 -2 -105 -4 -146 -6z"/>
<path d="M4473 1826 c-4 -6 -6 -56 -5 -111 3 -74 7 -103 18 -111 23 -18 248
-24 265 -7 5 5 6 23 3 40 -5 26 -11 32 -41 35 -19 2 -57 0 -83 -6 -69 -14
-100 1 -100 49 l0 35 68 2 c37 1 84 1 104 0 20 -1 39 2 42 7 7 10 -13 71 -22
72 -4 0 -60 2 -125 4 -79 2 -120 -1 -124 -9z"/>
<path d="M4460 1561 c-8 -6 -15 -28 -16 -53 -3 -65 -19 -171 -27 -185 -10 -15
19 -43 46 -44 62 -1 147 -9 188 -17 55 -11 79 -1 79 32 0 29 -22 48 -52 45
-24 -3 -141 9 -169 17 -16 4 -16 18 -3 100 l4 32 115 -5 115 -5 0 34 c0 30 -4
36 -33 45 -19 5 -49 8 -68 5 -41 -6 -82 -5 -129 3 -19 3 -42 1 -50 -4z"/>
</g>
</svg>
