<?xml version="1.0" standalone="no"?>
<!DOCTYPE svg PUBLIC "-//W3C//DTD SVG 20010904//EN"
 "http://www.w3.org/TR/2001/REC-SVG-20010904/DTD/svg10.dtd">
<svg version="1.0" xmlns="http://www.w3.org/2000/svg"
 width="839.146326pt" height="400.000000pt" viewBox="0 0 839.146326 400.000000"
 preserveAspectRatio="xMidYMid meet">
<metadata>
Created by potrace 1.15, written by Peter Selinger 2001-2017
</metadata>
<g transform="translate(-15.450724,418.598797) scale(0.034710,-0.034710)"
fill="#444444" stroke="none">
<path d="M7635 12043 c-3 -10 -8 -81 -10 -158 -1 -77 -6 -160 -10 -185 -5 -37
-3 -50 13 -70 16 -20 22 -22 35 -12 19 16 26 61 33 224 7 150 -4 218 -35 218
-11 0 -22 -8 -26 -17z"/>
<path d="M7995 12009 c-16 -10 -37 -19 -46 -19 -8 0 -34 -16 -56 -35 -23 -19
-45 -35 -51 -35 -5 0 -23 -26 -40 -57 -37 -71 -35 -119 7 -135 36 -13 89 -3
116 22 29 27 71 24 67 -5 -11 -76 -12 -200 -2 -229 15 -47 32 -50 63 -11 23
29 25 36 12 48 -9 9 -14 35 -13 73 0 33 1 110 2 173 0 69 -3 115 -9 117 -5 2
-23 -15 -40 -37 -37 -48 -143 -106 -152 -82 -7 17 24 61 52 77 11 6 36 21 57
34 21 12 44 22 51 22 36 0 60 63 35 88 -15 15 -16 15 -53 -9z"/>
<path d="M8733 11941 c-19 -21 -28 -68 -39 -211 -2 -25 -12 -89 -22 -143 l-19
-98 25 -17 c23 -15 25 -15 43 7 12 14 19 41 20 70 1 25 3 55 5 66 2 11 6 45 9
75 3 30 10 82 15 115 13 82 12 118 -3 139 -13 18 -15 18 -34 -3z"/>
<path d="M8164 11926 c-12 -32 0 -61 27 -64 14 -2 40 -17 56 -35 24 -25 32
-44 35 -84 6 -61 -8 -81 -41 -64 -47 26 -141 -40 -126 -88 9 -30 40 -40 87
-27 38 10 41 9 64 -19 13 -17 24 -34 24 -38 0 -15 44 -67 57 -67 7 0 17 9 23
20 9 17 5 32 -26 87 -34 61 -36 68 -25 103 6 21 14 64 17 97 6 52 3 65 -22
113 -15 30 -35 60 -44 67 -22 18 -99 17 -106 -1z"/>
<path d="M9031 11898 c-41 -44 -181 -274 -188 -309 -8 -39 14 -94 48 -124 37
-30 50 -31 103 -5 47 22 96 94 96 139 0 33 -43 78 -80 83 -20 2 -24 8 -22 27
4 25 39 84 80 135 24 30 27 76 5 83 -6 2 -25 -11 -42 -29z m-16 -318 c18 -20
18 -21 -2 -48 -26 -35 -47 -38 -72 -13 -20 20 -20 41 2 69 14 18 52 14 72 -8z"/>
<path d="M9272 11890 c-18 -11 -35 -28 -38 -38 -3 -9 -10 -25 -15 -35 -6 -11
-13 -51 -16 -90 -5 -62 -10 -74 -35 -95 -34 -29 -35 -34 -3 -63 31 -30 31 -33
0 -47 -21 -10 -25 -19 -25 -52 0 -60 28 -84 88 -76 63 9 112 35 112 61 0 11 4
26 9 34 6 9 -2 35 -26 78 l-36 64 37 34 c66 60 81 128 45 202 -24 49 -45 54
-97 23z m42 -76 c12 -30 6 -60 -18 -93 -22 -30 -25 -31 -31 -12 -3 11 -3 37 1
58 10 57 35 81 48 47z m-24 -315 c0 -18 -33 -31 -56 -22 -17 6 -18 21 -2 55
l13 27 22 -21 c13 -12 23 -29 23 -39z"/>
<path d="M9826 11772 c-63 -8 -160 -103 -194 -188 -23 -56 -22 -172 0 -188 31
-23 174 -1 206 30 7 8 22 20 33 27 23 16 59 108 59 149 0 91 -53 177 -104 170z
m20 -107 c25 -39 11 -114 -29 -153 -40 -37 -113 -53 -123 -27 -12 31 26 127
66 167 44 44 63 47 86 13z"/>
<path d="M6020 11728 c-14 -5 -44 -8 -67 -5 -23 2 -46 0 -51 -5 -5 -5 -96 -8
-208 -7 -336 5 -465 2 -579 -13 -105 -13 -206 -15 -270 -5 -78 13 -165 20
-210 19 -27 -1 -154 -4 -282 -6 -128 -2 -237 -7 -244 -11 -26 -16 -336 -21
-539 -9 -74 5 -155 8 -180 7 -139 -5 -288 -5 -310 1 -81 19 -377 23 -428 5
-18 -6 -44 -9 -58 -6 -13 2 -53 -1 -87 -9 -99 -20 -111 -49 -83 -195 8 -41 17
-123 20 -184 3 -60 8 -123 11 -140 22 -114 36 -599 22 -760 -4 -49 -10 -119
-13 -155 -3 -40 -15 -86 -31 -119 -26 -52 -26 -54 -7 -64 42 -25 139 -34 370
-35 190 -1 250 -5 285 -17 34 -12 99 -17 277 -20 129 -2 264 -9 302 -16 66
-11 132 -5 290 28 14 3 201 6 415 7 255 2 412 7 455 15 177 33 209 37 223 29
17 -9 209 -4 226 6 6 4 16 4 22 0 21 -13 354 -19 529 -10 63 3 152 6 198 5 61
0 90 4 108 16 23 15 24 19 18 83 -3 37 -13 89 -21 115 -12 38 -14 73 -8 165 8
126 15 430 17 742 1 141 -3 224 -16 299 -9 57 -19 107 -21 112 -3 4 -6 30 -6
58 -2 63 -29 95 -69 79z m-12 -90 c5 -7 12 -33 15 -58 2 -25 12 -90 21 -145
17 -103 17 -284 -1 -888 -5 -188 -4 -229 12 -303 14 -67 15 -88 6 -94 -14 -8
-204 -13 -476 -12 -99 1 -285 1 -413 2 -135 0 -258 -4 -295 -11 -34 -6 -210
-15 -392 -20 -479 -12 -562 -16 -641 -33 -69 -15 -95 -15 -314 -2 -47 3 -158
8 -247 11 -89 3 -173 9 -186 14 -39 15 -288 31 -437 28 l-135 -2 2 45 c2 25 9
117 17 205 14 160 14 189 1 450 -11 239 -13 258 -24 350 -10 82 -22 264 -25
370 l-1 39 65 14 c36 7 79 18 97 23 36 11 252 5 388 -10 106 -12 239 -14 386
-6 65 4 131 1 170 -6 74 -14 312 -12 414 3 39 6 169 12 290 14 121 2 250 6
287 10 39 4 94 1 135 -6 112 -20 316 -21 418 -3 101 18 507 21 653 6 46 -5 85
-5 88 -1 3 4 16 8 29 8 13 0 27 5 30 10 9 14 51 12 63 -2z"/>
<path d="M5351 11288 c-8 -24 -8 -43 0 -68 13 -43 57 -381 63 -489 4 -61 24
-92 56 -84 21 5 21 10 17 112 -7 148 -26 341 -37 371 -5 14 -12 50 -15 80 -10
92 -63 142 -84 78z"/>
<path d="M3164 11229 c-66 -8 -117 -33 -184 -88 -64 -53 -63 -52 -112 -146
-63 -117 -50 -166 75 -290 160 -159 321 -191 412 -81 57 69 44 83 -42 45 -30
-14 -70 -22 -108 -22 -79 -1 -140 31 -222 115 -107 112 -106 173 3 277 67 64
149 103 227 109 44 3 61 9 72 25 12 18 13 24 2 34 -21 21 -68 30 -123 22z"/>
<path d="M4634 11059 c-10 -4 -37 -8 -60 -8 -22 -1 -62 -8 -88 -17 -88 -30
-80 -94 22 -165 67 -47 126 -99 139 -123 15 -28 -9 -62 -63 -86 -54 -25 -81
-25 -119 0 -42 28 -55 25 -55 -10 0 -24 8 -35 38 -53 20 -13 49 -27 64 -30 59
-15 216 77 220 128 5 69 2 74 -97 155 -75 61 -106 93 -103 109 2 10 27 19 74
27 85 14 116 31 104 55 -11 20 -48 29 -76 18z"/>
<path d="M4035 10966 c-15 -14 -30 -26 -33 -28 -4 -2 -15 -27 -24 -56 -15 -47
-15 -61 -2 -133 17 -98 27 -119 59 -119 31 0 42 37 27 88 -6 21 -14 60 -18 88
-5 45 -3 54 17 76 44 46 60 50 106 20 56 -36 88 -103 88 -186 0 -64 8 -86 29
-86 21 0 36 47 36 112 0 76 -29 138 -85 183 -86 68 -155 82 -200 41z"/>
<path d="M4856 10974 c-15 -15 -22 -83 -17 -169 2 -40 40 -111 67 -125 37 -20
98 -3 143 40 22 21 41 49 43 62 2 17 9 23 27 23 18 0 27 -9 40 -44 20 -55 63
-90 86 -71 21 17 19 32 -10 96 -14 30 -25 61 -25 69 0 30 -44 104 -68 115 -30
13 -32 12 -67 -72 -15 -38 -32 -68 -36 -68 -5 0 -21 -18 -35 -40 -52 -79 -87
-42 -87 90 0 47 -4 91 -10 98 -13 16 -32 15 -51 -4z"/>
<path d="M3580 10961 c-19 -10 -41 -29 -50 -43 -8 -14 -23 -36 -33 -50 -18
-27 -25 -106 -12 -149 18 -56 73 -116 136 -144 60 -27 61 -27 105 -10 98 37
137 94 138 201 1 67 -1 73 -36 116 -74 90 -170 121 -248 79z m152 -70 c52 -33
58 -40 69 -90 11 -49 -20 -113 -74 -152 -56 -41 -117 -36 -117 10 0 8 -12 29
-26 48 -43 57 -33 113 34 186 33 34 57 34 114 -2z"/>
<path d="M10307 11648 c-9 -18 -24 -62 -33 -98 -8 -36 -26 -96 -40 -133 -39
-110 -51 -204 -30 -232 25 -34 48 -8 66 76 8 41 19 80 24 87 8 13 35 126 58
244 9 45 9 60 -1 72 -19 23 -26 20 -44 -16z"/>
<path d="M8479 11567 c-12 -27 3 -77 24 -77 17 0 37 42 37 75 0 34 -46 35 -61
2z"/>
<path d="M10920 11494 c-14 -40 -8 -48 40 -61 43 -11 127 -53 141 -69 11 -14
10 -18 -6 -30 -10 -8 -29 -14 -41 -14 -30 0 -77 -18 -86 -33 -16 -26 -8 -57
20 -71 15 -8 45 -33 66 -55 33 -34 37 -43 27 -55 -7 -9 -29 -18 -50 -22 -20
-4 -44 -11 -53 -16 -11 -5 -24 -4 -36 3 -43 27 -108 -22 -91 -69 8 -22 12 -22
91 -17 88 6 187 36 211 63 8 10 20 34 26 56 13 49 -5 89 -55 118 -38 22 -44
38 -15 38 26 0 77 66 85 111 6 33 4 38 -31 62 -49 33 -159 84 -200 92 -29 6
-32 4 -43 -31z"/>
<path d="M9435 11412 c-29 -32 -32 -53 -7 -74 36 -33 84 17 68 70 -11 32 -34
34 -61 4z"/>
<path d="M10481 11388 c-16 -5 -21 -16 -21 -42 0 -40 14 -51 75 -58 22 -3 70
-20 107 -37 37 -18 77 -34 88 -36 12 -2 27 -8 34 -13 25 -20 55 -20 61 -1 3
10 7 28 10 38 5 16 -7 26 -69 55 -41 20 -78 36 -83 36 -5 0 -33 13 -64 29 -61
31 -106 41 -138 29z"/>
<path d="M7129 11370 c-31 -4 -62 -11 -69 -15 -7 -4 -42 -9 -79 -11 -36 -1
-106 -7 -155 -12 -92 -10 -116 -23 -116 -63 0 -33 26 -42 105 -35 41 3 110 9
153 12 42 3 84 8 92 11 17 7 59 13 93 13 12 0 69 0 127 0 58 0 121 -5 140 -11
19 -6 85 -13 145 -15 191 -7 267 -13 380 -30 61 -9 144 -18 185 -19 316 -14
438 -24 495 -44 66 -22 150 -38 241 -47 32 -2 86 -11 119 -19 81 -19 174 -37
205 -41 40 -4 172 -24 355 -54 28 -4 75 -11 105 -16 30 -4 65 -13 77 -21 12
-8 27 -13 35 -12 7 2 36 -4 63 -13 28 -9 70 -16 95 -17 51 -2 72 -7 115 -26
17 -7 48 -16 70 -18 22 -3 47 -8 55 -11 8 -3 33 -7 55 -9 22 -3 90 -17 150
-31 61 -15 121 -29 135 -31 14 -2 50 -10 80 -18 30 -8 91 -22 135 -32 109 -24
218 -56 230 -66 5 -5 20 -9 33 -9 13 0 31 -4 41 -10 10 -5 38 -11 62 -14 64
-6 188 -32 255 -54 139 -45 255 -75 261 -68 3 3 18 -3 33 -14 17 -12 44 -20
68 -20 23 0 43 -4 47 -9 3 -5 51 -24 108 -41 56 -17 111 -35 122 -40 30 -14
202 -66 265 -80 30 -7 60 -16 66 -21 6 -5 13 -6 17 -3 5 6 57 -7 102 -25 11
-5 45 -14 75 -21 30 -6 87 -24 125 -40 39 -15 101 -34 138 -40 38 -7 99 -23
135 -37 37 -13 85 -30 107 -38 57 -18 312 -142 360 -174 22 -15 51 -32 65 -39
29 -13 69 -38 166 -103 38 -25 110 -65 159 -88 50 -23 98 -46 107 -51 10 -6
26 -10 35 -10 10 0 23 -8 30 -19 6 -10 32 -26 58 -34 25 -9 98 -45 162 -82 64
-36 122 -65 129 -65 8 0 14 -4 14 -8 0 -5 26 -22 57 -37 31 -16 68 -39 81 -52
14 -13 31 -23 37 -23 13 0 35 -16 171 -127 42 -34 94 -74 117 -89 122 -82 437
-381 508 -481 16 -23 38 -44 48 -48 10 -3 31 -25 47 -48 31 -47 201 -219 233
-237 12 -6 28 -26 36 -45 7 -19 21 -35 29 -35 13 0 146 -254 146 -279 0 -32
40 -121 65 -147 17 -17 39 -46 49 -65 9 -19 24 -45 31 -59 20 -36 55 -115 55
-124 0 -4 14 -27 30 -51 16 -24 30 -46 30 -50 0 -3 22 -52 49 -108 120 -250
176 -436 186 -617 9 -166 7 -623 -3 -675 -6 -33 -12 -78 -13 -100 -1 -22 -12
-85 -25 -140 -13 -55 -28 -130 -34 -165 -5 -36 -19 -105 -30 -155 -11 -49 -26
-124 -34 -165 -8 -41 -26 -109 -40 -150 -14 -41 -32 -108 -41 -147 -8 -40 -19
-81 -24 -90 -10 -19 -35 -104 -47 -163 -4 -19 -8 -37 -9 -40 -1 -3 -5 -18 -10
-35 -4 -16 -13 -37 -19 -45 -7 -8 -23 -36 -37 -62 -13 -27 -27 -48 -31 -48 -5
0 -26 -37 -49 -82 -22 -46 -47 -90 -55 -99 -8 -8 -14 -19 -14 -23 0 -4 -31
-38 -70 -75 -38 -38 -70 -73 -70 -78 0 -6 -9 -18 -21 -29 -12 -10 -30 -36 -41
-57 -32 -63 -110 -166 -122 -161 -6 2 -30 41 -53 87 -63 121 -58 116 -88 87
-22 -21 -29 -22 -45 -12 -11 7 -22 12 -26 12 -3 0 -3 -31 1 -68 7 -67 5 -71
-38 -163 -43 -90 -64 -123 -153 -240 -59 -79 -59 -76 -17 -97 61 -30 151 -50
258 -57 55 -3 108 -9 118 -11 18 -6 30 -7 132 -20 70 -8 88 7 79 64 -4 24 -13
49 -20 57 -8 7 -14 24 -14 37 0 13 -6 32 -14 43 -7 11 -28 56 -44 99 -35 89
-36 85 32 176 50 66 97 134 111 158 6 10 31 43 56 73 25 29 56 70 70 89 13 19
30 42 37 50 16 18 99 144 161 244 48 77 81 157 81 194 0 13 11 51 24 85 23 60
41 125 50 177 3 14 16 59 29 100 14 41 28 93 32 115 3 22 12 63 20 90 8 28 16
68 19 90 3 22 9 58 15 80 35 135 61 257 56 265 -3 5 -2 18 4 27 5 10 11 32 14
48 3 17 10 53 16 80 5 28 10 64 10 80 -1 17 6 68 15 115 32 166 4 821 -35 846
-5 3 -9 19 -9 35 0 16 -18 81 -39 144 -22 63 -38 115 -35 115 5 0 -47 103 -56
110 -4 3 -10 17 -13 31 -4 14 -17 42 -31 61 -13 20 -27 47 -31 59 -4 13 -16
35 -26 48 -11 13 -19 30 -19 38 0 18 -59 131 -109 208 -50 77 -138 251 -147
290 -3 17 -24 58 -45 92 -22 34 -39 65 -39 68 0 20 -96 141 -169 214 -167 168
-391 403 -391 410 0 4 -11 13 -25 19 -14 6 -25 17 -25 24 0 22 -217 228 -240
228 -5 0 -38 28 -74 63 -36 35 -100 84 -143 111 -96 58 -139 87 -179 120 -18
14 -36 26 -41 26 -5 0 -25 14 -44 31 -19 17 -63 44 -99 61 -36 17 -85 43 -110
58 -25 16 -58 32 -75 36 -16 4 -41 14 -55 23 -14 9 -104 57 -200 105 -185 93
-257 133 -281 154 -82 72 -364 222 -417 222 -10 0 -22 4 -27 9 -38 38 -313
141 -376 141 -15 0 -31 5 -34 10 -3 6 -16 10 -27 10 -12 0 -47 8 -77 19 -31
10 -83 24 -116 31 -33 6 -83 23 -112 36 -28 13 -67 24 -85 24 -19 0 -39 5 -46
12 -6 6 -33 15 -59 20 -99 18 -108 21 -120 30 -7 6 -24 7 -38 4 -18 -5 -27 -2
-31 8 -3 9 -16 18 -27 21 -33 10 -130 45 -149 56 -9 5 -36 11 -60 15 -24 3
-52 9 -63 14 -23 9 -158 58 -195 70 -14 5 -50 14 -80 20 -30 7 -80 19 -110 27
-71 19 -158 35 -190 34 -31 -1 -151 29 -167 42 -7 5 -17 6 -23 2 -6 -4 -19 0
-28 8 -9 9 -30 19 -47 23 -16 4 -34 10 -40 14 -5 4 -26 11 -45 14 -19 4 -64
14 -100 21 -183 41 -220 47 -236 41 -10 -4 -25 0 -35 10 -11 10 -40 21 -67 26
-26 5 -69 13 -97 18 -27 5 -68 14 -90 20 -39 11 -366 80 -395 83 -8 1 -25 8
-38 15 -13 7 -40 15 -60 17 -129 13 -206 25 -215 34 -6 6 -34 11 -61 12 -51 0
-73 4 -216 34 -104 22 -182 35 -271 44 -42 5 -92 13 -110 19 -19 5 -65 20
-104 32 -77 23 -97 25 -389 35 -110 4 -210 11 -224 16 -13 5 -59 12 -101 15
-42 3 -98 12 -126 20 -46 13 -160 21 -401 28 -50 2 -95 5 -100 8 -14 7 -183 6
-245 -2z"/>
<path d="M10021 11359 c-27 -26 -24 -45 11 -67 22 -13 29 -13 42 -3 9 8 16 24
16 36 0 57 -29 71 -69 34z"/>
<path d="M11420 11361 c-12 -24 -13 -88 -1 -95 13 -9 61 41 61 63 0 50 -39 71
-60 32z"/>
<path d="M11656 11326 c-31 -28 -36 -40 -36 -77 0 -24 7 -53 15 -63 28 -36 19
-72 -22 -96 -71 -40 -96 -143 -50 -211 20 -31 29 -35 89 -43 49 -7 75 -6 98 4
59 25 76 99 40 179 -11 24 -20 50 -20 59 0 8 20 37 45 63 39 42 45 54 45 91 0
57 -18 89 -60 110 -58 28 -103 23 -144 -16z m96 -52 c39 -20 53 -49 35 -74
-19 -28 -65 -62 -70 -53 -41 68 -48 89 -42 120 7 37 16 38 77 7z m-8 -274 c9
-22 16 -50 14 -62 -3 -20 -10 -23 -51 -26 -71 -5 -99 16 -95 71 3 37 6 42 25
39 13 -2 31 1 40 7 32 19 49 12 67 -29z"/>
<path d="M11954 11257 c-20 -18 -28 -35 -31 -74 -3 -31 -1 -53 6 -57 6 -4 11
-16 11 -27 0 -11 -4 -18 -8 -15 -20 12 -52 -25 -52 -60 0 -20 -7 -42 -15 -50
-19 -19 -19 -74 -1 -118 29 -70 100 -94 180 -61 32 14 36 19 35 53 0 20 -10
68 -23 107 l-22 69 50 35 c28 19 56 42 63 50 22 29 15 76 -18 117 -40 51 -46
54 -101 54 -35 0 -54 -6 -74 -23z m108 -79 c23 -16 26 -23 17 -39 -8 -17 -25
-24 -76 -33 -10 -1 -23 65 -17 85 6 20 36 15 76 -13z m-37 -290 c9 -38 -7 -50
-46 -36 -63 22 -80 76 -42 137 l15 23 33 -47 c19 -26 37 -61 40 -77z"/>
<path d="M12263 11209 c-44 -23 -77 -86 -81 -156 -3 -38 0 -69 6 -75 17 -17 2
-70 -29 -101 -46 -47 -43 -127 7 -171 34 -30 78 -33 129 -9 39 18 55 65 36
101 -6 11 -18 41 -26 66 l-16 46 32 28 c18 15 45 35 60 44 32 20 59 66 59 101
0 33 -24 89 -47 110 -24 21 -101 30 -130 16z m88 -86 c16 -10 29 -25 29 -35 0
-19 -41 -59 -89 -89 -28 -17 -30 -17 -35 -1 -16 62 -16 75 4 108 24 38 47 43
91 17z m-84 -313 c25 -47 21 -57 -22 -46 -31 8 -47 38 -39 71 9 38 33 28 61
-25z"/>
<path d="M11375 11100 c-20 -22 -14 -67 11 -77 18 -7 64 34 64 57 0 40 -46 52
-75 20z"/>
<path d="M12536 11076 c-46 -25 -68 -75 -65 -146 2 -58 -8 -110 -37 -182 -37
-90 -29 -151 26 -196 16 -13 126 -12 149 2 23 15 29 50 17 98 -6 26 -15 50
-19 54 -4 4 -7 15 -7 24 0 9 -9 25 -20 35 -11 10 -20 22 -20 26 0 4 24 19 53
32 78 38 117 88 117 154 0 52 -78 124 -132 122 -13 -1 -41 -11 -62 -23z m134
-101 c0 -34 -24 -62 -72 -83 -59 -26 -68 -21 -68 41 0 78 40 107 103 76 20
-11 37 -26 37 -34z m-96 -307 c34 -66 -2 -86 -71 -41 -21 14 -24 22 -20 52 3
20 10 49 16 65 l11 28 23 -34 c12 -19 30 -50 41 -70z"/>
<path d="M7010 10909 c-52 -38 -116 -84 -142 -100 -27 -17 -48 -35 -48 -40 0
-5 -7 -9 -15 -9 -21 0 -115 -96 -115 -117 0 -10 48 -66 106 -123 113 -112 160
-150 211 -174 17 -8 39 -26 48 -39 9 -14 30 -31 47 -38 27 -11 32 -10 43 5 13
17 28 168 25 247 -1 24 -1 50 -1 57 1 11 22 13 107 8 58 -3 109 -8 114 -11 16
-10 226 -23 555 -35 39 -2 81 -7 94 -12 37 -13 318 -48 392 -48 37 0 104 -6
150 -14 46 -7 93 -14 104 -14 11 -1 47 -4 80 -8 33 -4 110 -8 170 -10 61 -1
135 -3 165 -4 30 -1 78 -6 105 -12 54 -11 77 -15 170 -23 33 -2 76 -9 95 -14
44 -13 91 -23 110 -26 8 -1 29 -5 45 -8 51 -11 105 -16 220 -22 135 -7 169
-11 195 -25 11 -6 39 -14 62 -19 24 -5 99 -20 168 -34 69 -14 145 -32 170 -40
85 -27 143 -39 275 -53 48 -5 136 -24 152 -32 10 -5 63 -17 118 -26 55 -9 114
-22 130 -27 39 -14 76 -24 155 -44 36 -8 90 -25 120 -36 95 -36 267 -79 313
-79 14 0 30 -7 37 -15 7 -8 24 -15 39 -15 14 0 51 -9 81 -21 30 -11 64 -22 75
-23 24 -4 166 -43 311 -87 17 -5 39 -9 49 -9 18 0 112 -30 170 -55 17 -7 41
-16 55 -20 27 -8 280 -126 320 -150 14 -8 69 -38 123 -65 54 -28 126 -68 160
-90 34 -21 117 -67 185 -100 68 -34 183 -98 255 -142 73 -45 173 -103 222
-131 50 -27 110 -64 135 -82 25 -17 81 -54 125 -80 44 -27 105 -68 136 -91 31
-24 74 -51 95 -61 21 -10 62 -35 91 -55 29 -21 56 -38 61 -38 6 0 17 -11 26
-25 9 -14 21 -25 27 -25 6 0 43 -26 82 -58 40 -31 107 -83 150 -115 98 -74
307 -284 358 -360 21 -32 52 -70 69 -83 16 -14 30 -32 30 -40 0 -8 7 -17 16
-21 8 -3 25 -20 37 -38 12 -18 42 -61 67 -95 44 -61 55 -78 114 -177 16 -26
39 -59 52 -73 12 -14 37 -54 54 -90 18 -36 36 -72 41 -80 4 -8 19 -39 33 -67
14 -29 36 -67 49 -85 13 -18 33 -51 44 -73 11 -22 38 -76 60 -120 23 -44 53
-116 67 -160 34 -101 80 -356 91 -500 8 -102 19 -281 18 -292 0 -6 -4 -74 -8
-149 -3 -76 -9 -142 -11 -146 -3 -4 -11 -50 -19 -103 -8 -52 -21 -108 -29
-124 -9 -16 -13 -31 -10 -33 9 -10 -102 -344 -118 -354 -5 -3 -18 -25 -29 -48
-25 -53 -39 -76 -67 -112 -27 -36 -55 -78 -110 -169 -23 -38 -51 -81 -61 -95
-11 -14 -45 -65 -76 -113 -32 -49 -63 -91 -70 -93 -7 -3 -28 -26 -46 -52 -19
-26 -114 -125 -211 -221 -98 -96 -178 -183 -178 -192 0 -20 51 -64 59 -51 3 4
40 37 81 72 41 35 104 96 139 134 35 39 78 85 95 101 40 39 163 186 191 228
12 18 35 52 51 77 16 25 46 67 66 93 21 27 38 59 38 70 0 12 9 28 20 35 11 7
20 17 20 24 0 6 18 33 40 59 22 26 40 52 40 57 0 5 7 15 16 23 44 36 145 285
169 414 2 11 17 63 34 115 16 52 35 127 40 165 6 39 13 79 15 90 2 11 9 83 16
161 10 110 10 166 0 260 -6 65 -13 153 -16 194 -9 170 -85 521 -133 620 -78
157 -141 275 -176 330 -23 36 -56 92 -73 125 -59 118 -199 335 -284 442 -32
40 -58 77 -58 82 0 5 -28 38 -63 73 -35 34 -75 85 -91 111 -43 75 -262 277
-416 386 -47 33 -94 68 -105 79 -11 10 -38 29 -60 42 -22 13 -60 42 -85 65
-25 23 -65 53 -90 66 -25 13 -76 47 -114 74 -87 62 -124 85 -203 125 -34 17
-65 35 -68 40 -7 11 -109 80 -119 80 -4 0 -30 16 -59 35 -28 19 -55 35 -59 35
-3 0 -34 18 -68 41 -34 22 -84 52 -113 66 -29 14 -63 34 -76 45 -13 10 -32 18
-42 18 -10 0 -35 11 -55 25 -20 14 -42 25 -49 25 -7 0 -19 7 -26 17 -8 9 -25
21 -39 27 -46 21 -138 77 -150 91 -7 8 -16 15 -21 15 -10 0 -159 73 -333 163
-61 31 -112 55 -114 53 -2 -3 -19 6 -38 19 -20 13 -61 31 -92 39 -31 9 -77 23
-102 32 -70 26 -182 54 -210 52 -14 -1 -59 10 -100 25 -41 14 -95 28 -120 32
-25 4 -83 20 -130 35 -47 15 -121 39 -165 54 -44 14 -120 35 -169 47 -49 11
-112 29 -140 39 -60 22 -116 35 -134 31 -7 -1 -30 8 -50 20 -22 13 -56 23 -82
24 -52 2 -212 34 -315 63 -38 10 -79 19 -90 19 -11 1 -54 8 -95 17 -41 9 -110
23 -152 31 -43 7 -87 19 -98 25 -11 6 -20 9 -20 6 0 -2 -17 0 -37 5 -21 5 -58
11 -83 15 -25 3 -79 16 -120 29 -92 29 -181 43 -325 50 -60 3 -117 8 -125 10
-67 20 -288 55 -382 59 -42 2 -81 7 -88 11 -13 8 -93 13 -320 19 -91 3 -177 9
-192 15 -15 5 -56 12 -91 15 -36 3 -98 10 -138 16 -41 6 -105 10 -144 9 -38
-1 -97 5 -130 14 -105 27 -205 37 -425 43 -118 3 -224 9 -235 14 -32 13 -173
30 -251 30 -46 0 -75 5 -82 13 -6 7 -15 62 -21 122 -9 107 -23 165 -38 165 -5
0 -51 -32 -103 -71z"/>
<path d="M8923 10304 c-13 -14 -23 -29 -23 -34 0 -8 -20 -22 -114 -80 -54 -34
-78 -84 -77 -161 1 -80 -14 -67 -28 24 -24 154 -46 192 -74 130 -6 -16 -27
-50 -46 -77 l-35 -49 -22 107 c-13 59 -28 114 -35 122 -32 38 -71 -13 -52 -69
6 -18 17 -57 23 -87 26 -115 30 -127 50 -145 18 -17 21 -17 46 -1 14 10 35 33
46 53 20 33 22 34 35 17 7 -10 13 -25 13 -33 0 -8 7 -41 16 -73 14 -49 20 -58
39 -58 12 0 29 7 36 16 15 18 39 81 39 103 0 37 42 98 81 120 22 13 42 21 45
19 2 -3 -1 -72 -6 -154 -6 -92 -6 -152 0 -158 21 -21 57 11 74 66 21 64 63
131 79 125 23 -7 56 -109 51 -157 -4 -32 -1 -51 10 -65 16 -20 16 -20 36 4 24
28 26 77 6 147 -8 27 -17 61 -20 76 -3 14 -18 41 -32 58 -22 26 -32 30 -53 25
-14 -4 -34 -14 -44 -22 -9 -9 -19 -14 -22 -11 -3 3 0 49 6 102 8 71 8 104 0
122 -13 30 -20 30 -48 -2z"/>
<path d="M9233 10153 c-51 -29 -83 -61 -83 -85 2 -104 62 -221 118 -232 96
-18 110 -18 131 3 12 12 21 28 21 36 0 13 6 11 30 -6 16 -13 32 -20 35 -17 3
3 10 34 16 69 12 69 27 92 73 116 23 12 33 12 51 3 20 -11 21 -16 13 -70 -9
-55 -7 -60 21 -103 35 -51 84 -78 155 -85 53 -5 66 4 66 48 0 23 -4 26 -39 27
-57 3 -101 27 -94 53 3 11 13 20 23 20 9 0 25 9 35 20 10 11 26 22 36 25 31
10 26 82 -8 117 -15 15 -35 28 -44 28 -22 0 -119 -59 -119 -72 0 -5 -6 -8 -12
-5 -7 2 -13 12 -13 22 0 12 -13 23 -40 32 -33 11 -43 11 -70 -1 -62 -30 -97
-79 -110 -153 -4 -24 -11 -46 -16 -49 -8 -5 -71 6 -128 22 -22 7 12 38 64 59
77 32 81 83 12 158 -40 42 -73 48 -124 20z m78 -89 c11 -14 10 -18 -6 -30 -41
-30 -95 -5 -65 31 16 20 54 19 71 -1z m483 -33 c3 -5 -10 -21 -29 -35 -32 -25
-36 -25 -42 -10 -4 10 -2 19 4 21 5 2 19 10 29 18 22 17 31 18 38 6z"/>
<path d="M10340 9993 c-14 -9 -29 -23 -35 -30 -5 -7 -21 -15 -35 -18 -13 -3
-32 -13 -42 -23 -16 -15 -17 -23 -8 -46 5 -15 10 -40 10 -55 0 -33 16 -51 47
-51 17 0 23 7 29 35 3 19 19 54 34 79 26 40 33 44 77 49 26 4 64 5 83 3 31 -3
49 6 50 26 0 3 -19 16 -43 27 -54 26 -133 28 -167 4z"/>
<path d="M10572 9940 c-18 -14 -32 -31 -32 -37 0 -6 -7 -14 -16 -17 -8 -3 -24
-26 -35 -51 l-20 -46 21 -42 c27 -56 38 -69 83 -96 55 -34 135 -37 178 -8 33
22 46 54 35 84 -6 13 -9 13 -32 -2 -15 -9 -48 -18 -75 -19 -40 -1 -52 4 -78
28 -17 16 -28 33 -25 38 3 4 26 8 51 8 31 0 60 8 90 25 40 24 43 29 43 69 0
60 -32 89 -103 91 -44 2 -58 -2 -85 -25z m83 -81 c-7 -10 -38 -12 -48 -2 -4 3
-2 12 4 19 13 16 54 0 44 -17z"/>
<path d="M11030 9831 c-8 -4 -43 -14 -77 -22 -83 -18 -129 -57 -137 -119 -8
-58 7 -80 64 -90 48 -9 95 3 104 27 5 12 9 13 21 3 8 -7 15 -18 15 -25 0 -7
12 -24 26 -39 29 -28 84 -37 84 -12 0 7 7 19 15 26 12 10 15 7 21 -14 4 -15
25 -39 53 -58 39 -27 55 -32 109 -32 56 -1 65 2 82 24 22 28 28 62 8 42 -17
-17 -83 -15 -98 3 -7 8 -20 15 -30 15 -18 0 -40 22 -59 58 -11 20 -9 23 16 33
15 6 44 13 63 16 56 7 62 11 58 40 -3 28 -4 28 -66 26 -87 -4 -119 -22 -169
-99 -12 -18 -13 -18 -33 5 -16 19 -20 37 -20 100 0 90 -13 113 -50 92z m-40
-109 c0 -24 -79 -57 -86 -37 -8 20 4 35 40 50 35 15 46 12 46 -13z"/>
<path d="M3021 9786 c-7 -8 -28 -20 -47 -26 -18 -6 -37 -17 -41 -24 -7 -11
-161 -133 -187 -147 -6 -4 -23 -11 -37 -17 -17 -7 -28 -20 -32 -39 -4 -20 -19
-38 -46 -56 -45 -30 -46 -33 -31 -72 9 -22 15 -26 37 -22 29 5 166 -37 183
-58 8 -10 5 -29 -15 -77 -54 -130 -139 -293 -168 -326 -9 -10 -29 -46 -46 -82
-39 -84 -105 -204 -139 -255 -15 -22 -38 -61 -52 -87 -14 -26 -46 -77 -71
-115 -99 -147 -144 -219 -156 -250 -7 -18 -23 -48 -37 -66 -15 -19 -26 -37
-26 -41 0 -5 -13 -28 -30 -53 -16 -24 -30 -48 -30 -54 0 -5 -4 -9 -8 -9 -11 0
-105 -200 -157 -335 -14 -38 -33 -83 -40 -100 -7 -16 -26 -64 -41 -105 -22
-61 -95 -219 -134 -290 -4 -8 -12 -26 -17 -40 -6 -14 -20 -50 -33 -80 -12 -30
-30 -75 -39 -100 -9 -25 -20 -51 -25 -59 -13 -21 -46 -153 -46 -187 0 -16 -5
-35 -12 -42 -6 -6 -12 -41 -12 -77 -1 -42 -5 -66 -13 -70 -7 -2 -13 -15 -13
-28 0 -12 -11 -61 -24 -107 -35 -123 -42 -202 -22 -245 28 -59 42 -45 53 58 9
85 31 188 55 262 10 33 10 30 34 170 19 114 61 235 129 380 13 28 27 61 31 74
4 14 20 46 35 72 16 25 29 51 29 56 0 11 62 163 104 256 25 55 40 96 88 232
12 33 32 76 45 95 12 19 23 40 23 46 0 6 18 39 40 73 22 34 40 65 40 69 0 5
27 52 60 105 33 54 60 102 60 107 0 6 5 10 10 10 6 0 10 6 10 14 0 18 15 46
74 136 49 74 121 187 143 225 44 73 63 109 63 116 0 4 13 27 28 51 16 24 38
59 48 78 10 19 22 37 26 40 13 10 68 119 68 134 0 8 7 19 15 23 21 12 117 195
129 247 9 39 43 86 62 86 8 0 42 -19 74 -42 55 -38 64 -41 127 -42 l68 -1 -1
35 c-1 19 -9 55 -19 80 -9 25 -25 110 -35 190 -21 166 -35 230 -58 279 -20 40
-34 48 -51 27z"/>
<path d="M11595 9755 c-14 -13 -25 -31 -25 -40 0 -11 -6 -14 -25 -9 -28 7 -75
-18 -75 -41 0 -7 14 -23 30 -35 37 -26 38 -48 6 -134 l-23 -65 23 -16 c34 -22
57 -4 89 71 26 61 27 62 56 54 42 -12 79 3 79 33 0 24 -27 57 -48 57 -6 0 -17
7 -25 14 -12 12 -12 24 -4 60 8 34 7 49 -3 61 -17 21 -27 19 -55 -10z"/>
<path d="M11795 9750 c-15 -16 -15 -22 -5 -35 7 -8 23 -15 37 -15 13 0 38 -7
54 -16 26 -13 30 -20 24 -42 -3 -15 -14 -34 -25 -42 -45 -36 -76 -55 -83 -52
-12 4 -20 -26 -13 -53 11 -45 108 -74 136 -40 6 8 9 23 5 35 -4 12 -2 26 3 33
27 32 82 152 77 168 -3 10 -27 31 -54 48 -59 38 -127 43 -156 11z"/>
<path d="M3603 9668 c-25 -43 -64 -180 -68 -238 -7 -85 -25 -169 -62 -277 -39
-115 -59 -146 -182 -281 -56 -62 -141 -198 -180 -287 -5 -11 -27 -59 -50 -108
-22 -48 -41 -91 -41 -95 -1 -4 -9 -25 -20 -47 -11 -22 -19 -43 -20 -47 0 -7
-99 -217 -167 -353 -19 -38 -59 -115 -88 -170 -30 -55 -60 -111 -66 -125 -37
-78 -123 -246 -163 -316 -25 -45 -46 -85 -46 -89 0 -9 -16 -43 -85 -189 -44
-92 -105 -276 -105 -317 0 -42 -23 -49 -149 -42 l-119 6 -4 -49 c-3 -31 2 -71
14 -109 11 -33 23 -91 28 -130 18 -139 22 -161 42 -240 18 -74 48 -125 71
-125 5 0 24 12 42 28 18 15 41 34 53 44 11 9 27 40 36 70 11 39 30 69 67 108
28 30 62 78 76 105 14 28 45 79 68 115 66 102 74 120 62 147 -13 30 -39 36
-132 31 -93 -4 -95 0 -60 116 14 47 28 93 30 103 5 25 38 102 120 278 23 50
45 97 48 105 4 8 20 38 36 65 16 28 45 84 66 125 47 97 133 260 192 365 6 11
21 45 33 75 13 30 51 107 85 170 78 144 121 235 130 280 4 19 38 96 76 170 37
74 71 147 74 162 4 16 46 66 101 120 150 147 213 292 248 566 3 24 10 62 16
85 19 74 42 151 51 176 7 15 6 28 -2 37 -18 22 -36 16 -56 -18z"/>
<path d="M1975 9429 c-19 -31 -35 -62 -35 -70 0 -7 -9 -32 -21 -56 -22 -46
-19 -77 11 -93 33 -18 47 -2 53 60 7 65 30 130 46 130 19 0 39 -30 46 -70 8
-47 43 -90 73 -90 22 0 42 43 42 91 0 23 -4 29 -23 29 -16 0 -32 14 -55 49
-17 28 -32 54 -32 59 0 6 -16 12 -35 14 -34 4 -37 2 -70 -53z"/>
<path d="M11820 9345 c-19 -21 -22 -29 -14 -56 13 -46 60 -61 86 -29 34 42 15
110 -31 110 -10 0 -28 -11 -41 -25z"/>
<path d="M10045 9352 c-2 -3 -24 -7 -47 -8 -75 -7 -133 -16 -143 -24 -5 -4
-32 -11 -60 -15 -72 -10 -150 -54 -207 -118 l-27 -30 -43 48 c-54 60 -131 105
-179 105 -82 0 -104 -12 -164 -86 -24 -31 -27 -31 -90 -27 -47 3 -71 0 -88
-12 -13 -8 -31 -13 -40 -10 -9 4 -21 -2 -28 -13 -8 -10 -24 -22 -36 -26 -13
-4 -23 -11 -23 -15 0 -5 -17 -7 -37 -7 -21 1 -50 -2 -66 -7 -28 -9 -79 -73
-92 -117 -14 -49 -34 -71 -59 -64 -17 4 -37 -3 -67 -23 -96 -63 -128 -130
-111 -236 5 -31 5 -57 0 -57 -13 0 -9 -22 7 -40 14 -16 13 -19 -9 -34 -39 -25
-57 -69 -55 -133 1 -60 17 -96 52 -125 21 -16 21 -17 3 -37 -11 -12 -24 -21
-31 -21 -23 0 -53 -46 -60 -92 -6 -38 -3 -55 16 -92 31 -63 77 -90 154 -90
l60 -1 1 -40 c1 -76 4 -84 48 -120 38 -30 54 -37 99 -40 64 -3 77 -9 77 -35 0
-24 54 -86 91 -106 15 -7 40 -14 54 -14 22 0 25 -3 20 -21 -17 -54 60 -116
166 -134 38 -7 72 -9 74 -5 3 4 17 11 32 15 16 3 38 16 51 28 19 18 37 22 95
24 40 1 84 6 98 12 23 8 30 6 48 -13 12 -12 18 -25 15 -29 -3 -3 6 -32 21 -64
30 -63 52 -200 47 -292 -3 -49 -5 -53 -25 -46 -12 4 -46 11 -75 17 -45 9 -56
8 -71 -6 -24 -22 -34 -20 -61 9 -29 31 -80 41 -121 25 -32 -14 -53 -51 -70
-130 -7 -31 -23 -59 -54 -90 -42 -44 -95 -135 -95 -164 0 -35 51 -76 128 -100
78 -24 86 -31 96 -76 17 -75 102 -97 176 -45 l40 28 37 -37 c30 -30 37 -44 38
-78 2 -81 -30 -237 -72 -352 -8 -22 -40 -69 -71 -105 -31 -36 -57 -67 -58 -69
-1 -2 -18 7 -38 19 -53 31 -121 20 -183 -32 -26 -21 -51 -39 -55 -39 -4 0 -14
-13 -23 -29 -12 -25 -25 -32 -72 -41 -91 -19 -119 -29 -138 -50 -11 -13 -31
-20 -53 -20 -20 0 -56 -13 -87 -30 -77 -44 -102 -115 -71 -201 l13 -36 -51
-17 c-71 -22 -86 -35 -97 -85 -14 -63 8 -96 99 -142 40 -20 79 -42 86 -48 28
-24 117 -18 175 11 l54 26 31 -19 c17 -10 38 -19 47 -19 9 0 23 -7 30 -16 21
-26 90 -12 155 30 54 36 74 39 74 11 0 -8 18 -35 40 -60 22 -25 40 -51 40 -56
0 -16 65 -39 109 -39 61 0 89 16 119 65 21 35 32 44 48 40 11 -2 52 -7 90 -11
61 -5 78 -3 139 21 39 16 74 32 79 36 16 14 42 10 57 -8 20 -24 110 -61 167
-69 42 -5 55 -3 90 20 38 24 53 52 36 69 -4 3 -22 0 -41 -8 -20 -8 -49 -15
-66 -15 -84 0 -165 57 -152 107 7 31 -2 63 -20 63 -7 0 -37 -19 -66 -43 -87
-70 -123 -81 -233 -74 -91 5 -95 4 -102 -16 -3 -12 -26 -41 -51 -64 -34 -33
-52 -43 -78 -43 -34 0 -85 18 -85 29 0 4 -12 20 -27 37 -17 18 -29 43 -30 64
-1 18 -11 43 -22 54 -10 12 -21 30 -23 41 -3 19 -48 36 -48 18 0 -5 -17 -27
-37 -50 -44 -48 -120 -77 -163 -61 -13 5 -26 11 -28 13 -4 4 26 54 95 156 20
31 22 40 12 62 -14 31 -50 43 -62 21 -5 -9 -17 -24 -26 -33 -9 -9 -29 -35 -45
-56 -16 -22 -42 -53 -58 -69 -25 -26 -32 -28 -54 -17 -14 6 -33 11 -44 11 -10
0 -31 10 -46 23 l-27 23 35 50 c19 27 45 54 58 61 25 12 44 48 35 63 -3 5 9
12 27 15 18 4 41 12 51 17 17 9 16 11 -7 29 -13 10 -34 19 -45 19 -49 0 -4 59
59 78 40 12 109 9 160 -7 19 -6 36 -11 37 -11 1 0 7 10 14 21 9 18 7 27 -11
52 l-23 30 24 19 c39 31 100 60 114 54 8 -3 11 -13 8 -25 -4 -15 2 -23 28 -34
50 -21 65 -42 50 -73 -18 -41 -13 -61 19 -74 17 -7 32 -11 33 -9 2 2 14 21 27
41 46 70 106 77 162 20 32 -33 37 -44 35 -78 -2 -36 0 -39 26 -42 19 -2 39 6
66 27 57 45 109 43 148 -4 59 -75 70 -84 93 -78 20 5 21 10 15 48 -8 60 16
107 70 134 23 11 51 21 61 21 17 0 56 -32 92 -75 11 -12 17 -13 28 -4 16 13
10 49 -16 94 -29 52 8 95 84 95 35 0 50 -12 84 -73 21 -37 21 -38 3 -70 -16
-28 -23 -32 -54 -29 -48 4 -66 -25 -40 -65 12 -18 18 -49 20 -97 1 -39 2 -74
2 -77 2 -12 51 -16 59 -5 5 6 17 38 27 71 21 71 65 185 77 201 11 16 -2 74
-23 106 -22 30 -24 45 -8 50 22 7 147 -11 168 -24 26 -16 43 -74 35 -117 -5
-23 -3 -31 7 -31 23 0 79 39 79 55 0 24 22 18 74 -23 50 -38 89 -100 100 -160
5 -28 1 -39 -24 -64 -31 -31 -31 -53 0 -43 22 7 25 2 34 -47 9 -50 -13 -72
-63 -63 -37 6 -65 31 -126 114 -60 80 -111 38 -54 -45 17 -25 32 -59 33 -76 1
-26 -4 -31 -38 -43 -48 -17 -72 -8 -94 35 -36 71 -71 65 -76 -15 -7 -93 -60
-108 -136 -39 -43 39 -74 40 -86 2 -4 -15 3 -29 28 -55 19 -19 41 -35 49 -37
8 -1 25 -9 39 -19 47 -31 95 -27 135 12 29 27 33 28 105 23 81 -5 117 6 154
47 31 34 71 27 122 -21 24 -24 44 -47 43 -53 0 -5 -22 -20 -48 -33 -27 -12
-68 -40 -92 -61 -24 -21 -80 -57 -124 -80 -99 -52 -121 -69 -129 -102 -9 -41
12 -51 119 -54 53 -2 117 -10 143 -18 26 -9 76 -18 112 -22 35 -4 89 -15 120
-25 30 -10 92 -21 137 -24 45 -4 101 -13 124 -21 24 -9 49 -13 57 -10 8 3 57
-2 110 -10 54 -8 106 -14 117 -14 11 1 52 -1 90 -5 39 -3 108 -9 155 -13 185
-15 507 0 715 33 55 9 128 15 163 14 35 -1 69 3 75 8 7 5 41 12 77 15 116 10
173 15 260 22 47 3 126 12 175 20 50 8 108 14 130 13 156 -7 405 28 690 98 33
8 110 18 170 23 144 12 290 32 304 40 8 5 7 32 -3 96 -8 50 -17 137 -20 195
-3 58 -9 157 -13 220 -9 143 -6 363 8 495 5 55 12 127 15 160 2 33 9 76 14 95
5 19 11 64 14 100 3 36 9 97 13 135 12 110 4 775 -9 809 -10 25 -15 27 -47 22
-61 -9 -293 -7 -356 4 -123 20 -283 32 -372 26 -51 -4 -123 -2 -160 3 -37 6
-203 13 -368 16 -340 6 -436 11 -503 26 -26 6 -83 12 -127 15 -81 4 -148 15
-240 40 -27 7 -59 14 -70 14 -45 0 -172 19 -198 29 -16 6 -59 14 -95 17 -120
10 -315 32 -389 43 -40 6 -79 8 -87 5 -8 -3 -48 -1 -88 5 -40 6 -116 13 -168
16 -52 3 -106 7 -120 10 -14 3 -101 7 -193 10 -92 2 -173 7 -178 11 -15 9
-169 14 -169 5 0 -22 -44 -51 -76 -51 -30 0 -37 -5 -52 -36 l-17 -36 33 -27
c17 -15 32 -32 32 -38 0 -15 55 -119 79 -150 11 -13 23 -33 26 -43 7 -22 -29
-98 -50 -107 -8 -3 -15 -11 -15 -18 0 -7 -16 -32 -35 -55 -26 -32 -33 -48 -29
-66 4 -14 0 -34 -8 -47 -22 -33 -12 -93 20 -117 14 -11 42 -23 63 -26 105 -17
89 -48 -88 -170 -11 -8 -18 -30 -20 -69 -2 -32 -7 -63 -12 -69 -17 -23 -19
-57 -4 -72 12 -11 31 -14 84 -11 42 3 69 1 69 -5 0 -6 -16 -37 -36 -70 l-36
-60 15 -61 c9 -34 18 -73 19 -87 3 -25 3 -25 97 -22 51 1 101 7 111 12 9 5 40
12 68 16 47 6 52 5 52 -12 0 -11 -9 -39 -20 -63 -11 -24 -20 -53 -20 -66 0
-12 -7 -28 -15 -35 -8 -7 -15 -17 -15 -23 0 -5 -10 -20 -22 -33 -13 -13 -31
-33 -41 -45 -17 -18 -21 -19 -35 -6 -28 24 -79 47 -105 47 -14 0 -30 6 -36 14
-39 47 -209 79 -273 52 -33 -14 -40 -14 -73 0 -25 10 -51 13 -83 8 -39 -5 -55
-15 -94 -55 -43 -46 -47 -48 -62 -33 -40 39 -95 135 -119 204 -24 71 -54 271
-43 288 3 4 1 25 -4 46 -12 54 -6 63 45 62 57 -1 92 25 117 89 11 28 21 51 23
53 2 2 43 5 92 5 82 2 91 4 126 32 41 33 55 76 40 122 -7 20 -6 36 4 53 7 14
13 42 13 62 0 60 -94 178 -165 207 -5 2 -30 19 -54 38 -53 40 -79 41 -153 4
l-58 -28 -1 31 c-3 64 0 182 5 196 2 8 12 40 20 71 16 56 72 177 98 213 14 18
16 18 79 -4 134 -48 170 -47 227 7 l36 34 62 -20 c60 -20 124 -21 197 -5 44 9
127 74 133 104 3 14 7 30 9 36 2 6 21 14 43 17 99 13 219 105 251 193 27 71
26 86 -5 123 -24 29 -24 31 -7 37 44 14 71 32 125 85 44 44 58 64 58 86 0 16
5 34 11 40 20 20 -10 85 -67 143 -52 54 -54 57 -44 90 6 19 10 53 10 75 0 35
-7 48 -47 90 -27 28 -62 57 -79 66 -30 16 -32 21 -36 83 -3 59 -8 70 -38 102
-19 20 -46 42 -60 49 -23 11 -110 29 -151 30 -9 0 -25 7 -35 16 -42 34 -74 48
-120 51 -46 3 -49 5 -54 34 -8 48 -59 121 -98 140 -55 26 -137 33 -224 19 -42
-6 -50 -4 -83 20 -33 26 -108 49 -120 37z m65 -81 c0 -5 8 -17 17 -27 13 -13
18 -34 18 -88 l0 -71 35 0 35 0 0 55 c0 54 0 54 35 62 19 4 70 9 112 10 96 4
118 -12 126 -92 4 -43 1 -55 -18 -75 -13 -14 -29 -25 -37 -25 -23 0 -53 -39
-53 -68 0 -22 7 -30 33 -40 30 -11 33 -10 51 13 10 14 35 33 55 41 46 20 127
35 145 28 18 -7 36 -57 36 -101 0 -26 5 -36 26 -45 35 -16 58 0 62 43 2 19 9
37 15 41 16 10 89 10 105 0 20 -13 30 -63 24 -121 -4 -49 -8 -56 -48 -84 -24
-17 -44 -34 -44 -39 0 -18 42 -48 67 -48 28 0 83 44 83 67 0 18 15 16 31 -3 7
-9 32 -29 56 -45 50 -35 54 -59 19 -102 -16 -20 -34 -29 -60 -32 -45 -4 -68
-21 -64 -49 3 -19 9 -21 81 -20 42 1 77 -3 77 -8 0 -4 18 -28 40 -52 22 -24
40 -53 40 -65 0 -39 -57 -97 -126 -127 -56 -26 -65 -33 -74 -66 -10 -35 -11
-36 -43 -27 -44 12 -47 12 -47 -10 0 -23 54 -71 79 -71 10 0 26 -9 37 -21 15
-16 16 -23 6 -37 -7 -9 -22 -32 -33 -49 -12 -18 -27 -33 -33 -33 -7 0 -21 -9
-31 -20 -10 -11 -28 -20 -40 -20 -24 0 -77 -15 -112 -32 -16 -8 -27 -7 -43 5
-12 9 -29 13 -36 10 -16 -6 -19 -59 -4 -68 14 -9 13 -65 -2 -65 -6 0 -20 -8
-31 -17 -14 -14 -37 -18 -106 -18 -80 0 -90 2 -124 28 -39 30 -81 32 -98 6 -5
-8 -9 -32 -9 -53 l0 -39 -64 6 c-36 3 -82 14 -103 24 -53 25 -54 52 -5 101 21
21 42 47 45 57 6 14 15 17 45 12 49 -6 91 11 125 52 35 42 43 76 27 109 -8 15
-13 30 -12 34 2 10 -53 125 -69 144 -6 8 -19 14 -29 14 -10 0 -24 7 -31 16 -9
12 -24 15 -51 11 -21 -3 -38 -2 -38 2 0 4 -14 15 -31 25 -32 19 -104 16 -162
-6 -24 -9 -30 -8 -43 10 -8 11 -40 32 -71 47 -45 20 -67 25 -98 20 -41 -7
-125 -45 -125 -57 0 -4 -16 -15 -35 -24 -34 -16 -37 -16 -79 7 -40 21 -47 22
-82 10 -24 -8 -47 -25 -59 -44 -17 -26 -30 -33 -70 -40 -43 -7 -54 -14 -81
-50 -17 -23 -35 -55 -39 -72 -15 -60 -23 -169 -14 -192 5 -13 5 -33 -1 -47 -8
-21 -3 -27 43 -57 75 -49 141 -66 175 -45 7 4 23 -5 42 -26 34 -37 38 -53 13
-55 -10 -1 -38 -6 -62 -11 -37 -8 -46 -7 -62 9 -11 11 -19 24 -19 29 0 6 -14
10 -30 10 -25 0 -33 -6 -46 -37 -24 -54 -68 -80 -123 -72 -29 4 -51 14 -63 28
-25 32 -23 53 5 50 48 -6 96 25 97 63 0 21 -36 43 -45 28 -3 -6 -48 -10 -98
-10 -125 0 -142 11 -134 90 4 37 2 61 -5 68 -17 17 -38 15 -38 -4 0 -13 -6
-15 -27 -10 -16 4 -37 7 -48 8 -65 0 -96 11 -109 36 -20 39 -22 73 -7 110 12
29 12 35 -2 50 -15 14 -24 15 -76 4 -32 -7 -67 -9 -77 -6 -50 18 -80 68 -64
108 9 24 89 76 119 76 23 1 104 43 105 55 1 6 -26 10 -62 10 -53 0 -65 3 -75
20 -6 11 -18 27 -28 35 -32 29 -31 64 4 116 l32 49 74 5 c42 3 76 10 78 16 2
6 -10 23 -27 38 -23 19 -43 26 -75 26 -60 0 -68 14 -60 97 10 91 24 114 80
137 41 16 52 17 82 7 44 -16 47 -14 58 60 11 72 61 139 102 139 26 0 68 -24
98 -57 11 -12 30 -24 43 -28 19 -5 22 -3 22 19 0 13 -11 38 -25 54 -44 52 -29
74 75 112 l53 19 33 -35 c41 -45 63 -42 89 13 12 24 36 54 55 68 59 43 113 32
184 -39 l45 -45 -1 -71 c0 -58 3 -74 18 -85 39 -30 53 -12 69 89 7 43 80 126
111 126 10 0 28 9 40 21 18 17 29 19 72 13 49 -6 50 -7 41 -31 -13 -34 -12
-40 11 -63 28 -28 48 -25 61 8 25 63 55 113 72 118 10 3 25 14 35 24 15 15 34
24 65 29 4 0 7 -3 7 -8z m-250 -1181 c14 -15 31 -29 39 -31 12 -4 11 -14 -6
-60 -12 -30 -38 -97 -59 -149 -74 -189 -74 -270 -3 -270 19 0 24 12 34 75 12
74 49 182 71 206 8 9 15 37 16 63 1 26 8 52 15 58 7 6 13 19 13 30 0 10 7 30
16 44 16 23 18 24 36 8 17 -16 21 -16 52 -1 36 17 46 14 46 -12 0 -9 9 -22 20
-29 26 -16 60 0 60 28 0 11 4 20 9 20 11 0 58 -60 84 -108 26 -47 4 -71 -34
-37 -25 23 -60 10 -100 -36 -79 -93 -96 -116 -112 -149 -8 -19 -28 -46 -42
-60 -24 -23 -57 -84 -100 -185 -32 -75 -45 -150 -51 -292 -7 -155 4 -234 36
-268 10 -11 21 -32 25 -46 6 -24 3 -27 -30 -33 -27 -5 -44 -3 -62 9 -21 14
-29 15 -48 5 -19 -10 -27 -10 -46 4 -32 22 -54 20 -71 -5 -11 -18 -20 -20 -46
-14 -39 8 -40 19 -4 40 39 23 79 100 62 119 -9 12 -9 23 -1 48 6 19 11 76 12
128 0 90 -15 160 -51 235 -15 33 -60 148 -60 156 0 21 -148 245 -184 278 -31
29 -34 61 -6 79 11 7 20 23 20 36 0 30 14 41 29 22 6 -7 25 -16 41 -20 18 -3
47 -23 68 -47 37 -39 38 -43 32 -87 -7 -44 4 -92 20 -92 4 0 13 -19 18 -42 6
-24 20 -61 32 -83 11 -21 20 -44 20 -50 0 -5 7 -23 16 -40 29 -54 45 -147 45
-258 0 -99 1 -108 17 -102 9 4 25 9 34 12 9 3 22 17 28 33 16 38 -2 194 -25
220 -11 12 -14 26 -10 40 5 15 -6 47 -33 103 -48 99 -59 149 -38 178 13 20 12
28 -21 93 -20 39 -56 94 -80 123 -23 28 -43 56 -43 62 0 14 37 14 46 0 4 -8 9
-8 17 0 6 6 20 11 30 11 11 0 37 16 59 36 34 30 46 35 81 33 30 -2 49 -11 67
-29z m-560 -141 c0 -11 -5 -30 -11 -41 -16 -30 -30 -3 -17 33 12 34 28 38 28
8z m66 -189 c11 10 15 9 20 -4 4 -9 4 -19 1 -22 -8 -9 -77 16 -77 27 0 6 9 5
21 -1 15 -9 24 -8 35 0z m1822 -331 c17 -6 69 -10 115 -8 45 1 125 -2 177 -6
52 -5 109 -8 125 -7 17 0 80 -6 140 -14 61 -8 157 -16 214 -19 57 -3 150 -14
205 -26 56 -11 119 -22 141 -25 22 -2 65 -9 95 -16 30 -6 67 -10 82 -10 15 0
30 -3 32 -7 3 -4 60 -9 126 -10 67 -1 134 -7 148 -12 15 -6 66 -13 115 -15 48
-3 99 -9 114 -15 14 -5 74 -9 132 -9 58 1 129 -1 156 -5 28 -3 82 -5 120 -4
126 3 159 2 235 -6 92 -9 101 -9 175 -1 33 4 76 7 95 8 56 1 261 -21 313 -33
29 -7 91 -9 157 -6 152 8 155 6 156 -140 1 -59 4 -189 7 -288 4 -122 1 -222
-9 -310 -8 -71 -18 -179 -24 -239 -5 -59 -12 -116 -15 -125 -3 -9 -6 -44 -6
-76 -1 -33 -5 -65 -10 -70 -19 -24 -7 -625 16 -811 8 -64 12 -121 9 -125 -3
-5 -40 -7 -82 -4 -79 5 -178 -6 -292 -32 -36 -8 -108 -23 -160 -33 -52 -10
-122 -26 -155 -35 -34 -9 -137 -20 -235 -26 -96 -5 -212 -16 -256 -24 -45 -8
-128 -15 -185 -15 -102 -1 -132 -4 -334 -34 -55 -9 -139 -16 -187 -16 -48 0
-120 -4 -160 -9 -214 -28 -277 -33 -423 -35 -169 -3 -396 8 -530 24 -198 24
-352 46 -415 59 -25 6 -81 17 -125 26 -44 9 -94 21 -111 26 -17 5 -49 9 -72 9
-22 0 -43 4 -46 9 -13 20 148 111 197 111 13 0 33 11 45 25 21 24 56 32 116
26 11 -1 26 5 35 13 9 7 32 17 51 21 42 9 70 31 70 57 0 11 -24 45 -54 76 -69
73 -90 112 -63 112 8 0 22 9 31 19 23 26 14 109 -17 147 l-20 26 46 44 c51 47
54 56 32 94 -8 14 -14 35 -15 46 0 23 -23 34 -72 34 -25 0 -44 6 -103 31 -11
5 -32 13 -47 19 -32 11 -34 20 -12 62 28 53 84 227 84 258 0 17 -5 48 -12 69
l-12 38 -132 -1 c-73 0 -135 2 -139 6 -4 4 2 19 14 34 11 15 21 31 21 36 0 5
22 43 50 84 46 69 49 77 43 119 l-6 45 -51 1 c-73 1 -139 12 -143 25 -2 6 14
19 35 28 33 15 55 17 139 11 70 -5 102 -4 107 4 4 6 16 11 27 11 24 0 26 32 2
51 -9 8 -42 15 -75 16 -33 1 -62 4 -65 7 -4 3 5 16 19 29 34 31 42 60 29 100
-12 35 -33 49 -153 109 -47 22 -58 33 -58 52 0 31 20 38 55 20 15 -8 38 -14
51 -14 14 0 39 -6 57 -13 18 -8 37 -12 43 -10 6 2 38 -3 71 -10 56 -14 193
-14 214 -1 5 3 9 20 9 38 l0 33 -122 0 c-100 0 -132 4 -173 20 -27 12 -65 25
-84 30 -34 8 -55 33 -29 33 7 0 24 16 38 35 14 18 33 36 43 38 28 8 20 54 -23
145 -46 96 -48 109 -17 115 42 7 322 -4 355 -14z m-1031 -433 c23 -25 38 -47
35 -50 -10 -10 21 -86 35 -86 7 0 13 5 13 11 0 5 5 7 10 4 6 -3 10 1 10 9 0
22 17 20 30 -3 21 -41 13 -51 -35 -44 -25 3 -45 2 -45 -2 0 -4 16 -33 35 -65
19 -32 35 -63 35 -69 0 -6 -12 -18 -26 -28 -39 -25 -110 -21 -177 12 -30 15
-63 25 -71 22 -22 -9 -20 -44 4 -74 28 -35 25 -50 -14 -89 -38 -38 -68 -43
-88 -16 -7 9 -21 22 -31 27 -10 6 -28 33 -39 60 -29 74 -33 80 -55 83 -26 4
-47 -23 -46 -56 2 -33 -39 -69 -102 -87 -63 -19 -69 -8 -60 105 5 63 4 90 -4
90 -14 0 -127 -112 -165 -163 -20 -27 -34 -37 -49 -35 -34 5 -35 53 -2 88 23
24 24 28 11 40 -11 9 -13 17 -6 30 10 18 -2 70 -15 70 -22 0 -64 -34 -75 -60
-11 -26 -18 -30 -49 -30 -42 0 -101 33 -101 56 0 27 86 107 108 100 12 -4 27
4 47 24 28 29 28 30 10 50 -16 18 -17 25 -6 60 10 35 16 40 41 40 21 0 34 -8
47 -27 10 -16 28 -38 40 -50 19 -19 22 -29 17 -61 -6 -36 -3 -40 39 -75 53
-43 122 -56 205 -38 40 8 59 8 90 -3 53 -19 262 -27 306 -12 72 25 111 107 80
171 -19 40 -46 55 -100 55 l-35 0 21 30 c33 47 76 42 127 -14z m-87 -95 c7
-14 7 -22 -1 -27 -12 -7 -29 12 -29 34 0 19 18 14 30 -7z m-251 -415 c32 -33
33 -37 22 -65 -10 -23 -10 -42 -1 -86 7 -31 10 -65 7 -74 -2 -10 0 -44 5 -77
5 -32 9 -74 9 -93 1 -53 47 -169 90 -229 21 -31 39 -61 39 -69 0 -16 -65 -83
-81 -83 -14 0 -46 40 -71 89 -50 96 -64 254 -29 332 l20 44 -21 22 c-12 13
-28 23 -36 23 -18 0 -52 -29 -52 -43 0 -12 -56 -173 -69 -197 -30 -58 -49 -87
-67 -102 -12 -10 -25 -29 -28 -43 -5 -21 -11 -24 -35 -20 -16 3 -42 -2 -57
-10 -65 -34 -71 -9 -13 54 121 132 169 259 185 484 5 83 9 100 27 112 12 8 27
15 34 15 7 0 23 11 37 25 33 33 46 32 85 -9z m-75 -670 c20 -41 43 -77 51 -80
30 -11 14 -26 -28 -26 -24 0 -48 -5 -54 -11 -17 -17 -39 -4 -70 42 -25 38 -26
42 -10 54 9 7 17 16 17 20 0 8 48 75 54 75 2 0 20 -33 40 -74z m-956 -246 c22
-18 24 -23 12 -30 -8 -6 -20 -10 -27 -10 -6 0 -19 -10 -28 -22 -16 -23 -16
-23 -30 -4 -21 28 -19 46 12 91 25 36 28 38 31 18 2 -13 15 -32 30 -43z m2294
-93 c27 -20 56 -73 45 -84 -3 -3 -32 1 -64 9 -50 12 -60 18 -75 48 -16 34 -16
36 3 52 23 19 36 15 91 -25z m-2417 -159 c39 -39 58 -52 105 -75 44 -21 45
-22 20 -31 -27 -10 -30 -9 -71 21 -20 14 -31 17 -46 9 -15 -9 -26 -4 -58 22
-40 34 -41 50 -1 66 11 5 23 9 25 9 2 1 14 -9 26 -21z"/>
<path d="M8940 8862 c-38 -25 -90 -74 -90 -84 0 -5 -9 -29 -20 -53 -22 -48
-18 -75 10 -75 10 0 25 -3 34 -6 10 -4 19 4 29 28 8 18 34 52 58 76 41 40 46
42 86 36 41 -6 43 -5 43 19 0 18 -9 31 -30 44 -16 9 -30 21 -30 25 0 14 -64 7
-90 -10z"/>
<path d="M9193 8811 c-13 -11 -23 -24 -23 -29 0 -5 -7 -23 -15 -38 -8 -16 -15
-49 -15 -73 0 -43 0 -43 -32 -38 -55 8 -87 -18 -88 -70 0 -17 53 -43 87 -43
47 0 115 -29 156 -67 51 -46 106 -70 118 -51 5 7 9 18 9 25 0 17 -68 95 -107
121 -41 28 -53 56 -53 126 0 43 4 56 25 74 59 52 -2 113 -62 63z"/>
<path d="M9791 8804 c-44 -14 -91 -48 -91 -67 0 -6 -7 -18 -16 -28 -37 -41 22
-70 75 -36 17 10 31 22 31 27 0 4 21 10 46 14 37 5 53 2 78 -13 62 -39 77 25
17 69 -57 40 -91 48 -140 34z"/>
<path d="M10228 8728 c-26 -26 -48 -55 -48 -63 0 -10 -9 -12 -34 -8 -51 8
-120 -30 -146 -80 -20 -37 -20 -40 -4 -58 22 -24 39 -24 75 1 15 12 42 26 59
32 39 13 60 -4 84 -66 9 -24 25 -47 34 -50 9 -3 22 -8 28 -11 7 -4 17 8 23 27
10 29 8 39 -18 91 -35 69 -32 76 37 127 44 32 62 36 91 21 25 -14 46 2 33 25
-20 37 -47 52 -106 56 l-59 5 -49 -49z"/>
<path d="M10540 8574 c-6 -14 -10 -31 -10 -38 0 -22 33 -43 79 -50 46 -7 101
-39 101 -59 0 -7 9 -23 19 -37 17 -21 22 -23 45 -12 33 15 33 41 2 90 -29 47
-36 52 -121 96 -82 43 -102 45 -115 10z"/>
<path d="M8851 8343 c-33 -6 -71 -32 -71 -48 0 -7 -7 -18 -15 -25 -13 -11 -12
-15 9 -31 30 -24 33 -24 85 2 51 25 100 19 170 -18 l46 -24 3 28 c6 43 -61 98
-128 107 -28 4 -56 8 -63 10 -6 2 -23 1 -36 -1z"/>
<path d="M10684 8223 c-4 -22 -2 -43 5 -54 19 -32 13 -58 -19 -74 -17 -9 -40
-13 -50 -10 -26 8 -61 -42 -39 -56 13 -8 73 -13 129 -11 84 4 108 85 53 180
-43 74 -68 83 -79 25z"/>
<path d="M11718 6948 c-15 -12 -15 -20 -3 -83 20 -105 37 -339 29 -406 -7 -61
-17 -75 -27 -37 -5 18 -8 19 -21 8 -9 -7 -16 -21 -16 -31 0 -10 -11 -26 -24
-34 -23 -15 -27 -15 -50 0 -14 10 -42 45 -63 79 -49 82 -62 96 -90 96 -39 0
-26 18 37 50 54 27 60 33 60 61 0 31 -1 31 -36 26 -19 -3 -75 -26 -123 -51
-48 -25 -108 -50 -134 -56 -54 -14 -116 -76 -118 -118 -3 -70 24 -143 56 -156
65 -24 142 14 203 102 24 34 47 62 51 62 4 0 29 -29 55 -65 47 -64 92 -105
117 -105 7 0 26 12 41 27 l28 27 33 -31 c64 -61 140 -63 238 -8 55 30 74 49
92 95 48 116 -74 213 -219 176 l-32 -8 -6 103 c-8 128 -25 248 -37 272 -11 20
-20 21 -41 5z m-338 -470 c-42 -64 -111 -118 -150 -118 -13 0 -22 9 -26 27
-12 47 13 72 116 118 52 23 97 41 99 39 2 -2 -16 -31 -39 -66z m596 27 c37
-24 32 -64 -13 -107 -42 -40 -84 -61 -108 -52 -8 4 -22 1 -31 -6 -25 -22 -33
1 -23 65 11 67 30 102 62 115 28 12 83 5 113 -15z"/>
<path d="M12201 6811 c-20 -27 -21 -33 -8 -46 9 -8 17 -20 20 -27 3 -10 10 -8
26 6 26 23 27 47 3 76 l-19 23 -22 -32z"/>
<path d="M12670 6661 c-85 -17 -180 -127 -180 -209 0 -71 45 -139 128 -195 83
-57 193 -78 254 -50 102 47 114 56 146 106 58 93 34 188 -70 276 -85 72 -169
93 -278 72z m196 -76 c60 -30 123 -90 126 -119 4 -52 3 -63 -9 -86 -42 -87
-183 -141 -278 -107 -33 12 -40 19 -40 41 0 21 -7 31 -30 41 -78 33 -99 105
-50 169 64 84 184 110 281 61z"/>
<path d="M12206 6617 c-3 -13 -1 -39 5 -58 5 -19 7 -69 3 -114 -5 -74 -4 -82
16 -100 51 -46 73 33 50 188 -14 100 -17 107 -45 107 -16 0 -25 -7 -29 -23z"/>
<path d="M11889 5608 c-19 -16 -46 -59 -78 -123 -13 -27 -32 -59 -41 -70 -27
-32 -60 -138 -60 -191 0 -84 49 -139 113 -127 60 12 127 111 127 188 0 31 -46
73 -86 81 -42 8 -43 22 -4 86 17 26 30 51 30 54 0 3 12 21 27 41 20 26 24 39
17 51 -14 22 -27 25 -45 10z m-4 -320 c22 -10 25 -16 19 -42 -8 -40 -39 -83
-65 -91 -52 -17 -86 59 -52 116 19 32 52 38 98 17z"/>
<path d="M12545 5594 c-14 -22 -16 -41 -11 -113 3 -47 8 -129 11 -181 8 -124
40 -165 80 -103 17 26 17 33 1 148 -9 66 -16 149 -16 186 0 88 -29 117 -65 63z"/>
<path d="M13054 5602 c-33 -25 -35 -39 -14 -119 13 -48 25 -129 29 -211 4 -73
12 -137 17 -141 5 -5 19 -12 30 -15 30 -9 48 37 40 101 -3 26 -13 107 -21 178
-9 72 -21 145 -26 163 -11 33 -38 56 -55 44z"/>
<path d="M11534 5576 c-16 -12 -19 -28 -20 -103 -1 -48 -5 -130 -9 -181 -7
-81 -6 -95 10 -112 15 -17 43 -27 46 -17 9 25 25 267 21 326 -5 88 -17 109
-48 87z"/>
<path d="M12083 5564 c-13 -13 -30 -39 -38 -56 -11 -28 -11 -38 1 -66 7 -18
24 -42 36 -51 l22 -18 -38 -33 c-23 -20 -35 -39 -31 -48 3 -8 -6 -29 -19 -46
-44 -58 -6 -140 70 -152 75 -11 164 52 164 118 0 31 -37 108 -52 108 -4 0 -8
7 -8 15 0 8 5 15 10 15 6 0 10 6 10 13 0 8 9 22 20 32 55 49 -4 166 -94 187
-23 5 -34 1 -53 -18z m71 -79 c29 -27 32 -43 12 -70 -13 -18 -15 -16 -40 24
-41 64 -23 93 28 46z m13 -232 l24 -32 -20 -20 c-32 -32 -111 -26 -111 8 0 21
57 84 72 79 6 -2 22 -18 35 -35z"/>
<path d="M12782 5247 c-26 -28 -27 -31 -5 -57 23 -27 47 -25 67 5 21 31 20 45
-1 61 -25 19 -37 17 -61 -9z"/>
<path d="M11348 5219 c-24 -14 -24 -75 -1 -88 40 -22 69 31 43 80 -12 22 -18
23 -42 8z"/>
<path d="M12316 5205 c-21 -32 -20 -37 9 -65 24 -23 25 -23 45 -5 26 24 25 60
-2 79 -29 21 -33 20 -52 -9z"/>
<path d="M2360 9262 c-40 -32 3 -95 60 -85 39 6 52 43 30 84 -14 24 -60 25
-90 1z"/>
<path d="M2045 9059 c-40 -36 -44 -63 -16 -124 23 -51 47 -71 93 -79 65 -12
109 24 124 101 6 33 -36 90 -83 113 -58 27 -76 25 -118 -11z m111 -63 c36 -36
39 -43 24 -66 -8 -12 -11 -12 -28 3 -10 9 -25 17 -32 17 -17 0 -50 29 -50 45
0 15 21 35 38 35 8 0 29 -15 48 -34z"/>
<path d="M1796 8931 c-15 -17 -15 -20 2 -41 16 -20 21 -21 40 -9 24 15 28 39
10 57 -17 17 -32 15 -52 -7z"/>
<path d="M1943 8863 c-24 -9 -14 -54 17 -81 44 -39 39 -52 -20 -52 -63 0 -111
-19 -133 -54 -21 -31 -53 -34 -75 -5 -22 26 -130 63 -147 49 -21 -17 -6 -60
24 -65 55 -12 138 -60 188 -112 29 -29 58 -53 64 -53 24 0 0 -25 -27 -28 -16
-1 -46 -10 -67 -19 -35 -15 -38 -15 -57 2 -29 26 -46 6 -54 -64 -5 -46 -11
-60 -26 -64 -10 -3 -26 -22 -35 -43 -8 -20 -24 -44 -35 -51 -11 -8 -20 -22
-20 -32 0 -9 -11 -27 -25 -39 l-25 -22 -38 19 c-21 11 -44 27 -51 35 -18 21
-23 107 -10 163 5 25 7 48 4 51 -13 13 -47 -38 -70 -104 -41 -115 -33 -141 60
-193 47 -27 55 -35 55 -60 0 -23 -8 -34 -35 -50 -26 -15 -35 -27 -35 -46 0
-54 49 -39 122 37 l37 39 79 -41 c90 -45 102 -47 125 -22 23 25 22 28 -15 41
-46 16 -136 72 -143 88 -2 8 7 37 20 64 14 27 23 54 19 60 -8 13 25 81 36 74
5 -3 16 -27 25 -55 11 -32 23 -51 37 -56 48 -15 117 83 118 169 0 34 4 47 14
47 24 0 74 49 86 84 7 21 21 38 38 45 15 7 38 21 52 32 21 18 24 28 23 81 -2
38 -8 67 -18 78 -22 24 -19 30 14 30 21 0 32 6 36 21 6 17 -3 30 -41 65 -47
41 -64 48 -91 37z m18 -193 c44 -24 0 -100 -57 -100 -25 0 -32 7 -44 51 -8 27
-6 31 23 43 40 18 53 19 78 6z m-215 -275 c-3 -9 3 -20 14 -27 25 -16 25 -25
-1 -67 -16 -27 -23 -31 -30 -20 -13 21 -11 103 3 117 16 16 21 15 14 -3z"/>
<path d="M4583 8290 c-23 -13 -33 -29 -37 -52 -15 -98 -21 -178 -15 -195 3
-10 0 -33 -8 -52 -18 -42 -19 -101 -3 -132 25 -48 39 -57 86 -53 54 3 71 15
83 60 12 44 6 77 -24 137 -14 27 -22 54 -18 60 4 7 21 31 39 54 41 54 48 86
29 126 -14 30 -63 67 -88 67 -7 0 -26 -9 -44 -20z m61 -70 c34 -13 34 -49 0
-81 -25 -24 -26 -24 -40 -5 -15 21 -17 39 -8 74 7 25 12 26 48 12z m-20 -255
c9 -14 19 -39 23 -55 5 -27 3 -30 -20 -30 -32 0 -57 24 -57 55 0 57 27 72 54
30z"/>
<path d="M4988 8264 c-16 -8 -28 -16 -28 -18 0 -1 8 -27 18 -57 18 -56 18 -64
-8 -218 -9 -53 -8 -67 5 -87 18 -28 41 -31 53 -6 13 24 23 349 12 378 -11 28
-15 28 -52 8z"/>
<path d="M4129 8254 c-8 -9 -15 -38 -15 -63 -1 -25 -5 -98 -8 -161 -6 -104 -5
-117 12 -139 37 -45 48 -23 52 96 7 253 6 277 -11 281 -9 1 -22 -5 -30 -14z"/>
<path d="M4395 8243 c-39 -42 -115 -186 -115 -219 0 -16 -7 -39 -15 -52 -12
-16 -13 -27 -5 -41 5 -11 10 -30 10 -44 0 -48 82 -63 128 -22 37 32 61 92 52
131 -7 30 -53 83 -73 84 -15 0 7 56 45 112 22 32 37 62 33 68 -11 17 -33 11
-60 -17z m-7 -280 c5 -31 -15 -63 -38 -63 -16 0 -20 7 -20 38 0 45 6 54 35 50
12 -2 21 -12 23 -25z"/>
<path d="M5347 8252 c-10 -10 -17 -24 -17 -30 0 -19 42 -42 66 -36 56 14 144
-45 144 -96 0 -39 -14 -51 -51 -49 -84 6 -95 2 -137 -55 -59 -78 -62 -138 -8
-156 57 -19 114 -3 167 47 l48 44 20 -20 c11 -11 25 -38 31 -61 12 -45 34 -61
55 -39 23 25 26 54 7 75 -10 10 -33 42 -52 69 -33 47 -35 55 -35 130 -1 68 -5
86 -25 117 -14 20 -41 46 -61 58 -48 26 -129 28 -152 2z m139 -286 c19 -14 19
-15 -2 -43 -16 -21 -31 -29 -63 -31 -57 -4 -66 20 -23 60 36 31 59 35 88 14z"/>
<path d="M6683 8259 c-12 -12 -34 -25 -89 -55 -28 -15 -52 -50 -69 -99 -11
-34 -25 3 -25 67 0 53 -2 58 -26 64 -75 19 -138 -23 -185 -121 -35 -72 -35
-84 -8 -119 26 -33 53 -33 100 0 21 14 43 23 48 19 6 -3 11 -35 11 -70 0 -44
5 -68 16 -79 20 -21 19 -21 43 12 18 26 19 32 6 68 -13 39 -11 111 4 127 5 4
14 -5 21 -22 20 -49 55 -44 122 18 15 13 31 21 35 17 4 -4 8 -40 9 -79 2 -98
11 -137 33 -137 35 0 67 61 44 84 -5 4 -15 73 -24 153 -11 100 -20 148 -30
154 -18 11 -23 11 -36 -2z m-252 -99 c19 0 8 -33 -23 -70 -41 -49 -82 -56 -72
-12 10 40 53 94 71 88 8 -3 19 -6 24 -6z m204 -30 c-10 -11 -25 -20 -34 -20
-12 1 -10 5 8 20 30 26 49 26 26 0z"/>
<path d="M6089 8231 c-61 -39 -113 -95 -120 -132 -4 -16 0 -52 8 -78 11 -39
19 -50 40 -55 30 -8 69 14 85 50 22 48 38 17 38 -77 0 -39 5 -63 18 -78 26
-32 47 -13 44 41 -1 24 -4 113 -6 198 l-3 155 -29 3 c-18 1 -46 -9 -75 -27z
m17 -108 c-15 -62 -28 -84 -50 -81 -33 5 -31 37 5 74 40 41 53 43 45 7z"/>
<path d="M6939 8212 c-93 -96 -111 -120 -104 -143 7 -20 11 -21 95 -14 100 8
99 9 99 -74 0 -24 8 -71 17 -103 15 -48 22 -58 38 -56 33 5 41 51 22 132 -17
72 -20 91 -32 206 -9 84 -15 95 -56 98 -27 1 -41 -6 -79 -46z m61 -57 c0 -16
-38 -40 -48 -30 -4 4 4 15 17 26 28 23 31 23 31 4z"/>
<path d="M3182 8208 c-17 -17 -14 -62 8 -148 13 -47 21 -111 22 -177 2 -114 8
-134 35 -117 15 9 18 25 17 100 0 49 -8 143 -17 209 -9 66 -17 121 -17 122 0
1 -8 7 -18 12 -13 7 -23 6 -30 -1z"/>
<path d="M3597 8213 c-24 -23 8 -72 48 -73 11 0 44 -11 73 -25 55 -25 61 -39
43 -88 -7 -17 -20 -26 -46 -30 -41 -7 -65 -23 -65 -43 0 -22 30 -44 61 -44 19
0 42 -12 69 -36 65 -59 108 -29 50 36 -32 36 -33 44 -21 130 9 61 0 90 -41
126 -42 37 -151 68 -171 47z"/>
<path d="M3453 8174 c-114 -77 -155 -177 -106 -258 16 -29 75 -27 107 3 35 33
56 22 56 -28 0 -55 42 -95 57 -55 3 9 1 82 -5 161 -11 133 -30 214 -49 213 -4
-1 -32 -17 -60 -36z m37 -80 c0 -9 -12 -43 -27 -75 -29 -59 -58 -82 -74 -58
-17 27 2 73 44 111 46 42 57 46 57 22z"/>
<path d="M5800 8168 c-23 -38 -12 -68 25 -68 31 0 44 40 25 76 -18 32 -26 30
-50 -8z"/>
<path d="M5836 7961 c-14 -27 -14 -31 2 -51 21 -26 50 -18 59 18 13 54 -36 82
-61 33z"/>
<path d="M5180 7945 c-26 -27 -22 -47 13 -69 35 -22 76 36 55 77 -12 24 -41
21 -68 -8z"/>
<path d="M3926 7938 c-14 -16 -16 -26 -9 -37 17 -27 49 -24 72 6 21 26 21 28
5 40 -26 19 -47 16 -68 -9z"/>
<path d="M4804 7932 c-6 -4 -19 -21 -28 -39 l-16 -32 32 -17 c31 -16 32 -16
50 6 23 28 23 52 0 73 -21 19 -23 20 -38 9z"/>
<path d="M1242 7617 c-23 -23 -42 -52 -42 -62 0 -41 27 -93 65 -130 39 -36 42
-37 102 -33 96 6 136 44 149 141 6 44 5 46 -20 53 -30 7 -56 -9 -56 -36 0 -30
-31 -80 -50 -80 -29 0 -42 26 -42 87 0 63 -18 103 -46 103 -10 0 -37 -19 -60
-43z"/>
<path d="M1155 7458 c-23 -39 -21 -97 5 -148 9 -19 20 -47 24 -62 5 -24 11
-26 62 -30 46 -2 59 0 75 18 l20 22 -29 21 c-17 11 -35 21 -41 21 -6 0 -27 14
-47 32 -33 29 -36 35 -31 73 6 42 0 85 -12 85 -4 0 -15 -15 -26 -32z"/>
<path d="M1086 7200 c-51 -16 -66 -38 -66 -96 0 -48 4 -57 38 -92 52 -55 69
-63 106 -47 17 7 45 19 63 25 23 9 39 25 53 56 23 47 21 71 -11 100 -18 16
-21 16 -35 2 -12 -12 -13 -19 -3 -42 9 -20 10 -29 1 -38 -8 -8 -14 -4 -22 18
-46 117 -63 133 -124 114z m55 -100 c9 -60 -11 -85 -41 -54 -17 17 -20 28 -14
63 6 35 10 42 28 39 17 -2 22 -12 27 -48z"/>
<path d="M1023 6903 c-14 -3 -27 -18 -37 -44 -9 -22 -23 -42 -32 -46 -8 -3
-47 9 -86 26 -69 30 -112 39 -121 23 -3 -4 -3 -19 0 -33 4 -24 11 -27 56 -33
29 -4 61 -13 73 -21 11 -7 40 -19 65 -26 24 -7 51 -18 59 -24 40 -32 119 -67
138 -61 21 7 39 38 25 44 -4 1 -33 18 -63 36 -42 24 -56 39 -58 59 -3 21 2 28
22 33 13 3 34 3 45 -1 12 -3 37 -1 57 5 30 10 33 14 22 27 -28 35 -96 49 -165
36z"/>
<path d="M922 6620 c-11 -18 -10 -25 7 -49 11 -15 36 -39 55 -52 39 -26 46
-46 19 -55 -85 -28 -90 -39 -40 -104 53 -71 59 -83 41 -93 -9 -5 -44 -6 -78
-3 -74 8 -88 1 -77 -39 6 -25 14 -31 47 -37 93 -16 186 0 200 36 8 21 -13 90
-36 116 -26 30 -25 58 3 69 12 5 37 22 56 38 l34 29 -40 40 c-43 42 -45 44
-112 92 -52 38 -62 39 -79 12z"/>
<path d="M20600 6468 c-120 -12 -309 -16 -377 -8 -70 9 -280 -5 -361 -24 -37
-8 -105 -20 -152 -26 -47 -6 -137 -18 -200 -27 -63 -9 -142 -17 -175 -19 -254
-10 -281 -21 -269 -111 3 -28 1 -73 -5 -100 -6 -26 -13 -64 -16 -83 l-5 -35
-123 2 c-118 3 -123 2 -149 -22 -30 -28 -40 -80 -35 -193 3 -58 0 -75 -14 -88
-20 -18 -24 -18 -169 -9 l-116 8 -12 -28 c-13 -28 -3 -83 19 -111 5 -6 11 -69
13 -140 3 -123 -7 -217 -34 -324 -26 -101 -55 -396 -65 -650 -3 -80 -8 -185
-11 -235 -6 -103 -5 -155 2 -166 13 -21 12 -239 -1 -379 -36 -380 -40 -461
-44 -793 -4 -289 -12 -272 136 -280 59 -4 250 -6 423 -6 173 0 353 -3 400 -6
47 -3 92 -5 100 -5 8 0 116 0 240 -2 505 -6 1219 4 1239 17 12 7 118 13 336
20 83 3 166 7 185 9 19 3 89 7 155 11 66 3 147 8 180 11 33 3 110 7 170 9 186
7 500 31 525 41 8 3 112 8 230 10 197 3 258 6 420 20 30 3 170 0 310 -6 140
-6 307 -13 370 -16 63 -3 128 -9 144 -14 66 -22 112 -7 129 42 3 9 -1 56 -9
105 -7 48 -14 90 -14 93 0 3 43 6 96 8 81 2 101 6 135 27 l39 25 0 93 0 92 43
22 c25 12 81 26 137 33 52 7 108 19 123 28 24 15 27 21 20 47 -16 64 4 642 33
930 10 107 18 289 20 491 2 176 4 338 5 360 3 68 -12 445 -21 539 -6 50 -10
124 -10 166 0 116 -37 340 -59 362 -16 16 -125 28 -281 32 -141 3 -338 28
-373 47 -12 6 -46 13 -77 15 -82 6 -110 9 -285 28 -169 19 -229 21 -525 15
-179 -3 -211 -1 -330 20 -30 5 -118 12 -195 15 -77 4 -165 8 -195 10 -30 2
-174 4 -320 5 -146 1 -285 6 -310 12 -25 6 -81 10 -125 9 -44 0 -123 6 -175
15 -52 8 -162 19 -245 24 -82 5 -179 16 -215 25 -86 21 -165 25 -280 13z m201
-115 c8 -6 25 -11 39 -12 14 0 45 -3 70 -6 25 -2 86 -7 135 -10 50 -3 116 -10
148 -16 31 -5 114 -14 185 -20 70 -5 184 -15 253 -22 106 -10 337 -13 494 -6
22 1 81 -1 130 -5 50 -3 167 -9 260 -12 97 -3 197 -12 233 -21 64 -15 113 -14
292 6 48 6 102 6 125 2 22 -5 91 -10 154 -11 62 -1 123 -5 135 -10 35 -13 83
-19 211 -25 66 -4 127 -11 137 -16 10 -6 31 -12 46 -13 15 -2 45 -9 67 -15 45
-12 326 -31 457 -31 l87 0 15 -52 c18 -61 35 -241 41 -413 2 -66 7 -147 11
-180 11 -100 7 -944 -5 -1015 -6 -36 -11 -101 -11 -145 0 -44 -5 -107 -11
-140 -5 -33 -12 -110 -15 -172 -2 -61 -8 -138 -12 -170 -4 -32 -5 -94 -2 -138
4 -44 4 -105 2 -135 -3 -30 -6 -84 -6 -120 -1 -36 -4 -68 -9 -71 -4 -3 -44 -6
-90 -7 -45 -2 -97 -5 -114 -8 -27 -5 -33 -3 -34 12 -1 11 -3 30 -6 44 -6 38
-4 289 4 435 4 72 7 173 7 225 0 52 0 244 0 425 -1 694 3 1183 10 1271 11 131
11 131 -121 137 -60 3 -148 11 -198 17 -49 6 -106 13 -125 15 -19 2 -60 11
-90 20 -36 10 -116 17 -230 21 -96 3 -197 7 -225 10 -27 2 -93 6 -145 9 -52 2
-126 7 -165 10 -67 7 -402 7 -455 0 -41 -5 -233 -18 -255 -18 -64 2 -397 15
-555 23 -204 10 -290 20 -335 39 -18 8 -88 14 -170 16 -162 4 -277 12 -355 26
-83 14 -154 20 -270 21 -184 1 -511 -9 -635 -21 -66 -6 -226 -13 -355 -16
-129 -2 -264 -8 -300 -13 -36 -5 -76 -6 -90 -2 -24 6 -25 9 -25 95 l0 89 30 8
c17 5 110 15 207 23 97 7 183 17 190 22 7 4 38 9 68 10 59 1 169 16 265 34 51
10 159 13 599 20 38 0 77 4 87 7 30 11 205 7 220 -5z m-71 -360 c14 -3 32 -8
40 -10 32 -7 112 -14 295 -23 114 -5 209 -15 238 -24 27 -9 128 -20 240 -26
105 -6 199 -13 207 -15 15 -4 401 -20 450 -18 14 1 86 7 160 14 210 20 704 14
858 -11 35 -6 130 -10 210 -9 150 3 211 -3 266 -26 17 -7 67 -16 111 -20 44
-3 121 -13 170 -21 50 -8 107 -14 127 -14 52 0 60 -21 53 -123 -3 -45 -8 -194
-12 -332 -3 -137 -7 -288 -9 -335 -2 -47 -3 -161 -3 -255 0 -93 -1 -231 -1
-305 -1 -74 -1 -169 -1 -210 2 -241 -1 -374 -6 -384 -4 -6 -5 -64 -3 -131 1
-66 3 -131 2 -145 -3 -166 -1 -258 8 -290 12 -46 21 -178 14 -202 -7 -24 -90
-25 -115 -2 -22 20 -46 12 -58 -18 -11 -29 -17 -15 -27 72 -19 169 -21 764 -3
818 10 29 10 100 0 327 -7 159 -14 306 -17 325 -11 78 2 720 16 805 22 128 23
145 11 159 -9 11 -19 12 -35 6 -21 -8 -71 -7 -311 5 -60 3 -222 8 -360 10
-137 2 -277 8 -310 15 -122 22 -172 29 -250 33 -44 3 -174 10 -290 16 -115 6
-268 19 -339 27 -81 10 -193 15 -300 14 -278 -4 -540 1 -746 15 -41 3 -138 7
-215 9 -130 4 -318 24 -438 47 -34 6 -54 6 -63 -2 -7 -6 -23 -7 -36 -3 -27 8
-154 13 -368 12 -197 0 -249 -3 -335 -17 -84 -15 -75 -14 -347 -12 -120 2
-221 0 -225 -2 -12 -7 -103 -20 -146 -21 l-38 -1 -1 104 c0 77 4 106 14 112 7
4 85 9 173 12 88 3 172 8 188 11 15 4 159 9 320 12 351 6 389 8 493 22 44 6
156 9 250 7 93 -3 194 -1 224 3 57 9 226 5 270 -5z m-582 -333 c45 -5 88 -7
96 -4 15 6 245 -24 260 -34 6 -3 69 -6 141 -7 71 -1 180 -5 240 -9 250 -15
583 -24 625 -17 25 4 60 3 77 -1 20 -6 49 -5 73 2 39 11 324 5 343 -7 14 -9
441 -43 597 -48 84 -2 232 -14 270 -21 49 -10 246 -24 320 -24 41 1 183 -2
315 -6 132 -4 265 -7 295 -8 l55 -1 -1 -70 c-1 -38 -4 -124 -7 -190 -11 -212
-10 -542 2 -860 7 -170 9 -348 6 -395 -3 -47 -8 -125 -12 -175 -15 -197 0
-611 28 -775 10 -63 19 -130 19 -148 l0 -32 -102 5 c-57 3 -155 10 -218 15
-245 19 -914 13 -1035 -10 -81 -15 -251 -31 -375 -34 -110 -3 -184 -7 -370
-23 -47 -4 -125 -7 -175 -8 -49 -1 -135 -7 -189 -13 -55 -7 -185 -14 -289 -17
-177 -5 -388 -19 -447 -29 -23 -4 -456 -17 -655 -20 -44 -1 -120 2 -170 7 -97
8 -429 15 -725 16 -102 0 -291 0 -420 1 -292 1 -310 1 -335 -3 -27 -3 -31 29
-11 88 14 41 14 49 1 74 -10 20 -13 50 -10 98 2 37 7 129 10 203 3 74 11 173
16 220 20 179 38 557 27 602 -5 25 -7 102 -4 183 4 77 9 194 11 260 11 278 24
411 66 660 42 250 48 315 33 396 -23 129 -27 121 69 115 45 -2 100 -6 122 -8
22 -2 81 2 130 9 50 8 127 15 172 17 45 3 88 8 95 12 7 4 26 7 43 6 185 -15
235 -16 365 -4 80 8 207 15 284 17 76 2 140 6 142 8 5 5 93 -1 202 -13z"/>
<path d="M20851 5097 c-28 -31 -27 -39 9 -61 17 -9 27 -22 24 -28 -4 -6 -8
-145 -10 -309 -3 -233 -1 -303 10 -323 l13 -26 21 23 c19 20 21 36 23 130 1
59 3 107 5 107 5 0 66 -42 89 -62 121 -102 169 -138 179 -135 6 2 12 17 14 33
3 31 -5 40 -148 159 -41 34 -80 81 -80 96 0 3 24 16 53 29 28 12 62 27 74 33
12 5 42 28 68 51 46 40 47 42 48 106 2 61 0 66 -31 97 -18 18 -60 47 -94 64
-52 26 -75 31 -153 35 -85 3 -94 2 -114 -19z m241 -106 c25 -13 58 -33 73 -45
l28 -22 -27 -43 c-20 -31 -42 -49 -79 -66 -65 -30 -135 -46 -143 -33 -5 8 -3
35 12 148 4 25 8 56 9 70 2 14 4 26 4 26 5 6 87 -18 123 -35z"/>
<path d="M22815 5090 c-3 -11 -4 -28 -1 -37 3 -10 6 -53 8 -97 l3 -79 -45 -3
c-34 -3 -51 -11 -78 -38 l-35 -34 23 -12 c12 -6 46 -14 76 -17 l54 -6 -1 -36
c0 -20 -7 -70 -15 -111 -27 -132 -29 -167 -6 -174 44 -14 52 1 81 142 6 30 11
78 11 108 0 47 3 56 22 63 21 8 85 7 116 -1 8 -1 18 7 23 20 13 35 -33 78 -95
87 -27 4 -50 14 -55 24 -5 9 -11 51 -13 93 -5 76 -15 100 -49 119 -14 7 -19 4
-24 -11z"/>
<path d="M19810 4964 c-55 -17 -61 -22 -130 -103 -30 -35 -79 -88 -109 -119
-58 -59 -73 -61 -98 -12 -10 21 -57 76 -116 138 -12 13 -46 37 -75 54 -48 27
-59 30 -105 24 -29 -4 -77 -10 -108 -14 -71 -9 -106 -33 -131 -89 -24 -55 -32
-175 -14 -218 8 -16 18 -52 25 -80 6 -27 13 -59 17 -71 5 -19 0 -22 -43 -28
-167 -23 -210 -33 -245 -57 -80 -54 -119 -129 -136 -262 -9 -68 -8 -69 24
-112 18 -23 74 -72 123 -109 49 -36 92 -70 95 -75 4 -6 26 -23 50 -39 36 -24
60 -31 154 -42 77 -9 112 -18 112 -26 0 -7 -17 -50 -39 -96 -77 -165 -125
-335 -116 -406 14 -107 46 -130 157 -113 66 11 232 73 259 97 8 8 19 14 22 14
8 0 98 59 154 102 l43 32 25 -24 c14 -13 28 -39 31 -59 10 -57 31 -81 100
-113 88 -41 218 -57 280 -33 51 19 69 39 79 85 16 79 8 130 -51 340 -15 52
-29 121 -31 153 -4 50 -3 57 14 57 10 0 70 26 133 58 92 46 120 65 143 98 40
57 55 151 39 247 -10 62 -17 76 -46 102 -45 41 -104 81 -146 103 -27 13 -35
23 -33 42 7 88 2 255 -7 292 -14 51 -19 71 -27 117 -8 45 -48 116 -76 134 -34
22 -144 28 -197 11z m164 -124 c41 -40 58 -113 63 -273 6 -152 0 -171 -46
-161 -14 4 -35 12 -46 19 -11 6 -56 15 -100 18 -125 10 -146 19 -210 93 -50
56 -56 68 -48 87 6 12 54 70 108 129 82 91 104 109 139 117 59 14 107 4 140
-29z m-742 2 c38 -14 61 -35 134 -122 48 -58 91 -108 96 -111 14 -9 -2 -61
-31 -104 l-27 -40 -129 -1 c-174 -2 -204 3 -227 43 -34 57 -60 173 -55 236 7
74 32 104 91 110 86 8 102 6 148 -11z m113 -482 c20 -7 24 -14 18 -23 -6 -6
-27 -55 -47 -107 -55 -142 -55 -142 -69 -138 -10 3 -135 240 -136 260 -1 4 20
5 47 3 36 -3 148 6 159 14 1 0 14 -4 28 -9z m316 -26 c17 -16 50 -67 73 -114
24 -47 62 -121 86 -165 l43 -81 -28 -64 c-16 -36 -35 -71 -44 -77 -18 -16 -87
-17 -96 -3 -4 6 -15 8 -25 5 -10 -3 -48 -6 -84 -7 -56 -1 -69 2 -87 20 -15 17
-31 22 -74 22 l-54 0 -35 54 c-20 29 -36 58 -36 63 0 11 42 109 85 198 13 28
34 75 45 105 29 76 40 83 128 77 64 -3 77 -8 103 -33z m-644 4 c11 -13 26 -39
33 -58 8 -19 26 -55 40 -80 14 -25 45 -85 68 -133 l43 -88 -22 -57 c-35 -88
-31 -85 -139 -79 -135 7 -152 16 -360 190 -39 33 -70 65 -70 73 0 8 7 47 16
85 14 62 20 73 52 93 44 28 94 45 182 61 104 20 134 18 157 -7z m883 -13 c23
-8 52 -15 65 -15 33 0 34 -6 19 -72 -19 -80 -49 -148 -66 -148 -8 0 -30 29
-49 65 -18 36 -40 65 -46 65 -7 0 -13 12 -13 28 -1 15 -7 38 -15 52 -8 14 -14
30 -15 36 0 14 66 8 120 -11z m236 -68 c130 -77 130 -77 128 -190 -2 -77 -21
-108 -84 -134 -19 -8 -42 -21 -50 -28 -21 -18 -141 -48 -151 -38 -5 5 -13 30
-18 57 -8 44 -6 52 28 114 20 37 49 106 65 155 16 48 32 87 36 87 5 0 25 -10
46 -23z m-752 -589 c30 -46 67 -101 82 -123 15 -22 36 -53 46 -68 11 -15 17
-36 13 -46 -14 -46 -211 -161 -362 -211 -83 -27 -130 -29 -140 -5 -7 19 35
164 59 203 15 25 19 43 14 72 -4 25 -1 48 8 67 8 15 30 63 50 105 l34 77 44 4
c103 9 92 14 152 -75z m224 47 c57 -2 106 -6 109 -9 16 -15 -23 -100 -68 -149
l-48 -52 -26 30 c-14 17 -34 46 -45 65 -10 19 -33 55 -49 80 -38 55 -38 62 -3
49 15 -6 74 -12 130 -14z m318 -42 c17 -59 30 -110 58 -221 9 -35 22 -75 30
-90 7 -15 16 -44 19 -66 12 -80 -42 -109 -162 -87 -84 15 -99 26 -154 105 -75
106 -73 95 -20 180 27 41 69 108 95 149 44 72 54 80 105 86 6 0 19 -25 29 -56z"/>
<path d="M19504 4196 c-17 -8 -41 -27 -53 -44 -38 -53 -22 -178 24 -196 31
-11 146 -6 174 8 40 21 81 85 81 128 0 90 -125 148 -226 104z"/>
<path d="M21412 4805 c-46 -25 -69 -56 -80 -108 -27 -122 -13 -194 49 -256 52
-52 109 -74 174 -66 30 4 60 13 66 21 6 8 17 14 24 14 15 0 69 90 60 99 -4 3
-29 -7 -57 -23 -59 -33 -102 -32 -177 6 -58 31 -59 49 -1 66 64 19 130 50 130
62 0 5 6 10 13 10 19 0 57 43 57 64 0 43 -31 84 -80 105 -55 24 -141 27 -178
6z m142 -85 c33 -12 33 -40 1 -63 -21 -15 -109 -37 -149 -37 -12 0 -1 77 14
95 14 17 95 20 134 5z"/>
<path d="M22029 4802 c-13 -9 -44 -28 -68 -41 -61 -33 -85 -55 -151 -138 -72
-90 -87 -130 -65 -172 19 -38 43 -51 95 -51 58 0 96 21 158 85 l53 55 25 -28
c87 -96 115 -113 154 -92 29 15 24 42 -12 65 -41 26 -71 89 -98 200 -21 87
-42 135 -59 135 -5 0 -19 -8 -32 -18z m4 -126 c18 -46 -61 -154 -143 -196 -30
-15 -38 -16 -53 -5 -38 27 21 125 111 185 50 33 77 38 85 16z"/>
<path d="M22531 4807 c-19 -6 -60 -37 -92 -70 -44 -44 -63 -73 -78 -120 -25
-72 -26 -95 -6 -123 49 -71 257 -75 294 -6 16 30 -1 38 -79 38 -78 -1 -124 16
-137 50 -13 34 78 148 127 157 41 9 63 53 35 73 -21 16 -18 16 -64 1z"/>
<path d="M20924 3978 c-3 -5 -15 -8 -27 -8 -26 0 -103 -37 -135 -65 -13 -11
-36 -46 -51 -78 l-28 -57 26 -34 c35 -46 95 -80 247 -141 148 -58 165 -77 115
-124 -38 -35 -91 -51 -178 -52 -80 -1 -117 13 -108 40 3 10 -1 24 -10 31 -12
10 -15 10 -15 -3 0 -8 -9 -17 -20 -20 -15 -4 -20 -14 -20 -40 0 -46 31 -83 77
-92 78 -15 263 2 263 24 0 3 14 12 30 19 35 16 54 49 63 107 5 34 2 48 -19 79
-25 36 -46 49 -182 107 -93 39 -158 77 -176 102 l-21 29 37 34 c25 23 48 34
67 34 16 0 42 5 58 11 30 12 70 16 168 18 48 1 63 5 72 21 16 24 7 47 -20 56
-30 10 -208 11 -213 2z"/>
<path d="M22462 3867 c-39 -42 -22 -77 32 -63 28 7 43 50 25 72 -16 20 -32 17
-57 -9z"/>
<path d="M22893 3794 c-94 -41 -184 -141 -217 -241 -15 -44 -15 -58 -5 -93 20
-68 110 -113 220 -112 76 0 111 17 136 65 l16 31 22 -44 c13 -25 35 -56 50
-70 24 -23 34 -25 108 -24 65 1 103 9 182 36 96 33 100 35 100 63 0 29 -1 30
-45 28 -25 -1 -77 -8 -116 -16 -78 -15 -156 -9 -179 14 -8 8 -17 26 -20 40 -6
24 -4 27 33 31 60 9 154 55 193 96 54 56 61 74 46 118 -18 56 -55 78 -137 82
-64 4 -73 2 -105 -22 -77 -59 -125 -158 -125 -259 0 -49 -3 -58 -16 -53 -8 3
-29 -4 -45 -16 -34 -25 -81 -27 -163 -5 -39 10 -53 20 -69 48 l-21 36 29 58
c30 58 75 103 130 129 17 8 41 26 54 40 20 21 22 28 11 41 -15 18 -25 18 -67
-1z m437 -102 l23 -18 -27 -22 c-35 -27 -133 -64 -160 -60 -11 2 -22 11 -24
20 -4 23 34 77 62 88 38 15 102 11 126 -8z"/>
<path d="M21383 3746 c-34 -19 -68 -50 -96 -87 -22 -29 -30 -56 -39 -124 -11
-83 -11 -89 11 -130 29 -55 72 -76 164 -83 77 -5 199 19 237 48 21 16 21 18 5
34 -12 11 -21 14 -29 7 -7 -6 -59 -11 -116 -12 -81 -1 -114 2 -145 16 -38 16
-38 18 -20 31 11 8 31 18 44 21 13 3 60 24 104 47 92 47 149 105 131 134 -17
27 -82 67 -138 85 -76 24 -91 25 -113 13z m127 -96 c22 -11 40 -27 40 -34 0
-28 -164 -81 -212 -68 -24 6 -16 54 15 93 18 23 30 28 70 28 29 1 63 -7 87
-19z"/>
<path d="M21844 3731 c-34 -20 -94 -99 -112 -146 -12 -30 -9 -186 3 -206 11
-17 54 -10 66 12 6 12 13 54 14 94 3 72 16 109 57 168 18 25 25 27 84 27 35 0
64 3 64 6 0 54 -113 83 -176 45z"/>
<path d="M22276 3709 c-14 -17 -26 -37 -26 -45 0 -24 -42 -138 -56 -153 -11
-13 -14 -13 -18 0 -2 8 -11 34 -19 59 -8 25 -18 61 -21 80 -9 53 -33 83 -56
70 -28 -15 -33 -43 -16 -97 8 -26 24 -80 35 -120 12 -40 32 -85 45 -100 21
-24 27 -26 57 -17 38 11 73 62 84 123 3 20 20 64 36 99 31 67 36 101 17 120
-19 19 -34 14 -62 -19z"/>
<path d="M22483 3718 c-18 -20 -21 -39 -25 -156 l-5 -134 25 -11 c21 -10 27
-8 43 12 16 20 19 41 19 148 0 115 -8 163 -29 163 -4 0 -17 -10 -28 -22z"/>
<path d="M1070 5777 c-3 -3 -70 -7 -150 -10 -92 -4 -160 -12 -185 -21 -22 -8
-56 -15 -75 -16 -61 -1 -152 -35 -177 -66 -20 -26 -22 -36 -17 -94 4 -40 0
-98 -10 -152 -13 -73 -14 -118 -5 -280 5 -106 11 -236 14 -288 2 -52 10 -135
18 -185 22 -128 37 -253 37 -301 0 -22 3 -44 7 -48 4 -3 8 -41 10 -82 1 -42 7
-82 13 -89 6 -7 11 -28 10 -46 0 -47 10 -510 15 -642 2 -59 7 -118 11 -130 4
-12 8 -60 10 -107 9 -307 15 -400 24 -424 5 -15 10 -47 10 -71 0 -37 5 -47 30
-65 21 -15 34 -18 47 -12 23 12 191 8 348 -7 66 -6 156 -14 200 -16 183 -12
1327 -21 1344 -11 10 7 97 13 291 22 80 3 170 8 200 10 136 10 421 12 479 4
38 -5 94 -5 135 0 65 8 288 24 311 22 6 0 107 -5 225 -11 118 -6 229 -14 245
-16 74 -13 172 -16 195 -7 l25 10 -1 218 c-1 121 -8 298 -17 394 -22 235 -27
325 -32 525 -4 156 -15 294 -29 356 -3 13 -8 44 -11 69 -2 25 -7 65 -9 90 -3
25 -10 99 -15 165 -5 66 -12 131 -16 145 -8 37 -23 315 -24 465 -1 71 -4 150
-6 175 -8 73 -17 193 -16 215 1 36 -29 227 -39 245 -7 13 -27 19 -72 24 -84 9
-695 -1 -711 -11 -18 -12 -708 -22 -822 -12 -55 5 -179 11 -275 14 -96 3 -224
8 -285 11 -60 3 -290 6 -510 8 -220 1 -438 7 -485 13 -111 15 -254 26 -260 20z
m149 -96 c61 -6 117 -14 124 -18 13 -8 115 -10 592 -14 160 -1 358 -5 440 -10
83 -4 220 -10 305 -13 85 -3 170 -10 187 -15 18 -5 63 -10 100 -11 130 -4 609
10 748 21 77 6 260 12 407 13 236 1 269 -1 284 -16 12 -12 18 -46 25 -137 4
-67 11 -126 14 -132 4 -5 8 -85 10 -177 6 -267 15 -453 25 -559 5 -54 14 -156
20 -228 6 -71 15 -157 20 -190 21 -133 32 -281 36 -485 2 -118 7 -236 12 -261
5 -26 7 -61 4 -78 -2 -18 1 -58 8 -89 16 -76 29 -524 15 -535 -5 -4 -26 -5
-45 -2 -113 17 -227 19 -820 18 -416 -2 -681 -6 -725 -13 -38 -6 -110 -13
-160 -15 -49 -3 -153 -10 -230 -16 -260 -21 -415 -24 -740 -12 -185 6 -343 7
-440 2 -45 -2 -331 13 -339 18 -15 10 -56 12 -233 13 -133 0 -152 3 -158 18
-4 9 -9 69 -11 132 -3 63 -9 138 -14 165 -8 46 -12 78 -25 246 -6 81 -17 452
-15 531 2 77 -16 292 -30 358 -13 59 -18 113 -25 235 -5 92 -19 205 -45 375
-21 139 -27 477 -10 629 18 174 16 165 58 184 59 26 134 47 168 47 17 0 33 3
36 6 3 3 50 7 105 10 54 2 114 8 133 13 19 5 44 8 56 5 12 -2 71 -8 133 -13z"/>
<path d="M1218 5290 c-9 -6 -20 -25 -23 -43 -4 -17 -11 -36 -15 -42 -4 -5 -25
-44 -47 -85 -50 -94 -66 -120 -75 -120 -4 0 -20 19 -34 43 -98 155 -123 186
-151 187 -26 0 -34 -46 -39 -227 -3 -104 -9 -224 -14 -268 -11 -102 -5 -134
28 -146 14 -5 29 -6 32 -2 4 4 10 73 14 153 9 204 18 310 26 315 12 7 31 -20
75 -104 36 -69 43 -76 70 -76 28 0 33 7 90 119 33 66 65 121 72 123 14 5 28
-61 43 -202 6 -60 18 -137 26 -170 7 -33 15 -76 16 -95 3 -30 7 -35 28 -35 14
0 24 5 24 10 -1 6 -5 71 -8 145 -12 256 -45 436 -92 497 -14 18 -26 33 -27 33
-1 0 -10 -5 -19 -10z"/>
<path d="M2685 5190 c-24 -39 -14 -175 21 -280 9 -25 16 -58 16 -75 0 -16 5
-35 10 -42 11 -13 25 -95 34 -195 6 -64 8 -67 35 -73 16 -4 33 -4 39 0 16 10
12 85 -9 171 -11 44 -22 104 -25 134 -5 60 -22 136 -36 161 -5 9 -12 50 -15
90 -6 54 -13 80 -28 97 -22 24 -33 27 -42 12z"/>
<path d="M3608 5189 c-23 -13 -23 -64 -2 -139 21 -75 43 -230 32 -230 -4 0 -8
4 -8 8 0 14 -73 32 -128 32 -76 0 -82 4 -82 64 0 122 -29 216 -67 216 -10 0
-13 -27 -13 -122 0 -68 -4 -129 -9 -137 -6 -9 -31 -15 -67 -17 -59 -3 -74 -13
-74 -50 0 -33 26 -47 81 -45 l50 1 -3 -87 c-1 -49 1 -94 5 -100 5 -7 23 -13
42 -13 33 0 34 1 39 53 4 28 7 72 9 97 l2 45 95 7 c52 4 101 10 108 13 30 11
42 -16 42 -91 0 -110 15 -169 48 -183 39 -18 53 6 46 81 -3 32 -3 70 0 84 9
34 62 64 113 64 36 0 46 -5 71 -36 16 -20 32 -50 35 -68 5 -28 -4 -145 -14
-186 -3 -10 5 -16 22 -18 22 -3 29 3 43 33 9 19 22 63 28 96 14 80 -10 167
-56 206 -70 59 -169 80 -230 48 -40 -21 -52 -7 -61 68 -12 101 -13 109 -25
177 -22 123 -26 135 -40 137 -8 2 -23 -2 -32 -8z"/>
<path d="M2952 5047 c-28 -29 -27 -33 2 -52 18 -12 30 -13 50 -6 31 12 33 34
6 61 -25 25 -32 25 -58 -3z"/>
<path d="M1554 4916 c-69 -32 -93 -78 -92 -174 0 -64 3 -72 27 -89 104 -77
212 -74 289 7 74 77 40 205 -69 260 -50 26 -93 25 -155 -4z m160 -78 c13 -13
27 -38 31 -55 6 -28 2 -37 -26 -63 -18 -16 -51 -34 -74 -39 -37 -8 -42 -6 -67
22 -44 49 -35 112 20 141 40 22 87 20 116 -6z"/>
<path d="M1971 4872 c-53 -29 -73 -77 -72 -169 0 -42 4 -80 9 -85 4 -4 22 -10
39 -14 l31 -6 -1 78 c-1 62 3 85 17 107 56 84 183 -41 189 -185 1 -35 0 -70
-3 -78 -4 -11 3 -16 24 -18 34 -4 42 6 51 65 5 35 2 51 -14 79 -12 19 -21 41
-21 49 0 27 -40 90 -88 138 -58 58 -106 70 -161 39z"/>
<path d="M3005 4826 c-12 -19 -15 -43 -11 -122 6 -108 13 -122 59 -110 27 6
27 7 27 96 0 98 -9 133 -39 150 -17 9 -23 6 -36 -14z"/>
<path d="M2383 4789 c-32 -20 -63 -80 -63 -123 0 -30 43 -60 72 -51 16 6 19
13 14 37 -13 64 84 104 143 59 l24 -18 -33 -42 c-19 -23 -43 -44 -54 -46 -66
-16 -117 -21 -122 -14 -3 5 -14 9 -25 9 -30 0 -22 -28 14 -51 67 -42 207 -9
269 65 17 21 24 80 12 110 -3 8 -28 29 -55 47 -64 41 -147 49 -196 18z"/>
<path d="M10101 5548 c-7 -24 -26 -71 -42 -106 -16 -35 -29 -67 -29 -71 0 -5
14 -11 32 -15 27 -5 36 -2 55 21 12 16 22 42 23 59 0 16 6 38 13 47 7 10 11
37 9 62 -4 39 -7 45 -26 45 -18 0 -25 -9 -35 -42z"/>
<path d="M9455 5449 c-4 -11 -27 -54 -51 -95 -24 -41 -44 -81 -44 -89 0 -15
37 -45 57 -45 7 0 19 13 27 28 19 36 145 102 210 109 55 7 58 20 11 50 -28 18
-44 21 -83 16 -44 -5 -50 -3 -65 21 -21 31 -53 34 -62 5z"/>
<path d="M4887 4252 c-33 -34 -34 -47 -4 -67 31 -20 247 -95 275 -95 12 0 35
-8 49 -17 30 -20 80 -40 133 -53 19 -5 66 -23 103 -40 38 -17 96 -41 130 -54
146 -56 221 -88 246 -105 14 -10 37 -22 50 -26 13 -4 50 -27 82 -51 31 -24 84
-58 116 -75 32 -17 62 -37 66 -45 4 -8 12 -14 18 -14 5 0 39 -20 76 -45 36
-25 73 -45 82 -45 10 0 28 -11 41 -25 13 -14 28 -25 34 -25 6 0 33 -16 60 -35
27 -19 54 -35 60 -35 6 0 28 -11 47 -24 34 -23 61 -35 207 -87 31 -11 77 -29
102 -41 25 -11 69 -29 99 -39 30 -11 59 -23 65 -27 6 -5 49 -19 96 -31 47 -13
121 -34 165 -47 44 -14 91 -27 105 -29 14 -3 50 -13 80 -24 30 -10 80 -24 110
-31 30 -7 62 -16 70 -20 8 -4 47 -17 85 -29 39 -12 88 -31 110 -41 123 -56
146 -64 160 -49 8 8 15 32 17 53 l3 40 -97 30 c-53 17 -100 34 -104 39 -4 4
-15 7 -23 7 -9 0 -32 9 -52 19 -20 11 -54 22 -75 26 -22 4 -79 19 -129 35
-117 37 -207 60 -237 60 -13 0 -39 8 -58 19 -19 10 -51 22 -70 25 -55 12 -154
46 -170 61 -17 14 -68 31 -115 39 -16 2 -57 18 -90 35 -33 17 -69 31 -81 31
-11 0 -24 4 -30 9 -5 5 -54 32 -109 61 -117 61 -233 128 -256 147 -9 7 -56 34
-105 60 -48 25 -93 50 -99 55 -61 50 -174 125 -230 153 -38 19 -81 41 -95 49
-73 42 -246 116 -271 116 -18 0 -68 20 -164 66 -28 13 -57 24 -66 24 -8 0 -19
4 -24 9 -6 5 -26 11 -45 14 -41 6 -82 21 -208 76 -51 23 -96 41 -101 41 -4 0
-19 -13 -34 -28z"/>
<path d="M18140 3720 c-8 -5 -25 -10 -36 -10 -12 0 -57 -12 -100 -26 -75 -25
-86 -26 -214 -20 -253 12 -293 12 -327 -4 -42 -19 -42 -43 -3 -101 16 -24 30
-51 30 -60 0 -8 8 -33 19 -55 33 -70 34 -80 6 -98 -13 -9 -27 -16 -30 -16 -13
1 -133 -65 -155 -85 -24 -21 -57 -41 -110 -64 -78 -34 -213 -124 -234 -156
-18 -28 -21 -51 -6 -60 12 -7 74 28 108 61 12 12 43 27 68 34 25 7 48 19 51
27 3 7 10 13 17 13 6 1 45 21 86 45 41 24 100 56 130 70 30 15 66 35 80 45 14
10 33 20 43 22 23 4 145 -117 154 -152 7 -29 31 -60 47 -60 18 0 98 88 148
163 34 51 56 74 79 81 24 8 43 28 73 77 23 36 55 84 73 105 104 126 123 155
123 185 0 27 -3 31 -21 26 -12 -3 -22 0 -26 9 -6 16 -51 19 -73 4z"/>
<path d="M13235 3671 c-11 -5 -44 -9 -74 -10 -29 -1 -72 -6 -95 -11 -23 -5
-51 -7 -61 -5 -51 12 -134 11 -290 0 -93 -7 -226 -11 -295 -9 -69 1 -181 -3
-250 -10 -69 -7 -138 -13 -155 -13 -16 0 -113 -8 -215 -17 -200 -19 -265 -21
-700 -13 -278 4 -406 12 -414 25 -4 7 -336 -3 -418 -13 -53 -6 -109 -27 -126
-48 -7 -8 -10 -35 -7 -68 10 -122 15 -200 19 -319 3 -69 10 -161 16 -205 8
-54 10 -142 5 -270 -4 -104 -9 -266 -10 -360 -3 -168 -12 -499 -20 -687 -2
-54 -9 -106 -15 -118 -11 -21 -6 -64 26 -211 8 -37 14 -72 14 -79 0 -7 9 -25
21 -41 17 -24 27 -29 62 -29 23 0 59 5 79 10 68 19 111 22 383 26 318 4 508
12 567 22 97 16 592 0 728 -23 47 -8 132 -16 190 -17 127 -4 609 10 665 19 22
3 164 7 315 9 229 3 403 8 480 15 8 1 33 1 55 1 30 -1 474 6 530 8 6 1 51 -3
100 -8 138 -14 308 -10 329 8 16 12 17 27 11 140 -4 69 -8 158 -10 199 -3 41
-9 98 -15 125 -9 47 -6 517 5 621 3 22 9 87 15 145 12 106 17 305 13 435 -2
39 -1 219 1 400 2 182 -1 338 -5 347 -8 15 -25 16 -155 12 -80 -2 -150 -7
-155 -10 -6 -3 -102 -7 -215 -9 -113 -2 -211 -8 -217 -13 -8 -6 -30 -5 -62 4
-51 14 -153 22 -395 29 -74 2 -155 8 -180 14 -52 12 -49 12 -75 2z m260 -117
c94 -3 242 -12 330 -19 88 -8 176 -12 195 -9 19 3 91 5 160 5 69 0 157 6 195
14 46 8 76 10 88 4 22 -12 108 -9 124 4 20 15 23 -7 22 -138 -1 -66 1 -257 3
-425 3 -168 2 -341 -3 -385 -31 -291 -39 -407 -39 -536 1 -81 -2 -162 -5 -181
-4 -19 -2 -86 5 -149 22 -229 25 -275 25 -354 l0 -80 -75 1 c-91 1 -282 14
-290 19 -4 2 -24 5 -46 5 -73 3 -598 -11 -606 -16 -4 -3 -150 -5 -325 -5 -175
0 -388 -4 -473 -9 -523 -29 -574 -29 -735 -8 -244 33 -583 40 -815 18 -105
-10 -244 -13 -573 -11 -97 1 -196 -3 -220 -8 -23 -5 -72 -12 -109 -16 l-68 -7
-14 34 c-23 55 -37 129 -27 142 5 6 11 153 15 326 3 173 9 414 13 535 10 305
8 672 -4 785 -6 52 -13 162 -15 244 l-3 149 39 13 c42 15 374 23 456 11 86
-13 542 -31 730 -30 157 2 406 15 430 23 14 5 79 11 145 15 66 3 165 11 220
17 55 6 107 11 115 11 311 -3 716 5 790 16 30 4 82 6 115 4 33 -2 137 -6 230
-9z"/>
<path d="M10780 3378 c-101 -6 -149 -14 -159 -23 -10 -10 -15 -41 -17 -97 -3
-101 -13 -179 -25 -194 -6 -8 -2 -25 12 -48 19 -32 22 -53 23 -163 1 -104 4
-128 17 -136 46 -29 75 43 65 166 -4 57 -2 77 7 79 14 1 113 5 211 8 38 1 80
6 93 11 23 9 31 33 14 44 -19 11 -109 24 -191 26 -48 1 -94 8 -106 15 -41 25
-63 197 -26 208 38 11 340 17 347 6 20 -32 34 34 15 70 -9 17 -91 42 -123 39
-7 -1 -77 -6 -157 -11z"/>
<path d="M11726 3314 c-20 -20 -20 -37 0 -76 23 -44 28 -277 8 -372 l-15 -70
29 -35 c60 -74 180 -106 293 -77 75 20 96 36 110 88 12 47 5 62 -75 142 -65
65 -132 92 -207 83 l-49 -6 1 107 c1 102 -13 193 -34 220 -13 17 -42 15 -61
-4z m271 -407 c32 -12 83 -69 83 -93 0 -14 -23 -35 -42 -38 -7 -1 -19 -5 -26
-10 -25 -15 -145 -10 -179 8 -18 9 -33 19 -33 21 0 18 56 89 83 105 36 22 67
24 114 7z"/>
<path d="M12262 3278 c-18 -18 -14 -46 8 -53 11 -3 20 -11 20 -16 0 -5 18 -9
40 -9 48 0 52 15 14 59 -27 32 -61 40 -82 19z"/>
<path d="M12674 3121 c-66 -40 -99 -136 -70 -206 11 -26 13 -42 6 -49 -17 -17
-11 -44 18 -76 33 -37 148 -80 212 -80 52 0 134 35 166 71 31 34 40 125 19
176 -21 50 -99 129 -157 159 -60 31 -148 33 -194 5z m159 -82 c52 -14 102 -61
123 -115 17 -44 17 -45 -7 -70 -40 -43 -92 -64 -159 -64 -64 0 -105 14 -94 31
3 6 18 9 32 8 32 -4 52 7 52 26 0 20 -29 45 -52 45 -41 0 -60 57 -39 114 14
35 71 46 144 25z"/>
<path d="M12344 3088 c-27 -12 -38 -70 -24 -119 6 -18 10 -70 10 -114 0 -83 9
-105 42 -105 13 0 22 15 33 53 13 46 13 64 1 147 -8 52 -12 98 -10 102 6 9
-14 48 -24 47 -4 0 -17 -5 -28 -11z"/>
<path d="M11351 3026 c-63 -26 -97 -47 -137 -87 -30 -29 -54 -58 -54 -63 0 -5
-6 -17 -14 -25 -8 -9 -17 -30 -20 -47 -6 -28 -2 -37 32 -73 34 -36 44 -41 84
-41 55 0 135 26 165 53 12 11 30 40 39 64 9 23 20 43 23 43 9 0 51 -56 51 -67
0 -16 61 -82 81 -88 25 -8 59 19 59 47 0 10 -10 22 -23 27 -16 6 -39 38 -67
93 -24 45 -53 97 -66 113 -12 17 -24 41 -26 55 -5 36 -30 35 -127 -4z m51
-107 c-8 -92 -89 -169 -159 -150 -37 10 -39 30 -7 72 30 38 143 121 159 115 6
-1 9 -18 7 -37z"/>
<path d="M12207 2086 c-57 -52 -52 -95 21 -184 l35 -43 -34 -28 c-29 -24 -35
-36 -38 -77 -8 -117 -7 -122 29 -157 44 -40 73 -54 131 -61 64 -7 114 9 140
45 26 37 19 59 -58 175 -53 79 -53 81 -39 115 8 19 13 62 13 99 l-2 65 -55 36
c-81 53 -99 55 -143 15z m92 -61 c33 -16 41 -33 41 -81 0 -42 -17 -44 -52 -6
-28 29 -44 74 -33 91 8 14 11 14 44 -4z m75 -277 c20 -23 36 -48 36 -55 0 -8
7 -24 16 -37 17 -28 14 -31 -42 -41 -98 -16 -149 47 -100 120 15 21 26 42 26
46 0 22 32 5 64 -33z"/>
<path d="M12026 2067 c-48 -45 -93 -130 -103 -194 -3 -21 -12 -50 -20 -65 -9
-20 -11 -47 -7 -100 8 -84 24 -124 56 -134 41 -13 108 -7 128 11 34 31 65 107
65 158 0 42 -4 52 -30 73 -16 13 -42 24 -57 24 -40 0 -58 10 -58 31 0 28 44
112 80 152 35 40 37 58 11 74 -17 10 -25 6 -65 -30z m59 -317 c10 -16 -25 -99
-46 -110 -30 -17 -56 -12 -63 13 -7 28 -8 71 -1 90 7 17 100 23 110 7z"/>
<path d="M13334 2080 c-40 -9 -54 -18 -54 -35 0 -26 31 -45 73 -45 100 0 158
-42 172 -125 4 -22 9 -48 12 -57 3 -14 -2 -18 -20 -18 -52 0 -117 -32 -152
-74 -69 -85 -51 -146 43 -146 53 0 96 24 144 83 l27 32 34 -18 c19 -10 41 -34
50 -53 30 -61 97 -72 97 -16 0 36 -57 110 -111 146 -37 25 -39 28 -39 81 0
130 -78 223 -205 244 -22 4 -54 4 -71 1z m140 -395 c-7 -16 -42 -30 -52 -20
-8 8 26 35 45 35 7 0 10 -6 7 -15z"/>
<path d="M10950 2049 c-25 -16 -76 -59 -113 -97 -105 -103 -143 -196 -105
-255 33 -49 103 -42 160 16 21 22 42 37 46 33 4 -4 7 -39 7 -77 0 -66 1 -70
29 -84 16 -9 31 -13 34 -11 22 23 23 205 2 355 -7 51 -6 68 6 85 18 27 18 52
-2 60 -9 3 -16 6 -17 5 -1 0 -22 -14 -47 -30z m-36 -151 c-11 -61 -24 -93 -49
-120 -51 -55 -99 -46 -71 14 17 36 104 138 118 138 4 0 5 -15 2 -32z"/>
<path d="M11707 2062 c-14 -15 -16 -51 -18 -230 -2 -200 -1 -215 18 -240 23
-32 55 -39 72 -18 10 12 10 23 0 53 -9 26 -13 104 -13 245 -1 204 -1 208 -22
208 -11 0 -28 -8 -37 -18z"/>
<path d="M12817 2060 c-33 -26 -35 -43 -41 -263 -3 -97 -8 -181 -11 -187 -3
-5 1 -25 9 -45 23 -55 59 -44 63 20 0 17 6 75 12 130 6 55 13 154 17 220 5
100 4 123 -8 133 -12 10 -20 8 -41 -8z"/>
<path d="M10553 2002 c-21 -15 -24 -30 -33 -157 -16 -223 -14 -291 10 -315 20
-20 20 -20 39 -1 18 18 20 35 20 173 1 84 5 177 10 207 9 55 2 102 -15 108 -5
1 -19 -5 -31 -15z"/>
<path d="M11153 2005 c-18 -8 -33 -17 -33 -20 0 -17 23 -45 37 -45 9 0 40 -7
69 -17 49 -15 55 -20 74 -66 16 -35 20 -60 15 -84 -6 -32 -8 -34 -33 -27 -40
12 -83 9 -124 -9 -28 -12 -39 -24 -47 -52 -12 -43 -2 -64 37 -83 52 -24 125
-11 170 31 l24 22 22 -27 c12 -16 29 -28 38 -28 30 0 29 31 -3 75 -26 36 -29
46 -20 64 20 37 16 116 -9 155 -36 59 -130 127 -173 126 -7 -1 -27 -7 -44 -15z
m97 -334 c0 -5 -7 -12 -16 -15 -28 -11 -54 -6 -54 9 0 10 11 15 35 15 19 0 35
-4 35 -9z"/>
<path d="M13055 1702 c-5 -4 -16 -18 -24 -31 -12 -22 -11 -26 9 -43 12 -10 31
-18 41 -18 20 0 59 33 59 50 0 31 -60 61 -85 42z"/>
<path d="M11502 1657 c-28 -30 -27 -48 4 -70 46 -34 83 -8 84 59 0 40 -55 46
-88 11z"/>
<path d="M12540 1660 c-15 -28 -9 -60 13 -74 28 -18 52 4 52 50 0 35 -3 39
-27 42 -19 2 -30 -3 -38 -18z"/>
<path d="M8490 3200 c-84 -20 -110 -29 -148 -51 -63 -38 -148 -174 -165 -264
-13 -70 -8 -348 6 -357 6 -4 10 -22 9 -40 -4 -51 45 -121 108 -153 28 -14 69
-42 91 -62 30 -27 50 -37 82 -39 276 -18 261 -18 308 3 60 27 151 142 184 235
36 97 27 319 -16 432 -10 28 -19 58 -19 66 -1 36 -110 168 -162 196 -32 17
-169 45 -213 43 -16 -1 -46 -5 -65 -9z m200 -99 c72 -19 107 -47 135 -106 14
-30 30 -57 35 -60 6 -3 10 -13 10 -22 0 -8 6 -29 14 -46 12 -28 38 -153 37
-182 -1 -75 -18 -178 -34 -210 -31 -63 -98 -136 -142 -156 -58 -27 -158 -26
-176 1 -9 13 -41 27 -92 40 -44 12 -99 30 -124 42 -62 29 -87 85 -107 238 -14
102 -14 123 -1 180 9 36 19 74 24 85 5 11 17 40 27 64 10 25 28 53 39 63 29
28 105 68 145 78 44 11 152 6 210 -9z"/>
<path d="M16490 3068 c-79 -21 -106 -31 -122 -45 -9 -8 -43 -27 -75 -42 -66
-31 -78 -49 -137 -210 -10 -26 -17 -77 -18 -126 -1 -73 2 -88 25 -128 15 -25
51 -70 82 -100 51 -52 54 -58 44 -84 -8 -22 -7 -30 7 -40 10 -7 31 -13 47 -13
16 0 66 -18 112 -41 l82 -41 78 16 c98 20 135 38 186 90 90 89 116 207 85 390
-10 55 -20 115 -22 132 -7 50 -44 94 -138 166 -110 85 -154 99 -236 76z m115
-112 c45 -21 109 -75 158 -132 29 -35 48 -131 50 -254 2 -113 1 -116 -28 -160
-40 -59 -100 -90 -185 -96 -54 -4 -72 -1 -107 18 -101 55 -229 172 -264 239
-43 85 9 281 86 325 16 9 39 25 50 34 24 22 107 48 155 49 19 0 58 -10 85 -23z"/>
<path d="M9690 2872 c-21 -17 -21 -18 -6 -85 9 -38 16 -88 16 -112 0 -61 0
-61 -240 -42 -19 1 -40 6 -46 9 -13 9 -152 38 -179 38 -28 0 -50 -37 -34 -57
34 -40 166 -78 305 -87 33 -2 76 -9 97 -16 22 -6 56 -9 77 -5 36 6 37 5 44
-26 3 -18 2 -37 -4 -43 -5 -5 -10 -22 -10 -37 0 -25 -27 -101 -50 -141 -20
-35 55 -63 93 -34 9 7 17 18 17 23 0 6 37 39 83 74 85 66 176 138 214 169 12
10 30 23 41 29 11 6 22 22 25 37 4 21 -5 34 -47 75 -28 27 -56 49 -62 49 -13
0 -155 94 -235 157 -62 49 -68 50 -99 25z"/>
<path d="M4908 2735 c-9 -20 -8 -32 4 -57 38 -79 57 -139 72 -223 9 -49 16
-98 16 -107 0 -10 10 -45 21 -79 18 -52 20 -67 10 -99 -16 -55 -14 -78 10 -85
25 -8 20 -13 60 60 32 61 191 225 217 225 21 0 158 -98 277 -198 6 -5 35 -26
65 -47 30 -21 90 -69 133 -106 43 -37 97 -76 120 -88 23 -11 67 -43 97 -71 30
-27 71 -57 90 -66 19 -10 37 -20 40 -24 3 -4 26 -10 52 -14 45 -7 49 -6 60 19
10 22 9 27 -8 40 -10 8 -26 15 -35 15 -9 0 -22 7 -29 15 -7 8 -19 15 -27 15
-20 0 -71 38 -108 79 -16 19 -68 59 -115 89 -47 30 -100 71 -119 90 -19 18
-73 66 -121 105 -137 113 -256 209 -270 217 -21 13 -6 44 29 61 37 17 70 55
71 80 0 9 7 19 15 23 20 7 55 65 49 81 -6 14 -112 26 -269 30 -55 2 -113 8
-129 14 -16 6 -56 11 -90 10 -34 -1 -74 4 -89 10 -49 19 -86 14 -99 -14z"/>
<path d="M15953 2483 c-23 -13 -71 -31 -105 -40 -35 -8 -68 -19 -73 -24 -6 -4
-23 -10 -39 -13 -15 -3 -33 -10 -40 -15 -7 -6 -42 -20 -77 -31 -35 -11 -76
-29 -91 -40 -15 -11 -34 -20 -43 -20 -15 0 -23 -3 -80 -33 -23 -12 -117 -43
-155 -52 -3 -1 -23 -6 -45 -12 -22 -7 -75 -19 -118 -29 -67 -14 -80 -20 -92
-45 -11 -19 -12 -30 -4 -35 27 -16 412 79 469 116 14 9 44 22 67 29 24 6 71
25 107 40 35 16 100 38 144 50 45 11 105 30 134 42 29 11 62 23 72 25 30 6 43
25 51 72 6 40 5 42 -17 41 -12 -1 -42 -12 -65 -26z"/>
<path d="M18563 2324 c-41 -44 -84 -93 -96 -110 -67 -95 -96 -132 -127 -164
-20 -19 -52 -55 -72 -80 -67 -84 -171 -181 -247 -232 -42 -28 -94 -66 -116
-84 -22 -17 -65 -44 -95 -59 -111 -55 -152 -104 -115 -135 26 -22 65 -5 205
88 27 17 51 32 53 32 21 0 187 127 242 184 118 124 224 240 247 272 44 61 110
139 124 147 32 18 102 133 105 172 6 68 -22 59 -108 -31z"/>
<path d="M6667 2195 c-84 -98 -193 -195 -219 -195 -7 0 -30 -14 -51 -31 -37
-30 -46 -56 -27 -75 6 -6 6 -31 1 -69 -5 -33 -12 -123 -16 -200 -3 -77 -18
-249 -32 -383 -32 -297 -33 -292 64 -292 38 0 102 -5 143 -11 41 -5 149 -12
240 -14 91 -2 249 -6 352 -10 194 -8 274 1 299 31 26 31 38 172 53 644 7 201
13 252 44 385 14 61 26 127 26 148 1 38 0 39 -54 57 -47 16 -65 17 -125 9 -38
-6 -95 -13 -125 -16 -30 -3 -63 -10 -74 -15 -24 -13 -277 0 -338 17 -25 7 -49
11 -52 7 -3 -3 -16 4 -29 15 -41 37 -47 37 -80 -2z m784 -150 c-2 -27 -7 -61
-13 -75 -23 -60 -37 -205 -48 -480 -15 -396 -16 -421 -29 -452 -10 -26 -15
-28 -62 -28 l-51 0 16 25 c13 19 16 52 16 165 0 78 5 185 11 238 12 111 56
366 70 400 14 36 11 128 -5 141 -13 11 -221 22 -401 20 -103 0 -141 -33 -94
-80 15 -15 28 -19 48 -14 15 3 76 1 137 -5 72 -6 129 -7 169 0 32 5 62 6 66 2
8 -8 -24 -201 -40 -241 -5 -14 -13 -54 -16 -89 -4 -34 -11 -64 -15 -67 -5 -3
-18 15 -30 40 -20 42 -24 45 -61 45 -44 0 -43 -1 -28 36 16 44 -6 119 -43 145
l-30 22 -29 -22 -29 -21 -55 36 c-49 33 -57 43 -72 93 -10 31 -25 67 -35 81
-10 14 -21 46 -24 72 l-7 48 89 -7 c137 -11 371 -5 449 11 39 8 88 14 110 13
l40 -2 -4 -50z m-760 -50 c25 -80 24 -89 -3 -80 -13 4 -45 11 -73 17 -27 6
-57 17 -65 25 -13 13 -12 17 13 39 15 13 34 24 41 24 7 0 21 9 31 20 10 11 23
19 28 17 5 -1 18 -30 28 -62z m-104 -155 c29 -10 70 -26 92 -36 l40 -17 -1
-88 c-2 -81 -4 -91 -30 -121 -15 -18 -30 -45 -33 -60 -5 -23 0 -33 31 -60 20
-18 44 -38 52 -44 13 -10 11 -18 -16 -62 -17 -29 -38 -67 -46 -86 -13 -32 -13
-36 5 -52 27 -24 24 -32 -18 -49 -54 -23 -73 -13 -73 38 0 53 -9 163 -19 247
-7 54 -4 85 19 190 28 128 27 150 -9 150 -51 0 -87 -145 -84 -340 1 -74 5
-153 10 -175 5 -23 5 -64 0 -95 -5 -30 -9 -66 -10 -80 -3 -33 -13 -40 -64 -40
-43 0 -43 0 -43 38 0 20 9 107 20 192 11 85 20 189 19 230 0 41 4 88 10 103 6
16 11 67 11 115 0 125 4 134 49 126 20 -4 59 -14 88 -24z m282 -129 c36 -45
33 -62 -11 -79 -26 -9 -35 -9 -45 1 -18 18 -20 97 -2 108 22 14 25 12 58 -30z
m151 -47 c0 -26 -17 -33 -26 -9 -8 20 3 48 16 40 5 -3 10 -17 10 -31z m84
-150 c38 -14 4 -84 -41 -84 -28 0 -29 15 -3 58 21 35 21 35 44 26z m101 -201
c-4 -98 -10 -181 -14 -184 -10 -11 -120 42 -125 60 -3 9 -2 50 2 91 6 68 9 75
30 78 35 5 102 74 102 105 0 15 3 27 6 27 3 0 2 -80 -1 -177z m-335 22 c0 -26
-23 -75 -35 -75 -7 0 -27 -3 -44 -6 -26 -6 -31 -3 -31 13 0 10 13 40 30 66 30
47 30 47 55 31 14 -9 25 -22 25 -29z m93 -119 c8 -20 2 -23 -40 -18 -34 4 -35
6 -18 18 24 18 51 18 58 0z m68 -140 c56 -14 119 -45 119 -58 0 -12 -31 -10
-86 6 -36 10 -108 14 -274 13 -124 -1 -232 3 -240 8 -52 33 371 60 481 31z"/>
<path d="M17480 1848 c-68 -20 -160 -27 -395 -32 -77 -1 -177 -9 -223 -16 -67
-11 -87 -11 -104 -1 -30 19 -65 -10 -99 -82 -17 -34 -42 -84 -57 -112 -25 -46
-30 -50 -60 -47 -41 3 -92 -23 -92 -47 0 -10 12 -23 26 -30 21 -9 25 -16 20
-35 -3 -13 1 -50 10 -82 18 -70 21 -474 3 -552 -24 -107 -27 -175 -10 -205 14
-25 21 -28 52 -24 20 3 59 1 85 -4 27 -6 144 -12 259 -14 116 -3 235 -10 265
-17 105 -23 321 -13 382 18 37 19 40 37 27 145 -6 54 -10 202 -8 349 7 552 3
790 -12 803 -2 3 -33 -4 -69 -15z m7 -218 c2 -155 -7 -330 -17 -330 -5 0 -8
33 -9 73 0 39 -5 106 -12 147 -6 41 -12 99 -13 128 -2 59 -16 75 -53 61 -26
-10 -149 -27 -248 -35 -76 -6 -165 -49 -165 -80 0 -19 8 -22 60 -28 35 -4 67
-3 79 3 16 9 232 35 236 28 16 -27 43 -202 46 -307 2 -54 -17 -130 -33 -130
-4 0 -15 11 -23 24 -9 13 -28 27 -43 31 -38 9 -42 22 -25 72 18 51 11 100 -18
137 -25 31 -48 33 -82 6 -34 -27 -47 -25 -97 11 -36 26 -50 30 -94 29 -28 -2
-56 -2 -62 -1 -18 2 -121 208 -109 220 18 17 245 40 344 34 66 -4 114 -1 165
11 72 16 129 24 156 22 12 -1 15 -23 17 -126z m-757 -15 c6 -19 17 -38 23 -42
13 -9 50 -103 43 -110 -2 -3 -25 3 -50 11 -26 9 -55 16 -64 16 -10 0 -28 7
-40 15 l-22 16 43 64 c23 35 45 64 49 64 3 1 12 -15 18 -34z m40 -244 c14 -5
46 -12 72 -16 42 -5 48 -9 58 -40 14 -41 7 -55 -24 -53 -12 1 -43 -10 -69 -25
-54 -32 -60 -56 -23 -90 57 -53 74 -67 99 -78 15 -7 27 -17 27 -24 0 -13 -51
-95 -88 -139 -16 -20 -22 -39 -20 -57 3 -18 -1 -30 -10 -34 -24 -9 -32 4 -30
53 1 26 -2 76 -5 112 -4 36 -9 107 -12 158 -5 96 -24 162 -47 162 -23 0 -41
-17 -33 -31 5 -7 9 -62 11 -123 1 -61 7 -140 13 -176 14 -79 14 -80 5 -156 -6
-60 -6 -61 24 -73 16 -7 66 -14 110 -15 50 -2 87 -8 97 -16 9 -8 35 -16 56
-19 22 -3 38 -10 37 -16 -3 -10 -71 -10 -338 0 l-105 4 1 53 c0 29 6 109 13
178 13 124 11 467 -4 502 -6 14 4 13 77 -8 46 -13 94 -28 108 -33z m264 -2
c31 -25 34 -59 5 -85 -28 -26 -49 -10 -65 51 -7 28 -13 51 -14 53 -2 11 53 -2
74 -19z m161 -30 c4 -6 4 -31 0 -55 -7 -50 -24 -54 -39 -11 -15 42 19 99 39
66z m280 -351 c-4 -130 -3 -205 6 -249 11 -57 11 -63 -7 -76 -25 -18 -60 -27
-79 -19 -14 5 -14 9 0 36 11 21 19 81 26 188 9 148 17 232 35 347 l8 50 9 -45
c4 -25 5 -129 2 -232z m-548 190 c11 -13 23 -31 26 -40 9 -25 -24 -24 -45 1
-9 10 -24 24 -34 30 -17 9 -17 12 -4 21 23 15 35 12 57 -12z m147 -27 c4 -5 2
-19 -2 -32 -9 -22 -9 -22 -25 9 -15 30 -14 32 3 32 10 0 21 -4 24 -9z m201
-36 c0 -5 -10 -11 -22 -13 -16 -2 -23 2 -23 13 0 11 7 15 23 13 12 -2 22 -7
22 -13z m66 -221 c-6 -81 -12 -149 -15 -151 -14 -14 -116 -10 -161 7 -28 10
-76 21 -108 25 -60 8 -77 18 -52 32 8 5 25 23 38 41 23 31 25 31 41 14 14 -16
24 -18 72 -11 31 4 61 12 66 17 8 8 16 58 17 109 1 16 13 27 45 41 24 11 47
26 52 33 14 24 15 -7 5 -157z m-332 87 c29 -40 27 -52 -14 -94 -28 -29 -44
-37 -70 -37 -19 0 -35 4 -35 9 0 5 21 32 46 60 32 36 45 57 41 71 -7 29 8 24
32 -9z"/>
<path d="M15440 1661 c-47 -15 -101 -37 -120 -49 -42 -25 -183 -72 -217 -72
-37 0 -120 -30 -137 -49 -17 -19 -23 -114 -9 -146 16 -36 76 -125 84 -125 5 0
9 -7 9 -17 0 -21 100 -192 136 -232 49 -55 71 -40 137 95 19 40 37 84 41 98
l7 27 97 -6 c182 -10 271 -22 402 -55 34 -9 112 -15 351 -26 112 -6 117 -5
144 19 41 35 29 57 -32 58 -85 2 -127 7 -190 23 -34 8 -110 18 -170 22 -59 4
-112 10 -118 14 -5 4 -37 11 -70 14 -33 4 -109 16 -170 26 -60 11 -126 18
-147 18 -62 -3 -69 12 -37 80 67 138 121 281 115 299 -7 16 -5 17 -106 -16z"/>
<path d="M7658 1544 c-28 -14 -37 -46 -20 -70 23 -34 147 -76 262 -89 82 -9
177 -24 210 -33 19 -6 91 -13 160 -17 69 -4 139 -8 155 -11 154 -19 204 -21
320 -13 72 5 144 13 160 17 17 5 39 6 50 2 17 -7 175 -14 265 -12 14 0 72 1
130 1 58 0 110 0 115 1 6 0 64 3 130 6 112 5 226 24 264 44 9 5 28 11 43 15
27 5 33 16 40 70 5 36 -39 33 -167 -11 -60 -20 -166 -25 -655 -30 -571 -6
-609 -5 -647 7 -17 5 -58 10 -90 10 -233 -2 -566 43 -630 84 -71 46 -66 45
-95 29z"/>
</g>
</svg>
