<?xml version="1.0" standalone="no"?>
<!DOCTYPE svg PUBLIC "-//W3C//DTD SVG 20010904//EN"
 "http://www.w3.org/TR/2001/REC-SVG-20010904/DTD/svg10.dtd">
<svg version="1.0" xmlns="http://www.w3.org/2000/svg"
 width="1123.447360pt" height="400.000000pt" viewBox="0 0 1123.447360 400.000000"
 preserveAspectRatio="xMidYMid meet">
<metadata>
Created by potrace 1.15, written by Peter Selinger 2001-2017
</metadata>
<g transform="translate(-26.779005,435.563150) scale(0.048191,-0.048191)"
fill="#444444" stroke="none">
<path d="M9620 9037 c-6 -6 -190 -26 -295 -31 -143 -8 -208 -23 -232 -51 -25
-28 -28 -47 -13 -74 5 -10 10 -49 11 -87 1 -38 5 -76 10 -85 10 -19 24 -301
23 -469 -1 -216 -15 -311 -53 -353 -24 -28 -26 -352 -2 -399 l16 -33 118 -1
c65 0 170 5 235 12 273 29 358 35 565 40 121 2 249 9 286 14 37 5 139 10 227
10 174 0 268 7 409 28 33 5 98 7 145 6 170 -7 429 -7 580 0 85 4 218 8 295 10
77 2 253 7 390 12 138 5 306 7 375 5 251 -7 399 -4 598 14 13 1 30 9 39 18 15
15 15 21 -2 79 -22 74 -29 314 -14 463 15 140 17 249 7 262 -6 7 -5 19 2 33
16 31 8 456 -9 492 -14 27 -14 27 -125 27 -61 0 -115 -4 -121 -7 -5 -4 -39 -7
-75 -7 -36 0 -105 -4 -155 -8 -128 -11 -546 -15 -573 -5 -13 4 -43 3 -70 -3
-46 -10 -192 -12 -302 -4 -30 2 -102 6 -160 9 -93 5 -185 8 -620 21 -58 1
-118 8 -133 14 -16 6 -33 8 -38 5 -23 -14 -202 0 -414 31 -60 9 -123 14 -140
10 -47 -9 -142 -11 -240 -4 -49 4 -95 3 -100 -2 -12 -9 -330 -4 -397 6 -24 4
-45 4 -48 2z m380 -109 c179 2 348 4 375 5 28 2 86 -3 130 -10 44 -8 88 -12
99 -9 10 3 29 1 41 -4 13 -5 81 -12 151 -15 70 -3 131 -8 134 -10 6 -4 295
-15 455 -18 44 -1 85 2 92 6 6 4 22 3 35 -2 31 -11 247 -32 323 -31 33 1 107
-2 163 -7 57 -4 105 -6 107 -4 7 6 145 11 435 15 162 3 311 8 330 13 19 4 111
8 204 8 l170 0 8 -30 c9 -36 7 -467 -3 -585 -11 -123 -13 -394 -4 -471 l8 -67
-53 -7 c-29 -4 -251 -9 -494 -11 -541 -4 -1067 -17 -1084 -28 -13 -8 -462 -9
-525 -1 -21 3 -73 1 -115 -5 -116 -16 -154 -20 -312 -25 -80 -3 -221 -11 -315
-16 -93 -6 -255 -12 -360 -14 -181 -3 -321 -15 -430 -35 -131 -24 -173 -28
-287 -24 -67 2 -126 8 -131 13 -6 6 -12 54 -15 108 -4 85 -2 105 17 148 12 28
23 68 25 90 3 22 10 78 16 125 14 104 6 484 -15 680 -8 74 -15 140 -15 147 0
28 78 50 205 58 39 3 111 9 160 14 50 4 104 6 120 3 17 -3 176 -5 355 -4z"/>
<path d="M12171 8726 c-20 -22 -22 -28 -12 -58 19 -59 39 -290 41 -467 1 -202
10 -241 58 -241 26 0 30 4 35 33 5 36 -10 512 -18 536 -2 9 -9 49 -15 90 -10
73 -35 131 -55 131 -7 0 -22 -11 -34 -24z"/>
<path d="M9770 8680 c-30 -4 -64 -12 -75 -18 -11 -5 -41 -17 -66 -26 -48 -17
-100 -61 -131 -111 -31 -52 -22 -256 18 -358 17 -44 73 -109 121 -139 77 -47
342 0 408 72 39 43 -13 98 -68 72 -58 -27 -158 -47 -234 -47 -73 0 -84 3 -108
25 -38 35 -50 64 -65 152 -29 176 16 239 197 274 56 10 80 11 95 3 18 -9 24
-8 35 7 29 40 6 87 -47 97 -14 3 -50 1 -80 -3z"/>
<path d="M11229 8446 c-4 -4 -17 -9 -29 -11 -30 -6 -60 -34 -60 -55 0 -9 9
-25 20 -35 11 -10 20 -23 20 -28 0 -11 90 -97 102 -97 4 0 22 -16 39 -35 18
-19 40 -35 51 -35 14 0 18 -8 18 -38 l0 -39 -67 -12 c-95 -18 -119 -13 -115
22 2 18 -2 27 -11 27 -22 0 -67 -40 -67 -59 0 -23 35 -53 85 -74 39 -17 59
-17 140 -2 44 8 120 64 130 95 8 27 -18 74 -67 118 -125 113 -148 136 -148
152 0 24 25 32 76 24 36 -5 44 -3 53 14 8 16 7 25 -8 43 -15 19 -30 24 -87 27
-38 2 -72 1 -75 -2z"/>
<path d="M10355 8430 c-3 -5 -18 -10 -33 -10 -53 0 -135 -79 -173 -165 -19
-43 -19 -51 -7 -116 10 -54 20 -80 45 -109 68 -79 172 -101 268 -56 59 27 88
57 110 110 43 101 -38 283 -150 335 -52 24 -52 24 -60 11z m97 -140 c63 -94
63 -183 1 -222 -49 -30 -136 -41 -180 -23 -41 17 -41 23 -3 36 32 12 38 30 17
48 -24 19 -50 88 -43 115 13 52 97 108 156 102 8 -1 31 -26 52 -56z"/>
<path d="M11867 8362 c-19 -21 -37 -66 -37 -95 0 -12 -11 -49 -24 -82 -25 -61
-73 -109 -105 -103 -9 2 -24 25 -34 53 -17 47 -17 52 -1 119 l17 69 -23 19
c-31 25 -37 23 -62 -24 -34 -64 -32 -177 3 -238 16 -28 32 -44 42 -42 9 1 21
-7 27 -18 15 -27 68 -26 110 3 19 12 48 46 66 75 l32 54 7 -34 c4 -18 14 -42
21 -53 8 -11 14 -27 14 -36 0 -24 47 -59 80 -59 38 0 47 27 20 60 -38 47 -45
74 -70 243 -15 101 -44 132 -83 89z"/>
<path d="M10754 8314 c-32 -22 -41 -24 -57 -14 -40 25 -46 -12 -28 -170 14
-117 15 -120 43 -120 47 0 53 13 53 109 0 103 11 120 76 121 35 0 38 -3 73
-69 32 -61 36 -78 36 -141 0 -39 5 -80 10 -91 14 -25 42 -24 65 1 15 17 17 31
12 87 -13 142 -67 250 -147 291 -58 29 -89 28 -136 -4z"/>
<path d="M16867 7773 c-18 -20 -28 -44 -33 -80 -10 -77 1 -116 45 -160 37 -36
38 -40 25 -63 -7 -14 -13 -35 -14 -47 0 -28 -13 -29 -37 -4 -10 10 -34 26 -53
36 -19 10 -37 19 -38 20 -2 2 6 17 18 33 32 44 44 106 25 141 -18 36 -69 79
-101 87 -32 8 -89 -30 -106 -71 -27 -66 -9 -122 63 -200 28 -29 28 -31 14 -71
-8 -23 -12 -58 -9 -80 6 -46 47 -103 77 -106 12 -1 31 -2 42 -3 37 -2 72 16
97 51 22 30 24 41 17 77 -12 65 -12 72 6 57 8 -7 15 -18 15 -24 0 -6 12 -23
25 -38 33 -38 69 -36 111 6 30 30 34 40 34 86 0 46 -4 55 -37 86 -45 43 -49
65 -22 123 43 91 33 126 -42 152 -73 25 -91 24 -122 -8z m102 -54 c26 -9 30
-15 25 -33 -3 -11 -15 -30 -25 -42 -11 -11 -19 -25 -19 -31 0 -6 -7 -16 -15
-23 -25 -20 -45 5 -45 57 0 49 14 83 34 83 7 0 27 -5 45 -11z m-236 -63 c10
-8 17 -27 17 -49 0 -28 -6 -40 -31 -57 l-30 -22 -25 23 c-44 41 -25 119 29
119 12 0 30 -7 40 -14z m286 -195 c11 -7 11 -13 0 -37 -19 -37 -37 -41 -45
-10 -11 46 10 69 45 47z m-192 -87 c23 -19 26 -26 17 -41 -15 -25 -61 -46 -88
-39 -32 8 -45 42 -33 87 9 36 9 36 42 26 18 -5 46 -20 62 -33z"/>
<path d="M16377 7648 c-61 -58 -61 -116 0 -177 33 -33 35 -38 24 -65 -6 -18
-7 -34 -2 -39 5 -5 7 -26 4 -47 -6 -46 20 -98 54 -106 42 -11 96 9 120 44 31
47 22 96 -27 144 l-38 37 15 43 c33 92 17 156 -45 179 -58 22 -68 21 -105 -13z
m90 -50 c29 -20 33 -27 28 -53 -3 -16 -15 -39 -26 -50 l-20 -20 -30 35 c-33
39 -37 65 -12 92 20 23 20 23 60 -4z m37 -228 c20 0 39 -49 25 -66 -12 -15
-47 -18 -66 -6 -18 12 -5 85 14 78 8 -4 20 -6 27 -6z"/>
<path d="M16145 7621 c-38 -8 -70 -55 -78 -116 -5 -37 -2 -55 15 -88 14 -27
22 -64 24 -102 4 -117 19 -153 77 -189 83 -52 203 79 137 149 -13 14 -28 25
-34 25 -6 0 -26 14 -44 31 l-33 31 21 33 c29 46 52 142 41 163 -24 45 -78 72
-126 63z m59 -86 c19 -30 14 -59 -17 -92 -29 -32 -45 -29 -56 13 -14 49 10 98
50 103 4 1 14 -10 23 -24z m-4 -235 c18 0 80 -62 80 -79 0 -24 -45 -44 -69
-32 -29 16 -40 34 -47 81 -6 38 -5 43 10 37 10 -4 22 -7 26 -7z"/>
<path d="M15458 7505 c-38 -21 -46 -54 -19 -76 17 -14 26 -15 51 -6 46 17 46
2 1 -49 -47 -54 -50 -68 -18 -88 30 -20 103 -31 111 -17 8 12 36 -9 36 -26 0
-12 -102 -73 -122 -73 -8 0 -21 -7 -28 -15 -11 -13 -10 -20 1 -41 12 -23 18
-25 52 -20 53 9 118 48 140 85 39 67 7 151 -59 151 -36 0 -46 16 -16 27 9 3
31 20 48 38 25 26 30 38 26 63 -2 18 -10 32 -17 32 -7 0 -26 7 -41 15 -37 19
-111 19 -146 0z"/>
<path d="M15833 7487 c-14 -29 4 -107 24 -107 19 0 35 47 31 89 -4 45 -38 56
-55 18z"/>
<path d="M14818 7385 c-9 -21 -8 -37 9 -88 42 -127 62 -211 70 -294 3 -33 10
-54 20 -57 21 -9 69 17 64 35 -2 8 -7 30 -12 49 -46 200 -83 348 -91 363 -13
25 -47 21 -60 -8z"/>
<path d="M12013 7302 c-19 -16 -21 -24 -16 -127 2 -60 4 -123 3 -140 -4 -52
-3 -68 4 -170 8 -128 9 -225 4 -690 l-5 -380 -79 -1 c-43 0 -103 4 -132 9 -66
11 -113 3 -129 -23 -11 -16 -8 -26 16 -62 53 -79 109 -189 135 -263 32 -93 81
-220 93 -240 9 -15 23 -20 63 -21 46 -1 54 3 73 29 12 16 42 49 67 73 25 24
48 47 52 51 4 5 27 31 53 60 25 28 56 70 68 92 72 132 86 160 97 197 11 36 10
45 -5 68 -11 16 -24 25 -34 22 -31 -10 -196 -16 -224 -8 l-28 7 -3 590 c-4
720 -12 922 -35 935 -11 6 -24 3 -38 -8z"/>
<path d="M15862 7265 c-16 -34 -15 -38 8 -63 18 -19 24 -20 43 -9 12 6 23 12
24 12 1 0 4 12 8 27 6 24 3 29 -30 42 -21 9 -38 16 -40 16 -1 0 -7 -11 -13
-25z"/>
<path d="M14254 7250 c-94 -47 -123 -124 -93 -246 18 -70 108 -126 123 -76 5
13 18 18 52 20 79 3 145 48 160 109 12 47 -46 156 -100 185 -37 21 -108 25
-142 8z m148 -66 c4 -3 8 -13 8 -23 0 -10 7 -24 15 -31 23 -19 18 -43 -12 -71
-61 -54 -118 -64 -163 -29 -20 15 -24 27 -24 59 2 45 14 65 59 93 28 18 89 19
117 2z"/>
<path d="M10012 7172 c-35 -48 -92 -118 -127 -157 -36 -38 -65 -76 -65 -83 0
-17 -86 -102 -103 -102 -7 0 -23 -9 -36 -19 l-24 -18 34 -33 c32 -30 37 -31
79 -25 63 11 172 13 217 6 30 -5 38 -11 36 -26 -1 -11 -5 -123 -8 -250 -8
-296 -11 -347 -29 -479 -9 -60 -14 -112 -12 -115 2 -3 -2 -44 -9 -91 -16 -100
-34 -299 -42 -458 -6 -127 6 -162 52 -162 14 0 25 3 25 8 0 4 3 85 5 181 3 96
9 190 14 210 5 20 12 77 15 126 9 128 35 353 46 400 5 22 12 146 15 275 6 292
12 348 36 360 11 6 27 7 41 1 13 -5 52 -17 88 -27 41 -11 77 -28 97 -47 18
-17 34 -29 36 -26 9 13 27 79 27 100 0 13 -15 40 -33 60 -17 20 -54 77 -80
125 -87 161 -176 313 -195 337 -8 9 -20 17 -26 17 -6 -1 -39 -40 -74 -88z"/>
<path d="M15235 7248 c-45 -11 -81 -15 -141 -17 -37 -1 -43 -5 -55 -32 -11
-28 -10 -33 5 -44 34 -25 86 -27 155 -6 36 11 93 26 126 33 57 12 60 14 60 43
0 29 -1 30 -55 31 -30 1 -73 -3 -95 -8z"/>
<path d="M13750 7223 c-38 -20 -67 -68 -77 -129 -5 -31 -2 -39 17 -54 22 -16
22 -20 10 -49 -14 -35 -8 -127 11 -165 26 -50 66 -64 139 -50 63 13 73 99 21
173 l-22 30 34 45 c58 75 60 151 3 185 -48 30 -95 35 -136 14z m105 -118 c0
-45 -3 -51 -29 -63 -58 -28 -108 38 -71 94 14 21 23 25 58 22 l42 -3 0 -50z
m-29 -169 c0 0 5 -18 11 -38 9 -29 8 -40 -3 -48 -35 -29 -74 19 -60 74 5 22
11 26 29 20 12 -3 22 -7 23 -8z"/>
<path d="M13522 7151 c-12 -16 -27 -51 -33 -78 -7 -26 -25 -66 -40 -88 -25
-37 -27 -44 -19 -96 12 -84 25 -99 85 -99 55 1 71 14 93 79 10 29 9 40 -5 70
-12 23 -26 37 -40 39 -28 4 -28 0 1 94 22 73 23 78 6 93 -22 20 -23 20 -48
-14z m36 -239 c10 -7 8 -15 -8 -35 -29 -36 -40 -34 -40 8 0 36 18 46 48 27z"/>
<path d="M13217 7073 c-3 -17 0 -34 10 -45 14 -16 39 -114 50 -196 7 -51 42
-83 68 -62 20 16 19 45 -4 116 -10 32 -26 84 -35 114 -8 30 -22 65 -31 78 -23
31 -51 29 -58 -5z"/>
<path d="M14638 7026 c-28 -21 -22 -62 13 -86 29 -21 31 -21 50 -5 23 22 24
37 4 75 -17 32 -39 37 -67 16z"/>
<path d="M12763 7019 c-15 -5 -23 -17 -23 -31 0 -29 28 -48 55 -37 36 14 81
10 98 -9 14 -15 15 -24 5 -55 -10 -34 -14 -37 -49 -37 -50 0 -76 -32 -54 -64
12 -16 24 -20 55 -17 31 2 47 -3 71 -23 36 -31 76 -43 91 -28 8 8 0 24 -31 57
-34 37 -40 48 -31 64 24 46 6 124 -38 164 -23 21 -112 30 -149 16z"/>
<path d="M12550 6943 c-73 -75 -85 -104 -74 -184 11 -79 79 -106 127 -50 l25
30 18 -45 c16 -38 22 -44 44 -42 24 3 25 6 22 58 -1 31 -13 107 -26 170 -20
99 -25 114 -46 122 -21 8 -32 0 -90 -59z m47 -77 c-3 -7 -9 -34 -12 -60 -7
-41 -25 -66 -49 -66 -20 0 5 88 36 128 14 16 31 15 25 -2z"/>
<path d="M18693 6958 c-13 -37 -3 -111 32 -235 8 -28 15 -61 15 -73 0 -16 4
-20 15 -16 9 3 15 0 15 -9 0 -22 18 -18 30 5 12 22 -2 123 -19 144 -5 6 -12
47 -16 91 -4 44 -11 90 -16 103 -13 33 -43 28 -56 -10z"/>
<path d="M12311 6946 c-10 -12 -9 -20 3 -38 12 -18 17 -57 18 -156 3 -117 5
-133 23 -145 45 -34 62 15 51 152 -9 116 -21 163 -47 184 -26 21 -33 21 -48 3z"/>
<path d="M14048 6903 c-22 -6 -35 -62 -17 -74 32 -21 62 -22 76 -4 18 26 16
42 -7 65 -20 20 -23 21 -52 13z"/>
<path d="M17663 6856 c-6 -21 -7 -51 -2 -82 20 -109 19 -245 -2 -337 -21 -96
-18 -110 26 -146 65 -50 143 -34 227 47 54 52 59 61 63 107 4 45 1 53 -28 83
-47 49 -101 74 -153 71 -24 -2 -46 0 -49 3 -3 3 -10 41 -15 84 -18 149 -23
179 -33 192 -15 19 -23 14 -34 -22z m240 -358 c53 -27 -26 -126 -116 -143 -19
-4 -45 -4 -57 0 -19 6 -20 8 -5 19 9 6 16 23 17 36 1 56 10 81 36 95 28 14 90
11 125 -7z"/>
<path d="M16116 6815 c-22 -34 -23 -144 -2 -214 24 -81 21 -95 -19 -114 -20
-9 -42 -17 -49 -17 -8 0 -26 -17 -42 -37 -37 -49 -45 -127 -17 -162 29 -35
121 -41 186 -12 25 12 50 21 54 21 16 0 83 61 83 76 0 18 -32 18 -78 -2 -54
-23 -162 -29 -186 -12 -16 12 -17 18 -7 37 17 31 56 43 118 35 49 -6 53 -5 62
17 7 17 5 31 -7 49 -17 26 -52 226 -52 296 0 55 -21 74 -44 39z"/>
<path d="M13111 6787 c-6 -8 -12 -24 -13 -38 -3 -28 27 -38 61 -19 26 13 26
25 1 50 -23 23 -34 25 -49 7z"/>
<path d="M18104 6716 c-11 -29 0 -51 26 -51 21 0 25 5 25 30 0 24 -5 31 -23
33 -13 2 -24 -3 -28 -12z"/>
<path d="M9555 6661 c-65 -11 -80 -28 -51 -60 12 -13 28 -15 88 -10 40 3 81 2
91 -3 17 -9 17 -11 1 -38 -15 -25 -16 -34 -4 -76 18 -64 81 -129 110 -114 24
13 26 33 4 51 -8 7 -24 30 -35 51 -20 39 -20 39 1 67 24 35 25 49 4 79 -29 41
-126 66 -209 53z"/>
<path d="M18390 6634 c-41 -22 -48 -31 -63 -83 -20 -66 -21 -92 -6 -143 7 -26
16 -38 28 -38 34 0 44 26 38 95 -6 61 -5 65 20 85 35 27 71 25 105 -7 31 -30
34 -47 16 -105 -10 -33 -9 -41 4 -54 29 -29 54 -3 68 69 11 62 11 66 -13 104
-27 43 -63 71 -117 90 -19 7 -35 13 -35 13 0 0 -20 -12 -45 -26z"/>
<path d="M16950 6579 c-14 -6 -35 -19 -47 -30 -16 -16 -25 -18 -40 -10 -17 8
-21 5 -32 -25 -7 -19 -10 -43 -6 -54 7 -22 24 -112 28 -153 2 -15 11 -35 21
-45 16 -16 18 -16 35 5 15 18 18 34 14 87 -4 50 -1 71 13 94 27 46 57 57 151
56 71 0 83 2 83 16 0 9 -18 28 -41 43 -33 22 -52 27 -97 26 -32 0 -68 -5 -82
-10z"/>
<path d="M18122 6573 c-4 -10 -7 -63 -7 -118 0 -92 2 -100 20 -103 42 -5 49
10 47 118 -1 56 -4 106 -7 111 -10 15 -45 10 -53 -8z"/>
<path d="M15723 6534 c-29 -25 -53 -54 -53 -64 0 -11 -15 -31 -34 -45 -34 -26
-35 -27 -21 -65 7 -21 15 -59 17 -84 3 -26 7 -46 11 -46 4 0 18 0 31 0 23 0
24 2 28 100 4 97 5 101 35 132 33 33 58 33 70 1 3 -10 16 -31 27 -47 34 -48
44 -86 33 -123 -11 -36 3 -63 33 -63 33 0 40 22 29 91 -21 124 -62 215 -110
243 -15 9 -31 16 -36 16 -4 0 -32 -21 -60 -46z"/>
<path d="M17297 6567 c-52 -24 -97 -117 -97 -200 0 -55 24 -77 82 -77 20 0 40
-4 43 -10 3 -5 30 -10 59 -10 51 0 55 2 91 46 32 39 38 54 43 110 4 60 3 66
-16 70 -11 3 -22 14 -25 24 -11 41 -127 71 -180 47z m134 -89 c50 -40 52 -72
7 -115 -39 -37 -74 -44 -108 -20 -13 9 -30 17 -36 17 -13 0 -24 22 -24 49 0
48 52 99 103 100 10 1 36 -13 58 -31z"/>
<path d="M16413 6519 c-20 -26 -25 -75 -8 -89 21 -18 127 -6 206 23 63 23 77
39 37 45 -13 2 -27 8 -33 12 -5 5 -51 11 -100 15 -71 6 -93 4 -102 -6z"/>
<path d="M8658 6494 c-17 -30 -16 -66 4 -110 12 -27 25 -67 29 -89 13 -74 31
-160 41 -198 7 -31 13 -38 31 -35 19 3 23 11 29 71 6 63 19 97 38 97 11 0 56
-99 64 -141 8 -44 41 -78 58 -61 8 8 8 26 -1 68 -19 82 -44 137 -86 183 -40
44 -59 50 -85 26 -15 -14 -18 -12 -32 22 -9 21 -21 56 -28 78 -13 43 -54 102
-62 89z"/>
<path d="M15427 6463 c-3 -5 -8 -29 -12 -56 -4 -26 -11 -50 -16 -53 -5 -3 -9
-13 -9 -23 0 -11 -9 -29 -19 -42 -27 -33 -41 -16 -48 57 -9 88 -30 107 -56 52
-24 -53 -1 -167 38 -188 55 -29 107 -3 121 60 3 14 12 34 20 45 12 17 16 17
28 5 8 -8 23 -31 33 -50 11 -19 27 -36 36 -38 32 -6 30 29 -7 104 -20 41 -36
78 -36 82 0 12 -44 52 -58 52 -6 0 -13 -3 -15 -7z"/>
<path d="M9467 6438 c-44 -44 -43 -142 1 -193 39 -45 106 -85 143 -85 31 0 40
5 63 40 26 39 26 70 1 70 -8 0 -17 -5 -20 -11 -22 -35 -94 -28 -115 10 -9 18
-6 22 23 35 63 26 88 94 47 131 -11 10 -41 20 -69 23 -43 4 -53 1 -74 -20z"/>
<path d="M9293 6408 c-19 -21 -33 -48 -36 -73 -6 -36 -22 -58 -50 -68 -12 -4
19 -67 33 -67 6 0 10 -8 10 -18 0 -19 45 -50 56 -39 4 3 7 42 8 85 2 70 5 84
29 116 16 20 35 36 43 36 22 0 17 27 -8 44 -33 23 -51 20 -85 -16z"/>
<path d="M18803 6412 c-6 -4 -18 -20 -27 -36 -18 -35 -4 -74 30 -82 25 -6 47
3 39 16 -3 4 2 10 10 14 21 8 19 59 -3 79 -20 19 -31 21 -49 9z"/>
<path d="M14959 6403 c-9 -2 -30 -31 -48 -65 -39 -75 -41 -125 -7 -157 13 -13
27 -33 30 -46 3 -13 19 -33 36 -45 25 -18 35 -20 68 -11 21 6 56 26 76 44 33
28 39 40 43 84 7 69 -1 95 -39 134 -61 60 -104 77 -159 62z m74 -74 c58 -30
95 -87 67 -104 -5 -3 -10 -15 -10 -25 0 -23 -38 -50 -75 -53 -26 -2 -36 12
-62 95 -7 24 4 63 23 82 18 19 28 20 57 5z"/>
<path d="M9042 6384 c-12 -8 -22 -22 -22 -31 0 -9 -7 -24 -16 -34 -8 -9 -18
-41 -21 -71 -5 -52 -4 -55 29 -80 19 -15 63 -40 98 -57 73 -36 95 -30 106 25
8 44 -13 66 -34 35 -13 -18 -14 -18 -52 0 -22 11 -40 24 -40 29 0 6 25 37 56
71 39 43 54 65 49 77 -4 9 -10 25 -12 35 -7 23 -108 24 -141 1z"/>
<path d="M14658 6345 c-28 -15 -78 -90 -95 -140 -7 -22 -17 -31 -36 -33 -20
-3 -27 -9 -27 -26 0 -12 5 -27 11 -33 5 -5 13 -32 17 -59 6 -44 10 -49 32 -49
23 0 26 6 43 85 30 143 78 213 147 213 16 0 30 3 30 6 -1 15 -18 31 -43 40
-36 14 -46 13 -79 -4z"/>
<path d="M8603 6308 c-6 -13 -17 -55 -23 -95 -18 -103 -22 -106 -69 -55 -47
51 -70 52 -90 4 -18 -39 -29 -37 -53 10 -10 19 -30 45 -43 58 -24 22 -27 23
-42 7 -14 -13 -14 -20 -4 -39 26 -50 39 -70 61 -93 12 -13 20 -30 17 -38 -6
-17 1 -28 31 -45 21 -12 26 -11 38 5 7 10 14 22 14 26 0 4 7 19 16 32 l16 25
55 -50 c76 -69 93 -65 93 21 0 22 5 49 10 59 18 34 24 138 10 165 -16 31 -24
31 -37 3z"/>
<path d="M9767 6303 c-9 -16 -5 -78 5 -90 23 -28 78 -9 78 28 0 39 -67 89 -83
62z"/>
<path d="M15358 5928 c-8 -13 -18 -49 -22 -80 -4 -32 -12 -60 -17 -63 -5 -4
-9 -13 -9 -21 0 -17 -43 -110 -63 -135 -39 -51 -148 -68 -407 -64 -233 4 -314
12 -355 36 -38 22 -98 26 -153 9 -32 -10 -59 -31 -103 -78 -59 -65 -66 -82
-61 -152 1 -14 -2 -34 -7 -45 -5 -11 -12 -59 -14 -108 -4 -73 -2 -91 13 -109
17 -21 17 -21 27 -2 6 10 14 66 17 124 9 149 21 185 77 243 l48 49 63 -4 c35
-2 79 -12 98 -22 59 -30 156 -40 390 -38 197 1 231 3 277 21 70 26 125 70 154
126 13 25 28 44 34 42 5 -2 17 -23 25 -48 21 -60 25 -65 77 -96 44 -26 54 -27
202 -30 196 -4 294 -3 351 3 143 15 324 15 451 -2 74 -9 175 -18 224 -19 113
-3 141 -14 161 -62 31 -72 29 -97 -10 -173 -41 -82 -45 -114 -15 -130 22 -12
49 1 49 25 0 6 12 40 26 76 49 119 33 251 -39 316 -27 25 -91 38 -172 34 -34
-1 -143 9 -243 24 -150 21 -201 25 -290 19 -156 -9 -524 -11 -616 -4 -91 8
-97 13 -121 98 -14 46 -14 66 -5 123 9 52 9 77 0 104 -13 41 -22 43 -42 13z"/>
<path d="M6908 5547 l-27 -20 26 -51 c48 -93 53 -104 53 -118 0 -32 41 -98 60
-98 17 0 20 7 20 40 0 46 -63 228 -88 252 -16 15 -19 15 -44 -5z"/>
<path d="M21215 5440 c-22 -5 -141 -14 -265 -19 -124 -6 -259 -13 -300 -16
-41 -3 -160 -7 -265 -10 -104 -2 -215 -9 -245 -15 -33 -7 -247 -13 -545 -15
-269 -3 -602 -10 -740 -16 -137 -6 -383 -13 -545 -14 -345 -4 -406 -9 -439
-36 -22 -18 -23 -24 -22 -152 l1 -133 -102 -13 c-149 -19 -210 -28 -235 -36
-23 -7 -40 -43 -41 -85 -1 -14 -9 -58 -18 -99 -9 -40 -14 -85 -11 -100 l6 -26
-72 3 c-146 7 -221 0 -233 -20 -4 -6 -8 -40 -10 -77 -6 -141 -24 -278 -42
-331 -13 -37 -20 -87 -21 -155 -1 -55 -6 -104 -11 -109 -6 -6 -10 -34 -10 -62
0 -29 -4 -55 -9 -58 -16 -10 -23 -80 -27 -261 -2 -99 -5 -200 -8 -225 -2 -25
-5 -121 -7 -213 -2 -93 -6 -170 -9 -172 -4 -2 -8 -41 -8 -87 -1 -45 -4 -95 -7
-110 -4 -16 0 -40 8 -57 11 -21 12 -32 4 -40 -8 -8 -12 -173 -13 -539 -2 -566
-2 -568 47 -555 12 4 29 -3 44 -17 19 -18 30 -21 62 -15 31 5 44 2 66 -15 31
-24 63 -20 53 7 -6 14 10 15 176 9 101 -3 199 -8 218 -11 19 -2 91 -6 160 -10
69 -3 136 -8 150 -10 14 -3 97 -7 185 -9 100 -2 169 -8 183 -15 15 -8 107 -13
283 -16 144 -2 264 -6 267 -9 3 -3 11 -1 17 4 8 7 37 5 86 -4 41 -8 81 -10 89
-6 9 5 92 4 185 0 94 -5 213 -7 265 -4 52 3 126 5 165 4 38 0 110 4 160 9 49
6 142 13 205 15 203 8 383 24 444 40 89 24 204 35 361 37 77 0 156 2 175 2 19
1 85 -2 145 -7 61 -4 164 -9 230 -11 66 -1 149 -6 185 -9 36 -4 263 -9 505
-11 242 -2 510 -7 595 -10 85 -3 222 -6 303 -6 134 -2 151 0 175 18 l27 20 -4
159 -3 159 117 1 c150 0 149 -1 140 139 -6 84 -5 103 8 114 13 10 15 26 10 82
-7 78 -5 80 68 54 71 -25 167 -45 220 -45 40 0 55 5 74 25 23 23 25 31 25 130
0 86 -4 114 -20 148 -18 36 -20 54 -15 152 3 60 10 134 15 164 6 29 10 133 10
230 0 97 5 232 11 301 14 154 17 334 8 414 -15 119 -13 226 7 441 3 33 0 128
-5 210 -6 83 -12 197 -13 255 -4 173 12 523 24 548 10 19 8 26 -13 47 -20 20
-41 27 -109 35 -120 15 -196 29 -265 50 -62 19 -260 35 -391 31 -46 -1 -103 7
-165 22 -88 22 -111 23 -349 21 -140 -1 -299 -6 -352 -11 -60 -5 -138 -4 -205
2 -135 13 -744 17 -798 5z m1535 -119 c96 -6 193 -15 215 -20 22 -6 117 -11
210 -11 130 -1 190 -6 253 -21 46 -10 93 -19 105 -19 12 0 66 -10 121 -22 l98
-22 -3 -315 c-1 -174 1 -347 5 -386 12 -100 12 -212 2 -355 -9 -119 -10 -204
-5 -540 1 -80 -2 -176 -6 -215 -4 -38 -9 -101 -10 -140 -8 -237 -18 -390 -31
-464 -9 -58 -12 -123 -7 -215 5 -119 8 -134 30 -160 36 -43 28 -70 -21 -74
-58 -5 -263 45 -271 66 -16 39 -22 300 -14 617 5 187 11 360 14 385 2 25 9 94
15 154 6 59 18 143 26 185 13 63 15 171 15 614 0 358 -4 544 -11 557 -13 25
-72 50 -116 50 -18 0 -45 5 -61 11 -18 7 -149 13 -363 16 -184 2 -472 6 -640
9 -600 8 -686 9 -740 7 -30 -1 -91 0 -135 3 -145 7 -481 7 -493 0 -20 -12
-358 -31 -487 -27 -153 5 -616 6 -895 3 -118 -1 -289 3 -380 9 -92 6 -372 10
-635 9 -258 0 -474 -1 -480 0 -5 0 -32 2 -60 4 -56 4 -51 -6 -56 120 -3 80 2
84 83 85 26 1 50 6 53 11 4 6 10 8 14 6 19 -12 385 -20 491 -11 19 1 166 6
325 9 160 4 333 9 385 11 116 5 276 7 565 6 121 -1 258 4 305 10 47 7 180 13
295 15 116 2 235 5 265 7 30 2 150 9 265 16 116 6 216 14 223 16 20 7 792 8
842 1 25 -3 115 0 200 8 160 14 201 14 500 -3z m-4623 -424 c8 -6 24 -5 42 3
17 6 34 9 39 6 10 -6 102 -7 497 -8 121 0 256 -2 300 -4 44 -2 140 -6 213 -9
73 -3 149 -9 170 -13 20 -4 59 -5 86 -1 27 4 77 5 110 1 34 -4 95 -4 136 0
107 10 491 10 645 -1 72 -5 141 -8 155 -6 113 12 210 19 233 16 15 -1 91 5
170 15 110 13 172 15 277 9 74 -5 245 -9 380 -10 135 -1 335 -5 445 -9 136 -6
239 -4 326 4 92 9 145 9 195 2 38 -6 198 -14 356 -17 158 -3 293 -7 300 -10 7
-2 48 -6 91 -9 44 -3 82 -8 86 -11 7 -4 23 -116 22 -150 0 -5 -3 -109 -6 -230
-3 -121 -5 -299 -4 -395 3 -248 2 -277 -16 -350 -35 -143 -61 -615 -59 -1050
1 -193 6 -256 24 -353 6 -31 8 -62 5 -67 -4 -6 -6 -64 -6 -130 l-1 -120 -36
-10 c-42 -11 -67 -12 -98 -4 -18 5 -23 16 -28 72 -15 152 -17 254 -19 773 -2
497 2 706 19 1104 4 77 8 176 10 220 1 44 7 114 12 156 5 42 7 108 5 146 -5
56 -11 75 -33 103 -22 26 -31 32 -41 23 -9 -7 -106 -13 -259 -17 -135 -4 -299
-10 -365 -13 -130 -7 -302 -7 -600 2 -104 3 -323 4 -485 3 -365 -3 -440 -1
-510 13 -81 15 -665 47 -770 42 -130 -7 -383 -8 -415 -2 -22 4 -80 10 -130 14
-49 3 -104 11 -121 16 -20 6 -47 6 -73 0 -23 -5 -43 -5 -46 0 -7 10 -259 1
-297 -11 -16 -5 -28 -6 -28 -2 0 5 -75 14 -167 22 -158 14 -249 15 -638 4
-397 -10 -672 -13 -698 -8 -23 5 -27 9 -21 27 4 12 15 58 24 102 l17 80 104
18 c57 10 123 19 147 21 24 2 46 7 50 11 10 10 265 3 279 -8z m-741 -348 c84
-16 936 -17 942 -1 2 8 9 9 21 2 10 -5 55 -7 102 -3 117 8 109 8 359 -11 258
-19 283 -20 520 -13 96 3 191 1 210 -3 78 -19 189 -33 255 -32 436 5 805 -5
990 -28 171 -21 238 -23 815 -26 327 -2 606 -3 620 -4 14 -1 90 2 170 5 80 3
217 8 305 10 88 2 212 7 275 10 152 10 146 16 131 -157 -22 -251 -28 -343 -30
-473 -1 -71 -7 -218 -12 -325 -12 -229 -11 -168 -6 -750 3 -256 10 -530 18
-610 13 -150 15 -454 4 -491 -7 -21 -9 -21 -269 -14 -143 4 -418 8 -611 10
-369 4 -491 8 -775 25 -429 26 -899 17 -944 -19 -6 -4 -47 -12 -91 -16 -44 -5
-96 -10 -115 -12 -19 -1 -132 -7 -251 -11 -119 -5 -220 -11 -225 -14 -5 -3
-106 -9 -224 -13 -118 -4 -217 -8 -220 -10 -7 -4 -279 13 -311 19 -36 8 -119
10 -324 8 -99 -1 -243 3 -320 8 -77 6 -205 12 -285 13 -80 2 -199 10 -265 17
-66 7 -145 14 -175 14 -30 1 -66 6 -80 11 -42 14 -171 12 -477 -8 l-63 -4 -2
176 c-1 97 -1 185 0 196 0 11 1 29 2 40 1 11 1 76 0 145 0 69 2 249 6 400 9
374 11 435 18 580 3 69 8 217 11 330 5 197 26 369 56 460 6 19 10 64 10 100
-1 36 6 97 15 135 8 39 20 126 25 195 5 69 12 131 14 138 6 15 100 16 181 1z"/>
<path d="M19633 4153 c-28 -6 -47 -29 -39 -48 8 -21 66 -55 96 -56 24 0 24 -1
4 -9 -38 -15 -46 -56 -34 -175 14 -142 14 -260 0 -368 -11 -80 -10 -90 6 -108
24 -27 47 -24 67 11 15 24 19 56 20 155 1 69 5 125 8 125 3 0 18 -13 34 -30
16 -16 34 -30 42 -30 7 0 17 -9 23 -20 6 -11 17 -20 25 -20 8 0 21 -13 29 -29
9 -16 22 -31 31 -34 8 -4 15 -12 15 -19 1 -7 19 -31 40 -53 22 -22 42 -52 45
-66 8 -34 40 -69 64 -69 38 0 32 125 -7 142 -4 1 -35 37 -67 78 -33 41 -90
105 -127 142 l-67 67 37 11 c20 5 44 10 53 10 37 0 108 33 139 65 87 90 37
211 -115 282 -71 33 -258 60 -322 46z m202 -118 c69 -12 155 -47 174 -72 19
-23 18 -55 -1 -80 -5 -7 -35 -19 -66 -28 -32 -10 -63 -22 -70 -27 -13 -12 -78
-19 -102 -12 -13 3 -16 22 -17 89 -2 99 -8 125 -31 126 -11 1 -8 4 8 9 14 5
34 7 45 5 11 -2 38 -7 60 -10z"/>
<path d="M21828 4109 c-14 -7 -17 -19 -13 -52 2 -23 7 -88 10 -145 l5 -103
-73 6 c-39 3 -80 8 -89 11 -11 3 -33 -7 -55 -24 -21 -16 -51 -36 -68 -44 -111
-55 -126 -65 -157 -108 -54 -75 -60 -91 -56 -148 5 -61 28 -91 94 -123 36 -17
57 -20 121 -16 84 5 166 25 207 52 22 15 24 20 14 33 -10 12 -29 13 -107 8
-99 -7 -194 6 -220 30 -22 20 11 95 57 131 87 66 153 99 192 95 23 -3 82 -13
109 -18 l23 -5 -3 -163 c-4 -175 1 -196 46 -196 44 0 59 69 64 296 l1 61 78
17 c109 24 124 29 135 47 23 37 4 46 -103 47 -56 1 -105 4 -110 7 -4 2 -10 35
-13 72 -20 232 -18 220 -44 232 -28 13 -24 13 -45 0z"/>
<path d="M17865 3958 c-22 -11 -47 -24 -55 -28 -8 -4 -21 -19 -28 -33 -7 -15
-17 -27 -22 -27 -22 0 -49 -152 -30 -175 6 -8 9 -22 6 -32 -3 -10 0 -46 8 -81
12 -58 11 -64 -5 -72 -10 -6 -33 -10 -51 -10 -51 -1 -202 -36 -245 -59 -42
-21 -110 -100 -119 -138 -8 -30 0 -88 19 -138 14 -39 121 -155 143 -155 5 0
23 -14 40 -31 30 -32 128 -83 180 -94 57 -13 144 -52 144 -65 0 -6 -4 -18 -9
-28 -5 -9 -19 -44 -31 -77 -12 -33 -26 -67 -31 -75 -5 -8 -12 -22 -15 -30 -3
-8 -22 -55 -41 -105 -20 -49 -39 -94 -43 -100 -15 -20 -19 -59 -7 -73 6 -8 23
-37 37 -65 22 -45 31 -53 70 -65 72 -22 173 -11 252 26 36 18 68 39 72 47 3 8
31 27 63 42 32 15 80 49 108 76 87 84 82 81 98 65 23 -22 37 -55 37 -85 0 -16
7 -38 15 -50 47 -67 229 -117 290 -80 99 58 136 122 137 235 1 74 -14 175 -32
217 -5 11 -11 34 -13 50 -2 17 -7 37 -11 45 -5 12 10 20 71 38 119 36 156 50
200 79 66 43 75 67 80 220 l5 133 -35 53 c-85 127 -133 163 -247 187 -56 12
-74 20 -71 31 41 152 41 209 2 271 -41 64 -108 125 -145 132 -22 4 -52 -2 -96
-19 -35 -14 -72 -25 -81 -25 -18 0 -98 -83 -126 -131 -10 -16 -21 -29 -24 -29
-4 0 -18 15 -30 33 -37 52 -140 146 -191 172 -42 22 -64 27 -168 40 -23 3 -49
-3 -75 -17z m250 -123 c30 -20 55 -40 55 -45 0 -6 23 -38 50 -72 28 -34 50
-69 50 -77 0 -8 -11 -28 -24 -45 -13 -17 -26 -40 -29 -51 -6 -19 -12 -20 -149
-13 -79 4 -157 4 -175 1 -41 -7 -58 19 -79 116 -13 65 -12 109 3 164 10 37
100 68 186 63 45 -3 68 -11 112 -41z m586 -44 c45 -45 46 -56 23 -183 l-16
-88 -37 5 c-46 6 -133 18 -146 20 -5 1 -31 3 -56 3 -42 2 -47 5 -66 40 -19 36
-19 40 -3 69 29 55 95 121 138 138 23 10 42 21 42 26 0 5 19 9 41 9 35 0 48
-6 80 -39z m-336 -367 c8 -4 22 -21 30 -38 8 -17 19 -38 24 -46 5 -8 28 -53
51 -100 22 -47 50 -103 62 -124 19 -35 20 -44 10 -83 -7 -24 -20 -56 -30 -70
-9 -15 -22 -41 -27 -57 -11 -34 -5 -33 -157 -20 -61 5 -70 8 -85 35 -10 16
-20 29 -24 29 -9 0 -59 85 -94 158 -20 44 -26 67 -20 77 44 60 106 157 124
190 12 22 29 43 39 47 22 9 76 10 97 2z m288 -14 c9 -8 -24 -130 -47 -175
l-14 -26 -45 83 c-25 46 -48 95 -52 110 l-7 26 79 -5 c43 -3 82 -8 86 -13z
m-813 -31 c14 -22 31 -47 38 -54 6 -7 12 -17 12 -20 0 -4 18 -29 41 -56 48
-58 51 -84 16 -164 -14 -33 -33 -79 -43 -102 -16 -38 -22 -43 -49 -43 -17 0
-35 4 -40 9 -6 5 -48 23 -94 40 -94 34 -210 103 -258 153 -18 18 -39 52 -47
74 -13 37 -13 44 3 68 29 43 53 61 116 84 52 19 196 47 260 51 14 1 29 -12 45
-40z m247 35 c50 -6 52 -8 40 -28 -25 -45 -82 -115 -94 -116 -12 0 -112 126
-113 143 0 9 95 9 167 1z m817 -36 c68 -15 141 -89 149 -150 5 -40 0 -160 -9
-205 -7 -37 -127 -82 -259 -98 l-50 -6 -34 69 c-29 61 -32 74 -25 113 5 24 9
49 9 54 0 6 3 15 7 20 4 6 14 41 22 78 16 69 41 127 59 139 11 7 57 2 131 -14z
m-802 -417 l18 -43 -22 6 c-13 3 -43 6 -67 6 -42 0 -43 1 -36 28 3 15 15 47
26 72 l20 44 21 -34 c11 -19 29 -55 40 -79z m532 -62 c-3 -5 -13 -9 -24 -9
-16 0 -17 3 -7 25 11 22 13 23 24 8 7 -9 10 -20 7 -24z m-514 -90 l75 -11 45
-81 c66 -121 67 -127 24 -184 -20 -26 -43 -52 -50 -56 -8 -4 -25 -19 -39 -33
-13 -13 -31 -24 -39 -24 -8 0 -27 -10 -43 -23 -42 -35 -97 -64 -134 -72 -19
-4 -43 -14 -54 -21 -45 -32 -125 -9 -125 36 0 29 66 241 105 337 19 48 38 102
41 121 l7 34 56 -6 c31 -4 90 -12 131 -17z m585 -46 c3 -10 17 -59 30 -109 33
-122 29 -218 -10 -270 -32 -41 -60 -54 -121 -54 l-44 0 -65 99 c-36 55 -65
107 -65 115 0 8 19 46 43 83 23 37 50 82 59 98 13 23 28 33 65 42 71 17 100
16 108 -4z m-288 -17 c2 -2 -1 -16 -7 -32 -11 -27 -26 -44 -42 -44 -8 0 -48
73 -48 88 0 9 88 -2 97 -12z"/>
<path d="M18259 3237 c-38 -25 -59 -60 -59 -97 0 -35 8 -44 63 -75 114 -63
183 -62 216 3 19 37 19 38 0 83 -15 35 -32 53 -72 77 -63 38 -102 40 -148 9z"/>
<path d="M20335 3743 c-27 -8 -62 -26 -77 -41 -30 -28 -88 -132 -88 -157 0 -8
-9 -20 -20 -27 -26 -17 -25 -28 9 -103 32 -69 53 -87 155 -134 88 -41 156 -55
218 -47 87 12 118 38 103 86 -6 17 -12 20 -42 14 -93 -18 -284 38 -320 92 -14
21 -12 22 64 39 115 25 167 50 199 96 29 43 35 99 15 138 -16 29 -85 61 -131
60 -19 0 -57 -7 -85 -16z m135 -100 c10 -9 -19 -39 -60 -60 -41 -22 -130 -32
-130 -15 0 16 34 54 64 73 24 15 41 18 76 13 25 -4 47 -8 50 -11z"/>
<path d="M20937 3740 c-109 -34 -181 -103 -208 -198 -28 -100 -4 -143 98 -178
50 -17 53 -17 93 1 39 18 59 37 105 102 20 28 21 31 24 55 0 7 20 -25 42 -71
47 -94 99 -141 155 -141 51 0 51 18 0 62 -25 22 -46 48 -46 58 0 10 -5 22 -11
25 -5 4 -8 12 -6 18 2 7 -1 19 -8 27 -7 8 -28 61 -48 118 -19 57 -43 112 -53
123 -21 24 -60 23 -137 -1z m67 -98 c8 -13 -29 -109 -59 -152 -26 -37 -31 -40
-76 -40 -57 0 -68 19 -45 74 24 59 161 149 180 118z"/>
<path d="M19578 2780 c-77 -23 -158 -98 -158 -146 0 -13 13 -38 29 -56 30 -33
43 -40 206 -99 204 -74 276 -165 189 -237 -76 -63 -207 -77 -283 -31 -36 22
-41 58 -11 77 24 14 27 42 5 42 -37 0 -105 -73 -105 -113 0 -25 71 -85 119
-102 54 -18 199 -20 238 -3 39 17 141 95 153 118 13 24 13 87 0 95 -5 3 -10
15 -10 25 0 23 -107 130 -129 130 -9 0 -47 16 -86 35 -38 19 -75 35 -81 35
-31 0 -123 51 -129 71 -9 27 24 59 61 59 12 0 26 5 29 10 7 11 67 8 157 -5 58
-9 89 -2 106 25 20 33 -15 62 -86 71 -76 10 -181 9 -214 -1z"/>
<path d="M21502 2708 c-18 -18 -14 -29 18 -67 27 -31 32 -33 55 -23 20 9 25
19 25 46 0 25 -6 38 -19 46 -26 14 -64 13 -79 -2z"/>
<path d="M20845 2561 c-48 -12 -112 -57 -126 -90 -8 -17 -17 -31 -22 -31 -4 0
-14 -18 -23 -40 -9 -21 -24 -42 -35 -45 -21 -7 -25 -46 -9 -105 39 -149 47
-170 74 -191 27 -21 28 -21 46 -3 18 18 18 26 8 123 -9 90 -8 111 6 156 31
100 77 134 182 138 l66 2 14 -45 c7 -25 16 -70 18 -100 7 -74 23 -156 36 -180
28 -52 90 -57 133 -11 35 36 107 180 107 213 0 15 9 43 20 63 24 43 25 58 4
90 -20 31 -31 31 -66 2 -20 -16 -34 -44 -51 -104 -28 -97 -55 -144 -68 -120
-5 8 -15 49 -23 90 -22 111 -55 164 -95 149 -7 -2 -32 5 -55 16 -50 24 -101
32 -141 23z"/>
<path d="M20258 2542 c-47 -21 -101 -85 -118 -137 -6 -22 -26 -52 -44 -67 -29
-25 -30 -28 -13 -40 10 -8 27 -46 37 -85 23 -88 31 -104 71 -137 27 -23 39
-26 112 -26 70 0 91 4 142 29 70 33 118 80 120 116 0 14 0 25 -2 25 -1 0 -17
-6 -35 -14 -111 -46 -209 -67 -254 -53 -42 13 -62 39 -66 87 -3 32 -1 35 27
37 45 4 127 20 156 32 31 11 109 87 109 104 0 21 -25 84 -40 102 -37 45 -134
57 -202 27z m127 -74 c42 -19 33 -53 -22 -89 -38 -24 -57 -29 -93 -27 -41 3
-45 5 -42 28 3 33 74 100 106 100 14 0 37 -5 51 -12z"/>
<path d="M22356 2539 c-36 -29 -107 -134 -119 -178 -14 -54 -20 -128 -12 -168
8 -44 58 -97 105 -111 77 -23 177 -42 218 -42 102 0 204 97 122 115 -16 4 -45
2 -63 -4 -24 -8 -48 -8 -88 -1 -29 6 -68 13 -85 14 -16 2 -50 14 -75 26 l-44
23 30 10 c71 22 241 103 257 122 28 33 30 62 8 105 -20 40 -79 80 -118 80 -10
0 -27 7 -38 15 -27 21 -67 18 -98 -6z m94 -94 c89 -31 85 -50 -18 -97 -65 -29
-102 -35 -102 -19 0 10 69 131 74 131 2 0 23 -7 46 -15z"/>
<path d="M21923 2469 c-18 -5 -33 -13 -33 -17 0 -4 -13 -21 -29 -38 -16 -17
-40 -53 -54 -80 -23 -45 -24 -54 -14 -104 6 -32 21 -68 36 -86 14 -17 31 -39
36 -48 6 -10 21 -19 35 -20 14 -2 48 -11 76 -21 44 -16 58 -17 90 -7 42 12
114 72 114 94 -1 35 -16 39 -65 18 -84 -36 -171 -24 -221 31 -22 25 -20 77 5
127 29 57 45 66 120 68 36 1 72 2 79 3 25 2 8 45 -27 68 -36 25 -90 29 -148
12z"/>
<path d="M21480 2414 c-8 -8 -13 -32 -12 -52 1 -20 3 -82 4 -137 1 -106 9
-124 54 -125 31 0 41 18 46 80 6 65 -11 220 -25 238 -13 17 -52 15 -67 -4z"/>
<path d="M6460 5356 c-30 -17 -61 -58 -80 -106 -7 -19 -15 -37 -16 -39 -2 -2
-31 21 -64 52 -55 52 -63 55 -88 46 -54 -21 -48 -47 29 -119 42 -39 69 -82 69
-110 0 -5 -21 -39 -46 -77 -74 -110 -77 -119 -58 -148 9 -14 19 -25 22 -25 9
0 62 53 62 62 0 13 89 146 100 150 6 2 21 33 34 70 13 36 37 95 55 130 32 66
36 84 25 112 -7 19 -12 19 -44 2z"/>
<path d="M6603 5295 c-24 -17 -35 -66 -34 -144 1 -45 5 -60 28 -83 34 -36 59
-42 111 -29 74 20 102 91 68 172 -31 74 -124 119 -173 84z m105 -93 c6 -9 12
-33 12 -53 0 -46 -29 -62 -62 -33 -16 15 -19 26 -14 58 4 21 9 43 12 47 6 11
36 0 52 -19z"/>
<path d="M6955 5100 c-18 -19 -17 -21 1 -55 10 -19 24 -37 30 -39 20 -8 54 24
54 50 0 60 -48 85 -85 44z"/>
<path d="M10595 5070 c-3 -5 -21 -10 -39 -10 -17 0 -37 -5 -44 -12 -8 -8 -15
-8 -26 1 -10 9 -52 11 -146 8 -72 -3 -134 -7 -137 -11 -3 -3 -14 -1 -24 4 -11
6 -188 8 -466 5 -535 -7 -467 -7 -638 4 -111 7 -143 6 -154 -5 -17 -16 -17
-249 0 -302 8 -23 8 -47 1 -75 -5 -23 -10 -82 -11 -131 -1 -48 -4 -93 -7 -98
-3 -5 -8 -81 -10 -168 -1 -88 -8 -169 -14 -179 -6 -11 -13 -69 -16 -128 -3
-59 -7 -126 -8 -148 -2 -22 -5 -58 -6 -80 -1 -22 -6 -62 -11 -90 -8 -49 -14
-156 -24 -448 -3 -81 -10 -171 -16 -200 -7 -30 -13 -223 -15 -467 -3 -375 -6
-474 -19 -635 -9 -95 -25 -250 -35 -330 -6 -44 -13 -105 -17 -135 -3 -30 -9
-59 -13 -65 -4 -5 -13 -41 -20 -80 -8 -42 -23 -83 -38 -103 -21 -29 -23 -37
-12 -57 12 -23 70 -42 90 -30 10 6 156 6 230 -1 128 -11 422 -13 725 -5 461
13 782 14 890 4 50 -5 133 -6 185 -2 52 4 134 8 182 8 48 1 89 5 93 11 3 5 18
9 33 9 15 0 126 2 247 4 121 2 249 0 285 -5 35 -5 71 -6 80 -2 8 3 123 7 255
9 132 2 248 7 258 11 25 9 109 7 227 -5 52 -6 163 -10 246 -10 82 0 170 -4
195 -10 66 -15 363 -26 585 -22 138 2 150 10 156 94 3 34 1 78 -3 97 -10 44
-20 300 -22 540 -2 162 5 334 19 545 12 168 16 247 29 580 4 82 8 152 11 156
2 4 4 234 4 511 0 276 -1 514 0 528 0 14 -5 51 -11 82 -8 38 -8 62 -2 70 14
19 16 239 3 344 -20 168 -14 154 -71 154 -28 0 -60 -5 -72 -11 -16 -9 -22 -9
-25 -1 -3 9 -9 9 -23 2 -14 -8 -32 -6 -66 5 -25 9 -69 15 -97 14 -58 -3 -225
20 -242 32 -5 5 -20 6 -32 2 -12 -3 -34 0 -50 6 -15 6 -54 13 -87 15 -108 8
-175 19 -181 27 -3 5 -20 9 -37 9 -18 0 -40 7 -50 15 -11 8 -43 14 -79 14 -33
0 -81 7 -106 15 -26 8 -93 17 -150 19 -58 3 -108 10 -117 17 -9 8 -56 11 -142
10 -70 -1 -144 2 -163 5 -66 11 -190 17 -190 8 0 -8 -92 -8 -190 0 -25 2 -74
12 -109 21 -51 14 -69 16 -89 6 -19 -8 -27 -8 -33 1 -6 10 -13 10 -34 1 -15
-7 -30 -10 -34 -7 -4 2 -66 7 -137 10 -297 12 -348 16 -377 30 -36 18 -34 18
-42 5z m-196 -90 c15 7 32 8 59 1 51 -14 151 -19 184 -10 15 4 30 4 33 0 4 -8
110 -19 260 -26 44 -3 111 -7 148 -10 45 -4 73 -2 82 5 8 7 18 9 23 6 6 -3 49
-8 98 -11 48 -4 97 -11 108 -18 14 -8 87 -12 216 -14 291 -3 496 -10 507 -16
9 -6 59 -13 328 -47 44 -6 87 -13 95 -16 8 -3 38 -8 65 -10 28 -3 57 -7 65
-10 21 -8 128 -19 175 -18 22 0 45 -5 52 -12 6 -6 32 -12 57 -12 25 -1 55 -6
65 -12 24 -12 160 -42 169 -36 4 2 56 0 117 -5 78 -5 112 -5 117 4 5 8 13 8
33 -1 14 -7 39 -12 55 -12 19 0 31 -6 34 -17 20 -64 24 -1387 6 -1603 -5 -63
-10 -185 -10 -270 0 -85 -5 -195 -11 -245 -6 -49 -13 -130 -14 -178 -3 -87
-14 -223 -21 -262 -11 -55 -2 -521 13 -715 6 -83 5 -201 -2 -208 -15 -15 -638
2 -697 18 -18 6 -93 10 -166 10 -73 0 -176 5 -229 12 -74 9 -121 9 -212 -1
-114 -12 -592 -17 -641 -6 -39 8 -319 7 -333 -2 -30 -19 -470 -30 -977 -24
-157 2 -379 0 -495 -4 -289 -11 -648 -11 -845 -1 -91 4 -166 9 -168 11 -2 2 6
47 18 102 40 187 51 262 66 468 3 44 10 109 16 145 5 36 14 283 18 550 5 267
11 503 14 525 3 22 10 164 15 315 10 259 15 325 41 529 6 46 8 97 5 112 -4 16
-2 61 4 101 14 93 41 518 41 634 0 49 -5 126 -12 172 -8 63 -8 86 0 94 7 7 40
11 79 10 211 -4 307 -5 588 -4 171 0 361 -1 423 -3 61 -1 112 0 112 5 0 4 33
5 73 2 59 -3 75 -1 86 12 13 15 15 15 32 0 14 -12 22 -13 38 -4z"/>
<path d="M9393 4605 c-33 -23 -30 -52 7 -60 35 -8 46 -21 32 -38 -6 -7 -11
-75 -13 -152 -1 -77 -8 -193 -15 -259 -7 -65 -10 -125 -7 -133 3 -8 16 -13 32
-11 26 3 26 4 34 113 5 60 12 116 17 124 8 15 50 16 289 7 42 -1 47 11 17 47
-20 24 -31 29 -94 34 -40 3 -72 10 -72 15 0 5 -25 6 -58 2 -79 -9 -83 -2 -80
127 l3 104 140 -3 c77 -1 149 -3 160 -5 17 -2 20 3 17 33 -1 19 -6 38 -10 42
-4 4 -65 9 -137 13 -71 3 -155 8 -185 11 -42 4 -61 1 -77 -11z"/>
<path d="M10306 4607 c-18 -13 -18 -17 -3 -78 42 -173 58 -343 43 -450 -6 -45
-5 -49 45 -108 28 -34 59 -61 69 -61 10 0 22 -4 25 -10 22 -36 165 20 191 75
15 33 15 37 -13 104 -26 66 -31 72 -83 98 -32 16 -78 30 -110 33 l-55 5 -3 50
c-7 151 -52 355 -77 355 -6 0 -19 -6 -29 -13z m281 -526 c13 -19 23 -44 23
-56 0 -31 -40 -55 -90 -55 -76 0 -128 83 -83 132 13 15 28 18 72 16 50 -3 57
-6 78 -37z"/>
<path d="M10848 4411 c-22 -22 -23 -35 -3 -51 16 -14 51 -5 58 14 9 23 -4 56
-22 55 -9 0 -24 -8 -33 -18z"/>
<path d="M10105 4286 c-81 -35 -203 -139 -251 -210 -23 -36 -14 -100 18 -125
31 -26 122 -54 147 -46 24 7 91 83 91 102 0 25 19 13 72 -47 42 -48 58 -60 78
-58 20 2 26 9 28 37 2 19 0 37 -5 40 -22 16 -75 95 -87 129 -16 45 -30 116
-31 157 0 35 -17 40 -60 21z m5 -110 c0 -7 -9 -21 -19 -30 -10 -10 -22 -34
-26 -54 -16 -86 -59 -125 -114 -102 -75 31 -34 97 119 192 27 17 40 15 40 -6z"/>
<path d="M11263 4246 c-42 -19 -90 -66 -103 -101 -13 -35 -5 -143 16 -201 33
-93 180 -154 265 -110 14 7 37 16 51 19 61 16 105 103 87 172 -17 62 -44 109
-84 144 -91 79 -169 105 -232 77z m139 -106 c55 -36 118 -115 118 -146 0 -29
-50 -71 -103 -85 -49 -13 -117 -6 -152 17 -23 15 -24 17 -8 40 15 23 14 26 -5
47 -12 12 -24 41 -28 63 -5 37 -3 43 26 67 44 37 93 36 152 -3z"/>
<path d="M10865 4211 c-15 -18 -16 -34 -10 -156 8 -144 13 -157 55 -135 21 11
21 16 15 128 -10 189 -17 209 -60 163z"/>
<path d="M9335 3362 c-17 -10 -39 -36 -49 -58 -10 -21 -23 -46 -28 -54 -29
-51 -52 -116 -70 -203 -19 -87 -20 -106 -9 -151 13 -52 25 -85 44 -121 6 -11
18 -33 27 -50 22 -42 67 -85 90 -85 11 0 20 4 20 9 0 5 2 16 5 23 3 8 -10 34
-29 58 -59 76 -79 142 -73 235 8 114 55 274 93 316 8 8 14 19 14 24 0 5 7 16
16 26 18 20 13 49 -8 49 -7 0 -27 -8 -43 -18z"/>
<path d="M9521 3278 c-8 -23 -8 -44 -1 -68 6 -22 7 -76 1 -150 -5 -63 -9 -126
-9 -140 0 -14 -3 -46 -7 -72 -8 -48 -8 -48 27 -62 19 -9 80 -17 139 -19 58 -2
114 -9 124 -15 11 -5 41 -13 66 -17 39 -6 47 -4 53 11 8 20 -24 57 -62 73 -34
13 -234 61 -257 61 -16 0 -17 9 -9 113 12 153 8 244 -14 281 -24 41 -38 42
-51 4z"/>
<path d="M11105 3288 c-13 -19 -14 -42 -9 -138 3 -63 9 -133 13 -155 4 -22 6
-57 3 -78 -3 -31 -8 -37 -27 -37 -13 0 -36 5 -52 11 -19 7 -29 7 -31 0 -2 -6
-19 -11 -37 -11 -44 0 -85 -47 -85 -96 0 -71 65 -155 131 -169 21 -5 51 -1 87
11 48 16 60 26 89 71 34 54 41 81 22 100 -6 6 -15 29 -20 52 -13 59 -32 275
-30 346 2 62 -11 115 -28 115 -6 0 -17 -10 -26 -22z m-26 -491 c13 -7 33 -24
44 -39 l21 -28 -24 -25 c-18 -19 -34 -25 -66 -25 -36 0 -47 5 -73 35 -32 37
-42 89 -18 99 17 7 86 -3 116 -17z"/>
<path d="M10595 3028 c-82 -27 -182 -87 -227 -135 -34 -36 -61 -109 -53 -145
7 -28 69 -88 92 -88 7 0 13 -4 13 -10 0 -13 55 -13 102 0 42 12 98 79 98 117
0 42 18 24 49 -51 17 -41 31 -78 31 -83 1 -12 85 -73 101 -73 43 0 51 50 12
71 -30 16 -77 109 -124 246 -24 68 -27 87 -17 107 8 20 8 29 -2 41 -14 17 -32
18 -75 3z m1 -114 c10 -39 -34 -171 -64 -195 -29 -22 -51 -24 -95 -6 -38 17
-62 56 -53 90 9 36 146 136 188 137 11 0 20 -10 24 -26z"/>
<path d="M10036 3008 c-58 -34 -79 -79 -72 -155 9 -102 30 -124 120 -125 62
-1 140 35 181 84 25 29 27 38 22 91 -3 32 -11 65 -18 73 -23 27 -68 45 -132
50 -52 4 -68 2 -101 -18z m162 -68 c29 -18 33 -25 27 -48 -9 -35 -18 -45 -73
-82 -82 -54 -122 -35 -122 59 0 44 23 69 72 81 51 12 61 11 96 -10z"/>
<path d="M9602 2290 c-50 -6 -69 -13 -92 -35 -17 -16 -30 -34 -30 -41 0 -14
23 -40 41 -46 17 -6 30 -127 17 -151 -6 -12 -6 -23 0 -29 10 -10 6 -119 -8
-208 -9 -57 0 -79 32 -84 8 -1 27 -9 41 -19 33 -21 62 -24 164 -14 76 8 85 11
127 48 50 44 63 82 46 133 -8 25 -34 51 -106 105 -52 39 -99 71 -105 71 -23 0
-4 29 46 70 60 48 67 64 63 124 -3 35 -7 39 -43 51 -22 7 -53 15 -70 18 -16 3
-37 8 -45 10 -8 2 -43 1 -78 -3z m137 -81 c18 -6 31 -18 31 -28 0 -23 -44 -67
-90 -91 -61 -31 -67 -28 -72 38 -3 31 -3 62 -1 69 9 23 81 29 132 12z m3 -275
c29 -13 75 -44 103 -68 l50 -44 -20 -22 c-49 -54 -210 -97 -250 -67 -17 13
-19 25 -17 117 2 57 5 107 9 112 8 14 64 1 125 -28z"/>
<path d="M12842 2258 c-18 -18 -15 -36 19 -129 30 -81 43 -116 76 -189 22 -49
25 -190 6 -265 -8 -33 -35 -102 -60 -152 -42 -86 -44 -94 -28 -109 27 -27 59
-4 94 68 41 83 91 260 91 322 0 117 -134 466 -179 466 -4 0 -12 -5 -19 -12z"/>
<path d="M10567 2248 c-21 -16 -25 -96 -14 -283 4 -71 10 -178 13 -237 7 -117
20 -146 51 -115 12 12 15 32 14 79 -2 35 -4 108 -6 163 -8 231 -16 389 -21
397 -7 11 -17 10 -37 -4z"/>
<path d="M12682 2036 c-43 -15 -117 -87 -144 -140 l-21 -41 -9 28 c-10 29 -29
35 -47 13 -8 -10 -9 -33 -2 -81 6 -38 8 -72 6 -75 -3 -4 0 -22 6 -41 7 -19 14
-54 18 -79 5 -36 10 -46 28 -48 32 -5 45 30 49 123 3 100 32 170 99 238 37 37
54 47 80 47 42 0 48 9 27 37 -23 28 -50 34 -90 19z"/>
<path d="M10242 2030 c-18 -4 -43 -17 -56 -29 -12 -11 -28 -21 -35 -21 -7 0
-32 -16 -57 -36 -36 -30 -48 -48 -64 -101 l-20 -65 30 -42 c36 -48 101 -76
164 -70 55 6 85 30 106 84 l18 45 11 -28 c6 -16 11 -35 11 -42 0 -14 45 -101
61 -119 12 -13 59 2 59 20 0 9 -9 29 -20 44 -11 15 -43 97 -70 181 -49 147
-70 190 -94 188 -6 -1 -26 -5 -44 -9z m32 -88 c8 -13 -12 -190 -24 -212 -8
-15 -16 -17 -48 -9 -150 33 -159 133 -17 203 52 26 80 32 89 18z"/>
<path d="M11312 2010 c-25 -10 -63 -49 -89 -92 -21 -34 -27 -35 -39 -4 -7 20
-13 23 -32 15 -22 -8 -23 -13 -18 -67 3 -31 8 -93 12 -137 12 -150 64 -138 84
19 12 94 50 171 93 186 41 14 61 0 91 -64 22 -47 33 -89 53 -203 6 -38 26 -58
49 -49 14 5 15 16 10 64 -3 31 -8 81 -10 111 -3 34 -13 66 -26 83 -11 15 -20
36 -20 47 0 11 -17 38 -38 61 -40 42 -71 49 -120 30z"/>
<path d="M11800 1992 c-68 -45 -130 -114 -130 -145 0 -7 -11 -29 -25 -49 -14
-20 -25 -44 -25 -53 0 -22 58 -105 73 -105 7 0 26 -7 42 -16 49 -26 121 -22
188 11 51 25 87 59 75 70 -2 2 -30 -2 -62 -9 -39 -9 -69 -11 -90 -5 -17 5 -44
7 -61 4 -23 -5 -36 0 -57 20 -16 14 -28 35 -28 46 0 50 69 139 120 154 38 11
60 35 60 67 0 24 -4 28 -27 27 -16 0 -39 -8 -53 -17z"/>
<path d="M12178 1960 c-85 -41 -105 -60 -127 -116 -37 -97 -24 -160 45 -225
44 -41 89 -59 146 -59 65 0 168 62 168 102 0 23 -11 23 -52 -2 -59 -34 -192
-18 -228 28 -26 32 -25 52 0 52 28 0 189 66 212 86 23 22 23 72 -1 104 -28 35
-118 52 -163 30z m102 -85 c0 -13 -21 -25 -46 -25 -8 0 -27 -9 -42 -20 -29
-21 -72 -18 -72 5 0 19 46 45 93 54 48 9 67 5 67 -14z"/>
<path d="M10914 1959 c-3 -5 -20 -16 -38 -23 -48 -20 -132 -125 -150 -187
l-16 -52 31 -38 c17 -22 42 -42 56 -45 60 -15 141 38 172 114 16 37 31 42 31
9 0 -12 6 -31 14 -42 7 -11 16 -32 20 -47 7 -31 49 -56 84 -50 30 5 28 33 -4
72 -33 38 -62 131 -70 221 -4 38 -10 70 -13 70 -35 7 -112 5 -117 -2z m53 -76
c-11 -83 -62 -179 -109 -204 -35 -19 -68 3 -68 45 0 34 41 96 79 120 8 5 28
24 45 42 42 45 59 44 53 -3z"/>
<path d="M15172 4993 c-34 -3 -55 -9 -59 -19 -3 -7 -15 -14 -28 -14 -12 0 -37
-5 -56 -12 -36 -12 -122 -66 -127 -80 -2 -5 -19 -25 -38 -45 -19 -20 -34 -45
-34 -57 0 -12 -6 -30 -14 -41 -15 -22 -29 -67 -33 -105 -1 -14 -5 -38 -8 -55
-9 -42 20 -209 43 -253 10 -20 27 -52 36 -69 10 -18 23 -33 30 -33 7 0 18 -11
24 -24 6 -13 19 -27 29 -30 10 -3 23 -14 28 -25 32 -60 67 -100 92 -105 15 -4
64 -2 108 4 101 14 143 19 226 29 75 10 142 40 182 83 35 38 81 128 101 199
40 143 30 233 -42 372 -36 70 -60 102 -118 155 -40 37 -90 75 -111 86 -21 10
-46 23 -57 28 -22 12 -102 17 -174 11z m191 -124 c47 -24 130 -80 135 -91 2
-4 14 -22 28 -40 32 -45 83 -152 94 -202 10 -45 -8 -154 -36 -222 -21 -49 -91
-123 -134 -142 -40 -17 -234 -44 -299 -42 -24 0 -57 8 -72 16 -15 7 -34 14
-42 14 -23 0 -147 156 -170 213 -39 100 -22 265 38 356 54 80 114 113 275 151
68 15 139 11 183 -11z"/>
<path d="M3557 4964 c-5 -5 -197 -15 -342 -19 -66 -1 -151 -8 -189 -15 -49 -9
-109 -10 -210 -5 -147 8 -353 11 -491 8 -44 -1 -199 0 -345 2 -540 8 -828 7
-940 -5 -63 -6 -154 -13 -203 -15 -48 -2 -102 -7 -120 -11 -37 -8 -134 -50
-140 -62 -17 -27 -29 -1015 -15 -1177 10 -108 14 -212 22 -540 3 -115 13 -282
22 -370 20 -186 20 -209 2 -971 -2 -73 1 -106 11 -118 7 -9 17 -14 21 -11 5 3
20 1 33 -4 14 -6 56 -13 94 -16 37 -4 71 -9 74 -11 4 -2 51 -8 105 -14 55 -6
117 -16 139 -22 22 -6 63 -12 90 -14 103 -7 194 -12 330 -18 77 -3 158 -8 180
-12 247 -37 752 -29 1040 18 39 6 77 12 85 13 8 1 44 5 80 9 36 4 106 16 155
26 184 39 282 45 860 51 130 1 460 -17 475 -26 4 -3 36 -9 71 -14 35 -5 102
-17 149 -25 47 -8 147 -18 222 -22 121 -6 140 -5 164 10 25 17 26 21 20 79 -4
34 -11 108 -16 165 -5 56 -12 107 -15 112 -9 15 -10 313 0 475 10 180 8 452
-5 590 -5 55 -9 138 -9 183 0 46 -6 143 -12 215 -7 73 -12 143 -12 157 1 14
-3 90 -8 170 -5 80 -14 240 -19 355 -5 116 -16 242 -24 280 -14 68 -20 134
-31 380 -7 147 -16 171 -66 179 -21 3 -43 4 -51 1 -7 -3 -63 2 -123 11 -167
24 -277 32 -331 24 -26 -4 -64 -6 -84 -3 -45 5 -638 11 -643 7z m603 -81 c257
0 298 -2 356 -17 34 -9 102 -16 150 -16 49 0 96 -4 104 -10 11 -7 16 -49 22
-197 4 -103 14 -226 23 -273 16 -88 22 -168 29 -400 6 -190 23 -520 36 -685 6
-77 13 -205 16 -285 2 -80 7 -183 9 -230 8 -127 6 -245 -5 -336 -6 -44 -10
-132 -10 -195 1 -63 1 -125 1 -139 0 -74 22 -340 31 -369 17 -55 -4 -64 -137
-57 -131 6 -162 10 -280 35 -164 35 -265 43 -520 42 -516 -3 -691 -10 -850
-36 -203 -32 -284 -43 -385 -51 -85 -6 -200 -23 -296 -44 -46 -10 -483 -7
-674 5 -36 3 -137 9 -225 14 -88 5 -198 14 -245 20 -47 7 -123 17 -170 23
-129 16 -255 26 -357 27 -84 1 -93 3 -104 23 -9 17 -10 97 -3 322 12 406 10
568 -9 716 -10 80 -18 245 -22 460 -3 184 -9 367 -14 405 -18 153 -15 758 5
1062 l6 82 51 17 c29 9 83 18 122 19 83 3 237 16 246 21 3 2 116 4 251 4 134
1 264 6 287 11 29 6 47 6 55 0 14 -12 389 -18 841 -14 61 1 191 1 290 1 99 0
232 5 295 12 63 8 183 14 265 15 121 1 374 14 382 19 1 0 73 1 160 0 87 0 210
-1 273 -1z"/>
<path d="M1023 4538 c-6 -7 -15 -35 -22 -63 -14 -62 -50 -347 -50 -395 0 -19
-2 -70 -5 -113 -4 -63 -2 -79 10 -84 9 -3 20 -1 26 5 6 6 21 95 34 197 26 208
41 295 54 295 7 0 76 -123 111 -200 9 -19 25 -43 36 -53 19 -17 21 -16 47 4
16 12 50 69 82 136 32 67 60 113 67 110 25 -8 65 -209 84 -414 6 -73 26 -99
50 -68 17 23 11 131 -14 255 -8 41 -19 100 -25 130 -5 30 -12 69 -15 85 -5 28
-16 59 -46 128 -25 56 -54 25 -133 -140 -33 -68 -64 -123 -69 -123 -14 0 -30
27 -98 160 -53 105 -90 160 -108 160 -3 0 -11 -6 -16 -12z"/>
<path d="M2997 4422 c-16 -17 -16 -27 -2 -126 8 -58 20 -127 25 -151 6 -27 8
-105 4 -189 -6 -141 3 -216 27 -216 12 0 18 32 25 130 11 168 8 257 -10 400
-23 171 -33 192 -69 152z"/>
<path d="M3277 4372 c-10 -10 -17 -21 -17 -25 0 -10 50 -57 60 -57 13 0 13 56
0 81 -13 24 -22 24 -43 1z"/>
<path d="M3855 4380 c-8 -13 1 -163 20 -320 8 -63 17 -157 20 -208 6 -77 10
-94 27 -103 29 -15 44 3 52 63 11 83 60 131 117 113 27 -9 55 -69 63 -135 11
-84 16 -97 42 -109 35 -15 39 3 27 110 -16 138 -79 219 -170 219 -22 0 -48 -7
-59 -15 -10 -8 -24 -15 -30 -15 -15 0 -32 85 -44 225 -15 174 -18 185 -40 185
-10 0 -22 -5 -25 -10z"/>
<path d="M3627 4358 c-3 -11 -2 -42 2 -67 4 -25 7 -73 6 -105 -2 -65 -10 -74
-72 -75 -19 -1 -43 -11 -60 -26 l-28 -25 24 -20 c17 -14 38 -20 76 -20 38 0
54 -4 59 -15 5 -13 0 -66 -20 -211 -6 -46 11 -63 46 -44 22 12 28 38 35 159 6
109 15 131 53 131 36 0 77 22 77 40 0 9 -24 23 -60 36 l-60 21 -30 122 c-16
66 -33 121 -36 121 -4 0 -9 -10 -12 -22z"/>
<path d="M2232 4167 c-9 -5 -37 -30 -60 -55 -61 -65 -65 -109 -25 -307 6 -31
13 -40 28 -40 19 0 20 7 20 110 0 118 14 182 44 209 47 43 109 -57 118 -189 5
-81 22 -125 47 -125 21 0 27 45 17 140 -18 181 -105 300 -189 257z"/>
<path d="M1743 4109 c-57 -49 -71 -73 -79 -131 -13 -95 38 -185 110 -194 57
-7 99 11 146 63 96 108 106 204 29 276 -26 23 -38 27 -94 27 -60 0 -66 -2
-112 -41z m178 -40 c17 -17 20 -28 14 -57 -7 -38 -40 -108 -59 -127 -52 -51
-116 -71 -116 -37 0 10 -7 28 -16 41 -21 29 -14 103 13 139 24 32 80 62 115
62 16 0 37 -9 49 -21z"/>
<path d="M3270 4115 c-11 -20 -11 -35 -1 -81 8 -35 10 -81 6 -123 -6 -56 -4
-69 10 -81 15 -13 20 -12 36 8 10 13 16 32 14 43 -2 11 -5 52 -5 92 -3 122
-10 167 -30 167 -9 0 -23 -11 -30 -25z"/>
<path d="M2720 4103 c-44 -8 -104 -56 -115 -93 -5 -19 -14 -41 -18 -48 -15
-23 3 -132 24 -145 10 -6 19 -17 19 -23 0 -7 13 -26 29 -43 26 -28 35 -31 86
-31 80 0 127 28 154 91 55 126 -7 277 -120 292 -19 3 -45 3 -59 0z m81 -94
c96 -68 54 -220 -63 -231 -70 -7 -81 6 -85 92 -3 94 9 136 45 148 42 14 75 11
103 -9z"/>
<path d="M6615 4761 l-130 -47 -52 -68 c-28 -37 -58 -73 -66 -79 -7 -7 -22
-47 -32 -89 -14 -60 -16 -95 -11 -160 10 -125 36 -197 101 -277 51 -65 58 -70
112 -83 32 -7 78 -13 103 -14 25 0 70 -5 100 -10 80 -13 220 -7 286 12 49 14
69 28 135 94 70 69 78 82 90 136 29 129 1 278 -74 395 -38 60 -142 169 -161
169 -7 0 -21 8 -32 18 -31 28 -115 52 -179 52 -46 -1 -91 -12 -190 -49z m324
-82 c147 -82 229 -209 238 -371 7 -110 2 -128 -50 -178 -88 -86 -200 -116
-347 -94 -46 7 -84 8 -98 3 -36 -14 -97 -11 -142 7 -22 9 -40 19 -40 23 0 4
-15 28 -34 52 -98 127 -85 371 24 463 69 58 260 134 340 135 23 1 60 -13 109
-40z"/>
<path d="M16646 4701 c-9 -10 -16 -28 -16 -40 0 -12 -7 -53 -16 -91 -11 -52
-20 -71 -35 -75 -11 -4 -61 5 -112 18 -157 43 -405 79 -552 81 -58 1 -60 0
-63 -26 -2 -17 1 -28 9 -28 7 0 20 -7 30 -16 19 -17 21 -17 194 -38 102 -13
233 -36 315 -57 101 -25 116 -30 128 -37 11 -7 6 -31 -24 -118 -20 -60 -45
-121 -55 -136 -24 -34 -24 -52 2 -87 l21 -29 42 18 c26 12 88 23 171 30 265
22 331 39 363 93 20 33 10 55 -36 77 -28 14 -57 46 -119 134 -12 17 -22 36
-22 42 -1 15 -48 99 -81 145 -14 19 -36 58 -49 87 -28 60 -68 83 -95 53z"/>
<path d="M8293 4670 c-27 -11 -35 -36 -33 -103 5 -153 3 -155 -87 -134 -77 18
-269 41 -282 33 -4 -3 -55 -8 -112 -11 -201 -10 -262 -16 -280 -28 -24 -15
-24 -26 2 -54 21 -22 26 -22 168 -17 80 3 171 10 202 15 46 9 74 7 160 -9 57
-11 120 -23 140 -26 19 -4 44 -12 54 -20 17 -12 17 -18 5 -77 -7 -35 -19 -80
-26 -100 -13 -38 -11 -44 23 -73 22 -19 23 -18 63 17 42 38 45 40 155 57 120
18 178 32 235 53 72 28 80 34 80 68 0 22 -6 32 -24 38 -13 5 -68 58 -122 117
-141 155 -172 184 -236 227 -31 20 -58 37 -60 36 -2 0 -13 -4 -25 -9z"/>
<path d="M14355 4509 c-50 -7 -255 -60 -287 -74 -10 -4 -18 -11 -18 -16 0 -5
-7 -9 -16 -9 -9 0 -41 -15 -71 -32 -29 -18 -73 -44 -96 -58 -141 -83 -158
-100 -137 -140 16 -29 38 -25 111 20 35 22 127 71 204 109 168 82 256 102 464
103 150 1 199 9 219 35 11 16 10 20 -9 35 -11 10 -25 15 -30 12 -5 -2 -17 -1
-26 4 -24 13 -246 20 -308 11z"/>
<path d="M5680 4465 c-25 -7 -55 -14 -67 -14 -12 -1 -39 -10 -59 -21 -20 -12
-38 -19 -41 -16 -3 2 -36 -4 -74 -15 -38 -10 -83 -19 -100 -19 -16 0 -51 -9
-77 -19 -26 -11 -60 -22 -77 -26 -57 -12 -98 -74 -59 -89 14 -5 119 17 210 45
17 5 48 9 70 9 21 1 57 8 79 16 136 52 292 72 415 54 140 -21 284 -29 296 -17
21 22 25 64 7 78 -34 29 -449 56 -523 34z"/>
<path d="M15440 2449 c-80 -3 -190 -11 -245 -16 -110 -12 -300 -11 -384 2
l-53 8 -39 -42 c-22 -23 -39 -46 -39 -52 0 -21 -44 -96 -85 -144 -46 -55 -65
-86 -65 -108 0 -8 -14 -30 -30 -47 l-31 -33 6 -356 c3 -196 6 -372 8 -391 1
-19 -3 -67 -9 -106 -14 -91 -8 -234 11 -253 14 -15 59 -24 190 -42 115 -15
143 -18 210 -24 33 -2 80 -10 105 -16 25 -6 90 -13 145 -15 55 -3 120 -9 145
-14 43 -9 191 -22 385 -35 l90 -6 12 30 c8 23 8 39 -3 69 -7 22 -14 59 -15 83
-2 50 11 351 16 359 2 3 -1 40 -5 83 -5 43 -12 129 -15 190 -4 62 -11 168 -16
237 -5 69 -12 195 -15 280 -4 85 -9 200 -13 255 l-6 100 -34 2 c-18 1 -43 3
-55 5 -11 2 -86 1 -166 -3z m185 -110 c6 -6 10 -108 10 -262 1 -139 4 -257 7
-262 3 -6 9 -98 13 -205 4 -107 10 -215 15 -240 10 -57 3 -347 -10 -369 -5
-10 -6 -43 -3 -74 l6 -57 -44 -1 c-24 0 -60 -2 -79 -3 -34 -2 -225 20 -238 28
-4 2 -70 7 -146 11 -76 4 -163 13 -192 21 -29 7 -114 18 -189 24 -75 6 -155
14 -178 18 -41 7 -42 9 -49 52 -4 25 -4 86 0 135 4 50 6 106 6 125 -8 281 -5
678 5 685 5 3 42 -8 83 -24 40 -15 108 -34 150 -41 91 -15 118 -35 118 -85 0
-25 -4 -35 -16 -35 -8 0 -36 -12 -60 -26 -25 -15 -47 -24 -51 -21 -3 3 -8 35
-10 71 -5 55 -9 66 -24 66 -25 0 -35 -24 -44 -105 -9 -96 -9 -92 -3 -345 4
-124 11 -237 17 -252 13 -35 58 -63 141 -87 152 -43 273 -57 564 -62 11 0 27
-4 37 -9 13 -7 22 -5 33 6 17 16 17 19 20 149 1 44 9 166 17 270 17 224 15
372 -6 462 -19 82 -19 150 0 207 8 24 14 55 12 68 -7 43 -34 47 -314 48 -222
0 -267 -2 -287 -15 -31 -21 -38 -50 -16 -70 15 -13 47 -15 236 -12 120 3 233
2 249 0 l30 -5 2 -108 c1 -59 8 -127 14 -151 6 -24 14 -72 16 -106 5 -71 -3
-78 -51 -40 l-29 23 17 56 c9 31 16 78 16 105 0 40 -6 55 -34 88 l-33 39 -72
-47 c-39 -27 -76 -57 -81 -68 -15 -26 -27 -16 -40 32 -9 32 -21 46 -57 70 -55
34 -85 36 -138 9 -22 -11 -44 -20 -50 -20 -21 1 -113 164 -124 220 -6 30 -14
67 -17 81 l-6 26 194 8 c106 4 258 11 338 15 162 8 310 3 325 -11z m-899 -183
c6 -32 20 -70 31 -84 11 -15 25 -38 32 -51 13 -24 13 -24 -32 -19 -49 6 -157
56 -157 73 0 20 91 146 103 142 6 -2 17 -29 23 -61z m345 -234 c41 -42 55 -78
45 -118 -7 -26 -9 -26 -58 -21 -28 4 -55 12 -59 19 -12 19 -32 136 -24 147 14
23 58 11 96 -27z m274 -26 c14 -21 14 -26 0 -52 -8 -16 -15 -37 -15 -46 0 -23
-13 -29 -66 -32 l-46 -3 7 36 c4 26 19 48 53 79 25 23 48 42 49 42 1 0 9 -11
18 -24z m-385 -245 c26 -41 31 -58 28 -98 -3 -45 -5 -48 -33 -51 -19 -2 -43 6
-64 20 -37 25 -42 33 -61 91 -14 45 -8 55 43 74 49 18 53 16 87 -36z m223 -11
c4 -15 0 -20 -14 -20 -12 0 -19 7 -19 18 0 37 23 38 33 2z m232 -37 c17 -24 9
-67 -17 -90 -18 -16 -22 -16 -46 -2 -35 19 -38 38 -13 94 20 44 22 46 42 32
11 -8 27 -24 34 -34z m-612 -80 c17 -57 52 -87 102 -85 43 2 45 -12 5 -58 -17
-19 -35 -50 -41 -69 -14 -42 -6 -107 17 -132 9 -10 14 -22 11 -25 -8 -9 -95
47 -103 66 -4 8 -8 71 -9 140 -1 69 -5 144 -9 168 -11 59 10 55 27 -5z m640
-234 c-1 -83 -5 -155 -10 -160 -12 -12 -89 -13 -263 -3 -85 4 -172 8 -192 8
-21 0 -38 4 -38 8 0 4 3 8 8 8 4 0 36 5 71 10 54 7 70 15 102 46 l39 38 35
-17 c46 -22 72 -12 66 26 -2 11 8 9 39 -9 15 -10 35 -14 44 -11 24 9 39 56 32
103 -7 55 2 82 33 98 14 8 28 13 31 11 3 -2 4 -72 3 -156z m-150 94 c7 -36
-10 -45 -33 -18 -10 12 -10 21 -1 42 14 30 26 22 34 -24z m-215 -30 c19 -40
20 -48 8 -62 -7 -9 -16 -25 -20 -36 -5 -17 -14 -20 -68 -20 -52 0 -63 3 -66
17 -2 12 6 21 22 28 15 5 30 20 35 32 5 13 15 38 21 56 17 45 41 41 68 -15z"/>
<path d="M7288 2354 c-3 -3 -75 -14 -159 -24 -85 -11 -188 -26 -229 -35 -73
-14 -218 -11 -443 10 -55 5 -59 4 -86 -26 -16 -17 -38 -36 -48 -43 -86 -49
-149 -109 -245 -231 -26 -33 -54 -67 -63 -76 -20 -21 -19 -31 6 -63 l20 -26
-20 -26 c-18 -23 -21 -41 -21 -139 0 -66 -6 -130 -14 -158 -10 -35 -11 -68 -4
-149 5 -56 10 -123 13 -148 2 -25 4 -125 4 -222 0 -215 9 -243 69 -234 107 17
229 17 277 0 94 -31 271 -35 518 -9 171 18 182 18 301 1 155 -22 229 -16 254
22 27 41 24 292 -5 437 -41 203 -69 539 -80 955 -4 150 -11 190 -33 190 -3 0
-9 -3 -12 -6z m-38 -118 c4 -115 10 -254 15 -301 3 -33 10 -168 16 -299 5
-132 13 -244 16 -249 3 -6 8 -28 10 -51 2 -23 8 -54 13 -71 18 -55 33 -169 31
-232 -1 -34 2 -63 6 -66 4 -3 6 -31 5 -62 -3 -49 -7 -57 -29 -66 -32 -12 -107
-11 -163 2 -63 16 -221 11 -380 -11 -74 -10 -137 -17 -141 -14 -6 4 -130 18
-264 30 -38 3 -118 7 -177 9 -59 2 -110 5 -115 8 -5 3 -10 56 -11 119 -2 62
-7 189 -13 281 -5 92 -7 182 -4 200 3 18 8 77 9 132 5 127 16 224 28 231 5 3
38 0 74 -7 l64 -13 -31 -25 c-31 -26 -31 -27 -35 -144 -3 -86 0 -132 11 -169
20 -68 29 -236 17 -328 -19 -151 -2 -176 104 -159 150 25 244 36 324 40 33 1
388 -12 433 -16 26 -2 56 -9 66 -15 34 -18 69 -12 87 15 14 22 15 33 5 78 -30
136 -51 279 -51 352 -1 44 -7 126 -14 183 -8 69 -10 123 -4 165 5 34 7 103 4
152 -3 50 -5 104 -6 121 0 38 -19 48 -69 35 -47 -12 -189 -23 -366 -27 -77 -1
-146 -3 -152 -3 -19 -1 -16 -57 3 -76 13 -12 36 -15 118 -14 55 1 121 6 146
11 25 6 82 12 128 14 45 1 90 5 100 8 16 5 17 -9 17 -193 0 -110 -3 -192 -6
-183 -7 20 -78 72 -97 72 -15 0 -15 14 -2 60 8 26 7 42 -4 65 -7 17 -21 47
-30 68 -15 35 -18 37 -62 37 -25 0 -58 -6 -72 -14 -75 -38 -130 -44 -188 -20
-22 9 -55 16 -75 15 -44 -1 -43 -4 -59 161 -12 113 -9 155 8 144 18 -11 358
-16 392 -5 99 30 370 49 370 25z m-859 -106 c11 -53 28 -234 22 -243 -11 -19
-283 28 -283 50 0 22 86 124 153 181 72 62 98 64 108 12z m486 -314 c37 -79
-20 -119 -72 -50 -36 48 -21 74 48 83 4 1 15 -14 24 -33z m-281 -7 c32 -8 44
-16 44 -30 0 -33 -21 -65 -56 -84 -41 -22 -51 -16 -83 50 -18 37 -18 42 -4 58
19 20 38 21 99 6z m-198 -9 c1 0 2 -12 2 -27 0 -16 11 -48 25 -72 14 -23 25
-47 25 -52 0 -5 -22 -25 -49 -44 -54 -39 -78 -84 -61 -115 6 -10 10 -28 10
-39 0 -11 12 -33 26 -50 20 -25 34 -31 64 -31 l38 0 -5 -42 c-3 -24 -12 -50
-19 -58 -7 -9 -20 -33 -29 -54 -12 -29 -13 -41 -4 -52 16 -19 33 -18 54 6 22
24 34 25 50 4 19 -26 73 -10 159 47 l77 50 25 -20 c14 -11 34 -31 45 -45 25
-32 87 -36 112 -8 38 42 57 106 51 175 -5 57 -2 70 18 104 13 21 32 55 43 76
l20 38 8 -33 c5 -18 7 -64 4 -103 -6 -89 8 -243 28 -302 9 -27 12 -50 7 -55
-5 -5 -68 -5 -153 1 -245 17 -286 15 -574 -22 -60 -8 -114 -12 -119 -9 -5 3
-5 31 0 66 12 86 8 334 -5 350 -17 20 -30 189 -19 239 5 23 10 49 11 57 1 8 7
19 12 23 8 6 73 5 123 -3z m386 -179 c3 -5 -10 -16 -28 -25 -35 -16 -35 -16
-22 -54 12 -33 17 -37 46 -35 51 2 19 -20 -36 -25 -62 -5 -88 17 -79 68 10 57
15 68 33 73 31 8 81 7 86 -2z m186 -11 c20 -10 19 -22 -3 -67 -13 -28 -33 -15
-42 27 -10 46 6 61 45 40z m-441 -90 c18 -32 20 -43 11 -60 -9 -17 -17 -20
-43 -15 -74 16 -97 56 -55 95 34 32 61 26 87 -20z m387 -155 c17 -42 18 -65 1
-65 -14 0 -87 57 -87 69 0 6 44 27 63 30 4 1 15 -15 23 -34z m-236 -29 c0 -17
-78 -86 -96 -86 -36 0 -34 68 3 89 28 16 93 14 93 -3z"/>
<path d="M5613 2286 c-34 -17 -70 -39 -80 -48 -11 -10 -46 -26 -79 -37 -32
-10 -79 -28 -104 -39 -25 -11 -55 -23 -67 -27 -13 -3 -23 -11 -23 -16 0 -5
-11 -9 -23 -9 -31 0 -107 -55 -107 -78 0 -10 14 -32 30 -50 17 -18 30 -38 30
-44 0 -5 18 -30 40 -55 22 -25 50 -66 62 -90 12 -25 46 -70 75 -101 l53 -57
29 35 c35 41 40 51 77 149 15 40 33 75 40 78 6 2 38 -4 70 -15 150 -48 229
-49 254 -2 16 31 5 70 -21 70 -11 0 -30 5 -42 12 -12 6 -43 10 -70 9 -46 -2
-163 25 -172 39 -3 4 7 34 21 66 14 33 38 88 54 124 32 72 40 112 25 115 -5 1
-38 -12 -72 -29z"/>
<path d="M14120 2245 c-7 -8 -21 -15 -31 -15 -10 0 -20 -4 -23 -9 -6 -10 -106
-46 -156 -57 -19 -4 -64 -8 -100 -9 -86 -2 -122 -22 -140 -75 -13 -39 -12 -43
6 -53 33 -19 76 -68 136 -158 42 -64 65 -117 93 -211 21 -69 42 -92 78 -83 35
9 43 21 55 80 6 28 29 85 51 129 23 43 41 88 41 99 0 16 5 18 33 13 17 -4 44
-6 59 -6 14 0 57 -7 94 -16 68 -15 68 -15 86 8 10 13 18 38 18 56 0 30 -2 32
-35 32 -40 0 -153 34 -180 54 -17 12 -17 18 -6 72 33 154 34 152 -8 146 -16
-2 -32 1 -35 7 -10 15 -21 14 -36 -4z"/>
<path d="M16674 2017 c-10 -7 -32 -14 -49 -16 -16 -1 -57 -9 -90 -18 -58 -15
-99 -23 -287 -57 -48 -9 -102 -23 -121 -31 -25 -10 -58 -13 -113 -9 -85 5
-144 -14 -144 -47 0 -48 90 -64 229 -42 47 7 118 18 156 24 117 18 217 40 280
60 33 11 72 19 87 19 32 0 65 13 95 37 42 35 2 109 -43 80z"/>
<path d="M7483 1798 c-58 -10 -60 -15 -38 -58 12 -22 25 -31 65 -39 28 -6 55
-11 61 -11 5 0 29 -9 51 -20 23 -11 56 -20 73 -20 18 0 58 -9 91 -21 82 -28
120 -37 231 -53 54 -8 163 -29 243 -46 246 -53 247 -54 271 -9 14 27 -4 49
-41 49 -16 0 -30 4 -32 9 -1 5 -32 15 -68 21 -36 7 -72 16 -81 20 -20 10 -100
25 -239 45 -198 28 -266 45 -302 77 -18 16 -44 31 -58 34 -14 2 -45 9 -70 16
-66 16 -99 18 -157 6z"/>
</g>
</svg>
