<?xml version="1.0" standalone="no"?>
<!DOCTYPE svg PUBLIC "-//W3C//DTD SVG 20010904//EN"
 "http://www.w3.org/TR/2001/REC-SVG-20010904/DTD/svg10.dtd">
<svg version="1.0" xmlns="http://www.w3.org/2000/svg"
 width="1651.718821pt" height="400.000000pt" viewBox="0 0 1651.718821 400.000000"
 preserveAspectRatio="xMidYMid meet">
<metadata>
Created by potrace 1.15, written by Peter Selinger 2001-2017
</metadata>
<g transform="translate(-24.142545,417.016718) scale(0.065613,-0.065613)"
fill="#444444" stroke="none">
<path d="M16701 6346 c-10 -12 -11 -34 -2 -103 6 -48 12 -114 14 -145 l3 -58
-42 0 c-83 0 -117 -60 -67 -116 56 -63 119 -72 154 -23 19 28 20 35 10 67 -7
21 -16 111 -21 201 -7 116 -13 169 -23 178 -12 12 -16 12 -26 -1z m27 -379
c17 -10 32 -21 32 -23 0 -2 -14 -10 -30 -19 -28 -15 -32 -14 -60 7 -32 23 -37
37 -19 55 13 13 28 9 77 -20z"/>
<path d="M19618 6302 c-12 -13 -16 -45 -18 -140 -1 -132 -5 -152 -25 -152 -28
0 -81 -40 -99 -75 -11 -19 -22 -35 -26 -35 -4 0 -11 17 -14 38 -14 79 -26 102
-52 102 -30 0 -93 -31 -115 -56 -15 -18 -32 -48 -59 -106 -11 -22 -11 -30 0
-43 22 -26 71 -15 124 29 47 38 49 39 62 20 25 -36 35 -44 53 -44 11 0 38 -11
60 -23 35 -20 49 -23 90 -16 27 4 64 15 81 24 l33 17 38 -44 c48 -57 102 -77
145 -55 35 18 70 55 60 64 -3 4 -22 -1 -41 -10 -20 -9 -44 -17 -55 -17 -22 0
-90 56 -90 74 0 6 21 19 48 28 64 23 146 79 150 102 6 29 -36 56 -86 56 -48 0
-109 -33 -139 -75 -50 -71 -66 -85 -118 -100 -70 -21 -105 -12 -105 25 0 19 9
36 27 50 31 24 44 22 58 -8 11 -25 37 -29 54 -8 10 11 9 21 -4 45 -13 26 -15
53 -10 159 3 70 8 137 10 148 7 32 -18 49 -37 26z m282 -321 c0 -10 -110 -64
-116 -58 -10 9 10 39 35 52 29 16 81 20 81 6z m-530 -8 c0 -10 -82 -93 -92
-93 -21 0 -4 32 34 64 40 35 58 44 58 29z"/>
<path d="M17909 6301 c-2 -6 -2 -56 1 -112 3 -55 3 -103 1 -105 -2 -2 -28 -4
-58 -4 l-53 0 -2 38 c-1 20 0 58 1 84 2 25 -3 56 -9 68 -11 20 -14 21 -27 7
-11 -11 -15 -40 -17 -113 l-1 -99 -43 -6 c-49 -6 -65 -19 -60 -45 4 -20 34
-24 77 -10 l24 8 -7 -103 c-7 -113 2 -150 28 -116 8 11 17 49 21 85 12 130 11
128 65 151 78 34 85 27 50 -50 -22 -50 -25 -96 -8 -133 9 -20 14 -23 25 -15 7
6 13 23 13 38 0 51 20 102 46 113 30 14 41 4 49 -42 16 -103 27 -131 52 -130
11 1 62 87 55 94 -3 4 -16 -4 -28 -15 -27 -25 -25 -27 -44 70 -15 85 -34 100
-92 76 -16 -6 -18 5 -20 131 -3 120 -5 139 -19 142 -10 2 -19 -2 -20 -7z"/>
<path d="M20313 6298 c-11 -19 -12 -31 -17 -168 -5 -135 5 -180 30 -145 9 13
14 49 14 109 0 50 5 109 10 131 5 22 7 50 3 63 -6 24 -27 29 -40 10z"/>
<path d="M18687 6263 c-3 -5 -4 -39 -2 -78 7 -161 7 -215 0 -307 -5 -60 -4
-98 2 -98 24 0 43 31 58 94 17 76 28 96 55 96 21 0 47 -60 49 -113 2 -51 17
-87 36 -87 14 0 16 8 11 48 -10 98 -19 128 -45 167 -23 34 -32 40 -62 39 -19
0 -41 -4 -49 -7 -13 -6 -15 8 -14 100 1 60 -1 118 -3 131 -5 21 -27 30 -36 15z"/>
<path d="M10967 6186 c-3 -8 -2 -30 3 -48 6 -18 12 -93 15 -168 4 -74 8 -142
11 -152 6 -19 26 -29 41 -20 13 9 -2 337 -16 375 -11 29 -45 37 -54 13z"/>
<path d="M12648 6175 c-2 -2 -82 -9 -178 -15 -213 -15 -211 -14 -208 -115 1
-39 -1 -76 -5 -81 -3 -6 -32 -17 -64 -24 -32 -7 -64 -18 -70 -23 -8 -6 -13
-35 -13 -78 l0 -69 -50 0 c-37 0 -57 -5 -72 -20 -20 -18 -21 -24 -10 -68 6
-26 12 -72 11 -102 -2 -436 -10 -872 -19 -1020 -13 -224 -14 -252 -7 -700 4
-314 7 -359 23 -392 l17 -38 76 2 c85 2 179 -10 199 -25 7 -5 90 -11 187 -13
96 -2 211 -8 257 -14 45 -5 110 -10 145 -10 34 0 86 -6 115 -14 34 -8 94 -12
168 -10 63 2 219 6 345 9 309 7 394 12 500 31 50 8 110 17 135 19 25 2 106 8
180 14 74 5 169 12 210 15 41 3 116 12 165 20 81 14 487 23 590 14 l30 -3 2
109 c1 60 4 110 5 111 5 5 175 -13 196 -19 15 -5 22 -2 26 11 8 27 8 134 1
165 -6 24 -4 27 30 37 28 8 52 6 108 -9 40 -11 76 -15 80 -11 5 5 4 35 -2 67
-5 33 -9 82 -7 109 2 28 -1 73 -6 101 -5 28 -10 145 -12 260 -3 115 -10 236
-16 269 -14 70 -22 116 -48 280 -16 96 -20 178 -22 410 -2 392 -7 532 -19 580
-6 22 -11 65 -11 96 l0 56 -82 18 c-46 11 -97 20 -114 21 -16 0 -46 4 -65 8
-20 3 -116 9 -215 11 -98 3 -206 10 -239 15 -75 12 -247 12 -300 0 -93 -21
-376 -29 -438 -12 -14 4 -100 3 -189 -2 -246 -14 -513 -13 -588 2 -37 7 -89
10 -121 6 -30 -3 -80 -1 -110 5 -51 10 -492 24 -501 16z m270 -81 c108 -2 208
-8 222 -13 52 -20 524 -29 760 -15 74 5 158 8 185 8 28 -1 118 -3 200 -5 86
-2 197 2 260 10 79 10 164 11 300 6 105 -4 233 -8 285 -10 52 -2 147 -7 210
-11 63 -4 120 -7 127 -6 6 2 14 -2 18 -8 3 -5 22 -10 41 -10 33 0 34 -1 34
-42 1 -24 5 -63 11 -88 5 -25 12 -189 14 -365 5 -430 13 -587 31 -670 47 -217
62 -341 62 -523 1 -101 4 -187 7 -192 3 -5 7 -58 10 -118 l4 -108 -80 2 c-44
1 -82 4 -84 6 -8 7 -16 199 -20 433 -2 132 -6 274 -9 315 -3 41 -8 166 -11
277 -2 120 -10 228 -18 265 -8 35 -15 70 -16 78 -1 8 -6 62 -12 120 -6 58 -12
177 -15 265 -6 229 1 215 -125 244 -77 18 -140 24 -245 26 -77 2 -161 6 -185
9 -259 32 -344 39 -477 38 -84 -1 -167 -5 -185 -11 -37 -11 -161 -28 -262 -36
-102 -7 -335 -19 -370 -19 -16 1 -101 2 -187 3 -86 2 -161 1 -165 -2 -19 -11
-226 -16 -291 -7 -72 10 -291 20 -505 23 l-119 2 -3 52 c-4 52 -4 52 28 57 18
3 84 8 147 11 63 3 138 9 165 13 28 5 54 6 59 4 4 -3 96 -6 204 -8z m1717
-165 c132 -16 194 -20 355 -24 80 -2 179 -9 220 -15 41 -6 89 -13 105 -16 58
-9 58 -8 66 -201 8 -202 34 -454 48 -481 5 -10 14 -160 20 -333 11 -313 15
-359 33 -359 5 0 3 -10 -3 -22 -15 -27 -19 -162 -8 -245 4 -32 10 -140 13
-240 3 -99 6 -185 7 -190 1 -4 1 -25 0 -47 l-1 -39 -47 8 c-27 5 -68 8 -93 7
l-45 -2 -5 98 c-7 135 -5 312 4 627 12 376 12 461 3 785 -11 360 -22 527 -38
546 -8 10 -22 12 -44 8 -18 -3 -61 1 -96 9 -127 30 -224 37 -599 40 -253 2
-432 -6 -508 -24 -30 -7 -211 -12 -497 -13 -247 -1 -456 -5 -463 -10 -7 -4
-61 -10 -120 -12 -59 -3 -125 -7 -147 -9 -22 -3 -169 -7 -326 -10 -316 -6
-310 -7 -312 57 l-2 33 70 12 c51 9 351 19 415 13 3 0 46 -2 95 -5 50 -2 113
-7 140 -10 86 -11 176 -12 300 -3 131 9 264 12 422 9 56 -2 106 0 110 2 5 3
73 8 153 12 80 4 169 13 198 20 30 8 59 12 65 10 7 -3 48 2 92 9 99 17 300 19
420 5z m410 -174 c28 -8 78 -15 112 -15 34 0 65 -5 69 -11 10 -17 23 -287 29
-617 3 -167 6 -306 7 -310 1 -4 -1 -63 -5 -132 -4 -69 -10 -251 -13 -405 -4
-154 -7 -287 -7 -295 0 -8 3 -108 7 -222 l8 -208 -113 0 c-246 -1 -406 -8
-444 -18 -22 -6 -107 -16 -190 -22 -339 -25 -527 -44 -542 -53 -11 -7 -176
-17 -373 -22 -80 -2 -221 -7 -315 -10 -135 -4 -209 -1 -360 15 -104 12 -291
25 -415 30 -138 6 -245 15 -277 23 -28 8 -86 15 -129 16 -43 1 -79 3 -82 6 -5
5 -4 47 6 190 9 121 8 208 -3 425 -9 178 -9 181 -1 305 3 55 9 143 12 195 3
52 8 268 10 480 3 212 6 412 6 445 1 33 -2 82 -6 108 l-8 48 33 -6 c54 -9 496
-11 579 -2 165 18 441 30 745 32 336 3 625 12 647 20 63 22 266 31 618 28 274
-2 355 -6 395 -18z"/>
<path d="M12608 5348 c-19 -35 -45 -84 -57 -110 -13 -27 -27 -48 -31 -48 -5 0
-17 15 -27 34 -10 19 -33 62 -51 96 -35 65 -53 80 -77 60 -11 -9 -14 -50 -15
-203 0 -106 -2 -208 -3 -227 -4 -33 10 -70 24 -70 12 0 29 123 29 206 0 94 9
156 22 152 10 -4 38 -53 57 -100 12 -32 40 -36 64 -10 9 10 31 47 49 82 18 34
38 61 43 59 14 -5 20 -128 13 -259 -4 -69 4 -100 27 -100 23 0 27 54 20 233
-7 172 -21 257 -41 264 -7 2 -27 -24 -46 -59z"/>
<path d="M13851 5379 c-23 -38 -22 -72 10 -277 10 -68 16 -133 13 -146 -6 -27
20 -43 42 -25 16 13 18 89 3 164 -9 48 -23 153 -35 260 -3 27 -7 51 -9 53 -2
2 -13 -11 -24 -29z"/>
<path d="M14249 5398 c-4 -24 -3 -151 2 -175 7 -32 -12 -63 -38 -63 -20 0 -45
-38 -38 -59 7 -23 17 -26 45 -11 28 15 32 2 32 -111 1 -79 4 -105 18 -121 11
-14 23 -19 33 -15 19 7 20 25 8 171 -7 101 -3 111 57 122 51 8 93 27 89 39 -5
15 -80 34 -93 23 -18 -13 -61 8 -67 34 -4 13 -7 47 -7 76 0 54 -13 92 -30 92
-6 0 -10 -1 -11 -2z"/>
<path d="M14498 5378 c-7 -19 -1 -140 7 -160 4 -9 4 -22 0 -27 -3 -6 1 -22 10
-35 13 -20 16 -46 13 -132 -3 -92 -1 -108 14 -117 26 -17 37 1 42 64 7 98 52
135 106 86 40 -35 59 -71 66 -126 6 -49 35 -101 55 -101 19 0 9 100 -18 170
-22 60 -34 78 -75 111 -53 42 -82 48 -114 24 -40 -30 -50 -14 -60 106 -8 90
-18 142 -30 146 -7 2 -14 -2 -16 -9z"/>
<path d="M14035 5240 c-16 -18 -17 -23 -5 -30 34 -22 59 3 36 35 -11 15 -13
15 -31 -5z"/>
<path d="M12918 5206 c-69 -25 -116 -107 -118 -204 0 -37 22 -96 40 -107 7 -4
37 -10 67 -12 97 -9 158 33 178 119 12 55 8 81 -23 146 -25 54 -87 78 -144 58z
m87 -64 c37 -33 55 -78 44 -114 -12 -44 -18 -51 -63 -82 -28 -19 -46 -24 -65
-20 -40 10 -49 22 -57 71 -5 36 -2 55 17 95 13 27 30 53 39 58 24 15 63 11 85
-8z"/>
<path d="M13262 5180 c-19 -4 -46 -20 -61 -34 -15 -14 -32 -26 -38 -26 -17 0
-23 -26 -23 -93 1 -68 25 -130 52 -135 22 -4 31 28 18 62 -14 39 -12 78 6 116
25 49 48 68 75 63 25 -5 87 -80 80 -98 -7 -19 -2 -138 7 -147 4 -4 15 -2 25 4
16 13 25 100 14 143 -14 54 -42 108 -69 130 -32 27 -35 27 -86 15z"/>
<path d="M13571 5157 c-46 -16 -69 -50 -87 -127 -17 -75 -14 -90 21 -90 17 0
36 -12 56 -35 24 -27 39 -35 64 -35 19 0 40 6 47 13 7 7 25 18 41 24 30 14 42
37 52 105 9 57 -11 98 -61 127 -46 28 -89 33 -133 18z m120 -69 c39 -43 40
-94 3 -131 -32 -33 -57 -41 -99 -33 -56 11 -84 83 -52 139 26 47 40 57 79 57
31 0 45 -6 69 -32z"/>
<path d="M14063 5101 c-15 -24 -5 -157 13 -171 22 -19 27 6 25 123 -1 70 -14
86 -38 48z"/>
<path d="M23230 6159 c-66 -10 -841 -13 -1750 -6 -217 2 -408 1 -423 -1 -44
-7 -77 -67 -77 -141 l0 -58 -50 -5 c-66 -7 -78 -23 -70 -94 7 -61 -7 -94 -41
-94 -11 0 -35 -6 -53 -14 l-33 -14 9 -58 c5 -33 7 -88 3 -124 -3 -36 -7 -107
-9 -157 -1 -51 -5 -96 -9 -99 -4 -4 -2 -13 4 -21 8 -9 8 -21 1 -40 -6 -16 -11
-35 -11 -43 -1 -8 -3 -58 -5 -110 -2 -52 -7 -149 -11 -215 -4 -66 -8 -158 -9
-205 -1 -47 -5 -98 -9 -115 -11 -52 -21 -225 -21 -380 0 -157 13 -485 19 -496
2 -3 5 -59 6 -125 1 -75 6 -131 15 -152 l14 -34 82 2 c173 4 823 -10 925 -20
132 -12 269 -13 291 -1 31 16 1377 42 1401 27 6 -4 345 -20 391 -18 8 0 74 3
145 6 252 11 573 14 815 7 135 -3 279 -3 320 1 53 4 77 3 82 -5 5 -8 12 -6 22
8 11 14 15 44 16 95 l0 75 49 -3 c39 -3 52 0 67 16 17 18 18 33 14 131 -4 82
-2 111 7 111 6 0 15 -4 18 -10 14 -23 141 -4 165 25 8 10 9 19 0 34 -20 38
-23 170 -6 268 21 116 24 590 6 858 -6 99 -10 236 -9 305 1 69 2 208 0 310 -1
148 5 392 12 420 0 3 -2 14 -6 26 -7 19 -20 23 -110 32 -56 7 -131 14 -167 16
-36 2 -137 11 -225 19 -190 18 -411 27 -865 32 -384 4 -514 11 -656 31 -111
15 -189 16 -274 3z m225 -69 c133 -25 238 -31 580 -35 525 -6 791 -14 859 -26
32 -6 65 -8 72 -5 8 3 36 1 64 -4 27 -5 102 -12 168 -16 65 -3 152 -9 193 -12
l74 -7 2 -470 c1 -258 3 -481 3 -495 15 -235 20 -334 20 -430 2 -302 -1 -410
-16 -490 -10 -49 -14 -111 -11 -147 2 -34 2 -73 0 -88 -5 -25 -8 -26 -62 -23
l-56 3 -3 315 c-1 173 -4 338 -7 365 -3 28 -7 327 -9 665 -2 338 -5 627 -5
641 -1 26 -2 26 -93 32 -51 3 -129 15 -173 27 -54 14 -137 24 -258 30 -99 6
-182 12 -186 15 -22 13 -478 24 -611 15 -80 -6 -327 -10 -550 -9 -939 3 -1132
2 -1235 -11 -109 -13 -270 -13 -520 0 -115 5 -309 13 -429 15 -120 3 -223 8
-228 11 -4 3 -8 25 -8 49 0 82 16 86 313 71 71 -4 289 -8 485 -10 196 -2 362
-5 367 -7 6 -1 71 1 145 6 74 4 299 9 500 11 201 2 403 7 450 12 115 12 109
12 165 2z m1065 -221 c63 -6 185 -14 270 -19 90 -5 191 -16 240 -28 47 -11
114 -23 150 -27 36 -4 72 -11 80 -15 13 -7 15 -41 12 -232 -2 -122 -4 -277 -4
-343 -2 -172 17 -855 27 -995 5 -62 5 -304 0 -365 -1 -22 -3 -83 -4 -136 l-1
-97 -36 -7 c-20 -3 -38 -5 -39 -3 -2 2 -6 91 -9 198 -3 107 -8 227 -11 265 -3
39 -7 102 -9 140 -2 39 -9 106 -15 150 -6 44 -13 116 -16 160 -3 44 -11 148
-18 230 -7 83 -11 177 -9 210 1 33 4 191 6 350 2 197 7 302 15 328 20 61 18
62 -120 62 -79 0 -164 8 -234 20 -108 19 -256 25 -425 16 -41 -2 -106 1 -145
7 -125 20 -189 23 -260 12 -211 -34 -374 -39 -494 -16 -207 39 -215 39 -328
26 -85 -10 -484 -23 -668 -21 -16 0 -281 2 -588 5 -337 2 -569 8 -585 14 -41
16 -220 22 -297 11 -91 -13 -105 -7 -105 41 0 21 5 42 12 46 16 10 375 6 723
-8 301 -12 459 -12 570 3 82 10 576 22 785 18 307 -6 909 0 990 9 93 11 359 6
540 -9z m-3220 -179 c47 -13 1563 -20 1690 -7 145 14 296 12 385 -5 204 -41
218 -41 390 -18 227 32 257 33 380 19 113 -13 184 -14 340 -8 91 4 194 -4 288
-23 29 -5 112 -12 185 -15 l132 -5 -6 -301 c-9 -515 -8 -605 10 -727 9 -63 15
-128 15 -145 -1 -16 1 -48 4 -70 14 -97 28 -267 24 -280 -3 -7 -2 -42 3 -77 5
-35 11 -184 14 -332 l4 -268 -51 6 c-110 13 -883 7 -1227 -9 -103 -4 -230 -2
-380 7 -124 8 -272 14 -330 12 -58 -1 -239 -5 -403 -8 -164 -3 -302 -8 -306
-10 -4 -3 -79 -6 -167 -7 -87 -1 -215 -8 -284 -16 -69 -8 -143 -12 -165 -8
-198 27 -278 30 -889 34 l-208 1 7 69 c5 46 3 71 -4 75 -6 4 -11 33 -11 64 0
31 -4 104 -10 162 -20 218 -20 446 0 660 10 113 22 286 25 385 4 99 8 200 10
225 3 25 7 112 10 194 3 82 8 153 12 159 3 5 5 68 5 138 l-1 129 57 1 c31 1
84 5 117 9 73 10 287 4 335 -10z"/>
<path d="M22915 5375 c-44 -13 -83 -24 -86 -25 -4 0 -14 -12 -24 -26 -15 -23
-15 -30 -4 -53 9 -18 13 -82 13 -220 1 -134 4 -195 12 -198 18 -6 31 74 30
184 0 57 1 102 4 100 92 -46 125 -72 214 -163 56 -57 107 -104 114 -104 7 0
12 11 12 25 0 38 30 31 64 -15 21 -28 40 -42 63 -46 44 -8 121 14 134 38 17
33 -1 40 -70 29 -47 -8 -68 -7 -82 2 -29 18 -19 28 49 49 50 15 67 26 87 56
49 72 28 112 -60 112 -52 0 -59 -3 -101 -43 -24 -24 -48 -56 -53 -73 -4 -16
-20 -36 -34 -44 -27 -15 -28 -14 -107 65 -44 44 -80 83 -80 88 0 4 12 12 27
18 65 24 106 94 101 171 -2 41 -8 55 -28 69 -41 31 -105 32 -195 4z m170 -59
c23 -17 15 -79 -15 -111 -31 -33 -99 -50 -143 -36 -18 6 -41 9 -50 5 -13 -5
-17 0 -18 22 0 16 -1 44 -2 62 -2 33 2 36 93 66 32 10 117 5 135 -8z m335
-261 c0 -9 -24 -26 -56 -40 -83 -37 -108 -31 -61 13 41 39 117 56 117 27z"/>
<path d="M24424 5375 c-3 -14 -3 -39 0 -55 3 -17 9 -44 12 -60 9 -41 -7 -57
-70 -70 -66 -13 -92 -31 -83 -55 6 -14 15 -16 55 -10 26 3 58 9 71 12 l24 6
-7 -84 c-7 -88 -23 -167 -37 -185 -9 -12 8 -34 26 -34 27 0 65 151 65 258 l0
39 98 6 c104 6 152 18 152 40 0 17 -62 27 -167 27 -85 0 -91 6 -91 96 0 63 -9
94 -27 94 -8 0 -17 -11 -21 -25z"/>
<path d="M21382 5273 c-21 -10 -40 -30 -49 -52 -9 -20 -20 -46 -26 -58 -5 -12
-7 -70 -5 -135 4 -86 10 -124 26 -158 12 -25 18 -48 13 -53 -4 -4 -35 -12 -70
-18 -105 -19 -140 -38 -218 -120 -73 -75 -73 -76 -73 -131 0 -55 1 -57 49 -97
27 -23 51 -41 54 -41 3 0 38 -15 79 -34 91 -42 190 -76 222 -76 34 0 41 -16
21 -46 -9 -14 -19 -51 -22 -82 -3 -32 -9 -61 -14 -67 -4 -5 -17 -48 -29 -94
-12 -47 -28 -98 -37 -114 -23 -46 -22 -120 3 -154 25 -34 90 -73 122 -73 54 0
169 79 314 217 36 34 72 63 80 63 7 0 22 -12 33 -26 11 -14 39 -48 63 -74 l44
-49 -49 -3 c-34 -2 -48 -7 -48 -18 0 -22 79 -41 180 -42 203 -4 263 44 295
232 18 107 7 210 -30 285 -17 33 -30 63 -30 67 0 4 18 12 39 18 38 10 137 77
174 118 24 26 33 109 17 158 -27 80 -165 174 -257 174 l-43 0 8 78 c14 149 9
212 -21 275 -15 32 -27 62 -27 66 0 16 -61 61 -82 61 -47 0 -100 -26 -159 -77
-107 -94 -98 -92 -171 -33 -130 106 -292 155 -376 113z m152 -63 c97 -26 137
-46 200 -103 l50 -44 -50 -74 c-27 -40 -54 -83 -59 -94 -21 -41 -74 -65 -146
-67 -148 -4 -130 -12 -158 67 -21 57 -26 89 -26 171 0 111 6 127 60 150 39 17
39 17 129 -6z m578 -11 c26 -14 66 -104 73 -166 3 -26 0 -88 -7 -138 l-13 -90
-56 -3 -56 -3 -42 66 c-24 36 -67 92 -97 124 -30 32 -54 63 -54 68 0 15 145
137 172 144 36 11 57 10 80 -2z m-256 -222 c64 -75 114 -142 114 -153 0 -9
-263 5 -272 14 -5 5 1 17 12 27 11 10 20 22 20 27 0 18 77 118 91 118 4 0 20
-15 35 -33z m-256 -210 c0 -3 -32 -86 -51 -134 -7 -18 -17 -33 -22 -33 -4 0
-18 21 -29 48 -11 26 -30 58 -40 72 l-20 25 68 11 c79 13 94 15 94 11z m353
-29 c61 -9 71 -13 87 -42 10 -17 22 -35 27 -41 4 -5 14 -27 21 -47 14 -39 13
-43 -33 -193 l-13 -40 -73 -5 c-41 -3 -80 -9 -88 -14 -7 -5 -59 -8 -115 -7
-116 1 -117 2 -174 113 l-30 59 42 120 41 120 120 -6 c66 -3 151 -11 188 -17z
m-550 -18 c9 -11 17 -24 17 -28 0 -4 11 -23 24 -43 14 -20 32 -58 41 -86 15
-47 15 -54 0 -109 -21 -73 -39 -94 -80 -94 -68 0 -299 94 -352 143 -37 33 -29
63 35 129 52 54 66 62 137 83 102 30 155 32 178 5z m944 -19 c44 -12 99 -58
113 -97 20 -51 12 -85 -27 -122 -38 -35 -145 -92 -173 -92 -8 0 -28 27 -44 63
-55 116 -57 124 -39 191 9 34 20 66 25 72 8 12 69 5 145 -15z m-209 -11 c-1
-16 -5 -30 -9 -30 -5 0 -15 14 -24 30 -15 29 -15 30 9 30 21 0 25 -5 24 -30z
m8 -223 c6 -12 19 -37 29 -56 15 -28 15 -35 4 -42 -22 -14 -92 -11 -86 4 2 6
10 36 17 65 8 28 16 52 19 52 3 0 11 -10 17 -23z m-582 -60 c14 -21 26 -42 26
-47 0 -6 -21 -10 -46 -10 -25 0 -43 3 -41 8 3 4 10 27 17 51 6 23 13 41 15 39
2 -2 15 -20 29 -41z m440 -105 c8 -13 -115 -192 -150 -219 l-32 -24 -40 59
c-43 63 -66 104 -76 140 -7 22 -6 22 92 22 65 0 111 5 133 15 39 16 65 19 73
7z m245 -40 c53 -104 64 -216 34 -336 -20 -77 -42 -101 -109 -116 -55 -13
-164 -12 -164 1 0 5 -27 41 -60 79 -33 39 -67 81 -76 95 -17 25 -16 27 18 63
44 47 135 179 157 227 7 17 20 20 95 22 l86 3 19 -38z m-604 3 c36 -71 92
-165 117 -195 15 -19 28 -41 28 -49 0 -26 -226 -229 -296 -266 -38 -20 -100
-19 -128 2 -20 15 -21 22 -15 82 4 36 17 104 29 151 12 47 28 113 35 148 7 34
17 68 22 75 6 6 13 24 17 39 6 25 11 27 64 31 96 6 116 4 127 -18z"/>
<path d="M21803 4632 c-44 -7 -55 -102 -15 -133 55 -44 94 -43 126 3 20 29 21
92 1 108 -18 15 -80 27 -112 22z"/>
<path d="M23753 5111 c-34 -10 -73 -25 -87 -34 -21 -14 -76 -86 -109 -144 -11
-18 41 -73 68 -73 13 0 54 23 92 51 37 28 69 47 71 41 9 -27 85 -122 97 -122
17 0 38 36 30 50 -3 6 -12 10 -18 10 -11 0 -107 140 -107 155 0 4 14 20 31 37
23 24 27 33 17 39 -16 11 -10 11 -85 -10z m-16 -87 c10 -26 -14 -62 -56 -84
-70 -35 -92 -20 -49 35 20 26 75 65 91 65 4 0 10 -7 14 -16z"/>
<path d="M24089 5089 c-55 -8 -76 -18 -108 -53 -35 -37 -23 -99 30 -160 80
-91 145 -109 198 -56 39 40 72 86 65 93 -3 3 -32 -13 -64 -36 l-59 -40 -42 29
c-47 32 -99 98 -99 124 0 21 17 29 95 44 49 9 61 15 63 32 4 26 -17 32 -79 23z"/>
<path d="M22845 4520 c-39 -8 -129 -72 -133 -93 -4 -20 59 -90 98 -109 22 -11
53 -14 105 -11 l74 4 30 -42 c17 -23 31 -48 31 -55 0 -33 -121 -88 -189 -86
-73 3 -137 38 -126 70 3 7 -4 12 -17 12 -18 0 -20 -4 -14 -32 7 -38 46 -73 89
-82 103 -21 215 1 258 50 27 30 34 99 15 139 -26 54 -62 77 -121 75 -104 -5
-124 -1 -157 29 -27 24 -30 31 -19 44 23 29 79 40 165 33 44 -4 98 -12 119
-18 42 -13 46 -11 49 22 3 22 -3 26 -47 37 -61 16 -170 22 -210 13z"/>
<path d="M24080 4445 c-9 -11 -11 -22 -4 -32 13 -21 25 -21 38 -1 8 14 7 21
-5 33 -14 15 -17 15 -29 0z"/>
<path d="M24675 4397 c-54 -22 -105 -59 -120 -86 -7 -15 -17 -55 -20 -88 -13
-111 35 -146 208 -156 69 -4 79 -2 88 15 6 11 9 21 7 23 -20 18 -77 35 -136
40 -106 11 -137 44 -55 60 104 19 174 86 151 145 -22 58 -58 72 -123 47z m72
-64 c4 -10 -2 -23 -15 -34 -25 -19 -129 -55 -138 -46 -16 16 12 47 64 70 68
31 81 32 89 10z"/>
<path d="M23595 4356 c-13 -13 -27 -36 -31 -50 -5 -20 -11 -25 -25 -21 -17 6
-19 0 -16 -74 1 -53 6 -82 14 -85 17 -7 43 45 43 84 0 38 23 84 51 103 15 11
29 13 52 6 53 -15 62 26 11 50 -39 17 -73 13 -99 -13z"/>
<path d="M24344 4361 c-125 -30 -173 -130 -99 -207 22 -22 41 -34 52 -31 10 3
48 11 85 17 68 12 96 29 83 51 -5 8 -32 10 -88 6 -85 -7 -117 2 -117 31 0 25
49 69 85 78 39 9 55 22 55 45 0 20 -7 21 -56 10z"/>
<path d="M23305 4355 c-5 -2 -22 -6 -36 -9 -36 -8 -88 -77 -98 -129 -10 -53 3
-82 51 -119 72 -55 148 -48 213 20 24 25 42 49 39 54 -3 4 -30 -6 -61 -22 -64
-34 -117 -38 -162 -12 -17 9 -31 20 -31 24 0 4 25 12 56 18 98 21 171 113 128
162 -16 16 -68 23 -99 13z m65 -63 c0 -17 -39 -44 -86 -58 -82 -25 -96 -14
-45 37 25 24 37 29 80 29 28 0 51 -4 51 -8z"/>
<path d="M23921 4318 c-32 -78 -51 -117 -61 -123 -15 -9 -50 55 -50 92 0 35
-9 46 -29 33 -10 -6 -12 -21 -7 -61 8 -61 24 -95 60 -128 32 -30 48 -20 72 47
9 26 30 64 46 84 33 43 35 63 9 78 -26 13 -24 14 -40 -22z"/>
<path d="M24062 4317 c-7 -8 -7 -18 -2 -27 6 -8 10 -36 10 -61 0 -49 21 -91
35 -69 8 14 8 125 -1 152 -6 21 -27 23 -42 5z"/>
<path d="M17203 6093 c-24 -5 -63 -47 -63 -68 0 -7 -11 -20 -25 -29 -19 -12
-24 -23 -20 -37 4 -13 1 -21 -12 -26 -10 -4 -40 -22 -67 -40 -49 -33 -105 -42
-112 -18 -2 6 28 28 67 50 64 36 70 41 64 65 -10 37 -32 57 -73 66 -52 10 -74
6 -98 -20 -32 -33 -46 -64 -43 -94 2 -15 0 -32 -4 -39 -8 -12 47 -73 64 -73 5
0 9 -7 9 -15 0 -12 10 -14 47 -10 27 3 49 9 51 15 2 5 8 10 14 10 11 0 78 69
78 81 0 20 20 7 26 -16 8 -32 31 -52 45 -38 6 6 14 39 19 74 10 70 34 110 71
119 30 8 99 -8 122 -28 15 -14 17 -13 17 1 0 36 -118 83 -177 70z m-235 -96
c10 -8 6 -14 -18 -28 -72 -44 -103 -31 -59 25 21 27 46 28 77 3z"/>
<path d="M16406 6069 c-37 -29 -48 -55 -53 -119 -2 -30 -6 -61 -8 -68 -12 -35
-141 -56 -165 -28 -13 17 -4 27 75 79 40 26 51 38 53 64 4 41 -26 64 -71 53
-38 -8 -77 -28 -77 -38 0 -4 -16 -24 -36 -46 -29 -31 -35 -45 -32 -74 3 -31
10 -40 50 -65 63 -39 130 -41 179 -6 19 13 45 24 59 24 24 0 25 2 22 59 -9
165 105 185 124 22 6 -50 9 -56 30 -56 29 0 30 10 4 92 -35 113 -94 154 -154
107z m-156 -76 c0 -10 -57 -43 -73 -43 -6 0 0 11 13 25 22 23 60 34 60 18z"/>
<path d="M19038 6078 c-42 -33 -132 -172 -125 -192 3 -8 40 -30 82 -50 92 -44
155 -49 179 -14 25 35 20 39 -35 32 -30 -4 -59 -2 -72 4 -12 6 -40 16 -62 23
l-40 12 61 17 c70 19 124 53 124 80 0 24 -24 68 -46 85 -24 18 -45 19 -66 3z
m60 -64 c2 -11 -5 -27 -15 -36 -18 -16 -93 -41 -93 -32 0 7 53 78 65 86 17 13
40 4 43 -18z"/>
<path d="M15978 6036 c-28 -12 -78 -77 -78 -101 0 -25 30 -129 40 -139 21 -21
34 13 32 84 -4 79 15 120 54 120 29 0 40 16 24 35 -15 18 -35 18 -72 1z"/>
<path d="M18239 6020 c-45 -24 -92 -78 -85 -97 3 -8 2 -23 -4 -33 -10 -18 -9
-19 91 -112 11 -10 30 -18 43 -18 42 0 172 117 152 137 -3 4 -33 -12 -66 -34
-32 -23 -67 -44 -77 -47 -21 -6 -46 11 -56 37 -5 14 -1 17 26 17 37 0 97 52
97 85 0 26 -48 85 -68 85 -9 -1 -33 -10 -53 -20z m48 -86 c-31 -27 -77 -33
-77 -9 0 8 17 26 37 40 34 22 39 23 53 9 13 -14 12 -18 -13 -40z"/>
<path d="M20045 5994 c-22 -19 -46 -40 -53 -46 -8 -6 -11 -20 -8 -32 3 -11 6
-42 6 -67 0 -34 4 -49 17 -53 21 -8 27 1 59 97 27 81 44 98 75 79 44 -28 54 1
14 36 -35 31 -64 27 -110 -14z"/>
<path d="M7785 5949 c-6 -9 -20 -21 -32 -28 -13 -6 -34 -36 -49 -66 l-26 -55
-46 38 c-77 63 -109 82 -126 76 -27 -10 -18 -32 22 -58 21 -13 57 -42 80 -64
51 -49 50 -65 -9 -151 -42 -60 -56 -123 -29 -128 15 -3 24 9 85 122 98 180
146 286 143 309 -3 18 -5 19 -13 5z"/>
<path d="M7871 5904 c-21 -15 -51 -69 -51 -93 0 -18 43 -51 66 -51 13 0 26 -4
29 -10 11 -18 53 -11 83 15 58 49 67 126 16 145 -40 15 -117 12 -143 -6z m127
-57 c4 -19 -46 -70 -60 -61 -4 3 -8 17 -9 32 0 15 -3 21 -6 14 -2 -6 -9 -9
-15 -6 -6 4 -14 0 -19 -7 -6 -10 -9 -8 -9 9 0 27 30 42 80 39 25 -1 36 -7 38
-20z"/>
<path d="M8360 5891 c-33 -27 -35 -32 -35 -91 1 -71 20 -96 65 -85 14 3 34 6
45 6 61 1 83 10 95 40 17 40 3 100 -26 114 -12 6 -28 16 -35 22 -8 6 -28 14
-44 17 -24 5 -37 1 -65 -23z m134 -65 c27 -36 33 -52 16 -41 -5 3 -18 -3 -30
-15 -35 -35 -77 -19 -95 38 -9 31 10 52 50 52 25 0 38 -8 59 -34z"/>
<path d="M8165 5902 c-43 -9 -57 -33 -53 -89 6 -72 20 -86 77 -78 25 4 51 10
56 13 6 4 16 7 24 7 8 0 18 13 22 29 15 54 -67 130 -126 118z m75 -67 c19 -23
8 -50 -20 -47 -42 4 -50 10 -50 37 0 21 5 25 29 25 16 0 34 -7 41 -15z"/>
<path d="M8919 5895 c-32 -14 -69 -65 -69 -95 0 -15 42 -50 60 -50 8 0 23 -9
33 -20 26 -31 73 -26 107 11 15 17 30 43 33 58 5 27 -12 69 -37 90 -24 20 -87
23 -127 6z m105 -31 c24 -24 20 -68 -10 -98 -26 -25 -54 -35 -54 -17 0 4 -11
20 -25 35 -18 20 -23 34 -19 51 6 24 36 41 53 30 5 -3 12 -1 16 5 9 14 21 12
39 -6z"/>
<path d="M9198 5895 c-15 -8 -30 -25 -33 -37 -4 -13 -14 -30 -21 -39 -12 -14
-11 -22 6 -62 24 -54 57 -71 78 -39 11 17 19 19 43 12 66 -19 103 6 96 66 -10
92 -92 140 -169 99z m119 -71 c21 -42 10 -54 -49 -54 -56 0 -69 8 -62 39 10
40 23 51 60 51 29 0 37 -5 51 -36z"/>
<path d="M8625 5876 c-26 -21 -29 -29 -29 -81 0 -49 3 -59 24 -75 67 -51 213
29 196 106 -15 68 -130 98 -191 50z m142 -38 c33 -27 -13 -78 -68 -78 -43 0
-60 20 -50 60 10 37 82 49 118 18z"/>
<path d="M9470 5887 c-15 -7 -31 -29 -39 -53 -21 -60 -5 -93 63 -127 58 -30
102 -34 130 -14 27 20 34 108 12 142 -37 56 -111 80 -166 52z m123 -54 c13
-12 17 -28 15 -57 -3 -34 -8 -42 -30 -50 -24 -8 -32 -6 -58 20 -46 43 -52 59
-38 89 11 25 16 26 52 20 22 -3 49 -13 59 -22z"/>
<path d="M9773 5872 c-49 -38 -68 -137 -34 -171 16 -16 30 -19 77 -15 52 4
122 33 125 52 13 66 -1 104 -48 132 -42 24 -90 25 -120 2z m118 -53 c28 -28
21 -59 -20 -86 -41 -28 -49 -26 -78 17 -28 40 -28 45 -3 70 26 26 74 26 101
-1z"/>
<path d="M20292 5878 c-17 -17 -15 -38 4 -59 13 -14 21 -16 35 -8 32 16 19 79
-16 79 -6 0 -16 -5 -23 -12z"/>
<path d="M10073 5860 c-83 -50 -82 -185 1 -164 20 5 26 2 26 -10 0 -11 9 -16
28 -17 46 -2 56 1 80 27 25 28 28 58 11 115 -10 30 -20 41 -51 53 -49 20 -56
20 -95 -4z m89 -42 c27 -21 31 -70 8 -98 -19 -23 -21 -24 -33 -8 -7 9 -26 18
-42 20 -25 2 -30 8 -33 33 -4 47 62 82 100 53z"/>
<path d="M10365 5826 c-25 -25 -47 -89 -39 -110 9 -24 49 -39 71 -27 11 5 43
8 71 6 59 -4 69 4 70 59 2 41 -19 76 -45 76 -7 0 -13 5 -13 10 0 6 -20 10 -45
10 -35 0 -52 -6 -70 -24z m131 -51 c9 -34 1 -40 -57 -42 -55 -2 -68 11 -49 46
8 16 20 21 55 21 39 0 45 -3 51 -25z"/>
<path d="M10685 5796 c-48 -21 -58 -40 -50 -92 3 -25 15 -54 26 -65 26 -26
101 -26 144 1 101 63 -9 205 -120 156z m100 -66 c13 -14 13 -19 -1 -38 -21
-30 -59 -28 -80 4 -18 27 -12 39 21 46 35 7 45 5 60 -12z"/>
<path d="M3035 5774 c-19 -19 -19 -16 4 -56 10 -18 22 -49 26 -68 4 -19 11
-40 16 -45 4 -6 7 -43 5 -82 -3 -76 5 -106 24 -87 37 37 30 185 -11 286 -26
63 -41 75 -64 52z"/>
<path d="M20192 5678 c-8 -8 -8 -15 -1 -24 7 -9 7 -19 1 -31 -7 -11 -7 -24 -1
-35 6 -10 9 -49 7 -86 l-3 -67 -105 -3 c-74 -2 -119 2 -152 13 -27 9 -83 15
-135 15 -48 0 -126 7 -173 16 -66 12 -175 17 -480 20 -217 1 -525 6 -685 9
-159 3 -362 8 -450 9 -88 2 -201 9 -250 15 -219 26 -329 32 -571 32 -143 -1
-281 -3 -309 -5 -27 -3 -84 -7 -125 -11 -41 -3 -196 -8 -345 -10 -281 -5 -504
-17 -524 -29 -17 -11 -13 -34 8 -45 25 -14 827 -5 936 10 44 6 136 11 205 11
69 0 141 4 161 8 40 8 403 -11 479 -25 14 -3 74 -7 135 -11 60 -3 112 -7 116
-9 7 -5 69 -6 199 -4 47 0 240 -2 430 -6 190 -3 496 -8 680 -10 184 -2 364 -8
400 -14 36 -6 108 -11 160 -11 52 0 111 -5 132 -10 20 -6 88 -14 151 -19 63
-5 120 -12 126 -15 6 -4 11 -28 12 -54 0 -26 6 -72 12 -102 16 -73 41 -75 89
-9 34 47 157 156 216 191 41 26 41 47 -4 77 -38 26 -97 94 -107 124 -4 9 -14
17 -23 17 -9 0 -22 7 -28 15 -16 21 -124 75 -150 75 -12 0 -27 -5 -34 -12z"/>
<path d="M10957 5653 c-19 -19 16 -73 48 -73 20 0 30 46 15 65 -13 15 -51 20
-63 8z"/>
<path d="M4118 5623 c-45 -3 -58 -8 -63 -23 -6 -19 -5 -28 15 -175 6 -44 11
-181 10 -305 -1 -124 -3 -463 -4 -755 -2 -291 -4 -597 -5 -680 -3 -251 -3
-243 20 -256 14 -7 111 -12 273 -14 321 -4 607 -19 721 -38 182 -31 355 -40
651 -34 221 4 308 1 369 -9 102 -18 158 -17 270 2 50 8 135 17 190 20 55 2
145 6 200 9 55 3 150 8 210 10 61 3 133 7 160 10 28 3 75 1 105 -3 30 -4 69
-5 85 -2 36 6 38 19 24 130 -23 174 -30 263 -34 390 -2 74 -7 225 -11 335 -4
110 -7 209 -6 220 3 70 1 310 -3 351 -2 27 -9 103 -15 169 -6 66 -20 174 -31
240 -12 72 -19 162 -19 225 1 58 1 115 1 128 -1 23 -2 23 -83 17 -52 -4 -126
-1 -198 8 -63 8 -128 14 -145 14 -16 0 -70 5 -120 13 -96 14 -278 9 -415 -10
-75 -10 -709 -8 -726 3 -5 3 -61 -1 -124 -9 -71 -9 -155 -12 -220 -9 -58 4
-242 8 -410 10 -168 2 -361 9 -430 14 -69 6 -138 10 -155 9 -16 -1 -56 -3 -87
-5z m2562 -56 c41 -7 100 -13 130 -12 30 1 68 -2 84 -6 27 -8 166 -18 247 -19
l36 0 6 -147 c3 -82 10 -163 16 -182 30 -96 50 -397 57 -851 4 -184 6 -351 6
-370 -1 -92 21 -351 34 -401 8 -31 14 -78 14 -104 l0 -48 -52 8 c-90 13 -517
-2 -768 -27 -69 -7 -188 -11 -265 -10 -77 1 -291 2 -475 1 -336 -1 -467 8
-700 45 -47 8 -166 17 -265 21 -99 4 -236 10 -305 13 -69 4 -177 5 -240 2 -63
-3 -118 -1 -121 4 -4 5 -5 95 -3 200 8 365 10 802 5 946 -4 80 -5 148 -4 151
2 4 5 123 8 265 3 177 1 297 -8 379 l-13 120 46 9 c29 6 125 5 265 -4 121 -7
283 -11 360 -10 77 2 234 0 349 -3 138 -4 233 -3 280 5 39 6 96 11 126 10 149
-3 695 -2 765 2 109 6 229 17 234 22 8 8 78 4 151 -9z"/>
<path d="M5702 5317 c-14 -16 -5 -183 14 -257 8 -30 14 -59 14 -65 0 -6 -21
-12 -46 -13 -27 -1 -57 -10 -75 -23 -26 -18 -29 -26 -28 -67 1 -26 8 -58 14
-72 20 -39 63 -77 93 -83 33 -6 55 5 120 64 45 41 48 46 32 57 -29 18 -65 108
-86 212 -15 79 -26 188 -21 221 5 41 -9 53 -31 26z m33 -404 c9 -10 26 -32 40
-48 l23 -31 -43 -28 c-48 -30 -62 -28 -101 16 -30 32 -38 73 -18 92 21 22 80
20 99 -1z"/>
<path d="M4426 5221 c-9 -10 -14 -25 -11 -33 16 -42 32 -194 23 -225 -5 -18
-8 -61 -6 -96 l3 -62 75 1 c41 0 93 4 115 8 22 4 54 9 71 12 26 4 31 8 27 24
-8 29 -27 31 -119 15 -81 -14 -112 -12 -126 8 -3 6 -4 75 -2 154 3 110 1 152
-10 178 -17 41 -18 41 -40 16z"/>
<path d="M4945 5045 c-40 -19 -66 -43 -93 -86 -27 -45 -29 -109 -4 -131 37
-33 102 -58 150 -58 41 0 55 5 90 36 37 31 42 41 42 78 0 31 -9 55 -31 89 -55
84 -92 101 -154 72z m96 -52 c31 -26 59 -77 59 -108 0 -26 -79 -75 -120 -75
-30 0 -45 7 -74 37 -42 43 -42 44 -17 99 35 76 95 95 152 47z"/>
<path d="M5354 5044 c-44 -21 -126 -91 -148 -126 -16 -26 -17 -32 -5 -55 18
-33 81 -65 109 -55 12 5 36 32 54 61 l33 52 34 -53 c19 -29 42 -54 52 -56 21
-4 22 20 2 52 -23 35 -65 147 -65 173 0 27 -21 30 -66 7z m-4 -109 c0 -34 -15
-73 -34 -87 -6 -3 -22 0 -38 8 -42 22 -37 54 14 87 23 15 46 27 50 27 4 0 8
-16 8 -35z"/>
<path d="M5256 4361 c-3 -5 -4 -29 -2 -53 12 -121 20 -242 20 -323 1 -87 2
-90 25 -93 l24 -4 -6 162 c-4 89 -9 165 -11 169 -3 4 -6 34 -7 67 -1 32 -4 65
-7 72 -5 14 -28 16 -36 3z"/>
<path d="M4457 4316 c-45 -14 -65 -40 -47 -62 10 -11 10 -14 0 -14 -8 0 -10
-9 -6 -27 14 -61 28 -181 27 -229 -1 -33 3 -55 12 -62 21 -18 35 4 39 63 3 47
5 50 28 47 70 -10 210 -91 210 -122 0 -12 -86 -48 -141 -59 -58 -12 -103 -4
-111 20 -5 16 -28 3 -28 -16 0 -7 12 -23 28 -35 23 -18 37 -21 87 -18 79 5
183 51 191 84 9 34 -3 74 -24 81 -9 4 -19 9 -22 12 -3 4 -29 22 -57 41 -29 19
-53 40 -53 45 0 6 15 16 33 23 18 7 46 25 61 41 38 40 29 78 -31 131 -38 33
-127 74 -152 69 -3 -1 -23 -6 -44 -13z m176 -84 c26 -18 43 -39 45 -54 3 -21
-5 -26 -65 -49 -107 -41 -120 -43 -137 -17 -7 13 -17 54 -21 92 l-7 69 72 -5
c59 -5 79 -11 113 -36z"/>
<path d="M6906 4196 c-21 -8 -42 -18 -45 -23 -3 -4 -19 -15 -34 -23 -16 -8
-38 -32 -49 -53 -18 -37 -20 -38 -38 -22 -12 11 -26 14 -39 10 -20 -6 -20 -8
-6 -36 9 -16 13 -29 11 -29 -3 0 -1 -13 4 -30 8 -29 8 -30 -28 -30 -20 -1 -48
-7 -62 -15 -37 -21 -113 -19 -133 3 -20 22 -6 42 29 42 12 0 33 9 47 20 14 11
30 20 36 20 18 0 32 37 22 62 -13 34 -60 88 -77 88 -44 0 -125 -78 -130 -124
-1 -12 -3 -24 -3 -28 -1 -4 -13 -14 -28 -22 -16 -8 -43 -28 -61 -45 -37 -35
-76 -40 -121 -16 -69 35 -42 97 69 154 37 19 56 36 58 50 2 13 -2 21 -12 21
-23 0 -136 -71 -173 -109 -63 -65 -36 -144 60 -171 57 -16 101 -3 144 41 l38
40 31 -37 c22 -26 45 -40 82 -49 48 -13 92 -11 92 4 0 4 15 13 34 19 19 7 37
19 40 27 3 8 17 15 31 15 23 0 25 -3 25 -49 0 -53 19 -84 46 -74 12 4 14 14 9
42 -6 38 16 143 36 167 6 8 8 14 3 14 -4 0 3 11 16 25 31 33 103 75 129 75 11
0 23 5 26 10 3 6 19 10 35 10 28 0 48 15 36 27 -13 14 -113 12 -150 -1z m-354
-83 c38 -34 19 -63 -49 -76 -29 -6 -33 -4 -33 14 0 24 36 79 52 79 6 0 20 -7
30 -17z"/>
<path d="M5595 4118 c-94 -55 -179 -164 -153 -195 37 -45 118 -51 154 -12 23
26 43 23 84 -11 19 -17 40 -30 47 -30 25 0 24 23 -2 50 -28 30 -75 145 -75
185 0 28 -21 32 -55 13z m17 -75 c3 -36 -4 -66 -19 -89 -12 -19 -24 -24 -59
-24 -38 0 -44 3 -44 20 0 23 84 110 106 110 8 0 15 -8 16 -17z"/>
<path d="M5063 4108 c-13 -6 -23 -14 -23 -18 0 -4 -19 -20 -42 -36 -44 -30
-101 -88 -130 -132 -23 -35 -9 -58 43 -72 61 -17 94 -5 142 51 23 27 45 49 48
49 3 0 22 -24 42 -54 24 -36 44 -55 61 -58 33 -7 33 3 -2 40 -45 48 -104 179
-97 213 7 32 -3 36 -42 17z m0 -110 c3 -20 -1 -39 -9 -49 -8 -8 -14 -20 -14
-26 0 -5 -17 -18 -38 -27 -29 -13 -44 -15 -65 -7 -31 12 -33 19 -9 46 20 24
112 95 122 95 4 0 10 -15 13 -32z"/>
<path d="M5870 4112 c-8 -3 -37 -19 -64 -36 l-48 -31 4 -63 c4 -61 18 -86 43
-79 6 2 13 30 16 63 8 82 15 94 54 94 48 0 80 -32 110 -109 23 -61 48 -91 63
-77 11 12 3 58 -21 107 -41 89 -110 146 -157 131z"/>
<path d="M945 5604 c-27 -8 -66 -19 -85 -24 -19 -5 -49 -22 -66 -38 -30 -27
-31 -31 -24 -78 4 -27 6 -52 5 -55 -8 -12 -18 -107 -16 -148 1 -25 -5 -101
-14 -170 -8 -69 -18 -147 -21 -173 -6 -52 -8 -53 -90 -63 -32 -4 -71 -14 -86
-21 -15 -8 -38 -14 -53 -14 -14 0 -25 -4 -25 -9 0 -5 -20 -17 -45 -26 -25 -10
-47 -26 -51 -37 -12 -39 -5 -140 11 -158 28 -31 128 -76 210 -95 44 -10 81
-19 82 -20 2 -1 -42 -48 -97 -105 -55 -56 -100 -109 -100 -115 0 -7 -7 -18
-15 -25 -15 -12 -47 -112 -62 -190 -15 -82 36 -310 98 -431 23 -45 75 -118 94
-131 5 -4 10 -24 10 -45 0 -32 4 -39 23 -41 12 -2 22 1 22 7 0 16 19 13 48 -8
15 -10 68 -36 117 -56 94 -40 96 -40 340 -46 72 -2 229 38 273 70 15 10 45 28
67 39 71 35 205 171 256 258 26 44 49 93 53 109 4 17 12 50 17 75 14 62 3 220
-22 310 -22 79 -68 176 -106 223 -38 47 -31 53 75 78 147 33 217 65 251 114
24 35 24 35 6 82 -25 65 -83 125 -142 146 -30 11 -80 18 -131 19 l-82 1 -5 31
c-40 254 -55 457 -44 614 2 33 -45 98 -83 115 -18 9 -64 22 -103 31 -93 20
-417 20 -490 0z m395 -43 c89 0 156 -18 196 -53 35 -31 43 -48 23 -48 -6 0
-25 -6 -42 -14 -66 -30 -117 -38 -283 -43 -151 -5 -179 -3 -253 16 -95 23
-162 65 -139 85 40 36 204 63 353 59 44 -2 109 -3 145 -2z m-540 -629 c0 -13
79 -42 153 -54 40 -7 153 -13 252 -12 154 0 192 3 265 22 149 40 137 42 144
-20 3 -29 8 -85 12 -125 6 -71 6 -71 -23 -86 -53 -28 -145 -38 -275 -31 -68 4
-163 8 -213 9 -104 1 -250 19 -315 39 -38 12 -45 17 -43 37 2 13 5 60 8 104 7
97 12 125 25 125 6 0 10 -3 10 -8z m285 -503 c110 -26 282 -31 436 -14 l66 7
61 -76 c34 -42 62 -79 62 -84 0 -4 8 -23 19 -42 51 -96 71 -324 36 -425 -44
-127 -170 -265 -328 -359 -111 -67 -191 -85 -370 -85 -129 0 -201 16 -296 64
-157 79 -259 233 -301 455 -19 98 -20 120 -10 176 21 108 58 171 156 267 145
140 135 136 294 130 74 -2 153 -8 175 -14z"/>
<path d="M813 4313 c-46 -4 -55 -8 -87 -46 -20 -23 -46 -52 -58 -65 -48 -50
-54 -162 -11 -220 46 -63 195 -107 255 -76 72 37 106 73 122 128 25 85 21 154
-11 204 -29 44 -38 50 -93 62 -19 4 -42 9 -50 12 -8 2 -38 3 -67 1z m155 -87
c35 -18 48 -75 32 -137 -12 -43 -24 -58 -83 -103 -34 -26 -41 -28 -94 -21 -96
12 -143 52 -143 125 0 33 74 148 102 159 28 10 151 -5 186 -23z"/>
<path d="M807 4192 c-25 -27 -21 -46 17 -86 71 -76 141 -22 83 65 -27 41 -73
51 -100 21z"/>
<path d="M1322 4168 c-22 -22 -14 -65 19 -92 55 -46 99 -27 99 42 0 16 -8 36
-18 45 -22 20 -83 22 -100 5z"/>
<path d="M630 3930 c-13 -8 -13 -11 2 -27 21 -20 45 -5 35 21 -7 18 -16 20
-37 6z"/>
<path d="M630 3868 c0 -7 5 -20 10 -28 12 -19 35 2 27 24 -7 19 -37 21 -37 4z"/>
<path d="M640 3790 c0 -11 2 -20 4 -20 2 0 11 -3 20 -6 12 -5 16 0 16 20 0 19
-5 26 -20 26 -13 0 -20 -7 -20 -20z"/>
<path d="M777 3781 c-5 -21 83 -114 140 -147 17 -11 56 -36 86 -56 51 -35 61
-38 126 -38 38 0 93 5 122 11 58 13 136 56 144 81 3 9 16 19 29 22 30 7 108
94 104 115 -6 32 -39 22 -101 -31 -80 -70 -136 -106 -178 -118 -48 -14 -173
-12 -206 2 -57 26 -149 90 -189 134 -44 47 -69 55 -77 25z"/>
<path d="M662 3738 c-8 -8 -9 -15 -1 -25 17 -20 29 -15 29 12 0 27 -9 32 -28
13z"/>
<path d="M655 3660 c-9 -15 4 -30 27 -30 14 0 18 5 14 16 -3 9 -6 18 -6 20 0
8 -29 4 -35 -6z"/>
<path d="M667 3576 c-5 -14 10 -36 25 -36 4 0 8 11 8 25 0 27 -24 35 -33 11z"/>
<path d="M11361 5556 c-8 -13 -10 -29 -7 -35 4 -5 1 -40 -6 -77 l-12 -67 -80
7 c-189 14 -223 17 -256 20 -238 28 -263 29 -640 20 -263 -7 -687 -6 -775 2
-27 2 -79 6 -115 9 -36 3 -79 7 -96 10 -17 3 -62 7 -100 10 -239 16 -329 17
-894 10 -302 -4 -364 -6 -465 -20 -16 -2 -55 -7 -85 -10 -30 -4 -64 -10 -75
-15 -30 -14 -185 -42 -227 -41 -31 0 -38 -3 -38 -19 0 -10 5 -22 10 -25 12 -8
199 14 220 25 55 29 288 40 915 43 453 2 548 -1 755 -22 47 -5 87 -7 89 -5 2
2 11 -1 20 -6 22 -11 530 -14 916 -5 196 4 336 3 405 -4 184 -19 414 -39 460
-40 24 -1 47 -4 50 -9 4 -4 12 -51 18 -106 6 -54 13 -101 17 -104 3 -3 18 4
33 16 15 13 60 44 101 70 41 26 88 58 105 72 17 14 48 34 69 45 37 20 54 46
42 65 -4 6 -23 19 -43 29 -21 11 -62 40 -93 65 -31 25 -60 46 -66 46 -5 0 -18
9 -28 20 -10 11 -24 20 -30 20 -7 0 -18 7 -25 15 -19 23 -55 18 -69 -9z"/>
<path d="M2506 5514 c-14 -14 -14 -18 -1 -44 8 -16 28 -41 44 -57 l28 -28 -48
-58 c-53 -63 -55 -69 -36 -85 15 -12 237 220 237 249 0 33 -42 23 -68 -16 -12
-19 -28 -35 -35 -35 -17 1 -62 41 -76 68 -14 26 -24 28 -45 6z"/>
<path d="M2803 5501 c-54 -34 -53 -106 2 -149 52 -41 94 -40 141 3 24 23 26
28 19 85 -5 43 -12 63 -25 70 -31 16 -103 11 -137 -9z m107 -41 c28 -28 27
-76 -2 -83 -12 -4 -29 0 -38 7 -8 7 -23 16 -32 19 -9 3 -21 15 -27 26 -24 45
59 71 99 31z"/>
<path d="M3082 5328 c-15 -15 -16 -45 -1 -54 16 -9 53 31 46 50 -8 19 -28 21
-45 4z"/>
<path d="M3537 5304 c-25 -25 -26 -30 -20 -103 l6 -77 -194 -3 c-127 -1 -229
3 -295 13 -86 12 -129 12 -308 0 -248 -16 -508 -53 -521 -75 -4 -5 -14 -9 -24
-9 -24 0 -42 -22 -32 -39 6 -9 19 -12 37 -8 95 17 151 30 167 38 10 5 22 7 27
4 5 -3 55 1 112 10 127 18 396 21 753 9 l270 -9 7 -75 c3 -41 2 -82 -3 -91 -6
-11 -3 -30 7 -55 l16 -38 22 29 c11 16 39 50 61 76 22 25 55 67 73 93 19 27
47 53 66 61 18 8 36 21 39 30 7 18 -1 45 -14 45 -17 0 -168 140 -175 162 -13
45 -41 49 -77 12z"/>
<path d="M17582 4140 c-53 -4 -86 -11 -91 -19 -6 -10 -10 -10 -13 -1 -3 9 -23
9 -88 0 -85 -12 -114 -24 -107 -44 5 -15 -42 -83 -89 -127 -82 -77 -129 -142
-130 -179 -5 -118 -4 -673 2 -880 8 -310 8 -296 0 -480 -3 -85 -8 -243 -11
-350 -3 -107 -10 -253 -15 -325 -5 -71 -9 -179 -9 -240 -1 -60 -4 -144 -7
-185 -3 -41 -7 -92 -7 -113 l-2 -38 200 -4 c110 -3 259 -8 330 -12 141 -8 345
-7 690 2 121 3 297 7 390 9 94 2 260 9 370 15 110 6 251 12 314 15 82 2 116 7
122 17 18 30 29 115 29 232 0 67 5 151 10 187 5 36 11 85 14 109 3 24 12 76
20 115 8 39 22 114 31 166 9 52 20 115 25 140 5 25 11 113 15 195 3 83 15 204
26 270 25 151 27 341 6 450 -30 151 -35 220 -28 435 8 280 6 598 -3 608 -4 4
-157 7 -339 7 -199 0 -338 4 -347 10 -15 10 -242 14 -770 14 -19 0 -129 1
-245 3 -115 2 -247 1 -293 -2z m1213 -86 c88 -3 208 -7 268 -9 59 -1 113 -7
120 -13 27 -21 112 -22 192 -2 43 11 96 21 118 22 35 3 41 0 47 -22 8 -28 5
-306 -4 -390 -3 -30 -8 -122 -10 -204 -4 -141 -1 -171 34 -421 12 -83 11 -254
-1 -322 -26 -135 -28 -158 -34 -313 -5 -107 -33 -316 -51 -373 -3 -10 -7 -33
-9 -50 -2 -18 -11 -63 -19 -100 -22 -95 -36 -241 -37 -384 -1 -121 -9 -187
-26 -204 -16 -16 -565 -44 -773 -40 -69 1 -163 -2 -208 -8 -117 -15 -678 -21
-862 -10 -85 6 -230 13 -321 16 l-166 5 14 61 c8 37 16 138 18 252 2 105 6
201 9 214 3 13 8 147 10 298 3 150 8 278 12 284 7 11 6 570 -1 974 -3 149 -3
298 1 333 6 61 7 62 36 62 36 0 117 -20 123 -30 3 -5 7 -70 10 -147 7 -172 11
-223 20 -246 5 -11 0 -23 -16 -37 l-24 -20 24 -20 c25 -21 5 -21 316 -5 175 9
298 10 380 2 44 -4 123 -12 175 -17 93 -9 193 -9 540 3 425 15 485 19 507 33
12 8 35 14 51 14 38 0 60 25 45 49 -8 12 -12 112 -13 301 0 156 -3 287 -6 291
-9 16 -84 30 -177 34 -50 2 -200 7 -332 10 -132 4 -243 9 -246 11 -4 2 -71 7
-149 10 -78 3 -163 9 -188 14 -53 10 -261 5 -406 -10 -113 -11 -212 -13 -308
-4 -66 7 -68 7 -80 43 -7 20 -13 41 -13 46 0 22 209 30 720 28 292 -1 602 -5
690 -9z m-1439 -119 c13 -33 24 -66 24 -73 0 -7 9 -32 20 -54 11 -23 20 -50
20 -60 0 -20 12 -22 -150 18 -52 12 -106 24 -120 26 -23 3 -18 10 60 91 47 49
89 95 93 103 14 25 27 12 53 -51z m853 -49 c19 -12 373 -28 911 -40 47 -1 92
-3 100 -4 13 -2 15 -38 15 -261 l0 -259 -28 -23 c-27 -21 -40 -22 -235 -26
-114 -2 -261 -8 -327 -12 -120 -7 -444 -5 -520 3 -22 3 -85 7 -140 9 -55 3
-121 8 -147 12 -26 4 -93 2 -150 -4 -57 -6 -155 -13 -219 -14 l-117 -4 -6 71
c-3 39 -8 132 -11 207 l-5 136 48 -10 c26 -5 63 -10 84 -11 l36 -1 -5 -43 c-3
-32 0 -49 13 -63 15 -17 15 -19 0 -25 -8 -3 -33 3 -53 14 -35 18 -38 23 -38
62 0 47 -11 58 -39 37 -13 -10 -19 -26 -19 -56 0 -51 29 -86 84 -102 l36 -11
-12 -42 c-24 -80 13 -111 91 -77 60 27 66 26 117 -6 48 -30 86 -33 139 -10 46
20 68 76 51 137 -9 37 -9 39 17 50 65 27 96 124 52 161 -13 10 -43 21 -68 25
l-45 6 6 39 c5 30 2 44 -16 68 -12 17 -32 34 -43 38 -32 11 36 21 194 29 74 3
136 7 138 9 5 4 101 -3 111 -9z m-602 -18 l129 -1 -27 -26 c-14 -14 -28 -33
-31 -41 -3 -11 -11 -10 -40 8 -44 27 -73 28 -123 2 -22 -11 -42 -20 -46 -20
-5 0 -29 68 -29 84 0 4 9 5 19 1 11 -3 78 -6 148 -7z m162 -77 c20 -16 22 -22
14 -47 -7 -21 -17 -30 -35 -32 -22 -3 -27 2 -33 27 -6 28 8 71 23 71 4 0 18
-9 31 -19z m-164 -35 c54 -23 42 -34 -40 -34 -41 0 -75 2 -75 3 0 5 65 45 73
45 4 0 23 -7 42 -14z m-15 -96 c0 -5 -8 -23 -19 -41 l-19 -31 -16 23 c-28 40
-19 56 32 58 12 1 22 -3 22 -9z m67 -28 c-22 -24 -21 -49 2 -61 25 -14 45 10
38 44 -5 28 10 29 27 2 7 -11 6 -26 -7 -52 l-17 -36 -53 7 c-28 4 -54 8 -56
10 -2 1 7 25 20 53 16 34 30 50 43 51 18 0 18 -1 3 -18z m261 6 c16 -16 -1
-44 -38 -63 -42 -22 -56 -19 -70 15 -19 46 -8 60 48 60 26 0 53 -5 60 -12z
m-102 -183 c13 -70 -14 -88 -81 -54 -25 12 -45 26 -45 29 0 18 69 57 107 59 7
1 15 -15 19 -34z m-241 -15 c0 -14 -52 -46 -61 -37 -3 2 1 16 7 31 14 29 54
34 54 6z"/>
<path d="M18275 3069 c-82 -4 -184 -13 -225 -20 -97 -16 -626 -12 -685 6 -11
3 -28 0 -37 -7 -16 -12 -18 -42 -23 -273 -3 -143 -11 -287 -17 -320 -22 -125
-22 -142 2 -155 13 -7 66 -21 119 -32 100 -21 238 -20 371 2 71 12 120 12 510
5 377 -7 321 -6 490 -4 74 1 180 8 235 16 110 16 154 20 232 22 52 1 52 1 62
39 5 20 11 182 13 359 2 319 2 323 -19 338 -16 11 -68 16 -229 19 -426 11
-653 12 -799 5z m525 -72 c118 -3 273 -5 344 -6 l129 -1 -7 -42 c-4 -22 -6
-125 -5 -227 2 -228 1 -333 -4 -337 -2 -2 -68 -10 -148 -19 -172 -18 -428 -27
-634 -23 -82 2 -213 2 -290 0 -77 -1 -169 1 -205 6 -47 7 -90 6 -155 -5 -114
-18 -399 -26 -444 -13 -48 13 -55 23 -47 64 l7 35 54 -26 55 -27 51 21 c56 24
71 22 113 -19 35 -33 73 -36 131 -9 68 31 93 67 101 141 7 76 -7 141 -39 170
-38 36 -120 77 -188 94 -82 20 -75 21 -95 -9 -16 -24 -16 -27 2 -40 23 -17 54
-19 54 -4 0 36 183 -48 206 -94 20 -37 13 -137 -11 -173 -27 -42 -137 -56
-151 -19 -8 19 44 64 73 65 24 0 46 29 35 47 -15 23 -53 25 -75 5 -35 -33
-179 -102 -212 -102 -53 0 -61 13 -36 54 19 30 20 37 8 42 -18 6 -57 -12 -57
-26 0 -6 -5 -10 -11 -10 -6 0 -8 8 -5 18 2 9 6 114 8 233 l3 215 322 -4 c266
-3 342 -1 440 13 65 9 119 18 120 18 2 2 240 -1 563 -6z"/>
<path d="M17527 2921 c-32 -22 -90 -80 -111 -112 -19 -30 -31 -154 -16 -164 6
-4 8 -10 5 -15 -3 -5 7 -29 22 -52 15 -24 26 -51 24 -60 -3 -25 43 -45 64 -28
23 19 18 37 -18 74 -54 54 -74 159 -40 214 32 52 95 102 128 102 54 0 72 -11
91 -53 28 -60 49 -62 41 -4 -11 80 -35 102 -119 110 -32 3 -54 -1 -71 -12z"/>
<path d="M18601 2931 c-19 -12 -30 -85 -24 -167 l6 -72 -39 1 c-48 1 -112 -36
-120 -69 -10 -37 21 -91 64 -112 51 -25 73 -18 133 38 l51 48 -22 30 c-20 27
-22 42 -24 165 0 74 -3 138 -6 141 -3 3 -12 1 -19 -3z m-34 -297 c42 -11 34
-57 -15 -83 -24 -13 -60 4 -74 35 -11 23 -10 28 7 40 20 15 46 17 82 8z"/>
<path d="M17961 2821 c-34 -28 -35 -29 -18 -54 19 -29 22 -78 7 -93 -7 -7 -6
-16 3 -28 10 -14 11 -35 5 -87 -7 -56 -6 -73 6 -85 13 -12 17 -11 30 8 9 12
16 35 16 50 0 36 13 35 74 -6 56 -37 101 -52 111 -36 10 15 -12 38 -59 62 -53
27 -106 70 -106 86 0 6 10 12 23 12 12 0 40 10 62 23 31 17 41 29 43 53 5 53
-51 105 -128 118 -29 5 -41 1 -69 -23z m142 -58 c34 -32 16 -55 -54 -68 l-36
-7 -2 52 -1 52 38 -7 c20 -4 45 -14 55 -22z"/>
<path d="M18845 2717 c-10 -12 -24 -40 -43 -89 -6 -15 -20 -32 -32 -38 -26
-14 -35 5 -27 59 6 50 -6 72 -28 50 -22 -22 -30 -92 -16 -128 21 -50 108 -47
128 5 9 24 23 16 39 -21 15 -38 39 -54 55 -38 5 5 1 24 -11 48 -11 22 -20 50
-20 63 0 30 -21 102 -29 102 -3 -1 -10 -6 -16 -13z"/>
<path d="M18305 2710 c-81 -20 -103 -45 -120 -128 -8 -37 14 -72 45 -72 9 0
20 -4 26 -9 14 -13 92 -30 114 -24 18 5 39 48 28 58 -2 3 -18 1 -35 -4 -22 -7
-40 -4 -69 9 l-39 18 28 11 c16 6 31 11 34 11 13 0 63 61 63 78 0 19 -27 63
-38 61 -4 -1 -20 -5 -37 -9z m35 -59 c0 -13 -58 -41 -83 -41 -17 0 -18 2 -6
16 23 28 89 46 89 25z"/>
<path d="M18991 2706 c-9 -11 -8 -23 4 -51 20 -48 19 -57 -5 -85 -18 -21 -19
-25 -6 -39 13 -12 19 -13 40 -1 24 12 58 10 114 -6 31 -9 29 24 -3 55 -31 29
-31 36 0 67 14 14 25 34 25 44 0 31 -39 25 -76 -11 l-33 -32 -15 37 c-16 39
-27 44 -45 22z"/>
<path d="M19040 2153 c-19 -2 -69 -10 -110 -18 -89 -16 -190 -30 -209 -28 -68
7 -863 19 -981 15 -8 0 -67 1 -130 4 -244 10 -282 9 -297 -11 -8 -12 -12 -37
-9 -69 2 -28 -1 -62 -6 -76 -5 -14 -9 -85 -9 -158 0 -73 -6 -169 -14 -214 -12
-69 -12 -85 0 -108 13 -26 20 -28 137 -41 205 -23 1250 -14 1323 11 47 16 260
26 370 17 139 -11 140 -10 153 65 14 79 21 158 34 373 12 209 12 226 -4 237
-13 7 -177 9 -248 1z m195 -146 c-12 -276 -18 -377 -24 -417 l-6 -45 -205 0
c-129 0 -220 -4 -245 -12 -115 -34 -1390 -41 -1423 -8 -11 10 -4 116 8 130 8
10 9 19 2 28 -10 13 -9 157 3 294 l8 82 43 7 c24 3 61 3 81 -1 21 -4 193 -9
383 -11 190 -2 415 -6 500 -9 85 -3 202 -7 260 -8 110 -3 298 14 321 29 13 8
101 16 241 21 l56 3 -3 -83z"/>
<path d="M18652 2011 c-10 -6 -12 -25 -6 -80 l7 -72 -39 7 c-41 7 -43 7 -59 5
-15 -1 -16 -38 -2 -49 7 -5 29 -12 50 -16 47 -9 53 -22 38 -93 -11 -58 -4 -83
24 -83 18 0 28 26 34 95 l6 59 83 17 c127 25 126 41 -1 49 l-82 5 -5 70 c-7
90 -17 106 -48 86z"/>
<path d="M17677 1928 c-9 -13 -30 -42 -47 -65 -17 -24 -34 -43 -38 -43 -4 0
-15 12 -24 28 -9 15 -26 36 -38 47 -22 20 -22 20 -36 0 -8 -11 -13 -29 -10
-40 3 -11 -1 -62 -8 -113 -7 -51 -10 -95 -7 -97 2 -3 12 -5 22 -5 18 0 24 21
34 125 2 22 4 42 4 44 1 3 15 -8 31 -24 l30 -29 39 38 38 37 11 -58 c7 -32 9
-67 6 -79 -3 -13 1 -28 11 -38 23 -23 34 -20 41 12 3 15 7 32 9 37 1 6 -3 19
-11 30 -9 12 -14 44 -14 86 0 73 -9 129 -20 129 -4 0 -15 -10 -23 -22z"/>
<path d="M18407 1849 c-40 -24 -88 -83 -83 -104 3 -11 6 -27 6 -36 0 -9 9 -19
20 -22 15 -4 21 1 25 19 3 13 7 34 10 47 4 21 40 47 64 47 16 0 41 -67 41
-108 0 -28 5 -42 17 -46 30 -12 37 10 23 71 -15 71 -33 107 -62 127 -26 18
-36 19 -61 5z"/>
<path d="M18063 1838 c-17 -21 -43 -76 -43 -91 0 -26 40 -57 75 -57 25 0 40 8
61 32 25 31 28 32 38 14 20 -35 47 -57 64 -54 25 5 27 44 4 57 -12 7 -23 26
-27 49 -12 70 -21 72 -73 16 -26 -28 -55 -54 -65 -58 -16 -5 -18 -2 -11 27 11
48 10 70 -2 74 -6 2 -16 -2 -21 -9z"/>
<path d="M17838 1830 c-26 -16 -58 -74 -58 -107 0 -69 100 -98 171 -50 32 22
34 27 34 76 -1 44 -5 57 -24 72 -25 21 -94 25 -123 9z m108 -55 c4 -8 3 -26 0
-39 -7 -28 -50 -40 -67 -20 -6 8 -20 14 -30 14 -18 0 -18 1 -3 24 8 14 23 27
32 29 36 10 63 6 68 -8z"/>
<path d="M18908 3763 c-1 -5 -2 -26 -2 -48 l-1 -40 -41 3 c-35 2 -44 -2 -58
-22 -14 -23 -14 -26 0 -40 9 -9 32 -16 54 -16 21 0 41 -4 45 -10 3 -5 6 -43 6
-85 0 -58 4 -78 15 -82 26 -10 39 16 44 90 l5 72 55 11 c64 14 90 23 90 34 0
18 -30 29 -90 32 l-65 3 -14 53 c-8 30 -20 52 -27 52 -8 0 -15 -3 -16 -7z"/>
<path d="M18025 3730 c-31 -12 -49 -38 -38 -52 18 -23 22 -114 8 -174 -16 -69
-5 -93 26 -55 10 13 19 32 19 42 0 10 5 19 10 19 13 0 70 -57 70 -70 0 -6 6
-10 13 -10 8 0 22 -9 32 -20 10 -11 24 -20 30 -20 16 0 26 25 19 45 -4 8 -1
15 5 15 6 0 11 -4 11 -9 0 -5 13 -19 29 -30 25 -18 33 -19 62 -9 19 6 45 19
59 29 22 15 28 15 45 3 36 -26 95 -11 132 33 10 13 14 12 30 -7 22 -26 133
-80 166 -80 33 0 89 24 110 47 23 26 13 33 -31 21 -39 -11 -109 -5 -124 10
-16 16 9 58 46 80 34 20 48 53 28 66 -16 10 -76 -29 -104 -68 -16 -23 -35 -41
-41 -41 -6 0 -25 28 -42 62 -16 34 -34 62 -38 63 -5 0 -34 -17 -64 -37 -38
-25 -61 -49 -72 -74 -13 -30 -23 -38 -58 -48 -24 -6 -52 -11 -63 -11 -19 0
-21 3 -24 31 -1 5 19 20 43 32 53 27 66 45 57 80 -6 24 -11 27 -47 27 -53 0
-71 -11 -114 -67 -33 -43 -34 -47 -19 -64 9 -10 14 -24 11 -31 -5 -15 -127
101 -127 120 0 7 17 12 44 12 56 0 70 16 61 70 -9 52 -44 80 -99 79 -22 0 -50
-4 -61 -9z m113 -60 c30 -28 28 -40 -7 -40 -41 0 -81 17 -81 34 0 30 57 34 88
6z m402 -135 c0 -22 -37 -55 -62 -55 -20 0 -19 3 12 35 37 38 50 43 50 20z"/>
<path d="M9917 3874 c-4 -4 -117 -9 -250 -9 -151 -1 -252 -6 -269 -13 -15 -6
-54 -35 -87 -64 -63 -55 -128 -108 -195 -159 -65 -49 -66 -53 -61 -312 2 -128
7 -286 11 -352 14 -231 8 -625 -12 -752 -2 -17 -1 -48 4 -70 5 -23 4 -90 -4
-173 -6 -74 -11 -160 -9 -190 8 -123 6 -247 -4 -273 -6 -16 -9 -32 -7 -36 3
-4 6 -50 7 -101 1 -52 5 -108 9 -124 5 -17 11 -80 14 -139 3 -60 8 -112 11
-116 2 -5 0 -109 -6 -232 -11 -260 -14 -437 -7 -444 9 -9 120 -26 198 -30 41
-2 98 -9 125 -15 74 -17 407 -13 565 6 124 16 384 24 455 15 52 -6 319 6 345
17 14 5 66 10 115 12 50 1 101 2 115 3 92 2 318 -7 381 -15 42 -6 88 -8 101
-5 23 6 24 10 20 60 -2 31 1 63 7 76 12 22 6 76 -26 216 -22 96 -28 276 -14
398 22 186 17 837 -9 1102 -10 110 -22 265 -25 345 -3 80 -7 188 -10 240 -2
52 -7 155 -10 229 -3 73 -8 137 -10 141 -3 5 -5 89 -4 187 4 447 2 477 -18
502 -14 16 -32 22 -78 25 -33 3 -71 7 -85 11 -14 3 -79 5 -145 5 -66 -1 -127
-2 -135 -1 -8 0 -85 3 -170 6 -85 2 -236 9 -335 14 -99 6 -189 10 -200 10 -11
1 -81 4 -155 7 -74 3 -138 2 -143 -2z m415 -90 c5 -4 130 -8 278 -10 148 -2
281 -9 295 -14 20 -8 27 -6 31 5 5 12 32 13 162 9 87 -3 173 -9 192 -13 l35
-7 2 -284 c1 -157 6 -339 11 -405 5 -66 10 -183 11 -260 1 -77 6 -167 11 -201
6 -34 10 -101 10 -150 -1 -126 6 -228 24 -389 9 -77 16 -212 16 -300 1 -88 2
-277 3 -420 1 -143 -1 -264 -4 -270 -14 -23 -18 -89 -6 -103 9 -12 9 -16 0
-19 -20 -7 -17 -195 3 -268 23 -80 30 -157 26 -250 l-4 -78 -67 7 c-129 14
-464 17 -541 5 -41 -6 -210 -13 -375 -15 -165 -2 -361 -9 -435 -15 -166 -15
-561 -20 -615 -8 -22 5 -91 14 -154 19 -63 5 -119 14 -124 19 -7 7 -10 62 -8
143 2 130 3 161 16 340 4 48 2 127 -4 175 -27 222 -31 333 -15 427 16 88 15
186 -2 353 -3 28 0 208 8 400 14 391 13 793 -2 929 -15 130 -17 351 -3 365 9
9 22 7 53 -5 23 -9 83 -27 133 -41 51 -13 113 -31 140 -40 26 -10 54 -14 62
-11 22 8 19 73 -11 189 -37 147 -43 185 -30 190 6 2 121 5 255 6 135 1 247 4
250 7 7 7 361 -5 373 -12z m-933 -56 c5 -18 13 -49 16 -68 4 -19 16 -65 28
-102 11 -37 18 -70 14 -74 -9 -9 -297 78 -297 90 0 12 28 36 127 111 39 30 75
59 78 65 11 18 23 10 34 -22z"/>
<path d="M9645 3647 c-130 -24 -125 -22 -125 -51 0 -31 31 -41 88 -32 121 21
191 24 383 18 118 -4 293 -6 389 -5 96 1 200 2 230 2 30 1 113 -4 183 -11 78
-7 131 -8 135 -2 4 5 60 9 124 10 l117 1 6 -51 c3 -28 7 -133 9 -234 l4 -182
-24 -6 c-13 -3 -31 -4 -39 -1 -8 4 -47 0 -87 -8 -40 -7 -119 -14 -174 -14 -56
-1 -164 -3 -240 -6 -77 -3 -218 -8 -314 -11 -182 -7 -190 -7 -410 -24 -74 -5
-231 -13 -347 -16 -177 -6 -213 -5 -217 7 -3 8 -7 83 -10 166 -6 158 -15 193
-49 193 -17 0 -18 -7 -13 -82 4 -46 8 -137 10 -203 l4 -119 39 -14 c39 -14
351 -19 493 -8 36 3 106 8 155 11 122 7 192 13 245 19 25 3 196 8 380 12 184
3 358 10 385 16 28 5 68 14 90 19 22 4 68 8 102 9 34 0 64 4 67 8 7 12 7 58 2
167 -3 50 -8 155 -11 234 -3 79 -10 151 -15 161 -7 13 -27 17 -112 18 -57 2
-121 5 -143 8 -22 3 -53 1 -68 -5 -20 -8 -40 -8 -66 -1 -32 8 -229 12 -411 7
-30 -1 -143 2 -250 7 -347 14 -408 13 -515 -7z"/>
<path d="M10355 3505 c-5 -2 -27 -6 -47 -10 -44 -7 -67 -37 -47 -61 8 -10 13
-53 15 -114 2 -102 6 -120 28 -120 14 0 26 42 26 86 0 20 6 24 51 30 60 8 119
56 119 96 0 49 -97 112 -145 93z m69 -65 c14 -5 26 -14 26 -20 0 -15 -44 -40
-83 -47 -31 -5 -35 -3 -41 23 -12 46 36 68 98 44z"/>
<path d="M9809 3470 c-9 -5 -55 -13 -103 -16 -95 -8 -126 -25 -91 -50 17 -13
30 -15 89 -18 14 -1 27 -17 43 -56 12 -30 22 -63 23 -72 0 -24 -41 -33 -95
-19 -55 14 -52 14 -58 -9 -8 -32 37 -54 107 -52 32 1 65 7 72 13 20 16 17 77
-6 144 -25 74 -25 75 5 75 15 0 39 7 56 15 25 13 28 19 19 35 -12 21 -35 25
-61 10z"/>
<path d="M9990 3464 c-103 -28 -106 -68 -11 -123 58 -33 80 -57 64 -71 -4 -4
-29 -10 -55 -13 -37 -5 -49 -3 -56 9 -8 14 -11 13 -26 -7 -38 -54 -5 -75 94
-60 38 6 71 11 74 11 12 0 36 33 36 49 0 10 -27 47 -60 83 l-60 66 31 6 c18 3
51 6 76 6 42 0 44 1 41 28 -3 25 -7 27 -48 29 -25 1 -70 -5 -100 -13z"/>
<path d="M10878 2855 c-2 -2 -57 -6 -123 -10 -66 -3 -149 -7 -185 -10 -36 -2
-126 -6 -200 -10 -74 -3 -175 -10 -225 -16 -90 -10 -318 -18 -642 -22 -161 -2
-174 -3 -194 -23 -16 -16 -19 -26 -11 -40 19 -38 34 -200 29 -311 -4 -89 -3
-114 9 -124 16 -13 18 -52 4 -79 -20 -37 7 -42 257 -45 131 -2 263 -8 293 -13
51 -9 323 -7 380 3 46 8 154 34 210 50 54 16 212 35 280 34 19 0 95 -3 169 -5
110 -4 136 -2 143 9 5 10 27 15 68 16 34 0 65 3 70 6 12 7 18 78 26 280 12
299 11 306 -32 306 -10 0 -62 0 -114 1 -52 0 -121 1 -152 3 -31 1 -58 1 -60 0z
m305 -293 c-4 -147 -10 -230 -17 -234 -6 -4 -45 -8 -87 -8 -55 0 -78 -4 -82
-13 -3 -9 -18 -13 -39 -11 -204 15 -348 15 -398 1 -247 -71 -402 -88 -650 -74
-69 4 -178 9 -244 12 -65 2 -120 6 -123 8 -2 3 20 21 49 41 50 33 54 34 62 16
11 -25 62 -36 92 -20 24 14 47 62 38 83 -2 7 7 20 22 27 30 17 44 46 44 95 0
40 -29 65 -73 65 -28 0 -29 1 -22 39 5 29 1 49 -14 80 -12 22 -21 42 -21 44 0
2 84 8 188 12 351 15 382 17 382 25 0 3 20 4 43 2 24 -2 129 1 233 7 104 7
241 14 304 17 63 3 116 6 117 7 1 1 47 3 102 4 l100 2 -6 -227z m-1644 157
c85 0 151 -5 151 -10 0 -5 -4 -9 -9 -9 -6 0 -18 -13 -27 -30 -24 -40 -38 -43
-82 -20 -66 35 -92 22 -92 -47 0 -40 -3 -45 -35 -60 -31 -15 -35 -21 -35 -54
0 -32 5 -40 35 -58 47 -27 50 -39 25 -95 -22 -52 -26 -86 -10 -86 6 0 10 -4
10 -10 0 -5 -15 -10 -34 -10 l-33 0 -9 63 c-4 34 -9 107 -9 162 -1 55 -8 132
-15 172 -13 70 -9 110 9 99 5 -4 77 -7 160 -7z m169 -119 c-4 -28 -33 -49 -47
-35 -7 7 -3 22 11 43 22 36 42 31 36 -8z m-128 -27 c0 -7 -6 -13 -14 -13 -20
0 -39 27 -32 46 6 15 8 15 26 -1 11 -10 20 -24 20 -32z m-62 -101 c4 -25 -5
-27 -32 -7 -10 7 -15 19 -11 25 11 18 40 7 43 -18z m132 9 c15 -30 12 -36 -9
-17 -11 10 -25 14 -37 9 -17 -6 -17 -5 -5 10 18 22 38 21 51 -2z m158 -13 c3
-22 -2 -30 -23 -40 -35 -16 -61 8 -51 47 6 22 11 26 39 23 27 -2 33 -8 35 -30z
m-212 -100 c6 -9 -63 -77 -78 -78 -8 0 11 71 23 86 10 13 46 8 55 -8z m138 -7
c14 -16 15 -20 2 -30 -11 -10 -18 -8 -35 10 -11 12 -18 26 -15 31 9 14 30 9
48 -11z"/>
<path d="M10956 2731 c-3 -5 -5 -34 -5 -65 1 -31 0 -59 -3 -61 -2 -3 -19 1
-36 7 -27 11 -34 10 -49 -4 -15 -16 -15 -18 8 -37 13 -11 32 -20 41 -21 29 0
36 -32 22 -104 -5 -28 -3 -40 7 -47 27 -17 36 -9 49 47 12 47 16 55 33 50 30
-7 77 21 77 46 0 17 -4 20 -29 15 -47 -10 -62 10 -67 89 -3 38 -7 75 -9 82 -5
14 -31 16 -39 3z"/>
<path d="M9962 2650 c-31 -19 -32 -23 -25 -58 4 -20 7 -90 6 -154 -2 -109 -1
-118 16 -118 21 0 31 19 31 60 0 16 4 31 8 34 5 3 31 -13 60 -34 54 -41 104
-70 122 -70 20 0 10 28 -17 45 -45 29 -143 109 -143 118 0 4 10 7 23 7 12 0
37 9 55 20 56 34 41 104 -32 149 -42 26 -62 26 -104 1z m94 -55 c49 -20 44
-53 -10 -72 -22 -7 -41 -11 -43 -9 -2 2 -7 20 -10 41 -4 26 -2 40 8 46 18 11
14 11 55 -6z"/>
<path d="M10270 2581 c-20 -11 -48 -32 -64 -47 -25 -25 -28 -34 -24 -76 4 -35
12 -52 34 -72 27 -23 34 -25 94 -19 108 9 107 43 0 43 -51 0 -80 12 -80 32 0
4 24 15 54 23 97 28 129 72 86 115 -25 25 -54 25 -100 1z m70 -39 c0 -8 -69
-42 -85 -42 -4 0 0 9 9 19 16 17 27 22 69 30 4 0 7 -3 7 -7z"/>
<path d="M10745 2579 c-60 -22 -85 -50 -85 -93 0 -90 114 -135 181 -72 16 15
29 34 29 42 0 18 -30 17 -54 -1 -27 -21 -59 -19 -87 5 l-24 20 30 25 c17 14
45 33 63 41 19 10 32 24 32 35 0 24 -19 23 -85 -2z"/>
<path d="M10492 2564 c-60 -29 -78 -56 -68 -109 5 -26 14 -39 32 -45 38 -15
77 -12 103 6 21 15 25 15 32 2 13 -23 68 -43 81 -30 8 8 3 20 -16 42 -25 31
-76 130 -76 150 0 17 -33 11 -88 -16z m48 -74 c0 -28 -22 -50 -49 -50 -20 0
-11 49 11 64 32 22 38 20 38 -14z"/>
<path d="M10867 2029 c-141 -16 -408 -28 -797 -35 -298 -5 -323 -7 -435 -22
-44 -6 -114 -8 -156 -5 -42 3 -89 3 -104 -1 l-28 -7 9 -217 c13 -332 12 -393
-4 -426 -13 -28 -13 -31 7 -47 18 -15 36 -16 139 -11 64 3 167 5 227 4 250 -4
374 -3 435 4 36 4 90 6 120 5 30 -1 141 5 245 14 105 8 219 17 255 19 36 3
103 8 150 12 47 3 92 6 100 7 8 0 46 5 85 13 38 7 73 10 77 8 4 -3 16 0 27 5
19 10 19 23 15 338 -2 179 -6 329 -10 332 -3 3 -61 6 -130 8 -69 1 -132 4
-142 6 -9 2 -48 1 -85 -4z m165 -72 l136 3 8 -32 c4 -18 8 -130 10 -248 1
-118 3 -222 5 -230 8 -48 2 -52 -65 -49 -36 2 -68 0 -72 -4 -4 -4 -41 -7 -83
-7 -42 0 -103 -5 -136 -10 -33 -6 -109 -12 -170 -15 -60 -2 -144 -9 -186 -14
-94 -13 -439 -27 -534 -22 -117 6 -375 5 -457 -1 -43 -3 -78 -3 -78 0 0 2 5
22 11 43 l12 38 37 -15 c47 -19 93 -20 147 -4 38 11 45 10 73 -10 29 -21 35
-21 77 -9 26 7 61 26 80 42 31 27 33 33 33 91 0 82 -34 156 -87 189 -21 13
-44 32 -52 41 -7 9 -22 16 -33 16 -11 0 -27 4 -36 9 -24 12 -84 -15 -80 -36 2
-9 15 -25 29 -35 24 -18 29 -19 50 -5 29 18 43 13 104 -39 49 -42 58 -64 56
-134 -2 -59 -19 -80 -65 -81 -23 0 -53 -2 -68 -3 -16 -1 -28 1 -28 4 0 11 44
47 75 61 32 15 44 51 25 74 -18 22 -49 5 -92 -49 -47 -60 -89 -86 -140 -86
-57 0 -77 29 -62 88 9 30 22 28 30 -5 13 -55 46 -69 78 -34 20 22 14 61 -8 61
-39 0 -65 116 -40 173 42 93 49 102 74 100 52 -4 96 -16 112 -30 18 -16 49
-14 55 4 6 16 -36 53 -67 59 -14 3 -38 11 -53 19 -44 23 -83 19 -104 -10 -10
-14 -26 -35 -35 -47 -10 -11 -18 -31 -18 -43 0 -11 -5 -26 -12 -33 -8 -8 -12
-37 -10 -76 1 -52 -2 -67 -18 -81 -11 -10 -20 -24 -20 -32 0 -17 -19 -17 -25
0 -8 22 -14 280 -8 325 l6 43 58 -5 c33 -3 62 -7 66 -9 5 -3 64 1 133 9 69 8
254 16 413 18 158 3 291 8 297 11 5 3 103 7 218 9 115 2 218 8 227 14 10 5 30
6 44 2 14 -4 88 -5 163 -3z"/>
<path d="M10497 1903 c-3 -5 -7 -39 -11 -78 -13 -142 -14 -145 -46 -139 -15 3
-38 1 -50 -6 -19 -10 -24 -9 -37 9 -12 17 -25 21 -73 21 -52 0 -62 -3 -89 -31
-57 -56 -51 -115 15 -161 47 -33 61 -34 135 -7 76 28 66 43 -22 36 -38 -3 -71
-2 -74 3 -3 4 10 17 29 28 61 36 71 36 108 -1 23 -24 44 -36 72 -39 33 -4 43
0 70 27 l32 32 17 -24 c25 -33 42 -29 87 20 45 47 51 45 71 -27 6 -24 18 -40
30 -43 10 -3 19 -9 19 -14 0 -20 29 -7 59 26 l32 36 31 -26 c34 -28 71 -30 76
-3 2 10 -8 23 -27 32 -51 27 -49 55 7 134 26 36 26 65 0 70 -12 2 -29 -15 -54
-54 l-36 -56 -19 42 c-14 31 -23 41 -35 36 -9 -3 -18 -6 -20 -6 -12 0 -1 -40
21 -78 l25 -43 -22 -30 c-12 -16 -25 -29 -29 -29 -5 0 -18 33 -30 73 -21 71
-34 97 -49 97 -5 0 -24 -22 -44 -50 -20 -27 -40 -50 -46 -50 -5 0 -10 20 -10
45 0 33 -4 45 -15 45 -16 0 -35 -30 -35 -57 0 -10 -9 -24 -19 -30 -16 -10 -20
-9 -24 13 -2 14 1 73 8 132 7 59 10 113 7 120 -5 13 -28 16 -35 5z m-197 -243
c19 -12 15 -14 -47 -39 -38 -15 -53 -17 -53 -8 0 20 14 35 40 46 32 13 42 13
60 1z m190 -71 c0 -15 -47 -10 -64 7 -19 19 -20 31 -3 37 14 5 67 -30 67 -44z"/>
<path d="M9942 1807 c-8 -9 -8 -33 -2 -77 5 -36 10 -94 11 -130 1 -86 10 -115
34 -115 18 0 20 7 19 58 -1 68 7 69 54 6 42 -58 73 -89 87 -89 3 0 5 14 5 31
0 24 -10 40 -42 70 -24 22 -39 39 -34 39 5 0 2 7 -5 16 -12 15 -11 18 5 28 53
31 76 58 76 89 0 18 -7 40 -15 51 -24 31 -172 49 -193 23z m168 -79 c0 -13
-63 -48 -87 -48 -20 0 -23 5 -23 39 0 40 0 40 43 43 40 3 67 -11 67 -34z"/>
<path d="M10525 1138 c-33 -4 -100 -7 -150 -6 -49 0 -124 0 -165 -1 -83 -1
-359 -29 -372 -37 -5 -3 -84 -7 -176 -10 -180 -4 -269 -11 -276 -22 -2 -4 -5
-52 -7 -107 -2 -55 -6 -118 -11 -140 -4 -22 -9 -95 -10 -161 -3 -121 -3 -121
22 -132 64 -27 1304 -30 1408 -3 46 12 171 23 275 26 42 1 80 5 83 8 4 4 15 2
26 -4 26 -14 106 -1 117 20 5 9 4 46 -5 91 -7 42 -13 149 -13 243 -1 167 -8
207 -36 207 -7 0 -15 5 -17 10 -7 22 -139 31 -383 28 -137 -2 -277 -6 -310
-10z m677 -66 c6 -6 12 -88 15 -184 3 -95 11 -197 18 -225 12 -48 11 -53 -3
-54 -10 -1 -80 -3 -157 -5 -77 -1 -187 -9 -245 -18 -58 -8 -168 -16 -245 -16
-77 -1 -196 -2 -265 -2 -113 -1 -341 -1 -763 1 l-148 1 6 118 c3 64 9 164 13
221 l7 104 181 3 c99 2 193 8 208 14 15 5 31 8 35 6 6 -4 60 1 186 19 22 4
128 8 235 11 107 2 251 8 320 12 168 11 590 6 602 -6z"/>
<path d="M10709 1003 c-2 -22 -5 -53 -7 -73 -1 -11 -13 -16 -37 -16 -19 0 -38
-3 -42 -7 -15 -16 15 -42 51 -45 l36 -3 0 -70 c0 -75 11 -109 36 -109 13 0 15
14 12 90 l-3 90 37 0 c48 0 88 16 88 34 0 18 -28 27 -74 24 -45 -3 -54 6 -58
57 -2 28 -8 41 -20 43 -12 2 -19 -3 -19 -15z"/>
<path d="M9771 888 l-23 -52 -35 42 c-21 26 -43 42 -56 42 -22 0 -22 -3 -22
-147 0 -102 4 -148 12 -150 6 -2 14 0 17 6 8 12 16 83 20 158 1 29 6 56 9 60
4 3 7 0 7 -9 0 -21 35 -50 57 -46 9 2 23 14 30 28 7 14 13 23 13 20 1 -3 3
-31 6 -63 6 -71 19 -107 39 -107 18 0 19 27 5 114 -5 34 -12 82 -15 109 -9 65
-32 63 -64 -5z"/>
<path d="M9976 845 c-8 -8 -18 -24 -21 -35 -3 -11 -11 -20 -16 -20 -5 0 -9
-23 -9 -51 0 -48 2 -51 35 -65 86 -36 145 -4 145 78 0 62 -36 108 -85 108 -19
0 -40 -7 -49 -15z m82 -47 c15 -15 16 -64 2 -73 -17 -10 -68 5 -74 22 -4 10 3
26 15 40 25 26 39 29 57 11z"/>
<path d="M10156 838 c-3 -13 -6 -42 -6 -64 0 -34 5 -45 26 -59 24 -15 27 -15
52 0 15 9 37 29 49 43 l22 26 20 -46 c20 -46 45 -66 65 -49 6 5 24 11 40 13
24 3 31 10 44 50 9 29 22 50 34 54 22 7 51 -14 44 -32 -6 -15 15 -76 29 -86
25 -19 35 -7 35 43 0 56 -27 114 -59 124 -24 7 -121 -1 -131 -11 -5 -5 -10
-31 -12 -59 -4 -73 -26 -71 -63 7 -29 61 -55 86 -55 54 0 -9 -4 -16 -9 -16 -5
0 -18 -16 -30 -35 -11 -19 -28 -35 -36 -35 -14 0 -16 9 -13 48 3 42 1 47 -18
50 -15 2 -23 -4 -28 -20z"/>
<path d="M16226 3755 c-92 -49 -151 -65 -224 -59 -57 5 -82 -6 -82 -36 0 -19
58 -75 96 -92 13 -6 24 -17 24 -25 0 -7 7 -13 15 -13 8 0 15 -4 15 -10 0 -5
14 -23 30 -40 17 -17 30 -35 30 -40 0 -5 13 -23 29 -40 21 -24 35 -31 56 -28
26 3 29 8 41 67 18 86 24 91 104 80 160 -21 239 -30 295 -33 33 -3 83 -8 112
-11 60 -9 98 -1 107 20 12 31 -36 45 -185 55 -133 8 -379 37 -387 45 -2 1 2
23 9 46 22 80 27 123 18 141 -12 23 -9 23 -103 -27z"/>
<path d="M2295 3751 c-148 -56 -235 -98 -235 -114 0 -18 21 -37 42 -37 10 0
35 -21 55 -48 21 -26 52 -63 69 -82 18 -19 43 -48 56 -64 34 -41 53 -29 74 44
9 33 21 63 25 66 5 3 9 14 9 24 0 27 8 29 75 19 91 -12 464 -30 605 -29 170 1
464 17 523 28 27 5 55 16 63 24 14 14 11 16 -28 23 -60 11 -105 11 -323 1
-243 -10 -231 -10 -425 -2 -251 11 -444 26 -457 38 -8 7 -9 17 -2 34 5 14 9
45 9 70 0 55 -3 55 -135 5z"/>
<path d="M20355 3700 c-22 -4 -69 -13 -104 -19 -36 -7 -68 -14 -72 -17 -7 -4
-108 -19 -199 -29 -19 -2 -92 -7 -162 -10 -117 -6 -128 -9 -128 -26 0 -31 43
-40 164 -35 132 7 232 20 381 51 68 14 141 23 192 22 59 0 93 4 122 18 45 20
50 29 24 40 -27 11 -172 14 -218 5z"/>
<path d="M7830 3583 c-24 -3 -50 -9 -56 -14 -6 -5 -38 -14 -70 -20 -67 -12
-124 -34 -124 -46 0 -16 130 -214 177 -271 16 -18 35 -42 44 -54 21 -27 35
-18 66 46 71 147 63 137 102 130 20 -4 40 -10 46 -15 5 -5 21 -9 37 -9 15 0
37 -4 50 -10 13 -5 61 -14 108 -20 47 -5 108 -14 135 -19 28 -6 84 -12 125
-15 41 -3 96 -9 121 -14 67 -12 257 -8 270 5 13 13 -13 23 -61 25 -14 0 -43 7
-65 14 -22 8 -119 23 -215 34 -272 31 -550 83 -550 102 0 5 11 29 25 54 55 98
29 114 -165 97z"/>
<path d="M420 3512 c0 -18 18 -32 42 -32 5 0 8 10 6 23 -4 29 -48 38 -48 9z"/>
<path d="M11835 3459 c-4 -5 -17 -9 -31 -9 -14 0 -42 -9 -63 -20 -21 -10 -41
-17 -44 -13 -3 3 -41 -13 -84 -34 -43 -22 -90 -43 -105 -47 -19 -4 -28 -13
-28 -26 0 -34 40 -34 120 3 41 18 95 39 120 46 138 38 155 46 158 77 2 24 -1
30 -17 31 -11 1 -23 -2 -26 -8z"/>
<path d="M430 3440 c0 -5 9 -19 19 -29 13 -13 16 -22 9 -29 -15 -15 34 -43 73
-42 19 1 45 -2 57 -6 21 -6 23 -4 20 17 -2 20 -9 24 -35 24 -17 0 -35 3 -39 8
-4 4 -16 7 -26 7 -12 0 -23 11 -29 30 -10 28 -49 44 -49 20z"/>
<path d="M3214 3291 c-23 -10 -45 -25 -50 -32 -4 -7 -9 -65 -10 -129 -1 -63
-6 -146 -11 -183 -9 -69 -1 -95 24 -79 12 7 33 136 33 201 0 36 3 39 49 59 54
22 78 51 91 108 17 72 -37 95 -126 55z m84 -50 c9 -60 -78 -103 -92 -46 -8 33
-1 44 38 61 39 17 50 13 54 -15z"/>
<path d="M2635 3272 c-64 -39 -68 -76 -14 -133 25 -27 34 -31 64 -26 26 4 35
2 35 -8 0 -19 -73 -30 -100 -15 -18 10 -25 9 -37 -3 -13 -13 -13 -17 7 -37 19
-19 29 -21 69 -16 37 5 54 14 84 46 38 40 43 55 28 78 -6 11 -17 11 -45 3 -46
-12 -82 -1 -91 29 -10 32 7 43 75 48 55 4 60 6 60 28 0 22 -4 24 -52 24 -34 0
-64 -7 -83 -18z"/>
<path d="M3004 3252 c-6 -4 -24 -35 -39 -70 -25 -56 -31 -63 -53 -60 -19 2
-28 11 -34 33 -4 17 -3 34 2 39 13 13 13 43 -1 52 -6 3 -18 0 -26 -8 -18 -19
-22 -143 -5 -160 7 -7 34 -11 60 -10 37 1 51 7 67 27 26 32 31 31 39 -2 8 -39
32 -67 51 -60 19 8 19 46 0 71 -7 10 -17 42 -21 72 -7 58 -23 88 -40 76z"/>
<path d="M3434 3116 c-18 -14 -18 -16 -2 -32 22 -22 48 -11 48 21 0 28 -17 32
-46 11z"/>
</g>
</svg>
