<?xml version="1.0" standalone="no"?>
<!DOCTYPE svg PUBLIC "-//W3C//DTD SVG 20010904//EN"
 "http://www.w3.org/TR/2001/REC-SVG-20010904/DTD/svg10.dtd">
<svg version="1.0" xmlns="http://www.w3.org/2000/svg"
 width="744.064710pt" height="400.000000pt" viewBox="0 0 744.064710 400.000000"
 preserveAspectRatio="xMidYMid meet">
<metadata>
Created by potrace 1.15, written by Peter Selinger 2001-2017
</metadata>
<g transform="translate(-20.817212,411.937179) scale(0.032184,-0.032184)"
fill="#444444" stroke="none">
<path d="M4624 12792 c-25 -18 -67 -144 -79 -240 -6 -45 -10 -52 -24 -46 -28
13 -111 11 -111 -3 0 -7 -6 -13 -13 -13 -8 0 -24 -11 -37 -25 -28 -30 -24 -84
11 -138 35 -53 79 -71 144 -57 87 18 91 24 87 132 -4 106 9 191 45 296 14 40
22 79 19 87 -6 16 -24 19 -42 7z m-116 -374 c38 -62 37 -75 -4 -81 -45 -7 -69
4 -89 43 -19 38 -20 37 13 54 41 23 58 19 80 -16z"/>
<path d="M5563 12608 c-6 -7 -13 -35 -17 -63 -9 -72 -41 -193 -64 -246 -31
-72 -32 -124 -2 -132 27 -7 36 7 70 118 53 173 71 326 39 333 -9 1 -20 -3 -26
-10z"/>
<path d="M3803 12535 c-19 -8 -37 -26 -44 -42 -6 -15 -19 -45 -29 -66 -19 -38
-19 -40 0 -76 23 -45 71 -83 126 -99 34 -10 49 -9 84 3 51 18 70 32 70 52 0
12 -13 13 -67 8 -132 -12 -176 27 -73 64 90 33 112 89 57 149 -24 26 -74 29
-124 7z m96 -59 c10 -12 3 -18 -41 -34 -45 -17 -54 -18 -56 -5 -9 39 70 71 97
39z"/>
<path d="M4118 12507 c-26 -18 -38 -21 -51 -13 -29 19 -48 -11 -37 -60 5 -23
8 -68 6 -100 -4 -62 5 -84 34 -84 15 0 19 13 24 79 7 82 24 109 83 140 32 16
53 -18 53 -86 0 -61 17 -105 39 -101 21 4 27 111 10 154 -7 16 -13 36 -15 44
-5 25 -44 50 -79 50 -18 0 -48 -10 -67 -23z"/>
<path d="M3525 12472 c-15 -14 -31 -38 -37 -53 -12 -34 -24 -37 -33 -8 -4 12
-13 19 -23 17 -14 -3 -17 -15 -14 -73 4 -102 20 -163 44 -171 11 -3 22 -4 25
-1 2 3 8 35 13 72 4 36 20 90 34 119 28 57 45 66 122 66 43 0 45 24 5 45 -44
22 -104 17 -136 -13z"/>
<path d="M4795 12461 c-66 -31 -81 -45 -105 -100 -35 -78 24 -202 101 -213 45
-7 169 41 169 65 0 17 -48 25 -97 15 -65 -13 -96 -5 -111 27 -17 37 -16 38 24
32 29 -5 50 1 104 28 37 18 75 45 84 60 17 26 17 26 -27 71 -24 24 -53 44 -63
43 -11 0 -46 -13 -79 -28z m96 -41 c10 -6 19 -14 19 -18 0 -10 -51 -28 -102
-37 -45 -7 -49 5 -10 31 23 16 36 22 70 33 2 1 12 -4 23 -9z"/>
<path d="M5145 12408 c-11 -6 -30 -20 -42 -30 -16 -15 -29 -18 -51 -13 -17 3
-32 3 -35 -2 -3 -4 -8 -60 -12 -124 -6 -102 -5 -117 10 -133 29 -29 40 -13 45
66 5 63 11 82 34 113 41 53 82 68 139 51 24 -7 65 -27 90 -45 51 -35 67 -38
67 -14 0 20 -73 89 -120 113 -46 23 -101 31 -125 18z"/>
<path d="M3189 12285 c-48 -32 -74 -72 -58 -91 18 -21 47 -17 88 14 20 15 48
34 64 41 32 17 35 36 8 51 -30 16 -63 11 -102 -15z"/>
<path d="M2926 12183 c-27 -41 -30 -58 -28 -140 2 -51 3 -53 40 -69 54 -23
134 -38 163 -31 58 15 99 83 67 115 -16 16 -44 -2 -52 -33 -5 -21 -12 -25 -45
-25 -23 0 -46 7 -55 16 -15 14 -12 21 30 71 37 46 44 61 39 82 -11 43 -24 51
-81 51 -51 0 -55 -2 -78 -37z m104 -34 c0 -11 -63 -69 -70 -64 -15 9 3 67 24
74 23 9 46 4 46 -10z"/>
<path d="M4060 12175 c-41 -8 -97 -18 -125 -24 -27 -5 -80 -10 -117 -10 -42
-1 -86 -8 -118 -21 -28 -11 -58 -20 -68 -20 -22 0 -153 -49 -172 -65 -8 -7
-33 -18 -55 -25 -22 -7 -44 -16 -50 -20 -5 -4 -46 -27 -90 -50 -44 -23 -96
-59 -115 -79 -20 -20 -56 -52 -80 -72 -25 -20 -65 -63 -90 -95 -24 -32 -52
-67 -62 -77 -10 -10 -25 -32 -34 -50 -9 -17 -41 -69 -70 -114 -100 -153 -179
-350 -214 -531 -11 -58 -13 -181 -5 -347 8 -194 66 -453 131 -593 19 -40 117
-187 147 -219 25 -28 57 -30 57 -4 0 10 -33 71 -74 135 -142 222 -204 475
-205 841 -1 207 79 476 189 640 15 22 42 65 60 96 18 31 57 88 87 125 53 67
166 184 178 184 3 0 47 28 97 61 50 34 111 70 137 81 25 11 60 25 76 33 133
57 219 80 335 90 41 4 100 13 130 21 105 27 448 50 498 32 12 -4 71 -17 130
-29 105 -20 165 -37 352 -99 321 -106 375 -133 502 -244 116 -101 158 -153
280 -341 79 -121 124 -243 135 -365 6 -74 30 -133 55 -138 22 -4 34 73 20 131
-6 23 -13 56 -15 72 -17 114 -79 274 -136 345 -15 19 -34 46 -41 60 -29 57
-143 199 -206 258 -76 70 -203 158 -285 196 -122 56 -338 135 -389 142 -30 4
-57 8 -60 9 -3 0 -32 11 -65 24 -33 12 -114 33 -180 47 -139 27 -346 31 -475
9z"/>
<path d="M2728 12038 c-19 -18 -48 -56 -64 -85 -25 -45 -32 -51 -54 -47 -18 4
-28 0 -37 -15 -11 -17 -8 -23 25 -49 20 -16 44 -33 54 -38 9 -5 33 -24 53 -42
85 -78 114 -34 45 68 -22 32 -40 63 -39 67 0 4 16 28 34 53 19 25 42 58 50 73
31 55 -12 64 -67 15z"/>
<path d="M5395 12041 c-18 -21 -15 -62 7 -88 25 -30 78 -2 78 41 0 50 -54 80
-85 47z"/>
<path d="M4495 11473 c-85 -45 -118 -68 -178 -127 -32 -31 -62 -56 -68 -56 -5
0 -46 29 -91 64 -46 35 -112 78 -148 96 -56 28 -71 32 -118 27 -29 -3 -64 -13
-77 -21 -14 -9 -31 -16 -39 -16 -8 0 -39 -24 -69 -52 -48 -47 -56 -59 -61
-103 -7 -54 5 -158 29 -251 8 -32 15 -62 15 -66 0 -4 -17 -10 -37 -14 -62 -11
-107 -33 -128 -61 -11 -14 -37 -44 -58 -66 -46 -48 -57 -74 -57 -132 0 -40 4
-47 67 -105 74 -69 116 -92 218 -115 37 -9 85 -25 106 -36 37 -18 38 -20 27
-51 -6 -18 -22 -52 -35 -75 -13 -24 -21 -43 -18 -43 11 0 -45 -99 -70 -124
-25 -25 -33 -60 -16 -70 5 -4 6 -18 2 -32 -4 -14 -2 -55 4 -90 10 -61 12 -65
65 -105 54 -40 56 -41 115 -35 33 3 83 17 110 31 69 33 169 118 240 203 33 39
63 70 67 69 4 -1 40 -40 81 -87 60 -70 82 -89 128 -107 50 -20 63 -21 125 -12
93 13 136 35 132 67 -4 36 -32 51 -55 30 -10 -9 -47 -22 -82 -29 -61 -13 -65
-13 -110 12 -31 18 -67 53 -113 112 l-66 87 33 56 c71 118 63 113 213 124 84
6 143 15 163 26 17 8 32 14 34 12 11 -12 19 -257 11 -337 -12 -123 -12 -271
-2 -551 6 -160 5 -246 -3 -299 -9 -60 -9 -77 1 -87 9 -9 63 -15 173 -19 88 -3
216 -12 285 -21 148 -19 219 -21 565 -11 143 4 316 3 385 -2 160 -11 157 -13
141 106 -6 49 -11 130 -11 179 0 49 -4 136 -10 194 -12 132 -13 262 -6 727 3
216 2 382 -3 396 -9 22 -19 25 -103 37 -112 15 -272 25 -388 25 -47 0 -229 -2
-404 -4 -283 -2 -320 -1 -328 13 -15 27 -44 18 -71 -21 -53 -78 -139 -159 -92
-87 65 100 -15 311 -130 342 -40 11 -45 15 -45 41 0 16 7 48 16 72 12 30 17
78 18 154 l1 110 -38 37 c-57 56 -127 98 -161 98 -17 0 -54 -12 -81 -27z m159
-84 c25 -17 51 -39 56 -49 18 -33 12 -142 -10 -184 -10 -21 -20 -58 -21 -83
-3 -47 -20 -70 -41 -56 -7 4 -56 10 -108 13 l-95 5 -52 70 c-29 39 -58 83 -64
98 -11 27 -9 31 47 89 59 60 173 127 220 128 11 0 42 -14 68 -31z m-644 -14
c14 -7 37 -24 52 -36 15 -13 48 -40 72 -59 25 -19 47 -40 50 -47 4 -11 -20
-51 -100 -163 -31 -44 -39 -46 -165 -60 -57 -6 -112 -16 -123 -22 -38 -20 -67
47 -86 199 -8 65 -7 80 8 106 32 58 90 93 177 109 23 5 79 -9 115 -27z m316
-304 c8 -18 14 -35 14 -37 0 -8 -156 -3 -169 5 -11 7 -7 18 18 54 45 66 60 72
94 39 16 -15 35 -42 43 -61z m59 -125 c27 -9 165 -209 165 -239 0 -5 -26 -49
-57 -96 -68 -101 -93 -146 -93 -165 0 -23 -122 -26 -210 -4 -64 16 -82 26
-123 66 -27 26 -62 64 -79 84 l-29 38 36 105 c40 114 91 212 114 217 27 6 256
1 276 -6z m208 -11 c37 -5 47 -10 47 -25 0 -10 -4 -22 -10 -25 -5 -3 -10 -14
-10 -23 -1 -9 -7 -30 -14 -47 l-12 -30 -51 77 c-28 43 -49 79 -47 81 3 2 14 3
27 1 12 -2 43 -6 70 -9z m-598 -5 c3 -5 -8 -39 -25 -76 -16 -36 -33 -83 -36
-105 -11 -69 -14 -66 -103 94 -12 21 -21 46 -21 57 0 19 20 25 125 33 22 2 43
4 47 5 4 1 10 -2 13 -8z m771 -25 c46 -22 91 -76 103 -122 12 -42 6 -119 -11
-139 -4 -6 -6 -18 -3 -26 8 -20 -13 -35 -64 -47 -50 -11 -54 -8 -117 86 l-34
52 21 68 c11 37 25 85 31 106 12 41 27 46 74 22z m-969 -142 c30 -65 64 -130
75 -145 19 -27 19 -28 -1 -72 -21 -49 -22 -49 -106 -16 -16 6 -48 15 -70 20
-101 21 -191 75 -220 130 -11 21 -10 30 5 60 10 19 39 55 64 79 46 45 79 57
159 60 l38 1 56 -117z m2298 -104 c33 -6 79 -15 103 -21 l42 -11 2 -71 c0 -39
1 -78 0 -86 -7 -117 -9 -804 -2 -890 14 -186 22 -442 13 -437 -28 17 -234 21
-653 14 -242 -5 -315 -1 -490 24 -41 6 -115 12 -163 13 -48 1 -89 5 -92 8 -5
5 -19 545 -18 718 0 47 5 123 11 170 11 80 4 234 -14 338 -4 17 -3 32 1 32 3
0 38 -21 77 -47 150 -101 238 -144 225 -109 -3 7 -1 18 5 24 7 7 0 38 -21 97
-30 86 -39 168 -25 223 l6 22 354 -2 c195 -1 357 2 361 5 8 9 202 -1 278 -14z
m-1057 -96 c0 -43 5 -91 11 -106 13 -34 14 -57 2 -57 -11 0 -106 65 -155 106
l-38 32 57 26 c31 15 66 38 77 52 37 42 46 32 46 -53z m-368 -13 c34 -41 70
-80 79 -86 13 -10 3 -13 -54 -13 -38 0 -85 -5 -103 -10 -39 -12 -102 -3 -102
14 0 17 50 105 59 105 4 0 15 16 24 36 10 19 21 34 26 32 5 -2 37 -37 71 -78z
m-680 -68 c0 -10 -7 -13 -22 -8 -13 3 -26 6 -29 6 -14 0 -19 33 -8 47 10 11
16 10 36 -8 12 -13 23 -29 23 -37z m51 -88 c43 -5 50 -10 98 -72 28 -37 62
-81 77 -99 18 -22 24 -38 19 -53 -4 -12 -49 -64 -100 -116 -80 -79 -107 -100
-179 -134 -109 -51 -146 -52 -182 -5 -23 31 -26 44 -26 105 1 73 16 115 77
215 13 22 34 71 47 108 l22 68 51 -6 c27 -3 71 -8 96 -11z m226 -35 c27 -7 53
-13 60 -15 16 -4 -25 -84 -44 -84 -7 0 -13 4 -13 9 0 4 -18 29 -41 55 -44 50
-41 54 38 35z"/>
<path d="M4210 10837 c-57 -26 -75 -47 -86 -98 -10 -45 -9 -53 10 -82 31 -46
89 -72 159 -71 81 2 100 21 105 110 5 78 -6 103 -58 133 -41 23 -91 26 -130 8z"/>
<path d="M5923 10535 c-3 -9 -2 -30 2 -48 4 -18 9 -51 11 -74 l4 -42 -57 -3
c-49 -3 -59 -6 -68 -26 -8 -18 -15 -22 -35 -16 -14 4 -44 8 -67 10 -52 3 -87
-25 -103 -86 -24 -91 10 -141 99 -147 59 -4 111 19 134 58 23 41 22 74 -5 117
-21 34 -21 35 -2 28 10 -4 40 -12 66 -17 42 -9 48 -14 53 -42 3 -18 4 -61 3
-95 -3 -57 0 -66 19 -79 21 -14 23 -14 33 12 5 14 10 64 10 109 0 94 1 96 87
96 23 0 49 3 58 6 14 6 14 8 -1 25 -13 14 -31 19 -69 19 -73 0 -85 12 -101
106 -9 50 -20 84 -31 92 -22 16 -32 15 -40 -3z m-135 -273 c23 -29 15 -70 -18
-87 -59 -31 -100 -15 -100 40 0 33 15 59 40 68 23 8 63 -3 78 -21z"/>
<path d="M5253 10509 c-14 -14 -6 -388 9 -406 15 -18 35 -16 40 5 3 9 6 71 7
137 1 66 4 121 6 123 3 3 51 -69 118 -175 15 -24 34 -43 43 -43 28 0 46 69 53
203 3 71 3 134 -1 142 -9 15 -47 9 -50 -9 -1 -6 -2 -54 -2 -108 -1 -53 -4
-100 -9 -104 -10 -10 -17 -1 -152 209 -23 35 -44 44 -62 26z"/>
<path d="M5654 9906 c-3 -8 -1 -23 5 -33 5 -11 13 -42 17 -70 l6 -50 -36 -7
c-20 -4 -42 -17 -51 -29 -14 -20 -14 -23 2 -34 9 -7 34 -13 55 -13 l39 0 -7
-90 c-6 -82 -5 -92 12 -105 10 -8 22 -15 26 -15 11 0 27 62 34 138 6 67 8 72
30 72 39 0 28 41 -16 63 -18 9 -28 28 -40 77 -18 74 -24 86 -51 100 -15 8 -21
7 -25 -4z"/>
<path d="M4936 9836 c-57 -18 -63 -33 -42 -102 30 -100 47 -206 35 -220 -18
-21 -1 -50 40 -68 47 -22 138 -14 189 15 41 23 51 24 67 2 24 -32 37 -5 30 63
-9 84 -2 108 41 134 24 16 32 26 25 33 -12 12 -64 12 -88 -1 -11 -7 -23 -6
-34 1 -24 15 -49 1 -49 -28 0 -25 -1 -25 -29 -10 -41 21 -46 33 -19 44 67 26
77 94 18 123 -47 23 -136 30 -184 14z m151 -62 c5 -15 -62 -44 -103 -44 -56 0
-57 54 -1 62 35 5 100 -6 104 -18z m-40 -135 c112 -63 139 -100 86 -119 -16
-6 -36 -15 -45 -20 -10 -6 -35 -10 -57 -10 l-39 0 -5 58 c-3 31 -9 69 -13 85
-5 23 -3 27 15 27 11 0 37 -10 58 -21z"/>
<path d="M6035 9696 c-17 -17 -23 -31 -18 -43 12 -32 66 -93 101 -115 31 -19
33 -22 16 -31 -11 -6 -21 -13 -24 -16 -6 -7 -78 -41 -86 -41 -11 0 -52 107
-59 150 -17 122 -60 136 -79 27 -9 -48 -27 -88 -37 -82 -4 3 -10 28 -14 55 -8
55 -18 68 -40 50 -10 -8 -15 -32 -15 -70 0 -48 5 -64 26 -89 14 -17 30 -31 35
-31 5 0 25 17 44 37 19 20 36 35 38 32 1 -2 7 -17 13 -34 5 -17 22 -36 39 -45
16 -8 36 -23 43 -32 17 -23 28 -23 97 4 101 38 123 108 46 148 -22 11 -49 32
-61 47 l-22 28 46 9 c30 6 48 15 51 28 10 30 -3 38 -61 38 -45 0 -59 -4 -79
-24z"/>
<path d="M5480 9668 c-11 -24 -20 -52 -20 -62 0 -26 -22 -86 -31 -86 -15 0
-29 69 -23 108 5 33 3 43 -10 48 -32 12 -46 -14 -46 -91 0 -63 3 -76 25 -99
14 -15 35 -26 50 -26 27 0 65 31 65 53 0 7 6 22 14 32 13 17 14 16 31 -18 9
-20 28 -43 42 -52 22 -15 27 -15 40 -2 13 13 13 18 -6 43 -11 16 -30 56 -41
88 -23 67 -45 106 -61 106 -5 0 -19 -19 -29 -42z"/>
<path d="M1415 9565 l-30 -15 3 -107 c3 -73 10 -120 22 -149 10 -23 16 -44 13
-47 -2 -3 2 -48 11 -99 16 -91 25 -516 12 -537 -3 -4 -12 -165 -21 -357 -8
-192 -18 -365 -21 -384 -4 -19 -6 -65 -5 -102 2 -55 -2 -73 -23 -106 -13 -21
-26 -52 -29 -68 -5 -32 -30 -83 -96 -201 -25 -43 -50 -89 -57 -102 -7 -13 -26
-40 -42 -60 -53 -63 -202 -260 -202 -267 0 -8 -61 -97 -75 -109 -6 -5 -28 -35
-47 -65 -40 -60 -125 -155 -147 -161 -10 -4 -14 -37 -17 -139 -2 -74 -6 -162
-10 -195 -12 -113 -11 -119 16 -132 18 -8 45 -9 95 -3 39 4 117 7 175 5 341
-11 396 -13 410 -19 8 -3 35 -8 60 -10 25 -2 97 -11 160 -20 63 -8 171 -20
240 -25 69 -6 152 -14 185 -20 33 -5 105 -12 160 -15 145 -9 306 -25 413 -42
72 -11 115 -12 195 -5 56 6 145 13 197 16 52 3 129 7 170 10 41 3 111 6 155 5
776 -4 1154 -8 1162 -13 5 -3 39 -3 74 1 l64 7 12 60 c7 38 9 76 3 105 -5 25
-10 87 -11 139 -3 80 -1 95 15 106 11 9 15 19 10 27 -5 7 -7 24 -6 38 2 17 -7
35 -27 55 -17 16 -31 36 -31 45 0 9 -4 20 -9 26 -13 12 -81 146 -81 158 0 5
-11 23 -24 40 -13 17 -33 50 -45 74 -12 24 -28 45 -36 49 -8 3 -15 16 -15 28
0 13 -12 38 -27 55 -14 17 -39 58 -54 90 -15 32 -42 80 -61 108 -18 27 -41 62
-50 78 -29 48 -41 66 -91 134 l-48 65 4 75 c3 41 10 98 16 125 35 152 42 299
20 425 -34 197 -35 389 -3 527 26 114 31 168 41 483 7 224 1 265 -43 299 -26
20 -36 21 -474 24 -173 2 -187 3 -216 24 -28 20 -44 22 -175 24 -79 1 -208 1
-287 0 -78 -1 -172 3 -208 9 -37 6 -199 10 -363 10 -163 -1 -352 4 -421 10
-397 35 -442 36 -485 15z m370 -90 c39 -2 140 -9 225 -16 85 -7 189 -12 230
-12 181 3 252 3 360 -2 63 -3 233 -6 378 -8 257 -4 263 -4 278 -26 14 -20 23
-21 102 -20 48 1 107 -1 130 -5 27 -5 60 -4 86 4 30 8 91 9 230 2 167 -8 191
-12 203 -28 11 -15 13 -52 8 -169 -9 -279 -16 -380 -30 -435 -40 -163 -45
-433 -10 -590 24 -110 20 -292 -9 -420 -8 -36 -20 -99 -27 -141 l-13 -77 -45
13 c-25 7 -91 18 -146 25 -55 6 -128 16 -163 21 -34 5 -102 7 -150 3 -50 -3
-163 0 -267 9 -99 8 -191 15 -205 15 -26 1 -211 18 -290 27 -48 5 -394 6 -470
1 -162 -10 -710 0 -724 14 -2 3 2 84 10 180 8 96 19 288 24 425 6 138 14 280
18 318 9 75 7 404 -3 512 -4 39 -15 110 -26 158 -11 49 -22 122 -26 163 l-6
75 129 -6 c71 -4 161 -8 199 -10z m-220 -1921 c63 -4 95 -3 99 5 5 8 13 8 26
1 34 -18 215 -25 420 -16 309 15 606 15 690 1 47 -8 147 -16 223 -19 76 -3
142 -8 146 -10 6 -4 193 -7 261 -4 58 2 255 -11 298 -21 26 -5 88 -18 137 -27
72 -14 95 -23 115 -44 47 -50 108 -135 134 -185 14 -27 39 -68 56 -90 16 -22
37 -56 45 -75 29 -66 78 -155 126 -226 27 -40 71 -118 99 -175 28 -57 56 -112
61 -122 6 -11 8 -21 5 -24 -3 -3 -36 2 -73 10 -133 32 -280 50 -418 53 -77 2
-151 6 -165 10 -26 6 -325 5 -420 -2 -191 -15 -717 -20 -930 -9 -80 4 -239 3
-355 -3 -207 -10 -673 4 -780 22 -29 5 -273 8 -305 4 -28 -4 -237 14 -249 21
-8 5 -1 21 21 51 18 23 40 52 48 64 8 12 35 48 60 81 25 33 56 76 68 96 12 20
75 106 140 192 95 124 133 184 193 306 73 148 74 150 103 146 16 -3 71 -8 121
-11z m-535 -1025 c140 -1 287 -6 325 -11 39 -6 79 -10 90 -10 11 0 67 -5 125
-10 120 -12 574 -12 706 1 49 4 152 5 229 1 172 -8 781 -3 965 9 74 5 167 7
205 6 321 -11 440 -18 500 -30 39 -8 102 -17 140 -20 96 -8 183 -25 194 -39 5
-6 11 -47 14 -91 4 -44 9 -112 13 -152 7 -72 7 -72 -20 -79 -14 -3 -41 -3 -59
0 -28 5 -692 21 -767 18 -14 0 -72 0 -130 0 -266 2 -468 -3 -620 -14 -222 -16
-287 -16 -475 4 -88 9 -167 16 -175 16 -8 0 -49 5 -90 11 -41 6 -103 11 -137
11 -34 0 -73 4 -86 9 -30 12 -181 29 -317 36 -58 3 -139 12 -180 21 -41 8
-111 17 -155 19 -44 3 -136 9 -205 13 -130 10 -137 9 -262 -3 -43 -4 -89 -4
-103 -1 -25 6 -25 7 -25 114 0 140 7 184 29 177 9 -2 131 -5 271 -6z"/>
<path d="M1917 9353 c-1 -1 -34 -2 -72 -3 -86 -2 -215 -29 -222 -46 -2 -7 1
-77 7 -156 13 -160 13 -162 5 -238 -3 -30 -7 -86 -10 -125 -2 -38 -7 -92 -10
-120 -7 -69 -13 -478 -7 -489 9 -17 8 -56 -2 -56 -5 0 -6 -22 -3 -50 4 -32 2
-50 -5 -50 -5 0 -8 -6 -5 -14 3 -7 2 -17 -3 -22 -5 -5 -16 -56 -24 -114 l-16
-105 23 -17 c12 -9 45 -20 72 -23 83 -10 346 -11 410 -1 65 11 132 11 270 3
50 -3 209 -8 354 -11 186 -4 268 -9 278 -18 9 -7 47 -13 87 -15 325 -12 391
-15 398 -19 7 -5 163 22 176 30 4 2 48 5 97 7 50 2 95 7 101 11 8 6 12 66 12
191 0 100 5 203 11 230 6 27 8 77 5 117 -4 44 -3 74 4 82 6 7 13 65 17 128 4
63 9 124 12 134 3 11 7 42 8 70 2 28 8 87 14 131 11 81 16 368 7 384 -3 4 -7
31 -10 60 -5 50 -21 85 -35 77 -4 -3 -80 2 -169 10 -189 16 -514 21 -867 11
-150 -4 -282 -2 -330 4 -64 8 -572 19 -578 12z m548 -82 c83 -5 164 -9 180 -9
17 0 111 0 210 -1 99 -1 214 2 255 7 82 10 457 -2 578 -18 40 -6 88 -10 107
-10 29 0 36 -4 42 -27 11 -43 7 -435 -6 -490 -12 -53 -19 -132 -26 -266 -2
-48 -7 -93 -11 -99 -4 -6 -9 -64 -10 -127 -1 -64 -5 -134 -9 -156 -3 -22 -6
-89 -6 -150 -1 -60 -3 -117 -5 -126 -3 -12 -22 -19 -72 -24 -37 -4 -97 -13
-133 -20 -92 -19 -531 -6 -599 18 -15 6 -620 21 -785 20 -49 0 -160 -3 -245
-6 -104 -3 -159 -2 -168 6 -7 6 -40 10 -72 9 -63 -2 -75 8 -64 52 20 82 35
287 38 546 3 162 8 333 13 380 9 94 11 356 3 435 l-5 50 55 11 c61 13 479 10
735 -5z"/>
<path d="M1893 9098 c-6 -8 -9 -85 -8 -196 2 -175 3 -183 23 -198 12 -8 26
-13 31 -10 4 3 9 51 10 108 1 93 8 130 18 102 6 -16 89 -146 113 -176 47 -61
56 -33 67 209 5 129 4 143 -11 149 -33 13 -44 -16 -49 -131 -2 -60 -8 -110
-13 -110 -5 0 -38 58 -74 130 -63 126 -85 151 -107 123z"/>
<path d="M2654 9088 c-5 -7 -8 -42 -8 -78 l-1 -65 -58 -5 c-53 -5 -76 -18 -77
-42 0 -12 37 -28 67 -28 15 0 38 -3 51 -7 23 -6 23 -8 17 -88 -7 -80 -7 -82
18 -98 35 -22 40 -12 45 91 5 92 5 92 74 97 67 4 68 4 68 19 0 22 -26 38 -77
47 -26 5 -50 14 -54 21 -4 6 -7 33 -7 60 -1 27 -4 58 -7 68 -7 22 -40 27 -51
8z"/>
<path d="M2332 8910 c-17 -4 -42 -20 -55 -36 -12 -15 -27 -35 -34 -43 -7 -9
-13 -34 -13 -57 0 -31 6 -46 28 -68 56 -53 131 -55 211 -5 33 20 34 21 28 78
-5 65 -19 92 -56 113 -36 21 -71 27 -109 18z m112 -82 c22 -35 10 -73 -28 -86
-46 -17 -80 -15 -105 6 -20 15 -21 21 -10 50 13 37 36 50 91 51 28 1 41 -5 52
-21z"/>
<path d="M2796 8412 c-6 -18 2 -130 10 -143 6 -11 -25 -20 -49 -14 -12 3 -31
-1 -42 -9 -19 -14 -19 -15 -1 -35 10 -11 34 -23 52 -27 19 -3 36 -10 39 -14 5
-8 14 -117 15 -171 0 -31 26 -45 48 -27 12 10 13 29 8 104 l-6 91 52 14 c81
22 71 66 -13 61 -37 -3 -48 15 -55 89 -4 35 -11 72 -16 82 -11 22 -35 22 -42
-1z"/>
<path d="M1897 8400 c-26 -8 -54 -23 -64 -32 -16 -16 -16 -18 1 -37 16 -18 28
-111 30 -251 1 -25 7 -49 14 -53 9 -6 7 -13 -10 -27 -22 -18 -22 -19 -4 -38
10 -12 40 -26 68 -31 74 -16 118 0 179 67 41 45 49 60 49 93 0 48 -24 76 -99
113 -28 15 -51 28 -51 31 0 2 13 11 30 20 38 19 63 66 54 101 -5 19 -20 32
-50 45 -48 22 -81 22 -147 -1z m141 -55 c1 -1 -2 -13 -8 -26 -12 -27 -96 -67
-110 -53 -4 5 -11 23 -14 39 -6 27 -3 32 21 42 23 9 99 7 111 -2z m22 -195
c37 -15 45 -22 42 -42 -6 -53 -67 -100 -146 -111 l-38 -6 6 31 c3 17 6 57 6
89 l0 59 43 -1 c23 0 62 -8 87 -19z"/>
<path d="M2251 8195 c-25 -25 -52 -50 -60 -55 -13 -7 -12 -17 3 -72 10 -35 20
-69 22 -75 2 -7 15 -13 30 -13 26 0 26 1 20 50 -5 36 -2 58 8 79 19 36 62 71
87 71 24 0 24 22 1 43 -31 28 -61 20 -111 -28z"/>
<path d="M3394 8199 c-49 -39 -58 -54 -44 -78 21 -41 74 -71 123 -71 25 0 48
-4 52 -10 8 -13 -43 -38 -104 -51 -62 -13 -82 -33 -55 -54 56 -40 155 -21 203
41 16 21 20 37 16 73 -5 57 -26 74 -81 67 -90 -12 -114 22 -34 49 47 16 78 44
63 59 -3 3 -27 6 -53 6 -38 0 -55 -6 -86 -31z"/>
<path d="M3182 8193 c-6 -16 -16 -53 -22 -83 -14 -64 -46 -106 -67 -89 -9 8
-13 36 -13 88 0 87 -11 115 -34 91 -8 -8 -17 -26 -19 -40 -2 -14 -7 -33 -12
-43 -11 -27 1 -97 23 -126 26 -36 65 -48 97 -31 14 7 25 18 25 23 0 5 10 25
21 44 l22 35 30 -56 c20 -37 36 -56 48 -56 24 0 24 3 -1 68 -11 29 -20 71 -20
93 0 86 -55 143 -78 82z"/>
<path d="M2437 8183 c-4 -3 -7 -24 -7 -45 0 -22 -5 -48 -10 -58 -21 -40 37
-119 89 -120 13 0 41 14 62 31 41 33 59 31 59 -5 0 -28 44 -71 64 -63 20 8 20
15 2 58 -8 19 -20 69 -26 111 -15 89 -30 110 -60 83 -11 -10 -25 -35 -30 -57
-12 -42 -56 -90 -80 -86 -11 2 -16 19 -18 58 -1 30 -4 65 -7 78 -5 21 -24 29
-38 15z"/>
<path d="M1485 7406 c-14 -18 -25 -38 -25 -43 0 -6 -7 -16 -15 -23 -8 -7 -15
-22 -15 -34 0 -12 -8 -26 -19 -33 -22 -14 -81 -99 -81 -117 0 -7 -14 -33 -31
-59 -17 -26 -28 -50 -26 -55 3 -4 -7 -22 -21 -39 -15 -17 -34 -41 -42 -53 -8
-13 -50 -66 -93 -118 -72 -86 -78 -96 -63 -110 12 -12 22 -14 43 -6 22 7 31 6
46 -9 17 -17 31 -19 151 -14 72 3 167 1 211 -3 121 -13 238 -14 480 -5 121 4
227 8 235 7 72 -6 343 -14 415 -13 50 1 151 -6 225 -15 85 -10 165 -14 215
-10 44 4 125 9 180 11 55 3 118 9 139 14 47 11 290 6 362 -8 161 -31 406 -48
523 -37 35 4 47 42 24 75 -10 15 -27 45 -38 68 -11 24 -23 43 -26 43 -4 0 -9
10 -13 23 -3 13 -17 40 -30 60 -14 20 -30 54 -37 76 -7 22 -21 50 -32 62 -11
12 -35 52 -53 89 -18 37 -37 71 -44 75 -6 4 -16 17 -21 28 -6 12 -20 38 -32
58 -12 20 -35 60 -51 88 -28 48 -37 56 -61 51 -5 -1 -35 -2 -65 -2 -711 8
-1114 5 -1190 -7 -106 -16 -320 -17 -600 -3 -118 6 -279 14 -357 17 l-142 5
-26 -34z m255 -52 c47 -3 112 -7 145 -9 33 -1 125 -6 205 -11 226 -13 392 -11
550 9 182 23 447 24 470 2 10 -11 11 -15 2 -15 -12 0 -11 -52 3 -162 2 -16 -1
-30 -6 -34 -5 -3 -52 0 -104 7 -92 12 -95 13 -96 38 -1 24 -5 63 -10 104 -2
12 -9 17 -23 15 -25 -4 -34 -42 -14 -65 10 -13 10 -17 1 -20 -7 -3 -13 -18
-13 -34 0 -25 -4 -29 -27 -31 -65 -3 -149 5 -155 16 -4 6 -8 35 -8 64 0 58
-13 92 -35 92 -20 0 -37 -61 -29 -110 4 -26 3 -45 -4 -49 -5 -3 -45 -4 -88 -1
l-79 5 -5 47 c-7 55 -15 66 -38 52 -11 -7 -19 -29 -22 -60 l-5 -49 -85 -3
c-106 -3 -123 6 -111 61 11 48 4 77 -20 77 -22 0 -34 -21 -44 -79 l-7 -43 -59
4 c-76 5 -90 18 -66 59 9 17 17 37 17 45 0 36 -65 -2 -86 -51 -15 -36 -40 -45
-130 -45 -47 0 -54 3 -54 19 0 11 5 23 11 26 6 4 8 14 4 23 -3 8 0 19 6 23 17
10 3 39 -19 39 -21 0 -47 -42 -56 -92 -4 -25 -11 -35 -20 -32 -7 3 -33 1 -57
-5 -41 -9 -132 -2 -145 11 -3 4 6 24 20 47 14 22 26 43 26 47 0 3 14 23 30 44
34 43 11 40 230 24z m1985 -9 c0 -12 29 -84 50 -127 13 -27 13 -27 -22 -34
-19 -4 -52 -2 -72 5 -42 12 -61 42 -61 96 0 29 -4 35 -21 35 -19 0 -21 -4 -15
-42 14 -93 14 -91 -29 -103 -95 -28 -102 -27 -116 8 -7 18 -12 39 -11 48 2 20
-35 55 -46 45 -4 -4 -7 -35 -7 -69 l0 -62 -86 -1 c-47 -1 -91 1 -97 5 -13 8
-25 60 -26 111 -1 19 -7 46 -14 58 -8 13 -12 25 -10 27 2 1 111 5 243 9 131 4
240 8 242 9 7 8 98 -10 98 -18z m153 -22 c12 -15 25 -37 28 -48 4 -11 15 -31
25 -44 28 -35 24 -41 -28 -41 -38 1 -51 5 -64 23 -24 33 -68 135 -62 141 16
15 79 -5 101 -31z m-2353 -192 c78 -6 80 -7 76 -31 -1 -14 -8 -34 -14 -45 -6
-11 -11 -22 -10 -25 1 -3 -11 -19 -25 -37 l-27 -32 -118 -3 c-64 -2 -116 0
-115 3 2 3 28 47 58 98 46 79 57 91 75 86 11 -4 56 -10 100 -14z m2488 -23
c27 -36 90 -158 85 -163 -2 -2 -25 -10 -51 -17 -60 -16 -72 -8 -98 57 -11 28
-29 68 -40 90 -23 49 -23 52 -1 58 52 14 81 7 105 -25z m-2153 15 c0 -4 -9
-32 -19 -62 -11 -31 -21 -65 -23 -76 -4 -25 -42 -32 -135 -27 -46 3 -73 9 -73
16 1 14 54 122 70 141 9 11 35 15 96 15 46 0 84 -3 84 -7z m202 -15 c26 -20 5
-125 -27 -140 -32 -14 -134 -1 -142 18 -6 16 15 102 30 122 6 7 33 12 66 12
32 0 64 -6 73 -12z m1558 -1 c0 -7 9 -29 20 -50 11 -20 20 -52 20 -71 0 -34
-1 -35 -52 -41 -29 -4 -71 -5 -92 -3 -43 3 -51 16 -58 95 -3 36 -2 37 52 59
62 26 110 31 110 11z m219 -26 c7 -20 21 -54 31 -76 10 -22 21 -50 25 -63 7
-23 6 -23 -59 -18 -119 11 -133 23 -142 123 l-7 71 70 0 70 -1 12 -36z m-1290
7 l51 -11 0 -53 0 -53 -82 1 c-121 1 -121 1 -113 56 4 26 8 53 8 60 0 16 68
16 136 0z m-219 -8 c6 -4 10 -26 8 -51 l-3 -44 -104 -3 -104 -3 8 43 c4 24 7
49 8 56 0 9 23 12 88 11 49 -1 93 -5 99 -9z m520 -25 c3 -16 3 -48 0 -70 l-5
-40 -80 -6 c-61 -4 -83 -2 -92 9 -14 17 -5 123 11 135 6 4 45 6 86 5 75 -3 75
-3 80 -33z m235 17 c17 -5 30 -14 29 -20 -1 -7 -2 -32 -2 -56 -2 -41 -4 -44
-34 -48 -18 -3 -62 -2 -98 1 l-65 6 -3 54 c-2 29 -1 58 1 65 5 13 124 11 172
-2z m306 -19 c0 -16 2 -47 5 -71 l4 -44 -99 5 c-55 3 -105 8 -111 12 -11 7
-14 83 -4 109 5 13 24 16 105 16 l99 0 1 -27z m-1088 -139 c16 -5 17 -13 11
-67 -3 -34 -9 -65 -13 -69 -8 -8 -464 -26 -474 -18 -4 4 -1 20 8 36 8 16 18
44 21 62 5 23 14 36 31 43 30 11 140 12 147 1 3 -4 1 -25 -4 -46 -6 -26 -5
-45 3 -58 20 -32 41 -16 60 48 17 58 19 61 60 71 39 10 109 8 150 -3z m255
-10 c20 -6 22 -12 22 -75 l0 -69 -106 0 -107 0 7 38 c4 20 10 57 13 81 l6 44
71 -7 c39 -3 81 -9 94 -12z m-1085 -1 c30 -4 37 -9 31 -22 -4 -9 -12 -31 -19
-49 -22 -62 -34 -67 -158 -68 -62 0 -127 -4 -144 -8 -18 -5 -33 -5 -33 -2 0 4
15 27 33 51 17 24 40 55 50 69 12 18 28 26 60 29 76 7 141 7 180 0z m328 -12
l24 -20 -23 -16 c-12 -9 -21 -22 -20 -28 1 -7 -6 -27 -16 -46 l-18 -34 -110 6
c-61 3 -112 8 -115 11 -3 2 10 33 29 68 l33 63 90 6 c50 3 93 6 96 7 4 1 17
-7 30 -17z m1307 -11 c1 0 2 -22 2 -49 0 -32 6 -55 16 -65 14 -15 14 -17 -3
-23 -27 -11 -211 -9 -222 2 -8 9 0 79 15 133 3 10 25 12 96 8 51 -3 94 -5 96
-6z m-273 -58 c1 -35 6 -56 15 -62 10 -6 -22 -9 -88 -9 -97 1 -104 2 -112 23
-7 20 -5 60 6 94 3 9 27 12 91 10 l88 -3 0 -53z m574 -7 c2 -40 0 -44 -30 -54
-18 -6 -69 -11 -114 -11 l-82 0 -6 47 c-3 26 -3 52 0 59 6 16 165 24 204 10
21 -8 26 -16 28 -51z m261 32 c0 -13 11 -33 25 -45 l25 -22 11 27 c5 14 8 32
5 40 -4 10 12 13 75 13 44 0 89 -4 99 -10 17 -9 47 -106 36 -118 -3 -2 -53 5
-111 17 -58 12 -111 19 -116 15 -6 -3 -60 -3 -120 1 -107 7 -111 8 -120 33 -6
15 -8 37 -4 49 5 22 10 23 100 23 93 0 95 -1 95 -23z m514 -51 c22 -40 36 -78
32 -84 -9 -15 -108 -16 -157 -2 -32 9 -38 16 -49 54 -23 85 -8 102 95 105 40
1 40 0 79 -73z"/>
<path d="M12600 9138 c-30 -3 -113 -9 -185 -13 -71 -3 -137 -8 -145 -11 -48
-17 -277 -24 -386 -11 -29 3 -112 9 -185 12 -74 4 -137 9 -141 12 -15 9 -257
2 -360 -10 -98 -12 -118 -11 -218 7 -143 26 -137 34 -135 -173 1 -86 -1 -160
-3 -165 -7 -12 -15 -424 -14 -665 1 -106 -1 -198 -5 -204 -10 -16 -3 -160 8
-174 7 -8 7 -18 0 -32 -7 -13 -8 -28 -2 -44 6 -16 6 -28 -1 -35 -8 -8 -7 -22
5 -49 9 -21 17 -56 17 -78 1 -22 1 -92 1 -155 0 -63 2 -158 5 -210 8 -186 8
-206 4 -254 -4 -48 -3 -50 25 -58 17 -5 80 -11 140 -13 61 -2 133 -9 160 -15
31 -7 262 -14 595 -18 810 -10 1036 -9 1101 6 111 25 286 43 429 45 144 1 256
-6 267 -17 4 -3 40 -6 82 -6 42 -1 108 -5 146 -10 39 -6 117 -13 175 -16 58
-4 113 -10 122 -15 26 -14 74 -11 87 5 7 8 11 40 10 73 -1 32 4 128 10 213 8
106 10 301 7 620 -4 256 -7 569 -7 695 -1 127 -5 257 -9 290 -5 33 -11 112
-14 175 -6 126 -21 214 -39 228 -31 23 -170 45 -267 43 -14 0 -63 7 -110 15
-68 12 -157 15 -450 13 -201 -1 -432 0 -515 2 -82 2 -175 1 -205 -3z m700 -83
c228 -1 442 -6 475 -9 33 -4 96 -9 140 -11 120 -6 178 -14 186 -27 9 -14 19
-121 26 -270 15 -313 23 -1452 11 -1648 -5 -85 -9 -175 -10 -200 -1 -25 -5
-48 -10 -51 -5 -3 -34 -2 -66 2 -31 4 -88 10 -127 13 -38 4 -83 8 -100 11 -16
2 -73 7 -125 10 -52 3 -151 13 -220 21 -129 17 -280 14 -350 -6 -19 -5 -64
-10 -100 -10 -36 0 -94 -7 -130 -15 -58 -13 -169 -27 -225 -28 -11 0 -135 3
-275 8 -140 4 -273 6 -295 5 -61 -5 -150 -2 -250 8 -49 5 -100 5 -112 1 -28
-10 -306 -10 -438 1 -116 9 -154 17 -176 36 -12 11 -32 12 -103 3 -48 -6 -89
-9 -91 -7 -9 9 -25 308 -25 455 0 105 -5 200 -15 253 -12 69 -13 146 -8 410 3
179 7 433 8 565 1 133 6 294 10 359 l7 118 57 -7 c61 -8 94 -8 364 -3 99 2
181 0 184 -4 6 -11 65 -10 81 1 8 5 41 3 77 -4 35 -6 69 -9 75 -5 9 6 85 5 85
-1 0 -1 45 -3 100 -4 55 -2 120 -4 145 -5 45 -1 132 5 205 14 22 3 76 8 120
10 44 3 118 7 165 11 47 3 120 7 163 9 42 2 80 6 83 9 3 3 20 1 37 -5 19 -6
197 -11 447 -13z"/>
<path d="M13466 8755 c-14 -10 -16 -18 -9 -27 15 -18 77 -293 74 -328 -1 -8
-4 -35 -7 -60 -6 -51 8 -100 30 -100 18 0 36 30 36 60 0 30 27 67 58 78 62 21
105 -30 116 -136 10 -102 17 -132 31 -132 20 0 26 27 26 111 0 139 -58 229
-147 229 -25 0 -55 -5 -66 -11 -28 -15 -36 -3 -43 61 -6 60 -40 211 -55 248
-11 26 -18 27 -44 7z"/>
<path d="M11310 8741 c-5 -11 -10 -52 -10 -91 0 -39 -7 -103 -16 -143 -10 -40
-17 -108 -18 -152 -1 -75 0 -80 21 -83 18 -3 23 3 27 30 3 18 12 80 21 138 24
149 27 155 55 100 39 -77 71 -110 106 -110 37 0 42 5 80 92 16 37 34 68 39 68
21 0 35 -57 36 -149 0 -176 15 -250 49 -251 19 0 26 42 19 105 -4 39 -12 122
-19 186 -12 126 -32 218 -50 229 -6 4 -10 13 -8 20 2 7 -2 14 -8 17 -7 2 -20
-17 -30 -42 -11 -24 -22 -45 -26 -45 -5 0 -8 -7 -8 -16 0 -9 -8 -28 -19 -42
-10 -15 -26 -48 -36 -74 -10 -27 -21 -48 -24 -48 -14 0 -59 84 -96 179 -40
105 -62 125 -85 82z"/>
<path d="M12796 8712 c-9 -11 -16 -35 -16 -58 3 -127 9 -215 19 -262 6 -29 10
-56 10 -60 -1 -4 -1 -35 0 -69 1 -51 5 -64 20 -73 11 -5 27 -7 36 -4 15 6 16
19 10 98 -3 50 -10 120 -15 156 -5 36 -10 104 -10 152 0 85 -11 138 -28 138
-5 0 -16 -8 -26 -18z"/>
<path d="M13259 8723 c0 -5 -2 -17 -5 -28 -2 -11 -5 -46 -6 -77 -2 -56 -3 -58
-28 -58 -15 0 -34 -8 -44 -19 -19 -21 -10 -32 39 -48 l30 -10 1 -104 c0 -113
5 -129 34 -129 24 0 28 17 29 120 1 97 9 110 73 110 26 0 38 4 38 14 0 18 -13
26 -69 46 -43 15 -45 18 -49 60 -2 25 -5 56 -6 70 -2 14 -4 33 -5 43 -1 16
-30 25 -32 10z"/>
<path d="M12992 8701 c-28 -24 -28 -35 3 -55 34 -23 40 -20 42 18 4 45 -17 62
-45 37z"/>
<path d="M13004 8476 c-15 -31 -6 -232 11 -246 8 -7 17 -4 30 10 14 16 17 36
16 117 -1 54 -4 108 -8 121 -7 29 -35 28 -49 -2z"/>
<path d="M11873 8466 c-38 -13 -89 -74 -98 -117 -6 -24 -2 -36 17 -57 14 -15
35 -41 47 -59 27 -40 73 -50 147 -33 83 20 132 86 113 152 -26 89 -138 146
-226 114z m146 -80 c26 -27 31 -39 26 -57 -11 -35 -44 -67 -76 -74 -16 -4 -31
-11 -34 -16 -9 -13 -47 -10 -67 5 -23 17 -23 22 2 29 27 7 25 21 -5 41 -32 21
-31 28 6 71 26 30 38 35 73 35 35 0 48 -6 75 -34z"/>
<path d="M12192 8437 l-53 -32 6 -75 c7 -77 22 -107 49 -97 12 5 16 20 16 61
0 62 12 96 41 114 22 14 59 1 59 -21 0 -7 7 -25 16 -42 9 -18 14 -50 13 -85
-3 -57 8 -120 19 -120 25 1 37 23 37 70 0 54 10 65 24 27 6 -15 28 -32 59 -45
54 -23 92 -27 120 -13 9 5 30 15 46 22 84 39 87 184 6 233 -35 20 -99 21 -127
1 -25 -17 -73 -100 -73 -125 0 -23 34 -53 57 -48 14 2 18 14 20 48 3 72 5 77
40 88 29 9 36 7 53 -10 41 -44 33 -110 -18 -140 -99 -59 -194 -7 -225 123 -4
15 -21 43 -39 63 -40 46 -74 47 -146 3z"/>
<path d="M5565 9022 c-6 -4 -24 -29 -40 -57 -45 -79 -197 -220 -280 -260 -128
-62 -307 -114 -415 -121 l-97 -7 -7 84 c-13 147 -47 172 -132 94 -7 -5 -33
-26 -58 -45 -26 -19 -70 -54 -99 -77 -37 -30 -70 -46 -108 -54 -87 -18 -113
-54 -61 -85 15 -10 61 -39 102 -65 41 -26 86 -50 100 -54 58 -16 157 -59 186
-81 40 -31 64 -31 64 -1 0 12 7 36 16 52 12 22 14 45 9 88 -7 67 -10 64 95 70
176 10 444 107 540 196 101 93 184 183 201 218 29 61 19 130 -16 105z"/>
<path d="M21229 8915 c-5 -4 -412 -22 -739 -32 -194 -6 -755 -9 -961 -4 -117
2 -183 0 -197 -8 -11 -6 -37 -11 -56 -11 -59 0 -136 -21 -160 -43 -25 -24 -23
-4 -31 -379 -2 -86 -6 -162 -10 -168 -4 -7 -2 -30 5 -51 11 -31 11 -41 0 -54
-9 -11 -14 -55 -15 -138 -2 -67 -12 -216 -23 -332 -22 -219 -23 -253 -27 -605
-2 -186 -5 -226 -24 -294 -20 -74 -21 -80 -5 -97 10 -11 22 -19 28 -19 6 0 22
-14 36 -30 l25 -31 230 0 c127 0 291 4 365 10 74 6 261 12 415 12 154 1 379 2
500 3 121 0 315 0 430 -2 181 -3 300 2 585 23 30 3 102 7 160 10 58 2 143 11
189 19 47 8 88 13 91 11 4 -3 22 0 41 6 19 6 71 10 116 10 45 0 126 8 179 19
54 11 158 22 237 25 77 3 144 8 148 11 4 2 212 6 463 9 495 5 510 7 535 62 14
30 6 378 -11 468 -8 45 -19 468 -19 710 0 11 5 63 12 115 27 237 18 500 -22
635 -11 39 -23 81 -26 95 -8 35 -17 38 -74 29 -71 -11 -298 -11 -579 0 -135 6
-295 8 -355 5 -198 -11 -1005 -6 -1118 6 -81 9 -116 9 -136 0 -20 -8 -50 -8
-112 -1 -46 6 -84 11 -85 11 0 0 -3 -2 -5 -5z m364 -104 c54 -4 311 -5 570 -3
260 3 540 5 622 5 921 -1 857 0 865 -13 9 -14 27 -135 41 -270 10 -98 9 -142
-6 -295 -21 -211 -24 -749 -6 -910 6 -55 13 -175 15 -267 l3 -167 -34 -12
c-23 -7 -112 -10 -261 -8 -440 5 -912 -12 -1037 -37 -44 -9 -141 -20 -215 -25
-74 -5 -169 -13 -210 -19 -41 -5 -142 -14 -225 -19 -82 -6 -206 -15 -275 -21
-136 -12 -811 -18 -1000 -9 -25 1 -58 2 -75 1 -273 -7 -458 -13 -635 -19 -118
-4 -311 -7 -429 -6 -198 2 -216 4 -234 22 -18 18 -19 24 -7 87 12 63 18 223
12 319 -2 22 -1 55 2 73 2 18 7 101 11 185 3 83 10 175 15 202 5 28 12 115 15
195 7 160 14 271 20 340 2 25 9 169 15 320 6 151 14 278 18 282 4 3 39 14 77
23 85 20 288 25 665 16 146 -4 321 -3 390 0 149 9 353 16 660 25 124 4 266 10
315 13 90 7 132 6 318 -8z"/>
<path d="M21154 8611 c-33 -14 -36 -25 -39 -137 -2 -67 -7 -110 -16 -120 -9
-11 -9 -18 -2 -22 6 -4 13 -50 16 -103 5 -92 17 -139 37 -139 34 0 38 11 33
91 -3 43 -3 79 2 79 14 0 71 -45 115 -92 53 -55 108 -98 127 -98 7 0 15 11 19
24 5 21 -7 38 -80 112 -47 48 -83 91 -80 95 3 5 21 11 40 15 49 9 110 69 119
115 12 63 -32 123 -115 160 -51 23 -145 33 -176 20z m154 -88 c68 -31 83 -58
61 -107 -14 -30 -45 -43 -127 -51 l-63 -7 5 88 c2 49 5 90 5 92 3 9 90 -1 119
-15z"/>
<path d="M22736 8609 c-16 -10 -17 -20 -11 -94 6 -80 6 -82 -17 -88 -13 -4
-36 -7 -51 -7 -30 0 -87 -25 -87 -39 0 -4 9 -16 20 -26 16 -14 30 -17 74 -11
l54 6 -4 -41 c-2 -23 -9 -60 -15 -83 -33 -116 -29 -156 15 -156 27 0 42 28 55
105 5 28 11 59 14 70 3 11 8 39 12 62 6 38 10 43 41 49 19 3 47 4 62 1 32 -6
46 0 55 25 8 23 -18 37 -91 46 l-57 7 -6 78 c-6 69 -19 108 -38 107 -3 0 -14
-5 -25 -11z"/>
<path d="M19713 8510 c-18 -10 -44 -37 -58 -58 -22 -33 -26 -54 -31 -138 -4
-72 -1 -112 9 -147 18 -55 21 -52 -87 -86 -137 -44 -230 -105 -280 -184 -19
-31 -18 -74 3 -176 13 -62 25 -79 92 -122 35 -22 71 -34 136 -44 48 -8 99 -17
113 -19 14 -2 51 -5 83 -5 46 -1 57 -4 57 -18 0 -18 -31 -82 -91 -188 -22 -38
-48 -89 -59 -111 l-20 -42 27 -48 c60 -109 130 -124 340 -73 90 22 153 52 198
93 31 29 45 33 45 12 0 -17 75 -81 111 -94 49 -19 156 -25 211 -11 118 28 149
113 109 293 -6 27 -15 54 -20 60 -4 6 -11 22 -13 36 -3 14 -13 42 -22 63 l-17
38 84 39 c149 69 194 125 203 256 5 65 2 87 -14 125 -23 53 -68 94 -114 104
-18 4 -37 11 -43 14 -5 4 -30 13 -55 20 -66 19 -73 27 -53 64 13 25 15 51 10
134 -3 56 -10 111 -16 121 -6 11 -43 39 -82 63 -62 37 -79 43 -122 41 -83 -4
-191 -78 -239 -163 l-16 -30 -29 43 c-53 80 -110 125 -179 142 -84 21 -132 20
-171 -4z m132 -72 c51 -15 52 -15 69 -17 31 -3 136 -134 136 -171 0 -9 -13
-34 -30 -57 l-29 -40 -118 -13 c-150 -16 -156 -15 -166 35 -27 133 -20 212 21
250 30 28 57 31 117 13z m586 -23 c74 -38 92 -97 63 -212 l-19 -75 -55 5
c-121 11 -195 29 -214 51 -11 11 -31 33 -44 48 -23 25 -24 29 -10 45 9 10 19
28 23 41 10 34 65 93 100 108 47 20 101 17 156 -11z m-213 -388 c15 -24 40
-72 56 -108 16 -35 32 -72 37 -81 5 -10 5 -20 -1 -23 -5 -3 0 -15 11 -26 13
-13 18 -27 13 -37 -3 -9 -16 -56 -27 -104 l-21 -86 -110 -7 c-105 -7 -111 -7
-124 14 -9 13 -25 21 -42 21 -21 0 -36 12 -69 58 -40 52 -42 61 -37 101 5 35
72 191 125 291 7 14 25 17 144 28 11 1 28 -14 45 -41z m189 27 c43 -6 47 -15
28 -71 -8 -27 -20 -67 -26 -91 -5 -23 -14 -40 -18 -38 -10 7 -101 192 -101
206 0 10 23 8 117 -6z m-462 -16 c-4 -13 -27 -57 -51 -99 -24 -42 -44 -81 -44
-87 0 -23 -20 -11 -26 16 -4 15 -20 58 -36 96 -15 38 -27 71 -24 73 7 7 92 21
139 22 46 1 48 0 42 -21z m-234 -68 c16 -30 36 -80 44 -110 9 -30 25 -73 36
-96 18 -39 19 -43 2 -95 -9 -30 -20 -58 -24 -63 -9 -10 -185 9 -280 30 -121
28 -159 70 -159 177 0 45 4 57 28 79 63 58 250 141 306 135 12 -1 29 -23 47
-57z m956 31 c32 -11 61 -29 79 -50 23 -28 27 -40 25 -94 -2 -84 -3 -88 -28
-123 -22 -30 -107 -82 -190 -116 l-41 -17 -11 27 c-5 15 -24 51 -41 81 l-31
54 22 56 c12 31 28 68 35 83 8 14 14 33 14 41 0 8 7 31 15 52 16 36 17 36 58
30 23 -4 65 -15 94 -24z m-248 -375 c12 -18 21 -38 21 -43 0 -9 -78 -28 -86
-21 -6 6 28 98 36 98 5 0 18 -15 29 -34z m-518 -106 c30 -8 43 -22 79 -83 23
-39 67 -100 98 -135 49 -57 53 -66 43 -85 -28 -52 -169 -109 -297 -120 -87 -8
-132 5 -140 40 -10 37 22 149 52 187 15 18 25 36 23 38 -2 3 2 12 9 20 6 8 21
41 32 74 27 76 35 82 101 64z m596 -52 c12 -24 31 -72 43 -108 11 -36 23 -72
27 -80 9 -24 2 -111 -10 -132 -15 -24 -67 -38 -139 -38 -64 0 -104 22 -167 92
l-33 38 46 91 c25 50 46 99 46 108 1 29 26 51 61 52 19 1 48 5 64 9 17 4 33 8
36 9 3 0 15 -18 26 -41z m-260 -13 c-8 -50 -53 -145 -69 -145 -7 0 -41 37 -74
83 l-62 82 87 6 c47 3 94 6 105 7 16 2 18 -3 13 -33z"/>
<path d="M20064 7904 c-12 -3 -38 -20 -59 -39 -31 -29 -36 -39 -31 -62 16 -67
68 -109 149 -118 55 -6 59 -5 87 25 17 18 30 42 30 54 0 34 -25 96 -47 118
-21 20 -85 31 -129 22z"/>
<path d="M22040 8368 c-14 -6 -51 -22 -82 -36 -63 -27 -93 -59 -124 -135 -21
-49 -25 -53 -75 -69 -30 -9 -65 -17 -79 -17 -30 -1 -121 56 -99 62 121 32 179
66 179 103 0 58 -54 94 -143 94 -103 0 -180 -105 -143 -194 8 -20 20 -36 25
-36 6 0 19 -8 29 -17 56 -56 84 -72 136 -78 57 -7 103 7 142 44 21 19 42 17
61 -6 7 -9 32 -18 56 -20 51 -6 113 21 147 64 21 27 22 27 48 10 15 -9 42 -24
61 -33 30 -13 36 -14 48 -1 12 12 13 18 1 36 -7 11 -18 21 -24 21 -17 0 -73
91 -80 131 -15 84 -32 99 -84 77z m-350 -77 c0 -12 -57 -37 -102 -45 -42 -8
-52 9 -22 38 17 17 124 23 124 7z m356 -33 c-10 -53 -30 -105 -44 -115 -19
-15 -66 -17 -92 -3 -35 19 4 89 65 116 38 17 74 18 71 2z"/>
<path d="M22385 8357 c-48 -19 -75 -37 -75 -49 0 -6 -7 -19 -16 -29 -24 -26
-37 -97 -24 -128 15 -35 99 -91 137 -91 61 0 136 44 138 81 2 23 -28 25 -64 5
-28 -15 -95 -4 -122 20 -39 35 18 120 87 131 49 7 64 19 60 47 -2 17 -10 21
-47 23 -24 1 -57 -3 -74 -10z"/>
<path d="M21190 7771 c-14 -5 -40 -16 -58 -25 -26 -13 -32 -22 -32 -49 0 -18
7 -42 15 -53 8 -10 15 -27 15 -36 0 -32 89 -84 154 -90 16 -2 34 -12 40 -23 6
-11 14 -22 17 -25 3 -3 6 -26 8 -51 2 -59 -11 -70 -91 -71 -75 -1 -110 7 -156
38 -37 26 -52 24 -52 -6 0 -49 96 -108 192 -117 76 -7 118 10 148 60 25 40 25
85 1 166 -20 65 -44 101 -67 101 -7 0 -38 8 -68 17 -43 13 -56 22 -61 41 -4
15 -1 28 6 32 6 4 63 11 126 15 122 8 131 12 114 58 l-11 27 -107 -1 c-60 0
-119 -4 -133 -8z"/>
<path d="M22472 7718 c-25 -25 -6 -68 30 -68 23 0 39 39 26 63 -10 20 -39 22
-56 5z"/>
<path d="M23141 7683 c-44 -21 -57 -34 -74 -71 -11 -25 -21 -73 -24 -106 -3
-50 0 -68 19 -101 13 -22 38 -47 56 -56 17 -9 38 -21 45 -27 15 -13 76 0 112
24 31 20 62 91 47 106 -8 8 -21 4 -49 -15 -53 -37 -98 -45 -123 -22 -19 17
-19 18 19 37 21 10 63 42 95 71 44 42 56 59 56 82 -1 35 -33 76 -73 93 -39 17
-46 16 -106 -15z m97 -71 c9 -6 5 -15 -15 -34 -33 -30 -101 -64 -110 -54 -10
10 28 76 44 76 7 0 13 5 13 10 0 12 50 13 68 2z"/>
<path d="M22800 7679 c-29 -13 -59 -39 -84 -71 -81 -107 -73 -225 19 -270 l42
-21 64 22 c72 24 138 76 131 104 -3 15 -10 17 -35 11 -18 -3 -36 -9 -42 -13
-29 -21 -96 -34 -127 -25 -38 11 -46 35 -28 90 15 44 43 71 98 95 41 18 43 21
40 56 -4 46 -17 50 -78 22z"/>
<path d="M21630 7612 c-49 -22 -104 -90 -115 -142 -4 -19 -14 -43 -23 -53 -20
-23 -6 -50 29 -57 13 -3 50 -22 83 -44 43 -28 72 -39 110 -43 46 -4 56 -1 101
30 28 18 52 42 54 52 3 16 -2 17 -55 10 -79 -11 -123 -9 -159 5 -34 13 -25 23
38 40 53 15 107 65 107 100 0 47 -11 61 -64 86 -52 24 -79 28 -106 16z m54
-78 c9 -3 16 -14 16 -24 0 -12 -16 -22 -56 -35 -30 -9 -57 -15 -59 -13 -8 7
56 78 70 78 7 0 20 -3 29 -6z"/>
<path d="M22021 7603 c-19 -9 -43 -32 -53 -50 -23 -38 -22 -37 -48 -20 -17 10
-22 9 -30 -3 -5 -8 -7 -24 -5 -35 25 -129 30 -144 51 -156 30 -16 44 -4 44 36
0 95 59 159 150 162 30 1 56 2 58 2 6 2 -28 60 -39 67 -25 15 -95 13 -128 -3z"/>
<path d="M22383 7578 c-12 -24 -26 -56 -31 -73 -12 -41 -34 -42 -50 -3 -34 85
-42 97 -56 92 -25 -9 -27 -35 -9 -93 19 -62 67 -121 98 -121 26 0 65 27 65 44
0 8 9 34 20 59 25 56 29 115 9 128 -21 13 -23 12 -46 -33z"/>
<path d="M22510 7581 c-5 -11 -10 -58 -10 -104 0 -71 3 -87 20 -102 41 -37 61
6 55 113 -6 85 -14 112 -35 112 -11 0 -24 -9 -30 -19z"/>
<path d="M7894 8701 c-10 -2 -35 -16 -55 -32 -40 -32 -145 -64 -244 -74 -96
-11 -95 -7 -102 -363 -6 -323 -6 -296 -4 -832 1 -217 5 -425 9 -462 5 -37 5
-100 1 -140 -5 -50 -4 -76 4 -84 11 -10 293 -28 398 -25 20 1 87 -6 150 -15
63 -9 131 -18 151 -19 20 -2 42 -7 50 -11 7 -5 141 -10 298 -11 157 -1 294 -3
305 -3 11 -1 52 0 90 1 92 2 217 -8 267 -22 54 -14 86 -5 99 29 18 47 36 207
27 233 -8 20 -16 186 -19 389 -1 70 10 435 16 535 10 157 13 346 6 485 -3 74
-3 168 2 208 4 46 3 80 -3 92 -13 24 -58 36 -190 50 -168 18 -193 21 -201 26
-9 5 -234 5 -319 0 -30 -2 -86 3 -125 11 -91 19 -556 45 -611 34z m304 -86
c76 -2 191 -11 257 -20 109 -15 307 -21 326 -10 4 3 49 0 101 -5 51 -6 134
-15 183 -20 104 -12 183 -25 190 -32 6 -5 19 -384 19 -528 0 -47 -4 -175 -9
-285 -6 -110 -8 -330 -6 -490 7 -467 7 -523 -5 -535 -7 -7 -26 -7 -65 1 -31 6
-226 12 -464 14 -236 2 -446 8 -494 15 -46 6 -114 13 -150 16 -36 3 -84 7
-106 9 -22 3 -78 7 -125 10 -107 6 -184 13 -235 23 l-40 7 -8 175 c-4 96 -6
231 -5 300 3 157 2 374 -3 600 -4 180 9 511 21 544 5 15 17 9 81 -49 41 -37
97 -89 124 -116 30 -29 60 -49 73 -49 19 0 22 6 23 43 3 88 16 161 60 345 l13
54 54 -7 c30 -4 115 -8 190 -10z m-336 -52 c2 -10 -3 -36 -12 -58 -10 -22 -20
-67 -25 -100 -4 -33 -9 -63 -11 -67 -5 -7 -54 14 -54 23 0 4 -30 36 -67 72
l-66 66 29 6 c16 3 56 19 89 35 52 25 73 33 107 39 3 0 8 -7 10 -16z"/>
<path d="M8570 7941 c-9 -18 -9 -34 -1 -66 15 -60 14 -75 -6 -82 -10 -3 -33
-12 -52 -20 -33 -13 -33 -14 -16 -33 12 -14 31 -20 58 -20 l39 0 -4 -90 c-3
-82 -1 -90 18 -99 38 -17 48 1 52 102 l4 94 35 17 c34 16 35 18 17 31 -11 8
-27 15 -37 15 -19 0 -30 21 -47 87 -6 22 -19 51 -29 64 l-18 23 -13 -23z"/>
<path d="M7806 7935 c-83 -17 -95 -31 -85 -94 9 -58 0 -202 -15 -220 -8 -10
-4 -18 14 -33 22 -18 36 -20 111 -16 109 5 181 37 189 83 l5 29 13 -28 c6 -15
12 -33 12 -40 0 -8 7 -19 15 -26 27 -22 45 5 38 55 -7 54 16 80 81 89 35 6 46
11 46 25 0 57 -181 25 -204 -35 -6 -15 -13 -10 -48 24 l-41 41 32 37 c23 26
30 41 25 57 -17 60 -73 75 -188 52z m124 -59 c0 -14 -66 -50 -115 -62 -25 -6
-26 -4 -23 22 2 24 10 31 43 40 56 17 95 17 95 0z m-25 -140 c19 -8 40 -27 47
-42 11 -22 10 -28 -6 -40 -21 -15 -91 -27 -127 -22 -21 3 -24 9 -27 55 -3 47
-1 52 20 56 43 8 59 7 93 -7z"/>
<path d="M9083 7760 c-47 -11 -83 -37 -83 -61 0 -22 40 -63 83 -85 15 -8 27
-21 27 -28 0 -8 -12 -17 -27 -21 -16 -3 -37 -13 -48 -21 -20 -15 -20 -15 -1
-30 37 -27 120 -11 144 27 22 34 5 71 -46 104 -57 37 -61 50 -22 63 35 13 50
40 29 53 -8 5 -16 8 -19 8 -3 -1 -20 -4 -37 -9z"/>
<path d="M8284 7748 c-5 -7 -7 -40 -6 -73 2 -50 7 -64 28 -82 14 -13 33 -23
42 -23 21 1 52 23 52 38 0 22 22 23 45 2 19 -18 27 -20 44 -10 18 9 19 14 10
31 -6 11 -17 43 -25 70 -25 83 -64 79 -100 -12 -24 -58 -31 -54 -36 21 -3 37
-7 46 -25 48 -11 2 -25 -3 -29 -10z"/>
<path d="M8744 7742 c-8 -5 -10 -33 -6 -84 4 -66 8 -80 33 -107 35 -39 51 -39
87 0 l29 31 17 -26 c18 -29 44 -34 52 -11 6 15 -21 134 -38 168 -23 45 -78 -2
-78 -67 0 -51 -24 -81 -34 -44 -3 13 -6 34 -6 47 0 37 -22 101 -34 101 -6 0
-16 -4 -22 -8z"/>
<path d="M16160 8603 c-13 -3 -29 -11 -35 -18 -13 -18 -82 -55 -100 -55 -7 0
-29 -14 -47 -30 -36 -33 -120 -77 -166 -86 -15 -3 -38 -13 -50 -22 -20 -16
-22 -28 -28 -167 -4 -94 -2 -184 5 -240 6 -49 13 -126 16 -170 2 -44 6 -89 9
-100 11 -58 17 -138 22 -305 7 -220 7 -191 -1 -370 -11 -233 -12 -260 -23
-355 -5 -49 -9 -101 -9 -115 0 -14 -3 -53 -8 -87 -7 -57 -6 -62 14 -73 17 -8
35 -9 73 0 54 11 150 17 468 26 198 6 289 8 730 17 242 5 391 -2 427 -22 30
-17 108 -28 132 -20 21 8 22 12 20 153 -1 79 2 149 6 155 4 7 8 67 10 134 8
266 20 524 29 602 14 119 27 330 23 354 -4 16 -2 44 4 63 5 18 11 92 14 163 2
72 7 211 11 310 9 228 13 221 -126 211 -52 -4 -221 -11 -375 -16 -251 -8 -294
-7 -415 9 -74 11 -142 20 -150 20 -8 1 -40 4 -70 6 -30 3 -91 7 -135 10 -45 2
-110 9 -145 14 -67 11 -87 12 -130 4z m255 -108 c22 -3 78 -7 125 -10 47 -2
117 -9 155 -15 39 -6 99 -15 135 -20 94 -14 669 -2 767 15 26 5 33 2 38 -15 3
-11 4 -23 2 -27 -5 -8 -17 -181 -22 -318 -5 -130 -17 -390 -20 -415 -12 -119
-35 -491 -40 -645 -3 -104 -9 -242 -13 -305 -3 -63 -5 -145 -4 -182 1 -37 -1
-69 -6 -72 -4 -2 -34 5 -67 17 -50 17 -89 21 -230 24 -312 5 -419 4 -515 -7
-52 -6 -130 -8 -173 -5 -63 6 -82 4 -102 -9 -14 -9 -25 -13 -25 -8 0 7 -354 8
-430 2 -8 -1 -26 0 -40 1 -14 2 -49 0 -78 -4 l-53 -8 5 108 c2 59 10 158 16
218 16 144 17 693 1 810 -36 276 -54 636 -33 657 7 7 62 -18 172 -78 19 -11
55 -39 80 -62 25 -23 48 -42 51 -42 4 0 15 12 25 28 13 19 19 46 19 92 0 36 1
116 3 178 l2 113 108 -6 c59 -3 125 -8 147 -10z m-311 -52 c6 -29 4 -46 -12
-127 -6 -28 -8 -65 -5 -83 7 -43 -12 -43 -54 0 -17 17 -61 50 -97 72 -36 22
-65 43 -66 46 0 4 12 10 27 14 28 7 69 33 110 71 22 20 41 28 80 33 6 0 14
-11 17 -26z"/>
<path d="M16823 7789 c-6 -6 -7 -28 -2 -57 4 -26 10 -64 12 -84 l6 -37 -54 -6
c-30 -4 -60 -14 -66 -21 -7 -8 -10 -15 -8 -17 39 -22 55 -27 89 -27 40 0 40 0
39 -37 0 -21 -4 -64 -8 -96 -6 -48 -4 -60 11 -74 17 -15 19 -15 37 1 15 14 21
38 26 111 6 70 11 95 23 100 20 8 23 3 28 -47 8 -71 13 -86 37 -111 33 -35 72
-42 112 -18 33 19 55 14 55 -14 0 -7 11 -18 25 -25 22 -12 28 -12 41 2 12 11
13 21 6 34 -5 11 -18 56 -27 102 -23 104 -33 120 -69 104 -19 -8 -26 -19 -26
-39 0 -29 -40 -123 -52 -123 -14 0 -26 35 -33 93 -9 72 -34 105 -86 113 -32 6
-39 10 -39 30 0 13 -8 49 -17 80 -18 57 -41 82 -60 63z"/>
<path d="M15975 7714 c-12 -3 -27 -14 -34 -25 -11 -18 -9 -24 11 -46 21 -22
23 -35 26 -138 4 -112 3 -115 -22 -138 -16 -15 -24 -31 -20 -40 8 -21 104 -57
150 -57 69 0 164 71 164 122 0 15 5 28 10 28 6 0 10 -20 10 -45 0 -37 5 -51
26 -70 23 -22 28 -23 41 -9 12 12 14 28 9 77 -6 52 -4 66 11 83 17 19 120 50
131 40 2 -3 5 -39 6 -81 1 -69 3 -78 26 -95 14 -11 33 -20 42 -20 16 0 81 71
84 91 1 5 2 14 3 19 2 20 21 9 27 -15 3 -14 15 -30 26 -36 11 -6 17 -16 14
-24 -2 -7 7 -23 20 -36 21 -20 26 -21 34 -9 5 8 10 18 10 21 0 7 -22 64 -45
114 -7 17 -19 50 -26 75 -7 25 -20 54 -30 64 -26 28 -44 9 -59 -63 -12 -59
-42 -121 -58 -121 -4 0 -8 30 -8 66 1 75 3 73 -84 97 -69 20 -146 7 -161 -26
-6 -12 -20 -29 -33 -38 -21 -16 -23 -15 -65 23 l-43 40 29 32 c43 46 34 83
-30 115 -46 23 -145 36 -192 25z m170 -94 c0 -16 -62 -52 -83 -48 -10 2 -17
15 -19 35 -2 26 1 32 20 35 36 6 82 -7 82 -22z m21 -156 c30 -20 35 -38 18
-63 -24 -34 -107 -67 -139 -55 -15 6 1 125 19 137 15 10 73 -1 102 -19z"/>
<path d="M17350 7622 c-67 -32 -89 -54 -83 -84 3 -17 12 -28 22 -28 10 0 26
-7 37 -15 10 -8 26 -15 35 -15 9 0 22 -7 29 -15 10 -12 9 -20 -5 -41 -15 -23
-22 -26 -54 -21 -29 4 -40 1 -49 -14 -18 -29 -15 -36 28 -53 32 -13 46 -14 63
-5 39 20 86 71 92 100 9 41 -19 84 -63 95 -50 13 -52 32 -4 40 30 5 43 13 51
32 10 20 9 27 -1 33 -20 13 -59 9 -98 -9z"/>
<path d="M4683 8077 c-15 -13 -39 -30 -53 -40 -14 -9 -44 -30 -68 -47 -23 -16
-47 -30 -53 -30 -5 0 -27 -11 -47 -25 -20 -14 -42 -25 -50 -25 -7 0 -39 -14
-72 -30 -48 -24 -60 -35 -60 -54 0 -27 7 -34 135 -139 50 -41 117 -103 150
-139 64 -69 102 -95 115 -81 17 17 40 118 46 205 l7 90 66 -5 c36 -2 111 -12
166 -20 173 -27 414 -55 583 -68 130 -10 208 -10 395 1 139 8 287 10 367 6 74
-4 151 -6 171 -6 20 0 70 -6 110 -15 61 -12 130 -14 383 -9 170 2 313 7 318
10 13 8 9 50 -6 63 -14 12 -170 20 -481 25 -110 2 -238 7 -285 12 -91 9 -363
10 -730 3 -124 -3 -244 -1 -267 3 -23 4 -82 10 -130 13 -48 3 -104 8 -122 11
-19 2 -89 9 -155 14 -66 6 -157 19 -204 30 -46 11 -108 20 -138 20 -63 0 -62
-3 -35 102 16 62 18 83 9 112 -13 42 -26 45 -65 13z"/>
<path d="M14697 7820 c-14 -11 -29 -20 -34 -20 -4 0 -30 -24 -58 -52 -27 -29
-59 -58 -70 -64 -11 -6 -44 -25 -74 -42 -85 -47 -98 -100 -32 -133 33 -18 94
-58 101 -67 3 -4 35 -28 72 -52 38 -25 68 -50 68 -57 0 -16 47 -63 63 -63 7 0
22 19 35 43 23 44 28 101 13 154 -12 40 2 53 55 53 313 -2 641 -14 667 -25 23
-10 59 0 88 24 30 25 18 39 -49 59 -53 16 -84 18 -477 27 -154 4 -281 7 -282
9 -2 1 -5 37 -8 80 -9 143 -25 168 -78 126z"/>
<path d="M9631 7753 c-99 -2 -170 -8 -178 -14 -21 -18 -15 -55 12 -73 21 -14
43 -15 186 -6 89 5 165 8 168 5 6 -3 504 -7 541 -4 8 1 58 -1 110 -4 90 -6
202 -10 226 -8 23 2 21 38 -3 65 -21 25 -29 27 -91 26 -89 -1 -637 9 -732 13
-41 2 -149 2 -239 0z"/>
<path d="M17830 7673 c-35 -13 -39 -23 -25 -56 12 -29 18 -33 72 -39 32 -4 81
-10 108 -14 76 -11 400 -7 580 6 88 6 194 11 236 10 107 -2 129 5 129 40 0 50
-15 53 -193 46 -473 -19 -801 -16 -879 8 -7 2 -20 2 -28 -1z"/>
<path d="M8333 6390 c-11 -5 -29 -20 -40 -35 -10 -14 -46 -61 -80 -104 -34
-42 -77 -102 -95 -133 -18 -31 -60 -91 -93 -135 -32 -43 -80 -113 -105 -155
-125 -214 -145 -245 -172 -272 -17 -16 -41 -48 -56 -70 -14 -23 -44 -63 -67
-91 -43 -50 -135 -187 -135 -200 0 -4 -26 -38 -57 -76 -67 -79 -105 -128 -171
-218 -26 -36 -62 -84 -79 -108 -18 -23 -33 -47 -33 -52 0 -6 -6 -14 -13 -18
-6 -4 -25 -26 -42 -48 -16 -22 -32 -42 -35 -45 -3 -3 -21 -25 -39 -50 -19 -25
-41 -52 -50 -60 -9 -8 -38 -44 -66 -79 -27 -35 -70 -87 -95 -114 -25 -27 -54
-64 -65 -82 -11 -18 -54 -78 -95 -134 -109 -146 -192 -258 -215 -289 -11 -15
-44 -56 -74 -92 -30 -36 -70 -90 -89 -120 -19 -30 -50 -70 -69 -88 -18 -18
-33 -38 -33 -44 0 -5 -17 -31 -38 -57 -21 -25 -62 -84 -92 -131 -29 -47 -66
-101 -81 -120 -15 -19 -42 -65 -59 -101 -18 -37 -52 -91 -76 -120 -24 -30 -44
-59 -44 -65 0 -6 -7 -17 -15 -24 -8 -7 -39 -49 -68 -94 -30 -44 -62 -87 -71
-95 -10 -8 -24 -28 -32 -44 -20 -37 -63 -85 -199 -219 -113 -112 -123 -120
-212 -162 -105 -51 -141 -54 -520 -53 -193 1 -355 6 -360 10 -4 5 -9 57 -11
117 -3 73 -8 110 -16 113 -7 3 -28 -10 -48 -28 -36 -34 -274 -165 -300 -165
-18 0 -68 -52 -68 -71 0 -32 128 -146 200 -177 25 -11 73 -45 107 -76 66 -61
89 -68 102 -33 8 22 32 170 30 185 -7 42 -18 40 339 41 361 1 439 4 456 21 5
5 18 10 27 10 9 0 22 7 29 15 7 8 16 12 21 9 11 -7 61 20 134 72 73 51 319
307 349 362 5 10 24 34 42 54 18 20 40 51 50 69 9 18 37 60 63 93 69 91 105
146 135 201 36 68 111 188 166 265 116 163 260 356 343 458 68 84 139 179 217
288 30 43 73 100 95 128 22 28 59 76 82 106 23 30 71 91 108 135 85 103 84
102 125 155 19 24 62 78 95 120 34 41 103 134 154 205 52 72 110 148 131 170
43 46 100 129 100 144 0 6 3 11 8 11 4 0 16 17 27 37 11 21 25 45 32 53 6 8
46 60 89 115 42 55 80 102 83 105 20 16 86 118 204 315 40 67 66 106 103 150
23 28 54 70 69 95 15 24 67 93 114 153 65 83 86 117 86 140 0 34 -10 40 -42
27z"/>
<path d="M4156 4482 c-3 -5 -1 -36 4 -68 16 -95 14 -113 -14 -120 -17 -4 -27
-15 -31 -36 -8 -32 5 -48 37 -48 14 0 18 -12 20 -71 2 -55 7 -74 20 -83 28
-17 41 7 47 86 l6 73 37 6 c82 13 82 44 -1 72 -42 14 -43 15 -47 65 -6 77 -25
126 -51 130 -11 2 -24 -1 -27 -6z"/>
<path d="M3327 4459 c-84 -20 -113 -66 -57 -91 34 -14 46 -44 36 -84 -4 -14
-2 -31 3 -38 6 -7 12 -42 14 -79 4 -59 2 -67 -15 -73 -12 -3 -17 -12 -14 -21
3 -8 6 -21 6 -28 0 -31 121 -49 190 -29 96 28 119 90 52 141 -48 36 -73 52
-92 59 -9 3 -21 14 -27 24 -11 16 -6 21 43 40 79 33 104 55 104 95 0 28 -5 35
-37 50 -35 17 -137 45 -158 44 -5 -1 -27 -5 -48 -10z m163 -79 c0 -13 -100
-61 -111 -54 -12 7 -12 61 1 66 19 6 110 -4 110 -12z m-48 -224 c19 -8 40 -22
48 -30 11 -14 7 -18 -25 -32 -55 -23 -69 -16 -73 34 -3 46 0 48 50 28z"/>
<path d="M4791 4401 c-13 -3 -33 -19 -44 -34 -20 -26 -20 -28 -4 -62 16 -34
70 -75 134 -101 18 -8 33 -17 33 -20 0 -9 -68 -34 -94 -34 -13 0 -34 -9 -47
-19 l-24 -19 20 -22 c39 -44 173 -10 206 51 14 27 -16 78 -63 104 -44 25 -98
66 -98 74 0 4 20 12 45 19 48 13 56 29 27 55 -19 17 -49 20 -91 8z"/>
<path d="M4564 4308 c-20 -9 -44 -47 -44 -69 0 -6 -11 -26 -25 -46 l-24 -36
-11 27 c-5 15 -10 33 -10 40 0 21 -27 38 -50 31 -17 -6 -20 -12 -15 -43 3 -20
8 -51 11 -68 8 -53 56 -81 101 -56 22 12 63 72 67 97 4 28 15 27 21 -1 13 -56
28 -84 46 -85 11 -1 25 -2 32 -3 14 -1 12 17 -14 105 -24 82 -55 121 -85 107z"/>
<path d="M3735 4283 c-80 -20 -130 -168 -74 -219 30 -27 49 -11 49 43 0 61 16
91 59 114 19 10 38 22 42 26 21 21 -33 47 -76 36z"/>
<path d="M3891 4261 c-10 -6 -12 -28 -9 -86 3 -66 7 -80 27 -96 39 -31 67 -25
97 24 15 23 28 43 29 45 6 7 45 -23 45 -34 0 -11 22 -24 41 -24 12 0 12 25 0
48 -5 9 -14 28 -20 42 -51 110 -77 116 -124 26 l-21 -41 -11 50 c-11 50 -27
63 -54 46z"/>
<path d="M5070 4145 c-26 -31 23 -85 64 -69 20 8 21 33 0 62 -18 26 -46 29
-64 7z"/>
<path d="M4416 3921 c-3 -5 1 -22 10 -39 8 -17 18 -47 21 -66 5 -32 3 -34 -30
-45 -19 -7 -43 -23 -52 -37 -23 -35 -5 -54 51 -54 l44 0 0 -87 c0 -103 13
-137 54 -141 l28 -4 -2 59 c-1 32 -2 88 -1 125 l1 67 40 11 c22 6 40 14 40 18
-1 18 -33 40 -81 55 -9 3 -25 27 -34 54 -23 64 -73 111 -89 84z"/>
<path d="M5000 3807 c0 -48 -3 -55 -25 -65 -14 -7 -32 -12 -40 -12 -22 0 -55
-37 -49 -55 7 -17 47 -30 64 -20 5 3 19 3 30 0 18 -6 20 -15 20 -99 0 -95 8
-116 42 -116 24 0 26 8 32 113 2 49 6 90 9 93 2 3 25 5 51 6 25 0 46 4 46 9 0
26 -26 59 -51 64 -33 8 -42 18 -60 70 -17 52 -27 65 -50 65 -16 0 -19 -8 -19
-53z"/>
<path d="M3975 3843 c-11 -2 -31 -8 -45 -13 -14 -4 -50 -15 -80 -24 -63 -19
-88 -38 -124 -91 -44 -64 -28 -160 37 -218 41 -37 128 -77 167 -77 73 0 140
62 140 129 0 30 -37 83 -70 101 -32 17 -155 20 -185 4 -54 -28 -60 -12 -14 41
29 33 105 75 136 75 7 0 36 11 63 25 71 36 55 66 -25 48z m-78 -253 c74 0 95
-3 99 -15 9 -22 -22 -64 -52 -71 -56 -14 -164 44 -164 89 0 16 3 18 12 9 8 -8
46 -12 105 -12z"/>
<path d="M3412 3813 c-7 -3 -26 -30 -43 -61 -16 -32 -44 -79 -61 -107 -68
-108 -128 -217 -128 -231 0 -8 12 -20 26 -26 23 -11 28 -9 50 18 32 38 144
224 144 240 0 6 13 35 28 65 36 70 29 117 -16 102z"/>
<path d="M4776 3781 c-19 -21 -14 -41 15 -59 41 -26 68 28 31 61 -23 21 -25
21 -46 -2z"/>
<path d="M4220 3646 c-81 -35 -111 -150 -52 -197 15 -11 32 -17 41 -13 9 4 38
11 66 16 94 18 143 61 131 115 -12 54 -130 104 -186 79z m99 -75 c21 -14 -2
-38 -48 -51 -67 -18 -80 -6 -39 37 22 24 62 30 87 14z"/>
<path d="M4815 3640 c-3 -11 -3 -30 1 -42 8 -27 11 -49 13 -100 1 -35 3 -38
30 -38 27 0 30 4 36 43 5 30 2 55 -9 81 -9 21 -16 47 -16 57 0 27 -46 26 -55
-1z"/>
<path d="M5252 3501 c-8 -4 -14 -23 -15 -42 -2 -27 3 -36 25 -46 14 -7 33 -10
42 -7 21 8 21 53 0 82 -16 23 -31 27 -52 13z"/>
<path d="M2440 3319 c-19 -5 -71 -13 -115 -18 -315 -39 -319 -40 -528 -179
-102 -67 -242 -204 -253 -246 -3 -13 -12 -27 -20 -30 -31 -12 -137 -254 -164
-376 -11 -47 -31 -130 -45 -185 -37 -137 -56 -266 -54 -351 2 -65 -1 -76 -29
-115 -16 -24 -55 -82 -85 -129 -30 -47 -82 -115 -116 -152 -33 -36 -61 -71
-61 -77 0 -16 45 -24 67 -12 28 15 83 81 170 208 43 62 81 113 86 113 4 0 7
-15 7 -33 0 -34 27 -120 54 -172 9 -16 16 -35 16 -42 0 -6 3 -13 8 -15 4 -1
25 -23 47 -48 43 -49 98 -87 172 -121 27 -11 84 -38 128 -58 125 -59 150 -69
189 -76 20 -4 38 -11 41 -15 3 -4 34 -14 69 -21 l64 -12 -5 -56 c-2 -31 -8
-86 -13 -123 -4 -37 -6 -111 -3 -166 6 -95 5 -100 -22 -140 -15 -23 -35 -44
-44 -47 -9 -3 -53 -41 -99 -84 -75 -71 -82 -82 -72 -100 24 -46 79 -15 218
126 l94 93 4 113 c3 61 9 162 14 223 5 61 7 120 4 130 -5 19 2 19 184 19 l189
0 -4 -25 c-8 -61 -1 -262 13 -342 8 -49 13 -92 10 -97 -3 -5 13 -25 37 -45 23
-20 51 -44 62 -53 111 -98 149 -134 170 -164 45 -60 101 -65 85 -8 -11 38 -60
90 -186 200 l-91 78 -11 73 c-24 158 -30 249 -23 328 l6 55 85 12 c133 18 306
73 324 102 4 6 14 11 22 11 20 0 153 101 184 139 14 17 35 43 48 58 12 16 29
44 37 63 9 19 20 42 26 50 11 17 37 73 51 110 l10 25 25 -30 c14 -16 49 -56
79 -88 33 -36 56 -70 60 -92 3 -18 15 -43 25 -54 20 -21 65 -38 76 -28 9 10
-15 67 -52 123 -19 29 -35 57 -35 62 0 5 -19 32 -43 58 -94 107 -108 129 -97
160 19 60 42 250 36 297 -4 28 -3 54 3 61 7 8 6 20 -2 36 -14 28 -9 27 -312
21 -66 -1 -147 0 -180 3 -33 3 -136 8 -230 12 -329 12 -305 13 -321 -10 -18
-26 -19 -139 -1 -158 8 -9 12 -47 12 -118 l1 -104 44 -12 c62 -17 216 -44 267
-47 34 -1 43 -6 43 -20 0 -26 -57 -103 -94 -127 -17 -11 -40 -26 -51 -34 -11
-8 -63 -23 -115 -32 -165 -28 -350 -2 -482 68 -115 62 -169 115 -234 233 -68
123 -81 180 -65 273 7 37 16 87 20 112 9 53 31 131 42 145 4 6 26 46 48 90 80
156 148 222 251 245 30 7 66 16 80 20 28 10 202 37 270 43 54 4 133 -27 170
-68 14 -15 41 -35 61 -46 20 -10 57 -39 82 -64 25 -25 52 -45 61 -45 13 0 66
68 66 84 0 3 22 34 49 70 26 36 54 79 61 96 7 16 16 30 20 30 5 0 39 37 77 83
37 45 71 84 76 85 4 2 7 14 7 27 0 45 -134 150 -225 178 -27 8 -68 22 -90 31
-85 36 -348 57 -435 35z m245 -74 c50 -9 111 -20 137 -25 50 -10 217 -87 257
-119 l25 -19 -32 -36 c-18 -20 -32 -41 -32 -45 0 -5 -37 -56 -81 -112 -45 -57
-91 -121 -103 -142 -17 -30 -25 -36 -43 -32 -26 6 -140 84 -167 114 -10 11
-39 30 -63 42 -42 20 -55 21 -177 16 -72 -3 -147 -11 -166 -16 -19 -6 -71 -17
-115 -26 -44 -9 -92 -20 -108 -25 -25 -8 -34 -1 -132 97 -58 58 -103 109 -99
114 3 5 20 16 37 25 18 9 62 38 98 65 37 27 77 49 90 49 13 0 37 7 52 15 27
14 134 31 252 41 28 2 82 10 120 18 96 18 145 19 250 1z m-864 -332 c82 -84
95 -96 122 -106 26 -10 21 -32 -15 -64 -18 -16 -43 -43 -55 -60 -44 -62 -131
-240 -148 -303 -45 -169 -57 -256 -45 -319 10 -56 56 -161 70 -161 5 0 12 -15
15 -32 4 -18 18 -48 32 -66 22 -29 24 -37 13 -57 -22 -41 -270 -285 -290 -285
-19 0 -70 53 -88 93 -45 95 -52 116 -66 197 -8 47 -19 98 -25 113 -25 65 -7
233 44 412 14 50 30 124 36 165 5 41 16 88 24 105 7 16 29 66 47 110 19 44 48
100 64 125 16 25 31 50 34 56 7 16 63 85 79 98 7 6 23 21 35 33 11 13 26 23
31 23 6 0 44 -35 86 -77z m979 -730 c129 -9 313 -15 408 -14 l172 1 10 -25
c43 -113 -44 -443 -163 -620 -57 -84 -73 -99 -221 -199 -25 -17 -266 221 -266
263 0 5 15 22 33 38 42 37 62 69 78 124 7 24 19 51 27 61 12 14 11 20 -3 42
-16 25 -22 26 -104 26 -82 0 -188 13 -221 27 -8 4 -22 7 -30 7 -11 1 -17 19
-22 71 -4 39 -12 99 -16 135 -5 36 -7 68 -5 73 6 10 59 9 323 -10z m-911 -492
c10 -17 42 -38 166 -106 99 -55 169 -69 345 -69 131 0 177 3 223 18 l58 18 44
-48 c25 -26 45 -54 45 -60 0 -7 19 -27 43 -43 23 -17 61 -48 85 -69 l42 -38
-48 -22 c-27 -12 -67 -22 -89 -22 -22 0 -59 -6 -81 -14 -26 -9 -102 -17 -209
-20 -372 -13 -444 -7 -568 45 -38 16 -74 29 -80 29 -23 1 -270 119 -270 130 0
11 264 286 277 289 4 0 12 -8 17 -18z"/>
</g>
</svg>
