<?xml version="1.0" standalone="no"?>
<!DOCTYPE svg PUBLIC "-//W3C//DTD SVG 20010904//EN"
 "http://www.w3.org/TR/2001/REC-SVG-20010904/DTD/svg10.dtd">
<svg version="1.0" xmlns="http://www.w3.org/2000/svg"
 width="1060.159503pt" height="400.000000pt" viewBox="0 0 1060.159503 400.000000"
 preserveAspectRatio="xMidYMid meet">
<metadata>
Created by potrace 1.15, written by Peter Selinger 2001-2017
</metadata>
<g transform="translate(-47.331916,445.720795) scale(0.069877,-0.069877)"
fill="#444444" stroke="none">
<path d="M2748 6371 c-20 -4 -44 -14 -53 -21 -12 -10 -46 -14 -124 -13 -110 2
-125 -3 -148 -44 -18 -32 -2 -69 34 -76 23 -5 32 -14 43 -47 7 -22 19 -45 27
-52 7 -6 11 -18 8 -27 -2 -9 -1 -36 3 -60 6 -40 4 -47 -20 -73 -22 -24 -26
-34 -18 -49 6 -10 21 -21 35 -25 29 -7 45 -48 45 -118 0 -29 6 -61 15 -72 8
-12 12 -24 9 -27 -9 -9 36 -29 52 -23 8 3 14 16 14 30 0 13 7 27 16 30 11 4
14 12 9 24 -11 28 -23 115 -18 129 3 7 20 13 37 13 18 0 36 3 40 8 4 4 17 8
29 9 12 1 52 12 89 25 60 20 66 25 65 48 -2 22 -8 26 -45 31 -24 3 -45 2 -47
-2 -5 -7 -54 -16 -141 -25 l-50 -6 -13 74 c-7 40 -17 89 -22 109 -14 54 -13
55 39 74 26 10 51 22 57 26 5 5 17 9 28 9 10 0 43 16 72 36 40 26 52 40 48 52
-15 43 -34 48 -115 33z"/>
<path d="M3995 6245 c-86 -40 -161 -133 -171 -210 0 -5 -4 -18 -9 -28 -22 -50
27 -174 88 -221 18 -14 39 -31 47 -38 50 -43 198 -76 215 -48 3 6 14 10 24 10
30 0 129 97 142 140 25 83 -13 93 -77 20 -25 -27 -51 -47 -58 -44 -7 3 -37 -4
-66 -15 -46 -18 -57 -18 -84 -7 -36 15 -96 73 -96 93 0 7 7 13 15 13 30 0 131
59 178 104 40 39 50 57 60 101 14 67 3 102 -38 125 -54 30 -114 32 -170 5z
m136 -96 c7 -12 -51 -75 -101 -111 -19 -14 -50 -28 -67 -30 -29 -4 -33 -2 -33
17 0 35 70 123 110 138 20 8 83 -2 91 -14z"/>
<path d="M3459 6187 c-58 -57 -79 -90 -85 -135 -3 -26 -15 -65 -26 -86 l-20
-40 22 -18 c13 -10 28 -22 34 -26 7 -4 26 -26 44 -49 18 -22 50 -50 72 -62 66
-34 200 -41 200 -10 0 6 9 18 20 27 11 10 21 28 22 42 3 24 3 25 -89 25 -87 0
-94 2 -119 26 -28 29 -25 49 8 49 32 0 110 49 145 92 27 33 32 47 30 81 -2 38
-7 45 -51 75 -42 28 -56 32 -116 32 -57 0 -71 -4 -91 -23z m144 -92 c8 -18
-83 -85 -115 -85 -13 0 -2 47 18 78 17 26 88 32 97 7z"/>
<path d="M3190 6159 c-24 -10 -130 -116 -130 -132 0 -4 -12 -6 -27 -5 l-28 3
0 -80 c-1 -73 4 -102 25 -161 8 -21 85 -66 95 -56 3 3 5 15 5 28 0 12 4 24 9
26 6 2 5 24 -1 55 -9 44 -7 63 8 113 11 33 24 60 31 60 7 0 16 6 20 13 8 12
50 42 87 62 33 17 29 33 -17 59 -24 14 -46 26 -48 25 -2 0 -15 -5 -29 -10z"/>
<path d="M8195 6120 c-59 -16 -102 -38 -178 -88 -34 -23 -38 -29 -35 -61 3
-35 4 -35 44 -34 25 1 60 13 92 32 29 17 59 31 66 31 8 0 19 7 26 15 7 8 21
15 31 15 30 0 23 -42 -16 -99 -60 -87 -95 -165 -101 -228 -6 -54 -4 -61 21
-91 15 -18 35 -32 44 -31 9 2 26 0 37 -4 15 -5 41 1 78 17 47 21 56 29 56 51
0 28 -37 51 -54 34 -6 -5 -23 -9 -39 -9 l-30 0 6 58 c2 32 13 74 23 92 96 169
116 262 62 291 -45 24 -74 26 -133 9z"/>
<path d="M7638 5702 c-15 -7 -36 -28 -48 -47 -23 -37 -49 -131 -50 -177 0 -21
-5 -28 -20 -28 -10 0 -24 -8 -29 -18 -7 -14 -18 -18 -40 -14 -20 3 -41 -2 -59
-14 -33 -23 -97 -44 -134 -44 -68 0 -60 89 14 159 89 84 98 121 28 121 -22 0
-41 -4 -45 -9 -3 -5 -18 -12 -34 -16 -68 -15 -121 -115 -121 -230 0 -74 32
-115 103 -133 52 -14 111 3 154 44 19 18 42 34 51 36 9 2 22 14 27 26 10 24
12 24 90 6 17 -4 37 -12 45 -19 21 -18 159 -75 181 -75 10 0 44 -7 75 -15 61
-16 78 -12 122 29 41 37 45 52 16 71 -24 16 -27 16 -45 -1 -18 -16 -22 -16
-52 -2 -18 8 -48 19 -67 22 -75 15 -100 27 -100 47 0 10 6 19 13 19 7 0 35 18
62 41 113 91 119 102 90 158 -23 45 -81 75 -145 76 -30 0 -67 -6 -82 -13z
m137 -109 c0 -14 -94 -83 -112 -83 -7 0 -13 7 -13 15 0 19 22 68 35 78 16 11
90 4 90 -10z"/>
<path d="M4566 5689 c-16 -4 -51 -23 -78 -41 -54 -37 -57 -49 -36 -150 8 -37
9 -61 2 -68 -15 -15 -106 -15 -142 1 -30 12 -36 12 -77 -10 -72 -38 -135 -123
-135 -182 0 -20 -24 -26 -35 -9 -5 8 -11 7 -21 0 -30 -26 -26 -49 25 -126 28
-42 51 -81 51 -85 0 -5 9 -9 19 -9 11 0 23 -4 26 -10 22 -35 49 19 44 85 -12
140 14 228 81 270 40 25 60 26 60 1 0 -25 36 -45 93 -52 l57 -7 21 -66 c11
-36 21 -94 23 -129 3 -68 8 -76 47 -86 43 -10 61 20 54 85 -11 103 -28 184
-39 192 -16 11 30 47 60 47 12 0 25 4 28 9 3 5 22 12 42 15 62 12 84 27 84 57
0 34 -16 40 -71 28 -24 -6 -51 -8 -61 -6 -10 3 -33 2 -52 -3 -19 -4 -39 -4
-46 0 -19 12 -32 100 -18 118 18 21 94 52 128 52 44 0 82 18 78 36 -6 31 -152
60 -212 43z"/>
<path d="M6735 5591 c-42 -26 -62 -51 -70 -91 l-8 -35 -9 28 c-11 32 -36 35
-66 8 -22 -18 -29 -41 -14 -41 7 0 14 -17 59 -157 14 -46 32 -83 38 -83 7 0
20 -9 30 -20 42 -47 54 -12 55 155 1 55 6 113 13 128 l12 29 29 -23 c31 -24
109 -179 120 -238 8 -46 23 -61 58 -61 36 0 44 20 30 74 -39 150 -42 159 -82
221 -14 22 -30 49 -36 60 -11 21 -87 64 -114 65 -8 0 -28 -8 -45 -19z"/>
<path d="M6349 5546 c-63 -17 -104 -48 -145 -113 -41 -64 -49 -96 -39 -159 9
-62 46 -100 107 -109 36 -5 52 -3 74 12 46 29 74 59 74 77 0 14 15 52 25 64 6
7 45 -19 45 -31 1 -41 98 -99 127 -76 20 17 16 33 -17 82 -16 25 -30 50 -30
56 0 18 -39 91 -61 114 -10 12 -24 33 -31 48 -12 27 -46 50 -71 48 -7 0 -33
-6 -58 -13z m24 -143 c-3 -27 -12 -57 -19 -68 -8 -11 -14 -27 -14 -36 0 -8
-12 -22 -26 -30 -23 -12 -27 -11 -39 5 -26 35 20 130 80 164 11 6 21 12 22 12
2 0 0 -21 -4 -47z"/>
<path d="M5690 5532 c-14 -9 -42 -27 -62 -40 -36 -23 -53 -56 -40 -76 4 -6 12
-38 19 -71 34 -173 40 -184 95 -170 35 9 50 51 41 121 -9 69 -6 124 8 124 5 0
23 -21 39 -47 42 -70 52 -80 80 -87 22 -4 29 0 45 29 10 20 24 40 32 47 16 13
29 -1 69 -79 14 -29 30 -53 34 -53 7 0 22 -40 24 -64 1 -10 33 -24 58 -25 10
-1 25 10 34 24 15 23 15 27 1 43 -8 9 -36 62 -63 117 -26 55 -53 107 -61 115
-7 8 -23 27 -34 42 -12 16 -26 25 -34 21 -8 -3 -15 -1 -15 3 0 5 -15 10 -34
11 -30 1 -34 -2 -46 -38 -15 -46 -24 -49 -42 -12 -7 14 -22 31 -33 37 -11 6
-32 19 -47 29 -31 20 -36 20 -68 -1z"/>
<path d="M5388 5514 c-15 -8 -39 -34 -53 -58 -14 -24 -32 -50 -40 -56 -8 -7
-15 -21 -15 -31 0 -10 -13 -28 -30 -41 -26 -19 -30 -28 -30 -69 0 -33 5 -49
15 -53 9 -3 15 -11 14 -18 -5 -24 12 -58 28 -58 9 0 24 -7 34 -16 26 -23 56
-10 56 24 -1 194 55 312 147 312 34 0 42 18 19 39 -46 43 -96 52 -145 25z"/>
<path d="M3689 5383 c-56 -58 -93 -133 -86 -171 4 -19 -1 -34 -15 -49 l-21
-22 47 -63 c25 -35 52 -71 59 -81 8 -9 45 -33 82 -52 52 -28 80 -36 119 -36
28 0 64 0 80 0 37 0 49 12 79 75 19 40 24 61 18 82 -8 29 -31 46 -31 22 0 -8
-11 -25 -25 -38 -14 -13 -25 -29 -25 -36 0 -25 -164 -4 -174 22 -3 8 -12 14
-20 14 -14 0 -46 41 -46 60 0 5 11 10 24 10 13 0 35 9 49 20 14 11 32 20 41
20 9 0 16 6 16 13 1 6 15 21 32 32 17 11 37 36 45 57 14 34 13 38 -11 77 -29
46 -85 79 -148 87 -41 5 -45 3 -89 -43z m169 -67 c1 -2 0 -10 -4 -19 -5 -15
-115 -77 -136 -77 -31 0 26 89 66 102 18 6 66 2 74 -6z"/>
<path d="M4960 5391 c-8 -6 -17 -8 -22 -5 -18 11 -70 -33 -109 -94 -26 -40
-27 -117 -4 -162 8 -16 14 -33 13 -37 -8 -32 57 -93 99 -93 20 0 75 39 68 50
-6 10 14 26 46 33 38 9 91 82 100 136 9 58 -8 114 -36 119 -11 2 -25 10 -31
18 -10 12 -85 44 -103 44 -3 0 -13 -4 -21 -9z m83 -100 c47 -18 13 -102 -56
-138 -43 -22 -57 -11 -57 44 0 42 4 51 32 75 36 30 45 32 81 19z"/>
<path d="M8350 5351 c-26 -25 -28 -32 -20 -67 5 -21 9 -41 9 -44 0 -3 18 -12
39 -22 32 -13 44 -14 63 -4 52 26 51 118 -2 149 -42 23 -56 22 -89 -12z"/>
<path d="M3240 5318 c-109 -23 -152 -40 -169 -69 -9 -16 -19 -29 -23 -29 -5 0
-8 -4 -8 -10 0 -5 8 -10 18 -10 30 0 59 -40 81 -114 25 -81 25 -76 6 -76 -8 0
-15 -4 -15 -9 0 -5 -9 -13 -20 -16 -32 -10 -27 -53 8 -60 46 -10 54 -19 72
-78 10 -31 21 -65 25 -74 4 -10 9 -49 11 -86 4 -93 22 -174 40 -181 8 -3 23 0
34 6 32 20 34 45 15 213 -3 28 -15 81 -26 118 -11 38 -19 70 -17 72 2 1 32 16
68 32 80 37 91 49 148 152 39 71 28 144 -30 198 -18 17 -38 23 -98 26 -41 2
-95 0 -120 -5z m169 -109 c35 -34 38 -47 16 -55 -8 -4 -15 -12 -15 -19 0 -8
-24 -33 -52 -58 -76 -64 -118 -83 -118 -54 0 8 -8 29 -17 48 -10 19 -23 53
-29 76 -9 35 -8 42 5 46 9 3 41 14 71 26 77 28 103 27 139 -10z"/>
<path d="M2673 5296 c4 -9 -1 -17 -14 -21 -10 -4 -19 -12 -19 -19 0 -8 -7 -19
-15 -26 -8 -7 -15 -20 -15 -29 0 -18 -89 -111 -105 -111 -6 0 -46 -33 -90 -74
-44 -41 -103 -90 -132 -108 -29 -18 -73 -46 -99 -63 -26 -16 -54 -40 -62 -52
-13 -21 -12 -23 4 -29 11 -3 27 -10 36 -15 26 -13 44 -11 88 11 22 11 47 20
57 20 10 0 61 37 113 81 52 45 111 93 132 106 20 13 38 33 41 44 3 11 19 24
36 30 17 6 31 16 31 22 0 6 11 20 24 32 20 16 28 37 37 98 14 86 8 110 -31
115 -17 3 -21 0 -17 -12z"/>
<path d="M1415 4990 c-11 -5 -40 -6 -65 -4 -39 5 -58 -1 -138 -40 -188 -92
-259 -167 -276 -291 -10 -70 -12 -288 -4 -358 10 -82 32 -118 135 -220 47 -47
78 -68 125 -85 202 -76 189 -65 190 -162 2 -126 2 -125 -60 -189 -32 -33 -84
-90 -115 -128 -30 -37 -67 -79 -81 -92 -14 -14 -26 -30 -26 -37 0 -7 -33 -46
-72 -87 -84 -85 -118 -129 -118 -151 0 -9 -8 -16 -18 -16 -41 0 -70 -71 -43
-104 7 -9 23 -16 35 -16 11 0 30 -7 40 -15 11 -8 27 -15 35 -15 30 0 277 -130
318 -167 l42 -38 -3 -225 c-3 -203 -6 -232 -26 -295 -13 -39 -29 -77 -35 -85
-17 -21 -38 -88 -31 -99 7 -11 -12 -25 -34 -26 -10 0 -18 -19 -26 -60 -6 -33
-20 -79 -32 -102 -12 -23 -22 -52 -22 -64 0 -12 -13 -51 -30 -86 -16 -34 -30
-70 -30 -78 0 -24 -32 -99 -52 -121 -10 -11 -18 -25 -18 -31 0 -6 -4 -13 -8
-15 -9 -3 -57 -87 -100 -172 -13 -27 -39 -72 -57 -100 -18 -28 -36 -67 -40
-86 -4 -19 -16 -45 -27 -57 -11 -12 -18 -26 -15 -31 4 -5 -7 -24 -22 -43 -37
-46 -41 -59 -24 -92 9 -19 20 -27 29 -23 9 3 22 6 30 6 8 0 21 15 29 34 8 19
20 38 26 42 6 3 17 21 25 38 8 17 20 40 27 50 66 105 100 164 137 241 24 50
55 108 68 129 47 76 119 232 136 296 10 36 24 83 31 105 7 22 16 52 19 66 4
18 14 29 31 33 17 4 25 13 25 29 0 31 26 101 39 105 6 2 11 -9 11 -27 0 -16 5
-33 10 -36 6 -3 10 -12 10 -19 0 -15 41 -105 68 -151 10 -16 23 -48 30 -71 6
-22 21 -49 32 -59 11 -10 20 -28 20 -40 0 -39 29 -119 62 -171 18 -28 44 -70
58 -93 14 -23 42 -64 63 -90 20 -27 37 -52 37 -55 0 -3 17 -32 38 -63 20 -32
37 -64 37 -70 0 -7 14 -27 31 -46 17 -18 35 -47 39 -65 8 -39 39 -62 82 -62
29 0 33 3 33 28 0 39 -118 271 -166 325 -22 24 -46 57 -54 73 -8 16 -27 45
-42 64 -14 19 -35 53 -46 75 -43 86 -92 194 -92 202 0 16 -66 163 -79 176 -6
6 -11 18 -11 27 0 9 -7 25 -15 36 -8 10 -15 29 -15 42 0 12 -3 22 -8 22 -7 0
-34 87 -53 175 -5 27 -7 71 -4 97 4 26 8 93 10 150 2 57 6 137 10 179 7 73 9
76 31 71 13 -2 21 -9 18 -14 -4 -6 -2 -13 3 -17 33 -20 69 -49 89 -70 33 -34
93 -63 114 -56 30 9 34 41 11 74 -19 26 -56 58 -195 169 -22 18 -45 42 -50 53
-6 13 -4 74 7 172 9 84 19 242 22 352 2 110 7 199 10 198 35 -15 74 -41 127
-84 34 -28 73 -56 84 -61 12 -6 26 -20 32 -33 15 -32 169 -146 262 -192 19
-10 55 -33 80 -51 60 -45 260 -162 276 -162 7 0 16 -9 19 -20 4 -11 19 -27 35
-35 40 -21 44 -31 20 -55 -11 -11 -20 -29 -20 -39 0 -11 -6 -22 -12 -25 -8 -3
2 -18 27 -40 40 -35 88 -60 136 -70 14 -3 104 -57 200 -121 95 -63 177 -115
182 -115 5 0 29 -15 54 -32 64 -46 114 -77 143 -88 14 -6 32 -14 40 -20 8 -5
29 -16 45 -23 36 -17 105 -79 105 -96 0 -6 5 -11 10 -11 6 0 12 0 14 -1 3 0
21 -15 42 -34 48 -44 78 -36 98 28 3 9 14 17 25 17 12 0 27 12 36 29 8 16 24
32 35 36 11 4 20 15 20 26 0 12 14 28 35 40 19 12 33 24 30 28 -2 4 11 15 30
24 42 20 45 46 14 113 -18 42 -22 45 -48 39 -21 -4 -30 -2 -34 9 -4 9 -15 16
-26 16 -10 0 -36 15 -57 34 -74 65 -109 92 -184 141 -41 26 -93 62 -115 80
-43 34 -159 105 -170 105 -4 0 -29 11 -56 25 -27 13 -65 27 -84 31 -19 3 -38
10 -41 15 -3 5 -17 9 -32 9 -42 1 -89 49 -83 87 3 18 -18 27 -87 39 -55 9 -64
8 -78 -7 -9 -10 -14 -28 -13 -41 2 -13 -5 -35 -15 -50 -15 -23 -25 -28 -61
-28 -35 0 -57 10 -123 54 -44 30 -116 74 -159 97 -43 23 -80 45 -83 49 -7 9
-148 101 -182 118 -16 8 -28 18 -28 22 0 4 -11 11 -25 14 -14 4 -65 43 -113
88 -48 44 -98 88 -112 97 -14 9 -45 31 -69 49 -24 18 -59 39 -77 47 -23 9 -35
23 -40 42 -4 15 -12 34 -18 42 -6 8 -12 63 -15 124 l-3 110 29 -6 c18 -4 45 2
73 15 25 11 60 20 79 19 18 0 43 5 54 11 12 6 37 12 55 13 20 1 38 9 44 19 5
9 15 16 22 16 7 0 36 18 64 41 40 33 56 56 82 117 47 111 60 166 60 262 0 97
-9 135 -51 223 -48 101 -56 111 -122 173 -60 56 -154 115 -222 140 -40 15
-215 25 -240 14z m158 -111 c106 -13 180 -52 255 -133 48 -53 103 -152 108
-194 1 -12 10 -36 18 -53 11 -22 13 -37 6 -49 -6 -10 -10 -30 -10 -44 0 -14
-4 -28 -10 -31 -5 -3 -10 -18 -10 -33 0 -52 -54 -182 -75 -182 -7 0 -15 -7
-19 -15 -3 -8 -14 -15 -24 -15 -10 0 -22 -4 -27 -9 -6 -4 -35 -16 -65 -26 -30
-9 -68 -23 -85 -30 -103 -43 -255 -43 -354 0 -200 84 -252 163 -251 379 0 119
17 223 44 274 39 72 129 131 203 133 21 0 61 9 88 19 61 21 95 23 208 9z
m-198 -1526 c-7 -194 -28 -439 -38 -449 -3 -4 -19 2 -34 12 -39 26 -215 114
-228 114 -13 0 -95 43 -95 51 0 3 36 47 80 98 44 50 80 95 80 99 0 4 36 45 80
92 44 47 94 100 110 118 17 17 35 32 41 32 7 0 8 -56 4 -167z m1394 -445 c25
-12 52 -27 58 -34 7 -7 31 -15 54 -19 23 -4 56 -16 74 -27 22 -12 42 -17 58
-13 17 5 28 2 34 -8 4 -8 24 -19 44 -26 40 -13 118 -62 158 -99 14 -13 46 -36
71 -50 48 -27 164 -117 194 -151 19 -20 16 -27 -34 -74 -7 -7 -26 -26 -44 -43
-17 -17 -45 -37 -61 -46 -28 -13 -32 -12 -49 4 -10 9 -55 36 -100 59 -77 39
-144 80 -231 139 -22 15 -56 35 -75 44 -19 8 -84 47 -143 86 -60 38 -112 70
-115 70 -12 1 -52 38 -52 49 0 5 12 16 28 23 20 10 26 20 24 37 -1 15 5 29 18
38 11 8 20 22 20 32 0 36 10 38 69 9z"/>
<path d="M2833 2753 c-25 -10 -14 -44 20 -58 17 -7 42 -23 54 -34 12 -12 27
-21 33 -21 5 0 10 -4 10 -9 0 -17 82 -101 113 -116 53 -27 61 -18 26 29 -17
25 -38 47 -45 50 -8 3 -14 12 -14 21 0 8 -4 15 -9 15 -5 0 -35 25 -67 56 -75
72 -90 80 -121 67z"/>
<path d="M3091 2699 l-23 -19 33 -45 c19 -24 42 -45 52 -45 9 0 17 -7 17 -15
0 -8 16 -32 35 -54 19 -21 35 -42 35 -47 1 -19 36 -52 62 -58 27 -6 27 -5 17
21 -25 63 -35 79 -61 101 -16 13 -28 29 -28 36 0 7 -11 23 -25 36 -14 13 -25
29 -25 35 0 6 -15 25 -32 42 l-33 32 -24 -20z"/>
<path d="M7820 2569 c-7 -11 -36 -49 -66 -84 -30 -36 -54 -68 -54 -72 0 -9
-16 -26 -108 -109 -38 -35 -65 -70 -70 -88 -5 -19 -16 -32 -29 -36 -32 -8 -73
-47 -73 -69 0 -25 26 -51 49 -51 10 0 30 -9 44 -20 17 -14 47 -23 84 -26 32
-3 91 -12 131 -20 40 -8 125 -17 189 -20 65 -3 121 -8 125 -10 14 -9 58 40 58
64 0 13 -5 32 -11 43 -6 12 -11 42 -12 67 -2 49 -10 60 -71 93 l-30 16 25 14
c38 21 492 20 539 -2 33 -15 72 -24 145 -34 129 -16 259 -55 330 -97 17 -10
40 -22 53 -28 12 -5 25 -17 28 -25 4 -9 21 -23 38 -32 17 -8 64 -41 104 -72
40 -31 93 -67 117 -81 82 -47 305 -243 305 -268 0 -16 31 -23 46 -11 8 6 14
23 14 36 0 26 -64 132 -90 147 -8 5 -26 21 -40 35 -57 60 -219 191 -235 191
-3 0 -14 9 -25 20 -11 11 -26 20 -34 20 -8 0 -18 9 -21 20 -3 11 -11 20 -17
20 -10 0 -63 36 -128 88 -15 12 -33 22 -39 22 -5 0 -15 8 -20 19 -6 10 -30 25
-53 34 -24 8 -56 20 -73 25 -45 16 -166 42 -197 42 -15 0 -44 9 -65 19 -52 27
-222 48 -298 38 -33 -5 -69 -8 -80 -7 -11 0 -60 3 -109 6 -65 4 -101 1 -137
-10 -52 -17 -95 -21 -103 -8 -3 5 -14 44 -26 87 -32 119 -81 170 -110 114z"/>
<path d="M4356 2134 c-30 -16 -101 -85 -115 -111 -6 -12 -11 -32 -11 -45 0
-13 -6 -30 -12 -36 -10 -10 -10 -15 1 -21 9 -6 15 -32 17 -71 2 -39 9 -70 21
-87 10 -14 23 -33 28 -41 21 -34 33 -46 107 -119 83 -81 94 -91 149 -120 20
-10 51 -36 69 -56 28 -33 32 -42 26 -76 -4 -28 -2 -42 9 -51 8 -7 15 -17 15
-23 0 -5 25 -34 55 -64 30 -30 55 -56 55 -58 0 -12 -65 -98 -81 -108 -11 -7
-19 -17 -19 -23 0 -6 -15 -23 -33 -36 -21 -17 -36 -40 -44 -69 -6 -24 -15 -52
-18 -61 -5 -13 -2 -18 9 -18 9 0 16 -6 16 -13 0 -8 35 -30 78 -49 61 -28 97
-37 163 -43 l85 -7 25 29 c14 16 30 56 38 93 19 86 81 173 114 161 82 -31 146
-33 332 -11 44 5 123 12 175 15 52 3 122 10 155 16 63 10 169 17 342 24 57 2
112 9 123 15 17 9 21 8 26 -7 3 -10 9 -28 14 -39 5 -13 4 -26 -1 -31 -7 -7 -6
-19 2 -35 9 -22 8 -30 -11 -56 -16 -22 -23 -48 -27 -100 l-4 -70 43 -35 c55
-44 72 -49 133 -38 142 26 179 38 201 66 29 37 33 65 33 219 0 80 4 133 10
139 8 8 21 6 46 -7 33 -18 35 -18 103 6 51 18 75 22 93 16 13 -5 40 -8 60 -5
20 3 43 1 52 -4 16 -9 95 5 131 23 10 5 36 11 57 12 44 4 78 29 74 54 -12 60
-18 74 -42 102 -33 40 -67 54 -93 38 -14 -9 -25 -9 -42 -1 -29 13 -173 53
-192 53 -31 0 -142 82 -180 133 -68 91 -138 155 -201 183 -33 15 -62 30 -65
34 -9 12 -48 30 -65 30 -9 0 -54 18 -98 39 -94 45 -140 61 -173 61 -13 0 -63
14 -112 30 -78 26 -104 30 -199 30 -60 0 -113 -4 -118 -9 -6 -5 -42 -4 -85 1
-57 7 -92 6 -145 -5 -38 -8 -79 -11 -90 -7 -11 4 -31 2 -45 -5 -14 -7 -47 -15
-75 -19 -27 -5 -59 -9 -70 -11 -35 -6 -148 -45 -203 -71 -29 -13 -59 -24 -66
-24 -7 0 -26 -10 -41 -22 -21 -17 -33 -19 -53 -12 -26 9 -32 20 -118 229 -29
71 -104 165 -131 165 -8 0 -24 5 -36 12 -28 15 -144 17 -171 2z m49 -131 c-16
-35 -11 -67 10 -71 11 -2 28 -11 38 -20 14 -12 22 -13 42 -4 25 12 29 23 25
75 -2 36 25 36 35 0 3 -15 17 -39 30 -55 13 -15 26 -41 30 -58 4 -16 11 -32
16 -35 5 -4 9 -13 9 -21 0 -8 9 -34 20 -56 11 -23 20 -47 20 -54 0 -7 8 -19
18 -26 55 -41 72 -100 32 -113 -10 -3 -20 -15 -23 -26 -5 -19 -9 -18 -54 17
-26 20 -63 43 -82 51 -53 23 -177 140 -211 200 -42 74 -42 142 -1 184 33 33
57 39 46 12z m1167 -246 c-8 -10 -8 -23 0 -50 10 -34 9 -39 -15 -63 -14 -14
-31 -23 -36 -20 -6 4 -36 -2 -68 -13 -47 -15 -64 -27 -87 -61 -15 -23 -34 -44
-42 -47 -14 -5 -124 45 -124 57 0 4 -12 13 -27 19 -32 13 -147 115 -121 107 9
-2 22 1 28 9 7 8 53 28 104 44 75 25 118 32 237 38 145 9 172 5 151 -20z m398
14 c14 -5 37 -12 51 -15 18 -4 29 -14 33 -32 6 -22 0 -33 -39 -71 -25 -25 -45
-50 -45 -57 0 -17 -86 -86 -107 -86 -10 0 -34 10 -53 22 -19 13 -51 30 -71 38
-19 8 -47 25 -62 36 -26 21 -27 24 -17 75 6 29 8 61 4 71 -3 10 -3 22 0 27 8
12 272 5 306 -8z m305 -99 c85 -30 195 -88 195 -103 0 -5 -13 -15 -30 -24 -28
-14 -31 -14 -50 5 -11 11 -28 20 -38 20 -11 0 -33 16 -51 35 -17 19 -35 35
-39 35 -8 1 -79 60 -71 60 3 0 41 -13 84 -28z m-105 -28 c0 -19 61 -94 77 -94
6 0 16 -12 21 -27 6 -16 22 -40 36 -55 17 -18 26 -38 26 -61 0 -18 5 -38 11
-44 6 -6 9 -23 5 -36 -5 -20 -19 -28 -73 -46 -75 -23 -189 -29 -240 -13 -22 7
-45 7 -73 0 -53 -14 -63 -4 -61 62 1 45 6 58 43 102 24 28 62 69 84 92 23 22
49 55 59 72 16 28 58 63 78 64 4 0 7 -7 7 -16z m-1162 -55 c17 -16 32 -34 32
-39 0 -4 20 -20 44 -34 25 -14 48 -35 51 -46 8 -24 -15 -50 -44 -50 -12 0 -21
-5 -21 -12 0 -19 -92 -108 -111 -108 -29 0 -153 178 -143 204 8 21 126 116
144 116 8 0 30 -14 48 -31z m615 -51 c18 -12 34 -25 37 -29 3 -3 16 -10 30
-14 14 -4 44 -23 67 -42 35 -28 42 -40 41 -66 0 -18 2 -45 6 -62 11 -52 -11
-78 -78 -91 -33 -7 -84 -11 -115 -9 -34 2 -62 -2 -71 -10 -27 -22 -58 -24 -76
-4 -9 10 -14 19 -11 19 5 0 -32 92 -54 132 -27 51 17 117 109 162 37 18 71 34
75 35 5 0 23 -9 40 -21z m960 -50 c39 -38 49 -76 33 -123 -16 -44 -48 -64
-107 -65 -43 0 -65 16 -72 54 -5 31 9 86 23 86 5 0 15 6 22 13 17 16 70 57 74
57 2 0 14 -10 27 -22z m-1279 -94 c3 -9 6 -22 6 -31 0 -8 10 -36 23 -62 31
-63 25 -89 -20 -97 -20 -4 -38 -2 -42 3 -3 6 -22 10 -41 11 -66 1 -120 7 -120
13 0 4 -9 9 -20 12 -43 11 -18 44 89 121 23 17 41 33 41 38 0 16 78 9 84 -8z
m-467 -131 c-8 -7 -57 20 -57 32 0 25 16 25 38 0 13 -15 21 -29 19 -32z m1978
17 c10 -11 28 -20 39 -20 12 0 30 -6 41 -14 12 -8 62 -17 118 -21 54 -4 95
-10 92 -14 -15 -14 -110 -29 -122 -19 -7 6 -24 7 -38 4 -40 -10 -195 -14 -200
-6 -3 4 1 23 9 41 7 19 16 42 19 52 8 22 20 22 42 -3z m-1552 -160 c10 0 16
-4 13 -9 -3 -4 -20 -7 -38 -6 -87 4 -98 6 -98 13 0 4 24 6 53 5 28 -1 60 -2
70 -3z m-328 -46 c35 -14 36 -16 21 -33 -31 -35 -56 -95 -56 -137 0 -64 -7
-74 -50 -74 -22 0 -42 5 -45 10 -3 6 -17 10 -30 10 -13 0 -36 11 -52 24 l-27
24 28 43 c36 54 135 148 157 149 9 0 33 -7 54 -16z m1590 -109 c4 -49 11 -97
16 -106 12 -23 -17 -78 -44 -84 -12 -2 -40 -4 -62 -3 -22 1 -53 -2 -68 -6
l-28 -8 6 53 c4 30 11 67 17 82 6 16 11 59 12 97 l1 68 72 -2 71 -1 7 -90z"/>
<path d="M14686 1927 c-14 -48 -26 -132 -27 -187 -2 -116 -3 -119 -57 -119
-45 1 -142 -38 -157 -61 -4 -6 -34 -7 -74 -4 l-68 7 -16 -34 c-29 -62 -36 -87
-38 -138 -3 -67 -12 -80 -37 -58 -10 9 -23 17 -29 17 -35 0 -22 -100 19 -153
16 -21 31 -50 32 -65 4 -38 30 -39 57 -1 19 28 22 45 24 141 3 110 22 187 49
189 6 0 34 0 61 -1 28 -1 66 5 85 13 19 8 59 17 88 20 l52 6 -1 -37 c0 -20 -4
-63 -8 -95 -4 -36 -2 -90 6 -140 17 -108 16 -107 50 -98 l28 7 2 135 c1 74 5
153 8 176 6 44 0 41 94 58 33 7 59 51 41 69 -6 6 -36 20 -68 32 -44 16 -57 25
-55 40 10 100 14 229 9 256 -6 31 -10 35 -37 36 -16 0 -32 -5 -33 -11z"/>
<path d="M14907 1912 c-27 -28 -28 -32 -20 -88 6 -44 12 -58 24 -57 13 3 14
-6 6 -66 -7 -49 -6 -96 3 -158 7 -48 13 -138 15 -200 1 -62 6 -120 10 -130 5
-10 7 -26 6 -36 -3 -26 17 -47 45 -47 17 0 24 6 24 20 0 10 7 23 16 28 13 7
15 17 10 38 -4 16 -18 103 -32 193 -13 90 -28 179 -33 199 -7 24 -7 41 1 55 6
12 8 39 4 66 -4 25 -7 53 -6 61 1 78 -1 95 -16 103 -8 5 -19 17 -22 28 -7 18
-9 18 -35 -9z"/>
<path d="M13433 1763 c-19 -19 -21 -31 -18 -151 1 -72 -1 -135 -4 -140 -9 -13
-67 -29 -134 -37 -89 -10 -145 -69 -101 -106 12 -10 25 -10 62 -1 26 6 76 12
112 14 l65 3 -2 -60 c-1 -33 -9 -78 -16 -100 -13 -35 -13 -45 -1 -68 8 -14 24
-32 36 -38 18 -10 24 -8 35 7 20 27 32 82 35 154 2 36 8 69 13 73 6 6 6 10 -2
14 -19 7 -16 37 5 57 16 13 24 14 51 5 19 -7 36 -8 41 -3 11 11 2 54 -11 54
-5 0 -9 6 -9 13 0 15 -41 37 -70 37 -15 0 -20 10 -24 53 -10 84 -14 140 -15
173 -1 16 -7 38 -14 49 -13 17 -15 17 -34 -2z"/>
<path d="M15425 1634 c-109 -22 -128 -28 -166 -58 -43 -35 -102 -113 -94 -126
2 -3 -7 -33 -20 -66 -14 -33 -22 -68 -18 -79 8 -26 81 -125 93 -125 4 0 22
-12 39 -26 24 -20 43 -26 84 -27 151 -3 211 28 155 80 -35 32 -59 41 -113 44
-28 1 -63 9 -79 17 l-28 14 33 29 c19 15 57 36 86 45 75 25 159 93 165 135 6
41 -20 109 -41 109 -9 0 -27 9 -41 20 -14 11 -27 19 -30 19 -3 -1 -14 -3 -25
-5z m35 -115 c12 -18 -5 -36 -54 -61 -23 -11 -51 -29 -63 -40 -19 -18 -103
-43 -103 -31 0 15 45 87 75 118 33 36 37 37 86 33 28 -3 55 -11 59 -19z"/>
<path d="M12568 1472 c-30 -13 -137 -101 -154 -128 -18 -27 -37 -116 -36 -169
0 -16 7 -43 16 -60 9 -16 16 -35 16 -41 0 -21 41 -63 76 -80 40 -19 73 -16
157 16 42 16 57 26 57 41 0 10 6 19 13 19 19 0 60 47 52 59 -10 17 -38 13 -99
-15 -79 -36 -119 -36 -156 2 -34 35 -50 84 -27 84 22 0 131 53 169 82 18 14
43 28 55 32 28 9 32 22 26 79 -5 43 -9 48 -47 67 -42 20 -86 25 -118 12z m31
-118 c-13 -16 -28 -23 -78 -39 l-24 -7 22 31 c18 25 30 31 58 31 31 0 34 -2
22 -16z"/>
<path d="M13712 1467 c-5 -7 -13 -23 -17 -35 -11 -38 -8 -317 4 -340 24 -45
108 -60 118 -21 3 10 13 19 22 19 32 0 62 32 93 101 35 75 48 86 48 39 0 -17
4 -38 9 -48 6 -9 13 -34 16 -55 12 -77 72 -102 101 -42 19 42 12 70 -16 62
-16 -4 -20 0 -20 22 0 14 -6 35 -13 46 -7 11 -19 38 -26 60 -38 109 -97 150
-112 76 -4 -18 -12 -43 -17 -55 -6 -11 -19 -41 -30 -66 -29 -65 -57 -91 -85
-81 -21 8 -22 13 -23 137 0 166 -1 167 -23 181 -15 9 -21 9 -29 0z"/>
<path d="M12175 1445 c-57 -26 -74 -47 -80 -99 -4 -27 -13 -62 -21 -77 -11
-23 -12 -42 -4 -96 5 -37 10 -71 10 -75 0 -4 14 -15 31 -23 47 -25 55 -10 58
102 1 92 14 161 29 164 28 5 56 9 112 15 61 6 110 25 110 42 0 9 -168 62 -195
62 -11 -1 -33 -7 -50 -15z"/>
<path d="M11876 1393 c-4 -4 -15 -26 -25 -48 -19 -44 -94 -146 -133 -182 -30
-29 -80 -40 -95 -21 -11 14 -4 89 15 162 11 42 1 86 -20 86 -16 0 -40 -35 -50
-70 -40 -147 -40 -207 -2 -255 20 -26 30 -30 71 -30 66 0 166 67 192 129 19
44 51 79 51 56 0 -7 12 -29 28 -49 30 -40 46 -66 61 -97 17 -38 48 -53 82 -41
37 14 37 34 -1 77 -16 19 -29 40 -30 46 0 6 -11 23 -24 37 -14 15 -20 30 -16
37 4 7 0 33 -10 59 -10 25 -24 61 -30 79 -12 31 -45 44 -64 25z"/>
<path d="M9510 1381 c-8 -5 -55 -12 -104 -16 -50 -4 -114 -13 -143 -21 -30 -8
-65 -14 -78 -14 -13 0 -40 -7 -59 -17 -42 -19 -58 -65 -33 -91 14 -13 23 -13
78 -2 44 10 63 18 66 31 4 15 9 16 23 9 10 -6 29 -10 41 -10 21 0 22 -2 15
-77 -3 -42 -6 -106 -6 -143 l0 -67 -37 -16 c-103 -45 -173 -96 -173 -126 0 -9
9 -22 20 -29 18 -11 31 -9 83 10 34 12 68 31 76 41 11 15 22 18 54 14 33 -5
43 -1 63 20 14 15 62 38 131 61 70 24 108 42 108 51 0 18 -89 40 -162 41 l-51
0 -6 38 c-3 20 -6 73 -8 116 l-3 79 30 9 c17 5 54 15 84 21 60 13 77 31 67 70
-5 21 -12 27 -34 27 -15 0 -34 -4 -42 -9z"/>
<path d="M10377 1379 c-70 -17 -97 -37 -124 -95 l-25 -55 20 -47 c17 -40 33
-56 111 -107 49 -33 90 -63 90 -67 2 -14 -105 -76 -140 -82 -43 -8 -98 9 -120
37 -17 21 -39 16 -39 -9 0 -21 48 -91 68 -99 38 -16 86 -23 106 -16 11 5 39
14 61 21 76 24 135 86 135 142 0 20 5 17 48 -24 26 -25 69 -58 96 -74 43 -24
60 -28 136 -28 62 -1 93 3 110 15 14 9 36 19 50 22 28 7 90 60 90 76 0 14 -31
14 -65 1 -35 -13 -173 -15 -205 -2 -84 33 -109 46 -104 54 3 4 31 21 62 37 54
27 140 92 203 152 25 23 27 30 19 65 -6 25 -21 49 -42 67 -38 32 -70 32 -141
-2 -23 -10 -52 -22 -64 -26 -12 -3 -38 -24 -56 -46 -19 -21 -39 -39 -45 -39
-6 0 -28 -27 -49 -60 -44 -69 -78 -89 -122 -70 -16 6 -37 20 -47 31 -9 10 -23
19 -31 19 -20 0 -55 81 -42 97 6 6 40 18 76 27 58 13 113 45 113 67 0 5 -83
31 -92 28 -2 -1 -20 -5 -41 -10z m502 -88 c26 -17 -20 -61 -113 -107 -96 -47
-161 -59 -149 -26 7 20 99 114 126 129 23 12 118 15 136 4z"/>
<path d="M11280 1375 c-19 -7 -46 -16 -60 -19 -38 -9 -92 -86 -113 -162 -18
-64 -18 -69 -1 -113 19 -50 64 -100 105 -118 39 -17 107 1 144 38 17 16 42 39
58 50 27 21 37 49 16 49 -7 0 -43 -9 -82 -21 -78 -23 -107 -20 -143 16 -34 34
-33 96 2 142 30 40 91 73 134 73 23 0 33 6 42 25 22 49 -28 69 -102 40z"/>
<path d="M15743 1255 c-27 -19 -34 -72 -15 -113 14 -29 20 -33 51 -30 32 3 36
7 53 53 l17 50 -30 28 c-34 31 -46 33 -76 12z"/>
<path d="M9860 1240 c-51 -9 -77 -29 -112 -85 l-31 -50 -11 32 c-6 18 -14 33
-18 33 -5 0 -12 0 -17 0 -21 0 -21 -44 0 -152 21 -115 31 -138 55 -138 13 0
23 30 44 130 14 71 46 137 70 145 37 12 130 -61 130 -101 0 -13 5 -26 11 -29
6 -4 8 -22 4 -46 -7 -38 10 -107 30 -121 21 -15 43 -7 49 17 9 37 -22 182 -51
236 -14 26 -46 67 -71 91 -43 40 -50 44 -82 38z"/>
</g>
</svg>
