<?xml version="1.0" standalone="no"?>
<!DOCTYPE svg PUBLIC "-//W3C//DTD SVG 20010904//EN"
 "http://www.w3.org/TR/2001/REC-SVG-20010904/DTD/svg10.dtd">
<svg version="1.0" xmlns="http://www.w3.org/2000/svg"
 width="371.287042pt" height="400.000000pt" viewBox="0 0 371.287042 400.000000"
 preserveAspectRatio="xMidYMid meet">
<metadata>
Created by potrace 1.15, written by Peter Selinger 2001-2017
</metadata>
<g transform="translate(-34.141204,414.366462) scale(0.031884,-0.031884)"
fill="#444444" stroke="none">
<path d="M8810 12983 c-22 -16 -22 -19 -16 -147 3 -72 9 -152 12 -178 l7 -48
-39 -16 c-83 -35 -134 -96 -134 -161 0 -84 64 -144 154 -145 94 -1 177 39 162
77 -4 12 -16 15 -53 10 -143 -16 -168 -12 -179 29 -9 37 4 65 39 87 18 10 35
19 39 19 3 0 25 -16 48 -35 23 -19 48 -35 55 -35 23 0 27 38 11 88 -19 57 -35
192 -40 327 -5 135 -18 161 -66 128z"/>
<path d="M6581 12977 c-23 -11 -23 -14 -17 -97 7 -95 12 -145 22 -207 6 -42 6
-42 -35 -59 -23 -9 -41 -19 -41 -23 0 -3 -14 -22 -30 -41 -17 -19 -33 -45 -36
-57 -7 -25 21 -81 46 -93 97 -48 135 -50 196 -15 66 39 75 57 55 108 -9 23
-29 63 -44 89 -29 48 -43 133 -51 305 -3 65 -16 104 -35 102 -3 0 -17 -5 -30
-12z m39 -474 c12 -16 31 -33 43 -39 20 -11 18 -13 -23 -21 -47 -10 -84 0
-109 30 -10 13 -8 19 10 36 31 28 53 26 79 -6z"/>
<path d="M3626 12804 c-49 -8 -106 -19 -128 -24 -37 -10 -108 -63 -108 -80 0
-15 82 -105 104 -114 11 -6 49 -22 83 -38 95 -42 119 -98 60 -141 -22 -17 -43
-21 -110 -21 -74 -1 -82 -3 -82 -20 0 -10 13 -28 28 -40 23 -17 43 -21 105
-21 71 0 81 3 123 32 52 37 59 48 59 103 0 29 -9 49 -41 89 -36 46 -100 91
-128 91 -13 0 -91 52 -91 61 0 10 29 20 80 26 25 3 53 10 63 15 10 5 48 8 83
7 68 -2 84 6 84 43 0 39 -67 50 -184 32z"/>
<path d="M5883 12776 c-47 -40 -43 -77 14 -131 27 -25 65 -55 85 -67 20 -12
39 -27 42 -35 6 -16 -43 -43 -77 -43 -14 0 -35 -9 -48 -19 -20 -16 -22 -23
-13 -38 9 -15 25 -18 90 -18 67 0 85 4 116 25 46 31 56 68 25 93 -43 35 -52
43 -92 72 -50 37 -95 82 -95 95 0 6 26 10 59 10 93 0 121 8 121 36 0 34 -28
44 -119 44 -69 0 -83 -3 -108 -24z"/>
<path d="M6234 12775 c-8 -30 0 -41 37 -50 32 -8 43 11 25 46 -17 35 -54 37
-62 4z"/>
<path d="M5285 12748 c-33 -19 -67 -60 -87 -105 -15 -34 -24 -43 -43 -43 -31
0 -31 -2 1 -92 30 -85 39 -96 79 -100 l30 -3 6 96 c8 114 14 137 46 167 18 17
36 22 74 22 61 0 62 15 3 47 -44 24 -79 28 -109 11z"/>
<path d="M4990 12723 c-38 -6 -103 -38 -123 -61 -10 -11 -20 -32 -23 -48 -2
-16 -7 -35 -10 -43 -6 -18 30 -92 59 -119 47 -44 167 -72 167 -38 0 8 12 17
26 20 37 10 56 30 41 45 -15 15 -37 14 -57 -4 -14 -12 -23 -13 -51 -4 -39 13
-69 37 -69 54 0 6 16 17 36 24 19 7 51 26 70 43 70 61 27 146 -66 131z"/>
<path d="M6916 12704 c-30 -29 -66 -81 -66 -93 0 -7 -10 -26 -21 -43 -27 -37
-23 -126 7 -159 41 -45 188 -92 231 -74 10 5 22 7 27 6 11 -2 33 16 56 49 16
23 17 30 6 45 -12 16 -15 16 -37 2 -39 -25 -110 -31 -154 -12 -36 14 -54 30
-55 46 0 4 26 18 58 32 116 52 162 125 109 175 -43 40 -133 55 -161 26z m85
-64 c10 -6 19 -15 19 -20 0 -12 -65 -40 -91 -40 -18 0 -19 2 -4 29 20 40 42
49 76 31z"/>
<path d="M9645 12690 c-89 -25 -105 -33 -158 -82 -44 -41 -49 -44 -58 -27 -24
46 -65 -3 -56 -67 14 -105 72 -214 114 -214 12 0 33 82 33 131 0 75 50 135
140 169 30 11 64 25 75 30 11 5 37 14 58 20 100 31 -43 70 -148 40z"/>
<path d="M4542 12687 c-31 -37 34 -247 77 -247 11 0 23 -4 26 -10 22 -36 68
16 81 92 12 70 16 80 50 118 34 37 34 39 15 49 -57 31 -99 1 -127 -88 -10 -33
-22 -61 -26 -61 -4 0 -14 25 -22 55 -9 30 -27 66 -39 81 -20 23 -24 24 -35 11z"/>
<path d="M7720 12692 c-9 -4 -35 -23 -59 -42 -40 -32 -42 -37 -36 -70 4 -19 8
-51 10 -70 6 -67 31 -133 54 -143 11 -6 24 -7 27 -4 4 3 7 56 8 117 1 109 2
112 29 136 15 13 37 25 48 25 10 1 25 2 32 2 6 1 36 -7 66 -18 l53 -20 -7 -45
c-18 -104 1 -151 78 -198 79 -48 177 -40 234 20 25 26 26 29 11 45 -15 14 -19
14 -34 2 -10 -8 -42 -14 -83 -15 -118 -1 -144 33 -43 56 33 8 67 23 80 37 13
12 27 23 32 23 19 0 10 77 -12 105 -24 31 -74 55 -113 55 -27 0 -72 -24 -92
-50 -10 -13 -21 -10 -91 18 -81 33 -164 48 -192 34z m424 -91 c20 -22 15 -27
-44 -49 -77 -30 -101 -12 -52 38 35 34 71 39 96 11z"/>
<path d="M4365 12684 c-11 -3 -45 -26 -75 -53 l-54 -48 14 -57 c7 -31 17 -59
22 -62 4 -3 8 -16 8 -29 0 -16 11 -30 36 -45 53 -33 63 -17 41 68 -29 116 -2
172 85 172 50 0 63 15 33 40 -16 13 -78 21 -110 14z"/>
<path d="M9155 12676 c-61 -28 -165 -159 -165 -207 0 -60 137 -160 216 -158
62 2 85 12 99 45 20 48 6 61 -45 44 -37 -12 -47 -12 -96 5 -62 21 -71 41 -18
43 20 1 44 8 53 16 9 7 26 17 37 20 35 11 54 40 60 93 6 47 5 50 -30 81 -40
35 -65 39 -111 18z m63 -91 c3 -23 -19 -39 -66 -50 -27 -5 -32 -4 -32 11 0 10
10 28 22 41 27 29 72 28 76 -2z"/>
<path d="M5510 12671 c0 -5 -2 -16 -5 -23 -10 -26 82 -60 174 -63 94 -3 121 2
121 21 0 20 -31 33 -128 54 -94 21 -162 26 -162 11z"/>
<path d="M3928 12647 c-41 -24 -92 -88 -101 -128 -18 -75 -17 -94 11 -134 40
-57 90 -79 172 -73 110 8 265 99 207 121 -8 3 -20 1 -28 -4 -8 -5 -27 -9 -44
-9 -16 0 -52 -7 -79 -15 -61 -18 -119 -20 -114 -3 4 12 28 28 93 64 17 9 37
23 45 31 8 8 24 20 34 27 33 22 11 74 -48 114 -57 38 -95 40 -148 9z m110 -59
c27 -27 13 -45 -63 -75 -74 -30 -75 -30 -75 -9 1 32 30 64 75 80 50 18 49 18
63 4z"/>
<path d="M8387 12638 c-51 -55 -70 -113 -63 -193 5 -56 11 -73 29 -87 39 -31
52 -19 54 47 4 91 23 195 37 195 24 0 36 -25 57 -119 22 -97 47 -141 79 -141
42 0 28 124 -25 230 -51 102 -114 127 -168 68z"/>
<path d="M6265 12570 c-16 -30 -19 -67 -9 -95 7 -18 58 -47 68 -38 11 12 6
139 -6 151 -20 20 -37 14 -53 -18z"/>
<path d="M7773 12253 c-30 -12 -14 -58 51 -142 l41 -54 -1 -106 c0 -91 -4
-117 -28 -181 -43 -114 -44 -128 -10 -136 23 -6 32 -2 56 25 16 18 28 43 28
59 0 15 4 32 9 38 21 21 44 141 42 224 -2 80 -4 88 -38 140 -36 54 -117 141
-131 139 -4 0 -13 -3 -19 -6z"/>
<path d="M5945 12198 c-11 -6 -27 -19 -37 -27 -26 -25 -75 -181 -83 -265 -7
-70 -5 -80 19 -128 35 -71 85 -127 116 -130 38 -4 37 31 -3 93 -44 69 -50 90
-48 162 1 60 39 175 69 209 8 10 15 34 16 55 1 41 -15 51 -49 31z"/>
<path d="M6478 12203 c-24 -6 -30 -33 -19 -84 9 -44 7 -189 -4 -344 l-6 -80
30 -18 c42 -24 48 -22 55 22 8 53 9 473 0 494 -6 17 -21 19 -56 10z"/>
<path d="M7576 12175 c-14 -22 -15 -36 -6 -103 6 -42 14 -97 17 -122 6 -43 33
-79 61 -80 21 0 34 51 26 100 -12 70 -12 71 -17 133 -7 87 -48 123 -81 72z"/>
<path d="M6150 12053 c-68 -25 -120 -57 -120 -73 0 -22 56 -73 113 -101 66
-33 99 -69 63 -69 -7 0 -19 -7 -27 -16 -12 -15 -61 -16 -134 -3 -27 5 -32 -31
-7 -60 20 -26 55 -30 137 -16 68 11 112 41 120 82 7 40 -5 64 -42 83 -48 24
-113 70 -113 80 0 18 81 32 121 22 44 -11 65 3 54 37 -10 32 -112 53 -165 34z"/>
<path d="M7106 12002 c-4 -7 -16 -12 -26 -12 -32 0 -31 -110 3 -203 6 -17 25
-36 47 -47 36 -18 39 -18 70 -2 17 10 37 28 44 40 l12 22 23 -30 c27 -37 59
-51 84 -38 10 5 32 39 49 76 17 37 40 74 51 83 14 12 18 23 14 42 -11 43 -32
39 -90 -16 l-54 -53 -30 35 c-27 33 -32 35 -56 24 -14 -7 -38 -33 -53 -58 -34
-59 -48 -47 -46 40 0 48 -4 70 -17 86 -12 15 -20 19 -25 11z"/>
<path d="M6783 11960 c-37 -9 -68 -27 -111 -67 -25 -23 -31 -39 -37 -88 -6
-58 -5 -61 24 -89 29 -28 31 -28 75 -16 24 7 48 10 53 7 5 -3 30 -1 56 5 78
16 150 114 127 173 -11 29 -75 76 -93 69 -8 -3 -18 -1 -22 5 -7 12 -25 13 -72
1z m100 -75 c19 -19 12 -48 -23 -84 -41 -45 -139 -55 -154 -15 -12 30 37 97
79 107 41 10 84 7 98 -8z"/>
<path d="M7628 11779 c-26 -15 -22 -54 8 -78 28 -22 56 -16 68 15 10 25 7 32
-16 54 -24 22 -35 24 -60 9z"/>
<path d="M6792 11399 l-24 -9 6 -232 c2 -128 7 -251 10 -273 17 -134 1 -350
-27 -384 -7 -9 -22 -43 -33 -76 -10 -33 -25 -64 -31 -68 -7 -4 -13 -13 -13
-18 0 -16 -130 -136 -165 -153 -47 -23 -65 -27 -144 -31 -40 -2 -78 -8 -85
-14 -17 -14 -156 -29 -193 -21 -17 4 -52 4 -77 -1 -25 -5 -52 -6 -59 -3 -23 8
-347 -45 -347 -58 0 -4 -7 -5 -16 -1 -13 5 -60 -12 -74 -27 -3 -3 -30 -12 -60
-19 -30 -8 -80 -28 -110 -44 -30 -17 -76 -43 -101 -57 -103 -56 -178 -125
-259 -236 -19 -26 -46 -59 -58 -73 -13 -15 -32 -42 -42 -61 -9 -19 -25 -48
-34 -65 -9 -16 -16 -36 -16 -43 0 -7 -7 -20 -15 -28 -8 -9 -15 -25 -15 -36 0
-11 -6 -32 -14 -46 -7 -15 -19 -40 -26 -57 -7 -16 -19 -44 -27 -61 -11 -23
-11 -37 -3 -58 5 -15 8 -32 5 -37 -4 -5 -8 -28 -11 -51 -2 -24 -7 -54 -11 -68
-14 -51 -15 -70 -18 -310 -3 -135 -8 -296 -14 -357 -7 -91 -2 -263 11 -368 0
-5 -2 -29 -6 -51 -4 -23 -3 -44 1 -47 10 -6 9 -189 -1 -277 -5 -45 -10 -141
-15 -295 -1 -19 -8 -20 -132 -21 -71 -1 -131 -3 -133 -5 -17 -20 -13 -48 12
-75 33 -36 112 -151 112 -163 0 -4 9 -16 19 -25 11 -10 29 -39 41 -64 31 -68
82 -140 102 -145 24 -7 96 75 151 167 22 39 51 85 64 102 13 17 23 34 23 38 0
3 9 26 21 50 11 25 19 57 17 73 l-3 28 -105 8 c-58 5 -109 13 -115 18 -6 6 -3
62 8 157 10 81 17 201 16 267 -2 192 -9 577 -11 610 -1 17 2 66 6 110 5 44 10
177 11 295 2 118 8 239 14 269 6 29 11 71 11 92 0 95 39 213 134 407 50 102
249 310 345 360 14 7 33 20 42 28 8 8 21 14 28 14 6 0 22 6 34 14 12 8 58 26
102 41 44 16 85 31 90 35 13 9 135 37 205 46 58 8 68 10 73 14 1 1 70 4 152 6
144 4 263 15 390 36 65 11 165 56 205 93 14 13 46 42 72 65 50 44 89 107 127
202 13 32 27 55 32 52 5 -3 18 -22 28 -42 62 -121 224 -245 388 -298 57 -18
113 -40 125 -48 12 -9 38 -16 58 -16 19 0 46 -6 60 -13 15 -8 57 -18 95 -22
80 -10 379 -10 565 0 69 4 190 7 270 9 l145 2 90 -39 c50 -21 104 -51 120 -66
17 -15 46 -38 65 -51 108 -72 159 -146 211 -303 68 -207 79 -340 94 -1127 4
-190 1 -254 -24 -511 -14 -144 -16 -343 -4 -449 6 -52 9 -98 7 -101 -1 -3 -67
2 -146 11 -142 17 -143 17 -165 -3 -13 -11 -23 -24 -23 -27 0 -4 18 -27 40
-52 23 -25 50 -60 60 -79 34 -59 110 -218 110 -230 0 -6 20 -31 45 -55 61 -59
82 -58 134 9 22 30 41 59 41 65 0 6 36 48 80 94 94 95 154 187 154 235 0 42
-5 46 -46 35 -19 -5 -69 -7 -111 -4 -88 5 -78 -9 -98 140 -15 114 -7 401 16
550 15 105 24 569 10 591 -3 6 -8 111 -11 233 -9 455 -23 549 -123 808 -25 64
-94 162 -131 183 -26 16 -130 98 -188 148 -20 18 -44 29 -62 29 -16 0 -31 4
-34 9 -3 5 -20 11 -38 14 -18 3 -55 11 -83 18 -56 15 -115 16 -360 5 -388 -16
-507 -16 -615 0 -58 9 -124 25 -147 35 -23 10 -49 19 -58 19 -9 0 -26 6 -38
14 -12 8 -38 17 -58 20 -83 14 -202 90 -288 182 -101 107 -121 176 -103 344 9
75 8 88 -8 110 -24 36 -33 118 -34 335 -1 105 -5 196 -9 203 -9 14 -23 14 -55
1z m2299 -4067 c48 -9 207 -6 247 3 48 11 17 -38 -92 -149 -39 -40 -82 -94
-95 -120 -23 -43 -26 -45 -45 -33 -12 8 -26 25 -32 38 -34 69 -65 131 -98 191
-21 38 -35 72 -32 76 5 9 76 6 147 -6z m-4208 -161 c4 -4 -6 -27 -23 -52 -16
-24 -30 -49 -30 -56 0 -20 -69 -134 -92 -153 -21 -17 -25 -17 -40 -3 -10 9
-20 25 -24 36 -4 12 -33 62 -65 111 -31 50 -59 98 -61 106 -2 11 10 16 52 20
75 7 273 1 283 -9z"/>
<path d="M12293 9021 c-19 -15 -20 -21 -10 -89 5 -40 7 -75 3 -79 -3 -3 -27
-7 -53 -8 -63 -2 -83 -12 -83 -40 0 -34 27 -50 87 -51 36 0 58 -6 64 -15 9
-14 5 -141 -7 -226 -6 -38 -4 -44 19 -54 14 -6 32 -9 40 -6 21 8 37 93 37 196
0 111 3 115 99 103 69 -8 71 -8 71 14 0 28 -35 56 -91 73 -95 29 -99 31 -99
65 -1 52 -24 129 -41 131 -9 2 -25 -5 -36 -14z"/>
<path d="M11294 8996 l-29 -24 0 -134 -1 -133 -35 3 c-48 4 -109 -29 -153 -83
-59 -71 -45 -119 49 -171 33 -19 71 -34 85 -33 67 0 180 102 180 161 0 13 -10
48 -21 78 -18 46 -22 80 -24 205 -1 90 -6 150 -13 153 -5 1 -23 -8 -38 -22z
m-21 -403 c39 -19 31 -42 -23 -69 -55 -27 -97 -22 -110 12 -13 33 -3 53 34 69
33 14 53 12 99 -12z"/>
<path d="M10225 8993 c-68 -9 -102 -24 -123 -52 l-21 -29 19 -74 c24 -90 25
-122 3 -159 -16 -26 -16 -31 -2 -61 12 -25 15 -55 11 -118 l-4 -85 32 -24 c18
-12 36 -19 40 -15 5 5 12 60 16 123 7 113 7 113 38 132 17 11 42 22 56 25 79
19 170 112 170 173 0 40 -35 105 -68 127 -20 13 -129 47 -135 43 -1 -1 -15 -4
-32 -6z m148 -107 c27 -40 10 -94 -39 -120 -10 -6 -30 -18 -44 -27 -30 -20
-89 -34 -91 -22 -1 4 -2 19 -4 33 -1 14 -5 51 -9 82 -7 57 -7 57 21 64 15 3
33 7 38 9 22 6 120 -9 128 -19z"/>
<path d="M1439 8927 c-11 -31 -21 -120 -20 -172 0 -27 1 -150 1 -273 l1 -222
31 -16 c16 -8 33 -13 36 -10 11 12 19 111 10 123 -5 7 -7 17 -3 23 4 6 7 33 7
61 -1 48 0 49 26 43 15 -4 35 -11 44 -15 9 -5 23 -6 31 -3 22 8 30 -12 33 -90
2 -38 8 -74 14 -80 5 -5 10 -18 10 -28 0 -21 46 -36 62 -20 7 7 8 25 3 49 -11
53 -6 144 10 168 11 18 10 26 -3 50 -17 31 -23 186 -12 285 4 40 3 45 -14 45
-13 0 -27 -14 -40 -42 -12 -23 -27 -42 -33 -43 -16 0 -17 -29 -3 -66 7 -19 7
-30 -1 -40 -7 -9 -9 -30 -4 -60 6 -40 4 -46 -9 -41 -8 3 -32 11 -53 16 -67 19
-66 16 -68 168 -2 139 -11 175 -42 187 -7 3 -13 4 -14 3z"/>
<path d="M7666 8903 c-4 -10 -4 -47 0 -83 7 -67 9 -101 12 -322 l2 -128 29 0
c53 0 61 8 62 64 1 59 18 115 41 129 26 17 64 -1 94 -44 26 -38 29 -49 28
-121 -1 -75 0 -80 23 -91 16 -7 30 -8 40 -1 23 14 27 131 7 192 -16 47 -68
112 -90 112 -6 0 -22 9 -36 19 -21 17 -30 18 -67 9 -24 -6 -46 -7 -51 -2 -4 5
-11 56 -14 114 -8 119 -12 140 -35 157 -23 17 -38 16 -45 -4z"/>
<path d="M5932 8829 c-84 -16 -142 -71 -142 -134 0 -31 13 -57 53 -107 29 -36
33 -37 87 -37 32 1 70 -5 85 -12 33 -17 61 -85 43 -107 -21 -24 -92 -60 -150
-75 -52 -14 -58 -13 -72 2 -9 10 -16 30 -16 45 0 29 -24 46 -42 28 -11 -11
-18 -87 -9 -100 3 -4 19 -16 34 -25 53 -34 191 -10 268 47 49 36 59 60 59 142
0 30 -7 51 -22 69 -27 30 -94 49 -144 39 -63 -12 -128 50 -103 98 17 32 116
69 179 67 30 -1 61 -1 68 0 19 2 14 49 -7 61 -23 12 -107 12 -169 -1z"/>
<path d="M12040 8771 c-19 -11 -44 -24 -56 -29 -26 -13 -83 -77 -95 -109 -15
-40 -10 -106 10 -139 21 -35 90 -64 150 -64 76 0 178 59 165 94 -6 15 -14 17
-48 11 -114 -18 -161 -17 -185 3 -19 15 -23 24 -17 46 9 35 69 101 117 128 39
22 44 32 33 62 -8 21 -31 20 -74 -3z"/>
<path d="M11451 8734 c-19 -24 -21 -36 -15 -108 7 -98 18 -122 64 -145 58 -29
131 -2 170 61 l19 31 13 -29 c23 -51 82 -90 119 -79 22 7 16 28 -22 72 -15 18
-31 50 -34 70 -13 76 -25 110 -45 128 -20 18 -21 18 -35 -1 -8 -10 -15 -26
-15 -35 0 -23 -19 -57 -59 -107 -59 -73 -95 -50 -97 62 -1 39 -2 79 -3 89 -2
26 -37 21 -60 -9z"/>
<path d="M10576 8729 c-16 -5 -48 -29 -72 -56 -35 -39 -44 -44 -50 -30 -7 20
-42 23 -50 3 -3 -8 1 -53 8 -102 12 -75 17 -90 41 -107 14 -12 29 -18 32 -15
4 3 13 35 21 69 8 35 25 79 37 97 25 36 89 65 133 60 26 -3 29 -6 26 -36 -1
-18 7 -55 19 -82 30 -70 90 -105 167 -97 46 5 61 12 91 42 34 33 36 39 36 100
0 61 -2 67 -35 100 -29 28 -45 36 -93 41 -54 6 -60 5 -111 -29 l-53 -35 -21
27 c-26 35 -88 60 -126 50z m344 -79 c22 -12 43 -67 32 -86 -11 -20 -74 -64
-91 -64 -15 0 -71 60 -71 76 0 4 11 22 25 40 22 28 35 35 78 43 5 0 17 -3 27
-9z"/>
<path d="M7175 8698 c-40 -22 -75 -62 -81 -94 -3 -19 -16 -40 -30 -49 -24 -15
-24 -34 1 -65 6 -8 17 -41 24 -73 10 -47 18 -60 37 -68 52 -19 58 -14 49 44
-5 28 -8 81 -7 116 2 74 22 105 75 115 61 12 72 14 80 15 4 1 7 8 7 16 0 17
-79 55 -113 55 -12 0 -31 -6 -42 -12z"/>
<path d="M7509 8678 c-93 -53 -136 -94 -169 -162 -32 -68 -36 -96 -20 -127 24
-44 137 -74 214 -57 77 17 150 96 123 132 -12 16 -17 15 -66 -18 -40 -28 -63
-36 -96 -36 -82 0 -116 27 -92 73 31 59 78 105 137 131 49 22 60 31 60 51 0
43 -30 47 -91 13z"/>
<path d="M2888 8663 c-35 -5 -92 -73 -113 -134 -29 -80 -1 -151 89 -230 44
-39 51 -41 135 -39 38 0 140 50 147 72 3 11 3 22 0 25 -12 12 -103 15 -110 4
-11 -17 -98 -13 -125 5 l-23 17 32 13 c18 8 43 14 57 14 13 0 37 7 54 15 32
17 89 89 89 112 0 32 -36 72 -91 102 -55 29 -78 33 -141 24z m127 -100 c13
-10 24 -20 24 -23 0 -17 -41 -49 -70 -55 -114 -23 -132 -16 -102 42 33 64 90
78 148 36z"/>
<path d="M6823 8644 c-36 -18 -196 -164 -189 -172 3 -3 -6 -18 -19 -34 -14
-16 -25 -40 -25 -52 0 -40 -88 -66 -186 -56 -75 8 -133 52 -86 66 9 3 25 10
34 15 10 5 25 9 34 9 9 0 38 13 63 28 25 16 54 31 64 35 18 7 47 63 47 92 0 9
-11 27 -25 41 -25 25 -29 26 -113 19 -69 -6 -95 -12 -125 -32 -43 -30 -72 -73
-82 -123 -4 -19 -12 -41 -18 -48 -7 -9 -5 -18 5 -30 8 -9 23 -35 33 -57 25
-50 37 -60 99 -81 81 -27 153 -27 214 3 29 14 58 33 64 42 10 16 14 16 52 3
37 -13 50 -14 104 -2 35 8 72 23 84 34 18 17 22 17 26 6 3 -8 20 -30 38 -47
41 -42 90 -46 100 -9 10 42 1 70 -26 76 -26 6 -33 24 -66 170 -17 77 -38 120
-58 120 -6 0 -26 -8 -43 -16z m-354 -112 c-13 -9 -48 -24 -79 -33 -30 -9 -63
-20 -72 -24 -14 -5 -18 -2 -18 12 0 37 43 60 134 69 21 2 42 6 45 9 3 4 7 1 9
-5 2 -6 -6 -19 -19 -28z m367 -54 c-8 -79 -24 -96 -96 -100 -49 -3 -55 -1 -58
17 -3 23 64 99 96 109 11 4 23 13 26 21 3 8 13 15 22 15 15 0 16 -8 10 -62z"/>
<path d="M1897 8600 c-14 -11 -29 -20 -34 -20 -21 0 -74 -69 -80 -103 -11 -70
35 -149 93 -159 10 -2 27 -15 36 -30 9 -14 26 -29 37 -33 33 -10 85 28 113 84
44 85 21 209 -46 250 -50 30 -90 33 -119 11z m88 -82 c21 -19 26 -33 28 -78 2
-46 -2 -60 -21 -80 -29 -31 -56 -18 -60 29 -3 30 -24 42 -37 21 -15 -24 -27 5
-21 49 10 75 61 102 111 59z"/>
<path d="M2273 8607 c-10 -5 -38 -30 -62 -54 -39 -39 -42 -46 -33 -71 16 -44
30 -105 31 -131 0 -14 11 -36 25 -49 21 -22 27 -23 41 -12 13 11 15 27 9 105
-8 111 2 138 48 133 25 -2 39 -15 74 -67 24 -34 42 -67 39 -71 -8 -13 13 -22
35 -15 15 5 20 15 20 41 0 67 52 134 105 134 22 0 35 -34 35 -94 0 -47 4 -61
28 -88 19 -21 34 -29 45 -25 21 8 22 48 2 142 -20 96 -51 127 -129 129 -52 1
-57 -1 -85 -34 -17 -19 -33 -43 -37 -53 -6 -18 -7 -17 -30 4 -13 12 -24 28
-24 35 0 31 -99 61 -137 41z"/>
<path d="M11220 8063 c-204 -19 -501 -26 -576 -12 -45 8 -86 8 -155 -1 -125
-15 -164 -27 -180 -57 -7 -14 -26 -31 -41 -39 -15 -8 -38 -24 -51 -37 -65 -62
-165 -144 -196 -160 -93 -49 -124 -95 -86 -127 11 -9 14 -39 13 -139 0 -70 3
-138 7 -151 4 -12 8 -34 10 -49 1 -14 8 -71 14 -127 9 -73 10 -112 2 -139 -6
-21 -8 -42 -4 -47 8 -13 6 -64 -7 -198 -7 -63 -13 -133 -14 -155 -2 -22 -8
-71 -14 -110 -11 -73 -22 -320 -27 -640 -2 -104 -8 -224 -15 -265 -16 -104
-19 -159 -23 -540 -4 -354 2 -421 48 -555 13 -35 18 -84 19 -163 1 -89 5 -115
16 -122 20 -11 341 25 410 46 47 15 94 17 335 14 154 -2 442 -2 640 0 409 3
372 4 610 -7 224 -9 375 -10 531 -2 67 4 140 3 162 -1 32 -6 45 -4 54 8 15 18
18 328 6 527 -4 66 -10 172 -12 235 -5 103 -9 155 -22 270 -7 73 -5 389 7 774
9 317 9 456 -1 670 -15 316 -15 316 7 466 23 152 21 746 -2 769 -16 16 -102
18 -117 3 -7 -7 -15 -6 -25 4 -11 10 -40 14 -108 14 -52 0 -96 4 -100 9 -3 5
-40 10 -83 11 -183 3 -264 8 -382 23 -154 20 -450 20 -650 0z m395 -78 c94 -3
199 -11 235 -17 36 -6 83 -13 105 -14 148 -9 430 -27 480 -30 99 -7 107 -6
114 4 8 13 61 3 62 -12 1 -6 3 -123 5 -261 3 -198 1 -280 -13 -395 -21 -170
-21 -221 -5 -603 7 -158 11 -291 8 -295 -8 -13 -21 -525 -20 -777 1 -137 6
-333 12 -435 6 -102 13 -228 16 -280 3 -52 11 -156 16 -230 11 -130 7 -222 -9
-248 -5 -9 -82 -13 -312 -15 -167 -2 -310 -2 -316 1 -36 12 -4 22 70 22 45 0
111 5 147 12 75 12 125 16 227 17 l72 1 17 58 c15 50 16 72 5 177 -6 66 -16
172 -22 237 -5 64 -12 352 -15 640 -3 287 -5 541 -6 563 -2 72 21 397 40 555
19 169 21 334 4 420 -5 30 -18 93 -27 140 -13 65 -17 138 -16 314 0 318 7 310
-249 301 -85 -3 -166 -5 -180 -4 -14 0 -70 1 -125 0 -361 -3 -466 -2 -501 8
-76 20 -560 17 -709 -6 -16 -2 -59 -7 -95 -10 -92 -8 -117 -35 -65 -69 22 -15
34 -15 103 -4 42 7 111 14 152 17 41 2 98 7 125 11 43 6 212 0 341 -12 47 -4
194 -13 363 -22 63 -3 117 -2 120 3 3 5 77 6 165 2 87 -3 186 -4 220 -3 140 7
184 6 219 -5 20 -7 37 -16 38 -19 0 -4 2 -25 4 -47 2 -22 6 -126 9 -231 5
-183 30 -379 58 -459 8 -23 5 -65 -11 -175 -12 -80 -21 -166 -21 -191 0 -26
-7 -82 -15 -125 -15 -80 -18 -205 -18 -794 -1 -469 2 -611 12 -720 10 -104 23
-307 25 -405 l1 -50 -45 -3 c-25 -1 -97 -9 -160 -17 -63 -8 -124 -13 -135 -11
-11 2 -32 0 -47 -5 -16 -4 -88 -9 -160 -10 -73 -1 -143 -6 -156 -10 -13 -5
-54 -4 -95 1 -167 23 -359 42 -462 46 -60 3 -184 10 -275 16 -233 16 -526 13
-625 -6 -55 -11 -82 -13 -90 -5 -13 13 -14 642 -1 1029 6 201 5 299 -3 364
-20 148 -16 540 9 886 7 109 8 195 1 290 -6 74 -12 184 -14 243 -3 83 -8 112
-20 125 -14 13 -19 14 -29 4 -16 -16 -15 -289 1 -403 6 -48 7 -132 1 -239 -30
-532 -32 -624 -19 -790 14 -193 17 -475 6 -645 -18 -266 -25 -420 -20 -428 3
-5 6 -72 8 -150 5 -258 15 -381 33 -394 13 -11 20 -9 38 8 13 12 34 23 48 24
13 2 33 6 43 9 23 7 96 13 273 21 111 5 143 3 180 -10 35 -13 95 -18 270 -21
124 -3 243 -6 265 -9 74 -7 215 -37 215 -46 0 -11 -4 -12 -130 -10 -58 1 -125
-2 -150 -6 -25 -5 -92 -6 -150 -2 -100 7 -224 9 -500 8 -107 0 -176 -8 -300
-35 -60 -12 -149 -24 -191 -24 l-46 0 -6 88 c-3 48 -15 123 -27 167 -12 44
-25 127 -29 185 -11 142 -5 667 9 815 6 66 13 221 15 345 7 341 17 553 35 715
16 142 27 499 18 570 -15 107 -17 129 -23 210 -4 44 -3 98 2 120 9 37 12 40
39 37 16 -1 45 -9 64 -17 19 -8 97 -23 173 -35 152 -22 174 -19 179 27 3 31
-27 151 -64 254 -15 40 -23 80 -20 101 4 32 7 36 52 47 30 8 97 11 172 10 128
-3 362 0 458 6 123 8 283 25 289 30 3 4 24 4 46 1 22 -3 117 -8 210 -11z
m-1300 -127 c8 -53 28 -121 49 -170 9 -21 16 -49 16 -64 0 -25 -2 -26 -37 -21
-21 3 -76 11 -123 17 -85 11 -160 35 -160 52 0 5 20 23 45 40 25 18 45 36 45
42 0 10 140 145 152 146 3 0 9 -19 13 -42z m1275 -3458 c0 -5 7 -10 16 -10 8
0 12 -4 9 -10 -9 -15 -55 -12 -55 3 0 8 3 17 7 20 10 10 23 8 23 -3z"/>
<path d="M11015 6911 c-68 -5 -86 -11 -122 -36 -60 -42 -96 -129 -97 -228 0
-81 15 -174 37 -227 21 -50 13 -60 -46 -60 -29 0 -63 -7 -77 -15 -14 -8 -43
-24 -65 -35 -210 -108 -221 -119 -219 -218 2 -86 31 -149 93 -202 25 -22 64
-45 85 -51 22 -6 49 -17 60 -24 28 -18 193 -61 286 -75 41 -6 75 -12 77 -14 4
-4 -58 -189 -67 -201 -4 -5 -17 -39 -28 -75 -12 -36 -30 -90 -41 -121 -18 -50
-19 -61 -7 -111 19 -81 48 -122 108 -152 45 -23 65 -26 148 -26 97 0 97 0 161
41 75 49 94 65 170 141 l57 58 49 -55 c85 -97 200 -119 335 -63 75 32 121 69
143 114 14 30 16 51 11 118 -8 88 -37 200 -60 231 -21 27 -20 30 9 43 13 6 31
24 39 40 12 24 25 31 71 40 65 13 121 53 136 99 18 56 -6 215 -44 292 -42 85
-133 175 -223 221 l-69 36 5 84 c9 160 6 255 -10 277 -95 129 -117 143 -224
143 -118 0 -208 -56 -262 -162 -22 -44 -44 -63 -44 -38 0 24 -144 161 -194
183 -66 31 -85 34 -181 28z m216 -143 c38 -34 79 -79 91 -100 12 -21 25 -38
30 -38 18 0 6 -60 -29 -143 -28 -65 -45 -93 -64 -103 -18 -9 -72 -14 -169 -15
l-143 -2 -23 46 c-44 85 -61 280 -30 347 7 17 69 62 100 72 12 4 54 5 94 3
l74 -5 69 -62z m549 39 c13 -7 38 -34 54 -61 33 -53 36 -85 21 -234 -10 -110
1 -102 -139 -102 -83 0 -127 4 -138 13 -32 25 -100 129 -105 161 -4 25 2 46
22 82 43 77 51 86 112 121 63 36 127 43 173 20z m-327 -352 c24 -49 22 -55
-15 -48 -44 8 -48 13 -32 51 18 41 26 40 47 -3z m332 -226 c-27 -65 -30 -69
-43 -52 -8 10 -20 32 -28 50 -7 17 -18 34 -24 38 -5 3 -10 15 -10 25 0 16 9
19 58 22 31 2 61 0 66 -4 6 -4 -3 -38 -19 -79z m-198 49 c33 -30 123 -212 123
-248 0 -16 -16 -74 -36 -130 -33 -91 -39 -101 -58 -95 -12 3 -88 8 -171 11
-82 3 -160 7 -171 10 -28 5 -64 66 -64 106 0 16 6 44 14 61 8 18 36 88 62 157
25 69 51 130 56 137 12 15 45 19 142 17 66 -2 82 -6 103 -26z m368 12 c3 -5
25 -18 48 -28 69 -32 117 -92 178 -225 7 -15 13 -57 13 -93 1 -60 -1 -68 -25
-86 -15 -11 -66 -28 -115 -38 -49 -10 -97 -21 -106 -25 -12 -5 -18 -2 -18 8 0
17 -69 154 -99 196 -27 37 -26 49 3 113 13 29 32 80 41 113 10 33 19 63 22 68
6 10 51 9 58 -3z m-715 -19 c0 -9 -4 -21 -9 -26 -10 -12 -78 -183 -83 -210 -8
-49 -43 -9 -116 132 -23 45 -42 89 -42 97 0 16 29 19 178 23 62 1 72 -1 72
-16z m-354 1 c6 -4 46 -74 89 -157 42 -82 86 -162 96 -177 23 -32 24 -50 4
-89 -15 -28 -18 -29 -68 -24 -29 3 -72 8 -97 11 -40 4 -140 27 -240 56 -44 12
-141 86 -157 119 -6 13 -14 40 -18 60 -6 32 -2 41 25 73 18 20 39 36 47 36 8
0 28 10 45 21 36 26 191 78 233 78 17 1 35 -3 41 -7z m924 -399 c38 -59 40
-93 5 -93 -30 0 -72 19 -78 35 -5 11 31 105 39 105 3 0 18 -21 34 -47z m-592
-156 c13 -7 31 -25 40 -39 9 -14 47 -70 83 -124 99 -149 113 -176 106 -205
-13 -51 -180 -199 -242 -214 -63 -15 -158 -14 -186 2 -36 21 -59 63 -59 107 0
36 29 142 56 204 8 19 30 75 49 125 60 157 60 157 97 157 18 -1 43 -6 56 -13z
m324 3 c57 0 59 -6 23 -85 -13 -31 -27 -71 -30 -89 -4 -18 -14 -45 -24 -59
l-17 -26 -34 51 c-19 28 -39 58 -45 67 -5 9 -24 39 -42 68 -51 81 -48 87 44
79 42 -3 98 -6 125 -6z m296 -26 c53 -6 53 -6 79 -63 59 -132 87 -237 78 -292
-5 -31 -15 -42 -57 -68 -56 -35 -168 -66 -206 -56 -32 8 -146 118 -162 154 -9
24 -7 39 20 107 18 43 43 103 56 132 13 29 24 55 24 59 0 4 8 15 17 25 17 19
14 19 151 2z"/>
<path d="M11393 6150 c-30 -12 -43 -41 -43 -98 0 -44 4 -53 42 -90 58 -58 96
-58 166 -1 36 30 52 50 56 75 9 45 -16 92 -59 110 -38 15 -128 18 -162 4z"/>
<path d="M5892 7976 c-4 -7 -39 -33 -79 -59 -39 -25 -89 -63 -111 -85 -21 -21
-52 -42 -68 -45 -18 -3 -36 -17 -46 -35 -15 -25 -15 -30 -3 -43 13 -13 40
-193 31 -208 -4 -7 -16 -301 -21 -549 -2 -100 -9 -211 -16 -247 -8 -48 -8 -69
0 -79 8 -10 8 -27 1 -62 -14 -70 -51 -425 -50 -481 2 -97 0 -136 -9 -147 -5
-6 -12 -45 -15 -86 -4 -41 -9 -95 -11 -120 -6 -55 -6 -113 0 -118 2 -3 -2 -16
-9 -31 -22 -44 -39 -439 -20 -485 4 -11 3 -40 -2 -66 -6 -28 -7 -83 -2 -136 5
-49 10 -168 12 -264 2 -108 8 -187 15 -205 8 -18 10 -49 7 -75 -4 -30 -2 -52
6 -63 22 -29 221 -51 423 -47 61 1 139 2 175 2 36 0 144 4 240 9 203 10 345
16 630 23 113 3 221 8 240 10 72 9 629 8 735 -2 61 -5 121 -10 135 -11 14 0
66 -2 115 -5 50 -2 123 -7 164 -11 l74 -8 -7 34 c-4 19 -9 54 -12 79 -8 73
-43 391 -49 440 -3 25 -9 101 -14 170 -5 69 -14 159 -20 200 -20 141 -41 395
-46 555 -3 88 -10 212 -15 275 -5 63 -12 183 -15 265 -13 351 -32 651 -40 665
-7 11 -6 415 0 610 8 235 8 251 -3 262 -14 14 -49 -11 -64 -47 -23 -53 -16
-728 11 -1105 12 -173 21 -344 20 -380 -1 -36 5 -153 14 -260 9 -107 18 -292
21 -411 3 -119 10 -229 16 -244 6 -15 8 -36 5 -46 -4 -11 -1 -36 6 -56 6 -20
13 -60 14 -87 3 -47 12 -152 35 -411 5 -55 15 -147 23 -205 7 -58 13 -125 12
-150 l0 -45 -75 1 c-166 2 -397 16 -426 25 -41 13 -606 3 -670 -11 -26 -6
-109 -10 -183 -9 -168 3 -463 -8 -596 -21 -214 -21 -603 -31 -695 -18 -102 14
-110 17 -121 46 -25 61 -42 1070 -21 1193 26 150 71 647 65 714 -1 11 2 40 7
65 25 120 36 286 45 620 2 107 7 258 11 335 3 77 7 182 8 233 2 51 6 95 9 98
3 4 19 -4 35 -17 58 -48 123 -79 227 -109 33 -9 67 -19 75 -23 41 -15 78 -16
84 -1 14 35 4 70 -40 142 -51 84 -104 210 -104 247 0 14 7 26 18 28 31 9 195
7 257 -2 35 -5 65 -5 71 0 6 5 24 7 40 4 49 -9 255 -11 260 -3 3 5 11 5 17 1
10 -6 44 -8 190 -11 9 -1 29 0 45 0 73 2 299 -17 567 -48 72 -9 135 -16 140
-16 153 1 565 14 578 18 20 6 22 34 5 55 -32 39 -126 47 -318 30 -63 -6 -119
-11 -125 -11 -5 -1 -37 2 -70 5 -62 6 -382 25 -515 31 -41 2 -104 8 -140 14
-87 13 -167 13 -192 -1 -17 -9 -24 -8 -33 5 -10 13 -35 15 -179 12 -106 -2
-172 -8 -179 -15 -16 -16 -34 -14 -41 5 -5 14 -18 16 -89 10 -105 -8 -96 -8
-137 -1 -77 13 -230 13 -238 1z m4 -180 c13 -31 42 -95 65 -141 23 -47 40 -88
36 -91 -3 -3 -34 6 -69 21 -34 14 -76 31 -93 37 -34 12 -125 76 -125 87 0 15
141 152 153 148 6 -2 21 -29 33 -61z"/>
<path d="M2758 7935 c-3 -3 -102 -8 -220 -11 -220 -4 -246 -6 -264 -16 -5 -4
-16 -3 -23 1 -7 5 -30 5 -50 1 -21 -4 -63 -5 -92 -3 -30 2 -128 -2 -219 -10
-91 -8 -194 -13 -230 -11 -73 3 -170 -12 -170 -27 0 -6 -13 -15 -30 -20 -17
-6 -30 -16 -30 -22 0 -12 -72 -77 -85 -77 -3 0 -37 -31 -75 -70 -43 -43 -92
-81 -132 -101 -76 -38 -72 -35 -62 -51 5 -7 9 -20 9 -28 0 -8 5 -14 12 -13 7
2 17 -6 23 -17 9 -17 8 -20 -9 -20 -17 0 -18 -4 -10 -37 16 -75 32 -388 19
-388 -1 0 -4 -56 -6 -125 -2 -69 -4 -138 -5 -155 -1 -16 0 -34 2 -40 1 -5 0
-39 -4 -75 -19 -175 -26 -1003 -12 -1260 5 -80 7 -183 5 -230 -1 -47 -2 -98
-2 -115 1 -16 4 -154 7 -305 7 -340 17 -546 28 -557 15 -14 395 -6 457 10 43
11 107 13 290 9 272 -6 219 -6 790 1 245 2 459 9 475 14 53 16 549 15 669 -2
59 -8 112 -17 117 -21 6 -3 16 -1 24 6 10 8 12 36 9 118 -7 193 -15 356 -19
392 -2 19 -4 82 -5 140 0 58 -6 132 -12 165 -6 33 -11 148 -13 255 -1 107 -7
240 -12 295 -15 147 -10 582 12 1016 2 30 8 77 14 104 11 52 32 333 31 420 -1
84 -20 235 -42 330 -14 61 -22 129 -23 213 -2 119 -3 125 -28 150 -25 24 -27
25 -45 9 -25 -23 -28 -22 -72 13 -57 45 -121 70 -192 74 -121 7 -303 27 -338
37 -31 9 -89 15 -375 35 -44 3 -83 3 -87 -1z m182 -104 c36 -5 96 -9 135 -10
38 -2 77 -7 86 -12 10 -5 33 -9 51 -9 18 0 49 -5 68 -11 19 -5 87 -12 150 -14
178 -7 220 -14 298 -47 77 -34 76 -32 74 -118 -2 -39 14 -149 28 -195 36 -122
49 -309 35 -505 -4 -58 -8 -127 -10 -155 -1 -27 -8 -81 -13 -120 -6 -38 -14
-128 -17 -200 -4 -71 -9 -143 -11 -160 -10 -61 -11 -722 -2 -775 5 -30 11
-154 14 -275 2 -121 7 -233 9 -250 8 -46 14 -136 19 -290 3 -77 8 -200 12
-272 4 -76 3 -133 -2 -133 -5 0 -47 5 -94 11 -102 13 -519 12 -610 -2 -36 -5
-254 -10 -486 -11 -339 -3 -424 -6 -437 -17 -12 -9 -21 -10 -29 -3 -14 10
-130 8 -148 -3 -6 -4 -17 -1 -25 5 -23 19 -383 7 -425 -14 -21 -10 -38 -12
-49 -7 -9 6 -39 5 -71 -1 -30 -5 -104 -7 -165 -4 -60 3 -113 6 -116 6 -18 0
-30 400 -42 1385 -5 396 6 906 25 1175 6 91 11 272 11 403 1 169 4 237 12 237
6 0 27 -11 46 -25 31 -24 151 -85 165 -85 3 0 36 -13 74 -30 80 -35 100 -37
100 -11 0 10 6 21 13 24 20 7 19 53 -4 141 -11 44 -26 107 -33 138 -18 79 -56
168 -71 168 -17 0 -38 -27 -31 -39 4 -5 2 -12 -2 -15 -23 -14 1 -115 49 -209
5 -9 9 -40 8 -68 -2 -56 2 -55 -84 -21 -91 36 -162 72 -180 92 -17 19 -15 22
64 109 44 49 81 95 81 104 0 8 14 20 30 27 18 7 30 20 30 31 0 15 8 18 63 16
92 -2 351 11 442 22 83 10 299 20 588 25 93 2 170 6 173 9 6 5 111 -1 204 -12z"/>
<path d="M2286 7678 c-7 -4 -69 -10 -137 -13 -171 -8 -378 -23 -414 -31 -31
-6 -55 -28 -55 -50 0 -21 21 -21 190 -8 328 26 631 34 785 20 44 -4 105 -9
135 -11 50 -4 81 -8 150 -21 14 -3 155 -7 314 -9 159 -2 292 -7 296 -12 24
-28 40 -103 45 -224 4 -73 10 -142 15 -154 5 -12 4 -29 -2 -39 -6 -10 -16
-143 -23 -295 -7 -152 -13 -285 -13 -296 -8 -115 -8 -1430 0 -1465 5 -25 11
-97 14 -160 2 -63 9 -174 15 -247 12 -136 9 -166 -14 -157 -25 9 -340 11 -422
2 -147 -16 -208 -19 -475 -23 -395 -6 -692 -15 -704 -23 -18 -11 -566 -8 -567
3 0 6 -2 44 -5 85 -2 41 -9 97 -14 124 -6 29 -7 53 -2 58 5 5 5 29 0 56 -6 26
-9 52 -9 57 1 6 5 116 10 245 6 129 13 298 17 375 6 116 6 536 1 910 -1 44 1
125 4 180 5 86 -2 210 -16 320 -3 17 -9 110 -14 209 -6 98 -15 194 -21 212
-13 40 -44 46 -54 12 -7 -29 -8 -73 0 -80 3 -4 8 -67 10 -142 3 -75 9 -148 14
-162 6 -15 8 -41 4 -59 -3 -18 -1 -42 5 -54 7 -12 12 -46 12 -76 1 -30 4 -57
8 -60 4 -2 4 -34 -1 -71 -6 -44 -6 -70 1 -77 7 -7 6 -17 -2 -31 -10 -18 -12
-197 -5 -431 1 -16 1 -43 0 -60 0 -16 0 -118 0 -225 1 -107 -2 -278 -6 -380
-4 -102 -8 -253 -10 -336 -2 -83 -9 -160 -15 -171 -7 -14 -7 -31 0 -54 13 -43
19 -197 8 -225 -4 -12 -3 -26 2 -31 6 -6 11 -49 13 -96 1 -48 5 -90 10 -94 4
-4 103 -11 219 -15 117 -4 219 -8 227 -9 8 -1 67 2 130 7 63 4 158 7 210 6 52
-2 140 2 195 8 55 6 208 12 340 14 281 3 482 13 498 23 7 5 120 8 252 8 l239
0 7 33 c9 46 -10 425 -30 582 -5 41 -10 165 -10 275 0 110 -1 333 -2 495 -1
162 1 390 4 505 4 116 10 289 12 385 3 96 8 225 12 285 12 169 7 331 -12 410
-9 39 -19 100 -22 138 -4 48 -10 70 -22 76 -9 5 -118 9 -242 9 -138 1 -287 7
-385 18 -87 9 -166 16 -174 16 -8 -1 -42 4 -76 9 -70 12 -429 17 -448 7z"/>
<path d="M2066 6797 c-40 -11 -59 -24 -108 -76 -32 -35 -58 -71 -58 -80 0 -9
-7 -29 -15 -45 -13 -24 -14 -35 -4 -58 6 -15 9 -41 6 -56 -3 -17 0 -41 9 -57
8 -15 13 -37 12 -49 -1 -12 2 -38 6 -59 10 -43 -11 -77 -48 -77 -12 -1 -37 -9
-56 -20 -19 -10 -49 -25 -65 -33 -17 -8 -38 -25 -47 -39 -9 -13 -36 -35 -61
-48 -37 -19 -50 -35 -70 -80 -14 -30 -28 -73 -31 -95 -5 -37 -3 -42 45 -87 28
-27 59 -48 68 -48 9 0 27 -9 41 -20 14 -11 29 -20 33 -20 5 0 32 -11 60 -24
93 -43 321 -106 382 -106 34 0 49 -20 25 -35 -5 -3 -10 -15 -10 -25 0 -10 -6
-31 -14 -47 -14 -28 -37 -79 -71 -158 -10 -22 -32 -84 -50 -137 -32 -94 -33
-100 -19 -145 32 -105 82 -136 219 -137 79 -1 96 2 140 25 62 33 101 71 117
115 7 19 16 34 20 34 4 0 24 25 44 55 20 30 41 55 46 55 5 0 17 -14 26 -31 9
-17 35 -55 57 -83 22 -28 45 -60 50 -71 14 -27 72 -55 114 -55 37 0 71 9 171
47 86 32 128 88 140 186 9 76 5 159 -10 186 -5 11 -10 28 -10 37 0 10 -8 36
-19 58 -26 56 -32 87 -18 91 7 2 43 11 80 21 58 15 77 26 121 68 31 30 58 67
66 89 15 47 10 179 -8 185 -7 2 -12 12 -12 21 0 51 -119 219 -156 221 -6 0
-19 9 -28 19 -10 11 -29 22 -43 26 -24 6 -25 8 -18 53 11 73 12 213 2 257 -5
22 -10 55 -12 73 -6 67 -101 171 -158 174 -40 1 -47 3 -73 11 -31 11 -70 -7
-126 -58 -28 -25 -56 -45 -64 -45 -13 0 -84 -101 -84 -120 0 -23 -25 -5 -107
80 -79 82 -95 94 -158 116 -83 29 -199 38 -269 21z m195 -93 c84 -25 128 -52
189 -113 83 -84 90 -96 78 -140 -12 -42 -57 -123 -66 -117 -11 5 -281 -26
-414 -49 -24 -4 -30 0 -44 33 -20 48 -44 171 -44 228 0 55 18 92 61 123 67 50
150 62 240 35z m744 -37 c9 -12 20 -38 25 -58 12 -44 16 -263 6 -306 -8 -37
-28 -41 -95 -23 -20 5 -72 17 -117 26 -71 15 -84 22 -103 49 -11 17 -21 38
-21 46 0 9 -11 26 -25 39 -31 29 -31 50 0 106 84 150 263 216 330 121z m-373
-301 c20 -40 16 -46 -29 -46 -37 0 -40 8 -18 50 20 38 26 37 47 -4z m-182
-140 c0 0 -13 -39 -30 -86 -16 -47 -30 -92 -30 -100 0 -9 -18 -53 -40 -98 -22
-44 -40 -88 -40 -97 0 -47 -69 31 -172 195 -31 48 -80 149 -75 151 8 3 64 9
127 14 41 3 86 9 100 15 30 11 84 16 128 11 17 -2 32 -4 32 -5z m251 -12 c5
-3 33 -54 62 -112 29 -59 72 -142 96 -186 l43 -79 -18 -41 c-10 -22 -26 -60
-36 -83 -21 -49 8 -44 -257 -44 -149 0 -154 1 -187 26 -41 32 -43 53 -8 131
14 33 30 68 34 79 9 19 110 315 110 321 0 12 138 2 161 -12z m209 -21 c25 -2
53 -4 62 -4 32 0 37 -21 23 -90 -16 -73 -43 -149 -54 -149 -18 0 -131 218
-131 253 0 5 12 6 28 2 15 -4 47 -10 72 -12z m-928 -30 c9 -10 19 -29 23 -42
4 -14 23 -48 41 -77 19 -29 34 -55 34 -58 0 -3 18 -31 40 -63 22 -32 57 -82
78 -112 20 -29 41 -60 47 -67 6 -9 6 -17 -3 -26 -24 -24 -399 52 -447 92 -5 4
-30 16 -55 26 -25 10 -62 28 -82 41 -45 28 -49 53 -13 105 31 46 165 140 232
162 29 10 55 22 58 27 9 14 30 11 47 -8z m1183 -42 c69 -39 141 -156 150 -245
8 -75 -2 -104 -52 -143 -46 -37 -110 -65 -118 -52 -4 5 -25 9 -48 9 l-42 0
-33 68 -32 68 26 60 c14 32 32 91 40 129 20 97 34 135 47 135 7 -1 35 -14 62
-29z m-202 -425 c7 -18 -1 -26 -25 -26 -21 0 -23 11 -6 28 16 16 25 15 31 -2z
m-590 -118 c10 -5 43 -48 74 -96 30 -48 66 -98 78 -112 37 -41 38 -62 6 -107
-16 -21 -32 -49 -35 -61 -4 -12 -12 -22 -17 -22 -5 0 -9 -6 -9 -14 0 -8 -26
-41 -57 -73 -78 -79 -138 -97 -239 -72 -67 17 -79 65 -49 184 15 57 67 193 86
225 11 18 21 40 45 100 26 66 33 72 68 64 17 -3 39 -11 49 -16z m665 -60 c38
-93 59 -162 67 -229 5 -47 3 -61 -22 -108 -27 -52 -30 -54 -116 -87 -115 -44
-128 -44 -161 6 -14 22 -30 40 -34 40 -4 0 -20 23 -37 51 -16 28 -40 63 -52
78 l-22 27 26 45 c15 24 32 47 38 51 7 4 45 48 85 97 75 93 80 96 161 100 36
1 37 0 67 -71z m-292 50 c7 -11 -29 -65 -88 -132 -42 -47 -45 -48 -62 -31 -36
36 -93 121 -100 148 l-7 28 126 -2 c69 0 128 -5 131 -11z"/>
<path d="M2592 6050 c-41 -10 -67 -33 -82 -73 -6 -18 -16 -40 -21 -50 -30 -57
66 -151 165 -163 96 -11 147 46 130 144 -8 45 -48 118 -72 130 -28 15 -85 20
-120 12z"/>
<path d="M6124 7745 c-17 -26 -17 -28 1 -41 10 -8 26 -14 34 -15 90 -5 114 -4
118 7 3 8 14 9 36 4 30 -8 109 -15 295 -26 45 -2 219 -7 385 -9 166 -3 340 -7
387 -10 47 -2 153 -6 235 -9 128 -4 299 -27 315 -42 2 -3 -1 -13 -6 -22 -14
-22 -7 -189 8 -220 8 -15 8 -26 1 -33 -7 -7 -7 -25 0 -57 5 -26 9 -132 8 -237
0 -104 4 -246 9 -315 19 -230 21 -245 25 -260 25 -81 52 -436 60 -790 5 -221
23 -572 31 -605 3 -11 9 -85 14 -165 4 -80 16 -187 26 -238 10 -54 13 -97 8
-102 -5 -5 -52 -11 -104 -14 -52 -2 -133 -10 -180 -16 -120 -16 -314 -13 -498
6 -86 9 -182 18 -212 20 -30 3 -89 9 -130 14 -41 5 -82 9 -91 9 -26 1 -30 40
-13 109 21 82 14 89 -62 65 -49 -14 -96 -18 -269 -18 -155 0 -244 -5 -342 -19
-150 -23 -153 -25 -153 -116 l0 -50 -47 -2 c-87 -3 -145 2 -157 11 -7 6 -30
13 -53 17 l-41 6 -6 77 c-7 94 3 283 33 626 12 130 30 429 36 605 3 69 8 177
11 240 4 63 8 327 9 586 3 456 7 546 27 571 5 6 8 38 6 70 -2 46 -7 58 -21 61
-12 3 -19 -5 -23 -27 -4 -17 -10 -31 -14 -31 -15 0 -38 -76 -39 -130 -2 -87
-3 -269 -2 -615 0 -176 -3 -358 -8 -405 -5 -47 -10 -152 -10 -234 -1 -83 -4
-153 -6 -156 -2 -3 -7 -78 -10 -165 -4 -88 -8 -191 -10 -230 -2 -38 -8 -106
-13 -150 -30 -229 -33 -289 -27 -520 3 -132 10 -244 15 -249 6 -6 34 -11 62
-12 29 0 94 -7 143 -14 66 -9 146 -10 300 -4 393 16 961 7 1005 -14 8 -4 47
-9 85 -11 39 -2 77 -7 85 -11 22 -11 391 -5 485 8 44 6 125 13 180 15 55 2
110 9 122 15 20 11 22 18 18 70 -11 130 -17 181 -30 257 -8 44 -16 123 -19
175 -3 52 -10 169 -16 260 -6 91 -13 244 -15 340 -5 226 -24 681 -29 689 -3 4
-10 45 -16 91 -6 47 -17 117 -25 155 -16 82 -24 213 -29 527 -3 125 -7 231
-10 236 -3 5 -7 70 -10 146 -3 75 -10 145 -16 156 -5 10 -10 36 -10 58 0 48
-8 55 -88 71 -63 12 -571 26 -782 22 -133 -3 -119 -3 -160 6 -19 5 -55 6 -80
3 -25 -3 -112 -2 -195 2 -319 14 -392 18 -456 24 -65 6 -68 6 -85 -21z m666
-3122 l-5 -48 -110 -1 c-117 -1 -254 -11 -295 -21 -46 -11 -240 -10 -240 1 0
6 -3 21 -6 33 -5 18 -1 25 22 34 47 18 205 31 411 33 105 0 195 4 199 9 20 20
30 5 24 -40z"/>
<path d="M7642 7509 c-22 -8 -120 -17 -267 -24 -191 -8 -846 -2 -996 9 -107 9
-149 1 -149 -27 0 -30 56 -47 153 -47 53 0 108 -5 123 -11 17 -6 106 -10 219
-9 438 3 591 6 602 13 7 4 78 10 160 13 81 3 162 7 178 8 28 1 30 -1 25 -29
-2 -16 -3 -46 -3 -65 5 -126 4 -301 -2 -310 -4 -7 -38 -10 -98 -7 -51 3 -141
2 -200 -2 -60 -3 -118 -2 -130 3 -52 21 -922 23 -1027 2 -36 -7 -94 -14 -130
-15 l-65 -2 -1 153 c0 131 -3 157 -18 181 -42 62 -69 10 -55 -104 5 -39 6 -75
3 -80 -3 -5 -1 -24 4 -43 6 -21 6 -66 0 -122 -8 -72 -7 -89 5 -102 13 -13 18
-12 37 6 22 20 77 39 86 29 3 -2 33 2 67 10 34 8 69 14 77 15 8 0 31 4 50 8
56 14 380 20 402 9 12 -7 196 -12 496 -14 262 -2 496 -7 518 -10 l42 -7 6 93
c3 52 7 174 10 271 4 172 3 177 -18 197 -24 22 -65 26 -104 10z"/>
<path d="M6580 6809 c-25 -4 -76 -14 -115 -22 -41 -9 -107 -14 -160 -12 -181
6 -299 -32 -285 -90 3 -14 9 -91 11 -155 1 -30 -1 -121 -5 -201 -6 -127 -5
-147 9 -159 13 -11 22 -11 51 3 20 10 59 17 92 17 31 0 95 5 142 10 47 6 147
12 223 14 147 5 190 17 181 53 -2 10 -9 68 -14 128 -6 61 -13 126 -15 145 -2
19 -5 82 -5 139 -1 146 -4 149 -110 130z m46 -62 c2 -7 6 -65 8 -128 2 -63 8
-156 15 -208 6 -52 9 -102 6 -111 -5 -15 -31 -18 -193 -24 -103 -4 -226 -10
-274 -12 -78 -4 -88 -2 -97 14 -6 11 -8 22 -5 25 3 3 6 87 8 186 1 124 6 185
14 193 13 13 49 16 227 19 82 1 126 6 140 15 11 8 29 14 40 14 11 1 31 7 45
15 32 18 59 19 66 2z"/>
<path d="M7070 6800 c-14 -4 -72 -8 -130 -9 -112 -1 -130 -8 -130 -47 0 -31
24 -47 73 -45 126 3 624 0 696 -4 65 -4 95 -1 130 12 131 48 73 79 -156 83
-342 5 -429 8 -443 13 -8 3 -26 1 -40 -3z"/>
<path d="M7194 6560 c-18 -4 -45 -17 -62 -29 -37 -26 -78 -27 -115 -2 -55 36
-227 20 -235 -23 -5 -23 25 -31 64 -17 42 15 125 22 139 11 22 -18 86 -50 99
-50 8 0 40 12 72 27 54 25 71 27 189 29 161 1 217 10 213 32 -2 13 -19 17 -83
19 -44 1 -118 4 -165 7 -47 2 -99 0 -116 -4z"/>
<path d="M9275 6420 c-12 -24 -13 -41 -5 -97 19 -119 31 -226 26 -231 -3 -2
-63 -6 -133 -9 -70 -2 -162 -8 -203 -12 -41 -5 -153 -9 -248 -9 -191 -1 -205
-4 -200 -56 3 -30 5 -31 60 -36 63 -6 332 -3 418 3 30 3 114 6 185 7 l130 3
-2 -86 c-1 -49 -9 -101 -17 -122 -17 -40 -13 -62 15 -70 24 -8 54 9 74 43 19
32 116 104 196 147 31 17 64 37 74 45 9 8 27 19 39 25 38 19 32 58 -19 122
-63 79 -74 91 -131 143 -27 25 -56 54 -65 65 -9 11 -31 34 -50 51 -19 18 -47
48 -62 68 -34 44 -61 46 -82 6z"/>
<path d="M6894 6372 c-32 -2 -43 -8 -47 -23 -7 -26 8 -33 63 -30 26 1 60 -3
76 -10 37 -14 123 -12 237 5 97 14 120 27 96 51 -13 13 -29 13 -119 3 -126
-13 -150 -14 -215 -2 -27 5 -69 8 -91 6z"/>
<path d="M4814 6338 c-4 -13 -11 -26 -16 -29 -10 -7 3 -159 19 -219 15 -55 9
-60 -71 -60 -40 0 -77 -5 -83 -11 -7 -7 -26 -8 -55 -3 -23 4 -47 6 -53 5 -22
-6 -403 -3 -413 3 -18 11 -61 -26 -62 -51 0 -41 44 -48 285 -47 121 0 272 4
336 8 l116 8 5 -98 c3 -55 2 -106 -3 -115 -6 -13 -2 -21 16 -33 36 -24 49 -20
73 22 40 71 151 171 218 195 97 36 102 40 107 71 3 24 -2 39 -24 64 -16 18
-29 37 -29 41 0 23 -207 211 -232 211 -8 0 -35 13 -59 30 -53 36 -65 37 -75 8z"/>
<path d="M7548 6110 c-25 -5 -138 -11 -250 -15 -112 -3 -212 -8 -223 -11 -11
-2 -56 0 -100 5 -66 7 -83 6 -97 -7 -27 -23 -22 -50 15 -69 27 -14 61 -17 212
-18 99 0 221 3 270 7 50 4 159 12 243 18 181 13 234 21 239 37 2 6 -13 23 -34
37 -34 24 -46 26 -133 25 -52 -1 -116 -5 -142 -9z"/>
<path d="M6629 6046 c-2 -2 -101 -7 -219 -10 -247 -8 -304 -12 -331 -27 -17
-9 -19 -22 -19 -142 -1 -136 -19 -277 -40 -302 -16 -19 -5 -62 18 -69 31 -10
250 -26 266 -20 9 3 23 1 31 -6 18 -15 388 -4 419 12 20 11 20 -1 -4 211 -8
71 -8 129 0 213 13 138 10 144 -65 144 -28 0 -54 -2 -56 -4z m44 -246 c4 -91
8 -183 10 -204 2 -35 -1 -40 -25 -47 -39 -10 -540 -1 -551 10 -7 7 -6 44 3
108 8 54 13 132 12 174 -1 51 2 80 11 86 12 10 59 17 202 29 191 16 253 19
290 14 l40 -5 8 -165z"/>
<path d="M7450 5890 c-46 -11 -153 -14 -212 -5 -38 6 -55 3 -92 -15 -38 -18
-56 -21 -99 -16 -103 13 -201 10 -211 -7 -16 -26 0 -31 92 -33 48 -1 112 -4
142 -7 36 -4 67 0 92 10 26 10 53 13 85 8 78 -10 174 -6 241 12 55 14 84 34
71 48 -10 9 -78 13 -109 5z"/>
<path d="M6971 5679 c-35 -5 -68 -6 -73 -3 -16 10 -37 -28 -26 -46 9 -14 21
-15 77 -8 42 5 90 4 131 -3 78 -13 148 -13 201 1 47 13 49 24 8 44 -22 11 -37
12 -55 6 -32 -13 -83 -13 -120 -1 -51 16 -78 18 -143 10z"/>
<path d="M7698 5395 c-6 -6 -253 -17 -348 -16 -36 0 -105 -4 -155 -9 -72 -8
-160 -15 -246 -20 -3 0 -11 -11 -17 -24 -10 -23 -8 -27 24 -46 21 -13 43 -20
57 -17 12 3 78 7 147 8 69 1 156 6 194 10 38 5 145 12 238 15 235 8 303 16
303 34 0 14 -16 24 -87 54 -35 15 -99 22 -110 11z"/>
<path d="M6650 5334 c-63 -8 -172 -12 -323 -9 l-227 3 -14 -32 c-8 -18 -16
-82 -20 -156 -3 -69 -10 -141 -16 -160 -6 -19 -15 -50 -21 -68 -9 -29 -8 -35
13 -52 36 -29 80 -32 258 -15 167 15 396 20 482 9 44 -6 47 -5 53 19 4 14 -5
83 -19 154 -18 92 -23 145 -19 186 4 44 2 67 -12 97 -10 22 -23 39 -29 39 -6
-1 -54 -7 -106 -15z m66 -163 c1 -96 16 -182 37 -209 20 -26 11 -27 -268 -36
-55 -2 -162 -7 -237 -11 -157 -9 -147 -15 -123 78 8 32 15 89 15 126 0 38 3
82 6 98 l6 30 221 1 c181 0 287 7 337 21 3 0 6 -44 6 -98z"/>
<path d="M7130 5184 c-14 -2 -40 -7 -57 -10 -23 -3 -40 -16 -58 -41 -23 -34
-23 -38 -8 -55 21 -24 27 -23 57 7 l25 25 204 -3 c186 -2 207 0 240 18 20 11
37 25 37 31 0 19 -61 25 -135 13 -54 -9 -86 -9 -140 0 -94 16 -135 20 -165 15z"/>
<path d="M7063 4969 c-47 -11 -86 -55 -62 -70 20 -12 41 -11 89 6 49 17 88 19
216 9 74 -5 96 -3 122 10 38 20 40 33 9 45 -31 12 -320 11 -374 0z"/>
<path d="M7067 4720 c-39 -4 -52 -10 -65 -32 -21 -36 -9 -48 56 -59 42 -6 330
-14 432 -11 19 0 131 3 249 6 208 6 241 11 241 40 0 6 -13 20 -28 31 -33 25
-201 37 -332 24 -47 -4 -101 -9 -120 -10 -35 -1 -371 12 -380 15 -3 1 -27 -1
-53 -4z"/>
<path d="M10795 4000 c-38 -16 -81 -38 -95 -48 -71 -52 -182 -121 -237 -147
-43 -21 -65 -37 -69 -53 -8 -30 21 -54 56 -46 19 3 32 -2 50 -21 13 -14 29
-25 35 -25 18 0 45 -34 45 -57 0 -22 -109 -155 -224 -273 -40 -41 -94 -101
-120 -132 -27 -32 -94 -90 -150 -130 -55 -40 -120 -87 -143 -106 -22 -18 -77
-48 -121 -66 -44 -18 -91 -40 -106 -49 -14 -9 -28 -17 -31 -17 -4 0 -39 -15
-78 -34 -149 -71 -204 -95 -262 -114 -33 -11 -89 -32 -125 -47 -89 -36 -209
-75 -231 -75 -10 0 -21 -4 -24 -10 -3 -5 -17 -10 -30 -10 -13 0 -27 -4 -30
-10 -3 -5 -18 -10 -33 -10 -15 0 -47 -7 -72 -16 -71 -25 -223 -66 -242 -66
-10 1 -20 -3 -23 -9 -4 -5 -25 -9 -48 -9 -23 0 -63 -7 -89 -14 -25 -8 -48 -12
-51 -10 -2 3 -47 -6 -99 -20 -86 -22 -156 -34 -398 -66 -72 -10 -290 -29 -355
-31 -11 -1 -42 -5 -70 -10 -27 -4 -77 -11 -110 -14 -33 -3 -71 -7 -85 -10 -14
-2 -187 -7 -384 -10 -198 -3 -363 -8 -368 -11 -19 -12 -506 -4 -613 10 -60 8
-157 17 -215 21 -58 4 -150 18 -205 32 -104 26 -171 42 -290 70 -38 9 -74 19
-80 23 -5 4 -39 15 -75 24 -36 10 -79 21 -96 26 -17 6 -38 10 -47 10 -10 0
-25 4 -35 9 -24 13 -209 72 -236 76 -11 1 -48 12 -81 25 -33 12 -78 25 -100
29 -23 4 -46 11 -53 15 -7 4 -25 9 -40 12 -15 2 -38 9 -52 14 -14 4 -49 14
-79 21 -30 6 -80 24 -110 39 -31 16 -78 35 -106 43 -127 38 -325 128 -345 157
-3 4 -30 21 -60 38 -30 16 -104 64 -165 106 -60 41 -141 97 -180 123 -38 26
-127 104 -197 173 -147 146 -217 210 -229 210 -4 0 -10 8 -13 18 -3 10 -44 57
-90 105 -75 78 -87 87 -110 81 -39 -9 -50 -37 -25 -60 12 -11 30 -36 41 -57
10 -21 25 -40 33 -43 7 -3 35 -33 61 -66 51 -65 121 -138 133 -138 4 0 65 -59
137 -131 110 -112 165 -159 253 -214 20 -13 118 -79 151 -102 14 -10 27 -22
29 -27 2 -4 20 -16 40 -25 20 -9 83 -48 141 -87 107 -71 182 -111 235 -125 54
-14 229 -78 257 -94 14 -8 37 -15 50 -15 13 0 28 -4 34 -9 13 -12 116 -41 125
-35 5 2 35 -6 68 -20 33 -13 84 -29 113 -35 29 -7 118 -34 198 -61 143 -48
208 -67 263 -75 15 -3 44 -13 65 -24 21 -11 56 -23 77 -26 22 -4 47 -11 56
-16 8 -4 38 -10 65 -14 86 -10 119 -17 134 -30 8 -7 29 -15 45 -18 17 -3 65
-13 107 -21 132 -25 624 -69 683 -60 22 3 117 7 210 8 161 3 626 16 690 21 17
1 93 5 170 9 162 9 190 12 242 24 21 5 81 10 133 11 52 2 99 6 105 9 5 4 51
10 100 14 129 10 256 26 285 37 14 5 51 12 84 15 32 4 68 12 80 18 11 7 28 13
36 13 86 5 286 48 305 66 5 5 25 9 45 9 20 0 45 6 55 14 11 8 24 12 30 10 11
-5 33 1 197 45 43 12 91 21 107 21 17 0 32 4 35 9 4 5 32 17 64 27 31 10 77
28 101 41 24 13 54 23 66 23 12 0 33 9 47 19 13 11 38 23 54 26 28 6 52 16
165 69 31 14 61 26 66 26 6 0 16 7 23 15 7 8 23 15 37 15 24 0 87 28 133 60
14 9 36 20 50 23 35 9 187 106 262 168 73 59 442 439 459 472 21 38 72 97 85
97 17 0 142 -77 188 -117 77 -65 100 -41 103 109 3 118 -21 375 -41 448 -16
56 -29 58 -121 20z"/>
<path d="M9463 2320 c-70 -16 -106 -56 -128 -140 -13 -48 -12 -57 7 -115 17
-50 27 -65 45 -70 41 -10 45 1 39 94 -9 111 7 148 74 172 53 19 63 44 25 59
-14 5 -27 10 -28 9 -1 -1 -17 -4 -34 -9z"/>
<path d="M8797 2313 c-4 -3 -7 -14 -7 -24 0 -22 43 -137 75 -199 39 -78 40
-87 4 -94 -52 -10 -86 -42 -104 -97 -20 -60 -11 -93 41 -138 l33 -29 63 18
c61 19 108 57 108 88 0 18 -29 15 -57 -8 -65 -51 -149 2 -113 71 14 25 56 25
99 -2 27 -16 36 -18 42 -7 15 22 10 44 -27 130 -20 45 -46 108 -59 138 -58
144 -77 175 -98 153z"/>
<path d="M4235 2163 c-47 -12 -105 -45 -129 -74 -22 -26 -26 -40 -26 -94 0
-47 6 -74 22 -102 30 -53 66 -90 94 -97 13 -4 24 -10 24 -15 0 -5 6 -16 14
-24 12 -11 38 -14 121 -11 135 5 168 20 127 57 -14 13 -40 17 -103 18 -122 2
-166 25 -207 106 -29 56 -19 98 31 134 50 36 113 39 201 8 l60 -22 18 23 c11
13 18 33 16 44 -5 34 -186 68 -263 49z"/>
<path d="M9112 2145 c-65 -55 -92 -169 -55 -234 28 -47 94 -75 176 -73 75 1
97 12 97 48 0 29 -3 29 -40 7 -25 -15 -34 -15 -70 -3 -52 17 -72 39 -42 47 23
6 56 52 65 93 9 37 -9 103 -34 123 -30 24 -62 21 -97 -8z m68 -84 c0 -31 -6
-44 -26 -60 -38 -30 -47 -27 -39 15 10 55 26 84 47 84 14 0 18 -8 18 -39z"/>
<path d="M4688 2113 c-8 -10 -20 -38 -27 -63 -7 -25 -24 -79 -38 -120 -14 -41
-31 -96 -38 -121 -7 -25 -23 -65 -34 -88 -19 -36 -20 -45 -8 -66 12 -24 14
-24 35 -9 27 18 83 127 105 204 55 185 65 243 47 265 -16 19 -24 19 -42 -2z"/>
<path d="M8517 2010 c-20 -16 -27 -33 -32 -75 -4 -30 -13 -60 -21 -66 -18 -15
-18 -38 1 -82 21 -52 19 -72 -12 -93 -35 -22 -113 -36 -130 -22 -20 17 -15 36
15 53 15 9 42 36 60 60 42 55 38 96 -11 126 -41 24 -74 24 -114 -1 -49 -29
-66 -63 -66 -129 0 -86 48 -156 124 -178 50 -14 123 10 152 51 17 24 28 30 49
28 36 -4 44 26 23 93 -8 28 -15 72 -15 98 0 41 3 48 18 45 16 -3 40 -42 71
-119 27 -67 101 -120 101 -71 0 27 -105 236 -136 271 -32 36 -43 38 -77 11z
m-162 -159 c6 -11 -57 -81 -74 -81 -17 0 -4 61 17 78 19 14 48 16 57 3z"/>
<path d="M7092 2008 c-16 -16 -15 -37 9 -184 22 -140 21 -144 -38 -144 -43 0
-99 -50 -115 -102 -10 -34 -9 -44 6 -71 9 -18 34 -44 55 -58 32 -23 46 -26
104 -24 55 2 73 8 102 29 20 16 35 36 35 48 0 22 0 22 -100 -5 -48 -13 -58
-13 -83 -1 -34 18 -52 54 -43 88 5 22 12 26 41 26 19 0 49 -9 67 -20 18 -11
39 -20 46 -20 21 0 31 43 20 96 -21 108 -29 163 -34 244 -3 47 -10 91 -16 98
-13 15 -40 16 -56 0z"/>
<path d="M4826 1964 c-19 -18 -19 -16 -6 -50 8 -21 14 -24 22 -16 7 7 20 12
29 12 22 0 29 19 16 48 -12 26 -39 29 -61 6z"/>
<path d="M5846 1898 c-3 -13 -10 -60 -17 -105 -13 -92 -13 -92 -92 -74 -30 7
-42 5 -60 -9 -22 -19 -22 -19 -2 -35 34 -26 89 -52 103 -48 17 7 15 -11 -12
-91 -36 -108 -37 -118 -16 -146 27 -36 50 -18 76 58 12 34 24 65 27 69 4 3 7
14 7 24 0 10 5 30 12 44 10 22 17 25 65 25 53 0 54 1 51 28 -2 22 -11 30 -45
42 l-43 14 0 113 0 113 -25 0 c-18 0 -26 -6 -29 -22z"/>
<path d="M8002 1849 c-18 -17 -40 -41 -48 -54 -13 -19 -22 -23 -44 -18 -48 9
-48 -28 0 -124 22 -45 40 -92 40 -105 0 -26 17 -48 37 -48 23 0 45 70 33 103
-15 44 -12 134 5 167 16 31 65 60 102 60 29 0 30 14 1 34 -37 26 -88 20 -126
-15z"/>
<path d="M4819 1837 c-11 -9 -19 -45 -28 -126 -6 -63 -16 -122 -21 -132 -8
-14 -5 -19 12 -25 24 -7 54 23 64 66 3 14 9 43 14 65 5 22 11 66 12 99 3 52 1
59 -17 62 -11 1 -27 -3 -36 -9z"/>
<path d="M5072 1788 c-22 -18 -56 -57 -75 -86 -31 -46 -34 -56 -25 -82 5 -16
40 -57 76 -90 65 -59 69 -62 112 -57 61 5 179 82 158 102 -2 2 -32 -5 -67 -16
-68 -20 -89 -18 -133 13 -30 21 -38 44 -12 34 23 -9 113 24 129 47 24 34 18
80 -15 125 -26 37 -35 42 -69 42 -29 0 -49 -8 -79 -32z m103 -87 c-4 -14 -15
-21 -33 -21 -15 0 -37 -3 -49 -6 -36 -10 -29 19 13 56 37 32 37 32 56 12 14
-13 18 -26 13 -41z"/>
<path d="M6801 1786 l-22 -24 22 -16 c44 -31 69 -12 50 37 -13 33 -21 34 -50
3z"/>
<path d="M6436 1760 c-34 -22 -47 -38 -55 -67 -6 -21 -11 -41 -11 -45 0 -20
70 -83 114 -103 28 -12 59 -31 69 -42 16 -18 16 -21 1 -34 -9 -7 -30 -12 -47
-10 -90 7 -100 6 -111 -12 -9 -15 -6 -22 17 -42 15 -13 33 -22 41 -19 7 3 18
-1 24 -9 9 -10 22 -12 50 -7 92 18 129 54 118 115 -9 46 -49 84 -129 120 -53
24 -67 35 -67 52 0 29 31 45 103 54 32 4 61 9 64 12 3 3 1 18 -4 33 -9 26 -13
28 -70 30 -53 2 -68 -2 -107 -26z"/>
<path d="M7366 1733 c-30 -23 -55 -55 -71 -90 -24 -49 -25 -57 -13 -90 15 -40
60 -83 88 -83 10 0 21 -4 24 -9 3 -4 26 -11 51 -14 60 -9 113 17 139 67 26 48
13 60 -40 37 -34 -16 -50 -17 -97 -9 -32 6 -57 14 -57 18 0 4 26 21 58 38 69
36 97 70 88 106 -8 31 -38 52 -88 59 -31 5 -43 0 -82 -30z m94 -58 c0 -5 -67
-35 -78 -35 -3 0 3 9 13 20 16 17 65 29 65 15z"/>
<path d="M5475 1693 c-16 -8 -39 -23 -49 -32 -14 -12 -20 -13 -23 -3 -7 18
-31 15 -36 -5 -3 -10 -4 -62 -3 -115 1 -78 5 -101 18 -115 17 -16 19 -16 32 2
8 11 18 36 21 56 7 41 25 94 43 126 30 54 94 -28 97 -125 3 -62 24 -94 53 -76
52 33 21 187 -53 262 -47 46 -56 49 -100 25z"/>
<path d="M6132 1589 c-66 -11 -92 -24 -92 -47 0 -41 118 -56 197 -26 49 19 56
44 21 68 -25 17 -46 18 -126 5z"/>
<path d="M6810 1558 c-25 -41 -36 -96 -23 -116 17 -27 41 -38 55 -24 20 20 18
172 -3 172 -5 0 -18 -15 -29 -32z"/>
<path d="M5441 1108 c-29 -17 -61 -44 -71 -60 -10 -16 -27 -36 -37 -43 -11 -8
-33 -40 -48 -72 -24 -50 -27 -67 -22 -125 3 -53 10 -75 31 -102 14 -19 26 -39
26 -43 0 -5 13 -21 28 -36 36 -34 69 -35 84 -3 10 22 6 31 -33 77 -41 50 -44
56 -44 114 0 44 6 74 23 106 25 48 97 129 151 170 71 53 -1 67 -88 17z"/>
<path d="M7026 1104 c-16 -23 -18 -37 -12 -117 9 -112 27 -198 44 -204 23 -9
43 18 38 51 -3 17 -6 85 -7 151 -1 66 -6 126 -11 133 -15 18 -31 14 -52 -14z"/>
<path d="M7263 1120 c-28 -11 -28 -14 2 -65 39 -66 50 -96 70 -183 27 -122 10
-206 -75 -352 l-20 -35 21 -17 c25 -21 52 -23 67 -5 52 63 116 247 113 322 -5
114 -49 252 -102 319 -21 27 -39 31 -76 16z"/>
<path d="M5755 963 c-11 -3 -33 -14 -48 -25 -22 -16 -31 -18 -43 -7 -11 9 -21
9 -38 1 -22 -10 -23 -13 -18 -119 3 -89 8 -114 26 -140 11 -18 29 -33 38 -33
28 0 47 37 41 80 -3 21 -2 60 2 86 7 46 7 47 76 78 38 17 69 37 69 44 0 7 -16
20 -35 28 -36 15 -38 15 -70 7z"/>
<path d="M6115 926 c-68 -19 -159 -74 -216 -132 -50 -51 -54 -58 -53 -100 1
-38 6 -50 39 -79 67 -62 144 -37 198 63 l29 53 19 -25 c10 -13 19 -28 19 -32
0 -4 14 -23 31 -40 30 -31 54 -35 70 -11 7 10 -31 101 -50 120 -6 6 -11 20
-11 31 0 12 -6 33 -14 47 -8 16 -10 32 -5 40 8 14 2 59 -10 70 -3 3 -24 1 -46
-5z m-40 -123 c-4 -10 -14 -36 -22 -58 -23 -67 -80 -102 -121 -76 -30 19 -8
55 63 103 77 51 91 57 80 31z"/>
<path d="M6425 896 c-22 -13 -56 -43 -74 -67 -33 -40 -35 -46 -33 -117 1 -41
3 -76 5 -78 2 -3 21 -5 43 -7 l38 -2 9 50 c4 28 10 65 13 83 7 44 73 94 113
86 23 -5 29 -2 34 15 8 32 -15 53 -64 58 -34 3 -53 -1 -84 -21z"/>
<path d="M6709 887 c-103 -39 -147 -110 -133 -215 6 -42 12 -51 63 -90 56 -43
56 -44 119 -38 87 9 132 32 132 67 0 32 -25 44 -62 30 -33 -12 -119 -2 -140
17 -26 22 -22 42 7 42 25 0 64 14 153 57 49 24 52 28 52 62 0 21 -6 45 -12 54
-18 24 -130 32 -179 14z"/>
<path d="M7052 627 c-30 -32 -28 -61 4 -76 22 -10 30 -9 44 4 10 9 20 28 23
43 10 52 -33 69 -71 29z"/>
</g>
</svg>
