<?xml version="1.0" standalone="no"?>
<!DOCTYPE svg PUBLIC "-//W3C//DTD SVG 20010904//EN"
 "http://www.w3.org/TR/2001/REC-SVG-20010904/DTD/svg10.dtd">
<svg version="1.0" xmlns="http://www.w3.org/2000/svg"
 width="717.067926pt" height="400.000000pt" viewBox="0 0 717.067926 400.000000"
 preserveAspectRatio="xMidYMid meet">
<metadata>
Created by potrace 1.15, written by Peter Selinger 2001-2017
</metadata>
<g transform="translate(-20.020158,411.043682) scale(0.035625,-0.035625)"
fill="#444444" stroke="none">
<path d="M12925 11513 c-51 -36 -57 -44 -98 -128 -76 -157 -102 -312 -78 -470
14 -96 49 -186 98 -251 13 -17 23 -36 23 -42 0 -6 18 -21 41 -32 44 -23 71
-20 107 13 38 35 23 77 -27 77 -15 0 -36 8 -48 18 -25 19 -73 111 -73 138 0
11 -8 48 -18 84 -22 77 -20 159 8 276 19 80 75 211 105 244 8 9 15 21 15 27 0
5 10 14 22 20 l22 9 -22 22 c-28 28 -29 28 -77 -5z"/>
<path d="M2118 11520 c-15 -4 -29 -6 -31 -3 -9 9 -107 -26 -128 -46 -25 -23
-19 -56 17 -86 24 -21 31 -57 39 -191 2 -33 11 -86 20 -119 10 -38 14 -75 10
-100 -3 -22 -7 -71 -9 -109 -2 -62 0 -70 21 -83 42 -27 49 -7 57 150 4 78 9
143 11 145 2 2 24 -4 50 -12 48 -17 97 -48 150 -98 17 -15 49 -40 72 -55 22
-16 59 -41 82 -57 38 -26 44 -28 57 -14 30 30 -16 86 -163 201 -39 31 -75 61
-78 67 -3 6 13 19 37 29 59 25 124 91 139 140 10 33 9 45 -4 73 -50 105 -246
200 -349 168z m138 -99 c11 0 47 -21 80 -45 58 -43 60 -46 56 -85 -4 -36 -9
-42 -51 -64 -25 -14 -62 -28 -81 -31 -19 -4 -44 -12 -56 -17 -34 -17 -92 23
-99 69 -3 20 -10 56 -16 79 -5 23 -9 48 -9 56 0 22 61 45 110 42 25 -1 54 -3
66 -4z"/>
<path d="M6402 11498 c-95 -21 -252 -164 -252 -229 0 -11 -6 -30 -14 -42 -8
-12 -19 -62 -24 -112 -8 -78 -7 -98 10 -150 46 -148 91 -192 183 -180 103 14
115 14 115 3 0 -8 30 -9 99 -5 l98 6 39 -40 c46 -47 127 -99 153 -99 26 0 39
40 19 54 -37 27 -95 84 -111 110 -18 27 -18 28 3 43 31 22 69 87 76 132 7 47
-11 136 -35 171 -10 14 -34 57 -54 95 -48 91 -116 168 -191 217 -32 21 -62 38
-65 37 -3 -1 -25 -5 -49 -11z m155 -175 c49 -54 75 -95 120 -183 10 -19 22
-38 26 -41 5 -3 9 -31 10 -61 1 -41 -4 -62 -21 -85 -12 -17 -19 -33 -15 -37 3
-3 -5 -6 -20 -6 -18 0 -34 11 -54 38 -51 68 -126 157 -139 165 -20 11 -57 -42
-49 -72 3 -13 32 -53 63 -88 60 -69 63 -94 11 -99 -34 -3 -128 35 -167 68 -39
33 -36 33 -58 11 -15 -16 -17 -16 -30 2 -75 103 -13 354 106 427 36 22 65 27
120 22 40 -3 51 -10 97 -61z"/>
<path d="M5173 11483 c-28 -5 -28 -14 -4 -91 19 -58 44 -173 38 -178 -1 -1
-42 2 -91 6 -62 6 -94 5 -107 -3 -14 -9 -22 -8 -37 6 -23 21 -167 24 -224 4
-45 -16 -78 -44 -78 -67 0 -28 59 -110 86 -120 15 -6 37 -19 51 -30 13 -10 36
-21 52 -25 41 -9 100 -61 94 -83 -2 -11 -34 -32 -76 -51 -57 -26 -87 -33 -143
-35 -72 -3 -123 -23 -109 -45 9 -16 62 -37 111 -44 48 -8 186 37 239 77 19 14
38 26 43 26 14 0 32 47 32 84 0 28 -8 39 -60 79 -33 26 -62 47 -65 47 -3 0
-24 12 -48 27 -23 15 -51 32 -61 38 -11 5 -21 16 -24 23 -3 10 14 12 76 11 57
-2 85 1 97 11 15 12 19 12 29 -1 6 -8 57 -26 113 -40 l103 -24 0 -47 c0 -26
-5 -81 -11 -122 -11 -70 -10 -77 11 -105 25 -36 49 -39 75 -11 16 18 24 107
25 276 0 22 35 44 70 44 11 0 30 11 44 25 23 23 24 26 7 34 -10 6 -40 13 -68
17 l-50 6 -23 92 c-25 102 -65 197 -83 195 -7 -1 -22 -4 -34 -6z"/>
<path d="M9370 11472 c-31 -11 -39 -34 -25 -79 7 -23 10 -44 7 -47 -2 -3 1
-12 7 -20 7 -8 12 -37 13 -65 0 -28 3 -53 7 -56 5 -2 5 -25 1 -50 -4 -25 -4
-48 0 -50 7 -4 5 -69 -6 -190 -3 -38 -7 -88 -9 -110 -4 -48 27 -102 65 -112
14 -4 61 2 105 11 44 10 98 21 120 23 22 3 46 10 54 17 8 6 22 10 31 8 9 -1
28 2 42 7 37 14 27 57 -17 75 -28 12 -42 12 -95 -1 -35 -8 -69 -12 -77 -8 -9
3 -32 1 -52 -4 -20 -5 -48 -12 -62 -15 l-26 -6 1 183 c1 100 -2 216 -6 257
-20 207 -34 247 -78 232z"/>
<path d="M19008 11414 c-24 -25 -7 -52 74 -120 81 -67 125 -129 166 -234 80
-204 46 -508 -70 -632 -31 -33 -34 -48 -16 -66 66 -66 210 137 210 296 0 20 5
43 10 50 25 30 4 325 -27 380 -8 15 -34 62 -58 104 -23 43 -71 107 -106 144
-84 87 -147 114 -183 78z"/>
<path d="M11612 11404 c-26 -18 -27 -34 -7 -91 8 -23 17 -87 21 -141 l6 -99
-29 2 c-53 4 -118 17 -130 27 -7 6 -13 25 -13 43 0 35 -24 141 -42 188 -8 20
-17 27 -38 27 -36 0 -39 -4 -29 -53 5 -23 11 -79 14 -123 6 -93 5 -94 -86 -94
-33 0 -51 -6 -64 -20 -24 -26 -13 -68 17 -69 51 -2 118 -10 125 -14 9 -6 9
-45 -1 -102 -4 -22 -7 -73 -8 -113 -2 -76 8 -97 47 -104 28 -4 41 43 56 195
11 114 14 126 34 135 13 6 37 8 55 6 17 -3 45 -1 61 5 26 9 29 8 35 -16 4 -14
4 -95 2 -181 -6 -155 -5 -155 19 -180 l24 -24 24 22 c13 12 28 43 34 68 17 70
71 169 106 197 46 34 93 40 131 16 39 -24 81 -107 94 -183 10 -65 35 -118 54
-118 7 0 21 9 31 20 61 68 -69 359 -173 386 -37 10 -150 -36 -203 -83 -26 -24
-51 -43 -55 -43 -5 0 -9 24 -9 53 1 136 -14 375 -26 402 -7 17 -11 36 -10 44
3 14 -16 31 -34 31 -6 0 -21 -7 -33 -16z"/>
<path d="M13283 11385 c-59 -11 -143 -75 -143 -107 0 -36 20 -60 44 -54 21 5
24 2 29 -47 4 -28 11 -81 16 -117 8 -47 7 -74 -1 -97 -10 -27 -9 -35 5 -51 9
-10 17 -30 17 -45 0 -14 5 -29 10 -32 6 -3 7 -17 4 -30 -3 -14 -1 -39 5 -56 8
-24 8 -36 0 -46 -9 -11 -8 -17 7 -28 26 -20 29 -19 48 11 15 21 16 41 10 128
l-7 103 89 53 c103 61 145 98 179 156 21 36 23 46 14 78 -11 40 -100 136 -125
136 -8 0 -28 10 -43 21 -38 28 -94 37 -158 24z m145 -114 c31 -16 67 -40 80
-54 l23 -25 -20 -38 c-27 -53 -71 -98 -117 -122 -66 -33 -77 -32 -80 8 -2 19
-5 49 -8 65 -3 17 -7 62 -11 102 l-5 72 32 10 c47 13 43 14 106 -18z"/>
<path d="M15212 11260 c-128 -19 -148 -31 -137 -79 3 -17 10 -33 15 -36 4 -2
74 2 156 10 82 8 236 16 342 18 106 3 196 7 199 10 10 11 -20 39 -57 55 -80
33 -367 45 -518 22z"/>
<path d="M16801 11262 c-5 -9 -9 -65 -8 -123 2 -126 -4 -139 -70 -139 -45 0
-93 -23 -93 -45 0 -7 11 -24 25 -39 19 -21 33 -26 70 -26 l45 0 0 -100 c0
-114 16 -170 49 -170 36 0 48 38 56 165 4 66 8 121 10 123 7 7 162 42 187 42
44 0 78 17 78 40 0 18 -6 20 -55 20 -30 0 -56 1 -57 1 -2 1 -34 7 -73 13 l-70
11 -5 95 c-7 115 -20 150 -54 150 -14 0 -30 -8 -35 -18z"/>
<path d="M2684 11212 c-52 -51 -84 -121 -88 -189 -2 -21 -9 -50 -16 -65 -12
-24 -11 -30 5 -48 10 -11 26 -20 36 -20 10 0 30 -11 46 -24 52 -44 102 -61
230 -83 43 -7 100 14 119 43 26 39 13 50 -57 52 -58 1 -139 26 -139 41 0 3 12
12 28 19 60 28 112 91 112 136 0 44 -23 71 -106 127 -100 68 -112 69 -170 11z
m129 -87 c22 -19 44 -35 49 -35 4 0 8 -13 8 -30 0 -24 -5 -31 -27 -36 -16 -4
-33 -11 -40 -16 -6 -5 -31 -10 -54 -11 -40 -2 -43 0 -52 30 -5 17 -7 42 -4 55
7 26 52 78 68 78 6 0 29 -16 52 -35z"/>
<path d="M3370 11223 c-44 -17 -131 -64 -151 -83 -77 -71 -102 -100 -124 -144
-46 -91 -29 -180 44 -234 35 -25 59 -27 104 -8 40 17 124 90 132 115 5 17 33
36 41 29 1 -2 6 -37 9 -78 3 -40 9 -78 12 -83 3 -4 7 -25 9 -45 13 -121 32
-244 40 -252 5 -5 24 -12 41 -16 27 -5 33 -2 46 22 33 62 45 92 66 179 13 50
34 112 47 139 13 28 24 56 24 63 0 16 15 17 41 2 16 -8 27 -6 47 7 36 22 90
82 98 108 4 12 17 31 30 44 22 23 23 23 33 3 6 -11 11 -27 11 -36 0 -26 64
-85 93 -85 24 0 25 2 20 43 -3 23 -9 47 -13 52 -4 6 -10 26 -14 45 -4 19 -19
60 -34 90 -24 50 -30 55 -62 58 -33 2 -37 -1 -70 -55 -19 -31 -40 -69 -47 -84
-14 -33 -52 -73 -61 -64 -4 4 -7 55 -7 113 0 93 -2 107 -17 110 -10 2 -28 -7
-42 -20 -29 -28 -38 -87 -27 -195 6 -64 5 -74 -10 -78 -34 -11 -68 -58 -95
-131 -30 -83 -44 -100 -44 -55 0 17 -4 40 -9 53 -5 13 -17 86 -26 163 -22 185
-33 241 -51 256 -8 7 -13 18 -10 25 9 24 -38 40 -74 27z m10 -140 c0 -29 -23
-96 -52 -149 -17 -32 -100 -94 -125 -94 -17 0 -53 36 -53 53 0 26 49 113 79
141 41 39 101 74 129 75 18 1 22 -4 22 -26z"/>
<path d="M4340 11214 c-53 -23 -144 -125 -168 -189 l-22 -56 20 -50 c11 -27
27 -60 35 -72 23 -36 120 -79 188 -85 60 -4 133 11 152 32 6 7 21 20 35 31 58
46 3 75 -84 45 -46 -16 -59 -16 -115 -4 -79 16 -149 74 -90 74 38 0 133 32
173 59 21 14 49 33 62 41 13 8 27 23 30 34 9 28 -23 87 -68 124 -45 36 -90 41
-148 16z m108 -86 c26 -26 10 -38 -125 -95 -32 -13 -33 -12 -33 10 0 63 117
126 158 85z"/>
<path d="M15406 11128 c-9 -15 -18 -78 -25 -178 -6 -85 -14 -174 -17 -197 l-6
-43 -88 0 c-83 0 -89 -1 -104 -25 -15 -23 -15 -27 -1 -41 8 -8 15 -20 15 -26
0 -18 215 -1 284 22 33 11 72 20 87 20 15 0 31 5 34 11 4 6 19 7 35 4 16 -3
47 -1 69 6 40 12 90 53 78 65 -6 6 -251 8 -277 2 -13 -2 -16 24 -20 182 -3
102 -9 193 -14 203 -11 24 -33 21 -50 -5z"/>
<path d="M6886 11121 c-16 -18 -16 -24 -3 -83 8 -34 21 -97 27 -138 12 -73 43
-127 87 -153 37 -22 120 45 146 116 9 24 27 12 27 -16 0 -25 55 -97 73 -97 7
0 20 7 30 14 16 12 16 16 2 42 -19 37 -32 108 -40 216 -4 49 -12 91 -19 97 -7
6 -24 7 -42 2 -25 -6 -30 -14 -40 -59 -13 -58 -65 -165 -97 -200 l-22 -23 -17
39 c-9 22 -20 82 -24 132 -5 70 -11 97 -25 111 -24 24 -41 24 -63 0z"/>
<path d="M14245 11123 c-55 -8 -114 -68 -155 -159 -21 -45 -46 -86 -56 -92
-14 -8 -15 -14 -6 -41 14 -40 9 -51 -36 -80 -69 -44 -185 -40 -246 8 l-36 29
25 16 c13 9 46 21 72 28 26 7 60 20 75 30 14 10 31 18 36 18 16 0 42 41 42 65
0 21 -69 99 -119 134 -42 30 -106 28 -156 -5 -62 -41 -95 -76 -95 -99 0 -11
-5 -26 -11 -32 -13 -13 2 -100 29 -163 23 -53 96 -129 132 -136 14 -3 33 -9
42 -15 47 -25 144 1 198 52 48 46 65 48 92 14 11 -14 23 -25 28 -25 21 0 49
70 56 135 8 88 39 171 75 207 24 25 35 28 93 28 59 0 66 2 66 20 0 11 -5 20
-11 20 -6 0 -25 11 -43 25 -18 14 -39 24 -47 24 -8 -1 -27 -4 -44 -6z m-400
-149 c12 -19 12 -23 -3 -36 -18 -15 -128 -48 -162 -48 -15 0 -20 7 -20 25 0
44 29 85 72 105 41 18 42 18 70 -3 15 -11 35 -31 43 -43z"/>
<path d="M16439 11111 c-65 -9 -139 -60 -139 -95 0 -9 45 -60 100 -115 55 -54
100 -104 100 -110 0 -22 -133 -50 -145 -31 -12 19 -52 10 -63 -14 -9 -20 -7
-27 18 -51 23 -22 37 -26 82 -26 97 0 125 9 162 55 18 22 36 47 40 54 5 8 -23
46 -76 103 -46 50 -83 96 -83 102 0 7 18 16 40 20 65 14 105 35 117 62 23 51
-22 64 -153 46z"/>
<path d="M7522 11081 c-29 -16 -61 -36 -71 -45 -10 -9 -25 -16 -34 -16 -21 0
-57 -47 -57 -75 0 -38 76 -173 125 -222 43 -43 114 -59 160 -36 39 20 91 76
104 113 12 37 1 45 -30 22 -30 -23 -103 -52 -131 -52 -23 0 -88 63 -88 86 0 9
11 14 30 14 17 0 47 9 67 20 21 11 45 20 55 20 9 0 19 9 23 19 3 10 19 24 35
31 34 14 44 39 36 85 -8 38 -32 51 -116 59 -48 5 -62 2 -108 -23z m113 -79
c-9 -10 -110 -41 -132 -42 -38 0 -26 14 40 47 57 28 64 29 80 15 9 -8 15 -17
12 -20z"/>
<path d="M8500 11100 c0 -5 -15 -6 -34 -3 -30 5 -40 0 -81 -38 -63 -58 -95
-123 -95 -191 1 -66 20 -102 89 -162 66 -59 81 -65 156 -60 127 8 170 16 191
36 12 11 37 27 55 36 33 17 58 46 48 57 -6 6 -68 -6 -149 -29 -100 -28 -216
-12 -240 34 -11 21 6 32 120 77 36 14 72 32 81 39 8 8 22 14 31 14 18 0 43 27
52 56 5 15 -1 27 -22 45 -16 13 -31 32 -35 41 -3 9 -19 23 -34 31 -34 17 -133
30 -133 17z m93 -86 c23 -15 37 -32 35 -42 -3 -17 -70 -45 -132 -55 -20 -3
-49 -12 -64 -20 -32 -16 -52 -12 -52 10 0 25 44 113 55 110 5 -2 24 2 40 9 45
20 76 17 118 -12z"/>
<path d="M10071 11083 c-29 -6 -128 -60 -139 -77 -4 -6 -19 -17 -34 -25 -17
-9 -29 -25 -33 -45 -4 -17 -11 -44 -17 -59 -12 -31 -4 -55 39 -114 35 -48 161
-85 274 -81 64 2 84 7 93 20 14 24 1 36 -54 47 -174 37 -214 48 -217 57 -2 7
26 19 69 29 86 21 145 52 176 94 42 58 25 102 -54 137 -55 24 -59 25 -103 17z
m72 -95 c48 -18 40 -27 -60 -63 -69 -25 -143 -33 -143 -15 0 14 78 73 113 85
33 11 42 11 90 -7z"/>
<path d="M10460 11069 c-40 -16 -90 -59 -90 -76 0 -9 -7 -24 -15 -33 -16 -18
-33 -100 -39 -191 -3 -44 -1 -52 21 -66 20 -13 28 -14 47 -4 21 12 24 22 29
105 6 111 32 166 76 166 33 0 53 -20 80 -81 23 -51 41 -177 30 -207 -6 -15 -2
-24 15 -36 21 -13 26 -13 45 0 18 13 21 25 21 97 0 67 -6 96 -32 165 -17 46
-37 86 -45 89 -7 3 -13 9 -13 14 0 17 -50 57 -77 63 -15 3 -39 0 -53 -5z"/>
<path d="M8147 11046 c-3 -8 -18 -16 -34 -18 -18 -2 -31 -12 -39 -28 -38 -83
-80 -161 -96 -181 l-18 -24 -24 27 c-24 26 -29 53 -39 188 -2 32 -4 35 -32 32
-50 -6 -57 -18 -52 -91 3 -36 8 -77 10 -91 3 -14 6 -33 6 -42 1 -23 68 -87
109 -105 31 -13 34 -12 71 17 24 20 48 53 67 95 15 36 31 65 35 65 3 0 16 -33
28 -72 16 -56 27 -76 46 -84 18 -9 28 -9 41 1 16 11 16 16 4 46 -8 18 -13 44
-12 58 2 25 -18 119 -39 189 -11 34 -23 41 -32 18z"/>
<path d="M10973 10995 c-29 -13 -53 -29 -53 -34 0 -6 -8 -11 -18 -11 -10 0
-40 -21 -68 -47 -106 -100 -136 -186 -93 -263 27 -48 63 -70 112 -70 42 0 88
21 82 38 -2 6 3 12 13 12 17 0 72 51 72 67 0 4 11 21 24 38 28 35 25 40 55
-111 24 -118 32 -257 18 -298 -7 -21 -24 -35 -65 -53 -60 -26 -90 -26 -163 4
-43 17 -80 76 -77 121 3 44 -1 82 -9 82 -5 0 -21 -27 -37 -59 -25 -52 -27 -63
-17 -93 23 -68 152 -168 219 -168 34 0 130 32 165 55 14 9 37 33 52 55 24 35
26 45 24 132 -1 59 -7 101 -16 116 -8 12 -11 27 -8 32 3 5 1 35 -6 67 -6 32
-12 69 -13 83 -2 14 -6 39 -10 55 -4 17 -11 53 -17 80 -24 121 -40 155 -69
155 -10 0 -20 9 -23 20 -6 25 -10 24 -74 -5z m41 -107 c-26 -124 -100 -228
-164 -231 -32 -2 -35 0 -38 30 -6 60 67 160 151 205 44 23 56 22 51 -4z"/>
<path d="M17395 11009 c-11 -5 -40 -23 -65 -39 -25 -16 -62 -39 -82 -50 -98
-53 -155 -139 -143 -212 5 -28 18 -48 52 -78 51 -44 92 -52 142 -26 39 20 96
86 126 146 14 27 29 50 34 50 5 0 22 -29 39 -64 29 -60 71 -106 97 -106 7 0
18 7 25 15 11 13 7 29 -22 93 -20 42 -46 103 -59 135 -17 42 -37 69 -69 95
-25 20 -47 40 -50 43 -3 4 -14 2 -25 -2z m-25 -146 c0 -45 -71 -160 -107 -174
-54 -20 -86 17 -59 69 17 34 33 48 95 84 46 27 71 34 71 21z"/>
<path d="M18864 11010 c-82 -9 -156 -70 -208 -173 -22 -43 -95 -98 -210 -157
-101 -52 -152 -54 -190 -9 -15 18 -26 43 -26 60 0 42 67 110 146 150 50 25 64
37 64 54 0 39 -24 50 -73 35 -23 -8 -49 -19 -57 -26 -8 -6 -24 -14 -35 -18
-31 -9 -121 -107 -134 -145 -26 -79 -1 -160 66 -216 32 -26 44 -30 97 -29 79
0 144 36 248 133 40 38 59 36 72 -8 14 -49 69 -98 131 -116 67 -19 102 -19
179 1 87 22 136 52 136 82 0 20 -4 23 -22 18 -56 -15 -170 -18 -228 -6 -68 14
-110 51 -89 76 6 8 16 14 21 14 5 0 43 14 85 31 52 22 88 46 120 78 42 44 44
48 40 94 -2 27 -8 52 -14 58 -17 17 -67 25 -119 19z m46 -97 c0 -15 -88 -63
-115 -63 l-28 0 24 26 c13 14 33 30 44 34 25 11 75 12 75 3z"/>
<path d="M15943 10994 c-17 -9 -45 -31 -62 -50 -17 -18 -43 -41 -57 -51 -25
-16 -26 -18 -19 -97 11 -119 32 -142 79 -85 17 20 26 42 26 65 0 62 46 124 91
124 37 0 89 -54 90 -94 1 -34 5 -91 7 -119 3 -27 51 -18 75 15 25 33 26 107 3
140 -9 12 -16 30 -16 38 0 24 -59 99 -91 115 -36 19 -86 19 -126 -1z"/>
<path d="M17823 10966 c-31 -15 -54 -33 -58 -46 -5 -16 -12 -20 -28 -16 -12 3
-37 0 -54 -6 -30 -11 -32 -15 -28 -47 2 -20 8 -56 14 -81 6 -25 10 -70 11
-100 1 -43 6 -61 26 -85 l25 -30 24 28 c21 23 25 38 25 91 0 79 33 181 66 203
22 14 26 14 49 -1 31 -21 67 -77 85 -136 18 -56 17 -55 19 -113 1 -40 5 -49
24 -56 33 -13 54 3 61 48 7 45 -18 155 -42 183 -8 9 -11 21 -8 26 16 27 -85
144 -134 155 -16 4 -44 -2 -77 -17z"/>
<path d="M1391 10161 c-23 -6 -23 -9 -29 -171 -7 -172 -6 -296 4 -640 3 -113
5 -236 4 -275 -1 -38 -3 -79 -3 -90 0 -11 3 -169 7 -350 4 -213 3 -361 -3
-415 -11 -87 -17 -170 -26 -340 -2 -52 -7 -131 -10 -175 -3 -44 -7 -145 -10
-224 -3 -79 -7 -146 -9 -150 -3 -4 -7 -173 -11 -376 -4 -204 -9 -373 -11 -376
-2 -3 -3 -217 -4 -475 0 -453 3 -728 15 -1469 3 -192 7 -454 9 -581 2 -126 6
-239 10 -250 8 -25 14 -195 21 -594 3 -173 12 -418 19 -545 13 -214 20 -379
19 -450 -4 -281 -18 -700 -24 -731 -7 -39 3 -93 19 -100 23 -10 94 -14 222
-14 123 0 357 -2 450 -3 69 -2 219 8 285 17 22 4 103 16 180 27 98 15 200 22
337 24 109 2 237 7 285 12 48 4 201 6 338 4 463 -6 500 -6 585 3 47 5 177 11
290 13 113 2 252 5 310 7 62 3 137 -1 185 -9 133 -22 208 -27 485 -32 146 -2
288 -7 315 -11 85 -10 2303 0 2322 11 15 10 280 21 483 21 190 0 239 -2 370
-14 170 -17 440 -21 720 -10 262 11 465 13 830 11 91 -1 211 4 265 10 55 7
110 11 123 11 12 -1 22 3 22 8 0 6 15 10 33 10 17 -1 116 -1 219 -1 105 1 199
-4 214 -9 17 -7 94 -8 208 -5 100 4 219 8 266 9 47 2 164 6 260 9 99 4 248 2
345 -4 189 -12 550 -20 840 -18 220 2 534 0 720 -4 72 -1 166 2 210 7 164 19
811 9 851 -12 31 -17 400 -44 584 -43 161 1 491 10 575 16 96 7 508 14 925 16
407 1 507 -1 560 -13 116 -26 678 -46 805 -28 192 26 248 31 377 31 123 0 280
-19 310 -37 5 -3 75 -8 156 -9 81 -2 162 -8 181 -14 19 -6 41 -7 50 -2 9 5 70
7 136 6 262 -6 305 -6 440 0 77 4 154 11 170 16 85 25 174 29 308 16 50 -5 61
-3 84 17 22 19 25 26 16 51 -18 54 -45 64 -188 71 -95 4 -148 1 -195 -9 -36
-8 -101 -13 -145 -12 -48 1 -86 -2 -94 -9 -10 -8 -121 -10 -375 -9 -199 1
-374 4 -391 6 -16 2 -70 10 -120 16 -49 7 -109 16 -133 22 -23 5 -63 9 -89 9
-26 0 -61 5 -79 12 -26 9 -52 8 -131 -5 -147 -25 -159 -26 -288 -33 -173 -9
-410 -10 -485 -2 -165 18 -300 29 -355 29 -223 2 -481 8 -500 13 -48 12 -540
7 -590 -6 -30 -8 -76 -11 -115 -8 -36 3 -155 2 -265 -2 -280 -10 -726 -13
-815 -6 -41 4 -142 9 -225 13 -82 3 -172 12 -200 19 -27 8 -106 17 -175 20
-68 3 -129 11 -135 17 -11 12 -17 6 140 126 55 41 123 96 150 122 70 64 88 78
184 145 66 47 203 157 231 186 9 9 114 85 145 105 17 10 57 44 90 74 33 31 80
67 105 80 25 13 61 36 80 50 19 15 85 53 145 86 141 74 149 79 155 85 9 10
104 64 170 97 36 18 83 46 105 63 22 16 90 63 150 104 61 41 124 87 140 102
53 47 89 57 184 49 136 -10 932 -3 1146 10 39 3 79 5 90 4 21 -1 566 3 915 6
113 1 216 5 230 9 62 18 265 26 625 25 270 -1 399 2 418 9 21 9 67 9 180 1
215 -16 342 -16 361 0 25 21 20 78 -9 105 -23 22 -38 25 -153 30 -369 18 -424
18 -499 1 -40 -10 -79 -15 -87 -12 -8 3 -29 2 -48 -3 -18 -5 -215 -11 -438
-14 -223 -4 -454 -11 -515 -17 -98 -10 -514 -19 -715 -16 -273 4 -609 -3 -646
-13 -30 -9 -56 -9 -88 -2 -30 6 -60 6 -85 0 -25 -6 -51 -6 -76 1 -21 6 -42 8
-47 5 -8 -5 -145 -16 -183 -14 -11 0 -81 2 -155 3 -74 2 -189 7 -255 11 l-120
8 -31 -29 c-65 -59 -138 -119 -170 -138 -18 -11 -63 -41 -101 -67 -96 -65
-195 -124 -224 -133 -25 -8 -72 -40 -116 -81 -14 -13 -29 -24 -32 -25 -28 -3
-45 -11 -75 -34 -19 -14 -51 -31 -72 -37 -37 -10 -93 -46 -162 -104 -21 -17
-53 -40 -72 -51 -19 -12 -48 -35 -64 -52 -17 -17 -38 -31 -48 -31 -11 0 -43
-18 -71 -40 -29 -23 -96 -73 -149 -111 -54 -39 -98 -74 -98 -78 0 -5 -17 -20
-37 -33 -39 -26 -82 -61 -136 -110 -16 -15 -38 -30 -48 -33 -11 -4 -19 -12
-19 -19 0 -16 -46 -58 -84 -76 -17 -8 -53 -39 -82 -68 -29 -28 -57 -52 -64
-52 -6 0 -34 -25 -61 -55 -46 -49 -138 -125 -153 -125 -3 0 -37 27 -75 60 -39
33 -97 76 -130 95 -33 20 -63 40 -66 45 -3 6 -14 10 -23 10 -9 0 -34 17 -57
39 -22 21 -78 64 -125 94 -47 31 -98 69 -115 85 -16 16 -48 42 -69 58 -22 16
-62 52 -90 80 -28 27 -83 69 -122 92 -39 24 -87 58 -105 76 -19 19 -59 50 -91
69 -31 20 -104 75 -163 122 -59 47 -110 85 -115 85 -4 0 -26 15 -48 33 -132
107 -261 195 -352 239 -81 39 -240 146 -240 162 0 6 7 19 15 29 7 11 11 25 8
33 -7 19 -52 18 -75 -3 -17 -15 -23 -14 -96 20 -43 21 -85 37 -93 37 -8 0 -19
4 -24 9 -6 5 -37 16 -70 26 -33 9 -83 32 -112 51 -28 19 -55 34 -60 34 -5 0
-27 13 -49 30 -21 16 -46 30 -54 30 -18 0 -259 154 -318 204 -24 20 -49 36
-56 36 -7 0 -37 17 -67 38 -30 21 -79 50 -109 66 -30 15 -62 34 -71 42 -8 8
-20 14 -26 14 -5 0 -27 18 -49 40 -35 37 -168 135 -247 185 -18 10 -34 23 -35
27 -2 5 -45 36 -95 70 -51 34 -112 81 -136 105 -24 24 -65 58 -90 76 -25 17
-67 48 -92 69 -58 48 -89 49 -165 3 -33 -19 -75 -42 -94 -51 -19 -9 -46 -24
-60 -33 -14 -9 -52 -27 -85 -40 -33 -13 -70 -30 -81 -37 -12 -7 -59 -27 -105
-44 -46 -18 -128 -54 -182 -81 -54 -27 -101 -49 -106 -49 -14 0 -241 -111
-481 -236 -124 -64 -279 -143 -345 -176 -66 -33 -129 -68 -140 -77 -32 -27
-164 -106 -230 -137 -33 -15 -80 -40 -106 -54 -25 -15 -63 -33 -85 -40 -21 -7
-72 -28 -112 -46 -40 -19 -85 -34 -100 -33 -37 0 -96 27 -166 74 -32 22 -95
60 -140 83 -45 24 -90 52 -101 61 -26 23 -169 111 -180 111 -5 0 -29 13 -55
30 -26 16 -71 39 -101 49 -30 11 -73 29 -96 40 -23 12 -48 21 -56 21 -8 0 -22
9 -32 20 -10 11 -25 20 -33 20 -26 0 -285 127 -337 166 -16 12 -46 30 -65 39
-19 10 -57 35 -84 56 -27 22 -57 39 -67 39 -10 0 -33 13 -51 29 -18 15 -42 31
-54 35 -12 4 -41 27 -65 51 -24 25 -50 45 -58 45 -7 0 -30 16 -50 35 -100 96
-126 115 -158 115 -22 0 -33 5 -33 14 0 14 -21 26 -44 26 -6 0 -55 -28 -107
-63 -53 -34 -103 -66 -111 -72 -9 -5 -38 -25 -64 -44 -83 -58 -193 -131 -199
-131 -3 0 -51 -27 -106 -60 -55 -33 -103 -60 -107 -60 -5 0 -28 -12 -53 -28
-24 -15 -64 -36 -89 -47 -40 -17 -305 -154 -348 -180 -9 -5 -71 -39 -137 -74
-66 -35 -155 -88 -198 -117 -43 -30 -81 -54 -84 -54 -3 0 -29 -14 -57 -32 -84
-52 -791 -406 -843 -422 -64 -19 -120 -43 -152 -66 -20 -14 -51 -19 -142 -23
-135 -6 -184 -22 -191 -62 -7 -36 10 -41 87 -27 34 7 69 12 76 12 16 0 -30
-42 -81 -73 -19 -11 -82 -62 -140 -112 -96 -83 -239 -195 -281 -220 -20 -12
-86 -65 -143 -116 -131 -116 -308 -253 -405 -314 -8 -5 -39 -31 -69 -56 -29
-25 -65 -52 -79 -60 -15 -8 -36 -22 -47 -32 -63 -55 -144 -121 -166 -135 -14
-9 -57 -49 -96 -89 -39 -40 -75 -73 -80 -73 -5 0 -8 192 -8 477 1 263 -3 543
-8 623 -16 231 -17 215 12 212 14 -2 81 -7 150 -13 113 -8 126 -7 138 8 33 45
3 73 -80 73 -29 0 -79 4 -111 10 -50 8 -63 6 -92 -10 -19 -11 -35 -19 -36 -17
-1 1 -2 104 -4 228 -4 265 -11 474 -25 649 -5 69 -12 287 -15 485 -4 198 -9
482 -12 630 -8 423 -9 1581 -1 1724 3 70 9 258 12 417 3 159 7 330 10 379 3
50 8 135 11 190 3 55 7 123 10 150 2 28 7 93 10 145 3 52 10 142 16 200 15
149 14 356 -6 1220 -7 297 -5 564 4 680 7 85 6 107 -5 113 -8 4 -14 15 -14 22
0 16 -10 17 -49 6z m8999 -5942 c41 -29 92 -67 113 -85 20 -19 43 -34 49 -34
7 0 33 -20 58 -44 25 -24 83 -69 130 -101 87 -60 151 -106 160 -115 20 -23
218 -164 270 -194 85 -48 95 -54 157 -93 29 -18 58 -33 64 -33 6 0 20 -11 31
-25 11 -14 37 -34 58 -45 21 -11 59 -33 83 -50 25 -16 50 -30 55 -30 6 0 25
-13 43 -30 18 -16 56 -41 84 -54 113 -55 183 -86 195 -86 6 0 24 -9 39 -20 15
-10 54 -29 87 -41 62 -23 128 -61 139 -79 4 -7 -4 -24 -18 -38 -29 -32 -47
-65 -47 -86 0 -23 46 -20 62 3 7 10 28 31 46 46 l33 27 57 -17 c38 -12 72 -31
102 -60 39 -37 123 -84 204 -115 28 -10 147 -98 159 -117 4 -7 16 -13 26 -13
9 0 32 -16 51 -35 19 -19 39 -35 45 -35 6 0 43 -24 81 -53 38 -29 94 -69 124
-89 30 -20 68 -50 84 -67 17 -17 35 -31 41 -31 6 0 40 -25 75 -55 36 -30 70
-55 76 -55 7 0 34 -20 60 -44 27 -24 58 -46 69 -50 22 -6 85 -62 85 -74 0 -4
14 -16 30 -25 32 -19 110 -81 147 -117 12 -12 46 -36 77 -55 59 -35 85 -54
166 -120 86 -70 106 -84 132 -90 27 -7 95 -71 86 -80 -14 -15 -145 -25 -188
-15 -25 5 -63 7 -85 3 -22 -3 -164 -7 -315 -8 -151 -2 -331 -4 -400 -5 -248
-4 -606 2 -675 12 -130 19 -896 25 -980 8 -69 -14 -284 -17 -375 -5 -113 14
-335 8 -523 -14 -161 -19 -197 -19 -197 -1 0 5 61 70 135 145 122 123 159 175
124 175 -16 0 -98 -50 -107 -66 -4 -8 -22 -24 -39 -37 -102 -74 -142 -109
-171 -153 -19 -27 -46 -58 -60 -69 -30 -22 -43 -23 -382 -12 -102 3 -237 1
-300 -4 -158 -13 -641 -19 -720 -8 -80 10 -490 32 -585 31 -38 -1 -97 -4 -130
-7 -33 -3 -118 -6 -189 -6 -71 0 -140 -5 -154 -10 -25 -10 -148 -11 -672 -6
-129 1 -332 0 -450 -3 l-215 -5 -42 65 c-50 76 -78 106 -105 113 -21 6 -58
-24 -58 -47 0 -8 28 -39 62 -70 34 -30 59 -59 54 -63 -4 -4 -31 -7 -59 -5 -62
4 -76 4 -292 4 -225 -1 -216 0 -231 -13 -10 -8 -18 -8 -27 -1 -14 12 -178 22
-462 28 -327 7 -603 22 -627 35 -23 13 -139 11 -212 -2 -44 -8 -75 -9 -110 -1
-36 8 -58 7 -85 -2 -26 -10 -59 -11 -121 -4 -120 12 -122 12 -255 -7 -126 -18
-203 -24 -220 -15 -14 7 -164 12 -255 8 -65 -2 -147 -2 -280 2 -19 0 -75 -2
-125 -4 -49 -3 -196 -7 -325 -9 -129 -2 -275 -8 -325 -15 -49 -6 -124 -13
-165 -17 -41 -3 -95 -9 -120 -12 -48 -7 -238 -9 -330 -4 -30 1 -104 -1 -164
-5 -101 -7 -108 -6 -105 11 2 10 61 64 130 119 69 56 166 133 214 171 48 39
110 87 139 108 126 92 190 142 435 339 53 42 141 112 196 154 55 43 107 84
116 93 85 83 260 214 349 260 36 19 77 42 91 52 14 10 57 32 95 50 184 84 239
111 254 123 21 19 209 116 224 116 13 0 70 28 126 62 19 11 82 46 140 76 125
65 147 77 270 157 52 34 127 79 165 100 39 20 76 42 84 48 15 13 214 116 466
243 94 46 197 102 230 123 33 22 85 53 116 70 48 26 234 148 264 173 6 5 41
29 80 53 52 33 76 43 95 38 34 -8 80 -36 110 -68 14 -15 61 -52 104 -83 43
-32 102 -74 130 -94 28 -21 67 -47 86 -58 19 -11 47 -28 61 -38 14 -9 46 -30
70 -46 24 -16 49 -35 56 -42 19 -19 129 -84 142 -84 6 0 29 -11 51 -25 22 -14
45 -25 51 -25 12 0 124 -51 242 -111 43 -21 89 -39 102 -39 12 0 28 -7 35 -15
7 -9 34 -26 59 -38 25 -12 65 -35 88 -50 24 -15 47 -27 52 -27 5 0 14 -6 20
-14 7 -8 37 -26 67 -40 31 -15 72 -40 93 -56 20 -16 56 -36 81 -46 25 -9 53
-24 63 -32 21 -18 42 -31 123 -72 34 -17 64 -34 68 -37 3 -4 23 -12 43 -19 33
-12 41 -11 68 6 16 10 91 49 165 86 74 37 142 72 150 79 8 7 53 33 100 57 155
82 305 169 391 225 19 13 41 23 49 23 8 0 79 35 159 78 80 43 162 85 181 92
19 8 53 26 75 40 22 15 72 41 110 59 39 18 102 47 140 66 39 19 102 48 140 66
39 17 97 44 130 59 106 49 149 68 175 75 14 4 93 40 175 80 162 79 172 83 195
84 9 1 49 -22 90 -50z"/>
<path d="M3685 2944 c-11 -3 -31 -14 -45 -24 -21 -16 -23 -22 -13 -37 6 -10
17 -16 25 -14 7 2 92 6 188 8 96 2 179 8 184 13 6 6 18 10 28 10 10 0 18 5 18
10 0 10 -5 12 -51 15 -14 1 -37 5 -51 8 -33 9 -256 17 -283 11z"/>
<path d="M4264 2815 c-10 -41 2 -54 88 -95 46 -22 117 -58 158 -80 41 -21 81
-39 89 -39 8 -1 23 -8 33 -18 15 -13 23 -14 43 -5 35 16 32 25 -17 52 -24 13
-82 50 -129 82 -48 32 -91 58 -97 58 -5 0 -12 7 -16 15 -3 8 -12 15 -21 15 -8
0 -32 9 -52 20 -50 27 -71 25 -79 -5z"/>
<path d="M11750 2689 c-30 -17 -75 -46 -99 -65 -24 -19 -48 -34 -52 -34 -12 0
-39 -55 -39 -79 0 -36 20 -33 64 7 24 22 63 53 87 67 59 37 119 96 119 118 0
24 -16 21 -80 -14z"/>
<path d="M4918 2589 c-40 -23 -10 -78 67 -125 17 -10 39 -25 50 -35 11 -9 47
-25 80 -34 33 -9 75 -26 93 -36 34 -19 52 -18 52 4 0 16 -26 38 -84 72 -25 15
-46 31 -46 36 0 5 -11 14 -24 19 -14 5 -42 24 -63 43 -75 66 -94 75 -125 56z"/>
<path d="M11125 2237 c-28 -28 -70 -67 -93 -85 -44 -35 -57 -77 -27 -88 21 -8
56 17 129 90 74 75 97 113 76 126 -25 16 -33 12 -85 -43z"/>
<path d="M5547 2243 c-6 -36 5 -63 26 -63 9 0 52 -26 177 -106 41 -26 115 -41
125 -24 7 11 -32 49 -51 50 -17 0 -104 80 -104 95 0 8 -10 20 -22 26 -13 7
-33 23 -45 36 -16 16 -33 23 -61 23 -38 0 -40 -2 -45 -37z"/>
<path d="M6107 1943 c-19 -18 0 -52 69 -126 112 -122 151 -134 139 -45 -3 28
-18 52 -57 93 -29 31 -56 62 -61 70 -8 15 -77 21 -90 8z"/>
<path d="M1069 9755 c-14 -13 -201 -42 -244 -37 -34 3 -57 0 -79 -12 -31 -17
-32 -17 -34 -103 -1 -50 3 -92 9 -99 7 -8 8 -26 3 -46 -4 -18 -7 -37 -5 -43
11 -39 14 -55 18 -97 3 -30 12 -53 26 -67 l22 -20 45 21 c31 15 66 22 113 22
78 1 90 -8 101 -75 9 -54 -13 -89 -69 -113 -50 -20 -150 -25 -168 -7 -19 19
-41 12 -54 -15 -38 -83 131 -138 245 -80 64 33 103 76 117 132 14 55 3 134
-24 174 -10 14 -20 32 -24 41 -3 9 -27 28 -52 43 -54 30 -116 34 -169 12 -32
-13 -34 -13 -40 7 -3 12 -6 65 -6 118 l0 95 88 12 c116 15 195 34 215 51 20
16 22 62 5 79 -12 12 -31 16 -39 7z"/>
<path d="M731 7973 c-19 -23 -20 -28 -7 -42 13 -14 13 -23 0 -71 -17 -66 -18
-160 -2 -194 11 -26 57 -46 108 -46 62 -1 70 -8 70 -69 0 -92 47 -133 83 -72
12 20 17 51 17 100 l0 70 38 7 c52 9 64 27 44 67 -20 42 -17 40 -65 46 l-42 6
-6 55 c-9 83 -17 100 -45 100 -32 0 -44 -32 -44 -115 0 -54 -3 -66 -20 -75
-12 -6 -30 -8 -40 -5 -18 6 -20 16 -20 124 0 116 -6 141 -36 141 -7 0 -22 -12
-33 -27z"/>
<path d="M646 6461 c-49 -12 -72 -23 -77 -37 -13 -33 -9 -48 21 -72 27 -21 30
-22 72 -7 24 8 58 15 76 15 18 0 42 5 52 10 26 14 37 -6 16 -29 -9 -10 -16
-21 -16 -26 0 -4 -20 -30 -45 -56 -25 -26 -45 -54 -45 -62 0 -24 37 -49 82
-53 72 -8 87 -13 108 -36 l20 -22 -23 -24 c-35 -38 -85 -54 -159 -53 -58 1
-69 -2 -82 -21 -9 -12 -16 -27 -16 -33 0 -20 85 -55 133 -55 92 0 233 75 248
132 12 44 -31 116 -96 162 -30 22 -55 44 -55 49 0 5 9 22 20 37 35 49 59 112
50 129 -5 9 -11 24 -14 34 -5 14 -18 17 -85 17 -44 0 -83 5 -86 10 -8 12 -13
12 -99 -9z"/>
<path d="M19808 6336 c-40 -11 -86 -46 -88 -67 0 -3 11 -11 24 -18 19 -11 29
-10 56 4 43 22 215 26 283 6 39 -11 50 -12 57 -1 14 22 -2 52 -35 66 -47 19
-239 26 -297 10z"/>
<path d="M20460 6331 c-69 -10 -113 -32 -128 -66 -7 -14 -12 -28 -12 -30 0
-10 60 -4 101 10 27 10 83 16 152 17 119 1 138 11 98 51 -17 17 -35 22 -88 23
-38 1 -93 -1 -123 -5z"/>
<path d="M19390 6259 c-19 -10 -48 -31 -65 -47 -16 -15 -42 -34 -57 -41 -34
-17 -114 -139 -100 -153 18 -18 50 2 139 88 48 47 100 92 116 100 28 15 36 45
15 62 -9 7 -24 4 -48 -9z"/>
<path d="M8549 6107 c-32 -24 -41 -55 -24 -81 27 -41 46 -42 87 -7 24 21 23
43 -4 68 -34 30 -42 32 -59 20z"/>
<path d="M8231 6074 c-29 -36 -27 -46 14 -68 43 -23 65 -10 65 38 0 59 -44 75
-79 30z"/>
<path d="M8941 6069 c-32 -35 -36 -70 -9 -91 31 -24 64 -22 82 4 29 41 19 66
-36 98 -13 8 -22 5 -37 -11z"/>
<path d="M9742 6065 c-12 -25 -16 -55 -8 -55 2 0 20 -7 39 -15 34 -14 37 -14
64 9 l28 24 -29 31 c-38 39 -78 42 -94 6z"/>
<path d="M10113 6045 c-11 -33 -9 -36 20 -59 35 -27 55 -24 63 10 10 41 -9 79
-42 82 -27 3 -32 -1 -41 -33z"/>
<path d="M9317 6053 c-8 -10 -18 -29 -22 -43 -5 -21 -1 -28 24 -43 39 -23 49
-22 77 9 32 34 30 60 -6 79 -38 19 -53 19 -73 -2z"/>
<path d="M10404 6009 c-15 -31 -15 -32 9 -56 32 -32 63 -24 72 18 5 22 2 36
-11 50 -25 28 -51 24 -70 -12z"/>
<path d="M10841 5971 c-28 -38 -27 -59 3 -67 14 -3 27 -12 30 -20 5 -14 50
-11 68 5 10 9 -33 81 -58 98 -20 13 -24 12 -43 -16z"/>
<path d="M17102 5907 c-30 -32 -28 -45 12 -63 32 -16 35 -15 60 2 31 23 33 48
4 68 -31 22 -51 20 -76 -7z"/>
<path d="M15480 5903 c-26 -9 -50 -35 -50 -53 0 -17 39 -60 55 -60 5 0 25 8
46 18 53 24 56 47 11 77 -39 26 -39 26 -62 18z"/>
<path d="M15900 5900 c0 -5 -6 -10 -14 -10 -7 0 -19 -7 -26 -15 -11 -13 -9
-20 11 -41 20 -21 29 -24 59 -19 67 13 79 44 28 75 -36 22 -58 26 -58 10z"/>
<path d="M16295 5885 c-31 -30 -31 -46 -1 -74 27 -26 46 -23 90 13 24 20 26
27 17 44 -8 16 -57 42 -78 42 -2 0 -15 -11 -28 -25z"/>
<path d="M7932 5850 c-12 -16 -22 -33 -22 -37 1 -4 17 -16 38 -26 36 -17 37
-17 55 4 22 27 22 52 -1 72 -27 24 -45 21 -70 -13z"/>
<path d="M18805 5859 c-22 -12 -47 -27 -55 -34 -8 -7 -33 -22 -55 -34 -49 -25
-72 -45 -110 -96 -91 -121 -61 -145 51 -42 38 35 95 81 127 102 33 21 61 44
64 51 2 7 18 17 34 23 19 7 29 17 29 30 0 28 -33 28 -85 0z"/>
<path d="M16671 5844 c-25 -32 -26 -43 -6 -50 8 -4 15 -12 15 -20 0 -27 33
-33 65 -11 16 11 30 21 31 21 1 1 4 13 8 28 6 25 2 29 -30 43 -50 20 -59 19
-83 -11z"/>
<path d="M19230 5846 c0 -15 24 -28 34 -19 13 14 5 33 -14 33 -11 0 -20 -6
-20 -14z"/>
<path d="M15197 5801 c-16 -27 -16 -29 6 -50 41 -37 87 -22 87 29 0 56 -64 71
-93 21z"/>
<path d="M11221 5784 c-26 -34 -26 -43 4 -76 40 -46 75 -31 75 33 0 28 -6 41
-25 53 -31 20 -30 21 -54 -10z"/>
<path d="M17296 5754 c-29 -28 -37 -53 -27 -73 12 -21 97 -54 113 -45 15 10 3
79 -18 108 -22 29 -46 33 -68 10z"/>
<path d="M7638 5670 c-24 -36 -25 -41 -12 -55 65 -64 132 -20 87 57 -27 46
-45 45 -75 -2z"/>
<path d="M11449 5649 c-29 -29 -22 -70 15 -88 39 -18 60 -4 64 42 2 27 -2 39
-20 51 -29 21 -34 20 -59 -5z"/>
<path d="M15032 5610 l-23 -31 30 -30 c25 -25 34 -28 50 -19 33 17 44 46 29
78 -19 40 -58 41 -86 2z"/>
<path d="M17626 5579 c-16 -28 -16 -32 -2 -54 12 -18 25 -25 50 -25 41 0 56
16 49 52 -6 32 -18 43 -54 51 -20 5 -28 1 -43 -24z"/>
<path d="M11741 5475 c-17 -15 -31 -33 -31 -40 0 -18 65 -49 85 -41 22 8 19
69 -4 90 -17 16 -20 15 -50 -9z"/>
<path d="M17918 5427 l-28 -23 26 -38 26 -37 -62 -65 c-34 -35 -60 -70 -58
-77 9 -26 44 -17 88 24 81 74 171 139 248 180 12 7 21 17 19 23 -6 18 -86 19
-122 2 -44 -21 -49 -20 -65 9 -16 31 -37 31 -72 2z"/>
<path d="M7284 5365 c-19 -47 -18 -51 18 -69 44 -23 55 -20 67 15 15 42 14 46
-9 69 -31 31 -59 26 -76 -15z"/>
<path d="M12028 5333 c-9 -2 -21 -18 -28 -36 -13 -40 5 -57 63 -57 38 0 39 1
32 28 -7 32 -32 73 -43 71 -4 -1 -15 -3 -24 -6z"/>
<path d="M14776 5289 c-32 -38 -32 -43 0 -68 43 -34 67 -25 78 26 6 25 3 36
-13 52 -28 28 -35 27 -65 -10z"/>
<path d="M18198 5223 c-9 -2 -24 -15 -32 -29 -16 -23 -15 -25 16 -53 35 -31
68 -33 97 -6 11 11 10 18 -8 44 -25 35 -49 49 -73 44z"/>
<path d="M6993 5185 c-13 -9 -28 -25 -34 -37 -9 -17 -7 -24 15 -45 19 -18 33
-22 49 -17 43 13 49 49 15 89 -22 24 -24 25 -45 10z"/>
<path d="M12357 5123 c-17 -44 -14 -53 17 -53 12 0 27 -5 34 -12 8 -8 15 -8
27 2 33 27 4 100 -39 100 -18 0 -28 -9 -39 -37z"/>
<path d="M18512 5065 c-17 -38 -15 -48 16 -76 57 -52 60 -53 73 -27 8 18 8 36
-1 66 -16 62 -67 83 -88 37z"/>
<path d="M17450 5049 c-14 -6 -34 -19 -45 -29 -11 -10 -34 -26 -51 -37 -17
-10 -77 -49 -132 -88 -81 -56 -105 -77 -117 -108 -28 -69 -7 -69 90 0 33 24
97 69 143 99 96 65 176 138 170 156 -6 17 -27 19 -58 7z"/>
<path d="M6680 5002 c-10 -10 -22 -28 -25 -42 -5 -22 -1 -28 30 -43 47 -23 47
-23 70 19 22 41 14 64 -28 75 -19 5 -33 2 -47 -9z"/>
<path d="M18719 4968 l-23 -31 34 -29 c34 -28 73 -36 98 -19 18 11 -6 60 -44
90 -35 27 -39 27 -65 -11z"/>
<path d="M12649 4939 l-30 -32 33 -28 c39 -33 64 -37 73 -10 6 21 -16 84 -34
96 -7 3 -25 -8 -42 -26z"/>
<path d="M14424 4952 c-6 -4 -16 -17 -23 -30 -10 -19 -8 -26 13 -47 33 -33 58
-32 79 4 25 42 7 81 -38 81 -11 0 -25 -4 -31 -8z"/>
<path d="M6443 4882 c-7 -4 -19 -24 -27 -44 -14 -32 -14 -37 2 -51 10 -9 32
-15 52 -14 28 2 36 7 44 30 16 44 -36 102 -71 79z"/>
<path d="M720 4853 c-51 -8 -79 -25 -89 -56 -6 -16 -10 -31 -9 -32 26 -22 71
-32 120 -28 78 7 125 -3 140 -30 6 -12 17 -47 24 -77 14 -59 9 -70 -32 -70
-12 0 -36 -11 -55 -25 -19 -14 -41 -28 -49 -31 -9 -3 -28 -25 -43 -49 -35 -54
-28 -87 25 -134 36 -31 37 -31 84 -19 30 8 65 29 95 56 l48 43 32 -41 c35 -44
64 -51 74 -20 11 34 -5 80 -43 123 -34 37 -37 46 -43 116 -6 87 -33 152 -82
202 -50 49 -137 81 -197 72z"/>
<path d="M19038 4827 c-8 -7 -22 -25 -32 -40 -17 -27 -16 -28 6 -47 31 -26 81
-24 116 5 6 5 -50 83 -63 89 -7 2 -19 -1 -27 -7z"/>
<path d="M12882 4717 c-6 -6 -13 -24 -17 -38 -5 -22 -2 -28 24 -38 47 -20 66
-11 63 29 -1 18 -7 40 -14 47 -13 16 -42 17 -56 0z"/>
<path d="M14153 4703 c-24 -5 -63 -47 -63 -68 0 -13 50 -35 80 -35 25 0 43 50
31 83 -6 15 -14 26 -18 26 -5 -1 -18 -4 -30 -6z"/>
<path d="M19287 4692 c-22 -24 -21 -55 1 -75 22 -20 97 -33 106 -18 10 15 -19
65 -50 90 -33 26 -37 26 -57 3z"/>
<path d="M1476 4658 c-32 -45 -10 -87 46 -88 29 0 48 23 48 61 0 46 -67 66
-94 27z"/>
<path d="M15485 4673 c-64 -12 -65 -13 -65 -44 0 -30 2 -31 33 -26 17 4 101
14 185 23 83 9 152 20 152 24 0 4 -17 11 -37 15 -42 8 -236 14 -268 8z"/>
<path d="M1773 4648 c-33 -40 2 -113 50 -106 30 4 51 51 39 86 -7 22 -16 28
-44 30 -20 2 -39 -3 -45 -10z"/>
<path d="M6027 4648 c-9 -7 -19 -27 -23 -43 -5 -28 -2 -33 31 -50 36 -20 37
-20 51 -1 22 30 29 87 13 97 -20 13 -53 11 -72 -3z"/>
<path d="M14637 4634 c-22 -14 -37 -33 -37 -44 0 -24 4 -24 77 -4 68 19 123
20 214 3 65 -12 106 -8 95 10 -4 5 -21 12 -39 16 -17 4 -50 15 -72 25 -28 12
-65 18 -121 18 -70 1 -86 -2 -117 -24z"/>
<path d="M16143 4647 c-29 -5 -43 -15 -51 -33 -16 -34 0 -39 101 -29 45 4 120
9 166 11 87 4 97 6 87 23 -15 24 -223 44 -303 28z"/>
<path d="M3902 4631 c-16 -9 -42 -58 -42 -76 0 -7 11 -20 25 -29 55 -36 111
-6 99 53 -9 46 -51 72 -82 52z"/>
<path d="M2118 4603 c-29 -34 -29 -53 0 -78 36 -32 54 -31 80 5 27 36 27 41 2
68 -25 26 -61 28 -82 5z"/>
<path d="M2414 4585 l-19 -35 30 -25 c36 -29 47 -30 83 -8 71 46 58 82 -34 97
-39 7 -41 6 -60 -29z"/>
<path d="M2787 4578 c-18 -44 -12 -58 26 -58 9 0 17 -7 17 -15 0 -8 6 -15 13
-15 23 0 47 35 47 68 0 25 -6 35 -30 47 -44 23 -55 19 -73 -27z"/>
<path d="M16683 4610 c-16 -6 -23 -18 -23 -35 0 -25 2 -26 53 -24 28 2 76 -3
105 -11 41 -11 55 -11 64 -2 31 31 -50 82 -127 81 -27 0 -60 -4 -72 -9z"/>
<path d="M3156 4588 c-30 -49 -29 -66 5 -87 66 -40 111 28 54 84 -30 31 -41
31 -59 3z"/>
<path d="M3553 4585 c-11 -8 -23 -26 -25 -40 -5 -22 0 -29 34 -46 37 -19 41
-19 64 -4 32 21 31 58 -2 84 -32 25 -43 26 -71 6z"/>
<path d="M4327 4559 c-9 -23 -14 -45 -12 -50 3 -4 21 -13 40 -19 27 -9 40 -8
62 2 41 19 41 50 -1 81 -50 38 -70 35 -89 -14z"/>
<path d="M4811 4571 c-52 -73 4 -118 102 -81 23 9 37 20 35 29 -3 14 -92 81
-108 81 -5 0 -18 -13 -29 -29z"/>
<path d="M5252 4583 c-5 -10 -12 -30 -16 -45 -5 -23 -2 -30 23 -43 36 -18 60
-19 83 -2 23 18 12 63 -22 87 -35 25 -57 25 -68 3z"/>
<path d="M13050 4581 c-5 -11 -10 -33 -10 -49 0 -26 4 -31 34 -36 52 -10 68 1
60 38 -12 60 -62 87 -84 47z"/>
<path d="M14258 4582 c-27 -3 -76 -47 -175 -156 -29 -32 -50 -62 -47 -67 12
-19 44 -7 86 31 23 23 63 53 88 67 53 30 110 82 110 100 0 17 -30 29 -62 25z"/>
<path d="M5712 4571 c-13 -8 -42 -57 -42 -71 0 -16 39 -50 58 -50 48 0 72 79
34 113 -21 19 -31 21 -50 8z"/>
<path d="M19601 4524 c-29 -37 -27 -47 18 -72 77 -44 108 -18 66 54 -30 51
-54 56 -84 18z"/>
<path d="M13748 4493 c-35 -18 -36 -44 -3 -78 33 -32 53 -32 66 2 22 58 -14
101 -63 76z"/>
<path d="M13356 4418 c-9 -12 -16 -37 -16 -56 l0 -33 48 3 c43 3 47 5 50 30 4
33 -24 78 -49 78 -10 0 -25 -10 -33 -22z"/>
<path d="M19858 4388 c-9 -7 -23 -25 -32 -39 -19 -30 -13 -37 47 -58 34 -11
41 -11 57 4 15 14 17 22 8 45 -5 16 -20 36 -33 44 -29 19 -27 19 -47 4z"/>
<path d="M20146 4289 c-37 -29 -36 -73 4 -94 38 -19 40 -19 74 8 28 23 28 24
12 55 -14 26 -43 52 -59 52 -2 0 -16 -9 -31 -21z"/>
<path d="M13691 4213 c-14 -3 -39 -16 -56 -29 -18 -13 -38 -24 -45 -24 -22 0
-136 -98 -155 -134 -11 -20 -25 -36 -31 -36 -13 0 -40 -58 -31 -67 8 -7 92 47
137 89 40 37 64 55 133 99 26 17 47 34 47 38 0 4 11 13 25 19 15 7 25 20 25
32 0 20 -4 21 -49 13z"/>
<path d="M20326 4194 c-32 -31 -16 -66 36 -79 66 -17 95 29 46 70 -34 29 -60
32 -82 9z"/>
<path d="M20586 4058 c-22 -31 -20 -41 13 -61 39 -23 49 -22 63 8 9 19 8 29
-6 50 -20 31 -50 32 -70 3z"/>
<path d="M12921 3625 c-18 -13 -50 -27 -71 -30 -25 -4 -41 -14 -50 -30 -7 -13
-20 -25 -30 -28 -9 -2 -30 -30 -45 -62 -22 -45 -25 -59 -15 -65 21 -13 41 0
99 63 34 36 77 70 115 89 69 34 96 55 96 75 0 22 -62 14 -99 -12z"/>
<path d="M878 3219 c-44 -42 -75 -229 -60 -367 10 -98 21 -122 57 -122 35 0
43 37 50 225 4 94 8 186 11 206 3 26 -2 44 -14 59 l-18 22 -26 -23z"/>
<path d="M1942 2959 c-44 -9 -54 -20 -50 -55 3 -29 4 -29 63 -27 32 1 66 -2
75 -7 20 -11 104 5 158 30 23 11 42 22 42 25 0 15 -52 26 -142 31 -56 3 -104
6 -107 8 -4 2 -21 -1 -39 -5z"/>
<path d="M2562 2957 c-15 -4 -62 -8 -105 -7 -75 0 -78 -1 -88 -27 -17 -46 -7
-53 73 -52 40 0 132 6 203 13 72 8 133 12 137 10 4 -3 9 0 13 6 3 5 19 10 36
10 34 0 37 10 10 34 -16 14 -41 18 -135 19 -64 1 -129 -2 -144 -6z"/>
<path d="M796 1714 c-57 -18 -160 -114 -172 -160 -4 -15 -3 -67 3 -116 9 -78
14 -93 47 -135 20 -25 36 -50 36 -54 0 -4 21 -15 48 -25 26 -10 57 -24 69 -32
16 -10 42 -12 105 -7 121 10 173 37 225 119 22 35 25 47 21 105 -7 92 -39 160
-99 210 -50 43 -118 81 -178 100 -42 13 -44 13 -105 -5z m104 -119 c14 -1 30
-3 37 -3 6 -1 36 -22 66 -47 89 -72 98 -133 30 -201 -88 -88 -218 -76 -295 27
-51 68 -23 166 60 212 26 15 54 24 62 21 8 -4 26 -7 40 -9z"/>
<path d="M8466 1058 c-22 -21 -26 -34 -36 -158 -6 -74 -15 -153 -18 -175 l-7
-40 -91 -5 c-58 -3 -98 -11 -110 -20 -10 -8 -20 -15 -22 -16 -1 0 3 -14 8 -31
10 -28 16 -31 66 -37 30 -3 65 -4 78 0 13 3 33 1 44 -5 17 -9 19 -18 14 -84
-4 -65 -2 -78 19 -110 45 -69 79 -44 79 59 0 39 3 86 6 103 6 27 11 31 39 31
32 0 95 40 95 60 0 21 -34 40 -71 40 -26 0 -42 5 -45 15 -3 8 2 88 12 178 9
90 14 175 10 190 -8 34 -36 35 -70 5z"/>
<path d="M10888 969 c-27 -15 -41 -85 -34 -169 4 -43 2 -81 -3 -90 -8 -12 -49
-15 -235 -17 -248 -2 -272 -7 -261 -51 10 -40 20 -46 78 -49 28 -1 63 -3 77
-4 14 -1 91 0 171 1 80 2 151 0 158 -4 6 -4 11 -24 10 -44 -1 -20 1 -60 5 -87
6 -40 5 -54 -7 -64 -14 -11 -13 -16 5 -47 11 -19 24 -34 28 -34 5 0 25 16 46
35 119 112 245 212 277 221 15 3 27 10 27 14 0 4 13 27 29 51 35 51 28 79 -18
79 -17 0 -37 10 -52 26 -13 14 -50 44 -82 66 -46 31 -63 50 -82 94 -17 38 -29
54 -43 54 -11 0 -25 7 -32 15 -14 17 -37 19 -62 4z"/>
<path d="M8693 953 c-27 -5 -36 -28 -17 -43 8 -7 14 -19 14 -27 0 -17 29 -63
41 -63 14 0 27 66 20 101 -7 34 -18 40 -58 32z"/>
<path d="M9676 814 c-22 -8 -48 -22 -59 -32 -26 -23 -102 -123 -109 -143 -4
-10 -23 -18 -48 -22 -59 -8 -68 -20 -46 -61 10 -19 26 -36 35 -39 9 -2 24 -26
33 -53 35 -99 71 -116 248 -115 47 1 101 1 120 1 52 0 97 18 103 40 5 18 -4
25 -27 21 -4 -1 -27 7 -50 18 -25 12 -73 22 -126 25 -147 10 -167 16 -176 52
-9 37 1 51 44 57 49 8 125 42 143 63 8 10 13 44 14 96 0 67 -3 82 -19 94 -24
17 -30 17 -80 -2z m14 -101 c-1 -28 -15 -52 -36 -62 -32 -14 -34 -14 -34 3 0
7 12 25 26 40 26 26 44 33 44 19z"/>
<path d="M8992 765 c-39 -17 -82 -62 -82 -85 0 -9 -9 -25 -20 -35 -16 -15 -20
-31 -20 -83 0 -73 17 -142 35 -142 23 0 46 50 65 141 20 97 32 119 61 119 20
0 59 -53 59 -80 0 -28 33 -100 45 -100 7 0 28 29 46 64 18 36 36 63 40 60 20
-12 29 -104 18 -167 -8 -43 -6 -54 17 -92 56 -97 78 -57 71 132 -4 108 -8 139
-26 177 -28 57 -49 64 -107 34 l-46 -23 -21 30 c-50 69 -72 77 -135 50z"/>
<path d="M8670 663 c-22 -9 -30 -25 -24 -46 3 -10 0 -40 -7 -68 -10 -39 -10
-54 -1 -69 7 -11 12 -30 12 -44 0 -13 7 -29 15 -36 13 -11 18 -5 35 34 17 37
20 62 18 138 -3 96 -9 106 -48 91z"/>
</g>
</svg>
