<?xml version="1.0" standalone="no"?>
<!DOCTYPE svg PUBLIC "-//W3C//DTD SVG 20010904//EN"
 "http://www.w3.org/TR/2001/REC-SVG-20010904/DTD/svg10.dtd">
<svg version="1.0" xmlns="http://www.w3.org/2000/svg"
 width="823.451837pt" height="400.000000pt" viewBox="0 0 823.451837 400.000000"
 preserveAspectRatio="xMidYMid meet">
<metadata>
Created by potrace 1.15, written by Peter Selinger 2001-2017
</metadata>
<g transform="translate(-18.012959,419.856358) scale(0.034905,-0.034905)"
fill="#444444" stroke="none">
<path d="M15017 12024 c-3 -4 -118 -8 -254 -11 -244 -3 -605 -17 -733 -28 -36
-2 -150 -7 -255 -9 -153 -4 -191 -8 -200 -20 -10 -13 -12 -13 -21 0 -7 12 -21
13 -79 5 -38 -6 -171 -13 -294 -16 -123 -3 -229 -9 -234 -12 -6 -4 -87 -5
-181 -3 -228 4 -695 1 -826 -5 -155 -7 -260 -7 -364 0 -51 4 -135 6 -187 6
-52 -1 -103 -1 -114 0 -11 0 -132 2 -270 5 -137 2 -304 8 -370 13 -147 10
-609 5 -725 -9 -47 -6 -209 -13 -360 -16 -340 -6 -340 -6 -340 -13 0 -8 -454
-12 -1199 -11 -150 0 -276 -2 -280 -4 -3 -2 -56 0 -116 5 -61 5 -198 11 -305
14 -107 4 -219 8 -247 9 -29 2 -53 1 -53 -3 0 -6 -162 -10 -470 -13 -212 -2
-394 3 -405 11 -16 13 -47 22 -41 12 8 -12 -28 -23 -86 -27 -33 -3 -48 0 -48
9 0 7 -3 8 -8 2 -4 -6 -83 -10 -197 -11 -395 -2 -1282 -15 -1325 -20 -25 -2
-153 -7 -285 -10 -218 -5 -294 -7 -565 -19 -47 -2 -112 -9 -145 -15 -61 -11
-210 -12 -770 -5 -165 2 -363 -1 -440 -5 -77 -5 -210 -11 -295 -14 -133 -4
-246 -14 -460 -40 -25 -4 -142 -11 -260 -16 -181 -8 -236 -8 -345 6 -71 9
-160 18 -197 21 -62 5 -67 4 -83 -20 -10 -16 -14 -34 -9 -52 5 -20 2 -30 -12
-40 -18 -12 -19 -22 -12 -141 4 -71 4 -253 1 -404 -3 -151 -4 -311 -2 -355 4
-105 4 -117 -5 -345 -4 -107 -9 -463 -11 -790 -2 -327 -7 -635 -12 -685 -14
-155 -6 -333 17 -390 16 -40 28 -193 26 -340 -2 -135 -5 -156 -25 -198 l-23
-48 23 -26 c23 -24 27 -25 104 -18 44 4 107 8 140 9 33 2 130 7 215 11 142 7
353 7 505 1 110 -5 314 -24 324 -30 5 -4 74 -13 153 -22 148 -16 428 -22 1268
-29 267 -2 589 -7 715 -10 265 -6 809 -6 827 0 34 10 353 14 447 5 168 -16
278 -18 396 -9 61 4 216 11 345 14 129 3 280 9 334 14 55 6 103 8 107 5 11 -6
266 -6 774 1 860 11 1384 23 1399 32 11 7 109 12 271 13 44 0 118 5 165 11 47
6 117 13 155 15 39 2 104 7 145 10 41 3 98 4 125 3 120 -6 1407 -1 1575 7 275
12 551 7 580 -11 18 -11 417 -13 645 -4 132 6 317 10 410 9 478 -4 597 -3 675
3 47 4 306 10 575 12 270 3 517 7 550 9 175 13 359 21 603 27 77 1 105 6 109
16 4 10 9 11 19 2 10 -8 27 -8 61 -1 89 20 140 23 444 27 442 6 588 16 613 43
19 22 40 241 33 343 -3 41 -15 133 -27 204 -38 233 -43 387 -17 590 31 248 42
2111 15 2435 -8 85 -11 177 -7 203 3 26 2 50 -3 53 -4 3 -8 14 -8 25 0 17 -5
19 -52 13 -30 -3 -72 -1 -97 6 -24 6 -125 13 -225 16 -176 4 -288 8 -488 21
-53 3 -105 2 -115 -2 -19 -8 -256 -7 -284 1 -8 2 -18 1 -22 -2z m283 -95 c121
5 205 4 330 -5 69 -4 166 -7 215 -6 162 2 236 -3 296 -23 28 -10 59 -15 70
-12 13 4 19 0 20 -11 0 -10 2 -78 4 -152 1 -74 6 -162 10 -195 9 -71 7 -718
-3 -1095 l-7 -265 -70 -6 c-38 -4 -88 -10 -110 -13 -22 -4 -143 -9 -270 -12
-126 -2 -264 -7 -305 -9 -104 -7 -429 -16 -465 -14 -56 5 -299 1 -495 -8 -107
-4 -204 -7 -215 -6 -11 1 -56 -2 -100 -7 -44 -6 -162 -12 -262 -14 -100 -2
-185 -6 -190 -9 -4 -3 -75 -8 -157 -11 -82 -4 -155 -11 -162 -17 -7 -6 -15 -6
-18 -1 -3 5 -97 10 -208 11 -112 1 -259 4 -328 6 -69 2 -289 7 -490 10 -395 6
-536 12 -590 25 -19 5 -96 8 -170 6 -230 -5 -571 -6 -578 -2 -4 2 -81 0 -172
-5 -91 -5 -271 -11 -400 -14 -129 -3 -260 -7 -290 -10 -118 -11 -449 -4 -515
10 -20 4 -85 9 -290 20 -60 4 -123 8 -140 11 -16 2 -138 3 -270 2 -451 -2
-532 -1 -616 11 -142 18 -222 22 -569 27 -895 14 -1318 16 -1461 8 l-105 -6
-12 68 c-6 38 -11 116 -12 174 -1 57 -3 107 -6 111 -2 3 -6 42 -10 85 -3 44
-9 108 -12 144 -4 36 -5 108 -2 160 3 52 2 160 -2 240 -14 268 -24 625 -17
645 6 19 18 20 425 24 553 6 848 4 906 -7 26 -5 50 -7 52 -4 3 2 319 6 703 8
384 2 714 4 733 5 19 1 51 1 70 -1 19 -1 58 0 86 3 28 3 134 8 235 12 243 7
521 21 634 30 33 3 120 7 192 10 73 2 137 7 143 10 5 3 15 3 20 0 6 -4 59 -7
118 -7 59 0 134 -4 167 -9 70 -10 757 -13 797 -4 14 4 50 0 80 -9 49 -14 102
-18 198 -16 19 1 136 3 260 5 124 2 254 7 290 11 36 5 72 8 80 7 39 -4 436
-15 523 -14 53 0 105 4 115 9 9 5 94 10 187 10 94 1 202 7 240 13 39 7 122 13
185 15 430 10 705 20 800 29 99 10 300 16 552 19 136 1 250 5 255 9 4 4 14 5
22 1 9 -4 45 -6 81 -5z m-9298 -135 c33 -6 37 -9 42 -48 4 -23 6 -94 6 -157
-2 -167 0 -204 10 -309 5 -53 9 -206 9 -340 0 -135 5 -270 11 -300 13 -66 20
-142 24 -270 2 -52 7 -122 11 -156 l7 -60 -178 1 c-99 1 -318 -2 -489 -7 -170
-5 -391 -11 -490 -13 -99 -3 -207 -7 -240 -9 -33 -3 -175 -7 -315 -11 -140 -3
-331 -11 -425 -17 -93 -6 -249 -11 -345 -11 -320 0 -1063 13 -1245 24 -99 5
-268 7 -375 4 -246 -8 -710 -8 -792 -1 -309 27 -505 29 -533 6 -12 -10 -22
-10 -40 -2 l-24 11 5 438 c2 241 5 589 7 775 1 185 4 339 7 342 3 3 61 -4 129
-15 155 -24 269 -30 391 -19 52 5 135 10 184 11 49 1 106 6 126 10 20 5 56 10
80 13 357 37 831 48 1510 36 215 -4 368 2 390 15 3 2 91 6 195 10 105 4 201 9
215 11 14 1 189 6 390 9 201 4 368 9 372 12 4 2 234 4 510 5 423 0 590 4 798
16 14 1 41 -1 62 -4z m88 -1749 c38 -20 39 -29 46 -435 10 -694 32 -1261 49
-1330 9 -35 29 -220 28 -254 -3 -58 -2 -58 -135 -51 -73 4 -151 2 -190 -5 -37
-5 -185 -10 -330 -9 -509 1 -706 1 -1028 -2 -179 -1 -435 1 -570 5 -135 4
-447 9 -695 11 -247 2 -490 5 -540 5 -49 1 -144 1 -210 -1 -212 -3 -506 13
-625 36 -123 23 -255 35 -430 41 -213 7 -198 7 -523 3 l-277 -4 -1 50 c-2 213
-8 358 -18 404 -35 167 -43 314 -25 419 5 26 9 279 9 564 0 284 3 519 7 523 8
8 373 9 386 1 23 -14 672 -23 1027 -15 143 4 301 3 350 -2 50 -4 142 -8 205
-8 413 0 589 -1 770 -7 253 -9 473 -6 605 7 55 5 215 11 355 14 140 2 296 9
345 14 111 12 274 19 695 27 179 3 326 7 327 8 1 0 83 2 183 4 145 2 186 -1
210 -13z m1635 4 c191 1 657 -23 677 -35 8 -5 194 -5 538 0 63 1 144 -2 180
-6 36 -4 164 -10 285 -13 121 -3 238 -8 260 -10 94 -11 466 -19 530 -13 39 4
174 10 300 12 127 3 300 7 385 10 297 11 855 14 930 5 103 -12 335 -21 650
-24 146 -1 360 -6 475 -11 262 -11 417 -11 520 -1 97 9 264 17 485 22 241 6
352 11 380 18 43 10 299 17 755 22 242 2 454 6 470 9 17 3 138 7 270 10 132 3
281 8 332 12 l92 6 1 -129 c1 -70 2 -135 2 -143 2 -103 -14 -526 -21 -538 -4
-9 -7 -132 -6 -272 2 -235 4 -265 28 -378 23 -107 26 -139 23 -250 -5 -147
-11 -176 -35 -167 -9 3 -43 1 -76 -4 -130 -23 -176 -28 -181 -19 -4 6 -110 7
-263 3 -244 -5 -296 -9 -506 -35 -49 -6 -112 -10 -140 -9 -56 1 -264 -7 -400
-16 -49 -3 -146 -8 -215 -10 -69 -3 -188 -7 -265 -10 -294 -11 -887 -18 -1310
-16 -242 1 -510 -3 -595 -9 -280 -19 -676 -10 -899 20 -36 5 -67 7 -70 6 -19
-11 -688 -31 -956 -29 -502 5 -1055 4 -1120 -1 -38 -4 -104 -8 -145 -11 -74
-4 -140 -8 -355 -21 -60 -4 -123 -9 -140 -11 -16 -2 -188 -5 -382 -8 -194 -2
-430 -7 -525 -11 -206 -8 -1378 -11 -1378 -4 -16 175 -28 295 -35 330 -2 14
-7 83 -11 155 -3 71 -8 133 -10 137 -3 5 -7 129 -9 276 -3 147 -7 326 -10 397
-3 72 -7 273 -9 447 l-3 317 86 4 c47 2 340 1 651 -1 311 -3 655 -4 765 -3z"/>
<path d="M10804 11488 c-17 -8 -23 -22 -28 -74 -4 -36 -4 -86 -1 -112 3 -26 8
-69 10 -97 3 -27 8 -76 11 -107 6 -54 5 -58 -14 -58 -12 0 -24 -4 -27 -10 -3
-5 -21 -10 -39 -10 -61 0 -122 -66 -140 -150 -6 -28 12 -88 34 -114 35 -43
136 -61 203 -36 62 23 78 34 98 66 25 41 21 119 -16 257 -20 78 -27 132 -31
255 -5 140 -15 203 -33 201 -3 0 -16 -5 -27 -11z m32 -584 c7 -27 15 -56 18
-65 11 -27 -55 -52 -121 -47 -60 5 -73 16 -73 64 0 52 72 105 135 100 27 -3
31 -8 41 -52z"/>
<path d="M15560 11446 c-5 -15 -9 -70 -9 -123 0 -64 -4 -98 -12 -103 -6 -4
-38 -11 -70 -14 -52 -6 -60 -10 -65 -32 -4 -14 -3 -29 2 -34 18 -15 82 -31
107 -25 14 4 27 2 31 -3 3 -5 6 -69 7 -141 1 -114 4 -134 21 -156 23 -30 28
-31 55 -6 19 18 20 27 15 155 -3 94 -1 140 7 149 10 13 110 29 194 31 46 1 66
25 39 49 -27 24 -81 34 -164 30 l-78 -4 -1 73 c0 40 -4 96 -7 123 -6 45 -10
50 -34 53 -22 3 -30 -2 -38 -22z"/>
<path d="M7299 11418 c-60 -43 -70 -58 -56 -83 13 -24 15 -231 4 -415 -10
-152 -3 -185 38 -192 35 -7 42 9 51 125 4 53 10 97 15 97 4 0 14 -9 22 -21 22
-30 128 -113 224 -175 85 -55 98 -61 107 -45 14 22 -20 70 -86 121 -136 104
-254 228 -236 246 3 2 49 11 102 19 147 22 226 64 226 120 0 62 -85 169 -169
213 -34 17 -59 22 -120 22 -72 0 -82 -3 -122 -32z m284 -117 c43 -45 57 -75
33 -71 -4 1 -13 -5 -19 -14 -18 -23 -115 -54 -183 -58 l-62 -4 -6 55 c-3 31
-9 73 -12 93 -6 36 -6 37 32 43 22 4 50 10 64 14 50 15 101 -4 153 -58z"/>
<path d="M8892 11411 c-16 -9 -16 -20 -8 -136 4 -49 9 -129 11 -176 l5 -86
-43 -12 c-28 -8 -66 -33 -106 -69 -61 -53 -63 -57 -58 -94 8 -61 44 -105 112
-138 69 -35 118 -38 189 -13 44 16 106 70 106 93 0 6 -10 11 -22 11 -29 2 -30
2 -48 -6 -14 -5 -15 4 -12 57 3 47 -1 76 -17 115 -15 39 -22 84 -26 185 -8
183 -13 236 -25 258 -11 21 -36 26 -58 11z m23 -538 c3 -21 14 -55 24 -75 17
-33 17 -37 2 -41 -47 -12 -130 20 -154 60 -12 19 16 65 48 79 55 24 73 19 80
-23z"/>
<path d="M11881 11360 c-24 -11 -49 -20 -57 -20 -7 0 -38 -16 -68 -35 -30 -19
-58 -35 -61 -35 -21 0 -131 -112 -152 -154 -22 -43 -24 -57 -18 -110 3 -33 13
-72 21 -87 46 -90 210 -183 272 -155 16 7 36 6 65 -1 95 -25 227 17 227 73 0
2 -37 2 -82 0 -76 -3 -142 2 -253 19 -77 12 -175 100 -175 158 0 63 71 162
140 196 19 10 55 29 80 43 43 24 84 39 143 52 20 5 27 12 27 29 0 50 -38 59
-109 27z"/>
<path d="M14662 11156 c-19 -6 -38 -19 -43 -29 -6 -9 -23 -24 -38 -32 -35 -18
-83 -115 -84 -167 0 -70 75 -139 198 -184 90 -32 126 -36 183 -18 51 16 83 38
101 71 17 33 14 36 -26 29 -87 -15 -158 -11 -228 13 -38 13 -74 27 -79 31 -4
5 16 20 46 35 30 15 77 43 104 64 43 32 49 42 52 78 3 34 -2 45 -27 69 -16 15
-49 34 -73 41 -50 15 -44 15 -86 -1z m96 -79 c17 -13 6 -46 -25 -75 -33 -31
-133 -42 -133 -15 0 9 21 38 46 64 37 37 50 45 72 41 15 -3 33 -9 40 -15z"/>
<path d="M9850 11134 c-34 -15 -90 -81 -90 -108 0 -7 -12 -18 -26 -25 -28 -12
-28 -6 -8 -153 6 -49 40 -98 68 -98 19 0 31 56 21 99 -7 33 16 130 41 168 25
40 67 54 129 45 59 -10 67 -3 40 32 -41 54 -107 69 -175 40z"/>
<path d="M14234 11111 c-23 -10 -44 -26 -47 -34 -3 -8 -18 -21 -33 -29 -16 -7
-36 -26 -45 -43 -15 -27 -15 -39 -4 -112 13 -87 26 -113 56 -113 26 0 39 38
39 114 0 73 27 125 72 137 23 6 32 3 47 -17 24 -30 48 -103 55 -163 3 -24 6
-44 8 -45 2 0 14 -7 27 -14 32 -18 43 -5 43 52 0 64 -10 100 -48 184 -28 60
-40 75 -69 87 -44 19 -51 19 -101 -4z"/>
<path d="M15125 11123 c-11 -3 -36 -20 -55 -38 -19 -17 -43 -35 -52 -38 -27
-10 -32 -53 -19 -161 12 -109 25 -132 64 -122 23 5 24 10 30 112 5 101 6 108
35 136 l29 30 39 -20 c56 -29 83 -86 93 -196 5 -55 10 -71 27 -83 19 -12 24
-12 38 2 33 33 13 201 -32 274 -8 14 -36 45 -61 69 -46 42 -74 50 -136 35z"/>
<path d="M10251 11110 c-19 -5 -40 -6 -48 -3 -26 10 -81 -64 -103 -138 -20
-67 -21 -73 -5 -112 41 -104 100 -155 204 -176 95 -20 189 13 191 67 0 12 -13
14 -99 13 -69 -1 -147 26 -176 60 -14 17 -25 36 -25 43 0 6 21 18 47 25 172
51 232 147 130 210 -36 22 -59 24 -116 11z m75 -75 c7 -18 -16 -42 -50 -51
-14 -3 -29 -10 -32 -15 -3 -5 -14 -9 -25 -9 -16 0 -20 6 -17 27 5 45 110 85
124 48z"/>
<path d="M13306 11069 c-56 -62 -76 -122 -51 -149 9 -10 15 -23 12 -27 -3 -5
-2 -56 3 -113 5 -58 12 -143 16 -190 4 -47 6 -106 5 -132 -2 -39 2 -49 20 -58
31 -17 42 -1 51 82 7 66 -7 321 -19 340 -7 13 5 9 39 -12 91 -56 227 17 231
124 2 34 -4 50 -32 85 -19 24 -39 40 -47 37 -7 -3 -20 3 -27 14 -20 29 -67 50
-114 50 -37 0 -46 -5 -87 -51z m165 -55 c6 -8 17 -14 24 -14 18 0 38 -46 32
-72 -4 -13 -24 -32 -48 -45 -36 -20 -47 -21 -89 -12 -36 8 -49 16 -54 32 -12
46 -6 81 19 107 20 21 32 25 64 22 22 -2 45 -10 52 -18z"/>
<path d="M13724 11088 c-95 -65 -102 -182 -14 -260 50 -45 123 -70 172 -59
158 36 239 191 145 278 -61 57 -101 73 -181 73 -67 0 -78 -3 -122 -32z m199
-43 c68 -28 83 -65 51 -126 -25 -50 -122 -81 -192 -63 -24 7 -52 60 -52 98 1
38 39 70 120 99 25 9 36 8 73 -8z"/>
<path d="M7950 11101 c-83 -21 -141 -78 -155 -153 -4 -20 -16 -44 -26 -54 -25
-23 -24 -42 4 -55 12 -6 33 -28 46 -49 16 -26 42 -48 75 -65 64 -32 80 -35
196 -42 76 -4 99 -2 115 11 16 11 18 19 10 32 -13 21 -86 44 -140 44 -48 0
-140 24 -160 40 -18 15 -10 30 16 30 10 0 27 4 37 9 9 5 35 16 57 26 50 20 76
42 99 81 25 41 15 78 -30 121 -29 27 -43 33 -77 32 -23 -1 -53 -4 -67 -8z m74
-71 c61 -23 10 -82 -81 -95 -47 -6 -53 -5 -53 12 0 27 13 42 56 68 45 28 45
28 78 15z"/>
<path d="M12285 11090 c-3 -5 -21 -10 -38 -10 -24 0 -38 -8 -58 -33 -43 -54
-48 -71 -47 -153 1 -75 3 -81 33 -109 42 -40 131 -70 184 -61 75 12 148 51
164 88 26 56 30 94 13 126 -19 37 -95 112 -113 112 -7 0 -13 4 -13 10 0 27
-110 54 -125 30z m70 -81 c68 -19 114 -67 115 -120 0 -35 -22 -52 -102 -79
-89 -30 -120 -19 -138 45 -17 60 -6 108 31 139 35 29 39 30 94 15z"/>
<path d="M12695 11075 c-16 -14 -36 -25 -42 -25 -7 0 -19 -10 -27 -22 -11 -18
-12 -42 -6 -116 4 -51 10 -94 12 -95 1 -1 14 -8 27 -16 21 -11 25 -11 34 4 5
10 10 49 12 89 3 87 11 108 39 104 16 -2 25 -17 40 -63 17 -58 43 -85 81 -85
10 0 65 83 65 99 0 11 44 51 56 51 27 0 94 -122 94 -171 0 -33 22 -67 48 -74
49 -12 50 31 4 160 -30 85 -51 117 -97 145 -30 19 -39 20 -69 10 -33 -11 -88
-62 -98 -91 -7 -20 -24 -3 -47 47 -16 33 -31 49 -56 60 -42 17 -34 18 -70 -11z"/>
<path d="M9357 11068 c-10 -5 -25 -8 -35 -6 -22 5 -95 -43 -120 -80 -11 -15
-25 -45 -32 -67 -7 -22 -16 -44 -21 -49 -16 -18 -9 -73 14 -106 46 -68 92 -87
245 -99 45 -3 82 -3 82 0 0 4 31 15 70 24 75 18 102 37 81 58 -8 8 -63 12
-180 13 -142 0 -173 3 -195 17 -14 10 -26 21 -26 26 0 4 27 11 60 14 70 8 150
43 198 86 27 25 32 37 32 75 0 37 -5 48 -31 70 -17 14 -40 26 -52 27 -12 0
-33 2 -47 4 -14 2 -34 -1 -43 -7z m88 -93 c0 -22 -66 -60 -141 -83 -53 -15
-54 -15 -54 6 0 28 61 80 105 91 60 14 90 10 90 -14z"/>
<path d="M8375 11062 c-6 -4 -18 -18 -27 -32 -9 -15 -35 -34 -58 -45 -39 -17
-41 -21 -36 -49 4 -17 11 -62 16 -101 15 -110 20 -126 48 -136 40 -15 44 -5
42 111 -1 61 3 83 23 120 30 58 56 63 91 17 30 -39 66 -133 66 -172 0 -41 26
-92 50 -100 29 -9 40 8 39 60 0 98 -52 224 -124 300 -27 30 -39 35 -76 35 -24
0 -49 -4 -54 -8z"/>
<path d="M2597 11422 c-13 -14 -14 -27 -7 -77 9 -53 19 -144 34 -297 l5 -48
-29 22 c-28 20 -30 20 -56 3 -40 -26 -194 -27 -222 -1 -20 17 -20 20 -5 50 9
17 27 41 41 53 24 21 40 27 111 41 40 8 58 48 36 78 -11 16 -19 17 -80 5 -104
-19 -200 -90 -211 -157 -10 -64 11 -120 54 -149 72 -47 158 -50 238 -7 34 18
105 52 109 52 2 0 5 -18 7 -41 2 -32 9 -44 30 -57 34 -20 43 -12 58 53 32 135
59 183 98 171 23 -8 62 -97 62 -142 0 -32 26 -91 53 -121 19 -21 21 -21 33 -5
22 31 1 165 -42 258 -29 63 -86 100 -140 90 -19 -4 -38 -16 -45 -28 -16 -30
-24 -13 -38 82 -27 176 -50 220 -94 172z"/>
<path d="M3864 11415 c-6 -14 -3 -34 11 -100 24 -114 36 -313 26 -423 -5 -53
-7 -102 -4 -109 9 -22 54 -46 66 -34 22 22 37 89 39 179 1 50 5 92 8 92 3 0
19 -14 36 -31 47 -50 147 -123 210 -153 17 -8 37 -22 44 -31 15 -18 63 -45 80
-45 44 0 -85 147 -212 241 -36 27 -69 57 -72 66 -7 18 32 64 77 91 15 9 27 21
27 27 0 6 29 32 65 58 36 26 65 51 65 56 0 13 -54 51 -73 51 -18 0 -79 -44
-172 -126 -41 -35 -78 -64 -83 -64 -4 0 -20 55 -35 122 -15 67 -33 128 -39
135 -14 18 -57 16 -64 -2z"/>
<path d="M1120 11375 c-46 -21 -182 -160 -199 -205 -8 -19 -21 -43 -29 -52 -8
-10 -15 -40 -16 -72 -1 -68 17 -95 105 -154 90 -61 117 -66 246 -46 59 8 120
17 134 19 15 2 35 8 45 14 11 6 31 15 47 21 34 12 36 40 3 40 -14 0 -27 4 -30
9 -8 12 -149 5 -176 -9 -16 -9 -49 -11 -104 -7 -121 8 -182 47 -178 113 3 38
31 95 67 134 12 14 30 38 40 53 37 58 128 81 218 56 21 -5 47 -7 58 -4 28 9
21 53 -13 78 -37 27 -167 34 -218 12z"/>
<path d="M1823 11231 c-139 -64 -232 -186 -212 -281 8 -39 27 -56 79 -70 75
-21 90 -15 163 61 l68 71 41 -46 c65 -75 138 -102 138 -51 0 14 -4 25 -9 25
-17 0 -90 111 -111 169 -31 80 -71 140 -95 140 -11 0 -39 -8 -62 -18z m57
-116 c0 -27 -11 -45 -60 -95 -32 -35 -61 -67 -63 -73 -2 -7 -13 -7 -32 0 -22
7 -31 17 -33 38 -3 23 7 38 57 86 61 57 109 89 124 82 4 -2 7 -19 7 -38z"/>
<path d="M3110 11178 c-29 -18 -58 -42 -64 -53 -6 -11 -13 -22 -16 -25 -13
-13 -33 -56 -37 -81 -3 -21 1 -29 16 -34 11 -3 29 -20 40 -38 11 -18 32 -44
48 -59 70 -67 233 -79 233 -18 0 22 -42 54 -74 56 -61 4 -116 33 -116 60 0 8
20 19 45 25 25 6 48 15 51 20 3 5 13 9 22 9 20 0 52 48 52 78 0 11 -15 37 -34
56 -45 48 -90 49 -166 4z m98 -66 c2 -7 -2 -12 -8 -12 -7 0 -25 -9 -42 -21
-16 -12 -31 -19 -34 -17 -9 10 7 34 34 51 29 18 43 18 50 -1z"/>
<path d="M4511 11136 c-31 -17 -81 -92 -82 -125 -2 -27 -4 -45 -10 -93 -3 -23
5 -35 54 -77 73 -61 119 -75 212 -62 131 17 193 53 150 85 -30 22 -66 26 -156
19 -61 -5 -80 -3 -75 5 4 7 16 12 27 12 21 0 81 54 112 100 27 39 21 78 -17
116 -33 33 -36 34 -112 34 -46 -1 -89 -6 -103 -14z m167 -80 c12 -12 -43 -57
-95 -76 -30 -11 -56 -20 -59 -20 -9 0 7 63 19 79 6 7 20 17 32 22 20 9 92 5
103 -5z"/>
<path d="M5286 11104 c-9 -8 -16 -20 -16 -26 0 -18 -84 -147 -96 -148 -6 0
-26 11 -45 25 -142 103 -192 125 -205 90 -3 -8 4 -27 17 -43 22 -26 122 -115
163 -145 19 -14 19 -16 -20 -63 -104 -126 -276 -381 -272 -403 2 -8 18 -19 35
-25 30 -8 35 -6 68 30 20 22 43 52 52 69 8 16 22 35 29 43 8 7 14 18 14 24 0
6 20 33 45 59 25 26 45 53 45 59 0 6 18 33 40 61 22 28 40 55 40 60 0 5 14 15
30 24 17 9 30 22 30 30 0 17 32 76 66 120 13 18 24 39 24 48 0 9 5 19 10 22
17 11 12 92 -6 99 -24 9 -31 8 -48 -10z"/>
<path d="M1057 9565 c-9 -6 -17 -20 -17 -29 0 -25 40 -139 55 -156 7 -8 15
-28 19 -44 4 -16 18 -43 32 -59 13 -16 24 -33 24 -38 0 -6 10 -9 23 -7 27 4
28 42 1 83 -9 14 -18 38 -19 53 -1 15 -11 45 -22 67 -11 22 -26 59 -33 83 -16
50 -37 66 -63 47z"/>
<path d="M882 9508 c-9 -9 -9 -15 2 -27 7 -9 28 -44 46 -79 18 -34 38 -66 45
-70 7 -4 20 -23 30 -42 33 -66 68 -90 77 -52 5 17 -93 232 -121 265 -16 20
-62 22 -79 5z"/>
<path d="M4976 9479 c-14 -17 -26 -36 -26 -42 0 -7 -11 -29 -25 -49 -30 -44
-32 -88 -7 -111 37 -33 56 -19 99 73 32 68 45 130 31 148 -17 21 -45 14 -72
-19z"/>
<path d="M5173 9453 c-4 -10 -26 -47 -49 -83 -71 -109 -73 -116 -37 -152 l31
-31 27 39 c87 129 98 150 98 181 0 17 -5 39 -13 47 -17 21 -49 20 -57 -1z"/>
<path d="M1590 9408 c-109 -33 -242 -103 -274 -144 -115 -145 -2 -444 193
-512 95 -33 272 12 306 78 18 36 45 172 42 217 -3 42 -12 50 -67 56 -41 5
-126 22 -240 47 -30 7 -62 7 -98 0 -62 -11 -72 -16 -72 -34 0 -29 38 -47 120
-56 88 -10 249 -47 263 -60 13 -12 -11 -111 -33 -140 -16 -21 -29 -26 -87 -30
-96 -7 -135 5 -192 59 -85 81 -119 228 -71 306 40 65 230 141 324 130 61 -7
79 3 74 41 -3 25 -9 31 -48 40 -25 7 -52 14 -60 17 -8 3 -44 -3 -80 -15z"/>
<path d="M3378 9364 c-3 -3 -3 -20 0 -37 4 -18 7 -59 7 -92 l0 -60 -31 -2
c-40 -2 -74 -19 -74 -38 0 -19 48 -55 74 -55 44 0 46 -8 47 -181 2 -174 10
-209 49 -209 11 0 27 11 36 25 14 21 16 50 13 187 l-4 163 87 -3 c93 -4 128 6
128 38 0 27 -20 36 -125 55 -5 1 -27 3 -47 3 -46 2 -55 17 -63 103 -3 35 -8
71 -11 80 -6 22 -70 39 -86 23z"/>
<path d="M3784 9173 c-6 -20 -2 -31 16 -45 29 -23 47 -23 60 2 18 33 -12 70
-56 70 -7 0 -17 -12 -20 -27z"/>
<path d="M2170 9119 c-25 -16 -52 -39 -60 -50 -9 -11 -29 -21 -45 -22 -25 -2
-31 -8 -37 -37 -11 -49 1 -179 19 -207 17 -26 67 -32 76 -9 3 8 3 39 0 70 -8
77 29 154 85 179 48 21 68 21 122 2 52 -18 47 -19 60 6 15 27 -1 46 -65 75
-65 31 -100 29 -155 -7z"/>
<path d="M4688 9112 c-18 -16 -42 -32 -53 -36 -57 -18 -139 -127 -159 -209
-14 -57 63 -137 132 -137 35 0 112 34 112 50 0 6 5 10 12 10 6 0 19 7 29 16
17 15 19 15 27 -7 41 -107 61 -259 43 -320 -23 -78 -99 -114 -188 -90 -50 14
-135 67 -131 84 10 52 -53 81 -72 33 -15 -41 6 -91 58 -136 57 -51 85 -66 157
-85 53 -13 60 -13 119 9 75 27 95 44 130 113 22 44 25 63 22 115 -3 63 -24
159 -53 253 -8 28 -21 102 -28 165 -8 63 -17 133 -22 155 -8 39 -9 40 -55 43
-39 3 -51 -1 -80 -26z m42 -181 c-21 -79 -105 -143 -154 -119 -47 24 39 165
129 212 l30 16 3 -34 c2 -19 -2 -53 -8 -75z"/>
<path d="M3075 9088 c-16 -6 -37 -14 -45 -19 -8 -4 -33 -18 -55 -29 -59 -32
-82 -57 -88 -97 -12 -70 53 -168 143 -217 88 -48 234 -46 300 4 20 15 22 20
11 34 -10 12 -31 16 -79 16 -125 0 -252 32 -252 64 0 7 12 18 28 23 70 25 91
33 144 55 54 22 57 25 63 65 3 24 1 51 -5 63 -23 44 -97 61 -165 38z m89 -76
c6 -10 -127 -56 -145 -50 -19 7 80 57 113 58 15 0 29 -4 32 -8z"/>
<path d="M2560 9071 c-68 -20 -101 -45 -119 -91 -25 -67 -9 -125 55 -192 36
-38 122 -88 152 -88 18 0 107 32 180 65 63 30 81 58 43 68 -23 6 -123 -13
-176 -33 -40 -15 -74 -12 -111 11 -34 20 -61 56 -51 66 3 2 25 7 49 10 76 10
188 86 188 127 -1 69 -90 93 -210 57z m100 -70 c0 -8 -87 -41 -109 -41 -26 0
-7 20 32 33 49 18 77 21 77 8z"/>
<path d="M4121 9077 c-33 -12 -44 -23 -55 -59 -2 -9 -19 -19 -36 -23 l-32 -7
6 -71 c13 -159 21 -186 58 -199 19 -8 48 20 48 46 0 33 33 191 43 204 5 6 19
12 31 12 48 0 87 -78 101 -198 5 -45 13 -69 28 -83 25 -23 28 -23 52 -5 18 13
18 18 7 62 -6 27 -16 78 -22 113 -21 139 -133 241 -229 208z"/>
<path d="M3806 9011 c-4 -5 -4 -29 0 -53 7 -51 6 -145 -1 -169 -6 -19 30 -69
50 -69 32 0 47 47 46 137 -2 106 -22 156 -63 161 -14 2 -29 -1 -32 -7z"/>
<path d="M7283 9584 c-3 -9 10 -39 33 -72 60 -88 122 -175 137 -192 8 -8 17
-23 20 -33 10 -28 31 -15 39 24 7 37 1 49 -87 179 -76 112 -74 110 -106 110
-18 0 -32 -6 -36 -16z"/>
<path d="M7151 9561 c-21 -16 -22 -21 -11 -42 7 -13 38 -51 69 -85 31 -33 71
-80 89 -102 38 -48 57 -53 66 -18 8 31 -7 70 -44 115 -16 20 -47 57 -67 82
-50 61 -72 72 -102 50z"/>
<path d="M13493 9538 c-11 -13 -28 -45 -37 -73 -28 -80 -43 -109 -71 -139 -14
-15 -25 -31 -25 -35 0 -13 35 -41 51 -41 27 0 78 64 107 135 40 96 47 139 27
159 -21 21 -28 20 -52 -6z"/>
<path d="M13668 9510 c-15 -11 -32 -37 -39 -58 -19 -60 -69 -152 -84 -159 -31
-11 -9 -64 31 -77 14 -4 24 -2 28 6 3 7 19 36 36 63 68 111 93 195 68 228 -13
18 -15 17 -40 -3z"/>
<path d="M8673 9426 c-7 -8 -18 -16 -25 -19 -36 -13 133 -243 210 -286 14 -8
-3 -29 -105 -132 -68 -67 -123 -127 -123 -135 0 -18 29 -44 50 -44 19 0 99 67
160 134 19 21 65 69 103 106 69 69 81 97 54 134 -10 14 -17 15 -41 6 -25 -9
-33 -7 -65 17 -59 44 -110 104 -148 171 -35 63 -49 72 -70 48z"/>
<path d="M7982 9415 c-28 -12 -117 -70 -132 -85 -3 -3 -18 -14 -35 -25 -16
-10 -60 -44 -97 -74 -36 -31 -78 -64 -92 -74 -29 -20 -34 -48 -11 -67 8 -7 15
-19 15 -26 0 -7 10 -20 23 -28 12 -7 54 -34 93 -59 40 -26 101 -58 138 -73 36
-14 69 -30 72 -35 3 -5 18 -9 33 -9 29 0 46 26 35 53 -5 12 -88 64 -175 110
-26 13 -62 36 -81 51 -19 14 -41 26 -48 26 -21 0 8 29 51 50 20 11 46 31 57
45 11 14 24 25 28 25 10 0 68 37 152 96 52 37 61 58 46 98 -7 20 -29 20 -72 1z"/>
<path d="M9416 9355 c-32 -7 -71 -23 -87 -34 -15 -12 -34 -21 -42 -21 -33 0
-97 -97 -97 -148 0 -16 -7 -51 -15 -78 -64 -210 89 -478 263 -460 144 15 217
28 264 47 91 36 110 67 58 94 -27 14 -35 14 -102 -6 -40 -11 -95 -22 -123 -24
-27 -1 -72 -8 -98 -14 -46 -11 -50 -10 -91 18 -50 35 -61 48 -69 81 -3 14 -13
58 -23 98 -17 71 -17 74 5 159 29 113 38 132 86 164 54 37 185 58 247 40 61
-18 114 -52 182 -115 32 -31 63 -56 67 -56 5 0 9 -8 9 -17 0 -10 7 -26 14 -36
14 -18 10 -63 -7 -84 -5 -7 -31 -13 -57 -13 -44 0 -52 4 -83 41 -20 22 -38 52
-41 65 -11 42 -57 132 -82 159 -32 35 -97 35 -148 0 -20 -14 -41 -25 -46 -25
-5 0 -22 -19 -39 -43 -16 -24 -36 -49 -45 -56 -25 -21 -22 -140 5 -186 24 -40
83 -75 128 -75 49 0 115 35 150 79 30 38 61 54 61 31 0 -15 42 -50 77 -65 38
-16 72 -12 134 16 135 62 96 200 -103 365 -43 35 -83 64 -90 64 -8 0 -22 6
-33 13 -54 36 -129 43 -229 22z m128 -237 c16 -24 30 -59 33 -78 3 -29 -3 -42
-35 -79 -40 -46 -80 -58 -128 -40 -26 9 -39 82 -23 128 9 24 101 110 120 111
3 0 18 -19 33 -42z"/>
<path d="M10265 9314 c-33 -30 -91 -76 -130 -102 -95 -64 -97 -66 -86 -95 18
-46 68 -41 130 11 38 31 113 84 116 80 2 -1 6 -61 10 -133 4 -71 9 -139 11
-150 2 -11 7 -41 10 -66 l6 -46 -63 -7 c-35 -4 -73 -9 -84 -11 -11 -1 -36 -3
-55 -4 -20 -1 -48 -11 -65 -25 l-30 -24 24 -26 c21 -23 32 -26 85 -25 34 0 86
5 116 9 30 5 82 13 116 18 33 5 70 15 82 21 13 7 27 9 32 6 5 -3 35 -1 67 5
32 6 69 12 82 13 18 1 29 13 42 44 26 62 12 70 -93 48 -130 -27 -175 -29 -182
-8 -3 10 -10 101 -16 203 -6 102 -13 209 -16 238 -6 48 -24 82 -42 82 -4 0
-34 -25 -67 -56z"/>
<path d="M10979 9356 c-59 -17 -107 -45 -115 -68 -3 -10 -17 -26 -30 -35 -45
-29 -58 -76 -57 -213 0 -183 37 -298 115 -362 54 -44 81 -58 110 -58 13 0 28
-4 33 -8 33 -29 264 -57 348 -43 14 2 7 49 -10 70 -15 17 -37 22 -128 31 -60
6 -127 15 -147 20 -21 6 -55 14 -76 20 -21 5 -55 24 -75 42 -37 33 -77 108
-57 108 5 0 10 -4 10 -10 0 -21 86 -53 157 -58 66 -4 74 -2 107 23 20 15 36
34 36 41 0 24 14 16 56 -34 59 -67 90 -83 134 -68 40 13 73 71 84 144 8 60
-32 222 -75 299 -31 55 -130 141 -179 157 -58 17 -182 18 -241 2z m241 -100
c66 -28 113 -85 144 -175 28 -84 44 -221 26 -221 -6 0 -10 -7 -10 -15 0 -21
-33 -19 -53 3 -32 35 -84 158 -107 252 -12 52 -26 102 -30 110 -29 57 -253
-73 -297 -171 -9 -22 -20 -39 -24 -39 -24 0 -7 117 25 178 21 40 84 81 139 91
61 10 147 4 187 -13z m-85 -196 c18 -55 14 -118 -11 -157 -17 -27 -75 -31
-129 -9 -51 22 -61 49 -34 93 20 32 130 123 149 123 5 0 16 -23 25 -50z"/>
<path d="M12961 9298 l-20 -21 23 -40 c13 -22 49 -67 79 -101 89 -100 117
-133 117 -141 0 -4 -13 -24 -30 -45 -16 -21 -30 -43 -30 -48 0 -6 -11 -23 -24
-37 -13 -14 -41 -51 -62 -81 -40 -57 -40 -74 -1 -98 13 -8 25 -3 57 29 22 22
38 45 36 52 -3 7 1 13 8 13 12 0 76 92 76 110 0 5 4 10 8 12 4 2 23 22 41 45
l33 41 -18 38 c-10 20 -29 44 -43 52 -14 8 -42 35 -61 59 -19 24 -44 55 -55
67 -11 13 -37 44 -58 70 -21 25 -42 46 -47 46 -5 0 -18 -10 -29 -22z"/>
<path d="M8252 9273 c-46 -6 -69 -43 -54 -87 20 -54 27 -182 12 -226 -11 -32
-11 -42 0 -55 15 -18 15 -140 0 -231 -14 -87 -12 -119 9 -145 l20 -24 23 23
c22 21 23 31 26 181 l3 159 72 -5 c68 -4 75 -3 127 29 62 38 91 76 115 148 22
65 7 121 -43 168 -60 55 -105 72 -197 70 -44 -1 -95 -3 -113 -5z m206 -108
c76 -23 91 -66 49 -140 -19 -34 -31 -42 -82 -58 -43 -13 -70 -15 -95 -10 -34
8 -35 11 -41 63 -3 30 -5 75 -5 100 1 38 4 45 26 51 42 12 94 10 148 -6z"/>
<path d="M11946 9263 c-27 -14 -134 -97 -146 -112 -4 -6 -45 -36 -185 -134
-19 -14 -19 -15 -2 -41 10 -15 30 -31 44 -37 15 -5 86 -55 159 -110 144 -109
196 -131 209 -89 8 24 -17 57 -71 94 -33 22 -117 87 -173 134 l-34 29 43 39
c23 21 57 48 75 59 44 27 105 70 131 92 17 14 20 26 17 56 -6 42 -20 46 -67
20z"/>
<path d="M12348 9183 c-8 -10 -25 -35 -38 -56 -12 -21 -59 -84 -104 -140 -99
-125 -116 -151 -116 -176 0 -24 32 -36 59 -22 29 16 101 101 101 120 0 9 18
34 40 56 22 22 60 65 84 95 38 49 42 60 38 98 -3 36 -7 42 -27 42 -12 0 -29
-8 -37 -17z"/>
<path d="M12604 9173 c-12 -2 -32 -15 -44 -28 -19 -20 -21 -28 -11 -57 8 -28
9 -81 2 -230 -1 -10 0 -37 0 -60 2 -59 -11 -309 -17 -330 -9 -31 6 -58 30 -58
13 0 28 6 34 13 15 18 25 127 31 333 l1 51 78 6 c135 10 232 59 245 123 13 72
-56 178 -141 215 -41 18 -163 31 -208 22z m210 -114 c30 -18 66 -70 66 -97 0
-31 -171 -83 -218 -66 -26 9 -27 12 -27 89 0 101 8 110 87 101 32 -4 74 -16
92 -27z"/>
<path d="M19865 8783 c-18 -18 -18 -19 11 -148 8 -38 21 -102 29 -140 25 -130
44 -190 66 -208 37 -30 43 -9 30 110 -7 59 -16 124 -21 143 -5 19 -19 79 -31
133 -27 121 -47 147 -84 110z"/>
<path d="M19429 8573 c-9 -22 -5 -60 20 -188 18 -90 31 -191 31 -232 0 -63 3
-74 22 -87 36 -25 56 -20 63 17 22 106 46 137 108 137 42 0 117 -91 103 -126
-3 -7 -1 -16 4 -19 6 -4 10 -17 10 -30 0 -18 7 -26 26 -31 29 -8 44 7 44 44 0
44 -66 165 -114 210 -53 49 -86 54 -153 21 -24 -12 -46 -20 -48 -17 -4 4 -18
81 -37 203 -12 80 -32 125 -54 125 -8 0 -19 -12 -25 -27z"/>
<path d="M18987 8512 c-15 -15 -27 -33 -27 -39 0 -5 -11 -31 -25 -57 -14 -26
-25 -56 -25 -66 0 -10 -5 -22 -10 -25 -14 -9 21 -54 42 -55 9 0 25 12 35 28
17 24 30 50 76 149 8 18 6 31 -9 58 -10 19 -21 35 -24 35 -4 0 -18 -13 -33
-28z"/>
<path d="M18384 8389 c-25 -32 -25 -52 1 -79 20 -20 27 -42 35 -102 5 -42 14
-105 21 -140 6 -35 12 -76 13 -93 7 -81 49 -112 140 -102 56 6 156 56 156 78
0 5 6 9 13 9 25 0 50 60 48 117 -2 113 -80 213 -217 279 -88 42 -191 58 -210
33z m230 -134 c28 -13 61 -33 73 -44 42 -39 58 -155 26 -183 -58 -48 -152 -80
-176 -59 -8 6 -13 28 -11 53 1 24 -1 64 -6 88 -4 25 -10 61 -13 80 -3 19 -9
50 -13 69 l-7 34 38 -7 c20 -4 60 -18 89 -31z"/>
<path d="M19142 8210 c-78 -35 -109 -134 -57 -185 13 -14 36 -25 50 -25 14 0
25 -4 25 -10 0 -16 76 -33 114 -26 41 8 90 49 105 87 16 42 -18 98 -81 136
-70 41 -104 46 -156 23z m142 -91 c25 -20 25 -21 8 -44 -22 -30 -64 -49 -92
-40 -24 8 -43 49 -35 76 11 33 81 38 119 8z"/>
<path d="M20070 8030 c-40 -40 -16 -103 39 -103 40 0 44 4 44 53 0 67 -41 92
-83 50z"/>
<path d="M18547 7676 c-15 -7 -24 -15 -21 -19 4 -4 -2 -7 -14 -7 -29 0 -174
-148 -230 -235 -48 -73 -95 -163 -107 -205 -4 -14 -16 -37 -26 -52 -11 -14
-19 -29 -19 -32 0 -4 -11 -23 -24 -44 -16 -25 -24 -53 -25 -86 -2 -61 -24 -99
-91 -154 -59 -47 -100 -58 -168 -46 -83 14 -161 7 -218 -21 -65 -32 -106 -64
-98 -76 3 -6 -2 -16 -11 -23 -13 -9 -17 -25 -15 -57 1 -24 1 -51 1 -59 -5 -88
-12 -123 -28 -147 -17 -24 -18 -32 -7 -52 13 -25 49 -50 72 -51 7 0 21 20 32
45 10 24 29 58 41 74 19 26 21 38 16 98 -7 77 -5 84 41 107 28 14 44 15 114 6
117 -14 188 -12 248 7 49 16 54 16 82 0 23 -13 55 -17 146 -17 64 0 150 -5
191 -10 125 -16 152 -62 125 -218 -14 -82 -13 -92 17 -110 16 -11 25 -10 50 5
16 10 32 27 34 38 21 91 25 117 25 170 0 124 -44 196 -155 251 -45 22 -59 24
-125 18 -67 -5 -79 -3 -131 22 -57 27 -58 28 -64 78 -4 29 -2 63 4 79 6 16 11
47 11 70 0 27 10 58 26 87 15 25 40 69 56 98 16 29 41 65 55 80 14 15 38 45
54 67 15 22 42 51 59 65 49 40 184 163 192 176 9 14 -19 54 -37 54 -8 0 -19 9
-25 20 -12 23 -15 23 -53 6z"/>
<path d="M10317 6292 c-17 -18 -15 -27 39 -171 41 -109 65 -160 87 -181 29
-29 57 -39 57 -22 0 13 -36 111 -43 119 -4 3 -7 16 -7 27 0 12 -9 36 -20 54
-11 18 -20 42 -21 55 0 27 -50 130 -65 134 -6 2 -18 -5 -27 -15z"/>
<path d="M11747 6229 c-23 -17 -79 -94 -121 -167 -9 -16 20 -52 42 -52 7 0 35
23 60 51 66 72 89 131 70 172 -11 22 -17 21 -51 -4z"/>
<path d="M11999 6241 c-29 -6 -219 -211 -219 -235 0 -16 32 -46 49 -46 15 0
143 127 183 181 49 66 43 112 -13 100z"/>
<path d="M10120 6225 c-14 -17 -14 -17 42 -120 73 -131 127 -195 168 -195 16
0 17 3 3 43 -8 23 -21 49 -29 58 -8 8 -14 19 -14 22 0 4 -16 30 -35 57 -19 27
-35 55 -35 61 0 17 -60 89 -75 89 -7 0 -18 -7 -25 -15z"/>
<path d="M17798 6225 c-16 -9 -28 -21 -28 -27 0 -6 -7 -19 -16 -29 -21 -24
-41 -170 -34 -253 4 -52 2 -70 -8 -73 -15 -6 -171 4 -208 13 -19 5 -31 0 -49
-21 -14 -14 -23 -31 -19 -37 15 -25 103 -50 194 -57 l95 -6 -1 -146 c-1 -114
-4 -152 -17 -179 -20 -39 -20 -40 -5 -40 6 0 19 -7 29 -16 10 -9 24 -14 32
-11 36 14 61 202 38 284 -6 19 -6 35 -1 38 5 3 7 19 3 35 -7 35 -10 35 120 16
100 -14 116 -9 102 29 -11 29 -77 58 -161 71 -42 6 -80 36 -69 54 3 4 5 54 6
111 2 160 29 189 158 168 72 -11 86 -5 72 34 -11 29 -47 42 -146 51 -44 4 -67
2 -87 -9z"/>
<path d="M10857 6144 c-37 -20 -57 -90 -64 -226 l-6 -118 -101 6 c-93 5 -103
3 -125 -16 -24 -21 -24 -21 -5 -41 16 -15 41 -21 127 -27 59 -5 110 -12 114
-16 11 -11 15 -175 4 -209 -22 -74 -22 -86 -1 -97 56 -30 78 23 79 189 1 57 3
106 5 109 3 2 36 8 74 12 85 9 128 28 124 55 -2 11 -6 22 -8 24 -3 4 -116 10
-181 11 -21 0 -23 5 -23 58 0 76 18 184 33 199 15 15 126 0 167 -22 14 -8 32
-10 38 -6 20 12 -3 59 -35 72 -16 6 -36 15 -46 20 -9 5 -46 15 -81 23 -53 11
-68 11 -89 0z"/>
<path d="M12683 6153 c-25 -9 -12 -34 70 -134 45 -55 91 -113 101 -127 29 -40
136 -164 163 -190 25 -23 24 -62 -2 -62 -17 0 -115 -88 -115 -104 0 -7 -10
-18 -22 -25 -36 -20 -148 -155 -185 -222 -27 -48 -31 -64 -22 -75 23 -27 57
-16 88 29 16 23 37 50 45 60 9 9 16 20 16 23 0 14 240 240 288 270 56 36 69
71 35 96 -28 21 -213 210 -213 217 0 6 -76 101 -166 209 -33 39 -52 47 -81 35z"/>
<path d="M1187 6043 c-73 -81 -113 -120 -186 -183 -35 -30 -82 -72 -105 -93
-23 -20 -69 -56 -103 -78 -34 -23 -69 -52 -78 -65 -16 -24 -15 -25 20 -40 40
-16 75 -33 302 -148 103 -52 170 -93 207 -126 29 -28 59 -50 65 -50 16 0 13
56 -5 91 -12 25 -138 119 -158 119 -3 0 -40 21 -83 46 -43 25 -104 59 -135 75
-53 27 -74 49 -47 49 19 0 83 53 184 155 171 170 233 258 210 295 -13 21 -37
8 -88 -47z"/>
<path d="M16435 6060 c-10 -11 -27 -22 -39 -26 -26 -8 -124 -51 -150 -65 -106
-60 -184 -107 -220 -133 -17 -12 -51 -31 -76 -41 -54 -22 -100 -62 -100 -87 0
-21 29 -38 65 -38 24 0 110 -56 152 -98 46 -47 230 -147 291 -158 34 -7 35 -6
28 22 -11 45 -35 75 -69 87 -64 22 -167 83 -231 137 -66 56 -77 70 -53 70 8 0
32 12 54 28 60 42 71 48 178 102 56 27 125 66 155 85 30 19 57 35 61 35 11 0
17 64 7 83 -12 22 -31 22 -53 -3z"/>
<path d="M5910 6062 c-8 -3 -18 -9 -21 -14 -3 -4 -6 -122 -6 -261 -1 -138 -4
-296 -8 -349 l-7 -97 26 -12 c37 -17 46 -4 53 77 13 164 15 549 2 602 -14 58
-17 62 -39 54z"/>
<path d="M14638 6048 c-7 -13 -11 -27 -9 -33 1 -5 4 -35 6 -65 2 -30 6 -81 9
-112 3 -31 2 -59 -2 -61 -4 -3 -63 -1 -132 3 -459 30 -594 23 -646 -31 -49
-51 -34 -54 254 -55 141 0 286 -4 322 -8 36 -4 93 -8 128 -10 35 -2 68 -8 73
-13 12 -12 16 -159 6 -223 -7 -39 -5 -47 14 -58 17 -11 24 -11 37 1 10 8 28
18 42 22 14 4 41 24 60 44 19 20 56 50 82 67 26 17 72 53 103 80 31 27 69 56
85 64 28 15 28 15 12 51 -12 29 -25 39 -66 53 -43 16 -74 42 -193 162 -78 79
-149 144 -157 144 -9 0 -21 -10 -28 -22z"/>
<path d="M17040 6025 l-22 -23 26 -38 c14 -21 78 -94 142 -162 90 -95 114
-126 103 -133 -8 -5 -18 -9 -23 -9 -18 0 -266 -263 -266 -281 0 -11 -4 -19
-10 -19 -15 0 -12 -36 4 -49 29 -25 96 25 200 149 16 19 65 63 110 98 88 70
96 78 96 104 0 10 -56 81 -124 158 -69 77 -139 158 -157 179 -40 51 -52 55
-79 26z"/>
<path d="M20110 6019 c-13 -31 -12 -32 41 -81 30 -27 61 -55 69 -62 18 -15
123 -86 151 -102 10 -6 27 -18 37 -27 10 -10 23 -17 29 -17 12 0 53 -43 53
-56 -1 -16 -61 -78 -155 -159 -155 -135 -165 -145 -165 -169 0 -31 32 -59 56
-49 37 13 204 152 204 169 0 5 20 25 45 44 25 19 45 37 45 40 0 4 16 24 35 46
40 44 44 76 15 101 -11 10 -20 20 -20 24 0 19 -126 129 -225 197 -33 22 -84
61 -113 86 -63 54 -85 57 -102 15z"/>
<path d="M3431 6026 c-8 -10 -8 -29 3 -77 8 -35 16 -90 18 -122 l5 -57 -36 6
c-96 18 -181 4 -181 -31 0 -19 59 -44 122 -51 72 -8 80 -14 82 -60 2 -41 -9
-182 -18 -224 -20 -91 -21 -88 18 -96 21 -3 40 -3 44 1 8 8 19 109 27 250 4
55 8 102 11 104 9 9 138 1 172 -10 24 -8 37 -8 44 -1 24 24 -47 70 -142 92
-30 7 -60 14 -67 16 -7 2 -12 18 -12 36 1 51 -28 208 -42 224 -15 18 -33 18
-48 0z"/>
<path d="M1640 5993 c-36 -7 -99 -54 -155 -115 -123 -135 -129 -148 -127 -255
3 -88 25 -159 65 -201 34 -36 201 -112 247 -112 53 0 139 19 171 38 15 8 34
30 43 49 19 39 21 135 5 182 -13 36 -65 67 -126 76 -201 26 -277 29 -292 11
-21 -25 -44 -21 -35 7 15 51 41 86 116 158 99 97 134 115 193 100 56 -14 55
-14 55 8 0 11 -12 29 -26 40 -26 21 -72 25 -134 14z m-183 -394 c5 -5 68 -12
139 -15 179 -8 263 -38 234 -85 -5 -7 -7 -22 -4 -31 11 -37 -66 -78 -146 -78
-90 0 -197 56 -223 118 -32 74 -32 123 0 91z"/>
<path d="M18963 5880 c-90 -60 -186 -122 -215 -138 -48 -25 -53 -30 -53 -62 0
-31 6 -39 48 -65 26 -16 111 -72 189 -123 78 -51 152 -95 164 -98 37 -10 46 3
29 43 -15 36 -29 49 -91 88 -90 56 -204 138 -204 147 0 3 33 24 73 48 39 24
74 46 77 50 8 12 95 77 121 90 38 19 79 62 79 81 0 20 -26 49 -44 49 -6 0 -84
-49 -173 -110z"/>
<path d="M12597 5907 c-77 -92 -107 -134 -122 -172 -9 -20 -22 -38 -30 -41 -8
-3 -37 -42 -65 -85 -28 -44 -64 -94 -79 -112 -59 -68 -62 -101 -9 -112 27 -6
35 -2 69 36 21 24 43 55 51 69 7 14 22 37 35 52 12 16 27 44 34 63 7 19 16 35
21 35 6 0 61 74 110 149 27 40 41 61 61 86 14 19 15 28 6 49 -19 42 -36 38
-82 -17z"/>
<path d="M19518 5946 c-10 -7 -18 -16 -18 -20 0 -4 -10 -17 -23 -29 -28 -27
-102 -126 -142 -189 -17 -26 -49 -77 -72 -113 -26 -41 -43 -80 -45 -103 -3
-35 -1 -37 29 -40 28 -3 35 2 52 30 11 18 29 47 41 63 42 59 130 196 130 202
0 3 15 22 33 42 85 98 95 117 77 151 -12 23 -37 25 -62 6z"/>
<path d="M19734 5902 c-21 -14 -25 -45 -8 -63 10 -11 23 -19 31 -19 11 0 11
-6 -2 -36 -8 -20 -12 -40 -10 -45 3 -4 5 -48 5 -96 0 -48 0 -95 0 -103 0 -28
-1 -155 -3 -325 l-2 -169 25 -13 c46 -23 54 -1 58 160 2 78 5 153 6 167 2 14
4 48 5 76 l1 51 93 7 c132 10 193 26 234 62 30 27 35 38 35 77 1 58 -24 111
-76 160 -65 61 -102 77 -241 102 -89 16 -135 18 -151 7z m258 -128 c72 -24
106 -47 124 -80 23 -42 14 -61 -40 -84 -48 -20 -203 -36 -223 -23 -6 5 -14 40
-17 80 -2 39 -12 86 -21 104 l-17 32 76 -7 c42 -4 95 -13 118 -22z"/>
<path d="M16625 5893 c-57 -7 -76 -14 -72 -26 2 -7 -2 -16 -10 -22 -11 -8 -9
-18 9 -54 20 -41 21 -56 19 -245 -1 -110 -2 -241 -4 -290 l-2 -89 28 -10 c16
-5 30 -7 33 -4 10 10 23 171 24 285 l0 52 75 0 c87 0 145 19 193 64 47 43 65
82 59 123 -6 37 -73 153 -88 153 -6 0 -25 11 -42 23 -49 36 -133 51 -222 40z
m165 -98 c56 -10 94 -35 110 -74 10 -26 10 -35 -7 -63 -32 -57 -155 -102 -215
-79 -26 10 -28 15 -28 68 -1 32 -5 77 -9 100 -5 23 -4 46 1 51 10 10 82 9 148
-3z"/>
<path d="M9716 5869 c-16 -23 -16 -25 7 -45 17 -15 40 -21 77 -23 29 -1 57 -4
63 -8 6 -4 20 -8 31 -9 12 -1 41 -7 65 -12 46 -10 96 -2 96 15 0 6 3 15 8 19
15 15 6 22 -50 38 -32 10 -67 21 -79 26 -12 4 -62 11 -111 15 -87 7 -91 7
-107 -16z"/>
<path d="M18382 5799 c-29 -5 -67 -16 -85 -25 -32 -17 -87 -71 -87 -85 0 -5
-7 -6 -15 -2 -9 3 -24 -2 -33 -10 -14 -13 -17 -33 -16 -114 2 -182 22 -244 73
-228 25 8 28 22 35 140 2 50 10 106 16 125 24 71 136 126 253 122 46 -2 48 14
8 57 -32 34 -50 36 -149 20z"/>
<path d="M11368 5745 c-27 -20 -51 -47 -54 -60 -8 -30 -11 -31 -33 -4 -15 18
-21 20 -39 10 -23 -12 -28 -30 -14 -46 5 -6 15 -59 22 -120 16 -140 22 -155
58 -155 l29 0 6 83 c8 122 31 182 84 218 29 20 58 31 88 33 24 1 48 5 51 9 13
13 -38 56 -65 56 -14 0 -40 3 -56 6 -25 5 -39 0 -77 -30z"/>
<path d="M3783 5758 c-36 -17 -28 -31 30 -56 l28 -12 -3 37 c-3 41 -18 49 -55
31z"/>
<path d="M9181 5744 c-85 -44 -126 -122 -100 -191 7 -19 7 -29 0 -31 -16 -5
-13 -32 3 -32 8 0 25 -12 38 -28 40 -47 118 -101 172 -118 51 -16 51 -16 133
15 44 18 87 38 93 46 7 8 18 15 25 15 22 0 5 40 -19 46 -13 3 -59 -4 -103 -15
-45 -12 -91 -21 -104 -21 -21 0 -109 49 -109 61 0 4 14 9 31 13 17 3 43 15 59
26 15 11 35 20 43 20 21 0 34 20 48 72 11 40 10 49 -4 72 -37 55 -144 81 -206
50z m129 -82 l23 -19 -21 -19 c-22 -20 -113 -54 -145 -54 -28 0 -20 41 15 77
37 39 91 45 128 15z"/>
<path d="M4797 5699 c-45 -11 -159 -76 -202 -117 -67 -62 -82 -118 -45 -164
23 -30 97 -53 146 -45 43 7 102 57 130 110 12 22 23 36 26 31 8 -12 72 -189
87 -239 33 -108 28 -234 -11 -291 -21 -31 -86 -78 -141 -101 -41 -18 -139 -16
-188 3 -37 15 -42 15 -57 1 -58 -58 165 -142 251 -95 12 7 28 13 35 14 20 4
95 51 129 83 18 17 39 45 47 64 32 77 37 215 10 290 -9 23 -17 49 -19 57 -7
29 -64 199 -73 217 -10 19 -31 96 -41 153 -7 39 -21 44 -84 29z m-12 -136
c-10 -65 -45 -109 -96 -117 -42 -7 -79 6 -79 27 0 19 57 69 119 103 31 18 58
32 60 33 2 0 0 -20 -4 -46z"/>
<path d="M7571 5688 c-6 -13 -13 -66 -14 -118 -2 -78 1 -100 17 -122 17 -27
67 -48 112 -48 30 0 69 43 99 108 16 35 29 52 35 46 9 -9 50 -128 50 -146 0
-5 9 -31 21 -58 22 -50 62 -79 95 -66 14 5 13 9 -4 31 -11 13 -32 64 -46 112
-55 181 -61 199 -81 230 -11 18 -25 32 -31 33 -12 0 -44 -32 -44 -44 0 -4 -8
-26 -19 -49 -10 -23 -28 -64 -40 -91 -19 -45 -23 -48 -48 -41 -16 3 -32 10
-36 14 -5 5 -10 50 -11 102 -2 52 -7 102 -11 112 -10 24 -29 21 -44 -5z"/>
<path d="M2557 5676 c-46 -28 -101 -87 -118 -125 -7 -15 -28 -36 -48 -47 -42
-23 -50 -45 -20 -59 12 -6 26 -18 31 -27 4 -10 12 -26 17 -35 4 -10 35 -34 67
-53 55 -33 64 -35 146 -35 81 0 89 2 130 32 51 37 56 59 13 56 -16 -2 -77 -3
-133 -4 -89 -1 -108 1 -130 18 -15 11 -28 27 -30 35 -3 17 38 38 77 38 35 0
91 18 112 36 8 8 23 14 32 14 26 0 48 52 38 87 -15 51 -29 70 -62 82 -48 16
-80 13 -122 -13z m123 -76 c0 -19 -19 -30 -50 -30 -10 0 -37 -9 -61 -20 -65
-29 -90 -23 -54 14 8 8 15 19 15 25 0 6 4 11 8 11 5 0 17 9 29 19 11 11 31 21
44 23 30 5 69 -19 69 -42z"/>
<path d="M4191 5689 c-14 -5 -43 -26 -66 -47 -23 -20 -53 -47 -67 -59 -26 -21
-26 -21 -13 -85 7 -34 13 -76 13 -93 0 -16 0 -38 1 -47 1 -23 49 -54 62 -41 5
5 11 52 14 104 4 108 21 158 65 189 29 21 32 21 56 5 45 -29 86 -159 77 -243
-4 -34 -1 -46 13 -57 25 -19 31 -18 44 5 17 31 22 97 11 133 -5 18 -15 52 -22
76 -33 112 -121 187 -188 160z"/>
<path d="M2197 5676 c-20 -6 -50 -23 -65 -37 -16 -16 -39 -26 -56 -26 -42 0
-48 -13 -32 -69 8 -27 16 -84 18 -128 4 -69 7 -80 29 -97 48 -37 59 -21 52 82
-5 84 14 145 52 174 41 30 90 53 131 61 40 7 43 16 12 32 -35 16 -99 20 -141
8z"/>
<path d="M6310 5661 c-36 -15 -84 -39 -106 -53 -40 -26 -110 -102 -133 -145
-14 -27 -15 -98 -1 -123 13 -24 76 -60 105 -60 56 0 156 55 213 116 17 19 36
33 40 30 4 -3 21 -30 36 -61 30 -57 49 -75 85 -75 16 0 21 6 21 25 0 14 -5 25
-10 25 -6 0 -13 8 -17 18 -3 9 -14 28 -23 42 -17 26 -73 181 -85 235 -14 63
-30 66 -125 26z m60 -124 c0 -65 -30 -111 -88 -137 -22 -10 -42 -24 -44 -30
-2 -8 -23 -13 -48 -14 -44 -1 -45 0 -48 32 -5 50 30 96 116 152 100 66 112 66
112 -3z"/>
<path d="M6706 5651 c-21 -21 -51 -42 -67 -45 -32 -6 -35 -21 -19 -93 5 -23
11 -63 12 -89 2 -37 8 -50 27 -62 22 -15 24 -14 37 3 9 11 14 45 14 84 0 48 5
75 20 98 27 45 63 67 88 54 31 -16 66 -119 76 -221 6 -56 25 -84 56 -78 39 8
-3 251 -51 294 -10 9 -19 23 -19 29 0 23 -67 65 -102 65 -26 0 -43 -9 -72 -39z"/>
<path d="M8285 5679 c-35 -11 -107 -52 -162 -94 -39 -29 -57 -59 -82 -137 -16
-48 5 -91 57 -116 60 -30 105 -15 169 55 29 32 53 63 53 69 0 10 30 29 35 22
24 -37 119 -160 127 -164 6 -4 26 -10 44 -14 27 -6 36 -4 44 9 7 12 -1 26 -38
63 -57 56 -112 122 -112 134 0 5 -11 21 -25 36 -32 35 -48 75 -46 116 2 35 -8
38 -64 21z m25 -82 c0 -2 -13 -31 -30 -64 -47 -97 -130 -167 -162 -135 -22 22
19 99 70 135 73 50 122 76 122 64z"/>
<path d="M8795 5681 c-3 -5 -27 -17 -53 -25 -89 -30 -159 -131 -133 -193 26
-64 51 -81 126 -88 69 -6 71 -6 115 29 25 20 48 36 51 36 11 0 39 -86 55 -171
19 -96 14 -201 -11 -248 -9 -17 -35 -45 -58 -62 -36 -26 -48 -30 -81 -25 -60
10 -158 66 -170 99 -17 44 -56 28 -56 -24 0 -50 37 -81 170 -145 19 -9 55 -19
80 -21 40 -4 52 0 99 34 38 26 63 54 80 88 24 45 26 60 25 167 -1 64 -7 138
-14 165 -54 208 -71 262 -92 301 -10 18 -18 43 -18 56 0 16 -7 26 -22 30 -35
9 -86 7 -93 -3z m84 -94 c-9 -7 -18 -32 -22 -57 -7 -52 -31 -76 -85 -86 -43
-8 -86 12 -90 42 -4 27 76 101 114 107 16 2 45 5 64 5 29 1 32 -1 19 -11z"/>
<path d="M9801 5670 c-63 -7 -91 -24 -91 -57 0 -27 41 -33 201 -31 120 2 163
6 167 16 2 7 -12 28 -31 47 -34 34 -37 35 -108 34 -41 -1 -103 -5 -138 -9z"/>
<path d="M3000 5657 c-66 -30 -99 -67 -122 -138 -22 -69 -22 -70 -3 -124 13
-38 32 -68 60 -94 41 -38 54 -42 167 -56 37 -5 213 58 213 76 0 11 -23 13
-126 10 -110 -3 -131 -1 -172 17 -31 14 -51 30 -57 47 -17 45 -13 55 23 55 47
1 166 35 196 58 60 44 64 108 8 142 -37 23 -144 27 -187 7z m157 -73 c3 -9
-149 -54 -180 -54 -17 0 36 46 66 57 38 14 109 12 114 -3z"/>
<path d="M7250 5604 c-95 -50 -140 -94 -176 -172 -27 -60 -31 -120 -10 -161
12 -23 26 -30 74 -41 56 -11 61 -11 108 14 61 32 89 56 98 83 8 24 34 49 42
40 3 -3 14 -43 25 -89 20 -91 25 -213 9 -268 -18 -64 -127 -150 -190 -150 -23
0 -96 34 -122 58 -11 9 -18 29 -18 49 0 48 -31 41 -47 -10 -16 -47 -2 -80 53
-125 56 -46 121 -65 183 -51 28 6 51 14 51 19 0 5 10 12 23 15 12 4 34 20 48
36 105 111 126 227 79 434 -48 211 -70 260 -110 250 -32 -8 -35 -15 -50 -89
-22 -111 -61 -156 -136 -156 -58 0 -71 23 -53 88 17 61 75 117 167 161 62 30
72 38 72 61 0 24 -16 51 -29 49 -4 0 -44 -20 -91 -45z"/>
<path d="M3816 5617 c-17 -12 -19 -29 -17 -146 0 -73 3 -136 6 -141 3 -4 14
-10 25 -13 40 -10 52 60 39 219 -9 96 -16 108 -53 81z"/>
<path d="M14052 3970 c-12 -11 -22 -27 -22 -35 0 -17 -48 -112 -60 -120 -6 -3
-10 -10 -10 -14 0 -12 57 -34 73 -28 8 3 30 38 50 79 30 60 35 79 29 103 -10
37 -31 42 -60 15z"/>
<path d="M14747 3970 c-21 -25 -12 -48 42 -101 20 -19 63 -66 96 -102 33 -37
86 -87 118 -110 32 -23 76 -68 98 -99 22 -32 45 -58 51 -58 6 0 -20 -24 -57
-52 -87 -69 -231 -202 -273 -253 -32 -40 -32 -40 -12 -57 28 -23 52 -13 105
43 25 27 50 49 54 49 4 0 38 29 76 65 37 36 72 65 77 65 5 0 27 16 48 36 37
36 38 38 38 110 l1 73 -72 64 c-65 59 -145 139 -283 284 -58 61 -83 71 -107
43z"/>
<path d="M23626 3969 c-25 -30 -15 -48 86 -154 138 -146 170 -178 240 -240
l68 -61 -117 -109 c-64 -61 -146 -137 -182 -169 -78 -71 -88 -89 -61 -116 11
-11 26 -20 33 -20 6 0 46 32 87 71 41 39 87 78 103 87 15 9 27 20 27 24 0 10
146 154 163 161 16 6 42 81 33 96 -4 6 -16 11 -28 11 -14 0 -18 5 -14 15 3 8
-3 20 -12 27 -16 12 -62 60 -305 316 -43 45 -83 82 -90 82 -7 0 -21 -10 -31
-21z"/>
<path d="M13765 3956 c-16 -12 -17 -19 -8 -67 6 -29 12 -110 13 -179 3 -200 6
-222 36 -248 34 -30 49 -24 48 19 -1 19 -5 104 -8 189 -7 198 -11 239 -24 273
-13 30 -29 34 -57 13z"/>
<path d="M19217 3944 c-88 -17 -109 -40 -99 -104 7 -47 8 -94 3 -170 -2 -25
-3 -97 -3 -160 1 -139 -3 -187 -18 -205 -6 -8 -10 -26 -8 -42 2 -22 13 -32 52
-51 102 -48 316 -78 416 -59 41 8 122 59 128 79 4 18 5 18 26 -1 21 -20 96
-56 149 -72 35 -10 140 15 180 43 32 23 55 62 77 133 14 44 15 54 2 85 -18 45
-58 88 -102 108 -54 24 -205 22 -250 -4 -51 -30 -80 -78 -80 -132 l0 -46 -76
82 c-69 74 -106 103 -210 167 l-33 21 88 12 c116 16 173 46 190 102 16 54 8
76 -53 135 -91 88 -209 113 -379 79z m213 -71 c72 -12 150 -68 150 -109 0 -16
-10 -27 -32 -38 -43 -19 -207 -39 -281 -35 l-59 4 -4 83 -5 82 28 0 c15 1 53
7 83 15 30 7 62 11 70 8 8 -2 31 -7 50 -10z m-105 -330 c102 -43 119 -53 160
-90 22 -19 50 -42 62 -50 12 -8 25 -22 28 -31 2 -10 15 -22 27 -27 16 -7 24
-20 26 -41 3 -29 -1 -33 -40 -49 -83 -34 -225 -30 -361 10 -42 12 -55 20 -49
28 10 13 28 213 23 260 -2 28 -1 29 31 23 18 -4 60 -18 93 -33z m697 -100 c53
-51 31 -143 -44 -180 -55 -28 -151 -31 -186 -7 l-22 15 28 25 27 24 -22 18
c-12 11 -23 33 -25 53 -3 31 0 36 42 57 32 16 62 22 109 22 57 0 68 -3 93 -27z"/>
<path d="M9987 3932 c-22 -24 -22 -23 13 -79 17 -26 30 -53 30 -61 0 -36 98
-142 132 -142 15 0 -2 75 -19 90 -10 8 -36 52 -58 97 -22 45 -46 82 -52 82 -7
1 -13 8 -13 16 0 20 -13 19 -33 -3z"/>
<path d="M16524 3914 c-4 -14 -2 -42 4 -62 12 -38 20 -106 27 -205 3 -52 2
-58 -13 -52 -46 19 -412 43 -507 33 -38 -4 -118 -10 -177 -13 -126 -6 -155
-15 -168 -51 -16 -42 11 -65 69 -60 180 18 390 27 466 21 50 -4 126 -9 170
-11 44 -1 101 -6 127 -9 44 -6 47 -8 52 -43 4 -21 0 -61 -9 -92 -8 -30 -15
-68 -15 -85 1 -30 29 -75 49 -75 5 0 14 -7 19 -16 7 -13 13 -14 31 -5 11 7 21
20 21 29 0 10 23 40 51 67 28 28 63 62 78 78 41 41 159 115 216 133 78 26 97
42 93 78 -3 26 -8 31 -38 37 -20 4 -46 21 -62 38 -15 17 -36 31 -45 31 -26 0
-74 32 -129 84 -26 25 -52 46 -57 46 -5 0 -53 29 -106 65 -108 72 -137 79
-147 39z"/>
<path d="M10155 3906 c-19 -13 -19 -16 -2 -68 23 -75 76 -170 98 -175 10 -3
20 -11 23 -19 3 -8 12 -14 21 -14 21 0 19 37 -5 80 -25 46 -43 83 -74 153 -28
61 -32 64 -61 43z"/>
<path d="M14220 3913 c-18 -7 -60 -51 -60 -62 0 -5 -11 -29 -25 -52 -34 -60
-33 -94 4 -113 30 -16 32 -15 60 57 4 12 21 47 36 78 35 71 29 108 -15 92z"/>
<path d="M17840 3883 c-19 -13 -44 -33 -55 -43 -11 -11 -36 -26 -55 -34 -19
-8 -86 -49 -149 -90 -70 -47 -131 -80 -159 -87 -68 -15 -132 -56 -132 -84 0
-13 55 -47 72 -44 26 4 65 -20 113 -72 28 -29 98 -102 156 -161 114 -117 135
-126 137 -60 2 36 -4 44 -109 142 -61 58 -124 123 -139 145 l-28 40 24 18 c12
9 27 17 32 17 5 0 17 9 27 20 10 11 22 20 28 20 5 0 29 14 54 30 24 17 49 30
54 30 6 0 44 27 84 60 40 33 83 60 94 60 31 0 40 26 23 76 -8 24 -19 44 -26
43 -6 0 -27 -12 -46 -26z"/>
<path d="M22178 3878 c-14 -11 -15 -21 -8 -63 5 -27 9 -93 10 -145 0 -52 4
-101 9 -108 5 -8 21 -12 37 -10 33 3 30 -8 34 170 2 116 -10 161 -45 166 -11
1 -28 -3 -37 -10z"/>
<path d="M10513 3866 c-58 -26 -49 -86 13 -86 l27 0 -21 -23 c-20 -22 -21 -31
-21 -256 0 -204 -2 -236 -17 -252 -15 -17 -15 -20 0 -43 9 -14 16 -32 16 -39
0 -8 9 -22 21 -33 17 -15 23 -16 40 -6 16 10 27 8 66 -13 28 -16 76 -31 123
-37 72 -11 80 -10 121 11 24 13 59 37 77 54 28 27 32 37 32 82 0 88 -26 121
-165 212 -38 25 -72 47 -74 49 -5 4 52 53 63 54 4 0 24 17 42 37 19 20 34 37
35 37 0 1 3 28 5 61 5 61 -7 115 -25 115 -6 0 -21 10 -35 23 -51 47 -260 82
-323 53z m197 -91 c59 -8 124 -45 128 -73 5 -35 -92 -152 -126 -152 -10 0 -27
-7 -38 -15 -10 -8 -31 -15 -46 -15 -15 0 -32 -8 -38 -17 -9 -14 -10 -5 -7 42
5 66 -5 200 -17 227 -6 13 -1 17 26 20 18 2 42 0 53 -4 11 -4 40 -10 65 -13z
m-36 -348 c27 -6 77 -28 110 -49 34 -21 72 -43 86 -48 34 -14 62 -64 51 -93
-30 -78 -172 -100 -279 -44 -63 33 -65 41 -53 246 1 9 7 11 19 6 9 -4 39 -12
66 -18z"/>
<path d="M22785 3861 c-17 -10 -43 -33 -58 -52 -39 -48 -38 -47 -116 -122 -39
-37 -82 -72 -95 -77 -13 -5 -33 -22 -44 -38 l-21 -29 22 -20 c12 -12 33 -24
47 -28 14 -4 58 -33 99 -64 105 -80 156 -111 206 -126 37 -12 45 -12 56 1 10
12 2 23 -40 64 -29 28 -69 59 -89 70 -20 10 -61 41 -90 67 l-54 48 41 30 c22
17 41 33 41 37 0 3 23 29 50 58 28 29 50 57 50 64 0 7 11 18 23 23 33 15 63
79 47 99 -17 19 -39 18 -75 -5z"/>
<path d="M18470 3835 c0 -8 -4 -15 -10 -15 -20 0 -9 -31 26 -77 19 -27 41 -53
47 -58 7 -6 52 -52 102 -103 l89 -93 -26 -22 c-27 -23 -110 -121 -163 -192
-16 -22 -37 -46 -47 -53 -10 -7 -25 -27 -34 -44 -15 -29 -15 -32 4 -51 43 -43
108 1 184 125 10 15 64 75 121 132 57 57 107 115 110 128 9 36 -19 60 -58 49
-26 -6 -35 -2 -70 28 -59 54 -94 89 -155 160 -70 82 -91 101 -107 101 -7 0
-13 -7 -13 -15z"/>
<path d="M5744 3792 c-20 -16 -21 -22 -13 -87 11 -94 32 -505 29 -580 -2 -33
-2 -70 -1 -81 1 -27 33 -36 60 -18 18 13 19 23 15 176 -2 90 -6 197 -9 238 -2
41 -7 131 -11 199 -8 169 -20 195 -70 153z"/>
<path d="M11982 3784 c-25 -17 -29 -34 -7 -34 8 0 15 -4 15 -9 0 -18 32 -41
56 -41 30 0 31 17 2 60 -28 41 -37 44 -66 24z"/>
<path d="M23267 3772 c-17 -18 -17 -20 1 -42 17 -22 60 -33 164 -45 55 -7 129
-47 171 -94 45 -50 48 -84 10 -100 -69 -27 -186 -39 -239 -25 -18 5 -22 16
-28 76 -7 80 -17 104 -47 113 -28 9 -51 -21 -43 -55 18 -70 18 -397 1 -553
-11 -96 -11 -109 3 -122 22 -19 34 -19 52 3 22 24 34 124 40 344 2 48 8 92 14
98 8 8 22 9 45 2 19 -5 47 -5 64 0 17 4 40 6 52 3 12 -3 25 -1 28 5 3 5 14 10
23 10 9 0 35 7 58 16 77 29 107 124 64 202 -13 23 -27 42 -31 42 -4 0 -22 14
-40 31 -74 69 -164 103 -284 108 -49 2 -64 -1 -78 -17z"/>
<path d="M14724 3758 c-11 -13 -51 -68 -89 -123 -37 -55 -82 -118 -100 -141
-42 -51 -75 -110 -75 -132 0 -23 19 -42 42 -42 17 0 88 83 88 103 0 5 9 19 21
31 83 85 173 242 167 292 -4 36 -28 42 -54 12z"/>
<path d="M23173 3769 c-12 -4 -39 -33 -60 -64 -21 -31 -59 -86 -85 -121 -27
-36 -48 -68 -48 -71 0 -4 -20 -33 -45 -64 -25 -32 -45 -67 -45 -78 0 -24 34
-45 54 -34 18 11 66 69 66 80 0 5 16 25 36 44 22 22 33 40 30 52 -2 10 2 21 9
23 19 8 88 102 102 139 18 46 25 93 16 98 -4 3 -18 1 -30 -4z"/>
<path d="M20579 3742 c-1 -4 -1 -10 0 -14 0 -5 -3 -8 -9 -8 -14 0 -13 -33 2
-48 15 -15 58 -15 79 1 15 11 15 15 -5 38 -20 25 -65 45 -67 31z"/>
<path d="M18024 3629 c-34 -17 -46 -53 -29 -86 21 -43 22 -188 1 -237 -15 -37
-15 -40 1 -58 20 -22 22 -46 11 -168 -14 -160 -17 -182 -23 -211 -8 -37 21
-71 53 -62 24 6 30 21 36 103 2 30 9 93 14 140 6 47 9 100 8 118 -3 33 4 38
33 23 23 -13 149 3 193 24 48 23 78 72 80 128 1 61 -40 145 -93 190 -86 74
-231 123 -285 96z m192 -130 c61 -25 96 -65 101 -113 6 -50 -18 -76 -90 -100
-39 -13 -57 -14 -88 -6 -38 11 -49 23 -29 35 6 4 5 14 -4 28 -18 27 -20 168
-3 179 14 9 61 0 113 -23z"/>
<path d="M9720 3610 c-25 -4 -58 -12 -73 -18 -16 -7 -39 -12 -52 -12 -36 0
-69 -32 -60 -59 7 -23 9 -23 88 -16 44 4 98 14 120 22 32 13 45 14 79 4 33
-10 42 -10 49 1 15 24 10 46 -17 67 -28 22 -54 24 -134 11z"/>
<path d="M13525 3598 c-63 -21 -93 -39 -132 -81 -22 -24 -45 -52 -50 -62 -9
-16 -13 -17 -27 -6 -23 19 -46 -3 -46 -42 0 -32 37 -178 48 -188 4 -4 17 -10
28 -13 18 -5 24 -1 33 25 6 18 11 51 11 75 0 66 34 145 74 170 32 21 156 64
182 64 7 0 25 5 41 11 l27 10 -29 18 c-36 22 -119 32 -160 19z"/>
<path d="M21582 3598 c-7 -7 -12 -19 -12 -27 0 -9 -7 -25 -15 -35 -8 -11 -15
-28 -15 -38 0 -19 -33 -83 -58 -110 -20 -24 -68 -23 -81 1 -6 11 -8 51 -4 98
5 64 3 81 -10 91 -12 10 -21 11 -36 2 -19 -9 -22 -15 -21 -35 0 -3 -6 -18 -14
-33 -30 -59 -3 -158 53 -200 40 -30 100 -31 139 -4 30 22 82 102 82 128 0 28
18 13 24 -20 9 -46 54 -157 73 -178 21 -23 63 -24 63 -2 0 10 -13 53 -29 98
-16 45 -39 119 -51 166 -27 101 -55 131 -88 98z"/>
<path d="M21918 3573 c-20 -16 -49 -49 -63 -76 -18 -31 -32 -47 -43 -45 -10 2
-17 -4 -17 -12 0 -8 -6 -19 -13 -23 -8 -6 -10 -13 -4 -20 12 -16 32 -98 32
-134 0 -17 10 -38 26 -52 39 -38 54 -14 66 106 5 54 14 100 19 101 5 2 9 8 9
13 0 5 14 25 32 44 26 29 38 35 72 35 58 0 86 10 86 29 0 20 -65 50 -123 57
-35 4 -48 0 -79 -23z"/>
<path d="M3530 3575 c-11 -13 -10 -26 4 -73 9 -31 18 -70 21 -87 2 -16 7 -47
11 -67 l6 -38 -39 0 c-108 0 -163 -53 -87 -85 20 -8 61 -15 90 -15 l55 0 -6
-112 c-3 -67 -10 -115 -17 -119 -6 -4 -54 -15 -107 -24 -189 -34 -380 8 -389
86 -3 25 -1 26 67 33 80 7 171 43 194 76 18 26 14 80 -9 115 -21 33 -99 75
-138 75 -53 0 -114 -47 -149 -115 -78 -150 -77 -219 5 -291 18 -16 53 -37 78
-48 25 -10 59 -24 75 -32 50 -21 171 0 356 62 11 4 16 -1 15 -18 -1 -18 5 -24
26 -26 48 -6 68 63 70 242 1 109 -12 97 115 116 46 8 77 18 88 31 17 18 16 19
-11 30 -16 6 -60 13 -99 16 -100 6 -115 10 -115 33 0 26 -17 98 -42 183 -21
70 -41 85 -68 52z m-276 -341 c24 -23 19 -43 -11 -49 -16 -3 -44 -10 -63 -15
-62 -16 -87 -20 -93 -14 -3 3 8 25 25 50 28 42 32 44 78 44 31 0 54 -6 64 -16z"/>
<path d="M13096 3565 c-8 -12 -18 -46 -22 -74 -13 -99 -85 -201 -132 -187 -30
10 -53 67 -51 129 2 61 -4 77 -31 77 -41 0 -53 -90 -24 -177 19 -56 44 -86 86
-104 25 -10 35 -10 61 6 44 24 105 91 109 118 4 28 30 29 38 2 16 -60 82 -145
112 -145 20 0 19 34 -4 83 -41 86 -56 130 -62 174 -7 50 -34 110 -52 117 -7 3
-19 -6 -28 -19z"/>
<path d="M1080 3573 c-8 -4 -49 -34 -90 -67 -41 -34 -122 -97 -180 -140 -99
-75 -149 -121 -150 -139 0 -4 11 -12 24 -18 13 -6 26 -19 29 -28 2 -9 30 -30
63 -47 32 -16 64 -35 72 -41 7 -7 19 -13 26 -13 7 0 21 -9 32 -21 10 -12 37
-30 59 -41 22 -12 73 -43 112 -70 43 -30 79 -48 88 -44 21 8 19 16 -14 67 -29
43 -49 58 -281 209 -36 23 -64 44 -63 47 1 2 34 29 72 60 39 30 71 59 71 64 0
5 6 9 14 9 7 0 48 33 91 73 42 39 83 76 91 80 12 7 12 12 -1 37 -15 29 -33 35
-65 23z"/>
<path d="M1510 3566 c-176 -49 -260 -176 -260 -392 0 -85 17 -121 91 -192 105
-100 170 -126 316 -126 77 -1 96 2 119 20 45 33 68 162 50 282 -12 78 -21 82
-206 82 -85 0 -185 3 -222 6 l-67 7 6 31 c9 47 30 83 71 122 48 46 84 61 174
74 86 13 158 31 158 41 0 4 -14 19 -31 33 -26 22 -40 26 -92 25 -34 0 -82 -6
-107 -13z m30 -421 c80 -2 161 -7 180 -10 l35 -6 -3 -80 c-3 -77 -4 -80 -34
-95 -35 -18 -118 -20 -179 -4 -49 13 -163 95 -190 137 -11 15 -19 39 -19 52 0
21 3 23 33 16 17 -4 97 -8 177 -10z"/>
<path d="M20305 3540 c-22 -16 -47 -29 -56 -30 -29 0 -41 -46 -24 -96 8 -25
15 -60 15 -78 0 -37 25 -66 58 -66 24 0 24 -1 26 90 2 71 19 108 54 116 42 11
77 -55 84 -161 5 -63 12 -75 47 -75 25 0 29 4 33 33 6 50 -25 193 -48 224 -31
41 -83 73 -118 72 -17 0 -49 -13 -71 -29z"/>
<path d="M9106 3553 c-37 -10 -94 -52 -115 -86 -16 -26 -20 -47 -18 -94 2 -55
6 -64 37 -93 70 -65 239 -135 302 -125 40 7 61 26 77 68 12 31 5 33 -35 12
-16 -8 -38 -15 -49 -15 -23 0 -185 78 -185 89 0 4 23 18 52 32 84 39 128 75
128 105 0 80 -95 132 -194 107z m94 -108 c-16 -19 -93 -54 -128 -57 -22 -2
-26 1 -24 17 5 31 60 74 101 77 45 4 70 -14 51 -37z"/>
<path d="M20952 3546 c-23 -8 -56 -29 -73 -48 -27 -29 -30 -39 -26 -82 6 -63
34 -91 86 -82 68 11 88 58 30 71 -36 8 -36 18 -1 45 24 19 35 21 91 16 73 -6
106 -29 113 -77 8 -55 -53 -119 -115 -119 -13 0 -41 11 -62 25 -20 15 -39 24
-41 22 -2 -2 4 -22 14 -45 15 -37 22 -42 73 -56 86 -25 98 -22 155 37 79 81
82 152 9 223 -72 69 -170 97 -253 70z"/>
<path d="M12405 3530 c-76 -13 -143 -68 -147 -119 -4 -75 14 -113 67 -138 20
-10 38 -28 44 -44 7 -19 26 -36 61 -54 57 -29 94 -28 176 2 39 14 43 19 63 82
12 36 21 74 21 83 0 41 -58 128 -86 128 -6 0 -17 7 -24 15 -7 8 -26 19 -44 24
-17 5 -44 13 -61 18 -16 5 -48 6 -70 3z m153 -95 c70 -42 81 -114 26 -175 -31
-34 -42 -40 -78 -40 -54 0 -100 29 -126 80 -11 22 -24 40 -29 40 -5 0 -11 9
-14 21 -15 58 45 100 135 95 31 -2 70 -12 86 -21z"/>
<path d="M20653 3504 c-15 -23 -15 -33 -4 -87 7 -34 16 -66 21 -72 12 -16 43
-212 37 -230 -4 -9 -23 -23 -42 -31 -48 -20 -100 -5 -145 41 -33 34 -60 45
-60 26 0 -6 5 -13 10 -16 6 -4 8 -11 5 -16 -10 -16 28 -68 70 -97 34 -23 50
-27 109 -27 67 0 68 1 102 40 l34 40 -5 97 c-3 71 -12 121 -35 189 -16 50 -30
104 -30 118 0 53 -39 67 -67 25z"/>
<path d="M11654 3495 c-22 -15 -51 -45 -64 -66 -22 -35 -26 -37 -41 -23 -16
14 -19 14 -38 -5 -20 -20 -20 -20 0 -73 10 -29 22 -75 26 -103 6 -47 24 -74
49 -75 16 0 25 34 30 110 8 123 48 180 126 180 53 0 97 -91 98 -200 0 -65 3
-78 22 -94 21 -18 22 -18 36 0 10 14 13 42 10 115 -4 81 -9 103 -33 146 -41
76 -73 103 -131 109 -42 5 -55 2 -90 -21z"/>
<path d="M12049 3499 c-9 -17 -7 -39 9 -103 37 -146 39 -159 30 -245 -10 -93
-26 -133 -63 -157 -34 -22 -93 -34 -120 -24 -30 11 -105 87 -105 106 0 8 -7
14 -15 14 -23 0 -18 -29 17 -99 30 -57 39 -67 86 -88 29 -12 61 -23 71 -23 40
0 112 33 140 66 52 58 83 209 63 301 -6 26 -19 84 -28 128 -29 137 -56 177
-85 124z"/>
<path d="M8740 3501 c-59 -18 -180 -85 -185 -102 -4 -11 -10 -19 -15 -19 -14
0 -53 -74 -52 -99 4 -55 63 -101 149 -116 59 -9 74 0 153 98 l18 22 15 -37
c35 -84 78 -272 79 -347 2 -107 -24 -152 -106 -186 -66 -28 -175 -3 -210 47
-20 28 -20 95 -1 128 18 31 18 40 4 40 -32 0 -81 -87 -81 -145 -2 -68 26 -104
113 -147 72 -36 76 -36 137 -27 83 12 136 48 175 118 27 47 32 68 35 144 3 49
0 105 -6 125 -6 21 -16 64 -22 97 -13 63 -35 146 -49 180 -61 146 -66 155 -90
155 -13 0 -16 8 -13 40 4 43 0 45 -48 31z m40 -80 c0 -6 -4 -12 -9 -15 -4 -3
-19 -33 -31 -67 -25 -66 -45 -84 -103 -94 -102 -19 -82 88 28 141 17 8 41 21
55 29 28 17 60 20 60 6z"/>
<path d="M11195 3491 c-39 -18 -67 -44 -101 -96 -14 -21 -16 -40 -11 -107 9
-106 28 -140 88 -152 51 -10 159 9 159 28 0 6 14 17 30 23 22 8 37 26 55 65
49 104 21 188 -77 239 -46 23 -91 23 -143 0z m164 -92 c18 -17 22 -29 18 -55
-11 -69 -79 -126 -167 -140 -42 -7 -44 -6 -31 10 12 15 11 21 -7 46 -39 52
-22 108 42 140 55 27 115 26 145 -1z"/>
<path d="M3954 3487 c-29 -16 -34 -30 -18 -48 20 -23 64 -30 71 -13 8 20 -5
61 -20 67 -7 3 -22 0 -33 -6z"/>
<path d="M8200 3476 c-49 -17 -108 -56 -155 -102 -32 -32 -43 -51 -54 -102
-16 -75 -7 -106 44 -139 40 -26 93 -30 134 -9 33 18 86 76 96 105 10 33 28 25
55 -25 32 -60 127 -139 146 -123 22 18 17 32 -26 80 -22 24 -54 71 -71 104
-50 94 -68 116 -92 113 -15 -2 -26 -16 -35 -43 -30 -87 -47 -118 -77 -141 -40
-30 -57 -30 -90 -1 -23 19 -26 27 -20 59 4 20 19 47 33 61 30 28 154 97 176
97 8 0 13 14 14 40 2 35 -1 40 -21 40 -12 -1 -38 -7 -57 -14z"/>
<path d="M6200 3442 c-153 -78 -216 -147 -235 -259 -16 -98 95 -173 192 -131
51 22 101 68 123 113 12 25 23 45 25 45 2 0 16 -27 32 -60 15 -33 35 -63 45
-66 10 -3 22 -13 28 -23 12 -23 49 -34 56 -17 2 6 -17 57 -44 111 -27 55 -59
128 -71 162 -13 34 -31 69 -42 79 -10 9 -19 28 -19 41 0 19 -5 23 -27 23 -16
-1 -44 -9 -63 -18z m48 -144 c-12 -99 -23 -131 -57 -155 -33 -25 -102 -46
-125 -37 -37 14 -32 74 12 138 30 43 136 120 173 125 3 1 2 -32 -3 -71z"/>
<path d="M6654 3450 c-27 -11 -82 -74 -89 -103 -3 -12 -19 -29 -34 -38 -33
-19 -45 -63 -26 -93 7 -12 15 -47 18 -80 7 -67 4 -62 38 -71 24 -6 26 -3 37
45 7 28 12 67 12 85 0 93 34 163 87 179 41 13 84 -84 98 -219 6 -62 25 -95 55
-95 42 0 24 181 -29 296 -41 89 -99 122 -167 94z"/>
<path d="M7541 3443 c-25 -22 -43 -105 -30 -140 5 -14 9 -35 9 -49 0 -15 16
-42 41 -69 38 -41 46 -45 89 -45 51 0 58 6 122 118 l25 43 12 -48 c22 -92 52
-160 75 -173 29 -15 56 -10 70 13 9 14 7 21 -11 35 -23 19 -53 82 -53 116 0
11 -7 30 -15 40 -8 10 -12 23 -9 28 7 11 -35 98 -48 98 -6 0 -8 7 -5 15 4 8 1
17 -4 21 -19 11 -48 -33 -75 -114 -30 -88 -48 -117 -81 -126 -17 -6 -27 0 -47
31 -28 41 -33 91 -15 156 8 28 7 42 -2 53 -15 18 -22 18 -48 -3z"/>
<path d="M9780 3409 c-14 -6 -54 -9 -92 -6 -56 5 -69 3 -83 -13 -24 -27 -11
-57 28 -63 39 -7 204 -2 270 8 43 7 47 10 41 29 -3 11 -11 26 -18 33 -16 16
-116 25 -146 12z"/>
<path d="M7215 3401 c-27 -7 -81 -36 -95 -51 -3 -3 -17 -11 -32 -17 -34 -15
-91 -98 -83 -122 7 -24 72 -75 114 -89 19 -7 63 -12 98 -12 59 0 67 2 91 30
15 17 32 30 38 30 11 0 30 -75 41 -162 3 -21 0 -75 -6 -120 -10 -78 -13 -85
-48 -117 -77 -68 -149 -78 -239 -34 -31 15 -66 40 -79 55 -32 38 -65 38 -65 1
0 -16 6 -35 13 -43 24 -30 113 -97 137 -105 14 -4 31 -12 38 -18 17 -13 133
-2 169 17 45 23 123 96 123 115 0 10 7 31 15 48 19 39 26 179 13 252 -9 46
-37 154 -77 291 -6 19 -15 26 -39 28 -20 2 -32 9 -32 18 0 15 -42 18 -95 5z
m83 -91 c2 -22 -2 -58 -8 -80 -9 -32 -16 -41 -44 -48 -19 -6 -52 -6 -74 -2
-41 7 -92 34 -92 48 0 24 154 112 211 121 3 1 6 -17 7 -39z"/>
<path d="M4905 3338 c-98 -72 -214 -200 -215 -237 0 -29 42 -79 87 -102 80
-41 202 -25 219 29 13 40 17 46 20 37 25 -78 65 -217 69 -240 4 -16 9 -41 12
-55 11 -58 5 -149 -13 -187 -57 -116 -289 -171 -381 -90 l-35 31 -19 -25 c-10
-13 -19 -29 -19 -34 0 -19 82 -75 119 -80 20 -4 44 -10 53 -16 29 -15 72 -10
141 16 125 47 162 74 195 140 41 82 48 162 23 274 -10 47 -24 113 -30 147 -11
62 -91 317 -111 354 -6 11 -20 20 -31 20 -12 0 -28 9 -37 20 -17 19 -17 19
-47 -2z m39 -167 c-3 -100 -14 -131 -47 -131 -38 0 -93 19 -111 39 -16 17 -15
20 10 52 55 68 119 129 135 129 14 0 16 -12 13 -89z"/>
<path d="M4308 3311 c-32 -28 -48 -37 -59 -30 -18 11 -20 11 -44 -7 -16 -12
-19 -25 -17 -77 1 -34 7 -90 13 -124 10 -53 15 -63 39 -73 40 -17 50 -6 51 53
1 82 30 177 61 200 l26 20 31 -24 c39 -30 76 -107 90 -184 12 -63 31 -88 66
-83 17 3 20 10 18 53 -6 119 -68 248 -139 292 -55 33 -84 30 -136 -16z"/>
<path d="M22186 3304 c-22 -21 -20 -38 8 -70 l23 -28 26 29 c32 37 33 42 5 66
-28 23 -42 24 -62 3z"/>
<path d="M2580 3283 c-50 -35 -99 -103 -100 -138 0 -12 -13 -28 -30 -38 -42
-25 -37 -45 18 -69 26 -12 53 -29 60 -40 21 -28 76 -78 88 -78 6 0 37 -11 70
-24 86 -35 164 -43 200 -20 43 26 94 76 94 91 0 16 -3 16 -47 -2 -72 -30 -164
-15 -279 47 l-56 31 68 28 c85 36 114 63 114 105 0 50 -16 82 -52 104 -41 25
-114 26 -148 3z m110 -83 c8 -5 12 -11 10 -13 -10 -8 -109 -47 -119 -47 -18 0
-13 22 11 47 22 24 70 31 98 13z"/>
<path d="M1904 3263 c-9 -26 6 -93 28 -128 3 -6 10 -28 14 -50 4 -22 13 -49
20 -60 6 -11 15 -39 19 -62 6 -36 11 -43 36 -48 17 -4 33 -4 36 -1 3 3 7 31 9
63 8 146 63 203 218 227 46 7 73 17 80 28 6 9 7 20 4 23 -16 17 -164 17 -218
1 -66 -20 -79 -29 -114 -80 l-26 -38 -11 28 c-6 16 -19 49 -28 74 -21 55 -52
66 -67 23z"/>
<path d="M3960 3265 c-15 -18 -15 -33 -5 -155 8 -99 16 -120 44 -120 39 0 49
130 19 248 -11 45 -34 56 -58 27z"/>
<path d="M13806 3229 c-32 -25 -32 -28 0 -67 35 -41 57 -41 72 1 16 43 15 52
-4 71 -21 21 -36 20 -68 -5z"/>
<path d="M22420 3033 c0 -5 -7 -48 -16 -96 -12 -74 -20 -94 -46 -123 -45 -49
-118 -107 -137 -109 -9 -1 -43 -8 -76 -16 -47 -11 -154 -14 -490 -13 -236 0
-465 4 -507 8 -71 7 -84 5 -170 -25 -129 -44 -197 -81 -329 -177 -16 -12 -22
-10 -50 23 -38 43 -110 78 -189 93 -122 23 -531 34 -678 19 -73 -7 -278 8
-332 26 -25 8 -65 20 -90 28 -126 38 -200 117 -200 212 0 21 -26 74 -48 100
-18 21 -42 22 -42 3 0 -8 -7 -22 -16 -30 -13 -13 -14 -22 -5 -48 6 -17 11 -51
11 -75 0 -46 26 -139 41 -149 5 -3 9 -13 9 -22 0 -28 70 -86 150 -127 41 -21
82 -42 90 -46 8 -5 26 -14 40 -19 14 -6 34 -15 45 -20 30 -14 129 -22 330 -26
160 -3 233 1 420 25 28 3 111 3 187 0 151 -6 170 -13 208 -75 44 -69 70 -274
70 -533 0 -214 14 -295 51 -297 8 0 24 -4 37 -8 44 -15 51 2 66 174 7 66 6
196 -1 362 -5 125 -3 155 13 204 22 70 108 173 160 191 19 7 46 21 60 32 14
11 49 22 86 26 87 10 474 8 528 -2 25 -5 59 -6 77 -3 17 4 37 3 45 -1 22 -15
127 -10 166 7 50 22 72 25 177 28 91 2 149 17 253 68 60 30 159 122 165 156 4
15 11 50 17 77 13 58 15 76 12 127 -2 34 -5 38 -39 47 -45 13 -53 13 -53 4z"/>
<path d="M19588 1280 c-15 -9 -15 -13 -2 -39 30 -60 44 -188 44 -416 l0 -120
46 -53 c25 -29 59 -59 75 -67 53 -28 157 -18 196 18 63 57 46 155 -42 234
-130 116 -147 135 -133 148 7 6 31 17 54 23 23 7 53 23 68 37 15 14 31 25 35
25 13 0 42 80 36 99 -9 28 -81 68 -147 80 -35 7 -78 19 -96 27 -37 16 -109 18
-134 4z m235 -112 c37 -11 67 -24 67 -28 0 -12 -94 -70 -113 -70 -9 0 -19 -4
-22 -10 -9 -15 -52 -12 -58 4 -3 8 -1 16 4 18 7 2 8 21 1 56 -5 28 -7 54 -4
57 6 6 34 0 125 -27z m-35 -320 c107 -93 147 -164 104 -187 -12 -6 -42 -11
-67 -11 -40 0 -52 5 -81 34 -25 25 -34 43 -34 68 0 56 12 138 21 138 4 0 30
-19 57 -42z"/>
<path d="M21837 1272 c-13 -14 -16 -32 -12 -73 2 -30 5 -81 6 -114 2 -53 8
-80 35 -157 4 -10 12 -18 19 -18 8 0 20 -2 27 -5 18 -7 18 76 0 97 -10 12 -9
18 3 28 8 7 12 16 9 21 -3 5 -7 55 -9 111 -3 83 -8 105 -21 115 -24 18 -38 16
-57 -5z"/>
<path d="M20914 1153 c4 -64 8 -119 11 -121 2 -3 0 -13 -5 -23 -7 -11 -27 -20
-58 -25 -26 -3 -51 -10 -57 -14 -17 -13 -75 1 -76 19 -1 9 -2 36 -3 61 -4 99
-28 173 -54 168 -15 -3 -17 -19 -20 -131 l-3 -127 -44 0 c-53 0 -93 -14 -102
-36 -6 -17 8 -48 23 -50 5 0 37 -4 72 -9 l64 -8 -3 -108 c-2 -70 1 -113 8
-120 13 -13 58 -8 58 6 1 6 6 19 12 31 7 12 9 33 4 55 -10 45 -2 119 13 119 7
0 6 4 -3 9 -21 13 1 21 68 24 34 1 61 5 61 8 0 12 39 17 43 5 2 -6 0 -45 -6
-86 -8 -64 -7 -79 8 -107 10 -18 21 -33 24 -33 33 1 50 59 51 165 0 80 9 95
56 95 18 0 36 5 39 10 3 6 15 10 26 10 14 0 19 7 19 25 0 20 -5 25 -25 26 -14
1 -28 2 -32 3 -5 1 -25 5 -45 9 l-37 8 -21 97 c-26 112 -44 162 -60 162 -9 0
-10 -32 -6 -117z"/>
<path d="M20212 1034 c-57 -28 -90 -73 -113 -154 -7 -25 -21 -54 -31 -66 -19
-21 -24 -44 -9 -44 4 0 28 -17 52 -38 78 -68 128 -91 212 -98 44 -4 77 -3 77
2 0 5 15 15 33 23 17 8 45 25 61 38 23 19 31 21 37 11 7 -10 9 -8 9 5 0 10 7
25 15 33 33 33 -1 57 -44 31 -80 -47 -191 -60 -259 -31 -36 16 -37 17 -12 24
38 11 131 60 168 88 18 14 40 38 48 54 13 25 13 31 -1 58 -22 43 -86 82 -143
87 -36 3 -60 -3 -100 -23z m156 -69 c24 -8 12 -36 -25 -58 -39 -22 -128 -56
-151 -57 -26 0 -2 63 36 97 33 27 42 31 82 26 25 -2 51 -6 58 -8z"/>
<path d="M21232 993 c-35 -7 -87 -63 -107 -116 -16 -42 -16 -51 -4 -74 34 -63
206 -153 265 -139 12 3 32 19 44 36 l21 30 27 -25 c15 -14 29 -25 32 -25 18 1
32 23 37 59 3 22 10 41 15 41 6 0 8 6 5 14 -3 8 4 21 19 30 13 9 23 20 21 25
-4 16 74 62 117 67 28 4 47 13 55 27 22 34 -10 50 -89 44 -64 -4 -118 -27
-164 -69 -11 -10 -27 -20 -36 -23 -10 -3 -25 -22 -34 -43 -13 -29 -14 -44 -6
-72 5 -19 10 -35 10 -35 0 -1 -27 -2 -61 -3 -47 -2 -68 2 -95 19 -19 11 -34
22 -34 24 0 1 24 10 53 20 65 21 87 40 87 77 0 84 -75 131 -178 111z m84 -77
c21 -16 21 -17 -51 -35 -49 -13 -55 -13 -55 -2 0 5 16 15 35 22 19 7 35 17 35
21 0 12 14 10 36 -6z"/>
<path d="M21906 694 c-17 -25 -18 -28 -2 -60 8 -19 21 -34 28 -34 34 0 55 14
65 40 9 25 8 34 -9 55 -25 32 -58 31 -82 -1z"/>
</g>
</svg>
