<?xml version="1.0" standalone="no"?>
<!DOCTYPE svg PUBLIC "-//W3C//DTD SVG 20010904//EN"
 "http://www.w3.org/TR/2001/REC-SVG-20010904/DTD/svg10.dtd">
<svg version="1.0" xmlns="http://www.w3.org/2000/svg"
 width="1102.734099pt" height="400.000000pt" viewBox="0 0 1102.734099 400.000000"
 preserveAspectRatio="xMidYMid meet">
<metadata>
Created by potrace 1.15, written by Peter Selinger 2001-2017
</metadata>
<g transform="translate(-15.506984,410.798903) scale(0.051223,-0.051223)"
fill="#444444" stroke="none">
<path d="M20083 7995 l-28 -25 22 -19 c22 -18 92 -29 183 -27 66 1 58 24 -20
63 -79 40 -119 42 -157 8z"/>
<path d="M20483 8000 c-39 -23 -42 -44 -9 -65 19 -13 43 -15 116 -11 51 3 95
7 97 10 3 2 2 14 -2 26 -18 56 -137 80 -202 40z"/>
<path d="M20836 7998 c-28 -40 -20 -55 35 -68 55 -13 145 -8 163 10 13 13 -28
49 -55 50 -9 0 -30 7 -45 15 -42 22 -80 19 -98 -7z"/>
<path d="M19667 7992 c-45 -15 -87 -48 -87 -68 0 -21 55 -37 92 -26 18 6 61
16 96 23 66 12 79 28 37 47 -14 6 -25 16 -25 21 0 16 -69 18 -113 3z"/>
<path d="M21165 7993 c-21 -6 -44 -31 -45 -50 -1 -31 30 -43 103 -38 39 2 73
9 75 14 2 6 -11 27 -29 46 -33 34 -54 40 -104 28z"/>
<path d="M18102 7972 c-30 -4 -46 -36 -32 -62 6 -11 16 -20 23 -20 62 -3 186
-10 202 -12 14 -2 21 3 23 17 5 40 -131 89 -216 77z"/>
<path d="M18595 7969 c-28 -8 -55 -33 -55 -50 0 -15 68 -28 163 -30 130 -4
148 14 57 58 -53 25 -123 35 -165 22z"/>
<path d="M19105 7971 c-12 -5 -27 -17 -35 -26 -13 -15 -11 -19 15 -38 22 -17
45 -22 99 -23 39 -1 77 3 84 9 20 16 14 34 -15 42 -16 3 -35 13 -43 20 -20 18
-80 27 -105 16z"/>
<path d="M17281 7960 c-41 -10 -76 -43 -68 -64 9 -22 70 -30 156 -20 61 7 77
12 79 27 3 12 -4 20 -17 24 -12 3 -21 9 -21 14 0 5 -15 9 -34 9 -19 0 -38 5
-41 10 -7 11 -7 11 -54 0z"/>
<path d="M17680 7957 c-61 -31 -19 -89 62 -86 23 1 72 -2 108 -6 53 -6 68 -4
78 8 11 13 5 20 -43 47 -30 17 -61 30 -68 27 -6 -2 -21 0 -32 6 -31 16 -77 18
-105 4z"/>
<path d="M16267 7942 c-24 -26 -21 -39 13 -57 30 -16 85 -18 160 -7 58 9 65
34 14 50 -21 6 -41 9 -46 6 -4 -3 -8 2 -8 10 0 25 -111 22 -133 -2z"/>
<path d="M16765 7948 c-64 -23 -74 -58 -24 -83 27 -14 41 -15 102 -5 114 18
117 19 117 38 0 35 -138 71 -195 50z"/>
<path d="M11541 7921 l-22 -30 24 -16 c16 -10 46 -15 88 -15 94 1 109 3 109
17 0 16 -89 58 -142 67 -32 6 -38 3 -57 -23z"/>
<path d="M15752 7934 c-43 -30 -17 -76 38 -69 125 17 171 29 168 44 -2 11 -16
17 -43 19 -22 1 -47 5 -55 9 -32 13 -87 12 -108 -3z"/>
<path d="M15384 7915 c-51 -51 -15 -71 111 -63 79 6 112 28 80 52 -11 8 -40
18 -65 21 -25 3 -58 8 -73 10 -20 4 -35 -2 -53 -20z"/>
<path d="M11158 7920 c-31 -19 -22 -48 15 -54 78 -13 177 -12 182 2 2 7 -3 16
-13 19 -9 3 -24 12 -32 19 -21 17 -130 27 -152 14z"/>
<path d="M11972 7923 c-12 -2 -30 -16 -39 -29 -25 -39 -6 -48 105 -50 132 -1
173 20 90 46 -24 8 -50 20 -59 27 -15 13 -50 15 -97 6z"/>
<path d="M10833 7903 c-3 -10 -8 -21 -9 -24 -2 -4 8 -15 23 -25 27 -17 102
-21 146 -8 20 6 23 33 5 38 -7 2 -35 11 -63 20 -64 21 -94 20 -102 -1z"/>
<path d="M15043 7900 c-41 -24 -44 -56 -7 -70 18 -7 42 -6 82 4 30 8 59 13 64
10 11 -7 38 15 38 30 0 18 -66 46 -108 46 -20 0 -52 -9 -69 -20z"/>
<path d="M12819 7891 c-23 -19 -23 -21 -7 -37 10 -10 36 -19 60 -20 24 -2 74
-6 112 -10 63 -7 68 -6 64 12 -2 10 -26 31 -53 46 -63 34 -140 38 -176 9z"/>
<path d="M13674 7902 c-20 -13 -23 -40 -7 -54 20 -17 193 -20 193 -4 0 24 -21
40 -67 52 -54 15 -103 17 -119 6z"/>
<path d="M14554 7889 c-14 -15 -16 -24 -8 -37 14 -22 90 -43 123 -35 14 3 43
7 65 7 30 1 42 6 44 18 5 26 -66 57 -141 63 -56 4 -67 2 -83 -16z"/>
<path d="M12374 7865 c-9 -14 -15 -27 -13 -28 41 -29 62 -35 131 -35 84 0 102
7 96 34 -2 14 -20 24 -63 36 -91 25 -131 23 -151 -7z"/>
<path d="M13240 7866 c-14 -37 -14 -35 25 -52 75 -31 185 -10 185 35 0 25 -16
30 -116 37 l-83 7 -11 -27z"/>
<path d="M14120 7883 c-37 -14 -38 -44 -2 -65 20 -12 50 -16 122 -15 82 2 95
4 98 20 2 11 -3 17 -16 17 -11 0 -22 5 -24 12 -9 25 -135 47 -178 31z"/>
<path d="M21315 7813 c-11 -11 -15 -25 -10 -42 3 -14 10 -45 14 -68 4 -23 12
-48 18 -55 6 -7 13 -25 17 -41 6 -23 9 -26 26 -17 17 9 18 18 14 83 -6 82 -29
157 -49 157 -8 0 -21 -7 -30 -17z"/>
<path d="M10802 7748 c-7 -7 -12 -37 -12 -68 0 -44 5 -61 19 -74 29 -27 41
-11 41 52 0 93 -16 122 -48 90z"/>
<path d="M14314 7629 c-8 -13 -13 -65 -17 -149 l-2 -55 -45 0 c-39 0 -45 -3
-54 -27 -14 -40 14 -68 68 -68 64 0 66 -5 70 -124 4 -116 15 -144 54 -132 18
6 21 18 26 99 3 51 5 103 3 116 -2 20 4 26 33 33 19 5 50 16 68 24 27 13 33
20 30 42 -2 18 -9 28 -23 29 -129 13 -133 14 -144 41 -6 15 -12 52 -13 82 -2
72 -33 122 -54 89z"/>
<path d="M12700 7581 c-69 -14 -110 -54 -94 -89 5 -9 9 -57 11 -107 1 -49 3
-103 4 -120 1 -16 -2 -47 -6 -67 -10 -49 0 -88 24 -88 37 0 49 33 50 134 l1
59 63 -67 c35 -36 69 -66 75 -66 7 0 12 -7 12 -15 0 -9 9 -15 23 -15 13 0 28
-5 34 -11 15 -15 21 0 16 38 -4 23 -23 49 -68 92 -34 33 -59 63 -56 68 3 4 23
9 43 10 67 3 108 50 108 121 0 39 -17 71 -57 110 -20 18 -34 22 -86 21 -34 -1
-78 -4 -97 -8z m155 -91 c17 -9 25 -22 25 -41 0 -24 -5 -28 -42 -36 -24 -5
-56 -8 -73 -7 -16 1 -40 3 -52 3 -19 1 -23 7 -23 35 0 33 3 36 53 54 79 29 82
30 85 17 2 -7 14 -18 27 -25z"/>
<path d="M11446 7531 c-54 -36 -68 -68 -61 -141 4 -36 6 -74 6 -85 -1 -11 6
-43 15 -71 21 -64 15 -84 -28 -84 -18 0 -62 -9 -98 -21 -69 -21 -128 -68 -157
-124 -20 -37 -26 -101 -13 -125 10 -18 81 -60 103 -60 7 0 31 -13 53 -28 35
-26 112 -60 172 -77 12 -3 22 -10 22 -14 0 -5 -18 -47 -40 -94 -22 -47 -40
-91 -40 -99 0 -8 -11 -29 -25 -48 -25 -34 -33 -70 -16 -70 5 0 14 -13 19 -29
18 -51 69 -69 187 -64 55 2 115 6 133 9 37 6 107 65 152 126 l27 37 34 -35
c23 -24 42 -34 63 -34 17 0 49 -7 71 -15 132 -47 247 16 246 136 0 53 -16 120
-43 187 -12 32 -12 35 15 58 15 13 40 24 55 24 20 0 41 14 74 48 59 61 68 80
68 146 0 45 -5 60 -27 87 -42 50 -111 89 -156 89 -35 0 -38 2 -31 23 26 82 31
172 13 228 -14 41 -74 107 -113 124 -53 23 -135 -13 -226 -97 -14 -13 -35 -31
-48 -42 l-24 -19 -56 56 c-65 62 -107 87 -172 99 -99 18 -124 18 -154 -1z
m124 -72 c8 -1 20 -6 27 -11 7 -5 16 -7 21 -4 18 11 162 -113 162 -140 0 -4
-25 -41 -56 -82 -46 -61 -60 -73 -77 -68 -12 3 -48 6 -79 6 l-57 0 -21 56
c-31 83 -46 197 -31 230 10 24 15 26 54 20 23 -3 49 -6 57 -7z m565 -17 c38
-33 48 -66 41 -137 -4 -37 -14 -84 -22 -106 -16 -39 -16 -39 -73 -39 -53 1
-58 3 -81 36 -14 19 -42 53 -62 74 -21 22 -38 44 -38 49 0 10 134 123 158 133
29 11 56 8 77 -10z m-242 -237 c21 -25 36 -48 34 -53 -3 -4 -20 -6 -39 -5 -18
1 -48 2 -65 2 -40 1 -43 19 -8 51 14 13 25 29 25 37 0 23 15 14 53 -32z m-410
-163 c9 -21 29 -62 46 -90 l30 -51 -24 -55 c-26 -59 -40 -73 -58 -58 -7 5 -25
12 -42 16 -16 4 -58 21 -93 37 -34 16 -69 29 -77 29 -9 0 -33 12 -55 26 -55
37 -54 68 4 111 30 23 61 36 102 42 32 5 75 14 94 19 54 15 57 14 73 -26z
m119 18 c20 0 22 -8 8 -30 -13 -21 -44 -1 -48 31 -3 19 -1 22 9 12 7 -7 21
-13 31 -13z m693 3 c70 -13 99 -90 55 -146 -23 -29 -144 -91 -164 -84 -14 6
-46 92 -46 125 0 11 9 40 20 65 20 46 48 61 90 50 8 -3 29 -7 45 -10z m-371
-11 c64 5 68 4 86 -23 25 -35 25 -84 0 -153 -22 -58 -35 -66 -100 -65 l-35 1
32 14 c60 26 83 53 83 99 0 66 -27 90 -102 90 -55 -1 -63 -4 -89 -33 -20 -22
-29 -43 -29 -67 0 -29 7 -39 45 -66 42 -30 50 -49 21 -49 -8 0 -19 -7 -26 -15
-28 -33 -54 -18 -100 58 -47 78 -50 97 -21 162 18 40 21 42 63 43 24 1 55 5
69 10 15 6 26 6 30 0 4 -6 35 -8 73 -6z m-286 -247 c18 -39 15 -47 -15 -43
-22 2 -27 8 -25 23 8 52 22 59 40 20z m508 -110 c8 -22 21 -53 28 -70 20 -46
36 -122 30 -138 -7 -20 -44 -38 -86 -41 -19 -2 -40 -6 -47 -10 -6 -4 -11 -4
-11 1 0 4 -10 13 -23 19 -77 39 -94 49 -114 67 -18 16 -20 24 -12 46 6 14 23
40 38 56 15 17 39 48 54 70 25 38 29 40 77 40 49 0 50 -1 66 -40z m-413 -30
c9 -4 17 -15 17 -24 0 -9 9 -27 20 -41 11 -14 20 -38 20 -53 0 -37 -61 -132
-97 -150 -32 -17 -204 -26 -242 -13 -22 7 -23 12 -17 57 4 28 19 68 35 92 15
23 37 65 48 92 20 46 25 50 60 55 42 5 128 -3 156 -15z m147 6 c0 -4 -7 -16
-15 -27 -15 -19 -15 -19 -30 1 -14 18 -14 21 1 32 16 11 44 8 44 -6z"/>
<path d="M13095 7425 c-54 -14 -106 -62 -131 -122 -26 -60 -15 -99 45 -166 42
-47 77 -59 168 -61 81 -1 84 0 108 29 30 37 30 37 6 52 -14 9 -29 9 -53 2 -34
-10 -128 -3 -128 10 0 8 60 31 82 31 26 0 96 85 104 124 5 30 1 44 -20 76 -25
38 -28 40 -79 39 -28 0 -74 -6 -102 -14z m133 -99 c3 -23 -2 -29 -42 -47 -56
-24 -159 -24 -163 1 -4 28 51 60 113 65 31 3 60 7 62 10 12 12 27 -3 30 -29z"/>
<path d="M13560 7403 c-158 -54 -234 -166 -175 -259 18 -28 100 -52 126 -36
10 7 32 12 47 12 31 0 55 21 66 57 6 20 36 41 36 25 0 -8 27 -45 74 -99 29
-35 61 -42 88 -20 19 14 34 57 20 57 -17 0 -95 70 -143 127 -44 53 -45 57 -41
109 5 64 7 63 -98 27z m21 -134 c-3 -49 -12 -64 -52 -85 -40 -20 -76 -18 -84
6 -10 32 2 55 48 87 77 55 93 53 88 -8z"/>
<path d="M14108 7414 c-3 -3 -25 -7 -48 -9 -47 -4 -125 -61 -141 -102 -16 -42
-11 -118 10 -144 31 -40 109 -73 171 -73 46 -1 60 4 83 25 46 44 41 48 -96 68
-63 10 -86 29 -87 72 0 33 22 53 85 74 56 18 65 28 65 68 0 20 -5 27 -18 27
-10 0 -21 -3 -24 -6z"/>
<path d="M10797 7403 c-2 -5 -10 -31 -17 -59 -18 -70 -6 -139 26 -161 14 -8
27 -13 30 -11 3 3 5 34 4 69 0 35 -1 82 -1 103 1 48 -27 86 -42 59z"/>
<path d="M21370 7395 c-6 -8 -9 -18 -6 -24 3 -5 2 -21 -3 -34 -26 -67 22 -141
62 -95 17 20 24 117 11 152 -8 20 -48 21 -64 1z"/>
<path d="M17486 6993 c-1 -2 -45 -3 -97 -4 -52 -1 -102 -5 -111 -10 -10 -5
-19 -5 -22 0 -6 9 -65 7 -184 -5 -77 -8 -82 -16 -81 -147 0 -61 4 -116 9 -123
6 -6 6 -51 1 -115 -13 -139 -6 -744 8 -788 6 -21 7 -39 1 -46 -12 -14 -15
-118 -7 -305 5 -132 3 -167 -14 -238 -20 -89 -25 -202 -9 -218 5 -5 11 -37 13
-71 4 -68 23 -97 72 -107 17 -3 124 -8 238 -11 115 -3 214 -8 220 -12 6 -3 87
-7 181 -9 94 -1 307 -5 473 -8 184 -4 311 -2 326 3 23 9 300 26 367 23 14 -1
48 3 75 9 85 16 115 19 285 29 91 5 203 12 250 16 47 3 135 10 195 14 61 4
227 8 370 8 339 0 856 10 923 17 78 9 86 27 73 152 -5 54 -8 121 -5 148 7 90
4 438 -6 546 -10 113 -45 345 -59 382 -4 12 -9 44 -10 72 -2 27 -9 83 -16 124
-7 41 -11 87 -8 103 2 16 0 43 -6 61 -6 18 -13 57 -15 87 -2 30 -9 67 -15 82
-6 16 -13 52 -16 80 -5 49 -13 87 -30 146 -8 25 -14 25 -170 22 -124 -3 -228
-8 -305 -15 -155 -14 -773 0 -930 22 -53 7 -142 12 -275 17 -66 2 -133 9 -150
15 -32 13 -201 13 -250 -1 -74 -20 -337 -17 -485 7 -19 3 -62 10 -95 15 -123
19 -262 28 -340 21 -44 -4 -109 -4 -145 1 -59 9 -218 16 -224 11z m339 -108
c114 -8 354 -44 377 -56 23 -12 393 -18 506 -8 176 15 773 12 800 -5 5 -3 69
-8 143 -11 74 -3 202 -8 284 -11 220 -10 225 -10 415 -1 96 4 234 9 306 11
l132 3 10 -56 c6 -31 17 -94 26 -141 8 -47 20 -148 26 -225 6 -77 15 -151 20
-165 9 -26 20 -100 25 -161 2 -20 5 -45 9 -55 10 -35 45 -308 51 -404 7 -116
-5 -584 -15 -600 -10 -16 -153 -20 -810 -25 -362 -3 -540 -8 -630 -19 -69 -8
-188 -18 -265 -21 -77 -4 -157 -11 -178 -16 -20 -6 -41 -8 -45 -5 -4 2 -41 -2
-82 -10 -41 -8 -102 -14 -135 -13 -33 1 -134 -4 -225 -12 -91 -7 -196 -13
-235 -13 -163 -1 -756 13 -763 18 -5 3 -85 8 -178 12 -93 3 -189 8 -214 9 -25
2 -57 4 -73 4 -36 1 -49 35 -38 96 7 38 6 46 -11 57 -15 11 -17 18 -9 45 25
86 33 260 27 580 -3 180 -5 456 -4 613 4 432 4 471 -4 523 l-8 47 39 -6 c22
-3 47 -1 59 5 12 6 87 13 168 16 80 2 149 6 151 9 6 6 206 0 348 -9z"/>
<path d="M17431 6332 c-6 -12 -1 -52 19 -132 37 -147 49 -194 66 -254 8 -26
14 -57 14 -67 0 -21 38 -128 52 -146 19 -24 47 7 93 100 25 51 45 98 45 104 0
6 7 16 15 23 12 10 15 9 15 -6 0 -11 11 -39 25 -63 14 -23 25 -49 25 -55 0
-17 29 -75 49 -98 24 -28 48 -22 75 20 23 34 122 315 145 407 5 22 15 54 21
70 14 34 0 85 -23 85 -18 0 -60 -95 -82 -185 -10 -38 -31 -101 -46 -140 -16
-38 -29 -79 -29 -90 -1 -11 -9 -36 -20 -55 -16 -31 -19 -33 -25 -15 -4 11 -15
38 -25 60 -9 22 -20 53 -24 70 -10 41 -68 134 -84 135 -7 0 -22 -19 -33 -42
-10 -24 -26 -52 -34 -62 -8 -11 -15 -30 -15 -43 0 -12 -8 -38 -17 -58 l-17
-35 -13 38 c-7 20 -13 46 -13 58 0 11 -4 24 -8 30 -5 5 -14 32 -20 59 -48 209
-66 282 -75 293 -14 18 -45 15 -56 -6z"/>
<path d="M19133 6323 c-4 -9 3 -67 15 -128 23 -117 27 -239 12 -335 -5 -30
-12 -86 -16 -123 -6 -62 -5 -70 16 -92 29 -31 37 -26 44 28 4 23 12 67 18 98
l12 57 33 -40 c43 -52 61 -65 154 -111 92 -47 153 -58 163 -31 4 11 2 20 -5
23 -6 2 -20 12 -30 22 -10 10 -35 26 -56 34 -73 31 -193 135 -193 168 0 3 28
19 63 37 34 18 71 40 82 50 11 9 28 20 38 23 13 5 16 13 11 34 -9 36 -9 36
-31 24 -43 -24 -214 -101 -223 -101 -6 0 -9 12 -8 28 4 40 -13 215 -22 227 -4
6 -10 27 -13 49 -9 59 -50 96 -64 59z"/>
<path d="M19760 6059 c-32 -13 -96 -83 -123 -134 -12 -25 -22 -66 -24 -110
l-5 -70 41 -42 c23 -24 45 -43 51 -43 5 0 17 -8 27 -18 19 -20 126 -49 210
-57 57 -5 123 16 123 39 0 27 -49 48 -96 42 -27 -3 -61 1 -85 9 -23 8 -44 13
-48 11 -10 -6 -93 38 -94 49 0 6 31 28 70 50 105 60 172 112 179 139 7 30 -18
80 -52 102 -13 9 -50 23 -82 30 -66 16 -60 16 -92 3z m148 -82 c19 -15 14 -42
-13 -65 -14 -12 -28 -22 -31 -22 -3 0 -37 -16 -75 -35 -88 -44 -99 -44 -99 -2
0 39 46 114 81 133 26 14 115 8 137 -9z"/>
<path d="M18285 6043 c-54 -7 -80 -23 -112 -71 -40 -59 -55 -116 -47 -177 7
-50 21 -68 89 -114 61 -42 113 -58 166 -51 86 11 131 62 133 154 1 41 -3 52
-20 61 -16 8 -19 14 -11 26 12 19 -18 64 -63 94 -16 11 -30 27 -30 36 0 12
-64 54 -73 48 -1 -1 -15 -4 -32 -6z m82 -94 c44 -24 75 -50 68 -57 -2 -2 2
-17 10 -33 19 -35 19 -98 1 -122 -17 -22 -67 -37 -121 -37 -34 0 -47 6 -79 39
-59 60 -60 144 -3 209 26 28 74 29 124 1z"/>
<path d="M20319 6009 c-24 -23 -52 -60 -63 -83 l-20 -41 -4 29 c-4 35 -30 76
-47 76 -7 0 -18 -13 -25 -30 -10 -25 -10 -32 4 -45 9 -9 16 -32 16 -50 0 -19
5 -37 10 -40 6 -3 10 -20 10 -36 0 -44 29 -125 51 -145 33 -30 48 -1 59 107
12 119 15 130 41 163 30 38 73 57 133 59 47 2 51 4 51 26 0 30 -46 49 -122 50
-47 1 -55 -2 -94 -40z"/>
<path d="M18840 6032 c-54 -9 -95 -36 -148 -99 l-40 -46 -7 42 c-7 43 -20 50
-55 31 -15 -8 -17 -15 -8 -47 5 -21 12 -54 15 -73 3 -19 11 -39 17 -45 7 -5
16 -34 20 -64 7 -56 30 -101 51 -101 26 0 36 30 38 118 2 74 6 96 23 119 37
50 101 91 151 98 27 4 59 10 72 14 25 7 50 36 40 45 -10 10 -122 15 -169 8z"/>
<path d="M21407 6966 c-14 -15 -12 -47 12 -141 6 -22 13 -52 16 -66 9 -34 41
-55 62 -38 14 12 14 18 -2 99 -5 24 -10 55 -21 128 -4 26 -10 32 -29 32 -13 0
-30 -6 -38 -14z"/>
<path d="M10801 6931 c-8 -5 -14 -28 -15 -55 -1 -25 -5 -49 -9 -52 -4 -4 -7
-26 -7 -50 0 -34 5 -45 25 -58 14 -9 30 -14 35 -11 7 4 8 181 1 228 -1 9 -13
9 -30 -2z"/>
<path d="M12635 6863 c-36 -9 -123 -71 -130 -92 -12 -38 30 -90 73 -91 12 0
44 -15 71 -32 27 -18 63 -41 80 -50 62 -34 18 -78 -77 -78 -33 0 -65 7 -82 17
-24 14 -31 14 -44 4 -18 -15 -21 -44 -6 -71 25 -46 161 -55 240 -15 27 14 54
34 60 44 25 48 3 123 -47 157 -38 26 -122 72 -155 85 -16 6 -28 16 -28 23 0
18 127 37 177 27 48 -9 53 -7 53 25 0 41 -25 54 -98 53 -37 -1 -76 -4 -87 -6z"/>
<path d="M13873 6821 c-34 -28 -35 -48 -2 -65 26 -13 31 -13 44 0 37 38 -1 98
-42 65z"/>
<path d="M14405 6778 c-38 -24 -85 -71 -100 -101 -9 -19 -15 -59 -15 -104 0
-79 2 -77 -66 -75 -42 2 -124 46 -124 69 0 6 21 29 46 50 102 84 116 107 71
115 -63 12 -207 -104 -207 -167 0 -47 72 -124 136 -148 73 -26 99 -23 125 16
12 17 24 34 26 36 1 2 27 -19 57 -47 30 -29 63 -52 73 -52 11 0 24 -5 30 -11
17 -17 113 -12 133 6 9 8 26 15 38 15 26 0 52 25 52 52 0 20 -4 21 -96 15 -80
-5 -103 -2 -140 13 -66 29 -62 37 56 96 41 20 81 44 88 53 36 45 42 59 36 87
-11 53 -170 112 -219 82z m98 -90 c34 -16 34 -21 -2 -39 -16 -8 -52 -26 -80
-42 l-51 -27 0 22 c1 32 23 68 51 84 30 17 48 17 82 2z"/>
<path d="M12981 6719 c-13 -5 -43 -30 -67 -56 -38 -40 -43 -51 -38 -78 4 -22
1 -35 -10 -44 -25 -21 -25 -22 45 -105 17 -19 43 -35 70 -42 152 -39 180 -42
227 -18 37 18 44 27 36 47 -4 11 -18 14 -52 11 -46 -3 -197 30 -207 46 -5 7
86 73 117 85 26 10 59 71 53 98 -5 20 -18 28 -68 43 -83 25 -79 24 -106 13z
m59 -83 c16 -20 -10 -46 -53 -53 -42 -6 -45 -1 -18 44 20 32 48 36 71 9z"/>
<path d="M13388 6709 c-13 -13 -33 -37 -45 -54 -17 -24 -24 -27 -34 -18 -10
10 -16 9 -31 -4 -19 -17 -24 -43 -8 -43 12 0 23 -60 24 -135 l1 -60 38 -3 c42
-4 39 -10 42 99 3 95 23 134 73 144 110 20 120 79 15 91 -45 6 -54 4 -75 -17z"/>
<path d="M16528 6692 c-23 -26 -25 -35 -22 -103 2 -41 0 -79 -4 -85 -4 -7 -45
-15 -92 -18 -97 -7 -240 -30 -285 -44 -16 -5 -55 -21 -85 -35 -30 -14 -76 -35
-101 -46 -45 -21 -113 -81 -91 -81 7 0 12 -7 12 -15 0 -26 53 -17 146 26 119
54 124 56 159 65 44 11 104 16 300 25 l60 3 0 -75 c-1 -41 -6 -88 -12 -104 -7
-17 -15 -45 -18 -63 -8 -41 13 -51 52 -25 29 19 179 85 223 98 40 11 148 67
170 87 27 25 26 35 -14 93 -19 28 -44 66 -55 86 -11 19 -37 50 -58 69 -50 43
-235 170 -249 170 -6 0 -22 -13 -36 -28z"/>
<path d="M13747 6664 c-25 -26 -57 -109 -57 -146 0 -36 -23 -12 -50 51 -15 34
-34 69 -43 78 -15 15 -17 14 -28 -10 -9 -20 -9 -36 1 -72 7 -25 16 -45 20 -45
4 0 12 -17 19 -37 22 -73 66 -104 106 -77 30 19 63 118 72 210 7 72 -5 86 -40
48z"/>
<path d="M13878 6650 c-14 -9 -17 -25 -16 -91 0 -44 -3 -83 -6 -86 -12 -12 29
-64 49 -61 28 4 38 59 28 159 -8 87 -18 101 -55 79z"/>
<path d="M15415 6555 c-5 -1 -37 -9 -70 -16 -33 -7 -77 -21 -97 -31 -73 -36
-188 -175 -188 -228 0 -12 -5 -31 -11 -42 -6 -11 -11 -61 -11 -110 0 -78 4
-97 31 -155 38 -81 86 -135 167 -190 62 -42 120 -61 151 -49 10 4 56 9 103 11
146 6 175 13 225 57 72 63 77 81 76 234 -1 131 -11 216 -30 251 -5 10 -17 35
-27 56 -29 60 -161 181 -219 200 -45 16 -76 20 -100 12z m98 -115 c26 -11 53
-30 60 -41 8 -11 34 -41 59 -67 63 -67 88 -158 82 -301 -3 -57 -9 -112 -15
-123 -23 -43 -164 -78 -314 -78 -62 0 -82 4 -108 22 -47 33 -117 100 -117 113
0 6 -10 29 -22 50 -32 58 -32 190 0 260 34 74 97 123 194 150 43 13 82 26 85
29 12 12 51 6 96 -14z"/>
<path d="M15391 6322 c-18 -25 -21 -50 -26 -208 l-6 -180 26 -24 c23 -22 27
-23 42 -8 11 12 16 38 18 90 2 40 6 126 10 191 6 100 5 121 -9 142 -21 32 -30
31 -55 -3z"/>
<path d="M21461 6541 c-8 -5 -18 -35 -22 -66 -6 -48 -4 -64 14 -102 16 -33 26
-43 42 -41 19 3 20 10 20 108 0 97 -1 105 -20 108 -11 1 -26 -2 -34 -7z"/>
<path d="M10787 6483 c-35 -126 -33 -146 18 -155 18 -4 25 0 29 16 8 31 7 76
-2 76 -4 0 -6 18 -4 40 4 35 1 40 -16 40 -11 0 -23 -8 -25 -17z"/>
<path d="M21477 6182 c-22 -24 -24 -33 -20 -82 5 -45 12 -61 39 -90 48 -49 57
-34 48 84 -5 76 -10 99 -24 106 -13 7 -23 3 -43 -18z"/>
<path d="M10760 6081 c-15 -29 -12 -133 5 -155 26 -34 42 -12 50 64 6 65 5 73
-13 91 -26 24 -29 24 -42 0z"/>
<path d="M21512 5808 c-6 -13 -13 -49 -16 -81 -6 -55 -5 -60 24 -89 47 -47 59
-28 53 80 -3 48 -10 93 -16 100 -15 18 -32 15 -45 -10z"/>
<path d="M10746 5728 c-3 -13 -6 -55 -6 -95 0 -61 3 -74 19 -83 15 -8 24 -6
36 7 14 14 16 29 10 92 -4 42 -12 82 -17 89 -16 19 -35 14 -42 -10z"/>
<path d="M14969 5704 c-77 -62 -128 -112 -319 -309 -83 -86 -129 -124 -165
-141 -55 -24 -119 -83 -210 -194 -33 -40 -65 -78 -72 -85 -6 -7 -18 -27 -27
-46 -8 -19 -23 -46 -33 -62 -20 -31 -10 -60 24 -65 20 -3 40 23 167 211 31 46
41 55 53 46 21 -18 44 0 203 165 219 227 438 426 471 426 12 0 16 9 15 38 -1
35 -3 37 -37 40 -27 2 -44 -4 -70 -24z"/>
<path d="M7797 5699 c-6 -4 -39 -9 -73 -12 -122 -9 -242 -99 -301 -226 -32
-67 -35 -80 -29 -130 4 -31 9 -81 12 -111 6 -69 46 -198 82 -270 21 -42 42
-65 90 -98 37 -26 74 -44 94 -45 33 -2 95 -34 135 -70 19 -17 41 -20 157 -25
170 -6 196 3 283 96 153 164 178 336 85 572 -48 121 -96 174 -222 245 -52 30
-120 59 -150 65 -65 14 -145 18 -163 9z m128 -92 c80 -16 113 -31 209 -98 87
-61 107 -90 143 -197 24 -73 28 -103 28 -192 0 -126 -17 -167 -102 -253 -74
-75 -106 -83 -268 -69 -69 6 -130 14 -136 17 -5 4 -14 17 -19 30 -7 17 -20 25
-52 30 -24 4 -52 14 -63 21 -11 8 -27 14 -36 14 -20 0 -89 77 -89 99 0 8 -12
43 -26 79 -29 73 -44 150 -45 238 -3 140 121 273 254 275 29 0 61 4 72 9 29
12 51 12 130 -3z"/>
<path d="M7733 5430 c-61 -23 -70 -34 -53 -66 13 -22 18 -25 45 -17 16 4 72 7
124 6 89 -2 96 -4 123 -31 25 -24 29 -36 29 -86 1 -32 -3 -62 -8 -67 -5 -5
-45 0 -95 13 -81 19 -89 20 -120 5 -63 -30 -99 -107 -73 -157 8 -15 33 -43 57
-63 37 -32 50 -37 94 -37 34 0 56 5 64 15 7 8 20 15 30 15 10 0 32 14 50 30
18 17 34 30 36 30 2 0 15 -24 28 -54 26 -59 36 -69 60 -60 32 12 28 44 -15
132 -41 82 -43 92 -41 161 2 63 -1 83 -23 127 -36 74 -78 108 -126 101 -20 -3
-41 -1 -46 3 -17 16 -98 16 -140 0z m184 -327 c56 -18 64 -30 36 -55 -23 -19
-82 -48 -99 -48 -21 0 -82 40 -89 58 -8 21 34 57 71 60 15 1 51 -6 81 -15z"/>
<path d="M6645 5669 c-4 -5 -17 -9 -30 -9 -29 0 -91 -28 -123 -55 -113 -97
-161 -158 -198 -255 -60 -156 -28 -329 89 -479 23 -30 62 -66 87 -79 25 -14
46 -29 48 -33 2 -5 20 -11 40 -15 20 -4 42 -10 47 -14 6 -5 26 -11 45 -15 19
-3 42 -7 50 -9 8 -2 24 -7 35 -12 11 -5 80 -9 153 -9 l133 0 45 50 c113 122
165 251 166 407 1 75 -4 108 -25 169 -31 90 -106 220 -145 249 -15 11 -34 26
-42 33 -8 8 -28 17 -45 21 -16 4 -43 13 -60 20 -16 8 -46 19 -65 26 -42 16
-197 23 -205 9z m160 -89 c6 -5 42 -18 80 -29 91 -28 127 -50 166 -103 83
-112 118 -242 100 -365 -14 -95 -41 -193 -52 -193 -5 0 -17 -17 -28 -37 -35
-70 -59 -84 -142 -85 -112 -1 -256 21 -306 47 -15 8 -40 15 -55 15 -14 0 -49
12 -76 26 -46 24 -54 34 -96 118 -59 119 -71 174 -56 257 34 185 136 301 305
345 75 19 137 21 160 4z"/>
<path d="M6714 5411 c-65 -5 -88 -11 -122 -34 -47 -31 -55 -63 -20 -76 16 -6
33 -2 58 12 77 44 261 23 268 -31 2 -12 0 -22 -5 -22 -4 0 -24 -10 -43 -22
-19 -12 -43 -23 -53 -25 -10 -2 -29 -10 -43 -19 -16 -11 -36 -15 -59 -11 -25
4 -41 1 -57 -13 l-23 -18 29 -31 c28 -29 34 -31 106 -31 64 0 81 -4 113 -25
20 -14 37 -34 37 -44 0 -19 -29 -51 -47 -51 -5 0 -18 -9 -27 -19 -16 -18 -21
-18 -58 -5 -22 8 -51 14 -63 14 -12 0 -38 7 -58 15 -33 13 -37 13 -59 -5 l-23
-20 32 -29 c36 -33 116 -61 176 -61 51 0 170 61 186 96 15 33 14 52 -5 108
-11 33 -26 54 -45 65 -37 20 -37 37 0 56 38 19 61 52 61 85 0 38 -56 110 -91
117 -16 3 -34 12 -40 19 -6 8 -19 13 -28 12 -9 -1 -52 -4 -97 -7z"/>
<path d="M16740 5628 c-14 -5 -58 -16 -98 -23 -40 -8 -98 -27 -130 -44 -31
-16 -88 -41 -127 -56 -38 -14 -81 -35 -96 -46 -15 -10 -30 -19 -34 -19 -14 0
-205 -145 -205 -155 0 -7 9 -20 20 -30 19 -17 21 -17 57 0 33 16 99 54 159 93
38 24 121 61 229 101 61 23 127 50 147 61 20 11 49 20 63 20 15 0 40 8 56 17
58 34 22 105 -41 81z"/>
<path d="M8794 5609 c-3 -5 -16 -9 -28 -9 -13 0 -29 -7 -36 -16 -8 -8 -29 -21
-47 -29 -59 -25 -135 -112 -166 -193 -32 -81 -49 -216 -36 -285 23 -124 138
-266 231 -286 27 -6 55 -11 62 -11 7 0 42 -13 77 -28 58 -26 74 -28 167 -27
90 2 109 5 157 30 64 32 172 142 203 206 49 101 55 305 12 395 -21 44 -82 114
-100 114 -3 0 -17 11 -30 25 -13 14 -28 25 -32 25 -5 0 -24 11 -41 24 -18 14
-54 30 -80 36 -27 6 -58 17 -71 25 -16 11 -50 14 -129 13 -59 0 -110 -5 -113
-9z m241 -96 c52 -16 148 -65 176 -89 8 -8 20 -14 25 -14 14 -1 57 -41 79 -75
17 -26 19 -47 19 -150 0 -162 -11 -193 -91 -276 -113 -117 -164 -127 -407 -74
-97 22 -158 47 -196 85 -40 39 -90 160 -90 219 0 65 36 199 65 242 26 40 105
109 124 109 6 0 21 9 32 19 18 16 37 19 117 20 62 0 115 -6 147 -16z"/>
<path d="M8945 5401 c-11 -18 -21 -146 -19 -231 1 -47 3 -112 3 -145 1 -47 6
-66 24 -89 l24 -29 22 22 c12 12 19 26 15 32 -3 6 -6 99 -6 206 0 160 -2 200
-15 220 -16 24 -37 30 -48 14z"/>
<path d="M15847 5473 c-4 -3 -77 -5 -163 -5 -115 1 -173 -2 -218 -14 -33 -9
-75 -13 -93 -11 -36 6 -47 -7 -109 -118 -10 -16 -34 -46 -56 -65 l-38 -35 10
-70 c6 -38 10 -137 10 -220 0 -82 -1 -193 -1 -245 -1 -129 7 -146 68 -154 26
-4 109 -2 183 4 143 12 151 13 218 24 64 12 233 10 265 -3 37 -14 54 -14 60 2
8 21 -3 399 -13 456 -6 30 -10 71 -10 91 0 20 -10 72 -21 116 -12 43 -22 107
-24 141 -2 50 -7 67 -26 88 -25 26 -32 29 -42 18z m-119 -100 c118 -5 114 -2
127 -108 4 -33 10 -64 13 -70 4 -5 7 -21 8 -35 0 -14 6 -61 12 -105 12 -87 16
-182 14 -317 l-2 -88 -142 2 c-152 2 -300 -7 -358 -23 -19 -5 -56 -9 -82 -9
l-48 0 -1 38 c-1 20 -1 114 0 207 0 94 1 186 1 206 l0 35 68 -32 c37 -18 83
-34 102 -35 l35 -4 -3 48 c-2 27 -16 93 -33 148 -16 55 -27 104 -24 110 4 5
21 9 39 9 18 0 36 3 40 8 13 13 91 31 111 25 11 -3 66 -8 123 -10z m-370 -118
c7 -14 12 -41 12 -60 l0 -34 -42 19 c-46 21 -48 28 -17 72 25 35 33 35 47 3z"/>
<path d="M15607 5244 c-11 -22 -15 -73 -17 -214 -2 -216 0 -234 26 -239 10 -2
24 -7 31 -13 22 -17 26 14 29 221 l3 206 -29 34 -28 33 -15 -28z"/>
<path d="M21532 5412 c-17 -17 -18 -24 -7 -88 14 -84 39 -137 63 -132 20 4 27
79 15 173 -7 51 -11 60 -30 63 -12 2 -30 -5 -41 -16z"/>
<path d="M335 5370 c-9 -14 -2 -501 11 -785 13 -297 20 -1066 12 -1230 -3 -44
-8 -168 -12 -275 -3 -107 -11 -262 -16 -345 -6 -82 -12 -217 -15 -300 -2 -82
-7 -166 -11 -186 -9 -51 25 -114 68 -127 18 -6 112 -13 208 -16 245 -9 302
-13 410 -26 251 -32 522 -25 830 20 94 14 186 21 260 19 125 -2 272 13 354 35
28 8 58 14 66 14 66 1 185 16 229 28 60 17 175 31 321 39 52 3 125 10 161 15
37 5 179 10 315 11 137 0 294 1 349 1 299 2 723 -10 742 -21 32 -16 61 -13 83
9 17 17 20 34 20 102 0 46 5 117 11 158 13 99 13 684 0 930 -11 196 -27 355
-38 373 -6 10 -4 667 2 757 4 57 -21 375 -36 456 -6 34 -21 73 -33 89 -22 27
-28 29 -105 32 -45 1 -86 5 -92 9 -6 3 -106 10 -222 15 -117 5 -250 14 -297
19 -173 19 -195 22 -210 27 -29 11 -46 12 -325 19 -154 3 -283 8 -287 10 -9 6
-208 19 -288 19 -36 0 -153 -2 -260 -3 -316 -4 -695 7 -800 24 -52 9 -122 20
-155 25 -53 8 -265 23 -455 33 -36 1 -92 6 -125 10 -33 3 -161 9 -285 12 -124
3 -260 7 -303 8 -43 2 -80 0 -82 -4z m640 -86 c72 -4 141 -7 155 -6 14 1 32
-1 40 -4 14 -5 57 -8 275 -18 50 -3 102 -9 116 -15 14 -5 64 -13 110 -16 46
-4 91 -11 99 -15 41 -21 232 -30 965 -44 110 -2 207 -7 217 -11 21 -8 116 -13
403 -20 232 -5 362 -16 445 -35 71 -18 256 -31 489 -36 173 -4 220 -8 250 -22
36 -17 36 -18 48 -102 8 -56 11 -257 11 -590 0 -310 4 -525 11 -556 5 -28 15
-139 21 -245 6 -107 14 -230 19 -274 14 -148 -1 -869 -20 -905 -7 -14 -46 -16
-321 -13 -843 8 -1120 5 -1183 -14 -11 -4 -45 -7 -75 -8 -30 -1 -102 -9 -160
-18 -58 -9 -130 -19 -160 -23 -30 -3 -59 -9 -64 -11 -4 -3 -27 -7 -50 -9 -58
-4 -199 -21 -276 -33 -83 -12 -164 -19 -320 -26 -69 -3 -177 -15 -240 -25 -63
-10 -160 -22 -215 -27 -226 -17 -674 2 -860 37 -27 5 -105 9 -171 9 -67 -1
-132 2 -144 6 -21 7 -22 11 -15 59 4 28 9 128 11 221 2 94 10 222 18 285 18
139 41 899 32 1025 -4 50 -9 185 -11 300 -5 337 -15 729 -20 742 -2 7 -7 107
-11 222 -6 188 -5 211 9 217 18 6 35 7 202 4 61 -1 124 3 140 8 17 5 46 5 65
1 19 -4 94 -11 165 -15z"/>
<path d="M2601 4819 c-26 -10 -27 -1 13 -169 23 -99 77 -375 76 -393 0 -5 -33
-6 -73 -2 -60 6 -75 4 -86 -9 -7 -9 -19 -16 -26 -16 -19 0 -80 -64 -99 -104
-32 -67 -13 -125 57 -173 32 -22 53 -28 122 -32 82 -6 84 -5 118 24 75 66 86
99 74 215 -13 114 -17 141 -23 151 -3 6 -10 34 -14 62 -5 29 -16 90 -25 137
-9 47 -20 112 -24 145 -11 71 -42 168 -56 171 -5 2 -21 -2 -34 -7z m101 -688
c21 -14 38 -28 37 -31 0 -29 -108 -90 -160 -90 -19 0 -50 8 -69 18 -28 14 -35
23 -35 46 0 24 10 37 44 63 40 31 47 33 95 27 30 -4 66 -17 88 -33z"/>
<path d="M665 4780 c-3 -5 -16 -10 -27 -10 -18 0 -20 -4 -14 -37 22 -130 27
-212 29 -467 2 -193 6 -289 13 -296 7 -7 71 -13 162 -16 83 -2 186 -11 229
-19 111 -21 113 -21 113 18 0 39 -25 67 -61 67 -13 0 -49 7 -79 15 -30 8 -75
15 -100 15 -25 1 -74 7 -109 14 -59 11 -65 14 -73 41 -4 17 -10 134 -13 260
-5 258 -13 382 -27 408 -10 19 -33 23 -43 7z"/>
<path d="M2070 4361 c-49 -10 -127 -56 -182 -110 -83 -79 -98 -181 -36 -238
45 -40 66 -37 144 22 39 30 81 70 92 90 12 19 25 35 30 35 4 0 16 -15 26 -32
28 -49 148 -168 169 -168 23 0 50 59 35 78 -6 6 -16 12 -23 12 -21 0 -110 102
-149 172 -27 49 -35 73 -30 92 7 27 -9 57 -30 55 -6 -1 -27 -4 -46 -8z m-25
-131 c21 -34 -82 -166 -123 -158 -48 9 -7 100 65 144 43 27 49 28 58 14z"/>
<path d="M1487 4299 c-14 -10 -40 -22 -59 -25 -115 -22 -147 -230 -45 -297 30
-20 168 -11 218 14 84 42 128 138 98 212 -16 38 -74 96 -103 102 -74 14 -85
14 -109 -6z m128 -99 c27 -23 17 -56 -31 -100 -42 -39 -50 -42 -89 -38 -23 3
-50 1 -59 -4 -12 -7 -18 -4 -25 13 -19 53 26 130 84 143 33 7 104 -1 120 -14z"/>
<path d="M1950 3475 c-10 -19 -10 -34 -2 -67 6 -24 16 -92 22 -153 6 -60 13
-123 15 -140 33 -275 31 -262 57 -271 16 -5 27 -1 40 16 23 28 23 42 -1 116
-11 32 -24 120 -31 194 -6 74 -15 153 -20 175 -5 22 -10 56 -10 75 0 38 -23
80 -44 80 -7 0 -19 -11 -26 -25z"/>
<path d="M808 3430 c-21 -11 -44 -33 -53 -49 -13 -27 -13 -31 6 -55 11 -14 26
-23 33 -20 18 7 23 -11 31 -121 8 -102 9 -106 32 -233 13 -75 14 -100 5 -126
-7 -18 -12 -40 -12 -49 0 -19 30 -37 69 -43 183 -25 221 -23 281 12 56 33 75
67 75 139 0 55 -4 69 -31 107 -17 23 -55 58 -85 76 -92 56 -86 51 -65 65 40
25 98 82 112 110 17 32 21 71 10 104 -12 36 -87 73 -174 84 -167 21 -194 21
-234 -1z m316 -95 c37 -16 39 -19 28 -46 -7 -16 -105 -99 -118 -99 -3 0 -30
-7 -60 -16 -48 -14 -54 -18 -54 -43 0 -40 35 -67 122 -95 119 -38 149 -60 169
-128 10 -35 -12 -61 -75 -88 -45 -20 -61 -23 -124 -21 -37 1 -44 5 -53 29 -20
50 -38 156 -54 306 -9 82 -18 153 -21 158 -10 15 8 49 29 57 33 12 170 3 211
-14z"/>
<path d="M4156 3296 c-58 -35 -144 -121 -152 -150 -6 -24 -24 -37 -24 -17 0
11 -47 61 -58 61 -5 0 -14 -12 -21 -26 -9 -21 -9 -35 3 -68 7 -22 24 -76 37
-120 18 -61 28 -80 47 -87 49 -19 58 -7 68 86 2 22 13 67 25 100 18 50 30 67
79 106 48 38 73 50 134 63 42 10 78 21 81 25 2 5 -5 17 -16 27 -16 14 -39 19
-92 21 -60 2 -78 -2 -111 -21z"/>
<path d="M3270 3299 c-51 -9 -104 -61 -141 -137 -56 -114 29 -249 160 -254 53
-2 93 25 89 59 -3 23 -8 25 -53 27 -55 3 -80 13 -109 45 -43 48 5 145 97 192
40 21 46 39 21 63 -8 9 -16 16 -17 15 -1 -1 -22 -5 -47 -10z"/>
<path d="M3605 3281 c-22 -4 -47 -11 -57 -16 -28 -17 -77 -86 -88 -124 -5 -20
-19 -51 -30 -69 l-20 -32 29 -41 c37 -51 85 -89 156 -123 l55 -27 81 15 c92
17 124 38 108 67 -8 17 -22 19 -102 19 -84 0 -97 3 -135 27 -23 15 -42 33 -42
39 0 6 21 19 48 29 112 43 188 126 164 179 -14 32 -68 66 -102 65 -14 -1 -43
-5 -65 -8z m65 -101 c0 -13 -100 -61 -112 -54 -5 3 1 19 12 35 18 24 29 29 61
29 21 0 39 -5 39 -10z"/>
<path d="M1687 3230 c-36 -20 -222 -201 -273 -266 -28 -37 -33 -107 -8 -142
20 -30 86 -62 124 -62 63 0 125 57 172 156 21 46 35 63 49 64 3 0 30 -39 61
-87 57 -88 89 -120 110 -107 18 11 2 80 -31 128 -17 25 -40 64 -51 88 -21 45
-31 64 -64 113 -11 16 -21 47 -22 69 -3 58 -21 71 -67 46z m-7 -192 c-11 -31
-27 -62 -35 -68 -8 -7 -15 -18 -15 -25 0 -6 -18 -30 -40 -53 -42 -45 -86 -56
-110 -27 -20 24 -2 51 108 160 117 115 131 117 92 13z"/>
<path d="M2383 3221 c-22 -16 -60 -54 -84 -85 -24 -31 -47 -56 -50 -56 -9 0
-37 -71 -49 -125 -11 -50 -2 -86 33 -124 61 -65 140 -35 192 74 11 22 28 53
39 68 l18 28 32 -49 c46 -71 95 -131 118 -143 15 -8 24 -7 38 6 13 12 27 15
49 10 41 -9 48 8 53 128 4 94 5 99 36 129 31 31 32 31 52 13 29 -26 66 -110
80 -182 15 -75 30 -92 66 -72 24 12 25 17 19 64 -12 85 -63 194 -116 248 -44
44 -51 48 -90 45 -38 -3 -46 -8 -75 -51 l-34 -49 -16 41 c-16 41 -39 52 -61
30 -8 -8 -8 -24 3 -58 7 -25 14 -60 14 -78 0 -17 4 -34 8 -37 10 -6 36 -115
29 -122 -2 -2 -11 -2 -19 1 -17 7 -111 156 -123 195 -10 34 -78 163 -90 172
-17 13 -31 9 -72 -21z m41 -134 c-3 -18 -25 -71 -47 -119 -32 -70 -45 -88 -62
-88 -28 0 -45 18 -45 47 0 51 126 213 153 196 4 -3 5 -19 1 -36z"/>
<path d="M10731 5306 c-6 -7 -12 -41 -13 -76 -2 -50 0 -64 14 -73 27 -17 39 2
45 72 7 75 -16 114 -46 77z"/>
<path d="M9532 5138 c-7 -7 -12 -21 -12 -33 0 -18 9 -23 63 -33 34 -7 69 -13
77 -13 8 -1 44 -8 80 -15 36 -8 84 -14 107 -14 23 0 44 -4 47 -9 3 -5 20 -11
38 -14 76 -12 262 -78 326 -116 26 -15 71 -36 100 -45 45 -15 52 -21 52 -44 0
-35 -37 -110 -72 -145 -62 -63 -28 -80 150 -78 56 1 155 -5 220 -13 158 -19
212 -18 212 5 0 10 -4 20 -9 24 -5 3 -17 28 -26 55 -9 28 -21 50 -25 50 -5 0
-18 19 -28 43 -10 23 -35 63 -55 90 -21 26 -37 51 -37 55 0 5 -15 26 -34 48
-18 21 -41 54 -51 73 -16 33 -16 35 0 47 22 17 12 44 -16 44 -38 0 -94 -51
-127 -115 -18 -33 -32 -66 -32 -72 0 -6 -6 -15 -12 -21 -15 -11 -117 27 -183
69 -67 43 -127 67 -184 74 -30 4 -86 18 -125 32 -39 14 -96 27 -126 29 -30 3
-67 9 -82 15 -16 6 -39 9 -53 7 -14 -3 -28 -1 -31 4 -3 5 -22 8 -42 7 -20 -1
-50 3 -65 10 -34 13 -31 13 -45 -1z"/>
<path d="M5875 5025 c-27 -8 -102 -21 -165 -29 -64 -8 -129 -20 -145 -26 -17
-6 -55 -18 -85 -25 -44 -12 -230 -74 -325 -110 -31 -12 -146 -64 -192 -88 -37
-19 -43 -26 -43 -54 0 -46 14 -45 127 4 18 7 51 20 74 29 23 8 47 18 53 23 23
18 326 115 456 146 83 20 116 25 220 37 131 14 217 55 183 89 -17 17 -106 19
-158 4z"/>
<path d="M21597 4963 c-13 -12 -7 -110 8 -140 19 -39 41 -57 56 -48 12 8 8
163 -5 184 -8 12 -49 15 -59 4z"/>
<path d="M11390 4942 c-14 -2 -31 -9 -37 -14 -9 -7 -17 -7 -25 -1 -17 13 -153
0 -172 -16 -8 -7 -20 -10 -25 -6 -19 11 -82 -7 -96 -29 -10 -16 -11 -33 -3
-77 6 -34 6 -69 0 -90 -6 -25 -5 -43 7 -67 12 -26 13 -39 4 -65 -7 -19 -12
-110 -12 -227 -1 -315 -5 -445 -15 -451 -4 -4 -4 -44 2 -90 16 -130 19 -328
12 -769 0 -30 0 -66 0 -80 0 -13 -5 -29 -10 -34 -17 -17 -11 -47 14 -77 l25
-29 158 -4 c87 -2 226 -9 308 -15 185 -13 738 -3 798 15 23 7 97 11 342 18
355 10 469 17 535 33 129 30 634 15 765 -22 14 -4 27 1 39 14 17 18 17 27 7
98 -10 67 -24 311 -24 408 0 17 3 143 7 280 10 384 4 736 -14 788 -6 18 -6 36
0 47 6 11 6 30 -1 52 -5 20 -13 71 -18 114 -8 74 -42 219 -55 231 -3 3 -61 1
-128 -5 -68 -6 -188 -9 -268 -7 -366 12 -428 15 -475 20 -80 9 -444 19 -655
18 -118 0 -198 4 -201 10 -4 6 -15 6 -25 2 -25 -10 -246 -6 -364 7 -52 6 -153
12 -225 14 -71 2 -134 5 -140 7 -5 2 -21 1 -35 -1z m200 -80 c47 0 265 -12
353 -20 49 -4 91 -4 94 1 2 4 14 5 26 1 12 -5 65 -9 117 -10 275 -6 874 -32
892 -39 7 -2 133 -6 280 -9 148 -3 272 -7 278 -11 5 -3 58 -1 117 5 128 13
127 14 137 -93 4 -39 12 -92 17 -115 5 -24 12 -139 15 -255 3 -117 9 -219 13
-227 4 -8 4 -121 0 -250 -8 -237 -12 -626 -7 -797 l3 -93 -85 4 c-166 8 -506
9 -570 2 -36 -4 -112 -13 -170 -21 -105 -14 -144 -15 -444 -16 -88 0 -162 -2
-166 -4 -4 -3 -39 -5 -76 -6 -38 0 -87 -5 -110 -10 -23 -4 -90 -9 -150 -9 -60
0 -161 -6 -224 -12 -88 -8 -172 -8 -360 2 -135 8 -301 16 -370 19 -118 6 -125
7 -122 26 21 148 24 219 17 515 -10 423 -10 392 0 780 5 240 4 372 -4 465 -11
120 -11 130 5 142 10 7 32 13 50 13 18 0 44 4 57 9 13 5 90 12 171 15 82 2
151 7 153 10 3 3 13 1 22 -3 9 -5 27 -9 41 -9z"/>
<path d="M11877 4284 c-4 -4 -68 -9 -142 -10 -143 -2 -165 -9 -165 -48 1 -51
4 -52 175 -46 l100 3 -3 -279 c-1 -154 1 -285 6 -292 5 -7 22 -14 38 -15 l29
-2 0 295 0 295 55 12 c65 15 160 18 213 8 47 -9 50 9 7 50 -29 27 -32 28 -167
32 -77 2 -142 1 -146 -3z"/>
<path d="M12546 4208 c-10 -11 -29 -47 -43 -80 -13 -33 -28 -67 -33 -76 -16
-28 -41 -103 -55 -167 -8 -33 -18 -73 -24 -88 -6 -15 -24 -78 -41 -141 -16
-63 -41 -138 -55 -167 -14 -30 -25 -61 -25 -70 0 -13 37 -39 55 -39 8 0 57
102 77 160 11 30 39 132 63 225 24 94 57 210 74 258 17 49 31 97 31 108 0 11
7 31 16 44 30 46 -3 73 -40 33z"/>
<path d="M12891 4201 c-92 -30 -169 -136 -216 -296 -14 -48 -16 -81 -11 -167
8 -149 50 -247 121 -281 46 -22 57 -21 88 3 24 19 28 19 69 5 99 -33 234 -28
326 13 64 29 129 93 160 160 27 56 28 66 20 119 -5 32 -13 62 -19 68 -5 5 -9
18 -9 28 0 11 -10 32 -22 48 -82 103 -114 140 -130 145 -10 3 -18 12 -18 19 0
19 -98 91 -165 121 -72 33 -128 38 -194 15z m141 -70 c73 -17 197 -111 266
-200 57 -74 82 -133 82 -191 0 -38 -6 -56 -35 -93 -19 -25 -47 -54 -62 -65
-41 -27 -128 -59 -205 -72 -64 -11 -70 -11 -154 19 -47 17 -91 31 -96 31 -6 0
-7 -11 -4 -26 10 -40 -14 -25 -48 29 -25 41 -29 58 -33 154 -5 90 -2 121 16
186 40 148 86 203 186 228 41 10 45 10 87 0z"/>
<path d="M11676 3541 c-96 -5 -110 -8 -122 -27 -12 -18 -12 -23 4 -37 25 -23
150 -41 199 -28 42 11 388 8 416 -4 26 -11 22 20 -7 42 -13 11 -50 25 -83 32
-32 7 -72 16 -90 20 -17 5 -51 5 -75 1 -25 -5 -47 -5 -52 1 -6 5 -26 8 -45 7
-20 -1 -85 -4 -145 -7z"/>
<path d="M14833 4842 c-56 -32 -126 -77 -157 -100 -30 -23 -58 -42 -61 -42 -3
0 -5 13 -5 29 0 16 -8 44 -17 63 -10 18 -19 34 -19 36 -5 10 -54 -13 -54 -24
0 -8 -9 -22 -21 -32 -12 -9 -30 -37 -41 -62 -44 -102 -54 -120 -69 -125 -9 -3
-22 -19 -29 -35 -7 -17 -18 -30 -24 -30 -7 0 -25 -13 -40 -29 -27 -28 -27 -30
-11 -54 23 -36 59 -57 95 -57 17 0 44 -7 60 -15 16 -8 39 -14 52 -14 13 1 52
-6 88 -16 116 -30 109 -30 121 1 10 25 7 44 -19 124 -36 111 -42 135 -33 146
3 5 35 29 71 53 36 25 77 54 92 65 49 39 146 96 162 96 8 0 23 11 32 25 13 20
14 28 4 40 -24 28 -72 17 -177 -43z"/>
<path d="M21617 4561 c-23 -28 -24 -32 -13 -82 15 -65 49 -95 73 -63 24 31 2
174 -26 174 -5 0 -20 -13 -34 -29z"/>
<path d="M10691 4423 c-14 -50 -14 -50 10 -100 14 -28 27 -43 40 -43 16 0 19
7 19 49 0 28 -4 53 -10 56 -5 3 -10 16 -10 29 0 22 -17 46 -32 46 -4 0 -12
-17 -17 -37z"/>
<path d="M7839 4363 c-15 -3 -69 -105 -69 -129 0 -5 -4 -15 -9 -23 -7 -12 -14
-10 -36 8 -15 11 -37 21 -48 21 -11 0 -30 8 -41 19 -12 10 -43 26 -70 36 l-48
19 -18 -24 c-21 -28 -30 -65 -30 -123 l0 -41 -27 26 c-16 14 -61 36 -101 49
-100 32 -107 26 -107 -79 0 -64 -4 -84 -19 -100 l-18 -21 -64 32 c-57 28 -66
30 -89 17 -31 -17 -31 -35 0 -130 14 -41 25 -77 25 -81 0 -3 -31 -42 -70 -85
-38 -43 -70 -86 -70 -95 0 -25 26 -42 109 -70 l76 -26 5 -89 c5 -80 7 -90 28
-100 24 -12 79 -9 141 7 19 5 37 7 39 4 2 -2 -4 -25 -14 -50 -17 -45 -17 -47
2 -66 29 -28 136 -28 192 0 16 8 67 26 102 37 16 5 32 -32 53 -121 7 -27 16
-56 20 -62 13 -21 53 -15 120 17 l62 30 30 -38 c94 -118 116 -120 175 -22 24
39 52 76 63 82 12 6 71 11 131 12 l111 1 -2 49 -1 49 56 -8 c31 -4 71 -9 87
-11 51 -6 60 7 57 83 -1 37 -5 76 -8 87 -6 18 -2 19 90 13 l96 -6 0 38 c0 22
-13 63 -31 99 l-30 61 42 38 c67 60 79 75 79 100 0 13 -8 26 -17 30 -24 9
-114 75 -137 101 -18 21 -18 22 6 54 33 43 41 70 29 100 -8 22 -19 27 -68 34
-32 4 -76 8 -98 9 l-40 0 3 52 c6 97 -34 119 -118 63 -25 -16 -52 -30 -60 -30
-8 0 -37 36 -63 79 -56 90 -62 92 -130 30 -23 -22 -61 -50 -84 -63 l-42 -24
-58 59 c-32 33 -59 64 -61 69 -4 10 -6 11 -33 3z m352 -125 c11 -13 28 -40 39
-60 19 -35 24 -38 66 -38 25 0 58 7 74 15 17 9 30 14 31 13 0 -2 2 -18 4 -37
5 -56 30 -72 118 -74 42 -1 79 -6 83 -10 4 -4 -10 -33 -33 -65 -53 -75 -58
-94 -34 -117 12 -10 27 -15 37 -11 18 7 144 -50 144 -64 0 -5 -15 -20 -32 -34
-112 -89 -113 -92 -68 -154 17 -23 30 -43 30 -45 0 -1 -24 -2 -53 -2 -56 0
-137 -29 -137 -50 0 -7 7 -29 15 -48 8 -20 15 -48 15 -63 0 -26 -1 -26 -47
-20 -27 4 -59 8 -73 10 -14 2 -41 11 -61 19 -35 15 -38 15 -55 -4 -17 -19 -17
-21 -1 -48 32 -54 19 -70 -58 -76 -22 -2 -54 2 -72 8 -42 14 -61 -3 -93 -80
-12 -32 -26 -62 -30 -66 -11 -12 -55 35 -76 82 -17 36 -23 41 -54 41 -25 0
-46 -9 -70 -30 -19 -16 -40 -29 -46 -30 -13 0 -24 22 -24 47 0 8 -16 48 -36
89 -25 53 -41 74 -54 74 -10 0 -21 -4 -24 -9 -4 -5 -25 -12 -49 -16 -23 -4
-65 -18 -93 -31 -28 -13 -53 -24 -56 -24 -3 0 -5 36 -4 81 3 94 -3 100 -67 76
-70 -27 -125 -36 -135 -23 -5 6 -14 41 -21 79 -18 102 -25 116 -57 112 -36 -4
-74 14 -74 34 1 19 49 75 73 84 22 8 21 21 -3 97 -18 56 -25 90 -17 90 1 0 33
-11 71 -25 38 -14 72 -25 76 -25 8 0 13 18 32 130 9 54 17 76 29 78 9 2 52
-16 95 -38 91 -48 93 -47 121 50 8 30 17 58 20 62 4 8 85 -25 122 -51 39 -28
78 -32 84 -9 3 10 14 18 26 18 16 0 27 12 41 44 24 57 32 61 61 30 61 -65 114
-76 179 -35 14 9 40 25 58 36 17 11 32 23 32 28 0 13 11 7 31 -15z"/>
<path d="M8155 3977 c-11 -7 -31 -14 -45 -15 -14 0 -33 -11 -43 -23 -17 -22
-17 -23 1 -42 18 -17 22 -18 53 -5 97 41 138 40 154 -6 10 -31 0 -42 -47 -52
-15 -4 -33 -13 -39 -20 -17 -21 13 -60 52 -68 66 -13 100 -76 64 -116 -13 -14
-29 -17 -90 -13 -71 5 -75 4 -75 -16 0 -25 68 -61 117 -61 47 0 110 34 128 70
29 55 15 109 -37 150 -26 20 -39 60 -19 60 14 0 19 61 9 97 -5 18 -19 40 -31
47 -34 22 -128 30 -152 13z"/>
<path d="M7615 3950 c-16 -4 -57 -5 -90 -2 -78 6 -96 -10 -71 -62 9 -19 16
-39 16 -44 0 -6 5 -12 12 -14 8 -3 5 -17 -10 -46 -27 -53 -27 -56 2 -70 20 -9
29 -7 57 14 40 29 92 40 123 26 21 -9 23 -17 21 -68 -1 -50 -5 -60 -30 -80
-31 -24 -81 -25 -139 -2 -25 10 -31 9 -42 -7 -28 -38 36 -75 128 -75 99 0 139
43 141 149 1 71 -23 128 -60 142 -54 21 -92 23 -112 5 -22 -20 -31 -12 -31 31
0 33 0 33 49 33 27 0 63 3 80 6 27 6 32 11 29 32 -4 29 -31 41 -73 32z"/>
<path d="M7835 3909 c-66 -32 -70 -40 -70 -132 0 -69 5 -90 27 -133 29 -56 24
-53 153 -70 47 -6 98 17 128 57 27 37 27 122 0 174 -31 59 -89 115 -121 116
-15 0 -38 2 -52 4 -14 2 -43 -6 -65 -16z m148 -92 c41 -46 49 -72 37 -118 -14
-49 -44 -63 -117 -54 -51 6 -51 6 -59 48 -15 92 -5 139 34 154 39 15 73 5 105
-30z"/>
<path d="M21631 4210 c-22 -16 -23 -22 -16 -76 8 -66 26 -109 51 -118 27 -11
32 2 28 72 -9 137 -19 156 -63 122z"/>
<path d="M10716 4160 c-10 -25 -25 -153 -20 -162 8 -12 50 -10 62 5 5 6 8 23
7 37 -2 14 -4 39 -4 56 -1 38 -36 88 -45 64z"/>
<path d="M15512 4103 c-72 -15 -156 -55 -205 -98 -46 -40 -61 -61 -91 -134
-31 -74 -36 -98 -36 -163 0 -88 21 -190 51 -248 20 -38 81 -100 98 -100 4 0
21 -12 37 -27 147 -136 361 -127 523 23 59 54 92 109 127 212 20 58 5 200 -27
263 -34 66 -106 151 -150 178 -22 12 -39 27 -39 33 0 13 -88 50 -130 54 -19 2
-57 5 -85 8 -27 2 -60 2 -73 -1z m155 -107 c72 -19 108 -43 181 -122 50 -53
66 -79 82 -131 24 -79 24 -93 1 -164 -56 -166 -128 -224 -301 -238 -102 -9
-125 -3 -133 37 -5 25 -12 31 -43 37 -79 14 -117 41 -154 108 -34 61 -35 65
-35 177 0 128 4 138 79 218 68 72 214 107 323 78z"/>
<path d="M15549 3901 c-91 -28 -148 -94 -103 -119 20 -11 47 -5 92 20 51 28
88 24 105 -12 24 -47 30 -90 17 -114 -10 -20 -17 -22 -72 -18 -75 6 -131 -12
-165 -52 -22 -26 -24 -37 -20 -80 6 -68 35 -92 122 -101 77 -9 98 1 145 70 17
25 35 43 40 40 5 -3 18 -25 28 -48 26 -57 46 -73 77 -59 18 8 22 16 18 34 -8
36 -64 152 -78 163 -9 7 -14 41 -16 95 -4 91 -24 141 -71 174 -24 17 -75 20
-119 7z m70 -337 c3 -2 -6 -16 -19 -29 -21 -22 -32 -25 -75 -23 -40 2 -51 7
-53 22 -7 33 26 48 88 40 30 -4 57 -8 59 -10z"/>
<path d="M17360 4069 c-19 -4 -89 -15 -155 -24 -132 -17 -171 -35 -168 -76 1
-13 6 -73 12 -134 21 -213 35 -1019 20 -1086 -6 -26 -14 -91 -18 -145 -6 -87
-5 -100 11 -116 10 -10 18 -22 18 -28 0 -5 1 -10 3 -11 1 0 142 -3 312 -5 246
-3 325 -1 380 10 49 11 178 17 435 22 201 4 403 8 450 9 47 1 154 7 238 14 84
7 161 11 172 8 11 -3 37 -1 57 4 21 5 96 11 168 15 71 3 133 8 137 10 4 2 55
4 115 5 59 0 158 4 218 9 61 4 145 5 187 1 43 -3 108 -3 145 0 38 4 131 12
208 18 77 6 194 18 260 26 239 30 337 36 400 24 33 -6 111 -12 172 -13 112 -1
113 -1 123 25 8 18 8 39 0 75 -6 27 -13 60 -15 74 -11 86 -18 121 -26 126 -5
3 -9 16 -9 30 0 14 -6 53 -14 87 -17 74 -35 207 -41 298 -2 37 -8 111 -14 165
-6 55 -13 144 -16 199 -5 102 -27 266 -43 320 -10 35 -8 35 -197 24 -71 -4
-143 -12 -158 -18 -16 -6 -52 -13 -80 -15 -29 -2 -95 -9 -147 -15 -76 -9 -139
-8 -315 5 -121 9 -323 20 -450 24 -222 7 -556 24 -707 35 -261 19 -899 33
-1118 25 -36 -2 -166 -1 -290 2 -124 3 -241 2 -260 -3z m458 -88 c14 -4 53 -3
86 1 115 16 142 17 321 7 218 -12 353 -17 593 -23 100 -3 187 -8 193 -12 12
-7 135 -17 214 -17 28 0 127 -4 220 -9 94 -6 240 -11 325 -13 97 -2 185 -9
235 -20 129 -27 393 -30 578 -5 347 46 398 52 411 47 20 -8 22 -24 72 -622 9
-110 18 -209 20 -220 3 -11 9 -47 15 -80 5 -33 14 -76 19 -95 5 -19 16 -69 25
-110 9 -41 19 -84 22 -94 5 -18 0 -19 -108 -12 -110 7 -273 8 -334 2 -16 -2
-82 -9 -145 -16 -63 -7 -126 -13 -140 -15 -14 -1 -47 -5 -75 -9 -87 -12 -204
-18 -395 -21 -102 -1 -243 -5 -315 -9 -71 -4 -179 -9 -240 -12 -344 -16 -625
-33 -635 -39 -15 -9 -188 -15 -550 -20 -184 -2 -371 -9 -415 -15 -117 -15
-308 -29 -318 -23 -4 3 -84 5 -178 5 -198 0 -205 2 -196 77 3 25 10 84 16 131
21 182 15 644 -15 1015 -8 98 -11 182 -6 186 7 7 101 27 152 34 14 1 32 5 40
8 8 4 31 8 50 9 58 6 430 -4 458 -11z"/>
<path d="M19175 3690 c-3 -5 10 -75 30 -156 20 -80 34 -152 31 -159 -2 -7 0
-31 6 -52 7 -21 11 -85 9 -141 -2 -95 0 -106 19 -122 24 -21 44 -17 56 8 5 9
8 70 9 134 0 64 3 119 6 122 3 4 48 -34 99 -84 51 -49 97 -90 102 -90 6 0 38
-25 73 -55 63 -56 93 -66 114 -41 12 14 5 46 -11 46 -5 0 -20 11 -34 25 -13
13 -74 68 -134 121 -61 52 -110 101 -110 108 0 10 101 57 173 80 21 7 22 39 2
56 -18 15 -59 6 -192 -41 -46 -16 -89 -26 -97 -23 -17 6 -26 32 -56 153 -11
47 -28 93 -37 103 -17 20 -48 24 -58 8z"/>
<path d="M17387 3622 c-10 -11 -13 -22 -7 -33 15 -26 81 -210 95 -264 7 -27
21 -77 30 -110 10 -33 20 -80 24 -105 9 -58 37 -100 66 -100 17 0 34 20 78 93
31 50 59 101 63 112 4 11 16 32 26 47 10 14 18 33 18 42 0 27 17 18 41 -21 27
-45 46 -90 65 -157 20 -70 53 -116 84 -116 20 0 30 11 54 58 16 31 35 69 43
85 8 15 11 31 8 37 -3 5 1 20 9 33 20 30 55 198 54 259 -1 26 4 54 11 62 10
12 8 23 -9 55 -17 35 -24 40 -39 32 -35 -19 -41 -40 -50 -167 -5 -71 -12 -142
-16 -159 -11 -50 -68 -176 -75 -168 -4 4 -15 33 -25 63 -10 30 -26 67 -36 82
-11 14 -19 30 -19 36 0 16 -53 106 -73 124 -28 25 -44 13 -78 -61 -91 -193
-115 -240 -120 -241 -4 0 -12 28 -19 63 -7 34 -18 73 -25 87 -15 30 -70 199
-85 257 -10 42 -48 93 -67 93 -5 0 -17 -8 -26 -18z"/>
<path d="M20429 3519 c-82 -23 -132 -51 -147 -83 -6 -13 -14 -52 -18 -87 l-7
-62 -19 36 c-21 42 -28 45 -53 17 -17 -18 -16 -23 28 -115 44 -93 84 -142 111
-132 10 4 15 39 20 124 9 157 11 166 47 187 40 24 143 48 196 47 38 -1 73 17
73 38 0 45 -122 61 -231 30z"/>
<path d="M19814 3411 c-23 -10 -57 -35 -75 -54 -32 -34 -34 -40 -35 -116 -2
-67 1 -83 17 -97 10 -9 19 -24 19 -33 0 -9 8 -25 18 -37 25 -30 91 -78 99 -70
3 3 12 1 19 -5 17 -14 167 -13 212 3 51 17 62 27 62 55 0 24 -2 25 -47 18 -55
-9 -55 -9 -150 -7 -66 2 -76 5 -108 33 -53 47 -45 68 32 90 63 17 72 23 124
71 40 37 39 78 -4 125 -29 31 -41 37 -88 40 -39 3 -66 -2 -95 -16z m133 -77
c16 -26 16 -27 -6 -45 -47 -38 -171 -58 -171 -27 0 20 56 87 75 91 58 12 85 7
102 -19z"/>
<path d="M18978 3390 c-14 -4 -49 -20 -78 -36 -41 -22 -58 -40 -86 -91 -20
-35 -38 -63 -40 -63 -3 0 -10 13 -17 29 -12 29 -13 29 -36 12 -28 -21 -24 -53
9 -88 11 -12 20 -31 20 -42 0 -11 5 -23 10 -26 6 -3 10 -17 10 -29 0 -14 10
-30 26 -41 38 -25 56 -5 53 59 -4 95 0 113 37 157 58 70 85 82 186 81 71 -1
88 2 88 13 0 8 -6 15 -13 15 -7 0 -18 9 -24 19 -7 11 -29 25 -50 30 -43 12
-57 12 -95 1z"/>
<path d="M18302 3304 c-12 -3 -34 -22 -50 -41 -51 -68 -32 -216 38 -291 22
-23 83 -31 95 -12 4 7 12 7 25 0 27 -15 67 -12 134 9 35 10 66 28 77 42 63 82
3 216 -121 271 -44 20 -152 32 -198 22z m188 -100 c44 -18 66 -45 75 -95 6
-30 3 -36 -23 -51 -35 -21 -102 -33 -137 -24 -15 4 -30 17 -36 32 -7 21 -15
25 -34 22 -28 -6 -35 7 -35 62 0 57 38 84 103 75 27 -3 66 -13 87 -21z"/>
<path d="M5497 3959 c-10 -6 -63 -56 -118 -110 -85 -85 -130 -138 -198 -230
-11 -15 -11 -27 0 -69 8 -32 18 -50 28 -50 8 0 22 -7 32 -16 25 -23 87 -43
133 -44 28 0 52 -10 87 -35 27 -19 54 -35 60 -35 7 0 27 -10 47 -22 l35 -21
19 24 c17 21 18 36 14 129 -3 58 -8 128 -12 155 l-6 51 38 16 c85 36 337 47
659 29 66 -3 138 -4 160 -1 22 3 58 3 80 -1 22 -4 56 -4 75 0 21 4 42 3 52 -3
12 -7 21 -7 29 1 16 16 -3 46 -44 72 -29 18 -55 21 -213 26 -218 6 -406 15
-414 20 -18 11 -275 -18 -354 -40 -65 -18 -92 -22 -97 -13 -4 6 -10 36 -14 67
-8 62 -29 111 -48 111 -6 0 -20 -5 -30 -11z"/>
<path d="M9514 3860 c-10 -4 -53 -7 -94 -6 -41 1 -97 -2 -125 -6 -27 -4 -66
-10 -85 -12 -19 -2 -66 -10 -105 -17 -38 -6 -88 -15 -109 -18 -45 -7 -67 -32
-50 -58 9 -15 23 -17 75 -15 35 1 84 9 109 17 70 22 520 31 1003 19 107 -2
147 0 147 8 0 9 3 9 12 0 19 -19 135 -16 146 4 7 13 13 14 28 6 11 -6 56 -11
99 -13 44 -1 131 -8 194 -16 62 -8 116 -12 119 -9 8 8 -29 46 -45 46 -7 0 -13
11 -13 24 0 34 -18 38 -168 38 -218 0 -728 5 -928 10 -105 3 -199 2 -210 -2z"/>
<path d="M16653 3831 c-17 -14 -27 -42 -41 -107 -13 -69 -21 -88 -32 -85 -42
12 -168 23 -274 25 -113 2 -121 1 -148 -22 l-29 -25 23 -24 c22 -24 28 -25
138 -23 115 3 235 -11 271 -30 17 -9 19 -22 19 -103 0 -81 -2 -94 -20 -105
-24 -15 -26 -35 -4 -57 13 -13 28 -14 78 -9 33 3 75 12 91 19 17 7 78 25 137
40 113 29 152 52 164 98 5 21 -6 40 -60 109 -37 46 -75 92 -85 103 -10 11 -43
54 -74 97 -56 76 -100 118 -121 118 -6 -1 -21 -9 -33 -19z"/>
<path d="M14152 3797 c-28 -29 -27 -39 1 -64 30 -28 162 -43 262 -30 27 4 63
3 80 -2 24 -8 249 -24 317 -23 10 1 20 -3 23 -9 4 -5 25 -9 48 -9 23 -1 69 -7
101 -15 33 -8 63 -12 68 -9 14 9 9 51 -9 73 -24 28 -156 61 -247 61 -39 0 -98
5 -131 10 -33 6 -139 13 -236 15 -97 3 -189 9 -204 15 -38 15 -49 13 -73 -13z"/>
<path d="M21616 3754 c-27 -15 -28 -18 -22 -67 7 -53 44 -107 73 -107 23 0 11
179 -12 186 -6 2 -23 -4 -39 -12z"/>
<path d="M9726 3597 c-13 -18 -14 -42 -6 -147 10 -133 9 -140 -38 -140 -51 0
-128 -65 -118 -98 9 -29 -15 -49 -65 -54 -55 -6 -109 12 -88 28 8 6 32 16 54
22 54 15 85 45 85 83 0 48 -24 84 -65 96 -58 18 -101 -12 -123 -87 -6 -19 -18
-55 -27 -79 -24 -65 -14 -88 48 -116 55 -25 70 -28 130 -26 31 1 40 6 49 29 7
15 13 29 15 31 1 2 18 -10 38 -28 62 -54 117 -53 170 4 39 41 51 111 30 173
-18 50 -35 157 -35 214 0 37 -4 83 -9 111 -2 15 -31 6 -45 -16z m-238 -303 c2
-17 -4 -23 -29 -28 -39 -8 -43 -4 -35 29 5 21 12 26 34 23 19 -2 28 -10 30
-24z m258 -70 c44 -21 43 -39 -3 -60 -21 -10 -41 -19 -44 -20 -12 -7 -59 45
-59 65 0 14 8 21 28 24 15 2 31 5 35 6 5 0 24 -6 43 -15z"/>
<path d="M9060 3550 c-13 -8 -12 -18 4 -77 10 -37 20 -90 23 -118 2 -27 8 -68
13 -89 5 -22 7 -69 5 -106 -4 -58 -2 -70 16 -86 21 -18 21 -18 40 5 11 13 19
39 19 60 0 43 25 84 38 64 4 -7 14 -46 21 -88 20 -113 59 -129 68 -28 5 49
-17 145 -40 176 -13 19 -50 24 -84 13 -26 -8 -28 -1 -38 109 -4 39 -13 94 -21
123 -16 53 -31 63 -64 42z"/>
<path d="M10070 3536 c-26 -29 -21 -55 12 -57 13 -1 50 -3 83 -4 126 -5 168
-45 104 -100 -29 -24 -39 -26 -79 -21 -39 5 -50 3 -65 -14 -15 -16 -17 -26 -9
-48 8 -24 15 -27 61 -30 41 -2 58 -9 83 -32 26 -24 29 -32 21 -49 -6 -11 -19
-22 -30 -26 -32 -10 -138 -8 -159 4 -27 15 -51 4 -58 -26 -10 -37 17 -56 92
-69 77 -13 142 3 199 49 44 35 46 74 8 153 -25 50 -26 57 -12 67 8 7 24 24 34
40 15 24 16 32 5 73 -15 53 -52 84 -123 102 -80 20 -140 16 -167 -12z"/>
<path d="M10473 3525 c-20 -14 -21 -21 -16 -137 3 -68 6 -123 7 -124 0 -1 13
-4 28 -8 25 -6 28 -3 37 31 17 60 -4 253 -28 253 -3 0 -16 -7 -28 -15z"/>
<path d="M10725 3531 c-8 -14 6 -201 16 -207 5 -3 9 -16 9 -30 0 -27 15 -32
24 -8 3 9 6 56 6 106 0 67 -4 97 -17 119 -18 30 -28 35 -38 20z"/>
<path d="M8915 3440 c-4 -6 -15 -8 -25 -5 -41 13 -102 -43 -93 -85 12 -58 53
-131 80 -141 67 -27 73 -32 62 -46 -7 -8 -33 -13 -66 -13 -45 0 -58 -4 -80
-26 -35 -35 -21 -46 70 -52 116 -7 176 31 163 103 -8 39 -16 47 -76 69 -50 19
-64 34 -74 83 -7 29 -5 33 20 39 15 4 40 2 55 -3 36 -14 62 11 57 54 -3 25 -7
28 -45 31 -22 2 -44 -2 -48 -8z"/>
<path d="M21650 3285 c-21 -25 -20 -154 1 -168 34 -22 49 -2 48 65 -2 102 -19
139 -49 103z"/>
<path d="M10472 3178 c-18 -18 -15 -36 11 -64 23 -24 24 -24 41 -6 9 11 18 32
19 48 2 25 -2 29 -28 32 -17 2 -36 -3 -43 -10z"/>
<path d="M10719 3128 c-15 -27 -6 -173 12 -210 16 -31 34 -36 43 -12 3 9 6 60
6 114 0 54 -3 105 -6 114 -9 23 -41 20 -55 -6z"/>
<path d="M21673 2884 c-22 -22 -25 -32 -20 -71 6 -56 38 -94 65 -77 13 9 17
27 18 85 1 94 -15 111 -63 63z"/>
<path d="M14390 2874 c-47 -8 -114 -17 -150 -20 -107 -11 -145 -40 -120 -92
23 -50 30 -152 18 -260 -11 -97 -11 -104 9 -130 41 -55 61 -45 168 86 28 34
54 62 59 62 5 0 26 -16 47 -35 22 -19 45 -35 52 -35 8 0 21 -8 31 -19 9 -10
36 -26 59 -36 23 -9 51 -21 62 -26 37 -16 110 -34 140 -34 22 0 31 5 33 20 5
39 -39 74 -164 128 -122 53 -184 93 -184 121 0 8 21 43 48 78 58 78 83 160 56
190 -20 21 -46 21 -164 2z"/>
<path d="M15605 2852 c-27 -7 -86 -12 -130 -13 -44 0 -108 -7 -143 -14 -77
-18 -106 -19 -133 -2 -17 9 -23 9 -26 0 -6 -16 -41 -58 -118 -140 -81 -87
-109 -137 -93 -163 7 -11 17 -20 22 -20 9 0 5 -22 -14 -100 -6 -25 -14 -87
-16 -139 -3 -51 -9 -101 -14 -111 -6 -10 -5 -21 1 -27 6 -6 4 -32 -5 -74 -19
-81 -15 -130 10 -140 11 -4 41 -8 68 -8 27 -1 72 -7 100 -15 154 -44 238 -57
441 -71 50 -3 111 -11 137 -16 55 -12 87 0 89 34 1 12 2 49 4 82 1 33 9 89 17
125 13 51 15 119 13 320 -1 140 1 291 6 335 5 43 6 96 3 116 -6 35 -10 38 -48
45 -63 11 -116 10 -171 -4z m140 -135 c-3 -29 -8 -65 -10 -82 -3 -16 -4 -77
-4 -135 2 -252 -1 -367 -11 -390 -5 -14 -11 -67 -13 -119 l-4 -93 -128 1 c-74
1 -152 8 -184 17 -30 7 -65 14 -77 14 -23 0 -92 16 -232 53 l-82 22 5 60 c15
160 50 399 61 416 2 3 25 2 51 -3 191 -34 249 -31 258 12 7 32 -13 106 -44
168 -12 23 -21 44 -21 46 0 3 14 13 31 22 23 11 68 17 164 20 73 2 143 8 156
12 13 5 38 9 56 10 l34 1 -6 -52z m-502 -62 c40 -61 47 -94 20 -96 -53 -5
-173 9 -173 19 0 9 102 132 110 132 3 0 22 -25 43 -55z"/>
<path d="M15265 2422 c-31 -4 -75 -37 -75 -57 0 -6 10 -21 23 -33 17 -16 36
-22 77 -22 91 -1 104 -3 122 -25 26 -30 22 -38 -14 -30 -63 13 -102 8 -158
-23 -64 -36 -75 -64 -53 -133 18 -54 47 -86 84 -94 40 -9 142 22 177 55 l31
28 28 -36 c42 -55 61 -72 83 -72 17 0 20 7 20 39 0 30 -10 52 -44 98 -56 76
-62 89 -70 141 -7 47 -48 136 -68 149 -16 9 -122 19 -163 15z m145 -285 c0
-13 -89 -47 -122 -47 -9 0 -22 7 -29 16 -11 14 -10 18 6 30 25 19 145 19 145
1z"/>
<path d="M10767 2825 c-8 -7 -18 -35 -21 -60 -6 -37 -3 -50 14 -75 26 -36 36
-38 44 -7 13 50 4 157 -14 157 -5 0 -15 -7 -23 -15z"/>
<path d="M5625 2678 c-29 -9 -82 -31 -190 -78 -27 -12 -69 -36 -93 -52 -38
-26 -49 -29 -87 -23 -81 12 -83 -32 -13 -245 65 -199 89 -260 111 -281 11 -10
24 -19 27 -19 12 0 107 124 145 188 28 48 40 61 49 52 8 -5 42 -19 77 -31 35
-11 73 -24 84 -28 141 -59 229 -83 302 -83 49 0 84 -5 93 -13 20 -16 122 -28
235 -26 50 1 95 2 100 1 139 -6 357 -20 362 -23 5 -3 82 -8 173 -12 91 -3 170
-11 177 -17 16 -13 100 -3 119 13 24 19 15 46 -20 68 -27 17 -50 21 -117 21
-46 0 -113 5 -149 11 -36 5 -105 12 -155 15 -49 3 -121 9 -160 15 -38 5 -155
10 -260 9 -134 0 -213 4 -270 15 -44 8 -111 20 -149 26 -39 6 -88 16 -110 23
-23 7 -61 19 -86 26 -25 7 -75 25 -111 41 -36 16 -75 29 -86 29 -12 0 -23 5
-25 12 -2 6 17 74 43 151 41 121 46 143 37 175 -13 48 -17 51 -53 40z"/>
<path d="M8145 2639 c-66 -10 -233 -27 -265 -26 -67 0 -225 -14 -231 -21 -8
-9 -35 -63 -83 -164 -28 -59 -42 -78 -57 -78 -11 0 -31 -12 -46 -26 -23 -24
-25 -30 -18 -88 3 -35 8 -150 10 -257 6 -286 14 -307 123 -307 44 0 81 -6 107
-17 49 -23 266 -54 440 -65 72 -4 159 -11 195 -15 79 -10 120 -9 133 4 6 6 5
30 -3 63 -19 87 -23 264 -12 608 13 398 14 389 -80 391 -35 1 -85 2 -113 3
-27 1 -72 -1 -100 -5z m219 -256 c-4 -98 -8 -302 -9 -453 l-1 -275 -24 2 c-14
1 -54 5 -90 8 -36 3 -112 7 -170 10 -58 3 -123 9 -145 15 -22 5 -64 10 -92 10
-29 0 -76 9 -105 20 -29 11 -81 23 -116 27 -34 3 -65 9 -67 13 -2 4 -5 117 -7
251 -1 208 0 243 13 241 8 -2 39 -8 69 -13 30 -5 56 -13 58 -19 2 -5 11 -10
20 -10 10 0 35 -12 57 -25 58 -36 83 -33 91 10 9 48 -11 123 -57 210 -53 101
-52 111 14 119 28 4 122 9 207 11 85 2 156 7 157 12 2 5 48 10 103 11 l101 2
-7 -177z m-649 0 c16 -35 26 -65 23 -69 -11 -10 -118 20 -118 34 0 22 51 115
59 106 4 -5 20 -37 36 -71z"/>
<path d="M8018 2343 c-23 -27 -40 -316 -24 -408 10 -61 16 -72 40 -84 20 -9
31 -10 38 -3 9 9 12 183 8 469 0 13 -27 43 -39 43 -4 0 -15 -8 -23 -17z"/>
<path d="M16778 2575 c-25 -19 -64 -42 -85 -51 -122 -53 -199 -84 -208 -84
-30 0 -263 -79 -271 -91 -3 -5 -24 -9 -47 -10 -23 0 -72 -6 -108 -12 -103 -18
-130 -55 -62 -83 37 -16 74 -15 198 5 78 12 287 69 299 81 6 6 19 10 31 10 12
0 30 7 41 15 10 8 25 15 31 15 19 0 175 75 214 102 94 65 119 106 80 128 -34
17 -64 11 -113 -25z"/>
<path d="M10750 2563 c-14 -9 -27 -19 -30 -23 -3 -3 -45 -22 -95 -42 -213 -86
-290 -119 -309 -132 -23 -14 -76 -27 -116 -27 -14 -1 -33 -5 -42 -10 -10 -5
-61 -16 -115 -24 -54 -8 -118 -19 -143 -25 -102 -25 -138 -31 -234 -41 -126
-13 -140 -14 -207 -27 -30 -6 -74 -13 -99 -16 -25 -2 -52 -7 -60 -9 -8 -3 -58
-8 -110 -11 -52 -3 -111 -10 -130 -16 -19 -5 -98 -11 -175 -14 -139 -5 -254
-18 -287 -31 -10 -4 -18 -17 -18 -30 0 -30 37 -37 194 -34 67 2 127 0 133 -4
6 -4 14 -3 17 2 3 5 49 12 102 16 64 5 100 12 110 23 11 11 18 12 27 3 13 -13
113 -15 122 -2 3 5 30 10 59 10 30 0 65 5 77 11 12 7 47 14 78 16 91 5 298 31
311 39 7 4 36 9 66 10 29 1 59 7 66 13 7 5 51 13 98 17 104 9 106 9 155 31 22
10 45 17 52 16 6 -2 14 2 18 8 3 5 17 10 30 10 22 0 201 72 290 117 22 11 46
18 53 16 7 -3 23 1 35 9 12 8 43 22 68 31 74 28 107 81 73 118 -21 23 -33 24
-64 2z"/>
<path d="M21707 2533 c-3 -4 -10 -41 -16 -82 -10 -65 -10 -79 6 -117 17 -42
36 -59 53 -49 4 3 7 60 7 127 -2 118 -3 123 -24 126 -11 2 -23 0 -26 -5z"/>
<path d="M11173 2317 c-4 -7 -35 -34 -68 -59 -33 -26 -87 -75 -120 -109 -33
-34 -77 -73 -98 -86 -21 -13 -57 -43 -80 -66 -23 -23 -62 -59 -87 -81 -55 -48
-251 -228 -299 -276 -20 -20 -57 -50 -84 -68 -26 -18 -47 -37 -47 -41 0 -5
-22 -23 -49 -40 -27 -17 -62 -44 -79 -59 -65 -59 -119 -104 -150 -122 -18 -11
-32 -24 -32 -29 0 -5 -9 -12 -19 -16 -11 -3 -37 -20 -58 -36 -21 -17 -51 -37
-68 -45 -16 -8 -54 -30 -84 -49 -30 -19 -91 -46 -135 -61 -45 -15 -102 -37
-128 -50 -26 -13 -56 -24 -66 -24 -10 0 -23 -5 -28 -10 -6 -6 -35 -15 -65 -20
-30 -5 -97 -18 -149 -30 -85 -18 -174 -35 -310 -59 -104 -18 -227 -45 -253
-55 -15 -6 -30 -19 -33 -29 -13 -42 41 -59 116 -37 19 6 55 13 79 16 24 2 62
9 85 15 42 11 136 28 191 34 42 5 79 12 160 30 39 9 84 19 100 21 25 4 71 16
120 30 6 2 26 7 46 12 20 5 46 19 58 31 20 20 43 26 84 23 43 -4 239 111 358
209 26 22 51 39 55 39 5 0 38 23 74 51 36 28 97 75 136 104 39 29 91 72 115
95 24 23 69 63 99 89 30 25 107 93 170 151 64 58 154 138 200 179 47 41 130
118 186 171 55 54 114 106 130 116 55 34 74 56 69 81 -3 12 -7 34 -10 48 -6
27 -19 32 -32 12z"/>
<path d="M10755 2290 c-3 -10 -1 -29 6 -41 6 -12 9 -38 5 -57 -6 -42 8 -72 34
-72 18 0 20 7 20 78 0 64 -4 82 -18 95 -24 22 -39 21 -47 -3z"/>
<path d="M21711 2122 c-19 -27 -19 -33 -6 -107 14 -82 30 -110 55 -95 20 12
21 189 1 213 -19 23 -27 21 -50 -11z"/>
<path d="M4960 1943 c-56 -21 -63 -66 -23 -139 88 -164 133 -276 133 -335 0
-21 7 -29 30 -38 17 -5 36 -8 43 -5 15 5 77 104 77 121 0 6 7 16 15 23 11 9
22 6 57 -18 24 -16 72 -44 108 -63 36 -18 93 -57 128 -86 34 -29 68 -53 74
-53 6 0 21 -9 32 -19 12 -11 63 -40 114 -66 52 -25 112 -60 134 -76 23 -16 46
-29 52 -29 6 0 38 -14 71 -30 33 -17 67 -30 76 -30 9 0 33 -11 53 -25 20 -14
51 -25 69 -25 18 0 41 -7 51 -15 11 -8 30 -15 43 -15 12 0 37 -9 55 -20 18
-11 40 -20 49 -20 9 0 22 -6 28 -14 18 -22 110 -62 170 -75 30 -6 60 -16 66
-21 6 -5 29 -13 50 -19 22 -5 57 -14 78 -19 21 -6 43 -15 50 -20 11 -9 57 -20
227 -52 25 -5 95 -14 155 -20 61 -5 117 -11 125 -12 40 -4 60 3 60 20 0 9 -10
24 -22 32 -74 47 -95 53 -253 70 -110 13 -253 49 -355 90 -25 10 -92 32 -150
50 -58 18 -139 49 -180 70 -41 20 -88 40 -104 44 -17 4 -41 15 -55 25 -14 10
-42 22 -61 26 -19 4 -44 13 -55 19 -11 7 -49 23 -85 35 -36 12 -90 37 -120 56
-30 18 -102 59 -160 91 -58 31 -161 94 -230 139 -69 46 -158 102 -198 125 -40
23 -76 49 -79 57 -7 17 6 58 44 146 25 56 26 58 7 78 -10 12 -29 25 -41 30
-26 10 -331 20 -353 12z"/>
<path d="M21766 1787 c-16 -12 -18 -25 -14 -111 3 -84 2 -96 -12 -90 -35 16
-81 16 -105 0 -31 -20 -31 -35 -4 -65 19 -20 28 -22 83 -17 33 3 69 6 78 7 34
1 40 26 39 140 -2 138 -18 170 -65 136z"/>
<path d="M10776 1696 c-14 -22 -14 -32 -1 -91 16 -77 20 -83 43 -69 12 8 18
28 20 71 5 99 -26 143 -62 89z"/>
<path d="M21290 1528 c-72 -11 -84 -23 -67 -67 l12 -33 66 4 c37 3 73 9 80 14
14 9 18 10 72 13 23 1 28 5 25 23 -6 42 -85 61 -188 46z"/>
<path d="M20717 1473 c-14 -14 -14 -19 -2 -43 18 -35 32 -40 125 -46 64 -5 80
-2 108 15 40 26 42 55 5 69 -16 6 -71 13 -124 16 -80 4 -98 3 -112 -11z"/>
<path d="M20168 1423 c-24 -6 -33 -42 -15 -60 15 -16 56 -18 179 -10 74 6 88
11 88 34 0 33 -32 42 -135 42 -55 -1 -108 -3 -117 -6z"/>
<path d="M19738 1393 c-28 -31 0 -55 74 -64 53 -6 66 -4 89 12 15 10 34 19 43
19 34 0 15 28 -21 34 -125 17 -169 17 -185 -1z"/>
<path d="M10781 1381 c-21 -14 -8 -181 16 -198 9 -7 20 -13 24 -13 15 0 22
147 8 184 -13 37 -23 42 -48 27z"/>
<path d="M18545 1372 c-11 -2 -37 -10 -57 -19 -40 -17 -47 -36 -25 -65 12 -15
21 -15 108 -2 134 20 149 24 149 43 -1 37 -18 46 -87 46 -37 0 -77 -1 -88 -3z"/>
<path d="M16852 1358 c-37 -37 3 -72 93 -84 87 -11 101 -7 91 24 -4 12 -31 30
-67 46 -66 28 -99 32 -117 14z"/>
<path d="M17993 1358 c-53 -26 -8 -77 70 -80 92 -4 138 2 162 19 29 22 31 39
7 52 -29 15 -213 22 -239 9z"/>
<path d="M17218 1342 c-54 -17 -63 -41 -26 -66 28 -20 85 -20 131 -1 49 20 52
29 16 59 -35 29 -54 31 -121 8z"/>
<path d="M17598 1351 c-66 -7 -73 -12 -58 -41 15 -28 50 -40 118 -40 44 0 64
5 94 27 58 39 48 58 -32 59 -36 1 -91 -1 -122 -5z"/>
<path d="M19350 1353 c-59 -8 -70 -14 -70 -34 0 -48 14 -56 104 -58 70 -1 93
3 131 21 102 50 0 93 -165 71z"/>
<path d="M18958 1330 c-48 -3 -92 -10 -99 -16 -16 -17 -2 -51 24 -58 44 -14
150 -18 171 -7 11 6 34 12 50 13 35 4 57 31 39 49 -18 18 -87 25 -185 19z"/>
<path d="M16142 1303 c-51 -5 -60 -21 -36 -62 16 -27 24 -31 63 -31 55 0 133
35 129 58 -3 15 -37 28 -93 36 -11 2 -39 1 -63 -1z"/>
<path d="M16480 1301 c-70 -6 -90 -14 -90 -36 0 -20 47 -54 85 -61 38 -7 125
28 125 51 0 16 -35 56 -47 53 -5 0 -37 -4 -73 -7z"/>
<path d="M15720 1291 c-20 -6 -25 -13 -23 -36 3 -37 11 -41 91 -49 53 -5 69
-3 78 9 6 8 25 15 43 15 39 0 42 23 5 46 -28 19 -152 28 -194 15z"/>
<path d="M7942 1279 c-180 -10 -202 -20 -398 -198 -54 -49 -56 -54 -40 -86 8
-16 15 -62 16 -113 1 -48 5 -143 9 -212 5 -84 3 -169 -7 -260 l-13 -135 22
-18 c15 -12 30 -16 43 -12 45 15 140 17 199 5 36 -8 148 -13 267 -14 136 -1
226 -7 268 -16 91 -20 95 -16 106 111 6 72 5 139 -4 219 -7 63 -13 241 -15
395 -1 154 -5 294 -9 310 l-7 30 -162 0 c-89 0 -213 -3 -275 -6z m283 -93 c11
1 27 4 35 8 9 3 23 1 33 -6 15 -12 17 -42 21 -263 3 -137 9 -281 15 -320 11
-81 13 -190 5 -257 l-6 -47 -235 5 c-129 2 -267 9 -306 16 -40 6 -100 11 -135
12 l-63 0 8 65 c4 36 6 184 5 329 l-4 262 26 0 c13 0 27 -4 30 -9 3 -5 20 -11
38 -14 54 -9 128 -31 128 -38 0 -3 -13 -18 -30 -32 -35 -32 -36 -38 -10 -62
18 -16 26 -17 68 -7 130 31 163 25 183 -35 18 -54 7 -67 -36 -42 -58 35 -93
21 -166 -63 -56 -65 -60 -73 -54 -105 10 -57 26 -81 59 -93 17 -7 41 -17 52
-22 35 -16 87 7 137 62 l46 50 16 -23 c8 -12 30 -44 48 -72 27 -42 37 -50 62
-50 25 0 31 4 33 27 3 27 -42 108 -94 171 -20 24 -24 40 -24 98 0 49 -6 82
-20 112 -21 43 -77 91 -121 102 -16 4 -35 26 -59 68 -32 56 -70 143 -70 158 0
10 241 26 305 20 33 -3 69 -5 80 -5z m-449 -92 c22 -38 25 -48 13 -55 -8 -5
-21 -6 -29 -3 -8 4 -33 12 -55 17 -22 6 -42 12 -44 14 -8 5 43 59 62 65 12 3
23 6 24 7 1 1 14 -20 29 -45z m210 -441 c22 -29 16 -49 -20 -77 -42 -32 -92
-35 -101 -6 -10 31 3 57 38 79 39 25 66 26 83 4z"/>
<path d="M13920 1271 c-11 -8 -12 -16 -4 -38 7 -22 21 -32 59 -45 51 -17 121
-23 149 -12 9 3 16 17 16 30 0 30 -52 64 -95 63 -16 0 -48 2 -70 6 -22 3 -47
1 -55 -4z"/>
<path d="M14835 1270 c-16 -4 -43 -13 -58 -19 l-28 -11 18 -30 c15 -27 23 -30
64 -30 33 0 49 5 53 15 4 12 14 14 41 9 39 -7 41 -4 20 35 -21 41 -45 48 -110
31z"/>
<path d="M13600 1258 c-93 -16 -98 -17 -103 -32 -3 -8 0 -22 8 -33 11 -15 26
-18 98 -17 122 3 171 30 128 73 -23 23 -43 24 -131 9z"/>
<path d="M14337 1242 c-30 -33 -6 -58 67 -70 36 -6 65 -6 71 -1 5 5 19 9 30 9
12 0 24 3 28 6 10 10 -4 34 -20 34 -9 0 -21 7 -27 15 -6 9 -35 17 -71 21 -52
5 -62 4 -78 -14z"/>
<path d="M15305 1250 c-40 -16 -47 -35 -24 -64 18 -23 28 -26 79 -26 59 0 90
15 90 44 0 17 -72 56 -101 55 -13 0 -33 -4 -44 -9z"/>
<path d="M13133 1244 c-20 -9 -15 -39 10 -62 34 -32 109 -34 139 -5 l21 22
-24 20 c-14 12 -39 21 -59 21 -19 0 -44 2 -55 5 -11 2 -26 2 -32 -1z"/>
<path d="M11449 1219 c-18 -35 2 -66 48 -72 21 -2 49 1 64 7 17 9 30 9 41 2
13 -8 22 -6 37 8 31 28 26 46 -12 46 -19 0 -56 7 -83 15 -66 20 -81 19 -95 -6z"/>
<path d="M11895 1229 c-56 -13 -62 -23 -31 -54 24 -24 31 -25 93 -22 131 8
162 43 63 70 -66 19 -68 19 -125 6z"/>
<path d="M12746 1225 c-42 -32 21 -71 110 -69 78 2 94 8 94 32 0 40 -160 69
-204 37z"/>
<path d="M12375 1215 c-5 -2 -36 -6 -68 -10 -42 -5 -60 -12 -67 -26 -9 -16 -5
-22 22 -39 18 -11 41 -17 51 -14 10 3 41 7 69 8 48 3 67 15 68 42 0 21 -50 47
-75 39z"/>
<path d="M10944 1195 c-19 -15 -19 -15 1 -30 42 -33 163 -46 172 -19 2 6 -6
23 -17 37 -19 24 -29 27 -79 27 -36 0 -65 -6 -77 -15z"/>
</g>
</svg>
