<?xml version="1.0" standalone="no"?>
<!DOCTYPE svg PUBLIC "-//W3C//DTD SVG 20010904//EN"
 "http://www.w3.org/TR/2001/REC-SVG-20010904/DTD/svg10.dtd">
<svg version="1.0" xmlns="http://www.w3.org/2000/svg"
 width="1166.936511pt" height="400.000000pt" viewBox="0 0 1166.936511 400.000000"
 preserveAspectRatio="xMidYMid meet">
<metadata>
Created by potrace 1.15, written by Peter Selinger 2001-2017
</metadata>
<g transform="translate(-23.085157,420.960467) scale(0.046043,-0.046043)"
fill="#444444" stroke="none">
<path d="M5405 9142 c-45 -3 -70 -30 -60 -62 4 -14 23 -21 78 -30 98 -16 212
-41 227 -50 9 -6 9 -13 0 -29 -10 -19 -3 -36 45 -129 55 -103 125 -280 125
-313 0 -10 -16 -23 -40 -33 -44 -17 -103 -11 -192 21 -51 18 -78 9 -78 -27 0
-20 45 -62 91 -86 46 -23 164 -21 230 5 53 20 57 25 69 67 11 37 10 55 -3 109
-19 77 -67 187 -135 310 -27 50 -46 93 -43 98 4 4 21 3 37 -3 41 -15 306 -9
311 7 2 6 -9 23 -24 37 -22 21 -38 26 -79 26 -63 0 -290 35 -364 55 -72 21
-145 31 -195 27z"/>
<path d="M14863 9108 c-22 -28 -23 -68 -4 -109 29 -59 41 -129 44 -259 3 -105
5 -115 23 -117 10 -2 30 5 42 15 33 26 50 167 32 262 -31 157 -97 258 -137
208z"/>
<path d="M8461 9023 c-12 -14 -19 -33 -17 -42 3 -9 17 -68 32 -131 15 -63 30
-120 35 -126 5 -6 10 -35 13 -66 2 -30 10 -83 16 -117 9 -50 8 -66 -2 -78 -7
-9 -12 -40 -12 -75 1 -50 5 -63 27 -85 42 -42 53 -22 61 109 9 133 34 208 71
208 38 0 97 -93 116 -182 6 -29 18 -65 25 -80 8 -15 14 -41 14 -58 0 -23 6
-33 23 -39 33 -13 41 2 41 82 0 79 -29 175 -71 237 -12 19 -23 40 -23 47 0 16
-97 93 -116 93 -8 0 -29 -7 -45 -16 -17 -8 -36 -13 -43 -11 -13 5 -40 121 -56
240 -9 71 -31 117 -55 117 -7 0 -23 -12 -34 -27z"/>
<path d="M8008 9026 c-26 -14 -77 -64 -77 -76 0 -3 47 -54 104 -115 58 -60
105 -113 105 -117 0 -4 30 -32 67 -63 36 -32 75 -75 86 -96 11 -22 18 -41 16
-42 -91 -51 -125 -56 -206 -32 -35 10 -53 22 -61 40 -16 35 -43 31 -70 -11
l-24 -36 24 -25 c32 -35 48 -41 127 -56 84 -16 168 -8 234 23 26 12 47 23 48
24 0 0 2 20 5 43 7 58 -38 137 -130 229 -122 123 -180 198 -172 220 5 13 19
14 88 9 159 -12 143 -15 143 30 0 32 -5 42 -25 52 -36 18 -247 17 -282 -1z"/>
<path d="M12256 9033 c-4 -4 -19 -8 -34 -9 -15 -1 -35 -2 -44 -3 -45 -3 -158
-151 -158 -205 0 -8 -4 -16 -9 -18 -5 -1 -12 -30 -16 -63 -4 -33 -9 -69 -12
-80 -10 -36 -3 -139 14 -193 13 -42 30 -65 83 -115 36 -34 78 -68 93 -76 24
-13 29 -13 40 2 11 16 16 16 62 2 44 -13 57 -13 105 0 52 14 56 13 107 -10 60
-29 115 -32 134 -9 12 14 8 22 -34 58 l-47 41 29 51 c43 78 53 131 41 214 -5
38 -19 89 -29 113 -11 23 -22 54 -25 69 -3 14 -17 40 -31 56 -14 17 -25 34
-25 40 0 20 -84 103 -123 122 -40 20 -107 27 -121 13z m102 -107 c25 -13 92
-87 92 -101 0 -3 15 -36 34 -74 59 -120 55 -276 -8 -311 -27 -15 -28 -14 -72
35 -25 28 -61 73 -80 102 -41 62 -70 75 -96 43 -10 -12 -18 -31 -18 -42 0 -11
29 -59 65 -106 36 -48 64 -94 63 -102 -3 -16 -46 -23 -94 -15 -17 3 -45 21
-65 41 -19 20 -44 46 -55 58 -71 72 -72 250 -1 395 23 46 39 67 62 77 40 18
139 18 173 0z"/>
<path d="M9850 8996 c0 -12 -7 -31 -15 -42 -11 -14 -13 -36 -8 -88 l6 -69 -29
6 c-30 5 -87 -13 -99 -33 -4 -6 -4 -22 -1 -35 5 -18 18 -27 61 -40 91 -26 92
-31 69 -302 l-7 -82 27 -11 c36 -13 34 -15 50 24 16 39 25 102 30 228 3 48 8
92 11 99 5 7 29 9 76 4 49 -5 74 -3 84 5 18 15 19 54 2 68 -12 11 -69 27 -132
38 -48 9 -54 22 -59 120 -4 100 -14 129 -45 131 -16 1 -21 -4 -21 -21z"/>
<path d="M11092 8997 c-25 -11 -25 -5 -11 -202 l3 -40 -63 -5 c-50 -4 -67 -10
-82 -29 -38 -46 -25 -57 85 -75 65 -11 70 -13 78 -41 5 -17 6 -50 3 -75 -3
-25 -7 -82 -7 -128 -2 -91 4 -102 54 -102 21 0 29 6 32 23 14 63 26 174 26
237 0 70 1 72 23 67 40 -10 153 -10 170 -1 26 15 8 70 -22 67 -12 -2 -32 4
-44 12 -12 8 -46 19 -74 25 -28 6 -57 18 -63 26 -7 7 -18 49 -26 92 -13 77
-36 146 -51 155 -5 3 -18 0 -31 -6z"/>
<path d="M6584 8794 c-14 -56 28 -92 71 -60 18 13 18 14 -4 50 -27 43 -58 48
-67 10z"/>
<path d="M14480 8779 c-66 -18 -115 -43 -167 -87 -60 -50 -87 -105 -77 -160 7
-44 70 -213 88 -237 33 -46 180 -69 267 -44 78 24 126 92 96 134 -14 18 -16
18 -53 3 -22 -9 -70 -24 -109 -34 -88 -21 -119 -11 -141 43 -8 21 -19 45 -24
55 -7 13 -3 17 28 21 42 5 88 20 147 48 22 11 45 19 50 19 32 0 109 51 130 86
40 65 28 124 -25 124 -16 0 -52 9 -80 20 -55 22 -77 23 -130 9z m95 -120 c0
-18 -78 -56 -138 -68 -27 -5 -59 -19 -73 -32 -21 -20 -24 -20 -24 -5 0 63 165
163 215 131 11 -7 20 -19 20 -26z"/>
<path d="M7500 8732 c-17 -14 -21 -24 -16 -40 14 -43 43 -52 183 -53 110 -1
136 2 162 17 35 21 38 30 14 43 -21 10 -173 33 -250 36 -28 2 -56 5 -61 9 -5
3 -20 -2 -32 -12z"/>
<path d="M9057 8738 c-7 -4 -24 -8 -39 -8 -25 0 -77 -44 -100 -84 -11 -19 -21
-161 -14 -190 9 -37 64 -96 90 -96 11 0 39 -7 61 -14 26 -9 46 -11 57 -5 9 5
30 10 46 12 17 2 42 11 56 20 14 9 29 17 33 17 4 0 21 10 37 23 39 31 53 111
31 178 -34 100 -191 190 -258 147z m105 -90 c25 -20 68 -89 68 -109 0 -41 -44
-91 -100 -115 -8 -3 -25 -11 -38 -17 -19 -9 -27 -6 -57 23 -65 63 -72 166 -12
196 65 34 114 41 139 22z"/>
<path d="M13435 8726 c-22 -11 -56 -37 -76 -56 -46 -44 -92 -149 -83 -188 9
-35 42 -102 63 -125 86 -98 131 -123 190 -107 21 5 44 17 51 25 7 8 19 15 27
15 8 0 26 9 40 20 14 11 38 20 54 20 36 0 44 14 24 43 -11 18 -28 26 -62 31
-40 5 -54 1 -111 -29 -37 -19 -70 -35 -74 -35 -4 0 -14 13 -22 29 -16 29 -7
51 20 51 7 0 42 23 78 50 36 28 70 50 75 50 6 0 21 15 36 34 19 26 24 40 19
64 -9 46 -71 97 -130 110 -27 6 -56 13 -64 15 -8 3 -33 -5 -55 -17z m129 -101
c16 -17 11 -45 -8 -45 -7 0 -22 -9 -34 -20 -12 -11 -25 -20 -29 -20 -4 0 -30
-11 -57 -25 -38 -19 -52 -22 -58 -13 -4 7 -8 15 -8 18 0 14 85 106 104 112 38
11 74 8 90 -7z"/>
<path d="M6185 8726 c-33 -14 -106 -94 -132 -142 -16 -32 -11 -136 9 -180 19
-40 82 -76 140 -79 29 -2 81 -8 116 -14 74 -13 89 -7 145 51 33 36 37 46 37
92 0 119 -152 287 -258 286 -15 -1 -41 -7 -57 -14z m134 -98 c64 -56 94 -107
93 -156 0 -54 -7 -61 -69 -77 -59 -16 -81 -5 -161 74 -46 47 -53 59 -48 83 7
36 47 96 66 101 53 12 84 5 119 -25z"/>
<path d="M14026 8697 c-9 -23 -16 -50 -16 -58 0 -36 -45 -155 -66 -176 -52
-52 -78 -16 -71 96 2 42 8 85 11 97 10 29 -23 69 -51 60 -25 -8 -59 -96 -68
-177 -7 -63 20 -151 57 -181 26 -23 100 -24 118 -3 7 8 19 15 26 15 8 0 30 22
51 50 28 38 40 47 50 38 7 -6 13 -15 13 -21 0 -21 75 -126 98 -136 34 -16 46
-14 71 13 24 25 22 66 -3 66 -13 0 -56 44 -56 58 0 4 -7 20 -15 35 -13 26 -25
68 -56 192 -15 61 -25 75 -54 75 -17 0 -26 -10 -39 -43z"/>
<path d="M10655 8710 c-3 -5 -17 -10 -30 -10 -24 0 -67 -35 -78 -64 -9 -22 32
-57 117 -100 82 -42 156 -105 156 -133 0 -11 -10 -25 -22 -30 -34 -17 -89 -33
-109 -33 -25 0 -49 27 -49 56 0 36 -31 30 -58 -12 l-22 -36 22 -41 c17 -30 31
-43 53 -47 17 -4 39 -12 51 -18 16 -8 30 -6 65 10 117 53 134 65 148 103 14
36 13 40 -13 91 -20 39 -43 63 -84 91 -66 43 -102 73 -102 84 0 16 57 19 92 4
46 -19 68 -11 68 25 0 45 -29 62 -119 67 -48 2 -82 -1 -86 -7z"/>
<path d="M10186 8679 c-14 -17 -29 -43 -32 -57 -4 -15 -16 -39 -26 -55 -31
-43 -44 -177 -19 -177 4 0 20 -24 35 -52 19 -38 45 -66 89 -99 77 -57 112 -71
160 -65 77 10 180 99 163 141 -6 16 -46 21 -46 6 0 -9 -68 -33 -128 -46 -37
-8 -85 17 -127 66 -33 40 -32 54 8 69 36 13 79 31 117 49 30 14 55 65 52 101
-10 90 -42 124 -133 139 -87 15 -84 15 -113 -20z m157 -98 c19 -18 14 -55 -7
-48 -6 3 -20 -4 -32 -14 -24 -22 -112 -51 -119 -39 -5 8 5 36 38 108 10 20 15
22 56 16 25 -3 54 -14 64 -23z"/>
<path d="M9500 8678 c0 -5 -26 -21 -57 -35 -32 -14 -61 -30 -64 -35 -4 -6 -2
-25 3 -42 5 -17 20 -66 33 -110 13 -43 30 -85 38 -94 14 -13 19 -12 47 8 32
23 33 24 27 88 -10 104 26 157 103 154 14 -1 31 2 39 7 36 23 -55 73 -124 70
-25 -2 -45 -7 -45 -11z"/>
<path d="M7035 8650 c-22 -9 -46 -24 -53 -33 -9 -10 -24 -14 -50 -10 -35 5
-39 2 -57 -30 -18 -34 -18 -36 2 -93 12 -33 29 -88 39 -123 18 -65 44 -91 79
-77 14 5 16 19 10 108 -7 115 1 142 48 168 24 13 30 13 55 0 29 -17 112 -135
112 -161 0 -58 67 -179 99 -179 25 0 27 71 5 148 -35 122 -100 219 -174 263
-59 34 -73 37 -115 19z"/>
<path d="M12749 8637 c-10 -18 -19 -39 -20 -47 0 -8 -2 -35 -3 -59 -4 -43 7
-90 40 -185 22 -62 62 -89 119 -80 72 12 119 48 174 137 29 47 47 37 56 -31
11 -83 24 -112 49 -112 12 0 27 -5 34 -12 9 -9 15 -8 27 8 18 24 19 53 2 73
-13 15 -33 81 -73 234 -19 74 -33 92 -66 84 -26 -7 -58 -54 -58 -85 0 -30 -57
-133 -91 -165 -25 -24 -34 -27 -56 -20 -37 13 -54 68 -54 178 l1 91 -31 11
c-28 11 -31 10 -50 -20z"/>
<path d="M11628 8643 c-42 -49 -22 -77 62 -87 30 -3 80 -9 111 -14 69 -9 79
-7 79 21 0 61 -211 127 -252 80z"/>
<path d="M6664 8626 c-7 -19 -9 -78 -6 -193 2 -88 3 -93 28 -110 25 -16 27
-16 41 3 21 27 12 254 -12 290 -17 27 -43 32 -51 10z"/>
<path d="M14900 8460 c-42 -42 -14 -120 43 -120 71 1 94 64 42 115 -29 30 -58
32 -85 5z"/>
<path d="M12476 7453 c-3 -4 -41 -8 -84 -9 -104 -4 -235 -15 -246 -21 -5 -3
-79 -4 -165 -2 -86 1 -174 3 -196 3 -54 1 -379 -15 -435 -21 -64 -6 -409 -14
-570 -12 -145 1 -182 3 -318 14 -48 4 -168 7 -267 6 -99 -1 -265 -2 -370 -3
-104 -1 -271 3 -370 8 -99 5 -236 8 -305 7 -122 -1 -125 -2 -147 -28 -13 -14
-21 -30 -18 -35 10 -16 15 -93 19 -272 2 -97 8 -183 13 -192 5 -10 6 -48 1
-94 -5 -42 -7 -90 -4 -105 3 -15 3 -67 -1 -116 l-6 -87 -111 -29 c-138 -36
-148 -37 -326 -41 -80 -1 -150 -3 -156 -3 -19 -1 -25 -47 -14 -97 33 -145 42
-508 16 -624 -9 -41 -15 -79 -12 -86 9 -22 67 -42 100 -33 106 28 480 26 606
-4 71 -17 196 -26 480 -33 313 -8 374 -11 416 -23 82 -21 289 -31 657 -31 208
0 383 2 388 5 5 4 77 8 161 10 172 5 423 20 543 35 44 5 174 9 289 9 146 1
227 5 265 15 115 29 287 51 521 66 69 4 172 15 230 24 82 12 163 14 370 11
146 -3 294 -9 329 -14 48 -7 89 -6 160 4 63 10 171 15 311 14 122 0 226 4 241
10 21 8 28 18 32 53 4 24 4 61 2 83 -3 22 -7 119 -10 215 -3 96 -7 189 -10
205 -2 17 -9 72 -15 123 -6 52 -17 107 -25 123 -15 28 -19 29 -88 30 -39 1
-88 3 -107 5 -19 1 -123 6 -230 9 -107 4 -198 10 -203 14 -4 4 -10 72 -13 152
-3 79 -10 160 -15 179 -5 19 -14 116 -20 214 -5 99 -14 187 -19 197 -6 10 -10
29 -10 42 0 30 -12 40 -70 56 -25 7 -62 22 -83 32 -21 11 -41 18 -46 15 -11
-7 -174 -7 -311 0 -138 7 -287 9 -431 5 -67 -2 -115 1 -128 9 -24 12 -184 23
-195 13z m319 -122 c44 0 105 0 135 -1 30 0 181 -2 335 -3 276 -3 281 -4 340
-29 72 -31 73 -34 80 -208 5 -130 8 -156 24 -305 35 -311 48 -799 25 -955 l-9
-65 -140 -3 c-77 -1 -168 2 -202 7 -58 9 -326 -1 -393 -14 -14 -3 -124 -14
-245 -25 -121 -11 -278 -31 -348 -45 -110 -22 -158 -26 -333 -26 -112 -1 -241
-5 -286 -10 -46 -5 -133 -11 -195 -14 -61 -3 -169 -12 -240 -20 -71 -8 -233
-15 -363 -16 -129 -1 -292 -6 -361 -12 -130 -10 -284 0 -599 39 -78 10 -231
17 -407 19 -335 4 -459 20 -494 63 -18 23 -19 35 -13 87 3 33 7 197 8 365 2
241 -1 317 -12 364 -13 49 -13 84 -5 205 9 118 8 158 -3 211 -8 39 -14 126
-14 217 l0 151 38 6 c20 3 102 3 182 0 80 -4 305 -8 500 -9 195 -2 397 -6 449
-10 240 -18 380 -22 746 -25 132 0 272 3 310 9 39 5 131 13 205 17 151 8 154
8 300 5 58 -2 152 0 210 4 58 4 139 9 180 11 41 2 104 8 140 12 36 5 135 7
220 5 85 -2 191 -3 235 -2z m1248 -921 c73 0 178 -5 234 -12 99 -11 102 -12
97 -34 -3 -13 1 -45 10 -71 21 -67 34 -507 15 -519 -8 -4 -45 -7 -84 -5 -160
6 -285 4 -365 -6 -52 -7 -93 -7 -108 -2 -24 9 -24 11 -16 92 4 45 8 183 9 307
0 124 2 230 3 237 2 12 38 23 60 17 7 -2 72 -4 145 -4z m-5025 -43 c10 -11 15
-106 12 -227 0 -14 0 -72 0 -130 0 -58 -5 -135 -11 -171 -10 -57 -9 -69 5 -91
10 -16 13 -29 7 -32 -5 -4 -94 -6 -198 -5 -153 2 -197 -1 -239 -15 -63 -21
-109 -9 -101 27 26 104 29 157 17 263 -7 60 -15 158 -17 218 l-5 109 37 -6
c46 -8 51 -12 35 -32 -10 -12 -10 -19 -2 -27 7 -7 12 -27 12 -45 0 -18 6 -53
12 -79 12 -43 11 -47 -10 -64 -28 -23 -28 -37 1 -61 28 -23 122 -25 225 -4 41
9 89 13 108 9 25 -5 34 -3 35 7 0 8 2 48 3 89 4 79 -12 130 -39 130 -26 0 -16
16 21 33 30 15 34 20 24 32 -12 15 -42 20 -52 9 -9 -8 -235 -12 -249 -4 -19
12 23 21 84 19 29 -1 60 1 67 6 7 5 30 12 49 16 20 4 61 14 91 22 30 8 58 15
61 16 4 1 11 -5 17 -12z m-126 -202 c-2 -33 -5 -61 -7 -63 -4 -5 -75 41 -102
66 -13 12 -23 28 -20 35 4 13 56 26 102 23 l30 -1 -3 -60z m-202 16 c12 -24
13 -31 1 -31 -15 0 -42 31 -36 41 10 15 24 10 35 -10z m128 -91 c13 0 22 -6
22 -15 0 -22 -44 -19 -71 6 l-24 21 25 -6 c14 -3 35 -6 48 -6z"/>
<path d="M9405 7036 c-16 -7 -36 -23 -43 -35 -11 -18 -9 -24 14 -43 24 -21 35
-23 159 -23 147 0 162 -5 146 -48 -6 -14 -13 -121 -17 -236 -5 -151 -10 -211
-19 -215 -7 -2 -50 4 -96 14 l-83 18 -18 -22 c-9 -11 -17 -24 -18 -27 -1 -16
81 -59 130 -69 30 -6 68 -15 84 -20 41 -13 259 -5 336 13 100 23 109 28 99 55
-9 22 -23 26 -89 24 -167 -7 -213 -6 -221 5 -6 6 -9 54 -8 105 2 51 -1 155 -5
230 l-9 137 27 11 c45 17 191 5 232 -19 42 -25 53 -12 35 41 -14 41 -81 74
-164 82 -31 2 -60 7 -65 10 -5 3 -69 8 -143 11 -74 3 -156 7 -184 10 -31 3
-61 0 -80 -9z"/>
<path d="M11220 6851 c-5 -11 -10 -33 -10 -48 0 -16 -5 -34 -12 -41 -6 -6 -13
-47 -16 -91 -5 -90 -6 -91 -98 -91 -45 0 -52 -3 -62 -25 -26 -56 -14 -65 83
-65 80 0 82 -3 89 -140 5 -88 9 -107 28 -127 25 -26 53 -30 62 -8 3 9 3 67 1
129 -5 99 -3 115 11 120 9 3 62 9 118 12 124 8 151 16 137 43 -11 21 -85 41
-147 41 -19 0 -55 5 -80 11 -60 15 -68 36 -60 161 7 95 -1 138 -24 138 -5 0
-14 -9 -20 -19z"/>
<path d="M13100 6729 c-58 -13 -117 -52 -157 -104 l-38 -48 0 -144 c1 -114 4
-146 16 -158 8 -9 46 -27 84 -40 53 -19 87 -25 154 -25 105 0 156 13 193 50
27 28 38 70 18 70 -5 0 -10 -4 -10 -10 0 -5 -10 -10 -22 -10 -13 0 -54 -4 -93
-8 -92 -11 -221 11 -236 40 -17 31 -5 43 63 67 34 13 67 27 72 32 6 5 17 9 26
9 9 0 37 22 64 49 40 40 49 57 53 92 9 97 -79 162 -187 138z m94 -95 c9 -8 16
-24 16 -35 0 -20 -33 -59 -50 -59 -6 0 -29 -8 -53 -19 -55 -24 -97 -41 -101
-41 -2 0 -7 7 -10 16 -9 23 30 99 57 111 101 47 118 50 141 27z"/>
<path d="M10733 6692 c-122 -33 -136 -80 -47 -152 79 -63 144 -126 144 -137 0
-16 -87 -45 -112 -38 -13 4 -38 16 -57 26 -54 32 -97 2 -53 -37 64 -57 96 -74
142 -74 63 0 137 27 157 56 35 54 -9 136 -112 210 -30 22 -55 44 -55 51 0 10
43 22 124 35 28 4 44 34 30 56 -15 23 -83 25 -161 4z"/>
<path d="M10216 6676 c-27 -14 -53 -23 -60 -20 -20 7 -39 -13 -38 -42 1 -16 5
-82 10 -147 9 -124 15 -137 58 -137 30 0 35 20 35 127 l-1 92 37 30 c21 17 45
31 54 31 26 0 83 -43 98 -75 20 -41 25 -108 12 -145 -9 -28 -8 -34 14 -56 29
-29 40 -25 60 23 29 69 14 187 -31 249 -27 37 -131 94 -171 94 -16 0 -51 -11
-77 -24z"/>
<path d="M12700 6658 c-14 -5 -61 -23 -105 -39 -58 -20 -89 -39 -114 -65 -33
-35 -33 -38 -29 -104 4 -54 11 -75 34 -105 39 -51 101 -77 189 -78 107 -1 206
52 191 101 -9 28 -26 32 -71 16 -22 -8 -79 -17 -126 -20 -85 -6 -86 -6 -108
21 -39 50 -38 74 2 111 19 18 58 40 86 48 93 27 136 77 99 114 -14 14 -15 14
-48 0z"/>
<path d="M11814 6581 c-10 -10 -48 -28 -84 -41 -36 -12 -72 -28 -80 -35 -8 -8
-27 -18 -42 -24 -15 -6 -41 -29 -58 -52 -37 -52 -40 -105 -8 -158 41 -66 66
-81 139 -81 51 0 53 1 121 70 l69 71 16 -38 c8 -21 19 -48 24 -60 9 -24 74
-57 96 -49 19 8 16 40 -7 69 -11 14 -36 69 -55 121 -36 99 -88 211 -103 220
-5 3 -17 -3 -28 -13z m-2 -161 c-3 -49 -17 -84 -44 -112 -10 -10 -18 -22 -18
-28 0 -5 -9 -10 -19 -10 -11 0 -22 -4 -26 -9 -8 -15 -68 6 -87 30 -42 50 -15
91 97 145 89 43 101 42 97 -16z"/>
<path d="M12144 6568 c-99 -87 -97 -84 -90 -141 4 -29 9 -79 13 -112 6 -65 16
-85 43 -85 29 0 38 22 45 110 7 81 34 160 54 160 5 0 23 -17 40 -39 25 -32 33
-55 44 -130 13 -85 33 -131 59 -131 5 0 15 15 23 33 11 26 12 49 5 100 -15
105 -44 169 -100 221 -59 56 -85 58 -136 14z"/>
<path d="M13916 6326 c-18 -29 -22 -151 -9 -260 12 -87 27 -95 176 -99 l118
-2 -6 -37 c-5 -29 -2 -41 14 -57 24 -24 58 -27 84 -7 22 17 22 74 1 105 -16
23 -16 23 17 19 43 -4 46 12 24 124 -16 78 -19 103 -23 163 -1 16 -8 25 -19
25 -10 0 -31 9 -47 20 -25 16 -48 19 -139 19 -60 0 -124 3 -141 7 -28 5 -35 2
-50 -20z m327 -170 c4 -43 6 -81 4 -83 -7 -7 -149 -5 -204 2 -29 4 -53 12 -53
18 0 7 -3 22 -6 35 -8 29 11 29 77 1 42 -18 54 -20 76 -10 21 10 29 9 45 -5
13 -13 22 -14 29 -7 15 15 5 41 -31 82 -36 40 -31 53 18 49 l37 -4 8 -78z"/>
<path d="M8600 5920 c-42 -42 -7 -135 48 -128 29 3 88 80 77 98 -7 12 -79 50
-95 50 -5 0 -19 -9 -30 -20z"/>
<path d="M16735 6741 c-52 -13 -133 -52 -139 -67 -3 -7 -12 -11 -20 -8 -28 11
-130 -77 -164 -142 -47 -89 -66 -242 -47 -373 10 -67 45 -174 63 -194 18 -20
99 -77 109 -77 4 0 14 -6 22 -13 28 -24 105 -47 156 -47 28 -1 68 -7 90 -15
49 -18 149 -19 212 -3 41 11 62 27 143 110 145 148 150 155 171 237 16 64 17
83 7 140 -6 36 -19 82 -29 101 -10 19 -27 55 -37 80 -48 111 -167 217 -297
262 -51 19 -181 23 -240 9z m267 -127 c142 -71 225 -180 249 -327 12 -70 0
-119 -38 -170 -81 -104 -121 -146 -175 -181 -58 -39 -59 -39 -166 -41 -159 -2
-270 28 -347 97 -48 41 -60 68 -75 161 -23 143 3 278 68 352 35 40 164 111
227 127 51 12 221 1 257 -18z"/>
<path d="M15280 6731 c-162 -50 -284 -192 -347 -403 -56 -190 18 -384 184
-481 107 -62 187 -82 232 -58 12 7 59 11 109 10 150 -2 164 -1 221 17 62 19
120 72 141 127 7 18 16 41 20 52 33 79 54 221 46 307 -11 124 -98 275 -193
336 -45 29 -153 72 -233 93 -42 10 -145 10 -180 0z m202 -116 c140 -42 152
-47 180 -70 15 -13 31 -25 35 -27 12 -5 47 -57 74 -108 20 -40 23 -59 22 -160
0 -118 -14 -189 -49 -265 -14 -28 -32 -46 -68 -64 -47 -24 -60 -26 -228 -28
-99 -2 -187 -7 -197 -12 -21 -12 -98 36 -162 100 -113 113 -105 287 21 477 55
83 127 140 211 166 61 19 68 19 161 -9z"/>
<path d="M18698 6304 c-3 -3 -29 -7 -58 -10 -28 -2 -56 -7 -62 -10 -5 -4 -71
-9 -146 -11 -137 -5 -155 -7 -267 -38 -77 -21 -106 -52 -98 -103 4 -30 20 -51
77 -105 39 -37 101 -85 137 -107 46 -28 72 -52 89 -83 13 -23 29 -47 35 -53 6
-6 28 -42 50 -79 43 -73 59 -86 80 -64 20 20 65 146 65 180 0 16 4 37 9 47 5
9 19 38 30 65 17 37 26 47 45 47 23 0 166 -70 197 -96 8 -8 20 -14 26 -14 6 0
34 -16 63 -35 29 -19 56 -35 61 -35 5 0 54 -37 110 -82 55 -46 132 -105 170
-133 42 -30 84 -70 104 -100 33 -49 54 -73 194 -210 39 -38 82 -91 94 -116 19
-41 253 -299 352 -389 138 -126 191 -162 373 -252 103 -51 189 -94 191 -95 15
-9 -26 -15 -170 -24 -172 -10 -195 -13 -219 -22 -8 -3 -37 -8 -65 -10 -143
-14 -336 -81 -405 -143 -29 -25 -153 -104 -190 -121 -14 -6 -43 -19 -65 -28
-22 -10 -48 -22 -57 -26 -15 -8 -24 4 -58 76 -22 47 -45 85 -51 85 -18 0 -69
-40 -69 -55 0 -7 -20 -28 -45 -46 -25 -19 -71 -58 -103 -88 -31 -30 -79 -69
-107 -88 -27 -18 -73 -49 -102 -68 -29 -19 -59 -45 -68 -59 -16 -24 -15 -27
15 -71 20 -29 39 -45 53 -46 154 -8 188 -13 257 -41 14 -6 58 -14 98 -19 40
-4 87 -15 104 -23 17 -9 34 -13 38 -11 5 3 24 -4 42 -15 19 -11 55 -23 80 -26
l46 -7 13 41 c9 33 9 47 -1 71 -8 19 -10 47 -6 75 6 36 3 48 -11 63 -29 28
-70 95 -77 124 -5 23 -1 29 27 42 18 9 82 46 142 83 61 37 126 76 145 88 19
11 43 30 52 42 10 12 28 24 40 27 13 3 48 12 78 21 96 27 308 54 520 66 113 6
220 15 238 20 33 9 166 -7 247 -29 39 -10 182 -18 189 -10 6 6 9 38 7 75 l-1
31 -87 12 c-49 7 -120 16 -158 20 -58 7 -80 14 -123 44 -45 32 -192 107 -209
107 -4 0 -53 23 -109 50 -56 28 -107 50 -112 50 -5 0 -45 23 -88 52 -55 36
-145 119 -296 270 -120 120 -218 221 -218 224 0 23 -116 173 -188 244 -48 48
-116 117 -152 155 -71 76 -167 147 -245 184 -11 5 -45 33 -76 63 -30 29 -69
60 -85 68 -16 8 -42 25 -57 37 -16 13 -34 23 -41 23 -7 0 -30 14 -51 30 -22
17 -50 30 -66 30 -15 0 -31 5 -34 10 -4 6 -22 17 -41 25 -19 8 -34 19 -34 25
0 6 11 36 24 68 13 31 24 76 23 100 0 39 -2 42 -27 42 -15 0 -29 -3 -32 -6z"/>
<path d="M4617 5754 c-4 -4 -177 -9 -385 -10 -369 -3 -562 -10 -605 -21 -12
-3 -215 -8 -452 -10 -357 -3 -636 4 -845 21 -19 2 -85 -2 -146 -9 -61 -7 -144
-11 -185 -10 -452 14 -706 21 -1209 30 l-235 5 -29 -26 c-29 -26 -29 -26 -16
-73 8 -25 15 -84 17 -131 1 -47 7 -128 12 -180 14 -125 15 -226 3 -330 -6 -47
-8 -88 -6 -91 2 -3 6 -80 8 -170 3 -90 8 -195 10 -234 7 -92 15 -298 21 -515
3 -96 7 -195 10 -220 2 -25 7 -115 10 -200 3 -85 8 -180 12 -210 3 -30 5 -116
4 -190 -1 -74 4 -212 9 -306 6 -94 12 -273 13 -396 2 -177 6 -229 17 -243 31
-37 113 -69 200 -76 47 -4 139 -17 205 -29 66 -12 158 -26 205 -31 117 -12
372 -12 418 0 65 17 165 22 221 10 40 -8 74 -8 135 1 44 7 99 14 121 16 22 2
52 6 68 10 15 3 103 6 195 6 92 0 190 4 217 9 66 11 145 18 355 30 96 5 218
16 270 24 229 34 475 53 578 45 35 -3 73 -1 84 3 12 4 33 4 48 -1 17 -6 49 -5
95 6 56 12 158 15 510 16 424 1 502 -2 583 -23 149 -38 196 -35 208 14 8 33
-12 456 -32 655 -3 30 -7 237 -10 460 -3 361 -11 513 -28 560 -3 8 -8 98 -11
200 -9 299 -12 352 -20 405 -8 51 -9 161 -5 726 2 351 -5 426 -43 433 -101 19
-243 36 -347 41 -69 3 -152 8 -185 11 -33 3 -63 2 -68 -2z m283 -112 c101 3
232 -11 255 -28 19 -14 20 -28 20 -267 0 -139 -4 -310 -9 -382 -6 -71 -10
-150 -9 -175 1 -75 13 -233 19 -260 4 -14 8 -108 11 -210 4 -185 6 -222 17
-445 10 -186 17 -457 20 -725 3 -257 21 -528 38 -570 11 -26 27 -250 18 -255
-3 -2 -41 3 -85 11 -224 41 -240 42 -565 42 -179 0 -350 -4 -380 -9 -30 -5
-181 -11 -334 -14 -287 -5 -386 -12 -636 -45 -132 -18 -286 -31 -524 -45 -49
-3 -93 -8 -98 -11 -5 -3 -113 -10 -241 -16 -250 -10 -283 -12 -367 -22 -30 -4
-134 -8 -230 -10 -96 -2 -186 -7 -200 -10 -31 -7 -44 -8 -205 -7 -149 1 -284
16 -335 37 -19 8 -73 18 -120 23 -186 20 -240 32 -245 55 -2 12 -6 111 -9 221
-2 110 -7 211 -10 225 -3 14 -8 189 -11 390 -3 201 -10 428 -15 505 -6 77 -12
217 -15 310 -3 94 -7 204 -10 245 -3 41 -7 174 -10 295 -4 121 -9 234 -12 250
-3 17 -6 172 -8 345 -1 173 -5 342 -9 375 -3 33 -9 83 -12 111 -5 42 -3 52 11
58 32 12 477 4 522 -9 23 -7 44 -11 46 -9 5 6 276 4 462 -3 152 -6 580 -7 685
-2 36 1 126 -1 200 -5 114 -6 737 -17 920 -16 30 1 96 8 145 17 123 22 141 22
555 24 201 0 385 4 410 8 25 5 104 7 175 5 72 -2 150 -3 175 -2z"/>
<path d="M2970 5315 c-13 -16 -8 -104 10 -175 5 -19 11 -61 14 -93 3 -31 7
-61 9 -65 3 -4 8 -34 11 -67 4 -33 9 -84 12 -112 l6 -53 -83 0 c-125 0 -156
-8 -196 -48 -34 -33 -35 -38 -30 -88 6 -60 38 -137 70 -173 31 -34 95 -61 146
-61 57 0 97 25 189 116 78 78 89 106 40 112 -39 5 -49 23 -59 104 -25 199 -30
248 -34 303 -12 173 -37 290 -65 305 -24 13 -25 13 -40 -5z m39 -671 c17 -10
31 -23 31 -28 0 -5 8 -18 17 -29 17 -18 17 -20 -9 -40 -75 -60 -91 -69 -126
-74 -31 -4 -41 0 -63 24 -27 28 -49 81 -49 114 0 11 10 29 21 40 19 19 30 21
84 17 35 -3 77 -14 94 -24z"/>
<path d="M954 5229 c-15 -29 -14 -37 4 -113 41 -165 37 -497 -8 -573 -18 -30
-18 -33 -2 -53 44 -55 297 -63 445 -14 54 18 56 32 6 56 -28 13 -61 16 -179
15 -178 -2 -195 4 -186 66 10 70 8 396 -3 499 -16 144 -42 184 -77 117z"/>
<path d="M1662 4873 c-34 -6 -102 -75 -102 -104 -1 -13 -7 -35 -14 -47 -15
-28 -4 -117 19 -163 17 -33 62 -59 100 -59 15 0 36 -5 48 -12 75 -40 182 -18
270 55 60 50 40 141 -52 231 -78 76 -181 114 -269 99z m204 -133 c25 -25 52
-57 60 -72 13 -26 12 -29 -27 -72 -34 -37 -51 -47 -96 -57 -46 -11 -59 -10
-78 2 -12 8 -39 25 -59 38 -66 42 -66 94 -2 175 31 38 31 38 94 34 58 -4 65
-7 108 -48z"/>
<path d="M2375 4779 c-33 -12 -81 -36 -106 -55 -26 -19 -50 -34 -54 -34 -8 0
-53 -45 -83 -84 -29 -38 -29 -86 1 -113 26 -25 120 -54 177 -55 38 0 119 40
120 60 1 4 9 17 20 30 l19 23 33 -24 c41 -31 108 -59 125 -53 22 9 15 38 -16
71 -35 36 -111 177 -111 204 0 20 -35 51 -55 51 -5 -1 -37 -10 -70 -21z m18
-105 c12 -4 12 -11 0 -45 -20 -60 -74 -111 -117 -112 -41 -1 -62 14 -50 36 22
37 67 79 106 101 24 13 44 24 45 25 1 1 8 -1 16 -5z"/>
<path d="M2064 3866 c-7 -29 1 -106 16 -159 6 -21 10 -48 9 -60 -2 -12 0 -31
4 -42 3 -11 9 -45 13 -75 3 -30 8 -66 11 -80 3 -14 6 -88 7 -165 1 -77 5 -146
10 -153 12 -20 57 -35 69 -23 31 31 -20 601 -66 736 -11 31 -20 41 -40 43 -21
3 -28 -2 -33 -22z"/>
<path d="M978 3830 c-36 -27 -35 -44 1 -71 35 -25 39 -49 48 -240 7 -167 7
-178 -2 -262 -9 -81 4 -104 63 -105 20 -1 52 -6 71 -12 89 -26 200 19 268 108
53 70 42 110 -56 213 -28 29 -51 57 -51 61 0 4 14 15 30 25 17 10 42 35 57 56
24 34 25 41 15 75 -9 29 -26 49 -69 82 -91 68 -134 83 -248 88 -91 4 -102 2
-127 -18z m224 -74 c79 -21 125 -43 143 -68 15 -22 14 -24 -17 -50 -33 -27
-158 -78 -190 -78 -26 0 -35 26 -41 117 -8 101 0 107 105 79z m76 -317 c23
-16 47 -29 52 -29 13 0 40 -41 40 -61 0 -20 -72 -95 -109 -114 -34 -17 -123
-28 -139 -16 -11 6 -13 35 -8 132 3 68 5 124 5 125 1 0 27 -1 59 -3 42 -4 68
-12 100 -34z"/>
<path d="M3525 3591 c-60 -34 -117 -97 -152 -165 -31 -61 -26 -113 18 -179 54
-81 158 -126 264 -112 85 10 180 94 146 128 -8 8 -17 8 -33 0 -20 -10 -61 -21
-137 -37 -75 -16 -181 43 -181 100 0 57 90 176 155 206 28 12 50 51 42 72 -10
25 -66 19 -122 -13z"/>
<path d="M3995 3606 c-16 -6 -46 -22 -65 -35 -38 -26 -140 -138 -154 -170 -10
-23 40 -130 100 -209 72 -97 192 -129 292 -78 90 46 108 95 27 76 -22 -5 -67
-10 -101 -10 -51 0 -67 4 -100 28 -48 35 -72 75 -56 95 7 8 30 19 51 26 22 6
61 29 88 50 27 21 58 43 71 50 16 8 22 21 22 44 0 84 -101 160 -175 133z m85
-110 c0 -18 -138 -96 -171 -96 -20 0 -7 28 30 64 60 59 141 78 141 32z"/>
<path d="M4535 3589 c-33 -16 -71 -43 -85 -59 -19 -22 -29 -27 -40 -20 -25 16
-46 11 -57 -12 -9 -21 9 -268 22 -305 2 -6 18 -14 35 -18 45 -10 60 14 58 96
-2 83 25 161 67 193 61 47 89 55 191 58 80 2 99 6 99 18 0 24 -103 69 -170 74
-52 5 -68 1 -120 -25z"/>
<path d="M2977 3548 c-23 -24 -49 -55 -57 -71 -10 -21 -18 -26 -34 -20 -51 16
-61 11 -59 -32 2 -49 36 -225 46 -242 5 -7 21 -13 38 -13 29 0 29 0 29 63 0
176 93 305 157 218 37 -49 55 -104 58 -171 1 -36 7 -81 13 -100 6 -19 14 -47
17 -62 4 -22 11 -28 30 -28 50 0 56 71 22 240 -32 157 -88 234 -185 255 -29 6
-37 2 -75 -37z"/>
<path d="M2560 3560 c-111 -35 -206 -102 -245 -173 -24 -42 -27 -58 -23 -116
4 -83 31 -127 84 -137 69 -13 146 36 218 141 10 15 22 23 26 18 4 -4 22 -42
39 -84 28 -67 36 -77 60 -81 16 -2 36 1 45 8 15 10 14 16 -9 60 -14 27 -30 78
-36 114 -14 89 -56 214 -77 233 -24 20 -52 27 -82 17z m16 -113 c11 -30 -77
-178 -131 -218 -41 -31 -51 -30 -66 8 -18 47 8 108 67 162 30 28 67 52 82 54
15 2 31 5 35 6 4 0 10 -5 13 -12z"/>
<path d="M1815 3531 c-18 -5 -84 -48 -195 -127 -91 -64 -116 -106 -125 -204
-5 -54 2 -67 61 -101 47 -27 62 -30 97 -25 57 9 101 39 148 101 l40 53 24 -24
c14 -14 32 -38 40 -54 30 -59 115 -94 139 -57 9 15 6 22 -21 45 -41 36 -55 66
-88 197 -27 109 -63 188 -87 197 -7 3 -22 2 -33 -1z m-6 -135 c19 -22 3 -79
-41 -154 -34 -57 -48 -70 -90 -89 -38 -17 -55 -20 -70 -12 -24 13 -36 44 -30
78 5 24 123 151 141 151 4 0 18 9 31 20 27 24 43 25 59 6z"/>
<path d="M24769 4754 c-10 -12 -10 -29 -1 -87 35 -211 43 -330 30 -449 -6 -65
-10 -119 -7 -120 2 -2 32 -29 66 -61 58 -54 64 -57 113 -57 62 0 101 20 137
73 l26 38 -17 62 c-40 143 -126 227 -204 199 -27 -9 -30 -8 -41 24 -7 19 -10
38 -6 43 5 9 -2 83 -24 254 -12 90 -39 121 -72 81z m227 -496 c30 -36 43 -64
50 -108 9 -54 -6 -70 -67 -70 -49 0 -68 11 -90 52 -14 26 -3 107 18 131 22 24
66 22 89 -5z"/>
<path d="M23430 4700 c-28 -28 -35 -67 -21 -114 16 -53 37 -224 28 -232 -3 -4
-27 -8 -53 -10 -77 -6 -156 -63 -183 -131 -15 -36 -8 -107 11 -132 54 -67 95
-79 171 -51 52 20 78 39 170 126 39 37 50 80 21 86 -20 4 -63 144 -64 208 0
25 -6 76 -14 113 -8 38 -13 77 -11 88 5 25 -11 69 -25 69 -5 0 -19 -9 -30 -20z
m8 -461 c23 -10 42 -22 42 -27 0 -10 -44 -51 -87 -80 -57 -40 -123 -19 -123
38 0 20 12 39 41 64 43 40 47 40 127 5z"/>
<path d="M25285 4608 c-30 -17 -34 -28 -23 -58 10 -29 54 -77 63 -68 16 15 21
67 11 98 -13 38 -23 44 -51 28z"/>
<path d="M21454 4586 c-27 -6 -63 -21 -79 -34 -26 -20 -28 -25 -16 -44 7 -11
10 -22 7 -25 -2 -3 1 -21 8 -41 8 -24 13 -101 14 -216 1 -163 3 -181 20 -199
20 -19 20 -19 41 2 13 13 21 34 21 54 0 57 10 79 34 74 44 -10 93 -33 136 -64
25 -18 70 -47 100 -64 30 -18 62 -38 70 -44 8 -7 25 -16 37 -19 19 -6 25 -2
33 18 14 37 -1 67 -50 96 -23 14 -58 39 -79 55 -20 17 -58 41 -84 54 -26 13
-47 27 -47 30 0 3 23 17 51 31 83 40 141 130 126 192 -9 33 -71 94 -132 129
-56 32 -117 36 -211 15z m241 -138 c30 -36 31 -58 6 -87 -35 -41 -92 -64 -158
-65 -34 -1 -65 2 -69 7 -10 9 -23 170 -15 179 3 3 31 9 61 13 30 4 56 8 58 9
10 10 97 -32 117 -56z"/>
<path d="M10759 4575 c-3 -2 -70 -7 -150 -9 -292 -11 -424 -18 -439 -23 -76
-29 -749 -38 -926 -12 -34 5 -115 10 -179 11 -153 3 -153 3 -157 -169 -2 -49
1 -227 3 -258 2 -35 3 -226 0 -302 l-1 -53 -38 -1 c-75 -2 -137 -9 -201 -22
-91 -20 -210 -21 -271 -3 -49 14 -50 14 -62 -7 -16 -30 -14 -437 2 -467 8 -16
8 -30 0 -56 -7 -20 -13 -52 -15 -72 -1 -20 -10 -62 -19 -92 -15 -51 -15 -56 1
-67 22 -17 43 -16 133 3 41 9 87 18 101 20 15 2 46 8 70 15 84 21 119 21 208
-1 79 -19 99 -21 177 -11 49 5 152 8 229 5 77 -2 237 -4 355 -4 252 1 463 0
505 -1 93 -3 455 12 480 19 17 5 40 6 52 1 11 -4 99 -3 194 3 96 5 225 13 287
16 63 4 115 5 117 2 2 -3 32 -4 67 -2 34 2 68 3 73 3 6 0 33 0 60 0 28 0 82 1
120 3 39 1 81 -1 94 -6 14 -5 86 -8 160 -8 75 1 143 1 151 1 8 0 49 4 90 9 41
5 132 12 202 14 70 2 131 7 136 10 5 3 33 8 62 11 30 4 59 9 64 13 6 3 114 7
241 8 126 1 268 7 315 14 47 7 108 12 135 11 292 -9 372 -5 502 24 22 5 46 2
74 -9 28 -11 52 -15 73 -10 17 4 33 7 37 7 3 -1 76 2 163 7 172 10 290 1 330
-25 14 -9 37 -15 53 -13 l28 3 3 89 c2 49 -4 152 -13 229 -17 154 -19 269 -6
336 11 53 1 84 -32 106 -20 12 -64 16 -228 19 -229 5 -332 13 -354 30 -14 10
-14 27 0 173 8 89 20 174 26 189 24 66 4 214 -29 214 -10 0 -22 -4 -28 -9 -40
-38 -544 -33 -849 9 -38 5 -117 12 -175 15 -58 2 -150 9 -205 15 -55 5 -206
10 -335 11 -129 1 -290 8 -357 15 -68 8 -232 16 -365 19 -134 3 -354 7 -489
10 -135 3 -248 3 -250 0z m636 -125 c160 1 297 1 305 1 8 -1 56 -5 105 -10
245 -27 229 -26 513 -21 109 1 249 -7 264 -16 5 -3 65 -7 136 -9 180 -6 252
-11 377 -26 61 -7 180 -14 265 -14 85 -1 170 -4 187 -9 19 -4 47 -3 65 3 18 5
58 11 88 13 50 3 55 1 53 -17 -1 -11 -5 -54 -8 -95 -3 -41 -8 -84 -11 -95 -3
-11 -7 -54 -9 -95 -3 -41 -8 -127 -13 -190 -4 -63 -3 -144 1 -180 10 -78 16
-294 9 -369 -4 -51 -5 -54 -46 -72 -37 -16 -87 -20 -382 -29 -186 -6 -413 -13
-504 -16 -91 -3 -239 -12 -330 -21 -91 -9 -194 -17 -230 -19 -36 -2 -148 -11
-250 -20 -147 -13 -212 -15 -320 -7 -126 10 -722 2 -1050 -12 -69 -4 -355 -8
-637 -11 -282 -2 -523 -8 -535 -12 -13 -5 -41 -7 -63 -5 -22 1 -120 6 -217 10
-97 5 -179 11 -183 15 -8 7 -8 29 0 103 3 28 12 138 21 245 9 107 20 203 25
212 13 24 11 49 -5 67 -10 13 -15 88 -20 349 l-6 333 77 -6 c138 -11 741 -24
892 -20 82 3 166 10 192 18 25 8 79 15 120 16 40 2 114 4 162 6 48 1 90 5 93
8 3 3 135 3 292 1 158 -2 418 -4 577 -4z m2473 -690 c2 -14 16 -35 30 -47 26
-20 26 -22 10 -40 -14 -15 -16 -30 -11 -78 7 -78 27 -101 96 -108 29 -3 72
-12 97 -21 68 -24 181 -21 214 5 l26 20 10 -27 c14 -36 20 -85 22 -170 2 -73
-6 -99 -24 -88 -6 4 -28 11 -47 15 -20 4 -47 10 -61 14 -66 17 -156 21 -264
13 -151 -13 -151 -13 -152 115 -1 94 -10 267 -20 370 l-6 58 38 -3 c33 -3 40
-7 42 -28z m447 10 c5 -8 -103 -20 -122 -13 -7 3 -13 9 -13 14 0 10 128 10
135 -1z m-242 -130 c21 -27 32 -50 25 -50 -16 1 -32 14 -77 63 -35 37 -35 37
-10 37 18 0 35 -13 62 -50z m-5165 -8 c7 -9 10 -23 7 -30 -3 -8 -5 -21 -5 -29
0 -14 -3 -13 -21 3 -19 17 -38 19 -158 19 -75 1 -146 2 -158 3 -36 3 -27 22
11 22 19 0 67 7 107 15 137 27 194 26 217 -3z m5323 2 c5 -15 7 -35 3 -46 -6
-19 -6 -19 -26 -1 -11 10 -26 30 -34 45 -14 28 -14 28 16 28 24 0 33 -6 41
-26z m-5765 -4 c10 0 13 -14 13 -52 -3 -152 2 -242 12 -254 9 -10 6 -24 -9
-54 l-20 -41 25 -29 c14 -17 32 -30 41 -30 18 0 72 45 72 60 0 22 -15 41 -47
61 -19 12 -31 25 -26 30 12 12 165 13 195 1 28 -12 84 -6 93 9 3 4 6 25 6 46
0 21 3 59 5 85 5 40 10 50 36 63 17 8 34 15 38 15 14 0 21 -92 11 -138 -21
-94 -43 -238 -39 -257 2 -17 -2 -20 -32 -18 -107 7 -141 6 -205 -5 -38 -7 -81
-20 -94 -29 -14 -9 -49 -16 -85 -16 l-61 -2 2 40 c1 22 5 144 8 270 3 127 8
236 10 244 3 7 12 10 21 7 9 -3 22 -6 30 -6z m5863 -72 c-1 -42 -3 -48 -9 -28
-12 36 -12 80 0 80 6 0 10 -24 9 -52z m-5676 -89 c32 -36 32 -39 10 -39 -22 0
-85 49 -78 61 12 18 41 9 68 -22z"/>
<path d="M9132 4191 c-6 -4 -14 -20 -18 -37 -10 -54 47 -79 210 -92 89 -7 90
-7 99 -37 13 -46 12 -414 -2 -428 -8 -8 -41 -8 -132 1 -120 12 -121 12 -139
-10 -18 -23 -18 -23 8 -50 14 -16 36 -28 48 -28 13 0 25 -4 28 -9 5 -7 66 -16
181 -26 22 -2 103 -5 180 -6 124 -2 146 0 188 19 70 31 61 66 -18 68 -72 2
-228 23 -235 31 -4 4 -10 110 -14 236 l-6 227 55 0 c30 0 57 1 60 2 2 1 35 7
72 13 75 12 87 26 54 66 -18 23 -25 24 -143 25 -126 0 -221 8 -318 24 -93 16
-145 19 -158 11z"/>
<path d="M10979 4133 c-1 -5 0 -21 1 -36 1 -15 -4 -35 -11 -43 -8 -10 -10 -38
-6 -89 4 -59 3 -75 -8 -75 -8 0 -16 4 -20 9 -3 5 -31 15 -63 22 -31 7 -65 16
-74 21 -18 9 -48 -14 -48 -35 1 -25 37 -55 95 -76 119 -45 108 -33 100 -109
-12 -118 -10 -170 9 -191 25 -27 56 -14 71 30 7 19 18 71 25 116 l12 81 61 7
c77 9 109 29 105 64 -3 25 -7 26 -73 31 -39 3 -75 9 -81 13 -6 4 -14 28 -18
54 -15 116 -23 151 -45 181 -23 32 -30 38 -32 25z"/>
<path d="M12980 3922 c-64 -17 -159 -68 -160 -86 0 -6 -11 -26 -25 -46 l-25
-35 19 -60 c31 -105 78 -163 178 -221 38 -23 52 -26 102 -21 59 5 129 40 161
80 8 11 23 27 33 35 23 22 22 52 -2 52 -10 0 -38 -11 -62 -24 -64 -36 -151
-57 -190 -46 -39 12 -79 47 -79 71 0 13 11 20 37 25 20 4 64 23 96 43 33 20
73 43 91 52 46 25 67 53 73 97 5 34 1 45 -20 66 -21 21 -36 26 -74 26 -26 0
-57 2 -68 5 -11 2 -49 -4 -85 -13z m135 -92 c7 -12 -14 -25 -85 -55 -100 -41
-131 -48 -144 -35 -14 15 53 76 98 89 36 11 125 11 131 1z"/>
<path d="M10575 3894 c-22 -9 -61 -22 -88 -29 -60 -18 -64 -20 -82 -55 -15
-29 -14 -31 21 -70 20 -22 42 -40 50 -40 7 0 29 -15 47 -34 19 -19 48 -41 64
-49 16 -9 35 -27 43 -41 12 -23 12 -28 -1 -40 -20 -19 -76 -36 -116 -36 -43 0
-114 36 -120 61 -10 39 -52 6 -53 -41 0 -35 8 -44 64 -74 62 -33 127 -41 201
-26 78 16 101 27 114 57 29 63 -4 114 -140 221 -37 29 -70 59 -73 67 -6 17 17
29 93 46 53 12 92 43 84 68 -13 35 -45 39 -108 15z"/>
<path d="M12530 3871 c-102 -34 -134 -58 -178 -132 -28 -46 -29 -108 -2 -141
36 -47 116 -91 163 -90 61 2 148 43 186 89 33 40 36 50 21 73 -8 13 -15 12
-52 -6 -24 -12 -62 -31 -86 -43 -64 -31 -114 -28 -146 10 -24 28 -25 32 -12
57 25 47 60 71 146 99 91 30 107 48 74 84 -21 23 -43 23 -114 0z"/>
<path d="M11971 3830 c-54 -30 -54 -30 -73 -10 -22 24 -28 24 -53 6 -16 -12
-17 -22 -11 -97 4 -46 9 -120 10 -164 2 -91 5 -99 48 -121 48 -25 57 -5 52
109 -5 83 -3 96 18 131 36 61 123 82 148 37 23 -43 43 -120 46 -176 5 -86 10
-98 44 -118 46 -28 53 -16 47 77 -12 159 -38 243 -94 303 -57 61 -103 66 -182
23z"/>
<path d="M11550 3840 c-8 -5 -29 -7 -46 -4 -81 15 -261 -148 -239 -216 8 -24
59 -56 119 -74 71 -22 145 2 182 59 9 14 22 25 29 25 15 0 47 -38 89 -105 16
-26 39 -51 52 -57 12 -6 25 -21 28 -33 12 -47 76 -43 76 4 0 21 -10 36 -34 54
-18 15 -55 62 -80 106 -26 44 -60 96 -76 115 -17 22 -26 44 -23 55 6 25 -26
81 -47 81 -8 0 -22 -5 -30 -10z m-19 -119 l23 -18 -22 -19 c-12 -10 -22 -23
-22 -29 0 -19 -44 -52 -67 -50 -32 3 -75 34 -71 53 4 23 85 82 113 82 12 0 33
-8 46 -19z"/>
<path d="M9846 3825 c-18 -14 -19 -19 -7 -64 7 -28 16 -74 21 -103 25 -156 29
-181 34 -185 2 -3 20 -6 38 -6 l33 -2 -3 64 c-2 35 -1 84 3 108 6 39 11 46 43
60 32 13 39 13 69 -1 36 -17 87 -97 98 -154 9 -49 33 -82 59 -82 21 0 22 3 18
58 -9 113 -63 207 -141 246 -67 34 -103 40 -144 22 -36 -14 -36 -14 -62 20
-29 38 -32 39 -59 19z"/>
<path d="M14218 3404 c-22 -11 -28 -22 -28 -47 0 -33 39 -87 63 -87 25 0 57
31 57 56 0 32 -25 80 -45 88 -20 7 -14 8 -47 -10z"/>
<path d="M22933 4364 c-74 -64 -113 -148 -113 -242 0 -69 1 -70 29 -80 42 -15
51 1 57 99 4 67 10 92 30 121 28 44 66 58 93 34 25 -23 52 -129 50 -197 -2
-71 12 -99 51 -99 l30 0 0 88 c0 109 -19 184 -64 255 -54 84 -87 88 -163 21z"/>
<path d="M24240 4385 c-7 -8 -18 -15 -24 -15 -6 0 -24 -14 -39 -32 l-28 -33
-16 23 c-20 29 -39 28 -58 -2 -17 -25 -19 -109 -4 -156 4 -14 10 -41 14 -60 3
-19 17 -47 30 -63 34 -39 59 -22 75 52 33 146 40 166 66 189 24 21 33 23 85
17 54 -6 59 -5 59 12 0 54 -127 108 -160 68z"/>
<path d="M22019 4364 c-51 -29 -72 -52 -98 -111 -29 -63 -33 -125 -10 -170 10
-20 19 -50 19 -65 0 -35 29 -55 101 -70 49 -10 58 -9 104 13 38 18 59 39 92
87 37 55 43 70 43 116 0 76 -41 153 -100 187 -67 40 -98 42 -151 13z m167
-139 c45 -96 -46 -208 -165 -203 -33 2 -56 8 -59 16 -2 6 3 12 11 12 8 0 20 7
27 15 10 12 9 20 -4 40 -20 31 -20 68 0 121 17 44 41 60 99 66 35 4 69 -21 91
-67z"/>
<path d="M22629 4353 c-6 -16 -25 -64 -43 -108 -18 -44 -37 -93 -42 -110 -11
-36 -42 -44 -77 -20 -37 24 -43 112 -13 185 4 9 0 24 -8 35 -13 18 -17 18 -40
6 -64 -35 -60 -216 6 -280 17 -17 46 -35 64 -41 30 -10 37 -9 69 17 19 15 45
48 57 72 l21 44 18 -24 c10 -13 19 -36 19 -51 0 -44 36 -70 69 -49 13 8 13 19
2 73 -6 35 -12 74 -12 88 -1 40 -21 153 -31 173 -14 27 -47 21 -59 -10z"/>
<path d="M25299 4358 c-39 -32 -52 -71 -51 -146 2 -84 17 -126 49 -130 32 -5
38 19 38 157 0 126 -6 144 -36 119z"/>
<path d="M25631 4348 c-48 -13 -76 -38 -123 -105 -32 -45 -41 -69 -45 -113 -5
-52 -4 -56 22 -70 25 -13 28 -13 45 10 10 13 21 42 24 63 16 97 54 135 123
122 27 -5 38 -15 59 -56 21 -42 25 -63 23 -118 -2 -75 3 -91 31 -91 28 0 47
36 54 101 12 98 -45 203 -136 250 -21 10 -39 19 -40 18 -2 0 -18 -5 -37 -11z"/>
<path d="M24522 4325 c-46 -21 -102 -81 -102 -110 0 -6 -8 -26 -19 -45 -31
-58 -23 -79 39 -116 49 -29 62 -32 121 -30 81 2 114 21 141 83 25 57 20 94
-21 155 -34 50 -43 59 -82 75 -22 10 -35 7 -77 -12z m81 -85 c38 -30 45 -76
16 -106 -18 -20 -32 -24 -76 -24 -59 0 -57 -2 -42 70 17 80 51 100 102 60z"/>
<path d="M23755 4332 c-35 -4 -85 -48 -85 -74 0 -30 35 -40 93 -29 29 6 81 13
115 17 46 5 69 13 83 28 20 21 20 21 -2 38 -11 10 -33 18 -48 19 -14 0 -48 2
-76 3 -27 1 -63 0 -80 -2z"/>
<path d="M16576 4073 c-62 -4 -74 -8 -133 -48 -36 -25 -78 -62 -93 -84 -16
-21 -33 -42 -39 -45 -5 -4 -22 -46 -38 -94 -37 -116 -38 -247 -3 -336 26 -68
111 -168 178 -209 172 -107 430 -83 586 54 56 49 77 89 101 187 20 84 15 238
-11 330 -26 91 -110 156 -302 231 -53 21 -75 22 -246 14z m284 -135 c154 -56
182 -84 195 -195 14 -118 7 -211 -21 -260 -42 -76 -55 -92 -103 -126 -82 -59
-252 -97 -289 -64 -9 8 -44 21 -77 28 -73 15 -88 22 -143 67 -109 89 -125 255
-40 428 27 56 43 75 92 108 57 39 61 40 155 44 53 2 101 4 106 6 11 3 34 -3
125 -36z"/>
<path d="M17850 4056 c-19 -8 -60 -24 -90 -35 -30 -12 -62 -30 -71 -40 -8 -10
-25 -21 -37 -25 -26 -9 -136 -127 -157 -169 -14 -27 -24 -76 -44 -202 -12 -74
30 -176 98 -240 12 -11 36 -35 53 -53 69 -72 104 -83 312 -99 179 -15 193 -14
240 2 151 53 244 141 285 268 15 48 19 84 16 162 -1 55 -6 118 -10 140 -11 63
-70 159 -117 194 -41 31 -135 70 -216 91 -70 18 -222 21 -262 6z m250 -107
c55 -10 127 -33 166 -51 12 -6 34 -29 49 -51 39 -60 56 -138 53 -242 -2 -74
-7 -96 -25 -124 -13 -19 -23 -40 -23 -47 0 -20 -90 -95 -145 -120 -39 -18 -76
-25 -162 -30 -104 -6 -113 -5 -147 16 -22 13 -59 24 -94 27 -31 3 -68 12 -81
22 -13 9 -32 21 -43 27 -37 22 -70 60 -90 104 -17 36 -19 57 -15 112 3 37 15
87 25 110 36 78 169 197 250 223 28 9 59 23 69 30 20 15 121 12 213 -6z"/>
<path d="M15380 4018 c-159 -23 -187 -31 -261 -70 -76 -41 -78 -43 -116 -122
-22 -45 -45 -108 -52 -141 -7 -33 -19 -78 -27 -100 -24 -70 -18 -164 15 -237
38 -80 41 -84 130 -146 62 -44 81 -52 119 -52 29 0 54 -7 75 -22 17 -12 51
-25 76 -29 25 -4 78 -15 116 -23 76 -18 123 -14 170 14 17 9 43 20 58 24 16 4
67 44 118 93 77 74 92 94 105 140 35 121 -10 267 -140 451 -69 99 -159 166
-271 202 -22 7 -44 16 -50 19 -5 4 -35 4 -65 -1z m143 -128 c29 -11 67 -30 84
-43 32 -23 133 -139 133 -153 0 -4 6 -15 14 -23 22 -26 76 -184 76 -224 0 -55
-27 -111 -68 -143 -20 -16 -55 -46 -78 -66 -46 -43 -107 -67 -168 -69 -57 -2
-173 20 -222 42 -22 11 -54 19 -71 19 -17 0 -53 11 -80 25 -125 65 -160 143
-133 300 21 123 34 162 67 213 34 50 94 102 119 102 7 0 31 9 55 20 62 28 198
28 272 0z"/>
<path d="M5787 3792 c-10 -2 -23 -16 -28 -30 -9 -23 -7 -30 17 -49 26 -20 118
-43 176 -43 34 0 65 34 49 54 -18 22 -184 75 -214 68z"/>
<path d="M5498 3784 c-3 -3 -24 -5 -47 -6 -71 -1 -116 -55 -74 -89 15 -13 50
-14 143 -5 14 2 35 4 47 4 14 1 29 14 39 34 16 31 16 32 -6 50 -21 17 -89 25
-102 12z"/>
<path d="M6160 3675 c0 -27 22 -63 45 -73 13 -6 60 -38 105 -71 74 -55 100
-70 100 -56 0 27 -58 121 -101 163 -49 48 -57 52 -101 52 -35 0 -48 -4 -48
-15z"/>
<path d="M22622 3665 c-15 -19 -18 -32 -12 -58 18 -81 18 -359 -1 -414 -13
-40 2 -75 29 -66 32 11 52 36 52 64 0 36 37 135 63 171 27 36 47 42 69 20 19
-19 24 -33 38 -122 14 -94 41 -139 75 -126 17 6 16 33 -7 179 -5 38 -8 71 -5
73 6 6 89 -35 98 -48 3 -5 24 -15 45 -23 l39 -13 3 -76 c3 -68 5 -77 29 -96
38 -30 54 -10 60 76 6 80 14 94 57 95 17 0 47 6 66 13 27 10 35 18 35 37 0 21
-5 24 -45 27 -78 4 -88 9 -99 50 -6 20 -11 51 -11 67 0 32 -38 106 -57 112
-25 9 -35 -36 -24 -102 12 -65 7 -95 -13 -95 -6 0 -36 8 -65 19 -52 18 -71 17
-121 -3 -11 -4 -24 4 -38 24 -18 24 -30 30 -60 30 -23 0 -46 -7 -58 -19 -26
-24 -64 -44 -71 -38 -3 3 -7 50 -9 104 -7 153 -22 189 -62 138z"/>
<path d="M24769 3618 c-8 -14 -9 -38 -3 -72 11 -67 11 -232 1 -323 -8 -71 -8
-72 19 -89 25 -17 27 -17 39 -1 7 10 15 44 19 76 10 85 28 95 60 32 63 -125
159 -220 211 -207 14 4 25 11 25 17 0 6 -22 34 -49 62 -57 61 -106 139 -116
185 -9 42 12 75 63 101 46 23 66 46 59 65 -8 19 -69 5 -109 -24 -22 -16 -105
-49 -125 -50 -2 0 -3 15 -3 33 0 17 -5 50 -11 72 -6 22 -10 50 -10 63 1 31
-26 82 -44 82 -8 0 -19 -10 -26 -22z"/>
<path d="M21956 3585 c-10 -14 -14 -34 -11 -44 6 -20 67 -42 85 -31 18 11 3
67 -23 85 -29 20 -32 19 -51 -10z"/>
<path d="M24214 3504 c-16 -24 -16 -26 5 -47 17 -17 25 -19 39 -11 23 15 27
48 7 68 -22 22 -32 20 -51 -10z"/>
<path d="M21631 3490 c-20 -15 -49 -42 -65 -60 l-28 -34 -34 41 c-38 46 -77
61 -103 41 -9 -8 -28 -20 -44 -28 -36 -18 -42 -45 -28 -136 6 -41 11 -94 11
-117 0 -47 29 -93 52 -84 12 4 16 33 21 127 3 67 8 124 10 127 11 10 46 -9 52
-28 7 -20 54 -69 66 -69 8 0 47 61 65 101 14 30 51 59 75 59 24 0 59 -77 59
-131 0 -37 5 -50 29 -73 16 -16 34 -25 39 -22 5 3 13 26 17 51 7 51 -17 137
-60 211 -32 55 -79 63 -134 24z"/>
<path d="M24532 3423 c-143 -142 -157 -222 -51 -289 73 -46 207 -29 238 29 18
34 10 42 -28 29 -38 -13 -129 -9 -159 7 -15 8 -22 21 -22 42 0 57 41 109 119
151 62 34 55 88 -11 88 -20 0 -43 -15 -86 -57z"/>
<path d="M22330 3425 c-25 -8 -67 -33 -94 -55 -28 -23 -57 -45 -67 -50 -25
-14 -49 -73 -49 -121 0 -37 5 -47 42 -81 34 -31 49 -38 82 -38 47 0 112 31
142 68 l20 25 22 -23 c12 -13 22 -26 23 -29 0 -3 2 -17 4 -31 10 -62 7 -188
-4 -222 -10 -30 -20 -40 -57 -54 -41 -16 -47 -16 -88 0 -46 18 -95 59 -97 82
-1 8 -2 19 -3 26 -2 17 -20 20 -39 6 -11 -8 -18 -28 -19 -55 -1 -37 5 -50 39
-90 44 -53 112 -92 159 -93 49 0 122 29 148 61 58 69 55 219 -9 484 -19 77
-36 154 -37 170 -3 27 -7 30 -38 32 -19 1 -55 -4 -80 -12z m45 -144 c-1 -47
-5 -57 -33 -82 -55 -49 -165 -36 -145 17 19 52 116 127 158 122 17 -3 20 -10
20 -57z"/>
<path d="M21949 3409 c-12 -23 -7 -297 5 -318 11 -17 37 -13 52 7 25 32 9 306
-18 324 -20 12 -26 10 -39 -13z"/>
<path d="M23815 3411 c-16 -10 -41 -30 -54 -45 -24 -25 -24 -26 -6 -46 10 -11
24 -20 30 -20 7 0 16 -7 19 -16 9 -24 7 -113 -3 -133 -7 -12 -5 -31 3 -57 12
-33 11 -54 -5 -144 -23 -132 -23 -174 -3 -190 12 -11 18 -11 30 2 16 15 51
157 59 238 8 71 13 78 75 106 79 35 122 86 134 157 12 64 -38 122 -128 150
-69 22 -114 21 -151 -2z m203 -101 c1 0 2 -10 2 -22 0 -31 -39 -85 -78 -105
-43 -23 -52 -10 -52 78 0 85 9 93 74 68 28 -10 52 -19 54 -19z"/>
<path d="M24216 3320 c-28 -28 -31 -202 -5 -226 16 -15 19 -13 38 25 23 44 29
149 11 195 -11 31 -18 31 -44 6z"/>
<path d="M6455 3309 c-6 -9 42 -137 83 -219 25 -50 54 -48 65 6 8 36 5 49 -32
122 -22 45 -50 86 -60 92 -25 13 -48 13 -56 -1z"/>
<path d="M6597 2879 c-9 -6 -14 -15 -11 -21 4 -6 11 -51 15 -99 9 -108 24
-159 49 -159 40 0 45 24 27 141 -22 145 -33 165 -80 138z"/>
<path d="M23287 2750 c-11 -16 -13 -60 -11 -212 4 -236 19 -283 66 -197 17 30
18 51 15 194 -6 210 -27 276 -70 215z"/>
<path d="M21635 2610 c-17 -19 -17 -23 -2 -80 10 -33 17 -71 17 -85 l0 -26
-87 3 -88 3 1 50 c0 28 2 66 5 85 3 25 0 35 -11 37 -20 4 -50 -50 -50 -90 0
-18 -5 -49 -11 -69 l-10 -38 -64 0 c-59 0 -65 -2 -84 -29 -12 -16 -18 -36 -15
-45 8 -20 69 -31 99 -18 36 16 44 -2 47 -107 2 -76 6 -96 20 -105 14 -8 22 -7
35 6 12 13 17 37 18 100 0 46 4 89 9 96 11 19 68 40 129 47 l55 7 4 -38 c3
-21 -1 -66 -8 -99 -12 -56 -11 -61 7 -79 20 -18 21 -18 44 4 13 12 26 36 29
54 3 17 19 47 34 65 22 27 34 33 66 33 21 0 42 -6 46 -12 13 -21 21 -108 14
-146 -5 -26 -2 -40 11 -54 16 -18 20 -19 35 -5 14 12 16 34 16 121 l-1 106
-38 33 c-44 38 -82 48 -129 35 -18 -6 -35 -10 -38 -10 -10 0 -30 88 -30 128 0
52 -17 106 -38 126 -18 15 -20 15 -37 -4z"/>
<path d="M22600 2440 c-50 -11 -120 -48 -152 -81 -27 -28 -27 -29 -12 -66 15
-37 39 -62 132 -140 23 -19 42 -41 42 -48 0 -25 -34 -25 -146 0 -40 9 -62 -14
-46 -49 26 -57 197 -91 248 -48 21 18 44 63 44 87 0 15 -97 115 -138 143 -13
8 -30 28 -38 44 -14 27 -14 31 3 44 10 7 25 14 34 14 36 0 77 23 88 47 17 38
-10 63 -59 53z"/>
<path d="M22885 2399 c-31 -19 -74 -63 -75 -77 0 -6 -11 -22 -25 -34 -47 -41
-28 -132 42 -203 65 -65 95 -78 162 -73 46 3 68 12 119 47 44 29 62 47 58 58
-3 8 -6 21 -6 29 0 21 -25 17 -66 -11 -43 -29 -105 -33 -161 -10 l-37 16 40
22 c83 45 113 69 128 101 24 50 20 79 -14 111 -25 24 -40 29 -87 32 -33 2 -67
-2 -78 -8z m110 -89 c18 -28 -60 -80 -120 -80 -33 0 -32 21 4 59 23 25 37 31
69 31 23 0 44 -4 47 -10z"/>
<path d="M22128 2362 c-38 -16 -86 -72 -93 -109 -4 -20 -13 -46 -21 -57 -19
-28 -18 -55 4 -63 9 -3 34 -19 54 -35 43 -34 130 -64 207 -72 50 -6 57 -4 83
21 15 15 28 30 28 34 0 4 -17 9 -37 12 -21 3 -56 10 -78 17 -22 6 -47 12 -55
13 -14 2 -30 16 -30 28 0 3 25 16 55 28 47 20 56 28 66 60 14 47 -8 96 -49
112 -36 14 -113 20 -134 11z m92 -100 c0 -13 -92 -34 -103 -23 -18 18 4 31 54
31 27 0 49 -4 49 -8z"/>
<path d="M6560 2320 c-36 -3 -77 -13 -92 -21 -15 -8 -52 -27 -83 -42 -36 -19
-65 -43 -85 -72 -17 -24 -30 -46 -30 -50 0 -3 -17 -40 -37 -83 -43 -91 -50
-144 -34 -261 20 -143 112 -299 188 -317 16 -4 44 -18 63 -31 19 -13 50 -23
69 -23 18 0 65 -11 103 -25 86 -31 97 -31 203 0 124 36 180 75 236 167 50 80
71 141 88 253 23 150 -19 267 -136 376 -59 55 -94 76 -182 109 -86 32 -131 35
-271 20z m260 -123 c98 -43 202 -125 226 -180 15 -32 19 -65 19 -152 0 -107
-2 -114 -35 -178 -19 -37 -51 -85 -71 -106 -92 -96 -291 -134 -378 -72 -16 12
-44 21 -63 21 -93 0 -160 46 -208 143 -33 70 -54 180 -44 235 10 50 66 171 97
208 28 34 131 88 193 103 21 5 73 9 114 10 64 1 86 -4 150 -32z"/>
<path d="M23342 2157 c-24 -25 -29 -76 -10 -95 19 -19 53 -14 82 13 32 30 33
61 4 86 -31 25 -50 24 -76 -4z"/>
<path d="M8737 2032 c-16 -18 -17 -27 -8 -79 8 -41 8 -76 1 -112 -5 -30 -10
-81 -10 -115 -1 -33 -7 -90 -15 -126 -8 -36 -18 -107 -21 -158 -6 -80 -10 -95
-28 -105 -15 -8 -96 -13 -266 -14 -135 -1 -254 -2 -266 -2 -12 -1 -33 -12 -49
-27 -26 -24 -27 -29 -24 -107 2 -85 3 -237 0 -272 -1 -11 -1 -80 0 -153 0 -74
-2 -136 -4 -139 -3 -3 -2 -16 3 -29 6 -16 5 -37 -6 -66 -15 -44 -15 -44 28
-69 13 -7 35 -5 75 7 32 9 87 24 123 35 79 22 186 24 226 5 50 -24 144 -30
188 -11 31 13 53 15 95 9 146 -21 286 -26 363 -15 156 23 373 26 468 6 40 -8
138 -14 260 -15 213 -1 215 -1 440 4 85 2 223 1 305 -3 127 -6 311 -1 480 12
22 2 74 11 115 20 106 24 406 35 755 28 110 -3 277 1 370 7 94 7 202 14 240
17 39 2 115 9 170 15 55 6 139 11 187 10 48 -1 93 2 99 6 18 11 141 15 378 15
166 -1 228 -4 280 -18 36 -9 91 -16 121 -16 30 0 114 0 185 0 241 -1 287 2
311 18 23 15 24 18 19 143 -3 70 -9 161 -15 202 -5 41 -10 107 -10 145 -1 164
-49 369 -82 349 -12 -8 -235 -17 -440 -18 -86 -1 -131 3 -139 11 -8 8 -12 82
-13 252 -2 307 13 285 -186 277 -174 -7 -311 -18 -325 -28 -17 -11 -157 -10
-335 2 -184 13 -223 14 -700 26 -337 9 -620 11 -805 5 -55 -2 -203 0 -330 5
-292 10 -732 6 -1025 -11 -104 -5 -175 -4 -250 6 -58 7 -125 13 -150 14 -25 1
-63 6 -85 11 -22 4 -44 7 -49 6 -4 -2 -22 2 -40 7 -17 6 -113 13 -213 16 -100
3 -194 10 -209 15 -14 6 -59 13 -98 16 -63 6 -73 4 -89 -14z m212 -113 c45 -6
92 -7 137 -1 49 7 85 6 124 -3 30 -7 80 -13 110 -14 30 -1 69 -5 85 -10 35
-11 143 -26 165 -23 8 1 44 -4 80 -12 69 -14 229 -14 415 -1 61 5 124 8 140 8
17 -1 100 0 185 0 85 0 196 1 245 1 50 0 180 -4 290 -9 231 -11 465 -9 558 4
39 5 109 6 175 0 61 -5 299 -11 529 -14 230 -3 472 -11 538 -16 165 -15 280
-15 415 0 63 8 150 15 193 17 42 2 103 8 133 13 31 6 61 8 66 4 7 -3 9 -38 5
-89 -2 -46 -1 -134 4 -196 4 -62 11 -228 14 -368 3 -140 10 -275 15 -300 10
-50 23 -169 18 -172 -2 -1 -104 -5 -228 -8 -124 -4 -250 -13 -280 -19 -30 -6
-120 -13 -200 -16 -80 -4 -165 -10 -190 -15 -25 -5 -94 -12 -155 -15 -60 -3
-152 -8 -204 -11 -52 -4 -297 -8 -545 -10 -248 -1 -464 -5 -481 -7 -16 -3 -82
-13 -145 -24 -95 -15 -166 -18 -410 -17 -162 1 -334 5 -381 8 -48 3 -168 -1
-270 -9 -140 -11 -198 -12 -243 -4 -57 10 -372 15 -746 10 -96 -1 -224 2 -284
6 l-110 8 3 70 c1 39 8 93 16 120 15 58 33 308 39 550 3 122 11 198 26 270 13
64 21 131 20 185 -3 125 -4 120 31 120 16 0 61 -5 98 -11z m5201 -594 c34 -3
35 -5 46 -54 7 -28 15 -113 19 -189 14 -312 18 -344 36 -367 14 -18 -7 -37
-44 -40 -19 -2 -88 3 -153 11 -92 11 -124 12 -146 3 -40 -16 -194 -7 -214 13
-10 10 -18 51 -25 129 -5 63 -13 159 -19 214 -5 55 -13 131 -16 169 -5 51 -4
70 6 76 7 4 58 11 114 14 249 16 281 19 300 26 12 5 30 6 41 3 11 -4 36 -7 55
-8z m-5466 -108 c8 -35 -21 -268 -42 -333 -13 -42 -20 -90 -20 -164 -2 -122
-10 -136 -77 -125 -159 25 -263 18 -368 -24 -16 -6 -32 -9 -37 -6 -9 5 -3 546
6 623 l5 42 120 -3 c79 -3 124 -8 132 -17 10 -9 -4 -11 -69 -5 l-82 7 -4 -40
c-2 -22 -1 -50 3 -63 3 -13 -1 -37 -8 -52 -8 -16 -13 -48 -12 -73 2 -24 0 -46
-4 -50 -13 -13 -7 -41 11 -56 39 -35 293 -51 323 -21 6 6 15 55 19 109 5 55 9
100 10 101 0 1 16 10 35 19 19 9 35 21 35 28 0 14 -78 56 -105 56 -11 0 -38
11 -60 24 -49 30 -40 35 80 39 50 1 93 4 96 5 4 1 9 -8 13 -21z m-176 -169
c-1 -16 -4 -28 -7 -28 -12 1 -50 38 -51 51 -5 34 0 38 29 21 22 -12 29 -24 29
-44z m-100 -70 l65 -33 -44 -8 c-24 -4 -60 -6 -79 -5 -28 2 -36 8 -38 26 -4
30 4 52 20 52 6 0 41 -15 76 -32z"/>
<path d="M8937 1775 c-14 -34 -6 -54 27 -74 28 -18 51 -21 150 -23 65 -1 120
-6 123 -12 4 -5 5 -28 4 -50 -8 -196 -12 -249 -20 -301 -6 -45 -5 -68 5 -93
12 -31 12 -33 -9 -41 -12 -4 -76 -11 -142 -15 -105 -5 -122 -9 -137 -27 -23
-27 -23 -33 5 -65 23 -26 24 -26 82 -14 51 11 244 22 350 21 55 -1 160 21 193
40 31 18 33 18 38 1 22 -68 26 -74 53 -67 14 4 27 8 29 9 1 2 8 52 15 111 l14
109 43 38 c70 63 122 47 174 -54 19 -36 29 -75 33 -120 6 -74 25 -102 65 -96
38 5 37 81 -3 187 -37 101 -66 142 -121 178 -79 49 -115 47 -193 -12 -32 -25
-36 -26 -57 -11 -36 25 -41 20 -33 -31 16 -105 -2 -202 -34 -187 -18 9 -31 9
-186 5 -60 -2 -113 -3 -118 -2 -4 0 -1 13 7 29 10 19 16 81 20 207 4 99 9 191
13 205 9 40 28 49 93 43 51 -5 61 -3 66 12 14 35 -31 92 -68 86 -4 0 -41 4
-83 9 -41 5 -147 12 -234 16 -143 6 -159 5 -164 -11z"/>
<path d="M10693 1638 c-5 -7 -9 -50 -7 -95 3 -113 -1 -116 -100 -103 -69 10
-80 9 -97 -6 -10 -9 -19 -23 -19 -30 0 -25 59 -62 109 -69 86 -12 90 -22 75
-190 -5 -62 -4 -72 14 -88 15 -14 25 -15 45 -8 29 11 33 26 41 151 7 114 3
111 107 109 59 -1 93 2 104 11 38 32 5 62 -95 86 -41 10 -81 22 -87 27 -9 6
-13 36 -13 83 0 69 -11 109 -35 126 -15 11 -31 9 -42 -4z"/>
<path d="M10317 1451 c-35 -7 -67 -21 -147 -61 -65 -33 -54 -52 112 -192 42
-35 55 -53 51 -67 -13 -52 -144 -52 -196 0 -35 35 -47 37 -47 5 0 -77 51 -120
158 -134 76 -11 129 7 161 53 40 59 10 127 -94 215 -29 25 -54 50 -54 56 -1 6
34 21 77 35 77 24 77 24 77 59 0 32 -3 35 -30 37 -16 0 -47 -2 -68 -6z"/>
<path d="M11269 1411 c-71 -23 -271 -210 -318 -300 -18 -32 -2 -60 54 -93 46
-28 135 -48 135 -30 0 5 17 12 39 16 21 3 44 13 51 21 7 8 18 15 25 15 6 0 31
19 53 42 l42 42 22 -20 c70 -61 101 -74 181 -74 86 0 97 8 97 75 0 20 7 65 16
100 13 53 21 65 44 75 70 29 109 -22 165 -215 25 -88 27 -90 76 -90 25 -1 65
-11 92 -24 42 -20 58 -23 115 -17 99 10 222 80 222 127 0 30 -16 30 -101 -1
-135 -50 -221 -42 -265 25 -24 37 -11 70 54 134 49 49 67 59 135 79 43 13 80
29 83 37 9 22 -15 55 -39 55 -60 -1 -181 -58 -255 -121 -31 -27 -60 -49 -64
-49 -3 0 -16 17 -29 38 -49 82 -113 132 -166 132 -32 -1 -94 -21 -114 -38 -8
-6 -27 -22 -44 -36 -25 -20 -27 -26 -17 -39 9 -10 11 -28 7 -50 -4 -19 -8 -56
-9 -83 -2 -43 -5 -49 -25 -52 -16 -3 -35 9 -66 41 -41 43 -69 108 -90 212 -12
59 -51 83 -106 66z m26 -123 c3 -13 9 -45 11 -71 7 -66 -24 -107 -96 -130 -82
-27 -160 -19 -160 15 0 31 189 205 226 207 7 1 15 -9 19 -21z"/>
<path d="M12620 1407 c-88 -42 -220 -171 -220 -216 0 -36 40 -112 79 -152 101
-99 231 -153 309 -129 45 15 108 73 115 106 5 30 -10 31 -63 4 -58 -30 -141
-27 -199 6 -54 32 -101 73 -101 90 0 8 21 14 58 17 133 10 292 100 292 165 0
37 -48 92 -82 92 -12 0 -41 7 -63 15 -48 17 -91 18 -125 2z m134 -92 c20 -8
36 -17 36 -20 0 -15 -56 -37 -116 -46 -38 -5 -84 -12 -101 -16 -44 -7 -44 15
0 43 17 11 43 28 57 37 32 20 78 21 124 2z"/>
<path d="M13765 1253 c-6 -5 -18 -20 -27 -35 -16 -25 -16 -30 2 -93 11 -37 22
-70 25 -73 3 -3 -7 -18 -22 -34 -23 -25 -25 -30 -14 -51 19 -35 105 -61 200
-60 l79 0 -5 -36 c-4 -29 0 -40 20 -59 36 -34 58 -25 76 30 13 43 13 49 -2 66
-23 25 -21 33 6 27 39 -10 52 16 39 78 -20 97 -23 127 -13 127 5 0 15 16 21
36 20 60 20 60 -210 67 -58 2 -118 6 -135 10 -16 4 -35 4 -40 0z m137 -133
c23 -23 64 -51 90 -63 52 -24 60 -41 26 -51 -46 -12 -78 -7 -78 12 0 10 -16
34 -36 53 -38 36 -71 89 -55 89 5 0 29 -18 53 -40z m-10 -100 l33 -21 -40 3
c-29 2 -41 8 -43 21 -4 22 10 22 50 -3z"/>
<path d="M8204 802 c-25 -31 -25 -34 -9 -58 20 -31 55 -46 73 -31 16 13 42 73
42 97 0 14 -10 19 -40 22 -37 3 -44 0 -66 -30z"/>
<path d="M15171 1579 c-137 -15 -208 -57 -280 -166 -46 -68 -63 -139 -63 -252
0 -79 6 -113 30 -188 48 -150 67 -174 173 -228 72 -36 102 -45 143 -45 54 0
126 -17 188 -44 50 -22 76 -20 173 9 97 30 160 79 212 167 40 65 53 130 54
268 2 138 -26 258 -78 343 -27 43 -127 112 -182 126 -56 14 -277 20 -370 10z
m343 -104 c94 -20 130 -47 161 -120 43 -98 57 -198 45 -315 -6 -61 -17 -115
-29 -138 -22 -43 -93 -122 -110 -122 -6 0 -28 -9 -48 -20 -69 -37 -200 -23
-330 36 -28 12 -54 28 -58 34 -5 8 -14 5 -29 -9 -21 -20 -22 -20 -62 -2 -85
38 -133 143 -141 311 -7 140 9 198 75 264 55 56 81 71 142 81 25 4 52 11 60
16 22 12 244 2 324 -16z"/>
<path d="M7493 1373 c-17 -6 -16 -38 2 -118 19 -82 27 -231 19 -344 -6 -76
-10 -86 -40 -120 -34 -36 -36 -57 -12 -88 25 -32 59 -13 174 96 49 46 121 105
159 130 82 54 85 57 85 97 0 26 -12 42 -77 100 -42 38 -119 111 -170 162 -86
85 -108 99 -140 85z m145 -200 c38 -39 118 -105 134 -111 21 -9 4 -40 -34 -65
-24 -15 -62 -45 -86 -67 -24 -22 -47 -38 -53 -35 -9 6 -13 315 -4 315 3 0 23
-17 43 -37z"/>
<path d="M6780 1235 c-13 -15 -11 -36 9 -90 6 -16 13 -42 16 -57 6 -33 70
-102 87 -95 8 2 19 16 27 30 13 24 12 27 -13 49 -16 13 -38 54 -54 98 -28 76
-48 94 -72 65z"/>
<path d="M7133 1073 c-31 -21 -29 -49 5 -67 54 -28 152 -56 195 -56 57 0 111
34 115 74 3 26 2 28 -20 20 -13 -4 -48 -8 -78 -7 -47 0 -78 8 -180 46 -8 3
-25 -1 -37 -10z"/>
</g>
</svg>
