<?xml version="1.0" standalone="no"?>
<!DOCTYPE svg PUBLIC "-//W3C//DTD SVG 20010904//EN"
 "http://www.w3.org/TR/2001/REC-SVG-20010904/DTD/svg10.dtd">
<svg version="1.0" xmlns="http://www.w3.org/2000/svg"
 width="467.556732pt" height="400.000000pt" viewBox="0 0 467.556732 400.000000"
 preserveAspectRatio="xMidYMid meet">
<metadata>
Created by potrace 1.15, written by Peter Selinger 2001-2017
</metadata>
<g transform="translate(-18.290095,416.278073) scale(0.031989,-0.031989)"
fill="#444444" stroke="none">
<path d="M13610 12997 c-27 -28 -26 -74 0 -82 11 -3 20 -11 20 -16 0 -5 6 -9
13 -9 16 0 110 -95 142 -143 14 -21 27 -48 31 -62 3 -13 12 -29 20 -36 8 -6
14 -19 14 -28 0 -9 7 -28 14 -44 8 -15 24 -59 35 -97 16 -59 18 -81 10 -142
-12 -87 -27 -128 -74 -202 -19 -30 -35 -58 -35 -62 0 -3 -19 -28 -41 -56 -37
-44 -41 -52 -31 -74 7 -13 16 -24 21 -24 10 0 111 108 111 119 0 4 14 23 31
42 50 57 94 167 104 264 9 92 -18 213 -74 325 -61 124 -92 172 -145 227 -23
23 -56 57 -75 76 -43 45 -66 51 -91 24z"/>
<path d="M12505 12943 c-35 -9 -66 -36 -106 -89 -21 -29 -39 -56 -39 -60 0 -4
-10 -23 -22 -43 -23 -36 -46 -97 -68 -181 -18 -65 -15 -226 6 -285 25 -77 85
-188 111 -208 13 -11 40 -34 59 -53 57 -53 116 -77 175 -72 28 3 57 12 66 21
14 14 5 20 -91 67 -74 36 -115 63 -134 87 -15 19 -41 51 -59 71 -24 27 -37 57
-49 111 -27 118 -11 237 47 369 50 113 64 135 115 184 50 49 67 78 45 78 -5 0
-15 2 -23 4 -7 2 -22 1 -33 -1z"/>
<path d="M9476 12798 c-13 -41 -13 -64 -1 -106 7 -26 16 -109 20 -185 7 -153
11 -143 -70 -151 -31 -3 -54 -11 -62 -22 -18 -25 -17 -32 17 -65 25 -26 36
-30 72 -27 l43 3 -3 -60 c-2 -33 -9 -91 -17 -130 -22 -109 -24 -135 -13 -161
15 -32 55 -32 67 -1 5 12 17 63 26 112 9 50 21 109 26 132 5 23 9 55 9 71 0
35 13 42 76 42 50 0 148 44 141 63 -7 23 -53 37 -124 37 -93 0 -103 10 -103
98 -1 37 -5 87 -11 112 -5 25 -14 74 -19 110 -5 36 -13 78 -19 92 -12 32 -49
56 -55 36z"/>
<path d="M7918 12765 c-9 -20 -7 -41 11 -107 26 -95 43 -296 40 -488 -2 -152
9 -248 31 -272 17 -18 81 -33 180 -42 30 -3 71 -10 90 -16 19 -5 49 -10 67
-10 18 0 44 -5 58 -12 19 -9 38 -8 80 2 67 16 76 26 68 73 -5 36 -7 37 -52 39
-25 1 -83 0 -129 -1 -51 -2 -87 1 -96 8 -7 6 -32 13 -54 15 -22 3 -68 12 -101
22 l-61 17 0 136 c0 135 -6 295 -15 402 -4 54 -15 108 -38 194 -17 65 -58 86
-79 40z"/>
<path d="M13520 12670 c-92 -17 -160 -73 -160 -133 0 -24 60 -91 173 -195 26
-24 47 -47 47 -52 0 -24 -106 -68 -181 -76 -51 -6 -79 11 -79 47 0 31 -29 22
-38 -13 -7 -24 -5 -40 5 -58 16 -27 71 -63 114 -73 37 -9 113 6 145 29 15 11
43 29 63 40 41 25 65 66 57 97 -3 12 -30 47 -59 77 -81 83 -147 160 -147 170
0 23 54 43 127 47 78 3 93 11 93 46 0 29 -99 58 -160 47z"/>
<path d="M2695 12652 c-54 -4 -89 -26 -80 -51 16 -39 65 -247 65 -273 0 -16 5
-39 11 -50 6 -11 17 -71 25 -132 13 -110 13 -192 -1 -312 -7 -57 -6 -63 13
-73 18 -10 24 -8 39 16 15 23 18 52 19 181 1 84 4 155 7 158 6 7 68 -67 97
-117 52 -90 223 -249 267 -249 7 0 17 9 23 19 8 16 -1 30 -63 93 -172 174
-279 311 -263 337 3 5 30 15 58 21 29 7 58 16 63 20 6 5 30 16 55 26 82 33
127 100 117 175 -8 61 -48 104 -135 148 -131 65 -167 72 -317 63z m275 -135
c96 -41 114 -58 106 -103 -13 -67 -150 -144 -258 -144 -45 0 -58 3 -62 18 -2
9 -15 65 -27 124 -28 135 -27 136 84 136 70 0 93 -5 157 -31z"/>
<path d="M12964 12584 c-19 -19 -34 -41 -34 -47 -1 -7 -13 -27 -29 -45 l-28
-32 -39 52 c-21 29 -51 59 -66 67 -24 14 -30 13 -76 -8 -28 -13 -55 -21 -60
-17 -21 13 -30 -30 -27 -129 1 -55 5 -109 8 -120 3 -11 6 -54 6 -96 1 -60 5
-82 20 -100 37 -45 46 -15 47 154 0 97 5 160 13 174 14 28 45 45 65 37 17 -7
66 -85 66 -107 0 -8 12 -22 26 -32 26 -17 27 -17 50 11 13 16 29 43 35 59 22
52 59 105 74 105 23 0 68 -67 71 -108 12 -118 33 -198 61 -224 21 -19 25 -20
38 -7 13 13 14 24 5 70 -25 124 -54 218 -87 279 -62 114 -83 124 -139 64z"/>
<path d="M9045 12423 c-22 -8 -42 -17 -45 -22 -3 -4 -26 -18 -53 -30 -59 -29
-197 -157 -232 -216 -14 -25 -33 -64 -41 -87 -14 -40 -13 -43 11 -80 14 -21
32 -38 40 -38 9 0 27 -7 40 -16 51 -33 175 17 240 96 58 71 66 80 73 79 4 0
22 -19 40 -42 97 -123 114 -142 137 -154 34 -19 65 -2 65 35 0 20 -5 28 -20
29 -55 4 -129 107 -160 223 -18 67 -38 100 -60 100 -25 0 -36 -22 -45 -90 -19
-138 -189 -253 -279 -187 -32 23 -9 66 92 170 53 53 102 97 111 97 37 0 150
46 157 65 7 17 -9 78 -21 81 -6 1 -28 -5 -50 -13z"/>
<path d="M11190 12422 c-168 -79 -266 -201 -246 -307 9 -46 75 -114 145 -150
41 -21 68 -26 131 -28 74 -2 81 0 106 24 15 15 23 32 20 38 -10 15 -102 41
-148 41 -42 0 -136 38 -157 63 -30 37 32 166 94 196 17 8 38 18 47 23 10 4 29
8 42 8 25 0 66 45 66 72 0 39 -42 47 -100 20z"/>
<path d="M6393 12413 c-38 -8 -106 -48 -126 -75 -15 -20 -18 -35 -13 -61 6
-33 33 -64 219 -245 69 -68 58 -97 -52 -126 -96 -27 -211 -9 -250 38 -21 25
-41 19 -41 -12 0 -40 23 -66 72 -82 24 -8 46 -19 50 -25 4 -5 46 -11 94 -11
123 -2 203 35 244 114 17 34 0 69 -62 122 -118 104 -140 125 -168 167 -29 43
-39 86 -22 97 5 3 42 8 83 11 112 9 144 18 147 40 1 11 -1 25 -5 31 -9 12
-133 25 -170 17z"/>
<path d="M11878 12373 c-9 -16 -46 -68 -82 -118 -36 -49 -71 -99 -79 -109 -13
-18 -16 -18 -73 21 -32 23 -77 60 -99 83 -22 23 -57 51 -78 62 -37 18 -40 18
-58 2 -10 -9 -19 -21 -19 -25 0 -11 112 -125 180 -184 30 -27 58 -54 62 -60
10 -17 -35 -108 -88 -176 -24 -32 -44 -62 -44 -66 0 -5 -10 -19 -23 -31 -12
-12 -38 -51 -56 -87 -18 -36 -37 -65 -42 -65 -8 0 -48 -62 -91 -142 -22 -39
-9 -58 38 -58 30 0 37 7 91 86 32 47 66 100 76 117 11 18 27 41 38 53 10 11
19 23 19 27 0 4 24 40 53 81 28 41 67 102 86 136 30 52 40 62 75 71 70 18 74
19 80 35 3 9 -5 26 -21 41 l-26 27 24 45 c13 25 41 74 62 108 31 51 38 70 35
104 -4 51 -18 59 -40 22z"/>
<path d="M10042 12363 c-13 -3 -45 -17 -70 -32 -26 -14 -66 -35 -89 -45 -24
-10 -49 -29 -58 -42 -23 -35 -20 -125 5 -157 11 -14 28 -45 39 -70 23 -52 84
-118 126 -134 17 -7 67 -15 113 -18 l82 -7 30 32 c34 36 37 52 15 70 -12 10
-18 10 -29 1 -35 -30 -204 -3 -239 37 -22 26 -29 58 -15 70 15 12 86 39 135
51 44 12 116 62 130 91 29 62 28 78 -15 120 -36 36 -44 40 -88 39 -27 -1 -60
-4 -72 -6z m88 -83 c12 -7 12 -13 4 -27 -18 -29 -64 -51 -144 -67 -93 -20 -90
-20 -90 4 0 11 4 20 9 20 4 0 28 15 53 34 28 22 59 36 84 39 21 2 46 4 54 5 8
1 22 -3 30 -8z"/>
<path d="M6885 12340 c-92 -24 -108 -34 -152 -98 -37 -55 -41 -65 -32 -90 6
-15 8 -47 4 -71 -4 -27 -3 -41 3 -37 6 3 30 -15 54 -40 123 -132 135 -142 181
-149 69 -11 222 24 214 49 -5 14 -116 45 -186 52 -54 5 -91 32 -107 77 -7 22
12 47 37 47 10 0 23 9 29 20 6 11 23 22 38 26 32 7 114 45 123 58 8 11 -4 65
-21 92 -16 26 -107 75 -135 73 -11 -1 -33 -5 -50 -9z m99 -85 c30 -20 25 -42
-19 -76 -36 -28 -133 -56 -159 -46 -10 4 -16 18 -16 37 0 71 129 127 194 85z"/>
<path d="M10510 12325 c-7 -8 -18 -15 -25 -15 -8 0 -23 -12 -34 -27 -21 -25
-22 -26 -36 -7 -37 50 -53 -44 -45 -260 5 -117 7 -130 26 -143 35 -23 54 5 54
80 1 88 26 216 48 246 11 15 32 34 49 43 29 17 30 17 64 -10 109 -87 140 -145
141 -261 0 -76 8 -101 34 -101 30 0 48 51 47 127 -1 62 -6 85 -36 148 -43 90
-70 117 -162 161 -76 37 -106 42 -125 19z"/>
<path d="M4025 12312 c-2 -2 -22 -8 -45 -13 -24 -5 -62 -26 -86 -46 -38 -30
-44 -41 -44 -72 0 -25 10 -53 30 -82 37 -55 135 -151 177 -172 65 -34 54 -53
-50 -91 -69 -25 -75 -26 -110 -11 -21 9 -43 28 -52 45 -17 33 -35 31 -55 -6
-13 -23 -11 -27 24 -63 66 -68 178 -81 274 -32 139 71 138 111 -3 213 -28 20
-77 64 -109 97 -50 54 -57 65 -51 89 4 15 7 27 8 27 98 32 132 40 181 45 66 6
90 26 70 58 -9 14 -26 17 -83 17 -40 0 -74 -2 -76 -3z"/>
<path d="M4615 12270 c-50 -7 -98 -22 -145 -44 -14 -6 -35 -29 -47 -51 l-22
-39 20 -33 c15 -25 21 -53 23 -125 2 -51 10 -144 19 -206 21 -140 23 -258 8
-338 -9 -48 -9 -68 0 -88 19 -40 36 -31 59 30 23 64 31 174 21 322 -3 52 -2
96 2 99 4 2 33 6 65 7 46 2 72 11 129 44 115 65 148 96 163 153 15 56 1 107
-46 159 -37 41 -161 121 -185 119 -8 -1 -36 -5 -64 -9z m161 -103 c52 -32 94
-76 94 -96 0 -9 -11 -33 -24 -54 -49 -80 -275 -188 -302 -146 -14 21 -32 137
-33 206 l-1 61 48 18 c26 10 52 21 57 25 13 9 62 16 96 13 15 -1 44 -13 65
-27z"/>
<path d="M5700 12233 c-26 -27 -52 -57 -58 -68 -9 -16 -14 -18 -29 -9 -15 9
-23 9 -36 -1 -16 -12 -17 -22 -7 -121 15 -165 38 -234 76 -234 18 0 22 22 28
157 8 161 41 233 113 246 27 5 36 1 62 -29 52 -59 74 -112 79 -194 3 -57 9
-80 25 -97 24 -27 42 -29 51 -7 11 29 6 126 -10 180 -17 59 -87 172 -113 182
-9 3 -27 14 -40 24 -13 10 -39 18 -59 18 -28 0 -44 -9 -82 -47z"/>
<path d="M3415 12200 c-45 -36 -72 -73 -80 -112 -4 -15 -19 -41 -34 -57 l-28
-30 29 -49 c34 -59 87 -98 148 -107 25 -4 57 -14 72 -21 28 -15 116 -18 181
-7 31 5 38 9 35 27 -2 17 -14 23 -63 32 -82 16 -140 38 -140 55 0 7 14 20 30
29 42 21 95 76 95 98 0 32 -50 96 -101 130 -73 48 -96 50 -144 12z m124 -99
c32 -24 21 -57 -22 -66 -119 -24 -135 -18 -97 40 31 47 78 58 119 26z"/>
<path d="M5165 12205 c-80 -43 -125 -122 -125 -217 0 -59 3 -65 35 -97 38 -37
75 -43 104 -17 15 14 26 15 62 7 25 -6 48 -6 53 -1 4 4 23 6 42 3 26 -4 45 1
86 27 69 43 78 56 78 104 0 118 -229 248 -335 191z m210 -99 c98 -81 36 -148
-139 -149 -63 -1 -71 2 -93 27 -29 34 -25 70 13 129 l25 37 74 -3 c68 -4 78
-7 120 -41z"/>
<path d="M1945 11220 c-16 -17 -17 -31 -11 -112 4 -51 9 -178 12 -283 2 -112
10 -212 18 -245 16 -61 24 -141 31 -303 2 -59 7 -112 9 -116 6 -8 12 -142 21
-399 2 -73 9 -158 15 -190 5 -32 10 -96 9 -143 -1 -46 4 -105 10 -130 6 -27
13 -223 16 -470 7 -554 13 -838 19 -847 2 -4 7 -77 11 -162 4 -85 8 -157 10
-160 2 -3 6 -81 9 -175 4 -93 9 -208 12 -255 3 -47 7 -148 10 -225 2 -77 8
-211 13 -297 10 -166 8 -363 -8 -751 -5 -130 -8 -247 -5 -260 3 -12 5 -157 5
-322 0 -284 -7 -451 -30 -680 -22 -210 -50 -777 -56 -1125 -8 -392 -9 -466 -8
-645 1 -177 -1 -302 -12 -875 -3 -157 -5 -301 -4 -320 4 -62 4 -102 -5 -285
-5 -99 -10 -196 -11 -215 -1 -31 -11 -155 -20 -260 -2 -19 -6 -60 -10 -91 -7
-50 -5 -58 15 -77 16 -15 31 -20 47 -16 13 4 36 2 51 -4 15 -6 74 -14 132 -17
57 -4 125 -14 150 -22 55 -19 65 -21 265 -32 88 -6 183 -15 210 -21 28 -6 139
-13 248 -15 176 -4 201 -3 224 13 29 18 58 19 323 6 163 -8 200 -10 420 -29
102 -9 209 -15 238 -15 29 0 71 -4 93 -10 21 -6 67 -13 102 -15 34 -2 87 -6
117 -9 30 -3 105 -8 165 -11 139 -7 204 -13 223 -20 7 -3 77 -8 155 -11 78 -3
169 -10 202 -14 33 -5 130 -7 215 -4 85 2 235 6 333 9 98 3 182 7 186 9 10 6
89 6 631 -1 488 -6 534 -6 565 -3 26 3 203 -8 275 -17 30 -4 73 -6 95 -6 242
5 722 -4 818 -15 70 -9 172 -8 272 2 54 6 70 6 113 4 45 -3 206 10 224 17 10
4 31 2 48 -3 21 -8 39 -8 61 0 22 8 37 7 56 -1 17 -8 111 -12 287 -12 143 0
315 -5 381 -11 66 -6 316 -12 555 -14 239 -2 460 -4 490 -5 30 -1 96 2 145 6
130 11 176 12 208 3 16 -4 53 -3 82 3 30 5 109 12 177 14 68 2 152 9 188 14
36 6 86 11 112 11 26 0 50 5 53 10 4 7 13 7 26 0 13 -8 25 -7 40 1 42 22 432
24 694 4 33 -3 134 -7 225 -9 91 -2 275 -8 410 -12 272 -8 388 -8 595 1 77 3
250 8 385 10 135 3 274 7 310 9 36 3 82 0 104 -5 50 -14 86 -5 86 21 0 12 10
25 25 32 31 14 33 38 3 38 -12 0 -36 13 -53 30 -27 26 -35 29 -61 21 -17 -5
-156 -9 -310 -9 -153 -1 -333 -4 -399 -8 -66 -4 -184 -7 -262 -8 -79 -1 -143
-5 -143 -9 0 -5 -5 -5 -11 -1 -7 4 -136 9 -288 12 -392 7 -458 9 -621 19 -230
13 -787 5 -890 -13 -38 -7 -77 -10 -215 -18 -49 -3 -112 -8 -140 -11 -56 -6
-529 -15 -705 -14 -142 1 -132 1 -320 -6 -85 -4 -171 -7 -190 -7 -67 -1 -289
10 -297 15 -29 17 -920 25 -1143 11 -137 -9 -267 -9 -415 -1 -106 6 -171 8
-345 7 -25 -1 -115 2 -200 5 -466 18 -940 28 -1200 26 -69 -1 -255 0 -415 2
-159 2 -300 0 -311 -4 -42 -15 -416 -21 -564 -9 -80 6 -176 14 -215 16 -38 2
-81 6 -95 8 -14 2 -44 7 -66 11 -23 4 -86 8 -140 10 -55 2 -124 6 -154 9 -111
13 -288 28 -420 36 -127 8 -175 14 -209 26 -8 2 -82 7 -165 9 -83 3 -176 7
-206 10 -148 13 -290 16 -326 6 -100 -26 -322 -33 -386 -12 -45 15 -166 29
-307 36 -123 6 -140 9 -251 40 -53 15 -113 24 -161 24 -147 1 -153 9 -139 182
7 74 14 137 16 141 3 4 7 234 11 510 3 277 6 586 8 688 5 416 5 942 0 950 -3
5 -1 30 5 57 5 26 12 193 14 370 2 177 7 326 10 331 3 6 6 43 6 84 1 40 5 114
10 163 5 50 14 171 20 270 6 99 13 205 15 235 19 237 24 645 10 799 -5 57 -4
191 3 340 21 448 22 494 12 702 -5 113 -12 228 -14 255 -3 27 -8 130 -11 229
-3 99 -8 207 -10 240 -2 33 -7 116 -10 185 -3 69 -10 175 -15 235 -6 61 -12
139 -15 175 -8 107 -5 772 4 815 l9 40 1 -36 c0 -19 6 -40 12 -46 6 -6 14 -31
16 -55 3 -24 9 -51 14 -60 5 -9 9 -38 9 -65 0 -26 5 -66 10 -89 5 -22 12 -60
15 -83 3 -23 9 -51 15 -61 5 -10 10 -37 10 -59 0 -50 12 -52 40 -6 19 30 21
48 20 132 -3 182 0 283 9 283 10 0 16 -35 31 -197 6 -62 15 -124 20 -139 6
-14 10 -44 10 -67 1 -23 9 -57 18 -75 17 -31 19 -32 34 -15 41 47 64 186 49
299 -6 43 -13 135 -17 204 -3 69 -9 153 -13 188 -4 35 -5 80 -1 100 l6 37 11
-45 c7 -25 15 -61 18 -80 26 -154 61 -392 76 -515 6 -55 19 -113 28 -130 l16
-30 3 27 c4 30 26 53 42 43 5 -3 10 -27 11 -53 1 -61 21 -127 39 -127 8 0 23
15 34 34 22 38 24 76 17 451 -4 255 -4 251 10 227 10 -17 25 -85 36 -162 3
-22 12 -49 20 -61 8 -13 16 -57 19 -101 2 -43 14 -106 25 -140 11 -35 18 -72
14 -83 -8 -25 15 -160 26 -160 5 0 17 17 28 38 21 42 22 107 1 297 -6 55 -13
134 -16 175 -2 41 -7 100 -9 130 -11 145 -12 188 -4 201 10 16 10 16 34 -96
10 -44 24 -101 32 -126 7 -25 13 -59 12 -75 -2 -43 17 -155 32 -186 14 -32 29
-37 29 -10 0 10 8 29 18 42 15 22 17 54 17 285 1 143 2 265 3 270 5 19 26 -30
33 -75 11 -66 46 -215 69 -291 11 -36 20 -75 20 -87 0 -28 31 -92 44 -92 31 1
51 35 60 105 4 28 13 70 21 95 7 26 16 115 19 209 3 90 7 166 11 169 17 17 26
-31 31 -174 3 -87 9 -184 12 -214 4 -30 5 -122 2 -203 -5 -146 -1 -187 19
-187 18 0 50 76 60 141 9 61 16 142 27 309 6 94 34 270 43 270 4 0 8 -17 9
-37 1 -21 7 -58 12 -83 25 -117 32 -169 29 -220 -4 -89 6 -152 33 -203 6 -12
6 -23 -1 -31 -5 -6 -8 -25 -5 -41 2 -17 6 -76 8 -131 2 -56 6 -107 10 -113 4
-6 8 -51 9 -100 1 -49 5 -92 8 -96 4 -3 13 -3 22 1 12 4 15 13 11 33 -4 14
-10 31 -14 36 -4 6 -10 42 -14 80 -4 39 -9 85 -12 103 -5 25 -3 32 10 32 19 0
19 -3 4 40 -6 19 -12 80 -13 135 0 123 -24 324 -41 349 -9 14 -10 24 -1 43 8
19 7 35 -7 77 -15 42 -16 58 -7 75 10 17 9 27 -5 51 -14 22 -15 32 -6 43 8 10
9 30 2 73 -6 32 -10 78 -10 101 0 54 -39 97 -53 59 -3 -8 -11 -88 -18 -178 -7
-91 -18 -175 -26 -190 -7 -15 -13 -59 -13 -98 0 -38 -4 -70 -9 -70 -12 0 -26
117 -36 305 -3 61 -10 135 -15 165 -5 30 -12 87 -15 125 -5 54 -12 77 -31 98
-30 35 -49 25 -50 -28 -7 -207 -15 -337 -23 -370 -13 -51 -14 -131 -1 -175 6
-22 6 -38 0 -44 -6 -6 -10 -28 -10 -49 0 -43 -19 -117 -30 -117 -8 0 -30 46
-30 63 0 7 -9 29 -20 49 -10 20 -15 38 -10 40 5 2 -13 88 -40 191 -44 168 -53
192 -82 218 -17 17 -36 28 -42 26 -12 -5 -13 -257 -2 -419 4 -54 5 -98 2 -98
-7 0 -25 67 -66 244 -26 111 -38 145 -61 170 -44 49 -54 28 -52 -102 1 -59 5
-125 8 -147 4 -22 6 -63 5 -92 0 -29 4 -79 11 -112 6 -33 8 -76 5 -96 -7 -36
-8 -36 -27 -19 -16 14 -18 26 -13 63 4 32 -1 65 -15 111 -11 36 -21 74 -21 85
0 11 -10 63 -22 115 -15 68 -27 99 -42 110 -36 26 -41 19 -38 -60 1 -41 -1
-81 -6 -88 -5 -8 -4 -45 4 -93 7 -48 9 -98 5 -126 l-8 -48 -16 37 c-10 21 -17
59 -17 85 0 26 -5 77 -11 113 -6 36 -12 97 -13 135 -1 39 -8 111 -14 160 -6
50 -14 122 -17 160 -8 94 -12 105 -40 105 -13 0 -26 -3 -28 -7 -2 -5 -1 -37 4
-73 4 -36 11 -132 15 -215 3 -82 7 -168 9 -190 2 -22 7 -85 10 -140 l8 -100
-27 38 c-21 30 -24 42 -16 57 8 14 6 37 -6 82 -9 35 -17 77 -19 93 -2 17 -10
66 -19 110 -8 44 -18 96 -21 116 -6 43 -53 93 -74 79 -12 -7 -13 -37 -8 -172
4 -89 11 -212 17 -273 28 -314 32 -541 8 -517 -6 6 -13 31 -15 54 -2 24 -8 68
-13 98 -24 141 -53 388 -70 615 -15 184 -18 205 -34 205 -27 0 -38 -28 -32
-82 3 -29 6 -181 6 -338 -1 -157 0 -308 0 -337 0 -28 -4 -54 -9 -57 -16 -10
-30 25 -20 51 5 14 3 40 -6 70 -20 71 -37 161 -41 223 -9 158 -22 232 -45 263
-25 35 -44 177 -54 412 -12 291 -18 381 -28 465 -4 25 -9 116 -12 202 -3 87
-15 219 -26 295 -12 76 -22 185 -24 243 -5 131 -14 280 -21 345 -9 75 -33 95
-69 55z"/>
<path d="M13558 10625 c-11 -25 2 -114 22 -155 4 -8 15 -40 24 -70 8 -30 25
-85 37 -122 11 -37 18 -72 14 -78 -4 -6 -30 -24 -58 -41 -81 -46 -84 -50 -86
-99 -1 -75 8 -99 50 -129 33 -25 45 -28 86 -23 73 8 162 76 163 124 0 7 7 22
15 32 38 50 -2 48 -80 -4 -65 -43 -94 -49 -120 -23 -16 15 -15 18 16 34 19 9
58 20 87 24 44 6 55 11 62 31 11 27 4 50 -21 77 -9 10 -23 44 -32 75 -8 31
-25 86 -38 122 -12 36 -25 72 -27 80 -3 8 -7 25 -8 37 -2 13 -10 35 -18 50 -8
16 -20 40 -27 56 -14 34 -46 36 -61 2z"/>
<path d="M624 10595 c-3 -13 -1 -32 4 -42 13 -23 6 -211 -8 -248 -5 -14 -10
-39 -10 -54 0 -15 -9 -44 -20 -66 -39 -76 -22 -90 112 -90 88 0 102 -3 114
-20 8 -11 13 -29 10 -40 -3 -11 1 -53 7 -94 11 -63 11 -83 -3 -133 -14 -57
-14 -60 4 -74 11 -8 27 -14 37 -14 21 0 26 30 35 217 7 152 15 173 51 148 15
-11 22 -29 25 -69 4 -48 10 -61 57 -115 29 -34 58 -61 64 -61 6 0 21 -9 33
-21 14 -13 41 -22 77 -26 51 -5 60 -3 116 31 34 21 61 41 61 44 0 4 9 13 21
20 18 11 27 9 70 -18 27 -16 56 -30 64 -30 7 0 17 -4 20 -10 8 -12 39 -13 63
-1 9 5 39 14 65 20 48 11 146 67 180 102 30 32 40 71 38 163 -2 94 -14 126
-80 215 -37 49 -160 105 -210 96 -49 -9 -93 -45 -143 -116 -23 -32 -45 -59
-49 -59 -4 0 -23 16 -41 35 -24 25 -49 39 -91 50 -73 19 -96 19 -165 -1 -47
-14 -68 -28 -118 -80 -34 -35 -69 -64 -77 -64 -28 0 -47 41 -47 102 0 80 -18
156 -40 168 -32 17 -39 -8 -24 -90 7 -41 11 -97 7 -123 -7 -56 -23 -67 -103
-67 -45 0 -50 2 -56 25 -4 15 -1 52 5 84 13 68 14 231 0 282 -11 45 -46 60
-55 24z m1128 -281 c21 -13 45 -36 55 -51 9 -16 25 -38 36 -50 28 -32 19 -113
-21 -195 -29 -60 -35 -65 -104 -98 -58 -28 -85 -35 -131 -34 -64 0 -110 25
-115 63 -4 27 9 27 58 -1 l39 -23 21 21 21 20 -46 46 c-45 46 -45 46 -45 117
0 102 27 160 95 203 37 23 84 17 137 -18z m-446 -60 c62 -21 68 -26 99 -82 22
-40 25 -54 20 -95 -5 -35 -10 -46 -18 -38 -6 6 -18 11 -27 11 -14 0 -16 -9
-12 -54 4 -49 2 -54 -24 -73 -16 -11 -51 -30 -79 -42 l-50 -22 -25 31 c-14 16
-34 30 -46 30 -32 0 -65 43 -83 111 -17 59 -17 62 3 103 25 51 83 104 134 122
48 17 50 17 108 -2z"/>
<path d="M11242 10438 c-18 -18 -15 -46 12 -129 13 -41 26 -89 29 -107 4 -18
18 -56 32 -86 14 -29 25 -59 25 -66 0 -8 5 -29 12 -47 16 -44 5 -53 -69 -57
-70 -5 -128 -37 -139 -76 -22 -85 -6 -148 53 -199 52 -47 97 -54 148 -23 17
10 41 21 55 25 29 7 111 98 137 151 l17 37 -36 29 c-20 17 -46 45 -57 63 -22
37 -100 280 -126 395 -9 40 -23 79 -32 87 -18 18 -45 19 -61 3z m153 -598 c3
-5 15 -10 25 -10 10 0 20 -6 23 -12 6 -19 -32 -63 -56 -65 -12 -1 -47 -5 -77
-9 l-56 -6 -19 41 c-10 23 -16 43 -14 45 29 24 161 37 174 16z"/>
<path d="M12163 10346 c-21 -33 -21 -33 -3 -92 27 -84 76 -394 83 -528 1 -16
10 -34 20 -40 15 -9 21 -6 37 14 16 21 20 42 20 118 0 51 -4 112 -9 135 -5 23
-15 76 -21 117 -16 102 -50 243 -61 255 -5 5 -9 19 -9 32 0 35 -31 29 -57 -11z"/>
<path d="M10781 10326 c-21 -23 -22 -26 -8 -53 33 -63 67 -139 67 -150 0 -7 6
-27 14 -45 41 -95 56 -140 56 -166 0 -27 -4 -31 -37 -37 -21 -3 -66 -6 -100
-5 -45 1 -73 -5 -103 -20 -23 -12 -43 -20 -45 -18 -7 8 -55 113 -55 121 0 5
-9 20 -20 34 -11 14 -20 33 -20 42 0 50 -111 251 -139 251 -28 0 -41 -31 -55
-140 -9 -63 -23 -155 -32 -205 -8 -49 -17 -102 -19 -116 -1 -14 -8 -36 -14
-48 -7 -12 -11 -27 -9 -34 1 -6 -4 -36 -11 -65 -16 -63 -9 -98 21 -108 27 -8
45 14 60 74 12 50 24 58 104 71 32 5 72 14 87 20 16 6 30 11 32 11 10 0 55
-76 55 -93 0 -10 11 -33 25 -51 14 -18 25 -40 25 -48 0 -8 10 -28 22 -43 l22
-28 18 23 c10 12 18 35 18 51 l0 29 74 0 c63 0 82 4 132 31 76 40 82 45 105
90 27 53 24 75 -18 160 -44 87 -54 113 -78 191 -9 32 -20 60 -25 63 -4 2 -10
23 -14 45 -3 22 -22 74 -41 115 -39 83 -56 92 -94 51z m-327 -328 c48 -102 76
-171 76 -184 0 -15 -141 -19 -150 -4 -3 5 0 47 6 92 7 46 13 98 13 116 1 49
27 40 55 -20z m529 -227 c44 -14 46 -28 7 -59 -20 -16 -51 -25 -107 -32 -89
-12 -123 -3 -143 36 -8 13 -17 24 -21 24 -5 0 -3 12 3 26 l12 26 106 -5 c58
-2 122 -10 143 -16z"/>
<path d="M13102 10170 c-50 -33 -95 -60 -101 -60 -5 0 -22 -17 -37 -37 -27
-37 -63 -72 -74 -73 -4 0 -12 15 -18 34 -7 19 -33 52 -57 74 -59 52 -103 59
-186 29 -53 -18 -68 -30 -98 -72 -32 -44 -36 -56 -36 -109 1 -55 3 -60 38 -90
28 -24 37 -38 37 -62 0 -49 37 -68 115 -60 62 6 137 35 152 58 4 7 13 26 18
42 20 57 39 56 99 -3 l54 -53 63 6 c59 6 109 26 109 45 0 4 11 14 25 21 13 7
36 37 51 66 15 30 29 54 31 54 3 0 35 -31 72 -70 50 -51 75 -70 94 -70 41 0
43 31 5 84 -18 24 -46 66 -62 91 -62 101 -107 136 -147 114 -19 -10 -20 -8
-18 23 3 42 -9 78 -26 78 -7 0 -54 -27 -103 -60z m118 -67 c-1 -33 -49 -156
-71 -179 -12 -13 -34 -26 -50 -29 -33 -7 -83 16 -100 46 -9 18 -6 26 18 51 36
38 142 114 168 121 34 8 35 8 35 -10z m-436 -73 c53 -81 16 -160 -74 -160 -23
0 -80 58 -80 82 0 9 -5 29 -12 44 -11 24 -10 29 14 49 19 16 40 23 76 23 47 2
51 0 76 -38z"/>
<path d="M5106 9791 c-27 -30 -37 -179 -24 -381 10 -168 9 -397 -5 -632 -2
-42 -21 -48 -23 -8 -2 37 -23 110 -41 137 -11 17 -14 36 -9 69 4 29 1 57 -8
78 -7 18 -13 61 -13 97 0 35 -5 80 -11 99 -6 19 -16 71 -22 115 -6 44 -13 96
-16 115 -8 57 -32 134 -48 155 l-15 20 -16 -20 c-13 -16 -15 -37 -12 -103 3
-45 10 -88 16 -96 7 -8 13 -98 16 -249 4 -195 3 -236 -8 -231 -8 3 -19 33 -25
68 -15 80 -38 136 -56 136 -41 0 -49 -130 -21 -320 10 -63 19 -144 22 -180 2
-36 8 -81 13 -100 6 -19 10 -81 10 -138 0 -57 4 -111 9 -120 5 -9 5 -37 1 -62
l-7 -45 -15 35 c-9 19 -19 53 -23 75 -4 22 -12 46 -18 53 -5 6 -7 12 -3 12 4
0 0 13 -9 30 -8 16 -15 47 -15 70 0 50 -36 164 -65 208 -36 54 -49 24 -55
-132 -4 -108 -8 -131 -20 -131 -18 0 -27 60 -11 78 13 16 -1 120 -18 141 -8 9
-10 23 -6 33 13 33 13 98 -1 138 -7 22 -14 67 -14 100 0 33 -5 78 -11 100 -6
22 -12 58 -14 80 -14 168 -28 236 -59 282 -14 21 -26 44 -26 51 0 18 -47 -39
-48 -58 0 -8 -3 -89 -7 -180 -9 -231 -17 -257 -44 -140 -15 65 -42 151 -53
166 -4 5 -5 27 -1 48 5 29 1 44 -16 67 -16 22 -21 38 -16 56 4 18 -5 48 -31
104 -20 43 -40 79 -44 79 -33 0 -65 -171 -54 -290 7 -80 14 -200 18 -320 2
-58 6 -131 11 -163 8 -64 -3 -88 -34 -80 -17 4 -18 8 -7 35 9 20 10 44 5 71
-4 23 -15 83 -24 132 -9 50 -19 101 -23 115 -3 14 -7 32 -8 40 -1 8 -16 80
-34 160 -22 105 -38 155 -57 183 -14 21 -31 36 -37 34 -18 -6 -27 -94 -25
-257 3 -234 0 -340 -10 -340 -5 0 -15 40 -21 90 -13 90 -40 155 -63 147 -27
-9 -30 -137 -10 -442 22 -327 -2 -895 -37 -895 -14 0 -29 61 -39 159 -6 51
-13 96 -16 99 -6 6 1 -129 10 -208 3 -25 7 -108 9 -185 2 -98 7 -140 15 -139
6 1 15 2 20 3 5 0 18 16 29 34 22 36 30 102 37 294 3 70 7 183 11 251 l6 123
43 45 c53 54 56 69 54 239 -3 157 9 626 17 674 3 18 9 30 13 25 14 -15 39
-106 46 -168 4 -32 11 -68 15 -80 5 -12 14 -61 20 -111 7 -49 19 -111 27 -137
8 -26 12 -52 9 -57 -4 -5 -2 -21 3 -34 6 -14 11 -87 12 -161 2 -163 13 -189
54 -141 14 17 30 41 35 54 18 40 12 536 -10 829 -8 113 -5 152 11 152 8 0 27
-59 34 -108 2 -15 13 -58 24 -97 11 -38 17 -73 14 -78 -2 -4 4 -38 15 -75 23
-76 29 -108 37 -207 7 -90 15 -164 21 -192 7 -37 37 -27 61 20 19 36 23 64 28
202 3 88 9 192 13 230 l7 70 17 -50 c26 -82 39 -138 38 -175 0 -19 2 -55 4
-80 2 -25 7 -99 10 -165 4 -66 9 -138 12 -160 2 -22 6 -79 8 -126 12 -267 18
-330 36 -339 15 -8 22 -1 43 41 23 43 27 66 33 182 8 162 16 237 27 240 23 6
84 -264 98 -429 11 -139 24 -204 40 -204 5 0 23 21 40 48 l31 47 -6 130 c-4
72 -7 193 -8 270 -2 126 0 145 20 185 26 56 39 150 46 339 5 143 18 200 30
124 30 -204 38 -254 48 -293 6 -25 12 -85 13 -135 3 -87 10 -125 24 -125 4 0
22 15 40 34 31 32 32 37 37 132 3 55 7 308 10 564 5 432 13 542 29 423 4 -26
16 -79 27 -117 24 -84 52 -230 62 -326 2 -19 12 -100 21 -180 9 -80 19 -170
22 -201 3 -30 12 -64 20 -75 14 -18 15 -18 39 9 13 16 25 42 25 60 1 18 3 50
4 72 2 22 6 132 10 245 4 113 11 214 15 225 15 40 33 -28 55 -205 2 -19 6 -89
9 -155 10 -221 17 -319 27 -405 6 -47 11 -174 13 -282 1 -129 5 -201 13 -209
8 -8 19 2 43 36 34 50 32 35 40 280 0 6 5 3 9 -5 13 -22 31 -149 32 -222 0
-89 11 -143 29 -143 7 0 24 20 37 45 21 40 24 63 28 190 2 80 4 150 5 155 0 6
5 2 11 -8 6 -10 8 -25 5 -34 -3 -8 -3 -20 1 -26 8 -14 12 -63 12 -159 0 -42 5
-79 10 -82 21 -13 63 63 78 141 14 76 17 134 27 483 3 91 6 167 6 170 0 3 7
-4 15 -14 8 -11 15 -36 15 -55 0 -20 5 -52 10 -71 6 -19 12 -69 15 -110 11
-210 39 -418 59 -438 7 -6 44 26 57 49 15 28 37 159 49 286 6 66 13 133 16
148 2 14 6 122 7 240 2 118 6 218 10 222 4 3 7 4 7 1 0 -2 16 -67 35 -142 19
-76 35 -154 35 -175 0 -20 5 -52 10 -71 6 -19 13 -55 16 -80 2 -25 9 -61 14
-80 9 -36 20 -154 24 -268 2 -64 14 -85 46 -79 29 4 68 107 84 222 9 61 21
139 27 175 6 36 15 90 19 120 5 30 12 96 15 145 3 50 10 104 14 120 5 17 12
43 16 59 8 38 18 25 43 -54 30 -98 41 -148 47 -220 27 -345 27 -350 53 -350
38 1 59 34 76 115 21 100 52 274 69 385 11 73 16 85 33 85 16 0 19 -8 22 -45
1 -25 7 -74 13 -110 6 -36 13 -114 15 -175 2 -60 7 -164 10 -230 4 -66 6 -212
6 -325 -2 -591 -3 -563 16 -582 28 -28 63 -4 83 57 19 58 47 203 55 290 7 68
13 78 54 95 49 20 72 126 93 439 8 122 16 176 25 179 9 3 13 -16 14 -70 1 -40
3 -89 5 -108 1 -19 4 -111 7 -205 2 -93 5 -173 5 -177 1 -5 10 -8 20 -8 49 0
76 63 107 245 21 128 24 158 30 340 2 84 9 151 14 153 6 2 10 0 11 -5 0 -4 2
-19 5 -33 27 -171 32 -206 39 -300 3 -36 10 -81 15 -100 6 -19 10 -75 10 -123
0 -100 10 -127 46 -127 19 0 28 8 40 37 17 39 44 164 50 228 1 22 10 69 19
105 8 36 18 81 21 100 8 52 14 70 24 70 30 0 72 -312 74 -553 1 -93 2 -98 23
-104 52 -12 69 15 78 128 3 39 8 76 11 80 3 5 7 32 9 61 5 75 15 151 22 162
12 19 33 -29 33 -75 0 -26 4 -59 10 -73 5 -15 12 -78 14 -141 3 -63 8 -120 12
-126 4 -7 9 -73 10 -148 8 -285 15 -403 25 -423 10 -19 21 -20 68 -7 8 2 18
-10 26 -31 10 -28 10 -85 1 -280 -7 -135 -9 -276 -6 -315 4 -38 3 -86 -2 -105
-11 -48 -10 -694 2 -805 5 -49 10 -118 10 -152 0 -50 4 -67 24 -89 l23 -28 34
21 c24 16 38 36 52 75 23 68 65 224 82 308 8 36 20 92 29 125 8 33 20 86 27
118 7 31 18 57 25 57 19 0 23 -46 19 -197 -3 -110 -1 -150 11 -178 8 -19 18
-35 22 -35 4 0 23 16 42 35 19 19 38 35 42 35 3 0 4 -63 2 -140 -3 -130 -2
-140 15 -150 55 -29 78 7 103 164 24 152 28 201 32 459 3 227 13 269 40 176
11 -37 16 -97 17 -203 0 -177 9 -244 35 -263 25 -19 32 -17 64 17 50 54 53 45
46 -119 -7 -148 -6 -149 18 -178 l24 -28 26 24 c14 13 34 47 45 75 22 61 63
349 60 426 -2 52 7 139 16 148 10 10 42 -145 45 -219 0 -4 9 -18 20 -32 l21
-26 35 21 c42 25 47 34 69 128 18 80 40 489 29 547 -7 35 14 123 29 123 4 0 6
-4 3 -8 -3 -5 6 -31 20 -58 19 -36 24 -59 21 -87 -3 -21 -1 -111 5 -200 5 -89
11 -252 13 -361 3 -179 6 -201 23 -218 28 -29 68 -9 92 45 19 42 23 62 36 177
12 104 14 125 19 200 6 81 23 142 37 133 24 -14 31 -48 62 -333 9 -74 18 -148
21 -165 2 -16 7 -84 10 -150 9 -183 15 -217 46 -234 14 -8 33 -11 43 -8 25 10
66 105 66 154 0 23 5 54 11 70 6 15 13 57 15 93 6 87 28 211 42 236 6 12 9 24
6 27 -3 3 -3 11 2 18 4 8 14 -6 27 -37 14 -37 21 -90 28 -219 12 -233 12 -233
40 -260 21 -21 27 -23 48 -12 26 13 60 92 59 136 0 33 20 217 32 296 6 33 10
131 10 218 0 122 3 158 12 155 19 -7 37 -118 52 -318 2 -36 10 -108 16 -160 7
-52 10 -115 7 -140 -6 -50 16 -163 39 -197 27 -43 44 -29 44 36 0 33 5 72 11
88 7 15 13 62 14 103 1 41 11 127 23 191 12 63 22 133 23 155 2 56 22 174 30
174 13 0 39 -69 39 -105 0 -33 12 -94 41 -216 14 -56 55 -63 78 -12 7 14 18
89 26 167 24 229 36 304 51 310 10 4 14 -2 14 -19 0 -24 25 -128 34 -143 3 -5
8 -37 11 -73 4 -35 11 -90 15 -123 5 -32 9 -61 8 -65 -3 -15 15 -170 21 -178
3 -6 18 -13 34 -17 44 -11 51 22 49 217 -2 131 1 168 11 165 6 -3 13 -16 13
-29 1 -13 13 -60 26 -104 14 -44 29 -111 33 -150 11 -108 33 -149 75 -138 30
8 68 142 72 257 3 69 22 102 32 54 3 -13 14 -62 26 -110 11 -47 20 -102 20
-121 0 -19 7 -54 15 -77 8 -23 15 -57 15 -75 0 -17 7 -54 16 -81 9 -27 19
-101 23 -164 5 -97 9 -115 23 -118 55 -11 78 96 78 368 0 98 4 181 9 184 10 7
41 -36 46 -64 2 -10 7 -40 11 -67 9 -64 20 -83 49 -83 39 0 51 40 60 214 2 43
8 83 13 88 20 20 50 -69 82 -237 7 -33 16 -80 21 -105 5 -25 11 -58 13 -75 6
-44 24 -85 40 -91 42 -16 86 54 86 134 0 28 5 63 12 79 6 17 14 119 17 252 6
242 13 266 51 191 16 -31 20 -57 19 -109 -1 -38 2 -74 6 -81 4 -7 7 -34 6 -60
0 -27 6 -67 14 -91 8 -23 15 -63 15 -89 0 -56 25 -86 63 -76 51 12 72 109 82
376 5 130 15 197 29 193 4 -2 9 -24 11 -50 4 -67 23 -165 34 -176 15 -15 58
23 76 67 9 21 23 91 31 155 8 64 18 130 23 146 17 69 50 -11 61 -150 10 -136
24 -185 53 -185 51 0 64 21 102 168 17 65 44 137 49 131 2 -2 6 -35 9 -74 3
-38 11 -97 16 -130 11 -61 30 -233 36 -317 2 -25 6 -59 9 -75 3 -15 8 -50 11
-77 8 -78 32 -93 91 -57 25 15 34 31 49 87 10 38 22 73 26 79 5 5 9 19 9 32 0
13 4 23 9 23 5 0 9 -10 9 -22 1 -93 17 -205 30 -220 14 -16 16 -17 43 -1 43
26 51 61 73 326 4 61 13 69 21 21 11 -66 21 -89 39 -92 36 -7 66 9 85 46 20
40 56 199 66 299 4 34 13 84 20 110 l12 48 13 -30 c7 -16 12 -57 11 -90 -4
-201 5 -304 31 -331 67 -74 150 94 174 354 6 66 17 93 31 78 14 -14 38 -166
57 -370 19 -193 37 -256 74 -256 27 0 80 68 103 135 23 62 41 80 52 52 2 -7 5
-105 6 -217 2 -216 9 -268 43 -302 l20 -20 42 41 c41 40 44 47 60 144 10 56
22 122 26 147 5 28 5 49 -2 57 -5 7 -7 16 -5 20 3 5 8 37 12 73 4 36 8 67 11
69 12 12 17 -20 19 -137 1 -74 7 -137 14 -150 15 -28 43 -28 76 1 31 26 59
133 51 189 -3 20 1 70 10 110 8 40 14 109 13 153 -3 90 9 187 22 179 4 -2 6
-11 3 -18 -3 -8 -1 -17 5 -21 6 -3 11 -18 11 -32 0 -14 6 -51 14 -82 8 -31 17
-103 19 -161 3 -58 8 -113 12 -123 7 -17 54 -47 74 -47 25 0 63 79 71 152 5
40 14 102 21 138 6 36 12 121 14 190 4 146 13 252 24 283 29 78 90 -444 82
-691 -2 -56 15 -109 40 -122 15 -9 25 -4 57 28 32 32 40 49 47 93 7 51 8 53
16 24 5 -16 8 -62 8 -102 -1 -70 14 -128 37 -137 20 -8 69 24 88 57 20 35 76
225 76 258 0 12 7 43 15 70 8 27 21 70 29 97 24 80 0 136 -42 95 -27 -26 -40
-54 -53 -115 -16 -77 -40 -148 -50 -148 -5 0 -9 28 -10 63 -2 97 -7 233 -14
332 -3 50 -6 101 -5 115 2 71 -43 154 -81 148 -32 -4 -50 -65 -55 -188 -3 -58
-9 -126 -14 -151 -5 -25 -7 -55 -4 -66 3 -11 1 -24 -5 -27 -7 -5 -11 8 -11 39
0 26 -6 77 -14 114 -14 65 -29 161 -42 274 -3 32 -12 63 -18 70 -6 7 -12 27
-14 46 -3 37 -36 91 -56 91 -7 0 -25 -13 -40 -29 -37 -39 -63 -145 -65 -263 0
-51 -6 -129 -12 -173 -12 -92 -18 -161 -19 -224 0 -57 -10 -48 -16 15 -3 27
-14 81 -26 119 -11 39 -22 90 -23 115 -2 25 -8 58 -14 73 -6 16 -11 42 -11 59
0 35 -32 93 -58 103 -37 14 -84 -97 -81 -191 2 -73 -10 -294 -17 -316 -9 -28
-26 -7 -29 34 -3 58 -26 146 -40 158 -10 8 -19 5 -38 -14 -29 -29 -41 -73 -32
-115 4 -18 1 -41 -8 -58 -8 -15 -17 -64 -20 -108 -3 -44 -11 -93 -17 -110 -5
-16 -13 -70 -18 -120 -5 -70 -10 -90 -23 -93 -11 -2 -16 6 -16 30 0 18 -3 96
-7 173 -3 77 -5 187 -5 245 0 58 0 139 0 180 0 41 0 82 0 90 5 211 -15 282
-76 260 -16 -6 -20 -17 -21 -61 -1 -49 -15 -245 -29 -394 -15 -168 -52 -313
-74 -289 -4 5 -14 61 -21 124 -6 63 -15 120 -20 125 -4 6 -10 68 -14 139 -4
71 -11 135 -17 142 -5 7 -9 32 -8 56 3 103 -27 237 -62 274 -12 13 -25 24 -28
24 -3 0 -16 -15 -27 -33 -21 -31 -30 -84 -39 -225 -10 -157 -27 -320 -36 -356
-18 -68 -33 -27 -36 99 -1 71 -8 126 -17 148 -8 21 -14 73 -15 132 -2 113 -15
176 -42 201 -19 17 -21 17 -43 -7 -18 -19 -27 -47 -40 -130 -9 -58 -16 -110
-15 -115 1 -5 0 -34 -4 -64 -4 -30 -9 -80 -11 -110 -7 -74 -50 -210 -59 -186
-4 10 -5 22 -2 27 3 5 -1 30 -10 55 -9 26 -14 59 -11 75 2 15 2 30 -1 32 -2 3
-7 52 -9 109 -5 118 -13 157 -37 172 -13 9 -22 6 -41 -14 -23 -23 -25 -35 -31
-155 -7 -156 -22 -286 -33 -297 -4 -4 -8 8 -9 28 -1 34 -34 84 -56 84 -18 0
-46 -46 -47 -77 0 -31 -9 -83 -36 -199 -8 -33 -14 -81 -14 -107 0 -47 -14 -67
-33 -48 -10 10 -26 95 -32 171 -1 19 -5 51 -9 70 -3 19 -8 58 -12 85 -3 28
-10 79 -15 115 -9 61 -28 240 -29 267 0 7 -11 20 -25 29 -22 15 -26 14 -48 -3
-19 -14 -29 -37 -42 -98 -23 -108 -48 -195 -55 -195 -7 0 -34 127 -32 153 0
10 -12 77 -28 149 -23 106 -34 137 -55 157 l-26 26 -18 -22 c-23 -28 -42 -122
-46 -232 -2 -52 -9 -98 -19 -115 -8 -16 -13 -33 -10 -38 3 -4 -2 -8 -10 -8 -9
0 -13 6 -10 13 3 8 0 27 -7 43 -6 16 -13 65 -15 109 -5 118 -23 203 -49 231
-21 23 -24 23 -39 9 -9 -9 -19 -28 -22 -43 -3 -15 -8 -36 -12 -47 -3 -11 -6
-168 -7 -350 0 -241 -4 -340 -14 -367 -24 -71 -36 -50 -51 92 -6 52 -15 113
-21 135 -6 22 -14 65 -19 97 -4 31 -10 60 -14 66 -3 5 -10 63 -15 129 -6 89
-14 129 -30 161 -25 49 -42 53 -70 13 -19 -27 -21 -43 -21 -198 0 -92 -4 -184
-8 -203 -5 -19 -6 -80 -3 -135 6 -107 -2 -306 -13 -343 -4 -12 -15 -22 -25
-22 -26 0 -49 81 -66 233 -3 20 -9 46 -15 57 -6 11 -12 41 -14 67 -5 62 -22
153 -41 223 -8 30 -18 80 -21 110 -10 108 -44 180 -78 167 -27 -10 -30 -57
-18 -268 7 -114 10 -214 7 -223 -16 -50 -18 -52 -26 -21 -4 17 -13 48 -19 70
-6 22 -15 61 -20 87 -10 54 -38 108 -57 108 -30 0 -36 -46 -39 -275 -1 -126
-5 -238 -9 -248 -11 -27 -27 -16 -54 36 -19 38 -21 50 -11 62 9 10 9 23 1 47
-6 18 -10 42 -9 53 1 11 -3 36 -9 55 -6 19 -14 67 -17 107 -3 39 -10 83 -16
98 -5 14 -16 75 -24 136 -14 105 -39 179 -62 186 -6 2 -18 -7 -27 -21 -13 -19
-16 -49 -16 -133 2 -205 -6 -397 -17 -415 -10 -16 -24 -8 -24 15 0 12 -6 33
-13 47 -8 14 -12 41 -10 60 2 19 -8 89 -22 155 -15 66 -35 181 -46 255 -29
206 -47 291 -65 311 -23 25 -28 24 -44 -8 -26 -57 -27 -295 -2 -385 6 -23 7
-40 1 -44 -5 -3 -9 -16 -9 -30 0 -23 -19 -35 -21 -14 -1 6 -3 22 -5 38 -1 15
-5 45 -8 67 -3 22 -8 65 -11 95 -7 62 -23 110 -36 110 -5 0 -9 6 -9 14 0 27
-18 26 -38 -2 -12 -16 -23 -51 -26 -83 -2 -30 -11 -74 -19 -99 -8 -25 -17 -72
-20 -105 -5 -61 -32 -145 -47 -145 -13 0 -28 58 -34 130 -7 82 -21 132 -46
162 l-19 23 -18 -25 c-22 -30 -40 -98 -46 -171 -3 -30 -9 -66 -15 -81 -6 -14
-13 -44 -16 -65 -3 -21 -9 -51 -14 -68 -9 -29 -9 -29 -16 20 -4 28 -15 75 -23
105 -9 30 -15 71 -14 91 2 42 -42 237 -63 277 -8 15 -23 35 -34 45 -18 16 -21
17 -36 2 -31 -32 -45 -143 -51 -404 -1 -75 -8 -161 -14 -191 -6 -30 -10 -73
-9 -94 2 -23 -2 -41 -9 -43 -13 -5 -14 -1 -33 117 -32 195 -40 237 -61 287
-15 38 -26 52 -36 49 -8 -4 -19 -6 -24 -6 -20 0 -38 -62 -44 -156 -4 -54 -15
-144 -25 -199 -10 -55 -23 -136 -29 -180 -11 -79 -35 -135 -51 -119 -5 5 -11
54 -14 109 -3 55 -9 116 -15 135 -5 19 -12 83 -15 141 -6 136 -14 201 -31 269
-7 30 -18 80 -23 111 -10 57 -58 149 -78 149 -6 0 -20 -10 -31 -22 -19 -22
-28 -67 -37 -193 -7 -102 -25 -224 -42 -284 -8 -25 -16 -3 -20 51 -2 29 -6 80
-10 113 -4 33 -9 83 -10 110 -2 28 -6 82 -9 120 -4 39 -10 129 -15 201 -4 73
-13 141 -19 151 -5 11 -15 48 -20 83 -12 76 -21 87 -58 74 -15 -5 -26 -11 -25
-14 0 -3 -3 -23 -8 -45 -6 -22 -15 -105 -20 -185 -6 -80 -13 -167 -15 -195 -2
-27 -7 -104 -10 -170 -4 -66 -10 -136 -15 -155 -5 -19 -8 -48 -8 -63 1 -38
-19 -58 -26 -26 -7 39 -26 179 -31 242 -3 31 -10 68 -15 81 -5 13 -14 62 -20
108 -17 133 -33 208 -47 220 -9 7 -20 6 -38 -6 l-25 -17 1 -217 c2 -176 -6
-338 -17 -384 -1 -5 -2 -30 -3 -58 0 -27 -4 -50 -8 -50 -5 0 -8 114 -8 252 0
379 -27 508 -89 439 -16 -17 -17 -42 -16 -223 3 -206 -4 -317 -22 -375 -18
-61 -40 -37 -44 47 -1 30 -7 100 -14 155 -6 55 -13 120 -15 145 -3 25 -7 59
-11 75 -3 17 -8 48 -11 70 -5 44 -32 97 -47 92 -24 -8 -46 -57 -55 -119 -12
-85 -19 -97 -40 -69 -14 18 -19 20 -33 9 -10 -7 -20 -28 -23 -47 -3 -19 -8
-38 -11 -43 -3 -5 -5 -30 -5 -56 1 -62 -40 -231 -50 -205 -4 10 -8 32 -8 49
-1 18 -14 49 -31 73 -25 35 -34 40 -49 32 -23 -13 -29 -26 -52 -126 -10 -44
-30 -120 -43 -170 -14 -49 -26 -103 -26 -120 -1 -48 -67 -286 -84 -303 -22
-23 -36 -6 -41 54 -3 40 -17 416 -18 489 0 66 12 253 18 267 4 9 -1 42 -10 73
-9 32 -13 66 -9 78 4 12 9 49 10 82 2 33 4 71 5 85 1 14 1 41 1 60 -1 38 6
210 11 300 15 244 20 313 29 370 16 106 22 415 8 484 -7 34 -14 64 -16 68 -3
4 -18 -1 -35 -11 l-31 -19 -3 -183 c-4 -222 -11 -288 -36 -354 -10 -27 -19
-58 -19 -67 0 -10 -4 -18 -8 -18 -4 0 -8 24 -9 54 -1 30 -6 63 -11 73 -6 10
-11 70 -11 132 -1 62 -4 118 -8 124 -3 5 -7 38 -9 71 -2 34 -9 144 -17 246 -8
102 -14 205 -14 230 -3 252 -9 309 -40 357 -34 52 -65 -19 -63 -141 0 -39 -4
-102 -9 -141 -6 -38 -10 -107 -10 -153 -1 -79 -19 -152 -39 -152 -17 0 -51 89
-43 113 4 10 1 81 -5 158 -12 141 -25 182 -61 196 -31 12 -77 -75 -88 -167 -5
-41 -30 -153 -56 -252 -5 -21 -14 -38 -18 -38 -22 0 -49 149 -43 235 2 22 -6
78 -18 125 -12 47 -23 130 -25 185 -3 55 -10 124 -16 155 -7 30 -11 67 -10 81
4 51 -20 153 -44 181 l-23 27 -17 -25 c-18 -27 -20 -148 -11 -459 6 -168 -8
-414 -25 -463 -12 -34 -38 -44 -40 -14 -1 9 -2 71 -4 137 -1 66 -7 147 -14
180 -6 33 -11 69 -11 80 3 62 1 182 -5 263 -6 83 -10 98 -34 124 l-27 30 -16
-24 c-13 -19 -17 -65 -22 -214 -4 -104 -7 -202 -7 -219 0 -57 -16 5 -18 70 -3
122 -31 205 -65 192 -19 -8 -24 -76 -30 -392 -6 -291 -31 -613 -54 -694 -14
-48 -27 -32 -30 36 -2 37 -6 71 -8 75 -10 15 -12 198 -3 204 5 3 7 20 5 37 -6
36 -19 397 -17 471 0 27 -4 54 -9 61 -7 9 -7 29 1 63 6 32 7 57 1 69 -15 28
-24 91 -27 179 -4 95 -18 148 -50 187 l-22 29 -20 -29 c-27 -38 -32 -59 -48
-193 -31 -261 -37 -305 -46 -314 -5 -6 -9 -18 -9 -28 0 -34 -19 -18 -30 25 -6
23 -15 56 -20 72 -11 39 -18 78 -26 145 -3 30 -11 63 -16 74 -6 10 -12 37 -14
60 -6 56 -13 76 -41 113 -23 31 -25 32 -48 17 -12 -8 -26 -26 -29 -40 -14 -53
-28 -183 -31 -270 -1 -51 -7 -120 -13 -155 -24 -142 -45 -279 -56 -364 -9 -67
-15 -90 -26 -90 -11 0 -17 18 -21 70 -12 128 -29 240 -41 269 -6 16 -12 65
-14 110 -2 82 -13 151 -29 177 -5 8 -8 26 -6 41 1 15 -3 37 -10 50 -18 33 -31
96 -29 145 1 51 -24 129 -51 163 l-21 24 -17 -23 c-13 -18 -20 -51 -25 -125
-3 -56 -4 -112 -1 -126 5 -23 7 -192 3 -285 -1 -22 0 -49 2 -60 2 -11 0 -65
-4 -120 -6 -90 -11 -131 -31 -257 -3 -21 -10 -38 -14 -38 -10 0 -43 193 -46
265 -3 77 -16 159 -28 173 -6 7 -12 43 -13 80 -2 37 -6 85 -8 107 -3 22 -7 56
-10 75 -28 226 -33 255 -57 276 -16 14 -21 15 -35 3 -15 -13 -16 -32 -8 -204
4 -104 8 -233 9 -285 0 -123 -13 -359 -22 -373 -10 -16 -20 21 -22 83 -5 153
-44 469 -62 500 -8 14 -14 26 -15 28 -1 1 -8 0 -17 -4 -9 -3 -21 -22 -26 -43
-14 -53 -21 -212 -10 -232 5 -10 6 -25 3 -34 -10 -25 -24 2 -24 47 0 48 -29
110 -50 106 -25 -5 -39 -67 -40 -183 0 -70 -4 -105 -9 -96 -12 19 -19 85 -31
306 -6 99 -15 205 -21 235 -6 30 -12 80 -14 110 -12 154 -33 220 -71 220 -20
0 -26 -17 -40 -104 -12 -71 -30 -320 -28 -368 1 -25 -23 -23 -31 2 -4 11 -6
39 -4 63 1 23 -1 49 -5 57 -3 8 -14 52 -25 97 -11 45 -22 87 -25 92 -4 5 -2
12 4 16 10 6 3 62 -10 80 -4 6 -10 38 -14 73 -3 35 -17 91 -31 126 -14 34 -25
73 -25 85 0 23 -35 81 -49 81 -4 0 -16 -8 -25 -19z"/>
<path d="M14888 9729 c-21 -12 -24 -70 -7 -134 6 -22 15 -60 20 -85 6 -25 12
-49 13 -55 19 -79 73 -222 92 -245 25 -29 26 -29 52 -13 15 9 28 18 30 19 1 0
-16 50 -38 110 -22 60 -40 119 -40 132 0 12 -6 48 -14 80 -8 31 -20 83 -26
114 -8 39 -18 63 -33 73 -25 18 -26 18 -49 4z"/>
<path d="M13596 9341 c-20 -22 -16 -44 13 -78 21 -25 68 -47 75 -35 5 8 -18
105 -29 122 -10 16 -41 11 -59 -9z"/>
<path d="M12034 9245 c-24 -24 -25 -31 -21 -98 3 -40 12 -119 21 -177 9 -58
23 -162 30 -232 18 -168 45 -209 105 -160 21 16 21 21 11 67 -15 64 -38 197
-46 255 -3 25 -9 70 -14 100 -6 30 -12 98 -16 150 -8 124 -22 143 -70 95z"/>
<path d="M10804 9235 c-13 -19 -14 -28 -5 -39 16 -19 26 -57 61 -224 23 -111
28 -148 19 -164 -9 -16 -7 -24 10 -42 17 -18 22 -39 25 -95 4 -64 2 -74 -18
-94 -13 -13 -26 -40 -30 -62 -11 -54 11 -73 99 -84 79 -10 131 -5 160 15 11 8
34 14 52 14 23 0 54 14 100 46 74 50 81 61 82 116 1 32 -6 45 -48 87 -27 27
-62 52 -79 56 -17 3 -36 13 -43 21 -6 8 -37 21 -68 30 -123 34 -138 43 -154
87 -9 23 -19 65 -22 92 -7 49 -35 168 -56 233 -9 26 -16 32 -40 32 -19 0 -34
-8 -45 -25z m324 -493 c120 -58 159 -93 148 -129 -6 -19 -110 -73 -140 -73 -8
0 -17 -4 -20 -9 -8 -13 -55 -20 -85 -12 -23 7 -26 12 -27 57 0 27 -4 75 -8
106 l-9 56 29 5 c53 8 94 7 112 -1z"/>
<path d="M10097 9210 c-26 -9 -57 -26 -70 -37 -12 -11 -33 -26 -47 -33 -46
-24 -234 -163 -290 -215 -30 -28 -62 -56 -71 -61 -9 -5 -37 -37 -63 -72 -26
-34 -56 -67 -66 -72 -10 -5 -26 -17 -34 -26 -26 -26 -49 0 -42 47 4 28 1 43
-14 62 -11 14 -20 32 -20 39 0 47 -43 22 -76 -45 -15 -28 -39 -67 -54 -87 -15
-19 -35 -56 -45 -82 -9 -25 -29 -59 -44 -75 -16 -15 -44 -49 -63 -74 -19 -26
-63 -74 -96 -107 -88 -85 -82 -138 13 -133 25 1 58 -5 74 -14 17 -8 55 -15 90
-15 33 0 72 -5 88 -11 15 -6 44 -12 63 -15 19 -2 67 -23 105 -46 56 -33 82
-42 133 -46 72 -5 78 5 41 65 -21 33 -21 37 -6 69 20 41 15 55 -27 88 -19 14
-39 42 -48 68 -42 124 -58 175 -58 190 0 17 288 310 326 331 12 7 68 50 125
96 57 46 110 86 119 89 22 8 150 92 150 98 0 15 -22 44 -33 43 -7 -1 -33 -9
-60 -19z"/>
<path d="M14083 9136 c-69 -18 -100 -59 -153 -206 -13 -36 -35 -81 -48 -100
-19 -28 -22 -42 -16 -75 8 -54 27 -73 64 -67 39 6 48 18 54 77 8 84 27 169 42
192 8 12 14 32 14 43 0 13 10 24 26 30 39 15 48 13 88 -22 l37 -33 10 -125 c7
-99 12 -128 26 -137 31 -23 52 -12 78 40 14 28 0 187 -20 230 -30 65 -102 144
-145 159 -8 2 -34 0 -57 -6z"/>
<path d="M14556 9131 c-11 -12 -29 -21 -41 -21 -11 0 -38 -17 -58 -38 -33 -33
-38 -45 -42 -98 -4 -46 0 -71 18 -113 19 -46 27 -55 62 -67 22 -8 52 -14 67
-14 38 0 84 29 100 64 l14 30 33 -57 c19 -33 38 -86 46 -129 13 -72 13 -74
-12 -130 -21 -45 -34 -60 -64 -74 -76 -34 -176 8 -220 94 -22 43 -46 53 -78
33 -12 -8 -13 -18 -2 -67 11 -49 22 -66 75 -119 l61 -63 93 -1 c62 0 102 4
120 13 34 17 88 84 109 134 27 65 17 214 -21 294 -15 31 -29 80 -73 247 -20
74 -35 87 -113 96 -48 6 -58 4 -74 -14z m52 -130 c5 -30 -14 -99 -34 -126 -14
-19 -15 -19 -40 7 -21 21 -25 31 -19 57 9 40 53 93 74 89 9 -2 18 -14 19 -27z"/>
<path d="M13360 9072 c-8 -4 -39 -25 -68 -47 -62 -47 -75 -80 -76 -196 -2
-130 47 -181 156 -165 60 9 103 38 127 84 29 56 12 68 -50 36 -87 -44 -139
-25 -139 52 0 66 18 110 57 141 86 67 88 69 74 87 -14 16 -54 20 -81 8z"/>
<path d="M13650 8990 c-18 -26 -20 -35 -11 -63 6 -17 12 -57 15 -87 8 -86 27
-134 54 -138 40 -6 52 14 52 88 0 118 -37 230 -75 230 -8 0 -23 -14 -35 -30z"/>
<path d="M12490 8973 c-27 -10 -134 -90 -166 -125 -60 -64 -72 -159 -26 -207
15 -16 35 -39 44 -50 20 -24 75 -28 111 -10 40 21 78 64 99 112 11 26 27 47
34 47 8 0 25 -22 38 -49 33 -64 51 -81 86 -81 41 0 46 16 17 58 -14 20 -31 60
-37 87 -7 28 -18 64 -25 80 -8 17 -16 41 -19 55 -3 14 -15 40 -26 58 -18 29
-24 32 -67 31 -27 0 -55 -3 -63 -6z m34 -109 c10 -25 7 -55 -11 -115 -19 -63
-48 -89 -102 -89 -35 0 -51 22 -51 72 0 35 34 75 105 126 36 26 51 27 59 6z"/>
<path d="M12856 8947 c-27 -23 -47 -32 -63 -29 -13 2 -23 -1 -23 -7 0 -6 -6
-11 -12 -11 -37 -1 -39 -16 -9 -91 16 -41 35 -93 40 -115 15 -57 32 -69 68
-52 30 14 32 31 17 119 -8 51 17 123 46 127 22 4 60 -22 60 -41 0 -5 9 -21 20
-36 10 -16 29 -64 41 -107 21 -80 41 -114 66 -114 9 0 13 17 14 63 1 34 1 66
0 70 -1 4 -2 20 -3 35 -1 15 -15 47 -30 71 -15 25 -28 50 -28 55 -1 16 -41 59
-72 79 -43 27 -87 21 -132 -16z"/>
<path d="M15092 8969 c-26 -10 -43 -48 -46 -102 -3 -50 26 -73 79 -63 59 11
83 81 44 130 -28 35 -49 45 -77 35z"/>
<path d="M11650 8899 c-62 -22 -141 -76 -165 -113 -20 -31 -45 -120 -45 -163
0 -41 50 -93 106 -112 37 -12 44 -11 84 9 61 31 140 108 162 158 10 23 23 42
28 42 10 0 50 -54 50 -68 0 -5 9 -20 19 -33 10 -14 28 -40 38 -59 17 -30 25
-35 62 -38 41 -3 42 -2 35 20 -4 13 -17 37 -29 53 -13 17 -35 58 -49 92 -14
34 -34 77 -45 95 -10 18 -27 49 -37 68 -23 42 -34 51 -55 45 -8 -3 -24 2 -35
10 -25 19 -57 18 -124 -6z m105 -88 c10 -32 -32 -133 -67 -164 -81 -69 -168
-62 -168 14 0 64 36 104 125 143 73 31 102 33 110 7z"/>
<path d="M12220 5422 c-13 -20 -44 -79 -67 -131 -24 -52 -54 -109 -68 -127
-14 -18 -25 -36 -25 -40 0 -12 -106 -168 -124 -183 -9 -7 -16 -18 -16 -24 0
-11 -45 -82 -68 -105 -29 -31 -33 -51 -16 -77 17 -26 52 -39 139 -51 65 -9 85
-20 85 -46 0 -24 -107 -242 -130 -264 -36 -35 -191 -144 -205 -144 -21 0 -65
-48 -65 -70 0 -37 73 -53 121 -27 118 63 229 174 288 288 24 46 51 92 59 101
8 9 25 45 37 80 l23 63 54 -2 c29 -1 80 -11 113 -22 54 -17 62 -18 78 -3 30
26 23 98 -34 347 -16 72 -36 162 -45 200 -47 214 -58 251 -85 265 -24 13 -21
15 -49 -28z"/>
<path d="M11079 4733 c-29 -27 -71 -68 -93 -92 -44 -46 -146 -186 -146 -199 0
-4 14 -24 30 -44 42 -51 90 -58 163 -24 29 14 62 35 72 46 44 49 67 15 72
-108 2 -53 8 -124 14 -158 9 -51 15 -63 40 -78 59 -35 91 18 64 107 -9 29 -21
106 -26 172 -23 309 -36 391 -65 412 -34 25 -69 15 -125 -34z m63 -124 c1 -57
-27 -105 -78 -135 -125 -73 -139 -9 -26 113 78 84 104 89 104 22z"/>
<path d="M10622 4655 c-64 -28 -208 -154 -233 -204 -7 -14 -21 -38 -31 -53
-13 -18 -19 -48 -20 -97 -3 -80 13 -106 68 -117 56 -10 104 13 172 84 56 60
64 65 78 51 8 -9 21 -56 30 -107 21 -131 31 -154 82 -181 46 -25 69 36 38 97
-7 15 -23 92 -35 172 -32 211 -56 344 -66 360 -9 14 -44 12 -83 -5z m8 -140
c11 -30 7 -44 -41 -115 -58 -87 -120 -136 -156 -123 -18 6 -16 59 4 100 23 48
137 163 163 163 13 0 24 -10 30 -25z"/>
<path d="M4985 4304 c-49 -7 -112 -13 -140 -13 -61 -2 -71 -7 -80 -49 -5 -26
0 -46 24 -95 17 -34 33 -74 36 -89 3 -14 17 -40 31 -57 20 -25 34 -31 63 -31
68 0 146 -76 128 -124 -11 -27 -87 -44 -152 -34 -96 15 -98 15 -114 -14 -15
-26 -15 -29 11 -55 26 -25 34 -27 110 -28 58 0 97 6 130 19 75 30 120 105 104
172 -7 28 -117 121 -183 155 -35 18 -51 34 -65 67 -11 24 -17 49 -15 56 3 8
44 17 114 25 88 10 111 16 126 32 9 12 17 27 17 35 0 12 -39 46 -50 43 -3 -1
-45 -8 -95 -15z"/>
<path d="M9949 4300 c-59 -10 -87 -25 -120 -64 -32 -37 -25 -59 25 -80 36 -15
46 -41 46 -118 0 -23 8 -51 19 -66 22 -32 38 -84 40 -131 1 -18 5 -41 10 -50
8 -14 10 -42 12 -141 1 -8 6 -31 12 -50 5 -19 9 -58 8 -86 -1 -36 3 -55 14
-64 19 -16 19 -15 43 37 16 36 17 54 10 135 -5 51 -17 133 -28 182 -10 48 -16
94 -14 100 3 7 38 18 78 25 112 20 179 85 178 172 -1 85 -76 154 -211 195 -50
15 -55 15 -122 4z m157 -105 c35 -11 58 -27 82 -56 17 -23 32 -45 32 -50 0 -4
-16 -24 -35 -43 -25 -25 -49 -37 -90 -46 -30 -6 -63 -10 -73 -8 -21 4 -40 77
-41 161 l-1 57 38 0 c21 0 61 -7 88 -15z"/>
<path d="M5390 4229 c-14 -6 -36 -20 -48 -32 -46 -43 -54 -73 -56 -202 -1
-141 5 -157 80 -194 72 -36 151 -35 229 4 77 39 112 87 127 177 10 62 9 70
-13 114 -16 31 -36 55 -59 67 -19 10 -44 27 -55 37 -42 37 -147 52 -205 29z
m156 -90 c83 -31 117 -82 107 -160 -7 -50 -44 -103 -85 -120 -22 -9 -36 -8
-68 5 -22 9 -53 16 -68 16 -55 0 -82 42 -82 130 0 80 14 109 65 137 42 22 49
22 131 -8z"/>
<path d="M4268 3958 c-35 -35 -16 -86 38 -102 24 -7 40 -68 43 -163 2 -49 0
-54 -26 -65 -51 -23 -53 -33 -14 -77 33 -37 39 -67 31 -153 -7 -76 9 -117 46
-118 25 0 44 76 44 179 l0 102 73 34 c84 39 127 75 157 135 37 73 6 172 -58
186 -15 3 -47 14 -72 24 -101 41 -230 50 -262 18z m255 -91 c53 -23 96 -64 90
-87 -10 -39 -160 -156 -178 -138 -3 2 -6 25 -6 49 -1 24 -5 63 -10 87 -12 55
-3 90 24 95 40 8 47 7 80 -6z"/>
<path d="M3956 3426 c-70 -74 -128 -146 -145 -179 -9 -18 -28 -48 -43 -67 -14
-19 -33 -51 -42 -70 -9 -19 -27 -48 -39 -64 -21 -26 -31 -30 -83 -32 -85 -4
-90 -4 -130 -2 -45 2 -68 -23 -61 -67 6 -39 94 -251 141 -338 20 -38 36 -75
36 -82 0 -13 37 -45 52 -45 18 0 78 64 78 84 0 12 15 47 33 77 46 75 52 87 83
149 15 30 33 68 41 83 19 36 23 72 11 113 -8 30 -13 34 -43 34 -19 0 -37 5
-40 10 -7 12 43 103 88 159 48 60 93 123 107 151 7 14 19 28 26 32 6 5 11 16
9 25 -18 89 -21 90 -79 29z"/>
<path d="M972 2479 c-18 -4 -42 -4 -53 -2 -10 3 -26 -1 -35 -8 -30 -25 -34
-54 -13 -108 36 -96 40 -156 18 -274 -16 -85 -7 -94 62 -66 55 21 128 14 157
-15 52 -51 -116 -126 -281 -126 -56 0 -57 0 -57 -30 0 -39 26 -52 108 -52 132
1 271 57 313 126 28 45 25 105 -6 139 -14 15 -31 28 -38 29 -7 0 -16 2 -22 2
-5 1 -15 5 -22 9 -7 4 -37 9 -68 11 -30 2 -58 5 -61 8 -3 4 -7 26 -9 50 -2 23
-8 73 -13 111 -11 92 -4 97 130 104 108 6 138 18 138 54 0 35 -41 50 -131 47
-46 -1 -99 -5 -117 -9z"/>
<path d="M1475 2321 c-16 -10 -43 -36 -59 -59 -31 -44 -37 -95 -22 -183 7 -41
6 -48 -17 -73 -25 -27 -25 -28 -10 -72 16 -48 42 -67 105 -79 43 -8 95 16 150
69 53 51 67 84 70 157 3 87 -25 161 -79 217 -48 47 -85 54 -138 23z m127 -141
c23 -46 22 -83 -1 -129 -28 -53 -46 -66 -79 -55 -29 10 -50 61 -51 126 -1 52
40 100 83 96 24 -2 35 -11 48 -38z"/>
<path d="M4600 2235 c-19 -23 -3 -74 25 -81 36 -9 47 3 40 43 -3 19 -8 39 -11
44 -8 14 -40 11 -54 -6z"/>
<path d="M3526 2159 c-14 -17 -26 -40 -26 -52 0 -12 -3 -38 -6 -57 -7 -43 19
-86 36 -60 5 8 10 29 10 45 1 57 11 76 51 92 44 17 47 23 21 46 -28 25 -57 20
-86 -14z"/>
<path d="M4484 2166 c-20 -31 -15 -70 10 -74 25 -5 34 6 42 56 6 38 5 42 -14
42 -12 0 -29 -11 -38 -24z"/>
<path d="M4010 2156 c-19 -23 -8 -61 18 -64 44 -7 67 32 36 62 -19 20 -38 20
-54 2z"/>
<path d="M3726 2134 c-9 -8 -16 -29 -16 -45 0 -24 4 -29 25 -29 30 0 48 30 39
65 -7 29 -25 32 -48 9z"/>
<path d="M3140 2120 c-6 -11 -7 -20 -3 -20 4 0 -7 -15 -24 -32 -37 -40 -51
-86 -28 -94 19 -8 44 22 45 53 0 16 8 25 25 29 34 8 48 29 41 59 -8 31 -41 34
-56 5z"/>
<path d="M2243 2118 c-41 -20 -23 -75 20 -64 30 7 41 41 20 61 -8 8 -15 15
-16 14 -1 0 -12 -5 -24 -11z"/>
<path d="M2574 2078 c-9 -18 -32 -58 -51 -89 -25 -42 -34 -66 -31 -90 6 -68
36 -36 81 86 2 5 28 10 58 10 66 0 72 14 28 73 -37 51 -62 54 -85 10z"/>
<path d="M4402 2072 c-40 -33 -42 -75 -5 -80 26 -4 50 28 55 72 4 39 -10 41
-50 8z"/>
<path d="M4993 2083 c-28 -10 -12 -83 18 -83 26 0 55 46 40 64 -13 16 -40 25
-58 19z"/>
<path d="M5669 2083 c-15 -4 -39 -42 -39 -64 0 -5 10 -14 23 -18 17 -7 26 -4
43 16 l20 25 37 -34 c33 -32 37 -40 37 -87 0 -69 19 -76 68 -27 30 30 35 39
26 54 -6 9 -20 16 -31 14 -26 -4 -37 11 -54 72 -15 54 -27 63 -58 46 -13 -6
-28 -7 -38 -2 -10 5 -25 7 -34 5z"/>
<path d="M7867 2083 c-4 -3 -7 -19 -7 -35 0 -36 44 -58 68 -35 12 13 12 19 -2
46 -15 29 -43 40 -59 24z"/>
<path d="M6452 2058 c-16 -16 -15 -40 2 -63 12 -17 18 -18 40 -7 30 14 34 42
8 65 -22 20 -34 21 -50 5z"/>
<path d="M6818 2059 c-11 -6 -18 -22 -18 -38 0 -20 -10 -38 -35 -59 l-34 -31
-60 26 c-49 21 -63 24 -75 14 -12 -10 -12 -18 -4 -36 8 -17 22 -25 56 -30 30
-4 54 -16 69 -32 36 -38 55 -27 78 45 10 34 25 62 32 62 22 0 63 23 63 35 0
11 -41 55 -51 55 -2 0 -12 -5 -21 -11z"/>
<path d="M4703 2048 c-17 -22 0 -61 30 -69 41 -11 67 0 67 27 0 41 -73 72 -97
42z"/>
<path d="M3810 2030 c-31 -31 -23 -64 17 -68 24 -2 34 2 43 18 29 54 -17 93
-60 50z"/>
<path d="M5346 2018 c-23 -30 -27 -31 -36 -15 -15 24 -35 21 -60 -10 -27 -34
-24 -79 5 -75 20 3 49 31 58 55 3 9 9 9 26 -1 18 -10 25 -10 46 4 29 19 32 36
9 58 -20 20 -17 21 -48 -16z"/>
<path d="M2876 2024 c-21 -21 -31 -63 -18 -76 24 -24 72 25 72 74 0 23 -33 24
-54 2z"/>
<path d="M3393 2014 c-12 -19 -14 -30 -6 -43 17 -26 45 -19 66 17 17 28 18 35
6 43 -25 16 -48 10 -66 -17z"/>
<path d="M5550 2024 c-8 -8 -14 -34 -14 -57 -1 -38 1 -42 24 -42 23 0 25 4 28
58 2 44 0 57 -11 57 -8 0 -20 -7 -27 -16z"/>
<path d="M7640 2014 c-14 -37 -13 -43 15 -56 21 -9 29 -9 42 4 14 15 14 19 -6
47 -27 38 -39 39 -51 5z"/>
<path d="M3280 2010 c-23 -23 -25 -43 -6 -59 32 -27 94 32 71 68 -10 17 -43
13 -65 -9z"/>
<path d="M4283 2018 c-23 -11 -49 -70 -38 -88 3 -5 16 -10 29 -10 26 0 60 61
51 91 -7 21 -11 22 -42 7z"/>
<path d="M6098 2013 c-20 -23 -31 -74 -19 -91 16 -26 45 -8 58 36 18 65 -3 95
-39 55z"/>
<path d="M6233 2013 c-23 -9 -14 -40 18 -67 17 -14 34 -24 39 -21 4 2 3 25 -3
50 -10 44 -21 52 -54 38z"/>
<path d="M3941 1981 c-35 -33 -37 -39 -18 -65 11 -15 17 -17 35 -7 12 6 22 22
23 34 0 12 2 32 5 45 5 30 -8 28 -45 -7z"/>
<path d="M4876 1978 c-33 -29 -47 -94 -22 -104 9 -3 23 -1 31 6 22 18 39 84
28 105 -9 15 -12 15 -37 -7z"/>
<path d="M2387 1966 c-30 -28 -31 -30 -17 -57 14 -25 31 -24 64 2 20 15 26 29
24 48 -4 35 -37 39 -71 7z"/>
<path d="M2745 1961 c-17 -33 -12 -57 16 -72 16 -8 21 -5 29 16 6 15 10 40 10
56 0 40 -34 40 -55 0z"/>
<path d="M4120 1975 c-14 -17 -4 -55 14 -55 21 0 47 35 40 54 -8 20 -37 21
-54 1z"/>
<path d="M5119 1966 c-28 -13 -36 -41 -19 -61 27 -33 88 3 76 43 -9 27 -28 33
-57 18z"/>
<path d="M2970 1951 c-14 -28 -13 -46 6 -62 14 -11 19 -10 35 10 11 13 19 34
19 47 0 19 -5 24 -25 24 -14 0 -29 -8 -35 -19z"/>
<path d="M6952 1962 c-21 -14 4 -68 39 -82 16 -7 31 -11 33 -9 2 2 -2 24 -8
49 -11 46 -34 61 -64 42z"/>
<path d="M7168 1945 c-13 -28 3 -55 32 -55 31 0 43 63 14 74 -26 10 -34 7 -46
-19z"/>
<path d="M7351 1957 c-28 -28 1 -84 38 -72 18 5 22 13 19 37 -3 34 -37 55 -57
35z"/>
<path d="M6367 1922 c-27 -28 -32 -56 -21 -99 7 -25 26 -30 42 -10 13 16 27
137 15 137 -5 0 -21 -13 -36 -28z"/>
<path d="M7798 1934 c-21 -21 -4 -64 24 -64 26 0 45 44 28 65 -16 19 -32 19
-52 -1z"/>
<path d="M5931 1906 c-7 -8 -13 -27 -14 -42 -3 -39 24 -42 56 -8 20 21 24 32
16 46 -12 21 -42 24 -58 4z"/>
<path d="M7507 1884 c-22 -12 -28 -21 -25 -42 2 -22 8 -27 32 -27 35 0 51 23
42 58 -7 31 -11 32 -49 11z"/>
<path d="M7072 1878 c-18 -18 -15 -53 7 -72 14 -13 20 -14 28 -4 19 24 22 58
6 73 -18 18 -25 19 -41 3z"/>
<path d="M7967 1874 c-12 -12 -8 -61 6 -71 14 -12 45 -9 61 7 7 7 6 18 -6 38
-16 27 -47 40 -61 26z"/>
<path d="M8375 1740 c-10 -11 -31 -20 -46 -20 -23 0 -30 -6 -38 -34 -13 -48
-57 -103 -89 -111 -35 -9 -52 -23 -52 -45 0 -26 32 -51 50 -39 8 5 32 7 52 3
44 -7 58 12 58 75 0 31 7 47 30 71 21 21 36 29 49 25 11 -3 28 3 42 14 23 19
23 20 7 48 -21 35 -39 39 -63 13z"/>
<path d="M9708 1705 c-8 -18 -8 -31 0 -49 9 -20 15 -23 44 -17 28 6 33 11 36
39 3 27 -1 34 -23 42 -38 14 -44 13 -57 -15z"/>
<path d="M8047 1702 c-22 -24 -21 -35 2 -56 34 -31 73 12 50 56 -12 23 -31 23
-52 0z"/>
<path d="M10143 1679 c-49 -31 -40 -79 12 -70 46 7 76 71 39 85 -19 7 -13 9
-51 -15z"/>
<path d="M8758 1665 c-39 -26 -48 -51 -26 -73 19 -19 26 -15 48 29 31 60 24
75 -22 44z"/>
<path d="M8611 1657 c-27 -50 10 -86 54 -53 19 14 19 16 3 43 -22 36 -41 40
-57 10z"/>
<path d="M9543 1663 c-17 -9 -37 -29 -44 -44 -8 -21 -20 -30 -45 -35 -44 -8
-59 -26 -44 -53 14 -27 42 -26 99 1 58 27 53 21 61 70 4 24 11 51 15 61 9 21
0 21 -42 0z"/>
<path d="M9923 1673 c-7 -2 -13 -22 -13 -43 0 -40 12 -54 55 -61 17 -4 19 1
16 41 -4 61 -20 79 -58 63z"/>
<path d="M8880 1649 c-10 -17 -8 -28 6 -55 17 -30 41 -50 51 -41 2 2 0 28 -4
58 -9 60 -33 77 -53 38z"/>
<path d="M9214 1644 c-16 -23 -15 -26 1 -44 36 -40 76 -14 53 35 -16 35 -35
38 -54 9z"/>
<path d="M10270 1656 c-20 -25 -4 -66 26 -66 23 0 25 3 22 37 -3 41 -26 55
-48 29z"/>
<path d="M14290 1630 c-26 -37 -19 -70 15 -70 28 0 45 26 45 69 0 41 -31 42
-60 1z"/>
<path d="M10681 1619 c-24 -23 -24 -37 2 -53 19 -12 44 -1 61 28 9 13 7 20 -8
32 -26 18 -28 18 -55 -7z"/>
<path d="M11116 1604 c-20 -20 -20 -33 0 -55 15 -17 18 -17 40 -2 26 17 31 42
12 61 -16 16 -33 15 -52 -4z"/>
<path d="M14454 1610 c-35 -14 -36 -27 -4 -62 25 -28 31 -31 40 -18 13 18 9
82 -5 86 -5 1 -20 -1 -31 -6z"/>
<path d="M9113 1595 c-30 -21 -40 -72 -18 -94 15 -15 18 -14 36 8 10 13 20 34
21 47 0 13 1 29 2 36 2 18 -17 20 -41 3z"/>
<path d="M10368 1594 c-34 -18 -35 -31 -4 -46 35 -16 56 -4 56 32 0 34 -11 37
-52 14z"/>
<path d="M10533 1590 c-42 -17 -24 -80 23 -80 32 0 49 26 38 58 -10 30 -27 36
-61 22z"/>
<path d="M10802 1578 c-37 -37 14 -92 57 -62 36 26 21 74 -24 74 -12 0 -26 -5
-33 -12z"/>
<path d="M12005 1574 c-15 -15 -14 -18 6 -40 23 -24 59 -33 59 -14 0 18 -30
70 -40 70 -5 0 -16 -7 -25 -16z"/>
<path d="M12378 1555 c-9 -21 -8 -28 7 -45 25 -27 38 -25 59 11 23 39 15 59
-24 59 -23 0 -33 -6 -42 -25z"/>
<path d="M11453 1560 c-45 -18 -19 -90 27 -75 16 5 20 15 20 46 0 41 -7 45
-47 29z"/>
<path d="M13028 1559 c-22 -13 -23 -58 -2 -66 24 -9 68 10 72 30 7 38 -33 58
-70 36z"/>
<path d="M13176 1554 c-21 -20 -20 -30 4 -54 27 -27 48 -25 56 4 7 28 1 42
-26 56 -14 7 -23 6 -34 -6z"/>
<path d="M14112 1548 c-18 -9 -22 -18 -20 -42 4 -45 41 -48 67 -5 31 51 9 73
-47 47z"/>
<path d="M14699 1541 l-23 -18 28 -26 c15 -14 36 -24 46 -22 11 2 22 0 25 -6
7 -10 45 -12 69 -3 37 14 8 68 -31 58 -14 -4 -28 1 -39 15 -23 26 -45 27 -75
2z"/>
<path d="M11276 1532 c-14 -42 21 -73 49 -45 24 24 15 57 -17 61 -19 2 -28 -2
-32 -16z"/>
<path d="M11631 1524 c-11 -14 -18 -31 -15 -39 7 -18 45 -27 61 -13 16 13 17
50 1 66 -17 17 -24 15 -47 -14z"/>
<path d="M12578 1539 c-11 -6 -18 -22 -18 -39 0 -23 5 -31 25 -36 38 -9 57 2
53 32 -4 34 -36 57 -60 43z"/>
<path d="M13606 1534 c-9 -25 12 -56 37 -52 25 3 34 32 17 53 -16 20 -46 19
-54 -1z"/>
<path d="M13994 1540 c-33 -13 -37 -48 -8 -67 27 -17 38 -12 48 23 9 29 -14
54 -40 44z"/>
<path d="M11898 1522 c-43 -26 -50 -102 -9 -102 26 0 37 18 45 73 8 51 5 53
-36 29z"/>
<path d="M12236 1495 c-32 -30 -34 -63 -3 -74 28 -12 47 10 47 55 0 44 -12 49
-44 19z"/>
<path d="M14565 1506 c-16 -12 -18 -19 -10 -42 6 -15 15 -29 21 -31 20 -7 45
28 42 56 -4 30 -25 37 -53 17z"/>
<path d="M10979 1472 c-35 -31 -32 -52 6 -52 30 0 55 25 55 56 0 32 -22 31
-61 -4z"/>
<path d="M12743 1478 c-21 -27 -23 -51 -7 -69 24 -26 43 -24 54 7 20 51 -17
100 -47 62z"/>
<path d="M12900 1475 c-21 -25 -1 -70 30 -70 22 0 25 4 25 40 0 33 -4 41 -21
43 -11 2 -27 -4 -34 -13z"/>
<path d="M13476 1458 c-21 -30 -20 -68 3 -98 16 -20 21 -22 35 -11 22 19 22
116 0 125 -22 8 -21 9 -38 -16z"/>
<path d="M13832 1448 c-19 -19 -14 -56 10 -69 18 -10 24 -8 35 7 19 26 16 52
-6 64 -24 13 -24 13 -39 -2z"/>
<path d="M13295 1434 c-33 -33 4 -92 43 -68 25 16 26 40 3 63 -25 25 -25 25
-46 5z"/>
</g>
</svg>
