<?xml version="1.0" standalone="no"?>
<!DOCTYPE svg PUBLIC "-//W3C//DTD SVG 20010904//EN"
 "http://www.w3.org/TR/2001/REC-SVG-20010904/DTD/svg10.dtd">
<svg version="1.0" xmlns="http://www.w3.org/2000/svg"
 width="787.158302pt" height="400.000000pt" viewBox="0 0 787.158302 400.000000"
 preserveAspectRatio="xMidYMid meet">
<metadata>
Created by potrace 1.15, written by Peter Selinger 2001-2017
</metadata>
<g transform="translate(-23.298191,419.336752) scale(0.035658,-0.035658)"
fill="#444444" stroke="none">
<path d="M13269 11741 c-22 -18 -24 -26 -23 -103 1 -45 5 -108 9 -138 5 -30 9
-70 9 -87 1 -18 4 -33 9 -33 4 0 5 -11 1 -25 -3 -14 -1 -38 5 -53 7 -16 13
-55 15 -87 2 -47 7 -61 27 -76 21 -16 26 -16 39 -3 18 18 18 40 -4 319 -10
116 -15 223 -12 238 7 33 -12 67 -35 67 -9 0 -27 -9 -40 -19z"/>
<path d="M9740 11682 c-22 -8 -41 -29 -45 -51 -2 -10 -14 -40 -28 -67 -13 -27
-38 -89 -55 -139 -49 -142 -62 -176 -89 -235 -66 -143 -96 -200 -114 -216 -32
-29 -15 -94 24 -94 20 0 87 78 87 101 0 9 6 22 13 28 8 6 26 40 41 75 29 67
46 82 74 67 9 -5 42 -12 72 -16 30 -4 61 -11 69 -15 17 -9 36 -75 53 -175 16
-101 63 -152 99 -109 10 12 10 25 1 62 -25 95 -44 158 -54 176 -11 21 -1 31
40 42 37 10 22 53 -27 74 -28 11 -45 35 -40 56 2 9 -2 28 -24 114 -6 25 -10
55 -9 68 1 13 -5 36 -13 52 -8 15 -14 43 -14 61 1 29 -30 132 -42 143 -2 2
-11 1 -19 -2z m5 -272 c4 -25 10 -54 15 -65 5 -11 10 -29 13 -40 3 -11 7 -27
11 -35 9 -23 -9 -46 -26 -33 -7 6 -30 16 -50 22 -36 12 -38 15 -38 56 0 27 9
59 24 86 14 24 23 46 20 51 -3 4 -2 13 2 19 10 17 22 -9 29 -61z"/>
<path d="M10160 11676 c0 -8 -9 -21 -20 -29 -20 -14 -20 -17 -5 -192 6 -68 19
-135 35 -185 5 -14 11 -40 14 -58 l6 -33 -60 7 c-79 9 -119 -10 -165 -79 -52
-77 -48 -101 29 -184 l64 -68 97 0 c53 1 99 5 103 11 4 5 24 18 46 29 29 15
44 33 62 73 14 28 27 52 30 52 3 0 19 -15 37 -34 36 -39 120 -76 173 -76 42 0
131 40 162 73 12 13 25 37 28 55 6 28 4 32 -15 32 -18 0 -19 3 -9 25 9 20 8
28 -4 42 -8 10 -18 27 -22 38 -10 27 -37 243 -35 280 1 17 2 53 2 80 -1 124
-2 134 -24 146 -18 9 -25 7 -42 -10 -19 -18 -21 -31 -18 -113 3 -139 9 -231
17 -294 l7 -57 -59 7 c-59 6 -112 -4 -142 -28 -54 -42 -62 -56 -62 -101 0 -34
-4 -45 -15 -45 -9 0 -18 -7 -21 -15 -4 -8 -10 -15 -15 -15 -13 0 -46 70 -54
113 -4 20 -12 37 -17 37 -6 0 -8 6 -5 14 3 8 -1 45 -9 83 -8 37 -17 77 -19 88
-2 11 -9 42 -14 69 -6 26 -8 52 -6 57 11 17 -8 190 -22 205 -18 18 -33 18 -33
0z m456 -563 c27 -9 66 -27 88 -41 36 -22 37 -25 22 -40 -24 -25 -161 -22
-204 3 -35 21 -45 39 -37 66 10 31 60 36 131 12z m-433 -45 c20 -18 43 -46 51
-62 14 -28 14 -31 -5 -44 -41 -28 -178 9 -195 53 -4 8 -3 31 0 50 7 35 7 35
60 35 45 0 58 -5 89 -32z"/>
<path d="M5178 11608 c-22 -18 -25 -35 -11 -88 56 -210 70 -308 73 -513 2 -91
4 -99 26 -113 18 -12 38 -14 86 -10 35 4 133 7 219 9 165 2 193 10 187 50 -2
14 -19 25 -63 39 -66 21 -84 23 -195 19 -157 -5 -166 -4 -178 27 -6 15 -13 70
-17 122 -3 52 -13 122 -21 155 -21 88 -24 104 -30 175 -5 64 -29 131 -49 137
-6 2 -18 -2 -27 -9z"/>
<path d="M6510 11595 c-13 -15 -12 -23 10 -129 5 -26 7 -59 4 -72 -6 -22 -12
-24 -60 -24 -48 0 -56 -3 -66 -24 -6 -14 -8 -31 -5 -38 5 -14 74 -51 122 -65
27 -8 30 -13 35 -58 3 -28 1 -77 -3 -109 -8 -51 -6 -62 11 -85 20 -27 59 -36
54 -13 -1 7 4 23 13 35 11 16 15 48 15 123 0 117 -3 114 103 114 42 0 59 4 63
15 12 30 -12 43 -173 91 -7 2 -13 14 -13 27 0 13 -4 37 -9 53 -5 16 -19 62
-31 102 -22 75 -42 91 -70 57z"/>
<path d="M12455 11556 c-21 -21 -23 -29 -15 -58 19 -64 12 -172 -16 -250 -15
-40 -30 -75 -34 -78 -4 -3 -18 -27 -30 -55 -12 -27 -29 -54 -37 -59 -8 -4 -24
-19 -36 -32 -31 -35 -77 -32 -106 7 -46 61 -60 132 -65 324 -5 172 -7 180 -28
197 -22 16 -24 16 -45 -5 -20 -19 -23 -33 -24 -112 0 -50 4 -113 9 -140 6 -28
10 -57 9 -65 -6 -63 45 -223 85 -270 27 -31 82 -62 118 -67 34 -5 43 -1 85 38
52 48 108 125 148 206 67 131 90 339 46 409 -25 40 -32 42 -64 10z"/>
<path d="M7029 11397 c-50 -31 -95 -86 -104 -127 -11 -54 -23 -69 -65 -88 -51
-21 -52 -48 -5 -91 22 -20 35 -41 35 -56 0 -14 9 -44 20 -68 24 -51 94 -97
158 -105 39 -4 45 -2 85 40 23 24 52 57 64 71 22 27 40 84 29 94 -3 3 -27 -12
-53 -33 -101 -83 -138 -83 -179 2 -16 32 -23 59 -18 63 5 5 43 16 84 25 98 22
131 38 153 75 15 25 16 38 8 67 -13 47 -54 99 -102 129 -47 30 -64 31 -110 2z
m89 -113 c23 -16 29 -34 12 -34 -6 0 -31 -10 -55 -21 -52 -24 -60 -22 -46 12
5 13 12 32 15 42 7 21 44 22 74 1z"/>
<path d="M11049 11366 c-61 -13 -137 -63 -156 -102 -8 -18 -6 -30 9 -54 23
-39 89 -103 155 -150 84 -61 143 -121 143 -146 0 -19 -7 -24 -52 -33 -79 -16
-138 3 -210 68 -32 29 -62 49 -68 46 -6 -4 -8 -10 -5 -15 3 -5 1 -11 -4 -15
-18 -10 8 -60 53 -103 24 -23 50 -42 56 -42 7 0 25 -11 42 -25 34 -29 84 -32
163 -11 66 17 103 51 110 102 5 33 1 47 -29 93 -34 53 -80 92 -123 105 -13 4
-22 10 -20 14 1 4 -24 33 -56 65 -31 32 -57 62 -57 67 0 22 81 49 135 46 65
-4 88 14 83 66 -3 33 -3 33 -58 34 -30 1 -80 -4 -111 -10z"/>
<path d="M6078 11310 c-44 -45 -147 -120 -167 -120 -5 0 -26 -21 -47 -47 -21
-27 -43 -51 -48 -55 -5 -3 -9 -20 -9 -37 0 -51 70 -111 128 -111 38 0 184 65
218 98 l29 27 16 -25 c25 -38 114 -130 125 -130 13 0 36 32 37 51 0 9 -16 36
-35 60 -40 52 -135 241 -135 269 0 35 -22 70 -44 70 -12 0 -41 -22 -68 -50z
m37 -109 c3 -5 1 -12 -4 -16 -6 -3 -7 -27 -4 -54 5 -45 4 -48 -23 -59 -16 -6
-57 -16 -92 -23 -118 -22 -104 13 48 121 59 42 66 45 75 31z"/>
<path d="M8244 11307 l-28 -24 23 -39 c13 -21 55 -81 93 -132 61 -81 69 -96
60 -115 -9 -20 -78 -110 -138 -181 -29 -34 -29 -35 -4 -65 36 -43 69 -20 190
135 25 31 60 73 79 93 18 20 48 59 67 87 18 29 49 65 69 81 28 23 36 38 40 74
3 24 2 50 -3 57 -15 22 -66 -13 -126 -88 -83 -102 -90 -104 -144 -41 -25 29
-62 80 -82 114 -21 34 -44 63 -53 65 -8 2 -27 -8 -43 -21z"/>
<path d="M12753 11306 c-47 -27 -108 -83 -135 -124 -15 -22 -15 -27 -2 -36 13
-10 13 -17 -1 -55 -13 -38 -13 -47 -1 -60 7 -9 14 -25 15 -36 1 -11 3 -36 4
-55 2 -19 4 -83 5 -142 2 -97 4 -109 24 -128 l23 -21 21 26 c18 23 20 39 20
164 l-1 138 40 0 c54 1 151 20 186 38 81 42 107 121 67 200 -13 26 -36 54 -53
63 -16 9 -33 21 -36 25 -7 10 -75 26 -109 27 -14 0 -44 -11 -67 -24z m167
-115 c14 -10 26 -30 28 -44 3 -22 -3 -29 -34 -42 -20 -8 -74 -18 -120 -22
l-84 -6 0 40 c0 46 17 66 76 88 46 17 99 11 134 -14z"/>
<path d="M7421 11303 c-39 -19 -68 -63 -77 -113 -3 -19 -9 -47 -14 -61 -9 -28
3 -107 22 -151 17 -37 63 -57 84 -36 13 13 14 25 5 73 -25 134 -7 199 52 193
28 -3 36 -11 59 -58 33 -69 54 -139 62 -210 5 -51 23 -80 48 -80 33 0 38 141
8 244 -27 96 -58 146 -110 178 -60 37 -97 42 -139 21z"/>
<path d="M7955 11296 c-33 -14 -105 -89 -105 -109 0 -6 -7 -25 -16 -42 -19
-36 -21 -74 -5 -102 6 -12 11 -32 11 -45 1 -31 17 -57 73 -118 l48 -52 50 6
c75 10 133 39 158 79 11 19 21 42 21 51 0 17 -25 22 -34 7 -4 -5 -25 -18 -49
-29 -38 -19 -47 -20 -92 -8 -59 16 -85 46 -92 109 -10 87 31 147 117 172 37
11 59 48 47 79 -8 20 -88 21 -132 2z"/>
<path d="M13321 11038 c-26 -17 -31 -26 -31 -56 1 -46 29 -82 64 -82 19 0 26
5 26 20 0 10 6 23 13 27 23 14 28 43 12 72 -19 37 -45 43 -84 19z"/>
<path d="M7934 10105 c-3 -7 -27 -22 -52 -31 -26 -10 -59 -26 -74 -36 -14 -10
-37 -18 -51 -18 -49 0 -70 -61 -38 -113 13 -22 21 -51 21 -80 0 -41 3 -47 31
-61 33 -17 41 -15 76 17 12 10 26 17 31 13 5 -3 22 0 39 6 42 16 81 4 81 -24
1 -13 4 -37 7 -54 6 -26 2 -37 -22 -64 -29 -32 -93 -53 -93 -30 0 18 -32 10
-51 -12 -24 -30 -24 -40 4 -66 47 -45 148 -21 225 52 32 30 34 34 29 87 -6 73
-50 170 -89 199 -26 19 -40 21 -105 18 -45 -2 -77 1 -79 7 -2 6 20 21 49 35
76 36 137 79 137 96 0 23 -39 74 -56 74 -8 0 -17 -7 -20 -15z"/>
<path d="M8762 10089 c-66 -29 -112 -77 -112 -116 0 -18 5 -33 10 -33 6 0 10
-6 10 -14 0 -29 68 -75 131 -88 61 -12 84 -32 58 -49 -8 -5 -26 -9 -41 -9 -15
0 -29 -4 -33 -10 -3 -5 -12 -7 -20 -3 -8 3 -15 0 -15 -6 0 -6 -7 -11 -16 -11
-25 0 -12 -33 16 -41 37 -10 162 1 188 17 15 10 22 24 22 47 0 44 -22 73 -68
88 -20 6 -46 18 -57 25 -11 8 -29 14 -42 14 -19 0 -72 55 -62 64 2 2 35 18 72
35 61 27 68 33 62 53 -7 22 -41 59 -54 57 -3 0 -25 -9 -49 -20z"/>
<path d="M8238 9989 c-10 -5 -18 -17 -18 -25 0 -8 -11 -35 -25 -60 l-25 -44
19 -77 c19 -82 40 -106 86 -101 22 3 24 28 10 124 -10 68 7 77 36 20 12 -25
26 -43 31 -40 5 4 18 -3 29 -15 11 -12 24 -21 29 -21 15 0 30 36 30 69 0 61
29 32 83 -81 30 -64 41 -79 64 -84 15 -3 33 -7 40 -9 7 -2 15 -1 17 4 10 15
-22 106 -58 169 -20 35 -36 67 -36 71 0 15 -74 93 -97 102 -33 12 -63 -5 -63
-36 0 -40 -18 -39 -67 4 -48 43 -58 46 -85 30z"/>
<path d="M7377 9804 c-13 -13 -7 -54 13 -96 11 -22 17 -44 15 -48 -3 -5 -26
-11 -53 -15 -40 -5 -49 -11 -63 -38 -19 -39 -15 -53 21 -72 21 -11 40 -12 81
-5 30 4 57 5 60 2 3 -4 13 -33 23 -65 15 -50 21 -58 39 -55 12 1 27 -1 32 -4
6 -4 17 -3 25 2 12 8 12 18 -3 74 -9 35 -17 73 -17 84 0 23 40 52 89 67 47 14
49 29 8 70 -40 40 -58 43 -108 16 l-36 -19 -34 51 c-24 37 -41 53 -59 55 -14
2 -29 0 -33 -4z"/>
<path d="M12006 9741 c-21 -5 -47 -6 -58 -3 -10 2 -32 -1 -49 -8 -16 -7 -47
-14 -67 -15 -119 -7 -201 -35 -217 -73 -4 -9 -9 -93 -11 -187 -2 -93 -6 -224
-10 -290 -3 -66 -5 -136 -5 -155 -1 -19 -1 -66 -2 -105 -2 -71 2 -443 5 -480
0 -11 0 -56 -2 -100 -1 -44 4 -120 11 -170 14 -99 14 -391 0 -520 -5 -44 -9
-138 -9 -210 -1 -148 -7 -257 -17 -297 -9 -33 -39 -43 -165 -53 -47 -3 -121
-13 -164 -22 -45 -9 -104 -13 -135 -11 -31 3 -98 2 -148 -2 -76 -5 -97 -10
-116 -29 -22 -20 -24 -28 -19 -99 2 -49 9 -81 18 -88 16 -13 18 -40 4 -49 -14
-9 -12 -37 6 -92 28 -81 45 -341 30 -469 -8 -68 0 -83 50 -86 16 -1 33 -4 39
-7 19 -10 50 -8 82 5 35 15 133 19 133 6 0 -5 138 -8 308 -8 210 1 321 -3 352
-11 80 -21 276 -33 820 -47 107 -3 220 -7 250 -10 89 -8 553 -9 700 -2 74 4
187 8 250 11 222 8 345 16 390 26 25 5 92 11 150 13 58 2 173 7 255 10 83 3
177 10 210 17 136 25 160 28 238 30 45 1 93 6 107 11 80 31 478 68 732 69 95
0 198 3 228 5 30 3 201 6 380 9 427 5 574 12 683 31 130 22 131 23 122 97 -8
66 -8 591 0 642 3 17 2 55 -3 85 l-7 55 -50 8 c-27 4 -80 12 -117 17 -37 5
-75 13 -85 18 -37 20 -170 40 -238 37 -38 -2 -125 -6 -192 -9 l-123 -5 0 42
c-1 23 -1 130 -2 237 0 107 -4 238 -9 290 -16 172 -26 806 -14 900 7 47 6 595
0 645 -3 22 -7 54 -9 70 -2 17 -4 32 -6 35 -3 5 -4 14 -16 98 -11 77 -48 85
-409 87 -252 2 -389 8 -545 25 -121 13 -321 24 -415 23 -258 -4 -356 -2 -377
6 -12 5 -77 6 -143 2 -173 -8 -1216 -2 -1370 9 -71 5 -242 12 -380 15 -137 3
-302 8 -365 12 -354 20 -443 22 -484 14z m294 -127 c43 -3 129 -4 195 -4 17 1
55 -2 85 -5 30 -3 116 -8 190 -10 74 -3 205 -7 290 -10 85 -3 173 -7 195 -10
134 -15 965 -25 1190 -13 58 3 176 2 400 -3 88 -2 243 -3 345 -1 177 2 286 -1
340 -12 86 -17 210 -24 470 -24 162 -1 317 -5 344 -9 43 -7 51 -12 59 -38 6
-17 13 -32 16 -35 11 -9 11 -90 10 -1135 -1 -229 3 -413 9 -445 7 -35 9 -196
5 -445 -3 -214 -6 -455 -6 -535 -2 -133 7 -356 18 -456 4 -41 4 -42 -38 -53
-23 -6 -51 -11 -62 -11 -126 1 -620 -10 -654 -14 -24 -4 -109 -13 -190 -21
-80 -7 -182 -21 -226 -29 -44 -8 -125 -20 -180 -26 -88 -9 -147 -18 -235 -34
-33 -7 -236 -19 -279 -17 -18 1 -75 -6 -126 -14 -52 -8 -106 -12 -122 -9 -15
3 -71 -2 -123 -12 -52 -10 -158 -19 -235 -21 -77 -2 -202 -6 -278 -8 -76 -2
-177 -8 -225 -15 -48 -6 -123 -8 -167 -6 -271 18 -512 27 -825 31 -195 2 -384
9 -420 14 -88 14 -306 40 -354 44 -39 2 -40 3 -53 52 -7 28 -13 87 -13 132 0
77 1 82 23 85 21 3 22 7 19 68 -2 36 -9 74 -15 85 -8 14 -11 95 -10 266 3 293
7 417 28 789 2 41 7 129 11 195 4 78 2 141 -5 180 -33 169 -35 1055 -3 1415
l7 75 40 13 c22 8 58 16 80 18 22 3 78 11 125 19 79 13 141 13 350 -1z m4776
-2505 c14 -11 107 -30 159 -32 l40 -2 -2 -105 c-1 -58 -2 -211 -3 -341 l-1
-235 -92 -15 c-51 -7 -110 -13 -132 -12 -37 2 -66 2 -132 1 -130 -1 -320 3
-338 8 -20 5 -23 13 -29 112 -4 59 -7 113 -6 120 0 6 1 22 0 35 0 12 -2 119
-5 238 l-4 216 52 10 c64 12 478 14 493 2z m-5500 -156 c-4 -21 -2 -53 4 -72
6 -22 6 -39 0 -46 -9 -11 2 -114 14 -134 3 -5 -1 -21 -8 -37 -8 -16 -17 -69
-19 -119 -3 -49 -9 -98 -13 -109 -4 -10 -2 -54 5 -98 7 -44 10 -83 6 -86 -3
-3 -122 -7 -263 -9 -141 -1 -273 -4 -291 -5 l-35 -3 -3 95 c-3 90 -32 341 -53
461 -6 30 -10 74 -10 97 l0 42 48 1 c308 4 410 10 442 24 19 8 67 19 105 24
39 5 72 9 73 10 2 0 1 -16 -2 -36z"/>
<path d="M12379 9336 c-3 -3 -79 -7 -169 -9 -156 -2 -163 -3 -181 -26 -46 -56
-9 -85 119 -94 72 -5 101 -3 129 8 20 8 38 13 41 10 10 -9 15 -345 6 -346 -5
-1 -65 -2 -134 -3 -127 -2 -150 -7 -150 -31 0 -7 -7 -15 -15 -19 -25 -9 -17
-22 23 -39 30 -14 83 -17 292 -20 140 -1 263 -6 274 -11 16 -8 18 -6 11 25
-10 42 -28 56 -85 64 -25 3 -53 10 -62 16 -10 5 -26 9 -36 9 -17 0 -19 13 -25
172 -4 109 -3 176 3 183 6 7 39 15 75 19 36 4 72 9 80 12 23 9 18 47 -7 63
-23 15 -178 28 -189 17z"/>
<path d="M13753 9328 c-4 -7 -8 -62 -8 -121 l0 -108 -57 -4 c-95 -6 -115 -13
-127 -45 -9 -26 -7 -32 16 -50 19 -15 41 -20 87 -20 33 0 66 -4 73 -8 13 -8
11 -54 -6 -174 -5 -37 -7 -76 -4 -87 5 -19 58 -45 73 -36 11 7 22 64 34 185
l11 105 98 1 c111 0 129 9 103 48 -9 15 -22 26 -29 26 -6 0 -25 7 -41 15 -16
9 -52 19 -80 23 l-51 7 -12 100 c-7 55 -18 112 -24 128 -12 28 -42 36 -56 15z"/>
<path d="M13340 9163 c-23 -4 -55 -17 -148 -60 -39 -19 -92 -69 -92 -88 0 -7
12 -23 28 -35 15 -11 52 -40 82 -64 30 -23 71 -49 90 -56 19 -7 47 -22 62 -32
14 -10 32 -18 40 -18 17 0 40 -48 26 -56 -13 -8 -238 -22 -275 -17 -17 3 -34
0 -38 -7 -9 -14 23 -39 52 -40 12 0 26 -7 31 -15 17 -31 228 -20 287 14 16 9
36 28 42 42 12 22 10 26 -15 47 -15 12 -34 29 -42 36 -8 8 -53 37 -100 65 -97
58 -176 124 -166 139 3 6 21 14 39 17 17 4 65 23 105 41 54 25 72 38 72 53 0
19 -28 43 -47 40 -4 -1 -19 -4 -33 -6z"/>
<path d="M12783 9098 c-13 -6 -23 -15 -23 -21 0 -5 -12 -23 -27 -41 -26 -29
-28 -37 -27 -116 0 -47 8 -114 16 -149 12 -56 18 -66 42 -74 16 -5 31 -5 36
-1 4 5 4 41 -1 79 -12 104 -10 197 4 225 16 31 53 30 83 -3 45 -48 90 -211 80
-287 -6 -47 -6 -48 24 -52 59 -9 72 44 46 172 -20 90 -38 136 -69 168 -15 16
-24 31 -21 35 9 9 -42 49 -80 64 -39 14 -55 15 -83 1z"/>
<path d="M15223 9049 c-86 -49 -153 -150 -160 -244 -5 -55 -2 -64 26 -102 17
-24 37 -43 44 -43 7 0 29 -9 50 -20 20 -11 54 -20 75 -20 62 0 143 29 174 62
l29 31 -22 15 c-18 13 -30 13 -78 3 -169 -37 -228 5 -187 135 19 60 59 100
109 109 51 10 69 28 65 67 -3 30 -6 33 -38 35 -23 1 -53 -9 -87 -28z"/>
<path d="M15643 9060 c-40 -18 -134 -104 -153 -140 -16 -29 -13 -172 3 -210
17 -39 78 -104 99 -105 7 -1 27 -7 43 -14 36 -15 166 -6 205 14 35 19 91 76
87 89 -4 13 -36 13 -122 0 -82 -12 -156 -7 -174 11 -19 19 -9 29 51 49 26 8
69 31 96 51 39 28 52 44 60 78 23 86 24 104 8 120 -9 9 -16 20 -16 25 0 13
-93 52 -122 52 -13 0 -42 -9 -65 -20z m124 -89 c29 -21 29 -34 -5 -72 -40 -45
-208 -102 -198 -66 3 6 7 25 11 41 3 16 28 51 55 77 45 44 53 48 82 42 18 -3
43 -13 55 -22z"/>
<path d="M14274 8995 c-72 -36 -187 -151 -230 -231 -24 -43 -13 -75 42 -119
43 -35 52 -38 124 -42 50 -3 80 -1 84 6 4 6 17 11 30 11 23 0 49 24 81 74 17
28 18 28 31 11 8 -10 16 -33 20 -50 5 -27 13 -35 45 -45 57 -19 63 -7 33 75
-25 69 -29 83 -57 180 -21 76 -44 115 -68 115 -11 0 -18 -4 -15 -9 3 -5 -1
-12 -10 -15 -14 -5 -16 -1 -11 29 5 33 4 35 -22 35 -15 0 -49 -11 -77 -25z
m98 -99 c-2 -26 2 -63 8 -82 10 -29 9 -38 -4 -52 -8 -10 -22 -34 -31 -55 -8
-20 -19 -37 -23 -38 -102 -9 -178 4 -193 34 -6 10 -7 27 -4 38 7 22 122 149
136 149 4 0 28 13 51 30 24 16 48 28 53 26 6 -2 9 -24 7 -50z"/>
<path d="M14714 8951 c-22 -15 -51 -31 -65 -34 -37 -10 -46 -42 -41 -150 l4
-98 42 3 41 3 7 73 c5 62 11 79 34 103 36 38 59 37 99 -6 33 -34 47 -76 60
-177 8 -61 31 -77 70 -46 25 19 26 24 20 72 -4 28 -12 57 -17 63 -6 7 -7 20
-4 29 15 40 -59 145 -126 178 -45 23 -77 19 -124 -13z"/>
<path d="M16651 7056 c-19 -20 -21 -28 -12 -45 15 -27 11 -160 -5 -184 -6 -10
-10 -27 -7 -38 3 -11 -5 -33 -22 -55 -25 -33 -26 -36 -10 -54 17 -19 92 -32
110 -20 13 9 258 23 358 21 127 -4 160 21 139 105 -13 51 -13 122 0 157 8 20
8 35 -1 54 -6 14 -14 23 -18 20 -9 -10 -43 13 -43 29 0 12 -13 15 -62 13 -35
-1 -84 2 -109 6 -34 5 -54 3 -78 -10 -34 -17 -47 -16 -172 16 -47 12 -42 13
-68 -15z m159 -109 c51 -11 55 -14 52 -38 -2 -21 4 -31 30 -47 18 -12 44 -32
57 -46 l24 -26 -30 0 c-17 0 -36 7 -43 15 -7 8 -19 15 -26 15 -8 0 -41 25 -74
55 -33 30 -67 55 -75 55 -16 0 -20 12 -8 23 9 9 28 8 93 -6z m298 -10 c12 -10
17 -112 6 -141 -5 -12 -21 -16 -65 -16 -33 0 -59 4 -59 10 0 6 5 10 10 10 22
0 7 25 -46 77 -48 48 -54 57 -40 65 9 5 29 7 44 4 15 -3 40 -2 57 2 33 9 73 5
93 -11z m-351 -102 c20 -19 42 -35 50 -35 22 0 15 -16 -12 -28 -34 -15 -72
-15 -81 0 -11 18 -13 98 -2 98 5 0 25 -16 45 -35z"/>
<path d="M17102 6657 c-26 -31 -32 -67 -16 -92 36 -55 94 -34 94 35 0 55 -50
91 -78 57z"/>
<path d="M11387 6894 c-3 -3 -74 -7 -159 -9 -84 -1 -160 -6 -169 -9 -30 -13
-43 -51 -29 -86 8 -20 10 -50 6 -85 -4 -34 -2 -56 5 -60 6 -4 8 -18 5 -31 -4
-13 -2 -24 3 -24 5 0 12 -12 15 -26 l7 -26 92 7 c51 4 97 6 102 6 6 0 45 -3
88 -5 43 -2 85 -10 93 -17 30 -25 39 6 40 144 0 73 4 140 9 150 6 14 1 25 -16
42 -23 21 -81 40 -92 29z m31 -145 c-4 -33 -6 -65 -3 -69 11 -17 -8 -40 -33
-40 -29 0 -112 29 -112 39 0 9 57 7 66 -1 12 -13 54 -9 54 5 0 7 -14 24 -31
36 -37 28 -97 31 -115 6 -15 -20 -43 -14 -70 16 -18 20 -18 21 0 34 12 10 25
11 42 5 23 -9 38 -7 79 10 23 11 57 17 101 19 l31 1 -9 -61z"/>
<path d="M11083 6505 c-24 -16 -37 -57 -28 -86 4 -11 20 -26 36 -34 28 -15 31
-14 55 10 14 14 28 25 33 25 7 0 31 43 31 55 0 3 -8 5 -19 5 -10 0 -30 9 -44
20 -30 24 -36 24 -64 5z"/>
<path d="M10914 9247 c-5 -8 -15 -16 -23 -19 -8 -2 -15 -13 -16 -24 -14 -153
-19 -185 -31 -194 -7 -7 -17 -9 -23 -6 -11 7 -75 14 -196 22 -49 3 -110 7
-135 9 -58 4 -225 5 -515 4 -138 0 -124 -1 -227 7 -66 4 -104 2 -155 -11 -37
-10 -84 -19 -103 -20 -65 -6 -135 -22 -183 -44 -26 -11 -76 -25 -110 -31 -88
-14 -123 -60 -76 -99 18 -14 32 -16 76 -10 60 8 161 37 180 52 7 5 24 6 38 3
14 -4 46 2 77 14 33 12 77 20 116 20 35 0 83 5 106 11 33 8 61 7 120 -4 43 -8
94 -11 114 -8 20 3 64 5 97 3 94 -4 122 -4 250 1 66 2 145 -1 175 -7 30 -5
100 -11 155 -12 130 -3 162 -7 174 -19 17 -17 -7 -93 -44 -142 -41 -53 -41
-57 -15 -90 11 -14 20 -31 20 -38 0 -15 37 -32 70 -33 14 -1 44 10 67 23 32
19 56 25 103 25 35 0 73 6 91 15 16 9 34 13 38 10 5 -3 22 0 38 6 15 7 51 15
78 20 174 26 170 24 160 93 -3 27 -15 62 -25 77 -11 15 -28 47 -39 71 -18 43
-36 63 -181 196 -90 84 -111 99 -161 117 -73 27 -77 27 -85 12z"/>
<path d="M8104 9234 c-109 -24 -237 -117 -263 -190 -7 -22 -24 -53 -36 -70
-40 -53 -55 -102 -54 -178 1 -170 77 -374 183 -487 15 -17 52 -35 95 -48 39
-12 71 -25 71 -30 0 -36 235 -56 307 -26 18 8 40 12 48 8 9 -3 21 -1 28 5 6 5
30 13 52 17 47 8 98 30 140 60 17 12 51 32 76 44 41 19 51 31 78 87 17 36 31
73 31 82 0 9 9 32 20 50 16 27 20 51 21 135 1 103 -2 116 -40 197 -11 25 -27
64 -35 87 -8 23 -32 59 -53 80 -46 46 -144 113 -165 113 -8 0 -32 14 -53 30
-21 17 -48 33 -59 35 -43 11 -345 10 -392 -1z m387 -109 c13 -4 37 -18 52 -31
15 -13 45 -31 65 -41 55 -26 136 -114 151 -165 7 -24 23 -61 36 -84 20 -35 23
-51 20 -107 -5 -64 -37 -178 -58 -206 -6 -7 -16 -23 -22 -35 -14 -28 -148 -93
-243 -116 -43 -10 -117 -23 -166 -29 -78 -9 -93 -9 -115 6 -14 9 -48 18 -75
20 -95 8 -191 102 -246 243 -30 75 -34 96 -34 185 -1 95 1 103 32 160 31 57
116 155 134 155 5 0 21 8 35 18 15 9 47 22 72 27 51 11 326 11 362 0z"/>
<path d="M7490 8500 c-30 -11 -73 -20 -96 -20 -57 0 -153 -19 -178 -35 -12 -7
-45 -18 -75 -24 -61 -13 -124 -38 -286 -116 -249 -119 -325 -158 -325 -164 0
-4 -21 -18 -47 -31 -27 -13 -55 -29 -63 -37 -15 -13 -125 -99 -180 -139 -63
-47 -167 -130 -196 -159 -59 -57 -165 -136 -236 -178 -31 -18 -48 -35 -48 -47
0 -10 -4 -22 -10 -25 -17 -11 -11 -37 10 -42 11 -3 20 -9 20 -14 0 -20 33 -6
95 41 36 28 78 56 93 64 15 8 43 30 61 50 19 20 40 36 45 36 6 0 29 18 52 39
22 22 61 52 85 68 24 15 60 40 79 54 19 14 73 53 120 87 47 34 105 76 130 94
51 37 135 84 230 128 74 35 110 53 195 97 33 18 80 37 105 43 25 6 79 26 120
43 57 24 88 31 130 29 54 -2 98 7 173 34 20 8 48 14 60 14 35 0 57 21 63 61 4
26 1 40 -11 52 -21 21 -46 21 -115 -3z"/>
<path d="M22230 8440 c-22 -22 -25 -42 -10 -70 10 -18 19 -109 21 -216 1 -27
-6 -75 -14 -105 -20 -68 -19 -189 0 -196 33 -13 58 13 71 75 16 77 34 93 67
62 20 -19 25 -33 25 -74 0 -73 17 -101 60 -101 l35 0 -3 70 c-5 101 -18 141
-64 191 -30 32 -48 44 -69 44 -23 0 -29 4 -29 23 0 12 -4 28 -9 35 -4 7 -5 30
-2 50 8 46 -5 186 -19 212 -14 25 -35 25 -60 0z"/>
<path d="M21794 8422 c-21 -17 -30 -77 -39 -232 -1 -25 -9 -62 -18 -82 -9 -21
-13 -38 -10 -38 8 0 -58 -74 -75 -84 -9 -5 -17 -4 -23 5 -13 20 -11 199 1 199
7 0 7 7 0 21 -6 11 -8 33 -5 50 11 50 13 122 4 146 -6 15 -17 23 -33 23 -33 0
-49 -24 -44 -62 3 -20 -1 -42 -10 -55 -12 -19 -13 -51 -9 -176 7 -168 12 -193
54 -231 36 -33 61 -33 105 2 63 47 84 82 108 177 12 50 26 99 31 110 30 70 38
204 13 229 -19 20 -24 20 -50 -2z"/>
<path d="M22024 8187 c-65 -38 -214 -183 -214 -209 0 -24 59 -76 98 -87 27 -8
40 -6 69 11 34 20 36 21 48 4 15 -20 30 -165 20 -195 -15 -48 -96 -34 -128 22
-18 30 -19 31 -33 12 -8 -10 -14 -26 -14 -35 0 -9 -5 -21 -11 -27 -17 -17 18
-58 73 -84 38 -18 56 -20 103 -14 34 4 64 14 75 25 22 22 34 94 27 158 -7 58
-26 251 -35 352 -7 71 -8 75 -32 77 -14 2 -34 -3 -46 -10z"/>
<path d="M11171 7974 c-49 -24 -95 -44 -101 -44 -7 0 -25 -9 -40 -20 -16 -12
-55 -32 -87 -46 -32 -14 -83 -37 -113 -51 -52 -25 -79 -37 -175 -78 -22 -9
-64 -23 -93 -31 -29 -8 -76 -26 -105 -40 -28 -15 -68 -28 -87 -30 -43 -4 -114
-22 -157 -41 -17 -7 -55 -18 -83 -23 -28 -5 -55 -12 -60 -15 -5 -3 -27 -7 -51
-9 -59 -6 -110 -67 -76 -93 34 -27 78 -33 140 -17 34 9 72 18 85 21 12 3 25 9
28 14 3 5 16 9 30 9 14 0 36 7 49 16 14 9 32 13 41 10 9 -4 24 0 33 8 9 8 48
22 86 31 39 9 85 26 103 36 18 10 43 19 56 19 20 0 122 37 164 60 9 5 37 17
62 27 25 10 87 39 138 66 51 26 121 59 154 73 33 14 90 48 126 75 36 27 69 49
74 49 5 0 8 12 6 27 -2 19 -10 29 -31 34 -22 6 -46 -2 -116 -37z"/>
<path d="M22644 7992 c-7 -4 -17 -25 -23 -46 -9 -34 -8 -43 7 -59 33 -37 50
-40 77 -13 32 32 32 57 -1 95 -26 31 -40 37 -60 23z"/>
<path d="M8623 7892 c-18 -26 -33 -54 -33 -63 0 -17 -40 -59 -56 -59 -5 0 -36
25 -69 56 -86 80 -99 88 -125 74 -12 -7 -33 -35 -46 -63 -13 -29 -36 -67 -51
-86 l-28 -33 -35 16 c-19 9 -54 32 -78 51 -52 42 -100 47 -121 13 -7 -12 -16
-50 -19 -85 -3 -43 -9 -63 -18 -63 -7 0 -39 16 -71 35 -32 19 -63 35 -70 35
-7 0 -24 -12 -38 -26 -23 -23 -25 -32 -20 -67 4 -22 7 -58 7 -80 -1 -22 6 -53
14 -69 22 -43 15 -69 -23 -82 -18 -6 -47 -28 -66 -49 -19 -21 -45 -46 -59 -55
-62 -41 -99 -82 -93 -102 11 -34 195 -127 265 -134 24 -3 25 -4 21 -76 -1 -40
-9 -91 -17 -113 -19 -52 -19 -52 16 -77 l30 -22 44 26 c23 13 48 32 56 40 7 9
22 16 34 16 18 0 24 -9 34 -47 7 -27 15 -75 18 -108 4 -33 14 -68 22 -77 22
-26 69 -23 96 7 13 14 27 25 32 25 5 0 33 18 63 40 29 22 56 40 60 40 10 0 41
-67 41 -89 0 -25 28 -92 48 -113 8 -10 24 -18 34 -18 26 0 156 76 171 101 6
10 16 19 21 19 5 0 21 10 34 23 24 22 24 22 36 2 6 -11 31 -40 56 -65 25 -25
53 -57 62 -71 16 -26 51 -40 76 -31 11 3 62 91 63 107 0 2 6 20 14 39 8 20 15
40 15 46 0 17 19 11 54 -15 18 -14 38 -25 43 -25 6 0 16 -7 23 -15 7 -9 20
-15 29 -14 15 2 29 -2 79 -22 13 -5 36 -9 52 -9 26 0 29 4 35 45 4 25 5 62 1
82 -21 132 -22 123 10 123 16 -1 54 -9 84 -20 72 -25 117 -26 124 -2 9 28 -12
121 -33 148 -11 14 -18 31 -15 38 3 7 33 25 67 40 34 16 73 36 87 45 14 9 41
18 60 20 44 3 74 35 65 69 -9 36 -42 61 -122 93 -24 10 -29 16 -21 26 6 7 16
13 23 13 25 0 103 51 108 71 13 48 -29 93 -109 118 -23 8 -53 23 -67 35 -23
20 -24 25 -18 91 8 81 0 130 -26 157 -16 16 -23 17 -53 7 -19 -7 -47 -20 -62
-31 -42 -29 -55 -21 -49 29 2 13 -24 58 -46 81 -6 6 -23 12 -37 12 -28 0 -111
-52 -120 -75 -3 -8 -9 -15 -14 -15 -10 0 -42 64 -42 84 0 7 -11 22 -23 35 -29
26 -59 19 -85 -21 -9 -14 -41 -55 -70 -91 -42 -52 -57 -64 -73 -60 -23 6 -58
57 -104 151 -38 77 -58 80 -102 14z m64 -124 c4 -7 15 -29 23 -48 33 -77 66
-120 111 -144 41 -23 48 -24 66 -11 11 8 26 35 32 61 11 44 66 134 82 134 8 0
19 -37 19 -68 0 -13 9 -37 21 -53 32 -45 59 -38 114 29 53 65 72 79 87 64 7
-7 7 -25 -1 -58 -20 -77 2 -124 56 -124 10 0 30 12 44 28 31 34 89 76 96 69 3
-3 0 -29 -6 -57 -19 -90 -16 -103 32 -128 23 -13 59 -33 80 -46 l38 -23 -50
-37 c-28 -20 -62 -36 -76 -36 -36 0 -68 -53 -59 -100 3 -19 8 -37 10 -39 2 -3
31 -5 63 -5 33 -1 63 -5 68 -9 14 -15 -27 -36 -86 -43 -68 -8 -102 -24 -120
-57 -17 -32 -8 -71 25 -110 25 -29 32 -57 14 -57 -5 0 -27 9 -48 20 -21 11
-59 23 -85 26 -43 6 -47 5 -47 -13 0 -11 -7 -26 -15 -33 -9 -7 -13 -20 -10
-29 2 -9 7 -36 10 -61 3 -25 8 -66 11 -93 5 -43 4 -46 -13 -40 -10 3 -31 17
-46 30 -16 13 -32 23 -36 23 -4 0 -20 18 -37 39 -30 41 -84 74 -106 66 -15 -6
-37 -52 -53 -110 -14 -51 -53 -115 -70 -115 -7 0 -28 24 -47 53 -32 50 -43 71
-66 128 -19 48 -46 43 -111 -20 -80 -79 -146 -124 -158 -108 -5 6 -22 48 -37
92 -35 102 -50 125 -81 125 -14 0 -25 -4 -25 -9 0 -5 -17 -20 -37 -32 -21 -12
-62 -43 -91 -67 -60 -50 -72 -47 -72 21 0 59 -39 176 -62 188 -16 8 -32 4 -80
-21 l-61 -31 7 71 c7 84 -3 113 -38 104 -19 -4 -24 0 -32 27 -8 27 -16 35 -42
40 -50 10 -123 40 -120 49 7 17 126 109 161 124 43 18 62 34 82 73 17 33 11
45 -19 37 -28 -7 -47 14 -53 61 -8 62 -1 68 54 44 26 -11 56 -27 65 -36 10 -8
24 -13 32 -10 19 8 51 71 60 120 8 44 22 46 74 13 20 -13 54 -29 74 -36 32
-10 41 -9 62 7 21 15 77 86 106 132 7 12 16 7 47 -23 21 -21 50 -44 66 -52 15
-8 27 -21 27 -28 0 -17 54 -38 76 -29 20 8 34 36 34 72 0 34 29 91 47 91 6 0
15 -6 20 -12z"/>
<path d="M8938 7503 c-36 -6 -75 -59 -61 -82 12 -19 47 -26 71 -15 19 9 122
12 122 4 0 -3 -13 -11 -30 -18 -41 -19 -41 -60 0 -90 16 -12 34 -22 40 -22 6
0 13 -8 17 -17 3 -10 15 -28 25 -40 20 -21 20 -21 -3 -33 -13 -8 -39 -10 -66
-6 -35 5 -47 2 -63 -14 -25 -25 -26 -56 -2 -68 40 -21 97 -21 142 -1 62 28 90
56 90 92 0 36 -31 88 -68 117 l-27 20 33 30 c29 27 33 36 30 73 -3 39 -6 43
-40 54 -41 14 -169 24 -210 16z"/>
<path d="M8248 7459 c-16 -10 -37 -59 -32 -74 3 -7 12 -16 20 -19 8 -3 14 -10
14 -16 0 -6 9 -32 21 -57 15 -32 18 -48 10 -56 -26 -26 1 -77 41 -77 11 0 26
8 33 17 11 15 17 15 65 2 30 -8 55 -19 57 -26 11 -33 -162 -78 -186 -49 -10
11 -19 12 -42 4 -25 -9 -42 -38 -21 -38 4 0 12 -10 17 -22 14 -30 48 -37 129
-26 77 10 161 47 169 75 3 10 10 33 16 51 9 29 7 36 -20 67 -17 19 -34 34 -37
33 -4 -1 -20 4 -35 10 -16 7 -43 12 -62 12 -30 0 -35 4 -45 36 -7 22 -9 39 -3
45 5 5 37 10 72 11 48 1 64 6 72 19 13 24 11 42 -4 64 -12 15 -29 18 -126 19
-62 1 -117 -2 -123 -5z"/>
<path d="M8628 7414 c-31 -18 -53 -39 -64 -63 -18 -38 -20 -89 -4 -105 6 -6
10 -18 10 -27 0 -9 7 -22 15 -29 9 -7 13 -15 11 -18 -10 -9 46 -101 58 -96 6
2 23 -7 36 -21 42 -45 131 -25 187 43 32 40 35 47 30 90 -3 26 -8 54 -10 62
-3 8 -8 30 -12 48 -4 17 -11 32 -16 32 -4 0 -10 9 -14 20 -11 35 -76 77 -130
84 -43 5 -57 2 -97 -20z m164 -121 c44 -62 51 -133 17 -169 -31 -33 -56 -31
-64 5 -3 15 -5 32 -4 37 6 32 -23 53 -46 34 -10 -8 -18 -4 -34 16 -45 57 -12
124 60 124 33 0 41 -5 71 -47z"/>
<path d="M21374 7888 c-17 -18 -63 -85 -104 -148 -41 -63 -87 -132 -103 -152
-23 -31 -26 -41 -17 -58 9 -17 19 -20 48 -18 29 2 41 10 59 38 12 19 38 56 58
82 19 25 35 50 35 54 0 4 11 22 25 40 14 18 25 37 25 43 0 5 11 22 23 38 67
80 21 156 -49 81z"/>
<path d="M19418 7429 c-20 -4 -53 -20 -73 -34 -21 -14 -41 -25 -46 -25 -13 0
-157 -157 -227 -249 -51 -67 -62 -145 -44 -312 16 -150 51 -256 99 -300 57
-52 100 -71 166 -72 48 0 75 -7 120 -30 82 -42 157 -36 280 22 48 22 92 41 98
41 6 0 32 17 58 38 25 20 55 42 66 48 11 6 27 24 35 40 8 15 20 34 26 40 6 7
17 27 23 46 7 18 17 42 23 54 16 35 16 252 0 323 -18 76 -71 189 -104 222 -77
76 -210 134 -340 148 -108 12 -109 12 -160 0z m227 -128 c89 -9 110 -17 175
-71 40 -33 49 -50 82 -141 20 -57 39 -128 43 -158 13 -115 -40 -282 -100 -310
-16 -8 -43 -25 -58 -38 -16 -12 -34 -23 -41 -23 -7 0 -37 -12 -67 -27 -120
-58 -212 -60 -312 -7 -43 23 -52 25 -73 13 -40 -21 -85 7 -117 73 -51 105 -76
353 -41 420 21 40 191 222 236 253 22 14 51 22 88 24 30 1 57 4 60 7 2 3 14 2
25 -1 11 -3 56 -9 100 -14z"/>
<path d="M4601 7408 c-19 -5 -43 -7 -53 -5 -10 3 -71 -2 -136 -10 -196 -25
-961 -34 -1081 -13 -52 9 -153 3 -331 -20 -69 -9 -223 -16 -605 -25 -82 -2
-386 -6 -675 -10 -621 -7 -710 -12 -840 -50 -25 -7 -52 -13 -60 -13 -8 0 -39
-6 -68 -14 -60 -16 -108 -59 -97 -86 4 -9 6 -156 4 -327 -2 -339 -2 -446 -1
-575 0 -47 1 -136 1 -197 -1 -62 5 -129 11 -148 7 -20 9 -43 6 -51 -3 -9 -6
-129 -7 -268 0 -185 4 -275 16 -341 15 -86 26 -370 23 -585 -1 -52 -1 -120 0
-150 9 -490 14 -652 22 -708 13 -79 16 -111 25 -257 7 -103 17 -141 35 -130 4
2 14 -13 23 -35 l15 -40 104 0 c57 -1 139 -3 183 -6 337 -20 990 -22 1448 -4
155 6 296 13 312 16 80 12 337 27 480 29 88 1 214 9 280 18 93 13 188 16 425
15 168 -1 420 2 560 6 140 3 345 7 455 7 110 0 220 5 245 10 25 6 110 10 190
10 107 0 154 4 180 15 l36 15 -2 377 c0 207 -4 391 -8 407 -3 17 -8 80 -10
140 -3 61 -9 178 -15 260 -5 83 -13 263 -16 400 -4 138 -10 268 -15 290 -5 22
-9 114 -10 205 0 91 -2 179 -4 195 -11 111 -19 172 -31 260 -8 55 -17 142 -20
193 -5 77 -29 207 -52 272 -3 8 -7 44 -10 80 -6 99 -39 268 -68 355 -8 22 -24
78 -36 125 -27 106 -93 273 -127 320 l-25 35 -216 4 c-249 4 -366 8 -401 13
-14 3 -40 0 -59 -4z m379 -104 c138 -1 213 -5 228 -13 27 -15 49 -58 95 -186
35 -98 41 -121 71 -260 9 -38 24 -108 35 -155 11 -47 21 -112 24 -145 3 -33
14 -105 26 -160 11 -55 23 -136 26 -180 3 -44 12 -120 20 -170 24 -149 38
-331 41 -504 1 -90 6 -180 10 -200 8 -39 9 -74 19 -451 3 -135 10 -281 15
-325 22 -180 34 -436 34 -705 l0 -285 -112 -1 c-61 -1 -137 -5 -169 -9 -49 -7
-188 -14 -298 -17 -16 0 -165 0 -330 1 -165 0 -313 -1 -330 -4 -16 -3 -190 -7
-386 -8 -196 -2 -361 -7 -367 -11 -14 -9 -230 -25 -367 -27 -60 -1 -120 -5
-132 -10 -21 -8 -136 -15 -393 -23 -69 -3 -201 -7 -295 -11 -589 -22 -566 -22
-890 -11 -126 5 -335 9 -463 11 -128 1 -237 6 -242 11 -4 5 -10 47 -14 94 -7
101 -25 285 -31 320 -2 14 -7 214 -10 445 -9 647 -14 820 -30 950 -18 144 -25
468 -28 1268 l-3 597 39 11 c45 12 162 36 257 53 40 7 125 9 220 6 107 -3 175
-1 220 8 46 9 101 11 185 7 66 -4 170 -6 230 -5 61 1 162 4 225 5 63 1 223 3
355 5 132 1 248 6 257 11 10 5 71 12 136 15 64 3 133 9 152 14 19 5 54 9 77 8
22 0 45 2 50 5 21 13 384 3 424 -11 13 -5 62 -5 109 0 111 11 409 18 449 9 18
-3 91 0 164 6 73 7 179 15 237 18 58 3 134 9 170 13 36 5 70 6 75 3 6 -3 102
-6 215 -7z"/>
<path d="M4307 6860 c-21 -24 -21 -48 -3 -97 7 -21 19 -69 26 -106 13 -71 44
-147 60 -147 5 0 6 -20 3 -45 -4 -37 -2 -45 11 -45 13 0 15 -4 7 -18 -7 -13
-6 -33 4 -64 9 -33 10 -57 3 -89 -5 -24 -14 -63 -19 -87 -5 -23 -9 -71 -9
-106 0 -64 0 -64 31 -71 46 -10 62 12 70 93 3 37 3 78 -1 92 -9 32 5 82 27 97
9 7 37 13 62 13 41 0 49 -4 94 -52 46 -49 83 -105 79 -120 -1 -3 6 -39 14 -80
9 -40 16 -86 16 -103 -1 -42 13 -56 43 -41 29 13 36 40 31 117 -8 129 -78 266
-168 331 -34 24 -78 33 -156 32 -48 -1 -53 1 -58 25 -3 14 -8 33 -11 41 -3 8
-18 76 -33 150 -16 74 -35 160 -43 190 -8 30 -18 67 -21 83 -8 32 -34 36 -59
7z"/>
<path d="M1081 6703 c-20 -18 -20 -20 -6 -98 16 -92 17 -120 10 -420 -3 -121
-3 -230 0 -242 4 -18 13 -23 35 -23 17 0 31 6 32 13 3 26 19 499 18 550 0 10
4 17 9 15 12 -4 76 -93 98 -135 35 -68 96 -40 147 66 46 96 47 97 60 75 12
-21 13 -24 19 -338 4 -224 5 -230 26 -237 12 -5 32 -4 47 3 23 11 25 16 19 47
-3 20 -8 126 -11 236 -5 214 -16 337 -38 398 -15 44 -42 80 -57 75 -5 -2 -40
-57 -78 -123 -38 -65 -73 -121 -78 -122 -5 -2 -31 32 -58 74 -87 140 -135 203
-154 203 -11 0 -28 -8 -40 -17z"/>
<path d="M3291 6671 c-23 -17 -24 -22 -17 -82 4 -35 9 -84 10 -109 3 -49 15
-109 24 -125 8 -13 10 -20 21 -82 5 -28 14 -60 19 -70 12 -24 25 -123 26 -203
1 -73 8 -90 37 -90 49 0 52 141 8 325 -18 74 -28 139 -44 275 -15 122 -32 180
-53 180 -4 0 -18 -9 -31 -19z"/>
<path d="M3998 6658 c-2 -13 2 -48 9 -78 7 -30 13 -76 13 -101 l0 -46 -67 -11
c-115 -20 -140 -29 -147 -58 -5 -19 -1 -31 14 -44 21 -18 54 -19 169 -5 l34 4
-7 -82 c-4 -45 -9 -112 -12 -148 -7 -72 5 -109 34 -109 50 1 64 46 79 250 7
97 16 109 78 109 54 0 115 11 115 22 0 17 -48 40 -107 52 -64 13 -93 30 -93
54 0 8 -10 49 -22 91 -22 76 -50 122 -74 122 -7 0 -14 -10 -16 -22z"/>
<path d="M3582 6604 c-44 -30 -12 -84 42 -70 35 9 42 29 19 60 -21 30 -31 31
-61 10z"/>
<path d="M1877 6338 c-20 -11 -50 -36 -65 -56 -15 -21 -32 -40 -39 -45 -32
-20 -41 -126 -18 -203 17 -56 51 -86 98 -88 45 -2 49 35 11 76 -56 58 -29 194
46 233 65 34 115 11 163 -74 46 -80 55 -113 47 -165 -8 -53 -21 -71 -71 -97
-49 -25 -101 -25 -123 0 -18 20 -46 18 -46 -3 0 -19 59 -75 86 -82 38 -10 116
4 144 25 69 51 103 151 80 239 -14 55 -48 124 -67 135 -7 4 -13 14 -13 21 0
25 -60 73 -112 90 -61 19 -72 19 -121 -6z"/>
<path d="M2405 6313 c-15 -16 -43 -53 -62 -83 -34 -54 -34 -56 -28 -135 11
-140 39 -200 88 -193 18 2 22 9 20 38 -1 19 -3 77 -6 128 -4 77 -1 100 14 131
21 44 50 56 79 33 33 -27 70 -145 76 -241 5 -88 19 -115 54 -109 30 6 41 49
37 148 -5 110 -27 168 -94 244 -62 70 -131 85 -178 39z"/>
<path d="M3631 6286 c-20 -21 -22 -32 -17 -73 3 -26 8 -73 10 -103 8 -92 12
-100 50 -100 49 0 56 24 41 145 -13 105 -21 135 -39 147 -17 11 -21 10 -45
-16z"/>
<path d="M2855 6232 c-48 -9 -105 -94 -105 -156 0 -53 18 -83 62 -100 69 -28
82 -18 53 38 -8 15 -15 46 -15 67 0 30 5 42 26 56 36 23 109 18 154 -11 19
-12 42 -25 51 -28 21 -8 51 -73 47 -100 -2 -12 -21 -35 -43 -50 -37 -26 -46
-28 -107 -24 l-68 5 0 -30 c0 -25 4 -29 28 -29 15 0 33 -5 39 -11 16 -16 97
-13 133 6 128 66 143 163 41 267 -76 76 -201 119 -296 100z"/>
<path d="M20690 7395 c-25 -7 -60 -17 -78 -23 -37 -12 -36 -12 -62 -12 -31 0
-192 -160 -222 -222 -53 -108 -58 -132 -52 -226 7 -110 21 -184 39 -208 8 -11
15 -26 15 -35 0 -9 12 -39 28 -67 22 -41 38 -57 87 -83 39 -21 72 -32 94 -30
20 1 55 -9 85 -23 67 -33 232 -54 267 -35 13 7 35 12 49 10 36 -3 153 82 225
163 55 61 84 110 89 146 1 8 6 36 10 63 7 37 4 63 -12 115 -11 37 -25 87 -32
112 -17 64 -106 226 -149 271 -38 39 -54 45 -207 79 -105 23 -113 23 -174 5z
m203 -129 c103 -18 133 -42 185 -148 52 -105 83 -215 83 -296 0 -60 -2 -65
-53 -131 -72 -94 -140 -138 -227 -146 -141 -14 -185 -6 -285 49 -43 23 -68 31
-77 25 -59 -37 -119 75 -141 263 -10 92 -9 100 12 155 13 32 38 73 57 91 18
18 33 36 33 41 0 12 149 85 199 97 64 16 123 16 214 0z"/>
<path d="M18280 7331 c-14 -5 -49 -14 -79 -21 -79 -19 -234 -94 -263 -129 -23
-27 -97 -168 -114 -216 -32 -93 -12 -386 30 -442 35 -46 136 -141 156 -148 11
-4 20 -13 20 -20 0 -8 11 -17 24 -21 27 -6 170 1 184 10 6 3 68 8 139 10 176
6 229 27 334 137 67 69 79 88 100 151 20 59 24 93 24 183 -1 117 -15 167 -68
239 -12 17 -29 44 -37 61 -18 35 -93 110 -130 129 -14 7 -43 23 -66 35 -80 42
-193 61 -254 42z m178 -135 c15 -7 32 -11 39 -9 17 6 72 -24 99 -55 13 -15 38
-55 56 -90 17 -34 36 -66 43 -70 17 -11 45 -108 45 -157 0 -55 -35 -192 -55
-211 -8 -9 -15 -19 -15 -23 0 -12 -94 -77 -138 -94 -23 -9 -57 -17 -75 -17
-17 0 -93 -9 -167 -20 -192 -29 -218 -24 -296 55 -57 58 -62 67 -74 130 -21
113 -17 239 10 320 40 118 45 123 169 187 74 38 126 58 149 59 21 0 46 5 57
10 26 11 119 3 153 -15z"/>
<path d="M6385 6990 c-49 -19 -209 -169 -275 -257 -32 -43 -89 -111 -126 -150
-71 -75 -71 -76 -66 -159 2 -22 23 -33 75 -40 15 -2 38 -9 49 -15 12 -6 76
-13 142 -14 67 -2 132 -6 146 -9 14 -3 45 -7 70 -10 25 -2 67 -14 93 -25 66
-29 95 -27 107 5 19 48 11 112 -19 172 -42 84 -46 109 -19 123 13 7 43 14 67
15 56 4 245 42 291 59 19 8 53 16 75 20 22 4 65 15 96 25 31 10 68 16 83 13
18 -4 38 3 64 21 21 14 46 26 55 26 9 0 41 11 70 25 30 13 76 29 103 35 58 13
81 31 90 73 5 25 2 34 -16 49 -20 16 -24 16 -58 2 -21 -9 -55 -20 -77 -26 -21
-5 -45 -14 -53 -21 -8 -6 -44 -12 -80 -13 -94 -2 -91 -2 -115 -28 -14 -15 -39
-26 -70 -30 -26 -4 -64 -14 -85 -23 -37 -16 -80 -26 -242 -58 -47 -9 -92 -19
-100 -22 -82 -34 -152 -32 -158 3 -8 45 -65 205 -80 223 -12 14 -23 17 -37 11z"/>
<path d="M8635 6405 c-16 -7 -65 -21 -109 -31 -108 -26 -111 -28 -109 -111 0
-39 8 -80 16 -97 9 -16 13 -34 10 -42 -5 -15 12 -20 100 -28 84 -9 123 -39 95
-74 -21 -24 -72 -41 -147 -48 -50 -5 -71 -11 -71 -20 0 -8 -4 -14 -10 -14 -16
0 -11 -32 8 -46 23 -18 126 -18 188 1 53 15 116 71 129 113 4 15 0 41 -9 67
-21 54 -73 91 -149 106 -81 17 -106 67 -40 83 15 4 61 19 100 34 64 24 73 30
73 52 0 25 -25 71 -38 69 -4 0 -20 -6 -37 -14z"/>
<path d="M9385 6365 c-56 -27 -125 -97 -125 -127 0 -38 112 -117 174 -124 16
-1 35 -20 36 -35 0 -9 -69 -39 -90 -39 -11 0 -25 -13 -34 -32 -9 -17 -15 -32
-14 -33 2 0 16 -9 32 -19 29 -18 31 -18 83 -1 72 25 128 90 117 137 -15 69
-43 97 -97 98 -23 0 -40 5 -43 14 -3 8 -17 17 -30 20 -37 10 -25 27 39 60 59
30 68 47 47 87 -14 24 -33 23 -95 -6z"/>
<path d="M8138 6268 c-7 -13 -15 -45 -18 -73 l-5 -50 -48 0 c-49 0 -57 -6 -71
-52 -6 -18 -1 -25 23 -37 17 -9 46 -16 66 -16 28 0 37 -5 44 -22 14 -37 31
-121 28 -143 -1 -15 5 -21 25 -23 15 -2 36 2 47 7 18 10 19 18 15 85 l-6 73
35 22 c19 12 37 28 40 35 8 21 -16 48 -53 60 -30 10 -35 17 -45 61 -13 59 -20
71 -45 85 -16 8 -22 6 -32 -12z"/>
<path d="M8878 6204 c-56 -47 -69 -64 -62 -86 3 -10 7 -50 8 -90 3 -61 7 -74
26 -90 13 -11 33 -18 44 -16 19 3 21 9 18 70 -3 72 13 151 29 146 14 -5 66
-100 71 -128 4 -32 32 -48 53 -30 12 10 16 28 14 71 -2 57 10 89 35 89 19 -1
77 -89 83 -126 3 -18 10 -34 14 -34 5 0 9 -11 9 -25 0 -22 4 -25 35 -25 34 0
35 2 35 36 0 20 -9 53 -19 73 -10 20 -25 51 -32 70 -14 38 -66 91 -90 91 -9 0
-23 9 -30 21 -12 17 -18 19 -42 10 -15 -6 -32 -23 -38 -37 l-10 -27 -27 25
c-25 23 -64 48 -75 48 -3 0 -25 -16 -49 -36z"/>
<path d="M8510 5340 c-19 -4 -44 -11 -55 -17 -11 -6 -26 -8 -33 -6 -7 3 -20 2
-30 -2 -9 -4 -25 -9 -34 -10 -10 -1 -20 -4 -23 -7 -6 -5 43 -204 56 -229 5 -9
25 -20 46 -24 20 -4 46 -13 57 -21 11 -8 28 -14 38 -14 13 0 18 -8 18 -28 0
-32 -34 -56 -93 -65 -35 -5 -37 -5 -31 19 4 14 2 24 -4 24 -23 0 -62 -24 -77
-46 -14 -22 -13 -25 11 -48 33 -30 84 -39 143 -24 63 15 100 43 122 92 39 86
17 132 -86 180 -60 29 -73 42 -81 83 -5 27 -3 31 27 42 17 6 47 11 64 11 35 0
45 13 45 60 0 32 -22 40 -80 30z"/>
<path d="M8060 5146 c-7 -9 -10 -37 -8 -67 3 -53 3 -53 -30 -60 -35 -7 -82
-44 -82 -64 0 -6 10 -21 21 -34 16 -17 28 -21 46 -16 78 19 80 19 80 -14 0
-37 41 -87 57 -71 6 6 16 34 21 62 10 49 13 53 45 59 58 12 89 69 55 103 -12
11 -22 13 -40 6 -14 -5 -38 -7 -53 -4 -24 5 -28 11 -29 39 -1 18 -6 42 -12 54
-13 24 -53 28 -71 7z"/>
<path d="M8771 5130 c-24 -16 -48 -27 -52 -24 -7 4 -3 -117 7 -162 2 -12 11
-25 20 -28 27 -10 53 22 59 73 7 52 21 91 33 91 11 0 42 -55 42 -75 0 -23 30
-85 41 -85 5 0 24 20 41 45 34 49 48 50 48 4 0 -54 27 -89 69 -89 23 0 24 0
17 81 -9 94 -35 164 -66 174 -16 5 -32 -2 -62 -25 -32 -26 -42 -30 -49 -19 -5
8 -9 19 -9 25 0 17 -46 44 -72 43 -13 0 -43 -14 -67 -29z"/>
<path d="M9350 5153 c-14 -2 -32 -7 -40 -10 -8 -3 -31 -7 -50 -8 -34 -2 -103
-24 -116 -38 -13 -13 61 -103 115 -139 14 -10 37 -18 50 -18 20 0 21 -2 11
-15 -8 -9 -30 -15 -59 -15 -72 -1 -111 -44 -66 -74 31 -20 63 -20 130 0 92 26
147 113 88 139 -13 5 -23 13 -23 17 0 5 -8 8 -17 8 -10 1 -38 11 -61 24 l-44
22 40 12 c22 7 46 12 53 12 8 0 24 11 37 25 20 21 21 27 10 44 -7 12 -17 20
-23 20 -5 -1 -21 -4 -35 -6z"/>
<path d="M8595 4734 c-16 -9 -41 -18 -55 -19 -14 -1 -34 -3 -46 -3 -11 -1 -29
-10 -40 -21 -11 -10 -36 -26 -55 -35 -36 -17 -127 -101 -170 -157 -34 -44 -86
-146 -94 -184 -26 -123 -27 -183 -5 -260 6 -22 15 -53 18 -70 11 -45 68 -138
99 -161 16 -12 69 -39 118 -61 106 -48 196 -59 282 -37 30 8 85 14 122 14 125
0 275 53 330 116 13 15 37 52 53 83 16 31 33 60 38 67 19 22 42 162 43 259 2
106 4 98 -64 215 -11 19 -39 53 -62 75 -44 42 -201 125 -236 125 -11 0 -22 4
-25 9 -13 20 -102 52 -159 57 -46 3 -69 0 -92 -12z m198 -125 c29 -11 70 -29
93 -40 23 -10 48 -19 55 -19 8 0 31 -11 51 -25 20 -14 39 -25 42 -25 12 0 106
-104 103 -114 -3 -6 1 -24 7 -41 12 -32 12 -107 0 -193 -4 -33 -25 -89 -54
-145 -46 -90 -48 -92 -104 -114 -88 -36 -253 -56 -471 -57 -91 -1 -105 2 -155
28 -30 16 -61 36 -68 45 -20 25 -74 133 -69 138 3 2 -1 23 -7 46 -19 65 -6
182 29 253 35 72 130 169 213 217 112 66 243 83 335 46z"/>
<path d="M11920 4506 c-88 -14 -200 -30 -329 -47 -41 -5 -116 -19 -165 -30
-106 -25 -139 -51 -130 -105 3 -17 1 -48 -5 -70 -6 -21 -13 -111 -15 -199 -3
-88 -10 -185 -15 -215 -6 -30 -12 -98 -15 -150 -23 -445 -25 -604 -6 -770 5
-52 12 -131 15 -175 6 -112 40 -502 59 -675 19 -178 27 -388 15 -395 -5 -3
-50 -8 -101 -11 -51 -2 -111 -7 -133 -10 -149 -21 -224 -22 -375 -5 -218 26
-195 27 -213 -10 -8 -18 -14 -37 -11 -41 5 -8 12 -141 19 -383 2 -93 8 -226
11 -295 7 -119 7 -145 3 -180 -1 -8 -1 -38 -1 -66 2 -47 4 -53 30 -60 15 -5
131 -9 257 -10 231 -2 431 -10 444 -18 15 -10 119 -7 172 5 50 11 65 9 140
-11 69 -18 115 -23 268 -25 102 -2 195 -7 206 -11 10 -4 57 0 105 10 87 19 99
20 349 30 79 4 148 9 153 13 16 9 153 23 298 29 74 3 152 10 173 15 20 5 54
13 75 18 20 6 124 14 230 20 106 6 198 13 203 17 6 3 83 8 172 10 88 2 186 8
217 13 33 6 75 6 104 0 46 -8 412 -4 511 6 28 3 120 8 205 10 163 5 254 10
385 21 44 4 116 8 160 9 119 4 251 16 465 45 36 4 112 9 170 10 58 0 157 5
220 11 63 6 154 10 202 9 l87 -1 26 35 c25 33 28 34 48 21 16 -10 37 -12 77
-7 30 4 75 3 100 -2 37 -7 57 -5 107 12 63 22 176 47 248 56 22 3 60 7 85 10
25 3 81 8 125 10 71 5 83 8 104 32 21 25 22 34 17 98 -3 39 -11 168 -16 287
-6 119 -17 254 -25 300 -9 46 -18 125 -21 174 -2 50 -10 115 -17 145 -12 52
-14 55 -42 53 -17 -1 -79 -2 -140 -3 -60 -1 -132 -6 -160 -11 -27 -5 -122 -11
-210 -13 -88 -2 -210 -8 -272 -12 l-111 -7 -10 39 c-10 39 -18 148 -28 394 -5
135 -21 297 -30 311 -10 16 -24 279 -24 444 0 147 -7 279 -25 490 -11 130 -16
237 -20 435 -4 158 -9 218 -18 227 -11 11 -37 11 -133 3 -177 -14 -451 -20
-904 -19 -223 0 -414 0 -425 0 -62 -4 -141 0 -173 8 -43 12 -237 33 -302 33
-25 0 -90 1 -145 1 -155 1 -367 0 -395 -2 -14 -1 -128 2 -255 6 -126 4 -306 8
-400 9 -172 2 -315 16 -415 40 -30 7 -82 16 -115 20 -33 3 -65 11 -72 16 -17
14 -136 30 -233 33 -47 1 -139 4 -205 8 -82 4 -147 2 -205 -7z m139 -95 c9 -5
93 -11 186 -12 94 -1 175 -5 180 -9 6 -5 42 -13 81 -19 39 -6 86 -17 105 -25
19 -7 40 -11 47 -9 7 3 18 0 25 -5 7 -5 37 -13 67 -17 30 -4 57 -11 61 -16 3
-5 19 -5 36 0 19 6 47 5 70 0 38 -10 167 -16 538 -25 110 -2 216 -6 235 -8 19
-2 51 2 71 8 23 8 43 10 52 4 9 -5 40 -8 69 -7 198 3 666 -10 688 -20 65 -30
489 -46 685 -26 119 13 240 10 297 -6 16 -4 30 -3 34 2 3 6 19 7 34 4 16 -3
66 -1 111 5 46 6 133 11 194 11 60 0 147 5 193 11 58 8 86 8 93 1 6 -6 13 -79
15 -174 3 -90 14 -270 24 -399 11 -129 22 -372 26 -540 3 -168 10 -325 16
-350 5 -25 14 -137 19 -250 13 -290 19 -391 24 -419 14 -80 16 -112 6 -146 -8
-29 -7 -44 3 -64 18 -36 43 -121 61 -210 8 -40 18 -77 21 -82 3 -5 9 -41 14
-81 5 -40 14 -97 19 -126 18 -99 28 -373 15 -434 -5 -25 -10 -28 -52 -30 -26
0 -67 -2 -92 -3 -135 -7 -268 -14 -370 -20 -63 -3 -146 -10 -185 -15 -131 -18
-150 -20 -285 -30 -74 -5 -196 -15 -270 -21 -74 -6 -205 -13 -290 -15 -156 -3
-255 -10 -270 -19 -4 -3 -198 -5 -431 -6 -400 -1 -543 -8 -836 -39 -50 -6
-117 -10 -147 -10 -30 0 -99 -9 -153 -19 -58 -11 -147 -19 -218 -20 -66 -1
-140 -5 -165 -10 -105 -22 -198 -31 -319 -31 -89 0 -139 -4 -163 -14 -28 -12
-82 -14 -284 -11 -255 5 -354 13 -395 36 -13 7 -37 15 -54 19 -27 5 -31 11
-37 50 -3 25 -9 180 -13 345 -4 165 -10 331 -14 368 -6 58 -5 72 11 92 24 31
24 72 -1 80 -17 5 -19 22 -25 198 -4 105 -13 246 -21 312 -20 173 -44 419 -55
575 -5 74 -15 193 -21 263 -11 136 -4 533 11 622 5 28 12 120 15 205 17 383
24 469 44 479 17 9 50 15 356 66 50 9 122 16 160 16 39 0 84 6 100 14 38 17
33 17 54 6z m5251 -2492 c0 -15 4 -50 10 -76 5 -26 12 -86 14 -133 3 -47 10
-123 16 -170 18 -140 31 -442 19 -454 -6 -6 -82 -13 -235 -21 -39 -2 -109 -14
-155 -26 -102 -26 -317 -38 -373 -19 l-36 12 0 106 c-1 59 -3 143 -5 187 -4
80 -39 283 -55 320 -8 17 -16 58 -44 226 -5 26 -4 26 72 33 42 4 178 9 302 10
224 4 294 10 317 28 7 5 16 7 21 4 4 -2 30 -1 58 3 63 9 74 5 74 -30z m-6602
-371 l38 -12 -18 -35 c-23 -45 -23 -74 1 -95 17 -15 17 -20 5 -45 -12 -24 -12
-40 0 -107 12 -67 12 -81 0 -95 -16 -18 -18 -39 -4 -39 5 0 20 -11 33 -24 23
-23 26 -23 205 -22 126 2 186 6 194 14 7 7 24 12 39 12 15 0 31 6 37 13 8 10
23 233 22 337 0 41 -23 54 -108 59 -108 6 -138 6 -212 -1 -69 -7 -131 1 -131
16 1 6 83 11 188 13 104 2 200 8 214 12 14 5 47 7 72 4 l46 -5 6 -57 c3 -31 9
-67 12 -81 3 -14 7 -61 8 -105 2 -44 6 -154 10 -245 4 -91 7 -176 6 -190 -1
-36 0 -90 2 -129 3 -50 -17 -58 -99 -42 -37 8 -115 13 -173 12 -58 -2 -117 -2
-131 -2 -28 1 -253 -1 -315 -3 l-40 -1 -2 70 c-1 39 -7 226 -13 417 -7 191 -9
352 -5 358 8 14 67 13 113 -2z m469 -142 c1 -1 -2 -53 -5 -116 -6 -105 -9
-115 -27 -118 -14 -1 -34 16 -70 64 -49 65 -104 152 -105 166 0 10 75 15 145
10 33 -3 61 -5 62 -6z m-287 -36 c6 -11 16 -20 23 -20 7 0 33 -31 60 -69 42
-63 56 -91 42 -91 -7 0 -64 50 -114 101 -25 26 -56 52 -68 58 -30 15 -19 41
18 41 18 0 32 -7 39 -20z m-20 -126 c0 -7 17 -26 37 -43 42 -35 35 -41 -41
-38 -48 2 -50 3 -59 36 -5 22 -5 43 2 58 9 20 13 21 36 11 14 -6 25 -17 25
-24z"/>
<path d="M11910 4069 c-19 -4 -98 -9 -175 -12 -118 -5 -141 -8 -152 -23 -16
-23 -16 -45 0 -68 14 -19 67 -22 193 -12 l72 5 -5 -77 c-3 -42 -6 -104 -7
-137 -1 -33 -6 -115 -11 -182 -9 -138 1 -126 -117 -138 -53 -6 -70 -12 -81
-29 -20 -32 -10 -56 24 -56 16 0 38 -5 49 -12 15 -9 30 -9 67 0 64 16 105 23
123 24 8 0 29 4 45 9 34 10 84 18 165 28 71 8 77 29 17 59 -41 21 -50 21 -122
11 -43 -6 -81 -7 -85 -2 -5 4 -5 31 0 58 9 58 6 354 -4 405 -11 59 -1 64 122
65 89 0 111 -3 125 -17 15 -15 47 -15 47 -1 0 16 -34 65 -57 81 -31 22 -171
34 -233 21z"/>
<path d="M13226 3934 c-3 -8 -4 -25 -1 -37 3 -12 7 -53 9 -91 l3 -68 -66 6
-66 7 -12 -32 c-7 -18 -10 -35 -8 -39 2 -3 23 -12 47 -19 24 -7 59 -20 78 -29
l35 -17 1 -90 c2 -101 23 -157 62 -163 18 -3 22 2 23 25 1 15 2 37 3 48 1 11
3 54 4 96 2 82 4 85 72 94 67 9 102 19 107 32 9 24 -8 32 -86 37 -42 3 -79 11
-86 18 -6 7 -19 43 -28 79 -17 66 -62 159 -77 159 -4 0 -11 -7 -14 -16z"/>
<path d="M12885 3796 c-44 -12 -91 -28 -105 -36 -59 -30 -89 -102 -55 -130 8
-7 15 -18 15 -26 0 -14 49 -64 62 -64 5 0 17 -8 27 -17 35 -32 50 -43 59 -43
14 0 102 -92 102 -107 0 -9 -17 -13 -57 -14 -32 0 -72 -2 -90 -3 -25 -3 -38 3
-64 30 -31 32 -34 33 -51 17 -26 -24 -23 -36 21 -76 50 -45 106 -61 188 -52
73 8 123 44 123 89 0 32 -56 95 -138 158 -90 68 -135 115 -129 132 11 29 85
66 153 75 60 9 94 23 94 40 0 16 -27 40 -50 45 -14 2 -61 -6 -105 -18z"/>
<path d="M15065 3744 c-11 -6 -30 -17 -43 -25 -24 -15 -80 -123 -108 -210 -16
-47 -16 -53 -1 -84 9 -19 32 -52 52 -73 19 -22 35 -44 35 -49 0 -17 33 -41 79
-57 48 -16 126 -8 165 18 12 7 32 16 46 19 14 4 37 18 52 32 15 14 32 25 38
25 5 0 10 16 10 35 0 45 -13 45 -117 4 -56 -23 -92 -31 -131 -30 -64 1 -65 2
-103 53 -33 46 -36 58 -14 58 13 0 34 8 125 47 72 32 99 48 135 78 32 26 38
37 39 73 0 32 -5 47 -24 66 -22 22 -35 25 -120 28 -54 2 -103 -2 -115 -8z
m173 -101 c-2 -9 -13 -18 -26 -20 -13 -1 -47 -17 -77 -33 -45 -25 -115 -41
-115 -26 0 14 33 63 52 78 33 25 171 26 166 1z"/>
<path d="M13835 3736 c-67 -39 -105 -68 -105 -80 0 -8 -11 -17 -25 -20 -57
-14 -115 -108 -115 -187 0 -47 3 -54 41 -89 43 -39 94 -56 116 -38 7 5 21 7
31 4 19 -7 50 12 109 67 l31 29 19 -23 c44 -55 63 -69 93 -69 26 0 30 3 30 28
-1 19 -10 33 -33 47 -35 22 -44 44 -84 200 -17 68 -33 107 -49 123 -26 24 -30
25 -59 8z m12 -108 c10 -13 8 -87 -3 -174 -7 -50 -30 -64 -104 -64 -58 0 -80
18 -80 64 0 45 46 107 112 150 61 40 62 40 75 24z"/>
<path d="M12375 3720 c-11 -4 -30 -22 -43 -39 -23 -32 -42 -40 -42 -18 0 6 -9
23 -19 36 l-18 24 -16 -33 c-11 -22 -14 -38 -7 -50 8 -15 26 -133 35 -228 4
-36 20 -62 41 -62 22 0 26 17 27 125 2 113 17 150 69 169 77 27 121 -47 131
-221 3 -59 32 -101 62 -89 14 5 16 15 11 54 -3 26 -8 82 -11 124 -6 67 -12 85
-45 136 -47 74 -109 100 -175 72z"/>
<path d="M14748 3699 c-97 -23 -199 -96 -214 -154 -14 -58 41 -133 126 -170
19 -9 42 -20 50 -24 28 -15 84 0 118 32 35 34 36 36 23 56 -7 11 -13 12 -23 4
-30 -24 -69 -24 -115 -1 -63 32 -95 72 -82 101 12 26 24 35 110 78 64 33 86
58 67 77 -7 7 -14 12 -17 11 -4 -1 -23 -5 -43 -10z"/>
<path d="M14173 3655 c-19 -19 -42 -35 -51 -35 -43 -1 -43 2 -18 -195 10 -80
18 -103 39 -109 41 -10 51 15 52 135 1 102 3 113 23 129 64 53 123 -53 123
-223 1 -57 5 -72 24 -95 35 -40 48 -19 53 83 6 109 -21 202 -79 275 -65 83
-109 92 -166 35z"/>
<path d="M17100 1864 c-25 -8 -70 -15 -100 -16 -73 -1 -286 -1 -331 1 -45 2
-74 -28 -82 -84 -5 -33 -1 -51 20 -90 23 -43 26 -61 26 -133 -1 -76 1 -84 24
-102 32 -25 45 -25 149 0 46 11 101 23 122 25 20 3 61 9 90 14 36 7 72 7 109
0 63 -12 71 -8 88 43 7 24 7 54 -2 108 -6 41 -12 101 -12 133 -1 60 -22 118
-44 116 -6 -1 -32 -7 -57 -15z m21 -121 c1 -42 9 -116 14 -131 3 -7 -7 -18
-20 -24 -21 -9 -29 -8 -48 9 -12 11 -53 34 -91 52 -38 17 -79 43 -92 56 -27
30 -45 31 -67 7 -16 -18 -15 -21 10 -53 14 -19 40 -41 57 -49 36 -17 33 -37
-4 -32 -30 4 -109 78 -117 110 -5 23 -19 27 -42 13 -21 -14 -6 -55 39 -102 22
-23 37 -46 34 -50 -3 -5 -23 -9 -44 -9 -33 0 -40 4 -44 23 -2 12 -11 55 -20
96 -9 41 -14 76 -12 79 3 2 87 6 188 8 101 2 197 8 213 13 44 14 45 13 46 -16z"/>
<path d="M17138 1398 c-24 -38 -28 -59 -16 -81 29 -55 79 -63 103 -16 37 71
-45 162 -87 97z"/>
<path d="M10712 963 c-7 -3 -19 -18 -27 -34 -14 -27 -14 -30 13 -60 31 -35 52
-34 90 2 29 26 28 41 -4 73 -26 25 -45 30 -72 19z"/>
<path d="M6880 4281 c-8 -6 -32 -11 -52 -11 -20 0 -63 -7 -95 -15 -32 -9 -74
-15 -93 -13 -35 1 -92 -10 -210 -42 -36 -10 -83 -21 -104 -25 -22 -4 -49 -13
-60 -21 -11 -8 -28 -14 -36 -14 -18 0 -60 -40 -60 -57 0 -7 13 -21 30 -33 28
-20 32 -20 82 -5 28 8 63 15 77 15 14 0 58 12 96 26 58 21 93 27 205 31 94 3
155 11 200 25 73 22 299 32 427 18 62 -6 76 -11 94 -33 18 -24 23 -25 42 -15
14 8 74 13 167 15 80 1 186 2 235 3 111 1 178 16 195 43 11 18 9 24 -13 43
-35 30 -86 35 -332 33 -209 -2 -303 4 -339 23 -27 15 -437 22 -456 9z"/>
<path d="M10663 4236 c-7 -8 -17 -16 -23 -18 -9 -3 -9 -18 0 -63 9 -49 9 -70
-4 -118 -8 -31 -17 -61 -20 -66 -3 -5 -23 -3 -43 5 -21 7 -52 13 -69 14 -17 0
-44 4 -60 9 -81 26 -369 100 -414 106 -8 1 -22 5 -30 8 -50 18 -164 28 -324
29 -159 1 -185 -1 -209 -17 -45 -29 -50 -48 -19 -77 26 -24 30 -25 207 -27
266 -3 350 -12 406 -42 12 -6 31 -8 43 -5 12 3 38 -3 57 -13 41 -21 175 -55
194 -48 7 3 22 -1 34 -10 12 -8 46 -17 77 -20 30 -3 57 -10 60 -14 3 -5 18 -9
35 -9 16 0 29 -1 29 -3 0 -6 -57 -106 -81 -143 -15 -22 -47 -57 -73 -77 -51
-42 -59 -72 -26 -102 16 -15 24 -16 47 -6 31 12 134 29 233 38 36 3 88 16 115
28 28 13 90 35 138 50 122 38 139 67 92 155 -13 25 -38 72 -55 105 -46 90 -88
156 -124 195 -17 19 -40 52 -49 73 -13 28 -22 37 -42 37 -14 0 -34 9 -45 20
-23 23 -40 25 -57 6z"/>
<path d="M6000 3212 c-8 -3 -27 -13 -42 -24 -30 -21 -30 -36 -2 -156 9 -35 13
-71 9 -80 -9 -25 -16 -315 -7 -327 25 -34 40 -37 83 -14 41 20 87 38 208 80
30 11 62 17 72 14 9 -3 33 -25 52 -48 86 -104 229 -234 307 -277 15 -8 46 -31
71 -51 24 -20 85 -58 134 -84 50 -26 97 -54 106 -61 8 -8 20 -14 26 -14 5 0
20 -11 33 -25 43 -46 100 -24 100 40 0 29 -7 37 -67 78 -38 25 -93 59 -123 76
-97 55 -243 151 -280 184 -20 18 -57 48 -81 67 -59 47 -189 180 -189 194 0 6
38 44 85 84 75 65 85 78 85 106 0 27 -7 38 -38 59 -21 13 -65 30 -98 38 -32 7
-79 22 -104 34 -25 12 -79 33 -120 45 -41 12 -104 33 -140 45 -36 12 -72 20
-80 17z"/>
<path d="M7760 2767 c-23 -12 -25 -18 -25 -82 l0 -70 -30 1 c-16 1 -39 5 -51
8 -13 5 -28 1 -44 -12 -22 -18 -23 -23 -14 -58 6 -25 15 -38 24 -36 8 2 34 -2
57 -9 48 -13 60 -36 49 -91 -4 -22 -1 -37 10 -50 39 -42 74 -5 74 75 l0 57 34
0 c37 0 50 11 60 52 9 38 -12 68 -46 68 -26 0 -28 3 -28 43 0 55 -18 117 -33
117 -7 0 -23 -6 -37 -13z"/>
<path d="M8045 2763 c-4 -10 -9 -56 -11 -102 -2 -46 -9 -100 -15 -119 -10 -30
-9 -37 9 -54 17 -18 25 -19 68 -10 57 12 76 4 94 -38 9 -22 10 -34 1 -43 -16
-20 -133 -22 -168 -3 -39 19 -83 10 -83 -18 0 -28 42 -66 83 -76 18 -4 66 -6
106 -5 72 1 74 2 112 43 46 49 50 85 17 152 -18 36 -34 50 -78 72 -45 21 -56
32 -61 57 -11 52 5 61 86 51 78 -10 105 -1 105 33 -1 43 -20 53 -130 65 -132
15 -126 15 -135 -5z"/>
<path d="M8440 2567 c-57 -28 -80 -71 -80 -149 0 -46 5 -62 24 -85 24 -27 25
-27 44 -9 13 11 23 37 27 70 4 28 13 65 20 81 l13 30 13 -35 c7 -19 13 -37 12
-40 -14 -64 -13 -87 5 -108 11 -12 22 -22 24 -22 3 0 23 25 44 55 44 65 53 60
61 -38 7 -73 15 -86 51 -84 26 2 27 4 30 75 3 87 -11 146 -44 179 -24 24 -40
26 -86 8 -9 -4 -18 7 -27 30 -7 21 -24 41 -41 50 -36 19 -36 19 -90 -8z"/>
<path d="M8934 2492 c-59 -21 -103 -47 -110 -67 -10 -24 29 -66 83 -91 49 -23
53 -27 53 -59 0 -58 -66 -77 -97 -27 -9 15 -18 29 -19 30 -2 2 -16 -4 -33 -14
-35 -21 -39 -48 -13 -80 27 -33 56 -44 111 -44 62 0 102 30 127 96 24 64 8
115 -46 146 -48 28 -46 43 6 44 73 2 81 4 94 29 11 20 11 27 0 40 -17 20 -92
19 -156 -3z"/>
<path d="M7596 2113 c-177 -27 -260 -64 -338 -152 -56 -64 -67 -90 -78 -179
-6 -42 -14 -91 -19 -108 -16 -58 21 -188 88 -303 30 -52 90 -109 138 -132 24
-11 45 -24 48 -29 3 -5 24 -11 48 -15 23 -4 50 -12 60 -17 11 -5 44 -12 75
-14 31 -3 76 -10 101 -16 58 -14 207 -17 246 -6 90 28 158 73 221 150 81 98
99 133 120 238 28 142 8 307 -49 394 -32 49 -99 107 -151 130 -159 71 -143 67
-290 69 -77 1 -175 -3 -220 -10z m374 -136 c132 -37 173 -65 215 -148 53 -104
39 -333 -26 -407 -17 -19 -35 -45 -41 -58 -16 -35 -77 -73 -167 -105 -68 -24
-97 -24 -197 0 -43 11 -117 27 -163 36 -115 21 -166 46 -225 108 -72 76 -96
137 -96 245 -1 108 9 147 49 206 40 57 86 87 171 109 132 35 380 42 480 14z"/>
<path d="M7553 1878 c-20 -22 -21 -25 -6 -68 17 -53 45 -80 83 -80 35 0 60 29
67 77 6 46 -11 65 -72 82 -52 14 -48 15 -72 -11z"/>
<path d="M7900 1853 c-14 -3 -35 -17 -47 -32 -20 -26 -20 -29 -6 -59 16 -33
52 -47 108 -40 22 2 31 10 36 32 7 24 3 36 -22 68 -17 21 -34 37 -37 37 -4 -1
-18 -4 -32 -6z"/>
<path d="M7491 1576 c-18 -19 -21 -31 -16 -54 3 -17 12 -35 19 -41 8 -6 58
-13 112 -14 55 -2 124 -9 154 -15 83 -17 228 -23 256 -10 13 6 27 21 30 34 5
21 -19 83 -34 85 -162 17 -413 39 -453 39 -35 0 -51 -5 -68 -24z"/>
<path d="M8488 1529 c-16 -11 -28 -29 -28 -38 0 -29 41 -58 100 -71 30 -7 73
-18 95 -26 22 -7 67 -18 99 -23 33 -6 62 -15 65 -20 3 -5 30 -17 59 -26 29
-10 55 -21 58 -26 3 -5 16 -9 29 -9 13 0 26 -4 29 -9 11 -17 96 -51 129 -51
18 0 37 -4 43 -8 22 -20 109 -36 259 -47 150 -12 302 -26 350 -34 28 -4 82 -6
120 -3 39 2 79 4 90 4 209 -2 236 1 286 23 33 16 39 23 37 44 -5 41 -48 56
-158 55 -52 -1 -111 -5 -130 -9 -71 -15 -294 -2 -347 20 -25 11 -69 15 -147
15 -131 -1 -255 19 -371 59 -110 38 -154 51 -165 51 -12 0 -148 62 -205 93
-11 6 -40 14 -65 18 -25 5 -67 12 -95 18 -27 5 -63 12 -80 15 -22 5 -38 0 -57
-15z"/>
</g>
</svg>
