<?xml version="1.0" standalone="no"?>
<!DOCTYPE svg PUBLIC "-//W3C//DTD SVG 20010904//EN"
 "http://www.w3.org/TR/2001/REC-SVG-20010904/DTD/svg10.dtd">
<svg version="1.0" xmlns="http://www.w3.org/2000/svg"
 width="837.831875pt" height="400.000000pt" viewBox="0 0 837.831875 400.000000"
 preserveAspectRatio="xMidYMid meet">
<metadata>
Created by potrace 1.15, written by Peter Selinger 2001-2017
</metadata>
<g transform="translate(-31.806581,419.434627) scale(0.038027,-0.038027)"
fill="#444444" stroke="none">
<path d="M8588 11024 c-4 -3 -30 -9 -60 -14 -107 -18 -123 -23 -140 -37 -20
-18 -19 -50 4 -82 l17 -23 58 23 c32 13 65 29 74 37 18 14 69 7 69 -9 0 -6 -8
-22 -19 -37 -111 -161 -125 -195 -97 -237 25 -38 92 -68 137 -61 82 13 152 58
134 86 -3 5 -44 8 -92 7 -120 -2 -122 3 -43 131 34 56 66 105 71 108 12 7 11
71 -1 95 -8 15 -21 19 -59 19 -26 0 -50 -3 -53 -6z"/>
<path d="M8156 10644 c-123 -68 -108 -135 39 -174 65 -18 128 -46 139 -62 12
-20 -7 -45 -68 -89 -27 -20 -51 -29 -78 -29 -67 0 -91 -50 -38 -78 44 -23 154
8 218 60 22 18 62 108 62 139 0 27 -28 58 -70 76 -14 6 -52 22 -85 36 -67 29
-78 43 -41 53 28 7 35 39 16 73 -16 31 -32 30 -94 -5z"/>
<path d="M7423 10655 c-23 -25 -14 -54 36 -119 27 -35 56 -83 64 -107 l15 -44
-36 -8 c-106 -21 -109 -21 -136 9 -14 16 -26 34 -26 41 0 6 -14 23 -32 36 -26
21 -34 23 -45 12 -19 -19 -17 -32 16 -102 l30 -62 -23 -24 c-12 -13 -27 -26
-33 -28 -7 -2 -15 -16 -18 -31 -10 -38 30 -58 78 -40 17 7 34 8 37 4 4 -4 17
-38 30 -77 24 -76 42 -102 79 -116 30 -12 51 4 51 40 0 14 -13 60 -30 101 -16
41 -29 82 -30 90 0 8 20 37 44 63 25 26 46 55 48 63 3 16 88 -88 88 -109 0
-23 48 -130 62 -138 7 -4 22 -1 32 7 24 17 25 56 4 154 -10 41 -15 77 -12 80
10 9 78 -75 106 -131 36 -72 48 -85 82 -93 l29 -7 -7 47 c-6 49 -72 182 -109
222 -32 35 -77 56 -90 43 -6 -6 -19 -11 -29 -11 -10 0 -24 -11 -30 -25 -6 -14
-16 -24 -22 -22 -6 2 -31 44 -56 94 -25 49 -53 98 -63 107 -9 10 -17 23 -17
30 0 18 -46 66 -62 66 -7 -1 -19 -7 -25 -15z"/>
<path d="M7782 10647 c-27 -29 -27 -31 0 -57 33 -31 64 -26 72 11 12 63 -31
90 -72 46z"/>
<path d="M7951 10449 c-27 -25 -24 -58 12 -129 18 -34 30 -46 50 -48 35 -4 41
12 28 83 -20 107 -46 134 -90 94z"/>
<path d="M8744 10438 c-26 -42 -3 -98 48 -119 28 -11 32 -10 49 12 25 33 24
71 -4 97 -25 24 -81 30 -93 10z"/>
<path d="M6206 10048 c-9 -12 -16 -29 -16 -37 0 -18 56 -117 92 -161 15 -19
28 -40 28 -46 0 -6 13 -24 30 -40 36 -36 37 -54 5 -93 -35 -41 -50 -134 -31
-187 35 -98 78 -134 161 -134 51 0 132 35 140 61 3 10 19 33 34 53 19 24 32
57 40 97 12 69 8 84 -18 67 -15 -9 -27 -4 -72 30 -30 22 -66 44 -81 47 -16 4
-45 28 -67 54 -55 66 -168 242 -176 274 -4 15 -11 27 -15 27 -5 0 -15 3 -23 6
-9 3 -22 -4 -31 -18z m304 -470 c0 -15 61 -46 81 -41 28 8 24 -7 -14 -51 -28
-31 -42 -39 -80 -43 -58 -7 -79 9 -101 74 -15 45 -15 45 14 74 29 29 29 29 64
12 20 -9 36 -20 36 -25z"/>
<path d="M6718 9961 c-27 -24 -37 -42 -43 -76 -7 -51 2 -86 47 -187 34 -76 50
-85 135 -83 94 3 163 71 163 163 0 85 -116 194 -222 208 -40 6 -48 3 -80 -25z
m127 -77 c78 -37 104 -109 58 -164 -31 -37 -42 -37 -76 -2 -34 36 -57 92 -57
142 0 34 3 40 21 40 12 0 36 -7 54 -16z"/>
<path d="M7830 9794 c-25 -7 -58 -14 -73 -14 -55 0 -128 -43 -224 -134 -23
-22 -45 -52 -48 -67 -4 -15 -13 -33 -21 -40 -31 -25 -76 -134 -86 -209 -22
-152 -11 -205 71 -347 85 -147 146 -219 195 -228 19 -4 40 -13 47 -21 6 -8 21
-14 33 -14 12 0 27 -5 33 -11 19 -19 78 -24 270 -23 130 1 186 4 197 13 8 7
25 14 38 16 42 5 119 36 139 56 10 10 24 19 29 19 6 0 36 26 68 58 129 129
169 310 110 492 -40 123 -94 199 -188 263 -25 17 -76 58 -114 90 -80 69 -108
82 -214 102 -95 18 -203 18 -262 -1z m280 -109 c63 -10 78 -19 185 -114 11 -9
46 -35 79 -57 105 -70 156 -171 156 -308 0 -97 -16 -145 -80 -230 -43 -59
-150 -131 -212 -143 -18 -3 -42 -11 -53 -17 -11 -6 -83 -13 -160 -16 -136 -5
-140 -5 -163 19 -20 20 -30 23 -70 17 -94 -12 -141 17 -227 144 -80 118 -99
169 -91 251 3 37 13 79 21 95 8 16 15 34 15 40 0 24 63 130 98 167 60 63 146
124 183 130 19 3 59 12 90 19 58 13 150 15 229 3z"/>
<path d="M10396 9779 c-14 -11 -26 -28 -26 -38 0 -10 -11 -35 -25 -55 -14 -20
-32 -60 -41 -89 -8 -29 -24 -71 -34 -93 l-18 -41 -56 18 c-58 20 -187 43 -296
54 -123 13 -465 14 -615 3 -82 -5 -197 -12 -255 -13 -59 -2 -125 -10 -150 -18
-25 -8 -70 -18 -102 -22 -60 -7 -69 -15 -61 -58 7 -38 34 -49 101 -43 31 3
102 10 157 15 55 5 137 10 182 10 45 0 139 7 209 16 96 12 145 13 198 6 39 -5
100 -6 135 -2 96 11 379 -16 469 -45 60 -20 60 -16 9 -123 -37 -80 -49 -127
-33 -140 31 -26 106 -19 201 20 11 4 47 11 80 14 33 4 78 11 100 16 22 5 67
11 100 13 33 2 89 11 125 21 127 33 141 47 98 102 -13 15 -32 45 -42 66 -11
21 -35 52 -53 70 -19 18 -44 46 -56 63 -12 17 -58 70 -101 118 -43 47 -89 100
-102 117 -22 30 -53 58 -65 59 -4 0 -18 -9 -33 -21z"/>
<path d="M5824 9498 c-17 -27 -11 -109 9 -134 21 -27 47 -104 47 -138 -1 -73
-46 -54 -138 57 -35 42 -70 77 -78 77 -7 0 -21 -11 -30 -25 -22 -34 -13 -52
67 -139 66 -71 131 -116 166 -116 27 0 70 34 89 71 12 24 18 28 34 19 34 -18
57 -11 74 23 15 31 15 33 -8 52 -42 36 -109 137 -118 179 -5 23 -19 51 -30 64
-23 24 -72 30 -84 10z"/>
<path d="M11007 9401 c-64 -13 -72 -28 -53 -96 18 -60 20 -74 31 -227 5 -63 4
-112 -3 -140 -23 -87 -31 -748 -17 -1548 8 -506 8 -491 -7 -507 -7 -6 -47 -17
-88 -22 -41 -6 -147 -21 -235 -35 -115 -17 -175 -21 -210 -16 -46 7 -52 6 -72
-18 -22 -26 -22 -33 -18 -190 3 -90 8 -168 11 -174 11 -18 14 -157 4 -184 -7
-18 -6 -31 5 -48 10 -14 15 -45 15 -77 -2 -124 1 -164 12 -192 13 -28 15 -29
63 -22 28 3 57 7 65 7 8 0 31 4 51 9 65 16 465 14 475 -2 3 -6 35 -7 77 -4 73
6 189 6 307 1 209 -10 334 -18 340 -21 6 -4 542 -19 580 -17 8 1 101 8 205 16
105 9 298 18 430 21 132 3 283 8 335 10 159 8 179 8 373 -6 140 -10 193 -10
206 -2 13 8 40 9 87 3 86 -10 320 -5 439 10 50 6 155 13 235 14 80 2 152 6
160 9 8 3 60 8 115 11 213 13 263 17 339 28 47 6 113 8 165 4 94 -8 737 -15
787 -8 16 2 40 11 52 20 l22 17 -16 225 c-9 124 -17 297 -18 385 -3 229 -39
389 -84 369 -25 -10 -235 -33 -268 -29 -16 2 -86 7 -156 11 l-128 7 -1 36 c-1
20 -3 47 -4 61 -1 14 -5 124 -9 245 -5 121 -9 252 -11 290 -4 96 -5 332 -2
915 1 272 -1 558 -5 635 -9 156 -13 164 -77 166 -20 0 -45 2 -56 5 -39 8 -461
11 -530 4 -38 -4 -115 -2 -170 3 -72 7 -120 7 -175 -2 -61 -10 -104 -9 -229 3
-85 9 -157 13 -161 11 -4 -3 -57 -10 -116 -16 -60 -6 -127 -13 -149 -15 -22
-3 -112 -4 -200 -3 -253 2 -271 2 -442 -12 -145 -11 -179 -11 -318 5 -122 14
-261 19 -667 22 -458 3 -538 6 -748 28 -263 27 -486 38 -543 27z m328 -125
c74 -5 75 -5 155 -18 36 -6 92 -10 125 -9 33 1 107 -5 164 -13 58 -8 108 -13
112 -11 9 6 93 5 239 -2 63 -3 140 -5 170 -5 170 3 574 1 611 -4 153 -18 262
-20 469 -8 63 4 178 6 255 5 77 -1 158 -3 180 -3 57 0 163 11 208 23 48 13
246 19 274 8 29 -11 153 -11 448 -3 280 9 291 9 538 2 104 -3 193 -10 198 -15
30 -30 38 -336 22 -903 -13 -481 -7 -1035 14 -1230 4 -36 7 -76 6 -90 0 -14
-1 -43 0 -65 2 -353 -3 -797 -10 -820 l-9 -30 -150 0 c-82 0 -154 -4 -161 -8
-6 -4 -110 -9 -230 -12 -245 -6 -333 -10 -548 -29 -157 -13 -697 -14 -810 0
-68 8 -255 7 -390 -2 -49 -3 -196 -9 -325 -14 -129 -5 -314 -14 -410 -20 -115
-8 -252 -9 -400 -4 -124 4 -263 8 -310 9 -47 0 -126 6 -177 13 -50 7 -169 12
-262 11 -94 0 -175 2 -180 5 -5 3 -29 7 -54 7 l-45 2 4 111 c2 61 6 230 8 374
4 254 5 265 25 279 28 19 27 59 -3 86 l-24 22 -8 570 c-9 542 -9 1076 0 1195
2 30 9 120 16 200 11 135 9 310 -6 372 -5 23 -3 27 22 31 28 5 127 2 249 -7z
m4569 -2411 c99 -3 162 -1 188 7 25 7 42 8 48 2 19 -19 30 -122 36 -325 3
-112 8 -264 11 -336 3 -73 1 -133 -4 -133 -4 0 -24 4 -43 10 -38 11 -272 23
-360 19 -65 -3 -160 0 -169 5 -4 3 -3 51 1 108 4 57 9 222 10 368 l3 265 50
11 c27 6 57 10 65 8 8 -2 82 -6 164 -9z m-4933 -175 c3 -36 3 -141 0 -235 -5
-173 -5 -217 -2 -270 1 -16 2 -54 2 -82 l0 -53 -103 -1 c-113 -2 -122 -3 -283
-18 -61 -5 -117 -12 -125 -16 -12 -4 -15 4 -16 32 -1 21 -7 139 -14 263 -7
124 -13 261 -14 305 l-1 80 70 3 c39 1 124 11 190 22 315 51 288 53 296 -30z"/>
<path d="M11635 8900 c-16 -16 -40 -20 -128 -26 -85 -6 -113 -11 -133 -27 -60
-47 6 -98 124 -96 40 1 75 5 78 10 4 7 62 2 72 -6 8 -7 12 -422 4 -434 -8 -12
-22 -11 -91 3 -114 23 -137 21 -157 -9 -16 -25 -16 -27 10 -54 36 -37 106 -52
253 -53 83 -1 131 4 163 15 25 8 73 23 107 32 43 12 64 23 68 36 12 37 8 38
-228 26 l-38 -2 -4 217 c-2 120 -6 222 -10 228 -4 6 23 10 79 10 47 0 88 -5
91 -10 10 -16 25 -1 25 24 0 47 -64 86 -164 101 -26 4 -50 14 -53 21 -8 20
-45 17 -68 -6z"/>
<path d="M13143 8687 c0 -57 -3 -109 -7 -115 -4 -7 -35 -12 -80 -12 -76 0 -96
-9 -96 -45 0 -28 57 -55 115 -55 25 0 45 -3 45 -7 0 -5 -9 -50 -21 -100 -12
-51 -19 -98 -16 -105 2 -7 19 -21 36 -31 l31 -18 15 35 c9 20 18 64 22 99 7
79 26 115 61 122 15 4 35 10 44 16 10 5 29 9 43 9 17 0 28 7 34 22 7 21 3 25
-38 41 -25 10 -59 16 -74 14 -15 -2 -31 1 -34 6 -4 6 -8 50 -9 99 -4 115 -8
128 -44 128 l-28 0 1 -103z"/>
<path d="M12730 8659 c-25 -5 -63 -21 -85 -37 -34 -24 -40 -33 -38 -60 2 -41
29 -84 93 -147 28 -27 49 -53 47 -58 -6 -20 -130 -87 -151 -82 -12 3 -30 -2
-40 -10 -19 -14 -19 -15 6 -40 22 -22 31 -24 78 -19 101 10 179 71 187 147 5
43 4 44 -56 97 -34 29 -59 55 -56 58 3 3 0 11 -6 19 -9 10 -4 16 24 28 20 8
49 15 64 15 38 0 73 26 73 54 0 45 -38 55 -140 35z"/>
<path d="M12188 8572 c-27 -3 -88 -62 -88 -85 0 -7 -7 -3 -16 8 -11 15 -18 17
-31 9 -32 -20 -39 -41 -19 -63 11 -12 16 -21 12 -21 -3 0 1 -16 9 -36 8 -20
15 -50 14 -68 -2 -83 7 -126 29 -148 l23 -23 20 24 c16 20 19 38 18 105 -1 76
12 158 33 199 10 20 47 23 69 5 14 -12 41 -48 64 -88 6 -10 17 -25 24 -34 16
-19 32 -76 37 -135 4 -47 15 -61 50 -61 17 0 23 8 28 35 4 19 2 43 -4 54 -5
11 -10 31 -10 45 0 14 -4 28 -10 31 -5 3 -10 15 -10 26 0 12 -16 40 -35 63
-19 24 -35 48 -35 55 0 6 -4 11 -10 11 -5 0 -10 5 -10 12 0 8 -57 68 -64 68
-1 0 -15 3 -31 8 -17 4 -42 6 -57 4z"/>
<path d="M14849 8536 c-60 -21 -128 -85 -143 -133 -4 -11 -13 -27 -21 -33 -8
-7 -15 -20 -15 -29 0 -16 -58 -64 -132 -109 -36 -22 -37 -22 -74 -5 -30 15
-38 24 -41 53 -5 47 48 124 99 144 41 17 68 50 68 84 0 22 -3 23 -40 17 -58
-10 -95 -31 -133 -75 -94 -110 -107 -237 -30 -296 28 -21 46 -27 83 -26 48 1
120 24 120 39 0 4 16 21 35 36 l35 28 10 -23 c13 -33 44 -66 71 -78 13 -5 36
-20 51 -32 22 -17 30 -19 42 -9 11 9 15 9 18 -1 6 -16 165 -25 180 -10 6 6 23
8 38 6 37 -8 87 34 75 62 -5 10 -9 22 -9 26 -2 17 -16 18 -43 5 -17 -9 -50
-14 -83 -12 -30 1 -80 3 -110 4 -50 1 -59 5 -102 46 -27 24 -48 48 -48 53 0 5
13 7 30 4 41 -6 132 17 153 39 10 11 29 19 43 19 90 0 81 159 -11 203 -42 20
-67 21 -116 3z m99 -98 c33 -33 5 -53 -90 -63 -80 -9 -88 3 -36 47 36 30 104
38 126 16z"/>
<path d="M13700 8518 c-8 -4 -50 -24 -93 -44 -126 -57 -197 -137 -197 -224 0
-28 7 -43 33 -67 42 -39 56 -43 107 -32 57 13 103 52 153 127 46 72 49 71 89
-20 22 -48 67 -85 75 -60 7 19 32 14 61 -13 33 -31 38 -31 56 -2 10 15 15 45
14 90 -2 121 46 182 99 125 44 -49 57 -89 56 -175 -1 -68 2 -84 18 -99 18 -16
20 -16 38 0 10 9 21 35 25 56 9 55 -11 176 -37 229 -25 51 -87 107 -129 116
-27 6 -36 1 -80 -41 -29 -29 -56 -48 -67 -46 -30 5 -47 -50 -34 -112 6 -28 9
-53 7 -55 -9 -9 -33 23 -49 67 -10 26 -26 59 -36 74 -11 14 -19 33 -19 41 0
20 -36 64 -57 69 -10 3 -25 1 -33 -4z m0 -113 c0 -9 -7 -18 -15 -21 -8 -4 -15
-11 -15 -17 0 -24 -57 -91 -100 -118 -50 -31 -70 -25 -70 21 0 31 13 43 115
110 65 43 85 49 85 25z"/>
<path d="M15739 6834 c-35 -18 -39 -31 -30 -98 4 -31 5 -59 1 -61 -12 -7 -19
-102 -11 -133 7 -23 5 -31 -10 -40 -26 -17 -24 -51 4 -61 12 -5 67 -6 122 -4
55 3 114 4 130 3 78 -6 133 4 153 28 25 32 5 280 -28 341 -9 18 -17 21 -41 16
-16 -4 -57 0 -92 9 -75 19 -163 19 -198 0z m273 -92 c9 -9 13 -48 14 -122 l1
-108 -38 -4 c-22 -2 -71 2 -111 9 -39 6 -74 11 -77 11 -21 -2 -26 7 -23 46 3
38 6 43 24 38 12 -3 26 -18 32 -34 7 -19 17 -28 33 -28 28 0 29 10 3 59 -10
21 -17 41 -14 44 9 9 54 -15 54 -28 0 -16 49 -57 60 -50 17 11 11 34 -14 50
-15 10 -22 22 -19 34 3 12 -4 25 -18 34 -12 9 -23 27 -25 41 -2 24 -1 25 51
23 30 -1 60 -8 67 -15z"/>
<path d="M16023 6403 c-3 -10 -12 -25 -20 -34 -12 -15 -11 -20 10 -43 30 -32
51 -33 71 -4 21 30 20 50 -4 76 -25 26 -48 28 -57 5z"/>
<path d="M10815 6697 c-14 -10 -51 -14 -123 -14 l-103 0 -37 -37 c-29 -29 -34
-38 -23 -45 8 -5 11 -16 8 -24 -3 -8 -2 -40 2 -71 l8 -56 -34 -12 c-31 -11
-34 -16 -29 -42 3 -15 6 -32 6 -37 0 -5 11 -9 24 -9 37 0 38 -13 5 -44 -33
-32 -35 -39 -14 -56 8 -7 15 -19 15 -26 0 -8 3 -14 7 -14 14 0 78 25 84 34 8
10 0 46 -13 63 -15 19 7 24 58 12 87 -19 137 -22 193 -8 84 19 84 19 75 123
-8 109 -8 98 0 164 9 67 2 88 -32 95 -15 3 -34 8 -42 11 -8 4 -24 0 -35 -7z
m31 -123 c-3 -9 -6 -25 -6 -37 0 -21 -1 -21 -20 3 -24 31 -25 37 -2 43 31 8
34 7 28 -9z m-103 -29 c15 -14 27 -31 27 -38 0 -7 16 -27 35 -46 37 -36 37
-51 1 -51 -16 0 -32 13 -52 43 -15 23 -35 51 -45 62 -44 54 -18 77 34 30z
m-116 1 c-6 -14 41 -66 59 -66 5 0 14 -16 20 -36 l12 -36 -46 6 c-25 3 -47 7
-48 9 -7 7 -15 118 -9 127 9 15 18 12 12 -4z"/>
<path d="M7080 8921 c-14 -5 -46 -18 -72 -30 -26 -11 -51 -21 -57 -21 -5 0
-31 -17 -58 -38 -26 -21 -119 -72 -205 -115 -87 -42 -158 -81 -158 -86 0 -6
-5 -11 -11 -11 -21 0 -164 -106 -267 -198 -57 -51 -132 -111 -166 -133 -33
-23 -86 -67 -116 -98 -30 -31 -82 -78 -115 -103 -33 -25 -78 -66 -100 -90 -22
-23 -84 -83 -138 -131 -97 -89 -108 -107 -87 -148 8 -14 21 -19 50 -19 32 0
49 9 106 58 38 31 82 72 99 91 16 18 64 61 105 95 41 33 110 93 153 133 43 40
103 92 135 115 65 49 145 115 201 167 92 85 236 183 352 239 48 23 92 49 99
57 7 8 21 15 31 15 10 0 26 8 36 19 10 10 33 23 50 29 18 6 49 24 69 39 20 15
66 37 103 48 50 16 69 27 81 48 14 27 14 29 -13 53 -28 24 -61 29 -107 15z"/>
<path d="M10746 8511 c-4 -6 -15 -11 -25 -11 -10 0 -24 -7 -31 -15 -7 -8 -16
-13 -20 -10 -4 3 -19 -6 -33 -19 -26 -24 -50 -35 -90 -41 -26 -4 -136 -49
-181 -74 -125 -70 -373 -187 -426 -201 -25 -6 -63 -20 -85 -30 -45 -21 -129
-45 -223 -65 -101 -20 -128 -62 -77 -118 23 -24 31 -26 68 -21 23 4 47 10 52
14 6 5 37 16 70 25 33 9 85 24 115 34 30 10 96 31 145 47 50 15 109 40 132 56
22 15 74 43 115 61 40 19 79 41 87 50 7 10 20 17 28 17 16 0 221 106 244 126
8 8 22 14 31 14 18 0 128 113 128 132 0 22 -17 42 -24 29z"/>
<path d="M8308 8455 c-10 -13 -18 -37 -18 -54 0 -37 -18 -78 -46 -106 -11 -11
-26 -30 -32 -40 -10 -18 -18 -13 -97 68 -48 48 -95 87 -105 87 -31 0 -53 -48
-55 -119 -1 -41 -6 -66 -13 -69 -7 -2 -36 14 -65 36 -29 22 -67 47 -86 57 -34
17 -35 17 -52 -6 -21 -28 -25 -111 -8 -173 14 -51 0 -68 -39 -44 -89 56 -140
77 -168 69 -38 -10 -47 -47 -27 -119 9 -31 17 -79 19 -105 3 -45 2 -49 -27
-65 -17 -9 -60 -39 -95 -66 -41 -31 -69 -46 -80 -42 -22 8 -44 -11 -44 -39 0
-24 49 -74 99 -99 29 -16 64 -43 111 -86 25 -24 27 -31 29 -119 1 -77 -2 -102
-19 -137 l-21 -43 20 -20 c28 -28 45 -26 103 9 33 20 61 30 89 30 l40 0 -2
-76 c-2 -82 2 -89 61 -106 23 -7 73 13 140 55 32 19 47 2 56 -65 4 -35 8 -77
9 -94 1 -73 63 -80 154 -17 31 22 61 43 68 46 7 5 23 -16 44 -58 21 -44 45
-75 72 -95 23 -17 45 -30 49 -30 10 0 57 51 58 62 0 6 66 125 76 137 2 3 72
-46 84 -59 15 -17 80 -50 98 -50 11 0 28 -7 36 -15 12 -13 20 -14 37 -5 18 10
20 19 17 70 -1 32 0 61 4 65 8 8 171 -72 180 -90 4 -7 21 -18 38 -25 27 -11
33 -10 51 6 14 13 18 25 14 43 -4 14 -8 46 -10 71 -2 25 -6 52 -9 60 -5 13 10
15 104 14 158 0 171 14 130 135 -11 32 -22 77 -26 99 -6 39 -5 43 26 59 57 31
137 103 150 132 10 24 9 35 -6 62 -10 19 -17 38 -16 43 5 15 -29 45 -58 51
-22 5 -111 62 -137 88 -2 2 1 16 6 30 5 13 17 77 27 141 15 110 15 120 -1 161
-9 25 -21 47 -26 51 -5 3 -30 -6 -57 -20 -37 -19 -105 -46 -117 -46 -1 0 -5
29 -9 64 -8 81 -33 166 -51 172 -13 6 -59 -26 -128 -88 -40 -37 -54 -35 -62
10 -16 98 -83 167 -123 128 -38 -35 -81 -66 -93 -66 -8 0 -31 -16 -52 -36 -21
-20 -40 -35 -41 -33 -2 2 -28 49 -57 104 -75 144 -88 156 -121 110z m110 -242
c17 -24 32 -47 32 -51 0 -4 12 -14 28 -23 26 -15 29 -15 77 19 28 20 66 50 85
69 20 18 41 33 46 33 17 0 34 -48 41 -114 7 -74 33 -112 67 -94 11 5 47 36 79
67 56 54 59 55 73 37 21 -29 17 -63 -11 -88 -72 -62 29 -112 145 -72 25 9 51
20 58 26 7 6 14 9 16 7 21 -20 1 -178 -22 -186 -9 -4 -30 -15 -45 -26 -27 -19
-28 -20 -11 -46 23 -35 59 -68 83 -76 11 -3 34 -19 52 -36 17 -16 43 -32 58
-35 37 -8 76 -31 76 -45 0 -7 -22 -25 -50 -40 -41 -23 -85 -63 -124 -114 -18
-24 -21 -84 -6 -127 21 -61 19 -78 -7 -79 -13 0 -66 -1 -118 -2 l-95 -2 -3
-38 c-2 -21 1 -59 7 -85 5 -26 8 -49 5 -51 -2 -3 -25 10 -50 27 -48 35 -156
82 -185 82 -25 0 -39 -30 -39 -84 0 -25 -4 -46 -8 -46 -5 0 -28 14 -50 30 -23
17 -45 30 -49 30 -5 0 -19 16 -32 35 -13 19 -29 35 -36 35 -25 0 -86 -66 -111
-120 -14 -30 -46 -70 -55 -70 -5 0 -21 26 -35 58 -50 110 -48 107 -78 104 -15
-2 -51 -18 -81 -37 -30 -19 -60 -35 -68 -35 -9 0 -17 27 -26 93 -8 65 -17 98
-31 111 -18 19 -20 19 -82 -4 -35 -13 -76 -32 -91 -43 -16 -10 -31 -17 -34
-13 -3 3 -7 41 -8 83 -3 107 -10 126 -43 118 -14 -3 -39 -16 -55 -27 -32 -23
-111 -36 -121 -20 -11 18 12 143 29 162 32 36 -10 88 -108 135 -68 31 -84 49
-67 70 6 8 22 17 33 21 40 12 103 73 113 106 5 18 6 71 3 118 -3 47 -5 87 -3
89 4 5 83 -37 123 -65 19 -14 42 -23 50 -22 27 5 51 71 58 157 3 44 9 81 13
81 4 0 15 -10 26 -21 26 -29 114 -99 124 -99 21 0 60 88 60 133 0 26 4 47 9
47 6 0 34 -29 63 -64 87 -104 129 -97 200 32 l42 75 15 -24 c9 -13 31 -43 49
-66z"/>
<path d="M7891 7875 c-4 -5 -7 -61 -6 -124 1 -99 4 -115 20 -127 10 -8 26 -14
34 -14 21 0 111 -32 111 -39 0 -4 -13 -15 -28 -26 -19 -14 -45 -20 -87 -22
-47 -1 -63 -6 -77 -23 -21 -26 -16 -39 26 -68 31 -21 38 -22 78 -12 23 7 52
14 63 16 11 2 38 16 60 32 34 24 40 34 43 69 2 24 -4 55 -13 72 -15 31 -80 75
-125 86 -21 5 -25 12 -25 43 l0 37 75 5 c41 3 81 9 88 13 17 11 15 43 -3 71
-15 23 -21 24 -121 23 -59 -1 -109 -6 -113 -12z"/>
<path d="M8570 7861 c-23 -4 -39 -15 -50 -33 -14 -27 -14 -29 12 -53 25 -23
35 -25 122 -25 52 0 97 -4 101 -9 12 -21 -19 -58 -73 -86 -96 -50 -94 -118 3
-113 37 1 115 -18 115 -28 0 -18 -24 -44 -39 -44 -10 0 -36 -7 -56 -16 -21 -8
-47 -13 -59 -10 -27 7 -56 -20 -56 -54 0 -21 8 -30 40 -44 64 -28 148 1 214
75 34 37 38 46 34 84 -4 33 -14 50 -42 76 l-37 34 26 47 c23 41 25 53 18 90
-13 65 -56 87 -218 113 -11 1 -36 0 -55 -4z"/>
<path d="M8290 7843 c-71 -27 -130 -174 -111 -278 12 -66 34 -110 64 -130 30
-19 165 -47 190 -39 11 4 37 22 56 41 36 34 36 36 35 112 -1 49 -8 89 -18 109
-9 17 -16 39 -16 49 0 28 -89 110 -139 128 -24 8 -44 15 -45 14 0 0 -8 -3 -16
-6z m83 -136 c54 -23 60 -37 52 -126 -4 -44 -13 -87 -19 -97 -11 -15 -16 -13
-51 17 -21 19 -40 33 -42 32 -12 -10 -22 1 -28 29 -4 18 -12 40 -18 49 -17 27
4 92 33 100 37 10 38 10 73 -4z"/>
<path d="M21715 8210 c-115 -14 -177 -31 -203 -57 l-26 -26 30 -26 c25 -23 29
-34 31 -86 4 -102 2 -279 -3 -297 -3 -10 3 -21 15 -27 45 -25 67 14 71 124 1
38 6 75 11 82 6 6 36 15 67 18 31 3 67 10 80 15 55 23 1 69 -90 77 -65 6 -63
5 -72 49 -7 32 -7 32 61 54 99 33 123 49 123 82 0 31 4 30 -95 18z"/>
<path d="M22140 8090 c0 -11 -4 -20 -10 -20 -14 0 -12 -19 3 -34 51 -51 88
-33 68 34 -10 33 -16 40 -36 40 -18 0 -25 -5 -25 -20z"/>
<path d="M21952 7970 c-23 -16 -46 -30 -51 -30 -18 0 -31 -66 -26 -130 6 -70
25 -110 53 -110 25 0 38 27 52 110 14 85 41 120 91 120 32 0 34 6 19 44 -14
39 -82 37 -138 -4z"/>
<path d="M22499 7962 c-70 -52 -152 -159 -162 -210 -6 -29 -3 -34 32 -58 37
-24 40 -25 76 -10 20 9 52 32 70 52 l33 35 19 -28 c19 -27 45 -129 57 -219 5
-36 3 -42 -18 -53 -24 -13 -61 -10 -122 11 -37 13 -88 -3 -99 -29 -13 -35 79
-93 124 -78 11 3 38 1 59 -5 41 -11 54 -7 115 34 24 16 27 24 27 73 0 30 -6
78 -14 106 -8 29 -24 95 -36 147 -25 115 -68 242 -84 252 -20 13 -40 8 -77
-20z"/>
<path d="M22169 7889 c-6 -12 -11 -56 -10 -98 1 -64 4 -79 22 -93 17 -14 24
-15 40 -5 11 7 22 23 26 36 8 33 -4 151 -18 167 -17 21 -47 17 -60 -7z"/>
<path d="M22797 7704 c-3 -3 -3 -12 -1 -18 3 -7 -2 -19 -11 -26 -20 -17 -19
-25 7 -55 26 -30 39 -31 61 -7 20 22 22 70 3 95 -13 16 -47 23 -59 11z"/>
<path d="M21383 7467 c-12 -18 -39 -58 -60 -90 -21 -32 -57 -86 -80 -120 -24
-34 -50 -76 -60 -94 -16 -31 -16 -33 8 -52 13 -12 31 -20 39 -18 14 2 111 132
129 174 6 11 14 24 20 27 5 4 26 39 47 80 28 54 35 79 30 99 -9 38 -45 35 -73
-6z"/>
<path d="M1496 7433 c-3 -3 -43 -7 -88 -8 -120 -5 -253 -23 -328 -45 -36 -10
-90 -22 -120 -25 -74 -8 -106 -32 -102 -76 12 -115 1 -809 -13 -842 -11 -26
-11 -141 -2 -432 5 -143 10 -370 11 -505 3 -233 12 -357 38 -480 6 -30 12 -68
13 -85 2 -16 6 -42 10 -56 7 -28 8 -112 7 -414 -1 -240 10 -515 26 -652 1 -7
8 -13 16 -13 8 0 16 -5 18 -11 2 -7 43 -11 111 -11 59 0 124 -4 144 -8 41 -8
130 -20 343 -46 145 -18 364 -21 595 -8 139 8 224 9 675 5 181 -2 250 1 300
13 36 8 133 17 215 21 83 3 198 8 256 10 58 3 112 6 120 9 8 2 70 7 139 11
649 31 655 31 708 51 24 9 53 13 66 10 13 -3 62 1 108 9 116 20 527 24 688 6
69 -7 141 -14 160 -16 19 -1 40 -3 45 -5 22 -7 67 14 74 34 4 11 9 93 10 181
2 138 -4 232 -24 430 -6 65 -15 206 -25 435 -17 383 -20 434 -30 520 -5 47 -9
92 -9 100 1 21 -16 278 -31 490 -5 74 -12 173 -16 220 -12 174 -15 206 -24
255 -5 28 -12 84 -15 125 -17 240 -33 429 -38 437 -3 5 -8 40 -11 79 -3 38
-12 100 -21 139 -9 38 -17 81 -18 95 -2 24 -5 25 -102 32 -84 5 -773 11 -885
7 -150 -5 -473 -20 -555 -26 -55 -3 -116 -6 -135 -6 -179 3 -283 2 -289 -2
-32 -19 -929 -24 -1016 -5 -188 40 -400 58 -514 42 -48 -7 -114 -8 -190 -2
-175 13 -289 18 -295 13z m429 -128 c298 -4 329 -6 450 -30 90 -19 171 -28
265 -31 74 -2 183 -5 241 -8 60 -3 169 1 250 10 79 8 288 17 464 19 176 3 336
7 355 10 73 10 722 39 785 35 64 -4 104 -4 388 -1 147 2 270 1 273 -1 2 -3 7
-16 9 -28 2 -13 10 -38 16 -57 6 -19 9 -49 6 -66 -2 -18 1 -54 8 -82 15 -57
27 -202 25 -290 -1 -32 4 -98 9 -145 28 -223 45 -381 48 -445 1 -38 7 -144 13
-235 6 -91 13 -203 16 -250 2 -47 8 -132 14 -190 5 -58 16 -262 24 -455 17
-408 25 -548 33 -590 5 -29 13 -139 28 -396 5 -72 4 -128 -1 -131 -8 -5 -127
6 -339 32 -49 6 -152 10 -230 10 -136 -2 -185 -6 -370 -35 -111 -18 -337 -35
-510 -40 -161 -4 -501 -22 -655 -35 -63 -6 -221 -19 -350 -31 -193 -17 -273
-20 -450 -14 -245 8 -459 7 -473 -2 -12 -8 -210 -16 -392 -16 -129 0 -434 25
-454 38 -12 7 -92 15 -211 20 -150 7 -178 12 -184 33 -9 34 -19 303 -21 612
-1 173 -5 333 -9 355 -47 289 -57 411 -61 790 -1 143 -5 312 -8 375 -9 179 -9
253 3 570 5 162 12 367 15 455 5 171 10 184 59 186 36 1 69 7 141 24 39 10 95
20 125 22 30 3 71 9 90 13 19 5 82 6 140 4 58 -3 249 -7 425 -9z"/>
<path d="M4294 6925 c-4 -8 -3 -30 0 -48 3 -17 11 -68 16 -112 6 -44 17 -98
26 -120 9 -22 18 -69 20 -103 2 -35 7 -69 11 -75 5 -7 8 -56 8 -110 0 -104 6
-117 52 -117 23 0 32 21 48 111 4 20 15 51 26 68 34 56 67 38 146 -74 12 -17
33 -77 47 -135 26 -106 36 -122 71 -118 17 3 20 9 17 53 -5 81 -29 160 -74
246 -44 85 -113 158 -152 161 -39 2 -68 -3 -91 -18 -22 -14 -23 -13 -34 18
-15 41 -50 212 -61 296 -4 34 -14 69 -20 77 -16 19 -49 19 -56 0z"/>
<path d="M3479 6891 l-23 -19 17 -108 c9 -60 21 -152 27 -204 5 -52 14 -111
20 -130 6 -19 15 -78 20 -130 16 -154 23 -170 73 -154 22 7 23 -4 -13 294 -11
96 -27 237 -34 314 -13 135 -20 155 -52 156 -7 0 -22 -8 -35 -19z"/>
<path d="M4026 6891 c-3 -5 -3 -39 0 -77 13 -168 8 -192 -41 -195 -55 -4 -80
-16 -94 -45 -6 -15 -10 -28 -9 -29 28 -24 86 -40 161 -44 4 -1 7 -7 6 -13 -1
-7 -1 -63 0 -123 l1 -111 31 -18 c28 -17 32 -17 47 -3 12 13 15 40 14 147 l-2
131 28 10 c16 7 56 8 100 5 75 -7 82 -3 62 34 -9 16 -70 46 -110 54 -73 14
-90 20 -94 35 -3 9 -13 54 -22 100 -9 47 -23 100 -30 118 -14 31 -37 43 -48
24z"/>
<path d="M1597 6823 c-8 -10 -29 -61 -46 -113 -18 -52 -39 -106 -48 -120 -19
-31 -64 -80 -73 -80 -9 0 -82 115 -104 165 -28 62 -77 135 -90 135 -24 0 -49
-66 -42 -112 15 -112 16 -136 7 -160 -7 -20 -7 -29 3 -37 10 -8 11 -23 5 -54
-4 -23 -11 -91 -14 -152 -3 -60 -8 -135 -10 -166 -3 -52 -2 -57 21 -67 49 -23
56 17 69 367 2 57 8 108 13 113 15 15 36 -1 60 -46 52 -98 92 -110 160 -48 23
21 42 45 42 54 0 8 9 27 20 41 11 14 27 42 36 63 21 50 33 34 38 -51 2 -39 11
-101 19 -140 8 -38 18 -119 22 -180 7 -121 21 -158 58 -153 17 2 23 12 28 43
7 39 -12 228 -31 313 -6 23 -10 61 -10 85 0 107 -67 316 -101 317 -9 0 -23 -8
-32 -17z"/>
<path d="M3670 6742 c-19 -16 -21 -22 -11 -40 14 -26 50 -47 60 -35 4 4 14 23
21 41 11 29 11 35 -1 43 -22 14 -45 11 -69 -9z"/>
<path d="M2050 6531 c-83 -60 -103 -96 -108 -196 -5 -98 9 -152 44 -165 13 -5
24 -14 24 -20 0 -5 20 -10 45 -10 29 0 56 -7 73 -19 15 -11 44 -22 66 -26 55
-9 149 27 178 69 12 17 26 34 31 37 18 12 28 101 16 139 -37 112 -151 212
-256 225 -56 6 -60 5 -113 -34z m188 -73 c14 -7 43 -35 64 -63 64 -85 46 -162
-47 -201 -62 -26 -98 -19 -139 26 -20 22 -36 45 -36 52 0 7 -12 24 -26 39 -31
32 -28 61 11 107 49 59 106 72 173 40z"/>
<path d="M2565 6522 c-17 -11 -43 -45 -62 -80 -26 -52 -31 -71 -29 -121 1 -33
7 -66 13 -73 6 -7 13 -24 15 -38 3 -26 51 -60 65 -46 4 4 8 56 8 114 1 130 15
168 60 165 64 -4 145 -145 145 -252 0 -46 3 -53 26 -61 37 -14 40 -13 55 21
16 41 -1 133 -38 199 -15 25 -34 61 -44 80 -20 41 -98 95 -149 104 -25 5 -43
1 -65 -12z"/>
<path d="M3053 6472 c-49 -27 -90 -85 -98 -141 -10 -74 7 -101 105 -166 l85
-57 62 5 c116 11 173 66 173 168 0 53 -2 58 -55 117 -46 50 -65 64 -109 76
-69 20 -123 20 -163 -2z m168 -78 c33 -17 79 -70 79 -92 0 -61 -93 -121 -164
-108 -28 5 -41 16 -61 50 -70 119 21 213 146 150z"/>
<path d="M3774 6448 c-11 -5 -25 -21 -30 -36 -15 -40 -17 -134 -4 -182 10 -38
13 -41 43 -38 l32 3 1 81 c1 45 4 89 7 98 9 22 -2 74 -17 79 -6 2 -20 0 -32
-5z"/>
<path d="M7065 7343 c-60 -30 -141 -76 -180 -101 -38 -26 -79 -52 -90 -59 -32
-20 -125 -63 -136 -63 -6 0 -25 -6 -42 -13 -56 -23 -221 -77 -237 -77 -9 0
-41 50 -80 126 -35 69 -70 130 -77 136 -19 16 -51 -4 -88 -54 -84 -114 -110
-161 -119 -212 -3 -15 -19 -44 -36 -64 -44 -52 -115 -153 -125 -177 -19 -49
-17 -90 5 -110 21 -19 40 -20 303 -23 162 -2 286 -7 291 -12 18 -18 44 -10 65
19 26 37 26 59 1 86 -24 26 -91 156 -85 165 4 7 45 20 215 72 36 11 83 27 105
36 44 18 190 104 214 126 14 12 238 130 265 139 15 5 13 80 -3 99 -24 27 -47
22 -166 -39z"/>
<path d="M17036 7051 c-4 -6 -23 -11 -42 -11 -20 0 -64 -15 -104 -35 -147 -74
-223 -191 -256 -394 -9 -54 -13 -114 -9 -136 4 -22 9 -56 11 -75 8 -68 26
-145 41 -173 20 -40 54 -77 70 -77 8 0 16 -6 19 -14 6 -16 99 -68 107 -60 3 4
30 -3 59 -14 29 -11 100 -26 158 -32 89 -10 117 -9 175 4 110 25 146 38 202
73 80 50 122 99 161 182 29 62 36 91 40 161 8 156 -16 243 -92 322 -12 13 -33
41 -47 63 -53 82 -130 151 -194 174 -33 12 -69 26 -80 33 -27 16 -210 24 -219
9z m292 -154 c53 -20 109 -75 142 -141 8 -16 28 -43 45 -60 44 -46 65 -109 65
-194 0 -88 -16 -158 -44 -194 -12 -15 -29 -38 -39 -52 -29 -41 -105 -80 -172
-87 -33 -4 -93 -12 -133 -19 -63 -10 -77 -9 -97 4 -17 11 -37 14 -67 10 -66
-9 -157 12 -198 45 -54 43 -75 82 -95 173 -39 180 -2 360 92 449 53 51 83 69
113 69 14 0 39 7 55 16 17 8 60 17 98 18 37 2 70 6 73 8 6 7 84 -15 162 -45z"/>
<path d="M18230 7034 c-181 -69 -200 -87 -310 -299 l-63 -120 6 -87 c7 -109
28 -158 108 -250 62 -73 131 -116 208 -131 18 -4 41 -17 51 -30 10 -13 38 -29
62 -36 24 -7 57 -21 74 -32 41 -25 84 -24 128 2 20 11 59 27 87 34 28 8 58 20
68 28 9 8 34 24 56 35 61 31 126 107 180 212 28 53 29 59 27 194 -1 154 -14
214 -65 314 -66 131 -200 189 -442 190 -93 0 -120 -3 -175 -24z m374 -126 c33
-6 78 -24 105 -42 40 -27 50 -41 78 -113 29 -73 32 -92 33 -195 1 -98 -2 -119
-21 -158 -37 -77 -129 -167 -189 -185 -14 -4 -60 -21 -103 -38 l-78 -30 -57
26 c-31 14 -88 35 -125 46 -124 38 -193 83 -232 152 -44 75 -55 107 -55 163 0
50 7 72 47 152 25 51 59 107 74 123 15 17 29 34 31 38 7 17 116 63 149 63 19
0 41 5 49 11 18 12 206 4 294 -13z"/>
<path d="M19560 7010 c-108 -19 -231 -78 -320 -152 -32 -27 -77 -143 -100
-255 -15 -74 -6 -124 48 -256 31 -77 43 -95 94 -139 54 -47 136 -87 181 -88 9
0 25 -8 36 -19 10 -10 39 -21 64 -25 26 -4 49 -11 52 -16 10 -16 122 -22 162
-9 120 40 240 123 287 198 53 85 66 137 66 256 0 125 -7 151 -72 282 -44 87
-95 147 -169 198 -41 29 -47 30 -163 32 -67 1 -141 -2 -166 -7z m247 -116 c37
-5 54 -12 58 -24 3 -9 17 -23 31 -30 29 -16 81 -99 114 -183 18 -46 23 -79 24
-155 0 -85 -3 -103 -26 -148 -38 -76 -89 -121 -182 -161 -78 -33 -84 -34 -161
-28 -60 6 -83 12 -92 25 -7 10 -25 21 -41 24 -143 27 -141 27 -183 69 -40 41
-82 120 -109 205 -11 35 -11 54 0 115 7 39 17 81 21 93 14 38 94 112 159 145
89 46 254 69 387 53z"/>
<path d="M20785 7009 c-111 -22 -279 -105 -337 -166 -33 -34 -101 -180 -118
-250 -13 -56 -1 -169 25 -244 8 -22 12 -39 10 -39 -8 0 19 -66 38 -92 11 -15
33 -32 48 -38 16 -7 27 -15 26 -19 -1 -4 16 -22 37 -41 l39 -35 181 -1 c136
-2 189 1 215 12 18 8 49 14 68 14 29 0 45 10 102 68 71 72 83 92 112 190 28
99 33 203 15 311 -21 118 -34 146 -102 213 -108 105 -226 144 -359 117z m152
-129 c97 -17 148 -57 193 -155 26 -55 28 -67 25 -175 -3 -156 -16 -207 -66
-259 -22 -22 -51 -48 -64 -57 -33 -21 -297 -39 -337 -23 -16 6 -38 9 -50 5
-14 -3 -47 4 -84 20 -66 28 -86 52 -104 125 -6 24 -16 62 -21 84 -14 51 -6
134 20 210 21 63 71 118 136 149 151 72 236 99 280 90 11 -3 43 -9 72 -14z"/>
<path d="M9726 6971 c-19 -20 -21 -57 -5 -67 17 -10 74 -139 94 -211 10 -35
22 -63 26 -63 5 0 9 -8 9 -17 0 -31 16 -46 40 -38 21 7 22 11 16 59 -16 119
-30 166 -77 255 -48 91 -76 112 -103 82z"/>
<path d="M9364 6672 c-6 -4 -14 -17 -18 -29 -4 -13 -15 -23 -26 -23 -22 0 -34
-20 -43 -66 -6 -30 -2 -34 54 -73 33 -23 70 -41 83 -41 35 0 38 -10 11 -42
-14 -16 -25 -33 -25 -38 0 -5 -10 -10 -22 -12 -16 -2 -24 -11 -26 -29 -3 -24
1 -27 34 -34 31 -5 44 -2 78 22 48 33 81 92 72 128 -7 26 -91 87 -139 98 -40
11 -33 29 23 54 51 22 59 37 40 74 -8 14 -21 19 -48 19 -20 0 -42 -4 -48 -8z"/>
<path d="M8580 6600 c-26 -26 -25 -36 5 -76 14 -18 25 -40 25 -49 0 -8 11 -43
25 -77 15 -37 22 -70 19 -85 -4 -16 -1 -28 10 -36 13 -10 17 -32 19 -109 2
-93 3 -97 26 -103 13 -3 28 -2 33 3 5 5 24 6 41 2 42 -9 95 13 107 45 5 14 14
25 19 25 15 0 41 77 41 121 0 87 -51 129 -165 134 -33 2 -63 3 -66 4 -3 1 -16
34 -29 74 -21 67 -66 146 -82 147 -5 0 -17 -9 -28 -20z m280 -310 c8 -5 15
-22 16 -39 2 -35 -37 -77 -84 -90 -31 -9 -32 -8 -32 19 0 16 -5 41 -10 56 -7
18 -7 30 1 40 17 21 84 30 109 14z"/>
<path d="M9718 6587 c-15 -12 -28 -31 -30 -41 -5 -32 -34 -43 -57 -22 -21 19
-21 18 -46 -9 -25 -26 -25 -28 -9 -54 9 -14 26 -33 37 -42 20 -16 19 -17 -31
-125 -47 -102 -92 -223 -92 -248 0 -7 14 -20 30 -30 37 -22 54 -12 70 42 13
43 26 76 46 115 8 16 14 36 14 44 0 20 65 141 91 169 12 13 21 40 24 75 2 30
8 68 14 86 7 25 6 35 -8 47 -22 20 -21 20 -53 -7z"/>
<path d="M9156 6513 c-11 -14 -21 -47 -23 -72 -6 -76 -27 -164 -40 -168 -15
-5 -35 57 -42 132 -5 51 -9 60 -27 63 -30 4 -55 -39 -55 -96 0 -33 10 -70 35
-124 33 -73 37 -78 78 -88 40 -11 44 -10 64 13 13 16 24 46 28 81 8 64 21 71
41 23 18 -43 38 -59 67 -55 27 4 34 44 12 68 -13 16 -46 86 -49 105 -1 6 -5
19 -9 30 -47 126 -50 129 -80 88z"/>
<path d="M7356 6433 c-3 -21 -3 -60 1 -88 16 -146 1 -195 -61 -195 -28 0 -106
-44 -106 -60 0 -3 11 -17 24 -29 21 -20 31 -21 86 -16 35 3 66 8 70 10 10 6
17 -12 25 -69 13 -87 78 -147 105 -97 10 20 6 67 -15 166 -6 28 -4 31 32 43
21 7 48 16 61 19 18 4 21 10 16 27 -10 33 -18 38 -80 42 -32 2 -61 7 -65 11
-4 5 -9 28 -12 53 -5 43 -16 98 -38 183 -5 20 -16 37 -24 37 -8 0 -15 -15 -19
-37z"/>
<path d="M9971 6391 c-22 -31 -27 -51 -12 -51 5 0 11 -9 14 -20 6 -23 53 -37
76 -23 25 16 26 74 1 101 -28 30 -55 28 -79 -7z"/>
<path d="M7702 6208 c-36 -38 -61 -133 -43 -166 6 -11 11 -32 11 -46 0 -35 37
-57 104 -63 64 -6 114 8 156 43 25 21 29 31 25 64 -7 75 -70 149 -151 180 -30
11 -59 20 -64 20 -5 0 -22 -14 -38 -32z m129 -95 c33 -20 39 -56 12 -85 -21
-24 -44 -23 -77 3 -30 23 -33 45 -10 77 18 26 36 28 75 5z"/>
<path d="M8106 6194 c-76 -28 -104 -71 -102 -156 3 -69 20 -86 110 -114 85
-25 129 -24 160 5 25 24 48 92 48 144 1 37 -65 105 -113 117 -19 4 -41 10 -49
13 -8 3 -33 -1 -54 -9z"/>
<path d="M6169 5394 c-15 -19 -14 -157 2 -162 6 -3 4 -14 -6 -28 -8 -13 -17
-45 -20 -71 -13 -145 -19 -184 -26 -189 -17 -10 -9 -51 14 -72 22 -21 24 -21
39 -5 9 10 25 37 37 60 36 73 105 66 132 -14 6 -20 16 -42 21 -47 5 -6 18 -26
28 -43 38 -64 78 -28 60 53 -17 76 -35 107 -89 157 -48 45 -56 49 -92 45 l-41
-4 9 81 c11 107 8 206 -6 233 -14 26 -43 29 -62 6z"/>
<path d="M8048 5202 c-29 -3 -46 -37 -35 -65 13 -34 -42 -229 -79 -285 -13
-19 -24 -47 -24 -62 0 -57 116 -150 188 -150 20 0 40 10 60 29 31 32 42 67 42
137 0 34 -5 47 -26 63 -15 12 -40 21 -55 21 -16 0 -29 5 -29 10 0 6 -6 10 -14
10 -22 0 -26 12 -15 56 14 56 39 196 39 215 0 20 -15 26 -52 21z m65 -386 c13
-10 15 -21 11 -45 -6 -29 -9 -31 -49 -31 -31 0 -47 6 -64 24 l-22 24 28 20
c32 24 70 27 96 8z"/>
<path d="M6620 5004 c-83 -28 -103 -47 -114 -112 -8 -47 14 -93 62 -126 122
-84 259 22 212 165 -20 60 -94 94 -160 73z m81 -90 c10 -6 3 -64 -8 -75 -20
-20 -73 -6 -91 24 -16 28 -16 29 7 48 22 18 64 19 92 3z"/>
<path d="M6850 4993 c-14 -9 -26 -17 -28 -18 -2 -2 9 -28 23 -58 14 -31 25
-69 25 -84 0 -37 18 -60 50 -67 30 -7 46 5 88 63 19 27 32 37 32 27 0 -9 11
-38 25 -64 14 -26 25 -52 25 -59 0 -7 17 -15 37 -19 32 -6 39 -4 60 22 13 16
26 40 30 54 3 14 19 56 35 95 38 93 29 130 -26 109 -9 -3 -16 -15 -16 -27 0
-11 -9 -31 -21 -43 -11 -12 -27 -39 -34 -60 -17 -49 -29 -53 -44 -12 -7 18
-22 52 -33 75 -25 48 -35 47 -90 -5 -37 -35 -58 -36 -58 -3 0 30 -29 91 -43
91 -7 0 -24 -8 -37 -17z"/>
<path d="M7730 4980 c-19 -11 -55 -31 -80 -44 -52 -28 -120 -92 -120 -114 0
-18 37 -81 62 -106 24 -22 86 -16 137 15 18 11 34 19 35 17 1 -2 11 -16 21
-33 11 -16 20 -34 20 -38 0 -11 27 -27 46 -27 18 0 41 30 53 68 6 19 4 22 -17
22 -23 0 -25 4 -32 75 -3 41 -4 78 -1 84 14 22 -7 71 -37 86 -39 19 -45 19
-87 -5z m-21 -156 c-32 -33 -71 -44 -84 -23 -10 15 20 44 69 69 36 18 41 18
44 4 2 -9 -11 -31 -29 -50z"/>
<path d="M10875 4843 c-82 -19 -96 -25 -109 -52 -12 -22 -13 -37 -5 -66 6 -21
9 -45 6 -55 -2 -10 1 -51 8 -91 28 -161 34 -290 21 -454 -5 -60 -8 -119 -7
-130 5 -61 1 -157 -7 -189 -6 -20 -7 -49 -3 -64 5 -15 4 -50 -2 -77 -8 -41
-14 -341 -16 -820 0 -63 12 -202 25 -280 3 -16 5 -115 5 -220 0 -104 4 -226 8
-270 5 -44 7 -94 4 -112 -5 -30 -8 -32 -59 -39 -32 -4 -107 0 -186 10 -73 9
-151 17 -173 17 -302 -1 -287 9 -272 -189 4 -51 12 -113 17 -137 6 -25 14 -64
19 -88 12 -55 18 -449 8 -502 -6 -34 -4 -44 15 -65 20 -22 32 -25 93 -26 39 0
115 -3 170 -7 55 -4 118 -7 140 -6 22 1 51 2 65 2 14 0 58 6 99 14 57 11 81
11 108 2 29 -9 37 -8 54 7 16 14 31 16 100 11 44 -4 99 -2 122 3 163 37 252
41 522 26 86 -6 139 -5 157 3 21 8 36 7 65 -6 28 -12 76 -17 188 -20 136 -2
298 -18 317 -29 4 -3 52 -7 105 -10 54 -3 161 -9 238 -14 83 -5 205 -5 300 0
183 11 191 11 208 9 6 -1 57 2 112 6 115 8 203 12 400 19 155 6 227 13 265 25
78 26 189 36 315 30 11 -1 54 2 95 5 41 3 104 8 139 11 35 3 71 10 81 15 17 9
133 16 155 9 6 -2 42 0 81 4 56 6 81 4 120 -10 42 -15 79 -17 249 -16 110 1
274 5 365 9 91 4 179 6 195 5 250 -13 635 0 671 24 36 23 37 107 3 480 -6 66
-16 194 -23 284 -12 162 -12 165 -39 185 -25 18 -39 20 -145 17 -64 -2 -125
-7 -135 -13 -10 -5 -87 -10 -170 -12 -84 -1 -158 -5 -164 -9 -6 -4 -14 -3 -17
2 -12 19 -26 299 -24 484 1 106 -2 199 -7 207 -9 14 -8 290 1 403 16 205 -3
591 -41 822 -16 95 -2 417 32 738 3 26 0 53 -5 60 -8 9 -56 11 -184 9 -95 -2
-227 -2 -293 -2 -66 1 -142 -4 -170 -10 -64 -14 -176 -31 -195 -31 -8 1 -33 0
-55 -2 -114 -6 -394 2 -414 13 -12 6 -79 16 -149 21 -172 12 -456 42 -522 55
-14 2 -151 6 -305 7 -154 2 -285 6 -291 9 -16 10 -756 1 -864 -11 -75 -8 -111
-7 -180 5 -47 9 -177 20 -290 24 -113 5 -238 14 -277 19 -87 12 -399 17 -431
7 -13 -5 -29 -3 -37 4 -8 6 -23 9 -34 5 -10 -3 -22 -1 -26 5 -6 10 -101 12
-140 3z m330 -117 c61 -3 160 -9 220 -11 61 -3 135 -9 165 -14 30 -5 109 -10
175 -10 66 -1 129 -2 140 -2 11 0 65 -10 120 -21 98 -20 196 -21 365 -3 108
11 1298 -1 1314 -14 6 -5 61 -12 121 -15 61 -3 135 -7 165 -9 30 -1 60 -6 65
-9 6 -4 85 -11 175 -18 91 -6 199 -17 240 -25 125 -23 485 -5 611 30 26 7 95
14 155 14 156 1 387 16 403 25 10 7 12 -3 7 -45 -24 -212 -27 -705 -5 -859 23
-163 28 -375 18 -775 -5 -239 9 -868 21 -900 5 -14 9 -40 9 -58 -2 -30 3 -89
17 -217 3 -30 9 -59 14 -65 6 -9 12 -87 36 -492 l6 -103 -43 -1 c-196 -5 -478
1 -594 12 -187 17 -438 17 -550 0 -49 -8 -112 -15 -140 -17 -27 -2 -108 -8
-180 -13 -71 -6 -161 -13 -199 -16 -38 -3 -72 -7 -76 -10 -4 -2 -65 -7 -136
-10 -71 -3 -194 -10 -274 -15 -282 -18 -760 -33 -867 -26 -59 3 -184 13 -278
22 -93 9 -244 19 -335 24 -91 4 -183 12 -205 18 -36 9 -379 27 -480 26 -22 -1
-83 -6 -135 -13 -52 -6 -138 -16 -192 -20 -53 -5 -101 -11 -106 -15 -6 -3 -20
-2 -32 2 -21 8 -21 9 -25 436 -3 307 -7 431 -15 441 -8 10 -13 89 -16 247 -4
229 -15 389 -35 498 -16 85 8 1342 27 1371 6 11 6 224 0 334 -3 46 -6 64 -22
150 -3 17 -8 62 -10 102 -4 68 -4 72 18 75 34 5 218 2 343 -6z m5013 -2814 c7
-5 10 -16 7 -24 -5 -12 -28 -18 -91 -23 -46 -4 -98 -5 -114 -1 -36 7 -74 -9
-94 -39 -11 -17 -13 -36 -6 -81 4 -33 6 -63 3 -67 -2 -4 2 -36 11 -70 8 -34
14 -78 13 -97 -2 -34 -1 -35 62 -58 38 -13 92 -24 130 -25 63 -2 66 -3 71 -29
13 -68 73 -88 99 -34 11 24 12 38 2 75 -6 25 -14 120 -16 209 -5 153 -12 210
-30 255 -7 17 -4 18 31 11 50 -9 54 -11 54 -36 0 -12 4 -47 10 -77 12 -70 32
-305 35 -420 2 -47 6 -116 10 -153 l8 -67 -29 -11 c-17 -7 -56 -9 -94 -6 -36
4 -92 2 -124 -2 -41 -6 -72 -5 -101 3 -27 9 -72 11 -127 8 l-86 -6 -6 39 c-4
22 -8 55 -8 74 -6 188 -25 463 -38 544 -5 33 -8 62 -5 64 2 2 65 8 139 12 75
5 142 12 148 17 7 4 36 10 63 14 28 3 52 7 55 7 3 1 11 -2 18 -6z m-5793 -79
c17 -1 76 -9 131 -17 75 -12 116 -13 155 -6 30 5 66 8 80 7 l26 -2 8 -125 c4
-69 9 -230 11 -357 3 -231 3 -233 -19 -245 -35 -19 -136 -29 -360 -34 l-209
-5 6 67 c7 90 -11 354 -29 426 -8 32 -17 111 -21 176 l-7 119 64 -4 c35 -2 75
0 89 5 14 5 30 7 35 4 6 -4 24 -8 40 -9z m5784 -160 c1 -60 6 -112 12 -118 18
-18 8 -22 -66 -28 -102 -9 -118 -1 -133 63 -7 28 -12 55 -12 60 0 15 65 -9 79
-30 7 -11 18 -20 23 -20 5 0 16 -7 25 -16 24 -23 40 -2 24 32 -10 23 -10 26 5
20 13 -5 15 -2 9 21 -3 15 -15 39 -26 54 -10 15 -19 37 -19 48 0 18 6 21 39
21 l39 0 1 -107z m-93 10 c-8 -8 -56 25 -56 38 0 6 14 1 31 -11 16 -12 28 -25
25 -27z"/>
<path d="M11051 4524 c-25 -22 -26 -23 -9 -51 15 -25 25 -29 85 -36 158 -18
167 -20 181 -49 25 -52 43 -186 42 -303 -2 -170 -2 -168 -41 -177 -18 -4 -68
-9 -109 -12 -135 -8 -180 -40 -138 -96 12 -17 28 -28 35 -25 14 5 155 23 240
31 26 2 86 8 133 13 47 5 97 10 113 10 15 1 36 10 48 22 18 18 19 23 6 42 -13
20 -24 22 -117 25 -57 1 -105 3 -106 5 -2 1 1 20 6 42 10 47 -10 401 -24 424
-12 19 21 25 127 23 136 -4 177 8 177 49 0 27 -3 29 -32 28 -18 -1 -54 4 -80
10 -82 19 -350 49 -432 48 -67 -1 -84 -5 -105 -23z"/>
<path d="M12810 4495 c-10 -11 -9 -34 4 -108 9 -52 16 -106 16 -121 0 -25 -2
-26 -58 -26 -44 0 -63 -5 -75 -18 -10 -10 -17 -22 -17 -25 0 -19 46 -48 84
-53 24 -4 48 -9 53 -13 24 -15 29 -66 16 -146 -17 -110 -16 -146 8 -174 l20
-24 21 21 c17 16 23 40 30 119 15 162 19 178 48 181 14 2 45 9 70 17 25 7 59
17 75 22 17 5 30 15 30 23 0 18 -88 42 -135 37 -41 -5 -78 9 -85 32 -3 9 -7
36 -10 61 -7 72 -15 100 -40 157 -26 56 -35 62 -55 38z"/>
<path d="M12393 4310 c-73 -15 -163 -74 -163 -107 0 -31 45 -103 72 -114 15
-6 28 -17 28 -24 0 -12 41 -35 64 -35 7 0 34 -11 59 -24 25 -14 54 -22 64 -20
15 4 18 -1 18 -36 0 -35 -4 -43 -35 -62 -30 -19 -48 -22 -128 -21 -83 1 -96 3
-118 24 -25 24 -26 24 -40 5 -8 -11 -14 -22 -14 -26 0 -14 53 -60 68 -60 10 0
23 -5 29 -11 14 -14 100 -23 107 -10 4 5 29 7 60 4 50 -5 55 -4 93 31 66 59
78 112 35 161 -22 27 -109 75 -134 75 -10 0 -21 7 -24 15 -3 8 -30 28 -59 44
-60 34 -77 65 -48 86 22 17 94 29 122 20 11 -3 30 -1 41 5 18 10 24 8 35 -7
13 -17 14 -17 34 1 23 21 28 58 8 74 -18 15 -125 22 -174 12z"/>
<path d="M11860 4209 c-19 -12 -45 -33 -57 -48 -18 -21 -24 -23 -32 -12 -12
19 -39 7 -53 -24 -9 -21 -9 -31 4 -53 8 -15 18 -59 21 -99 6 -77 17 -107 45
-122 37 -20 47 2 44 94 -1 47 2 103 8 125 23 86 127 105 172 31 12 -20 26 -37
30 -39 4 -2 8 -34 8 -71 0 -44 5 -74 16 -89 35 -51 66 -8 60 83 -5 73 -24 120
-65 160 -17 17 -31 35 -31 41 0 21 -49 44 -92 44 -26 0 -57 -8 -78 -21z"/>
<path d="M13390 4222 c0 -5 -20 -23 -45 -41 -55 -40 -129 -110 -178 -172 -60
-75 -50 -156 25 -193 61 -31 141 -11 207 51 24 24 45 42 46 40 1 -1 13 -22 27
-47 22 -40 29 -45 59 -45 31 0 35 3 43 37 11 42 4 57 -18 39 -12 -10 -18 -7
-30 18 -9 16 -16 39 -16 50 0 11 -9 40 -19 63 -10 24 -24 56 -30 72 -9 23 -16
27 -36 23 -28 -5 -34 7 -9 17 23 9 15 90 -9 94 -9 2 -17 -1 -17 -6z m-6 -198
c0 -70 -3 -76 -56 -115 -45 -32 -92 -38 -123 -16 -17 13 -17 16 14 60 17 26
48 59 69 74 20 15 45 36 55 46 30 29 41 16 41 -49z"/>
<path d="M13768 4177 c-7 -7 -24 -30 -38 -50 -31 -45 -40 -46 -40 -6 0 19 -7
37 -17 45 -25 19 -30 17 -40 -13 -9 -28 0 -96 27 -188 6 -22 13 -51 15 -65 10
-66 21 -93 42 -101 12 -4 24 -5 27 0 3 4 8 54 11 112 6 99 17 149 38 176 7 10
18 8 49 -10 71 -39 129 -133 143 -231 8 -51 24 -69 57 -64 17 2 24 11 26 33 4
36 -17 106 -37 121 -7 6 -11 17 -9 25 6 15 -21 69 -34 69 -4 0 -8 7 -8 16 0
20 -86 110 -124 129 -36 19 -70 19 -88 2z"/>
<path d="M14320 4180 c-100 -24 -210 -109 -210 -162 0 -13 -9 -37 -19 -54 -23
-38 -18 -75 18 -126 29 -41 62 -60 132 -77 39 -9 56 -7 105 10 33 10 67 24 77
29 14 8 23 3 49 -25 17 -20 48 -45 69 -56 21 -10 43 -28 48 -38 12 -21 68 -44
76 -31 3 4 22 -1 42 -11 45 -23 63 -24 89 -4 10 8 31 15 45 15 15 0 29 7 33
15 3 8 16 15 28 15 41 1 98 68 98 115 0 23 -11 19 -68 -24 -64 -48 -117 -58
-218 -43 -82 13 -139 45 -167 95 l-17 32 37 6 c36 6 85 26 128 51 79 48 103
66 127 93 33 35 36 75 8 100 -32 29 -132 65 -181 65 -26 0 -69 -9 -97 -21 -45
-19 -53 -27 -81 -84 -17 -34 -31 -77 -31 -94 0 -110 -89 -157 -216 -114 -27 9
-52 21 -56 27 -17 24 -7 74 23 119 39 59 71 85 117 93 81 16 134 73 80 88 -13
3 -25 5 -28 5 -3 -1 -21 -5 -40 -9z m408 -102 c20 -6 32 -16 32 -26 -1 -33
-130 -98 -208 -104 -34 -3 -37 -1 -40 26 -4 32 13 79 34 97 33 27 106 30 182
7z"/>
<path d="M10302 1775 l-27 -23 20 -34 c17 -28 19 -49 17 -146 -1 -109 -1 -114
23 -138 30 -30 31 -40 6 -78 -21 -31 -18 -49 11 -78 40 -40 89 -4 93 70 3 37
3 37 56 44 30 5 75 10 101 12 26 3 52 7 58 11 5 3 37 1 71 -5 50 -9 64 -9 70
2 5 7 7 74 5 148 -6 189 -33 259 -88 229 -14 -8 -57 -9 -132 -4 -263 16 -254
16 -284 -10z m129 -105 c5 0 9 -6 9 -13 0 -14 35 -47 49 -47 5 0 11 -7 15 -15
3 -8 22 -22 43 -32 21 -9 51 -22 67 -28 l29 -13 -42 -6 c-128 -19 -111 -24
-163 48 -49 65 -66 125 -32 112 9 -3 20 -6 25 -6z m287 -2 c6 -8 7 -29 2 -58
-5 -25 -6 -57 -3 -71 4 -21 0 -27 -17 -32 -32 -8 -53 2 -40 19 7 7 10 25 8 41
-2 23 -9 29 -41 35 -37 8 -97 44 -97 59 0 7 40 12 141 17 20 1 41 -4 47 -10z"/>
<path d="M8299 4807 c-24 -13 -51 -35 -59 -50 -13 -23 -12 -29 3 -59 50 -93
75 -125 105 -131 36 -7 85 17 123 61 29 33 31 39 24 86 -7 60 -33 92 -84 106
-51 14 -63 13 -112 -13z m111 -73 c0 -7 2 -18 5 -26 2 -7 -4 -24 -14 -37 l-18
-24 -31 34 -31 34 20 17 c23 20 69 20 69 2z"/>
<path d="M9028 4809 c-9 -5 -19 -27 -23 -49 -4 -22 -15 -50 -25 -62 l-18 -22
-40 28 c-39 26 -41 27 -71 11 -17 -8 -31 -19 -31 -23 0 -4 25 -31 55 -60 30
-29 55 -58 55 -65 0 -6 -9 -20 -19 -31 -11 -12 -38 -54 -60 -95 -41 -75 -43
-91 -8 -119 21 -17 51 9 93 81 20 34 47 76 60 94 23 30 26 31 81 27 90 -8 99
7 37 64 -51 47 -51 47 -38 82 14 39 18 109 6 126 -11 17 -37 23 -54 13z"/>
<path d="M8553 4753 c-20 -18 -38 -70 -46 -133 -7 -48 20 -101 60 -117 30 -12
35 -10 82 22 l51 35 28 -60 c17 -38 33 -60 44 -60 9 0 19 3 21 8 10 15 -18
261 -30 273 -19 19 -62 -16 -93 -74 -17 -31 -35 -50 -54 -57 -16 -6 -32 -8
-35 -5 -3 3 3 34 12 69 21 80 21 102 1 110 -21 8 -19 8 -41 -11z"/>
<path d="M6145 4469 c-117 -9 -150 -17 -170 -39 -20 -22 -13 -55 14 -69 11 -6
54 -6 111 -1 112 10 239 4 335 -17 39 -8 147 -18 240 -22 99 -5 180 -13 193
-20 12 -6 51 -15 87 -18 36 -3 68 -10 71 -14 3 -5 24 -9 48 -9 23 0 46 -4 51
-9 13 -11 96 -31 130 -31 14 0 51 -13 83 -29 55 -27 172 -71 191 -71 5 0 11
15 14 33 6 40 -31 94 -71 103 -45 10 -134 55 -174 87 -28 23 -41 27 -51 19
-15 -13 -92 -7 -134 9 -78 31 -311 66 -450 68 -50 1 -144 10 -210 21 -122 21
-155 22 -308 9z"/>
<path d="M9818 4461 c-27 -4 -54 -13 -60 -19 -21 -21 45 -65 100 -69 25 -1 49
-6 54 -11 5 -5 -24 -42 -67 -85 -77 -79 -88 -102 -57 -130 67 -64 121 -84 150
-55 27 27 -3 77 -55 93 -13 3 -23 10 -23 15 0 13 112 110 128 110 7 0 20 16
28 35 13 31 13 38 -2 60 -9 14 -22 25 -30 25 -7 0 -29 9 -49 20 -37 21 -41 21
-117 11z"/>
<path d="M9408 4444 c-15 -8 -30 -25 -34 -37 -3 -12 -14 -31 -24 -42 -9 -11
-26 -39 -37 -63 -28 -57 -19 -90 33 -119 51 -30 99 -29 153 3 56 31 74 27 60
-15 -13 -37 2 -68 37 -77 30 -8 56 13 54 42 -11 194 -15 219 -35 222 -11 1
-34 -10 -53 -27 -82 -76 -136 -101 -160 -75 -16 18 -17 17 22 77 38 59 51 121
26 123 -8 1 -27 -4 -42 -12z"/>
<path d="M8005 4360 c-86 -12 -132 -30 -198 -80 -50 -37 -64 -57 -100 -129
-36 -74 -41 -95 -41 -152 0 -37 5 -73 11 -80 6 -8 13 -32 17 -54 8 -56 12 -73
30 -130 9 -27 16 -61 16 -74 0 -13 13 -52 30 -87 36 -77 110 -137 180 -149 25
-4 68 -19 95 -34 50 -28 99 -40 185 -46 25 -2 77 -7 116 -10 70 -7 72 -7 144
34 40 23 86 53 102 66 16 14 33 25 37 25 3 0 22 15 41 34 82 79 128 380 79
511 -39 105 -171 260 -259 305 -100 51 -311 72 -485 50z m323 -119 c11 -6 36
-11 54 -11 56 0 129 -42 186 -106 28 -32 52 -65 52 -71 0 -7 4 -13 9 -13 4 0
19 -28 31 -62 26 -73 28 -182 4 -274 -8 -30 -14 -65 -14 -78 0 -25 -69 -89
-152 -142 l-50 -31 -153 1 -154 1 -93 48 c-51 26 -105 47 -119 47 -40 0 -76
47 -105 136 -14 43 -27 99 -31 124 -3 25 -12 69 -20 99 -27 95 -6 184 60 261
43 50 83 70 147 71 30 1 66 4 79 8 37 10 246 4 269 -8z"/>
<path d="M9770 3963 l-31 -28 21 -43 c18 -36 24 -42 43 -37 31 9 57 43 57 74
0 58 -44 75 -90 34z"/>
<path d="M8936 3741 c-17 -19 -18 -24 -5 -47 7 -15 20 -28 29 -31 8 -2 22 -8
31 -13 9 -5 45 -12 80 -16 35 -4 73 -11 83 -17 11 -5 42 -11 70 -13 73 -4 128
-15 151 -29 11 -7 36 -16 55 -20 40 -9 116 -47 210 -106 112 -72 336 -199 348
-199 4 0 32 -17 63 -38 31 -20 65 -42 75 -48 16 -10 17 -15 7 -30 -7 -11 -22
-37 -34 -59 -12 -22 -41 -62 -65 -89 -24 -26 -44 -52 -44 -58 0 -17 52 -78 66
-78 8 0 14 -5 14 -11 0 -8 15 -9 48 -4 26 4 79 9 117 10 39 1 86 9 105 17 20
8 58 18 85 23 28 4 58 11 68 17 10 5 33 10 50 10 69 1 102 48 68 97 -12 16
-21 34 -21 40 0 6 -11 18 -25 27 -14 9 -59 67 -100 128 -56 84 -75 121 -75
147 -1 41 -20 69 -48 69 -11 0 -34 17 -53 40 -18 22 -37 40 -42 40 -4 0 -19
-11 -32 -24 -20 -20 -24 -34 -24 -85 1 -61 -6 -97 -23 -117 -6 -9 -29 -1 -81
26 -39 21 -81 46 -93 57 -27 22 -57 40 -159 93 -44 23 -89 49 -100 59 -30 25
-155 105 -190 120 -85 37 -252 78 -445 111 -135 23 -144 23 -164 1z"/>
<path d="M5864 3596 c-20 -14 -20 -23 -18 -233 2 -120 3 -250 3 -290 0 -70 0
-72 30 -88 29 -15 33 -14 79 9 26 13 79 45 116 70 96 64 106 66 161 21 42 -35
190 -125 205 -125 4 0 17 -12 31 -26 13 -14 42 -35 64 -46 22 -11 54 -31 72
-44 17 -13 40 -24 51 -24 11 0 33 -7 48 -15 16 -8 37 -15 47 -15 11 0 31 -9
47 -20 15 -11 30 -17 33 -14 3 3 15 0 27 -6 12 -6 35 -12 53 -12 17 -1 40 -10
51 -20 27 -25 70 -20 74 8 4 30 -70 93 -165 139 -43 20 -82 38 -88 40 -17 4
-49 16 -80 30 -16 8 -57 26 -89 40 -33 15 -86 46 -118 71 -32 24 -62 44 -67
44 -17 0 -161 103 -161 115 0 6 15 28 33 47 70 76 87 102 87 135 0 27 -4 34
-27 39 -79 18 -243 81 -339 129 -118 59 -129 62 -160 41z"/>
<path d="M7535 2926 c-59 -25 -105 -28 -172 -10 -62 17 -65 17 -90 -2 -17 -13
-26 -31 -29 -56 -1 -20 -9 -52 -17 -71 -9 -19 -11 -39 -7 -43 10 -10 -14 -124
-34 -163 -7 -14 -21 -76 -31 -137 -18 -107 -18 -114 -1 -188 10 -42 30 -100
45 -129 22 -45 35 -57 92 -87 37 -19 82 -45 100 -57 22 -15 50 -23 79 -23 25
-1 79 -8 120 -16 128 -27 164 -20 324 57 107 51 198 161 217 263 10 52 19 67
55 101 56 53 114 131 114 153 0 31 -14 39 -84 45 -81 8 -96 18 -96 64 0 71
-117 200 -235 259 -48 24 -79 34 -100 31 -16 -2 -54 2 -83 9 -66 17 -128 17
-167 0z m141 -102 c45 -14 83 -24 169 -41 17 -3 36 -14 43 -24 7 -11 19 -19
27 -19 14 0 85 -69 85 -82 0 -5 -10 -8 -22 -8 -42 0 -102 25 -167 68 -35 23
-72 42 -81 42 -9 0 -25 7 -36 15 -10 8 -28 15 -40 15 -29 0 -84 20 -84 30 0 5
10 11 23 13 12 2 25 5 28 6 3 0 28 -6 55 -15z m64 -220 l40 -27 0 -72 c0 -59
4 -75 20 -90 11 -10 20 -25 20 -34 0 -9 7 -25 15 -35 20 -26 19 -52 -1 -60
-65 -25 -237 28 -322 99 -31 26 -32 26 -62 9 -17 -10 -30 -27 -30 -37 0 -18
76 -97 93 -97 4 0 18 -11 31 -25 15 -16 50 -33 97 -46 139 -39 173 -36 248 20
21 16 44 24 60 23 15 -2 39 2 54 7 34 13 34 7 0 -43 -37 -53 -84 -95 -106 -96
-10 0 -35 -12 -54 -27 -35 -27 -41 -28 -152 -28 -64 0 -134 5 -156 12 -22 6
-65 17 -96 23 -85 16 -141 57 -174 124 -25 52 -27 63 -23 149 3 55 11 108 21
131 l17 39 23 -21 c13 -12 26 -22 30 -22 4 0 27 -9 52 -21 42 -20 46 -20 99
-5 30 9 58 21 61 26 3 6 14 10 24 10 22 0 97 76 110 113 6 15 13 27 16 27 3 0
23 -12 45 -26z"/>
<path d="M5572 2655 c-35 -29 -106 -144 -116 -186 -4 -19 0 -31 15 -45 27 -25
43 -14 101 71 50 71 68 88 106 98 27 6 67 -29 53 -47 -4 -6 -11 -32 -14 -58
-4 -25 -20 -69 -37 -97 -37 -63 -38 -84 -5 -101 22 -12 27 -11 46 6 55 48 102
223 81 299 -20 72 -31 79 -119 83 -74 4 -81 2 -111 -23z"/>
<path d="M5907 2419 c-47 -24 -62 -38 -78 -72 -25 -56 -24 -70 8 -107 53 -64
168 -89 227 -51 16 11 42 39 58 62 93 139 -52 252 -215 168z m147 -65 c10 -27
7 -51 -12 -74 -16 -20 -24 -22 -70 -15 -63 8 -66 23 -18 71 37 37 89 47 100
18z"/>
<path d="M8290 2165 c-21 -23 -22 -27 -9 -51 7 -15 30 -34 49 -43 19 -9 39
-22 43 -28 17 -26 126 -92 232 -139 60 -27 118 -57 127 -66 10 -10 28 -18 40
-18 22 0 94 -30 188 -79 50 -26 115 -47 132 -43 4 1 26 -5 49 -13 23 -9 50
-13 60 -10 9 3 37 -5 61 -18 24 -13 84 -36 133 -51 50 -15 110 -34 135 -43 93
-30 187 -54 250 -63 36 -5 97 -18 135 -29 39 -12 76 -19 84 -16 18 7 9 80 -14
105 -21 23 -104 44 -169 42 -27 0 -64 5 -83 13 -18 8 -40 12 -47 9 -8 -3 -36
4 -63 15 -45 19 -111 38 -159 47 -12 2 -71 25 -130 50 -60 25 -140 51 -179 59
-71 14 -128 32 -155 50 -25 16 -124 55 -141 55 -9 0 -77 32 -153 70 -75 39
-145 70 -156 70 -10 0 -22 5 -25 10 -4 6 -23 19 -43 29 -20 11 -61 40 -90 65
-30 25 -59 46 -66 46 -7 0 -23 -11 -36 -25z"/>
<path d="M6540 2025 c-8 -9 -10 -28 -5 -54 11 -68 -13 -104 -45 -66 -7 8 -19
15 -26 15 -18 0 -19 -61 -2 -106 9 -27 9 -40 -4 -71 -9 -21 -19 -50 -22 -65
-3 -14 -18 -40 -32 -57 -14 -17 -23 -35 -20 -39 3 -5 -3 -17 -14 -27 -25 -22
-27 -65 -4 -65 27 0 82 67 117 143 42 89 54 101 87 82 75 -42 85 -43 152 -9
68 35 87 59 88 112 1 114 -100 222 -205 222 -34 0 -57 -5 -65 -15z m163 -119
c68 -50 64 -111 -9 -134 -37 -12 -45 -11 -75 6 -43 24 -46 48 -14 112 29 56
41 58 98 16z"/>
<path d="M7474 1825 c-7 -19 -14 -42 -14 -52 0 -32 -41 -167 -65 -213 -19 -37
-30 -46 -57 -50 -39 -6 -63 -45 -53 -88 12 -52 130 -152 179 -152 40 0 93 25
106 51 29 54 -16 174 -76 201 -13 6 -24 16 -24 23 0 6 21 73 46 149 25 76 43
144 40 152 -3 8 -19 14 -36 14 -26 0 -33 -6 -46 -35z m16 -404 c14 -28 12 -48
-6 -55 -12 -5 -28 2 -72 30 -2 1 3 11 10 23 16 26 54 27 68 2z"/>
<path d="M6939 1843 c-55 -9 -168 -166 -157 -220 4 -25 45 -29 70 -6 11 10 37
43 58 73 61 89 64 90 113 42 24 -23 48 -42 54 -42 20 0 24 37 7 72 -15 31 -89
90 -110 87 -5 -1 -21 -4 -35 -6z"/>
<path d="M7061 1650 l-44 -20 7 -55 c9 -82 31 -119 88 -150 54 -29 67 -28 125
14 71 51 80 166 17 208 -39 25 -141 27 -193 3z m159 -99 c-1 -25 -25 -51 -47
-51 -27 0 -55 34 -51 62 6 46 99 36 98 -11z"/>
<path d="M7845 1621 c-22 -5 -34 -16 -46 -41 -9 -19 -48 -99 -88 -178 -73
-146 -81 -174 -57 -205 28 -36 59 3 149 186 47 95 87 181 91 193 9 31 -13 52
-49 45z"/>
<path d="M7935 1347 c-61 -21 -155 -93 -155 -119 0 -10 13 -37 29 -60 15 -24
36 -55 45 -70 9 -16 25 -28 36 -28 11 0 20 -3 20 -7 0 -5 28 -9 62 -10 46 -2
67 2 80 14 40 36 8 62 -76 61 -43 -1 -65 10 -66 33 0 3 26 9 58 12 50 5 61 11
95 46 50 54 49 81 -5 111 -47 27 -80 31 -123 17z"/>
<path d="M8135 1164 c-15 -32 -34 -70 -44 -84 -26 -38 -41 -96 -28 -109 27
-27 55 -12 93 52 42 69 63 97 76 97 12 0 10 -45 -3 -74 -10 -20 -8 -32 5 -61
22 -45 37 -51 75 -29 37 22 48 14 31 -25 -10 -24 -10 -41 0 -81 10 -43 15 -51
34 -48 29 4 43 39 55 137 14 112 4 135 -60 139 l-46 3 4 42 c8 66 -17 90 -100
95 l-65 4 -27 -58z"/>
<path d="M8976 1154 c-9 -8 -16 -20 -16 -25 0 -6 -18 -47 -39 -92 -22 -45 -42
-98 -46 -117 -8 -49 7 -114 28 -118 18 -4 23 6 76 138 16 41 41 102 55 134 18
44 22 65 15 78 -12 22 -52 23 -73 2z"/>
<path d="M8580 963 c-14 -3 -37 -16 -52 -31 -22 -20 -28 -35 -28 -69 0 -30 5
-45 15 -49 8 -4 15 -11 15 -18 0 -25 46 -95 65 -100 71 -18 158 61 159 144 0
45 -4 55 -51 106 -22 24 -57 29 -123 17z m79 -90 c37 -22 38 -33 8 -69 -18
-21 -29 -26 -48 -21 -22 6 -25 11 -21 44 7 71 11 74 61 46z"/>
<path d="M8801 611 c-25 -25 -25 -29 -5 -69 19 -39 45 -41 73 -6 23 29 28 84
9 84 -7 0 -23 3 -35 6 -14 4 -28 -1 -42 -15z"/>
</g>
</svg>
