<?xml version="1.0" standalone="no"?>
<!DOCTYPE svg PUBLIC "-//W3C//DTD SVG 20010904//EN"
 "http://www.w3.org/TR/2001/REC-SVG-20010904/DTD/svg10.dtd">
<svg version="1.0" xmlns="http://www.w3.org/2000/svg"
 width="971.896834pt" height="400.000000pt" viewBox="0 0 971.896834 400.000000"
 preserveAspectRatio="xMidYMid meet">
<metadata>
Created by potrace 1.15, written by Peter Selinger 2001-2017
</metadata>
<g transform="translate(-16.730911,417.797521) scale(0.045413,-0.045413)"
fill="#444444" stroke="none">
<path d="M8886 9184 c-9 -8 -16 -25 -16 -37 -2 -219 -15 -475 -25 -485 -3 -3
-41 0 -84 7 -62 10 -87 10 -115 1 -39 -12 -160 -125 -151 -140 3 -5 1 -11 -5
-15 -34 -21 14 -124 78 -169 50 -36 140 -68 162 -59 8 3 30 7 49 9 18 2 42 11
52 20 23 20 54 39 90 54 47 20 60 71 26 104 -16 16 -23 48 -19 86 1 8 4 60 6
115 2 55 9 187 16 292 12 203 8 233 -30 233 -10 0 -26 -7 -34 -16z m-97 -612
c24 -12 38 -29 47 -57 22 -64 18 -88 -17 -114 -40 -29 -88 -31 -160 -7 -63 22
-106 69 -94 106 8 26 50 69 79 80 36 15 109 11 145 -8z"/>
<path d="M6937 9082 c-10 -10 -17 -29 -17 -43 0 -24 19 -84 33 -106 4 -7 2
-61 -4 -120 -6 -59 -13 -151 -15 -203 -4 -126 -9 -169 -28 -213 -15 -36 -14
-37 14 -57 27 -19 46 -21 212 -23 141 -2 190 1 211 11 26 13 28 16 13 30 -9 9
-26 17 -39 17 -13 1 -27 4 -33 7 -11 6 -84 24 -139 34 -22 4 -60 6 -84 5 l-44
-3 6 153 c3 85 2 230 -3 324 -8 160 -10 170 -32 187 -29 22 -31 22 -51 0z"/>
<path d="M10391 9036 c-7 -8 -12 -23 -12 -33 1 -51 4 -79 10 -88 4 -5 8 -32 9
-60 2 -28 10 -57 19 -67 11 -12 17 -43 19 -100 2 -46 4 -83 4 -83 1 0 3 -11 4
-25 2 -14 -8 -43 -22 -64 -19 -30 -23 -48 -19 -78 3 -21 1 -40 -3 -43 -5 -3
-9 -13 -9 -23 -3 -79 0 -95 21 -122 27 -34 54 -35 51 -2 -2 12 1 22 6 22 15 0
25 76 30 213 1 52 29 77 85 77 38 0 48 -5 74 -34 17 -19 33 -32 36 -29 3 3 12
0 20 -6 11 -9 13 -19 5 -38 -15 -41 -6 -206 14 -237 24 -36 45 -34 47 7 4 99
-2 208 -15 253 -16 56 -34 80 -85 112 -19 12 -30 22 -25 22 6 0 -3 7 -20 16
-36 20 -81 19 -113 -2 -13 -9 -25 -14 -27 -12 -3 2 -9 49 -14 104 -5 55 -17
153 -27 217 -15 95 -21 117 -35 117 -9 0 -22 -6 -28 -14z"/>
<path d="M12170 9016 c-5 -13 -14 -26 -21 -28 -6 -2 -13 -17 -15 -33 -9 -72
-11 -275 -3 -320 4 -30 3 -75 -4 -113 -10 -58 -12 -63 -31 -56 -12 4 -49 7
-83 7 -48 -1 -66 -6 -82 -22 -12 -12 -25 -21 -30 -21 -4 0 -20 -11 -33 -25
-23 -23 -25 -30 -17 -70 13 -67 34 -100 83 -129 95 -56 243 -41 306 30 31 36
32 58 2 47 -15 -6 -15 -5 -4 10 12 14 11 22 -9 54 -25 39 -27 63 -28 313 0
124 6 282 13 330 6 47 -28 67 -44 26z m-26 -690 l63 -64 -30 -6 c-66 -13 -131
-6 -187 22 -47 23 -55 32 -58 58 -4 38 21 52 96 53 53 1 54 0 116 -63z"/>
<path d="M9985 8981 c-84 -24 -211 -87 -219 -108 -8 -19 2 -28 101 -105 113
-87 209 -156 228 -162 24 -7 66 -59 85 -105 13 -32 12 -35 -9 -50 -12 -9 -37
-28 -54 -42 -59 -47 -137 -79 -195 -79 -56 0 -83 9 -119 43 -19 16 -25 18 -38
7 -46 -38 4 -104 98 -130 59 -16 126 -3 232 46 108 50 165 117 165 197 0 42
-93 177 -122 177 -13 0 -148 95 -198 140 -37 33 -42 41 -30 50 28 18 125 33
229 35 86 1 107 5 115 18 18 29 -6 51 -75 69 -81 20 -119 20 -194 -1z"/>
<path d="M11662 8953 c-20 -17 -34 -85 -20 -98 3 -4 3 -19 -1 -33 -4 -15 -7
-76 -5 -135 2 -89 5 -111 19 -121 16 -12 16 -15 1 -44 -19 -36 -28 -39 -47
-16 -10 12 -26 15 -64 12 -41 -3 -62 -13 -108 -47 -31 -24 -57 -49 -57 -56 0
-7 -5 -15 -11 -17 -14 -5 -20 -76 -7 -84 4 -3 8 -13 8 -23 0 -21 53 -72 100
-96 51 -26 142 -17 178 18 15 15 32 27 38 27 17 0 71 94 81 143 9 38 8 47 -3
47 -7 0 -18 -9 -24 -20 -25 -47 -30 -1 -28 263 1 150 -1 278 -6 285 -10 16
-20 15 -44 -5z m-37 -575 l48 -51 -32 -29 c-26 -23 -40 -28 -82 -28 -57 0 -93
19 -116 63 -15 30 -15 30 23 63 60 51 97 47 159 -18z"/>
<path d="M12455 8738 l-28 -22 28 -23 c24 -22 29 -23 49 -10 28 19 33 47 10
64 -24 17 -27 17 -59 -9z"/>
<path d="M7555 8700 c-4 -6 -11 -8 -16 -4 -20 12 -82 -20 -133 -71 -47 -45
-55 -59 -61 -103 -4 -30 -2 -58 4 -70 6 -11 8 -22 5 -25 -10 -10 34 -82 63
-103 38 -28 199 -41 229 -19 10 8 28 15 38 15 11 0 41 22 67 49 50 52 67 102
54 160 -7 35 -110 141 -136 141 -11 0 -19 5 -19 12 0 6 -3 9 -6 5 -4 -3 -19 0
-35 8 -33 18 -46 19 -54 5z m98 -105 c52 -25 79 -42 88 -57 14 -22 10 -53 -9
-69 -9 -8 -26 -26 -37 -39 -65 -80 -168 -81 -241 -3 -28 30 -32 87 -9 117 44
58 141 82 208 51z"/>
<path d="M8185 8680 c-16 -10 -41 -25 -55 -33 -79 -44 -107 -60 -120 -72 -8
-7 -35 -21 -60 -32 -57 -25 -74 -46 -74 -90 0 -30 8 -43 50 -80 67 -60 101
-78 120 -62 11 9 14 9 14 0 0 -8 12 -11 33 -9 28 3 36 10 60 58 15 30 27 64
27 76 0 35 17 38 37 7 28 -44 114 -123 133 -123 10 0 32 -3 49 -6 47 -10 40
15 -24 81 -30 32 -76 89 -101 127 -42 64 -44 71 -30 87 18 20 20 44 6 72 -13
23 -26 23 -65 -1z m-55 -144 c0 -8 -4 -17 -9 -20 -4 -3 -11 -26 -14 -51 -8
-52 -26 -85 -47 -85 -17 0 -90 57 -90 70 0 4 24 22 53 38 29 16 59 37 66 46
17 20 41 21 41 2z"/>
<path d="M11035 8643 c-27 -7 -115 -93 -115 -113 0 -9 -5 -21 -10 -26 -19 -19
-31 -125 -19 -169 12 -43 54 -87 107 -111 75 -34 234 -7 268 44 21 33 6 49
-33 34 -44 -17 -159 -26 -167 -13 -4 6 -15 11 -25 11 -10 0 -26 9 -36 20 -18
20 -17 20 12 20 16 0 43 4 59 9 16 5 46 12 67 16 51 8 113 68 122 119 11 54
-21 117 -70 140 -38 18 -125 29 -160 19z m143 -85 c6 -6 12 -28 12 -49 0 -44
-21 -62 -80 -74 -19 -3 -45 -11 -57 -17 -25 -12 -83 8 -83 30 0 24 39 90 66
111 22 17 35 20 78 15 28 -4 57 -11 64 -16z"/>
<path d="M21000 8600 c-20 -13 -18 -95 4 -180 31 -115 37 -143 50 -225 7 -44
16 -87 20 -97 6 -14 34 -27 58 -28 9 0 1 91 -12 124 -5 15 -8 31 -5 36 7 11
-34 242 -57 315 -18 63 -30 73 -58 55z"/>
<path d="M13445 8525 c-69 -35 -185 -136 -210 -185 -7 -14 -14 -42 -16 -62 -3
-31 2 -46 31 -82 23 -29 43 -45 58 -46 12 0 22 -4 22 -9 0 -19 65 -18 100 2
34 20 100 97 100 117 0 6 4 10 8 10 5 0 14 -32 21 -71 8 -41 19 -73 27 -76 8
-3 11 -9 9 -14 -3 -4 -6 -43 -7 -86 0 -47 -6 -89 -15 -106 -8 -16 -12 -35 -9
-42 8 -22 -71 -103 -112 -115 -57 -16 -114 -12 -150 10 -42 26 -67 25 -93 -1
-20 -20 -20 -22 -3 -40 9 -10 50 -35 91 -55 l74 -37 62 18 c34 10 71 23 83 29
31 16 114 114 114 134 0 10 4 22 9 28 12 14 31 97 31 141 0 21 -11 112 -24
203 -14 91 -28 197 -31 237 -6 61 -11 75 -31 88 -77 49 -64 48 -139 10z m70
-126 c-5 -33 -15 -58 -31 -74 -13 -13 -24 -31 -24 -39 0 -12 -63 -76 -76 -76
-3 0 -23 9 -44 20 -55 28 -52 50 18 124 61 65 103 93 140 95 23 1 24 -1 17
-50z"/>
<path d="M12479 8512 c-9 -9 -21 -37 -27 -62 -6 -25 -14 -58 -18 -75 -4 -16
-8 -50 -10 -75 -1 -25 -5 -68 -9 -97 -7 -50 -7 -53 19 -64 23 -11 30 -10 46 7
15 15 21 37 24 94 2 41 9 107 14 145 21 134 20 145 -3 144 -11 0 -27 -8 -36
-17z"/>
<path d="M20725 8490 c-17 -18 -17 -27 -8 -78 21 -104 32 -146 57 -216 14 -38
23 -73 20 -78 -3 -4 -22 -8 -43 -8 -80 0 -166 -65 -196 -149 -21 -60 -19 -76
11 -100 53 -42 187 -35 291 15 69 33 103 95 68 124 -11 9 -12 17 -5 30 8 14 4
25 -13 47 -13 15 -34 55 -47 88 -13 33 -28 65 -33 72 -4 6 -10 24 -13 40 -14
89 -38 200 -46 216 -11 22 -21 22 -43 -3z m95 -470 c16 -11 35 -17 43 -14 8 3
18 1 21 -4 3 -5 -19 -26 -48 -47 -60 -41 -122 -54 -168 -36 -45 17 -37 35 41
101 31 26 75 26 111 0z"/>
<path d="M12674 8459 c-15 -17 -19 -37 -20 -98 -1 -42 -3 -102 -6 -135 -3 -52
-1 -60 19 -73 33 -22 50 -10 58 39 4 24 18 62 32 85 23 40 85 103 101 103 16
0 68 -66 79 -100 22 -66 32 -115 38 -175 6 -65 27 -98 59 -93 19 3 21 10 21
78 -1 106 -41 249 -92 322 -29 43 -81 74 -97 58 -5 -5 -18 -10 -27 -10 -10 0
-38 -16 -63 -35 l-45 -34 -3 42 c-4 49 -24 59 -54 26z"/>
<path d="M20451 8125 c-56 -17 -85 -45 -106 -102 -24 -62 -16 -204 15 -269 19
-39 26 -44 55 -44 45 0 50 26 19 113 -42 121 -27 208 41 240 19 9 42 17 50 17
25 0 27 20 3 40 -27 23 -21 22 -77 5z"/>
<path d="M20100 7937 c-47 -27 -127 -133 -145 -193 -29 -95 -15 -137 52 -161
51 -17 76 -16 94 5 9 9 24 22 33 27 10 6 19 25 21 45 2 19 4 37 5 40 0 3 6 -2
13 -10 18 -22 94 -70 111 -70 8 0 18 9 21 20 5 15 -3 30 -32 58 -41 41 -83 89
-83 97 0 2 -11 21 -25 41 -17 25 -22 41 -16 53 5 9 4 27 -3 42 l-11 27 -35
-21z m-16 -164 c7 -16 15 -48 17 -73 4 -41 2 -45 -25 -54 -24 -9 -31 -7 -47
13 -24 29 -20 70 12 109 13 17 25 31 26 31 1 1 9 -11 17 -26z"/>
<path d="M21161 7926 c-28 -30 -26 -72 4 -70 47 3 65 16 65 45 0 18 -7 32 -19
39 -26 13 -24 14 -50 -14z"/>
<path d="M19761 7820 c-24 -4 -49 -14 -56 -23 -7 -10 -18 -17 -26 -17 -19 0
-49 -77 -49 -125 0 -22 5 -71 10 -110 10 -73 19 -85 101 -148 31 -24 106 -18
143 11 15 11 40 24 56 27 17 4 30 10 30 15 0 5 9 12 20 15 22 7 24 13 11 34
-7 11 -19 12 -73 1 -37 -7 -83 -10 -109 -6 -41 6 -48 11 -68 49 -12 23 -25 63
-28 90 -5 43 -3 51 22 77 16 17 38 30 50 30 17 0 47 15 74 37 7 5 -42 53 -53
52 -6 -1 -31 -5 -55 -9z"/>
<path d="M19334 7563 c-81 -62 -133 -113 -150 -144 -23 -45 -4 -53 191 -80 39
-6 81 -10 95 -10 14 0 33 -6 44 -14 17 -13 17 -15 -9 -49 -48 -64 -125 -104
-182 -97 -7 1 -13 -4 -13 -10 0 -7 -7 -20 -16 -30 -25 -27 -8 -39 55 -39 44 0
62 5 79 20 12 11 38 26 59 33 37 12 81 62 104 116 14 34 2 81 -21 81 -9 0 -24
7 -31 16 -9 12 -24 15 -51 11 -25 -3 -41 0 -49 9 -6 8 -21 14 -33 14 -32 0
-126 29 -126 39 0 5 21 26 48 46 91 73 108 99 79 123 -10 9 -28 0 -73 -35z"/>
<path d="M18992 7475 c-18 -40 -15 -55 13 -56 86 -5 85 -5 85 18 0 22 -47 63
-72 63 -8 0 -20 -11 -26 -25z"/>
<path d="M18661 7424 c-11 -24 -7 -37 35 -123 26 -53 52 -107 58 -121 6 -14
20 -38 31 -53 17 -24 17 -29 5 -37 -8 -5 -22 -10 -30 -10 -21 0 -109 -74 -137
-114 -13 -20 -24 -57 -28 -93 -7 -55 -5 -63 21 -100 40 -57 103 -86 191 -86
46 0 81 6 108 18 57 26 125 83 119 99 -3 8 -1 17 5 21 17 10 13 52 -6 71 -16
16 -18 15 -29 -12 -7 -16 -10 -33 -7 -37 13 -21 -25 -62 -82 -88 -55 -25 -65
-26 -115 -17 -67 12 -102 29 -129 64 -27 34 -27 68 0 111 52 84 138 106 205
52 31 -24 45 -29 69 -25 59 12 58 38 -5 104 -22 23 -40 45 -40 50 0 5 -13 26
-30 47 -16 21 -30 44 -30 52 0 8 -15 45 -34 82 -18 36 -41 82 -50 101 -35 75
-72 93 -95 44z"/>
<path d="M20795 7440 c-98 -20 -133 -34 -182 -71 -29 -22 -53 -47 -53 -55 0
-9 -8 -28 -19 -42 -10 -15 -26 -49 -36 -75 -10 -26 -22 -50 -26 -53 -5 -3 -9
-14 -9 -25 0 -11 -9 -38 -21 -61 -25 -49 -39 -131 -45 -258 -2 -52 -11 -144
-19 -205 -8 -60 -14 -179 -13 -263 0 -152 -6 -182 -37 -182 -7 0 -39 -12 -71
-26 -71 -32 -88 -37 -229 -74 -289 -75 -469 -127 -510 -148 -42 -23 -238 -81
-248 -75 -5 3 -34 -6 -65 -20 -31 -14 -84 -30 -117 -37 -98 -19 -188 -41 -229
-56 -42 -16 -166 -45 -206 -49 -14 -1 -33 -3 -42 -3 -9 -1 -26 -15 -38 -32
l-21 -29 38 -16 c30 -13 46 -14 78 -6 22 6 65 13 95 17 30 3 64 11 75 17 11 6
36 14 55 18 19 4 60 14 90 22 30 8 77 17 104 21 27 3 60 13 72 21 13 8 31 15
40 15 19 0 46 8 139 41 33 11 76 25 95 29 19 5 72 25 118 45 46 19 92 35 103
35 11 0 33 7 49 15 16 8 46 17 67 20 67 10 248 58 251 66 2 5 15 9 28 9 26 0
216 60 269 85 17 8 34 10 38 6 17 -17 45 -379 33 -419 -7 -21 -42 -27 -201
-38 -83 -6 -100 -13 -111 -46 -4 -14 8 -35 45 -78 44 -50 101 -143 101 -164 0
-12 84 -141 97 -149 7 -4 13 -13 13 -20 0 -7 16 -43 35 -82 19 -38 35 -76 35
-82 0 -14 57 -18 77 -5 6 4 41 65 77 136 36 71 72 136 80 145 8 9 18 28 21 44
4 15 15 33 25 40 10 7 26 28 36 48 29 54 89 142 113 163 11 10 32 38 46 62 20
34 23 48 15 68 -12 32 -30 33 -83 2 -44 -26 -80 -32 -238 -42 l-95 -6 -1 58
c0 33 -3 136 -7 229 l-8 170 74 37 c40 20 94 40 121 44 32 4 61 17 90 40 23
19 46 34 51 34 14 0 144 100 165 126 10 13 24 24 30 24 6 0 11 4 11 9 0 5 22
24 50 42 32 20 61 51 82 86 18 30 44 71 57 91 73 111 88 156 107 318 6 53 -13
111 -83 245 -76 146 -89 163 -145 190 -111 54 -208 74 -283 59z m175 -103 c30
-4 111 -50 132 -75 32 -36 112 -210 128 -277 13 -57 -31 -250 -61 -266 -11 -5
-19 -16 -19 -23 0 -25 -119 -183 -162 -215 -122 -90 -189 -138 -219 -155 -46
-26 -174 -84 -229 -103 -25 -8 -50 -19 -57 -25 -23 -18 -29 9 -34 157 0 10 16
227 27 360 3 39 7 102 8 140 2 39 7 79 13 90 10 19 37 124 35 135 0 3 5 12 13
20 7 8 27 51 44 95 33 84 62 113 135 142 28 11 169 11 246 0z"/>
<path d="M11460 7335 c-7 -8 -10 -23 -7 -34 2 -10 -2 -43 -10 -72 -8 -30 -18
-69 -23 -87 -11 -45 -15 -47 -44 -28 -32 20 -70 21 -90 0 -14 -13 -21 -33 -13
-34 1 0 27 -9 57 -19 53 -18 55 -19 52 -52 -2 -18 -24 -78 -48 -133 -24 -55
-44 -106 -44 -112 0 -18 70 -28 85 -12 18 19 67 146 72 189 4 25 13 41 28 49
20 11 30 8 75 -16 40 -22 59 -41 82 -80 19 -35 41 -58 63 -69 19 -9 35 -20 35
-25 0 -5 10 -10 23 -12 32 -4 24 -20 -20 -36 -46 -16 -99 -11 -156 17 -24 12
-48 21 -54 21 -9 0 -23 -22 -23 -35 0 -8 55 -55 64 -55 5 0 18 -7 28 -16 13
-13 37 -17 94 -17 73 0 77 1 109 34 48 49 51 71 18 106 -15 16 -40 37 -55 46
-16 10 -28 24 -28 31 0 18 106 46 148 39 25 -4 37 -1 47 13 18 24 18 29 -1 49
-14 13 -29 15 -83 10 -36 -4 -80 -13 -97 -20 -38 -18 -90 -6 -128 30 -15 14
-47 34 -71 45 -24 11 -45 25 -47 32 -3 7 4 51 14 98 11 47 17 100 14 119 -8
49 -41 67 -66 36z"/>
<path d="M9444 7302 c-10 -11 -29 -22 -41 -26 -28 -9 -30 -16 -23 -128 4 -82
8 -100 25 -112 26 -20 51 -20 59 -1 3 9 3 48 0 88 -10 116 6 136 130 162 48
10 15 27 -62 33 -60 4 -71 2 -88 -16z"/>
<path d="M9703 7290 c-48 -35 -53 -45 -62 -124 l-8 -58 33 -14 c18 -7 41 -25
52 -39 24 -30 111 -75 146 -75 15 0 29 7 32 15 8 19 35 19 60 0 34 -25 87 -19
119 15 16 17 33 30 38 30 18 0 -1 -135 -27 -200 -31 -76 -31 -77 -7 -90 31
-16 60 4 121 81 30 38 67 84 82 101 15 17 30 40 34 50 6 21 -6 41 -13 21 -3
-7 -10 -13 -16 -13 -7 0 -30 -14 -52 -30 -34 -26 -40 -28 -48 -15 -5 10 -4 21
2 29 17 21 26 198 12 225 -11 19 -9 26 13 48 25 25 26 27 9 47 -10 12 -19 23
-20 25 -1 2 -14 -4 -27 -13 -14 -9 -34 -16 -44 -16 -10 0 -27 -9 -37 -20 -10
-11 -26 -20 -36 -20 -10 0 -32 -12 -49 -27 -80 -71 -89 -84 -96 -134 -7 -49
-7 -49 -43 -49 -28 0 -46 8 -74 34 -20 18 -37 40 -37 48 0 13 75 58 97 58 17
0 55 47 44 55 -6 3 -9 11 -6 16 4 5 -7 23 -24 39 -42 43 -110 43 -168 0z m417
-106 c0 -23 -95 -124 -117 -124 -21 0 -24 19 -7 45 29 44 124 105 124 79z"/>
<path d="M7953 7292 c-18 -9 -33 -24 -33 -33 0 -8 -20 -35 -45 -60 -47 -45
-75 -95 -75 -133 0 -16 12 -28 45 -44 48 -23 95 -29 95 -12 0 6 9 10 20 10 10
0 39 11 64 25 25 14 47 25 50 25 3 0 22 -24 41 -54 38 -56 75 -81 106 -71 26
9 24 21 -10 64 -17 21 -48 78 -69 129 -22 50 -49 101 -61 113 -20 21 -23 22
-37 7 -14 -14 -15 -22 -5 -49 19 -56 14 -82 -23 -107 -52 -35 -105 -47 -124
-28 -14 14 -14 19 -1 42 8 15 40 52 72 83 58 56 72 93 41 105 -9 3 -16 6 -17
5 -1 0 -17 -8 -34 -17z"/>
<path d="M8352 7270 c-18 -11 -43 -20 -56 -20 -38 0 -46 -20 -41 -100 5 -87
20 -109 62 -94 25 9 28 14 25 50 -3 49 12 79 54 103 l33 20 36 -41 c19 -23 35
-50 35 -61 0 -32 33 -116 48 -122 40 -15 51 51 19 125 -41 97 -65 129 -103
136 -19 3 -34 10 -34 15 0 16 -44 10 -78 -11z"/>
<path d="M12250 7228 c-51 -69 -103 -156 -126 -208 -8 -19 -18 -42 -23 -51
-68 -122 -74 -159 -25 -159 13 0 24 -5 24 -12 0 -6 9 -3 20 7 11 10 20 22 20
27 0 5 16 41 35 79 19 39 35 78 35 88 0 22 71 162 105 206 32 43 34 85 3 85
-16 0 -36 -18 -68 -62z"/>
<path d="M10576 7255 c-9 -13 -16 -30 -16 -36 0 -33 -93 -159 -117 -159 -16 0
-18 106 -3 145 8 20 6 29 -10 45 -46 46 -69 15 -71 -93 -1 -41 -5 -80 -9 -87
-12 -20 1 -60 20 -60 10 0 23 -7 30 -15 14 -17 56 -20 65 -5 3 6 19 17 35 25
l29 15 11 -40 c11 -42 47 -77 64 -60 10 10 12 131 3 147 -2 4 0 19 5 33 17 41
18 128 2 141 -8 6 -11 15 -8 20 13 22 -15 6 -30 -16z"/>
<path d="M8563 7250 c-8 -12 -9 -21 -3 -25 6 -3 10 -14 10 -24 0 -23 64 -98
100 -116 25 -13 28 -18 20 -44 -4 -15 -13 -38 -20 -51 -13 -25 -81 -213 -77
-215 1 0 10 -6 19 -13 14 -11 21 -10 42 3 14 10 26 25 26 34 0 9 7 24 15 34 7
11 11 25 9 32 -3 7 6 29 20 50 14 21 26 46 26 56 0 10 5 21 10 24 6 3 10 16
10 28 0 12 9 33 20 47 11 14 20 29 20 33 0 9 35 92 50 119 18 32 12 48 -18 48
-21 0 -32 -8 -47 -37 -11 -20 -19 -41 -18 -47 1 -6 -9 -19 -23 -29 -25 -19
-26 -19 -65 9 -22 15 -45 37 -51 48 -13 25 -44 56 -55 56 -5 0 -14 -9 -20 -20z"/>
<path d="M19066 7216 c-7 -39 1 -66 19 -66 7 0 16 -13 20 -30 4 -16 15 -36 24
-42 10 -7 25 -27 35 -45 18 -35 43 -53 75 -53 28 0 27 31 -2 67 -12 15 -30 45
-39 65 -10 20 -33 55 -53 76 -19 22 -35 45 -35 51 0 6 -8 11 -19 11 -13 0 -21
-10 -25 -34z"/>
<path d="M5886 7227 c-14 -10 -17 -21 -13 -43 3 -16 10 -50 15 -76 5 -27 17
-63 27 -82 24 -45 8 -71 -39 -62 -45 9 -126 -13 -126 -35 0 -10 -3 -25 -7 -35
-4 -11 -3 -15 4 -11 6 4 13 2 15 -5 5 -14 60 -14 110 -1 60 17 85 7 91 -35 3
-21 10 -57 17 -82 6 -24 12 -69 13 -100 2 -50 5 -56 31 -69 26 -12 31 -12 43
5 17 23 16 49 -3 159 -24 136 -24 130 16 131 55 1 58 3 53 24 -6 22 -61 50
-97 50 -23 0 -51 49 -48 83 1 11 -5 17 -18 17 -18 0 -20 7 -20 61 0 40 -6 71
-17 90 -20 33 -22 34 -47 16z"/>
<path d="M10859 7212 c-45 -20 -109 -99 -109 -135 0 -9 -9 -18 -19 -22 -27 -8
-44 -32 -35 -47 5 -7 7 -21 6 -31 -6 -32 22 -77 58 -95 25 -12 59 -17 124 -17
64 0 91 -4 94 -13 7 -23 80 -52 131 -52 103 0 148 89 81 160 -16 18 -30 37
-30 43 0 6 -14 26 -32 44 -17 18 -28 36 -24 40 4 4 33 10 64 13 54 5 57 6 54
30 -5 32 -4 31 -54 40 -33 6 -51 4 -80 -11 -20 -10 -44 -19 -52 -19 -16 0 -46
-37 -46 -57 0 -7 19 -22 43 -34 49 -25 97 -67 97 -86 0 -7 5 -13 10 -13 6 0
15 -12 20 -26 15 -38 -3 -54 -60 -54 -41 0 -51 4 -80 37 -34 36 -34 36 -48 15
-18 -27 -42 -28 -120 -1 -55 19 -62 24 -62 47 0 24 8 30 61 52 51 21 65 32 86
71 34 59 27 93 -23 114 -20 8 -37 15 -38 14 0 0 -8 -3 -17 -7z m27 -74 c8 -13
-30 -48 -52 -48 -12 0 -12 5 1 30 16 31 38 39 51 18z"/>
<path d="M7363 7176 c-45 -40 -62 -46 -86 -34 -14 7 -24 5 -38 -8 -20 -18 -26
-44 -9 -44 6 0 15 -12 21 -27 5 -16 19 -47 30 -69 11 -23 20 -63 21 -89 0 -40
4 -48 26 -56 21 -8 29 -7 39 7 18 24 16 51 -6 119 -17 50 -17 60 -5 72 8 8 14
21 14 29 0 18 18 37 42 46 18 8 48 -20 48 -44 0 -30 12 -49 42 -64 38 -20 56
-6 64 48 4 21 10 41 15 44 23 14 64 -40 84 -114 9 -32 43 -48 62 -29 12 12 13
22 3 58 -13 49 -64 119 -86 119 -8 0 -13 5 -11 12 3 14 -40 38 -69 38 -11 0
-29 -9 -39 -20 -24 -26 -31 -25 -72 10 -18 17 -38 30 -43 30 -6 0 -27 -15 -47
-34z"/>
<path d="M6644 7079 c-25 -7 -36 -20 -54 -61 -25 -56 -28 -141 -7 -166 19 -23
104 -60 156 -67 44 -6 52 -4 81 22 27 24 32 37 35 81 3 41 1 52 -11 52 -8 0
-12 5 -9 10 7 12 -16 53 -50 87 -17 18 -101 58 -109 52 0 0 -15 -5 -32 -10z
m104 -90 c37 -27 42 -35 42 -71 0 -40 -27 -77 -58 -78 -18 0 -79 47 -86 67
-13 32 26 113 54 113 3 0 25 -14 48 -31z"/>
<path d="M6256 6949 c-14 -11 -26 -26 -26 -34 0 -7 -7 -18 -15 -25 -24 -20
-35 -76 -23 -113 16 -46 59 -87 94 -89 64 -3 157 21 193 50 51 41 57 55 41 89
-7 15 -13 31 -12 35 2 10 -90 89 -116 99 -42 16 -107 10 -136 -12z m162 -69
c42 -39 43 -41 31 -75 -12 -31 -17 -35 -63 -40 -61 -8 -106 7 -106 34 0 10 7
35 15 55 13 30 20 36 48 37 17 0 26 3 20 6 -7 2 -13 9 -13 14 0 19 27 7 68
-31z"/>
<path d="M11918 6683 c-19 -5 -32 -40 -26 -69 2 -11 17 -22 37 -28 28 -8 36
-7 47 9 19 26 17 52 -6 75 -20 20 -22 21 -52 13z"/>
<path d="M7730 6640 c-125 -28 -217 -79 -291 -161 -92 -102 -126 -169 -144
-279 -2 -14 -11 -52 -19 -85 -17 -66 -21 -171 -7 -179 5 -4 12 -25 16 -47 8
-47 57 -143 89 -175 20 -19 85 -54 102 -54 4 0 15 -7 25 -16 42 -38 168 -54
314 -41 33 4 101 8 150 10 50 3 99 7 110 9 118 29 115 27 166 107 27 42 49 84
49 93 0 9 5 20 11 23 5 4 24 37 41 73 29 63 30 72 24 154 -3 47 -13 108 -21
135 -21 62 -56 133 -67 133 -4 0 -8 8 -8 18 0 40 -173 252 -206 252 -7 0 -14
4 -16 10 -4 14 -133 40 -193 39 -27 -1 -84 -9 -125 -19z m244 -69 c3 -4 19
-11 34 -14 36 -7 140 -101 159 -142 7 -16 19 -39 25 -50 36 -58 43 -71 43 -78
0 -4 6 -11 13 -16 8 -4 12 -14 11 -22 -2 -8 5 -38 15 -68 20 -58 19 -178 -1
-216 -6 -11 -26 -55 -43 -97 -48 -114 -87 -143 -217 -162 -48 -7 -110 -12
-138 -11 -27 1 -76 -2 -108 -7 -42 -7 -63 -6 -73 3 -8 6 -23 9 -33 6 -21 -5
-154 35 -176 53 -7 6 -23 13 -36 15 -32 6 -55 38 -79 111 -36 106 -27 207 30
362 24 63 44 96 83 139 16 17 26 36 23 42 -4 6 0 11 10 11 9 0 37 15 63 33 25
18 64 41 86 50 107 44 296 80 309 58z"/>
<path d="M7775 6380 c-66 -10 -111 -34 -130 -69 -11 -23 -12 -31 -2 -39 25
-21 65 -24 98 -6 19 10 57 21 84 25 41 5 58 2 96 -17 25 -12 52 -30 59 -39 12
-15 9 -21 -25 -51 -22 -19 -45 -34 -52 -34 -7 0 -28 -11 -48 -24 -20 -14 -57
-28 -82 -32 -41 -6 -83 -32 -83 -51 0 -5 12 -16 26 -27 20 -14 36 -17 72 -12
155 21 154 21 190 -16 19 -20 34 -47 35 -63 3 -46 -28 -56 -159 -53 -93 3
-115 6 -133 22 -19 18 -22 18 -46 2 -28 -19 -29 -22 -15 -63 18 -51 94 -67
257 -55 101 8 114 11 133 33 35 41 52 80 46 105 -7 26 -91 154 -108 165 -15
10 -2 26 42 54 53 33 65 57 46 92 -17 34 -83 93 -102 93 -8 0 -14 4 -14 9 0 5
-15 15 -34 21 -19 6 -40 18 -46 26 -13 15 -27 16 -105 4z"/>
<path d="M10390 6653 c-48 -4 -47 -3 -162 -58 -82 -38 -105 -62 -161 -170 -44
-85 -65 -147 -78 -230 -27 -174 -6 -284 80 -402 40 -55 110 -94 181 -100 96
-9 92 33 -6 62 -109 31 -169 123 -183 279 -7 83 2 141 40 253 49 143 94 197
204 246 61 27 83 31 172 34 56 1 105 -2 108 -6 3 -5 13 -7 23 -5 31 8 199
-168 219 -228 3 -10 9 -18 14 -18 5 0 9 -10 9 -23 0 -12 7 -33 16 -45 19 -28
37 -186 24 -227 -5 -16 -14 -50 -20 -75 -7 -24 -21 -55 -31 -69 -10 -13 -19
-31 -19 -40 0 -15 -63 -89 -78 -92 -12 -3 -56 -8 -97 -12 -65 -7 -116 -18
-178 -38 -35 -12 -80 -19 -115 -17 -65 2 -123 -21 -100 -39 7 -6 45 -20 84
-31 68 -21 137 -21 150 -1 3 5 16 9 29 9 13 0 44 7 69 15 24 8 66 17 94 20 97
9 152 45 205 132 70 116 102 279 77 391 -17 75 -40 143 -57 163 -7 8 -13 21
-13 28 0 22 -33 71 -52 77 -10 3 -18 13 -18 22 0 9 -30 46 -68 82 -56 55 -79
70 -144 93 -74 26 -103 29 -218 20z"/>
<path d="M9195 6644 c-79 -6 -184 -25 -191 -35 -3 -5 -20 -16 -37 -24 -91 -42
-208 -140 -232 -194 -36 -80 -43 -99 -63 -166 -37 -125 -40 -151 -31 -237 5
-46 14 -100 20 -120 11 -42 54 -98 75 -98 8 0 14 -3 14 -8 0 -23 160 -72 234
-72 39 0 97 -18 111 -35 28 -33 192 -41 240 -11 11 7 34 15 50 19 81 15 149
51 197 101 71 75 97 135 99 226 0 41 -2 89 -6 105 -17 67 -77 240 -99 284 -58
116 -67 131 -76 131 -6 0 -10 6 -10 13 0 23 -72 91 -110 104 -41 15 -115 22
-185 17z m131 -79 c33 -10 61 -27 82 -51 18 -20 32 -38 32 -40 0 -2 18 -31 40
-65 22 -34 40 -66 40 -72 0 -5 7 -23 15 -40 30 -65 48 -125 64 -212 17 -94 18
-100 9 -125 -3 -8 -13 -36 -22 -61 -14 -38 -28 -55 -76 -88 -33 -23 -83 -50
-112 -60 -29 -11 -75 -28 -102 -40 -47 -21 -51 -21 -110 -5 -33 9 -72 19 -85
22 -14 3 -40 16 -59 29 -38 25 -62 29 -80 11 -28 -28 -181 46 -220 107 -23 36
-26 50 -27 135 0 84 4 109 39 212 34 105 43 122 83 160 25 24 61 58 79 76 18
17 39 32 47 32 8 0 20 7 27 15 26 31 142 63 271 74 8 0 38 -6 65 -14z"/>
<path d="M9045 6367 c-50 -18 -61 -26 -63 -48 -5 -43 29 -50 123 -26 l80 20
43 -27 c23 -15 47 -37 51 -49 19 -50 21 -83 8 -102 -14 -19 -15 -19 -43 0 -19
13 -46 19 -79 18 -47 0 -54 -4 -106 -54 -61 -59 -84 -105 -65 -130 43 -60 171
-48 265 23 30 23 37 18 98 -74 49 -73 82 -93 110 -65 16 16 15 19 -28 65 -9 9
-30 42 -48 72 -17 30 -37 63 -44 72 -9 14 -8 23 6 47 17 30 22 63 10 74 -3 4
-8 19 -9 33 -2 14 -17 47 -34 74 -57 89 -164 119 -275 77z m153 -293 c30 -8
27 -15 -14 -41 -38 -24 -114 -42 -114 -26 0 11 80 73 94 73 6 0 21 -3 34 -6z"/>
<path d="M12059 6354 c-8 -9 -34 -55 -60 -103 -44 -84 -46 -86 -79 -83 -19 1
-54 9 -78 18 -25 8 -78 17 -119 19 -42 2 -80 8 -87 13 -15 12 -239 37 -301 33
-107 -5 -180 -21 -197 -42 -45 -54 -7 -69 175 -69 78 0 219 -9 313 -20 188
-21 271 -45 266 -77 -1 -10 -5 -36 -9 -58 -3 -22 -9 -44 -13 -50 -7 -9 -30
-136 -30 -164 0 -5 24 -15 53 -22 48 -10 60 -9 113 9 32 12 90 24 128 27 39 4
77 10 86 15 21 11 145 15 195 6 52 -10 70 8 61 59 -5 24 -15 39 -34 49 -15 8
-40 35 -56 60 -16 25 -33 46 -38 46 -5 0 -13 12 -19 28 -6 15 -25 50 -43 77
-18 28 -46 73 -61 100 -33 60 -113 145 -136 145 -9 0 -23 -7 -30 -16z"/>
<path d="M10441 6342 c-5 -10 -12 -105 -16 -210 l-6 -192 27 -11 c51 -19 56
-2 59 203 1 100 -2 193 -6 206 -10 27 -44 29 -58 4z"/>
<path d="M7099 6206 c-2 -2 -49 -7 -104 -10 -214 -14 -414 -45 -442 -68 -9 -7
-13 -7 -13 1 0 14 -67 14 -76 0 -3 -6 -20 -9 -38 -6 -29 4 -65 -3 -111 -23
-31 -14 -173 -40 -214 -40 -22 0 -57 -11 -82 -25 -24 -13 -61 -32 -81 -41 -21
-9 -38 -20 -38 -24 0 -4 -17 -10 -37 -14 -21 -3 -55 -17 -75 -31 -20 -14 -46
-25 -57 -25 -11 0 -23 -4 -26 -10 -3 -5 -14 -10 -24 -10 -22 0 -37 -17 -46
-51 -6 -23 -2 -27 33 -38 37 -13 44 -11 158 37 65 28 133 57 149 66 17 9 37
16 45 16 9 0 24 6 35 13 29 19 83 35 140 43 28 3 57 10 66 15 17 9 130 28 352
59 75 10 142 22 147 25 5 3 42 8 82 11 40 3 105 12 143 19 39 8 91 17 117 20
50 7 51 11 29 68 -10 25 -21 33 -32 23z"/>
<path d="M14830 5951 c-8 -6 -62 -10 -120 -10 -169 -1 -575 -17 -586 -24 -6
-3 -46 -9 -90 -12 -98 -7 -472 -7 -483 -1 -17 11 -487 15 -525 5 -57 -15 -133
-29 -191 -34 -64 -6 -88 -29 -76 -71 11 -41 5 -340 -9 -384 -6 -19 -10 -101
-9 -182 0 -80 -4 -154 -9 -165 -5 -10 -6 -41 -3 -70 4 -29 3 -59 -1 -68 -5 -8
-8 -64 -7 -123 2 -59 -1 -136 -5 -172 -8 -71 -8 -128 -2 -330 2 -74 1 -198 -3
-275 -4 -77 -5 -169 -1 -205 4 -36 3 -75 -1 -86 -4 -12 -10 -75 -14 -140 -3
-66 -10 -162 -16 -214 -5 -52 -11 -205 -13 -340 -3 -136 -9 -261 -15 -281 -6
-20 -13 -63 -15 -95 -3 -33 -9 -76 -14 -96 -9 -35 -8 -39 22 -61 25 -19 51
-26 134 -35 106 -11 447 -8 627 5 146 10 424 4 495 -11 14 -3 113 -8 220 -11
107 -3 224 -8 260 -11 238 -17 308 -21 335 -18 17 2 98 13 180 23 83 11 242
25 355 31 113 7 209 16 214 21 6 5 26 9 47 9 20 0 59 4 88 10 28 5 93 12 145
15 52 2 105 9 118 13 31 11 387 6 419 -6 16 -7 48 -5 94 3 39 8 102 16 140 19
150 13 183 16 265 25 47 5 96 9 110 10 179 4 281 11 299 21 13 6 30 9 38 5 9
-3 87 -8 172 -11 86 -2 177 -10 204 -16 38 -10 79 -9 210 6 125 13 178 15 231
7 74 -11 119 -6 136 13 6 8 6 32 -1 72 -6 32 -10 65 -10 72 1 6 1 18 1 25 1
15 -20 128 -24 136 -2 3 1 47 6 96 5 50 10 106 12 125 2 19 0 69 -5 110 -11
91 -13 368 -5 585 5 147 14 300 17 300 7 0 20 266 24 520 3 206 9 316 26 468
5 53 7 101 4 106 -3 5 -1 12 5 16 5 3 10 16 9 28 0 12 7 80 16 150 11 94 12
133 4 148 -7 15 -7 24 2 35 10 13 9 59 -4 134 -6 33 -19 37 -139 44 -68 3
-139 10 -158 16 -83 22 -512 33 -715 18 -16 -1 -106 6 -200 16 -93 10 -219 19
-280 20 -60 1 -150 8 -200 14 -49 7 -121 17 -160 22 -38 6 -149 13 -245 16
-96 3 -224 12 -285 20 -117 15 -317 13 -395 -4 -82 -18 -459 -19 -504 -2 -39
14 -130 21 -146 11z m1025 -114 c62 -7 280 -20 303 -17 55 5 79 5 92 -2 8 -4
94 -15 190 -24 188 -17 243 -21 445 -29 72 -2 141 -7 155 -9 124 -24 161 -27
250 -18 141 14 505 6 651 -14 68 -9 146 -17 173 -18 39 -1 51 -5 57 -21 13
-31 9 -200 -7 -305 -22 -143 -32 -227 -38 -305 -12 -151 -19 -251 -18 -270 7
-171 -3 -511 -18 -590 -5 -27 -9 -70 -9 -95 1 -25 -4 -98 -11 -164 -8 -80 -9
-208 -4 -395 7 -300 8 -333 5 -556 -1 -98 3 -172 12 -213 10 -46 11 -65 3 -68
-6 -2 -54 -6 -106 -9 -52 -2 -151 -7 -220 -11 -85 -4 -143 -3 -180 6 -138 30
-153 30 -720 0 -163 -8 -403 -32 -510 -50 -40 -7 -71 -6 -115 4 -86 20 -314
21 -373 2 -26 -8 -86 -17 -134 -21 -48 -3 -124 -13 -170 -21 -46 -8 -175 -21
-288 -29 -113 -8 -261 -22 -330 -30 -131 -17 -383 -22 -510 -10 -41 4 -149 11
-240 15 -91 5 -237 14 -325 21 -221 16 -360 16 -570 0 -250 -19 -583 -11 -578
14 27 158 37 303 39 570 2 165 5 329 7 365 15 199 18 349 22 879 3 347 9 608
15 643 6 32 8 84 5 116 -4 31 0 143 9 249 9 106 13 199 10 208 -4 8 -3 44 1
79 l6 64 42 6 c65 11 299 38 327 38 57 0 368 -13 405 -17 98 -10 354 -4 540
14 125 12 171 15 270 13 39 -1 192 -1 340 0 149 1 343 -1 433 -4 98 -3 165 -1
169 5 3 5 23 7 44 4 22 -3 41 -2 43 1 5 9 332 7 411 -1z"/>
<path d="M13619 5536 c-2 -2 -74 -6 -160 -10 -86 -3 -164 -8 -172 -12 -41 -15
-23 -83 23 -85 37 -3 121 1 239 10 130 10 137 8 138 -32 5 -297 -6 -485 -30
-515 -6 -7 -20 -11 -31 -8 -12 3 -84 6 -160 7 -132 2 -141 1 -154 -19 -12 -18
-11 -24 3 -45 19 -30 94 -43 220 -39 44 2 132 5 195 7 251 9 269 11 290 30 40
36 27 42 -122 51 l-143 9 0 32 c0 17 -3 35 -7 39 -4 4 -3 13 4 21 7 9 11 85
12 231 l1 217 68 2 c53 1 76 -3 102 -18 45 -27 79 -22 83 12 2 18 -4 30 -20
41 -32 20 -156 57 -193 57 -16 -1 -61 4 -100 10 -81 12 -80 12 -86 7z"/>
<path d="M15313 5434 c-3 -9 -1 -45 6 -81 14 -75 5 -212 -14 -219 -7 -3 -46 1
-86 9 -113 21 -166 -2 -126 -54 7 -10 59 -29 115 -44 l102 -28 -6 -56 c-3 -31
-10 -80 -15 -110 -15 -90 -12 -125 14 -149 52 -49 66 -19 73 151 4 105 9 135
22 145 9 7 46 12 90 12 64 0 76 3 93 23 32 39 25 47 -43 48 -35 0 -79 5 -98
12 -40 14 -42 25 -41 169 1 61 -4 88 -23 133 -25 55 -50 71 -63 39z"/>
<path d="M14192 5232 c-18 -10 -45 -38 -59 -63 -14 -24 -37 -56 -50 -70 -22
-24 -23 -29 -17 -128 7 -95 10 -106 35 -134 43 -47 52 -29 54 110 1 108 4 122
28 164 25 43 60 69 92 69 24 0 78 -63 106 -126 34 -75 52 -173 44 -235 -6 -41
-4 -49 13 -58 14 -7 24 -7 36 2 23 17 29 135 10 190 -8 22 -14 50 -14 62 0 28
-41 104 -94 173 -35 45 -45 52 -76 52 -19 0 -44 2 -55 5 -11 3 -35 -3 -53 -13z"/>
<path d="M14845 5223 c-80 -17 -186 -57 -206 -79 -21 -22 -22 -27 -10 -60 7
-19 28 -49 48 -67 19 -18 42 -40 51 -50 10 -10 37 -29 62 -42 50 -26 110 -80
110 -100 0 -19 -46 -33 -132 -41 -72 -6 -81 -4 -123 20 -36 22 -49 25 -65 16
-25 -13 -16 -34 35 -79 35 -30 38 -31 135 -31 163 0 220 19 235 80 5 21 0 30
-24 48 -17 12 -31 29 -31 37 0 8 -10 20 -22 26 -32 17 -114 86 -164 139 -54
56 -49 61 79 84 165 29 190 40 169 74 -6 9 -127 39 -127 31 0 -1 -9 -3 -20 -6z"/>
<path d="M15874 5101 c-21 -15 -50 -41 -64 -56 -14 -15 -59 -54 -101 -86 -81
-62 -156 -139 -170 -177 -13 -34 13 -87 53 -108 18 -10 39 -17 46 -15 7 1 29
-3 49 -10 25 -8 38 -8 46 0 6 6 19 11 28 11 35 0 106 41 153 89 38 39 53 48
63 39 7 -6 13 -18 13 -27 0 -26 39 -101 52 -101 6 0 19 -7 29 -16 22 -20 40
-14 58 19 16 30 7 67 -11 49 -17 -17 -28 -15 -28 7 0 10 -7 24 -15 31 -7 6
-17 33 -21 58 -4 26 -9 52 -12 57 -4 6 -8 19 -9 30 -2 11 -8 24 -13 29 -6 6
-10 18 -10 27 0 18 -19 29 -50 29 -26 0 -43 -35 -35 -70 5 -25 -1 -38 -37 -84
-81 -102 -191 -143 -252 -95 -24 19 -25 22 -11 48 7 15 24 35 37 43 40 27 171
138 230 197 58 57 68 77 46 99 -17 17 -20 16 -64 -17z"/>
<path d="M16302 5059 c-23 -11 -50 -32 -60 -47 -9 -15 -33 -43 -53 -64 l-35
-36 8 -84 c11 -123 16 -143 42 -165 22 -20 23 -20 35 -1 12 19 34 206 26 219
-3 4 4 28 16 53 25 57 61 76 92 49 24 -22 77 -130 77 -158 0 -11 7 -42 15 -69
8 -27 15 -88 15 -136 0 -66 4 -91 15 -100 9 -7 17 -11 18 -9 33 46 36 60 32
152 -2 52 -8 104 -13 114 -5 10 -7 24 -4 31 2 8 0 24 -6 35 -5 12 -20 57 -33
100 -37 121 -96 157 -187 116z"/>
<path d="M16940 5070 c-38 -8 -108 -39 -152 -68 -43 -27 -128 -131 -128 -156
0 -12 -5 -27 -11 -33 -6 -6 -13 -37 -15 -69 -5 -55 -3 -61 26 -92 40 -43 93
-70 160 -79 75 -11 190 2 240 28 l41 22 22 -21 c12 -11 34 -31 49 -44 79 -71
283 -72 362 -2 15 14 26 27 24 30 -10 9 -117 7 -130 -3 -9 -6 -39 -6 -92 2
-74 10 -81 14 -112 51 -19 21 -34 46 -34 55 0 16 38 31 115 45 83 15 185 98
185 150 0 53 -97 124 -168 124 -41 0 -122 -35 -122 -53 0 -4 -15 -24 -34 -43
-20 -20 -38 -53 -45 -79 -6 -25 -20 -49 -30 -54 -27 -15 -32 -37 -16 -67 17
-34 13 -41 -28 -49 -17 -4 -38 -12 -44 -17 -24 -19 -239 26 -269 56 -8 9 -20
16 -26 16 -7 0 -7 4 0 13 6 7 10 22 10 32 -4 50 75 156 137 188 17 8 60 23 95
32 73 19 102 39 98 69 -3 24 -46 30 -108 16z m430 -165 c16 -8 27 -21 24 -28
-13 -34 -184 -78 -184 -47 0 5 16 28 36 50 40 44 73 51 124 25z"/>
<path d="M4360 5769 c-25 -4 -88 -10 -140 -14 -52 -3 -103 -8 -112 -11 -9 -3
-97 -7 -195 -10 -194 -5 -228 -7 -318 -18 -36 -5 -91 -4 -135 3 -41 6 -113 11
-160 12 -173 1 -806 -11 -835 -17 -116 -21 -269 -26 -800 -26 -343 0 -610 4
-639 10 -31 6 -86 6 -155 0 -134 -12 -249 -18 -377 -21 -120 -3 -140 -12 -118
-57 9 -16 17 -72 20 -132 3 -57 10 -123 15 -148 13 -59 19 -115 24 -220 9
-202 18 -316 27 -327 5 -7 7 -17 3 -24 -4 -6 -7 -75 -6 -153 0 -77 0 -172 -1
-211 -4 -183 1 -315 16 -480 18 -187 20 -334 7 -445 -6 -49 -6 -378 0 -605 0
-5 0 -106 -1 -224 -1 -165 2 -216 12 -222 7 -5 13 -21 13 -36 0 -18 5 -28 15
-28 9 0 14 -8 12 -18 -2 -9 3 -17 10 -18 159 -6 474 3 563 16 59 9 112 18 115
20 12 8 132 15 350 21 292 9 360 7 495 -11 180 -24 550 -29 790 -10 110 8 214
15 230 14 17 -1 71 1 120 5 50 4 100 9 112 9 12 1 25 5 29 9 4 5 31 8 60 8 29
0 78 8 111 18 48 14 94 17 266 16 141 0 227 4 270 13 59 13 267 24 462 24 80
0 399 21 530 35 179 19 340 23 355 8 24 -24 149 20 150 53 0 6 -10 19 -21 27
-13 9 -19 21 -16 30 4 9 6 19 6 22 0 4 4 10 10 13 14 9 14 38 1 136 -12 95
-13 236 0 249 5 5 5 19 -1 33 -5 13 -8 34 -8 46 0 22 -3 39 -14 67 -21 55 -27
244 -13 405 3 35 0 65 -6 72 -6 7 -12 53 -14 101 -2 48 -6 106 -9 128 -3 21
-8 65 -12 97 -4 43 -10 57 -22 57 -15 1 -15 2 0 13 12 9 13 16 6 28 -6 9 -7
24 -2 35 4 11 7 24 6 29 -2 6 -4 65 -6 133 -2 71 -8 128 -14 136 -8 10 -8 16
3 25 11 9 12 19 5 41 -7 20 -7 35 0 49 14 26 14 84 -1 99 -8 8 -8 15 1 25 6 8
11 30 10 48 0 19 3 102 6 184 4 83 7 159 6 170 0 11 0 34 1 50 1 17 1 46 0 65
0 19 3 39 8 45 9 11 6 165 -4 195 -4 14 -16 112 -21 183 -1 15 -4 28 -5 30 -1
1 -4 15 -6 31 -2 16 -7 33 -12 38 -32 32 -351 66 -425 45 -17 -5 -26 -4 -23 1
3 5 -40 12 -97 16 -76 5 -116 3 -159 -8 -49 -13 -62 -13 -90 -2 -35 15 -178
17 -258 5z m925 -112 c36 -8 61 -19 64 -27 28 -117 31 -549 5 -890 -4 -52 -8
-167 -10 -255 -2 -88 -5 -167 -6 -175 -5 -28 13 -201 23 -228 11 -27 14 -74
24 -302 5 -108 10 -165 14 -165 3 0 3 -74 0 -200 -1 -56 3 -110 8 -120 6 -11
14 -76 18 -145 4 -68 8 -127 10 -130 3 -5 9 -75 19 -227 0 -12 4 -24 8 -28 3
-4 2 -20 -4 -36 -6 -17 -8 -45 -5 -64 7 -45 -7 -55 -68 -47 -28 3 -81 4 -120
3 -38 -2 -106 -4 -150 -5 -44 -1 -84 -4 -90 -7 -5 -3 -53 -6 -105 -8 -52 -1
-113 -6 -135 -11 -23 -5 -51 -7 -63 -3 -12 3 -120 0 -240 -7 -119 -7 -248 -14
-287 -15 -38 -2 -124 -9 -190 -15 -66 -7 -151 -11 -190 -10 -133 6 -191 5
-340 -8 -82 -7 -172 -20 -198 -29 -38 -12 -80 -14 -210 -10 -115 3 -171 1
-197 -8 -19 -7 -67 -15 -106 -18 -39 -4 -77 -9 -86 -12 -24 -10 -526 13 -633
29 -180 26 -689 7 -930 -34 -100 -17 -217 -30 -226 -24 -4 2 -59 5 -121 5 -62
0 -134 2 -159 5 l-46 5 -2 127 c-2 70 -5 269 -7 442 -2 173 -6 326 -8 340 -2
14 0 50 4 80 4 30 4 60 0 65 -5 6 -3 18 4 27 9 12 12 64 10 190 -2 95 -5 186
-8 203 -15 95 -18 158 -22 497 -6 497 -10 606 -22 653 -6 22 -10 79 -10 127 0
48 -3 92 -6 97 -7 11 -20 169 -21 241 l0 45 85 2 c47 1 126 8 175 15 117 16
463 13 491 -5 8 -4 679 -12 779 -9 28 1 82 1 130 -1 52 -1 288 24 305 33 10 5
74 10 142 9 197 -2 300 0 518 6 250 7 268 7 350 -6 35 -5 80 -8 100 -5 19 3
105 8 190 11 287 10 395 15 441 21 25 3 73 6 107 8 34 1 67 7 73 13 16 16 846
7 924 -10z"/>
<path d="M2770 5265 c-6 -8 -9 -18 -6 -23 3 -5 7 -29 10 -53 4 -43 88 -386
106 -433 10 -27 14 -25 -109 -47 -140 -24 -213 -111 -187 -222 17 -73 41 -105
88 -117 108 -30 200 1 282 92 58 64 97 139 82 155 -43 42 -65 82 -98 178 -21
61 -38 121 -38 135 -1 14 -12 57 -27 95 -14 39 -25 84 -25 100 1 17 -6 58 -15
93 -17 64 -36 79 -63 47z m120 -636 c0 -5 4 -9 9 -9 13 0 80 -43 81 -52 0 -13
-135 -115 -169 -127 -52 -17 -95 -13 -132 12 -27 18 -35 30 -37 60 -3 31 3 43
36 79 33 35 47 43 88 47 60 7 124 2 124 -10z"/>
<path d="M890 5225 c-11 -13 -10 -29 1 -88 8 -40 13 -92 13 -117 -1 -25 3 -48
8 -51 7 -4 6 -14 -1 -27 -6 -11 -11 -63 -11 -114 -1 -97 -23 -308 -34 -326 -4
-6 2 -16 13 -21 11 -6 26 -18 35 -26 13 -14 27 -14 95 -5 44 6 112 11 153 11
40 1 108 6 151 11 69 9 77 13 77 32 0 14 -12 28 -34 40 -30 16 -50 18 -153 13
-65 -3 -139 -9 -164 -13 -29 -4 -54 -2 -68 6 -21 11 -22 16 -18 108 3 53 8
104 11 112 13 34 13 316 0 380 -16 79 -46 109 -74 75z"/>
<path d="M2244 4876 c-29 -13 -146 -113 -172 -148 -7 -9 -30 -34 -51 -55 -40
-40 -48 -56 -55 -111 -4 -39 19 -73 66 -95 29 -13 41 -13 96 -2 53 11 69 20
97 52 19 21 34 43 35 49 0 5 6 19 14 29 13 18 16 14 44 -47 32 -66 45 -78 87
-78 37 0 37 14 1 78 -19 33 -32 63 -29 65 7 7 -47 139 -65 160 -8 9 -20 17
-27 17 -20 0 -44 -34 -49 -70 -6 -53 -43 -131 -79 -167 -23 -25 -39 -33 -66
-33 -59 0 -66 10 -41 63 25 53 202 229 239 237 33 7 49 34 32 54 -16 19 -36
20 -77 2z"/>
<path d="M1531 4836 c-64 -36 -97 -82 -110 -150 -12 -66 -7 -98 22 -139 46
-66 160 -105 254 -88 65 13 108 39 140 86 23 34 24 42 18 115 -6 66 -10 79
-27 83 -14 4 -18 11 -14 25 5 14 -1 22 -19 30 -14 6 -25 16 -25 22 0 5 -8 10
-18 10 -10 0 -23 5 -28 10 -6 6 -42 13 -80 16 -60 4 -75 1 -113 -20z m208 -80
c42 -43 57 -103 37 -151 -17 -40 -76 -73 -148 -82 -44 -5 -48 -4 -48 16 0 16
-8 23 -31 28 -49 10 -66 91 -33 156 30 57 44 64 135 66 50 1 58 -2 88 -33z"/>
<path d="M2092 3823 c-19 -38 -23 -106 -8 -152 15 -45 33 -170 43 -286 3 -33
9 -64 13 -70 10 -12 32 -193 30 -243 -3 -62 -1 -69 21 -75 46 -12 50 -2 45
111 -2 57 -8 107 -13 111 -5 3 -9 24 -9 46 0 23 -4 46 -8 53 -4 7 -9 51 -12
99 -6 119 -18 212 -32 246 -7 16 -12 39 -12 52 0 13 -5 47 -11 75 -11 52 -30
65 -47 33z"/>
<path d="M949 3791 c-54 -21 -114 -65 -124 -89 -4 -11 2 -23 15 -34 30 -25 45
-22 59 8 6 15 13 25 15 23 5 -5 19 -139 42 -392 12 -126 14 -192 7 -226 l-10
-48 42 -40 c45 -42 103 -61 124 -40 6 6 33 11 59 12 29 1 56 8 68 18 10 9 35
31 54 48 19 17 45 38 58 46 12 9 22 20 22 27 0 6 6 22 13 36 21 40 -8 100 -67
134 -25 15 -46 31 -46 36 0 12 -75 60 -93 60 -17 0 -54 66 -44 77 4 4 14 8 21
9 8 1 44 19 80 39 74 41 96 72 96 134 0 56 -46 101 -160 158 -58 29 -164 30
-231 4z m220 -68 c56 -15 65 -21 94 -63 26 -38 21 -58 -22 -80 -22 -11 -44
-26 -48 -33 -4 -8 -21 -17 -38 -21 -49 -12 -140 -24 -145 -19 -3 3 -5 54 -5
114 0 82 3 112 14 118 17 11 78 4 150 -16z m-79 -360 c31 -18 74 -48 95 -68
22 -19 44 -35 49 -35 4 0 27 -14 50 -32 22 -17 42 -33 44 -33 1 -1 -4 -17 -12
-36 -17 -41 -52 -68 -126 -97 -80 -31 -109 -36 -133 -23 -20 10 -22 21 -23 94
-1 45 -4 124 -7 175 -3 51 -2 92 2 90 3 -2 31 -18 61 -35z"/>
<path d="M3693 3485 c-51 -24 -98 -70 -126 -123 -9 -17 -24 -46 -33 -62 -9
-17 -18 -67 -21 -111 -5 -74 -4 -81 18 -105 32 -34 74 -53 134 -60 41 -5 60
-2 95 16 49 25 79 56 80 83 0 22 -3 22 -67 -9 -45 -21 -62 -24 -101 -18 -26 3
-52 11 -59 16 -21 17 -25 82 -8 129 9 24 19 53 22 64 7 26 78 100 121 126 21
14 32 28 32 44 0 33 -31 37 -87 10z"/>
<path d="M4696 3476 c-34 -10 -69 -27 -79 -37 -10 -10 -21 -19 -25 -19 -4 0
-16 -13 -25 -30 -10 -16 -23 -30 -29 -30 -11 0 -58 50 -58 63 0 13 -37 7 -50
-8 -10 -12 -8 -25 8 -67 58 -148 72 -190 72 -207 0 -30 11 -51 26 -51 8 0 14
-4 14 -10 0 -5 11 -10 24 -10 30 0 36 22 31 110 -4 75 11 150 34 167 9 7 41
25 71 42 53 28 59 29 160 26 101 -4 152 4 116 18 -9 4 -16 12 -16 19 0 17 -88
39 -159 41 -30 1 -82 -6 -115 -17z"/>
<path d="M1860 3481 c0 -5 -14 -12 -30 -16 -17 -4 -43 -17 -58 -30 -15 -12
-48 -32 -74 -44 -56 -25 -122 -90 -149 -146 -11 -22 -26 -51 -34 -65 -20 -34
-19 -93 3 -118 21 -24 72 -42 120 -42 39 0 102 20 102 32 0 4 14 23 31 43 17
19 28 35 23 35 -4 0 1 9 12 21 10 12 18 30 16 40 -2 10 1 19 5 19 10 0 63
-114 63 -135 0 -17 39 -26 61 -14 15 8 16 14 7 39 -5 17 -14 33 -19 36 -5 3
-9 18 -9 34 0 30 -47 160 -61 170 -4 3 -10 17 -14 32 -6 24 -2 30 28 48 36 21
40 44 13 62 -15 11 -36 10 -36 -1z m-63 -153 c-3 -13 -9 -44 -12 -70 -4 -26
-13 -53 -21 -59 -8 -6 -14 -17 -14 -23 0 -7 -19 -31 -42 -53 -41 -40 -45 -42
-82 -33 -56 13 -64 24 -42 65 27 50 104 131 156 164 55 36 64 37 57 9z"/>
<path d="M2644 3475 c-4 -8 -11 -15 -17 -15 -39 0 -240 -177 -273 -242 -9 -18
-25 -44 -35 -58 -38 -55 -32 -140 11 -140 10 0 20 -5 22 -11 6 -18 121 -23
159 -6 19 8 48 20 66 27 17 6 41 22 54 36 23 24 45 31 51 15 2 -5 18 -12 36
-16 35 -7 50 10 37 43 -8 17 -12 46 -19 117 -8 75 -26 149 -42 166 -9 10 -13
23 -9 29 8 13 -13 70 -27 70 -5 0 -11 -7 -14 -15z m-9 -193 c0 -83 -2 -90 -34
-134 -38 -53 -97 -81 -171 -82 -39 -1 -45 2 -48 21 -4 30 22 78 74 137 24 26
44 52 44 57 0 5 5 9 11 9 7 0 31 18 55 40 64 59 69 55 69 -48z"/>
<path d="M4051 3466 c-18 -14 -39 -34 -47 -44 -20 -29 -54 -124 -56 -157 -1
-17 -8 -38 -16 -48 -35 -40 32 -149 107 -175 85 -30 169 -8 234 60 26 28 47
54 47 59 0 12 -16 11 -38 0 -42 -24 -153 -61 -180 -61 -30 0 -58 23 -64 53 -2
14 15 26 82 53 100 42 128 61 170 114 27 34 30 44 24 76 -6 32 -13 39 -68 65
-80 38 -148 39 -195 5z m186 -77 c9 -8 4 -17 -20 -38 -33 -28 -148 -91 -167
-91 -15 0 -12 45 4 85 26 62 34 66 106 60 35 -3 70 -11 77 -16z"/>
<path d="M3059 3427 c-20 -17 -47 -49 -59 -70 -25 -43 -42 -44 -47 -4 -2 15
-15 38 -29 52 -21 21 -28 23 -44 12 -11 -6 -20 -22 -20 -34 0 -22 22 -90 40
-125 12 -21 36 -128 45 -196 6 -45 11 -55 33 -63 41 -16 50 -6 45 48 -2 26 -5
82 -6 123 -2 67 1 79 25 116 16 23 28 47 28 53 0 7 16 19 35 27 32 13 38 13
60 -3 46 -34 116 -168 144 -277 23 -90 39 -126 55 -126 2 0 11 7 19 15 17 16
15 95 -4 154 -32 101 -44 130 -70 172 -16 25 -29 51 -29 58 0 31 -111 100
-160 101 -14 0 -41 -14 -61 -33z"/>
<path d="M20490 4685 c-25 -6 -62 -19 -82 -28 -21 -9 -41 -17 -46 -17 -5 0
-15 -7 -22 -15 -7 -8 -20 -15 -29 -15 -9 0 -32 -13 -51 -28 -19 -15 -57 -39
-85 -52 -71 -36 -143 -113 -166 -180 -53 -153 -64 -295 -32 -411 29 -105 61
-152 141 -202 113 -72 194 -89 299 -62 38 9 88 21 113 27 25 5 79 23 120 38
41 16 95 34 120 41 25 7 47 15 50 19 3 3 33 18 68 34 34 16 62 33 62 38 0 4 8
8 18 8 35 0 155 111 177 164 36 85 15 213 -54 334 -27 48 -53 98 -57 112 -11
39 -85 120 -129 142 -102 50 -318 78 -415 53z m213 -101 c48 -7 148 -39 188
-60 36 -18 66 -57 75 -96 7 -33 37 -92 59 -118 20 -23 55 -147 55 -196 0 -36
-5 -49 -31 -71 -29 -26 -64 -48 -116 -72 -11 -5 -24 -15 -28 -20 -3 -6 -14
-11 -24 -11 -10 0 -26 -8 -35 -19 -9 -10 -43 -26 -74 -36 -31 -9 -84 -25 -117
-35 -176 -55 -234 -70 -270 -73 -22 -2 -52 -9 -67 -16 -23 -12 -33 -10 -83 13
-73 33 -130 78 -143 113 -5 16 -19 53 -31 83 -11 30 -21 69 -22 85 -2 68 48
268 76 303 34 43 77 77 129 103 33 16 69 38 80 48 12 10 37 22 56 26 19 4 52
16 72 26 20 10 67 21 104 24 37 3 70 7 73 10 3 3 11 3 19 0 7 -3 32 -8 55 -11z"/>
<path d="M20423 4448 c-31 -15 -36 -35 -16 -65 16 -25 19 -25 100 -20 47 2 86
1 89 -5 3 -5 17 -13 30 -18 17 -7 24 -17 24 -35 0 -37 -49 -55 -149 -55 -73 0
-82 -2 -96 -23 -12 -19 -13 -28 -2 -50 12 -26 14 -27 100 -27 l87 0 20 -32
c24 -40 26 -93 4 -102 -29 -11 -69 -6 -139 19 -84 30 -85 30 -85 7 0 -10 -5
-23 -12 -30 -9 -9 -9 -17 2 -36 16 -31 91 -57 180 -63 58 -3 68 -1 92 20 14
14 33 38 42 55 22 44 21 134 -4 181 l-19 38 24 23 c15 14 27 39 31 67 6 41 4
47 -26 78 -18 19 -48 41 -66 50 -18 8 -36 20 -39 25 -8 13 -144 11 -172 -2z"/>
<path d="M19729 3163 c-30 -7 -76 -15 -104 -18 -224 -22 -260 -34 -360 -114
-6 -4 -24 -11 -40 -15 -73 -18 -135 -116 -135 -214 0 -50 4 -62 25 -82 14 -13
38 -47 55 -76 38 -68 79 -108 181 -178 98 -68 141 -91 189 -101 51 -10 153
-43 251 -81 48 -18 118 -38 155 -43 71 -9 173 -32 255 -57 66 -20 428 -12 519
11 36 9 101 22 145 28 44 7 85 15 90 18 6 4 53 17 105 29 52 13 106 28 120 35
14 7 41 15 61 19 20 3 62 22 94 41 31 19 69 35 83 35 14 0 60 20 103 45 43 25
81 45 85 45 10 0 127 100 143 122 8 12 11 31 7 48 -3 16 -1 32 4 35 16 10 11
114 -7 173 -16 48 -24 59 -73 90 -30 19 -64 43 -75 53 -26 23 -191 69 -252 69
-26 1 -68 6 -93 11 -25 6 -92 12 -150 15 -58 2 -105 4 -105 5 0 7 -65 13 -172
15 -73 2 -136 5 -140 7 -22 13 -105 17 -118 7 -8 -6 -23 -9 -34 -5 -17 5 -176
13 -336 18 -11 0 -37 -2 -58 -5 -21 -3 -77 3 -123 13 -66 13 -90 15 -114 6
-20 -8 -44 -8 -78 -1 -36 7 -64 7 -103 -3z m53 -155 c-5 -5 -23 -5 -40 -2 -44
9 -44 40 1 52 29 8 33 6 39 -17 4 -14 4 -29 0 -33z m273 53 c6 -11 -33 -36
-42 -27 -3 3 -3 12 0 21 7 17 33 20 42 6z m-138 -13 c17 -29 13 -48 -11 -48
-23 0 -36 16 -36 46 0 17 36 19 47 2z m-287 -12 c0 -2 3 -11 6 -20 5 -13 -1
-16 -30 -16 -39 0 -47 13 -18 29 17 11 42 14 42 7z m895 -11 c17 -7 54 -16 82
-20 29 -4 63 -15 75 -25 13 -9 33 -20 45 -24 28 -9 109 -98 135 -150 14 -27
22 -68 26 -122 7 -120 -2 -164 -48 -221 -34 -44 -125 -113 -147 -113 -14 0
-111 111 -133 153 -18 34 -19 43 -9 74 15 46 5 154 -17 191 -8 15 -32 40 -52
56 -35 26 -41 28 -107 23 -71 -6 -134 -24 -147 -42 -12 -16 -9 -45 4 -45 6 0
20 -7 30 -16 16 -16 23 -16 84 -1 69 17 95 13 120 -22 12 -16 17 -84 8 -113
-5 -16 -7 -16 -27 2 -20 19 -54 22 -97 8 -8 -3 -33 -11 -55 -18 -79 -26 -135
-88 -135 -149 0 -43 44 -65 117 -59 30 3 53 1 53 -5 0 -6 18 -7 43 -4 30 4 50
14 69 36 31 35 65 40 76 12 8 -22 95 -101 110 -101 12 0 24 -28 14 -34 -4 -2
-52 -7 -107 -10 -55 -4 -113 -9 -129 -12 -39 -8 -207 14 -285 37 -35 10 -69
19 -75 19 -46 0 -85 23 -113 68 -43 66 -61 109 -72 165 -19 102 78 282 196
365 18 12 37 22 42 22 5 0 17 8 27 18 10 9 43 22 73 29 31 6 81 18 111 26 71
18 177 19 215 2z m-1037 -17 c19 -19 14 -45 -10 -52 -15 -4 -27 0 -35 11 -23
30 -17 43 28 52 3 0 10 -4 17 -11z m1612 -12 c0 -22 -17 -29 -56 -22 -53 10
-45 36 11 36 33 0 45 -4 45 -14z m145 -11 c23 -7 -4 -45 -32 -45 -17 0 -23 6
-23 23 0 28 7 37 26 31 8 -2 21 -6 29 -9z m203 -30 c10 -9 -17 -55 -33 -55 -9
0 -27 7 -40 16 -21 13 -22 19 -12 36 9 15 19 18 46 14 18 -3 36 -8 39 -11z
m-2088 -21 c11 -28 6 -44 -14 -44 -16 0 -40 45 -32 59 12 19 36 12 46 -15z
m2215 -23 c3 -5 -1 -15 -8 -23 -8 -7 -16 -19 -18 -25 -3 -8 -9 -9 -19 -3 -12
7 -12 12 0 34 14 26 34 34 45 17z m-2305 -73 c0 -37 -21 -36 -43 2 -23 38 -15
53 18 38 18 -8 25 -19 25 -40z m2390 -10 c0 -7 -7 -21 -14 -31 -11 -14 -15
-15 -25 -3 -6 7 -9 21 -5 30 7 19 44 22 44 4z m-1245 -297 c3 -5 0 -21 -6 -34
-12 -27 -68 -41 -121 -30 -34 7 -35 10 -2 40 19 17 34 23 50 19 12 -3 26 -2
29 4 8 13 42 13 50 1z"/>
<path d="M5880 2409 c-13 -5 -27 -15 -31 -20 -8 -13 27 -107 47 -130 8 -8 14
-20 14 -26 0 -17 49 -65 117 -115 86 -64 156 -148 208 -255 14 -28 37 -59 52
-68 25 -17 26 -17 69 26 24 24 43 48 44 53 0 16 78 131 105 156 24 23 27 23
78 11 46 -12 199 -84 230 -109 7 -6 39 -17 72 -27 33 -9 68 -21 77 -26 10 -5
53 -9 95 -9 43 0 95 -5 116 -11 46 -12 86 -17 277 -29 180 -12 191 -13 210
-25 9 -6 148 -10 346 -11 182 -1 336 -4 341 -7 6 -4 16 0 23 8 18 22 -31 84
-68 86 -15 1 -54 4 -87 7 -55 4 -118 5 -220 2 -162 -4 -294 5 -344 22 -34 12
-78 19 -120 18 -87 -2 -286 15 -336 28 -22 6 -88 15 -147 21 -110 11 -130 18
-258 89 -30 17 -73 33 -95 35 -21 2 -41 9 -43 16 -2 6 -12 11 -22 11 -30 0
-33 18 -8 52 59 84 80 130 76 170 l-3 33 -85 7 c-153 11 -324 12 -370 1 -25
-6 -49 -8 -55 -3 -9 7 -37 11 -215 25 -36 3 -76 0 -90 -6z"/>
<path d="M8852 2316 c-35 -24 -72 -57 -82 -74 -10 -16 -23 -33 -28 -36 -6 -3
-13 -21 -17 -39 -4 -17 -18 -51 -32 -75 -31 -55 -50 -156 -33 -177 10 -12 10
-15 0 -15 -10 0 -11 -18 -5 -77 10 -106 12 -115 36 -168 5 -11 11 -31 14 -43
7 -39 39 -86 68 -100 15 -7 27 -17 27 -22 0 -13 134 -120 150 -120 8 0 21 -6
29 -13 25 -21 103 -47 141 -47 19 1 53 8 75 16 22 9 47 16 55 16 36 1 231 56
254 72 36 23 92 111 106 166 7 25 18 68 27 97 8 28 14 90 14 138 0 72 -4 94
-25 133 -14 26 -28 57 -31 70 -4 12 -30 48 -58 80 -29 31 -68 75 -87 97 -18
22 -50 51 -70 66 -38 28 -146 69 -181 69 -11 0 -28 4 -37 9 -9 4 -69 11 -132
14 l-115 6 -63 -43z m303 -68 c22 -8 45 -13 51 -11 21 7 139 -60 192 -111 63
-60 122 -143 148 -211 25 -65 26 -192 2 -255 -10 -25 -20 -57 -22 -71 -7 -32
-60 -100 -91 -117 -14 -7 -46 -15 -72 -18 -63 -6 -153 -24 -178 -34 -87 -36
-170 -3 -325 130 -74 64 -88 93 -114 222 -19 90 -20 158 -5 212 6 21 12 47 14
58 2 10 15 42 28 71 14 29 27 60 31 70 3 9 12 17 19 17 8 0 21 7 28 17 33 39
64 48 160 47 55 -1 111 -8 134 -16z"/>
<path d="M9143 2123 c-13 -2 -23 -7 -24 -11 -1 -4 -3 -32 -4 -62 -2 -30 -6
-73 -9 -95 -4 -33 -14 -148 -18 -215 -7 -95 16 -150 62 -150 27 0 36 42 21
100 -9 35 -9 59 -1 96 12 54 32 223 34 294 1 48 -7 54 -61 43z"/>
<path d="M12235 2233 c-16 -3 -36 -10 -44 -16 -8 -7 -24 -12 -35 -13 -33 -2
-231 -52 -336 -86 -251 -80 -340 -98 -575 -118 -146 -12 -210 -24 -268 -49
-27 -12 -58 -21 -68 -21 -11 0 -41 -6 -67 -14 -26 -8 -94 -22 -152 -31 -58 -9
-112 -19 -120 -22 -8 -3 -34 -6 -57 -8 -22 -1 -47 -6 -53 -10 -13 -8 -300 -7
-398 1 -76 7 -147 -4 -173 -25 -19 -15 -20 -20 -8 -38 17 -29 70 -34 349 -35
154 -1 232 2 247 10 12 7 37 12 55 12 18 0 51 7 73 15 22 7 56 11 75 9 20 -3
55 1 80 10 25 9 61 16 80 16 19 0 60 9 90 20 30 11 65 19 76 20 12 0 50 9 84
20 43 14 101 22 184 25 172 6 305 27 317 48 6 10 22 17 39 17 16 0 71 13 122
29 51 16 136 41 188 57 52 15 99 29 105 33 5 3 30 7 55 9 25 2 77 16 115 32
39 15 85 33 103 40 26 10 32 18 32 41 0 28 -2 29 -42 28 -24 -1 -56 -4 -73 -6z"/>
<path d="M11675 1320 c-10 -16 2 -88 24 -148 27 -72 57 -112 87 -112 32 0 32
36 0 99 -13 25 -30 73 -38 106 -12 53 -16 60 -40 63 -14 2 -29 -2 -33 -8z"/>
<path d="M6015 1244 c-16 -8 -37 -22 -46 -30 -8 -8 -32 -14 -52 -14 l-37 0 -1
-87 c-1 -49 -1 -93 0 -100 1 -6 -3 -14 -9 -18 -5 -3 -10 -17 -10 -31 0 -50 89
-19 90 32 1 35 48 129 81 161 20 20 54 39 86 48 29 9 53 19 53 23 0 34 -102
44 -155 16z"/>
<path d="M11467 1198 c-6 -19 -1 -66 16 -125 16 -54 9 -73 -24 -73 -9 0 -25
-12 -34 -27 -23 -35 -9 -58 36 -58 45 0 59 -11 59 -44 0 -71 59 -141 93 -112
12 10 12 23 -4 89 -10 42 -18 80 -19 83 0 4 20 12 45 18 33 8 45 16 45 30 0
22 -25 34 -51 26 -30 -10 -55 11 -68 57 -30 101 -55 148 -76 148 -7 0 -15 -6
-18 -12z"/>
<path d="M6380 1180 c-6 -4 -22 -5 -35 -2 -27 5 -80 -25 -142 -78 -37 -32 -40
-39 -38 -76 3 -43 23 -84 40 -84 5 0 34 -18 63 -40 29 -22 59 -40 68 -40 8 0
31 -7 51 -15 33 -14 41 -14 78 1 25 9 47 26 54 40 9 21 8 24 -14 30 -14 3 -35
4 -48 2 -13 -2 -30 3 -41 13 -18 17 -16 19 33 49 48 30 71 67 71 117 0 22 -22
62 -39 69 -31 13 -90 21 -101 14z m69 -76 c2 -2 -1 -15 -7 -28 -8 -19 -23 -27
-65 -36 -52 -10 -107 -6 -107 9 0 4 18 20 40 37 34 27 46 30 87 27 26 -3 50
-7 52 -9z"/>
<path d="M6867 1124 c-3 -4 -38 -6 -78 -6 -86 0 -163 -29 -149 -57 4 -9 13
-28 21 -43 7 -16 17 -28 23 -28 5 0 38 -29 73 -65 l63 -65 -25 -10 c-41 -16
-152 -12 -186 6 -36 18 -59 12 -59 -16 0 -23 47 -56 95 -66 16 -3 36 -11 43
-16 17 -15 94 -3 141 22 49 24 62 66 35 108 -9 15 -23 31 -31 35 -7 4 -13 13
-13 19 0 5 -14 28 -31 50 -17 21 -30 41 -28 43 3 2 36 5 74 7 l70 3 3 34 c4
38 -21 65 -41 45z"/>
<path d="M11230 1053 c-14 -9 -49 -41 -79 -70 -49 -48 -54 -57 -45 -80 5 -14
24 -34 43 -44 19 -10 37 -22 40 -26 3 -5 18 -14 34 -20 34 -16 35 -29 2 -37
-14 -4 -25 -11 -25 -16 0 -16 -22 -11 -36 8 -10 13 -17 15 -31 6 -34 -21 -27
-43 19 -64 55 -25 104 -25 146 0 26 16 32 26 32 52 0 41 -5 48 -54 78 -65 39
-85 62 -75 88 5 12 13 22 18 22 15 0 71 51 71 65 0 7 -8 22 -17 34 -17 21 -19
21 -43 4z"/>
<path d="M8371 1013 c-6 -21 -13 -67 -16 -103 -4 -36 -9 -90 -13 -120 l-7 -55
-60 0 c-69 0 -119 -25 -160 -79 -43 -57 -26 -139 38 -183 34 -24 50 -28 100
-26 34 1 66 8 75 16 10 7 32 20 50 27 48 19 92 64 92 94 0 23 -3 25 -30 20
l-30 -6 -1 73 c-1 41 0 79 1 84 2 6 7 48 11 95 4 47 15 104 23 128 20 55 13
72 -30 72 -30 0 -34 -4 -43 -37z m-50 -409 c11 -19 26 -34 32 -34 7 0 4 -7 -7
-15 -23 -17 -96 -29 -125 -20 -53 16 -44 88 13 103 44 12 63 4 87 -34z"/>
<path d="M6988 1018 c-35 -18 -38 -23 -39 -66 -1 -26 -3 -58 -5 -72 -2 -14 -9
-68 -15 -120 -15 -127 -15 -132 -24 -155 -33 -93 -41 -158 -21 -174 36 -30 65
9 86 119 5 25 16 74 25 110 l16 65 57 1 c105 2 131 13 159 67 13 25 13 36 3
68 -14 42 -54 89 -75 89 -8 0 -15 8 -15 18 -1 11 -20 26 -53 42 -65 31 -56 31
-99 8z m122 -118 c0 -5 5 -10 11 -10 6 0 19 -10 29 -22 21 -26 11 -58 -17 -58
-9 0 -31 -5 -49 -12 -43 -15 -67 2 -57 41 14 61 22 71 53 71 16 0 30 -4 30
-10z"/>
<path d="M10595 1014 c-23 -17 -22 -37 4 -63 10 -10 21 -25 23 -32 9 -27 38
11 38 50 0 57 -26 75 -65 45z"/>
<path d="M10390 1000 c-14 -11 -32 -20 -41 -20 -8 0 -30 -15 -48 -34 -29 -29
-32 -38 -26 -70 4 -20 11 -39 16 -42 26 -16 -8 -64 -45 -64 -28 0 -56 -29 -56
-59 0 -32 40 -47 87 -33 45 14 47 11 63 -76 10 -51 17 -65 35 -72 13 -5 25
-15 28 -22 4 -10 10 -8 21 6 20 25 20 59 0 97 -33 64 -10 96 84 119 46 12 52
33 11 38 -13 2 -28 8 -33 13 -6 5 -29 9 -53 9 -50 0 -63 17 -63 79 0 32 5 43
28 60 16 11 40 23 54 26 15 4 34 15 44 26 16 18 15 19 -10 29 -40 15 -68 12
-96 -10z"/>
<path d="M10937 930 c-18 -14 -29 -37 -38 -78 -7 -31 -18 -70 -26 -85 -8 -15
-11 -32 -7 -38 4 -6 7 -30 9 -52 1 -22 7 -43 13 -45 7 -2 19 -10 26 -18 40
-39 59 -2 63 119 3 115 7 131 28 123 9 -3 19 3 26 15 9 18 6 26 -17 50 -33 34
-43 36 -77 9z"/>
<path d="M7345 887 c-68 -48 -97 -95 -89 -142 7 -34 39 -64 70 -65 12 0 28 -7
35 -17 22 -25 110 -63 150 -63 26 0 43 8 64 30 26 27 29 37 27 83 -1 31 -8 56
-16 63 -8 5 -18 23 -22 40 -9 37 -39 71 -86 95 -51 26 -64 24 -133 -24z m157
-78 c27 -36 35 -101 14 -118 -13 -11 -27 -11 -72 -3 -59 12 -93 40 -94 78 -1
67 111 99 152 43z"/>
<path d="M11842 895 c-20 -20 -21 -27 -10 -50 10 -22 16 -25 37 -20 64 16 70
66 10 87 -8 3 -25 -4 -37 -17z"/>
<path d="M7803 857 c-36 -14 -79 -56 -141 -138 -54 -72 -61 -108 -27 -132 33
-24 40 -18 98 82 42 72 86 121 108 121 5 0 18 -9 29 -20 15 -15 20 -33 20 -74
0 -30 -4 -58 -10 -61 -11 -7 -14 -74 -4 -99 10 -25 42 -19 58 12 27 54 37 130
25 199 -10 58 -15 66 -48 87 -50 32 -71 36 -108 23z"/>
<path d="M9161 849 c-17 -7 -22 -15 -18 -30 8 -31 -13 -71 -32 -63 -9 4 -38 9
-64 12 -36 3 -53 0 -68 -14 -42 -38 -9 -76 76 -84 l50 -5 -3 -60 c-1 -33 -7
-88 -14 -122 -6 -35 -9 -65 -6 -68 3 -3 18 -7 34 -8 24 -2 30 3 45 43 10 25
18 66 18 92 1 56 18 98 40 98 9 0 36 -9 60 -20 49 -23 77 -25 87 -9 10 17 -79
95 -131 115 l-45 17 6 52 c7 57 1 67 -35 54z"/>
<path d="M10630 832 c-18 -15 -20 -21 -11 -45 6 -16 11 -56 11 -90 0 -34 4
-67 8 -74 12 -18 59 -27 68 -12 22 36 -13 239 -41 239 -7 0 -23 -8 -35 -18z"/>
<path d="M9415 593 c-53 -47 -72 -108 -48 -152 33 -57 145 -66 240 -18 38 18
46 28 49 54 4 33 -27 83 -51 83 -7 0 -18 6 -24 14 -7 8 -28 16 -49 19 -20 3
-50 8 -67 12 -21 4 -36 0 -50 -12z m153 -93 c-3 -16 -81 -42 -115 -38 -20 3
-21 5 -10 28 19 37 50 49 92 36 22 -7 34 -17 33 -26z"/>
</g>
</svg>
