<?xml version="1.0" standalone="no"?>
<!DOCTYPE svg PUBLIC "-//W3C//DTD SVG 20010904//EN"
 "http://www.w3.org/TR/2001/REC-SVG-20010904/DTD/svg10.dtd">
<svg version="1.0" xmlns="http://www.w3.org/2000/svg"
 width="1148.413712pt" height="400.000000pt" viewBox="0 0 1148.413712 400.000000"
 preserveAspectRatio="xMidYMid meet">
<metadata>
Created by potrace 1.15, written by Peter Selinger 2001-2017
</metadata>
<g transform="translate(-19.071038,444.865407) scale(0.049663,-0.049663)"
fill="#444444" stroke="none">
<path d="M11264 8931 c-11 -26 -8 -33 37 -86 27 -31 49 -62 49 -69 0 -8 10
-26 22 -42 12 -15 23 -33 24 -40 5 -32 69 -103 81 -90 17 16 -79 232 -135 306
-43 56 -63 62 -78 21z"/>
<path d="M12799 8921 c-29 -34 -50 -69 -91 -154 -7 -13 -4 -19 9 -24 10 -3 25
-12 34 -20 15 -13 19 -11 33 9 9 12 16 30 16 38 0 9 11 31 25 50 14 19 25 42
25 51 0 10 4 20 9 23 11 7 3 42 -13 55 -9 8 -22 -1 -47 -28z"/>
<path d="M6263 8901 c-9 -14 -9 -37 -2 -85 17 -124 20 -172 24 -386 2 -118 4
-226 5 -240 0 -28 36 -58 52 -42 9 9 11 305 3 437 -10 174 -24 294 -34 314
-14 26 -32 27 -48 2z"/>
<path d="M11060 8896 c-7 -20 -2 -37 27 -90 39 -70 152 -196 176 -196 24 0 8
49 -42 124 -25 38 -54 83 -64 100 -22 37 -67 86 -79 86 -5 0 -13 -11 -18 -24z"/>
<path d="M18838 8893 c-3 -35 4 -68 17 -83 14 -17 45 -160 45 -211 0 -54 -8
-59 -93 -57 -62 1 -80 -2 -97 -17 -19 -17 -19 -19 -2 -31 24 -16 135 -38 167
-32 41 8 47 -16 34 -147 -6 -63 -8 -127 -5 -141 9 -33 34 -28 58 12 22 37 37
197 19 208 -25 16 -9 38 44 62 31 13 64 24 75 24 22 0 50 25 50 45 0 10 -11
14 -32 13 -18 -1 -59 -1 -91 0 l-59 2 3 40 c2 21 0 42 -4 46 -4 4 -7 17 -7 30
0 24 -75 221 -92 242 -15 17 -28 15 -30 -5z"/>
<path d="M20224 8868 c-46 -48 -101 -127 -104 -148 -10 -68 21 -65 88 8 68 74
104 129 100 156 -5 37 -40 30 -84 -16z"/>
<path d="M12995 8860 c-23 -25 -89 -132 -116 -189 -21 -43 -21 -45 -3 -58 26
-19 40 -16 58 12 9 13 25 33 36 43 49 45 86 149 68 188 -14 29 -20 30 -43 4z"/>
<path d="M16875 8860 c-5 -15 5 -34 37 -73 24 -28 50 -60 58 -71 48 -63 114
-124 131 -123 22 1 25 22 6 34 -8 4 -22 23 -32 41 -11 17 -22 32 -26 32 -4 0
-12 13 -18 29 -7 15 -28 43 -47 62 -19 18 -34 38 -34 44 0 17 -33 45 -53 45
-8 0 -19 -9 -22 -20z"/>
<path d="M17280 8840 c-72 -26 -86 -41 -68 -69 15 -25 24 -26 74 -5 42 18 222
23 246 7 7 -4 38 -12 68 -18 68 -12 76 -35 28 -84 -41 -42 -107 -75 -187 -92
-51 -11 -65 -18 -73 -38 -10 -28 -11 -28 151 -155 110 -87 138 -126 121 -171
-14 -37 -71 -59 -135 -51 -67 8 -148 49 -152 79 -3 12 -8 112 -12 222 -8 200
-21 275 -46 275 -14 0 -40 -64 -31 -78 3 -4 7 -107 11 -227 5 -183 8 -222 22
-237 9 -10 20 -18 26 -18 5 0 26 -13 46 -28 20 -15 62 -38 94 -51 67 -27 121
-24 186 8 58 30 77 103 47 175 -16 38 -104 131 -132 140 -11 3 -32 22 -48 42
-34 43 -28 53 53 79 37 12 68 32 102 66 53 53 66 83 52 126 -11 35 -118 90
-190 99 -26 3 -66 9 -88 14 -60 14 -104 11 -165 -10z"/>
<path d="M21316 8834 c-23 -22 -20 -37 12 -66 31 -28 137 -146 158 -176 17
-24 74 -89 128 -145 36 -37 38 -42 21 -51 -10 -6 -50 -39 -89 -73 -39 -35 -76
-63 -82 -63 -6 0 -19 -10 -30 -21 -18 -21 -70 -59 -162 -117 -47 -30 -58 -51
-42 -82 21 -38 81 -20 181 56 99 76 252 204 276 233 34 39 31 92 -7 134 -16
19 -30 39 -30 45 0 10 -29 26 -42 24 -5 -1 -8 4 -8 11 0 7 -30 50 -67 96 -38
45 -79 98 -93 117 -14 18 -35 41 -47 49 -13 9 -23 23 -23 31 0 19 -35 18 -54
-2z"/>
<path d="M20419 8807 c-33 -41 -91 -134 -107 -171 -10 -21 -10 -32 -1 -42 31
-38 74 1 128 116 31 66 36 86 25 114 -9 23 -16 20 -45 -17z"/>
<path d="M3510 8781 c0 -16 7 -48 15 -71 16 -44 23 -215 10 -228 -3 -4 -44 -8
-90 -8 -92 -2 -105 -6 -105 -35 0 -23 21 -32 120 -51 l75 -14 0 -64 c-1 -36
-3 -96 -5 -134 -4 -57 -2 -70 12 -79 9 -6 20 -8 23 -5 10 9 23 75 30 143 15
163 21 174 107 181 77 7 100 13 95 27 -7 21 -50 37 -104 37 -60 0 -79 14 -89
68 -3 20 -15 70 -25 109 -10 40 -19 83 -19 95 -1 26 -22 58 -39 58 -6 0 -11
-13 -11 -29z"/>
<path d="M16677 8803 c-16 -15 -3 -37 56 -97 34 -35 86 -75 115 -90 l52 -26 0
23 c0 16 -17 39 -52 70 -66 58 -77 69 -107 101 -22 25 -50 33 -64 19z"/>
<path d="M21194 8797 c-27 -15 -110 -124 -187 -247 -33 -52 -74 -113 -91 -135
-18 -22 -44 -59 -60 -82 -16 -24 -51 -68 -77 -99 -55 -62 -60 -85 -25 -103 20
-11 28 -10 50 5 42 27 129 144 282 379 43 66 97 143 120 172 32 39 41 59 40
84 -2 38 -18 46 -52 26z"/>
<path d="M1064 8706 c-21 -18 -55 -41 -74 -51 -30 -15 -84 -60 -210 -172 -13
-13 -28 -23 -32 -23 -5 0 -25 -15 -45 -33 -21 -18 -58 -45 -83 -60 -48 -28
-100 -72 -100 -86 0 -5 7 -14 16 -22 13 -11 21 -10 48 5 30 16 34 16 71 -1 22
-10 54 -32 71 -48 140 -137 272 -245 300 -245 22 0 16 39 -10 63 -12 12 -66
63 -118 112 -52 50 -115 107 -141 128 -42 34 -61 67 -39 67 4 0 57 43 117 96
61 53 151 122 200 154 126 82 145 106 113 138 -20 20 -42 14 -84 -22z"/>
<path d="M1505 8671 c-130 -38 -198 -93 -248 -200 -27 -57 -31 -75 -30 -150 0
-124 41 -199 134 -246 57 -29 194 -65 248 -65 91 0 165 65 177 154 10 69 -10
112 -69 151 -66 42 -141 58 -287 59 l-115 1 -3 27 c-5 43 56 124 125 165 59
36 156 63 225 63 20 0 40 5 44 11 24 39 -104 59 -201 30z m138 -381 c65 -24
87 -54 87 -117 0 -34 -5 -42 -42 -66 -48 -31 -95 -34 -173 -13 -75 20 -127 44
-157 73 -27 26 -66 108 -56 119 10 9 93 19 189 22 78 2 106 -1 152 -18z"/>
<path d="M10509 8654 c-12 -14 -9 -20 19 -44 18 -15 52 -33 75 -40 23 -7 65
-21 93 -31 28 -10 79 -21 113 -25 53 -6 61 -4 61 10 0 9 -4 16 -9 16 -5 0 -11
8 -13 18 -4 13 -22 22 -63 31 -31 7 -76 21 -99 32 -22 10 -49 19 -59 19 -10 0
-25 7 -33 15 -20 20 -68 19 -85 -1z"/>
<path d="M9946 8638 c-56 -32 -113 -134 -123 -217 -5 -44 -1 -60 25 -113 30
-62 32 -63 104 -90 81 -30 136 -33 212 -13 80 21 101 31 119 59 l17 26 -33 0
c-18 0 -37 -4 -42 -9 -19 -19 -139 -22 -201 -6 -60 15 -114 58 -114 90 0 9 10
15 28 16 88 3 116 9 151 33 94 65 101 90 45 158 -57 67 -138 96 -188 66z m90
-72 c11 -4 30 -20 42 -36 l22 -29 -39 -21 c-38 -19 -130 -28 -143 -14 -22 22
50 118 82 109 8 -2 24 -6 36 -9z"/>
<path d="M11890 8630 c-88 -14 -141 -59 -180 -154 -17 -39 -29 -56 -44 -58
-28 -4 -32 -42 -8 -66 11 -11 23 -29 26 -40 13 -40 67 -102 108 -124 38 -20
58 -22 168 -22 106 0 135 3 188 23 43 16 62 28 62 40 0 34 -18 39 -78 19 -45
-15 -76 -18 -147 -14 -138 8 -154 11 -186 39 -50 44 -34 70 52 83 44 7 136 50
175 82 56 47 58 119 6 171 -17 18 -92 28 -142 21z m109 -84 c36 -43 -90 -116
-199 -116 -35 0 -25 45 20 90 38 38 43 40 104 40 43 0 67 -5 75 -14z"/>
<path d="M3892 8589 c-32 -12 -25 -43 11 -47 23 -3 27 0 27 22 0 31 -8 36 -38
25z"/>
<path d="M8465 8566 c-9 -13 -19 -41 -22 -62 -7 -48 -67 -175 -93 -199 -16
-15 -25 -16 -45 -7 -43 20 -59 58 -61 143 -1 42 -5 82 -8 88 -13 20 -45 12
-50 -11 -14 -68 -15 -99 -6 -148 18 -96 90 -158 166 -144 36 7 60 34 109 129
11 21 25 41 31 42 7 2 24 -28 40 -67 25 -65 69 -120 95 -120 13 0 11 23 -5 45
-7 11 -28 78 -46 150 -30 120 -58 185 -80 185 -5 0 -17 -11 -25 -24z"/>
<path d="M12404 8567 c-23 -12 -50 -34 -60 -50 -11 -15 -32 -31 -49 -36 l-30
-8 3 -104 c3 -136 9 -166 33 -180 42 -22 49 -7 49 110 0 108 0 110 33 152 44
58 87 71 122 39 30 -28 71 -110 79 -160 4 -19 9 -68 13 -108 5 -63 9 -75 27
-82 12 -4 25 -5 29 -3 9 5 2 164 -9 223 -11 53 -58 141 -96 176 -25 24 -92 59
-102 53 -1 0 -20 -10 -42 -22z"/>
<path d="M15192 8581 c-30 -8 -88 -65 -120 -121 -15 -24 -34 -52 -43 -61 -13
-13 -15 -34 -11 -125 4 -97 7 -112 27 -133 20 -21 26 -22 40 -11 13 11 15 31
13 114 -3 92 -1 106 23 156 15 30 36 65 48 78 38 39 57 29 95 -51 28 -60 35
-87 38 -154 4 -83 17 -113 48 -113 21 0 35 30 69 147 l26 93 30 -19 c24 -14
35 -34 54 -92 13 -41 29 -91 37 -112 7 -21 11 -44 8 -51 -7 -18 20 -38 40 -30
17 6 22 53 8 70 -5 5 -14 40 -21 79 -13 76 -63 180 -94 196 -27 15 -79 2 -99
-24 -10 -12 -26 -33 -36 -47 l-20 -24 -6 34 c-11 53 -27 91 -57 136 -34 50
-67 72 -97 65z"/>
<path d="M9504 8562 c-17 -9 -54 -29 -82 -44 -28 -16 -56 -37 -62 -48 -6 -11
-21 -20 -34 -20 -21 0 -25 -6 -32 -57 -10 -72 -8 -88 13 -118 46 -61 138 -82
184 -42 34 31 84 106 93 140 3 15 11 27 16 27 17 0 72 -121 96 -212 13 -49 27
-130 30 -181 6 -82 4 -98 -16 -144 -25 -58 -67 -96 -120 -108 -48 -11 -127 -7
-154 7 -46 24 -107 82 -136 129 -16 27 -34 49 -39 49 -10 0 -2 -48 10 -56 5
-3 9 -20 9 -37 0 -72 120 -159 237 -172 53 -6 68 -4 117 18 31 15 59 26 62 26
13 -1 64 67 75 100 20 60 14 178 -16 351 -4 19 -15 58 -25 85 -9 28 -25 75
-35 105 -10 30 -27 67 -39 82 -37 47 -61 80 -77 107 -19 32 -35 35 -75 13z
m35 -128 c-22 -130 -91 -195 -157 -148 -36 25 -29 73 18 130 21 26 47 52 57
58 23 13 87 35 91 31 2 -1 -2 -34 -9 -71z"/>
<path d="M6793 8509 c-116 -84 -203 -201 -203 -273 0 -41 83 -87 146 -80 57 6
82 22 126 81 24 31 48 64 54 72 9 11 17 3 43 -46 32 -59 90 -108 108 -90 4 4
-12 45 -35 90 -23 45 -49 107 -57 137 -39 130 -60 171 -88 169 -7 0 -49 -27
-94 -60z m69 -119 c-4 -79 -18 -115 -58 -150 -58 -50 -137 -39 -148 22 -9 54
132 192 189 185 18 -2 20 -8 17 -57z"/>
<path d="M16325 8547 c-13 -18 -12 -23 11 -44 20 -18 37 -23 82 -23 31 -1 73
-3 92 -5 39 -5 86 24 77 48 -5 14 -101 33 -200 40 -39 3 -50 0 -62 -16z"/>
<path d="M8925 8545 c-110 -33 -179 -109 -191 -208 -6 -53 -6 -55 28 -81 19
-14 47 -26 62 -26 41 0 100 44 115 87 7 21 20 49 28 62 l15 23 29 -33 c16 -19
34 -44 39 -56 13 -31 71 -66 85 -52 7 7 4 13 -7 20 -10 6 -18 16 -18 23 0 20
-29 74 -77 144 -24 35 -43 71 -43 82 0 25 -18 29 -65 15z m3 -129 c-3 -24 -14
-52 -24 -63 -11 -11 -27 -30 -36 -41 -21 -26 -41 -28 -58 -7 -33 39 39 155 96
155 26 0 26 -2 22 -44z"/>
<path d="M7920 8543 c-15 -6 -80 -60 -133 -111 -45 -43 -67 -86 -73 -142 -5
-49 -4 -54 27 -86 37 -38 53 -41 107 -19 43 18 122 101 122 128 0 10 7 26 16
34 20 21 32 7 62 -67 47 -121 65 -280 40 -364 -35 -116 -192 -180 -310 -127
-25 12 -55 33 -66 48 -21 29 -42 24 -42 -11 0 -26 37 -64 95 -97 33 -19 55
-24 120 -24 136 0 214 54 265 183 16 42 7 240 -14 297 -8 22 -15 50 -16 63 0
40 -66 165 -104 202 -21 19 -44 50 -51 68 -14 32 -18 35 -45 25z m22 -100 c2
-10 -1 -39 -8 -65 -25 -98 -90 -162 -140 -139 -14 6 -24 19 -24 30 0 35 42
105 89 148 49 45 77 54 83 26z"/>
<path d="M14017 8536 c-52 -14 -96 -50 -129 -106 -12 -19 -23 -37 -25 -39 -1
-2 -12 8 -24 22 -26 33 -36 34 -51 2 -8 -17 -8 -28 -1 -37 17 -20 33 -115 35
-196 1 -59 4 -75 19 -82 36 -20 46 -3 52 93 9 137 32 190 100 238 50 36 60 39
97 33 99 -16 153 -129 149 -309 -2 -83 0 -100 12 -103 24 -4 43 25 47 71 9
105 5 187 -10 204 -9 10 -13 23 -11 30 2 6 -1 14 -6 18 -6 3 -11 14 -11 23 0
32 -95 119 -151 140 -20 6 -37 12 -40 11 -2 0 -26 -6 -52 -13z"/>
<path d="M18068 8536 c-72 -20 -136 -68 -174 -132 -10 -17 -13 -17 -28 -5 -35
29 -46 -30 -25 -143 18 -102 31 -136 49 -136 29 0 37 21 42 100 3 43 12 90 22
110 42 82 139 151 234 166 36 6 43 10 40 28 -3 18 -10 21 -58 23 -30 1 -76 -4
-102 -11z"/>
<path d="M19841 8540 c-48 -12 -73 -41 -73 -84 0 -49 29 -90 141 -204 50 -51
91 -95 91 -97 0 -2 -7 -11 -16 -19 -24 -24 -92 -20 -143 9 -23 14 -45 25 -47
25 -2 0 -4 -11 -4 -25 0 -73 179 -129 248 -78 62 46 40 105 -84 223 -86 82
-114 117 -114 140 0 19 6 21 118 41 54 9 76 18 83 32 8 13 8 22 -1 31 -13 13
-152 18 -199 6z"/>
<path d="M19257 8526 c-23 -23 -32 -77 -31 -182 1 -131 33 -191 119 -224 23
-9 30 -5 68 35 24 24 60 78 80 120 21 41 42 75 47 75 17 0 38 -30 45 -62 21
-100 95 -201 95 -129 0 14 -7 37 -16 49 -9 13 -13 26 -10 29 3 3 1 14 -5 25
-5 10 -16 55 -24 100 -15 84 -55 163 -78 156 -14 -5 -73 -115 -112 -213 -33
-80 -85 -136 -109 -115 -17 13 -43 87 -40 115 0 11 4 58 8 105 4 63 3 91 -7
108 -13 22 -15 23 -30 8z"/>
<path d="M7252 8497 c-25 -25 -39 -33 -58 -29 -18 3 -24 0 -25 -14 -3 -38 3
-90 17 -145 8 -31 14 -73 14 -92 0 -19 8 -45 18 -57 17 -21 19 -21 32 -4 11
13 15 47 15 136 0 114 1 121 24 139 47 38 87 18 129 -66 11 -23 23 -56 27 -75
3 -19 8 -44 10 -55 2 -11 4 -37 4 -57 1 -33 4 -38 26 -38 20 0 25 6 31 35 15
84 -36 241 -103 311 -28 30 -43 38 -81 41 -43 4 -50 2 -80 -30z"/>
<path d="M14665 8492 c-75 -55 -189 -178 -220 -237 -23 -44 -27 -61 -23 -106
9 -87 62 -120 177 -110 42 4 113 73 116 112 1 10 11 29 22 41 12 13 23 32 25
43 5 29 35 31 44 3 15 -49 55 -128 80 -157 37 -45 69 -40 45 7 -10 20 -101
304 -101 316 0 4 -13 25 -29 45 -16 20 -30 45 -32 56 -7 33 -48 28 -104 -13z
m75 -100 c0 -27 -3 -51 -6 -55 -4 -3 -16 -35 -29 -70 -23 -65 -29 -77 -75
-126 -30 -33 -103 -49 -127 -29 -39 32 13 152 107 243 35 35 104 82 123 84 4
1 7 -21 7 -47z"/>
<path d="M15805 8516 c-42 -18 -99 -84 -118 -137 -31 -82 -26 -168 11 -207 6
-7 12 -17 12 -21 0 -14 79 -59 122 -69 24 -6 61 -16 83 -22 46 -13 94 -13 109
-1 6 5 26 12 45 16 20 4 35 14 38 26 3 10 9 19 14 19 5 0 9 7 9 15 0 19 -7 19
-58 1 -40 -14 -90 -16 -122 -3 -8 3 -30 8 -49 11 -52 9 -141 64 -141 87 0 13
7 19 23 19 12 0 35 7 51 15 15 8 35 15 44 15 22 0 120 67 133 91 21 40 -24
115 -88 148 -29 15 -81 13 -118 -3z m120 -100 c7 -20 7 -30 0 -33 -5 -2 -26
-13 -45 -25 -19 -12 -56 -28 -82 -34 l-48 -11 0 28 c0 33 50 96 83 102 54 11
81 3 92 -27z"/>
<path d="M4282 8495 c-12 -7 -33 -22 -46 -34 -12 -11 -28 -21 -34 -21 -6 0
-18 -11 -27 -24 -12 -19 -15 -48 -12 -151 3 -111 6 -129 22 -141 16 -12 21
-12 35 1 13 12 16 32 13 117 -4 131 1 157 38 187 64 50 138 24 199 -70 32 -49
32 -50 25 -147 -5 -76 -3 -101 8 -116 14 -19 15 -19 31 13 38 72 1 244 -71
340 -42 55 -126 77 -181 46z"/>
<path d="M18570 8478 c-11 -18 -20 -37 -20 -41 0 -15 -73 -122 -103 -150 -27
-26 -66 -47 -86 -47 -14 0 -20 118 -9 154 15 47 -5 96 -38 96 -24 0 -33 -18
-32 -65 0 -11 -1 -54 -3 -95 -5 -125 32 -178 116 -165 34 5 52 16 87 53 24 26
57 68 73 94 17 26 33 47 37 48 9 0 39 -57 36 -68 -6 -18 65 -140 85 -146 12
-3 22 -4 23 -3 1 1 -4 27 -13 57 -8 30 -21 78 -28 107 -23 90 -48 158 -61 166
-8 4 -14 15 -14 22 0 26 -30 16 -50 -17z"/>
<path d="M4875 8471 c-22 -11 -52 -30 -67 -43 -31 -26 -98 -149 -98 -179 0
-73 106 -127 185 -94 37 16 121 96 130 125 17 52 54 7 85 -102 54 -190 44
-287 -37 -366 -48 -48 -108 -72 -177 -72 -46 0 -137 32 -174 61 -34 26 -44 24
-36 -8 16 -68 110 -124 214 -126 37 -1 73 3 81 9 8 6 32 17 53 24 144 46 198
233 139 480 -18 78 -95 235 -122 250 -16 8 -51 5 -51 -5 0 -29 -38 -137 -57
-162 -24 -31 -72 -53 -116 -53 -25 0 -47 56 -35 90 13 39 93 113 135 125 43
12 66 41 43 55 -22 14 -51 12 -95 -9z"/>
<path d="M3015 8432 c-77 -16 -168 -170 -150 -253 23 -104 223 -165 350 -105
59 27 83 52 67 68 -8 8 -20 6 -45 -6 -41 -19 -141 -21 -201 -4 -75 21 -116 78
-56 78 64 0 143 37 193 91 26 29 47 58 47 65 0 25 -41 52 -98 62 -57 11 -70
12 -107 4z m122 -74 c18 -15 11 -22 -52 -52 -63 -30 -113 -34 -122 -10 -10 26
14 63 49 73 37 11 106 6 125 -11z"/>
<path d="M3911 8422 c-6 -12 -13 -81 -15 -157 -3 -126 -2 -137 16 -146 11 -6
23 -8 26 -4 4 4 8 70 10 148 3 111 0 146 -11 161 -14 19 -15 19 -26 -2z"/>
<path d="M2115 8401 c-28 -9 -61 -24 -75 -34 -23 -16 -25 -16 -52 10 -41 39
-56 21 -40 -48 7 -28 12 -83 12 -122 0 -81 24 -137 59 -137 30 0 33 14 20 79
-21 107 24 170 146 206 62 18 76 32 50 52 -24 17 -58 16 -120 -6z"/>
<path d="M10617 8414 c-4 -4 -7 -17 -7 -30 0 -57 212 -74 309 -25 51 27 52 41
4 41 -98 1 -231 8 -263 15 -19 3 -39 3 -43 -1z"/>
<path d="M2473 8383 c-18 -15 -42 -48 -53 -73 -11 -25 -30 -57 -41 -71 -19
-24 -20 -29 -6 -55 8 -16 17 -41 20 -55 8 -30 64 -77 116 -95 20 -7 68 -13
107 -14 56 0 74 4 87 18 21 23 13 32 -29 32 -87 0 -214 55 -214 94 0 19 31 42
67 49 46 9 124 46 156 75 34 32 34 61 2 92 -21 19 -38 24 -102 27 -74 4 -80 2
-110 -24z m154 -46 c12 -13 -85 -57 -124 -57 -17 0 -17 57 0 64 14 6 116 0
124 -7z"/>
<path d="M16362 8336 c-11 -24 -9 -26 26 -36 89 -24 112 -28 112 -20 0 5 7 7
16 3 15 -6 142 24 157 37 4 4 1 13 -8 20 -11 9 -60 14 -153 17 l-138 4 -12
-25z"/>
<path d="M2846 7285 c-11 -12 -13 -22 -6 -43 32 -93 50 -502 30 -663 -11 -87
-10 -99 7 -135 15 -31 29 -43 73 -62 50 -21 66 -23 185 -18 153 5 340 -8 362
-25 23 -19 15 -186 -9 -203 -23 -17 -23 -33 1 -46 33 -17 53 -11 110 33 122
96 299 207 328 207 24 0 33 7 46 35 25 52 22 62 -21 68 -22 4 -66 27 -107 57
-39 27 -104 74 -145 103 -41 29 -88 62 -105 74 -80 58 -110 31 -94 -83 5 -37
8 -82 7 -101 l-2 -33 -166 -2 c-91 -1 -178 -2 -195 -3 -16 -1 -53 -4 -81 -5
-58 -4 -106 19 -123 58 -7 15 -9 52 -6 96 14 171 12 336 -6 484 -25 212 -40
250 -83 207z"/>
<path d="M7016 6981 c-15 -16 -18 -46 -20 -231 l-3 -213 -54 0 c-30 1 -74 6
-99 12 -25 5 -73 10 -107 11 -58 0 -62 1 -71 29 -6 16 -9 44 -7 62 2 19 6 81
10 139 6 94 5 108 -10 120 -16 13 -19 13 -29 -4 -6 -10 -22 -32 -35 -48 -21
-26 -23 -35 -17 -91 11 -108 18 -266 20 -446 2 -153 4 -174 20 -183 40 -22 44
-7 44 153 0 193 -3 189 146 189 55 0 121 -6 146 -14 l45 -13 0 -131 c0 -112 3
-134 18 -149 14 -14 19 -15 26 -5 9 16 25 233 23 312 -1 30 -3 155 -5 277 -2
232 -8 261 -41 224z"/>
<path d="M7995 6943 c-13 -13 -16 -27 -11 -67 3 -28 8 -96 12 -151 3 -55 8
-103 10 -107 3 -4 5 -85 5 -180 -1 -95 2 -196 5 -225 5 -44 10 -52 31 -58 14
-3 29 -2 33 2 8 11 -6 408 -21 553 -6 63 -13 140 -16 170 -7 86 -15 97 -48 63z"/>
<path d="M7755 6886 c-13 -10 -16 -21 -11 -42 3 -16 10 -94 16 -174 24 -362
38 -482 59 -504 11 -11 23 -17 27 -13 8 7 7 171 -1 297 -3 47 -10 155 -14 241
-5 86 -13 165 -19 176 -15 27 -36 34 -57 19z"/>
<path d="M12380 6830 c-11 -11 -20 -23 -20 -27 0 -5 7 -64 15 -132 8 -68 17
-171 21 -230 7 -119 15 -144 47 -139 21 3 22 6 19 128 -1 69 -7 183 -13 254
-13 165 -25 190 -69 146z"/>
<path d="M13104 6763 c-162 -156 -274 -260 -298 -276 -14 -10 -26 -26 -26 -35
1 -20 124 -126 161 -137 13 -4 36 -17 51 -29 14 -11 59 -42 100 -67 128 -81
185 -70 91 17 -27 24 -53 44 -59 44 -6 0 -31 17 -55 38 -24 22 -63 51 -87 66
-23 15 -52 36 -63 47 l-21 21 24 23 c13 14 34 35 48 47 14 13 52 49 85 80 33
31 82 77 108 101 42 39 48 49 45 78 -5 54 -34 49 -104 -18z"/>
<path d="M14181 6788 c-7 -17 -3 -34 13 -63 12 -22 27 -49 33 -60 6 -11 19
-38 29 -60 18 -43 99 -174 118 -190 6 -6 22 -25 35 -44 21 -30 22 -36 10 -58
-8 -14 -73 -84 -146 -157 -73 -72 -136 -139 -139 -150 -9 -26 18 -50 46 -41
40 13 296 278 319 330 12 26 21 52 21 57 0 13 -37 64 -92 127 -26 30 -56 73
-68 95 -11 23 -24 48 -29 56 -6 8 -24 48 -42 88 -18 40 -40 77 -50 83 -29 15
-49 10 -58 -13z"/>
<path d="M5000 6785 c-8 -7 -70 -41 -137 -74 -67 -33 -124 -65 -128 -71 -3 -5
-23 -17 -43 -27 -20 -9 -64 -35 -97 -58 -33 -23 -86 -54 -117 -68 -43 -19 -58
-31 -58 -46 0 -27 29 -41 85 -41 40 0 52 -5 93 -43 26 -24 106 -82 177 -129
194 -127 210 -133 200 -77 -5 26 -50 68 -135 126 -85 58 -187 140 -204 165
-21 29 -18 31 124 105 63 33 142 77 175 97 33 20 65 36 70 36 6 1 20 9 32 19
19 16 22 25 16 53 -9 47 -28 59 -53 33z"/>
<path d="M5772 6781 c-19 -11 7 -61 43 -85 34 -22 234 -216 246 -239 8 -14 3
-27 -23 -60 -48 -62 -203 -241 -222 -256 -20 -17 -21 -45 -1 -61 28 -23 87 27
199 169 109 139 134 174 146 205 10 27 10 27 -115 122 -11 8 -65 60 -121 114
-97 96 -121 111 -152 91z"/>
<path d="M13596 6767 c-13 -13 -37 -49 -51 -78 -15 -30 -46 -83 -69 -119 -211
-325 -225 -350 -201 -350 8 0 14 -6 13 -12 -4 -18 42 -11 65 9 9 9 17 22 17
28 0 7 14 30 31 51 43 54 99 142 99 157 1 6 11 25 24 41 13 15 22 36 19 45 -2
9 16 39 44 71 63 72 88 111 75 119 -5 3 -12 17 -13 30 -5 34 -24 37 -53 8z"/>
<path d="M11131 6761 c-10 -6 -12 -19 -6 -47 4 -22 9 -78 12 -126 l4 -88 -60
0 c-49 0 -64 -4 -81 -22 -11 -12 -20 -25 -20 -28 0 -13 55 -32 106 -37 40 -4
54 -10 62 -27 11 -25 -11 -234 -28 -266 -14 -26 -7 -36 25 -43 22 -4 29 1 44
32 18 36 41 175 40 241 -1 19 -1 40 0 47 1 16 55 32 130 37 53 4 69 10 89 31
16 18 21 30 14 37 -5 5 -59 9 -124 9 -114 -1 -115 -1 -126 24 -7 14 -12 50
-12 80 0 30 -4 64 -9 77 -5 13 -12 35 -15 51 -7 28 -20 33 -45 18z"/>
<path d="M9593 6727 c-72 -20 -72 -22 -62 -190 8 -121 7 -152 -5 -174 -10 -20
-11 -33 -3 -50 7 -17 7 -48 -1 -107 -6 -46 -8 -93 -5 -105 3 -12 0 -28 -7 -37
-11 -12 -10 -18 2 -31 9 -8 28 -17 42 -18 14 -2 38 -12 53 -22 25 -18 64 -30
142 -47 45 -9 193 14 233 36 45 25 78 73 78 112 0 70 -104 165 -240 218 -44
17 -80 35 -80 39 0 4 27 27 61 51 92 65 115 89 133 136 40 107 -9 160 -180
191 -72 13 -105 13 -161 -2z m225 -90 c48 -15 62 -23 62 -38 0 -31 -25 -72
-67 -110 -44 -40 -190 -107 -203 -93 -24 25 -8 238 19 254 25 15 119 9 189
-13z m-93 -362 c117 -19 216 -75 253 -143 23 -42 23 -44 6 -63 -32 -36 -98
-57 -181 -59 -92 -3 -144 6 -197 32 -38 19 -38 20 -31 61 4 23 9 55 11 71 13
93 30 118 79 110 11 -1 38 -6 60 -9z"/>
<path d="M5278 6625 c-8 -18 -8 -28 1 -38 6 -8 9 -21 5 -30 -3 -9 4 -53 15
-99 11 -46 22 -126 24 -178 3 -52 8 -106 11 -120 11 -42 -14 -251 -35 -303
-11 -27 -19 -58 -17 -70 4 -28 39 -34 61 -10 20 23 57 224 57 315 0 72 -1 71
57 68 100 -5 228 49 274 116 37 55 43 93 23 161 -20 69 -79 128 -178 178 -66
34 -73 35 -178 35 -106 0 -109 -1 -120 -25z m253 -65 c80 -22 179 -117 179
-173 0 -45 -32 -87 -84 -112 -114 -53 -202 -59 -224 -13 -13 27 -29 124 -39
239 l-5 65 67 2 c37 1 85 -3 106 -8z"/>
<path d="M13724 6606 c-18 -13 -19 -25 -15 -159 2 -119 0 -149 -13 -176 -15
-28 -15 -34 -1 -53 23 -33 17 -238 -11 -411 -4 -23 -2 -43 6 -52 32 -39 55 -3
66 100 7 70 9 103 12 223 l2 62 28 -6 c15 -4 32 -10 37 -14 27 -22 86 -21 152
0 88 29 130 61 154 118 66 154 -18 321 -187 370 -59 17 -205 16 -230 -2z m231
-92 c87 -21 133 -72 149 -163 9 -48 -32 -114 -87 -143 -62 -31 -173 -32 -207
-1 -13 13 -25 33 -27 45 -5 40 -4 128 2 137 2 5 0 33 -5 61 -17 91 15 103 175
64z"/>
<path d="M7385 6519 c-22 -13 -90 -82 -137 -141 -59 -75 -42 -161 42 -206 44
-23 170 -43 224 -35 67 10 166 87 142 110 -3 3 -32 -4 -64 -16 -104 -37 -257
-24 -289 26 -12 18 -13 26 -3 38 7 8 16 12 21 9 12 -7 137 25 182 48 40 20 77
69 77 102 0 11 -12 33 -27 48 -24 25 -34 28 -87 28 -34 0 -70 -5 -81 -11z
m118 -66 c13 -7 -12 -42 -41 -57 -15 -7 -44 -16 -64 -20 -37 -7 -38 -6 -38 22
0 24 7 33 33 45 52 24 79 27 110 10z"/>
<path d="M12105 6474 c-22 -7 -52 -16 -66 -19 -14 -2 -38 -17 -52 -31 -38 -38
-37 -88 4 -137 17 -20 34 -37 39 -37 4 0 34 -16 66 -35 32 -19 65 -33 74 -30
11 3 21 -4 30 -20 12 -23 12 -28 -7 -47 -13 -12 -47 -26 -83 -34 -54 -11 -65
-10 -91 4 -16 9 -29 23 -29 30 0 6 -4 12 -10 12 -5 0 -10 -4 -10 -10 0 -5 -7
-10 -15 -10 -31 0 -14 -40 32 -75 46 -35 50 -36 108 -30 73 8 132 39 162 84
45 67 18 128 -67 151 -76 21 -175 108 -156 138 9 15 94 30 136 25 24 -2 46 3
67 16 41 25 35 47 -15 54 -20 3 -46 8 -57 10 -11 3 -38 -1 -60 -9z"/>
<path d="M8345 6468 c-98 -35 -128 -73 -133 -170 l-4 -69 72 -67 c60 -56 80
-68 118 -74 57 -9 93 6 147 59 50 49 91 153 74 186 -19 37 -92 108 -126 122
-46 20 -113 25 -148 13z m165 -97 c30 -24 35 -35 38 -75 3 -42 0 -50 -40 -92
-57 -59 -103 -71 -164 -41 -50 24 -51 25 -60 105 -6 56 -5 60 25 95 49 55 138
59 201 8z"/>
<path d="M11500 6456 c-7 -9 -19 -48 -27 -88 -11 -60 -12 -86 -2 -148 14 -90
37 -127 83 -135 35 -7 107 22 120 47 3 7 15 27 26 43 10 17 27 45 36 63 9 18
21 31 27 29 5 -1 25 -47 44 -100 20 -53 39 -94 45 -91 5 3 15 0 23 -6 31 -25
31 24 1 107 -9 23 -25 84 -36 135 -34 157 -58 156 -137 -3 -51 -104 -88 -149
-122 -149 -33 0 -44 50 -40 182 3 106 2 123 -12 126 -9 1 -22 -4 -29 -12z"/>
<path d="M10853 6432 c-6 -4 -19 -27 -29 -52 -23 -58 -89 -157 -114 -170 -35
-18 -43 -3 -36 65 6 62 -4 115 -23 115 -31 0 -59 -93 -52 -170 6 -69 51 -110
107 -96 32 8 107 84 124 126 7 17 17 29 22 28 6 -2 20 -33 32 -69 23 -71 60
-129 81 -129 23 0 25 14 10 61 -8 24 -25 89 -37 144 -19 90 -47 155 -66 155
-4 0 -12 -4 -19 -8z"/>
<path d="M10323 6387 c-22 -12 -49 -35 -60 -50 -13 -20 -24 -27 -40 -24 -34 6
-54 -44 -43 -108 5 -27 11 -71 15 -96 4 -36 11 -49 30 -57 29 -13 48 4 44 40
-3 24 4 61 23 135 8 32 22 51 57 79 45 36 47 36 119 31 63 -5 73 -3 70 10 -4
23 -68 53 -124 58 -37 3 -59 -2 -91 -18z"/>
<path d="M8799 6082 c-55 -56 -106 -137 -115 -179 -5 -24 -2 -33 13 -41 26
-14 63 20 92 85 25 53 28 59 53 95 10 13 21 38 24 56 9 46 -11 41 -67 -16z"/>
<path d="M12483 6110 c-28 -12 -39 -46 -19 -65 20 -20 39 -19 59 3 20 22 22
43 5 60 -14 14 -15 14 -45 2z"/>
<path d="M16727 4472 c-2 -4 -7 -19 -11 -33 -5 -24 4 -36 75 -105 45 -44 92
-96 105 -116 13 -21 31 -38 40 -38 25 0 9 77 -27 129 -64 92 -169 186 -182
163z"/>
<path d="M16496 4409 c-15 -30 -15 -30 27 -67 23 -20 70 -65 105 -100 34 -34
67 -60 73 -56 6 4 15 0 20 -7 6 -10 9 -2 9 23 0 28 -6 41 -27 58 -16 12 -55
52 -87 88 -32 37 -69 73 -82 79 -21 12 -24 10 -38 -18z"/>
<path d="M888 4423 c-9 -2 -44 -36 -78 -76 -79 -91 -180 -180 -295 -262 -143
-102 -138 -97 -125 -127 7 -14 51 -50 101 -83 49 -32 119 -88 156 -124 137
-132 213 -182 213 -139 0 12 -130 138 -142 138 -4 0 -8 6 -8 14 0 8 -18 30
-41 48 -61 50 -159 146 -159 156 0 5 19 22 43 38 57 38 216 182 299 268 57 61
67 76 68 108 0 39 -5 47 -32 41z"/>
<path d="M3424 4367 c-3 -9 -3 -37 1 -64 3 -26 9 -92 12 -145 4 -77 3 -99 -8
-103 -19 -7 -76 -13 -120 -14 -20 -1 -47 -9 -60 -20 l-23 -18 28 -19 c18 -11
55 -20 100 -23 l71 -6 6 -44 c6 -44 -2 -110 -22 -186 -10 -37 -14 -42 -57 -53
-56 -14 -56 -14 -106 -31 -46 -16 -191 -8 -241 13 -39 17 -105 74 -105 91 0 7
30 22 66 35 59 20 95 39 161 85 12 8 25 31 29 51 8 45 -20 78 -80 93 -58 14
-112 4 -169 -32 -57 -36 -86 -81 -94 -139 -9 -71 -6 -85 21 -121 14 -18 26
-39 26 -45 0 -17 91 -78 140 -95 89 -30 135 -31 213 -6 39 12 83 31 96 41 13
10 37 18 53 18 25 0 28 -3 22 -25 -5 -20 -2 -27 17 -34 21 -8 25 -5 36 26 13
35 27 130 42 281 5 46 11 85 13 87 6 6 147 53 193 65 22 5 49 16 60 24 16 12
17 16 6 30 -15 17 -17 17 -155 -6 -65 -11 -70 -11 -86 9 -12 15 -19 49 -24
111 -3 49 -12 109 -19 132 -13 45 -33 62 -43 37z m-338 -431 l28 -23 -76 -37
c-41 -21 -91 -38 -109 -39 -30 -2 -34 1 -37 24 -4 34 24 67 73 84 58 20 90 18
121 -9z"/>
<path d="M22198 4343 c-9 -10 -23 -34 -33 -53 -10 -19 -37 -63 -62 -97 -54
-77 -71 -117 -65 -150 7 -40 32 -41 64 -3 15 19 28 39 28 46 0 6 14 30 30 52
17 23 30 44 30 48 0 3 12 21 26 39 14 19 23 39 19 45 -4 6 -1 18 6 26 9 11 9
21 1 39 -14 30 -24 31 -44 8z"/>
<path d="M5989 4334 c-13 -13 -14 -24 -7 -62 10 -46 16 -91 21 -162 2 -19 5
-40 9 -45 3 -6 2 -35 -1 -65 -9 -81 -5 -173 11 -275 15 -95 22 -115 40 -115 7
0 8 18 4 53 -7 52 -18 199 -17 227 0 8 2 47 4 85 6 100 -18 344 -35 361 -12
12 -16 12 -29 -2z"/>
<path d="M12504 4333 c-12 -2 -48 -34 -80 -71 -32 -37 -62 -68 -66 -70 -5 -2
-8 -12 -8 -23 0 -12 5 -16 15 -13 9 4 15 0 15 -10 0 -9 8 -16 20 -16 11 0 20
6 20 13 0 15 37 50 62 59 34 14 82 143 50 137 -4 -1 -17 -4 -28 -6z"/>
<path d="M10922 4308 c-16 -16 -15 -43 3 -58 8 -7 15 -18 15 -26 0 -7 10 -20
21 -28 13 -9 19 -21 16 -30 -3 -8 -2 -18 4 -21 5 -4 21 -27 34 -53 68 -126
115 -186 132 -168 3 3 -18 50 -46 105 -28 54 -51 106 -51 114 0 8 -7 20 -15
27 -8 7 -15 23 -15 36 0 13 -6 27 -14 31 -7 4 -21 25 -31 46 -18 38 -33 45
-53 25z"/>
<path d="M1325 4299 c-130 -21 -182 -74 -242 -249 -37 -108 -43 -193 -18 -278
13 -44 21 -53 55 -68 22 -10 40 -21 40 -26 0 -7 33 -17 120 -37 101 -22 118
-22 171 0 46 20 54 29 76 77 26 59 34 121 26 195 -9 73 -18 76 -231 80 -100 2
-184 6 -187 9 -13 12 30 114 64 151 55 61 187 107 305 107 29 0 61 6 71 14 17
12 16 14 -16 24 -38 13 -159 13 -234 1z m127 -384 c29 -4 38 -12 47 -36 12
-35 0 -109 -25 -146 -32 -50 -139 -51 -270 -2 -42 16 -54 26 -67 57 -45 107
-38 114 115 128 68 5 132 9 143 8 11 -2 36 -5 57 -9z"/>
<path d="M22373 4273 c-39 -42 -74 -92 -116 -164 -22 -40 -26 -53 -17 -69 9
-17 14 -18 31 -9 11 5 23 17 26 26 4 9 35 59 70 111 83 124 87 191 6 105z"/>
<path d="M18341 4291 c-8 -5 -11 -16 -6 -31 14 -43 31 -190 24 -201 -5 -9 -28
-10 -78 -6 -87 7 -131 -5 -131 -38 0 -35 21 -45 119 -57 106 -13 101 -2 87
-174 -10 -129 -4 -180 24 -187 11 -3 24 0 29 7 5 6 11 86 13 178 l3 166 61 1
c70 1 112 13 120 36 13 33 -13 45 -136 62 -46 6 -50 12 -55 64 -10 113 -30
189 -48 189 -7 0 -18 -4 -26 -9z"/>
<path d="M20717 4293 c-11 -10 -8 -71 3 -78 5 -3 9 -18 8 -33 -1 -15 2 -74 7
-131 l8 -104 -89 7 c-83 7 -91 6 -108 -13 -15 -17 -16 -24 -7 -35 15 -18 88
-42 152 -51 37 -5 48 -11 53 -28 8 -29 -2 -171 -16 -224 -18 -71 26 -101 59
-40 14 25 18 58 19 145 1 66 6 118 13 125 5 5 34 12 63 13 131 7 133 8 136 31
4 25 -28 43 -75 43 -15 0 -55 5 -90 11 -54 9 -63 14 -58 29 7 22 -39 290 -55
319 -12 23 -14 24 -23 14z"/>
<path d="M17186 4257 c-10 -15 -16 -51 -16 -107 -1 -47 -3 -105 -6 -130 -12
-114 -23 -187 -32 -215 -6 -16 -13 -48 -16 -70 -3 -22 -12 -54 -20 -70 -21
-39 -20 -52 3 -65 16 -8 23 -5 39 18 24 35 52 121 52 162 0 17 5 41 12 53 15
28 19 54 22 152 1 45 7 89 13 100 10 17 13 14 37 -23 14 -23 26 -46 26 -52 0
-5 8 -18 18 -28 27 -27 102 -184 102 -214 0 -36 10 -58 25 -58 7 0 15 -15 18
-34 6 -40 49 -89 74 -84 49 9 68 131 66 413 -1 146 -4 171 -18 180 -12 8 -20
5 -34 -11 -15 -19 -17 -43 -15 -198 1 -97 -2 -179 -7 -182 -5 -3 -9 -20 -9
-39 0 -56 -16 -49 -34 15 -18 65 -89 213 -130 273 -14 21 -26 43 -26 48 0 6
-8 23 -18 37 -10 15 -22 36 -26 47 -9 24 -68 104 -78 105 -4 0 -14 -10 -22
-23z"/>
<path d="M19195 4250 c-16 -4 -42 -11 -56 -14 -46 -10 -45 -86 2 -86 11 0 22
-7 25 -15 7 -17 8 -127 4 -357 -2 -157 -4 -163 -37 -159 -24 3 -23 -21 3 -69
15 -28 34 -50 42 -50 7 0 26 -8 40 -19 15 -10 37 -22 50 -25 12 -4 22 -12 22
-17 0 -13 99 -59 127 -59 12 0 24 4 27 9 3 4 25 12 48 16 48 9 45 8 73 18 20
7 27 17 60 85 25 52 7 90 -78 164 -140 124 -198 183 -185 186 46 12 145 60
186 89 41 31 72 91 72 142 0 32 -6 44 -31 65 -17 14 -39 26 -49 26 -10 0 -20
3 -22 8 -7 15 -121 54 -186 63 -79 10 -97 10 -137 -1z m219 -101 c141 -47 146
-50 146 -81 0 -19 -11 -35 -37 -56 -45 -34 -85 -57 -96 -54 -4 1 -31 -4 -60
-11 -29 -7 -68 -10 -87 -7 l-35 5 -5 96 c-6 118 -5 127 23 132 45 9 62 6 151
-24z m-109 -352 c22 -14 61 -44 86 -68 26 -24 78 -66 118 -94 63 -45 71 -53
68 -80 -3 -43 -59 -69 -152 -69 -60 -1 -80 4 -142 34 -40 19 -75 40 -77 46 -3
7 4 28 15 48 13 25 19 53 17 84 -1 26 -1 71 0 101 2 46 4 52 15 39 6 -9 30
-27 52 -41z"/>
<path d="M22898 4120 c-144 -163 -157 -180 -281 -365 -98 -146 -137 -210 -137
-225 0 -5 8 -11 19 -15 36 -11 29 -19 226 247 36 48 62 93 60 101 -4 8 4 18
17 24 13 6 60 57 103 113 44 57 97 120 118 142 24 26 37 48 37 66 0 27 -15 52
-31 52 -5 0 -63 -63 -131 -140z"/>
<path d="M23169 4226 c-10 -21 -2 -41 57 -157 38 -73 97 -176 131 -228 35 -52
60 -98 56 -101 -5 -4 -33 -24 -63 -46 -72 -51 -156 -127 -215 -195 -16 -20
-37 -39 -46 -45 -8 -5 -28 -26 -44 -47 l-28 -38 21 -19 c32 -30 45 -25 99 34
27 30 76 75 109 102 32 27 92 81 133 122 41 40 88 80 104 88 26 14 28 19 22
52 -4 20 -20 52 -37 71 -45 51 -46 52 -78 101 -16 25 -30 50 -30 56 0 6 -7 17
-15 24 -12 10 -95 172 -95 186 0 13 -45 64 -57 64 -7 0 -18 -11 -24 -24z"/>
<path d="M10705 4220 c-10 -16 11 -75 36 -101 13 -14 42 -46 64 -72 38 -46 83
-77 112 -77 24 0 14 27 -22 59 -19 17 -35 35 -35 41 0 5 -9 15 -20 22 -11 7
-20 20 -20 29 0 16 -87 109 -102 109 -4 0 -10 -4 -13 -10z"/>
<path d="M12631 4164 c-112 -115 -134 -158 -86 -170 24 -6 55 9 55 26 0 4 14
22 30 40 17 18 30 41 30 51 0 10 6 19 14 19 21 0 57 50 54 74 -6 38 -30 28
-97 -40z"/>
<path d="M3881 4161 c-11 -7 -10 -13 4 -35 10 -14 21 -26 25 -26 5 0 15 -3 24
-6 25 -10 20 29 -7 54 -26 25 -27 25 -46 13z"/>
<path d="M2030 4128 c-114 -10 -184 -40 -230 -99 -23 -28 -39 -39 -58 -39 -51
0 -58 -13 -40 -67 10 -26 20 -88 23 -138 5 -68 11 -94 25 -109 18 -18 18 -18
35 8 14 22 16 39 11 91 -13 126 35 226 126 264 28 12 58 21 67 21 9 0 33 8 54
19 20 10 53 22 72 25 35 7 46 20 23 28 -7 2 -56 0 -108 -4z"/>
<path d="M2335 4062 c-53 -34 -85 -77 -120 -162 -44 -106 -45 -149 -5 -199 54
-66 137 -100 258 -103 64 -2 135 26 232 90 70 46 48 54 -53 18 -106 -37 -207
-43 -278 -17 -63 24 -99 53 -99 81 0 15 12 21 58 30 62 12 143 36 181 54 42
19 54 91 24 144 -39 69 -140 101 -198 64z m130 -64 c15 -14 27 -35 28 -53 2
-26 -2 -31 -38 -43 -22 -7 -65 -18 -95 -23 -30 -6 -63 -12 -72 -15 -26 -8 -23
32 5 79 45 75 121 99 172 55z"/>
<path d="M6555 4043 c-11 -3 -57 -28 -102 -55 -84 -50 -163 -127 -191 -184
-32 -68 18 -164 87 -164 36 0 110 32 123 54 30 49 114 156 123 156 12 0 56
-53 77 -95 22 -42 54 -69 73 -61 15 5 15 8 1 33 -9 16 -20 39 -26 53 -5 14
-14 32 -19 40 -21 36 -84 173 -90 198 -8 28 -21 34 -56 25z m-20 -125 c-16
-56 -72 -152 -107 -183 -40 -37 -72 -44 -102 -22 -29 21 -22 61 19 117 39 53
127 109 173 110 19 0 22 -4 17 -22z"/>
<path d="M21825 4030 c-60 -9 -187 -70 -209 -102 -28 -40 -20 -77 25 -119 23
-21 61 -48 84 -59 49 -24 115 -84 115 -105 0 -32 -97 -54 -154 -35 -20 6 -51
30 -70 52 -33 38 -35 39 -45 20 -15 -29 -14 -38 12 -77 14 -24 43 -46 85 -67
l62 -31 66 18 c75 20 89 36 97 110 5 48 4 50 -41 93 -25 24 -69 57 -99 74 -29
17 -58 39 -64 50 -14 26 10 44 105 79 53 20 75 34 89 56 23 40 8 51 -58 43z"/>
<path d="M10149 3999 c-36 -36 -24 -45 93 -70 55 -12 212 -8 226 6 13 12 -14
37 -53 50 -47 14 -173 35 -215 35 -17 0 -39 -9 -51 -21z"/>
<path d="M6968 4003 c-15 -2 -41 -17 -59 -33 -24 -24 -35 -28 -49 -20 -27 15
-32 0 -33 -98 0 -107 9 -149 33 -162 28 -15 46 27 53 120 8 95 28 125 83 125
35 0 41 -4 63 -44 27 -50 61 -226 53 -279 -4 -27 -1 -33 23 -42 15 -6 29 -9
30 -8 2 2 4 35 6 73 5 108 -9 191 -42 247 -16 27 -31 59 -35 73 -3 13 -11 28
-17 34 -15 12 -74 20 -109 14z"/>
<path d="M8175 3999 c-12 -6 -30 -37 -45 -76 -29 -79 -90 -160 -126 -169 -32
-8 -58 15 -79 71 -14 35 -15 49 -5 85 10 35 9 45 -3 57 -22 23 -54 8 -61 -29
-3 -17 -6 -55 -6 -86 0 -48 4 -60 36 -98 22 -28 43 -44 58 -44 12 0 27 -5 33
-11 23 -23 72 1 126 62 30 32 57 59 60 59 13 0 37 -60 37 -90 0 -50 48 -120
82 -120 14 0 9 54 -11 110 -10 30 -24 98 -31 150 -12 97 -23 141 -37 139 -5 0
-17 -5 -28 -10z"/>
<path d="M15977 3993 c-18 -3 -32 -14 -39 -29 -25 -55 35 -68 247 -56 105 6
120 9 123 25 2 11 -6 30 -19 43 -22 23 -27 24 -153 23 -72 -1 -144 -4 -159 -6z"/>
<path d="M4300 3960 c-19 -16 -41 -29 -47 -30 -7 0 -20 -14 -29 -32 -13 -24
-16 -58 -15 -157 2 -127 8 -151 41 -151 15 0 18 15 24 118 8 129 22 169 65
195 50 29 97 17 157 -41 29 -27 47 -129 43 -234 -4 -74 -2 -83 15 -86 10 -2
22 2 27 10 12 19 1 193 -16 253 -45 157 -175 233 -265 155z"/>
<path d="M9210 3983 c-8 -2 -24 -8 -35 -13 -11 -4 -35 -14 -53 -21 -40 -14
-103 -73 -125 -115 -24 -46 -5 -122 44 -172 33 -35 46 -41 94 -47 43 -6 61 -4
80 9 13 9 33 16 44 16 10 0 31 14 46 31 14 17 27 30 30 28 2 -2 10 -38 19 -79
9 -41 25 -115 36 -164 11 -50 20 -117 20 -149 0 -53 -3 -62 -33 -92 -67 -67
-216 -56 -310 24 -42 35 -65 134 -36 152 8 4 8 9 -1 14 -6 4 -12 5 -14 4 -27
-37 -50 -89 -48 -109 7 -53 89 -152 156 -187 43 -22 124 -27 187 -10 60 15 99
43 130 93 27 44 25 154 -6 311 -14 69 -25 142 -24 162 1 71 -13 177 -29 207
-14 28 -18 31 -38 22 -19 -9 -24 -21 -30 -75 -5 -48 -13 -72 -32 -95 -51 -61
-153 -78 -197 -34 -73 73 -28 159 121 227 51 23 74 39 74 52 0 17 -34 22 -70
10z"/>
<path d="M11515 3973 c-11 -2 -30 -6 -42 -8 -43 -9 -129 -91 -152 -145 -17
-39 -26 -50 -39 -46 -9 3 -24 1 -32 -4 -12 -8 -12 -12 5 -32 11 -13 31 -44 44
-70 31 -62 80 -105 149 -132 46 -17 79 -21 170 -21 102 0 115 2 128 20 8 11
19 20 24 20 4 0 11 3 15 7 4 4 13 4 20 2 12 -5 55 40 55 57 0 14 -68 10 -108
-6 -92 -39 -321 -4 -352 54 -9 19 -7 23 17 32 57 21 199 91 215 106 13 12 16
28 13 72 -6 83 -46 112 -130 94z m63 -89 c10 -7 -11 -42 -31 -51 -12 -6 -42
-20 -67 -31 -25 -11 -58 -24 -73 -28 l-28 -6 21 40 c28 54 91 92 140 85 19 -3
37 -7 38 -9z"/>
<path d="M15410 3959 c-56 -25 -82 -49 -128 -118 -23 -34 -38 -72 -44 -108 -7
-47 -6 -60 14 -94 24 -44 72 -79 109 -80 13 0 39 -6 58 -13 28 -10 48 -10 100
0 155 30 221 52 221 75 0 8 -99 6 -195 -5 -49 -5 -72 -2 -125 16 -96 34 -87
51 35 75 16 3 59 28 96 54 109 79 112 127 14 183 -65 36 -101 39 -155 15z
m124 -80 c14 -11 26 -27 26 -35 0 -27 -193 -105 -221 -89 -28 18 7 91 60 123
47 27 101 28 135 1z"/>
<path d="M8619 3946 c-31 -12 -70 -32 -87 -44 -47 -34 -95 -99 -94 -130 0 -15
-5 -32 -10 -39 -24 -30 67 -134 106 -120 6 2 18 0 28 -4 38 -20 128 46 157
114 11 25 24 48 29 51 15 9 41 -4 47 -23 3 -10 29 -41 57 -69 38 -38 60 -52
80 -52 37 0 35 19 -5 51 -17 15 -47 58 -66 95 -19 38 -42 85 -52 104 -19 39
-83 89 -114 89 -11 0 -45 -10 -76 -23z m95 -51 c7 -19 -23 -109 -54 -162 -28
-47 -66 -69 -105 -59 -27 7 -65 43 -65 62 0 21 54 104 67 104 7 0 13 5 13 10
0 12 97 59 121 60 9 0 19 -7 23 -15z"/>
<path d="M13496 3960 c-39 -12 -88 -63 -80 -84 3 -9 2 -16 -4 -16 -6 0 -17 -3
-25 -6 -10 -3 -17 3 -21 20 -4 16 -13 26 -24 26 -18 0 -54 -20 -37 -20 6 0 10
-23 11 -51 1 -27 5 -54 11 -60 5 -5 6 -33 2 -67 -14 -107 -11 -151 11 -175
l20 -21 25 26 c18 19 25 39 25 65 0 47 32 193 42 193 4 0 16 17 27 39 27 52
68 69 130 52 56 -15 78 -34 87 -75 4 -17 15 -38 25 -47 11 -9 19 -27 19 -40 0
-13 4 -38 8 -54 5 -17 6 -61 2 -98 -4 -54 -2 -74 11 -93 l16 -25 16 24 c17 26
31 183 17 192 -4 2 -13 26 -20 52 -16 60 -63 155 -85 173 -9 8 -21 23 -25 35
-13 35 -117 55 -184 35z"/>
<path d="M14235 3947 c-123 -45 -248 -157 -267 -239 -11 -53 -5 -71 40 -106
30 -24 51 -31 107 -37 63 -6 73 -4 98 16 16 12 33 31 38 43 5 11 13 28 18 36
5 8 18 34 28 57 10 23 20 43 23 43 3 0 18 -42 34 -93 44 -138 72 -184 117
-189 20 -3 24 2 25 22 0 14 -5 36 -12 50 -21 40 -41 91 -64 160 -12 36 -26 70
-31 76 -5 6 -10 24 -10 40 -1 16 -10 47 -20 69 -10 22 -20 48 -23 58 -7 22
-27 21 -101 -6z m27 -94 c4 -18 -1 -39 -30 -123 -18 -53 -61 -100 -92 -100
-40 0 -90 28 -90 50 0 41 100 155 146 166 13 3 27 10 30 15 9 15 32 10 36 -8z"/>
<path d="M4903 3925 c-68 -36 -148 -109 -164 -152 -5 -13 -11 -42 -14 -65 -4
-37 -1 -48 23 -77 24 -28 37 -34 80 -39 64 -6 101 15 193 110 37 37 71 68 77
68 18 0 48 -102 57 -190 2 -25 9 -85 15 -135 12 -106 9 -134 -28 -205 -67
-133 -245 -139 -364 -12 -30 32 -49 63 -53 86 -8 42 -19 45 -39 13 -19 -28
-12 -55 32 -128 47 -76 135 -128 231 -136 61 -5 75 -3 124 22 60 29 118 90
133 140 16 58 10 323 -10 415 -16 74 -72 240 -81 240 -25 0 -56 -27 -74 -63
-25 -52 -61 -92 -120 -135 -50 -36 -76 -40 -109 -16 -44 31 -18 117 50 161 24
15 45 30 48 33 3 3 23 14 44 25 48 25 86 53 86 66 0 21 -72 7 -137 -26z"/>
<path d="M9716 3935 c-65 -23 -130 -83 -162 -150 -28 -58 -30 -92 -9 -122 15
-21 100 -83 120 -88 5 -1 23 -7 39 -14 41 -17 249 -9 272 10 15 12 13 14 -17
22 -48 12 -135 26 -193 33 -52 5 -110 34 -120 59 -6 16 22 35 51 35 10 0 36 9
58 20 21 11 55 23 74 26 49 9 101 49 101 78 0 33 -60 84 -107 91 -21 3 -45 8
-54 9 -9 2 -33 -2 -53 -9z m134 -70 c11 -13 10 -18 -6 -30 -18 -14 -78 -35
-99 -35 -5 0 -33 -10 -62 -22 -29 -12 -56 -19 -59 -15 -13 12 33 72 72 94 47
27 134 32 154 8z"/>
<path d="M12002 3930 c-19 -10 -41 -25 -51 -34 -13 -12 -20 -13 -28 -5 -7 7
-19 9 -28 5 -14 -5 -16 -15 -11 -59 3 -28 2 -75 -2 -103 -11 -67 -4 -124 17
-132 9 -3 19 -10 22 -15 9 -14 33 32 35 68 11 145 32 182 123 213 31 11 36 9
65 -16 20 -17 37 -44 45 -72 7 -25 17 -58 22 -74 5 -16 9 -49 9 -73 0 -46 23
-112 43 -125 33 -21 37 -9 31 80 -4 48 -10 92 -14 97 -4 6 -11 30 -15 55 -8
51 -45 126 -79 163 -14 15 -43 29 -75 36 -66 14 -69 14 -109 -9z"/>
<path d="M14675 3942 c-11 -3 -31 -13 -44 -23 -13 -11 -33 -19 -45 -19 -11 0
-29 -7 -38 -14 -18 -13 -18 -20 6 -151 3 -16 8 -61 10 -98 4 -65 23 -107 48
-107 19 0 31 61 32 167 1 97 4 115 22 140 17 22 29 28 58 27 42 -2 58 -18 80
-82 10 -29 12 -51 6 -66 -8 -21 -5 -25 18 -29 35 -7 46 3 67 61 16 44 69 112
87 112 4 0 15 -15 24 -32 9 -18 20 -35 24 -38 7 -5 33 -137 35 -185 1 -16 6
-51 10 -77 7 -44 20 -57 59 -58 22 0 -22 315 -50 357 -8 13 -12 28 -9 33 10
16 -51 70 -79 70 -37 0 -106 -39 -106 -60 0 -10 -11 -25 -25 -34 -24 -16 -24
-15 -41 19 -21 45 -59 75 -95 75 -15 0 -29 4 -31 8 -1 4 -12 6 -23 4z"/>
<path d="M21349 3908 c-75 -142 -118 -213 -143 -230 -6 -4 -25 -8 -42 -8 -29
0 -32 4 -44 46 -10 36 -11 56 -1 93 12 46 6 111 -10 111 -30 0 -66 -140 -54
-212 4 -20 23 -58 42 -84 35 -45 36 -46 80 -39 51 7 102 54 134 121 17 38 46
73 52 63 1 -2 8 -13 15 -24 7 -11 21 -38 31 -60 25 -55 56 -82 75 -66 13 11
12 17 -5 50 -10 21 -26 64 -34 97 -18 67 -62 164 -75 164 -5 0 -15 -10 -21
-22z"/>
<path d="M3872 3908 c-7 -9 -7 -31 0 -68 5 -30 11 -100 11 -155 2 -85 4 -100
19 -103 23 -4 31 43 32 179 0 84 -3 111 -17 132 -19 30 -30 33 -45 15z"/>
<path d="M7462 3909 c-85 -8 -113 -19 -165 -68 -34 -30 -52 -63 -60 -108 -9
-44 -3 -56 49 -99 l45 -36 67 12 c77 15 113 31 161 73 l35 30 18 -23 c10 -12
18 -27 18 -34 1 -6 7 -63 14 -126 13 -121 7 -179 -22 -213 -23 -26 -117 -67
-155 -67 -51 0 -121 35 -159 79 -29 34 -36 37 -51 26 -34 -25 -15 -65 62 -125
58 -46 103 -63 166 -63 77 0 171 67 210 148 24 52 25 60 19 167 -5 100 -21
188 -56 325 -5 23 -19 50 -29 59 -18 16 -20 16 -38 0 -11 -10 -23 -36 -26 -57
-13 -74 -83 -129 -174 -135 -74 -6 -103 26 -85 91 3 11 24 32 47 46 46 29 166
63 189 54 20 -8 33 25 16 40 -9 8 -39 9 -96 4z"/>
<path d="M20297 3857 c-15 -34 -32 -69 -38 -77 -5 -8 -16 -29 -24 -46 -16 -35
-69 -84 -91 -84 -16 0 -18 75 -5 167 11 78 -15 119 -49 78 -19 -22 -39 -155
-28 -184 4 -13 6 -32 3 -41 -7 -23 38 -90 71 -108 22 -12 29 -11 52 4 36 23
52 40 52 53 0 6 3 11 8 11 4 0 22 29 40 65 19 36 37 65 40 65 4 -1 27 -44 52
-97 45 -95 89 -153 116 -153 29 0 25 30 -13 87 -25 37 -48 89 -63 143 -29 106
-66 180 -90 180 -3 0 -18 -28 -33 -63z"/>
<path d="M19810 3883 c-25 -15 -47 -30 -48 -35 -8 -20 -35 -38 -56 -38 -33 0
-50 -23 -36 -49 6 -12 13 -58 17 -103 4 -64 10 -88 26 -106 l21 -22 13 31 c7
17 13 46 13 64 0 62 31 135 69 163 20 15 41 33 46 40 6 7 37 13 72 15 35 1 63
5 63 8 0 4 -8 17 -18 29 -13 16 -31 22 -77 26 -52 4 -66 0 -105 -23z"/>
<path d="M17813 3893 c-12 -2 -43 -27 -68 -55 l-48 -50 6 -71 c5 -77 25 -107
73 -107 13 0 32 -8 42 -18 38 -38 73 -45 137 -30 81 20 125 76 125 159 0 50
-19 87 -62 120 -63 48 -132 66 -205 52z m147 -84 c48 -30 61 -49 55 -84 -9
-51 -78 -105 -135 -105 -33 0 -100 68 -100 101 0 51 29 87 80 100 45 12 65 9
100 -12z"/>
<path d="M10205 3781 c-3 -5 0 -21 6 -35 9 -18 22 -27 53 -32 67 -11 208 -12
249 -1 40 11 50 27 16 27 -11 0 -29 5 -40 11 -22 11 -194 39 -245 39 -18 0
-35 -4 -39 -9z"/>
<path d="M15944 3719 l-21 -21 21 -22 c42 -45 140 -68 279 -68 56 1 82 5 93
16 8 9 20 16 25 16 5 0 9 8 9 18 0 23 -56 42 -122 42 -25 0 -68 4 -96 10 -28
5 -67 10 -87 12 -20 1 -39 6 -41 10 -9 15 -39 8 -60 -13z"/>
<path d="M16717 3103 c-18 -17 16 -233 44 -285 7 -12 12 -38 11 -56 -1 -19 3
-43 9 -54 10 -18 4 -78 -18 -192 -8 -41 -102 -136 -136 -137 -31 -2 -57 -4
-140 -13 -57 -6 -127 -44 -127 -69 0 -6 -6 -18 -14 -26 -18 -21 -67 -217 -61
-245 8 -34 -7 -45 -79 -55 -37 -5 -75 -16 -85 -24 -9 -8 -28 -17 -43 -21 -36
-8 -71 -46 -93 -100 -26 -62 16 -207 74 -260 32 -29 26 -41 -31 -70 -78 -39
-105 -58 -130 -91 -12 -16 -28 -33 -34 -37 -7 -5 -23 -27 -37 -50 -33 -57 -34
-116 -1 -163 13 -20 24 -40 24 -46 0 -5 25 -33 56 -62 l56 -52 157 -1 c153 -1
235 -9 416 -37 50 -8 167 -18 260 -21 94 -4 186 -11 205 -16 19 -4 132 -11
250 -14 254 -8 323 2 402 61 26 19 48 38 48 42 0 4 16 22 35 41 19 19 35 39
35 43 0 5 11 33 26 62 29 63 45 147 34 185 -12 41 -38 87 -58 102 -9 7 -23 25
-29 40 -7 15 -25 37 -42 49 l-30 22 20 49 c22 56 26 196 6 240 -11 24 -77 78
-96 78 -4 0 -26 9 -49 20 -22 11 -50 20 -62 20 -26 0 -25 6 8 49 43 57 52 80
52 135 0 97 -52 173 -144 211 -20 9 -36 22 -36 31 0 12 -5 14 -17 8 -10 -4
-43 -7 -73 -5 -46 2 -63 8 -107 42 -56 42 -236 253 -259 304 -8 17 -25 44 -39
60 -14 17 -25 39 -25 50 0 29 -33 131 -65 203 -26 58 -48 76 -68 55z m151
-503 c-25 -35 -38 -38 -38 -10 0 19 24 39 48 40 8 0 5 -11 -10 -30z m132 -95
c126 -145 191 -190 316 -216 54 -11 104 -24 113 -29 33 -17 52 -49 60 -98 8
-50 7 -52 -28 -84 -58 -54 -74 -60 -128 -48 -36 8 -53 8 -70 -1 -28 -15 -29
-25 -3 -39 25 -13 26 -30 2 -30 -33 0 -52 24 -68 85 -26 101 -95 195 -144 195
-29 0 -111 -63 -144 -112 -26 -40 -37 -40 -55 -2 -29 62 -95 114 -144 114 -43
0 -101 -52 -141 -129 -20 -39 -38 -84 -39 -99 -3 -32 -23 -38 -68 -19 l-34 14
28 8 c28 8 33 30 18 83 -5 19 2 32 29 62 19 21 44 39 55 42 11 2 19 10 17 20
-2 12 15 18 86 27 89 11 182 37 182 50 0 4 -6 13 -12 20 -11 10 -8 16 10 31
25 21 23 60 -4 60 -22 0 -16 16 11 28 14 6 25 20 25 31 0 32 50 112 65 104 7
-5 37 -35 65 -68z m94 -392 c25 -35 36 -62 41 -103 3 -30 13 -77 21 -104 17
-59 18 -129 3 -158 -15 -29 -68 -48 -109 -40 -29 6 -39 15 -57 52 -13 25 -26
61 -29 80 l-7 35 24 -21 c59 -53 117 -52 142 0 10 21 12 38 6 47 -5 8 -9 24
-9 37 0 53 -63 131 -106 132 -11 0 -29 -9 -39 -20 -24 -27 -33 -25 -28 4 6 31
74 106 96 106 9 0 32 -21 51 -47z m-318 3 c32 -32 45 -66 25 -66 -5 0 -21 4
-34 9 -20 8 -29 5 -50 -17 -40 -43 -50 -70 -43 -117 10 -64 65 -105 141 -105
48 0 51 -4 35 -46 -23 -60 -114 -109 -159 -85 -11 7 -21 17 -21 23 0 7 -8 21
-18 32 -34 38 -64 156 -59 227 8 95 10 103 38 136 46 55 96 58 145 9z m-257
-230 c13 -15 49 -127 60 -186 5 -29 16 -41 61 -68 30 -18 65 -35 77 -38 38
-10 108 30 153 87 23 30 45 53 48 53 4 -1 14 -16 23 -33 27 -51 39 -60 94 -77
50 -14 56 -14 90 3 21 10 51 37 68 61 26 36 32 55 35 112 l4 68 128 7 c116 6
135 5 193 -14 78 -26 95 -43 100 -101 4 -54 -7 -80 -34 -80 -36 0 -59 -19 -59
-49 0 -24 -5 -30 -32 -36 -18 -4 -55 -7 -81 -6 -67 1 -105 -20 -109 -61 -3
-29 -7 -33 -33 -34 -16 -1 -46 -2 -65 -3 -19 -1 -66 3 -105 9 -38 5 -175 8
-303 7 -230 -3 -234 -3 -251 -26 -16 -21 -23 -22 -86 -17 -47 5 -83 14 -111
31 -24 14 -53 25 -67 25 -13 0 -32 9 -42 20 -10 11 -26 20 -35 20 -10 0 -22 6
-28 13 -18 21 -29 90 -21 121 5 17 4 35 -1 41 -12 15 -3 25 22 25 10 0 18 6
18 14 0 8 10 18 23 21 59 17 75 27 70 44 -4 16 4 20 53 26 31 4 64 13 71 21
18 18 57 18 72 0z m1164 -433 c92 -89 107 -182 41 -256 -19 -20 -34 -41 -34
-46 0 -4 -14 -12 -31 -17 -43 -12 -60 -41 -36 -58 16 -12 14 -16 -23 -41 -32
-22 -46 -26 -77 -21 -100 16 -158 16 -170 0 -11 -15 -18 -14 -85 1 -85 20
-114 23 -308 29 -333 10 -490 18 -570 27 -47 5 -131 12 -187 16 -89 5 -103 8
-109 25 -3 11 -18 21 -35 25 -21 4 -27 9 -20 16 24 24 13 34 -64 62 l-20 7 20
8 c11 4 26 5 33 2 15 -5 52 26 52 44 0 8 -12 16 -27 20 -67 14 -67 21 -4 27
67 7 95 27 85 59 -7 25 24 30 139 24 67 -3 114 -1 152 9 72 19 145 19 171 0
12 -8 24 -28 28 -45 11 -57 111 -166 184 -201 36 -18 56 -21 122 -17 86 5 90
7 198 110 35 34 63 73 83 117 l30 66 107 3 c59 2 111 7 117 10 35 23 106 40
149 36 41 -3 56 -10 89 -41z m-574 -49 c8 -7 -34 -75 -65 -105 -31 -30 -126
-69 -166 -69 -13 0 -39 8 -59 18 -54 26 -142 133 -124 150 13 13 309 7 332 -6
14 -8 24 -9 28 -2 3 6 -4 15 -17 20 -18 8 -13 9 22 4 25 -4 47 -8 49 -10z"/>
<path d="M2597 2823 c-2 -5 0 -96 4 -203 5 -107 11 -303 13 -436 4 -269 8
-288 68 -317 31 -15 43 -16 83 -6 46 12 287 8 482 -7 l82 -7 -5 -136 c-2 -75
-6 -149 -7 -166 -3 -39 25 -45 55 -10 73 82 116 115 197 150 47 21 104 46 126
56 73 33 129 49 179 49 l49 0 -6 37 c-8 47 -46 85 -116 118 -31 15 -69 37 -86
49 -16 12 -64 38 -106 58 -61 28 -94 54 -168 128 -61 61 -97 90 -107 86 -9 -3
-18 -6 -20 -6 -8 0 -3 -166 6 -205 13 -56 3 -105 -22 -105 -11 0 -27 -4 -36
-8 -9 -5 -60 -5 -112 -1 -83 7 -186 2 -370 -18 -36 -4 -51 0 -73 17 l-27 21 0
212 c0 361 -11 627 -27 643 -15 15 -49 19 -56 7z"/>
<path d="M9263 2372 c-40 -10 -85 -26 -100 -38 l-28 -21 30 -16 c28 -14 37
-14 95 0 122 28 248 9 333 -52 75 -53 79 -59 67 -86 -23 -51 -197 -112 -310
-108 -72 2 -100 -6 -100 -28 0 -15 97 -113 112 -113 5 0 27 -13 50 -30 22 -16
46 -30 52 -31 25 -1 121 -76 124 -97 8 -51 -77 -120 -180 -148 -50 -13 -63
-12 -138 12 -41 13 -47 19 -67 67 -21 53 -21 56 -7 193 16 142 13 339 -4 356
-11 11 -59 0 -65 -15 -2 -7 0 -43 4 -82 5 -38 6 -88 4 -110 -3 -22 -7 -85 -10
-140 -3 -55 -8 -130 -11 -167 -6 -62 -5 -67 17 -79 13 -7 29 -20 36 -29 7 -10
27 -23 45 -31 18 -7 38 -19 43 -27 16 -21 74 -29 154 -22 51 5 78 12 86 24 7
9 20 16 29 16 9 0 40 23 67 50 38 38 55 64 66 106 16 54 16 55 -7 79 -13 14
-32 25 -42 25 -10 0 -18 6 -18 13 0 7 -17 21 -37 32 -53 28 -118 72 -133 90
-14 17 -15 16 70 34 30 6 87 27 127 47 58 28 75 43 92 75 28 54 26 129 -4 129
-8 0 -17 9 -20 20 -14 45 -159 101 -290 113 -38 3 -86 -1 -132 -11z"/>
<path d="M6343 2308 c-6 -7 -13 -22 -18 -33 -6 -16 -19 -445 -16 -555 0 -14
-7 -60 -15 -102 -16 -83 -14 -98 15 -98 31 0 45 52 61 219 5 58 14 109 19 114
14 14 100 15 202 3 l94 -12 -4 -120 c-2 -97 0 -122 12 -132 12 -10 19 -9 36 5
23 19 31 87 17 150 -4 19 -3 34 3 38 6 3 11 16 11 27 0 12 7 29 16 39 15 17
15 20 -2 42 -17 21 -18 34 -12 128 9 124 13 151 26 203 12 46 9 56 -17 49 -28
-7 -58 -109 -69 -232 -6 -69 -14 -106 -23 -112 -13 -8 -66 -5 -229 10 l-65 6
-8 70 c-4 39 -5 123 -1 188 5 99 3 117 -9 117 -8 0 -19 -6 -24 -12z"/>
<path d="M14366 2294 c-9 -8 -16 -28 -16 -43 0 -69 107 -301 172 -372 21 -23
38 -45 38 -50 0 -5 16 -26 35 -46 19 -20 35 -41 35 -45 0 -5 -12 -13 -27 -19
-74 -30 -173 -86 -202 -114 -9 -9 -44 -34 -78 -56 -52 -33 -141 -122 -167
-166 -4 -7 3 -22 15 -34 l22 -22 62 66 c34 37 65 67 69 67 6 0 87 61 106 80
11 11 70 50 75 50 4 0 21 11 39 25 18 14 38 25 45 25 7 0 26 7 42 16 92 47
104 96 38 159 -38 37 -115 146 -168 239 -24 43 -45 96 -65 166 -16 55 -33 90
-46 90 -5 0 -16 -7 -24 -16z"/>
<path d="M10906 2248 c-3 -29 -8 -96 -11 -148 -3 -52 -8 -116 -12 -142 l-6
-48 -73 0 c-62 0 -75 -3 -84 -19 -5 -11 -8 -26 -5 -33 7 -17 73 -38 119 -38
19 0 37 -4 40 -8 3 -5 -2 -57 -10 -117 -11 -79 -12 -115 -5 -132 28 -62 70 12
77 137 3 41 6 83 6 92 3 20 36 27 136 29 39 1 72 6 72 10 0 5 11 7 24 3 13 -3
27 -1 31 5 3 6 0 13 -7 15 -7 2 -36 11 -65 20 -28 10 -82 21 -120 24 l-68 7 2
85 c0 47 4 106 7 131 4 26 2 59 -4 74 -7 19 -7 31 0 40 16 19 1 65 -20 65 -15
0 -20 -10 -24 -52z"/>
<path d="M5504 2269 c-7 -11 28 -51 116 -133 124 -116 222 -212 231 -229 11
-19 3 -37 -40 -87 -81 -94 -126 -144 -198 -224 -79 -87 -96 -117 -72 -131 30
-19 85 24 206 161 67 76 199 242 222 278 20 33 8 60 -24 52 -14 -4 -35 -1 -48
5 -12 6 -91 81 -174 165 -128 129 -158 154 -182 154 -17 0 -33 -5 -37 -11z"/>
<path d="M7535 2270 c-20 -7 -20 -16 -20 -199 1 -106 -3 -195 -8 -198 -11 -7
-6 -224 6 -240 5 -7 18 -13 28 -13 29 0 34 19 34 150 1 69 5 183 9 253 7 96 6
142 -4 185 -16 68 -19 72 -45 62z"/>
<path d="M7756 2248 c-5 -15 -14 -190 -23 -450 l-6 -187 26 -12 c45 -20 61 -6
53 49 -9 64 -8 126 5 347 14 222 10 265 -27 265 -13 0 -26 -6 -28 -12z"/>
<path d="M12222 2228 c-10 -22 -22 -170 -23 -308 -1 -70 23 -146 41 -135 6 4
18 1 26 -6 21 -18 27 -5 15 33 -12 38 -14 285 -2 293 14 8 13 128 -1 137 -23
14 -44 8 -56 -14z"/>
<path d="M13641 2237 c-13 -7 -35 -34 -50 -62 -14 -27 -33 -57 -42 -66 -9 -9
-25 -30 -35 -48 -10 -17 -22 -31 -26 -31 -4 0 -8 -4 -8 -9 0 -4 -47 -79 -105
-165 -58 -87 -105 -160 -105 -164 0 -4 -16 -22 -35 -39 l-35 -32 -70 39 c-38
22 -76 40 -84 40 -7 0 -16 7 -20 15 -3 8 -16 15 -29 15 -13 0 -27 4 -32 9 -6
5 -49 26 -97 47 -49 20 -88 43 -88 50 0 8 14 23 30 36 17 12 30 30 30 40 0 10
12 24 27 31 15 6 38 22 52 35 13 12 29 22 35 22 7 0 28 16 47 36 46 48 123
104 142 104 20 0 37 30 37 64 0 38 -34 34 -98 -11 -29 -21 -81 -58 -116 -83
-35 -25 -108 -81 -162 -126 -55 -44 -113 -88 -129 -96 -36 -19 -60 -45 -69
-75 -6 -19 -2 -25 21 -34 58 -24 189 -70 225 -79 21 -6 68 -24 105 -41 133
-62 158 -71 193 -71 19 0 46 -6 58 -15 23 -14 26 -13 66 29 59 62 136 164 136
181 0 8 14 33 30 55 17 23 30 44 30 48 0 9 102 154 128 181 12 13 22 26 22 29
0 3 14 19 30 36 17 17 29 35 27 42 -2 6 -1 21 4 33 11 30 -9 46 -40 30z"/>
<path d="M4725 2188 c-11 -11 -42 -34 -69 -52 -195 -124 -278 -176 -285 -176
-15 0 -85 -40 -103 -60 -19 -20 -19 -22 -2 -66 19 -49 26 -53 114 -74 67 -16
206 -80 277 -126 55 -36 72 -41 90 -23 19 19 -4 54 -50 77 -23 12 -69 38 -102
57 -33 19 -88 43 -123 54 -120 39 -130 56 -49 95 51 24 107 56 117 66 3 3 25
19 50 35 87 59 215 156 223 171 23 40 -51 59 -88 22z"/>
<path d="M5092 2100 c-31 -5 -66 -18 -87 -34 -38 -29 -41 -36 -24 -53 9 -9 8
-18 -5 -38 -15 -23 -15 -28 -1 -56 14 -26 15 -61 11 -237 -3 -114 -8 -255 -12
-313 -7 -103 -6 -107 14 -113 12 -4 30 -2 41 4 19 9 20 20 20 125 -1 130 8
218 24 257 10 24 20 28 80 39 84 14 150 41 197 82 41 35 56 58 70 109 9 31 7
43 -11 80 -63 124 -165 172 -317 148z m151 -71 c57 -15 117 -74 117 -113 0
-64 -73 -131 -175 -161 -101 -29 -110 -22 -120 85 -4 41 -14 88 -22 103 -24
47 -14 70 37 83 58 15 115 17 163 3z"/>
<path d="M13850 2025 c-98 -20 -108 -24 -131 -62 l-22 -36 24 -18 c23 -17 25
-17 45 2 12 11 24 16 27 12 3 -5 4 -49 2 -97 -4 -79 -7 -90 -30 -108 -30 -24
-31 -40 -4 -77 18 -24 21 -42 20 -132 0 -57 -3 -153 -6 -213 -4 -60 -4 -119
-1 -132 8 -29 36 -31 61 -4 15 16 17 32 12 110 -4 50 -9 95 -12 100 -3 5 0 20
7 32 7 13 15 60 18 106 l5 83 75 3 c154 7 277 108 286 238 3 44 0 52 -33 89
-43 47 -95 77 -178 101 -69 20 -78 20 -165 3z m224 -103 c74 -28 86 -44 86
-112 0 -32 -7 -46 -35 -75 -20 -19 -43 -35 -53 -35 -9 0 -30 -7 -46 -15 -33
-18 -143 -22 -158 -7 -20 20 -3 239 20 265 21 23 93 15 186 -21z"/>
<path d="M7059 1992 c-63 -38 -104 -73 -145 -129 -20 -26 -42 -53 -50 -59 -20
-16 -6 -78 25 -107 14 -14 40 -33 57 -44 17 -10 52 -31 78 -47 81 -49 194 -47
260 5 6 5 24 19 40 32 l30 24 -30 -3 c-16 -1 -49 -8 -74 -14 -25 -6 -62 -9
-82 -7 -80 11 -249 108 -207 120 25 8 113 26 154 33 129 22 173 104 98 184
-45 49 -85 52 -154 12z m114 -54 c19 -25 19 -27 2 -44 -30 -31 -79 -52 -143
-61 -79 -12 -85 0 -28 57 40 40 118 82 140 76 6 -1 19 -14 29 -28z"/>
<path d="M10042 2009 c-74 -9 -132 -35 -189 -84 -23 -19 -50 -35 -62 -35 -19
0 -20 -5 -17 -134 4 -141 17 -196 48 -196 28 0 37 32 31 112 -8 109 14 168 83
219 28 21 68 41 88 44 20 4 36 11 36 16 0 5 15 9 34 9 19 0 36 5 38 12 2 6 24
14 48 17 24 3 45 12 48 19 4 14 -82 15 -186 1z"/>
<path d="M10262 1987 c-16 -18 -69 -182 -75 -230 -6 -45 7 -110 23 -115 7 -3
27 -18 46 -35 34 -29 36 -30 77 -16 23 8 49 21 57 30 34 36 55 64 52 72 -1 4
3 7 8 7 6 0 22 12 35 26 24 26 45 25 45 -1 0 -29 52 -116 75 -125 13 -5 26
-14 30 -19 8 -14 42 -14 50 -1 4 6 -4 22 -17 35 -14 13 -32 39 -40 57 -17 35
-48 168 -48 205 0 12 -5 34 -12 48 -9 19 -16 24 -32 19 -31 -9 -37 -17 -47
-65 -16 -71 -89 -168 -160 -213 -23 -14 -27 -14 -48 0 -20 14 -22 24 -20 78 1
33 12 88 25 121 16 44 20 71 15 95 -7 37 -22 48 -39 27z"/>
<path d="M8055 1939 c-38 -11 -104 -74 -121 -116 -17 -39 -18 -118 -3 -160 8
-23 18 -32 41 -35 35 -5 48 14 30 43 -16 25 -15 92 2 132 27 65 101 85 181 48
61 -27 68 -41 63 -118 -4 -64 -6 -68 -50 -108 -37 -34 -59 -45 -108 -54 -63
-13 -71 -11 -108 23 -20 17 -24 18 -32 6 -15 -23 -12 -35 15 -64 22 -24 30
-26 108 -26 77 0 87 2 125 30 23 16 58 55 78 87 77 119 66 193 -37 262 -32 21
-74 42 -94 45 -20 4 -42 9 -48 11 -7 2 -25 -1 -42 -6z"/>
<path d="M11825 1938 c-47 -27 -75 -67 -75 -108 0 -75 20 -97 195 -207 11 -7
28 -16 38 -19 23 -9 22 -37 -4 -60 -16 -14 -36 -19 -84 -19 -66 0 -91 12 -106
52 -18 47 -44 9 -30 -44 11 -40 50 -64 107 -66 27 -1 54 -5 59 -8 33 -20 131
48 141 98 5 26 1 34 -28 56 -18 14 -50 34 -71 45 -46 24 -142 119 -152 151 -5
16 -1 29 15 46 24 26 87 40 107 24 25 -21 71 21 54 50 -11 17 -140 24 -166 9z"/>
<path d="M11257 1868 c-38 -104 -47 -143 -47 -208 0 -66 1 -70 37 -105 20 -20
43 -33 52 -31 9 2 32 7 52 10 28 5 38 12 43 30 3 12 19 37 35 54 17 17 33 43
37 57 8 33 27 32 41 -2 44 -105 140 -189 159 -139 3 7 -15 43 -40 80 -26 36
-46 75 -46 86 0 28 -37 122 -52 132 -32 20 -47 6 -99 -89 -51 -92 -99 -153
-120 -153 -16 0 -30 52 -25 94 3 23 12 77 20 121 21 103 20 105 -8 105 -18 0
-27 -9 -39 -42z"/>
<path d="M8586 1613 c-19 -27 -69 -82 -111 -123 -44 -44 -75 -83 -75 -95 0
-32 15 -48 39 -40 28 9 153 154 185 215 49 94 23 123 -38 43z"/>
<path d="M12287 1498 c-28 -20 -35 -56 -16 -75 14 -14 37 -6 67 23 19 18 21
27 13 42 -16 29 -34 32 -64 10z"/>
</g>
</svg>
