<?xml version="1.0" standalone="no"?>
<!DOCTYPE svg PUBLIC "-//W3C//DTD SVG 20010904//EN"
 "http://www.w3.org/TR/2001/REC-SVG-20010904/DTD/svg10.dtd">
<svg version="1.0" xmlns="http://www.w3.org/2000/svg"
 width="1031.473181pt" height="400.000000pt" viewBox="0 0 1031.473181 400.000000"
 preserveAspectRatio="xMidYMid meet">
<metadata>
Created by potrace 1.15, written by Peter Selinger 2001-2017
</metadata>
<g transform="translate(-14.730275,417.584962) scale(0.100049,-0.100049)"
fill="#444444" stroke="none">
<path d="M1520 4168 c-114 -9 -162 -9 -765 -8 -193 1 -323 -3 -345 -9 -19 -6
-51 -11 -72 -11 -44 0 -139 -20 -153 -32 -10 -9 -12 -67 -16 -388 -2 -195 -1
-705 2 -905 6 -338 1 -819 -10 -907 -6 -59 -11 -276 -12 -540 0 -244 -1 -499
-2 -568 0 -69 3 -187 7 -263 9 -146 16 -164 56 -139 10 6 21 7 26 2 5 -5 43
-12 84 -15 75 -5 272 -25 300 -29 8 -2 42 -6 75 -10 33 -4 98 -11 145 -17 47
-5 168 -12 270 -13 102 -2 257 -10 345 -16 105 -9 427 -14 935 -15 426 -1 793
-5 815 -8 95 -13 698 -22 1295 -20 741 3 1339 11 1390 18 46 7 752 6 900 0 63
-3 147 -10 185 -15 64 -9 240 -16 595 -25 74 -1 180 -6 235 -9 55 -3 188 -8
295 -12 107 -3 197 -7 200 -9 4 -2 51 -7 106 -10 54 -4 126 -9 159 -11 108 -9
905 -11 1105 -3 107 4 297 10 422 13 125 2 232 7 237 10 5 4 10 36 10 74 1 37
6 108 11 157 6 50 14 133 19 186 6 53 12 107 15 120 3 13 8 49 11 79 3 30 10
98 16 150 5 52 12 187 14 300 2 113 7 273 11 355 11 215 10 554 -1 900 -13
399 -13 672 2 890 23 336 25 455 11 459 -68 20 -527 34 -633 19 -27 -4 -53 -6
-56 -5 -9 2 -102 10 -194 17 -75 6 -183 7 -435 4 -58 -1 -181 -1 -275 -1 -93
0 -199 -2 -235 -5 -36 -3 -465 -7 -955 -9 -489 -1 -951 -4 -1025 -5 -74 -1
-151 -2 -170 0 -19 1 -100 2 -180 2 -80 0 -251 2 -380 4 -207 4 -275 4 -387 5
-90 0 -382 22 -473 36 -52 7 -198 18 -325 24 -126 6 -258 15 -292 20 -62 10
-147 16 -383 25 -69 3 -150 9 -180 15 -63 10 -171 18 -345 25 -146 6 -663 52
-725 65 -54 12 -122 18 -250 25 -259 13 -310 17 -366 25 -86 14 -527 19 -664
8z m345 -59 c127 -2 249 -6 273 -11 24 -4 123 -12 220 -18 160 -10 216 -14
362 -26 25 -2 74 -8 110 -13 36 -5 94 -12 130 -15 36 -4 83 -9 105 -11 22 -3
76 -8 120 -10 116 -8 166 -12 242 -19 38 -3 124 -9 193 -12 285 -14 450 -24
470 -29 13 -3 59 -7 245 -19 17 -1 21 -11 27 -56 3 -30 12 -96 18 -147 27
-219 29 -273 13 -497 -9 -121 -15 -242 -14 -268 l2 -48 -103 -1 c-57 -1 -107
-1 -112 0 -4 1 -146 4 -315 6 -336 5 -575 13 -612 21 -13 3 -205 6 -426 8
-221 2 -405 6 -410 9 -4 3 -102 8 -218 11 -115 4 -222 9 -236 12 -15 3 -121 7
-235 9 -207 3 -341 12 -584 40 -408 47 -445 49 -650 37 -108 -6 -209 -16 -224
-22 -16 -6 -30 -9 -32 -7 -3 2 -3 644 0 899 0 64 4 119 8 123 4 4 46 11 93 16
48 5 92 12 98 16 7 5 233 8 502 8 467 1 650 6 663 20 4 3 16 4 27 1 11 -3 124
-6 250 -7z m2710 -205 c39 -3 122 -8 185 -9 63 -2 131 -6 150 -9 19 -3 75 -8
125 -12 49 -3 92 -7 95 -9 6 -4 125 -11 335 -21 50 -3 218 -7 375 -10 157 -3
304 -8 328 -10 43 -4 500 -6 777 -5 83 1 184 5 225 10 48 5 128 3 225 -5 105
-9 177 -10 242 -4 50 5 120 7 155 3 78 -7 332 -7 583 2 420 15 1121 18 1255 6
53 -5 178 -5 283 0 104 5 192 7 197 4 4 -2 63 -5 131 -6 183 -1 170 7 164
-108 -12 -231 -25 -411 -34 -471 -6 -36 -9 -152 -8 -257 2 -175 -1 -210 -17
-184 -3 4 -31 11 -63 15 -184 22 -233 25 -313 15 -123 -15 -256 -24 -499 -34
-194 -8 -568 -8 -581 0 -5 3 -94 8 -196 11 -102 2 -191 7 -197 11 -5 3 -280 8
-611 10 -331 2 -662 6 -736 9 -74 2 -241 7 -370 10 -129 3 -247 10 -262 15
-17 7 -32 7 -45 1 -10 -6 -115 -13 -233 -16 -118 -4 -222 -7 -230 -8 -8 0
-150 3 -315 7 -293 6 -403 11 -515 21 -60 5 -217 13 -380 18 -58 2 -105 5
-105 5 0 1 -56 4 -125 7 -69 3 -127 8 -130 11 -3 3 -3 78 0 166 10 326 5 577
-13 661 -9 43 -17 100 -17 127 l0 50 48 -5 c26 -3 79 -8 117 -12z m-3655 -917
c80 -9 183 -22 230 -28 111 -15 107 -15 385 -28 132 -6 285 -13 340 -16 317
-17 622 -27 945 -30 201 -2 455 -9 565 -15 110 -5 250 -10 310 -9 299 2 674
-4 686 -12 16 -9 19 -371 9 -844 l-5 -250 -31 3 c-18 2 -36 -3 -43 -11 -9 -12
-7 -16 15 -21 14 -4 35 -4 46 0 20 6 21 4 14 -92 -7 -98 -8 -344 -6 -982 1
-184 -1 -337 -5 -340 -14 -14 -804 0 -1075 18 -119 8 -783 14 -1115 10 -452
-6 -500 -4 -795 24 -74 8 -169 11 -210 9 -41 -3 -131 0 -200 6 -69 6 -152 13
-185 16 -33 3 -121 15 -195 26 -74 12 -157 22 -185 24 -27 1 -76 5 -108 9 -47
6 -62 4 -76 -8 -17 -15 -18 -8 -31 129 -8 97 -11 216 -6 358 3 116 6 374 7
572 2 408 0 398 72 384 23 -4 49 -3 57 1 17 10 24 6 -69 35 l-54 17 7 62 c7
68 8 517 2 771 -2 88 -2 170 1 181 4 20 15 23 101 33 183 22 405 21 602 -2z
m3900 -147 c80 -6 197 -13 260 -15 63 -3 147 -7 185 -11 91 -7 429 -13 770
-12 358 1 526 -3 985 -18 102 -4 442 -8 755 -10 314 -2 626 -8 695 -13 69 -6
188 -10 265 -11 77 0 154 -5 172 -11 21 -6 92 -8 200 -4 92 3 236 7 318 9 83
2 197 8 255 14 58 7 137 12 175 13 39 0 104 5 145 11 80 11 201 -1 292 -28 26
-8 54 -14 62 -14 13 0 16 -14 17 -77 0 -43 3 -107 5 -143 12 -188 19 -467 16
-637 l-3 -192 -37 -7 c-37 -7 -55 -21 -46 -36 3 -5 21 -6 40 -2 l35 6 -5 -293
c-4 -282 -16 -467 -36 -574 -9 -47 -47 -396 -52 -478 -1 -21 -5 -40 -8 -42 -4
-2 -108 -7 -231 -11 -123 -3 -244 -8 -269 -10 -25 -1 -295 -5 -600 -9 -448 -4
-577 -2 -670 9 -63 8 -157 15 -209 16 -52 0 -97 3 -101 5 -4 2 -97 7 -206 11
-109 3 -215 7 -234 9 -19 2 -154 6 -300 10 -245 5 -475 18 -560 32 -85 13
-754 17 -950 6 -113 -6 -501 -13 -863 -15 l-657 -4 -1 320 c-1 177 -2 447 -2
601 -1 154 2 352 6 440 3 88 10 391 13 673 l7 513 111 -5 c61 -3 176 -10 256
-16z"/>
<path d="M1588 3898 c-3 -7 6 -51 20 -98 27 -94 34 -139 32 -217 -1 -43 2 -54
20 -63 23 -12 24 -10 34 50 7 43 38 95 65 110 18 9 23 6 38 -22 9 -18 22 -60
28 -92 9 -52 34 -91 49 -76 6 7 -19 139 -33 175 -28 70 -71 83 -127 40 -18
-14 -35 -25 -37 -25 -6 0 -20 47 -23 73 -1 10 -7 37 -13 60 -7 23 -15 53 -19
66 -8 28 -28 39 -34 19z"/>
<path d="M689 3855 c-107 -39 -163 -106 -164 -196 0 -98 60 -159 160 -159 33
0 135 44 135 58 0 4 -45 8 -100 8 -94 -1 -101 0 -125 24 -74 74 12 200 149
219 66 9 86 22 66 46 -15 18 -71 19 -121 0z"/>
<path d="M2550 3805 c-5 -14 -7 -67 -5 -117 3 -51 1 -128 -5 -172 -10 -78 -6
-95 23 -96 9 0 23 33 32 75 l6 29 20 -30 c18 -30 67 -72 121 -107 34 -21 78
-23 78 -2 0 23 20 18 48 -12 45 -49 132 -69 201 -47 19 6 2 23 -29 29 -63 12
-128 37 -144 54 -21 23 -15 51 10 51 9 0 28 6 42 14 15 8 35 17 45 20 28 9 22
61 -9 85 -75 59 -175 -28 -157 -136 6 -37 -1 -40 -50 -19 -48 20 -113 82 -126
117 -10 30 -8 33 54 95 65 63 74 77 55 89 -13 8 -43 -9 -105 -58 l-50 -40 -12
99 c-13 115 -10 104 -23 104 -6 0 -15 -11 -20 -25z m391 -275 c-21 -18 -51
-27 -51 -16 0 23 16 36 44 36 l31 -1 -24 -19z"/>
<path d="M1062 3731 c-59 -23 -132 -96 -132 -131 0 -40 29 -60 84 -60 42 0 52
4 81 35 l32 36 37 -41 c34 -38 83 -67 94 -56 2 3 -28 46 -67 95 -39 50 -71 99
-71 110 0 29 -10 31 -58 12z m28 -66 c0 -25 -60 -85 -86 -85 -14 0 -24 6 -24
14 0 24 40 66 73 75 18 5 33 10 35 10 1 1 2 -6 2 -14z"/>
<path d="M1460 3743 c-44 -16 -109 -67 -129 -103 -20 -35 -21 -43 -9 -67 18
-37 58 -64 104 -70 41 -5 119 15 119 32 0 5 -33 15 -74 22 -41 7 -81 19 -89
27 -14 13 -12 20 11 55 17 26 36 41 56 46 35 8 55 29 47 50 -6 16 -11 17 -36
8z"/>
<path d="M2003 3710 c-23 -9 -67 -78 -77 -122 -5 -20 0 -38 18 -65 29 -47 50
-64 102 -87 40 -17 42 -17 87 4 25 12 48 28 51 36 6 17 -6 17 -56 3 -32 -8
-46 -7 -83 10 -40 18 -77 62 -64 75 3 3 27 10 54 17 73 17 80 22 78 59 -2 54
-59 90 -110 70z m77 -65 c0 -14 -9 -18 -79 -29 -33 -6 -33 -6 -19 17 31 46 98
54 98 12z"/>
<path d="M3327 3521 c-53 -57 -57 -60 -88 -51 -18 5 -44 21 -59 35 -32 30 -60
33 -60 5 0 -12 21 -35 55 -60 30 -22 55 -44 55 -49 0 -4 -17 -32 -38 -62 -21
-30 -48 -74 -61 -99 -13 -25 -37 -62 -53 -82 -49 -62 -3 -85 48 -24 48 57 151
236 136 236 -4 0 10 15 31 33 20 19 37 43 37 55 0 11 5 24 10 27 13 8 53 85
47 91 -2 2 -29 -23 -60 -55z"/>
<path d="M7095 3670 c-16 -17 -17 -36 -13 -166 5 -144 5 -145 -16 -140 -28 7
-97 -32 -114 -64 -7 -15 -11 -44 -8 -70 5 -57 58 -110 109 -110 54 0 121 28
157 65 37 38 36 55 -2 32 -29 -19 -104 -40 -141 -39 -16 0 -40 8 -53 17 -21
13 -25 23 -22 53 6 70 95 86 114 20 7 -23 16 -33 29 -33 27 0 30 33 12 93 -15
47 -33 154 -30 182 9 86 11 170 4 174 -5 3 -16 -3 -26 -14z"/>
<path d="M4742 3627 c-7 -8 -10 -22 -6 -31 3 -9 1 -23 -5 -30 -9 -10 -10 -29
-4 -63 5 -26 8 -95 7 -153 -2 -108 6 -140 31 -140 17 0 17 2 15 83 -1 31 2 57
6 57 13 0 64 -53 64 -66 0 -6 19 -28 43 -49 23 -20 52 -45 63 -56 25 -21 40
-24 49 -8 4 6 -19 34 -52 63 -65 59 -138 159 -128 176 3 5 17 10 29 10 59 0
136 57 136 101 0 20 -58 71 -107 94 -50 24 -126 31 -141 12z m98 -51 c54 -15
110 -47 110 -62 0 -7 -10 -18 -22 -26 -30 -20 -136 -50 -148 -43 -11 7 -14
128 -3 138 8 9 9 9 63 -7z"/>
<path d="M5768 3613 c0 -5 -2 -12 -3 -18 -2 -5 -3 -56 -4 -112 l-1 -103 -25 0
c-16 0 -41 -14 -65 -37 -39 -38 -39 -38 -29 -84 11 -53 31 -75 71 -83 15 -2
32 -8 38 -11 18 -11 69 5 100 32 37 31 39 46 4 33 -15 -6 -52 -11 -84 -13 -64
-2 -90 12 -90 49 0 30 36 68 57 60 8 -3 19 -6 24 -6 5 0 9 -6 9 -14 0 -8 11
-28 24 -43 l24 -28 7 28 c4 15 3 40 -3 55 -20 51 -25 97 -23 200 1 85 -1 102
-14 102 -8 0 -16 -3 -17 -7z"/>
<path d="M7800 3547 c-158 -48 -235 -203 -167 -334 34 -65 158 -107 243 -84
44 13 81 37 71 47 -4 4 -48 8 -99 8 -106 2 -148 18 -173 66 -63 121 65 265
217 244 34 -5 47 -2 58 11 13 15 12 19 -5 31 -10 8 -33 14 -51 14 -18 0 -38 2
-46 4 -7 2 -29 -1 -48 -7z"/>
<path d="M9979 3438 c-7 -13 -9 -44 -5 -83 l6 -62 -41 -6 c-23 -3 -49 -13 -58
-22 -15 -15 -14 -17 3 -31 11 -8 39 -14 63 -14 l44 0 -3 -96 c-2 -75 1 -97 12
-104 26 -16 35 8 40 108 5 92 6 97 27 94 12 -2 37 4 57 12 45 19 40 46 -9 46
-67 0 -82 13 -89 77 -13 107 -24 125 -47 81z"/>
<path d="M5105 3402 c-35 -33 -65 -82 -65 -107 0 -62 99 -145 173 -145 68 0
116 35 88 63 -8 8 -14 8 -23 -1 -17 -17 -77 -14 -118 6 -37 18 -48 48 -16 45
35 -3 106 35 116 62 19 49 13 65 -32 85 -58 27 -88 24 -123 -8z m123 -37 c21
-21 -48 -55 -110 -55 -35 0 -35 10 -1 45 24 23 33 26 67 20 22 -3 42 -8 44
-10z"/>
<path d="M6349 3391 c-41 -40 -42 -47 -41 -154 1 -53 19 -88 33 -65 5 7 9 40
9 73 0 69 15 105 50 121 84 39 99 48 94 55 -3 5 -28 9 -56 9 -45 0 -54 -4 -89
-39z"/>
<path d="M5374 3377 c-29 -31 -31 -37 -29 -105 1 -71 13 -101 34 -88 6 4 11
26 11 49 0 133 68 170 85 47 15 -99 36 -153 54 -135 7 7 7 30 0 70 -6 33 -14
79 -18 103 -5 23 -18 54 -31 67 -33 35 -68 32 -106 -8z"/>
<path d="M5988 3375 c-32 -32 -58 -93 -58 -139 0 -27 48 -75 70 -69 11 3 20 1
20 -5 0 -17 53 -21 105 -7 59 16 125 43 125 51 0 6 -89 -1 -141 -11 -31 -6
-109 15 -109 29 0 6 20 18 45 25 24 7 49 19 56 27 6 8 17 14 23 14 7 0 23 11
35 24 19 20 21 28 12 45 -16 29 -63 51 -108 51 -31 0 -46 -7 -75 -35z m116
-18 c18 -13 17 -15 -10 -34 -16 -11 -39 -23 -51 -27 -13 -3 -32 -9 -43 -12
-28 -8 -25 5 11 49 32 39 62 47 93 24z"/>
<path d="M6632 3391 c-17 -12 -48 -45 -67 -75 -31 -49 -33 -57 -24 -91 14 -50
57 -92 104 -101 36 -6 161 9 173 21 13 13 -24 24 -78 24 -59 -1 -104 13 -132
38 -29 26 -22 43 17 43 66 0 155 52 155 91 0 56 -89 86 -148 50z m95 -47 c4
-12 -32 -29 -84 -39 -40 -8 -42 2 -5 32 28 24 82 28 89 7z"/>
<path d="M8043 3351 c-42 -26 -64 -71 -65 -131 -2 -57 8 -71 68 -101 60 -28
108 -21 145 22 39 46 42 75 13 136 -39 81 -102 110 -161 74z m80 -42 c13 -6
31 -23 40 -39 34 -57 14 -103 -52 -116 -28 -6 -36 -3 -57 22 -31 39 -31 88 1
119 27 28 34 29 68 14z"/>
<path d="M8288 3319 c-25 -19 -28 -27 -28 -82 0 -86 8 -109 34 -105 19 3 21 8
18 63 -3 51 0 63 17 79 26 24 43 12 61 -44 15 -47 23 -49 54 -15 l23 25 11
-24 c6 -13 14 -41 18 -63 8 -46 20 -63 45 -63 17 0 19 -8 19 -74 0 -57 3 -75
15 -80 23 -9 30 19 28 115 l-1 86 36 -19 c45 -24 98 -19 140 12 l31 23 41 -22
c49 -26 63 -26 98 -4 40 26 51 44 52 81 1 107 -138 173 -199 96 -23 -29 -26
-29 -59 -5 -47 32 -94 43 -133 30 -46 -16 -70 -38 -68 -63 1 -12 0 -34 -1 -51
-1 -26 -4 -23 -21 27 -27 76 -58 87 -81 30 l-10 -27 -10 25 c-25 67 -79 87
-130 49z m428 -64 c14 -9 30 -28 37 -42 10 -22 8 -28 -11 -44 -27 -21 -73 -20
-119 5 -27 13 -33 22 -33 49 0 18 6 39 13 46 15 16 79 9 113 -14z m211 3 c13
-12 23 -31 23 -43 0 -23 -33 -60 -47 -54 -22 10 -83 55 -83 62 0 15 49 57 66
57 10 0 28 -10 41 -22z"/>
<path d="M9130 3323 c-8 -3 -31 -21 -50 -40 -33 -32 -36 -38 -35 -93 1 -63 13
-87 40 -76 12 4 16 17 15 43 -3 65 -1 79 19 100 26 28 70 22 97 -13 24 -29 34
-66 34 -119 0 -43 9 -65 26 -65 24 0 23 104 -2 160 -29 65 -35 76 -52 87 -24
14 -74 23 -92 16z"/>
<path d="M9677 3271 c-18 -16 -42 -29 -52 -28 -22 2 -21 5 -9 -105 l7 -58 -29
-1 c-96 -5 -168 12 -185 42 -12 23 -8 25 71 34 60 7 90 27 90 59 -1 38 -46 76
-90 76 -33 0 -96 -37 -119 -69 -58 -81 -8 -172 106 -193 51 -9 68 -8 119 7 32
10 65 23 72 28 7 6 12 33 12 69 0 52 3 63 29 89 33 33 56 36 90 13 30 -22 48
-66 56 -141 9 -72 16 -86 39 -77 15 6 16 15 11 73 -19 176 -124 264 -218 182z
m-167 -50 c0 -9 -81 -23 -89 -16 -6 7 41 24 67 24 12 1 22 -3 22 -8z"/>
<path d="M447 2754 c-9 -10 40 -101 58 -108 9 -3 19 -6 22 -6 10 0 -8 52 -30
86 -21 32 -37 41 -50 28z"/>
<path d="M360 2685 c0 -22 70 -116 82 -109 13 8 3 45 -25 88 -22 36 -57 48
-57 21z"/>
<path d="M3835 2643 c-22 -23 -48 -55 -57 -71 -16 -26 -16 -31 -3 -42 13 -10
22 -5 55 31 42 45 55 74 48 106 -3 15 -11 11 -43 -24z"/>
<path d="M740 2648 c-66 -30 -98 -56 -125 -98 -52 -82 -61 -215 -18 -262 54
-60 153 -77 233 -40 77 35 108 83 96 147 -8 38 -12 40 -150 60 -92 14 -116 13
-116 -3 1 -23 26 -33 114 -46 55 -8 103 -19 109 -25 17 -17 -16 -65 -63 -88
-74 -38 -156 -25 -194 29 -34 49 -4 187 52 241 42 40 120 70 165 63 47 -8 49
10 2 30 -44 18 -51 18 -105 -8z"/>
<path d="M1924 2581 l6 -78 -50 -7 c-31 -4 -53 -13 -57 -22 -8 -22 0 -26 57
-29 28 -2 53 -5 55 -7 2 -2 -1 -41 -7 -87 -10 -86 -4 -109 25 -98 16 6 27 59
27 134 0 29 5 55 12 59 6 4 33 7 60 6 64 -1 64 21 1 37 -71 18 -77 24 -86 77
-16 89 -17 94 -34 94 -14 0 -15 -10 -9 -79z"/>
<path d="M3928 2590 c-44 -55 -54 -90 -26 -90 52 0 127 133 83 146 -5 2 -31
-23 -57 -56z"/>
<path d="M2149 2544 c-10 -13 -10 -17 1 -24 18 -11 30 -3 30 21 0 23 -13 25
-31 3z"/>
<path d="M1067 2481 c-21 -10 -46 -17 -57 -14 -18 5 -19 1 -13 -63 7 -82 18
-117 36 -111 6 2 15 24 18 49 12 80 39 112 94 110 43 -2 45 12 5 33 -37 19
-38 19 -83 -4z"/>
<path d="M1280 2479 c-42 -24 -80 -79 -80 -115 0 -43 55 -90 117 -98 29 -3 65
-4 80 -1 15 4 38 8 51 11 12 2 22 11 22 18 0 10 -18 14 -72 13 -129 0 -151 21
-58 56 96 35 113 66 59 111 -37 31 -72 33 -119 5z m99 -33 c14 -17 -10 -36
-72 -56 -56 -18 -64 -8 -27 33 34 40 77 49 99 23z"/>
<path d="M1604 2481 c-46 -28 -74 -73 -74 -118 0 -41 15 -61 73 -98 53 -34
227 -21 227 15 0 6 -33 11 -72 11 -84 2 -130 10 -135 24 -1 6 24 25 57 43 33
18 60 40 60 48 0 31 -30 72 -61 83 -41 14 -38 14 -75 -8z m94 -53 c2 -11 -10
-24 -37 -37 -38 -20 -81 -28 -81 -16 0 14 31 64 42 69 27 11 73 1 76 -16z"/>
<path d="M3279 2455 c-68 -37 -82 -127 -36 -224 16 -33 82 -59 133 -54 39 5
105 45 93 57 -3 3 -30 1 -60 -4 -63 -12 -100 -6 -124 20 -23 25 -12 50 21 50
14 0 55 8 90 17 51 14 66 22 70 40 8 29 -24 84 -57 100 -32 17 -98 16 -130 -2z
m139 -60 c6 -26 -11 -37 -82 -50 -69 -13 -76 -12 -76 15 0 25 31 48 76 58 46
10 78 2 82 -23z"/>
<path d="M2325 2426 c-45 -45 -55 -153 -17 -183 29 -23 33 -14 31 60 -3 81 2
97 34 97 34 0 62 -58 91 -192 4 -16 11 -28 17 -28 20 0 6 130 -19 181 -44 90
-90 112 -137 65z"/>
<path d="M2146 2413 c-3 -10 -3 -49 -1 -88 2 -38 5 -76 5 -82 0 -16 26 -17 36
-1 10 15 5 134 -6 164 -11 28 -26 31 -34 7z"/>
<path d="M3623 2413 c-15 -8 -36 -22 -45 -30 -17 -15 -18 -15 -18 0 0 10 -6
17 -14 17 -12 0 -15 -19 -15 -96 0 -85 2 -95 17 -92 11 2 21 20 28 49 14 56
26 78 53 103 17 16 23 17 36 6 22 -19 45 -76 50 -126 4 -48 20 -84 37 -84 21
0 2 121 -30 191 -34 73 -54 85 -99 62z"/>
<path d="M2685 2385 c-101 -60 -137 -137 -83 -178 27 -20 32 -20 124 8 20 6
22 2 29 -57 4 -34 7 -90 7 -123 -1 -49 -5 -63 -23 -77 -49 -40 -159 -7 -159
48 0 29 -11 31 -28 4 -32 -52 69 -130 158 -121 41 4 57 13 73 41 17 28 18 47
11 222 -6 167 -9 193 -25 209 -11 11 -19 26 -19 34 0 20 -17 17 -65 -10z m58
-62 c-6 -62 -38 -93 -94 -93 -46 0 -50 14 -17 55 16 21 102 85 114 85 1 0 -1
-21 -3 -47z"/>
<path d="M2886 2261 c-4 -6 -2 -20 4 -31 10 -19 19 -20 133 -18 119 3 122 4
125 26 3 22 0 23 -45 21 -26 -2 -85 1 -129 5 -55 5 -84 4 -88 -3z"/>
<path d="M457 1923 c-14 -22 11 -34 64 -31 47 3 51 5 34 15 -29 16 -92 26 -98
16z"/>
<path d="M709 1894 c-7 -8 -9 -17 -6 -20 12 -12 134 -27 153 -19 17 8 17 9 -6
13 -14 2 -30 8 -35 12 -6 5 -30 13 -53 18 -32 8 -44 7 -53 -4z"/>
<path d="M1078 1864 c-5 -4 -8 -14 -8 -22 0 -11 15 -13 75 -9 42 2 78 7 80 11
3 3 2 4 -2 1 -3 -3 -12 0 -19 6 -16 13 -116 24 -126 13z"/>
<path d="M1403 1833 c-7 -2 -13 -8 -13 -13 0 -11 86 -40 118 -40 39 0 20 23
-34 42 -55 18 -54 18 -71 11z"/>
<path d="M1697 1802 c-34 -7 -10 -27 34 -28 46 -2 109 13 109 24 0 7 -113 10
-143 4z"/>
<path d="M2990 1792 c0 -12 9 -22 23 -26 35 -9 127 -7 127 3 0 10 -32 23 -65
26 -11 2 -35 6 -52 10 -29 7 -33 5 -33 -13z"/>
<path d="M1980 1790 c-8 -5 -12 -12 -8 -15 10 -10 158 -17 158 -8 0 25 -119
43 -150 23z"/>
<path d="M2630 1791 c0 -22 32 -32 96 -29 47 2 69 7 72 17 3 10 -1 12 -17 8
-11 -3 -24 -1 -27 4 -7 12 -124 12 -124 0z"/>
<path d="M3731 1777 c-17 -21 -3 -27 58 -27 72 0 95 13 50 29 -43 15 -94 14
-108 -2z"/>
<path d="M2310 1763 c-23 -16 -23 -16 -3 -24 37 -13 157 -20 173 -10 22 15 8
22 -63 31 -36 4 -70 10 -75 14 -5 3 -19 -2 -32 -11z"/>
<path d="M3365 1773 c-31 -8 -42 -22 -25 -33 17 -11 181 -3 193 9 19 18 -113
37 -168 24z"/>
<path d="M4030 1745 c-17 -21 11 -33 64 -26 48 6 76 30 39 32 -73 6 -94 5
-103 -6z"/>
<path d="M297 1556 c-9 -23 44 -145 65 -152 30 -9 32 2 9 55 -11 27 -21 58
-21 68 0 36 -42 58 -53 29z"/>
<path d="M400 1530 c0 -11 9 -34 20 -52 11 -18 20 -41 20 -50 0 -11 8 -18 20
-18 17 0 19 4 14 28 -13 53 -43 112 -58 112 -9 0 -16 -9 -16 -20z"/>
<path d="M664 1381 c-31 -19 -113 -110 -132 -146 -6 -12 -7 -39 -3 -67 16
-101 111 -188 206 -188 107 0 144 33 146 133 2 65 -2 72 -44 91 -47 21 -207
28 -214 10 -12 -31 17 -44 99 -44 100 0 118 -9 118 -58 0 -58 -17 -73 -85 -78
-50 -4 -67 -1 -99 18 -51 30 -91 104 -81 150 15 67 159 183 207 165 18 -6 50
12 43 24 -11 17 -128 10 -161 -10z"/>
<path d="M3182 1347 c-17 -18 -22 -36 -22 -73 0 -62 -11 -74 -56 -64 -27 6
-37 5 -41 -6 -7 -20 15 -44 41 -44 47 0 54 -17 59 -144 4 -85 9 -121 18 -127
27 -17 34 -2 32 67 -4 140 -3 177 1 182 3 3 36 5 72 6 37 1 69 6 71 11 4 13
-44 35 -76 35 -60 0 -71 9 -71 55 0 63 7 75 45 75 32 0 96 -27 103 -43 2 -4 8
-5 13 -2 17 11 -23 53 -71 74 -63 27 -91 27 -118 -2z"/>
<path d="M3766 1304 c-31 -36 -56 -69 -56 -73 0 -5 8 -12 17 -16 23 -8 122 99
123 133 0 38 -27 25 -84 -44z"/>
<path d="M1848 1335 c-3 -3 -1 -25 4 -50 5 -24 8 -61 6 -82 l-3 -38 -53 3
c-29 2 -58 -1 -65 -7 -9 -7 -25 -6 -54 4 -61 21 -109 9 -155 -37 -36 -36 -39
-43 -33 -76 11 -63 67 -97 175 -106 69 -5 114 3 98 19 -3 4 -37 12 -75 20 -82
15 -113 25 -113 35 0 4 24 15 52 24 58 19 98 50 98 78 0 10 1 18 3 18 1 0 25
-6 54 -14 28 -8 54 -12 57 -9 12 13 17 -52 9 -116 -10 -76 -9 -81 16 -81 13 0
19 18 28 85 7 47 15 90 18 95 4 7 29 8 67 4 81 -9 76 15 -8 36 -32 8 -62 19
-66 24 -3 5 -10 37 -13 70 -11 88 -26 121 -47 101z m-179 -214 c17 -11 -26
-35 -81 -45 -45 -8 -49 4 -10 33 29 21 68 27 91 12z"/>
<path d="M3911 1276 c-57 -58 -62 -66 -51 -86 l12 -22 35 33 c71 67 93 94 90
113 -4 35 -22 27 -86 -38z"/>
<path d="M1088 1239 c-51 -8 -118 -43 -119 -62 0 -7 -2 -34 -5 -61 -3 -34 0
-56 11 -72 21 -33 35 -22 35 29 0 80 37 114 143 132 20 3 37 10 37 14 0 17
-55 27 -102 20z"/>
<path d="M2050 1215 c-15 -18 -5 -35 20 -35 10 0 22 5 25 10 7 11 -12 40 -25
40 -4 0 -13 -7 -20 -15z"/>
<path d="M1282 1184 c-39 -27 -82 -95 -82 -128 0 -43 23 -72 75 -96 49 -22
106 -26 154 -9 51 18 31 32 -49 35 -54 3 -82 9 -100 22 -39 30 -31 43 27 46
59 4 123 38 123 66 0 22 -45 60 -71 60 -10 0 -21 5 -24 10 -9 14 -27 12 -53
-6z m72 -46 c38 -16 15 -38 -40 -38 -48 0 -52 4 -27 32 19 21 33 22 67 6z"/>
<path d="M2072 1117 c-6 -7 -14 -45 -18 -83 -6 -62 -4 -71 15 -88 20 -18 21
-18 31 10 13 33 8 150 -7 165 -7 7 -14 5 -21 -4z"/>
<path d="M2609 1107 c-63 -39 -78 -53 -93 -88 -33 -80 27 -109 135 -65 14 6
17 -4 22 -68 7 -101 -1 -128 -41 -138 -23 -6 -41 -4 -63 8 -33 17 -54 9 -44
-18 14 -36 135 -61 170 -35 18 14 20 27 20 169 0 84 -4 166 -8 182 -7 25 -11
28 -39 22 -30 -6 -30 -5 -15 12 39 43 13 54 -44 19z m46 -97 c-8 -26 -43 -45
-75 -41 -14 2 -27 4 -28 6 -8 8 32 63 56 78 25 14 27 14 40 -4 7 -11 10 -28 7
-39z"/>
<path d="M3511 1114 c-15 -6 -38 -22 -50 -35 -12 -13 -26 -25 -32 -25 -5 -1
-14 -2 -20 -3 -15 -1 -1 -142 16 -160 18 -18 35 -5 35 27 0 28 18 86 35 112 6
9 45 27 88 40 42 14 77 28 77 32 0 18 -112 27 -149 12z"/>
<path d="M2246 1105 c-10 -8 -22 -12 -26 -10 -4 3 -13 -2 -19 -9 -18 -21 -1
-130 20 -134 12 -2 18 7 23 35 12 63 16 73 45 88 25 12 31 12 50 -1 28 -20 51
-66 51 -102 0 -33 22 -68 38 -59 13 9 4 81 -16 127 -27 62 -50 80 -101 80 -25
0 -55 -7 -65 -15z"/>
<path d="M2808 973 c-19 -3 -28 -10 -28 -23 0 -25 19 -30 107 -30 55 0 74 3
71 13 -9 27 -93 49 -150 40z"/>
<path d="M4694 2617 c-2 -7 9 -43 26 -79 31 -66 55 -96 66 -85 6 6 -43 143
-59 165 -12 16 -26 15 -33 -1z"/>
<path d="M8670 2606 c-39 -37 -80 -85 -80 -95 0 -5 7 -14 15 -21 14 -11 23 -7
60 30 42 41 70 92 58 104 -12 11 -28 6 -53 -18z"/>
<path d="M4584 2587 c-3 -9 2 -28 12 -44 42 -68 67 -103 75 -103 16 0 9 40
-13 78 -13 21 -28 46 -34 57 -14 25 -33 30 -40 12z"/>
<path d="M6694 2589 c-16 -27 3 -452 22 -476 12 -15 15 -16 23 -4 5 8 7 31 5
50 -3 20 -7 115 -9 211 -2 96 -4 187 -4 203 -1 27 -23 38 -37 16z"/>
<path d="M8743 2524 c-49 -56 -60 -87 -33 -91 18 -4 24 1 73 53 31 34 37 46
31 68 -3 14 -10 26 -15 26 -4 0 -29 -25 -56 -56z"/>
<path d="M6054 2556 c-3 -7 -4 -24 -3 -37 1 -13 1 -68 1 -123 -2 -97 -2 -98
-24 -91 -13 4 -47 9 -75 12 -44 5 -54 3 -59 -12 -9 -24 9 -33 83 -41 35 -3 66
-10 68 -14 3 -5 6 -44 6 -87 2 -90 13 -123 35 -102 10 11 13 46 13 139 0 69 0
167 1 217 1 51 -1 106 -5 123 -7 31 -31 41 -41 16z"/>
<path d="M6558 2553 c-6 -11 10 -404 17 -431 4 -15 12 -22 22 -20 15 3 16 22
13 178 -3 156 -5 201 -9 263 -1 17 -36 25 -43 10z"/>
<path d="M7253 2518 c-6 -7 -13 -70 -16 -140 -6 -123 -6 -127 14 -133 14 -5
25 -2 30 6 5 8 8 72 7 143 -3 127 -11 155 -35 124z"/>
<path d="M5828 2515 c-7 -7 0 -424 7 -435 4 -6 13 -10 21 -10 13 0 15 28 13
188 -1 103 -4 204 -6 225 -5 33 -20 47 -35 32z"/>
<path d="M5063 2480 c-12 -5 -70 -41 -128 -80 -70 -47 -105 -77 -103 -87 2 -9
44 -40 93 -70 50 -30 107 -68 127 -84 40 -31 58 -36 58 -16 0 22 -29 54 -75
83 -25 16 -45 32 -45 37 0 4 -6 7 -12 7 -17 1 -61 38 -56 48 8 20 87 82 136
106 36 18 52 32 50 43 -4 20 -17 24 -45 13z"/>
<path d="M8340 2470 c-12 -7 -9 -19 19 -72 19 -35 47 -82 64 -105 21 -29 28
-49 23 -65 -3 -13 -40 -58 -83 -101 -60 -61 -73 -81 -62 -88 30 -19 43 -10
129 87 25 28 55 56 68 63 27 14 29 53 5 79 -20 21 -31 39 -86 140 -39 72 -49
80 -77 62z"/>
<path d="M5447 2463 c-17 -17 -3 -45 45 -87 29 -25 57 -46 62 -46 9 0 35 -30
36 -41 0 -4 -31 -42 -70 -85 -38 -43 -70 -82 -70 -86 0 -7 5 -9 29 -12 6 -1
55 43 110 97 99 97 117 132 67 125 -22 -3 -78 37 -156 109 -37 34 -42 37 -53
26z"/>
<path d="M7561 2396 c-62 -30 -116 -57 -119 -61 -7 -6 167 -175 181 -175 5 0
20 -9 34 -20 32 -25 43 -25 43 -1 0 12 -26 38 -70 71 -64 48 -100 84 -100 101
0 4 43 27 95 53 52 25 95 50 95 56 0 8 -31 30 -42 30 -2 0 -54 -25 -117 -54z"/>
<path d="M7901 2401 c-17 -21 -31 -42 -31 -45 0 -4 -8 -19 -19 -34 -75 -110
-131 -204 -126 -212 11 -18 30 -11 61 23 29 31 104 141 104 152 0 3 16 30 36
59 25 38 34 61 29 75 -9 30 -19 26 -54 -18z"/>
<path d="M5197 2416 c-6 -16 16 -40 26 -29 4 3 31 0 62 -7 68 -16 104 -52 112
-110 7 -53 -11 -70 -72 -70 -54 0 -71 19 -87 101 -9 44 -18 64 -28 64 -17 0
-18 -33 -6 -125 12 -88 14 -150 6 -225 -8 -78 3 -123 27 -104 9 8 13 41 13
119 0 136 1 140 46 130 45 -10 105 4 127 31 26 32 22 101 -8 147 -39 59 -50
71 -79 82 -42 15 -133 13 -139 -4z"/>
<path d="M8034 2356 c-61 -19 -67 -25 -53 -43 10 -11 10 -16 1 -22 -14 -9 -20
-58 -27 -221 -2 -69 -9 -142 -14 -163 -7 -29 -6 -41 5 -52 26 -26 44 -7 45 49
1 28 3 62 4 76 2 14 4 57 6 97 l2 71 31 -19 c39 -24 144 -26 186 -4 36 19 70
62 70 89 0 30 -48 120 -73 135 -30 19 -134 23 -183 7z m154 -52 c31 -22 55
-71 47 -101 -12 -49 -152 -76 -175 -33 -9 16 -15 18 -31 10 -18 -10 -19 -8
-18 55 1 58 4 66 23 70 11 2 30 6 41 8 45 10 92 6 113 -9z"/>
<path d="M6269 2307 c-19 -12 -41 -37 -49 -54 -10 -22 -22 -33 -37 -33 -30 0
-30 -28 0 -39 13 -5 38 -26 55 -46 72 -81 190 -87 261 -11 22 24 23 26 5 26
-10 -1 -30 -7 -44 -15 -35 -20 -97 -18 -147 5 -50 22 -56 40 -13 40 43 0 100
30 106 57 11 41 -40 93 -90 93 -7 0 -28 -10 -47 -23z m75 -23 c9 -3 16 -15 16
-25 0 -21 -35 -39 -76 -39 -31 0 -33 33 -2 54 24 17 38 19 62 10z"/>
<path d="M6884 2291 c-46 -28 -64 -59 -64 -110 0 -47 22 -83 45 -75 7 3 30 -5
51 -17 28 -16 54 -22 92 -21 126 3 171 79 95 163 -68 76 -155 99 -219 60z
m164 -62 c16 -13 34 -37 41 -54 16 -43 -5 -55 -93 -54 -106 1 -120 8 -124 52
-3 29 2 42 23 63 23 23 33 26 75 22 31 -3 59 -14 78 -29z"/>
<path d="M7257 2152 c-21 -23 -21 -36 -3 -51 19 -16 46 -3 46 24 0 35 -23 49
-43 27z"/>
<path d="M4520 1750 c-12 -7 -12 -12 -2 -22 16 -16 162 -25 162 -9 0 6 -12 12
-27 13 -46 3 -57 5 -86 17 -33 13 -29 13 -47 1z"/>
<path d="M4854 1749 c-3 -6 0 -15 7 -20 30 -19 169 -4 169 17 0 18 -165 20
-176 3z"/>
<path d="M5222 1747 c-37 -17 -19 -32 34 -30 27 1 61 2 77 2 33 1 36 19 5 25
-58 12 -95 13 -116 3z"/>
<path d="M5565 1743 c-16 -16 -16 -17 6 -25 32 -12 152 -6 156 8 2 7 -20 16
-60 23 -82 14 -82 14 -102 -6z"/>
<path d="M5923 1723 c-20 -7 -15 -20 9 -27 30 -7 104 14 86 26 -14 8 -75 10
-95 1z"/>
<path d="M6485 1710 c-10 -16 22 -28 89 -32 48 -2 70 1 73 9 5 14 -17 20 -99
27 -32 2 -60 1 -63 -4z"/>
<path d="M6139 1699 c-7 -4 -9 -14 -6 -24 5 -12 13 -14 29 -9 12 3 43 6 70 5
48 -1 59 8 36 26 -15 12 -111 13 -129 2z"/>
<path d="M9817 1690 c-44 -8 -51 -14 -43 -35 5 -13 15 -15 53 -10 91 13 113
20 105 31 -10 16 -70 23 -115 14z"/>
<path d="M10102 1674 c-30 -21 -12 -47 27 -38 95 21 103 25 91 40 -17 19 -90
18 -118 -2z"/>
<path d="M6828 1673 c-32 -5 -56 -29 -41 -44 6 -6 26 -6 59 2 27 6 66 11 87
10 31 -1 37 3 37 19 0 18 -6 20 -57 19 -32 -1 -70 -4 -85 -6z"/>
<path d="M9133 1651 c-52 -6 -84 -24 -70 -38 8 -7 124 -7 161 0 32 6 29 24 -5
36 -18 6 -32 10 -33 10 -1 -1 -25 -5 -53 -8z"/>
<path d="M9414 1646 c-15 -12 -16 -17 -7 -27 10 -10 26 -10 76 -1 36 7 76 12
91 12 14 0 26 4 26 9 0 23 -156 29 -186 7z"/>
<path d="M7184 1629 c-12 -20 16 -33 72 -32 51 1 86 15 73 28 -11 11 -138 15
-145 4z"/>
<path d="M7476 1627 c-15 -11 -16 -15 -4 -25 13 -11 62 -11 73 0 3 3 26 3 50
0 48 -5 61 9 26 28 -28 14 -124 13 -145 -3z"/>
<path d="M7760 1625 c0 -17 26 -29 82 -38 70 -11 56 20 -18 41 -54 16 -64 15
-64 -3z"/>
<path d="M8412 1624 c-15 -12 -15 -15 -2 -24 20 -14 162 -8 167 7 10 29 -130
43 -165 17z"/>
<path d="M8094 1617 c-11 -30 6 -37 92 -37 65 0 84 3 84 14 0 8 -15 16 -37 19
-21 3 -59 9 -85 13 -39 5 -49 4 -54 -9z"/>
<path d="M8753 1622 c-27 -4 -50 -29 -37 -42 10 -10 160 3 171 14 18 18 -74
37 -134 28z"/>
<path d="M4651 1367 c-8 -11 -2 -32 25 -88 42 -87 41 -86 54 -73 7 7 6 22 -3
45 -8 19 -22 55 -31 82 -19 50 -26 56 -45 34z"/>
<path d="M4534 1325 c-8 -19 73 -145 93 -145 22 0 9 43 -34 107 -36 55 -50 64
-59 38z"/>
<path d="M9031 1287 c-6 -8 -22 -40 -36 -72 -23 -51 -24 -60 -12 -73 20 -19
31 -11 56 43 31 65 25 141 -8 102z"/>
<path d="M9128 1268 c-14 -18 -35 -50 -48 -71 -20 -35 -21 -40 -7 -54 16 -16
53 -11 42 6 -3 5 -1 13 5 16 6 4 22 25 36 47 43 67 17 118 -28 56z"/>
<path d="M5723 1256 c-31 -14 -32 -17 -22 -43 11 -29 16 -90 20 -256 l2 -99
37 -23 c53 -34 105 -45 172 -38 52 5 63 10 88 41 24 29 27 39 19 61 -15 38
-24 46 -110 96 -43 26 -79 49 -79 50 0 2 19 13 43 23 23 11 54 32 68 48 46 51
43 91 -9 118 -25 13 -45 17 -157 31 -24 3 -53 -1 -72 -9z m162 -49 c67 -14 80
-33 48 -69 -38 -43 -152 -74 -169 -46 -9 14 -8 104 1 118 8 13 46 12 120 -3z
m14 -235 c52 -26 99 -55 105 -65 32 -54 -152 -91 -215 -44 -11 8 -18 36 -23
85 -7 71 -7 72 16 72 13 -1 65 -22 117 -48z"/>
<path d="M8354 1153 c-20 -32 -59 -102 -87 -157 -28 -55 -67 -129 -88 -164
-32 -55 -36 -67 -24 -78 7 -8 16 -14 19 -14 13 0 105 157 174 295 14 28 39 69
55 91 24 35 27 45 18 63 -7 12 -16 21 -21 21 -5 0 -26 -26 -46 -57z"/>
<path d="M5374 1175 c-8 -20 17 -57 94 -137 l65 -68 -49 -56 c-74 -85 -114
-136 -114 -144 0 -4 6 -13 14 -19 10 -9 28 5 83 66 38 43 80 92 92 109 l23 31
-25 39 c-13 22 -36 49 -50 61 -15 12 -43 47 -63 78 -37 55 -60 68 -70 40z"/>
<path d="M7701 1176 c-16 -20 -9 -300 9 -321 32 -39 37 -18 34 142 -5 191 -11
218 -43 179z"/>
<path d="M8736 1175 c-8 -21 39 -120 88 -185 l44 -57 -79 -82 c-82 -85 -99
-121 -55 -121 18 0 45 22 98 80 40 44 78 80 84 80 16 0 26 60 13 76 -6 8 -15
12 -19 9 -4 -2 -20 10 -36 28 -29 31 -43 57 -79 145 -18 43 -47 57 -59 27z"/>
<path d="M4970 1159 c-14 -12 -49 -42 -79 -67 -30 -26 -62 -53 -72 -60 -10 -7
-28 -26 -40 -43 -17 -24 -19 -33 -9 -39 7 -5 19 -6 26 -3 8 3 42 -17 76 -45
86 -68 168 -101 168 -68 0 15 -42 46 -63 46 -8 0 -40 24 -72 53 l-57 52 82 73
c46 41 93 78 106 83 13 4 24 15 24 24 0 23 -60 19 -90 -6z"/>
<path d="M8057 1100 c-29 -28 -75 -66 -103 -85 -29 -19 -54 -41 -57 -50 -7
-16 20 -35 50 -35 10 0 44 -25 76 -55 31 -30 64 -55 72 -55 29 0 14 38 -35 91
-27 29 -50 57 -50 61 0 4 19 27 43 50 54 55 85 100 80 116 -8 21 -23 14 -76
-38z"/>
<path d="M6753 1113 c-17 -6 -17 -28 0 -41 17 -14 40 1 35 23 -3 20 -16 26
-35 18z"/>
<path d="M8462 1100 c-48 -22 -64 -48 -38 -62 15 -8 16 -24 11 -136 -3 -70 -8
-143 -11 -163 -11 -76 -11 -109 0 -118 6 -5 17 -7 23 -3 12 8 24 90 26 170 0
23 5 46 10 49 5 3 35 7 66 8 98 4 119 12 146 59 35 60 32 94 -12 146 -61 71
-137 88 -221 50z m177 -66 c35 -29 42 -81 16 -108 -18 -17 -110 -40 -145 -35
-25 4 -25 5 -21 79 2 41 8 78 15 82 6 4 32 8 58 8 36 0 54 -6 77 -26z"/>
<path d="M5115 1067 c-16 -12 -17 -17 -6 -30 9 -12 11 -52 8 -164 -3 -81 -8
-162 -10 -179 -3 -16 -1 -37 4 -45 8 -12 12 -11 24 5 8 11 15 30 15 42 0 12 5
45 12 73 10 44 15 51 35 51 90 0 161 49 170 118 5 37 2 44 -39 88 -44 46 -45
47 -119 51 -55 4 -79 1 -94 -10z m162 -47 c67 -40 68 -90 1 -132 -55 -37 -95
-37 -104 -2 -7 28 0 127 11 144 10 16 57 11 92 -10z"/>
<path d="M6149 1027 c-46 -38 -60 -70 -56 -122 3 -33 12 -54 30 -72 22 -23 30
-25 73 -18 37 5 56 15 82 43 32 33 34 39 30 91 -4 45 -10 58 -34 78 -37 30
-90 30 -125 0z m107 -44 c30 -40 7 -96 -48 -117 -59 -24 -65 -22 -66 27 -1 59
6 75 36 92 36 19 62 19 78 -2z"/>
<path d="M6477 1012 c-15 -10 -34 -27 -42 -38 -14 -18 -14 -18 -15 9 0 18 -4
27 -12 24 -20 -6 -20 -164 -1 -183 13 -13 17 -13 29 3 7 10 14 34 14 54 0 19
6 42 13 51 13 16 58 48 68 48 13 0 50 -99 57 -154 7 -62 25 -83 36 -44 16 62
-3 161 -43 217 -26 36 -61 40 -104 13z"/>
<path d="M7167 983 c-2 -5 -10 -29 -17 -55 -10 -38 -10 -54 0 -80 35 -93 53
-102 123 -58 27 17 50 30 53 30 2 0 4 -11 4 -24 0 -28 44 -85 56 -73 4 4 3 34
-4 65 -7 32 -12 74 -12 93 0 46 -26 85 -46 68 -8 -6 -14 -23 -14 -38 -1 -32
-36 -76 -72 -90 -25 -9 -28 -8 -38 24 -7 21 -9 56 -5 90 6 46 5 55 -8 55 -9 0
-18 -3 -20 -7z"/>
<path d="M6743 965 c-3 -9 2 -41 10 -73 9 -31 17 -100 19 -152 l3 -95 -45 -23
c-31 -16 -59 -22 -90 -20 -40 3 -47 7 -59 36 -20 45 -35 40 -28 -10 8 -57 35
-78 99 -78 66 0 122 17 149 46 18 19 22 34 20 76 -3 76 -7 115 -20 182 -20
110 -42 152 -58 111z"/>
<path d="M7545 964 c-47 -24 -63 -43 -80 -93 -18 -56 -9 -124 17 -129 17 -3
38 49 38 95 0 12 5 33 11 46 11 24 22 32 83 56 23 10 26 14 16 26 -16 19 -47
19 -85 -1z"/>
<path d="M6943 959 c-25 -9 -61 -54 -69 -86 -19 -74 86 -160 171 -139 53 13
70 99 34 172 -26 54 -78 75 -136 53z m107 -64 c25 -40 21 -98 -6 -109 -37 -14
-94 -3 -94 19 0 7 -7 18 -15 25 -32 27 -9 81 40 93 43 10 54 6 75 -28z"/>
<path d="M7715 780 c-15 -16 -15 -22 -5 -35 13 -16 40 -21 40 -7 0 4 3 17 6
28 8 29 -19 38 -41 14z"/>
</g>
</svg>
