<?xml version="1.0" standalone="no"?>
<!DOCTYPE svg PUBLIC "-//W3C//DTD SVG 20010904//EN"
 "http://www.w3.org/TR/2001/REC-SVG-20010904/DTD/svg10.dtd">
<svg version="1.0" xmlns="http://www.w3.org/2000/svg"
 width="1957.163672pt" height="400.000000pt" viewBox="0 0 1957.163672 400.000000"
 preserveAspectRatio="xMidYMid meet">
<metadata>
Created by potrace 1.15, written by Peter Selinger 2001-2017
</metadata>
<g transform="translate(-25.382391,425.382391) scale(0.090651,-0.090651)"
fill="#444444" stroke="none">
<path d="M20421 4673 c-22 -13 -41 -28 -41 -33 0 -11 -87 -100 -98 -100 -5 0
-14 -11 -20 -25 -16 -34 0 -73 33 -81 22 -5 34 1 68 32 22 22 50 50 61 64 11
14 37 42 58 64 38 38 48 53 27 40 -7 -4 -10 -1 -7 7 3 8 10 13 16 12 24 -5 -1
26 -28 35 -22 8 -35 6 -69 -15z"/>
<path d="M20563 4593 c-9 -15 -44 -58 -76 -95 -35 -40 -57 -74 -55 -84 5 -25
49 -48 79 -41 28 7 153 172 143 189 -4 6 -7 20 -8 32 -1 16 -8 22 -33 24 -26
3 -35 -2 -50 -25z"/>
<path d="M16658 4556 c-10 -7 -18 -18 -18 -25 0 -25 72 -152 105 -185 19 -20
35 -40 35 -45 0 -6 10 -15 21 -22 21 -11 22 -10 15 32 -7 45 -16 69 -69 174
-46 92 -54 98 -89 71z"/>
<path d="M17227 4524 c-3 -3 -20 -6 -38 -6 -36 -1 -70 -16 -106 -47 -28 -24
-28 -24 0 -55 22 -23 24 -35 26 -139 1 -90 -1 -116 -13 -126 -12 -10 -13 -18
-4 -37 8 -17 8 -62 -1 -166 -6 -79 -14 -153 -17 -164 -10 -38 69 -76 196 -94
59 -9 138 10 228 54 71 35 119 112 107 173 -9 51 -133 174 -190 188 -51 13
-53 26 -6 49 22 10 54 34 72 52 28 29 34 44 39 95 5 50 3 66 -12 84 -10 13
-18 27 -18 32 0 16 -73 68 -120 86 -45 17 -134 30 -143 21z m118 -110 c11 -8
27 -14 37 -14 29 0 58 -40 58 -79 -1 -39 -25 -75 -61 -91 -13 -5 -31 -14 -39
-19 -18 -11 -128 -36 -134 -30 -3 2 -6 57 -8 122 l-3 118 29 7 c37 10 96 3
121 -14z m5 -372 c97 -36 160 -83 174 -128 5 -17 -1 -27 -24 -45 -17 -13 -45
-36 -63 -50 -48 -38 -177 -57 -246 -35 -20 7 -23 13 -18 45 4 20 9 79 12 131
4 52 8 100 10 106 4 14 88 1 155 -24z"/>
<path d="M16450 4475 c-26 -27 -27 -25 40 -98 19 -21 39 -46 44 -55 14 -26 60
-71 72 -72 7 0 14 -7 18 -15 7 -19 56 -20 56 -1 0 27 -180 266 -200 266 -4 0
-17 -11 -30 -25z"/>
<path d="M21506 4478 c-22 -31 -20 -43 14 -81 17 -19 30 -37 30 -40 0 -4 10
-17 23 -30 12 -14 43 -53 69 -89 26 -35 59 -75 73 -88 31 -29 32 -46 3 -61
-13 -7 -35 -21 -49 -33 -14 -12 -43 -34 -65 -51 -83 -63 -193 -177 -200 -207
-9 -43 13 -63 60 -54 26 5 40 15 51 36 9 17 20 30 25 30 5 0 22 12 38 28 16
15 44 38 62 52 18 14 47 36 64 50 17 14 49 37 71 52 68 44 95 74 95 108 0 16
-4 30 -10 30 -5 0 -24 19 -41 43 -17 23 -49 62 -72 87 -23 25 -54 63 -68 85
-46 70 -123 155 -141 155 -9 0 -24 -10 -32 -22z"/>
<path d="M21368 4473 c-8 -10 -26 -38 -41 -63 -14 -25 -57 -77 -95 -116 -64
-64 -210 -249 -289 -365 -56 -82 -53 -129 9 -129 22 0 33 7 46 30 9 16 20 30
25 30 4 0 7 5 7 11 0 11 53 84 76 104 6 6 25 30 41 55 17 25 59 76 94 114 35
38 68 76 73 85 5 9 20 27 34 41 13 13 30 36 37 51 8 14 30 42 49 61 35 35 39
63 13 96 -14 18 -62 15 -79 -5z"/>
<path d="M10940 4466 c0 -9 -7 -19 -15 -22 -21 -8 -19 -14 19 -78 34 -56 60
-115 112 -253 15 -40 30 -70 35 -68 4 3 10 -4 14 -15 3 -11 10 -20 15 -20 5 0
17 -3 27 -7 16 -6 16 -5 4 10 -10 13 -11 20 -2 31 10 11 8 23 -8 53 -10 22
-23 57 -26 78 -4 22 -18 63 -30 90 -12 28 -25 58 -28 68 -4 9 -14 17 -24 17
-15 0 -16 2 -3 10 12 7 9 16 -16 52 -17 23 -41 49 -53 56 -19 13 -21 13 -21
-2z"/>
<path d="M12446 4383 c-84 -109 -87 -143 -11 -129 26 5 44 21 88 80 62 81 65
108 16 125 -27 9 -30 7 -93 -76z"/>
<path d="M18873 4425 c-3 -9 -3 -38 1 -65 4 -27 9 -78 12 -112 3 -35 8 -66 10
-69 10 -17 -28 -28 -101 -30 -66 -3 -83 -7 -107 -27 -27 -23 -28 -26 -12 -43
19 -22 52 -30 141 -34 51 -2 67 -7 65 -17 -2 -7 -6 -31 -8 -53 -3 -22 -11 -62
-18 -90 -21 -74 -29 -145 -17 -145 5 0 17 -7 25 -15 14 -14 18 -14 39 0 27 17
42 68 58 195 19 145 15 138 92 164 82 28 101 43 83 68 -9 13 -30 18 -79 20
-71 3 -77 8 -77 70 0 15 -6 45 -14 65 -8 21 -20 59 -26 86 -11 40 -16 47 -37
47 -13 0 -26 -7 -30 -15z"/>
<path d="M10715 4404 c-24 -24 -18 -40 35 -106 28 -34 59 -80 71 -103 11 -22
26 -45 33 -50 7 -6 16 -20 20 -33 8 -25 42 -42 82 -42 26 0 32 20 12 42 -7 7
-29 44 -48 81 -19 37 -47 82 -62 99 -16 18 -28 36 -28 41 0 12 -48 58 -77 74
-19 9 -26 9 -38 -3z"/>
<path d="M12628 4319 c-49 -49 -88 -95 -88 -103 0 -23 29 -46 57 -46 17 0 42
18 82 60 72 74 96 118 87 153 -12 48 -44 33 -138 -64z"/>
<path d="M5972 4278 c-6 -9 -7 -32 -1 -68 18 -110 11 -320 -26 -710 -4 -39 17
-70 46 -70 46 0 61 112 75 540 5 173 -9 293 -38 311 -19 13 -44 11 -56 -3z"/>
<path d="M20065 4225 c-22 -7 -58 -18 -80 -24 -22 -6 -66 -28 -98 -48 -53 -34
-58 -41 -53 -66 7 -35 55 -82 135 -132 35 -22 80 -55 100 -74 l35 -33 -27 -24
c-16 -13 -37 -24 -47 -24 -10 0 -22 -4 -25 -10 -14 -22 -145 3 -145 28 0 23
-35 9 -38 -16 -7 -50 96 -112 184 -112 54 1 153 55 178 99 19 32 19 34 1 65
-11 17 -24 37 -31 43 -7 7 -14 16 -16 20 -6 15 -95 72 -102 66 -3 -3 -6 0 -6
8 0 8 -20 28 -45 44 -24 17 -43 34 -42 39 3 8 146 75 200 92 21 8 22 23 1 52
-17 24 -22 25 -79 7z"/>
<path d="M764 4183 c-16 -21 -55 -66 -89 -100 -33 -33 -69 -71 -80 -83 -11
-12 -39 -40 -62 -63 -24 -23 -43 -47 -43 -54 0 -7 -18 -24 -39 -37 -22 -14
-51 -37 -65 -51 -14 -14 -31 -25 -39 -25 -20 0 -67 -53 -67 -77 0 -14 10 -24
31 -32 24 -8 29 -15 24 -30 -5 -16 3 -26 37 -47 24 -15 85 -61 137 -103 209
-169 321 -229 321 -172 0 21 -110 125 -160 151 -15 8 -69 51 -120 95 -50 44
-111 89 -136 101 l-44 21 37 25 c60 40 247 230 393 401 13 15 31 27 41 27 10
0 21 10 25 22 5 17 0 27 -22 45 -39 31 -47 29 -80 -14z"/>
<path d="M3246 4204 c-4 -9 -2 -22 4 -29 8 -9 6 -14 -5 -18 -8 -4 -13 -12 -10
-19 2 -7 6 -57 9 -112 l5 -99 -92 6 c-51 3 -102 9 -114 13 -17 5 -23 2 -23 -9
0 -8 -6 -17 -12 -20 -20 -6 8 -52 41 -67 14 -7 66 -15 115 -18 l89 -5 -6 -106
c-4 -58 -11 -119 -16 -136 -5 -16 -12 -47 -14 -67 -5 -36 -4 -38 31 -48 31 -8
39 -7 49 6 19 26 34 111 40 237 l6 118 31 14 c17 7 44 13 59 13 16 0 36 6 44
15 14 14 12 17 -16 32 -18 9 -50 17 -72 17 -21 0 -39 3 -39 7 -6 75 -13 117
-29 171 -11 36 -22 77 -25 93 -7 30 -40 38 -50 11z"/>
<path d="M19585 4152 c-18 -15 -75 -121 -75 -140 0 -15 -68 -112 -91 -130 -85
-66 -132 -5 -109 141 4 26 3 50 -1 53 -5 2 -6 10 -3 18 3 7 -6 17 -20 24 -39
17 -57 -12 -69 -113 -13 -102 -3 -141 51 -197 88 -92 206 -41 296 128 l25 47
11 -27 c5 -15 18 -51 27 -79 9 -29 19 -54 23 -57 4 -3 10 -18 14 -33 8 -33 63
-62 84 -45 17 14 15 26 -8 55 -11 14 -20 38 -20 53 0 15 -3 30 -6 33 -4 4 -8
19 -9 34 -4 49 -56 197 -78 225 -21 25 -23 26 -42 10z"/>
<path d="M15963 4140 c-13 -11 -23 -24 -23 -29 0 -16 37 -41 60 -41 13 0 37
-4 54 -10 17 -5 84 -16 149 -25 94 -12 121 -13 137 -3 26 16 25 20 -5 50 -25
25 -72 39 -200 58 -150 23 -148 23 -172 0z"/>
<path d="M1211 4123 c-42 -8 -160 -84 -187 -120 -81 -107 -103 -276 -50 -384
27 -54 113 -148 166 -182 14 -9 54 -25 90 -36 79 -25 150 -20 196 15 73 54
100 192 49 247 -14 15 -34 28 -43 29 -47 4 -72 8 -127 23 -33 8 -105 18 -160
20 l-100 5 -3 52 c-6 124 116 241 268 257 38 4 56 11 58 21 5 29 -100 65 -157
53z m109 -492 c106 -21 117 -35 83 -106 -29 -60 -110 -67 -208 -18 -28 14
-135 119 -135 133 0 11 192 4 260 -9z"/>
<path d="M17807 4094 c-17 -9 -26 -21 -23 -29 3 -8 1 -15 -3 -17 -4 -2 -21
-22 -38 -45 -25 -35 -33 -40 -42 -29 -6 7 -21 13 -34 12 -20 -1 -22 -5 -19
-51 6 -98 64 -209 107 -203 17 3 22 15 32 85 15 109 28 144 63 178 28 27 32
28 110 22 l81 -5 -14 21 c-20 31 -114 77 -157 77 -19 -1 -48 -8 -63 -16z"/>
<path d="M11454 4074 c-27 -14 -61 -35 -77 -46 -37 -26 -85 -101 -93 -145 -3
-18 -10 -33 -15 -33 -16 0 -30 -39 -20 -57 6 -10 12 -34 16 -54 8 -50 66 -114
136 -149 46 -24 71 -30 122 -30 35 0 67 3 71 7 4 5 29 13 54 20 26 6 72 19
102 28 30 9 68 20 84 24 36 8 46 30 17 38 -12 3 -21 9 -21 14 0 16 -103 9
-180 -12 -113 -30 -150 -37 -155 -29 -3 4 -24 10 -47 14 -49 8 -98 49 -98 81
0 18 12 25 68 43 37 12 90 25 117 28 48 7 61 11 133 47 19 9 39 17 46 17 28 0
48 37 40 74 -9 50 -60 96 -137 123 -81 29 -104 28 -163 -3z m194 -97 l25 -25
-39 -17 c-21 -9 -61 -21 -89 -27 -27 -5 -74 -16 -103 -25 -28 -8 -59 -13 -66
-11 -23 5 32 77 84 110 39 24 53 27 104 24 46 -3 64 -10 84 -29z"/>
<path d="M13534 4086 c-29 -10 -72 -52 -88 -86 -4 -8 -13 -26 -21 -40 l-14
-24 -13 29 c-15 34 -44 42 -72 20 -18 -14 -18 -16 -2 -50 10 -20 20 -52 23
-71 3 -19 10 -37 14 -40 5 -3 9 -44 9 -92 0 -93 22 -152 56 -152 33 0 39 23
39 155 0 116 3 135 23 179 26 54 66 96 92 96 9 0 30 -17 46 -37 62 -80 105
-207 109 -324 2 -66 23 -104 53 -95 27 9 32 33 22 129 -16 151 -76 294 -158
372 -49 46 -65 51 -118 31z"/>
<path d="M15410 4088 c-14 -6 -41 -17 -60 -26 -66 -28 -107 -81 -128 -167 -11
-42 -10 -56 2 -85 32 -76 101 -117 224 -131 48 -6 119 -16 157 -23 86 -15 152
-10 165 13 5 9 5 22 1 29 -9 14 -181 59 -276 71 -38 5 -88 15 -109 23 -40 13
-61 38 -32 38 30 0 171 52 209 76 39 25 39 27 20 96 -5 19 -68 65 -116 86 -15
7 -29 12 -30 11 -1 0 -13 -5 -27 -11z m47 -74 c69 -14 63 -80 -7 -82 -23 -1
-50 -6 -60 -12 -10 -5 -33 -10 -49 -10 -29 0 -30 1 -19 23 18 30 78 87 93 87
7 0 26 -3 42 -6z"/>
<path d="M18440 4053 c-24 -58 -60 -116 -80 -130 -11 -8 -20 -21 -20 -29 0
-37 -77 -77 -105 -54 -17 14 -20 78 -6 127 10 36 -3 103 -20 103 -45 0 -71
-61 -68 -158 3 -84 16 -118 57 -150 33 -25 42 -28 79 -21 24 4 50 14 59 21 48
38 89 89 111 140 14 32 29 55 34 52 12 -7 39 -70 50 -118 6 -21 19 -50 29 -64
11 -13 20 -30 20 -36 0 -7 15 -12 36 -12 41 0 41 -3 4 126 -45 158 -89 230
-141 230 -20 0 -30 -7 -39 -27z"/>
<path d="M10367 4054 c-1 -1 -27 -4 -57 -7 -56 -6 -80 -24 -80 -58 0 -31 23
-39 106 -33 43 2 102 6 129 8 28 1 66 -2 86 -9 66 -21 79 5 27 54 -18 17 -46
33 -63 36 -28 5 -144 12 -148 9z"/>
<path d="M14888 4034 c-31 -16 -98 -82 -98 -96 0 -10 -25 -38 -34 -38 -3 0 -6
4 -6 9 0 18 -60 98 -86 115 -66 44 -135 -27 -140 -144 -4 -71 20 -205 41 -234
33 -44 92 13 66 62 -13 25 -15 228 -2 236 17 11 59 -53 91 -139 18 -46 38 -89
44 -94 14 -11 56 4 56 21 1 7 5 43 9 80 7 56 16 76 47 117 33 42 43 49 64 44
37 -8 57 -30 76 -82 9 -25 20 -55 24 -66 5 -11 16 -44 26 -72 19 -56 44 -74
70 -52 8 7 12 19 8 28 -3 9 -8 36 -10 59 -3 24 -9 52 -14 62 -5 9 -7 20 -3 23
12 13 -37 94 -81 135 -37 34 -53 42 -83 42 -21 -1 -50 -7 -65 -16z"/>
<path d="M12105 4023 c-31 -8 -63 -42 -77 -82 -7 -20 -13 -38 -14 -41 -1 -3
-5 -15 -9 -27 -8 -26 -25 -21 -25 6 0 10 -12 24 -26 32 -52 27 -63 -32 -33
-184 5 -26 9 -63 9 -81 0 -22 8 -40 24 -56 24 -21 26 -21 42 -5 9 9 32 76 51
148 36 141 61 200 84 205 25 5 80 -41 106 -86 25 -47 55 -216 46 -264 -4 -21
1 -30 22 -44 27 -18 28 -17 45 3 26 33 14 219 -21 298 -35 80 -83 137 -140
165 -39 20 -48 22 -84 13z"/>
<path d="M14165 3989 c-33 -22 -61 -44 -63 -49 -2 -4 -22 -29 -46 -55 -48 -51
-96 -138 -96 -174 0 -35 37 -88 68 -98 45 -16 113 -3 159 28 72 50 104 85 116
127 l13 41 39 -84 c38 -82 51 -94 98 -95 24 0 21 23 -8 81 -21 43 -44 112 -60
183 -12 52 -28 86 -41 86 -8 0 -14 5 -14 10 0 6 -6 10 -14 10 -7 0 -19 7 -26
15 -21 25 -62 16 -125 -26z m102 -71 c-19 -115 -66 -207 -117 -227 -41 -17
-74 -22 -87 -14 -17 12 -19 77 -3 97 47 57 114 126 124 126 6 1 25 12 41 25
40 33 48 31 42 -7z"/>
<path d="M3643 4010 c-38 -15 -28 -36 30 -62 21 -10 40 -18 43 -18 12 0 -9 66
-24 78 -18 14 -19 14 -49 2z"/>
<path d="M1870 3953 c-53 -7 -67 -13 -101 -45 -35 -32 -99 -128 -99 -148 0
-15 -9 -12 -37 10 -30 24 -43 25 -68 6 -18 -13 -18 -14 6 -43 27 -33 105 -194
113 -234 4 -17 16 -31 36 -39 17 -7 32 -11 34 -9 20 24 23 46 10 83 -8 22 -17
69 -20 104 -5 58 -3 70 25 126 42 82 75 107 154 113 80 6 88 9 80 28 -9 25
-89 53 -133 48z"/>
<path d="M9700 3929 c-67 -14 -150 -138 -155 -234 -6 -89 39 -153 125 -182 46
-16 156 -14 198 3 17 7 32 11 32 9 0 -2 23 5 51 14 58 21 88 46 73 61 -13 13
-105 14 -179 1 -83 -15 -131 -14 -165 4 -38 19 -38 35 -2 35 37 1 100 30 166
79 56 42 69 56 73 80 5 37 -58 109 -112 128 -33 12 -53 12 -105 2z m109 -73
c29 -31 24 -54 -16 -76 -18 -10 -38 -22 -45 -28 -7 -5 -29 -13 -48 -17 -19 -3
-43 -9 -52 -11 -13 -4 -18 0 -18 15 0 12 5 21 10 21 6 0 10 8 10 18 1 24 44
70 82 87 45 19 51 19 77 -9z"/>
<path d="M16046 3912 c-77 -3 -119 -23 -114 -55 5 -32 55 -40 230 -35 168 4
189 10 166 47 -24 39 -99 51 -282 43z"/>
<path d="M7941 3884 c-20 -26 -22 -37 -27 -164 -3 -98 37 -160 106 -160 23 0
54 7 70 15 27 14 90 93 90 113 0 12 39 57 44 51 2 -2 14 -42 25 -89 15 -58 30
-93 48 -112 57 -60 71 -27 39 95 -13 51 -27 110 -31 132 -13 74 -61 144 -95
137 -9 -1 -24 -26 -33 -55 -40 -116 -80 -185 -116 -202 -52 -25 -64 -7 -63 97
0 46 5 94 10 109 21 55 -30 80 -67 33z"/>
<path d="M6524 3872 c-10 -10 -33 -23 -50 -30 -17 -7 -52 -33 -78 -58 -26 -24
-49 -44 -52 -44 -3 0 -22 -12 -41 -27 -45 -34 -93 -108 -93 -142 0 -83 112
-151 193 -117 56 23 128 93 153 148 17 39 34 50 34 23 0 -24 48 -125 60 -125
6 0 15 -11 20 -25 9 -23 38 -34 52 -19 4 3 -1 22 -9 42 -8 20 -14 37 -13 37 2
0 -6 29 -17 65 -42 134 -63 206 -63 221 0 24 -39 69 -59 69 -9 0 -26 -8 -37
-18z m-1 -147 c-10 -54 -61 -152 -93 -179 -57 -48 -153 -24 -135 34 7 21 81
100 94 100 4 0 33 22 66 50 63 53 79 52 68 -5z"/>
<path d="M7005 3880 c-53 -12 -99 -41 -143 -91 -23 -26 -49 -46 -56 -43 -31
12 -36 -20 -24 -151 11 -117 14 -128 35 -138 18 -8 27 -6 43 8 17 16 20 31 20
116 0 120 14 154 76 192 119 72 190 -9 188 -212 -1 -85 2 -108 15 -122 26 -28
38 -13 59 76 2 11 5 53 7 92 2 70 1 75 -42 148 -60 100 -115 139 -178 125z"/>
<path d="M9240 3867 c-59 -25 -170 -103 -170 -120 0 -6 -9 -29 -20 -52 -27
-55 -19 -93 27 -130 30 -24 45 -28 102 -29 70 -1 70 -1 159 71 17 15 32 35 32
45 0 33 33 16 43 -22 44 -169 52 -280 27 -369 -12 -41 -25 -60 -60 -84 -34
-23 -120 -23 -146 1 -10 10 -35 29 -54 42 -47 32 -58 48 -65 93 -8 44 -30 49
-47 11 -9 -20 -9 -30 0 -45 7 -10 12 -25 12 -33 0 -22 76 -109 112 -128 68
-36 84 -41 131 -44 104 -6 182 62 204 181 16 80 8 248 -12 268 -16 16 -25 65
-12 70 6 2 3 14 -7 30 -10 14 -15 30 -12 35 8 14 -40 139 -67 174 -22 27 -82
58 -112 58 -5 0 -35 -11 -65 -23z m95 -119 c-4 -28 -14 -58 -21 -66 -8 -7 -14
-17 -14 -22 0 -11 -77 -48 -115 -55 -22 -5 -36 -1 -52 14 -21 20 -21 22 -6 53
22 47 42 67 88 91 49 26 73 35 103 36 23 1 24 -1 17 -51z"/>
<path d="M8679 3856 c-47 -16 -99 -49 -126 -78 -27 -29 -63 -123 -63 -164 0
-48 46 -85 112 -91 69 -5 106 18 144 88 16 29 34 54 39 56 6 2 23 -20 38 -47
33 -59 74 -100 99 -100 24 0 23 6 -8 71 -15 30 -28 64 -30 76 -2 25 -62 118
-103 162 -34 37 -58 43 -102 27z m47 -83 c-2 -10 -12 -43 -20 -74 -19 -68 -41
-95 -81 -103 -78 -15 -72 54 11 138 54 56 101 75 90 39z"/>
<path d="M2235 3843 c-60 -8 -81 -23 -110 -81 -16 -31 -30 -64 -31 -72 0 -8
-2 -25 -3 -37 0 -13 -7 -23 -14 -23 -8 0 -22 -9 -32 -20 -15 -16 -15 -22 -5
-35 7 -8 23 -15 36 -15 15 0 41 -16 66 -41 50 -48 129 -89 175 -89 84 0 204
48 233 93 11 19 10 19 -37 11 -26 -5 -91 -9 -143 -9 -78 0 -100 4 -124 20
l-30 20 35 6 c61 10 105 40 164 110 23 28 26 88 6 113 -31 37 -114 59 -186 49z
m111 -87 c28 -22 10 -45 -69 -85 -74 -37 -97 -36 -97 7 0 28 37 73 70 85 29
11 76 7 96 -7z"/>
<path d="M4665 3810 c-137 -70 -203 -157 -192 -252 7 -59 17 -72 71 -100 40
-20 41 -20 93 -3 40 14 59 27 74 52 12 18 27 39 34 46 7 8 24 36 38 63 25 48
25 49 36 24 6 -14 15 -32 20 -40 24 -42 72 -152 92 -210 29 -88 38 -244 15
-288 -45 -87 -132 -136 -231 -130 -70 5 -165 45 -211 89 -28 27 -35 29 -54 19
-13 -7 -19 -17 -16 -27 3 -8 6 -19 6 -24 0 -17 62 -69 115 -97 65 -35 86 -41
170 -51 119 -14 212 30 280 133 51 78 62 218 24 311 -4 11 -11 40 -15 65 -3
24 -10 51 -14 60 -99 205 -137 274 -166 300 -24 21 -34 38 -34 59 0 27 -14 41
-44 41 -7 0 -48 -18 -91 -40z m52 -132 c-8 -19 -27 -54 -42 -79 -16 -24 -27
-46 -26 -49 3 -6 -30 -18 -51 -19 -24 -1 -40 32 -29 61 14 37 69 91 115 113
22 12 42 18 44 14 2 -4 -3 -22 -11 -41z"/>
<path d="M7598 3833 c-10 -2 -18 -9 -18 -14 0 -5 -8 -9 -17 -9 -10 -1 -40 -14
-68 -29 -98 -57 -164 -200 -121 -266 27 -41 88 -65 145 -56 71 11 152 78 167
137 9 37 19 29 38 -28 58 -174 59 -345 3 -406 -36 -40 -119 -72 -188 -72 -51
0 -67 5 -104 30 -24 16 -53 42 -64 56 -20 25 -41 25 -41 -1 0 -32 80 -113 137
-140 56 -26 61 -27 140 -17 45 6 97 18 115 28 55 27 102 86 118 145 21 85 13
266 -14 288 -8 6 -11 22 -8 37 2 14 0 35 -5 47 -5 12 -18 47 -27 77 -30 96
-69 180 -83 180 -7 0 -13 5 -13 10 0 10 -59 12 -92 3z m39 -128 c-6 -59 -43
-144 -67 -155 -8 -4 -24 -11 -35 -17 -11 -6 -35 -8 -52 -6 -26 4 -33 11 -38
35 -9 41 48 122 117 165 74 47 82 45 75 -22z"/>
<path d="M2740 3809 c-51 -27 -86 -70 -93 -117 -4 -22 -18 -54 -32 -70 -32
-38 -31 -47 5 -62 17 -7 34 -18 38 -25 13 -23 136 -83 195 -95 68 -14 181 -4
198 16 7 8 10 17 7 19 -2 3 -42 14 -89 25 -108 26 -148 39 -178 57 l-24 16 60
27 c73 33 143 99 143 135 0 74 -143 120 -230 74z m132 -69 c31 0 -47 -53 -117
-80 -34 -13 -33 8 3 48 26 29 62 43 90 36 8 -2 18 -4 24 -4z"/>
<path d="M3684 3809 c-29 -31 -42 -138 -28 -229 6 -41 14 -82 18 -90 9 -21 54
-52 65 -46 14 9 7 352 -9 370 -16 21 -23 20 -46 -5z"/>
<path d="M4120 3821 c-44 -9 -90 -33 -114 -60 -13 -14 -26 -19 -46 -15 -49 10
-62 -34 -41 -135 6 -29 11 -71 11 -92 0 -51 8 -67 39 -84 24 -12 29 -11 49 9
18 20 20 28 12 57 -16 54 -12 132 7 159 32 45 48 61 75 76 46 24 73 18 107
-25 45 -57 51 -77 66 -249 6 -64 9 -70 43 -83 42 -16 52 8 47 113 -8 151 -78
284 -172 324 -18 8 -36 13 -40 13 -4 -1 -24 -4 -43 -8z"/>
<path d="M10314 3762 c-9 -13 -13 -30 -10 -38 14 -35 124 -45 231 -20 33 8 72
12 87 9 38 -7 49 21 19 50 -20 21 -31 22 -167 22 -141 0 -145 -1 -160 -23z"/>
<path d="M11040 3096 c-6 -8 -16 -59 -21 -113 -14 -132 -14 -149 -4 -293 4
-69 5 -152 1 -184 l-8 -58 -101 8 c-162 13 -172 12 -172 -11 0 -11 -3 -25 -7
-31 -4 -6 16 -31 48 -58 47 -41 104 -127 104 -158 0 -10 41 -74 91 -143 20
-27 39 -59 43 -70 3 -11 20 -26 37 -34 45 -20 85 3 78 45 -1 3 10 18 23 32 13
15 32 43 42 62 11 19 27 43 38 53 10 10 18 23 18 30 0 7 13 38 30 70 16 31 26
57 23 57 -4 0 3 10 14 23 11 12 25 32 32 43 6 13 26 26 48 31 33 7 38 13 41
40 3 29 0 32 -47 48 -44 14 -63 15 -147 5 -52 -6 -98 -10 -100 -7 -3 2 -7 100
-10 217 -3 117 -9 223 -14 235 -5 13 -6 40 -3 60 9 53 -14 115 -42 115 -13 0
-28 -6 -35 -14z"/>
<path d="M12965 1546 c-12 -19 -15 -37 -10 -73 4 -26 6 -69 5 -96 0 -26 2 -52
6 -59 9 -14 12 -51 18 -243 5 -141 7 -150 28 -167 48 -36 47 -38 35 323 -4
113 -12 232 -17 265 -6 32 -10 62 -10 67 0 17 -41 5 -55 -17z"/>
<path d="M6807 1507 c-13 -20 -14 -38 -6 -108 5 -46 12 -91 15 -99 7 -19 6
-285 -2 -325 -3 -16 -7 -46 -9 -65 -2 -19 -6 -54 -10 -76 -7 -38 -5 -44 19
-59 25 -17 28 -17 45 -1 17 16 22 39 45 231 4 27 52 37 166 33 l95 -3 1 -118
c1 -117 1 -119 27 -132 24 -12 28 -12 42 8 14 19 14 23 1 33 -13 9 -12 13 6
32 19 19 20 25 11 84 -7 39 -7 70 -1 81 6 11 3 33 -7 64 -19 55 -22 188 -8
283 11 70 4 111 -23 142 -17 18 -18 18 -35 -8 -9 -14 -14 -35 -12 -45 3 -11
-1 -27 -10 -37 -26 -29 -29 -66 -14 -169 23 -147 35 -133 -117 -130 l-131 2
-1 85 c-2 141 -6 200 -15 206 -5 3 -9 21 -9 40 0 68 -34 95 -63 51z"/>
<path d="M6001 1504 c-57 -41 0 -126 170 -253 64 -47 124 -90 133 -96 14 -9
11 -16 -25 -55 -23 -25 -64 -81 -92 -125 -65 -103 -147 -242 -147 -249 0 -7
70 -40 73 -35 2 2 22 32 45 67 23 34 42 71 42 81 0 11 3 21 8 23 13 6 87 110
85 119 -2 5 11 18 27 31 17 12 30 28 30 35 0 7 8 13 18 13 23 0 52 30 52 54 0
34 -55 98 -123 143 -100 67 -208 167 -229 212 -21 46 -38 55 -67 35z"/>
<path d="M8061 1476 c-21 -23 -22 -28 -12 -76 16 -73 14 -148 -10 -388 -21
-205 -21 -213 -4 -232 18 -20 51 -29 40 -10 -3 5 1 20 9 32 8 13 14 40 14 60
0 20 3 56 8 80 13 76 15 109 19 316 2 111 0 202 -5 202 -4 0 -10 9 -13 20 -7
26 -19 25 -46 -4z"/>
<path d="M9986 1481 c-3 -4 -19 -11 -34 -14 -85 -17 -164 -167 -89 -167 40 0
48 -14 51 -91 3 -52 0 -79 -10 -89 -11 -13 -11 -24 -2 -52 12 -41 -4 -204 -22
-222 -5 -5 -10 -25 -10 -42 0 -25 8 -39 33 -57 86 -65 197 -104 293 -101 61 1
77 5 107 28 60 46 92 116 81 175 -7 32 -90 106 -172 154 -21 12 -39 24 -42 28
-3 4 -27 17 -53 28 -53 23 -59 37 -20 52 14 5 31 16 37 23 6 8 23 16 38 20 70
16 125 111 112 192 -5 33 -14 44 -54 71 -28 18 -83 41 -128 53 -89 22 -108 24
-116 11z m177 -120 c68 -31 65 -64 -13 -122 -38 -28 -133 -79 -149 -79 -5 0
-13 26 -16 58 -4 31 -14 77 -22 102 -13 41 -13 45 4 58 26 20 136 10 196 -17z
m-125 -352 c2 -5 11 -9 19 -9 8 0 41 -16 73 -35 32 -19 63 -35 69 -35 17 0
111 -102 111 -121 0 -17 -32 -50 -67 -68 -26 -13 -133 -15 -165 -2 -13 5 -43
15 -67 22 -24 7 -46 19 -49 27 -4 13 15 199 24 230 4 14 46 7 52 -9z"/>
<path d="M8348 1438 c-7 -13 -13 -59 -14 -103 -4 -151 -15 -300 -30 -409 -18
-126 -15 -148 22 -165 34 -15 48 -3 45 41 -1 18 -2 39 -1 46 1 6 2 28 3 47 1
19 5 35 8 35 10 0 21 140 25 305 2 82 6 155 8 162 5 13 -30 63 -44 63 -5 0
-15 -10 -22 -22z"/>
<path d="M5365 1432 c-16 -8 -32 -18 -35 -22 -3 -4 -41 -29 -85 -55 -44 -26
-96 -62 -115 -80 -19 -17 -58 -48 -85 -67 -28 -20 -59 -46 -70 -59 -11 -12
-44 -37 -72 -56 -44 -28 -53 -39 -53 -63 0 -25 5 -30 36 -39 26 -7 43 -7 57 1
16 8 28 7 54 -7 18 -10 33 -24 33 -32 0 -21 168 -183 242 -233 35 -24 78 -54
97 -67 48 -33 62 -30 57 10 -6 45 -14 61 -37 78 -145 101 -319 263 -334 310
-6 18 -1 27 21 43 16 12 58 46 93 76 75 63 207 153 263 177 48 21 53 36 22 73
-28 33 -44 35 -89 12z"/>
<path d="M14917 1382 c-24 -27 -21 -40 19 -89 50 -61 82 -91 124 -114 19 -11
49 -30 66 -42 42 -29 86 -56 153 -92 30 -16 56 -34 58 -40 2 -5 -18 -23 -43
-39 -46 -29 -187 -144 -214 -175 -12 -13 -116 -101 -127 -106 -2 -1 -6 -16 -9
-33 -6 -27 -3 -32 19 -37 19 -5 37 2 76 29 28 20 55 36 61 36 6 0 36 25 68 56
78 76 87 84 98 84 5 0 15 9 21 19 7 11 23 26 36 33 14 7 42 23 64 35 22 12 43
29 46 38 4 8 15 15 26 15 14 0 23 9 27 26 7 29 -5 45 -54 72 -44 24 -180 104
-225 133 -57 35 -198 148 -228 180 -30 34 -40 35 -62 11z"/>
<path d="M11555 1370 c-17 -19 -17 -25 -6 -70 13 -49 19 -225 9 -236 -4 -3
-40 -1 -83 5 -64 9 -81 8 -106 -5 -21 -11 -29 -21 -27 -36 5 -36 47 -56 132
-62 44 -4 82 -8 84 -11 2 -2 -1 -32 -6 -67 -6 -35 -12 -90 -13 -123 -3 -56 -1
-61 25 -75 25 -14 28 -14 42 5 8 11 13 30 11 43 -2 12 0 44 5 70 4 26 10 69
12 97 l3 49 83 3 c93 4 113 13 101 46 -6 16 -20 24 -52 29 -24 3 -60 12 -80
19 -40 14 -40 14 -54 190 -5 58 -37 149 -53 149 -5 0 -17 -9 -27 -20z"/>
<path d="M14275 1349 c-25 -23 -69 -76 -99 -118 -29 -42 -66 -90 -82 -108 -28
-30 -43 -54 -86 -136 -11 -20 -28 -43 -37 -50 -10 -6 -32 -33 -50 -60 -17 -26
-43 -59 -57 -74 -33 -36 -28 -65 14 -77 29 -8 36 -6 62 20 16 16 30 34 30 40
0 6 6 17 14 23 8 7 18 25 21 41 3 16 17 36 30 44 14 9 41 41 60 72 20 31 45
65 55 77 11 11 20 24 20 28 0 4 8 10 18 13 9 3 28 25 41 48 32 57 101 150 124
166 13 10 17 24 15 50 -4 54 -35 55 -93 1z"/>
<path d="M13763 1337 c-46 -26 -211 -133 -260 -169 -29 -21 -56 -38 -62 -38
-5 0 -11 -4 -13 -8 -1 -4 -24 -23 -50 -42 -57 -40 -73 -64 -73 -108 0 -37 8
-43 130 -98 61 -27 156 -84 268 -161 98 -68 114 -75 137 -63 11 6 20 15 20 21
0 14 -105 115 -154 148 -22 14 -51 34 -65 43 -14 10 -36 22 -49 28 -12 5 -46
25 -74 45 -29 19 -58 35 -64 35 -6 0 -16 6 -22 13 -8 9 3 21 44 47 30 18 54
40 54 47 0 7 6 13 14 13 21 0 76 33 76 46 0 6 12 14 28 17 26 6 113 56 161 94
22 18 23 20 8 55 -8 20 -13 39 -9 42 10 11 -23 6 -45 -7z"/>
<path d="M5526 1259 c-33 -26 -33 -59 -2 -87 15 -12 27 -37 31 -59 3 -21 10
-57 16 -80 13 -61 12 -64 -17 -57 -17 4 -29 2 -35 -7 -19 -30 -9 -49 35 -70
l43 -22 7 -75 c3 -41 6 -128 6 -193 0 -148 13 -212 47 -234 23 -16 26 -15 39
2 9 12 12 32 8 58 -3 22 -7 87 -8 145 -2 58 -7 144 -11 193 l-8 87 39 1 c170
6 221 23 245 81 20 49 15 112 -13 148 -33 42 -130 113 -212 155 -85 43 -166
49 -210 14z m158 -83 c53 -7 168 -72 194 -110 33 -48 28 -67 -23 -99 -46 -27
-97 -34 -162 -21 -30 6 -31 7 -43 97 -7 51 -16 100 -22 110 -10 19 -2 41 12
32 4 -3 24 -7 44 -9z"/>
<path d="M14465 1225 c-43 -17 -85 -52 -85 -71 0 -17 32 -34 63 -34 21 0 25
-6 30 -40 3 -22 4 -81 4 -132 -2 -92 -2 -93 -28 -96 -20 -2 -28 2 -32 17 -11
43 -70 20 -65 -25 3 -30 67 -83 101 -84 16 0 17 -16 15 -217 -3 -236 2 -263
47 -263 32 0 36 18 34 157 -1 65 -1 162 0 217 l1 99 44 -5 c58 -7 162 14 208
41 44 26 82 75 92 116 12 48 16 98 10 127 -9 43 -84 109 -181 158 -73 37 -99
45 -153 47 -40 2 -80 -3 -105 -12z m177 -96 c39 -6 76 -15 82 -20 95 -73 122
-121 98 -174 -21 -47 -118 -90 -212 -97 l-45 -3 -7 40 c-3 22 -4 56 -1 75 2
19 0 47 -6 63 -7 17 -7 27 -1 27 6 0 10 23 10 50 0 28 3 50 6 50 3 0 37 -5 76
-11z"/>
<path d="M7508 1173 c-10 -2 -18 -9 -18 -13 0 -5 -13 -16 -28 -24 -62 -32 -88
-176 -47 -261 27 -56 101 -123 149 -136 53 -14 184 -6 224 15 17 9 39 16 48
16 23 0 84 42 84 58 0 6 6 11 12 10 7 -2 14 7 16 20 4 28 -22 29 -81 3 -64
-29 -192 -44 -258 -30 -52 11 -99 34 -99 48 0 8 79 32 166 51 56 12 107 55
117 99 15 61 -116 152 -215 150 -29 -1 -61 -3 -70 -6z m151 -91 c19 -9 36 -22
38 -29 5 -14 -38 -34 -127 -61 -36 -11 -73 -23 -83 -27 -15 -6 -17 -2 -14 32
5 49 22 82 50 93 35 14 99 10 136 -8z"/>
<path d="M10710 1128 c-82 -33 -100 -43 -131 -71 -20 -18 -46 -47 -58 -65 -17
-24 -29 -32 -43 -29 -33 9 -43 -31 -24 -105 9 -35 16 -72 16 -81 0 -10 11 -22
25 -27 14 -5 25 -14 25 -20 0 -5 5 -10 10 -10 6 0 10 9 10 20 0 12 7 55 16 97
13 63 23 85 56 122 54 62 98 83 186 89 52 3 72 8 72 18 0 8 5 14 12 14 8 0 6
6 -4 16 -9 10 -39 19 -70 22 -29 2 -57 8 -63 12 -5 4 -21 3 -35 -2z"/>
<path d="M8610 1098 c-24 -13 -58 -40 -74 -61 -27 -34 -31 -46 -31 -100 1 -99
15 -159 43 -190 15 -15 32 -25 39 -23 7 3 15 1 17 -3 6 -9 101 -26 126 -23 8
1 29 4 46 6 18 2 57 22 91 49 52 40 61 52 68 89 12 70 7 99 -23 147 -32 53
-79 82 -173 111 -81 25 -76 25 -129 -2z m215 -118 c36 -26 40 -32 39 -72 0
-85 -56 -128 -163 -128 -59 0 -73 3 -91 22 -11 12 -20 36 -20 52 0 17 -4 37
-9 44 -5 8 -4 31 2 53 13 54 49 70 137 63 50 -4 74 -12 105 -34z"/>
<path d="M12180 1058 c-25 -40 -50 -92 -50 -104 0 -23 -63 -129 -101 -168 -45
-48 -68 -44 -70 11 -1 21 0 43 1 48 8 40 7 135 -2 135 -5 0 -8 6 -5 14 3 8 -1
22 -8 33 -13 17 -15 17 -36 -3 -18 -19 -22 -36 -26 -125 -3 -57 -2 -128 2
-157 6 -46 11 -56 38 -73 71 -43 132 -11 198 105 4 6 16 32 29 59 12 26 24 47
28 47 7 0 14 -14 49 -100 8 -19 19 -42 24 -50 5 -8 13 -25 18 -36 6 -12 20
-29 33 -38 21 -15 24 -15 41 2 17 18 16 21 -21 98 -22 43 -47 113 -57 154 -16
71 -54 169 -65 170 -3 0 -12 -10 -20 -22z"/>
<path d="M11177 1045 c-9 -8 -21 -32 -27 -52 -20 -61 -88 -143 -119 -143 -16
0 -19 10 -20 87 -2 88 -8 103 -43 103 -46 0 -64 -163 -25 -221 61 -90 121 -90
203 -2 l51 56 24 -72 c32 -99 54 -133 82 -129 29 4 34 47 12 94 -9 19 -24 64
-34 101 -43 159 -73 210 -104 178z"/>
<path d="M12590 1045 c-36 -8 -81 -14 -101 -14 -36 -1 -79 -33 -79 -59 0 -37
189 -222 227 -222 6 0 24 -16 39 -35 25 -33 26 -36 10 -54 -9 -10 -37 -24 -61
-31 -47 -13 -77 -7 -150 30 -35 18 -41 18 -54 5 -13 -13 -12 -18 9 -40 13 -14
28 -25 33 -25 5 0 23 -10 40 -22 26 -19 45 -22 115 -23 l84 0 34 39 c28 32 34
48 34 84 0 40 -5 48 -47 89 -27 24 -63 50 -81 58 -35 15 -132 106 -132 123 0
6 26 13 58 17 80 9 127 33 127 65 0 31 -17 33 -105 15z"/>
<path d="M9240 808 c-12 -13 -49 -75 -82 -138 -34 -63 -68 -123 -77 -133 -14
-17 -14 -20 9 -38 14 -10 30 -19 37 -19 21 0 63 54 63 82 0 15 5 30 10 33 6 3
10 14 10 24 0 10 9 26 19 35 24 21 64 113 56 126 -3 6 -1 10 4 10 6 0 11 9 11
20 0 27 -34 26 -60 -2z"/>
<path d="M12963 655 c-32 -31 -32 -113 0 -136 45 -33 71 -31 112 6 33 31 37
39 31 67 -8 43 -58 88 -94 87 -15 -1 -37 -11 -49 -24z"/>
</g>
</svg>
