<?xml version="1.0" standalone="no"?>
<!DOCTYPE svg PUBLIC "-//W3C//DTD SVG 20010904//EN"
 "http://www.w3.org/TR/2001/REC-SVG-20010904/DTD/svg10.dtd">
<svg version="1.0" xmlns="http://www.w3.org/2000/svg"
 width="908.265351pt" height="400.000000pt" viewBox="0 0 908.265351 400.000000"
 preserveAspectRatio="xMidYMid meet">
<metadata>
Created by potrace 1.15, written by Peter Selinger 2001-2017
</metadata>
<g transform="translate(-30.342706,421.735357) scale(0.071383,-0.071383)"
fill="#444444" stroke="none">
<path d="M11465 5894 c-18 -13 -20 -26 -19 -112 0 -53 5 -134 10 -180 10 -84
3 -121 -19 -104 -7 5 -34 12 -62 15 -64 7 -100 -10 -159 -73 -37 -39 -46 -56
-46 -84 0 -78 144 -164 215 -128 55 27 124 85 136 114 11 28 9 161 -7 456 -7
116 -11 125 -49 96z m-53 -471 c10 -8 26 -33 38 -54 l20 -39 -23 -9 c-102 -40
-166 -38 -185 5 -23 50 -12 73 53 108 33 17 70 13 97 -11z"/>
<path d="M12536 5874 c-13 -12 -15 -27 -9 -72 14 -112 15 -110 -64 -131 -33
-9 -44 -18 -49 -37 -10 -39 19 -56 85 -49 l53 5 -8 -102 c-14 -170 -12 -193
12 -196 41 -6 59 44 70 198 7 100 15 110 88 108 58 -2 76 5 76 31 0 18 -26 31
-120 60 -39 12 -60 46 -60 97 0 71 -42 121 -74 88z"/>
<path d="M7385 5846 c-16 -11 -16 -20 -7 -77 13 -74 43 -382 45 -452 1 -41 4
-48 24 -53 30 -8 53 11 53 43 0 13 9 46 21 73 37 87 72 76 106 -31 13 -41 23
-83 23 -95 0 -29 31 -55 58 -47 18 4 22 12 22 44 0 53 -52 185 -91 233 -30 35
-35 38 -72 33 -21 -3 -49 -15 -61 -26 -12 -12 -25 -21 -28 -21 -3 0 -6 30 -6
68 -1 74 -7 133 -24 233 -12 73 -32 98 -63 75z"/>
<path d="M10132 5837 c-25 -27 -21 -57 8 -57 25 0 35 -18 20 -35 -14 -17 -5
-157 12 -188 7 -13 6 -28 -2 -48 -9 -22 -10 -36 -1 -56 7 -19 8 -50 3 -96 -9
-73 2 -97 46 -97 30 0 35 14 36 107 1 92 3 95 71 115 55 16 161 124 171 172 5
31 2 41 -29 76 -34 41 -137 101 -193 114 -16 3 -49 8 -75 11 -38 5 -48 2 -67
-18z m189 -91 c126 -47 136 -57 102 -106 -28 -40 -49 -57 -104 -84 -48 -25
-82 -28 -77 -9 2 10 -12 160 -18 196 -7 35 10 35 97 3z"/>
<path d="M5757 5739 c-58 -45 -100 -191 -59 -206 9 -4 19 -9 22 -13 11 -13 90
-30 143 -30 68 0 103 -12 135 -48 24 -26 30 -60 17 -100 -3 -11 -28 -34 -56
-52 -46 -30 -55 -32 -114 -28 -50 3 -70 9 -90 28 -14 13 -25 29 -25 37 0 7 -4
13 -9 13 -13 0 -41 -29 -41 -41 0 -18 20 -49 31 -49 6 0 32 -14 56 -31 43 -28
50 -30 107 -24 78 8 157 54 191 110 l23 40 11 -28 c6 -16 11 -38 11 -50 1 -43
36 -83 102 -116 30 -15 116 -9 152 12 12 6 24 10 28 9 4 -1 23 13 41 32 33 32
35 33 67 20 18 -8 52 -14 76 -14 39 0 45 4 75 45 18 25 35 43 37 40 3 -3 15
-29 26 -57 19 -47 25 -53 50 -53 23 0 31 6 39 28 8 24 5 32 -12 48 -11 11 -23
32 -27 47 -3 15 -10 43 -15 62 -5 19 -9 46 -9 59 0 30 -45 98 -70 106 -17 5
-70 -20 -117 -55 -12 -10 -45 -44 -73 -78 -42 -51 -50 -66 -50 -101 0 -48 -12
-56 -121 -75 -63 -11 -68 -11 -103 12 -30 18 -37 28 -34 49 2 21 13 29 66 49
78 29 120 58 128 89 8 34 -21 84 -54 90 -15 3 -43 10 -64 16 -37 9 -80 0 -93
-20 -3 -6 -15 -11 -25 -11 -23 0 -34 -31 -25 -76 9 -53 -6 -62 -22 -13 -16 48
-53 93 -93 114 -14 7 -65 15 -113 19 -49 4 -100 12 -114 19 -22 10 -24 16 -20
50 9 68 25 76 138 76 55 -1 102 -5 105 -10 9 -15 41 -10 48 7 7 19 -20 67 -34
59 -5 -3 -11 -2 -13 2 -3 5 -50 10 -104 11 -89 3 -101 1 -126 -19z m491 -272
c24 -7 43 -16 43 -20 -1 -4 -1 -13 -1 -20 0 -8 -16 -14 -42 -15 -24 -1 -52 -3
-63 -5 -28 -3 -30 27 -4 52 13 12 23 21 23 21 1 0 20 -6 44 -13z m389 -57 c-3
-45 -10 -69 -32 -100 -30 -44 -32 -44 -69 -30 -39 14 -33 50 15 107 23 26 50
51 60 55 11 4 19 12 19 18 0 5 2 10 5 10 3 0 3 -27 2 -60z"/>
<path d="M1196 5652 c-11 -13 -17 -37 -17 -73 0 -83 9 -261 15 -289 5 -22 14
-132 15 -198 1 -26 38 -44 61 -30 13 8 15 28 12 110 -3 55 0 104 5 109 5 5 39
12 75 16 l67 6 5 -34 c3 -19 10 -63 16 -98 5 -36 15 -68 22 -73 19 -12 45 -10
51 5 8 22 -2 241 -12 262 -5 11 -16 76 -25 144 -13 108 -17 125 -38 140 -13 9
-27 16 -33 16 -18 0 -21 -50 -8 -130 15 -98 16 -142 2 -150 -5 -4 -37 -8 -70
-8 -67 -2 -60 -11 -79 97 -5 33 -10 82 -10 108 0 49 -13 88 -29 88 -4 0 -15
-8 -25 -18z"/>
<path d="M12229 5576 c-2 -3 -17 -7 -31 -10 -15 -2 -48 -18 -72 -36 -82 -56
-85 -141 -8 -222 46 -48 96 -57 190 -33 70 17 112 46 112 77 0 23 -12 23 -85
-3 -87 -30 -151 -15 -181 43 -24 46 -7 74 64 104 83 37 87 39 90 63 3 18 -1
21 -36 21 -21 0 -41 -2 -43 -4z"/>
<path d="M10649 5541 c-64 -33 -135 -77 -143 -89 -3 -5 -1 -33 4 -63 6 -30 13
-70 16 -90 8 -49 48 -70 77 -41 17 18 18 25 7 75 -9 47 -9 61 4 85 18 35 64
66 123 81 50 14 74 45 46 59 -33 17 -79 11 -134 -17z"/>
<path d="M11930 5552 c-25 -8 -51 -35 -64 -67 -18 -42 -124 -147 -144 -143
-14 3 -17 17 -17 93 0 83 -2 90 -20 90 -27 0 -64 -70 -66 -126 -2 -53 16 -95
52 -122 l27 -19 63 30 c37 18 74 44 87 62 l23 31 27 -51 c31 -60 83 -98 103
-74 10 12 10 24 1 57 -15 51 -38 147 -49 203 -6 30 -12 40 -23 36z"/>
<path d="M7270 5518 c-51 -14 -126 -75 -145 -119 -26 -56 -7 -128 44 -169 80
-62 175 -44 219 43 26 52 27 67 7 67 -8 0 -15 -4 -15 -9 0 -5 -24 -25 -53 -44
-67 -45 -98 -41 -126 15 -16 32 -17 46 -9 76 6 20 14 42 20 49 14 18 95 53
122 53 25 0 36 15 29 38 -5 14 -43 14 -93 0z"/>
<path d="M10896 5497 c-43 -39 -56 -72 -56 -144 0 -51 3 -59 36 -90 24 -22 42
-32 54 -28 10 3 21 1 25 -4 3 -6 20 -8 38 -5 92 16 137 67 137 152 0 46 -4 55
-42 95 -39 40 -49 45 -100 50 -53 5 -58 3 -92 -26z m131 -35 c14 -9 43 -74 43
-97 0 -25 -53 -73 -87 -79 -30 -5 -34 -3 -48 30 -24 59 -20 98 16 128 31 26
54 32 76 18z"/>
<path d="M2630 5483 c-38 -38 -60 -92 -60 -146 0 -16 -8 -42 -17 -58 -16 -28
-16 -29 2 -44 11 -8 27 -15 37 -15 9 0 37 -20 62 -44 l46 -45 121 -3 c117 -3
121 -2 140 21 41 50 17 62 -116 60 -67 -1 -91 3 -117 18 -37 22 -50 53 -21 54
10 0 45 15 78 32 51 27 61 37 67 67 10 49 -1 108 -23 124 -11 7 -51 14 -90 15
-69 2 -71 2 -109 -36z m152 -51 c19 -19 -19 -61 -71 -79 -48 -16 -61 -9 -61
32 0 41 25 61 74 60 25 0 51 -6 58 -13z"/>
<path d="M6951 5507 c-59 -21 -76 -56 -73 -150 2 -82 25 -157 47 -157 7 0 20
9 30 20 14 15 16 29 11 62 -17 105 -17 123 -4 141 14 19 52 23 121 15 30 -4
37 -2 37 12 0 25 -30 47 -70 52 -19 3 -42 8 -50 11 -8 3 -30 1 -49 -6z"/>
<path d="M2287 5459 c-11 -6 -25 -26 -33 -45 -17 -41 -29 -43 -56 -9 -22 28
-68 55 -94 55 -20 0 -102 -50 -108 -66 -9 -24 15 -171 36 -216 24 -53 51 -69
76 -44 13 13 14 21 4 48 -6 18 -14 66 -18 105 -6 61 -4 74 9 79 25 9 62 -22
86 -74 13 -27 32 -54 44 -61 18 -12 23 -11 39 9 11 13 18 39 18 64 0 24 8 53
20 71 l19 29 29 -64 c16 -36 33 -81 36 -100 17 -84 45 -116 75 -86 13 14 13
23 -2 88 -27 112 -69 193 -114 216 -27 15 -42 15 -66 1z"/>
<path d="M1680 5443 c-39 -15 -90 -67 -105 -108 -38 -99 6 -180 108 -200 80
-16 141 -1 194 50 49 47 54 75 24 140 -21 47 -30 55 -104 95 -54 29 -85 35
-117 23z m94 -93 c28 -10 51 -42 61 -82 7 -26 3 -29 -40 -48 -85 -37 -133 -23
-149 44 -5 21 -1 37 16 62 25 36 60 44 112 24z"/>
<path d="M10269 4700 c-9 -5 -20 -21 -23 -35 -4 -16 -16 -27 -34 -31 -45 -11
-294 -134 -334 -166 -39 -31 -49 -64 -23 -74 8 -4 15 -17 15 -29 0 -13 4 -26
9 -29 5 -3 12 -40 16 -81 4 -41 10 -75 13 -75 7 0 6 -206 -2 -340 -5 -85 -28
-285 -50 -440 -18 -122 -20 -206 -6 -215 6 -4 7 -13 1 -23 -14 -28 -52 -438
-50 -542 1 -30 1 -185 1 -345 0 -159 1 -315 4 -345 2 -30 6 -143 8 -252 2
-108 7 -201 10 -206 3 -6 6 -147 7 -314 1 -166 5 -325 11 -353 5 -27 12 -92
15 -143 7 -123 9 -125 169 -118 66 3 193 8 283 12 218 9 370 9 516 0 114 -7
819 -19 935 -15 14 0 63 -1 110 -3 47 -2 130 2 185 9 93 13 499 28 677 26 43
0 123 -6 179 -13 134 -17 135 -16 132 123 -2 56 -5 147 -9 202 -8 140 -22 422
-29 600 -4 83 -7 157 -7 165 -2 21 11 196 18 245 3 22 7 74 9 115 11 175 14
209 30 290 9 47 16 96 16 110 -1 14 3 67 9 117 6 51 13 184 15 295 3 197 12
372 20 413 2 11 5 76 5 145 1 69 8 179 16 245 15 136 18 375 4 480 -11 84 -30
326 -34 445 -2 47 -4 91 -5 97 0 7 -14 19 -29 27 -23 12 -82 15 -308 15 -153
0 -296 -3 -317 -8 -20 -5 -39 -5 -42 0 -7 10 -762 4 -950 -7 -147 -9 -164 -9
-405 1 -96 4 -184 12 -195 19 -26 14 -563 20 -586 6z m421 -85 c52 -2 138 -11
205 -21 56 -8 250 -25 290 -25 22 0 67 0 100 -1 33 -1 119 2 190 6 162 10 956
8 1004 -3 20 -4 52 -3 71 3 19 5 76 11 125 12 50 2 148 6 219 10 l129 7 -5
-64 c-3 -35 -1 -77 3 -92 4 -15 10 -67 14 -115 3 -48 11 -127 17 -177 16 -119
16 -438 0 -545 -6 -47 -14 -157 -17 -245 -3 -88 -10 -187 -15 -220 -6 -33 -10
-154 -10 -270 -1 -220 -15 -409 -48 -660 -34 -256 -54 -521 -49 -655 6 -170
25 -514 32 -575 2 -27 7 -104 10 -170 7 -134 -3 -183 -33 -169 -15 7 -216 26
-267 25 -212 -2 -524 -12 -645 -20 -193 -14 -1144 -6 -1250 10 -66 10 -142 8
-315 -7 -16 -1 -111 -5 -210 -8 -99 -4 -206 -9 -237 -12 l-57 -5 -5 43 c-12
104 -25 290 -24 363 1 95 -10 484 -18 640 -22 432 -24 804 -4 1135 5 91 14
269 20 395 6 127 15 253 20 280 6 28 12 94 14 147 3 54 7 102 10 107 13 20 19
213 12 383 -6 164 10 192 81 144 21 -14 43 -26 49 -26 6 0 19 -9 29 -20 10
-11 25 -20 33 -20 8 0 56 -20 106 -44 102 -49 174 -72 187 -59 15 15 13 86 -3
123 -28 65 -76 245 -82 306 -6 59 -6 61 21 74 15 7 68 14 117 16 48 1 91 5 94
9 3 3 13 3 21 -1 9 -3 41 -7 71 -9z m-397 -125 c10 -33 17 -69 17 -79 0 -11 5
-23 10 -26 6 -3 10 -14 10 -24 0 -10 9 -46 21 -81 14 -44 17 -66 10 -73 -14
-14 -279 120 -335 169 -37 32 -38 35 -22 53 9 10 36 26 59 35 23 10 65 28 92
41 44 20 98 41 116 44 3 1 13 -26 22 -59z"/>
<path d="M10553 4446 c-21 -10 -33 -22 -33 -34 0 -28 25 -46 47 -34 26 14 213
6 353 -14 19 -3 89 -7 155 -9 67 -2 141 -8 165 -14 56 -12 858 -2 1005 13 140
14 202 18 235 15 19 -1 97 -3 172 -3 l137 -1 6 -34 c4 -19 9 -89 11 -155 2
-67 7 -169 10 -228 4 -62 2 -152 -4 -210 -16 -144 -24 -366 -13 -372 10 -7 6
-189 -4 -206 -4 -6 -6 -32 -6 -58 0 -26 -6 -83 -14 -127 -18 -98 -27 -261 -24
-415 1 -63 1 -135 0 -160 -5 -113 -8 -240 -11 -425 -1 -110 -6 -225 -11 -255
-12 -69 -23 -442 -19 -670 1 -133 -2 -155 -28 -165 -27 -10 -120 14 -126 33
-3 9 -8 58 -11 107 -3 50 -10 122 -16 160 -5 39 -11 111 -13 161 -3 67 -10
102 -26 133 l-21 42 -102 -6 c-56 -3 -127 -10 -157 -16 -154 -29 -596 -42
-665 -19 -42 14 -300 8 -500 -12 -131 -12 -191 -15 -479 -24 -121 -3 -229 -10
-242 -14 -31 -12 -43 -95 -50 -332 -2 -106 -7 -200 -9 -209 -6 -17 -62 -29
-131 -29 -30 0 -34 3 -34 28 0 15 -2 124 -6 242 -3 118 -5 328 -4 465 0 138
-4 302 -10 365 -22 251 -38 630 -27 647 4 5 7 59 7 119 1 136 17 398 30 484
10 71 25 227 37 385 11 140 7 388 -7 430 -8 24 -17 35 -28 33 -14 -3 -16 -34
-18 -268 -1 -146 -6 -288 -12 -316 -6 -28 -9 -60 -6 -71 3 -11 -4 -82 -16
-159 -22 -143 -24 -174 -35 -499 -4 -104 -8 -210 -9 -234 -1 -23 2 -93 6 -155
5 -61 9 -157 8 -213 0 -66 4 -113 13 -135 12 -30 14 -286 5 -743 0 -11 3 -63
7 -115 4 -52 7 -166 7 -253 -1 -131 2 -159 14 -164 8 -3 25 4 38 16 30 28 157
52 306 56 63 2 147 5 185 7 39 2 111 0 160 -4 50 -5 167 -10 261 -12 94 -2
176 -6 182 -10 5 -3 110 -6 232 -7 176 0 226 3 243 14 16 10 29 12 47 5 32
-12 80 -12 377 -5 134 3 251 10 260 16 21 10 314 7 356 -4 20 -5 33 -3 46 9
22 20 29 121 37 526 2 140 6 269 8 285 12 90 17 275 21 660 2 237 5 453 8 480
5 43 10 119 22 305 1 19 6 50 10 69 13 59 22 889 12 1086 -3 61 -6 124 -6 140
-2 48 -15 61 -45 47 -21 -9 -26 -9 -26 3 0 37 -23 42 -191 38 -233 -4 -388
-13 -434 -24 -46 -11 -963 -18 -1015 -8 -34 7 -149 15 -330 23 -47 2 -119 7
-160 10 -55 5 -84 2 -107 -8z m1878 -3044 c6 -15 12 -79 14 -142 3 -63 9 -155
15 -205 18 -153 19 -145 -4 -150 -96 -20 -172 -25 -461 -30 -181 -3 -345 -8
-363 -12 -28 -5 -293 -12 -436 -12 -21 0 -48 5 -60 11 -23 13 -287 21 -612 18
l-191 -1 -6 34 c-9 55 2 379 14 414 6 18 16 34 22 34 7 1 98 3 202 5 208 4
352 10 460 19 57 4 213 13 330 17 11 0 67 -3 125 -7 169 -12 548 -9 618 4 35
7 86 12 113 13 27 0 51 3 53 7 3 4 39 8 81 9 74 1 76 1 86 -26z"/>
<path d="M12430 4189 c-155 -17 -296 -29 -307 -25 -6 3 -87 -1 -180 -9 -194
-16 -302 -18 -538 -12 -93 2 -201 0 -239 -6 -55 -8 -93 -6 -180 7 -61 10 -124
19 -141 21 -16 2 -32 4 -35 6 -4 1 -73 6 -134 9 -22 1 -56 -27 -56 -47 0 -7 1
-13 3 -13 1 -1 47 -5 102 -9 55 -5 123 -17 150 -27 42 -14 84 -17 265 -16 565
3 876 8 888 16 8 4 68 10 135 11 67 2 185 10 262 17 77 8 145 13 151 11 17 -6
34 -151 24 -213 -10 -65 -28 -138 -39 -157 -6 -11 -37 -15 -122 -18 -63 -2
-134 -5 -159 -6 -43 -1 -246 9 -320 18 -56 6 -90 5 -165 -2 -109 -11 -277 -12
-305 -2 -33 12 -128 10 -264 -6 -70 -8 -131 -9 -170 -4 -34 5 -205 10 -381 13
-176 2 -326 7 -333 9 -9 3 -11 27 -6 97 6 98 -3 144 -32 155 -27 10 -32 -15
-32 -141 0 -86 -4 -133 -15 -163 -14 -37 -14 -43 -1 -54 13 -10 25 -9 67 5 29
9 77 20 107 24 65 9 292 7 475 -4 171 -11 326 -7 373 9 38 12 179 6 267 -11
22 -5 85 -6 140 -3 55 4 163 2 240 -2 143 -9 431 -14 540 -9 33 1 78 0 100 -2
22 -3 45 0 52 5 6 6 15 36 18 67 4 31 16 104 27 161 17 89 18 112 8 166 -7 35
-9 76 -6 92 6 25 3 31 -19 41 -28 13 -111 13 -215 1z"/>
<path d="M11280 3519 c-25 -4 -94 -6 -155 -3 -60 3 -153 0 -205 -6 -108 -13
-91 -13 -235 -5 -98 6 -121 4 -208 -19 -53 -14 -112 -26 -130 -26 -58 0 -60
-5 -64 -162 -4 -160 -4 -193 3 -428 5 -152 -5 -324 -20 -360 -4 -9 0 -24 7
-34 12 -17 15 -17 29 -2 15 14 17 13 23 -11 l6 -26 102 6 c56 4 140 14 187 23
59 11 106 14 155 9 39 -3 113 -8 165 -9 120 -4 174 -12 280 -42 l84 -24 22 22
c19 20 23 38 28 128 7 119 8 123 27 205 18 78 17 738 -2 761 -12 15 -30 16
-99 3z m-577 -82 c5 4 507 7 537 2 8 -1 32 2 54 6 35 7 38 6 32 -13 -4 -11 0
-79 9 -152 8 -73 12 -137 8 -143 -4 -7 -9 -77 -10 -157 -2 -162 -18 -299 -39
-347 -8 -17 -14 -54 -14 -82 0 -60 14 -58 -170 -32 -74 10 -180 19 -235 20
-55 1 -116 5 -135 9 -19 4 -57 5 -85 1 -108 -15 -258 -31 -283 -31 -15 0 -33
-5 -39 -10 -16 -13 -17 9 -3 47 5 14 10 38 11 53 1 44 3 631 2 707 0 42 4 73
11 77 6 4 31 8 55 8 25 0 52 6 61 15 20 18 150 34 197 24 18 -4 34 -5 36 -2z"/>
<path d="M12305 3490 c-22 -5 -60 -17 -85 -27 -49 -20 -91 -21 -307 -9 -228
14 -276 11 -325 -16 -33 -18 -43 -29 -43 -48 0 -24 2 -25 50 -21 28 1 64 9 81
16 24 10 59 10 165 2 182 -15 307 -13 409 7 47 9 141 19 210 21 96 4 127 8
135 20 16 24 -17 47 -69 49 -25 1 -49 5 -52 9 -10 9 -118 7 -169 -3z"/>
<path d="M12330 3204 c-50 -12 -95 -14 -195 -9 -267 13 -359 14 -427 5 -78
-11 -128 -33 -128 -56 0 -23 23 -26 91 -10 86 20 371 13 430 -11 42 -16 130
-14 254 7 33 5 96 7 140 4 90 -7 107 1 98 48 -4 20 -11 27 -27 27 -11 0 -55 2
-96 5 -51 4 -96 1 -140 -10z"/>
<path d="M12152 2964 c-26 -11 -96 -16 -300 -19 -238 -4 -268 -6 -279 -22 -35
-47 -4 -58 138 -46 57 5 145 7 194 4 50 -4 113 -3 140 1 102 15 404 22 418 9
11 -9 17 -8 26 3 16 19 7 47 -21 66 -33 21 -271 24 -316 4z"/>
<path d="M12085 2730 c-22 -5 -52 -13 -67 -19 -16 -6 -111 -8 -256 -5 -211 5
-230 4 -236 -12 -4 -10 0 -24 9 -33 15 -15 53 -17 220 -12 28 0 79 -6 113 -16
60 -16 67 -15 135 2 40 10 81 23 92 28 21 11 142 12 207 1 20 -3 52 -7 70 -9
18 -1 50 -6 70 -10 30 -6 39 -4 44 8 9 26 -13 54 -48 60 -18 3 -53 10 -78 16
-53 12 -217 12 -275 1z"/>
<path d="M11539 2476 c-7 -14 -10 -29 -6 -32 20 -21 368 -50 423 -35 33 9 41
28 21 55 -12 17 -31 19 -198 20 -101 1 -194 6 -206 10 -18 7 -25 3 -34 -18z"/>
<path d="M12158 2281 c-69 -21 -96 -34 -128 -66 -55 -54 -120 -152 -121 -184
-2 -55 3 -93 17 -119 8 -15 14 -39 14 -54 0 -15 15 -48 33 -72 36 -50 88 -73
141 -61 17 4 72 6 121 5 102 -2 145 12 212 66 100 82 109 164 35 316 -47 96
-96 151 -160 179 -53 23 -56 23 -164 -10z m173 -85 c25 -19 53 -49 61 -67 9
-19 26 -55 38 -81 50 -108 19 -188 -87 -226 -89 -32 -110 -34 -143 -17 -28 14
-33 14 -59 -1 -20 -12 -39 -15 -64 -10 -30 6 -38 13 -57 57 -12 28 -24 81 -27
119 -5 65 -4 71 27 119 44 68 127 121 189 121 14 0 33 5 41 10 23 15 31 12 81
-24z"/>
<path d="M10560 2258 c-14 -6 -48 -21 -76 -33 -57 -25 -128 -85 -149 -124 -7
-14 -21 -57 -30 -94 -19 -78 -13 -175 14 -217 53 -82 178 -143 219 -107 16 14
20 14 42 -3 32 -25 44 -25 116 3 116 46 199 117 214 183 12 53 -17 200 -47
235 -7 8 -13 20 -13 25 -1 21 -78 93 -125 118 -53 28 -120 33 -165 14z m167
-100 c37 -22 83 -73 83 -92 0 -7 8 -20 19 -30 15 -13 18 -30 17 -85 -2 -73 -7
-84 -65 -136 -41 -36 -142 -85 -177 -85 -14 0 -32 7 -41 15 -14 14 -16 14 -27
0 -19 -26 -77 -2 -130 55 -39 41 -46 55 -46 89 0 85 20 142 68 194 94 99 210
129 299 75z"/>
<path d="M11341 2260 c-43 -10 -105 -38 -163 -72 -53 -33 -81 -87 -77 -150 2
-21 -2 -43 -9 -50 -14 -14 -16 -84 -3 -92 4 -3 11 -19 14 -36 17 -80 92 -144
207 -174 55 -14 165 3 214 33 71 44 121 121 141 217 26 127 2 175 -140 272
-53 36 -74 45 -135 57 -8 1 -30 -1 -49 -5z m111 -97 c6 -7 15 -13 21 -13 6 0
34 -18 63 -40 68 -51 84 -95 65 -173 -10 -40 -25 -64 -64 -104 -70 -73 -118
-86 -238 -66 -118 19 -149 71 -134 227 6 67 10 78 42 111 32 33 78 57 128 68
39 8 106 2 117 -10z"/>
<path d="M2445 4618 c-294 -21 -489 -24 -1103 -15 l-413 6 -29 -42 c-16 -23
-36 -49 -45 -57 -9 -8 -64 -60 -122 -115 -142 -135 -178 -160 -206 -148 -29
13 -84 -2 -97 -27 -9 -17 -6 -24 13 -43 13 -12 34 -48 46 -80 22 -61 25 -79
39 -292 4 -72 11 -136 15 -141 3 -6 9 -69 12 -140 3 -71 8 -172 11 -224 7
-136 7 -340 0 -525 -3 -89 -1 -207 5 -267 6 -59 12 -180 14 -270 2 -90 8 -201
14 -248 6 -47 13 -238 16 -425 3 -187 9 -477 13 -645 4 -168 4 -315 0 -326 -3
-12 -10 -76 -14 -141 l-7 -120 39 -15 c31 -11 93 -14 309 -13 149 0 311 6 360
12 50 7 130 15 179 18 49 3 166 18 260 32 142 21 261 33 346 34 31 0 295 -10
295 -11 0 -10 579 -15 594 -6 7 5 27 9 44 11 18 2 95 8 172 15 77 6 160 14
185 18 25 4 90 4 145 0 55 -4 131 -9 170 -10 l70 -3 8 65 c4 36 5 173 2 305
-7 291 -7 337 0 680 7 354 7 706 1 990 -7 293 -12 381 -30 502 -8 54 -18 134
-22 178 -6 68 -15 692 -12 880 1 33 1 69 0 80 0 11 -2 110 -4 220 -2 128 -8
208 -15 221 -17 30 -154 76 -167 55 -12 -19 -439 1 -473 22 -17 11 -491 15
-618 5z m205 -102 c36 0 153 1 260 3 107 1 198 1 203 0 4 -1 19 -2 35 -3 22
-2 96 -10 262 -29 8 -1 40 2 70 6 30 4 77 4 104 -1 l49 -7 4 -165 c2 -91 3
-196 2 -235 -1 -38 -2 -79 -1 -90 0 -11 3 -200 6 -420 2 -220 7 -416 10 -435
5 -39 35 -292 42 -355 8 -76 14 -491 13 -915 -1 -234 -1 -626 0 -872 0 -267
-3 -458 -9 -473 -8 -21 -14 -24 -35 -19 -57 14 -402 9 -545 -9 -167 -20 -504
-26 -775 -14 -202 9 -286 9 -395 1 -103 -7 -312 -34 -323 -41 -10 -6 -164 -16
-221 -14 -22 0 -44 -3 -50 -8 -29 -23 -637 -34 -659 -12 -4 4 -3 66 3 137 6
71 9 235 6 364 -2 129 -7 406 -11 615 -3 209 -11 425 -17 480 -15 138 -15 146
-22 360 -4 105 -9 202 -12 218 -3 15 -7 211 -9 435 -2 388 -22 769 -44 847 -5
17 -9 76 -10 132 l-1 102 77 -39 c43 -22 86 -40 95 -40 10 0 26 -4 36 -10 20
-11 236 -82 304 -100 25 -7 51 -9 57 -6 14 9 4 59 -21 116 -98 216 -115 262
-148 397 -13 53 -14 75 -6 82 6 5 162 7 371 4 698 -11 1128 -4 1164 17 9 5 30
6 46 3 17 -4 59 -7 95 -7z m-1735 -164 c9 -26 21 -60 25 -77 18 -62 49 -142
78 -204 l31 -63 -42 6 c-91 15 -377 137 -377 162 0 8 4 14 8 14 5 0 49 39 98
86 116 112 144 135 154 129 4 -3 16 -26 25 -53z"/>
<path d="M3185 4374 c-16 -2 -66 -8 -110 -14 -44 -6 -244 -13 -445 -15 -447
-5 -623 -10 -636 -18 -14 -8 -312 -10 -414 -2 -47 3 -119 12 -160 20 -41 7
-107 17 -145 20 -84 8 -92 3 -96 -69 -4 -57 11 -70 39 -35 18 21 21 21 98 10
43 -6 117 -13 164 -16 47 -3 114 -8 150 -12 94 -8 288 -8 335 1 22 4 75 9 117
10 43 1 81 5 84 9 4 3 14 2 23 -2 9 -5 78 -5 156 0 77 4 174 8 215 9 263 1
527 9 609 19 60 8 105 8 141 1 29 -5 68 -10 88 -10 33 0 34 -1 28 -31 -3 -19
0 -42 9 -59 12 -23 15 -67 15 -187 0 -87 -2 -177 -5 -200 -2 -23 0 -45 5 -48
6 -3 10 -37 10 -76 0 -38 7 -115 15 -170 12 -77 13 -110 4 -141 -7 -27 -8 -89
-3 -182 12 -254 17 -522 15 -806 -2 -195 6 -418 17 -434 5 -9 10 -121 14 -326
0 -19 -3 -123 -8 -230 -10 -209 -10 -226 -1 -425 3 -86 1 -149 -7 -185 -12
-54 -13 -55 -56 -64 -37 -8 -45 -7 -56 9 -8 10 -14 37 -14 59 0 23 -4 79 -10
126 -5 47 -11 123 -14 169 -2 52 -9 88 -17 97 -12 11 -47 9 -217 -11 -112 -14
-208 -27 -213 -30 -13 -9 -67 -13 -259 -20 -96 -3 -204 -8 -240 -11 -36 -3
-76 -6 -90 -6 -14 1 -146 2 -295 4 -148 2 -282 1 -297 -3 -16 -4 -30 -3 -34 2
-4 7 -74 8 -192 4 -103 -4 -229 -8 -280 -9 -54 -2 -97 -7 -104 -14 -14 -14
-13 -171 1 -185 8 -8 5 -196 -4 -223 -4 -14 -36 -16 -132 -8 l-72 6 0 326 c0
180 -5 381 -11 447 -16 182 -21 240 -26 360 -3 61 -7 135 -9 165 -2 30 -3 210
-2 400 1 190 2 388 2 440 -1 129 -14 420 -20 429 -2 5 -7 71 -11 147 -7 182
-31 474 -39 497 -8 20 -28 22 -44 4 -11 -13 -6 -333 5 -404 3 -15 5 -37 5 -48
0 -11 5 -64 10 -117 16 -157 21 -275 25 -578 1 -157 2 -294 2 -305 0 -11 1
-126 2 -255 2 -129 3 -251 3 -270 0 -19 4 -78 10 -130 5 -52 9 -104 8 -115 -3
-26 -3 -31 4 -85 13 -103 27 -477 29 -765 0 -143 5 -266 10 -273 6 -11 13 -9
30 7 33 31 86 37 296 34 107 -1 254 2 325 8 115 9 277 13 960 24 163 2 379 10
510 18 28 2 105 -1 173 -6 78 -6 127 -6 133 0 5 5 28 7 52 3 24 -3 61 0 87 8
25 7 54 11 64 8 31 -8 52 10 64 56 19 72 34 306 24 378 -5 36 -7 81 -5 100 7
56 6 747 -1 758 -10 17 -16 193 -23 687 -7 472 -8 737 -4 790 1 17 -5 100 -13
185 -9 85 -18 257 -20 381 -5 255 -10 295 -36 302 -10 3 -20 15 -22 28 -2 14
-9 23 -17 21 -7 -1 -18 4 -25 11 -14 18 -169 39 -231 31z m102 -3353 c4 -36 7
-114 6 -173 -1 -83 2 -108 13 -112 7 -3 11 -12 8 -19 -4 -12 -33 -13 -157 -10
-171 5 -155 5 -337 -2 -236 -9 -565 -16 -905 -20 -182 -2 -357 -8 -390 -14
-33 -6 -122 -10 -197 -10 -135 0 -138 1 -139 22 0 12 -2 45 -4 72 -10 130 -12
256 -5 260 8 5 192 6 580 3 124 0 284 0 355 1 72 1 168 -1 214 -4 54 -4 100
-2 128 6 32 9 46 9 57 0 10 -8 43 -9 127 -1 124 11 305 35 384 51 66 13 193
25 227 20 25 -3 27 -7 35 -70z"/>
<path d="M3059 4166 c-9 -9 -345 -22 -424 -17 -86 6 -462 -8 -525 -19 -33 -5
-87 -15 -120 -20 -35 -6 -115 -8 -192 -4 -73 4 -217 6 -321 6 -155 -1 -192 -5
-212 -18 -28 -18 -29 -22 -15 -44 9 -14 79 -16 295 -8 11 0 80 -5 153 -11 114
-11 151 -10 260 4 262 34 382 43 577 43 110 -1 306 3 435 7 271 8 263 10 262
-79 0 -35 6 -62 18 -81 14 -21 16 -33 9 -47 -10 -19 2 -179 21 -288 5 -30 13
-83 16 -118 4 -34 11 -65 15 -68 12 -7 11 -61 -2 -85 -9 -17 -17 -19 -47 -15
-89 13 -452 17 -488 6 -20 -7 -39 -8 -43 -4 -3 5 -179 9 -391 10 -253 1 -419
6 -485 14 -85 11 -518 19 -550 9 -17 -5 -225 13 -229 20 -2 3 -7 67 -11 141
-15 298 -20 346 -41 374 -11 16 -16 17 -29 6 -17 -14 -19 -49 -5 -100 9 -35
22 -337 20 -463 -2 -78 6 -85 67 -63 35 12 98 14 365 10 178 -3 348 -7 378
-10 30 -3 84 -7 120 -8 36 -2 75 -6 88 -10 13 -4 29 -3 36 3 9 7 37 8 87 3 41
-5 209 -7 374 -5 568 6 710 7 774 2 62 -4 64 -3 71 21 10 37 -6 227 -24 291
-9 31 -19 103 -21 160 -3 57 -9 138 -13 179 -4 41 -7 109 -6 150 2 113 -3 117
-126 119 -56 0 -105 3 -109 6 -5 2 -10 3 -12 1z"/>
<path d="M3175 3110 c-11 -5 -34 -9 -52 -9 -17 -1 -35 -5 -38 -11 -3 -5 -25
-10 -47 -10 -38 0 -196 -17 -244 -26 -12 -2 -29 -15 -38 -29 -14 -22 -15 -28
-2 -47 16 -26 46 -194 46 -260 0 -24 7 -54 16 -66 14 -20 14 -25 1 -40 -12
-14 -13 -45 -7 -187 5 -93 11 -183 15 -198 9 -36 36 -46 134 -52 42 -3 114 -8
161 -11 200 -14 241 -14 246 0 3 8 -2 38 -10 67 -17 61 -18 71 -11 409 4 249
-2 334 -31 428 l-16 52 -51 -1 c-29 0 -61 -4 -72 -9z m85 -117 c17 -57 22
-528 7 -580 -7 -21 -6 -49 0 -82 15 -76 2 -95 -72 -102 -33 -3 -66 -1 -72 4
-7 5 -60 12 -117 16 -58 3 -110 11 -116 17 -7 7 -13 81 -15 200 -5 223 -11
291 -32 401 -8 45 -13 89 -10 97 4 11 20 16 49 17 24 0 66 4 93 10 28 5 86 14
130 20 44 6 84 15 90 20 5 5 18 9 30 9 16 0 24 -10 35 -47z"/>
<path d="M1258 3069 c-26 -4 -53 -11 -60 -15 -7 -5 -41 -9 -76 -10 -34 -1 -65
-4 -68 -7 -11 -11 -24 -88 -17 -100 3 -6 8 -40 10 -76 1 -36 8 -111 15 -166 7
-55 12 -142 10 -194 -1 -51 1 -98 6 -105 5 -6 5 -54 2 -106 -4 -52 -4 -115 -2
-138 5 -47 27 -66 46 -40 9 11 44 15 177 17 91 1 192 6 225 11 32 5 102 14
154 20 52 6 100 16 106 23 8 8 9 38 2 102 -5 50 -10 144 -12 210 -9 304 -18
522 -22 544 -5 23 -7 24 -74 18 -41 -3 -109 0 -167 9 -99 15 -170 16 -255 3z
m256 -80 c16 -5 45 -6 63 -3 23 4 47 1 74 -11 34 -16 39 -22 40 -54 5 -129 9
-196 17 -266 5 -44 10 -141 11 -215 0 -74 3 -147 6 -161 5 -22 1 -28 -22 -37
-64 -25 -223 -42 -443 -47 -47 -1 -92 -4 -100 -6 -13 -3 -16 26 -22 201 -3
113 -10 230 -14 260 -19 137 -23 172 -25 238 -1 34 2 67 7 72 5 5 43 15 84 21
41 6 93 15 115 19 47 9 167 2 209 -11z"/>
<path d="M2478 3067 c-11 -4 -127 -10 -257 -12 -272 -6 -301 -9 -318 -32 -16
-21 -16 -64 -2 -118 14 -50 19 -357 8 -445 -5 -41 -4 -78 3 -101 8 -27 7 -46
-2 -73 -10 -31 -9 -42 5 -72 15 -33 20 -35 48 -30 159 30 381 33 551 9 71 -10
102 -11 111 -3 10 8 12 44 9 153 -2 78 -5 194 -6 257 -1 63 -5 120 -8 125 -4
6 -10 53 -13 105 -4 52 -16 127 -27 165 -10 39 -20 73 -20 77 0 9 -53 6 -82
-5z m40 -119 c29 -115 34 -152 39 -273 3 -71 8 -137 12 -145 4 -8 6 -71 5
-140 l-1 -125 -74 2 c-270 7 -448 2 -501 -13 -16 -5 -18 5 -20 108 0 62 -1
120 0 128 1 8 -3 98 -9 200 -17 290 -19 262 16 272 39 12 194 22 376 26 l146
2 11 -42z"/>
<path d="M3090 2013 c-56 -9 -148 -48 -187 -79 -23 -19 -55 -59 -72 -90 -27
-50 -29 -62 -26 -128 2 -40 16 -109 30 -153 20 -65 33 -88 65 -117 22 -20 41
-36 43 -37 1 0 69 -2 150 -5 141 -4 151 -3 201 19 45 21 57 32 79 78 22 44 27
67 27 131 0 88 -23 204 -51 259 -21 41 -80 92 -133 114 -34 14 -72 17 -126 8z
m161 -123 c16 -19 29 -42 29 -51 0 -9 6 -22 14 -28 7 -6 18 -54 26 -116 10
-84 10 -110 0 -135 -16 -38 -81 -78 -141 -85 -50 -7 -197 13 -218 29 -33 26
-60 87 -72 164 -20 131 5 177 122 230 69 31 70 32 143 29 64 -3 70 -5 97 -37z"/>
<path d="M1430 1990 c-14 -5 -46 -8 -71 -9 -35 -1 -57 -9 -93 -35 -26 -18 -54
-43 -63 -55 -23 -34 -62 -167 -52 -183 5 -7 8 -44 7 -82 -2 -48 1 -71 10 -74
6 -2 12 -16 12 -31 0 -15 7 -36 15 -47 8 -10 15 -24 15 -31 0 -22 94 -103 132
-115 27 -8 40 -18 44 -34 10 -37 31 -48 98 -47 46 0 74 7 111 26 64 34 70 39
133 118 61 78 71 120 53 223 -17 94 -92 228 -175 309 -57 56 -126 82 -176 67z
m96 -86 c19 -4 41 -22 64 -52 56 -75 80 -112 80 -123 0 -6 9 -22 20 -36 11
-14 20 -36 20 -49 0 -12 5 -26 10 -29 16 -10 12 -70 -9 -117 -24 -54 -110
-136 -179 -171 -30 -15 -56 -27 -59 -27 -3 0 -2 18 2 40 l7 40 -44 0 c-55 0
-109 33 -160 99 -28 36 -40 64 -51 122 -16 79 -11 177 11 216 37 67 179 110
288 87z"/>
<path d="M2215 1994 c-11 -3 -29 -9 -40 -14 -11 -5 -37 -14 -58 -20 -20 -6
-60 -30 -88 -52 -70 -55 -97 -117 -99 -229 -1 -101 4 -147 19 -162 6 -6 11
-22 11 -35 0 -26 36 -92 50 -92 5 0 26 -11 46 -25 20 -14 51 -25 68 -25 18 0
36 -4 42 -10 5 -5 50 -13 100 -16 78 -6 96 -4 134 14 78 35 152 103 183 166
35 72 41 107 32 191 -6 55 -14 77 -49 128 -52 76 -143 151 -199 165 -57 14
-128 21 -152 16z m205 -123 c74 -55 119 -132 127 -216 7 -74 -11 -115 -85
-191 -86 -88 -200 -109 -307 -54 -32 16 -61 28 -65 25 -12 -7 -51 26 -62 54
-20 49 -34 136 -32 188 7 122 97 209 234 223 93 10 149 1 190 -29z"/>
<path d="M5727 4612 c-9 -10 -17 -28 -17 -40 0 -13 -9 -23 -22 -28 -13 -4 -61
-32 -108 -63 -158 -104 -242 -145 -278 -136 -17 4 -29 0 -43 -16 -21 -24 -24
-39 -10 -39 5 0 9 -15 9 -32 0 -59 12 -219 17 -228 5 -8 9 -48 19 -183 3 -31
7 -61 10 -65 3 -5 8 -82 11 -173 7 -193 7 -176 -1 -217 -4 -20 -2 -38 6 -47 9
-11 10 -18 1 -29 -13 -16 -14 -132 -1 -256 10 -93 11 -178 7 -430 -2 -91 1
-175 6 -186 6 -15 4 -29 -7 -47 -15 -22 -15 -25 -2 -30 13 -5 13 -11 2 -39
-13 -35 -15 -191 -2 -239 5 -17 3 -30 -4 -34 -7 -4 -11 -46 -10 -118 0 -62 -3
-160 -9 -218 -5 -58 -7 -128 -5 -155 4 -55 14 -434 14 -504 -1 -25 -5 -72 -10
-105 -5 -33 -9 -148 -8 -255 0 -107 -3 -216 -7 -241 l-7 -46 39 -15 c38 -15
161 -16 358 -3 44 3 117 7 162 9 44 2 87 7 93 11 7 4 60 9 119 11 110 4 264
10 511 21 80 3 219 5 310 4 91 -1 216 -2 278 -2 62 0 125 -5 140 -11 19 -8
174 -12 514 -12 l488 -1 2 135 c0 74 2 178 2 230 1 52 -2 203 -6 335 -4 132
-7 395 -7 585 0 190 0 356 0 370 0 14 4 41 9 60 5 19 10 85 11 145 1 61 5 128
10 150 5 22 11 87 14 145 4 58 8 123 9 145 2 22 8 56 13 75 18 58 36 169 29
185 -3 9 -1 49 5 89 6 45 6 97 1 132 -4 33 -6 104 -3 159 4 59 1 141 -7 200
-27 215 -43 458 -45 702 -2 186 -4 204 -22 229 -16 21 -31 28 -65 31 -25 2
-51 6 -58 8 -8 3 -42 0 -75 -6 -50 -9 -77 -9 -137 3 -51 11 -145 16 -295 17
-121 1 -283 4 -360 6 -77 3 -226 0 -331 -6 -171 -11 -203 -10 -305 6 -129 20
-165 23 -374 30 -82 3 -179 9 -215 15 -101 15 -241 21 -282 11 -27 -6 -40 -5
-50 6 -12 12 -17 11 -31 -5z m253 -101 c63 0 138 -4 165 -9 28 -5 68 -9 90 -7
22 1 44 0 48 -3 5 -2 43 -6 85 -7 43 -2 127 -8 187 -15 211 -24 387 -28 565
-14 125 9 320 8 345 -3 11 -4 125 -7 253 -6 127 1 232 -2 232 -7 0 -4 21 -8
46 -8 25 0 68 -3 94 -7 36 -5 58 -2 80 9 49 24 70 5 71 -64 0 -30 2 -80 3
-110 2 -30 6 -141 8 -246 3 -105 8 -196 12 -202 4 -7 11 -53 16 -104 5 -51 12
-106 15 -123 3 -16 6 -151 6 -300 0 -248 -8 -368 -31 -500 -13 -72 -35 -267
-33 -285 1 -8 -7 -123 -18 -255 -24 -292 -26 -754 -5 -1454 5 -174 5 -266 -2
-270 -6 -3 -158 -4 -339 -2 -180 2 -357 3 -392 2 -36 0 -130 5 -210 13 -81 8
-233 15 -340 16 -106 0 -196 1 -200 2 -3 1 -40 -2 -81 -5 -41 -4 -156 -9 -255
-12 -204 -5 -447 -21 -538 -34 -34 -5 -84 -9 -112 -10 -27 -1 -79 -6 -115 -11
-74 -11 -204 -13 -238 -4 l-23 7 8 361 c8 387 8 464 4 736 -2 96 0 238 3 315
18 465 24 1006 12 1185 -3 47 -8 208 -11 357 -5 276 -8 336 -25 453 -5 36 -12
122 -16 193 -5 116 -4 127 11 127 9 0 30 -11 47 -25 16 -14 35 -25 42 -25 8 0
25 -9 40 -21 14 -11 54 -27 88 -36 35 -8 86 -26 115 -40 32 -16 60 -23 74 -20
12 3 32 1 43 -5 34 -18 96 -27 103 -14 10 15 3 76 -12 106 -47 95 -116 364
-100 390 3 5 20 4 37 -1 18 -5 84 -9 148 -8z m-253 -92 c5 -45 49 -186 63
-204 10 -12 24 -95 16 -95 -3 0 -25 6 -48 14 -24 7 -70 21 -103 30 -122 35
-229 94 -218 121 3 8 8 15 12 15 3 0 22 15 42 33 34 31 60 46 142 83 21 9 46
27 55 40 21 28 32 18 39 -37z"/>
<path d="M6000 4350 c-7 -4 -10 -18 -8 -31 3 -27 9 -28 208 -50 112 -12 375
-14 605 -5 342 14 424 13 587 -10 54 -8 147 -14 207 -14 61 0 112 -4 115 -9 3
-5 15 -7 26 -4 11 3 30 -1 43 -10 17 -11 34 -13 72 -6 67 11 173 11 179 1 3
-5 7 -57 10 -116 2 -59 7 -110 10 -113 3 -4 4 -20 1 -37 -3 -17 -2 -69 3 -116
6 -53 6 -90 0 -97 -9 -11 -5 -203 6 -303 7 -67 21 -516 19 -615 -1 -55 -4
-149 -7 -210 -12 -258 -18 -455 -21 -675 -2 -129 -9 -275 -15 -325 -6 -49 -13
-129 -15 -178 -2 -48 -8 -95 -13 -105 -14 -26 -26 -147 -25 -247 1 -83 17
-244 27 -272 9 -22 -30 -41 -99 -49 -38 -4 -74 -6 -80 -4 -5 2 -48 4 -95 6
-192 8 -313 15 -465 30 -88 8 -270 16 -405 18 -135 2 -255 5 -266 5 -19 1 -22
8 -26 67 -3 46 -9 70 -21 78 -25 19 -283 40 -332 28 -22 -5 -56 -9 -75 -7 -19
2 -70 -3 -115 -11 -44 -8 -106 -14 -137 -14 l-56 0 -7 -67 c-3 -38 -8 -82 -11
-99 l-4 -31 -127 -6 c-70 -3 -128 -5 -129 -4 -2 2 -17 411 -17 447 0 8 3 47 8
85 4 39 9 167 11 285 2 118 9 256 16 305 6 50 12 128 13 175 3 135 16 393 21
401 7 11 7 370 0 409 -3 19 -8 165 -11 324 -3 159 -7 292 -9 295 -2 3 -9 58
-15 121 -6 63 -16 138 -21 165 -8 44 -18 146 -19 199 -1 11 -6 16 -15 13 -8
-3 -16 2 -19 14 -3 10 -10 19 -17 19 -14 0 -8 -147 9 -225 7 -27 14 -79 16
-115 2 -36 9 -114 15 -175 5 -60 12 -173 14 -250 2 -77 7 -148 11 -158 4 -10
2 -29 -5 -43 -11 -19 -11 -29 -2 -46 9 -16 9 -33 3 -56 -12 -39 -4 -90 15
-113 8 -9 11 -19 7 -23 -5 -4 -8 -42 -9 -84 0 -43 -6 -133 -13 -202 -7 -69
-12 -147 -10 -175 3 -65 3 -75 -4 -170 -4 -44 -8 -142 -11 -217 -2 -76 -8
-143 -13 -150 -4 -7 -9 -101 -9 -208 -1 -107 -5 -256 -9 -330 -4 -74 -7 -144
-6 -155 0 -11 4 -54 7 -95 7 -85 7 -103 4 -145 -1 -16 -1 -74 -1 -128 2 -80 5
-99 18 -104 10 -4 23 2 34 15 9 12 26 21 36 20 10 -1 56 1 102 6 77 8 193 16
231 16 8 0 84 0 168 0 84 0 161 4 170 9 27 14 174 23 455 27 352 5 396 5 437
-5 19 -5 73 -9 120 -10 46 -1 100 -6 120 -11 19 -5 106 -11 194 -15 87 -3 161
-6 165 -7 3 0 74 0 158 1 l151 1 12 34 c11 36 8 122 -12 275 -7 60 -7 103 0
150 20 121 33 235 38 346 3 61 10 117 14 126 5 9 9 114 9 235 0 247 7 534 18
734 13 220 5 632 -13 770 -3 19 -7 154 -10 300 -9 476 -17 618 -36 636 -17 18
-48 21 -110 12 -21 -3 -40 -3 -43 0 -3 4 -31 7 -63 8 -96 3 -345 15 -382 19
-19 2 -102 11 -185 20 -141 15 -225 14 -380 -1 -171 -18 -777 -23 -796 -7 -16
13 -103 23 -119 13z m450 -3453 l65 -2 3 -39 c4 -49 -4 -57 -64 -61 -27 -2
-98 -9 -159 -15 -186 -19 -360 -29 -392 -22 -20 3 -23 11 -23 46 0 22 4 46 8
53 5 8 70 18 176 27 92 8 171 18 174 21 4 4 39 4 77 1 39 -4 99 -8 135 -9z"/>
<path d="M6030 4153 c-9 -2 -21 -13 -29 -25 -18 -29 7 -53 57 -54 20 -1 66 -4
102 -8 69 -7 199 -8 445 -3 83 1 166 -1 185 -4 69 -14 535 -27 1022 -29 l37
-1 0 -127 c0 -70 2 -136 3 -147 3 -22 34 -20 -317 -23 -82 0 -267 -2 -410 -3
-354 -4 -353 -4 -415 4 -100 12 -135 19 -178 33 -50 17 -282 20 -282 4 0 -5
-4 -10 -10 -10 -5 0 -10 6 -10 14 0 11 -13 15 -47 15 -125 1 -439 12 -449 16
-7 2 -15 27 -19 55 -7 51 -28 84 -49 77 -7 -2 -11 -38 -12 -100 -1 -86 1 -98
20 -116 19 -18 27 -19 56 -11 53 15 350 10 500 -8 41 -5 108 -9 148 -8 40 1
76 -2 79 -7 2 -4 11 -3 18 3 10 9 20 7 38 -4 13 -9 26 -14 29 -11 2 3 27 0 54
-5 68 -15 359 -23 419 -11 27 5 54 6 60 1 5 -4 165 -6 355 -3 190 3 371 4 402
4 45 -1 59 3 67 17 14 27 25 386 12 410 -10 19 -20 20 -348 20 -186 0 -423 5
-528 12 -104 6 -210 11 -235 11 -25 -1 -90 4 -145 10 -84 10 -109 10 -160 -3
-48 -12 -88 -14 -200 -7 -77 4 -156 11 -175 14 -61 11 -75 12 -90 8z"/>
<path d="M7537 3544 c-1 -1 -56 -7 -123 -13 -66 -7 -150 -21 -185 -31 -43 -14
-95 -20 -159 -20 -52 -1 -115 -5 -140 -10 -25 -6 -88 -12 -140 -15 -52 -3
-107 -8 -121 -11 -34 -7 -63 -38 -56 -58 5 -13 25 -15 126 -11 65 3 131 9 147
15 15 6 51 10 78 9 28 -1 59 1 69 6 11 4 17 3 17 -5 0 -8 8 -10 23 -5 12 3 40
8 62 11 50 5 76 9 95 16 16 6 208 39 225 39 56 0 198 -12 228 -19 22 -6 51 -7
68 -2 16 5 45 6 64 3 27 -4 36 -2 41 11 11 28 -19 48 -93 63 -59 12 -221 31
-226 27z"/>
<path d="M6205 3499 c-16 -5 -88 -8 -160 -8 -217 3 -249 1 -263 -19 -8 -10
-11 -28 -7 -42 16 -63 16 -80 3 -121 -16 -50 -17 -241 -1 -261 5 -7 10 -51 11
-97 1 -46 4 -86 6 -89 3 -3 41 -7 83 -9 43 -1 112 -7 153 -13 80 -10 319 -23
435 -24 66 -1 70 0 73 22 2 13 -2 37 -9 53 -6 16 -13 53 -14 82 -1 29 -8 128
-15 221 -6 93 -9 182 -6 198 3 16 3 49 -1 73 l-6 45 -126 -1 c-69 0 -139 -5
-156 -10z m230 -125 c1 -38 4 -85 8 -106 4 -20 3 -55 -2 -79 -7 -30 -7 -47 1
-57 11 -13 21 -97 22 -197 l1 -50 -45 1 c-25 1 -115 3 -200 4 -86 1 -179 9
-210 16 -30 7 -78 15 -107 16 l-51 3 -7 90 c-8 112 -9 163 -4 293 4 89 7 106
24 118 12 9 30 12 45 9 64 -17 141 -26 205 -25 64 0 221 22 230 32 3 2 24 3
47 2 l43 -2 0 -68z"/>
<path d="M7345 3236 c-49 -7 -97 -14 -105 -18 -67 -25 -144 -38 -248 -43 -35
-2 -66 -6 -70 -9 -3 -4 -16 3 -28 15 -28 27 -163 47 -201 30 -13 -6 -32 -11
-42 -11 -21 0 -36 -29 -23 -42 4 -4 30 -1 58 7 66 20 122 19 191 -4 83 -28
199 -35 270 -17 92 23 221 37 303 34 l75 -3 3 29 c6 49 -16 53 -183 32z"/>
<path d="M6710 2981 c-29 -5 -36 -11 -38 -35 l-4 -29 49 7 c26 4 62 12 79 18
22 8 51 8 105 -1 41 -7 121 -13 179 -15 58 -2 117 -8 131 -14 15 -6 29 -9 31
-7 3 4 28 7 151 20 55 6 66 16 49 41 -11 17 -69 22 -167 14 -49 -4 -92 -4 -95
-1 -6 9 -423 10 -470 2z"/>
<path d="M6674 2536 c-37 -16 -48 -40 -32 -66 11 -16 26 -18 145 -19 73 0 138
-3 143 -6 14 -9 166 -9 365 -2 272 10 444 10 458 -1 20 -15 100 -31 132 -25
60 11 69 63 10 63 -18 0 -52 7 -76 16 -35 13 -93 18 -269 21 -274 4 -269 5
-302 -5 -38 -10 -292 3 -418 22 -126 19 -118 18 -156 2z"/>
<path d="M6405 2522 c-11 -2 -25 -8 -30 -12 -6 -5 -118 -9 -250 -10 -341 -1
-332 1 -326 -68 8 -85 2 -312 -9 -375 -10 -56 -16 -68 -35 -73 -12 -3 -28 -17
-36 -30 -21 -39 -2 -48 76 -37 101 15 323 6 480 -18 209 -32 275 -18 254 54
-5 17 -6 47 -4 66 3 20 7 99 10 176 3 77 8 174 11 215 4 55 2 79 -8 92 -13 16
-94 29 -133 20z m79 -75 c20 -15 20 -12 -5 -155 -10 -57 -10 -78 -1 -92 6 -11
9 -25 7 -32 -3 -8 -6 -56 -8 -107 l-2 -94 -53 -13 c-30 -8 -57 -12 -61 -9 -22
13 -176 37 -248 38 -46 1 -83 6 -83 10 0 4 -45 5 -100 1 -55 -4 -100 -3 -100
1 0 5 7 47 16 94 12 64 15 115 10 203 -6 129 -5 132 54 135 54 3 171 6 210 4
102 -3 278 7 295 17 27 15 47 15 69 -1z"/>
<path d="M6710 2302 c-40 -6 -45 -10 -45 -32 0 -19 5 -24 20 -22 11 1 76 3
145 4 102 1 131 -2 159 -17 42 -21 145 -32 164 -17 7 6 33 14 57 17 25 4 54
11 65 15 11 5 31 10 44 12 14 2 26 9 29 15 5 17 -98 15 -158 -3 -56 -17 -164
-18 -193 -2 -40 22 -215 40 -287 30z"/>
<path d="M6718 2063 c-19 -3 -28 -10 -28 -23 0 -17 9 -18 103 -17 56 1 140 -1
187 -6 157 -14 308 -18 314 -8 9 14 -14 25 -59 28 -22 1 -85 7 -140 13 -107
12 -332 20 -377 13z"/>
<path d="M5878 1657 c-52 -11 -74 -43 -63 -89 10 -39 -23 -308 -42 -342 -15
-27 -15 -30 2 -43 11 -7 37 -13 59 -13 23 0 57 -5 76 -11 19 -6 62 -12 95 -14
123 -6 342 -25 415 -36 135 -20 177 -22 182 -7 3 7 1 38 -4 68 -6 30 -12 82
-13 115 -6 135 -18 272 -31 349 l-6 38 -97 -7 c-53 -4 -113 -10 -134 -15 -21
-4 -70 -4 -110 0 -126 14 -280 18 -329 7z m618 -57 c14 0 15 -11 15 -165 0
-38 4 -82 10 -97 7 -18 8 -32 1 -44 -7 -13 -6 -24 5 -40 8 -13 13 -35 11 -51
-4 -33 -32 -41 -88 -25 -19 6 -93 14 -165 17 -71 4 -154 11 -184 16 -30 5 -73
9 -95 9 -22 0 -67 6 -99 12 l-60 13 8 125 c5 69 9 142 11 163 1 21 5 41 9 45
7 7 158 8 285 2 91 -4 279 10 286 22 3 5 13 7 21 4 8 -3 21 -6 29 -6z"/>
<path d="M7360 1620 c-69 -4 -172 -11 -230 -15 -109 -8 -280 -7 -315 1 -27 6
-126 -27 -138 -47 -6 -9 -7 -24 -3 -34 5 -15 13 -16 49 -10 23 4 170 9 327 11
331 4 401 7 420 19 7 5 77 7 154 6 181 -3 210 -5 216 -12 3 -4 16 -9 30 -10
19 -3 26 1 28 16 3 23 -57 68 -98 73 -56 8 -323 9 -440 2z"/>
<path d="M6770 1342 c-33 -5 -50 -20 -50 -44 0 -26 20 -31 61 -14 19 8 53 13
75 11 21 -1 54 3 71 10 24 10 41 11 65 4 34 -10 102 -18 176 -20 48 -2 77 17
67 43 -5 14 -35 16 -223 14 -119 0 -228 -3 -242 -4z"/>
<path d="M7045 957 c-170 -11 -193 -11 -255 -3 -60 7 -74 2 -84 -31 -5 -17 -1
-26 17 -38 20 -13 51 -15 193 -11 93 3 171 5 174 6 3 1 113 2 244 2 227 -1
244 -2 346 -28 113 -29 140 -28 140 6 0 39 -19 60 -53 60 -18 0 -57 10 -87 21
-50 20 -76 22 -285 23 -126 0 -284 -2 -350 -7z"/>
<path d="M4596 2801 c-9 -14 4 -163 16 -185 14 -25 10 -88 -5 -98 -7 -4 -61
-5 -122 -3 -341 15 -382 15 -399 -4 -14 -16 -15 -20 -2 -30 19 -16 55 -20 226
-26 205 -7 303 -15 315 -26 5 -6 10 -64 10 -132 l0 -122 36 -3 c33 -3 41 2 74
42 21 26 43 46 51 46 7 0 42 29 77 64 36 35 81 76 101 91 44 33 45 48 6 87
-17 16 -44 49 -60 73 -31 45 -66 77 -121 110 -18 11 -41 25 -52 31 -10 6 -30
23 -45 37 -15 13 -37 28 -49 32 -13 3 -23 11 -23 16 0 12 -27 12 -34 0z"/>
<path d="M9163 2793 c-10 -3 -13 -40 -13 -134 0 -74 -5 -139 -11 -150 -10 -20
-17 -20 -232 -14 -122 3 -232 8 -243 11 -48 12 -41 -40 9 -72 30 -19 50 -21
223 -23 104 -1 203 -5 219 -10 l30 -8 -3 -89 c-4 -98 10 -174 33 -174 14 0
112 77 185 146 19 18 69 50 110 72 74 39 75 40 72 76 -4 42 -27 72 -162 206
-126 126 -189 174 -217 163z"/>
</g>
</svg>
