<?xml version="1.0" standalone="no"?>
<!DOCTYPE svg PUBLIC "-//W3C//DTD SVG 20010904//EN"
 "http://www.w3.org/TR/2001/REC-SVG-20010904/DTD/svg10.dtd">
<svg version="1.0" xmlns="http://www.w3.org/2000/svg"
 width="506.603695pt" height="400.000000pt" viewBox="0 0 506.603695 400.000000"
 preserveAspectRatio="xMidYMid meet">
<metadata>
Created by potrace 1.15, written by Peter Selinger 2001-2017
</metadata>
<g transform="translate(-47.018042,417.414174) scale(0.040176,-0.040176)"
fill="#444444" stroke="none">
<path d="M7638 10379 c-10 -5 -18 -16 -18 -24 0 -7 -6 -20 -12 -27 -16 -17
-30 -39 -64 -103 -14 -27 -37 -64 -50 -82 -13 -17 -24 -36 -24 -41 0 -5 -7
-15 -16 -23 -8 -7 -27 -33 -40 -58 -13 -25 -36 -64 -49 -86 -27 -43 -45 -81
-45 -95 0 -5 -6 -13 -13 -17 -17 -10 -77 -98 -77 -112 0 -6 -4 -11 -10 -11 -5
0 -13 -12 -16 -27 -4 -16 -10 -30 -13 -33 -12 -9 -61 -90 -61 -99 0 -5 -7 -11
-15 -14 -8 -4 -21 -21 -29 -39 -9 -18 -20 -40 -25 -48 -5 -8 -27 -46 -49 -85
-23 -38 -51 -81 -64 -95 -13 -14 -54 -70 -91 -125 -37 -55 -97 -136 -132 -180
-61 -75 -107 -137 -130 -174 -6 -9 -32 -45 -58 -80 -26 -35 -47 -68 -47 -75 0
-6 -22 -43 -50 -81 -27 -38 -50 -73 -50 -77 0 -4 -15 -27 -32 -52 -37 -49 -59
-85 -105 -169 -18 -33 -38 -67 -46 -76 -8 -9 -23 -32 -32 -51 -10 -19 -29 -48
-42 -65 -32 -40 -105 -150 -132 -200 -43 -79 -76 -133 -93 -152 -10 -11 -18
-25 -18 -31 0 -7 -4 -12 -8 -12 -5 0 -15 -12 -23 -27 -8 -16 -16 -30 -19 -33
-20 -20 -115 -160 -126 -186 -7 -17 -24 -45 -38 -61 -14 -16 -32 -49 -42 -72
-9 -24 -28 -55 -42 -70 -13 -14 -38 -54 -54 -89 -16 -34 -38 -67 -49 -72 -10
-6 -19 -15 -19 -20 0 -6 -27 -43 -60 -84 -33 -41 -60 -78 -60 -83 0 -5 -12
-25 -26 -44 -14 -19 -48 -75 -75 -125 -27 -50 -58 -101 -69 -114 -11 -13 -20
-28 -20 -34 0 -6 -17 -33 -38 -61 -21 -27 -47 -71 -59 -97 -24 -50 -81 -141
-125 -199 -16 -20 -28 -39 -28 -42 0 -8 -60 -93 -115 -164 -70 -89 -75 -97
-75 -107 0 -5 -11 -24 -25 -42 -14 -18 -25 -35 -25 -38 0 -5 -30 -53 -70 -111
-19 -28 -91 -138 -115 -177 -5 -9 -46 -67 -90 -130 -44 -62 -82 -117 -84 -123
-2 -5 -30 -46 -62 -91 -32 -44 -79 -120 -105 -170 -26 -49 -57 -102 -68 -119
-12 -16 -39 -58 -60 -93 -22 -36 -53 -73 -74 -86 -34 -21 -38 -22 -64 -7 -26
15 -29 15 -48 -5 -20 -20 -21 -22 -5 -55 18 -38 8 -89 -18 -89 -15 0 -97 -83
-97 -98 0 -4 -25 -37 -55 -72 -30 -36 -55 -69 -55 -75 0 -5 -14 -26 -31 -45
-16 -19 -54 -71 -84 -115 -57 -84 -159 -193 -168 -178 -3 4 -8 33 -12 63 l-7
55 50 37 c27 21 52 38 56 38 16 0 87 52 102 75 69 105 42 474 -41 573 -14 17
-25 36 -25 44 0 18 -86 102 -125 121 -16 8 -54 15 -83 16 -45 1 -73 -8 -185
-61 -105 -48 -141 -71 -174 -107 -23 -25 -42 -50 -43 -54 0 -4 -18 -31 -39
-60 -22 -29 -55 -84 -73 -122 -29 -62 -32 -80 -32 -155 -1 -126 16 -171 83
-231 92 -83 101 -86 352 -120 l86 -12 12 -62 c14 -77 14 -142 1 -150 -6 -4 -5
-14 4 -28 19 -30 24 -62 31 -197 3 -63 11 -143 16 -178 6 -42 6 -69 -1 -82
-10 -19 -6 -232 4 -249 3 -4 -5 -27 -17 -52 -13 -24 -29 -64 -36 -89 -7 -25
-16 -47 -20 -50 -26 -18 -191 -342 -191 -373 0 -10 -7 -20 -16 -24 -18 -7 -85
58 -121 117 -12 20 -32 47 -43 60 -12 14 -38 46 -58 72 -20 27 -39 48 -44 48
-4 0 -14 15 -23 33 -14 30 -26 46 -90 121 -14 15 -25 31 -25 35 0 14 -89 63
-101 55 -15 -9 -10 -34 8 -41 28 -11 86 -75 142 -156 30 -42 56 -77 60 -77 3
0 17 -24 30 -52 14 -29 35 -64 47 -78 12 -14 49 -65 82 -115 68 -103 130 -165
167 -165 23 0 25 4 25 40 0 22 4 48 10 58 5 9 36 76 70 147 33 72 66 139 72
150 36 64 59 111 62 130 9 51 59 121 77 109 8 -4 31 -11 54 -15 42 -8 134 -33
250 -69 39 -12 81 -24 95 -27 14 -2 34 -9 46 -14 11 -6 24 -9 30 -8 5 2 38 -6
74 -18 80 -25 198 -51 265 -57 28 -3 75 -10 105 -15 30 -6 102 -18 160 -26 58
-9 169 -27 246 -42 149 -27 194 -26 194 6 0 31 -35 52 -106 62 -38 5 -83 14
-100 19 -28 10 -190 36 -369 60 -71 10 -228 40 -300 59 -22 5 -55 13 -74 16
-19 3 -42 10 -51 15 -10 5 -58 18 -108 29 -49 11 -102 27 -118 35 -42 22 -190
67 -243 75 l-46 6 -2 212 c0 116 -4 220 -7 231 -7 21 16 52 38 52 12 0 44 16
199 99 32 17 95 55 140 84 45 30 111 70 147 89 130 70 166 92 198 120 19 16
47 31 63 35 16 3 48 22 71 42 51 46 45 66 -16 57 -51 -7 -58 -3 -86 54 -12 25
-26 54 -32 64 -19 36 -96 232 -102 264 -6 24 -3 39 13 61 12 16 21 33 21 37 0
7 13 28 66 108 28 42 63 99 70 116 4 8 17 29 30 46 12 17 39 63 59 102 21 39
43 77 51 83 8 6 14 16 14 21 0 5 9 19 21 31 11 12 29 38 40 57 31 55 99 156
202 296 26 36 47 67 47 69 0 6 89 142 121 185 14 19 29 42 33 50 14 31 32 57
59 85 15 17 27 35 27 41 0 5 14 23 30 39 17 16 30 34 30 40 0 7 9 20 20 30 11
10 20 21 20 25 0 5 14 23 30 41 17 17 29 38 26 45 -3 7 5 21 17 31 12 10 38
50 57 88 19 39 39 73 44 76 9 7 43 61 80 130 13 25 32 51 40 58 9 8 16 20 16
27 0 8 18 40 40 71 22 32 40 64 40 71 0 6 4 12 10 12 5 0 18 20 29 45 11 25
24 45 30 45 5 0 12 13 16 29 3 16 15 37 26 47 10 9 19 22 19 28 1 16 32 51 58
65 12 6 22 17 22 24 0 14 44 78 97 141 18 22 33 46 33 53 0 7 15 32 33 56 17
23 43 65 57 92 14 28 28 53 33 56 18 13 56 73 51 81 -3 4 13 29 36 55 40 46
75 100 129 201 36 66 93 152 101 152 6 0 10 4 10 10 0 5 18 36 41 67 69 97
129 193 129 204 0 6 9 22 20 36 11 14 20 34 20 44 0 10 9 23 20 29 11 6 31 35
45 64 14 30 32 59 40 66 8 7 15 18 15 24 0 6 9 18 20 26 11 8 20 17 20 21 0
21 185 297 258 384 55 66 185 240 201 268 11 19 30 47 43 62 13 14 37 53 54
85 17 32 43 73 58 92 14 19 26 42 26 51 0 10 5 17 10 17 6 0 10 4 10 9 0 13
150 242 192 293 10 11 35 55 55 97 21 42 54 99 73 126 19 28 44 68 55 90 10
22 24 47 31 55 6 8 25 41 42 72 55 103 94 158 115 158 17 0 18 2 6 16 -7 9
-12 29 -11 45 3 25 0 29 -20 29 -13 0 -31 -5 -40 -11z m-4281 -5555 c29 -31
53 -64 53 -73 0 -9 7 -26 15 -37 8 -10 15 -32 15 -49 0 -16 6 -42 14 -56 7
-14 14 -50 15 -79 0 -29 3 -61 6 -71 7 -22 -21 -147 -38 -167 -34 -41 -91 -65
-160 -66 -71 -2 -92 -14 -81 -47 7 -23 -17 -27 -121 -18 -123 11 -168 25 -234
74 -48 35 -60 50 -71 89 -18 67 -1 191 34 241 129 183 147 197 331 279 51 22
96 35 125 36 41 0 48 -4 97 -56z m547 -381 c21 -61 125 -271 146 -298 9 -11
16 -28 16 -37 -1 -15 -98 -86 -150 -109 -12 -5 -34 -18 -51 -29 -16 -11 -37
-23 -45 -27 -8 -4 -33 -19 -55 -34 -22 -14 -51 -30 -64 -34 -14 -4 -55 -27
-93 -51 -79 -51 -223 -129 -255 -138 -19 -6 -22 -2 -28 38 -12 79 -1 104 85
196 76 80 113 126 204 259 21 31 52 76 70 101 32 45 186 210 197 210 4 0 14
-21 23 -47z"/>
<path d="M1585 6396 c3 -9 8 -24 12 -33 3 -10 7 -27 9 -38 1 -11 16 -58 33
-105 17 -47 31 -94 31 -106 0 -12 7 -27 15 -34 8 -7 15 -22 15 -35 0 -12 9
-30 19 -39 10 -10 22 -32 25 -51 8 -43 31 -87 56 -110 11 -10 17 -21 15 -25
-6 -9 31 -86 45 -95 5 -3 10 -13 10 -22 0 -8 14 -35 30 -60 17 -24 30 -48 30
-54 0 -14 44 -82 64 -98 9 -7 16 -17 16 -22 0 -22 54 -89 71 -89 21 0 26 -16
8 -22 -7 -2 8 -30 35 -65 25 -34 46 -64 46 -67 0 -3 32 -50 72 -103 81 -110
182 -214 231 -239 17 -9 45 -27 60 -40 34 -29 57 -30 85 -5 31 26 27 39 -16
51 -70 18 -155 85 -228 179 -27 35 -73 93 -102 129 -28 37 -75 101 -104 142
-28 41 -63 89 -78 106 -14 17 -43 59 -63 95 -21 35 -55 93 -77 128 -22 34 -40
66 -40 70 0 3 -9 17 -20 31 -11 14 -20 33 -20 43 0 10 -11 29 -25 43 -14 14
-25 30 -25 35 0 6 -20 49 -45 97 -25 47 -45 91 -45 98 0 7 -3 14 -7 16 -11 5
-53 96 -53 115 0 9 -6 24 -14 32 -8 9 -23 47 -34 86 -10 38 -24 71 -30 73 -7
2 -10 -3 -7 -12z"/>
<path d="M12070 5964 c-14 -36 -3 -125 31 -255 11 -43 33 -55 64 -35 17 11 21
21 17 48 -2 18 -8 38 -12 43 -4 6 -12 44 -19 85 -21 127 -57 178 -81 114z"/>
<path d="M1173 5935 c3 -11 11 -49 18 -85 6 -36 16 -73 21 -83 6 -12 6 -23 -2
-31 -8 -10 -2 -38 21 -107 18 -52 32 -101 32 -109 -1 -25 27 -118 53 -176 13
-30 24 -66 24 -79 0 -13 10 -41 21 -62 12 -21 27 -56 34 -78 7 -22 22 -62 33
-90 11 -27 41 -103 66 -167 25 -65 60 -147 76 -183 17 -36 30 -72 30 -80 0 -7
5 -17 10 -20 6 -3 10 -16 10 -28 1 -37 89 -177 163 -259 33 -37 77 -51 77 -25
0 15 -34 70 -85 139 -44 59 -64 97 -105 208 -26 69 -54 135 -116 267 -13 28
-24 57 -24 63 0 6 -11 35 -24 63 -65 142 -116 260 -116 270 0 6 -13 47 -29 91
-16 45 -43 128 -60 186 -18 58 -36 114 -40 125 -9 23 -50 176 -58 217 -3 15
-12 33 -21 40 -13 11 -14 10 -9 -7z"/>
<path d="M12836 5878 c-27 -42 -44 -92 -50 -151 -5 -49 -2 -61 14 -77 11 -11
26 -17 33 -14 29 11 57 104 60 199 2 55 0 60 -20 63 -14 2 -27 -5 -37 -20z"/>
<path d="M11157 5762 c-18 -19 -23 -42 -9 -42 4 0 36 -27 72 -61 55 -51 112
-89 135 -89 9 0 5 27 -8 51 -29 55 -131 159 -156 159 -10 0 -25 -8 -34 -18z"/>
<path d="M13491 5405 c-24 -19 -48 -35 -54 -35 -6 0 -26 -12 -46 -27 -20 -16
-45 -33 -55 -38 -11 -6 -28 -24 -39 -42 -34 -59 10 -94 71 -56 46 29 145 106
175 135 16 15 35 28 43 28 19 0 14 48 -7 61 -24 15 -43 10 -88 -26z"/>
<path d="M12586 5211 c-3 -5 -22 -12 -42 -16 -36 -6 -111 -50 -189 -110 -21
-16 -48 -34 -59 -40 -11 -5 -31 -31 -44 -57 -14 -27 -31 -48 -39 -48 -23 0
-53 20 -53 35 0 7 -8 16 -18 19 -10 3 -33 21 -52 38 -19 18 -53 42 -75 53 -21
11 -51 31 -65 44 -14 13 -49 35 -78 48 -46 22 -63 24 -125 20 -93 -7 -110 -11
-115 -28 -3 -8 -17 -27 -33 -44 -25 -27 -28 -39 -33 -119 -3 -49 -2 -94 2
-100 3 -6 7 -29 7 -51 1 -43 27 -153 52 -225 27 -79 27 -79 -66 -112 -46 -16
-95 -39 -109 -51 -13 -12 -35 -32 -48 -43 -12 -12 -27 -24 -31 -25 -35 -15
-104 -83 -135 -131 -45 -70 -49 -122 -18 -207 24 -67 41 -93 110 -173 34 -39
105 -57 258 -65 75 -4 122 -10 122 -17 0 -6 -6 -28 -14 -51 -8 -22 -21 -70
-30 -107 -19 -87 -83 -235 -108 -252 -17 -12 -19 -23 -14 -82 5 -81 13 -104
33 -104 8 0 29 -14 47 -31 49 -46 85 -61 158 -66 96 -8 130 2 203 57 35 28 69
50 75 50 5 0 10 7 10 15 0 8 5 15 11 15 15 0 101 73 182 152 l67 67 47 -42
c25 -23 70 -64 99 -90 41 -38 78 -59 166 -93 137 -55 188 -65 251 -53 47 8
102 44 121 77 10 17 10 263 0 296 -17 61 -61 158 -99 221 -45 74 -75 130 -75
140 0 3 6 5 14 5 7 0 19 6 25 14 6 7 32 19 56 26 25 7 45 16 45 21 0 5 6 6 13
4 13 -5 79 55 112 101 43 62 48 191 10 264 -21 39 -163 180 -193 191 -15 6
-59 11 -98 11 l-70 1 20 66 c16 55 20 95 20 246 1 173 0 182 -24 230 -17 34
-40 60 -74 83 -46 31 -99 42 -110 23z m89 -111 c30 -11 43 -69 48 -205 4 -107
-8 -188 -44 -306 l-11 -36 -81 4 -81 4 -68 72 c-38 40 -92 107 -120 150 l-51
78 18 32 c32 54 79 107 97 107 9 0 19 4 23 9 9 15 137 98 160 104 23 6 77 0
110 -13z m-838 -25 c58 -18 90 -35 123 -66 25 -22 75 -61 112 -86 79 -52 89
-72 56 -116 -29 -38 -98 -181 -98 -201 0 -20 -21 -26 -129 -31 -53 -3 -108 -8
-122 -11 -29 -6 -39 4 -59 56 -7 19 -19 49 -26 65 -37 89 -66 324 -44 365 12
22 61 49 92 50 9 0 52 -11 95 -25z m400 -341 c10 -14 32 -42 48 -63 17 -21 40
-51 53 -67 12 -15 22 -31 22 -35 0 -9 -133 2 -194 15 -42 10 -50 15 -48 31 2
11 12 29 23 41 10 11 19 23 19 27 0 12 42 77 51 77 4 0 16 -11 26 -26z m-42
-256 c6 -4 61 -9 123 -12 103 -5 116 -8 147 -33 18 -15 44 -49 57 -77 12 -28
26 -54 31 -57 13 -10 -3 -88 -45 -214 -47 -140 -73 -191 -102 -198 -11 -3 -38
-10 -59 -15 -30 -8 -39 -7 -44 4 -4 10 -23 14 -68 14 -69 0 -76 5 -117 78 -13
23 -38 62 -56 85 -127 164 -122 154 -107 195 7 20 28 66 45 102 18 35 34 73
36 84 7 39 31 53 92 52 31 -1 62 -4 67 -8z m-243 -25 c-2 -10 -19 -51 -38 -92
-34 -73 -35 -74 -53 -54 -10 11 -22 35 -26 54 -4 19 -16 51 -26 71 l-19 37 23
3 c12 2 49 2 82 1 52 -1 60 -4 57 -20z m952 7 c58 -22 134 -122 154 -200 17
-71 3 -114 -59 -171 -29 -26 -56 -46 -60 -43 -4 2 -37 -9 -72 -26 -35 -16 -66
-30 -69 -30 -6 0 -34 57 -98 203 -43 96 -43 97 -27 135 9 20 23 61 32 90 l17
52 78 0 c43 0 90 -4 104 -10z m-1194 -15 c7 -8 10 -15 7 -15 -4 0 9 -32 28
-72 19 -40 35 -78 35 -84 0 -6 13 -28 29 -47 l29 -37 -24 -65 c-13 -36 -24
-75 -24 -85 0 -11 -12 -44 -27 -74 l-27 -55 -95 4 c-117 5 -200 19 -239 39
-37 19 -80 76 -103 137 -23 60 -24 92 -4 109 9 7 14 17 13 22 -6 16 92 107
151 140 31 18 62 38 69 45 7 7 29 15 50 18 20 4 53 12 72 20 46 17 46 17 60 0z
m990 -505 c-8 -5 -32 -10 -53 -10 -21 0 -47 -4 -57 -10 -13 -7 -21 -5 -30 5
-11 13 -6 33 25 111 l39 95 45 -91 c39 -77 43 -92 31 -100z m-760 129 c0 -7
14 -29 90 -137 16 -23 30 -47 30 -52 0 -11 -162 -12 -200 -1 -21 6 -25 13 -22
41 1 19 6 38 11 44 4 6 11 25 15 41 4 17 15 46 24 67 16 33 18 35 35 21 9 -9
17 -20 17 -24z m822 -206 c9 -10 37 -58 63 -108 26 -49 54 -97 61 -105 26 -31
54 -148 58 -244 5 -93 4 -97 -20 -112 -55 -37 -189 -19 -275 36 -25 17 -49 30
-53 30 -13 0 -131 102 -175 152 l-44 49 22 43 c11 24 21 54 21 66 0 13 7 31
16 41 8 9 17 23 18 31 1 7 14 32 29 55 20 32 34 43 59 47 18 3 67 11 108 19
41 8 80 15 86 16 6 0 18 -7 26 -16z m-452 -65 c30 -5 55 -10 57 -11 4 -5 -30
-112 -39 -124 -17 -22 -24 -15 -52 52 -16 35 -34 69 -42 76 -20 16 -18 33 4
24 9 -4 42 -12 72 -17z m-189 2 c10 -6 19 -17 19 -25 0 -8 6 -18 13 -22 7 -4
30 -42 52 -83 21 -41 43 -83 49 -92 22 -36 -73 -156 -158 -200 -11 -6 -44 -35
-72 -64 -28 -30 -55 -54 -59 -54 -5 0 -22 -10 -39 -23 -47 -36 -108 -48 -166
-33 -63 16 -99 41 -114 77 -14 33 1 90 51 199 26 56 78 216 91 280 7 30 11 35
32 32 59 -6 197 -2 220 7 33 13 57 13 81 1z"/>
<path d="M12223 4365 c-38 -16 -61 -39 -89 -85 -39 -66 -38 -82 6 -138 41 -52
68 -67 135 -76 53 -7 101 21 122 71 13 31 13 46 4 89 -7 29 -19 58 -26 64 -8
7 -13 15 -11 19 9 14 -12 32 -60 50 -43 17 -53 17 -81 6z"/>
<path d="M10766 4958 c-8 -12 -12 -26 -9 -32 24 -39 54 -72 95 -102 42 -30 51
-32 73 -22 14 6 25 15 25 19 0 4 -20 22 -44 39 -24 18 -58 52 -76 76 -36 50
-43 53 -64 22z"/>
<path d="M13480 4490 l-23 -32 25 -25 c23 -23 32 -24 139 -26 114 -2 114 -2
114 22 0 20 -11 28 -70 51 -38 15 -91 30 -116 34 -44 7 -48 5 -69 -24z"/>
<path d="M10468 4109 c-10 -5 -18 -20 -18 -33 0 -34 26 -52 105 -71 107 -27
164 -21 165 15 0 9 -98 60 -116 60 -17 1 -50 11 -104 33 -8 4 -23 2 -32 -4z"/>
<path d="M13524 3672 c-6 -4 -13 -17 -17 -30 -6 -25 25 -62 52 -62 22 0 144
-31 156 -40 17 -12 65 -21 65 -12 0 5 -9 21 -20 35 -11 14 -20 29 -20 34 0 13
-39 35 -104 60 -60 24 -93 28 -112 15z"/>
<path d="M10805 3226 c-10 -14 -15 -33 -11 -41 5 -14 35 -21 61 -15 6 1 26 4
45 6 58 6 95 20 95 35 0 14 -36 24 -126 35 -43 6 -49 4 -64 -20z"/>
<path d="M12931 2831 c-16 -28 -14 -38 18 -121 56 -145 91 -211 109 -208 9 3
15 11 13 19 -2 8 -5 34 -7 59 -2 25 -20 95 -41 155 -32 91 -42 111 -60 113
-14 2 -26 -4 -32 -17z"/>
<path d="M11385 2829 c-4 -6 -13 -8 -20 -5 -18 7 -66 -66 -95 -144 -22 -58
-22 -62 -6 -78 16 -16 18 -16 30 1 7 9 21 17 30 17 9 0 18 6 20 13 2 6 12 37
21 67 9 30 25 67 36 82 10 15 19 34 19 43 0 17 -25 20 -35 4z"/>
<path d="M12266 2684 c-3 -9 -3 -20 0 -25 3 -5 10 -40 15 -77 17 -129 28 -159
59 -172 35 -15 50 -7 50 26 0 24 -30 124 -52 174 -6 14 -16 36 -22 50 -18 41
-40 51 -50 24z"/>
<path d="M9355 2033 c-82 -6 -186 -8 -230 -5 -92 7 -170 7 -420 -2 -238 -8
-453 -9 -464 -1 -5 3 -110 5 -233 5 -123 -1 -247 -1 -277 0 -60 1 -147 -11
-291 -42 -109 -23 -183 -33 -365 -48 -71 -6 -152 -15 -180 -21 -27 -6 -79 -16
-115 -24 -41 -9 -138 -14 -265 -14 -110 -1 -218 -4 -240 -6 -22 -3 -78 -7
-125 -10 -47 -2 -86 -8 -87 -12 -2 -4 -87 -8 -191 -7 -103 0 -227 -4 -277 -9
-49 -5 -115 -10 -145 -12 -30 -2 -82 -9 -115 -14 -97 -17 -295 -41 -370 -46
-38 -2 -95 -11 -125 -20 -30 -8 -73 -15 -96 -15 -57 0 -180 -44 -242 -87 -87
-60 -167 -155 -191 -229 -27 -82 -26 -90 4 -130 14 -18 25 -37 25 -43 0 -5 6
-14 13 -18 8 -4 16 -16 20 -26 4 -9 19 -22 34 -29 15 -6 48 -28 73 -48 62 -50
104 -78 153 -105 23 -12 59 -32 80 -44 21 -11 48 -21 61 -21 13 0 29 -7 36
-15 7 -8 20 -15 30 -15 9 0 34 -11 54 -25 20 -14 40 -24 44 -23 7 1 76 -26
104 -42 10 -6 25 -10 33 -10 8 0 15 -3 15 -8 0 -4 30 -16 68 -26 37 -11 72
-23 78 -27 6 -5 19 -10 30 -12 10 -2 36 -11 58 -20 21 -9 42 -17 46 -17 5 0
31 -11 58 -25 28 -14 59 -25 71 -25 12 0 29 -4 39 -10 33 -19 148 -42 223 -46
41 -1 95 -10 120 -18 24 -9 55 -16 69 -16 15 0 31 -5 36 -10 6 -6 101 -12 228
-15 120 -3 221 -7 224 -9 4 -2 68 1 142 5 83 6 143 5 155 0 11 -6 57 -15 103
-20 45 -6 101 -20 125 -32 41 -21 99 -37 162 -44 17 -2 30 -4 30 -5 0 -1 44
-3 97 -6 61 -2 99 0 104 7 3 6 21 8 44 4 21 -4 54 -2 74 3 25 7 36 7 36 0 0
-6 6 -5 15 2 10 9 49 14 109 14 57 1 99 6 108 14 8 6 41 14 74 17 32 2 77 7
99 9 22 3 78 7 125 10 47 3 110 10 140 15 30 5 89 15 130 22 41 7 79 16 85 21
5 4 28 8 51 8 24 0 46 5 49 10 4 6 28 10 53 9 75 -2 144 7 188 24 42 16 185
46 264 54 25 3 54 12 65 19 12 9 31 12 52 8 23 -4 41 -1 59 11 15 9 48 18 73
19 26 2 81 16 122 33 72 30 163 45 344 57 89 6 266 32 297 44 15 6 54 9 88 7
42 -4 70 0 90 10 16 8 50 15 75 15 25 0 62 8 83 19 20 10 62 21 92 25 30 4 68
15 85 25 16 10 66 28 110 41 90 26 213 88 259 131 17 16 34 29 38 29 4 0 31
23 59 51 39 39 55 63 63 98 16 70 12 170 -9 211 -21 41 -82 119 -108 138 -10
8 -28 24 -40 37 -41 44 -222 125 -277 125 -11 0 -37 6 -57 14 -21 8 -72 19
-113 26 -41 6 -91 16 -110 21 -71 18 -146 41 -180 54 -37 15 -110 35 -144 40
-12 1 -32 7 -46 12 -14 6 -68 13 -120 17 -52 4 -101 12 -109 19 -18 16 -188
16 -386 0z m373 -99 c46 -7 47 -8 31 -52 -6 -17 -14 -61 -17 -99 l-7 -68 -85
-7 c-47 -3 -89 -2 -94 3 -6 5 -3 31 7 66 26 92 28 112 17 134 -15 26 -48 21
-71 -11 -10 -14 -21 -50 -24 -80 -4 -30 -13 -69 -19 -85 -12 -29 -15 -30 -70
-28 -32 1 -60 4 -63 7 -4 3 -1 18 6 33 7 15 15 58 18 95 4 40 12 73 20 80 8 6
46 13 85 15 39 2 73 5 75 6 5 6 143 -1 191 -9z m-710 -8 l72 -1 0 -28 c0 -16
-4 -47 -9 -70 -5 -23 -15 -68 -22 -99 l-12 -57 -50 1 -50 0 7 56 c15 121 16
147 7 162 -8 12 -13 12 -35 0 -33 -17 -47 -60 -48 -148 l-2 -70 -57 -6 c-76
-8 -93 -2 -75 27 8 12 16 58 20 102 9 117 12 125 52 125 19 0 34 5 34 11 0 8
14 9 48 3 26 -4 80 -8 120 -8z m270 -1 c2 -2 -4 -38 -14 -81 -9 -44 -19 -92
-22 -109 -6 -39 -16 -45 -76 -45 -42 0 -47 2 -41 18 4 9 14 60 23 113 16 93
18 96 47 106 25 8 72 7 83 -2z m-1538 -13 c0 -10 -4 -22 -10 -28 -5 -5 -12
-43 -15 -84 -10 -139 -16 -150 -72 -150 l-32 0 3 78 c3 42 5 100 5 129 1 50 1
51 39 61 60 16 82 14 82 -6z m183 -48 c4 -32 9 -88 11 -124 2 -36 4 -68 5 -72
2 -12 39 -10 63 3 19 10 20 17 13 93 -4 44 -7 87 -6 94 1 6 2 26 3 42 l1 30
68 0 c54 0 68 -3 74 -17 12 -28 15 -102 4 -108 -11 -8 -12 -51 0 -73 11 -22 2
-90 -13 -94 -9 -3 -210 6 -316 15 -20 2 -26 8 -30 37 -7 45 7 168 21 197 6 11
9 25 6 30 -3 5 16 8 41 8 l47 -1 8 -60z m394 57 l23 -1 -23 -42 c-18 -36 -22
-59 -22 -143 0 -97 -1 -100 -23 -103 -35 -5 -57 5 -43 21 6 8 11 66 12 138 1
68 3 127 5 130 2 3 13 5 26 3 13 -1 33 -3 45 -3z m165 -11 c37 0 38 -1 38 -38
0 -21 -6 -46 -13 -57 -8 -11 -20 -53 -27 -93 -14 -79 -28 -93 -77 -84 -31 6
-37 35 -29 141 4 47 7 100 7 118 -1 31 0 31 31 22 18 -5 50 -9 70 -9z m211
-15 c-1 -11 -9 -49 -17 -85 -21 -89 -20 -111 4 -117 11 -3 20 -9 20 -13 0 -10
-115 -34 -132 -28 -10 4 -11 30 -4 129 5 69 14 127 20 132 6 4 34 6 61 5 43
-3 50 -6 48 -23z m1211 8 c-4 -10 -10 -57 -14 -105 -3 -48 -9 -90 -12 -94 -4
-3 -21 -3 -38 1 -26 6 -31 11 -27 28 3 12 11 51 17 87 17 98 18 100 52 100 25
0 29 -3 22 -17z m124 -8 c39 -9 48 -21 31 -41 -7 -9 -18 -50 -24 -92 -10 -73
-12 -77 -35 -74 -32 3 -40 18 -32 61 9 49 8 122 -2 144 -9 18 -9 18 62 2z
m-2500 -72 c1 -37 4 -79 7 -94 4 -15 1 -30 -4 -34 -6 -3 -11 -15 -11 -26 0
-25 -29 -36 -105 -40 l-58 -4 2 65 c7 141 9 162 17 170 10 10 87 27 125 29 25
1 26 0 27 -66z m2628 -52 c-3 -36 -6 -78 -6 -93 0 -22 -5 -28 -21 -28 -20 0
-20 3 -12 68 4 37 7 84 6 104 -1 35 1 37 19 27 19 -10 20 -18 14 -78z m-2860
52 c-4 -16 -9 -41 -11 -58 -7 -55 -24 -135 -30 -145 -3 -5 -26 -10 -50 -10
l-45 0 4 112 c3 127 1 125 95 127 42 1 43 0 37 -26z m-181 7 c-11 -17 -35
-120 -35 -148 0 -15 4 -33 9 -41 15 -23 -15 -58 -57 -65 -72 -13 -97 -12 -94
4 2 8 5 48 7 90 4 85 13 138 26 146 5 3 37 9 72 13 34 5 66 9 70 10 5 0 5 -3
2 -9z m-235 -68 c0 -27 -7 -71 -15 -98 -8 -27 -15 -61 -15 -75 0 -32 -15 -39
-86 -39 l-54 0 0 51 c0 27 7 81 16 120 l16 69 43 0 c24 0 47 5 50 10 3 6 15
10 26 10 16 0 19 -7 19 -48z m3461 30 c14 -6 13 -16 -9 -85 l-25 -78 -31 7
c-17 3 -32 8 -34 9 -10 9 -12 78 -3 113 11 40 14 42 49 41 20 0 44 -3 53 -7z
m-3690 -28 c4 -2 0 -30 -8 -61 -8 -32 -18 -77 -22 -101 -4 -23 -11 -45 -14
-48 -3 -3 -30 -7 -59 -8 l-53 -1 4 70 c6 120 13 148 41 156 23 7 96 2 111 -7z
m-224 -61 c-7 -94 -18 -147 -30 -155 -15 -9 -90 -8 -103 3 -7 6 -6 34 2 93 17
117 23 126 85 126 l51 0 -5 -67z m4056 55 c30 -14 32 -29 16 -93 -12 -48 -22
-55 -62 -48 -25 5 -27 9 -27 53 0 30 6 52 15 60 8 7 15 19 15 26 0 17 8 17 43
2z m-4268 -30 c-4 -18 -7 -46 -6 -63 1 -16 -3 -51 -10 -78 -12 -51 -19 -55
-94 -60 l-40 -2 0 70 c0 39 2 88 5 110 6 44 16 49 109 53 l44 2 -8 -32z m-393
-29 c-1 -19 -5 -66 -8 -106 l-6 -72 -79 -3 c-44 -2 -83 -2 -88 0 -11 4 -4 169
8 191 11 19 114 40 151 31 21 -6 25 -12 22 -41z m174 19 c-4 -18 -9 -70 -13
-115 -6 -88 -6 -88 -59 -77 l-29 6 2 81 c1 45 3 92 3 104 0 17 7 23 33 26 72
9 70 10 63 -25z m4664 2 c19 -4 29 -8 22 -9 -25 -2 -51 -45 -52 -83 0 -35 -2
-38 -30 -38 -27 0 -30 3 -30 31 0 16 5 50 11 75 9 36 15 44 28 38 9 -4 32 -10
51 -14z m-5095 -42 c-3 -29 -7 -77 -7 -105 -1 -51 -3 -53 -34 -62 -18 -5 -51
-7 -74 -4 -35 5 -41 10 -49 38 -9 35 1 115 20 152 9 17 23 23 63 26 28 2 59 4
69 5 17 2 18 -3 12 -50z m-231 0 c-4 -13 -7 -57 -6 -99 l1 -77 -37 -6 c-20 -4
-49 -9 -64 -12 -26 -5 -28 -3 -28 27 0 17 5 61 12 96 13 71 28 86 93 91 34 2
36 0 29 -20z m-189 -45 c-26 -159 -33 -173 -95 -173 -48 0 -49 1 -55 33 -8 41
0 146 11 157 11 10 46 17 102 19 l43 1 -6 -37z m5651 11 c-3 -9 -6 -25 -7 -37
l0 -22 -11 22 c-12 24 -5 53 13 53 6 0 8 -7 5 -16z m-5873 -16 c-2 -13 -5 -61
-6 -108 l-2 -84 -33 -10 c-18 -5 -34 -7 -37 -5 -2 3 -7 47 -10 98 -3 52 -8 98
-12 104 -9 15 18 27 63 27 37 0 41 -2 37 -22z m-165 -121 l3 -123 -26 -12
c-14 -7 -32 -12 -40 -12 -17 0 -27 58 -28 167 0 93 5 103 58 103 l30 0 3 -123z
m6142 33 c2 -25 2 -58 1 -75 l-1 -30 -15 29 c-9 16 -15 55 -15 89 0 53 2 59
14 47 8 -8 15 -35 16 -60z m-6309 -32 c4 -215 5 -213 -11 -213 -8 0 -17 11
-18 25 -2 14 -8 30 -13 36 -5 6 -9 22 -8 35 0 13 -4 51 -10 84 -6 33 -11 65
-11 71 0 9 39 30 63 33 4 1 8 -32 8 -71z m-112 -178 c6 -36 12 -72 13 -80 2
-8 -1 -16 -7 -18 -5 -2 -19 33 -30 77 -11 43 -23 83 -27 87 -14 13 -8 59 10
84 l17 25 7 -55 c4 -30 12 -84 17 -120z"/>
</g>
</svg>
