<?xml version="1.0" standalone="no"?>
<!DOCTYPE svg PUBLIC "-//W3C//DTD SVG 20010904//EN"
 "http://www.w3.org/TR/2001/REC-SVG-20010904/DTD/svg10.dtd">
<svg version="1.0" xmlns="http://www.w3.org/2000/svg"
 width="1003.083751pt" height="400.000000pt" viewBox="0 0 1003.083751 400.000000"
 preserveAspectRatio="xMidYMid meet">
<metadata>
Created by potrace 1.15, written by Peter Selinger 2001-2017
</metadata>
<g transform="translate(-17.348226,423.485890) scale(0.041688,-0.041688)"
fill="#444444" stroke="none">
<path d="M13569 10156 c-12 -12 -119 -27 -229 -31 -63 -3 -142 -7 -175 -11
-123 -12 -223 -18 -305 -18 -181 0 -490 16 -545 29 -53 12 -58 12 -62 -5 -3
-10 -11 -21 -19 -24 -12 -5 -13 -10 -2 -28 8 -15 13 -75 14 -173 1 -82 3 -157
3 -165 4 -50 -13 -365 -23 -424 l-11 -69 -60 -13 c-33 -7 -80 -13 -105 -14
-25 -1 -56 -5 -70 -9 -14 -4 -43 -3 -65 2 -22 4 -67 11 -101 14 -57 5 -62 3
-67 -18 -3 -12 -3 -35 0 -51 3 -16 -1 -53 -10 -81 -40 -130 -57 -208 -61 -282
-3 -44 -10 -98 -15 -120 -28 -108 -26 -109 409 -120 74 -2 147 -6 163 -9 17
-3 38 1 56 12 25 15 44 16 167 9 82 -5 168 -4 209 1 89 12 102 12 263 -4 74
-8 152 -14 175 -14 22 0 70 -7 105 -16 54 -14 76 -14 136 -5 191 30 2379 31
2639 1 48 -5 129 -15 180 -22 50 -6 117 -10 147 -9 31 1 68 -3 83 -8 55 -21
602 -11 623 11 19 20 33 157 33 310 0 76 2 150 5 165 3 16 2 44 -2 63 -10 44
-46 59 -152 60 -41 0 -93 5 -115 10 -22 5 -85 12 -140 15 -89 5 -171 17 -180
27 -1 1 -6 59 -9 128 -4 69 -8 143 -11 165 -2 22 -7 101 -10 175 -3 74 -11
153 -16 175 -6 22 -13 49 -15 60 -14 76 -26 122 -33 133 -11 18 -267 28 -591
22 -482 -9 -515 -8 -745 26 -60 8 -135 19 -165 24 -69 10 -209 38 -220 45 -4
2 -50 9 -101 15 -92 10 -155 13 -514 25 -98 4 -183 9 -187 11 -12 8 -272 17
-279 10z m316 -111 c110 -8 101 -8 370 -24 235 -14 387 -28 443 -41 23 -6 59
-13 80 -16 20 -3 51 -9 67 -14 17 -5 57 -11 90 -15 66 -7 98 -11 165 -19 159
-21 633 -24 714 -6 22 5 73 7 111 5 408 -21 378 -15 398 -73 21 -62 37 -183
37 -285 0 -45 5 -154 12 -243 10 -137 9 -177 -4 -270 -11 -78 -14 -157 -10
-275 3 -134 2 -167 -9 -171 -20 -6 -360 16 -434 28 -80 14 -349 17 -1215 12
-129 -1 -296 0 -370 1 -74 2 -189 0 -255 -4 -66 -4 -246 -8 -400 -9 -154 -2
-293 -6 -310 -9 -16 -4 -39 -9 -50 -12 -11 -2 -38 0 -60 6 -22 5 -106 14 -186
19 -80 5 -166 14 -191 19 -29 7 -92 8 -170 3 -67 -4 -190 -8 -271 -7 -137 1
-150 2 -160 20 -14 24 -13 182 2 275 6 36 11 93 11 127 0 52 3 64 20 73 26 14
25 34 -1 72 -20 27 -21 37 -14 126 4 53 8 225 10 380 2 156 7 287 11 292 5 4
44 4 88 -1 43 -4 238 -6 435 -4 322 3 535 16 736 43 63 9 181 8 310 -3z
m-1904 -921 c57 2 133 7 169 11 94 11 98 4 76 -133 -9 -59 -18 -162 -19 -229
-1 -78 -6 -124 -13 -127 -12 -5 -126 -21 -134 -19 -3 1 -77 4 -164 7 -98 4
-162 10 -166 17 -15 23 1 204 25 279 13 41 28 100 35 130 18 84 15 80 53 69
18 -5 81 -7 138 -5z m4769 -108 c123 -3 218 -15 227 -29 3 -6 10 -80 14 -164
7 -131 6 -161 -8 -196 -9 -23 -21 -48 -28 -55 -15 -17 -488 -23 -504 -7 -22
22 -36 339 -17 405 17 62 20 64 126 55 52 -4 138 -8 190 -9z"/>
<path d="M12569 9706 c-25 -54 40 -83 197 -85 49 -1 52 -2 58 -32 6 -30 -1
-284 -9 -325 -4 -19 -12 -21 -117 -23 -61 -1 -120 -7 -130 -12 -27 -15 -20
-60 12 -77 29 -15 228 -10 320 8 30 6 75 13 100 16 77 8 90 13 90 34 0 28 -39
42 -122 44 -37 1 -70 4 -73 8 -8 8 -6 206 3 282 8 67 -1 63 132 69 67 3 75 6
78 25 7 49 -102 73 -410 89 l-117 6 -12 -27z"/>
<path d="M14077 9653 c-6 -10 -3 -79 8 -185 l8 -78 -55 0 c-43 0 -59 -5 -74
-21 -19 -21 -18 -21 5 -40 13 -10 30 -19 38 -19 8 0 28 -7 45 -16 l31 -16 -6
-109 c-5 -102 -4 -110 14 -120 45 -23 57 7 61 148 l2 72 71 24 c61 20 70 26
70 47 0 25 -15 33 -88 45 -43 7 -40 2 -58 105 -21 120 -53 194 -72 163z"/>
<path d="M13675 9440 c-27 -10 -54 -25 -59 -32 -18 -29 6 -72 75 -137 38 -37
69 -69 69 -73 0 -15 -85 -39 -121 -33 -30 5 -42 2 -58 -14 l-20 -20 35 -27
c46 -35 100 -35 174 -1 58 27 95 72 84 101 -3 9 -27 31 -53 50 -61 46 -105 92
-97 104 3 6 29 15 58 21 62 14 78 26 78 57 0 23 -3 24 -57 23 -32 -1 -80 -10
-108 -19z"/>
<path d="M15455 9404 c-64 -33 -96 -64 -125 -120 -27 -55 -37 -152 -21 -210
16 -60 72 -79 163 -54 40 11 48 18 91 73 39 50 74 46 133 -16 46 -49 57 -52
153 -49 67 3 140 57 113 84 -9 9 -24 9 -64 1 -48 -10 -58 -9 -98 10 -53 26
-61 44 -23 53 15 4 37 14 48 24 11 9 28 20 37 23 9 3 22 24 29 45 9 33 8 47
-8 92 -15 44 -24 55 -48 61 -32 9 -75 2 -75 -12 0 -5 -14 -16 -31 -24 -16 -9
-48 -32 -70 -52 -33 -30 -39 -41 -39 -75 0 -58 -38 -100 -127 -143 -40 -19
-83 -19 -108 -1 -14 10 -18 25 -17 60 3 81 32 119 118 156 57 24 84 61 63 86
-16 20 -37 17 -94 -12z m371 -89 c23 -35 13 -50 -42 -69 -59 -20 -70 -20 -78
0 -9 23 6 43 50 69 50 30 51 30 70 0z"/>
<path d="M13315 9411 c-11 -5 -35 -25 -54 -45 -25 -26 -40 -34 -56 -30 -37 9
-45 -13 -34 -96 15 -107 23 -134 39 -138 23 -4 41 34 47 97 3 32 15 74 30 99
21 38 28 42 62 42 79 0 103 -74 76 -235 -7 -40 8 -64 32 -49 42 26 57 181 24
256 -35 80 -109 124 -166 99z"/>
<path d="M14547 9314 c-73 -67 -130 -128 -151 -163 -48 -79 -50 -103 -11 -150
24 -28 29 -30 78 -24 30 4 68 17 89 31 42 27 96 102 105 145 8 37 18 34 48
-13 30 -48 51 -59 72 -38 13 14 13 19 0 44 -8 16 -20 54 -27 84 -7 30 -17 72
-22 93 -5 21 -21 51 -36 68 l-27 30 -118 -107z m72 -118 c-12 -27 -43 -71 -70
-98 -43 -43 -51 -47 -81 -42 -18 4 -37 10 -42 15 -10 9 48 85 104 136 19 18
51 48 70 65 l35 33 3 -30 c2 -17 -7 -52 -19 -79z"/>
<path d="M14948 9387 c-20 -17 -41 -42 -47 -54 -7 -13 -25 -30 -41 -38 l-29
-15 6 -83 c7 -98 23 -126 54 -88 10 13 19 34 19 48 0 57 47 183 69 183 20 0
51 -35 63 -72 14 -47 15 -71 3 -164 -8 -65 -2 -76 31 -64 42 16 53 115 27 259
-6 36 -81 121 -105 121 -7 0 -29 -15 -50 -33z"/>
<path d="M11855 9090 c-12 -13 -16 -28 -12 -48 6 -32 -16 -108 -40 -134 -18
-20 -10 -53 15 -64 18 -7 88 -20 164 -30 40 -6 51 -3 81 20 18 14 41 26 50 26
9 0 19 6 24 13 8 13 6 130 -3 160 -9 28 -58 47 -124 47 -33 0 -77 7 -97 15
-43 18 -36 19 -58 -5z m224 -112 c5 -13 7 -27 4 -31 -8 -13 -33 14 -33 34 0
26 19 24 29 -3z m-122 -13 c94 -61 104 -75 55 -75 -20 0 -40 13 -70 43 -23 24
-39 46 -36 50 10 10 8 10 51 -18z"/>
<path d="M11792 8769 c-12 -19 -11 -25 6 -48 30 -40 47 -34 47 19 0 37 -3 45
-20 48 -12 1 -25 -6 -33 -19z"/>
<path d="M16655 8992 c-3 -3 -25 -5 -49 -3 -37 1 -47 -2 -65 -25 -15 -19 -19
-34 -14 -53 11 -41 5 -83 -17 -113 -45 -61 -22 -78 101 -78 113 0 182 -22 194
-62 18 -59 76 -79 97 -33 9 20 8 33 -7 65 -15 34 -16 44 -6 68 7 15 15 64 18
108 5 76 4 82 -15 88 -11 4 -31 4 -45 1 -15 -4 -38 0 -57 10 -34 17 -126 36
-135 27z m27 -91 c4 -3 1 -13 -5 -22 -12 -15 -14 -15 -36 2 -12 10 -20 23 -16
29 6 10 42 5 57 -9z m163 -61 c0 -32 -26 -37 -43 -9 -12 18 -12 23 0 30 23 15
43 5 43 -21z m-188 -34 c8 -8 -7 -26 -21 -26 -8 0 -24 9 -37 21 l-24 20 39 -5
c21 -3 41 -7 43 -10z"/>
<path d="M11163 9705 c-17 -19 -16 -58 2 -125 8 -30 12 -67 9 -82 -5 -26 -8
-27 -57 -22 -210 17 -201 18 -215 -5 -10 -18 -10 -26 2 -50 15 -28 16 -28 138
-35 67 -4 126 -10 130 -12 13 -9 9 -47 -17 -153 -19 -77 -23 -106 -15 -121 16
-29 33 -25 79 19 22 21 71 54 108 73 121 62 248 137 261 155 19 26 14 67 -10
91 -13 11 -47 32 -77 46 -36 16 -78 50 -125 99 -62 64 -166 138 -192 137 -5
-1 -15 -7 -21 -15z m175 -203 c44 -44 93 -85 110 -93 51 -22 41 -44 -38 -84
-38 -19 -70 -40 -70 -45 0 -6 -13 -10 -30 -10 -17 0 -37 -9 -49 -21 -25 -28
-31 -14 -19 46 5 28 7 102 3 168 -4 77 -2 117 5 117 5 0 45 -35 88 -78z"/>
<path d="M10667 9494 c-3 -4 -23 -8 -44 -11 -21 -2 -63 -8 -93 -14 -30 -6 -67
-14 -83 -16 -39 -7 -52 -35 -28 -64 19 -23 20 -23 107 -11 111 16 189 54 189
92 0 18 -6 26 -20 28 -12 2 -24 0 -28 -4z"/>
<path d="M9935 9441 c-4 -14 -1 -31 9 -46 15 -23 23 -25 86 -25 39 0 88 6 110
12 40 13 61 41 43 59 -5 5 -62 12 -125 16 -113 6 -116 5 -123 -16z"/>
<path d="M17859 9397 c-20 -8 -49 -23 -65 -33 -16 -11 -46 -28 -66 -39 -74
-38 -144 -93 -181 -141 -81 -107 -157 -305 -143 -377 13 -67 128 -207 170
-207 6 0 25 -7 41 -16 48 -26 332 -19 425 10 132 42 183 93 229 232 45 136 40
194 -29 338 -40 85 -59 113 -106 154 -31 28 -73 59 -92 68 -47 22 -138 28
-183 11z m174 -116 c48 -28 120 -112 132 -154 4 -12 18 -50 31 -84 29 -75 30
-103 4 -184 -43 -136 -149 -198 -341 -200 -45 -1 -90 -6 -100 -12 -17 -11 -51
-4 -131 25 -41 15 -88 53 -115 94 -36 51 -28 108 29 226 48 99 122 191 173
215 16 8 66 34 110 58 98 54 139 57 208 16z"/>
<path d="M9589 9366 c-36 -12 -80 -32 -98 -45 -27 -20 -31 -28 -26 -50 7 -27
26 -45 35 -33 6 8 21 17 97 56 28 15 59 36 69 47 15 17 16 21 3 34 -12 12 -23
10 -80 -9z"/>
<path d="M18920 9380 c-91 -17 -190 -47 -208 -63 -10 -9 -24 -17 -31 -17 -20
0 -167 -153 -192 -201 -36 -67 -34 -203 4 -320 16 -48 42 -102 58 -122 31 -38
105 -77 144 -77 12 0 42 -7 65 -15 86 -30 199 -16 343 43 127 51 176 98 205
194 36 123 46 179 45 271 0 79 -4 94 -34 155 -30 58 -39 69 -74 80 -22 8 -60
22 -85 32 -58 24 -153 50 -177 49 -10 -1 -38 -5 -63 -9z m215 -125 c76 -22 82
-27 112 -95 22 -50 24 -64 20 -150 -10 -200 -41 -250 -201 -328 -114 -56 -207
-67 -273 -33 -46 23 -78 27 -88 11 -10 -17 -63 18 -89 58 -13 20 -36 75 -51
122 -45 142 -25 213 88 317 47 42 72 56 154 83 155 51 197 53 328 15z"/>
<path d="M20038 9375 c-2 -3 -31 -10 -64 -16 -32 -5 -70 -18 -84 -28 -14 -10
-41 -23 -60 -29 -45 -15 -127 -83 -161 -133 -33 -48 -47 -128 -43 -238 3 -75
8 -91 43 -155 33 -60 48 -77 101 -111 l63 -39 156 1 c197 2 236 8 308 47 45
25 67 46 101 97 56 85 76 153 74 254 -2 96 -13 135 -48 186 -30 44 -154 133
-215 154 -39 14 -160 21 -171 10z m210 -137 c93 -57 109 -74 126 -127 26 -85
28 -127 6 -192 -32 -95 -62 -132 -137 -170 l-67 -34 -150 1 c-131 0 -157 3
-196 21 -89 41 -115 95 -115 238 1 145 17 169 161 240 104 52 147 64 232 64
68 1 76 -1 140 -41z"/>
<path d="M9303 9068 c-52 -57 -78 -165 -50 -203 12 -16 18 -17 30 -7 8 7 17
27 20 45 2 18 12 60 21 94 21 76 12 106 -21 71z"/>
<path d="M9232 8608 c-16 -16 -15 -64 2 -112 16 -46 38 -62 56 -41 12 15 6 67
-16 148 -6 20 -25 22 -42 5z"/>
<path d="M9202 8188 c-17 -19 -22 -38 -24 -102 -2 -67 0 -80 17 -92 37 -27 43
-18 50 79 10 135 1 161 -43 115z"/>
<path d="M12509 7912 c-3 -6 -84 -14 -203 -20 -250 -13 -236 -3 -242 -168 -3
-66 -9 -144 -14 -174 -5 -30 -12 -105 -15 -167 l-7 -111 -44 -7 c-24 -3 -50
-3 -56 1 -7 5 -49 9 -93 11 -44 2 -117 5 -162 9 -73 5 -82 4 -86 -13 -3 -10
-6 -94 -6 -188 0 -93 -3 -248 -6 -344 -3 -109 -1 -180 6 -193 9 -17 18 -18 97
-13 48 4 110 13 137 20 85 22 213 29 238 12 15 -9 61 -17 127 -20 141 -8 344
-25 372 -32 13 -3 55 -10 93 -15 39 -5 92 -14 120 -20 65 -13 130 -14 240 -1
50 5 126 13 170 16 44 3 103 10 130 15 28 5 133 11 235 15 201 6 317 12 395
21 76 9 390 14 680 12 257 -2 411 -1 655 2 69 1 276 1 460 0 327 -1 354 1 515
34 39 8 112 11 210 9 194 -6 179 -6 328 0 70 3 131 8 136 11 9 6 6 520 -5 642
-5 64 -8 72 -27 76 -12 2 -126 3 -253 2 -126 -2 -236 1 -244 6 -10 6 -13 36
-10 132 2 67 4 139 5 158 8 103 5 169 -7 205 l-13 40 -185 -4 c-102 -2 -192
-7 -202 -12 -32 -17 -712 -8 -768 10 -19 6 -99 11 -180 11 -80 0 -185 5 -235
11 -49 6 -243 13 -430 15 -187 2 -470 6 -629 9 -225 4 -300 2 -335 -9 -27 -8
-70 -11 -102 -8 -31 2 -80 -1 -108 -7 -38 -8 -84 -8 -174 1 -67 6 -165 12
-217 13 -52 0 -138 5 -191 9 -65 6 -98 5 -100 -2z m168 -95 c10 -6 308 -20
443 -20 58 0 168 6 245 13 99 8 221 10 415 4 151 -4 376 -6 500 -5 124 1 302
-3 395 -9 139 -10 363 -19 495 -20 14 0 66 -7 115 -14 65 -10 173 -13 393 -10
167 2 306 5 310 8 17 10 298 16 312 7 19 -13 23 -132 9 -256 -16 -130 -18
-688 -3 -746 6 -26 9 -51 5 -57 -3 -6 -44 -20 -91 -32 -73 -19 -125 -23 -375
-29 -159 -4 -328 -5 -375 -2 -47 3 -146 4 -220 3 -256 -5 -375 -6 -525 -4
-282 5 -871 -10 -960 -23 -16 -3 -115 -12 -220 -21 -257 -20 -267 -21 -370
-34 -142 -17 -392 -13 -540 9 -71 10 -160 19 -197 20 -37 1 -82 6 -100 12 -18
5 -64 14 -101 18 -53 7 -74 15 -94 35 -24 25 -25 29 -14 66 7 22 9 45 5 51 -4
6 -8 50 -11 98 -2 47 -10 165 -17 261 -13 188 -12 339 3 398 6 20 11 73 12
117 3 127 4 129 80 137 35 4 106 11 157 17 52 5 96 12 99 14 6 7 209 1 220 -6z
m4163 -593 c12 -12 25 -492 14 -525 -3 -13 -23 -18 -84 -23 -84 -8 -359 10
-374 24 -16 16 -25 96 -32 291 -8 223 -5 236 54 241 100 8 412 2 422 -8z
m-5040 -25 c47 -6 110 -12 140 -14 30 -1 66 -7 80 -13 25 -10 24 -10 -10 -15
-19 -3 -46 -5 -60 -5 -14 0 -71 -2 -126 -4 -139 -4 -142 -9 -139 -167 1 -64 6
-124 10 -134 4 -10 1 -27 -9 -42 -22 -33 -20 -48 10 -76 l26 -24 24 28 c29 34
30 48 4 72 -34 31 -24 37 58 30 60 -6 93 -3 136 9 l58 17 -6 37 c-3 20 -9 68
-12 106 l-7 69 29 -7 c53 -13 55 -20 56 -194 2 -149 0 -164 -19 -190 -18 -24
-29 -28 -94 -34 -41 -3 -105 -12 -144 -18 -186 -29 -181 -32 -178 87 10 471
10 476 29 490 11 8 28 11 39 8 11 -3 58 -10 105 -16z m-10 -159 c6 -11 33 -43
60 -71 28 -29 50 -55 50 -60 0 -16 -67 -9 -82 9 -9 9 -26 38 -38 65 -12 26
-26 47 -31 47 -5 0 -9 7 -9 15 0 22 38 18 50 -5z m119 6 c7 -8 15 -31 18 -51
5 -32 4 -36 -9 -29 -26 15 -70 73 -63 84 9 15 41 12 54 -4z"/>
<path d="M12373 7610 c-13 -5 -23 -16 -23 -23 0 -23 35 -48 66 -46 45 1 138
-13 152 -24 7 -6 12 -34 12 -73 0 -34 5 -75 11 -91 6 -15 14 -64 19 -108 4
-44 11 -91 16 -104 l7 -24 -84 8 c-142 13 -163 8 -141 -40 11 -24 15 -25 114
-27 164 -4 260 0 308 13 50 13 80 35 80 57 0 15 -3 15 -163 -7 -90 -12 -115
-7 -91 17 17 16 17 17 -6 217 -5 50 -10 101 -10 115 l0 26 115 -1 115 -1 0 36
0 37 -82 6 c-46 4 -99 12 -118 17 -19 6 -53 13 -75 15 -129 12 -203 13 -222 5z"/>
<path d="M13686 7561 c-4 -6 -5 -45 -2 -88 7 -102 1 -124 -30 -119 -25 5 -54
-16 -54 -38 0 -19 22 -36 47 -36 36 0 45 -33 35 -123 -8 -73 -7 -78 15 -99 35
-32 43 -15 51 103 l7 104 55 6 c75 9 112 25 108 47 -3 14 -16 18 -75 20 -42 2
-76 8 -82 16 -6 7 -13 36 -17 64 -13 112 -39 174 -58 143z"/>
<path d="M15344 7395 c-16 -7 -54 -35 -82 -61 -40 -37 -55 -59 -67 -101 -9
-32 -13 -64 -8 -80 4 -16 6 -34 4 -42 -10 -50 54 -104 145 -120 122 -23 187
-10 212 42 22 46 10 59 -35 36 -21 -11 -56 -19 -83 -18 -60 1 -140 30 -158 57
-13 20 -12 22 14 33 16 7 73 32 126 57 78 36 97 49 96 66 0 42 -8 65 -26 70
-9 4 -27 22 -40 41 -24 38 -46 43 -98 20z m66 -86 c17 -31 12 -38 -56 -69 -66
-31 -94 -35 -101 -14 -6 17 45 72 85 93 40 20 57 18 72 -10z"/>
<path d="M13455 7368 c-94 -21 -120 -32 -123 -56 -3 -21 19 -59 60 -104 7 -8
24 -26 36 -40 l24 -26 -21 -21 c-14 -14 -34 -21 -61 -21 -29 0 -42 -5 -50 -20
-9 -17 -6 -22 24 -36 41 -20 92 -13 130 17 38 30 35 71 -13 133 -68 90 -74
103 -56 110 9 3 31 6 49 6 38 0 78 26 74 48 -4 19 -21 21 -73 10z"/>
<path d="M14237 7343 c-4 -3 -20 -6 -35 -5 -20 0 -50 -15 -97 -51 -79 -60
-103 -89 -114 -140 -8 -32 -5 -39 23 -66 55 -53 125 -35 172 44 14 25 30 45
35 45 5 0 24 -31 43 -68 37 -73 79 -109 96 -82 6 8 10 29 10 47 0 25 -6 35
-27 45 -29 14 -60 84 -62 138 -1 36 -20 100 -30 100 -4 0 -11 -3 -14 -7z m-62
-104 c11 -16 -24 -97 -48 -114 -12 -8 -34 -15 -50 -15 -58 0 -43 63 28 112 43
30 60 34 70 17z"/>
<path d="M14947 7336 c-89 -24 -143 -101 -131 -184 13 -91 44 -124 135 -143
47 -10 56 -9 103 14 60 30 94 63 80 77 -7 7 -24 5 -50 -6 -21 -9 -67 -17 -101
-18 -52 -1 -65 3 -87 23 -67 63 0 182 112 200 28 5 37 11 37 26 0 25 -32 29
-98 11z"/>
<path d="M13032 7302 c-10 -10 -30 -34 -45 -54 -27 -35 -28 -38 -13 -67 9 -16
16 -41 16 -54 0 -29 34 -76 46 -64 5 4 7 29 5 55 -7 84 -3 116 15 129 26 19
31 17 86 -35 50 -48 57 -65 75 -169 7 -41 31 -51 43 -18 29 76 -115 295 -194
295 -9 0 -24 -8 -34 -18z"/>
<path d="M14561 7309 c-14 -5 -32 -19 -40 -31 -39 -52 -50 -59 -73 -47 -40 22
-40 -33 2 -110 14 -28 47 -27 55 2 20 77 32 100 56 118 64 45 109 4 109 -98 0
-73 12 -103 40 -103 18 0 20 7 20 58 0 162 -71 250 -169 211z"/>
<path d="M16496 7188 c-22 -34 -21 -202 1 -239 24 -41 104 -52 287 -40 16 1
18 7 12 49 -3 26 -8 62 -12 79 -3 18 -3 41 1 50 4 10 8 31 8 48 1 26 -4 31
-39 41 -21 6 -61 9 -89 7 -31 -3 -67 1 -95 11 -57 20 -57 20 -74 -6z m206
-111 c12 -19 21 -77 13 -85 -10 -10 -75 69 -75 92 0 15 5 17 27 11 15 -3 31
-12 35 -18z"/>
<path d="M16720 6845 c-14 -42 0 -75 33 -75 31 0 47 18 47 55 0 63 -61 79 -80
20z"/>
<path d="M9187 7613 c-29 -111 -30 -125 -1 -156 40 -43 52 -24 53 85 0 135
-25 170 -52 71z"/>
<path d="M1660 7598 c-175 -7 -356 -15 -480 -22 -30 -2 -116 -9 -190 -16 -74
-7 -214 -12 -310 -11 -164 2 -177 1 -194 -18 -16 -17 -18 -42 -18 -223 0 -112
2 -255 6 -318 8 -147 8 -147 -9 -340 -7 -74 -21 -277 -30 -426 -3 -55 -2 -119
3 -142 5 -22 7 -44 4 -47 -3 -3 -7 -40 -8 -83 -1 -42 -6 -111 -11 -152 -4 -41
-7 -172 -7 -290 2 -298 13 -993 17 -1060 3 -44 41 -284 63 -397 2 -12 14 -33
27 -47 22 -24 22 -24 147 -16 185 12 852 -2 908 -19 18 -5 69 -9 115 -9 45 1
111 -2 147 -6 118 -13 642 -14 680 -1 22 8 58 9 95 5 81 -9 354 13 405 33 21
8 147 19 193 18 21 -1 71 5 110 13 150 31 282 39 657 43 212 2 405 4 430 5 71
2 286 -11 382 -23 47 -7 98 -9 112 -5 25 6 25 7 20 94 -3 48 -10 123 -16 167
-6 44 -12 105 -13 135 -1 30 -6 127 -11 215 -11 192 -9 546 5 820 13 275 4
685 -24 1030 -2 28 -9 122 -14 210 -6 88 -12 192 -15 230 -3 39 -10 142 -16
230 -12 184 -28 295 -46 319 -18 26 -149 37 -472 41 -155 2 -287 7 -294 11 -6
4 -302 9 -657 10 -355 2 -680 5 -721 8 -41 3 -122 8 -180 12 -58 3 -109 9
-114 12 -5 2 -74 6 -155 8 -80 2 -189 5 -241 7 -52 1 -178 -1 -280 -5z m665
-108 c61 -6 121 -14 135 -17 27 -6 781 -15 1085 -13 44 1 166 -2 270 -6 105
-3 314 -7 465 -8 257 -2 412 -14 433 -35 4 -4 12 -79 18 -167 5 -87 14 -206
20 -264 5 -58 12 -139 13 -180 2 -41 9 -160 15 -265 32 -571 38 -814 26 -1045
-15 -268 -7 -1037 11 -1089 2 -7 7 -70 10 -139 l6 -125 -94 8 c-156 12 -949 8
-1153 -6 -127 -9 -278 -27 -420 -50 -38 -6 -91 -10 -118 -10 -26 1 -78 -6
-115 -15 -40 -9 -124 -17 -212 -19 -80 -2 -194 -6 -255 -9 -60 -4 -238 -2
-395 3 -398 15 -467 18 -519 30 -25 5 -179 13 -341 16 -343 8 -374 7 -498 -5
-141 -15 -146 -12 -166 105 -3 17 -12 56 -21 87 -27 99 -28 116 -30 518 -1
217 -5 438 -9 492 -13 158 -13 359 0 428 6 36 14 202 18 370 3 168 11 359 17
425 12 139 14 333 6 635 -6 206 1 291 23 314 5 5 96 11 202 12 106 2 234 6
283 9 50 2 182 10 295 16 113 6 214 11 225 12 72 7 680 -4 770 -13z"/>
<path d="M1257 7002 c-10 -10 -17 -24 -17 -30 0 -13 -56 -121 -71 -136 -5 -6
-9 -18 -9 -28 0 -14 -25 -50 -96 -137 -12 -14 -97 105 -109 151 -4 14 -26 47
-50 74 l-44 49 -21 -25 c-20 -23 -21 -33 -15 -155 5 -117 -3 -279 -21 -436 -6
-50 -4 -58 17 -77 28 -27 46 -28 53 -4 2 9 7 118 11 242 3 124 9 235 12 248 5
23 28 26 28 4 0 -7 12 -27 26 -45 14 -17 28 -39 31 -47 3 -9 24 -28 46 -44 59
-40 67 -33 187 158 37 60 37 60 50 36 7 -14 11 -28 9 -31 -2 -4 1 -30 6 -58 5
-29 12 -109 15 -179 4 -70 10 -145 15 -167 5 -22 10 -58 10 -81 0 -34 4 -43
27 -53 36 -16 46 0 38 64 -3 28 -8 79 -11 115 -2 36 -9 108 -14 160 -6 52 -13
127 -16 165 -10 135 -22 210 -38 248 -18 42 -26 45 -49 19z"/>
<path d="M3670 7005 c-9 -11 -8 -25 5 -67 10 -29 21 -57 26 -62 5 -6 9 -21 9
-35 0 -15 7 -57 15 -96 15 -75 27 -181 28 -256 1 -38 5 -47 26 -57 33 -16 51
0 51 45 0 45 47 142 73 152 76 28 174 -95 191 -241 6 -50 11 -59 37 -72 28
-14 29 -14 36 12 8 30 8 34 -8 112 -15 74 -23 94 -75 172 -33 49 -59 75 -96
96 -49 29 -53 29 -95 17 -24 -7 -52 -24 -62 -37 -11 -12 -22 -20 -26 -16 -6 6
-28 99 -39 169 -3 20 -8 42 -10 50 -3 8 -10 33 -16 56 -10 40 -32 73 -49 73
-5 0 -14 -7 -21 -15z"/>
<path d="M2846 6981 c-14 -16 -16 -34 -11 -137 7 -150 14 -224 20 -235 3 -4 0
-47 -7 -94 l-12 -86 31 -30 31 -31 11 51 c21 97 5 507 -21 559 -14 27 -20 27
-42 3z"/>
<path d="M3123 6913 c-24 -9 -15 -53 13 -63 38 -15 44 -13 44 18 0 42 -23 59
-57 45z"/>
<path d="M3451 6891 c-10 -6 -12 -20 -8 -47 3 -22 2 -57 -1 -79 -6 -32 -14
-43 -46 -61 -83 -47 -67 -85 37 -93 5 -1 5 -36 2 -79 -6 -67 -5 -81 10 -96 10
-9 27 -16 39 -14 24 3 34 45 35 139 1 73 17 88 96 90 64 2 98 14 92 32 -4 12
-104 35 -159 36 -31 1 -37 5 -47 32 -6 18 -11 41 -12 53 0 12 -6 38 -12 58 -9
28 -15 35 -26 29z"/>
<path d="M3157 6700 c-27 -44 -40 -185 -22 -220 31 -61 48 -43 59 60 4 36 14
89 23 118 14 46 14 55 2 63 -25 16 -44 10 -62 -21z"/>
<path d="M2090 6630 c-8 -5 -42 -33 -74 -63 l-59 -55 13 -94 c14 -108 21 -124
53 -130 24 -5 24 -4 30 105 4 87 9 114 24 136 30 40 68 39 107 -2 43 -46 63
-89 75 -166 6 -35 12 -66 14 -68 3 -2 17 -5 33 -6 29 -2 29 -2 27 54 -4 69
-57 172 -124 238 -57 56 -89 70 -119 51z"/>
<path d="M2523 6621 c-12 -3 -42 -23 -66 -43 -34 -30 -46 -48 -55 -87 -12 -54
1 -121 25 -121 8 0 28 -10 44 -22 47 -35 123 -30 183 12 52 35 70 69 61 116
-6 32 -60 104 -78 104 -6 0 -18 6 -26 13 -26 22 -65 34 -88 28z m94 -93 c32
-29 34 -53 7 -90 -29 -39 -78 -68 -115 -68 -24 0 -27 4 -33 49 -8 58 3 91 39
120 31 24 67 20 102 -11z"/>
<path d="M1670 6603 c-83 -13 -147 -74 -159 -150 -12 -75 26 -183 64 -183 6 0
18 -12 26 -26 20 -38 50 -46 106 -28 62 19 136 86 162 146 16 38 18 53 9 84
-18 66 -58 115 -116 141 -29 12 -56 22 -60 22 -4 -1 -18 -4 -32 -6z m115 -77
c31 -13 35 -19 35 -52 0 -60 -35 -119 -101 -170 -59 -45 -89 -51 -89 -19 0 9
-12 36 -26 61 -20 34 -24 51 -19 76 21 93 112 141 200 104z"/>
<path d="M11005 7523 c-14 -13 -16 -28 -12 -69 3 -29 1 -84 -3 -123 -5 -38
-12 -107 -14 -152 -3 -46 -13 -105 -22 -132 l-16 -49 28 -29 28 -29 30 28 c31
28 96 62 119 62 16 0 188 69 204 82 18 14 0 62 -25 68 -43 10 -88 59 -135 146
-48 89 -140 214 -157 214 -5 0 -16 -8 -25 -17z m87 -170 c24 -29 108 -182 108
-195 -1 -7 -33 -28 -73 -46 -67 -31 -72 -32 -85 -15 -7 10 -10 29 -8 43 3 14
8 63 11 110 7 93 12 120 24 120 4 0 14 -8 23 -17z"/>
<path d="M17669 7439 c-8 -4 -39 -14 -69 -20 -69 -14 -211 -106 -245 -157 -39
-60 -58 -154 -52 -257 4 -81 8 -97 42 -157 20 -38 50 -78 66 -90 17 -13 50
-42 74 -64 41 -39 50 -43 130 -54 102 -14 202 -3 280 31 57 25 69 34 164 119
88 79 106 122 97 224 -19 212 -95 347 -231 410 -44 21 -229 32 -256 15z m244
-113 c46 -23 96 -84 124 -151 28 -68 35 -103 35 -187 l1 -72 -66 -62 c-81 -78
-174 -124 -270 -134 -84 -10 -96 -6 -104 31 -5 24 -9 27 -32 23 -28 -6 -113
26 -145 54 -55 49 -77 114 -77 230 -1 107 32 163 123 215 138 79 311 101 411
53z"/>
<path d="M18745 7423 c-124 -27 -255 -100 -320 -176 -20 -23 -47 -65 -62 -95
-24 -49 -25 -60 -20 -145 3 -51 8 -101 11 -112 2 -11 5 -23 5 -27 2 -19 82
-95 141 -134 36 -23 81 -54 101 -69 58 -42 135 -48 237 -19 109 32 154 56 209
110 59 60 75 101 79 204 3 103 -20 214 -65 305 -31 63 -68 98 -149 139 -29 14
-134 27 -167 19z m196 -152 c59 -57 89 -143 96 -277 8 -128 -9 -169 -85 -213
-60 -35 -172 -71 -221 -71 -16 0 -34 7 -41 15 -6 8 -22 17 -33 21 -12 4 -59
30 -103 60 -100 65 -128 112 -129 214 0 53 5 73 27 110 27 46 94 103 158 135
19 10 43 24 52 33 18 15 172 32 212 23 11 -2 41 -25 67 -50z"/>
<path d="M5925 7403 c-10 -9 -15 -25 -12 -37 36 -152 41 -199 46 -452 1 -16 8
-39 16 -50 15 -19 15 -19 33 3 13 14 23 53 31 113 12 82 15 91 33 88 20 -3 68
-75 68 -103 0 -7 10 -30 23 -49 17 -27 28 -35 47 -33 22 2 25 6 22 35 -3 43
-54 148 -96 196 -29 33 -38 38 -75 38 -35 -1 -41 2 -42 21 -2 74 -31 217 -47
233 -18 18 -27 18 -47 -3z"/>
<path d="M10187 7265 c-23 -31 -11 -57 35 -76 35 -14 181 -19 194 -6 13 13
-42 59 -93 77 -90 31 -116 32 -136 5z"/>
<path d="M10628 7273 c-21 -23 -23 -47 -5 -61 6 -5 69 -9 140 -9 139 0 146 4
104 53 -22 25 -30 27 -123 32 -89 4 -101 2 -116 -15z"/>
<path d="M9725 7259 c-33 -5 -70 -13 -82 -19 -28 -12 -30 -41 -4 -64 18 -16
26 -17 91 -5 38 7 75 18 81 26 6 7 17 13 24 13 19 0 36 25 29 44 -7 18 -40 19
-139 5z"/>
<path d="M9320 7194 c-66 -62 -76 -80 -59 -110 12 -23 49 -34 49 -15 0 5 22
34 50 64 56 62 68 100 33 105 -16 2 -38 -11 -73 -44z"/>
<path d="M6509 7200 c-7 -5 -17 -23 -23 -41 -14 -42 -29 -46 -46 -13 -15 26
-57 54 -84 54 -8 0 -28 -11 -44 -25 -17 -14 -40 -25 -51 -25 -34 0 -35 -24 -7
-123 28 -97 44 -124 70 -114 13 5 16 24 16 95 0 76 3 91 20 107 19 17 21 17
40 0 22 -20 40 -74 40 -123 0 -34 23 -53 41 -35 6 6 15 42 21 81 17 119 55 97
83 -48 9 -46 31 -69 57 -62 18 4 19 10 13 60 -15 123 -97 242 -146 212z"/>
<path d="M6735 7164 c-21 -27 -26 -43 -22 -67 18 -108 21 -118 39 -128 29 -16
39 0 44 72 3 35 7 65 9 68 2 2 10 -9 17 -25 7 -16 17 -32 23 -36 15 -12 53 -9
75 4 27 17 38 4 50 -62 10 -53 29 -80 57 -80 31 0 8 151 -33 212 -33 52 -70
60 -100 23 l-22 -28 -16 31 c-32 62 -81 68 -121 16z"/>
<path d="M9185 7061 c-12 -14 -19 -42 -22 -88 -5 -62 -3 -70 19 -91 39 -35 49
-13 46 99 -3 97 -12 114 -43 80z"/>
<path d="M7512 7028 c-13 -17 -8 -74 8 -93 14 -16 49 -11 62 9 16 23 8 75 -11
86 -26 13 -46 13 -59 -2z"/>
<path d="M7328 7006 c-24 -18 -23 -59 2 -81 19 -17 21 -17 40 0 24 22 25 43 4
73 -17 25 -23 26 -46 8z"/>
<path d="M7179 6963 c-9 -24 -7 -30 11 -45 28 -22 33 -22 53 0 13 15 14 22 4
42 -18 37 -54 38 -68 3z"/>
<path d="M6633 6733 c-26 -10 -13 -71 43 -201 26 -60 85 -122 116 -122 40 0
36 27 -12 98 -25 36 -47 85 -59 130 -25 96 -42 114 -88 95z"/>
<path d="M9168 6605 c-26 -35 -23 -98 6 -132 44 -50 59 -5 40 120 -7 43 -21
47 -46 12z"/>
<path d="M6995 6265 c-22 -8 -69 -23 -105 -34 -141 -43 -197 -78 -286 -177
-80 -90 -105 -149 -124 -286 -13 -91 1 -152 58 -258 78 -143 236 -233 432
-245 36 -2 85 -8 110 -12 124 -24 266 30 345 131 65 83 77 106 101 201 27 103
25 146 -12 271 -58 196 -165 329 -289 363 -22 6 -56 19 -75 29 -49 26 -108 33
-155 17z m150 -107 c142 -31 231 -123 289 -302 32 -98 34 -192 6 -286 -26 -89
-65 -139 -142 -186 l-63 -39 -140 0 c-159 0 -254 15 -338 52 -69 31 -108 74
-160 176 -45 88 -50 143 -23 255 16 62 28 85 82 152 35 43 78 86 96 95 100 53
136 67 211 83 84 19 95 19 182 0z"/>
<path d="M9116 6191 c-3 -5 -12 -40 -20 -78 -8 -37 -20 -82 -26 -98 -10 -26
-8 -31 12 -47 13 -10 26 -18 31 -18 16 0 57 131 57 186 0 47 -36 84 -54 55z"/>
<path d="M21414 6018 c-11 -13 -32 -42 -47 -65 -31 -49 -101 -119 -139 -137
-25 -13 -28 -12 -70 38 -25 28 -59 79 -78 114 -26 49 -38 62 -56 62 -28 0 -42
-20 -81 -113 -15 -38 -41 -84 -58 -103 l-30 -35 -30 22 c-16 12 -59 55 -94 96
-50 58 -69 73 -91 73 -24 0 -31 -9 -69 -86 -58 -120 -131 -217 -156 -208 -7 3
-42 44 -78 92 -87 116 -110 137 -135 123 -11 -6 -27 -27 -36 -48 -9 -21 -21
-46 -26 -55 -6 -10 -10 -22 -10 -27 0 -5 -18 -37 -40 -70 l-40 -60 -34 14
c-44 18 -105 52 -188 103 -95 59 -112 62 -137 21 -11 -18 -18 -36 -16 -40 14
-22 -72 -179 -99 -179 -35 0 -140 66 -244 153 -60 50 -81 55 -107 25 -19 -22
-22 -39 -23 -119 -1 -63 -8 -113 -21 -149 -18 -55 -19 -55 -57 -53 -21 2 -89
25 -151 53 -62 27 -119 50 -127 50 -8 0 -21 -14 -30 -31 -13 -26 -13 -34 -2
-52 23 -38 46 -121 49 -178 l2 -54 -36 -1 c-20 -1 -65 3 -100 8 -77 11 -118 4
-148 -23 l-22 -20 20 -37 c24 -45 41 -98 41 -126 0 -24 4 -31 77 -142 29 -43
53 -85 53 -93 0 -16 -107 -121 -122 -121 -5 0 -24 -11 -42 -25 -18 -14 -40
-25 -49 -25 -9 0 -28 -10 -43 -23 -23 -20 -25 -26 -15 -44 13 -25 49 -38 141
-52 39 -7 98 -27 148 -51 l82 -41 -17 -30 c-9 -16 -20 -29 -24 -29 -3 0 -28
-28 -55 -62 -26 -35 -70 -85 -96 -113 -26 -27 -48 -55 -48 -62 0 -18 67 -52
138 -69 37 -9 94 -22 127 -30 32 -7 68 -23 80 -35 l20 -21 -25 -16 c-13 -10
-31 -24 -40 -32 -41 -40 -133 -110 -146 -110 -8 0 -14 -5 -14 -10 0 -6 -11
-16 -25 -22 -18 -8 -25 -19 -25 -39 0 -33 13 -41 90 -59 58 -13 190 -87 190
-106 0 -18 -39 -40 -135 -74 -49 -17 -103 -39 -120 -49 -16 -10 -55 -24 -85
-31 -30 -7 -62 -19 -71 -27 -9 -7 -29 -16 -45 -18 -124 -19 -156 -25 -204 -39
-138 -40 -583 -63 -609 -32 -6 7 -14 73 -17 152 -8 192 -16 199 -120 96 -39
-38 -115 -95 -174 -132 -58 -35 -106 -68 -108 -72 -2 -4 -11 -8 -19 -8 -8 0
-41 -15 -72 -33 -31 -18 -69 -40 -86 -49 -55 -30 -59 -49 -24 -96 22 -30 38
-42 56 -42 14 0 42 -8 62 -19 68 -36 196 -89 231 -96 19 -4 52 -16 72 -26 21
-11 43 -19 51 -19 7 0 37 -12 65 -26 79 -39 84 -31 76 121 l-7 123 39 5 c21 3
102 5 179 6 161 0 349 19 425 42 19 6 64 17 100 24 71 14 142 37 205 65 22 10
58 24 80 30 22 6 49 15 60 19 11 4 45 16 75 26 30 9 66 22 80 27 14 5 26 9 28
9 1 -1 16 6 33 15 39 20 52 6 43 -46 -11 -61 -83 -233 -119 -284 -19 -27 -35
-54 -35 -59 0 -26 39 -36 135 -37 134 -2 186 -16 198 -54 7 -20 6 -35 -1 -47
-7 -10 -15 -37 -18 -61 -4 -24 -13 -52 -20 -63 -8 -12 -15 -41 -17 -65 -2 -25
-12 -62 -23 -84 l-19 -38 24 -19 c13 -10 29 -19 35 -19 10 0 127 58 325 162
32 16 36 16 52 2 10 -9 21 -30 25 -48 3 -17 22 -76 40 -131 33 -98 65 -145 99
-145 8 0 60 45 116 100 57 55 106 100 110 100 8 0 23 -39 40 -105 14 -57 50
-141 71 -169 24 -31 58 -14 157 80 86 81 173 154 185 154 18 0 57 -56 80 -115
15 -38 32 -83 38 -98 17 -43 43 -52 81 -28 18 11 39 30 47 42 8 13 32 42 54
66 44 49 48 48 98 -26 17 -25 51 -66 75 -89 24 -24 48 -55 53 -68 22 -57 88
-53 125 8 9 17 29 40 42 52 14 11 32 34 40 50 8 16 29 40 45 54 16 14 34 36
39 49 5 12 12 23 17 23 5 0 30 -39 57 -87 53 -97 90 -143 115 -143 8 0 30 26
48 58 18 31 46 77 62 102 16 25 37 60 47 78 29 56 45 42 81 -73 26 -85 37
-108 57 -117 31 -14 52 -5 73 32 9 17 34 54 55 83 22 28 48 69 58 90 34 65 47
62 104 -29 79 -125 138 -194 167 -194 19 0 48 43 90 130 55 115 65 134 76 138
13 4 74 -93 97 -153 19 -51 73 -115 96 -115 26 0 36 15 83 113 35 75 50 98 63
95 10 -2 47 -54 84 -118 86 -147 96 -160 118 -160 39 0 59 47 101 233 20 87
29 87 91 -1 73 -104 134 -164 162 -160 22 3 48 49 144 256 l38 82 23 -27 c13
-16 41 -59 64 -98 46 -79 114 -155 139 -155 26 0 35 17 68 130 18 58 37 122
43 143 6 20 15 37 20 37 5 0 41 -31 81 -70 52 -50 88 -75 129 -91 55 -20 59
-20 83 -5 14 9 24 20 21 24 -13 22 -47 176 -53 238 l-5 71 103 6 c57 3 139 4
182 3 64 -2 82 0 102 16 20 15 22 23 15 47 -14 48 -59 119 -89 138 -28 18
-101 99 -101 111 1 19 26 37 126 88 118 59 136 81 113 135 -10 26 -136 124
-216 169 -24 13 -43 31 -43 39 0 9 22 35 48 57 26 23 77 81 112 130 50 69 64
95 63 122 -1 18 -3 36 -6 38 -2 3 -52 7 -111 9 -58 2 -110 6 -115 9 -5 3 -28
8 -51 11 -46 6 -110 30 -110 41 0 9 15 57 41 129 35 102 42 134 35 182 -9 66
-25 80 -73 65 -21 -7 -48 -14 -60 -15 -12 -2 -26 -6 -29 -10 -10 -10 -106 -8
-123 2 -7 5 -11 13 -8 18 16 26 48 220 42 257 -12 75 -47 105 -84 72 -9 -8
-32 -18 -51 -24 -19 -5 -59 -19 -87 -31 l-53 -21 -14 23 c-8 12 -17 58 -21
102 -8 101 -21 152 -41 163 -11 6 -31 1 -63 -16 -26 -14 -54 -23 -63 -20 -13
6 -12 15 13 64 28 55 37 116 21 141 -5 8 -39 12 -98 12 -135 0 -146 9 -114 94
10 28 22 72 25 98 6 42 5 46 -20 57 -15 7 -71 12 -133 12 -111 0 -132 7 -132
42 0 9 13 32 28 50 56 65 74 170 36 208 -19 19 -26 20 -119 10 -55 -5 -112
-12 -126 -16 l-27 -5 0 121 c0 102 -2 124 -17 141 -22 23 -41 19 -99 -22 -127
-91 -155 -108 -188 -117 l-37 -10 -25 66 c-14 37 -32 85 -39 107 -8 23 -25 46
-39 54 -25 15 -28 13 -110 -70 -96 -97 -130 -118 -152 -99 -9 6 -22 24 -30 39
-44 84 -70 128 -84 144 -14 16 -17 16 -38 2 -13 -8 -58 -49 -101 -91 -78 -76
-126 -109 -142 -100 -15 10 -110 155 -126 194 -18 41 -52 82 -70 82 -6 0 -20
-10 -31 -22z m79 -196 c27 -42 62 -98 78 -124 26 -44 32 -48 67 -48 40 0 32
-6 200 150 24 22 47 38 51 35 5 -2 22 -33 39 -68 30 -63 73 -117 93 -117 27 0
111 55 167 109 35 34 66 61 71 61 4 0 23 -45 41 -100 49 -146 46 -145 176 -69
60 35 120 77 135 94 42 46 51 27 50 -103 -1 -148 -6 -145 159 -108 41 9 86 14
99 11 20 -5 22 -10 17 -41 -4 -19 -25 -67 -46 -107 -74 -135 -50 -163 144
-161 l118 2 -5 -34 c-3 -18 -17 -48 -30 -66 -43 -58 -57 -91 -44 -109 23 -31
63 -43 165 -47 l104 -5 -6 -29 c-3 -16 -33 -78 -66 -139 -73 -131 -75 -154
-12 -153 33 1 50 8 75 31 78 73 130 92 140 51 3 -13 6 -66 7 -118 0 -52 6
-106 13 -120 18 -38 61 -37 126 2 86 53 100 59 129 61 l27 2 -1 -85 c-1 -69
-6 -96 -28 -145 -16 -35 -25 -69 -22 -82 10 -39 99 -45 212 -16 39 10 77 17
83 15 16 -5 14 -82 -3 -128 -8 -22 -29 -72 -45 -113 -17 -40 -31 -81 -31 -91
0 -25 62 -77 107 -89 21 -6 86 -11 144 -11 81 0 108 -3 112 -14 9 -22 -76
-134 -134 -177 -80 -60 -99 -80 -99 -104 0 -29 17 -43 144 -117 134 -77 143
-89 98 -129 -18 -16 -40 -29 -49 -29 -9 0 -24 -6 -32 -13 -9 -8 -36 -22 -61
-31 -111 -43 -109 -73 15 -192 52 -50 95 -98 95 -107 0 -14 -11 -17 -57 -18
-32 0 -74 -2 -93 -4 -75 -8 -146 -14 -167 -15 -41 0 -45 -29 -23 -162 23 -142
23 -138 11 -138 -9 0 -115 104 -157 154 -15 17 -28 23 -42 19 -43 -11 -67 -55
-101 -183 -19 -69 -37 -110 -49 -110 -4 0 -31 40 -61 88 -76 123 -118 172
-145 172 -18 0 -29 -16 -64 -92 -24 -51 -56 -121 -72 -156 -17 -34 -30 -69
-30 -76 0 -24 -29 -26 -51 -3 -27 29 -101 152 -127 211 -12 25 -28 49 -37 53
-22 8 -61 -39 -76 -92 -6 -22 -19 -67 -29 -100 -10 -33 -21 -77 -24 -97 -4
-21 -11 -40 -15 -43 -9 -5 -68 83 -111 165 -37 71 -60 100 -80 100 -31 0 -76
-53 -113 -133 -20 -42 -40 -77 -45 -77 -14 0 -30 22 -37 52 -4 15 -15 34 -26
44 -10 9 -19 22 -20 28 0 16 -71 118 -90 129 -25 16 -64 -19 -99 -87 -16 -33
-30 -66 -30 -73 0 -8 -14 -35 -32 -60 l-31 -47 -27 33 c-15 18 -51 72 -80 121
-29 49 -63 99 -76 111 l-23 22 -45 -37 c-25 -20 -48 -45 -51 -56 -4 -11 -11
-20 -16 -20 -5 0 -9 -6 -9 -12 0 -7 -19 -42 -42 -77 -37 -59 -42 -63 -54 -46
-13 18 -29 64 -55 158 -8 26 -23 57 -34 67 -20 19 -21 19 -53 -1 -24 -14 -43
-41 -70 -97 -42 -90 -99 -177 -115 -177 -7 0 -34 41 -62 90 -80 144 -87 151
-133 132 -34 -14 -87 -77 -121 -144 -28 -56 -79 -113 -100 -113 -43 0 -103 77
-165 211 -52 115 -63 114 -138 -9 -62 -100 -114 -118 -129 -43 -6 28 -65 124
-107 174 -27 31 -52 19 -147 -75 -137 -137 -174 -168 -194 -168 -19 0 -25 16
-66 190 -21 89 -35 120 -53 120 -20 0 -95 -58 -117 -90 -9 -14 -32 -36 -51
-50 -19 -14 -44 -33 -56 -43 -49 -40 -56 -31 -119 175 -18 59 -38 110 -46 112
-20 8 -115 -24 -146 -50 -31 -26 -118 -72 -160 -84 -51 -16 -52 33 -2 170 9
25 19 73 22 107 6 62 6 63 -23 74 -25 9 -230 49 -255 49 -5 0 -9 5 -9 12 0 16
61 169 77 193 7 11 13 28 13 38 0 11 16 54 35 97 19 43 35 85 35 94 0 17 -50
52 -150 103 -102 52 -180 104 -180 119 0 7 13 20 30 29 37 19 148 97 177 124
25 24 36 57 31 92 -2 19 -11 25 -48 31 -25 4 -67 19 -93 33 -27 14 -64 25 -82
25 -32 0 -98 23 -122 42 -19 16 21 71 117 159 83 77 118 130 101 157 -3 6 -37
20 -74 32 -38 12 -87 32 -110 45 -23 12 -63 30 -89 40 -27 10 -48 23 -48 30 0
6 17 19 37 29 51 24 131 93 149 128 18 34 13 53 -21 90 -66 71 -160 268 -135
283 4 3 50 1 102 -5 51 -5 116 -10 144 -10 45 0 52 3 62 25 17 37 15 50 -14
84 -18 22 -28 50 -35 97 -5 37 -8 69 -6 71 2 1 26 -4 53 -12 27 -8 57 -15 67
-15 11 0 32 -9 48 -21 42 -30 88 -23 115 18 31 46 51 117 58 203 4 41 8 76 10
78 2 2 29 -14 61 -35 169 -113 241 -151 269 -140 15 6 112 165 118 193 6 34
50 28 147 -20 50 -24 103 -54 117 -65 36 -28 66 -26 99 7 30 29 107 144 119
177 6 17 15 11 69 -47 34 -37 76 -83 93 -103 56 -64 102 -41 171 85 75 136 96
170 103 170 4 0 48 -40 98 -90 50 -49 98 -90 107 -90 36 0 73 34 104 96 17 34
31 69 31 76 0 15 19 38 32 38 4 0 27 -26 50 -59 24 -32 60 -76 80 -99 35 -39
38 -40 72 -31 20 6 36 14 36 18 0 5 29 38 64 74 35 36 72 79 82 96 10 17 23
31 29 31 5 0 32 -35 58 -78z"/>
<path d="M20915 5180 c-14 -16 -15 -26 -5 -81 6 -35 16 -84 22 -109 13 -53 13
-77 -1 -149 -11 -60 -30 -85 -81 -110 -57 -28 -132 -8 -166 44 -34 52 8 97
120 129 50 14 60 46 23 71 -23 15 -29 14 -93 -9 -80 -29 -128 -74 -138 -130
-6 -30 -2 -49 18 -90 36 -70 99 -110 178 -110 50 -1 61 3 88 29 17 16 33 40
36 52 5 20 12 22 53 20 l46 -2 0 65 c0 46 5 74 18 93 37 57 74 21 86 -86 10
-90 14 -97 52 -97 28 0 29 1 29 49 0 28 -7 80 -16 117 -32 138 -63 161 -166
119 -13 -5 -18 3 -27 47 -32 153 -43 174 -76 138z"/>
<path d="M19310 5105 c-14 -8 -36 -14 -50 -15 -32 0 -50 -17 -50 -45 0 -45 47
-58 114 -30 80 34 119 -10 114 -128 l-3 -72 -113 0 -114 0 -29 -33 c-37 -41
-37 -74 2 -123 31 -39 75 -59 133 -59 39 0 109 36 127 66 l15 24 67 -55 c63
-52 90 -65 101 -47 10 17 -34 89 -84 136 -49 45 -52 50 -45 85 4 20 9 71 12
114 4 70 2 82 -21 121 -39 66 -117 93 -176 61z m32 -365 c21 -6 40 -16 44 -22
11 -18 -52 -68 -85 -68 -37 0 -81 35 -81 65 0 34 52 44 122 25z"/>
<path d="M20190 5088 c-11 -18 -39 -71 -61 -118 -23 -47 -61 -126 -86 -176
-47 -95 -50 -119 -20 -138 35 -22 57 9 156 224 24 52 52 106 61 120 31 45 30
76 -2 100 l-28 21 -20 -33z"/>
<path d="M22301 5098 c-65 -18 -101 -80 -101 -176 0 -40 -16 -72 -35 -72 -7 0
-27 -12 -44 -26 -40 -34 -67 -25 -82 27 -16 51 -3 80 51 114 41 26 51 51 25
61 -28 11 -61 -5 -108 -53 -53 -53 -68 -106 -47 -167 9 -29 21 -40 66 -60 30
-14 62 -22 72 -19 22 8 70 60 78 85 8 28 29 22 55 -17 42 -62 157 -98 189 -60
7 8 18 15 24 15 23 1 84 66 90 98 10 43 -9 43 -75 -3 -62 -42 -121 -48 -139
-14 -14 25 -17 22 47 49 66 28 123 88 123 130 0 80 -83 119 -189 88z m102 -72
c37 -28 14 -60 -63 -89 -36 -14 -47 -15 -57 -4 -16 16 0 82 25 96 24 15 74 13
95 -3z"/>
<path d="M19715 5071 c-73 -45 -96 -100 -94 -223 2 -140 22 -172 121 -203 55
-17 60 -17 103 -1 86 33 127 116 105 216 -16 74 -55 142 -107 190 -48 45 -81
51 -128 21z m93 -78 c35 -31 73 -119 79 -182 l6 -59 -43 -22 c-79 -40 -142 -5
-156 86 -10 70 4 133 36 166 33 32 50 35 78 11z"/>
<path d="M19957 5039 c-20 -27 -12 -52 23 -72 35 -21 56 -22 64 -1 7 18 -2 63
-17 82 -15 19 -54 14 -70 -9z"/>
<path d="M21444 5012 c-60 -49 -79 -62 -90 -62 -20 0 -63 -66 -73 -111 -6 -24
-11 -65 -11 -91 0 -55 23 -78 78 -78 48 0 67 13 116 81 l44 60 18 -30 c15 -25
25 -31 51 -31 26 0 33 4 33 20 l0 20 20 -20 c26 -26 67 -26 75 0 3 11 4 24 1
28 -7 12 14 93 32 120 8 12 20 22 27 22 19 0 35 -54 35 -116 0 -62 16 -104 40
-104 27 0 38 20 43 80 4 39 0 72 -14 115 -35 107 -102 136 -162 71 -92 -100
-97 -109 -98 -156 l0 -45 -14 30 c-7 17 -23 63 -36 103 -21 70 -40 102 -59
102 -5 0 -14 2 -22 5 -7 2 -23 -3 -34 -13z m14 -175 c-46 -82 -61 -98 -87 -95
-23 3 -26 8 -29 45 -4 52 15 82 76 123 l47 31 3 -40 c2 -23 -3 -51 -10 -64z"/>
<path d="M20233 4748 c-33 -16 -36 -56 -5 -85 33 -30 64 -26 76 10 8 22 6 32
-10 54 -24 32 -32 35 -61 21z"/>
<path d="M19800 4383 c-14 -2 -32 -14 -41 -25 -14 -18 -14 -26 0 -84 19 -82
12 -90 -93 -103 -61 -7 -87 -6 -117 5 -45 15 -84 10 -145 -18 -49 -23 -114
-117 -114 -166 0 -32 42 -77 102 -108 93 -48 218 35 218 146 0 41 3 49 23 54
31 8 120 7 134 -2 11 -7 22 -73 28 -171 2 -44 22 -71 52 -71 22 0 24 21 15
136 -5 60 -7 114 -5 121 7 19 62 33 129 33 66 0 79 8 69 39 -4 14 -19 20 -58
25 -148 18 -144 17 -156 43 -6 13 -11 35 -11 48 0 20 7 25 38 31 20 4 61 8 91
8 30 1 56 6 58 12 10 29 -142 62 -217 47z m-271 -285 c5 -13 12 -42 16 -65 6
-38 4 -45 -25 -73 -17 -16 -37 -30 -45 -30 -7 0 -20 -3 -29 -6 -10 -4 -19 5
-29 29 -8 19 -20 38 -26 41 -22 14 -12 64 20 95 24 24 39 31 70 31 32 0 41 -4
48 -22z"/>
<path d="M21365 4380 c-3 -5 -3 -78 -1 -162 5 -143 -5 -245 -30 -337 -8 -26
15 -51 45 -51 22 0 48 71 55 149 7 74 12 84 32 56 87 -123 116 -147 192 -160
37 -6 42 -4 42 11 0 11 -31 48 -68 84 -69 65 -108 122 -97 140 3 6 20 10 37
10 35 0 88 34 88 57 0 14 -11 15 -77 9 -43 -3 -88 -9 -100 -12 -28 -8 -36 11
-52 115 -6 41 -16 81 -23 88 -12 15 -34 17 -43 3z"/>
<path d="M21735 4260 c-15 -17 -16 -24 -7 -45 20 -43 80 -27 68 19 -9 38 -39
50 -61 26z"/>
<path d="M20769 4249 c-15 -28 3 -69 30 -69 53 0 67 34 31 70 -26 26 -46 25
-61 -1z"/>
<path d="M22495 4213 c-11 -3 -27 -10 -35 -17 -8 -7 -27 -18 -42 -25 -76 -38
-138 -119 -140 -182 -1 -39 36 -79 74 -79 28 0 67 15 78 29 14 19 71 51 80 46
26 -16 54 -92 54 -146 1 -68 -11 -84 -82 -116 -58 -25 -106 -24 -149 3 -20 13
-24 12 -38 -10 -22 -34 -6 -62 51 -87 62 -28 128 -18 204 32 80 51 95 77 94
158 0 47 -11 97 -36 176 -20 61 -41 132 -48 160 -10 44 -25 67 -40 64 -3 -1
-14 -4 -25 -6z m-38 -130 c5 -13 -57 -73 -74 -73 -23 0 -14 31 17 62 29 29 50
33 57 11z"/>
<path d="M22050 4184 c-19 -8 -44 -13 -54 -10 -38 10 -47 -11 -40 -98 7 -99
28 -162 57 -170 32 -8 35 -1 30 60 -6 62 13 144 32 144 27 0 46 -39 54 -114
10 -84 21 -106 58 -106 33 0 38 21 24 103 -15 91 -27 123 -64 170 -32 41 -45
44 -97 21z"/>
<path d="M20535 4113 c-88 -20 -94 -23 -118 -68 l-25 -44 21 -27 c54 -69 93
-288 62 -348 -16 -30 -11 -52 15 -66 13 -7 22 -4 36 11 17 19 19 38 19 160 l0
139 45 0 c38 0 51 6 88 39 36 33 42 44 42 78 0 82 -95 147 -185 126z m100 -89
c32 -50 5 -84 -68 -84 -50 0 -65 88 -17 101 48 13 67 9 85 -17z"/>
<path d="M21094 4088 c-57 -38 -140 -119 -149 -147 -19 -60 83 -128 192 -130
32 0 69 -3 85 -6 21 -5 33 -1 53 19 40 40 26 51 -71 53 -74 1 -91 5 -126 28
l-39 26 20 31 c11 18 43 46 73 63 54 32 74 69 46 86 -21 14 -32 11 -84 -23z"/>
<path d="M21775 4084 c-16 -25 -16 -35 -5 -116 14 -94 23 -108 61 -88 20 11
21 17 15 80 -7 77 -25 142 -42 147 -6 2 -19 -8 -29 -23z"/>
<path d="M20785 4034 c-11 -11 -14 -24 -10 -38 4 -12 10 -54 14 -94 7 -73 17
-92 52 -92 44 0 47 140 5 202 -26 39 -39 44 -61 22z"/>
<path d="M23620 3653 c-22 -28 -22 -43 -4 -219 6 -56 30 -88 61 -82 20 4 20 2
10 186 -7 141 -24 170 -67 115z"/>
<path d="M22234 3575 c-14 -21 -15 -35 -5 -107 l12 -83 -28 -20 c-40 -29 -73
-63 -73 -74 0 -5 20 -19 45 -31 41 -20 45 -25 45 -58 0 -48 38 -129 65 -136
34 -9 45 20 45 120 l0 92 42 14 c77 25 76 61 -4 74 -21 4 -42 12 -48 19 -5 6
-15 47 -21 91 -11 77 -30 124 -49 124 -5 0 -17 -11 -26 -25z"/>
<path d="M19524 3575 c-16 -12 -16 -16 0 -75 12 -42 16 -79 12 -110 -4 -33 -2
-52 10 -68 12 -18 15 -42 12 -104 l-3 -82 34 -23 c30 -20 46 -23 130 -23 99 0
145 15 178 59 23 30 15 86 -20 137 -37 54 -68 73 -170 104 -70 22 -90 40 -102
95 -21 93 -43 118 -81 90z m253 -290 c110 -70 95 -122 -39 -131 -40 -3 -79 -1
-87 4 -16 12 -29 77 -21 116 3 16 13 32 24 36 27 9 89 -3 123 -25z"/>
<path d="M20762 3549 c-4 -11 -4 -46 0 -77 15 -104 7 -132 -37 -132 -12 0 -28
-7 -35 -15 -21 -25 -7 -49 35 -61 l40 -11 -3 -74 c-3 -85 3 -99 43 -102 27 -2
30 2 37 38 4 22 7 66 7 97 1 65 7 71 83 82 95 14 75 76 -24 76 -56 0 -62 8
-77 98 -11 71 -26 102 -47 102 -8 0 -18 -9 -22 -21z"/>
<path d="M21375 3489 c-5 -16 0 -28 19 -47 25 -25 27 -26 43 -9 16 16 16 20 3
45 -20 35 -56 41 -65 11z"/>
<path d="M20455 3454 c-22 -8 -48 -18 -58 -21 -9 -3 -20 -17 -24 -31 -5 -23 1
-32 43 -67 77 -64 114 -102 114 -119 0 -10 -18 -21 -51 -30 -48 -15 -53 -14
-91 5 -33 17 -42 18 -49 7 -15 -22 -5 -40 32 -60 57 -29 107 -32 160 -9 45 20
64 46 59 81 -1 8 -24 46 -51 83 -27 37 -50 72 -52 77 -1 5 14 17 33 27 26 13
35 24 35 43 0 21 -5 25 -30 27 -16 2 -48 -4 -70 -13z"/>
<path d="M21974 3434 c-28 -19 -60 -51 -70 -70 l-19 -36 30 -24 c17 -13 45
-31 63 -39 68 -33 25 -94 -58 -80 -41 7 -41 7 -38 -21 2 -20 12 -33 33 -43 26
-13 35 -12 80 3 66 24 85 42 85 83 0 27 -10 45 -47 84 -45 49 -47 52 -33 76 8
14 30 31 49 37 36 12 45 23 33 43 -17 27 -56 23 -108 -13z"/>
<path d="M20090 3423 c-8 -4 -21 -14 -28 -25 -7 -10 -20 -18 -27 -18 -8 0 -21
-12 -29 -28 -8 -15 -23 -36 -35 -46 -16 -15 -21 -31 -21 -73 0 -60 1 -61 103
-129 54 -36 79 -46 120 -50 51 -4 53 -3 91 41 21 25 36 48 33 51 -3 3 -25 2
-49 -3 -24 -5 -60 -6 -81 -2 -39 6 -81 38 -61 45 42 16 121 80 137 110 37 71
-7 135 -92 133 -25 0 -53 -3 -61 -6z m105 -73 c0 -8 -22 -31 -50 -52 -55 -41
-108 -51 -119 -22 -8 20 7 39 54 70 40 27 115 30 115 4z"/>
<path d="M23129 3400 c-43 -22 -86 -71 -95 -106 -8 -32 -30 -30 -48 5 -17 32
-81 91 -99 91 -15 0 -70 -57 -82 -85 -5 -11 -11 -49 -14 -85 -5 -49 -10 -65
-21 -65 -19 0 -55 72 -75 150 -15 63 -42 95 -77 95 -50 0 -178 -188 -178 -261
0 -25 74 -63 106 -55 16 4 35 26 55 62 28 49 33 53 44 37 7 -10 15 -28 19 -40
9 -27 52 -63 76 -63 10 0 23 7 30 15 7 8 27 14 47 13 44 -2 53 12 53 84 0 101
19 114 63 41 16 -25 38 -77 50 -114 24 -76 38 -88 65 -59 17 19 22 19 58 7 49
-17 97 -7 132 26 21 20 31 24 45 16 9 -6 60 -11 111 -12 106 -2 136 12 136 64
0 37 -14 44 -46 23 -30 -20 -117 -22 -140 -3 -23 19 -16 37 19 44 17 4 58 23
89 43 66 43 74 72 33 116 -19 21 -33 26 -69 26 -71 0 -95 -26 -161 -175 -33
-75 -51 -95 -86 -95 -38 0 -69 41 -69 92 0 49 24 108 44 108 9 0 23 12 32 26
15 22 15 27 3 39 -12 11 -20 11 -50 -5z"/>
<path d="M21356 3345 c-14 -22 -15 -36 -8 -93 6 -38 8 -82 6 -99 -4 -35 11
-58 43 -68 30 -9 36 19 31 145 -3 79 -7 103 -22 119 -24 27 -30 26 -50 -4z"/>
<path d="M21639 3353 c-72 -44 -100 -263 -34 -263 26 0 37 31 39 111 2 83 10
99 48 99 25 0 40 -36 43 -102 3 -61 16 -88 45 -88 33 0 43 26 38 95 -7 77 -37
131 -84 151 -43 18 -63 17 -95 -3z"/>
<path d="M23672 3160 c-22 -36 -8 -72 35 -84 18 -6 25 -1 38 24 15 29 15 34 0
56 -19 29 -56 31 -73 4z"/>
<path d="M13165 5826 c-81 -12 -970 -14 -1069 -3 -71 8 -81 7 -93 -9 -15 -21
-17 -91 -3 -150 17 -73 12 -396 -6 -414 -6 -6 -87 -15 -180 -20 -178 -10 -307
-29 -327 -49 -14 -14 -14 -85 -3 -251 5 -63 10 -167 11 -230 l3 -115 33 -17
c26 -14 63 -17 193 -18 89 -1 166 -2 171 -2 6 0 46 5 90 11 79 12 113 31 127
73 3 9 28 13 84 14 109 1 420 -23 469 -36 49 -13 5 -12 555 -3 587 10 665 9
726 -6 38 -9 69 -9 130 -1 43 6 174 11 289 11 190 -1 290 6 595 39 175 19 347
40 420 50 73 11 620 17 670 7 14 -2 37 -5 51 -6 19 -1 30 -9 39 -31 7 -18 22
-33 37 -36 37 -10 214 -10 323 -1 52 4 136 10 185 13 53 4 99 12 110 20 19 14
19 17 2 132 -19 131 -21 208 -7 267 5 22 12 79 16 126 7 84 6 86 -17 94 -13 4
-145 9 -294 10 -231 3 -271 6 -281 19 -10 14 -11 167 -3 455 1 37 -16 46 -89
44 -37 -1 -137 -2 -222 -2 -248 0 -253 0 -505 -10 -132 -5 -244 -7 -248 -4 -5
3 -64 7 -130 9 -67 2 -158 7 -202 12 -44 4 -136 4 -205 0 -69 -4 -226 -10
-350 -13 -124 -3 -232 -5 -240 -6 -8 -1 -58 2 -110 5 -52 4 -130 9 -174 11
-43 3 -83 8 -88 11 -15 10 -418 10 -483 0z m270 -82 c110 -2 223 -6 250 -10
121 -15 220 -17 525 -13 285 3 544 4 732 0 32 0 87 -5 123 -11 47 -7 141 -7
323 1 141 6 331 13 422 16 91 2 194 6 230 7 36 1 72 -2 81 -6 14 -6 16 -44 18
-324 1 -174 4 -321 7 -326 4 -6 8 -73 9 -151 l2 -140 -126 7 c-256 14 -597 5
-702 -18 -46 -10 -95 -17 -199 -26 -189 -17 -214 -21 -285 -36 -50 -11 -144
-17 -330 -19 -143 -2 -312 -6 -375 -9 -66 -3 -155 0 -208 7 -57 8 -135 10
-205 6 -111 -7 -776 -23 -872 -21 -64 1 -298 21 -395 33 -41 5 -129 12 -195
15 -66 3 -130 7 -142 10 -27 5 -31 19 -37 149 -3 55 -9 168 -14 250 -5 83 -8
249 -7 369 1 207 3 220 21 227 10 4 66 5 124 3 342 -12 762 -12 868 0 62 7
116 16 119 20 4 4 14 4 22 0 9 -4 106 -8 216 -10z m3055 -544 c11 -7 -4 -10
-48 -10 -40 0 -61 4 -57 10 8 13 85 13 105 0z m-130 -6 c0 -3 -5 -15 -12 -27
-6 -12 -13 -63 -14 -113 -4 -121 4 -129 134 -139 82 -6 97 -4 136 14 41 20 43
23 55 87 16 91 7 131 -35 152 -50 23 -42 35 22 30 74 -6 87 -23 80 -98 -10
-92 -10 -171 -2 -266 l8 -91 -43 -11 c-24 -6 -73 -14 -109 -18 -36 -3 -78 -8
-95 -10 -71 -9 -219 -3 -232 10 -1 1 -5 20 -8 42 -3 21 -9 46 -12 54 -3 8 -9
80 -14 160 -4 80 -11 155 -14 167 -12 38 25 63 95 63 33 0 60 -3 60 -6z
m-4630 -60 c0 -15 -36 -19 -64 -8 -12 5 -14 10 -6 18 13 16 70 8 70 -10z m258
13 c23 -27 34 -117 34 -268 0 -173 -10 -226 -45 -233 -12 -3 -108 -7 -214 -10
-166 -4 -194 -2 -205 11 -7 9 -14 48 -16 92 -1 42 -5 139 -8 217 -5 118 -3
142 10 153 19 16 72 11 68 -7 -1 -7 5 -27 15 -45 21 -40 26 -210 6 -235 -24
-33 -13 -92 18 -92 28 0 48 37 42 76 l-6 34 59 0 c68 0 174 30 188 53 7 11 6
45 -2 104 -14 95 -26 113 -73 113 -16 0 -40 5 -55 12 l-26 12 33 12 c49 16
164 17 177 1z m4593 -63 c18 -16 16 -44 -4 -44 -13 0 -57 40 -57 52 0 14 43 9
61 -8z m-4727 -60 c25 -24 20 -54 -7 -54 -27 0 -72 43 -62 59 9 16 51 13 69
-5z"/>
<path d="M13517 5593 c-11 -18 -9 -65 7 -151 15 -76 14 -130 -1 -155 -3 -5
-31 -7 -64 -4 -45 5 -62 3 -74 -9 -36 -37 -12 -60 72 -69 56 -7 63 -10 74 -36
6 -16 9 -53 7 -84 -4 -43 -1 -58 12 -70 26 -23 37 -2 42 83 3 40 10 78 16 84
6 6 29 12 52 13 49 3 75 24 66 53 -6 17 -15 20 -56 18 -72 -2 -80 10 -96 151
-7 65 -13 123 -14 129 0 20 -36 58 -43 47z"/>
<path d="M12261 5546 c-14 -17 -8 -48 14 -66 7 -6 35 -13 62 -15 72 -5 122
-16 130 -28 12 -19 32 -232 24 -267 -6 -32 -11 -35 -46 -40 -22 -3 -58 -2 -80
2 -29 5 -45 2 -57 -9 -15 -14 -16 -18 -2 -38 19 -30 81 -45 181 -45 94 0 138
11 163 42 25 31 9 48 -46 48 -23 0 -45 4 -48 8 -8 13 -26 171 -28 242 -2 77
11 90 93 90 64 0 81 13 53 41 -16 16 -44 20 -169 29 -83 6 -168 13 -191 16
-29 4 -44 2 -53 -10z"/>
<path d="M13171 5380 c-45 -11 -85 -42 -89 -69 -7 -44 35 -91 139 -154 15 -9
29 -27 31 -41 5 -23 1 -27 -33 -36 -21 -6 -55 -8 -76 -4 -65 10 -86 -40 -31
-74 26 -15 31 -15 97 6 69 22 96 45 102 88 5 35 -11 60 -76 123 -36 35 -65 69
-65 76 0 8 20 15 54 19 63 8 83 25 66 55 -12 23 -53 26 -119 11z"/>
<path d="M12790 5290 c-13 -32 -21 -35 -50 -20 -26 14 -35 -29 -15 -76 8 -20
14 -55 13 -78 0 -23 4 -52 11 -64 22 -41 38 -10 43 81 5 85 21 127 49 127 40
0 98 -107 99 -182 0 -53 17 -98 37 -98 32 0 -3 183 -51 264 -47 81 -112 103
-136 46z"/>
<path d="M14911 5282 c-47 -32 -94 -106 -117 -183 -8 -27 -25 -61 -38 -76 -22
-25 -30 -28 -90 -28 -62 0 -68 2 -101 35 -69 69 -49 134 55 179 36 15 50 27
50 41 0 23 -25 26 -79 10 -39 -11 -106 -79 -128 -129 -13 -32 -13 -37 14 -89
37 -73 105 -122 169 -122 51 0 118 30 134 60 16 30 34 25 101 -30 78 -62 126
-72 208 -43 58 21 99 67 87 98 -5 13 -13 12 -58 -4 -95 -35 -122 -36 -173 -7
-41 25 -84 71 -74 81 3 2 19 6 37 10 46 8 134 50 156 74 11 12 25 21 32 21 16
0 34 31 34 60 0 11 -11 32 -25 45 -20 21 -33 25 -88 25 -54 0 -71 -5 -106 -28z
m126 -59 c7 -20 -58 -54 -95 -51 -46 4 -43 19 9 46 46 24 80 26 86 5z"/>
<path d="M13950 5292 c-8 -2 -37 -18 -63 -35 -64 -40 -109 -115 -96 -161 5
-17 18 -39 30 -48 28 -24 117 -24 158 -1 29 17 31 17 51 -5 25 -26 65 -29 74
-5 5 11 -2 24 -20 38 -22 18 -30 37 -43 105 -15 75 -20 85 -46 100 -17 9 -37
15 -45 12z m30 -96 c0 -22 -22 -80 -37 -98 -16 -18 -66 -17 -89 3 -22 18 -17
40 18 76 25 26 40 33 70 33 25 0 38 -5 38 -14z"/>
<path d="M14239 5253 c-8 -9 -29 -22 -48 -30 -32 -14 -33 -16 -26 -51 4 -20 7
-59 6 -87 -2 -103 42 -103 53 -1 8 82 13 96 37 96 30 0 51 -45 57 -120 5 -77
21 -102 48 -79 32 27 -4 188 -56 252 -35 41 -51 45 -71 20z"/>
<path d="M16579 4853 c-21 -5 -40 -48 -32 -70 9 -26 34 -53 49 -53 18 0 46 56
42 82 -4 24 -36 47 -59 41z"/>
<path d="M9068 5762 c-17 -28 -17 -30 0 -44 25 -23 192 -41 210 -24 22 22 -73
78 -153 91 -37 5 -42 3 -57 -23z"/>
<path d="M5770 5759 c-9 -16 -8 -25 6 -40 14 -16 31 -19 105 -19 95 0 119 5
119 26 0 17 -122 54 -178 54 -32 0 -44 -5 -52 -21z"/>
<path d="M8964 5760 c-22 -10 -59 -21 -82 -25 -45 -7 -65 -25 -60 -51 5 -30
54 -35 116 -11 62 23 81 40 82 74 0 31 -9 33 -56 13z"/>
<path d="M8165 5762 c-25 -5 -34 -19 -28 -43 8 -29 37 -41 68 -29 62 24 28 86
-40 72z"/>
<path d="M6142 5748 c-25 -25 -14 -56 23 -68 49 -16 159 -4 181 21 16 18 15
20 -7 38 -20 17 -39 20 -104 21 -50 0 -86 -5 -93 -12z"/>
<path d="M7628 5749 c-22 -12 -23 -42 -3 -59 12 -10 28 -11 63 -4 58 11 67 36
23 58 -34 18 -59 20 -83 5z"/>
<path d="M7916 5745 c-19 -19 -19 -21 -6 -46 6 -11 21 -19 35 -19 30 0 80 42
73 61 -8 22 -82 24 -102 4z"/>
<path d="M5364 5732 c-35 -35 -3 -62 74 -62 53 0 152 26 152 40 0 26 -202 47
-226 22z"/>
<path d="M8392 5735 c-21 -15 -21 -17 -6 -40 20 -30 53 -32 85 -6 23 19 24 19
5 40 -23 25 -53 27 -84 6z"/>
<path d="M9425 5727 c-9 -35 83 -201 113 -205 13 -2 22 2 22 10 0 15 -57 157
-78 196 -17 29 -50 29 -57 -1z"/>
<path d="M5037 5692 c-9 -10 -17 -23 -17 -29 0 -13 53 -33 84 -33 26 0 86 17
106 30 28 17 -10 37 -86 44 -61 6 -72 4 -87 -12z"/>
<path d="M8551 5686 c-13 -15 -12 -20 6 -37 14 -15 38 -21 90 -26 65 -5 72 -4
82 15 10 18 8 24 -14 38 -14 9 -53 19 -88 21 -50 4 -65 2 -76 -11z"/>
<path d="M9041 5611 c-8 -5 -11 -16 -8 -24 12 -32 129 -177 142 -177 37 0 -5
120 -63 181 -28 30 -47 35 -71 20z"/>
<path d="M10955 5520 c-21 -23 -21 -35 -6 -179 13 -120 10 -185 -16 -289 -18
-74 -12 -108 22 -124 21 -9 28 -8 38 4 26 33 110 88 155 102 113 33 210 77
215 96 7 27 -30 79 -80 112 -23 16 -63 56 -90 89 -26 34 -59 75 -72 91 -20 25
-97 87 -137 111 -6 4 -19 -2 -29 -13z m126 -157 c25 -27 64 -74 87 -105 23
-31 51 -59 62 -63 23 -7 26 -27 8 -43 -7 -5 -35 -17 -63 -27 -27 -9 -57 -22
-65 -30 -8 -7 -31 -17 -52 -23 -45 -12 -46 -8 -38 105 3 45 2 92 -2 105 -8 31
-10 113 -1 121 11 12 18 8 64 -40z"/>
<path d="M17600 5445 c-112 -14 -255 -84 -299 -146 -44 -60 -98 -262 -85 -319
19 -89 30 -120 58 -157 27 -36 39 -44 96 -58 43 -10 81 -28 109 -51 65 -51
106 -60 207 -46 60 9 99 21 135 42 27 17 54 30 59 30 5 0 36 28 70 63 97 99
139 211 126 335 -13 127 -65 206 -169 256 -100 49 -198 65 -307 51z m280 -133
c65 -38 88 -66 106 -135 28 -105 14 -183 -48 -265 -70 -94 -177 -153 -302
-167 -56 -6 -106 13 -125 48 -21 37 -80 69 -113 62 -69 -16 -104 56 -96 197
12 211 136 301 408 295 109 -3 118 -5 170 -35z"/>
<path d="M9731 5436 c-17 -20 -2 -49 50 -95 56 -49 129 -72 154 -48 28 28 17
45 -54 77 -39 18 -80 43 -92 56 -26 27 -42 30 -58 10z"/>
<path d="M10201 5246 c-10 -18 -10 -28 -1 -46 11 -21 16 -22 93 -15 59 5 95
14 129 32 75 41 57 52 -86 52 -119 1 -123 0 -135 -23z"/>
<path d="M10682 5254 c-27 -18 -28 -40 -4 -53 24 -13 163 -6 192 9 14 7 20 19
18 33 -3 21 -9 22 -93 25 -69 1 -96 -2 -113 -14z"/>
<path d="M9140 5250 c-18 -11 -25 -180 -9 -222 12 -29 38 -45 44 -25 9 29 12
225 3 240 -10 19 -17 21 -38 7z"/>
<path d="M9137 4667 c-14 -12 -33 -142 -27 -197 1 -14 3 -33 3 -42 1 -19 14
-23 33 -10 6 4 14 49 18 100 4 52 9 106 12 121 7 32 -15 47 -39 28z"/>
<path d="M9099 4113 c-15 -37 -30 -91 -36 -129 -4 -26 -1 -32 18 -37 31 -8 39
-1 39 38 0 19 4 44 9 57 4 13 11 40 15 61 6 33 5 37 -14 37 -13 0 -24 -10 -31
-27z"/>
<path d="M12435 3830 c-71 -8 -301 -19 -407 -20 -46 0 -61 -4 -79 -22 -20 -22
-21 -28 -15 -179 6 -122 4 -158 -6 -165 -28 -22 -141 -34 -315 -34 -220 -1
-213 4 -213 -142 -1 -51 -5 -127 -11 -168 -6 -41 -14 -113 -18 -160 -5 -47
-16 -105 -25 -129 -22 -60 -27 -113 -13 -132 18 -23 55 -32 85 -20 44 17 219
20 276 5 38 -10 88 -12 191 -8 77 4 145 7 152 7 6 0 37 -8 70 -19 63 -21 165
-24 268 -8 87 13 281 8 425 -10 80 -10 206 -16 350 -16 143 0 254 -5 305 -13
51 -9 113 -12 170 -8 50 3 135 2 190 -3 109 -10 161 -10 545 -2 140 2 370 7
510 10 209 4 261 8 287 21 18 9 37 13 43 10 6 -4 41 -2 78 4 37 6 132 16 212
21 80 5 181 16 225 25 44 9 118 18 165 20 47 3 95 7 107 10 12 3 41 -1 65 -9
25 -8 82 -14 138 -14 52 0 129 -4 170 -10 41 -6 94 -13 118 -16 50 -6 259 19
277 34 29 24 38 86 30 216 -4 71 -8 206 -9 300 -1 194 -6 209 -59 193 -42 -13
-169 -12 -232 1 -27 6 -113 14 -190 18 l-140 7 -3 26 c-3 24 11 88 52 234 21
76 14 82 -101 90 -54 4 -119 11 -145 16 -26 4 -72 4 -105 -1 -32 -5 -137 -11
-235 -15 -97 -3 -190 -10 -208 -16 -17 -6 -34 -9 -37 -6 -3 3 -17 1 -32 -5
-36 -14 -47 -15 -289 -28 -117 -6 -223 -14 -235 -19 -12 -4 -42 -8 -67 -10
-25 -1 -57 -6 -73 -12 -20 -9 -43 -8 -90 1 -126 25 -186 31 -361 35 -98 3
-183 8 -189 12 -18 11 -265 30 -421 32 -82 1 -153 4 -156 6 -4 3 -50 7 -101
11 -51 3 -97 8 -101 10 -4 3 -58 7 -119 9 -61 3 -116 8 -121 11 -5 4 -82 10
-171 14 -89 5 -202 11 -252 14 -49 2 -121 1 -160 -4z m446 -98 c86 -6 167 -13
180 -16 26 -6 98 -12 249 -21 52 -3 133 -10 180 -15 47 -6 148 -12 225 -15
148 -5 202 -9 330 -25 44 -5 150 -12 235 -15 94 -3 179 -11 215 -21 66 -17
176 -20 233 -5 45 12 216 29 371 37 63 3 139 10 170 15 128 22 170 28 246 33
381 25 573 28 597 9 13 -11 11 -28 -14 -140 -55 -246 -80 -492 -59 -573 15
-58 22 -164 12 -180 -8 -11 -35 -16 -118 -18 -59 -1 -144 -10 -188 -18 -44 -9
-135 -18 -202 -19 -67 -2 -137 -8 -155 -13 -83 -26 -245 -40 -538 -47 -124 -4
-277 -8 -340 -11 -161 -7 -821 -7 -922 0 -171 13 -248 16 -449 22 -285 7 -318
9 -453 24 -69 7 -157 10 -210 6 -50 -4 -131 -9 -179 -12 -51 -4 -106 -2 -130
5 -23 5 -67 15 -97 22 -91 18 -93 22 -91 141 4 168 8 255 15 266 3 6 6 134 6
286 1 215 4 278 13 282 7 2 85 10 173 17 191 15 481 15 695 -1z m-959 -687
c-3 -245 -5 -282 -19 -292 -20 -16 -120 -17 -211 -3 -37 6 -114 12 -172 13
l-105 2 2 73 c1 41 10 113 19 160 9 48 20 133 24 190 4 56 13 109 20 116 15
19 40 21 260 21 l185 0 -3 -280z m4293 215 c1 -25 6 -63 10 -85 6 -37 4 -42
-24 -63 -38 -28 -39 -41 -3 -74 21 -20 41 -27 87 -31 33 -3 71 -8 85 -12 14
-4 52 -12 85 -17 86 -15 85 -14 85 -52 0 -31 20 -66 38 -66 29 1 56 59 47 101
-5 20 0 36 15 56 19 27 20 34 10 128 -5 55 -12 112 -15 128 -4 24 -2 27 24 27
45 0 53 -18 46 -112 -4 -46 -2 -119 4 -163 16 -116 16 -234 -1 -251 -7 -7 -56
-18 -108 -24 -87 -10 -130 -9 -215 7 -17 3 -76 7 -133 10 -120 6 -116 2 -132
119 -6 43 -15 105 -19 136 -8 52 -4 112 15 223 9 55 21 67 62 63 34 -3 35 -4
37 -48z m213 -90 c25 -33 27 -40 12 -40 -14 0 -60 46 -60 60 0 20 27 9 48 -20z
m142 15 c6 -8 14 -32 17 -55 4 -31 2 -40 -9 -40 -16 0 -68 67 -68 87 0 23 42
29 60 8z m-217 -50 c31 -30 63 -55 70 -55 19 0 36 20 30 35 -8 23 36 5 58 -23
15 -20 17 -27 7 -34 -28 -18 -183 19 -211 50 -17 20 -33 82 -20 82 4 0 34 -25
66 -55z"/>
<path d="M12095 3514 c-43 -44 8 -74 126 -74 55 0 92 -5 103 -13 28 -20 38
-107 26 -207 -6 -47 -13 -104 -16 -127 -6 -52 -19 -57 -113 -42 -78 12 -101 4
-101 -32 0 -35 56 -52 180 -56 110 -4 117 -3 169 24 30 15 61 39 70 52 17 26
23 26 -77 5 -18 -4 -32 -1 -39 8 -21 25 -14 308 8 351 8 13 23 17 72 17 75 0
92 9 83 43 -5 23 -10 24 -63 23 -32 -1 -119 8 -193 21 -163 27 -213 29 -235 7z"/>
<path d="M13494 3467 c-3 -9 -7 -56 -8 -104 l-1 -88 -72 -3 c-62 -2 -74 -6
-84 -24 -17 -32 19 -58 80 -58 79 0 84 -9 66 -113 -16 -90 -12 -137 10 -137
26 0 37 31 72 195 8 39 10 40 58 48 66 11 80 20 80 48 0 22 -5 24 -51 27 -68
4 -82 21 -93 112 -7 51 -16 79 -30 93 -18 19 -21 19 -27 4z"/>
<path d="M13125 3276 c-86 -32 -104 -43 -111 -72 -7 -29 31 -94 71 -120 49
-32 20 -70 -67 -89 -15 -3 -32 -14 -38 -26 -30 -55 66 -68 142 -20 85 54 91
105 23 169 -25 23 -45 49 -45 57 0 18 50 45 83 45 30 0 70 41 61 63 -8 22 -44
20 -119 -7z"/>
<path d="M14915 3263 c-62 -42 -96 -75 -115 -113 -31 -62 -33 -88 -9 -129 26
-46 67 -72 122 -77 23 -2 71 -6 107 -9 58 -6 69 -4 100 17 41 28 50 74 15 71
-59 -5 -184 -5 -193 1 -21 13 -1 34 79 87 44 29 85 61 90 72 20 35 3 62 -53
85 -69 29 -95 28 -143 -5z m84 -67 c9 -11 6 -18 -18 -35 -26 -19 -81 -26 -81
-11 0 11 25 37 45 48 27 15 40 15 54 -2z"/>
<path d="M13896 3246 c-40 -25 -138 -148 -162 -203 -20 -47 -18 -80 7 -94 39
-20 85 -15 129 17 22 16 48 33 55 39 11 7 22 1 46 -28 35 -42 72 -49 89 -17 9
18 6 27 -19 56 -17 19 -31 45 -31 57 -1 30 -56 191 -66 194 -5 1 -26 -8 -48
-21z m30 -111 c4 -16 0 -35 -10 -51 -20 -29 -73 -64 -99 -64 -15 0 -16 3 -5
29 17 38 79 111 95 111 7 0 15 -11 19 -25z"/>
<path d="M14161 3195 c-39 -55 -61 -106 -61 -142 0 -41 19 -103 32 -103 17 0
37 33 38 62 0 43 20 124 34 144 12 15 18 16 39 7 35 -16 60 -94 55 -175 -3
-57 -1 -63 18 -66 40 -6 59 71 38 160 -26 111 -62 158 -122 158 -34 0 -42 -5
-71 -45z"/>
<path d="M12735 3204 c-19 -9 -46 -12 -74 -8 l-43 6 7 -64 c13 -116 20 -143
37 -146 11 -2 17 7 22 35 15 84 18 92 47 111 66 41 110 1 114 -104 3 -71 12
-88 38 -78 20 7 22 43 7 106 -5 24 -12 55 -15 70 -3 14 -17 40 -31 57 -29 34
-59 39 -109 15z"/>
<path d="M14534 3187 c-27 -17 -56 -38 -65 -47 -23 -21 -79 -111 -79 -127 0
-7 16 -30 35 -52 39 -43 104 -67 151 -57 16 4 43 8 61 10 59 8 105 45 84 69
-8 10 -23 12 -58 6 -95 -15 -148 -11 -171 14 -12 13 -22 28 -22 33 0 9 65 72
124 121 31 25 33 39 7 52 -15 8 -29 4 -67 -22z"/>
<path d="M11665 3248 c-105 -22 -131 -40 -115 -82 15 -41 12 -78 -10 -111 -26
-39 -25 -57 5 -89 20 -22 23 -30 14 -49 -14 -32 2 -91 26 -96 36 -6 76 85 45
104 -19 12 -10 33 18 43 60 21 140 42 165 42 44 0 56 38 47 147 -4 50 -11 96
-15 102 -9 15 -75 11 -180 -11z m127 -85 c35 -32 17 -61 -26 -42 -17 8 -26 20
-26 36 0 28 25 31 52 6z"/>
<path d="M9056 3724 c-29 -29 -14 -103 25 -124 33 -18 42 0 34 74 -6 54 -10
66 -25 66 -10 0 -26 -7 -34 -16z"/>
<path d="M10914 3585 c-13 -20 -14 -31 -6 -53 16 -43 23 -168 12 -236 -5 -33
-11 -82 -14 -108 -2 -25 -16 -69 -31 -96 -25 -47 -26 -50 -11 -86 8 -20 22
-39 31 -42 19 -8 45 13 45 35 0 16 48 43 209 117 74 35 131 80 131 104 0 4
-23 30 -51 57 -126 119 -203 203 -242 266 -23 37 -45 67 -49 67 -4 0 -15 -11
-24 -25z m140 -232 c29 -27 69 -63 90 -80 21 -18 36 -38 34 -45 -5 -15 -83
-60 -146 -84 -38 -15 -45 -15 -58 -3 -12 13 -12 32 -3 124 12 119 15 135 25
135 4 0 30 -21 58 -47z"/>
<path d="M9187 3387 c-17 -12 -17 -17 16 -87 31 -68 87 -140 107 -140 40 0 54
43 23 66 -10 7 -36 48 -58 91 -41 80 -57 93 -88 70z"/>
<path d="M9048 3342 c-22 -4 -25 -21 -32 -142 -6 -108 7 -165 38 -165 18 0 19
10 19 152 0 84 -2 154 -4 156 -2 2 -12 2 -21 -1z"/>
<path d="M10640 3288 c-98 -20 -140 -38 -140 -62 0 -17 36 -50 48 -42 10 6
137 32 205 42 57 8 68 26 37 60 -27 28 -26 28 -150 2z"/>
<path d="M9541 3261 c-37 -23 24 -62 144 -91 64 -16 72 -16 98 -2 39 23 35 49
-10 60 -21 5 -69 16 -108 26 -79 18 -104 20 -124 7z"/>
<path d="M10066 3219 c-15 -21 -14 -25 5 -45 16 -17 35 -22 106 -27 78 -6 90
-4 134 19 27 13 49 29 49 34 0 6 -31 10 -71 10 -39 0 -78 4 -87 9 -9 5 -40 12
-68 16 -47 6 -53 4 -68 -16z"/>
<path d="M9015 2760 c-26 -27 -28 -35 -26 -96 1 -37 7 -76 12 -86 12 -23 35
-23 44 0 12 29 18 199 8 205 -6 4 -23 -7 -38 -23z"/>
<path d="M8969 2213 c-33 -85 -34 -208 -3 -220 29 -11 36 15 39 131 2 94 0
116 -12 116 -7 0 -18 -12 -24 -27z"/>
<path d="M11823 1928 c-21 -10 -23 -18 -24 -102 0 -97 -3 -131 -19 -238 -7
-48 -7 -87 2 -138 8 -46 9 -76 3 -86 -8 -13 -46 -16 -235 -18 -286 -2 -275 3
-265 -117 3 -50 2 -120 -4 -161 -6 -40 -15 -103 -20 -139 -5 -39 -24 -98 -46
-145 -21 -43 -38 -92 -39 -109 l-1 -30 83 -1 c46 -1 114 5 150 13 53 11 174
15 562 18 272 2 527 4 565 5 64 1 195 -16 320 -40 28 -6 77 -15 110 -22 33 -6
107 -14 165 -17 58 -3 110 -9 116 -13 6 -4 66 -13 132 -19 91 -8 129 -8 158 1
23 7 127 14 254 16 118 2 226 6 240 10 14 3 54 8 90 9 36 2 94 6 130 9 169 17
266 21 400 18 248 -7 381 -7 480 0 52 4 165 10 250 14 95 3 188 13 241 25 48
11 95 20 105 20 159 0 421 -8 429 -13 12 -8 93 -15 249 -24 61 -3 113 -6 116
-7 3 0 55 3 117 7 82 6 116 12 125 24 10 11 13 65 13 206 0 111 6 228 14 279
10 69 11 98 1 130 l-11 42 -112 -3 c-62 -1 -131 -7 -154 -12 -52 -12 -165 -13
-217 -1 -21 5 -71 6 -110 2 -39 -5 -82 -4 -95 1 -23 8 -23 10 -17 105 4 54 13
134 21 178 20 117 22 179 7 203 -7 10 -28 10 -103 2 -115 -13 -767 -16 -864
-4 -38 5 -115 6 -170 1 -55 -4 -122 -8 -150 -8 -99 -1 -361 12 -420 21 -33 5
-98 10 -145 10 -87 1 -98 1 -210 1 -78 0 -199 12 -335 33 -121 20 -407 24
-448 7 -39 -15 -203 -14 -290 3 -101 20 -242 27 -618 31 -242 3 -347 8 -409
19 -94 18 -88 18 -117 4z m175 -108 c45 -6 86 -9 91 -6 4 3 133 6 287 6 272 1
513 -10 624 -28 30 -5 188 -8 351 -7 216 2 322 -2 390 -12 52 -8 117 -16 144
-17 28 -2 79 -6 115 -10 36 -3 124 -8 195 -11 72 -3 159 -7 195 -10 114 -8
432 -16 515 -13 144 5 249 3 300 -5 83 -13 544 -17 600 -5 28 6 77 12 110 13
33 1 70 5 82 10 35 11 37 -12 18 -152 -15 -106 -16 -163 -10 -362 4 -130 10
-276 14 -324 7 -98 14 -88 -69 -102 -70 -12 -413 -39 -630 -49 -69 -4 -177 -9
-240 -13 -63 -4 -158 -5 -210 -2 -200 8 -467 3 -543 -12 -29 -5 -128 -12 -221
-15 -93 -3 -173 -7 -177 -10 -4 -2 -56 -5 -116 -5 -59 0 -157 -7 -216 -15 -60
-8 -116 -13 -125 -10 -9 3 -71 6 -137 8 -66 1 -125 5 -131 10 -5 4 -26 10 -45
12 -19 3 -43 7 -54 10 -11 2 -54 7 -95 11 -41 3 -104 13 -140 20 -133 29 -311
47 -389 41 -135 -12 -527 -8 -592 6 -73 15 -81 28 -63 102 30 121 45 416 28
556 -8 67 -5 171 10 330 3 30 5 61 6 69 0 9 8 11 23 8 12 -3 59 -11 105 -17z
m-604 -556 c9 -3 16 -14 16 -23 0 -18 35 -55 57 -62 18 -6 143 -112 143 -121
0 -31 -98 21 -135 71 -16 22 -33 41 -36 41 -3 0 -14 -9 -24 -20 -15 -17 -17
-26 -8 -54 7 -21 7 -39 1 -50 -6 -11 -6 -27 0 -45 11 -30 -8 -91 -28 -91 -5 0
-10 -16 -10 -35 0 -29 4 -36 25 -41 35 -9 64 18 57 51 -8 43 13 55 92 55 95 0
144 15 187 57 l36 35 6 -28 c3 -16 3 -44 0 -64 -2 -19 -8 -66 -11 -104 -8 -83
-21 -96 -82 -80 -22 6 -43 8 -45 4 -8 -13 -69 -18 -93 -7 -17 8 -35 6 -72 -7
-57 -21 -164 -28 -185 -12 -13 10 -12 21 9 96 28 100 56 274 56 345 0 56 8 95
20 95 5 0 15 -3 24 -6z m398 -46 c2 -13 -2 -41 -8 -63 -12 -39 -12 -39 -13 -9
-1 17 -4 46 -7 63 -5 24 -3 31 9 31 8 0 17 -10 19 -22z m4916 9 c16 -19 15
-59 -3 -162 -9 -49 -16 -94 -15 -100 14 -189 13 -203 -11 -216 -36 -19 -324
-16 -419 5 -41 9 -84 16 -96 16 -37 0 -54 23 -64 85 -13 80 -22 317 -13 331
18 26 204 46 218 24 7 -11 -39 -25 -54 -16 -9 6 -61 -48 -61 -62 1 -4 7 -34
15 -67 12 -52 12 -61 0 -75 -22 -24 -18 -47 10 -66 22 -14 31 -15 73 -4 26 8
113 14 200 15 113 1 156 5 162 14 4 7 5 41 3 76 -3 35 0 77 6 97 17 52 7 68
-43 68 -24 0 -46 3 -49 7 -4 4 -24 7 -44 7 -20 1 -38 6 -40 11 -2 6 30 11 79
13 46 2 85 5 87 8 9 9 49 3 59 -9z m-5024 -63 c17 -16 20 -56 7 -87 -7 -18 -8
-18 -21 -2 -8 10 -32 28 -52 41 -23 15 -38 32 -38 44 0 17 7 20 44 20 27 0 51
-6 60 -16z m4866 -49 c33 -17 42 -58 15 -69 -19 -7 -62 11 -92 38 -28 24 -29
33 -5 39 33 9 53 7 82 -8z m-210 -100 c0 -20 -46 -19 -54 1 -3 9 -6 30 -6 47
l1 32 29 -33 c17 -18 30 -39 30 -47z"/>
<path d="M11961 1636 c-12 -13 -19 -30 -16 -39 9 -22 76 -46 148 -54 34 -3 68
-10 75 -16 15 -12 15 -92 -1 -207 l-12 -85 -79 3 c-63 2 -83 -1 -97 -14 -51
-46 2 -73 144 -75 57 -1 108 1 113 4 5 3 36 6 69 8 34 1 76 10 98 21 66 33 45
48 -69 48 -42 0 -84 5 -96 11 -22 12 -21 35 4 216 l12 82 36 9 c20 5 45 5 55
1 35 -14 82 -10 89 7 5 12 -7 50 -17 55 -1 1 -85 4 -187 8 -140 6 -193 12
-216 24 -30 16 -32 15 -53 -7z"/>
<path d="M13361 1651 c-10 -7 -15 -38 -18 -113 -2 -56 -6 -109 -8 -115 -3 -8
-24 -13 -60 -13 -42 0 -57 -4 -62 -16 -10 -27 11 -48 55 -57 22 -4 45 -13 50
-20 9 -12 3 -95 -12 -163 -5 -23 -3 -36 9 -48 35 -35 51 -10 67 106 6 46 16
89 22 96 7 7 41 17 77 23 71 13 89 23 89 49 0 24 -17 29 -64 17 -31 -8 -45 -7
-72 8 -29 16 -34 24 -40 72 -3 30 -4 74 -2 97 6 50 -10 90 -31 77z"/>
<path d="M12980 1458 c-19 -5 -37 -13 -40 -18 -3 -4 -27 -20 -55 -35 -49 -28
-65 -41 -65 -59 0 -12 71 -76 85 -76 16 0 155 -100 155 -111 0 -17 -30 -41
-67 -54 -44 -15 -100 -3 -125 26 -24 28 -62 17 -54 -14 3 -12 6 -28 6 -35 0
-19 62 -42 117 -44 63 -2 115 22 138 65 30 56 17 78 -127 211 -44 39 -47 53
-15 65 12 5 43 18 69 28 47 18 64 36 52 54 -6 11 -28 10 -74 -3z"/>
<path d="M14794 1407 c-92 -50 -124 -91 -124 -162 0 -70 -33 -118 -92 -134
-40 -11 -49 -10 -100 13 -61 28 -88 64 -83 110 4 34 61 88 110 105 47 16 65
29 65 46 0 21 -27 25 -72 9 -109 -37 -151 -84 -164 -182 l-7 -53 51 -49 c50
-48 90 -66 157 -71 36 -2 108 28 100 42 -4 5 -1 16 5 24 16 19 53 4 94 -40 18
-19 53 -44 77 -54 44 -20 44 -20 107 1 34 11 62 24 62 29 0 5 9 9 20 9 41 0
150 63 150 87 0 19 -28 13 -103 -21 -95 -43 -166 -51 -220 -24 -21 10 -42 28
-46 40 -7 19 0 25 48 51 87 45 104 66 109 136 4 54 2 62 -21 85 -32 32 -68 33
-123 3z m88 -83 c11 -24 9 -28 -22 -54 -39 -32 -105 -49 -123 -31 -26 26 57
111 110 111 16 0 27 -9 35 -26z"/>
<path d="M13817 1374 c-21 -7 -51 -22 -66 -34 -16 -11 -32 -20 -36 -20 -4 0
-26 -16 -50 -36 -33 -27 -48 -48 -59 -86 -18 -63 -7 -91 44 -112 51 -20 96
-11 144 30 22 19 43 34 47 34 5 0 23 -18 40 -40 60 -75 100 -37 55 53 -27 56
-66 174 -66 200 0 24 -11 26 -53 11z m6 -116 c9 -32 -19 -76 -63 -98 -45 -23
-71 -25 -88 -8 -29 29 -4 66 77 111 48 28 66 26 74 -5z"/>
<path d="M12536 1351 c-10 -11 -30 -21 -45 -23 -29 -3 -29 -3 -17 -138 8 -79
15 -96 39 -87 10 4 16 28 19 84 2 43 11 88 19 101 16 25 50 29 89 9 33 -17 71
-85 63 -115 -7 -30 24 -67 44 -51 36 31 4 132 -62 196 -38 37 -49 43 -88 43
-31 0 -49 -6 -61 -19z"/>
<path d="M14093 1323 c-25 -23 -36 -27 -54 -21 -35 13 -44 -4 -29 -57 8 -29
11 -73 7 -120 -4 -54 -2 -75 7 -78 25 -10 35 10 56 101 22 101 44 145 69 140
8 -2 29 -23 46 -48 27 -41 30 -52 29 -122 -2 -76 -1 -78 22 -78 22 0 24 5 26
48 3 73 -1 103 -19 154 -23 66 -51 98 -93 104 -30 5 -41 1 -67 -23z"/>
<path d="M16558 890 c-22 -13 -33 -67 -18 -85 15 -18 52 -19 68 -3 15 15 16
53 2 79 -12 21 -26 23 -52 9z"/>
<path d="M8973 1738 c-13 -21 -32 -100 -33 -136 0 -37 45 -115 63 -109 7 2 11
20 10 43 -3 44 -3 133 0 179 2 32 -24 47 -40 23z"/>
<path d="M10849 1550 c-13 -8 -16 -34 -16 -172 0 -159 -21 -308 -53 -393 -10
-27 -3 -47 25 -67 19 -14 30 -8 88 46 32 29 70 59 85 67 15 7 41 23 57 35 17
12 46 27 65 33 19 6 50 20 68 31 47 29 43 59 -19 134 -60 73 -270 296 -278
296 -3 0 -13 -5 -22 -10z m174 -249 c42 -45 77 -90 77 -100 0 -11 -15 -31 -32
-44 -53 -39 -168 -91 -178 -81 -6 6 -6 44 0 99 5 50 10 117 10 151 0 33 3 64
6 67 12 11 39 -10 117 -92z"/>
<path d="M17457 1460 c-27 -5 -59 -17 -70 -27 -188 -159 -237 -225 -237 -319
0 -97 45 -213 112 -289 123 -139 373 -159 572 -46 58 33 79 54 124 125 34 53
47 108 47 206 0 128 -97 261 -225 308 -139 52 -208 61 -323 42z m273 -116 c85
-33 132 -71 170 -138 57 -98 34 -230 -54 -315 -68 -66 -260 -130 -337 -111
-53 12 -158 66 -192 97 -33 31 -82 129 -92 185 -5 28 -1 50 20 97 49 109 172
199 290 212 81 9 115 5 195 -27z"/>
<path d="M20420 1455 c-68 -25 -169 -92 -206 -136 -97 -115 -139 -311 -89
-410 21 -39 154 -158 202 -180 24 -11 57 -21 75 -23 18 -2 61 -9 95 -16 52
-10 70 -9 116 4 30 9 63 16 73 16 34 0 147 66 189 111 59 64 88 154 80 253 -8
89 -36 178 -75 235 -17 24 -30 47 -30 50 0 16 -102 83 -146 96 -61 18 -235 19
-284 0z m331 -121 c36 -34 91 -116 107 -159 16 -45 24 -138 16 -192 -5 -40
-15 -56 -55 -95 -82 -81 -220 -136 -303 -122 -23 3 -57 19 -77 35 -31 24 -36
26 -45 12 -16 -26 -57 -9 -119 49 -72 66 -85 92 -85 168 0 81 24 160 64 213
39 52 175 124 251 133 28 3 51 7 52 8 2 2 39 -3 83 -9 66 -10 86 -17 111 -41z"/>
<path d="M18555 1417 c-88 -14 -189 -40 -218 -54 -55 -28 -139 -194 -139 -276
0 -80 39 -164 108 -232 141 -139 205 -175 323 -177 69 -2 82 1 146 34 146 75
209 184 214 368 3 123 -30 216 -99 278 -62 55 -85 63 -187 66 -54 1 -120 -2
-148 -7z m226 -88 c87 -29 123 -103 124 -253 0 -92 -2 -106 -29 -156 -53 -100
-130 -150 -245 -157 -85 -6 -96 0 -96 47 0 21 -5 25 -30 26 -131 3 -246 147
-222 278 5 27 17 66 27 86 21 40 82 99 105 101 8 1 18 2 23 3 4 2 30 6 57 10
28 5 57 12 65 17 22 12 182 11 221 -2z"/>
<path d="M19539 1390 c-120 -21 -273 -125 -322 -218 -54 -103 -53 -170 5 -277
91 -168 151 -209 303 -208 137 1 300 54 379 124 53 46 66 90 67 242 2 187 -19
248 -109 312 -42 29 -48 30 -160 32 -64 1 -138 -2 -163 -7z m291 -108 c50 -36
62 -81 64 -226 1 -128 0 -134 -24 -160 -41 -45 -170 -105 -250 -116 -98 -14
-204 9 -260 57 -83 71 -124 198 -87 269 21 41 95 112 142 137 59 31 174 66
222 68 23 1 47 5 54 9 16 10 108 -15 139 -38z"/>
<path d="M9046 1355 c-4 -14 -2 -34 3 -44 15 -27 88 -90 127 -108 31 -15 36
-15 50 -2 23 23 3 57 -58 98 -27 19 -57 45 -65 58 -20 31 -49 30 -57 -2z"/>
<path d="M9457 1284 c-14 -15 -7 -44 16 -58 23 -15 163 -37 207 -32 31 3 38
31 12 45 -40 21 -223 57 -235 45z"/>
<path d="M10000 1245 c-6 -14 -2 -26 11 -40 17 -18 35 -20 154 -23 l134 -3 17
27 c17 25 17 27 -1 40 -10 8 -39 14 -64 15 -239 5 -243 5 -251 -16z"/>
<path d="M10509 1251 c-41 -34 -12 -48 118 -55 107 -7 112 -6 123 14 25 46 13
52 -106 57 -99 4 -113 2 -135 -16z"/>
</g>
</svg>
