<?xml version="1.0" standalone="no"?>
<!DOCTYPE svg PUBLIC "-//W3C//DTD SVG 20010904//EN"
 "http://www.w3.org/TR/2001/REC-SVG-20010904/DTD/svg10.dtd">
<svg version="1.0" xmlns="http://www.w3.org/2000/svg"
 width="807.735930pt" height="400.000000pt" viewBox="0 0 807.735930 400.000000"
 preserveAspectRatio="xMidYMid meet">
<metadata>
Created by potrace 1.15, written by Peter Selinger 2001-2017
</metadata>
<g transform="translate(-15.258468,443.758400) scale(0.038658,-0.038658)"
fill="#444444" stroke="none">
<path d="M16750 11453 c-21 -26 -22 -35 -17 -118 3 -49 3 -110 0 -134 l-6 -44
-66 6 c-155 13 -225 -39 -122 -90 37 -18 55 -21 113 -16 l69 6 -6 -89 c-4 -49
-11 -107 -17 -129 -9 -36 -8 -41 17 -63 15 -12 32 -21 39 -19 25 8 44 75 61
217 7 60 15 70 57 74 19 2 40 6 47 10 7 5 27 5 46 2 29 -6 34 -3 40 15 12 38
-57 71 -150 73 -25 1 -32 32 -35 146 -3 172 -22 213 -70 153z"/>
<path d="M3492 11450 c-18 -11 -37 -20 -44 -20 -6 0 -42 -20 -80 -45 -38 -25
-76 -49 -86 -52 -32 -12 -82 -55 -102 -88 -32 -52 -70 -174 -70 -224 0 -116
48 -199 147 -257 38 -23 46 -24 84 -14 32 9 48 9 73 -2 38 -15 160 -15 200 1
28 11 35 8 114 -46 86 -59 136 -73 164 -45 10 10 6 18 -17 37 -17 13 -41 29
-55 36 -37 19 -60 40 -60 55 0 7 23 35 51 61 74 69 103 131 103 218 -1 80 -25
164 -62 215 -42 57 -141 148 -186 170 -55 26 -130 26 -174 0z m167 -100 c64
-32 137 -124 161 -203 32 -104 8 -174 -81 -242 -38 -29 -52 -34 -66 -26 -21
10 -91 84 -139 146 -29 36 -34 39 -60 30 -52 -19 -42 -48 58 -164 46 -53 47
-67 8 -76 -36 -8 -75 -1 -154 27 -48 18 -62 19 -78 9 -18 -11 -25 -7 -63 33
-29 29 -46 58 -51 82 -7 39 9 147 28 190 14 30 186 147 273 186 73 32 114 34
164 8z"/>
<path d="M18322 11437 c-21 -22 -21 -27 -12 -123 5 -54 14 -124 19 -154 5 -30
8 -90 7 -133 -1 -43 1 -80 6 -83 4 -3 8 -14 8 -25 0 -10 3 -19 8 -19 4 0 17
-3 29 -6 41 -11 43 23 23 292 -16 212 -21 250 -36 261 -24 17 -27 17 -52 -10z"/>
<path d="M7620 11348 c-7 -19 -3 -27 18 -46 29 -24 60 -37 69 -29 11 12 -23
80 -45 88 -31 12 -31 12 -42 -13z"/>
<path d="M17074 11275 c-15 -23 -15 -26 6 -55 18 -25 24 -28 41 -19 27 14 42
55 29 80 -15 27 -56 24 -76 -6z"/>
<path d="M6254 11249 c-68 -6 -164 -47 -164 -69 0 -37 104 -103 212 -134 37
-10 62 -24 69 -37 13 -25 4 -36 -52 -67 -37 -21 -49 -20 -151 6 -32 8 -38 7
-43 -8 -9 -28 4 -48 50 -75 82 -47 210 -25 268 47 53 65 36 124 -51 179 -26
16 -66 35 -90 41 -85 21 -62 41 48 39 l78 -1 10 30 c9 25 8 31 -6 39 -28 14
-102 18 -178 10z"/>
<path d="M4764 11225 c-30 -13 -94 -80 -94 -98 0 -4 -13 -22 -28 -38 -43 -46
-85 -135 -78 -165 9 -34 87 -80 166 -98 114 -25 270 2 270 47 -1 35 -16 39
-115 34 -95 -4 -180 7 -170 24 3 4 36 5 73 3 64 -5 69 -4 105 26 45 38 77 97
77 143 0 45 -57 113 -108 127 -46 12 -59 12 -98 -5z m125 -86 c39 -38 39 -62
1 -89 -16 -12 -30 -27 -30 -33 0 -12 -91 -14 -137 -2 -41 10 -24 67 40 128 40
38 86 37 126 -4z"/>
<path d="M5765 11215 c-66 -32 -135 -91 -135 -116 0 -11 -7 -22 -15 -25 -18
-7 -45 -94 -45 -144 0 -51 28 -83 108 -122 60 -30 75 -33 157 -33 129 0 206
37 160 75 -11 9 -38 11 -91 7 -42 -3 -86 -2 -98 3 -11 4 -41 13 -65 20 -52 14
-45 25 29 45 59 16 108 47 164 104 36 37 38 43 34 86 -6 48 -26 79 -68 100
-50 26 -83 26 -135 0z m93 -66 c33 -11 42 -30 32 -69 -4 -17 -14 -26 -30 -28
-14 -2 -29 -9 -35 -16 -12 -15 -83 -36 -120 -36 -26 0 -27 2 -21 32 8 40 91
128 122 128 11 0 35 -5 52 -11z"/>
<path d="M14950 11204 c-48 -17 -76 -37 -92 -68 -8 -15 -3 -24 29 -52 21 -18
42 -34 47 -34 16 0 116 -108 116 -125 0 -33 -103 -9 -136 32 -19 24 -24 26
-38 14 -20 -17 -20 -41 -2 -86 12 -28 23 -36 61 -48 26 -7 75 -13 109 -13 l61
1 14 42 c19 53 11 69 -82 166 -62 65 -67 72 -51 84 10 7 33 13 51 13 55 0 103
25 103 54 0 15 -7 26 -17 29 -39 11 -131 6 -173 -9z"/>
<path d="M10670 11193 c-8 -3 -33 -13 -55 -23 -22 -9 -51 -21 -65 -25 -44 -14
-110 -88 -116 -131 -10 -67 -9 -67 -66 -38 -87 42 -102 52 -107 65 -2 8 3 10
20 5 70 -22 109 -15 109 20 0 17 -59 70 -73 66 -6 -2 -43 -5 -82 -7 -87 -4
-94 -7 -124 -50 -23 -34 -23 -36 -6 -55 19 -21 176 -90 205 -90 22 0 41 -22
32 -36 -12 -20 -70 -44 -104 -44 -23 0 -38 8 -54 27 -19 24 -24 26 -38 14 -31
-26 -11 -108 28 -116 106 -21 159 -11 224 42 23 19 42 30 42 25 0 -17 71 -82
107 -97 40 -17 139 -20 148 -5 3 6 21 10 39 10 35 0 116 35 116 50 0 5 9 12
20 15 24 7 29 65 6 65 -7 0 -68 -11 -134 -25 -66 -14 -128 -25 -136 -25 -9 0
-29 12 -46 28 -23 20 -31 37 -33 66 l-2 40 103 -1 c56 0 105 3 108 8 3 5 16 9
30 9 36 0 59 15 83 54 24 38 27 84 9 109 -25 33 -145 65 -188 50z m88 -99 c29
-6 28 -32 -2 -44 -41 -15 -143 -23 -150 -12 -3 6 12 24 35 40 41 28 52 29 117
16z"/>
<path d="M13451 11179 c-26 -28 -26 -36 -1 -57 19 -16 19 -23 9 -212 -15 -266
-10 -289 52 -290 l26 0 6 139 c3 77 8 145 12 151 4 7 17 2 37 -15 22 -18 41
-25 74 -25 109 0 187 49 205 128 12 54 -15 100 -80 140 -59 37 -77 42 -148 47
-32 3 -83 7 -114 11 -50 5 -59 3 -78 -17z m307 -100 c58 -36 32 -97 -55 -126
l-58 -20 -45 27 c-44 26 -45 28 -45 76 0 46 2 50 34 65 29 13 42 14 90 4 31
-6 66 -18 79 -26z"/>
<path d="M12259 11150 c-23 -22 -50 -40 -60 -40 -27 0 -33 -38 -19 -120 7 -39
9 -78 6 -86 -3 -9 -1 -33 5 -55 9 -28 19 -41 40 -48 40 -14 48 5 42 103 -9
146 46 233 122 192 30 -17 65 -13 65 6 0 13 -58 61 -93 76 -46 19 -63 15 -108
-28z"/>
<path d="M13215 11183 c-124 -15 -225 -54 -225 -86 0 -22 106 -103 173 -133
40 -17 72 -37 72 -45 0 -29 -161 -42 -181 -14 -24 32 -68 6 -62 -36 5 -39 61
-62 159 -67 69 -3 92 -1 110 12 13 9 31 16 41 16 25 0 41 35 33 73 -9 41 -18
51 -67 77 -112 58 -167 109 -120 110 55 2 129 13 140 22 6 6 12 23 12 38 0 20
-6 29 -22 34 -13 3 -25 5 -28 4 -3 0 -18 -3 -35 -5z"/>
<path d="M15365 11161 c-78 -19 -83 -22 -137 -64 -45 -36 -62 -83 -55 -147 14
-114 81 -162 232 -163 50 -1 106 5 126 11 47 16 82 53 77 84 -3 20 -8 23 -48
22 -25 -1 -82 -9 -127 -19 -82 -17 -83 -17 -118 5 -52 32 -44 55 18 51 57 -3
137 30 186 78 28 27 32 37 29 73 -5 74 -67 97 -183 69z m95 -81 c0 -30 -43
-51 -112 -56 -59 -4 -62 -3 -43 11 11 9 39 21 62 27 23 5 48 16 54 24 17 20
39 17 39 -6z"/>
<path d="M5336 11118 c-13 -29 -36 -81 -51 -115 -27 -61 -59 -102 -71 -90 -4
3 -9 55 -12 116 -4 103 -6 110 -29 122 -22 12 -27 11 -44 -11 -16 -22 -18 -39
-15 -143 4 -137 12 -152 83 -163 43 -6 47 -5 89 37 24 24 44 49 44 57 0 8 9
25 20 39 18 23 20 24 26 7 14 -44 31 -68 64 -90 62 -43 91 -23 52 34 -10 15
-33 72 -51 127 -47 146 -65 158 -105 73z"/>
<path d="M12653 11160 c-28 -11 -83 -86 -90 -122 -3 -15 -11 -29 -19 -32 -8
-3 -14 -12 -14 -21 0 -16 -17 -49 -39 -77 -11 -14 -11 -19 0 -32 8 -8 25 -31
39 -50 38 -53 107 -81 200 -81 54 0 82 5 95 15 10 8 32 19 49 25 30 10 46 40
29 54 -4 4 -55 4 -112 0 -74 -5 -113 -4 -139 5 -40 14 -55 36 -24 36 24 0 203
96 220 118 6 9 12 30 12 47 0 75 -129 146 -207 115z m95 -92 c12 -7 21 -16 19
-22 -8 -25 -157 -92 -157 -70 0 12 34 71 53 92 21 23 38 23 85 0z"/>
<path d="M9345 11150 c-4 -6 -16 -8 -26 -5 -11 4 -25 2 -32 -3 -7 -5 -28 -12
-47 -16 -48 -9 -100 -54 -116 -102 -16 -45 -18 -141 -4 -198 5 -22 23 -54 42
-72 40 -41 93 -53 225 -50 88 1 95 3 113 26 11 14 20 35 20 48 0 21 -3 23 -32
17 -58 -13 -183 -7 -249 11 -22 6 -41 54 -37 90 l3 29 76 -3 c127 -6 178 33
182 142 2 35 -3 50 -19 67 -24 24 -88 36 -99 19z m33 -100 c5 -29 -22 -48 -75
-52 -60 -6 -74 0 -67 28 9 35 136 56 142 24z"/>
<path d="M4304 11143 c-16 -3 -24 -16 -32 -54 -7 -28 -12 -63 -12 -78 0 -48
-88 -161 -125 -161 -31 0 -47 38 -52 132 -6 115 -21 138 -60 94 -24 -28 -25
-34 -19 -105 3 -42 9 -87 13 -102 18 -59 76 -103 123 -94 42 8 105 72 140 139
18 37 38 65 44 63 11 -4 35 -96 36 -138 0 -29 41 -72 83 -88 23 -9 27 -8 27 8
0 10 -7 38 -15 62 -9 24 -27 88 -41 142 -26 105 -62 188 -78 186 -6 -1 -20 -4
-32 -6z"/>
<path d="M14118 11126 c-114 -78 -139 -114 -131 -188 5 -42 9 -48 44 -63 48
-22 128 -16 187 14 72 36 122 111 122 182 0 32 -59 67 -125 74 -54 6 -64 4
-97 -19z m122 -81 c0 -20 -29 -55 -64 -78 -55 -34 -86 -36 -86 -4 0 33 22 59
61 73 34 12 89 18 89 9z"/>
<path d="M8525 11122 c-16 -8 -43 -22 -60 -30 -16 -8 -47 -31 -67 -50 -35 -33
-38 -40 -38 -92 0 -97 28 -153 98 -194 11 -6 31 -19 46 -30 36 -26 128 -15
162 19 39 39 31 46 -45 43 -68 -3 -71 -2 -106 32 -96 92 -85 167 30 224 45 22
56 31 53 48 -5 35 -38 48 -73 30z"/>
<path d="M8901 11131 c-46 -6 -58 -12 -86 -46 -45 -53 -56 -97 -46 -180 8 -69
25 -95 62 -95 31 0 40 24 34 96 -5 59 -3 74 14 101 12 19 32 35 48 38 82 17
115 30 124 46 8 15 4 21 -20 34 -31 16 -42 16 -130 6z"/>
<path d="M9794 11117 c-71 -38 -103 -63 -171 -127 -64 -62 -65 -64 -60 -106 3
-27 15 -55 32 -76 15 -18 28 -31 29 -28 1 2 12 -3 26 -13 15 -10 43 -17 73
-17 51 0 50 -1 129 91 l27 31 55 -56 c52 -53 57 -56 105 -56 32 0 51 4 51 12
0 6 -19 30 -43 52 -23 23 -64 73 -90 113 -26 40 -57 75 -68 78 -22 7 -59 -19
-59 -42 0 -35 -53 -113 -91 -132 l-39 -21 -20 22 c-30 32 -25 57 22 97 22 20
55 49 72 64 17 16 43 31 59 34 46 9 65 73 28 93 -25 13 -19 14 -67 -13z"/>
<path d="M14575 11127 c-13 -10 -31 -13 -49 -10 -22 5 -32 1 -47 -18 -12 -16
-15 -29 -9 -40 5 -9 8 -56 7 -103 -2 -77 0 -89 18 -102 11 -8 31 -14 45 -12
25 3 25 4 22 79 -4 70 -2 78 23 107 15 18 30 32 34 32 22 0 43 -33 57 -90 9
-36 23 -72 30 -81 8 -8 14 -23 14 -32 0 -14 27 -37 43 -37 13 0 22 59 15 95
-23 125 -19 115 -76 180 -38 43 -93 57 -127 32z"/>
<path d="M17985 11124 c-57 -19 -114 -62 -138 -102 -12 -20 -36 -59 -54 -85
l-33 -48 20 -27 c10 -15 27 -52 36 -82 10 -30 24 -65 32 -77 20 -32 71 -61
130 -73 45 -10 57 -9 99 10 94 41 173 116 173 163 0 20 -20 12 -115 -42 -108
-63 -170 -59 -215 14 -32 52 -27 72 23 86 99 27 170 53 192 71 46 36 45 145
-2 175 -36 24 -106 32 -148 17z m95 -108 c0 -21 -8 -27 -57 -41 -32 -9 -69
-21 -82 -26 -51 -21 -39 18 20 61 29 21 53 30 81 30 34 0 38 -3 38 -24z"/>
<path d="M7661 11111 c-7 -13 -6 -44 4 -102 8 -46 15 -102 15 -124 0 -51 20
-89 48 -93 38 -6 45 35 29 168 -18 142 -28 170 -61 170 -15 0 -30 -8 -35 -19z"/>
<path d="M7995 11120 c-3 -5 -15 -10 -26 -10 -10 0 -19 -4 -19 -8 0 -5 -17
-30 -37 -56 -29 -37 -37 -57 -39 -94 -1 -26 4 -56 11 -67 7 -11 16 -35 20 -53
6 -31 9 -33 43 -30 36 3 37 4 34 41 -2 21 -10 50 -18 65 -8 15 -14 35 -14 45
0 41 70 107 113 107 8 0 27 -16 41 -35 22 -29 29 -52 36 -121 10 -92 26 -129
58 -131 16 -1 22 7 29 35 11 47 -10 163 -37 209 -11 19 -20 40 -20 48 0 23
-82 65 -128 65 -22 0 -44 -4 -47 -10z"/>
<path d="M17380 11103 c-78 -27 -119 -167 -87 -293 11 -43 14 -45 47 -45 l35
0 0 97 c0 53 4 100 8 105 11 10 27 -17 27 -45 0 -29 17 -62 32 -62 6 0 17 -8
24 -17 12 -17 15 -16 44 12 17 16 33 40 36 52 8 30 32 30 38 1 37 -178 37
-178 62 -184 50 -13 56 -1 48 84 -9 96 -34 190 -59 220 -30 35 -81 30 -118
-12 l-30 -33 -26 50 c-27 54 -56 78 -81 70z"/>
<path d="M17132 11083 c-7 -3 -22 -24 -34 -46 -25 -49 -32 -181 -12 -234 15
-37 47 -59 62 -40 5 6 12 80 16 163 7 155 4 169 -32 157z"/>
<path d="M18357 10792 c-15 -15 -27 -35 -27 -44 0 -21 48 -68 70 -68 37 0 54
94 22 123 -25 23 -34 21 -65 -11z"/>
<path d="M7342 9846 c-22 -24 -54 -52 -71 -62 -36 -21 -38 -33 -12 -83 11 -20
22 -48 25 -62 7 -30 53 -56 70 -39 6 6 11 34 11 63 0 52 20 107 41 114 6 2 16
-7 22 -19 77 -152 90 -171 125 -183 45 -15 54 -1 26 44 -10 17 -19 41 -19 52
0 17 7 14 54 -23 29 -24 61 -47 69 -53 14 -9 10 -23 -34 -109 -27 -54 -49 -99
-47 -100 10 -6 76 -26 84 -26 5 0 23 26 39 58 15 31 34 69 42 84 7 14 13 33
13 42 0 9 6 27 14 39 23 36 78 205 74 229 -8 58 -86 7 -109 -71 l-13 -43 -41
5 c-46 7 -130 50 -139 72 -3 8 -24 27 -48 42 -24 15 -56 38 -71 50 -40 33 -59
29 -105 -21z"/>
<path d="M7045 9847 c-74 -54 -155 -169 -155 -221 0 -13 11 -35 25 -50 19 -20
33 -26 67 -26 51 0 103 29 113 62 15 49 25 50 73 8 44 -39 86 -52 94 -28 5 13
-73 134 -112 176 -15 16 -20 32 -17 48 5 28 -15 54 -41 53 -9 0 -31 -10 -47
-22z m37 -122 c-3 -37 -11 -50 -45 -82 -36 -32 -42 -35 -45 -19 -2 10 2 30 9
45 17 34 69 101 77 101 4 0 6 -20 4 -45z"/>
<path d="M8609 9854 c-10 -13 -24 -15 -62 -11 -43 6 -49 4 -58 -17 -8 -16 -8
-34 0 -61 7 -27 7 -60 -1 -113 -12 -81 -6 -95 43 -107 26 -6 27 -5 39 62 24
124 67 193 122 193 30 0 36 16 18 51 -14 24 -81 27 -101 3z"/>
<path d="M8845 9833 c-30 -8 -95 -79 -95 -105 -1 -13 -7 -34 -15 -48 -28 -49
-19 -84 33 -134 26 -25 56 -46 67 -46 11 -1 31 -7 45 -15 34 -19 124 -19 140
0 16 19 3 37 -25 33 -13 -2 -32 5 -43 16 -12 10 -27 16 -34 13 -17 -6 -69 24
-65 38 2 5 20 14 41 18 49 12 116 75 116 110 0 39 -17 70 -53 95 -35 23 -80
34 -112 25z m60 -85 c43 -20 32 -44 -27 -56 -29 -5 -55 -9 -57 -7 -2 2 0 16 3
30 5 21 22 35 53 44 1 1 14 -4 28 -11z"/>
<path d="M9300 9801 c0 -5 -8 -12 -17 -15 -43 -16 -75 -40 -117 -89 -26 -28
-46 -56 -46 -61 0 -6 -12 -23 -27 -38 l-27 -28 32 -33 c27 -28 37 -32 72 -29
22 2 43 8 46 13 3 5 10 9 16 9 17 0 -9 -158 -42 -245 -4 -11 -15 -51 -25 -90
-9 -38 -22 -76 -28 -83 -23 -28 57 -66 84 -39 8 7 34 42 59 77 40 55 64 86
145 186 18 22 18 25 3 41 -15 15 -19 15 -55 -2 -21 -10 -48 -27 -60 -38 -13
-11 -23 -18 -23 -14 0 15 22 114 31 137 5 14 11 39 13 55 2 17 7 49 11 71 8
46 -6 84 -32 84 -8 0 -30 -16 -47 -35 -31 -33 -56 -45 -56 -26 0 4 29 36 65
70 65 61 79 93 53 119 -14 14 -28 16 -28 3z"/>
<path d="M6672 9783 c-18 -7 -52 -77 -52 -108 0 -14 -3 -25 -6 -25 -4 0 -29
20 -55 45 -29 27 -58 45 -72 45 -27 0 -62 -30 -72 -60 -3 -11 -15 -20 -25 -20
-23 0 -61 -46 -54 -65 3 -7 12 -16 20 -19 8 -3 14 -12 14 -21 0 -8 16 -47 35
-85 38 -75 70 -106 92 -88 16 13 17 36 0 79 -13 36 -17 162 -5 174 4 4 22 -2
40 -13 91 -58 89 -58 115 -26 13 16 23 37 23 46 0 9 5 20 10 23 13 8 49 -34
50 -56 0 -17 44 -80 63 -90 6 -4 24 -5 40 -2 20 4 27 11 27 28 0 13 -6 25 -14
28 -8 3 -28 34 -46 68 -48 94 -99 151 -128 142z"/>
<path d="M9955 9701 c-55 -18 -85 -48 -114 -111 -41 -89 -45 -125 -24 -184 15
-40 27 -54 62 -74 37 -20 53 -23 95 -18 30 3 58 13 70 26 30 30 8 45 -64 43
-50 -2 -61 1 -70 18 -14 26 -7 35 38 49 62 18 120 53 126 74 17 63 -3 117 -58
159 -19 15 -36 27 -38 26 -2 -1 -12 -4 -23 -8z m44 -80 c27 -38 20 -91 -13
-91 -11 0 -33 -6 -48 -14 -29 -16 -38 -12 -38 16 0 34 51 118 71 118 4 0 17
-13 28 -29z"/>
<path d="M9498 9666 c-36 -27 -56 -145 -34 -198 8 -17 64 -48 88 -48 7 0 31
12 52 27 l39 26 18 -22 c12 -14 27 -21 41 -19 21 3 22 7 22 108 1 88 -2 108
-17 123 -19 19 -40 13 -68 -20 -26 -30 -59 -93 -59 -111 0 -21 -36 -46 -46
-31 -8 14 4 76 23 112 13 26 13 31 -3 48 -20 22 -32 23 -56 5z"/>
<path d="M10650 9585 c-6 -7 -17 -12 -23 -9 -7 2 -27 -25 -46 -61 -19 -36 -38
-65 -41 -65 -4 0 -24 9 -45 19 -42 20 -60 18 -75 -8 -7 -13 1 -28 35 -63 l44
-45 -39 -79 c-22 -43 -40 -84 -40 -90 0 -14 43 -44 63 -44 7 0 24 19 36 43 61
114 73 129 95 122 11 -4 36 -9 54 -12 27 -4 32 -2 32 15 0 11 -16 34 -36 52
l-36 31 32 64 c26 51 31 71 26 99 -8 41 -19 51 -36 31z"/>
<path d="M10221 9554 c-32 -27 -35 -55 -7 -79 22 -19 76 -103 76 -119 0 -19
-30 -36 -63 -36 -13 0 -36 12 -51 27 -24 24 -29 25 -51 13 -14 -7 -25 -22 -25
-32 0 -26 57 -76 102 -90 46 -14 122 5 143 36 27 38 12 137 -25 171 -11 10
-20 27 -20 38 0 16 4 18 28 12 74 -21 110 2 82 53 -15 25 -21 27 -87 30 -64 3
-73 0 -102 -24z"/>
<path d="M5610 9390 c-16 -16 -30 -34 -30 -40 0 -5 -4 -10 -10 -10 -5 0 -10
-9 -10 -19 0 -30 -11 -51 -26 -51 -8 0 -37 11 -65 26 -62 31 -96 23 -155 -37
-33 -34 -39 -46 -38 -82 1 -61 33 -156 58 -172 12 -7 42 -16 68 -18 25 -3 52
-9 60 -13 7 -5 24 -7 38 -5 64 8 104 53 116 133 6 33 9 37 28 32 14 -3 32 3
48 15 14 12 33 21 40 21 8 0 24 10 35 23 74 81 50 182 -51 212 -67 20 -71 20
-106 -15z m108 -95 c3 -34 -27 -71 -63 -77 -16 -2 -21 3 -23 32 -3 28 2 39 25
57 36 30 57 26 61 -12z m-220 -98 c26 -25 32 -39 32 -73 0 -36 -5 -46 -29 -63
-16 -12 -32 -21 -36 -21 -11 0 -55 49 -55 61 0 5 -9 9 -19 9 -40 0 -43 79 -4
110 34 27 66 20 111 -23z"/>
<path d="M11226 9374 c-27 -19 -46 -44 -66 -90 -16 -35 -43 -81 -60 -102 -34
-43 -32 -62 6 -87 23 -15 26 -14 49 11 14 15 37 52 52 83 15 31 42 73 60 94
36 40 42 77 17 101 -19 20 -12 21 -58 -10z"/>
<path d="M10763 9344 c-18 -13 -23 -26 -23 -58 0 -35 6 -49 41 -85 24 -25 38
-48 35 -57 -8 -20 -84 -19 -107 2 -26 23 -59 10 -59 -24 0 -19 9 -33 33 -48
66 -43 158 -37 201 12 36 41 33 75 -9 113 -20 17 -40 31 -45 31 -15 0 -12 40
4 46 8 3 37 -1 65 -10 45 -13 52 -13 66 0 26 27 11 76 -26 80 -105 14 -155 13
-176 -2z"/>
<path d="M4924 9248 c4 -18 15 -51 26 -73 27 -55 25 -70 -7 -84 -16 -6 -39
-20 -52 -30 l-23 -18 23 -22 c21 -20 31 -22 81 -16 l56 7 26 -45 c14 -24 26
-50 26 -59 0 -16 33 -84 53 -110 21 -27 63 -28 69 0 5 22 -25 114 -59 176
l-26 50 40 35 c22 20 43 46 47 59 6 19 4 22 -21 22 -15 -1 -47 -5 -71 -9 -49
-10 -61 -2 -92 59 -19 38 -73 90 -92 90 -6 0 -8 -12 -4 -32z"/>
<path d="M7260 9154 c-123 -28 -294 -135 -382 -237 -27 -31 -48 -59 -48 -62 0
-4 -13 -25 -29 -48 -41 -60 -64 -148 -57 -216 24 -226 27 -232 166 -383 71
-77 125 -113 183 -123 31 -6 41 -4 52 11 12 17 28 19 147 20 112 0 143 4 198
23 144 50 281 178 360 335 34 66 40 88 40 140 0 84 -15 129 -67 211 -102 157
-196 257 -288 307 -52 28 -70 33 -140 34 -44 1 -105 -4 -135 -12z m219 -98
c46 -17 161 -92 161 -106 0 -5 27 -42 59 -82 80 -100 105 -150 109 -223 6 -97
-8 -129 -105 -239 -74 -84 -100 -106 -163 -138 -141 -72 -345 -86 -466 -33
-16 8 -50 17 -73 21 -37 6 -49 15 -87 63 -57 72 -85 158 -85 259 0 158 52 243
226 373 139 103 309 145 424 105z"/>
<path d="M7108 8827 c-23 -18 -22 -36 2 -65 17 -20 23 -21 62 -13 37 8 81 9
186 2 12 0 22 -6 22 -12 0 -21 -51 -59 -91 -68 -37 -8 -79 -35 -79 -50 1 -3 9
-16 20 -29 16 -19 34 -25 106 -32 51 -5 93 -15 101 -23 13 -12 8 -18 -29 -40
-42 -25 -160 -53 -177 -43 -11 7 -81 -13 -81 -23 0 -4 14 -20 30 -36 25 -24
40 -29 85 -32 30 -1 57 2 60 7 4 6 17 10 31 10 33 0 112 41 147 76 24 24 28
34 25 78 -3 50 -4 51 -51 74 -42 20 -48 26 -42 45 26 88 25 135 -5 162 -26 24
-296 33 -322 12z"/>
<path d="M8540 9134 c-157 -58 -300 -160 -341 -243 -7 -14 -19 -33 -27 -43
-17 -20 -52 -151 -52 -196 0 -51 29 -172 53 -222 40 -83 152 -215 209 -245 53
-29 141 -46 171 -34 20 8 31 8 40 0 26 -21 148 -31 202 -17 76 20 148 61 183
103 18 21 38 46 46 55 8 9 30 45 48 80 33 62 33 65 33 198 0 117 -3 141 -21
180 -12 25 -31 72 -43 105 -42 118 -168 233 -285 260 -71 17 -194 27 -216 19z
m237 -119 c26 -10 66 -31 89 -47 42 -30 112 -135 132 -198 6 -19 18 -57 27
-84 19 -63 20 -202 1 -247 -8 -19 -25 -44 -38 -56 l-24 -23 -29 30 c-16 17
-35 30 -42 30 -7 0 -13 6 -13 14 0 7 -18 25 -40 40 -44 29 -45 32 -29 107 30
140 -52 239 -232 277 -111 24 -184 19 -206 -14 -13 -21 -14 -29 -3 -49 14 -27
36 -31 87 -16 38 11 200 -22 249 -51 30 -18 33 -24 40 -84 9 -91 1 -99 -88
-77 -80 19 -132 9 -174 -35 -22 -23 -25 -34 -21 -74 10 -116 139 -135 243 -36
31 29 31 29 71 13 23 -9 60 -39 91 -74 l51 -59 -37 -26 c-107 -74 -229 -74
-375 0 -44 22 -49 23 -71 9 -21 -14 -25 -14 -52 7 -146 114 -214 324 -152 471
41 100 101 161 224 227 89 49 230 59 321 25z m-117 -535 c0 -12 -71 -50 -94
-50 -35 0 -40 27 -11 54 22 21 29 22 65 13 22 -6 40 -14 40 -17z"/>
<path d="M17816 9018 c-28 -24 -42 -48 -53 -88 -25 -87 -27 -126 -9 -152 9
-12 16 -34 16 -48 1 -42 42 -64 111 -57 33 3 71 13 85 22 14 9 28 14 31 11 9
-8 3 -176 -7 -221 -7 -32 -6 -43 8 -58 27 -30 51 -40 66 -28 15 13 96 129 96
137 0 4 21 39 46 80 29 46 59 82 82 95 21 12 53 39 74 59 l36 37 6 -32 c9 -45
42 -85 71 -85 25 0 42 30 29 51 -4 7 -8 48 -9 93 -2 94 -24 156 -54 156 -22 0
-67 -54 -99 -116 -19 -38 -48 -62 -59 -50 -3 3 0 28 6 57 13 58 5 119 -14 119
-7 0 -23 -9 -36 -19 -28 -22 -50 -121 -42 -191 4 -42 1 -50 -47 -112 -53 -70
-74 -85 -65 -45 3 12 9 71 14 131 9 105 3 156 -18 156 -5 0 -14 14 -20 32 -23
64 -78 98 -161 98 -38 0 -53 -6 -84 -32z m159 -82 c11 -16 15 -41 13 -72 -3
-42 -7 -51 -37 -71 -44 -30 -59 -29 -54 1 3 16 -3 36 -16 55 -26 36 -28 86 -3
100 33 19 80 13 97 -13z"/>
<path d="M9905 8940 c-72 -8 -102 -18 -238 -72 -63 -25 -87 -41 -131 -88 -45
-49 -55 -67 -64 -116 -19 -97 -17 -173 8 -234 79 -202 146 -273 363 -393 67
-37 71 -38 146 -32 42 3 97 7 123 8 26 1 52 7 59 14 6 6 17 9 25 6 18 -7 105
52 132 90 12 18 37 52 56 76 44 58 61 132 59 254 -1 95 -2 100 -48 189 -81
158 -134 217 -253 277 -50 26 -136 33 -237 21z m260 -155 c64 -52 80 -70 118
-133 18 -30 42 -71 54 -91 20 -32 22 -48 20 -136 -2 -89 -5 -106 -30 -151 -41
-73 -93 -122 -159 -149 -83 -34 -130 -40 -167 -21 -16 9 -45 16 -64 16 -52 0
-95 19 -99 42 -2 15 -15 25 -44 33 -60 18 -131 72 -169 130 -75 112 -97 208
-70 301 13 44 23 58 66 89 56 40 92 57 159 75 25 7 63 19 85 26 27 9 75 13
147 11 l107 -3 46 -39z"/>
<path d="M10005 8673 c-20 -131 17 -422 55 -443 24 -13 57 -13 65 0 3 5 -1 47
-9 92 -8 46 -20 128 -26 183 -17 155 -21 179 -38 198 -25 29 -39 20 -47 -30z"/>
<path d="M18765 8940 c-26 -11 -78 -64 -121 -122 -29 -41 -34 -55 -34 -105 0
-54 2 -60 35 -86 20 -16 63 -38 96 -49 53 -18 64 -18 102 -6 37 11 42 17 42
43 0 34 -19 42 -100 44 -51 1 -75 13 -75 38 0 9 18 13 64 13 54 0 70 4 93 24
25 21 28 31 28 86 0 59 -2 64 -35 90 -42 33 -68 42 -95 30z m53 -113 c3 -13
-4 -17 -27 -17 -34 0 -40 14 -13 29 22 13 36 9 40 -12z"/>
<path d="M11016 8909 c-14 -11 -26 -29 -26 -39 0 -21 45 -60 69 -60 24 0 42
36 35 68 -14 56 -35 65 -78 31z"/>
<path d="M18983 8848 c-22 -28 -45 -86 -59 -151 -14 -62 -14 -70 0 -92 41 -63
121 -71 198 -20 l38 25 0 -31 c0 -34 34 -89 55 -89 25 0 46 31 40 59 -3 15 2
58 10 96 13 53 15 140 5 171 0 1 -7 5 -16 8 -26 10 -57 -17 -82 -70 -33 -69
-127 -136 -151 -108 -5 5 -2 50 5 99 16 100 14 115 -14 115 -11 0 -24 -6 -29
-12z"/>
<path d="M20020 8838 c-21 -25 -75 -123 -115 -210 -16 -35 -35 -51 -35 -29 0
16 -57 20 -103 6 -69 -21 -153 -78 -165 -113 -13 -37 12 -90 74 -158 43 -47
44 -47 96 -41 62 6 114 30 129 59 6 11 20 52 31 92 18 66 40 119 124 291 37
77 42 110 18 119 -25 10 -33 7 -54 -16z m-195 -339 c12 -19 -5 -98 -23 -108
-31 -17 -71 -1 -88 35 -18 39 -15 47 34 78 37 23 61 22 77 -5z"/>
<path d="M19474 8740 c-18 -4 -45 -17 -62 -29 -17 -11 -34 -21 -39 -21 -4 -1
-21 -11 -36 -24 -26 -21 -28 -26 -22 -72 8 -56 58 -148 97 -177 15 -11 48 -22
75 -24 42 -4 51 -2 72 20 17 19 22 32 17 51 -5 22 -12 26 -44 26 -41 0 -83 18
-90 38 -2 6 4 12 15 12 39 0 95 23 128 52 45 39 46 75 4 123 -32 36 -51 41
-115 25z"/>
<path d="M20236 8698 c-8 -13 -22 -45 -31 -72 -23 -66 -90 -185 -128 -226 -25
-27 -29 -36 -21 -59 13 -38 52 -40 86 -4 56 60 159 267 166 336 5 47 5 47 -26
47 -22 0 -36 -7 -46 -22z"/>
<path d="M6330 8456 c-3 -3 -44 -10 -90 -15 -47 -5 -116 -17 -155 -26 -38 -8
-86 -19 -105 -24 -50 -11 -125 -38 -172 -61 -23 -11 -64 -23 -92 -26 -61 -8
-184 -49 -289 -95 -63 -28 -77 -39 -82 -61 -4 -15 -3 -33 1 -39 9 -16 61 -6
130 26 65 30 147 56 339 108 215 59 296 77 390 87 353 37 330 33 333 56 2 17
-7 25 -60 44 -64 23 -138 37 -148 26z"/>
<path d="M11258 8413 c-20 -5 -34 -40 -47 -122 -6 -35 -13 -66 -16 -70 -3 -3
-16 1 -28 9 -35 22 -267 101 -324 110 -28 4 -57 11 -63 15 -27 17 -146 35
-170 26 -14 -5 -38 -12 -53 -16 -26 -5 -28 -9 -22 -33 9 -39 16 -43 81 -52
191 -27 246 -42 385 -110 21 -9 58 -23 84 -31 80 -24 83 -34 37 -131 -22 -46
-56 -103 -76 -126 -20 -24 -36 -50 -36 -57 0 -18 50 -76 59 -70 26 15 474 24
542 10 23 -4 39 -3 43 4 4 6 12 11 18 11 8 0 9 -56 3 -197 -4 -109 -9 -346
-11 -528 -2 -181 -7 -413 -11 -515 -8 -185 -9 -309 -3 -450 4 -102 -6 -415
-14 -428 -4 -6 -20 -7 -45 -1 -21 5 -76 5 -122 1 -47 -5 -106 -4 -133 1 -27 5
-75 6 -105 3 -31 -3 -92 -8 -136 -12 -87 -7 -120 -24 -111 -58 3 -11 0 -26 -6
-33 -11 -13 -9 -57 12 -220 6 -51 9 -152 7 -225 -5 -169 -29 -277 -76 -335
-33 -41 -33 -42 -15 -67 14 -19 26 -25 44 -21 29 5 118 6 380 5 178 -1 265
-12 342 -41 19 -8 61 -7 145 2 65 6 165 12 223 11 58 -1 215 5 350 13 135 8
331 19 436 25 105 5 213 17 240 25 27 7 78 16 114 19 58 5 146 17 330 47 30 4
150 15 265 23 116 8 233 20 260 27 28 7 95 13 150 15 55 1 107 4 115 5 8 1
211 -1 450 -5 281 -4 462 -3 510 4 89 12 63 11 235 5 77 -3 163 -10 190 -15
28 -5 88 -12 135 -16 47 -4 96 -12 110 -19 14 -7 54 -16 90 -20 75 -8 243 -38
345 -61 80 -18 181 -35 210 -35 55 0 217 9 265 15 48 6 122 2 405 -21 69 -5
71 -5 83 22 7 14 9 31 6 37 -4 6 -8 70 -10 142 -6 254 -30 499 -66 664 -11 52
-13 53 -72 81 -34 15 -66 34 -73 42 -9 11 -38 14 -135 11 -221 -7 -272 -7
-321 1 l-47 8 1 347 c1 293 -2 376 -19 532 -20 177 -23 263 -19 620 3 253 -10
690 -23 755 -7 33 -21 77 -32 98 l-19 39 -202 -1 c-111 0 -242 4 -292 9 -49 5
-153 12 -230 15 -77 3 -180 7 -230 10 -49 3 -173 7 -275 10 -102 2 -209 9
-239 15 -69 13 -311 -4 -323 -22 -6 -10 -10 -10 -17 0 -6 11 -27 12 -87 7
-117 -9 -252 -9 -407 -1 -107 6 -141 5 -153 -5 -13 -10 -17 -10 -23 0 -8 12
-42 17 -166 26 -27 2 -52 4 -55 5 -3 1 -27 3 -55 4 -125 7 -314 28 -355 41
-25 8 -79 17 -120 20 -247 18 -383 25 -522 27 -87 2 -158 6 -158 10 0 4 -17 8
-37 7 -21 0 -63 1 -93 2 -30 0 -122 -2 -205 -5 -351 -14 -450 -31 -517 -86
-32 -26 -37 -37 -42 -87 -3 -32 -8 -71 -11 -88 -2 -16 -6 -52 -8 -79 -2 -28
-8 -51 -13 -53 -6 -2 -20 18 -32 44 -40 90 -67 131 -145 221 -21 24 -46 60
-57 80 -24 46 -131 185 -145 188 -5 1 -17 0 -27 -3z m1494 -243 c28 -6 87 -11
132 -11 45 -1 91 -5 103 -10 12 -4 50 -9 85 -10 75 -2 264 -21 438 -45 127
-17 165 -20 325 -28 50 -2 128 -7 175 -11 47 -4 299 -8 560 -11 261 -2 495 -5
520 -8 25 -2 144 -7 265 -10 121 -4 274 -9 340 -12 66 -3 255 -8 420 -10 165
-2 308 -3 317 -4 10 0 19 -11 22 -27 20 -102 35 -837 21 -1066 -5 -69 -1 -146
14 -265 11 -92 23 -203 27 -247 9 -106 5 -668 -6 -770 -4 -44 -6 -159 -3 -255
3 -96 7 -245 7 -330 1 -85 3 -159 5 -165 12 -36 -40 -46 -132 -26 -23 6 -132
24 -242 41 -198 31 -268 43 -355 62 -25 5 -241 11 -480 14 -239 2 -484 6 -545
9 -222 9 -687 0 -749 -16 -23 -5 -99 -14 -171 -20 -184 -14 -301 -26 -370 -38
-195 -33 -251 -41 -322 -45 -79 -4 -238 -23 -260 -31 -7 -2 -77 -7 -155 -10
-207 -9 -548 -34 -583 -43 -16 -5 -52 -5 -80 0 -27 5 -66 6 -85 3 -19 -2 -62
-7 -94 -10 -32 -3 -62 -8 -66 -10 -4 -2 -23 1 -43 7 l-37 11 -1 61 c0 34 -2
90 -4 126 -11 212 -15 591 -6 608 7 13 6 27 -6 48 -13 26 -15 95 -9 609 4 319
9 618 11 665 4 68 6 315 3 398 -3 83 15 613 24 709 10 107 14 122 32 131 27
12 128 29 231 40 114 12 665 13 727 2z m3988 -2602 c25 0 100 2 168 6 111 6
130 4 192 -15 76 -25 69 -13 89 -154 15 -107 45 -376 46 -415 0 -19 4 -41 8
-47 5 -7 5 -18 1 -24 -3 -6 -9 -34 -13 -63 -4 -28 -12 -50 -17 -49 -222 41
-273 45 -432 30 -86 -8 -160 -13 -163 -11 -3 2 -7 110 -8 241 -1 130 -5 241
-8 246 -3 5 -5 53 -4 106 1 83 3 113 10 154 0 5 20 6 44 2 23 -3 62 -6 87 -7z
m-5108 -16 c9 -9 30 -202 28 -262 0 -19 0 -46 0 -60 0 -14 2 -119 4 -234 l4
-208 -32 8 c-17 5 -158 9 -313 9 -155 0 -284 3 -288 6 -3 4 0 33 8 65 33 131
38 394 11 552 -21 122 -23 120 127 130 143 9 440 5 451 -6z"/>
<path d="M12253 7893 c-26 -18 -30 -43 -8 -43 9 0 18 -7 21 -15 3 -8 20 -19
37 -24 27 -9 179 -31 211 -31 5 0 6 -24 2 -57 -12 -108 -26 -258 -32 -362 -6
-93 -5 -106 12 -118 28 -21 11 -25 -59 -13 -51 8 -72 7 -97 -4 -28 -11 -37
-11 -59 0 -37 20 -54 17 -80 -10 -25 -26 -21 -46 9 -46 10 0 21 -9 25 -20 6
-18 14 -19 87 -16 45 3 93 0 107 -6 42 -17 256 -11 335 9 69 18 94 37 84 64
-4 11 -20 13 -69 9 -48 -4 -213 9 -237 19 -1 0 2 10 8 20 5 11 17 109 26 218
9 109 19 223 22 253 l7 55 96 -3 c74 -3 98 -1 107 11 29 35 -13 61 -123 76
-38 6 -93 14 -121 20 -28 5 -86 12 -130 15 -43 4 -97 8 -119 11 -26 3 -48 -1
-62 -12z"/>
<path d="M14066 7742 c-3 -5 4 -37 15 -73 12 -36 21 -97 22 -139 l2 -75 -65
-3 c-52 -2 -68 -7 -78 -22 -25 -40 20 -72 103 -74 29 -1 30 -2 29 -51 -1 -27
-6 -90 -13 -140 l-11 -90 26 -22 c14 -13 29 -23 34 -23 19 0 31 44 46 172 9
75 21 139 28 146 7 7 35 19 62 26 38 9 50 17 52 34 4 23 -3 25 -63 23 -46 -2
-56 11 -66 88 -9 78 -42 196 -60 218 -13 14 -55 18 -63 5z"/>
<path d="M13538 7540 c-89 -19 -148 -47 -148 -71 0 -25 78 -108 108 -116 27
-6 43 -15 117 -62 85 -54 113 -94 83 -118 -7 -6 -50 -17 -95 -26 -74 -15 -86
-15 -128 -1 -51 18 -60 28 -57 65 2 23 -1 26 -22 22 -24 -5 -46 -39 -46 -72 0
-19 30 -51 48 -51 6 0 16 -8 21 -19 22 -41 195 -68 236 -37 11 9 31 16 44 16
36 0 101 70 101 109 0 37 -65 108 -126 137 -21 10 -49 28 -61 41 -13 12 -38
34 -58 49 -19 14 -35 30 -35 34 0 14 62 24 137 21 63 -2 73 0 82 17 13 25 14
59 2 67 -22 13 -132 11 -203 -5z"/>
<path d="M12995 7495 c-45 -20 -116 -87 -117 -110 0 -11 3 -57 7 -102 6 -68
11 -83 24 -83 10 0 22 -5 28 -11 7 -7 15 -5 27 6 11 12 16 35 16 82 0 82 21
129 60 138 70 15 120 -60 145 -217 8 -48 38 -68 66 -42 27 24 25 95 -6 179
-27 76 -58 114 -124 150 -49 28 -82 31 -126 10z"/>
<path d="M14645 7442 c-11 -2 -63 -31 -116 -63 -53 -32 -100 -59 -106 -59 -18
0 -102 -89 -109 -115 -16 -65 17 -118 95 -151 44 -18 78 -17 123 4 38 18 102
87 113 123 10 31 25 19 61 -46 22 -43 39 -61 58 -66 34 -9 44 10 23 43 -8 13
-27 59 -42 103 -16 44 -32 85 -37 92 -5 6 -12 37 -15 67 -6 60 -17 75 -48 68z
m-65 -226 c-11 -24 -29 -53 -39 -65 -21 -24 -89 -50 -111 -43 -20 7 -39 33
-40 54 0 31 61 88 134 123 l71 34 3 -30 c2 -16 -6 -49 -18 -73z"/>
<path d="M15495 7430 c-3 -5 -16 -9 -28 -8 -12 1 -46 -13 -75 -31 -61 -38 -97
-94 -106 -165 -12 -96 65 -181 176 -193 57 -7 110 9 182 52 32 19 60 35 61 35
2 0 6 -11 9 -24 8 -32 100 -114 154 -138 23 -11 73 -22 110 -24 63 -5 69 -4
95 21 28 27 47 63 47 90 0 11 -10 10 -45 -6 -41 -18 -52 -19 -103 -9 -39 8
-71 23 -100 47 -47 38 -46 49 6 56 19 3 42 13 51 21 10 9 23 16 31 16 16 0 81
40 97 60 22 27 14 58 -25 99 -74 78 -132 65 -235 -52 -49 -56 -64 -66 -153
-101 -166 -66 -242 -57 -259 30 -5 29 -1 43 20 74 22 32 35 40 84 51 48 10 62
18 82 47 22 33 23 35 4 48 -22 16 -71 19 -80 4z"/>
<path d="M14953 7383 c-17 -9 -37 -27 -44 -40 -7 -13 -27 -31 -45 -39 -18 -9
-35 -25 -38 -37 -4 -19 19 -198 26 -201 2 -1 14 -7 27 -14 36 -21 54 3 52 71
-1 79 32 180 64 195 34 16 30 18 63 -31 34 -51 53 -123 54 -200 1 -48 4 -56
25 -66 48 -22 63 -10 63 51 0 56 -24 162 -44 198 -10 19 -26 47 -33 62 -33 64
-102 85 -170 51z"/>
<path d="M16653 5527 c-21 -9 -23 -17 -23 -86 0 -88 25 -230 43 -248 18 -18
398 -26 447 -10 30 10 36 17 38 47 4 41 -14 183 -32 254 l-13 49 -219 2 c-131
1 -228 -2 -241 -8z m213 -163 c27 -30 56 -54 63 -54 7 0 11 -6 8 -12 -2 -7
-11 -11 -18 -9 -8 2 -45 3 -83 2 -73 -1 -106 10 -106 36 0 15 2 15 18 0 24
-22 48 -22 56 0 10 24 -43 96 -66 90 -10 -3 -18 -1 -18 5 0 7 17 8 48 3 40 -5
54 -14 98 -61z m189 -13 c0 -43 -4 -66 -12 -68 -7 -3 -16 3 -20 13 -7 19 -25
44 -55 76 -34 35 -23 49 35 46 l52 -3 0 -64z"/>
<path d="M17106 5119 c-33 -26 -34 -68 -3 -97 34 -32 56 -28 73 14 22 52 6
103 -32 104 -6 0 -23 -9 -38 -21z"/>
<path d="M11175 5499 c-29 -17 -29 -17 -14 -35 7 -9 15 -30 16 -48 9 -110 21
-194 31 -212 9 -17 25 -23 74 -29 108 -14 257 -8 286 11 24 16 24 17 19 128
-3 61 -11 126 -17 145 l-13 33 -81 -7 c-51 -4 -92 -2 -110 5 -45 17 -168 23
-191 9z m170 -104 c33 -8 83 -14 111 -15 55 0 64 -8 64 -55 0 -13 -3 -30 -6
-39 -7 -19 -44 -22 -44 -3 -1 16 -109 89 -121 82 -15 -10 -10 -30 12 -59 25
-32 20 -43 -11 -24 -20 12 -100 110 -100 123 0 9 32 5 95 -10z"/>
<path d="M11151 5096 c-15 -16 -21 -31 -17 -44 17 -53 77 -54 95 -1 14 39 14
35 -5 53 -22 23 -47 20 -73 -8z"/>
<path d="M18196 8283 c-2 -2 -230 -14 -343 -18 -51 -2 -116 -10 -145 -18 -29
-8 -80 -21 -113 -28 -112 -22 -225 -67 -301 -120 -23 -16 -47 -29 -52 -29 -13
0 -124 -73 -187 -123 -68 -54 -175 -168 -175 -188 0 -19 31 -49 51 -49 8 0 48
33 89 73 76 74 139 119 240 171 30 16 73 41 95 55 54 36 101 56 160 69 150 33
213 44 345 63 133 18 178 20 538 14 215 -3 403 -10 415 -14 13 -5 68 -12 123
-15 100 -6 122 -11 318 -72 61 -19 117 -34 127 -34 18 0 194 -61 244 -84 27
-13 87 -37 209 -82 22 -8 52 -26 68 -40 16 -13 35 -24 43 -24 7 0 18 -7 26
-16 7 -8 36 -27 63 -41 28 -14 53 -29 56 -33 3 -4 25 -19 49 -34 60 -38 97
-71 240 -216 254 -257 331 -339 362 -386 18 -27 56 -76 85 -109 149 -173 259
-396 343 -697 30 -108 31 -377 1 -493 -11 -43 -20 -85 -20 -93 0 -9 -16 -49
-36 -89 -45 -90 -119 -161 -217 -209 -38 -18 -76 -39 -84 -45 -13 -12 -57 -22
-150 -35 l-43 -7 -2 89 c-4 210 -10 254 -39 254 -24 0 -77 -37 -144 -100 -39
-37 -96 -84 -128 -105 -31 -21 -57 -42 -57 -47 0 -5 -13 -8 -28 -7 -32 4 -82
-24 -82 -44 0 -7 -13 -26 -30 -42 -16 -16 -30 -34 -30 -40 0 -7 28 -27 63 -45
34 -18 78 -46 99 -64 20 -17 67 -53 104 -81 38 -27 93 -73 122 -102 57 -54
102 -79 127 -69 12 4 15 26 15 113 0 59 3 124 8 143 7 33 10 35 52 38 25 2 49
7 55 13 5 5 15 9 23 9 8 0 43 14 79 30 35 17 69 30 75 30 6 0 46 20 89 46 135
79 220 197 253 354 48 221 49 230 42 400 -6 178 -10 199 -88 415 -68 187 -74
203 -84 217 -6 7 -21 38 -34 68 -22 51 -94 168 -110 180 -12 9 -134 164 -154
195 -10 17 -66 77 -125 135 -58 58 -119 123 -133 145 -32 47 -170 183 -213
210 -31 20 -133 102 -150 121 -18 20 -270 184 -283 184 -7 0 -59 22 -115 49
-56 27 -113 52 -127 56 -14 4 -52 20 -85 35 -70 31 -100 42 -175 63 -133 38
-167 47 -200 53 -19 3 -51 12 -70 19 -19 8 -78 21 -130 30 -52 9 -111 20 -130
25 -19 5 -116 9 -215 10 -99 0 -211 5 -250 10 -58 8 -212 10 -219 3z"/>
<path d="M573 8270 c-144 -6 -165 -19 -174 -106 -4 -32 -5 -67 -4 -79 19 -117
37 -281 40 -375 2 -63 9 -178 15 -255 16 -220 20 -404 10 -473 -6 -45 -5 -73
4 -99 10 -30 10 -44 -1 -76 -11 -31 -11 -47 -2 -74 13 -41 6 -529 -9 -578 -5
-17 -5 -75 0 -135 4 -58 5 -112 2 -120 -3 -8 -7 -98 -10 -200 -2 -102 -6 -252
-10 -335 -6 -138 -6 -227 -3 -668 l1 -158 29 -14 c26 -14 29 -14 38 3 6 12 6
44 0 93 -9 68 -8 314 6 1074 3 132 7 283 10 335 15 261 21 420 18 465 -2 28
-5 185 -7 350 -2 165 -8 392 -14 505 -6 113 -14 261 -17 330 -3 69 -8 143 -11
165 -3 22 -7 51 -9 65 -2 14 -6 70 -10 125 -9 138 -10 137 136 138 210 2 539
-20 673 -44 33 -6 98 -10 145 -9 47 1 142 -1 211 -5 221 -12 583 -21 635 -15
43 4 305 -19 340 -30 17 -6 118 -8 235 -6 113 2 261 -1 330 -6 69 -6 172 -11
230 -13 58 -2 179 -6 270 -10 91 -4 172 -6 180 -5 8 0 166 3 350 5 184 2 376
7 425 11 50 4 95 6 100 6 6 -1 62 -6 125 -12 63 -6 138 -18 165 -26 l51 -14
14 -62 c8 -35 15 -81 16 -103 7 -184 40 -570 49 -585 2 -4 5 -69 6 -146 1 -76
6 -155 11 -174 5 -19 11 -89 13 -155 3 -66 7 -142 10 -170 3 -27 7 -142 10
-255 2 -113 9 -263 15 -335 10 -105 10 -789 0 -1296 0 -9 -8 -20 -17 -24 -55
-22 -319 -41 -523 -37 -205 4 -302 3 -370 -2 -41 -3 -158 -8 -260 -11 -102 -3
-207 -8 -235 -12 -27 -4 -93 -7 -145 -8 -135 -3 -251 -14 -264 -24 -6 -5 -110
-17 -231 -27 -188 -16 -326 -19 -935 -19 -726 0 -970 6 -1230 29 -80 7 -199
14 -265 15 -66 1 -134 4 -152 7 -26 5 -34 2 -49 -21 -17 -26 -17 -27 14 -58
l31 -31 163 -3 c90 -2 188 -5 218 -7 338 -26 631 -33 1300 -30 344 1 657 5
695 8 39 4 133 11 210 16 132 9 201 17 355 40 36 6 146 13 245 15 99 3 230 8
290 11 61 3 308 7 550 9 288 1 460 7 497 14 31 7 67 11 80 10 64 -6 97 1 110
24 12 23 13 60 18 817 2 359 -5 761 -15 845 -3 22 -7 105 -10 185 -5 125 -19
335 -40 605 -3 39 -12 158 -21 265 -43 551 -61 707 -86 737 -18 22 -79 44
-133 48 -27 2 -75 8 -105 14 -30 6 -86 8 -125 5 -38 -3 -90 -7 -115 -8 -25 -1
-88 -6 -140 -10 -66 -5 -104 -4 -125 4 -29 11 -94 12 -565 7 -124 -1 -338 7
-500 18 -25 2 -87 9 -138 16 -73 10 -100 10 -126 1 -24 -9 -41 -10 -61 -2 -16
6 -89 10 -169 9 -85 -2 -165 3 -201 11 -37 8 -88 10 -131 6 -59 -4 -74 -3 -85
11 -12 14 -32 15 -169 9 -187 -9 -161 -9 -245 0 -42 4 -86 2 -109 -4 -22 -6
-44 -8 -50 -3 -18 13 -207 28 -451 36 -188 5 -301 13 -338 23 -18 5 -75 9
-127 11 -52 1 -129 5 -170 9 -41 4 -125 5 -187 2z"/>
<path d="M20032 8224 c-42 -29 -23 -84 30 -84 45 0 67 69 29 90 -26 13 -33 13
-59 -6z"/>
<path d="M3068 7684 c-32 -17 -34 -36 -13 -87 8 -20 15 -57 15 -82 0 -25 9
-78 20 -117 11 -40 20 -86 20 -101 0 -26 -3 -29 -27 -24 -14 3 -44 -1 -66 -9
-22 -8 -52 -14 -66 -14 -41 0 -114 -75 -139 -143 -19 -49 -20 -61 -9 -98 10
-35 21 -48 58 -70 26 -15 68 -30 95 -33 97 -13 212 38 251 112 20 39 20 40 2
45 -10 3 -29 -3 -41 -12 -86 -65 -168 -83 -232 -50 -59 29 -59 74 -2 136 28
31 40 37 88 41 55 4 118 -16 118 -38 0 -5 11 -17 25 -26 21 -14 31 -15 50 -6
25 11 33 39 17 58 -17 18 -65 228 -77 334 -8 74 -39 193 -50 196 -6 2 -22 -4
-37 -12z"/>
<path d="M959 7575 c-37 -20 -42 -40 -20 -83 23 -47 29 -81 37 -217 8 -130 8
-122 -5 -254 -6 -68 -6 -111 0 -123 33 -62 232 -85 396 -46 57 13 103 40 103
59 0 16 -73 31 -123 25 -138 -16 -257 -5 -290 28 -11 12 -13 46 -11 168 5 204
-11 378 -38 423 -11 19 -21 35 -21 35 -1 -1 -14 -7 -28 -15z"/>
<path d="M1659 7302 c-34 -22 -108 -108 -120 -139 -27 -71 3 -188 59 -231 30
-23 46 -27 106 -29 133 -3 210 30 266 115 48 72 39 133 -28 201 -42 42 -98 71
-175 90 -61 14 -76 13 -108 -7z m181 -100 c56 -34 87 -84 72 -116 -5 -12 -34
-41 -64 -64 -61 -47 -87 -51 -161 -26 -41 14 -48 21 -58 55 -10 32 -9 46 5 81
43 109 107 131 206 70z"/>
<path d="M2380 7293 c-19 -8 -50 -22 -68 -29 -111 -47 -211 -147 -212 -211 0
-24 8 -38 36 -61 72 -60 146 -49 219 32 28 31 58 56 68 56 9 0 30 -19 46 -42
63 -93 121 -129 168 -106 35 17 40 36 11 47 -27 10 -81 68 -120 128 -15 23
-46 53 -68 65 -39 23 -53 48 -26 48 8 0 24 8 36 18 18 14 22 25 16 45 -5 23
-12 27 -39 26 -17 0 -48 -7 -67 -16z m-50 -148 c0 -43 -63 -115 -100 -115 -10
0 -23 7 -30 15 -17 21 7 56 62 88 51 30 68 33 68 12z"/>
<path d="M2146 6097 c-27 -9 -28 -11 -23 -61 7 -62 23 -171 37 -246 26 -145
50 -324 45 -338 -3 -9 -3 -34 0 -56 5 -31 13 -44 33 -54 17 -8 29 -9 36 -2 16
16 7 140 -30 395 -8 55 -19 136 -25 180 -14 109 -29 184 -37 188 -4 3 -20 0
-36 -6z"/>
<path d="M908 6082 c-52 -16 -108 -54 -108 -74 0 -5 12 -13 27 -19 51 -19 61
-36 68 -117 4 -43 11 -95 17 -117 15 -59 29 -169 31 -260 3 -82 17 -125 42
-125 30 0 33 34 19 204 -8 93 -12 171 -10 174 5 4 22 -4 115 -54 13 -7 27 -17
30 -23 4 -5 41 -32 84 -60 70 -46 77 -53 77 -84 0 -72 -163 -178 -283 -182
-62 -3 -110 -16 -121 -33 -3 -5 5 -19 19 -32 21 -20 30 -22 82 -16 93 11 153
27 233 63 90 41 106 54 132 112 37 82 3 145 -122 228 -80 53 -160 120 -160
133 0 3 16 12 35 19 70 25 141 104 137 154 -4 47 -30 86 -70 103 -55 23 -204
26 -274 6z m206 -71 c60 -15 63 -25 26 -68 -18 -21 -47 -45 -64 -54 -37 -19
-106 -33 -107 -22 -1 4 -3 24 -5 43 -2 19 -6 47 -8 62 -6 30 2 37 48 49 32 8
46 7 110 -10z"/>
<path d="M19482 5805 c-29 -8 -66 -22 -82 -30 -16 -8 -36 -15 -45 -15 -20 0
-98 -45 -116 -66 -7 -8 -37 -31 -66 -51 -82 -54 -121 -106 -154 -203 -37 -107
-44 -171 -29 -243 16 -78 112 -264 157 -304 35 -32 109 -73 130 -73 6 0 16 -6
22 -14 6 -8 42 -19 79 -26 37 -7 106 -26 153 -41 48 -16 96 -29 107 -29 11 0
52 16 91 35 39 19 75 35 81 35 6 0 24 14 42 30 17 17 34 30 37 30 18 0 79 102
94 155 27 100 29 133 13 238 -8 56 -20 140 -26 186 -19 160 -66 215 -309 373
-38 24 -117 30 -179 13z m162 -125 c68 -33 154 -104 186 -152 26 -39 33 -65
46 -160 21 -145 20 -289 0 -345 -19 -55 -75 -111 -154 -157 -79 -45 -122 -47
-240 -7 -48 16 -103 32 -123 35 -36 6 -144 69 -165 97 -15 19 -58 102 -90 172
-23 52 -25 65 -19 127 8 76 46 167 88 213 14 15 29 27 32 27 8 0 61 38 102 71
17 15 64 37 105 49 40 13 78 26 83 30 9 8 46 15 89 19 11 0 38 -8 60 -19z"/>
<path d="M19430 5509 c-82 -16 -91 -20 -116 -46 -32 -34 -30 -49 5 -68 27 -13
37 -13 102 0 41 9 76 12 81 7 10 -10 -61 -48 -103 -56 -31 -7 -79 -49 -79 -71
0 -22 41 -35 155 -49 l100 -11 3 -31 c5 -52 -22 -71 -105 -77 -58 -4 -79 -2
-109 14 -38 19 -38 19 -61 -3 -62 -58 10 -132 129 -131 51 1 150 23 187 42 28
14 73 182 60 219 -5 12 -29 35 -53 50 -32 19 -44 31 -39 42 4 8 8 35 10 60 5
56 -25 110 -59 110 -13 0 -32 2 -43 4 -11 2 -40 0 -65 -5z"/>
<path d="M3680 5772 c-51 -30 -74 -52 -107 -101 -24 -35 -43 -75 -43 -88 0
-78 170 -182 310 -190 71 -4 77 -3 109 24 34 29 36 61 4 49 -8 -4 -59 1 -114
9 -124 18 -209 66 -209 117 0 28 58 84 125 121 70 38 84 70 40 87 -38 15 -44
13 -115 -28z"/>
<path d="M1793 5765 c-82 -50 -218 -157 -260 -207 -35 -40 -43 -57 -43 -89 0
-59 23 -104 70 -135 93 -62 187 -20 254 111 14 28 33 59 42 70 15 19 16 19 27
2 80 -126 129 -168 172 -149 32 15 31 23 -8 47 -22 14 -46 48 -77 107 -25 48
-59 104 -76 125 -31 38 -32 38 -53 19 -12 -11 -31 -51 -42 -90 -29 -96 -52
-140 -92 -170 -45 -34 -89 -34 -116 0 -27 34 -27 41 7 95 22 34 59 65 157 129
127 85 151 110 133 143 -12 24 -46 21 -95 -8z"/>
<path d="M4140 5782 c-34 -5 -97 -77 -105 -121 -9 -51 -32 -83 -54 -76 -12 4
-24 -2 -34 -19 -15 -22 -15 -25 1 -39 9 -9 29 -20 43 -25 17 -7 35 -29 53 -66
43 -88 94 -110 216 -93 24 3 137 72 152 92 25 33 -8 33 -72 -1 -45 -23 -57
-26 -114 -19 -71 7 -106 30 -106 70 0 20 7 26 43 35 77 20 116 42 152 88 44
57 46 93 6 133 -16 16 -38 29 -48 30 -10 0 -38 3 -63 7 -25 4 -56 6 -70 4z
m121 -91 l24 -20 -32 -32 c-52 -53 -143 -72 -143 -30 0 29 19 84 32 93 25 15
95 9 119 -11z"/>
<path d="M2680 5740 c-112 -82 -143 -111 -171 -155 -62 -98 -75 -166 -40 -219
42 -64 102 -71 191 -25 51 27 64 39 91 90 18 33 37 58 43 56 5 -2 18 -25 27
-52 13 -38 23 -51 50 -62 30 -13 35 -12 46 3 17 23 16 34 -3 55 -9 10 -25 53
-36 96 -20 81 -43 126 -77 157 -16 15 -18 23 -10 38 6 10 7 28 4 38 -10 32
-54 25 -115 -20z m76 -84 c-8 -15 -22 -59 -32 -98 -31 -120 -118 -194 -179
-154 -23 15 -24 17 -9 53 27 66 65 117 112 153 26 19 51 37 57 39 5 2 21 12
34 23 30 23 35 18 17 -16z"/>
<path d="M18108 5770 c-58 -4 -84 -10 -107 -27 -16 -13 -50 -27 -75 -33 -50
-11 -96 -30 -96 -40 0 -3 -16 -12 -35 -19 -19 -7 -40 -22 -46 -34 -7 -12 -29
-42 -49 -67 -43 -53 -72 -144 -85 -269 -8 -67 11 -184 36 -231 10 -19 29 -60
42 -91 14 -30 48 -80 75 -110 48 -52 56 -57 137 -77 47 -12 99 -22 115 -22 16
0 60 -12 97 -26 84 -32 150 -33 221 -5 29 11 64 21 78 21 14 0 38 8 52 18 15
10 48 29 73 41 25 12 64 43 86 69 92 110 122 201 103 318 -19 116 -88 347
-109 364 -3 3 -23 26 -44 52 -60 75 -151 118 -342 162 -27 6 -85 9 -127 6z
m252 -140 c66 -24 122 -58 151 -95 81 -98 156 -416 114 -485 -8 -14 -21 -38
-30 -55 -8 -16 -23 -39 -32 -50 -32 -37 -129 -95 -174 -104 -24 -5 -72 -20
-106 -32 l-63 -23 -27 26 c-36 34 -90 48 -181 48 -142 0 -209 56 -267 227 -22
63 -27 95 -26 168 1 173 54 253 228 342 128 66 285 79 413 33z"/>
<path d="M17972 5527 c-13 -7 -32 -28 -43 -46 l-20 -33 23 -25 c21 -22 27 -24
84 -17 34 3 85 3 114 -1 57 -8 60 -11 81 -108 16 -73 8 -83 -51 -62 -67 24
-142 3 -211 -60 -24 -20 -27 -29 -20 -44 6 -10 8 -21 5 -24 -8 -8 29 -67 58
-93 13 -12 35 -24 51 -28 37 -9 130 19 167 50 l29 25 45 -30 c53 -37 100 -41
116 -10 20 36 4 67 -45 90 -25 12 -48 26 -51 31 -4 5 -6 60 -5 121 1 99 -2
118 -23 163 -13 28 -37 60 -52 71 -57 40 -203 57 -252 30z m188 -401 c0 -32
-118 -49 -128 -18 -5 16 33 31 86 31 29 1 42 -3 42 -13z"/>
<path d="M3117 5719 c-32 -22 -66 -57 -76 -77 l-19 -37 -11 27 c-13 34 -26 41
-51 28 -26 -14 -26 -54 1 -150 36 -129 38 -131 92 -111 23 9 36 46 39 111 0 8
13 42 29 75 28 61 57 89 81 79 35 -14 111 -173 123 -257 8 -50 32 -77 69 -77
17 0 18 5 13 63 -7 65 -41 182 -62 207 -7 8 -18 31 -24 50 -21 62 -77 110
-130 110 -10 0 -43 -18 -74 -41z"/>
<path d="M4655 5736 c-16 -7 -51 -32 -77 -55 -25 -22 -55 -41 -65 -41 -25 0
-43 -19 -42 -44 0 -12 15 -57 33 -101 25 -62 38 -82 59 -89 42 -15 57 5 55 79
-4 116 46 180 148 191 64 6 131 31 118 44 -34 30 -175 40 -229 16z"/>
<path d="M10608 4732 c-13 -9 -46 -37 -75 -62 -28 -26 -66 -54 -85 -63 -18 -9
-67 -45 -108 -80 -42 -35 -116 -90 -165 -122 -107 -69 -158 -103 -195 -130
-100 -73 -245 -158 -365 -214 -27 -13 -61 -31 -75 -41 -14 -9 -50 -23 -80 -29
-199 -44 -230 -56 -230 -90 0 -10 11 -26 24 -34 21 -14 30 -14 102 3 105 25
231 68 274 95 19 12 53 28 75 35 22 7 45 19 50 26 6 7 35 22 65 35 30 12 64
30 75 39 11 9 43 29 70 45 28 16 55 34 60 41 19 23 105 84 157 111 67 33 165
102 231 161 28 25 77 62 108 82 31 20 82 58 113 85 50 42 56 52 56 86 0 35 -2
38 -30 37 -16 -1 -40 -8 -52 -16z"/>
<path d="M5720 4733 c-36 -13 -39 -23 -20 -66 12 -27 21 -80 25 -147 3 -58 12
-136 20 -175 23 -123 27 -195 10 -201 -21 -9 -18 -27 8 -52 22 -21 25 -21 73
-7 27 8 63 27 80 42 118 108 183 163 191 163 6 0 27 -16 47 -35 21 -19 58 -47
84 -61 26 -15 58 -34 72 -44 38 -25 160 -76 260 -106 25 -8 78 -25 118 -39 40
-13 96 -27 125 -31 29 -4 60 -11 70 -16 10 -5 77 -14 149 -19 72 -6 147 -17
166 -24 21 -9 49 -13 71 -9 20 3 55 1 77 -5 61 -16 257 -18 262 -3 6 19 -14
38 -71 65 -62 29 -88 36 -187 47 -41 5 -120 16 -175 24 -55 8 -124 17 -154 20
-29 4 -57 9 -61 11 -5 3 -46 12 -93 20 -108 19 -306 76 -405 117 -121 49 -273
141 -272 165 1 12 119 103 135 103 8 0 23 19 33 43 23 51 76 107 103 107 26 0
25 41 -2 66 -19 17 -32 18 -113 14 -122 -7 -351 -5 -403 3 -23 3 -71 13 -108
22 -69 16 -90 17 -115 8z"/>
<path d="M8248 4445 c-4 -4 -29 -7 -55 -7 -52 1 -127 -28 -137 -53 -3 -8 -16
-15 -30 -15 -32 0 -105 -71 -138 -135 -33 -63 -45 -130 -54 -281 -5 -103 -3
-135 15 -220 36 -163 64 -205 201 -302 38 -27 58 -33 135 -41 50 -5 102 -15
116 -21 20 -9 32 -9 48 -1 16 9 35 8 83 -5 149 -38 281 31 360 187 75 148 81
181 75 373 -3 112 -11 192 -22 231 -28 105 -105 203 -193 245 -74 35 -86 40
-107 40 -11 0 -81 3 -155 6 -74 3 -138 3 -142 -1z m165 -100 c79 -10 160 -18
190 -18 21 0 38 -12 71 -51 24 -28 53 -69 64 -91 27 -52 53 -206 54 -320 1
-160 -62 -310 -159 -377 -42 -28 -55 -31 -138 -35 -74 -3 -94 -1 -105 11 -7 9
-25 16 -41 16 -22 0 -29 -5 -29 -20 0 -24 1 -24 -41 -6 -19 7 -61 16 -93 20
-33 4 -74 16 -93 27 -43 27 -123 133 -139 185 -35 116 -40 368 -9 470 31 104
125 169 270 189 89 12 102 12 198 0z"/>
<path d="M8386 4194 c-9 -8 -16 -32 -17 -52 -4 -137 -8 -192 -17 -232 -6 -25
-11 -95 -12 -156 0 -119 3 -127 51 -139 37 -9 40 6 44 240 2 110 9 224 14 254
14 69 6 101 -24 101 -13 0 -31 -7 -39 -16z"/>
<path d="M17627 4368 c-10 -17 -14 -88 -16 -286 -2 -227 0 -266 13 -288 19
-28 42 -31 55 -6 5 10 9 138 8 300 -2 239 -4 284 -17 292 -22 14 -28 12 -43
-12z"/>
<path d="M17901 4240 c-37 -6 -52 -16 -87 -56 -50 -57 -63 -108 -45 -182 14
-54 56 -148 71 -157 6 -3 10 -17 10 -31 0 -33 34 -64 70 -64 47 0 138 27 173
52 60 42 71 77 52 174 -25 133 -84 229 -156 258 -22 9 -40 15 -42 15 -1 -1
-22 -5 -46 -9z m73 -113 c50 -28 86 -97 93 -176 l6 -60 -45 -21 -44 -22 -45
31 c-88 58 -119 200 -57 254 27 22 45 21 92 -6z"/>
<path d="M19642 4194 c-15 -10 -21 -22 -17 -37 3 -12 7 -105 9 -207 3 -193 11
-234 48 -246 35 -11 44 18 37 124 -4 53 -7 144 -8 202 -1 112 -14 180 -34 180
-7 0 -23 -7 -35 -16z"/>
<path d="M19996 4165 c-11 -8 -28 -15 -37 -15 -16 0 -97 -82 -100 -101 -2 -10
-2 -11 -13 -50 -5 -16 1 -52 14 -100 21 -69 27 -98 29 -125 2 -21 50 -64 73
-64 49 0 138 68 187 140 45 68 51 108 30 185 -30 108 -124 174 -183 130z m74
-108 c20 -16 40 -62 40 -93 0 -35 -34 -97 -70 -128 -17 -14 -35 -26 -39 -26
-15 0 -53 96 -58 145 -5 50 -4 52 33 83 41 34 69 39 94 19z"/>
<path d="M20850 4091 c-14 -4 -40 -11 -58 -16 -35 -8 -82 -64 -82 -97 0 -24
46 -75 86 -94 19 -9 34 -20 34 -25 0 -5 4 -9 10 -9 13 0 110 -70 110 -79 0 -4
-6 -16 -14 -27 -13 -16 -26 -19 -99 -17 -118 2 -125 -23 -20 -76 57 -28 95
-27 142 7 77 55 72 127 -14 194 -27 21 -70 55 -93 75 l-44 36 24 19 c14 11 32
16 47 13 44 -11 69 56 33 88 -20 18 -23 19 -62 8z"/>
<path d="M18745 4044 c-38 -13 -80 -36 -93 -49 -21 -23 -22 -27 -8 -54 23 -43
70 -86 121 -111 25 -12 43 -25 40 -28 -3 -4 -45 -9 -92 -12 -68 -4 -88 -9 -97
-23 -9 -15 -5 -24 27 -53 30 -28 44 -34 65 -30 15 3 45 9 67 12 62 9 109 45
120 92 8 41 -13 77 -58 99 -64 30 -77 38 -82 51 -2 7 1 14 8 16 110 30 125 37
131 62 15 59 -37 68 -149 28z"/>
<path d="M20354 4039 c-54 -42 -106 -98 -100 -108 3 -4 6 -51 7 -104 1 -78 5
-99 19 -112 15 -13 23 -14 39 -5 18 9 21 20 21 75 0 35 4 66 9 69 5 3 14 25
20 49 11 45 35 76 49 63 4 -4 14 -28 22 -53 21 -64 44 -76 76 -39 14 15 27 27
29 24 2 -2 12 -37 22 -78 17 -69 20 -75 46 -78 17 -2 27 1 28 10 0 7 2 29 4
48 2 19 0 64 -5 99 -7 54 -15 70 -42 98 -32 31 -34 32 -61 18 -28 -14 -30 -13
-62 20 -41 44 -70 45 -121 4z"/>
<path d="M18265 4026 c-51 -19 -56 -33 -50 -120 6 -84 28 -136 56 -136 21 0
29 28 29 103 0 77 21 76 49 -4 21 -55 25 -60 49 -57 21 2 29 12 42 48 19 54
45 64 61 24 5 -16 9 -40 8 -54 -4 -36 8 -63 32 -78 31 -19 42 -3 45 65 6 138
-62 214 -151 167 -30 -15 -30 -15 -60 20 -32 39 -55 43 -110 22z"/>
<path d="M18096 3371 c-15 -16 -16 -30 -10 -90 l7 -71 -50 0 c-36 0 -58 -6
-77 -21 -54 -42 -19 -79 80 -83 81 -4 94 -17 94 -92 0 -88 47 -98 70 -13 6 21
10 41 9 46 -8 47 16 54 94 27 55 -19 74 -14 87 21 20 53 -14 75 -144 95 -33 5
-63 15 -67 21 -4 7 -12 40 -18 72 -10 58 -33 107 -50 107 -4 0 -16 -9 -25 -19z"/>
<path d="M20274 3311 c-15 -13 -23 -38 -28 -81 -8 -67 -22 -80 -90 -80 -50 0
-78 -48 -50 -85 12 -16 27 -20 72 -20 l57 0 7 -64 c9 -84 13 -91 42 -91 33 0
37 9 45 93 l6 72 60 3 c33 2 64 7 70 13 5 5 17 9 27 9 39 0 41 71 1 84 -10 3
-53 7 -95 8 l-76 2 1 75 c2 83 -10 99 -49 62z"/>
<path d="M7856 2944 c-13 -12 -16 -41 -18 -132 -4 -310 10 -375 68 -311 17 19
19 39 19 230 0 176 -2 211 -15 219 -22 14 -36 12 -54 -6z"/>
<path d="M8195 2933 c-48 -10 -84 -30 -136 -76 -45 -38 -59 -58 -68 -92 -21
-82 10 -194 68 -248 29 -27 34 -28 123 -26 100 2 140 15 159 52 7 12 14 79 17
154 5 131 4 131 -23 167 -15 20 -48 45 -73 56 -24 11 -45 19 -46 19 0 -1 -10
-3 -21 -6z m42 -93 c22 -8 33 -21 41 -48 13 -44 4 -188 -12 -201 -20 -16 -91
-15 -128 2 -23 11 -41 30 -53 56 -26 58 -15 101 38 143 33 27 72 55 83 58 1 0
15 -5 31 -10z"/>
<path d="M9006 2780 c-112 -24 -122 -33 -100 -86 25 -62 51 -84 99 -84 45 0
79 -18 67 -37 -4 -6 -34 -13 -67 -14 -89 -3 -125 -16 -125 -44 0 -55 64 -69
174 -41 63 17 100 40 115 74 21 44 13 69 -35 111 l-45 40 35 6 c49 10 73 38
58 70 -14 31 -46 32 -176 5z"/>
<path d="M8505 2741 c-22 -11 -48 -22 -57 -25 -22 -7 -23 -31 -3 -127 8 -41
16 -87 17 -104 2 -18 9 -31 19 -33 28 -5 49 26 49 73 0 24 4 54 9 67 5 13 12
32 16 42 5 16 10 10 30 -31 38 -84 88 -84 124 -1 23 52 23 53 36 28 7 -14 16
-43 20 -65 8 -47 21 -65 46 -65 27 0 40 33 33 82 -16 112 -55 178 -107 178
-40 0 -50 -7 -71 -48 l-17 -34 -36 41 c-39 46 -51 49 -108 22z"/>
<path d="M17511 2598 c-4 -13 -14 -90 -21 -173 -7 -82 -14 -159 -15 -170 -17
-112 -17 -112 11 -140 27 -27 27 -27 46 -7 12 12 22 39 25 66 3 26 9 49 13 51
5 3 16 -15 25 -39 23 -60 77 -112 137 -132 88 -29 145 -2 208 96 28 43 33 62
37 134 5 74 3 89 -19 137 -47 102 -105 149 -183 149 -59 0 -145 -59 -173 -120
l-16 -35 -6 93 c-4 67 -9 95 -20 102 -24 16 -40 11 -49 -12z m344 -161 c38
-38 58 -113 50 -187 -6 -59 -32 -93 -80 -102 -32 -7 -42 -5 -60 12 -12 11 -26
20 -33 20 -24 0 -60 65 -66 121 -12 99 36 169 116 169 32 0 47 -7 73 -33z"/>
<path d="M19583 2478 c-28 -30 -29 -40 -2 -64 16 -14 37 -19 88 -20 36 0 77
-6 89 -13 36 -19 65 -93 57 -143 l-7 -41 -47 6 c-53 6 -140 -14 -152 -34 -4
-8 -19 -27 -33 -42 -30 -33 -32 -45 -8 -73 19 -24 95 -56 114 -49 7 3 28 7 46
9 18 2 46 15 61 30 38 36 56 33 80 -16 26 -55 54 -74 76 -52 8 8 15 25 15 37
0 25 -31 91 -59 127 -17 22 -18 32 -9 90 25 155 -59 256 -222 268 -59 4 -67 2
-87 -20z m167 -358 c0 -11 -27 -20 -61 -20 -26 0 -37 9 -25 21 8 8 86 7 86 -1z"/>
<path d="M20100 2460 c-48 -7 -60 -14 -97 -55 -58 -63 -69 -108 -49 -196 8
-38 25 -88 37 -111 21 -43 72 -97 93 -99 25 -3 52 4 85 22 20 10 41 19 47 19
17 0 72 65 89 107 41 98 -4 236 -95 292 -28 17 -51 30 -53 30 -1 -1 -27 -5
-57 -9z m102 -131 c59 -79 30 -204 -53 -224 -35 -9 -67 20 -90 81 -42 109 -11
178 78 172 36 -2 50 -9 65 -29z"/>
<path d="M18090 2380 c-43 -54 -62 -128 -54 -205 9 -84 19 -105 48 -105 14 0
28 5 32 11 4 6 8 60 9 118 2 103 7 131 24 131 14 0 42 -85 49 -151 9 -80 32
-99 68 -54 13 17 24 42 24 57 0 48 17 39 38 -20 11 -31 24 -69 28 -85 7 -31
37 -52 61 -42 9 3 20 0 24 -7 12 -19 178 -17 214 2 30 16 65 77 65 114 0 27
-35 61 -100 97 -51 29 -51 45 0 53 50 8 78 43 60 77 -11 19 -18 21 -66 16 -53
-5 -164 -53 -164 -69 0 -5 9 -26 19 -47 23 -43 56 -69 121 -92 32 -11 46 -22
48 -37 4 -27 -27 -37 -128 -37 l-74 0 -33 89 c-18 49 -45 105 -59 123 -26 35
-40 38 -84 19 -11 -4 -21 3 -33 24 -18 30 -63 60 -91 60 -8 0 -29 -18 -46 -40z"/>
<path d="M20915 2391 c-6 -5 -26 -14 -45 -20 -19 -6 -46 -20 -60 -31 l-25 -19
18 -34 c10 -19 42 -49 72 -68 86 -54 96 -122 18 -117 -51 3 -69 -42 -22 -57
55 -18 67 -15 98 20 17 20 33 46 37 60 8 34 -30 111 -67 132 -37 22 -37 31 4
48 42 17 66 58 47 80 -14 16 -60 20 -75 6z"/>
<path d="M9583 2358 c-28 -14 -28 -23 1 -125 14 -45 27 -106 31 -136 9 -70 30
-82 52 -30 13 32 13 50 2 133 -12 93 -34 161 -54 166 -5 1 -20 -2 -32 -8z"/>
<path d="M20433 2322 c-49 -45 -63 -83 -64 -169 -1 -68 2 -79 21 -95 46 -37
73 -9 69 70 -2 26 -2 65 -1 87 l2 40 25 -30 c13 -16 23 -34 21 -40 -6 -18 15
-45 35 -45 26 0 79 27 79 41 0 6 10 9 23 7 19 -3 24 -13 37 -76 18 -84 35
-102 68 -71 28 25 28 53 1 131 -25 74 -63 128 -89 128 -10 0 -32 -11 -48 -25
-36 -30 -49 -31 -57 -5 -10 32 -55 80 -75 80 -10 0 -31 -12 -47 -28z"/>
<path d="M9337 2323 c-4 -3 -4 -43 -1 -87 3 -45 1 -87 -4 -94 -5 -7 -26 -14
-48 -16 -24 -2 -49 -13 -67 -29 l-27 -25 -24 31 c-23 28 -27 30 -51 19 -25
-12 -26 -16 -19 -50 4 -20 9 -68 9 -107 2 -76 12 -125 26 -125 5 0 18 9 29 20
17 17 20 33 20 103 0 46 3 86 6 90 3 3 14 -3 25 -14 13 -13 33 -19 64 -19 44
0 45 -1 45 -32 0 -18 -5 -53 -11 -77 -9 -39 -7 -45 12 -62 12 -10 25 -19 29
-19 19 0 41 57 53 132 11 71 16 83 32 84 58 3 97 18 108 41 14 31 1 44 -51 47
-51 3 -68 17 -77 64 -22 122 -26 132 -49 132 -13 0 -26 -3 -29 -7z"/>
<path d="M9107 2242 c-22 -25 -21 -34 6 -61 26 -23 32 -20 56 27 23 44 -28 71
-62 34z"/>
<path d="M8223 2153 c-26 -18 -29 -49 -9 -90 8 -15 24 -53 37 -83 25 -60 43
-80 72 -80 37 0 89 33 105 67 9 18 19 33 23 33 3 0 18 -17 32 -37 14 -21 40
-54 57 -73 l33 -34 28 32 c16 18 29 39 29 48 0 9 16 47 35 85 40 81 45 119 15
119 -29 0 -68 -38 -96 -92 -13 -27 -26 -48 -29 -48 -2 0 -11 15 -20 33 -9 19
-28 48 -43 66 l-27 32 -37 -31 c-21 -17 -38 -37 -38 -43 0 -17 -48 -60 -59
-53 -5 4 -17 32 -26 64 -30 108 -38 116 -82 85z"/>
<path d="M8945 2137 c-11 -8 -49 -27 -85 -42 -36 -16 -78 -41 -94 -57 -15 -15
-32 -28 -37 -28 -4 0 -10 -8 -13 -17 -2 -10 -7 -28 -11 -39 -9 -33 36 -81 84
-89 43 -7 77 6 131 52 32 26 33 26 47 7 8 -10 18 -25 22 -32 9 -16 60 -6 68
14 3 7 -7 39 -22 71 -15 32 -30 83 -34 113 -7 59 -21 71 -56 47z m-55 -135 c0
-4 -7 -18 -16 -30 -11 -16 -25 -22 -55 -22 -49 0 -50 12 -1 38 38 21 72 28 72
14z"/>
<path d="M7416 2130 c-15 -5 -35 -18 -43 -30 -8 -11 -27 -27 -42 -35 l-29 -14
3 -95 c2 -52 6 -99 10 -105 3 -6 21 -11 40 -11 l33 0 4 90 c2 67 7 94 20 106
15 16 18 15 41 -10 20 -21 27 -43 33 -93 5 -47 13 -72 30 -91 24 -27 24 -27
40 -7 30 38 -2 205 -51 267 -25 31 -51 39 -89 28z"/>
<path d="M7759 2077 c-74 -35 -113 -90 -125 -175 -6 -46 -4 -53 19 -76 28 -28
51 -33 63 -15 3 6 9 7 13 2 12 -17 61 -43 81 -43 48 0 108 50 134 111 19 47 4
100 -44 157 -28 33 -43 43 -75 47 -22 2 -51 -1 -66 -8z m74 -88 c30 -16 37
-28 37 -65 0 -58 -73 -84 -117 -42 -29 27 -29 57 -2 92 22 28 48 33 82 15z"/>
<path d="M9626 1919 c-31 -37 -32 -53 -6 -79 42 -42 82 -14 82 58 0 58 -36 68
-76 21z"/>
<path d="M21114 1796 c-20 -14 -20 -22 -17 -203 4 -207 10 -229 55 -218 15 4
29 16 32 29 13 54 16 218 4 306 -11 82 -16 95 -33 98 -11 1 -29 -4 -41 -12z"/>
<path d="M18498 1678 c-7 -13 -12 -57 -13 -98 0 -73 -1 -75 -26 -78 -15 -2
-39 -16 -54 -32 -28 -29 -28 -30 -10 -50 10 -11 36 -23 57 -26 21 -4 41 -11
44 -16 3 -5 9 -39 12 -76 6 -60 10 -68 35 -80 45 -21 57 -3 57 83 l0 72 40 7
c30 5 43 13 53 34 17 33 12 52 -14 52 -11 0 -34 6 -53 14 -30 13 -34 19 -45
82 -7 38 -13 77 -12 86 0 16 -34 48 -51 48 -4 0 -13 -10 -20 -22z"/>
<path d="M18276 1658 c-16 -23 -10 -44 20 -68 14 -12 18 -12 30 5 20 27 17 63
-5 75 -26 14 -28 13 -45 -12z"/>
<path d="M20720 1635 c-9 -16 -11 -44 -7 -85 6 -72 0 -100 -22 -100 -9 -1 -29
-12 -46 -25 -25 -20 -28 -28 -19 -42 6 -10 24 -22 40 -28 55 -19 56 -21 49
-104 -6 -67 -4 -79 12 -92 54 -47 83 -13 83 95 0 64 14 95 43 97 165 10 173
13 163 47 -7 22 -54 37 -148 48 l-56 7 -16 83 c-23 123 -46 154 -76 99z"/>
<path d="M17360 1608 c-17 -18 -19 -30 -14 -72 4 -28 10 -55 15 -60 5 -6 9
-17 9 -25 0 -9 16 -55 36 -104 28 -66 42 -89 60 -93 33 -8 61 11 69 47 4 18
17 52 29 76 l22 43 21 -28 c11 -15 32 -53 47 -83 24 -51 55 -79 87 -79 14 0
76 157 135 340 3 8 -2 24 -10 35 -29 40 -64 -6 -117 -155 -24 -68 -49 -102
-49 -67 0 22 -77 171 -98 190 -18 17 -20 16 -48 -20 -15 -20 -34 -59 -41 -87
-26 -99 -45 -88 -75 45 -25 113 -43 135 -78 97z"/>
<path d="M20478 1575 c-30 -26 -35 -47 -15 -63 15 -12 55 2 63 23 7 18 -3 65
-14 65 -4 0 -19 -12 -34 -25z"/>
<path d="M18079 1531 c-25 -14 -62 -39 -82 -56 -19 -16 -46 -37 -59 -47 -13
-9 -35 -36 -48 -61 l-24 -45 26 -35 c56 -72 136 -71 199 4 18 22 36 39 39 39
4 0 24 -16 44 -35 21 -19 43 -35 50 -35 6 0 17 14 24 32 10 28 9 35 -7 52 -11
12 -33 47 -50 79 -24 49 -28 63 -19 82 26 58 -18 70 -93 26z m-9 -129 c0 -20
-31 -52 -67 -71 -60 -30 -56 3 5 51 54 42 62 45 62 20z"/>
<path d="M19586 1506 l-26 -34 24 -74 c48 -143 99 -228 138 -228 16 0 68 60
68 79 0 9 9 27 19 40 l19 24 6 -21 c4 -12 12 -22 17 -22 5 0 17 -16 26 -36 17
-35 74 -74 107 -74 27 0 51 46 69 131 10 46 24 113 32 148 8 35 12 67 9 72
-13 22 -75 -5 -89 -39 -4 -9 -15 -59 -24 -111 -9 -52 -21 -96 -26 -98 -6 -1
-19 16 -30 40 -20 42 -90 127 -106 127 -4 0 -29 -26 -55 -57 -25 -32 -50 -59
-54 -61 -4 -2 -18 30 -30 70 -12 40 -26 87 -31 105 -17 53 -33 58 -63 19z"/>
<path d="M18271 1477 c-18 -20 -20 -28 -11 -51 5 -15 11 -59 11 -98 1 -55 5
-74 21 -90 25 -25 50 -20 59 13 11 43 -8 209 -27 231 -22 23 -26 23 -53 -5z"/>
<path d="M20247 1460 c-83 -52 -187 -168 -187 -206 0 -20 69 -60 117 -67 36
-6 46 -3 75 20 34 28 42 37 57 62 7 12 14 9 36 -17 50 -60 92 -65 119 -14 l14
26 7 -32 c5 -25 12 -32 30 -32 44 0 54 37 40 152 -4 37 -13 75 -20 85 -12 16
-14 16 -39 -7 -23 -22 -26 -33 -26 -93 0 -64 -1 -67 -20 -57 -22 12 -79 97
-100 150 -27 70 -36 73 -103 30z m-7 -130 c0 -5 -10 -19 -22 -30 -27 -25 -38
-8 -12 21 18 20 34 25 34 9z"/>
<path d="M21141 1244 c-26 -33 -26 -41 -1 -81 33 -55 100 -32 100 33 0 28 -37
74 -60 74 -10 0 -28 -12 -39 -26z"/>
</g>
</svg>
