<?xml version="1.0" standalone="no"?>
<!DOCTYPE svg PUBLIC "-//W3C//DTD SVG 20010904//EN"
 "http://www.w3.org/TR/2001/REC-SVG-20010904/DTD/svg10.dtd">
<svg version="1.0" xmlns="http://www.w3.org/2000/svg"
 width="747.429499pt" height="400.000000pt" viewBox="0 0 747.429499 400.000000"
 preserveAspectRatio="xMidYMid meet">
<metadata>
Created by potrace 1.15, written by Peter Selinger 2001-2017
</metadata>
<g transform="translate(-24.302709,420.813909) scale(0.036250,-0.036250)"
fill="#444444" stroke="none">
<path d="M14459 11595 c-39 -21 -101 -108 -156 -220 -91 -182 -98 -206 -97
-330 1 -129 26 -251 60 -298 13 -17 34 -48 48 -67 32 -47 58 -69 142 -119 55
-32 78 -40 98 -35 32 8 45 47 25 79 -15 25 -84 81 -139 116 -48 29 -97 109
-119 193 -21 82 -16 192 14 286 28 88 99 222 149 277 46 51 55 78 36 114 -13
22 -26 23 -61 4z"/>
<path d="M5614 11555 c-3 -8 10 -54 29 -102 35 -88 57 -157 57 -181 0 -9 -18
-12 -67 -11 -70 1 -140 -22 -127 -42 3 -6 0 -16 -6 -24 -6 -8 -10 -24 -8 -37
3 -22 6 -23 111 -23 86 0 110 -3 116 -15 8 -16 -7 -163 -30 -285 -15 -86 -8
-125 24 -125 38 0 56 22 66 80 5 30 15 87 22 125 7 39 13 109 14 158 1 48 5
91 11 96 5 5 29 16 54 24 25 8 46 21 48 29 5 23 -37 58 -78 64 -42 7 -64 30
-76 80 -4 16 -24 64 -46 107 -27 54 -46 81 -64 87 -34 13 -44 13 -50 -5z"/>
<path d="M6895 11546 c-22 -9 -41 -19 -43 -24 -1 -4 -20 -32 -42 -61 -22 -29
-45 -71 -51 -94 -6 -23 -14 -44 -18 -47 -26 -20 -41 -275 -21 -379 6 -35 6
-59 -1 -75 -16 -35 15 -87 89 -148 32 -27 33 -27 75 -11 50 18 77 23 137 24
24 0 61 9 82 20 20 10 52 19 71 19 18 0 37 4 43 9 9 9 37 14 64 12 8 -1 44
-28 79 -61 35 -33 67 -60 70 -60 17 1 31 19 32 45 2 30 -46 135 -61 135 -19 0
-19 39 0 92 29 83 32 143 9 210 -10 32 -19 62 -19 69 0 6 -26 49 -57 95 -62
93 -161 185 -232 217 -59 26 -154 32 -206 13z m176 -103 c50 -14 68 -25 109
-70 27 -29 55 -53 62 -53 23 0 75 -109 83 -174 4 -32 12 -70 18 -82 8 -19 6
-33 -14 -70 -13 -26 -29 -48 -36 -51 -18 -7 -108 51 -175 114 -31 29 -60 53
-65 53 -31 -1 -48 -45 -33 -85 6 -15 37 -52 70 -83 33 -30 60 -58 60 -62 0
-10 -80 -40 -106 -40 -11 0 -24 -3 -28 -7 -12 -13 -119 -13 -143 -1 -12 6 -32
35 -45 67 -20 49 -23 73 -23 186 0 183 9 228 59 295 34 45 84 79 119 79 15 1
55 -7 88 -16z"/>
<path d="M20356 11505 c-9 -13 -16 -28 -16 -33 0 -5 25 -29 56 -52 71 -54 108
-94 134 -145 23 -48 85 -286 95 -367 12 -96 -28 -267 -97 -413 -36 -77 -37
-121 -3 -137 39 -17 46 -8 120 142 74 152 102 344 71 495 -78 385 -81 392
-201 475 -99 69 -132 76 -159 35z"/>
<path d="M12758 11464 c2 -14 0 -24 -8 -24 -6 0 -9 -8 -6 -17 2 -10 7 -47 10
-83 3 -36 9 -89 12 -117 l6 -53 -66 0 c-54 0 -68 -3 -73 -17 -3 -10 -15 -28
-26 -40 -38 -42 -2 -62 116 -65 55 -1 53 12 36 -170 -12 -137 -7 -183 21 -191
35 -9 57 18 69 85 9 55 31 239 31 267 0 16 69 42 115 45 22 2 56 6 76 10 32 7
37 5 43 -16 4 -12 9 -96 12 -186 5 -192 11 -213 55 -210 32 2 48 24 54 75 5
39 27 97 48 127 46 66 164 73 210 13 40 -53 46 -72 53 -149 7 -78 28 -110 65
-101 18 5 34 47 24 63 -3 5 0 12 6 15 20 13 0 135 -33 203 -34 69 -59 92 -99
92 -16 0 -29 7 -33 16 -4 10 -14 14 -25 11 -10 -2 -24 -1 -31 3 -17 10 -112
-13 -147 -35 -15 -10 -34 -27 -41 -37 -21 -29 -27 -22 -29 35 -8 228 -9 319
-3 363 6 46 3 55 -20 84 l-26 32 -26 -39 c-26 -38 -26 -40 -21 -170 3 -73 3
-133 -1 -133 -4 0 -21 7 -38 16 -19 10 -63 17 -112 19 -89 4 -106 15 -106 69
0 49 -30 159 -54 193 -27 41 -44 49 -38 17z"/>
<path d="M2335 11439 c-16 -5 -36 -7 -43 -4 -20 7 -148 -23 -192 -45 -35 -18
-90 -75 -90 -95 0 -4 13 -22 29 -40 36 -42 48 -96 62 -279 6 -78 13 -166 15
-196 2 -30 6 -81 7 -113 4 -62 14 -81 39 -72 22 9 28 57 28 225 0 80 4 151 9
159 6 10 24 -2 72 -48 35 -33 67 -61 71 -61 4 0 23 -15 41 -32 98 -94 184
-165 191 -156 2 1 -2 29 -9 60 -10 51 -19 66 -81 130 -38 40 -82 84 -99 98
-16 13 -35 32 -42 40 -6 8 -29 35 -51 60 -38 41 -40 46 -25 62 9 10 21 18 27
18 6 0 37 13 68 29 106 54 162 149 129 219 -8 18 -24 34 -36 37 -56 11 -93 12
-120 4z m78 -119 c14 -13 -33 -48 -122 -91 -92 -44 -113 -43 -119 2 -2 13 -9
30 -14 37 -16 19 13 36 86 51 33 7 66 14 71 16 15 6 89 -6 98 -15z"/>
<path d="M10359 11427 c-28 -21 -30 -50 -8 -122 50 -165 75 -332 78 -524 1
-62 6 -123 11 -136 9 -24 53 -41 73 -28 6 4 18 8 27 10 70 12 107 20 116 26 6
3 48 9 95 12 123 9 159 17 159 35 0 16 -49 39 -95 45 -25 3 -64 9 -86 14 -23
5 -41 5 -45 0 -3 -5 -16 -6 -29 -3 -13 3 -32 1 -43 -5 -14 -7 -23 -8 -27 -1
-3 6 -17 7 -31 4 -31 -8 -32 -5 -39 146 -8 182 -18 256 -38 278 -9 10 -14 22
-11 25 4 4 1 13 -6 22 -10 12 -10 15 0 15 13 0 10 19 -17 108 -19 61 -58 98
-84 79z"/>
<path d="M14751 11432 c-38 -4 -49 -10 -106 -60 -34 -31 -36 -36 -26 -59 10
-22 16 -25 46 -20 19 3 37 2 40 -3 3 -4 7 -56 10 -114 3 -86 1 -108 -11 -121
-9 -8 -21 -15 -28 -15 -8 0 -19 -6 -25 -14 -17 -21 14 -66 45 -66 12 0 26 -5
29 -11 4 -6 6 -70 5 -142 -4 -179 -4 -177 13 -194 13 -13 18 -13 46 1 17 9 32
18 32 19 1 1 5 76 8 167 l6 165 35 6 c19 3 49 13 67 22 18 9 43 17 56 17 50 0
88 13 122 44 29 25 37 40 40 76 4 48 -14 90 -40 90 -8 0 -15 9 -15 20 0 27
-102 125 -162 155 -42 21 -64 27 -138 39 -8 1 -30 1 -49 -2z m187 -128 c65
-36 81 -52 105 -104 12 -25 22 -47 24 -50 3 -6 -63 -41 -121 -64 -21 -9 -58
-16 -81 -16 l-42 0 -7 46 c-8 61 -8 199 1 207 15 15 77 5 121 -19z"/>
<path d="M18334 11365 c-4 -8 -3 -34 1 -57 8 -49 9 -238 1 -245 -3 -3 -44 -5
-91 -4 -81 2 -86 1 -110 -25 -31 -33 -31 -35 -2 -62 30 -28 70 -42 123 -42 30
0 46 -5 50 -15 4 -8 -1 -54 -10 -102 -22 -119 -21 -166 3 -187 23 -21 57 -14
65 12 3 9 15 62 26 117 12 55 23 108 25 119 7 29 36 56 61 56 13 0 26 5 29 10
3 6 23 10 43 10 45 0 99 38 89 63 -4 10 -15 17 -26 17 -11 0 -30 4 -43 9 -13
6 -44 12 -69 16 l-46 6 -15 130 c-15 126 -16 132 -47 160 -36 33 -49 36 -57
14z"/>
<path d="M16595 11305 c-3 -8 -7 -21 -9 -29 -5 -17 29 -71 46 -72 7 -1 31 -9
53 -20 22 -10 72 -21 110 -24 l70 -5 -2 -75 c-1 -68 -36 -296 -46 -307 -3 -2
-50 1 -105 6 -79 8 -114 17 -160 41 -33 17 -66 28 -73 25 -8 -3 -21 -22 -30
-43 -14 -34 -14 -41 -1 -60 8 -12 20 -22 27 -22 8 0 28 -8 47 -17 61 -30 68
-33 85 -33 10 0 38 -7 63 -16 37 -13 76 -15 216 -10 94 3 182 10 197 15 15 6
33 8 41 5 7 -3 31 4 52 15 56 30 64 28 64 -23 0 -62 8 -76 40 -76 43 0 53 22
60 133 7 112 25 161 65 179 58 26 128 -79 130 -197 2 -87 25 -141 55 -125 10
5 22 19 25 30 9 28 36 25 80 -10 36 -29 42 -30 132 -30 107 0 147 13 186 59
47 56 34 85 -87 204 -42 42 -81 94 -90 124 -8 25 29 43 104 50 63 5 118 29
126 55 7 23 -3 38 -25 38 -9 0 -22 5 -28 11 -19 19 -137 12 -183 -11 -58 -29
-101 -98 -90 -145 11 -50 51 -111 114 -179 31 -33 56 -65 56 -71 0 -23 -47
-34 -102 -25 -59 10 -123 34 -133 51 -4 6 -18 8 -30 5 -22 -6 -24 -3 -23 32 0
46 -48 153 -94 205 -29 34 -40 39 -90 44 l-57 6 -53 -54 c-44 -45 -56 -66 -73
-124 l-20 -70 -70 -2 c-127 -4 -180 -4 -207 2 -27 6 -27 7 -23 72 3 36 9 91
15 123 6 31 12 88 15 126 3 49 9 72 21 81 22 16 114 43 147 43 47 0 59 47 21
85 -21 20 -95 19 -224 -4 -74 -14 -117 -17 -145 -11 -22 5 -71 16 -110 24 -38
9 -71 16 -73 16 -1 0 -5 -7 -7 -15z"/>
<path d="M5175 11265 c-16 -8 -41 -16 -55 -19 -28 -6 -111 -66 -146 -105 -18
-21 -20 -29 -11 -59 10 -32 61 -81 89 -86 37 -6 158 -88 158 -106 0 -5 -15
-13 -32 -18 -43 -13 -178 -33 -199 -29 -23 4 -49 27 -49 42 0 16 -38 8 -62
-12 -9 -8 -36 -17 -60 -20 -24 -3 -50 -12 -58 -19 -19 -16 -96 -44 -103 -38
-3 3 -22 1 -42 -5 -34 -9 -39 -8 -61 16 -29 32 -27 43 12 62 16 8 31 18 32 23
2 4 8 8 13 8 23 0 139 78 159 108 22 30 22 37 12 99 -12 72 -34 111 -74 130
-20 10 -33 9 -70 -5 -45 -17 -98 -58 -98 -77 0 -6 -13 -22 -29 -38 -35 -32
-81 -121 -81 -156 -1 -15 -7 -42 -14 -62 -11 -33 -10 -41 20 -107 41 -89 77
-116 144 -107 25 3 57 8 71 9 37 5 98 38 154 85 48 40 50 40 70 23 40 -35 75
-52 112 -53 21 -1 52 -5 68 -8 17 -4 49 -2 72 5 23 6 44 10 46 8 10 -10 118
39 136 62 34 44 36 79 5 119 -15 20 -40 43 -55 50 -15 8 -34 21 -41 29 -8 8
-40 31 -72 51 -31 20 -56 41 -54 46 2 6 17 18 33 27 17 9 33 21 36 26 4 5 37
10 75 12 76 5 98 17 88 48 -17 55 -72 71 -139 41z m-485 -117 c1 -7 3 -35 5
-63 l5 -50 -78 -37 c-43 -21 -83 -38 -89 -38 -17 0 -23 26 -9 46 7 11 18 35
26 54 21 56 68 100 107 100 19 0 33 -5 33 -12z"/>
<path d="M7582 11150 c-34 -44 -64 -160 -56 -221 4 -27 11 -52 15 -55 5 -3 9
-11 9 -19 0 -8 14 -34 31 -59 26 -40 35 -46 65 -46 74 0 153 55 210 146 28 44
48 59 65 48 5 -3 9 -13 9 -22 0 -9 8 -41 17 -72 18 -63 52 -92 111 -97 30 -2
32 0 32 32 0 19 -4 35 -10 35 -16 0 -53 80 -66 145 -23 107 -31 131 -55 166
-13 19 -25 36 -27 38 -6 11 -51 -44 -71 -87 -47 -98 -57 -115 -90 -153 -40
-47 -94 -73 -122 -59 -10 6 -23 27 -30 48 -9 32 -7 52 11 125 21 82 21 89 6
112 -21 31 -26 31 -54 -5z"/>
<path d="M3456 11154 c-41 -23 -152 -118 -205 -176 -24 -26 -56 -75 -73 -108
-33 -69 -32 -97 6 -145 22 -28 29 -30 81 -28 63 2 119 29 187 91 59 54 71 40
79 -85 4 -55 9 -105 13 -111 3 -6 7 -36 7 -69 1 -32 6 -63 11 -70 6 -8 6 -18
0 -29 -6 -11 -7 -27 -1 -41 5 -13 6 -29 3 -37 -9 -23 15 -56 39 -56 29 0 52
27 89 104 16 34 34 70 40 81 37 69 94 185 104 212 9 26 9 33 -2 37 -19 7 -82
-31 -89 -55 -4 -11 -22 -43 -41 -72 -19 -28 -34 -57 -34 -64 0 -19 -17 -16
-25 5 -13 28 -41 236 -50 363 -5 59 -13 96 -26 118 -19 32 -19 32 -44 14 -14
-11 -31 -40 -41 -71 -26 -81 -68 -126 -138 -151 -43 -14 -64 -17 -77 -10 -24
12 -24 9 7 66 27 51 170 193 193 193 18 0 58 58 56 81 -2 30 -29 35 -69 13z"/>
<path d="M4093 11138 c-12 -16 -93 -184 -93 -194 0 -11 -70 -94 -80 -94 -5 0
-16 8 -25 17 -15 14 -17 33 -13 130 4 100 2 115 -14 130 -17 15 -20 15 -44 -8
-24 -22 -25 -29 -20 -79 4 -30 7 -100 7 -155 1 -116 11 -135 68 -135 67 0 132
63 181 173 17 37 63 79 73 66 2 -2 16 -35 31 -73 41 -105 117 -185 139 -148 3
4 -8 45 -24 92 -16 47 -29 92 -29 101 0 25 -57 133 -82 156 -31 28 -63 37 -75
21z"/>
<path d="M2830 11115 c-13 -13 -31 -27 -41 -30 -21 -7 -105 -114 -120 -152 -5
-14 -18 -38 -29 -53 -25 -35 -25 -61 -1 -91 10 -13 28 -43 40 -66 30 -61 99
-114 174 -135 82 -23 112 -20 173 13 56 32 82 56 81 80 0 13 -7 14 -41 8 -68
-13 -123 -10 -178 11 -51 19 -108 61 -108 80 0 5 26 16 58 25 164 46 195 78
195 201 0 69 -3 77 -28 104 -26 27 -35 30 -90 30 -53 0 -65 -4 -85 -25z m101
-85 c14 -8 19 -21 19 -50 0 -46 -19 -60 -109 -79 -45 -10 -57 -9 -69 3 -12 12
-10 19 12 53 28 42 56 61 124 82 2 1 12 -4 23 -9z"/>
<path d="M8264 11122 c-11 -4 -37 -20 -56 -37 l-36 -30 2 -146 c1 -142 2 -148
29 -187 25 -35 37 -42 93 -56 59 -15 70 -15 134 0 83 19 131 54 113 82 -6 9
-17 15 -25 13 -7 -3 -40 -5 -73 -6 -64 -1 -155 29 -155 50 0 7 21 23 48 37
106 56 178 101 205 126 29 28 35 68 15 94 -15 19 -100 46 -143 46 -16 1 -50 5
-75 11 -50 12 -47 12 -76 3z m110 -106 c53 -14 70 -32 39 -42 -10 -3 -26 -10
-35 -15 -10 -5 -25 -9 -33 -9 -9 0 -27 -8 -41 -17 -22 -14 -27 -14 -35 -2 -15
23 -10 71 9 85 21 17 34 17 96 0z"/>
<path d="M9395 11054 c-54 -59 -115 -166 -115 -203 0 -11 -5 -32 -11 -48 -14
-37 12 -121 49 -155 22 -21 66 -42 112 -53 3 -1 13 -5 23 -10 60 -26 281 30
323 82 l23 28 -22 17 c-23 18 -82 16 -121 -4 -10 -6 -60 -11 -110 -11 -72 -1
-99 3 -131 18 -51 25 -55 56 -8 60 17 1 41 9 53 18 12 9 28 13 34 11 18 -7
107 40 134 70 12 14 27 26 33 26 16 0 3 102 -14 115 -8 6 -17 19 -21 30 -9 30
-59 56 -121 62 l-55 6 -55 -59z m182 -86 l23 -38 -24 0 c-13 0 -29 -7 -36 -15
-7 -8 -20 -15 -29 -15 -9 0 -22 -5 -28 -11 -5 -5 -22 -11 -36 -13 -14 -1 -33
-9 -42 -16 -12 -10 -19 -10 -27 -2 -8 8 -5 28 13 74 20 51 32 67 64 85 38 21
41 21 69 5 16 -9 40 -34 53 -54z"/>
<path d="M15293 11063 c-51 -10 -119 -114 -149 -230 -14 -53 -13 -57 5 -69 11
-8 33 -37 50 -64 17 -28 41 -55 54 -59 12 -5 37 -22 56 -38 18 -15 62 -38 97
-50 54 -18 65 -19 75 -7 6 8 19 14 28 14 23 0 59 56 54 84 l-5 23 -39 -20
c-57 -28 -96 -11 -205 90 -38 34 -43 53 -16 53 10 0 23 5 30 12 6 6 30 14 54
18 24 4 68 17 98 28 45 17 57 26 64 51 31 106 -102 193 -251 164z m127 -113
c8 -15 8 -21 -2 -25 -54 -20 -164 -53 -166 -50 -2 2 13 21 33 44 24 27 47 41
68 44 18 2 37 5 44 5 7 1 17 -7 23 -18z"/>
<path d="M8708 11046 c-10 -7 -18 -20 -18 -29 0 -9 -4 -19 -10 -22 -5 -3 -10
-17 -10 -29 0 -13 -7 -40 -15 -59 -20 -48 -28 -103 -21 -142 7 -36 55 -95 78
-95 38 0 116 35 146 66 18 19 37 34 43 34 5 0 9 8 9 18 0 22 66 86 79 77 11
-6 51 -126 51 -150 0 -30 33 -65 72 -77 36 -11 42 -10 54 7 19 25 18 85 0 85
-23 0 -46 29 -46 56 0 50 -61 184 -98 214 l-34 28 -29 -26 c-16 -14 -29 -30
-29 -35 0 -15 -62 -111 -78 -121 -8 -4 -22 -16 -32 -26 -34 -34 -57 -42 -74
-24 -22 21 -20 63 5 147 28 95 8 142 -43 103z"/>
<path d="M15845 11002 c-66 -36 -117 -106 -143 -196 -21 -71 -21 -73 -3 -148
23 -92 26 -98 55 -98 45 0 54 26 53 141 -1 93 2 109 22 142 22 36 93 87 121
87 23 0 90 33 90 45 0 6 -7 21 -16 33 -23 34 -112 31 -179 -6z"/>
<path d="M20125 11014 c-43 -22 -83 -62 -113 -114 -24 -41 -27 -55 -27 -145
l0 -101 38 -52 c36 -48 50 -57 84 -53 7 1 26 -5 43 -14 16 -8 30 -13 30 -10 0
3 7 2 16 -3 11 -6 35 -4 68 4 28 8 67 13 86 12 44 -2 100 35 100 68 0 19 -7
24 -42 29 -24 3 -70 5 -103 4 -124 -4 -143 -1 -177 31 -38 34 -32 44 35 54 66
11 159 74 177 120 11 31 6 47 -33 104 -51 76 -117 100 -182 66z m101 -125 c15
-17 16 -21 3 -34 -19 -18 -127 -46 -135 -34 -7 12 47 87 66 92 24 5 47 -3 66
-24z"/>
<path d="M11709 10994 c-26 -8 -58 -25 -71 -37 -14 -13 -30 -21 -36 -19 -13 4
-36 -35 -39 -68 -19 -222 -12 -261 44 -243 26 9 28 15 35 76 9 91 23 128 61
164 49 47 77 49 123 9 l39 -34 0 -128 0 -129 38 0 c22 0 41 4 44 9 12 18 12
212 1 246 -18 53 -82 135 -121 153 -41 20 -56 20 -118 1z"/>
<path d="M11090 10970 c-14 -11 -30 -20 -36 -20 -5 0 -25 -15 -43 -34 -25 -26
-34 -46 -40 -90 -4 -30 -15 -64 -24 -74 -34 -38 -9 -75 43 -65 20 3 34 -5 66
-39 22 -24 43 -51 47 -60 10 -28 107 -78 152 -78 34 0 48 7 84 40 23 22 47 40
52 40 5 0 21 19 36 43 15 23 37 52 50 65 31 31 30 46 -4 37 -40 -9 -75 -34
-80 -56 -3 -11 -17 -22 -32 -26 -14 -3 -45 -14 -67 -24 -40 -16 -43 -16 -70 0
-26 16 -84 82 -84 95 0 3 11 6 25 6 14 0 34 9 44 19 12 12 28 17 39 14 41 -10
142 70 142 113 0 77 -45 105 -179 110 -84 3 -99 1 -121 -16z m164 -80 c25 -9
35 -34 19 -43 -5 -3 -42 -8 -83 -11 -41 -4 -80 -12 -88 -18 -22 -18 -34 5 -16
30 30 43 112 64 168 42z"/>
<path d="M18792 10944 c-83 -43 -171 -122 -201 -181 -16 -32 -19 -52 -15 -85
10 -74 27 -86 130 -95 63 -6 103 16 190 104 l62 62 31 -59 c17 -33 31 -65 31
-73 0 -16 41 -57 58 -57 6 0 19 11 28 25 15 23 15 27 -11 70 -14 26 -29 57
-31 71 -9 52 -45 132 -70 155 -32 30 -50 20 -84 -47 -40 -78 -60 -103 -105
-129 -60 -36 -135 -33 -135 5 0 28 91 105 168 141 77 37 91 58 70 103 -15 34
-31 33 -116 -10z"/>
<path d="M12347 10964 c-3 -3 -23 -8 -44 -11 -52 -6 -138 -59 -182 -112 -33
-40 -36 -50 -40 -118 l-3 -75 38 -39 c33 -34 44 -39 84 -39 52 0 160 51 160
75 0 8 13 22 29 31 16 10 33 26 38 37 9 19 10 18 26 -6 30 -46 46 -133 49
-263 2 -123 2 -126 -22 -145 -58 -46 -122 -69 -189 -69 -103 1 -151 29 -175
104 -8 23 -28 8 -51 -37 -27 -54 -17 -75 62 -136 75 -57 153 -70 251 -39 131
39 195 100 209 196 20 145 6 297 -33 375 -8 16 -14 38 -14 49 0 20 -44 102
-67 127 -9 8 -23 11 -40 7 -24 -7 -25 -5 -20 20 8 42 -8 74 -36 74 -13 0 -26
-3 -30 -6z m53 -113 c0 -5 -7 -14 -15 -21 -8 -7 -15 -19 -15 -26 0 -25 -46
-89 -84 -118 -30 -22 -44 -27 -70 -22 -42 8 -62 46 -46 85 12 30 96 91 125 91
11 0 27 5 35 10 19 12 70 13 70 1z"/>
<path d="M19725 10948 c-80 -29 -142 -89 -164 -158 -17 -53 8 -130 55 -168 71
-58 244 -45 284 21 33 54 30 56 -81 54 -81 -2 -103 1 -112 14 -7 8 -20 18 -29
22 -44 16 -12 69 81 137 63 46 70 57 49 78 -14 14 -42 14 -83 0z"/>
<path d="M19265 10897 c-11 -8 -36 -19 -56 -26 -47 -15 -60 -45 -67 -152 -6
-103 8 -143 53 -159 37 -13 55 6 55 61 0 50 18 133 34 154 33 46 99 -37 110
-137 3 -35 11 -64 16 -66 6 -2 10 -8 10 -13 0 -5 9 -18 19 -28 29 -29 52 -7
59 57 8 85 -33 212 -91 281 -21 25 -36 33 -74 37 -33 4 -54 1 -68 -9z"/>
<path d="M1414 9953 c-16 -25 -18 -62 -22 -353 -5 -467 -5 -488 3 -565 4 -38
7 -77 7 -85 -6 -66 0 -230 8 -262 6 -21 8 -48 5 -59 -10 -31 -8 -157 5 -239
10 -70 21 -212 19 -270 0 -29 0 -16 -1 -240 0 -96 1 -195 3 -220 1 -25 2 -61
2 -80 -1 -19 -3 -179 -6 -355 -4 -293 -13 -532 -22 -631 -7 -79 -4 -272 6
-394 6 -69 9 -174 8 -235 -5 -172 -2 -781 6 -1330 4 -275 6 -612 5 -750 -4
-309 -4 -412 -1 -1203 1 -417 6 -642 13 -660 15 -39 12 -164 -6 -252 -17 -85
-23 -204 -12 -237 5 -17 15 -23 37 -23 16 0 40 -7 52 -15 16 -10 59 -16 133
-19 94 -4 180 -15 259 -32 150 -32 248 -42 475 -49 85 -3 209 -10 275 -15 257
-22 634 -25 915 -8 19 1 116 -2 215 -6 99 -5 421 -10 715 -12 294 -1 567 -6
605 -12 98 -13 451 -5 559 14 23 4 445 14 651 16 11 0 175 -4 365 -9 418 -10
568 -10 810 1 277 12 358 13 439 6 69 -6 383 10 496 25 28 4 75 9 105 11 30 2
66 7 80 10 14 4 54 8 90 10 36 2 94 6 130 8 36 3 95 8 132 10 37 3 77 10 90
17 28 15 97 15 125 0 12 -6 24 -7 27 -2 3 5 77 9 163 10 317 2 626 17 652 30
11 7 22 7 25 2 4 -5 49 -7 104 -4 53 3 158 6 232 9 74 2 209 7 300 11 91 4
316 7 500 8 184 0 364 4 400 8 36 5 108 10 160 12 214 11 248 13 281 20 18 4
73 8 121 9 57 1 92 7 103 16 13 11 21 11 36 2 24 -15 29 -15 29 1 0 10 27 13
113 14 149 0 300 13 308 26 4 5 12 6 19 2 22 -13 123 -20 265 -17 77 1 145 2
150 1 16 -2 285 -3 347 0 31 1 60 5 63 10 3 6 20 5 41 0 25 -8 39 -7 50 1 7 7
21 10 30 6 8 -3 24 -1 35 5 15 7 23 6 35 -6 18 -17 40 -20 49 -5 4 6 12 7 18
3 15 -10 72 -12 272 -12 17 0 95 0 174 -1 79 -1 147 2 150 7 3 4 31 9 61 9 30
1 96 5 145 8 128 8 157 9 180 7 63 -7 335 1 340 10 4 6 44 9 98 9 51 -1 104 1
119 5 16 4 74 9 130 11 57 2 157 6 223 10 66 4 161 8 210 9 50 1 205 5 345 9
175 4 265 3 288 -5 27 -9 36 -8 50 4 13 12 22 13 36 5 10 -6 87 -10 185 -10
239 1 244 1 263 19 10 9 18 13 18 9 0 -4 9 -2 21 4 17 9 23 8 34 -7 12 -16 29
-18 175 -17 99 1 176 6 199 14 31 10 43 10 67 -2 30 -15 94 -16 514 -3 96 3
189 4 205 3 17 -2 73 -1 125 2 146 7 375 6 590 -3 107 -4 242 -10 299 -12 57
-3 129 -9 161 -15 39 -7 73 -7 101 -1 32 7 66 6 129 -5 47 -9 117 -17 155 -20
39 -2 126 -8 195 -13 68 -5 194 -10 279 -10 85 -1 166 -4 178 -7 13 -4 29 -1
37 5 9 7 28 8 61 2 52 -10 68 -9 225 7 58 6 159 9 225 6 198 -8 189 -10 181
55 -11 96 -3 91 -140 93 -66 0 -128 1 -136 0 -146 -11 -237 -14 -522 -17 -263
-3 -348 -1 -390 9 -29 8 -82 17 -118 21 -36 3 -85 8 -110 11 -25 2 -124 7
-220 9 -96 3 -186 9 -200 12 -39 11 -156 15 -610 24 -121 2 -478 -6 -495 -11
-5 -2 -18 0 -27 4 -10 5 -55 5 -100 2 -46 -4 -132 -8 -193 -10 -107 -3 -158
-4 -470 -4 -154 0 -187 -3 -218 -16 -10 -5 -23 -4 -30 2 -28 23 -256 11 -270
-13 -7 -14 -18 -15 -60 -10 -29 4 -61 9 -72 12 -11 2 -71 6 -133 8 -62 2 -117
7 -122 10 -6 4 -20 3 -32 -1 -13 -4 -59 -6 -104 -6 -61 1 -85 -2 -94 -13 -9
-10 -16 -12 -24 -5 -7 5 -32 10 -57 10 -24 0 -68 1 -97 1 -29 1 -64 -4 -78
-11 -20 -11 -28 -11 -48 0 -14 7 -32 10 -40 7 -9 -4 -16 -2 -16 3 0 16 -46 11
-60 -5 -11 -13 -42 -15 -184 -15 -94 1 -188 -3 -209 -8 -25 -7 -50 -7 -74 0
-25 7 -44 6 -65 -3 -18 -7 -52 -10 -94 -6 -49 5 -74 3 -95 -8 -23 -12 -64 -14
-223 -11 -125 3 -198 1 -202 -5 -3 -6 -48 -10 -102 -10 -54 0 -155 -4 -227 -9
-115 -9 -358 -13 -470 -9 -22 1 -102 1 -177 0 -76 -2 -146 0 -157 4 -11 3 -33
0 -48 -8 -21 -11 -45 -12 -98 -7 -38 5 -113 6 -165 2 -52 -3 -106 -5 -120 -4
-14 0 -65 1 -115 0 -49 0 -99 0 -110 1 -66 4 -480 -7 -570 -15 -173 -16 -251
-23 -340 -28 -55 -4 -122 -11 -148 -17 -32 -6 -55 -6 -68 1 -11 6 -24 8 -29 5
-25 -16 -250 -26 -250 -12 0 5 -19 6 -42 3 -116 -15 -257 -24 -293 -17 -22 4
-52 2 -68 -3 -20 -8 -30 -8 -35 0 -5 8 -21 9 -57 2 -47 -9 -242 -15 -687 -19
-109 -1 -198 -6 -198 -11 0 -4 -48 -7 -107 -5 -60 2 -157 -3 -218 -11 -60 -7
-132 -12 -160 -11 -71 4 -114 3 -248 -9 -66 -6 -131 -7 -145 -3 -15 4 -72 6
-127 5 -55 -2 -131 -4 -170 -5 -38 -1 -112 -10 -163 -20 -52 -11 -126 -19
-165 -18 -126 2 -219 -1 -230 -8 -12 -7 -40 -10 -182 -17 -60 -3 -179 -10
-264 -16 -84 -5 -156 -8 -160 -6 -9 6 -150 7 -308 1 -73 -2 -206 -6 -295 -9
-345 -11 -678 -5 -756 14 -24 6 -48 7 -54 4 -7 -4 -199 -8 -427 -10 -248 -1
-456 -7 -516 -14 -125 -15 -339 -18 -470 -8 -80 7 -742 19 -1172 21 -46 0 -83
3 -83 6 0 8 -477 4 -489 -4 -11 -6 -397 -6 -446 0 -16 2 -95 9 -175 14 -80 6
-161 13 -180 16 -19 3 -109 7 -200 10 -91 3 -176 7 -190 9 -14 2 -52 7 -85 11
-33 4 -109 17 -170 30 -60 13 -141 26 -180 29 -38 4 -97 9 -130 12 -94 8 -94
7 -83 62 24 125 28 167 28 293 0 75 -4 148 -9 162 -8 21 -17 475 -24 1202 -2
308 4 586 15 617 l11 31 61 -7 c50 -5 119 -15 171 -26 6 -1 27 -2 48 -1 l39 1
-6 42 c-3 24 -5 44 -5 44 -1 1 -146 24 -271 43 l-45 6 -3 79 c-2 44 1 83 7 89
5 5 45 9 88 8 571 -9 950 6 1012 39 10 5 51 12 91 15 39 3 75 7 80 10 9 6 136
7 470 5 275 -2 561 7 655 20 39 6 106 10 150 9 111 -2 485 9 515 16 53 12 218
14 275 4 46 -8 69 -7 100 4 31 10 71 12 175 6 74 -5 206 -10 292 -13 86 -3
199 -11 250 -16 51 -6 156 -10 233 -9 151 3 401 -7 450 -17 17 -4 102 -6 190
-5 88 1 171 1 185 1 14 0 52 1 85 2 78 1 113 0 275 -7 74 -3 142 -6 150 -7 8
0 40 3 70 6 46 6 385 8 485 4 17 -1 64 -1 105 0 41 1 84 1 95 1 11 -1 56 -1
100 -1 44 1 130 -1 192 -4 69 -4 123 -2 142 4 24 8 37 7 61 -5 22 -10 34 -12
44 -4 7 6 28 8 47 5 19 -3 63 2 98 11 58 15 66 15 97 0 23 -11 40 -13 51 -7
11 6 49 6 93 1 65 -8 358 -22 400 -19 8 0 78 1 155 1 127 0 376 19 465 35 60
11 164 10 177 -2 22 -21 504 -8 568 16 12 4 29 2 43 -8 17 -11 29 -12 45 -5
23 10 213 9 246 -2 11 -3 22 -1 26 5 3 6 12 7 18 3 17 -11 138 -16 712 -27
116 -2 248 -7 295 -11 47 -3 94 -6 105 -5 116 1 264 0 325 -4 41 -3 123 -2
183 2 59 4 155 4 215 -1 59 -4 202 -10 317 -13 116 -3 221 -5 235 -6 14 -1
111 2 215 6 220 9 195 9 310 4 50 -3 117 -1 150 2 33 4 76 3 95 -1 33 -8 256
-12 435 -8 44 1 154 1 243 0 90 0 167 1 170 3 10 6 310 20 352 17 19 -2 46 -3
60 -2 14 1 39 1 55 0 219 -4 757 -2 845 3 63 4 183 9 265 11 83 3 222 8 310
11 281 12 429 13 475 4 59 -12 374 -12 426 0 23 5 48 6 54 2 7 -4 27 -4 44 1
17 5 141 12 276 15 135 4 250 11 257 16 8 7 107 6 283 -2 149 -7 274 -10 276
-7 3 3 20 0 37 -7 36 -15 194 -13 317 3 41 6 122 13 180 15 220 12 297 17 357
27 119 18 532 7 733 -20 41 -5 127 -12 190 -16 63 -3 153 -10 200 -14 100 -10
120 -2 138 55 11 36 11 40 -13 61 -21 18 -37 21 -115 22 -51 0 -96 3 -101 7
-6 3 -60 8 -122 10 -162 6 -224 11 -237 19 -18 11 -167 19 -315 17 -77 -2
-168 0 -202 3 -58 6 -63 8 -58 28 7 31 -8 50 -39 49 -37 0 -42 -8 -21 -32 26
-29 7 -44 -58 -46 -28 0 -72 -6 -96 -13 -24 -7 -107 -14 -185 -16 -77 -2 -168
-8 -201 -14 -34 -6 -72 -11 -85 -11 -14 1 -70 1 -125 0 -55 0 -174 3 -265 7
-299 12 -821 6 -880 -10 -23 -6 -217 -19 -265 -18 -28 0 -287 11 -305 12 -8 1
-65 0 -126 -1 -61 -1 -119 2 -130 7 -22 12 -63 10 -148 -6 -32 -6 -62 -8 -66
-6 -5 3 -75 -2 -156 -11 -82 -8 -192 -14 -244 -13 -52 1 -160 -1 -240 -5 -158
-8 -353 -11 -440 -8 -30 1 -147 2 -260 3 -113 0 -227 1 -255 1 -87 0 -306 -11
-420 -21 -66 -6 -273 -8 -515 -5 -223 3 -443 6 -490 7 -47 0 -215 0 -375 -1
-159 -1 -369 0 -465 2 -166 5 -342 8 -385 8 -120 -1 -272 4 -280 10 -5 3 -41
3 -79 -1 -37 -4 -118 -4 -179 0 -67 4 -118 4 -129 -2 -12 -7 -25 -6 -40 2 -19
10 -247 23 -373 21 -227 -4 -358 -3 -500 3 -170 7 -345 9 -885 8 -157 0 -307
-1 -335 0 -48 0 -153 -8 -225 -18 -116 -16 -217 -20 -319 -14 -64 4 -188 8
-276 8 -88 1 -198 4 -245 7 -102 6 -102 6 -215 2 -49 -2 -95 -7 -102 -11 -11
-7 -81 -5 -483 9 -91 3 -174 6 -185 6 -43 1 -271 -13 -282 -17 -7 -2 -15 0
-18 4 -2 5 -76 7 -162 5 -87 -2 -203 -4 -258 -5 -151 -3 -978 11 -987 17 -4 3
-153 10 -330 15 -178 6 -378 12 -446 14 -67 2 -127 7 -133 11 -6 3 -144 5
-308 4 -314 -3 -371 -4 -411 -14 -28 -6 -361 -17 -630 -20 -96 -1 -236 -6
-310 -11 -146 -11 -262 -11 -555 0 -192 7 -275 1 -427 -31 -37 -8 -93 -14
-125 -14 -33 0 -64 -5 -70 -11 -6 -6 -31 -12 -55 -12 -39 -1 -523 1 -558 2
-131 3 -277 11 -325 18 l-60 8 1 95 c1 52 1 118 2 145 1 28 -1 133 -4 235 -4
143 -12 955 -15 1505 -1 33 2 155 6 270 25 771 20 1746 -10 1878 -15 67 -23
732 -12 1080 l7 228 -25 50 c-14 27 -29 49 -34 49 -5 0 -17 -12 -27 -27z"/>
<path d="M1215 8940 c-14 -23 -63 -32 -187 -34 -170 -3 -168 -1 -168 -150 0
-61 -4 -128 -9 -149 -9 -38 4 -107 20 -107 5 0 43 11 85 25 112 36 124 35 162
-24 18 -27 32 -53 32 -58 0 -22 -65 -105 -89 -115 -14 -5 -48 -12 -76 -15 -35
-3 -58 -12 -76 -29 -14 -13 -36 -24 -50 -24 -26 0 -69 -46 -69 -73 0 -45 60
-44 209 3 73 22 89 32 108 61 13 19 26 39 30 44 23 30 65 99 75 123 20 52 19
78 -7 102 -14 13 -25 31 -25 40 0 9 -9 25 -20 35 -11 10 -20 24 -20 30 0 7 -7
18 -15 25 -11 9 -32 8 -100 -8 -75 -17 -87 -18 -92 -5 -9 22 6 166 18 178 5 5
54 10 112 10 112 0 146 11 181 58 l20 27 -21 21 c-14 15 -23 18 -28 9z"/>
<path d="M16255 8190 c-10 -11 -24 -20 -31 -20 -19 0 -30 -128 -23 -265 4 -66
8 -178 9 -250 3 -213 6 -224 65 -273 36 -30 58 10 43 78 -6 29 -18 248 -22
400 -1 19 -5 41 -9 48 -5 7 -4 12 2 12 16 0 23 37 11 59 -7 14 -7 47 0 107 12
113 -4 150 -45 104z"/>
<path d="M16003 8137 c-4 -7 -16 -17 -26 -20 -17 -6 -18 -15 -12 -90 5 -70 6
-181 5 -432 -1 -94 6 -109 57 -134 45 -22 48 -22 60 -5 18 24 16 60 -3 89 -14
21 -16 61 -16 262 1 131 -2 255 -6 277 -8 44 -44 77 -59 53z"/>
<path d="M14204 7870 c-12 -5 -39 -29 -60 -54 -38 -46 -69 -57 -91 -35 -15 15
-53 -6 -53 -29 0 -10 -5 -23 -10 -28 -6 -6 -19 -42 -30 -81 -11 -40 -31 -88
-44 -108 l-25 -37 -67 66 c-37 36 -74 68 -82 71 -15 5 -51 -31 -52 -52 0 -7 7
-13 15 -13 10 0 15 -10 15 -27 0 -21 14 -41 56 -80 l56 -52 -13 -52 c-7 -28
-19 -54 -27 -56 -7 -3 -21 -22 -30 -42 -29 -57 -45 -84 -74 -119 -16 -18 -28
-39 -28 -46 0 -8 -7 -19 -15 -26 -22 -18 -19 -63 5 -78 32 -20 53 0 127 116
16 24 37 58 48 75 46 71 65 104 81 137 9 19 29 51 45 71 16 20 29 43 29 50 0
8 13 39 29 70 15 31 31 69 35 85 8 35 38 94 47 94 4 0 9 -9 12 -20 3 -11 9
-20 14 -20 38 0 150 171 138 210 -7 22 -18 24 -51 10z"/>
<path d="M12910 7815 c-7 -8 -25 -15 -41 -15 -29 0 -107 -16 -144 -30 -11 -4
-33 -13 -50 -20 -39 -16 -158 -49 -213 -59 -26 -5 -55 -19 -70 -34 -24 -24
-25 -28 -12 -52 8 -14 22 -25 34 -25 24 0 92 17 121 30 19 9 94 30 106 30 3 0
11 -17 17 -37 37 -123 45 -167 46 -257 1 -77 4 -100 16 -106 8 -4 25 -12 36
-18 18 -9 25 -7 37 6 22 25 3 229 -31 322 -3 8 -6 26 -7 40 0 14 -4 34 -8 45
-10 30 12 49 78 67 76 21 82 16 99 -90 7 -45 19 -89 26 -97 8 -10 12 -40 11
-83 -2 -62 0 -69 29 -99 17 -18 33 -33 35 -33 11 0 25 42 34 99 6 35 15 69 22
77 24 30 65 10 74 -35 2 -11 10 -33 19 -48 8 -16 23 -47 35 -70 11 -24 24 -43
28 -43 20 0 33 27 33 68 0 85 -104 252 -157 252 -19 0 -56 -20 -69 -38 -23
-31 -34 -7 -53 118 -13 80 -22 111 -40 132 -19 22 -25 22 -41 3z"/>
<path d="M15676 7785 c-3 -8 -14 -15 -25 -15 -47 0 -203 -138 -240 -212 -25
-51 -17 -74 34 -102 22 -12 44 -27 50 -34 5 -6 36 -14 69 -17 53 -4 63 -1 111
29 30 20 64 53 81 80 16 25 33 44 38 42 5 -1 10 -20 10 -42 1 -21 6 -39 12
-39 6 0 22 -12 36 -27 14 -16 35 -28 47 -28 21 0 22 3 15 48 -3 26 -10 52 -14
57 -4 6 -13 35 -19 65 -15 70 -39 151 -50 169 -7 11 -14 10 -43 -3 -30 -15
-37 -24 -47 -71 -7 -30 -10 -64 -6 -75 4 -14 2 -20 -8 -20 -8 0 -20 -13 -26
-28 -23 -56 -157 -95 -186 -55 -11 15 -9 24 16 58 38 53 123 125 147 125 26 0
52 31 52 61 0 41 -41 67 -54 34z"/>
<path d="M14780 7773 c-58 -9 -129 -36 -149 -57 -16 -17 -23 -41 -28 -89 -3
-37 -12 -72 -19 -78 -18 -15 -18 -33 0 -48 8 -7 17 -28 21 -49 8 -42 27 -58
110 -91 68 -26 127 -28 186 -5 41 17 61 51 38 65 -8 5 -44 6 -80 2 -76 -7
-133 14 -152 54 -9 21 -7 27 16 49 15 13 46 33 70 43 52 22 113 73 120 100 15
59 -57 116 -133 104z m50 -85 c0 -20 -18 -43 -26 -35 -4 4 -14 1 -23 -7 -9 -8
-33 -21 -53 -29 l-38 -16 0 34 c0 30 5 37 33 49 41 18 107 20 107 4z"/>
<path d="M13445 7733 c-16 -8 -38 -24 -47 -34 -10 -10 -24 -21 -31 -26 -7 -4
-23 -42 -36 -83 -12 -41 -28 -95 -36 -119 -13 -41 -12 -47 6 -73 11 -15 29
-28 40 -28 10 0 19 -7 19 -15 0 -28 93 -65 162 -65 89 0 168 11 168 23 0 6 7
19 17 29 9 10 14 20 12 22 -2 3 -54 9 -114 15 -107 10 -175 26 -175 40 0 4 34
25 76 47 104 54 146 111 124 170 -12 30 -31 49 -92 89 -44 29 -53 30 -93 8z
m95 -93 c34 -34 25 -57 -32 -83 -20 -10 -40 -22 -43 -27 -4 -6 -10 -8 -15 -5
-5 3 -19 1 -31 -5 -31 -17 -33 -7 -13 51 30 82 90 113 134 69z"/>
<path d="M14418 7732 c-55 -26 -95 -69 -129 -138 -28 -57 -30 -68 -26 -140 6
-111 17 -147 47 -154 38 -10 73 9 65 34 -17 58 -17 163 0 220 21 72 50 103
105 112 22 4 43 11 46 15 5 8 -54 69 -66 69 -3 -1 -22 -9 -42 -18z"/>
<path d="M821 7495 l-24 -14 -1 -201 c-1 -110 1 -205 5 -211 3 -5 49 -11 102
-12 52 -1 99 -5 103 -9 4 -4 9 -58 11 -120 3 -62 8 -117 13 -121 14 -15 46 2
61 31 9 17 14 60 14 122 l0 95 61 3 c61 3 62 3 68 35 9 42 -20 67 -78 67 -22
0 -46 4 -53 8 -7 4 -14 49 -19 107 -10 149 -21 167 -76 122 l-28 -22 10 -85
c16 -138 19 -130 -45 -130 -77 0 -73 -12 -78 264 -1 44 -6 80 -12 82 -5 1 -21
-4 -34 -11z"/>
<path d="M17880 7463 c-22 -28 -21 -37 2 -127 5 -21 11 -65 13 -96 1 -31 7
-66 13 -76 6 -11 10 -67 9 -124 -1 -121 9 -150 52 -150 16 0 33 6 39 13 8 10
16 90 14 152 -2 52 -22 245 -31 285 -5 25 -7 48 -5 52 2 4 -6 27 -18 52 -26
54 -55 61 -88 19z"/>
<path d="M14738 7085 c-21 -28 -23 -42 -7 -47 9 -3 9 -9 1 -24 -11 -22 -5 -97
10 -128 6 -10 10 -99 9 -197 0 -155 1 -179 15 -179 8 0 22 -7 30 -15 9 -8 22
-15 29 -15 13 0 36 66 50 143 4 23 20 54 42 78 31 35 41 40 72 37 35 -3 36 -4
48 -63 7 -33 10 -71 7 -83 -8 -36 26 -101 53 -102 33 0 32 -4 33 140 1 36 -21
120 -30 120 -4 0 -11 11 -14 25 -7 26 -59 55 -100 55 -24 0 -114 -53 -133 -79
-10 -14 -12 -14 -16 -1 -9 26 -28 202 -30 270 -1 36 -6 71 -10 78 -13 19 -40
14 -59 -13z"/>
<path d="M17430 7052 c-26 -12 -43 -32 -64 -75 -24 -51 -29 -72 -32 -167 -4
-106 -3 -110 23 -140 14 -18 49 -42 77 -55 59 -27 177 -42 209 -28 67 31 82
41 115 76 20 22 45 48 55 59 21 22 19 51 -4 56 -9 2 -38 -15 -63 -37 -26 -23
-56 -41 -66 -41 -10 0 -21 -4 -24 -9 -3 -4 -28 -11 -55 -14 -62 -7 -137 15
-144 44 -6 22 36 59 96 84 20 8 41 24 47 34 5 11 19 23 31 26 27 9 46 55 41
100 -5 41 -33 64 -105 89 -60 20 -93 20 -137 -2z m95 -82 c3 -5 15 -10 26 -10
14 0 19 -7 19 -29 0 -24 -8 -34 -44 -55 -50 -29 -106 -35 -106 -11 0 31 32 93
53 103 29 14 44 14 52 2z"/>
<path d="M16880 7032 c0 -5 -20 -31 -45 -57 l-44 -47 5 -107 c3 -58 7 -113 10
-123 2 -9 21 -24 41 -33 34 -16 36 -16 53 1 16 17 17 27 8 89 -18 131 17 218
42 101 11 -55 38 -89 77 -99 17 -4 27 3 46 32 14 21 26 46 28 56 7 35 26 25
43 -22 9 -26 24 -68 33 -93 18 -51 84 -116 108 -106 16 6 21 46 6 46 -4 0 -8
12 -8 28 0 35 -48 191 -79 259 -35 78 -77 82 -149 15 l-28 -25 -36 40 c-25 29
-47 43 -73 48 -24 5 -38 3 -38 -3z"/>
<path d="M16544 7011 c-17 -9 -65 -47 -107 -85 -68 -63 -78 -76 -97 -137 l-22
-68 -27 19 c-14 10 -55 31 -91 45 -84 33 -110 52 -90 65 8 5 33 12 55 15 64
11 82 27 77 70 -4 34 -6 36 -31 31 -33 -8 -202 -36 -218 -36 -6 0 -21 -14 -33
-30 l-22 -30 34 -32 c49 -47 133 -98 186 -113 26 -8 56 -21 67 -29 19 -14 16
-16 -50 -47 -54 -25 -82 -32 -125 -31 -106 3 -114 2 -122 -6 -12 -12 44 -69
77 -78 84 -20 207 4 273 54 23 17 36 38 44 71 6 25 13 40 16 33 2 -6 9 -12 16
-12 6 0 28 -11 48 -25 20 -14 44 -25 54 -25 25 0 116 87 135 130 9 20 21 40
27 44 5 3 23 -11 38 -32 43 -57 57 -70 79 -73 49 -8 61 41 21 88 -13 15 -29
45 -37 66 -7 20 -17 37 -21 37 -4 0 -8 7 -8 15 0 24 -29 75 -42 75 -6 0 -25
11 -42 24 -30 23 -33 23 -62 7z m6 -138 c0 -5 -15 -37 -33 -73 -26 -53 -37
-66 -59 -68 -19 -2 -28 2 -33 17 -7 24 21 63 75 103 37 28 50 33 50 21z"/>
<path d="M14472 6970 c-6 -11 -12 -48 -12 -84 0 -73 -11 -89 -62 -86 -56 3
-66 1 -97 -26 -27 -22 -29 -28 -17 -40 8 -8 21 -14 28 -14 8 0 19 -5 25 -11 7
-7 23 -8 45 -3 39 9 71 6 79 -8 4 -6 6 -43 6 -83 0 -63 3 -77 24 -102 23 -27
59 -36 76 -19 7 7 11 29 14 76 1 8 -4 40 -9 70 -6 33 -6 59 -1 66 5 6 29 14
54 17 125 18 110 95 -17 88 -63 -3 -58 -10 -73 104 -4 28 -14 55 -23 62 -23
17 -25 16 -40 -7z"/>
<path d="M15344 6881 c-22 -10 -50 -31 -62 -47 -12 -16 -26 -34 -32 -41 -5 -7
-10 -21 -10 -33 0 -35 -26 -85 -55 -107 -39 -28 -28 -63 20 -63 24 0 37 -7 48
-24 18 -28 94 -81 129 -91 12 -3 33 -11 45 -17 37 -18 92 5 147 61 55 56 54
77 -3 66 -20 -3 -46 -13 -58 -21 -12 -8 -42 -14 -66 -14 -39 0 -49 5 -81 40
-42 46 -48 80 -14 80 37 0 156 63 167 88 29 61 2 117 -64 132 -55 13 -64 12
-111 -9z m99 -77 c11 -11 -5 -34 -23 -34 -10 0 -23 -7 -30 -15 -11 -13 -60
-22 -60 -10 0 19 27 55 44 58 35 7 62 7 69 1z"/>
<path d="M13657 6703 c-18 -21 -58 -63 -90 -94 -33 -31 -65 -67 -73 -80 -14
-25 -17 -32 -40 -84 -8 -16 -30 -50 -49 -75 -19 -25 -38 -52 -42 -60 -4 -8
-26 -42 -49 -76 -23 -33 -49 -77 -58 -97 -8 -21 -22 -40 -31 -43 -8 -3 -15
-11 -15 -18 0 -12 -27 -47 -77 -102 l-31 -35 -79 16 c-43 8 -99 23 -125 32
-45 16 -48 16 -68 -2 -24 -21 -26 -53 -5 -61 8 -4 15 -14 15 -24 0 -10 7 -31
15 -46 8 -16 15 -37 15 -46 0 -9 4 -19 9 -22 11 -7 24 -107 22 -166 -1 -25 4
-65 12 -90 12 -41 12 -47 -6 -71 -15 -21 -17 -31 -8 -47 14 -26 67 -46 81 -29
6 7 20 23 33 37 12 14 62 72 111 128 49 56 92 102 95 102 11 0 101 88 101 99
0 6 9 11 20 11 11 0 20 5 20 10 0 6 11 10 24 10 24 0 96 26 96 35 0 3 -7 22
-15 41 -13 32 -18 36 -42 30 -77 -18 -103 -18 -127 -2 -14 9 -32 16 -40 16
-23 0 -31 22 -13 35 10 7 17 16 17 20 0 4 13 24 29 44 16 20 41 59 55 86 15
28 40 70 56 95 16 25 29 51 29 58 1 6 5 12 10 12 10 0 46 54 90 135 18 33 55
83 81 110 105 109 152 164 145 175 -4 6 -2 17 4 24 20 23 2 46 -36 46 -28 0
-41 -7 -66 -37z m-662 -848 c0 -5 -10 -11 -22 -13 -16 -2 -23 2 -23 13 0 11 7
15 23 13 12 -2 22 -7 22 -13z"/>
<path d="M18041 6716 c-13 -7 -29 -29 -36 -48 -16 -49 -1 -67 63 -75 l51 -6
15 38 c20 48 20 47 -9 79 -27 29 -48 32 -84 12z"/>
<path d="M858 6099 c-40 -20 -49 -47 -24 -68 8 -6 52 -16 99 -21 101 -12 133
-22 169 -57 l27 -26 -27 -34 c-28 -35 -154 -103 -192 -103 -37 0 -80 -28 -80
-53 0 -36 20 -51 100 -76 75 -24 133 -59 144 -87 3 -9 -7 -27 -24 -44 -34 -33
-74 -38 -144 -19 -34 9 -41 8 -59 -10 -19 -18 -19 -23 -7 -47 20 -37 66 -58
130 -58 67 -1 108 25 151 92 44 70 40 106 -21 182 -28 35 -47 66 -43 70 4 4
33 25 63 47 30 22 64 57 74 77 29 54 11 115 -52 175 -41 40 -55 47 -132 63
-105 22 -106 22 -152 -3z"/>
<path d="M19680 4988 c0 -12 68 -43 76 -35 12 12 -16 35 -46 39 -17 3 -30 1
-30 -4z"/>
<path d="M19846 4961 c-4 -6 5 -13 21 -17 15 -4 33 -11 40 -16 8 -7 17 -5 28
5 21 21 19 27 -7 26 -13 0 -35 3 -49 6 -15 4 -29 2 -33 -4z"/>
<path d="M20150 4941 c0 -10 50 -25 57 -17 3 2 2 9 -2 15 -8 13 -55 15 -55 2z"/>
<path d="M16571 4914 c-19 -24 -19 -27 -3 -59 16 -33 20 -35 69 -35 42 0 55 4
67 22 21 30 20 58 -2 58 -10 0 -35 9 -57 20 -49 25 -49 25 -74 -6z"/>
<path d="M19633 4886 l-46 -45 34 -35 c19 -19 46 -38 61 -41 23 -6 29 -2 43
24 19 38 44 39 75 6 26 -27 63 -32 104 -13 36 16 41 43 16 78 -22 30 -44 38
-55 20 -3 -5 -14 -10 -24 -10 -10 0 -24 -7 -31 -15 -17 -20 -30 -19 -30 2 0
25 -50 73 -77 73 -14 0 -42 -18 -70 -44z"/>
<path d="M20891 4901 c-12 -16 -21 -32 -21 -35 0 -9 63 -46 77 -46 17 0 44 55
37 75 -6 15 -43 35 -64 35 -5 0 -18 -13 -29 -29z"/>
<path d="M17261 4913 c-8 -3 -24 -15 -37 -25 l-22 -20 35 -35 35 -36 34 16
c41 20 45 53 11 85 -24 23 -32 25 -56 15z"/>
<path d="M17567 4902 c-23 -25 -21 -52 7 -85 20 -25 25 -27 51 -17 15 6 25 13
22 16 -2 3 6 16 19 29 31 31 30 36 -7 58 -39 22 -72 22 -92 -1z"/>
<path d="M16205 4893 c-28 -15 -45 -31 -45 -43 1 -18 45 -52 73 -57 26 -4 40
1 65 22 18 15 32 32 32 38 0 14 -64 57 -82 57 -7 -1 -26 -8 -43 -17z"/>
<path d="M18372 4886 c-18 -13 -36 -26 -39 -29 -11 -12 58 -69 83 -69 52 0 75
62 39 102 -23 26 -42 25 -83 -4z"/>
<path d="M20750 4902 c0 -5 -12 -14 -27 -21 l-27 -12 30 -28 c43 -40 60 -44
90 -18 26 23 26 24 10 55 -13 25 -23 32 -46 32 -17 0 -30 -4 -30 -8z"/>
<path d="M17886 4875 c-9 -13 -16 -28 -16 -32 0 -12 49 -63 61 -63 36 0 67 48
53 83 -5 15 -46 37 -68 37 -8 0 -21 -11 -30 -25z"/>
<path d="M20099 4889 c-7 -4 -27 -6 -44 -3 -28 4 -29 4 -7 -7 l22 -12 -31 -26
-31 -26 18 -38 c10 -20 22 -37 28 -37 6 0 21 -3 33 -6 17 -5 25 1 38 26 13 26
21 31 39 26 20 -5 23 -3 18 20 -3 15 2 32 12 43 15 16 15 19 -2 34 -18 16 -71
20 -93 6z"/>
<path d="M20354 4875 c-3 -14 -14 -29 -23 -35 -14 -8 -15 -12 -1 -36 17 -31
59 -47 81 -30 13 10 59 81 59 92 0 2 -13 4 -29 4 -16 0 -34 7 -41 15 -19 23
-39 18 -46 -10z"/>
<path d="M20590 4875 l-24 -25 22 -16 c12 -8 22 -24 22 -35 0 -12 7 -19 20
-19 23 0 60 53 60 86 0 41 -65 47 -100 9z"/>
<path d="M13100 4880 c-14 -3 -30 -17 -37 -30 -10 -21 -8 -26 24 -52 42 -33
56 -35 83 -8 15 15 18 25 11 38 -5 9 -12 24 -14 33 -6 20 -33 27 -67 19z"/>
<path d="M15883 4868 c-39 -23 -41 -36 -12 -72 25 -32 66 -32 83 -1 6 11 14
22 17 25 17 15 18 44 2 56 -25 18 -52 16 -90 -8z"/>
<path d="M5637 4863 c-24 -27 -21 -54 8 -81 21 -21 28 -22 62 -13 21 6 47 17
57 24 17 13 17 15 -11 46 -38 40 -90 51 -116 24z"/>
<path d="M6218 4869 c-9 -5 -21 -22 -28 -39 -12 -28 -11 -32 15 -56 37 -34 74
-29 91 13 12 27 11 34 -6 56 -22 28 -50 38 -72 26z"/>
<path d="M16860 4873 c-39 -5 -62 -27 -52 -51 9 -25 44 -51 68 -52 28 0 74 37
74 59 0 19 -31 52 -46 49 -5 0 -25 -3 -44 -5z"/>
<path d="M5115 4847 c-29 -24 -29 -25 -11 -51 9 -15 24 -30 32 -33 18 -7 74
20 99 47 16 18 17 22 4 34 -8 8 -32 17 -54 20 -33 5 -45 2 -70 -17z"/>
<path d="M7539 4858 c-8 -3 -22 -9 -31 -12 -22 -7 -23 -29 -3 -50 8 -8 15 -19
15 -24 0 -5 12 -13 27 -17 20 -5 31 -1 49 18 13 14 28 27 34 29 7 2 9 14 5 30
-6 21 -13 27 -45 30 -21 2 -44 0 -51 -4z"/>
<path d="M7991 4843 l-32 -28 35 -34 35 -34 35 23 c40 24 44 38 19 68 -30 34
-55 35 -92 5z"/>
<path d="M10945 4843 c-33 -37 -32 -49 10 -69 28 -13 38 -14 50 -4 8 6 18 9
24 6 5 -3 14 8 20 26 14 40 15 38 -13 38 -13 0 -26 7 -30 15 -8 23 -32 18 -61
-12z"/>
<path d="M11501 4839 c-27 -24 -31 -33 -20 -40 8 -5 10 -9 5 -9 -6 0 0 -9 12
-20 26 -25 90 -27 99 -5 3 9 -2 21 -11 28 -9 7 -20 25 -24 41 -11 40 -22 41
-61 5z"/>
<path d="M18053 4846 l-28 -24 21 -28 c33 -45 48 -50 87 -30 18 10 38 31 44
46 10 26 8 29 -24 44 -46 22 -67 20 -100 -8z"/>
<path d="M18714 4863 c-12 -2 -30 -13 -39 -23 -16 -18 -16 -21 6 -49 30 -37
45 -44 69 -31 55 29 65 69 23 91 -36 17 -34 17 -59 12z"/>
<path d="M21138 4852 c-16 -10 -28 -20 -28 -24 0 -22 22 -59 44 -73 33 -22 60
-12 79 27 14 30 14 34 -4 60 -23 32 -50 35 -91 10z"/>
<path d="M6960 4847 c-33 -17 -37 -44 -9 -73 29 -31 50 -30 88 1 36 31 49 64
30 76 -20 13 -80 11 -109 -4z"/>
<path d="M18902 4829 l-24 -29 37 -37 c27 -27 39 -33 48 -24 6 6 21 11 33 11
49 0 38 74 -13 95 -47 20 -54 19 -81 -16z"/>
<path d="M7762 4823 l-23 -26 31 -29 c34 -31 58 -36 66 -14 3 8 16 17 30 20
53 14 11 76 -51 76 -20 0 -38 -9 -53 -27z"/>
<path d="M9238 4820 l-31 -32 26 -25 c20 -21 37 -27 76 -28 43 -2 51 1 51 16
0 10 -4 21 -10 24 -5 3 -10 14 -10 24 0 21 -15 36 -48 45 -17 6 -29 0 -54 -24z"/>
<path d="M11257 4832 c-30 -33 -29 -65 3 -90 36 -28 59 -23 83 19 20 37 17 43
-32 69 -36 18 -40 18 -54 2z"/>
<path d="M12965 4841 c-12 -5 -27 -16 -34 -25 -7 -9 -22 -16 -32 -16 -44 0
-27 -64 20 -74 27 -5 28 -4 79 60 36 46 18 76 -33 55z"/>
<path d="M13915 4836 c-59 -18 -83 -34 -90 -57 -9 -26 20 -59 50 -59 44 0 114
81 101 116 -6 16 -9 17 -61 0z"/>
<path d="M15583 4825 c-67 -36 -65 -33 -37 -71 15 -19 35 -34 45 -34 22 0 89
57 89 76 0 8 7 14 16 14 33 0 5 25 -34 31 -30 4 -50 0 -79 -16z"/>
<path d="M19266 4835 c-21 -16 -17 -46 11 -82 16 -21 22 -22 56 -12 72 20 124
89 67 89 -10 0 -22 5 -25 10 -9 15 -87 11 -109 -5z"/>
<path d="M8773 4828 c-13 -6 -23 -15 -23 -19 0 -5 -7 -6 -15 -3 -23 9 -19 -33
5 -48 11 -7 20 -18 20 -25 0 -37 112 13 118 53 3 18 -7 25 -78 51 -3 1 -15 -3
-27 -9z"/>
<path d="M11786 4827 c-11 -7 -29 -20 -40 -30 -20 -17 -20 -18 11 -48 29 -29
33 -31 66 -20 19 7 40 18 46 25 17 20 1 54 -32 71 -16 8 -31 15 -31 14 -1 0
-10 -6 -20 -12z"/>
<path d="M13553 4833 c-33 -6 -47 -28 -33 -52 6 -12 17 -21 24 -21 8 0 17 -7
20 -16 13 -35 116 15 116 57 0 33 -54 46 -127 32z"/>
<path d="M5330 4810 c-26 -26 -25 -42 3 -68 27 -26 54 -28 83 -7 26 17 40 75
22 87 -25 15 -87 9 -108 -12z"/>
<path d="M6475 4818 c-25 -13 -45 -38 -45 -55 0 -18 77 -55 101 -48 37 12 17
116 -22 115 -8 0 -23 -6 -34 -12z"/>
<path d="M7238 4818 c-45 -37 -8 -85 57 -72 43 8 48 16 40 54 -6 27 -11 30
-44 30 -20 0 -44 -6 -53 -12z"/>
<path d="M9727 4810 c-33 -18 -34 -36 -4 -61 18 -15 32 -17 72 -12 58 7 77 19
73 46 -4 30 -102 49 -141 27z"/>
<path d="M10083 4816 c-45 -20 -57 -48 -33 -74 29 -31 62 -38 75 -17 5 10 20
27 33 38 26 24 28 37 7 37 -8 0 -14 6 -12 12 3 18 -33 20 -70 4z"/>
<path d="M13280 4813 c-18 -13 -19 -16 -5 -43 8 -16 24 -32 35 -35 29 -9 90
38 90 69 0 22 -4 24 -51 23 -27 0 -59 -7 -69 -14z"/>
<path d="M14178 4814 c-32 -17 -34 -26 -13 -44 8 -7 15 -18 15 -26 0 -7 10
-16 21 -19 17 -6 29 1 55 29 39 43 41 51 15 66 -27 14 -61 12 -93 -6z"/>
<path d="M14486 4814 c-3 -9 -13 -14 -21 -10 -25 9 -28 -15 -4 -40 13 -14 34
-24 49 -24 37 0 82 37 78 64 -2 17 -11 22 -49 24 -36 2 -48 -1 -53 -14z"/>
<path d="M4773 4792 c-21 -28 -21 -28 -1 -55 23 -31 58 -35 81 -9 22 24 11 71
-20 83 -35 13 -37 12 -60 -19z"/>
<path d="M5911 4793 c-23 -20 -30 -33 -26 -45 4 -10 13 -18 20 -18 7 0 18 -7
25 -15 7 -8 19 -15 28 -15 23 0 102 69 96 84 -5 13 -67 36 -96 36 -7 0 -29
-12 -47 -27z"/>
<path d="M6755 4801 c-58 -20 -69 -45 -34 -72 34 -26 66 -24 85 6 13 19 14 33
8 55 l-9 29 -50 -18z"/>
<path d="M8225 4813 c-28 -7 -55 -33 -55 -53 0 -9 11 -27 24 -39 l24 -23 45
26 c34 20 45 32 45 52 0 36 -31 50 -83 37z"/>
<path d="M9044 4809 c-45 -13 -60 -34 -46 -63 17 -37 62 -42 114 -13 53 29 63
62 23 77 -31 12 -49 12 -91 -1z"/>
<path d="M9529 4807 c-28 -22 -29 -44 -4 -71 34 -36 70 -27 86 22 10 31 9 37
-7 49 -22 16 -54 16 -75 0z"/>
<path d="M10626 4795 c-20 -31 -21 -27 14 -65 27 -29 33 -32 56 -22 13 7 27
19 30 27 4 8 12 15 20 15 8 0 14 10 14 23 0 19 -8 25 -45 35 -62 17 -70 15
-89 -13z"/>
<path d="M12320 4799 c-16 -10 -30 -25 -30 -34 0 -21 30 -54 45 -49 6 3 20 -4
30 -16 24 -26 29 -25 50 6 16 25 16 28 -1 65 -23 45 -51 54 -94 28z"/>
<path d="M15260 4812 c-21 -9 -19 -32 6 -66 17 -24 25 -27 51 -22 23 5 32 14
36 34 9 44 -45 75 -93 54z"/>
<path d="M12590 4788 c-25 -27 -25 -36 -1 -67 16 -20 24 -23 56 -18 53 9 60
19 39 58 -28 55 -59 64 -94 27z"/>
<path d="M4007 4782 c-24 -26 -21 -47 8 -66 33 -22 78 -20 99 3 16 17 16 23 4
48 -11 23 -21 29 -54 31 -29 2 -45 -2 -57 -16z"/>
<path d="M4480 4782 c-39 -19 -51 -49 -23 -59 10 -4 24 -13 31 -20 20 -20 31
-16 68 21 38 38 42 51 17 61 -36 14 -59 13 -93 -3z"/>
<path d="M8445 4780 c-18 -20 -15 -50 6 -50 7 0 17 -7 24 -16 17 -25 61 -10
80 26 20 38 20 36 -16 49 -46 16 -74 14 -94 -9z"/>
<path d="M10295 4778 c-23 -34 -18 -56 16 -74 34 -17 66 -13 105 13 34 22 30
38 -13 59 -56 27 -89 28 -108 2z"/>
<path d="M3162 4770 c-28 -27 -28 -30 10 -63 25 -23 37 -27 62 -21 39 8 37 6
38 44 2 57 -66 81 -110 40z"/>
<path d="M14648 4763 c-34 -17 -35 -35 -6 -68 29 -34 65 -33 81 3 6 15 16 30
21 34 12 8 -33 48 -54 47 -8 -1 -27 -8 -42 -16z"/>
<path d="M3682 4754 c-27 -19 -28 -36 -2 -59 15 -13 29 -16 56 -12 45 7 50 12
59 55 l7 32 -49 0 c-28 0 -58 -7 -71 -16z"/>
<path d="M4178 4751 c-24 -24 -22 -52 6 -78 33 -32 62 -29 81 7 23 44 19 58
-21 75 -44 18 -45 18 -66 -4z"/>
<path d="M12032 4744 l-22 -26 25 -24 c33 -30 52 -30 90 1 l30 25 -30 25 c-38
32 -64 31 -93 -1z"/>
<path d="M3453 4734 c-13 -14 -23 -29 -23 -34 0 -14 51 -50 71 -50 21 0 60 46
53 64 -4 10 -66 47 -77 46 -1 0 -12 -12 -24 -26z"/>
<path d="M14943 4745 c-18 -8 -33 -16 -33 -19 0 -3 13 -19 29 -37 23 -24 35
-30 53 -25 38 10 47 20 50 56 3 33 1 35 -32 37 -19 2 -50 -4 -67 -12z"/>
<path d="M2990 4743 c-26 -5 -60 -30 -60 -44 0 -12 53 -59 67 -59 7 0 25 18
39 40 22 33 24 43 14 55 -13 15 -16 16 -60 8z"/>
<path d="M746 4721 c-10 -11 -16 -27 -14 -37 5 -26 51 -56 100 -65 69 -13 134
-33 152 -48 13 -11 16 -32 16 -100 0 -137 7 -129 -123 -133 -100 -3 -116 -6
-149 -28 -97 -66 -69 -141 67 -175 83 -21 131 -12 190 35 21 17 43 30 49 30
14 0 52 -25 87 -57 36 -33 79 -28 92 10 8 26 5 33 -30 67 -22 20 -59 50 -82
65 -30 20 -40 33 -35 44 9 24 22 191 17 230 -8 69 -73 141 -127 141 -14 0 -49
9 -78 20 -67 25 -110 26 -132 1z m170 -496 c-11 -8 -33 -13 -50 -11 -17 2 -39
4 -48 5 -10 0 -18 6 -18 11 0 6 29 10 68 10 60 -1 65 -2 48 -15z"/>
<path d="M1578 4729 c-28 -16 -21 -36 19 -64 47 -31 57 -31 71 0 18 39 -3 75
-42 75 -17 0 -39 -5 -48 -11z"/>
<path d="M2740 4688 l-23 -31 32 -29 c17 -15 35 -28 40 -28 14 0 39 34 46 62
6 23 2 29 -24 42 -41 21 -44 21 -71 -16z"/>
<path d="M2476 4684 c-18 -25 -18 -26 5 -50 31 -33 75 -29 103 9 l21 28 -25
19 c-36 28 -81 25 -104 -6z"/>
<path d="M19776 4693 c-12 -29 32 -44 53 -19 10 12 8 17 -8 25 -27 15 -38 14
-45 -6z"/>
<path d="M1777 4665 c-17 -24 -17 -25 5 -50 12 -14 29 -25 39 -25 23 0 50 59
38 82 -14 26 -60 23 -82 -7z"/>
<path d="M1988 4679 c-30 -17 -21 -45 19 -62 34 -13 40 -13 60 2 31 23 37 43
17 58 -21 15 -72 16 -96 2z"/>
<path d="M2208 4666 c-10 -7 -18 -20 -18 -29 0 -21 39 -57 60 -57 26 0 60 42
54 67 -9 32 -65 43 -96 19z"/>
<path d="M18960 4267 c-20 -18 -29 -34 -26 -45 12 -36 41 -42 208 -43 174 -2
258 6 258 25 -1 38 -40 54 -156 62 -54 3 -103 9 -108 12 -5 3 -40 8 -77 11
-64 6 -69 5 -99 -22z"/>
<path d="M16615 4263 c-36 -7 -65 -26 -65 -42 0 -9 15 -26 33 -39 30 -20 46
-22 143 -22 135 -1 264 12 265 25 1 14 -43 46 -72 51 -142 25 -260 35 -304 27z"/>
<path d="M17216 4259 c-38 -6 -70 -33 -63 -53 2 -5 12 -14 23 -20 10 -6 22
-16 26 -21 8 -12 133 -19 150 -9 7 4 34 8 62 10 78 3 177 13 187 20 13 8 11
38 -5 60 -13 17 -28 19 -178 19 -90 0 -181 -3 -202 -6z"/>
<path d="M18384 4231 l-32 -29 37 -36 c32 -32 44 -36 101 -41 36 -2 106 -9
155 -15 67 -7 96 -7 113 2 26 14 29 46 5 54 -10 3 -26 10 -35 15 -10 5 -27 9
-39 9 -11 0 -41 8 -67 19 -26 10 -78 24 -117 31 -38 7 -74 14 -80 16 -5 2 -24
-9 -41 -25z"/>
<path d="M20278 4235 c-9 -21 -8 -27 13 -44 24 -20 60 -29 200 -50 66 -10 82
-10 118 5 22 9 41 19 41 23 0 25 -33 43 -100 56 -41 8 -95 19 -120 24 -25 6
-66 10 -93 11 -41 0 -49 -3 -59 -25z"/>
<path d="M9545 4227 c-26 -22 -28 -27 -15 -42 19 -23 63 -44 100 -48 17 -2 36
-9 42 -15 6 -6 16 -8 23 -5 8 2 25 -3 39 -12 16 -11 56 -19 107 -22 67 -5 88
-3 115 12 19 10 34 26 34 36 0 14 -5 16 -35 9 -19 -4 -37 -4 -40 0 -3 4 -22
11 -42 15 -21 3 -48 13 -61 21 -12 8 -42 16 -66 17 -25 2 -55 12 -74 26 -50
35 -93 38 -127 8z"/>
<path d="M10341 4239 c-59 -23 -97 -45 -113 -64 -16 -19 -16 -21 7 -43 27 -25
11 -25 199 7 32 6 63 8 67 5 5 -3 47 -7 94 -10 84 -4 85 -4 85 20 0 44 -77 74
-215 82 -38 2 -76 6 -85 8 -8 3 -26 0 -39 -5z"/>
<path d="M19608 4235 c-32 -18 -34 -34 -13 -75 13 -25 22 -30 53 -32 20 0 44
0 52 1 8 1 58 2 110 2 152 -2 221 39 150 90 -36 25 -312 36 -352 14z"/>
<path d="M11040 4230 c-84 -8 -154 -36 -145 -58 3 -7 5 -18 5 -22 0 -15 42
-34 80 -37 56 -5 60 -5 160 11 81 13 123 22 198 42 14 4 16 40 3 49 -5 3 -51
7 -103 9 -51 3 -100 7 -108 9 -8 2 -49 1 -90 -3z"/>
<path d="M6867 4222 c-32 -3 -87 -37 -87 -55 0 -3 15 -15 34 -27 32 -19 44
-20 138 -15 57 4 141 8 188 11 47 2 101 7 120 12 31 7 35 11 32 38 -2 16 -5
30 -7 32 -4 4 -371 8 -418 4z"/>
<path d="M9235 4221 c-21 -18 -114 -35 -182 -33 -42 1 -75 -3 -79 -9 -3 -6
-21 -8 -45 -4 -52 9 -108 -12 -116 -43 -7 -31 3 -40 63 -51 44 -9 108 -5 259
13 53 6 102 20 125 35 14 9 38 23 54 31 27 14 48 47 39 63 -6 10 -107 9 -118
-2z"/>
<path d="M11649 4226 c-2 -3 -16 -6 -29 -8 -14 -2 -40 -10 -57 -18 -42 -19
-44 -55 -6 -86 22 -17 33 -20 69 -13 23 4 93 10 155 14 199 9 251 16 245 31
-3 7 -1 16 5 20 14 8 -18 43 -39 43 -112 1 -310 10 -323 15 -8 4 -17 5 -20 2z"/>
<path d="M20891 4204 c-27 -34 -27 -35 8 -68 28 -27 33 -28 132 -27 57 0 119
5 138 10 18 6 36 10 40 9 3 -1 18 2 32 6 27 8 43 43 30 65 -6 8 -255 31 -343
31 -9 0 -26 -12 -37 -26z"/>
<path d="M7760 4209 c-107 -12 -203 -30 -217 -42 -20 -15 -15 -45 9 -58 43
-23 411 -8 439 17 23 21 29 61 12 76 -17 14 -142 18 -243 7z"/>
<path d="M14695 4208 c-42 -24 -40 -50 6 -74 40 -20 284 -25 317 -6 28 16 27
23 -3 45 -44 31 -282 58 -320 35z"/>
<path d="M17967 4213 c-2 -2 -28 -4 -58 -4 -71 -1 -178 -37 -191 -65 -8 -17
-5 -26 18 -49 26 -26 31 -27 92 -21 36 4 74 12 86 18 12 6 56 11 99 11 61 -1
83 -5 98 -19 17 -16 22 -16 29 -4 5 8 6 26 3 40 -9 35 -52 90 -72 91 -77 5
-101 6 -104 2z"/>
<path d="M15213 4198 c-47 -10 -64 -39 -44 -76 14 -26 39 -31 231 -38 194 -8
240 -3 233 26 -4 14 -17 21 -49 26 -24 3 -44 10 -44 14 0 9 -44 19 -120 26
-30 3 -77 12 -104 20 -27 8 -52 14 -55 13 -3 -1 -25 -5 -48 -11z"/>
<path d="M6117 4169 l-31 -31 25 -19 c13 -10 36 -19 52 -19 15 0 36 -5 46 -11
11 -8 29 -9 47 -4 16 5 34 7 39 5 25 -8 175 2 210 14 39 14 56 39 38 57 -4 4
-73 11 -153 15 -79 3 -152 10 -162 15 -35 19 -78 10 -111 -22z"/>
<path d="M14265 4193 c-22 -1 -76 -5 -120 -9 -69 -5 -82 -9 -98 -30 -17 -23
-17 -24 15 -54 20 -18 39 -27 48 -23 8 3 78 7 155 9 150 3 205 10 205 24 0 4
3 15 6 23 3 10 -2 18 -15 22 -12 3 -21 12 -21 20 0 23 -51 28 -175 18z"/>
<path d="M15907 4190 c-39 -7 -87 -44 -87 -67 0 -7 6 -13 14 -13 7 0 16 -8 19
-19 5 -20 47 -32 69 -20 7 4 82 13 167 19 185 15 212 24 217 71 l3 34 -182 1
c-100 0 -199 -2 -220 -6z"/>
<path d="M3645 4178 c-17 -4 -61 -10 -100 -13 -38 -3 -95 -10 -125 -16 -59
-12 -142 -48 -147 -64 -2 -5 13 -20 31 -33 30 -21 42 -23 93 -17 32 3 69 10
83 15 14 4 34 11 45 15 11 3 48 7 83 9 57 2 66 5 98 38 l36 35 -34 20 c-25 15
-40 17 -63 11z"/>
<path d="M4640 4179 c-67 -5 -120 -30 -120 -55 0 -8 15 -23 33 -34 26 -16 46
-19 101 -16 38 2 98 0 133 -3 60 -7 226 9 239 22 11 11 -6 56 -25 67 -32 17
-253 29 -361 19z"/>
<path d="M13777 4184 c-4 -5 -160 -12 -302 -14 -37 -1 -75 -25 -75 -48 0 -10
14 -28 31 -41 34 -25 57 -25 239 4 132 21 160 35 160 83 0 16 -6 22 -23 22
-13 0 -26 -3 -30 -6z"/>
<path d="M12232 4170 c-31 -13 -37 -34 -17 -63 26 -40 59 -47 190 -44 140 5
185 17 185 53 0 17 -6 24 -19 24 -11 0 -23 5 -26 11 -4 6 -28 9 -54 8 -26 -1
-52 0 -57 4 -18 11 -179 17 -202 7z"/>
<path d="M5379 4154 c-50 -27 -54 -40 -19 -71 31 -28 35 -29 158 -31 70 -1
135 -5 144 -8 9 -3 33 2 53 11 21 8 45 15 54 15 22 0 65 45 57 58 -3 6 -45 8
-100 6 -64 -3 -119 1 -168 11 -105 23 -149 25 -179 9z"/>
<path d="M3987 4144 c-62 -19 -77 -49 -39 -80 24 -20 35 -21 152 -17 69 2 150
9 180 16 102 23 66 63 -70 78 -161 18 -175 19 -223 3z"/>
<path d="M8252 4144 c-54 -15 -72 -31 -72 -60 0 -16 10 -29 32 -40 31 -16 64
-15 153 3 17 3 78 7 137 7 l106 1 6 35 c10 62 -4 67 -172 67 -88 0 -165 -5
-190 -13z"/>
<path d="M12827 4139 c-30 -8 -57 -27 -57 -38 0 -4 14 -18 32 -31 24 -18 48
-24 93 -26 300 -13 308 -13 321 1 23 23 17 47 -10 43 -13 -1 -29 2 -37 8 -8 6
-21 12 -29 12 -8 0 -33 3 -55 7 -228 34 -226 34 -258 24z"/>
<path d="M2716 4090 c-46 -24 -54 -45 -28 -73 22 -24 23 -24 200 -20 139 4
184 8 210 21 17 9 32 19 32 22 0 3 -16 15 -35 28 -27 17 -50 22 -102 23 -38 0
-108 4 -158 8 -70 5 -95 3 -119 -9z"/>
<path d="M2205 4059 c-73 -6 -132 -29 -142 -56 -4 -10 4 -25 22 -40 23 -20 34
-23 59 -17 17 4 56 8 86 9 30 1 71 6 90 13 19 6 56 14 83 17 59 8 61 26 5 56
-46 24 -87 28 -203 18z"/>
<path d="M933 3242 c-20 -16 -21 -24 -19 -157 2 -77 -1 -174 -6 -215 -11 -99
-1 -150 35 -170 26 -14 29 -14 43 5 12 15 14 35 10 85 -8 83 -9 70 2 174 13
124 -8 297 -35 296 -5 0 -18 -8 -30 -18z"/>
<path d="M926 1953 c-27 -7 -90 -54 -120 -90 -14 -17 -43 -59 -63 -94 l-38
-64 0 -126 c0 -113 2 -129 20 -149 19 -21 19 -22 1 -35 -17 -13 -16 -16 14
-53 27 -34 38 -40 83 -46 88 -10 143 -7 206 13 121 38 167 101 183 251 10 97
6 131 -25 217 -18 50 -32 69 -77 105 -52 42 -126 79 -153 77 -6 -1 -21 -4 -31
-6z m130 -154 c62 -59 75 -97 75 -210 0 -61 -5 -106 -13 -118 -16 -26 -85 -55
-165 -72 l-61 -13 -40 43 c-23 25 -45 61 -52 87 -26 91 6 206 78 286 35 39 38
40 89 36 44 -4 60 -11 89 -39z"/>
<path d="M11285 1230 c-37 -24 -46 -48 -30 -80 15 -30 9 -120 -8 -136 -16 -14
-131 -34 -227 -39 -41 -2 -88 -6 -105 -10 -16 -3 -45 -6 -63 -5 -18 0 -51 -9
-72 -21 -34 -19 -39 -26 -34 -48 10 -40 30 -51 88 -46 28 3 58 5 66 6 8 0 87
7 176 15 201 19 215 18 227 -21 16 -54 9 -138 -13 -157 -16 -13 -18 -21 -11
-41 11 -29 30 -38 62 -30 26 7 27 8 84 55 54 46 93 71 207 132 29 16 55 32 58
35 8 11 84 31 116 31 31 0 77 15 137 45 31 16 37 24 37 52 0 49 -55 76 -152
75 -21 -1 -77 12 -123 29 -47 16 -96 29 -108 29 -13 0 -53 19 -88 42 -47 31
-187 109 -193 108 -1 0 -14 -9 -31 -20z"/>
<path d="M9065 1201 c-14 -23 -45 -136 -45 -164 l0 -30 -48 6 c-81 9 -138 -19
-141 -70 -2 -24 71 -63 117 -63 67 0 76 -15 69 -116 -2 -47 -3 -93 0 -104 5
-19 59 -47 70 -36 16 16 30 80 32 147 3 87 11 103 48 86 22 -10 28 -8 44 12
11 13 19 26 18 30 0 3 -27 27 -58 53 l-59 47 6 90 c3 65 1 95 -8 106 -14 17
-36 20 -45 6z"/>
<path d="M9331 1081 c-18 -25 -19 -33 -10 -55 30 -65 99 1 73 68 -10 25 -41
19 -63 -13z"/>
<path d="M10202 996 c-29 -18 -73 -55 -98 -82 -44 -47 -46 -51 -41 -99 9 -83
52 -155 93 -155 13 0 38 -13 57 -30 31 -26 37 -28 69 -20 36 10 59 9 90 -4 9
-4 23 -4 30 0 7 5 23 7 36 5 13 -1 35 8 52 23 l30 25 -27 21 c-33 26 -46 28
-161 33 -53 2 -97 8 -104 15 -9 9 -7 12 9 12 34 0 125 46 171 87 99 88 43 203
-98 203 -46 0 -65 -6 -108 -34z m130 -73 c44 -40 5 -66 -102 -67 -32 -1 -45 3
-45 13 0 14 65 54 103 64 9 3 19 5 21 6 3 0 13 -6 23 -16z"/>
<path d="M9609 985 c-19 -20 -42 -35 -55 -35 -12 0 -32 -12 -43 -26 -18 -23
-19 -30 -8 -57 7 -20 10 -60 7 -109 -4 -64 -2 -81 13 -99 14 -18 20 -19 32 -9
24 20 43 70 50 130 10 77 29 118 61 130 34 13 60 -7 69 -54 10 -53 49 -126 65
-123 8 1 21 22 29 47 28 89 33 100 52 100 20 0 32 -15 36 -44 2 -11 7 -24 11
-30 10 -13 9 -132 -1 -162 -5 -14 0 -29 16 -48 22 -25 26 -27 46 -15 11 8 22
25 22 39 2 28 7 81 15 157 10 89 -38 155 -134 182 -39 11 -46 10 -64 -6 -20
-18 -21 -17 -47 13 -33 40 -61 54 -105 54 -28 0 -42 -8 -67 -35z"/>
<path d="M9370 978 c0 -6 -10 -22 -22 -36 -20 -20 -23 -35 -24 -105 -1 -45 -5
-109 -9 -143 -7 -59 -6 -62 23 -92 29 -30 30 -30 47 -12 13 15 19 41 21 102 1
46 7 100 12 120 10 37 3 99 -17 151 -11 27 -31 37 -31 15z"/>
</g>
</svg>
