<?xml version="1.0" standalone="no"?>
<!DOCTYPE svg PUBLIC "-//W3C//DTD SVG 20010904//EN"
 "http://www.w3.org/TR/2001/REC-SVG-20010904/DTD/svg10.dtd">
<svg version="1.0" xmlns="http://www.w3.org/2000/svg"
 width="1079.871589pt" height="400.000000pt" viewBox="0 0 1079.871589 400.000000"
 preserveAspectRatio="xMidYMid meet">
<metadata>
Created by potrace 1.15, written by Peter Selinger 2001-2017
</metadata>
<g transform="translate(-32.427915,427.366442) scale(0.059466,-0.059466)"
fill="#444444" stroke="none">
<path d="M6762 7174 c-18 -36 -21 -69 -14 -176 l7 -108 -43 2 c-35 1 -48 -4
-73 -28 -27 -26 -29 -33 -23 -69 7 -44 54 -119 84 -135 59 -31 180 17 180 72
0 22 -9 23 -46 3 -34 -17 -87 -20 -115 -5 -22 12 -48 60 -42 78 7 19 56 14
108 -13 37 -18 51 -21 57 -12 12 19 10 33 -14 79 -20 37 -23 60 -25 172 -1 98
-5 133 -16 144 -13 13 -16 12 -25 -4z"/>
<path d="M7462 6898 c-11 -18 -23 -43 -27 -56 -7 -23 -7 -23 -27 -5 -19 17
-20 17 -33 0 -11 -15 -9 -29 12 -90 28 -81 51 -113 67 -97 6 6 16 51 22 100 6
49 17 96 24 105 11 13 18 7 51 -47 22 -35 39 -68 39 -74 0 -6 9 -19 20 -29 26
-24 35 -15 70 72 39 98 79 99 80 3 0 -58 29 -140 48 -140 4 0 13 4 20 9 11 7
11 25 -4 102 -18 101 -34 142 -61 158 -26 14 -69 -15 -106 -72 l-31 -48 -15
28 c-7 15 -30 47 -49 71 -43 52 -72 55 -100 10z"/>
<path d="M6994 6876 c-30 -30 -34 -40 -34 -89 0 -47 5 -62 33 -98 27 -36 41
-45 88 -57 70 -17 124 -5 174 39 28 25 35 38 35 68 0 83 -107 171 -208 171
-48 0 -58 -4 -88 -34z m149 -45 c82 -19 115 -90 58 -124 -33 -19 -121 -35
-121 -21 0 5 -12 22 -26 37 -34 37 -45 103 -18 110 31 8 67 7 107 -2z"/>
<path d="M6312 6814 l-53 -54 14 -67 c25 -114 43 -147 67 -118 9 11 11 37 6
93 -6 69 -5 81 12 102 l20 24 35 -27 c36 -27 50 -58 62 -135 5 -33 13 -46 31
-54 58 -27 55 37 -7 172 -19 42 -41 73 -62 87 -57 38 -67 36 -125 -23z"/>
<path d="M5969 6785 c-88 -46 -124 -117 -98 -190 40 -109 163 -114 225 -9 l27
45 16 -28 c10 -15 20 -36 24 -45 10 -28 56 -53 76 -41 26 17 21 66 -10 80 -14
7 -38 36 -54 65 -15 29 -37 66 -48 81 -18 26 -21 27 -35 13 -10 -9 -17 -40
-20 -78 -5 -71 -26 -97 -79 -98 -52 0 -63 8 -63 50 0 43 13 57 88 94 51 26 58
38 46 70 -9 22 -41 19 -95 -9z"/>
<path d="M5572 6748 c-16 -16 -41 -53 -55 -82 l-27 -53 19 -74 c26 -99 48
-149 66 -149 25 0 29 29 11 84 -9 29 -16 67 -16 85 0 40 19 122 33 139 12 15
65 12 159 -9 32 -7 60 -10 64 -6 11 10 -14 34 -49 47 -18 6 -44 18 -59 26 -14
8 -47 16 -72 18 -41 4 -49 1 -74 -26z"/>
<path d="M13587 6595 c-21 -20 -21 -28 -2 -185 17 -151 36 -218 70 -250 34
-32 53 -15 32 27 -23 43 -39 140 -53 311 -4 45 -12 89 -19 98 -10 15 -13 15
-28 -1z"/>
<path d="M13001 6536 c-7 -8 -8 -17 -3 -20 6 -3 18 -38 27 -77 l17 -70 -26
-28 c-14 -15 -26 -30 -26 -34 0 -3 15 -9 34 -12 40 -8 46 -22 46 -117 0 -71
13 -113 37 -122 30 -12 34 7 31 126 l-3 121 55 14 c49 12 69 25 70 45 0 10
-52 14 -83 6 -29 -7 -77 8 -77 24 0 22 -65 158 -76 158 -6 0 -17 -6 -23 -14z"/>
<path d="M8247 6386 c-13 -13 -16 -42 -16 -153 -1 -148 8 -197 42 -214 30 -17
50 12 34 50 -6 15 -11 85 -11 163 -1 112 -4 140 -17 153 -15 15 -18 15 -32 1z"/>
<path d="M12776 6346 c-30 -28 -36 -40 -36 -74 0 -37 5 -45 75 -109 41 -38 75
-74 75 -80 0 -19 -100 -24 -138 -6 -33 16 -36 16 -51 -4 -25 -30 -109 -37
-149 -12 -41 24 -40 43 1 60 54 22 127 79 127 100 0 11 -17 29 -41 45 -68 42
-129 21 -170 -58 -10 -21 -19 -50 -19 -66 0 -32 -19 -55 -37 -44 -6 4 -26 36
-44 72 -58 115 -70 115 -124 6 -53 -107 -69 -102 -83 26 -6 54 -10 63 -27 63
-16 0 -21 -9 -26 -50 -4 -27 -2 -67 3 -87 10 -33 8 -42 -19 -85 -16 -26 -36
-68 -43 -93 -7 -25 -17 -58 -24 -75 l-11 -30 -7 45 c-4 25 -12 80 -18 124 -11
76 -37 147 -61 162 -16 10 -48 -27 -88 -103 -41 -76 -64 -94 -55 -41 12 65 85
171 130 188 16 7 20 15 17 34 -17 89 -182 -91 -199 -218 -6 -40 -4 -50 16 -71
43 -46 73 -31 133 63 15 23 31 42 37 42 5 0 12 -21 15 -47 4 -27 13 -57 20
-68 6 -11 15 -51 19 -90 11 -95 11 -95 2 -138 l-7 -38 33 3 c29 3 35 8 45 43
7 22 26 85 43 140 16 55 30 107 30 115 0 9 7 25 15 37 13 18 20 20 45 13 25
-7 35 -4 59 16 16 13 32 38 36 54 6 26 31 58 39 49 2 -2 15 -25 31 -52 36 -62
60 -76 88 -48 l21 20 37 -34 c66 -59 147 -64 192 -12 13 15 20 18 26 9 12 -20
63 -30 132 -26 81 5 126 20 134 45 7 22 -19 59 -42 59 -7 0 -13 3 -13 8 0 4
-27 30 -60 57 -69 58 -78 90 -31 106 49 17 49 54 0 80 -14 7 -26 1 -53 -25z
m-176 -123 c-1 -20 -60 -63 -85 -63 -13 0 -2 24 20 45 22 23 65 35 65 18z"/>
<path d="M13335 6326 c-41 -62 -24 -133 44 -184 39 -28 39 -35 1 -62 -25 -18
-34 -19 -45 -10 -12 10 -16 9 -21 -6 -4 -11 -9 -22 -11 -27 -2 -4 8 -12 22
-17 58 -22 146 30 157 93 5 25 1 30 -33 44 -45 18 -79 56 -79 88 0 26 14 40
53 49 52 12 26 56 -35 56 -29 0 -41 -6 -53 -24z"/>
<path d="M7093 6328 c-6 -7 -11 -51 -12 -98 -1 -87 -4 -95 -43 -114 -15 -7
-23 -20 -23 -36 0 -22 5 -25 35 -25 35 -1 35 -1 38 -50 5 -97 23 -183 39 -190
29 -10 38 13 34 83 -2 37 -4 92 -5 122 l-1 55 58 -1 c47 -1 57 2 57 15 0 21
-43 47 -92 56 l-36 7 -7 78 c-8 85 -23 122 -42 98z"/>
<path d="M11267 6266 c-66 -24 -97 -65 -122 -165 -19 -72 -8 -156 24 -183 31
-26 40 -4 34 81 -4 58 -1 91 11 129 17 50 63 102 91 102 7 0 18 7 26 16 10 13
10 17 -2 25 -17 11 -16 11 -62 -5z"/>
<path d="M11458 6247 c-36 -30 -45 -53 -53 -124 -6 -51 -4 -66 11 -90 11 -15
24 -37 30 -48 15 -28 72 -55 114 -55 22 1 45 9 63 25 41 36 33 44 -27 27 -46
-13 -58 -13 -85 -1 -17 8 -31 19 -31 26 0 6 -3 18 -6 26 -3 9 14 29 48 56 80
63 98 81 105 109 15 63 -109 99 -169 49z m112 -40 c0 -20 -89 -97 -112 -97
-18 0 -6 51 18 79 19 24 34 31 60 31 21 0 34 -5 34 -13z"/>
<path d="M6163 6228 c-6 -8 -7 -76 -3 -178 6 -152 9 -171 36 -235 19 -46 36
-71 48 -73 30 -6 35 17 14 65 -22 51 -33 121 -42 273 -9 134 -26 183 -53 148z"/>
<path d="M7387 6223 c-14 -13 -7 -42 12 -48 26 -8 53 5 47 22 -3 8 -6 19 -6
24 0 10 -43 12 -53 2z"/>
<path d="M7629 6093 c-25 -28 -41 -88 -38 -145 2 -49 1 -53 -19 -51 -30 4 -28
-22 3 -43 31 -20 137 -14 185 11 34 18 70 69 70 100 0 82 -155 181 -201 128z
m112 -68 c19 -11 33 -65 21 -81 -14 -20 -84 -56 -92 -48 -19 19 -28 91 -15
122 12 26 17 29 42 23 15 -3 35 -10 44 -16z"/>
<path d="M7349 6074 c-12 -15 -2 -60 31 -139 5 -11 16 -44 25 -72 17 -54 39
-69 50 -33 7 22 -26 163 -52 223 -17 40 -33 46 -54 21z"/>
<path d="M6878 6061 c-53 -11 -83 -34 -107 -84 -26 -53 -26 -74 -2 -110 29
-45 59 -60 130 -64 71 -5 141 15 141 41 0 17 -33 27 -51 15 -20 -12 -85 -1
-130 21 -28 15 -39 27 -39 43 0 30 32 64 69 72 41 9 68 40 51 60 -7 8 -15 14
-19 14 -3 -1 -22 -5 -43 -8z"/>
<path d="M6481 6028 c-20 -9 -58 -42 -84 -73 l-49 -56 17 -37 c38 -82 109
-128 186 -119 52 6 149 60 149 83 0 9 -5 12 -11 9 -23 -15 -132 -35 -157 -29
-54 12 -60 15 -65 34 -4 15 2 20 27 26 66 14 148 72 158 111 3 12 0 31 -8 41
-19 28 -113 33 -163 10z m56 -73 c3 -11 -65 -41 -74 -32 -2 3 5 15 17 27 21
21 50 24 57 5z"/>
<path d="M13772 6038 c-5 -7 -12 -23 -16 -34 -5 -17 -2 -23 16 -28 13 -3 26
-6 29 -6 10 0 25 44 21 63 -4 20 -35 23 -50 5z"/>
<path d="M7947 5999 c-27 -27 -31 -29 -47 -14 -15 14 -18 14 -30 0 -23 -27 18
-170 52 -181 33 -10 40 5 33 66 -6 51 -4 61 14 79 12 12 27 21 34 21 20 0 62
-49 90 -105 28 -56 60 -90 76 -80 17 10 13 30 -20 98 -61 129 -142 175 -202
116z"/>
<path d="M5500 6012 c-20 -6 -26 -15 -28 -45 -3 -33 3 -43 53 -96 31 -32 76
-69 100 -82 25 -13 45 -29 45 -35 0 -6 -21 -17 -47 -24 -149 -38 -138 -33
-138 -65 0 -41 28 -43 132 -10 143 47 167 86 91 146 -24 19 -60 43 -82 54 -43
22 -71 57 -63 79 4 10 19 12 60 9 50 -4 55 -3 60 19 4 13 1 28 -6 35 -15 14
-142 25 -177 15z"/>
<path d="M5870 5978 c-56 -38 -75 -130 -44 -208 20 -48 63 -74 142 -85 47 -6
57 -4 95 20 61 40 87 66 87 87 0 25 -7 23 -51 -17 -40 -36 -72 -42 -127 -27
-21 7 -19 10 33 62 60 58 65 81 28 123 -13 14 -112 67 -126 67 -2 0 -19 -10
-37 -22z m91 -79 c29 -21 38 -39 18 -39 -6 0 -22 -9 -36 -20 -46 -36 -83 -23
-83 30 0 20 35 50 58 50 8 0 27 -9 43 -21z"/>
<path d="M8312 5878 c-25 -31 -18 -76 14 -88 55 -21 86 33 44 78 -23 25 -43
28 -58 10z"/>
<path d="M12135 5600 c-3 -5 -5 -49 -5 -97 2 -171 -27 -251 -109 -300 -50 -29
-148 -42 -247 -31 -38 4 -109 10 -159 13 -49 2 -137 8 -195 11 -142 9 -143 9
-245 -6 -62 -9 -217 -14 -500 -15 -390 -2 -572 -12 -615 -35 -33 -18 -42 -63
-36 -176 3 -74 10 -112 20 -122 29 -30 37 -4 32 102 -5 90 -4 105 11 118 32
28 177 37 568 37 309 0 404 4 510 18 72 10 146 17 165 15 19 -1 103 -4 185 -7
83 -3 177 -10 210 -15 62 -11 181 -8 250 5 69 13 110 41 149 100 21 30 41 55
46 55 4 0 14 -13 21 -29 7 -17 31 -40 52 -52 39 -21 44 -21 326 -16 157 4 313
12 346 18 33 7 121 13 195 15 74 1 162 7 195 13 211 37 718 63 895 46 93 -9
90 -5 132 -148 10 -33 15 -38 37 -35 19 2 27 10 29 27 4 27 -54 185 -74 202
-24 20 -386 30 -579 16 -393 -28 -424 -31 -457 -48 -9 -5 -70 -9 -135 -10 -65
0 -167 -4 -228 -9 -60 -5 -175 -12 -255 -16 -345 -17 -408 -12 -430 35 -23 48
-30 85 -36 181 -3 52 -12 107 -20 122 -14 28 -38 37 -49 18z"/>
<path d="M6750 5470 c-6 -12 -8 -34 -5 -51 8 -36 -11 -151 -32 -192 -16 -32
-72 -70 -128 -87 -22 -6 -54 -18 -72 -26 -17 -8 -40 -14 -51 -14 -11 0 -64
-11 -118 -25 -113 -29 -158 -31 -275 -11 -222 37 -355 44 -694 36 -77 -2 -246
0 -375 4 -417 14 -455 -9 -455 -264 0 -102 4 -131 18 -159 32 -58 42 -26 42
127 0 218 -1 218 305 215 422 -3 540 -3 710 -1 122 2 216 -2 310 -14 228 -30
264 -34 290 -33 53 3 118 18 183 41 38 13 79 24 93 24 48 0 239 95 251 125 7
21 19 19 56 -9 43 -32 151 -51 230 -41 34 4 78 9 97 10 19 1 80 6 135 9 55 4
128 14 161 22 45 10 117 14 263 13 111 -1 203 0 206 3 3 3 38 -1 78 -8 52 -10
163 -14 397 -14 385 0 333 -1 451 6 l96 6 19 -43 c14 -33 18 -70 19 -149 0
-107 5 -130 30 -130 41 0 38 267 -3 332 -33 51 -65 66 -124 57 -63 -10 -144
-13 -319 -9 -75 1 -145 -2 -155 -7 -10 -5 -30 -8 -44 -7 -14 1 -68 5 -120 8
-52 3 -156 11 -230 17 -150 12 -469 7 -570 -9 -36 -5 -101 -13 -145 -16 -44
-3 -94 -10 -112 -15 -64 -19 -161 -23 -215 -11 -29 7 -69 17 -89 21 l-36 9 -2
88 c-3 121 -12 162 -38 179 -20 13 -23 13 -33 -7z"/>
<path d="M15150 4729 c-36 -3 -90 -11 -121 -17 -31 -6 -94 -12 -140 -13 -109
-3 -134 -16 -124 -67 4 -21 6 -84 5 -142 -2 -58 -2 -112 -1 -120 1 -8 3 -62 6
-120 2 -58 9 -121 14 -140 11 -37 20 -120 25 -230 2 -36 7 -122 11 -191 l7
-127 -28 -13 c-40 -20 -42 -43 -4 -59 18 -8 30 -20 30 -31 0 -26 19 -24 51 7
27 26 30 26 171 26 220 -1 427 -11 446 -21 18 -10 66 -16 262 -35 188 -19
1047 -29 1215 -15 161 13 196 15 365 22 74 3 160 10 190 16 53 9 140 13 545
26 319 11 451 19 553 37 77 13 89 29 66 86 -12 32 -38 134 -57 232 -2 8 -8 33
-14 55 -6 22 -16 74 -23 115 -6 41 -17 103 -24 137 -13 62 -13 92 -1 360 7
157 5 163 -60 158 -81 -8 -287 -5 -328 4 -57 13 -108 14 -367 5 -231 -8 -440
-6 -675 7 -88 4 -168 6 -177 3 -23 -7 -195 13 -273 31 -67 16 -345 20 -565 9
-180 -9 -259 -9 -420 0 -190 10 -483 13 -560 5z m720 -82 c69 -1 249 2 400 7
277 8 339 5 526 -33 23 -4 100 -9 171 -10 122 -2 171 -5 318 -18 106 -9 597
-4 692 7 67 8 114 8 175 0 96 -13 254 -16 317 -5 l44 7 -7 -168 c-4 -93 -7
-195 -6 -227 1 -69 28 -210 70 -366 16 -62 30 -129 30 -148 0 -19 5 -43 11
-54 17 -32 -5 -49 -65 -49 -28 0 -87 -4 -131 -9 -44 -6 -206 -12 -360 -16
-154 -3 -320 -10 -370 -15 -99 -11 -349 -27 -545 -35 -69 -3 -186 -10 -260
-15 -219 -16 -1105 -2 -1198 19 -122 26 -289 41 -472 41 -107 0 -206 0 -220
-1 -14 -1 -42 1 -62 5 l-36 7 -1 57 c0 31 -5 91 -10 132 -6 41 -11 105 -11
141 0 36 -3 68 -6 72 -4 3 -8 28 -9 54 -1 26 -8 100 -14 163 -6 63 -10 184
-10 268 1 176 -4 167 103 171 33 1 68 7 78 12 10 6 26 8 36 5 9 -3 37 -2 62 3
25 5 178 7 340 4 162 -3 351 -5 420 -6z"/>
<path d="M15365 4384 c-194 -20 -264 -41 -265 -80 0 -28 81 -32 138 -8 20 8
69 17 107 20 39 2 92 9 119 16 27 6 80 8 118 5 61 -5 69 -4 66 11 -9 44 -92
55 -283 36z"/>
<path d="M16642 4388 c-6 -8 -14 -62 -17 -123 -3 -60 -7 -110 -9 -113 -2 -2
-23 -6 -45 -9 -22 -3 -46 -12 -52 -20 -17 -20 18 -44 61 -41 l35 3 6 -80 c9
-107 16 -132 42 -139 12 -3 24 -2 27 2 3 4 4 51 0 105 -4 73 -2 101 8 109 7 6
43 11 80 11 65 -1 97 10 86 28 -5 10 -76 31 -114 35 -55 6 -65 13 -66 41 -5
176 -15 223 -42 191z"/>
<path d="M15423 4276 c-16 -20 -21 -54 -31 -191 -6 -91 -14 -170 -17 -176 -4
-5 -19 -9 -34 -9 -15 0 -47 -6 -72 -14 -24 -8 -56 -17 -71 -20 -31 -7 -37 -32
-12 -51 13 -9 35 -7 103 7 47 10 122 25 166 34 197 39 290 90 143 79 -40 -3
-90 -8 -111 -11 l-39 -5 6 98 c6 96 9 231 7 266 -1 24 -16 21 -38 -7z"/>
<path d="M17819 4187 c-66 -22 -118 -80 -139 -155 -20 -77 23 -114 136 -114
62 -1 119 23 111 46 -2 6 -40 14 -86 17 -45 4 -87 11 -92 16 -18 18 37 106 86
137 28 17 45 35 43 44 -4 21 -16 23 -59 9z"/>
<path d="M16290 4172 c-14 -1 -44 -10 -67 -18 -36 -13 -43 -20 -43 -42 0 -15
4 -32 8 -37 13 -19 126 -112 151 -125 43 -22 -1 -43 -146 -67 -43 -7 -41 -15
7 -36 48 -20 91 -21 143 -3 52 19 77 44 77 76 0 22 -12 37 -55 69 -30 23 -55
46 -55 52 0 5 -12 14 -26 19 -16 7 -24 16 -22 28 2 13 15 18 58 20 62 4 82 16
78 46 -2 17 -10 21 -43 21 -22 0 -51 -1 -65 -3z"/>
<path d="M18082 4151 c-41 -21 -98 -92 -107 -132 -7 -33 2 -87 18 -107 29 -36
85 -52 166 -48 80 4 148 31 181 71 20 25 -17 30 -70 11 -57 -20 -183 -24 -205
-6 -27 23 -16 38 39 54 30 9 59 16 66 16 19 0 66 31 79 52 15 25 -2 84 -29 98
-29 16 -102 11 -138 -9z m103 -51 c8 -13 -33 -36 -77 -44 -43 -8 -49 4 -15 27
37 24 82 33 92 17z"/>
<path d="M17415 4151 c-48 -20 -65 -61 -81 -188 -4 -34 -1 -44 14 -52 31 -16
45 3 48 65 4 64 28 109 60 109 29 0 66 -83 69 -153 1 -45 5 -58 19 -60 46 -9
54 55 20 158 -13 42 -35 87 -47 98 -26 25 -73 35 -102 23z"/>
<path d="M15848 4141 c-16 -3 -45 -26 -68 -55 -39 -47 -40 -51 -40 -122 0 -60
3 -75 18 -83 29 -16 43 2 52 71 5 36 13 74 16 84 28 79 105 70 179 -21 35 -42
37 -49 33 -98 -3 -37 0 -57 10 -66 34 -32 56 52 33 124 -43 131 -127 191 -233
166z"/>
<path d="M17022 4119 c-56 -32 -139 -110 -152 -144 -8 -21 -2 -48 16 -78 18
-30 118 -35 178 -9 40 18 50 29 68 72 21 52 46 65 55 30 13 -51 60 -125 81
-128 29 -4 28 8 -9 87 -69 149 -84 173 -111 187 -40 21 -67 17 -126 -17z m82
-81 c-10 -62 -29 -94 -65 -107 -54 -19 -109 -12 -109 14 0 35 120 135 162 135
16 0 17 -6 12 -42z"/>
<path d="M14181 4430 c-36 -5 -53 -16 -82 -49 -47 -53 -80 -120 -87 -176 -6
-54 22 -137 60 -182 16 -20 25 -39 21 -49 -4 -10 8 -28 32 -51 36 -33 40 -35
94 -31 157 13 273 113 298 255 12 65 0 125 -34 168 -34 44 -121 97 -185 113
-51 13 -51 13 -117 2z m164 -99 c45 -20 102 -79 111 -115 9 -37 -21 -128 -53
-158 -53 -49 -90 -61 -142 -48 -79 20 -100 31 -135 71 -74 81 -51 193 52 257
42 25 96 23 167 -7z"/>
<path d="M10188 4397 c-88 -43 -122 -76 -152 -153 -30 -74 -35 -173 -12 -228
45 -107 201 -171 288 -118 18 11 64 27 101 35 148 33 170 86 118 275 -25 91
-63 148 -124 186 -72 44 -133 45 -219 3z m222 -102 c45 -43 78 -126 82 -200 2
-49 2 -50 -37 -69 -31 -15 -62 -20 -135 -20 -91 -1 -95 -2 -98 -23 -4 -31 -20
-29 -75 8 -55 36 -73 83 -63 164 7 58 27 89 84 128 101 68 180 72 242 12z"/>
<path d="M11655 4421 c-81 -13 -165 -87 -186 -163 -15 -57 -6 -116 31 -188 42
-84 80 -106 192 -115 105 -9 145 3 204 57 73 68 81 155 23 269 -63 125 -132
162 -264 140z m117 -81 c60 -17 128 -125 128 -205 0 -57 -90 -121 -159 -112
-71 9 -141 45 -141 73 0 7 -12 14 -27 16 -25 3 -29 9 -37 50 -13 68 7 114 68
156 52 35 99 41 168 22z"/>
<path d="M12887 4418 c-80 -17 -142 -96 -152 -194 -5 -50 25 -194 51 -246 22
-43 87 -76 144 -73 94 5 206 75 255 160 49 83 40 173 -25 255 -54 69 -187 116
-273 98z m168 -98 c36 -19 84 -85 95 -134 7 -32 4 -42 -23 -83 -41 -60 -66
-77 -156 -108 -82 -29 -122 -27 -83 5 35 28 29 56 -14 64 -30 6 -38 14 -55 52
-35 83 -17 173 41 205 42 23 147 22 195 -1z"/>
<path d="M10985 4415 c-5 -2 -26 -6 -46 -9 -47 -8 -81 -43 -119 -120 -40 -82
-52 -154 -33 -209 17 -50 71 -102 132 -129 42 -18 49 -18 103 -4 69 17 106 42
170 110 60 63 82 118 76 188 -5 45 -11 57 -50 94 -32 30 -62 47 -99 58 -62 17
-120 26 -134 21z m153 -111 c28 -14 53 -33 56 -42 19 -67 17 -77 -19 -123 -40
-52 -104 -100 -156 -119 -34 -12 -41 -11 -85 12 -54 27 -84 72 -84 124 0 50
50 136 90 156 53 27 135 23 198 -8z"/>
<path d="M12273 4401 c-48 -8 -65 -21 -102 -75 -39 -57 -55 -125 -47 -192 8
-73 26 -104 77 -140 38 -26 50 -29 113 -27 77 2 132 18 193 56 31 20 42 35 56
81 26 82 12 145 -46 208 -72 76 -151 105 -244 89z m113 -86 c77 -23 124 -84
124 -158 -1 -42 -29 -74 -82 -93 -49 -17 -131 -20 -169 -5 -68 26 -91 139 -42
212 40 61 79 71 169 44z"/>
<path d="M13545 4395 c-22 -8 -41 -15 -42 -15 -1 0 -16 -20 -33 -45 -45 -65
-63 -134 -56 -217 8 -112 61 -173 163 -184 78 -10 128 10 198 77 109 104 113
193 12 300 -76 82 -165 113 -242 84z m109 -79 c68 -28 136 -106 136 -157 0
-34 -36 -83 -77 -105 -28 -15 -54 -20 -100 -19 -73 3 -86 11 -114 74 -33 74
-12 152 54 199 37 26 55 27 101 8z"/>
<path d="M1688 4395 c-2 -2 -163 -7 -358 -10 -195 -3 -411 -8 -480 -10 -69 -2
-150 -4 -180 -5 -80 -2 -109 -9 -120 -30 -6 -12 -6 -80 1 -197 5 -98 12 -230
14 -293 2 -63 9 -201 16 -307 10 -151 10 -230 1 -370 -12 -169 -18 -905 -8
-921 2 -4 6 -129 7 -277 1 -149 7 -287 12 -308 7 -29 6 -48 -8 -83 -25 -65
-16 -78 48 -70 143 18 207 18 324 -3 214 -37 433 -46 648 -26 77 7 221 16 319
19 99 4 182 8 185 10 4 3 78 7 166 11 88 4 162 9 165 11 3 1 42 6 85 9 44 4
145 16 225 28 92 13 203 21 305 22 88 1 187 6 220 13 99 19 229 24 317 12 46
-7 97 -13 113 -15 17 -2 50 -6 75 -9 25 -3 125 -8 222 -12 148 -5 190 -3 250
11 119 29 121 30 115 73 -3 20 -14 98 -26 172 -11 74 -25 171 -30 215 -16 121
-29 211 -45 310 -8 50 -17 170 -20 269 -4 98 -9 182 -11 187 -13 20 0 772 15
899 12 102 14 407 4 503 -4 32 -12 60 -18 62 -111 29 -291 44 -581 49 -319 6
-484 12 -595 20 -47 4 -146 9 -220 11 -74 3 -169 9 -210 15 -41 6 -120 10
-175 9 -125 -1 -206 0 -517 5 -135 3 -248 3 -250 1z m930 -108 c7 -5 74 -10
150 -12 75 -3 182 -7 237 -10 189 -10 351 -16 560 -20 423 -8 596 -22 624 -50
11 -11 7 -334 -5 -440 -23 -198 -32 -744 -15 -915 6 -58 13 -190 15 -295 3
-139 10 -217 25 -290 21 -107 81 -508 81 -549 0 -19 -9 -27 -42 -41 -37 -15
-66 -16 -218 -10 -246 9 -316 14 -345 25 -15 6 -47 10 -73 11 -26 0 -65 3 -86
7 -21 4 -71 4 -110 -1 -39 -4 -174 -11 -301 -16 -126 -6 -266 -14 -310 -20
-44 -5 -107 -12 -139 -16 -32 -3 -62 -7 -65 -9 -3 -2 -40 -7 -81 -10 -41 -3
-100 -8 -130 -11 -30 -3 -122 -7 -205 -10 -82 -3 -163 -8 -180 -10 -30 -5
-305 -21 -520 -31 -60 -2 -128 -6 -150 -9 -22 -2 -92 2 -155 10 -63 8 -144 17
-180 20 -35 3 -82 10 -105 16 -36 10 -140 13 -205 7 -21 -3 -25 2 -31 37 -17
97 -32 1214 -18 1345 11 102 15 451 7 600 -4 74 -12 241 -18 371 -5 130 -13
250 -16 268 -5 22 -3 36 6 41 7 4 85 8 174 10 88 1 190 5 226 8 93 10 1583 9
1598 -1z"/>
<path d="M2771 3929 c-30 -32 -34 -73 -28 -256 l5 -163 -47 0 c-64 0 -125 -31
-157 -80 -23 -34 -26 -48 -22 -99 6 -86 39 -118 135 -128 71 -8 154 51 189
136 24 58 5 53 -64 -15 l-66 -66 -50 5 c-36 3 -55 11 -68 27 -24 30 -23 81 3
114 32 41 61 48 136 35 92 -16 96 -10 76 101 -11 64 -13 116 -8 210 11 190 11
193 -2 197 -6 2 -21 -6 -32 -18z"/>
<path d="M996 3797 c-18 -13 -19 -19 -6 -122 8 -74 10 -156 5 -256 -9 -187 -6
-194 74 -185 31 3 103 10 161 16 182 17 205 20 218 33 10 10 9 17 -2 32 -13
18 -26 20 -113 20 -54 -1 -134 -5 -179 -9 -65 -7 -83 -6 -90 5 -5 8 -9 66 -9
129 -1 261 -4 307 -22 329 -16 19 -20 20 -37 8z"/>
<path d="M2205 3598 c-104 -38 -255 -180 -255 -240 0 -30 46 -74 88 -85 51
-12 140 56 191 145 9 16 11 15 25 -3 8 -11 32 -51 52 -90 20 -38 41 -76 47
-83 19 -23 62 -41 77 -32 12 8 11 14 -7 37 -13 15 -46 69 -74 118 -29 50 -63
105 -77 123 -19 25 -22 36 -14 44 17 17 15 65 -4 72 -9 3 -16 6 -17 5 -1 0
-15 -5 -32 -11z m-17 -125 c-19 -45 -85 -130 -105 -135 -10 -3 -29 -1 -42 3
-45 17 3 84 99 134 58 30 62 30 48 -2z"/>
<path d="M1603 3563 c-45 -45 -69 -113 -60 -170 7 -39 87 -163 125 -194 39
-30 100 -12 164 49 68 65 74 142 18 239 -41 72 -88 105 -155 111 -50 4 -54 3
-92 -35z m148 -46 c90 -60 103 -148 33 -218 -22 -21 -53 -41 -71 -45 -29 -6
-33 -4 -38 22 -4 16 -19 58 -35 94 -34 76 -31 109 12 145 37 31 56 31 99 2z"/>
<path d="M2015 2663 c-15 -15 -16 -32 -10 -142 4 -69 11 -144 16 -166 4 -22 9
-103 9 -181 0 -131 6 -164 30 -164 34 0 35 166 4 443 -8 71 -14 148 -14 172 0
50 -11 62 -35 38z"/>
<path d="M980 2608 c-50 -25 -66 -62 -32 -72 16 -5 23 -29 42 -144 12 -75 24
-166 26 -202 3 -36 6 -82 8 -103 3 -22 0 -35 -6 -31 -11 7 -48 -24 -48 -42 0
-7 14 -23 31 -35 89 -63 359 50 359 150 0 33 -48 103 -87 128 -49 31 -89 74
-75 80 32 12 98 72 129 117 71 104 1 160 -217 173 -75 4 -90 2 -130 -19z m293
-70 c27 -14 20 -35 -26 -81 -46 -47 -115 -84 -162 -89 l-30 -3 -6 71 c-4 39
-10 80 -13 92 -5 15 -2 22 11 25 27 8 205 -4 226 -15z m-55 -299 c72 -47 89
-71 73 -103 -16 -29 -77 -70 -126 -86 -22 -7 -50 -16 -63 -21 -38 -15 -72 -11
-72 7 0 13 3 14 14 5 26 -22 35 17 29 131 l-6 108 44 0 c35 0 57 -9 107 -41z"/>
<path d="M3783 2379 c-60 -23 -107 -72 -124 -129 -7 -22 -15 -40 -19 -40 -4 0
-13 18 -20 40 -9 26 -19 40 -30 40 -20 0 -32 -35 -21 -59 5 -9 13 -28 17 -42
31 -91 70 -169 86 -169 20 0 25 17 31 110 9 138 77 206 213 214 59 3 66 17 19
39 -46 22 -87 21 -152 -4z"/>
<path d="M1671 2379 c-55 -9 -161 -56 -161 -71 0 -4 -6 -8 -13 -8 -38 0 -100
-109 -101 -177 -1 -60 25 -97 82 -113 81 -22 186 40 232 137 25 54 30 51 82
-42 23 -41 41 -61 56 -63 16 -3 22 2 22 17 0 11 -5 23 -10 26 -12 7 -70 130
-89 186 -8 25 -9 44 -2 62 8 20 6 28 -8 41 -10 9 -22 15 -27 15 -5 -1 -33 -5
-63 -10z m32 -71 c7 -20 -22 -120 -43 -150 -11 -15 -20 -31 -20 -35 0 -15 -98
-73 -123 -73 -53 0 -81 61 -58 123 12 32 84 83 164 118 74 32 74 32 80 17z"/>
<path d="M3004 2341 c-133 -53 -193 -146 -155 -239 15 -35 35 -44 101 -47 68
-3 115 13 163 55 l43 38 19 -35 c43 -79 147 -106 240 -62 43 20 105 79 105 99
0 17 -38 11 -52 -7 -16 -22 -81 -53 -109 -53 -11 0 -40 5 -65 11 -49 13 -62
43 -21 54 75 20 101 31 127 56 66 64 73 103 23 130 -38 20 -152 17 -187 -6
-27 -18 -67 -86 -79 -135 -5 -18 -22 -32 -67 -52 -143 -66 -237 -9 -140 84 25
23 51 38 65 38 14 0 25 5 25 10 0 6 7 10 15 10 14 0 43 46 34 54 -14 13 -50
11 -85 -3z m357 -51 c10 0 19 -6 19 -13 0 -15 -41 -40 -98 -60 l-42 -15 0 27
c0 33 57 75 88 65 8 -2 22 -4 33 -4z"/>
<path d="M2303 2325 c-112 -56 -207 -178 -184 -238 19 -50 103 -72 169 -44 39
16 108 80 117 107 10 33 21 23 45 -40 22 -58 52 -90 86 -90 20 0 19 3 -43 150
-31 74 -55 116 -65 118 -13 2 -28 -19 -58 -80 -39 -80 -43 -85 -88 -101 -71
-26 -92 -23 -92 12 0 39 38 78 130 131 41 24 77 45 79 46 2 2 1 15 -3 29 -8
32 -28 32 -93 0z"/>
<path d="M2618 2282 c-28 -15 -56 -35 -62 -44 -15 -25 9 -179 31 -195 29 -22
43 2 43 77 0 164 106 123 126 -48 12 -106 54 -109 54 -4 0 82 -18 137 -61 186
-50 56 -68 60 -131 28z"/>
<path d="M8683 4333 c-7 -2 -13 -12 -13 -21 0 -19 21 -80 33 -100 5 -7 11 -37
14 -66 l6 -54 -44 -6 c-24 -4 -163 -5 -309 -4 -177 2 -295 -2 -355 -11 -49 -7
-112 -14 -140 -16 -27 -2 -84 -6 -125 -9 -41 -4 -194 -8 -340 -11 -293 -6
-576 -15 -660 -21 -30 -2 -291 -5 -580 -7 -345 -2 -563 -8 -635 -16 -101 -12
-368 -11 -570 3 -33 2 -130 5 -215 7 -149 4 -155 3 -155 -16 0 -33 46 -45 215
-55 89 -6 176 -13 193 -16 43 -7 407 -8 487 -1 36 4 107 11 159 17 52 6 158
10 235 8 272 -4 782 3 886 13 58 5 287 14 510 19 223 6 414 12 426 14 11 2 67
7 125 11 57 3 156 13 219 20 115 14 685 13 698 0 4 -3 7 -59 7 -123 0 -98 3
-117 16 -120 14 -3 34 32 53 90 3 11 24 23 52 30 29 8 53 22 65 39 10 14 71
61 136 104 158 104 173 124 106 145 -21 7 -45 21 -54 32 -12 15 -34 22 -90 28
-80 9 -205 44 -230 66 -8 8 -30 14 -47 14 -17 0 -34 5 -37 10 -7 11 -22 12
-42 3z"/>
<path d="M16195 3150 c-49 -4 -115 -13 -145 -19 -30 -7 -122 -14 -205 -17
-176 -5 -362 -27 -424 -49 -24 -8 -60 -15 -81 -15 -33 0 -224 -24 -274 -35
-12 -2 -96 -7 -189 -9 -92 -3 -176 -10 -187 -16 -27 -15 -34 -51 -20 -109 6
-28 9 -58 6 -69 -4 -10 3 -63 14 -116 11 -54 20 -126 20 -160 0 -33 6 -95 14
-136 21 -117 39 -314 32 -352 -3 -19 -17 -45 -31 -58 -14 -13 -25 -30 -25 -37
0 -21 46 -34 76 -23 37 14 125 12 202 -5 37 -8 109 -19 161 -25 51 -6 102 -15
113 -21 11 -6 26 -8 33 -5 32 12 501 1 640 -15 50 -6 131 -12 180 -13 50 -2
159 -7 243 -11 152 -7 278 2 397 28 30 6 188 12 390 13 199 1 384 7 445 15 58
7 137 13 175 15 39 1 106 5 150 9 160 13 252 13 340 0 50 -7 124 -16 165 -19
123 -9 115 -34 116 364 0 184 5 405 11 490 10 149 6 331 -9 345 -4 4 -60 9
-125 11 -65 2 -157 8 -205 13 -85 9 -252 7 -378 -5 -137 -12 -358 -19 -415
-12 -33 5 -96 10 -140 12 -44 3 -145 10 -225 16 -80 6 -257 13 -395 15 -137 2
-275 6 -305 8 -30 2 -95 1 -145 -3z m820 -99 c105 -6 231 -15 280 -20 143 -14
324 -13 447 3 62 8 181 18 263 20 165 6 442 -7 456 -21 5 -5 10 -65 10 -134 2
-196 -11 -913 -16 -928 -6 -16 -74 -12 -215 14 -91 17 -252 16 -430 -1 -304
-29 -382 -33 -590 -32 -349 2 -354 2 -545 -26 -110 -16 -724 -10 -815 8 -68
14 -99 15 -425 20 -184 3 -377 22 -465 45 -19 5 -63 12 -96 16 l-62 7 -1 86
c-1 48 -3 94 -5 102 -5 25 -14 100 -27 213 -7 59 -16 110 -20 113 -5 2 -4 15
1 28 5 13 7 26 4 28 -2 3 -11 67 -19 144 -8 76 -17 149 -20 161 -7 29 -1 31
220 42 99 5 194 12 210 14 17 3 68 9 115 12 47 4 123 16 170 26 47 11 186 26
315 35 127 8 275 21 330 28 123 15 658 13 930 -3z"/>
<path d="M15295 2805 c-151 -19 -207 -33 -232 -57 l-24 -22 23 -12 c16 -8 42
-9 83 -4 168 22 168 22 162 6 -4 -9 -9 -89 -12 -178 -4 -90 -9 -166 -11 -169
-2 -4 -39 -10 -81 -14 -79 -7 -103 -17 -103 -41 0 -30 68 -28 320 9 91 13 110
20 110 43 0 11 -15 13 -80 10 -44 -2 -83 0 -85 5 -7 10 -8 350 -1 356 3 3 25
8 49 10 32 4 52 0 71 -12 32 -21 41 -15 32 20 -5 18 -20 32 -49 45 -48 22 -39
22 -172 5z"/>
<path d="M16416 2762 c-3 -5 1 -33 9 -63 8 -30 15 -80 15 -111 l0 -58 -44 0
c-27 0 -48 -6 -56 -15 -17 -21 -4 -32 44 -39 21 -4 42 -8 46 -11 3 -2 3 -34
-2 -71 -11 -80 -5 -114 21 -114 29 0 39 20 46 96 4 40 11 77 15 84 4 6 27 16
51 21 45 10 69 25 69 41 0 6 -10 8 -23 4 -13 -3 -40 -1 -60 5 -40 11 -40 10
-56 122 -6 38 -17 80 -26 93 -15 24 -39 31 -49 16z"/>
<path d="M17782 2610 c-66 -40 -105 -150 -76 -218 21 -51 51 -81 109 -108 59
-28 104 -30 168 -8 43 15 117 80 117 104 0 18 -33 10 -74 -17 -35 -25 -48 -28
-117 -28 -72 0 -80 2 -108 29 -17 17 -31 35 -31 42 0 7 23 17 53 23 28 6 75
22 104 35 86 40 93 84 21 137 -50 36 -116 40 -166 9z m135 -75 c-4 -10 -137
-48 -145 -40 -2 2 5 17 17 34 16 22 31 31 59 33 39 3 74 -10 69 -27z"/>
<path d="M15684 2585 c-72 -87 -73 -89 -64 -131 5 -21 10 -65 10 -96 0 -50 3
-58 19 -58 31 0 39 21 43 110 4 97 22 143 57 148 45 7 68 -8 111 -70 40 -58
44 -69 48 -141 4 -73 6 -79 33 -93 16 -8 45 -26 66 -40 45 -30 86 -28 171 11
47 22 52 27 52 57 0 40 -23 76 -75 120 -107 89 -106 98 10 106 80 5 99 17 75
47 -9 11 -33 15 -84 15 -99 0 -142 -14 -154 -49 -12 -34 4 -56 83 -117 67 -51
95 -80 95 -98 0 -19 -42 -42 -95 -50 -33 -6 -46 -3 -67 13 -14 12 -32 21 -40
21 -10 0 -14 14 -15 48 -2 90 -80 223 -155 262 -57 30 -91 26 -124 -15z"/>
<path d="M17545 2591 c-78 -19 -134 -72 -169 -157 -18 -43 -18 -49 -3 -73 8
-14 26 -34 40 -44 48 -37 168 -26 218 19 22 20 26 59 6 51 -8 -3 -48 -11 -90
-18 -62 -10 -78 -10 -91 0 -22 18 -20 35 7 81 21 38 53 59 130 89 25 10 40 51
18 51 -5 0 -15 2 -23 4 -7 2 -26 1 -43 -3z"/>
<path d="M16830 2561 c-45 -14 -105 -49 -157 -90 -88 -69 -91 -142 -7 -177 68
-28 149 10 205 97 18 27 36 46 39 42 4 -5 14 -29 24 -55 23 -63 52 -98 82 -98
29 0 31 20 6 44 -11 9 -24 35 -31 59 -7 23 -23 74 -35 112 l-23 70 -39 2 c-21
1 -50 -2 -64 -6z m30 -66 c0 -3 -11 -28 -25 -54 -32 -65 -115 -115 -160 -97
-37 14 33 92 121 136 39 19 64 25 64 15z"/>
<path d="M17164 2559 c-11 -6 -28 -23 -37 -39 -10 -16 -27 -30 -40 -32 -20 -3
-22 -8 -20 -53 4 -77 23 -156 39 -162 30 -11 54 27 54 86 1 64 13 128 29 144
8 8 19 7 38 -5 29 -18 72 -112 72 -161 1 -39 18 -67 41 -67 15 0 20 7 20 28
-1 68 -41 178 -87 240 -26 34 -65 42 -109 21z"/>
<path d="M4687 2957 c-38 -8 -62 -18 -69 -31 -15 -28 -1 -32 98 -26 99 6 284
-14 854 -91 41 -5 136 -14 210 -19 204 -15 500 -38 635 -50 66 -7 197 -11 290
-10 314 2 419 2 675 -4 412 -8 748 -22 890 -36 52 -5 136 -12 185 -15 474 -29
591 -37 665 -45 47 -5 153 -14 235 -19 134 -9 245 -20 385 -37 24 -3 484 -7
1022 -9 538 -2 986 -6 997 -10 15 -5 20 -19 26 -76 7 -67 6 -72 -19 -98 -37
-39 -33 -51 16 -51 52 0 83 10 235 76 126 55 188 77 262 95 24 6 55 22 69 36
l25 25 -24 19 c-13 10 -29 19 -36 19 -6 0 -56 22 -111 50 -55 28 -103 50 -107
50 -4 0 -40 16 -81 35 -40 19 -83 35 -95 35 -12 0 -37 9 -55 21 -19 11 -44 19
-56 17 -22 -3 -23 -8 -28 -103 l-5 -100 -250 1 c-137 0 -351 4 -475 7 -124 4
-344 7 -490 6 -146 0 -341 -1 -435 -1 -212 0 -406 9 -555 27 -63 8 -140 14
-170 14 -56 1 -173 11 -335 30 -49 6 -128 12 -175 15 -246 14 -705 47 -775 57
-44 6 -181 13 -305 15 -124 2 -333 6 -465 10 -285 8 -351 9 -555 5 -136 -3
-290 3 -400 15 -19 2 -73 8 -120 13 -47 5 -131 10 -186 10 -56 1 -139 8 -185
17 -45 8 -98 14 -118 13 -20 -2 -70 0 -111 4 -41 4 -106 9 -145 12 -70 5 -166
18 -260 35 -27 5 -99 14 -159 20 -60 6 -112 13 -116 15 -3 2 -49 6 -101 9 -52
4 -105 8 -119 10 -14 2 -51 -1 -83 -7z"/>
<path d="M13350 2745 c-14 -8 -39 -14 -56 -15 -42 0 -106 -48 -129 -96 -10
-22 -21 -64 -23 -95 -5 -69 27 -139 94 -204 46 -43 46 -43 139 -50 191 -15
297 55 299 196 1 74 -59 198 -110 228 -69 41 -174 58 -214 36z m166 -89 c17
-9 38 -24 46 -33 23 -27 49 -102 51 -146 1 -34 -4 -44 -33 -69 -46 -37 -100
-51 -178 -45 -51 4 -69 10 -91 31 -15 14 -37 26 -49 26 -35 0 -59 65 -53 146
5 86 201 143 307 90z"/>
<path d="M13958 2682 c-100 -112 -127 -221 -77 -307 27 -47 39 -57 99 -86 62
-30 148 -30 223 0 45 18 68 35 107 82 44 52 50 66 50 105 0 65 -20 103 -81
155 -93 78 -136 99 -211 99 l-66 0 -44 -48z m241 -79 c75 -51 91 -74 91 -128
0 -27 -7 -39 -37 -63 -87 -67 -143 -80 -226 -50 -32 12 -67 32 -77 46 -41 52
-16 148 55 210 55 49 104 45 194 -15z"/>
<path d="M4713 2083 c-38 -5 -62 -28 -45 -45 6 -6 53 -12 104 -14 94 -3 129
-8 183 -24 55 -17 299 -70 340 -74 22 -3 92 -16 155 -31 63 -15 138 -29 165
-31 28 -3 75 -9 105 -14 30 -5 98 -12 150 -15 52 -4 138 -11 190 -16 52 -5
160 -16 240 -24 80 -8 163 -19 185 -24 22 -6 72 -13 110 -16 39 -4 120 -15
180 -25 61 -10 166 -24 235 -30 69 -6 143 -15 165 -20 22 -4 74 -11 115 -15
41 -3 104 -10 140 -15 36 -5 103 -12 148 -15 46 -3 87 -7 91 -10 25 -15 654
-114 916 -144 276 -32 345 -41 390 -51 50 -11 257 -47 310 -54 22 -3 54 -7 70
-10 48 -9 91 -15 235 -31 74 -9 146 -20 160 -24 37 -14 84 -21 174 -26 121 -8
250 -27 259 -39 4 -6 5 -31 2 -56 -3 -25 -8 -67 -10 -95 -3 -27 -7 -62 -10
-76 -11 -52 53 -48 250 13 55 18 118 40 140 49 22 10 67 25 100 34 164 44 166
45 163 68 -3 23 -26 37 -178 103 -47 20 -115 56 -152 80 -37 23 -93 55 -125
70 -32 15 -70 38 -84 51 -42 39 -70 28 -87 -32 -7 -27 -14 -70 -15 -95 l-2
-45 -45 0 c-70 1 -271 23 -415 45 -71 11 -193 29 -270 40 -128 18 -189 29
-330 59 -51 10 -206 31 -395 51 -58 7 -143 19 -190 27 -47 8 -105 17 -129 19
-24 2 -71 9 -105 14 -33 6 -101 18 -151 26 -49 9 -115 19 -146 24 -31 4 -79
12 -105 18 -155 34 -211 43 -324 52 -69 6 -132 13 -140 17 -8 3 -49 9 -90 13
-107 10 -248 28 -450 57 -96 13 -195 26 -220 27 -61 5 -129 15 -165 26 -45 13
-168 30 -222 30 -26 0 -64 4 -83 10 -40 10 -228 29 -370 36 -52 3 -113 9 -135
14 -22 5 -66 12 -98 14 -32 3 -95 15 -140 25 -45 11 -104 23 -132 26 -27 4
-72 12 -100 20 -203 54 -431 89 -512 78z"/>
<path d="M17285 1666 c-84 -7 -406 -10 -510 -5 -44 2 -652 -20 -705 -26 -25
-2 -103 -7 -175 -10 -71 -4 -152 -10 -179 -14 -89 -15 -522 -12 -716 4 -145
12 -199 13 -250 4 -36 -6 -72 -14 -80 -19 -18 -9 -18 -110 1 -395 7 -104 13
-270 15 -368 2 -156 0 -182 -17 -214 -20 -40 -18 -53 12 -53 10 0 27 -4 37 -9
9 -5 46 -17 82 -26 65 -17 107 -21 335 -32 66 -2 128 -9 138 -14 9 -6 21 -8
25 -5 19 11 204 1 347 -19 58 -8 471 -5 562 5 51 5 225 12 385 14 161 3 340
10 398 15 287 28 351 32 507 31 177 -2 666 -1 793 2 41 0 101 0 133 -2 80 -4
90 10 82 110 -4 41 -10 255 -16 475 -10 445 -19 542 -53 546 -17 2 -118 5
-251 6 -66 1 -192 3 -280 4 -332 5 -523 4 -620 -5z m785 -63 c48 5 92 4 121
-3 26 -7 81 -9 123 -7 71 4 77 3 81 -17 20 -88 26 -195 30 -551 2 -176 8 -333
13 -350 5 -16 6 -39 2 -50 -6 -18 -17 -20 -121 -21 -63 -1 -141 -5 -174 -10
-35 -6 -106 -6 -170 -1 -180 13 -643 9 -855 -8 -373 -30 -406 -32 -573 -27
-95 3 -206 0 -255 -6 -127 -16 -524 -25 -622 -13 -91 10 -279 25 -505 41 -77
5 -203 15 -280 21 l-140 12 1 161 c1 89 -2 190 -7 226 -4 36 -10 155 -14 265
-3 110 -8 212 -11 226 -9 45 15 54 140 53 61 0 152 -8 203 -17 103 -19 509
-22 638 -6 39 5 147 13 240 19 94 6 202 13 240 16 39 3 151 7 250 9 685 13
846 16 895 20 30 2 177 7 325 11 149 4 271 8 273 9 1 1 19 -1 40 -4 20 -4 71
-3 112 2z"/>
<path d="M15063 1371 c-60 -8 -100 -36 -81 -58 10 -12 31 -14 110 -9 115 7
104 29 87 -174 -7 -74 -17 -142 -23 -150 -12 -17 -11 -16 -99 -18 -73 -2 -109
-20 -88 -45 16 -21 126 -15 339 16 124 18 132 28 32 42 -25 3 -54 7 -65 9 -11
2 -24 4 -30 5 -13 1 -7 291 6 307 14 17 99 24 142 12 29 -9 40 -8 50 1 9 10 6
18 -18 37 -16 13 -41 24 -55 25 -154 5 -264 6 -307 0z"/>
<path d="M16229 1343 c-3 -21 4 -59 13 -70 13 -16 23 -129 12 -136 -5 -3 -35
1 -66 8 -48 11 -59 11 -69 -1 -6 -8 -9 -20 -6 -27 5 -13 89 -37 129 -37 20 0
20 -4 14 -77 -7 -83 5 -122 36 -111 14 6 38 95 38 144 0 18 7 25 28 30 74 17
102 25 102 32 0 4 -28 14 -62 22 l-62 15 -12 60 c-14 68 -59 155 -80 155 -8 0
-14 -3 -15 -7z"/>
<path d="M15980 1223 c-77 -14 -104 -32 -92 -61 8 -23 73 -84 132 -124 72 -50
73 -59 7 -100 -57 -36 -110 -45 -142 -24 -14 9 -25 25 -25 36 0 24 -25 26 -38
4 -7 -12 -12 -1 -21 42 -6 33 -20 70 -31 84 -11 14 -20 32 -20 40 0 8 -21 34
-47 57 -70 63 -122 60 -186 -13 l-39 -43 1 -92 c1 -100 7 -117 38 -100 16 8
21 24 26 84 11 145 65 191 141 120 34 -31 55 -78 67 -151 10 -62 23 -82 41
-64 9 9 19 3 44 -27 25 -28 44 -40 73 -45 81 -13 202 53 217 117 7 30 12 24
-136 156 -40 36 -34 45 37 56 42 6 78 29 68 45 -9 15 -41 16 -115 3z"/>
<path d="M17700 1223 c-83 -43 -128 -181 -82 -255 45 -72 117 -118 185 -118
19 0 63 11 98 24 52 19 66 30 76 55 12 30 12 31 -11 31 -13 0 -39 -6 -57 -14
-67 -28 -120 -29 -169 -4 -25 13 -45 28 -45 35 0 11 86 73 101 73 9 0 68 44
92 68 26 27 27 34 7 71 -17 34 -31 40 -104 47 -42 4 -64 1 -91 -13z m130 -63
c0 -12 -33 -37 -95 -69 -48 -26 -61 -29 -63 -17 -6 26 28 76 60 89 31 13 98
11 98 -3z"/>
<path d="M16673 1168 c-27 -18 -73 -46 -103 -62 -66 -34 -110 -81 -110 -117 0
-16 12 -40 29 -58 25 -26 36 -31 78 -31 68 0 121 33 153 93 29 54 44 58 64 20
8 -16 27 -41 44 -56 25 -24 30 -26 41 -13 11 13 7 24 -22 63 -19 27 -38 59
-42 73 -13 44 -58 120 -71 120 -6 0 -34 -15 -61 -32z m23 -109 c-7 -22 -29
-58 -49 -79 -30 -32 -43 -39 -72 -38 -19 1 -42 9 -51 19 -14 16 -13 19 15 45
35 31 140 93 157 94 9 0 9 -10 0 -41z"/>
<path d="M17370 1177 c-25 -13 -60 -43 -79 -67 -29 -39 -32 -50 -28 -88 5 -46
19 -63 77 -89 48 -22 145 -20 171 3 10 9 19 20 19 23 0 3 -25 7 -55 8 -54 2
-145 36 -145 55 0 5 6 23 13 41 14 32 42 51 120 82 28 10 38 20 35 32 -5 29
-74 29 -128 0z"/>
<path d="M16951 1131 c-25 -17 -48 -37 -53 -45 -8 -14 6 -149 18 -167 3 -5 16
-9 28 -9 21 0 24 5 29 72 5 54 11 77 27 92 19 19 23 20 47 6 30 -17 80 -108
88 -160 8 -53 18 -64 44 -51 37 21 19 108 -46 216 -29 49 -45 65 -67 69 -51
10 -70 6 -115 -23z"/>
<path d="M13961 1433 c-13 -3 -46 -27 -72 -54 -48 -49 -74 -111 -85 -197 -11
-85 40 -165 131 -208 28 -13 77 -40 110 -59 77 -44 121 -51 187 -29 137 45
200 210 135 354 -27 61 -87 129 -133 153 -67 35 -199 54 -273 40z m142 -84
c40 -6 84 -17 98 -24 33 -17 99 -85 99 -102 0 -7 4 -13 9 -13 14 0 28 -101 19
-134 -21 -79 -144 -139 -234 -114 -26 7 -34 15 -41 46 -8 33 -12 37 -43 38
-25 1 -41 9 -61 33 -20 24 -32 31 -47 27 -17 -6 -21 -1 -27 32 -12 76 27 165
89 203 36 22 44 23 139 8z"/>
<path d="M13170 1384 c-46 -20 -87 -70 -116 -142 -27 -65 -29 -95 -13 -175 12
-60 18 -68 93 -123 85 -63 152 -78 234 -55 45 13 120 77 143 122 27 54 26 169
-3 244 -24 64 -89 129 -139 139 -56 11 -163 5 -199 -10z m205 -80 c53 -25 95
-102 95 -174 0 -47 -5 -61 -30 -92 -36 -44 -103 -78 -153 -78 -35 0 -36 1 -25
20 17 26 -2 40 -53 40 -33 0 -81 26 -101 55 -15 20 -7 110 12 150 30 63 45 77
102 91 62 15 103 12 153 -12z"/>
<path d="M12475 1359 c-105 -37 -194 -150 -181 -233 14 -87 103 -196 161 -196
11 0 42 -7 69 -15 148 -45 284 15 302 132 10 70 -35 199 -88 254 -71 73 -161
93 -263 58z m196 -82 c43 -28 87 -113 95 -181 6 -52 6 -54 -30 -81 -46 -35
-124 -49 -178 -33 -21 6 -56 27 -78 46 -26 22 -47 32 -60 29 -23 -6 -46 18
-54 58 -8 37 27 110 65 137 69 51 184 63 240 25z"/>
<path d="M11763 1360 c-62 -13 -100 -36 -134 -83 -42 -57 -59 -102 -59 -152 0
-79 57 -170 122 -195 18 -6 53 -21 76 -32 33 -15 57 -19 94 -16 42 4 56 12 94
49 99 97 127 206 81 319 -17 44 -32 62 -71 88 -41 27 -57 32 -105 31 -31 -1
-75 -5 -98 -9z m188 -101 c10 -13 26 -43 35 -67 16 -41 16 -47 0 -97 -13 -42
-28 -64 -69 -100 -56 -49 -97 -59 -97 -25 0 16 -7 20 -32 20 -23 0 -39 8 -54
28 -18 22 -25 25 -35 15 -7 -7 -17 -13 -22 -13 -12 0 -37 65 -37 100 0 35 29
97 57 123 32 28 103 46 171 43 54 -2 67 -6 83 -27z"/>
</g>
</svg>
