<?xml version="1.0" standalone="no"?>
<!DOCTYPE svg PUBLIC "-//W3C//DTD SVG 20010904//EN"
 "http://www.w3.org/TR/2001/REC-SVG-20010904/DTD/svg10.dtd">
<svg version="1.0" xmlns="http://www.w3.org/2000/svg"
 width="712.504419pt" height="400.000000pt" viewBox="0 0 712.504419 400.000000"
 preserveAspectRatio="xMidYMid meet">
<metadata>
Created by potrace 1.15, written by Peter Selinger 2001-2017
</metadata>
<g transform="translate(-35.364728,418.164722) scale(0.056763,-0.056763)"
fill="#444444" stroke="none">
<path d="M12142 7347 c-21 -22 -23 -35 -25 -153 -3 -113 0 -186 18 -424 l4
-55 -53 -1 c-62 -2 -143 -40 -182 -87 -31 -37 -58 -130 -50 -175 5 -35 51 -93
91 -114 74 -41 210 -13 278 55 12 12 35 31 50 42 16 11 39 44 52 72 24 52 24
53 4 64 -17 9 -28 2 -79 -44 -65 -61 -167 -117 -212 -117 -38 0 -97 25 -104
45 -12 31 7 82 43 119 32 31 42 36 85 36 43 0 54 -5 91 -40 41 -37 45 -38 65
-24 27 19 29 73 5 141 -18 51 -19 79 -22 408 -1 266 -10 304 -59 252z"/>
<path d="M10207 7282 c-15 -17 -15 -23 3 -88 11 -38 24 -123 30 -189 15 -175
28 -267 39 -278 5 -5 6 -21 2 -36 -10 -32 -13 -198 -5 -223 13 -43 56 3 70 76
23 119 100 250 164 276 87 36 169 -131 154 -316 -3 -46 -1 -64 10 -74 23 -19
49 -8 58 25 15 50 -9 230 -35 263 -5 6 -7 12 -3 12 15 0 -49 108 -81 138 -45
41 -97 44 -141 7 -17 -14 -34 -25 -39 -25 -6 0 -27 -25 -49 -55 -21 -30 -42
-54 -45 -55 -6 0 -9 21 -34 280 -14 153 -29 253 -40 271 -10 15 -41 10 -58 -9z"/>
<path d="M8827 7240 c-24 -28 -25 -35 -22 -127 5 -143 20 -285 33 -310 7 -12
12 -55 12 -95 0 -45 6 -84 15 -102 8 -15 15 -34 15 -41 0 -7 11 -20 24 -28 22
-15 24 -14 33 6 10 23 -3 177 -33 380 -9 60 -16 152 -16 205 0 89 -10 142 -29
142 -4 0 -18 -13 -32 -30z"/>
<path d="M1260 7056 c-122 -17 -134 -21 -165 -58 l-26 -31 23 -24 c19 -20 30
-24 58 -19 97 15 160 24 210 31 30 3 82 13 115 21 51 12 105 21 139 23 20 2
-30 42 -63 51 -62 16 -192 19 -291 6z"/>
<path d="M6810 7045 c-12 -14 -6 -49 12 -72 30 -38 81 15 60 62 -13 28 -52 34
-72 10z"/>
<path d="M7634 7037 c-30 -26 -26 -43 13 -58 44 -16 83 37 51 69 -18 18 -34
15 -64 -11z"/>
<path d="M2805 6970 c-18 -20 -18 -21 1 -40 45 -45 103 -18 69 33 -21 32 -45
34 -70 7z"/>
<path d="M3377 6965 c-21 -8 -51 -23 -66 -35 -16 -11 -37 -20 -46 -20 -20 0
-57 -19 -67 -34 -4 -6 -8 -23 -8 -37 0 -33 122 -152 186 -180 44 -20 104 -85
104 -113 0 -8 -12 -23 -26 -32 -28 -19 -145 -43 -212 -43 -60 -1 -85 -16 -72
-42 6 -11 26 -27 45 -36 30 -14 45 -15 141 -2 94 12 113 17 148 44 32 24 42
40 49 74 6 30 5 51 -3 66 -7 12 -66 71 -131 130 -65 59 -119 111 -119 115 0 4
19 12 43 19 99 29 150 79 126 123 -11 21 -39 22 -92 3z"/>
<path d="M7395 6950 c-11 -5 -34 -9 -51 -9 -71 -2 -164 -53 -164 -91 0 -9 19
-37 43 -63 33 -37 49 -47 73 -47 20 0 39 -9 55 -26 13 -14 39 -32 57 -39 26
-11 32 -20 32 -44 0 -43 -39 -60 -155 -68 -89 -6 -96 -8 -101 -29 -12 -49 15
-63 111 -59 87 3 133 17 175 52 34 29 41 41 39 67 -4 44 -35 84 -91 119 -26
16 -48 33 -48 37 0 3 -20 20 -45 38 -25 17 -45 35 -45 39 0 11 112 43 148 43
49 0 69 41 36 74 -17 17 -38 19 -69 6z"/>
<path d="M1903 6934 c-3 -9 0 -32 6 -51 7 -19 10 -37 7 -40 -2 -3 4 -27 15
-54 10 -28 19 -54 19 -58 0 -12 -57 -31 -92 -31 -41 0 -86 -28 -97 -62 -7 -20
-7 -28 1 -28 6 0 19 -6 27 -14 13 -11 29 -11 84 -3 41 6 71 7 76 1 5 -5 11
-41 15 -80 6 -80 16 -114 40 -134 15 -11 19 -11 33 3 18 18 19 47 8 154 -9 85
-12 82 119 108 85 16 95 20 80 34 -33 32 -93 51 -157 51 -46 0 -69 4 -71 13
-15 58 -60 184 -68 195 -15 17 -37 15 -45 -4z"/>
<path d="M4573 6920 c-144 -12 -187 -47 -143 -118 19 -31 40 -43 205 -118 138
-63 138 -102 -1 -170 -53 -26 -92 -28 -151 -9 -31 10 -49 -26 -33 -65 30 -73
166 -60 279 27 56 42 70 66 71 118 0 36 -6 46 -47 86 -52 49 -103 82 -145 92
-41 11 -99 48 -95 61 5 14 65 25 148 25 61 1 67 3 77 26 7 14 12 28 12 29 0 6
-62 26 -74 25 -6 -1 -53 -5 -103 -9z"/>
<path d="M1451 6911 c-18 -12 -28 -111 -12 -121 10 -6 9 -21 -2 -71 -9 -35
-18 -104 -21 -153 -4 -49 -12 -96 -18 -103 -14 -17 -47 -13 -166 23 -87 27
-117 25 -127 -7 -14 -44 19 -77 90 -90 22 -4 81 -15 130 -24 50 -9 113 -17
140 -18 73 -1 245 39 268 61 17 18 18 20 1 36 -14 15 -33 17 -115 14 -56 -1
-103 2 -108 7 -6 7 -6 38 0 89 7 57 7 106 -2 170 -7 50 -15 113 -18 140 -6 51
-16 62 -40 47z"/>
<path d="M5272 6863 c-10 -21 -23 -47 -29 -58 -25 -48 -73 -154 -73 -163 0
-22 -54 -62 -85 -62 -65 0 -113 100 -93 195 8 39 7 50 -6 63 -12 12 -20 13
-39 5 -29 -13 -36 -44 -31 -133 7 -109 64 -187 159 -216 l46 -13 41 37 c22 20
54 65 70 99 39 80 52 92 71 61 8 -13 18 -41 22 -63 12 -76 78 -146 108 -116 7
7 7 18 -1 36 -25 54 -74 211 -77 247 -5 41 -40 118 -55 118 -5 0 -18 -17 -28
-37z"/>
<path d="M5707 6881 c-16 -3 -35 -19 -47 -38 -11 -18 -26 -33 -34 -33 -24 0
-64 -22 -71 -38 -3 -8 -1 -29 4 -46 5 -17 14 -58 22 -91 14 -69 34 -97 63 -93
27 4 45 55 45 133 1 64 26 121 59 131 9 3 26 10 37 14 11 5 34 12 52 15 40 8
49 29 17 44 -26 12 -100 13 -147 2z"/>
<path d="M6605 6856 c-17 -7 -61 -42 -98 -78 -77 -74 -81 -90 -45 -196 16 -48
27 -66 46 -73 36 -14 43 -1 47 75 2 36 9 82 14 103 16 59 95 123 151 123 46 0
1 48 -51 56 -19 2 -48 -2 -64 -10z"/>
<path d="M7950 6814 c-41 -31 -78 -62 -82 -68 -10 -14 -10 -100 -1 -109 4 -4
6 -31 4 -60 -2 -45 1 -56 23 -76 43 -41 52 -25 59 104 6 129 13 146 76 172 52
22 107 9 128 -30 10 -18 18 -40 19 -49 1 -10 7 -25 14 -33 12 -15 18 -130 9
-180 -3 -16 2 -21 28 -23 25 -2 35 2 48 22 14 21 15 33 5 86 -16 89 -63 205
-97 238 -39 39 -85 62 -125 62 -25 0 -52 -14 -108 -56z"/>
<path d="M9458 6817 c-21 -28 -59 -94 -85 -144 -26 -51 -51 -93 -55 -93 -24 0
-99 48 -146 93 -52 51 -53 52 -80 37 -46 -26 -40 -51 32 -117 36 -34 78 -69
95 -79 38 -23 39 -36 1 -99 -124 -206 -176 -291 -226 -369 -67 -107 -79 -138
-55 -153 26 -17 72 8 109 58 65 88 184 276 218 344 44 91 83 158 98 167 6 4
21 8 33 8 34 0 46 32 29 74 -13 31 -13 36 1 48 8 7 35 55 59 106 72 153 53
233 -28 119z"/>
<path d="M11510 6810 c-32 -31 -58 -67 -70 -97 -16 -42 -22 -48 -47 -48 -27 0
-28 -2 -26 -45 5 -87 36 -201 60 -217 12 -8 27 -12 34 -8 22 14 39 76 39 147
1 73 22 141 61 196 20 28 74 45 100 32 20 -11 59 -13 59 -4 0 20 -38 64 -67
78 -58 28 -85 21 -143 -34z"/>
<path d="M6130 6840 c-88 -12 -142 -56 -193 -156 -20 -38 -10 -55 40 -69 l38
-11 11 -79 c6 -44 23 -110 38 -147 16 -39 29 -94 31 -130 5 -82 19 -156 32
-169 6 -6 21 -8 33 -4 22 7 22 10 16 84 -4 42 -13 103 -20 136 -8 33 -17 81
-20 106 l-7 46 43 7 c34 6 53 18 93 59 146 151 121 274 -65 326 -14 4 -45 4
-70 1z m102 -94 c83 -14 55 -121 -50 -192 -28 -19 -55 -34 -60 -34 -19 0 -43
175 -28 199 11 17 67 41 86 36 8 -2 31 -6 52 -9z"/>
<path d="M11096 6835 c-11 -8 -31 -15 -44 -15 -39 0 -183 -130 -208 -188 -26
-58 1 -145 58 -191 27 -21 32 -22 71 -11 23 6 49 17 57 23 20 16 71 83 91 121
l17 30 36 -36 c20 -20 36 -42 36 -49 0 -23 68 -71 90 -64 11 4 20 11 20 16 0
5 -22 43 -50 83 -27 40 -50 79 -50 86 0 8 -13 37 -30 66 -26 46 -28 56 -18 82
20 53 -29 82 -76 47z m-9 -154 c-12 -108 -55 -171 -117 -171 -105 0 -80 112
45 200 22 16 49 29 59 29 17 1 18 -4 13 -58z"/>
<path d="M6894 6785 c-14 -21 -15 -43 -10 -148 7 -129 23 -172 62 -172 21 0
39 64 28 105 -3 14 -10 67 -14 118 -10 118 -32 149 -66 97z"/>
<path d="M8573 6787 c-17 -7 -45 -24 -61 -39 -17 -15 -48 -36 -69 -47 -43 -22
-79 -59 -111 -112 -28 -46 -28 -69 0 -104 29 -37 71 -53 127 -48 40 5 53 12
98 59 29 30 57 54 62 54 12 0 68 -100 77 -137 4 -15 10 -32 14 -38 11 -15 22
-100 26 -197 3 -82 2 -88 -27 -127 -52 -73 -173 -134 -227 -115 -14 5 -37 25
-50 44 -24 35 -25 65 -7 126 5 16 2 23 -14 27 -18 4 -26 -4 -51 -53 l-30 -59
27 -51 c29 -55 78 -100 109 -100 11 0 24 -4 30 -9 31 -30 89 -12 178 54 100
76 129 129 128 235 -2 136 -45 300 -118 458 -24 51 -44 105 -44 120 0 40 -11
72 -24 71 -6 0 -25 -6 -43 -12z m-11 -157 c-4 -55 -42 -113 -80 -124 -40 -11
-82 5 -82 33 0 21 137 133 155 127 6 -2 9 -18 7 -36z"/>
<path d="M2896 6725 c-24 -25 -19 -76 15 -162 36 -93 54 -123 74 -123 21 0 19
67 -5 163 -21 84 -31 107 -53 126 -12 9 -18 8 -31 -4z"/>
<path d="M7657 6692 c-27 -34 -28 -42 -25 -110 4 -85 25 -110 68 -82 19 12 28
193 10 215 -17 21 -21 19 -53 -23z"/>
<path d="M2570 5301 c-14 -5 -45 -10 -70 -10 -54 -2 -192 -25 -211 -36 -8 -4
-23 -16 -34 -26 -11 -9 -55 -36 -99 -58 -95 -51 -128 -75 -231 -169 -75 -70
-115 -124 -181 -247 -15 -27 -43 -75 -64 -105 -55 -82 -67 -109 -96 -217 -23
-89 -25 -116 -25 -283 0 -111 4 -199 11 -220 11 -34 35 -136 46 -195 3 -16 9
-34 13 -40 5 -5 12 -26 16 -45 3 -19 21 -60 40 -90 18 -30 36 -65 39 -77 9
-30 113 -174 138 -192 19 -13 19 -14 -5 -40 -23 -25 -32 -48 -43 -116 -9 -50
29 -94 121 -139 58 -28 97 -40 140 -43 55 -4 64 -2 103 26 23 18 47 42 51 54
5 12 18 30 28 40 11 9 26 35 33 58 12 36 12 44 -9 86 -50 103 -100 143 -179
143 -34 0 -44 5 -68 38 -15 20 -31 39 -35 42 -14 10 -174 256 -196 300 -12 25
-31 82 -43 126 -27 100 -29 275 -4 369 8 33 21 87 29 120 8 33 23 87 34 120
72 213 107 275 229 402 96 98 101 102 178 126 43 14 105 37 137 52 55 25 63
26 175 21 100 -4 131 -10 212 -40 142 -51 254 -110 288 -152 42 -51 82 -127
87 -166 5 -41 61 -193 80 -222 8 -11 15 -30 15 -42 0 -11 9 -29 21 -40 19 -17
23 -17 47 -3 18 10 37 13 55 8 50 -13 52 15 11 158 -63 224 -153 371 -340 558
-111 111 -130 125 -186 144 -69 24 -216 36 -258 22z"/>
<path d="M11098 5234 c-6 -5 -30 -8 -158 -19 -121 -10 -169 -24 -270 -77 -52
-27 -97 -53 -100 -57 -3 -4 -25 -19 -50 -33 -72 -41 -199 -190 -264 -309 -144
-264 -172 -541 -91 -894 9 -38 18 -81 21 -95 15 -71 48 -184 75 -255 4 -11 17
-54 30 -95 12 -41 33 -89 46 -107 31 -43 29 -67 -8 -96 -30 -23 -35 -35 -56
-139 -7 -38 12 -89 52 -135 27 -32 44 -42 87 -50 141 -30 239 -8 302 67 23 28
26 40 26 110 0 91 -20 136 -76 170 -19 12 -34 25 -34 30 0 5 -18 11 -41 15
-38 7 -43 11 -66 63 -13 31 -40 113 -58 183 -19 70 -52 168 -75 218 -31 69
-43 111 -51 178 -5 49 -14 119 -20 156 -16 103 24 444 60 516 10 20 22 46 26
59 13 42 89 146 149 205 71 68 180 123 309 156 79 20 104 22 232 16 163 -7
198 -14 235 -50 15 -14 54 -40 87 -58 79 -42 163 -99 163 -112 0 -6 11 -26 23
-45 13 -19 27 -46 31 -60 4 -14 22 -38 41 -53 28 -23 45 -29 87 -29 112 -1
144 22 113 82 -9 17 -13 39 -10 49 7 24 -75 188 -117 233 -39 42 -147 116
-203 140 -203 86 -293 115 -359 116 -37 1 -71 4 -76 7 -4 2 -10 2 -12 -1z"/>
<path d="M6930 5156 c-135 -31 -240 -68 -293 -105 -44 -30 -175 -170 -196
-208 -6 -12 -34 -50 -61 -83 -38 -45 -53 -72 -60 -111 -6 -29 -17 -66 -26 -83
-9 -17 -20 -47 -25 -66 -4 -19 -12 -53 -18 -75 -13 -50 -14 -288 -2 -352 6
-26 17 -86 26 -133 9 -46 23 -96 30 -110 8 -14 33 -72 56 -130 23 -58 59 -148
81 -200 22 -52 46 -114 54 -138 8 -23 26 -59 39 -78 24 -36 24 -37 6 -63 -10
-14 -29 -35 -41 -46 -12 -11 -31 -37 -42 -58 -30 -60 -18 -111 38 -164 l45
-42 92 -3 c89 -2 94 -1 152 32 33 18 64 40 69 48 4 8 17 21 27 30 25 22 25 74
-1 127 -16 33 -35 50 -95 84 l-75 43 -22 72 c-11 39 -43 114 -69 166 -27 53
-49 102 -49 109 0 7 -14 33 -32 59 -32 46 -107 209 -133 287 -36 110 -39 332
-6 464 21 82 82 211 126 263 14 16 25 33 25 37 0 5 28 31 63 59 227 186 243
194 372 196 156 1 379 -44 458 -93 61 -38 125 -116 171 -206 59 -116 108 -175
144 -175 97 1 98 40 3 222 -76 146 -136 231 -182 256 -17 9 -40 25 -52 36 -12
10 -46 35 -76 55 -129 88 -131 88 -308 96 -89 3 -127 0 -213 -19z"/>
<path d="M11137 4395 c-121 -49 -171 -118 -170 -232 1 -74 15 -101 75 -141 39
-25 49 -27 135 -25 81 1 99 5 139 28 25 15 48 33 51 41 4 10 16 12 42 9 20 -3
88 -7 153 -8 67 -2 122 -8 130 -14 7 -6 39 -21 70 -33 32 -12 89 -46 127 -76
38 -30 73 -54 77 -54 8 0 57 -36 157 -113 59 -46 157 -173 157 -203 0 -8 25
-38 55 -68 30 -29 55 -57 55 -61 0 -5 15 -40 34 -79 57 -117 73 -166 89 -266
30 -190 40 -281 34 -331 -8 -68 -54 -162 -107 -222 -81 -91 -241 -211 -305
-228 -16 -4 -61 -19 -100 -32 -149 -52 -233 -75 -308 -87 -71 -10 -81 -10
-104 7 -30 21 -31 21 -103 56 -30 15 -74 45 -98 67 -41 39 -72 51 -72 30 0 -7
-13 -8 -35 -4 -31 5 -35 4 -35 -14 0 -11 -2 -27 -5 -35 -6 -13 55 -96 109
-150 12 -12 69 -46 126 -74 85 -43 118 -54 175 -60 102 -9 253 -7 268 5 6 5
37 15 67 21 113 24 154 44 260 126 25 19 83 61 130 93 108 75 209 185 233 255
89 257 102 380 63 597 -30 168 -41 201 -106 330 -73 144 -73 144 -126 215
-136 184 -267 311 -434 419 -159 103 -255 137 -490 175 -104 17 -127 24 -140
42 -35 52 -78 88 -116 97 -84 21 -99 21 -157 -3z"/>
<path d="M6957 4256 c-102 -38 -150 -152 -95 -228 30 -44 119 -82 169 -74 59
9 109 36 160 83 l45 43 200 -10 c223 -11 291 -23 427 -74 116 -43 215 -98 399
-221 42 -28 109 -102 173 -190 152 -209 188 -276 205 -385 19 -121 -15 -260
-96 -387 -19 -29 -36 -64 -40 -77 -5 -20 -130 -150 -225 -233 -24 -21 -104
-53 -179 -73 -64 -17 -126 -10 -246 26 -66 20 -168 48 -229 64 -127 31 -210
65 -229 91 -11 16 -15 17 -32 5 -16 -12 -19 -26 -17 -90 1 -41 9 -90 17 -108
21 -49 100 -133 154 -164 57 -32 113 -35 360 -16 304 24 432 74 550 215 38 45
79 91 92 102 36 32 97 119 125 177 13 29 38 78 55 108 16 30 32 71 36 90 3 19
12 55 20 80 44 141 -19 362 -168 592 -46 70 -91 140 -101 155 -54 87 -170 200
-245 239 -67 35 -176 96 -214 120 -21 13 -47 24 -58 24 -12 0 -33 6 -48 14
-15 7 -52 16 -82 20 -30 4 -98 19 -150 34 -90 25 -107 27 -315 27 -166 0 -227
3 -250 14 -44 20 -124 23 -168 7z"/>
<path d="M2524 4241 c-106 -38 -181 -100 -195 -160 -8 -36 2 -149 13 -156 2
-1 25 -19 52 -40 44 -36 55 -40 116 -43 52 -3 82 1 126 18 71 26 84 36 84 64
0 12 5 27 12 34 14 14 101 15 218 2 47 -5 141 -12 210 -15 69 -4 141 -11 160
-15 19 -5 79 -18 134 -29 103 -21 262 -91 356 -156 25 -18 83 -50 130 -73 71
-34 98 -54 165 -125 223 -237 234 -253 260 -392 24 -129 28 -224 11 -310 -18
-97 -38 -143 -94 -217 -46 -60 -43 -58 -232 -121 -45 -15 -198 -46 -255 -53
-16 -1 -104 -3 -195 -4 -166 0 -206 5 -335 42 -166 47 -211 50 -242 16 -11
-13 -23 -29 -27 -35 -12 -21 13 -53 57 -74 23 -10 49 -23 57 -28 34 -20 92
-41 113 -41 12 0 54 -9 92 -20 93 -26 394 -58 525 -56 119 3 192 17 266 52 28
13 59 24 68 24 10 0 36 15 59 33 23 18 61 41 84 51 95 41 215 220 240 356 33
183 28 256 -34 455 -46 148 -80 207 -248 426 -103 135 -138 164 -265 226 -58
28 -132 69 -165 90 -89 57 -324 133 -445 144 -105 9 -343 18 -519 20 l-114 1
-37 38 c-36 36 -91 70 -135 83 -11 3 -43 -2 -71 -12z"/>
<path d="M1154 3546 c-102 -37 -150 -67 -247 -158 -37 -34 -81 -73 -97 -86
-31 -25 -56 -68 -70 -122 -5 -19 -30 -91 -55 -160 -27 -72 -48 -146 -49 -175
-2 -27 -7 -62 -11 -77 -5 -18 -2 -34 9 -50 9 -12 16 -38 16 -58 0 -19 7 -44
15 -54 8 -11 15 -29 15 -41 0 -35 107 -128 200 -175 25 -12 55 -31 67 -42 12
-12 33 -22 46 -23 13 -2 37 -10 53 -18 27 -14 78 -23 165 -31 20 -2 47 -11 61
-20 27 -18 138 -49 251 -70 55 -11 93 -12 152 -5 94 12 200 19 310 23 76 3
146 17 260 53 28 9 55 19 60 23 6 4 39 17 75 29 35 13 70 26 76 29 21 12 105
86 138 120 17 18 78 82 136 141 131 135 277 292 297 321 9 12 32 38 52 57 35
33 38 34 100 30 53 -4 72 -1 112 19 82 41 92 62 87 179 -3 87 -7 104 -28 133
-38 51 -91 74 -185 79 -55 3 -88 0 -105 -9 -48 -25 -113 -181 -87 -207 6 -6
12 -27 14 -47 2 -33 -5 -45 -56 -103 -32 -36 -82 -84 -111 -106 -29 -22 -107
-93 -173 -158 -145 -143 -166 -157 -375 -265 -160 -81 -287 -130 -439 -167
l-72 -17 -183 32 c-100 17 -185 33 -188 35 -4 2 -56 15 -116 29 -119 27 -250
82 -302 127 -18 16 -37 29 -41 29 -16 0 -80 145 -87 196 -9 75 12 180 49 247
65 115 214 276 286 308 73 32 221 152 221 178 0 6 -8 14 -17 17 -10 3 -37 14
-61 25 -54 24 -59 24 -168 -15z"/>
<path d="M5850 3478 c-115 -57 -132 -69 -212 -151 -83 -85 -89 -94 -112 -171
-14 -45 -30 -106 -37 -136 -12 -58 -7 -198 9 -241 5 -13 20 -58 33 -99 71
-224 214 -356 459 -423 221 -61 509 -23 678 89 31 20 96 58 146 83 119 62 292
170 333 208 18 17 38 33 45 36 7 3 51 38 98 77 47 39 96 78 110 85 14 7 38 30
55 52 16 21 50 56 74 78 24 22 65 60 89 84 42 40 48 43 81 35 51 -11 142 -8
184 5 41 14 77 63 77 105 0 67 -66 150 -155 196 -63 33 -101 31 -157 -8 -68
-47 -91 -84 -96 -156 -3 -41 -9 -65 -20 -74 -10 -7 -60 -55 -112 -106 -63 -63
-120 -108 -170 -136 -41 -23 -104 -61 -140 -85 -36 -23 -76 -45 -90 -50 -56
-16 -151 -78 -185 -119 -42 -52 -84 -71 -203 -91 -84 -14 -110 -20 -272 -65
-100 -27 -232 -36 -299 -20 -55 13 -117 58 -215 156 -60 60 -156 178 -156 192
0 5 -6 15 -14 21 -34 28 -36 163 -4 249 35 95 170 218 303 277 44 19 74 25
130 25 93 0 101 4 126 53 l21 40 -21 20 c-18 18 -35 21 -138 23 l-118 3 -125
-61z"/>
<path d="M9880 3323 c-39 -8 -198 -125 -285 -210 -99 -97 -117 -120 -160 -205
-43 -83 -60 -177 -59 -320 l0 -108 47 -66 c67 -97 152 -181 211 -209 89 -42
219 -85 255 -85 20 0 63 -9 95 -20 76 -26 157 -25 291 0 98 19 140 33 240 80
22 10 76 33 120 50 92 35 181 87 243 141 24 21 62 47 85 59 23 11 87 57 142
101 55 44 132 103 171 129 40 27 93 67 118 89 65 56 99 69 192 73 66 2 91 8
139 33 70 36 92 64 109 136 11 48 10 58 -7 95 -22 46 -78 86 -146 104 -61 16
-181 17 -211 1 -46 -25 -80 -64 -80 -92 0 -108 -38 -171 -140 -236 -30 -19
-66 -47 -80 -62 -14 -15 -52 -40 -85 -55 -33 -16 -71 -38 -85 -50 -87 -78
-225 -160 -320 -191 -30 -10 -65 -26 -78 -36 -13 -10 -40 -23 -60 -30 -20 -6
-73 -28 -117 -49 -77 -36 -197 -69 -260 -71 -66 -2 -253 21 -294 35 -24 9 -50
16 -58 16 -20 0 -97 54 -163 113 -63 57 -79 102 -81 218 -2 135 82 240 275
343 58 31 112 56 119 56 21 0 47 34 47 61 0 13 7 44 15 68 9 24 13 51 10 61
-11 33 -76 47 -155 33z"/>
<path d="M13005 1770 c-17 -18 -18 -37 -16 -187 1 -91 6 -196 11 -232 5 -36
10 -88 10 -114 0 -58 23 -107 50 -107 24 0 42 32 35 62 -9 37 -16 200 -18 403
l-2 190 -26 3 c-15 2 -32 -5 -44 -18z"/>
<path d="M1627 1664 c-6 -7 2 -194 9 -206 3 -5 2 -44 -2 -88 l-7 -80 -36 1
c-20 0 -54 4 -76 8 -45 8 -95 -9 -95 -34 0 -20 62 -50 132 -65 76 -15 91 -30
82 -85 -3 -23 -7 -97 -7 -163 -2 -108 0 -123 19 -149 12 -16 31 -28 44 -28
l23 0 2 191 c1 104 5 195 8 201 4 7 33 14 65 18 64 6 180 34 186 44 2 3 -2 15
-10 26 -13 18 -27 20 -117 20 -56 0 -107 3 -113 7 -6 4 -14 57 -18 120 -7 123
-26 229 -46 253 -13 15 -32 20 -43 9z"/>
<path d="M3648 1636 c-24 -18 -51 -198 -38 -247 5 -19 12 -54 16 -79 3 -25 7
-52 8 -60 1 -8 8 -48 16 -88 7 -39 10 -75 6 -79 -3 -4 -42 -2 -86 3 -142 17
-230 -26 -244 -117 -8 -57 2 -84 53 -141 32 -34 55 -49 99 -62 56 -17 59 -17
122 4 100 34 240 126 240 159 0 9 5 22 12 29 18 18 -7 16 -37 -4 -32 -21 -48
-14 -51 22 -1 16 -10 51 -19 79 -10 27 -21 72 -25 100 -5 27 -16 93 -24 145
-20 123 -20 223 0 277 9 23 14 49 11 58 -8 18 -36 19 -59 1z m-66 -647 c94
-19 161 -67 127 -91 -52 -36 -117 -52 -197 -49 -24 1 -101 74 -103 98 -1 7 -2
19 -3 25 -2 25 93 34 176 17z"/>
<path d="M8410 1619 c-77 -13 -129 -38 -136 -65 -7 -28 1 -43 31 -54 34 -13
40 -75 45 -478 2 -106 4 -124 20 -132 27 -14 43 12 45 73 2 106 5 127 17 127
6 0 38 -27 70 -59 32 -33 68 -63 81 -67 12 -3 31 -14 42 -24 13 -12 45 -20 93
-25 68 -7 72 -6 72 13 0 14 -24 34 -85 71 -47 28 -90 51 -96 51 -19 0 -119
109 -119 130 0 13 9 24 25 30 14 5 25 14 25 18 0 5 15 12 33 15 96 15 207 101
227 175 9 37 8 48 -7 79 -15 31 -31 42 -98 71 -44 19 -87 38 -96 42 -28 14
-131 19 -189 9z m187 -109 c66 -16 98 -29 114 -46 23 -24 23 -25 6 -57 -10
-18 -38 -45 -62 -59 -61 -37 -213 -84 -227 -70 -5 5 -11 36 -13 69 -6 106 -14
134 -48 148 -37 16 -22 27 48 36 58 8 60 7 182 -21z"/>
<path d="M9510 1611 c-12 -8 -11 -35 8 -203 12 -106 22 -199 22 -205 0 -9 -16
-13 -46 -13 -37 0 -54 -6 -87 -32 -55 -44 -91 -124 -83 -182 10 -62 67 -113
146 -132 62 -14 62 -14 147 22 17 8 33 14 36 14 15 0 127 84 127 95 0 25 -15
23 -80 -8 -83 -40 -204 -50 -257 -22 -30 17 -33 22 -33 65 0 58 29 90 81 90
42 0 52 -7 72 -45 30 -56 33 -58 55 -46 31 17 33 37 13 124 -11 45 -22 132
-26 192 -4 61 -9 138 -11 173 -7 99 -38 141 -84 113z"/>
<path d="M6234 1575 c-4 -9 -3 -65 1 -123 14 -194 6 -212 -89 -212 -73 -1
-133 -15 -157 -36 l-21 -19 22 -17 c25 -20 98 -24 164 -8 57 13 74 0 71 -52
-19 -298 -19 -305 3 -317 24 -13 48 -6 56 16 3 8 9 58 12 111 3 53 10 107 15
120 5 13 9 41 9 62 0 29 6 43 22 54 12 8 25 13 30 10 4 -3 32 -1 62 5 35 6 66
7 89 0 32 -9 36 -14 47 -62 6 -28 14 -106 17 -171 6 -111 8 -121 31 -143 16
-14 29 -20 35 -14 5 5 13 62 19 127 l11 119 36 32 c26 24 46 32 73 33 33 0 42
-5 68 -42 16 -22 30 -48 30 -57 1 -9 7 -33 14 -54 11 -28 11 -45 3 -66 -9 -23
-7 -34 6 -55 10 -14 22 -26 27 -26 15 0 50 33 50 47 0 12 39 33 58 33 4 0 21
-22 39 -49 18 -27 47 -60 65 -74 39 -29 109 -57 142 -57 60 0 176 80 189 130
7 28 -18 26 -55 -5 -37 -31 -101 -49 -153 -42 -31 5 -50 16 -83 52 -24 25 -42
51 -39 58 2 6 18 14 35 17 31 5 82 42 82 59 0 5 13 14 30 19 19 7 32 20 36 38
6 23 1 33 -29 61 -45 40 -99 44 -157 12 -40 -23 -80 -82 -80 -120 0 -32 -10
-46 -43 -58 -52 -20 -64 -15 -64 27 1 73 -32 153 -81 200 -25 23 -55 42 -67
42 -36 0 -88 -21 -116 -46 -14 -13 -32 -24 -41 -24 -18 0 -19 5 -37 190 -15
158 -29 209 -62 226 -25 12 -29 12 -37 -3 -7 -11 -5 -29 3 -53 7 -19 16 -74
20 -120 4 -47 12 -93 17 -103 14 -26 2 -33 -21 -13 -16 14 -34 17 -83 15 -92
-5 -128 6 -129 39 -2 43 -6 81 -18 165 -6 43 -11 82 -11 87 0 5 -14 18 -30 30
-27 19 -31 20 -36 5z m1014 -537 c22 -22 13 -37 -38 -63 -27 -14 -52 -25 -55
-25 -11 0 -4 57 11 78 17 24 62 30 82 10z"/>
<path d="M11265 1566 c-17 -25 -16 -44 11 -596 9 -171 37 -232 86 -183 17 18
18 25 9 61 -15 55 -28 251 -31 460 -2 242 -8 282 -40 282 -11 0 -27 -11 -35
-24z"/>
<path d="M4155 1240 c-51 -15 -80 -39 -131 -109 -49 -68 -54 -81 -54 -127 0
-74 20 -161 41 -180 18 -16 20 -16 39 1 17 15 20 31 20 102 0 96 23 168 71
217 l28 30 83 -11 c67 -9 86 -9 97 2 32 31 -130 94 -194 75z"/>
<path d="M9010 1213 c-14 -9 -44 -34 -67 -56 -34 -33 -44 -51 -57 -106 -23
-98 -23 -103 1 -144 50 -84 192 -102 328 -41 37 16 68 51 61 69 -4 11 -11 11
-43 0 -21 -7 -72 -16 -114 -20 -66 -6 -81 -4 -117 14 -47 24 -56 46 -17 38 62
-11 208 48 241 98 21 32 2 71 -59 124 -40 34 -55 41 -90 40 -23 0 -53 -7 -67
-16z m102 -80 c10 -9 18 -22 18 -29 0 -17 -44 -40 -92 -49 -29 -5 -38 -3 -46
11 -15 27 6 63 42 73 46 14 58 13 78 -6z"/>
<path d="M10341 1206 l-22 -24 40 -77 41 -77 -33 -37 c-18 -20 -40 -47 -50
-61 -15 -21 -19 -23 -31 -10 -16 16 -41 81 -57 145 -12 48 -46 105 -62 105
-26 -1 -49 -31 -86 -116 -57 -128 -113 -172 -157 -123 -15 17 -19 39 -21 104
-3 91 -15 135 -38 135 -27 0 -44 -43 -49 -130 -7 -105 4 -146 48 -189 34 -33
37 -34 91 -27 69 8 110 37 155 112 18 30 36 52 40 49 4 -3 24 -29 44 -59 39
-59 70 -77 93 -54 11 12 22 13 53 5 37 -10 40 -9 75 26 20 20 41 37 46 37 4 0
31 -20 59 -45 28 -25 62 -48 77 -51 57 -15 85 43 35 73 -34 21 -92 86 -92 103
0 7 14 29 30 50 37 47 57 97 43 111 -15 15 -74 -13 -105 -50 -15 -17 -31 -31
-36 -31 -5 0 -28 29 -51 65 -22 36 -44 65 -49 65 -5 0 -19 -11 -31 -24z"/>
<path d="M12245 1176 c-124 -79 -217 -150 -236 -181 -30 -47 -25 -98 12 -129
46 -39 138 -39 180 0 14 13 29 24 35 24 5 0 20 13 34 30 45 54 63 12 77 -175
2 -38 8 -74 12 -80 13 -17 5 -154 -10 -171 -35 -42 -93 -67 -166 -72 -86 -5
-115 9 -142 68 -10 22 -22 36 -28 32 -17 -12 -23 -56 -12 -95 12 -44 81 -107
118 -107 44 0 172 27 184 39 6 6 19 11 29 11 32 0 94 66 108 116 21 76 7 232
-45 489 -7 39 -16 95 -20 125 -7 61 -31 120 -49 120 -6 0 -42 -20 -81 -44z
m32 -132 c-8 -51 -52 -102 -105 -125 -146 -63 -125 54 23 130 79 41 89 40 82
-5z"/>
<path d="M4665 1201 c-50 -15 -185 -100 -232 -147 -56 -56 -65 -85 -40 -134
16 -31 85 -79 115 -80 23 0 102 73 102 95 0 7 8 23 18 35 17 21 19 21 35 6 9
-10 20 -29 23 -44 16 -67 94 -106 122 -61 12 19 11 24 -11 48 -61 67 -97 152
-97 232 0 52 -5 59 -35 50z m-95 -164 c0 -28 -57 -117 -74 -117 -7 0 -21 9
-32 21 -19 21 -19 21 34 70 60 55 72 59 72 26z"/>
<path d="M12604 1189 c-59 -17 -134 -144 -134 -227 0 -31 7 -45 38 -74 44 -42
78 -62 97 -54 8 3 26 -1 41 -8 74 -39 204 68 204 169 0 73 -54 153 -125 186
-43 20 -73 22 -121 8z m129 -115 c35 -34 43 -78 22 -110 -22 -34 -74 -64 -111
-64 -31 0 -60 21 -47 33 3 4 -1 15 -10 25 -14 15 -15 25 -6 58 21 78 101 109
152 58z"/>
<path d="M4894 1179 c-12 -4 -25 -12 -28 -17 -11 -18 35 -176 60 -209 35 -46
74 -42 132 11 l24 21 21 -30 c36 -51 99 -105 123 -105 14 0 30 10 38 23 28 44
86 217 86 257 0 35 -3 40 -23 40 -37 0 -64 -39 -89 -128 -13 -45 -28 -82 -34
-82 -13 0 -45 43 -69 93 -10 21 -27 43 -38 49 -18 9 -25 6 -49 -23 -15 -18
-28 -37 -28 -41 0 -4 -9 -8 -19 -8 -19 0 -31 18 -31 48 0 26 -31 100 -44 105
-6 2 -21 1 -32 -4z"/>
<path d="M11730 1152 c-9 -4 -36 -21 -61 -39 -47 -32 -59 -53 -79 -132 -10
-39 -9 -46 8 -63 16 -16 25 -18 53 -10 34 9 34 9 31 59 -2 48 0 53 35 82 49
40 74 39 112 -4 49 -57 37 -126 -33 -194 -28 -28 -42 -33 -84 -34 -43 -2 -55
2 -79 26 -37 34 -43 34 -43 -2 0 -22 11 -37 48 -66 42 -33 52 -36 94 -32 30 2
64 15 96 36 121 78 137 245 33 345 -30 29 -99 44 -131 28z"/>
<path d="M2096 1143 c-38 -10 -83 -79 -86 -133 -4 -52 7 -67 63 -93 29 -13 70
-36 91 -50 45 -31 101 -35 146 -12 44 23 58 57 49 117 -8 52 -45 118 -65 118
-6 0 -17 6 -23 14 -18 22 -138 49 -175 39z m129 -98 c44 -21 75 -86 54 -111
-13 -16 -115 -19 -138 -5 -18 11 -41 79 -34 98 12 32 69 41 118 18z"/>
<path d="M13082 938 c-34 -44 -13 -114 36 -120 20 -3 27 5 43 46 19 46 19 50
3 67 -19 22 -67 25 -82 7z"/>
</g>
</svg>
