<?xml version="1.0" standalone="no"?>
<!DOCTYPE svg PUBLIC "-//W3C//DTD SVG 20010904//EN"
 "http://www.w3.org/TR/2001/REC-SVG-20010904/DTD/svg10.dtd">
<svg version="1.0" xmlns="http://www.w3.org/2000/svg"
 width="874.489439pt" height="400.000000pt" viewBox="0 0 874.489439 400.000000"
 preserveAspectRatio="xMidYMid meet">
<metadata>
Created by potrace 1.15, written by Peter Selinger 2001-2017
</metadata>
<g transform="translate(-15.728110,416.484938) scale(0.044312,-0.044312)"
fill="#444444" stroke="none">
<path d="M8288 9393 c-9 -2 -15 -10 -12 -16 12 -34 31 -200 25 -229 -7 -33 -8
-33 -66 -35 -44 -2 -63 -7 -73 -20 -11 -15 -10 -21 9 -35 12 -10 38 -18 58
-18 69 0 68 1 58 -185 -7 -110 -6 -121 11 -132 11 -6 25 -8 32 -3 16 10 28 89
29 195 1 44 5 86 10 93 7 12 57 16 136 9 20 -1 30 3 33 14 2 11 -20 23 -85 45
l-88 29 -13 125 c-11 113 -26 172 -41 169 -3 -1 -14 -3 -23 -6z"/>
<path d="M5802 9376 c-72 -24 -99 -59 -66 -86 12 -11 24 -10 68 3 74 24 160
22 201 -3 66 -41 48 -69 -63 -100 -40 -11 -76 -20 -80 -20 -5 0 -13 17 -18 38
-8 32 -13 37 -41 40 -24 2 -33 -1 -38 -17 -3 -12 -4 -30 0 -41 3 -10 1 -28 -5
-40 -8 -15 -7 -26 2 -42 8 -16 11 -66 9 -159 -2 -135 -2 -136 23 -152 33 -22
37 -14 42 91 7 133 4 131 87 66 40 -31 98 -81 130 -111 67 -63 92 -61 58 5
-24 46 -147 174 -189 196 -25 13 -62 55 -62 71 0 3 9 5 20 5 12 0 50 7 87 17
105 26 159 96 123 163 -5 10 -31 33 -57 51 -41 27 -59 33 -118 35 -42 3 -87
-2 -113 -10z"/>
<path d="M9421 9306 c-42 -9 -56 -16 -63 -35 -5 -14 -6 -32 -2 -40 3 -9 8 -34
10 -56 2 -22 6 -59 9 -82 5 -36 3 -42 -15 -48 -29 -9 -27 -53 4 -64 33 -13 37
-31 26 -118 -9 -72 -9 -79 11 -98 20 -20 20 -20 32 0 13 24 13 24 15 140 l2
91 48 13 c55 17 120 54 144 85 24 29 22 83 -3 121 -25 35 -124 106 -148 104
-9 -1 -40 -6 -70 -13z m137 -92 c55 -47 56 -74 1 -113 -38 -28 -106 -57 -114
-49 -1 1 -5 42 -8 89 -7 96 -1 109 48 109 22 0 45 -11 73 -36z"/>
<path d="M12316 9291 c-6 -9 5 -78 23 -150 5 -20 12 -57 15 -83 l5 -47 -57 5
c-64 4 -100 -11 -89 -39 7 -18 66 -37 116 -37 l33 0 -6 -127 c-7 -138 -2 -162
31 -144 24 12 31 42 40 173 l6 98 41 11 c83 22 85 41 9 59 -64 14 -73 21 -73
65 0 17 -9 62 -20 102 -25 95 -56 143 -74 114z"/>
<path d="M11118 9253 c-15 -17 -28 -44 -94 -190 -16 -35 -31 -63 -35 -63 -17
0 -33 35 -69 155 -28 93 -42 112 -74 97 -28 -13 -34 -52 -35 -257 0 -72 -7
-169 -16 -215 -14 -81 -13 -86 5 -104 42 -43 65 30 76 247 4 70 10 124 14 120
4 -4 13 -27 20 -51 15 -47 31 -65 63 -68 33 -3 67 23 83 64 8 20 19 46 23 57
5 11 14 35 21 53 7 17 16 32 21 32 5 0 9 -15 9 -32 1 -53 10 -209 16 -255 3
-27 10 -43 19 -43 7 0 15 -5 17 -12 3 -7 12 -9 22 -5 16 6 17 14 10 65 -4 31
-7 68 -7 82 2 71 -21 270 -36 303 -17 41 -30 46 -53 20z"/>
<path d="M11427 9192 c-18 -20 -23 -47 -7 -37 6 4 10 -6 10 -23 0 -28 26 -62
47 -62 6 0 16 14 23 30 11 27 10 34 -14 70 -30 45 -36 47 -59 22z"/>
<path d="M8715 9134 c-5 -1 -26 -5 -46 -8 -20 -4 -48 -17 -63 -31 -23 -21 -25
-29 -19 -72 4 -34 16 -60 40 -87 18 -22 33 -43 33 -46 0 -10 -73 -30 -109 -30
-18 0 -42 5 -53 11 -31 16 -45 -3 -28 -37 20 -36 51 -45 127 -38 132 14 159
85 73 189 -32 37 -31 54 0 70 16 8 38 15 49 15 22 0 54 27 48 43 -4 12 -37 25
-52 21z"/>
<path d="M7980 9081 c-66 -14 -120 -51 -120 -85 0 -37 37 -83 94 -117 30 -19
54 -38 52 -44 -4 -14 -64 -25 -177 -33 -66 -5 -103 -12 -115 -23 -33 -28 -101
-42 -140 -29 -19 6 -34 15 -34 18 0 4 32 20 70 36 74 31 117 68 120 101 5 43
-1 58 -34 91 -30 30 -41 34 -83 34 -59 0 -114 -35 -164 -103 -27 -37 -30 -48
-27 -98 5 -67 30 -104 91 -131 60 -28 115 -27 175 1 29 14 52 31 52 39 0 10 7
12 33 6 39 -10 113 -10 184 0 70 10 129 59 119 99 -4 17 -22 37 -49 53 -46 29
-97 78 -97 94 0 19 46 34 110 34 62 1 65 2 68 27 2 20 -2 28 -20 33 -28 7 -61
6 -108 -3z m-328 -118 c10 -9 18 -26 18 -37 0 -39 -119 -97 -165 -80 -32 13 3
80 60 115 37 23 63 24 87 2z"/>
<path d="M6242 9037 c-46 -47 -68 -126 -53 -192 26 -114 155 -160 269 -95 46
27 51 33 42 50 -10 19 -11 19 -53 0 -59 -27 -101 -25 -148 8 -47 33 -49 42 -8
42 56 0 138 30 170 62 25 26 30 37 25 62 -15 73 -51 96 -150 96 -57 0 -65 -3
-94 -33z m166 -45 c37 -24 28 -48 -25 -66 -46 -16 -114 -21 -125 -10 -11 10
11 68 29 79 45 26 77 26 121 -3z"/>
<path d="M6710 8982 c-83 -54 -180 -151 -180 -180 0 -10 11 -29 24 -42 20 -18
36 -23 88 -23 53 -1 70 4 108 29 25 16 52 35 60 43 13 13 16 9 22 -30 3 -24 7
-106 7 -182 1 -137 1 -137 26 -149 22 -10 29 -8 50 12 14 13 35 44 47 69 12
25 37 69 56 98 34 52 37 85 8 96 -16 6 -58 -31 -82 -73 -23 -39 -34 -38 -35 3
-1 17 -2 68 -3 112 -4 109 -16 214 -28 221 -5 3 -15 1 -23 -6 -11 -9 -14 -6
-17 17 -5 45 -41 41 -128 -15z m104 -70 c-2 -33 -16 -49 -84 -96 -27 -18 -44
-23 -72 -19 -22 3 -38 11 -38 18 0 17 96 103 134 120 46 20 61 15 60 -23z"/>
<path d="M9768 9020 c-50 -15 -97 -72 -110 -133 -13 -62 -5 -89 39 -131 13
-11 23 -26 23 -31 0 -17 84 -62 135 -73 54 -12 100 0 115 28 6 10 10 20 10 22
0 2 -28 3 -63 3 -50 0 -72 6 -110 28 -78 46 -79 86 -2 95 43 5 113 30 141 50
30 22 33 81 5 106 -31 29 -138 50 -183 36z m116 -70 c30 -11 34 -35 9 -45 -10
-4 -43 -11 -73 -15 -30 -4 -65 -11 -77 -15 -19 -6 -23 -4 -23 12 0 11 9 32 21
47 17 22 28 26 69 26 27 0 60 -4 74 -10z"/>
<path d="M12643 9003 c-42 -27 -78 -78 -101 -145 -11 -32 -10 -42 2 -65 37
-72 122 -116 225 -117 61 0 76 3 87 19 8 11 13 24 11 30 -2 5 -39 16 -83 22
-118 19 -120 19 -132 27 -22 13 -12 24 42 45 89 37 128 95 105 160 -8 23 -20
33 -47 41 -53 14 -64 13 -109 -17z m97 -64 c0 -22 -5 -32 -20 -36 -11 -3 -20
-9 -20 -14 0 -5 -9 -9 -19 -9 -11 0 -23 -4 -26 -10 -12 -19 -35 -10 -35 14 0
29 64 86 97 86 19 0 23 -5 23 -31z"/>
<path d="M11389 9004 c-19 -23 -24 -236 -7 -276 15 -33 36 -44 45 -21 3 9 7
82 7 162 1 126 -1 146 -15 149 -9 1 -22 -5 -30 -14z"/>
<path d="M10131 9003 c-32 -13 -79 -73 -96 -122 -20 -60 -16 -125 9 -150 25
-24 44 3 51 74 4 33 11 72 17 87 14 37 66 53 126 40 37 -9 44 -8 53 9 8 16 6
19 -11 19 -11 0 -20 6 -20 13 0 7 -20 18 -45 25 -48 13 -62 14 -84 5z"/>
<path d="M7051 8972 c-40 -57 -20 -160 39 -202 43 -31 99 -20 140 26 16 19 30
39 30 44 0 24 17 6 31 -32 11 -30 24 -46 42 -52 38 -14 53 3 39 41 -6 15 -18
63 -28 106 -21 94 -35 109 -70 76 -14 -13 -36 -44 -49 -69 -24 -46 -60 -90
-73 -90 -5 0 -16 6 -26 13 -14 10 -19 28 -20 75 -1 42 -6 66 -17 78 -15 14
-18 13 -38 -14z"/>
<path d="M12096 8978 c-10 -6 -38 -52 -61 -102 -50 -105 -66 -124 -85 -101
-12 14 -11 138 1 185 3 10 -5 16 -23 18 -35 4 -43 -15 -53 -119 -6 -61 -4 -82
9 -107 45 -87 131 -61 188 57 l22 45 19 -44 c21 -49 63 -100 83 -100 25 0 26
23 6 69 -12 25 -30 78 -42 117 -23 81 -36 98 -64 82z"/>
<path d="M11636 8969 c-28 -17 -53 -45 -70 -78 -29 -55 9 -171 55 -171 17 0
26 42 18 89 -13 78 -11 91 16 103 49 22 92 -46 87 -138 -2 -29 3 -48 18 -65
20 -24 20 -24 35 -5 36 47 3 189 -59 251 -27 27 -68 32 -100 14z"/>
<path d="M1397 8203 c-16 -4 -17 -16 -12 -136 7 -195 13 -312 21 -402 4 -44 7
-96 7 -115 0 -19 4 -111 9 -205 4 -93 10 -251 13 -350 2 -99 7 -279 10 -400 4
-175 5 -472 4 -940 0 -5 2 -181 6 -391 3 -210 8 -576 10 -815 3 -239 7 -450 9
-469 9 -72 17 -483 21 -1020 2 -305 9 -620 15 -700 6 -80 12 -266 15 -415 2
-172 8 -282 16 -303 8 -23 10 -79 5 -183 -5 -145 -5 -149 16 -160 18 -9 24 -8
34 6 18 24 28 116 21 196 -4 49 -2 71 7 78 9 8 101 11 277 11 145 -1 282 1
304 4 22 3 125 11 229 16 104 6 250 17 325 26 75 8 165 17 201 18 36 2 107 9
158 16 58 8 97 9 103 3 5 -5 10 -71 12 -147 2 -119 4 -140 19 -150 12 -7 21
-7 28 0 5 5 12 77 15 159 3 82 7 150 9 152 2 2 52 5 112 7 156 6 320 14 549
27 110 7 265 13 345 14 80 2 190 6 245 10 168 11 334 15 339 7 2 -4 0 -32 -4
-62 -4 -30 -11 -92 -14 -138 -6 -81 -6 -82 19 -94 16 -7 29 -8 34 -2 8 9 23
157 25 256 1 26 4 49 7 52 3 3 90 13 195 21 104 9 209 18 234 20 25 2 86 6
135 9 50 3 104 8 120 10 59 8 850 16 862 8 14 -9 19 -123 8 -197 -7 -48 -5
-51 19 -65 18 -9 30 -10 37 -3 5 5 10 58 10 118 1 59 4 117 8 127 7 19 21 20
577 17 313 -1 601 -3 639 -4 140 -6 289 -16 299 -22 5 -4 44 -6 85 -5 42 1 82
-2 90 -7 12 -8 12 -28 3 -132 -12 -129 -8 -149 29 -149 29 0 33 18 39 153 l5
129 222 3 c122 2 227 6 233 10 5 3 95 8 198 10 103 2 259 6 347 10 88 4 192 8
230 9 97 3 318 15 387 22 32 3 59 1 62 -5 4 -5 7 -72 7 -148 1 -140 7 -163 39
-163 25 0 30 27 30 177 0 82 4 134 11 138 5 4 117 6 247 5 281 -3 313 -2 326
10 6 4 31 5 55 0 23 -4 98 -6 166 -4 68 3 134 0 149 -5 14 -6 26 -7 26 -2 0 5
10 9 23 9 38 1 348 3 432 2 l81 0 -1 -136 c-1 -113 2 -140 15 -157 22 -27 50
-16 51 20 1 15 2 83 3 150 1 67 4 125 8 128 3 4 109 6 235 5 125 -1 242 -1
258 0 17 1 37 1 45 1 76 -6 650 -7 665 -1 11 4 47 4 80 0 33 -4 74 -2 92 3 58
18 65 3 62 -146 -3 -127 -3 -131 19 -140 15 -7 26 -7 33 0 5 5 11 71 12 149 2
133 3 139 22 136 64 -8 540 -10 555 -2 10 5 21 5 26 0 5 -5 56 -6 119 -2 61 5
155 5 209 2 73 -4 103 -2 112 7 14 15 34 17 34 5 0 -5 55 -10 123 -11 67 -2
169 -5 227 -7 69 -2 113 0 128 8 18 9 28 9 42 0 11 -7 29 -12 41 -12 16 0 19
-4 15 -17 -6 -14 -25 -180 -26 -220 0 -7 11 -20 26 -29 34 -23 47 -8 50 57 4
86 15 185 23 197 4 7 20 14 37 16 16 3 43 9 59 14 21 6 33 5 40 -3 7 -8 41
-10 120 -5 61 4 290 4 510 2 220 -3 478 -5 574 -5 l174 0 -6 -121 c-6 -119 -5
-121 18 -138 21 -16 25 -16 39 -2 16 15 17 27 22 178 1 68 4 81 21 87 50 18
555 32 1146 30 l317 -1 0 -138 c0 -123 2 -141 19 -156 17 -16 20 -16 35 -1 12
12 16 38 17 103 1 48 2 110 3 137 l1 50 70 -2 c39 -1 162 -4 275 -7 200 -6
283 -7 484 -7 54 0 128 -4 163 -9 36 -5 74 -5 84 -1 11 4 72 2 135 -5 64 -6
139 -9 167 -7 92 8 96 3 102 -115 5 -113 22 -155 59 -150 14 2 20 10 19 23 -1
11 -4 80 -8 154 -3 75 -11 141 -17 148 -8 9 -48 13 -147 13 -75 0 -154 5 -176
10 -22 6 -171 10 -332 11 -161 0 -307 4 -325 10 -67 19 -217 24 -773 23 -552
-1 -885 -7 -1030 -19 -38 -3 -97 -8 -130 -10 -33 -2 -89 -8 -125 -13 -36 -5
-144 -7 -240 -6 -516 9 -1359 2 -1381 -11 -4 -3 -20 0 -35 5 -21 8 -31 7 -45
-6 -13 -11 -27 -14 -46 -10 -75 18 -828 22 -928 6 -5 -1 -34 2 -62 6 -37 5
-53 3 -53 -4 0 -8 -8 -9 -22 -3 -34 12 -390 10 -406 -2 -8 -7 -16 -7 -20 -1
-11 15 -200 18 -218 3 -13 -11 -18 -10 -25 4 -8 13 -15 14 -36 6 -17 -6 -36
-6 -58 1 -31 10 -111 4 -119 -9 -3 -4 -35 -4 -73 0 -37 3 -73 2 -79 -3 -6 -4
-14 -5 -18 -1 -3 4 -65 7 -136 7 -98 1 -130 -2 -130 -11 0 -7 -5 -13 -11 -13
-6 0 -9 6 -6 14 8 20 -57 26 -118 10 -54 -15 -91 -10 -99 12 -4 11 -11 12 -33
3 -15 -6 -53 -9 -83 -7 -50 3 -55 1 -52 -17 3 -20 2 -20 -13 0 -14 18 -29 20
-193 20 -97 1 -181 -2 -187 -5 -5 -4 -41 -4 -80 -1 -38 4 -135 6 -215 5 -80
-1 -179 -2 -220 -2 -462 0 -1238 -12 -1289 -21 -31 -4 -67 -8 -81 -8 -42 1
-599 -18 -1058 -36 -160 -7 -292 -10 -292 -7 0 3 -85 6 -189 8 -202 3 -274 6
-287 15 -5 3 -40 5 -79 5 -38 1 -257 4 -485 7 -517 7 -1573 8 -1700 2 -127 -6
-247 -16 -290 -22 -19 -3 -150 -13 -290 -21 -140 -9 -273 -18 -295 -21 -54 -5
-197 -10 -455 -17 -118 -3 -258 -10 -310 -16 -52 -5 -194 -12 -315 -15 -278
-7 -577 -23 -669 -36 -39 -5 -102 -12 -141 -14 -38 -3 -110 -10 -160 -15 -350
-37 -1106 -62 -1132 -37 -4 5 -11 131 -14 280 -4 150 -12 353 -18 452 -6 99
-13 437 -17 750 -3 314 -7 606 -8 650 -2 44 -6 188 -11 320 -10 324 -12 1211
-2 1221 4 5 18 -5 31 -21 27 -33 46 -27 46 16 0 36 27 49 100 49 38 0 52 5 63
20 12 18 15 18 20 5 9 -21 40 -19 55 5 10 17 15 18 32 8 24 -15 39 1 40 42 1
23 2 23 15 -7 15 -36 35 -42 60 -17 12 13 19 14 30 4 12 -10 18 -10 30 0 13
11 20 11 39 0 34 -18 43 -8 51 61 7 63 16 73 17 20 2 -52 22 -58 68 -21 22 17
40 40 40 51 0 25 12 24 28 -2 11 -16 16 -18 28 -9 8 7 14 19 14 27 0 11 6 8
18 -7 l19 -23 16 24 c11 14 17 44 18 79 1 91 15 104 22 20 3 -40 12 -79 19
-86 21 -21 40 -1 45 50 6 54 14 58 30 15 15 -38 35 -34 48 9 11 37 24 41 32
12 9 -35 38 -20 41 23 4 41 8 44 33 21 31 -28 49 -11 50 48 1 34 4 42 6 23 6
-40 22 -58 46 -51 33 8 72 -5 82 -27 8 -17 19 -22 47 -22 20 -1 40 -4 44 -8 4
-4 16 0 26 9 17 16 19 15 39 -11 20 -24 23 -25 31 -10 9 15 11 15 28 0 26 -24
59 -11 67 26 5 28 7 29 29 14 21 -14 24 -13 34 4 5 11 11 37 11 58 1 28 3 31
6 13 6 -33 21 -50 44 -50 12 0 19 7 19 20 0 31 15 24 25 -12 16 -52 48 -50 70
4 15 38 18 41 25 22 5 -12 15 -24 23 -27 29 -11 42 23 45 114 4 88 22 117 22
35 0 -31 6 -48 21 -62 23 -20 21 -21 56 33 10 16 12 13 12 -19 1 -24 8 -45 21
-58 26 -26 39 -25 50 5 11 28 20 31 38 13 10 -10 15 -8 27 9 10 14 22 19 38
16 17 -3 26 2 37 21 12 23 15 25 30 11 26 -24 47 -18 59 16 8 23 15 30 27 25
9 -4 27 0 39 8 19 13 23 12 33 -5 27 -43 72 -12 72 50 0 28 2 30 19 19 15 -9
23 -9 34 0 11 10 20 9 43 -3 26 -13 29 -13 44 9 13 20 17 22 28 10 22 -24 53
-17 65 16 l11 30 22 -27 c31 -40 51 -19 59 63 7 63 21 85 27 42 4 -28 45 -38
54 -13 6 14 8 13 18 -6 32 -63 76 -48 91 32 6 30 14 48 18 42 4 -7 5 -24 1
-38 -7 -30 10 -55 38 -55 10 0 21 7 24 15 5 13 9 13 27 0 15 -10 25 -11 40 -3
16 8 22 7 29 -6 11 -20 51 -21 68 -1 6 8 14 41 17 75 6 60 16 73 41 48 7 -7
12 -20 12 -30 0 -23 36 -24 48 -2 11 20 22 6 27 -32 1 -14 5 -28 9 -31 12 -13
41 13 53 48 7 19 12 26 12 17 1 -17 50 -58 70 -58 6 0 13 11 17 25 7 28 19 32
28 10 9 -25 33 -17 48 15 16 37 28 39 28 5 0 -14 7 -28 15 -31 20 -8 45 14 45
39 0 21 0 21 15 0 17 -25 40 -21 66 11 16 20 16 20 28 -2 16 -29 39 -28 53 3
12 26 23 31 33 15 18 -30 55 13 55 65 0 34 17 40 18 7 6 -105 6 -107 30 -110
36 -5 50 14 57 78 7 60 25 74 25 21 0 -16 7 -34 16 -41 28 -24 46 10 55 102 4
46 11 97 17 113 8 26 10 27 15 10 7 -26 20 -102 22 -138 6 -88 75 -43 75 49 0
19 4 34 9 34 15 0 31 -106 19 -126 -6 -9 13 -58 27 -73 3 -2 12 2 21 10 15 12
19 11 32 -9 29 -44 62 -23 62 39 0 16 5 29 10 29 6 0 10 -10 10 -23 0 -13 5
-28 12 -35 17 -17 58 -15 63 3 3 8 8 23 12 33 6 15 7 15 10 -3 4 -24 42 -51
53 -38 15 17 30 77 30 121 0 52 10 49 19 -5 12 -74 71 -43 71 37 0 35 15 40
24 8 6 -28 44 -54 58 -40 5 5 11 26 14 48 10 77 15 89 25 73 5 -7 9 -27 9 -44
0 -41 35 -96 55 -89 9 4 19 19 22 35 6 33 6 33 34 17 18 -12 23 -9 45 17 21
26 24 28 24 9 0 -24 18 -44 41 -44 20 0 36 38 44 105 10 88 28 180 37 189 9
11 14 -67 9 -155 -2 -48 1 -61 22 -85 24 -28 26 -28 45 -11 25 22 34 67 34
167 0 77 8 108 25 97 6 -4 7 -25 2 -54 -4 -26 -8 -74 -8 -106 -1 -63 15 -81
50 -59 10 7 25 12 33 12 22 0 40 29 47 79 l6 46 2 -56 c1 -43 6 -60 22 -75 21
-19 22 -19 36 3 l15 23 17 -22 c14 -17 21 -19 39 -9 14 7 29 8 47 1 22 -8 27
-7 37 15 l11 25 23 -21 22 -21 21 21 c12 12 21 29 22 39 1 11 4 8 8 -8 10 -37
58 -41 67 -6 5 21 9 23 24 14 26 -16 50 -3 56 32 7 30 24 42 24 16 0 -20 38
-30 55 -16 8 7 15 25 15 41 0 15 5 31 10 34 6 4 10 -9 10 -33 0 -46 22 -72 48
-55 20 12 35 42 55 108 l15 50 1 -66 c1 -36 6 -70 13 -77 19 -19 46 -14 53 9
5 15 10 18 18 10 14 -14 50 -14 64 0 8 8 14 5 22 -10 14 -25 59 -29 66 -6 16
51 16 51 30 18 9 -21 21 -33 34 -33 26 0 60 57 70 117 5 26 13 59 19 73 l11
25 1 -30 c1 -50 30 -199 40 -209 6 -6 17 -3 29 8 14 13 21 37 26 84 8 86 15
122 23 122 7 0 9 -15 16 -95 5 -59 16 -85 37 -85 28 0 39 32 46 125 6 91 23
117 23 37 0 -89 52 -111 74 -31 12 45 13 45 37 23 20 -18 21 -18 38 5 15 20
19 21 30 7 17 -20 51 -21 51 -1 0 22 15 18 32 -7 14 -20 17 -21 33 -8 9 8 21
23 25 35 7 19 8 18 20 -7 9 -18 21 -28 36 -28 24 0 34 17 34 58 0 15 4 34 10
42 14 22 24 -12 16 -55 -6 -28 -3 -37 10 -42 10 -4 22 0 29 10 20 28 38 24 39
-8 1 -43 30 -45 56 -3 11 18 20 44 20 58 1 22 3 20 17 -12 10 -25 22 -38 34
-38 23 0 35 27 44 93 7 55 20 61 29 13 7 -39 33 -54 54 -32 8 8 20 36 27 63
l12 48 12 -40 c6 -22 11 -54 11 -70 0 -56 47 -76 68 -30 7 14 12 40 12 58 0
18 5 39 10 47 7 11 10 6 10 -20 0 -40 7 -54 34 -63 26 -10 45 9 52 54 8 45 24
42 24 -5 0 -17 5 -37 12 -44 16 -16 45 -15 51 1 3 8 10 5 22 -10 20 -29 29
-29 55 -1 l20 22 0 -27 c0 -29 34 -71 53 -64 7 2 16 17 21 34 6 18 20 37 32
44 23 12 34 36 34 78 0 23 1 24 20 6 10 -9 26 -15 34 -12 14 5 36 64 36 95 0
29 19 -1 30 -47 15 -62 43 -99 64 -82 7 6 17 26 21 44 l8 32 6 -39 c4 -24 14
-44 28 -53 20 -14 23 -13 37 16 9 16 16 41 16 54 0 32 10 40 25 21 10 -14 14
-15 33 -3 13 8 28 29 34 47 7 17 16 32 21 32 5 0 7 -7 3 -15 -7 -19 13 -65 28
-65 30 0 55 33 67 88 19 89 33 89 25 0 -5 -67 -3 -79 14 -100 l20 -23 25 28
25 28 0 -29 c0 -33 22 -57 45 -49 19 8 45 71 45 113 0 46 18 43 22 -2 2 -22
10 -41 21 -48 14 -9 22 -5 43 22 14 17 34 32 45 32 13 0 19 7 19 21 0 12 5 19
13 16 6 -2 11 -10 9 -17 -4 -16 17 -40 34 -40 8 0 20 11 26 25 7 15 17 24 25
21 20 -8 44 4 53 28 9 21 11 8 14 -72 1 -27 48 -56 65 -39 6 6 11 21 11 32 0
35 12 37 32 5 15 -26 21 -29 38 -20 11 6 23 25 28 43 6 21 14 31 25 29 18 -3
47 34 47 61 0 10 5 15 11 12 6 -4 8 -13 5 -21 -9 -23 11 -61 34 -67 17 -4 26
1 38 23 14 24 21 27 47 23 30 -5 33 -2 49 41 10 25 15 50 12 55 -4 5 -2 12 3
15 5 3 12 26 16 52 11 74 17 44 19 -87 1 -113 3 -123 23 -136 20 -14 23 -13
37 16 9 16 16 41 16 54 0 13 7 32 15 43 13 18 14 16 15 -27 0 -55 29 -91 55
-69 8 7 15 19 15 26 0 8 5 14 10 14 6 0 10 -6 10 -14 0 -23 38 -27 46 -4 5 16
12 19 39 14 31 -6 34 -5 46 31 l12 38 10 -30 c20 -62 74 -96 95 -58 9 15 13
13 36 -13 l26 -29 25 30 c19 23 27 27 37 17 29 -29 77 -2 78 43 0 16 4 13 20
-13 20 -33 20 -33 45 -15 13 10 29 32 36 48 12 34 15 30 24 -36 5 -37 11 -48
28 -53 12 -3 28 1 38 10 16 14 18 13 24 -15 4 -17 10 -31 15 -31 5 0 15 -3 24
-6 11 -4 16 -1 16 10 0 9 5 16 10 16 6 0 10 6 10 14 0 9 8 12 25 8 20 -3 25
-10 25 -33 0 -15 11 -41 24 -56 l24 -28 24 22 c16 15 28 19 38 13 20 -11 32
-3 55 37 19 33 40 35 30 4 -3 -11 3 -25 15 -36 19 -18 21 -18 40 0 11 10 29
46 40 79 17 56 19 58 19 25 2 -103 14 -158 37 -174 29 -19 49 -11 64 25 10 25
14 27 26 15 8 -7 14 -18 14 -24 0 -17 31 -13 52 6 15 14 23 15 37 6 23 -14 42
-2 65 42 l15 30 1 -32 c0 -44 20 -83 41 -83 25 0 55 43 63 90 9 59 21 42 24
-34 2 -75 12 -102 43 -111 30 -10 46 10 63 80 l14 60 1 -73 c1 -49 6 -81 17
-97 20 -31 29 -31 49 -1 16 24 20 38 31 111 10 67 14 53 14 -51 1 -109 10
-134 54 -134 21 0 30 8 47 45 12 25 25 45 29 45 5 0 14 -33 21 -74 10 -58 17
-76 31 -80 26 -6 32 14 25 83 -6 50 -4 61 13 76 27 25 33 15 21 -36 -6 -24
-11 -60 -11 -79 0 -20 -5 -41 -11 -47 -15 -15 -4 -43 15 -43 17 0 46 48 46 77
1 10 7 29 14 42 l13 24 19 -32 c10 -17 21 -31 24 -31 21 1 50 46 50 79 0 12 5
21 10 21 6 0 10 -12 10 -27 0 -16 9 -39 19 -53 19 -23 20 -24 39 -7 18 17 20
17 35 -5 13 -19 18 -21 35 -11 22 13 44 0 36 -22 -3 -6 2 -18 12 -25 13 -12
17 -12 25 0 27 46 27 46 42 26 31 -42 66 2 82 102 4 23 11 42 16 42 8 0 11
-20 13 -104 1 -16 9 -34 19 -40 15 -9 21 -7 37 14 11 14 23 42 26 63 9 50 21
36 28 -33 7 -64 16 -76 45 -61 12 7 21 10 22 9 0 -2 2 -10 4 -19 12 -65 33
-76 61 -34 23 35 36 31 30 -9 -4 -24 -1 -38 13 -50 16 -15 19 -14 41 9 26 28
40 32 40 11 0 -7 6 -19 14 -25 11 -10 19 -7 35 10 12 13 21 33 21 45 0 12 3
30 6 39 6 14 8 13 21 -5 20 -28 41 -25 61 10 22 39 32 38 32 -3 0 -64 42 -76
67 -19 23 49 23 49 34 32 5 -8 7 -40 4 -70 -5 -49 -3 -56 17 -69 19 -12 24
-11 40 9 10 12 21 34 24 49 17 76 27 65 28 -30 1 -58 5 -74 19 -83 15 -9 23
-6 43 17 13 15 24 40 25 55 1 25 2 24 11 -8 23 -82 40 -98 68 -65 16 20 30 3
30 -36 0 -15 7 -32 15 -39 13 -10 19 -10 35 5 11 10 20 24 20 32 0 25 18 13
24 -17 6 -35 25 -38 51 -10 24 26 35 25 35 -3 0 -24 28 -57 48 -57 18 0 49 52
63 109 l13 53 17 -73 c9 -41 20 -82 24 -91 12 -30 43 -21 63 18 12 23 22 33
26 25 10 -16 41 -14 57 5 12 14 14 14 20 -3 4 -10 8 -34 8 -54 2 -69 49 -81
81 -19 11 21 20 47 20 56 0 43 10 1 14 -59 5 -70 19 -107 40 -107 17 0 42 28
56 65 12 30 12 30 23 8 17 -37 47 -40 71 -7 l21 29 5 -44 c7 -59 33 -76 60
-41 11 14 20 35 20 47 0 12 5 25 12 29 8 5 9 -2 5 -25 -13 -62 34 -96 67 -49
l16 22 0 -21 c0 -34 21 -73 40 -73 9 0 23 11 30 25 l13 25 15 -31 c19 -37 41
-48 54 -26 14 26 28 20 28 -12 0 -85 88 -53 110 40 7 28 8 22 9 -36 1 -62 4
-72 26 -88 14 -10 30 -15 36 -11 13 8 53 95 63 138 6 23 9 27 17 15 5 -7 9
-26 9 -41 0 -15 10 -36 22 -48 l22 -20 28 33 c15 17 30 42 34 55 11 41 23 23
17 -27 -7 -64 2 -98 29 -107 16 -5 27 -1 39 15 14 18 18 18 23 5 3 -9 6 -37 6
-62 0 -37 5 -50 20 -60 28 -17 40 -7 40 34 0 27 4 34 19 34 11 0 26 9 34 20
16 23 27 17 27 -15 0 -22 28 -55 46 -55 19 0 54 67 54 103 0 20 5 37 10 37 11
0 13 -12 10 -48 -1 -21 33 -61 54 -62 13 0 35 32 36 53 0 10 5 15 10 12 6 -4
8 -10 5 -15 -8 -13 15 -68 32 -74 20 -8 40 9 62 53 l19 35 7 -42 c8 -51 36
-64 69 -33 l22 21 13 -48 c15 -54 51 -82 72 -56 9 12 14 8 28 -18 23 -44 45
-56 68 -36 17 16 20 15 42 -8 18 -19 26 -22 37 -13 8 7 16 10 17 8 1 -2 9 -16
17 -31 7 -16 19 -28 25 -28 16 0 51 40 59 67 7 22 7 22 27 2 23 -23 37 -24 61
-2 17 15 18 14 24 -16 16 -76 83 -48 105 42 10 41 14 48 20 32 4 -11 8 -34 8
-52 1 -18 11 -44 25 -60 l24 -27 30 32 31 33 11 -40 c6 -22 15 -43 21 -47 13
-8 49 24 61 55 7 18 12 21 20 13 18 -18 27 -15 58 18 l28 30 7 -46 c4 -29 16
-56 31 -71 18 -18 24 -35 24 -71 0 -31 7 -56 19 -72 19 -23 20 -24 39 -7 25
23 32 22 32 -5 1 -32 25 -60 47 -56 10 2 28 24 42 52 l23 50 18 -24 c32 -42
76 1 89 87 l7 48 8 -73 c5 -45 15 -81 26 -95 17 -21 19 -21 37 -5 10 9 24 38
31 65 25 90 29 92 36 21 4 -36 14 -74 21 -85 13 -17 15 -17 37 5 13 12 28 41
35 65 l11 42 1 -39 c1 -21 10 -54 22 -72 17 -28 24 -32 39 -24 9 5 25 28 34
50 19 47 31 53 22 9 -4 -24 -1 -35 20 -55 20 -21 27 -24 40 -13 18 15 44 74
44 101 0 11 4 16 11 12 6 -3 8 -16 5 -28 -3 -12 -1 -39 5 -60 9 -32 14 -37 37
-34 25 3 40 21 58 73 6 17 8 14 15 -15 4 -19 5 -38 2 -43 -3 -5 0 -20 8 -33
20 -38 65 -33 83 9 8 17 20 46 27 62 l14 30 3 -37 c6 -65 63 -72 91 -11 15 32
31 29 31 -5 0 -59 63 -78 77 -24 6 24 7 25 14 7 4 -11 8 -36 8 -56 1 -46 21
-74 50 -66 18 4 21 1 21 -23 0 -21 6 -29 25 -34 37 -9 42 -3 50 59 6 51 8 54
27 44 16 -9 24 -8 36 4 13 14 13 23 -2 89 -33 140 -33 140 -75 136 -20 -3 -44
-8 -53 -12 -14 -6 -17 1 -23 51 -9 79 -11 83 -39 83 -17 0 -30 -9 -40 -27
l-15 -28 -1 30 c-2 100 -58 101 -90 3 -14 -45 -23 -47 -39 -12 -11 24 -13 25
-34 12 -12 -8 -36 -36 -54 -63 l-32 -48 -6 39 c-17 103 -24 114 -60 90 -15
-10 -30 -27 -33 -38 -4 -15 -7 -17 -13 -6 -5 7 -9 23 -9 35 0 21 -24 53 -40
53 -5 0 -22 -11 -38 -25 -38 -32 -42 -31 -42 4 0 16 -7 34 -15 41 -21 18 -64
-12 -72 -50 -3 -16 -11 -34 -18 -40 -9 -8 -14 0 -18 36 -2 25 -9 50 -15 56
-16 16 -57 1 -70 -24 -10 -22 -11 -22 -17 9 -10 44 -48 51 -75 13 -11 -16 -20
-34 -20 -42 0 -15 -19 -38 -32 -38 -4 0 -8 15 -8 34 0 19 -3 41 -6 50 -8 20
-52 21 -75 1 -15 -15 -17 -13 -23 19 -9 48 -31 64 -56 41 -11 -10 -20 -23 -20
-29 0 -6 -11 -33 -25 -61 l-24 -50 1 60 c1 75 -14 110 -42 95 -10 -6 -23 -16
-27 -23 -5 -7 -10 3 -13 28 -5 41 -20 49 -61 31 -13 -6 -18 0 -23 28 -8 41
-39 64 -61 46 -11 -9 -15 -7 -21 15 -5 22 -11 26 -37 23 -26 -3 -32 -9 -42
-43 -12 -40 -12 -40 -20 -12 -4 15 -11 27 -17 27 -19 0 -57 -50 -74 -99 -10
-28 -21 -51 -24 -51 -3 0 -7 14 -8 31 -1 17 -9 46 -17 66 -11 27 -19 34 -37
31 -12 -2 -28 -14 -34 -26 -25 -50 -34 -48 -34 4 0 65 -24 92 -58 68 -13 -9
-24 -30 -28 -55 -10 -60 -24 -57 -24 4 0 66 -24 104 -58 93 -15 -5 -22 -16
-23 -34 -1 -29 -3 -24 -13 21 -11 48 -57 32 -71 -26 -9 -33 -22 -35 -27 -4 -2
14 -11 23 -25 25 -18 3 -24 -4 -33 -37 -15 -57 -28 -51 -22 9 5 53 -8 80 -37
80 -29 0 -44 -17 -50 -56 -3 -20 -11 -39 -18 -41 -8 -3 -12 15 -11 64 1 37 -2
78 -6 91 -14 42 -75 16 -63 -28 3 -10 -1 -24 -9 -31 -8 -6 -14 -10 -14 -8 -1
2 -3 29 -5 60 -3 31 -9 68 -15 83 -10 26 -10 27 -33 9 -13 -9 -30 -40 -39 -68
l-16 -50 -1 36 c-1 44 -29 83 -53 74 -20 -8 -51 -99 -43 -126 6 -18 -9 -49
-24 -49 -3 0 -7 37 -9 83 -4 90 -18 121 -46 97 -9 -7 -16 -25 -16 -41 0 -15
-4 -30 -9 -33 -5 -3 -9 -21 -10 -38 -1 -50 -15 -101 -29 -106 -12 -4 -14 8
-17 98 -4 98 -5 100 -22 100 -34 0 -44 -17 -49 -79 -2 -35 -12 -77 -22 -94
-17 -32 -17 -31 -20 103 -1 74 -7 139 -12 144 -15 15 -58 -20 -65 -54 -9 -39
-21 -31 -29 20 -3 23 -13 43 -22 47 -23 9 -60 -33 -74 -83 -7 -24 -16 -47 -20
-49 -4 -3 -11 27 -14 66 -6 59 -11 71 -29 79 -31 11 -49 -9 -67 -76 -9 -30
-20 -55 -25 -55 -6 1 -10 39 -10 89 0 83 -1 87 -23 90 -35 5 -50 -14 -74 -92
-14 -44 -24 -63 -26 -51 -2 11 -8 25 -14 32 -6 7 -5 14 2 18 11 7 13 60 4 129
-10 69 -43 61 -68 -17 -5 -17 -7 -17 -22 -3 -31 31 -55 16 -72 -44 l-10 -35
-2 30 c-5 81 -19 145 -32 145 -7 0 -22 -10 -35 -22 l-23 -21 0 21 c0 12 -10
26 -21 33 -35 18 -47 -1 -66 -103 -3 -16 -9 -28 -13 -28 -5 0 -6 8 -3 19 3 10
-6 30 -20 47 -21 24 -27 27 -41 15 -9 -7 -16 -21 -16 -30 -1 -12 -29 52 -30
67 0 1 -6 2 -13 2 -23 0 -44 -32 -52 -77 -3 -22 -12 -49 -19 -59 -11 -14 -14
-3 -20 70 -3 48 -11 96 -16 107 -14 24 -40 25 -40 0 0 -10 -6 -24 -14 -30 -7
-6 -16 -29 -20 -51 -10 -66 -26 -58 -26 14 0 45 -5 69 -15 80 -17 17 -43 11
-62 -13 -10 -14 -12 -14 -18 2 -4 9 -17 17 -30 17 -23 0 -37 -22 -51 -82 -11
-47 -20 -31 -32 54 -7 45 -16 86 -21 91 -18 18 -49 -3 -54 -36 -3 -18 -8 -45
-12 -62 -3 -16 -8 -40 -11 -52 -5 -27 -33 -31 -35 -5 -1 9 -1 46 0 82 2 84 -4
106 -30 113 -17 4 -24 -2 -39 -36 l-19 -42 0 41 c-1 23 -7 46 -14 52 -19 16
-53 -10 -60 -48 -9 -43 -27 -37 -27 9 0 37 -19 71 -40 71 -5 0 -16 -10 -24
-22 -15 -21 -16 -21 -17 -3 -1 11 -1 24 0 29 5 25 -11 56 -28 56 -13 0 -20
-10 -25 -32 -3 -18 -13 -46 -20 -63 -8 -16 -18 -39 -22 -50 -5 -13 -11 13 -18
75 -6 52 -15 101 -19 108 -13 20 -37 14 -37 -10 0 -13 -7 -31 -15 -42 -8 -10
-17 -38 -21 -62 -11 -75 -24 -48 -24 49 0 78 -3 97 -18 110 -10 10 -23 17 -29
17 -14 0 -25 -28 -13 -35 7 -5 -17 -76 -31 -90 -3 -2 -6 25 -7 61 -2 74 -6 84
-32 84 -24 0 -39 -26 -46 -85 -8 -53 -19 -58 -28 -11 -9 45 -31 65 -52 44 -9
-8 -16 -21 -17 -29 -4 -23 -22 -22 -27 2 -8 32 -34 46 -55 29 -12 -10 -16 -26
-13 -58 2 -27 -1 -47 -8 -49 -7 -2 -14 21 -18 66 -8 82 -29 110 -47 65 -7 -16
-11 -35 -10 -41 1 -7 -3 -13 -9 -13 -10 0 -14 39 -10 88 1 13 -6 25 -15 28
-20 8 -36 -12 -28 -33 6 -16 -16 -123 -28 -136 -7 -9 -26 122 -28 196 -1 12
-7 17 -18 15 -11 -2 -17 -11 -15 -22 2 -10 -4 -36 -12 -57 -9 -22 -16 -50 -16
-63 0 -13 -6 -29 -14 -35 -12 -10 -15 -3 -21 46 -9 89 -25 133 -47 133 -15 0
-18 -5 -13 -20 4 -12 0 -31 -9 -45 -9 -13 -16 -35 -16 -47 0 -13 -4 -29 -9
-36 -10 -17 -21 17 -21 69 0 44 -22 68 -45 49 -11 -9 -14 -23 -9 -45 4 -22 1
-35 -10 -44 -14 -12 -16 -10 -16 12 0 30 -19 77 -32 77 -5 0 -11 -7 -14 -15
-9 -21 -21 -19 -27 6 -4 15 -12 20 -29 17 -19 -2 -24 -10 -28 -50 -8 -67 -20
-71 -20 -7 0 30 -3 64 -6 77 -8 27 -34 29 -34 3 0 -11 -4 -22 -9 -25 -5 -3
-12 -27 -15 -53 -8 -56 -25 -103 -37 -103 -9 0 -12 40 -9 115 1 51 -18 80 -48
71 -13 -4 -22 -16 -22 -26 0 -13 -5 -17 -15 -14 -19 8 -45 -13 -45 -36 0 -10
-7 -23 -15 -30 -13 -11 -15 -7 -15 29 0 40 -26 121 -39 121 -17 0 -52 -34 -49
-48 1 -10 -3 -26 -9 -37 -6 -11 -13 -37 -17 -59 -11 -57 -17 -38 -19 61 -2 94
-13 123 -48 123 -10 0 -26 -11 -36 -24 l-18 -24 -10 61 c-8 51 -14 62 -29 62
-24 0 -56 -42 -60 -78 -1 -15 -6 -30 -9 -34 -4 -3 -7 -15 -7 -25 0 -10 -4 -18
-10 -18 -9 0 -16 90 -12 142 2 21 -32 41 -56 34 -15 -5 -52 -72 -52 -95 0 -6
-4 -12 -9 -15 -4 -3 -7 28 -6 69 2 58 -1 79 -14 94 -15 17 -19 17 -36 5 -10
-8 -25 -27 -31 -42 l-12 -27 -1 28 c-1 35 -32 37 -59 2 l-20 -25 -6 40 c-7 45
-6 44 -39 29 -32 -15 -45 -44 -53 -124 -6 -59 -17 -85 -30 -72 -3 2 -7 40 -9
83 -4 98 -10 114 -42 114 -19 0 -28 -9 -44 -45 -21 -48 -30 -56 -27 -27 2 32
-2 77 -10 89 -12 19 -59 3 -72 -25 l-12 -27 -9 23 c-16 42 -68 21 -70 -28 0
-14 -5 -34 -10 -45 -6 -13 -7 7 -4 60 3 45 3 88 -1 98 -9 24 -37 21 -62 -8
-12 -14 -28 -25 -36 -25 -8 0 -18 -9 -21 -21 -8 -25 -22 -14 -27 21 -2 19 -9
25 -28 25 -21 0 -26 -6 -30 -34 -8 -58 -25 -46 -25 19 -1 74 -20 103 -49 71
-10 -11 -19 -35 -21 -53 -2 -18 -9 -49 -17 -68 l-15 -35 -7 53 c-9 68 -15 82
-35 82 -21 0 -51 -34 -51 -58 0 -40 -16 -31 -26 15 -9 41 -13 48 -34 48 -20 0
-26 -7 -35 -42 -15 -60 -21 -60 -28 -1 -7 57 -26 84 -52 74 -12 -4 -15 -14
-11 -40 4 -25 1 -38 -14 -51 -23 -21 -25 -52 -5 -78 10 -14 11 -26 3 -48 -5
-16 -14 -29 -20 -29 -6 0 -7 7 -4 16 6 16 -9 170 -20 207 -3 10 -15 17 -28 17
-18 0 -25 -7 -30 -30 -5 -26 -9 -30 -29 -25 -29 8 -51 -16 -42 -44 3 -10 1
-22 -5 -26 -6 -4 -10 12 -10 44 0 44 -3 51 -20 51 -10 0 -28 -10 -40 -22 -14
-16 -20 -18 -21 -7 -1 8 -2 21 -3 29 -1 10 -12 15 -35 15 -31 0 -36 -4 -43
-32 -12 -46 -23 -41 -22 9 1 56 -3 65 -33 73 -34 8 -50 -8 -70 -71 -18 -58
-33 -71 -30 -27 2 22 -3 29 -21 31 -13 2 -32 -4 -42 -13 -17 -15 -18 -14 -24
20 -7 38 -17 42 -57 21 -21 -11 -29 -11 -43 0 -23 16 -45 8 -57 -22 -6 -16
-16 -24 -33 -24 -27 0 -55 -32 -57 -65 0 -13 -4 -8 -10 13 -12 41 -32 49 -64
28 -16 -11 -25 -12 -25 -5 0 8 -12 10 -34 6 -25 -4 -36 -1 -40 9 -9 24 -60 14
-64 -12 -2 -17 -10 -21 -40 -20 -32 1 -37 -2 -40 -24 -4 -26 -22 -53 -22 -32
0 7 1 13 2 15 1 1 -4 12 -11 25 -7 13 -21 22 -36 22 -20 0 -25 -5 -25 -25 0
-14 -4 -25 -10 -25 -5 0 -10 16 -10 35 0 39 0 39 -35 23 -17 -8 -25 -19 -26
-37 0 -14 -4 -35 -8 -46 -7 -18 -9 -17 -24 12 -15 27 -20 30 -44 24 -21 -5
-29 -14 -31 -36 -2 -15 -10 -34 -18 -42 -15 -16 -19 -10 -26 32 -2 13 -12 21
-30 23 -21 3 -30 -3 -42 -27 -9 -16 -16 -37 -16 -46 0 -9 -4 -13 -10 -10 -5 3
-10 19 -10 34 0 41 -22 65 -52 58 -18 -5 -27 -16 -31 -36 -5 -23 -11 -28 -33
-28 -34 0 -50 -22 -59 -78 -7 -48 -25 -62 -25 -20 0 44 -27 95 -50 95 -11 0
-24 -8 -27 -17 -14 -37 -30 -43 -42 -16 -8 18 -16 23 -29 17 -9 -4 -34 -9 -54
-12 -25 -3 -38 -9 -38 -19 0 -11 -7 -14 -25 -9 -14 4 -34 2 -44 -4 -16 -8 -20
-5 -25 16 -5 20 -12 25 -34 22 -25 -3 -27 -7 -30 -50 -3 -45 -22 -70 -22 -29
0 10 -9 29 -19 42 -23 28 -37 19 -45 -26 -8 -49 -18 -75 -27 -75 -5 0 -9 8
-10 18 -1 9 -2 24 -3 32 -2 8 -3 25 -4 37 -1 12 -11 27 -21 33 -29 15 -64 -45
-59 -101 4 -61 -18 -62 -27 -2 -9 67 -25 87 -58 72 -17 -8 -27 -22 -31 -45
-10 -48 -23 -50 -31 -5 -10 58 -26 77 -55 61 -20 -11 -22 -17 -17 -61 5 -39 3
-49 -8 -49 -8 0 -17 12 -20 28 -16 77 -21 87 -43 90 -12 2 -23 0 -23 -5 -3
-13 -10 -196 -10 -220 1 -13 -3 -23 -8 -23 -9 0 -21 72 -21 129 0 21 -6 45
-13 55 -16 22 -47 12 -40 -15 7 -24 -22 -26 -35 -3 -5 9 -18 14 -28 12 -15 -2
-20 -14 -24 -52 -9 -93 -40 -55 -40 50 0 37 -3 44 -19 44 -29 0 -36 -18 -33
-82 3 -62 -12 -87 -22 -35 -8 44 -31 75 -45 62 -9 -9 -14 -44 -21 -135 -2 -27
-17 22 -24 80 -7 52 -17 70 -42 70 -14 0 -25 -38 -13 -45 12 -8 -1 -35 -17
-35 -8 0 -14 7 -14 16 0 8 -5 24 -10 34 -17 32 -39 12 -46 -41 -4 -27 -10 -52
-15 -54 -4 -3 -16 19 -25 49 -17 53 -40 79 -49 53 -2 -6 -6 -39 -9 -72 -2 -33
-8 -69 -12 -80 -8 -19 -8 -19 -15 5 -4 14 -7 40 -8 58 -2 67 -62 46 -64 -22
-1 -20 -5 -36 -9 -36 -4 0 -8 -13 -8 -30 0 -38 -20 -40 -21 -2 -4 134 -10 149
-52 133 -19 -7 -28 -20 -33 -46 -3 -19 -10 -38 -15 -41 -5 -3 -9 -15 -9 -28 0
-13 -5 -38 -11 -56 l-12 -32 -13 38 c-8 22 -14 47 -14 56 0 18 -33 33 -51 23
-6 -4 -20 2 -32 13 -17 14 -36 19 -79 19 -49 0 -57 -3 -63 -21 -7 -21 -7 -21
-12 -1 -8 31 -22 43 -44 38 -23 -6 -43 -39 -35 -58 2 -7 -1 -18 -8 -24 -7 -6
-11 -22 -9 -35 3 -13 0 -27 -6 -30 -12 -8 -17 1 -26 56 -5 33 -9 38 -33 36
-15 -1 -34 -8 -44 -15 -11 -10 -18 -11 -23 -4 -10 18 -44 12 -57 -9 -17 -27
-28 -25 -28 4 0 13 -6 26 -12 29 -23 7 -48 -5 -48 -24 0 -10 -4 -21 -10 -24
-5 -3 -11 -16 -11 -28 -1 -16 -3 -14 -8 8 -5 26 -11 30 -38 31 -18 0 -36 3
-39 7 -18 18 -52 6 -64 -23 -13 -30 -24 -37 -34 -21 -3 5 -15 7 -26 4 -15 -4
-20 -14 -20 -40 0 -20 -4 -32 -10 -28 -6 3 -10 24 -10 45 0 21 -5 42 -11 45
-13 9 -49 -23 -49 -44 0 -9 -10 4 -21 29 l-20 45 -24 -27 c-29 -33 -31 -34
-38 -7 -4 15 -12 20 -29 17 -22 -3 -23 -6 -11 -50 3 -10 0 -18 -6 -18 -6 0
-11 8 -11 18 0 32 -15 45 -37 33 -15 -8 -22 -25 -27 -68 -11 -96 -17 -128 -26
-137 -10 -10 -16 1 -24 49 -11 71 -28 124 -40 128 -31 12 -53 -21 -67 -100
-12 -65 -15 -73 -20 -48 -4 17 -7 46 -8 66 -1 38 -35 80 -49 63 -5 -5 -15 -29
-23 -54 l-14 -44 -14 37 c-23 62 -59 45 -68 -33 -5 -40 -8 -49 -14 -35 -4 11
-8 34 -8 52 -1 21 -8 36 -20 42 -28 15 -38 -3 -46 -85 -12 -120 -30 -127 -46
-18 -10 74 -19 90 -44 81 -10 -5 -14 -14 -10 -29 3 -13 -3 -45 -14 -73 l-19
-50 -11 43 c-7 23 -18 42 -25 42 -30 0 -39 -31 -45 -162 -2 -37 -21 -16 -21
22 0 42 -20 103 -38 114 -6 3 -17 3 -26 0 -12 -5 -14 -21 -11 -90 2 -64 0 -84
-10 -84 -8 0 -15 20 -19 53 -15 124 -34 153 -64 96 -7 -13 -11 -34 -9 -46 2
-13 1 -23 -3 -23 -3 0 -11 23 -16 52 -15 82 -31 71 -39 -26 -4 -48 -11 -86
-15 -86 -5 0 -12 25 -15 55 -4 30 -13 62 -21 72 -13 17 -15 17 -29 -1 -8 -11
-15 -34 -15 -52 0 -33 -23 -63 -35 -45 -3 6 -8 27 -10 48 -15 117 -64 124 -81
12 -4 -24 -12 -55 -19 -67 -11 -22 -12 -20 -24 31 -15 68 -34 97 -52 79 -9 -8
-14 -48 -15 -121 -2 -152 -15 -160 -36 -22 -9 63 -21 118 -26 123 -5 5 -19 0
-34 -12 -23 -17 -27 -18 -38 -5 -7 8 -21 15 -31 15 -20 0 -23 -13 -24 -104 0
-22 -5 -41 -12 -43 -9 -3 -13 6 -13 25 0 46 -19 92 -36 85 -9 -3 -14 -21 -14
-54 0 -61 -20 -66 -43 -9 -16 41 -18 42 -120 31 -5 -1 -7 -9 -6 -18 1 -10 1
-40 0 -66 -1 -56 -18 -60 -35 -9 -31 89 -66 59 -58 -50 4 -52 2 -69 -7 -64 -6
4 -11 15 -11 25 0 9 -5 22 -10 27 -6 6 -14 40 -18 75 -6 51 -11 64 -25 67 -16
3 -18 -2 -17 -40 4 -90 0 -158 -9 -158 -6 0 -13 21 -16 48 -3 26 -10 54 -16
62 -5 8 -12 23 -15 33 -7 20 -9 20 -34 7 -13 -7 -21 -7 -25 0 -9 15 -61 12
-74 -4 -7 -8 -11 -31 -10 -53 1 -21 -3 -48 -8 -61 -8 -21 -10 -17 -22 30 -7
29 -15 61 -18 71 -5 18 -38 23 -48 7 -4 -6 -12 -7 -18 -3 -7 5 -35 8 -64 9
-48 0 -53 -2 -63 -27 -7 -15 -9 -33 -5 -39 8 -13 -14 -72 -25 -65 -4 2 -13 26
-20 52 -7 27 -17 54 -23 61 -14 18 -44 15 -57 -5 -10 -17 -10 -17 -20 0 -12
18 -45 23 -55 7 -3 -5 -6 -41 -7 -80 0 -38 -4 -70 -9 -70 -5 0 -9 16 -9 35 0
47 -26 97 -48 93 -15 -3 -17 -15 -15 -86 3 -91 -12 -111 -23 -31 -11 84 -64
76 -64 -10 -1 -43 -2 -45 -15 -27 -8 11 -15 32 -15 47 0 23 -15 39 -36 39 -3
0 -10 -13 -15 -30 -13 -35 -25 -38 -34 -10 -15 48 -44 1 -46 -73 l-1 -42 -17
50 c-17 49 -36 63 -66 52 -10 -5 -11 -14 -3 -47 15 -57 -4 -75 -21 -20 -13 43
-15 45 -73 55 -48 8 -62 -15 -67 -112 -1 -31 -21 -29 -21 1 0 33 -23 50 -49
36 -12 -6 -21 -15 -21 -20 0 -6 -7 -10 -15 -10 -8 0 -24 -9 -36 -21 -20 -20
-21 -20 -34 -2 -8 10 -15 21 -15 26 -1 20 -33 3 -44 -25 l-13 -31 -14 29 c-27
55 -93 40 -83 -19 5 -30 4 -31 -9 -14 -12 15 -19 16 -36 8 -24 -13 -33 -39
-31 -89 1 -20 1 -46 1 -57 -1 -17 -3 -18 -11 -4 -5 9 -12 30 -15 49 -3 18 -12
45 -20 60 -13 25 -19 27 -72 28 -45 0 -60 -4 -71 -19 -7 -10 -21 -19 -32 -19
-12 0 -21 -11 -28 -37 -6 -23 -10 -30 -11 -17 -1 27 -26 48 -46 40 -10 -3 -15
-19 -15 -46 0 -25 -4 -39 -10 -35 -5 3 -10 17 -10 30 0 32 -20 75 -35 75 -7 0
-18 -6 -25 -14 -6 -8 -18 -12 -26 -9 -8 3 -23 -2 -33 -11 -18 -16 -19 -15 -29
13 -11 31 -26 39 -37 21 -3 -6 -15 -5 -31 2 -22 10 -27 9 -35 -5 -8 -13 -15
-15 -28 -7 -13 6 -24 5 -36 -4 -14 -10 -17 -23 -13 -65 6 -58 -6 -79 -16 -28
-3 19 -13 42 -21 53 -15 19 -15 18 -35 -5 l-21 -24 -6 22 c-3 13 -12 21 -22
19 -13 -3 -15 -16 -13 -80 5 -93 -11 -109 -29 -28 -21 94 -46 88 -51 -12 -2
-60 -14 -62 -22 -4 -4 24 -13 52 -21 62 -13 17 -15 18 -30 3 -12 -12 -16 -34
-16 -82 0 -37 -2 -67 -4 -67 -2 0 -9 17 -14 38 -6 21 -17 46 -26 57 -13 17
-16 18 -25 5 -5 -8 -10 -30 -10 -49 l0 -34 -24 22 c-21 19 -24 20 -30 6 -3 -9
-6 -29 -6 -43 l0 -27 -13 25 c-18 35 -43 37 -55 3 -6 -16 -11 -21 -11 -11 -1
20 -29 50 -41 43 -5 -3 -12 -42 -16 -88 l-8 -82 -14 53 c-14 47 -17 52 -44 52
-16 0 -40 -7 -53 -16 -22 -14 -25 -24 -25 -78 l-1 -61 -15 30 c-35 66 -44 76
-61 66 -12 -6 -21 -3 -35 13 -14 17 -19 19 -27 7 -5 -8 -7 -30 -3 -50 6 -41 6
-43 3 -91 -3 -35 -3 -35 -18 15 -8 28 -16 63 -19 78 -6 40 -13 49 -36 44 -15
-4 -22 1 -30 24 -5 16 -17 29 -25 29 -13 0 -15 -11 -9 -67 5 -60 4 -65 -8 -44
-19 34 -69 53 -92 36 -16 -11 -16 -17 -6 -40 12 -27 9 -45 -9 -45 -5 0 -9 8
-9 19 0 10 -10 25 -22 33 -21 14 -21 15 -24 459 -1 244 -6 554 -10 689 -3 135
-8 295 -9 355 -4 189 -15 435 -26 565 -8 102 -18 371 -19 527 0 38 -37 82 -63
76z m2835 -2227 c3 -14 1 -31 -3 -38 -7 -10 -9 -10 -9 2 0 8 -3 25 -6 38 -4
12 -2 22 4 22 5 0 12 -11 14 -24z"/>
<path d="M381 8107 c-7 -9 -11 -75 -12 -178 -1 -90 -5 -195 -10 -232 -11 -79
-1 -107 36 -107 22 0 25 5 26 38 1 20 3 48 4 62 1 14 5 111 10 217 7 186 7
191 -13 202 -26 14 -27 14 -41 -2z"/>
<path d="M802 8028 c-7 -7 -12 -42 -12 -86 0 -63 -2 -73 -16 -68 -23 9 -62 -3
-69 -22 -6 -16 29 -57 70 -79 10 -6 19 -30 24 -68 5 -38 14 -63 26 -72 38 -27
45 -17 45 62 l0 75 35 0 c43 0 83 34 65 55 -6 7 -29 16 -50 20 -21 4 -43 12
-49 18 -5 7 -12 40 -15 75 -8 88 -26 118 -54 90z"/>
<path d="M1064 7886 c-38 -17 -64 -52 -64 -86 0 -30 50 -83 94 -100 28 -10 28
-11 11 -30 -20 -22 -64 -27 -82 -9 -17 17 -43 3 -43 -21 0 -12 12 -32 26 -45
38 -35 84 -33 128 5 62 55 56 107 -18 162 -25 18 -44 38 -42 43 1 6 24 14 49
19 48 8 51 13 41 54 -7 26 -50 30 -100 8z"/>
<path d="M520 7830 c-38 -40 -47 -83 -25 -116 36 -55 88 -104 110 -104 39 0
73 36 81 85 9 61 -1 92 -41 132 -44 44 -86 45 -125 3z m98 -62 c16 -16 15 -63
-1 -77 -22 -17 -61 30 -53 63 7 28 33 35 54 14z"/>
<path d="M5233 5748 c-6 -13 -18 -52 -28 -88 -20 -77 -65 -180 -89 -199 -43
-36 -5 -77 85 -90 87 -14 121 -24 130 -42 19 -38 49 -150 49 -186 0 -69 85
-213 126 -213 17 0 18 33 2 63 -25 47 -93 327 -82 336 5 4 34 15 65 24 30 9
66 28 79 43 l25 25 -20 37 c-15 27 -30 39 -57 47 -46 13 -52 19 -153 152 -85
113 -112 133 -132 91z"/>
<path d="M5083 4758 c-13 -17 -48 -93 -64 -140 -7 -21 -16 -38 -20 -38 -4 0
-40 36 -80 80 -77 85 -103 97 -120 54 -9 -25 -4 -33 57 -98 37 -39 75 -78 84
-86 46 -42 62 -115 75 -328 3 -46 10 -92 15 -103 12 -21 35 -25 46 -8 10 17 7
217 -6 308 -10 72 -9 85 14 165 14 47 30 95 36 107 16 29 9 93 -11 97 -9 2
-20 -3 -26 -10z"/>
<path d="M6712 4663 c-35 -17 -76 -71 -106 -140 -24 -55 -10 -97 52 -159 45
-45 47 -46 101 -42 65 5 127 40 136 77 9 36 -10 48 -44 28 -15 -9 -46 -19 -69
-23 -33 -5 -47 -2 -71 16 -34 24 -33 40 3 40 51 0 136 85 136 136 0 31 -39 71
-75 77 -18 3 -44 -1 -63 -10z m65 -51 c24 -15 3 -57 -39 -76 -75 -32 -85 1
-17 58 33 28 38 30 56 18z"/>
<path d="M6433 4597 c-23 -13 -57 -53 -65 -77 -2 -8 -15 -15 -28 -15 -43 0
-47 -27 -14 -102 45 -102 94 -96 94 12 0 50 20 108 42 121 6 4 32 8 57 10 25
2 49 3 53 3 20 2 -8 31 -43 45 -47 19 -66 20 -96 3z"/>
<path d="M6089 4545 c-55 -36 -138 -135 -150 -180 -10 -38 -10 -41 20 -67 54
-48 129 -33 199 38 18 19 36 34 41 34 4 0 15 -16 24 -35 14 -30 21 -35 52 -35
34 0 49 20 25 35 -18 11 -41 65 -51 123 -6 31 -17 67 -25 80 -17 26 -44 29
-44 5 -1 -15 -3 -15 -19 5 -23 27 -27 27 -72 -3z m71 -61 c0 -38 -25 -95 -47
-110 -37 -24 -102 -44 -108 -34 -10 16 47 92 95 126 51 38 60 41 60 18z"/>
<path d="M5583 4488 c-6 -7 -16 -32 -22 -55 -35 -134 -29 -123 -66 -123 -31 0
-35 3 -40 34 -4 19 -2 43 4 54 16 29 14 57 -5 73 -14 11 -20 10 -40 -14 -20
-23 -24 -39 -24 -90 0 -66 12 -90 60 -118 38 -23 88 -8 128 37 36 42 41 40 65
-26 13 -34 25 -48 47 -57 36 -13 39 -3 14 55 -9 20 -18 48 -20 62 -20 104 -76
198 -101 168z"/>
<path d="M5204 4480 c-31 -12 -72 -66 -84 -110 -11 -42 -6 -110 11 -141 25
-47 151 -67 188 -30 63 63 71 133 25 207 -42 68 -91 94 -140 74z m84 -87 c33
-47 33 -90 1 -124 -34 -36 -61 -37 -89 -1 -17 21 -21 36 -17 65 11 83 66 114
105 60z"/>
<path d="M5428 3921 c-14 -20 -14 -27 -1 -69 15 -51 45 -290 38 -303 -7 -10
23 -39 40 -39 22 0 35 34 35 90 0 59 22 120 44 120 22 0 72 -67 97 -129 36
-91 79 -119 79 -51 0 72 -71 191 -138 230 -28 17 -40 19 -70 10 -20 -5 -36 -8
-37 -7 -1 1 -7 28 -14 60 -7 32 -23 70 -35 84 l-23 26 -15 -22z"/>
<path d="M6250 3903 c-14 -3 -31 -10 -38 -16 -23 -18 -52 -85 -52 -117 0 -19
-4 -29 -10 -25 -18 11 -40 -15 -40 -46 0 -34 41 -103 69 -119 24 -12 51 -3 52
19 1 9 0 57 -1 107 -1 73 2 97 16 119 16 25 21 26 73 21 82 -8 83 -8 75 -25
-32 -79 -28 -129 15 -188 32 -44 97 -77 146 -74 34 2 74 44 75 79 0 27 -10 28
-50 4 -36 -22 -86 -18 -100 9 -9 16 -5 20 30 30 82 25 137 121 93 165 -48 47
-150 59 -180 21 l-17 -24 -44 34 c-42 32 -58 36 -112 26z m284 -83 c14 -5 26
-16 26 -25 0 -31 -100 -71 -123 -49 -6 6 10 49 26 72 11 15 37 15 71 2z"/>
<path d="M5904 3853 c-12 -2 -36 -19 -54 -38 -29 -30 -34 -43 -38 -92 -4 -55
-2 -60 30 -90 39 -37 137 -73 182 -66 17 2 42 12 56 22 27 20 35 59 10 51 -24
-8 -113 -6 -135 3 -17 7 -15 10 20 26 49 22 115 82 115 105 0 52 -102 96 -186
79z m90 -59 c26 -10 18 -29 -21 -51 -56 -30 -92 -37 -99 -18 -15 39 70 88 120
69z"/>
<path d="M6745 3629 c-18 -34 -7 -59 24 -59 40 0 54 45 23 73 -25 23 -29 22
-47 -14z"/>
<path d="M1105 1711 c-68 -42 -99 -103 -91 -176 7 -68 44 -135 93 -169 l42
-29 46 24 c111 59 162 154 125 236 -22 48 -51 74 -116 107 -62 31 -61 31 -99
7z m118 -83 c25 -13 50 -74 41 -101 -12 -42 -79 -97 -118 -97 -7 0 -23 15 -34
34 -69 117 1 220 111 164z"/>
<path d="M16726 1282 c-2 -4 -4 -50 -3 -102 l2 -95 -45 -5 c-40 -4 -45 -8 -48
-31 -3 -24 1 -27 36 -33 46 -7 52 -23 52 -136 0 -54 4 -70 20 -85 40 -36 49
-15 52 112 l3 118 30 5 c24 4 30 10 30 30 0 20 -6 26 -30 30 -29 5 -30 8 -40
80 -14 95 -39 144 -59 112z"/>
<path d="M14431 1229 c-18 -4 -41 -15 -50 -24 -15 -16 -12 -20 44 -72 33 -30
77 -63 97 -74 40 -21 68 -54 68 -81 0 -21 -70 -68 -102 -68 -13 0 -30 -4 -38
-10 -18 -11 -41 6 -33 26 3 8 14 14 24 14 21 0 26 26 7 32 -30 10 -87 -42 -88
-79 0 -29 39 -53 89 -53 51 0 144 35 174 65 36 35 12 132 -43 179 -18 14 -35
26 -38 26 -13 0 -73 58 -65 63 15 9 148 -13 176 -29 21 -12 32 -13 40 -5 17
17 -9 60 -46 75 -38 16 -168 25 -216 15z"/>
<path d="M17860 1185 c-12 -15 -29 -144 -32 -253 -2 -80 -21 -49 -92 152 -27
77 -36 91 -59 99 -16 5 -31 7 -34 3 -3 -3 -8 -40 -10 -83 -2 -43 -6 -96 -8
-118 -18 -181 -18 -175 0 -195 19 -21 40 -26 49 -11 4 5 9 53 11 107 6 103 10
119 22 88 3 -10 10 -21 13 -24 4 -3 17 -23 28 -45 34 -67 81 -125 101 -125 35
0 42 24 46 167 2 76 8 151 14 166 15 38 14 53 -5 71 -19 20 -28 20 -44 1z"/>
<path d="M16190 1183 c-30 -11 -83 -69 -102 -113 -24 -54 -30 -135 -12 -171
23 -45 71 -79 114 -79 33 0 44 7 84 51 71 79 88 160 54 254 -19 51 -37 65 -82
64 -23 0 -48 -3 -56 -6z m77 -65 c23 -29 24 -87 3 -137 -28 -63 -58 -92 -88
-84 -23 6 -52 49 -52 78 0 24 60 134 79 145 23 13 47 12 58 -2z"/>
<path d="M19169 1168 c-11 -21 7 -55 34 -64 23 -7 41 -53 56 -144 6 -41 14
-85 16 -96 4 -15 -1 -23 -15 -27 -58 -15 -17 -79 59 -92 50 -8 95 14 128 65
27 39 28 68 8 137 -28 94 -163 228 -237 235 -30 3 -42 0 -49 -14z m187 -160
c69 -77 82 -144 35 -177 -50 -36 -56 -29 -69 67 -7 48 -15 102 -18 121 -6 30
-5 32 12 23 11 -6 28 -21 40 -34z"/>
<path d="M12885 1123 c-3 -21 -10 -48 -16 -61 -5 -13 -9 -33 -9 -44 0 -28 -17
-81 -46 -146 -28 -60 -31 -110 -9 -118 23 -9 41 11 65 76 l22 60 43 0 c35 0
44 -4 53 -25 7 -14 12 -38 12 -53 0 -34 16 -52 47 -52 27 0 29 13 7 76 -14 42
-14 47 0 63 23 25 20 38 -11 55 -22 11 -33 32 -58 107 -29 91 -31 94 -62 97
-30 3 -32 1 -38 -35z m55 -122 c0 -5 3 -16 6 -25 4 -11 1 -16 -10 -16 -10 0
-16 9 -16 25 0 14 5 25 10 25 6 0 10 -4 10 -9z"/>
<path d="M18440 1093 c-12 -38 -24 -79 -26 -93 -6 -45 -20 -84 -30 -87 -5 -2
-21 33 -34 78 -14 44 -28 83 -32 85 -14 9 -48 -7 -48 -22 0 -16 30 -109 54
-166 30 -71 104 -87 120 -26 50 183 66 270 55 285 -22 26 -38 12 -59 -54z"/>
<path d="M9916 1128 c-34 -19 -88 -30 -186 -37 -87 -5 -95 -8 -98 -27 -6 -40
25 -57 91 -51 l59 5 29 -66 c16 -37 33 -75 39 -84 15 -27 12 -63 -7 -80 -24
-20 -57 -27 -77 -16 -18 10 -22 43 -6 53 6 3 10 15 10 25 0 17 -3 18 -31 8
-17 -6 -35 -21 -41 -34 -22 -48 35 -124 94 -124 30 0 107 34 121 54 14 19 -4
116 -34 186 -16 38 -29 75 -29 83 0 8 19 19 42 26 88 27 88 27 77 61 -12 32
-23 36 -53 18z"/>
<path d="M15015 1131 c-38 -16 -53 -45 -64 -124 -6 -43 -11 -82 -11 -86 0 -10
-70 -31 -103 -31 -32 0 -76 35 -62 49 6 5 42 27 80 48 64 35 70 41 73 74 4 49
-25 64 -114 56 -78 -6 -92 -18 -120 -107 -17 -53 -17 -55 3 -90 51 -86 132
-118 205 -80 24 12 46 27 50 33 3 6 10 -12 14 -39 11 -68 11 -107 1 -121 -11
-15 -1 -62 19 -88 13 -18 15 -18 31 -3 13 14 16 36 15 128 l-2 110 38 0 c53 0
108 42 123 94 27 98 -27 187 -114 185 -23 0 -51 -4 -62 -8z m133 -95 c7 -60
-51 -128 -106 -123 -22 1 -26 18 -25 102 1 33 2 35 35 55 27 16 35 17 62 6 23
-9 32 -20 34 -40z m-293 25 c-6 -5 -27 -16 -47 -25 -40 -16 -52 -4 -20 20 19
15 82 20 67 5z"/>
<path d="M11774 1117 c-3 -8 2 -70 12 -138 9 -68 20 -162 24 -208 5 -56 13
-88 25 -100 15 -15 17 -15 29 1 9 12 10 33 4 75 -4 32 -16 130 -26 218 -16
152 -18 160 -40 163 -12 2 -24 -3 -28 -11z"/>
<path d="M8136 1078 c-9 -13 -25 -51 -36 -84 -25 -73 -43 -114 -50 -114 -3 0
-18 35 -35 78 -26 67 -33 77 -55 77 -31 0 -37 -25 -45 -210 -4 -77 -8 -142
-10 -145 -2 -3 5 -17 15 -30 16 -20 22 -23 37 -14 14 9 18 25 19 75 2 167 3
174 19 153 8 -10 15 -27 15 -37 0 -9 12 -23 26 -29 24 -11 29 -9 50 15 13 15
28 46 35 70 6 23 13 48 15 55 2 6 8 12 13 12 12 0 24 -76 26 -171 3 -95 11
-119 37 -119 21 0 21 2 15 168 -8 196 -21 265 -54 270 -14 2 -27 -5 -37 -20z"/>
<path d="M13261 1076 c-5 -6 -15 -29 -23 -51 -17 -50 -55 -122 -67 -130 -10
-6 -17 23 -26 105 -5 47 -29 77 -50 60 -18 -15 -10 -153 11 -185 39 -60 102
-55 133 11 12 24 21 48 21 54 0 16 17 12 24 -6 3 -9 6 -25 6 -36 0 -21 39 -60
52 -51 5 2 8 13 8 24 0 23 -1 23 39 3 48 -24 93 -12 134 36 19 22 36 40 39 40
11 0 51 -146 51 -187 0 -52 -21 -79 -75 -93 -61 -17 -99 7 -113 74 -6 27 -7
28 -25 11 -38 -34 -23 -105 29 -136 68 -42 179 -20 225 44 39 53 24 157 -46
318 -26 63 -88 113 -127 104 -38 -8 -105 -66 -121 -105 -7 -16 -16 -30 -20
-30 -11 0 -20 27 -20 58 0 44 -11 70 -31 75 -10 3 -22 0 -28 -7z m269 -63 c0
-5 -16 -25 -35 -46 -25 -27 -42 -37 -58 -35 -32 4 -26 19 22 55 40 31 71 42
71 26z"/>
<path d="M11439 1075 c-3 -3 -55 -5 -115 -6 -127 0 -144 -4 -144 -28 0 -29 21
-40 84 -43 40 -2 61 -8 66 -18 80 -158 84 -189 25 -217 -33 -16 -36 -15 -55 2
-17 15 -20 27 -15 51 6 36 -8 52 -29 35 -23 -19 -27 -68 -9 -100 45 -78 148
-78 189 0 22 43 17 82 -21 162 -19 41 -35 78 -35 84 0 5 24 14 53 19 46 8 52
12 52 34 0 18 -6 26 -20 28 -12 2 -23 0 -26 -3z"/>
<path d="M16500 1063 c-91 -31 -160 -107 -165 -183 -6 -78 105 -144 200 -119
52 14 105 65 105 102 0 33 -7 34 -39 3 -49 -44 -120 -57 -171 -31 -38 20 -38
44 -1 98 23 34 38 45 77 55 27 8 55 16 62 18 9 3 11 11 6 26 -10 35 -34 45
-74 31z"/>
<path d="M18048 1043 c-40 -19 -73 -69 -84 -129 -5 -29 0 -40 37 -83 38 -46
46 -51 84 -51 34 0 48 6 82 39 52 51 63 100 35 163 -10 24 -26 49 -34 56 -27
22 -80 24 -120 5z m99 -58 c44 -31 30 -91 -30 -132 -48 -33 -89 -29 -55 5 9 9
7 17 -9 34 -17 18 -19 28 -11 48 22 57 62 75 105 45z"/>
<path d="M19652 1020 c-60 -24 -107 -68 -129 -119 l-22 -52 42 -25 c23 -15 59
-37 79 -51 31 -21 46 -25 79 -20 44 6 81 32 77 55 -2 10 -21 14 -65 15 -85 3
-96 17 -36 49 46 23 93 76 93 104 0 42 -64 65 -118 44z m23 -69 c-12 -12 -65
-25 -65 -17 0 8 39 24 60 25 9 1 10 -2 5 -8z"/>
<path d="M19915 1006 c-27 -13 -62 -36 -76 -52 -49 -54 -53 -138 -10 -188 31
-35 96 -66 146 -68 44 -1 51 2 82 35 51 56 41 85 -17 52 -37 -21 -97 -18 -136
6 -34 21 -38 27 -35 64 3 37 22 60 67 84 52 28 71 55 53 77 -14 18 -14 18 -74
-10z"/>
<path d="M10333 985 c-17 -7 -37 -23 -43 -34 -6 -12 -15 -19 -19 -16 -20 12
-32 -23 -22 -66 5 -24 8 -45 6 -47 -2 -2 -18 27 -35 64 -46 102 -66 109 -99
32 -53 -122 -61 -138 -71 -138 -15 0 -23 47 -16 101 7 55 -6 92 -31 87 -17 -3
-21 -19 -30 -110 -6 -74 16 -124 61 -137 50 -14 77 12 115 111 15 38 31 42 31
8 0 -20 55 -90 70 -90 5 0 10 12 12 28 4 27 4 26 14 -8 7 -24 16 -35 30 -35
17 0 20 10 25 76 7 78 22 123 41 117 12 -4 40 -80 59 -156 15 -62 34 -49 34
24 -1 90 -13 130 -49 169 -37 39 -39 40 -83 20z"/>
<path d="M3467 983 c-12 -11 -8 -43 9 -75 19 -36 29 -215 14 -254 -18 -47 -3
-89 42 -114 68 -38 142 -24 173 34 15 28 16 38 6 68 -13 41 -19 47 -75 78 -25
13 -48 19 -63 16 -20 -6 -23 -3 -23 22 0 48 -30 205 -42 219 -11 14 -31 17
-41 6z m191 -326 c34 -27 -11 -77 -72 -77 -23 0 -45 3 -49 6 -8 9 29 81 45 87
16 6 59 -3 76 -16z"/>
<path d="M6356 958 c-8 -13 -24 -57 -35 -98 -12 -41 -28 -87 -36 -101 -8 -15
-21 -55 -30 -90 -12 -52 -12 -66 -1 -77 21 -21 45 -3 59 47 12 41 18 47 51 55
24 6 43 6 52 0 15 -9 53 -104 54 -134 0 -8 7 -26 15 -40 8 -14 23 -44 35 -66
12 -23 32 -52 46 -65 23 -21 26 -22 41 -6 14 14 15 28 7 111 l-9 95 27 6 c15
4 41 22 57 40 l30 34 3 -27 c2 -23 8 -27 33 -27 28 0 30 3 50 74 23 81 48 104
108 100 57 -4 77 1 77 16 0 9 -8 18 -17 21 -10 3 -26 10 -35 15 -27 14 -85 11
-126 -8 -37 -17 -68 -23 -109 -22 -79 1 -102 0 -138 -8 -33 -7 -41 -14 -49
-41 -5 -17 -13 -32 -18 -32 -13 0 -34 54 -53 135 -25 109 -57 142 -89 93z m54
-170 c0 -19 -26 -36 -37 -25 -3 3 -2 23 2 44 6 35 8 37 21 18 8 -10 14 -27 14
-37z m260 -43 c0 -43 -49 -98 -77 -88 -19 7 -16 58 5 75 33 29 72 36 72 13z"/>
<path d="M8742 960 c-21 -13 -41 -38 -54 -68 -11 -26 -22 -49 -24 -51 -2 -3
-28 21 -57 52 -57 62 -87 73 -87 33 0 -14 6 -31 13 -38 7 -7 32 -41 55 -75
l43 -63 -71 -144 c-38 -80 -70 -152 -70 -160 0 -18 36 -40 51 -31 5 4 33 54
62 112 83 168 85 172 120 186 39 17 50 61 17 70 -18 5 -18 7 5 63 13 33 33 70
44 82 25 28 26 38 5 46 -20 8 -14 9 -52 -14z"/>
<path d="M1320 950 c-19 -36 -4 -58 48 -66 26 -5 50 -9 55 -10 4 -1 19 -2 33
-3 20 -1 24 -5 19 -20 -3 -11 3 -39 13 -63 29 -65 41 -100 44 -132 4 -40 -38
-70 -100 -71 -43 -1 -47 -3 -50 -27 -9 -79 169 -48 197 34 19 54 10 109 -33
210 -9 21 -16 42 -16 48 0 6 29 10 70 10 55 0 72 3 77 16 11 30 -22 43 -170
69 -178 30 -174 30 -187 5z"/>
<path d="M4717 947 c-8 -12 -23 -48 -33 -80 -10 -31 -22 -57 -28 -57 -6 0 -27
31 -47 68 -64 122 -89 82 -97 -158 -5 -166 -5 -168 17 -180 41 -22 52 -7 51
67 -1 38 -1 94 -1 125 l1 56 29 -29 c49 -48 88 -35 112 38 6 21 14 42 17 48
10 16 39 -113 41 -182 1 -30 47 -33 56 -3 12 38 -25 210 -57 261 -16 27 -33
49 -38 49 -4 0 -14 -10 -23 -23z"/>
<path d="M3036 944 c-50 -8 -75 -18 -94 -37 -21 -22 -23 -28 -12 -41 7 -9 21
-16 31 -16 16 0 19 -7 18 -47 0 -27 -4 -57 -8 -68 -5 -13 -2 -30 11 -50 10
-16 18 -42 18 -56 0 -39 20 -89 36 -89 10 0 14 15 14 60 l0 60 44 -6 c59 -8
95 1 107 29 8 18 9 16 5 -14 -4 -34 -1 -39 42 -67 95 -60 136 -68 172 -32 35
35 26 49 -30 48 -58 -2 -87 17 -67 42 7 9 29 29 50 44 30 23 37 35 35 55 -4
37 -73 59 -130 42 -33 -10 -43 -20 -56 -52 -18 -46 -30 -48 -126 -19 l-66 21
0 57 0 58 65 19 c55 15 65 22 63 39 -4 28 -41 34 -122 20z"/>
<path d="M8410 940 c-14 -11 -30 -20 -36 -20 -16 0 -75 -61 -85 -88 -11 -28
-12 -93 -1 -108 4 -6 22 -19 40 -30 30 -17 35 -17 60 -4 15 9 35 33 46 54 l19
38 27 -62 c15 -34 34 -68 43 -77 20 -20 39 -8 32 20 -20 76 -30 109 -51 164
-13 34 -24 72 -24 85 0 25 -17 48 -34 48 -6 0 -22 -9 -36 -20z m-10 -133 c0
-45 -23 -76 -46 -61 -26 15 -26 25 -4 62 26 43 50 42 50 -1z"/>
<path d="M11503 938 c-15 -20 -33 -92 -33 -130 0 -41 31 -75 76 -84 27 -5 35
-1 68 37 20 24 39 54 42 66 7 28 24 20 24 -11 0 -52 44 -125 77 -126 20 0 27
42 9 55 -9 7 -28 50 -41 96 -14 46 -29 87 -34 92 -20 20 -46 -1 -77 -63 -59
-116 -98 -115 -74 1 11 52 11 62 -1 70 -19 12 -25 11 -36 -3z"/>
<path d="M5028 825 c-20 -13 -61 -49 -92 -79 -64 -62 -75 -104 -33 -130 53
-33 71 -29 121 24 46 49 66 61 66 40 0 -16 50 -60 68 -60 20 0 8 57 -23 112
-14 24 -30 60 -35 81 -12 43 -22 45 -72 12z m-26 -127 c-23 -23 -44 -39 -48
-36 -3 4 13 25 37 47 24 22 46 38 48 35 3 -3 -14 -23 -37 -46z"/>
<path d="M5277 802 c-24 -15 -29 -15 -38 -2 -8 13 -11 12 -24 -4 -28 -37 -12
-136 25 -156 32 -17 39 -11 45 35 8 51 37 76 99 85 49 6 56 24 17 44 -39 21
-89 20 -124 -2z"/>
<path d="M2035 745 c-16 -13 -40 -24 -52 -25 -33 0 -45 -30 -33 -87 24 -118
24 -118 50 -118 23 0 25 4 31 65 6 72 19 104 50 120 25 14 49 -3 49 -34 0 -12
5 -27 11 -33 5 -5 10 -26 10 -44 0 -61 9 -89 29 -89 57 0 26 188 -41 245 -38
31 -66 32 -104 0z"/>
<path d="M1770 734 c-14 -10 -46 -37 -72 -63 -68 -64 -64 -119 10 -140 29 -9
37 -6 78 25 l45 35 41 -36 c23 -19 45 -35 50 -35 25 0 15 36 -26 93 -30 43
-46 75 -46 95 0 43 -36 55 -80 26z m14 -99 c-9 -14 -26 -25 -38 -25 -19 1 -18
3 9 25 38 32 50 32 29 0z"/>
</g>
</svg>
