<?xml version="1.0" standalone="no"?>
<!DOCTYPE svg PUBLIC "-//W3C//DTD SVG 20010904//EN"
 "http://www.w3.org/TR/2001/REC-SVG-20010904/DTD/svg10.dtd">
<svg version="1.0" xmlns="http://www.w3.org/2000/svg"
 width="463.834792pt" height="400.000000pt" viewBox="0 0 463.834792 400.000000"
 preserveAspectRatio="xMidYMid meet">
<metadata>
Created by potrace 1.15, written by Peter Selinger 2001-2017
</metadata>
<g transform="translate(-19.073089,419.555329) scale(0.032783,-0.032783)"
fill="#444444" stroke="none">
<path d="M7764 12777 c-27 -24 -28 -25 -15 -68 7 -24 15 -53 16 -64 2 -11 10
-60 18 -110 10 -64 13 -166 12 -350 -2 -289 0 -301 61 -330 27 -13 41 -13 76
-4 24 6 73 14 109 18 36 4 70 11 76 14 5 4 55 11 109 16 54 6 108 13 119 16
17 5 23 -1 33 -29 8 -22 31 -50 59 -71 40 -30 53 -35 102 -35 132 1 271 95
297 203 8 37 19 34 50 -12 39 -60 96 -117 123 -124 36 -9 61 9 61 42 0 25 -5
30 -34 35 -39 7 -69 50 -107 152 -33 87 -65 134 -92 134 -13 0 -28 -5 -34 -11
-7 -7 -12 2 -17 30 -5 31 -11 41 -25 41 -17 0 -103 -37 -137 -58 -41 -26 -72
-50 -91 -72 -77 -88 -113 -135 -113 -146 0 -22 -38 -26 -72 -8 -50 26 -172 23
-346 -9 -68 -12 -116 -17 -121 -11 -5 5 -11 164 -14 354 -4 341 -4 346 -29
410 -14 35 -30 66 -36 68 -5 1 -22 -8 -38 -21z m1023 -619 c3 -68 -20 -180
-40 -199 -12 -10 -24 -19 -27 -19 -4 0 -11 -10 -17 -23 -20 -43 -160 -64 -210
-31 -31 20 -29 45 10 92 17 22 44 55 59 74 14 19 41 42 60 52 18 9 58 31 88
50 30 19 60 35 65 35 6 1 11 -14 12 -31z"/>
<path d="M13186 12764 c-9 -8 -16 -22 -16 -30 0 -17 47 -81 111 -153 54 -61
145 -212 170 -281 31 -88 53 -191 52 -245 -3 -121 -10 -143 -78 -243 -5 -8
-36 -42 -67 -76 -62 -65 -68 -80 -41 -95 43 -24 194 102 242 201 32 66 45 174
31 244 -7 31 -9 58 -7 61 15 14 -61 233 -103 297 -14 21 -35 57 -48 80 -13 22
-31 50 -41 61 -9 11 -25 32 -35 48 -9 15 -29 42 -44 59 -82 94 -96 102 -126
72z"/>
<path d="M9155 12570 c-4 -21 -4 -48 -1 -58 4 -11 8 -41 11 -68 2 -27 8 -83
14 -124 11 -86 5 -100 -46 -100 -39 0 -93 -25 -93 -43 0 -25 16 -34 75 -43
l60 -9 3 -45 c2 -25 -4 -84 -13 -132 -16 -82 -16 -89 -1 -114 21 -31 52 -29
77 6 13 18 22 60 30 153 7 74 17 130 23 132 54 15 156 38 176 40 39 3 38 33
-3 50 -41 17 -76 23 -139 24 -41 1 -48 4 -52 24 -2 12 -11 65 -21 117 -9 52
-21 113 -27 135 -28 99 -61 124 -73 55z"/>
<path d="M11907 12604 c-4 -4 -15 -8 -25 -9 -73 -8 -124 -34 -178 -90 -32 -35
-45 -60 -63 -125 -40 -146 -24 -301 43 -423 12 -21 28 -51 36 -67 24 -46 204
-190 238 -190 44 0 69 92 36 135 -15 20 -15 20 -32 -3 l-17 -22 -53 46 c-125
109 -191 261 -179 412 10 126 47 185 172 269 38 27 70 53 70 58 0 12 -38 19
-48 9z"/>
<path d="M2629 12569 c-19 -10 -40 -18 -46 -19 -7 0 -22 -9 -33 -20 l-21 -21
32 -39 c25 -31 33 -54 42 -114 l11 -76 -29 -30 -30 -31 43 -35 c34 -29 42 -42
42 -69 0 -21 6 -38 16 -43 13 -7 15 -16 9 -38 -5 -16 -8 -70 -8 -120 1 -81 3
-94 23 -114 12 -12 25 -19 28 -15 4 4 7 67 7 140 0 73 3 137 8 141 4 4 22 -6
40 -23 28 -26 226 -162 336 -230 43 -27 71 -29 71 -6 0 21 -47 83 -64 83 -7 0
-37 23 -67 51 -30 27 -67 57 -83 66 -46 24 -194 156 -195 173 -1 11 10 16 37
16 42 1 158 54 203 91 61 51 31 112 -97 198 -110 74 -126 82 -190 93 -42 7
-58 6 -85 -9z m212 -146 c94 -49 104 -65 63 -103 -47 -41 -179 -66 -201 -37
-12 14 -27 153 -18 167 14 22 84 10 156 -27z"/>
<path d="M4037 12374 c-2 -2 -46 -6 -98 -8 -63 -3 -112 -11 -150 -25 -57 -22
-73 -39 -84 -97 -5 -28 0 -37 58 -95 35 -35 92 -89 126 -119 55 -49 61 -58 56
-84 -3 -16 -7 -32 -10 -35 -3 -2 -47 -4 -99 -3 -80 1 -99 5 -140 28 l-48 27
-80 -28 c-66 -23 -89 -27 -136 -21 -54 6 -102 27 -102 45 0 12 48 31 65 25 8
-3 28 4 44 15 16 12 43 24 61 27 48 10 64 50 49 122 -9 47 -20 65 -60 106 -46
46 -51 48 -92 44 -23 -3 -59 -13 -80 -23 -56 -26 -137 -148 -137 -207 0 -15
-4 -28 -10 -28 -20 0 -9 -48 20 -89 82 -112 270 -158 391 -96 15 9 34 25 40
36 11 22 11 22 33 -4 11 -15 46 -38 76 -51 44 -20 68 -24 119 -21 116 7 171
50 171 133 0 47 -25 80 -152 201 -43 40 -78 79 -78 85 0 23 109 48 199 47 104
-1 116 5 107 52 -5 26 -12 36 -31 39 -13 3 -26 4 -28 2z m-583 -187 c9 -12 17
-37 18 -56 l3 -33 -79 -24 c-85 -26 -136 -31 -136 -14 0 24 41 89 75 118 45
40 97 44 119 9z"/>
<path d="M12979 12307 c-19 -7 -59 -29 -87 -49 -42 -31 -52 -43 -52 -68 0 -23
7 -32 33 -45 17 -8 51 -32 74 -53 22 -20 64 -50 92 -67 30 -18 50 -36 48 -45
-2 -16 -91 -44 -170 -52 -33 -4 -52 -1 -62 8 -18 19 -29 18 -49 -5 -25 -28
-13 -52 39 -81 114 -62 292 -5 310 99 7 40 5 42 -57 101 -34 33 -78 71 -95 83
-65 44 -56 61 37 77 74 13 108 38 94 73 -10 28 -100 41 -155 24z"/>
<path d="M5896 12278 c-57 -29 -106 -82 -106 -115 0 -63 62 -137 175 -207 39
-24 44 -33 36 -65 -14 -52 -178 -113 -212 -78 -8 8 -22 25 -32 37 -25 29 -41
21 -45 -24 -4 -46 30 -85 88 -102 104 -31 290 67 290 153 0 55 -22 94 -75 133
-30 22 -60 37 -68 34 -10 -4 -24 12 -43 50 -27 54 -28 56 -9 70 10 7 52 22 92
32 l73 18 0 38 c0 21 -3 38 -7 39 -64 9 -123 4 -157 -13z"/>
<path d="M12110 12260 c-11 -11 -32 -20 -48 -20 -15 0 -37 -6 -48 -14 -19 -13
-20 -21 -12 -78 12 -100 21 -200 19 -236 -1 -26 4 -34 25 -42 59 -23 64 -18
64 72 0 103 17 202 39 230 15 17 22 19 46 11 35 -11 75 -80 75 -128 0 -35 38
-85 64 -85 20 0 46 39 46 70 0 14 11 43 24 65 l24 39 29 -30 c15 -17 48 -70
72 -118 36 -72 50 -90 82 -106 58 -30 72 -27 64 13 -4 17 -13 39 -20 47 -7 8
-41 69 -76 135 -67 128 -105 175 -139 175 -26 0 -87 -45 -95 -71 -8 -25 -21
-24 -43 3 -51 64 -87 88 -129 88 -30 0 -49 -6 -63 -20z"/>
<path d="M10643 12244 c-72 -15 -112 -52 -161 -145 -25 -48 -28 -61 -22 -111
6 -61 22 -85 77 -119 35 -22 123 -49 160 -49 25 0 92 54 81 65 -10 11 -79 25
-124 25 -31 0 -46 6 -67 28 -37 38 -36 86 1 138 38 51 52 62 109 84 40 15 49
23 51 46 3 25 -19 56 -37 53 -3 -1 -34 -7 -68 -15z"/>
<path d="M9653 12236 c-63 -13 -109 -54 -147 -130 -26 -51 -27 -56 -15 -120
12 -64 15 -69 75 -120 68 -58 139 -85 174 -66 10 5 28 10 39 10 12 0 21 6 21
13 0 6 14 21 30 32 17 11 29 27 28 35 -4 22 -46 24 -69 4 -15 -13 -30 -16 -68
-11 -64 8 -104 28 -119 62 -24 52 -18 60 48 61 165 2 264 109 178 191 -18 17
-46 33 -63 36 -16 3 -37 8 -45 10 -8 3 -38 0 -67 -7z m111 -94 c6 -13 -31 -32
-64 -32 -10 0 -22 -4 -25 -10 -7 -12 -85 -14 -85 -2 0 19 28 43 75 66 46 22
51 22 72 7 12 -9 25 -22 27 -29z"/>
<path d="M6462 12214 c-61 -28 -123 -91 -156 -161 -14 -28 -30 -54 -35 -58 -6
-3 -11 -10 -11 -15 0 -21 117 -118 183 -152 60 -31 83 -37 134 -38 57 0 66 3
116 40 52 39 77 74 77 105 0 22 -13 19 -86 -20 -94 -50 -172 -45 -241 14 -32
27 -29 37 10 37 56 0 148 26 160 46 7 10 20 18 29 18 24 0 41 36 34 74 -11 53
-68 106 -133 125 -23 7 -42 3 -81 -15z m106 -83 c29 -25 28 -39 -5 -47 -16 -3
-39 -9 -53 -14 -41 -14 -110 -21 -110 -11 0 5 7 14 16 22 8 7 22 25 30 41 12
24 20 28 57 28 26 -1 51 -8 65 -19z"/>
<path d="M10039 12214 c-38 -21 -52 -38 -83 -98 -30 -60 -37 -85 -39 -140 -2
-64 0 -70 26 -89 37 -29 61 -14 65 39 7 94 24 147 58 181 19 18 41 33 50 33
35 0 114 -127 128 -205 11 -58 66 -112 100 -99 18 7 14 35 -19 140 -40 125
-106 234 -141 234 -6 0 -17 7 -24 15 -19 22 -69 18 -121 -11z"/>
<path d="M4855 12201 c-3 -6 -21 -17 -38 -25 -27 -11 -71 -53 -117 -113 -21
-26 -22 -62 -3 -86 64 -81 143 -118 212 -97 38 12 83 32 91 40 3 3 17 13 31
22 37 24 56 95 39 151 -6 23 -17 48 -23 55 -16 20 -66 43 -101 48 -17 2 -43 6
-57 10 -16 3 -30 1 -34 -5z m125 -113 c26 -29 25 -39 -7 -70 -35 -32 -77 -53
-126 -62 -34 -6 -38 -5 -47 20 -14 36 -6 56 40 98 49 44 106 50 140 14z"/>
<path d="M5410 12200 c-46 -13 -109 -59 -135 -99 -13 -22 -29 -42 -35 -46 -13
-8 -13 -71 1 -135 10 -45 15 -54 45 -66 19 -8 39 -12 43 -9 5 2 7 28 4 55 -10
112 36 200 105 200 66 0 106 -49 132 -163 11 -49 11 -65 -3 -114 -13 -50 -14
-59 -1 -79 53 -79 103 -2 91 139 -4 40 -13 93 -20 119 -29 96 -166 215 -227
198z"/>
<path d="M11166 12187 c-25 -14 -42 -32 -47 -50 -7 -27 -60 -95 -85 -110 -17
-10 -71 18 -105 54 -32 35 -68 44 -94 26 -19 -14 -19 -15 5 -62 14 -27 42 -58
63 -73 21 -14 45 -38 52 -52 13 -25 12 -30 -11 -61 -14 -19 -39 -61 -55 -94
-17 -33 -48 -82 -69 -110 -51 -68 -110 -180 -110 -210 0 -26 25 -45 59 -45 14
0 32 20 61 70 22 38 45 72 51 75 5 4 21 31 34 61 13 30 29 54 35 54 6 0 15 12
20 26 6 14 30 57 55 95 25 38 45 74 45 79 0 5 11 17 25 26 14 9 25 22 25 29 0
7 14 39 30 70 17 31 30 62 30 67 0 6 16 35 35 64 59 89 38 121 -49 71z"/>
<path d="M4271 12180 c-44 -5 -58 -11 -77 -35 -29 -37 -30 -43 -2 -72 19 -21
22 -33 20 -101 -2 -42 -5 -85 -8 -95 -3 -10 1 -24 9 -30 21 -16 33 -239 18
-322 -10 -53 -9 -61 6 -72 24 -18 60 -16 69 5 5 9 11 93 14 187 l5 170 83 21
c89 22 119 40 166 97 28 35 29 38 16 79 -31 105 -178 183 -319 168z m205 -127
c41 -30 46 -45 28 -72 -20 -28 -101 -69 -153 -77 l-41 -7 0 34 c-1 19 -3 60
-6 91 l-6 57 34 4 c55 7 111 -4 144 -30z"/>
<path d="M2087 11256 c-17 -13 -18 -36 -18 -319 0 -176 5 -316 11 -331 6 -16
6 -44 1 -72 -5 -26 -10 -106 -12 -178 -6 -264 -2 -1025 6 -1166 10 -174 10
-140 2 -440 -4 -135 -12 -286 -18 -336 -5 -50 -9 -95 -7 -100 2 -9 -10 -178
-18 -259 -9 -86 -12 -1849 -4 -1995 13 -214 21 -841 12 -920 -4 -36 -4 -94 0
-130 4 -36 12 -200 18 -365 6 -165 13 -329 16 -365 4 -61 6 -137 19 -580 3
-102 5 -248 4 -325 -3 -261 -2 -340 6 -465 10 -166 7 -264 -10 -326 -18 -62
-19 -169 -3 -329 11 -110 14 -122 40 -150 27 -28 29 -28 46 -12 19 19 21 65
12 237 l-5 95 65 -2 c133 -3 236 -4 265 -2 17 0 89 -5 160 -11 195 -19 515
-25 825 -15 118 4 238 6 265 6 28 -1 293 -3 590 -5 297 -2 578 -7 625 -10 112
-9 183 -17 190 -21 3 -2 26 1 50 6 32 7 75 5 148 -5 76 -10 121 -12 175 -4 55
7 99 6 180 -6 60 -8 118 -12 130 -10 12 3 54 7 92 10 39 3 87 10 108 15 76 20
556 27 835 13 75 -4 270 -8 432 -8 l295 -1 -3 -75 c-2 -41 -7 -93 -12 -115 -9
-47 8 -164 29 -189 7 -9 19 -16 26 -16 31 0 39 33 47 208 5 97 12 180 16 184
7 6 42 11 267 38 96 11 298 24 380 24 155 0 384 -13 410 -23 16 -7 61 -11 100
-11 98 3 243 -8 263 -19 10 -5 46 -11 80 -12 34 -1 91 -8 125 -16 34 -7 69
-10 77 -7 8 3 49 8 90 10 41 3 98 10 125 17 69 17 687 15 810 -3 50 -7 95 -12
100 -11 29 5 113 3 225 -3 100 -6 324 -8 510 -4 14 0 66 0 115 0 50 0 153 1
230 2 77 1 154 -1 171 -4 36 -8 221 12 249 27 25 13 134 31 200 32 53 2 88 5
170 16 28 4 57 7 65 7 8 0 35 4 59 10 29 6 77 5 135 -1 98 -11 129 -13 341
-13 77 0 208 0 291 -1 82 0 159 5 170 10 10 6 47 8 80 6 l62 -5 10 -52 c6 -28
10 -117 10 -199 -1 -134 0 -148 18 -162 28 -21 42 -18 70 12 l26 28 -7 148
c-3 82 -10 160 -15 173 -15 38 -13 43 25 61 29 14 35 22 35 48 0 33 -38 85
-62 85 -7 0 -24 9 -38 20 -30 24 -49 25 -64 5 -13 -18 -80 -24 -381 -31 -110
-3 -204 -5 -210 -5 -5 0 -91 2 -190 5 -336 11 -436 5 -647 -39 -137 -28 -447
-40 -983 -39 -526 2 -772 8 -817 22 -18 6 -40 10 -48 10 -8 -1 -64 3 -125 7
-60 4 -114 7 -120 7 -30 -2 -333 -14 -350 -14 -11 0 -47 -4 -80 -9 -121 -18
-402 -21 -489 -5 -44 9 -133 20 -196 26 -63 5 -128 12 -145 14 -177 26 -774
23 -900 -4 -117 -26 -107 -26 -1370 -20 -250 2 -441 -4 -515 -14 -139 -20
-356 -20 -705 -1 -33 2 -148 6 -255 10 -107 3 -222 10 -255 16 -33 5 -123 9
-200 10 -126 0 -1287 -11 -1445 -14 -74 -2 -442 13 -450 18 -3 2 -91 6 -195 9
-105 4 -222 12 -261 18 l-72 12 -6 115 c-3 64 -8 176 -11 249 l-6 132 26 0
c36 0 95 26 95 43 0 20 -22 45 -44 49 -11 2 -24 17 -30 36 -6 18 -18 37 -26
42 -13 8 -15 49 -16 252 0 134 -4 272 -7 307 -9 86 -16 305 -22 730 -3 194 -8
357 -11 363 -3 5 -8 91 -10 191 -2 100 -6 220 -9 267 -4 67 -5 266 -3 550 0 8
-3 114 -8 235 -4 121 -7 263 -7 315 0 52 2 282 3 510 2 228 2 557 0 730 -3
236 0 325 9 353 7 21 11 46 8 56 -2 9 -1 63 4 120 4 56 11 184 14 284 3 100 9
223 13 272 4 50 3 234 -2 410 -4 176 -8 696 -8 1155 1 620 -2 844 -11 870 -13
39 -40 49 -70 26z"/>
<path d="M647 10642 c-13 -14 -17 -37 -16 -93 0 -41 -4 -98 -10 -128 -6 -29
-11 -70 -11 -90 0 -21 -7 -46 -15 -57 -22 -29 -18 -39 23 -68 27 -18 59 -29
111 -35 40 -5 75 -12 78 -15 3 -3 7 -28 9 -57 3 -28 9 -59 14 -69 6 -10 10
-36 10 -57 0 -58 9 -78 40 -96 38 -23 47 -21 66 8 15 24 15 29 0 80 -21 64
-28 183 -12 193 6 3 21 5 32 4 12 -2 49 4 82 12 33 9 62 16 65 16 2 0 7 -23
10 -50 3 -28 16 -77 28 -110 19 -52 27 -62 63 -80 24 -11 63 -20 89 -20 82 0
197 58 197 100 0 19 29 61 30 42 0 -20 78 -99 110 -112 48 -20 151 -9 194 20
108 74 147 238 86 361 -25 50 -92 124 -132 145 -36 19 -92 18 -136 -3 -43 -19
-110 -68 -133 -96 -17 -20 -39 -16 -39 7 0 7 -18 34 -40 58 -39 45 -91 68
-152 68 -36 0 -135 -93 -148 -138 -5 -20 -19 -51 -29 -69 -20 -31 -25 -33
-126 -46 -5 -1 -22 2 -37 6 -34 9 -34 19 -12 160 15 97 15 100 -4 119 -19 19
-19 19 -47 -6 -31 -29 -56 -123 -57 -219 -1 -32 -5 -60 -10 -63 -11 -7 -99 5
-116 15 -10 6 -10 24 -1 82 6 41 10 119 10 174 -1 82 -4 102 -18 113 -22 16
-27 15 -46 -6z m741 -250 c12 -15 34 -47 47 -71 24 -41 25 -50 19 -134 -8 -99
-20 -119 -97 -153 -35 -16 -42 -16 -65 -3 -46 26 -63 61 -74 152 -11 98 3 163
49 218 22 26 30 29 62 23 21 -3 45 -17 59 -32z m388 -1 c21 -11 64 -69 79
-105 33 -78 9 -149 -73 -218 -28 -23 -35 -25 -78 -17 -58 11 -72 22 -95 76
-33 78 -20 212 23 240 53 34 110 44 144 24z"/>
<path d="M12467 10222 c-10 -11 -22 -60 -32 -127 -23 -152 -25 -183 -13 -217
7 -20 7 -36 0 -51 -6 -12 -13 -31 -17 -42 -6 -19 -7 -19 -17 -2 -5 10 -7 28
-4 40 8 34 -21 336 -34 353 -13 15 -46 19 -53 6 -7 -9 -48 -239 -45 -249 1 -5
-1 -33 -5 -63 -4 -30 -10 -107 -12 -170 -5 -123 -8 -145 -26 -228 -15 -66 -32
-63 -41 9 -27 218 -44 314 -66 371 -16 38 -30 43 -57 18 -16 -15 -26 -39 -30
-69 -4 -25 -13 -59 -20 -76 -8 -19 -13 -66 -13 -125 1 -52 -3 -111 -7 -130 -5
-19 -8 -44 -6 -55 1 -12 -6 -48 -15 -80 -9 -33 -22 -105 -29 -160 -7 -55 -15
-108 -20 -117 -9 -23 -25 -23 -25 0 0 10 -4 22 -9 27 -5 6 -12 44 -15 85 -3
41 -7 84 -9 95 -3 11 -10 81 -16 155 -6 74 -16 162 -21 195 -5 33 -12 80 -16
105 -18 124 -70 103 -114 -45 -6 -22 -10 -45 -9 -50 9 -32 -36 -279 -66 -367
-9 -26 -10 -49 -4 -78 10 -45 -2 -110 -24 -129 -11 -8 -16 -3 -25 25 -6 20 -7
46 -3 58 4 11 2 73 -4 136 -7 63 -16 143 -19 178 -17 159 -95 179 -117 30 -6
-35 -14 -90 -18 -123 -4 -33 -13 -73 -19 -90 -6 -16 -14 -111 -16 -210 -5
-211 -9 -256 -25 -310 -7 -22 -18 -62 -25 -90 -20 -80 -21 -72 -56 365 -10
127 -32 218 -55 227 -20 7 -62 -25 -69 -51 -5 -21 -16 -118 -31 -276 -11 -120
-25 -244 -36 -330 -6 -47 -12 -100 -14 -118 -6 -66 -35 -52 -35 16 0 26 -7
121 -15 212 -8 91 -18 219 -21 285 -5 116 -28 205 -52 205 -20 0 -50 -49 -62
-100 -6 -30 -18 -68 -25 -85 -7 -16 -16 -81 -19 -143 -3 -62 -9 -118 -13 -125
-4 -7 -6 -40 -5 -74 2 -39 -1 -63 -7 -63 -15 0 -19 28 -26 190 -6 164 -22 235
-51 235 -14 0 -23 -14 -36 -55 -14 -43 -19 -101 -22 -275 -3 -136 -11 -252
-20 -305 -9 -47 -16 -105 -16 -130 0 -25 -9 -74 -20 -110 -11 -36 -20 -77 -20
-92 0 -53 -18 -36 -25 25 -4 34 -9 73 -11 87 -4 25 -15 118 -33 285 -12 106
-30 203 -43 228 -14 28 -44 20 -62 -17 -9 -19 -16 -38 -15 -43 2 -4 -1 -24 -5
-43 -7 -37 -16 -162 -16 -219 1 -18 -4 -39 -10 -47 -7 -8 -11 -51 -9 -116 3
-155 -1 -258 -13 -303 -6 -22 -12 -65 -13 -96 -1 -30 -8 -65 -14 -77 -6 -11
-11 -35 -11 -52 0 -51 -16 -25 -18 27 0 26 -6 86 -12 133 -6 47 -13 121 -16
165 -3 44 -7 86 -9 93 -6 15 -21 188 -30 332 -9 132 -20 170 -49 170 -35 0
-43 -17 -50 -110 -12 -154 -16 -184 -26 -233 -5 -26 -10 -67 -11 -90 0 -23
-10 -82 -23 -132 -27 -106 -27 -105 -50 115 -29 270 -51 373 -86 405 -19 17
-20 17 -35 -20 -11 -25 -18 -82 -21 -174 -8 -239 -12 -287 -24 -345 -6 -32
-10 -67 -7 -77 4 -14 0 -19 -14 -19 -24 0 -26 6 -38 95 -43 316 -60 401 -87
443 -15 22 -38 29 -48 13 -10 -16 -16 -75 -20 -213 -3 -93 -10 -156 -22 -193
-13 -44 -15 -63 -7 -90 8 -26 7 -48 -8 -102 -10 -37 -21 -85 -25 -107 -3 -22
-9 -35 -14 -30 -19 20 -43 146 -49 260 -5 89 -11 128 -24 147 -9 15 -17 33
-17 42 0 20 -24 19 -41 -2 -17 -21 -23 -80 -23 -213 2 -496 0 -660 -8 -660 -4
0 -12 19 -18 43 -6 23 -16 56 -21 72 -6 17 -14 50 -19 75 -12 62 -44 147 -67
178 -15 20 -22 51 -27 119 -7 91 -41 350 -52 388 -11 38 -34 82 -50 96 -18 15
-53 20 -72 10 -18 -10 -82 -113 -82 -133 0 -9 -4 -20 -10 -23 -5 -3 -10 -17
-10 -31 0 -23 -9 -64 -52 -246 -14 -58 -25 -61 -33 -10 -4 20 -11 50 -16 66
-5 16 -9 44 -9 62 0 44 -27 113 -55 143 l-23 24 -36 -28 c-19 -15 -37 -34 -40
-43 -16 -53 -36 -176 -37 -236 -1 -38 -6 -88 -10 -110 -4 -23 -12 -98 -18
-168 -10 -116 -25 -188 -36 -176 -3 3 -8 97 -11 209 -3 112 -10 212 -15 221
-5 9 -9 38 -9 65 0 50 -24 110 -51 126 -12 7 -23 5 -42 -9 -34 -25 -47 -57
-52 -133 -3 -34 -7 -66 -9 -69 -2 -4 -7 -34 -10 -67 -4 -33 -14 -94 -23 -135
-8 -41 -19 -94 -23 -118 -11 -66 -20 -62 -20 9 0 97 -27 300 -45 346 -19 48
-54 62 -81 32 -18 -20 -48 -165 -59 -284 -4 -44 -14 -107 -22 -140 -9 -33 -18
-81 -20 -107 -3 -27 -9 -48 -14 -48 -5 0 -9 6 -10 13 0 6 -5 46 -10 87 -5 41
-13 118 -18 170 -9 106 -45 240 -65 240 -6 0 -27 -14 -45 -32 -30 -30 -33 -36
-27 -76 3 -25 1 -53 -5 -65 -8 -13 -11 -84 -10 -198 0 -114 -3 -180 -10 -184
-6 -4 -9 -40 -8 -88 1 -51 -2 -82 -9 -85 -15 -5 -35 36 -27 55 3 9 -1 50 -9
92 -8 42 -15 96 -14 121 1 25 -5 83 -13 129 -16 98 -35 120 -68 80 -12 -13
-23 -35 -27 -49 -21 -94 -38 -149 -44 -145 -4 2 -7 80 -8 172 -1 356 -17 597
-43 645 -14 25 -47 20 -70 -12 -15 -20 -20 -50 -24 -145 -3 -66 -10 -124 -15
-129 -6 -6 -10 -30 -11 -55 0 -26 -4 -55 -8 -66 -8 -20 -21 95 -21 188 0 86
-37 272 -57 289 -25 20 -58 -29 -93 -139 -22 -71 -31 -117 -29 -150 2 -26 -1
-57 -7 -68 -6 -11 -14 -45 -18 -75 -7 -60 -46 -190 -56 -190 -4 0 -10 44 -14
98 -4 53 -12 120 -17 147 -5 28 -14 91 -20 142 -12 109 -30 201 -45 227 -10
17 -14 17 -40 5 -25 -13 -30 -23 -44 -99 -10 -53 -14 -108 -11 -145 3 -33 2
-82 -2 -110 -4 -27 -12 -84 -16 -125 -5 -41 -16 -92 -25 -112 -9 -21 -16 -48
-16 -62 0 -14 -4 -27 -8 -30 -11 -7 -32 107 -32 174 0 29 -4 69 -9 89 -6 20
-15 82 -21 137 -11 95 -35 164 -57 164 -21 0 -72 -41 -72 -57 0 -10 -2 -40 -5
-68 -3 -27 -8 -109 -10 -180 -3 -72 -10 -144 -16 -159 -6 -16 -11 -50 -12 -77
-1 -53 -25 -72 -26 -21 -3 84 -25 261 -42 327 -5 22 -10 55 -10 73 0 18 -4 40
-9 50 -5 9 -14 36 -21 60 -13 50 -28 59 -67 40 -25 -12 -28 -18 -25 -58 2 -33
0 -41 -7 -30 -8 11 -11 -1 -12 -45 0 -33 -2 -69 -5 -80 -2 -11 -6 -99 -9 -195
-3 -96 -10 -186 -15 -200 -5 -14 -14 -51 -20 -83 -6 -31 -15 -55 -19 -52 -5 2
-11 33 -15 67 -4 35 -13 92 -21 128 -7 36 -22 126 -31 200 -24 183 -50 239
-91 198 -12 -13 -16 -58 -19 -242 -3 -125 -9 -237 -13 -250 -8 -19 -8 -114 0
-141 4 -13 -12 -97 -17 -92 -2 2 -11 53 -19 113 -9 60 -17 116 -20 124 -2 8
-9 58 -16 110 -6 52 -12 106 -14 120 -2 14 -7 68 -10 120 -6 104 -21 214 -36
273 -11 43 -35 49 -49 12 -10 -27 -10 -30 -11 -160 0 -144 -4 -214 -12 -221
-4 -4 -8 6 -8 22 -1 16 -2 40 -4 54 -1 14 -8 113 -15 220 -16 272 -24 329 -50
354 l-20 21 -25 -30 c-16 -20 -22 -39 -20 -56 20 -120 9 -386 -25 -580 -6 -30
-10 -76 -10 -102 0 -34 -4 -47 -14 -47 -15 0 -14 -3 -40 210 -9 74 -23 164
-30 200 -8 36 -20 92 -26 125 -24 123 -58 215 -80 215 -25 0 -80 -66 -81 -98
-1 -15 -3 -56 -4 -92 -2 -36 -13 -92 -25 -125 -12 -33 -28 -91 -36 -128 -8
-38 -17 -74 -21 -80 -10 -16 -21 21 -22 72 -1 25 -12 86 -25 135 -13 50 -29
112 -35 137 -19 88 -51 159 -70 159 -34 0 -44 -27 -42 -105 2 -58 -1 -77 -12
-81 -12 -4 -13 -12 -5 -42 7 -25 7 -70 1 -142 -6 -58 -11 -126 -12 -152 -1
-26 -6 -59 -11 -73 -6 -15 -10 -41 -10 -58 -1 -18 -7 -43 -15 -57 -8 -14 -14
-37 -15 -52 0 -34 -18 -46 -24 -16 -3 13 -17 77 -31 143 -14 66 -29 136 -34
155 -6 19 -19 85 -31 145 -26 135 -51 195 -79 195 -12 0 -21 -5 -21 -12 0 -6
-7 -19 -15 -28 -13 -14 -14 -39 -6 -166 4 -82 5 -158 1 -169 -16 -43 -30 -117
-30 -158 0 -61 -21 -162 -30 -145 -4 7 -11 33 -15 58 -4 25 -13 68 -20 95 -7
28 -19 88 -25 135 -20 142 -59 216 -95 180 -12 -13 -13 -25 -3 -75 24 -126 27
-559 4 -582 -5 -6 -26 117 -26 158 0 19 -5 54 -11 79 -5 24 -17 90 -24 145
-14 99 -37 175 -53 175 -20 0 -32 -29 -32 -78 0 -29 -5 -62 -11 -74 -6 -11
-12 -63 -13 -115 -4 -120 -19 -139 -35 -43 -6 39 -9 75 -7 79 3 4 -4 64 -15
132 -11 68 -26 171 -34 227 -8 57 -16 111 -19 120 -3 10 -12 69 -20 133 -20
157 -40 197 -77 152 -11 -12 -14 -64 -16 -217 -1 -111 -4 -212 -8 -226 -3 -14
-8 -50 -11 -80 -13 -136 -28 -134 -42 8 -29 284 -78 532 -106 532 -2 0 -14
-15 -25 -34 -17 -27 -19 -39 -11 -60 5 -14 7 -38 4 -53 -5 -29 -14 -335 -14
-481 1 -63 -2 -83 -12 -80 -11 4 -17 31 -47 198 -17 92 -67 270 -80 283 -26
26 -80 -59 -65 -105 11 -35 6 -390 -6 -402 -7 -7 -10 -5 -11 4 0 8 -5 47 -10
85 -6 39 -12 88 -14 110 -15 143 -39 231 -67 246 -10 5 -18 8 -19 7 0 -2 -3
-12 -7 -23 -3 -11 -7 -98 -8 -193 -2 -186 -9 -239 -25 -209 -6 9 -19 74 -31
144 -19 119 -43 193 -68 208 -6 4 -20 -4 -31 -17 -17 -20 -19 -31 -13 -83 4
-33 8 -130 9 -215 1 -85 7 -171 13 -190 16 -50 8 -314 -10 -365 -19 -52 -23
-41 -43 150 -8 83 -22 188 -30 235 -9 47 -24 133 -34 191 -24 129 -43 179 -70
179 -24 0 -44 -51 -32 -83 7 -19 8 -67 2 -149 0 -10 -7 -18 -15 -18 -10 0 -16
17 -21 53 -22 177 -73 397 -93 404 -26 10 -36 -18 -38 -105 -5 -168 -24 -372
-36 -372 -18 0 -43 74 -52 157 -3 17 -9 47 -15 65 -6 18 -22 70 -37 115 -30
96 -44 119 -68 110 -30 -12 -47 -73 -45 -161 2 -73 -15 -278 -25 -294 -2 -4
-7 -56 -11 -117 -4 -60 -10 -114 -15 -118 -9 -11 -31 61 -59 193 -21 101 -52
194 -75 226 -15 19 -15 19 -30 -1 -16 -21 -15 -7 -19 -507 -1 -118 -6 -188
-12 -188 -5 0 -13 30 -17 67 -4 38 -15 129 -23 203 -9 74 -18 164 -20 199 -14
226 -34 337 -65 356 -24 15 -41 -74 -44 -229 -2 -81 -6 -121 -14 -124 -8 -2
-12 11 -12 41 0 24 -5 69 -10 98 -12 59 -25 176 -41 374 -6 79 -16 139 -25
152 -8 12 -14 29 -14 38 0 9 -9 15 -24 15 -21 0 -24 -6 -35 -71 -6 -38 -9 -74
-6 -78 5 -9 -17 -145 -34 -209 -6 -21 -13 -59 -16 -83 -2 -24 -9 -90 -14 -147
-11 -102 -15 -122 -30 -122 -8 0 -27 76 -40 155 -9 59 -24 97 -52 136 -45 64
-67 23 -75 -139 -3 -64 -9 -154 -13 -199 -8 -91 -1 -113 33 -113 18 0 24 8 35
49 7 27 9 65 6 84 -9 48 2 82 21 66 8 -6 14 -24 14 -39 0 -15 7 -44 15 -64 8
-19 17 -52 20 -72 5 -42 5 -41 25 -44 31 -5 39 1 64 44 23 39 26 56 26 133 0
85 10 168 30 263 5 25 12 66 15 93 9 74 22 47 30 -61 3 -53 12 -108 19 -122
18 -34 28 -98 32 -200 1 -47 9 -114 18 -150 8 -36 13 -81 11 -100 -2 -19 -4
-70 -5 -113 -1 -65 3 -83 21 -108 20 -29 22 -30 33 -11 47 82 48 83 48 186 0
57 4 109 8 116 14 23 30 -33 30 -108 1 -60 5 -112 26 -302 3 -30 10 -63 15
-72 5 -9 9 -25 9 -36 0 -11 7 -25 15 -32 11 -9 19 -7 39 13 32 32 37 74 41
387 4 320 3 310 14 310 13 0 24 -37 26 -85 1 -22 7 -62 14 -90 7 -27 15 -72
18 -100 8 -79 33 -95 77 -49 13 15 27 41 30 58 7 32 29 313 41 514 4 61 10
112 14 112 12 0 38 -54 46 -95 4 -22 15 -62 24 -90 10 -27 16 -56 13 -63 -2
-7 0 -25 6 -40 5 -15 16 -54 23 -87 7 -33 16 -64 21 -70 4 -5 8 -17 8 -26 0
-41 50 -34 70 9 7 16 14 88 18 175 4 111 8 147 18 147 8 0 15 -19 19 -47 4
-27 9 -55 13 -63 15 -39 34 -165 37 -259 3 -85 7 -108 22 -123 18 -18 20 -18
48 12 l30 31 -1 139 c-2 115 0 138 12 133 9 -3 14 -20 14 -43 0 -22 4 -41 9
-44 5 -3 12 -46 16 -96 4 -50 11 -93 16 -96 5 -3 9 -35 9 -71 0 -37 6 -89 14
-117 30 -106 35 -152 25 -217 -12 -73 -1 -104 37 -112 59 -11 65 47 61 521 -3
257 -1 400 5 394 5 -5 14 -60 19 -123 15 -167 40 -259 71 -259 5 0 18 19 28
43 15 32 20 65 20 140 0 72 3 98 12 95 12 -4 33 -86 43 -171 6 -45 8 -48 32
-45 60 7 87 159 71 398 -7 98 -5 121 7 108 14 -14 43 -145 65 -290 13 -94 20
-117 45 -154 l22 -33 20 27 c28 38 35 111 38 380 1 128 5 235 9 239 13 14 19
-9 17 -73 -1 -36 5 -91 14 -120 16 -57 37 -243 39 -356 2 -102 43 -130 81 -56
13 25 20 87 31 248 7 118 14 249 14 290 0 59 3 71 12 62 8 -8 12 -33 11 -60
-1 -26 7 -80 18 -120 10 -40 17 -78 13 -83 -6 -11 14 -144 27 -174 4 -11 11
-49 14 -85 3 -36 8 -90 10 -120 3 -30 7 -143 10 -250 6 -242 8 -258 41 -266
52 -13 54 -2 65 312 6 159 12 291 15 293 2 3 12 -2 21 -11 12 -13 18 -49 24
-160 5 -79 13 -172 19 -208 6 -36 11 -78 13 -95 1 -22 8 -31 24 -33 49 -7 61
51 72 342 5 121 9 156 17 145 7 -8 15 -53 19 -101 6 -76 10 -89 30 -102 79
-52 95 -5 125 374 6 74 14 160 17 190 l5 55 13 -45 c20 -74 40 -164 37 -173
-1 -4 5 -36 14 -70 16 -59 19 -87 23 -167 3 -77 94 -122 124 -62 37 73 60 191
73 377 2 33 8 107 13 165 4 58 6 111 4 118 -3 6 -1 12 4 12 20 0 33 -26 33
-67 0 -24 6 -56 14 -71 7 -15 16 -56 20 -92 14 -145 22 -183 41 -196 27 -20
40 -17 68 15 16 20 29 53 37 98 6 37 18 97 25 133 11 55 27 134 51 259 3 13 8
21 11 17 12 -11 42 -112 53 -176 6 -36 16 -82 22 -102 6 -20 8 -58 5 -84 -3
-28 0 -59 8 -78 7 -17 16 -92 19 -166 6 -123 9 -136 29 -152 12 -10 32 -18 44
-18 20 0 53 23 53 38 0 4 6 36 14 72 7 36 19 133 27 217 7 84 15 150 18 148 9
-5 6 -375 -3 -427 -8 -44 -7 -49 22 -77 17 -17 37 -31 46 -31 25 0 54 98 62
206 8 117 17 143 34 99 6 -16 13 -54 15 -82 2 -29 6 -71 10 -94 10 -57 13 -82
22 -171 6 -51 14 -84 25 -95 16 -16 19 -16 38 2 19 18 20 18 20 -3 0 -15 -7
-22 -27 -24 l-28 -3 -1 -130 c-1 -71 -3 -134 -5 -140 -2 -5 4 -21 13 -34 13
-18 22 -22 42 -17 36 9 52 55 55 161 1 50 6 176 10 280 4 105 7 220 7 258 -1
37 2 67 5 67 9 0 19 -27 19 -48 0 -9 8 -30 17 -47 11 -20 16 -51 15 -97 -1
-51 2 -69 14 -76 13 -7 13 -19 6 -73 -17 -116 -5 -149 54 -149 39 0 45 10 64
106 17 86 45 424 52 633 3 84 22 107 31 39 3 -24 15 -94 26 -155 18 -96 31
-268 31 -392 0 -65 50 -91 95 -48 20 18 27 38 35 102 6 44 12 89 14 100 2 11
9 92 15 180 7 88 15 171 18 185 l5 25 10 -25 c10 -28 28 -193 33 -315 2 -44 8
-92 14 -107 7 -18 7 -45 1 -75 -6 -37 -5 -52 6 -64 8 -8 14 -20 14 -26 0 -19
39 -22 59 -5 10 10 25 44 35 77 21 80 63 319 82 473 3 28 10 52 15 52 24 0 33
-52 35 -190 2 -149 11 -250 23 -250 4 0 17 -9 30 -21 29 -27 65 -19 85 19 8
15 20 57 26 92 6 36 16 79 22 95 10 31 41 200 51 290 10 76 19 115 28 121 12
7 11 -26 -1 -63 -8 -21 -7 -44 3 -83 9 -33 11 -66 6 -82 -4 -15 -5 -80 -2
-145 3 -65 6 -147 7 -183 1 -61 2 -65 29 -74 24 -9 31 -7 43 9 8 11 20 27 27
36 13 14 29 82 42 174 3 22 11 65 17 95 14 73 25 45 28 -75 1 -49 2 -112 3
-140 1 -27 -2 -72 -6 -100 -22 -149 -12 -271 27 -314 46 -51 90 -3 112 122 8
45 17 90 20 100 11 34 24 16 24 -33 0 -30 7 -65 17 -83 14 -26 17 -53 16 -137
-2 -58 1 -139 6 -180 7 -60 6 -86 -7 -128 -11 -35 -13 -56 -6 -60 6 -4 13 -15
17 -24 9 -25 19 -23 55 15 28 29 32 42 41 122 19 164 42 402 40 411 -1 5 1 64
6 132 l8 123 18 -30 c13 -21 20 -57 23 -113 2 -46 9 -95 14 -109 6 -15 9 -29
6 -31 -2 -3 2 -22 9 -44 9 -27 11 -60 7 -109 -9 -85 4 -115 45 -108 14 3 30
13 34 22 10 18 28 112 41 211 5 36 14 88 19 115 13 58 16 81 32 275 12 138 13
143 26 111 19 -46 24 -119 24 -384 l0 -227 25 -25 c14 -14 28 -25 32 -25 29 1
69 82 81 166 6 38 18 123 27 189 9 66 18 123 19 126 2 3 5 32 6 65 1 32 6 73
11 89 5 17 11 56 14 89 5 65 19 102 28 76 3 -8 7 -51 9 -95 3 -44 8 -104 11
-134 4 -36 2 -57 -5 -62 -9 -5 -9 -23 -1 -69 7 -37 8 -69 3 -79 -5 -9 -11 -96
-13 -192 -3 -189 1 -209 47 -209 35 0 75 37 75 70 0 16 5 41 11 57 11 27 19
72 53 280 9 51 17 132 20 180 2 48 9 111 15 138 6 28 10 57 9 65 -6 39 15 171
25 167 23 -7 48 -178 43 -292 -4 -100 6 -125 53 -125 57 1 89 66 112 225 5 33
13 69 18 80 5 11 14 45 20 75 15 88 50 233 61 258 5 13 14 21 19 18 9 -6 36
-121 34 -145 -1 -8 3 -42 9 -75 6 -34 12 -104 13 -156 3 -139 14 -219 37 -268
16 -34 19 -54 14 -92 -10 -77 18 -170 51 -170 13 0 46 67 39 78 -4 6 -2 13 3
16 12 8 37 -24 45 -59 18 -81 52 -175 65 -180 8 -3 24 4 35 15 20 20 21 33 24
278 2 141 5 264 8 271 3 9 14 -6 29 -37 26 -56 64 -78 90 -51 28 30 66 231 80
429 4 41 8 91 11 110 l6 35 14 -27 c13 -25 18 -55 28 -158 15 -151 31 -220 56
-235 17 -10 67 23 78 52 18 50 62 350 62 428 0 8 4 15 9 15 20 0 25 -39 35
-257 4 -91 27 -196 46 -208 29 -18 80 68 80 136 0 14 7 43 15 62 8 20 15 51
15 69 0 18 7 65 15 103 8 39 15 91 15 118 0 66 16 59 23 -10 4 -32 11 -89 17
-128 6 -38 15 -110 19 -160 5 -49 13 -103 20 -119 8 -20 8 -39 2 -64 -6 -19
-8 -39 -5 -43 2 -4 7 -63 10 -131 4 -70 11 -128 18 -135 6 -6 23 -15 38 -18
22 -6 29 -3 34 11 3 11 10 28 15 39 14 32 27 103 34 190 8 91 14 135 20 146 3
4 7 101 10 216 2 114 9 253 14 308 6 55 11 106 11 113 0 6 5 12 10 12 6 0 10
-16 10 -35 0 -18 7 -60 15 -91 8 -31 14 -82 14 -114 -1 -32 2 -64 7 -71 9 -15
13 -61 17 -182 3 -80 5 -90 31 -115 l27 -27 28 31 c28 31 59 125 66 199 2 17
8 58 14 91 6 34 11 75 10 90 -1 16 3 72 10 124 8 74 20 251 21 323 0 5 5 7 11
5 7 -2 11 -69 10 -207 0 -118 4 -211 10 -222 7 -14 5 -25 -6 -43 -12 -18 -14
-35 -9 -63 4 -21 7 -54 6 -73 -1 -54 7 -70 33 -70 52 0 69 67 85 345 6 105 16
255 22 335 6 80 12 168 13 197 4 71 13 97 29 84 8 -7 15 -50 19 -113 4 -57 10
-128 14 -158 4 -30 6 -116 5 -190 -1 -147 14 -328 30 -347 45 -56 98 74 118
288 6 63 15 129 21 147 6 17 8 45 4 61 -3 16 -2 38 4 48 5 10 15 88 21 173 7
85 16 162 21 170 7 12 9 11 9 -5 1 -11 8 -38 17 -60 9 -23 17 -84 20 -145 3
-58 6 -132 8 -165 2 -33 5 -119 5 -192 1 -141 14 -193 49 -193 23 0 55 45 70
100 6 25 16 101 22 170 5 69 11 136 13 150 2 14 6 81 10 150 7 128 19 263 38
405 5 44 10 87 10 95 -1 29 10 70 17 70 12 0 30 -69 37 -145 3 -38 7 -167 8
-285 1 -215 6 -250 40 -272 16 -11 55 31 65 71 5 20 15 77 21 126 6 50 18 116
26 149 8 32 13 64 10 71 -2 7 6 71 19 142 14 70 25 148 25 173 0 57 11 120 19
120 10 0 31 -86 31 -129 0 -21 9 -67 20 -101 11 -35 18 -71 15 -79 -9 -30 -8
-87 5 -226 14 -156 32 -205 75 -205 35 0 85 81 85 138 0 16 4 32 9 37 5 6 11
37 14 70 3 33 13 103 22 155 18 109 32 219 41 338 10 115 26 110 39 -13 7 -64
23 -108 37 -99 12 8 10 -10 -3 -23 -14 -14 -10 -46 33 -279 11 -61 34 -89 59
-71 26 20 36 49 44 127 4 41 9 84 12 95 2 11 8 83 14 160 20 288 24 320 34
315 10 -5 14 -54 14 -207 -1 -79 2 -94 20 -112 22 -22 38 -26 59 -13 18 12 44
119 44 182 -1 62 21 119 31 84 4 -10 8 -113 11 -229 3 -115 10 -243 16 -282 6
-40 9 -77 5 -82 -8 -14 -8 -202 1 -235 8 -34 49 -53 72 -34 23 20 52 89 52
128 0 39 20 84 35 81 6 -1 9 -10 8 -19 -2 -9 -7 -48 -13 -86 -7 -48 -7 -72 0
-81 7 -8 10 -56 7 -124 -2 -85 0 -115 11 -123 9 -8 11 -23 7 -47 -3 -20 -6
-58 -7 -86 0 -27 -3 -54 -6 -58 -2 -5 -6 -55 -7 -112 -4 -125 5 -141 54 -96
21 20 31 38 31 59 0 16 6 45 14 63 12 28 38 193 35 217 -1 4 -1 15 0 26 1 15
4 16 16 6 17 -14 19 -43 5 -70 -11 -21 12 -75 38 -89 24 -12 61 4 71 31 19 52
30 96 36 153 4 33 9 74 12 90 2 17 7 72 10 123 7 104 23 125 23 28 0 -44 5
-67 15 -76 18 -15 20 -51 4 -67 -8 -8 -8 -21 1 -48 7 -22 9 -54 5 -82 -7 -51
12 -83 50 -83 35 0 92 92 100 160 4 30 11 78 16 105 16 90 39 325 39 406 0 43
4 79 9 79 13 0 21 -26 21 -69 0 -41 31 -189 49 -235 6 -16 9 -31 7 -34 -3 -2
1 -14 9 -25 11 -15 13 -36 8 -74 -5 -46 -3 -57 15 -76 21 -22 23 -41 9 -64
-12 -19 -16 -196 -5 -216 6 -13 18 -17 40 -15 29 3 33 8 54 73 30 91 58 249
50 281 -4 15 -1 33 9 47 8 12 15 44 16 72 0 71 13 136 22 110 13 -43 19 -116
10 -128 -6 -6 -10 -60 -10 -118 0 -59 -6 -127 -13 -153 -12 -44 -12 -48 10
-68 21 -20 25 -20 49 -7 42 23 54 61 91 287 10 59 15 71 25 62 14 -12 31 -68
26 -85 -9 -29 -15 -239 -11 -387 0 -10 12 -24 28 -32 26 -13 29 -12 59 14 19
17 40 53 53 89 13 34 26 61 31 61 15 0 46 -56 74 -135 21 -58 29 -102 32 -164
3 -79 22 -161 59 -246 7 -16 15 -47 19 -67 5 -31 10 -38 29 -38 13 0 26 6 29
13 8 21 -22 257 -43 337 -19 71 -23 95 -21 113 5 36 -73 216 -111 258 -33 36
-42 41 -68 35 -17 -3 -44 -15 -60 -28 -16 -12 -32 -20 -34 -17 -7 6 -28 551
-26 660 0 22 -6 41 -17 52 -17 14 -20 14 -42 -3 -25 -18 -26 -21 -47 -175 -4
-22 -13 -48 -21 -57 -11 -13 -14 -31 -11 -67 3 -27 1 -57 -5 -66 -20 -36 -27
11 -26 178 0 183 -6 233 -29 260 -24 28 -36 20 -55 -36 -34 -102 -43 -190 -33
-312 2 -24 -3 -49 -12 -63 -17 -26 -29 -76 -44 -177 -5 -38 -13 -76 -17 -84
-11 -22 -26 -13 -28 17 -6 78 -15 149 -23 167 -8 20 -28 181 -36 299 -3 32 -9
67 -15 78 -6 11 -8 32 -4 47 9 44 -14 281 -32 318 -20 44 -31 49 -52 26 -14
-15 -18 -36 -17 -108 1 -65 -4 -100 -16 -125 -13 -27 -16 -56 -13 -122 2 -48
6 -91 8 -96 3 -4 1 -26 -4 -48 -12 -49 -27 -173 -35 -284 -5 -76 -38 -258 -49
-269 -12 -11 -20 58 -40 349 -5 63 -8 118 -7 123 1 4 -3 49 -9 100 -17 142
-19 173 -19 307 1 127 -12 226 -31 245 -7 7 -17 1 -31 -18 -19 -26 -21 -44
-24 -285 -5 -455 -12 -591 -29 -608 -8 -9 -15 -25 -16 -37 -1 -20 -2 -20 -9 3
-7 24 -5 311 5 498 6 129 -14 168 -62 123 -18 -17 -21 -32 -22 -118 0 -54 -5
-123 -10 -153 -5 -30 -7 -87 -4 -126 3 -41 1 -85 -6 -105 -6 -20 -15 -76 -20
-127 -4 -50 -13 -98 -19 -105 -6 -7 -11 -33 -11 -58 1 -24 -4 -55 -9 -69 -22
-56 -25 36 -22 685 1 179 -7 245 -28 245 -19 0 -42 -38 -42 -68 0 -17 -5 -43
-11 -58 -10 -28 -27 -133 -34 -208 -2 -21 -8 -43 -14 -49 -8 -8 -11 8 -11 58
0 39 -6 135 -14 215 -7 80 -13 154 -13 165 0 11 -3 99 -7 195 -15 386 -17 409
-45 434 -16 15 -19 15 -34 -2z m-147 -313 c0 -17 -4 -28 -10 -24 -5 3 -10 17
-10 31 0 13 5 24 10 24 6 0 10 -14 10 -31z"/>
<path d="M14337 9313 c-3 -4 -1 -18 4 -31 10 -25 44 -27 44 -3 0 16 -41 46
-48 34z"/>
<path d="M12383 8090 c-17 -7 -23 -18 -23 -42 0 -18 -8 -46 -18 -63 -10 -16
-27 -51 -36 -77 -10 -26 -27 -55 -37 -64 -11 -9 -19 -21 -19 -26 0 -18 -101
-155 -149 -203 -28 -27 -51 -57 -51 -66 0 -10 13 -28 29 -41 25 -22 39 -25
127 -27 55 -1 103 -6 108 -11 22 -22 -56 -237 -103 -281 -10 -10 -29 -35 -42
-56 -12 -21 -25 -40 -28 -43 -4 -3 -15 -21 -25 -40 -11 -19 -31 -51 -46 -70
-15 -19 -35 -50 -46 -68 l-19 -34 30 -24 c17 -13 39 -24 51 -24 19 0 64 48 64
70 0 5 4 10 10 10 5 0 21 20 36 45 14 25 39 54 55 66 40 28 143 240 170 349
l21 85 72 23 c53 18 88 23 140 20 l68 -3 21 37 c20 34 20 38 5 55 -9 10 -35
55 -58 101 -22 46 -64 122 -93 170 -29 48 -58 98 -64 112 -15 34 -102 130
-116 129 -7 0 -22 -4 -34 -9z"/>
<path d="M12410 6668 c-25 -11 -52 -26 -60 -33 -8 -7 -38 -20 -67 -29 -28 -10
-63 -26 -76 -36 -13 -10 -35 -22 -50 -25 -36 -10 -123 -97 -137 -139 -10 -33
-9 -39 22 -86 19 -29 51 -61 76 -76 40 -24 45 -24 104 -13 61 12 118 48 118
75 0 7 4 14 9 16 5 2 22 25 39 51 28 45 31 47 41 28 6 -11 13 -94 15 -185 3
-94 9 -173 16 -185 13 -24 67 -50 92 -43 25 6 31 36 19 90 -6 26 -13 97 -16
157 -14 259 -52 456 -88 455 -6 -1 -32 -10 -57 -22z m-60 -187 c0 -40 -97
-156 -137 -164 -61 -11 -112 41 -72 75 10 9 19 21 19 27 0 12 52 41 73 41 18
0 75 28 82 41 13 21 35 8 35 -20z"/>
<path d="M11857 6624 c-3 -3 -39 -21 -79 -38 -84 -37 -140 -76 -216 -148 -73
-71 -100 -145 -72 -198 13 -25 -6 -37 -28 -18 -16 14 -110 45 -124 40 -4 -1
-22 5 -40 12 -50 20 -153 5 -185 -27 -24 -24 -25 -27 -14 -88 6 -35 16 -86 21
-114 6 -27 8 -76 5 -108 -4 -37 -2 -63 5 -72 19 -22 40 -175 47 -333 6 -142 8
-156 32 -193 15 -22 32 -38 41 -37 12 3 16 30 18 163 2 88 -2 203 -8 255 -7
52 -12 99 -11 105 0 5 19 15 43 21 24 6 79 36 123 66 103 72 128 114 119 205
l-6 63 43 -16 c85 -30 200 9 230 79 16 38 33 29 41 -24 25 -169 39 -225 59
-241 58 -48 119 7 74 67 -11 14 -15 44 -14 110 1 49 -4 126 -10 170 -5 44 -13
119 -17 167 -4 65 -11 94 -26 113 -19 24 -38 31 -51 19z m-45 -161 c5 -43 -14
-85 -69 -158 -32 -42 -45 -51 -82 -57 -89 -15 -106 29 -37 99 24 24 52 55 61
69 9 14 27 29 40 34 13 5 30 18 37 30 21 33 45 25 50 -17z m-391 -323 c9 -5
19 -23 23 -41 7 -38 -24 -80 -94 -126 -72 -47 -89 -48 -107 -5 -8 20 -18 72
-21 116 l-5 78 93 -6 c52 -4 101 -11 111 -16z"/>
<path d="M6238 5513 c-49 -37 -56 -73 -33 -177 25 -114 33 -141 56 -170 26
-33 54 -33 82 0 19 22 27 25 59 19 82 -16 148 -140 105 -198 -12 -18 -103 -47
-145 -47 -32 0 -83 27 -110 58 -19 23 -24 25 -32 12 -5 -8 -13 -30 -16 -49 -6
-27 -2 -37 19 -57 14 -13 30 -31 34 -39 21 -36 169 -38 246 -2 77 35 102 74
101 157 -1 67 -16 109 -71 191 -27 41 -129 99 -174 99 -32 0 -45 18 -51 70
l-3 35 60 0 c66 0 157 13 193 26 30 12 26 46 -8 70 -19 13 -54 19 -150 24
l-125 7 -37 -29z"/>
<path d="M6846 5403 c-86 -60 -113 -107 -122 -215 -5 -59 -3 -82 10 -108 9
-18 16 -41 16 -50 0 -23 47 -53 72 -47 14 4 29 -3 47 -22 36 -38 75 -52 156
-58 62 -4 74 -2 105 19 19 13 48 45 65 72 28 46 30 56 30 140 -1 109 -23 167
-86 228 -49 47 -105 74 -174 83 -48 6 -53 4 -119 -42z m209 -87 c14 -9 37 -35
53 -58 23 -36 27 -51 26 -112 -2 -69 -2 -71 -46 -112 -56 -53 -116 -67 -157
-37 -14 11 -27 29 -29 39 -1 10 -16 27 -32 36 -90 52 -52 215 60 261 25 11 98
0 125 -17z"/>
<path d="M5793 5121 c-107 -27 -202 -107 -149 -127 9 -4 13 -23 12 -67 0 -34
5 -111 12 -172 7 -60 14 -166 15 -233 3 -118 4 -125 27 -143 14 -10 29 -17 35
-16 18 6 24 73 20 232 -4 165 0 210 18 198 20 -12 133 -2 205 19 86 25 118 58
128 130 6 42 4 49 -25 78 -35 37 -115 77 -181 90 -25 5 -54 12 -65 14 -11 2
-34 1 -52 -3z m194 -134 c36 -24 39 -34 20 -57 -25 -31 -76 -49 -154 -56 -73
-6 -82 -5 -91 12 -15 30 -22 94 -10 94 5 0 21 9 35 20 22 17 36 19 97 15 50
-4 80 -12 103 -28z"/>
<path d="M5315 4735 c-35 -15 -135 -106 -135 -122 0 -10 -57 -89 -113 -158
-13 -16 -37 -61 -52 -100 -15 -38 -30 -73 -34 -77 -3 -4 -17 -1 -31 7 -94 53
-132 56 -158 12 -14 -23 -15 -29 -3 -36 9 -6 12 -18 7 -37 -4 -16 -9 -45 -10
-64 -27 -307 -27 -320 -11 -348 17 -28 66 -62 89 -62 7 0 61 46 120 102 72 68
123 109 154 121 80 33 96 41 131 68 38 31 71 77 71 99 0 16 -73 46 -138 57
-18 3 -35 9 -38 14 -3 5 -18 9 -35 9 -34 0 -37 17 -13 76 32 81 52 108 162
219 82 84 112 121 112 139 0 14 -5 28 -11 32 -6 3 -16 19 -23 34 -11 27 -13
27 -41 15z"/>
<path d="M1250 4071 c-14 -5 -76 -6 -139 -4 -98 3 -117 1 -133 -14 -36 -32
-39 -49 -22 -115 22 -83 36 -269 22 -285 -12 -15 3 -37 34 -54 14 -8 25 -5 46
10 60 42 190 8 227 -60 l19 -37 -24 -36 c-38 -55 -109 -80 -218 -77 -38 1 -95
52 -85 76 3 9 -2 18 -12 21 -28 11 -57 -28 -62 -83 -6 -58 1 -65 110 -102 114
-39 221 -17 306 62 63 60 88 150 57 209 -35 66 -183 167 -226 153 -10 -3 -29
0 -43 6 -26 12 -33 42 -40 173 l-2 29 110 4 c61 3 118 9 127 14 9 5 25 9 36 9
42 0 48 88 7 104 -21 8 -62 6 -95 -3z"/>
<path d="M1512 3992 c-54 -53 -105 -155 -105 -212 1 -126 23 -203 81 -279 47
-62 99 -101 136 -102 141 -5 208 56 237 216 23 124 -15 239 -109 326 -108 101
-174 115 -240 51z m181 -121 c62 -57 90 -145 74 -238 -9 -56 -16 -72 -49 -105
-41 -41 -75 -49 -85 -20 -3 9 -25 36 -49 58 -44 43 -61 88 -71 185 -5 52 11
94 54 133 33 31 85 26 126 -13z"/>
<path d="M10742 3602 c-23 -19 -31 -33 -27 -44 5 -13 0 -19 -17 -23 -16 -4
-30 -19 -39 -42 -7 -19 -23 -41 -34 -49 -25 -18 -12 -43 30 -57 38 -13 52 7
60 88 l7 64 33 -16 c62 -30 85 9 45 75 -11 17 -21 32 -22 32 -2 0 -18 -13 -36
-28z"/>
<path d="M12440 3579 c-14 -6 -36 -21 -50 -33 -16 -15 -43 -26 -75 -30 -51 -6
-78 -27 -73 -55 3 -17 30 -31 99 -54 43 -14 49 -14 75 2 25 15 28 22 25 59 -3
47 11 54 53 27 18 -12 30 -13 50 -6 37 15 32 35 -16 70 -45 34 -51 35 -88 20z"/>
<path d="M11919 3550 c-12 -16 -26 -27 -31 -24 -10 6 -67 -28 -92 -55 -24 -27
-12 -67 25 -80 25 -9 33 -7 49 9 11 11 20 30 20 43 0 38 14 49 33 27 22 -26
73 -27 81 -2 8 25 -18 84 -43 99 -18 11 -23 9 -42 -17z"/>
<path d="M13360 3558 c-11 -13 -23 -33 -26 -45 -4 -13 -23 -30 -49 -42 -24
-11 -46 -25 -50 -31 -4 -7 -12 -7 -26 1 -28 14 -53 4 -83 -36 -14 -18 -26 -36
-26 -38 0 -3 17 -13 38 -23 41 -21 82 -20 82 2 0 14 14 17 62 14 14 -1 29 4
33 10 4 7 15 3 32 -10 42 -33 183 -22 183 14 0 20 -31 56 -47 56 -9 0 -27 -9
-39 -20 l-21 -21 -7 49 c-3 27 -3 63 0 80 6 31 -7 62 -27 62 -4 0 -18 -10 -29
-22z"/>
<path d="M11086 3556 c-22 -7 -46 -23 -55 -35 -14 -22 -13 -25 8 -42 28 -23
57 -24 65 -4 3 8 17 20 31 25 21 8 26 16 23 37 -4 32 -18 36 -72 19z"/>
<path d="M11513 3546 c-4 -7 -23 -21 -40 -30 -48 -24 -90 -69 -98 -104 -8 -39
-2 -49 42 -67 44 -19 49 -14 58 68 6 49 10 57 24 51 9 -4 37 -9 62 -12 45 -4
47 -3 51 27 4 26 -1 35 -28 56 -37 28 -59 32 -71 11z"/>
<path d="M12957 3542 c-48 -53 29 -122 87 -79 17 13 17 15 2 45 -15 29 -43 52
-64 52 -5 0 -16 -8 -25 -18z"/>
<path d="M11255 3531 c-24 -11 -65 -49 -65 -61 0 -17 32 -40 54 -40 32 0 92
26 99 43 3 8 0 25 -7 38 -12 26 -47 34 -81 20z"/>
<path d="M9319 3513 c-18 -4 -30 -45 -20 -62 9 -14 56 -24 80 -16 26 8 28 46
3 68 -18 17 -31 19 -63 10z"/>
<path d="M9752 3503 c-19 -16 -28 -51 -24 -94 2 -21 75 -69 105 -69 47 0 61
39 27 75 -11 11 -26 39 -33 60 -16 46 -42 56 -75 28z"/>
<path d="M12668 3479 c-21 -22 -37 -46 -35 -52 6 -21 80 -50 97 -40 29 19 20
133 -11 133 -7 0 -30 -18 -51 -41z"/>
<path d="M10207 3482 c-30 -31 -26 -44 19 -59 27 -9 34 -8 51 8 19 19 19 19
43 -1 42 -37 104 -40 124 -7 9 15 5 23 -24 47 -38 32 -60 36 -92 19 -17 -9
-23 -8 -30 5 -14 25 -61 20 -91 -12z"/>
<path d="M10878 3456 c-21 -18 -38 -40 -38 -48 0 -17 41 -48 62 -48 19 0 45
48 50 90 4 48 -25 50 -74 6z"/>
<path d="M10488 3458 c-10 -12 -18 -26 -18 -31 0 -19 42 -67 59 -67 50 0 71
88 26 108 -36 17 -47 15 -67 -10z"/>
<path d="M11657 3468 c-44 -33 -9 -93 58 -100 24 -2 31 2 39 23 7 21 4 32 -14
58 -25 33 -55 40 -83 19z"/>
<path d="M12821 3467 c-37 -18 -47 -41 -33 -71 8 -19 19 -26 39 -26 36 0 49 9
62 43 21 54 -15 82 -68 54z"/>
<path d="M9588 3447 c-35 -29 -35 -39 2 -70 35 -30 60 -26 95 15 34 40 31 55
-11 62 -19 4 -41 9 -47 11 -7 3 -24 -6 -39 -18z"/>
<path d="M9468 3412 c-54 -54 -47 -92 17 -92 46 0 53 10 51 70 -1 69 -17 74
-68 22z"/>
<path d="M8965 3420 c-10 -11 -25 -20 -33 -20 -43 0 -102 -64 -102 -113 0 -19
7 -26 28 -31 15 -4 34 -9 42 -11 12 -4 19 7 28 37 18 68 24 73 61 54 36 -19
63 -10 82 26 10 19 8 25 -22 50 -39 33 -59 35 -84 8z"/>
<path d="M5319 3389 c-9 -17 -17 -20 -41 -15 -23 4 -35 0 -54 -19 -31 -31 -30
-37 7 -64 35 -26 59 -22 59 12 0 35 9 39 40 17 16 -11 42 -20 59 -20 26 0 31
4 31 23 0 26 -26 60 -57 76 -29 15 -31 14 -44 -10z"/>
<path d="M6468 3375 c-10 -13 -18 -27 -18 -31 0 -16 54 -64 72 -64 30 0 42 41
24 83 -18 44 -52 49 -78 12z"/>
<path d="M12094 3363 c-19 -20 -34 -42 -34 -49 0 -7 16 -22 36 -33 l37 -22 28
33 c37 44 46 78 23 95 -30 22 -55 15 -90 -24z"/>
<path d="M9940 3384 c-22 -7 -62 -81 -55 -104 5 -16 12 -18 38 -13 59 10 77
29 77 78 0 40 -2 45 -22 44 -13 -1 -30 -3 -38 -5z"/>
<path d="M7166 3364 c-27 -27 -19 -52 23 -74 30 -15 41 -17 48 -7 22 28 21 45
-6 71 -31 30 -44 32 -65 10z"/>
<path d="M10128 3373 c-28 -4 -68 -49 -68 -75 0 -22 44 -38 76 -29 37 10 65
57 53 89 -4 12 -14 21 -21 21 -7 -1 -25 -4 -40 -6z"/>
<path d="M7547 3348 c-15 -11 -27 -26 -27 -33 0 -19 -49 -75 -66 -75 -20 0
-41 -47 -27 -61 13 -13 84 -30 95 -23 4 3 13 25 19 50 6 24 17 44 23 44 19 0
56 44 56 66 0 10 -11 26 -23 35 -21 16 -25 16 -50 -3z"/>
<path d="M9152 3347 c-31 -33 -28 -54 13 -67 40 -13 70 -2 80 31 8 25 -9 44
-46 53 -19 4 -31 0 -47 -17z"/>
<path d="M13530 3327 c-25 -35 -14 -65 24 -73 79 -14 106 13 64 65 -28 36 -67
40 -88 8z"/>
<path d="M3017 3333 c-4 -3 -7 -22 -7 -40 0 -26 -8 -41 -30 -60 -57 -48 -26
-125 41 -101 25 8 29 15 29 46 0 19 7 43 15 52 19 21 23 74 6 94 -14 16 -42
21 -54 9z"/>
<path d="M3117 3333 c-21 -21 4 -103 31 -103 26 0 39 72 17 94 -17 17 -37 21
-48 9z"/>
<path d="M4241 3326 c-7 -8 -11 -27 -9 -43 2 -23 10 -29 48 -40 39 -12 46 -11
56 2 18 24 5 55 -30 76 -37 23 -50 24 -65 5z"/>
<path d="M2352 3313 c-27 -55 -35 -102 -22 -132 17 -42 45 -41 60 3 6 19 18
40 26 46 21 19 18 77 -5 90 -29 15 -49 12 -59 -7z"/>
<path d="M4124 3306 c-3 -8 -4 -29 -2 -48 3 -31 5 -33 38 -30 45 3 54 13 39
45 -14 31 -67 54 -75 33z"/>
<path d="M6608 3295 c-23 -31 -23 -34 5 -45 12 -6 29 -15 39 -22 13 -9 20 -9
32 1 22 18 20 47 -4 71 -26 26 -51 25 -72 -5z"/>
<path d="M7334 3301 c-45 -28 -51 -41 -26 -62 26 -21 52 -15 83 17 18 20 21
29 13 42 -16 24 -34 25 -70 3z"/>
<path d="M5623 3264 c-24 -24 -43 -49 -43 -54 0 -6 -9 -15 -20 -22 -33 -21
-26 -57 16 -74 50 -21 64 -13 64 35 0 33 4 40 23 43 12 2 30 -1 40 -7 14 -8
21 -6 32 8 12 17 10 25 -17 68 -16 27 -35 49 -41 49 -7 0 -31 -21 -54 -46z"/>
<path d="M6402 3298 c-5 -7 -17 -28 -27 -47 -17 -33 -17 -34 9 -59 22 -22 30
-25 53 -16 24 8 28 15 31 55 4 63 -36 103 -66 67z"/>
<path d="M8256 3288 c-9 -12 -16 -29 -16 -36 0 -9 -7 -11 -19 -7 -29 9 -70 -5
-82 -27 -6 -10 -7 -32 -4 -49 7 -32 31 -38 79 -19 20 7 26 17 26 39 0 24 5 29
31 35 17 3 47 6 65 6 40 0 44 15 13 54 -26 33 -71 35 -93 4z"/>
<path d="M5097 3278 c-40 -35 -44 -72 -13 -102 14 -15 30 -26 36 -26 17 0 41
68 38 108 -4 45 -25 52 -61 20z"/>
<path d="M6219 3269 c-18 -26 -20 -34 -9 -54 16 -30 51 -46 73 -33 28 15 23
82 -8 102 -32 21 -30 21 -56 -15z"/>
<path d="M6881 3264 c-35 -44 -20 -91 25 -83 22 4 33 -2 39 -21 7 -22 43 -35
74 -25 11 3 25 21 32 42 10 31 9 37 -9 56 -18 18 -25 19 -47 9 -35 -16 -46
-15 -39 3 8 19 -13 45 -36 45 -10 0 -28 -12 -39 -26z"/>
<path d="M8685 3253 c-32 -48 -33 -91 -2 -97 36 -8 69 -2 77 14 12 24 27 95
22 108 -2 7 -19 12 -37 12 -28 0 -39 -7 -60 -37z"/>
<path d="M3376 3255 c-8 -31 12 -64 42 -72 29 -7 40 4 42 42 4 53 2 55 -39 55
-33 0 -40 -4 -45 -25z"/>
<path d="M7106 3240 c-33 -34 -37 -42 -26 -55 12 -15 62 -45 74 -45 9 0 26 65
26 101 0 52 -23 51 -74 -1z"/>
<path d="M7678 3268 c-45 -35 -26 -89 37 -102 29 -6 31 -4 47 37 9 24 13 49 9
56 -12 18 -73 24 -93 9z"/>
<path d="M8510 3250 c-17 -17 -35 -28 -39 -26 -4 3 -29 -8 -54 -24 -36 -23
-47 -36 -53 -65 -5 -29 -2 -41 16 -60 40 -42 80 -9 80 66 0 48 15 74 26 45 9
-23 76 -21 97 2 26 29 21 59 -13 77 -28 15 -30 14 -60 -15z"/>
<path d="M13684 3266 c-38 -17 -48 -48 -23 -70 27 -22 54 -20 83 8 32 29 32
40 4 60 -27 19 -25 19 -64 2z"/>
<path d="M4613 3233 c-12 -24 -10 -30 14 -55 31 -33 41 -34 59 -10 20 26 17
70 -5 82 -33 17 -55 11 -68 -17z"/>
<path d="M3500 3221 c-19 -48 -10 -65 38 -72 23 -3 44 -3 47 -1 12 13 3 64
-15 82 -29 29 -55 25 -70 -9z"/>
<path d="M5457 3222 c-33 -34 -33 -43 -4 -70 28 -27 39 -27 60 -4 22 24 21 65
-1 85 -24 22 -24 22 -55 -11z"/>
<path d="M5887 3236 c-9 -7 -35 -16 -57 -20 -64 -10 -88 -67 -54 -126 19 -32
49 -30 60 4 4 11 13 31 21 43 12 18 19 20 43 13 25 -7 33 -5 50 17 25 32 25
45 2 66 -22 20 -41 21 -65 3z"/>
<path d="M6748 3232 c-9 -10 -21 -30 -27 -45 -9 -24 -7 -31 21 -57 17 -17 34
-30 38 -30 16 0 28 27 34 77 6 45 4 53 -13 62 -26 14 -33 13 -53 -7z"/>
<path d="M3665 3233 c-14 -11 -35 -60 -35 -82 0 -23 19 -40 49 -43 18 -2 25 5
36 35 16 46 6 91 -21 95 -10 1 -24 -1 -29 -5z"/>
<path d="M13796 3221 c-10 -11 -16 -30 -14 -43 3 -21 8 -23 53 -23 43 1 50 4
53 22 4 26 -30 63 -56 63 -11 0 -27 -9 -36 -19z"/>
<path d="M2669 3193 c-11 -34 -10 -38 15 -60 21 -18 34 -21 69 -17 63 8 67 11
67 48 0 43 -21 57 -91 61 -47 4 -48 3 -60 -32z"/>
<path d="M3207 3223 c-11 -10 -8 -53 3 -53 5 0 12 -11 16 -25 10 -39 49 -34
63 8 11 30 10 34 -16 54 -28 23 -54 29 -66 16z"/>
<path d="M4762 3200 c-19 -25 -20 -33 -10 -50 17 -26 67 -44 84 -29 21 17 26
46 13 71 -25 47 -56 50 -87 8z"/>
<path d="M3795 3196 c-19 -29 -12 -67 17 -93 19 -17 21 -17 49 15 33 37 37 62
11 85 -26 24 -59 21 -77 -7z"/>
<path d="M6016 3205 c-3 -8 -12 -15 -21 -15 -19 0 -19 -9 0 -46 12 -26 21 -30
57 -33 28 -1 51 -10 66 -24 28 -26 53 -15 66 31 7 24 5 38 -8 57 -21 32 -41
32 -71 -1 l-25 -26 -9 25 c-13 33 -47 53 -55 32z"/>
<path d="M7875 3201 c-52 -24 -79 -54 -70 -80 7 -23 21 -28 85 -36 l45 -5 16
50 c13 43 14 53 2 70 -17 24 -26 24 -78 1z"/>
<path d="M2447 3203 c-9 -8 -9 -56 -1 -77 4 -11 19 -16 45 -16 38 0 39 1 39
34 0 19 -7 42 -16 50 -16 16 -55 22 -67 9z"/>
<path d="M3946 3178 c-3 -13 0 -35 7 -50 10 -24 16 -27 42 -22 25 4 36 -1 67
-32 32 -31 40 -35 53 -24 23 19 17 129 -7 144 -13 8 -22 5 -42 -13 l-24 -23
-21 21 c-28 28 -67 28 -75 -1z"/>
<path d="M4951 3174 c-25 -32 -26 -46 -6 -84 18 -34 22 -36 53 -14 18 12 22
25 22 70 0 51 -2 54 -24 54 -15 0 -33 -11 -45 -26z"/>
<path d="M7993 3174 c-15 -24 -15 -29 -2 -53 21 -37 55 -39 90 -5 38 36 37 52
-6 70 -48 20 -62 18 -82 -12z"/>
<path d="M3313 3162 c-7 -4 -15 -26 -19 -49 -8 -49 16 -93 51 -93 18 0 25 9
35 44 10 37 9 48 -4 75 -16 30 -39 39 -63 23z"/>
<path d="M2852 3148 c-18 -18 -15 -40 11 -69 24 -29 87 -48 87 -26 0 6 3 21 6
32 12 45 -71 96 -104 63z"/>
<path d="M4505 3140 c-19 -21 -55 -27 -55 -10 0 6 -13 10 -30 10 -23 0 -33 -7
-45 -29 -8 -17 -12 -36 -9 -44 7 -20 50 -41 68 -34 8 3 18 2 21 -3 4 -6 22
-10 40 -10 30 0 37 5 55 40 23 45 25 71 8 88 -17 17 -32 15 -53 -8z"/>
<path d="M2577 3073 c-14 -4 -17 -10 -12 -26 4 -12 9 -35 12 -50 4 -23 9 -26
27 -21 11 3 32 17 45 30 22 20 23 26 13 49 -12 25 -37 30 -85 18z"/>
<path d="M2239 1803 c-14 -2 -33 -16 -43 -33 -9 -17 -21 -30 -27 -30 -17 0 -9
-37 11 -55 19 -17 26 -18 66 -7 54 15 111 16 119 2 3 -5 14 -10 24 -10 11 0
21 -9 24 -22 3 -13 15 -49 26 -80 25 -72 31 -176 10 -189 -8 -4 -39 -8 -69 -8
-83 1 -135 -16 -165 -55 -31 -41 -31 -51 4 -101 25 -36 32 -40 67 -38 26 1 63
15 103 38 61 36 65 37 105 25 44 -13 106 -62 118 -92 8 -21 41 -24 55 -5 23
29 22 61 -3 94 -14 18 -30 33 -37 33 -14 1 -81 61 -95 86 -6 11 -6 30 0 53 12
42 5 156 -14 209 -41 123 -164 205 -279 185z"/>
<path d="M2035 1788 c-41 -24 -46 -39 -38 -118 4 -41 7 -143 8 -227 0 -141 1
-153 23 -182 12 -17 27 -31 32 -31 5 0 17 16 25 37 16 39 23 282 8 305 -4 7
-6 51 -5 98 1 68 -2 89 -16 107 -14 18 -20 20 -37 11z"/>
<path d="M7318 1662 c-20 -22 -39 -49 -43 -61 -3 -12 -11 -21 -16 -21 -5 0 -9
-6 -9 -13 0 -7 -13 -28 -30 -47 -16 -19 -29 -40 -30 -47 0 -6 -13 -45 -30 -86
-16 -42 -30 -87 -30 -102 0 -14 -4 -34 -10 -44 -5 -10 -14 -45 -19 -77 -7 -46
-6 -64 5 -81 8 -12 16 -30 17 -40 6 -31 28 -69 47 -81 23 -14 92 -18 110 -6
16 9 21 11 46 13 45 3 124 141 124 215 0 42 -19 97 -39 114 -9 7 -47 29 -86
48 -38 20 -72 38 -73 39 -2 2 9 23 26 47 16 24 32 52 36 63 3 11 21 36 39 55
56 58 69 84 58 114 -6 14 -15 26 -20 26 -5 0 -16 2 -24 5 -8 4 -28 -10 -49
-33z m16 -436 c40 -37 43 -57 21 -107 -25 -59 -48 -80 -93 -86 -41 -6 -42 -5
-61 39 -16 38 -17 52 -8 99 12 67 30 89 73 89 23 0 43 -10 68 -34z"/>
<path d="M13136 1642 c-2 -4 -7 -24 -11 -45 -6 -29 -4 -37 7 -37 42 0 227
-152 228 -187 0 -6 11 -24 24 -40 13 -15 27 -38 30 -51 8 -23 7 -23 -58 -19
-72 5 -117 -10 -167 -57 -29 -27 -49 -83 -42 -118 7 -37 64 -68 123 -68 59 0
140 18 140 31 0 5 6 9 14 9 8 0 17 7 20 16 9 23 58 14 72 -14 6 -13 25 -38 42
-55 17 -18 35 -51 41 -73 12 -45 23 -58 60 -69 24 -7 24 -7 19 59 -4 41 -12
74 -22 85 -15 17 -22 41 -11 41 3 0 16 -7 28 -15 28 -18 145 -36 153 -23 3 5
12 7 18 5 18 -7 31 3 50 41 20 40 29 40 56 2 12 -16 33 -33 48 -36 15 -4 32
-11 39 -16 14 -11 115 -3 143 12 19 10 20 19 18 119 -2 88 1 113 15 135 10 14
22 26 27 26 19 0 59 -51 75 -97 20 -55 67 -105 90 -97 24 10 55 88 55 140 0
48 20 77 47 67 19 -7 68 -93 82 -143 7 -25 17 -52 21 -61 5 -9 12 -34 16 -55
12 -70 39 -103 83 -104 23 0 24 1 19 73 -3 39 -10 81 -16 92 -6 11 -18 45 -26
76 -36 130 -105 233 -173 257 l-41 15 -41 -42 c-23 -23 -41 -51 -41 -61 0 -9
-7 -23 -15 -30 -12 -10 -23 -5 -62 28 -26 22 -58 43 -70 46 -32 10 -88 -18
-109 -53 -10 -17 -26 -34 -36 -37 -44 -14 -52 -87 -17 -158 21 -44 24 -66 9
-66 -5 0 -10 5 -10 10 0 6 -11 15 -24 21 -26 12 -76 101 -76 135 0 34 -48 120
-76 134 -22 12 -29 12 -52 -4 -15 -9 -41 -23 -58 -31 -17 -8 -47 -32 -67 -54
-20 -23 -40 -41 -45 -41 -15 0 -72 -108 -72 -136 0 -23 -17 -16 -42 19 -12 17
-33 41 -45 52 -15 12 -27 39 -33 72 -18 97 -77 200 -165 287 -44 43 -90 82
-103 87 -28 11 -79 12 -86 1z m732 -428 c3 -45 0 -52 -31 -82 -30 -29 -39 -33
-70 -27 -37 7 -53 27 -40 49 28 47 109 118 128 112 6 -1 11 -25 13 -52z m-478
-76 c0 -16 -5 -19 -22 -14 -13 3 -33 6 -46 6 -35 0 -24 33 13 41 35 6 55 -6
55 -33z"/>
<path d="M3225 1528 c-44 -40 -46 -44 -41 -82 3 -23 8 -75 12 -116 6 -92 11
-109 37 -137 51 -56 71 -14 61 127 -6 84 4 140 26 140 13 0 74 -84 100 -138
24 -51 54 -68 93 -53 15 6 30 19 34 28 8 22 24 34 36 26 5 -3 28 -45 52 -94
48 -98 85 -149 110 -149 22 0 38 47 26 79 -77 202 -126 281 -186 307 -42 17
-71 8 -87 -27 -18 -40 -36 -33 -78 28 -32 48 -92 94 -132 100 -9 1 -37 -16
-63 -39z"/>
<path d="M12910 1528 c-15 -40 -14 -54 11 -186 20 -110 25 -245 9 -286 -8 -22
-5 -28 20 -46 44 -31 62 -23 77 35 17 66 16 156 -2 293 -19 148 -23 162 -53
195 -33 35 -47 34 -62 -5z"/>
<path d="M2884 1537 c-18 -5 -37 -20 -43 -33 -6 -14 -19 -24 -31 -24 -44 0
-52 -62 -36 -275 5 -65 37 -219 48 -232 12 -15 16 -180 4 -209 -5 -15 -2 -26
9 -38 24 -23 54 -20 65 8 20 53 12 243 -16 368 -5 23 0 30 37 54 59 37 130
110 163 166 42 72 34 168 -14 168 -10 0 -28 12 -40 27 -18 23 -30 28 -68 28
-26 1 -61 -3 -78 -8z m139 -118 c14 -22 -57 -125 -105 -151 -55 -31 -68 -21
-68 56 0 61 2 66 33 90 26 22 41 26 81 24 32 -2 52 -9 59 -19z"/>
<path d="M8035 1337 c-52 -53 -69 -91 -53 -120 6 -12 11 -37 9 -54 -2 -28 11
-114 25 -164 4 -15 44 -39 64 -39 16 0 28 95 23 188 -7 116 4 134 48 82 17
-19 43 -63 59 -97 17 -37 37 -64 49 -68 30 -9 63 18 82 67 l16 43 22 -35 c11
-19 28 -55 37 -80 9 -25 28 -70 43 -100 24 -50 29 -55 62 -58 27 -2 38 1 43
14 5 14 -27 121 -52 171 -51 102 -92 190 -92 199 0 18 -70 75 -87 72 -30 -6
-56 -55 -56 -103 0 -25 -4 -45 -8 -45 -4 0 -22 24 -40 52 -85 133 -123 147
-194 75z"/>
<path d="M7611 1316 c-23 -29 -51 -98 -51 -127 0 -17 9 -42 20 -56 28 -35 25
-52 -10 -64 -37 -13 -37 -21 -3 -64 30 -38 60 -159 70 -281 4 -61 9 -77 34
-104 51 -55 73 -12 54 102 -12 65 -18 166 -16 231 1 10 7 17 14 14 6 -2 27 5
45 15 18 10 44 19 58 20 13 1 24 6 24 10 0 4 5 8 10 8 20 0 79 45 90 68 51
113 -73 227 -257 236 -46 2 -76 -1 -82 -8z m216 -111 c15 -8 33 -15 39 -15 21
0 24 -31 7 -61 -10 -17 -28 -31 -47 -34 -17 -4 -46 -13 -64 -22 -30 -13 -36
-13 -59 2 -22 15 -25 22 -20 55 8 60 31 86 76 88 22 1 52 -5 68 -13z"/>
</g>
</svg>
