<?xml version="1.0" standalone="no"?>
<!DOCTYPE svg PUBLIC "-//W3C//DTD SVG 20010904//EN"
 "http://www.w3.org/TR/2001/REC-SVG-20010904/DTD/svg10.dtd">
<svg version="1.0" xmlns="http://www.w3.org/2000/svg"
 width="826.652295pt" height="400.000000pt" viewBox="0 0 826.652295 400.000000"
 preserveAspectRatio="xMidYMid meet">
<metadata>
Created by potrace 1.15, written by Peter Selinger 2001-2017
</metadata>
<g transform="translate(-14.904239,410.042021) scale(0.041293,-0.041293)"
fill="#444444" stroke="none">
<path d="M6612 9922 c-10 -7 -11 -19 -3 -53 5 -24 13 -82 16 -129 3 -47 8 -94
10 -106 3 -11 5 -83 6 -160 1 -76 4 -145 6 -152 15 -38 136 -54 243 -32 25 6
80 14 123 19 96 11 117 26 91 65 -16 25 -20 27 -73 21 -141 -15 -229 -27 -260
-37 -28 -9 -36 -8 -46 6 -11 15 -20 132 -31 415 -4 90 -7 108 -26 128 -23 24
-35 28 -56 15z"/>
<path d="M12650 9910 c-5 -10 -12 -58 -15 -105 -2 -47 -7 -90 -10 -95 -3 -6
-32 -10 -63 -10 -74 0 -100 -8 -108 -32 -10 -33 21 -46 99 -42 l70 4 -6 -37
c-8 -48 -15 -53 -71 -56 -35 -3 -50 -9 -62 -26 -15 -21 -15 -24 0 -39 11 -12
31 -16 62 -15 l46 2 -6 -57 c-3 -31 -9 -75 -12 -97 -5 -36 -3 -42 20 -55 38
-20 46 -7 62 101 7 51 17 96 21 100 5 4 36 9 70 11 l61 4 4 -43 c2 -24 0 -51
-3 -61 -3 -9 -9 -45 -12 -79 -7 -62 -6 -63 23 -78 27 -14 30 -14 39 2 5 10 15
69 22 131 12 108 14 114 38 124 17 7 46 7 82 1 62 -10 79 -7 79 10 0 21 -42
40 -110 51 -59 10 -65 13 -68 37 -4 38 16 51 62 38 21 -6 40 -8 44 -5 11 11
-17 54 -40 61 -50 16 -58 33 -58 120 0 60 -4 86 -14 94 -23 20 -46 -27 -53
-108 l-6 -71 -48 0 c-71 0 -90 22 -88 103 2 64 -15 137 -31 137 -5 0 -14 -9
-20 -20z m164 -296 c16 -6 23 -59 9 -67 -5 -2 -35 -1 -68 2 -62 6 -66 11 -50
59 5 13 80 17 109 6z"/>
<path d="M10474 9875 c-15 -23 -15 -26 19 -67 97 -121 138 -232 138 -372 0
-80 -3 -94 -28 -135 -17 -27 -42 -52 -61 -60 -58 -26 -26 -49 42 -29 54 15 94
53 107 103 14 49 13 152 -2 225 -6 30 -12 62 -13 70 -3 16 -8 29 -36 95 -19
44 -128 195 -141 195 -5 0 -16 -11 -25 -25z"/>
<path d="M3091 9881 c-36 -9 -49 -36 -29 -58 18 -21 49 -187 43 -234 -3 -18
-16 -44 -30 -59 -14 -14 -25 -31 -25 -36 0 -6 16 -29 35 -51 31 -36 35 -48 35
-95 0 -41 6 -60 23 -82 31 -38 57 -30 55 17 -2 57 8 60 66 18 65 -48 146 -67
146 -33 0 18 -37 48 -101 81 -15 7 -48 32 -73 56 -69 63 -63 120 17 145 55 17
126 59 137 81 15 27 -7 64 -78 129 -109 100 -170 133 -221 121z m135 -130 c21
-16 52 -42 67 -59 l29 -30 -34 -25 c-75 -56 -108 -59 -108 -10 0 15 -5 45 -11
67 -11 39 -6 86 10 86 4 0 26 -13 47 -29z"/>
<path d="M9574 9856 c-47 -21 -112 -103 -130 -166 -31 -100 -15 -240 38 -343
21 -43 122 -147 142 -147 43 0 47 61 7 89 -68 49 -122 174 -122 285 0 96 27
156 99 223 31 29 54 54 52 57 -13 13 -59 14 -86 2z"/>
<path d="M13425 9861 c-60 -10 -115 -47 -115 -77 0 -35 23 -39 76 -14 67 33
141 24 183 -22 22 -23 30 -41 28 -62 -2 -24 -12 -34 -67 -62 -36 -19 -70 -34
-77 -34 -7 0 -14 26 -18 65 -4 37 -15 75 -24 86 l-16 21 -19 -21 c-17 -19 -18
-25 -6 -64 15 -44 14 -100 -1 -128 -5 -9 -4 -20 2 -26 6 -6 12 -63 14 -127 3
-120 11 -146 45 -146 23 0 32 24 20 56 -6 14 -10 57 -10 95 0 67 1 69 24 69
46 0 256 -141 256 -172 0 -6 7 -25 16 -44 16 -33 43 -46 45 -21 7 78 -74 175
-225 266 -31 18 -54 37 -51 41 2 4 19 13 37 20 18 8 52 29 76 47 37 31 42 39
42 77 0 44 -27 92 -73 129 -23 19 -104 58 -115 56 -4 -1 -25 -4 -47 -8z"/>
<path d="M7680 9850 c-13 -8 -12 -18 9 -76 29 -81 41 -193 20 -195 -8 -1 -21
-2 -29 -3 -8 0 -26 -9 -40 -19 -20 -14 -23 -20 -14 -35 6 -9 28 -20 48 -23 20
-3 39 -9 42 -12 3 -3 2 -30 -3 -60 -14 -81 -6 -126 25 -138 14 -5 29 -6 33 -2
11 11 29 104 29 147 0 45 12 57 66 67 47 9 84 32 72 45 -3 3 -26 7 -50 8 -64
5 -86 20 -93 64 -15 84 -75 242 -93 242 -4 0 -14 -5 -22 -10z"/>
<path d="M18674 9827 c-3 -8 2 -49 10 -90 25 -122 26 -120 -44 -119 -37 1 -60
-12 -60 -34 0 -18 34 -35 88 -43 52 -7 46 12 57 -186 3 -71 9 -133 13 -137 4
-3 18 -8 32 -10 l25 -3 1 160 c2 159 2 160 25 166 13 4 34 4 46 2 11 -3 31 0
43 7 18 10 19 14 8 27 -18 22 -71 43 -107 43 -35 0 -39 5 -46 60 -3 23 -13 56
-22 73 -9 18 -19 45 -23 62 -6 32 -36 46 -46 22z"/>
<path d="M14973 9785 c-3 -9 -1 -35 5 -58 12 -47 25 -147 19 -147 -2 0 -30 9
-62 20 -32 11 -66 20 -75 20 -16 0 -30 -19 -30 -40 0 -12 125 -70 150 -70 24
0 24 2 25 -134 l0 -109 28 -8 c15 -4 27 -7 28 -6 1 1 6 54 13 117 l11 115 67
0 c74 0 84 5 69 33 -10 19 -82 42 -129 42 -14 0 -21 19 -35 102 -17 99 -35
138 -64 138 -7 0 -16 -7 -20 -15z"/>
<path d="M10386 9671 c-4 -6 -17 -11 -29 -11 -27 -1 -97 -64 -97 -88 0 -27 35
-73 96 -128 32 -28 55 -55 51 -60 -4 -7 -27 -8 -58 -4 -42 6 -58 13 -82 40
-23 26 -33 31 -46 23 -28 -18 -23 -39 22 -85 46 -48 85 -62 147 -52 93 15 104
60 32 137 -27 29 -59 67 -72 85 -22 33 -22 34 -3 53 11 11 42 23 72 28 29 5
57 14 61 21 12 20 0 40 -24 40 -11 0 -31 3 -42 6 -12 3 -25 1 -28 -5z"/>
<path d="M5365 9630 c-37 -8 -91 -36 -100 -51 -12 -18 15 -65 58 -100 121 -98
154 -152 102 -165 -35 -9 -112 4 -129 22 -19 19 -46 18 -46 -2 0 -49 65 -84
154 -84 44 0 60 5 86 27 51 42 39 77 -60 178 -44 45 -80 87 -80 93 0 5 24 13
53 17 72 10 98 33 60 53 -30 15 -66 20 -98 12z"/>
<path d="M9749 9608 c-29 -42 -40 -49 -56 -37 -8 7 -19 7 -33 -1 -20 -10 -21
-17 -15 -53 4 -23 9 -71 11 -106 2 -35 5 -64 6 -65 2 0 13 -7 26 -14 32 -18
38 -10 45 50 6 54 41 147 61 160 12 8 55 -64 56 -93 0 -9 9 -24 21 -35 28 -25
45 -12 74 60 13 33 33 68 43 78 18 18 19 18 35 0 18 -20 57 -142 57 -178 0
-15 9 -25 30 -32 18 -7 32 -7 35 -2 14 22 -23 160 -61 230 -25 46 -30 50 -65
50 -30 0 -46 -8 -80 -40 -24 -22 -44 -40 -46 -40 -1 0 -9 13 -18 30 -16 31
-44 53 -82 64 -16 5 -26 0 -44 -26z"/>
<path d="M11571 9613 c-12 -10 -34 -54 -50 -104 -16 -47 -39 -105 -51 -129
l-22 -44 -14 25 c-20 35 -42 116 -49 181 -9 71 -27 90 -57 60 -20 -19 -20 -24
-8 -84 23 -118 50 -185 94 -233 44 -47 88 -18 133 90 41 98 73 191 73 212 0
34 -24 46 -49 26z"/>
<path d="M7313 9591 c-74 -35 -119 -73 -144 -123 -20 -39 -25 -78 -11 -78 5 0
15 -11 22 -25 41 -77 196 -68 238 14 9 19 22 37 29 39 7 2 25 -23 42 -56 31
-62 73 -92 108 -77 13 5 14 9 5 12 -16 6 -70 112 -88 174 -19 62 -43 91 -70
83 -16 -4 -24 -19 -34 -69 -9 -44 -22 -74 -42 -95 -26 -29 -32 -31 -71 -25
-40 6 -77 35 -77 59 1 6 8 20 18 31 20 24 126 95 141 95 19 0 51 39 45 55 -9
22 -42 18 -111 -14z"/>
<path d="M11737 9604 c-59 -19 -84 -52 -66 -86 16 -30 66 -79 104 -102 39 -23
68 -71 52 -84 -27 -21 -75 -21 -101 -1 l-26 20 -12 -25 c-10 -23 -8 -29 11
-50 45 -48 152 -38 194 19 16 22 16 28 3 58 -7 19 -44 64 -81 100 -38 37 -64
70 -61 76 4 6 29 11 55 11 30 0 53 6 61 15 14 17 4 55 -14 55 -8 0 -26 2 -42
4 -16 3 -50 -2 -77 -10z"/>
<path d="M19035 9613 c-16 -3 -45 -16 -62 -29 -61 -46 -42 -94 72 -179 84 -63
129 -111 121 -130 -10 -27 -126 -14 -176 20 -43 30 -70 32 -70 7 0 -28 21 -49
78 -77 59 -30 132 -35 201 -14 47 14 53 37 25 92 -16 32 -154 157 -173 157 -6
0 -17 14 -26 30 -16 30 -15 30 20 47 31 15 43 15 92 5 33 -7 61 -8 66 -3 11
11 -8 48 -31 59 -23 12 -99 20 -137 15z"/>
<path d="M8080 9602 c-36 -5 -90 -49 -105 -86 -7 -17 -23 -43 -34 -58 l-22
-27 36 -46 c19 -26 58 -62 86 -82 49 -33 55 -35 120 -31 54 3 72 8 83 23 18
24 11 38 -15 30 -49 -16 -81 -13 -129 12 -27 14 -50 30 -50 34 0 5 -1 12 -2
17 -2 4 12 8 30 9 34 1 122 39 134 57 12 18 9 65 -6 94 -21 40 -72 62 -126 54z
m60 -62 c11 -11 20 -29 20 -39 0 -41 -74 -65 -121 -41 -16 9 -17 14 -8 33 19
36 51 67 71 67 10 0 27 -9 38 -20z"/>
<path d="M8367 9596 c-36 -28 -107 -148 -107 -181 0 -64 12 -96 38 -106 35
-13 42 -3 52 80 9 68 38 142 61 156 31 20 99 -117 99 -200 0 -28 5 -38 25 -47
21 -10 29 -9 43 5 16 16 16 21 0 82 -22 82 -61 165 -90 192 -30 27 -97 38
-121 19z"/>
<path d="M8755 9603 c-51 -11 -77 -29 -115 -77 -71 -93 -49 -173 62 -231 52
-27 93 -31 133 -13 33 15 32 28 -2 28 -45 0 -96 23 -132 58 -29 29 -33 38 -28
69 4 20 16 46 28 59 24 25 112 59 128 49 6 -3 15 4 21 15 22 40 -21 60 -95 43z"/>
<path d="M3595 9585 c-78 -28 -124 -110 -111 -198 10 -68 66 -116 171 -148 42
-13 134 8 167 39 l26 24 17 -26 c24 -36 76 -66 114 -66 43 0 129 38 136 60 9
29 -11 67 -75 141 -34 39 -60 78 -58 87 2 12 20 19 63 25 62 9 97 29 89 52 -4
10 -26 12 -97 9 -96 -6 -157 -24 -157 -47 0 -25 124 -172 165 -194 25 -14 13
-59 -17 -67 -50 -13 -78 -6 -117 30 -38 34 -41 35 -68 21 -44 -23 -89 -29
-152 -22 -65 7 -123 37 -115 58 2 7 48 29 102 48 73 26 100 40 111 60 21 38 7
75 -39 104 -45 28 -94 32 -155 10z m136 -55 c27 -15 24 -28 -8 -36 -16 -4 -39
-12 -53 -19 -14 -7 -44 -16 -67 -20 -52 -8 -57 7 -17 54 22 27 32 31 76 31 27
0 58 -5 69 -10z"/>
<path d="M9174 9581 c-20 -12 -41 -42 -63 -90 -37 -80 -30 -78 -141 -39 -81
28 -130 41 -136 36 -22 -23 73 -105 131 -113 42 -5 75 -22 75 -38 0 -7 -9 -25
-21 -42 -11 -16 -37 -64 -58 -105 -21 -42 -57 -107 -80 -145 l-42 -69 24 -23
c14 -15 29 -21 40 -18 20 8 57 69 57 95 0 10 8 25 18 32 10 7 35 48 56 90 20
43 41 80 45 82 5 3 25 45 46 93 21 48 51 116 67 151 28 62 36 106 20 116 -5 3
-22 -3 -38 -13z"/>
<path d="M5631 9553 c-92 -78 -96 -182 -11 -272 33 -34 95 -58 173 -65 58 -6
72 -4 106 16 21 12 44 31 51 41 11 18 10 19 -17 13 -109 -27 -197 -12 -255 42
-35 32 -35 42 -1 42 15 0 60 19 101 42 70 40 73 44 68 72 -9 45 -50 92 -87
100 -60 12 -83 6 -128 -31z m127 -33 c12 -12 22 -24 22 -29 0 -18 -38 -40 -87
-49 -50 -9 -53 -8 -53 12 1 26 31 63 62 75 32 13 32 13 56 -9z"/>
<path d="M18130 9580 c-82 -15 -134 -70 -150 -161 -20 -106 114 -210 250 -194
68 8 75 12 84 49 7 27 6 28 -21 20 -46 -14 -149 -7 -183 12 -46 28 -44 41 9
55 60 15 120 55 142 94 40 73 -33 143 -131 125z m83 -80 c11 -10 -51 -57 -85
-64 -16 -3 -39 -8 -53 -11 -15 -3 -25 -1 -25 6 0 22 50 78 72 82 28 5 80 -2
91 -13z"/>
<path d="M4286 9559 c-45 -35 -51 -57 -25 -85 13 -13 24 -32 25 -42 1 -9 5
-36 9 -59 l8 -43 -36 0 c-20 0 -39 -5 -42 -10 -8 -13 34 -49 57 -50 10 0 24
-10 33 -23 15 -24 34 -160 28 -206 -1 -14 -4 -37 -5 -50 -2 -14 4 -28 14 -35
14 -8 22 -6 39 10 27 27 30 97 11 217 -10 68 -11 92 -2 95 25 9 96 70 118 102
27 40 25 61 -10 116 -48 76 -164 108 -222 63z m137 -60 c30 -16 37 -28 37 -67
0 -25 -8 -41 -32 -63 -18 -16 -35 -29 -39 -29 -11 0 -17 24 -25 90 -5 48 -4
64 7 71 18 12 26 11 52 -2z"/>
<path d="M17715 9573 c-11 -3 -32 -17 -47 -31 -14 -15 -34 -33 -43 -41 -15
-12 -17 -25 -11 -100 11 -124 15 -140 42 -147 39 -10 43 1 37 99 -4 87 -3 94
21 122 20 25 28 28 42 19 47 -28 74 -108 74 -220 0 -46 3 -54 18 -54 82 0 30
285 -62 341 -32 19 -37 20 -71 12z"/>
<path d="M4632 9550 c-43 -26 -72 -76 -72 -123 0 -32 5 -41 30 -55 19 -11 28
-23 25 -33 -3 -9 4 -28 16 -42 18 -24 27 -27 77 -27 62 1 74 7 115 61 45 60
31 132 -39 202 -31 31 -44 37 -78 37 -23 0 -55 -9 -74 -20z m93 -28 c29 -20
55 -68 55 -101 0 -89 -131 -142 -137 -55 -1 16 -5 44 -9 62 -6 29 -2 37 31 67
38 37 44 39 60 27z"/>
<path d="M13863 9550 c-43 -26 -59 -55 -67 -118 -11 -88 0 -118 69 -187 62
-62 62 -62 134 -69 61 -6 77 -4 104 11 18 11 34 27 35 37 4 17 0 18 -29 11
-85 -19 -135 -6 -192 50 -38 37 -44 60 -16 60 52 2 183 68 195 100 10 26 -36
82 -86 104 -61 26 -106 27 -147 1z m145 -67 c23 -14 23 -15 5 -27 -28 -20 -83
-36 -119 -36 -29 0 -34 3 -34 24 0 27 17 44 57 56 32 9 58 5 91 -17z"/>
<path d="M15870 9549 c-103 -30 -173 -89 -189 -161 -8 -33 -5 -40 35 -86 29
-34 54 -52 76 -56 64 -13 134 -12 188 1 109 27 121 31 146 48 43 28 16 37 -77
24 -96 -14 -202 -16 -240 -6 -38 10 -64 53 -50 83 14 31 49 53 139 85 79 27
100 44 89 73 -8 20 -34 19 -117 -5z"/>
<path d="M16566 9541 c-16 -11 -35 -17 -43 -14 -8 3 -20 -3 -28 -13 -20 -26
-10 -231 13 -256 36 -42 51 -18 61 103 5 64 11 84 29 102 l23 22 20 -24 c10
-13 22 -35 25 -50 4 -14 12 -33 20 -41 7 -8 14 -33 16 -55 2 -32 7 -41 24 -43
17 -2 25 7 42 49 12 28 22 57 22 65 0 14 27 44 39 44 14 0 70 -135 76 -182 9
-71 65 -104 65 -39 0 51 -69 219 -108 264 -32 36 -97 9 -112 -47 -7 -26 -30
-33 -30 -9 0 37 -58 120 -91 132 -38 13 -29 14 -63 -8z"/>
<path d="M4970 9532 c-43 -23 -70 -74 -69 -127 2 -62 12 -90 36 -93 30 -4 44
27 39 88 -3 42 1 57 19 77 30 35 61 25 104 -34 30 -42 34 -53 32 -109 -1 -54
1 -62 18 -67 11 -3 28 1 37 8 34 24 -1 151 -58 216 -55 61 -98 72 -158 41z"/>
<path d="M16255 9540 c-56 -23 -97 -113 -88 -195 3 -28 12 -57 20 -66 11 -14
12 -18 1 -22 -10 -3 -10 -10 2 -33 27 -51 117 -45 180 12 30 28 40 45 46 80
12 82 -35 197 -92 223 -29 13 -41 13 -69 1z m77 -79 c19 -23 33 -100 24 -136
-8 -31 -72 -75 -110 -75 -24 0 -27 2 -16 15 8 10 10 29 7 52 -11 67 28 163 66
163 7 0 20 -9 29 -19z"/>
<path d="M17065 9543 c-40 -8 -67 -28 -87 -66 l-20 -39 27 -28 c22 -23 26 -37
29 -97 2 -39 7 -76 11 -84 5 -7 9 -87 10 -178 2 -192 1 -181 19 -181 32 0 39
30 42 187 2 86 5 157 6 158 2 1 24 9 50 19 36 13 52 26 64 52 21 43 31 50 39
25 6 -21 75 -64 118 -75 20 -5 40 2 77 25 78 48 99 117 60 193 -28 56 -58 85
-97 92 -67 13 -122 -30 -143 -111 -7 -27 -16 -53 -20 -58 -3 -4 -16 14 -27 40
-40 90 -99 136 -158 126z m376 -88 c31 -56 31 -81 2 -115 -69 -82 -141 -46
-114 57 24 89 78 117 112 58z m-293 5 c12 -11 24 -33 28 -48 3 -15 7 -32 9
-38 10 -34 -74 -110 -96 -87 -9 11 -30 173 -23 184 10 16 60 9 82 -11z"/>
<path d="M18432 9525 c-36 -30 -48 -60 -61 -150 -14 -94 -5 -151 23 -159 11
-3 24 -6 29 -6 4 0 7 43 7 95 0 106 18 170 51 178 15 4 25 -3 40 -26 23 -38
55 -136 64 -200 5 -31 14 -51 26 -58 43 -22 46 8 18 136 -20 86 -40 133 -76
175 -41 48 -77 52 -121 15z"/>
<path d="M14351 9520 c-24 -11 -48 -20 -55 -20 -6 0 -39 -18 -73 -40 -43 -27
-68 -51 -83 -79 -28 -56 -25 -74 15 -113 27 -26 47 -34 85 -38 70 -8 114 20
152 95 20 39 21 39 37 17 9 -12 32 -46 51 -77 34 -53 52 -66 65 -45 3 5 -8 36
-25 67 -16 32 -30 62 -30 66 0 4 -16 32 -35 62 -19 30 -31 55 -26 55 11 0 21
38 14 56 -7 19 -40 17 -92 -6z m13 -117 c-37 -85 -50 -101 -90 -112 -108 -30
-99 75 12 130 25 13 48 27 50 31 3 4 16 8 29 8 l25 0 -26 -57z"/>
<path d="M14670 9487 c-48 -16 -58 -24 -76 -59 -34 -66 -15 -159 40 -196 69
-47 176 -33 176 23 0 28 -6 29 -65 15 -22 -5 -47 -7 -55 -5 -22 7 -50 58 -50
89 0 31 40 76 68 76 28 0 48 28 35 48 -13 21 -29 23 -73 9z"/>
<path d="M1115 9140 c-31 -12 -72 -60 -91 -105 -10 -23 -20 -86 -24 -150 -5
-60 -11 -122 -15 -136 -6 -23 0 -31 45 -67 43 -34 55 -40 75 -32 13 5 47 12
76 15 62 7 79 15 113 55 51 61 59 144 22 244 -28 77 -86 153 -132 172 -38 16
-41 16 -69 4z m93 -112 c44 -51 61 -98 62 -164 0 -53 -3 -63 -28 -87 -30 -29
-137 -56 -153 -40 -28 28 -19 241 12 292 26 43 70 43 107 -1z"/>
<path d="M382 9105 c-19 -24 -21 -39 -21 -173 0 -89 4 -151 11 -159 6 -8 33
-13 69 -13 40 0 60 -4 61 -12 1 -7 2 -26 3 -43 1 -16 2 -45 3 -62 2 -35 38
-81 53 -66 4 4 10 47 13 93 3 47 5 86 5 88 1 1 13 2 27 2 14 0 34 5 45 10 16
9 19 7 19 -9 0 -11 14 -47 30 -80 41 -80 78 -99 148 -76 84 28 120 110 110
254 -8 114 -75 231 -132 231 -14 0 -42 -14 -62 -32 -38 -33 -94 -137 -94 -173
0 -39 -15 -50 -56 -39 -34 8 -39 13 -47 49 -4 22 -6 77 -3 121 4 60 1 87 -9
100 -13 18 -14 18 -34 0 -19 -17 -21 -30 -21 -143 l0 -123 -35 0 -35 0 0 123
c0 146 -12 178 -48 132z m481 -122 c58 -117 42 -279 -30 -312 -40 -18 -53 -14
-53 17 0 17 -9 37 -21 48 -19 17 -21 26 -16 95 5 62 12 86 38 128 36 58 61 65
82 24z"/>
<path d="M1497 8910 c-10 -14 -12 -37 -9 -78 5 -55 6 -94 3 -137 -1 -11 -1
-136 -1 -278 0 -143 -2 -263 -5 -267 -5 -7 -6 -362 -3 -695 1 -71 -2 -161 -5
-200 -24 -249 -28 -381 -29 -910 -1 -523 4 -762 17 -860 2 -16 7 -145 9 -285
10 -477 17 -765 21 -805 2 -22 7 -123 10 -225 4 -102 9 -191 11 -199 2 -7 7
-156 10 -330 2 -174 9 -378 15 -453 6 -76 8 -142 5 -146 -3 -4 -1 -26 4 -47
11 -51 13 -218 4 -375 -9 -150 -8 -629 2 -720 4 -36 13 -77 20 -91 7 -15 13
-46 14 -70 0 -24 0 -129 1 -233 1 -180 2 -190 22 -206 24 -20 57 -15 57 9 3
261 7 381 13 388 5 4 189 9 410 9 310 1 426 5 507 17 113 17 515 32 583 22
l43 -7 -3 -174 c-1 -96 -5 -180 -9 -186 -8 -13 14 -28 43 -28 39 0 47 33 49
215 l2 170 296 2 c163 0 304 4 314 8 16 6 517 20 699 20 51 -1 96 -4 100 -9
13 -13 30 -247 21 -296 -4 -24 -5 -59 -2 -78 5 -26 11 -32 28 -30 42 6 51 49
50 240 l-1 177 36 6 c44 7 -17 6 636 10 297 1 575 4 618 5 43 1 81 -1 85 -4 3
-4 6 -80 7 -169 l0 -162 28 -9 c18 -7 31 -6 37 0 6 6 11 80 11 181 l0 171 92
6 c51 4 261 9 468 11 206 2 490 7 630 10 231 6 257 5 269 -10 14 -17 15 -32 5
-262 -4 -93 -2 -114 11 -127 21 -22 31 -20 48 6 11 17 16 71 19 206 3 101 8
186 10 189 12 11 207 19 702 30 595 13 776 8 758 -20 -4 -7 -8 -90 -8 -185
l-1 -173 24 -6 c12 -3 26 -3 29 0 22 22 32 283 13 333 -6 15 -7 31 -3 35 4 4
154 10 333 14 179 3 361 8 405 10 44 1 161 6 259 10 99 3 183 8 186 10 4 3 61
5 126 6 103 1 174 7 234 21 12 2 15 -8 15 -52 2 -247 4 -279 27 -300 28 -25
35 -25 44 2 8 26 7 266 -1 312 l-7 33 169 11 c92 6 215 9 273 6 58 -3 238 0
400 7 162 7 331 13 375 14 l80 0 1 -154 c1 -149 2 -155 25 -174 22 -18 24 -18
36 -1 11 16 20 215 14 301 -3 30 10 35 102 39 45 2 82 4 82 4 0 1 83 3 185 5
102 2 203 6 225 8 253 24 366 30 378 18 8 -8 14 -61 17 -159 5 -142 6 -147 27
-150 18 -3 24 4 32 35 10 35 5 258 -5 275 -2 3 0 9 4 12 19 12 378 21 612 16
36 -1 151 3 255 9 105 6 240 10 302 9 105 0 113 -2 120 -22 8 -23 6 -210 -2
-237 -6 -18 29 -59 51 -59 16 0 28 87 28 218 l1 102 130 -1 c72 0 150 4 175 9
89 20 493 18 650 -3 19 -2 109 -7 200 -11 91 -3 168 -9 173 -13 4 -4 10 -31
14 -59 6 -52 6 -52 -22 -52 -23 0 -26 -2 -15 -15 7 -8 19 -15 27 -15 12 0 14
-14 12 -75 -3 -60 0 -78 13 -92 14 -13 20 -14 32 -4 25 21 36 79 36 193 l0
107 233 -2 c350 -3 611 2 665 13 27 5 154 10 282 11 l234 1 9 -23 c5 -14 5
-69 1 -129 -5 -58 -7 -116 -5 -130 2 -25 37 -70 53 -70 18 0 27 54 30 197 l3
150 133 13 c202 19 614 28 632 14 35 -27 118 -35 352 -32 230 3 237 2 242 -17
3 -11 6 -75 6 -142 0 -125 8 -153 45 -153 30 0 37 40 33 191 l-4 149 -33 34
-33 34 -221 0 c-122 0 -256 3 -297 6 -198 17 -471 20 -630 7 -136 -12 -407
-14 -555 -5 -44 3 -121 0 -171 -5 -227 -26 -881 -32 -1139 -11 -82 7 -184 14
-225 15 -137 5 -261 14 -271 20 -18 12 -388 3 -459 -11 -45 -8 -154 -6 -157 4
-4 10 -301 5 -488 -7 -82 -6 -170 -10 -195 -10 -25 0 -126 -3 -225 -8 -99 -5
-217 -6 -263 -3 -45 3 -95 2 -110 -3 -30 -8 -155 -19 -217 -19 -22 1 -96 -3
-165 -9 -69 -5 -174 -11 -235 -15 -60 -3 -144 -8 -185 -10 -89 -6 -87 -6 -314
-5 -98 0 -181 -1 -185 -3 -3 -2 -89 -7 -191 -10 -102 -4 -212 -9 -245 -13 -33
-3 -204 -7 -380 -8 -386 -3 -634 -12 -695 -26 -25 -5 -61 -9 -80 -8 -64 2
-431 -13 -660 -28 -69 -4 -305 -6 -525 -4 -750 6 -696 6 -1435 -14 -63 -2
-189 -6 -280 -9 -226 -9 -626 -16 -1120 -21 -228 -2 -441 -8 -472 -14 -35 -6
-329 -10 -758 -10 -385 0 -703 -2 -707 -4 -5 -3 -98 -8 -208 -11 -707 -23
-759 -23 -1538 -18 -197 1 -366 -2 -375 -7 -31 -15 -431 -31 -719 -29 l-283 3
0 53 c0 29 -7 67 -16 83 -13 26 -15 94 -12 537 3 496 0 605 -23 767 -7 44 -11
116 -9 160 2 44 3 112 4 150 1 112 -24 652 -34 740 -5 44 -12 238 -15 430 -8
444 -14 695 -19 721 -11 58 -20 453 -20 909 0 530 7 748 24 850 6 33 10 148
10 255 -1 343 0 545 5 978 4 366 3 427 -10 453 -18 34 -38 37 -58 9z"/>
<path d="M19061 8548 c-9 -20 -15 -69 -15 -129 -1 -95 -8 -117 -21 -60 -7 34
-55 83 -62 64 -7 -21 -26 -15 -50 15 -19 23 -24 25 -33 12 -16 -25 -30 -82
-30 -130 0 -50 -12 -76 -29 -65 -7 4 -18 1 -26 -5 -11 -9 -15 -37 -16 -109 l0
-96 -17 51 c-9 28 -25 61 -34 75 l-17 24 -20 -25 c-15 -19 -17 -29 -9 -43 5
-11 7 -33 4 -51 -4 -17 -6 -43 -6 -58 0 -16 -4 -28 -9 -28 -12 0 -19 33 -26
120 -7 87 -19 138 -39 165 -14 19 -15 19 -34 -5 -13 -16 -19 -33 -15 -47 4
-19 -7 -118 -23 -191 -6 -31 -24 -18 -24 17 0 50 -11 87 -35 117 -23 29 -24
29 -39 9 -8 -11 -16 -31 -16 -45 -1 -14 -5 -34 -9 -44 -6 -16 -10 -14 -30 20
-21 36 -24 37 -36 20 -17 -23 -38 -147 -33 -192 3 -28 1 -34 -14 -34 -15 0
-18 9 -19 48 -1 26 -2 52 -4 57 -1 6 -3 19 -4 30 0 11 -12 33 -25 50 -20 24
-26 27 -39 17 -12 -10 -15 -9 -19 6 -4 13 -18 21 -49 26 -35 6 -48 3 -73 -15
-25 -19 -28 -20 -22 -4 10 27 -19 65 -45 58 -21 -6 -73 -101 -113 -205 -30
-80 -38 -69 -34 48 l3 109 -26 3 c-22 3 -29 -2 -38 -29 -6 -17 -8 -35 -5 -40
3 -5 -4 -24 -15 -43 -12 -18 -21 -40 -21 -48 0 -8 -9 -32 -20 -54 l-19 -39 -1
128 0 128 -22 -7 c-13 -3 -25 -8 -26 -9 -7 -7 -22 -81 -22 -112 0 -18 -4 -33
-10 -33 -5 0 -13 -18 -16 -40 -4 -22 -13 -48 -20 -57 -13 -17 -13 -17 -15 2
-1 11 -1 24 0 29 1 4 -4 14 -10 22 -7 9 -8 18 -2 27 13 16 14 53 3 83 -8 21
-13 23 -30 14 -12 -7 -20 -21 -20 -38 0 -15 -7 -35 -14 -45 -9 -12 -13 -37
-11 -73 2 -30 0 -54 -5 -54 -5 0 -16 -12 -23 -26 l-14 -26 -11 43 c-6 24 -15
84 -21 133 -6 49 -15 94 -21 100 -15 15 -45 -6 -45 -33 0 -12 -5 -25 -11 -29
-5 -4 -14 -18 -20 -32 -11 -24 -11 -24 -18 16 -4 22 -6 45 -6 50 4 19 -13 54
-26 54 -13 0 -37 -34 -29 -41 13 -14 0 -235 -15 -254 -7 -8 -9 -18 -6 -23 3
-6 -1 -15 -9 -22 -9 -7 -16 -11 -18 -9 -21 37 -25 57 -26 117 -1 100 -8 125
-35 118 -11 -3 -25 -6 -29 -6 -4 0 -5 -52 -1 -115 4 -81 3 -115 -5 -115 -6 0
-11 17 -11 38 -1 64 -8 133 -13 139 -4 3 -13 -2 -22 -11 -9 -9 -19 -16 -23
-16 -4 0 -7 -42 -8 -93 -1 -71 -6 -101 -21 -131 l-20 -39 -7 44 c-3 24 -6 84
-7 132 -1 85 -2 88 -23 83 -11 -3 -24 -6 -28 -6 -5 0 -8 -10 -8 -22 0 -28 -10
-42 -32 -51 -9 -3 -21 -23 -26 -44 -12 -50 -35 -217 -36 -269 -1 -29 -11 -53
-30 -79 -35 -45 -46 -34 -35 36 4 28 8 76 8 107 1 31 2 64 3 72 3 32 -3 48
-19 54 -27 11 -43 -16 -53 -85 -5 -35 -15 -68 -23 -74 -7 -5 -19 -19 -26 -30
-10 -17 -11 -6 -8 61 5 92 0 107 -34 102 -19 -3 -23 -9 -25 -46 -1 -28 -10
-52 -23 -66 -12 -12 -21 -30 -21 -39 0 -9 -4 -17 -9 -17 -5 0 -9 37 -8 83 2
81 2 82 -24 85 -35 4 -57 -23 -41 -49 10 -16 9 -23 -8 -41 -11 -12 -20 -35
-20 -51 0 -29 0 -30 -20 -12 -19 17 -21 17 -40 0 -11 -10 -27 -43 -36 -74 -9
-31 -20 -65 -24 -76 -17 -42 -18 -53 -7 -64 9 -9 8 -14 -3 -21 -8 -5 -18 -10
-22 -10 -7 0 -13 156 -8 203 2 22 -19 87 -28 87 -17 -1 -31 -18 -38 -45 -3
-17 -13 -38 -21 -47 -9 -10 -12 -25 -8 -38 4 -12 1 -28 -7 -37 -7 -9 -13 -26
-14 -37 -3 -80 -3 -81 -19 -65 -11 11 -16 44 -19 124 -5 158 -35 210 -71 123
-10 -24 -22 -63 -26 -88 -9 -58 -40 -143 -48 -134 -3 3 -7 27 -7 52 -3 102 -4
112 -17 112 -23 0 -57 -57 -56 -92 1 -47 -12 -118 -22 -118 -11 0 -12 10 -13
130 -1 88 -2 95 -22 98 -17 2 -24 -6 -39 -44 -16 -41 -19 -45 -30 -31 -16 22
-35 22 -35 -1 0 -10 -10 -38 -21 -62 l-21 -44 -19 37 c-11 20 -21 37 -23 37
-2 0 -16 -16 -31 -35 -22 -30 -24 -39 -14 -51 9 -11 9 -18 1 -26 -7 -7 -12
-22 -12 -34 0 -13 -5 -26 -11 -30 -6 -3 -8 -17 -5 -29 3 -13 1 -27 -5 -31 -6
-3 -9 -14 -6 -24 3 -11 -1 -21 -8 -24 -7 -2 -16 -18 -20 -35 -7 -31 -24 -43
-26 -18 -1 6 -3 39 -5 72 -6 89 -16 119 -44 123 -30 5 -38 -11 -32 -64 5 -50
-13 -62 -23 -14 -4 16 -10 32 -14 34 -9 6 -66 -39 -67 -53 -1 -6 -2 -17 -3
-25 0 -8 -7 -16 -14 -19 -11 -4 -12 12 -9 77 2 44 0 92 -5 105 l-9 23 -28 -24
c-25 -21 -27 -27 -17 -45 16 -30 14 -40 -8 -46 -13 -3 -21 1 -24 14 -3 11 -13
19 -24 19 -32 -1 -60 -33 -67 -78 -3 -24 -11 -51 -16 -60 -6 -9 -15 -30 -22
-47 -11 -28 -12 -26 -18 42 -3 49 -11 78 -22 89 -15 16 -19 15 -47 -17 -19
-20 -31 -44 -31 -61 0 -21 -5 -28 -19 -28 -10 0 -21 7 -25 15 -8 23 -44 -2
-51 -37 -8 -36 -33 -57 -46 -37 -5 8 -9 23 -9 34 0 31 -15 48 -37 41 -14 -4
-25 -24 -36 -66 -10 -33 -17 -69 -17 -79 0 -11 -4 -22 -9 -25 -4 -3 -11 -23
-15 -45 -3 -22 -11 -43 -16 -46 -7 -4 -9 29 -5 102 4 59 3 113 -2 120 -4 6
-20 14 -34 18 -24 6 -26 3 -38 -48 -6 -30 -18 -63 -25 -73 -13 -17 -14 -17
-21 5 -17 54 -43 -12 -65 -162 -4 -31 -16 -69 -25 -83 -15 -23 -19 -25 -32
-11 -12 12 -13 19 -3 37 16 29 9 165 -8 182 -11 11 -16 9 -28 -6 -8 -11 -14
-32 -14 -47 0 -15 -4 -30 -8 -33 -5 -3 -9 -28 -9 -55 -1 -28 -4 -55 -8 -61
-13 -21 -25 2 -24 48 2 83 -19 172 -41 172 -17 0 -49 -70 -45 -98 4 -18 -1
-35 -16 -52 l-21 -25 6 42 c8 54 -10 95 -38 91 -17 -2 -20 -9 -18 -35 4 -38
-15 -113 -28 -113 -6 0 -10 4 -10 8 0 5 -6 16 -13 26 -15 20 -47 12 -47 -13 1
-27 -44 -181 -52 -181 -9 0 -13 52 -9 116 2 28 -3 45 -14 54 -28 23 -49 0 -52
-55 -2 -27 -10 -72 -18 -99 -8 -27 -15 -60 -15 -73 0 -14 -6 -23 -15 -23 -12
0 -15 16 -16 80 -1 44 -3 85 -4 90 -1 6 -3 21 -4 35 -1 25 -2 25 -30 10 -31
-16 -32 -18 -51 -105 -19 -85 -22 -88 -34 -40 -10 41 -14 45 -41 45 -27 0 -30
-4 -36 -38 -12 -73 -34 -61 -43 23 -5 43 -12 63 -25 70 -25 13 -49 -13 -33
-33 6 -7 10 -34 9 -60 -2 -37 -7 -49 -25 -59 -21 -11 -26 -10 -41 11 -11 14
-16 34 -13 52 4 24 1 29 -17 29 -15 0 -26 -11 -37 -40 -9 -21 -24 -42 -34 -45
-31 -10 -41 -32 -48 -102 -8 -82 -27 -83 -27 -1 0 41 -5 62 -17 74 -16 17 -18
17 -37 0 -17 -15 -24 -33 -36 -86 -19 -84 -35 -96 -35 -26 0 30 -5 46 -15 50
-27 10 -45 -5 -45 -38 0 -38 -16 -69 -24 -46 -3 8 -6 24 -8 35 -2 14 -11 20
-28 20 -21 0 -26 -7 -39 -57 -8 -32 -18 -58 -22 -58 -5 0 -6 40 -4 90 3 78 1
91 -14 99 -14 8 -21 1 -41 -37 -14 -25 -24 -52 -22 -58 1 -7 -2 -15 -8 -19 -5
-3 -10 -16 -10 -28 -1 -12 -7 -33 -14 -46 -12 -21 -14 -13 -19 75 -3 55 -8
107 -12 117 -9 21 -35 23 -35 2 0 -24 -34 -36 -56 -20 -27 20 -42 18 -50 -7
-13 -39 -15 -51 -14 -105 0 -81 -23 -69 -38 18 -15 88 -26 109 -57 109 -29 0
-45 -25 -46 -72 -1 -48 -26 -156 -32 -138 -3 8 -8 44 -10 79 -3 37 -11 67 -19
72 -27 18 -43 4 -52 -44 -11 -54 -22 -60 -31 -18 -6 29 -32 49 -45 34 -4 -4
-15 -28 -24 -52 -13 -34 -14 -46 -5 -57 9 -11 9 -18 1 -26 -7 -7 -12 -22 -12
-35 0 -14 -6 -23 -15 -23 -14 0 -31 47 -37 105 -3 29 -4 30 -63 32 l-60 3 -1
-98 c-1 -91 -16 -163 -31 -148 -4 4 -11 44 -16 89 -4 45 -9 94 -11 108 -1 14
-6 31 -10 37 -9 14 -36 16 -36 3 0 -6 -14 -18 -31 -28 -45 -27 -69 -72 -69
-130 0 -33 -5 -55 -15 -63 -23 -19 -27 -8 -29 64 0 36 -6 70 -12 76 -16 16
-44 1 -44 -25 0 -13 -7 -25 -15 -29 -8 -3 -15 -14 -15 -25 0 -11 -4 -23 -10
-26 -6 -4 -10 26 -10 82 0 106 -9 128 -41 96 -17 -16 -22 -33 -21 -67 0 -54
-15 -71 -24 -27 -5 24 -12 31 -30 31 -28 0 -54 -34 -47 -61 3 -10 0 -19 -6
-19 -6 0 -11 1 -12 3 0 1 -2 22 -5 47 -9 91 -10 93 -55 86 l-40 -6 3 40 c4 71
-45 75 -58 5 -3 -19 -15 -41 -25 -51 -10 -9 -19 -30 -19 -45 0 -41 -39 -127
-50 -109 -8 12 -3 166 5 180 2 4 -2 16 -10 27 -24 34 -52 19 -60 -30 -4 -23
-11 -47 -16 -53 -5 -6 -14 -45 -21 -87 -17 -96 -32 -88 -36 18 -2 60 -7 83
-19 92 -12 10 -20 10 -30 1 -7 -6 -11 -13 -8 -16 3 -3 0 -11 -6 -18 -8 -10
-16 -11 -30 -3 -27 14 -39 3 -39 -35 0 -18 -8 -44 -19 -57 -10 -13 -16 -30
-14 -36 3 -7 0 -13 -5 -13 -6 0 -12 49 -14 119 -1 66 -6 123 -11 127 -4 4 -18
-3 -31 -15 -19 -18 -24 -35 -29 -98 -3 -41 -10 -80 -16 -86 -18 -18 -28 55
-20 143 8 91 4 130 -15 130 -22 -1 -46 -28 -52 -59 -10 -48 -24 -47 -24 2 0
54 -18 74 -51 57 -27 -15 -42 2 -35 40 7 40 -6 52 -47 45 -33 -7 -38 -5 -47
19 -9 25 -14 27 -62 24 -49 -3 -53 -5 -55 -28 0 -14 -1 -31 -2 -37 -1 -7 -7
-13 -15 -13 -16 0 -26 30 -26 78 0 34 -24 92 -39 92 -23 0 -46 -46 -51 -103
-3 -39 -10 -62 -19 -65 -12 -4 -13 10 -9 74 2 44 3 87 0 97 -6 28 -36 16 -42
-17 -3 -16 -11 -31 -19 -34 -11 -4 -12 3 -7 30 4 25 2 39 -8 47 -14 12 -35
-11 -65 -74 l-15 -30 -8 65 c-5 36 -14 75 -19 88 -11 27 -39 29 -39 2 0 -11
-4 -20 -10 -20 -5 0 -7 -13 -3 -30 3 -18 1 -30 -5 -30 -13 0 -23 26 -16 44 3
8 0 24 -6 36 -14 27 -55 24 -55 -4 0 -39 -24 -27 -36 18 -7 28 -16 43 -23 40
-15 -6 -36 -62 -36 -97 0 -39 -24 -33 -39 9 -8 22 -18 34 -28 32 -20 -4 -52
-83 -52 -130 -2 -72 -19 -38 -26 50 -4 48 -12 98 -17 111 l-9 24 -24 -23 c-18
-17 -25 -34 -25 -61 0 -21 -4 -40 -9 -43 -9 -6 -13 11 -27 117 -7 53 -34 68
-34 19 0 -35 -9 -45 -26 -31 -19 16 -34 2 -34 -32 0 -27 -3 -29 -35 -29 -29 0
-36 4 -41 25 -10 40 -41 32 -64 -17 -10 -24 -22 -56 -25 -71 -8 -38 -29 -29
-33 14 -4 48 -22 89 -39 89 -18 0 -22 -11 -36 -105 -17 -108 -32 -105 -34 7
-2 85 -9 107 -34 108 -17 0 -76 -49 -87 -73 -16 -34 -35 -25 -27 13 5 21 0 34
-20 56 -19 21 -28 25 -32 15 -3 -7 -14 -21 -24 -29 -11 -9 -19 -28 -20 -42 0
-14 -4 -34 -8 -45 -7 -16 -10 -12 -15 22 -4 23 -5 47 -2 52 11 18 -13 61 -34
61 -23 0 -35 -24 -45 -93 -10 -62 -21 -60 -19 3 1 35 -4 54 -16 65 -15 14 -18
14 -30 0 -11 -14 -14 -13 -27 5 -8 11 -19 20 -25 20 -16 0 -58 -53 -58 -73 0
-23 -20 -12 -20 11 0 9 -7 25 -15 36 -13 18 -15 18 -43 -3 -25 -17 -30 -29
-36 -82 -7 -71 -12 -81 -30 -56 -16 21 -34 21 -60 2 -17 -13 -22 -13 -38 2
-25 23 -52 7 -56 -33 -5 -46 -18 -48 -31 -4 -16 55 -46 52 -76 -8 -33 -65 -45
-73 -45 -30 0 46 -18 98 -35 98 -7 0 -20 -19 -30 -42 l-16 -42 -24 30 c-33 41
-49 20 -58 -78 -1 -10 -5 -18 -9 -18 -4 0 -8 28 -8 63 0 72 -18 110 -43 89
-12 -10 -16 -8 -21 12 -7 28 -36 48 -53 38 -6 -4 -20 -40 -32 -80 -23 -75 -34
-84 -44 -34 -5 26 -11 30 -54 35 -26 3 -51 3 -55 0 -5 -2 -8 -26 -8 -54 0 -27
-4 -49 -8 -49 -4 0 -14 19 -22 43 -14 38 -18 42 -49 42 -24 0 -36 -5 -39 -17
-5 -20 -27 -24 -38 -6 -14 22 -32 -21 -27 -66 3 -24 1 -52 -5 -62 -9 -16 -11
-14 -16 16 -12 67 -15 85 -15 103 -1 19 -36 24 -47 5 -4 -6 -7 -33 -6 -60 1
-55 -10 -63 -23 -15 -13 44 -49 46 -52 2 -1 -16 -7 -59 -13 -95 -6 -36 -12
-77 -12 -92 -1 -16 -4 -28 -9 -28 -7 0 -16 70 -17 143 -1 39 -20 74 -32 60
-10 -11 -32 -99 -36 -143 -9 -100 -19 -129 -46 -130 -6 0 -25 106 -30 170 -2
27 -7 35 -23 35 -17 0 -20 -8 -23 -55 -3 -59 -16 -83 -41 -78 -12 3 -15 13
-13 42 4 45 -15 65 -34 37 -26 -37 -41 -207 -21 -238 8 -12 -10 -29 -20 -19
-4 3 -8 21 -9 38 -3 33 -4 41 -4 87 0 22 -14 40 -31 41 -9 0 -28 -117 -22
-138 2 -11 0 -23 -6 -26 -6 -4 -8 -20 -4 -36 6 -31 -12 -64 -28 -54 -5 3 -9
38 -9 78 0 43 -5 77 -12 84 -14 14 -44 16 -53 3 -11 -18 -27 -106 -26 -146 0
-22 -6 -53 -14 -70 l-13 -30 -2 55 c-3 85 -5 100 -23 118 -19 18 -39 7 -42
-25 -4 -33 -18 -58 -49 -84 -28 -25 -29 -27 -17 -58 8 -17 11 -34 8 -38 -10
-9 -39 6 -32 17 3 5 1 44 -5 87 -6 43 -11 113 -12 155 -1 81 -11 103 -45 96
-15 -3 -18 -12 -16 -53 6 -116 5 -153 -5 -171 -9 -16 -12 -14 -26 20 -9 21
-16 55 -16 75 0 45 -30 131 -46 131 -7 0 -15 -27 -20 -72 -10 -81 -10 -81 4
-156 9 -51 8 -53 -17 -65 -30 -14 -54 -75 -49 -124 3 -21 0 -33 -8 -33 -8 0
-15 24 -19 64 -8 72 -26 90 -58 57 -13 -13 -21 -36 -22 -70 -4 -73 -17 -85
-30 -28 -9 45 -11 47 -29 34 -20 -15 -24 -31 -25 -107 -1 -48 -17 -45 -23 5
-2 22 -9 31 -25 33 -28 4 -49 -41 -56 -124 -3 -33 -6 -60 -6 -61 -1 -2 -5 -3
-9 -3 -5 0 -8 21 -8 48 1 41 -2 47 -21 50 -15 2 -23 -2 -23 -12 0 -8 -8 -21
-18 -28 -10 -7 -22 -25 -26 -40 -7 -29 -26 -39 -26 -13 0 8 -6 15 -12 15 -24
-1 -46 -46 -63 -130 -10 -47 -21 -94 -25 -106 -5 -13 -4 -26 3 -33 8 -8 7 -15
-6 -28 -27 -27 -39 -4 -44 84 -4 76 -24 130 -43 118 -6 -4 -9 -54 -7 -118 4
-127 -5 -189 -16 -122 -4 22 -7 53 -7 69 0 16 -5 46 -12 68 -21 71 -51 36 -65
-77 -10 -85 -11 -101 -12 -143 -2 -76 -19 -35 -20 46 0 70 -18 162 -31 162 -9
0 -27 -35 -35 -68 -5 -27 -11 -32 -34 -32 -27 0 -28 -2 -34 -66 -4 -37 -9 -69
-12 -72 -3 -3 -13 3 -24 12 -18 16 -20 16 -41 -13 -12 -17 -20 -39 -19 -48 1
-10 -3 -31 -9 -46 -7 -16 -12 -40 -12 -55 0 -53 -18 -58 -24 -6 -7 54 -25 136
-31 143 -3 2 -14 -4 -25 -14 -20 -18 -21 -18 -27 3 -12 49 -53 8 -53 -54 0
-32 -14 -31 -29 3 -16 34 -35 17 -38 -35 -4 -60 -18 -151 -25 -158 -15 -14
-26 8 -21 40 6 36 -12 79 -29 74 -19 -7 -36 -69 -37 -130 -1 -35 -5 -58 -12
-58 -6 0 -9 10 -6 23 8 34 -17 139 -36 151 -22 14 -28 6 -42 -56 -13 -59 -24
-65 -43 -24 -13 26 -15 27 -32 11 -20 -18 -31 -83 -39 -220 -2 -30 -21 3 -21
36 0 45 -20 89 -40 89 -11 0 -21 -4 -24 -8 -2 -4 -6 -90 -7 -190 -2 -143 -5
-182 -16 -182 -7 0 -13 3 -14 8 0 4 -2 40 -4 81 -5 91 -24 126 -65 117 -18 -3
-33 0 -40 9 -7 8 -20 15 -30 15 -15 0 -17 -10 -17 -72 0 -45 -5 -74 -12 -76
-6 -2 -11 6 -11 18 0 30 -29 82 -43 77 -19 -6 -38 -53 -42 -104 -6 -80 -6 -80
-15 -58 -5 11 -9 30 -9 43 -1 12 -8 39 -17 60 l-15 37 -19 -23 c-10 -13 -22
-44 -25 -70 -4 -26 -11 -72 -17 -102 l-11 -55 -16 70 c-18 80 -33 111 -49 101
-16 -10 -31 -70 -35 -140 -2 -33 -8 -61 -13 -63 -6 -2 -16 27 -23 64 -7 38
-20 76 -28 86 -15 16 -18 15 -39 -20 -14 -23 -24 -55 -25 -83 l-1 -45 -9 40
c-10 41 -22 55 -51 55 -11 0 -18 -8 -18 -20 0 -23 -15 -27 -24 -5 -6 18 -32
20 -42 4 -4 -7 -8 -37 -9 -68 -1 -31 -3 -76 -4 -101 l-3 -45 -12 45 c-15 54
-36 90 -53 90 -14 0 -14 2 -18 -88 -4 -79 -13 -130 -25 -137 -5 -3 -21 32 -35
78 -14 46 -35 93 -46 103 -20 18 -21 18 -37 -1 -10 -11 -25 -19 -35 -17 -10 2
-24 -1 -31 -7 -10 -9 -17 -5 -30 14 -14 21 -20 24 -36 15 -17 -9 -20 -21 -20
-73 0 -73 -12 -101 -29 -69 -6 11 -11 27 -11 34 -1 20 -36 58 -54 58 -21 0
-36 -31 -36 -74 0 -44 -10 -45 -32 -6 -11 19 -22 28 -32 24 -12 -5 -14 -22
-10 -100 3 -52 1 -94 -4 -94 -4 0 -13 26 -20 59 -14 67 -42 102 -67 81 -12
-10 -18 -10 -30 0 -28 23 -46 5 -40 -42 5 -37 4 -40 -6 -21 -14 27 -47 39 -63
23 -6 -6 -12 -33 -12 -60 -2 -86 -3 -88 -19 -60 -8 14 -14 35 -15 48 0 35 -18
62 -40 62 -18 0 -20 -8 -21 -92 -1 -135 -10 -155 -32 -76 -10 35 -25 80 -34
101 -21 47 -46 46 -53 -3 -4 -27 -8 -32 -15 -20 -6 8 -24 22 -42 32 -29 15
-33 15 -47 0 -11 -13 -12 -22 -4 -36 7 -13 7 -25 -1 -43 -6 -13 -11 -50 -12
-81 -1 -55 -1 -56 -10 -22 -18 64 -52 139 -66 144 -21 8 -26 -18 -18 -92 7
-59 9 -105 6 -144 -2 -28 -15 8 -32 88 -10 48 -22 91 -28 97 -12 12 -31 1 -31
-18 0 -8 -12 -20 -27 -27 -20 -10 -29 -26 -40 -68 -17 -66 -12 -111 19 -156
31 -46 59 -42 74 11 l11 39 6 -33 c10 -46 37 -101 51 -101 13 0 31 44 41 101
6 33 9 35 37 31 19 -3 33 1 39 9 9 15 66 14 85 -2 27 -22 53 12 54 71 1 25 1
25 17 -5 41 -75 76 -70 81 11 4 61 16 75 30 35 12 -33 37 -50 53 -34 5 5 15
38 21 72 l12 62 16 -53 c13 -45 19 -53 43 -56 15 -2 27 1 27 7 0 17 72 5 87
-15 10 -14 17 -16 30 -8 16 10 25 30 38 88 6 27 7 28 26 11 10 -10 21 -16 23
-14 18 21 26 62 26 143 0 53 4 96 8 96 11 0 32 -59 26 -73 -6 -19 21 -140 33
-144 24 -8 41 28 48 104 5 55 10 72 16 58 4 -11 8 -32 8 -46 1 -37 26 -57 52
-41 18 12 19 10 13 -27 -8 -48 11 -64 37 -32 15 18 17 37 14 121 -3 75 0 100
10 104 14 5 41 -93 49 -181 13 -131 70 -97 85 52 12 122 23 124 25 6 1 -23 8
-38 23 -48 21 -14 23 -14 33 12 5 14 10 37 10 50 0 34 18 41 26 10 4 -16 13
-25 25 -25 18 0 23 7 45 70 4 10 11 7 29 -15 23 -29 24 -29 42 -12 14 14 18
34 18 101 0 101 10 120 19 38 4 -33 13 -68 21 -78 32 -43 56 31 64 194 1 6 5
12 10 12 4 0 11 -31 13 -70 5 -70 19 -100 44 -100 22 0 30 33 43 159 6 63 15
119 20 124 14 14 23 -60 11 -84 -9 -15 -9 -24 -1 -32 6 -6 11 -32 11 -58 0
-80 18 -99 55 -59 15 16 19 41 22 123 2 56 8 106 14 112 14 14 30 -15 22 -40
-8 -26 -7 -43 7 -94 8 -30 16 -41 30 -41 20 0 42 30 39 53 -1 6 -1 22 0 35 1
31 21 18 21 -14 0 -35 28 -43 50 -14 16 21 20 22 34 11 14 -12 20 -11 40 8 19
18 25 37 30 94 4 40 9 80 12 90 9 28 22 20 26 -15 2 -25 8 -33 22 -33 16 0 22
11 30 55 9 45 14 55 31 53 41 -3 53 14 60 84 3 38 9 84 12 103 3 19 7 46 8 60
1 14 3 29 4 35 0 5 8 3 16 -5 11 -12 12 -24 4 -60 -12 -54 -6 -217 9 -232 26
-26 58 41 67 142 8 93 15 103 15 24 0 -33 6 -68 13 -77 11 -16 14 -16 35 -2
13 10 22 27 23 43 0 15 4 36 9 47 8 18 9 17 9 -6 2 -49 41 -46 60 4 14 35 14
130 1 143 -5 5 -6 22 -2 39 13 47 27 10 24 -62 -4 -80 12 -143 37 -143 30 0
80 30 87 53 9 28 24 127 30 202 3 32 7 61 10 64 11 11 17 -14 15 -69 -2 -63
20 -120 46 -120 21 0 27 22 30 125 1 55 6 116 11 135 l8 35 12 -56 c9 -41 10
-63 2 -84 -13 -34 -8 -50 19 -65 18 -9 23 -7 33 15 l12 26 21 -27 c19 -24 22
-25 35 -9 8 10 15 46 17 88 4 80 11 237 13 252 1 24 20 -23 20 -52 0 -17 4
-34 9 -37 5 -3 12 -32 16 -63 10 -84 37 -109 56 -53 9 25 14 28 39 24 22 -5
29 -2 33 12 7 26 16 95 22 179 3 39 8 81 10 95 19 108 26 135 34 143 7 7 12 5
17 -6 6 -16 4 -40 -10 -152 -4 -27 -4 -62 0 -78 9 -41 43 -33 60 13 9 28 13
32 19 18 5 -13 18 -18 46 -18 33 0 41 5 54 30 8 16 15 49 15 72 0 172 6 253
19 253 11 0 14 -15 12 -66 -4 -103 39 -185 68 -131 5 9 9 22 9 27 -1 6 9 15
21 21 13 7 27 16 32 21 6 6 12 72 15 148 2 76 7 142 10 147 19 31 39 -65 36
-174 -2 -58 0 -68 17 -78 11 -5 22 -7 24 -3 13 21 28 127 22 153 -7 33 1 70
17 70 6 0 7 -15 3 -40 -8 -45 1 -80 19 -80 25 0 39 55 43 165 1 61 4 118 5
128 3 26 18 20 18 -7 0 -34 58 -144 78 -148 13 -2 16 -14 13 -53 -2 -44 1 -53
27 -78 39 -38 75 -29 103 24 16 32 24 38 42 34 19 -5 25 0 37 32 8 21 15 55
16 76 1 21 6 46 10 55 4 9 8 29 9 44 3 37 12 58 25 58 6 0 8 -25 5 -69 -4 -57
-2 -72 13 -91 12 -15 24 -20 31 -15 15 9 41 65 51 110 l6 30 22 -35 c12 -19
24 -39 26 -45 3 -5 11 -2 19 8 18 22 28 99 30 225 1 51 5 92 9 92 8 0 12 -22
9 -54 -2 -26 27 -138 40 -151 14 -14 29 13 29 53 0 22 5 32 15 32 8 0 15 -8
15 -18 0 -25 35 -56 54 -49 8 3 18 26 22 54 3 26 11 56 16 66 9 17 11 17 33
-7 13 -14 29 -26 34 -26 14 0 41 53 41 79 0 28 21 71 31 65 5 -3 6 -22 3 -42
-4 -31 -2 -39 17 -50 33 -21 48 2 53 76 3 59 2 62 -20 62 -22 0 -41 16 -31 26
3 3 20 1 38 -4 33 -8 34 -10 34 -58 1 -48 17 -94 34 -94 5 0 15 10 24 23 15
22 15 22 36 2 19 -16 24 -17 31 -5 6 8 10 26 11 40 0 14 4 34 8 45 7 17 9 16
16 -13 4 -18 13 -36 21 -39 8 -3 14 -15 14 -27 1 -11 14 -43 29 -71 24 -42 34
-50 58 -50 24 0 31 7 52 53 14 28 29 52 33 52 5 0 20 7 34 16 19 13 22 20 13
30 -8 10 -6 27 12 69 12 30 26 55 29 55 4 0 10 -21 13 -47 3 -27 10 -61 16
-77 10 -25 15 -28 45 -22 20 4 37 2 41 -4 3 -5 15 -10 27 -10 18 0 19 4 14 34
-6 31 -4 35 16 38 20 3 25 12 34 63 11 58 11 59 23 32 6 -16 11 -36 11 -46 0
-24 23 -43 42 -36 8 3 23 22 32 43 15 30 19 33 27 20 5 -9 10 -26 12 -39 2
-12 13 -29 25 -37 20 -13 23 -12 39 17 16 27 22 30 50 25 28 -5 33 -2 47 24 8
16 13 32 10 35 -15 15 8 26 31 15 34 -15 53 3 60 58 3 24 8 64 11 89 7 61 34
63 34 3 0 -117 29 -161 76 -117 21 20 26 21 34 9 5 -8 10 -19 10 -23 0 -5 14
-6 31 -2 22 5 30 3 28 -7 -3 -26 1 -38 14 -38 27 0 41 21 53 82 6 34 12 51 13
37 2 -52 21 -89 46 -89 26 0 35 10 50 55 12 37 27 36 39 -4 12 -42 51 -44 61
-3 4 15 16 48 27 75 29 68 48 49 48 -49 0 -62 3 -75 19 -84 33 -17 41 -12 66
43 20 43 24 47 24 26 1 -37 25 -55 55 -41 18 8 27 27 42 88 11 43 26 80 33 82
10 3 12 -1 7 -14 -4 -11 -10 -39 -13 -64 -8 -66 14 -87 95 -92 44 -3 66 0 74
9 6 7 22 13 37 13 36 0 47 10 56 48 10 46 21 40 35 -18 13 -55 28 -62 61 -29
19 19 23 20 31 5 5 -8 18 -20 29 -26 16 -9 22 -6 40 25 25 42 43 36 36 -11 -4
-23 0 -40 12 -55 l17 -21 31 26 c19 16 34 22 38 16 10 -16 42 -12 49 6 5 13 9
14 21 4 10 -8 15 -30 15 -62 0 -54 13 -88 35 -88 19 0 45 39 45 67 0 13 5 23
11 23 11 0 8 -76 -5 -116 -5 -13 -1 -28 12 -44 20 -24 20 -25 41 -6 12 11 21
25 21 32 0 8 16 20 35 28 35 15 53 50 42 80 -6 16 29 91 36 79 3 -5 5 -25 4
-46 -1 -51 31 -86 67 -69 28 12 36 7 36 -23 0 -29 22 -75 36 -75 14 0 44 -44
44 -65 0 -17 25 -21 35 -5 13 21 23 9 35 -40 14 -60 31 -77 54 -55 9 9 16 24
16 34 0 25 11 33 28 19 8 -7 28 -12 46 -13 25 0 32 -5 34 -24 2 -13 14 -35 27
-49 21 -23 27 -24 50 -14 34 16 35 15 35 -7 0 -22 46 -81 63 -81 6 0 20 -9 32
-20 34 -32 55 -8 62 68 3 34 10 62 14 62 5 0 16 -14 24 -31 20 -38 36 -33 53
17 29 82 35 94 43 94 5 0 9 -9 9 -19 0 -21 44 -61 66 -61 18 0 54 62 54 93 0
30 19 77 32 77 11 0 10 -19 -3 -80 -10 -46 -9 -53 8 -65 26 -20 51 -18 63 5
19 35 31 22 29 -34 -3 -78 7 -86 76 -60 14 6 15 2 10 -28 -6 -31 -3 -38 21
-57 l28 -22 18 23 c10 13 18 30 18 38 0 8 4 22 10 30 7 12 11 9 19 -11 5 -14
20 -33 34 -42 23 -15 26 -15 38 -1 7 9 15 43 17 77 5 77 16 90 36 43 20 -47
43 -56 67 -27 18 22 19 22 25 5 4 -11 16 -26 27 -35 19 -15 21 -15 43 10 l22
26 26 -24 c21 -20 28 -22 40 -12 9 7 18 21 21 32 7 22 25 26 25 6 0 -18 33
-47 53 -47 20 0 37 30 37 64 0 14 5 26 10 26 6 0 10 -8 10 -19 0 -26 54 -48
75 -31 19 15 21 110 3 110 -9 0 -9 3 0 12 8 8 18 3 40 -20 17 -18 32 -38 35
-47 9 -21 36 -8 43 20 5 22 7 23 34 7 23 -13 31 -14 43 -3 18 14 32 114 30
206 -2 81 3 95 25 64 11 -16 19 -53 23 -111 5 -63 11 -91 24 -104 17 -17 18
-17 36 5 13 16 25 21 39 16 11 -3 20 -11 20 -16 0 -5 7 -9 15 -9 9 0 15 9 15
23 0 33 11 67 22 67 5 0 19 -12 32 -26 20 -24 24 -25 43 -13 12 7 24 28 28 46
9 47 25 51 25 6 1 -53 16 -114 32 -125 7 -4 24 -11 38 -15 14 -3 35 -17 47
-30 12 -12 31 -23 42 -23 26 0 51 47 51 95 0 32 2 35 19 25 11 -5 24 -10 30
-10 14 0 41 53 41 80 0 11 5 20 11 20 6 0 9 -9 6 -20 -8 -31 10 -83 34 -99 20
-12 24 -11 40 10 10 13 19 42 21 64 3 37 5 40 30 37 23 -2 31 3 44 31 l16 34
26 -24 c36 -33 52 -16 52 56 0 31 5 62 10 67 7 7 7 19 1 36 -7 18 -5 35 8 63
15 35 18 37 26 20 8 -19 12 -62 14 -156 1 -38 5 -48 27 -59 29 -16 40 -7 51
43 7 32 26 31 31 -1 4 -29 41 -55 58 -41 7 6 15 29 19 52 12 78 17 97 24 92 5
-2 11 -24 14 -47 2 -24 10 -56 17 -73 7 -16 13 -41 14 -55 1 -18 7 -26 23 -28
21 -3 21 0 16 51 -4 40 1 80 21 156 14 56 26 104 26 107 0 3 5 2 10 -1 6 -3
10 -17 10 -31 0 -41 27 -94 48 -94 20 0 42 37 42 70 0 14 7 20 24 20 30 0 54
23 62 58 3 15 9 36 14 47 7 18 10 16 23 -16 34 -78 66 -74 75 8 4 43 15 62 34
63 4 0 8 -19 10 -41 4 -59 31 -74 63 -36 13 15 27 27 31 27 4 0 4 -20 2 -45
-7 -56 9 -81 45 -71 22 5 27 15 37 61 11 55 12 56 43 50 28 -5 34 -2 50 25 9
18 20 56 23 86 8 65 24 82 24 25 0 -42 26 -81 53 -81 21 0 46 33 53 68 7 37
24 43 24 10 1 -13 6 -33 13 -46 l13 -23 27 21 c15 12 27 29 27 38 0 9 5 24 10
32 8 13 12 12 25 -7 44 -63 76 -7 117 205 14 72 23 57 20 -31 -4 -94 8 -126
42 -120 14 3 33 17 42 32 22 32 49 136 59 220 2 18 9 39 15 45 18 18 29 -11
19 -53 -14 -58 -20 -214 -10 -231 9 -13 15 -10 42 16 31 31 31 32 51 12 25
-25 50 -20 66 15 7 15 17 27 22 27 16 0 21 -19 11 -38 -7 -14 -5 -22 9 -34 17
-15 20 -15 38 5 20 21 39 76 45 127 3 25 3 25 20 -7 16 -30 19 -31 48 -21 41
14 63 53 78 138 7 39 16 70 19 70 4 0 14 -21 22 -48 13 -40 19 -48 43 -50 22
-3 30 2 40 25 9 20 18 27 33 25 12 -2 29 4 38 13 15 15 16 14 16 -11 0 -47 30
-114 51 -114 27 0 39 30 43 115 6 95 17 111 28 41 2 -10 11 -24 20 -30 32 -20
48 13 68 140 11 65 22 129 25 142 10 41 26 11 24 -46 -1 -31 4 -79 11 -107 7
-27 12 -66 11 -86 -1 -39 19 -65 44 -55 17 6 36 47 42 86 1 14 8 50 13 82 6
31 10 60 8 65 -1 4 1 25 6 47 5 28 10 36 18 28 17 -17 17 -65 0 -84 -12 -14
-13 -33 -8 -90 4 -40 9 -91 10 -112 3 -38 34 -75 62 -76 14 0 39 102 31 129
-3 12 -1 23 3 26 4 3 11 28 15 55 4 28 11 50 16 50 4 0 6 -6 3 -14 -3 -7 6
-26 20 -42 34 -40 60 -25 64 37 4 61 12 80 22 54 5 -11 9 -34 9 -51 1 -35 21
-57 48 -52 17 3 31 36 48 111 l6 29 26 -26 c32 -33 48 -33 69 -1 20 30 31 32
39 4 8 -24 50 -42 81 -35 22 6 74 105 74 143 0 31 12 35 36 12 26 -25 44 -18
44 17 0 28 12 30 51 7 27 -16 30 -16 46 -1 10 11 18 41 22 85 7 74 22 90 32
31 15 -92 82 -90 81 3 l-1 41 23 -21 c29 -27 40 -27 65 5 15 19 21 41 21 76 0
62 13 55 29 -17 8 -35 18 -55 27 -55 8 0 14 -4 14 -10 0 -5 4 -10 9 -10 18 0
33 61 29 124 -1 36 0 66 3 66 4 0 19 -36 35 -79 20 -58 35 -83 51 -90 21 -10
25 -8 34 17 6 15 15 51 21 80 l11 53 18 -40 c17 -39 50 -67 64 -53 14 14 35
75 35 104 0 35 15 29 25 -9 12 -47 51 -58 74 -20 8 12 20 42 27 67 9 32 13 38
13 20 2 -27 32 -70 50 -70 20 0 68 62 87 113 l19 52 5 -90 c3 -49 9 -95 13
-102 11 -17 55 4 63 30 5 17 8 16 25 -12 16 -26 22 -30 38 -22 10 6 21 18 25
26 3 9 11 13 17 9 8 -4 10 -32 7 -80 -5 -81 9 -121 33 -97 10 10 17 9 35 -8
26 -25 67 -22 72 5 3 11 -7 27 -24 41 -27 22 -29 28 -34 126 -3 57 -4 112 -2
122 7 31 20 18 25 -25 8 -65 29 -151 40 -165 31 -40 67 29 67 129 0 80 17 84
27 7 3 -24 10 -50 16 -57 5 -7 7 -15 3 -19 -7 -7 22 -43 35 -43 22 0 41 65 36
118 -10 93 18 113 52 37 32 -73 66 -54 78 46 7 55 16 51 34 -16 13 -50 35 -85
54 -85 23 0 45 30 45 63 0 29 1 30 15 11 8 -10 15 -29 15 -41 0 -23 32 -63 50
-63 17 0 30 38 30 91 0 51 0 52 19 35 19 -17 20 -17 37 16 14 25 17 55 16 128
-1 62 2 88 8 75 5 -11 9 -34 9 -51 1 -22 8 -34 26 -44 23 -12 28 -11 50 10 20
18 28 21 37 12 29 -29 57 8 59 76 0 20 4 45 8 55 6 17 8 16 19 -8 7 -15 11
-30 8 -33 -14 -13 34 -91 55 -92 10 0 18 53 11 65 -4 5 -8 21 -9 35 -14 134
-62 349 -87 383 -11 15 -22 27 -25 27 -4 0 -13 -14 -20 -32z m-4494 -1725
c-17 -23 -23 -14 -19 29 l4 42 13 -30 c8 -19 9 -33 2 -41z m-4527 -267 c0 -13
-7 -29 -15 -36 -13 -11 -15 -8 -15 13 0 34 10 58 21 51 5 -3 9 -16 9 -28z
m-1952 -32 c-7 -15 -15 -21 -21 -15 -5 5 -4 17 3 30 15 30 32 16 18 -15z
m-312 -61 c-6 -54 -24 -96 -27 -62 -8 98 -6 119 14 119 18 0 19 -5 13 -57z
m2547 -10 c7 -14 -13 -74 -23 -68 -16 10 -12 75 4 75 8 0 17 -3 19 -7z m-2407
-120 c-2 -43 0 -82 4 -88 11 -16 18 -65 9 -65 -13 0 -29 36 -29 64 0 14 -5 28
-11 32 -19 11 6 134 26 134 3 0 3 -35 1 -77z m-86 42 c0 -17 -17 -28 -30 -20
-7 4 -7 13 0 26 12 21 30 17 30 -6z m2924 -157 c-9 -31 -12 -34 -26 -20 -8 8
-8 15 2 27 19 22 32 18 24 -7z m986 -94 c0 -41 -4 -63 -10 -59 -11 7 -13 48
-4 94 10 48 14 37 14 -35z"/>
<path d="M16999 7133 c-9 -15 -22 -45 -29 -66 -17 -54 -108 -217 -141 -252
-31 -34 -53 -82 -40 -90 5 -3 49 -7 99 -9 49 -2 95 -7 102 -11 9 -6 11 -34 7
-109 -10 -167 -54 -283 -133 -349 -37 -31 -43 -51 -18 -61 31 -12 46 -5 90 42
60 63 100 149 114 247 7 44 16 98 20 120 4 22 6 55 3 73 -5 30 -3 33 23 33 16
0 43 1 61 1 21 1 43 -8 64 -26 41 -35 52 -24 55 56 3 59 1 66 -36 118 -22 30
-52 77 -68 103 -99 173 -118 202 -137 205 -13 2 -26 -7 -36 -25z"/>
<path d="M16682 6022 c-68 -22 -111 -58 -139 -114 -34 -68 -31 -109 12 -147
20 -17 45 -33 58 -36 35 -9 93 21 124 65 15 22 33 38 38 36 10 -3 18 -57 30
-201 6 -67 25 -115 45 -115 5 0 16 10 23 23 11 17 12 42 5 117 -15 164 -46
360 -58 375 -16 19 -71 18 -138 -3z m68 -80 c0 -10 -7 -27 -15 -38 -8 -10 -15
-26 -15 -35 0 -16 -63 -79 -78 -79 -23 0 -45 30 -44 60 1 41 32 75 86 94 55
19 66 19 66 -2z"/>
<path d="M17105 6030 c-45 -8 -128 -50 -162 -82 -42 -39 -75 -107 -68 -136 8
-35 43 -72 67 -72 11 0 28 -4 38 -10 21 -11 80 16 80 37 0 6 9 14 19 18 11 3
23 14 26 24 3 10 14 26 24 35 22 20 22 20 37 -54 12 -61 15 -82 25 -200 9
-116 19 -140 56 -140 20 0 35 39 29 74 -3 17 -8 54 -11 81 -3 28 -8 58 -11 68
-3 9 -8 41 -10 70 -8 83 -10 97 -28 187 -25 116 -24 116 -111 100z m-11 -122
c-33 -67 -50 -86 -92 -104 -39 -16 -47 -13 -55 17 -10 38 98 134 156 138 15 1
14 -5 -9 -51z"/>
<path d="M16340 5792 c-33 -15 -83 -58 -91 -79 -5 -14 -3 -48 6 -90 24 -119
43 -267 38 -305 -6 -44 17 -62 45 -34 16 16 18 50 11 200 -2 57 9 70 72 80 57
9 112 62 111 106 -2 74 -125 152 -192 122z m107 -84 c24 -12 35 -31 28 -50 -9
-21 -68 -51 -107 -55 l-38 -3 0 50 c0 74 41 94 117 58z"/>
<path d="M10487 5158 c-28 -10 -28 -10 -9 -32 33 -37 53 -109 50 -178 l-3 -63
-57 0 c-41 0 -62 -5 -75 -17 -27 -28 1 -48 70 -52 32 -2 60 -6 63 -9 3 -3 6
-47 6 -99 0 -112 22 -193 53 -193 28 0 45 40 34 79 -6 17 -11 73 -13 124 l-2
94 33 25 c37 29 38 45 3 53 -21 5 -26 17 -47 115 -21 101 -45 155 -69 161 -5
1 -22 -2 -37 -8z"/>
<path d="M19364 5134 c-15 -23 -16 -34 -6 -102 18 -119 25 -206 26 -342 1 -69
5 -135 10 -147 8 -24 40 -31 51 -13 12 19 15 204 5 305 -5 55 -12 127 -14 160
-8 106 -18 145 -37 156 -15 7 -22 4 -35 -17z"/>
<path d="M19954 5075 c-4 -8 -3 -26 0 -40 4 -14 9 -54 12 -90 l5 -64 -33 -17
c-55 -28 -69 -44 -57 -66 8 -16 19 -19 52 -16 l42 3 3 -91 c2 -82 5 -94 27
-114 20 -19 27 -21 40 -10 12 10 15 36 15 122 l0 110 37 34 c30 27 34 36 24
48 -7 8 -26 16 -43 18 -30 3 -32 7 -60 96 -19 62 -33 92 -44 92 -8 0 -17 -7
-20 -15z"/>
<path d="M10834 4901 c-45 -21 -73 -57 -81 -106 -4 -28 1 -44 30 -88 20 -30
46 -61 58 -69 35 -23 15 -38 -52 -38 -33 0 -59 -4 -59 -10 0 -5 -1 -13 -1 -17
-3 -16 58 -42 98 -42 34 -1 50 5 75 28 l33 30 -23 43 c-12 24 -40 63 -63 87
-34 38 -39 49 -33 75 10 47 22 56 74 56 33 0 52 5 64 18 15 18 15 20 -2 35
-24 22 -66 21 -118 -2z"/>
<path d="M20303 4880 c-83 -17 -136 -62 -149 -128 -5 -24 -1 -33 21 -50 15
-12 46 -27 69 -33 44 -12 76 -35 76 -55 0 -29 -119 -66 -144 -44 -12 9 -19 7
-35 -9 -28 -28 -26 -38 9 -56 57 -29 152 -10 213 43 30 27 18 97 -22 130 -9 7
-40 24 -68 39 -29 14 -53 31 -53 38 0 23 35 43 98 56 34 7 62 16 62 20 0 17
-20 59 -27 58 -5 -1 -27 -5 -50 -9z"/>
<path d="M19664 4821 c-66 -40 -96 -109 -75 -173 6 -18 32 -54 57 -80 51 -54
78 -60 134 -29 111 58 105 204 -10 284 -32 22 -67 22 -106 -2z m97 -61 c26
-14 52 -67 45 -94 -6 -26 -53 -71 -83 -80 -19 -6 -25 0 -42 40 -28 62 -27 108
1 128 26 19 51 20 79 6z"/>
<path d="M10276 4781 c-15 -10 -39 -37 -53 -60 -13 -23 -29 -41 -35 -41 -17 0
-4 -118 15 -137 14 -15 20 -15 42 -3 23 12 25 19 25 85 0 42 5 78 13 89 12 16
14 16 40 -4 30 -24 70 -96 81 -145 10 -46 31 -68 55 -60 32 10 26 47 -19 142
-44 90 -93 153 -119 153 -9 0 -29 -9 -45 -19z"/>
<path d="M9938 4748 c-24 -24 -48 -52 -54 -62 -9 -18 -14 -15 -59 33 -45 48
-52 52 -88 49 -51 -4 -96 -55 -104 -118 -3 -23 -11 -43 -17 -45 -46 -14 -66
-14 -66 -2 0 7 -17 30 -38 50 -31 31 -45 37 -79 37 -40 0 -44 -3 -80 -55 -21
-30 -41 -54 -45 -55 -4 0 -17 11 -30 23 -60 61 -129 85 -209 72 -50 -9 -73
-45 -46 -72 13 -13 21 -14 41 -5 33 15 37 7 15 -36 -10 -20 -20 -45 -23 -54
-9 -30 -40 -9 -59 40 -35 89 -53 117 -81 127 -21 7 -29 6 -36 -5 -5 -8 -18
-26 -30 -40 -12 -14 -30 -36 -41 -50 -18 -24 -20 -24 -30 -6 -25 42 -50 57
-87 54 -29 -2 -41 -10 -59 -37 -13 -19 -23 -45 -23 -57 0 -13 -4 -24 -9 -24
-19 0 -19 -31 3 -90 22 -63 42 -85 69 -74 21 8 26 35 16 86 -11 60 -11 138 1
138 14 0 60 -76 60 -98 0 -26 20 -42 51 -42 28 0 38 15 59 95 23 89 41 84 70
-18 30 -103 40 -126 61 -137 26 -14 49 -12 49 4 0 8 4 17 10 21 25 15 72 -263
49 -291 -19 -23 4 -41 35 -26 40 18 44 38 29 162 -15 128 -13 144 17 135 30
-9 90 11 122 42 28 26 34 28 120 28 96 0 101 3 145 71 12 18 13 18 38 -9 14
-15 25 -34 25 -41 0 -20 36 -48 57 -44 21 4 30 43 14 62 -22 26 -14 172 11
204 32 39 100 -33 124 -130 9 -38 21 -71 26 -74 5 -3 22 5 36 19 27 25 60 24
77 -2 9 -16 120 -13 160 3 44 19 50 52 8 41 -59 -14 -89 -15 -112 -3 -31 17
-28 30 8 43 40 14 131 98 131 122 0 30 -21 51 -69 68 -78 27 -115 21 -163 -27z
m130 -39 c12 -5 22 -13 22 -19 0 -12 -136 -81 -144 -72 -14 14 -4 67 16 89 23
24 45 25 106 2z m-595 -98 c27 -11 43 -61 28 -90 -9 -17 -95 -44 -106 -33 -11
12 -4 89 11 110 17 24 30 27 67 13z m-261 -32 c26 -14 58 -64 58 -93 0 -28
-17 -40 -68 -50 -58 -11 -72 5 -72 83 0 37 3 71 6 74 8 7 49 -1 76 -14z"/>
<path d="M8404 4592 c-32 -11 -83 -58 -95 -89 -5 -15 -9 -50 -8 -78 3 -48 2
-50 -24 -48 -21 1 -26 -3 -29 -24 -2 -21 -11 -28 -48 -39 -60 -18 -87 -17
-137 6 -35 15 -43 24 -43 45 0 71 55 121 128 117 32 -3 62 11 62 28 0 4 -8 17
-19 28 -69 81 -277 -79 -247 -190 23 -85 163 -135 263 -93 52 22 66 35 53 50
-17 20 8 30 28 11 38 -34 88 -46 143 -36 68 13 115 45 134 93 20 51 19 66 -10
109 -14 20 -25 41 -25 46 0 9 -92 73 -101 71 -2 -1 -13 -4 -25 -7z m46 -82 c4
0 20 -21 35 -46 23 -39 25 -50 16 -70 -9 -21 -47 -44 -69 -44 -4 0 -20 19 -36
41 -23 32 -27 46 -22 74 7 36 31 58 54 50 8 -3 17 -5 22 -5z"/>
<path d="M7245 4567 c-15 -23 -14 -27 1 -60 21 -43 14 -62 -23 -70 -30 -6 -83
-42 -83 -57 0 -5 11 -16 23 -25 22 -14 28 -14 71 2 40 15 48 16 56 3 5 -8 7
-17 4 -21 -5 -9 -64 -39 -76 -39 -13 0 -68 -42 -68 -53 0 -4 7 -15 15 -24 13
-12 21 -13 48 -3 87 32 87 32 103 -5 8 -19 14 -45 14 -59 0 -26 35 -46 50 -29
12 13 18 111 7 122 -12 12 -1 17 58 25 22 3 50 9 63 12 13 4 22 2 22 -5 0 -6
9 -30 19 -54 11 -23 22 -52 26 -64 8 -27 35 -31 36 -5 0 9 1 42 2 72 l2 55 60
7 c163 20 175 24 175 64 0 20 -3 22 -27 15 -33 -10 -238 -9 -248 1 -13 12 15
45 43 51 15 3 39 15 53 26 20 16 22 23 13 38 -8 14 -26 19 -71 21 -58 3 -61 4
-69 34 -19 65 -82 63 -76 -2 3 -45 -10 -57 -71 -59 l-53 -1 -25 52 c-27 60
-50 71 -74 35z m259 -173 c11 -28 7 -31 -55 -38 -93 -11 -112 27 -22 44 60 12
70 11 77 -6z"/>
<path d="M18988 4490 c-29 -17 -249 -57 -413 -75 -66 -7 -181 -27 -255 -44
-74 -17 -149 -31 -166 -31 -18 0 -83 -9 -145 -21 -166 -30 -225 -37 -494 -59
-118 -10 -228 -23 -295 -35 -14 -3 -74 -10 -135 -15 -60 -6 -132 -15 -158 -20
-26 -6 -70 -10 -96 -10 -41 0 -236 -28 -321 -46 -14 -2 -63 -7 -110 -10 -91
-5 -189 -22 -310 -56 -151 -42 -440 -85 -630 -93 -63 -3 -135 -9 -160 -12 -25
-4 -66 -5 -92 -4 -44 3 -70 -1 -228 -34 -36 -8 -108 -16 -160 -20 -52 -3 -120
-10 -150 -15 -30 -5 -89 -15 -130 -21 -41 -6 -88 -15 -105 -20 -16 -4 -62 -9
-101 -10 -80 -2 -204 -22 -249 -39 -16 -6 -56 -13 -88 -15 -32 -2 -65 -6 -75
-9 -9 -3 -43 -8 -75 -11 -32 -3 -70 -10 -85 -16 -15 -6 -108 -19 -207 -29
-180 -19 -354 -45 -495 -74 -41 -8 -106 -20 -145 -26 -38 -6 -115 -20 -170
-31 -55 -11 -143 -22 -195 -24 -52 -3 -122 -9 -155 -14 -33 -6 -106 -13 -162
-16 -56 -3 -124 -12 -150 -20 -131 -37 -483 -84 -675 -89 -40 -2 -122 -8 -183
-15 -60 -7 -139 -14 -175 -16 -36 -2 -90 -8 -120 -14 -30 -5 -98 -17 -150 -26
-52 -8 -117 -20 -143 -25 -27 -6 -73 -10 -104 -10 -30 0 -90 -9 -134 -20 -69
-18 -215 -31 -499 -45 -25 -1 -88 -11 -140 -23 -52 -11 -133 -23 -180 -26 -47
-4 -116 -13 -155 -21 -63 -13 -182 -25 -380 -39 -147 -10 -192 -15 -240 -26
-71 -16 -313 -36 -665 -55 -36 -2 -135 -11 -220 -20 -85 -9 -182 -18 -215 -21
-33 -2 -84 -8 -114 -13 -30 -5 -102 -9 -160 -10 -58 -1 -137 -6 -176 -12 -119
-15 -265 -28 -395 -34 -254 -11 -328 -16 -480 -35 -85 -10 -234 -21 -330 -24
-96 -3 -222 -8 -280 -11 -58 -3 -188 -10 -290 -16 -102 -5 -214 -13 -250 -18
-36 -5 -148 -17 -250 -26 -102 -9 -206 -21 -232 -26 -25 -6 -86 -14 -135 -19
-48 -4 -106 -15 -128 -23 -22 -9 -78 -18 -123 -21 -46 -4 -105 -11 -130 -16
-63 -12 -138 -20 -252 -26 -52 -2 -131 -9 -175 -15 -107 -15 -228 -29 -295
-34 -221 -19 -297 -28 -380 -44 -149 -29 -275 -43 -364 -41 -44 2 -91 2 -104
1 -32 -2 -44 -38 -23 -75 l16 -28 150 6 c131 5 361 33 405 50 8 3 38 8 65 10
135 12 266 26 320 35 101 17 244 30 385 37 74 3 175 12 225 20 49 9 126 19
170 24 44 5 145 20 225 34 208 36 279 47 330 52 25 3 88 10 140 15 52 6 113
13 135 15 22 2 78 9 125 14 47 5 173 14 280 20 183 10 260 13 550 25 141 6
330 21 350 29 18 7 129 14 360 21 96 3 209 12 250 20 41 8 152 17 245 21 94 3
195 10 225 15 183 31 470 60 635 64 75 2 171 9 213 14 42 5 124 13 182 17 58
3 116 11 130 16 14 5 26 9 28 8 1 0 17 2 35 5 17 3 115 12 217 20 256 20 386
33 445 46 28 5 82 14 120 19 39 5 97 13 130 19 33 5 87 12 120 15 33 3 76 10
95 16 19 5 96 10 170 10 82 0 165 6 210 15 97 20 192 34 310 45 52 5 136 16
185 25 50 8 147 22 216 30 70 8 147 19 170 24 24 5 123 12 219 16 96 4 200 12
230 17 30 5 91 13 135 17 44 5 100 13 125 19 25 5 74 13 110 17 35 4 82 14
103 21 21 8 100 18 175 24 75 6 160 15 187 20 28 5 93 12 145 15 52 4 112 11
133 16 40 11 54 13 182 30 44 5 84 14 90 18 5 5 28 11 50 14 22 2 81 12 130
20 50 8 140 21 200 27 199 21 318 38 440 64 141 30 141 30 355 56 91 11 203
26 250 35 163 29 299 45 377 45 52 0 109 8 173 26 52 14 108 23 125 21 16 -2
44 2 61 9 22 9 57 11 117 7 47 -3 93 -3 104 1 10 4 68 9 128 12 61 2 137 9
170 14 33 6 94 14 135 19 65 8 209 41 305 71 17 5 48 11 70 14 22 3 54 9 70
14 17 5 84 14 150 21 66 7 143 16 170 21 70 14 219 30 360 40 66 4 172 17 235
28 130 23 180 29 295 38 44 3 112 10 150 15 39 6 86 12 105 14 75 8 167 17
213 21 82 8 275 43 417 77 36 9 112 21 170 27 106 12 232 31 325 49 28 6 75
15 107 20 31 5 66 16 77 23 57 35 -22 102 -81 68z"/>
<path d="M7665 3917 c-27 -60 -45 -154 -45 -238 l0 -56 -62 -13 c-35 -7 -71
-20 -80 -28 -24 -20 -23 -55 3 -78 12 -10 38 -48 60 -84 21 -36 56 -84 79
-108 22 -24 40 -51 40 -61 0 -18 18 -31 45 -31 27 0 205 299 205 345 0 8 -12
33 -26 55 -20 30 -32 39 -48 36 -11 -3 -46 -7 -77 -10 l-56 -6 -9 68 c-7 48
-6 75 2 97 62 154 63 165 18 165 -20 0 -29 -10 -49 -53z"/>
<path d="M1013 1916 c-90 -23 -137 -104 -136 -234 0 -73 4 -90 33 -148 36 -69
59 -90 128 -117 79 -31 114 -24 193 39 38 30 76 65 84 77 18 28 29 115 21 160
-9 50 -76 147 -122 179 -54 38 -146 58 -201 44z m135 -81 c76 -32 138 -132
126 -206 -13 -81 -143 -174 -207 -150 -29 11 -80 76 -103 130 -19 44 -18 124
2 164 36 73 101 95 182 62z"/>
<path d="M18860 1253 c-41 -9 -89 -12 -129 -9 -51 4 -69 2 -83 -10 -28 -26 -7
-51 56 -64 29 -6 57 -10 62 -9 5 1 18 1 29 0 15 -1 16 -4 7 -13 -18 -18 -15
-46 8 -78 35 -49 70 -139 70 -180 0 -75 -92 -104 -139 -44 -22 28 -36 31 -45
8 -19 -49 2 -83 64 -103 70 -22 137 2 170 61 31 56 22 106 -43 237 -28 58 -53
108 -55 112 -1 3 23 12 55 19 61 15 83 29 83 54 0 13 -31 38 -42 35 -2 -1 -32
-8 -68 -16z"/>
<path d="M14646 1241 c-10 -11 -23 -54 -31 -102 -7 -46 -23 -113 -34 -149 -29
-94 -45 -184 -38 -204 4 -10 15 -16 24 -14 15 3 35 40 65 121 9 23 38 -12 63
-71 38 -94 39 -97 66 -97 19 0 24 5 23 25 -1 14 -7 39 -15 57 -16 39 -10 47
25 32 20 -9 26 -20 26 -42 0 -16 8 -44 19 -61 26 -44 47 -195 32 -224 -14 -26
1 -62 24 -62 32 0 45 76 26 150 -26 101 -26 104 26 133 60 32 107 81 127 129
26 60 21 93 -21 139 -37 41 -37 41 -100 37 -75 -5 -109 -26 -138 -86 -11 -23
-24 -41 -28 -42 -4 0 -19 11 -32 25 -19 18 -25 35 -26 72 -1 26 -1 52 0 56 4
22 -23 145 -37 170 -19 32 -24 33 -46 8z m368 -267 c23 -9 20 -62 -7 -109 -23
-40 -82 -88 -101 -82 -13 4 -34 72 -35 114 -2 57 80 101 143 77z"/>
<path d="M19355 1230 c-17 -19 -17 -24 1 -137 10 -65 20 -161 23 -213 6 -92 7
-95 33 -104 15 -5 30 -7 34 -3 7 7 -9 220 -28 362 -15 116 -27 135 -63 95z"/>
<path d="M17296 1201 c-10 -11 -16 -27 -13 -35 6 -15 65 -36 102 -36 32 0 44
-13 63 -66 9 -27 22 -56 27 -64 67 -104 70 -176 9 -205 -36 -17 -45 -15 -81
18 -19 16 -25 18 -38 7 -21 -18 -19 -31 13 -68 51 -61 157 -49 202 23 17 28
19 39 10 85 -6 29 -14 58 -19 64 -5 6 -19 42 -31 79 -13 37 -27 70 -31 73 -5
3 -9 15 -9 27 0 20 5 22 64 22 70 0 110 22 104 58 -3 17 -15 19 -133 22 -71 1
-150 6 -175 10 -38 6 -48 3 -64 -14z"/>
<path d="M13478 1167 c-15 -17 -30 -45 -34 -61 -7 -35 -30 -76 -43 -76 -5 0
-12 16 -15 35 -7 33 -49 95 -66 95 -5 0 -15 -6 -23 -14 -11 -11 -13 -46 -9
-178 5 -172 12 -198 54 -198 16 0 18 9 18 80 0 44 2 80 4 80 3 0 16 -4 30 -10
23 -8 28 -6 50 27 14 20 31 58 37 85 7 26 16 48 20 48 7 0 16 -38 26 -105 3
-22 9 -44 14 -50 5 -5 9 -30 9 -56 0 -60 24 -119 49 -119 27 0 33 26 21 89 -6
31 -18 92 -26 136 -25 129 -36 168 -56 198 -11 15 -22 27 -26 26 -4 0 -19 -14
-34 -32z"/>
<path d="M15829 1178 c-13 -24 -15 -49 -23 -256 -5 -128 2 -182 24 -182 23 0
39 50 46 140 3 52 8 97 10 99 2 2 8 -8 13 -22 12 -32 61 -77 83 -77 9 0 26 16
38 35 12 19 26 33 30 30 5 -3 12 -37 16 -75 6 -64 9 -71 38 -90 29 -18 32 -19
44 -2 7 9 10 26 7 37 -7 22 -28 125 -45 223 -11 60 -43 132 -60 132 -15 0 -24
-22 -46 -110 -21 -84 -36 -107 -47 -73 -35 109 -60 170 -79 190 -27 29 -34 29
-49 1z"/>
<path d="M12575 1143 c-12 -12 -15 -25 -10 -47 23 -98 49 -338 40 -372 -3 -14
-13 -22 -27 -22 -13 -1 -47 -4 -76 -8 -43 -5 -56 -3 -72 11 -28 26 -25 53 8
66 106 41 141 77 115 118 -13 21 -87 45 -118 37 -27 -7 -85 -64 -85 -83 0 -7
-13 -25 -30 -40 -36 -32 -37 -40 -5 -55 14 -6 25 -19 25 -29 0 -27 73 -99 101
-100 48 -2 75 3 106 22 20 13 34 16 38 9 16 -26 86 -50 145 -50 73 0 141 34
160 79 16 40 -9 91 -63 127 -34 22 -54 28 -101 28 l-60 1 -3 35 c-11 122 -27
211 -43 248 -10 23 -21 42 -24 42 -2 0 -12 -7 -21 -17z m-95 -280 c0 -13 -14
-27 -38 -41 -19 -10 -23 -10 -28 3 -11 27 4 45 36 45 16 0 30 -3 30 -7z m308
-113 c39 -24 41 -44 5 -59 -40 -15 -113 -22 -113 -10 0 19 30 68 47 78 24 14
23 14 61 -9z"/>
<path d="M12249 1136 c-6 -7 -109 -28 -149 -31 -36 -3 -35 -3 -64 -26 -25 -19
-25 -22 -11 -50 9 -16 20 -72 24 -124 5 -52 11 -98 14 -102 2 -4 1 -35 -3 -68
-8 -69 -3 -95 16 -95 21 0 41 49 49 123 l7 67 40 0 c50 0 117 18 141 38 16 14
16 16 1 34 -15 16 -27 17 -99 12 -48 -4 -85 -3 -88 3 -3 5 -9 32 -13 60 l-6
51 43 7 c55 9 129 43 129 59 0 16 -24 49 -31 42z"/>
<path d="M6547 1090 c-3 -10 -3 -56 0 -100 l4 -81 -77 3 c-61 1 -79 -1 -82
-12 -3 -8 -30 -37 -60 -65 -88 -80 -104 -141 -49 -192 27 -26 43 -32 100 -38
63 -6 71 -5 93 16 23 22 32 49 17 49 -5 1 -33 2 -63 4 -100 5 -129 43 -67 89
54 41 100 61 144 61 l43 1 0 -101 c0 -106 7 -124 46 -124 28 0 36 23 43 135
l6 90 40 6 c59 11 97 28 92 42 -2 6 -15 11 -28 9 -13 -1 -44 4 -69 11 l-44 14
-17 74 c-19 86 -37 129 -54 129 -7 0 -15 -9 -18 -20z"/>
<path d="M10666 1079 c-148 -23 -200 -53 -165 -95 10 -13 25 -14 79 -9 l66 7
47 -94 c53 -107 57 -135 24 -166 -28 -27 -49 -28 -89 -4 -28 16 -30 16 -44 -3
-20 -28 -14 -46 25 -72 60 -40 120 -26 180 43 27 31 32 42 27 73 -5 38 -59
172 -82 206 -8 11 -14 23 -14 27 0 9 67 28 101 28 27 0 39 16 39 50 0 35 -21
36 -194 9z"/>
<path d="M16350 1043 c-55 -38 -69 -53 -101 -110 -62 -109 -57 -155 21 -168
49 -8 61 0 92 62 20 40 23 43 35 27 7 -10 13 -32 13 -50 0 -18 4 -35 9 -38 5
-3 12 -27 16 -53 10 -76 16 -93 31 -93 24 0 26 63 6 206 -14 96 -27 152 -42
179 -34 63 -40 66 -80 38z m0 -109 c0 -31 -56 -121 -68 -109 -6 6 18 77 34
103 17 26 34 29 34 6z"/>
<path d="M7455 1034 c-14 -21 -16 -39 -11 -88 4 -33 9 -123 12 -200 2 -76 7
-142 10 -147 8 -13 38 -11 52 3 8 8 12 56 12 150 0 76 4 138 8 138 15 0 82
-97 82 -118 0 -11 11 -33 24 -49 13 -15 31 -45 39 -65 15 -35 52 -66 65 -54 3
4 12 23 19 44 19 54 7 348 -16 379 -19 26 -34 29 -51 8 -12 -14 -14 -80 -7
-199 1 -16 -4 -31 -10 -33 -7 -3 -13 1 -13 7 0 38 -160 250 -189 250 -5 0 -16
-12 -26 -26z"/>
<path d="M19196 1028 c-8 -13 -24 -56 -36 -95 -17 -56 -27 -73 -41 -73 -21 0
-39 52 -39 113 0 30 -4 37 -19 37 -30 0 -54 -46 -48 -95 8 -79 76 -142 134
-126 31 8 73 71 73 109 0 33 18 27 34 -13 22 -52 85 -69 86 -24 0 18 -75 157
-93 171 -29 23 -34 22 -51 -4z"/>
<path d="M16692 998 c-23 -23 -42 -48 -42 -55 0 -25 -24 -13 -66 32 -44 48
-55 53 -73 32 -16 -20 2 -70 42 -119 l35 -43 -33 -70 c-19 -38 -34 -76 -34
-83 -1 -7 -10 -32 -20 -55 -59 -131 -65 -169 -30 -187 11 -7 22 -10 24 -8 5 6
34 75 60 143 44 114 164 348 196 380 34 36 36 50 10 65 -26 14 -23 15 -69 -32z"/>
<path d="M18057 1028 c-9 -7 -25 -34 -36 -59 -11 -26 -24 -50 -30 -53 -6 -4
-11 -16 -11 -27 0 -33 -17 -13 -28 34 -12 47 -43 83 -65 74 -7 -3 -18 -22 -25
-43 -6 -22 -17 -59 -24 -83 -7 -25 -18 -46 -24 -48 -7 -2 -22 10 -34 27 -18
25 -23 47 -24 98 -1 61 -3 67 -23 70 -36 5 -49 -26 -43 -112 4 -65 9 -79 32
-102 36 -37 94 -56 109 -38 6 8 17 14 24 14 8 0 23 12 34 27 23 28 23 28 40
-4 10 -19 20 -23 61 -23 55 0 70 15 70 69 0 17 9 45 19 62 l19 31 15 -28 c8
-16 18 -48 22 -71 8 -52 35 -89 58 -80 23 9 22 56 -5 145 -32 105 -85 154
-131 120z"/>
<path d="M13744 963 c-71 -80 -84 -101 -84 -141 0 -36 13 -48 62 -57 50 -9 99
9 123 45 25 37 30 37 45 0 10 -25 48 -60 64 -60 3 0 10 9 17 21 9 17 7 25 -10
43 -21 23 -61 121 -61 151 0 9 -10 19 -23 24 -13 5 -29 16 -36 25 -7 9 -19 16
-25 16 -7 0 -39 -30 -72 -67z m90 -38 c12 -33 -25 -85 -71 -99 -48 -15 -32 41
26 91 31 27 37 28 45 8z"/>
<path d="M14074 1012 c-11 -10 -28 -29 -38 -44 -15 -23 -20 -25 -37 -15 -27
17 -41 -1 -29 -38 5 -17 12 -56 16 -88 4 -47 10 -61 30 -74 35 -22 43 -10 60
88 19 110 17 106 64 120 22 7 46 19 52 27 30 36 -77 58 -118 24z"/>
<path d="M15220 1023 c-28 -11 -110 -106 -105 -122 2 -9 9 -41 15 -71 9 -49
29 -80 52 -80 13 0 24 39 31 108 9 86 19 102 65 102 36 0 62 14 62 32 0 4 -8
8 -19 8 -10 0 -24 7 -31 15 -12 15 -42 18 -70 8z"/>
<path d="M2981 1003 c-11 -23 -27 -104 -41 -213 -10 -83 -14 -109 -25 -161 -4
-17 1 -33 14 -50 l21 -24 18 24 c10 13 25 46 32 73 l12 50 45 -6 c58 -8 58 -8
77 -61 8 -25 24 -57 35 -71 l21 -26 9 25 c7 17 5 43 -4 83 -13 56 -13 60 5 73
27 19 25 39 -5 47 -32 8 -71 55 -80 96 -4 18 -25 61 -47 95 -41 65 -69 79 -87
46z m79 -205 c0 -5 -7 -8 -15 -8 -10 0 -15 10 -15 33 l1 32 14 -25 c8 -14 14
-28 15 -32z"/>
<path d="M5979 997 c-41 -28 -76 -87 -85 -145 -7 -48 5 -100 38 -172 12 -25
24 -52 28 -59 13 -28 57 -54 82 -48 37 10 102 71 128 122 35 67 34 164 -2 220
-32 50 -65 81 -101 94 -40 15 -50 14 -88 -12z m119 -66 c42 -41 46 -62 28
-145 -14 -61 -23 -79 -56 -111 -40 -39 -69 -43 -35 -5 14 16 15 22 5 35 -7 8
-19 15 -26 15 -17 0 -44 51 -44 85 0 52 23 116 48 135 33 27 44 25 80 -9z"/>
<path d="M8914 999 c-18 -20 -18 -21 1 -35 10 -8 29 -14 41 -14 31 0 33 -6 46
-107 13 -111 12 -228 -4 -253 -15 -24 -5 -35 37 -44 25 -5 39 1 88 39 64 51
92 101 102 183 8 59 -4 90 -57 148 -48 52 -79 70 -155 90 -70 18 -76 18 -99
-7z m206 -128 c44 -40 51 -101 20 -165 -12 -26 -31 -51 -41 -57 -18 -9 -19 -5
-20 58 0 37 0 91 -1 118 0 89 -2 87 42 46z"/>
<path d="M4550 992 c-75 -20 -127 -53 -136 -87 -8 -34 21 -81 69 -112 122 -77
147 -95 147 -102 0 -16 -58 -61 -87 -67 -25 -5 -33 -2 -43 16 -11 21 -12 21
-32 4 -14 -14 -18 -26 -14 -48 9 -43 31 -54 84 -45 54 11 100 38 141 85 45 51
39 80 -23 118 -132 81 -156 100 -156 122 0 18 9 25 48 37 26 9 63 18 83 21 47
8 64 27 49 55 -13 26 -41 26 -130 3z"/>
<path d="M2100 955 c-8 -9 -10 -30 -6 -57 3 -24 10 -95 16 -158 15 -155 22
-191 43 -204 29 -18 52 5 51 50 -4 165 -30 340 -55 371 -15 17 -34 17 -49 -2z"/>
<path d="M8274 942 c-23 -19 -39 -58 -49 -117 -11 -67 -25 -115 -35 -115 -12
0 -46 65 -54 107 -13 58 -66 50 -66 -11 1 -75 63 -181 114 -194 27 -8 34 -5
53 21 27 36 48 99 63 182 5 33 12 71 16 85 3 14 -1 33 -8 42 -12 16 -14 16
-34 0z"/>
<path d="M1605 937 c-33 -5 -96 -10 -140 -11 -44 -1 -89 -6 -100 -13 -19 -11
-19 -13 -3 -40 15 -26 22 -28 88 -31 l72 -3 45 -96 46 -96 -24 -20 c-18 -14
-36 -18 -77 -15 -44 2 -57 0 -66 -15 -9 -15 -6 -22 17 -43 34 -29 85 -31 142
-5 83 37 93 86 40 189 -48 95 -45 114 20 127 65 13 75 20 75 56 0 27 -2 29
-37 28 -21 -1 -65 -6 -98 -12z"/>
<path d="M9705 935 c-50 -17 -102 -77 -110 -127 -14 -81 76 -188 145 -173 19
4 36 2 45 -5 12 -10 20 -9 40 4 36 24 31 44 -12 52 -105 19 -151 62 -138 130
5 27 15 38 45 54 39 20 49 41 32 67 -5 8 -17 8 -47 -2z"/>
<path d="M9394 930 c-61 -24 -124 -131 -124 -211 0 -92 54 -159 127 -159 58 0
137 37 172 81 18 22 31 42 29 44 -2 2 -35 -7 -73 -20 -121 -42 -180 -30 -173
35 3 32 6 35 46 42 85 14 145 85 117 139 -8 14 -20 30 -27 36 -19 15 -70 22
-94 13z m50 -56 c26 -10 18 -31 -18 -48 -19 -9 -39 -16 -45 -16 -20 0 -12 38
11 54 25 18 30 19 52 10z"/>
<path d="M10992 893 c-58 -58 -132 -168 -132 -195 0 -11 13 -33 29 -49 63 -63
152 -27 212 84 20 38 39 42 39 6 0 -27 35 -59 65 -59 34 0 41 23 18 57 -11 15
-33 54 -49 87 -29 58 -88 116 -118 116 -10 0 -38 -21 -64 -47z m82 -60 c-13
-74 -67 -153 -104 -153 -24 0 -33 15 -26 44 5 21 118 146 131 146 3 0 3 -17
-1 -37z"/>
<path d="M11319 932 c-9 -4 -29 -19 -46 -33 -29 -24 -31 -29 -29 -96 1 -76 16
-106 50 -101 19 3 22 13 30 88 4 47 10 87 12 89 2 3 15 -5 27 -18 28 -25 60
-96 76 -166 13 -54 48 -96 62 -73 26 41 -2 162 -56 244 -47 70 -78 86 -126 66z"/>
<path d="M3427 885 c-9 -8 -23 -38 -33 -67 -9 -29 -28 -71 -42 -92 -28 -45
-41 -36 -43 29 -3 98 -31 132 -65 81 -23 -36 -16 -188 10 -228 39 -59 121 -14
163 89 18 43 33 56 33 29 0 -22 81 -119 91 -109 16 16 12 57 -16 138 -48 142
-64 164 -98 130z"/>
<path d="M3705 864 c-100 -52 -139 -98 -133 -158 4 -41 65 -112 104 -122 38
-10 93 20 106 56 13 37 24 38 31 3 3 -16 13 -48 22 -73 9 -25 19 -81 22 -126
5 -79 5 -81 -22 -102 -47 -37 -93 -28 -190 36 -50 34 -62 32 -51 -11 16 -66
138 -133 222 -123 71 9 124 88 124 185 0 50 -102 363 -130 399 -11 13 -20 31
-20 38 0 19 -48 18 -85 -2z m35 -109 c0 -49 -25 -105 -46 -105 -25 0 -54 29
-54 55 0 25 15 45 50 69 38 25 50 20 50 -19z"/>
<path d="M4786 819 c-14 -17 -26 -41 -26 -54 0 -13 -4 -27 -10 -30 -5 -3 -10
-20 -10 -37 0 -25 11 -42 51 -81 l51 -49 55 6 c30 3 65 13 78 22 22 15 23 14
36 -23 7 -21 13 -78 14 -127 1 -74 4 -91 20 -102 10 -8 23 -14 27 -14 17 0 31
57 30 128 l-1 73 34 15 c82 34 136 113 116 167 -14 37 -105 87 -159 87 -83 0
-163 -64 -135 -109 14 -23 -1 -41 -33 -41 -24 0 -84 19 -84 27 0 8 44 42 56
43 15 0 64 54 64 71 0 8 -7 25 -16 37 -13 18 -25 22 -74 22 -53 0 -61 -3 -84
-31z m379 -85 c39 -26 34 -65 -14 -99 -22 -14 -47 -25 -56 -23 -23 4 -47 76
-34 99 21 39 65 49 104 23z"/>
<path d="M7858 817 c-35 -29 -46 -54 -54 -119 -6 -54 -6 -55 32 -86 21 -18 45
-32 52 -32 25 0 69 39 102 90 30 47 32 54 22 88 -18 58 -33 72 -82 77 -36 4
-50 0 -72 -18z m105 -33 c16 -16 -55 -140 -74 -128 -5 3 -9 23 -9 45 0 54 56
110 83 83z"/>
<path d="M1792 763 c-5 -10 -13 -39 -16 -65 -8 -56 18 -129 54 -148 34 -18 90
-15 105 7 44 61 43 60 62 37 10 -12 31 -25 47 -28 27 -7 28 -5 23 21 -2 15
-10 44 -17 63 -7 19 -17 47 -22 62 -10 27 -33 42 -49 32 -5 -3 -23 -32 -39
-63 -29 -59 -48 -75 -75 -65 -10 4 -15 27 -17 82 -3 70 -5 77 -25 80 -13 2
-25 -4 -31 -15z"/>
</g>
</svg>
