<?xml version="1.0" standalone="no"?>
<!DOCTYPE svg PUBLIC "-//W3C//DTD SVG 20010904//EN"
 "http://www.w3.org/TR/2001/REC-SVG-20010904/DTD/svg10.dtd">
<svg version="1.0" xmlns="http://www.w3.org/2000/svg"
 width="595.555854pt" height="400.000000pt" viewBox="0 0 595.555854 400.000000"
 preserveAspectRatio="xMidYMid meet">
<metadata>
Created by potrace 1.15, written by Peter Selinger 2001-2017
</metadata>
<g transform="translate(-14.439217,419.779366) scale(0.049154,-0.049154)"
fill="#444444" stroke="none">
<path d="M6433 8529 c-7 -7 -8 -24 -3 -47 13 -60 21 -177 25 -350 3 -145 5
-165 21 -177 11 -8 28 -12 38 -8 11 3 77 5 148 5 71 -1 140 3 152 8 17 6 32 3
55 -11 84 -51 234 6 257 98 8 32 29 29 44 -7 13 -31 49 -60 75 -60 21 0 19 23
-5 45 -10 9 -33 61 -50 113 -48 148 -53 148 -253 16 -66 -44 -107 -93 -107
-130 0 -24 8 -24 -158 -3 -40 5 -93 9 -118 9 l-44 0 -1 98 c-2 296 -16 412
-48 412 -9 0 -22 -5 -28 -11z m677 -356 c-1 -27 -31 -117 -48 -140 -41 -58
-172 -64 -172 -8 0 29 61 83 130 116 28 13 50 27 50 31 0 5 9 8 20 8 11 0 20
-3 20 -7z"/>
<path d="M7399 8488 c-1 -24 -1 -89 1 -145 l2 -103 -49 0 c-51 0 -90 -24 -75
-45 11 -16 60 -35 88 -35 34 0 38 -18 22 -99 -15 -76 -9 -111 21 -111 23 0 37
37 47 128 l7 63 45 -2 c25 -2 47 1 49 7 4 13 -23 40 -63 64 -29 17 -31 22 -38
96 -14 169 -25 224 -46 224 -5 0 -11 -19 -11 -42z"/>
<path d="M3184 8502 c-48 -5 -68 -33 -56 -74 13 -42 21 -113 28 -268 3 -69 10
-129 14 -135 4 -5 10 -21 12 -34 1 -14 9 -26 16 -29 9 -3 12 18 13 80 1 46 1
89 0 96 -1 6 3 12 8 12 12 0 129 -58 151 -75 31 -24 100 -58 106 -53 10 11
-24 64 -58 90 -18 14 -58 37 -88 50 -56 26 -109 72 -97 85 4 3 32 10 61 14 72
9 126 49 126 92 0 23 -11 41 -46 74 -60 58 -121 82 -190 75z m106 -90 c23 -10
80 -57 80 -67 0 -11 -60 -33 -106 -39 -42 -5 -53 -3 -58 10 -8 20 -8 99 0 106
7 8 52 2 84 -10z"/>
<path d="M9165 8411 c-6 -5 -30 -19 -55 -32 -25 -13 -45 -28 -45 -34 0 -5 -11
-30 -24 -55 -56 -106 -10 -378 82 -479 30 -32 78 -52 95 -39 19 16 15 25 -37
75 -65 64 -93 138 -99 257 -4 97 6 148 39 190 30 39 88 72 137 81 46 7 62 22
41 36 -18 11 -122 12 -134 0z"/>
<path d="M10112 8370 c-11 -18 -9 -25 13 -54 53 -69 104 -260 105 -387 l0 -96
-41 -47 c-31 -35 -48 -46 -70 -46 -33 0 -38 -14 -10 -30 40 -21 73 -12 117 34
69 73 80 169 40 352 -27 122 -34 142 -78 232 -32 66 -54 77 -76 42z"/>
<path d="M3941 8295 c-37 -13 -61 -39 -61 -66 0 -25 75 -109 126 -142 24 -15
44 -31 44 -36 0 -17 -91 -34 -154 -28 -52 5 -65 3 -70 -9 -9 -23 -9 -22 34
-44 69 -35 172 -23 212 24 34 40 23 66 -58 142 -47 45 -74 76 -69 84 4 7 28
10 64 9 54 -3 56 -2 59 24 3 22 -3 29 -34 42 -42 17 -46 17 -93 0z"/>
<path d="M3605 8261 c-40 -17 -58 -48 -52 -91 4 -33 1 -43 -15 -54 -25 -18
-18 -43 14 -55 13 -5 34 -21 48 -36 39 -42 76 -57 121 -50 39 7 69 35 69 63 0
11 -7 12 -27 7 -49 -14 -123 0 -123 23 0 4 34 22 75 41 59 26 77 39 82 59 7
31 -4 50 -47 80 -34 23 -104 29 -145 13z m132 -63 c17 -14 17 -28 -1 -28 -7 0
-34 -9 -60 -21 -25 -11 -51 -17 -56 -14 -17 10 -11 63 8 75 19 12 89 5 109
-12z"/>
<path d="M4232 8235 c-17 -8 -47 -30 -66 -50 -37 -37 -37 -61 -3 -82 21 -12
28 -42 15 -62 -9 -15 -8 -24 5 -45 14 -20 18 -51 19 -141 0 -98 3 -117 19
-131 11 -10 22 -14 27 -10 4 4 9 62 12 129 l5 122 35 6 c47 7 73 22 105 61 23
27 26 39 22 75 -5 49 -17 67 -67 98 -59 37 -92 44 -128 30z m118 -96 c28 -28
30 -33 17 -53 -13 -21 -96 -68 -108 -60 -8 5 -20 124 -13 135 3 5 20 9 39 9
24 0 42 -9 65 -31z"/>
<path d="M5207 8235 c-50 -14 -72 -33 -83 -73 -9 -34 29 -69 95 -88 78 -23
101 -32 101 -42 0 -12 -76 -46 -150 -67 -77 -22 -87 -29 -71 -49 25 -30 78
-30 149 -2 87 34 124 67 120 109 -3 35 -10 39 -140 91 -21 8 -38 19 -38 24 0
16 38 44 57 42 10 -1 35 -2 56 -1 32 1 37 4 37 24 0 48 -40 58 -133 32z"/>
<path d="M4895 8196 c-23 -14 -48 -40 -58 -60 -9 -20 -21 -36 -27 -36 -5 0
-10 -20 -10 -44 0 -75 56 -106 67 -36 13 91 38 130 84 130 43 0 61 -47 53
-137 -5 -63 -4 -69 16 -81 12 -7 25 -10 28 -7 4 4 9 46 10 94 3 69 0 96 -13
122 -42 83 -80 97 -150 55z"/>
<path d="M4538 8197 c-46 -37 -63 -112 -33 -151 8 -11 15 -30 15 -42 0 -25 41
-44 98 -44 42 0 110 43 123 77 11 29 1 83 -20 107 -38 44 -153 77 -183 53z
m107 -61 c27 -8 47 -43 40 -67 -4 -11 -24 -28 -46 -39 l-39 -21 -10 26 c-5 14
-17 28 -25 31 -38 15 4 91 45 80 8 -3 24 -7 35 -10z"/>
<path d="M5550 8203 c-22 -6 -70 -73 -70 -98 0 -12 -9 -31 -20 -43 -11 -12
-20 -24 -20 -28 0 -15 37 -33 66 -34 17 0 37 -7 44 -15 6 -8 32 -26 57 -41 37
-21 53 -25 86 -20 23 4 53 13 67 21 14 8 35 19 48 25 45 20 13 33 -64 27 -69
-6 -134 5 -134 23 0 8 78 40 97 40 17 0 26 37 18 76 -8 46 -53 74 -115 73 -25
-1 -52 -3 -60 -6z m101 -72 c32 -26 17 -39 -50 -42 -61 -3 -75 9 -45 42 22 24
65 24 95 0z"/>
<path d="M8033 8197 c-13 -7 -43 -41 -69 -76 l-46 -63 7 -82 c8 -98 12 -116
29 -116 26 0 39 31 37 85 -2 58 22 157 43 174 40 33 86 -54 86 -161 0 -63 3
-75 20 -86 36 -22 43 -6 38 87 -7 109 -46 214 -89 236 -33 18 -28 17 -56 2z"/>
<path d="M9919 8193 c-15 -2 -37 -15 -49 -28 l-23 -24 22 -42 c13 -23 45 -67
72 -98 l49 -55 -26 -14 c-14 -7 -50 -16 -81 -19 -49 -5 -55 -4 -60 15 -4 18
-8 19 -24 9 -29 -18 -23 -49 14 -74 45 -30 77 -36 125 -23 64 17 102 54 102
99 0 31 -9 47 -52 96 -29 32 -53 63 -53 69 0 7 28 12 70 14 59 2 73 6 84 24
28 45 -53 69 -170 51z"/>
<path d="M7710 8182 c-65 -18 -120 -84 -120 -144 0 -47 47 -111 102 -139 53
-28 120 -29 148 -4 26 23 19 30 -30 26 -55 -4 -150 50 -150 85 0 12 11 16 93
28 15 3 45 13 65 23 32 15 37 23 37 52 0 55 -73 92 -145 73z m94 -58 c4 -9 5
-18 4 -19 -4 -3 -119 -25 -130 -25 -18 0 -7 38 15 48 36 17 104 15 111 -4z"/>
<path d="M8363 8157 c-73 -27 -150 -133 -140 -193 8 -50 54 -111 101 -134 83
-40 119 -19 54 31 -70 53 -88 78 -88 120 0 55 49 105 114 114 35 6 50 13 56
29 4 11 5 24 1 27 -13 14 -67 17 -98 6z"/>
<path d="M9346 8133 c-25 -25 -29 -26 -37 -10 -8 13 -14 15 -29 7 -20 -11 -19
-49 2 -102 5 -15 7 -39 4 -52 -6 -25 10 -76 24 -76 16 0 28 28 38 89 18 104
47 120 81 42 32 -75 53 -76 116 -5 l52 58 18 -27 c10 -15 21 -57 24 -92 4 -36
12 -70 18 -76 16 -16 59 -7 54 11 -2 8 -9 44 -16 80 -15 84 -47 156 -73 165
-29 9 -74 -17 -103 -59 -13 -20 -27 -36 -32 -36 -4 0 -15 19 -24 41 -11 30
-25 45 -49 55 -42 18 -37 19 -68 -13z"/>
<path d="M8512 8133 c-18 -15 -19 -25 -13 -63 4 -25 21 -64 39 -89 35 -48 39
-76 17 -105 -8 -11 -15 -25 -15 -32 0 -14 -19 -46 -95 -162 -61 -93 -69 -110
-54 -128 21 -26 38 -14 85 56 37 56 170 301 188 345 33 80 67 187 62 192 -14
14 -58 -20 -78 -62 -12 -25 -25 -45 -28 -45 -4 0 -24 25 -45 55 -20 30 -39 55
-40 55 -2 0 -12 -8 -23 -17z"/>
<path d="M1325 7553 c3 -87 7 -225 10 -308 4 -117 5 -833 2 -955 -2 -41 13
-302 19 -335 3 -19 -2 -43 -14 -65 -18 -32 -18 -37 -3 -59 8 -13 16 -45 17
-70 6 -142 15 -567 19 -921 7 -609 15 -929 24 -985 5 -27 10 -169 10 -314 1
-145 3 -267 6 -270 2 -4 -3 -67 -10 -140 -14 -126 -17 -203 -16 -316 0 -49 19
-350 26 -410 2 -16 -1 -38 -6 -47 -6 -11 -6 -24 0 -35 34 -66 46 -419 15 -454
-19 -21 -18 -72 6 -211 17 -101 25 -238 29 -485 1 -43 4 -53 22 -58 50 -16 56
52 34 340 -3 39 -2 76 3 84 6 8 43 16 103 21 52 5 144 15 204 23 61 8 164 20
230 26 66 7 149 16 185 22 176 26 319 39 427 39 65 0 165 4 223 10 58 5 209
12 335 15 387 9 506 14 616 25 58 6 235 10 395 9 159 -2 327 -1 374 1 l85 3 7
-49 c3 -27 7 -100 7 -162 1 -95 8 -138 26 -160 2 -2 13 1 25 8 20 11 21 15 14
184 -6 154 -5 174 9 179 14 5 845 0 1367 -8 834 -13 1016 -17 1022 -24 4 -3 9
-85 10 -180 3 -152 5 -175 20 -185 36 -22 41 4 39 188 -2 118 1 176 9 181 6 4
117 9 248 11 130 2 368 9 527 14 683 23 1590 29 1607 12 5 -5 11 -93 12 -196
3 -163 6 -190 22 -207 9 -11 22 -18 28 -16 7 2 11 72 11 200 0 117 4 200 10
206 10 9 47 5 170 -19 56 -10 100 -15 265 -30 63 -6 135 -13 160 -15 205 -19
820 -22 926 -4 63 10 248 12 754 6 l145 -2 1 -125 c0 -69 4 -143 8 -165 8 -39
30 -75 48 -75 18 0 25 45 12 87 -7 24 -11 65 -9 91 2 26 7 82 10 125 3 44 11
88 18 98 18 29 -26 62 -68 53 -16 -4 -160 -6 -320 -5 -159 2 -371 -3 -470 -9
-99 -6 -216 -13 -260 -16 -95 -5 -371 -4 -470 1 -196 11 -269 16 -279 22 -6 4
-40 6 -76 5 -35 -2 -85 2 -110 7 -25 6 -81 12 -125 14 -44 3 -114 12 -155 21
-153 32 -391 47 -640 40 -129 -3 -415 -7 -635 -9 -220 -1 -521 -7 -670 -14
-335 -14 -1123 -20 -1305 -10 -463 25 -2526 35 -2790 13 -161 -14 -450 -25
-610 -24 -63 0 -171 -4 -240 -10 -69 -6 -215 -15 -325 -19 -188 -8 -252 -14
-450 -42 -44 -6 -120 -15 -170 -19 -108 -10 -220 -26 -232 -33 -12 -8 -173
-21 -257 -21 -69 -1 -70 -1 -78 29 -23 80 -24 110 -5 125 17 14 19 33 20 233
l1 217 24 0 c12 0 34 -7 47 -16 23 -15 41 -19 120 -26 41 -4 48 29 8 37 -97
21 -130 31 -142 43 -8 8 -24 11 -42 7 -28 -6 -29 -5 -28 32 1 21 -6 94 -14
163 -23 184 -28 329 -16 470 22 249 26 749 8 905 -6 55 -13 260 -15 455 -10
1110 -13 1367 -20 1387 -7 25 2 73 14 73 4 0 7 -15 7 -32 0 -43 30 -51 45 -12
15 38 21 26 25 -46 3 -70 15 -90 36 -64 9 11 15 44 16 88 3 110 3 115 14 81 4
-16 14 -82 21 -147 10 -96 15 -118 29 -121 12 -3 19 -17 21 -43 2 -26 8 -40
19 -42 27 -5 39 49 33 151 -3 59 -2 87 4 77 12 -19 52 -193 52 -226 0 -14 7
-27 15 -31 21 -7 44 24 45 61 0 49 12 21 14 -36 2 -41 7 -54 21 -56 28 -6 38
14 36 72 -1 30 3 57 9 61 6 4 10 -9 11 -32 2 -135 7 -210 14 -225 10 -24 36
-23 42 2 8 29 21 25 25 -7 2 -21 9 -29 27 -31 l24 -4 -7 141 c-5 91 -4 141 3
141 9 0 27 -57 23 -73 -4 -15 31 -121 45 -137 11 -12 15 -12 31 3 13 14 17 37
19 110 3 165 2 162 13 151 6 -6 13 -46 17 -90 3 -43 10 -85 16 -92 20 -25 37
16 37 90 0 65 15 93 24 46 20 -97 40 -169 49 -175 5 -3 17 3 24 13 11 14 13
37 9 92 -4 44 -2 72 4 72 6 0 10 -15 10 -33 0 -18 6 -53 14 -78 8 -24 17 -56
20 -71 8 -35 19 -35 35 -1 9 20 12 75 10 188 -3 153 4 197 23 130 4 -16 11
-61 14 -100 3 -38 11 -97 18 -129 10 -54 13 -58 27 -43 22 21 31 85 20 143 -4
27 -5 76 -1 109 4 33 8 49 9 35 2 -14 4 -36 7 -50 6 -39 15 -122 17 -155 2
-31 13 -55 26 -55 21 0 31 73 25 177 -6 102 -5 107 10 86 13 -17 17 -45 17
-112 0 -56 5 -95 13 -106 28 -38 49 12 62 145 8 92 19 73 36 -66 10 -88 13
-94 34 -94 18 0 25 8 33 38 8 31 20 181 21 258 0 12 7 27 15 34 12 10 15 9 15
-8 0 -12 7 -47 15 -78 8 -31 12 -61 9 -66 -9 -15 5 -76 22 -93 19 -18 32 -12
44 21 15 38 30 28 30 -20 0 -54 22 -68 47 -29 16 25 29 145 33 308 1 47 1 49
16 30 12 -15 15 -35 10 -81 -3 -38 -1 -65 6 -72 8 -8 8 -15 1 -24 -7 -9 -8
-34 -1 -78 5 -36 7 -75 5 -88 -6 -33 25 -47 51 -24 22 18 28 77 37 352 4 140
4 136 14 125 13 -14 22 -92 24 -207 1 -53 4 -98 7 -101 3 -2 15 -8 27 -11 33
-10 43 22 60 192 7 78 17 159 22 180 l8 37 14 -30 c14 -32 15 -42 20 -142 1
-35 7 -63 11 -63 5 0 6 -6 2 -12 -12 -19 -7 -87 6 -103 18 -21 29 -18 42 10
18 41 30 29 27 -30 -3 -72 10 -87 51 -57 l30 23 0 -39 c0 -50 24 -74 45 -46
22 31 26 68 32 293 2 117 8 223 13 235 8 18 9 17 9 -12 1 -18 7 -35 14 -37 8
-4 12 -39 13 -126 1 -108 3 -122 22 -141 l21 -22 11 28 c5 15 11 35 12 44 0 9
4 -3 7 -28 6 -41 8 -45 37 -48 28 -3 32 1 42 35 6 21 14 50 17 66 3 15 10 27
15 27 9 0 7 -19 -10 -103 -4 -21 -6 -46 -3 -57 5 -20 37 -34 63 -28 8 2 14 -5
15 -17 0 -15 8 -21 31 -23 28 -3 32 1 42 35 7 21 13 61 15 88 2 45 4 50 24 47
14 -2 27 5 38 22 18 28 37 178 28 231 -3 21 -1 35 5 35 14 0 20 -32 15 -83 -7
-61 10 -91 48 -83 l29 6 0 -60 c0 -50 3 -60 20 -65 11 -4 33 -20 49 -37 31
-34 59 -33 68 2 9 33 24 23 18 -12 -10 -54 3 -104 31 -118 22 -12 26 -11 40 8
20 29 32 28 32 -5 0 -29 26 -55 48 -46 24 9 45 60 48 120 6 107 21 63 24 -69
3 -131 8 -147 40 -148 7 0 24 12 38 27 19 21 23 33 18 56 -5 22 -3 28 7 25 11
-4 13 -27 11 -100 -3 -104 6 -126 51 -115 16 5 26 19 36 52 7 25 18 45 23 45
6 0 7 -8 3 -17 -4 -10 -8 -34 -9 -53 -3 -75 75 -31 88 49 10 63 17 44 18 -46
0 -79 6 -93 40 -93 19 0 58 67 58 100 0 11 7 20 15 20 9 0 12 -6 9 -15 -3 -8
-7 -37 -7 -65 -2 -46 0 -51 22 -57 19 -5 30 0 48 21 31 36 36 20 30 -84 -5
-78 -4 -80 19 -86 38 -10 71 18 79 68 7 42 14 110 15 156 0 31 13 28 29 -8 10
-24 10 -34 1 -45 -9 -11 -9 -22 -1 -46 6 -17 8 -35 6 -40 -8 -12 33 -31 54
-24 24 7 49 67 55 135 3 30 9 71 14 90 12 54 27 18 25 -61 -2 -61 0 -67 20
-73 12 -3 25 -6 29 -6 16 0 36 60 48 143 8 60 16 87 25 87 8 0 14 -8 13 -17 0
-15 15 -74 38 -152 3 -11 7 -11 19 -1 11 9 15 33 15 86 0 43 4 74 10 74 6 0
10 -8 10 -18 0 -10 5 -23 11 -29 6 -6 13 -33 16 -59 3 -27 7 -51 9 -54 10 -9
39 18 42 39 2 15 11 21 27 21 15 0 26 7 30 20 4 13 15 20 30 20 14 0 29 9 35
20 9 17 14 18 30 8 15 -10 22 -10 32 0 6 6 22 12 34 12 26 0 54 39 54 75 0 18
5 25 18 25 24 0 51 29 62 66 l8 29 1 -30 c2 -46 12 -75 27 -75 16 0 44 50 44
80 0 37 20 21 21 -17 2 -95 11 -109 44 -71 23 27 30 58 41 196 4 45 9 82 13
82 3 0 7 -39 9 -87 3 -106 8 -123 32 -123 27 0 47 36 55 98 5 41 10 52 22 48
8 -3 17 -6 19 -6 3 0 2 -5 -1 -10 -4 -6 -1 -17 5 -25 20 -24 48 3 56 52 5 37
10 43 30 43 40 0 54 53 55 207 0 98 4 133 12 130 7 -2 12 -10 12 -18 1 -8 5
-48 10 -89 5 -41 8 -78 7 -81 0 -3 -4 -42 -7 -85 -4 -43 -8 -81 -10 -84 -8
-12 14 -33 28 -27 16 6 31 46 42 112 l7 40 15 -35 14 -35 24 30 c20 24 25 26
30 13 4 -10 4 -21 2 -25 -3 -5 3 -20 14 -33 19 -24 20 -24 34 -6 8 10 16 24
18 30 8 22 16 0 22 -64 7 -71 14 -84 37 -75 24 9 36 47 44 129 4 42 11 76 15
76 12 0 23 -46 14 -59 -3 -6 -3 -16 0 -21 4 -6 7 -46 9 -89 2 -87 16 -117 46
-101 25 13 39 61 53 181 13 108 34 145 35 62 0 -26 4 -88 9 -138 13 -121 24
-145 53 -110 22 27 43 18 38 -15 -3 -17 -1 -33 4 -36 17 -10 48 8 54 32 9 35
22 29 29 -13 14 -91 31 -111 59 -69 18 28 46 160 46 219 0 25 4 37 14 37 11 0
13 -18 10 -92 -2 -51 -6 -109 -8 -128 -3 -32 7 -86 18 -97 10 -10 46 34 52 64
14 74 36 15 24 -64 -9 -55 -6 -63 19 -63 25 0 43 24 50 68 4 20 11 37 16 37
12 0 24 -104 13 -111 -11 -7 -10 -66 1 -83 5 -8 16 -11 30 -6 18 6 20 3 15
-22 -4 -21 0 -31 15 -41 30 -18 68 9 80 57 10 44 30 139 33 165 2 11 8 21 14
23 17 6 24 -59 18 -168 -5 -94 -5 -95 20 -107 22 -10 28 -8 45 14 19 25 24 40
36 119 5 36 9 41 33 40 17 0 30 7 38 23 17 34 20 35 49 16 27 -17 28 -17 46 7
10 13 19 35 21 48 4 34 26 38 38 6 8 -22 13 -24 30 -15 40 21 52 80 74 343 4
37 13 43 22 15 7 -21 9 -248 2 -277 -2 -7 5 -18 14 -24 36 -24 81 65 79 156 0
9 4 17 10 17 5 0 9 -7 9 -15 0 -9 7 -18 15 -21 11 -4 12 -10 6 -18 -5 -6 -13
-34 -16 -62 -8 -57 8 -81 45 -69 34 11 42 42 53 207 1 16 7 28 12 28 6 -1 9
-9 7 -19 -3 -21 37 -42 66 -35 26 7 42 64 53 193 9 98 19 146 19 89 0 -14 9
-37 21 -51 17 -22 23 -25 39 -15 35 22 50 85 51 211 0 64 5 117 9 117 14 0 32
-78 22 -96 -4 -8 -5 -38 -1 -67 4 -29 8 -77 8 -108 1 -65 18 -95 48 -85 31 10
41 51 38 159 -3 90 4 123 20 96 4 -6 9 -38 11 -71 4 -64 16 -88 44 -88 30 0
37 21 43 122 6 109 21 156 31 98 3 -19 7 -53 8 -75 2 -32 7 -41 24 -43 37 -5
57 30 58 108 1 66 3 72 29 88 26 16 32 34 27 90 -1 15 4 22 17 22 15 0 18 -9
20 -48 1 -26 13 -90 26 -142 14 -52 28 -112 31 -132 5 -29 12 -38 27 -38 11 0
23 10 28 23 5 12 13 33 18 46 9 25 10 24 33 -17 35 -63 59 -55 83 28 10 36 22
69 26 73 9 9 51 -117 51 -153 0 -36 36 -90 60 -90 11 0 20 5 20 10 0 6 5 10
10 10 6 0 10 -5 10 -12 0 -7 7 -32 17 -56 14 -38 19 -42 42 -37 39 8 83 -65
88 -149 6 -79 17 -90 51 -48 33 40 46 41 39 3 -4 -21 -1 -34 13 -46 18 -16 20
-16 42 6 23 23 35 69 53 212 6 45 17 58 30 37 4 -6 2 -17 -4 -24 -8 -9 -7 -22
5 -45 14 -27 18 -30 31 -19 9 7 22 28 30 47 10 23 18 30 25 23 15 -15 29 -134
28 -242 0 -112 7 -130 44 -110 14 7 26 22 26 32 0 10 7 18 15 18 9 0 15 -9 15
-24 0 -13 7 -29 15 -36 13 -11 18 -10 31 6 25 32 34 63 34 120 0 30 4 54 10
54 13 0 18 -14 24 -65 2 -22 10 -55 16 -73 9 -25 9 -36 0 -47 -10 -12 -10 -18
1 -31 7 -9 12 -35 10 -64 -1 -26 2 -51 7 -54 32 -20 67 44 76 140 7 78 14 94
38 94 36 0 58 19 58 50 0 16 4 31 9 34 5 3 12 31 16 62 l7 56 22 -21 c30 -28
40 -27 71 10 14 17 27 30 29 28 2 -2 6 -26 9 -52 6 -48 21 -77 39 -77 19 0 58
50 58 74 0 14 5 37 11 53 9 25 11 26 20 10 6 -10 8 -30 4 -46 -4 -20 0 -35 14
-52 l19 -24 31 29 c19 18 31 40 31 55 0 14 7 51 15 81 8 30 15 72 15 92 0 20
4 39 9 43 16 9 31 -31 31 -83 0 -33 5 -54 16 -62 34 -29 55 31 69 205 9 103 9
105 19 103 5 -2 10 -31 11 -65 3 -68 20 -123 40 -123 32 0 48 40 63 165 16
124 31 156 39 80 2 -22 5 -52 7 -67 6 -56 48 -77 68 -33 17 38 25 31 34 -32 8
-50 12 -58 32 -61 31 -5 52 48 52 133 0 42 4 64 10 60 6 -3 10 -23 10 -44 0
-23 8 -48 19 -62 l19 -24 25 23 c27 26 44 109 49 249 2 59 6 73 19 73 19 0 49
31 49 52 0 16 78 83 87 75 2 -3 7 -25 10 -49 10 -87 48 -116 78 -59 8 16 24
32 35 36 28 9 50 44 55 91 3 21 7 40 10 42 10 10 25 -12 25 -38 0 -29 19 -44
44 -34 17 6 32 43 41 99 6 33 8 37 17 21 5 -9 7 -28 4 -40 -3 -13 -3 -26 0
-29 4 -3 8 -27 10 -53 5 -63 16 -72 46 -35 l25 29 7 -51 c4 -29 9 -77 11 -108
3 -31 9 -69 15 -85 l11 -27 16 22 c21 31 35 14 35 -43 1 -25 7 -51 14 -57 18
-15 52 9 60 44 12 56 29 22 30 -61 1 -101 26 -140 60 -94 19 24 18 126 -1 142
-8 7 -15 22 -15 35 0 12 -2 24 -5 27 -3 3 -8 58 -11 123 -5 129 -21 173 -53
153 -11 -7 -17 -24 -18 -52 -2 -75 -8 -115 -20 -127 -13 -13 -29 91 -39 254
-5 81 -11 114 -24 130 -15 18 -20 19 -34 8 -14 -12 -16 -10 -16 13 0 43 -28
88 -50 81 -12 -4 -22 0 -29 12 -16 29 -43 4 -58 -54 -7 -27 -19 -62 -27 -77
-15 -30 -17 -28 -31 42 -9 42 -39 43 -60 3 -25 -49 -32 -43 -31 24 1 77 -11
95 -50 75 -22 -12 -25 -20 -23 -55 3 -58 0 -77 -9 -71 -12 7 -30 97 -37 181
-7 80 -23 153 -36 161 -34 21 -81 -54 -79 -128 1 -24 -1 -63 -4 -88 -2 -25 -5
-65 -5 -90 l-1 -45 -20 25 c-16 20 -22 23 -37 14 -20 -12 -21 -20 -27 -174 -5
-99 -23 -226 -32 -217 -3 2 -7 33 -9 68 -8 101 -15 148 -26 154 -19 13 -50 -7
-56 -36 -7 -37 -21 -38 -25 -1 -3 23 -8 27 -33 27 -28 0 -31 -3 -38 -45 -4
-25 -10 -65 -11 -90 -5 -61 -5 -60 -15 -60 -5 0 -11 38 -12 85 -4 94 -13 111
-50 96 -21 -8 -26 -19 -36 -82 -7 -41 -15 -106 -18 -145 -3 -39 -10 -84 -14
-100 l-8 -29 -6 30 c-4 17 -6 37 -5 45 4 44 -3 157 -11 169 -6 9 -18 11 -34 7
-26 -6 -24 0 -42 -146 -3 -25 -8 -61 -11 -80 -3 -19 -5 -43 -5 -52 0 -10 -4
-20 -10 -23 -5 -4 -9 7 -9 22 0 16 -6 37 -13 46 -11 15 -15 16 -31 4 -24 -17
-43 -88 -65 -232 -13 -90 -19 -110 -34 -113 -14 -3 -17 1 -12 20 8 35 13 250
5 278 -7 28 -41 38 -58 18 -6 -8 -14 -41 -17 -73 -3 -33 -8 -73 -12 -90 -3
-16 -7 -43 -9 -60 -5 -62 -17 -115 -25 -115 -5 0 -10 8 -11 18 -2 24 -5 96 -6
163 -2 71 -26 107 -56 84 -13 -10 -22 -34 -28 -77 -11 -83 -24 -92 -31 -22 -6
60 -20 78 -47 64 -16 -8 -26 -46 -57 -225 -18 -97 -18 -99 -25 -55 -3 25 -7
71 -7 103 -1 60 -17 81 -45 58 -13 -11 -30 -223 -27 -337 1 -35 -4 -55 -14
-64 -9 -7 -17 -11 -19 -9 -2 2 -7 36 -10 74 -15 177 -19 210 -30 254 -8 33
-17 47 -31 49 -11 2 -28 11 -38 20 -14 12 -22 14 -35 6 -18 -12 -39 -94 -41
-158 -1 -42 -20 -106 -32 -106 -11 0 -18 59 -24 200 -6 180 -16 279 -26 285
-16 10 -49 -20 -49 -45 0 -14 -7 -34 -15 -44 -14 -19 -15 -18 -15 16 0 53 -11
98 -24 98 -34 -1 -39 -25 -51 -225 -2 -33 -9 -73 -15 -90 -7 -16 -18 -50 -25
-75 l-13 -45 -2 70 c-1 39 -4 139 -5 224 -2 85 -8 158 -14 164 -29 29 -68 -56
-46 -101 9 -17 9 -34 -1 -74 -8 -29 -11 -60 -8 -70 6 -22 -4 -78 -15 -78 -4 0
-5 71 -3 159 3 106 1 161 -6 165 -6 4 -36 7 -65 8 l-55 1 -6 45 c-3 25 -6 60
-6 78 0 38 -5 41 -32 17 -10 -9 -28 -21 -41 -27 -12 -7 -23 -20 -23 -31 -1
-11 -6 -31 -12 -45 -5 -14 -6 -34 -2 -45 4 -11 3 -29 -3 -40 -10 -19 -10 -19
-18 0 -12 31 -10 191 2 240 16 62 6 91 -31 98 -51 11 -47 18 -55 -128 -3 -55
-9 -111 -14 -125 -5 -14 -12 -37 -15 -52 -4 -16 -10 -28 -15 -28 -20 0 -33 65
-38 197 -3 79 -10 146 -15 149 -15 9 -38 -17 -38 -42 0 -12 -5 -26 -10 -29 -6
-4 -8 -38 -3 -92 5 -64 3 -84 -5 -79 -7 4 -12 15 -12 25 0 10 -11 26 -25 35
-18 12 -25 25 -25 49 0 19 -6 56 -14 83 -8 27 -17 62 -20 77 -6 25 -11 28 -39
25 -31 -3 -32 -5 -40 -63 -5 -33 -10 -61 -12 -63 -2 -2 -12 2 -23 9 -32 20
-52 -3 -52 -62 0 -41 -3 -49 -18 -49 -42 0 -82 -79 -82 -161 0 -12 -4 -17 -11
-14 -6 4 -8 13 -5 21 3 7 1 16 -4 19 -5 3 -9 20 -8 38 2 49 -20 107 -41 107
-27 0 -51 -33 -51 -68 0 -18 -4 -32 -10 -32 -5 0 -10 12 -10 28 0 78 -29 118
-69 93 -19 -12 -38 -94 -40 -176 -3 -90 -16 -104 -25 -24 -9 91 -26 139 -47
139 -38 0 -46 -37 -54 -235 -4 -104 -7 -207 -6 -227 0 -21 -4 -38 -9 -38 -13
0 -11 -15 -16 135 -3 72 -7 141 -9 155 -2 14 -4 35 -4 48 -1 17 -7 22 -30 22
-27 0 -29 -3 -35 -52 -4 -29 -9 -69 -11 -88 -1 -19 -6 -73 -11 -120 l-8 -85
-13 79 c-6 43 -14 81 -17 84 -3 3 -17 0 -30 -6 -25 -11 -42 -71 -24 -83 7 -4
6 -9 -1 -13 -6 -4 -11 -22 -11 -39 -1 -18 -7 -43 -14 -56 l-13 -23 -7 32 c-3
18 -6 50 -6 70 0 53 -8 70 -35 70 -27 0 -67 -59 -55 -81 4 -8 -1 -34 -10 -58
-18 -48 -30 -39 -30 24 0 39 -10 48 -44 39 -18 -4 -27 -15 -31 -37 -11 -54
-16 -67 -26 -67 -5 0 -9 9 -9 19 0 27 -13 33 -44 21 -16 -6 -26 -17 -26 -29 0
-22 -17 -37 -40 -33 -25 3 -38 -11 -44 -53 -4 -22 -9 -53 -11 -70 -3 -16 -7
-73 -9 -125 -4 -90 -19 -160 -33 -147 -3 4 -5 75 -5 160 0 84 -3 159 -8 166
-4 8 -16 11 -27 7 -20 -7 -57 -110 -51 -149 1 -12 -4 -37 -11 -54 -7 -18 -11
-39 -8 -47 7 -19 -23 -81 -33 -69 -11 11 -16 90 -7 99 4 4 7 63 7 131 0 94 -3
123 -13 123 -21 0 -37 -22 -37 -51 0 -39 -11 -89 -20 -89 -4 0 -7 17 -7 38 1
118 -3 144 -20 140 -24 -5 -43 -45 -43 -95 0 -30 -4 -43 -14 -43 -11 0 -14 25
-15 121 -1 119 -7 169 -20 169 -17 -1 -31 -18 -25 -34 6 -16 -20 -56 -36 -56
-4 0 -10 48 -13 106 -2 58 -7 108 -10 111 -3 2 -13 0 -23 -5 -25 -14 -42 -79
-32 -120 6 -19 5 -47 -1 -69 -6 -20 -8 -40 -5 -44 6 -10 -17 -99 -32 -122 -9
-14 -12 1 -17 74 -4 51 -7 126 -7 168 0 97 -11 116 -45 79 -27 -31 -35 -34
-35 -15 0 23 -21 37 -41 26 -13 -6 -19 -21 -19 -42 1 -58 -2 -81 -13 -129 -12
-53 -23 -55 -26 -6 -3 67 -8 185 -10 248 -1 41 -7 72 -17 85 -15 20 -15 20
-34 -2 -14 -18 -18 -42 -19 -125 -2 -71 -9 -131 -25 -193 -13 -49 -22 -95 -19
-102 3 -7 1 -13 -4 -13 -11 0 -23 119 -28 276 -1 56 -8 111 -15 123 -11 22
-12 22 -32 5 -15 -14 -19 -28 -16 -59 2 -22 -1 -55 -8 -74 -8 -25 -9 -41 -1
-58 8 -19 7 -27 -6 -40 -9 -9 -19 -15 -21 -12 -3 2 -7 52 -11 109 -9 154 -14
190 -31 197 -24 9 -38 -13 -40 -64 -2 -63 -2 -63 -14 -63 -6 0 -10 10 -9 23 1
12 1 56 1 98 -2 85 -15 102 -58 74 -29 -19 -34 -19 -34 -1 0 29 -20 27 -38 -3
-21 -37 -28 -39 -36 -6 -13 50 -60 17 -64 -45 -6 -77 -22 -113 -35 -77 -3 9
-9 8 -22 -5 -15 -13 -18 -34 -19 -102 -1 -46 -5 -88 -9 -92 -6 -7 -11 21 -9
56 0 7 -6 27 -15 43 l-15 30 -20 -21 c-17 -17 -23 -44 -35 -153 -7 -73 -15
-135 -18 -137 -11 -12 -15 10 -19 107 -5 110 -20 171 -41 171 -22 0 -26 -15
-31 -98 -5 -107 -14 -171 -25 -178 -10 -6 -10 -8 -14 104 -3 76 -14 112 -36
112 -20 0 -38 -33 -37 -71 0 -22 -5 -46 -11 -52 -8 -8 -11 -3 -11 19 0 17 -6
39 -14 49 -17 24 -46 13 -46 -18 0 -14 -3 -38 -6 -55 l-6 -31 -18 22 c-15 19
-20 20 -35 7 -13 -11 -16 -28 -14 -79 1 -36 1 -76 0 -88 -2 -36 -21 -27 -22
10 -2 51 -13 82 -33 85 -18 4 -18 -1 -12 -59 9 -68 8 -130 0 -138 -12 -12 -22
26 -27 106 -5 91 -24 130 -49 105 -10 -10 -10 -17 0 -32 8 -13 8 -21 1 -26 -7
-4 -8 -23 -4 -49 3 -26 2 -46 -5 -50 -12 -7 -11 -11 -13 77 -3 70 -15 95 -42
85 -10 -4 -14 -14 -11 -29 3 -13 7 -72 10 -131 4 -82 2 -107 -7 -104 -7 2 -17
26 -23 53 -6 31 -16 50 -26 52 -23 4 -30 -26 -24 -108 5 -71 -6 -89 -18 -29
-7 34 -23 59 -38 59 -5 0 -16 -16 -24 -35 -20 -48 -38 -46 -29 3 5 29 2 42 -9
52 -9 7 -16 19 -16 26 0 38 -46 -1 -54 -46 -3 -19 -9 -52 -12 -72 -8 -46 -24
-50 -24 -7 0 56 -23 174 -36 189 -26 27 -43 -8 -53 -110 -4 -52 -9 -104 -9
-115 -1 -51 -29 -179 -40 -183 -7 -2 -12 0 -13 5 0 4 -2 30 -5 56 -3 26 -8
104 -13 173 -8 134 -18 159 -50 130 -14 -13 -21 -38 -27 -94 -4 -43 -8 -81 -9
-87 -1 -5 -3 -29 -3 -52 -3 -74 -17 -47 -18 35 -1 104 -11 142 -34 142 -10 0
-26 -10 -34 -22 -22 -31 -29 -17 -27 53 2 76 -5 99 -29 99 -29 0 -48 -39 -48
-96 1 -28 -2 -55 -5 -61 -3 -5 -9 -32 -13 -60 -6 -52 -19 -82 -29 -72 -3 3 -7
77 -9 163 -2 87 -8 162 -14 168 -13 13 -51 -37 -45 -61 6 -23 -16 -39 -28 -20
-5 8 -6 30 -3 49 6 35 -9 90 -23 90 -28 -1 -34 -16 -48 -125 -14 -119 -17
-141 -16 -157 0 -21 -17 -34 -30 -21 -5 5 -9 86 -10 181 -1 160 -3 173 -21
183 -24 13 -52 4 -45 -14 3 -8 1 -36 -4 -63 -5 -27 -10 -84 -11 -126 -2 -55
-6 -79 -16 -83 -10 -4 -13 4 -12 33 1 20 1 42 -1 47 -1 6 -3 33 -4 60 -4 127
-18 265 -29 280 -10 13 -14 14 -30 2 -14 -10 -20 -29 -22 -73 -5 -97 -16 -174
-25 -174 -5 0 -9 3 -10 8 0 4 -2 67 -4 139 -2 73 -9 142 -15 153 -13 25 -49
27 -49 3 -1 -22 -9 -149 -14 -221 -4 -49 -16 -84 -18 -51 0 8 -2 25 -4 39 -2
14 -8 63 -13 110 -14 113 -18 123 -52 116 -26 -5 -28 -2 -33 35 -6 47 -9 51
-29 44 -10 -4 -18 -26 -23 -58 -9 -63 -21 -42 -24 43 -3 68 -19 104 -49 108
-16 2 -27 14 -34 33 -11 33 -43 40 -52 12 -3 -10 -8 -52 -12 -93 -3 -41 -8
-77 -10 -79 -2 -2 -12 7 -23 20 -19 23 -21 23 -37 7 -14 -13 -18 -35 -19 -88
-1 -40 -6 -75 -13 -82 -7 -7 -12 -10 -13 -7 0 2 -2 24 -4 49 -3 60 -13 90 -30
90 -7 0 -16 -11 -19 -25 -4 -14 -10 -25 -15 -25 -9 0 -21 48 -21 87 0 13 -7
26 -15 29 -25 10 -44 -22 -49 -81 -3 -31 -7 -59 -9 -61 -2 -3 -7 27 -11 65 -7
73 -14 85 -39 75 -16 -6 -32 -101 -28 -163 2 -22 -1 -32 -9 -29 -6 2 -13 30
-15 65 -2 34 -8 71 -14 82 -6 11 -11 29 -11 40 0 23 -22 28 -37 9 -20 -28 -33
-87 -28 -126 3 -25 1 -42 -5 -42 -5 0 -13 0 -17 0 -5 0 -9 9 -9 20 -2 28 -9
33 -33 25 -14 -4 -21 -15 -21 -30 0 -34 -21 -43 -38 -17 -24 36 -40 27 -47
-25 -14 -101 -28 -107 -40 -17 -12 98 -37 128 -67 82 -14 -22 -19 -50 -38
-223 -5 -44 -9 -82 -9 -84 -1 -3 -5 -1 -10 5 -6 5 -14 34 -20 64 -19 104 -28
140 -41 155 -36 44 -57 -12 -64 -175 -3 -74 -6 -146 -7 -160 0 -14 -12 39 -25
117 -30 178 -37 197 -63 183 -21 -11 -31 -56 -32 -145 -1 -169 -17 -159 -28
19 -6 93 -13 132 -24 143 -13 14 -17 13 -30 -8 -11 -17 -15 -46 -13 -97 1 -40
-2 -76 -6 -78 -4 -3 -8 -24 -9 -47 l0 -42 -15 53 c-19 71 -32 94 -52 90 -21
-4 -40 -59 -48 -141 -4 -34 -8 -71 -10 -82 -1 -11 -3 -24 -3 -29 -2 -25 -19
15 -31 71 -15 73 -30 99 -54 90 -12 -5 -16 -19 -16 -55 0 -32 -5 -54 -15 -62
-8 -7 -15 -11 -16 -9 0 2 -2 28 -5 58 -3 32 -13 66 -25 83 l-21 29 -24 -22
c-22 -21 -24 -21 -30 -3 -16 51 -25 64 -44 64 -21 0 -24 -11 -21 -85 1 -22 -3
-53 -8 -70 l-9 -30 -1 37 c-1 20 -5 40 -11 43 -5 3 -10 14 -10 23 0 9 -9 27
-18 40 -31 40 -41 10 -43 -136 -3 -163 -12 -173 -35 -37 -9 53 -12 57 -34 45
-15 -8 -18 -21 -18 -80 0 -39 -2 -74 -6 -78 -10 -9 -26 19 -26 47 0 14 -10 45
-22 69 -20 41 -22 43 -35 27 -7 -11 -13 -33 -14 -49 l0 -31 -22 43 c-23 46
-51 56 -62 21 -9 -29 -10 -209 0 -237 6 -20 4 -23 -12 -20 -12 2 -19 13 -20
33 -1 17 -6 48 -12 69 -5 22 -8 43 -6 46 13 20 -40 150 -61 150 -17 0 -23 -26
-27 -110 -2 -66 -6 -66 -26 5 -16 57 -47 92 -69 78 -9 -6 -17 -22 -17 -37 1
-15 -5 -26 -13 -26 -9 0 -11 7 -7 19 3 11 1 22 -5 26 -5 3 -10 27 -10 53 0 60
-18 124 -33 119 -16 -5 -25 -41 -27 -107 -4 -104 -14 -112 -32 -25 -10 44 -22
110 -29 147 -11 67 -28 96 -49 83 -7 -4 -9 -32 -5 -81 4 -50 3 -74 -4 -74 -6
0 -11 6 -12 13 -2 34 -10 53 -27 68 -14 11 -24 41 -35 112 -8 53 -22 106 -30
118 -15 21 -15 21 -32 1 -10 -11 -25 -18 -36 -15 -20 6 -24 0 -34 -62 l-7 -40
-15 40 c-11 30 -14 80 -12 200 2 88 0 185 -4 215 -3 30 -9 213 -12 405 -7 508
-15 733 -26 792 -11 54 -30 83 -54 83 -12 0 -14 -27 -10 -157z m2687 -1610 c6
-23 -1 -45 -13 -37 -12 7 -12 54 0 54 5 0 11 -8 13 -17z m3418 -38 c0 -8 0
-18 1 -22 0 -4 -4 -9 -10 -11 -6 -2 -11 8 -11 22 0 14 5 26 10 26 6 0 10 -7
10 -15z m603 -141 c-3 -21 0 -45 8 -60 8 -17 10 -28 3 -32 -6 -4 -10 -38 -11
-77 0 -53 -4 -71 -15 -73 -16 -3 -16 4 -4 177 6 76 11 101 21 101 2 0 1 -16
-2 -36z m-3120 -41 c4 -3 2 -12 -3 -19 -6 -6 -9 -16 -8 -22 2 -5 0 -10 -4 -11
-5 -1 -8 1 -8 4 0 3 0 16 0 30 0 24 10 32 23 18z m3208 -66 c-13 -13 -15 31
-3 60 5 14 8 10 10 -16 2 -18 -1 -38 -7 -44z"/>
<path d="M493 7668 c-6 -8 -9 -64 -7 -130 l3 -117 -54 -6 c-84 -11 -89 -7 -80
73 3 37 11 83 16 103 12 47 3 71 -25 67 -33 -5 -46 -48 -51 -170 -3 -100 -2
-116 15 -136 18 -22 24 -23 99 -17 l79 7 3 -90 c4 -94 13 -117 42 -106 14 5
17 22 17 105 0 98 0 100 26 109 34 13 40 8 47 -39 2 -21 11 -51 18 -67 33 -68
136 -97 179 -51 75 79 75 205 1 304 -45 59 -79 77 -131 68 -44 -7 -67 -34 -72
-85 -2 -19 -11 -38 -23 -46 -37 -24 -45 -5 -47 112 -1 62 -7 112 -13 116 -15
11 -31 10 -42 -4z m269 -180 c52 -47 74 -159 43 -218 -9 -17 -17 -30 -19 -30
-3 0 -11 -3 -20 -6 -11 -4 -16 0 -16 14 0 13 -11 26 -27 34 -32 15 -40 42 -42
139 -1 90 28 114 81 67z"/>
<path d="M965 7576 c-46 -20 -69 -62 -67 -121 9 -227 11 -231 86 -265 67 -31
149 10 191 94 43 86 30 159 -44 239 -30 32 -54 48 -86 56 -52 13 -43 13 -80
-3z m93 -67 c43 -15 95 -94 88 -133 -3 -16 -6 -34 -6 -41 0 -22 -96 -105 -121
-105 -3 0 -4 14 -1 30 3 21 0 30 -10 30 -36 0 -49 24 -53 103 -4 73 -2 81 20
103 27 27 38 29 83 13z"/>
<path d="M9819 5133 c-46 -54 -95 -107 -108 -118 -39 -32 -91 -86 -91 -93 0
-17 40 -31 63 -23 18 7 38 3 80 -16 55 -25 57 -27 57 -64 0 -64 -95 -235 -185
-334 -75 -83 -85 -101 -64 -122 13 -13 36 -7 63 16 30 26 136 170 171 232 34
59 78 187 73 210 -2 10 11 15 51 17 47 3 57 0 82 -24 40 -38 61 -27 53 28 -4
24 -12 50 -19 58 -7 8 -18 33 -24 55 -7 22 -19 64 -29 93 -15 49 -15 54 1 82
23 38 9 70 -30 70 -15 0 -34 7 -43 15 -15 14 -24 7 -101 -82z"/>
<path d="M3034 4856 c-14 -37 20 -59 56 -36 12 7 12 13 4 27 -15 24 -52 29
-60 9z"/>
<path d="M9665 4309 c-95 -52 -199 -147 -216 -196 -11 -35 -4 -56 30 -87 33
-30 101 -15 144 33 19 22 38 48 42 60 3 12 10 21 14 21 14 0 42 -106 53 -207
11 -96 13 -103 34 -103 13 0 25 4 28 9 8 12 -21 182 -49 288 -14 51 -25 115
-25 143 0 54 -12 62 -55 39z m-25 -114 c0 -25 -26 -79 -47 -97 -11 -10 -34
-21 -51 -24 -65 -13 -46 51 32 106 46 33 66 37 66 15z"/>
<path d="M9309 4270 c-93 -35 -163 -116 -142 -163 15 -33 83 -76 134 -85 l44
-8 7 -87 c7 -91 18 -117 49 -117 25 0 32 16 19 41 -7 11 -15 108 -20 221 -6
150 -11 203 -22 209 -16 11 -13 11 -69 -11z m15 -82 c3 -7 7 -32 10 -55 l6
-43 -37 0 c-21 0 -49 9 -62 19 l-25 19 40 36 c41 37 62 45 68 24z"/>
<path d="M4349 4089 c-33 -12 -40 -36 -27 -91 5 -24 7 -64 4 -90 -4 -41 -2
-50 17 -63 12 -8 33 -15 47 -15 14 0 43 -11 65 -23 55 -31 55 -65 1 -91 -34
-17 -45 -18 -83 -8 -44 12 -83 4 -83 -18 0 -17 51 -43 98 -51 59 -9 119 15
151 60 41 57 5 122 -96 177 -53 29 -63 47 -63 115 0 32 12 37 90 42 25 1 51 6
58 10 17 11 15 44 -4 51 -24 9 -146 6 -175 -5z"/>
<path d="M4694 4089 c-44 -22 -82 -110 -83 -192 -1 -43 5 -69 25 -105 60 -112
162 -122 255 -26 31 32 34 40 33 92 0 57 -21 114 -62 175 -39 57 -113 82 -168
56z m116 -79 c58 -58 78 -160 38 -197 -45 -41 -118 -67 -118 -43 0 6 -11 22
-24 35 -46 45 -42 160 6 205 28 25 72 26 98 0z"/>
<path d="M8962 4039 c-48 -24 -73 -62 -54 -81 7 -7 12 -26 12 -42 1 -17 9 -65
19 -106 9 -42 16 -98 14 -126 -2 -27 0 -62 6 -77 11 -29 35 -36 44 -13 7 17 2
122 -8 194 l-8 52 44 0 c62 0 106 29 115 76 10 52 -5 84 -51 116 -48 33 -77
35 -133 7z m113 -53 c44 -19 38 -48 -16 -74 -50 -25 -76 -19 -84 19 -8 33 -1
47 29 59 29 12 32 12 71 -4z"/>
<path d="M4003 3801 c-23 -11 -44 -29 -48 -41 -7 -23 9 -50 31 -50 21 0 29
-42 10 -55 -21 -16 -20 -23 8 -64 26 -38 43 -130 41 -214 -2 -38 2 -48 17 -53
11 -3 23 -3 26 1 4 4 7 58 7 120 l-1 114 49 12 c64 15 107 52 107 90 0 55 -37
103 -107 142 -40 22 -87 21 -140 -2z m118 -51 c20 -6 48 -22 63 -36 31 -32 23
-56 -25 -73 -36 -13 -90 -15 -87 -3 1 4 -2 28 -6 54 -8 44 -3 68 12 68 4 0 23
-5 43 -10z"/>
<path d="M3799 3527 c-20 -17 -45 -48 -54 -67 -10 -19 -30 -60 -45 -90 -15
-30 -35 -80 -45 -110 -11 -30 -22 -59 -26 -64 -4 -5 -27 5 -50 23 -24 17 -49
31 -56 31 -49 0 -72 -332 -26 -382 19 -21 28 -19 129 28 39 19 78 34 86 34 8
0 34 14 56 30 49 35 55 66 16 80 -14 6 -43 29 -64 51 -42 45 -42 34 -2 154 24
74 108 249 129 270 14 15 12 45 -4 45 -4 0 -24 -15 -44 -33z"/>
<path d="M8876 2620 c-48 -22 -64 -45 -39 -58 12 -6 32 -3 61 10 34 15 43 24
40 40 -4 28 -15 30 -62 8z"/>
<path d="M6422 2598 c-15 -18 1 -41 24 -36 23 4 26 41 3 46 -9 1 -21 -3 -27
-10z"/>
<path d="M800 2585 c-8 -2 -51 -9 -95 -15 -44 -7 -90 -19 -102 -26 -22 -14
-22 -15 -6 -66 8 -29 20 -82 27 -118 l12 -65 70 0 c49 0 78 -5 96 -17 31 -21
41 -62 19 -81 -45 -40 -145 -69 -206 -60 -56 7 -67 -11 -29 -43 25 -21 36 -24
79 -19 147 17 235 78 235 164 0 53 -85 114 -192 135 -23 5 -27 12 -33 55 -4
28 -4 54 -1 59 3 5 43 13 88 17 93 8 118 17 118 45 0 29 -34 44 -80 35z"/>
<path d="M11687 2583 c-20 -5 -71 -88 -62 -103 13 -22 46 -10 57 20 12 37 43
56 63 40 17 -14 57 -10 62 7 7 21 -75 46 -120 36z"/>
<path d="M3933 2567 c-30 -13 -29 -35 2 -43 35 -9 43 -2 31 27 -9 22 -14 25
-33 16z"/>
<path d="M8651 2571 c-12 -8 -13 -12 -1 -26 19 -23 54 -15 58 13 3 17 -1 22
-20 22 -13 0 -29 -4 -37 -9z"/>
<path d="M1008 2521 c-63 -40 -92 -96 -92 -178 -1 -55 2 -65 28 -92 20 -20 40
-31 58 -31 15 0 28 -4 28 -10 0 -13 -44 -23 -68 -15 -36 11 -33 -12 4 -34 48
-28 61 -27 122 14 124 84 158 233 74 324 -51 55 -93 61 -154 22z m123 -72 c32
-46 22 -116 -27 -176 -33 -41 -38 -43 -53 -29 -10 9 -21 16 -26 16 -24 0 -45
36 -45 75 0 117 96 190 151 114z"/>
<path d="M6391 2526 c-13 -16 -4 -46 14 -46 13 0 25 21 25 46 0 18 -24 18 -39
0z"/>
<path d="M8765 2510 c-23 -24 -26 -32 -15 -45 20 -24 38 -18 55 19 16 33 14
56 -4 56 -4 0 -20 -13 -36 -30z"/>
<path d="M3677 2523 c-14 -13 -6 -31 15 -36 24 -7 48 8 48 29 0 14 -51 20 -63
7z"/>
<path d="M8932 2518 c-29 -29 -1 -55 44 -38 16 7 24 16 22 28 -4 21 -48 28
-66 10z"/>
<path d="M3787 2498 c-15 -6 -26 -15 -24 -21 6 -18 46 -20 53 -3 10 26 1 34
-29 24z"/>
<path d="M4490 2495 c-10 -12 -10 -16 1 -19 57 -18 75 -13 63 18 -8 20 -48 21
-64 1z"/>
<path d="M11820 2495 c-16 -19 -6 -32 32 -41 18 -3 40 -12 50 -18 13 -8 23 -8
38 2 25 16 30 15 30 -2 0 -8 10 -18 21 -21 25 -8 69 12 69 31 0 19 -44 28 -68
15 -16 -9 -21 -7 -25 10 -5 18 -11 21 -40 15 -25 -5 -38 -2 -47 9 -16 19 -44
19 -60 0z"/>
<path d="M4091 2491 c-8 -5 -29 -7 -47 -4 -28 5 -34 2 -48 -25 -13 -26 -13
-32 -1 -42 18 -15 51 2 60 30 5 15 12 19 27 15 28 -9 68 3 68 20 0 17 -36 20
-59 6z"/>
<path d="M4252 2483 c-10 -7 -28 -13 -42 -13 -34 0 -54 -15 -47 -34 5 -13 22
-16 102 -14 53 1 99 6 101 9 2 4 -6 20 -19 35 -26 30 -69 38 -95 17z"/>
<path d="M6091 2486 c-15 -18 -3 -48 18 -44 21 4 28 58 8 58 -8 0 -20 -6 -26
-14z"/>
<path d="M6238 2475 c-8 -18 -17 -23 -32 -20 -12 3 -28 1 -36 -5 -13 -8 -13
-11 2 -26 16 -17 19 -17 36 -1 21 19 63 22 79 6 15 -15 33 -3 33 22 0 12 -7
19 -20 19 -11 0 -20 7 -20 15 0 24 -29 17 -42 -10z"/>
<path d="M8440 2485 c-11 -13 -11 -19 4 -33 20 -20 51 -6 51 24 0 24 -37 30
-55 9z"/>
<path d="M8584 2493 c-12 -2 -32 -15 -44 -28 -19 -20 -21 -27 -10 -40 17 -21
37 -19 50 5 7 13 21 20 39 20 20 0 30 6 34 19 8 31 -8 36 -69 24z"/>
<path d="M3883 2455 c-16 -33 -16 -37 0 -52 15 -16 18 -15 37 2 20 18 25 41
14 69 -10 27 -33 18 -51 -19z"/>
<path d="M6558 2479 c-10 -5 -18 -14 -18 -19 0 -16 57 -12 63 4 10 26 -14 34
-45 15z"/>
<path d="M8283 2479 c-26 -26 12 -51 46 -30 12 8 12 12 2 25 -16 19 -33 20
-48 5z"/>
<path d="M9117 2484 c-3 -4 -26 -6 -51 -6 -51 1 -77 -18 -56 -43 16 -19 34
-19 49 -1 9 10 20 12 40 6 18 -5 36 -3 52 6 32 17 58 19 41 2 -31 -31 6 -58
44 -33 34 22 31 45 -6 45 -20 0 -30 5 -30 15 0 11 -11 15 -38 15 -21 0 -41 -3
-45 -6z"/>
<path d="M11562 2483 c-7 -3 -24 -15 -36 -27 -13 -11 -36 -29 -50 -39 -18 -13
-26 -26 -24 -40 4 -32 35 -34 49 -3 7 14 27 32 45 41 58 27 73 91 16 68z"/>
<path d="M10486 2464 c-18 -17 -13 -34 10 -34 8 0 17 -7 20 -15 9 -23 24 -18
24 8 -1 21 -21 57 -33 57 -3 0 -13 -7 -21 -16z"/>
<path d="M3530 2455 c-7 -8 -16 -12 -21 -9 -5 2 -23 -3 -41 -12 -30 -16 -31
-17 -13 -30 26 -19 42 -17 55 6 8 15 15 18 34 10 27 -10 46 3 46 32 0 22 -42
25 -60 3z"/>
<path d="M6484 2444 c-12 -18 -14 -28 -6 -36 15 -15 38 5 45 37 6 33 -17 33
-39 -1z"/>
<path d="M5909 2447 c-31 -16 -39 -57 -11 -57 21 0 35 13 45 42 8 24 -4 29
-34 15z"/>
<path d="M6885 2450 c-12 -4 -27 -15 -34 -24 -11 -13 -9 -17 14 -26 30 -11 40
-8 55 20 12 23 -7 41 -35 30z"/>
<path d="M11362 2442 c-35 -17 -37 -29 -8 -46 14 -8 20 -8 23 1 3 8 14 11 29
7 28 -7 43 18 24 41 -15 19 -26 18 -68 -3z"/>
<path d="M3290 2435 c-7 -8 -25 -15 -40 -15 -29 0 -56 -23 -46 -39 8 -13 107
-11 124 2 9 7 16 7 24 -1 15 -15 55 -15 64 -1 3 6 -3 20 -14 32 -20 20 -22 20
-40 3 -19 -16 -20 -16 -26 9 -7 28 -27 33 -46 10z"/>
<path d="M5998 2428 c-20 -20 -21 -21 -2 -35 16 -12 20 -11 31 4 15 20 17 53
3 53 -5 0 -20 -10 -32 -22z"/>
<path d="M6647 2443 c-4 -3 -7 -17 -7 -30 0 -28 20 -30 51 -3 21 17 22 21 9
30 -17 11 -44 13 -53 3z"/>
<path d="M10635 2440 c-3 -5 -3 -15 1 -21 3 -6 -10 -24 -30 -41 -29 -24 -34
-33 -25 -44 17 -21 34 -17 48 12 11 26 12 26 32 8 15 -14 24 -16 37 -8 26 17
25 46 -3 77 -27 28 -49 34 -60 17z"/>
<path d="M3635 2428 c-30 -16 -30 -17 -9 -32 16 -13 21 -12 36 1 9 8 14 21 11
29 -6 17 -12 17 -38 2z"/>
<path d="M5614 2425 c-4 -8 -3 -23 0 -32 6 -15 8 -15 23 -1 16 17 12 48 -7 48
-6 0 -13 -7 -16 -15z"/>
<path d="M5807 2422 c-21 -23 -22 -52 -3 -52 17 0 49 47 41 60 -9 15 -20 12
-38 -8z"/>
<path d="M6777 2424 c-15 -8 -25 -19 -22 -24 10 -16 52 -11 59 7 10 25 -6 33
-37 17z"/>
<path d="M4421 2406 l-22 -24 26 -6 c31 -8 55 8 55 35 0 27 -32 24 -59 -5z"/>
<path d="M4699 2414 c-13 -12 -21 -14 -37 -5 -28 15 -38 14 -57 -5 -12 -12
-13 -19 -4 -30 16 -19 49 -18 64 3 11 15 15 15 29 4 22 -19 69 1 64 27 -4 23
-39 27 -59 6z"/>
<path d="M8179 2407 c-19 -12 -38 -32 -43 -44 -6 -11 -27 -28 -48 -38 -42 -18
-49 -39 -19 -55 16 -8 23 -5 40 16 12 15 21 31 21 35 0 5 11 9 24 9 14 0 31 8
38 19 7 10 23 21 35 25 22 7 37 32 27 47 -9 15 -40 10 -75 -14z"/>
<path d="M9520 2423 c0 -4 9 -14 20 -20 21 -14 53 -7 47 11 -4 13 -67 21 -67
9z"/>
<path d="M9743 2414 c-4 -11 1 -22 12 -30 26 -19 45 -17 45 4 0 37 -45 57 -57
26z"/>
<path d="M8360 2400 c-23 -18 -24 -20 -8 -36 21 -22 43 -13 63 25 15 30 15 31
-7 31 -13 0 -34 -9 -48 -20z"/>
<path d="M10133 2405 c-27 -19 -35 -51 -16 -66 18 -16 44 8 48 45 4 33 -6 39
-32 21z"/>
<path d="M4829 2389 c-21 -21 -21 -23 -4 -36 20 -14 61 -18 68 -5 3 4 -6 20
-19 35 l-23 28 -22 -22z"/>
<path d="M10861 2401 c-21 -13 -5 -41 23 -41 29 0 39 11 30 34 -7 18 -31 21
-53 7z"/>
<path d="M11100 2401 c-8 -5 -26 -7 -40 -4 -53 10 -140 -103 -93 -121 14 -6
28 4 58 38 36 42 75 61 75 36 0 -5 -8 -14 -17 -19 -17 -10 -17 -12 1 -26 26
-20 33 -19 46 5 9 17 17 20 44 15 23 -5 36 -2 45 9 21 25 3 39 -40 32 -36 -6
-39 -4 -36 16 2 24 -19 34 -43 19z"/>
<path d="M12104 2395 c-9 -23 5 -35 40 -35 33 0 56 15 56 37 0 19 -89 18 -96
-2z"/>
<path d="M5396 2384 c-11 -28 -7 -35 17 -32 29 4 38 48 9 48 -11 0 -23 -7 -26
-16z"/>
<path d="M9285 2386 c-25 -18 -13 -46 20 -46 25 0 31 13 19 44 -7 20 -15 20
-39 2z"/>
<path d="M5698 2367 c-23 -19 -25 -24 -14 -39 19 -26 31 -22 44 15 20 55 14
60 -30 24z"/>
<path d="M9460 2369 c-10 -17 -9 -24 3 -36 13 -13 17 -13 37 7 25 25 22 44 -8
48 -13 2 -25 -5 -32 -19z"/>
<path d="M10187 2384 c-16 -16 -6 -35 16 -32 12 2 22 10 22 18 0 16 -26 25
-38 14z"/>
<path d="M12250 2375 c-10 -11 -10 -19 -2 -27 15 -15 44 -2 40 19 -4 23 -22
27 -38 8z"/>
<path d="M3426 2359 c-35 -27 -33 -64 4 -64 19 0 26 7 34 33 13 46 -3 59 -38
31z"/>
<path d="M5503 2358 c-35 -21 -41 -39 -20 -56 15 -13 27 -6 50 30 32 50 22 59
-30 26z"/>
<path d="M10313 2364 c-3 -8 -1 -20 5 -26 13 -13 52 7 52 27 0 20 -49 19 -57
-1z"/>
<path d="M11279 2359 c-16 -32 4 -48 31 -24 11 10 20 24 20 32 0 21 -38 15
-51 -8z"/>
<path d="M7987 2356 c-15 -12 -15 -15 -3 -26 21 -17 51 -8 51 15 0 24 -24 30
-48 11z"/>
<path d="M9357 2359 c-18 -10 -18 -12 -1 -30 22 -24 41 -24 54 1 8 15 6 21 -9
30 -23 12 -21 12 -44 -1z"/>
<path d="M3001 2315 c-29 -29 -41 -50 -37 -60 8 -22 40 -15 44 10 6 30 22 45
47 45 26 0 50 24 40 40 -13 22 -52 8 -94 -35z"/>
<path d="M2531 2328 c-5 -13 -28 -45 -51 -72 -31 -37 -38 -51 -28 -57 21 -14
48 -10 48 6 0 31 40 95 59 95 20 0 35 25 25 41 -10 17 -45 9 -53 -13z"/>
<path d="M6977 2344 c-17 -18 -6 -35 21 -32 16 2 27 9 27 18 0 16 -36 26 -48
14z"/>
<path d="M9564 2335 c-4 -9 -2 -21 4 -27 16 -16 47 -5 47 17 0 26 -42 34 -51
10z"/>
<path d="M9889 2334 c-10 -13 -10 -17 2 -25 22 -14 44 -6 47 19 4 27 -28 31
-49 6z"/>
<path d="M10763 2339 c-8 -8 -7 -18 6 -40 20 -36 39 -44 61 -24 9 8 31 15 49
15 19 0 34 6 38 15 8 22 2 26 -48 30 -24 2 -55 6 -69 10 -14 3 -30 1 -37 -6z"/>
<path d="M1875 2326 c-16 -12 -17 -16 -6 -30 27 -32 63 -6 38 28 -11 15 -15
15 -32 2z"/>
<path d="M3155 2324 c-11 -8 -26 -19 -34 -23 -12 -7 -10 -13 7 -32 25 -26 29
-24 53 31 19 43 10 52 -26 24z"/>
<path d="M5064 2316 c-23 -19 -26 -27 -17 -37 9 -9 19 -10 35 -2 14 6 32 7 46
2 27 -10 42 13 25 40 -16 26 -57 25 -89 -3z"/>
<path d="M5291 2330 c-18 -4 -40 -14 -47 -22 -13 -12 -12 -17 6 -33 16 -14 23
-16 32 -7 7 7 22 12 34 12 21 0 39 33 28 52 -6 9 -6 9 -53 -2z"/>
<path d="M7092 2328 c-19 -19 -14 -37 13 -44 37 -9 46 -2 32 25 -15 29 -29 35
-45 19z"/>
<path d="M9666 2313 c-30 -32 -32 -39 -10 -47 21 -8 30 -1 42 34 15 40 -1 47
-32 13z"/>
<path d="M10416 2331 c-7 -11 3 -41 13 -41 12 0 31 23 31 37 0 15 -36 18 -44
4z"/>
<path d="M2290 2315 c-7 -8 -21 -15 -31 -15 -22 0 -50 -37 -42 -56 9 -23 32
-16 48 15 10 20 24 31 42 33 17 2 28 9 28 18 0 20 -29 24 -45 5z"/>
<path d="M2790 2310 c-14 -11 -40 -22 -58 -26 -36 -7 -52 -28 -34 -46 8 -8 19
-6 39 8 15 10 40 17 56 15 27 -2 33 4 39 43 4 27 -13 29 -42 6z"/>
<path d="M2860 2305 l-22 -23 38 -11 c53 -15 54 -14 54 12 0 15 -9 28 -24 35
-20 9 -27 7 -46 -13z"/>
<path d="M4931 2321 c-22 -15 -5 -41 27 -41 27 0 61 24 50 35 -10 11 -64 15
-77 6z"/>
<path d="M9995 2310 c-14 -16 -16 -23 -6 -33 16 -16 45 3 49 32 4 27 -19 28
-43 1z"/>
<path d="M1988 2309 c-15 -8 -16 -13 -5 -29 13 -22 25 -24 46 -11 10 7 11 13
2 30 -13 24 -18 25 -43 10z"/>
<path d="M9822 2304 c-19 -13 -21 -19 -11 -30 20 -24 54 -13 57 19 4 31 -12
35 -46 11z"/>
<path d="M2104 2295 c-8 -21 6 -37 25 -29 9 4 30 7 46 8 20 1 30 6 30 16 0 21
-93 26 -101 5z"/>
<path d="M10247 2304 c-15 -15 -7 -45 11 -42 9 2 17 12 17 22 0 20 -16 31 -28
20z"/>
<path d="M7734 2290 c-27 -11 -37 -35 -19 -50 10 -8 24 -8 54 1 45 13 66 32
56 49 -7 12 -61 12 -91 0z"/>
<path d="M2367 2283 c-4 -3 -7 -15 -7 -25 0 -14 8 -18 35 -18 36 0 46 15 23
38 -13 13 -41 16 -51 5z"/>
<path d="M7293 2283 c-22 -8 -14 -32 11 -39 31 -7 46 1 46 27 0 19 -27 25 -57
12z"/>
<path d="M2616 2265 c-22 -17 -15 -45 12 -45 20 0 52 29 52 48 0 16 -41 14
-64 -3z"/>
<path d="M5192 2248 c-29 -29 -1 -59 37 -38 25 13 27 35 5 44 -22 8 -28 8 -42
-6z"/>
<path d="M7193 2248 c-26 -13 -28 -21 -10 -36 16 -14 62 7 62 28 0 19 -23 22
-52 8z"/>
<path d="M1836 2231 c-15 -16 -21 -18 -37 -8 -13 8 -24 9 -35 2 -37 -24 0 -57
39 -36 14 7 34 10 45 7 15 -5 25 -1 34 13 11 19 14 19 30 4 10 -9 18 -13 18
-8 0 4 7 2 15 -5 21 -17 45 -6 38 18 -3 13 -11 18 -23 15 -10 -3 -21 0 -24 6
-12 19 -81 13 -100 -8z"/>
<path d="M7396 2219 c-31 -25 -33 -36 -5 -44 13 -4 27 -1 39 10 15 14 21 14
39 3 24 -15 54 -2 59 26 4 19 -20 21 -49 4 -17 -11 -22 -10 -33 5 -17 21 -18
21 -50 -4z"/>
<path d="M7558 2228 c-21 -13 20 -38 63 -38 36 0 66 21 55 38 -7 12 -101 11
-118 0z"/>
<path d="M7881 2227 c-8 -11 -6 -18 9 -32 19 -17 21 -17 40 0 11 10 20 24 20
32 0 17 -54 17 -69 0z"/>
<path d="M2063 2198 c-13 -6 -23 -20 -23 -30 0 -15 6 -19 28 -16 21 2 28 9 30
31 4 29 -1 31 -35 15z"/>
<path d="M7687 976 c-8 -8 -17 -46 -21 -87 -10 -111 -12 -115 -71 -144 -38
-18 -63 -39 -84 -72 -17 -26 -31 -50 -31 -54 0 -14 -69 -30 -102 -24 -75 14
-106 75 -38 75 36 0 77 19 104 48 18 20 18 22 0 59 -17 34 -24 38 -60 41 -38
3 -47 -2 -108 -55 -69 -61 -76 -73 -51 -93 8 -7 15 -19 15 -27 0 -26 38 -70
77 -89 40 -18 96 -20 140 -3 19 7 37 5 70 -7 81 -31 180 11 246 106 36 52 6
56 -43 5 -21 -22 -52 -40 -86 -50 -64 -18 -66 -18 -90 -1 -18 14 -18 16 15 50
27 28 43 36 70 36 75 0 79 4 78 78 -1 37 2 102 6 145 7 65 5 77 -7 77 -8 0
-21 -6 -29 -14z"/>
<path d="M9445 940 c-33 -4 -87 -8 -120 -9 -63 -1 -85 -12 -85 -43 0 -24 30
-38 83 -38 l44 0 2 -55 c1 -30 -5 -84 -14 -120 -20 -86 -19 -121 1 -129 43
-16 69 70 77 248 l2 60 46 15 c58 21 99 48 99 66 0 17 -31 18 -135 5z"/>
<path d="M9610 930 c-16 -31 -26 -345 -11 -354 26 -16 49 5 62 55 7 28 24 62
38 76 l26 25 23 -27 c19 -23 23 -36 19 -77 -3 -44 -1 -52 20 -65 13 -9 27 -12
31 -9 4 4 6 35 4 69 -3 72 -35 145 -73 166 -24 13 -29 13 -57 -7 -16 -12 -33
-22 -37 -22 -4 0 -5 41 -3 92 3 80 1 93 -14 96 -9 2 -22 -6 -28 -18z"/>
<path d="M7154 922 c-20 -13 -33 -47 -49 -138 -24 -127 -43 -145 -70 -66 -34
102 -59 103 -111 1 -19 -38 -39 -69 -44 -69 -16 0 -26 36 -39 135 -17 124 -20
135 -33 135 -6 0 -19 -7 -28 -15 -15 -14 -15 -23 -3 -97 19 -124 45 -215 69
-245 21 -26 22 -26 47 -10 14 9 37 41 52 72 15 30 31 55 36 55 5 0 20 -25 34
-55 13 -30 31 -58 40 -62 36 -13 85 79 100 189 4 28 15 75 25 104 13 38 15 55
7 63 -13 13 -18 13 -33 3z"/>
<path d="M4317 900 c-18 -14 -27 -30 -25 -44 3 -19 9 -21 70 -21 36 0 70 -3
73 -7 4 -4 11 -69 15 -145 9 -153 14 -173 40 -173 40 0 44 22 30 164 -7 74
-10 141 -7 149 3 8 24 16 50 19 41 5 107 42 107 60 0 4 -26 8 -58 8 -33 0
-106 3 -163 6 -98 6 -106 5 -132 -16z"/>
<path d="M11608 858 c-22 -22 -22 -23 -2 -83 14 -38 16 -72 11 -172 -4 -112
-3 -124 13 -133 22 -12 38 5 44 46 9 67 19 114 25 114 3 0 35 -7 70 -15 48
-12 67 -13 77 -4 22 18 17 28 -23 39 -21 5 -62 23 -90 40 -45 26 -53 35 -53
60 0 33 16 45 75 55 22 4 53 14 69 22 l28 15 -32 20 c-43 26 -185 23 -212 -4z"/>
<path d="M1557 831 c-20 -23 -37 -47 -37 -54 0 -7 -7 -23 -16 -36 l-17 -23
-31 58 c-18 35 -39 60 -50 63 -39 7 -46 -23 -46 -200 0 -176 5 -195 47 -187
15 3 18 16 21 93 3 113 6 123 30 101 26 -22 28 -21 73 25 22 23 42 40 44 37 3
-2 8 -44 11 -94 7 -87 18 -113 50 -114 20 0 22 23 13 145 -11 147 -16 174 -38
203 l-17 24 -37 -41z"/>
<path d="M12150 828 c-18 -20 -19 -23 -3 -40 22 -25 60 -23 68 3 5 14 0 26
-16 40 -27 23 -24 24 -49 -3z"/>
<path d="M10060 780 c-26 -63 -69 -120 -91 -120 -19 0 -20 3 -14 64 5 45 4 66
-5 71 -18 11 -48 -25 -61 -76 -11 -41 -10 -50 7 -79 29 -51 68 -57 122 -20
l43 30 10 -28 c5 -15 11 -32 14 -39 5 -16 43 -35 49 -25 5 8 -10 178 -20 230
-6 33 -39 28 -54 -8z"/>
<path d="M5034 762 c-22 -20 -48 -49 -57 -64 -36 -58 -12 -153 49 -193 15 -9
52 -19 83 -22 45 -4 65 0 101 19 53 27 70 65 23 54 -77 -20 -119 -22 -150 -7
-18 8 -33 18 -33 21 0 4 17 15 38 26 20 10 54 32 75 47 42 32 46 54 21 117
-16 39 -18 40 -63 40 -39 -1 -52 -7 -87 -38z m111 -42 c0 -20 -10 -30 -45 -47
-87 -43 -109 -19 -38 42 49 42 83 44 83 5z"/>
<path d="M4842 713 c-12 -10 -35 -43 -51 -73 -22 -43 -34 -55 -52 -55 -21 0
-24 4 -21 33 6 80 -49 90 -62 11 -5 -32 -2 -48 15 -75 28 -46 73 -47 125 -2
l36 32 20 -27 c14 -19 29 -27 49 -27 34 0 38 18 12 56 -9 14 -20 48 -24 76
-10 64 -20 74 -47 51z"/>
<path d="M1771 681 c-47 -47 -61 -76 -61 -127 0 -28 6 -38 30 -52 18 -10 30
-25 30 -38 0 -49 85 -80 137 -49 46 27 83 83 83 124 -1 75 -72 163 -142 176
-33 6 -40 3 -77 -34z m134 -58 c24 -28 32 -73 19 -108 -10 -24 -82 -58 -110
-51 -19 5 -24 13 -24 41 0 18 -4 37 -10 40 -18 11 -11 43 16 74 34 41 75 42
109 4z"/>
<path d="M2140 696 c-14 -8 -40 -32 -58 -54 -25 -32 -32 -50 -32 -85 0 -95 57
-102 75 -9 12 61 37 92 62 76 41 -26 58 -63 58 -130 0 -59 2 -65 23 -71 33 -8
37 1 37 75 -1 74 -21 125 -73 180 -33 35 -53 39 -92 18z"/>
<path d="M11968 694 c-16 -8 -28 -19 -28 -24 0 -5 -14 -25 -31 -45 -28 -31
-31 -41 -26 -81 2 -24 13 -54 22 -64 16 -18 20 -19 35 -5 9 8 17 31 18 50 1
20 10 56 21 80 16 36 25 45 45 45 31 0 40 14 26 40 -13 24 -44 25 -82 4z"/>
<path d="M12124 638 c-12 -19 -16 -156 -5 -162 5 -4 21 -2 35 4 24 9 26 14 25
62 -1 29 -4 64 -8 78 -8 28 -35 38 -47 18z"/>
<path d="M1047 614 c-54 -28 -58 -43 -6 -21 38 17 79 46 64 46 -5 0 -32 -11
-58 -25z"/>
</g>
</svg>
