<?xml version="1.0" standalone="no"?>
<!DOCTYPE svg PUBLIC "-//W3C//DTD SVG 20010904//EN"
 "http://www.w3.org/TR/2001/REC-SVG-20010904/DTD/svg10.dtd">
<svg version="1.0" xmlns="http://www.w3.org/2000/svg"
 width="527.660526pt" height="400.000000pt" viewBox="0 0 527.660526 400.000000"
 preserveAspectRatio="xMidYMid meet">
<metadata>
Created by potrace 1.15, written by Peter Selinger 2001-2017
</metadata>
<g transform="translate(-25.074288,436.681656) scale(0.038339,-0.038339)"
fill="#444444" stroke="none">
<path d="M13471 11359 l-34 -31 31 -20 c35 -22 122 -130 122 -152 0 -7 8 -24
19 -37 36 -48 88 -175 97 -239 12 -87 9 -295 -4 -345 -7 -22 -30 -68 -52 -102
-22 -34 -40 -65 -40 -69 0 -4 -6 -15 -14 -23 -7 -9 -17 -26 -20 -37 -5 -17 0
-24 25 -34 30 -13 33 -12 55 16 13 16 32 39 43 52 40 44 83 148 106 256 22
103 23 113 9 190 -7 45 -15 95 -17 111 -6 48 -59 198 -77 220 -10 11 -25 41
-35 67 -9 25 -28 57 -41 69 -13 12 -24 28 -24 34 0 13 -94 105 -107 105 -5 0
-24 -14 -42 -31z"/>
<path d="M12429 11237 c-55 -51 -110 -117 -138 -167 -54 -96 -71 -132 -85
-186 -9 -34 -16 -77 -15 -95 0 -51 33 -166 52 -187 9 -10 17 -25 17 -33 1 -69
75 -167 178 -236 45 -31 58 -35 80 -27 38 13 43 60 8 74 -23 8 -49 34 -127
122 -15 18 -32 50 -39 72 -6 23 -20 56 -31 75 -39 67 -35 200 9 289 33 67 74
137 92 157 10 11 30 39 44 63 15 23 38 47 51 52 30 11 33 40 7 63 -28 26 -42
21 -103 -36z"/>
<path d="M3170 11171 c-19 -11 -44 -28 -54 -40 -25 -27 -11 -44 49 -61 25 -7
45 -15 45 -18 0 -4 -12 -16 -26 -27 -25 -20 -26 -22 -14 -84 10 -54 9 -66 -4
-80 -13 -15 -13 -20 -1 -44 15 -30 23 -243 10 -312 -7 -40 -6 -41 35 -64 28
-16 45 -20 52 -13 5 5 12 51 14 102 6 130 28 159 79 108 60 -62 125 -118 168
-147 26 -18 47 -36 47 -41 0 -6 8 -10 17 -10 10 0 38 -20 63 -45 32 -32 52
-44 63 -39 24 9 21 20 -17 73 -36 49 -262 273 -316 312 -27 21 -41 58 -22 60
37 4 56 9 117 33 39 15 82 32 97 38 41 15 61 44 60 84 -1 30 -10 44 -48 78
-125 110 -187 141 -294 149 -72 5 -90 4 -120 -12z m198 -107 c31 -9 73 -27 94
-40 20 -13 48 -26 61 -30 14 -3 28 -12 31 -20 6 -16 -34 -49 -77 -63 -48 -15
-156 -33 -166 -27 -4 3 -14 27 -21 53 -7 27 -21 62 -31 79 -24 40 -24 43 4 54
32 13 42 12 105 -6z"/>
<path d="M7966 11167 l-28 -23 16 -48 c9 -26 23 -87 31 -134 8 -48 18 -112 24
-142 15 -90 24 -198 26 -309 1 -104 1 -104 32 -128 26 -20 42 -24 114 -24 115
-2 381 15 397 24 6 5 12 18 12 30 0 16 -11 26 -43 39 -43 18 -67 19 -297 15
l-115 -1 -2 44 c-2 25 -7 74 -13 110 -5 36 -12 90 -16 120 -3 30 -7 57 -9 60
-1 3 -6 45 -10 94 -3 49 -10 97 -15 105 -4 9 -8 33 -8 53 0 20 -8 60 -17 87
-19 58 -34 63 -79 28z"/>
<path d="M9359 11009 c-18 -18 -20 -28 -14 -78 4 -31 13 -66 21 -79 13 -20 13
-23 -1 -28 -8 -4 -26 -3 -39 0 -40 10 -82 -4 -99 -33 -14 -24 -12 -44 9 -69 1
-2 30 -6 65 -8 35 -3 66 -7 71 -10 11 -7 10 -66 -4 -156 -14 -94 -6 -119 46
-135 31 -10 37 -9 44 5 20 39 35 134 29 186 -7 68 4 79 82 86 52 5 56 7 56 30
0 19 -6 26 -24 28 -13 2 -39 12 -58 23 -18 10 -40 19 -47 19 -16 0 -30 32 -51
115 -30 119 -49 141 -86 104z"/>
<path d="M13435 10939 c-22 -4 -63 -9 -90 -12 -28 -3 -68 -12 -90 -21 -36 -16
-75 -47 -75 -61 0 -18 116 -135 133 -135 11 0 35 -17 54 -37 33 -37 33 -38 13
-47 -14 -6 -39 -5 -73 3 -68 16 -98 16 -108 -1 -14 -21 -12 -23 41 -56 54 -34
108 -52 156 -52 61 0 131 82 106 125 -4 7 -36 36 -72 64 -116 92 -130 104
-130 117 0 14 38 24 103 28 69 4 121 55 85 83 -7 5 -31 6 -53 2z"/>
<path d="M12649 10893 c-8 -9 -34 -25 -57 -35 l-44 -20 7 -91 c3 -51 8 -122 9
-158 3 -79 7 -85 48 -94 50 -12 58 9 52 134 -4 75 -2 119 8 151 12 40 17 45
43 45 28 0 31 -4 38 -45 5 -25 9 -57 9 -72 1 -17 8 -28 19 -31 11 -3 19 -12
19 -21 0 -30 46 -18 74 18 14 19 26 39 26 45 0 6 6 11 14 11 17 0 56 -97 56
-139 0 -41 36 -83 69 -79 23 3 26 8 29 44 4 59 -48 206 -90 249 -37 40 -59 43
-95 15 -35 -27 -48 -25 -63 10 -20 49 -65 80 -115 80 -27 0 -47 -6 -56 -17z"/>
<path d="M4525 10850 c-82 -7 -170 -40 -188 -71 -7 -11 0 -28 24 -62 18 -26
39 -47 46 -47 7 0 13 -4 13 -8 0 -4 14 -16 32 -27 40 -24 158 -144 158 -161 0
-20 -11 -23 -106 -29 -77 -4 -96 -2 -129 15 -46 23 -78 25 -97 6 -10 -10 -39
-13 -110 -10 -105 3 -173 17 -200 41 -22 20 -12 43 18 43 13 0 43 8 67 19 23
10 62 26 87 35 63 23 66 26 74 75 6 41 5 45 -39 88 -45 45 -46 46 -97 40 -28
-4 -76 -19 -107 -34 -62 -32 -151 -113 -151 -138 0 -10 -11 -30 -25 -47 -31
-37 -32 -64 -2 -79 12 -6 42 -31 67 -55 49 -47 171 -99 212 -89 13 2 53 7 90
9 43 2 80 11 101 24 33 19 34 19 69 1 19 -10 64 -28 99 -40 55 -19 70 -21 120
-11 112 21 172 83 136 141 -8 14 -26 46 -38 69 -13 24 -42 58 -64 75 -22 17
-55 44 -72 61 -38 35 -45 75 -13 77 11 1 23 2 28 3 4 1 33 8 65 16 43 10 61
19 67 34 9 23 -12 47 -39 45 -9 -1 -52 -5 -96 -9z m-415 -153 c0 -16 -9 -26
-32 -35 -18 -8 -46 -20 -61 -29 -15 -8 -35 -12 -43 -9 -27 10 -14 33 34 56 26
13 54 27 62 31 27 14 40 9 40 -14z"/>
<path d="M6625 10843 c-42 -6 -148 -39 -183 -57 -41 -21 -65 -61 -57 -96 6
-28 119 -138 157 -152 26 -11 98 -84 98 -101 0 -42 -62 -66 -198 -74 -59 -4
-78 -1 -100 14 -15 10 -36 20 -46 23 -21 6 -20 5 -62 99 -16 35 -41 77 -56 94
-16 16 -28 33 -28 38 0 5 -4 9 -9 9 -5 0 -32 14 -59 31 -84 52 -196 50 -241
-5 -8 -9 -28 -16 -47 -16 -42 0 -54 -21 -54 -92 1 -53 36 -174 60 -203 14 -17
43 -19 71 -5 17 10 19 22 19 109 l0 99 35 31 c41 36 34 34 90 20 62 -16 121
-92 130 -167 10 -89 32 -122 82 -122 10 0 50 -13 88 -30 77 -32 152 -39 214
-18 129 42 153 53 180 84 26 29 28 37 21 69 -10 45 -33 80 -67 102 -35 23
-163 150 -163 162 0 13 104 49 162 57 70 9 79 16 66 59 -10 31 -34 47 -63 43
-5 0 -23 -3 -40 -5z"/>
<path d="M8891 10790 c-134 -64 -233 -142 -271 -214 -30 -56 -22 -103 28 -155
31 -32 45 -39 92 -45 67 -8 108 3 171 46 33 23 56 49 74 85 18 37 30 51 40 47
8 -4 15 -14 15 -23 0 -27 97 -101 132 -101 33 0 49 27 26 44 -8 6 -26 27 -39
47 -13 20 -38 56 -55 80 -40 57 -68 134 -69 184 0 37 -2 40 -30 42 -18 1 -64
-14 -114 -37z m47 -150 c13 -51 12 -57 -8 -97 -12 -24 -25 -43 -30 -43 -5 0
-25 -14 -44 -30 -25 -23 -43 -30 -68 -28 -58 3 -108 39 -108 77 0 13 95 110
140 143 73 53 100 48 118 -22z"/>
<path d="M7025 10775 c-33 -18 -68 -34 -78 -34 -31 -2 -58 -60 -51 -109 4 -28
2 -52 -7 -68 -11 -22 -10 -26 10 -40 12 -9 29 -33 38 -55 8 -21 40 -61 70 -89
50 -46 59 -50 106 -51 122 -4 186 11 256 58 19 13 38 23 42 23 13 0 11 26 -4
38 -8 7 -28 6 -67 -4 -30 -8 -98 -14 -151 -14 l-97 0 -26 34 c-14 19 -26 38
-26 41 0 15 47 44 71 45 39 0 133 45 168 79 56 55 35 102 -67 151 -78 38 -111
37 -187 -5z m160 -78 c17 -13 16 -16 -18 -41 -31 -24 -119 -56 -154 -56 -20 0
-15 44 7 68 21 22 40 29 100 35 19 2 38 5 41 5 3 1 13 -4 24 -11z"/>
<path d="M9872 10789 c-36 -14 -119 -89 -162 -147 -51 -68 -53 -106 -7 -149
58 -56 91 -66 222 -71 124 -4 175 5 175 32 0 24 -30 34 -144 48 -109 13 -134
28 -60 38 48 7 78 27 122 82 22 28 31 49 28 63 -3 11 -6 30 -6 41 0 43 -32 67
-91 70 -30 1 -64 -1 -77 -7z m78 -79 c14 -26 -1 -55 -40 -75 -33 -17 -90 -20
-90 -4 0 19 82 88 117 98 1 1 7 -8 13 -19z"/>
<path d="M10861 10782 c-34 -5 -109 -79 -132 -129 -24 -54 -24 -99 1 -155 35
-81 164 -158 261 -158 87 0 166 44 157 87 -3 16 -16 18 -103 19 -120 1 -175
11 -175 30 0 8 -7 17 -15 20 -9 4 -15 19 -15 36 0 16 -5 38 -10 49 -8 15 -7
27 7 50 20 34 58 54 120 64 50 8 89 47 74 74 -7 12 -25 16 -78 16 -37 0 -79
-1 -92 -3z"/>
<path d="M10353 10760 c-51 -11 -142 -60 -158 -83 -14 -23 -14 -140 0 -204 7
-31 41 -63 67 -63 33 1 41 18 39 87 -2 104 36 183 88 183 31 0 84 -29 105 -57
26 -35 45 -114 39 -165 -4 -37 -1 -49 22 -76 75 -89 116 33 63 185 -54 153
-145 218 -265 193z"/>
<path d="M4805 10734 c-47 -12 -77 -28 -95 -54 -25 -35 -19 -53 24 -68 l33
-12 6 -88 c7 -113 33 -292 52 -363 8 -31 14 -75 12 -99 -3 -37 1 -46 31 -76
28 -28 38 -32 54 -23 17 9 19 19 16 97 -4 87 -22 218 -38 280 -14 55 -6 62 70
61 59 -1 76 3 130 32 52 28 65 40 85 84 14 29 25 56 25 62 0 5 -13 29 -29 54
-22 35 -43 53 -97 80 -63 31 -78 34 -164 36 -52 1 -104 -1 -115 -3z m246 -97
c15 -10 33 -31 39 -48 25 -60 -25 -103 -137 -114 l-60 -7 -7 49 c-4 26 -9 60
-12 74 -3 16 2 34 15 50 18 23 24 24 78 19 32 -3 70 -14 84 -23z"/>
<path d="M11584 10714 c-18 -7 -48 -36 -69 -65 -21 -29 -58 -74 -82 -100 l-45
-48 -32 17 c-49 26 -77 52 -126 114 -50 63 -69 74 -100 58 -24 -13 -25 -27 -3
-82 18 -46 114 -147 162 -173 39 -20 45 -41 21 -75 -11 -15 -20 -35 -20 -43 0
-9 -10 -28 -23 -44 -20 -23 -63 -86 -199 -291 -9 -13 -14 -30 -12 -36 5 -14
57 -46 73 -46 16 0 140 174 238 333 67 110 82 126 115 129 23 2 37 11 48 31
14 26 14 29 -2 38 -21 12 -23 35 -4 46 7 4 21 22 30 38 9 17 36 59 61 94 51
71 57 106 22 113 -12 2 -36 -1 -53 -8z"/>
<path d="M5365 10669 c-16 -5 -47 -24 -67 -42 -30 -26 -40 -43 -48 -86 -14
-77 0 -118 55 -161 56 -44 81 -51 176 -51 109 -1 187 41 220 117 22 53 16 74
-38 125 -95 89 -207 126 -298 98z m186 -110 c63 -40 63 -67 1 -114 -60 -47
-112 -48 -165 -4 -45 37 -51 85 -14 120 49 47 102 46 178 -2z"/>
<path d="M2721 9781 c-18 -18 -19 -24 -8 -53 12 -34 16 -382 7 -633 -4 -122 8
-382 25 -530 13 -116 21 -1152 11 -1555 -3 -151 -6 -292 -6 -312 1 -21 -4 -55
-9 -75 -5 -21 -13 -121 -16 -222 -3 -102 -8 -188 -11 -192 -15 -25 -24 -1339
-10 -1455 10 -74 7 -489 -4 -619 -5 -71 -13 -317 -16 -545 -7 -473 -7 -470 -1
-1345 4 -683 9 -822 38 -975 6 -36 12 -72 14 -80 9 -72 35 -131 70 -162 58
-52 82 -60 203 -66 64 -3 135 -6 157 -5 340 5 669 14 677 19 9 6 35 8 353 23
110 6 243 15 295 21 132 14 183 19 270 25 41 3 102 8 135 11 33 3 134 7 225 9
91 2 217 7 280 10 268 12 538 18 897 17 304 -1 400 -5 468 -17 70 -13 143 -15
450 -11 200 3 369 7 373 10 21 13 270 3 300 -12 9 -5 103 -10 207 -11 105 -1
231 -8 280 -15 59 -10 134 -13 220 -9 178 7 182 7 250 -7 33 -6 146 -13 250
-16 105 -2 217 -6 250 -9 33 -2 192 -7 353 -10 242 -5 317 -3 430 11 75 9 173
18 217 20 44 2 120 9 169 15 50 6 121 8 162 4 40 -4 133 -8 206 -9 73 -2 180
-6 238 -10 116 -7 313 -17 375 -19 22 -1 74 2 115 6 41 3 143 9 225 12 206 7
266 12 367 28 74 12 90 11 113 -1 35 -18 175 -17 305 2 52 8 96 13 99 11 2 -3
13 1 24 7 11 6 88 13 171 15 83 3 159 9 169 15 9 5 22 6 28 2 14 -8 294 -8
308 0 6 4 34 0 63 -9 30 -8 65 -15 78 -14 14 0 72 -5 128 -11 60 -6 124 -7
150 -2 26 4 85 6 132 4 160 -8 255 -6 345 7 50 7 93 16 97 19 12 12 -29 90
-57 108 -24 16 -35 16 -103 5 -129 -20 -370 -17 -487 6 -16 3 -41 5 -55 4 -56
-4 -159 -2 -225 5 -171 18 -664 1 -769 -27 -22 -6 -74 -9 -116 -7 -53 2 -82
-1 -92 -10 -12 -9 -31 -11 -74 -4 -33 5 -81 8 -109 6 -27 -1 -153 -5 -280 -9
-126 -4 -250 -9 -275 -11 -66 -4 -438 -4 -453 1 -40 14 -808 25 -856 13 -20
-5 -51 -9 -68 -9 -18 1 -39 1 -45 1 -61 1 -248 -9 -255 -13 -6 -4 -32 -8 -59
-11 -27 -2 -76 -7 -109 -10 -33 -4 -112 -3 -176 1 -64 5 -134 5 -155 1 -21 -4
-77 -2 -124 3 -139 17 -277 24 -435 21 -33 -1 -82 1 -110 4 -27 2 -113 6 -190
8 -124 3 -252 11 -325 21 -83 11 -183 16 -510 21 -201 4 -390 5 -420 4 -45 -2
-148 -2 -285 0 -11 0 -92 0 -180 0 -88 0 -185 2 -215 5 -201 19 -732 24 -1230
11 -140 -3 -343 -8 -450 -11 -304 -6 -414 -14 -670 -45 -85 -11 -242 -21 -348
-23 -115 -2 -196 -7 -202 -13 -6 -6 -28 -9 -50 -7 -21 2 -78 -3 -127 -11 -51
-8 -172 -15 -288 -16 -110 -1 -229 -3 -265 -4 -82 -2 -248 9 -276 18 -36 11
-58 116 -84 389 -10 107 -10 121 7 155 10 20 27 39 38 41 41 7 82 71 68 107
-9 25 -40 15 -73 -22 -44 -50 -50 -36 -48 111 1 169 -10 725 -17 815 -9 111
-9 299 -2 440 4 69 10 301 13 515 3 215 7 408 9 430 18 178 22 291 19 490 -2
127 -6 255 -9 285 -9 105 -4 846 9 1185 10 277 17 380 31 485 20 148 25 876
12 1628 -8 411 -7 423 29 387 24 -24 43 -18 61 20 l17 35 25 -24 c14 -13 37
-29 51 -36 22 -12 27 -10 58 26 24 28 32 46 29 64 -3 14 0 34 6 45 5 11 12 40
14 65 2 25 8 67 14 94 11 47 12 48 24 25 7 -13 18 -55 25 -94 8 -38 21 -87 31
-108 10 -21 21 -59 25 -84 9 -58 63 -124 95 -116 32 9 56 76 64 179 10 130 24
147 40 49 12 -80 17 -100 25 -110 7 -9 14 -87 26 -265 2 -36 7 -72 10 -80 3
-8 10 -41 14 -74 14 -95 62 -126 93 -61 12 24 18 75 23 167 9 200 21 318 32
318 12 0 31 -37 32 -62 0 -15 5 -39 11 -55 6 -15 12 -35 13 -43 1 -8 5 -22 8
-30 8 -22 24 -85 44 -175 27 -118 47 -161 80 -169 20 -5 32 -2 45 11 28 27 57
156 58 256 1 49 6 121 12 160 5 40 10 91 11 115 1 47 18 59 18 12 0 -36 40
-130 64 -149 36 -30 86 33 86 109 0 21 1 22 25 6 35 -23 52 -20 70 14 9 17 20
28 24 25 8 -4 21 -153 23 -265 1 -51 -7 -165 -17 -256 -6 -55 -5 -63 16 -88
22 -25 26 -26 45 -12 28 20 47 97 46 187 0 38 4 71 9 75 15 9 28 -34 43 -140
8 -57 20 -102 28 -107 43 -28 66 29 69 176 1 58 5 105 9 105 3 0 11 -13 17
-30 8 -20 18 -30 32 -30 12 0 24 0 28 -1 14 0 30 110 32 230 1 41 2 43 27 37
33 -9 60 0 69 22 3 9 9 58 11 107 3 50 7 97 10 105 9 24 33 -43 27 -73 -3 -15
-2 -35 3 -44 4 -10 8 -22 9 -28 0 -5 7 -31 15 -57 15 -51 50 -76 88 -64 28 9
36 -8 34 -75 -1 -32 5 -95 12 -141 8 -46 14 -90 15 -98 0 -8 5 -35 11 -60 21
-90 31 -177 34 -290 3 -120 14 -160 44 -160 51 0 81 74 82 206 0 96 9 136 31
141 36 10 61 68 64 151 3 42 9 104 15 137 5 33 10 91 10 129 0 38 2 67 4 65 3
-3 10 -36 16 -74 11 -69 33 -104 67 -105 16 0 63 91 63 122 0 34 11 46 45 50
22 2 34 11 45 35 23 50 40 42 41 -19 2 -64 2 -62 27 -273 11 -93 20 -179 20
-190 0 -52 12 -149 20 -157 4 -4 26 -9 47 -11 38 -2 39 -1 47 38 4 22 7 82 7
133 1 50 5 92 9 92 4 0 7 28 6 62 -2 34 0 66 3 71 9 14 23 -15 23 -48 0 -33
38 -85 62 -85 17 0 41 24 33 32 -3 3 1 36 9 74 7 38 17 86 20 107 7 35 9 37
45 37 24 0 44 7 53 18 20 23 72 319 71 405 0 15 3 27 7 27 8 0 18 -104 26
-265 4 -71 10 -105 21 -117 19 -21 82 -24 87 -5 2 6 11 37 20 67 9 30 16 66
15 80 -2 24 6 105 16 180 3 19 7 98 10 175 5 153 11 195 27 195 6 0 8 -7 4
-15 -3 -9 1 -45 9 -80 9 -36 16 -98 17 -138 0 -39 7 -94 14 -121 8 -27 14 -73
14 -102 0 -34 5 -58 16 -68 19 -19 64 -21 86 -3 19 14 42 82 33 97 -3 5 -2 10
3 10 8 0 27 86 47 205 2 16 5 67 6 112 3 112 20 111 32 -2 3 -22 9 -65 15 -95
34 -169 59 -387 62 -540 1 -47 4 -99 7 -117 6 -36 44 -83 67 -83 21 0 56 80
56 128 0 29 4 42 14 42 8 0 13 -6 12 -12 -3 -36 17 -175 31 -209 29 -73 94
-55 108 31 24 136 27 144 77 193 27 26 47 51 44 56 -3 4 -1 35 4 67 5 32 12
86 15 119 3 33 10 78 15 100 5 22 10 60 10 85 l1 45 15 -40 c8 -22 18 -70 21
-107 3 -36 9 -71 12 -76 3 -6 23 -13 43 -17 31 -6 38 -4 49 16 7 13 14 37 16
54 2 16 10 48 17 70 8 22 26 105 41 185 15 80 33 165 42 190 8 25 17 65 19 90
6 55 11 70 22 70 11 0 36 -207 38 -325 1 -55 3 -109 3 -121 2 -31 38 -64 71
-64 24 0 30 -5 31 -22 1 -13 3 -34 5 -48 8 -57 10 -330 4 -400 -7 -72 -7 -75
21 -102 15 -15 32 -28 38 -28 18 0 63 109 63 152 -1 26 3 38 11 35 7 -2 12
-28 13 -68 1 -56 24 -139 44 -162 11 -13 40 4 55 33 8 15 17 47 21 71 4 24 10
51 15 60 9 18 19 128 20 231 0 40 7 93 14 118 8 25 17 71 20 103 4 32 9 57 11
54 4 -4 5 -77 4 -280 0 -73 12 -97 49 -97 44 0 54 22 63 138 5 59 16 146 24
193 9 48 13 96 9 108 -4 15 -2 21 8 21 10 0 18 -21 26 -75 6 -42 11 -86 11
-99 0 -13 7 -29 15 -36 8 -7 15 -19 15 -26 0 -25 38 -15 60 16 14 20 24 57 32
117 5 48 12 97 13 108 2 11 4 48 4 83 1 35 5 62 11 62 6 0 12 -6 14 -12 7 -22
55 -379 65 -482 8 -80 14 -103 32 -122 12 -13 27 -24 33 -24 20 0 66 54 66 78
0 13 4 31 10 41 5 10 12 33 14 52 12 76 33 153 43 156 6 2 13 -31 18 -84 4
-48 9 -101 10 -118 9 -89 18 -220 20 -295 5 -145 34 -181 91 -114 18 21 34 37
34 34 4 -16 9 -57 19 -150 6 -58 15 -139 20 -180 6 -41 10 -121 10 -178 1 -87
4 -106 20 -123 16 -17 23 -19 40 -10 28 15 55 73 70 146 22 114 41 230 53 310
6 44 12 81 13 83 2 2 15 -4 29 -14 25 -15 28 -15 45 0 35 32 46 93 47 277 1
97 6 183 10 192 5 8 18 16 29 18 21 4 32 45 39 149 2 30 6 71 10 90 3 19 8 58
11 85 15 154 18 176 29 172 6 -2 14 -35 18 -73 25 -258 30 -328 23 -369 -6
-41 -3 -50 16 -71 30 -32 43 -30 76 12 18 25 33 63 45 123 33 159 56 288 62
350 2 21 9 47 16 58 11 17 11 17 7 -3 -3 -12 1 -55 8 -95 15 -93 21 -268 17
-526 -3 -173 -1 -208 14 -238 24 -52 51 -47 91 17 18 29 35 72 38 97 15 114
38 184 42 134 1 -10 10 -108 20 -218 19 -205 30 -245 63 -245 25 0 77 92 83
150 9 91 29 228 47 335 18 103 30 190 34 253 3 38 25 112 34 112 17 0 36 -50
45 -115 15 -105 13 -403 -3 -458 -16 -59 -4 -77 47 -73 47 4 60 29 72 137 16
133 31 222 41 246 5 13 14 73 21 135 6 62 14 117 19 121 18 19 57 -313 52
-441 -2 -59 -1 -63 24 -72 65 -25 98 75 134 415 6 55 17 118 25 140 13 38 47
252 51 325 2 44 14 99 23 105 19 11 60 -292 65 -487 2 -80 6 -150 9 -155 5 -9
14 -147 23 -388 3 -88 11 -166 16 -172 6 -7 21 -13 35 -13 30 0 103 74 103
105 0 22 35 73 45 64 3 -4 8 -89 10 -190 9 -335 15 -432 32 -466 14 -31 43
-46 43 -23 0 6 11 15 25 20 27 10 52 56 61 113 3 18 14 66 24 107 10 41 26
119 35 173 9 53 22 97 28 97 6 0 18 -7 28 -16 16 -14 20 -14 42 1 14 9 28 23
31 32 11 27 36 196 36 241 0 41 1 42 33 42 68 0 109 90 122 270 1 25 11 92 20
150 10 58 18 144 19 192 1 47 4 90 9 94 4 4 7 -8 7 -27 1 -19 7 -63 15 -99 9
-40 14 -124 15 -222 0 -86 3 -163 6 -172 4 -10 18 -16 40 -16 29 0 36 5 49 33
7 17 16 44 20 60 3 15 10 27 16 27 7 0 9 -23 4 -72 -4 -40 -8 -140 -10 -223
-4 -176 -12 -286 -26 -337 -9 -36 -7 -64 11 -118 4 -14 13 -44 20 -67 7 -24
19 -43 27 -43 31 0 96 44 125 84 33 48 112 237 123 294 3 20 15 66 26 102 24
78 49 202 42 213 -8 13 8 48 19 41 7 -4 8 -36 4 -89 -4 -45 -9 -127 -11 -181
-3 -54 -9 -123 -15 -153 -13 -71 -12 -92 5 -115 13 -17 18 -17 45 -6 39 16 52
43 74 150 9 47 23 105 29 129 12 42 15 45 47 45 60 1 106 82 160 281 11 39 20
84 20 101 0 17 4 44 10 60 5 16 14 74 20 129 6 55 14 125 18 155 l8 55 11 -50
c19 -83 24 -160 24 -435 0 -229 2 -267 16 -282 9 -10 24 -18 34 -18 23 0 98
87 106 122 3 15 12 33 19 39 11 9 14 6 14 -20 0 -18 -4 -40 -9 -50 -15 -27 -2
-60 30 -76 26 -14 30 -13 53 8 14 12 35 49 47 82 20 60 55 203 57 240 9 115
15 165 21 165 4 0 17 -48 29 -108 36 -173 88 -279 184 -374 35 -35 39 -37 88
-31 27 3 56 13 62 21 10 11 13 76 13 248 0 139 3 224 9 211 12 -32 27 -132 31
-202 5 -86 14 -142 35 -205 10 -30 23 -84 29 -119 20 -118 69 -134 109 -36 20
50 23 71 19 128 -4 45 -2 67 4 65 6 -2 13 -52 16 -118 5 -121 22 -180 52 -180
9 0 24 15 33 33 15 27 17 64 17 254 0 123 3 228 6 233 13 20 24 -2 31 -58 4
-42 14 -67 34 -92 l29 -35 27 21 c34 25 42 50 57 189 7 62 16 109 22 108 6 -2
15 -61 21 -132 8 -102 14 -135 29 -151 25 -27 46 -25 79 9 30 32 56 130 56
216 0 121 28 165 43 69 17 -107 25 -150 36 -183 6 -20 8 -64 5 -105 l-6 -71
35 -34 35 -33 28 27 c31 31 44 22 44 -31 0 -30 16 -132 26 -166 3 -10 20 -20
41 -24 31 -6 39 -3 55 16 10 12 18 29 18 38 0 9 10 32 23 51 68 104 97 161 97
193 0 63 -13 65 -74 12 -31 -27 -59 -59 -62 -71 -3 -12 -12 -27 -20 -34 -12
-10 -14 6 -16 100 -1 61 -3 123 -4 139 -2 15 -6 148 -9 297 -3 148 -8 279 -11
290 -4 11 -17 32 -30 47 -12 16 -25 37 -29 48 -10 33 -29 23 -53 -28 -19 -40
-21 -52 -11 -80 6 -18 9 -51 6 -75 -3 -23 -8 -127 -11 -231 -3 -108 -9 -193
-15 -199 -14 -14 -25 16 -18 50 3 15 1 38 -5 52 -17 47 -31 125 -29 171 2 44
-6 69 -57 183 -17 38 -31 57 -43 57 -39 0 -55 -70 -68 -296 -4 -78 -12 -147
-16 -154 -11 -18 -44 112 -50 196 -7 88 -26 154 -56 193 -23 29 -29 32 -47 22
-19 -10 -21 -20 -22 -114 -2 -197 -11 -387 -19 -387 -5 0 -12 17 -15 38 -17
95 -63 190 -92 191 -14 1 -44 -32 -44 -49 0 -8 -10 -49 -21 -92 -20 -75 -22
-78 -39 -63 -45 41 -75 -34 -71 -179 2 -68 -5 -96 -24 -96 -21 0 -25 13 -31
97 -5 82 -17 158 -35 233 -6 25 -13 65 -16 90 -3 25 -9 50 -13 55 -5 6 -8 38
-8 72 0 34 -5 78 -12 98 -7 20 -9 50 -6 66 3 17 1 73 -4 126 -8 72 -17 108
-38 146 -15 28 -32 52 -39 54 -21 7 -42 -52 -44 -123 -1 -38 -1 -130 -1 -204
0 -74 0 -144 0 -155 0 -17 11 -305 14 -370 1 -11 -1 -45 -5 -75 -3 -30 -6 -62
-6 -70 -1 -16 -38 21 -77 76 -24 33 -94 252 -94 292 0 30 -20 103 -32 117 -4
5 -8 21 -8 36 0 45 -22 125 -40 150 -16 20 -21 22 -45 11 -14 -7 -33 -28 -41
-47 -15 -38 -45 -280 -37 -302 6 -15 -13 -18 -21 -4 -4 5 -8 56 -10 113 -4
104 -20 206 -34 219 -7 7 -37 12 -58 10 -25 -2 -43 -87 -48 -236 -7 -186 -15
-277 -27 -290 -5 -5 -9 28 -9 80 -1 335 -46 602 -102 613 -53 10 -111 -87
-121 -203 -3 -39 -11 -104 -16 -145 -6 -41 -18 -129 -26 -194 -8 -65 -17 -121
-20 -124 -14 -15 -18 29 -21 265 -4 270 -10 326 -35 331 -26 5 -59 -31 -69
-73 -5 -22 -12 -94 -15 -160 -7 -160 -15 -245 -24 -245 -4 0 -13 27 -19 60
l-13 60 -39 0 c-37 0 -40 -2 -50 -39 -5 -21 -13 -60 -16 -87 -3 -27 -9 -60
-14 -74 -4 -14 -13 -59 -20 -100 -7 -41 -21 -104 -31 -139 -11 -35 -19 -78
-19 -95 0 -41 -40 -157 -90 -261 -21 -44 -41 -88 -44 -97 -8 -25 -35 -22 -40
5 -17 82 -18 92 -11 167 17 191 28 525 28 855 1 278 -1 307 -21 389 -26 104
-33 115 -67 108 -46 -8 -50 -25 -50 -185 -1 -109 -4 -152 -13 -155 -7 -2 -12
6 -12 22 0 14 -6 40 -14 58 -8 18 -22 54 -31 81 -9 26 -26 52 -38 58 -18 10
-25 7 -48 -19 -39 -44 -46 -83 -48 -282 -2 -172 -8 -260 -17 -270 -12 -11 -24
29 -24 80 -1 59 -31 185 -49 203 -8 8 -17 4 -35 -12 -27 -25 -40 -95 -36 -196
6 -161 3 -265 -8 -265 -10 0 -32 90 -32 133 -1 44 -35 117 -56 117 -9 0 -27
-11 -40 -26 -22 -23 -30 -57 -27 -119 7 -126 2 -552 -6 -592 -5 -28 -13 -82
-16 -120 -6 -74 -33 -183 -45 -183 -20 0 -31 112 -35 367 -7 405 -15 483 -50
483 -18 0 -52 -42 -60 -75 -4 -16 -9 -52 -11 -78 -2 -26 -8 -56 -13 -66 -5 -9
-15 -48 -22 -85 -12 -72 -21 -78 -25 -18 -3 40 -9 114 -24 282 -5 58 -12 157
-15 220 -7 158 -11 197 -36 385 -11 86 -44 239 -62 293 -16 46 -50 53 -87 17
-22 -21 -31 -42 -40 -93 -6 -37 -15 -83 -20 -102 -5 -19 -11 -62 -14 -95 -11
-152 -28 -277 -63 -467 -2 -16 -9 -28 -13 -28 -13 0 -30 34 -30 58 0 27 -44
125 -63 141 -48 39 -112 -40 -124 -154 -10 -82 -28 -96 -36 -26 -8 70 -55 155
-88 159 -32 4 -75 -30 -93 -73 -29 -69 -55 -206 -71 -370 -20 -201 -23 -218
-35 -210 -6 3 -10 39 -10 78 0 40 -7 99 -15 130 -8 32 -15 86 -15 120 0 65
-23 131 -53 156 -14 11 -20 11 -33 0 -17 -14 -55 -83 -53 -96 7 -40 -12 -105
-26 -92 -3 4 -8 98 -11 210 -11 385 -32 523 -91 591 -14 15 -17 14 -43 -15
-24 -29 -33 -53 -56 -162 -3 -16 -8 -66 -9 -110 -4 -106 -26 -265 -36 -265 -5
0 -9 18 -9 40 0 21 -4 61 -9 87 -21 110 -30 174 -41 288 -12 118 -18 148 -47
213 -19 43 -39 50 -68 22 -26 -24 -24 -11 -45 -340 -7 -96 -13 -177 -15 -179
-2 -2 -18 7 -34 19 l-31 21 -25 -28 c-22 -25 -24 -36 -24 -118 0 -49 4 -112 8
-138 12 -70 4 -95 -29 -102 -37 -8 -47 -37 -60 -178 -6 -62 -15 -152 -20 -202
-5 -49 -12 -128 -15 -175 -6 -84 -24 -170 -36 -170 -6 0 -24 154 -34 290 -3
41 -10 124 -16 184 -5 60 -12 139 -15 175 -7 97 -13 120 -38 137 -29 18 -50
11 -66 -24 -12 -25 -14 -19 -32 88 -10 63 -20 131 -22 150 -7 59 -26 124 -44
143 -20 23 -56 18 -60 -8 -2 -11 -9 -33 -16 -50 -13 -29 -39 -153 -51 -248 -4
-27 -9 -46 -13 -43 -10 11 -43 138 -47 181 -9 102 -28 204 -46 242 -10 24 -19
51 -19 61 0 23 -36 62 -56 62 -49 0 -67 -37 -79 -167 -4 -40 -11 -73 -16 -73
-5 0 -8 3 -7 8 3 13 -30 110 -47 136 -14 21 -22 24 -48 19 -18 -3 -35 -8 -39
-12 -4 -3 -10 -34 -13 -69 -4 -34 -10 -74 -14 -89 -7 -25 -8 -21 -14 25 -6 50
-53 152 -70 152 -5 0 -23 -11 -41 -25 -32 -24 -32 -26 -35 -112 -4 -176 -21
-400 -34 -468 l-13 -70 -8 70 c-4 39 -9 84 -11 100 -8 108 -18 155 -36 171
-17 16 -20 16 -44 0 -53 -35 -54 -32 -58 330 -2 192 -4 214 -21 233 -47 51
-82 6 -72 -93 7 -66 -2 -138 -15 -130 -5 3 -8 8 -5 12 5 9 -11 125 -26 184 -7
28 -24 59 -39 74 -27 26 -29 26 -53 11 -36 -24 -71 -111 -85 -212 -7 -49 -20
-115 -28 -145 -9 -30 -21 -91 -28 -135 -8 -58 -15 -80 -26 -80 -9 0 -15 13
-17 35 -8 81 -65 243 -95 268 -9 8 -26 10 -40 7 -24 -6 -26 -12 -32 -89 -4
-45 -5 -95 -4 -110 3 -17 -1 -31 -8 -33 -8 -3 -13 4 -13 19 0 52 -60 90 -87
56 -6 -8 -11 -125 -12 -268 -3 -225 -4 -272 -10 -327 -2 -22 -30 -14 -35 10
-3 12 -8 67 -11 122 -4 55 -12 131 -19 168 -13 74 -29 93 -71 83 -20 -5 -24
-14 -30 -66 -7 -63 -21 -86 -29 -48 -3 13 -12 55 -20 93 -8 39 -20 102 -25
140 -6 39 -13 88 -16 110 -3 22 -8 63 -10 90 -3 28 -9 64 -14 82 -5 17 -7 34
-5 36 6 5 -42 345 -52 370 -7 20 -37 23 -52 5 -20 -25 -25 -86 -27 -288 -1
-113 -5 -216 -8 -230 -8 -32 -14 -96 -23 -232 -7 -110 -19 -138 -29 -70 -3 20
-12 75 -20 122 -8 47 -15 96 -15 110 0 14 -7 57 -15 95 -9 39 -22 99 -29 135
-12 63 -30 105 -60 144 -14 18 -17 18 -40 3 -41 -28 -49 -73 -61 -357 -4 -80
-9 -152 -12 -160 -8 -24 -20 17 -28 96 -16 163 -67 242 -120 184 -15 -17 -20
-46 -26 -148 -5 -70 -11 -143 -15 -162 -3 -19 -8 -62 -10 -95 -4 -72 -14 -138
-20 -132 -3 2 -9 47 -15 98 -12 105 -32 159 -59 159 -31 0 -40 -54 -40 -231 0
-92 -4 -170 -9 -173 -9 -6 -31 36 -31 61 0 9 -5 33 -12 54 -9 33 -15 39 -38
39 -25 0 -29 -6 -48 -67 -11 -38 -21 -92 -21 -121 0 -28 -3 -57 -7 -63 -12
-20 -24 13 -24 66 0 28 -4 66 -9 85 -17 63 -43 327 -77 780 -12 173 -39 262
-80 268 -11 2 -28 -6 -38 -16 -15 -17 -17 -42 -16 -198 0 -194 3 -261 14 -311
8 -36 5 -39 -23 -21 -15 9 -24 8 -44 -5 -20 -13 -26 -26 -29 -69 -2 -29 -1
-75 2 -103 3 -27 3 -81 0 -120 -6 -78 -10 -71 -33 55 -16 85 -55 178 -77 183
-8 1 -23 -6 -34 -18 -16 -17 -17 -31 -12 -105 13 -185 18 -520 8 -520 -14 0
-19 19 -37 140 -9 58 -18 121 -22 141 -3 19 -14 46 -24 60 l-19 24 -20 -23
c-21 -25 -21 -50 -1 -182 5 -30 9 -93 10 -140 0 -47 3 -125 6 -175 2 -50 0
-97 -5 -105 -5 -8 -10 -13 -11 -10 -1 3 -7 43 -14 90 -8 47 -18 108 -23 135
-6 28 -13 93 -16 145 -4 52 -9 118 -12 145 -2 28 -7 114 -9 193 -2 78 -7 147
-10 152 -9 15 -36 12 -56 -6 -13 -11 -16 -25 -12 -45 7 -36 -6 -179 -17 -179
-8 0 -25 80 -35 170 -4 30 -8 57 -10 60 -2 3 -6 39 -10 80 -4 41 -11 98 -16
125 -5 28 -12 87 -14 133 -7 117 -21 165 -54 185 -15 8 -32 13 -38 9 -19 -12
-35 -120 -29 -190 10 -111 17 -344 10 -364 -8 -27 -20 -22 -41 20 -22 45 -52
53 -82 21 -17 -18 -20 -31 -16 -63 9 -71 13 -186 6 -186 -4 0 -15 9 -24 21
-38 44 -61 15 -73 -96 -6 -55 -8 -57 -14 -27 -11 46 -50 100 -82 111 -24 8
-28 16 -29 48 -1 21 -1 41 0 45 0 3 -6 28 -14 55 -7 26 -16 82 -18 123 -3 41
-7 82 -10 90 -3 8 -13 80 -22 160 -26 228 -60 313 -110 276 -14 -10 -16 -22
-11 -72 4 -32 9 -95 11 -139 3 -44 9 -103 13 -132 5 -29 5 -80 0 -115 -5 -35
-7 -71 -4 -81 7 -30 -3 -48 -22 -38 -24 13 -61 -4 -67 -31 -2 -13 -6 -43 -7
-68 -4 -56 -25 -60 -43 -8 -18 54 -43 88 -63 88 -31 -1 -54 -27 -57 -67 -1
-21 -5 -78 -9 -128 -5 -49 -9 -117 -10 -150 -10 -218 -20 -325 -31 -325 -7 0
-16 16 -20 36 -3 20 -12 50 -20 68 -7 17 -19 58 -25 91 -7 33 -20 87 -30 120
-16 54 -21 83 -36 210 -8 64 -46 155 -66 155 -22 0 -56 -49 -64 -92 -4 -18
-10 -37 -14 -43 -3 -5 -8 -62 -9 -125 -2 -110 -5 -129 -16 -118 -8 7 -36 147
-45 225 -4 40 -11 77 -15 83 -10 16 -16 47 -31 155 -24 175 -57 279 -92 292
-33 13 -42 -19 -46 -182 -5 -161 -11 -320 -14 -385 -1 -20 -6 -30 -11 -25 -9
10 -101 298 -101 316 0 19 -45 109 -58 113 -7 3 -23 1 -36 -5 -24 -11 -32 -34
-42 -124 -2 -22 -10 -67 -16 -100 -12 -62 -15 -88 -17 -142 -2 -49 -25 -41
-46 15 -26 66 -55 103 -80 100 -29 -4 -57 -71 -66 -162 -4 -43 -10 -80 -12
-82 -10 -11 -21 253 -23 546 -1 422 -9 546 -37 602 -25 50 -55 60 -86 29z"/>
<path d="M1531 9159 c-60 -10 -107 -22 -112 -30 -10 -14 -9 -26 11 -114 6 -27
13 -72 16 -100 3 -27 12 -60 20 -72 8 -12 14 -31 14 -41 0 -26 58 -82 86 -82
12 0 26 -5 29 -10 4 -6 23 -17 43 -26 41 -16 82 -70 82 -108 0 -22 -7 -26 -62
-38 -61 -14 -137 -11 -211 7 -31 8 -59 -9 -50 -31 17 -45 -51 17 -100 92 -27
40 -77 84 -96 84 -15 0 -22 32 -35 145 -8 75 -19 126 -27 131 -5 3 -9 13 -9
22 0 26 -47 90 -79 106 -15 8 -63 24 -106 35 -81 21 -123 19 -182 -11 -29 -15
-31 -67 -4 -92 18 -17 25 -17 162 -14 61 2 88 -10 114 -51 13 -22 27 -63 31
-93 4 -29 10 -60 15 -69 14 -28 -11 -50 -46 -41 -16 4 -59 7 -95 6 -144 -4
-205 -33 -251 -120 -39 -72 -44 -107 -23 -154 10 -22 21 -40 25 -40 4 0 10 -8
13 -17 4 -10 23 -29 44 -43 34 -22 47 -25 144 -24 71 0 112 4 120 12 7 7 19
12 28 12 28 0 119 100 134 148 4 12 12 22 18 22 19 0 88 -78 88 -99 0 -30 57
-91 78 -84 24 9 32 23 32 61 0 17 3 32 6 32 3 0 19 -14 35 -31 29 -32 30 -32
102 -25 131 12 143 15 199 39 90 40 125 127 83 207 -25 48 -118 134 -163 149
-67 24 -89 54 -102 135 -5 28 -10 60 -12 70 -4 26 31 34 172 38 l115 4 1 34
c0 19 -3 42 -7 51 -18 35 -136 42 -288 18z m-484 -515 c30 -12 32 -15 23 -38
-5 -14 -7 -33 -3 -42 7 -20 -50 -81 -96 -100 -18 -8 -65 -14 -103 -14 -60 0
-72 3 -93 25 -18 17 -25 35 -25 61 0 31 7 45 45 80 37 36 52 44 92 47 62 5
119 -2 160 -19z"/>
<path d="M1953 9053 c-56 -33 -110 -93 -100 -110 3 -4 8 -60 11 -123 6 -118
14 -159 37 -201 19 -32 70 -80 80 -73 5 2 16 0 26 -5 44 -23 127 -31 173 -17
56 17 140 56 140 65 0 3 11 18 25 33 14 15 28 41 31 58 4 17 10 32 13 35 4 2
6 35 5 73 -1 60 -5 76 -33 115 -17 25 -31 50 -31 55 0 17 -90 93 -128 109 -20
8 -72 17 -114 18 -71 2 -80 0 -135 -32z m212 -87 c19 -8 47 -26 62 -40 15 -14
36 -26 45 -26 22 0 29 -29 25 -100 -5 -68 -26 -111 -74 -147 -31 -24 -45 -28
-94 -26 -101 3 -140 35 -163 137 -24 101 -6 169 53 201 34 18 103 19 146 1z"/>
<path d="M11254 7437 c-16 -19 -38 -45 -50 -58 -56 -65 -171 -147 -272 -194
-61 -28 -71 -45 -46 -83 22 -34 42 -49 74 -57 39 -9 110 -39 110 -47 0 -7 -39
-90 -66 -138 -10 -19 -50 -65 -88 -102 l-68 -68 -58 0 c-62 0 -90 -15 -90 -49
0 -30 38 -61 75 -61 19 0 35 -5 35 -10 0 -6 -22 -26 -49 -45 -27 -20 -51 -39
-53 -43 -2 -4 -21 -22 -43 -41 -22 -18 -70 -62 -107 -97 -52 -50 -65 -68 -61
-84 13 -48 127 -130 182 -130 13 0 39 14 58 30 42 37 51 37 59 3 3 -16 10 -44
15 -63 5 -19 9 -47 9 -63 0 -38 57 -137 80 -137 10 0 25 12 35 26 16 25 16 29
-4 90 -12 36 -21 79 -21 97 0 18 -4 47 -10 66 -5 18 -12 63 -15 100 -7 80 -13
116 -27 157 -9 25 -8 36 5 55 10 13 17 38 17 56 0 28 13 46 88 120 61 62 103
115 140 180 30 51 60 97 68 104 14 11 29 10 134 -7 24 -4 43 -16 60 -39 32
-42 59 -60 72 -47 20 20 20 88 -2 162 -12 41 -28 107 -35 145 -33 187 -74 305
-106 305 -10 0 -30 -15 -45 -33z m-517 -1123 c-18 -62 -55 -93 -92 -76 -14 6
-25 18 -25 26 0 16 123 119 128 106 2 -5 -3 -30 -11 -56z"/>
<path d="M10265 6518 c-48 -17 -206 -131 -255 -184 -25 -27 -54 -68 -64 -90
-18 -42 -18 -42 5 -75 33 -47 47 -56 104 -67 61 -12 113 5 166 55 20 19 39 31
41 26 3 -4 6 -62 7 -128 1 -104 5 -126 26 -172 14 -28 29 -54 33 -57 5 -3 21
7 36 23 24 25 26 31 15 57 -7 18 -13 129 -16 304 l-5 275 -27 22 c-30 25 -26
25 -66 11z m-1 -160 c-8 -54 -35 -99 -78 -131 -42 -33 -75 -41 -109 -28 -36
14 -35 43 4 78 17 15 42 38 55 50 27 24 76 54 109 64 11 4 21 7 23 8 1 1 -1
-18 -4 -41z"/>
<path d="M9563 6130 c-24 -21 -43 -44 -43 -49 0 -21 24 -61 37 -61 18 0 17
-19 -2 -26 -24 -10 -21 -155 4 -178 22 -20 32 -111 35 -339 1 -127 4 -160 16
-167 21 -13 25 -13 45 9 11 13 19 43 22 83 5 60 5 316 0 368 -1 18 3 25 18 27
48 8 132 36 150 51 67 55 81 124 42 202 -20 39 -33 50 -97 82 -59 30 -87 38
-130 38 -50 0 -59 -4 -97 -40z m197 -83 c24 -12 51 -34 59 -48 13 -24 13 -29
-2 -52 -15 -23 -68 -53 -124 -71 -21 -7 -53 41 -53 79 0 13 -12 37 -26 54
l-26 31 34 15 c46 20 85 18 138 -8z"/>
<path d="M5605 4510 c-189 -9 -210 -26 -214 -174 -1 -52 -4 -106 -6 -118 -5
-23 17 -82 34 -92 4 -3 23 -1 42 5 62 20 114 21 154 5 20 -9 44 -16 53 -16 22
0 110 -62 114 -80 4 -17 -16 -34 -84 -73 -55 -32 -111 -35 -164 -10 -35 17
-36 17 -50 -2 -17 -23 -10 -52 22 -85 19 -19 36 -25 89 -28 102 -7 206 45 262
129 l26 39 -18 46 c-28 73 -78 113 -205 164 -30 12 -63 26 -72 31 -9 5 -35 12
-58 15 -53 9 -62 28 -40 80 l18 41 73 7 c134 14 153 16 188 26 49 13 67 51 37
78 -23 20 -28 21 -201 12z"/>
<path d="M6115 4493 c-11 -2 -30 -6 -43 -9 -38 -8 -137 -117 -151 -166 -16
-59 -20 -118 -9 -147 5 -13 11 -40 14 -60 16 -107 114 -151 190 -86 34 29 25
44 -42 70 -52 20 -64 42 -64 113 0 111 44 170 133 179 48 5 61 2 99 -20 55
-34 88 -62 88 -76 0 -6 3 -11 8 -11 4 0 15 -21 26 -46 24 -58 16 -122 -22
-184 -52 -85 -171 -132 -241 -96 -62 32 -71 -14 -12 -62 53 -43 80 -47 159
-26 57 15 75 26 122 73 81 81 94 115 86 218 -5 75 -21 123 -47 143 -3 3 -13
19 -22 36 -48 93 -189 174 -272 157z"/>
<path d="M5100 4100 c-86 -18 -114 -34 -124 -68 -7 -26 -6 -36 5 -43 13 -9 23
-8 82 7 24 6 24 6 14 -50 -6 -31 -14 -56 -18 -56 -4 0 -17 -13 -29 -30 -26
-37 -19 -68 19 -81 24 -9 29 -18 45 -97 43 -208 48 -289 25 -408 -4 -21 2 -34
22 -44 31 -17 44 1 59 79 12 63 11 118 -4 231 -8 60 -19 177 -19 200 1 66 2
68 51 86 26 9 51 21 57 26 5 4 16 8 25 8 28 0 80 71 80 110 0 93 -150 160
-290 130z m135 -107 c30 -9 55 -22 55 -28 0 -11 -106 -65 -127 -65 -14 0 -17
48 -7 88 8 26 8 27 79 5z"/>
<path d="M4725 3686 c-123 -36 -236 -158 -343 -371 -25 -49 -49 -93 -54 -96
-6 -3 -9 -10 -8 -15 3 -19 -71 -28 -150 -18 -62 7 -86 6 -105 -4 -14 -7 -25
-14 -25 -15 0 -2 11 -36 25 -77 13 -41 25 -92 25 -113 0 -20 13 -77 29 -125
16 -48 32 -100 36 -117 10 -46 48 -124 63 -130 26 -10 66 30 130 130 107 166
115 176 174 229 32 28 58 56 58 63 0 7 13 22 29 34 22 16 29 30 29 52 -1 25
-8 32 -47 50 -28 12 -64 19 -92 18 -50 -1 -67 14 -50 47 5 9 24 46 42 82 18
36 44 83 57 105 30 48 159 175 178 175 8 0 14 4 14 8 0 4 20 13 45 20 37 10
45 16 45 35 0 16 -9 28 -25 35 -30 14 -27 14 -80 -2z"/>
<path d="M11774 2262 c-33 -26 -36 -49 -12 -77 22 -25 62 -33 73 -15 8 13 -12
85 -28 98 -9 8 -18 6 -33 -6z"/>
<path d="M979 2231 c-60 -29 -83 -67 -59 -95 16 -20 48 -20 117 0 40 12 76 14
127 10 39 -3 78 -6 86 -7 26 -1 64 -35 57 -51 -7 -20 -159 -83 -219 -91 -83
-11 -108 -44 -72 -95 12 -17 25 -22 60 -22 25 0 62 -9 84 -20 22 -11 49 -20
60 -20 27 0 70 -22 94 -49 11 -12 29 -21 40 -21 23 0 56 -32 56 -54 0 -7 -8
-20 -17 -29 -24 -20 -129 -55 -173 -56 -19 -1 -57 -3 -85 -4 -27 -2 -59 2 -71
9 -38 23 -84 3 -84 -36 0 -53 98 -102 160 -80 14 5 48 12 75 15 118 15 138 21
202 51 51 25 63 42 77 107 13 59 -53 139 -156 187 -25 12 -54 30 -63 40 -16
18 -15 19 17 36 89 46 124 93 118 159 -9 110 -287 184 -431 116z"/>
<path d="M1790 2249 c-61 -7 -137 -38 -161 -66 -9 -10 -28 -43 -44 -73 -24
-47 -28 -67 -28 -140 -1 -101 12 -149 54 -214 50 -74 64 -80 194 -79 129 2
180 17 251 77 63 53 84 101 84 200 0 77 -1 81 -40 132 -40 54 -103 109 -155
137 -47 25 -95 33 -155 26z m141 -137 c39 -16 88 -80 105 -139 13 -45 13 -56
1 -85 -20 -45 -64 -84 -116 -103 -63 -22 -89 -19 -161 18 -86 43 -103 74 -96
175 2 40 11 84 20 96 17 27 81 60 102 52 8 -3 24 -2 36 3 22 8 61 2 109 -17z"/>
<path d="M10537 2234 c-33 -28 -32 -60 3 -82 49 -30 90 43 48 84 l-23 23 -28
-25z"/>
<path d="M9675 2224 c-30 -33 -31 -38 -5 -64 22 -22 60 -26 78 -8 18 18 14 63
-6 81 -26 23 -39 21 -67 -9z"/>
<path d="M8684 2197 c-25 -22 -27 -26 -14 -42 13 -16 13 -19 -4 -29 -71 -43
-93 -88 -56 -118 40 -33 58 -24 76 40 11 39 26 65 48 83 27 24 30 30 21 55
-13 37 -36 41 -71 11z"/>
<path d="M4048 2177 c-17 -24 -13 -80 6 -96 8 -7 20 -6 36 3 21 10 25 19 24
55 -1 60 -38 82 -66 38z"/>
<path d="M5087 2170 c-41 -45 -34 -90 13 -90 43 0 68 48 50 96 -13 32 -31 30
-63 -6z"/>
<path d="M5628 2179 c-39 -62 -24 -130 28 -124 15 1 31 10 36 19 5 9 16 22 24
29 33 27 44 39 44 46 0 21 -30 42 -71 47 -40 6 -47 4 -61 -17z"/>
<path d="M11547 2182 c-10 -10 -17 -26 -17 -35 0 -25 40 -57 72 -57 33 0 37
23 12 76 -18 38 -42 44 -67 16z"/>
<path d="M6068 2163 c-20 -23 -32 -78 -21 -97 13 -23 104 -69 115 -58 5 5 6
40 2 80 -6 67 -8 71 -37 81 -39 14 -41 14 -59 -6z"/>
<path d="M10452 2154 c-16 -11 -22 -25 -22 -55 0 -37 2 -39 30 -39 34 0 70 30
70 59 0 17 -33 51 -50 51 -3 0 -16 -7 -28 -16z"/>
<path d="M13848 2113 c-79 -82 -113 -189 -67 -213 23 -13 49 1 49 26 0 7 11
21 24 30 18 11 26 26 28 52 2 30 7 37 24 38 35 2 44 13 44 53 0 33 -22 71 -41
71 -3 0 -30 -26 -61 -57z"/>
<path d="M3143 2123 c-18 -7 -17 -72 1 -79 28 -11 56 15 56 51 0 30 -3 35 -22
34 -13 0 -29 -3 -35 -6z"/>
<path d="M6800 2095 c-28 -34 38 -93 69 -62 15 15 14 50 -1 65 -17 17 -53 15
-68 -3z"/>
<path d="M8762 2100 c-32 -13 -37 -35 -18 -75 18 -36 34 -42 67 -25 23 13 24
41 4 80 -17 32 -19 33 -53 20z"/>
<path d="M13524 2073 c-32 -51 -78 -93 -100 -93 -12 0 -26 -6 -32 -13 -16 -19
0 -72 21 -71 57 3 68 6 87 26 12 13 19 31 17 40 -6 21 17 42 37 35 9 -4 22 7
35 29 25 42 25 39 5 58 -23 24 -50 19 -70 -11z"/>
<path d="M11643 2052 c-30 -54 -22 -76 28 -80 47 -3 56 10 43 71 -12 58 -41
61 -71 9z"/>
<path d="M7996 2057 c-38 -31 -30 -62 20 -71 43 -9 54 -2 54 34 0 64 -24 76
-74 37z"/>
<path d="M8392 2040 c-19 -18 -20 -24 -10 -48 40 -90 76 -98 85 -16 8 73 -30
105 -75 64z"/>
<path d="M9827 2053 c-13 -12 -6 -48 12 -70 19 -23 86 -55 95 -45 10 9 7 60
-4 67 -5 3 -10 14 -10 25 0 10 -7 21 -16 24 -21 8 -69 8 -77 -1z"/>
<path d="M12003 2048 c-13 -6 -23 -16 -23 -22 0 -6 -3 -20 -6 -31 -4 -15 3
-25 25 -38 29 -17 31 -17 51 3 23 23 24 26 9 69 -12 33 -21 36 -56 19z"/>
<path d="M5006 2033 c-15 -15 -35 -74 -30 -87 7 -18 57 -28 66 -13 4 7 8 33 8
60 0 39 -3 47 -18 47 -10 0 -22 -3 -26 -7z"/>
<path d="M6691 1991 c-23 -27 -41 -57 -41 -68 0 -29 36 -62 60 -56 11 3 20 6
21 7 0 0 2 21 5 46 3 25 9 57 15 72 11 26 6 48 -11 48 -4 0 -27 -22 -49 -49z"/>
<path d="M9092 2024 c-14 -9 -22 -26 -22 -43 0 -22 -9 -34 -41 -55 -22 -15
-50 -43 -61 -62 -17 -29 -25 -34 -57 -34 -43 0 -66 -15 -74 -48 -4 -15 1 -27
16 -37 27 -19 32 -19 52 2 15 14 23 15 61 5 24 -7 48 -12 53 -12 5 0 17 35 26
78 10 42 22 83 28 89 5 7 7 20 3 28 -7 19 7 19 45 0 52 -28 64 1 27 66 -25 44
-26 45 -56 23z"/>
<path d="M12318 2030 c-23 -14 -58 -73 -58 -99 0 -17 6 -21 34 -21 18 0 38 6
44 13 16 19 25 64 18 92 -7 27 -12 29 -38 15z"/>
<path d="M5185 2006 c-39 -39 -9 -88 44 -71 25 8 34 55 14 78 -21 23 -29 22
-58 -7z"/>
<path d="M10196 2012 c-3 -10 -25 -34 -49 -54 -52 -43 -77 -104 -59 -143 21
-47 76 -19 87 44 7 41 35 74 73 86 25 7 31 52 10 73 -18 18 -56 15 -62 -6z"/>
<path d="M3977 2002 c-9 -10 -20 -39 -23 -64 -6 -40 -4 -47 15 -57 15 -8 27
-9 41 -1 17 9 19 20 17 73 -2 68 -19 84 -50 49z"/>
<path d="M12432 1997 c-29 -30 -28 -53 2 -72 32 -21 60 -7 75 37 10 28 9 35
-6 45 -25 19 -47 16 -71 -10z"/>
<path d="M2971 1970 c-25 -35 -28 -45 -18 -61 22 -36 63 -34 72 5 22 96 -4
124 -54 56z"/>
<path d="M4132 1987 c-19 -20 -20 -26 -9 -50 16 -36 55 -57 67 -37 15 23 11
77 -6 94 -21 21 -27 20 -52 -7z"/>
<path d="M5590 2000 c-8 -5 -25 -10 -37 -10 -35 0 -56 -78 -29 -106 19 -19 28
-18 70 7 33 19 56 63 56 107 0 14 -39 16 -60 2z"/>
<path d="M6363 2003 c-18 -3 -23 -11 -23 -37 0 -44 38 -64 75 -40 29 19 30 26
9 59 -16 25 -20 26 -61 18z"/>
<path d="M9575 2000 c-12 -4 -27 -15 -34 -24 -28 -33 29 -90 72 -73 21 8 36
71 22 90 -13 18 -29 20 -60 7z"/>
<path d="M10309 1979 c-17 -24 -20 -36 -12 -48 14 -23 40 -25 69 -6 27 18 26
49 -4 73 -23 17 -28 16 -53 -19z"/>
<path d="M13064 1983 c-10 -42 -13 -44 -44 -28 -27 14 -30 14 -44 -7 -21 -29
-20 -41 3 -69 l19 -24 33 24 c18 13 42 24 53 25 27 1 66 27 66 44 0 18 -46 62
-64 62 -9 0 -19 -12 -22 -27z"/>
<path d="M6953 1988 c-31 -15 -33 -74 -2 -83 26 -8 71 10 86 34 9 14 8 23 -3
40 -16 23 -46 26 -81 9z"/>
<path d="M4444 1965 c-10 -16 -14 -34 -10 -50 5 -21 12 -25 41 -25 39 0 53 25
34 62 -23 44 -42 48 -65 13z"/>
<path d="M5943 1973 c-26 -17 -30 -58 -10 -85 19 -24 118 -18 128 9 15 36 10
81 -8 86 -39 10 -89 5 -110 -10z"/>
<path d="M10920 1968 c-24 -26 -26 -63 -4 -72 9 -3 28 -6 44 -6 23 0 30 5 35
30 14 66 -31 95 -75 48z"/>
<path d="M11341 1955 c-16 -28 -26 -35 -52 -35 -57 0 -78 -59 -36 -98 24 -22
47 -29 47 -14 0 5 14 30 31 55 23 35 37 47 55 47 30 0 40 23 26 56 -16 35 -46
30 -71 -11z"/>
<path d="M8543 1960 c-45 -27 -53 -73 -18 -106 32 -30 51 -31 66 -3 12 24 7
105 -8 120 -5 5 -22 1 -40 -11z"/>
<path d="M9438 1965 c-35 -20 -44 -49 -21 -74 35 -36 56 -34 80 8 20 35 21 40
7 60 -18 25 -29 26 -66 6z"/>
<path d="M7960 1950 c-32 -32 -36 -68 -11 -93 16 -17 25 -19 38 -11 32 20 38
40 23 83 -15 46 -22 49 -50 21z"/>
<path d="M11492 1948 c-17 -11 -34 -28 -37 -38 -8 -26 22 -82 42 -78 20 4 53
65 53 99 0 36 -20 41 -58 17z"/>
<path d="M12104 1945 c-20 -31 -10 -63 23 -71 21 -6 31 -1 50 20 40 46 27 76
-33 76 -14 0 -30 -10 -40 -25z"/>
<path d="M14007 1927 c-14 -24 -33 -49 -41 -57 -9 -7 -16 -25 -16 -40 0 -25 4
-28 43 -33 34 -5 46 -2 65 15 12 12 22 28 22 35 0 11 4 11 21 2 17 -9 33 -7
75 7 50 17 54 17 72 1 26 -23 35 -22 60 13 26 35 42 38 49 10 7 -25 15 -25 43
-2 16 13 20 24 15 44 -8 32 -39 42 -61 20 -13 -12 -20 -13 -35 -4 -31 20 -57
14 -80 -18 l-22 -29 -24 26 c-20 21 -31 24 -58 20 -25 -4 -38 -1 -51 14 -27
30 -50 23 -77 -24z"/>
<path d="M12600 1946 c-18 -18 -10 -44 20 -66 17 -12 30 -18 30 -15 0 4 11 0
25 -9 32 -21 68 -20 88 2 24 26 21 45 -9 73 -20 19 -36 24 -85 24 -33 0 -64
-4 -69 -9z"/>
<path d="M13601 1938 c-10 -26 -6 -38 13 -38 8 0 19 -7 26 -15 7 -8 21 -15 31
-15 14 0 19 7 19 29 0 49 -9 61 -46 61 -27 0 -37 -5 -43 -22z"/>
<path d="M3217 1932 c-24 -26 -21 -59 7 -77 23 -15 26 -15 46 5 31 31 25 84
-11 88 -15 2 -32 -5 -42 -16z"/>
<path d="M5737 1943 c-3 -5 -7 -24 -9 -43 -3 -34 -2 -35 32 -35 31 0 35 3 38
28 2 16 -2 35 -9 43 -12 15 -45 19 -52 7z"/>
<path d="M6191 1931 c-36 -36 -21 -81 26 -81 28 0 41 26 34 65 -7 37 -33 43
-60 16z"/>
<path d="M6529 1921 c-22 -17 -22 -21 -10 -45 24 -44 101 -27 101 23 0 42 -51
54 -91 22z"/>
<path d="M10647 1920 c-43 -34 -31 -83 25 -103 26 -9 50 33 46 80 -4 46 -30
55 -71 23z"/>
<path d="M3496 1906 c-23 -19 -27 -29 -22 -50 12 -47 81 -28 87 24 7 53 -19
63 -65 26z"/>
<path d="M7111 1896 c-26 -42 -26 -52 -1 -66 16 -8 28 -5 60 16 22 15 40 30
40 33 0 9 -57 51 -69 51 -5 0 -19 -15 -30 -34z"/>
<path d="M9262 1921 c-13 -3 -31 -18 -40 -33 -16 -27 -16 -29 6 -50 l23 -23
37 21 c30 18 38 28 40 58 3 32 1 36 -20 35 -13 -1 -33 -4 -46 -8z"/>
<path d="M4838 1897 c-57 -39 -44 -108 18 -93 15 4 24 10 21 13 -4 3 0 18 8
34 31 59 7 82 -47 46z"/>
<path d="M4605 1897 c-14 -11 -16 -21 -11 -50 7 -40 20 -45 53 -22 31 22 35
52 10 70 -26 18 -29 18 -52 2z"/>
<path d="M8095 1876 c-27 -21 -28 -26 -17 -50 10 -23 17 -26 62 -26 40 0 50 3
50 17 0 17 -46 83 -58 83 -4 0 -20 -11 -37 -24z"/>
<path d="M3875 1849 c-14 -30 -16 -45 -8 -57 23 -38 73 -19 80 31 12 75 -42
94 -72 26z"/>
<path d="M11077 1862 c-34 -35 -35 -69 -3 -82 47 -17 65 -1 114 103 2 4 -16 7
-40 7 -35 0 -50 -6 -71 -28z"/>
<path d="M5297 1862 c-25 -27 -21 -60 7 -74 37 -16 56 -4 56 35 0 54 -32 73
-63 39z"/>
<path d="M7798 1855 c-21 -28 -22 -44 -4 -67 19 -26 35 -22 72 18 41 43 42 50
7 58 -16 4 -35 9 -43 11 -8 2 -23 -7 -32 -20z"/>
<path d="M8252 1847 c-17 -18 -32 -37 -32 -43 0 -5 13 -22 28 -37 28 -27 29
-27 46 -8 20 22 37 86 29 107 -8 23 -36 15 -71 -19z"/>
<path d="M13197 1862 c-21 -23 -21 -42 -3 -68 14 -19 15 -19 40 5 28 27 33 50
14 69 -17 17 -32 15 -51 -6z"/>
<path d="M3640 1849 c-24 -43 11 -90 54 -73 18 7 21 46 6 75 -14 25 -46 24
-60 -2z"/>
<path d="M5418 1828 c-39 -52 -43 -84 -14 -104 44 -28 60 -16 68 51 9 88 -12
108 -54 53z"/>
<path d="M7625 1849 c-22 -5 -44 -14 -48 -18 -14 -14 24 -71 48 -71 19 0 75
58 75 78 0 8 -27 25 -33 21 -1 -1 -20 -5 -42 -10z"/>
<path d="M12816 1844 c-30 -30 -10 -74 34 -74 23 0 30 -5 30 -19 0 -10 12 -26
26 -36 29 -19 45 -11 70 36 18 35 18 63 0 78 -11 9 -20 6 -41 -14 -16 -14 -29
-25 -31 -25 -2 0 -11 16 -20 35 -18 38 -43 45 -68 19z"/>
<path d="M13689 1839 c-27 -27 -24 -50 16 -103 39 -50 53 -55 78 -28 44 48 25
116 -37 137 -34 12 -40 11 -57 -6z"/>
<path d="M11859 1823 c-14 -38 -3 -72 27 -83 16 -7 31 -25 41 -49 15 -39 50
-65 71 -52 27 16 32 154 8 179 -4 3 -13 -4 -22 -16 -16 -23 -44 -30 -44 -12 0
14 -46 60 -60 60 -6 0 -15 -12 -21 -27z"/>
<path d="M7293 1817 c-28 -27 -29 -45 -5 -63 24 -19 46 -17 65 4 20 22 22 53
5 70 -18 18 -40 14 -65 -11z"/>
<path d="M13297 1822 c-23 -25 -21 -65 3 -87 19 -17 21 -17 40 0 24 22 26 53
4 83 -18 27 -26 27 -47 4z"/>
<path d="M5853 1798 c-23 -26 -29 -39 -24 -58 4 -14 15 -26 24 -28 50 -10 100
77 61 105 -24 18 -26 17 -61 -19z"/>
<path d="M4325 1802 c-11 -9 -32 -34 -48 -54 -24 -33 -26 -40 -15 -58 9 -14
21 -20 38 -18 20 2 31 16 56 68 18 36 30 68 27 73 -7 12 -37 7 -58 -11z"/>
<path d="M3289 1787 c-23 -19 -25 -26 -16 -45 11 -24 47 -38 73 -28 10 4 25
-1 36 -11 27 -25 49 -7 64 51 10 40 10 48 -2 53 -9 3 -28 -7 -45 -23 l-31 -29
-22 28 c-26 32 -24 32 -57 4z"/>
<path d="M7403 1786 l-21 -24 29 -31 c29 -32 37 -33 72 -3 23 20 22 59 -2 72
-31 16 -56 12 -78 -14z"/>
<path d="M3766 1779 c-33 -26 -35 -71 -3 -94 21 -15 23 -14 50 17 29 34 35 66
15 86 -17 17 -32 15 -62 -9z"/>
<path d="M10790 1782 c-42 -23 -50 -57 -20 -90 11 -12 27 -22 34 -22 24 0 54
45 58 85 2 34 0 40 -17 43 -11 1 -36 -6 -55 -16z"/>
<path d="M10001 1762 c-37 -37 -38 -46 -6 -77 39 -40 69 -29 81 31 4 23 0 34
-20 53 l-25 24 -30 -31z"/>
</g>
</svg>
