<?xml version="1.0" standalone="no"?>
<!DOCTYPE svg PUBLIC "-//W3C//DTD SVG 20010904//EN"
 "http://www.w3.org/TR/2001/REC-SVG-20010904/DTD/svg10.dtd">
<svg version="1.0" xmlns="http://www.w3.org/2000/svg"
 width="521.898684pt" height="400.000000pt" viewBox="0 0 521.898684 400.000000"
 preserveAspectRatio="xMidYMid meet">
<metadata>
Created by potrace 1.15, written by Peter Selinger 2001-2017
</metadata>
<g transform="translate(-13.435959,436.855894) scale(0.036709,-0.036709)"
fill="#444444" stroke="none">
<path d="M13416 11866 c-31 -41 -32 -59 -8 -84 9 -10 28 -41 42 -68 13 -27 28
-51 32 -54 21 -16 98 -176 118 -245 12 -44 33 -112 46 -150 19 -58 24 -91 23
-182 -1 -168 -25 -238 -106 -306 -18 -16 -33 -34 -33 -42 0 -23 46 -26 92 -6
65 28 117 111 139 223 12 61 7 276 -7 299 -4 7 -9 30 -11 52 -5 57 -32 143
-48 157 -8 7 -15 24 -15 39 0 14 -16 55 -35 91 -19 35 -35 70 -35 78 0 7 -13
33 -30 57 -16 24 -30 46 -30 50 0 7 -47 71 -67 93 -7 7 -13 18 -13 23 0 20
-29 7 -54 -25z"/>
<path d="M7375 11882 c-6 -4 -18 -19 -28 -35 -18 -28 -17 -69 3 -127 10 -28
17 -80 29 -217 5 -50 11 -95 14 -100 8 -13 21 -198 22 -323 2 -143 0 -133 33
-152 26 -15 30 -15 85 8 72 30 257 43 338 24 42 -10 53 -10 74 4 14 9 25 23
25 31 0 21 -44 47 -93 56 -23 4 -60 12 -82 18 -67 16 -134 18 -203 5 -37 -7
-69 -11 -73 -8 -3 2 -9 52 -13 111 -4 59 -11 153 -16 208 -6 55 -13 138 -16
185 -3 47 -9 94 -14 105 -5 11 -11 46 -14 78 -4 32 -16 76 -29 98 -23 41 -26
43 -42 31z"/>
<path d="M12041 11819 c-53 -12 -96 -28 -118 -45 -54 -41 -111 -104 -124 -138
-7 -17 -17 -37 -23 -45 -56 -72 -38 -432 25 -499 10 -12 19 -27 19 -35 0 -7
12 -26 28 -40 113 -109 123 -116 178 -132 45 -13 62 -14 84 -5 25 10 50 46 50
71 0 11 -47 32 -106 48 -23 6 -49 21 -57 34 -8 12 -32 40 -51 62 -20 22 -39
51 -42 65 -3 14 -11 39 -19 56 -8 18 -17 75 -20 127 -7 103 5 187 35 248 29
55 118 129 199 163 58 25 85 54 70 73 -14 16 -22 16 -128 -8z"/>
<path d="M2190 11714 c-49 -19 -100 -47 -100 -56 0 -6 -11 -26 -25 -44 -31
-41 -32 -62 -2 -73 35 -14 44 -31 51 -101 5 -58 2 -88 -19 -156 -4 -14 0 -27
12 -39 16 -17 18 -37 18 -179 1 -130 4 -168 18 -198 36 -78 64 -31 72 117 10
179 15 186 87 109 41 -44 78 -73 153 -119 19 -12 42 -28 53 -38 21 -19 97 -24
107 -7 4 6 -2 28 -12 49 -13 28 -32 46 -69 65 -28 15 -98 67 -156 115 -59 49
-112 91 -120 94 -24 8 6 40 53 57 123 42 238 125 240 173 4 80 -8 104 -84 164
-47 37 -69 47 -101 49 -23 1 -41 3 -41 4 0 7 -119 20 -135 14z m200 -152 c71
-35 75 -56 21 -105 -22 -20 -53 -39 -68 -42 -27 -6 -47 -15 -85 -38 -12 -8
-21 -7 -33 3 -13 11 -15 30 -13 109 l3 96 29 2 c15 1 31 5 34 8 9 9 50 -3 112
-33z"/>
<path d="M8863 11701 c-28 -24 -31 -87 -9 -198 10 -46 16 -100 14 -120 l-3
-38 -45 3 c-50 3 -58 -1 -81 -38 -26 -43 -18 -54 51 -77 l65 -22 0 -73 c-1
-40 -5 -99 -9 -131 -8 -52 -7 -60 12 -77 31 -29 44 -25 74 23 27 43 31 57 43
142 16 120 10 110 86 128 142 34 164 55 113 110 -19 21 -31 26 -47 21 -12 -4
-26 -7 -32 -6 -43 4 -85 11 -93 16 -6 3 -13 34 -17 68 -3 35 -14 88 -24 118
-10 30 -26 81 -35 113 -18 61 -28 67 -63 38z"/>
<path d="M5572 11483 c-112 -23 -212 -107 -212 -177 0 -71 79 -167 196 -239
69 -43 95 -81 66 -96 -38 -20 -134 -42 -160 -37 -15 4 -38 8 -51 11 -13 2 -34
14 -46 25 -28 26 -30 26 -55 -14 -25 -41 -16 -63 34 -89 79 -42 173 -40 291 4
97 36 133 89 104 151 -12 25 -86 86 -137 112 -43 22 -108 89 -120 124 -5 15
-6 37 -1 48 11 32 86 66 162 74 48 6 72 13 82 26 50 65 -27 104 -153 77z"/>
<path d="M3525 11453 c-11 -2 -55 -11 -98 -19 -151 -29 -257 -115 -242 -195 6
-29 51 -76 97 -100 20 -10 38 -22 40 -27 1 -4 38 -23 81 -42 73 -32 100 -60
57 -60 -11 0 -20 -4 -20 -9 0 -11 -74 -25 -112 -22 -31 3 -78 -37 -78 -66 0
-10 13 -27 30 -36 35 -21 109 -18 210 9 72 19 123 60 142 115 9 26 7 35 -9 57
-11 15 -30 29 -43 30 -12 2 -36 12 -54 23 -17 10 -38 19 -46 19 -9 0 -32 11
-51 24 -20 14 -48 28 -63 32 -27 6 -56 38 -56 61 0 17 68 61 105 67 159 26
167 28 174 49 12 31 -17 100 -39 96 -3 -1 -14 -3 -25 -6z"/>
<path d="M8388 11417 c-31 -23 -75 -53 -98 -67 -47 -28 -147 -127 -183 -181
-29 -42 -57 -122 -57 -160 0 -38 55 -94 105 -108 34 -9 48 -8 99 12 33 12 74
37 91 55 18 17 37 32 43 32 6 0 37 32 68 70 32 39 62 70 67 70 4 0 18 -21 29
-47 30 -69 62 -107 112 -134 37 -19 47 -21 60 -10 9 8 16 18 16 24 0 9 -45 83
-60 97 -3 3 -11 23 -19 45 -8 21 -20 46 -28 53 -8 8 -17 27 -20 43 -3 15 -20
45 -37 66 -18 21 -35 46 -39 56 -3 9 -15 17 -25 17 -15 0 -18 8 -17 53 0 48
-2 52 -25 54 -16 1 -46 -13 -82 -40z m92 -100 c0 -13 -3 -27 -7 -31 -5 -4 -17
-35 -28 -68 -21 -65 -21 -65 -168 -169 -32 -22 -74 -43 -92 -46 -35 -6 -35 -5
-35 32 0 49 50 110 139 170 36 24 91 64 121 89 30 26 58 46 62 46 5 0 8 -10 8
-23z"/>
<path d="M13280 11456 c-3 -3 -25 -6 -48 -7 -23 -2 -42 -6 -42 -9 0 -4 -17
-15 -39 -24 -23 -11 -46 -32 -59 -54 l-20 -36 46 -68 c26 -37 56 -71 66 -74
11 -4 34 -21 51 -38 36 -37 61 -56 101 -76 46 -25 43 -52 -8 -69 -75 -24 -121
-29 -177 -20 -50 8 -57 6 -78 -13 -31 -29 -29 -39 13 -66 52 -34 163 -41 234
-16 59 21 127 75 141 111 12 31 -22 96 -58 112 -13 6 -26 18 -29 26 -4 8 -11
15 -18 15 -6 0 -16 9 -21 21 -6 12 -23 28 -39 38 -35 19 -86 68 -86 81 0 15
47 42 88 51 69 14 127 32 140 42 20 16 31 42 23 55 -7 12 -171 29 -181 18z"/>
<path d="M3845 11429 c-46 -28 -110 -92 -125 -127 -19 -42 -13 -74 17 -90 16
-9 18 -26 19 -129 1 -65 7 -131 13 -146 6 -16 11 -49 11 -75 0 -26 4 -85 10
-131 5 -45 10 -147 11 -225 2 -135 3 -142 25 -159 26 -20 52 -13 64 17 9 24 4
201 -10 390 -11 147 -14 140 74 172 129 46 186 97 221 197 31 89 14 138 -82
236 l-68 69 -80 6 c-55 5 -86 3 -100 -5z m209 -135 c84 -106 38 -223 -104
-265 -23 -7 -46 -21 -51 -31 -28 -52 -45 6 -48 162 -2 129 5 146 69 159 84 17
103 13 134 -25z"/>
<path d="M12319 11421 c-13 -9 -30 -22 -38 -29 -8 -8 -22 -11 -32 -9 -11 3
-29 -5 -44 -19 -27 -25 -32 -57 -15 -114 6 -19 11 -94 11 -166 0 -148 8 -171
52 -160 43 10 56 43 62 147 8 128 23 221 40 238 31 31 130 -80 138 -155 4 -32
35 -73 58 -74 16 0 52 48 90 120 68 131 99 129 142 -9 14 -47 29 -112 33 -145
6 -63 36 -106 72 -106 45 0 48 25 24 175 -8 50 -115 284 -136 297 -27 18 -66
7 -112 -33 -50 -43 -94 -101 -94 -123 0 -8 -7 -17 -16 -20 -23 -9 -24 -8 -24
14 0 11 -8 29 -17 39 -23 25 -34 40 -56 73 -41 65 -94 87 -138 59z"/>
<path d="M6146 11399 c-27 -11 -54 -26 -60 -33 -6 -7 -27 -23 -47 -35 -40 -23
-109 -123 -129 -184 -16 -50 -6 -100 32 -156 39 -60 89 -98 141 -106 23 -4 49
-12 59 -18 13 -8 26 -8 52 1 19 7 65 15 102 18 122 11 204 60 204 122 0 37
-18 40 -91 15 -54 -18 -95 -24 -182 -26 -121 -2 -167 5 -167 27 0 17 119 76
215 106 22 7 55 24 73 38 26 20 32 31 32 62 0 54 -22 100 -69 142 -52 47 -99
54 -165 27z m105 -130 c6 -12 7 -24 2 -28 -15 -13 -172 -81 -187 -81 -8 0 -18
-4 -21 -10 -9 -15 -25 -12 -25 5 0 23 97 109 137 122 57 17 81 15 94 -8z"/>
<path d="M2830 11387 c-75 -36 -116 -78 -162 -167 -28 -52 -49 -155 -39 -182
23 -59 185 -180 238 -178 15 0 39 1 53 1 14 1 52 -1 86 -5 57 -5 64 -3 113 28
57 37 80 62 81 88 0 20 -36 34 -53 20 -20 -16 -87 -25 -185 -25 -106 0 -148
14 -131 44 5 11 17 19 26 19 8 0 42 18 75 40 33 22 66 40 72 40 22 0 54 44 61
82 7 38 -9 100 -33 130 -17 20 -137 78 -161 78 -9 -1 -27 -6 -41 -13z m91 -99
c53 -29 59 -53 21 -87 -55 -49 -106 -77 -161 -90 -39 -8 -41 -8 -41 15 0 50
93 184 127 184 8 0 33 -10 54 -22z"/>
<path d="M4950 11390 c-49 -9 -76 -28 -97 -70 -10 -19 -20 -37 -23 -40 -3 -3
-14 -25 -25 -49 -18 -42 -18 -46 -2 -126 9 -45 17 -94 17 -107 0 -33 42 -72
69 -63 29 9 35 42 27 150 -7 98 3 162 29 189 13 13 19 13 41 1 41 -21 123
-125 130 -165 4 -19 11 -44 17 -55 6 -11 12 -56 14 -100 1 -44 3 -83 3 -87 0
-5 16 -8 36 -8 31 0 37 4 50 37 19 44 11 136 -15 198 -10 22 -21 52 -24 66 -4
15 -23 46 -42 69 -19 23 -35 46 -35 51 0 13 -99 107 -118 111 -10 2 -33 1 -52
-2z"/>
<path d="M4388 11373 c-27 -9 -48 -20 -48 -24 0 -5 -15 -26 -34 -47 -76 -84
-95 -220 -36 -256 36 -21 53 -20 73 2 13 14 16 29 11 64 -5 36 -2 55 17 92 12
25 28 46 35 46 7 0 26 8 43 18 25 14 34 15 51 5 11 -7 27 -13 35 -13 32 0 67
-46 72 -94 7 -60 -9 -94 -59 -129 -34 -24 -51 -29 -104 -29 -52 0 -66 -4 -74
-19 -8 -14 -5 -24 13 -45 53 -62 214 -31 268 51 38 58 59 119 59 170 0 47 -9
61 -105 156 -62 62 -137 80 -217 52z"/>
<path d="M10630 11363 c-133 -21 -280 -137 -351 -275 -47 -93 -39 -136 38
-214 81 -80 111 -96 190 -100 32 -1 77 -6 101 -9 33 -6 46 -4 55 8 7 8 24 17
38 21 31 7 57 55 37 67 -18 12 -46 11 -53 -1 -4 -6 -16 -8 -28 -4 -12 4 -32 7
-44 6 -12 -1 -25 3 -28 8 -3 6 -17 10 -30 10 -50 0 -179 77 -188 112 -19 71
132 217 250 243 35 7 83 56 83 83 -1 20 -24 53 -36 51 -5 -1 -20 -4 -34 -6z"/>
<path d="M9365 11337 c-11 -7 -26 -20 -33 -30 -8 -10 -21 -16 -29 -12 -22 8
-88 -64 -114 -125 -12 -28 -25 -50 -29 -50 -14 0 -1 -164 13 -175 7 -5 23 -24
35 -42 12 -17 44 -45 70 -61 145 -89 287 -81 407 22 22 19 41 26 72 26 53 0
73 25 73 92 0 79 29 164 73 214 21 24 43 44 49 44 28 0 97 -45 102 -66 3 -12
16 -35 29 -51 23 -27 24 -34 20 -152 -4 -129 0 -140 39 -141 35 0 51 55 46
164 -5 91 -9 109 -43 179 -64 134 -126 180 -220 163 -35 -7 -102 -62 -124
-104 -15 -29 -29 -28 -43 3 -6 14 -16 25 -21 25 -16 0 -47 -41 -48 -64 -2 -52
3 -125 12 -165 5 -24 7 -51 4 -60 -3 -9 -43 -32 -92 -51 l-88 -36 -88 18 c-94
20 -139 44 -163 91 -16 29 -10 52 10 44 21 -8 191 45 212 66 4 4 13 7 21 7 7
0 31 12 53 26 35 23 40 32 40 64 0 52 -31 87 -107 121 -67 31 -106 35 -138 16z
m94 -111 c10 -11 7 -17 -11 -30 -12 -9 -30 -16 -40 -16 -9 0 -20 -4 -23 -10
-9 -14 -51 -12 -63 3 -16 19 23 50 73 58 22 4 43 7 46 8 4 0 12 -5 18 -13z"/>
<path d="M11186 11327 c-25 -14 -47 -39 -62 -69 -13 -27 -29 -48 -34 -48 -6 0
-10 -6 -10 -12 -1 -19 -29 -53 -37 -44 -4 3 -19 44 -33 89 -24 74 -29 82 -54
85 -44 5 -65 -30 -66 -112 0 -56 5 -77 28 -120 15 -28 30 -53 33 -56 18 -14
18 -52 2 -87 -23 -46 -94 -169 -138 -238 -18 -27 -48 -75 -67 -105 -20 -30
-48 -80 -63 -110 -14 -30 -30 -62 -35 -71 -10 -19 17 -54 47 -62 18 -4 30 6
63 47 22 29 40 56 40 59 0 6 19 35 92 144 15 23 28 44 28 48 0 3 13 23 29 43
36 44 141 246 141 270 0 9 11 25 25 37 16 12 31 40 40 74 8 29 22 63 33 75 30
33 84 142 80 163 -5 26 -37 26 -82 0z"/>
<path d="M1580 10215 c-7 -9 -17 -57 -22 -108 -12 -124 -12 -850 0 -907 10
-44 28 -250 25 -280 -1 -8 4 -69 12 -135 17 -160 22 -277 15 -400 -4 -76 4
-296 20 -525 25 -361 31 -465 36 -610 5 -133 6 -191 2 -305 -1 -44 14 -410 17
-416 2 -3 7 -100 11 -215 4 -115 8 -234 9 -264 1 -30 5 -183 8 -340 13 -577
17 -690 26 -712 4 -13 9 -90 10 -172 0 -82 6 -177 11 -212 12 -75 27 -297 36
-524 10 -252 12 -1858 3 -2005 -5 -72 -4 -222 1 -335 5 -113 12 -279 15 -370
3 -91 7 -178 8 -194 3 -41 40 -64 112 -70 33 -2 96 -10 140 -17 44 -6 114 -13
155 -14 41 -2 141 -5 222 -8 81 -3 156 -11 167 -16 16 -9 344 -37 446 -39 209
-3 393 1 450 9 39 5 90 9 113 9 24 -1 58 4 75 9 18 5 85 12 149 14 64 3 120 7
125 10 5 3 39 2 76 -3 58 -7 189 -3 532 15 174 9 334 15 368 13 23 -1 106 6
282 23 132 12 443 32 475 30 21 -2 322 -9 590 -14 86 -1 475 12 535 19 90 9
269 16 405 15 80 -1 336 -4 570 -6 800 -8 1045 -13 1130 -24 96 -13 398 -33
475 -31 28 0 77 -6 110 -15 33 -9 110 -18 170 -20 215 -10 601 -28 665 -32 36
-2 160 -6 275 -9 116 -2 262 -7 325 -10 584 -28 730 -26 851 12 36 11 57 12
95 3 150 -32 355 -43 524 -28 69 6 160 10 202 9 43 -1 110 3 150 9 40 6 109
13 153 15 44 3 130 12 190 20 61 9 180 18 265 22 135 5 316 25 354 40 7 3 41
-2 77 -11 35 -8 84 -15 109 -15 38 0 50 5 72 30 15 17 29 44 33 60 6 26 3 30
-22 35 -15 4 -35 9 -43 12 -8 4 -64 12 -125 18 -87 10 -124 10 -180 -1 -38 -7
-131 -15 -205 -19 -207 -9 -270 -14 -310 -25 -21 -6 -48 -10 -61 -10 -98 2
-300 -14 -333 -26 -25 -10 -72 -15 -125 -14 -102 1 -164 -5 -210 -19 -19 -6
-51 -9 -70 -6 -20 2 -82 7 -139 10 -56 2 -134 10 -173 16 -39 6 -94 8 -122 5
-29 -4 -108 -11 -177 -16 -69 -6 -143 -12 -165 -15 -22 -2 -60 1 -85 7 -36 8
-152 10 -325 6 -11 -1 -78 4 -150 10 -71 6 -245 12 -385 13 -140 1 -263 6
-272 10 -9 5 -117 11 -240 14 -123 2 -261 7 -308 10 -47 3 -137 7 -200 10 -63
3 -128 9 -145 14 -16 5 -91 12 -165 16 -74 4 -139 10 -145 15 -6 5 -76 11
-155 13 -80 2 -197 12 -260 20 -87 13 -145 15 -230 9 -63 -4 -155 -6 -205 -5
-393 8 -861 16 -965 16 -260 -1 -548 -11 -561 -18 -11 -7 -712 -21 -814 -16
-146 6 -682 0 -708 -8 -34 -11 -136 -17 -382 -26 -169 -5 -287 -11 -490 -25
-77 -6 -226 -10 -330 -10 -121 0 -224 -6 -283 -15 -51 -8 -111 -14 -135 -13
-23 1 -71 -3 -107 -10 -36 -6 -101 -12 -145 -13 -149 -5 -559 11 -680 26 -101
13 -315 27 -610 41 -33 2 -83 8 -112 15 -44 10 -53 15 -57 38 -6 30 -7 119 -3
236 1 44 0 102 -4 129 -8 68 -1 98 22 91 42 -14 112 46 162 138 42 76 68 97
110 90 30 -4 37 -1 56 25 11 17 21 39 21 49 0 27 -44 47 -71 32 -11 -5 -28 -7
-38 -4 -37 11 -68 -11 -75 -54 -4 -28 -12 -42 -26 -46 -11 -4 -31 -28 -45 -53
-20 -40 -97 -112 -118 -112 -4 0 -5 42 -2 92 3 51 4 208 4 348 0 140 0 363 2
495 2 298 2 226 2 655 0 413 -3 551 -10 630 -3 30 -4 77 -4 104 2 42 -4 138
-24 396 -1 19 -10 148 -19 285 -9 138 -18 279 -21 315 -2 36 -7 238 -11 450
-7 400 -7 406 -18 610 -4 69 -9 199 -11 290 -16 633 -37 1199 -51 1355 -4 44
-8 107 -10 140 -1 33 -6 131 -10 218 -7 163 -3 182 30 131 44 -66 87 6 95 159
1 33 23 36 40 4 14 -26 70 -67 93 -67 16 0 38 39 38 68 0 10 7 28 16 40 20 29
34 18 63 -48 12 -28 27 -50 34 -50 31 1 67 51 67 93 0 37 24 52 38 24 17 -33
41 -146 52 -249 6 -54 17 -99 25 -108 8 -9 15 -29 15 -44 0 -15 8 -39 18 -54
10 -15 23 -36 28 -47 6 -11 22 -21 36 -23 21 -3 26 2 34 41 6 24 7 52 4 63 -4
10 -4 32 0 49 4 16 5 50 3 75 -2 25 -1 59 2 77 5 27 9 31 26 25 10 -4 27 -23
37 -42 37 -75 77 -34 88 92 4 40 10 82 14 93 7 18 9 16 22 -15 8 -19 18 -50
21 -68 4 -18 16 -45 28 -61 19 -26 24 -28 42 -18 11 7 32 38 47 70 27 56 29
58 40 36 7 -12 10 -37 6 -57 -6 -37 2 -59 37 -98 26 -30 47 -30 76 0 21 22 23
36 27 148 2 68 4 130 4 138 0 8 8 -1 16 -20 8 -19 19 -84 25 -143 10 -123 44
-287 62 -303 7 -6 26 -16 43 -22 29 -9 35 -7 64 23 28 29 33 43 41 112 15 129
23 166 37 171 8 2 12 -8 12 -33 0 -40 36 -85 68 -85 26 0 60 66 68 133 4 32
11 57 15 57 5 0 9 -6 10 -12 4 -67 29 -108 65 -108 16 0 29 13 48 50 14 27 26
61 26 74 0 51 32 38 46 -19 9 -35 42 -68 62 -60 7 3 15 5 17 5 14 0 65 134 65
169 0 23 5 41 10 41 6 0 10 -6 10 -12 0 -7 11 -74 24 -149 24 -139 42 -179 81
-179 23 0 65 75 65 117 0 21 7 70 15 108 9 39 15 87 13 107 -3 50 14 52 30 3
16 -49 58 -106 75 -100 6 2 24 6 39 9 22 5 35 22 69 94 24 48 43 92 43 97 2
20 37 125 41 125 9 0 35 -72 35 -95 0 -12 9 -33 19 -47 11 -13 23 -42 27 -64
13 -74 80 -174 116 -174 27 0 74 90 103 195 13 48 27 80 34 80 8 0 21 -27 31
-65 29 -106 46 -144 71 -157 13 -7 29 -13 35 -13 15 0 41 40 50 75 11 43 27
13 30 -57 5 -105 26 -282 36 -300 10 -20 58 -24 88 -8 15 8 22 5 37 -16 l19
-26 27 31 c27 32 36 60 57 164 6 31 13 57 14 57 2 0 18 -7 36 -16 32 -16 33
-16 56 12 31 39 52 81 65 133 15 62 16 61 67 -129 15 -56 26 -80 47 -95 l27
-20 27 32 c35 41 60 126 72 237 5 49 11 92 14 95 11 10 26 -17 32 -55 8 -54
52 -123 79 -124 12 0 33 11 48 25 15 14 31 25 36 25 15 0 49 87 83 208 27 102
32 112 44 95 8 -10 16 -29 19 -43 27 -144 62 -227 106 -248 26 -12 30 -10 66
25 29 28 46 58 64 113 14 40 30 76 35 77 6 2 13 -15 16 -39 7 -66 27 -192 49
-308 11 -58 24 -130 29 -160 8 -55 26 -100 40 -100 5 0 17 -10 28 -21 26 -28
42 -21 81 36 22 32 36 69 46 123 38 201 48 241 56 236 13 -8 33 -63 47 -129
15 -73 52 -149 75 -153 39 -8 93 97 137 266 16 62 29 123 29 136 0 12 7 31 15
42 14 18 14 18 16 -11 10 -137 43 -215 94 -215 35 0 94 89 117 175 34 128 69
222 88 240 19 17 20 17 30 -9 6 -16 9 -85 7 -159 -3 -119 -1 -135 18 -164 29
-46 57 -43 93 12 16 24 35 66 41 92 30 119 39 160 39 193 3 108 25 167 36 94
4 -22 10 -66 15 -99 6 -33 9 -84 7 -113 -1 -30 4 -65 11 -79 7 -13 15 -45 19
-71 8 -60 20 -77 63 -85 30 -6 38 -3 74 33 22 22 42 38 44 36 3 -3 7 -42 9
-88 8 -173 15 -223 32 -240 7 -7 12 -28 12 -47 0 -55 29 -203 47 -238 19 -39
27 -40 71 -13 25 16 43 42 73 105 21 47 43 85 49 85 5 0 10 -18 10 -40 0 -47
24 -100 45 -100 8 0 33 18 54 39 45 45 65 102 81 236 5 50 17 122 26 160 8 39
18 81 20 95 l6 25 13 -26 c8 -15 15 -62 16 -110 2 -101 10 -126 45 -140 22 -8
31 -6 49 11 27 25 71 162 80 245 3 33 17 98 31 143 22 68 29 81 39 70 26 -28
79 -229 70 -268 -5 -22 -2 -31 12 -38 23 -13 72 -7 88 10 16 16 41 96 54 168
6 30 15 80 21 110 10 57 13 78 25 190 15 133 45 146 45 20 0 -43 4 -90 10
-104 5 -14 16 -68 25 -120 21 -135 27 -146 71 -146 28 0 48 9 81 36 53 44 69
73 124 241 24 73 47 133 50 133 4 0 9 -53 13 -117 4 -65 9 -158 12 -208 14
-194 18 -211 65 -242 34 -22 42 -24 67 -14 27 11 39 32 90 152 18 43 38 67 47
57 3 -2 7 -94 10 -203 4 -110 7 -200 8 -201 1 -1 23 -4 49 -7 43 -6 49 -4 72
24 14 17 26 39 26 50 0 11 6 32 14 47 8 15 17 46 21 67 4 22 13 54 20 70 7 17
18 62 23 100 11 73 36 145 51 145 15 0 22 -79 15 -185 l-7 -105 30 0 c16 0 35
-6 42 -12 27 -27 111 114 111 188 0 10 11 39 25 63 14 23 25 55 25 70 0 15 6
36 14 46 13 18 14 18 25 -4 28 -51 64 -332 47 -360 -7 -11 41 -91 56 -91 26 0
113 125 159 228 34 75 54 86 84 48 20 -26 67 -56 86 -56 12 0 56 48 83 90 19
29 41 82 71 167 3 9 11 10 27 4 18 -7 23 -17 25 -57 5 -72 65 -214 98 -232 25
-12 29 -12 52 10 28 25 66 103 78 158 4 19 11 40 15 45 8 10 24 89 39 190 l7
50 18 -60 c10 -33 22 -70 27 -83 5 -13 9 -40 9 -60 0 -20 7 -46 15 -56 8 -11
15 -28 15 -38 0 -9 11 -41 23 -70 13 -29 32 -75 42 -103 19 -52 76 -115 104
-115 20 0 72 53 88 90 17 36 45 148 50 198 5 41 15 53 28 32 3 -5 8 -43 10
-82 5 -79 12 -180 21 -298 3 -41 6 -84 6 -95 0 -11 4 -54 10 -96 7 -55 17 -84
34 -105 l24 -29 33 37 c44 49 81 160 93 278 10 97 38 207 62 239 34 45 58 114
67 186 3 33 10 64 15 70 5 6 12 35 16 65 8 58 17 51 28 -21 4 -19 20 -57 37
-83 l30 -48 23 21 c12 11 27 21 32 21 11 0 75 156 94 228 13 52 31 92 40 92 3
0 12 -33 18 -72 40 -236 52 -313 52 -343 0 -49 42 -150 67 -159 18 -7 80 59
95 101 23 65 32 41 48 -127 6 -63 13 -128 15 -145 3 -16 7 -48 10 -70 8 -58
25 -157 31 -177 9 -31 103 -19 126 16 18 27 58 168 68 241 15 101 40 204 51
211 6 3 9 -18 8 -48 -2 -66 9 -138 32 -199 12 -30 52 -52 78 -44 24 7 107 141
116 185 3 19 15 58 24 85 10 28 31 90 47 138 16 49 32 91 35 93 14 8 31 -27
49 -98 10 -40 22 -84 26 -98 9 -31 68 -106 95 -121 18 -9 28 -3 75 48 53 57
71 97 88 193 4 19 11 42 16 50 15 22 25 1 40 -83 9 -56 48 -171 66 -196 2 -2
14 -4 28 -3 51 0 116 79 116 141 0 30 25 140 34 149 3 2 8 -9 11 -24 3 -16 10
-47 15 -69 5 -22 12 -71 16 -110 3 -38 13 -90 21 -115 8 -24 16 -53 18 -65 5
-44 28 -112 48 -145 12 -19 30 -52 39 -73 28 -60 104 -78 135 -31 9 15 26 79
38 142 11 64 24 114 29 112 5 -3 11 -34 13 -70 2 -36 8 -82 14 -102 9 -35 13
-38 45 -38 57 0 75 17 94 85 13 44 29 135 35 188 6 57 9 66 21 56 7 -6 11 -15
8 -20 -3 -5 2 -12 10 -15 9 -3 16 -14 16 -24 0 -10 7 -23 15 -30 8 -7 15 -18
15 -25 0 -18 28 -23 72 -12 46 11 69 53 100 183 12 49 25 91 28 94 4 3 7 16 8
30 3 63 15 130 23 130 5 0 9 -6 9 -13 0 -25 49 -167 72 -207 21 -36 26 -40 53
-34 17 3 33 9 36 13 4 3 3 31 -2 61 -6 30 -11 68 -13 83 -4 31 -31 150 -48
212 -17 66 -32 100 -55 129 -19 24 -26 27 -49 19 -32 -11 -72 -77 -91 -153 -8
-30 -18 -66 -24 -80 -5 -14 -11 -45 -13 -70 -6 -60 -47 -220 -56 -220 -12 0
-27 49 -40 135 -7 44 -16 87 -21 96 -4 9 -10 31 -12 50 -7 55 -19 93 -35 111
-13 15 -18 16 -41 4 -58 -30 -66 -57 -76 -264 -2 -41 -6 -76 -9 -79 -3 -3 -12
13 -21 35 -19 47 -50 60 -78 34 -28 -25 -64 -92 -72 -132 -3 -19 -12 -51 -19
-70 -8 -19 -22 -71 -32 -115 -9 -44 -20 -84 -22 -89 -7 -14 -30 49 -42 117 -7
34 -15 67 -20 72 -21 27 -39 186 -45 410 -10 315 -28 365 -114 303 -25 -17
-50 -77 -51 -120 0 -14 -5 -28 -10 -30 -6 -2 -20 -53 -31 -113 -12 -61 -28
-130 -37 -155 l-16 -45 -7 45 c-4 25 -12 107 -17 183 -10 149 -20 175 -61 162
-27 -8 -65 -59 -81 -108 -7 -22 -27 -65 -45 -97 -18 -32 -36 -73 -40 -90 -4
-17 -13 -43 -21 -58 -8 -15 -14 -34 -14 -43 0 -8 -6 -24 -14 -35 -16 -21 -14
-25 -36 56 -7 25 -18 59 -26 75 -7 17 -15 42 -17 55 -9 47 -56 140 -71 140
-29 0 -46 -13 -82 -63 -37 -52 -94 -168 -94 -193 0 -7 -9 -33 -19 -56 -11 -24
-27 -72 -37 -108 -9 -36 -23 -72 -31 -80 -14 -16 -16 -6 -18 185 -2 134 -14
223 -32 229 -7 3 -31 -4 -52 -15 -29 -15 -44 -32 -60 -69 -12 -27 -21 -56 -21
-64 0 -22 -26 -116 -44 -158 -17 -39 -33 -104 -46 -183 -21 -129 -32 -147 -45
-75 -4 19 -8 67 -10 105 -9 169 -17 263 -25 300 -5 22 -10 56 -11 75 -1 52
-38 114 -70 118 -33 4 -85 -53 -95 -104 -9 -50 -23 -30 -29 45 -3 35 -8 68
-12 74 -6 10 -16 78 -33 231 -5 49 -14 94 -20 100 -5 5 -10 18 -10 27 0 9 -8
27 -19 40 -16 20 -22 22 -44 12 -30 -14 -71 -87 -91 -165 -28 -107 -76 -203
-89 -181 -3 5 -8 44 -11 88 -8 92 -32 185 -54 202 -20 16 -65 -10 -82 -46 -12
-26 -60 -268 -65 -326 -4 -47 -30 -96 -74 -143 l-41 -43 0 -82 c0 -56 -5 -92
-16 -112 -9 -16 -18 -56 -21 -88 -3 -32 -9 -60 -14 -63 -12 -7 -18 45 -25 211
-9 209 -10 221 -23 300 -15 88 -22 99 -53 92 -33 -9 -95 -103 -108 -164 -13
-61 -28 -114 -51 -181 -11 -29 -19 -63 -19 -76 0 -28 -28 -57 -33 -35 -2 8
-10 30 -16 49 -7 19 -16 49 -21 65 -11 40 -41 126 -51 147 -5 10 -9 37 -9 60
0 24 -5 59 -11 78 -5 19 -19 90 -30 158 -11 68 -23 131 -28 140 -5 9 -14 29
-20 45 -14 37 -44 35 -74 -5 -32 -44 -61 -161 -77 -308 -8 -81 -51 -241 -70
-263 -8 -9 -19 18 -45 108 -10 33 -26 77 -36 97 -11 21 -19 48 -19 61 0 15
-10 31 -26 41 -25 17 -26 17 -59 -20 -19 -21 -38 -53 -41 -72 -4 -18 -17 -56
-30 -83 -13 -27 -24 -57 -24 -66 0 -23 -41 -95 -57 -100 -7 -3 -21 14 -33 36
-21 42 -77 111 -89 111 -15 0 -59 -45 -74 -75 -8 -16 -20 -49 -26 -72 -6 -22
-19 -51 -30 -64 -18 -22 -18 -22 -24 37 -14 138 -81 304 -128 319 -50 16 -103
-52 -129 -169 -6 -26 -17 -64 -26 -84 -18 -45 -28 -33 -39 45 -5 42 -13 57
-35 73 -34 24 -38 24 -78 5 -23 -12 -42 -38 -76 -107 -25 -50 -46 -100 -46
-111 0 -31 -32 -138 -39 -131 -3 3 -7 22 -8 42 -10 176 -36 274 -83 317 -20
18 -21 18 -49 -9 -16 -16 -39 -56 -52 -90 -25 -71 -68 -150 -76 -142 -9 9 -13
56 -18 221 -9 282 -42 373 -122 331 -54 -28 -99 -108 -158 -280 -22 -66 -45
-121 -51 -123 -7 -2 -14 15 -17 44 -3 26 -13 77 -20 113 -8 36 -22 100 -31
142 -8 43 -22 94 -30 113 -55 131 -179 -8 -205 -230 -16 -134 -31 -206 -41
-200 -4 2 -12 24 -18 48 -23 90 -70 117 -145 81 -26 -12 -42 -33 -70 -90 -20
-41 -37 -87 -37 -103 0 -16 -6 -34 -14 -40 -11 -9 -16 -6 -24 18 -13 37 -63
70 -97 63 -43 -8 -92 -113 -120 -256 -18 -95 -30 -112 -39 -57 -7 45 -28 57
-69 42 -28 -11 -45 -44 -78 -148 -11 -34 -24 -65 -29 -68 -6 -3 -10 -19 -10
-36 0 -29 -13 -38 -26 -18 -4 7 -8 28 -9 48 -2 20 -5 50 -9 66 -15 78 -29 277
-31 445 -1 102 -7 203 -13 225 -14 50 -40 68 -73 52 -26 -14 -72 -124 -84
-204 -4 -27 -12 -57 -17 -67 -16 -30 -27 -1 -38 109 -6 53 -13 122 -16 153 -7
74 -42 182 -60 189 -53 20 -133 -85 -162 -214 -9 -40 -20 -73 -24 -73 -4 0
-11 12 -14 28 -4 15 -16 44 -27 65 -19 36 -33 43 -82 38 -40 -4 -116 -112
-134 -191 -6 -25 -19 -70 -29 -100 l-19 -55 -11 35 c-6 19 -15 74 -21 121 -18
156 -67 193 -130 98 -33 -51 -71 -185 -71 -251 0 -48 -57 -201 -71 -192 -5 3
-18 35 -29 72 -38 127 -83 177 -123 138 -9 -9 -19 -16 -24 -16 -14 0 -52 -86
-59 -133 -14 -104 -36 -187 -50 -187 -8 0 -14 10 -14 25 0 14 -4 44 -10 67
-10 45 -37 182 -50 258 -45 252 -54 280 -90 280 -42 0 -120 -95 -120 -147 0
-21 -20 -79 -37 -108 -9 -16 -13 -17 -17 -5 -12 32 -66 252 -66 268 0 9 -10
37 -23 62 -25 50 -52 61 -89 36 -23 -16 -34 -43 -72 -186 -22 -80 -65 -209
-73 -220 -10 -11 -22 30 -28 90 -8 76 -47 201 -68 214 -18 12 -77 -28 -77 -51
0 -17 -12 -57 -36 -126 -8 -20 -14 -51 -14 -67 0 -32 -29 -150 -40 -163 -6 -7
-44 121 -54 181 -3 23 -32 51 -51 52 -14 0 -65 -86 -72 -121 -8 -42 -23 -35
-23 11 0 38 -34 120 -50 120 -15 0 -70 -71 -70 -91 0 -11 -5 -29 -11 -40 -9
-17 -22 -80 -46 -217 -6 -38 -22 -51 -35 -28 -5 9 -21 16 -36 16 -25 0 -27 3
-29 48 -24 468 -32 562 -56 595 -23 34 -52 33 -78 -3 -19 -25 -22 -40 -33
-185 -16 -190 -26 -207 -46 -75 -15 99 -52 180 -83 180 -25 0 -58 -56 -71
-120 -4 -19 -26 -86 -48 -147 -29 -78 -45 -110 -52 -104 -6 5 -24 49 -40 98
-16 48 -35 102 -43 120 -7 17 -13 41 -13 52 0 42 -28 90 -56 97 -36 9 -51 -9
-109 -141 -23 -52 -33 -78 -56 -148 -13 -37 -26 -64 -29 -60 -4 5 -12 32 -18
60 -11 49 -72 187 -92 207 -16 16 -60 -12 -74 -47 -7 -17 -14 -57 -14 -88 -1
-31 -6 -69 -13 -85 -10 -26 -12 -27 -18 -9 -5 11 -13 67 -20 124 -11 88 -17
112 -42 148 -25 36 -33 41 -48 33 -30 -16 -54 -62 -58 -110 -11 -162 -25 -253
-38 -254 -5 -1 -16 33 -23 74 -22 118 -63 197 -95 184 -21 -8 -51 -66 -54
-104 -2 -19 -5 -53 -8 -75 -2 -22 -4 -48 -4 -57 -1 -25 -18 -22 -25 5 -4 12
-20 38 -37 57 l-30 35 -30 -33 c-16 -18 -30 -42 -30 -55 -1 -12 -2 -54 -3 -92
-2 -84 -10 -103 -34 -82 -10 9 -28 17 -42 19 -20 2 -31 -7 -64 -55 -38 -54
-40 -62 -41 -130 0 -41 -4 -72 -10 -73 -12 0 -31 69 -40 146 -4 30 -17 118
-30 195 -13 77 -27 167 -30 200 -4 33 -13 74 -21 90 -7 17 -20 47 -28 68 -17
42 -30 44 -58 6 -25 -34 -53 -176 -38 -194 14 -17 10 -57 -7 -62 -7 -3 -15 8
-18 24 -28 137 -65 233 -89 233 -27 0 -56 -58 -54 -107 2 -74 -13 -217 -24
-230 -13 -16 -28 -7 -28 16 0 35 -24 54 -58 46 -42 -9 -62 -30 -62 -64 0 -72
-38 -114 -70 -76 -7 8 -22 15 -35 15 -37 0 -56 -31 -59 -101 -2 -35 -8 -65
-14 -67 -13 -4 -30 49 -36 113 -6 70 -25 175 -35 194 -5 9 -11 51 -14 93 -13
155 -60 228 -104 162 -32 -49 -43 -97 -43 -191 0 -101 -13 -127 -30 -61 -14
56 -41 108 -62 121 -30 19 -76 -51 -84 -128 -2 -22 -7 -53 -10 -70 l-7 -30
-47 53 c-31 35 -55 53 -66 50 -25 -4 -62 -62 -70 -107 -11 -63 -25 -111 -32
-111 -5 0 -9 39 -10 88 -2 48 -5 110 -8 137 -3 28 -9 113 -14 190 -5 77 -16
208 -24 290 -15 145 -24 794 -12 814 3 5 -1 30 -8 57 -8 27 -17 72 -21 99 -7
50 -28 95 -44 95 -5 0 -14 -7 -21 -15z"/>
<path d="M920 9008 c-33 -12 -176 -22 -286 -19 -73 2 -95 -1 -108 -14 -14 -14
-21 -43 -17 -68 1 -5 3 -121 6 -259 3 -171 8 -254 16 -264 21 -26 48 -16 69
26 l21 40 56 -4 c32 -3 60 -11 64 -18 4 -7 19 -28 33 -47 14 -19 26 -40 26
-45 -1 -21 -76 -73 -130 -91 -30 -10 -68 -24 -84 -32 -17 -9 -66 -16 -119 -18
-49 -2 -94 -8 -99 -13 -6 -6 3 -23 22 -46 37 -41 58 -44 200 -25 109 15 177
46 245 113 53 53 55 57 55 109 0 44 -5 61 -29 93 -56 76 -148 144 -194 144
-10 0 -27 5 -38 10 -17 10 -19 22 -19 144 l0 134 170 7 c104 4 176 12 186 19
9 7 18 31 20 57 4 37 1 46 -18 60 -17 12 -30 14 -48 7z"/>
<path d="M1145 8773 c-40 -30 -89 -111 -110 -182 -12 -41 -6 -130 13 -204 11
-40 22 -84 26 -99 8 -37 62 -96 101 -112 50 -21 117 -5 195 48 97 65 119 97
131 185 17 119 -37 248 -140 336 -54 46 -66 51 -135 58 -31 3 -46 -3 -81 -30z
m189 -150 c56 -58 90 -141 80 -200 -8 -50 -8 -51 -70 -95 -49 -36 -52 -37 -88
-24 -101 35 -146 160 -105 295 9 31 19 43 45 53 67 27 89 22 138 -29z"/>
<path d="M11861 7561 c-32 -38 -44 -63 -51 -103 -11 -65 -59 -158 -152 -291
-54 -77 -84 -120 -93 -133 -7 -9 -2 -21 15 -39 27 -29 51 -28 125 5 22 10 73
21 113 24 41 3 78 8 83 11 5 4 9 3 9 -2 1 -4 3 -40 6 -78 4 -64 -3 -127 -34
-280 -23 -113 -181 -367 -237 -381 -14 -3 -34 -19 -45 -34 l-20 -28 34 -26
c19 -14 39 -26 45 -26 74 0 257 264 311 450 12 41 26 80 30 85 8 10 25 145 24
195 0 14 -3 46 -8 72 l-7 47 42 21 c24 11 51 20 60 20 26 0 101 34 164 75 51
32 56 38 53 68 -3 32 -4 32 -50 29 -36 -2 -48 1 -48 11 0 8 -9 22 -20 32 -10
9 -26 39 -35 66 -13 37 -23 51 -41 55 -15 4 -54 43 -99 99 -64 79 -94 104
-127 105 -3 0 -25 -22 -47 -49z"/>
<path d="M11280 6193 c-84 -13 -162 -71 -261 -195 -96 -120 -121 -184 -95
-239 9 -19 29 -49 45 -68 24 -29 30 -32 49 -22 11 6 34 11 51 11 48 0 83 18
128 67 60 65 67 54 59 -81 -18 -264 -18 -273 -1 -290 24 -24 62 -20 81 9 11
17 15 43 14 82 -2 80 -1 142 4 253 2 52 6 155 7 228 1 73 6 135 10 138 11 6
12 75 1 90 -8 13 -57 22 -92 17z m-17 -127 c13 -34 -66 -216 -111 -254 -45
-38 -80 -53 -107 -46 -20 5 -25 12 -25 38 0 53 99 188 180 245 50 35 56 37 63
17z"/>
<path d="M11805 6150 c-10 -11 -22 -20 -27 -20 -5 0 -35 -17 -66 -37 -31 -21
-65 -39 -75 -41 -71 -12 -197 -115 -227 -184 -19 -45 -20 -60 -4 -120 3 -9 31
-33 62 -53 75 -47 129 -48 195 -4 26 17 61 47 77 67 16 20 33 33 37 29 4 -4 1
-78 -6 -165 -15 -188 -10 -212 44 -212 47 0 51 12 59 190 3 80 11 168 16 195
17 78 17 340 1 359 -19 22 -64 20 -86 -4z m-15 -146 c0 -21 -35 -107 -46 -111
-7 -2 -24 -22 -38 -43 -31 -47 -105 -100 -140 -100 -59 0 -78 69 -33 119 28
29 132 101 149 102 7 0 31 9 53 19 43 20 55 23 55 14z"/>
<path d="M10578 5811 c-32 -5 -68 -15 -80 -24 -80 -55 -84 -72 -28 -99 30 -14
31 -18 34 -84 3 -57 0 -76 -20 -115 -20 -37 -23 -51 -14 -73 5 -15 16 -29 24
-32 8 -3 19 -17 24 -32 25 -64 35 -363 14 -384 -21 -21 -13 -44 23 -61 35 -17
36 -16 44 6 32 85 35 162 16 415 -3 38 8 47 87 63 32 7 75 27 109 51 49 34 60
48 78 97 12 32 21 71 21 87 0 39 -65 146 -101 168 -35 21 -146 29 -231 17z
m175 -115 c48 -20 81 -59 69 -82 -5 -11 -15 -32 -23 -48 -17 -36 -77 -68 -139
-74 -35 -3 -48 -1 -53 10 -8 22 12 179 24 195 15 17 81 17 122 -1z"/>
<path d="M5233 4951 c-33 -21 -88 -89 -104 -128 -12 -32 -40 -200 -41 -242 0
-37 4 -63 24 -169 11 -57 15 -64 46 -79 19 -9 39 -16 46 -16 195 7 278 41 326
133 29 57 33 100 15 186 -48 231 -200 385 -312 315z m92 -101 c3 -5 15 -10 26
-10 10 0 19 -4 19 -9 0 -4 15 -28 33 -52 40 -54 67 -138 67 -212 0 -46 -5 -61
-27 -88 -35 -41 -79 -59 -143 -59 -67 0 -87 12 -99 58 -22 91 14 313 61 369
12 15 54 17 63 3z"/>
<path d="M4838 4914 c-3 -3 -59 -9 -123 -14 -139 -11 -157 -21 -176 -107 -10
-43 -10 -67 0 -116 7 -34 15 -77 18 -95 4 -22 16 -41 40 -59 32 -25 37 -26 66
-14 55 22 77 24 115 8 20 -8 55 -19 77 -23 33 -8 41 -14 49 -42 12 -43 -4 -76
-46 -98 -47 -24 -165 -42 -211 -32 -46 10 -57 5 -57 -26 0 -63 134 -103 226
-68 89 34 130 66 158 126 35 73 28 128 -22 187 -45 52 -106 79 -185 80 -97 2
-110 8 -123 59 -12 49 -3 95 21 104 8 3 60 8 117 11 112 7 160 18 178 40 19
22 4 61 -27 73 -32 11 -87 15 -95 6z"/>
<path d="M4110 4449 c-48 -17 -99 -59 -100 -82 0 -4 10 -12 23 -17 12 -6 30
-16 40 -22 12 -9 20 -10 25 -2 10 16 70 34 111 34 43 0 173 -48 169 -62 -5
-15 -135 -81 -181 -92 -23 -6 -29 -3 -38 21 -12 33 -38 63 -53 63 -6 0 -24
-11 -41 -24 -30 -24 -30 -24 -12 -54 9 -17 17 -43 17 -59 0 -15 5 -44 10 -63
6 -19 15 -71 20 -115 4 -44 16 -100 25 -125 10 -28 18 -86 20 -152 2 -60 6
-121 10 -137 8 -36 51 -69 69 -51 13 13 17 209 4 260 -5 19 -16 82 -24 140 -8
58 -17 121 -20 141 -5 31 -2 38 22 54 15 10 42 21 58 26 80 20 153 54 178 83
22 25 27 41 28 85 0 62 -14 79 -116 137 -53 29 -70 34 -125 33 -36 0 -88 -9
-119 -20z"/>
<path d="M3755 4005 c-34 -15 -155 -141 -155 -161 0 -7 -18 -30 -39 -50 -22
-20 -43 -50 -46 -66 -4 -16 -19 -44 -34 -61 -34 -40 -91 -145 -91 -168 0 -10
-17 -50 -37 -91 -32 -62 -38 -84 -40 -145 -1 -39 -6 -81 -12 -92 -6 -11 -11
-48 -11 -83 0 -111 3 -108 -111 -108 -90 0 -99 -2 -113 -22 -22 -31 -20 -62 7
-95 32 -39 107 -150 107 -159 0 -4 8 -17 19 -28 15 -17 71 -147 94 -217 5 -16
82 -59 104 -59 17 0 43 36 43 61 0 51 40 181 69 229 17 28 31 53 31 56 0 3 10
28 22 55 19 41 27 49 50 49 20 0 28 5 28 18 0 30 -20 91 -32 98 -7 4 -48 7
-91 5 -44 -1 -92 1 -108 4 l-29 7 5 133 c3 82 11 146 20 167 7 19 12 44 9 54
-3 12 3 27 15 38 12 11 21 27 21 36 0 9 14 38 31 66 18 27 43 69 57 94 14 25
37 61 52 80 15 19 35 51 45 70 9 19 26 44 36 55 10 11 25 36 33 56 13 31 38
55 148 139 12 10 17 21 13 33 -9 21 -65 22 -110 2z"/>
<path d="M741 2419 c-25 -5 -49 -13 -55 -19 -16 -16 -12 -97 6 -118 47 -52 98
-204 98 -289 0 -59 2 -63 25 -69 14 -3 35 -4 47 -1 12 3 30 1 40 -4 11 -6 40
-14 66 -19 79 -15 195 -60 232 -90 32 -26 33 -30 22 -52 -17 -31 -67 -52 -204
-84 -127 -30 -266 -37 -340 -19 -39 10 -51 9 -68 -2 -11 -8 -20 -19 -20 -26 0
-19 53 -67 75 -67 11 0 26 -5 31 -10 20 -20 225 -11 248 11 6 5 31 9 57 9 46
0 175 36 200 57 8 5 26 13 40 17 15 3 41 22 58 41 25 29 31 45 31 81 0 38 -6
51 -40 88 -22 23 -59 51 -82 61 -24 10 -50 24 -58 30 -8 6 -35 17 -60 24 -25
7 -65 22 -89 33 -24 12 -58 24 -75 27 -33 7 -47 28 -65 101 -7 25 -16 63 -22
85 -6 22 -17 50 -25 63 -8 12 -12 27 -8 33 8 14 155 4 326 -23 153 -24 168
-21 168 37 0 37 -26 65 -61 65 -13 0 -62 6 -109 14 -109 18 -332 27 -389 15z"/>
<path d="M12100 2269 c-16 -37 -3 -51 45 -47 22 2 32 10 39 31 12 33 -2 47
-45 47 -20 0 -30 -7 -39 -31z"/>
<path d="M4945 2184 c-14 -15 -25 -32 -25 -38 0 -38 81 -51 100 -17 16 30 12
59 -9 71 -29 15 -40 13 -66 -16z"/>
<path d="M6047 2192 c-35 -38 -10 -72 52 -72 27 0 31 3 31 28 -1 56 -49 81
-83 44z"/>
<path d="M8318 2173 c-7 -9 -41 -33 -75 -55 -68 -43 -83 -77 -44 -98 37 -19
61 -12 83 26 19 32 24 35 57 30 31 -5 39 -2 55 20 18 25 18 27 -1 51 -26 35
-58 46 -75 26z"/>
<path d="M11483 2141 c-32 -26 -29 -40 12 -57 42 -17 50 -14 59 22 13 50 -29
70 -71 35z"/>
<path d="M7477 2122 c-17 -17 -25 -35 -22 -44 5 -12 1 -14 -18 -11 -36 7 -72
-21 -87 -70 -9 -28 -33 -61 -73 -99 -32 -32 -56 -62 -52 -68 3 -5 25 -10 47
-10 35 0 46 6 80 42 21 23 38 50 38 61 0 10 9 21 20 24 27 7 64 68 57 94 -5
18 -2 20 18 15 37 -9 75 10 75 37 0 24 -27 57 -46 57 -6 0 -22 -13 -37 -28z"/>
<path d="M5950 2127 c-48 -23 -49 -25 -33 -57 17 -35 40 -38 77 -9 29 23 35
63 10 73 -20 8 -23 7 -54 -7z"/>
<path d="M7892 2094 c-31 -33 -33 -37 -18 -53 21 -23 99 -15 104 12 3 15 -35
76 -48 76 -3 0 -20 -16 -38 -35z"/>
<path d="M8440 2112 c-22 -17 -23 -23 -12 -46 13 -29 44 -34 99 -14 55 20 39
63 -29 74 -24 4 -40 1 -58 -14z"/>
<path d="M12294 2106 l-29 -24 22 -39 c18 -31 28 -38 49 -36 15 1 31 6 35 10
14 15 -5 85 -27 100 -20 13 -25 12 -50 -11z"/>
<path d="M2652 2108 c-18 -18 -14 -44 11 -73 21 -24 23 -25 45 -10 27 20 28
49 2 75 -23 23 -41 25 -58 8z"/>
<path d="M13918 2100 c-9 -6 -27 -24 -38 -41 -31 -43 -14 -59 61 -59 54 0 60
2 71 26 11 24 9 29 -20 55 -35 31 -47 34 -74 19z"/>
<path d="M8020 2058 c-25 -27 -26 -50 -2 -71 21 -19 57 -22 67 -7 3 6 14 10
25 10 11 0 22 11 29 31 10 29 9 31 -24 45 -48 20 -71 18 -95 -8z"/>
<path d="M11594 2070 c-36 -14 -36 -36 1 -64 42 -33 62 -33 77 -1 10 22 8 29
-12 50 -25 27 -33 29 -66 15z"/>
<path d="M13675 2056 c-22 -22 -23 -28 -14 -56 10 -28 15 -30 40 -25 36 8 89
34 89 43 0 15 -18 34 -45 48 -37 19 -42 18 -70 -10z"/>
<path d="M6702 2050 c-8 -13 -23 -20 -42 -20 -63 0 -88 -80 -31 -101 34 -13
71 3 71 31 0 19 4 21 44 15 53 -8 82 14 81 60 0 29 -2 30 -55 33 -46 2 -57 0
-68 -18z"/>
<path d="M10690 2057 c-14 -7 -26 -23 -28 -35 -3 -22 0 -23 40 -20 40 3 43 5
46 36 4 36 -13 42 -58 19z"/>
<path d="M13071 2043 c-24 -23 -28 -32 -21 -50 13 -32 56 -30 92 4 34 32 36
59 6 67 -38 10 -46 7 -77 -21z"/>
<path d="M4849 2036 c-14 -12 -31 -43 -39 -70 -14 -52 -8 -67 38 -81 19 -6 22
-3 22 24 0 22 8 36 30 53 41 30 42 72 2 86 -23 8 -32 6 -53 -12z"/>
<path d="M13555 2050 c-47 -12 -85 -29 -85 -39 0 -5 -3 -17 -7 -27 -6 -15 0
-16 52 -9 63 7 85 22 85 54 0 26 -8 29 -45 21z"/>
<path d="M3427 2036 c-15 -12 -16 -18 -7 -35 6 -12 19 -21 30 -21 10 0 22 -4
25 -10 10 -16 35 -12 35 5 0 28 -30 75 -48 75 -9 0 -25 -7 -35 -14z"/>
<path d="M4205 2024 c-14 -15 -25 -33 -25 -40 0 -49 39 -58 76 -18 30 32 30
44 -1 67 -25 18 -25 18 -50 -9z"/>
<path d="M8618 2024 c-16 -33 -2 -55 42 -67 49 -13 80 -2 80 28 0 18 -10 31
-32 45 -46 28 -76 26 -90 -6z"/>
<path d="M11883 2031 c-31 -20 -36 -28 -48 -87 -4 -22 -1 -35 10 -44 23 -19
85 11 85 41 0 13 8 23 20 26 23 6 54 58 45 73 -10 17 -78 11 -112 -9z"/>
<path d="M10492 2028 c-19 -19 -15 -58 6 -58 9 0 26 -7 36 -15 26 -20 31 -19
50 10 12 18 13 30 6 50 -8 21 -16 25 -48 25 -21 0 -43 -5 -50 -12z"/>
<path d="M5850 1995 c-19 -19 -41 -35 -50 -35 -8 0 -41 -25 -73 -57 -68 -67
-76 -102 -26 -120 35 -13 44 -6 111 83 30 39 37 43 76 44 36 0 42 3 42 21 0
11 5 29 10 40 15 26 -4 59 -33 59 -13 0 -38 -15 -57 -35z"/>
<path d="M6161 2006 c-21 -23 -22 -46 -1 -46 5 0 26 -11 46 -25 44 -30 70 -32
84 -6 5 11 10 21 10 23 0 7 -97 78 -107 78 -5 0 -20 -11 -32 -24z"/>
<path d="M13333 2020 c-62 -13 -85 -28 -81 -53 2 -16 11 -23 30 -25 31 -4 104
33 113 55 5 16 -2 34 -13 32 -4 -1 -26 -5 -49 -9z"/>
<path d="M7828 1997 c-15 -12 -38 -30 -52 -40 -14 -10 -26 -27 -26 -37 0 -17
6 -18 53 -13 60 6 74 16 86 61 8 27 7 34 -9 42 -23 13 -20 13 -52 -13z"/>
<path d="M12542 2000 c-45 -27 -41 -60 8 -73 25 -6 36 -5 39 4 2 7 14 23 27
36 48 48 -9 72 -74 33z"/>
<path d="M12700 2007 c-16 -8 -26 -23 -28 -40 -4 -31 11 -34 82 -18 53 13 64
26 41 51 -21 23 -58 26 -95 7z"/>
<path d="M11355 1989 c-16 -10 -36 -22 -42 -25 -7 -3 -13 -14 -13 -23 0 -47
76 -57 109 -15 24 30 27 54 9 72 -16 16 -27 14 -63 -9z"/>
<path d="M4342 1988 c-23 -23 -13 -47 28 -68 47 -24 60 -20 60 20 0 23 -7 33
-30 45 -35 18 -42 19 -58 3z"/>
<path d="M7608 1988 c-53 -42 -7 -91 70 -75 35 7 42 12 42 32 0 13 -7 31 -16
39 -19 19 -74 21 -96 4z"/>
<path d="M9182 1990 c-32 -14 -27 -59 10 -79 26 -15 29 -14 58 14 41 40 37 69
-10 72 -19 1 -45 -2 -58 -7z"/>
<path d="M12913 1982 c-26 -12 -33 -22 -33 -44 0 -26 3 -28 38 -28 42 1 108
51 98 76 -7 18 -61 16 -103 -4z"/>
<path d="M5060 1950 c-32 -44 -23 -64 30 -71 25 -3 51 -8 59 -10 9 -3 14 7 15
35 1 34 -3 42 -29 58 -41 24 -50 23 -75 -12z"/>
<path d="M10320 1951 c-25 -35 -21 -47 18 -56 34 -7 89 18 97 46 9 27 2 32
-49 36 -39 4 -46 1 -66 -26z"/>
<path d="M2596 1939 c-28 -32 -27 -59 0 -86 33 -34 54 -6 54 75 0 52 -17 55
-54 11z"/>
<path d="M2745 1962 c-5 -4 -16 -17 -23 -30 -10 -18 -10 -26 4 -47 31 -47 74
-41 74 10 0 26 -42 77 -55 67z"/>
<path d="M6902 1947 c-12 -13 -22 -30 -22 -39 0 -25 34 -48 71 -48 49 0 63 12
55 46 -16 64 -65 83 -104 41z"/>
<path d="M10147 1946 c-35 -28 -34 -42 2 -61 34 -17 65 -10 94 23 22 24 15 42
-14 42 -11 0 -28 4 -37 9 -12 6 -25 3 -45 -13z"/>
<path d="M3042 1944 c-14 -10 -22 -25 -22 -45 0 -28 -13 -39 -24 -20 -3 4 -17
6 -32 3 -19 -3 -31 -16 -45 -50 -22 -51 -16 -65 33 -77 24 -6 29 -2 47 34 12
22 21 49 21 60 0 14 5 19 15 15 9 -4 29 -1 45 6 23 10 30 19 30 41 0 18 -7 32
-19 39 -25 13 -22 13 -49 -6z"/>
<path d="M4064 1938 c-33 -38 -45 -75 -29 -88 8 -6 11 -18 8 -26 -11 -29 25
-13 61 26 40 45 45 69 18 93 -25 22 -35 21 -58 -5z"/>
<path d="M3395 1938 c-11 -5 -30 -30 -43 -55 l-22 -45 21 -29 c21 -31 27 -33
45 -21 12 8 34 88 34 126 0 30 -9 36 -35 24z"/>
<path d="M5526 1929 c-22 -17 -31 -19 -57 -10 -35 12 -54 6 -93 -30 -27 -25
-29 -30 -18 -53 17 -37 57 -44 88 -15 20 19 38 24 82 26 98 3 117 8 120 31 4
28 -40 72 -71 72 -13 0 -36 -9 -51 -21z"/>
<path d="M8835 1942 c-50 -37 -56 -92 -9 -92 37 0 61 16 69 47 9 37 -30 67
-60 45z"/>
<path d="M11150 1937 c-16 -8 -25 -21 -25 -37 0 -21 6 -26 40 -31 22 -4 49 -3
61 1 21 8 48 63 37 74 -11 11 -88 6 -113 -7z"/>
<path d="M9988 1919 c-16 -11 -28 -26 -28 -33 0 -15 54 -56 73 -56 20 0 44 22
51 46 5 17 0 26 -27 43 -41 25 -36 25 -69 0z"/>
<path d="M3255 1920 c-3 -5 -15 -10 -25 -10 -12 0 -21 -10 -25 -31 -10 -44 12
-64 59 -55 40 8 43 19 24 73 -12 34 -22 41 -33 23z"/>
<path d="M3582 1923 c-25 -5 -56 -57 -48 -79 11 -29 76 -38 76 -11 0 6 10 21
22 34 18 19 20 28 12 41 -12 18 -26 22 -62 15z"/>
<path d="M9312 1914 c-62 -27 -50 -79 17 -69 74 12 81 15 81 35 0 16 -47 53
-62 49 -2 0 -18 -7 -36 -15z"/>
<path d="M10812 1910 c-29 -27 -28 -48 4 -60 57 -22 94 -2 86 48 -4 28 -8 32
-36 32 -19 0 -42 -9 -54 -20z"/>
<path d="M12411 1899 c-22 -17 -41 -37 -41 -45 0 -8 16 -22 35 -31 27 -13 37
-14 48 -4 22 18 31 79 14 96 -13 12 -20 10 -56 -16z"/>
<path d="M2236 1895 c-16 -24 -16 -27 1 -50 19 -26 55 -41 72 -30 16 9 13 57
-5 83 -20 29 -48 28 -68 -3z"/>
<path d="M2463 1907 c-25 -11 -33 -34 -22 -65 9 -24 38 -29 57 -10 16 16 15
75 0 81 -7 2 -23 0 -35 -6z"/>
<path d="M4462 1894 c-29 -20 -28 -48 3 -68 30 -20 54 -14 77 18 15 21 15 25
2 45 -18 25 -51 27 -82 5z"/>
<path d="M6517 1865 c-70 -54 -72 -93 -5 -109 22 -5 29 -1 47 30 21 35 29 114
12 114 -4 0 -29 -16 -54 -35z"/>
<path d="M7064 1874 c-39 -31 -24 -55 45 -72 59 -15 81 -6 81 33 0 27 -13 38
-61 52 -33 9 -40 8 -65 -13z"/>
<path d="M9047 1888 c-38 -8 -51 -16 -63 -40 -15 -28 -14 -31 7 -54 12 -13 31
-24 42 -24 30 0 99 74 95 102 -4 27 -16 29 -81 16z"/>
<path d="M6308 1854 c-16 -35 0 -60 38 -57 16 2 44 3 62 3 29 1 32 4 32 30 0
36 -23 50 -80 50 -34 0 -42 -4 -52 -26z"/>
<path d="M3739 1863 c-10 -2 -20 -12 -23 -21 -3 -9 -8 -22 -11 -28 -7 -14 58
-46 78 -38 8 3 18 1 22 -5 13 -22 35 -11 35 18 0 52 -49 88 -101 74z"/>
<path d="M11725 1853 c-36 -19 -31 -14 -39 -38 -5 -16 2 -25 30 -40 42 -23 57
-16 88 38 18 32 19 39 6 47 -21 14 -50 12 -85 -7z"/>
<path d="M11005 1848 c-31 -17 -85 -71 -85 -84 0 -7 19 -16 45 -19 40 -7 46
-5 70 21 56 64 37 119 -30 82z"/>
<path d="M3931 1827 c-24 -13 -50 -35 -59 -50 -15 -24 -15 -27 3 -46 28 -32
47 -25 88 30 58 76 43 106 -32 66z"/>
<path d="M4653 1837 c-18 -7 -40 -19 -49 -29 -15 -15 -15 -18 2 -42 12 -16 25
-23 34 -19 8 3 26 8 40 10 40 8 80 27 80 38 0 6 -7 21 -16 33 -17 24 -42 27
-91 9z"/>
<path d="M9507 1843 c-15 -3 -35 -15 -44 -29 -15 -23 -15 -26 3 -39 26 -20 73
-9 102 23 32 34 4 54 -61 45z"/>
<path d="M9690 1822 c-19 -15 -21 -22 -12 -39 7 -11 28 -30 48 -42 35 -21 39
-21 89 -6 29 8 58 21 64 29 7 8 23 17 37 20 19 5 25 12 22 29 -3 21 -8 22
-114 25 -96 2 -114 0 -134 -16z"/>
<path d="M2384 1805 c-19 -29 -11 -61 17 -70 40 -13 62 32 39 76 -14 26 -36
24 -56 -6z"/>
<path d="M5263 1797 c-24 -7 -54 -24 -69 -38 -22 -22 -24 -30 -15 -48 20 -36
55 -37 111 -1 51 33 58 47 40 81 -12 21 -10 21 -67 6z"/>
<path d="M2270 1705 c-29 -31 -19 -57 26 -65 24 -4 29 -10 29 -34 0 -17 7 -33
18 -40 27 -16 89 56 85 99 -3 28 -5 30 -40 27 -29 -3 -39 1 -48 17 -15 28 -41
26 -70 -4z"/>
<path d="M2812 1720 c-30 -13 -46 -54 -29 -80 17 -29 41 -25 72 11 44 54 19
94 -43 69z"/>
</g>
</svg>
