<?xml version="1.0" standalone="no"?>
<!DOCTYPE svg PUBLIC "-//W3C//DTD SVG 20010904//EN"
 "http://www.w3.org/TR/2001/REC-SVG-20010904/DTD/svg10.dtd">
<svg version="1.0" xmlns="http://www.w3.org/2000/svg"
 width="1108.925466pt" height="400.000000pt" viewBox="0 0 1108.925466 400.000000"
 preserveAspectRatio="xMidYMid meet">
<metadata>
Created by potrace 1.15, written by Peter Selinger 2001-2017
</metadata>
<g transform="translate(-27.935451,417.268097) scale(0.047912,-0.047912)"
fill="#444444" stroke="none">
<path d="M9922 8700 c-40 -5 -83 -11 -96 -14 -28 -7 -39 -38 -25 -73 5 -13 9
-39 9 -58 0 -19 3 -36 8 -39 4 -2 6 -126 5 -275 l-3 -270 25 -28 c20 -23 27
-26 42 -17 16 10 18 27 18 143 0 72 3 131 7 131 5 0 37 -13 71 -30 35 -16 68
-30 73 -30 9 0 116 -86 144 -115 151 -159 173 -173 178 -115 3 32 -4 43 -85
126 -48 49 -114 114 -146 143 l-58 54 38 17 c89 41 153 138 153 233 -1 112
-56 171 -186 201 -40 8 -78 17 -85 19 -8 3 -47 1 -87 -3z m223 -109 c55 -13
92 -118 59 -169 -51 -82 -96 -109 -191 -118 -100 -9 -103 -5 -119 152 -7 71
-10 132 -6 136 16 15 192 15 257 -1z"/>
<path d="M12084 8685 c-9 -14 -14 -35 -11 -47 3 -13 13 -97 22 -188 17 -166
28 -205 70 -240 21 -18 47 15 40 50 -11 50 -24 158 -36 280 -6 69 -16 135 -22
147 -13 30 -43 29 -63 -2z"/>
<path d="M10960 8598 c-16 -15 -20 -27 -15 -47 4 -14 13 -65 19 -113 7 -48 19
-94 26 -102 8 -11 9 -20 3 -28 -6 -7 -13 -38 -17 -68 -4 -30 -12 -60 -17 -67
-7 -8 -6 -19 2 -35 7 -13 14 -57 15 -98 4 -109 25 -182 57 -198 44 -21 123
-21 160 1 93 56 155 161 143 241 -16 95 -62 131 -190 148 -47 6 -86 13 -86 17
-1 3 -2 38 -5 76 -2 39 -8 106 -15 150 -18 131 -38 162 -80 123z m282 -477 c9
-9 20 -34 23 -56 6 -37 3 -44 -35 -88 -48 -54 -86 -77 -127 -77 -32 0 -30 -8
-36 145 l-2 70 35 18 c41 20 115 15 142 -12z"/>
<path d="M6300 8566 c-7 -13 -10 -37 -7 -53 22 -110 30 -140 42 -153 16 -19
25 -124 27 -318 l1 -153 30 -21 c27 -19 30 -19 45 -4 14 14 17 37 15 143 -2
69 0 130 3 135 3 5 13 3 22 -5 10 -9 42 -27 72 -41 61 -29 150 -83 193 -116
18 -14 27 -31 27 -50 0 -33 32 -76 48 -66 19 11 14 78 -8 111 -11 17 -20 37
-20 46 0 19 -47 57 -110 89 -53 26 -129 81 -130 93 0 5 17 29 38 55 102 124
109 205 25 285 -40 37 -80 47 -199 47 -96 0 -101 -1 -114 -24z m280 -101 c35
-18 34 -13 14 -61 -19 -46 -49 -81 -87 -100 -48 -25 -62 -12 -75 69 -17 100
-13 107 60 107 33 0 72 -7 88 -15z"/>
<path d="M8610 8575 c-14 -17 -15 -28 -7 -169 4 -72 12 -117 22 -132 8 -13 15
-45 15 -74 l0 -50 -37 6 c-30 4 -46 0 -73 -18 -45 -31 -140 -147 -140 -173 0
-31 45 -117 76 -147 16 -15 46 -34 67 -43 37 -15 39 -15 109 20 40 19 77 35
83 35 7 0 29 15 51 34 l39 34 -20 22 c-11 12 -21 32 -22 44 -1 11 -20 89 -42
171 -37 144 -59 292 -53 364 6 69 -35 115 -68 76z m60 -558 c0 -4 11 -25 25
-47 14 -22 25 -42 25 -44 0 -2 -15 -7 -32 -11 -18 -4 -59 -19 -92 -33 l-59
-26 -28 32 c-45 50 -47 76 -8 121 19 22 50 46 69 54 33 14 36 13 67 -12 18
-14 33 -29 33 -34z"/>
<path d="M11432 8358 c-31 -31 11 -98 61 -98 17 0 19 5 14 40 -8 63 -43 90
-75 58z"/>
<path d="M9310 8269 c-30 -4 -96 -7 -147 -8 -119 -1 -143 -10 -143 -53 1 -59
78 -119 100 -78 8 15 28 19 132 24 190 10 218 15 218 36 0 18 -60 72 -90 81
-8 3 -40 2 -70 -2z"/>
<path d="M6923 8243 c-17 -15 -43 -36 -57 -46 -21 -15 -26 -26 -26 -62 0 -30
6 -50 18 -62 10 -10 33 -43 50 -73 17 -30 40 -61 51 -68 12 -7 21 -18 21 -25
0 -7 15 -28 34 -46 l35 -34 67 29 c36 15 88 47 114 71 41 37 49 50 55 92 9 64
-14 108 -80 161 -77 61 -120 80 -188 86 -57 5 -64 3 -94 -23z m178 -85 c40
-13 87 -50 111 -86 16 -24 16 -27 -8 -58 -14 -17 -42 -43 -63 -57 l-38 -26
-12 25 c-10 23 -12 24 -34 9 -27 -18 -37 -12 -84 50 -38 50 -47 79 -33 104 24
45 94 62 161 39z"/>
<path d="M7360 8218 c1 -45 38 -174 68 -238 29 -61 55 -72 109 -45 38 19 55
38 88 103 15 28 29 52 31 52 1 0 10 -15 19 -32 8 -18 35 -60 60 -93 25 -33 45
-65 45 -72 0 -18 50 -53 76 -53 35 0 31 33 -10 78 -31 34 -145 232 -167 290
-21 53 -59 33 -80 -43 -25 -90 -77 -165 -114 -165 -11 0 -29 52 -55 155 -11
48 -36 85 -56 85 -8 0 -14 -9 -14 -22z"/>
<path d="M10545 8205 c-62 -44 -99 -93 -120 -156 -20 -58 -14 -93 23 -135 47
-54 150 -94 206 -80 89 22 173 177 147 272 -36 129 -151 173 -256 99z m160
-69 c36 -36 34 -91 -5 -145 -60 -82 -136 -104 -155 -45 -6 17 -16 38 -23 47
-11 13 -10 22 7 56 54 105 124 139 176 87z"/>
<path d="M7969 8194 c-7 -9 -22 -14 -36 -11 -16 3 -28 -2 -38 -16 -12 -18 -11
-25 11 -62 13 -23 29 -69 35 -101 13 -74 46 -134 72 -134 21 0 21 15 -3 147
-17 88 -9 103 57 103 68 0 95 -34 116 -147 10 -48 17 -99 17 -112 0 -49 64
-69 74 -23 9 39 -11 218 -28 251 -18 33 -81 91 -100 91 -8 0 -19 7 -26 15 -18
21 -133 21 -151 -1z"/>
<path d="M11459 8189 c-16 -32 -2 -264 18 -284 19 -19 37 -19 54 1 10 13 11
36 1 125 -7 61 -10 114 -6 120 8 14 -23 59 -41 59 -8 0 -19 -10 -26 -21z"/>
<path d="M11739 8194 c-71 -45 -97 -181 -52 -275 24 -52 49 -67 71 -45 12 12
13 29 4 102 -11 98 -6 116 41 135 38 16 56 5 84 -52 17 -33 22 -59 21 -106 -1
-70 11 -92 46 -86 35 7 43 75 21 170 -14 60 -24 80 -59 118 -35 36 -50 45 -77
45 -19 0 -43 2 -54 5 -11 3 -32 -2 -46 -11z"/>
<path d="M12193 7983 c-16 -10 -23 -25 -23 -47 1 -38 18 -62 54 -76 24 -9 30
-7 47 12 24 28 18 72 -13 105 -25 27 -35 28 -65 6z"/>
<path d="M12780 7408 c-47 -4 -110 -12 -140 -18 -30 -5 -120 -12 -200 -15 -80
-3 -158 -10 -175 -15 -31 -9 -147 -18 -325 -25 -152 -7 -280 -13 -405 -22 -60
-4 -132 -6 -160 -5 -27 1 -214 4 -415 7 -201 3 -378 9 -395 14 -57 15 -392 -1
-445 -21 -34 -13 -67 -18 -200 -28 -63 -5 -123 -12 -133 -16 -38 -14 -45 -61
-36 -224 6 -122 12 -158 28 -185 16 -28 18 -46 14 -119 -2 -47 0 -110 6 -139
5 -28 11 -92 13 -142 l3 -90 -110 -7 c-60 -4 -135 -12 -165 -18 -30 -5 -69
-12 -87 -15 -17 -3 -44 -10 -60 -16 -15 -6 -53 -11 -84 -10 -30 1 -68 -3 -85
-9 -27 -11 -31 -9 -67 32 -21 24 -55 66 -76 93 -76 99 -156 170 -233 208 -40
20 -104 61 -141 92 -67 55 -67 55 -93 38 -25 -16 -26 -20 -19 -67 8 -59 12
-94 21 -187 l6 -67 -33 -11 c-19 -6 -50 -13 -69 -15 -19 -3 -35 -5 -35 -6 0
-1 -26 -3 -58 -5 -144 -10 -292 -91 -409 -224 -34 -39 -65 -71 -69 -71 -4 0
-24 -24 -46 -52 -68 -91 -95 -200 -113 -453 -5 -71 -12 -141 -14 -155 -3 -14
-10 -65 -16 -115 -18 -151 -68 -358 -89 -367 -10 -4 -57 -105 -66 -141 -4 -15
-11 -30 -16 -33 -5 -3 -9 -16 -9 -29 0 -32 40 -44 73 -22 12 8 50 68 83 133
64 122 94 222 94 308 0 25 5 48 10 51 6 3 10 28 10 54 0 26 7 70 15 97 8 27
15 69 15 94 0 69 37 318 55 380 9 30 23 62 30 70 7 8 19 29 28 45 21 41 130
155 201 209 74 57 132 86 188 92 23 2 54 9 68 13 14 5 51 12 83 15 l57 6 -1
-42 c-1 -66 -21 -149 -47 -190 -49 -78 -8 -144 67 -110 20 10 41 20 46 25 6 4
33 24 60 45 58 44 189 113 225 118 22 3 102 29 135 44 70 32 94 34 104 8 14
-35 31 -140 31 -185 0 -43 20 -144 30 -153 13 -11 27 -148 21 -200 -3 -30 -1
-80 5 -110 l10 -55 52 -3 c28 -2 75 3 104 11 35 8 70 10 103 5 89 -13 354 -16
358 -4 4 13 78 13 352 3 105 -5 201 -8 215 -9 34 -1 256 0 300 1 19 1 215 3
435 4 386 3 499 10 511 29 3 5 11 5 17 -1 7 -5 44 -6 92 -1 44 4 118 5 165 1
77 -7 121 -6 275 4 28 2 93 10 147 19 53 8 154 15 225 15 70 1 157 6 193 12
36 6 112 12 170 14 58 1 161 5 230 9 69 4 172 9 230 11 108 3 215 12 285 23
22 3 144 7 270 7 189 1 240 4 288 18 32 10 61 16 65 13 9 -5 68 7 142 30 59
18 94 24 180 29 30 2 74 10 96 19 23 8 83 18 133 21 50 4 93 11 96 15 2 4 33
3 67 -2 35 -5 79 -6 98 -2 19 4 58 6 87 5 86 -4 86 -9 28 439 -13 102 -27 211
-30 242 -4 34 -15 70 -29 90 -18 28 -28 33 -61 33 -46 1 -153 -13 -165 -20 -5
-3 -81 -8 -169 -10 -117 -4 -161 -2 -167 6 -4 7 -11 110 -15 229 -4 132 -13
241 -22 281 -9 35 -18 89 -21 120 -7 71 -58 175 -89 183 -12 3 -122 6 -243 7
-122 1 -266 5 -320 8 -55 4 -119 3 -144 -2 -52 -10 -101 -10 -265 4 -145 13
-647 17 -765 7z m725 -116 c76 -9 258 -15 370 -14 313 5 610 0 617 -11 4 -6
10 -37 13 -67 4 -30 13 -86 21 -125 9 -42 19 -166 24 -305 10 -260 16 -324 36
-420 8 -36 17 -135 20 -220 3 -85 9 -179 15 -209 16 -93 14 -101 -23 -101 -38
0 -141 -23 -243 -54 -63 -19 -94 -21 -325 -21 -140 -1 -340 -7 -445 -14 -104
-7 -210 -14 -235 -16 -25 -1 -142 -6 -260 -10 -118 -4 -235 -11 -259 -16 -23
-5 -95 -10 -160 -10 -64 0 -154 -7 -201 -14 -236 -36 -328 -42 -590 -33 -84 2
-142 -2 -215 -15 -75 -15 -136 -19 -245 -17 -136 3 -741 3 -985 1 -239 -3
-521 12 -538 28 -15 15 -12 195 6 286 14 72 17 122 12 250 -9 272 -16 419 -20
425 -2 3 -6 49 -9 101 -3 52 -13 121 -21 154 -8 33 -18 117 -22 188 l-6 127
29 1 c119 4 177 9 189 19 7 6 19 8 28 5 8 -4 50 1 93 10 84 17 325 23 469 11
44 -4 190 -7 325 -7 135 -1 249 -3 253 -6 25 -15 624 3 645 19 8 7 17 7 27 -2
8 -6 18 -9 22 -7 5 3 49 8 98 12 50 3 138 12 197 20 58 8 153 17 210 20 56 3
159 10 228 16 69 6 146 10 172 10 26 0 50 4 53 9 3 4 53 6 112 4 60 -1 133 0
163 4 72 9 241 6 355 -6z m1639 -825 c12 -9 19 -32 23 -82 3 -39 11 -106 19
-150 13 -72 37 -326 31 -331 -1 -1 -85 -7 -187 -13 -102 -6 -206 -16 -232 -23
-36 -9 -50 -9 -62 1 -16 14 -24 89 -30 286 -2 72 -9 160 -16 197 -8 38 -11 70
-8 73 2 3 46 5 96 6 51 0 113 7 138 15 59 18 107 18 102 2 -6 -18 -68 -30
-160 -31 -67 -2 -79 -5 -97 -26 -23 -26 -27 -46 -12 -56 13 -8 1 -143 -15
-174 -11 -21 -11 -29 0 -45 25 -38 40 -41 107 -18 43 14 99 22 169 25 103 4
105 5 115 31 6 18 5 37 -2 57 -7 18 -9 64 -6 124 5 80 3 98 -11 113 -26 30 3
44 38 19z m-116 -177 c1 -25 -2 -52 -8 -60 -8 -13 -11 -13 -23 0 -8 8 -21 34
-30 57 -15 39 -15 42 1 46 45 13 57 4 60 -43z m-119 -22 c29 -49 15 -48 -26 1
-22 26 -29 41 -20 44 15 5 18 2 46 -45z m-5091 -40 c6 -18 11 -82 11 -142 l1
-108 -26 17 c-22 14 -28 15 -39 3 -10 -10 -9 -30 7 -103 17 -83 26 -280 13
-293 -3 -3 -67 0 -143 7 -113 10 -150 9 -212 -2 -41 -8 -78 -12 -83 -10 -4 3
-7 44 -5 91 1 66 -6 122 -30 232 -18 80 -32 170 -32 200 0 51 2 56 29 68 16 7
61 15 101 18 39 2 79 8 88 13 10 5 53 12 98 16 44 4 96 10 115 15 19 4 48 8
66 9 27 1 33 -3 41 -31z"/>
<path d="M10405 6988 c-38 -5 -103 -15 -143 -22 -40 -8 -81 -12 -92 -9 -13 4
-23 -4 -35 -26 -16 -31 -15 -32 14 -62 34 -33 19 -33 205 -8 81 12 90 11 101
-4 15 -21 34 -150 33 -222 -1 -27 3 -96 7 -152 l8 -103 -39 -2 c-22 -1 -73 0
-115 1 l-76 3 -11 -30 c-9 -26 -7 -33 11 -49 46 -41 177 -56 290 -33 31 6 61
9 66 5 12 -7 146 12 169 24 9 5 25 12 35 15 19 6 23 41 6 52 -6 3 -63 10 -127
15 -64 6 -117 11 -118 12 -2 1 -7 78 -13 170 -6 92 -16 197 -22 233 -8 48 -8
69 0 77 6 6 50 10 113 9 86 -1 106 -4 130 -22 51 -38 65 0 23 62 -19 29 -36
40 -80 53 -31 9 -65 13 -76 10 -11 -4 -19 -2 -19 5 0 7 -6 8 -18 1 -12 -6 -33
-6 -58 -1 -45 11 -73 11 -169 -2z"/>
<path d="M11974 6827 c-3 -8 -4 -54 -2 -103 l3 -89 -45 -3 c-27 -2 -50 -9 -57
-19 -17 -22 -16 -63 1 -63 7 0 19 -6 26 -14 6 -8 26 -16 43 -18 37 -4 45 -22
46 -119 1 -56 5 -69 25 -88 15 -14 33 -21 48 -19 23 3 23 4 20 104 l-4 102 51
11 c28 6 63 8 78 5 33 -6 101 20 110 43 14 36 -10 48 -98 48 -125 1 -138 11
-160 112 -10 45 -23 91 -29 102 -12 23 -48 28 -56 8z"/>
<path d="M11540 6701 c-59 -20 -78 -32 -88 -54 -12 -26 -11 -32 18 -77 38 -59
129 -129 203 -156 32 -12 19 -40 -27 -58 -78 -30 -138 -30 -208 -1 -11 4 -18
0 -23 -15 -9 -29 27 -68 72 -76 18 -3 36 -10 39 -15 12 -19 75 -8 167 29 43
18 87 64 87 92 0 30 -47 78 -115 115 -149 84 -153 133 -13 151 79 10 108 43
70 77 -27 24 -93 20 -182 -12z"/>
<path d="M13905 6699 c-22 -10 -46 -19 -54 -19 -7 0 -30 -17 -51 -39 -30 -30
-39 -50 -45 -89 -10 -77 9 -157 54 -225 22 -32 41 -61 43 -65 8 -17 102 -85
144 -104 38 -16 59 -19 104 -15 75 8 77 10 133 74 36 43 47 64 47 90 0 18 -3
33 -7 32 -9 0 -45 -25 -113 -76 -65 -50 -146 -39 -222 30 -54 50 -70 117 -28
117 74 0 224 96 257 165 21 45 10 100 -25 123 -38 25 -183 26 -237 1z m193
-72 c39 -31 -22 -92 -113 -112 -16 -4 -46 -9 -65 -12 -19 -3 -41 -10 -47 -15
-26 -21 -43 0 -43 51 0 46 2 50 34 65 18 8 54 18 80 21 25 3 56 10 69 15 24 9
64 3 85 -13z"/>
<path d="M12603 6649 c-24 -11 -43 -24 -43 -30 0 -5 -8 -13 -19 -17 -10 -4
-52 -38 -93 -75 -86 -78 -108 -122 -92 -185 7 -29 20 -44 59 -69 53 -35 100
-42 165 -23 37 11 130 100 130 126 0 28 21 13 39 -28 27 -62 64 -98 101 -98
33 0 40 19 15 40 -8 7 -15 20 -15 29 0 9 -7 27 -16 39 -8 12 -26 53 -38 90
-28 82 -64 142 -99 165 -14 9 -28 26 -32 37 -8 24 -8 24 -62 -1z m55 -171 c-9
-123 -69 -178 -176 -160 -53 8 -61 40 -24 94 46 67 170 156 196 141 5 -3 6
-37 4 -75z"/>
<path d="M13504 6647 c-45 -24 -88 -69 -103 -110 -5 -14 -17 -59 -25 -101 -18
-85 -12 -112 32 -159 52 -55 124 -71 190 -40 54 24 143 122 139 153 -3 34 -29
36 -58 5 -26 -27 -136 -85 -163 -85 -74 0 -74 166 0 232 11 9 37 23 59 32 56
24 69 50 39 80 -21 22 -61 19 -110 -7z"/>
<path d="M10996 6625 c-15 -19 -33 -35 -40 -35 -7 0 -20 -8 -29 -17 -13 -15
-14 -32 -7 -113 14 -155 42 -215 93 -202 18 5 19 11 13 66 -19 185 -19 188 13
225 29 32 30 33 68 21 77 -26 100 -53 121 -144 11 -46 17 -96 15 -110 -8 -38
15 -78 41 -74 28 4 49 69 42 130 -9 87 -68 184 -150 249 -43 34 -55 39 -101
39 -48 0 -55 -3 -79 -35z"/>
<path d="M12990 6637 c-38 -13 -50 -32 -85 -132 -16 -47 -20 -75 -15 -125 5
-59 7 -65 31 -74 52 -18 59 -6 59 97 0 80 3 98 21 121 27 34 38 33 77 -7 32
-33 48 -84 56 -181 4 -53 23 -70 65 -59 19 5 21 13 21 69 0 103 -48 208 -120
265 -45 35 -67 40 -110 26z"/>
<path d="M15016 6065 c-32 -49 -13 -95 44 -110 18 -4 31 -1 42 12 27 31 29 56
8 91 -25 41 -69 45 -94 7z"/>
<path d="M9460 6139 c-13 -5 -33 -9 -45 -7 -32 5 -46 -40 -34 -109 6 -31 8
-64 6 -74 -3 -10 1 -26 9 -36 7 -10 14 -27 14 -38 0 -11 7 -28 14 -38 11 -14
12 -27 4 -53 -13 -50 -3 -72 38 -80 49 -9 69 13 69 72 l0 45 68 5 c38 2 77 8
87 14 10 5 28 10 40 10 20 0 22 4 17 38 -3 20 -10 74 -17 119 -8 60 -8 87 0
103 19 35 3 43 -74 36 -100 -10 -97 -10 -136 -3 -19 4 -46 2 -60 -4z m212
-161 c-4 -34 -22 -65 -22 -39 0 6 -17 18 -37 26 -38 16 -50 17 -45 3 5 -17
-19 -6 -51 22 -19 17 -40 30 -46 30 -6 0 -11 4 -11 9 0 13 53 29 120 37 30 4
62 10 70 15 12 6 16 0 21 -29 4 -20 4 -53 1 -74z m-162 -63 c0 -3 -9 -5 -20
-5 -15 0 -20 7 -20 27 l0 27 20 -22 c11 -12 20 -24 20 -27z"/>
<path d="M18390 7272 c-46 -22 -50 -52 -11 -75 24 -14 43 -16 95 -11 35 4 89
3 120 0 77 -10 88 -32 91 -181 1 -61 7 -127 13 -146 7 -19 11 -54 10 -79 -1
-25 1 -88 5 -140 6 -85 13 -145 32 -300 6 -48 6 -292 0 -455 -2 -56 1 -105 7
-112 6 -8 6 -25 -1 -50 -16 -57 -13 -114 7 -148 13 -20 16 -37 11 -50 -13 -33
-10 -74 7 -100 13 -21 14 -34 6 -82 -10 -55 -9 -98 2 -243 12 -148 19 -301 20
-395 1 -55 4 -104 7 -110 4 -5 7 -45 8 -87 1 -42 5 -88 11 -102 6 -18 5 -40
-5 -73 -8 -26 -15 -67 -15 -90 0 -35 5 -45 35 -70 20 -15 47 -38 61 -50 l25
-23 -24 -37 c-29 -47 -51 -174 -41 -240 3 -26 26 -108 51 -180 25 -76 52 -185
63 -255 11 -68 25 -143 31 -168 19 -74 30 -141 34 -210 3 -36 9 -90 14 -120 6
-30 13 -82 16 -115 4 -33 13 -82 20 -110 24 -90 30 -179 35 -555 1 -47 8 -127
16 -178 11 -71 12 -112 5 -175 -12 -93 -24 -266 -22 -315 1 -18 -8 -55 -20
-82 -17 -41 -28 -51 -67 -68 -70 -30 -110 -35 -198 -22 -145 21 -152 21 -160
9 -16 -26 66 -78 110 -70 4 1 15 -4 23 -10 9 -8 47 -12 105 -11 78 1 100 6
153 30 49 24 67 39 94 80 l33 51 0 138 c0 76 7 181 15 233 8 52 12 109 9 125
-8 42 -25 312 -36 545 -5 125 -16 229 -28 290 -11 52 -23 133 -27 180 -6 80
-35 269 -69 460 -9 47 -16 97 -16 112 0 28 -27 127 -73 268 -31 94 -41 197
-26 253 6 25 25 55 46 75 35 33 35 33 131 31 53 -1 113 -7 133 -14 27 -10 40
-10 48 -2 15 15 14 42 -2 56 -32 26 -154 62 -231 68 -81 6 -151 28 -173 54 -8
10 -13 88 -17 234 -6 284 -48 1030 -64 1161 -5 39 -7 213 -5 386 2 198 0 347
-7 399 -6 46 -13 118 -16 159 -3 41 -11 138 -19 215 -8 77 -17 176 -20 220 -8
121 -16 186 -25 211 -13 34 -88 64 -187 74 -116 13 -113 13 -153 -8z"/>
<path d="M17332 6870 c-62 -14 -191 -118 -280 -226 -83 -101 -87 -265 -9 -435
27 -58 47 -85 95 -126 70 -61 95 -73 177 -84 118 -16 137 -20 168 -36 39 -20
198 -13 244 11 49 25 140 131 175 204 31 65 32 71 32 202 1 86 -4 148 -12 172
-8 22 -41 64 -84 105 -39 37 -85 82 -102 99 -55 55 -110 90 -161 102 -63 15
-200 22 -243 12z m268 -142 c34 -10 64 -32 124 -93 43 -44 85 -89 93 -101 23
-36 28 -189 8 -258 -24 -81 -105 -177 -160 -189 -22 -4 -64 -15 -93 -24 -48
-14 -55 -14 -71 1 -10 9 -34 16 -55 16 -21 0 -78 10 -127 21 -85 21 -91 24
-139 76 -56 61 -79 120 -87 225 -5 56 -2 74 17 113 31 65 124 162 183 191 83
42 209 51 307 22z"/>
<path d="M17487 6646 c-23 -21 -26 -29 -17 -45 5 -11 13 -54 17 -96 l6 -75
-42 0 -43 0 7 74 c8 80 -3 116 -34 116 -33 0 -58 -66 -64 -175 -8 -133 -3
-138 95 -134 l73 4 1 -73 c1 -61 5 -77 24 -98 27 -28 30 -28 54 -11 13 9 19
35 25 100 8 80 11 89 45 127 39 44 40 47 26 84 -7 20 -16 26 -40 26 -24 0 -30
4 -30 21 0 38 -31 129 -54 155 l-21 26 -28 -26z"/>
<path d="M16130 6819 c-19 -4 -70 -10 -113 -14 -54 -3 -96 -13 -131 -30 -29
-14 -57 -25 -62 -25 -18 0 -83 -61 -99 -93 -27 -53 -55 -131 -55 -152 0 -12
-5 -26 -11 -32 -18 -18 -33 -110 -32 -189 1 -57 7 -82 31 -130 16 -32 33 -70
37 -84 23 -74 133 -161 233 -184 35 -8 72 -22 82 -31 25 -22 138 -24 190 -2 8
3 31 8 50 10 176 24 290 98 356 232 34 70 41 165 26 328 -13 133 -41 198 -119
275 -68 66 -109 87 -203 102 -41 6 -91 15 -110 19 -19 4 -51 4 -70 0z m172
-131 c103 -20 111 -24 153 -65 31 -31 48 -59 59 -96 24 -85 36 -166 36 -244 0
-93 -29 -157 -103 -227 -70 -65 -93 -79 -128 -78 -17 0 -58 -8 -91 -19 -74
-23 -92 -24 -124 -3 -15 10 -52 18 -90 20 -139 7 -181 35 -246 164 -39 77 -43
92 -42 155 1 112 57 257 126 324 52 51 108 72 199 76 45 2 84 6 87 9 10 11 55
6 164 -16z"/>
<path d="M16087 6575 c-24 -23 -29 -65 -19 -156 6 -46 10 -106 9 -134 -1 -117
0 -121 36 -132 29 -9 35 -7 52 16 17 22 19 40 17 161 -4 205 -11 239 -58 254
-14 4 -27 1 -37 -9z"/>
<path d="M3259 5116 c-13 -13 -464 -32 -686 -29 -950 13 -1125 10 -1298 -18
-38 -6 -95 -15 -125 -20 -30 -5 -99 -9 -152 -9 -54 0 -144 -8 -200 -16 -57 -9
-113 -18 -124 -19 -12 -2 -32 -8 -44 -15 -21 -11 -22 -16 -15 -69 18 -143 25
-218 35 -376 12 -171 6 -282 -31 -600 -11 -96 -21 -620 -23 -1150 -1 -176 -5
-403 -9 -505 -7 -149 -5 -211 8 -320 19 -153 20 -253 3 -323 -9 -37 -9 -53 0
-67 7 -11 12 -48 12 -84 0 -89 1 -90 170 -97 14 -1 127 -1 252 1 125 1 231 -1
236 -4 4 -2 106 -7 226 -10 120 -3 221 -8 225 -11 4 -2 57 1 117 6 60 6 158
10 217 9 60 0 132 3 160 9 29 6 131 13 227 16 253 9 316 13 400 24 111 16 320
33 450 37 63 3 183 8 265 13 83 5 228 7 324 5 171 -5 328 12 466 48 22 6 174
12 337 14 172 1 305 7 316 13 10 5 38 9 63 9 24 -1 76 2 114 6 39 3 97 9 130
12 79 7 86 15 74 84 -10 55 -13 304 -5 390 9 99 18 382 22 710 2 190 7 444 10
565 3 125 1 272 -5 340 -16 186 -41 428 -46 445 -2 8 -6 38 -9 65 -13 121 -37
337 -46 415 -6 47 -12 120 -15 164 -7 125 -15 162 -43 196 -27 31 -27 32 -159
40 -73 5 -147 11 -165 14 -18 3 -76 8 -128 11 -84 4 -260 34 -300 51 -37 16
-1216 44 -1231 30z m786 -121 c293 -7 424 -13 480 -25 147 -30 268 -47 395
-56 25 -2 74 -6 110 -9 36 -2 77 -4 91 -5 50 0 60 -18 64 -117 2 -50 8 -118
14 -150 5 -32 15 -119 21 -193 7 -74 16 -144 21 -157 4 -12 11 -69 13 -125 3
-57 12 -155 20 -218 9 -63 18 -142 21 -175 9 -92 9 -415 -1 -555 -9 -141 -9
-156 -4 -260 6 -98 -7 -613 -21 -855 -7 -104 -9 -231 -5 -281 9 -125 14 -122
-200 -135 -93 -6 -239 -12 -324 -14 -85 -3 -175 -6 -200 -9 -25 -2 -76 -7
-115 -11 -38 -3 -122 -12 -185 -20 -138 -17 -466 -38 -478 -31 -22 13 -287 5
-492 -15 -58 -6 -202 -17 -320 -25 -118 -8 -228 -16 -245 -18 -133 -20 -342
-34 -510 -35 -110 -1 -254 -5 -320 -9 -145 -9 -176 -8 -625 1 -195 3 -396 7
-447 7 l-91 0 -5 142 c-2 79 -11 188 -18 243 -8 58 -13 171 -12 270 12 1305
18 1704 26 1760 4 22 11 103 17 180 15 208 22 279 25 285 2 3 0 39 -5 80 -5
41 -11 127 -14 190 -3 63 -8 140 -11 170 -7 65 2 83 41 82 16 0 56 4 89 10 70
12 105 15 280 22 72 3 148 10 170 16 34 9 236 30 300 31 11 1 216 -2 455 -5
239 -4 478 -7 530 -8 238 -3 524 4 548 14 60 24 275 27 917 13z"/>
<path d="M2914 4643 c-5 -16 1 -64 14 -118 12 -49 24 -136 28 -193 3 -57 9
-116 14 -132 9 -30 -1 -40 -42 -40 -10 0 -38 -11 -62 -25 -76 -45 -118 -124
-117 -223 1 -73 9 -92 52 -123 59 -42 137 -24 262 60 59 41 70 55 71 98 1 34
-2 38 -29 43 -25 5 -29 10 -27 30 7 50 4 86 -12 150 -8 36 -20 126 -26 200 -5
74 -14 146 -19 160 -6 14 -17 51 -26 83 -14 53 -18 57 -45 57 -24 0 -31 -5
-36 -27z m65 -605 c7 -12 15 -33 17 -47 10 -76 11 -75 -31 -94 -21 -11 -59
-20 -84 -21 -42 -1 -45 1 -53 32 -12 45 5 95 43 127 39 32 89 34 108 3z"/>
<path d="M922 4528 c-20 -26 -22 -56 -6 -99 44 -123 56 -334 29 -489 -8 -47
-15 -102 -15 -122 0 -33 3 -38 38 -49 64 -23 232 -15 347 16 111 30 123 35
148 62 15 17 15 22 3 38 -16 22 -74 22 -171 -1 -33 -7 -108 -17 -166 -20 -128
-8 -123 -13 -110 126 8 93 0 336 -14 395 -19 79 -48 155 -60 155 -7 0 -17 -6
-23 -12z"/>
<path d="M2330 4203 c-65 -22 -170 -106 -220 -175 -24 -33 -27 -46 -25 -98 2
-69 21 -103 74 -134 54 -31 96 -36 130 -15 37 22 87 90 96 129 11 51 27 52 60
4 22 -33 40 -47 69 -55 21 -6 44 -8 52 -5 21 8 17 40 -7 62 -25 22 -84 111
-93 141 -4 11 -16 31 -26 43 -15 17 -19 32 -14 55 5 27 1 36 -17 49 -28 19
-23 19 -79 -1z m8 -152 c4 -41 -24 -129 -51 -158 -25 -27 -77 -39 -106 -24
-25 14 -28 58 -7 99 28 54 120 125 151 118 6 -1 11 -17 13 -35z"/>
<path d="M1678 4161 c-52 -17 -89 -46 -108 -86 -41 -84 -14 -192 59 -240 37
-25 39 -25 97 -10 32 8 69 15 82 15 62 0 142 86 142 151 0 93 -173 201 -272
170z m159 -113 c35 -33 30 -65 -21 -114 -44 -41 -45 -42 -93 -33 -54 10 -83
37 -83 78 0 33 44 78 80 83 76 10 94 8 117 -14z"/>
<path d="M2109 3123 c-9 -26 4 -131 31 -233 5 -19 11 -55 14 -80 3 -25 10 -67
16 -95 6 -27 12 -101 15 -165 3 -63 8 -134 11 -158 7 -47 29 -76 51 -68 8 3
22 6 30 6 13 0 15 17 8 138 -4 75 -15 182 -25 237 -11 55 -24 134 -30 175 -18
133 -46 243 -66 257 -27 20 -43 16 -55 -14z"/>
<path d="M1017 3120 c-80 -8 -121 -32 -125 -77 -2 -23 2 -32 23 -41 14 -7 31
-12 38 -12 24 0 39 -59 37 -147 0 -49 4 -141 11 -206 10 -111 10 -119 -10
-157 -12 -23 -21 -47 -21 -55 0 -7 28 -27 62 -44 123 -62 252 -35 370 78 42
39 57 88 39 127 -16 35 -87 98 -167 148 -37 23 -69 47 -71 53 -2 6 11 20 30
31 55 32 90 86 95 146 4 50 2 55 -31 89 -38 37 -118 70 -177 72 -19 0 -66 -2
-103 -5z m201 -110 c17 -14 22 -25 17 -41 -9 -26 -83 -109 -98 -109 -6 0 -19
-7 -28 -16 -17 -16 -19 -15 -29 10 -5 15 -10 58 -10 96 l0 69 58 4 c31 2 59 4
62 5 3 1 15 -7 28 -18z m-45 -311 c123 -49 149 -64 163 -91 21 -41 17 -61 -18
-94 -46 -41 -105 -71 -158 -79 -25 -4 -49 -7 -54 -8 -10 -2 -20 258 -12 280 7
18 19 16 79 -8z"/>
<path d="M4687 2959 c-32 -4 -71 -18 -87 -29 -37 -26 -80 -78 -80 -96 0 -20
-10 -17 -41 12 -30 28 -69 26 -69 -3 0 -17 15 -70 31 -108 4 -11 10 -47 12
-80 5 -75 16 -126 29 -142 16 -20 68 -16 68 5 1 126 10 177 40 238 32 65 67
101 104 108 12 3 63 11 115 20 52 9 96 17 98 19 11 12 -12 34 -46 44 -59 19
-110 22 -174 12z"/>
<path d="M4010 2915 c-59 -33 -118 -100 -126 -143 -10 -53 2 -143 25 -195 11
-25 21 -50 21 -54 0 -16 62 -84 90 -98 80 -41 161 -21 262 67 70 60 90 94 80
133 l-8 28 -67 -57 c-143 -121 -240 -128 -278 -18 -13 37 0 62 33 62 35 0 151
54 190 89 43 37 45 72 8 126 -61 88 -142 109 -230 60z m158 -83 c11 -15 9 -20
-14 -38 -47 -38 -184 -71 -184 -45 0 18 50 69 88 90 42 23 90 21 110 -7z"/>
<path d="M3568 2861 c-59 -63 -99 -153 -103 -226 -1 -22 -5 -56 -9 -76 -7 -34
-5 -38 36 -72 59 -47 122 -67 219 -67 85 0 126 14 153 51 27 40 12 47 -84 41
-110 -6 -206 12 -222 41 -16 30 -5 118 21 168 13 24 40 65 62 91 39 46 44 62
33 92 -13 33 -51 17 -106 -43z"/>
<path d="M3081 2896 c-13 -7 -37 -38 -52 -67 -22 -41 -35 -55 -56 -59 -37 -7
-61 -50 -46 -82 6 -13 21 -50 33 -83 36 -100 42 -110 75 -110 l30 0 -3 73 c-3
85 19 188 48 217 20 19 20 19 52 -12 40 -39 62 -98 83 -228 23 -139 21 -135
60 -135 43 0 49 17 40 118 -9 101 -28 160 -83 250 -60 99 -131 145 -181 118z"/>
<path d="M2681 2838 c-96 -67 -163 -134 -198 -198 -15 -28 -34 -61 -40 -73 -7
-12 -13 -46 -13 -75 0 -94 40 -132 139 -132 59 0 134 42 187 104 l38 45 12
-29 c9 -22 22 -31 48 -36 46 -8 70 1 63 24 -3 9 -17 44 -31 77 -14 33 -34 114
-46 180 -22 125 -38 165 -68 165 -9 0 -50 -24 -91 -52z m64 -143 c13 -97 -40
-211 -111 -241 -48 -20 -101 -18 -113 4 -10 20 1 88 21 126 30 57 151 166 185
166 7 0 14 -23 18 -55z"/>
<path d="M1799 2797 c-82 -56 -218 -205 -258 -285 -31 -60 -25 -80 33 -115 48
-30 49 -30 122 -19 89 14 115 30 158 94 35 52 44 51 65 -5 13 -35 96 -74 117
-56 21 17 17 35 -12 54 -15 10 -44 55 -72 113 -40 82 -47 106 -48 160 -2 67
-10 82 -50 82 -12 0 -36 -10 -55 -23z m11 -181 c0 -25 -4 -56 -9 -69 -12 -32
-61 -66 -117 -83 -39 -12 -46 -11 -51 2 -3 8 1 27 8 42 18 33 140 152 156 152
9 0 13 -15 13 -44z"/>
<path d="M21095 4960 c-11 -4 -31 -20 -44 -34 -14 -14 -30 -26 -36 -26 -7 0
-20 -9 -30 -20 -14 -16 -16 -24 -7 -47 6 -16 16 -65 23 -111 6 -45 16 -85 21
-88 5 -3 19 -3 32 0 21 5 23 12 29 103 5 73 12 104 25 123 27 35 45 35 85 0
38 -33 52 -66 62 -145 12 -93 39 -131 72 -103 12 10 14 27 9 88 -8 86 -38 159
-92 225 -34 42 -40 45 -83 44 -25 0 -55 -4 -66 -9z"/>
<path d="M20308 4917 c-15 -23 -34 -67 -42 -97 -18 -69 -44 -130 -55 -130 -4
0 -16 19 -26 43 -41 98 -76 165 -89 170 -8 3 -23 -3 -35 -14 l-21 -20 30 -53
c17 -29 41 -84 54 -122 41 -122 66 -154 121 -154 25 0 47 48 70 148 26 113 51
178 71 186 8 3 14 14 14 24 0 19 -39 62 -56 62 -5 0 -21 -19 -36 -43z"/>
<path d="M20629 4900 c-27 -27 -60 -72 -74 -100 -18 -35 -36 -56 -61 -67 -38
-19 -54 -54 -34 -78 9 -11 32 -14 90 -12 69 2 82 -1 107 -21 41 -33 93 -54
117 -48 34 8 88 70 80 90 -5 14 -14 16 -38 11 -88 -18 -94 -18 -105 3 -9 17
-7 24 11 36 12 9 27 16 34 16 6 0 32 16 57 36 72 56 65 94 -28 153 -71 45 -98
42 -156 -19z m128 -67 c4 -11 -86 -54 -109 -52 -10 0 -10 2 0 6 6 2 12 10 12
17 0 7 11 25 25 40 24 26 28 27 47 14 12 -8 23 -19 25 -25z"/>
<path d="M19668 4842 c-61 -66 -78 -101 -78 -165 0 -52 2 -56 50 -101 99 -93
270 -147 353 -113 31 13 37 21 37 46 0 30 0 30 -47 25 -78 -10 -233 38 -233
71 0 8 11 17 24 21 13 3 35 17 47 30 13 14 42 33 65 43 22 10 51 32 62 49 24
33 29 84 10 99 -18 14 -112 34 -183 40 l-61 5 -46 -50z m161 -56 c9 -10 -2
-21 -51 -50 -33 -20 -67 -36 -75 -36 -39 0 -15 72 30 90 34 13 83 12 96 -4z"/>
<path d="M7095 4610 c-90 -35 -125 -55 -131 -74 -4 -11 -21 -33 -39 -50 -18
-17 -50 -62 -70 -101 -20 -38 -45 -85 -57 -103 -31 -49 -43 -173 -24 -233 9
-26 16 -67 16 -91 0 -40 4 -47 69 -108 51 -48 99 -81 187 -126 106 -55 127
-62 195 -67 118 -8 246 33 347 112 26 20 61 45 78 56 65 42 204 231 204 277 0
55 -71 204 -138 293 -47 62 -144 141 -191 156 -20 6 -54 20 -77 30 -108 48
-283 62 -369 29z m285 -100 c30 -10 70 -20 88 -24 36 -6 69 -27 145 -90 34
-29 62 -67 102 -142 30 -56 55 -110 55 -119 0 -27 -65 -126 -112 -171 -75 -71
-188 -141 -283 -175 -89 -31 -91 -31 -135 -16 -27 10 -60 14 -81 11 -47 -8
-158 46 -220 107 -39 39 -49 56 -59 105 -20 92 -15 150 20 234 39 95 77 154
135 209 102 97 200 117 345 71z"/>
<path d="M7360 4344 c-25 -7 -88 -17 -140 -20 -109 -8 -126 -14 -132 -48 -11
-59 38 -72 195 -51 65 8 60 -26 -23 -152 -59 -90 -64 -125 -21 -148 17 -8 36
-13 43 -10 21 9 88 111 95 145 3 18 17 44 29 58 13 13 24 31 24 38 0 7 7 17
16 22 11 6 14 14 8 23 -11 19 -6 50 13 71 9 10 12 25 9 36 -14 43 -54 56 -116
36z"/>
<path d="M23555 4359 c-14 -26 -14 -39 -5 -82 6 -29 15 -119 20 -202 7 -124
12 -151 26 -162 22 -16 26 -16 46 0 15 10 16 27 8 137 -5 69 -11 169 -14 223
-3 54 -8 102 -11 108 -14 21 -55 9 -70 -22z"/>
<path d="M14405 4361 c-98 -15 -445 -20 -710 -11 -60 2 -157 3 -215 1 -58 -1
-130 0 -160 3 -62 7 -249 -7 -325 -23 -27 -6 -174 -12 -325 -15 -151 -2 -288
-7 -305 -10 -16 -4 -194 -8 -395 -10 -200 -2 -405 -8 -455 -12 -49 -4 -93 -7
-97 -6 -4 1 -40 5 -80 8 -40 3 -93 7 -118 10 -25 2 -72 8 -105 13 -76 13 -414
4 -432 -11 -9 -7 -17 -7 -27 2 -15 12 -245 2 -456 -21 -52 -6 -118 -12 -146
-14 -28 -2 -71 -9 -95 -15 -61 -17 -76 -19 -141 -27 -41 -4 -63 -12 -78 -28
-20 -21 -21 -27 -9 -86 16 -87 19 -496 4 -509 -7 -6 -54 -14 -106 -20 -52 -5
-108 -14 -126 -19 -17 -5 -100 -8 -183 -7 -99 2 -153 -1 -159 -8 -16 -20 -18
-116 -5 -199 8 -45 14 -107 14 -137 0 -77 21 -273 31 -284 4 -4 5 -33 2 -62
-5 -44 -2 -58 13 -75 20 -23 21 -23 149 6 57 12 84 13 142 4 40 -5 76 -8 80
-6 5 3 33 1 63 -5 56 -10 162 3 186 23 11 9 281 16 459 12 44 -1 98 -2 120 -1
22 0 128 -3 235 -6 107 -3 206 -6 220 -5 187 4 573 -9 605 -21 33 -13 168 -15
340 -5 61 3 124 5 140 4 112 -5 447 2 480 10 22 6 63 12 90 15 28 2 113 12
190 20 77 9 199 21 270 26 172 13 190 15 260 32 33 8 86 16 119 17 32 1 69 6
83 12 13 5 51 9 84 9 33 0 68 4 77 9 9 5 64 12 122 15 58 4 141 12 185 17 196
24 312 39 335 45 14 4 152 7 306 8 267 1 283 2 304 21 21 19 36 20 275 20
l253 0 26 24 c25 24 26 28 20 100 -4 42 -17 130 -31 196 -13 66 -32 183 -43
261 -10 77 -22 148 -26 157 -15 41 -113 57 -198 33 -43 -13 -83 -15 -177 -12
-66 3 -124 8 -128 10 -9 6 -26 245 -23 331 3 74 -13 153 -36 182 -15 19 -28
21 -142 25 -78 2 -162 -2 -225 -11z m310 -325 c3 -89 8 -278 10 -421 3 -143 7
-276 9 -295 2 -19 7 -70 11 -112 l8 -78 -59 -2 c-152 -5 -201 -4 -238 3 -42 7
-210 -4 -311 -22 -33 -5 -103 -14 -155 -19 -52 -6 -126 -15 -165 -20 -38 -6
-129 -14 -201 -19 -71 -5 -179 -19 -240 -30 -122 -22 -320 -48 -433 -57 -41
-3 -78 -7 -81 -9 -4 -3 -81 -11 -171 -20 -90 -8 -207 -20 -259 -26 -129 -15
-203 -19 -345 -17 -135 2 -177 2 -428 0 -98 -1 -184 1 -190 5 -6 4 -259 13
-562 20 -449 10 -1027 23 -1065 23 -6 0 -6 390 -1 605 3 81 -8 475 -14 511 -8
59 -24 53 275 100 19 3 38 8 43 11 7 4 93 10 277 18 36 1 126 6 200 10 241 14
457 9 640 -14 41 -5 140 -8 220 -5 148 4 236 5 485 6 160 1 242 3 405 12 63 3
216 8 340 11 124 2 248 9 275 15 100 21 219 28 373 23 86 -3 166 -4 177 -4 39
4 253 5 510 3 160 -2 283 2 320 9 33 6 116 14 185 18 l125 6 12 -39 c7 -22 15
-112 18 -200z m534 -338 c5 -13 14 -59 20 -103 15 -113 28 -191 41 -255 7 -30
14 -78 17 -106 5 -58 -5 -68 -58 -57 -25 5 -35 15 -49 49 -34 79 -110 66 -110
-18 0 -36 -2 -39 -22 -32 -13 4 -69 7 -126 7 l-102 0 -9 36 c-11 45 -33 445
-25 465 7 17 36 26 89 26 l39 0 -37 -38 c-36 -36 -36 -39 -29 -88 5 -28 5 -77
2 -110 -7 -60 3 -118 21 -130 17 -10 293 -11 307 -1 16 13 15 55 -3 107 -9 25
-15 77 -15 127 0 82 -1 85 -32 114 l-32 29 52 0 c45 0 54 -3 61 -22z m-146
-133 c5 -17 12 -42 17 -57 5 -16 5 -28 1 -28 -15 0 -73 91 -67 106 9 25 40 12
49 -21z m-5352 -262 c1 -104 1 -192 0 -197 -10 -48 -15 -178 -8 -183 5 -3 4
-10 -2 -16 -16 -16 -303 -10 -313 6 -6 9 -10 9 -15 0 -5 -6 -22 -13 -39 -16
-17 -3 -40 -10 -51 -15 -29 -16 -43 3 -43 60 0 26 -4 69 -10 95 -5 26 -11 82
-13 123 -3 41 -11 121 -18 178 -15 120 -11 129 47 113 55 -15 145 -14 244 5
47 9 99 17 117 18 18 1 35 5 39 9 4 4 20 7 36 7 l28 0 1 -187z"/>
<path d="M10111 3940 c-56 -13 -67 -48 -23 -78 26 -19 42 -21 217 -27 80 -3
85 -4 85 -17 0 -6 -10 -22 -21 -34 -19 -20 -21 -34 -21 -131 1 -59 -2 -150 -6
-202 -6 -83 -9 -95 -27 -99 -11 -2 -81 -5 -155 -6 -135 -2 -135 -2 -149 -28
-14 -24 -14 -28 3 -46 14 -16 36 -22 112 -27 53 -4 111 -3 132 2 21 5 47 7 57
3 11 -4 31 -4 45 1 14 4 99 10 190 13 91 2 177 9 191 15 34 12 44 40 24 60
-13 13 -46 17 -168 19 -84 2 -153 5 -154 6 -2 1 -4 106 -5 233 l-3 230 75 -5
c119 -7 149 -3 191 23 41 26 48 49 26 79 -12 16 -15 16 -52 0 -36 -15 -54 -15
-175 -4 -74 6 -168 16 -208 21 -85 10 -133 10 -181 -1z"/>
<path d="M12098 3883 c-22 -6 -33 -78 -19 -128 15 -56 4 -65 -75 -58 -53 4
-68 2 -84 -12 -25 -22 -25 -37 -2 -57 24 -21 104 -39 140 -32 40 8 45 -9 47
-158 0 -65 3 -119 5 -121 3 -2 19 -9 37 -15 50 -17 57 0 60 151 1 71 5 132 8
136 4 3 29 6 56 7 58 1 102 28 107 66 2 14 -4 31 -14 39 -15 12 -18 11 -31 -7
-13 -20 -17 -21 -74 -9 -34 7 -65 17 -70 22 -5 5 -12 31 -15 58 -7 51 -38 126
-52 124 -4 -1 -15 -3 -24 -6z"/>
<path d="M14122 3809 c-49 -15 -118 -86 -132 -137 -9 -35 -8 -48 5 -74 16 -34
12 -68 -9 -68 -7 0 -19 -11 -26 -25 -17 -32 -5 -46 47 -54 31 -5 43 -14 67
-51 64 -100 148 -124 249 -74 99 48 148 81 187 124 30 33 37 47 29 57 -16 18
-20 17 -70 -17 -24 -16 -51 -30 -60 -30 -8 0 -38 -11 -65 -25 -70 -36 -112
-48 -140 -41 -25 7 -64 59 -64 86 0 8 26 31 57 50 60 37 143 115 174 164 17
28 17 31 2 58 -10 15 -35 35 -57 44 -50 20 -149 27 -194 13z m150 -76 c10 -9
18 -21 18 -28 0 -22 -114 -116 -158 -129 -30 -10 -48 6 -57 50 -11 60 28 101
110 115 63 10 67 10 87 -8z"/>
<path d="M11557 3738 c-83 -41 -106 -86 -71 -136 18 -26 122 -97 156 -107 13
-4 43 -18 67 -32 40 -23 42 -26 27 -41 -25 -25 -147 -29 -197 -7 -21 10 -39
23 -39 28 0 6 -11 0 -25 -13 -14 -13 -25 -27 -25 -31 0 -12 83 -55 130 -67 71
-18 104 -20 156 -11 72 13 98 26 118 60 18 30 17 31 -8 70 -19 29 -45 48 -99
74 -169 81 -205 113 -158 142 27 17 141 34 159 24 21 -12 52 -2 52 18 0 9 -7
26 -15 39 -14 19 -24 21 -94 20 -65 -1 -89 -7 -134 -30z"/>
<path d="M13675 3731 c-75 -24 -155 -116 -191 -219 l-19 -52 24 -45 c19 -37
35 -50 95 -79 63 -31 78 -34 130 -30 64 5 100 25 141 78 28 36 25 66 -6 66
-10 0 -23 -8 -28 -19 -13 -24 -112 -44 -162 -32 -50 11 -89 40 -89 64 0 11 8
45 17 74 25 78 73 119 150 128 32 3 64 8 71 10 15 5 16 37 0 53 -13 13 -98 15
-133 3z"/>
<path d="M11040 3721 c-45 -11 -79 -42 -105 -96 -14 -30 -34 -56 -45 -60 -21
-7 -27 -34 -11 -50 5 -6 10 -53 12 -105 2 -119 5 -129 37 -141 34 -13 38 -4
47 100 16 197 49 283 103 273 32 -6 112 -58 112 -73 0 -6 14 -30 30 -53 23
-31 33 -59 38 -105 6 -53 11 -65 34 -79 37 -22 58 -3 58 52 0 62 -15 105 -65
180 -52 79 -81 108 -147 142 -49 25 -56 26 -98 15z"/>
<path d="M12662 3678 c-89 -45 -202 -139 -228 -191 -22 -42 -3 -74 61 -103 83
-39 205 -27 260 26 l33 32 15 -29 c27 -51 67 -83 104 -83 48 0 51 22 7 67 -32
33 -40 52 -65 153 -30 119 -52 163 -85 168 -10 1 -57 -17 -102 -40z m77 -85
c-1 -59 -22 -106 -59 -131 -43 -29 -72 -36 -115 -28 -28 6 -35 12 -35 30 0 23
6 30 95 102 45 37 87 62 108 63 4 1 7 -16 6 -36z"/>
<path d="M13086 3689 c-25 -21 -41 -29 -55 -24 -30 9 -57 -36 -43 -73 5 -15
15 -45 20 -67 27 -100 33 -112 58 -124 40 -18 51 -1 51 77 0 96 10 131 38 138
31 8 77 -18 114 -64 37 -47 51 -82 51 -128 0 -28 5 -36 27 -45 40 -15 56 -8
65 29 19 70 -47 190 -137 251 -106 71 -137 76 -189 30z"/>
<path d="M9674 3419 c-4 -8 -25 -9 -58 -5 -40 4 -60 1 -93 -15 -32 -15 -55
-20 -86 -16 -23 3 -53 7 -66 9 -20 3 -26 -4 -39 -41 -12 -35 -12 -51 -3 -83 9
-30 9 -46 0 -73 -15 -41 0 -84 31 -92 24 -6 24 -7 4 -66 -14 -43 -15 -50 -1
-71 23 -35 65 -39 94 -10 30 30 29 55 -2 92 -14 17 -25 33 -25 36 0 13 62 5
111 -14 29 -10 71 -22 94 -25 38 -6 43 -4 60 22 17 24 20 51 22 185 3 147 2
158 -16 168 -14 7 -22 7 -27 -1z m-29 -99 c9 -15 12 -181 3 -186 -5 -3 -16 -3
-24 0 -12 5 -12 9 -2 25 10 17 6 26 -35 70 -54 58 -59 78 -19 87 15 3 32 7 37
9 19 7 34 5 40 -5z m-162 -93 c-3 -5 -16 4 -29 19 -33 41 -30 53 6 19 16 -15
27 -32 23 -38z"/>
<path d="M19710 4185 c-21 -22 -21 -25 -6 -77 13 -45 66 -301 66 -319 0 -3
-27 -5 -59 -5 -46 1 -66 -4 -88 -20 -28 -21 -32 -27 -73 -117 l-22 -48 23 -33
c26 -38 90 -81 136 -91 36 -7 144 11 185 31 48 25 45 84 -5 84 -19 0 -19 1 -4
18 14 15 15 25 7 53 -16 51 -60 272 -75 374 -26 165 -43 195 -85 150z m60
-505 c11 -11 20 -24 20 -30 0 -5 14 -25 31 -45 27 -30 29 -36 14 -41 -25 -10
-151 3 -182 18 -64 30 -22 118 57 118 27 0 47 -7 60 -20z"/>
<path d="M21486 4191 c-15 -16 -15 -29 -6 -112 6 -52 13 -121 16 -154 3 -33 8
-66 10 -74 3 -8 -5 -25 -18 -38 -22 -23 -22 -24 -3 -56 13 -21 21 -59 25 -112
l5 -80 40 -19 c87 -41 199 -25 229 33 37 71 27 159 -23 208 -16 15 -60 41 -99
57 -39 15 -75 33 -80 40 -5 6 -12 49 -16 96 -14 208 -35 261 -80 211z m194
-456 c34 -17 50 -43 50 -78 0 -35 -60 -63 -109 -51 l-36 9 -3 68 -3 67 36 0
c20 0 49 -7 65 -15z"/>
<path d="M20655 4127 c-4 -10 -5 -43 -1 -75 4 -31 9 -81 12 -109 7 -56 8 -55
-49 -67 -15 -4 -37 -16 -49 -28 l-21 -21 23 -19 c13 -11 37 -22 52 -25 40 -8
48 -29 48 -126 0 -77 2 -85 25 -107 21 -19 29 -22 43 -14 14 10 17 29 17 124
l0 112 30 24 c17 13 40 24 53 24 21 0 26 9 22 40 -2 22 -30 40 -60 40 -30 0
-50 17 -50 42 0 40 -36 141 -62 171 -23 28 -27 30 -33 14z"/>
<path d="M17475 4115 c-90 -20 -127 -38 -196 -100 -58 -51 -77 -81 -95 -147
-41 -153 9 -405 96 -488 50 -46 96 -80 109 -80 7 0 34 -11 62 -26 28 -14 58
-24 67 -23 9 1 43 -6 75 -15 119 -36 260 -4 342 77 9 9 21 20 28 24 7 5 23 20
36 35 34 38 47 168 26 250 -8 33 -15 70 -15 82 0 75 -57 216 -115 283 -35 42
-117 103 -136 103 -5 0 -21 8 -35 17 -33 21 -166 26 -249 8z m290 -132 c76
-39 134 -164 159 -338 24 -172 2 -221 -127 -285 -82 -41 -147 -51 -199 -31
-13 5 -54 15 -93 21 -38 7 -72 16 -75 19 -3 4 -23 21 -46 38 -50 39 -67 74
-93 188 -41 177 -23 261 70 331 95 71 142 84 274 80 68 -2 100 -7 130 -23z"/>
<path d="M17680 3913 c-34 -16 -81 -28 -125 -32 -65 -6 -71 -8 -84 -36 -9 -16
-18 -61 -23 -100 -9 -88 7 -159 41 -186 24 -19 24 -20 8 -55 -22 -46 -21 -56
7 -83 21 -20 35 -23 96 -22 79 1 123 17 162 59 54 57 35 172 -33 207 -26 14
-47 16 -111 10 l-78 -6 0 44 c0 54 10 63 75 70 28 2 80 19 118 36 56 26 67 35
67 55 0 22 -41 67 -59 65 -3 0 -31 -12 -61 -26z m20 -374 c0 -26 -116 -41
-150 -19 -12 7 -12 12 4 29 13 15 33 21 75 23 57 3 71 -4 71 -33z"/>
<path d="M22343 4108 c-1 -13 6 -51 14 -85 21 -82 16 -93 -46 -93 -63 0 -99
-26 -82 -57 12 -23 45 -38 74 -34 10 1 30 -5 44 -14 25 -17 26 -18 19 -107 -7
-95 0 -118 34 -118 21 0 40 46 40 99 0 20 3 59 6 87 6 50 8 52 55 72 34 14 49
26 49 39 0 28 -20 43 -56 43 -39 0 -40 2 -64 87 -11 36 -27 74 -36 84 -24 26
-49 24 -51 -3z"/>
<path d="M22646 4048 c-16 -22 -15 -24 5 -40 24 -20 64 -24 75 -7 8 14 -27 63
-49 67 -8 2 -22 -7 -31 -20z"/>
<path d="M16210 4048 c-70 -17 -116 -32 -150 -49 -19 -10 -47 -21 -62 -24 -27
-5 -95 -58 -170 -132 -43 -42 -78 -133 -78 -203 0 -57 35 -185 60 -221 11 -15
20 -31 20 -37 0 -10 67 -72 124 -113 20 -15 57 -32 83 -38 27 -7 93 -34 148
-59 113 -53 171 -59 259 -29 106 38 239 134 276 200 51 89 24 395 -47 536 -25
49 -105 131 -128 131 -5 0 -23 7 -40 16 -17 9 -66 17 -115 20 -47 3 -98 6
-115 8 -16 2 -46 -1 -65 -6z m291 -136 c45 -18 88 -62 99 -100 35 -131 48
-223 45 -307 l-3 -90 -54 -50 c-30 -28 -90 -68 -133 -90 -70 -34 -88 -39 -153
-39 -71 -1 -75 0 -101 30 -31 37 -61 54 -94 54 -43 0 -153 57 -179 92 -31 44
-67 133 -74 183 -9 64 26 145 88 200 27 25 55 45 60 45 14 0 78 30 108 51 14
9 41 22 60 27 45 12 297 8 331 -6z"/>
<path d="M16100 3820 c-41 -58 6 -98 118 -99 35 0 67 -3 73 -6 18 -12 40 -66
34 -85 -6 -18 -8 -19 -35 -5 -43 22 -77 18 -125 -15 -51 -35 -85 -89 -85 -134
0 -31 4 -35 48 -51 79 -30 212 -25 212 8 0 6 17 -5 38 -25 46 -44 87 -56 113
-32 29 26 24 42 -31 100 -48 51 -51 56 -43 91 19 88 -4 169 -64 226 -33 30
-120 57 -188 57 -37 0 -47 -4 -65 -30z"/>
<path d="M21232 4037 c-20 -21 -22 -66 -3 -68 3 0 16 -2 28 -5 28 -5 48 27 34
54 -20 38 -36 43 -59 19z"/>
<path d="M20015 3980 c-18 -20 -18 -21 1 -39 10 -11 34 -22 52 -26 27 -6 32
-4 32 13 0 23 -36 72 -54 72 -7 0 -21 -9 -31 -20z"/>
<path d="M23294 3960 c-12 -4 -30 -20 -41 -33 -13 -16 -32 -27 -53 -29 -45 -4
-52 -33 -28 -118 10 -36 18 -74 18 -86 0 -35 22 -56 53 -49 26 7 27 9 27 76 0
70 15 125 41 145 57 46 101 1 109 -111 5 -65 7 -71 33 -83 81 -39 88 101 11
217 -45 69 -109 96 -170 71z"/>
<path d="M21028 3929 c-24 -9 -88 -94 -88 -118 0 -4 -9 -16 -20 -26 -26 -24
-25 -42 7 -137 30 -90 62 -124 89 -96 13 13 14 25 5 74 -24 132 16 233 92 234
41 0 34 31 -13 58 -21 12 -40 22 -42 21 -2 0 -15 -5 -30 -10z"/>
<path d="M22928 3908 c-48 -13 -88 -59 -88 -102 0 -17 -7 -41 -15 -53 -27 -39
-10 -72 52 -100 56 -26 112 -27 173 -2 39 15 82 84 88 138 4 41 1 50 -25 78
-28 30 -87 54 -128 52 -11 -1 -37 -6 -57 -11z m84 -69 c38 -10 57 -41 45 -73
-5 -11 -87 -56 -103 -56 -7 0 -34 60 -34 76 0 17 37 64 49 64 3 0 23 -5 43
-11z"/>
<path d="M20334 3875 c-87 -43 -105 -69 -81 -119 10 -21 40 -51 76 -75 66 -45
73 -52 63 -67 -8 -12 -106 -44 -133 -44 -27 0 -32 -16 -14 -50 14 -27 20 -30
64 -30 33 0 66 9 108 30 73 36 85 49 86 92 2 31 -4 37 -83 90 -47 31 -86 64
-88 72 -3 16 45 46 75 46 10 0 32 11 48 24 25 21 28 28 19 43 -18 29 -63 25
-140 -12z"/>
<path d="M21911 3849 c-17 -28 -20 -48 -18 -130 2 -93 3 -99 31 -128 17 -17
40 -31 53 -31 31 0 99 63 115 106 16 46 37 41 68 -18 27 -49 67 -98 82 -98 15
0 9 38 -21 127 -35 108 -60 160 -79 168 -22 8 -48 -21 -62 -71 -7 -25 -30 -63
-51 -87 -38 -41 -39 -42 -55 -22 -12 16 -15 40 -12 115 3 83 1 95 -14 98 -11
2 -25 -9 -37 -29z"/>
<path d="M22693 3858 c-6 -7 -13 -68 -15 -136 -5 -113 -4 -124 14 -133 25 -13
35 -5 48 39 29 106 -7 281 -47 230z"/>
<path d="M20030 3795 c-8 -10 -10 -29 -6 -58 4 -23 8 -84 10 -136 2 -85 5 -96
26 -113 13 -10 28 -17 34 -15 20 7 27 90 15 182 -17 137 -43 183 -79 140z"/>
<path d="M21237 3790 c-16 -16 -17 -26 -8 -91 10 -71 29 -111 64 -133 29 -18
35 9 21 96 -21 129 -41 163 -77 128z"/>
<path d="M6699 3673 c-8 -9 -45 -31 -84 -50 -38 -18 -97 -49 -130 -67 -239
-134 -342 -161 -673 -173 l-152 -5 -7 -26 c-5 -20 0 -31 22 -49 27 -24 31 -24
159 -19 72 2 147 7 166 9 213 28 262 38 330 65 127 51 264 119 284 141 10 11
34 23 52 27 18 3 54 19 79 35 l45 29 -31 50 c-34 55 -40 58 -60 33z"/>
<path d="M23635 3620 c-4 -6 -11 -24 -15 -41 -8 -26 -5 -34 16 -54 49 -46 81
-39 91 18 8 49 -17 87 -57 87 -16 0 -32 -5 -35 -10z"/>
<path d="M6900 3155 c-25 -14 -49 -25 -55 -25 -5 0 -23 -11 -39 -25 -16 -13
-36 -27 -46 -30 -20 -6 -128 -175 -184 -287 -37 -74 -38 -80 -34 -165 3 -76 8
-97 37 -153 18 -36 37 -76 42 -90 44 -138 112 -263 149 -275 11 -4 31 -17 43
-30 30 -32 178 -51 270 -34 131 23 175 40 227 88 56 51 140 190 140 232 0 14
11 86 25 159 29 155 32 275 8 346 -35 107 -157 257 -239 295 -25 11 -69 16
-166 17 -124 1 -136 -1 -178 -23z m189 -94 c17 -11 -7 -25 -61 -35 -49 -9
-152 -102 -169 -153 -15 -47 -6 -118 20 -154 33 -44 27 -91 -24 -194 -25 -51
-45 -104 -45 -123 0 -38 15 -72 33 -72 7 0 29 -13 49 -29 30 -22 46 -27 83
-25 82 5 173 76 201 156 16 46 6 146 -17 186 -10 18 -19 38 -19 45 0 6 21 29
46 52 47 40 47 41 52 116 5 92 -9 141 -49 170 -33 23 -38 39 -11 38 37 -1 146
-94 182 -155 35 -59 35 -60 34 -174 -1 -65 -9 -152 -19 -200 -9 -47 -21 -104
-26 -127 -10 -49 -31 -94 -53 -112 -8 -7 -63 -32 -122 -56 -79 -33 -112 -41
-125 -34 -10 5 -45 9 -78 9 -99 0 -135 27 -239 180 -14 20 -17 51 -16 205 0
163 3 189 27 275 25 87 31 98 74 137 27 23 73 51 103 62 58 20 145 27 169 12z
m57 -154 c45 -54 18 -131 -61 -169 -38 -18 -47 -20 -73 -9 -17 7 -42 30 -57
51 -25 36 -25 40 -12 71 17 40 73 95 102 101 32 7 73 -12 101 -45z m-65 -343
c19 -20 24 -35 23 -73 -2 -53 -24 -105 -49 -115 -9 -3 -35 -6 -58 -6 -91 0
-108 20 -84 100 11 37 24 52 68 82 30 20 59 37 65 37 6 1 21 -11 35 -25z"/>
<path d="M8372 3104 c-13 -23 -4 -53 28 -90 36 -42 92 -160 88 -187 -2 -18
-23 -29 -128 -65 -69 -24 -154 -50 -190 -58 -36 -7 -87 -23 -113 -34 -58 -25
-82 -29 -262 -38 -77 -4 -146 -11 -152 -15 -15 -9 -17 -55 -4 -76 10 -15 39
-22 111 -24 115 -3 226 18 375 69 23 8 47 14 55 14 8 0 37 9 65 19 69 27 198
66 208 63 4 -1 21 5 38 13 43 23 65 11 85 -43 9 -26 26 -66 36 -90 16 -33 19
-55 14 -95 -5 -48 -4 -53 20 -71 25 -18 26 -18 50 5 13 12 24 27 24 32 0 5 16
28 35 51 19 24 35 45 35 48 0 3 29 52 63 110 57 93 100 155 168 240 44 54 47
64 27 91 -15 20 -112 47 -167 47 -21 0 -62 8 -92 19 -103 36 -114 39 -179 57
-36 9 -102 19 -147 21 -69 4 -83 2 -91 -13z"/>
<path d="M5757 2645 c-53 -38 23 -81 203 -114 145 -27 181 -32 260 -35 47 -2
109 -7 137 -11 48 -7 56 -5 88 20 43 32 43 58 2 89 -26 19 -40 21 -140 18 -62
-1 -134 2 -162 8 -157 33 -359 46 -388 25z"/>
<path d="M10547 1993 c-1 -1 -43 -4 -92 -7 -50 -3 -115 -8 -145 -11 -30 -3
-80 -7 -110 -10 -30 -3 -116 -10 -190 -16 -74 -6 -141 -14 -150 -19 -8 -4 -39
-11 -68 -15 -40 -5 -57 -13 -69 -31 -16 -25 -15 -42 8 -124 21 -79 14 -641 -9
-677 -15 -24 -308 -33 -476 -14 -95 11 -101 10 -121 -9 -20 -19 -22 -29 -19
-131 2 -88 7 -118 23 -150 15 -27 21 -58 21 -100 0 -34 7 -73 15 -89 11 -21
15 -53 13 -109 -4 -111 6 -121 121 -121 47 1 104 4 126 8 22 4 85 5 140 2 80
-5 111 -3 155 11 96 30 323 38 660 24 216 -9 308 -10 515 -6 153 4 507 -4 705
-16 168 -9 435 -5 523 8 40 6 95 13 122 15 28 3 86 11 130 19 44 8 112 17 150
21 39 4 77 11 87 15 9 5 94 12 190 15 95 3 181 10 191 16 10 5 25 7 33 4 8 -3
47 -1 87 5 40 6 160 13 267 14 107 1 263 6 345 10 83 4 200 6 262 5 71 -1 142
4 195 15 65 13 116 15 238 10 355 -14 491 -11 550 9 46 16 87 19 248 20 211 2
212 2 211 61 0 17 -4 50 -10 75 -18 81 -30 192 -39 365 -18 344 -17 340 -125
330 -117 -11 -359 -14 -381 -5 -20 8 -22 18 -28 157 -3 81 -6 170 -5 196 0 81
-19 151 -50 181 l-27 26 -245 -1 c-134 -1 -323 -1 -419 0 -96 0 -220 -2 -275
-5 -133 -9 -576 -8 -695 1 -98 7 -314 13 -575 16 -82 1 -214 -3 -292 -9 -98
-9 -163 -9 -215 -2 -40 5 -98 9 -128 8 -30 -1 -105 0 -166 1 -65 2 -120 -1
-131 -8 -14 -7 -31 -7 -58 0 -21 6 -52 8 -69 5 -17 -3 -123 -1 -236 5 -173 8
-708 18 -713 12z m623 -118 c15 -9 358 -21 440 -14 19 1 184 0 365 -4 182 -3
359 -2 395 3 94 12 177 13 435 6 294 -8 401 -13 499 -25 44 -5 84 -8 90 -6 43
14 1212 24 1278 11 21 -4 42 -15 47 -24 11 -23 22 -208 20 -367 -4 -332 2
-686 12 -734 16 -72 14 -73 -200 -69 -198 3 -533 -6 -901 -23 -124 -6 -270 -9
-325 -5 -64 3 -143 0 -220 -9 -66 -8 -210 -22 -320 -30 -190 -14 -272 -23
-410 -44 -33 -5 -103 -14 -155 -21 -52 -6 -126 -16 -165 -21 -189 -28 -201
-29 -251 -19 -28 6 -55 10 -60 9 -5 -2 -70 1 -144 5 -74 5 -371 10 -660 12
-1262 9 -1139 6 -1147 29 -9 30 -5 290 6 370 36 251 38 286 35 555 -2 151 -5
293 -6 314 -3 36 -1 40 27 47 55 14 119 20 240 25 66 2 131 9 145 14 14 6 52
10 85 9 33 -1 116 3 185 8 134 10 643 9 660 -2z m4100 -616 c6 -22 13 -118 14
-212 2 -119 8 -190 20 -232 9 -32 16 -72 16 -87 0 -25 -3 -28 -35 -28 -34 0
-35 1 -35 42 0 32 -7 49 -27 71 -18 19 -24 31 -16 34 23 8 63 45 63 57 0 8 -9
33 -20 58 -14 32 -20 72 -23 150 -4 137 -16 158 -87 158 -73 0 -61 17 18 25
37 4 72 8 77 9 17 5 24 -4 35 -45z m-362 15 c10 -3 10 -9 -1 -31 -12 -24 -15
-189 -7 -383 0 -3 14 -11 31 -17 27 -10 37 -9 72 9 32 16 52 19 91 14 64 -7
79 -21 47 -45 -25 -19 -25 -39 -5 -110 4 -14 3 -22 -2 -19 -5 4 -54 -1 -108
-9 -115 -17 -143 -12 -157 24 -5 15 -12 124 -14 242 -3 119 -8 244 -11 279
l-6 63 29 -6 c15 -4 34 -8 41 -11z m226 -120 c3 -8 3 -28 -1 -45 l-6 -30 -18
28 c-26 38 -25 73 0 66 11 -3 22 -11 25 -19z m-5877 -175 c48 -23 49 -26 27
-57 -13 -19 -14 -31 -4 -76 6 -29 10 -98 8 -152 -2 -108 4 -139 31 -153 28
-15 59 -2 82 35 22 36 23 36 124 39 72 1 102 16 120 58 11 26 10 40 -4 91 -13
48 -14 76 -7 129 8 66 9 68 35 65 l26 -3 -3 -136 c-2 -75 1 -152 6 -171 5 -20
7 -65 5 -101 l-6 -66 -106 1 c-58 1 -156 -2 -217 -6 l-111 -9 -12 84 c-7 46
-19 116 -28 154 -17 80 -30 295 -18 295 5 0 28 -9 52 -21z m301 -149 c0 -28
-4 -52 -8 -55 -11 -7 -59 66 -53 81 4 12 22 20 49 23 7 1 12 -18 12 -49z
m-158 -110 c0 -6 -8 -10 -17 -8 -12 2 -19 14 -21 38 l-4 35 21 -27 c12 -14 21
-31 21 -38z"/>
<path d="M11877 1572 c-28 -16 -29 -19 -23 -72 4 -30 10 -83 13 -117 l6 -61
-68 -1 c-72 0 -105 -17 -105 -53 0 -26 62 -51 126 -50 l51 0 6 -67 c3 -38 2
-86 -3 -107 -18 -74 -12 -128 14 -153 29 -27 64 -21 70 12 17 91 26 163 26
215 0 74 11 84 115 102 77 14 123 43 104 67 -8 9 -36 13 -89 13 -114 0 -135 6
-148 44 -7 18 -12 43 -12 57 0 42 -29 163 -42 176 -10 9 -19 9 -41 -5z"/>
<path d="M10040 1522 c-34 -16 -60 -38 -60 -53 0 -32 45 -43 194 -43 80 -1
147 -3 150 -6 8 -8 7 -83 -3 -215 -5 -66 -10 -127 -10 -136 -1 -17 -60 -39
-107 -39 -57 0 -144 -32 -164 -60 -17 -24 -18 -29 -4 -48 19 -28 67 -29 125
-2 58 26 133 26 166 0 38 -29 69 -26 81 9 10 29 25 34 137 45 53 5 93 25 101
48 8 26 -1 33 -39 34 -18 0 -69 1 -115 2 l-83 2 3 170 c2 114 7 173 15 181 7
7 41 12 83 12 39 0 73 4 76 9 3 5 17 13 30 18 29 11 41 37 28 58 -9 13 -53 16
-300 18 -159 1 -296 -1 -304 -4z"/>
<path d="M13455 1357 c-96 -30 -129 -52 -159 -107 -50 -91 -58 -178 -27 -262
17 -44 34 -66 72 -97 99 -78 200 -59 285 55 24 32 44 64 44 71 0 23 15 14 34
-22 26 -48 68 -77 159 -109 94 -33 190 -33 279 -1 69 25 202 141 196 172 -5
28 -52 29 -74 1 -25 -30 -101 -67 -176 -84 -112 -26 -278 6 -278 54 0 13 23
24 98 46 114 35 136 47 151 84 25 65 24 97 -4 131 -68 80 -187 81 -268 4 -44
-43 -72 -93 -94 -167 -8 -28 -20 -54 -27 -58 -12 -7 -37 -28 -102 -83 -47 -40
-108 -54 -153 -35 -57 23 -89 191 -48 253 20 31 69 65 107 73 38 8 99 36 111
50 14 18 -10 54 -36 53 -11 0 -52 -10 -90 -22z m514 -111 c32 -34 24 -57 -27
-71 -23 -7 -48 -18 -56 -24 -23 -19 -85 -24 -92 -8 -12 34 50 111 96 120 49 9
57 7 79 -17z"/>
<path d="M11375 1339 c-77 -33 -85 -41 -85 -82 0 -22 14 -42 56 -83 31 -30 62
-54 69 -54 19 0 95 -73 95 -91 0 -18 -71 -49 -112 -49 -38 0 -75 19 -81 41 -7
25 -45 24 -74 0 -31 -26 -29 -34 16 -70 79 -63 236 -65 325 -5 35 24 38 29 33
61 -6 32 -60 103 -80 103 -18 0 -147 126 -147 143 0 25 40 37 130 37 70 0 81
2 90 21 35 65 -109 82 -235 28z"/>
<path d="M10894 1341 c-18 -11 -35 -24 -39 -31 -4 -7 -22 -9 -50 -4 -60 9 -69
-11 -44 -91 15 -47 17 -77 13 -135 l-6 -75 32 -14 c46 -19 57 -3 65 94 8 108
13 126 36 155 16 19 29 24 59 23 73 -3 102 -36 115 -128 8 -55 28 -85 56 -85
29 0 41 35 34 93 -13 93 -61 161 -140 198 -51 24 -92 24 -131 0z"/>
<path d="M12845 1284 c-28 -29 -38 -34 -50 -24 -19 16 -55 -4 -55 -32 0 -12
10 -32 21 -45 17 -17 23 -38 26 -95 5 -76 23 -108 62 -108 34 0 40 20 34 109
-4 69 -2 90 11 106 16 20 16 20 36 -5 25 -32 54 -109 71 -185 16 -79 23 -90
58 -105 36 -15 61 -8 61 17 0 36 -79 261 -109 309 -33 55 -80 94 -111 94 -11
0 -36 -16 -55 -36z"/>
<path d="M12420 1246 c-36 -24 -85 -67 -108 -95 -24 -28 -50 -51 -57 -51 -20
0 -44 -80 -32 -107 14 -32 99 -84 144 -89 67 -8 165 56 197 129 3 8 12 3 23
-13 44 -61 68 -79 108 -82 54 -4 57 19 11 76 -20 24 -54 88 -76 141 -22 54
-48 107 -57 117 -29 32 -80 23 -153 -26z m62 -127 c-4 -71 -28 -111 -77 -127
-82 -27 -134 17 -79 67 100 91 138 121 148 118 7 -3 10 -25 8 -58z"/>
<path d="M5622 1703 c-25 -10 -32 -40 -18 -75 16 -36 46 -52 196 -99 41 -13
86 -31 100 -39 14 -9 36 -21 50 -28 14 -6 32 -16 40 -22 8 -5 47 -21 85 -35
39 -14 86 -33 105 -42 54 -26 213 -115 232 -131 14 -12 22 -10 57 12 23 15 41
29 41 32 0 26 -49 76 -100 103 -32 17 -62 36 -64 40 -3 5 -32 19 -63 31 -32
12 -81 33 -109 46 -28 13 -56 24 -62 24 -12 0 -97 37 -162 70 -19 10 -51 22
-70 28 -63 19 -139 50 -173 71 -33 20 -59 25 -85 14z"/>
<path d="M6965 1634 c-26 -9 -74 -46 -131 -102 -104 -101 -142 -147 -150 -182
-3 -14 -10 -35 -15 -48 -5 -13 -14 -67 -20 -120 -10 -83 -9 -107 5 -161 9 -34
16 -75 16 -89 0 -15 15 -69 34 -121 43 -122 104 -199 191 -240 69 -33 124 -40
176 -22 31 10 43 9 78 -5 53 -21 102 -15 201 26 110 45 182 126 209 235 5 22
17 67 25 100 19 76 20 282 2 387 -21 113 -59 190 -122 244 -29 25 -70 50 -91
56 -21 5 -56 18 -78 28 -56 26 -273 35 -330 14z m226 -115 c11 -6 39 -10 62
-9 23 1 45 1 50 0 4 -2 10 -3 15 -4 4 -1 35 -21 69 -45 49 -35 67 -55 84 -95
24 -56 39 -193 38 -350 -1 -81 -5 -98 -40 -180 -56 -128 -73 -144 -189 -166
-59 -11 -72 -10 -145 10 -118 33 -124 33 -140 20 -8 -7 -15 -23 -15 -36 0 -32
-14 -30 -60 6 -21 16 -42 30 -48 30 -20 0 -81 92 -87 133 -4 23 -16 78 -27
121 -28 110 -22 274 13 359 29 69 118 161 194 200 43 22 60 24 128 21 43 -2
87 -9 98 -15z"/>
<path d="M7275 1423 c-22 -8 -71 -25 -109 -37 -38 -13 -73 -31 -78 -40 -5 -9
-17 -16 -26 -16 -9 0 -30 -9 -47 -20 -16 -12 -45 -28 -62 -36 -18 -9 -33 -22
-33 -30 0 -7 -11 -21 -25 -30 -14 -9 -30 -34 -37 -56 -11 -36 -9 -45 12 -85
13 -24 35 -53 48 -64 32 -25 97 -25 164 1 29 11 54 20 56 20 5 0 -8 -91 -18
-125 -5 -16 -12 -57 -15 -91 -6 -58 -5 -62 19 -78 20 -12 31 -14 45 -6 24 13
35 46 60 192 12 64 32 152 44 195 89 295 89 339 2 306z m-75 -171 c0 -10 -12
-29 -26 -43 -14 -13 -34 -38 -45 -56 -22 -36 -111 -76 -148 -66 -24 6 -29 48
-8 73 21 26 116 90 135 90 9 0 24 5 32 10 26 17 60 12 60 -8z"/>
<path d="M17520 1544 c-94 -34 -134 -56 -190 -103 -84 -72 -86 -75 -121 -148
-42 -89 -41 -201 1 -335 60 -189 166 -288 307 -288 23 0 44 4 47 9 6 9 55 -6
136 -42 32 -14 40 -14 87 3 69 24 125 65 203 146 81 85 97 109 111 171 24 107
11 195 -46 318 -54 118 -176 210 -335 253 -58 16 -175 25 -200 16z m235 -131
c77 -24 106 -42 153 -92 55 -58 91 -134 103 -214 15 -108 -6 -161 -98 -247
-84 -80 -112 -98 -167 -114 -61 -18 -72 -16 -138 28 -63 41 -62 56 5 56 94 1
177 84 177 178 0 48 -27 80 -99 116 -28 15 -51 32 -51 39 0 7 18 34 40 61 22
26 40 59 40 72 0 32 -33 64 -59 57 -36 -9 -114 -106 -161 -199 -42 -83 -45
-95 -45 -167 0 -85 -5 -76 74 -139 l25 -19 -29 -24 c-44 -38 -78 -33 -131 21
-55 55 -92 131 -106 221 -16 103 -6 161 38 227 20 31 40 56 44 56 4 0 30 15
56 33 91 61 138 76 219 70 33 -2 83 -11 110 -20z m-105 -408 c15 -18 15 -17
-28 -39 -36 -19 -52 -14 -52 15 0 32 59 50 80 24z"/>
<path d="M16244 1498 c-30 -16 -71 -40 -91 -53 -20 -14 -42 -25 -48 -25 -29 0
-111 -78 -137 -131 -48 -97 -59 -175 -37 -269 21 -93 98 -206 174 -255 31 -20
154 -75 167 -75 5 0 47 -19 94 -42 47 -23 99 -41 114 -41 16 0 55 15 87 35 32
19 74 41 93 48 37 14 93 54 149 104 45 41 97 152 106 224 26 223 -178 488
-384 499 -227 11 -229 11 -287 -19z m358 -99 c40 -11 109 -77 154 -148 54 -83
70 -215 33 -282 -47 -86 -69 -109 -151 -150 -46 -22 -103 -54 -128 -69 -25
-16 -57 -29 -71 -29 -29 -1 -74 29 -113 77 -32 37 -52 41 -61 12 -6 -19 -8
-19 -63 6 -103 46 -155 112 -172 220 -10 64 -9 76 10 127 29 77 57 107 147
162 120 73 152 83 276 83 59 0 122 -4 139 -9z"/>
<path d="M16295 1332 c-25 -6 -44 -31 -45 -59 0 -32 40 -54 110 -60 72 -7 96
-31 58 -57 -12 -9 -30 -16 -40 -16 -10 0 -25 -11 -33 -24 -14 -22 -15 -28 -1
-60 17 -41 26 -46 87 -51 24 -2 47 -4 51 -4 4 -1 14 -14 22 -30 12 -22 13 -32
3 -44 -11 -14 -18 -14 -62 -2 -27 8 -71 22 -96 31 -45 17 -45 17 -77 -6 -18
-13 -32 -29 -32 -35 0 -18 56 -66 81 -70 13 -2 44 -9 69 -14 25 -6 72 -10 106
-11 53 0 63 3 86 28 57 61 48 164 -20 226 -19 16 -20 26 -15 101 6 80 5 84
-20 109 -14 14 -37 26 -50 26 -13 0 -37 4 -53 9 -37 12 -103 19 -129 13z"/>
<path d="M8586 1348 c-7 -13 -19 -54 -26 -93 -21 -124 -40 -199 -53 -207 -14
-9 -135 -1 -191 14 -21 5 -107 10 -190 10 -93 1 -167 6 -194 15 -24 7 -80 16
-123 19 -77 7 -78 6 -90 -18 -9 -20 -8 -31 4 -53 13 -25 20 -28 69 -30 31 -2
71 -8 89 -13 80 -25 163 -36 294 -37 77 -1 167 -7 200 -13 33 -7 74 -13 90
-14 29 -3 30 -4 30 -55 -1 -36 -6 -58 -19 -72 -14 -15 -17 -29 -12 -53 3 -18
9 -52 12 -75 4 -26 16 -53 32 -68 l25 -25 22 20 c12 11 27 20 35 20 18 0 215
97 267 132 23 15 46 28 51 28 13 0 82 77 82 92 0 6 -19 36 -42 67 -24 30 -52
70 -63 87 -70 110 -115 172 -129 177 -9 4 -16 11 -16 17 0 6 -20 40 -45 75
-58 81 -83 93 -109 53z"/>
</g>
</svg>
