<?xml version="1.0" standalone="no"?>
<!DOCTYPE svg PUBLIC "-//W3C//DTD SVG 20010904//EN"
 "http://www.w3.org/TR/2001/REC-SVG-20010904/DTD/svg10.dtd">
<svg version="1.0" xmlns="http://www.w3.org/2000/svg"
 width="421.077539pt" height="400.000000pt" viewBox="0 0 421.077539 400.000000"
 preserveAspectRatio="xMidYMid meet">
<metadata>
Created by potrace 1.15, written by Peter Selinger 2001-2017
</metadata>
<g transform="translate(-47.604290,418.099446) scale(0.035590,-0.035590)"
fill="#444444" stroke="none">
<path d="M7526 11740 c-22 -4 -45 -16 -53 -26 -16 -22 -16 -24 0 -46 11 -14
21 -15 67 -6 55 10 91 8 185 -12 28 -6 57 -12 65 -14 8 -1 32 -10 54 -19 21
-10 43 -17 49 -17 6 0 18 -6 26 -13 9 -7 34 -19 55 -26 22 -8 78 -36 124 -62
47 -27 89 -49 94 -49 6 0 22 -8 36 -17 44 -29 65 -42 115 -71 55 -30 151 -91
214 -134 23 -15 45 -28 50 -28 5 0 16 -9 26 -20 9 -11 23 -20 30 -20 7 0 37
-17 65 -37 28 -21 70 -49 92 -63 22 -13 40 -29 40 -35 0 -6 20 -25 44 -42 36
-26 43 -28 39 -12 -3 11 -14 19 -25 19 -14 0 -18 5 -14 15 7 19 -61 91 -116
124 -21 13 -38 26 -38 31 0 4 -13 13 -29 20 -16 6 -40 23 -53 37 -12 14 -36
32 -53 40 -16 9 -46 29 -65 44 -41 32 -298 189 -310 189 -5 0 -10 4 -12 8 -1
4 -67 40 -146 80 -168 85 -265 122 -417 157 -66 16 -82 16 -139 5z"/>
<path d="M9775 10920 c-3 -5 -12 -7 -20 -4 -18 7 -164 -104 -190 -146 -11 -17
-40 -44 -65 -59 -25 -16 -56 -39 -70 -52 -25 -24 -87 -69 -95 -69 -6 0 -28
-19 -89 -75 -26 -25 -55 -45 -62 -45 -8 0 -18 -8 -21 -17 -7 -18 -26 -36 -120
-114 -35 -28 -63 -55 -63 -60 0 -5 -6 -9 -14 -9 -8 0 -26 -13 -39 -30 -14 -16
-28 -30 -31 -30 -3 0 -20 -16 -38 -35 -29 -31 -168 -168 -235 -232 -13 -12
-23 -29 -23 -37 0 -21 30 -35 63 -29 19 4 39 -2 65 -19 21 -14 58 -35 82 -48
25 -12 66 -41 92 -64 90 -78 123 -104 205 -159 46 -31 108 -76 139 -101 31
-25 63 -46 72 -46 10 0 52 -25 95 -55 42 -30 80 -55 83 -55 17 0 160 -109 189
-145 41 -50 83 -61 130 -37 17 8 82 61 145 117 63 55 130 111 148 124 19 13
44 33 56 45 44 41 102 92 155 136 29 25 69 60 88 78 19 17 41 32 49 32 8 0 14
4 14 9 0 5 13 14 29 21 16 6 32 18 35 25 2 7 30 32 61 55 51 38 165 175 165
199 0 5 9 16 21 25 23 16 20 40 -9 72 -10 10 -39 47 -65 81 -54 70 -107 125
-163 168 -21 16 -108 99 -192 184 -144 145 -179 177 -246 226 -15 11 -58 43
-94 70 -119 90 -219 135 -237 105z m27 -93 c7 -7 49 -30 93 -52 44 -21 89 -48
100 -60 11 -11 38 -32 60 -47 22 -15 117 -102 210 -193 94 -91 184 -176 202
-188 47 -34 222 -196 233 -217 7 -13 4 -24 -15 -44 -14 -15 -25 -29 -25 -31 0
-3 -16 -21 -36 -42 -20 -20 -43 -47 -51 -60 -8 -13 -22 -23 -29 -23 -8 0 -14
-4 -14 -10 0 -5 -17 -18 -39 -29 -21 -11 -41 -27 -44 -36 -4 -8 -12 -15 -18
-15 -7 0 -19 -7 -28 -16 -9 -8 -38 -32 -66 -53 -27 -20 -70 -57 -95 -82 -25
-24 -63 -58 -85 -75 -81 -63 -160 -128 -170 -139 -5 -6 -35 -31 -65 -56 -30
-24 -77 -65 -104 -91 -27 -27 -52 -48 -55 -48 -4 0 -21 20 -39 45 -17 25 -42
47 -57 51 -14 3 -25 10 -25 15 0 9 -202 144 -277 185 -27 15 -52 32 -58 38 -5
7 -28 24 -51 37 -74 43 -179 116 -198 138 -11 11 -25 21 -33 21 -7 0 -13 4
-13 8 0 5 -23 26 -51 48 -28 21 -58 46 -68 54 -9 8 -40 31 -69 50 -31 21 -50
40 -47 48 3 8 5 18 5 22 0 5 11 15 24 22 13 7 80 65 148 129 67 64 148 137
178 162 30 24 65 55 76 68 43 47 129 116 224 178 62 41 80 56 163 136 86 83
179 164 189 164 4 1 13 -5 20 -12z"/>
<path d="M9804 10568 c-6 -7 -20 -20 -30 -29 -30 -25 -57 -60 -87 -111 -15
-27 -29 -48 -30 -48 -1 0 -18 5 -37 10 -19 6 -69 13 -110 16 -41 3 -81 7 -88
10 -17 5 -51 -12 -77 -39 -24 -26 -45 -89 -45 -140 0 -35 22 -95 40 -107 4 -3
10 -14 14 -25 9 -32 -48 -59 -106 -50 -35 5 -56 2 -89 -12 -56 -25 -76 -60
-63 -111 8 -33 17 -41 79 -72 39 -20 90 -49 115 -65 37 -24 58 -29 120 -33 77
-4 107 -16 91 -36 -5 -6 -12 -39 -16 -73 -11 -99 23 -148 87 -124 17 6 35 4
58 -6 52 -22 164 -26 201 -7 30 15 69 85 69 125 0 20 34 27 45 9 3 -6 20 -17
37 -26 28 -15 35 -15 84 1 85 27 104 69 107 244 0 62 1 64 54 119 46 49 53 61
53 97 0 22 -7 50 -15 61 -20 29 -77 55 -133 60 -70 7 -72 9 -72 57 0 108 -35
214 -91 275 -26 29 -37 33 -92 38 -44 3 -65 1 -73 -8z m133 -134 c23 -41 27
-62 27 -129 1 -79 1 -80 -26 -83 -18 -2 -51 12 -105 46 -87 55 -90 63 -52 137
34 65 58 86 96 82 29 -3 38 -11 60 -53z m-382 -130 c72 -29 76 -39 54 -114
-10 -34 -15 -37 -71 -50 -70 -15 -99 -6 -122 38 -15 30 -20 58 -18 105 2 21 7
27 25 27 12 0 29 5 37 10 21 13 22 13 95 -16z m201 -103 c20 -16 21 -20 8 -25
-9 -3 -27 -6 -41 -6 -19 0 -24 4 -19 16 3 9 6 20 6 25 0 15 20 10 46 -10z
m434 -107 c13 -13 11 -17 -13 -38 -15 -13 -27 -28 -27 -35 0 -20 -17 -12 -70
36 -51 46 -52 48 -29 55 34 10 121 -1 139 -18z m-290 -9 c0 -7 6 -15 12 -17
10 -4 8 -23 -6 -81 -10 -42 -21 -78 -24 -80 -4 -2 -20 0 -37 4 -16 3 -23 7
-14 8 19 1 52 63 52 98 0 51 -80 67 -126 25 -32 -28 -2 -113 46 -131 19 -8 18
-10 -17 -16 -32 -6 -40 -5 -49 11 -17 32 -78 85 -89 78 -8 -5 -9 4 -5 27 10
48 39 69 101 70 28 0 69 6 91 13 44 14 65 11 65 -9z m-401 -103 c41 -36 43
-41 37 -75 -8 -44 -29 -57 -88 -57 -51 1 -99 17 -162 54 -44 25 -45 27 -28 46
9 12 29 20 47 20 16 1 50 11 75 24 25 13 52 24 60 25 9 0 35 -16 59 -37z m531
3 c14 -17 7 -31 -20 -38 -16 -4 -20 0 -20 17 0 37 19 47 40 21z m60 -162 c0
-31 -6 -72 -12 -91 -11 -30 -15 -33 -43 -28 -16 3 -46 14 -65 24 -19 9 -36 17
-37 18 -1 0 2 18 8 40 12 42 52 89 72 81 7 -2 21 -1 32 4 41 16 45 11 45 -48z
m-292 -57 c21 -11 31 -25 35 -48 3 -18 1 -37 -4 -42 -5 -6 -9 -21 -9 -34 0
-66 -109 -68 -198 -4 -31 22 -33 28 -31 76 1 28 3 53 5 56 1 3 40 6 87 8 62 3
93 -1 115 -12z"/>
<path d="M7750 10862 c-54 -27 -73 -53 -52 -74 6 -6 34 -4 79 7 44 11 94 15
139 13 77 -5 208 -26 239 -39 70 -29 144 -58 165 -64 26 -8 140 -58 173 -76
22 -12 30 -8 22 12 -13 30 -242 159 -282 159 -11 0 -23 4 -28 8 -38 34 -239
82 -334 81 -51 0 -79 -7 -121 -27z"/>
<path d="M6135 10050 c-11 -12 -15 -26 -10 -37 3 -10 9 -43 11 -73 3 -30 10
-73 15 -95 5 -22 12 -71 14 -110 11 -186 17 -306 21 -480 4 -178 11 -249 33
-370 8 -44 -5 -442 -15 -454 -4 -4 -141 -8 -414 -11 -213 -3 -367 -11 -471
-25 -41 -6 -47 -10 -53 -35 -6 -31 15 -144 33 -177 6 -12 13 -92 16 -179 4
-88 11 -173 16 -191 5 -17 12 -69 14 -115 3 -45 8 -121 11 -168 6 -81 5 -230
-1 -350 -2 -30 -4 -78 -4 -107 -1 -69 -20 -88 -75 -78 -23 4 -68 9 -101 11
-33 2 -127 11 -210 20 -212 24 -393 16 -493 -21 -102 -39 -107 -50 -93 -214
21 -239 23 -266 26 -332 2 -36 8 -126 12 -200 6 -109 7 -253 3 -501 0 -13 -15
-17 -82 -22 -118 -8 -342 -14 -560 -15 l-186 0 -20 -28 c-25 -36 -28 -125 -6
-238 9 -44 18 -111 20 -150 3 -38 9 -92 13 -119 10 -53 6 -561 -4 -666 -5 -52
-22 -133 -30 -148 -1 -1 -29 -9 -61 -18 -47 -13 -91 -14 -223 -10 -90 4 -168
9 -173 12 -16 10 -206 -8 -225 -21 -16 -12 -16 -19 -4 -91 8 -44 14 -86 13
-94 0 -8 7 -55 15 -105 9 -49 15 -135 13 -190 -1 -55 -2 -116 -2 -135 0 -19 0
-57 0 -85 -1 -104 1 -181 7 -223 10 -71 13 -156 8 -179 -4 -18 -13 -23 -46
-25 -44 -3 -61 -1 -192 27 -78 16 -195 26 -345 30 -41 1 -100 5 -130 9 -51 6
-58 5 -78 -17 -22 -23 -23 -30 -18 -143 9 -180 7 -860 -2 -937 -5 -38 -5 -70
0 -73 4 -3 3 -16 -2 -30 -9 -22 -6 -96 4 -113 2 -3 0 -17 -5 -29 -9 -24 -9
-24 -132 -16 -128 8 -174 8 -430 3 -102 -2 -165 -7 -175 -15 -15 -11 -15 -23
1 -155 18 -145 25 -461 13 -569 -3 -30 -13 -125 -22 -210 -9 -85 -22 -173 -29
-195 -8 -25 -10 -46 -4 -57 5 -9 6 -24 3 -33 -4 -9 1 -24 9 -33 14 -15 35 -17
159 -16 79 1 206 -4 283 -11 191 -16 764 -7 869 15 45 9 56 7 99 -13 35 -17
61 -23 100 -21 325 18 376 20 762 17 612 -4 614 -4 626 19 14 27 25 350 20
618 -5 310 -2 459 10 481 15 29 45 37 115 31 l62 -4 5 -62 c4 -33 12 -88 18
-121 19 -91 16 -466 -4 -535 -8 -30 -18 -93 -20 -140 -3 -47 -13 -127 -23
-178 -16 -90 -16 -93 2 -107 11 -8 26 -15 35 -15 9 0 19 -7 23 -15 10 -28 104
-19 274 24 24 6 73 13 110 15 104 7 256 28 267 37 12 12 88 11 156 -1 30 -5
104 -12 164 -14 61 -3 123 -9 138 -15 15 -6 50 -11 78 -12 27 -1 52 -6 56 -11
3 -6 29 -8 58 -6 28 1 58 -2 66 -8 26 -20 82 -35 93 -24 5 5 17 10 26 10 14 0
16 34 14 313 0 171 -4 339 -7 372 -4 33 -9 110 -12 170 -2 61 -7 171 -11 246
l-7 136 34 6 c47 8 148 12 154 5 21 -20 23 -596 4 -958 -16 -307 -16 -291 4
-304 30 -19 51 4 58 65 30 268 32 314 30 659 -1 201 -3 401 -4 445 l-2 80 80
6 c44 4 130 12 190 19 124 14 515 14 562 1 18 -5 33 -8 35 -6 2 1 95 6 208 10
112 3 208 9 212 11 3 2 18 -6 33 -20 25 -23 25 -26 27 -172 1 -82 1 -176 0
-209 -1 -33 -1 -69 0 -80 0 -11 -4 -50 -11 -86 -14 -83 -15 -400 -2 -454 15
-57 14 -125 -2 -131 -7 -2 -121 -6 -253 -7 -201 -3 -245 -6 -277 -20 -37 -17
-216 -30 -374 -27 -33 0 -64 -3 -67 -8 -4 -6 -21 -6 -47 -1 -26 6 -71 6 -126
-2 -48 -6 -105 -9 -129 -5 -74 10 -102 -47 -41 -85 26 -17 42 -19 87 -14 30 4
141 8 247 10 105 2 197 6 204 11 7 4 52 8 100 9 48 1 100 7 116 13 15 5 37 14
48 18 11 4 54 9 95 10 41 2 81 4 88 4 6 1 42 1 78 0 36 -1 72 4 79 10 8 7 18
9 23 6 6 -3 43 -8 83 -11 41 -3 86 -11 102 -17 21 -8 31 -7 44 3 10 9 34 13
68 11 77 -5 240 17 324 43 41 13 79 21 85 17 15 -9 72 -3 117 13 28 10 53 12
91 5 98 -15 321 -23 363 -12 42 12 109 14 260 8 50 -2 103 1 120 5 18 5 33 5
39 -1 16 -16 41 -12 60 9 15 16 17 31 12 88 -3 38 -11 84 -16 103 -19 63 -38
222 -49 395 -6 94 -16 208 -21 255 -25 211 -41 337 -46 355 -9 38 50 49 161
30 11 -2 29 -4 41 -4 19 -1 22 -10 30 -84 5 -45 10 -134 10 -197 1 -63 5 -209
9 -325 4 -115 7 -308 6 -428 l-1 -218 32 -30 c18 -16 42 -29 54 -29 11 0 29
-9 38 -19 23 -25 59 -31 213 -36 71 -2 169 -8 218 -14 200 -22 500 -17 581 9
19 6 38 9 44 5 6 -4 26 -1 46 5 19 7 54 14 77 15 187 16 224 22 250 39 25 17
27 24 27 80 0 34 -9 110 -19 168 -18 98 -23 148 -36 428 -3 58 -10 155 -15
215 -5 61 -9 187 -7 280 3 216 0 222 -100 227 -66 3 -195 -19 -201 -34 -2 -4
-11 -4 -21 1 -9 5 -43 8 -76 6 -218 -13 -302 -14 -334 -4 -85 27 -77 7 -79
200 -2 96 -7 188 -12 204 -5 17 -9 44 -8 60 1 17 -2 53 -6 80 -10 63 -14 138
-20 345 -4 131 -21 443 -25 458 -1 2 -32 0 -70 -4 -37 -3 -127 -7 -200 -8
-107 -1 -133 2 -141 14 -5 8 -9 111 -8 230 1 233 -10 680 -18 719 -3 13 2 34
11 48 16 24 16 26 -6 49 -30 32 -77 39 -174 25 -44 -7 -121 -14 -171 -16 -49
-3 -106 -7 -127 -10 -25 -3 -39 -1 -42 8 -7 23 -34 441 -32 512 2 85 -13 427
-20 438 -2 4 -4 100 -5 215 0 260 -8 292 -68 283 -8 -1 -100 -4 -205 -7 -197
-4 -236 -6 -270 -17 -30 -9 -219 -35 -311 -43 l-82 -6 -5 83 c-3 46 -10 134
-16 194 -11 115 -27 294 -38 430 -12 145 0 329 23 367 4 6 8 48 10 92 3 81 3
81 31 84 15 2 33 7 38 12 6 4 39 10 75 14 97 10 200 29 200 38 0 4 11 3 25 -2
15 -6 34 -6 49 -1 21 9 93 13 175 12 18 -1 39 3 45 8 6 4 55 11 109 14 59 3
104 11 114 19 16 13 16 67 -2 408 -3 52 -8 219 -11 370 -9 513 -10 546 -18
558 -15 25 -75 39 -201 47 -147 10 -155 10 -355 2 -216 -9 -334 -7 -341 5 -4
6 -5 61 -2 122 11 295 4 665 -18 911 -6 71 -6 157 0 243 7 103 7 145 -3 183
-17 65 -28 76 -58 61 -13 -7 -34 -12 -48 -12 -53 2 -308 -11 -360 -17 -30 -4
-62 -7 -70 -6 -8 1 -70 4 -136 7 -67 3 -142 10 -168 16 -25 5 -106 10 -179 9
-72 0 -143 -1 -157 -1 -43 0 -154 9 -180 15 -14 4 -102 9 -196 12 -161 5 -172
4 -189 -15z m345 -91 c41 -5 161 -10 265 -10 105 0 239 -7 298 -15 60 -7 148
-14 195 -13 48 0 102 -5 121 -10 19 -6 37 -9 41 -6 3 2 28 5 54 6 26 2 49 5
51 8 2 3 67 6 146 6 l143 0 -5 -65 c-7 -115 -4 -233 11 -340 19 -139 21 -993
3 -1011 -6 -6 -22 -13 -35 -15 -78 -11 -206 -24 -288 -29 -52 -3 -129 -13
-170 -22 -87 -18 -125 -18 -234 2 -102 19 -155 19 -162 0 -5 -12 -40 -15 -217
-15 -117 -1 -237 -1 -267 -2 -30 0 -74 0 -97 1 l-42 1 4 222 c3 138 0 238 -6
267 -6 25 -13 109 -15 186 -2 77 -6 156 -9 175 -3 19 -7 108 -10 196 -3 89 -9
184 -14 210 -5 27 -13 102 -17 167 l-7 117 94 0 c52 0 128 -5 169 -11z m2098
-1545 l144 -7 -7 -66 c-3 -36 -1 -109 5 -161 6 -52 11 -198 11 -325 0 -126 4
-268 10 -315 6 -47 11 -139 12 -205 l2 -120 -40 -7 c-22 -4 -121 -14 -220 -23
-235 -20 -384 -39 -470 -60 -38 -9 -97 -15 -130 -14 -86 2 -92 1 -97 -19 -5
-16 -20 -20 -109 -27 -121 -9 -272 -8 -301 1 -19 6 -20 11 -14 84 8 84 8 415
1 540 -8 157 -42 531 -52 575 -13 60 -11 67 24 81 18 8 75 17 126 20 51 2 155
12 232 20 77 9 232 18 344 20 112 2 206 5 208 8 7 7 149 7 321 0z m-1427 -69
c41 -4 77 -12 81 -19 4 -6 8 -30 8 -54 0 -24 5 -52 10 -62 6 -11 13 -73 15
-137 6 -160 22 -351 31 -364 9 -14 7 -471 -2 -561 l-7 -67 -100 4 c-64 4 -104
10 -109 18 -5 6 -5 48 -1 92 10 105 5 376 -8 445 -5 30 -14 80 -20 110 -14 81
-27 150 -36 195 -9 41 -9 134 1 310 3 55 6 103 6 107 0 4 13 3 28 -2 16 -4 62
-11 103 -15z m-730 -16 c46 0 158 0 249 2 203 3 248 -4 256 -37 3 -13 3 -31 0
-40 -10 -27 -8 -302 3 -322 6 -11 13 -35 16 -53 3 -19 12 -74 20 -124 27 -153
33 -215 40 -365 3 -79 8 -147 11 -149 2 -2 -1 -10 -6 -16 -6 -7 -12 -39 -14
-71 l-4 -59 -54 -8 c-29 -4 -93 -6 -143 -4 -49 2 -139 0 -200 -5 -163 -14
-513 -24 -521 -15 -3 2 9 15 26 28 60 46 148 134 154 157 4 12 12 22 18 22 6
0 8 3 5 7 -9 8 42 63 58 63 6 0 33 -21 60 -46 143 -132 179 -153 223 -130 15
8 25 17 23 21 -2 4 13 27 33 51 24 28 34 49 29 57 -4 6 -8 21 -9 32 0 11 -6
47 -13 80 -10 43 -10 60 -2 63 6 2 29 18 51 35 21 18 51 40 65 50 20 15 25 26
24 55 -1 20 3 48 8 62 5 14 8 31 7 38 -1 6 -2 26 -3 44 -1 23 -12 41 -43 70
-23 21 -48 38 -55 38 -33 0 -113 43 -113 60 0 10 5 20 10 22 23 7 13 164 -12
210 -33 57 -60 71 -125 63 -52 -6 -78 -24 -138 -94 -5 -7 -32 -32 -58 -56 -60
-55 -70 -54 -242 12 -113 44 -192 36 -250 -25 -45 -48 -46 -100 -2 -189 5 -13
8 -24 6 -25 -2 -2 -44 -23 -93 -48 -48 -25 -91 -52 -94 -60 -3 -8 -11 -19 -18
-25 -6 -5 -16 -25 -22 -43 -10 -28 -8 -40 7 -70 40 -76 115 -132 176 -132 13
0 42 -9 66 -20 24 -11 59 -20 77 -20 31 0 45 -21 22 -35 -5 -3 -10 -16 -10
-27 0 -21 -40 -135 -60 -170 -13 -23 -13 -99 0 -132 11 -30 20 -28 -161 -52
-119 -15 -260 -17 -274 -2 -4 4 -2 79 5 168 14 194 1 514 -26 655 -3 17 -7 75
-10 131 -4 102 -12 165 -34 282 -9 46 -9 67 -1 75 7 7 157 11 482 13 259 2
474 5 476 8 3 3 9 4 13 1 4 -2 45 -5 91 -6z m132 -228 c21 -36 22 -108 2 -148
-13 -26 -22 -31 -67 -36 -46 -6 -57 -3 -91 20 -21 14 -40 30 -43 35 -11 17 32
85 76 121 57 47 98 50 123 8z m-558 -81 c12 -19 130 -72 163 -73 37 -1 40 -14
12 -45 -17 -18 -30 -21 -87 -20 -38 1 -78 -4 -90 -10 -32 -17 -78 -15 -96 6
-8 9 -20 37 -27 62 -11 41 -10 46 10 62 11 9 27 15 34 12 7 -3 23 0 37 5 32
13 37 13 44 1z m686 -226 c72 -40 79 -48 79 -87 0 -40 -63 -103 -112 -112 -35
-7 -38 -5 -49 21 -6 16 -20 48 -30 72 -23 51 -23 59 -4 106 19 46 36 46 116 0z
m-256 -4 c30 -28 31 -49 5 -100 -11 -22 -20 -45 -20 -53 0 -8 -10 -22 -22 -33
-18 -16 -20 -17 -15 -2 20 55 19 86 -4 107 -13 11 -32 21 -44 21 -38 0 -147
-87 -160 -127 -8 -28 -15 -29 -49 -2 l-26 21 20 25 c11 14 20 31 20 38 0 7 7
19 17 26 9 8 22 28 29 45 14 33 33 41 124 50 24 3 46 7 48 9 10 10 55 -4 77
-25z m-340 -10 c6 -10 -50 -100 -63 -100 -9 0 -62 66 -62 78 0 21 113 41 125
22z m-203 -71 c18 -22 50 -61 71 -85 40 -49 42 -56 27 -85 -16 -29 -85 -25
-222 13 -50 14 -84 39 -93 69 -11 34 107 126 167 128 9 1 32 -17 50 -40z m668
-189 c0 -9 -51 -20 -92 -20 -28 0 -30 2 -24 26 4 15 21 44 39 65 l32 38 23
-51 c12 -28 22 -54 22 -58z m-190 36 c0 -20 -20 -32 -64 -40 -48 -9 -46 9 4
36 41 22 60 23 60 4z m-187 -143 c48 -3 87 -7 87 -10 0 -8 -80 -138 -99 -160
-11 -13 -23 -23 -29 -23 -5 0 -29 -18 -53 -39 -46 -40 -107 -71 -140 -71 -24
0 -24 12 0 34 11 10 17 25 14 37 -3 10 0 26 7 34 7 8 9 22 6 31 -4 11 1 22 13
30 12 9 24 35 31 72 17 85 17 85 48 78 15 -4 66 -10 115 -13z m438 -49 c18
-54 16 -61 -21 -64 -40 -3 -45 -2 -96 33 -27 18 -57 36 -66 40 -35 13 -17 25
50 34 108 16 115 14 133 -43z m639 -385 c52 -4 112 -12 133 -17 55 -15 438 4
496 24 16 5 10 -50 -13 -126 -12 -37 -28 -187 -28 -250 0 -40 23 -287 28 -304
3 -10 10 -66 14 -125 5 -58 14 -169 21 -246 7 -78 10 -149 6 -159 -6 -16 -17
-17 -118 -12 -105 6 -112 8 -150 38 -48 39 -58 40 -437 35 -209 -2 -234 1
-180 27 43 21 90 64 132 121 17 22 36 44 43 48 7 4 13 15 13 23 0 8 11 19 24
25 22 10 30 7 73 -28 26 -22 64 -46 83 -53 19 -7 39 -17 44 -22 6 -4 27 -8 48
-8 28 0 40 5 49 23 7 12 24 38 39 57 24 31 27 42 24 104 -1 38 -8 80 -15 93
-16 30 1 64 42 82 56 24 86 65 93 125 8 63 -7 106 -52 149 -30 29 -122 77
-146 77 -11 0 -16 10 -17 33 -2 85 -22 136 -66 172 -33 25 -46 30 -98 30 -34
0 -67 -5 -75 -12 -8 -7 -36 -29 -63 -48 l-48 -35 -47 21 c-66 31 -186 38 -236
14 -80 -38 -102 -120 -60 -228 5 -14 0 -17 -27 -17 -130 -1 -219 -92 -219
-224 0 -19 4 -46 9 -59 13 -33 76 -68 136 -74 27 -3 56 -10 63 -16 8 -6 32
-10 54 -8 79 4 93 -15 62 -87 -27 -64 -51 -161 -46 -187 2 -14 14 -31 26 -37
11 -6 32 -22 45 -34 13 -13 30 -24 38 -24 8 0 11 -4 8 -10 -3 -5 -14 -10 -23
-10 -10 0 -23 -9 -30 -20 -9 -15 -23 -19 -54 -19 -24 0 -126 -1 -228 -3 l-184
-3 -2 335 c0 193 -6 372 -13 423 -6 48 -9 92 -6 97 3 5 -4 42 -16 82 -22 75
-37 170 -31 200 7 35 129 48 465 50 153 1 280 5 283 10 4 5 13 6 23 2 9 -4 59
-11 111 -15z m-969 -17 c5 -60 14 -111 35 -190 13 -53 24 -121 24 -152 0 -30
6 -84 13 -120 15 -69 14 -549 -1 -660 l-7 -55 -60 -9 c-65 -10 -143 -12 -151
-3 -3 3 -10 36 -15 74 -23 163 -48 366 -47 372 1 3 -1 40 -5 81 -4 41 -9 140
-12 220 -3 80 -8 154 -11 165 -7 31 -32 270 -29 274 2 2 17 4 34 5 16 1 32 3
34 6 8 8 197 0 198 -8z m-1306 -41 c95 -9 380 -24 475 -24 91 0 276 15 293 25
10 5 56 8 103 6 64 -2 85 -7 89 -18 2 -8 9 -60 15 -115 7 -55 13 -102 15 -105
5 -8 15 -165 20 -329 3 -85 8 -158 11 -163 3 -5 9 -55 14 -111 18 -217 20
-226 55 -309 6 -16 0 -18 -61 -19 -38 0 -157 -4 -264 -7 -184 -7 -198 -8 -250
-34 -71 -34 -105 -41 -133 -26 -15 8 -96 12 -252 14 -284 3 -587 22 -597 38
-7 10 -14 145 -10 186 8 85 9 214 2 250 -10 49 -41 494 -44 625 l-1 80 37 18
c74 36 243 42 483 18z m2424 -118 c6 -16 13 -47 15 -71 5 -44 -10 -62 -51 -62
-18 0 -113 89 -113 106 0 6 8 20 18 32 13 17 28 22 68 22 47 0 53 -3 63 -27z
m-344 -28 c27 -9 55 -13 62 -11 19 8 16 -14 -7 -51 -11 -18 -22 -45 -24 -60
-7 -37 -12 -40 -91 -46 l-70 -5 -23 38 c-14 24 -22 56 -22 84 0 39 3 45 28 54
40 15 90 14 147 -3z m159 -117 c-35 -9 -39 -5 -24 22 11 21 12 21 32 4 19 -18
19 -19 -8 -26z m372 -94 c86 -66 83 -128 -7 -175 -42 -21 -69 -14 -69 17 0 7
-13 35 -30 61 -32 50 -37 78 -17 104 27 35 70 33 123 -7z m-253 -26 l20 -27
-21 -63 c-11 -35 -21 -54 -21 -42 -2 40 -31 84 -56 84 -27 0 -65 -46 -65 -78
0 -38 48 -57 93 -35 33 17 34 13 2 -37 -26 -42 -42 -47 -78 -29 -28 14 -117
109 -117 124 0 17 31 77 48 95 24 24 74 39 126 37 40 -2 53 -7 69 -29z m-485
-30 c45 -10 60 -19 89 -55 l36 -44 -19 -37 c-10 -20 -23 -41 -29 -45 -12 -9
-161 -1 -219 13 -47 10 -56 22 -56 77 0 34 6 48 34 77 38 38 47 39 164 14z
m596 -130 c6 -33 4 -37 -25 -52 -18 -9 -36 -16 -40 -16 -8 0 22 87 38 113 8
14 20 -5 27 -45z m62 -155 c19 -25 17 -93 -3 -115 -29 -32 -66 -23 -122 32
-55 53 -58 70 -13 70 15 1 38 7 52 15 34 20 70 19 86 -2z m-360 -3 c13 0 28
-9 34 -20 9 -17 6 -27 -19 -59 -16 -20 -35 -50 -42 -67 -21 -47 -108 -124
-141 -124 -34 0 -54 102 -29 148 6 11 11 33 11 47 0 15 10 41 22 57 21 30 23
30 81 24 33 -3 70 -6 83 -6z m201 -473 c21 0 27 -157 25 -732 -1 -385 -5 -585
-13 -618 l-11 -47 -61 4 c-109 8 -177 18 -186 30 -14 17 -28 374 -19 459 5 40
10 180 12 311 3 234 -9 381 -42 516 -5 20 -5 46 0 59 7 21 13 23 61 18 28 -3
75 -2 102 2 28 5 66 6 85 3 19 -3 40 -5 47 -5z m1316 6 c4 -3 46 -8 94 -10 48
-2 89 -5 90 -7 1 -1 5 -110 8 -242 2 -131 9 -261 15 -289 5 -27 9 -77 8 -110
-4 -98 19 -626 28 -681 l6 -31 -339 3 c-186 2 -392 0 -458 -5 -66 -4 -121 -6
-123 -5 -2 1 14 18 34 38 20 20 42 44 48 55 30 50 71 108 91 127 20 18 23 19
32 5 19 -30 135 -80 190 -83 51 -2 53 -1 85 43 57 77 68 108 68 182 0 37 -5
77 -10 88 -8 14 -7 19 2 20 7 1 27 2 45 4 48 4 164 86 192 135 21 37 22 46 11
87 -20 82 -101 139 -210 147 -59 5 -120 28 -120 47 0 5 11 31 25 57 29 55 31
79 9 104 -13 14 -14 21 -5 32 10 11 9 20 -1 38 -40 71 -73 88 -151 78 -65 -9
-107 -34 -187 -111 l-51 -48 -42 24 c-90 53 -210 107 -246 111 -67 6 -121 -44
-121 -112 0 -13 21 -65 46 -115 25 -50 43 -93 41 -95 -2 -3 -30 -9 -61 -14
-31 -5 -62 -12 -68 -16 -7 -4 -23 -9 -37 -10 -51 -6 -141 -109 -141 -164 0
-36 41 -79 114 -119 73 -40 79 -41 157 -40 44 1 85 -3 90 -8 7 -7 3 -31 -11
-72 -65 -194 -66 -271 -3 -372 l22 -37 -37 -4 c-20 -3 -47 -1 -59 5 -14 6 -40
4 -83 -7 -35 -8 -67 -13 -72 -10 -5 3 -18 -2 -28 -11 -10 -9 -23 -14 -29 -11
-5 3 -20 2 -34 -3 -17 -7 -30 -6 -42 3 -16 11 -16 24 -7 137 5 68 9 153 7 189
-8 211 -8 267 -1 278 4 7 6 65 4 130 -1 64 -2 185 -1 267 1 83 -1 187 -4 232
l-5 82 43 11 c57 16 151 14 215 -3 35 -9 79 -11 137 -8 62 4 91 2 104 -6 22
-17 43 -16 57 1 7 10 38 17 86 20 109 7 241 26 261 36 9 6 50 12 89 14 39 3
78 10 85 16 8 7 23 9 33 6 11 -4 30 -2 43 3 29 12 63 14 72 4z m-1748 -43 c33
0 47 -5 54 -19 14 -26 48 -260 52 -361 7 -149 0 -391 -12 -448 -11 -53 -6
-313 7 -444 l6 -56 -208 4 c-115 2 -233 9 -263 14 -48 9 -57 8 -75 -9 -24 -21
-91 -29 -310 -36 -78 -3 -144 -10 -152 -16 -14 -12 -5 -11 -273 -10 -106 0
-205 -2 -218 -5 -31 -8 -45 10 -33 42 5 12 8 83 8 158 -1 75 2 139 5 143 8 8
7 160 -2 258 -3 39 -3 93 0 120 31 235 36 351 26 539 -2 36 1 40 28 48 17 5
140 13 275 18 135 5 290 12 345 15 55 3 141 8 190 10 50 2 124 8 165 13 41 5
109 9 150 8 41 -1 95 3 120 10 25 7 51 10 58 8 8 -2 33 -4 57 -4z m-2295 -90
c124 -5 254 -9 290 -8 36 1 84 -2 108 -7 30 -5 50 -4 66 5 18 9 29 9 45 0 21
-10 22 -18 21 -143 -1 -73 4 -244 10 -382 11 -283 12 -598 2 -665 l-7 -45 -55
2 c-30 1 -184 4 -342 5 -219 2 -290 0 -299 -9 -13 -13 -111 -18 -122 -7 -6 6
44 63 122 140 27 27 42 23 91 -30 21 -21 46 -37 69 -41 20 -3 50 -11 67 -17
51 -18 144 11 188 59 19 21 38 50 41 65 8 33 -11 107 -35 133 -19 22 -44 65
-38 69 2 1 21 14 44 29 22 15 45 27 52 27 17 0 82 101 82 127 0 32 -47 126
-76 154 -14 13 -53 33 -87 45 -64 22 -65 23 -52 79 21 95 8 195 -28 220 -12 8
-41 15 -66 15 -39 0 -48 -5 -90 -48 -25 -27 -58 -67 -73 -90 -18 -27 -33 -40
-42 -36 -8 3 -38 41 -65 84 -54 86 -80 103 -194 130 -53 12 -62 12 -130 -10
-95 -31 -147 -82 -147 -145 0 -23 3 -45 8 -49 4 -4 13 -35 20 -69 7 -34 15
-74 18 -89 5 -24 2 -28 -22 -33 -101 -23 -191 -73 -200 -113 -4 -15 -13 -34
-20 -43 -32 -36 195 -205 302 -225 19 -3 37 -10 40 -15 6 -10 -23 -95 -38
-116 -5 -6 -12 -37 -15 -67 -5 -46 -3 -57 11 -62 9 -3 16 -11 16 -17 0 -6 7
-18 16 -28 15 -16 13 -18 -28 -23 -23 -4 -117 -9 -208 -12 -91 -2 -178 -6
-195 -7 -35 -2 -34 -26 -12 233 13 164 18 253 21 395 1 58 -13 255 -18 264 -3
4 -8 28 -11 52 -3 24 -10 76 -15 114 -16 117 -13 173 9 184 10 6 99 12 197 15
213 6 457 17 463 22 2 2 22 1 45 -1 22 -3 142 -9 266 -15z m812 -8 c27 -27 38
-260 17 -352 -6 -25 -12 -205 -13 -410 -2 -201 -7 -398 -11 -439 l-7 -74 -83
5 c-46 3 -89 9 -95 13 -9 6 -11 26 -5 74 12 111 13 214 5 414 -22 492 -26 759
-13 780 8 13 191 3 205 -11z m2960 -119 c9 -10 19 -29 23 -43 4 -14 12 -28 17
-31 5 -3 2 -18 -6 -35 -18 -34 -29 -64 -30 -81 -2 -23 -41 -42 -89 -43 -40 0
-52 5 -73 28 -13 15 -33 36 -44 48 -11 12 -20 24 -20 28 0 11 50 82 50 71 1
-6 9 0 20 13 11 13 43 32 72 42 65 24 62 24 80 3z m-522 -34 c14 -9 60 -33
103 -53 42 -19 77 -40 77 -46 0 -20 -38 -85 -62 -106 -17 -16 -35 -21 -72 -20
l-50 1 -52 104 c-44 87 -51 106 -41 122 15 23 61 23 97 -2z m-3562 -68 c29
-15 85 -86 117 -149 23 -45 25 -55 14 -69 -26 -30 -113 -62 -163 -59 -25 2
-67 -1 -93 -6 -45 -8 -49 -7 -70 19 -26 32 -63 134 -63 174 0 47 11 60 71 89
50 23 64 26 112 19 30 -4 64 -12 75 -18z m441 -78 c0 -32 -6 -76 -13 -98 -11
-39 -13 -40 -64 -46 -57 -7 -102 0 -101 16 3 37 90 142 141 170 36 20 38 18
37 -42z m3395 -39 c10 -27 7 -31 -19 -26 -28 5 -31 12 -13 30 16 16 25 15 32
-4z m21 -104 c4 -6 -5 -20 -19 -31 -31 -24 -56 -69 -56 -99 0 -26 61 -54 97
-45 26 6 63 59 63 89 0 15 3 16 15 6 16 -13 21 -60 6 -60 -5 0 -18 -23 -30
-50 -21 -48 -23 -50 -54 -46 -18 3 -53 8 -79 11 -42 6 -51 11 -78 50 -32 46
-36 64 -21 93 5 9 12 25 15 35 3 9 18 22 33 28 15 6 35 15 43 19 21 12 58 12
65 0z m415 -37 c41 -8 75 -16 75 -16 1 -1 14 -20 29 -41 22 -29 27 -43 19 -55
-13 -23 -92 -61 -125 -61 -16 0 -40 -7 -53 -16 -43 -28 -66 -15 -112 64 l-43
73 20 29 c11 15 20 34 20 40 0 14 41 10 170 -17z m-721 -38 l43 -42 -13 -38
c-18 -48 -42 -57 -154 -59 -82 -1 -94 1 -132 27 -34 21 -43 33 -43 56 0 37 42
79 89 87 20 3 50 9 66 14 55 13 97 0 144 -45z m-3321 -50 c25 -51 28 -65 10
-47 -7 7 -26 12 -44 12 -25 0 -39 -9 -66 -42 -39 -48 -63 -107 -49 -121 5 -5
27 -11 50 -14 38 -5 43 -3 81 38 21 24 42 56 46 72 4 20 9 26 17 18 14 -14
-15 -88 -54 -138 -36 -46 -69 -62 -128 -63 -35 0 -51 6 -73 27 -15 15 -28 33
-28 40 0 21 39 93 64 118 12 12 46 49 75 83 30 34 59 62 66 62 6 0 21 -20 33
-45z m120 18 c-2 -10 -10 -18 -18 -18 -8 0 -16 8 -18 18 -2 12 3 17 18 17 15
0 20 -5 18 -17z m194 -7 c25 -3 45 -23 73 -74 41 -73 22 -108 -65 -116 -23 -2
-50 -12 -59 -21 -17 -15 -21 -13 -58 32 -55 67 -55 67 -36 110 30 67 53 85 93
77 19 -4 42 -8 52 -8z m-574 -32 l30 -6 -27 -40 c-14 -22 -26 -45 -26 -52 0
-24 -30 -9 -57 29 -41 60 -39 63 38 74 6 0 25 -2 42 -5z m-183 -44 c3 -18 61
-108 87 -133 27 -26 23 -55 -8 -63 -49 -12 -245 67 -291 118 -18 20 -17 21 10
41 67 51 197 74 202 37z m4255 -19 c0 -10 -9 -21 -20 -24 -22 -6 -27 12 -8 31
17 17 28 15 28 -7z m-349 -104 c14 -12 45 -48 68 -79 23 -31 48 -59 54 -61 16
-5 -9 -63 -45 -105 -15 -18 -28 -38 -28 -46 0 -26 -86 -103 -121 -108 -19 -3
-38 -3 -43 -1 -12 8 -2 94 16 130 22 43 13 83 -18 83 -30 0 -31 28 -4 85 11
22 19 49 20 61 0 26 35 58 70 63 3 1 17 -9 31 -22z m-3304 -42 c-5 -13 -75
-31 -84 -21 -3 2 7 20 22 40 l26 35 20 -20 c12 -12 18 -26 16 -34z m3481 8 c2
-13 1 -23 -3 -23 -15 0 -43 21 -49 35 -5 13 0 16 22 13 19 -2 28 -9 30 -25z
m248 2 c36 -39 44 -59 44 -111 0 -38 -5 -54 -27 -76 -15 -15 -36 -28 -47 -28
-23 0 -134 65 -153 89 -29 37 0 127 45 137 15 3 32 7 37 9 36 12 79 3 101 -20z
m-3656 -116 c0 -6 16 -29 34 -51 68 -80 50 -140 -47 -159 -40 -7 -52 -5 -101
20 -83 43 -146 85 -146 97 0 6 10 26 23 45 22 33 25 34 111 41 48 3 90 9 94
12 9 10 32 7 32 -5z m-449 -52 c15 -7 39 -27 54 -45 l28 -33 -35 -37 c-19 -20
-48 -52 -63 -69 -17 -20 -41 -35 -62 -39 -40 -8 -68 10 -33 21 27 9 21 29 -11
33 -38 6 -51 22 -45 56 8 36 43 108 60 118 17 12 78 9 107 -5z m5101 -354 c2
-10 1 -63 -2 -118 -3 -55 -1 -161 4 -235 5 -74 9 -243 10 -375 l1 -240 -67 2
c-37 1 -70 -2 -73 -8 -4 -5 -11 -6 -17 -3 -32 20 -83 22 -113 5 -40 -25 -90
-33 -194 -31 -243 4 -280 6 -287 13 -11 11 23 65 65 101 20 17 46 41 59 53
l23 23 21 -20 c12 -11 28 -20 35 -20 7 0 21 -4 31 -9 19 -10 51 -23 99 -41 27
-10 39 -10 67 4 18 8 38 21 44 28 16 21 35 128 28 168 -5 30 -2 41 18 59 13
12 28 21 33 19 5 -2 21 11 35 27 19 23 23 36 17 57 -6 22 -2 32 19 54 56 56
24 144 -60 164 -25 6 -55 18 -65 25 -10 8 -26 15 -36 15 -17 0 -37 36 -37 65
0 8 9 23 20 33 21 19 21 46 4 126 -8 38 6 46 86 46 36 1 94 7 130 15 88 18 97
18 102 -2z m-4467 -19 c50 -4 106 -8 125 -9 19 -1 69 -7 110 -13 176 -25 273
-34 311 -29 28 4 39 2 36 -6 -2 -7 -15 -11 -28 -9 -16 2 -33 -6 -49 -23 -13
-14 -28 -25 -34 -25 -6 0 -23 -20 -39 -45 -33 -55 -41 -53 -116 34 -59 68 -79
75 -253 85 -79 5 -99 4 -112 -9 -23 -23 -31 -84 -16 -119 6 -17 15 -49 19 -71
5 -22 15 -57 24 -79 10 -21 17 -42 17 -46 0 -13 -60 -40 -87 -40 -13 0 -40 -9
-61 -19 -115 -58 -112 -161 5 -257 30 -24 67 -47 81 -50 15 -4 43 -15 62 -24
19 -10 43 -21 53 -24 14 -5 16 -10 7 -25 -5 -11 -7 -27 -4 -35 3 -9 2 -16 -3
-16 -9 0 -33 -49 -49 -100 -4 -14 -8 -52 -8 -85 l-1 -60 -110 -7 c-60 -3 -141
-11 -179 -18 -86 -14 -76 -13 -109 -11 -47 2 -52 36 -43 266 3 61 5 196 5 300
0 105 1 217 2 250 1 33 3 119 3 190 l1 130 55 5 c64 6 257 3 385 -6z m2000 6
c77 -5 169 -12 205 -14 69 -4 195 -23 220 -32 11 -4 6 -9 -17 -19 -17 -7 -36
-23 -43 -34 -6 -12 -17 -21 -25 -21 -8 0 -15 -4 -15 -9 0 -4 -18 -21 -40 -36
l-40 -28 -44 37 c-34 28 -67 42 -140 61 -87 22 -98 23 -129 10 -42 -17 -77
-70 -77 -114 0 -32 31 -104 50 -116 5 -3 10 -15 10 -25 0 -14 -12 -23 -42 -32
-58 -16 -111 -51 -142 -91 -32 -42 -33 -67 -2 -98 37 -37 45 -42 131 -84 44
-21 85 -42 92 -47 16 -12 -21 -122 -57 -168 -33 -43 -53 -125 -40 -169 5 -17
5 -33 2 -35 -25 -14 -80 -18 -217 -13 l-50 2 -1 155 c-1 134 -2 567 -2 625 0
11 -1 78 -2 148 -1 82 2 133 10 141 14 18 208 20 405 6z m857 -116 c0 -67 -5
-156 -11 -200 -6 -43 -8 -95 -6 -114 2 -19 6 -148 10 -286 4 -202 2 -254 -9
-269 -12 -17 -34 -19 -292 -22 -154 -3 -288 -5 -299 -5 -66 -4 -125 3 -125 15
0 16 128 177 141 177 5 0 12 -7 15 -15 14 -35 198 -132 256 -134 24 -1 39 28
24 51 -9 16 -6 22 20 43 40 31 50 75 27 118 -9 18 -16 36 -15 40 1 4 -4 18
-13 30 -24 34 -18 53 23 71 20 10 55 33 76 52 33 28 39 40 38 69 -1 19 2 35 7
35 4 0 14 11 21 25 20 37 -22 87 -92 109 -88 28 -98 35 -98 73 0 21 6 36 15
39 22 9 20 86 -2 107 -10 8 -37 23 -60 32 -24 10 -40 21 -37 26 3 5 29 9 59 9
30 0 66 5 81 10 19 7 30 7 40 -1 8 -6 21 -8 31 -4 10 5 22 7 27 6 4 -1 15 4
23 11 14 11 95 28 117 24 5 -1 9 -56 8 -122z m236 110 c12 -4 24 -16 27 -28 8
-33 9 -133 2 -221 -3 -44 -9 -129 -12 -189 -4 -61 -9 -114 -12 -119 -10 -16
-14 -444 -4 -470 6 -14 24 -33 40 -42 29 -14 31 -14 41 6 9 16 14 18 26 8 10
-8 40 -10 94 -6 61 4 82 2 91 -9 12 -15 15 -42 24 -274 3 -80 9 -206 14 -280
11 -182 8 -233 -23 -388 -14 -72 -26 -166 -26 -206 0 -41 -5 -78 -10 -81 -6
-4 -122 -8 -258 -11 -253 -4 -407 -8 -731 -19 l-184 -6 9 138 c9 141 9 355 0
678 -9 331 -9 402 -2 414 5 7 16 9 28 5 30 -9 314 -5 648 9 l45 2 3 293 c2
161 -1 307 -5 325 -5 17 -5 64 -1 102 4 39 10 133 14 211 7 140 7 141 33 151
30 12 95 16 129 7z m885 -4 c42 0 77 -2 77 -4 0 -2 -25 -12 -55 -21 -30 -10
-55 -22 -55 -27 0 -11 -91 -98 -103 -98 -7 0 -73 45 -87 60 -16 16 -102 50
-142 56 -39 5 -54 2 -83 -16 -22 -14 -34 -28 -31 -36 3 -8 -1 -14 -9 -14 -26
0 -30 -67 -6 -124 11 -28 21 -54 21 -58 0 -3 -21 -16 -47 -29 -25 -12 -54 -30
-63 -38 -8 -9 -32 -24 -52 -33 -28 -13 -39 -26 -47 -55 -21 -74 -12 -93 79
-167 22 -18 81 -44 112 -50 15 -2 39 -13 53 -23 29 -20 29 -37 1 -137 -9 -33
-17 -75 -18 -93 -1 -37 0 -37 -52 -22 -34 9 -44 8 -78 -11 -32 -18 -52 -21
-113 -19 -61 3 -77 0 -94 -15 -21 -19 -21 -19 -22 15 -3 65 2 284 7 329 2 25
9 108 15 185 6 77 13 163 15 190 3 28 6 91 7 140 1 50 5 95 9 101 4 7 26 12
49 12 23 1 43 3 46 6 3 2 136 2 296 0 161 -2 327 -4 370 -4z m-5688 -35 c55
-3 102 -5 105 -5 3 0 -6 -6 -19 -13 -13 -6 -37 -28 -53 -48 -37 -46 -38 -95
-4 -194 l25 -70 -52 -47 c-28 -27 -55 -48 -60 -48 -10 0 -44 -40 -64 -74 -22
-37 -15 -63 22 -92 19 -14 35 -31 35 -37 0 -6 7 -18 16 -28 9 -10 23 -33 32
-51 14 -27 31 -39 95 -64 43 -17 80 -34 83 -37 3 -3 -3 -25 -14 -49 -20 -47
-45 -139 -41 -154 2 -5 0 -19 -5 -31 -6 -20 -14 -23 -56 -23 -27 0 -51 -4 -54
-9 -6 -9 -37 -8 -96 3 -19 4 -57 8 -85 9 -48 2 -50 3 -52 32 -2 17 -8 62 -14
100 -13 76 -14 199 -5 450 4 122 2 183 -10 255 -9 52 -18 125 -21 162 -5 63
-4 68 16 76 12 4 57 4 99 0 42 -4 122 -10 177 -13z m674 9 c-16 -19 -77 -59
-131 -87 -21 -11 -38 -24 -38 -31 0 -6 -9 -17 -20 -24 -18 -11 -27 -5 -96 63
-47 47 -71 77 -62 79 29 10 59 12 207 15 144 2 153 1 140 -15z m513 -7 c9 -14
12 -69 9 -197 -1 -52 -1 -147 -1 -210 1 -63 0 -162 -1 -220 -2 -58 -3 -187 -4
-288 0 -183 0 -183 -23 -189 -38 -9 -404 16 -418 29 -2 3 14 19 37 36 67 49
72 62 70 169 l-2 94 47 43 c26 24 48 52 49 63 0 11 11 30 23 43 24 26 27 79 7
120 -7 14 -18 43 -25 65 -24 78 -91 149 -152 160 -30 6 -58 25 -58 41 0 8 7
29 16 46 20 38 23 153 6 170 -7 7 -12 21 -12 31 0 19 7 19 212 12 144 -4 215
-10 220 -18z m2030 -7 c5 -13 8 -102 6 -199 -1 -97 0 -250 2 -341 5 -273 5
-468 0 -474 -3 -3 -50 -10 -105 -16 -55 -6 -121 -13 -147 -16 -27 -3 -48 -2
-48 3 0 4 -3 113 -6 241 -2 128 -9 244 -14 258 -6 14 -7 56 -4 92 4 37 1 108
-5 157 -15 112 -16 251 -1 289 9 26 14 28 48 23 20 -3 46 -1 57 3 11 5 62 8
114 6 88 -2 95 -4 103 -26z m-415 -23 c4 -5 7 -43 6 -85 -2 -42 2 -92 7 -112
5 -20 12 -112 16 -205 3 -94 7 -197 9 -230 2 -33 7 -134 11 -225 l7 -166 -38
-11 c-55 -17 -373 -9 -448 11 -32 9 -79 16 -104 16 -54 0 -174 19 -186 29 -4
4 14 30 40 59 47 49 49 50 75 36 15 -7 29 -22 32 -32 4 -10 30 -30 58 -43 66
-30 182 -33 241 -5 42 21 52 44 51 121 0 48 -7 68 -39 125 -14 24 -13 26 19
42 23 12 41 34 58 70 35 73 48 117 37 124 -5 3 -7 10 -4 15 4 5 3 14 -1 21 -4
6 -8 24 -10 40 -3 39 -47 84 -114 117 l-55 26 -2 82 c-1 70 -5 87 -26 115 -31
43 -39 65 -24 72 20 8 375 2 384 -7z m2998 -36 c6 -20 -20 -127 -33 -135 -17
-9 -128 -15 -141 -7 -31 20 51 127 114 149 44 15 53 14 60 -7z m-5077 -33 c2
-20 -4 -50 -12 -67 -9 -16 -16 -39 -16 -51 0 -17 -7 -20 -47 -21 -92 -2 -133
6 -133 25 0 21 60 85 75 80 7 -3 15 2 18 10 4 9 12 16 20 16 7 0 24 11 37 25
33 35 54 29 58 -17z m-393 -5 c58 -56 89 -103 77 -115 -5 -5 -50 -19 -98 -29
-49 -11 -98 -26 -109 -33 -35 -22 -63 -25 -78 -7 -8 9 -23 51 -35 93 l-20 77
26 17 c34 22 60 28 135 32 61 3 64 2 102 -35z m5068 2 c23 -13 58 -40 77 -60
l35 -36 -22 -18 c-13 -11 -48 -21 -84 -25 -71 -8 -90 3 -130 79 -23 43 -23 44
-5 64 26 28 77 27 129 -4z m-3391 -66 c45 -50 66 -82 63 -92 -9 -23 -49 -34
-160 -46 -100 -11 -100 -11 -121 13 -18 21 -41 82 -71 189 -4 16 4 17 108 15
l112 -3 69 -76z m362 55 c30 -29 37 -53 30 -104 -6 -47 -8 -49 -38 -49 -17 0
-38 -1 -46 -2 -8 -1 -36 -1 -62 -1 -38 2 -51 7 -63 26 -15 23 -15 27 8 63 34
53 57 71 97 76 19 2 40 5 47 5 6 1 19 -5 27 -14z m1834 10 c27 -8 25 -26 -8
-102 l-19 -43 -73 4 c-72 4 -73 4 -73 32 0 17 7 32 19 39 11 6 33 26 49 44 29
32 56 39 105 26z m-374 -48 c24 -14 51 -37 60 -51 15 -23 15 -27 1 -49 -20
-29 -35 -37 -98 -46 -45 -6 -51 -4 -77 22 -49 49 -76 128 -52 152 15 16 122
-2 166 -28z m1768 -191 c-15 -13 -36 -40 -47 -60 -17 -33 -18 -39 -4 -63 11
-20 24 -28 52 -30 43 -4 45 -12 16 -58 l-20 -34 -23 28 c-12 15 -37 48 -56 75
-18 26 -37 47 -42 47 -32 0 40 115 85 134 27 11 34 11 49 -1 16 -14 15 -17
-10 -38z m323 7 c33 -11 61 -27 63 -35 4 -18 -38 -48 -100 -72 l-48 -18 -25
24 c-28 27 -30 40 -12 89 20 57 26 64 45 47 10 -9 44 -24 77 -35z m-1789 17
c3 -5 0 -18 -6 -29 l-11 -21 -18 23 c-10 12 -17 28 -14 34 5 13 40 7 49 -7z
m211 -23 c47 -11 56 -27 39 -68 -18 -43 -27 -50 -101 -82 l-60 -25 -37 41
c-37 42 -37 42 -18 63 11 12 20 24 20 28 0 4 11 25 25 47 l25 40 38 -19 c20
-10 51 -22 69 -25z m-3837 22 c0 -7 22 -37 49 -67 45 -48 49 -56 40 -79 -20
-53 -30 -56 -61 -17 -16 19 -38 35 -49 35 -23 0 -89 -62 -89 -84 0 -39 24 -67
67 -79 40 -10 44 -14 38 -37 -11 -43 -34 -60 -81 -60 -48 0 -76 21 -99 78 -14
32 -12 37 39 145 29 62 67 127 84 145 30 32 62 42 62 20z m-150 -21 c0 -29
-76 -157 -94 -157 -18 0 -86 70 -86 90 0 25 32 50 74 57 20 3 39 10 42 14 9
14 64 11 64 -4z m477 -24 c24 -14 43 -29 43 -34 0 -6 9 -29 20 -51 11 -23 20
-50 20 -61 0 -10 5 -27 10 -38 8 -14 7 -28 -5 -53 -15 -32 -18 -34 -58 -29
-54 7 -62 14 -97 87 -17 34 -39 76 -51 95 -18 30 -19 38 -8 65 26 65 43 68
126 19z m4511 -27 l34 -48 -32 -64 c-17 -35 -37 -64 -43 -64 -7 0 -41 11 -76
24 -74 27 -131 69 -131 96 0 21 97 100 123 100 9 0 18 4 21 9 3 5 20 6 38 2
23 -5 41 -20 66 -55z m-2987 44 c15 0 10 -20 -12 -56 l-21 -34 -18 22 c-9 13
-20 33 -24 45 -6 17 -2 22 16 26 13 2 29 3 36 1 8 -2 18 -4 23 -4z m1644 -10
c3 -6 -4 -10 -17 -10 -47 0 -85 -115 -51 -152 9 -10 22 -18 30 -18 7 0 13 -5
13 -11 0 -6 -20 -9 -52 -7 -45 3 -55 7 -67 30 -15 25 -13 31 18 95 19 37 39
71 45 75 16 11 74 10 81 -2z m-1807 -31 c9 -18 32 -51 50 -75 35 -48 37 -56
22 -82 -5 -9 -15 -28 -20 -42 -33 -79 -47 -90 -116 -90 -50 0 -53 2 -95 53
-76 90 -73 81 -53 124 10 21 24 42 31 46 7 4 13 13 13 20 1 20 46 65 71 70 63
12 80 8 97 -24z m339 -15 c39 -25 56 -62 55 -116 -1 -69 -37 -108 -98 -108
-48 0 -58 9 -105 98 -12 23 -10 32 24 87 7 11 18 30 25 43 11 19 19 22 45 17
18 -4 42 -13 54 -21z m-589 -11 c-19 -45 -26 -48 -53 -23 -38 36 -32 50 20 50
l45 0 -12 -27z m1768 -29 c25 -52 26 -59 13 -83 -8 -14 -25 -27 -37 -29 -24
-4 -155 53 -173 74 -17 21 6 51 53 68 103 37 112 35 144 -30z m-1907 -18 c67
-86 67 -85 36 -148 -27 -56 -27 -56 -61 -46 -19 5 -71 26 -117 47 -68 32 -85
44 -99 74 -17 36 -17 36 6 55 13 10 43 24 67 31 24 7 51 17 59 21 8 5 29 9 45
9 24 0 37 -9 64 -43z m-1671 -19 c22 -29 49 -72 61 -95 19 -38 20 -47 10 -83
-17 -55 -38 -64 -98 -44 -48 16 -69 34 -129 112 -39 51 -40 64 -4 85 15 9 41
30 57 47 17 17 38 31 47 31 10 0 35 -24 56 -53z m5637 -27 c20 -23 14 -50 -13
-50 -10 0 -23 -5 -29 -11 -15 -15 -34 -2 -26 19 10 26 34 62 43 62 4 0 15 -9
25 -20z m-5058 -60 c14 -25 29 -57 34 -72 7 -25 5 -29 -19 -34 -15 -3 -40 -9
-57 -14 -111 -30 -124 -18 -75 73 59 112 77 119 117 47z m4750 18 c12 -17 20
-35 17 -40 -3 -4 -23 -8 -46 -8 -39 0 -40 1 -33 27 7 29 23 53 34 53 3 0 16
-15 28 -32z m-1257 -115 c12 -21 28 -50 38 -65 15 -25 15 -28 -2 -47 -32 -35
-83 -28 -162 24 -60 40 -93 71 -82 79 1 1 16 12 32 24 22 17 42 22 92 22 63 0
64 0 84 -37z m-2240 -15 c0 -4 -13 -8 -30 -8 -31 0 -39 17 -18 38 9 9 16 8 30
-5 10 -9 18 -20 18 -25z m1899 1 l34 -41 -24 -45 c-37 -68 -158 -191 -195
-199 -41 -8 -53 18 -19 40 16 11 30 36 41 74 9 31 21 62 26 69 5 7 7 17 4 22
-4 6 -1 30 5 56 10 38 16 46 43 54 47 14 49 13 85 -30z m1967 17 c3 -13 4 -38
2 -57 -3 -33 -4 -34 -46 -33 -34 1 -50 7 -74 31 -33 33 -31 53 5 53 12 1 36 7
52 15 43 19 54 18 61 -9z m-306 -28 c0 -4 -21 -27 -46 -50 -25 -24 -66 -73
-91 -110 -25 -38 -48 -68 -53 -68 -11 0 1 42 17 58 7 7 13 33 13 57 0 38 -2
43 -20 38 -19 -5 -19 -3 -6 33 11 33 18 40 47 44 53 8 139 6 139 -2z m-3109
-49 c9 -4 32 -25 51 -47 39 -43 59 -119 36 -134 -17 -10 -81 -10 -93 0 -6 5
-46 23 -90 41 -111 44 -121 53 -106 90 24 55 138 84 202 50z m-1629 -85 c11
-85 3 -117 -32 -137 -41 -25 -108 -14 -158 24 -115 89 -115 89 -80 126 18 19
32 23 83 23 33 0 65 4 71 9 8 9 76 20 99 16 6 -1 13 -28 17 -61z m1276 23 c36
-33 28 -60 -37 -125 -59 -60 -102 -81 -193 -98 -34 -5 -38 -4 -38 14 0 11 16
50 35 87 28 54 32 71 25 91 -23 59 -19 62 88 56 80 -4 101 -8 120 -25z m-1702
-24 c13 -13 25 -34 26 -46 4 -53 -60 -132 -122 -152 -14 -4 -34 -14 -45 -21
-29 -21 -59 -18 -49 4 4 9 9 40 11 67 8 130 29 173 88 177 51 4 62 1 91 -29z
m134 -121 c14 -11 23 -29 23 -47 0 -16 6 -39 14 -51 13 -20 12 -22 -27 -28
-23 -4 -64 -3 -93 0 l-51 7 27 21 c14 12 35 42 47 69 11 26 25 47 29 47 5 0
19 -8 31 -18z m5863 -72 c110 -1 117 -1 187 14 36 7 66 12 68 11 5 -4 23 -315
27 -481 2 -100 9 -210 14 -245 11 -75 19 -182 26 -369 l5 -135 -277 2 c-153 1
-325 5 -383 8 -58 4 -114 6 -125 6 -117 -6 -159 -5 -178 2 -19 8 -12 13 54 36
96 33 146 66 195 130 22 28 45 50 51 51 7 0 20 -15 29 -32 19 -39 83 -108 100
-108 6 0 17 -7 24 -15 16 -19 101 -20 138 -1 15 8 38 27 52 42 71 80 77 117
28 168 -18 18 -42 48 -53 66 -11 19 -27 44 -35 56 -14 22 -12 25 26 61 77 73
116 130 118 171 1 62 -28 112 -91 155 -31 21 -69 41 -84 44 -23 4 -28 10 -24
27 25 108 25 117 9 189 -9 39 -27 87 -41 105 -21 27 -30 32 -67 32 -30 0 -46
-5 -50 -15 -3 -8 -14 -15 -24 -15 -10 0 -26 -8 -36 -18 -9 -11 -34 -25 -55
-32 -37 -12 -131 -92 -131 -112 0 -14 -37 -9 -50 8 -18 20 -62 38 -137 54 -55
11 -68 11 -106 -4 -45 -17 -97 -79 -97 -114 0 -10 14 -46 30 -81 31 -64 29
-80 -6 -81 -6 0 -17 -7 -24 -15 -7 -8 -20 -15 -29 -15 -10 0 -41 -22 -71 -48
-53 -48 -54 -49 -54 -105 -1 -52 2 -59 33 -87 45 -42 127 -86 174 -94 45 -8
54 -25 37 -74 -23 -70 -47 -248 -36 -264 11 -16 96 -58 115 -58 6 0 11 -4 11
-8 0 -8 -198 -49 -260 -53 -72 -6 -219 -3 -226 4 -9 8 20 279 40 376 19 92 20
125 8 331 -6 91 -13 230 -16 310 -4 80 -8 161 -9 180 -2 32 1 35 27 38 20 3
32 -3 43 -18 8 -12 21 -19 29 -16 8 3 14 1 14 -4 0 -17 26 -11 44 9 14 16 26
18 59 14 23 -3 125 -6 227 -7 156 -1 195 2 250 18 51 15 99 20 227 21 90 1
166 5 170 9 5 4 9 1 11 -8 3 -12 18 -16 75 -16z m-7133 -66 c58 -3 141 -12
185 -20 141 -25 388 -53 470 -53 44 -1 152 -3 240 -6 88 -3 175 -5 194 -5 l33
0 -5 -189 c-3 -118 -1 -195 6 -206 5 -10 12 -73 14 -139 2 -67 8 -195 14 -286
6 -91 8 -203 4 -249 l-7 -83 -131 6 c-73 4 -251 8 -397 9 -210 1 -270 -2 -290
-13 -28 -15 -88 -19 -405 -22 l-210 -3 2 115 c3 163 5 871 4 1018 -1 68 1 128
5 134 5 7 34 9 88 4 45 -3 128 -8 186 -12z m4601 -4 c5 -45 9 -147 13 -340 6
-259 15 -450 22 -462 3 -4 -2 -66 -10 -136 -9 -70 -18 -158 -22 -195 l-6 -68
-155 4 c-134 4 -271 -1 -483 -18 -30 -3 -120 -7 -200 -10 -80 -2 -167 -6 -195
-8 -27 -3 -68 1 -89 9 -34 11 -43 11 -70 -4 -25 -12 -62 -16 -181 -16 -82 -1
-163 2 -180 6 -16 4 -33 7 -36 7 -16 2 -22 96 -25 376 -3 289 -17 699 -24 720
-2 6 0 27 4 48 10 44 10 44 154 22 123 -18 482 -18 602 1 109 18 309 29 345
20 l27 -7 -43 -39 c-23 -22 -46 -40 -51 -40 -4 0 -8 -7 -8 -15 0 -8 -7 -15
-16 -15 -9 0 -33 -19 -54 -42 -31 -35 -41 -41 -51 -30 -7 6 -21 12 -31 12 -10
0 -29 6 -41 14 -36 24 -220 86 -253 86 -42 0 -150 -37 -186 -63 -17 -12 -38
-39 -48 -60 -20 -40 -18 -55 15 -131 15 -36 15 -69 -2 -64 -13 4 -158 -145
-171 -175 -17 -40 -15 -84 6 -106 64 -71 82 -86 120 -103 27 -12 62 -19 90
-18 26 2 69 2 95 1 l48 -1 -6 -37 c-4 -21 -11 -51 -17 -67 -10 -25 -13 -74 -9
-163 1 -30 4 -33 34 -33 17 0 41 -7 51 -15 19 -14 48 -13 91 5 11 4 39 13 62
19 48 13 132 76 152 114 19 37 40 34 81 -11 53 -56 125 -100 186 -112 50 -11
58 -10 96 12 65 36 83 68 83 146 0 49 -6 78 -21 107 -33 63 -40 104 -17 111
107 34 139 71 152 172 11 91 1 139 -39 175 -30 26 -44 30 -140 31 -31 1 -35 4
-32 26 2 14 10 44 18 68 19 57 18 85 -6 134 -11 23 -20 46 -20 52 0 15 -42 56
-57 56 -7 0 -13 5 -13 11 0 8 16 10 47 6 26 -3 58 0 72 5 15 6 46 10 71 9 25
-1 74 7 110 17 79 23 159 24 161 2z m-1719 -29 c4 -3 10 -83 13 -176 4 -94 10
-206 15 -250 4 -44 9 -221 9 -393 1 -173 3 -317 5 -320 2 -4 0 -16 -4 -27 -7
-18 -17 -20 -86 -20 l-79 0 -13 50 c-7 30 -14 153 -18 305 -3 140 -9 278 -13
305 -5 28 -9 73 -10 100 -1 28 -13 103 -26 167 -46 222 -45 257 10 271 25 7
188 -3 197 -12z m4072 -13 c11 -21 16 -59 16 -114 0 -107 -6 -114 -108 -114
-85 0 -133 20 -153 64 -10 21 -6 30 27 75 21 28 41 51 45 51 9 0 85 35 119 55
34 20 36 19 54 -17z m-4378 -103 c6 -44 21 -134 32 -200 33 -194 42 -308 42
-515 0 -107 5 -223 10 -258 16 -99 12 -102 -123 -102 -123 -1 -205 -10 -312
-35 -125 -30 -198 -38 -320 -37 -218 3 -310 9 -340 21 -16 7 -82 14 -145 15
-63 2 -133 9 -155 16 l-40 12 -2 141 c-3 181 -11 342 -24 471 -17 178 -23 437
-10 485 l12 43 237 -6 c233 -6 379 -17 399 -29 6 -4 60 -3 119 2 124 10 138 7
124 -20 -6 -10 -16 -16 -24 -13 -9 3 -32 -18 -60 -55 -26 -34 -52 -61 -58 -61
-6 0 -25 11 -42 24 -47 35 -177 96 -207 96 -31 0 -85 -47 -119 -103 -22 -38
-22 -42 -12 -145 l12 -107 -26 -20 c-15 -11 -57 -49 -95 -85 -83 -78 -87 -99
-30 -157 60 -63 139 -109 226 -134 44 -12 82 -24 84 -25 6 -5 -31 -138 -46
-168 -11 -21 -12 -34 -4 -50 5 -11 11 -30 13 -40 5 -35 134 -64 161 -37 6 6
17 11 25 11 15 0 120 84 135 107 14 22 54 63 61 63 12 0 66 -57 66 -69 0 -17
42 -40 85 -46 37 -5 44 -2 87 37 44 40 48 48 58 109 8 54 7 75 -5 109 -20 57
-20 57 18 76 57 29 119 86 138 128 24 53 24 100 -1 151 -16 33 -32 47 -78 70
-31 15 -66 36 -78 47 -12 10 -34 20 -50 21 -38 3 -44 12 -44 74 0 70 -62 191
-110 214 l-32 15 119 17 c164 24 169 25 248 23 l70 -1 11 -80z m1585 -31 c24
-35 30 -53 26 -77 -18 -105 -28 -117 -99 -117 -44 0 -54 4 -96 44 l-46 44 43
48 c38 43 113 102 133 103 4 1 21 -20 39 -45z m2274 30 c52 -9 98 -29 115 -49
10 -13 9 -23 -12 -63 -23 -44 -27 -47 -75 -55 -42 -7 -57 -5 -78 9 -29 19 -65
82 -65 114 0 27 37 62 58 56 9 -3 35 -8 57 -12z m-4261 -87 c10 -23 23 -52 29
-64 5 -12 7 -41 3 -66 l-7 -44 -65 -2 c-58 -2 -71 2 -101 25 -32 24 -35 30
-29 62 9 56 81 121 146 131 3 0 13 -18 24 -42z m1417 18 c40 -9 80 -22 89 -29
21 -19 78 -36 95 -30 8 4 15 1 15 -5 0 -6 11 -11 25 -11 34 0 32 -10 -16 -70
l-42 -53 -71 7 c-39 4 -82 8 -96 10 -14 2 -54 0 -90 -4 -61 -7 -67 -5 -93 18
-29 27 -50 83 -40 108 7 20 103 68 145 73 4 1 39 -6 79 -14z m-1868 -17 c12
-6 29 -15 37 -19 8 -5 33 -18 56 -29 61 -31 94 -69 87 -103 -4 -19 -13 -29
-32 -33 -14 -4 -30 -9 -36 -12 -5 -4 -16 -7 -25 -8 -8 -2 -40 -7 -70 -13 -30
-5 -64 -11 -75 -13 -24 -4 -46 54 -48 125 -1 41 4 52 33 82 38 39 41 40 73 23z
m4953 -35 c17 -17 17 -18 -5 -21 -12 -2 -29 -1 -38 2 -12 5 -13 9 -3 21 16 19
25 19 46 -2z m-2747 -87 c10 -11 8 -16 -9 -21 -26 -8 -35 -1 -27 20 8 19 21
19 36 1z m3158 -42 c75 -56 87 -105 35 -136 -15 -9 -37 -26 -49 -37 -12 -11
-32 -23 -46 -26 -22 -6 -28 -1 -55 54 -33 66 -32 88 4 151 24 40 52 39 111 -6z
m-271 -40 l42 -60 -24 -69 c-14 -39 -30 -75 -37 -82 -11 -11 -58 -16 -117 -14
-33 1 -122 84 -151 140 -22 43 -22 44 -4 77 10 19 24 39 31 45 15 12 123 28
178 25 36 -1 43 -6 82 -62z m-431 1 c33 -32 31 -74 -4 -145 -30 -61 -29 -60
-118 -33 -58 17 -94 50 -98 88 -3 21 6 30 54 59 57 33 105 54 129 55 7 1 24
-10 37 -24z m-2356 -61 c24 -40 23 -45 -39 -176 l-32 -67 -67 -7 c-111 -12
-118 -11 -161 31 -22 22 -40 45 -40 52 0 7 16 36 36 65 20 28 42 65 49 82 13
30 17 32 112 47 54 8 103 13 110 11 7 -2 21 -19 32 -38z m273 31 c58 -7 68
-20 74 -89 4 -50 2 -57 -26 -89 -26 -30 -99 -67 -132 -67 -12 0 -37 43 -58
101 -25 68 -25 67 7 116 23 36 30 41 57 37 17 -2 52 -6 78 -9z m-675 -25 l60
-21 -19 -37 c-10 -20 -22 -37 -26 -36 -29 4 -52 22 -85 65 -37 48 -38 49 -15
49 13 0 51 -9 85 -20z m-152 -51 c39 -26 82 -63 96 -85 l26 -40 -19 -41 c-18
-38 -24 -43 -64 -49 -25 -3 -82 -4 -128 -2 -90 5 -134 23 -169 70 l-21 28 23
45 c12 25 26 45 30 45 5 0 30 17 57 39 54 42 74 52 89 42 6 -3 42 -27 80 -52z
m-1403 9 c22 -24 51 -66 65 -95 l25 -52 -24 -49 c-29 -62 -39 -68 -119 -77
-63 -6 -65 -6 -103 28 l-39 36 16 86 c10 47 25 103 33 125 16 38 18 40 61 40
40 0 50 -5 85 -42z m118 7 c0 -43 -10 -44 -33 -6 -22 38 -22 41 8 41 22 0 25
-4 25 -35z m173 15 c7 -11 34 -29 59 -40 39 -17 47 -26 56 -59 12 -48 -1 -63
-92 -110 -72 -38 -98 -39 -126 -3 -24 29 -23 69 1 182 11 50 11 50 49 50 27 0
43 -6 53 -20z m-509 -45 c-3 -22 -10 -44 -15 -49 -5 -6 -9 -23 -9 -38 0 -37
-16 -36 -68 4 -45 35 -72 82 -55 99 11 11 92 26 131 25 21 -1 22 -4 16 -41z
m4646 -55 c11 -21 20 -42 20 -45 0 -3 -16 -5 -35 -5 -42 0 -53 18 -35 60 16
40 26 38 50 -10z m-4830 -49 c13 -23 41 -52 62 -66 32 -21 58 -58 58 -80 0 -3
-11 -12 -24 -20 -22 -15 -31 -14 -105 4 -45 11 -96 31 -114 43 -18 13 -41 28
-51 34 -11 6 -24 17 -29 26 -14 21 23 72 65 89 18 7 44 21 58 32 24 18 25 18
40 -2 8 -11 26 -38 40 -60z m5248 12 c-5 -6 -15 -10 -23 -7 -10 4 -10 13 -2
41 l11 36 12 -29 c8 -19 9 -33 2 -41z m-2810 -18 c17 -37 15 -42 -19 -54 -45
-15 -52 -6 -29 40 24 46 33 48 48 14z m2917 -111 c28 -28 56 -61 62 -74 7 -14
18 -32 25 -41 20 -28 3 -49 -40 -49 -71 0 -242 105 -242 149 0 29 24 52 60 57
19 3 37 7 38 9 14 13 55 -9 97 -51z m-400 15 c31 -9 95 -69 95 -88 0 -23 -33
-77 -53 -87 -12 -6 -58 -30 -102 -52 -95 -49 -155 -62 -174 -38 -16 20 -2 84
34 156 23 46 23 47 4 63 -10 9 -19 28 -19 43 l0 26 93 -7 c50 -4 106 -11 122
-16z m-2544 -69 c19 1 45 7 59 15 37 21 47 18 53 -15 4 -16 15 -38 26 -49 35
-35 49 -73 40 -107 -12 -41 -36 -62 -84 -69 -31 -5 -44 -2 -60 13 -11 10 -35
21 -52 25 -18 4 -53 26 -80 51 -44 42 -46 46 -35 71 7 15 24 42 39 61 23 31
27 33 43 19 9 -8 32 -15 51 -15z m-181 -5 c0 -8 -6 -15 -14 -15 -7 0 -19 7
-26 15 -11 13 -8 15 14 15 16 0 26 -5 26 -15z m-102 -51 l43 -44 -25 -43 c-20
-33 -38 -48 -88 -71 -35 -15 -71 -32 -80 -37 -60 -31 -111 11 -82 66 13 24 12
31 0 50 -14 21 -13 28 6 74 l22 51 53 -1 c29 -1 56 1 60 5 13 13 49 -7 91 -50z
m-1510 9 c2 -13 7 -23 12 -23 17 0 30 -83 17 -113 -8 -18 -68 -47 -98 -47 -26
0 -99 68 -99 92 0 37 39 97 68 104 15 3 32 7 37 9 28 10 60 -1 63 -22z m-301
-60 c12 -8 24 -21 27 -29 7 -18 -46 -97 -81 -119 -16 -10 -39 -28 -53 -40 -48
-43 -124 -42 -140 1 -7 19 -1 43 28 111 33 77 42 89 68 94 40 9 125 -1 151
-18z m4501 -318 c7 -14 12 -35 12 -46 0 -12 7 -44 14 -72 15 -51 32 -198 41
-355 17 -258 40 -464 62 -543 8 -30 13 -64 11 -75 -4 -23 19 -22 -475 -27
-315 -3 -381 -1 -372 10 6 7 15 10 19 8 5 -3 26 2 48 10 28 12 48 30 73 70 19
30 37 55 41 55 4 0 16 -13 28 -30 32 -45 160 -110 160 -82 0 24 42 51 80 50
68 -1 89 35 69 119 -6 26 -17 83 -24 125 l-12 78 43 25 c24 14 44 31 44 37 0
7 11 23 24 37 69 75 56 244 -22 271 -15 6 -36 15 -46 21 -11 7 -48 14 -82 17
l-61 5 5 91 c4 78 2 94 -13 106 -22 18 -55 38 -77 46 -10 3 -18 11 -18 16 0 5
4 7 9 4 5 -3 53 1 107 10 55 8 137 20 184 25 47 5 90 12 95 14 19 7 22 5 33
-20z m952 10 c14 -4 41 -9 60 -10 19 -2 58 -7 85 -12 69 -11 372 -6 475 7 47
7 103 13 125 13 22 1 45 6 52 10 25 16 33 -30 27 -155 -8 -151 -9 -120 4 -268
7 -69 14 -181 17 -250 9 -227 16 -324 25 -370 5 -25 13 -71 18 -103 11 -70 7
-73 -94 -83 -38 -4 -76 -10 -85 -15 -9 -5 -45 -11 -80 -14 -35 -3 -107 -10
-159 -16 -113 -12 -498 -11 -521 2 -14 7 -323 23 -417 21 -21 0 -35 5 -41 17
-5 9 -9 134 -9 276 0 143 -3 319 -7 390 -4 72 -8 211 -9 310 -1 99 -6 196 -10
217 -7 30 -5 37 10 40 35 6 509 1 534 -7z m-1584 -37 c142 4 157 3 146 -11 -7
-8 -23 -18 -36 -21 -13 -3 -33 -21 -45 -38 -18 -28 -66 -92 -102 -135 -18 -23
-48 -14 -101 28 -74 58 -135 86 -194 88 -63 2 -133 -23 -135 -50 -8 -89 5
-137 51 -189 22 -25 40 -50 40 -57 0 -7 8 -16 17 -22 17 -9 16 -12 -6 -35 -14
-14 -33 -26 -44 -26 -33 0 -90 -33 -133 -77 -57 -58 -64 -81 -30 -109 14 -13
26 -29 26 -37 0 -23 83 -85 131 -98 24 -7 69 -11 100 -10 l56 2 -13 -98 c-7
-54 -21 -113 -30 -131 -17 -31 -17 -33 4 -62 l22 -30 -27 -6 c-16 -3 -44 -10
-63 -15 -53 -14 -201 -23 -252 -15 l-44 7 -14 137 c-15 151 -15 243 1 402 6
58 11 216 11 352 l1 248 111 -1 c61 -1 158 3 216 7 58 5 121 7 141 3 20 -3
108 -4 195 -1z m-5073 -43 c152 -4 287 -8 300 -10 12 -2 76 -6 142 -9 295 -15
340 -18 350 -24 5 -4 41 -9 79 -12 l69 -5 1 -516 c1 -431 -1 -519 -13 -533
-13 -16 -39 -17 -310 -12 -327 7 -463 14 -456 25 2 4 28 13 58 20 56 12 84 32
115 79 26 41 45 62 56 62 6 0 21 -11 35 -23 28 -26 104 -57 138 -57 11 0 26 7
33 15 7 8 31 23 54 33 70 32 74 46 50 168 -5 27 -2 32 24 43 130 54 163 257
58 354 -16 15 -35 27 -42 27 -7 0 -36 5 -63 11 l-50 11 6 73 c4 59 2 80 -10
99 -18 27 -70 56 -100 56 -13 0 -61 -39 -122 -100 -56 -55 -109 -100 -117
-100 -8 0 -33 12 -54 26 -88 60 -142 83 -224 94 -97 13 -116 5 -148 -62 -36
-77 -36 -83 3 -122 19 -19 35 -41 35 -48 0 -7 12 -22 27 -33 30 -24 24 -45
-12 -45 -13 0 -27 -4 -30 -10 -3 -5 -13 -10 -21 -10 -30 0 -96 -65 -121 -118
-28 -62 -24 -108 13 -143 13 -12 24 -20 24 -16 0 3 30 -10 66 -29 36 -19 73
-34 82 -34 14 -1 13 -4 -6 -20 -16 -14 -24 -30 -24 -57 -2 -68 2 -81 28 -113
19 -21 24 -34 16 -42 -5 -5 -59 -12 -118 -14 -60 -2 -137 -6 -171 -8 -35 -1
-63 0 -64 3 0 3 -3 15 -5 26 -11 40 -6 282 7 345 8 42 13 180 14 395 1 182 5
338 9 347 9 19 37 27 81 22 17 -2 155 -6 308 -9z m2292 -15 c45 -8 184 -6 260
4 28 3 56 3 62 -2 9 -6 16 -73 24 -218 6 -115 13 -243 16 -284 2 -41 4 -201 5
-355 1 -269 0 -280 -18 -277 -10 1 -55 7 -99 12 -107 14 -164 25 -199 39 -16
7 -79 14 -140 17 -122 6 -213 11 -236 13 -11 1 -9 6 8 20 12 11 22 24 22 30 0
6 5 11 10 11 6 0 10 6 10 14 0 8 13 27 28 43 16 15 37 43 47 61 11 17 25 32
31 32 22 0 54 -52 54 -86 0 -43 9 -64 26 -64 8 0 17 -7 21 -15 11 -31 55 -45
183 -60 35 -4 93 10 118 29 10 7 12 26 7 70 -6 62 -18 98 -62 193 -40 86 -40
112 -1 154 20 22 39 57 46 85 19 72 0 119 -63 161 -70 46 -73 51 -80 122 -8
90 -26 122 -82 148 -47 21 -47 21 -84 2 -21 -10 -44 -27 -51 -36 -13 -18 -29
-29 -80 -58 -25 -14 -31 -14 -68 1 -22 9 -40 20 -40 25 0 5 -7 9 -16 9 -18 0
-132 25 -209 46 -41 11 -52 11 -65 0 -8 -7 -20 -11 -27 -9 -18 6 -44 -63 -48
-126 -2 -43 3 -64 25 -110 l28 -56 -21 -12 c-12 -7 -29 -12 -38 -13 -8 0 -38
-22 -66 -50 -28 -27 -56 -50 -62 -50 -15 0 -14 -77 2 -90 47 -39 139 -90 163
-90 26 0 81 -12 123 -26 10 -3 7 -10 -10 -27 -38 -36 -80 -132 -98 -223 -14
-73 -19 -85 -41 -93 -38 -15 -216 -49 -293 -56 -64 -6 -69 -5 -64 12 8 27 16
88 22 172 4 41 8 77 10 81 2 3 11 60 19 127 19 141 22 397 7 465 -6 26 -14 84
-17 130 -8 98 0 111 68 122 24 4 63 14 88 23 80 27 717 38 845 13z m-3600 -9
c50 -6 241 -13 426 -16 298 -6 337 -5 348 9 8 9 26 16 41 16 l28 0 -3 -302
c-1 -167 -8 -350 -15 -408 -7 -58 -13 -161 -14 -229 l-1 -125 -29 -7 c-15 -4
-74 -10 -129 -13 -406 -23 -552 -26 -552 -11 1 6 24 18 53 29 38 14 63 32 93
67 23 27 46 49 52 49 15 0 57 -41 57 -56 0 -7 17 -25 37 -39 29 -19 50 -25 91
-25 48 0 57 3 88 37 19 20 37 47 40 59 3 13 -6 59 -21 105 -26 82 -27 109 -3
109 7 0 31 15 52 34 38 31 40 36 44 100 7 109 -40 194 -116 212 -33 8 -54 23
-46 35 9 15 -14 237 -28 258 -27 44 -49 45 -124 6 -86 -46 -98 -56 -123 -111
-18 -38 -25 -44 -53 -44 -30 0 -82 34 -148 98 -42 41 -117 72 -183 78 -58 5
-63 4 -81 -21 -17 -25 -17 -32 -5 -102 13 -76 59 -166 94 -186 22 -12 9 -27
-25 -27 -47 0 -167 -68 -211 -121 -34 -41 -38 -50 -30 -72 12 -31 33 -43 88
-50 22 -2 74 -21 115 -41 41 -20 80 -36 87 -36 9 0 11 -6 6 -18 -60 -143 -95
-265 -82 -287 6 -12 6 -20 -2 -24 -9 -6 -332 -3 -337 2 -2 2 9 125 28 307 15
142 17 554 4 677 -8 75 -7 81 10 85 49 9 399 8 479 -1z m6606 -42 c25 -10 26
-13 18 -47 -5 -20 -9 -53 -9 -73 0 -42 -16 -59 -80 -82 -66 -24 -93 -22 -117
11 -25 33 -24 35 55 140 58 79 60 80 133 51z m-471 -68 c14 -8 45 -30 70 -50
25 -20 54 -41 65 -47 27 -15 30 -40 9 -79 -19 -36 -67 -55 -135 -55 -32 0 -89
41 -89 63 0 5 -11 18 -24 28 -44 34 -75 113 -61 151 7 17 128 9 165 -11z
m-5671 -40 c10 -7 12 -21 7 -55 -5 -29 -4 -46 3 -46 6 0 8 -7 4 -16 -3 -10 -7
-38 -7 -63 l-1 -46 -60 -16 c-68 -18 -110 -11 -137 22 -25 30 -23 45 19 110
26 40 50 64 76 75 20 9 42 23 48 31 13 15 28 16 48 4z m3141 -85 c0 -43 -4
-65 -13 -69 -19 -7 -128 3 -149 14 -25 14 -23 24 15 64 44 47 105 77 129 64
15 -8 18 -22 18 -73z m-3564 -3 c26 -21 61 -52 80 -69 l33 -30 -18 -34 c-14
-26 -25 -35 -47 -36 -16 -1 -47 -7 -69 -13 -39 -11 -41 -11 -73 26 -80 90
-134 214 -100 225 31 11 150 -32 194 -69z m3029 53 c16 -8 41 -12 60 -9 24 4
38 0 52 -13 10 -11 42 -30 70 -44 32 -15 52 -32 53 -42 0 -16 -53 -62 -62 -53
-2 2 -24 -2 -48 -9 -25 -7 -71 -16 -102 -20 l-57 -7 -30 61 c-33 65 -34 113
-3 138 20 16 33 15 67 -2z m-1207 -18 c7 -7 12 -34 12 -60 0 -57 -7 -61 -112
-72 -70 -8 -81 -2 -50 26 9 9 42 39 72 67 61 56 61 56 78 39z m-528 -58 c70
-10 161 -53 185 -87 13 -19 12 -23 -9 -44 -14 -15 -52 -31 -95 -42 -87 -23
-111 -16 -162 46 -50 60 -51 63 -35 102 17 39 19 39 116 25z m5491 -28 c41
-16 57 -57 44 -112 -5 -25 -14 -52 -20 -60 -13 -20 -91 -70 -109 -70 -14 0
-116 94 -116 107 0 27 36 130 49 141 18 14 111 11 152 -6z m-330 -105 c59 -54
61 -110 4 -73 -13 9 -35 16 -48 16 -12 0 -28 5 -34 11 -13 13 -57 -6 -48 -21
3 -5 0 -28 -6 -50 -12 -39 -11 -42 16 -70 30 -32 54 -37 87 -19 23 12 31 8 23
-12 -3 -8 -21 -19 -39 -25 -27 -8 -40 -7 -63 5 -116 66 -122 78 -92 170 27 81
32 89 72 94 80 10 92 7 128 -26z m-3022 -48 c35 -35 38 -51 14 -105 -16 -37
-17 -38 -23 -14 -7 29 -63 70 -96 70 -32 0 -54 -26 -54 -66 0 -29 5 -36 36
-49 20 -8 52 -15 71 -15 31 0 34 -2 23 -15 -32 -39 -180 16 -180 68 0 22 36
107 52 123 16 16 64 31 105 33 12 1 35 -13 52 -30z m238 11 c35 -21 53 -48 49
-73 -3 -21 -36 -57 -52 -57 -7 0 -14 -6 -17 -12 -6 -21 -30 5 -57 62 -19 41
-21 54 -12 75 14 31 45 33 89 5z m2508 10 c9 -15 -3 -30 -20 -24 -23 9 -27 34
-5 34 10 0 22 -4 25 -10z m-4204 -15 c59 -26 69 -38 69 -89 0 -42 -5 -51 -48
-96 -47 -49 -66 -58 -87 -42 -19 13 -95 136 -95 154 0 9 10 32 23 52 19 31 27
35 63 36 23 0 57 -7 75 -15z m4123 -47 l47 -52 -13 -44 c-7 -25 -22 -50 -33
-57 -25 -16 -151 -20 -160 -5 -3 5 -14 10 -23 10 -22 0 -92 64 -92 84 0 24 61
64 136 90 38 14 74 25 80 25 6 1 32 -22 58 -51z m-4446 3 c44 -38 50 -81 23
-165 -11 -36 -21 -72 -21 -80 0 -8 -13 -17 -30 -21 -26 -6 -38 0 -100 57 -46
41 -70 71 -70 85 0 27 103 140 133 146 12 2 24 5 27 5 3 1 20 -11 38 -27z
m1522 15 c0 -47 -31 -60 -68 -27 -29 25 -28 29 11 34 17 2 38 5 45 5 6 1 12
-4 12 -12z m-2695 -7 c4 -6 21 -9 39 -8 37 4 56 -6 56 -29 0 -10 9 -23 20 -30
33 -20 27 -83 -11 -127 -17 -19 -40 -35 -52 -35 -19 0 -18 3 11 33 28 29 41
57 27 57 -3 0 -32 -11 -65 -25 -33 -14 -61 -25 -64 -25 -2 0 -14 15 -25 33
-23 38 -20 58 18 125 25 43 35 50 46 31z m-203 -62 c41 -45 50 -94 23 -117 -8
-7 -15 -18 -15 -25 0 -7 -7 -18 -15 -25 -21 -17 -117 -1 -123 20 -4 12 -2 13
9 3 7 -7 27 -13 45 -13 36 0 49 12 57 54 6 37 -11 76 -34 76 -39 0 -69 -23
-81 -62 -6 -21 -15 -38 -20 -38 -16 0 -78 63 -78 79 1 25 57 81 82 81 13 0 30
4 38 9 27 18 74 0 112 -42z m2728 28 c7 -8 18 -15 25 -15 19 0 75 -67 75 -89
0 -34 -22 -42 -81 -30 -30 6 -75 14 -100 18 -51 8 -99 34 -99 55 0 14 64 61
96 69 39 10 72 7 84 -8z m-3099 -21 c11 -10 19 -25 19 -34 0 -9 5 -21 11 -27
9 -9 6 -20 -10 -46 -20 -33 -22 -34 -64 -26 -23 4 -60 15 -82 25 -22 9 -61 23
-87 31 -27 7 -48 18 -48 23 0 14 58 51 103 66 52 17 133 10 158 -12z m6684
-10 c13 -5 11 -9 -11 -20 -37 -19 -47 -17 -34 6 11 21 19 24 45 14z m-5269
-49 l33 -35 -41 -68 c-23 -37 -46 -70 -52 -74 -34 -23 -138 2 -178 43 l-29 29
21 38 c25 44 62 69 129 87 70 20 81 18 117 -20z m2238 -40 c-6 -15 -50 -32
-60 -22 -3 2 3 20 13 40 17 34 19 34 35 17 10 -11 15 -26 12 -35z m-1736 -27
c18 -23 32 -44 32 -48 0 -9 -103 -39 -113 -33 -15 9 23 123 40 123 5 0 23 -19
41 -42z m-1778 -39 c0 -23 -24 -30 -45 -15 -12 8 -15 19 -11 33 6 18 10 19 31
9 14 -6 25 -18 25 -27z m6630 12 c5 -11 10 -32 10 -48 0 -15 7 -46 16 -70 26
-67 18 -75 -76 -69 -90 6 -110 13 -130 51 -12 23 -11 30 6 66 17 36 28 44 84
64 81 29 77 29 90 6z m-5230 -32 c34 -29 34 -31 16 -45 -22 -15 -106 -20 -106
-5 0 12 43 80 50 80 3 0 21 -13 40 -30z m2200 -24 c0 -12 9 -30 20 -40 11 -10
20 -23 20 -29 1 -6 9 -29 20 -51 24 -50 25 -91 3 -103 -45 -26 -164 27 -193
85 -8 15 -24 37 -36 48 -23 22 -48 64 -41 71 10 10 144 41 175 41 26 -1 32 -5
32 -22z m2721 -21 l31 -31 -27 -56 c-16 -31 -37 -65 -49 -75 -23 -21 -88 -42
-155 -49 -38 -5 -42 -3 -38 13 4 11 9 57 12 104 4 71 7 97 14 128 1 2 41 2 91
0 85 -3 91 -5 121 -34z m-5918 -32 c15 -15 27 -35 27 -43 0 -8 7 -24 15 -35 8
-10 15 -38 15 -60 0 -37 -3 -43 -29 -54 -39 -16 -86 -5 -105 25 -9 13 -29 31
-45 41 -16 9 -34 28 -40 41 -10 21 -7 29 13 56 23 30 71 54 107 56 8 1 27 -12
42 -27z m2845 1 c7 -46 -97 -193 -135 -193 -13 0 -41 -9 -63 -20 -52 -27 -60
-25 -60 11 0 27 67 185 93 217 7 9 33 12 86 10 70 -3 76 -5 79 -25z m-3226 -8
c56 6 58 5 87 -27 18 -19 31 -44 31 -60 0 -38 -53 -95 -99 -108 -21 -5 -48
-21 -61 -35 -13 -14 -29 -25 -35 -25 -7 0 -24 -9 -39 -21 -16 -13 -33 -18 -45
-14 -30 9 -39 105 -17 167 9 27 14 58 10 73 -4 16 0 34 10 50 16 24 17 24 58
9 30 -11 60 -14 100 -9z m1844 -17 c6 -13 9 -30 7 -40 -5 -19 -47 -38 -88 -39
-100 -2 -148 54 -57 67 26 3 58 13 72 20 36 19 56 17 66 -8z m-319 -32 c3 -3
-2 -12 -11 -21 -9 -9 -16 -22 -16 -29 0 -28 -61 -70 -127 -88 -121 -33 -164
-41 -173 -32 -14 16 8 115 31 140 18 20 33 24 78 25 31 0 74 4 96 9 40 9 112
7 122 -4z"/>
<path d="M7196 9805 c-40 -24 -96 -82 -96 -100 0 -13 -36 -45 -51 -45 -5 0
-36 25 -67 55 -87 84 -126 99 -253 100 -115 0 -128 -5 -155 -57 -14 -27 -13
-36 11 -111 15 -45 33 -93 40 -107 25 -43 54 -108 57 -127 2 -11 -4 -19 -17
-21 -48 -10 -245 -111 -245 -126 0 -9 -6 -16 -14 -16 -32 0 -32 -67 1 -116 8
-13 76 -58 149 -100 l135 -75 -22 -37 c-13 -20 -33 -49 -45 -64 -45 -55 -80
-239 -59 -308 8 -27 47 -43 102 -41 30 0 64 6 76 13 12 7 27 11 33 10 6 -1 33
6 62 15 39 14 72 38 141 106 50 48 91 94 91 102 0 9 10 15 24 15 25 0 75 -43
109 -93 21 -32 98 -57 174 -57 44 0 58 5 79 25 14 14 30 25 37 25 7 0 25 13
40 29 25 27 27 35 23 88 -3 32 -11 84 -19 115 l-15 56 27 7 c106 26 170 90
169 168 -1 36 -7 52 -29 74 -99 101 -162 155 -212 179 l-58 29 7 116 c6 98 4
123 -11 163 -19 51 -78 105 -134 124 -41 15 -37 15 -85 -13z m-392 -89 c63
-14 75 -20 128 -73 32 -31 58 -61 58 -65 0 -4 -14 -30 -30 -57 -23 -37 -43
-55 -83 -74 -93 -44 -91 -45 -122 20 -15 32 -36 76 -48 98 -11 22 -26 63 -33
90 -12 45 -12 51 3 63 22 16 43 15 127 -2z m494 -2 c41 -29 55 -71 54 -168 -1
-49 -3 -91 -6 -93 -9 -10 -162 37 -171 53 -5 9 -21 30 -34 46 -32 39 -23 67
42 129 54 52 78 59 115 33z m-150 -326 c12 -13 42 -52 65 -88 42 -62 43 -67
33 -105 -6 -22 -17 -50 -23 -62 -7 -12 -13 -27 -13 -32 0 -6 -10 -26 -22 -45
-18 -27 -32 -35 -72 -44 -28 -5 -60 -13 -71 -17 -17 -5 -32 8 -83 75 -34 44
-64 90 -67 103 -6 25 9 70 48 142 42 80 42 80 109 86 35 3 65 7 68 7 3 1 16
-8 28 -20z m164 -50 c-6 -24 -17 -23 -36 4 -11 16 -13 24 -4 29 18 11 46 -12
40 -33z m156 -32 c15 -8 43 -31 62 -53 19 -21 52 -52 73 -67 50 -38 49 -79 -2
-113 -53 -36 -97 -40 -128 -12 -32 31 -85 113 -101 161 -12 33 -11 42 5 68 19
34 48 39 91 16z m-727 -28 c4 -15 17 -40 28 -57 22 -31 20 -50 -8 -83 -9 -10
-21 -33 -27 -51 -6 -18 -18 -31 -25 -30 -25 3 -83 28 -134 57 -86 50 -94 55
-105 75 -8 16 -4 22 26 40 19 12 42 21 51 21 9 0 25 8 35 17 27 25 77 41 117
40 29 -2 36 -7 42 -29z m599 -188 c0 -22 -28 -60 -46 -60 -18 0 -18 30 1 57 9
12 15 26 14 30 -1 4 -1 13 0 18 2 15 31 -26 31 -45z m-477 -29 c24 -41 22 -47
-18 -47 -35 0 -35 1 -29 31 12 55 22 59 47 16z m536 -117 c25 -5 36 -17 56
-56 14 -27 26 -68 27 -91 3 -40 2 -42 -47 -69 -60 -33 -93 -30 -138 12 -18 17
-36 30 -41 30 -6 0 -61 39 -99 70 -10 9 15 57 39 75 11 8 39 15 64 15 25 1 54
5 65 10 25 11 35 11 74 4z m-461 -30 c64 -9 110 -82 66 -107 -8 -4 -14 -13
-14 -18 0 -6 -15 -25 -33 -42 -17 -18 -51 -53 -74 -79 -42 -46 -44 -48 -125
-58 -45 -5 -83 -10 -84 -10 -1 0 -5 7 -8 16 -7 19 10 99 30 136 8 15 14 30 13
35 -1 4 11 37 28 73 l30 65 64 -3 c35 -1 83 -5 107 -8z"/>
<path d="M7095 9289 c-4 -5 -19 -9 -33 -7 -53 6 -46 -87 10 -126 50 -35 118
-1 118 58 0 48 -76 107 -95 75z"/>
<path d="M8214 8328 c-38 -23 -81 -64 -112 -107 -18 -24 -33 -37 -37 -31 -21
34 -201 110 -259 110 -38 0 -83 -23 -104 -54 -40 -60 -47 -171 -14 -233 19
-34 15 -43 -24 -59 -90 -38 -124 -88 -124 -183 0 -38 5 -49 38 -80 47 -45 112
-79 163 -87 44 -7 44 -9 25 -61 -17 -47 -44 -141 -48 -169 -4 -31 49 -122 82
-139 22 -11 35 -12 57 -4 15 5 30 14 33 18 3 4 25 19 50 33 46 27 170 143 170
159 0 19 20 8 55 -29 19 -21 48 -45 63 -53 15 -8 34 -20 41 -28 11 -10 32 -12
79 -8 136 13 165 44 164 173 -1 43 -4 90 -7 104 -4 18 -1 31 10 40 8 7 15 18
15 25 0 7 13 18 29 25 52 21 85 68 85 120 -1 57 -38 144 -71 166 -28 18 -27
17 -95 28 -60 10 -88 29 -70 47 17 18 15 95 -4 158 -22 75 -68 122 -124 127
-26 3 -54 -1 -66 -8z m96 -98 c12 -12 21 -35 21 -57 2 -55 -2 -137 -7 -143 -9
-8 -77 1 -103 15 -14 7 -39 27 -54 43 l-28 30 20 38 c23 43 84 94 113 94 10 0
27 -9 38 -20z m-400 -50 c10 -6 28 -10 39 -10 12 0 29 -8 40 -19 10 -10 25
-21 32 -23 12 -4 12 -12 1 -54 -7 -26 -14 -49 -15 -50 -1 -1 -50 -4 -108 -8
-126 -7 -137 -1 -146 88 -5 46 -3 60 13 77 16 18 26 20 73 15 29 -4 61 -11 71
-16z m313 -224 c9 -7 17 -17 17 -21 0 -5 7 -16 15 -25 14 -15 13 -21 -4 -56
-10 -21 -34 -72 -52 -111 -34 -73 -49 -83 -85 -61 -6 4 -21 6 -32 3 -29 -5
-71 32 -100 87 l-23 45 30 32 c17 18 31 39 31 47 0 24 43 54 79 55 20 1 47 5
61 9 36 11 43 11 63 -4z m227 -33 c10 3 36 -1 56 -8 32 -11 40 -19 51 -56 22
-77 18 -92 -30 -116 -24 -12 -48 -18 -54 -15 -6 4 -27 39 -48 77 -20 39 -41
74 -46 80 -26 27 8 65 38 42 7 -5 22 -7 33 -4z m-526 -2 c3 -4 -1 -17 -8 -27
-14 -18 -15 -18 -35 0 -11 10 -19 22 -17 25 7 10 54 12 60 2z m-114 -76 c34
-34 51 -58 44 -63 -6 -4 -17 -25 -26 -47 -15 -37 -19 -40 -59 -43 -55 -4 -135
42 -145 83 -8 32 17 69 61 92 17 9 37 20 45 24 23 12 22 12 80 -46z m536 -62
c4 -10 8 -39 8 -64 l1 -47 -50 -5 c-27 -3 -51 -4 -53 -2 -1 1 9 23 24 48 14
26 22 47 18 47 -4 0 1 9 11 20 22 25 31 25 41 3z m-298 -226 c7 -15 11 -35 8
-45 -8 -24 -86 -104 -141 -143 -25 -18 -45 -36 -45 -41 0 -4 -10 -8 -21 -8
-20 0 -21 4 -14 47 4 26 17 62 30 81 l23 34 -26 24 c-19 19 -23 27 -14 36 7 7
12 20 12 31 0 16 8 18 87 15 85 -3 88 -4 101 -31z m371 20 c12 -15 16 -56 13
-118 -2 -33 -5 -37 -34 -41 -63 -10 -218 68 -218 108 0 6 21 23 47 37 56 29
172 37 192 14z"/>
<path d="M8081 7872 c-19 -35 -13 -71 15 -97 50 -47 104 -24 104 43 0 51 -9
61 -62 68 -40 6 -47 4 -57 -14z"/>
<path d="M4876 6829 c-10 -6 -29 -36 -43 -66 -31 -71 -29 -147 4 -217 13 -27
22 -50 20 -52 -1 -2 -16 -9 -32 -16 -78 -35 -133 -79 -149 -120 -16 -39 -16
-43 6 -97 12 -31 29 -66 36 -78 21 -33 89 -61 165 -67 81 -6 91 -11 77 -36 -5
-10 -10 -32 -10 -47 0 -16 -4 -33 -8 -38 -10 -11 -32 -129 -32 -168 0 -16 11
-35 32 -52 27 -23 39 -26 76 -22 28 3 57 15 80 34 33 26 129 142 151 181 15
26 69 4 132 -54 32 -29 69 -56 82 -59 30 -8 138 42 183 84 37 34 60 92 46 118
-5 10 -14 39 -20 64 -7 26 -14 54 -18 63 -4 12 0 16 15 16 65 0 129 75 132
155 3 91 -43 159 -135 200 -54 24 -55 25 -66 82 -16 76 -40 144 -58 165 -8 10
-31 22 -51 28 -42 11 -50 7 -136 -73 -56 -54 -61 -56 -82 -42 -12 8 -30 15
-38 15 -9 0 -23 6 -31 14 -8 8 -40 20 -71 27 -32 6 -69 20 -82 30 -13 11 -32
19 -42 19 -10 0 -21 5 -24 10 -8 13 -85 12 -109 -1z m131 -88 c88 -44 131 -61
155 -61 40 0 71 -30 63 -61 -8 -32 -43 -52 -120 -69 -33 -7 -79 -19 -102 -27
-23 -8 -46 -12 -52 -8 -6 3 -23 28 -36 55 -34 66 -33 126 0 163 31 32 41 33
92 8z m502 -66 c30 -84 29 -85 -31 -85 -40 1 -60 6 -82 24 -27 23 -28 25 -15
56 14 32 88 85 101 72 3 -4 16 -34 27 -67z m-95 -216 c32 -37 32 -52 4 -92
l-23 -32 -5 40 c-4 32 -11 43 -34 54 -37 17 -75 5 -95 -30 -12 -22 -13 -31 -1
-58 10 -25 22 -34 55 -43 60 -16 48 -34 -35 -52 -83 -19 -122 -20 -138 -4 -17
17 -15 63 3 78 8 7 15 18 15 25 0 7 7 19 16 26 9 7 20 22 25 34 9 19 24 44 42
73 5 7 33 12 77 12 64 0 70 -2 94 -31z m237 20 c28 -15 79 -88 79 -114 0 -45
-86 -99 -117 -74 -18 16 -63 117 -63 144 0 42 57 68 101 44z m-526 -28 c2 -4
-11 -29 -30 -56 l-35 -48 -35 38 -36 37 30 22 c21 16 40 21 65 18 20 -2 38 -7
41 -11z m-205 -70 c0 -6 23 -38 51 -71 45 -55 50 -64 37 -77 -23 -23 -149 -39
-186 -24 -48 20 -95 151 -54 151 9 1 28 7 42 15 28 16 110 20 110 6z m590 -83
c0 -14 -30 -48 -42 -48 -4 0 -8 7 -8 15 0 8 5 15 10 15 6 0 10 7 10 15 0 8 7
15 15 15 8 0 15 -5 15 -12z m85 -205 c29 -98 -15 -147 -94 -107 -20 10 -46 17
-59 16 -23 -3 -112 46 -112 61 0 15 28 62 49 81 17 16 31 18 78 13 32 -3 67
-2 78 3 28 11 42 -4 60 -67z m-433 0 c21 -20 38 -42 38 -49 0 -6 -17 -31 -38
-55 -20 -24 -50 -63 -66 -86 -16 -24 -32 -43 -37 -43 -4 0 -14 -3 -23 -6 -12
-4 -16 0 -16 15 0 12 -5 29 -11 39 -8 13 -7 33 5 81 9 34 16 71 16 80 0 23 28
48 60 54 14 2 27 5 30 6 2 0 21 -16 42 -36z"/>
<path d="M6424 5511 c-32 -21 -81 -62 -109 -90 -27 -28 -54 -51 -60 -51 -6 0
-35 12 -65 28 -73 37 -155 69 -212 83 -56 13 -86 0 -118 -53 -30 -49 -33 -92
-12 -140 41 -91 37 -100 -56 -127 -51 -14 -127 -81 -146 -126 -8 -18 -11 -46
-7 -66 16 -88 86 -141 212 -159 143 -20 139 -19 139 -43 0 -12 -9 -51 -20 -85
-24 -77 -27 -160 -5 -168 8 -3 23 -21 34 -39 16 -27 26 -33 62 -37 62 -7 95
12 241 135 l57 48 28 -36 c48 -62 177 -111 204 -78 6 7 22 13 36 13 25 0 53
20 53 38 0 6 16 24 36 41 33 29 35 35 29 71 -4 22 -15 62 -25 90 -21 57 -22
56 70 99 49 22 70 38 84 65 11 20 23 36 28 36 5 0 8 23 6 51 -3 44 -7 53 -28
63 -14 5 -39 21 -56 33 -19 14 -45 23 -67 23 -20 0 -55 10 -77 21 l-41 22 6
111 6 112 -32 44 c-44 61 -97 110 -118 110 -10 0 -44 -17 -77 -39z m120 -90
c14 -15 20 -40 23 -93 5 -98 1 -104 -71 -83 -32 9 -68 14 -81 11 -17 -4 -32 1
-52 18 -25 22 -26 26 -15 51 13 28 27 41 101 99 48 37 59 36 95 -3z m-497 -48
c28 -12 55 -23 60 -23 21 0 93 -36 93 -47 0 -7 -7 -28 -16 -46 -16 -33 -21
-35 -90 -47 -66 -11 -76 -11 -99 4 -30 20 -75 108 -75 147 0 54 29 57 127 12z
m463 -218 c29 -15 38 -34 23 -48 -7 -8 -63 41 -63 55 0 11 7 10 40 -7z m-113
-40 c19 -22 46 -53 60 -69 27 -30 26 -65 -3 -93 -8 -8 -21 -28 -30 -45 l-16
-30 -80 7 c-94 7 -118 17 -148 57 -22 29 -22 30 -4 94 9 35 23 69 30 75 8 6
14 17 14 24 0 18 10 20 81 20 58 0 62 -2 96 -40z m-472 -9 c18 -8 42 -27 51
-43 10 -15 31 -44 47 -64 27 -35 28 -39 16 -79 l-13 -43 -85 7 c-152 12 -215
42 -213 104 1 37 33 69 106 107 59 30 49 28 91 11z m179 -8 c-9 -31 -11 -33
-29 -18 -23 20 -18 40 11 40 22 0 24 -3 18 -22z m563 -22 c21 -8 55 -17 76
-21 47 -8 101 -54 88 -74 -8 -12 -13 -12 -24 -3 -12 10 -26 4 -74 -28 -33 -22
-66 -40 -73 -40 -15 0 -33 22 -60 72 -26 48 -25 66 3 89 27 22 19 22 64 5z
m-506 -277 c21 -7 57 -32 84 -59 l47 -47 -58 -62 c-56 -60 -116 -101 -150
-101 -17 0 -17 6 6 105 7 28 18 57 26 66 8 8 14 21 14 27 0 15 -26 16 -35 2
-10 -17 -25 -1 -25 27 0 24 23 52 44 53 5 0 26 -5 47 -11z m457 -11 c11 -14
52 -134 52 -154 0 -7 -21 -20 -46 -30 -39 -15 -51 -16 -78 -5 -17 7 -45 17
-63 22 -30 9 -73 61 -73 88 0 11 38 70 52 81 15 12 145 10 156 -2z"/>
<path d="M6299 5067 c-22 -15 -36 -34 -41 -57 -11 -50 6 -77 53 -85 48 -8 56
-3 69 44 23 88 -20 139 -81 98z"/>
<path d="M5336 3775 c-36 -55 -37 -71 -6 -100 25 -24 35 -27 66 -22 46 8 51
13 59 57 14 75 -79 126 -119 65z"/>
<path d="M3081 2963 c-20 -8 -44 -34 -71 -78 -13 -22 -32 -48 -41 -59 -16 -17
-20 -17 -50 -2 -18 9 -38 16 -45 16 -7 0 -14 3 -16 8 -8 19 -140 72 -205 82
-81 13 -99 6 -140 -56 -18 -27 -21 -45 -18 -103 1 -39 8 -77 14 -84 15 -19 4
-27 -35 -27 -36 0 -64 -27 -110 -106 -22 -37 -25 -51 -19 -86 8 -46 44 -116
73 -140 23 -20 92 -43 187 -64 44 -9 82 -18 83 -19 2 -2 -6 -25 -18 -52 -57
-128 -63 -183 -20 -183 8 0 21 -9 28 -20 14 -23 39 -26 61 -6 21 19 155 56
202 56 38 0 61 19 95 78 10 17 26 32 36 32 20 0 42 -35 34 -55 -7 -20 18 -36
81 -51 47 -11 60 -11 82 1 53 27 69 99 46 210 -18 86 -12 105 34 105 22 0 32
8 49 44 12 24 26 67 32 96 20 104 -18 161 -116 176 l-41 6 -6 91 c-6 107 -31
183 -61 191 -26 7 -106 6 -125 -1z m127 -120 c17 -59 16 -97 0 -134 -12 -27
-17 -29 -63 -28 -69 1 -95 10 -118 41 -26 35 -18 64 36 121 39 42 48 47 88 47
l44 0 13 -47z m-510 12 c40 -14 74 -31 150 -75 15 -9 37 -21 50 -28 18 -11 20
-16 11 -33 -20 -39 -69 -60 -126 -53 -28 3 -54 1 -57 -4 -5 -9 -71 -7 -121 3
-25 5 -51 47 -60 96 -5 29 -2 44 17 73 19 30 29 36 58 36 19 0 55 -7 78 -15z
m-137 -282 c27 -14 49 -32 49 -39 0 -12 29 -50 87 -111 21 -22 31 -42 29 -56
-2 -19 -12 -23 -62 -29 -34 -4 -74 -2 -94 4 -93 28 -123 42 -151 71 -24 26
-29 38 -25 64 5 36 59 110 85 116 29 8 33 7 82 -20z m288 11 c2 -2 -3 -12 -12
-22 -10 -10 -17 -23 -17 -28 -1 -5 -11 -22 -24 -37 -28 -35 -59 -30 -98 17
-39 46 -40 68 -3 73 16 2 32 6 34 9 5 4 113 -7 120 -12z m219 -17 c18 -18 30
-36 26 -39 -3 -4 6 -14 20 -23 35 -23 33 -44 -8 -88 -32 -35 -66 -49 -66 -27
0 6 4 10 10 10 5 0 14 18 20 41 14 52 3 66 -58 75 -42 6 -48 5 -72 -23 -22
-24 -27 -39 -25 -72 3 -45 -5 -50 -50 -29 -32 14 -32 24 5 105 43 94 53 103
115 103 45 0 55 -4 83 -33z m316 1 c13 -22 -26 -108 -49 -108 -8 0 -24 -9 -35
-20 -11 -11 -24 -20 -29 -20 -15 0 -61 52 -61 71 0 28 19 73 38 87 25 19 122
12 136 -10z m-141 -276 c15 -15 27 -39 27 -53 0 -14 5 -30 11 -36 14 -14 -5
-68 -25 -76 -20 -8 -88 32 -123 73 l-32 37 18 34 c17 31 41 45 82 48 8 1 27
-12 42 -27z m-279 -53 c26 -17 45 -34 44 -38 -32 -64 -49 -79 -111 -90 -34 -7
-72 -17 -85 -22 -51 -20 -70 4 -37 47 18 24 19 54 3 54 -22 0 -36 -14 -48 -44
-18 -49 -22 -21 -5 37 18 63 28 73 70 80 86 12 121 7 169 -24z"/>
<path d="M9164 2723 c-12 -2 -34 -17 -49 -33 -50 -52 -19 -101 74 -116 20 -4
49 13 61 35 12 23 -8 78 -39 104 -12 9 -22 16 -24 16 -1 -1 -12 -4 -23 -6z"/>
<path d="M6360 2613 c-23 -8 -90 -85 -90 -105 0 -23 17 -32 68 -35 34 -3 47 2
67 21 31 31 33 78 5 106 -21 21 -25 22 -50 13z"/>
<path d="M4458 2527 c-41 -36 -49 -54 -36 -79 20 -40 128 -2 128 45 0 27 -26
67 -43 67 -7 0 -28 -15 -49 -33z"/>
<path d="M10240 1810 c-25 -9 -56 -22 -70 -28 -34 -14 -90 -69 -90 -88 0 -26
-16 -20 -123 39 -26 15 -55 27 -64 27 -9 0 -39 11 -67 24 -28 13 -72 27 -97
30 -41 6 -50 4 -71 -16 -19 -18 -25 -35 -26 -77 -1 -31 3 -63 11 -75 19 -30
38 -96 40 -136 2 -33 -1 -36 -51 -60 -56 -27 -112 -74 -112 -95 0 -7 -7 -19
-16 -26 -13 -10 -15 -29 -12 -95 3 -72 7 -87 33 -125 49 -69 75 -83 163 -87
94 -4 110 -8 94 -24 -7 -7 -12 -18 -12 -26 0 -8 -6 -28 -14 -45 -32 -74 -38
-98 -32 -131 9 -47 30 -63 61 -46 17 9 31 10 46 3 26 -11 113 9 139 32 9 8 21
15 27 15 13 0 88 71 96 90 4 11 16 3 46 -30 79 -89 113 -120 129 -120 9 0 30
-7 46 -15 34 -18 75 -19 126 -4 32 10 41 20 63 68 38 84 50 136 38 174 -5 18
-18 58 -28 90 l-18 59 28 23 c15 13 27 28 27 33 0 5 12 31 27 57 20 37 26 61
26 106 -1 113 -57 217 -112 206 -14 -3 -38 -3 -53 0 -28 5 -28 6 -28 92 -1 96
-12 157 -33 178 -20 21 -86 22 -137 3z m-472 -74 c15 -8 53 -19 84 -25 32 -6
66 -19 77 -30 11 -11 36 -27 56 -35 35 -15 35 -15 22 -48 -19 -48 -95 -87
-168 -88 -37 0 -61 5 -69 14 -12 16 -70 189 -70 212 0 18 34 18 68 0z m558
-23 c5 -21 7 -65 6 -98 -2 -71 -15 -85 -78 -85 -35 0 -46 5 -63 28 -11 15 -32
39 -47 53 l-26 26 32 36 c20 23 48 41 73 49 23 6 46 15 52 20 23 20 44 8 51
-29z m178 -258 c24 -25 40 -122 27 -167 -7 -21 -17 -38 -24 -38 -7 0 -25 -7
-40 -15 -25 -13 -29 -13 -45 5 -32 35 -40 47 -60 89 -19 38 -19 45 -7 75 18
43 33 54 80 59 22 2 43 4 47 5 4 1 13 -5 22 -13z m-297 -34 c29 -34 38 -68 23
-85 -6 -8 -15 -27 -20 -43 l-8 -28 -1 31 c-1 37 -31 79 -63 87 -17 5 -31 -4
-65 -41 -24 -25 -43 -50 -43 -53 0 -15 82 -71 104 -73 18 -1 24 -7 23 -21 -1
-31 -15 -43 -51 -43 -19 0 -48 -3 -64 -7 -25 -5 -31 -3 -37 14 -3 11 -16 28
-29 38 -36 30 -39 41 -17 96 11 29 28 74 37 100 21 59 39 68 124 60 54 -4 69
-10 87 -32z m-292 -8 c-3 -10 -9 -31 -12 -46 -3 -16 -13 -31 -21 -34 -15 -6
-46 25 -61 62 -7 18 -4 21 33 26 69 10 69 10 61 -8z m-180 -32 c6 -19 23 -41
75 -97 15 -17 29 -37 31 -45 4 -29 -14 -99 -30 -112 -25 -21 -94 -38 -105 -27
-6 6 -22 10 -37 10 -36 0 -85 42 -99 85 -8 25 -8 45 0 76 13 47 38 91 49 84 4
-2 25 7 47 20 47 30 61 31 69 6z m575 -103 c0 -6 7 -19 16 -29 17 -19 11 -39
-12 -39 -8 0 -27 -11 -42 -25 -36 -34 -39 -17 -7 50 24 51 45 71 45 43z m132
-260 c22 -63 23 -146 4 -193 -19 -44 -58 -48 -88 -10 -12 16 -30 25 -47 25
-30 0 -161 101 -160 123 0 6 10 31 22 55 l22 44 104 4 c58 2 107 7 110 9 7 8
13 -2 33 -57z m-428 -20 l21 -38 -20 -37 c-24 -46 -93 -84 -145 -80 -32 2 -35
4 -32 32 1 17 4 49 6 72 8 94 9 94 82 91 65 -3 67 -4 88 -40z"/>
<path d="M3541 1261 c-42 -42 -18 -121 37 -121 36 0 72 22 73 44 4 62 -9 82
-58 92 -24 5 -36 1 -52 -15z"/>
<path d="M12820 2000 c-19 -10 -43 -23 -52 -27 -26 -12 -98 -112 -105 -145 -3
-16 -10 -31 -14 -34 -24 -14 7 -163 41 -199 12 -13 42 -33 68 -46 26 -13 56
-32 67 -42 11 -10 32 -21 48 -24 30 -6 31 -9 16 -72 -13 -59 -62 -133 -102
-155 -34 -20 -126 -110 -152 -150 -15 -23 -15 -26 4 -45 12 -12 25 -21 31 -21
5 0 44 34 86 75 42 42 78 74 80 72 2 -1 -3 -43 -11 -92 -8 -50 -15 -106 -15
-125 0 -21 -10 -50 -25 -72 -14 -20 -25 -45 -25 -55 0 -10 -11 -28 -24 -40
-13 -13 -36 -49 -52 -80 -16 -32 -38 -67 -50 -79 -38 -37 -46 -59 -25 -78 9
-9 25 -16 33 -16 14 0 54 48 93 111 6 9 17 27 26 40 39 60 89 148 89 158 0 20
18 12 39 -18 12 -16 21 -32 21 -37 0 -7 50 -88 91 -146 10 -15 31 -49 46 -75
38 -69 83 -98 83 -53 0 11 -7 20 -16 20 -10 0 -13 6 -9 18 5 18 -100 237 -131
273 -8 8 -14 20 -14 25 0 5 -16 35 -35 67 -40 67 -46 112 -15 122 19 6 20 14
18 76 -3 90 9 101 50 47 18 -24 44 -60 59 -80 30 -40 104 -85 122 -74 21 13
11 35 -44 100 -30 35 -55 67 -55 69 0 3 -19 32 -41 66 -23 34 -42 75 -44 92
-1 16 -5 32 -9 36 -8 8 -8 46 0 67 4 11 19 16 49 16 29 0 45 5 49 15 3 8 11
15 18 15 17 0 46 33 59 66 13 37 11 151 -5 209 -16 59 -46 125 -58 125 -4 0
-8 6 -8 13 0 19 -70 84 -103 96 -43 16 -108 12 -147 -9z m183 -117 c44 -46 74
-136 78 -223 2 -59 1 -65 -23 -83 -35 -26 -159 -25 -198 1 -38 25 -71 42 -84
42 -6 0 -22 17 -36 37 -37 54 -34 114 8 180 43 67 96 95 169 89 44 -4 56 -10
86 -43z"/>
<path d="M7180 1750 c-8 -5 -29 -7 -47 -4 -48 9 -100 -12 -181 -73 -69 -53
-110 -94 -131 -131 -8 -15 -15 -12 -63 21 -30 20 -58 37 -63 37 -5 0 -16 6
-24 14 -17 15 -113 46 -141 46 -9 0 -33 -12 -53 -27 -28 -22 -36 -35 -37 -60
0 -17 5 -35 10 -38 6 -3 10 -15 10 -26 0 -11 14 -38 31 -59 17 -21 28 -43 25
-48 -3 -6 -28 -18 -54 -27 -90 -32 -137 -57 -160 -85 -21 -27 -22 -30 -7 -72
8 -24 15 -51 15 -61 0 -28 73 -91 127 -110 54 -19 109 -22 118 -7 12 19 25 -1
20 -28 -7 -32 -31 -120 -50 -182 -13 -41 -13 -46 5 -62 10 -10 27 -31 36 -48
30 -50 69 -43 209 38 11 6 41 20 67 31 43 18 72 47 114 117 11 19 12 19 45 0
54 -30 80 -57 69 -71 -7 -9 -1 -20 24 -39 49 -37 122 -35 212 7 72 32 89 137
41 238 -35 73 -34 86 5 94 78 17 129 70 143 148 6 33 3 43 -31 86 -40 54 -70
71 -130 76 -68 5 -115 17 -121 30 -2 7 5 46 18 87 28 93 29 150 5 177 -21 23
-34 26 -56 11z m7 -74 c-3 -7 -9 -35 -13 -62 -4 -27 -13 -63 -21 -81 -7 -18
-10 -33 -6 -33 5 0 -1 -6 -12 -12 -11 -6 -53 -13 -95 -14 -41 -1 -94 -6 -116
-9 -24 -4 -44 -3 -48 3 -19 30 153 187 228 208 60 17 89 17 83 0z m-541 -113
c90 -43 150 -113 96 -113 -9 0 -31 -9 -48 -19 -17 -11 -49 -21 -70 -23 -35 -3
-40 0 -59 33 -11 20 -29 48 -39 63 -22 32 -28 68 -12 78 22 15 77 7 132 -19z
m452 -194 c5 -48 -12 -54 -59 -23 -59 40 -58 49 3 48 48 -1 53 -4 56 -25z
m202 4 c87 -6 120 -27 120 -76 0 -37 -29 -86 -52 -89 -63 -6 -85 -4 -100 9 -9
8 -34 16 -55 17 -48 4 -73 14 -73 32 0 7 11 39 25 70 20 46 28 55 42 49 10 -4
52 -10 93 -12z m-379 -29 c32 -19 61 -39 63 -43 3 -4 -17 -6 -44 -3 -31 3 -55
0 -64 -7 -21 -17 -30 -69 -16 -86 17 -20 5 -33 -36 -41 -28 -5 -40 -2 -60 17
-13 12 -24 28 -24 35 0 7 16 47 36 88 44 91 56 94 145 40z m-213 -16 c-18 -27
-32 -27 -36 -1 -2 14 3 23 15 25 28 7 35 -2 21 -24z m-94 -52 c20 -23 36 -48
36 -54 0 -6 -9 -31 -19 -55 -19 -43 -22 -46 -76 -57 -41 -9 -60 -9 -68 -1 -6
6 -21 11 -34 11 -30 0 -67 18 -80 39 -6 9 -14 36 -18 59 l-7 41 44 20 c68 30
100 39 145 40 38 1 45 -3 77 -43z m422 -71 c-5 -15 -55 -40 -63 -32 -9 10 11
37 27 37 11 0 22 5 25 11 10 15 19 3 11 -16z m220 -148 c65 -85 67 -159 5
-192 -44 -22 -56 -20 -133 33 -39 26 -84 53 -100 61 -15 8 -28 19 -28 24 0 10
53 89 76 111 11 11 34 16 77 16 l62 0 41 -53z m-279 27 c2 -5 -7 -20 -21 -33
l-24 -22 -27 24 c-16 13 -25 29 -22 34 9 14 89 12 94 -3z m-164 -38 c9 -13 32
-34 51 -46 20 -12 36 -30 36 -39 0 -43 -92 -141 -132 -141 -6 0 -20 -7 -29
-16 -10 -9 -30 -18 -45 -20 -15 -1 -31 -7 -37 -13 -6 -6 -21 -11 -34 -11 -21
0 -22 3 -19 49 3 27 9 59 15 70 6 11 11 35 11 54 0 19 6 50 14 69 15 34 17 35
111 63 27 9 44 3 58 -19z"/>
</g>
</svg>
