<?xml version="1.0" standalone="no"?>
<!DOCTYPE svg PUBLIC "-//W3C//DTD SVG 20010904//EN"
 "http://www.w3.org/TR/2001/REC-SVG-20010904/DTD/svg10.dtd">
<svg version="1.0" xmlns="http://www.w3.org/2000/svg"
 width="665.055931pt" height="400.000000pt" viewBox="0 0 665.055931 400.000000"
 preserveAspectRatio="xMidYMid meet">
<metadata>
Created by potrace 1.15, written by Peter Selinger 2001-2017
</metadata>
<g transform="translate(-27.806152,420.575957) scale(0.039017,-0.039017)"
fill="#444444" stroke="none">
<path d="M5331 10766 c-9 -10 -9 -20 -2 -33 29 -51 64 -259 62 -366 -1 -62 3
-96 14 -118 25 -47 39 -31 46 54 9 107 45 157 77 107 15 -24 52 -181 46 -192
-7 -10 24 -68 36 -68 19 0 11 141 -12 219 -29 95 -61 131 -116 131 l-40 0 -11
73 c-7 39 -16 92 -22 117 -18 78 -50 110 -78 76z"/>
<path d="M11415 10626 c-38 -27 5 -56 85 -56 62 0 63 -9 10 -67 -59 -65 -64
-96 -22 -141 36 -38 72 -48 108 -30 37 18 35 31 -6 43 -80 23 -79 37 12 125
62 59 71 73 62 87 -24 39 -209 68 -249 39z"/>
<path d="M9020 10585 c-8 -10 -9 -19 -3 -27 12 -15 26 -112 17 -120 -3 -4 -26
1 -50 10 -40 15 -46 15 -54 2 -5 -8 -10 -19 -10 -23 0 -10 79 -46 103 -47 18
0 23 -33 18 -119 -4 -67 5 -91 33 -91 26 0 26 1 42 128 5 44 9 53 30 58 13 4
33 4 44 1 10 -3 27 1 37 8 16 13 17 15 2 30 -9 9 -38 19 -65 23 -47 7 -49 8
-55 47 -9 52 -26 96 -46 117 -20 22 -27 22 -43 3z"/>
<path d="M6800 10528 c-6 -18 -4 -27 12 -40 25 -22 32 -22 48 -3 10 12 9 20
-4 40 -20 31 -44 32 -56 3z"/>
<path d="M1319 10476 c-2 -2 -74 -6 -159 -10 -219 -10 -245 -12 -333 -29 -112
-21 -119 -30 -113 -141 5 -80 8 -159 22 -526 1 -47 5 -150 7 -230 2 -80 8
-190 13 -245 7 -86 9 -220 4 -220 -4 0 -11 -203 -13 -351 -2 -136 0 -154 17
-173 16 -17 17 -23 6 -36 -10 -12 -10 -21 -2 -40 11 -23 16 -25 94 -24 46 0
99 -5 118 -11 23 -6 86 -7 190 -1 85 5 283 9 440 10 157 1 375 7 485 13 110 6
241 12 290 12 83 1 356 -12 415 -19 60 -8 264 -25 360 -30 58 -4 132 -11 165
-17 62 -10 206 -12 330 -3 170 12 300 18 440 20 146 3 224 11 390 38 80 13
131 38 137 66 3 14 -6 216 -16 371 -4 47 -11 164 -17 260 -5 96 -15 207 -20
245 -6 39 -11 77 -11 85 0 8 -8 101 -18 205 -11 105 -22 228 -25 275 -13 177
-46 314 -74 305 -9 -2 -52 0 -96 6 -44 6 -228 13 -410 14 -181 2 -343 6 -360
9 -16 3 -136 8 -265 11 -244 6 -340 14 -525 46 -60 10 -150 21 -200 24 -49 3
-119 11 -155 16 -181 28 -265 35 -470 44 -74 3 -201 13 -281 20 -133 14 -350
20 -360 11z m346 -111 c110 -9 243 -18 295 -20 94 -5 242 -15 290 -20 14 -2
81 -8 150 -15 176 -17 262 -27 360 -43 161 -27 225 -36 255 -36 52 1 354 -10
500 -18 174 -9 336 -8 485 1 63 5 122 8 130 7 138 -4 236 -13 244 -21 5 -5 17
-10 26 -10 9 0 16 -8 16 -17 -2 -32 15 -246 24 -313 5 -36 11 -110 14 -165 3
-55 14 -165 25 -245 10 -80 20 -170 20 -200 1 -30 5 -89 11 -130 9 -69 18
-265 23 -469 l2 -85 -30 -8 c-104 -29 -312 -49 -530 -52 -126 -1 -293 -8 -369
-15 -122 -12 -159 -12 -300 3 -190 19 -361 35 -506 46 -58 4 -118 11 -135 14
-64 11 -297 15 -396 6 -246 -22 -332 -24 -864 -23 l-560 1 -12 48 c-15 61 -16
109 -7 454 4 185 3 347 -4 460 -7 96 -14 274 -17 395 -4 121 -8 261 -10 312
-2 63 0 97 9 109 13 17 12 17 406 51 169 14 252 14 455 -2z"/>
<path d="M2902 9994 c-6 -10 -6 -31 0 -53 5 -20 12 -61 14 -91 3 -30 14 -99
24 -154 11 -54 20 -111 20 -128 0 -16 4 -37 9 -47 6 -10 7 -39 3 -67 -5 -34
-3 -57 6 -76 16 -32 24 -34 48 -11 14 15 16 30 10 113 -4 52 -8 106 -10 120
-2 14 -11 68 -19 120 -9 52 -21 133 -27 180 -7 47 -17 91 -23 98 -14 17 -44
15 -55 -4z"/>
<path d="M1169 9903 c-1 -5 -3 -73 -3 -153 -1 -86 -9 -188 -19 -249 -10 -58
-19 -150 -20 -204 -2 -85 1 -101 15 -111 14 -9 23 -6 43 14 22 22 25 34 26
100 0 41 5 109 11 150 6 41 12 86 13 100 4 44 16 90 25 90 4 0 12 -12 18 -27
76 -208 71 -200 113 -213 31 -10 41 -10 53 -1 21 17 76 129 76 154 0 11 10 35
21 54 l22 35 12 -28 c19 -47 31 -122 42 -272 9 -108 20 -132 64 -132 17 0 33
26 24 40 -3 4 -9 59 -15 122 -17 201 -63 428 -93 466 -22 28 -67 -1 -67 -45 0
-14 -6 -37 -14 -51 -32 -62 -69 -157 -73 -194 -4 -22 -13 -43 -23 -48 -20 -11
-42 33 -131 260 -29 74 -58 138 -64 142 -13 10 -55 10 -56 1z"/>
<path d="M3596 9887 c-18 -13 -17 -17 7 -88 14 -41 28 -99 32 -129 3 -30 13
-75 20 -100 14 -46 27 -155 29 -245 1 -47 3 -50 29 -53 39 -5 53 11 72 74 11
39 20 54 33 54 34 0 87 -75 126 -177 24 -63 31 -73 52 -73 14 0 27 6 30 13 7
19 -48 175 -82 230 -43 70 -133 109 -164 72 -21 -26 -39 -17 -45 23 -3 20 -12
69 -20 107 -8 39 -16 90 -19 115 -6 56 -44 173 -60 182 -15 10 -20 10 -40 -5z"/>
<path d="M3402 9856 c-8 -17 -8 -27 -1 -32 6 -3 8 -12 5 -20 -3 -8 -1 -49 4
-91 6 -42 8 -78 6 -81 -3 -2 -29 -7 -58 -11 -72 -8 -70 -29 6 -56 l58 -21 -1
-122 c-2 -119 -1 -122 21 -131 13 -5 32 -4 44 1 20 9 21 17 20 130 -1 134 -2
133 77 162 26 10 47 21 47 26 0 9 -49 20 -89 20 -41 0 -52 13 -61 71 -27 166
-51 214 -78 155z"/>
<path d="M3127 9772 c-22 -24 -21 -34 3 -49 36 -23 70 10 50 48 -13 24 -32 24
-53 1z"/>
<path d="M3140 9530 c-16 -31 -20 -55 -18 -110 3 -67 4 -70 28 -70 43 0 48 11
49 94 1 132 -20 163 -59 86z"/>
<path d="M2671 9553 c-42 -8 -100 -51 -107 -80 -20 -79 3 -143 52 -143 13 0
26 -4 29 -10 8 -14 51 -12 104 4 34 10 49 21 63 47 33 61 23 98 -39 147 -42
33 -67 41 -102 35z m59 -80 c27 -26 29 -30 17 -53 -15 -31 -61 -49 -85 -34
-23 15 -27 60 -7 90 20 31 38 30 75 -3z"/>
<path d="M2222 9520 c-18 -11 -37 -18 -42 -15 -5 3 -19 1 -30 -5 -22 -12 -21
-18 7 -148 14 -61 20 -73 40 -78 38 -10 53 11 46 64 -3 26 0 66 6 90 10 36 15
42 39 42 35 -1 52 -15 84 -70 20 -35 25 -55 22 -91 -4 -43 -2 -47 22 -53 40
-10 57 10 51 61 -7 68 -54 149 -108 189 -54 39 -89 43 -137 14z"/>
<path d="M1860 9483 c-35 -32 -59 -114 -52 -176 5 -46 59 -97 102 -97 40 0
108 32 156 74 48 41 53 69 23 129 -47 91 -165 127 -229 70z m144 -64 c14 -17
26 -37 26 -44 0 -19 -43 -67 -78 -87 -27 -16 -31 -16 -43 -2 -7 9 -12 38 -12
67 1 42 5 55 27 74 36 30 49 29 80 -8z"/>
<path d="M5275 10456 c-14 -14 -25 -34 -25 -45 0 -11 -9 -45 -21 -76 -21 -56
-43 -71 -54 -36 -10 32 -45 71 -65 71 -10 0 -33 -18 -50 -40 -17 -22 -36 -38
-40 -35 -5 3 -14 31 -20 62 -14 67 -29 93 -51 93 -34 0 -41 -25 -24 -85 21
-70 58 -152 83 -184 29 -36 68 -23 82 29 13 48 29 59 46 34 26 -36 56 -64 69
-64 23 0 75 51 75 73 0 12 7 41 15 64 21 60 30 149 16 157 -6 4 -22 -4 -36
-18z"/>
<path d="M6004 10466 c-12 -8 -29 -31 -38 -51 -11 -23 -24 -35 -37 -35 -11 0
-24 -10 -29 -22 l-9 -23 0 22 c-1 27 -48 74 -95 97 -31 15 -39 15 -63 2 -54
-27 -65 -49 -68 -131 -2 -81 2 -89 50 -101 17 -3 37 -13 47 -21 24 -22 78 -13
97 16 l16 24 -37 -6 c-53 -8 -55 7 -7 40 23 15 49 35 59 45 17 15 18 15 23 -5
21 -91 74 -176 99 -161 6 4 8 40 5 87 -5 105 7 152 42 167 16 6 40 8 55 4 24
-6 27 -4 24 12 -7 37 -100 64 -134 40z m-193 -92 c11 -14 9 -19 -11 -35 -34
-25 -70 -25 -70 0 0 20 34 51 56 51 6 0 18 -7 25 -16z"/>
<path d="M9765 10472 c-89 -10 -155 -51 -155 -96 0 -40 66 -112 121 -132 27
-10 57 -26 65 -35 14 -16 14 -18 -3 -27 -10 -5 -48 -15 -85 -22 -55 -11 -70
-11 -83 0 -30 25 -57 -36 -28 -63 17 -14 26 -14 108 2 126 26 154 42 155 91 0
3 -25 23 -56 45 -95 68 -104 76 -119 106 -14 27 -14 29 7 43 13 8 48 18 78 22
54 7 80 18 80 35 0 15 -54 35 -85 31z"/>
<path d="M6185 10437 c-25 -25 -34 -45 -40 -84 -9 -70 0 -104 38 -146 31 -34
98 -67 137 -67 22 0 90 38 90 51 0 5 -27 9 -60 9 -60 0 -100 15 -127 49 -26
31 -15 41 46 41 70 0 113 26 104 62 -14 55 -85 118 -133 118 -12 0 -37 -15
-55 -33z m105 -42 c21 -26 4 -45 -40 -45 -46 0 -54 19 -18 44 28 20 42 20 58
1z"/>
<path d="M7790 10450 c-21 -5 -47 -22 -65 -44 -18 -22 -39 -36 -52 -36 -28 0
-28 -3 -3 -132 16 -84 25 -107 46 -126 15 -13 29 -20 33 -17 3 4 7 51 7 105 1
83 5 107 25 147 23 45 27 49 82 62 54 13 72 27 45 36 -33 10 -86 12 -118 5z"/>
<path d="M15259 10455 c-2 -2 -49 -6 -104 -9 -214 -13 -383 -34 -685 -83 -68
-11 -150 -14 -290 -12 -369 5 -605 4 -710 -4 -58 -4 -132 -10 -165 -12 -33 -2
-149 -8 -257 -12 -108 -4 -199 -11 -203 -15 -4 -3 -20 -2 -37 3 -18 5 -73 4
-132 -1 -88 -8 -104 -13 -122 -34 -18 -20 -20 -31 -14 -66 4 -24 4 -79 0 -124
-10 -113 -5 -472 8 -526 10 -41 16 -140 28 -410 8 -194 13 -617 7 -672 -5 -52
-9 -59 -39 -77 -19 -11 -34 -25 -34 -30 0 -27 58 -38 206 -39 83 -1 184 -6
225 -12 90 -13 393 -24 509 -19 47 2 112 2 145 1 33 -2 191 -4 350 -6 382 -3
575 7 835 43 119 17 197 21 495 26 154 3 314 10 355 16 41 6 113 15 160 19 47
5 86 9 86 9 10 5 12 57 2 74 -7 13 -13 74 -14 157 -1 74 -6 207 -9 295 -4 88
-7 171 -7 185 20 512 21 756 1 1015 -10 129 -33 233 -57 257 -24 24 -171 46
-352 53 -69 3 -137 7 -151 10 -15 2 -28 2 -30 0z m234 -106 c105 -6 206 -16
225 -23 32 -11 37 -18 48 -67 19 -87 26 -289 23 -654 -4 -461 -3 -679 4 -810
9 -170 10 -291 3 -304 -4 -6 -31 -11 -59 -11 -29 0 -92 -7 -142 -15 -62 -9
-169 -14 -347 -13 -235 0 -305 -4 -498 -32 -75 -11 -148 -17 -315 -26 -66 -3
-132 -7 -147 -9 -40 -5 -559 -5 -738 0 -85 2 -256 6 -380 9 -124 3 -274 11
-334 16 -59 6 -117 8 -127 5 -11 -4 -27 -4 -36 -1 -17 5 -18 29 -18 318 0 350
-15 750 -31 828 -11 53 -16 325 -9 475 l7 156 27 10 c47 19 191 30 421 35 250
5 315 8 572 25 114 8 218 9 290 4 144 -11 442 -12 533 -2 39 4 104 14 145 22
196 38 256 46 408 54 90 5 166 12 170 15 8 9 94 7 305 -5z"/>
<path d="M13280 9977 c-93 -33 -138 -59 -196 -114 -93 -89 -146 -188 -140
-265 7 -91 99 -198 199 -232 63 -21 207 -23 273 -3 66 19 124 57 124 80 0 21
-1 21 -92 1 -40 -8 -118 -16 -173 -16 -86 -1 -106 2 -145 21 -25 13 -53 31
-63 39 -24 21 -57 94 -57 125 0 36 58 144 91 169 16 13 44 35 62 49 54 44 108
66 192 79 121 18 125 19 132 36 19 50 -101 68 -207 31z"/>
<path d="M15298 9938 c-12 -26 -15 -83 -14 -281 1 -264 2 -266 50 -267 18 0
19 8 14 165 -3 90 -3 167 0 170 3 3 7 48 9 101 4 75 1 100 -12 120 -21 32 -30
30 -47 -8z"/>
<path d="M14540 9719 c-69 -18 -110 -45 -110 -70 0 -5 43 -51 95 -103 52 -52
95 -99 95 -104 0 -19 -27 -31 -81 -38 -50 -6 -58 -4 -87 21 -31 26 -52 26 -52
1 0 -25 39 -63 86 -86 61 -28 102 -21 155 27 61 56 54 84 -58 211 l-52 59 38
12 c21 6 48 11 60 11 12 0 38 7 57 15 28 11 35 19 32 37 -3 20 -9 23 -53 25
-27 1 -84 -7 -125 -18z"/>
<path d="M14090 9640 c-32 -35 -41 -39 -69 -34 -29 6 -31 4 -31 -20 0 -15 8
-41 17 -59 9 -18 18 -59 19 -91 2 -45 8 -64 24 -80 20 -20 22 -20 34 -4 7 10
16 61 19 114 5 70 11 102 23 116 23 25 36 23 67 -9 37 -39 65 -109 76 -188 5
-37 12 -69 15 -72 8 -9 44 7 50 23 8 22 -22 140 -52 199 -35 70 -79 122 -115
134 -40 14 -35 16 -77 -29z"/>
<path d="M14838 9663 c-20 -24 -42 -98 -41 -137 1 -54 48 -132 96 -161 78 -45
125 -28 180 69 10 19 17 24 17 14 0 -33 23 -67 51 -77 36 -12 43 -1 30 42 -22
71 -31 116 -31 151 0 20 -9 55 -20 77 -30 59 -53 41 -75 -57 -23 -104 -49
-162 -79 -175 -22 -10 -28 -8 -51 17 -15 16 -31 39 -36 52 -14 35 -11 98 6
139 11 27 12 39 4 49 -15 19 -33 17 -51 -3z"/>
<path d="M13695 9631 c-47 -29 -74 -63 -90 -117 -19 -62 -19 -94 -1 -120 12
-17 27 -21 81 -22 94 -3 166 31 207 99 22 35 23 59 4 103 -28 68 -135 99 -201
57z m147 -77 c11 -23 8 -29 -29 -66 -35 -34 -49 -42 -92 -46 l-51 -5 0 35 c0
52 65 107 128 108 25 0 35 -6 44 -26z"/>
<path d="M8034 10438 c-25 -11 -54 -68 -54 -103 0 -15 -6 -25 -14 -25 -7 0
-19 -7 -26 -15 -16 -20 1 -41 40 -50 18 -4 38 -21 54 -46 49 -73 111 -95 180
-63 32 16 37 16 69 0 19 -9 56 -16 81 -16 42 0 51 5 97 50 49 48 69 60 69 41
0 -19 52 -71 71 -71 10 0 19 2 19 5 0 29 -82 175 -98 175 -14 0 -52 -31 -52
-43 0 -17 -72 -96 -90 -98 -43 -4 -60 2 -60 22 0 57 125 144 198 137 33 -3 37
0 40 21 4 24 -15 42 -46 47 -44 7 -164 -49 -209 -97 -25 -28 -62 -106 -63
-131 0 -10 -4 -18 -10 -18 -5 0 -10 7 -10 15 0 12 -5 13 -24 3 -20 -9 -32 -7
-63 9 -58 30 -55 54 12 82 70 29 80 47 59 100 -25 62 -112 98 -170 69z m95
-67 l25 -19 -35 -21 c-60 -37 -89 -22 -62 32 16 32 38 34 72 8z"/>
<path d="M9962 10428 c-36 -26 -52 -68 -52 -141 0 -61 20 -100 62 -120 56 -26
87 -30 147 -16 47 10 61 18 75 42 21 37 14 45 -20 22 -31 -20 -104 -23 -149
-5 l-29 11 29 24 c17 13 35 24 40 25 6 0 27 11 47 25 34 23 36 27 27 53 -16
43 -44 71 -90 87 -52 19 -48 19 -87 -7z m82 -58 c14 -5 26 -14 26 -20 0 -13
-38 -37 -72 -45 -31 -8 -35 4 -18 49 10 28 24 31 64 16z"/>
<path d="M10729 10434 c-16 -20 -1 -48 28 -52 15 -2 22 4 27 24 10 40 -28 60
-55 28z"/>
<path d="M7025 10423 c-28 -21 -55 -68 -49 -86 10 -31 80 -108 129 -141 l28
-19 -22 -18 c-20 -17 -24 -17 -92 3 -39 11 -73 17 -77 14 -8 -8 37 -55 68 -71
41 -20 99 -27 135 -15 28 9 36 18 41 46 6 32 2 39 -70 115 -43 44 -76 85 -73
92 4 12 45 26 92 30 25 2 30 7 30 27 0 24 -3 25 -65 28 -36 1 -70 -1 -75 -5z"/>
<path d="M10949 10398 c-55 -58 -69 -107 -53 -186 5 -25 13 -32 49 -42 38 -11
48 -9 90 9 26 12 49 21 51 21 2 0 8 -17 14 -37 6 -21 19 -48 29 -61 23 -27 85
-49 127 -44 32 3 104 60 104 81 0 22 -31 24 -53 2 -48 -45 -113 -37 -141 18
l-15 28 45 7 c24 3 58 12 74 21 41 21 83 79 75 104 -8 26 -72 50 -141 52 -52
2 -59 0 -80 -27 -13 -15 -27 -51 -31 -78 l-8 -50 -55 3 c-30 1 -58 5 -62 7
-20 12 -7 82 22 122 17 23 30 49 30 57 0 23 -46 18 -71 -7z m307 -88 c23 -9
25 -13 13 -24 -8 -7 -29 -18 -47 -25 -40 -13 -77 1 -68 26 3 8 6 19 6 24 0 12
62 11 96 -1z"/>
<path d="M10289 10377 c-13 -18 -33 -41 -47 -52 -23 -20 -24 -23 -10 -60 23
-67 58 -125 73 -125 8 0 18 0 23 0 4 0 7 40 8 90 0 100 15 130 64 130 33 0 61
27 41 39 -7 5 -39 9 -72 9 -55 1 -60 -1 -80 -31z"/>
<path d="M10487 10396 c-13 -34 45 -190 85 -228 16 -16 32 -28 37 -28 19 0 50
52 56 93 3 23 11 63 16 89 9 40 8 50 -5 64 -32 31 -63 -5 -68 -81 -4 -60 -22
-61 -42 -2 -33 97 -38 107 -56 107 -10 0 -20 -6 -23 -14z"/>
<path d="M8800 10371 c-111 -60 -143 -192 -60 -251 52 -37 154 -19 181 31 8
16 8 24 -1 33 -8 8 -21 5 -50 -12 -52 -29 -85 -29 -106 3 -16 24 -15 28 8 73
13 26 40 57 59 70 21 15 34 32 34 45 0 28 -22 31 -65 8z"/>
<path d="M6811 10371 c-10 -7 -12 -36 -10 -130 4 -118 5 -122 27 -128 13 -3
27 -2 32 3 20 21 11 202 -12 247 -10 19 -17 21 -37 8z"/>
<path d="M10757 10342 c-3 -4 -7 -43 -9 -87 -3 -70 -1 -80 15 -83 30 -6 47 17
47 63 0 66 -35 137 -53 107z"/>
<path d="M11598 10106 c-14 -33 -6 -52 27 -60 32 -8 55 8 55 38 0 49 -62 65
-82 22z"/>
<path d="M11769 9925 c-13 -13 -14 -24 -4 -73 7 -31 15 -80 19 -108 l6 -51
-67 -5 c-38 -3 -151 -4 -253 -1 -102 3 -192 5 -200 5 -379 -5 -698 -13 -741
-20 -30 -4 -66 -5 -80 -2 -54 13 -616 3 -784 -14 -206 -20 -1421 -32 -1540
-15 -38 6 -140 12 -225 14 -218 5 -472 25 -578 45 -26 4 -50 6 -54 4 -19 -12
-521 -4 -808 13 -96 6 -186 11 -200 11 -67 2 -270 21 -279 26 -29 19 -438 60
-769 77 -192 11 -225 11 -233 -2 -14 -22 -12 -24 39 -49 42 -22 62 -24 201
-27 84 -2 170 -7 190 -13 20 -5 70 -12 111 -15 41 -4 91 -10 110 -15 19 -4 90
-11 157 -15 67 -3 145 -12 175 -19 77 -20 114 -24 308 -36 96 -6 202 -13 235
-15 197 -14 372 -19 530 -15 260 6 377 2 427 -14 16 -6 134 -13 428 -26 124
-6 233 -13 242 -16 9 -3 277 -6 595 -8 520 -2 846 4 988 19 188 20 325 24 750
25 264 0 487 0 495 1 8 1 194 3 414 5 292 3 402 2 412 -7 22 -18 19 -156 -5
-194 -37 -62 17 -101 79 -57 22 15 197 180 225 212 6 6 36 36 68 67 31 31 57
60 57 64 0 19 -46 49 -76 49 -23 0 -50 14 -94 48 -91 69 -154 112 -162 112 -4
0 -24 11 -44 25 -43 29 -45 30 -65 10z"/>
<path d="M5395 9178 c-11 -6 -56 -45 -100 -88 -44 -42 -98 -88 -120 -102 -51
-32 -118 -104 -144 -157 -12 -23 -28 -41 -35 -41 -8 0 -17 -8 -21 -17 -8 -23
25 -50 73 -59 20 -4 66 -20 102 -36 36 -17 89 -38 118 -49 30 -10 75 -36 100
-57 26 -21 59 -46 73 -56 43 -27 50 -7 55 166 3 84 7 159 10 167 3 11 37 12
187 7 100 -4 223 -11 273 -16 51 -5 256 -10 455 -9 200 0 382 -3 404 -6 38 -4
140 -10 380 -20 61 -2 130 -9 155 -15 25 -5 72 -15 105 -20 33 -6 76 -15 95
-20 36 -9 300 -35 470 -45 52 -3 109 -8 125 -11 85 -14 625 -24 830 -15 77 3
219 3 315 -1 101 -4 285 -2 435 4 143 6 278 11 300 10 81 -3 720 0 725 3 4 2
40 4 81 5 41 1 119 6 174 11 55 5 177 11 270 13 173 4 465 20 565 31 30 3 97
7 148 9 51 1 97 7 102 12 4 5 10 20 12 34 2 20 -2 26 -22 29 -14 1 -28 8 -31
13 -4 7 -22 7 -54 0 -26 -6 -58 -8 -70 -6 -12 2 -119 -3 -236 -12 -118 -8
-322 -20 -454 -25 -132 -6 -325 -14 -430 -18 -104 -4 -356 -8 -560 -9 -203 -1
-463 -6 -577 -12 -114 -6 -212 -9 -217 -5 -5 3 -30 1 -54 -5 -29 -6 -56 -6
-78 0 -32 10 -214 12 -634 7 -212 -2 -369 6 -670 33 -121 11 -274 24 -340 30
-66 6 -175 22 -242 35 -71 15 -190 29 -290 35 -404 23 -600 31 -783 29 -107 0
-224 2 -260 5 -36 3 -184 8 -330 11 -145 3 -266 7 -267 9 -2 2 -4 31 -5 66 -1
47 -8 76 -27 110 -35 63 -47 70 -86 48z"/>
<path d="M11296 8513 c-57 -30 -17 -62 79 -64 39 -1 83 -4 98 -8 l29 -6 -42
-52 c-23 -29 -45 -53 -49 -53 -4 0 -26 -29 -50 -65 -35 -54 -40 -69 -31 -80
17 -21 56 -19 72 4 8 11 38 47 68 81 65 74 110 152 110 191 0 43 -38 57 -158
62 -71 2 -108 -1 -126 -10z"/>
<path d="M6102 8494 c-6 -10 -4 -41 5 -83 9 -44 13 -120 12 -226 l-2 -160 28
-3 c15 -2 32 2 37 10 17 27 5 356 -17 456 -6 27 -49 31 -63 6z"/>
<path d="M10211 8488 c-6 -18 -4 -26 11 -37 28 -19 83 -33 155 -38 l62 -5 -19
-36 c-11 -20 -20 -42 -20 -48 0 -6 -20 -38 -45 -70 -25 -31 -45 -60 -45 -64 0
-3 10 -14 22 -24 15 -13 26 -16 37 -9 25 15 99 133 122 193 19 51 19 57 5 87
-9 18 -21 33 -28 34 -7 1 -45 3 -85 5 -39 2 -88 10 -109 19 -48 20 -53 19 -63
-7z"/>
<path d="M10880 8490 c-11 -21 5 -59 25 -61 5 0 49 -1 97 -2 47 -1 89 -5 93
-9 4 -3 -9 -34 -29 -68 -20 -33 -36 -64 -36 -67 0 -3 -16 -23 -35 -44 -42 -46
-43 -54 -10 -75 23 -15 27 -15 50 0 14 10 30 27 35 39 5 12 24 43 43 70 19 26
45 75 57 108 l23 61 -29 23 c-35 28 -113 45 -205 45 -58 0 -70 -3 -79 -20z"/>
<path d="M6440 8474 c-59 -27 -123 -82 -146 -126 -22 -43 -18 -104 8 -122 43
-30 97 -15 153 43 26 28 30 30 37 14 3 -10 7 -36 7 -59 1 -22 4 -44 8 -47 3
-4 7 -28 7 -54 1 -42 4 -48 23 -51 32 -5 37 29 24 161 -6 61 -12 141 -12 177
-1 98 -16 107 -109 64z m13 -86 c-5 -7 -22 -32 -38 -56 -33 -50 -85 -84 -85
-56 0 21 30 58 76 95 38 30 64 39 47 17z"/>
<path d="M9259 8474 c-7 -8 -14 -41 -15 -72 -11 -366 -11 -367 14 -370 12 -2
24 3 26 10 3 7 7 85 11 173 3 88 9 176 14 195 14 63 -17 103 -50 64z"/>
<path d="M9555 8479 c-4 -6 -14 -40 -21 -77 -32 -149 -32 -148 -13 -161 10 -6
26 -11 36 -11 9 0 44 -10 77 -21 98 -35 121 -66 66 -94 -38 -20 -147 -20 -194
0 -41 17 -58 13 -49 -13 12 -31 47 -51 113 -62 55 -10 74 -10 122 5 64 18 88
43 88 91 0 24 -9 40 -35 63 -39 34 -95 65 -136 74 -34 9 -40 26 -26 72 15 51
41 61 116 45 61 -13 81 -9 81 15 0 18 -42 40 -122 66 -69 22 -94 24 -103 8z"/>
<path d="M9988 8463 c-22 -25 -24 -31 -14 -55 20 -47 74 -75 91 -47 13 20 11
84 -3 107 -19 29 -43 28 -74 -5z"/>
<path d="M10765 8481 c-3 -5 -50 -13 -105 -16 -105 -8 -127 -18 -115 -55 6
-18 15 -20 86 -20 57 0 79 -3 79 -13 0 -15 -86 -163 -100 -172 -15 -9 -12 -30
8 -55 24 -30 47 -18 77 43 14 29 34 66 43 82 88 156 90 162 76 199 -7 17 -39
22 -49 7z"/>
<path d="M6710 8473 c-15 -6 -30 -23 -30 -35 0 -4 10 -10 23 -14 33 -10 155
-93 171 -116 30 -42 -20 -100 -69 -82 -16 6 -71 -20 -102 -49 l-22 -20 23 -18
c31 -24 53 -24 113 2 l48 20 20 -26 c63 -82 69 -87 88 -72 18 13 18 14 -3 53
-12 21 -31 46 -43 55 -20 16 -20 18 -4 43 32 48 14 127 -36 152 -16 9 -41 29
-55 45 -20 24 -92 71 -104 68 -2 0 -10 -3 -18 -6z"/>
<path d="M7364 8474 c-8 -4 -8 -24 2 -76 7 -39 16 -132 18 -207 5 -154 9 -173
40 -169 21 3 21 6 19 183 -3 237 -20 294 -79 269z"/>
<path d="M7752 8454 c-12 -8 -34 -39 -49 -67 -14 -29 -46 -81 -71 -117 -37
-52 -48 -79 -58 -135 -7 -39 -8 -79 -4 -91 11 -29 63 -46 97 -33 14 5 28 7 31
5 17 -18 122 78 122 111 0 33 -44 83 -82 93 -20 6 -40 15 -43 21 -7 10 42 91
98 162 43 56 16 91 -41 51z m-15 -298 l28 -24 -38 -36 c-29 -27 -47 -36 -73
-36 -39 0 -39 2 -19 61 24 66 54 76 102 35z"/>
<path d="M8514 8422 c-39 -34 -42 -44 -53 -178 -8 -101 -7 -111 12 -143 27
-45 74 -63 140 -55 29 4 59 12 67 19 8 7 24 15 36 19 26 8 54 66 54 112 0 103
-69 208 -157 238 -60 21 -62 20 -99 -12z m136 -69 c41 -34 73 -107 66 -149
-12 -59 -95 -113 -143 -91 -21 9 -28 29 -48 133 -7 36 16 102 42 122 26 19 48
15 83 -15z"/>
<path d="M7942 8433 c-20 -8 -42 -59 -42 -95 0 -18 9 -44 20 -58 26 -33 25
-48 -3 -61 -13 -6 -35 -29 -50 -51 -43 -67 -15 -143 68 -183 62 -29 181 -11
191 29 5 23 -37 129 -64 160 -19 20 -25 13 66 76 23 17 42 37 42 45 0 20 -61
79 -112 108 -45 26 -94 39 -116 30z m113 -92 c17 -14 34 -29 39 -33 10 -7 -66
-58 -88 -58 -18 0 -41 36 -50 77 -13 58 40 66 99 14z m-41 -196 c9 -13 34 -42
56 -63 36 -34 39 -40 25 -52 -25 -21 -107 -25 -143 -6 -55 28 -67 75 -31 120
27 34 71 35 93 1z"/>
<path d="M2811 8227 c-12 -24 -21 -50 -21 -58 0 -9 -12 -26 -26 -40 -14 -13
-43 -49 -64 -80 -21 -30 -55 -70 -76 -88 -20 -18 -43 -49 -50 -70 -19 -55 -7
-62 127 -67 63 -3 123 -7 135 -9 23 -5 40 -59 50 -165 3 -36 16 -92 29 -125
12 -33 26 -76 30 -95 4 -19 27 -75 51 -125 24 -49 44 -95 44 -102 0 -7 17 -47
39 -90 21 -43 44 -94 52 -113 53 -132 226 -431 295 -510 84 -96 567 -570 688
-675 151 -131 380 -299 441 -323 28 -11 100 -43 160 -70 107 -49 301 -118 354
-127 57 -9 207 -48 306 -78 44 -14 96 -28 115 -32 19 -3 69 -15 110 -25 66
-17 149 -35 285 -60 48 -9 118 -26 205 -50 36 -10 92 -21 125 -25 54 -5 95
-13 245 -45 25 -6 59 -11 75 -11 17 -1 71 -10 120 -20 132 -28 392 -66 535
-79 171 -15 257 -28 311 -46 41 -13 300 -148 385 -200 77 -47 254 -208 254
-230 0 -7 16 -26 35 -41 23 -18 41 -45 51 -75 9 -27 20 -48 25 -48 5 0 9 -11
9 -25 0 -14 13 -66 29 -115 16 -50 27 -99 24 -109 -2 -10 2 -24 9 -32 12 -12
11 -37 -3 -164 -9 -82 -14 -153 -12 -157 8 -15 40 -8 57 11 36 40 59 282 36
376 -6 22 -13 55 -15 74 -3 19 -12 54 -20 78 -8 24 -15 49 -15 56 0 48 -143
263 -204 307 -12 8 -39 33 -61 55 -67 67 -107 96 -175 126 -36 17 -72 34 -80
39 -8 6 -35 20 -60 32 -25 12 -83 43 -130 69 -120 66 -161 76 -375 94 -104 9
-212 20 -240 25 -47 9 -123 19 -190 25 -47 5 -312 52 -390 70 -65 15 -130 26
-215 39 -117 17 -173 27 -180 31 -9 5 -146 42 -190 51 -14 3 -70 13 -125 24
-55 11 -127 27 -160 36 -33 9 -77 20 -97 25 -20 5 -52 15 -70 23 -38 16 -106
35 -268 72 -63 14 -151 41 -195 59 -44 18 -96 39 -115 46 -19 7 -48 21 -65 31
-16 10 -36 18 -43 18 -29 0 -201 92 -256 137 -32 26 -73 56 -90 67 -75 45
-370 312 -559 505 -45 47 -111 112 -147 145 -103 98 -240 249 -240 267 0 4
-16 31 -35 60 -19 30 -35 57 -35 62 0 5 -11 23 -24 40 -33 43 -111 201 -127
257 -8 25 -35 83 -61 130 -27 47 -48 95 -48 108 0 12 -4 22 -9 22 -8 0 -15 18
-83 195 -30 79 -57 248 -44 281 4 10 25 14 84 14 124 0 171 9 189 37 15 22 14
25 -5 46 -11 12 -23 36 -27 52 -9 43 -37 105 -46 105 -5 0 -35 25 -66 56 -57
55 -153 119 -225 148 l-36 16 -21 -43z"/>
<path d="M3350 8225 c-8 -9 -10 -30 -6 -57 3 -24 7 -95 10 -158 3 -113 21
-226 38 -244 4 -6 8 -22 8 -36 0 -14 13 -46 28 -71 15 -24 45 -82 66 -129 21
-47 48 -101 60 -120 37 -57 86 -140 86 -146 0 -19 142 -203 296 -384 31 -36
68 -90 84 -121 16 -30 36 -62 46 -69 9 -8 28 -33 42 -55 29 -46 158 -200 218
-259 22 -23 54 -61 71 -86 33 -48 93 -103 258 -235 54 -44 110 -90 124 -102
13 -13 28 -23 33 -23 6 0 27 -15 48 -32 21 -18 56 -42 77 -53 21 -10 45 -25
54 -33 30 -24 272 -143 354 -174 139 -51 308 -108 370 -124 33 -8 82 -24 110
-36 27 -11 81 -26 120 -34 38 -7 88 -18 110 -24 22 -7 76 -20 120 -30 44 -11
100 -26 124 -35 24 -8 65 -15 92 -15 27 0 89 -9 137 -19 48 -11 164 -27 257
-35 94 -9 199 -20 235 -25 36 -6 110 -15 165 -21 55 -6 114 -14 130 -16 17 -3
75 -9 130 -14 55 -4 127 -15 160 -24 33 -8 114 -24 180 -36 66 -11 170 -34
230 -50 61 -17 153 -42 205 -56 101 -27 144 -45 278 -119 100 -54 142 -85 200
-145 41 -42 102 -154 102 -186 0 -8 6 -28 14 -43 28 -54 84 -267 92 -351 12
-120 8 -300 -6 -314 -7 -6 -48 -11 -103 -11 l-91 0 -10 -33 c-10 -37 10 -85
54 -127 47 -44 115 -122 155 -178 22 -31 44 -57 48 -57 5 0 22 -9 37 -20 18
-13 48 -21 80 -23 50 -2 52 -1 64 33 7 19 34 65 59 101 26 37 47 69 47 72 0 2
23 46 51 96 37 68 49 100 47 124 -3 31 -5 32 -43 29 -22 -1 -74 -4 -115 -6
-41 -2 -98 -6 -125 -9 -28 -4 -55 -3 -61 1 -7 5 -8 34 -3 87 5 51 2 133 -7
225 -18 184 -28 235 -68 340 -18 47 -39 108 -46 135 -17 63 -49 115 -114 183
-51 55 -153 127 -214 151 -18 8 -36 19 -40 25 -9 15 -77 43 -122 51 -44 8
-193 52 -240 71 -19 8 -55 18 -80 24 -25 5 -81 18 -125 30 -44 12 -116 27
-160 35 -44 7 -102 18 -130 25 -27 6 -79 14 -115 16 -63 4 -209 25 -319 44
-29 5 -57 8 -61 5 -4 -3 -113 9 -241 26 -129 17 -274 34 -324 39 -141 14 -188
21 -215 35 -28 15 -95 29 -123 27 -10 0 -34 8 -53 19 -19 10 -43 19 -54 19
-10 0 -43 7 -72 15 -67 18 -148 39 -215 54 -28 7 -69 21 -89 32 -21 10 -54 21
-73 25 -20 3 -45 9 -56 13 -11 5 -54 20 -95 34 -155 53 -371 151 -455 207 -22
15 -67 41 -100 59 -67 37 -140 89 -230 166 -33 28 -82 68 -110 88 -66 49 -130
118 -374 399 -54 62 -86 107 -80 112 2 2 27 23 54 46 28 24 60 58 73 77 l23
34 70 -7 c111 -11 189 30 189 100 0 27 -58 79 -108 97 -17 6 -32 19 -35 30 -7
25 -41 25 -78 -2 -25 -18 -29 -25 -23 -53 4 -25 0 -39 -18 -62 -13 -16 -36
-47 -50 -69 -32 -49 -121 -145 -134 -145 -6 0 -29 34 -52 75 -44 76 -158 220
-231 290 -22 21 -41 44 -41 51 0 6 -18 34 -40 62 -22 27 -40 53 -40 56 0 3
-15 30 -34 59 -19 29 -41 69 -49 88 -7 18 -31 61 -52 94 -49 76 -109 198 -136
278 -16 44 -24 101 -29 197 -9 151 -18 219 -33 238 -13 17 -52 15 -67 -3z
m1141 -1271 c43 -22 22 -44 -42 -44 -53 0 -63 14 -33 44 20 20 37 20 75 0z"/>
<path d="M9993 8170 c-38 -23 -42 -47 -13 -78 27 -29 37 -28 71 9 35 37 36 45
7 70 -29 23 -26 23 -65 -1z"/>
<path d="M7132 8148 c-20 -20 -14 -42 15 -55 40 -19 58 0 36 38 -19 31 -32 36
-51 17z"/>
<path d="M8248 8075 c-10 -22 -9 -29 10 -48 18 -17 26 -19 40 -11 21 14 28 50
12 70 -19 22 -49 17 -62 -11z"/>
<path d="M8960 8028 c-11 -18 -20 -35 -20 -38 0 -3 14 -11 32 -18 43 -16 54
-3 42 45 -12 48 -29 52 -54 11z"/>
<path d="M11216 7920 c-41 -13 -65 -38 -72 -77 -7 -38 2 -62 50 -131 l30 -42
-29 -30 c-20 -21 -25 -33 -18 -42 6 -7 14 -40 18 -73 11 -91 25 -117 78 -138
41 -16 48 -17 81 -3 39 16 80 72 70 96 -4 8 -13 33 -21 54 -8 22 -23 52 -35
68 l-20 29 23 26 c21 22 24 34 23 99 -1 64 -5 79 -28 109 -44 58 -87 73 -150
55z m79 -66 c21 -8 45 -56 45 -90 0 -32 -25 -64 -51 -64 -21 0 -84 95 -82 123
3 33 45 47 88 31z m16 -287 c52 -43 65 -100 27 -111 -52 -14 -69 -1 -78 60
-12 78 3 92 51 51z"/>
<path d="M10900 7868 c-34 -13 -61 -38 -75 -72 -11 -27 -10 -34 17 -78 27 -43
29 -53 19 -75 -8 -18 -9 -29 -2 -36 7 -7 3 -21 -15 -44 -17 -23 -25 -46 -26
-75 0 -37 5 -47 37 -75 30 -26 49 -33 101 -38 45 -5 69 -4 79 5 23 19 28 72
12 113 -9 19 -13 38 -10 41 3 2 -5 23 -17 44 l-23 40 38 46 c35 43 37 48 30
95 -5 34 -14 56 -33 74 -33 30 -99 47 -132 35z m86 -81 c34 -30 28 -63 -17
-94 l-32 -22 -24 44 c-26 50 -28 66 -11 83 19 19 54 14 84 -11z m-6 -266 c12
-27 20 -56 17 -64 -9 -23 -53 -26 -88 -5 -26 16 -30 23 -25 44 10 39 36 74 55
74 11 0 26 -18 41 -49z"/>
<path d="M10292 7826 c-57 -31 -64 -89 -19 -167 20 -35 20 -37 3 -54 -53 -53
-65 -146 -28 -207 22 -36 69 -68 99 -68 36 1 103 39 113 65 23 61 22 71 -14
118 -20 26 -36 52 -36 59 0 6 12 27 26 46 23 30 26 40 21 85 -11 88 -103 157
-165 123z m73 -68 c28 -13 40 -45 31 -83 -14 -56 -63 -36 -84 33 -10 32 -9 39
5 50 20 15 16 15 48 0z m12 -233 c21 -10 33 -25 37 -47 7 -36 -3 -51 -45 -68
-56 -24 -95 15 -79 80 4 19 36 47 56 50 0 0 15 -7 31 -15z"/>
<path d="M10546 7798 c-49 -49 -54 -80 -22 -126 31 -46 31 -46 6 -80 -11 -15
-22 -52 -26 -84 -6 -53 -5 -58 21 -82 44 -41 89 -51 141 -31 61 23 67 51 26
128 l-32 59 35 41 c57 66 46 154 -22 182 -74 31 -89 31 -127 -7z m117 -53 c9
-4 17 -14 17 -22 0 -16 -53 -73 -68 -73 -5 0 -17 16 -28 36 l-19 36 23 19 c23
18 40 19 75 4z m-36 -212 c3 -10 12 -25 20 -34 28 -33 -37 -62 -68 -30 -4 3
-9 18 -13 32 -4 21 -1 28 17 37 31 15 37 14 44 -5z"/>
<path d="M7510 7725 c-12 -11 -14 -35 -10 -117 3 -57 5 -163 3 -236 l-2 -133
32 3 32 3 -3 230 c-2 127 -5 238 -8 248 -6 21 -25 22 -44 2z"/>
<path d="M10038 7695 c-9 -21 -8 -28 7 -45 21 -24 48 -26 65 -5 10 12 10 21 0
45 -16 39 -55 42 -72 5z"/>
<path d="M7871 7686 c-5 -6 -37 -66 -70 -133 -53 -106 -62 -131 -67 -197 -6
-60 -4 -80 9 -100 30 -45 115 -44 171 3 37 31 68 91 61 119 -5 25 -61 72 -84
72 -5 0 -22 5 -36 10 l-27 10 52 96 c28 53 49 102 46 109 -6 17 -43 25 -55 11z
m38 -310 c23 -24 -1 -62 -54 -88 -41 -20 -47 -21 -61 -6 -13 13 -14 22 -4 59
7 24 17 48 24 52 16 11 77 0 95 -17z"/>
<path d="M8066 7667 c-20 -43 -10 -147 15 -147 21 0 7 -48 -22 -74 -32 -29
-29 -48 12 -61 11 -4 19 -15 19 -27 0 -32 37 -84 70 -98 40 -17 78 -6 86 25 9
37 -5 50 -27 26 -23 -25 -45 -18 -64 20 -35 66 1 96 46 40 34 -43 44 -26 14
26 -14 25 -25 49 -25 54 0 5 14 28 30 51 45 62 38 94 -39 166 -48 45 -93 45
-115 -1z m91 -35 c19 -15 27 -42 24 -79 -1 -17 -36 -34 -54 -27 -28 10 -31
124 -3 124 6 0 21 -8 33 -18z"/>
<path d="M9449 7684 c-24 -29 16 -49 102 -52 75 -3 199 -20 199 -28 0 -3 -8
-17 -18 -32 -46 -66 -72 -109 -72 -115 0 -3 -13 -25 -28 -49 -16 -24 -35 -58
-42 -76 -11 -29 -11 -35 3 -49 8 -9 22 -13 29 -10 12 4 77 106 131 207 10 19
37 54 59 77 39 40 40 43 28 72 -12 30 -66 58 -93 48 -7 -2 -52 2 -102 9 -127
18 -180 17 -196 -2z"/>
<path d="M6434 7667 c-62 -33 -109 -77 -134 -124 -26 -51 -21 -70 25 -101 28
-20 41 -23 76 -17 22 4 48 16 57 26 35 41 45 19 57 -126 8 -97 14 -115 39
-115 30 0 38 21 25 58 -5 16 -9 33 -8 38 2 5 -1 38 -5 74 -5 36 -10 81 -11
100 -1 37 -22 163 -31 193 -7 23 -40 21 -90 -6z m26 -91 c0 -31 -60 -96 -89
-96 -18 0 -20 4 -15 28 6 28 69 92 92 92 6 0 12 -11 12 -24z"/>
<path d="M6660 7669 c-16 -28 4 -49 46 -49 36 0 84 -18 84 -32 0 -4 7 -8 15
-8 29 0 88 -88 78 -116 -3 -8 -16 -7 -46 3 -37 13 -45 13 -72 -1 -16 -9 -40
-31 -52 -49 -37 -54 -29 -90 24 -112 45 -19 100 -19 137 0 45 24 61 18 106
-35 43 -51 68 -61 89 -36 10 12 5 20 -24 43 -19 15 -51 51 -70 80 -27 41 -33
58 -29 85 18 112 -239 316 -286 227z m185 -261 c33 -15 32 -34 -5 -53 -77 -40
-121 12 -45 53 25 14 20 14 50 0z"/>
<path d="M6075 7640 c-3 -11 3 -63 15 -116 11 -52 24 -145 29 -206 10 -115 23
-147 56 -134 14 5 16 16 11 69 -3 34 -6 83 -6 109 0 26 -5 50 -10 53 -6 3 -10
32 -10 64 0 86 -37 179 -72 181 -4 0 -9 -9 -13 -20z"/>
<path d="M8775 7611 c-69 -32 -89 -95 -64 -197 8 -32 23 -54 52 -79 22 -19 48
-35 57 -35 9 0 40 12 70 28 70 35 130 111 130 164 0 51 -44 101 -109 122 -63
20 -87 20 -136 -3z m173 -64 c27 -32 24 -63 -10 -108 -44 -58 -79 -75 -119
-59 -37 16 -49 37 -49 86 0 27 7 46 27 66 23 24 34 28 84 28 33 0 61 -5 67
-13z"/>
<path d="M10016 7417 c-24 -18 -8 -52 29 -61 32 -8 45 -1 45 24 0 49 -35 66
-74 37z"/>
<path d="M7273 7338 c-28 -13 -30 -39 -5 -61 26 -24 55 -2 50 38 -4 33 -14 38
-45 23z"/>
<path d="M9162 7328 c-27 -27 -6 -68 36 -68 21 0 23 4 20 38 -2 28 -8 38 -23
40 -11 1 -26 -3 -33 -10z"/>
<path d="M8442 7318 c-19 -19 -14 -38 14 -48 45 -18 56 -13 52 23 -2 26 -8 33
-28 35 -14 2 -31 -3 -38 -10z"/>
<path d="M11479 7113 c-73 -38 -199 -146 -199 -172 0 -7 15 -28 34 -47 29 -29
41 -34 83 -34 43 0 54 5 92 40 39 37 70 51 72 33 0 -5 11 -60 22 -123 21 -112
23 -115 50 -118 18 -2 29 2 33 12 6 15 -17 135 -57 298 -10 43 -19 88 -19 101
0 22 -16 47 -31 47 -4 0 -40 -17 -80 -37z m51 -70 c0 -9 -24 -40 -53 -70 -42
-42 -61 -53 -85 -53 -25 0 -32 4 -32 20 0 12 10 24 24 30 13 5 27 14 31 20 8
14 95 70 107 70 4 0 8 -7 8 -17z"/>
<path d="M11840 7141 c-43 -9 -110 -51 -139 -87 -31 -39 -29 -107 5 -141 23
-23 31 -25 89 -21 49 3 74 11 115 36 28 18 53 32 55 32 1 0 6 -26 10 -57 10
-89 46 -221 60 -227 7 -2 21 1 31 9 18 13 18 17 -4 127 -13 69 -22 152 -22
210 0 75 -3 98 -16 109 -13 11 -21 11 -44 -3 -27 -15 -28 -15 -33 3 -5 20 -38
23 -107 10z m120 -52 c0 -18 -21 -53 -53 -87 -32 -33 -115 -66 -142 -55 -41
15 4 85 71 110 16 6 47 18 69 26 50 19 55 19 55 6z"/>
<path d="M11120 7106 c-123 -44 -195 -151 -160 -236 28 -68 132 -92 189 -44
17 14 35 23 39 20 5 -3 12 -42 15 -86 7 -94 10 -100 42 -100 32 0 38 26 25
102 -7 34 -11 89 -10 123 5 149 2 175 -24 186 -13 6 -27 20 -29 30 -6 22 -36
24 -87 5z m67 -81 c3 -25 -56 -144 -78 -158 -9 -5 -32 -7 -52 -3 -33 6 -37 10
-37 36 0 51 51 115 112 139 33 14 53 9 55 -14z"/>
<path d="M10790 7104 c-33 -11 -142 -69 -159 -86 -66 -60 -85 -116 -58 -167
15 -30 72 -61 112 -61 30 0 99 39 122 69 20 28 27 3 24 -93 -2 -88 -1 -95 20
-110 13 -9 29 -16 35 -16 17 0 36 58 25 78 -5 10 -11 87 -14 172 -6 183 -17
220 -62 219 -16 0 -37 -3 -45 -5z m13 -124 c-22 -57 -31 -71 -70 -104 -30 -25
-35 -26 -73 -15 -26 8 -40 18 -40 29 0 19 44 61 105 101 90 60 104 57 78 -11z"/>
<path d="M4753 7039 c-12 -4 -32 -27 -43 -49 -24 -48 -80 -127 -107 -152 -10
-9 -34 -37 -53 -62 -19 -24 -52 -52 -73 -60 -37 -16 -37 -16 -21 -41 9 -14 21
-25 26 -25 47 0 231 187 307 312 33 56 14 96 -36 77z"/>
<path d="M9866 7034 c-9 -8 -16 -17 -16 -19 0 -12 53 -37 106 -51 72 -18 99
-35 124 -77 40 -65 17 -135 -33 -102 -14 8 -40 20 -58 25 -75 22 -155 -85
-107 -145 10 -13 35 -29 55 -34 30 -9 45 -6 94 14 32 14 62 25 66 25 5 0 35
-22 68 -49 33 -27 63 -47 67 -45 23 14 5 54 -43 94 -51 43 -51 43 -45 89 11
78 6 112 -22 155 -32 48 -85 84 -165 114 -70 26 -71 26 -91 6z m148 -294 c14
-5 26 -14 26 -20 0 -13 -61 -40 -90 -40 -24 0 -27 31 -4 54 18 18 33 20 68 6z"/>
<path d="M9571 7011 c-9 -6 -12 -38 -9 -127 l3 -119 -40 -19 c-22 -10 -53 -19
-70 -20 -28 -1 -30 1 -37 54 -17 125 -52 188 -83 146 -12 -15 -12 -22 0 -40 7
-11 24 -65 36 -120 29 -120 41 -130 123 -91 69 33 76 32 76 -9 0 -18 3 -48 6
-65 5 -26 11 -31 35 -31 l28 0 -6 69 c-7 80 -3 84 74 84 29 0 56 4 59 8 3 5
-6 20 -19 33 -20 20 -31 23 -69 19 -55 -6 -58 0 -58 129 0 74 -3 89 -18 97
-10 5 -24 6 -31 2z"/>
<path d="M10352 6988 c-22 -22 -14 -64 14 -76 35 -17 64 0 64 36 0 33 -16 52
-45 52 -12 0 -26 -5 -33 -12z"/>
<path d="M8070 6939 c-60 -24 -107 -97 -96 -151 7 -35 32 -68 53 -68 18 0 16
-30 -3 -52 -14 -14 -14 -20 -4 -33 8 -10 10 -29 6 -59 -8 -51 11 -108 42 -125
70 -37 155 -27 199 23 22 26 22 26 4 66 -10 22 -33 54 -50 69 -27 24 -31 33
-22 49 7 13 7 22 0 29 -7 7 0 26 20 59 19 29 31 61 31 81 0 40 -23 89 -48 102
-28 15 -105 20 -132 10z m108 -69 c12 -12 22 -25 22 -31 0 -27 -56 -100 -92
-120 -13 -7 -25 -1 -52 27 -40 42 -43 52 -20 95 26 50 102 66 142 29z m-29
-255 c9 -8 30 -26 47 -40 60 -47 51 -84 -20 -92 -40 -5 -51 -2 -72 18 -21 19
-25 30 -20 58 5 30 30 71 44 71 3 0 12 -7 21 -15z"/>
<path d="M7457 6917 c-5 -14 -10 -159 -11 -327 l-1 -85 33 -3 32 -3 2 143 c4
244 -2 288 -37 288 -7 0 -15 -6 -18 -13z"/>
<path d="M7808 6893 c-64 -68 -163 -256 -174 -329 -8 -55 7 -80 68 -113 38
-20 48 -22 84 -12 55 15 106 50 123 86 12 25 12 32 -5 62 -22 43 -63 73 -109
80 -20 3 -38 9 -41 14 -7 12 27 75 81 147 25 35 44 70 41 78 -9 22 -40 16 -68
-13z m29 -295 c13 -12 23 -30 23 -40 0 -39 -123 -84 -156 -57 -18 15 -14 80 6
104 20 24 99 19 127 -7z"/>
<path d="M8764 6889 c-46 -19 -68 -42 -89 -92 -27 -64 -18 -134 28 -226 13
-25 78 -60 113 -61 44 0 127 33 163 66 46 41 66 101 59 175 -4 42 -12 57 -44
90 -58 59 -156 80 -230 48z m183 -71 c9 -7 24 -30 33 -51 16 -34 16 -42 3 -80
-19 -54 -38 -76 -91 -99 -61 -27 -95 -17 -137 40 -53 72 -44 160 19 194 51 28
137 26 173 -4z"/>
<path d="M6098 6888 c-14 -11 -15 -23 -7 -73 5 -33 11 -141 15 -240 4 -152 8
-182 22 -193 9 -7 23 -11 32 -10 17 4 17 5 7 243 -9 205 -12 231 -31 260 -19
29 -18 29 -38 13z"/>
<path d="M6442 6844 c-109 -53 -192 -149 -192 -222 0 -48 68 -90 117 -71 37
14 81 56 100 97 15 32 32 42 34 20 0 -7 2 -47 3 -88 2 -83 19 -122 51 -118 14
2 20 10 19 28 -1 14 -5 97 -8 185 -5 116 -11 165 -21 182 -9 13 -19 23 -23 23
-4 -1 -40 -17 -80 -36z m18 -81 c0 -5 -13 -31 -30 -59 -59 -103 -150 -145
-119 -54 17 46 149 147 149 113z"/>
<path d="M6673 6860 c-13 -5 -23 -12 -23 -16 0 -15 37 -33 66 -34 17 0 52 -9
77 -20 40 -18 47 -26 62 -70 23 -70 18 -95 -20 -94 -16 1 -40 5 -51 9 -28 9
-94 -47 -94 -80 0 -51 85 -72 154 -38 l35 16 60 -51 c65 -57 100 -75 122 -62
11 7 9 14 -11 34 -13 15 -28 26 -33 26 -5 0 -28 21 -52 48 -43 46 -44 49 -45
115 0 77 -23 134 -66 164 -14 10 -38 28 -54 41 -30 23 -85 29 -127 12z m137
-295 c0 -15 -46 -32 -57 -21 -10 9 18 36 38 36 11 0 19 -7 19 -15z"/>
<path d="M4710 6790 c-20 -13 -31 -137 -13 -152 8 -6 11 -19 8 -29 -4 -12 -1
-19 6 -19 10 0 10 -3 2 -11 -15 -15 -63 4 -98 38 -21 22 -26 23 -31 9 -10 -25
4 -65 31 -90 34 -32 99 -50 126 -35 22 11 23 32 5 173 -3 21 -3 43 0 47 3 5
28 -3 55 -17 30 -15 58 -22 70 -19 40 13 14 54 -57 90 -52 26 -80 31 -104 15z"/>
<path d="M10380 6745 c-12 -22 -11 -27 5 -45 37 -41 90 -5 67 44 -15 34 -54
35 -72 1z"/>
<path d="M9150 6560 c-16 -16 -18 -24 -10 -41 26 -48 80 -25 63 27 -12 36 -27
40 -53 14z"/>
<path d="M8423 6550 c-7 -10 -10 -26 -7 -34 8 -22 54 -30 72 -12 13 13 13 18
-2 40 -20 31 -47 33 -63 6z"/>
<path d="M7204 6517 c-30 -16 -34 -30 -17 -49 31 -34 82 -11 68 31 -8 25 -26
32 -51 18z"/>
<path d="M3095 6362 c-58 -28 -135 -122 -135 -166 0 -28 34 -37 66 -17 34 21
125 108 139 134 7 12 16 16 28 12 24 -10 22 -21 -18 -95 -49 -92 -48 -88 -41
-105 6 -18 46 -12 83 13 12 7 26 12 31 10 10 -3 -15 -61 -53 -123 -28 -47 -32
-90 -8 -99 17 -7 63 28 63 48 0 6 18 39 39 73 48 75 62 144 36 173 -10 11 -26
20 -36 20 -15 0 -17 9 -16 55 1 31 -4 60 -11 67 -21 21 -122 21 -167 0z"/>
<path d="M5157 6359 c-11 -7 -16 -17 -12 -29 3 -10 -5 -45 -18 -77 -31 -74
-42 -123 -28 -123 6 0 11 -7 11 -16 0 -10 7 -14 21 -12 14 2 27 20 44 62 43
107 97 139 171 103 41 -19 74 -18 74 2 0 6 -10 16 -22 22 -13 6 -35 22 -49 36
-21 19 -37 24 -78 25 -28 0 -54 4 -57 9 -7 12 -35 11 -57 -2z"/>
<path d="M5380 6206 c-35 -21 -55 -39 -56 -52 0 -10 -5 -29 -12 -41 -17 -31
-15 -58 8 -104 29 -56 92 -99 144 -98 39 2 76 22 76 42 0 5 -12 6 -26 3 -35
-9 -93 10 -126 42 -44 41 -34 127 10 90 62 -53 165 -58 202 -10 55 69 -12 162
-116 162 -37 -1 -62 -9 -104 -34z m165 -46 c17 -19 17 -22 3 -37 -12 -12 -27
-14 -60 -9 -94 15 -101 66 -8 66 34 0 52 -5 65 -20z"/>
<path d="M5673 6108 c-66 -69 -110 -218 -65 -218 24 0 46 25 61 69 13 41 59
103 70 96 19 -11 31 -94 20 -137 -24 -92 -23 -112 7 -148 48 -56 118 -73 193
-46 42 15 63 42 42 55 -7 5 -43 6 -79 3 -55 -4 -67 -2 -79 13 -16 23 -17 77
-1 93 22 22 73 14 109 -18 19 -16 40 -29 48 -27 8 1 20 25 28 52 8 28 17 59
22 70 7 17 50 109 58 125 2 3 -3 14 -10 23 -21 30 -47 9 -82 -67 -37 -82 -58
-104 -79 -87 -8 7 -35 11 -60 10 -25 -2 -48 0 -51 2 -3 3 -9 29 -15 57 -15 83
-35 112 -73 112 -24 0 -42 -9 -64 -32z"/>
<path d="M3389 5998 c-37 -49 -79 -124 -79 -141 0 -41 47 -23 105 39 41 43 89
64 106 47 12 -12 -9 -70 -35 -95 -9 -9 -13 -23 -10 -31 9 -24 46 -28 105 -13
31 9 58 11 63 6 5 -5 0 -38 -13 -78 -18 -55 -20 -74 -12 -91 35 -64 100 34
101 150 0 53 -30 87 -83 91 l-42 3 -6 49 c-7 60 -33 78 -140 93 -31 4 -38 1
-60 -29z"/>
<path d="M6145 5897 c-52 -29 -80 -84 -78 -155 1 -47 6 -59 34 -89 42 -43 70
-56 132 -58 38 -1 51 2 62 18 20 28 10 38 -33 31 -28 -4 -48 0 -81 18 -24 12
-44 28 -45 33 -1 6 40 13 91 17 109 8 130 17 141 61 12 45 -19 91 -78 116 -76
32 -101 33 -145 8z m132 -70 c48 -35 30 -51 -62 -57 -96 -6 -110 5 -60 49 43
37 79 40 122 8z"/>
<path d="M7222 5877 c-6 -7 -12 -53 -15 -102 -5 -96 -15 -148 -41 -207 -20
-47 -20 -82 0 -99 22 -18 47 0 55 39 11 56 78 142 110 142 24 0 56 -56 64
-113 9 -56 55 -112 85 -102 13 4 26 -3 42 -26 43 -58 129 -84 175 -53 36 23
27 34 -24 34 -57 0 -116 31 -111 58 3 14 18 18 83 23 87 6 118 18 135 49 14
26 -7 67 -52 100 -25 19 -45 25 -83 25 -67 0 -96 -20 -131 -94 -16 -33 -32
-60 -36 -61 -3 0 -12 17 -19 38 -6 20 -14 42 -18 47 -3 6 -10 30 -16 55 -8 34
-18 50 -45 68 -34 23 -57 24 -104 6 -16 -6 -18 -4 -11 12 4 10 10 47 11 81 3
46 0 66 -12 77 -19 19 -28 20 -42 3z m488 -316 c0 -10 -7 -22 -16 -25 -20 -8
-78 -8 -99 0 -14 6 -14 8 1 25 12 14 31 19 66 19 40 0 48 -3 48 -19z"/>
<path d="M6402 5798 c-14 -19 -26 -94 -23 -158 2 -62 25 -96 58 -86 18 6 73
78 73 96 0 4 22 28 50 54 55 51 75 56 156 31 91 -27 139 -13 72 21 -18 9 -41
23 -50 31 -9 8 -43 17 -76 20 -52 5 -66 2 -110 -22 -27 -15 -59 -40 -71 -56
-32 -42 -40 -36 -34 26 5 50 4 55 -14 55 -11 0 -25 -6 -31 -12z"/>
<path d="M3800 5691 c-5 -11 -10 -27 -10 -37 0 -9 -9 -31 -20 -49 -16 -26 -17
-35 -7 -49 17 -23 54 -9 91 34 33 40 45 32 23 -15 -9 -20 -17 -42 -17 -50 0
-24 53 -27 100 -6 25 11 46 18 48 16 2 -2 -4 -18 -14 -36 -9 -19 -22 -57 -29
-86 -12 -50 -11 -53 10 -67 30 -20 51 -3 58 44 3 19 15 62 28 95 15 42 20 69
15 89 -7 27 -9 28 -59 24 l-52 -4 3 46 c3 42 1 47 -23 58 -14 7 -50 12 -80 12
-43 0 -56 -4 -65 -19z"/>
<path d="M8401 5639 c-17 -19 -41 -95 -41 -132 0 -7 -5 -29 -10 -49 l-11 -37
-62 6 c-54 5 -64 3 -81 -16 -26 -29 -16 -86 23 -125 25 -25 40 -30 89 -34 41
-3 68 1 90 12 17 9 33 16 36 16 3 0 4 -33 3 -73 -1 -69 1 -75 33 -115 18 -23
38 -42 44 -42 6 0 24 -7 39 -15 26 -13 32 -13 77 10 60 30 68 31 72 4 2 -12
11 -27 22 -33 15 -9 22 -6 40 18 43 60 91 108 116 118 14 5 48 10 75 9 66 0
82 10 56 33 -32 29 -104 38 -158 20 -27 -9 -59 -13 -79 -10 -37 8 -42 3 -59
-63 -8 -34 -16 -46 -31 -47 -10 0 -38 -7 -60 -14 -40 -12 -44 -11 -77 14 -25
19 -36 36 -39 60 -6 52 -1 56 63 56 96 0 160 39 142 87 -37 100 -145 117 -234
36 -21 -19 -39 -31 -39 -25 0 5 -9 12 -20 15 -19 5 -20 10 -14 89 4 45 18 114
30 152 18 52 21 72 13 83 -16 18 -25 16 -48 -8z m-76 -294 c25 -21 28 -27 15
-35 -8 -5 -22 -10 -30 -10 -25 0 -60 30 -60 51 0 27 38 24 75 -6z m310 -50 c0
-16 -8 -20 -40 -23 -47 -3 -70 9 -62 33 5 12 17 15 54 13 40 -3 48 -6 48 -23z"/>
<path d="M7863 5551 c-25 -12 -52 -35 -68 -60 l-27 -40 21 -44 c22 -45 53 -67
96 -67 31 0 103 28 135 53 l25 19 15 -51 c19 -64 30 -75 55 -57 17 12 17 16 6
30 -10 12 -12 36 -8 92 4 47 3 83 -4 96 -26 48 -166 65 -246 29z m173 -46 c4
-9 -4 -24 -17 -36 -36 -31 -126 -71 -151 -67 -29 4 -35 34 -11 60 42 47 166
77 179 43z"/>
<path d="M4156 5461 c-3 -4 -19 -50 -36 -100 -25 -73 -29 -96 -19 -107 18 -22
45 -17 85 18 l36 32 23 -28 c19 -23 28 -27 63 -25 23 2 44 0 48 -3 3 -4 -2
-45 -11 -91 -13 -65 -14 -90 -6 -106 13 -24 12 -24 44 -12 19 8 26 19 31 58
24 166 18 196 -39 212 -20 5 -44 7 -52 4 -13 -5 -15 -2 -8 18 4 13 10 45 12
72 l5 47 -39 0 c-21 0 -45 -4 -53 -9 -10 -7 -18 -4 -28 10 -13 19 -47 26 -56
10z"/>
<path d="M9140 5292 c-47 -16 -31 -47 37 -72 68 -25 94 -43 85 -57 -4 -6 -45
-31 -92 -55 -99 -52 -120 -79 -99 -124 15 -31 82 -69 105 -60 27 10 29 38 5
58 -31 24 -22 65 16 74 15 4 42 17 61 30 18 13 42 26 51 29 10 3 26 21 36 39
23 42 13 59 -43 77 -20 7 -46 18 -57 25 -35 23 -90 42 -105 36z"/>
<path d="M4627 5203 c-9 -10 -29 -18 -45 -18 -22 -1 -32 -11 -59 -61 -36 -67
-39 -86 -18 -104 18 -15 48 -5 83 27 26 24 27 24 36 4 11 -24 50 -32 87 -17
24 10 49 -20 49 -58 0 -18 -7 -57 -16 -86 -15 -51 -15 -55 2 -67 57 -42 87 11
82 143 -4 109 -11 121 -82 127 -28 2 -52 9 -54 15 -2 6 2 28 7 49 9 32 8 40
-6 51 -23 17 -46 15 -66 -5z"/>
<path d="M5154 5182 c-9 -6 -67 -92 -153 -227 -14 -22 -40 -59 -58 -82 -28
-35 -32 -45 -23 -67 14 -38 39 -32 92 20 l46 45 12 -58 c15 -72 31 -104 69
-136 21 -17 37 -23 55 -20 38 8 41 20 8 37 -16 8 -35 29 -42 47 -16 37 -15
148 0 163 6 6 55 11 113 11 l102 0 3 33 3 32 -98 -1 c-87 -1 -153 10 -153 26
0 9 48 83 58 89 17 10 25 78 10 87 -16 11 -30 11 -44 1z"/>
<path d="M9040 4785 c-11 -13 -10 -22 3 -50 22 -47 56 -46 71 2 15 49 -43 86
-74 48z"/>
<path d="M5320 4769 c-47 -19 -70 -48 -63 -83 3 -17 11 -36 17 -43 15 -16 145
-33 174 -22 22 9 22 8 18 -54 -3 -49 1 -69 16 -94 16 -28 23 -31 39 -23 18 10
24 26 21 60 -1 8 4 43 9 78 9 47 8 66 -1 77 -7 9 -9 26 -5 45 6 28 4 32 -37
50 -47 21 -145 26 -188 9z m108 -45 c38 -11 25 -48 -18 -54 -37 -6 -90 6 -90
21 0 11 50 38 70 38 8 1 25 -2 38 -5z"/>
<path d="M6121 4655 c-26 -56 -71 -191 -71 -214 0 -10 6 -26 14 -36 12 -16 16
-17 30 -6 9 7 16 22 16 33 0 11 6 32 14 46 7 15 32 66 54 114 40 83 41 88 22
98 -38 20 -57 12 -79 -35z"/>
<path d="M5666 4588 c-19 -26 -21 -100 -4 -127 15 -24 -1 -46 -40 -56 -15 -3
-55 -20 -88 -36 -34 -16 -68 -29 -75 -29 -29 0 -89 -21 -104 -37 -15 -14 -14
-17 1 -34 27 -30 108 -19 247 35 65 25 123 46 130 46 25 1 164 98 170 119 3
14 0 21 -9 21 -8 0 -14 5 -14 10 0 16 -27 12 -70 -10 -22 -11 -44 -20 -49 -20
-15 0 -29 60 -23 98 3 24 1 32 -11 32 -8 0 -22 3 -30 6 -9 3 -22 -4 -31 -18z"/>
<path d="M6068 4239 c-24 -13 -24 -74 -2 -87 28 -15 52 -2 67 36 15 37 15 37
-15 49 -17 7 -31 13 -32 13 0 0 -9 -5 -18 -11z"/>
<path d="M9894 3936 c-34 -26 -6 -49 82 -69 43 -10 80 -20 82 -22 8 -8 -35
-74 -81 -122 -47 -50 -49 -55 -37 -78 7 -14 17 -25 22 -25 16 0 88 73 123 125
19 30 40 57 46 61 18 11 40 74 34 95 -5 15 -16 19 -54 19 -27 0 -68 7 -91 15
-54 19 -101 19 -126 1z"/>
<path d="M10617 3936 c-50 -18 -52 -21 -39 -51 12 -26 25 -27 135 -10 57 9 46
-21 -54 -145 -47 -59 -52 -74 -28 -99 23 -25 47 -27 75 -7 16 13 17 18 7 35
-11 18 -9 24 12 48 14 15 50 59 81 96 50 62 55 72 50 103 -6 32 -10 34 -45 34
-21 0 -65 2 -97 5 -38 4 -72 0 -97 -9z"/>
<path d="M9575 3927 c-48 -29 -47 -28 -30 -47 11 -13 33 -19 73 -20 93 -3 92
-3 92 -27 0 -12 -5 -25 -10 -28 -6 -3 -37 -38 -71 -76 -47 -56 -58 -75 -53
-92 9 -29 9 -30 33 -22 11 3 53 45 94 93 94 113 113 140 121 179 7 28 5 32
-21 37 -67 13 -209 15 -228 3z"/>
<path d="M10263 3926 c-58 -26 -38 -56 37 -56 20 0 52 -3 69 -6 l31 -7 -20
-32 c-11 -18 -36 -50 -56 -71 -20 -22 -44 -51 -55 -65 -18 -26 -18 -28 -1 -49
17 -22 19 -22 50 -6 33 17 82 74 82 96 0 7 21 42 46 77 40 56 45 68 36 88 -17
36 -161 57 -219 31z"/>
<path d="M13895 3579 c-152 -9 -378 -38 -547 -70 -96 -18 -155 -24 -404 -45
-45 -3 -104 0 -163 10 -108 19 -156 20 -196 2 l-30 -12 -2 -270 c-2 -148 -5
-296 -7 -329 -2 -33 -7 -164 -11 -291 -3 -127 -8 -244 -10 -260 -2 -16 -4
-270 -4 -564 0 -621 1 -536 -8 -680 -11 -162 -2 -398 16 -409 23 -14 49 -1 55
30 7 36 -7 33 326 69 54 6 119 3 235 -11 88 -10 189 -19 225 -19 36 0 81 -5
100 -10 20 -5 117 -12 215 -14 389 -10 508 -17 590 -39 62 -16 118 -21 250
-23 94 -2 238 -8 320 -15 201 -16 499 -14 603 4 46 8 124 15 174 16 50 1 134
11 187 21 152 30 299 44 547 54 66 3 132 9 145 14 13 5 116 12 229 16 113 4
241 9 285 12 44 4 107 7 140 9 33 2 98 8 144 14 46 7 110 14 142 16 32 2 71 6
86 9 15 3 56 8 91 11 112 9 148 39 139 118 -9 73 -16 242 -22 522 -3 132 -9
257 -14 278 -5 21 -10 104 -11 185 -1 81 -4 185 -5 232 -2 47 -4 301 -5 565
-2 442 -4 488 -23 587 -18 91 -24 108 -44 117 -27 12 -269 31 -473 36 -87 2
-175 10 -220 20 -55 12 -132 18 -285 19 -115 2 -239 8 -275 14 -36 6 -195 14
-355 17 -159 2 -348 8 -420 11 -71 3 -309 6 -528 5 -356 -1 -411 1 -523 19
-135 22 -382 25 -659 9z m599 -99 c50 -6 111 -15 136 -21 41 -9 330 -11 495
-4 39 1 273 -3 520 -11 248 -8 518 -14 602 -14 86 0 164 -5 180 -11 15 -6 124
-15 242 -20 117 -4 221 -11 230 -13 44 -14 206 -28 286 -26 50 2 97 2 105 2 8
-1 79 -4 158 -8 117 -6 144 -10 151 -23 27 -53 31 -157 30 -697 -1 -531 5
-863 17 -929 10 -61 25 -768 16 -777 -12 -12 -165 -32 -362 -48 -80 -7 -158
-14 -175 -15 -16 -2 -122 -7 -235 -10 -113 -4 -250 -11 -305 -17 -55 -5 -210
-16 -345 -23 -135 -8 -272 -19 -305 -24 -33 -6 -112 -20 -175 -31 -103 -17
-358 -39 -545 -45 -38 -2 -151 2 -250 7 -99 5 -274 12 -390 14 -130 3 -231 10
-265 18 -52 13 -88 19 -170 30 -19 2 -177 7 -350 11 -173 4 -335 11 -359 16
-24 5 -91 12 -150 14 -58 2 -140 9 -181 16 -73 11 -315 3 -451 -16 -39 -5 -48
-3 -53 11 -4 10 -5 124 -2 253 3 130 8 475 12 766 9 730 10 827 19 1090 8 278
9 411 1 424 -15 23 32 28 149 15 86 -10 142 -11 195 -4 41 5 128 12 192 15 64
3 145 12 180 20 76 17 119 23 223 31 44 3 98 10 120 16 22 6 184 14 360 18
176 3 328 7 339 8 10 1 60 -3 110 -8z"/>
<path d="M15971 3241 c-13 -9 -13 -32 2 -176 2 -16 -6 -21 -47 -27 -44 -6 -65
-19 -66 -40 0 -13 44 -36 82 -43 47 -9 52 -27 47 -184 -4 -113 -3 -116 18
-119 12 -2 31 6 43 18 19 19 21 31 19 151 0 72 0 132 2 134 2 1 20 5 39 9 95
15 136 35 127 61 -5 12 -17 16 -45 14 -74 -4 -121 1 -135 16 -8 8 -18 38 -22
67 -8 55 -32 128 -44 128 -3 0 -12 -4 -20 -9z"/>
<path d="M14458 3215 c-57 -15 -118 -52 -118 -70 0 -49 28 -56 92 -24 49 25
174 37 206 20 26 -14 28 -42 5 -63 -31 -28 -101 -60 -143 -65 -33 -5 -41 -2
-46 13 -19 63 -48 70 -70 19 -23 -56 -10 -361 16 -389 10 -10 25 -16 33 -13
13 5 16 27 16 113 0 58 2 109 5 111 3 3 53 -42 112 -100 113 -113 137 -128
161 -104 21 21 11 42 -35 71 -44 27 -192 183 -192 201 0 7 21 18 47 24 91 23
166 81 177 137 6 28 2 37 -31 72 -57 60 -134 75 -235 47z"/>
<path d="M13620 3131 c-62 -9 -75 -18 -163 -110 -43 -45 -79 -81 -81 -81 -3 0
-32 19 -67 43 -34 23 -77 52 -95 65 -45 30 -138 54 -167 43 -47 -18 -94 -94
-104 -168 -6 -46 14 -170 29 -179 11 -7 -20 -44 -37 -44 -26 0 -162 -70 -187
-97 -15 -15 -39 -54 -54 -87 -34 -75 -29 -144 13 -188 38 -39 133 -87 228
-113 l80 -22 -3 -39 c-2 -21 -17 -79 -33 -127 -17 -49 -31 -110 -31 -135 -1
-64 25 -156 58 -204 27 -38 29 -39 72 -33 55 7 93 26 152 74 162 134 210 171
217 171 4 0 24 -19 43 -42 75 -88 96 -101 184 -110 93 -9 145 9 181 63 39 60
42 132 10 254 -44 162 -45 149 19 178 73 34 151 107 172 163 20 54 14 134 -17
202 -32 68 -51 81 -163 107 l-29 6 6 73 c11 136 -17 236 -86 310 -37 38 -50
41 -147 27z m116 -98 c42 -42 62 -151 44 -238 l-12 -56 -69 2 c-38 1 -98 8
-132 16 -54 12 -66 19 -82 46 -10 18 -24 38 -31 44 -20 20 -5 49 60 119 63 68
89 81 168 83 22 1 43 -6 54 -16z m-600 -23 c21 0 46 -13 81 -42 28 -24 65 -54
82 -67 17 -13 31 -30 31 -38 0 -17 -38 -92 -48 -94 -4 -1 -38 -3 -75 -4 -38
-2 -89 -6 -112 -10 -53 -7 -60 1 -72 97 -9 67 -3 100 27 146 10 16 21 21 35
18 11 -3 34 -6 51 -6z m66 -408 c-16 -31 -34 -58 -39 -59 -13 -5 -65 93 -61
113 2 12 18 18 58 21 30 2 57 7 60 10 3 2 6 -3 8 -12 2 -9 -10 -41 -26 -73z
m292 57 c15 -12 40 -48 57 -80 16 -33 45 -84 64 -113 l34 -54 -24 -47 c-47
-87 -55 -94 -102 -88 -23 3 -50 2 -60 -2 -24 -11 -135 -5 -150 7 -7 6 -31 44
-54 85 l-41 74 47 94 c69 139 75 145 144 145 44 0 65 -5 85 -21z m199 -2 c43
-2 45 -13 19 -91 -20 -60 -33 -66 -51 -25 -7 17 -28 50 -46 74 -37 48 -35 60
10 50 16 -4 47 -8 68 -8z m-647 -64 c79 -134 85 -164 49 -233 -7 -14 -19 -38
-26 -53 -22 -46 -36 -48 -139 -15 -93 30 -142 55 -167 86 -35 43 7 164 65 192
49 23 167 69 179 70 6 0 24 -21 39 -47z m844 32 c63 -12 70 -16 94 -54 20 -31
22 -44 16 -83 -8 -59 -28 -88 -91 -138 -56 -44 -94 -58 -117 -43 -8 5 -24 34
-35 65 l-20 56 32 94 c37 104 47 120 70 114 9 -2 32 -7 51 -11z m-685 -321
c19 -30 13 -39 -32 -49 -27 -5 -33 -3 -33 10 0 17 30 64 41 65 4 0 14 -12 24
-26z m500 -14 c-9 -15 -35 -12 -35 3 0 7 5 18 12 25 9 9 14 9 21 -3 4 -8 5
-20 2 -25z m22 -88 c15 -9 63 -123 63 -149 0 -10 6 -35 14 -57 14 -41 13 -85
-5 -129 -15 -35 -37 -47 -87 -47 -34 0 -45 6 -81 45 -22 24 -51 65 -63 90 -12
25 -26 45 -30 45 -5 0 -13 -12 -19 -27 -9 -25 -12 -26 -20 -11 -12 21 16 92
53 138 13 15 31 41 40 58 21 40 101 65 135 44z m-383 -120 c25 -45 46 -90 46
-100 0 -28 -189 -200 -260 -237 -43 -22 -79 -19 -89 8 -23 62 -22 128 2 205
14 43 34 109 46 149 l22 72 82 3 c45 2 87 -1 94 -7 6 -5 32 -47 57 -93z m144
96 c12 0 22 -2 22 -4 0 -16 -57 -114 -66 -114 -7 0 -20 20 -29 45 -10 25 -24
50 -31 56 -28 23 -15 32 34 24 26 -4 57 -8 70 -7z"/>
<path d="M13387 2520 c-41 -12 -54 -27 -55 -58 0 -40 15 -62 53 -78 44 -18 69
-18 111 2 48 23 47 64 -2 110 -36 34 -57 39 -107 24z"/>
<path d="M14829 3008 c-28 -30 -49 -80 -49 -117 0 -20 -8 -34 -25 -45 -31 -21
-32 -40 -1 -54 14 -6 29 -26 36 -48 37 -111 195 -138 286 -47 32 32 33 32 47
12 19 -27 84 -59 120 -59 63 0 136 61 148 125 2 10 9 20 16 22 13 5 20 -3 64
-64 22 -30 38 -43 55 -43 13 0 24 2 24 6 0 6 -51 100 -82 152 -19 31 -26 61
-27 120 -1 22 -4 23 -47 16 -119 -18 -245 -93 -283 -170 -8 -16 -31 -46 -50
-66 -33 -35 -39 -38 -92 -38 -47 0 -63 5 -86 24 -37 33 -23 56 43 71 55 12
111 42 119 63 11 29 -31 98 -80 130 -59 39 -105 42 -136 10z m107 -65 c24 -16
44 -31 44 -34 0 -19 -46 -43 -91 -47 l-52 -5 7 39 c7 34 30 74 44 74 3 0 24
-12 48 -27z m418 -65 c-18 -96 -30 -120 -67 -141 -37 -21 -38 -21 -72 -3 -61
33 -40 78 63 137 61 35 82 36 76 7z"/>
<path d="M15695 2970 c-33 -13 -98 -86 -111 -122 -15 -46 -2 -93 38 -132 46
-45 67 -54 121 -57 52 -3 113 24 123 54 8 26 -1 31 -37 18 -40 -14 -81 -14
-112 0 -27 12 -57 58 -57 87 0 35 48 81 96 93 48 12 69 31 60 54 -6 17 -85 20
-121 5z"/>
<path d="M14383 2355 c-49 -22 -53 -27 -53 -59 0 -28 8 -42 48 -78 27 -23 72
-55 100 -69 67 -35 117 -79 125 -111 6 -22 2 -28 -24 -38 -41 -18 -128 -17
-164 1 -16 8 -34 24 -40 37 -19 43 -72 16 -60 -31 10 -38 114 -88 187 -88 119
-2 168 26 168 95 0 36 -6 46 -56 93 -31 30 -77 66 -103 80 -25 15 -61 39 -79
55 l-33 28 33 20 c32 20 84 22 188 8 21 -2 26 2 28 25 5 45 -19 56 -123 57
-75 0 -99 -4 -142 -25z"/>
<path d="M15695 2274 c-26 -26 -15 -49 24 -49 44 0 65 29 37 51 -26 18 -41 18
-61 -2z"/>
<path d="M15959 2222 c-52 -34 -80 -83 -87 -155 -8 -81 25 -117 118 -131 36
-5 54 -2 89 16 42 21 71 51 61 61 -3 3 -34 1 -70 -4 -101 -15 -137 13 -118 90
10 39 16 46 64 67 47 21 84 57 71 71 -3 2 -23 7 -44 10 -30 3 -47 -2 -84 -25z"/>
<path d="M16255 2237 c-86 -28 -127 -135 -87 -227 27 -62 57 -86 128 -104 82
-21 132 -20 172 4 56 34 43 50 -40 48 -64 -2 -80 2 -126 27 -53 29 -62 47 -26
54 38 7 100 40 127 69 22 23 28 37 25 63 -3 29 -9 37 -48 56 -48 23 -78 25
-125 10z m89 -66 c14 -21 -64 -64 -95 -53 l-23 9 22 19 c33 28 86 42 96 25z"/>
<path d="M14860 2214 c-40 -25 -109 -149 -110 -196 0 -43 47 -130 86 -160 75
-57 180 -43 219 28 23 43 13 54 -28 30 -53 -31 -86 -37 -116 -21 -43 22 -71
54 -71 80 0 23 4 25 45 25 59 0 134 35 146 68 14 38 1 79 -38 123 -29 32 -42
39 -72 39 -20 0 -47 -8 -61 -16z m103 -82 c24 -26 4 -46 -57 -61 -60 -15 -77
-4 -52 34 29 44 82 57 109 27z"/>
<path d="M15666 2181 c-15 -16 -16 -25 -7 -58 6 -21 11 -57 11 -79 0 -69 10
-102 33 -108 39 -10 48 10 41 93 -8 107 -10 116 -29 145 -21 31 -27 32 -49 7z"/>
<path d="M15191 2164 c-17 -14 -42 -48 -55 -76 l-24 -50 19 -57 c20 -58 40
-81 70 -81 15 0 18 11 18 91 0 81 2 94 22 115 13 14 29 22 37 19 8 -3 29 2 48
11 19 9 36 15 37 13 6 -8 30 -106 37 -147 4 -23 17 -52 28 -63 20 -18 24 -19
52 -4 34 17 49 44 80 134 24 73 20 101 -16 101 -21 0 -30 -10 -53 -62 l-29
-62 -7 34 c-21 97 -53 133 -85 95 -11 -13 -15 -13 -41 0 -45 24 -103 19 -138
-11z"/>
<path d="M15285 1573 c-16 -16 -17 -93 -1 -303 1 -25 3 -64 4 -86 1 -25 10
-52 23 -68 19 -25 23 -26 37 -13 13 13 13 32 3 135 -6 66 -11 167 -11 224 0
122 -15 152 -55 111z"/>
<path d="M15814 1560 c-11 -4 -33 -22 -47 -40 -35 -41 -35 -88 0 -151 l26 -49
-27 -29 c-16 -17 -23 -31 -17 -35 7 -4 5 -19 -4 -45 -11 -33 -11 -43 2 -67 23
-47 42 -62 95 -80 54 -18 101 -13 128 11 25 23 9 92 -34 156 l-36 51 30 56
c32 60 36 95 20 153 -19 69 -71 96 -136 69z m64 -82 c15 -15 16 -72 2 -99 -17
-32 -43 -23 -62 22 -13 32 -15 45 -6 65 12 26 46 32 66 12z m26 -303 c29 -44
-6 -60 -64 -30 -32 16 -38 41 -19 76 10 19 10 19 38 0 16 -11 36 -32 45 -46z"/>
<path d="M16948 1539 c-9 -12 -20 -47 -23 -78 -11 -97 -25 -112 -97 -102 -23
3 -28 8 -28 33 0 16 5 49 11 73 13 50 0 85 -31 85 -29 0 -51 -52 -57 -135 -6
-73 -6 -74 28 -104 18 -17 45 -32 59 -32 37 -2 82 -8 85 -11 3 -3 14 -102 15
-126 0 -7 16 -20 35 -29 49 -23 60 -10 49 59 -5 29 -8 66 -6 81 3 26 6 28 40
25 33 -3 40 -8 61 -49 24 -48 53 -69 97 -69 32 0 79 24 98 51 19 27 41 20 96
-32 45 -43 63 -46 68 -11 4 27 -22 67 -74 114 -37 34 -42 44 -46 96 -8 85 -39
139 -94 164 -52 23 -96 17 -119 -15 -20 -28 -5 -43 50 -52 37 -5 50 -13 70
-43 14 -20 25 -50 25 -66 0 -27 -2 -28 -38 -23 -22 2 -53 -1 -71 -9 -29 -12
-40 -12 -84 3 -78 24 -80 28 -72 98 13 110 12 120 -10 123 -11 1 -28 -7 -37
-19z m272 -277 c0 -12 -23 -32 -37 -32 -17 0 -17 27 0 33 19 8 37 8 37 -1z"/>
<path d="M15593 1528 c-32 -23 -58 -72 -102 -187 -18 -49 -19 -62 -9 -130 9
-63 16 -81 41 -103 39 -37 71 -36 113 6 26 26 34 42 34 70 0 38 -24 86 -44 86
-6 0 -23 10 -38 23 l-28 22 24 70 c18 52 33 76 60 98 39 31 45 51 20 61 -26
10 -38 7 -71 -16z m29 -327 c12 -11 -21 -51 -41 -51 -20 0 -37 42 -25 61 6 11
53 4 66 -10z"/>
<path d="M14495 1519 c-68 -28 -126 -77 -154 -133 -31 -64 -31 -106 2 -149 45
-59 93 -55 164 15 24 23 45 39 49 36 3 -4 8 -51 11 -105 4 -74 9 -101 21 -110
19 -15 48 -17 57 -3 3 5 1 57 -5 116 -6 58 -13 161 -14 228 l-4 121 -39 2
c-21 1 -60 -8 -88 -18z m41 -124 c-3 -13 -27 -48 -52 -80 -34 -41 -52 -55 -68
-53 -18 3 -21 9 -20 46 1 36 7 50 40 84 21 22 53 46 69 53 28 12 30 12 33 -7
2 -11 1 -30 -2 -43z"/>
<path d="M14170 1505 c-7 -8 -10 -25 -6 -38 3 -13 8 -66 11 -118 8 -144 25
-281 38 -307 7 -15 18 -22 31 -20 24 3 24 -4 7 276 -8 129 -15 179 -27 197
-19 28 -36 32 -54 10z"/>
<path d="M14763 1493 c-25 -9 -12 -32 37 -68 49 -36 99 -112 94 -142 -1 -7 -2
-18 -3 -23 -1 -6 -22 -8 -57 -4 -53 7 -56 6 -90 -27 -42 -41 -43 -60 -3 -93
35 -30 82 -34 125 -11 39 20 63 19 99 -5 34 -23 65 -26 65 -7 0 7 -18 31 -40
52 -38 37 -40 42 -34 85 8 63 -24 144 -81 203 -43 46 -73 56 -112 40z"/>
<path d="M16270 1487 c-81 -39 -150 -136 -150 -212 0 -95 70 -205 130 -205 32
0 70 26 70 48 0 11 24 30 67 52 36 20 75 47 85 61 46 61 29 165 -37 229 -29
28 -43 34 -87 36 -29 2 -64 -2 -78 -9z m121 -67 c25 -14 49 -62 44 -90 -12
-64 -99 -121 -178 -117 l-46 2 -6 48 c-5 37 -3 54 11 75 50 77 121 110 175 82z"/>
<path d="M16585 1180 c-14 -16 -17 -25 -9 -37 31 -49 77 -35 72 21 -4 39 -35
46 -63 16z"/>
<path d="M15143 1178 c-33 -16 -37 -40 -11 -60 30 -23 45 -22 59 3 8 16 8 28
0 45 -12 26 -16 28 -48 12z"/>
<path d="M16063 1169 c-31 -11 -42 -58 -18 -76 36 -26 85 -10 85 27 0 28 -42
59 -67 49z"/>
<path d="M1076 3453 c-3 -3 -64 -5 -135 -4 -121 1 -133 -1 -152 -20 -16 -16
-20 -29 -15 -52 32 -175 43 -407 26 -562 -6 -60 -16 -157 -20 -215 -5 -58 -16
-166 -25 -240 -23 -189 -24 -520 -3 -750 9 -102 20 -241 24 -310 4 -69 8 -145
10 -170 8 -104 14 -260 13 -325 -4 -225 -9 -207 61 -240 49 -23 64 -27 83 -18
36 17 200 15 275 -3 56 -13 128 -15 432 -13 201 1 397 1 435 0 86 -4 336 -5
590 -2 105 2 253 2 330 1 77 -1 174 1 215 4 278 21 546 37 669 41 78 2 159 9
178 16 26 8 50 8 99 -1 39 -8 78 -9 101 -4 21 5 90 9 153 9 237 2 586 17 615
25 17 5 107 8 200 6 165 -3 192 -1 340 29 39 8 99 18 133 24 35 6 71 16 79 23
16 13 15 38 -7 178 -16 102 -23 762 -11 1006 6 121 13 280 17 354 3 74 6 326
6 560 0 480 -2 499 -60 511 -59 12 -408 28 -757 34 -398 8 -555 15 -680 31
-172 22 -244 24 -572 18 -197 -4 -439 -7 -538 -8 -190 0 -659 28 -735 44 -25
5 -94 7 -155 3 -60 -3 -144 -5 -185 -5 -267 3 -642 12 -740 18 -172 10 -288
12 -294 7z m389 -107 c267 -5 408 -11 593 -22 45 -3 125 0 176 6 77 9 127 8
273 -6 98 -9 216 -18 263 -19 47 -1 157 -8 245 -15 88 -6 201 -9 250 -6 186
13 247 16 500 22 328 8 309 8 510 -16 55 -6 112 -9 127 -6 15 3 47 -1 70 -10
35 -12 95 -15 313 -14 149 1 394 -2 545 -6 151 -4 300 -7 330 -8 l55 -1 6
-160 c6 -156 2 -695 -6 -785 -6 -69 -29 -687 -28 -755 3 -231 14 -539 23 -640
5 -66 10 -125 10 -132 0 -30 -163 -53 -418 -58 -103 -2 -198 -6 -212 -9 -39
-9 -691 -36 -873 -36 -89 0 -223 -5 -297 -11 -74 -6 -166 -12 -205 -14 -38 -2
-99 -6 -135 -9 -36 -3 -119 -8 -185 -11 -145 -7 -366 -24 -374 -30 -4 -2 -47
2 -96 10 -63 9 -162 12 -330 9 -132 -3 -283 -4 -335 -3 -52 1 -304 3 -560 4
-312 2 -478 6 -505 14 -61 18 -270 14 -307 -5 -29 -15 -30 -15 -24 1 7 19 9
370 2 420 -2 17 -7 86 -10 155 -7 126 -13 206 -21 270 -2 19 -7 91 -10 159 -3
69 -8 128 -10 131 -6 10 -7 368 -1 420 3 25 12 119 21 210 9 91 23 215 33 275
26 170 24 483 -4 652 l-5 32 103 3 c57 2 130 2 163 2 33 -1 186 -4 340 -8z"/>
<path d="M4081 3088 c-5 -13 -5 -30 -1 -38 4 -8 11 -38 15 -67 7 -58 11 -55
-79 -67 -22 -3 -46 -12 -55 -20 -13 -14 -13 -18 4 -36 14 -16 30 -20 77 -20
43 0 60 -4 64 -15 4 -8 2 -61 -3 -116 -7 -82 -6 -104 5 -115 17 -17 37 -18 49
-1 11 13 33 153 33 205 0 18 6 34 13 36 6 2 32 9 57 16 25 7 53 22 64 34 18
21 18 21 -15 29 -19 4 -51 8 -71 8 -48 0 -64 16 -77 80 -20 93 -61 137 -80 87z"/>
<path d="M2517 3029 c-47 -25 -54 -42 -32 -75 12 -19 14 -29 6 -34 -15 -8 -15
-27 -8 -249 7 -185 10 -200 45 -201 20 0 34 49 36 130 3 91 9 92 88 9 31 -32
62 -59 68 -59 5 0 10 -6 10 -14 0 -15 84 -41 101 -31 12 8 12 35 -1 35 -5 0
-18 8 -28 18 -10 9 -33 31 -52 47 -62 55 -152 165 -147 179 3 8 28 19 56 25
59 13 123 50 147 86 34 52 -15 109 -121 140 -71 20 -122 18 -168 -6z m176 -75
c26 -9 47 -20 47 -24 0 -15 -64 -49 -111 -59 -25 -6 -53 -13 -61 -16 -12 -5
-18 2 -23 27 -4 18 -12 39 -17 45 -7 9 -4 15 13 21 13 5 31 12 39 15 27 10 66
7 113 -9z"/>
<path d="M1799 2870 c-46 -24 -82 -67 -120 -141 -16 -33 -33 -59 -37 -59 -4 0
-35 25 -67 55 -71 66 -142 103 -213 112 -52 6 -53 5 -92 -37 -55 -60 -67 -103
-50 -188 7 -37 17 -75 22 -85 14 -26 -9 -47 -97 -91 -78 -39 -148 -97 -159
-134 -10 -31 27 -92 105 -170 72 -73 114 -95 218 -117 41 -9 77 -18 79 -20 4
-4 -33 -104 -73 -201 -24 -57 -29 -102 -12 -119 20 -19 26 -19 50 2 18 17 19
17 33 -1 12 -17 22 -18 83 -13 84 7 148 33 197 81 21 20 40 36 45 36 4 0 18
-12 31 -27 13 -16 49 -45 80 -65 89 -58 148 -50 221 31 57 63 74 170 41 256
-9 22 -18 54 -21 72 -5 29 -2 33 23 39 42 9 101 52 123 88 41 69 33 163 -22
245 -36 54 -110 91 -180 91 l-49 0 9 63 c20 148 4 216 -65 283 -40 39 -53 41
-103 14z m86 -90 c24 -27 32 -158 13 -215 -13 -39 -15 -40 -68 -46 -73 -9
-126 5 -133 33 -10 35 50 167 95 211 44 42 67 46 93 17z m-457 -40 c34 -16 69
-30 76 -30 8 0 17 -11 20 -25 4 -14 11 -25 16 -25 16 0 65 -109 54 -120 -12
-12 -137 -29 -211 -30 l-52 0 -20 55 c-29 76 -28 145 2 172 12 11 29 23 37 26
8 3 15 6 16 6 0 1 28 -12 62 -29z m119 -334 c-26 -64 -38 -97 -47 -133 -6 -25
-17 -43 -25 -43 -17 0 -75 115 -78 155 -2 30 -1 30 58 35 70 6 98 2 92 -14z
m181 -36 c34 -33 62 -64 62 -69 0 -10 -48 -2 -56 10 -9 16 -60 10 -77 -9 -9
-10 -23 -33 -31 -52 -13 -32 -13 -37 6 -60 17 -21 29 -25 73 -25 37 0 59 5 73
18 31 28 34 6 7 -52 l-25 -53 -87 3 c-137 4 -152 18 -123 123 31 109 82 226
99 226 9 0 44 -27 79 -60z m134 19 c-5 -35 -12 -36 -40 -6 -25 27 -14 47 22
40 18 -4 22 -10 18 -34z m236 14 c37 -20 40 -23 60 -79 25 -66 14 -106 -37
-140 -43 -28 -111 -35 -136 -14 -8 6 -28 33 -45 58 -26 40 -30 53 -24 87 3 22
12 55 20 73 13 33 14 33 74 31 34 -1 73 -9 88 -16z m-778 -58 c32 -80 79 -167
102 -192 11 -11 18 -29 16 -40 -3 -16 -14 -18 -83 -18 -97 1 -149 23 -225 98
-69 68 -76 82 -48 102 108 75 160 102 199 104 11 1 24 -18 39 -54z m500 -79
c0 -6 -4 -17 -9 -24 -7 -11 -10 -10 -15 3 -11 29 -7 45 9 39 8 -4 15 -11 15
-18z m85 -87 c8 -13 6 -15 -23 -24 -22 -6 -23 -5 -13 14 13 23 26 27 36 10z
m62 -107 c7 -4 25 -30 40 -57 23 -43 27 -62 28 -133 0 -82 -1 -84 -32 -112
-18 -16 -48 -32 -67 -36 -32 -5 -42 -1 -97 42 -88 69 -88 70 -53 151 31 69 36
74 107 88 15 3 30 12 32 20 3 8 7 22 10 30 5 17 14 19 32 7z m-413 -107 c41
-44 86 -110 86 -128 0 -23 -44 -56 -110 -82 -35 -14 -72 -23 -82 -19 -25 7
-24 76 2 133 11 24 20 58 20 75 0 63 36 72 84 21z m170 -2 c-9 -21 -19 -41
-23 -46 -9 -9 -62 63 -55 75 3 4 25 8 49 8 l44 0 -15 -37z"/>
<path d="M3807 2865 c-20 -14 -37 -29 -37 -34 0 -5 -10 -21 -22 -36 -27 -34
-57 -119 -58 -160 0 -62 56 -105 136 -105 43 0 51 4 96 49 28 28 47 54 44 59
-3 6 -30 0 -63 -13 -92 -36 -97 -37 -120 -15 -42 38 -5 145 65 193 33 22 42
34 42 58 0 23 -4 29 -23 29 -12 0 -39 -11 -60 -25z"/>
<path d="M2908 2851 c-26 -23 -34 -40 -43 -97 -11 -61 -10 -75 6 -118 17 -47
72 -116 92 -116 5 0 20 -9 34 -20 38 -30 113 -27 163 6 22 15 40 33 40 40 0
17 2 17 -50 -1 -63 -22 -116 -10 -163 36 -22 21 -37 44 -35 51 3 7 37 25 76
39 79 30 138 72 148 107 15 51 -74 102 -178 102 -49 0 -62 -4 -90 -29z m187
-53 c24 -22 -123 -82 -155 -63 -17 10 -11 35 13 59 20 20 31 23 78 19 30 -3
59 -10 64 -15z"/>
<path d="M3480 2833 c-90 -19 -158 -68 -212 -152 -38 -61 -37 -102 4 -136 27
-23 38 -26 72 -20 44 6 92 45 127 103 12 17 24 32 27 32 4 0 22 -25 39 -54 24
-39 40 -55 60 -59 39 -8 49 7 27 39 -10 15 -22 33 -26 40 -5 8 -11 20 -15 28
-5 7 -20 32 -35 54 -33 50 -34 59 -8 67 13 4 20 15 20 31 0 13 0 27 1 31 1 12
-12 11 -81 -4z m-31 -140 c-59 -80 -80 -95 -120 -91 l-30 3 38 54 c25 36 54
63 83 78 79 40 85 30 29 -44z"/>
<path d="M2522 2199 c-34 -10 -54 -42 -44 -69 6 -17 62 -91 77 -103 5 -4 21
-10 35 -13 14 -4 35 -16 47 -28 38 -37 52 -46 67 -46 23 0 45 -28 39 -50 -8
-29 -47 -57 -108 -76 -66 -21 -112 -8 -117 34 -4 36 -24 38 -41 5 -13 -25 -13
-32 -1 -55 34 -65 131 -78 229 -32 61 29 85 63 85 121 0 40 -20 65 -97 117
-38 25 -78 53 -89 63 -26 22 -47 60 -37 66 5 3 50 1 102 -4 105 -11 121 -8
121 19 0 29 -22 42 -81 46 -30 2 -76 6 -104 9 -27 4 -65 2 -83 -4z"/>
<path d="M3792 2158 c-20 -20 -14 -44 14 -57 46 -20 73 19 36 52 -22 20 -34
21 -50 5z"/>
<path d="M4324 2150 c-38 -25 -74 -102 -74 -160 0 -47 28 -108 66 -143 30 -28
111 -57 159 -57 43 0 108 43 131 86 24 44 11 54 -25 20 -51 -49 -141 -52 -200
-8 -39 29 -34 54 14 70 22 7 63 31 92 53 56 42 67 74 40 110 -38 49 -147 65
-203 29z m116 -45 c17 -9 27 -21 24 -28 -12 -32 -135 -79 -149 -57 -8 12 30
76 53 90 24 13 39 12 72 -5z"/>
<path d="M4024 2088 c-35 -31 -73 -100 -88 -161 -11 -47 15 -81 92 -119 38
-18 48 -19 82 -9 41 12 76 49 61 64 -5 5 -31 4 -59 -1 -44 -8 -54 -7 -71 9
-11 10 -22 27 -26 38 -11 36 14 100 57 141 67 66 23 100 -48 38z"/>
<path d="M2959 2076 c-34 -20 -79 -104 -86 -165 -5 -41 -2 -56 17 -86 30 -49
83 -71 191 -79 77 -6 88 -5 112 14 31 25 38 57 9 41 -45 -24 -242 15 -242 49
0 6 43 31 96 56 133 64 147 107 50 153 -61 28 -115 35 -147 17z m116 -66 c11
-18 -105 -73 -122 -57 -6 7 16 49 31 59 16 11 84 10 91 -2z"/>
<path d="M3513 2065 c-11 -29 25 -174 59 -242 18 -36 63 -31 88 9 24 40 54
169 45 196 -15 49 -75 22 -75 -33 0 -29 -10 -55 -20 -55 -5 0 -16 26 -25 58
-9 31 -22 63 -27 70 -14 17 -37 15 -45 -3z"/>
<path d="M3335 2035 c-14 -13 -25 -29 -25 -35 0 -5 -13 -10 -30 -10 -37 0 -49
-34 -27 -76 8 -16 18 -47 21 -69 7 -41 19 -55 48 -55 23 0 27 9 34 82 8 77 25
113 64 133 36 18 39 40 8 49 -43 11 -69 6 -93 -19z"/>
<path d="M3817 1943 c-8 -15 -17 -49 -20 -75 -7 -52 6 -72 45 -66 19 2 24 10
26 43 4 51 -10 117 -25 122 -7 3 -18 -8 -26 -24z"/>
<path d="M4468 1540 c-43 -33 -67 -82 -78 -159 -14 -98 1 -193 38 -240 15 -19
30 -39 33 -44 14 -21 93 -26 139 -10 57 21 84 45 111 101 43 88 2 240 -86 321
-25 23 -55 41 -67 41 -13 0 -32 3 -43 6 -13 3 -31 -3 -47 -16z m161 -99 c27
-29 35 -46 38 -85 2 -28 8 -57 12 -65 19 -37 -43 -115 -109 -139 -49 -17 -71
-2 -98 68 -68 181 45 340 157 221z"/>
<path d="M5069 1543 c-69 -3 -90 -8 -103 -22 -51 -56 78 -90 224 -59 31 6 65
8 75 4 17 -6 17 -8 -4 -29 -11 -13 -21 -26 -21 -29 0 -3 -21 -36 -46 -74 -26
-38 -62 -102 -81 -143 -29 -61 -33 -78 -24 -98 20 -45 45 -28 104 70 30 50 56
97 58 102 2 6 28 52 57 103 63 109 67 145 15 150 -17 2 -37 10 -43 18 -9 10
-30 13 -69 12 -31 -1 -95 -4 -142 -5z"/>
<path d="M3515 1520 c-14 -15 -18 -42 -20 -132 -2 -62 -6 -163 -10 -225 -5
-106 -4 -113 17 -132 27 -26 31 -26 52 -2 13 14 14 21 6 26 -12 8 -11 65 6
362 6 94 5 102 -14 112 -15 8 -23 6 -37 -9z"/>
<path d="M3859 1506 c-35 -24 -99 -131 -99 -166 0 -9 -13 -46 -29 -81 -24 -53
-28 -75 -25 -124 4 -79 28 -131 66 -144 36 -13 63 -2 103 39 25 27 29 39 29
85 0 62 -7 73 -67 95 -37 14 -42 20 -40 45 2 31 40 109 93 193 29 46 32 55 19
67 -13 13 -19 12 -50 -9z m-23 -356 c18 0 24 -5 24 -20 0 -32 -27 -78 -51 -85
-26 -9 -39 8 -39 52 0 44 10 65 27 59 8 -3 26 -6 39 -6z"/>
<path d="M4060 1493 c-24 -9 -52 -36 -61 -61 -5 -13 -13 -93 -19 -179 -12
-191 -5 -230 50 -268 33 -23 42 -25 80 -16 50 11 63 26 54 61 -4 14 -7 34 -7
45 1 35 -17 72 -48 94 -37 27 -36 38 2 91 70 96 72 160 8 215 -32 26 -34 27
-59 18z m35 -103 c8 -25 -25 -85 -46 -85 -18 0 -14 50 7 83 18 27 31 28 39 2z"/>
<path d="M2748 1458 c-145 -90 -210 -154 -232 -228 -17 -59 -13 -70 40 -103
35 -23 50 -27 77 -22 44 10 77 28 110 61 15 15 30 25 33 22 3 -3 7 -28 9 -54
11 -127 16 -144 41 -150 37 -9 57 2 50 30 -14 56 -26 167 -26 247 0 90 -14
127 -43 116 -9 -3 -20 -28 -27 -60 -11 -57 -34 -85 -101 -125 -34 -21 -79 -29
-91 -17 -26 26 68 141 173 211 55 36 69 51 67 68 -4 29 -36 31 -80 4z"/>
<path d="M2366 1453 c-5 -13 -9 -181 -8 -403 0 -94 22 -159 49 -142 16 10 26
517 12 545 -12 22 -45 22 -53 0z"/>
<path d="M2935 1450 c-17 -19 -17 -21 -1 -39 10 -11 28 -22 42 -25 13 -4 42
-29 64 -57 41 -52 57 -101 45 -139 -6 -19 -12 -21 -45 -15 -62 11 -120 -30
-120 -84 0 -11 14 -28 35 -41 36 -22 54 -23 141 -5 24 5 35 3 45 -12 17 -24
42 -34 58 -24 15 10 1 46 -32 84 -22 25 -25 37 -25 105 0 50 -5 90 -16 115
-28 64 -125 157 -164 157 -5 0 -17 -9 -27 -20z"/>
<path d="M4881 1224 c-26 -19 -27 -55 -2 -78 36 -32 85 18 62 62 -15 28 -35
33 -60 16z"/>
<path d="M3346 1116 c-14 -19 -26 -39 -26 -44 0 -13 47 -35 59 -28 20 13 42
66 36 86 -10 30 -40 24 -69 -14z"/>
<path d="M4245 1048 c-13 -31 -13 -34 7 -51 33 -28 62 -19 66 21 6 65 -48 87
-73 30z"/>
<path d="M8155 3429 c-121 -10 -314 -17 -654 -25 -157 -3 -325 -12 -375 -20
-50 -7 -130 -20 -178 -28 -48 -7 -138 -14 -199 -15 -62 -1 -120 -6 -130 -11
-10 -6 -27 -10 -38 -10 -12 0 -30 -9 -41 -20 -16 -16 -18 -24 -9 -47 15 -41
12 -488 -5 -576 -3 -18 -6 -208 -5 -422 2 -746 3 -793 22 -895 26 -136 29
-701 3 -728 -22 -25 -20 -58 5 -76 18 -12 59 -14 248 -10 124 3 235 6 246 8
85 16 317 27 575 27 384 2 1243 -10 1340 -18 205 -17 519 -3 594 26 52 21 278
53 331 47 28 -3 80 0 116 5 35 6 96 14 134 19 39 5 111 16 160 25 175 29 335
44 490 45 55 1 118 6 139 11 22 6 92 10 155 8 173 -3 267 0 356 10 44 6 175
18 290 26 190 15 212 19 228 37 11 14 16 31 13 47 -9 46 -16 230 -21 576 -4
187 -11 381 -16 430 -28 255 -41 355 -64 520 -14 99 -27 243 -31 320 -11 271
-39 538 -61 583 l-18 36 -348 3 c-191 1 -374 6 -405 11 -31 5 -97 6 -147 3
-49 -4 -115 -3 -146 0 -32 4 -119 3 -195 -1 -77 -3 -166 -5 -199 -4 -33 2
-132 6 -220 9 -88 3 -211 10 -273 15 -62 6 -176 11 -255 11 -356 3 -443 6
-607 21 -96 9 -285 19 -420 23 -135 3 -256 7 -270 9 -14 2 -65 0 -115 -5z
m530 -103 c110 -4 229 -11 265 -16 64 -10 236 -17 565 -25 94 -2 269 -9 390
-16 121 -7 297 -13 390 -12 94 0 316 1 494 1 178 1 327 -1 332 -4 5 -3 141 -5
303 -4 l294 0 6 -27 c3 -16 8 -50 12 -78 3 -27 8 -61 10 -75 7 -40 22 -334 17
-343 -6 -9 20 -234 63 -561 36 -270 45 -425 45 -751 0 -181 4 -372 10 -424 6
-51 7 -97 2 -101 -4 -4 -66 -13 -138 -20 -288 -27 -388 -34 -720 -45 -264 -10
-343 -14 -487 -25 -143 -12 -164 -14 -238 -30 -57 -12 -189 -27 -355 -41 -116
-9 -264 -31 -395 -59 -25 -5 -72 -12 -105 -15 -33 -2 -89 -8 -125 -13 -74 -10
-306 -7 -455 6 -55 5 -446 8 -870 7 -604 -1 -794 -4 -880 -16 -103 -13 -481
-16 -493 -4 -3 3 3 14 13 25 16 18 17 27 6 107 -6 49 -11 182 -10 298 0 116
-2 221 -5 235 -4 14 -8 43 -10 65 -2 22 -9 72 -14 110 -12 76 -8 1178 4 1395
7 130 7 136 4 264 -1 58 2 83 13 94 11 10 53 17 147 23 73 5 136 6 141 3 4 -2
34 2 66 10 117 30 307 43 803 52 157 2 307 8 334 12 55 8 277 7 571 -2z"/>
<path d="M10094 3086 c-3 -8 1 -27 9 -43 21 -42 40 -120 34 -138 -5 -10 -20
-15 -52 -15 -77 0 -139 -46 -94 -71 11 -5 48 -13 82 -17 l62 -7 3 -39 c2 -22
-1 -58 -7 -80 -5 -23 -12 -71 -16 -107 -6 -55 -4 -67 9 -72 9 -4 23 -4 31 -1
21 9 53 121 61 215 8 89 3 84 102 92 91 7 131 67 45 67 -27 0 -71 3 -98 6
l-51 6 -16 79 c-9 43 -26 92 -38 109 -22 32 -57 40 -66 16z"/>
<path d="M8542 3071 c-36 -17 -42 -24 -41 -48 1 -15 -4 -59 -10 -98 -18 -112
-20 -334 -4 -351 35 -34 62 -1 64 79 1 23 4 55 8 70 l6 29 125 -94 c118 -88
128 -93 172 -92 27 0 48 -3 48 -6 0 -31 133 -110 183 -110 30 0 117 55 117 74
0 9 9 20 21 27 17 9 23 7 36 -10 18 -27 65 -51 98 -51 40 0 86 24 128 65 l39
38 39 -39 c22 -22 46 -52 55 -67 11 -20 22 -27 37 -25 33 5 32 39 -1 76 -16
18 -47 57 -68 87 -60 83 -78 83 -131 -1 -29 -46 -83 -74 -117 -61 -23 9 -1 62
38 91 36 28 120 58 139 50 19 -7 40 21 32 44 -8 28 -62 36 -116 17 -65 -23
-116 -62 -151 -117 -23 -35 -49 -58 -92 -82 -82 -45 -114 -51 -160 -30 -46 23
-46 41 2 50 80 14 162 72 162 113 0 8 -18 32 -41 53 -40 37 -42 38 -119 38
-71 0 -80 -2 -108 -28 -20 -19 -32 -41 -36 -72 -15 -96 -23 -99 -100 -43 -51
37 -166 143 -166 153 0 3 19 11 43 17 72 20 137 53 154 80 11 17 17 45 17 80
-1 45 -6 59 -28 81 -24 25 -33 27 -128 30 -86 2 -110 -1 -146 -17z m235 -63
c18 -23 -5 -76 -39 -94 -59 -31 -162 -52 -171 -37 -3 5 -2 33 1 63 7 53 8 55
47 66 54 17 150 17 162 2z m309 -284 c35 -9 18 -39 -34 -57 -69 -25 -92 -23
-92 8 0 39 68 65 126 49z"/>
<path d="M7195 2975 c-33 -18 -79 -55 -103 -82 l-43 -48 4 -70 c3 -39 12 -88
21 -110 21 -50 16 -62 -31 -70 -91 -15 -150 -59 -208 -155 -29 -48 -35 -67
-35 -113 0 -50 3 -59 33 -87 34 -34 199 -116 290 -144 9 -3 17 -14 17 -25 0
-31 -40 -153 -65 -196 -30 -51 -53 -214 -33 -226 21 -14 46 -10 56 7 8 15 17
13 76 -16 64 -30 71 -31 114 -20 48 12 89 41 193 138 57 52 86 61 74 21 -10
-32 24 -108 56 -125 16 -8 35 -27 44 -43 19 -37 32 -42 74 -25 18 8 44 14 57
14 70 0 111 63 128 197 8 64 7 97 -3 141 -34 150 -34 157 2 168 33 10 108 94
133 149 32 67 31 129 -1 177 -27 39 -88 86 -142 107 -39 16 -47 36 -34 92 23
98 6 217 -39 271 -25 30 -29 31 -106 31 -75 1 -166 -17 -209 -40 -17 -9 -31
-2 -100 53 -97 78 -127 82 -220 29z m151 -59 c16 -8 46 -32 66 -53 l38 -38
-43 -55 c-23 -30 -54 -73 -69 -96 -21 -33 -34 -42 -65 -47 -83 -14 -90 -11
-119 46 -31 60 -37 134 -14 162 24 30 131 95 155 95 12 0 35 -7 51 -14z m444
-86 c17 -31 24 -160 11 -207 -7 -24 -21 -47 -32 -54 -38 -20 -76 20 -163 171
l-38 64 27 23 c22 20 37 23 105 23 68 0 81 -3 90 -20z m-232 -145 c23 -36 42
-69 42 -75 0 -16 -169 -5 -186 12 -10 11 71 128 90 128 6 0 30 -29 54 -65z
m-288 -161 c0 -8 -5 -24 -11 -35 -8 -16 -13 -18 -25 -8 -15 12 -19 41 -7 52
13 13 43 7 43 -9z m332 -15 c9 -5 26 -9 37 -9 14 0 27 -16 46 -57 23 -50 26
-66 20 -118 -8 -81 -33 -165 -50 -171 -8 -3 -42 3 -75 15 -34 11 -67 18 -75
14 -20 -7 -19 -40 1 -51 9 -5 14 -14 10 -21 -11 -17 -51 -13 -69 7 -19 21 -87
141 -87 153 0 5 -12 28 -26 51 -26 40 -26 44 -14 92 7 28 21 66 32 84 l20 33
107 -7 c58 -3 114 -11 123 -15z m-428 -63 l38 -73 -17 -79 c-10 -43 -23 -89
-31 -101 l-14 -22 -57 20 c-96 33 -204 91 -215 115 -17 37 50 156 106 186 19
11 81 24 131 27 15 0 29 -17 59 -73z m739 10 c40 -16 97 -79 97 -107 0 -20
-22 -72 -51 -117 -8 -13 -31 -32 -51 -43 -44 -23 -48 -23 -48 -5 0 7 -13 53
-29 102 -27 82 -28 91 -15 123 27 65 40 71 97 47z m-615 -228 c7 -13 13 -34
14 -48 3 -22 -2 -25 -29 -28 -37 -4 -39 2 -22 61 11 43 21 46 37 15z m486 -44
c10 -27 7 -34 -19 -34 -23 0 -24 2 -13 25 13 29 23 32 32 9z m-473 -118 c79
-19 94 -29 140 -99 l41 -62 -22 -42 c-12 -24 -37 -53 -54 -66 -17 -14 -51 -43
-76 -67 -40 -38 -48 -42 -85 -38 -49 6 -115 36 -122 55 -6 15 17 99 43 161 8
18 18 52 24 76 14 65 28 96 42 96 7 -1 38 -7 69 -14z m502 -32 c5 -16 15 -49
23 -74 27 -87 12 -237 -28 -272 -21 -18 -64 -24 -84 -10 -6 4 -19 25 -29 47
-10 22 -36 65 -56 96 l-38 56 44 69 c68 108 73 112 107 117 48 5 52 3 61 -29z
m-218 -18 c-24 -50 -39 -60 -59 -41 -19 19 -22 57 -3 50 6 -3 26 3 42 14 17
10 32 17 33 15 2 -1 -4 -18 -13 -38z"/>
<path d="M7515 2410 c-11 -4 -32 -19 -47 -33 -65 -61 -3 -151 86 -126 42 12
56 33 56 87 0 55 -46 90 -95 72z"/>
<path d="M9772 2733 c-7 -3 -28 -25 -47 -50 -28 -36 -35 -55 -35 -90 0 -56 9
-73 57 -105 77 -53 229 -43 221 14 -3 21 -8 23 -49 20 -103 -7 -167 32 -147
90 15 43 55 64 131 67 22 1 23 46 1 55 -19 7 -113 7 -132 -1z"/>
<path d="M8551 2179 c-86 -30 -155 -90 -149 -130 3 -25 33 -49 177 -143 137
-89 153 -128 66 -158 -64 -22 -147 -23 -191 -2 -28 13 -34 22 -32 42 4 39 -25
40 -52 2 l-22 -31 22 -24 c12 -12 49 -35 82 -50 53 -24 70 -27 133 -23 89 6
154 39 179 93 20 42 28 43 55 9 19 -24 50 -42 164 -93 77 -34 154 -23 114 16
-8 8 -48 26 -88 40 -85 28 -115 49 -98 69 6 7 23 16 39 19 21 5 115 62 148 90
1 1 -5 16 -13 32 -29 57 -96 84 -158 64 -44 -15 -101 -76 -117 -127 -13 -41
-28 -64 -40 -64 -4 0 -29 22 -55 49 -26 27 -90 76 -141 108 -51 32 -96 65 -99
73 -8 18 38 60 65 60 10 0 21 4 24 9 9 14 109 23 137 12 26 -9 59 1 59 20 0 5
-12 21 -27 35 -22 20 -35 24 -79 23 -30 -1 -76 -10 -103 -20z m436 -254 c3
-10 -76 -55 -97 -55 -20 0 -9 18 28 44 37 26 62 30 69 11z"/>
<path d="M9818 2069 c-34 -19 -9 -59 36 -59 22 0 22 56 0 64 -19 7 -15 8 -36
-5z"/>
<path d="M10398 2030 c-47 -9 -74 -32 -104 -92 -49 -96 -40 -167 25 -212 56
-39 96 -48 165 -35 92 16 175 66 119 70 -10 1 -29 3 -43 4 -14 2 -44 -1 -67
-6 -47 -10 -103 -2 -103 15 1 6 32 31 70 55 88 56 110 76 110 105 0 30 -32 71
-72 90 -33 17 -43 18 -100 6z m82 -88 c0 -11 -8 -25 -17 -34 -29 -23 -122 -67
-127 -59 -3 4 3 25 13 47 20 44 49 62 99 63 25 1 32 -3 32 -17z"/>
<path d="M9274 1925 c-29 -30 -59 -55 -68 -55 -21 0 -30 -39 -17 -74 6 -15 11
-42 11 -59 1 -48 25 -73 66 -68 6 0 14 29 18 64 12 110 23 127 140 210 30 22
10 37 -47 37 -49 0 -53 -2 -103 -55z"/>
<path d="M10094 1963 c-39 -22 -112 -106 -130 -150 -8 -18 -14 -52 -14 -77 0
-62 40 -96 111 -96 65 0 138 32 167 73 l22 32 -21 3 c-12 2 -48 -6 -80 -18
-77 -28 -129 -20 -129 19 0 44 65 130 117 153 38 17 44 23 41 46 -4 34 -40 40
-84 15z"/>
<path d="M9472 1958 c-16 -16 -15 -26 10 -133 19 -80 26 -96 50 -110 46 -27
65 -12 114 88 47 97 53 127 28 148 -23 19 -43 2 -79 -66 -16 -32 -34 -58 -40
-57 -5 1 -15 26 -21 56 -15 75 -36 100 -62 74z"/>
<path d="M9792 1897 c-11 -13 -8 -179 4 -198 8 -14 40 -11 54 6 13 16 5 156
-12 188 -10 20 -31 22 -46 4z"/>
<path d="M11335 1476 c-32 -32 -33 -92 -3 -171 23 -60 42 -75 98 -75 37 0 96
-50 87 -72 -3 -9 -30 -27 -60 -41 -45 -22 -63 -25 -110 -20 -52 5 -57 4 -57
-14 0 -32 45 -48 131 -48 71 0 80 2 116 31 21 17 45 43 53 58 14 24 13 30 -10
73 -22 41 -36 53 -105 89 -64 33 -81 46 -87 70 -14 51 -5 57 73 52 90 -7 109
-2 109 27 0 32 -17 42 -80 49 -30 4 -72 9 -92 12 -31 5 -42 1 -63 -20z"/>
<path d="M11098 1453 c-13 -14 -17 -55 -20 -200 -5 -170 -4 -184 14 -200 16
-14 20 -15 32 -2 19 19 32 385 15 405 -15 18 -23 18 -41 -3z"/>
<path d="M10005 1413 c-38 -9 -81 -51 -93 -89 -11 -37 -10 -42 18 -82 l31 -44
-31 -35 c-23 -25 -28 -39 -21 -46 6 -6 11 -41 11 -78 0 -92 13 -125 56 -139
43 -15 86 -5 124 27 38 32 39 71 4 160 -14 35 -24 72 -21 81 3 9 13 37 22 61
22 60 11 126 -26 163 -27 28 -36 30 -74 21z m37 -80 c20 -18 23 -49 8 -87 -11
-31 -33 -33 -59 -7 -33 33 -35 58 -7 86 30 30 34 30 58 8z m20 -254 c43 -53 9
-126 -54 -117 -20 3 -23 10 -26 49 -6 94 34 128 80 68z"/>
<path d="M8233 1389 c-8 -8 -10 -51 -6 -138 3 -69 0 -162 -5 -206 -9 -69 -8
-82 5 -97 23 -25 51 -23 58 5 13 50 10 372 -3 410 -14 38 -29 46 -49 26z"/>
<path d="M9726 1360 c-40 -44 -84 -128 -111 -208 -22 -69 -17 -161 12 -199 44
-60 139 -49 203 24 57 64 32 115 -70 148 -30 10 -60 22 -67 27 -15 12 43 118
92 168 26 26 33 41 29 58 -10 35 -46 28 -88 -18z m8 -300 c58 0 97 -41 64 -68
-21 -16 -73 -23 -100 -13 -19 7 -27 19 -31 47 -8 46 -2 57 23 44 10 -5 30 -10
44 -10z"/>
<path d="M10498 1370 c-63 -52 -82 -93 -82 -179 0 -78 9 -103 58 -158 22 -26
64 -30 104 -10 15 8 54 27 87 43 49 24 64 37 83 74 28 56 28 86 -2 153 -19 44
-33 59 -71 80 -68 38 -128 37 -177 -3z m176 -67 c44 -56 47 -100 10 -142 -54
-61 -145 -80 -185 -40 -18 18 -21 30 -17 71 12 122 129 190 192 111z"/>
<path d="M8572 1353 c-148 -73 -207 -165 -162 -253 19 -37 24 -40 60 -40 34 0
48 7 86 42 49 45 64 42 64 -15 0 -88 47 -159 84 -128 13 11 13 18 1 51 -15 42
-20 74 -31 208 -6 75 -5 85 13 105 16 17 19 28 12 45 -12 31 -41 28 -127 -15z
m6 -115 c-25 -74 -97 -132 -118 -97 -13 20 15 65 62 98 58 41 70 40 56 -1z"/>
<path d="M9420 1371 c-14 -28 -4 -385 12 -419 9 -18 23 -28 41 -30 29 -4 34 7
17 38 -6 11 -11 100 -11 207 0 103 -3 196 -5 206 -7 23 -41 22 -54 -2z"/>
<path d="M8782 1347 l-23 -25 22 -16 c13 -9 43 -16 67 -16 24 0 52 -5 63 -10
36 -20 70 -87 72 -143 2 -50 1 -52 -23 -49 -92 9 -112 7 -130 -15 -14 -18 -16
-30 -10 -60 13 -56 40 -72 104 -60 28 5 79 10 113 11 84 1 95 15 45 55 -40 31
-40 32 -41 101 0 65 -18 121 -51 164 -57 73 -64 77 -125 83 -55 5 -62 3 -83
-20z"/>
<path d="M10876 1145 c-21 -22 -20 -58 2 -78 17 -16 20 -15 41 7 21 22 22 27
9 52 -16 34 -31 40 -52 19z"/>
<path d="M9222 1037 c-27 -29 -27 -39 -2 -62 23 -21 43 -15 65 19 36 55 -18
91 -63 43z"/>
<path d="M10242 1048 c-16 -16 -15 -39 2 -61 12 -15 18 -16 39 -6 34 15 41 38
21 60 -20 22 -45 24 -62 7z"/>
</g>
</svg>
