<?xml version="1.0" standalone="no"?>
<!DOCTYPE svg PUBLIC "-//W3C//DTD SVG 20010904//EN"
 "http://www.w3.org/TR/2001/REC-SVG-20010904/DTD/svg10.dtd">
<svg version="1.0" xmlns="http://www.w3.org/2000/svg"
 width="782.559823pt" height="400.000000pt" viewBox="0 0 782.559823 400.000000"
 preserveAspectRatio="xMidYMid meet">
<metadata>
Created by potrace 1.15, written by Peter Selinger 2001-2017
</metadata>
<g transform="translate(-8.945410,407.744609) scale(0.031475,-0.031475)"
fill="#444444" stroke="none">
<path d="M10739 12944 c-17 -21 -21 -52 -25 -219 -5 -201 -2 -193 -65 -192
-48 2 -52 0 -100 -50 l-49 -52 0 -70 c0 -68 1 -71 34 -96 40 -31 132 -60 149
-47 7 5 31 14 53 20 23 7 47 19 54 27 7 8 18 15 24 15 17 0 86 67 86 84 0 20
-20 20 -46 1 -33 -25 -51 -19 -50 18 0 17 -8 57 -16 87 -13 45 -16 95 -13 267
2 169 0 213 -10 217 -8 3 -19 -2 -26 -10z m-45 -500 c16 -6 86 -98 86 -112 0
-4 -17 -18 -38 -31 -26 -17 -49 -24 -76 -22 -96 5 -132 63 -86 139 17 27 25
32 59 32 22 0 46 -3 55 -6z"/>
<path d="M12065 12943 c-24 -6 -53 -31 -66 -55 -15 -28 6 -58 41 -58 28 0 30
-3 32 -37 5 -97 7 -123 17 -198 6 -44 10 -136 9 -205 -2 -141 10 -186 40 -156
14 13 18 44 22 153 3 78 9 138 15 140 6 1 30 -38 55 -87 24 -50 48 -90 51 -90
4 0 21 -24 38 -53 17 -29 39 -61 50 -71 19 -17 20 -17 30 3 12 21 1 63 -24 91
-7 8 -32 52 -56 98 -23 45 -46 82 -50 82 -5 0 -9 6 -9 14 0 8 -20 47 -45 87
-25 40 -45 79 -45 86 0 17 86 72 123 80 32 6 35 12 41 63 5 41 -16 70 -49 70
-12 0 -35 7 -52 15 -16 8 -45 17 -64 19 -19 3 -46 7 -59 9 -14 3 -34 3 -45 0z
m125 -109 c0 -16 -23 -44 -35 -44 -18 0 -20 21 -3 38 12 12 38 17 38 6z"/>
<path d="M9825 12925 c-109 -16 -182 -50 -191 -88 -5 -26 0 -34 52 -80 32 -29
74 -63 95 -77 21 -14 64 -43 96 -64 89 -61 132 -109 125 -143 -7 -41 -20 -53
-91 -85 -113 -52 -255 -43 -263 16 -4 30 -36 32 -49 3 -21 -47 20 -88 113
-113 93 -24 164 -19 245 20 74 36 97 59 113 117 8 28 6 42 -15 86 -27 53 -85
113 -110 113 -8 0 -31 18 -51 40 -20 22 -40 40 -45 40 -17 0 -109 76 -109 90
1 38 20 46 161 69 46 8 134 -7 170 -28 21 -12 29 -5 29 29 0 39 -20 51 -97 56
-37 2 -75 6 -83 8 -8 2 -51 -2 -95 -9z"/>
<path d="M13555 12913 c-4 -10 -9 -99 -11 -197 -2 -99 -7 -183 -12 -188 -5 -5
-22 -11 -38 -14 -43 -8 -68 -27 -104 -81 -62 -91 -59 -129 16 -200 37 -36 49
-42 72 -37 45 11 135 60 161 87 25 28 20 52 -10 44 -16 -4 -18 -1 -13 21 4 15
8 29 10 31 2 2 -4 20 -12 40 -12 28 -15 77 -15 214 0 97 3 193 7 212 9 48 -2
85 -25 85 -10 0 -22 -8 -26 -17z m-15 -517 c5 -14 21 -33 36 -42 l26 -18 -25
-21 c-30 -26 -123 -41 -145 -23 -17 15 -10 69 13 104 22 34 82 34 95 0z"/>
<path d="M6565 12860 c-16 -4 -50 -8 -75 -9 -51 -2 -80 -21 -104 -68 -19 -37
-19 -46 -6 -95 15 -52 62 -93 153 -130 120 -49 199 -137 183 -203 -13 -50
-100 -105 -166 -104 -19 0 -73 13 -120 28 -92 31 -110 30 -110 -3 0 -41 116
-93 225 -99 70 -5 91 2 161 48 39 26 55 45 68 80 23 58 15 101 -29 171 -38 60
-81 95 -151 124 -129 56 -163 86 -148 132 8 27 38 36 155 43 90 6 112 4 163
-14 80 -28 86 -27 86 14 0 29 -5 36 -32 49 -78 35 -194 51 -253 36z"/>
<path d="M10180 12765 c-23 -28 -8 -50 39 -53 53 -4 65 6 43 34 -23 28 -66 38
-82 19z"/>
<path d="M15655 12650 c-136 -68 -245 -175 -245 -240 0 -31 26 -70 46 -70 8 0
14 -4 14 -8 0 -12 46 -32 74 -32 41 0 120 49 160 100 22 28 42 50 46 50 8 0
20 -138 20 -235 -1 -117 -47 -187 -151 -226 -84 -31 -114 -32 -154 -7 -26 18
-37 35 -48 73 -15 57 -35 64 -55 22 -35 -73 79 -216 160 -200 14 3 35 0 47 -7
50 -26 225 106 250 189 19 66 24 193 12 321 -7 63 -14 156 -18 205 -3 50 -11
93 -17 97 -23 16 -64 6 -141 -32z m42 -133 c-57 -85 -109 -129 -153 -131 -54
-2 -55 23 -2 80 42 46 88 81 152 117 27 15 31 15 34 2 2 -9 -12 -39 -31 -68z"/>
<path d="M14666 12659 c-17 -26 -11 -48 18 -59 42 -15 67 27 41 69 -11 18 -43
12 -59 -10z"/>
<path d="M8283 12627 c-41 -17 -54 -28 -58 -49 -4 -15 -15 -37 -24 -50 -27
-34 -51 -112 -51 -166 0 -38 7 -57 30 -89 39 -52 72 -74 140 -90 53 -12 57
-12 113 18 32 17 71 41 86 55 15 13 36 30 46 38 30 22 9 39 -26 21 -16 -8 -42
-22 -59 -30 -37 -20 -117 -30 -164 -21 -43 8 -79 52 -56 66 8 5 17 7 21 5 15
-10 198 74 229 105 45 45 2 143 -80 185 -60 30 -80 30 -147 2z m142 -84 c53
-56 45 -73 -45 -104 -41 -15 -92 -27 -112 -28 -33 -1 -38 2 -38 22 0 30 59
118 90 134 42 21 68 15 105 -24z"/>
<path d="M11037 12603 c-25 -20 -43 -46 -58 -88 -46 -120 -22 -307 43 -335 13
-6 37 -19 53 -29 76 -49 219 -11 318 85 14 15 25 54 14 54 -11 0 -75 -35 -92
-50 -38 -34 -170 -43 -222 -17 -32 17 -63 57 -63 81 0 15 49 36 87 36 37 0 98
36 132 77 24 29 31 47 31 79 0 36 -6 47 -39 77 -68 61 -147 73 -204 30z m131
-49 c33 -9 54 -54 39 -84 -17 -32 -65 -58 -110 -59 -21 -1 -48 -6 -59 -12 -19
-10 -20 -9 -15 12 3 13 9 41 12 61 13 70 62 101 133 82z"/>
<path d="M13940 12623 c-8 -3 -34 -19 -58 -35 -71 -48 -132 -198 -118 -289 6
-40 43 -98 64 -100 27 -3 61 -11 84 -20 24 -10 40 -7 108 22 84 34 150 81 150
105 0 18 -29 12 -129 -27 -91 -36 -145 -37 -185 -6 l-29 23 44 26 c24 14 62
31 84 38 22 6 65 28 95 48 43 29 56 44 61 72 17 82 -92 173 -171 143z m100
-88 c22 -23 22 -25 6 -49 -11 -17 -35 -31 -74 -42 -31 -9 -72 -24 -89 -32 -42
-20 -51 -11 -24 26 12 17 21 35 21 41 0 25 81 80 121 81 8 0 26 -11 39 -25z"/>
<path d="M14372 12602 c-12 -2 -43 -28 -69 -58 -26 -30 -53 -54 -60 -54 -25 0
-32 -33 -18 -90 7 -30 16 -81 20 -113 5 -43 11 -60 27 -68 28 -15 42 2 40 48
-1 44 23 186 37 212 18 32 43 46 95 51 34 3 52 10 54 20 5 28 -73 60 -126 52z"/>
<path d="M8844 12587 c-41 -16 -87 -55 -118 -102 l-26 -37 -10 27 c-5 14 -10
29 -10 33 0 4 -12 15 -25 25 -27 20 -25 22 -41 -32 -2 -7 12 -61 31 -121 28
-85 41 -109 60 -118 30 -14 41 -2 49 53 23 147 67 189 209 200 48 4 87 11 87
16 0 5 -18 20 -39 33 -47 30 -124 41 -167 23z"/>
<path d="M15063 12589 c-18 -5 -49 -25 -69 -44 -20 -19 -42 -35 -49 -35 -29 0
-35 -27 -29 -121 9 -145 36 -219 79 -219 12 0 22 46 14 67 -31 84 -13 212 38
265 30 31 48 34 90 16 55 -25 79 -67 94 -163 14 -94 17 -101 44 -113 21 -10
26 -9 36 9 15 30 -5 140 -38 204 -45 87 -78 121 -127 134 -25 6 -46 11 -48 10
-2 0 -17 -5 -35 -10z"/>
<path d="M7011 12569 c-37 -22 -94 -109 -110 -164 -6 -22 -11 -61 -11 -87 0
-39 4 -50 31 -72 52 -44 119 -79 160 -83 78 -8 229 56 229 97 0 13 -4 13 -70
-5 -66 -18 -142 -18 -190 -1 -55 20 -49 38 27 76 87 43 143 86 143 111 0 56
-66 121 -137 137 -34 8 -47 6 -72 -9z m116 -81 c28 -26 29 -40 6 -61 -33 -29
-163 -63 -163 -42 0 17 34 83 52 102 28 30 74 30 105 1z"/>
<path d="M8023 12575 c-18 -8 -33 -19 -33 -25 0 -6 -13 -40 -30 -75 -16 -35
-30 -68 -30 -72 0 -4 -9 -19 -19 -32 l-19 -24 -15 29 c-8 16 -23 58 -32 94
-10 36 -24 76 -32 89 -13 21 -17 22 -30 8 -12 -12 -13 -26 -5 -83 15 -106 51
-195 90 -217 56 -33 76 -13 144 142 20 47 49 98 64 113 25 28 26 29 9 48 -21
23 -21 23 -62 5z"/>
<path d="M12656 12580 c-41 -13 -72 -45 -119 -125 -22 -38 -49 -80 -59 -91
-15 -17 -18 -30 -12 -59 9 -52 46 -91 109 -114 48 -18 65 -19 152 -12 127 11
203 40 203 77 0 22 -20 27 -39 10 -10 -9 -28 -16 -42 -16 -178 -4 -247 0 -259
14 -20 25 -5 42 56 61 67 21 200 108 209 136 9 28 -21 81 -60 107 -36 23 -86
27 -139 12z m104 -80 c11 -7 12 -14 4 -27 -11 -19 -119 -75 -167 -87 l-29 -7
24 42 c39 71 121 109 168 79z"/>
<path d="M7519 12556 c-20 -14 -43 -36 -53 -50 -9 -14 -25 -26 -35 -26 -29 0
-31 -32 -7 -149 19 -93 26 -113 48 -131 l27 -20 6 21 c4 11 4 62 0 113 -6 83
-5 97 15 139 27 57 38 63 110 66 30 1 57 4 59 7 14 14 -71 54 -114 54 -11 0
-36 -11 -56 -24z"/>
<path d="M10245 12556 c-15 -11 -17 -21 -12 -57 3 -25 2 -75 -3 -111 -6 -37
-7 -74 -4 -82 9 -23 41 -19 55 5 12 24 16 201 5 237 -8 26 -15 27 -41 8z"/>
<path d="M9263 12526 c-36 -11 -42 -30 -19 -61 14 -19 33 -21 191 -26 73 -3
131 40 73 54 -13 3 -41 12 -63 20 -51 19 -141 25 -182 13z"/>
<path d="M14677 12488 c-60 -61 -37 -299 27 -275 14 6 16 23 12 147 -2 78 -6
144 -9 147 -3 3 -17 -6 -30 -19z"/>
<path d="M13085 12473 c-11 -3 -32 -14 -46 -24 -14 -10 -39 -17 -55 -16 -24 2
-29 -2 -26 -18 1 -11 4 -62 7 -114 4 -99 18 -131 57 -131 17 0 19 7 16 63 -4
94 37 177 88 177 28 0 51 -63 59 -165 4 -52 11 -75 27 -92 11 -12 25 -20 29
-17 13 7 11 144 -2 205 -18 85 -92 148 -154 132z"/>
<path d="M17044 11335 c-26 -18 -38 -50 -54 -140 -21 -126 -32 -168 -81 -309
-27 -76 -49 -144 -49 -150 0 -7 6 -20 13 -30 41 -56 115 94 182 364 14 58 30
121 35 141 15 54 12 105 -6 123 -19 19 -15 19 -40 1z"/>
<path d="M14980 11320 c-8 -15 -8 -48 1 -120 7 -55 15 -100 18 -100 5 0 6 -79
2 -137 -1 -6 -11 -15 -23 -18 -88 -25 -140 -99 -142 -200 -1 -73 24 -100 92
-100 76 1 103 12 155 62 82 80 113 174 61 181 -24 3 -54 50 -54 84 0 31 -50
349 -56 360 -10 15 -43 8 -54 -12z m56 -485 c25 -24 26 -26 10 -50 -17 -25
-83 -65 -109 -65 -14 0 -27 28 -27 57 0 20 61 83 81 83 10 0 30 -11 45 -25z"/>
<path d="M17688 11233 c-24 -25 -80 -152 -129 -292 -23 -66 -23 -70 2 -100 19
-23 20 -23 39 -6 11 10 31 57 46 104 14 47 36 106 49 131 51 98 75 159 69 174
-9 25 -48 19 -76 -11z"/>
<path d="M15794 11131 c-22 -10 -55 -37 -73 -59 -17 -23 -40 -44 -51 -47 -10
-3 -22 -14 -25 -24 -7 -22 22 -160 37 -178 24 -30 67 -2 73 47 18 143 54 189
146 190 48 0 57 3 62 20 9 34 -43 70 -101 70 -15 0 -45 -9 -68 -19z"/>
<path d="M16635 11133 c-49 -10 -124 -35 -140 -47 -15 -11 -16 -16 -5 -35 8
-16 9 -43 5 -84 -9 -71 -19 -104 -43 -130 -11 -12 -17 -39 -19 -79 -1 -45 -11
-82 -39 -145 -40 -90 -38 -111 10 -99 27 7 53 39 59 71 1 11 5 25 8 30 4 6 12
26 18 47 20 61 51 86 118 93 38 5 88 21 134 44 67 32 77 41 101 88 50 100 24
157 -104 223 -57 30 -65 32 -103 23z m115 -105 c43 -22 45 -25 42 -63 -2 -28
-12 -49 -32 -69 -30 -30 -122 -66 -173 -66 l-28 0 7 63 c4 34 11 70 16 80 5
10 7 25 4 33 -7 19 40 43 84 44 20 0 56 -10 80 -22z"/>
<path d="M15358 11101 c-69 -44 -128 -123 -128 -172 0 -22 -5 -48 -12 -58 -14
-23 5 -53 27 -44 8 2 38 -9 67 -25 29 -17 78 -37 108 -46 52 -15 56 -15 80 2
30 22 63 83 51 95 -5 5 -30 1 -58 -9 -52 -19 -79 -15 -90 12 -4 11 9 30 45 63
76 68 103 149 62 186 -10 9 -38 19 -62 22 -35 4 -51 -1 -90 -26z m80 -79 c3
-10 -84 -81 -100 -82 -18 0 -5 25 32 62 38 38 59 45 68 20z"/>
<path d="M17295 11019 c-22 -4 -60 -8 -83 -8 -43 -1 -102 -26 -102 -44 0 -5
16 -35 36 -67 36 -58 59 -129 46 -141 -4 -4 -38 -3 -76 3 -59 8 -71 7 -87 -8
-10 -9 -19 -28 -19 -41 0 -29 39 -47 123 -57 64 -7 95 4 136 48 21 22 22 29
13 53 -6 15 -18 54 -26 85 -16 65 -12 72 46 83 49 9 83 45 74 79 -7 28 -14 29
-81 15z"/>
<path d="M14583 10857 c-15 -13 -40 -30 -55 -40 -30 -19 -44 -52 -30 -70 5 -7
13 -36 17 -64 4 -29 11 -53 15 -53 5 0 11 -9 15 -19 8 -25 32 -34 57 -20 17 9
19 17 12 62 -11 85 -10 101 9 123 29 35 52 19 86 -58 17 -39 31 -76 31 -83 0
-17 43 -55 63 -55 26 0 31 26 16 73 -8 23 -14 44 -15 47 -8 73 -47 134 -100
160 -53 26 -86 25 -121 -3z"/>
<path d="M14225 10850 c-10 -11 -25 -22 -35 -25 -10 -3 -36 -33 -60 -65 -33
-49 -43 -74 -51 -127 -9 -63 -8 -68 12 -84 12 -9 29 -31 38 -49 11 -22 34 -42
70 -61 89 -48 148 -36 215 43 26 30 36 51 36 75 0 46 -24 43 -75 -7 -33 -32
-52 -42 -93 -49 -46 -7 -52 -6 -57 11 -4 10 -11 18 -16 18 -25 0 -1 32 71 95
44 39 83 80 86 93 25 92 -84 195 -141 132z m55 -94 c0 -15 -76 -86 -92 -86
-16 0 -8 17 28 58 36 42 64 54 64 28z"/>
<path d="M13895 10734 c-22 -24 -46 -60 -53 -80 -11 -27 -20 -34 -36 -32 -48
6 -60 -32 -27 -86 10 -17 22 -42 26 -56 4 -14 13 -31 19 -39 6 -8 15 -28 21
-44 10 -30 58 -58 73 -42 4 4 5 37 2 73 -11 157 -7 198 26 244 25 36 37 44 77
52 51 10 55 16 31 40 -10 11 -33 16 -67 16 -49 -1 -54 -4 -92 -46z"/>
<path d="M5045 10705 c-17 -14 -18 -19 -6 -48 7 -17 23 -67 36 -109 13 -42 29
-86 35 -98 6 -12 15 -51 20 -88 18 -128 21 -141 41 -147 41 -13 56 9 61 90 5
79 15 97 55 109 35 11 83 -62 83 -124 0 -54 24 -84 62 -78 21 3 23 7 21 53 -7
131 -41 197 -121 231 -39 16 -80 8 -114 -23 -24 -21 -37 -9 -49 48 -16 79 -44
151 -66 175 -26 28 -31 29 -58 9z"/>
<path d="M8152 10693 c-36 -7 -39 -33 -7 -59 15 -12 34 -20 42 -17 7 3 19 0
26 -5 7 -6 32 -14 55 -18 42 -7 68 -26 58 -42 -3 -5 -31 -22 -62 -38 -113 -57
-141 -108 -79 -145 78 -47 82 -48 115 -39 71 20 79 54 20 77 -22 9 -39 21 -37
26 1 5 23 20 47 33 86 46 130 108 99 139 -22 21 -180 86 -219 90 -19 1 -45 1
-58 -2z"/>
<path d="M17435 10684 c-38 -38 -46 -60 -34 -87 16 -36 38 -41 64 -17 41 39
49 64 30 94 -20 30 -37 33 -60 10z"/>
<path d="M5956 10623 c-57 -59 -46 -100 37 -137 52 -23 87 -49 87 -66 0 -11
-57 -30 -92 -30 -35 0 -80 -31 -69 -48 4 -7 25 -21 46 -32 49 -25 92 -15 159
35 38 30 46 41 46 68 -1 40 -52 101 -104 122 -49 21 -42 36 19 42 57 5 77 18
73 47 -4 24 -33 34 -109 35 -53 1 -59 -2 -93 -36z"/>
<path d="M6725 10649 c-29 -18 -35 -31 -23 -53 15 -28 11 -96 -7 -116 -17 -19
-20 -51 -5 -66 14 -14 15 -66 2 -91 -7 -12 -12 -30 -12 -41 0 -11 -13 -52 -30
-92 -46 -111 -35 -165 24 -126 18 11 28 32 37 73 7 32 16 63 20 68 7 10 31 91
43 148 6 24 11 27 45 27 21 0 58 7 82 15 46 17 92 8 103 -20 8 -23 74 -30 95
-11 10 9 24 16 33 16 8 0 25 11 38 25 33 35 47 31 55 -13 14 -86 81 -155 119
-123 14 12 13 17 -3 49 -10 21 -21 64 -25 97 -10 89 -53 223 -76 235 -20 11
-62 -1 -90 -24 -8 -7 -28 -16 -44 -20 -16 -4 -42 -23 -59 -42 -17 -18 -36 -34
-42 -34 -6 0 -17 20 -24 44 -20 70 -38 81 -145 84 -57 1 -98 -2 -111 -9z m157
-83 c19 -8 40 -22 48 -30 11 -14 8 -20 -21 -45 -37 -33 -89 -48 -100 -30 -4 7
-6 31 -4 53 2 23 4 44 4 48 1 3 9 9 19 11 9 3 18 5 18 6 1 0 17 -5 36 -13z
m298 -30 c0 -38 -62 -96 -102 -96 -30 0 -20 16 33 59 47 37 69 49 69 37z"/>
<path d="M5695 10597 c-30 -18 -112 -96 -141 -134 -33 -43 -57 -129 -43 -154
5 -10 28 -23 50 -29 41 -11 42 -11 78 30 20 23 46 54 59 71 13 16 27 29 32 29
4 0 15 -19 25 -42 19 -49 71 -108 94 -108 20 1 51 24 51 38 0 6 -6 15 -14 19
-18 10 -71 116 -85 169 -6 23 -18 47 -26 54 -8 7 -15 18 -15 26 0 13 -27 44
-38 44 -4 -1 -16 -6 -27 -13z"/>
<path d="M7489 10559 c-79 -40 -125 -94 -134 -157 -8 -61 4 -83 60 -111 56
-28 73 -27 129 10 32 22 51 28 58 21 6 -6 6 -12 -1 -16 -6 -4 -11 -22 -11 -41
0 -19 -8 -59 -17 -89 -17 -54 -18 -56 -60 -62 -54 -8 -128 26 -153 71 -24 43
-35 43 -74 -2 -19 -22 -19 -23 8 -63 14 -22 32 -40 40 -40 7 0 21 -10 32 -21
39 -44 120 -61 181 -38 15 5 43 25 61 42 52 50 64 108 65 330 l2 192 -65 1
c-53 1 -75 -4 -121 -27z m98 -60 c13 -13 -3 -69 -31 -112 -32 -48 -119 -65
-129 -26 -12 44 24 90 98 127 50 25 49 24 62 11z"/>
<path d="M7845 10520 c-58 -27 -84 -59 -101 -128 -15 -57 -14 -62 5 -99 27
-53 71 -103 90 -103 9 0 29 -7 45 -15 43 -23 69 -18 109 18 56 50 50 60 -31
52 -68 -7 -69 -6 -95 25 -15 17 -27 35 -27 40 0 13 28 33 99 70 59 31 66 38
66 65 0 23 -9 35 -40 56 -54 37 -73 40 -120 19z m35 -95 c-13 -16 -40 -20 -40
-7 0 14 12 22 33 22 16 0 17 -3 7 -15z"/>
<path d="M15865 10422 c-22 -11 -74 -35 -115 -55 -84 -39 -160 -99 -160 -127
0 -9 -7 -23 -16 -31 -21 -17 -46 -68 -79 -163 -25 -69 -27 -88 -23 -165 5 -74
10 -95 40 -149 41 -74 74 -114 126 -152 43 -31 123 -45 168 -30 16 5 103 11
194 13 l165 3 57 33 c57 32 72 50 131 156 84 150 86 196 18 337 -34 71 -58
102 -144 190 -108 110 -148 142 -182 145 -11 1 -47 4 -80 8 -48 5 -68 2 -100
-13z m250 -141 c33 -25 62 -49 64 -54 1 -4 26 -33 55 -63 28 -31 55 -66 60
-77 5 -12 16 -38 24 -57 9 -19 17 -58 20 -85 4 -47 1 -55 -47 -127 -53 -78
-117 -142 -159 -159 -13 -5 -113 -11 -221 -13 -109 -2 -203 -6 -208 -9 -16
-10 -92 78 -119 138 -46 99 -42 172 15 295 17 36 85 126 111 146 8 7 29 24 45
38 17 14 37 26 46 26 9 0 27 8 40 19 35 27 47 29 134 28 78 0 80 -1 140 -46z"/>
<path d="M4632 10383 c-7 -12 -18 -14 -40 -10 -22 5 -34 1 -48 -14 -17 -19
-16 -23 15 -112 30 -88 49 -117 78 -117 21 0 30 39 22 93 -8 48 1 87 20 87 15
0 38 -35 61 -92 22 -58 42 -72 67 -47 14 14 -3 105 -28 146 -44 71 -124 108
-147 66z"/>
<path d="M4359 10327 c-9 -7 -22 -23 -29 -36 -12 -24 -96 -131 -110 -141 -12
-8 -57 -83 -64 -107 -10 -32 28 -63 77 -63 48 0 93 26 137 80 18 22 37 40 42
40 6 0 25 -13 43 -29 35 -30 103 -41 107 -17 0 6 2 18 3 26 0 8 -20 35 -45 60
-28 28 -51 62 -60 90 -14 41 -63 110 -79 110 -3 0 -13 -6 -22 -13z m11 -157
c0 -11 -91 -100 -102 -100 -15 0 -8 12 28 54 19 22 40 47 45 54 11 13 29 8 29
-8z"/>
<path d="M8220 10169 c-29 -40 -19 -79 24 -94 24 -8 31 -6 48 15 15 18 18 32
13 59 -11 60 -48 68 -85 20z"/>
<path d="M3980 10162 c-65 -34 -75 -46 -100 -112 -28 -75 -21 -129 21 -164 34
-29 112 -44 133 -27 8 7 18 11 22 10 48 -8 79 20 94 86 10 44 0 45 -75 4 -51
-28 -59 -30 -86 -19 -34 14 -47 51 -30 83 7 12 39 41 72 65 51 37 60 47 57 70
-2 22 -8 27 -33 27 -16 1 -50 -10 -75 -23z"/>
<path d="M3433 10071 c-72 -71 -69 -127 8 -146 23 -6 27 -2 41 34 18 45 13
127 -7 135 -8 3 -26 -8 -42 -23z"/>
<path d="M6085 9955 c-38 -12 -115 -49 -160 -78 -48 -30 -120 -116 -169 -201
-25 -43 -28 -58 -28 -138 0 -106 16 -180 48 -228 13 -19 24 -41 24 -48 0 -16
33 -63 83 -119 20 -24 37 -46 37 -51 0 -5 41 -12 90 -15 67 -4 102 -2 133 9
23 8 49 13 59 11 24 -7 113 11 166 34 44 19 162 122 162 142 0 5 8 21 18 35
63 93 47 235 -45 401 -119 216 -257 297 -418 246z m200 -111 c39 -19 59 -37
91 -86 107 -164 116 -188 119 -303 1 -65 -1 -73 -31 -110 -85 -107 -153 -144
-314 -172 -140 -24 -143 -24 -201 33 -91 89 -147 226 -136 332 6 61 65 167
119 218 54 50 159 106 213 114 58 8 73 6 140 -26z"/>
<path d="M15080 9949 c-14 -6 -50 -8 -80 -5 -37 4 -72 1 -108 -9 -29 -9 -56
-14 -60 -11 -21 13 -253 -39 -420 -94 -51 -16 -99 -30 -105 -30 -7 0 -35 -11
-63 -24 -27 -14 -68 -27 -90 -29 -23 -3 -86 -28 -140 -55 -55 -28 -124 -60
-154 -72 -30 -12 -62 -27 -70 -35 -8 -7 -26 -16 -40 -20 -14 -4 -31 -12 -38
-18 -7 -5 -25 -17 -41 -26 -97 -56 -110 -71 -103 -119 3 -23 9 -32 24 -32 25
0 84 31 132 69 21 17 44 31 51 31 13 0 99 37 145 63 14 8 63 26 110 42 47 15
105 38 130 50 48 24 294 106 445 148 128 36 190 49 270 57 73 8 237 28 293 36
44 7 41 32 -9 67 -44 30 -44 30 -79 16z"/>
<path d="M3487 9846 c-9 -19 -13 -36 -9 -38 12 -5 72 -85 72 -95 0 -15 35 -43
53 -43 25 0 22 64 -7 125 -42 92 -81 109 -109 51z"/>
<path d="M16642 9871 c-39 -4 -66 -12 -72 -21 -14 -21 -12 -57 2 -66 7 -5 92
-9 188 -9 164 -2 179 -3 244 -28 37 -15 76 -27 85 -27 19 0 129 -41 171 -64
14 -7 43 -19 65 -26 22 -7 83 -32 135 -57 52 -24 112 -51 133 -61 25 -11 36
-22 33 -32 -16 -53 -62 -149 -81 -170 -79 -87 -68 -173 16 -129 20 10 61 23
91 28 29 6 86 17 126 25 39 9 117 18 171 21 99 5 281 44 308 66 24 20 14 49
-34 97 -43 42 -84 95 -216 275 -62 86 -127 157 -142 157 -8 0 -22 -15 -31 -32
-9 -18 -31 -51 -49 -73 -18 -22 -42 -60 -55 -85 -39 -79 -43 -81 -103 -61 -29
10 -101 42 -162 71 -60 29 -137 61 -170 72 -33 11 -73 26 -90 33 -62 29 -136
55 -154 55 -10 0 -31 6 -47 14 -16 8 -78 17 -139 20 -60 4 -121 8 -135 10 -14
2 -53 0 -88 -3z"/>
<path d="M7726 9808 c-3 -18 -7 -69 -9 -113 -3 -44 -12 -98 -21 -119 -16 -38
-16 -38 -60 -32 -25 4 -89 22 -143 40 -83 28 -128 36 -291 51 -106 10 -196 15
-199 11 -3 -3 -12 -1 -20 6 -19 16 -165 23 -190 9 -11 -5 -23 -22 -26 -37 -4
-22 0 -28 27 -39 17 -7 70 -13 117 -14 47 -1 112 -6 145 -12 101 -17 117 -19
199 -23 87 -4 206 -28 270 -56 22 -9 63 -23 92 -29 l52 -13 -25 -55 c-13 -31
-24 -62 -24 -70 0 -8 -25 -40 -55 -71 -54 -56 -63 -74 -46 -100 9 -15 104 -10
124 7 19 15 99 41 130 41 15 0 40 6 55 13 25 13 120 18 398 21 72 1 104 14
104 42 0 35 -87 138 -166 198 -22 16 -57 53 -78 83 -65 89 -301 293 -338 293
-12 0 -19 -10 -22 -32z"/>
<path d="M5142 9663 c-26 -6 -104 -12 -174 -12 -76 1 -135 -4 -148 -11 -36
-19 -163 -50 -210 -50 -53 0 -114 -16 -148 -38 -13 -8 -54 -26 -91 -38 -94
-32 -168 -67 -219 -103 -23 -17 -60 -39 -83 -48 -54 -21 -70 -59 -37 -85 13
-10 28 -18 35 -18 6 0 63 26 125 58 101 51 142 70 228 106 14 5 32 16 41 23 8
7 31 15 50 17 19 3 47 9 62 15 16 6 47 11 70 11 24 0 94 13 157 29 63 16 147
32 185 36 39 3 87 8 108 10 21 2 116 7 210 11 95 3 176 10 181 14 15 15 -3 59
-27 65 -63 14 -272 20 -315 8z"/>
<path d="M9800 9599 c-30 -4 -93 -6 -139 -4 -46 3 -92 0 -102 -6 -11 -5 -25
-6 -32 -2 -16 11 -438 5 -451 -6 -6 -5 -22 -9 -36 -10 -14 0 -32 -1 -40 -1 -8
-1 -39 1 -69 5 -37 5 -62 3 -78 -6 -15 -8 -27 -9 -31 -4 -10 14 -61 16 -231 9
-94 -4 -118 -8 -143 -25 -20 -15 -27 -26 -22 -38 3 -9 8 -40 10 -68 2 -29 7
-61 12 -70 5 -10 7 -36 5 -57 -2 -22 -1 -47 3 -55 3 -9 7 -153 10 -321 4 -310
8 -430 19 -487 3 -18 1 -34 -5 -38 -6 -4 -8 -21 -5 -38 5 -32 13 -125 20 -242
17 -258 26 -378 30 -385 3 -5 5 -57 5 -117 -1 -105 0 -483 1 -533 1 -78 -5
-169 -17 -275 -8 -66 -17 -187 -20 -270 -8 -189 -7 -166 -4 -327 1 -75 -1
-141 -5 -148 -4 -6 -4 -31 0 -56 5 -37 13 -48 50 -74 l44 -30 248 -5 c227 -5
387 -11 438 -15 11 -1 72 3 135 10 63 6 149 11 190 11 41 -1 107 5 145 14 136
31 219 44 417 65 49 5 92 11 98 15 5 3 101 8 212 10 112 3 235 8 273 11 39 4
102 8 140 9 39 1 117 6 175 10 58 4 130 8 160 10 30 1 112 8 182 13 114 10
208 11 563 9 61 -1 178 0 260 1 83 2 184 1 225 -2 41 -3 181 -10 310 -15 129
-6 307 -13 395 -17 144 -6 163 -5 178 10 10 11 15 26 12 39 -10 42 -25 162
-31 247 -3 47 -9 99 -14 115 -5 17 -12 77 -15 135 -4 58 -8 111 -11 119 -12
35 -19 358 -19 871 0 550 6 757 25 861 5 30 12 67 14 83 3 16 12 115 21 220 8
105 19 229 24 276 5 47 10 94 10 105 0 11 9 70 20 131 10 61 21 136 22 165 4
53 3 54 -21 50 -14 -2 -164 -4 -335 -6 -170 -1 -373 -5 -450 -8 -77 -4 -156
-2 -175 3 -19 5 -111 12 -203 15 -92 3 -179 10 -192 15 -29 11 -256 20 -625
25 -303 5 -410 11 -455 25 -16 5 -79 10 -140 10 -60 0 -126 0 -145 0 -19 0
-48 5 -65 10 -16 5 -97 12 -178 15 -82 3 -154 8 -160 12 -16 10 -368 11 -437
2z m312 -88 c29 1 71 1 93 1 22 -1 47 -1 55 -1 8 0 42 -4 75 -11 33 -6 96 -13
140 -16 44 -2 95 -9 112 -15 18 -6 65 -9 105 -8 80 2 307 -16 405 -32 34 -6
67 -8 74 -4 6 5 116 7 243 6 311 -1 391 -5 649 -31 55 -6 102 -8 106 -6 3 2
29 0 56 -5 60 -12 434 -15 525 -4 36 4 176 8 313 9 216 1 246 -1 241 -14 -4
-8 -8 -42 -9 -75 -1 -33 -7 -78 -13 -100 -9 -34 -17 -108 -38 -355 -2 -25 -6
-60 -10 -79 -3 -19 -7 -64 -10 -100 -8 -123 -19 -248 -43 -466 -11 -98 -16
-216 -13 -310 1 -33 1 -249 0 -480 -1 -231 2 -454 5 -495 4 -41 9 -139 13
-218 3 -79 7 -153 10 -165 2 -12 8 -44 13 -72 6 -27 12 -102 15 -165 2 -63 8
-123 11 -132 4 -11 2 -20 -6 -23 -13 -5 -461 11 -569 19 -314 25 -548 38 -559
32 -6 -4 -166 -9 -357 -11 -190 -3 -349 -7 -354 -10 -7 -4 -176 -15 -320 -19
-25 -1 -65 -5 -90 -9 -54 -8 -262 -17 -488 -22 -172 -4 -288 -14 -428 -39 -44
-8 -114 -17 -155 -21 -41 -3 -103 -12 -139 -19 -36 -8 -74 -14 -85 -14 -130
-6 -237 -13 -270 -17 -43 -7 -301 -7 -565 -1 -91 3 -193 5 -228 5 l-63 1 1
188 c0 103 0 194 0 202 0 16 2 37 25 325 11 137 28 556 26 640 -7 272 -25 602
-36 670 -20 121 -34 366 -40 715 -5 276 -12 469 -20 540 -12 105 -13 146 -4
162 8 15 32 17 222 17 382 0 375 0 410 17 28 15 44 16 132 6 124 -14 284 -16
348 -4 26 5 49 7 51 3 11 -17 301 6 317 25 9 11 16 11 40 -1 16 -9 51 -15 81
-14z"/>
<path d="M10851 9216 c-14 -15 -21 -32 -17 -43 3 -10 8 -94 11 -188 3 -93 8
-190 10 -215 16 -153 14 -147 45 -160 37 -15 53 -5 46 28 -13 63 -26 269 -27
417 0 93 -5 165 -11 173 -15 18 -32 15 -57 -12z"/>
<path d="M11390 9186 c-9 -12 -6 -33 15 -100 15 -48 25 -101 23 -123 -3 -37
-4 -38 -36 -35 -27 3 -35 -1 -39 -17 -3 -11 -14 -23 -24 -26 -10 -4 -19 -10
-19 -15 0 -14 48 -39 87 -46 l39 -6 -1 -89 -1 -89 34 -11 c49 -16 57 -3 58 97
2 99 9 111 72 119 48 6 112 30 112 42 -1 29 -22 38 -82 36 -96 -4 -103 3 -123
116 -25 131 -74 195 -115 147z"/>
<path d="M11782 9170 c-18 -11 -31 -24 -28 -29 9 -15 16 -295 8 -351 -10 -71
-6 -85 24 -99 37 -16 53 -14 63 12 17 43 70 104 95 111 18 4 35 1 51 -11 25
-18 69 -119 80 -185 5 -25 13 -38 28 -42 12 -3 23 -3 25 -1 2 2 4 28 4 57 1
59 -25 150 -48 168 -7 7 -14 18 -14 24 0 14 -87 72 -121 80 -16 3 -40 -2 -64
-14 -21 -11 -39 -19 -40 -17 -17 34 -24 61 -18 70 9 15 4 229 -5 239 -4 4 -22
-1 -40 -12z"/>
<path d="M9012 9162 c-8 -5 -13 -27 -12 -53 1 -54 3 -191 3 -239 0 -84 -15
-206 -27 -220 -20 -22 -33 -119 -21 -158 7 -24 14 -32 29 -30 16 2 23 18 37
88 9 47 26 129 38 183 12 55 21 114 21 133 0 23 5 34 14 34 17 0 56 -51 56
-73 0 -8 7 -20 15 -27 8 -7 15 -18 15 -26 0 -19 54 -54 83 -54 26 0 67 40 67
66 0 7 10 32 22 56 l22 42 8 -35 c9 -43 17 -153 17 -242 1 -60 4 -70 21 -74
11 -3 20 -12 20 -20 0 -8 6 -13 13 -11 38 13 7 618 -33 643 -14 9 -60 -17 -60
-34 0 -9 -6 -28 -14 -43 -8 -14 -17 -46 -21 -70 -4 -24 -18 -66 -31 -95 -13
-28 -24 -56 -24 -62 0 -24 -24 -21 -48 5 -30 32 -65 102 -115 234 -28 73 -36
85 -57 88 -14 1 -31 -2 -38 -6z"/>
<path d="M11078 9077 c-20 -17 -23 -25 -14 -33 21 -19 57 -36 64 -30 10 10 9
60 -1 74 -13 16 -17 15 -49 -11z"/>
<path d="M10130 8885 c-27 -28 -52 -32 -73 -10 -13 12 -17 12 -32 -5 -16 -18
-17 -25 -5 -63 7 -23 14 -66 16 -95 4 -70 22 -107 54 -107 24 0 25 3 31 85 6
95 16 120 53 139 33 18 51 9 76 -38 19 -39 21 -52 21 -156 -1 -76 42 -89 68
-21 12 32 13 50 3 108 -17 99 -62 164 -121 174 -20 3 -43 8 -52 10 -8 2 -26
-7 -39 -21z"/>
<path d="M10544 8887 c-77 -42 -117 -108 -110 -184 5 -61 11 -73 35 -73 10 0
39 -7 65 -16 44 -15 50 -15 91 1 50 18 120 91 127 130 13 63 -16 97 -112 133
-50 19 -74 21 -96 9z m125 -81 c33 -39 -69 -146 -125 -132 -51 13 -38 102 19
130 40 19 91 20 106 2z"/>
<path d="M9658 8871 c-8 -10 -20 -20 -24 -22 -5 -3 -24 -21 -43 -41 -60 -65
-59 -197 1 -223 12 -5 34 -17 48 -27 56 -36 138 -31 195 14 48 38 85 106 85
157 -1 56 -38 115 -90 142 -48 26 -149 26 -172 0z m148 -51 c16 0 34 -46 34
-87 0 -54 -75 -133 -127 -133 -27 0 -62 48 -70 94 -4 26 0 42 17 65 26 38 87
72 115 66 11 -3 25 -5 31 -5z"/>
<path d="M11125 8860 c-22 -24 -32 -84 -27 -163 3 -48 8 -60 29 -74 20 -13 26
-14 33 -4 6 10 19 130 24 225 1 5 -8 15 -20 22 -18 13 -23 12 -39 -6z"/>
<path d="M21850 9495 c-86 -8 -213 -10 -350 -7 -275 8 -265 8 -460 -11 -91 -9
-226 -19 -300 -22 -74 -4 -138 -9 -142 -11 -4 -3 -47 0 -95 6 -71 9 -275 13
-403 8 -14 -1 -129 5 -257 12 -127 7 -280 10 -340 7 -177 -10 -265 -17 -316
-27 -26 -6 -85 -7 -131 -4 -56 5 -111 2 -171 -9 -50 -9 -121 -20 -160 -27 -38
-6 -97 -15 -130 -20 -33 -5 -90 -12 -126 -15 -46 -5 -73 -13 -93 -29 -28 -22
-28 -23 -18 -82 5 -32 7 -63 2 -69 -13 -17 -22 -67 -26 -131 -2 -52 -10 -108
-29 -204 -21 -105 -28 -238 -30 -520 -1 -179 1 -329 4 -335 4 -8 9 -294 12
-780 1 -44 -2 -109 -6 -145 -9 -92 -8 -130 4 -260 6 -63 13 -142 15 -175 6
-86 17 -154 27 -161 5 -3 9 -13 9 -23 0 -10 17 -29 38 -43 58 -39 107 -51 176
-44 86 9 407 15 1021 20 292 3 654 8 805 11 151 3 383 8 515 10 238 5 508 25
595 45 25 5 104 14 175 20 72 5 164 14 205 21 46 7 213 12 425 13 257 2 363 6
399 16 39 10 112 11 360 5 171 -4 381 -9 466 -11 85 -2 236 -8 334 -14 99 -5
235 -10 303 -10 l123 0 11 28 c6 15 8 43 4 62 -4 19 -5 46 -4 60 10 80 -6 426
-21 465 -6 15 -10 39 -10 53 1 136 -12 356 -29 487 -31 250 -32 269 -33 455 0
226 10 693 18 790 9 103 11 417 4 460 -6 37 -6 37 -77 25 -12 -2 -44 2 -70 9
-26 6 -64 11 -83 10 -32 -2 -71 5 -205 36 -46 11 -89 17 -235 35 -63 8 -306
10 -665 6 -326 -3 -585 4 -860 23 -22 2 -101 -3 -175 -9z m335 -100 c295 -17
785 -23 1075 -14 107 4 224 3 260 -1 36 -4 124 -13 195 -20 72 -6 170 -20 218
-31 49 -10 115 -19 147 -19 54 0 58 -2 70 -29 8 -19 9 -46 5 -73 -4 -24 -9
-92 -10 -153 -3 -128 -13 -361 -24 -595 -7 -154 -6 -617 2 -650 2 -8 7 -37 11
-65 4 -27 11 -79 17 -115 16 -110 18 -130 24 -285 3 -82 10 -175 15 -205 9
-53 21 -280 23 -443 0 -48 -4 -82 -11 -89 -9 -9 -59 -11 -174 -9 -89 1 -166 5
-171 8 -10 6 -555 24 -827 27 -185 3 -361 -6 -487 -25 -84 -11 -100 -11 -170
5 -84 20 -223 18 -477 -6 -67 -6 -136 -10 -154 -10 -18 1 -72 -7 -120 -17 -48
-11 -121 -22 -162 -26 -41 -3 -98 -8 -126 -11 -29 -3 -83 -7 -120 -8 -38 -2
-105 -9 -149 -15 -83 -11 -772 -22 -1650 -26 -275 -1 -536 -6 -580 -11 -44 -5
-118 -8 -165 -7 -47 1 -128 2 -181 2 l-97 1 -12 48 c-17 70 -27 254 -23 452 9
504 8 774 -4 1016 -14 292 -15 486 -2 604 5 41 15 143 24 225 32 296 55 422
78 437 7 4 28 10 47 13 19 3 49 10 66 15 17 6 46 10 65 10 41 0 187 24 249 41
54 14 84 16 360 24 276 8 500 9 670 1 74 -3 212 -8 305 -10 94 -2 244 -7 335
-10 130 -5 201 -3 335 12 94 11 177 20 185 20 8 0 87 3 175 6 94 4 209 2 280
-5 92 -8 149 -8 245 2 69 6 130 15 137 18 12 6 129 5 278 -4z"/>
<path d="M23157 9121 c-4 -18 8 -89 27 -161 13 -47 -12 -64 -101 -68 -43 -2
-84 -9 -90 -14 -44 -35 24 -78 124 -78 71 0 72 0 75 -27 2 -16 -3 -68 -10
-118 -7 -49 -15 -109 -19 -132 -6 -46 7 -73 36 -73 23 0 48 46 54 100 9 74 29
214 33 228 2 7 12 15 21 18 49 15 83 35 83 49 0 18 -39 35 -80 35 -32 0 -37
12 -59 134 -12 68 -45 126 -71 126 -10 0 -20 -9 -23 -19z"/>
<path d="M20893 9070 c-25 -23 -25 -25 -14 -55 5 -11 4 -33 0 -50 -5 -17 -5
-64 1 -110 5 -44 11 -169 12 -277 3 -170 6 -200 20 -215 16 -16 19 -16 39 3
20 18 21 26 17 117 -5 88 -3 99 13 108 18 9 48 -3 86 -36 6 -5 35 -26 63 -45
28 -19 67 -47 86 -62 19 -15 56 -35 80 -44 51 -19 70 -11 76 36 3 22 -3 27
-49 42 -51 17 -125 61 -221 132 -70 51 -68 86 5 86 33 0 153 36 174 53 28 22
47 61 48 102 0 33 -6 48 -38 85 -22 25 -59 55 -82 67 -118 58 -159 72 -224 78
-63 6 -72 5 -92 -15z m267 -116 c52 -29 100 -75 100 -98 0 -37 -103 -82 -209
-92 -65 -6 -70 -5 -81 16 -19 35 -19 188 0 201 28 19 134 4 190 -27z"/>
<path d="M18995 8922 c-51 -9 -122 -36 -142 -55 -21 -18 -22 -27 -18 -91 5
-72 15 -129 35 -201 6 -22 15 -56 19 -75 4 -19 15 -51 23 -70 30 -69 50 -131
45 -144 -7 -17 -128 -66 -163 -66 -36 0 -131 -66 -151 -104 -8 -17 -27 -47
-42 -66 -39 -52 -81 -148 -81 -184 0 -21 8 -40 23 -53 12 -11 30 -29 39 -39
80 -91 197 -156 341 -190 73 -17 77 -19 77 -46 0 -38 -139 -385 -200 -499 -17
-33 -30 -62 -28 -63 17 -15 49 -23 76 -19 32 5 32 5 32 -35 0 -57 39 -102 88
-102 90 -1 277 135 380 275 43 59 122 140 143 147 8 3 24 -9 38 -31 23 -32 91
-122 123 -161 7 -9 33 -42 57 -73 53 -70 71 -80 121 -72 21 3 57 1 81 -5 24
-7 71 -13 105 -13 83 -2 130 28 168 110 25 51 27 65 22 118 -9 80 -60 302 -77
335 -13 24 -56 143 -63 172 -6 25 -3 27 57 47 34 11 98 25 141 31 125 18 232
76 268 143 20 38 23 99 7 165 -13 52 -52 112 -74 112 -7 0 -32 18 -54 39 -44
42 -177 121 -205 121 -8 0 -34 7 -56 16 -34 14 -38 19 -30 34 41 77 96 304 86
358 -17 97 -32 134 -68 160 -9 7 -23 18 -30 25 -50 51 -110 61 -191 33 -59
-20 -86 -37 -157 -96 -30 -25 -87 -67 -127 -93 -39 -27 -74 -55 -77 -62 -3 -8
-19 -21 -37 -31 l-32 -16 -96 100 c-94 98 -208 192 -234 192 -7 0 -18 5 -24
11 -10 10 -101 18 -138 11z m185 -116 c19 -13 58 -49 85 -80 28 -31 78 -86
113 -121 34 -36 62 -67 62 -69 0 -11 -113 -173 -132 -188 -13 -12 -37 -18 -72
-18 -28 0 -75 -7 -104 -14 -30 -8 -60 -12 -66 -10 -16 6 -82 155 -108 244 -11
36 -25 105 -32 153 -14 101 -13 102 62 123 63 18 148 9 192 -20z m859 28 c24
-5 38 -18 59 -53 23 -39 27 -57 27 -121 0 -68 -13 -140 -35 -195 -4 -11 -14
-40 -21 -65 -23 -76 -23 -76 -209 -73 -152 3 -165 4 -187 25 -13 12 -23 27
-23 34 0 7 -22 42 -50 78 l-49 66 36 27 c20 16 59 49 87 74 28 25 79 65 113
87 34 23 65 46 68 52 7 12 125 70 141 70 6 0 26 -3 43 -6z m-507 -431 c15 -16
28 -37 30 -48 2 -16 -5 -21 -47 -27 -52 -8 -95 -3 -95 11 0 16 60 91 73 91 7
0 25 -12 39 -27z m449 -187 c4 -23 -74 -159 -105 -185 -19 -16 -30 -5 -68 69
-13 25 -31 57 -41 72 -17 26 -17 27 3 41 15 10 46 14 115 12 52 -1 96 -5 96
-9z m-773 -33 c-20 -36 -45 -63 -58 -63 -3 0 -12 16 -19 35 -17 48 -3 65 55
65 l43 0 -21 -37z m441 21 c5 -5 23 -34 39 -64 16 -30 46 -82 66 -115 56 -91
55 -94 -3 -210 -59 -114 -62 -118 -191 -155 -119 -36 -134 -36 -163 -5 -14 16
-38 58 -53 94 -15 36 -38 85 -52 109 -43 76 -53 125 -36 179 26 81 68 162 89
172 25 12 292 8 304 -5z m573 -28 c25 -13 61 -34 80 -47 18 -13 34 -22 36 -21
2 2 30 -21 62 -52 61 -57 79 -98 66 -150 -11 -46 -87 -81 -221 -100 -66 -10
-142 -24 -168 -33 -26 -8 -54 -13 -61 -10 -7 3 -30 40 -51 82 l-38 76 19 42
c10 23 23 49 30 57 17 22 64 117 64 131 0 52 101 66 182 25z m-1186 -23 c8
-10 33 -56 56 -102 47 -95 51 -140 19 -211 -11 -25 -21 -58 -21 -75 0 -40 -34
-93 -64 -101 -28 -7 -173 30 -231 59 -90 45 -175 121 -175 157 0 24 83 181
111 209 28 29 105 57 189 70 85 13 102 12 116 -6z m853 -359 c27 -34 26 -50
-1 -65 -31 -17 -98 -28 -98 -17 0 17 28 74 44 91 23 23 31 22 55 -9z m-650
-30 c12 -15 21 -33 21 -40 0 -7 8 -29 17 -49 15 -31 15 -37 3 -45 -17 -11 -93
-13 -126 -4 -20 5 -21 9 -12 41 18 64 47 123 62 123 8 0 24 -12 35 -26z m731
-161 c6 -16 21 -50 35 -78 47 -96 65 -148 95 -269 32 -130 36 -170 21 -209
-11 -29 -63 -62 -111 -71 -92 -16 -234 63 -306 171 -19 29 -40 56 -47 60 -21
13 -87 99 -87 114 0 7 13 27 29 44 16 16 50 71 75 121 48 95 57 104 121 104
17 0 53 9 80 20 68 26 84 25 95 -7z m-377 -59 c7 -8 -26 -76 -48 -98 -9 -9
-22 -16 -28 -16 -14 0 -64 86 -55 95 13 13 121 29 131 19z m-234 -30 c5 -5 21
-31 36 -59 15 -27 31 -54 36 -59 5 -6 9 -24 9 -40 0 -25 -18 -50 -85 -125 -47
-51 -85 -97 -85 -101 0 -5 -34 -37 -76 -72 -42 -34 -85 -71 -97 -81 -38 -33
-112 -66 -127 -57 -9 6 -13 33 -12 96 0 64 -4 93 -14 105 -15 16 5 72 101 284
12 28 26 61 30 75 4 14 11 30 16 36 10 13 256 11 268 -2z"/>
<path d="M19460 8043 c-29 -10 -70 -57 -70 -78 0 -59 37 -116 88 -136 45 -18
127 -11 163 14 29 20 34 29 37 69 4 58 -13 86 -69 116 -39 21 -112 28 -149 15z"/>
<path d="M21585 8812 c-61 -37 -135 -165 -135 -233 0 -77 30 -127 108 -181 66
-46 164 -66 231 -48 56 15 132 106 103 124 -5 3 -30 -6 -57 -19 -65 -33 -139
-34 -203 -1 -64 32 -89 61 -72 81 7 8 20 15 30 15 10 0 35 7 56 16 22 9 68 25
103 35 79 23 101 42 101 87 0 28 -8 43 -39 72 -67 64 -168 87 -226 52z m166
-91 c23 -19 23 -20 5 -34 -21 -15 -84 -32 -159 -42 l-48 -6 20 39 c23 44 53
60 117 61 27 1 50 -6 65 -18z"/>
<path d="M22775 8775 c-43 -15 -74 -47 -107 -109 -41 -80 -1 -165 105 -218 97
-50 171 -47 195 7 14 30 8 35 -48 35 -93 0 -187 58 -183 112 3 31 52 88 91
106 50 22 72 42 72 64 0 15 -8 18 -42 18 -24 -1 -61 -7 -83 -15z"/>
<path d="M22225 8730 c-73 -37 -134 -89 -172 -147 -32 -47 -38 -64 -36 -105 4
-135 164 -133 287 3 29 33 59 59 65 59 17 0 46 -35 72 -88 22 -45 69 -78 96
-68 14 6 14 8 -1 24 -9 10 -16 23 -16 29 0 5 -11 20 -25 33 -14 13 -25 31 -25
39 0 29 -41 126 -65 151 -12 14 -27 39 -32 55 -9 27 -14 30 -59 33 -34 2 -61
-4 -89 -18z m100 -92 c-19 -84 -108 -166 -199 -183 -32 -7 -36 -5 -42 20 -6
23 1 35 57 91 65 66 126 104 167 104 21 0 23 -3 17 -32z"/>
<path d="M20992 7892 c-89 -18 -142 -48 -142 -80 0 -35 69 -97 155 -138 38
-19 73 -41 78 -49 5 -9 26 -23 48 -31 46 -19 89 -66 89 -99 0 -37 -54 -64
-154 -76 -101 -12 -151 -1 -168 37 -14 29 -18 30 -52 3 -32 -25 -33 -49 -3
-76 31 -29 79 -42 178 -47 120 -8 218 27 251 88 32 60 30 71 -36 140 -34 36
-69 66 -77 66 -8 0 -20 9 -26 19 -12 19 -67 51 -87 51 -7 0 -31 20 -55 44 -43
44 -43 44 -21 56 13 7 79 15 147 18 123 5 125 5 134 31 9 21 7 29 -12 43 -26
22 -141 21 -247 0z"/>
<path d="M22671 7801 c-27 -37 -27 -38 9 -56 28 -15 30 -14 46 10 14 21 15 31
6 50 -15 33 -36 31 -61 -4z"/>
<path d="M23051 7730 c-64 -30 -152 -124 -175 -188 -22 -64 -18 -141 11 -180
26 -35 90 -72 125 -72 40 0 213 57 228 76 20 23 0 35 -41 24 -20 -6 -78 -11
-129 -13 -114 -4 -130 7 -130 87 0 74 31 122 110 173 36 22 73 49 83 58 18 16
18 18 1 36 -21 24 -28 23 -83 -1z"/>
<path d="M23432 7739 c-53 -15 -110 -123 -127 -240 -10 -67 22 -121 100 -169
32 -20 56 -25 132 -28 135 -6 233 27 233 80 0 19 -4 19 -144 13 -129 -7 -147
-6 -175 11 -17 10 -30 23 -28 29 2 5 26 22 53 36 64 34 164 134 164 165 0 29
-71 90 -119 104 -42 11 -45 11 -89 -1z m122 -92 c16 -12 16 -14 -5 -41 -21
-27 -109 -76 -136 -76 -27 0 -11 58 27 101 14 16 38 24 81 28 8 0 23 -5 33
-12z"/>
<path d="M21492 7720 c-35 -5 -55 -18 -99 -62 -54 -54 -55 -56 -58 -119 -2
-36 -7 -72 -10 -81 -4 -11 3 -19 27 -27 31 -11 132 -59 261 -124 60 -30 103
-31 127 -2 16 19 6 31 -31 39 -45 9 -150 56 -176 79 -33 29 -29 44 18 67 62
32 149 121 149 152 0 69 -81 99 -208 78z m122 -88 c8 -14 -66 -65 -123 -84
-74 -25 -82 -24 -77 9 6 31 20 46 61 67 31 17 130 22 139 8z"/>
<path d="M22035 7678 c-16 -6 -52 -27 -80 -48 -27 -20 -65 -45 -82 -56 -20
-11 -33 -26 -33 -39 0 -20 35 -136 51 -167 5 -10 9 -27 9 -38 0 -25 44 -38 66
-20 12 11 14 28 8 95 -6 70 -4 88 14 128 24 54 61 77 124 77 60 0 88 10 88 30
0 34 -104 58 -165 38z"/>
<path d="M22241 7641 c-13 -8 -13 -21 -3 -83 6 -40 23 -110 37 -155 23 -73 28
-82 57 -92 51 -18 86 10 120 94 15 39 42 98 59 132 35 68 33 97 -7 107 -43 11
-60 -8 -89 -99 -24 -75 -44 -105 -69 -105 -2 0 -14 33 -26 73 -12 39 -26 87
-32 105 -10 33 -22 39 -47 23z"/>
<path d="M22666 7591 c-14 -15 -16 -38 -14 -137 3 -117 3 -118 30 -133 24 -14
28 -14 48 4 15 13 19 26 15 44 -2 14 -7 58 -10 96 -8 99 -14 124 -35 135 -13
7 -22 5 -34 -9z"/>
<path d="M3610 9170 c-103 -16 -1073 -28 -1395 -18 -93 3 -276 1 -405 -4 -129
-5 -273 -9 -319 -10 -46 0 -125 -6 -175 -13 -49 -7 -133 -13 -185 -14 -124 -3
-191 -16 -218 -44 -19 -19 -21 -27 -13 -62 5 -22 9 -146 10 -277 0 -130 3
-243 6 -252 3 -9 3 -24 -1 -33 -4 -10 -6 -52 -5 -93 4 -138 3 -347 -2 -356 -3
-5 -1 -45 4 -89 12 -99 16 -585 5 -592 -4 -2 -5 -23 -2 -46 5 -42 -4 -116 -30
-232 -11 -51 -11 -62 1 -76 33 -36 8 -108 -75 -224 -28 -38 -63 -90 -79 -114
-15 -24 -36 -56 -48 -70 -12 -14 -24 -39 -28 -55 -4 -16 -30 -70 -57 -120 -28
-50 -73 -158 -101 -240 -48 -140 -84 -212 -133 -262 -85 -88 -84 -86 -79 -165
3 -41 6 -107 8 -146 4 -87 22 -120 68 -127 18 -3 285 -8 593 -11 308 -3 571
-6 585 -7 14 0 99 3 190 8 178 8 192 9 260 5 78 -5 512 10 580 19 97 14 488
13 558 0 42 -9 128 -10 288 -5 251 8 346 8 786 3 163 -2 299 0 303 4 18 18 23
91 14 188 -6 58 -11 119 -12 136 -1 17 -7 37 -13 45 -6 8 -15 25 -19 39 -4 14
-25 63 -47 110 -22 47 -48 105 -60 130 -11 25 -26 56 -34 70 -8 14 -39 75 -70
135 -30 61 -76 142 -102 181 -93 141 -126 190 -180 274 -30 47 -67 96 -83 110
-41 36 -44 88 -40 630 1 129 0 388 -1 575 -2 187 1 430 7 540 11 242 9 419 -8
500 l-12 60 -90 1 c-49 1 -115 -2 -145 -6z m170 -100 c8 -13 22 -213 16 -232
-5 -13 -16 -229 -22 -398 -4 -119 -5 -232 -4 -810 0 -256 0 -485 -1 -510 -1
-25 3 -85 9 -135 5 -49 9 -91 7 -93 -5 -5 -89 -6 -340 -3 -175 2 -281 -2 -390
-14 -93 -10 -259 -18 -440 -20 -159 -2 -308 -9 -330 -14 -52 -14 -189 -14
-295 0 -46 5 -136 14 -200 19 -63 5 -151 16 -195 24 -52 10 -165 16 -325 19
l-244 3 -13 31 c-6 17 -20 33 -29 37 -14 6 -16 19 -10 109 4 56 9 122 11 147
7 73 8 513 3 1158 -3 331 -2 605 3 607 20 13 219 36 349 41 347 14 525 16
1160 15 272 0 520 1 550 4 50 4 256 5 305 2 36 -3 293 15 327 23 42 9 89 4 98
-10z m-2230 -2270 c25 -6 92 -12 150 -14 58 -3 116 -7 130 -11 29 -7 182 -22
285 -29 39 -2 90 1 115 7 25 6 178 11 345 12 276 2 438 9 457 21 30 19 561 23
722 6 90 -9 101 -13 122 -39 13 -15 23 -32 24 -36 0 -5 29 -46 65 -92 35 -46
85 -123 110 -172 25 -48 54 -96 64 -108 19 -20 101 -175 101 -189 0 -5 20 -49
44 -100 24 -50 49 -108 54 -130 6 -21 19 -47 28 -57 22 -24 14 -32 -20 -20
-14 6 -66 10 -116 10 -108 0 -141 12 -81 30 23 6 41 18 41 25 0 8 7 16 14 19
22 9 48 65 41 88 -4 11 -27 49 -51 84 -24 36 -62 101 -84 145 -22 45 -69 117
-104 161 -35 44 -72 97 -82 117 -11 20 -29 50 -42 66 -13 16 -34 51 -48 77
-30 60 -47 69 -126 70 -112 0 -496 -19 -507 -25 -29 -18 -139 -26 -451 -32
-554 -10 -834 -6 -1012 16 -48 5 -136 12 -195 14 -60 2 -162 9 -228 15 -66 6
-140 8 -165 5 -66 -10 -93 -41 -265 -308 -25 -38 -45 -72 -45 -75 0 -4 -16
-22 -35 -41 -19 -19 -35 -41 -35 -50 0 -24 -76 -147 -130 -210 -54 -63 -70
-109 -45 -130 29 -24 289 -15 322 11 7 6 80 7 185 4 181 -7 204 -8 383 -19
282 -18 419 -20 770 -13 209 5 286 3 340 -8 68 -13 231 -16 946 -13 136 0 223
-3 235 -10 15 -9 16 -11 4 -15 -56 -16 -258 -36 -380 -36 -80 -1 -194 -6 -253
-11 -59 -6 -206 -11 -325 -11 -119 0 -226 -1 -237 -1 -11 -1 -72 2 -135 5 -63
4 -167 9 -230 13 -63 3 -117 7 -120 9 -3 2 -89 6 -190 10 -102 3 -193 8 -202
11 -10 3 -71 0 -135 -6 -165 -16 -1125 -31 -1139 -18 -3 4 10 28 28 55 67 97
93 151 109 221 5 25 21 69 34 99 14 29 25 58 25 64 0 34 115 224 277 459 55
78 62 85 99 90 66 9 496 1 544 -10z m2210 -182 l21 -28 -67 0 c-51 0 -70 4
-79 17 -11 15 -15 15 -47 -5 -41 -26 -80 -28 -98 -7 -16 19 -29 19 -51 -1 -21
-19 -79 -29 -115 -20 -19 5 -25 12 -22 29 3 21 10 22 148 32 80 6 177 11 217
10 66 0 73 -2 93 -27z m-2520 19 c0 -15 -32 -107 -38 -108 -47 -6 -154 -4
-158 3 -9 14 46 79 80 94 27 11 116 20 116 11z m180 -44 c-11 -21 -21 -46 -24
-55 -4 -14 -16 -18 -57 -18 -40 0 -50 3 -46 14 3 8 11 33 17 55 l11 41 59 0
58 0 -18 -37z m202 22 c35 -5 37 -7 36 -44 0 -48 -23 -61 -108 -61 -68 0 -69
1 -44 73 18 52 7 49 116 32z m1597 -23 c18 -34 -2 -43 -93 -45 -68 -2 -89 1
-96 13 -18 28 -4 35 76 41 43 3 84 6 91 7 7 1 17 -6 22 -16z m-1306 -11 c4 -4
-10 -20 -33 -36 -35 -24 -46 -27 -86 -21 -55 7 -64 12 -64 35 0 35 21 43 100
36 41 -4 79 -10 83 -14z m240 -3 c-2 -5 -10 -8 -17 -8 -7 0 -23 -11 -36 -25
-19 -20 -33 -25 -71 -25 -64 0 -79 7 -79 39 l0 26 104 0 c57 0 102 -3 99 -7z
m792 -15 c15 -22 14 -24 -10 -33 -45 -17 -93 -12 -105 10 -13 24 -42 26 -60 5
-9 -10 -32 -15 -75 -15 -64 0 -76 7 -68 41 4 14 25 16 154 16 145 0 149 0 164
-24z m-614 0 c12 -12 -19 -23 -103 -38 -31 -6 -37 -4 -43 14 -3 11 -3 26 1 32
8 14 130 7 145 -8z m202 1 c3 -3 4 -11 1 -18 -6 -15 -90 -8 -105 10 -10 12 -3
14 43 14 30 0 57 -3 61 -6z m921 -97 c18 -13 37 -90 28 -115 -2 -7 -26 -12
-61 -12 -57 0 -58 0 -75 38 -21 46 -9 88 26 95 44 8 64 7 82 -6z m166 -31 c11
-24 21 -54 22 -67 3 -20 -2 -24 -24 -24 -23 -1 -30 6 -48 47 -16 37 -18 53
-10 68 17 32 40 23 60 -24z m261 2 c32 -36 60 -80 88 -142 2 -4 -16 -5 -40 0
-24 4 -53 8 -64 9 -38 3 -90 17 -104 28 -13 11 -61 111 -61 128 0 9 36 15 99
18 39 1 47 -3 82 -41z m-2741 3 c12 -9 12 -13 -6 -33 -11 -13 -32 -42 -47 -66
-27 -42 -28 -42 -75 -38 -26 2 -54 5 -62 5 -8 1 -21 5 -29 10 -20 13 34 84 82
108 42 20 115 28 137 14z m2111 -18 c6 -16 13 -43 16 -60 5 -30 3 -33 -21 -33
-14 0 -53 -8 -87 -17 -56 -15 -61 -15 -76 0 -12 11 -17 34 -18 69 0 50 1 53
30 59 17 4 56 7 88 8 54 1 58 -1 68 -26z m-913 -64 l-3 -64 -90 0 -90 0 -1 47
c-2 69 9 78 96 87 41 4 79 4 83 1 4 -4 7 -36 5 -71z m-1021 57 c8 -8 4 -86 -6
-103 -10 -19 -20 -23 -62 -23 -28 0 -59 5 -70 10 -19 11 -19 12 7 58 37 64 52
74 94 67 19 -4 36 -8 37 -9z m492 3 c27 -10 31 -15 31 -47 0 -66 -8 -79 -55
-91 -53 -13 -142 -14 -149 -2 -6 9 38 116 56 139 13 15 74 16 117 1z m262 -65
c-1 -38 -5 -72 -8 -77 -4 -7 -78 -2 -132 9 -22 5 -23 8 -16 52 11 74 18 81 83
85 31 1 62 2 67 2 6 -1 9 -30 6 -71z m464 70 c19 -5 20 -11 17 -72 -2 -37 -6
-69 -8 -71 -2 -2 -25 -4 -51 -3 -57 0 -73 18 -73 78 0 65 6 74 54 74 22 0 50
-3 61 -6z m247 -64 c4 -34 2 -57 -4 -61 -12 -8 -130 -21 -135 -15 -6 6 -10 98
-5 118 5 19 38 25 97 18 l40 -5 7 -55z m-1182 38 c0 -13 -7 -32 -15 -42 -8
-11 -15 -27 -15 -36 0 -35 -34 -52 -90 -45 -77 9 -91 18 -83 58 14 72 18 76
80 80 132 8 123 9 123 -15z m1368 -5 c6 -16 13 -41 14 -58 4 -36 -17 -42 -81
-25 -39 10 -41 12 -41 51 0 32 4 41 23 49 44 18 74 12 85 -17z m598 -228 c32
-96 47 -167 35 -174 -5 -3 -44 -4 -86 -1 l-77 5 -20 60 c-11 33 -22 78 -24
100 -3 22 -7 46 -9 52 -7 22 28 33 93 30 l64 -2 24 -70z m-2615 53 c33 0 61
-4 64 -8 6 -10 -78 -109 -119 -141 -14 -11 -26 -26 -26 -33 0 -15 -53 -34
-107 -37 -65 -5 -66 -11 15 131 38 67 72 101 95 94 10 -3 46 -6 78 -6z m2340
2 c12 -7 19 -21 19 -40 0 -16 5 -41 11 -57 16 -41 27 -133 17 -139 -5 -3 -53
-8 -107 -11 -114 -6 -105 -13 -120 102 -16 130 -8 143 87 148 37 2 68 4 70 5
2 1 12 -3 23 -8z m435 2 c6 -4 19 -22 29 -39 11 -18 22 -33 25 -33 9 0 70 -95
70 -107 0 -6 9 -18 20 -28 38 -34 26 -42 -62 -38 -126 6 -125 6 -132 60 -11
78 -29 157 -38 170 -5 7 -4 13 4 16 20 8 72 8 84 -1z m-2500 -12 c42 0 44 -15
9 -66 -14 -21 -28 -48 -31 -60 -4 -14 -18 -27 -36 -33 -36 -13 -178 -15 -178
-3 0 5 18 32 40 62 22 29 42 61 45 71 7 23 52 39 89 34 16 -3 44 -5 62 -5z
m1796 -23 c12 -19 21 -134 14 -172 -5 -24 -14 -39 -29 -45 -31 -11 -118 -4
-127 10 -12 20 -12 188 1 211 10 19 17 20 72 14 34 -3 65 -11 69 -18z m963 6
l60 2 30 -57 c17 -32 40 -76 53 -99 13 -23 21 -44 18 -46 -3 -3 -40 -9 -83
-13 -71 -7 -80 -6 -104 14 -14 11 -36 46 -48 77 -13 31 -34 69 -47 84 -31 37
-18 57 29 45 18 -5 59 -8 92 -7z m-2207 -1 c33 -3 26 -52 -23 -147 -18 -36
-24 -40 -55 -38 -19 0 -70 3 -112 5 -43 1 -78 4 -78 5 0 14 68 141 80 148 33
22 110 33 188 27z m552 -2 c4 0 4 -17 -1 -37 -4 -21 -8 -39 -8 -41 0 -1 -3
-25 -7 -52 l-7 -51 -46 2 c-25 1 -73 -2 -105 -6 l-59 -8 6 39 c10 58 25 108
39 127 13 16 136 39 166 31 8 -2 17 -4 22 -4z m447 2 c18 -11 36 -204 20 -214
-11 -7 -117 -2 -163 7 -28 6 -37 66 -17 112 7 18 13 41 13 52 0 26 15 34 75
42 28 3 52 7 55 7 3 1 10 -2 17 -6z m-1278 -16 c8 -10 9 -16 1 -21 -6 -3 -24
-33 -40 -66 -33 -64 -32 -64 -127 -53 -62 8 -67 22 -29 81 45 70 50 73 120 73
42 0 67 -5 75 -14z m536 0 c23 -4 23 -19 2 -111 l-14 -60 -74 -3 c-119 -5
-134 4 -104 62 8 15 15 33 15 40 0 6 5 28 11 50 l11 39 66 -7 c37 -3 76 -8 87
-10z m516 -19 c-5 -13 -12 -49 -16 -80 -4 -31 -12 -60 -19 -65 -6 -5 -39 -12
-73 -15 -73 -8 -71 -11 -48 87 24 101 18 96 96 96 67 0 68 0 60 -23z m1624
-407 c110 -5 209 -8 220 -7 17 2 21 -6 26 -58 4 -33 10 -79 14 -102 7 -38 5
-43 -11 -43 -11 0 -66 -2 -124 -5 -58 -2 -157 1 -220 7 -63 6 -196 9 -295 8
-330 -5 -590 -3 -615 5 -43 14 -558 12 -612 -3 -33 -9 -172 -14 -475 -17 -235
-3 -448 -8 -473 -11 -25 -4 -54 -6 -65 -5 -11 1 -270 3 -575 6 -305 2 -564 6
-576 9 -17 4 -23 16 -28 52 -8 62 2 122 23 128 22 6 592 21 661 17 113 -7 477
-8 525 -2 47 6 223 1 490 -13 606 -33 1168 -28 1630 14 72 6 155 18 185 25 30
8 64 12 75 9 11 -3 110 -9 220 -14z"/>
<path d="M3320 8910 c-25 -4 -72 -6 -105 -4 -33 1 -96 -4 -139 -11 -43 -8 -82
-13 -85 -11 -28 18 -1023 27 -1321 13 -96 -5 -233 -10 -305 -11 -132 -3 -185
-15 -213 -49 -11 -13 -9 -23 11 -64 24 -47 25 -59 6 -98 -13 -27 -7 -99 10
-119 10 -12 11 -19 2 -29 -6 -8 -8 -16 -6 -19 12 -11 27 -722 17 -733 -2 -2
-6 -70 -8 -152 -3 -139 -11 -273 -20 -353 -2 -19 -6 -50 -7 -68 -2 -18 -16
-45 -31 -61 -34 -36 -31 -59 13 -85 45 -26 173 -30 644 -19 202 5 402 6 445 1
45 -4 123 -3 187 4 180 18 579 16 723 -5 68 -9 180 -17 248 -17 68 0 144 -5
168 -12 40 -11 47 -10 65 6 13 12 19 27 16 40 -2 12 -7 120 -10 241 -2 122 -9
266 -15 320 -6 55 -13 125 -16 155 -2 30 -9 69 -14 85 -19 57 -17 485 3 670
18 171 21 333 7 370 -7 19 -17 21 -116 21 -60 1 -129 -2 -154 -6z m129 -91
c20 6 47 8 59 4 23 -6 23 -8 18 -87 -4 -44 -8 -117 -11 -161 -3 -44 -12 -129
-21 -190 -18 -118 -15 -393 6 -565 6 -47 13 -110 16 -140 3 -30 9 -71 14 -90
5 -19 12 -135 14 -256 5 -204 4 -222 -12 -226 -28 -8 -303 1 -362 11 -143 26
-552 37 -670 19 -42 -6 -215 -12 -395 -13 -176 -1 -385 -2 -465 -4 -80 -1
-207 1 -284 5 l-139 7 7 91 c4 50 7 108 6 129 0 22 3 53 9 70 9 31 21 350 23
617 2 179 -11 459 -27 570 -7 52 -10 113 -6 134 5 33 11 41 36 48 17 4 155 8
307 7 153 0 282 2 288 6 11 7 171 7 625 0 576 -9 795 -6 816 9 15 10 30 11 66
4 31 -7 57 -7 82 1z"/>
<path d="M1716 8256 c-13 -27 -17 -78 -21 -225 -5 -186 -5 -190 16 -196 26 -9
50 14 81 75 30 59 59 65 88 18 11 -18 20 -45 20 -60 0 -32 40 -64 66 -54 17 6
16 42 -2 144 -6 32 -6 33 22 27 16 -4 44 -11 62 -17 l34 -10 -4 -62 c-2 -33
-7 -68 -11 -77 -6 -11 0 -19 17 -27 37 -16 55 -6 61 36 3 21 8 48 10 62 8 54
24 80 49 80 30 0 71 32 64 51 -3 8 -26 20 -51 26 -45 12 -46 14 -52 60 -15
113 -20 128 -42 131 -37 5 -54 -33 -47 -104 l7 -62 -44 -7 c-46 -8 -79 -29
-79 -52 0 -22 -22 -15 -55 17 -30 29 -60 37 -110 28 -19 -3 -20 3 -22 100 -1
57 -4 110 -7 118 -9 25 -33 15 -50 -20z"/>
<path d="M2890 8213 c-7 -16 -14 -68 -16 -118 -1 -49 -5 -145 -9 -212 l-8
-123 24 -9 c32 -12 51 7 55 56 1 21 8 99 14 173 12 142 9 206 -12 240 -17 27
-32 25 -48 -7z"/>
<path d="M1610 8185 c-19 -19 -39 -35 -46 -35 -7 0 -26 -11 -42 -25 -17 -14
-33 -25 -36 -25 -17 0 -158 -103 -173 -126 -16 -25 -16 -27 8 -45 13 -10 37
-19 52 -19 28 0 88 -52 175 -153 39 -44 64 -45 73 -2 5 31 -8 50 -117 166 -33
36 -43 59 -25 59 17 0 155 119 168 145 8 14 16 41 18 60 6 46 -11 46 -55 0z"/>
<path d="M3052 8164 c-12 -8 -22 -24 -22 -34 0 -10 36 -55 80 -99 44 -45 80
-85 80 -90 0 -5 -9 -12 -19 -16 -11 -3 -36 -27 -57 -53 -20 -26 -42 -51 -49
-57 -18 -16 -45 -58 -45 -71 0 -6 11 -16 24 -22 30 -13 58 3 146 84 126 116
130 121 123 141 -7 18 -221 233 -232 233 -4 0 -17 -7 -29 -16z"/>
<path d="M2404 8055 c-10 -8 -36 -15 -56 -15 -57 0 -65 -15 -57 -107 8 -94 23
-125 59 -121 20 2 27 10 33 43 12 57 40 128 52 132 6 2 19 -21 29 -49 23 -67
32 -78 65 -78 22 0 29 7 41 41 30 85 98 66 108 -30 4 -48 7 -52 26 -47 11 3
29 6 38 6 32 0 25 73 -14 146 -27 49 -105 68 -176 43 -29 -10 -35 -8 -69 20
-43 35 -51 37 -79 16z"/>
<path d="M24463 6487 c-28 -13 -29 -36 -3 -70 11 -14 20 -28 20 -32 0 -3 20
-35 44 -69 93 -133 146 -281 118 -326 -17 -27 -15 -44 6 -63 39 -36 85 -19
126 46 31 49 125 117 162 117 14 0 42 -19 72 -48 44 -43 50 -55 62 -115 13
-70 8 -205 -10 -251 -13 -36 -82 -109 -155 -164 -82 -63 -137 -84 -347 -134
-44 -10 -64 -52 -34 -73 9 -7 16 -17 16 -23 0 -15 104 -6 180 15 87 25 138 56
255 160 147 130 167 170 172 332 4 161 -26 251 -120 348 l-39 41 46 61 c26 33
51 63 56 66 14 9 12 51 -2 62 -22 18 -80 32 -148 36 -36 3 -105 17 -155 31
-190 56 -284 71 -322 53z"/>
<path d="M15890 6228 c-41 -3 -115 -11 -165 -17 -49 -6 -135 -13 -190 -15 -55
-2 -131 -9 -170 -16 -38 -6 -85 -9 -105 -5 -19 3 -103 1 -186 -4 l-151 -9 -89
-92 c-49 -52 -100 -103 -113 -114 -13 -12 -35 -33 -50 -47 -63 -62 -141 -118
-171 -123 -18 -2 -36 -8 -40 -13 -18 -19 -29 -80 -21 -119 4 -22 4 -74 -1
-115 -4 -40 -10 -362 -13 -714 -3 -352 -8 -716 -12 -810 -12 -336 -8 -565 9
-625 15 -51 35 -210 31 -255 -1 -11 -3 -125 -4 -252 -3 -232 -3 -233 21 -258
22 -23 23 -29 15 -107 -4 -46 -9 -96 -12 -113 -2 -16 -6 -64 -8 -105 -3 -41
-9 -127 -14 -190 -11 -130 -3 -177 32 -185 91 -20 256 -35 319 -30 88 7 82 7
433 0 231 -4 291 -2 342 10 34 9 79 15 100 14 59 -1 261 8 433 21 277 20 463
31 585 35 218 7 459 23 495 34 19 6 74 9 125 6 130 -7 171 1 183 34 20 50 25
202 24 681 -1 96 2 308 4 470 3 162 4 383 3 490 -3 244 -3 295 0 395 3 90 28
354 35 376 3 8 7 79 10 159 4 80 9 161 12 180 17 116 19 385 3 495 -5 39 -11
129 -14 200 -2 72 -6 171 -9 220 -3 50 -8 172 -10 272 -5 175 -14 231 -37 217
-11 -7 -290 -19 -654 -29 -166 -5 -234 -3 -325 10 -63 9 -162 21 -220 26 -58
5 -123 11 -145 14 -73 8 -209 10 -285 3z m469 -128 c51 -6 97 -12 100 -15 4
-2 63 -11 132 -19 90 -11 152 -13 224 -7 55 5 158 7 229 4 109 -3 133 -1 155
14 21 13 50 17 146 17 l120 1 5 -35 c3 -19 3 -96 0 -170 -3 -74 -2 -153 3
-175 4 -22 9 -101 11 -175 2 -74 9 -175 14 -225 10 -83 9 -379 -2 -485 -2 -25
-9 -122 -14 -217 -6 -94 -13 -176 -16 -181 -3 -6 -8 -45 -11 -88 -14 -224 -22
-404 -19 -449 11 -172 -1 -984 -16 -1049 -10 -44 -5 -298 6 -318 2 -3 4 -64 4
-135 -1 -70 0 -162 0 -204 2 -97 -7 -105 -81 -83 -58 18 -227 21 -257 5 -21
-10 -171 -22 -352 -27 -74 -2 -180 -9 -235 -15 -55 -6 -131 -12 -170 -13 -115
-3 -366 -16 -419 -22 -27 -2 -103 -7 -169 -10 -66 -3 -124 -7 -128 -10 -4 -2
-81 -3 -171 -2 -90 1 -192 1 -228 0 -216 -6 -574 -4 -623 3 -77 11 -85 24 -62
102 8 29 13 99 13 178 0 72 5 159 11 195 6 36 13 129 17 207 6 134 5 143 -16
181 -20 35 -22 48 -16 128 3 49 6 96 7 104 1 22 -16 158 -37 295 -20 131 -23
302 -11 565 4 91 9 444 12 785 5 627 11 852 24 874 11 17 96 16 166 -2 33 -9
85 -19 117 -22 31 -4 70 -16 88 -26 29 -18 30 -20 15 -41 -8 -13 -15 -35 -15
-50 0 -19 -8 -31 -24 -40 -42 -23 -106 -80 -106 -95 0 -8 -9 -28 -21 -44 -20
-28 -20 -31 -5 -54 28 -43 62 -58 134 -60 133 -4 132 -2 91 -101 -18 -43 -36
-83 -41 -88 -22 -26 18 -102 63 -118 30 -11 -6 -23 -89 -30 -48 -3 -101 -9
-118 -13 -30 -7 -33 -5 -42 26 -19 61 -33 197 -32 297 2 132 2 135 -11 235 -7
50 -19 97 -28 108 -14 18 -18 18 -37 5 -18 -13 -20 -24 -18 -78 1 -35 3 -130
4 -213 1 -87 8 -177 16 -215 8 -36 19 -86 25 -112 6 -26 10 -62 8 -80 -2 -44
9 -76 30 -80 9 -2 52 2 95 9 44 7 105 13 135 15 86 3 346 -10 436 -22 44 -6
136 -15 205 -20 69 -5 157 -14 195 -21 107 -20 523 -16 598 4 32 9 110 23 175
32 64 9 158 23 207 30 93 15 174 11 312 -16 74 -14 111 -7 118 24 15 59 6 415
-13 518 -9 51 -8 352 2 454 4 39 12 83 18 99 10 25 9 31 -11 47 -29 23 -104
25 -193 4 -72 -16 -93 -17 -393 -16 -121 1 -237 -3 -257 -8 -24 -5 -54 -5 -80
1 -24 6 -74 11 -113 13 -38 1 -101 5 -140 9 -38 3 -104 8 -145 10 -41 3 -138
11 -215 19 -192 20 -378 16 -427 -8 -41 -20 -48 -38 -20 -51 24 -11 51 -14
192 -18 119 -4 407 -30 460 -42 36 -8 361 -27 450 -26 240 2 406 8 416 15 7 4
34 3 61 -2 31 -6 71 -6 109 0 112 18 153 21 179 15 l26 -7 -6 -117 c-4 -64 -8
-138 -10 -165 -4 -47 5 -179 25 -369 15 -156 15 -278 -2 -294 -18 -18 -58 -20
-127 -5 -68 14 -224 14 -275 0 -22 -6 -105 -19 -185 -29 -80 -10 -168 -24
-196 -30 -83 -18 -454 -16 -545 4 -14 3 -52 7 -85 11 -33 3 -109 12 -170 19
-60 8 -172 22 -247 32 l-137 16 24 37 c14 19 25 41 25 48 0 7 10 14 23 14 83
5 135 9 152 13 30 7 57 70 64 146 l6 64 44 13 c25 7 54 22 66 33 12 11 26 20
32 20 16 0 23 -41 13 -83 -7 -32 -5 -41 13 -58 12 -10 26 -18 32 -16 20 7 44
72 40 110 -6 56 17 48 96 -32 75 -76 117 -93 151 -59 27 27 23 35 -22 42 -22
3 -40 10 -40 15 0 4 -11 13 -25 19 -14 7 -28 20 -32 29 -4 10 -19 34 -35 53
-15 19 -28 39 -28 45 0 5 17 19 37 30 45 24 83 78 83 117 0 18 -12 41 -33 64
-46 50 -107 58 -170 21 -60 -35 -65 -43 -71 -116 -6 -72 -13 -85 -30 -57 -22
39 -56 66 -81 66 -33 0 -38 15 -22 69 11 35 11 57 2 113 -17 96 -42 108 -131
63 -57 -29 -67 -30 -83 -11 -7 8 -27 17 -46 20 -23 5 -35 13 -35 23 0 9 -15
64 -34 122 -19 58 -37 127 -41 153 -7 44 -6 47 16 52 23 5 164 15 224 16 17 0
129 7 250 16 424 32 598 35 794 14z m-1375 -83 c7 -19 21 -67 31 -108 9 -41
25 -93 35 -116 10 -24 17 -43 14 -43 -2 0 3 -14 11 -30 23 -45 12 -70 -31 -70
-19 0 -49 7 -66 16 -37 19 -103 37 -223 59 -49 9 -96 19 -103 21 -15 4 285
304 305 304 7 0 19 -15 27 -33z m392 -409 c17 -51 12 -78 -15 -78 -14 0 -68
68 -59 74 12 10 45 25 55 26 6 0 15 -10 19 -22z m-238 -89 c13 -5 21 -13 18
-18 -8 -12 -107 -20 -133 -10 -25 9 -31 34 -10 42 15 7 93 -3 125 -14z m646
-40 c15 -14 -10 -56 -42 -73 -41 -21 -69 -11 -74 26 -7 46 23 72 70 63 21 -4
41 -11 46 -16z m-679 -99 c8 -12 -26 -59 -42 -60 -16 0 -36 38 -29 56 6 16 62
19 71 4z m-147 -42 c6 -23 9 -45 7 -49 -5 -7 -115 -10 -127 -3 -14 9 21 63 50
78 45 25 59 20 70 -26z m272 12 c-27 -22 -36 -25 -38 -14 -5 23 17 44 47 44
l26 -1 -35 -29z m244 4 c19 -18 19 -20 6 -45 -11 -19 -35 -24 -64 -13 -16 6
-22 54 -9 67 12 13 51 7 67 -9z m-274 -177 c0 -7 -7 -22 -15 -33 -15 -19 -15
-19 -30 0 -23 31 -18 46 15 46 18 0 30 -5 30 -13z m160 -2 c18 -22 -8 -104
-35 -111 -24 -6 -75 11 -75 25 0 13 42 84 55 93 17 12 42 9 55 -7z m-255 -95
c13 -15 16 -29 12 -57 -8 -48 -27 -66 -60 -57 -30 7 -33 22 -14 74 23 66 33
72 62 40z"/>
<path d="M16825 5608 c-4 -19 -11 -73 -14 -120 -1 -5 -14 -8 -29 -8 -16 0 -37
-7 -48 -15 -10 -8 -29 -15 -41 -15 -32 0 -106 -31 -117 -48 -5 -8 -24 -32 -42
-52 -19 -21 -34 -45 -34 -54 0 -31 -26 -16 -47 27 -11 23 -33 58 -48 76 -24
28 -33 32 -58 27 -45 -9 -119 -60 -147 -102 -19 -29 -25 -50 -25 -93 l0 -56
-37 -9 c-30 -8 -45 -6 -74 10 -42 22 -63 56 -46 77 6 7 37 24 69 36 100 41
144 100 114 153 -34 58 -95 59 -173 2 -62 -44 -77 -69 -89 -146 -12 -80 2
-121 63 -170 62 -50 102 -62 145 -42 18 9 38 25 44 36 9 17 17 19 54 14 56 -9
110 13 133 54 9 16 22 30 29 30 6 0 25 -17 42 -39 l30 -38 104 -1 104 -1 31
34 c33 34 38 50 23 74 -7 11 -14 9 -39 -9 -58 -43 -142 -1 -112 55 16 31 115
115 134 115 8 0 17 -4 20 -9 3 -4 19 -11 34 -14 46 -9 56 -47 33 -130 l-19
-68 25 -16 c18 -12 29 -14 42 -6 21 13 42 76 43 130 1 49 23 73 68 73 32 0 50
17 50 46 0 19 -8 24 -54 35 -54 12 -55 13 -61 53 -9 53 -27 109 -40 118 -19
14 -35 8 -40 -14z m-687 -216 c4 -13 -21 -25 -75 -37 -48 -10 -42 12 10 35 45
21 58 21 65 2z m215 -82 c7 -26 -9 -81 -25 -92 -20 -12 -52 -10 -73 5 -17 13
-17 15 0 44 17 30 60 62 81 63 7 0 14 -9 17 -20z"/>
<path d="M15580 4560 c-25 -5 -139 -13 -254 -19 -114 -6 -211 -13 -215 -15 -3
-2 -87 -10 -186 -16 -197 -14 -205 -16 -232 -80 -10 -24 -12 -51 -8 -85 3 -27
6 -124 6 -215 0 -91 5 -217 11 -280 5 -63 11 -155 14 -204 2 -49 7 -92 10 -97
3 -5 0 -24 -7 -43 -11 -29 -10 -38 4 -59 13 -21 27 -27 74 -31 32 -3 99 -16
148 -28 50 -12 122 -23 160 -25 39 -1 104 -7 145 -13 41 -6 86 -7 100 -3 14 4
149 8 300 9 151 1 354 3 450 4 96 1 211 -1 255 -5 48 -4 105 -2 143 5 35 6 96
15 135 20 40 6 95 14 122 20 48 10 245 27 405 34 41 2 78 4 82 5 15 3 18 102
7 191 -7 53 -13 216 -14 370 -1 304 -10 434 -32 456 -8 8 -28 14 -44 14 -18 0
-29 5 -29 13 0 20 -97 40 -160 33 -130 -13 -471 -24 -662 -20 -175 3 -233 8
-385 35 -197 35 -276 42 -343 29z m148 -100 c28 -5 73 -12 99 -16 26 -3 58
-10 71 -15 13 -5 45 -12 70 -15 26 -3 63 -9 82 -14 19 -5 91 -10 160 -10 107
-2 684 7 850 13 l55 1 12 -64 c14 -73 15 -102 9 -495 0 -33 3 -82 7 -110 4
-27 9 -68 12 -90 3 -22 7 -49 10 -60 9 -41 -6 -46 -166 -55 -152 -9 -297 -27
-394 -50 -34 -8 -241 -13 -630 -16 -319 -2 -603 -6 -630 -8 -28 -2 -87 3 -130
10 -44 8 -111 19 -150 24 -38 6 -78 13 -89 16 -33 11 4 24 65 24 63 0 80 10
185 113 52 51 62 57 98 55 32 -1 43 4 63 28 35 44 31 87 -11 113 -52 33 -101
28 -143 -14 -24 -24 -34 -42 -30 -54 4 -16 -23 -61 -37 -61 -2 0 -19 25 -39
55 -29 42 -45 57 -76 66 -33 10 -43 19 -55 51 -18 44 -22 168 -5 168 6 0 29
-17 50 -37 l40 -38 117 -1 c134 -1 159 -10 210 -72 60 -76 68 -137 26 -220
-29 -59 -45 -67 -105 -53 -62 15 -73 14 -103 -10 l-26 -20 30 -31 c58 -58 196
-48 228 15 6 12 25 46 42 76 30 53 31 57 25 137 -9 99 -22 124 -103 192 -49
40 -73 52 -133 67 -41 10 -83 26 -94 35 -21 20 -84 36 -125 33 -14 -1 -35 -14
-47 -28 -12 -14 -25 -25 -28 -25 -8 0 -6 39 6 84 34 129 39 136 103 136 28 0
40 -7 60 -33 15 -19 26 -45 26 -59 0 -27 44 -93 62 -93 22 0 29 58 13 104 -18
54 -70 136 -98 156 -26 18 -103 19 -137 2 -40 -20 -96 -108 -98 -157 -2 -23
-12 -65 -22 -93 -13 -34 -16 -55 -10 -67 6 -12 6 -29 -1 -50 -7 -18 -9 -54 -5
-84 6 -51 5 -53 -39 -99 -24 -26 -49 -47 -55 -47 -6 0 -10 27 -11 68 0 37 -4
162 -9 277 -8 187 -7 214 8 245 15 30 23 36 62 42 52 8 284 25 445 33 61 3
153 12 205 19 120 17 165 18 228 6z m-710 -779 c24 -12 41 -25 38 -30 -7 -11
-156 -24 -178 -16 -27 11 -30 50 -6 99 30 62 57 65 83 10 15 -31 32 -48 63
-63z"/>
<path d="M16333 4269 c-7 -7 -10 -30 -7 -58 7 -63 -10 -249 -24 -263 -7 -7
-38 -13 -71 -15 -57 -3 -60 -2 -56 18 9 46 -36 81 -118 93 -34 4 -43 1 -82
-35 -83 -77 -96 -186 -29 -251 18 -18 34 -37 34 -42 0 -37 91 -47 144 -16 l34
21 38 -21 c49 -25 79 -25 111 0 14 11 30 17 35 14 12 -8 80 45 73 57 -4 5 -16
7 -28 4 -95 -20 -151 -13 -174 22 -15 22 -14 25 3 38 23 17 87 19 116 4 30
-16 41 2 44 73 1 35 5 120 9 189 5 69 5 138 1 153 -7 27 -33 35 -53 15z m-262
-299 c10 -6 19 -15 19 -20 0 -16 -63 -50 -92 -50 -21 0 -25 4 -21 20 6 21 48
60 65 60 5 0 18 -5 29 -10z m52 -147 c-3 -21 -13 -44 -22 -51 -29 -24 -111 6
-93 34 8 13 90 53 109 54 8 0 10 -12 6 -37z"/>
<path d="M15584 4245 c-4 -8 1 -26 10 -40 14 -21 24 -25 64 -25 61 0 115 -15
136 -39 16 -18 16 -22 2 -50 -20 -38 -58 -64 -88 -59 -19 2 -23 10 -26 45 -4
55 -20 67 -53 40 l-27 -22 10 -110 c5 -60 11 -157 12 -215 2 -109 7 -130 31
-130 18 0 25 23 25 80 0 62 20 72 61 30 44 -43 84 -70 107 -70 17 0 22 9 29
63 9 67 4 76 -32 57 -35 -18 -79 3 -114 54 -42 63 -37 86 29 119 84 42 102 65
102 126 -1 73 -7 87 -59 126 -44 34 -49 35 -130 35 -65 0 -85 -3 -89 -15z"/>
<path d="M16820 4028 c-27 -29 -25 -44 8 -78 52 -53 54 -63 21 -104 -17 -20
-37 -36 -44 -36 -19 0 -35 32 -35 71 0 53 -31 139 -50 139 -9 0 -49 -31 -88
-70 -41 -41 -80 -70 -92 -70 -22 0 -24 10 -11 58 12 40 5 62 -20 62 -23 0 -44
-31 -59 -88 -11 -42 -10 -45 25 -88 22 -26 45 -44 57 -44 18 0 67 44 116 104
29 36 47 19 71 -71 7 -24 20 -47 30 -52 17 -10 136 1 148 13 3 3 24 -10 46
-29 43 -37 65 -43 85 -23 21 21 13 51 -24 89 -41 42 -40 56 6 114 30 38 40 88
20 100 -18 11 -49 -5 -62 -33 -17 -36 -54 -41 -63 -10 -8 25 -43 68 -56 68 -5
0 -17 -10 -29 -22z"/>
<path d="M16618 3294 c-6 -5 -216 -16 -383 -19 -93 -2 -192 -9 -220 -16 -27
-7 -120 -13 -205 -15 -85 -2 -182 -9 -215 -16 -70 -14 -103 -15 -484 -6 l-283
6 -30 -29 c-27 -25 -29 -32 -20 -56 6 -18 10 -151 10 -358 -1 -210 3 -338 9
-350 6 -11 8 -35 6 -53 -8 -51 16 -77 84 -91 32 -6 105 -21 163 -32 58 -11
150 -23 204 -25 55 -3 119 -9 142 -14 29 -7 91 -6 186 2 79 7 208 13 288 13
106 1 164 7 215 20 78 21 200 23 650 13 262 -6 393 2 460 25 l40 14 -2 113
c-1 61 -5 119 -8 128 -29 70 -21 411 10 472 19 37 22 119 4 150 -7 14 -14 34
-15 45 -2 60 -5 66 -31 76 -21 8 -44 6 -93 -5 -73 -18 -266 -22 -333 -7 -43
10 -144 20 -149 15z m292 -130 c82 -4 153 -2 180 4 24 6 47 9 50 6 9 -9 3
-104 -14 -239 -18 -141 -17 -217 8 -400 8 -66 16 -123 16 -127 0 -18 -47 -29
-142 -34 -57 -3 -119 -7 -138 -8 -19 -2 -70 2 -114 8 -97 14 -641 4 -712 -13
-27 -6 -98 -13 -159 -16 -173 -8 -252 -12 -361 -20 -80 -6 -112 -4 -150 8 -27
8 -78 15 -114 15 -98 1 -227 18 -303 42 l-69 21 7 50 c5 36 3 56 -8 72 -12 19
-15 71 -16 295 l-1 271 23 8 c12 4 168 9 347 9 179 1 343 4 365 7 22 4 94 8
160 11 66 2 152 11 190 20 72 16 187 19 285 8 30 -4 98 -2 150 5 91 11 231 11
520 -3z"/>
<path d="M16772 2968 c-7 -7 -12 -38 -12 -69 0 -59 -7 -69 -51 -69 -11 0 -31
-11 -45 -25 -21 -21 -23 -27 -12 -44 7 -11 25 -23 40 -27 49 -10 56 -26 54
-117 -2 -76 -1 -84 21 -100 17 -13 28 -15 41 -8 15 8 20 27 26 93 4 51 12 89
21 97 8 8 38 21 67 28 78 20 87 53 20 73 -90 28 -93 30 -91 69 1 20 -2 53 -6
74 -6 32 -11 37 -34 37 -15 0 -32 -5 -39 -12z"/>
<path d="M15169 2914 c-23 -25 -24 -30 -21 -154 3 -124 2 -131 -27 -199 l-30
-71 24 -16 c20 -13 28 -14 40 -4 22 18 55 98 62 147 3 24 11 50 18 59 10 15
14 13 34 -15 12 -17 28 -31 36 -31 12 0 43 33 87 92 17 23 18 23 30 3 7 -13
11 -51 9 -103 -3 -92 11 -122 55 -122 29 0 40 33 29 88 -4 20 -7 92 -6 160 2
120 -9 192 -31 192 -16 0 -69 -61 -108 -123 -19 -31 -42 -59 -50 -62 -19 -8
-43 26 -58 78 -12 46 -47 107 -60 107 -5 0 -19 -12 -33 -26z"/>
<path d="M15640 2817 c-24 -12 -55 -82 -64 -146 -2 -14 -7 -40 -11 -57 -6 -28
-3 -35 27 -58 28 -21 46 -26 91 -26 94 0 157 46 157 114 0 31 -31 96 -54 115
-9 8 -16 20 -16 27 0 17 -51 44 -82 44 -13 0 -34 -6 -48 -13z m107 -100 c12
-12 16 -35 14 -75 -2 -33 -45 -51 -70 -28 -22 20 -32 71 -20 105 8 19 14 22
37 16 15 -3 32 -12 39 -18z"/>
<path d="M15958 2793 c-42 -27 -61 -124 -36 -194 36 -105 79 -114 158 -34 30
30 57 55 61 55 4 0 23 -16 43 -36 29 -29 42 -35 63 -31 16 3 32 -1 40 -9 22
-22 63 -29 78 -13 7 8 20 47 30 87 15 61 21 73 41 78 36 9 52 -11 59 -74 4
-31 9 -64 11 -73 6 -22 42 -31 67 -17 18 9 19 17 13 86 -8 88 -22 119 -72 160
-33 28 -38 29 -75 18 -21 -6 -44 -19 -51 -28 -7 -9 -29 -25 -48 -36 -33 -18
-35 -22 -35 -68 0 -46 -2 -49 -25 -49 -22 0 -27 8 -42 55 -10 30 -20 66 -22
80 -3 14 -12 34 -19 45 -23 31 -51 10 -104 -80 -35 -59 -54 -81 -72 -83 -23
-4 -23 -3 -15 50 18 122 8 146 -48 111z"/>
<path d="M19362 6126 c-29 -19 -85 -63 -124 -98 -95 -84 -340 -273 -388 -298
-14 -7 -38 -26 -55 -42 -16 -17 -43 -37 -60 -45 -16 -9 -61 -37 -100 -63 -38
-26 -90 -56 -115 -68 -25 -11 -56 -28 -70 -36 -21 -13 -170 -84 -290 -138 -60
-28 -123 -49 -181 -63 -30 -7 -65 -17 -77 -24 -11 -6 -44 -11 -73 -11 -38 0
-62 -6 -86 -22 -18 -13 -33 -26 -33 -30 0 -4 10 -19 23 -34 19 -22 32 -27 68
-27 166 1 613 192 914 390 158 105 308 214 374 273 18 16 37 30 42 30 5 0 31
20 59 45 28 25 55 45 60 45 5 0 34 21 64 48 30 26 71 61 90 77 30 25 36 37 38
75 4 57 -11 60 -80 16z"/>
<path d="M10390 5901 c0 -5 -9 -13 -21 -16 -11 -4 -24 -16 -29 -28 -6 -12 -25
-49 -44 -82 -20 -33 -44 -80 -56 -105 -11 -25 -24 -52 -30 -60 -5 -8 -29 -47
-52 -87 -83 -139 -84 -141 -180 -270 -43 -57 -92 -128 -108 -157 -63 -111
-162 -208 -356 -346 -99 -70 -106 -74 -222 -116 -155 -56 -258 -81 -420 -103
-126 -17 -114 -111 14 -111 48 0 161 23 214 44 19 8 82 26 140 42 124 32 252
91 312 143 24 20 68 53 98 72 127 83 205 172 385 439 13 19 35 49 49 66 14 17
44 62 67 100 23 38 60 96 82 129 22 33 57 94 79 135 46 87 72 131 104 180 36
56 32 140 -7 140 -10 0 -19 -4 -19 -9z"/>
<path d="M13277 5830 l-25 -20 23 -57 c13 -32 25 -80 28 -108 5 -49 -11 -157
-26 -171 -4 -4 -7 -20 -7 -35 0 -15 -5 -31 -10 -34 -6 -4 -17 -23 -26 -43 -11
-28 -12 -42 -4 -61 9 -21 7 -28 -16 -52 -32 -34 -28 -73 10 -83 34 -8 45 -3
186 89 69 45 145 89 169 99 l44 17 51 -49 c55 -53 183 -152 197 -152 5 0 32
-15 61 -32 29 -18 81 -44 117 -58 51 -20 73 -35 99 -70 19 -25 40 -46 47 -48
24 -6 36 34 29 93 -6 53 -9 56 -56 85 -26 16 -51 30 -55 30 -3 0 -27 12 -52
27 -25 15 -79 42 -119 60 -40 17 -95 51 -123 75 -28 24 -64 55 -81 69 l-31 26
37 34 c21 19 52 39 69 45 25 8 34 19 42 48 9 36 7 40 -25 67 -19 16 -51 34
-70 40 -19 7 -51 21 -70 33 -71 41 -124 66 -140 66 -9 0 -20 4 -25 8 -16 13
-116 52 -135 52 -10 0 -23 7 -30 15 -17 21 -53 19 -83 -5z"/>
<path d="M22513 5738 c-6 -7 -24 -43 -42 -79 -33 -70 -109 -164 -141 -174 -30
-9 -76 20 -170 109 -93 89 -145 119 -161 95 -5 -8 -12 -25 -15 -39 -15 -70
-83 -170 -115 -170 -13 0 -44 26 -82 66 -61 65 -129 114 -160 114 -10 0 -18
-12 -23 -35 -3 -19 -10 -38 -15 -41 -5 -3 -9 -16 -9 -30 0 -14 -5 -35 -11 -46
-6 -12 -19 -49 -28 -82 -23 -84 -36 -84 -125 2 -71 69 -118 94 -137 75 -5 -5
-14 -34 -18 -65 -5 -30 -17 -73 -26 -94 -18 -43 -18 -43 -30 -97 -11 -54 -37
-65 -83 -34 -96 66 -143 87 -190 87 -66 0 -73 -10 -55 -73 23 -81 36 -174 29
-211 -8 -41 -48 -76 -156 -135 -50 -27 -88 -41 -112 -41 -33 0 -38 -3 -38 -23
0 -25 20 -50 65 -82 15 -11 44 -34 64 -50 20 -17 59 -41 88 -54 62 -29 73 -49
40 -73 -13 -9 -55 -43 -95 -75 -39 -32 -81 -65 -93 -74 -34 -23 -19 -44 55
-78 63 -29 127 -40 256 -46 35 -2 66 -8 68 -14 2 -6 -3 -45 -11 -88 -9 -43
-15 -85 -15 -93 0 -8 -6 -44 -12 -79 -10 -60 -10 -66 9 -85 19 -19 25 -19 68
-8 90 24 238 85 274 113 20 15 48 31 63 35 30 7 30 6 26 -134 -2 -68 1 -87 16
-103 22 -24 39 -24 72 0 50 35 201 111 221 111 29 0 35 -33 26 -151 -6 -91 -5
-102 12 -114 27 -21 37 -18 75 18 172 164 212 184 241 125 33 -69 77 -179 77
-193 0 -19 46 -30 79 -19 14 5 33 23 41 39 25 48 87 142 100 150 15 9 57 -30
76 -71 9 -18 31 -50 50 -73 28 -32 42 -41 68 -41 18 0 39 6 48 13 19 13 108
158 127 205 15 36 35 46 62 32 24 -14 114 -150 130 -198 6 -20 16 -43 22 -49
13 -17 42 -16 56 1 9 11 52 170 77 284 8 40 37 24 130 -73 86 -87 128 -116
152 -101 6 3 17 41 26 83 22 100 31 123 53 123 20 0 84 -42 155 -101 49 -41
91 -55 106 -36 10 12 11 18 32 142 13 77 31 105 66 105 12 0 59 -13 103 -30
45 -16 81 -27 81 -24 0 4 6 2 13 -4 21 -18 145 -55 162 -49 8 4 15 18 15 34 0
37 -29 170 -46 210 -16 36 -18 59 -5 68 11 6 50 12 131 21 84 8 100 13 100 30
0 9 -30 75 -66 146 -36 72 -63 136 -60 143 4 12 90 89 184 164 68 54 58 84
-48 146 -36 21 -77 46 -92 57 -15 10 -32 18 -37 18 -6 0 -22 11 -37 25 -25 24
-27 29 -21 89 3 36 13 82 22 103 20 46 12 118 -13 132 -9 5 -97 9 -195 10
-121 0 -184 4 -193 12 -9 7 -14 31 -14 63 0 60 -40 156 -65 156 -21 0 -87 -33
-150 -75 -45 -31 -79 -40 -137 -36 -11 1 -18 14 -23 44 -16 92 -68 187 -103
187 -8 0 -28 -10 -45 -22 -58 -42 -167 -97 -215 -108 l-32 -8 -16 57 c-23 78
-50 128 -74 136 -16 5 -35 -8 -89 -62 -65 -65 -125 -104 -182 -118 -24 -6 -29
-2 -51 44 -34 66 -96 151 -113 151 -7 0 -17 -6 -22 -12z m474 -197 c4 -20 8
-39 9 -43 1 -5 2 -18 3 -31 1 -16 12 -28 36 -40 33 -16 38 -16 68 -1 18 9 45
28 61 41 47 39 175 96 189 84 16 -13 34 -64 41 -122 5 -32 15 -54 34 -72 l27
-25 81 17 c44 10 102 31 129 46 62 37 75 28 92 -61 21 -102 25 -104 208 -103
83 0 158 -3 168 -7 21 -8 20 -43 -3 -193 -13 -79 -12 -85 5 -97 10 -8 34 -14
52 -14 35 0 141 -46 183 -80 l25 -20 -31 -28 c-17 -15 -42 -36 -55 -46 -13
-10 -32 -26 -42 -34 -9 -8 -34 -18 -54 -21 -53 -9 -64 -43 -33 -102 63 -119
99 -196 100 -212 0 -24 -33 -35 -121 -38 -70 -3 -109 -17 -109 -41 0 -4 18
-54 40 -109 22 -56 40 -109 40 -119 0 -30 -31 -28 -125 5 -143 52 -198 67
-230 63 -29 -3 -31 -7 -61 -108 -21 -75 -35 -106 -47 -108 -10 -2 -50 25 -95
63 -104 90 -143 105 -163 62 -6 -13 -18 -59 -27 -102 -23 -107 -39 -116 -95
-50 -66 79 -139 145 -159 145 -44 0 -71 -53 -92 -184 -6 -31 -20 -46 -47 -46
-9 0 -37 31 -64 71 -60 89 -81 109 -119 109 -33 0 -36 -4 -84 -89 -56 -101
-117 -181 -139 -181 -10 0 -73 79 -73 92 0 5 -12 26 -26 48 -26 40 -50 49 -88
34 -9 -4 -44 -44 -78 -91 -39 -53 -67 -83 -77 -81 -8 2 -24 26 -33 53 -10 28
-23 59 -28 70 -4 11 -11 36 -14 56 -4 20 -15 44 -26 54 -18 16 -24 16 -66 5
-26 -7 -75 -33 -110 -57 -77 -52 -91 -54 -87 -10 5 50 -19 138 -42 152 -26 17
-101 -2 -201 -50 -101 -49 -108 -48 -101 18 6 51 -10 125 -35 154 -17 21 -62
15 -119 -16 -174 -92 -227 -119 -253 -125 l-29 -7 6 76 c4 42 18 110 32 151
31 93 31 98 -2 124 -25 19 -35 21 -95 15 -74 -8 -228 2 -228 15 0 4 18 19 39
33 51 34 130 116 137 142 9 38 -12 72 -53 85 -77 26 -191 102 -171 115 2 1 46
33 98 72 52 38 108 78 123 88 31 20 32 32 8 120 -6 22 -14 62 -17 89 l-6 49
38 -8 c22 -4 44 -10 49 -15 25 -21 152 -80 171 -80 32 0 43 19 53 92 5 36 15
77 23 89 7 13 17 40 23 59 15 49 43 51 93 6 21 -20 51 -53 66 -75 28 -40 70
-58 93 -40 6 6 15 29 18 52 10 60 41 187 54 220 18 47 49 36 139 -53 59 -59
87 -80 107 -80 28 0 70 38 81 74 7 21 60 95 79 108 22 17 46 5 108 -51 69 -62
149 -121 166 -121 35 0 161 122 161 155 0 18 43 65 60 65 11 0 28 -17 43 -42
14 -24 39 -58 56 -75 45 -47 77 -44 148 14 32 26 80 62 107 80 56 38 71 34 83
-26z"/>
<path d="M22722 5138 c-11 -15 -9 -353 2 -380 11 -25 -27 -58 -67 -58 -52 0
-118 -39 -152 -90 -23 -34 -30 -59 -33 -106 l-4 -62 44 -26 c64 -37 131 -36
186 4 23 17 46 30 50 30 5 0 21 14 37 30 45 47 22 56 -60 25 -75 -28 -158 -36
-177 -17 -10 10 -8 20 7 48 40 75 108 100 175 65 58 -30 81 -28 75 7 -25 143
-34 235 -34 364 -1 142 -7 178 -31 178 -4 0 -12 -6 -18 -12z"/>
<path d="M23813 5103 c-10 -4 -13 -52 -13 -198 0 -172 2 -195 18 -216 13 -15
25 -20 37 -15 17 6 17 20 13 202 -5 174 -8 198 -24 214 -11 10 -25 16 -31 13z"/>
<path d="M21500 4862 c-9 -4 -36 -21 -60 -38 -25 -17 -56 -35 -68 -39 -20 -6
-23 -12 -18 -33 19 -95 25 -132 25 -173 1 -56 22 -109 49 -126 33 -20 45 5 37
79 -14 122 -12 148 15 194 24 42 76 85 119 99 28 8 27 31 -1 39 -29 7 -79 6
-98 -2z"/>
<path d="M21870 4818 c-14 -5 -33 -17 -43 -26 -23 -20 -77 -99 -77 -112 0 -5
-13 -18 -30 -30 -18 -13 -30 -30 -30 -43 0 -45 57 -104 135 -141 140 -68 177
-72 194 -26 12 35 11 36 -60 43 -32 3 -62 15 -93 37 -25 19 -46 37 -46 41 0 6
24 23 100 70 35 22 63 84 56 124 -10 53 -58 81 -106 63z"/>
<path d="M23123 4773 c-25 -5 -95 -80 -136 -148 -25 -39 -28 -51 -20 -82 11
-47 68 -92 148 -118 57 -17 59 -17 93 1 37 20 77 73 64 86 -4 4 -27 0 -52 -8
-48 -17 -93 -13 -128 12 -28 19 -28 31 1 39 67 21 129 57 147 87 42 70 13 139
-58 137 -20 -1 -47 -4 -59 -6z m80 -59 c10 -10 -21 -50 -49 -62 -14 -7 -37
-12 -51 -12 l-26 0 24 26 c13 15 38 33 54 40 35 15 40 16 48 8z"/>
<path d="M22197 4763 c-15 -2 -45 -21 -67 -42 l-40 -38 4 -84 c4 -92 10 -114
33 -124 26 -9 37 11 44 84 7 85 31 122 74 119 20 -2 34 -12 47 -34 19 -33 39
-118 40 -171 0 -18 8 -39 19 -49 30 -27 44 -4 43 70 -1 67 -39 182 -74 224
-15 19 -83 56 -92 51 -2 -1 -16 -4 -31 -6z"/>
<path d="M23432 4706 c-29 -25 -58 -46 -64 -46 -12 0 -6 -91 14 -179 9 -39 18
-56 35 -64 33 -15 41 -3 48 76 12 133 41 173 135 188 53 8 97 36 83 50 -5 5
-51 11 -104 15 l-95 7 -52 -47z"/>
<path d="M23807 4514 c-10 -10 4 -67 21 -86 17 -21 53 -23 70 -6 20 20 14 65
-10 82 -22 16 -69 21 -81 10z"/>
<path d="M19406 5562 c-14 -16 -15 -28 -6 -94 17 -122 1 -263 -46 -413 -14
-43 -32 -92 -40 -107 -16 -31 -12 -48 12 -48 8 0 14 -4 14 -10 0 -18 20 -11
45 16 13 14 32 47 41 72 10 26 21 51 25 55 4 5 39 -21 79 -58 40 -36 95 -78
123 -92 28 -14 57 -31 65 -39 18 -18 26 -18 44 4 34 39 30 50 -30 79 -60 29
-175 137 -187 174 -10 32 26 63 130 108 101 45 119 62 93 87 -16 16 -22 16
-99 -6 -49 -14 -95 -35 -113 -50 -68 -59 -93 -58 -82 3 3 18 6 86 7 152 2 96
-1 126 -15 153 -19 36 -35 40 -60 14z"/>
<path d="M8171 5555 c-24 -8 -49 -11 -57 -8 -7 3 -28 -3 -46 -12 -27 -14 -60
-17 -187 -16 -85 1 -157 3 -160 5 -5 4 -395 19 -501 20 -114 1 -488 -14 -515
-21 -16 -4 -165 -7 -330 -6 -165 1 -320 2 -344 2 -39 0 -49 -5 -83 -42 -21
-23 -38 -46 -38 -51 0 -33 -195 -241 -332 -353 -115 -95 -122 -102 -104 -122
22 -24 20 -72 -5 -167 -11 -43 -22 -106 -24 -139 -7 -118 -8 -185 -3 -190 2
-3 2 -24 -1 -48 -4 -23 -3 -118 2 -212 4 -93 5 -213 1 -265 -4 -52 -8 -225
-10 -385 -2 -249 1 -306 17 -403 33 -193 41 -744 13 -844 -8 -28 -25 -210 -26
-268 0 -145 4 -206 17 -226 10 -15 12 -46 8 -115 -7 -146 -9 -678 -1 -734 3
-27 11 -81 17 -119 13 -76 -2 -195 -44 -371 l-22 -90 21 -16 c42 -33 125 -49
250 -49 67 0 148 -5 181 -12 34 -6 175 -12 330 -13 149 -1 333 -7 410 -14 270
-23 575 -32 695 -19 215 22 287 31 302 39 9 5 28 9 42 9 14 0 27 4 30 9 3 4
25 11 48 14 24 4 88 14 143 22 71 11 194 17 419 20 293 3 320 5 337 22 15 15
19 42 25 163 3 80 8 148 11 152 2 5 6 144 9 310 5 317 7 363 23 493 9 71 15
361 14 678 0 59 0 126 0 150 0 23 -1 89 -2 147 -1 58 1 263 4 455 5 232 3 370
-4 410 -19 106 -21 137 -26 340 -10 461 -17 666 -27 775 -6 63 -12 140 -14
170 -17 373 -23 529 -24 660 0 85 -4 165 -7 178 -8 34 -53 51 -218 83 -85 16
-168 17 -214 4z m209 -106 c131 -25 136 -28 136 -62 0 -18 3 -90 7 -162 4 -71
9 -238 12 -370 3 -132 8 -256 11 -275 14 -81 31 -446 33 -734 1 -170 4 -313 6
-316 2 -4 7 -47 10 -96 4 -48 9 -93 13 -99 9 -14 3 -588 -7 -642 -5 -24 -7
-90 -4 -146 2 -56 5 -291 5 -522 1 -334 -2 -443 -14 -530 -9 -60 -17 -184 -18
-275 -3 -284 -9 -448 -20 -550 -6 -54 -8 -118 -5 -143 8 -56 0 -60 -123 -56
-48 1 -143 2 -212 2 -69 -1 -136 -1 -150 0 -98 3 -334 -26 -450 -57 -83 -22
-183 -38 -325 -52 -37 -4 -81 -4 -305 1 -103 2 -330 14 -475 26 -117 9 -223
11 -475 6 -69 -1 -206 2 -305 7 -144 6 -182 11 -192 23 -7 9 -11 19 -8 23 2 3
14 53 26 111 24 119 29 295 10 449 -14 120 -19 530 -8 717 6 101 5 155 -4 185
-17 63 -16 212 3 288 13 50 28 250 30 395 2 149 -26 568 -42 624 -5 20 -7 181
-3 410 7 476 7 495 -2 678 -8 164 5 365 31 463 8 30 17 66 20 80 12 55 50 64
129 29 79 -35 179 -69 202 -69 12 0 55 -11 95 -24 40 -12 94 -26 119 -29 41
-6 47 -4 59 18 17 31 7 75 -31 150 -50 97 -130 385 -123 443 1 6 2 19 3 28 1
14 29 15 259 9 227 -6 525 3 692 21 52 6 479 5 560 -1 30 -2 145 -6 255 -9
110 -4 224 -11 254 -17 l54 -11 38 41 38 41 68 -5 c37 -3 93 -10 123 -16z
m-2416 -211 c4 -29 11 -66 16 -83 5 -16 15 -55 23 -85 8 -30 24 -80 36 -110
23 -60 17 -76 -23 -61 -14 6 -37 10 -49 9 -49 -3 -146 24 -224 62 -46 22 -83
44 -83 48 0 4 43 45 96 92 52 47 116 106 141 133 26 26 49 47 53 47 4 0 10
-24 14 -52z"/>
<path d="M7570 5290 c-36 -6 -112 -7 -170 -4 -81 4 -115 2 -151 -10 -134 -46
-548 -81 -629 -54 -19 6 -102 12 -185 13 -82 1 -180 6 -218 10 -58 7 -70 5
-87 -10 -44 -40 -14 -76 81 -97 30 -6 128 -12 219 -13 91 -1 227 -8 304 -15
106 -10 146 -10 170 -2 32 12 87 19 200 27 32 2 72 9 90 14 77 25 518 57 616
45 l75 -9 -1 -65 c-1 -36 -4 -105 -8 -155 -7 -103 -7 -119 -2 -270 3 -60 9
-130 16 -155 18 -73 18 -73 -25 -83 -45 -11 -595 -15 -601 -6 -2 4 -53 7 -113
7 -59 0 -118 3 -130 7 -14 4 -31 0 -47 -10 -17 -11 -35 -14 -52 -10 -22 6
-109 14 -182 17 -8 0 -157 0 -330 -1 -301 -2 -400 4 -535 32 -50 10 -60 15
-58 32 1 11 3 61 4 111 1 107 -10 137 -49 132 -43 -5 -47 -44 -27 -227 2 -20
-3 -44 -11 -55 -40 -58 -9 -79 161 -108 136 -23 154 -24 595 -22 250 2 464 4
475 5 45 3 525 -20 535 -26 6 -4 25 -1 41 6 24 9 45 9 97 0 62 -11 75 -10 167
15 55 14 114 28 130 31 75 11 73 9 68 60 -2 27 -11 77 -20 113 -18 71 -22 229
-11 517 7 182 5 189 -57 204 -58 14 -270 19 -345 9z"/>
<path d="M7186 5058 c-117 -41 -116 -39 -114 -177 0 -64 -4 -125 -9 -136 -15
-28 -25 -98 -16 -111 33 -45 74 -1 93 101 17 90 22 99 56 100 63 3 126 18 157
39 18 12 39 25 48 28 20 8 49 68 49 101 0 35 -55 67 -128 76 -47 5 -70 2 -136
-21z m158 -64 c47 -18 -19 -81 -89 -85 -68 -3 -83 0 -90 21 -8 27 11 50 41 50
12 0 26 5 29 10 7 11 84 14 109 4z"/>
<path d="M6425 5050 c-73 -6 -135 -26 -149 -49 -13 -21 46 -51 100 -51 45 0
55 -4 65 -22 7 -13 18 -28 25 -35 14 -14 37 -140 32 -175 -3 -20 -10 -24 -62
-29 -61 -7 -96 4 -96 28 0 13 -12 17 -40 14 -8 -1 -25 -13 -38 -27 -30 -34
-16 -59 41 -75 23 -7 46 -16 52 -21 11 -10 84 -10 139 0 24 4 46 16 57 32 19
24 19 28 -1 160 -21 145 -20 149 31 170 29 12 67 66 55 78 -3 3 -16 0 -29 -5
-13 -6 -30 -7 -38 -3 -26 14 -64 16 -144 10z"/>
<path d="M6790 5031 c-86 -21 -141 -43 -160 -65 -10 -13 -8 -22 14 -50 34 -46
71 -70 129 -87 26 -7 47 -19 47 -26 0 -7 -18 -25 -40 -39 -36 -24 -41 -25 -55
-10 -21 21 -44 20 -75 -1 -34 -23 -41 -35 -34 -58 13 -43 36 -57 82 -50 85 13
158 59 207 130 42 63 15 111 -75 136 -105 29 -86 51 46 53 96 1 98 2 104 26 4
14 3 33 -2 43 -11 22 -86 22 -188 -2z"/>
<path d="M7618 4285 c-4 -4 -110 -9 -235 -10 -269 -2 -398 -9 -434 -23 -15 -6
-60 -13 -100 -17 -140 -12 -334 -36 -371 -46 -32 -8 -114 -10 -283 -7 -16 1
-69 0 -116 -2 -76 -2 -93 1 -158 29 -87 37 -100 38 -135 10 -22 -17 -26 -27
-21 -49 4 -16 2 -31 -5 -35 -5 -3 -10 -18 -9 -33 0 -15 -3 -65 -7 -112 -4 -47
-8 -116 -10 -155 -2 -38 -7 -146 -11 -240 -10 -230 -5 -427 13 -470 21 -50 64
-87 94 -81 14 2 47 -3 73 -11 41 -13 66 -14 165 -5 64 6 241 9 392 7 151 -1
320 1 375 6 55 6 107 10 115 11 14 0 114 13 290 37 181 24 298 35 344 33 64
-4 225 16 285 34 38 11 64 12 150 2 98 -10 111 -10 200 12 53 13 102 29 110
36 10 9 13 35 10 101 -5 134 0 210 17 297 9 46 14 99 10 125 -3 25 -8 93 -11
151 -5 101 -21 282 -31 346 -9 63 -18 65 -250 60 -115 -3 -225 -6 -244 -7 -19
-1 -73 1 -120 5 -47 5 -88 5 -92 1z m616 -117 c12 -59 19 -120 21 -196 3 -82
3 -84 -18 -78 -12 3 -41 6 -63 6 -50 0 -52 4 -60 108 -6 94 -19 125 -48 116
-32 -10 -36 -22 -36 -117 0 -98 -10 -127 -43 -127 -31 0 -67 -27 -67 -51 0
-14 -7 -19 -26 -19 -37 0 -103 -40 -120 -72 -8 -15 -14 -50 -14 -78 0 -27 -4
-50 -10 -50 -12 0 -30 66 -30 113 0 37 -23 102 -40 112 -27 17 -203 -78 -225
-122 -6 -12 -17 -28 -24 -37 -20 -24 -18 -82 6 -113 16 -22 30 -29 64 -31 38
-3 50 2 86 33 23 19 43 35 46 35 3 0 19 -24 36 -54 23 -42 37 -56 60 -61 17
-3 36 -3 43 2 7 4 47 8 88 8 48 1 86 6 106 17 31 15 33 15 58 -10 24 -24 27
-25 42 -10 10 9 19 45 24 89 11 90 38 200 53 215 7 6 36 14 65 17 l52 6 0 -29
c0 -16 5 -32 10 -35 15 -9 12 -60 -9 -182 -15 -83 -17 -130 -12 -198 6 -76 5
-92 -8 -102 -27 -20 -138 -27 -226 -14 -72 11 -91 10 -185 -9 -73 -15 -152
-23 -259 -25 -158 -3 -263 -13 -506 -45 -316 -42 -398 -46 -745 -37 -69 2
-168 -1 -220 -7 -52 -6 -134 -10 -181 -8 l-87 3 -11 107 c-7 59 -9 149 -7 201
3 52 6 162 7 245 0 163 14 391 25 419 8 23 19 22 84 -9 61 -29 67 -30 315 -22
203 7 294 15 309 27 6 5 43 9 81 9 67 -1 240 22 315 42 106 27 132 29 279 22
85 -4 193 -4 240 0 134 10 289 9 296 -2 4 -6 22 -7 43 -4 20 4 107 10 192 13
85 4 172 8 192 9 32 2 38 -2 42 -20z m-212 -419 c-5 -60 -25 -164 -35 -176
-15 -21 -101 -16 -121 6 -41 45 -33 121 15 136 11 4 35 19 52 35 57 49 93 49
89 -1z m-426 -52 c-9 -12 -26 -37 -39 -54 -22 -33 -41 -41 -52 -23 -10 16 34
80 69 101 35 22 46 10 22 -24z"/>
<path d="M6469 4030 c-19 -10 -51 -36 -71 -58 -30 -33 -40 -38 -66 -34 -17 2
-39 13 -48 23 -19 22 -68 25 -100 6 -58 -34 -94 -79 -74 -92 5 -3 14 -22 19
-42 12 -44 3 -59 -41 -68 -50 -11 -145 -74 -157 -103 -10 -27 -15 -69 -13
-109 3 -31 57 -81 118 -109 29 -13 58 -24 63 -24 16 0 14 -9 -9 -37 -26 -33
-25 -44 4 -90 43 -66 100 -123 123 -123 12 0 41 18 64 40 23 22 43 40 44 40 1
0 16 -7 33 -16 45 -22 92 -27 138 -15 69 19 94 51 72 94 -5 11 -11 34 -13 52
-1 19 -10 44 -19 57 -22 31 -20 38 10 38 32 0 136 55 169 90 35 36 40 88 15
157 -11 31 -24 61 -29 66 -5 5 -38 15 -73 21 -54 10 -63 15 -61 31 15 119 15
142 -2 176 -28 54 -39 58 -96 29z m41 -134 c0 -52 -28 -86 -70 -86 -46 0 -35
42 28 112 32 34 42 28 42 -26z m-233 -18 c33 -37 35 -56 8 -74 -39 -25 -68
-15 -78 29 -5 20 -6 44 -3 52 8 22 50 18 73 -7z m384 -213 c10 -22 19 -45 19
-51 0 -5 -19 -18 -42 -28 -24 -10 -62 -27 -85 -39 -23 -12 -45 -18 -49 -14 -7
7 20 105 42 149 12 23 20 27 55 25 39 -1 43 -5 60 -42z m-480 -21 c17 -40 18
-51 7 -80 -24 -68 -79 -78 -145 -28 -74 56 -20 151 85 153 30 1 35 -3 53 -45z
m219 -101 c0 -10 -9 -13 -27 -11 -38 4 -42 27 -4 26 20 -1 31 -6 31 -15z
m-145 -129 c26 -7 25 -46 -1 -100 -24 -49 -44 -50 -67 -3 -15 32 -16 39 -3 64
21 41 36 49 71 39z m231 -54 c7 -24 12 -46 10 -48 -11 -10 -56 14 -75 39 -29
39 -21 61 20 57 28 -3 33 -8 45 -48z"/>
<path d="M6935 3987 c-28 -5 -70 -24 -96 -43 l-45 -33 -12 -93 c-12 -94 -11
-319 2 -350 12 -26 33 -29 60 -7 24 19 26 27 26 97 0 135 1 135 89 42 84 -88
106 -96 147 -55 21 21 28 23 51 14 14 -5 32 -17 38 -26 16 -21 92 -13 128 13
30 21 30 23 18 43 -8 12 -16 13 -46 4 -36 -11 -95 -1 -95 16 0 13 33 39 85 65
28 13 61 36 74 50 22 23 23 29 13 64 -9 29 -19 41 -45 50 -54 19 -134 15 -168
-9 -53 -37 -85 -138 -65 -199 8 -21 2 -19 -43 19 -28 23 -54 47 -57 53 -3 5
11 27 32 48 44 44 52 64 53 137 2 88 -45 120 -144 100z m63 -128 c4 -45 -19
-66 -78 -70 l-45 -3 1 39 c2 53 38 86 86 76 29 -6 33 -11 36 -42z m287 -83
c26 -19 8 -40 -52 -60 -60 -21 -63 -20 -63 6 0 52 72 86 115 54z"/>
<path d="M8357 2975 c-27 -10 -45 -11 -63 -4 -15 5 -72 7 -128 4 -55 -2 -211
-7 -346 -10 -135 -2 -272 -9 -305 -15 -33 -6 -96 -15 -140 -20 -44 -5 -116
-16 -160 -24 -104 -19 -366 -29 -685 -27 -682 5 -701 4 -725 -20 -16 -16 -19
-89 -28 -614 -3 -181 -10 -306 -21 -379 -20 -127 -15 -140 57 -149 23 -3 62
-10 87 -17 25 -6 77 -10 115 -9 39 1 81 1 95 1 14 0 59 3 100 8 106 13 256 30
315 35 55 5 164 27 263 51 42 11 80 14 116 10 36 -5 73 -2 114 8 33 9 91 16
128 16 38 0 114 7 169 15 109 17 399 13 485 -6 26 -5 103 -7 180 -3 74 3 171
7 215 8 99 3 190 23 210 47 9 9 20 43 25 75 6 33 14 80 19 106 8 37 16 271 12
346 -1 9 -4 130 -6 267 -3 138 -10 265 -16 283 -12 36 -24 38 -82 17z m-8
-109 c7 -8 11 -48 11 -98 -1 -45 0 -130 1 -188 6 -325 1 -487 -18 -562 -20
-80 -21 -80 -183 -84 -58 -1 -150 -4 -205 -7 -64 -4 -116 -1 -145 7 -71 19
-473 14 -645 -7 -77 -10 -185 -22 -240 -28 -55 -5 -129 -14 -165 -19 -89 -13
-160 -19 -160 -13 0 3 11 18 25 35 14 16 26 36 26 44 2 17 2 18 17 69 17 58
15 91 -13 172 -36 108 -60 148 -133 224 -59 61 -74 71 -126 85 -105 26 -173
30 -196 9 -11 -10 -20 -27 -20 -37 0 -10 -7 -30 -16 -43 -19 -29 -14 -38 37
-70 50 -32 64 -31 101 6 60 59 102 55 169 -17 96 -104 141 -249 104 -337 -16
-38 -37 -55 -95 -73 -34 -10 -110 -8 -110 4 0 15 46 52 65 52 21 0 77 52 88
81 8 24 -18 56 -51 64 -41 9 -71 -6 -134 -67 -50 -50 -66 -58 -167 -91 -119
-39 -171 -46 -190 -23 -9 11 -3 22 28 55 l39 41 17 -26 c29 -44 62 -49 123
-18 87 44 86 65 -3 158 -67 69 -87 120 -88 225 -2 145 28 204 119 232 80 25
86 25 132 -20 46 -45 96 -61 119 -38 13 12 6 23 -52 90 -36 41 -72 78 -80 81
-48 18 10 24 253 24 263 0 533 15 602 32 19 5 76 12 126 15 50 3 122 12 160
20 45 9 129 15 239 15 151 0 231 6 385 29 91 13 237 11 249 -3z m-2079 -106
c8 0 -8 -9 -36 -18 -29 -10 -77 -34 -109 -53 -84 -51 -113 -116 -122 -276 -3
-64 -1 -88 11 -105 9 -12 16 -35 16 -50 0 -30 19 -78 31 -78 4 0 10 -8 13 -17
8 -20 -10 -33 -45 -33 -43 0 -95 -27 -126 -64 l-28 -35 1 277 c1 308 12 446
34 454 8 2 310 1 360 -2z m-380 -828 c0 -9 15 -35 33 -56 30 -35 39 -40 91
-44 40 -3 68 0 94 12 20 9 70 25 110 35 l73 19 24 -24 c13 -13 35 -24 49 -24
14 0 27 -4 30 -9 9 -15 -46 -31 -100 -30 -29 1 -56 -1 -61 -4 -5 -3 -45 -7
-90 -8 -44 -1 -103 -7 -131 -12 -38 -8 -64 -7 -107 3 l-57 14 7 55 c3 31 9 66
12 78 6 25 23 21 23 -5z"/>
<path d="M7528 2630 c-12 -8 -18 -31 -23 -94 l-7 -84 -47 -30 c-69 -45 -84
-65 -83 -114 1 -126 1 -126 31 -147 16 -12 36 -21 44 -21 9 0 19 -4 22 -10 12
-20 92 -11 122 13 48 41 60 44 113 33 45 -9 52 -8 73 12 29 27 44 28 52 2 10
-33 54 -61 76 -50 32 18 42 47 24 72 -11 16 -15 48 -15 116 0 99 -10 132 -38
132 -35 0 -62 -29 -62 -68 0 -28 -9 -47 -38 -81 -49 -56 -72 -52 -72 12 0 64
-21 77 -81 53 -28 -12 -39 35 -32 139 7 115 -8 144 -59 115z m-23 -317 c3 -10
10 -37 14 -60 8 -40 7 -43 -14 -43 -43 0 -55 10 -55 47 0 60 38 99 55 56z"/>
<path d="M6801 2538 c-43 -29 -74 -84 -61 -109 12 -22 13 -165 1 -187 -5 -9
-12 -35 -15 -58 -6 -32 -3 -45 13 -65 19 -23 20 -23 48 -7 23 14 30 27 38 75
9 49 14 59 33 61 18 3 22 -1 22 -22 0 -28 73 -118 125 -153 17 -12 55 -23 89
-27 33 -4 64 -10 70 -15 19 -16 106 5 149 35 30 21 42 37 42 54 0 30 -29 39
-53 17 -23 -20 -103 -30 -135 -18 -43 17 -34 45 21 70 70 32 152 93 152 115 0
27 -37 82 -72 107 -25 18 -38 21 -81 16 -44 -6 -58 -13 -100 -55 -43 -43 -49
-55 -59 -115 -6 -38 -16 -66 -21 -64 -17 5 -77 97 -77 118 0 11 9 21 24 25 28
7 67 47 83 85 10 23 8 32 -13 63 -28 40 -72 62 -142 72 -39 5 -53 2 -81 -18z
m135 -90 c9 -13 -31 -48 -55 -48 -27 0 -42 20 -30 42 11 21 73 26 85 6z m304
-133 c0 -19 -5 -25 -22 -25 -13 0 -32 -7 -42 -15 -25 -19 -56 -19 -56 -1 0 23
59 66 91 66 24 0 29 -4 29 -25z"/>
<path d="M7962 2418 c-21 -21 -13 -59 18 -86 37 -33 37 -43 0 -99 -17 -25 -30
-46 -28 -48 13 -11 50 -25 65 -25 10 1 31 11 47 25 27 21 31 22 52 9 14 -10
40 -14 71 -12 44 3 48 5 48 28 0 18 -11 32 -38 50 l-38 24 50 49 c44 42 49 51
38 67 -6 11 -16 21 -22 24 -11 4 -50 -15 -106 -51 -19 -13 -37 -23 -41 -23 -3
0 -21 18 -38 40 -32 41 -57 49 -78 28z"/>
<path d="M7139 1645 c-4 -3 -51 -8 -105 -11 -54 -4 -110 -11 -124 -16 -14 -6
-90 -14 -170 -19 -80 -5 -170 -15 -200 -24 -30 -8 -76 -15 -102 -15 -56 0
-169 -16 -253 -36 -63 -15 -86 -18 -176 -29 -73 -8 -176 -39 -199 -60 -18 -16
-18 -38 0 -80 24 -57 26 -83 14 -165 -12 -82 -25 -234 -24 -275 0 -11 -4 -49
-9 -85 -26 -176 -26 -177 13 -216 20 -20 40 -33 45 -30 6 4 42 -1 82 -10 39
-9 83 -18 98 -20 14 -2 55 -8 91 -14 36 -6 106 -10 155 -9 168 4 250 0 300
-13 28 -8 68 -13 90 -12 295 11 401 18 457 31 64 14 142 18 308 15 80 -1 332
21 415 37 28 5 86 12 130 15 44 3 98 9 121 12 25 3 61 0 93 -10 49 -14 53 -14
71 4 22 22 25 72 19 320 -4 203 -4 302 1 455 l5 150 -33 47 c-18 26 -36 49
-40 51 -4 3 -68 1 -142 -5 -189 -13 -324 -15 -400 -6 -36 4 -146 10 -245 13
-99 2 -202 7 -230 11 -27 3 -53 3 -56 -1z m536 -136 c177 -14 184 -14 375 -4
l135 7 -4 -174 c-2 -95 -3 -200 -3 -233 1 -33 3 -133 4 -222 2 -89 -1 -165 -5
-169 -4 -5 -27 -7 -50 -5 -72 6 -210 2 -257 -8 -25 -6 -67 -15 -95 -21 -39 -8
-267 -22 -355 -22 -8 0 -67 1 -130 2 -103 2 -148 -2 -270 -26 -60 -12 -777 -3
-885 11 -38 5 -73 8 -77 7 -9 -2 -150 28 -160 34 -18 11 -8 117 16 168 40 86
41 95 12 106 -30 11 -30 13 -15 150 11 102 12 178 3 223 -4 18 -1 28 8 31 30
9 168 36 238 45 41 6 99 15 129 20 30 6 86 13 125 16 80 6 125 12 176 25 19 5
87 12 150 16 63 3 153 14 200 24 73 16 120 18 330 15 135 -2 317 -9 405 -16z"/>
<path d="M7792 1333 c-26 -10 -40 -58 -36 -117 l4 -59 -43 8 c-78 13 -87 11
-104 -17 -16 -26 -16 -27 8 -47 13 -12 45 -29 72 -38 35 -13 46 -22 41 -33 -3
-8 -10 -55 -16 -105 -9 -87 -8 -90 14 -107 48 -37 68 -18 78 73 11 98 25 133
48 123 42 -18 90 -16 111 5 24 24 27 54 9 68 -7 6 -35 13 -62 16 -58 6 -79 27
-68 66 4 14 6 53 6 85 -2 45 -7 63 -20 73 -19 14 -22 14 -42 6z"/>
<path d="M6425 1253 c-8 -10 -36 -49 -62 -87 -27 -38 -57 -75 -69 -83 -18 -12
-24 -11 -49 9 -15 12 -33 35 -40 52 -15 34 -50 76 -65 76 -10 0 -40 -28 -41
-38 -4 -43 -10 -135 -9 -166 1 -43 -27 -191 -41 -218 -5 -9 -6 -23 -3 -31 6
-17 52 -40 64 -32 18 11 49 117 56 190 8 89 19 99 68 61 19 -14 41 -26 49 -26
8 0 38 25 66 55 45 48 54 53 67 41 12 -13 11 -29 -7 -121 -20 -101 -20 -107
-3 -126 22 -24 45 -24 66 0 28 33 45 414 19 445 -18 21 -48 20 -66 -1z"/>
<path d="M6985 1092 c-16 -22 -20 -45 -22 -118 l-2 -92 39 -26 c52 -34 74 -33
123 9 22 19 45 35 50 35 5 0 18 -11 29 -25 13 -17 29 -25 50 -25 l31 0 -6 63
c-3 34 -8 71 -11 82 -2 11 -5 30 -5 41 -1 12 -9 32 -19 44 -16 19 -20 20 -45
9 -16 -7 -35 -29 -46 -53 -10 -23 -35 -57 -55 -76 -31 -29 -38 -32 -46 -20 -6
8 -8 26 -5 40 13 62 8 113 -10 126 -25 18 -27 18 -50 -14z"/>
<path d="M7415 1074 c-25 -17 -46 -23 -61 -20 -32 9 -47 -36 -28 -90 8 -21 13
-50 12 -64 -3 -34 19 -70 41 -70 25 0 37 17 46 65 8 44 41 115 54 115 14 0 34
-29 28 -43 -7 -18 12 -129 25 -144 13 -17 64 -17 71 0 5 14 0 124 -9 175 -3
18 -19 48 -36 67 -38 44 -87 48 -143 9z"/>
<path d="M6696 1055 c-22 -7 -51 -25 -65 -40 -25 -25 -26 -30 -24 -127 2 -55
7 -106 12 -112 5 -6 30 -17 56 -25 43 -13 50 -12 108 13 91 38 120 59 141 98
28 52 16 99 -37 141 -23 19 -60 39 -82 44 -22 6 -47 13 -55 16 -8 4 -33 0 -54
-8z m144 -87 c19 -12 18 -13 -6 -58 -13 -25 -39 -53 -56 -63 -35 -20 -34 -20
-68 44 -17 32 -17 38 -4 57 21 30 99 42 134 20z"/>
<path d="M19974 5512 c-27 -18 -34 -56 -34 -179 0 -112 3 -131 20 -153 11 -14
20 -33 20 -42 0 -23 26 -23 34 -2 4 9 9 93 13 185 4 128 3 172 -7 184 -14 16
-29 19 -46 7z"/>
<path d="M18967 5306 c-93 -26 -143 -86 -173 -206 -15 -63 -15 -67 6 -112 11
-26 29 -52 40 -58 10 -6 48 -33 84 -60 70 -53 90 -58 160 -38 48 14 145 106
173 165 27 57 25 201 -3 240 -50 68 -181 99 -287 69z m214 -109 c28 -18 27
-133 -2 -182 -34 -57 -104 -105 -153 -105 -36 0 -44 4 -59 30 -10 17 -15 35
-12 40 4 6 -8 10 -28 10 -39 0 -47 12 -47 68 0 40 33 111 59 127 56 35 195 41
242 12z"/>
<path d="M3910 5223 c-36 -13 -41 -25 -24 -51 14 -21 17 -51 17 -157 -1 -71
-4 -168 -8 -215 -5 -47 -9 -104 -9 -128 -1 -25 -8 -47 -16 -52 -19 -12 2 -51
40 -74 28 -16 30 -16 45 8 11 16 38 31 78 44 34 11 84 29 110 39 l48 18 33
-35 c17 -19 100 -80 184 -135 84 -55 190 -127 235 -161 98 -72 206 -133 302
-169 83 -31 140 -59 213 -102 76 -46 110 -43 97 9 -9 34 -214 178 -254 178 -9
0 -33 11 -53 25 -20 14 -42 25 -48 25 -22 0 -136 64 -180 100 -25 21 -63 48
-85 60 -22 12 -49 30 -60 39 -21 18 -124 88 -159 108 -39 23 -119 88 -124 100
-6 20 86 56 148 59 38 2 54 7 52 15 -2 7 2 23 9 36 15 28 0 49 -43 58 -17 4
-47 22 -67 39 -20 18 -65 52 -101 76 -36 24 -89 63 -118 87 -29 24 -57 43 -61
43 -8 0 -42 25 -127 94 -32 26 -46 29 -74 19z"/>
<path d="M19987 4902 c-21 -23 -22 -75 -3 -92 22 -18 57 -8 80 23 19 26 19 30
5 55 -18 33 -58 40 -82 14z"/>
</g>
</svg>
