<?xml version="1.0" standalone="no"?>
<!DOCTYPE svg PUBLIC "-//W3C//DTD SVG 20010904//EN"
 "http://www.w3.org/TR/2001/REC-SVG-20010904/DTD/svg10.dtd">
<svg version="1.0" xmlns="http://www.w3.org/2000/svg"
 width="1167.222150pt" height="400.000000pt" viewBox="0 0 1167.222150 400.000000"
 preserveAspectRatio="xMidYMid meet">
<metadata>
Created by potrace 1.15, written by Peter Selinger 2001-2017
</metadata>
<g transform="translate(-26.733706,431.612422) scale(0.054431,-0.054431)"
fill="#444444" stroke="none">
<path d="M20612 7921 c-14 -8 -13 -15 19 -131 6 -19 11 -55 12 -80 l2 -45 -55
-6 c-74 -8 -93 -15 -108 -40 -12 -18 -11 -24 1 -36 17 -18 78 -32 133 -33 62
0 67 -13 65 -143 -4 -228 -5 -214 26 -220 53 -10 93 65 90 168 -1 17 0 67 1
112 l2 82 48 6 c55 7 91 23 106 48 18 30 -27 57 -91 55 -72 -2 -110 16 -118
55 -9 43 -26 98 -36 119 -5 10 -9 22 -9 28 0 10 -60 69 -70 70 -3 0 -11 -4
-18 -9z"/>
<path d="M20273 7845 l-28 -25 33 -30 c37 -35 62 -39 62 -10 0 11 5 20 10 20
14 0 13 43 -2 58 -19 19 -44 14 -75 -13z"/>
<path d="M18030 7700 c-16 -10 -20 -110 -7 -162 9 -36 -12 -56 -63 -61 -76 -8
-101 -18 -110 -43 -5 -13 -17 -24 -27 -24 -13 0 -11 -5 11 -19 26 -17 161 -39
206 -33 13 2 16 -11 14 -84 -1 -47 -5 -106 -9 -129 -5 -37 -3 -45 14 -54 38
-21 69 -13 87 21 22 43 33 143 23 208 -10 63 -4 70 57 70 44 0 94 30 94 55 0
8 -10 23 -22 35 -18 16 -35 20 -95 20 -63 0 -73 2 -73 18 0 9 -7 30 -15 46 -8
15 -15 38 -15 50 0 24 -32 88 -46 93 -5 1 -16 -2 -24 -7z"/>
<path d="M19509 7607 c-13 -18 -18 -32 -12 -34 7 -3 3 -19 -9 -44 -11 -23 -17
-47 -14 -54 2 -7 -1 -21 -8 -31 -8 -11 -16 -35 -18 -54 -3 -19 -10 -48 -16
-65 -6 -16 -14 -42 -17 -57 -3 -16 -11 -28 -18 -28 -15 0 -67 51 -67 66 0 6
-18 30 -41 54 -36 38 -44 42 -75 37 -38 -6 -74 -38 -114 -99 -31 -46 -44 -48
-47 -5 -1 17 -11 54 -22 80 -12 27 -21 63 -21 80 0 22 -9 40 -29 60 -16 15
-33 27 -38 27 -4 -1 -16 -17 -25 -36 -15 -34 -15 -39 2 -92 10 -31 16 -60 14
-64 -3 -4 -2 -13 2 -20 4 -7 9 -25 11 -40 4 -42 45 -128 60 -128 8 0 12 -4 9
-8 -3 -5 11 -14 32 -20 48 -15 102 9 117 53 5 17 16 36 22 43 7 7 13 18 13 23
0 5 8 9 18 9 19 0 82 -50 82 -66 0 -25 83 -84 117 -84 23 1 64 35 68 57 2 10
4 19 5 21 2 1 3 5 5 10 1 4 5 15 9 24 4 9 5 22 1 28 -3 5 1 17 9 26 9 9 14 20
11 25 -4 5 1 19 9 31 9 12 16 32 16 43 0 12 4 25 9 31 5 5 11 27 15 49 3 22 8
57 12 78 3 20 3 52 0 71 -9 45 -45 46 -77 3z"/>
<path d="M20031 7633 c-80 -15 -265 -170 -301 -250 -26 -60 -25 -84 5 -108 14
-11 35 -28 46 -37 16 -13 40 -18 82 -18 74 0 136 27 173 76 29 37 45 42 64 19
7 -9 19 -14 27 -11 7 3 13 2 13 -3 0 -19 42 -19 61 0 26 26 24 53 -4 72 -19
12 -30 39 -51 123 -34 138 -44 150 -115 137z m-14 -143 c1 -16 2 -41 3 -54 3
-34 -48 -95 -98 -117 -44 -19 -44 -19 -73 2 -35 25 -36 29 -4 59 14 13 25 28
25 34 1 10 126 106 139 106 3 0 7 -13 8 -30z"/>
<path d="M16076 7603 c-13 -18 -16 -28 -8 -31 7 -2 9 -15 6 -31 -3 -15 1 -66
10 -112 8 -46 18 -124 21 -173 3 -49 8 -93 11 -98 3 -5 7 -46 9 -92 4 -96 28
-159 61 -164 15 -2 23 4 28 20 11 42 6 118 -9 148 -9 18 -11 31 -5 35 15 10
12 63 -6 90 -9 14 -14 31 -11 39 3 7 2 44 -3 82 -5 38 -7 70 -5 72 3 4 55 -46
55 -53 0 -3 9 -14 19 -24 12 -12 17 -28 14 -39 -2 -11 0 -23 6 -26 6 -4 11
-20 11 -35 0 -44 55 -80 101 -66 11 4 35 30 54 59 18 28 40 58 48 65 9 7 19
27 23 44 6 28 34 67 48 67 18 0 47 -88 51 -151 3 -67 18 -127 52 -211 20 -48
59 -60 85 -26 24 32 22 61 -6 95 -13 15 -26 44 -29 63 -3 19 -10 65 -16 101
-6 36 -12 80 -13 98 -1 18 -6 34 -9 37 -4 2 -11 34 -15 71 -5 50 -12 72 -29
87 -12 12 -30 36 -39 54 -9 17 -22 32 -30 32 -17 0 -56 -43 -56 -62 0 -9 -7
-29 -15 -45 -23 -44 -44 -96 -47 -118 -2 -11 -11 -26 -20 -33 -9 -7 -18 -22
-20 -35 -2 -13 -11 -23 -23 -25 -16 -2 -26 11 -47 56 -33 70 -186 256 -213
259 -12 2 -28 -8 -39 -24z"/>
<path d="M20298 7540 c-15 -26 -16 -39 -7 -83 6 -29 15 -60 20 -70 5 -10 6
-23 2 -30 -13 -22 -14 -110 0 -119 22 -14 54 -9 82 13 22 18 26 27 20 53 -15
73 -26 154 -25 189 1 52 -15 77 -48 77 -20 0 -32 -8 -44 -30z"/>
<path d="M17603 7553 c-13 -2 -23 -9 -23 -14 0 -5 -9 -9 -20 -9 -32 0 -90 -58
-90 -90 0 -16 5 -32 10 -35 6 -3 10 -15 10 -25 0 -10 4 -20 8 -22 5 -1 23 -29
41 -61 20 -36 52 -72 82 -95 27 -20 49 -39 49 -43 0 -11 -53 -28 -95 -30 -64
-3 -73 0 -77 23 -4 29 -20 32 -48 10 -57 -46 -15 -124 75 -136 27 -4 52 -9 57
-12 5 -3 14 -1 21 4 7 5 32 13 56 17 57 9 123 74 119 116 -4 35 -52 89 -78 89
-11 0 -20 4 -20 9 0 5 -20 31 -45 59 -35 39 -46 59 -48 89 -2 33 1 38 21 41
12 2 22 8 22 13 0 5 13 9 30 9 17 0 38 9 50 22 23 25 24 32 10 59 -11 19 -56
24 -117 12z"/>
<path d="M17194 7433 c-12 -2 -30 -22 -43 -46 -56 -105 -69 -124 -115 -170
-43 -44 -50 -47 -64 -34 -9 10 -16 35 -16 64 -1 26 -5 54 -10 62 -6 10 -5 16
2 19 16 5 15 43 -2 65 -12 16 -17 16 -35 5 -12 -7 -21 -18 -21 -25 0 -6 -5
-13 -10 -15 -6 -2 -13 -41 -16 -88 -7 -116 -5 -152 9 -168 15 -18 92 -52 118
-52 24 0 100 68 119 107 8 15 26 44 41 63 15 19 26 38 25 42 0 3 2 10 7 14 5
6 9 -15 7 -38 0 -2 11 -36 24 -76 25 -71 55 -111 87 -112 8 0 20 -5 26 -11 16
-16 44 -3 40 18 -2 10 -13 40 -25 66 -12 26 -29 74 -38 105 -36 128 -50 165
-61 169 -7 3 -13 14 -13 24 0 10 -3 18 -7 18 -5 -1 -17 -4 -29 -6z"/>
<path d="M19355 6712 c-5 -4 -16 -17 -22 -29 -12 -21 -12 -31 4 -70 8 -22 11
-36 17 -93 10 -89 15 -112 26 -125 12 -15 10 -77 -3 -86 -5 -4 -3 -17 4 -30 7
-13 12 -32 10 -42 -1 -10 3 -24 9 -32 6 -7 7 -16 2 -19 -5 -3 -9 -33 -9 -67
-1 -52 2 -62 18 -66 10 -3 19 -9 19 -14 0 -5 17 -8 38 -6 20 2 51 0 67 -5 17
-5 67 -9 113 -9 80 -1 85 1 142 38 32 21 61 45 64 53 26 66 26 66 -26 119 -27
28 -56 51 -64 51 -8 0 -31 9 -51 20 -20 10 -61 24 -92 30 -107 22 -137 38
-150 80 -6 21 -8 45 -5 53 3 9 -1 26 -9 38 -9 12 -13 28 -10 35 3 9 -2 14 -13
14 -14 0 -15 3 -6 12 14 14 16 54 3 62 -4 3 -6 17 -4 30 4 20 0 28 -21 37 -14
7 -26 16 -26 21 0 10 -12 10 -25 0z m291 -467 c4 -8 11 -15 17 -15 21 0 97
-42 97 -54 0 -16 -48 -43 -93 -51 -47 -9 -128 3 -126 18 3 27 -2 37 -20 37
-20 0 -36 36 -20 46 5 3 34 8 64 11 30 3 55 10 55 14 0 15 20 10 26 -6z"/>
<path d="M20510 6636 c0 -8 -9 -18 -20 -21 -27 -9 -25 -23 4 -34 13 -5 26 -17
29 -25 6 -15 57 -23 69 -10 3 3 0 26 -6 52 -11 43 -15 47 -44 50 -23 2 -32 -1
-32 -12z"/>
<path d="M17253 6521 c-18 -3 -52 -22 -76 -42 -36 -31 -43 -43 -45 -77 -2 -22
2 -59 7 -82 l9 -42 -51 6 c-48 6 -53 5 -63 -18 -10 -21 -8 -28 10 -45 11 -11
46 -28 76 -38 l55 -19 27 -109 c15 -61 29 -137 30 -170 3 -60 3 -60 36 -63 18
-2 39 1 46 7 16 14 14 187 -3 250 -7 23 -10 46 -7 49 3 3 39 6 78 6 67 1 73 3
76 23 4 25 -31 53 -66 53 -13 0 -45 9 -71 21 -40 17 -50 26 -59 57 -28 94 -22
122 32 147 20 10 36 20 36 24 0 3 20 5 45 3 28 -3 45 0 45 7 0 6 -4 11 -9 11
-5 0 -12 11 -15 25 -6 23 -11 25 -59 24 -28 -1 -66 -4 -84 -8z"/>
<path d="M21536 6513 c-4 -4 -38 -6 -76 -5 -73 3 -117 -12 -188 -65 -38 -29
-73 -100 -61 -123 4 -8 10 -27 13 -42 17 -78 178 -76 287 4 22 17 30 18 46 7
39 -24 94 -248 74 -302 -13 -36 -241 -113 -292 -100 -19 5 -38 -9 -39 -29 0
-20 47 -49 77 -46 18 1 35 -1 39 -4 8 -9 82 -1 144 14 41 11 91 37 130 70 23
19 41 87 36 138 -7 66 -47 237 -61 260 -4 6 -8 29 -10 52 -5 50 -43 148 -64
165 -18 14 -44 17 -55 6z m-32 -92 c14 -22 -14 -59 -56 -76 -39 -16 -115 -21
-127 -9 -11 11 53 60 97 75 56 20 79 22 86 10z"/>
<path d="M20119 6459 c-31 -16 -70 -46 -85 -66 -47 -61 -94 -136 -94 -151 0
-7 -7 -27 -16 -44 -11 -22 -13 -33 -5 -41 6 -6 11 -18 11 -27 0 -18 42 -61 78
-79 64 -34 141 -50 194 -41 29 4 54 7 56 5 1 -1 46 12 100 30 91 30 97 33 97
59 1 41 -24 50 -103 37 -105 -16 -226 -22 -241 -12 -21 14 -5 29 42 36 73 12
123 40 165 94 38 48 41 55 37 103 -5 62 -29 98 -76 115 -54 19 -100 14 -160
-18z m143 -93 c12 -18 9 -32 -9 -48 -27 -22 -180 -71 -200 -64 -14 6 -12 11
13 38 16 17 52 46 79 64 39 26 57 32 80 27 17 -3 33 -11 37 -17z"/>
<path d="M16091 6466 c-19 -23 -15 -73 12 -156 19 -59 19 -106 0 -143 -14 -28
-14 -32 3 -44 10 -7 21 -13 25 -13 6 0 12 -40 27 -185 7 -59 5 -72 -9 -85 -10
-8 -20 -24 -23 -36 -5 -18 0 -24 37 -38 49 -18 73 -20 82 -6 3 6 15 10 27 10
11 0 31 9 45 20 14 11 34 20 44 20 79 0 179 103 179 184 0 35 -33 93 -76 134
-13 13 -24 26 -24 30 0 14 -62 31 -149 41 -46 6 -86 12 -88 14 -2 2 -5 22 -7
43 -1 21 -10 53 -19 71 -11 20 -13 34 -7 38 17 10 -1 59 -33 88 -36 32 -32 31
-46 13z m280 -379 c29 -9 40 -20 58 -60 21 -44 21 -50 7 -71 -17 -28 -83 -61
-144 -75 -40 -9 -44 -8 -52 15 -5 13 -9 36 -8 51 0 15 -2 53 -7 83 -7 52 -6
57 16 68 25 12 68 8 130 -11z"/>
<path d="M20885 6415 c-18 -9 -45 -39 -64 -71 -33 -55 -33 -58 -28 -144 6 -94
16 -123 47 -140 46 -25 83 44 62 115 -11 35 -2 117 13 122 26 8 76 -58 86
-113 5 -26 14 -53 20 -60 15 -19 54 -18 69 1 18 21 7 112 -19 161 -11 21 -26
50 -32 64 -29 61 -102 92 -154 65z"/>
<path d="M20556 6393 c-16 -17 -24 -35 -20 -48 2 -11 5 -40 6 -65 0 -25 3 -84
5 -132 5 -82 6 -87 30 -93 33 -8 66 3 59 21 -3 7 2 17 11 22 12 7 13 17 7 43
-4 19 -6 49 -5 67 1 17 -2 32 -7 32 -5 0 -7 19 -5 43 6 47 -18 117 -39 117 -9
0 -9 3 2 10 13 8 13 10 -2 10 -9 0 -28 -12 -42 -27z"/>
<path d="M18073 6345 c-17 -6 -41 -19 -53 -30 -24 -21 -70 -113 -70 -138 0 -9
-4 -19 -10 -22 -15 -9 -12 -46 5 -79 8 -15 15 -45 15 -65 1 -32 5 -38 37 -53
35 -17 37 -16 62 5 25 21 26 24 14 77 -15 72 -15 120 -2 158 12 35 68 82 97
82 27 0 35 27 14 49 -21 23 -67 30 -109 16z"/>
<path d="M16725 6292 c-27 -26 -59 -63 -70 -82 -11 -19 -30 -52 -42 -72 -13
-21 -20 -38 -17 -38 2 0 0 -10 -7 -21 -6 -12 -11 -45 -10 -73 1 -90 42 -158
117 -191 21 -9 48 -22 59 -27 11 -6 29 -13 40 -14 11 -2 38 -6 60 -10 71 -11
164 39 217 116 35 50 12 105 -24 60 -10 -13 -39 -33 -63 -46 -40 -20 -53 -21
-122 -15 -88 9 -144 30 -167 63 -23 32 -21 35 27 41 23 3 61 15 84 27 23 11
50 20 60 20 26 1 69 49 77 87 8 35 -9 113 -24 113 -6 0 -10 7 -10 15 0 9 -8
19 -17 22 -10 4 -33 22 -52 40 -19 18 -41 33 -50 33 -9 0 -38 -21 -66 -48z
m103 -70 c7 -5 17 -24 22 -43 9 -30 8 -36 -15 -56 -26 -23 -83 -43 -124 -43
-22 0 -23 1 -7 25 9 13 16 30 16 38 0 18 64 87 81 87 8 0 20 -4 27 -8z"/>
<path d="M18372 6294 c-47 -28 -79 -84 -102 -181 -6 -26 -5 -33 7 -33 14 0 73
-58 73 -72 0 -5 5 -8 10 -8 6 0 27 -11 48 -23 97 -62 252 -25 227 53 -5 17
-15 20 -59 20 -65 0 -116 9 -116 21 0 5 9 9 19 9 27 0 115 47 142 76 21 22 21
27 9 64 -17 50 -34 66 -96 85 -71 21 -113 19 -162 -11z m131 -81 c37 -7 34
-15 -16 -35 -60 -25 -87 -24 -87 5 0 32 20 49 50 42 14 -3 37 -9 53 -12z"/>
<path d="M17640 6240 c-25 -9 -54 -21 -65 -25 -26 -11 -75 -57 -75 -71 0 -6
-11 -21 -25 -34 -22 -20 -25 -31 -23 -74 2 -28 5 -53 8 -56 12 -12 30 -51 30
-65 0 -8 12 -22 26 -31 28 -19 112 -35 119 -24 3 4 25 13 50 20 25 7 45 16 45
20 0 3 18 26 40 51 22 24 40 49 40 56 0 6 4 13 10 15 6 2 5 20 -1 48 -6 25
-12 55 -14 68 -3 32 -54 91 -90 106 -25 11 -38 10 -75 -4z m76 -101 c28 -27
31 -34 24 -65 -12 -53 -36 -81 -90 -109 -57 -29 -82 -31 -101 -9 -10 13 -10
17 0 24 9 5 11 17 7 35 -12 48 3 83 51 120 25 19 53 35 61 35 9 0 30 -14 48
-31z"/>
<path d="M19061 5683 c-21 -8 -51 -41 -51 -56 0 -7 11 -28 24 -46 28 -38 41
-85 45 -168 0 -18 7 -38 15 -45 8 -8 11 -27 8 -54 -4 -37 0 -45 36 -83 41 -44
66 -47 75 -9 3 11 1 32 -5 47 -6 14 -10 40 -9 58 2 38 -27 173 -41 190 -6 7
-8 19 -5 27 9 22 -19 89 -39 97 -11 4 -15 8 -10 8 5 1 3 7 -3 14 -6 8 -8 17
-4 20 7 8 -16 8 -36 0z"/>
<path d="M18712 5661 c-13 -4 -31 -18 -39 -33 -15 -23 -15 -31 -2 -65 9 -26
12 -58 9 -98 -4 -33 -2 -63 3 -66 5 -4 7 -12 3 -17 -4 -6 -2 -19 3 -29 9 -18
31 -102 31 -122 0 -5 -19 -12 -42 -16 -95 -16 -136 -60 -144 -157 -6 -58 -4
-65 20 -93 14 -16 26 -38 26 -47 0 -12 11 -19 34 -24 19 -3 37 -13 40 -21 10
-24 98 -8 184 34 63 31 80 45 95 76 24 48 11 70 -33 57 -25 -7 -33 -5 -50 18
-12 15 -18 32 -14 41 3 9 9 25 12 36 2 11 9 26 15 33 6 8 6 12 -2 12 -6 0 -11
11 -11 24 0 13 -7 29 -15 36 -8 7 -15 20 -15 29 0 9 -9 35 -20 56 -11 22 -18
46 -15 52 2 7 0 37 -6 66 -6 28 -12 78 -14 111 -1 32 -7 61 -13 65 -5 3 -12
15 -13 27 -3 15 -9 19 -27 15z m-4 -547 c12 -4 22 -14 22 -23 0 -9 4 -21 9
-26 6 -6 14 -29 20 -53 l9 -43 -41 6 c-49 8 -63 18 -83 56 -18 36 -18 41 6 67
23 24 25 25 58 16z"/>
<path d="M17353 5602 l-21 -29 29 -46 c16 -26 29 -58 29 -71 0 -14 4 -27 9
-30 5 -4 12 -25 16 -49 4 -23 18 -65 30 -92 20 -45 32 -89 42 -150 5 -31 5
-38 -2 -70 -4 -16 -7 -34 -7 -40 4 -97 10 -116 43 -148 18 -16 19 -16 31 7 7
14 18 24 23 23 6 -1 11 35 11 91 2 73 6 97 19 112 20 23 64 26 86 8 34 -28 88
-117 82 -136 -6 -26 33 -102 53 -102 8 0 22 7 30 15 20 19 10 115 -15 148 -9
12 -27 45 -39 72 -17 37 -33 54 -60 68 -20 9 -48 24 -62 33 -17 10 -41 14 -77
10 -47 -4 -53 -2 -53 14 0 10 -4 22 -10 25 -5 3 -10 14 -10 24 0 10 -7 32 -15
47 -8 16 -15 41 -15 55 0 15 -6 32 -14 38 -7 6 -16 31 -19 56 -4 24 -12 55
-19 67 -16 28 -59 78 -68 78 -3 0 -16 -13 -27 -28z"/>
<path d="M20572 5394 c-12 -8 -22 -22 -22 -30 0 -8 -4 -14 -10 -14 -5 0 -10
-7 -10 -15 0 -8 7 -15 15 -15 7 0 18 -6 22 -13 13 -22 70 -57 91 -57 11 0 33
-11 49 -24 15 -13 43 -31 62 -41 19 -9 49 -31 66 -49 17 -17 62 -55 98 -84 37
-29 67 -59 67 -67 0 -17 153 -175 169 -175 6 0 11 -7 11 -15 0 -9 12 -27 26
-40 27 -25 34 -37 81 -128 32 -63 73 -174 79 -215 2 -19 11 -49 18 -67 8 -18
17 -69 20 -112 3 -43 8 -100 11 -128 3 -27 7 -65 9 -83 4 -40 -15 -62 -52 -62
-15 0 -42 -4 -60 -10 -18 -5 -60 -10 -93 -11 -54 -2 -62 -5 -81 -32 -20 -28
-20 -32 -6 -61 28 -58 86 -191 91 -211 3 -11 24 -67 46 -125 23 -58 41 -112
41 -121 0 -9 7 -22 15 -29 8 -7 15 -21 15 -31 0 -10 6 -22 13 -26 8 -4 26 -29
41 -55 25 -44 63 -78 85 -78 17 0 49 40 54 70 4 15 18 45 32 65 14 21 25 46
25 55 0 10 7 23 15 30 8 7 15 17 15 23 0 6 6 18 14 26 8 9 26 40 41 68 14 29
55 82 90 119 36 36 65 71 65 78 0 7 16 31 35 53 19 23 35 48 35 56 0 9 4 19
10 22 12 7 1 67 -14 77 -6 4 -11 15 -11 25 0 15 -10 18 -70 20 -100 2 -269 14
-274 19 -7 7 -10 31 -16 139 -9 183 -52 399 -87 443 -6 6 -8 12 -5 12 9 0 -30
88 -53 120 -11 16 -20 36 -20 45 0 9 -22 40 -50 69 -27 28 -56 64 -63 80 -23
42 -212 241 -280 293 -34 26 -76 61 -93 78 -56 55 -141 107 -223 136 -31 10
-56 19 -56 19 0 0 -11 -7 -23 -16z"/>
<path d="M18179 5322 c-50 -4 -140 -84 -144 -127 -4 -42 -19 -77 -44 -99 -24
-22 -27 -42 -7 -49 7 -3 19 -33 27 -67 10 -47 20 -67 39 -79 14 -8 27 -18 30
-22 17 -21 87 -30 175 -24 90 7 96 9 108 34 8 18 22 27 42 29 36 4 58 21 51
39 -3 7 -1 13 4 13 5 0 7 7 4 15 -7 16 -34 21 -34 6 0 -5 -26 -9 -57 -10 -32
0 -80 -6 -108 -14 -34 -9 -61 -11 -84 -5 -34 9 -61 29 -61 45 0 9 61 39 73 35
5 -1 33 5 63 15 42 13 59 24 74 50 27 46 25 92 -5 133 -14 19 -25 39 -25 45 0
24 -61 42 -121 37z m76 -132 c0 -24 -17 -33 -117 -66 -32 -10 -20 29 19 63 48
41 98 43 98 3z"/>
<path d="M16996 5305 c-25 -7 -48 -24 -67 -50 -16 -21 -29 -41 -29 -45 0 -4
14 -28 32 -54 37 -56 92 -85 270 -140 48 -15 90 -31 93 -36 9 -14 -93 -53
-139 -53 -22 0 -78 3 -123 6 -77 6 -85 5 -103 -16 -27 -28 -22 -48 15 -66 21
-10 69 -14 179 -13 136 1 153 3 176 22 14 11 32 23 40 26 8 3 25 23 37 45 27
50 19 80 -29 99 -18 8 -36 18 -39 22 -3 5 -45 22 -93 38 -85 29 -195 87 -196
103 0 18 63 30 172 31 105 1 119 3 132 21 17 22 19 35 8 51 -10 16 -287 24
-336 9z"/>
<path d="M19223 5105 c-12 -14 -23 -34 -25 -44 -4 -23 19 -51 44 -51 10 0 21
-7 24 -15 4 -8 14 -15 23 -15 14 1 13 2 -2 11 -18 10 -17 12 6 38 31 32 27 73
-9 90 -33 15 -36 14 -61 -14z"/>
<path d="M5895 5041 c-3 -2 -44 -5 -92 -8 -103 -4 -115 -7 -107 -27 4 -10 -2
-15 -18 -18 -21 -3 -23 -7 -21 -63 1 -33 -3 -65 -9 -72 -5 -7 -7 -20 -4 -30
18 -57 16 -122 -5 -183 -15 -44 -19 -73 -15 -99 4 -20 8 -259 9 -532 2 -403 5
-499 16 -512 10 -13 11 -24 3 -44 -5 -16 -8 -59 -6 -98 2 -38 4 -91 5 -117 1
-27 5 -48 9 -48 5 0 5 -13 0 -28 -4 -16 -4 -60 0 -98 4 -38 3 -70 -2 -72 -12
-5 -10 -56 4 -70 10 -10 10 -15 1 -20 -12 -7 -15 -45 -10 -127 l2 -40 -65 -7
c-36 -4 -92 -8 -124 -9 -33 0 -69 -4 -80 -9 -12 -4 -61 -2 -111 6 -49 7 -105
11 -122 9 -18 -2 -59 3 -90 11 -32 8 -76 14 -98 13 -23 -2 -45 0 -51 3 -5 4
-46 2 -89 -3 -67 -8 -85 -14 -109 -38 -18 -18 -26 -34 -21 -42 14 -22 18 -98
17 -389 0 -91 0 -183 0 -205 0 -22 0 -53 -1 -70 -3 -47 -1 -67 9 -85 5 -9 5
-22 0 -29 -4 -8 -4 -27 1 -44 6 -20 5 -35 -2 -44 -6 -7 -8 -20 -5 -29 4 -10 2
-31 -4 -49 -7 -22 -7 -41 -1 -58 7 -18 7 -28 0 -33 -5 -3 -9 -29 -8 -57 1 -65
-16 -213 -30 -250 -9 -23 -8 -29 7 -34 9 -3 27 -17 39 -31 19 -23 29 -25 115
-29 51 -2 122 -8 158 -13 36 -5 110 -12 165 -15 55 -3 127 -8 160 -11 118 -12
301 -10 317 4 38 31 305 47 382 23 47 -15 658 -9 664 7 5 15 51 16 89 1 15 -6
74 -10 130 -10 59 1 104 -3 108 -9 8 -12 55 -13 74 -1 7 5 25 5 40 0 14 -4 82
-13 151 -19 69 -6 149 -13 178 -15 33 -3 52 -1 52 6 0 6 9 4 21 -4 16 -12 44
-14 122 -11 139 7 167 12 167 31 0 13 3 13 15 3 8 -7 38 -14 67 -16 56 -3 77
-7 120 -19 16 -4 36 -4 45 1 32 13 160 23 393 29 190 5 258 10 338 25 46 8 78
8 125 0 58 -11 97 -10 302 7 195 16 227 19 255 27 14 4 46 3 73 -2 27 -6 96
-6 165 -1 64 5 195 11 291 14 95 3 179 9 185 12 13 8 203 12 1016 18 647 5
894 10 909 19 5 4 12 2 16 -4 4 -6 10 -8 15 -5 5 3 37 8 72 10 35 3 64 10 66
15 2 6 14 7 27 4 12 -3 36 1 53 10 16 8 32 12 36 9 10 -10 146 -4 183 8 17 5
89 12 160 14 179 6 232 10 278 24 103 31 160 34 305 14 25 -4 108 -7 185 -8
82 0 148 -5 160 -12 34 -19 63 -19 77 -1 7 10 29 19 48 22 19 2 40 5 45 7 6 2
19 -2 30 -8 11 -6 43 -14 70 -17 28 -4 64 -11 80 -16 53 -16 311 -23 336 -9
13 6 51 11 86 11 34 -1 65 3 68 8 4 6 19 10 35 10 16 0 44 10 63 23 l35 22 -5
145 c-9 229 -8 275 2 450 6 91 9 242 7 335 -8 475 -11 500 -60 511 -15 3 -50
12 -78 20 -39 11 -69 13 -125 7 -81 -9 -286 -9 -391 0 -43 4 -86 1 -120 -8
-63 -16 -134 -22 -144 -12 -8 8 -8 218 0 467 3 79 2 149 -2 155 -4 5 -8 64 -9
130 -6 306 -14 528 -18 535 -3 5 -1 12 5 15 8 5 9 49 3 143 -8 147 -8 164 -4
377 3 171 0 206 -19 215 -114 56 -132 59 -405 63 -160 3 -179 -1 -183 -36 -3
-21 -8 -26 -27 -25 -14 1 -26 10 -29 21 -4 15 -14 18 -58 17 -29 -1 -80 1
-113 4 -33 3 -110 8 -171 10 -60 3 -117 7 -125 10 -65 21 -560 39 -659 24
-127 -19 -141 -20 -475 -32 -82 -4 -157 -6 -165 -7 -8 0 -70 3 -137 7 -72 4
-128 3 -135 -2 -11 -8 -283 -9 -688 -4 -19 1 -62 1 -95 1 -82 1 -98 3 -111 11
-6 4 -39 3 -75 -2 -35 -5 -123 -10 -195 -10 -72 0 -134 -3 -137 -7 -8 -7 -158
-16 -202 -12 -33 4 -350 2 -490 -2 -49 -1 -128 1 -175 4 -47 4 -119 10 -160
13 -41 3 -92 10 -113 15 -30 8 -210 14 -287 10 -8 0 -37 2 -65 4 -218 21 -306
28 -345 26 -241 -13 -481 -14 -509 -3 -16 5 -37 5 -58 -1 -22 -7 -45 -7 -70 0
-23 6 -119 8 -248 5 -297 -7 -860 -5 -925 3 -69 8 -150 11 -155 6z m135 -127
c46 -16 481 -25 835 -16 39 1 83 0 99 -3 16 -2 63 0 105 5 51 6 118 4 211 -6
74 -8 153 -14 175 -14 347 -1 446 4 461 24 9 13 13 13 31 1 33 -23 143 -33
318 -30 88 1 167 -1 177 -6 9 -5 60 -14 114 -20 73 -8 99 -8 104 1 5 8 10 9
14 2 3 -6 25 -14 49 -18 54 -10 467 -11 467 -1 0 6 82 8 260 5 30 -1 87 0 125
1 39 1 113 3 165 4 52 1 98 6 102 11 4 6 12 6 20 0 7 -5 31 -8 53 -7 22 1 87
1 145 1 58 -1 116 -1 130 0 14 1 44 2 68 2 23 1 42 6 42 12 0 7 5 6 14 -1 8
-7 41 -11 77 -10 87 2 191 -5 207 -15 7 -4 21 -5 30 -1 9 4 157 9 327 11 171
1 375 6 455 9 80 3 203 8 273 10 71 3 136 9 144 14 9 4 35 6 59 3 28 -3 44 -1
44 6 0 6 10 9 23 6 40 -9 221 -13 232 -5 5 4 46 4 90 0 44 -5 121 -11 170 -14
50 -4 110 -10 135 -15 76 -15 147 -20 355 -24 195 -4 202 -4 250 19 27 13 52
22 56 19 4 -2 70 -6 146 -8 76 -3 150 -9 165 -15 32 -12 41 -40 39 -115 -3
-93 -4 -399 -1 -521 1 -66 -1 -146 -5 -177 -4 -31 -4 -65 0 -75 5 -10 9 -76
11 -148 1 -71 5 -215 9 -320 4 -104 8 -194 7 -200 -10 -397 -13 -430 -34 -448
-21 -18 -21 -19 -3 -55 12 -26 19 -67 21 -137 2 -55 6 -120 9 -145 3 -25 7
-146 10 -270 7 -331 14 -492 27 -607 13 -120 7 -136 -45 -123 -18 5 -61 8 -97
6 -36 -1 -95 0 -133 4 -39 3 -71 2 -77 -4 -7 -7 -10 -6 -10 1 0 22 -16 22
-291 -1 -26 -2 -60 -6 -75 -10 -29 -5 -350 -20 -389 -17 -22 1 -140 -18 -165
-27 -8 -3 -41 -6 -72 -7 -32 -2 -74 -6 -95 -10 -32 -7 -101 -11 -233 -16 -14
-1 -225 0 -470 1 -537 2 -1236 -6 -1249 -15 -6 -3 -59 -6 -118 -6 -59 -1 -111
-3 -115 -5 -4 -3 -101 -7 -215 -9 -310 -7 -427 -14 -568 -34 -38 -6 -91 -11
-117 -11 -32 0 -48 -4 -48 -12 0 -10 -2 -10 -8 -1 -9 15 -263 11 -467 -6 -71
-6 -223 -11 -337 -11 -149 0 -207 -3 -210 -11 -3 -9 -10 -9 -27 0 -21 12 -275
10 -536 -3 -38 -2 -78 0 -87 5 -15 8 -121 16 -288 22 -36 1 -71 6 -78 10 -7 5
-45 8 -85 8 -390 -2 -495 -3 -647 -2 -96 0 -209 2 -250 5 -41 3 -120 7 -175
11 -104 6 -140 20 -117 47 15 19 32 251 19 264 -3 3 -3 21 0 39 3 19 2 42 -2
52 -4 10 -7 59 -7 110 1 51 -3 95 -8 98 -5 3 -5 18 0 36 5 16 9 74 8 127 0 53
2 160 6 237 7 185 7 282 0 580 -8 298 -8 334 -1 445 3 47 1 110 -3 140 -5 30
-12 168 -16 305 -8 315 -8 323 1 540 4 99 6 196 5 215 -1 19 -1 53 -1 75 1 22
3 76 4 120 2 45 6 86 10 92 4 6 41 14 82 18 42 4 77 11 80 15 5 7 79 3 105 -6z
m8047 -2132 c26 -15 141 -15 203 -1 25 6 66 13 93 16 26 3 47 10 47 16 0 7 4
7 12 -1 7 -7 26 -12 42 -12 17 -1 40 -8 51 -18 18 -16 20 -31 22 -182 1 -91 3
-218 5 -283 3 -85 0 -128 -10 -155 -9 -23 -16 -91 -18 -177 -3 -77 -6 -156 -7
-175 -1 -19 3 -66 7 -105 11 -81 13 -181 5 -189 -34 -34 -486 -39 -564 -6 -51
22 -93 30 -146 30 -61 0 -66 4 -60 50 0 8 -3 74 -9 145 -5 72 -12 236 -15 365
-3 129 -8 285 -10 345 -3 61 -7 157 -8 214 -3 100 -2 103 21 112 13 5 57 10
98 11 41 0 77 5 80 10 3 5 18 6 34 3 19 -4 29 -2 33 9 5 12 11 12 39 2 18 -6
43 -17 55 -24z m-9107 -152 c25 -6 79 -12 120 -16 41 -3 93 -9 115 -13 116
-24 324 -15 378 15 22 12 79 6 71 -8 -3 -5 -5 -62 -4 -126 1 -64 2 -121 2
-127 0 -5 -3 -81 -7 -167 -6 -140 -5 -158 9 -158 18 0 23 -45 6 -55 -14 -8 -9
-322 5 -342 9 -12 9 -22 -2 -44 -8 -16 -11 -34 -8 -40 6 -9 9 -146 4 -174 -1
-5 -2 -17 -3 -25 -2 -27 -191 -47 -283 -30 -32 6 -137 16 -233 21 -96 6 -213
13 -260 17 l-85 7 4 135 c8 308 12 976 8 1090 -2 33 0 35 33 41 52 9 80 9 130
-1z"/>
<path d="M9625 4593 c-59 -11 -106 -27 -116 -39 -6 -8 -20 -14 -30 -14 -35 0
-44 -46 -19 -105 9 -22 22 -99 21 -127 -1 -30 -1 -38 3 -228 2 -102 1 -204 -4
-228 -4 -23 -4 -45 1 -48 5 -3 9 -19 9 -35 0 -16 9 -39 20 -51 16 -17 22 -19
35 -8 8 7 15 20 15 29 0 9 5 22 12 29 8 8 12 61 12 162 1 93 5 150 11 149 6 0
48 -43 95 -96 203 -227 318 -333 361 -333 24 0 31 48 9 63 -9 7 -20 24 -23 39
-4 14 -43 63 -87 107 -44 44 -80 82 -80 85 0 13 -95 106 -107 106 -8 0 -11 5
-7 11 3 6 -7 24 -22 41 l-29 31 29 -7 c17 -4 47 -1 76 9 26 9 52 15 56 14 5
-2 28 3 51 10 47 13 122 82 121 110 -1 9 3 34 7 55 6 28 5 37 -4 32 -14 -9
-14 7 0 21 21 21 -58 124 -113 148 -18 8 -28 14 -23 15 6 0 -10 12 -35 26 -38
22 -59 26 -135 29 -49 1 -99 0 -110 -2z m169 -108 c8 -8 22 -15 30 -15 44 0
162 -129 134 -146 -5 -3 -7 -12 -4 -20 9 -24 -72 -66 -151 -78 -7 -1 -15 -4
-18 -7 -10 -10 -91 0 -145 18 -46 15 -55 22 -57 43 -1 14 -6 54 -12 90 -9 60
-8 66 11 83 11 9 29 17 39 17 10 0 19 3 19 8 0 4 28 5 61 4 43 -3 59 -1 55 7
-11 17 20 13 38 -4z"/>
<path d="M12363 4563 c4 -3 -1 -11 -9 -18 -14 -10 -15 -19 -5 -64 6 -28 11
-72 11 -96 0 -24 4 -46 8 -49 4 -2 6 -23 4 -45 l-4 -40 -103 6 c-97 5 -104 4
-114 -15 -28 -52 4 -89 92 -108 4 -1 26 -2 50 -3 57 -2 76 -19 78 -67 1 -47
-8 -185 -17 -234 -3 -19 -6 -61 -8 -92 -2 -54 0 -58 26 -69 39 -16 78 9 78 52
0 17 5 40 11 51 6 11 13 86 16 167 3 80 8 149 12 153 4 4 29 10 56 13 244 24
279 30 255 45 -9 6 -7 11 9 19 26 14 27 42 3 64 -13 12 -26 14 -54 8 -22 -5
-38 -5 -40 1 -2 6 -21 5 -48 -1 -53 -12 -187 -14 -194 -3 -2 4 -5 32 -7 62 -1
30 -6 60 -12 67 -5 7 -10 41 -12 77 -3 78 -28 126 -64 126 -13 0 -21 -3 -18
-7z"/>
<path d="M8065 4451 c-22 -11 -45 -20 -51 -21 -6 0 -17 -7 -24 -15 -7 -8 -21
-15 -31 -15 -10 0 -32 -12 -48 -27 -39 -38 -73 -63 -84 -63 -4 0 -5 -4 -2 -10
3 -5 0 -10 -9 -10 -8 0 -24 -16 -36 -36 -12 -19 -33 -42 -46 -51 -17 -11 -23
-21 -19 -34 5 -14 0 -22 -20 -29 -23 -9 -34 -3 -106 53 -44 34 -88 67 -97 72
-9 6 -20 13 -23 17 -3 5 -34 19 -68 33 -35 13 -68 28 -75 33 -11 9 -64 22
-121 29 -16 2 -52 6 -80 9 -133 17 -181 14 -237 -14 -32 -17 -54 -35 -56 -47
-2 -11 -13 -28 -23 -38 -10 -10 -19 -31 -19 -47 0 -15 -6 -30 -12 -33 -10 -3
-10 -9 -2 -24 8 -12 9 -25 3 -36 -6 -11 -4 -29 6 -53 8 -20 13 -39 11 -43 -3
-4 -1 -25 4 -46 5 -24 5 -44 0 -51 -6 -6 -8 -13 -6 -15 2 -2 6 -25 9 -51 3
-25 10 -55 16 -66 6 -11 8 -28 5 -37 -4 -10 -1 -21 6 -25 11 -7 10 -13 -4 -34
-13 -20 -25 -26 -54 -26 -20 0 -86 -14 -147 -31 -60 -17 -143 -36 -184 -44
-42 -8 -82 -22 -95 -33 -11 -11 -28 -20 -36 -20 -8 0 -31 -6 -50 -13 -19 -6
-47 -16 -62 -21 -36 -13 -121 -95 -113 -108 4 -6 -1 -20 -10 -30 -10 -11 -19
-30 -20 -43 -2 -13 -13 -43 -24 -66 -18 -34 -21 -53 -16 -102 3 -32 9 -67 14
-77 8 -15 36 -77 55 -122 23 -57 79 -135 126 -177 134 -119 198 -142 410 -148
264 -8 385 -16 394 -25 6 -6 3 -22 -6 -42 -9 -18 -25 -55 -36 -83 -11 -27 -36
-90 -56 -140 -20 -49 -36 -97 -36 -105 0 -19 -36 -88 -57 -109 -9 -8 -22 -31
-30 -50 -9 -20 -24 -46 -34 -60 -10 -13 -19 -33 -19 -45 -1 -11 -7 -39 -15
-61 -14 -38 -13 -41 10 -65 14 -15 25 -33 25 -41 0 -31 93 -105 168 -133 90
-35 231 -42 273 -15 13 9 44 20 69 24 24 4 51 11 60 16 8 5 34 13 56 19 23 5
58 24 79 40 21 17 44 30 51 30 16 0 174 156 174 172 0 11 79 92 85 86 10 -9
55 -80 55 -85 0 -3 -7 -11 -16 -18 -15 -10 -15 -13 1 -28 9 -10 14 -25 11 -35
-5 -14 3 -22 32 -35 21 -9 42 -17 46 -17 5 0 22 -6 39 -14 50 -21 189 -51 224
-47 20 1 39 -4 49 -14 20 -19 85 -12 152 16 23 10 43 18 45 18 25 -4 124 79
136 115 2 6 9 18 16 26 32 39 43 157 25 265 -5 33 -15 97 -20 143 -6 45 -15
92 -19 105 -5 12 -14 40 -20 62 -6 22 -18 63 -27 92 -23 74 -18 87 33 88 24 1
50 8 60 18 14 12 29 15 54 11 26 -4 50 2 99 25 150 71 195 104 207 151 4 14
12 31 20 38 7 7 13 19 13 27 0 7 6 15 14 18 7 3 16 20 19 39 3 18 10 52 15 76
10 45 -8 151 -39 232 -16 42 -78 140 -88 140 -4 0 -13 11 -19 24 -10 23 -118
96 -141 96 -6 0 -29 11 -50 25 -22 13 -61 28 -87 32 l-48 8 -2 155 c-2 161
-31 348 -58 380 -8 8 -16 31 -20 50 -4 24 -20 49 -49 77 -40 38 -136 93 -164
93 -8 0 -24 7 -38 16 -39 25 -123 28 -170 5z m170 -115 c19 -8 35 -12 35 -8 0
3 5 1 12 -6 7 -7 21 -12 33 -12 19 0 75 -66 75 -89 0 -5 8 -16 18 -23 10 -7
18 -24 19 -38 0 -14 3 -41 6 -60 27 -175 33 -276 21 -339 -6 -29 -9 -31 -51
-31 -24 0 -53 5 -64 10 -10 6 -49 13 -87 17 -37 3 -72 10 -78 14 -6 5 -20 8
-30 7 -11 -2 -60 1 -110 5 -87 8 -92 10 -115 40 -40 53 -69 98 -69 104 0 4
-17 27 -39 53 -38 45 -38 47 -23 75 53 102 146 191 262 249 98 49 130 55 185
32z m-1116 -66 c46 -5 90 -6 97 -3 8 3 21 0 29 -7 8 -7 28 -13 44 -15 16 -1
42 -11 58 -23 16 -11 42 -24 59 -28 28 -7 130 -84 147 -112 5 -7 22 -21 38
-31 l29 -18 -31 -49 c-18 -27 -37 -65 -44 -84 -7 -20 -27 -59 -45 -88 -31 -51
-32 -52 -83 -53 -29 -1 -70 -1 -92 0 -22 1 -54 -3 -70 -10 -17 -6 -48 -13 -70
-14 -22 -1 -78 -5 -125 -8 -61 -5 -89 -3 -100 6 -9 6 -28 64 -44 127 -23 94
-28 137 -28 231 0 78 4 126 13 144 16 31 70 56 109 49 14 -3 63 -9 109 -14z
m624 -374 c40 -42 77 -92 77 -104 0 -4 -17 -9 -37 -9 -21 -1 -60 -5 -87 -9
-66 -9 -72 5 -30 75 19 31 34 62 34 69 0 19 9 15 43 -22z m180 -286 c20 -27
37 -55 37 -64 0 -9 12 -35 28 -57 73 -109 174 -300 188 -353 3 -14 12 -30 20
-37 15 -12 19 -55 6 -61 -13 -5 -71 -106 -78 -135 -4 -16 -20 -44 -35 -64 -16
-20 -29 -43 -29 -50 -1 -30 -31 -50 -103 -69 -150 -38 -437 -22 -437 24 0 24
-98 187 -162 267 -31 40 -37 92 -14 118 14 17 57 97 74 141 6 14 24 55 41 93
17 37 31 72 31 78 0 5 14 40 32 77 18 36 31 76 30 88 -1 20 4 23 56 29 31 4
77 10 102 15 25 4 74 8 110 8 l65 -1 38 -47z m262 30 c17 -5 55 -11 86 -14 31
-2 77 -14 102 -26 45 -21 45 -22 40 -63 -3 -23 -9 -46 -13 -52 -4 -5 -13 -28
-20 -50 -7 -22 -26 -65 -42 -96 -15 -31 -28 -63 -28 -72 0 -8 -9 -25 -19 -38
l-20 -24 -24 56 c-14 30 -36 68 -50 85 -13 16 -28 40 -32 54 -4 14 -20 43 -34
64 -52 79 -101 164 -101 178 0 10 116 9 155 -2z m-745 -15 c0 -3 -18 -38 -41
-78 -23 -40 -50 -98 -60 -131 -11 -32 -28 -73 -39 -91 -11 -18 -20 -38 -20
-44 0 -15 -41 -71 -52 -71 -11 0 -174 250 -183 281 -4 13 -14 32 -22 41 -8 9
-13 25 -11 35 3 15 14 18 78 20 87 2 276 26 286 36 8 8 64 10 64 2z m-540 -77
c6 -18 16 -40 21 -48 5 -8 23 -42 40 -75 17 -33 37 -67 45 -76 8 -8 14 -19 14
-23 0 -5 13 -25 28 -45 15 -20 34 -47 41 -61 28 -57 50 -92 66 -110 23 -26 16
-89 -17 -161 -14 -30 -37 -86 -52 -126 l-27 -72 -94 4 c-51 1 -98 6 -103 9 -6
3 -75 8 -155 10 -80 2 -153 8 -165 15 -11 6 -36 11 -54 11 -114 2 -216 68
-284 185 -56 96 -67 129 -70 200 -2 59 1 80 26 135 32 72 80 119 122 120 15 0
30 5 33 10 3 6 21 10 40 10 19 0 56 12 82 26 39 21 60 26 111 25 38 -1 62 2
62 8 0 6 7 11 16 11 8 0 25 5 37 12 12 7 36 13 52 15 31 3 155 19 166 21 4 1
12 -13 19 -30z m1680 13 c0 -5 26 -17 58 -26 66 -18 68 -19 103 -43 95 -62
108 -76 143 -162 59 -141 66 -209 29 -278 -46 -87 -65 -112 -96 -129 -44 -23
-188 -72 -212 -73 -12 0 -25 -4 -31 -10 -11 -11 -135 -17 -151 -7 -6 4 -14 19
-17 34 -4 16 -13 42 -21 58 -54 118 -60 151 -32 180 10 9 17 20 17 25 0 4 18
40 41 79 41 71 88 189 116 291 8 30 17 58 20 63 6 10 33 9 33 -2z m-1229 -741
c32 -52 58 -97 59 -100 0 -3 -8 -10 -19 -17 -24 -15 -105 8 -139 39 -19 19
-24 20 -32 8 -14 -22 -12 0 4 51 23 73 46 121 58 117 5 -2 37 -46 69 -98z
m928 63 c8 -16 18 -37 23 -47 8 -15 6 -22 -8 -30 -11 -6 -26 -11 -34 -12 -8
-1 -26 -4 -39 -9 -23 -7 -24 -6 -17 25 6 35 43 100 55 100 4 0 13 -12 20 -27z
m99 -235 c21 -36 49 -127 57 -188 1 -8 7 -33 13 -55 19 -70 45 -310 38 -346
-14 -79 -111 -160 -195 -164 -20 0 -87 5 -150 11 -102 12 -117 16 -143 41 -17
15 -39 46 -50 68 -11 22 -26 47 -33 55 -22 25 -65 116 -65 137 0 11 9 28 20
38 11 10 20 22 20 27 0 5 15 30 33 57 18 26 40 63 47 82 8 19 18 39 22 44 21
26 58 87 58 95 0 5 18 27 40 50 27 28 48 40 67 40 15 0 51 9 78 20 28 10 67
19 87 20 31 0 39 -5 56 -32z m-1172 -33 c19 -12 211 -45 264 -45 24 0 70 -35
70 -54 0 -11 30 -71 66 -131 43 -73 84 -163 84 -186 0 -13 -9 -32 -20 -44 -11
-11 -46 -54 -78 -96 -53 -71 -110 -129 -127 -129 -4 0 -21 -10 -38 -22 -39
-28 -70 -40 -250 -100 -56 -19 -61 -19 -145 -2 -137 26 -209 74 -183 122 6 11
8 22 5 24 -2 3 2 11 11 18 8 7 15 18 15 25 0 8 3 15 8 17 12 5 52 85 52 105 0
10 9 26 20 36 11 9 20 23 20 31 0 7 23 68 50 135 28 67 48 126 45 131 -3 5 11
39 30 75 20 36 35 74 34 83 -1 9 -1 21 0 25 1 10 38 0 67 -18z m704 -71 c-11
-19 -20 -41 -20 -50 0 -27 -105 -174 -124 -174 -4 0 -26 41 -51 92 -24 50 -48
94 -54 97 -5 3 -12 18 -16 32 l-7 26 139 9 c76 5 141 8 145 6 4 -1 -2 -18 -12
-38z"/>
<path d="M7692 3330 c-81 -12 -142 -60 -167 -131 -26 -73 -13 -116 58 -194 56
-62 113 -88 188 -87 97 0 182 55 196 124 3 18 10 39 16 45 13 18 -1 102 -24
139 -36 59 -89 88 -189 106 -14 3 -49 2 -78 -2z"/>
<path d="M10380 4170 c-11 -11 -27 -20 -35 -20 -8 0 -15 -4 -15 -9 0 -5 -12
-14 -27 -19 -44 -17 -129 -100 -116 -113 8 -8 4 -18 -15 -36 -18 -16 -23 -26
-14 -30 6 -2 9 -9 6 -15 -11 -17 -14 -88 -5 -88 5 0 11 -21 15 -47 6 -43 40
-103 75 -129 8 -6 30 -17 50 -24 20 -7 42 -18 50 -24 8 -6 24 -12 35 -13 12 0
46 -3 76 -6 55 -5 134 8 157 26 7 5 22 7 33 4 13 -3 21 1 25 14 4 13 16 19 34
19 15 0 36 9 46 20 10 11 14 20 10 20 -4 0 0 9 9 19 10 11 15 24 12 29 -6 11
-66 14 -66 3 0 -15 -138 -41 -220 -42 -132 -2 -134 -1 -178 37 -48 40 -54 59
-17 50 24 -6 115 11 125 24 3 3 19 12 37 19 20 8 30 18 26 26 -3 10 7 16 34
21 78 14 130 78 134 168 3 42 -1 50 -32 80 -50 49 -70 56 -153 56 -63 0 -80
-4 -96 -20z m119 -52 c44 4 50 2 74 -28 32 -37 33 -51 10 -72 -24 -21 -172
-98 -188 -98 -7 0 -18 -7 -25 -15 -13 -15 -74 -20 -104 -9 -34 13 -6 116 34
129 11 4 20 10 20 16 0 5 22 20 49 33 27 14 51 33 55 42 5 12 10 14 17 7 5 -5
31 -8 58 -5z"/>
<path d="M11228 4156 c-16 -8 -34 -18 -40 -23 -7 -4 -21 -6 -31 -5 -9 2 -24
-4 -33 -13 -9 -8 -24 -13 -34 -10 -11 3 -26 -4 -41 -20 -13 -13 -29 -25 -35
-25 -14 0 -94 -69 -94 -81 0 -6 -11 -25 -25 -44 -37 -48 -48 -130 -24 -187 12
-31 69 -78 93 -78 9 0 16 -5 16 -11 0 -8 5 -7 16 2 9 7 18 9 22 3 16 -22 59
-36 104 -35 53 1 108 24 108 45 0 7 18 32 39 56 44 50 52 47 85 -27 10 -23 25
-44 32 -47 8 -3 14 -13 14 -23 1 -36 34 -65 82 -70 34 -4 46 -2 51 9 5 15 -20
78 -32 78 -8 0 -37 58 -84 170 -8 19 -21 62 -28 95 -7 33 -16 65 -20 70 -6 9
-31 98 -44 158 -4 23 -10 27 -38 27 -17 0 -44 -7 -59 -14z m19 -151 c12 -37 5
-83 -19 -130 -9 -16 -19 -45 -23 -62 -13 -62 -87 -91 -162 -66 -51 18 -78 51
-67 85 25 79 94 143 208 190 54 22 51 23 63 -17z"/>
<path d="M11958 4125 c-2 -2 -30 -5 -63 -8 -33 -2 -73 -10 -90 -18 -44 -19
-115 -71 -115 -83 -1 -6 -9 -29 -20 -51 -25 -52 -25 -101 1 -160 20 -45 92
-127 134 -152 52 -30 107 -52 120 -46 9 3 26 -2 40 -11 27 -18 80 -21 90 -6 3
6 19 10 35 10 21 0 33 8 49 34 12 18 21 41 21 51 0 15 -5 16 -32 10 -74 -17
-193 -2 -208 25 -5 10 -22 20 -37 24 -53 11 -113 81 -113 131 0 68 34 99 135
124 22 6 54 11 70 11 81 3 83 4 98 42 14 34 14 38 -7 57 -14 14 -34 20 -63 19
-23 0 -43 -2 -45 -3z"/>
<path d="M9548 3026 c-67 -19 -114 -51 -148 -101 -29 -42 -40 -95 -20 -95 6 0
10 -9 10 -20 0 -10 10 -25 23 -31 12 -7 28 -20 35 -31 7 -10 19 -18 26 -18 7
0 21 -9 32 -21 13 -14 27 -19 46 -17 16 3 28 2 28 -1 0 -4 25 -12 55 -19 30
-7 72 -21 93 -32 20 -10 61 -29 90 -41 41 -18 57 -31 67 -57 19 -44 29 -126
19 -145 -21 -35 -75 -69 -121 -75 -69 -9 -174 -4 -203 10 -53 26 -97 81 -91
116 1 6 -3 12 -9 12 -5 0 -10 -5 -10 -11 0 -8 -5 -8 -15 1 -18 15 -23 5 -29
-63 -4 -45 -2 -50 41 -92 24 -25 51 -45 58 -45 8 0 29 -9 48 -20 45 -27 150
-34 228 -16 76 18 157 69 165 105 4 14 11 31 16 38 5 6 12 46 15 87 5 64 3 82
-17 123 -12 26 -32 58 -44 70 -33 33 -257 129 -283 121 -21 -7 -156 59 -171
83 -19 31 14 59 83 70 107 17 167 17 233 -3 34 -10 66 -17 71 -14 4 3 8 25 9
49 l2 43 -77 24 c-94 28 -192 34 -255 16z"/>
<path d="M11818 2716 c-22 -16 -24 -56 -3 -56 8 0 14 -5 13 -12 -2 -6 12 -15
30 -19 31 -6 35 -4 47 24 16 38 10 56 -22 68 -32 12 -44 11 -65 -5z"/>
<path d="M10335 2652 c-141 -51 -159 -61 -213 -120 -39 -42 -51 -63 -47 -78 3
-13 -2 -27 -10 -34 -22 -19 -19 -109 4 -137 11 -13 24 -23 30 -23 6 0 11 -4
11 -10 0 -16 41 -49 102 -80 32 -17 61 -30 65 -30 5 1 30 -4 57 -11 71 -17
166 -7 207 22 19 13 36 27 37 32 2 4 18 7 35 7 17 0 39 7 49 17 10 9 28 21 41
27 12 7 22 18 22 26 0 19 -119 18 -220 -2 -83 -16 -212 -12 -240 8 -19 14 -19
14 0 33 11 11 38 21 60 24 22 2 51 9 63 16 12 7 28 9 34 5 6 -4 16 -1 22 7 6
8 26 21 45 29 60 24 92 64 96 120 5 73 -12 118 -56 147 -56 37 -101 38 -194 5z
m136 -83 c19 -7 35 -13 37 -14 2 -1 -7 -19 -19 -39 -23 -40 -73 -68 -155 -87
-27 -6 -56 -15 -64 -20 -33 -20 -43 -22 -61 -11 -10 7 -26 12 -35 12 -42 0 80
114 135 126 14 3 44 15 66 25 47 22 51 23 96 8z"/>
<path d="M11055 2668 c-22 -5 -53 -10 -70 -11 -38 -2 -77 -29 -140 -94 -27
-28 -62 -56 -77 -62 -19 -7 -28 -18 -29 -33 -2 -81 1 -187 5 -208 6 -29 40
-60 66 -60 29 0 42 25 54 112 7 46 18 94 25 108 18 34 102 120 118 120 8 0 16
7 19 15 4 9 11 14 18 13 6 -2 46 6 89 17 67 16 77 22 77 41 0 36 -85 59 -155
42z"/>
<path d="M13015 2661 c-6 -4 -32 -14 -60 -20 -82 -20 -119 -51 -158 -133 -19
-40 -38 -84 -42 -98 -4 -14 -15 -40 -26 -58 -18 -32 -18 -33 2 -85 30 -75 78
-128 150 -166 52 -27 76 -34 136 -36 42 -1 82 3 96 10 13 6 35 15 50 19 15 3
27 11 27 16 0 5 13 16 29 24 15 8 34 30 41 48 7 18 20 41 29 51 13 16 13 20 1
27 -22 14 -72 -1 -112 -33 -21 -17 -38 -34 -38 -39 0 -5 -6 -6 -12 -1 -7 4
-48 8 -91 9 -66 2 -84 6 -118 28 -44 30 -44 41 1 51 17 4 30 13 30 21 0 9 4
12 10 9 14 -9 86 13 105 31 8 9 22 13 30 10 8 -3 15 -1 15 5 0 6 9 8 20 4 13
-4 25 1 37 16 10 12 29 32 43 45 14 13 27 35 28 50 1 15 6 32 12 39 5 6 7 14
4 18 -3 3 -1 14 5 26 19 34 -4 66 -70 95 -59 26 -154 36 -174 17z m128 -138
c-29 -44 -69 -78 -87 -75 -10 2 -39 -7 -65 -21 -25 -14 -59 -27 -76 -29 -25
-2 -29 0 -27 16 5 27 43 81 75 106 19 15 41 21 77 22 28 0 63 3 78 8 38 10 45
3 25 -27z"/>
<path d="M12465 2624 c-33 -7 -75 -13 -92 -13 -70 -2 -123 -24 -166 -71 -23
-25 -50 -57 -60 -72 -34 -55 -18 -161 34 -218 16 -17 29 -35 29 -40 0 -13 110
-83 135 -85 12 -2 37 -11 55 -20 62 -32 210 -2 210 42 0 8 11 24 25 35 33 26
33 54 -2 61 -15 3 -32 -1 -40 -8 -7 -7 -29 -19 -49 -25 -46 -16 -180 4 -189
27 -3 8 -12 13 -20 9 -8 -3 -15 0 -15 7 0 7 -13 21 -29 31 -28 19 -51 65 -51
103 0 35 83 98 150 114 112 25 135 35 154 68 18 32 18 33 0 51 -17 16 -24 16
-79 4z"/>
<path d="M11275 2610 c-3 -5 -3 -15 0 -21 4 -6 -2 -13 -14 -16 -12 -3 -21 -8
-21 -12 0 -24 40 -114 56 -126 14 -10 16 -17 8 -25 -14 -14 9 -120 26 -120 4
0 11 -15 14 -32 11 -54 50 -88 117 -102 21 -5 33 2 63 35 20 22 39 52 42 65 3
13 9 24 13 24 4 0 22 38 40 84 18 46 41 93 52 105 24 26 24 63 0 85 -17 16
-24 16 -56 4 -48 -17 -71 -47 -92 -117 -15 -54 -52 -123 -71 -135 -15 -9 -38
25 -58 89 -10 33 -19 67 -20 75 -1 8 -9 40 -19 70 -9 30 -19 61 -21 68 -4 14
-50 16 -59 2z"/>
<path d="M11833 2503 c-13 -32 -14 -47 -3 -103 7 -36 11 -69 10 -75 -1 -5 -2
-45 -1 -87 l1 -76 38 -14 c20 -7 41 -13 45 -13 15 0 33 68 30 110 -2 22 -3 56
-4 75 0 38 -20 190 -24 190 -1 0 -19 7 -39 15 l-37 16 -16 -38z"/>
<path d="M13943 2694 c-12 -3 -27 -12 -33 -20 -7 -8 -18 -14 -24 -14 -6 0 -26
-14 -44 -31 -24 -23 -30 -34 -23 -47 5 -9 12 -94 16 -188 6 -154 5 -175 -10
-198 -18 -26 -17 -27 21 -62 37 -32 42 -34 89 -28 57 7 53 7 155 -4 41 -5 79
-5 85 0 13 12 43 10 68 -4 31 -17 93 -19 154 -6 l52 11 -5 76 c-3 42 -9 90
-14 106 -5 17 -9 103 -9 193 1 134 -2 167 -15 187 -14 22 -20 24 -38 14 -25
-14 -197 -11 -208 3 -7 8 -187 18 -217 12z m167 -124 c0 -5 -4 -10 -10 -10 -5
0 -10 -14 -10 -30 0 -21 12 -44 38 -73 21 -23 50 -59 66 -80 15 -21 36 -41 45
-44 9 -4 28 -15 43 -25 29 -20 48 -23 48 -8 0 5 -25 35 -55 67 -30 32 -55 64
-55 71 0 7 -7 15 -16 19 -8 3 -13 12 -10 19 3 8 0 14 -7 14 -19 1 -60 72 -46
80 13 9 80 3 121 -10 17 -5 30 -5 33 1 15 23 23 -8 29 -111 4 -60 13 -132 20
-160 22 -86 19 -95 -39 -96 -27 -1 -54 2 -60 6 -5 4 -72 8 -148 8 -76 1 -147
4 -158 7 -17 6 -19 16 -18 88 1 45 0 87 -1 92 -1 6 -2 35 -1 65 2 44 4 50 11
32 13 -31 74 -95 123 -129 23 -15 47 -33 52 -39 6 -5 22 -15 37 -22 24 -10 29
-9 38 8 15 27 14 28 -29 41 -29 8 -41 19 -46 36 -3 14 -38 56 -76 94 -39 39
-68 73 -64 77 4 4 34 10 68 13 34 3 65 7 70 7 4 1 7 -2 7 -8z"/>
<path d="M14244 1983 c-37 -54 -41 -67 -31 -90 6 -13 18 -25 28 -28 9 -3 24
-16 33 -29 16 -26 54 -31 97 -15 22 9 28 19 33 59 7 51 0 96 -17 118 -5 7 -33
12 -67 12 -52 0 -60 -3 -76 -27z"/>
<path d="M4930 2514 c-24 -27 -30 -44 -30 -79 0 -24 5 -47 10 -50 6 -3 10 -18
10 -33 0 -15 6 -39 14 -54 8 -14 10 -30 6 -35 -5 -4 -11 -57 -14 -117 -5 -103
-4 -111 17 -132 31 -34 60 -31 74 7 l12 31 88 -6 c48 -4 147 -11 218 -16 72
-6 146 -11 165 -13 53 -3 64 28 45 129 -8 44 -19 130 -24 192 -11 123 -30 172
-66 172 -11 0 -26 -4 -34 -9 -7 -5 -29 -4 -50 1 -65 16 -174 30 -276 34 -55 2
-108 6 -117 8 -11 2 -29 -9 -48 -30z m182 -103 c15 -3 58 -36 96 -73 42 -42
78 -68 91 -68 12 0 24 -7 27 -15 4 -8 15 -15 25 -15 10 0 19 7 19 15 0 8 -4
15 -9 15 -15 0 -111 95 -111 110 0 9 10 11 38 6 20 -3 54 -6 75 -6 27 0 39 -5
43 -17 3 -10 12 -30 20 -46 9 -15 14 -35 13 -45 -2 -16 5 -61 17 -104 4 -13 0
-18 -15 -18 -11 0 -22 -4 -25 -9 -10 -15 -149 4 -178 23 -9 7 -38 39 -63 71
-54 70 -68 80 -95 65 -30 -16 -25 -29 28 -78 43 -41 45 -45 27 -53 -26 -10
-77 -11 -91 -1 -15 10 -30 125 -26 195 4 57 4 57 35 56 18 -1 44 -4 59 -8z"/>
<path d="M5058 1893 c-51 -15 -82 -46 -97 -99 -12 -44 -5 -69 25 -84 13 -8 24
-19 24 -26 0 -15 23 -24 61 -24 43 0 104 64 113 119 5 34 2 50 -13 75 -29 47
-56 56 -113 39z"/>
<path d="M19185 3785 c-35 -15 -84 -80 -109 -145 -15 -37 -16 -59 -10 -120 4
-41 7 -95 6 -120 -3 -55 11 -74 66 -93 36 -13 49 -13 86 -2 97 29 184 93 186
136 0 8 4 19 10 25 5 5 10 43 11 85 2 112 -26 162 -130 226 -41 25 -72 27
-116 8z m151 -136 c42 -83 -9 -203 -109 -253 -56 -27 -62 -16 -62 112 0 97 2
110 24 141 33 46 77 64 108 43 13 -8 31 -28 39 -43z"/>
<path d="M18898 3772 c-10 -2 -18 -12 -18 -23 0 -10 -5 -19 -11 -19 -12 0 -9
-37 11 -165 6 -38 10 -87 10 -109 -1 -21 6 -49 15 -62 9 -14 15 -34 14 -47 -4
-44 1 -57 29 -71 48 -25 81 19 58 76 -13 29 -22 82 -32 173 -2 17 -7 59 -11
95 -5 36 -8 80 -7 98 1 17 -2 32 -6 32 -5 0 -15 6 -22 13 -7 7 -21 11 -30 9z"/>
<path d="M15580 3708 c-45 -31 -69 -66 -74 -108 -3 -19 -6 -35 -7 -35 -3 0
-11 -124 -11 -175 0 -60 32 -152 57 -165 11 -6 32 -19 47 -29 22 -15 40 -17
90 -13 57 6 64 9 100 49 61 67 68 87 65 178 -1 53 -6 83 -15 89 -7 4 -10 14
-7 22 3 8 -4 32 -15 54 -11 21 -20 45 -20 53 0 7 -19 33 -42 57 -39 40 -48 45
-89 45 -31 0 -57 -7 -79 -22z m139 -144 c40 -66 61 -146 49 -191 -16 -61 -117
-125 -143 -89 -18 23 -28 108 -27 205 2 72 6 88 24 108 35 37 59 29 97 -33z"/>
<path d="M20106 3723 c-11 -3 -37 -16 -57 -29 -29 -18 -40 -33 -45 -60 -8 -42
1 -62 40 -84 24 -14 116 -126 116 -142 0 -11 -47 -21 -64 -15 -20 8 -61 -26
-52 -42 10 -15 73 -41 101 -41 12 0 33 10 47 23 19 18 25 34 26 74 2 34 -2 54
-13 63 -8 7 -15 19 -15 26 0 8 -11 24 -25 36 -29 25 -60 81 -48 85 4 2 23 12
41 23 44 27 51 49 23 72 -23 18 -38 20 -75 11z"/>
<path d="M18578 3709 c-28 -16 -32 -65 -8 -96 12 -16 17 -29 11 -31 -6 -2 -11
-10 -11 -18 0 -9 -4 -13 -9 -9 -6 3 -25 -4 -43 -15 -18 -11 -26 -20 -18 -20
10 0 8 -6 -8 -18 -21 -17 -22 -20 -7 -32 8 -7 39 -18 68 -25 l52 -11 -3 -64
c-2 -35 -5 -67 -8 -72 -8 -13 27 -65 54 -79 22 -12 26 -11 48 14 17 20 22 35
18 56 -4 16 -7 62 -8 103 l-1 73 48 -3 c40 -3 51 0 68 19 19 22 19 23 -3 46
-12 13 -28 23 -35 23 -8 0 -37 10 -64 21 -40 17 -49 26 -49 46 0 55 -57 111
-92 92z"/>
<path d="M15318 3678 c-17 -15 -41 -100 -30 -108 13 -9 27 -103 21 -140 -3
-19 -2 -42 3 -51 9 -19 9 -52 4 -176 -3 -80 -1 -94 16 -112 20 -23 35 -26 57
-12 20 13 17 401 -2 441 -9 16 -10 31 -4 41 10 16 -22 121 -38 126 -6 2 -18
-2 -27 -9z"/>
<path d="M19740 3649 c-11 -7 -12 -12 -3 -15 8 -4 5 -12 -8 -25 -15 -15 -19
-28 -15 -45 8 -32 2 -31 -53 15 -26 22 -55 38 -68 37 -37 -3 -104 -38 -99 -52
3 -7 0 -14 -6 -16 -12 -4 -21 -125 -9 -132 4 -3 6 -21 5 -40 -3 -31 1 -38 26
-51 66 -34 87 -9 84 98 -1 60 2 80 13 84 16 6 42 -24 43 -49 0 -9 6 -21 13
-25 8 -4 16 -16 20 -25 17 -47 80 -3 91 63 10 62 35 50 60 -31 10 -30 24 -70
32 -87 8 -18 13 -34 12 -36 -7 -9 25 -35 48 -40 42 -8 53 41 24 108 -17 41
-24 60 -25 75 -3 24 -32 79 -73 140 -29 44 -43 56 -67 58 -16 1 -37 -3 -45 -9z"/>
<path d="M15061 3608 c-16 -26 -25 -104 -15 -128 26 -57 7 -74 -72 -63 -38 5
-42 3 -56 -25 -15 -29 -15 -31 13 -51 15 -12 42 -21 59 -21 44 0 72 -17 65
-39 -12 -38 -13 -125 -2 -135 18 -17 74 -19 83 -4 5 7 13 42 19 78 l11 65 47
5 c25 3 49 9 52 12 3 3 2 20 -2 38 -7 25 -17 35 -47 45 -47 16 -56 29 -56 76
0 43 -27 127 -48 152 -20 23 -34 22 -51 -5z"/>
<path d="M1015 3567 c-16 -8 -55 -20 -85 -27 -100 -23 -244 -112 -314 -193
-75 -88 -106 -193 -123 -413 -4 -54 -2 -78 12 -103 9 -18 14 -40 11 -48 -4 -9
-2 -21 3 -27 5 -6 12 -31 16 -56 4 -24 11 -52 16 -62 5 -9 9 -26 9 -38 0 -12
13 -33 28 -48 15 -15 34 -40 42 -55 8 -16 22 -33 32 -38 9 -5 41 -32 70 -60
29 -28 62 -55 73 -61 11 -5 36 -18 55 -28 19 -11 44 -19 55 -20 11 0 37 -9 58
-20 57 -31 121 -42 222 -41 89 1 90 2 186 56 74 42 106 67 133 104 20 27 36
52 36 56 0 4 8 19 19 33 39 57 68 221 76 430 8 223 -9 276 -145 455 -19 25
-39 46 -45 47 -5 0 -24 15 -42 33 -44 45 -131 96 -193 112 -83 22 -171 27
-205 12z m155 -143 c108 -25 161 -56 253 -150 75 -75 87 -93 102 -146 16 -58
22 -234 10 -313 -3 -16 -9 -70 -15 -118 -15 -125 -49 -190 -129 -245 -34 -23
-65 -42 -70 -42 -5 0 -14 -7 -21 -15 -20 -24 -81 -35 -194 -36 -115 0 -211 21
-234 53 -7 10 -19 18 -27 18 -18 0 -106 93 -147 155 -29 43 -61 134 -52 144 2
2 32 -10 67 -28 58 -29 91 -38 223 -57 40 -6 153 20 212 48 17 9 35 8 78 -6
43 -14 58 -15 70 -5 27 23 13 94 -20 103 -21 5 -155 156 -147 165 8 10 -25 18
-42 10 -30 -17 -37 -50 -16 -81 48 -67 14 -90 -137 -90 -85 0 -110 4 -165 27
-79 32 -162 75 -171 88 -8 12 -3 110 7 152 23 93 59 175 94 211 27 29 129 106
164 123 15 8 27 18 27 22 0 4 15 6 33 3 17 -3 55 2 82 9 67 19 89 19 165 1z"/>
<path d="M892 3303 c-19 -7 -58 -73 -65 -109 -8 -40 6 -57 64 -78 55 -21 111
-11 115 19 19 132 18 135 -44 161 -36 15 -48 16 -70 7z"/>
<path d="M16597 3570 c-27 -5 -56 -15 -65 -23 -10 -8 -28 -18 -42 -22 -50 -15
-88 -45 -92 -73 -3 -23 2 -33 29 -53 18 -13 48 -37 66 -52 17 -16 51 -43 74
-60 23 -18 43 -35 43 -40 0 -14 -51 -27 -109 -27 -36 0 -64 -6 -77 -15 -18
-15 -18 -16 -1 -28 10 -7 28 -20 39 -29 17 -15 35 -17 100 -13 43 2 83 7 88
10 26 16 52 105 30 105 -5 0 -10 9 -10 21 0 22 -53 76 -112 115 -21 13 -38 28
-38 32 0 16 56 48 113 66 31 10 57 22 57 26 0 5 3 15 6 23 6 16 -21 48 -39 46
-7 -1 -34 -5 -60 -9z"/>
<path d="M16156 3465 c-14 -13 -26 -31 -26 -39 0 -8 -8 -20 -18 -25 -15 -8
-26 -3 -56 28 -36 37 -38 38 -80 27 -73 -19 -74 -21 -72 -158 2 -109 4 -122
23 -138 26 -21 80 -15 85 9 2 9 1 34 -3 56 -9 51 0 105 17 105 8 0 14 -6 14
-14 0 -26 48 -66 80 -66 27 0 34 6 50 43 11 23 20 50 20 60 0 20 23 23 38 5 9
-12 15 -40 29 -133 7 -49 19 -65 48 -65 57 0 63 14 44 97 -22 97 -64 182 -95
193 -14 6 -32 17 -40 25 -21 20 -27 19 -58 -10z"/>
<path d="M17545 2869 c-38 -5 -113 -10 -165 -12 -73 -3 -104 -9 -135 -25 -22
-12 -44 -22 -49 -22 -13 0 -150 -95 -199 -139 -62 -54 -130 -124 -152 -156
-11 -16 -34 -45 -51 -65 -59 -67 -87 -128 -86 -184 3 -192 6 -252 12 -261 4
-5 10 -27 13 -48 3 -20 14 -50 25 -65 10 -15 27 -48 37 -74 10 -26 24 -53 31
-59 8 -6 14 -17 14 -25 0 -16 58 -84 72 -84 5 0 16 -7 24 -15 9 -8 27 -17 42
-21 15 -3 35 -9 44 -15 10 -5 31 -9 47 -9 16 0 58 -13 93 -28 93 -42 213 -69
231 -53 9 7 54 13 109 15 51 2 145 12 208 21 94 14 132 26 206 62 50 24 99 52
109 63 10 11 23 20 28 20 18 0 97 71 114 103 45 85 63 161 62 252 -1 50 -8
110 -15 135 -8 25 -14 56 -14 70 0 14 -7 38 -15 54 -8 15 -15 36 -15 45 0 9
-8 30 -18 46 -10 17 -24 46 -32 65 -45 113 -235 320 -294 320 -6 0 -17 9 -24
20 -7 11 -17 20 -23 20 -6 0 -34 11 -62 23 -70 32 -91 35 -172 26z m83 -140
c82 -9 108 -16 127 -33 12 -12 44 -32 69 -45 26 -12 54 -34 62 -47 9 -13 21
-24 28 -24 6 0 23 -26 38 -58 16 -31 32 -64 37 -72 53 -86 65 -112 102 -228
18 -56 32 -171 30 -242 -1 -14 -9 -36 -19 -50 -10 -14 -22 -37 -25 -51 -11
-44 -139 -148 -217 -176 -100 -36 -377 -83 -488 -83 -79 1 -124 13 -153 42
-20 20 -39 26 -96 31 -129 12 -161 38 -233 186 -92 189 -104 339 -37 435 50
72 132 166 148 171 10 3 28 21 39 40 12 19 36 45 53 57 17 13 39 30 48 38 36
33 64 50 81 50 10 0 18 4 18 9 0 5 23 20 52 33 63 28 183 34 336 17z"/>
<path d="M19137 2850 c-37 -5 -73 -13 -80 -18 -7 -5 -27 -13 -44 -17 -18 -3
-33 -11 -33 -16 0 -5 -7 -9 -16 -9 -34 0 -294 -250 -294 -282 0 -10 -4 -18
-10 -18 -5 0 -10 -6 -10 -14 0 -8 -6 -16 -12 -19 -32 -12 -52 -213 -34 -347 8
-59 43 -179 57 -195 5 -5 9 -15 9 -22 0 -46 136 -207 208 -246 77 -41 189 -72
218 -58 13 6 24 17 24 25 0 11 6 9 24 -7 13 -12 45 -28 72 -35 27 -7 62 -17
77 -22 15 -5 83 -7 150 -5 67 2 133 4 147 4 14 1 63 13 110 27 47 14 99 30
117 35 17 6 42 20 55 33 12 13 35 31 51 41 15 9 27 22 27 29 0 6 11 27 24 46
12 19 29 53 36 75 7 22 16 45 20 50 8 12 28 84 36 135 18 104 3 273 -31 340
-7 14 -19 39 -26 55 -34 76 -203 248 -283 288 -31 16 -56 33 -56 38 0 5 -11 9
-23 9 -13 0 -32 9 -42 20 -10 11 -30 20 -45 20 -14 0 -30 4 -36 10 -5 5 -39
19 -74 31 -74 24 -208 32 -313 19z m248 -157 c109 -24 235 -64 285 -89 70 -34
189 -158 240 -248 52 -93 72 -263 40 -341 -6 -16 -14 -46 -17 -65 -6 -41 -44
-126 -70 -155 -53 -59 -165 -105 -333 -136 -123 -23 -265 -15 -364 20 -49 17
-56 17 -56 4 0 -11 -6 -14 -22 -8 -13 3 -34 8 -48 9 -93 11 -230 150 -288 293
-40 97 -59 278 -37 358 11 40 73 130 129 185 25 25 45 50 46 56 0 7 10 14 23
18 12 3 36 18 53 34 95 87 230 108 419 65z"/>
<path d="M2032 2828 c-42 -42 19 -77 153 -85 55 -4 104 -13 125 -23 33 -16
109 -27 240 -35 77 -4 146 -12 207 -24 31 -6 72 -7 105 -2 31 5 60 5 71 0 9
-6 61 -10 115 -9 53 0 108 0 122 0 412 -4 993 4 1064 14 16 3 35 11 42 18 12
12 -29 14 -259 12 -149 0 -282 -4 -294 -8 -12 -4 -24 -2 -28 4 -8 13 -59 13
-103 1 -24 -7 -32 -6 -32 3 0 10 -37 13 -167 11 -106 -1 -181 3 -203 10 -22 8
-46 9 -65 3 -17 -4 -42 -4 -57 1 -15 5 -42 6 -64 1 -24 -6 -71 -3 -133 6 -53
8 -141 14 -196 13 -55 -1 -111 3 -125 8 -14 6 -54 14 -90 18 -36 3 -90 13
-120 20 -30 7 -82 16 -115 20 -33 4 -72 13 -87 21 -33 17 -90 18 -106 2z"/>
<path d="M15658 2835 c-2 -1 -32 -5 -68 -8 -175 -14 -251 -49 -372 -168 -49
-47 -88 -90 -88 -95 0 -5 -12 -14 -27 -20 -32 -12 -63 -68 -78 -139 -3 -16
-13 -61 -21 -100 -23 -108 -32 -223 -22 -264 5 -20 13 -56 19 -81 16 -81 42
-171 50 -176 5 -3 17 -24 27 -47 24 -54 72 -110 120 -138 20 -12 46 -30 57
-40 11 -9 74 -31 140 -48 66 -18 136 -36 156 -41 20 -5 74 -12 120 -15 46 -3
118 -8 160 -11 68 -4 79 -2 111 19 19 13 51 27 72 31 20 4 42 16 49 27 6 11
32 32 56 46 60 35 161 111 189 141 56 63 103 200 118 349 10 101 -30 343 -57
343 -5 0 -9 13 -9 28 0 16 -7 37 -15 48 -8 10 -15 27 -15 36 0 9 -15 36 -34
60 -18 25 -35 49 -37 55 -7 19 -94 88 -139 110 -102 50 -126 57 -205 59 -44 1
-119 11 -167 21 -48 11 -89 19 -90 18z m-3 -125 c3 -5 22 -10 40 -10 19 0 54
-6 77 -14 58 -19 130 -27 147 -17 8 5 32 2 60 -9 25 -10 70 -26 100 -35 56
-17 88 -46 129 -118 55 -95 74 -139 81 -189 4 -30 10 -59 14 -65 7 -12 9 -219
3 -263 -10 -64 -75 -200 -97 -200 -5 0 -33 -22 -62 -50 -28 -27 -55 -50 -59
-50 -10 0 -102 -63 -106 -73 -2 -4 -20 -15 -40 -24 -55 -24 -334 -31 -376 -10
-39 19 -136 47 -168 47 -20 0 -65 23 -143 73 -56 35 -98 118 -131 253 -32 133
-34 209 -9 329 3 11 9 39 14 63 6 29 25 62 62 105 30 34 58 64 64 66 5 2 26
20 45 39 43 43 147 111 180 118 14 2 39 9 56 14 17 6 45 10 62 10 18 0 32 5
32 10 0 6 4 10 9 10 6 0 13 -4 16 -10z"/>
<path d="M21260 2819 c-161 -14 -293 -46 -400 -96 -85 -39 -104 -53 -183 -136
-103 -108 -153 -200 -168 -305 -5 -37 -14 -80 -19 -96 -13 -37 -13 -139 0
-152 5 -5 11 -35 14 -66 3 -31 9 -66 15 -76 6 -11 8 -22 5 -24 -3 -3 9 -33 26
-66 16 -32 30 -65 30 -71 0 -16 71 -92 80 -86 5 3 19 -9 32 -26 55 -73 86 -97
164 -127 73 -28 91 -31 214 -33 74 -1 158 -3 185 -3 160 -3 203 1 256 23 30
13 61 29 69 35 8 7 55 25 104 42 65 21 91 35 99 51 5 13 19 25 29 29 16 5 66
69 65 84 0 3 5 15 11 27 22 40 54 233 46 277 -4 23 -6 68 -6 101 2 78 -21 221
-52 317 -26 82 -103 216 -141 246 -12 9 -27 27 -34 40 -6 12 -18 22 -27 22 -8
0 -17 7 -20 15 -4 8 -12 15 -19 15 -7 0 -24 9 -37 20 -32 24 -183 33 -338 19z
m340 -177 c58 -33 112 -90 127 -133 6 -19 24 -67 38 -108 38 -107 64 -355 52
-506 -6 -67 -31 -117 -89 -176 -32 -32 -64 -59 -70 -59 -22 0 -183 -54 -190
-65 -8 -11 -548 -18 -548 -7 0 4 9 13 20 20 42 26 8 72 -54 72 -25 0 -66 12
-103 30 -53 25 -69 38 -102 90 -39 60 -50 96 -70 225 -10 67 -4 216 9 233 3 3
5 11 14 59 4 24 13 46 20 50 7 5 21 24 32 43 27 49 152 169 183 176 42 8 106
28 111 34 24 26 52 29 380 46 58 3 106 7 108 9 10 10 94 -11 132 -33z"/>
<path d="M20796 2468 c-9 -5 -13 -15 -10 -23 4 -8 2 -15 -2 -15 -8 0 -9 -23
-4 -175 1 -27 -3 -67 -8 -88 -9 -33 -7 -39 10 -52 21 -14 72 -11 93 5 6 5 31
11 57 15 45 7 50 5 78 -25 18 -19 30 -43 30 -59 0 -33 -46 -81 -77 -81 -12 0
-25 -5 -28 -10 -4 -6 -11 -7 -17 -4 -6 4 -42 8 -80 10 -61 2 -69 0 -79 -19
-10 -18 -8 -24 15 -44 27 -23 85 -43 127 -43 54 -1 127 17 145 35 48 49 67 76
69 97 4 37 4 38 19 38 8 0 16 -6 19 -14 7 -18 83 -52 132 -60 37 -5 42 -3 82
40 23 25 47 62 54 81 14 44 4 174 -16 214 -31 59 -125 100 -150 65 -7 -9 -18
-16 -25 -16 -11 0 -36 -24 -69 -66 -5 -6 -19 -30 -30 -52 -28 -54 -38 -59 -69
-29 -32 29 -81 47 -129 47 -60 0 -68 10 -65 77 l4 58 93 -1 c51 -1 98 -4 104
-8 5 -4 17 4 26 17 17 26 9 67 -16 83 -17 10 -265 12 -283 2z m544 -247 c21
-87 0 -156 -52 -174 -45 -16 -84 94 -54 152 17 32 61 71 81 71 7 0 18 -22 25
-49z"/>
<path d="M21522 2442 c-43 -4 -70 -42 -54 -77 7 -14 15 -25 19 -26 5 0 32 -2
61 -2 40 -2 57 -7 68 -22 13 -17 12 -20 -8 -32 -13 -7 -47 -20 -75 -29 -37
-11 -53 -21 -53 -33 0 -9 -5 -22 -11 -28 -7 -7 6 -18 43 -36 29 -14 60 -28 69
-30 20 -6 65 -67 50 -67 -6 0 -18 -8 -28 -19 -18 -19 -92 -41 -137 -41 -14 0
-37 -10 -51 -23 -26 -21 -26 -23 -8 -38 10 -9 48 -21 85 -28 64 -12 69 -12
121 13 69 32 107 76 107 121 0 19 -5 37 -10 40 -6 4 -10 14 -8 24 2 9 -6 30
-16 46 -19 28 -19 29 3 71 18 32 21 50 15 80 -14 79 -101 144 -182 136z"/>
<path d="M1956 2537 c-12 -9 -16 -21 -12 -40 7 -41 14 -47 52 -47 19 0 49 -6
67 -13 18 -8 38 -12 45 -9 7 2 21 -3 32 -13 10 -9 46 -26 81 -38 35 -13 70
-26 76 -30 24 -15 128 -48 196 -62 38 -8 84 -24 103 -35 19 -12 67 -30 107
-40 39 -9 99 -29 132 -42 103 -43 198 -76 240 -83 22 -4 43 -12 47 -18 3 -5
14 -11 25 -12 10 -1 34 -11 53 -23 41 -26 59 -27 86 -7 19 14 19 14 -3 15 -12
0 -34 6 -50 14 -15 8 -51 26 -79 40 -29 14 -57 26 -63 26 -7 0 -36 11 -65 24
-30 14 -71 28 -92 32 -22 4 -55 17 -74 30 -19 12 -63 30 -97 38 -33 9 -87 30
-118 46 -31 17 -65 30 -74 30 -9 0 -21 4 -27 8 -5 4 -27 14 -49 21 -62 20 -95
35 -95 43 0 5 -18 8 -40 8 -27 0 -43 5 -46 15 -4 8 -14 15 -24 15 -11 0 -21 4
-25 9 -3 5 -20 13 -37 17 -18 3 -37 13 -43 21 -10 13 -172 73 -199 73 -7 0
-20 -6 -30 -13z"/>
<path d="M3340 2001 c0 -15 42 -41 67 -41 12 0 26 -6 30 -14 10 -18 63 -33 63
-18 0 14 -63 52 -87 52 -12 0 -26 7 -33 15 -14 17 -40 20 -40 6z"/>
<path d="M3530 1923 c1 -16 70 -51 89 -46 13 3 23 0 27 -11 6 -14 60 -36 93
-36 11 0 11 3 1 15 -7 8 -21 15 -32 15 -11 0 -31 9 -45 20 -14 11 -33 20 -42
20 -10 0 -26 7 -37 15 -20 15 -54 20 -54 8z"/>
<path d="M17185 1108 c-42 -15 -59 -32 -85 -86 -48 -100 -51 -115 -39 -173 7
-33 8 -54 1 -61 -10 -10 -21 32 -28 104 -6 60 -34 171 -50 195 -16 26 -52 30
-60 8 -10 -25 -8 -55 10 -160 10 -55 19 -128 22 -163 2 -35 8 -79 13 -99 6
-20 8 -39 6 -43 -3 -4 4 -15 14 -24 16 -15 23 -16 43 -5 34 18 36 25 32 93 -3
50 -2 56 6 30 9 -28 71 -82 112 -97 17 -6 73 16 83 33 3 5 19 11 35 15 35 8
90 51 90 70 0 8 6 18 13 22 38 24 42 164 7 232 -24 47 -66 86 -112 105 -42 18
-70 19 -113 4z m134 -115 c12 -16 25 -33 31 -40 6 -8 6 -14 0 -18 -6 -3 -10
-28 -10 -55 0 -41 -5 -53 -31 -79 -25 -25 -39 -31 -75 -31 -39 0 -46 3 -55 28
-15 37 -12 128 6 162 33 64 99 79 134 33z"/>
<path d="M16660 1025 c-5 -14 -11 -47 -12 -73 -3 -44 -5 -47 -43 -60 -77 -27
-114 -45 -110 -53 3 -4 1 -10 -5 -14 -18 -11 -11 -25 23 -45 31 -20 52 -21
123 -4 28 7 44 -37 38 -105 -4 -48 -3 -51 25 -66 17 -8 40 -15 51 -15 21 0 21
4 18 105 -2 71 1 106 8 109 6 2 31 0 54 -5 41 -9 59 -3 60 22 0 12 -60 66 -95
85 -21 11 -38 29 -42 44 -3 14 -8 30 -12 35 -3 6 -6 15 -6 20 -4 49 -59 63
-75 20z"/>
<path d="M18007 996 c-52 -8 -75 -18 -102 -42 -39 -35 -46 -73 -16 -81 11 -3
21 -13 24 -24 3 -10 13 -21 24 -24 10 -4 31 -13 46 -21 16 -7 35 -14 43 -14 8
0 25 -7 38 -15 21 -14 22 -19 12 -50 -9 -30 -17 -36 -51 -43 -24 -5 -47 -4
-56 1 -12 7 -24 5 -42 -9 -15 -10 -27 -22 -27 -25 0 -3 13 -18 29 -33 23 -22
41 -29 87 -33 57 -5 60 -4 87 27 78 87 62 182 -40 235 -36 19 -62 42 -63 57 0
4 24 5 53 4 61 -3 86 12 79 50 -4 22 -38 56 -52 53 -3 -1 -35 -7 -73 -13z"/>
<path d="M17556 953 c-51 -27 -74 -63 -76 -118 -1 -27 -2 -63 -3 -79 -2 -22 6
-35 35 -58 54 -45 68 -34 68 50 0 71 5 88 24 73 18 -13 56 -20 62 -10 8 13 48
11 62 -3 7 -7 12 -25 12 -41 0 -35 53 -87 89 -87 22 0 23 2 17 46 -8 62 -32
110 -81 161 -37 38 -46 43 -88 43 -25 0 -49 4 -52 10 -14 23 -40 28 -69 13z"/>
</g>
</svg>
