<?xml version="1.0" standalone="no"?>
<!DOCTYPE svg PUBLIC "-//W3C//DTD SVG 20010904//EN"
 "http://www.w3.org/TR/2001/REC-SVG-20010904/DTD/svg10.dtd">
<svg version="1.0" xmlns="http://www.w3.org/2000/svg"
 width="689.402004pt" height="400.000000pt" viewBox="0 0 689.402004 400.000000"
 preserveAspectRatio="xMidYMid meet">
<metadata>
Created by potrace 1.15, written by Peter Selinger 2001-2017
</metadata>
<g transform="translate(-10.865124,407.115324) scale(0.031440,-0.031440)"
fill="#444444" stroke="none">
<path d="M5441 12937 c-6 -8 -14 -29 -17 -48 -14 -82 -37 -177 -51 -207 -8
-18 -21 -58 -29 -90 -8 -31 -35 -99 -60 -150 l-47 -94 22 -21 c24 -24 47 -17
67 21 6 12 18 30 27 40 10 10 17 26 17 35 0 9 4 18 9 21 11 7 71 189 71 215 0
10 8 47 18 82 44 150 45 160 21 185 -26 28 -32 29 -48 11z"/>
<path d="M5551 12928 c-8 -22 14 -176 38 -266 6 -21 14 -77 17 -126 6 -72 11
-94 30 -115 30 -34 41 -22 59 63 15 73 50 125 97 146 45 20 87 -18 112 -103
12 -44 34 -64 60 -54 14 5 16 14 10 44 -20 111 -110 201 -186 186 -42 -8 -90
-31 -105 -52 -6 -9 -14 -13 -17 -10 -6 6 -21 77 -45 213 -15 82 -52 121 -70
74z"/>
<path d="M7085 12840 c-3 -5 -16 -10 -27 -10 -13 0 -46 -25 -85 -66 -54 -58
-63 -72 -63 -104 0 -80 59 -156 155 -200 90 -41 168 -36 229 13 25 20 27 26
17 44 -10 20 -14 20 -58 9 -66 -17 -149 -10 -185 15 -16 12 -28 25 -26 30 2 5
41 29 88 52 82 41 85 43 88 79 3 37 -18 97 -46 131 -16 18 -77 24 -87 7z m63
-94 c2 -9 -2 -23 -8 -31 -13 -16 -118 -57 -133 -52 -15 5 42 66 82 87 41 22
55 21 59 -4z"/>
<path d="M6412 12778 c-7 -7 -27 -13 -45 -13 -27 0 -33 -4 -38 -30 -3 -16 0
-46 7 -65 6 -19 16 -66 22 -103 10 -64 33 -117 51 -117 4 0 14 11 21 25 10 20
11 41 1 112 -7 49 -10 95 -6 103 9 26 43 42 64 31 17 -9 72 -109 85 -153 6
-20 45 -25 47 -5 1 6 2 39 3 72 1 55 3 60 28 69 41 14 94 -13 103 -53 4 -17
11 -33 16 -36 5 -4 9 -26 9 -50 0 -47 22 -71 54 -59 20 8 22 88 4 131 -17 40
-80 108 -117 127 -55 29 -141 11 -141 -30 0 -24 -21 -16 -57 21 -36 37 -87 47
-111 23z"/>
<path d="M6061 12743 c-31 -6 -68 -50 -75 -89 -9 -44 8 -82 57 -130 46 -44 91
-64 143 -64 47 0 61 8 85 46 53 87 -31 228 -142 238 -24 2 -55 2 -68 -1z m142
-101 c20 -18 23 -75 5 -89 -7 -6 -25 -13 -41 -17 -22 -5 -33 0 -62 28 -42 43
-45 76 -9 105 25 19 28 20 58 5 17 -9 39 -23 49 -32z"/>
<path d="M15702 12668 c-20 -20 -13 -53 17 -82 36 -35 38 -94 3 -126 -20 -19
-39 -49 -81 -129 -7 -14 -29 -49 -47 -78 -19 -28 -43 -72 -53 -96 -23 -52 -40
-67 -47 -40 -4 15 -21 22 -75 31 -96 17 -149 34 -149 50 0 8 19 30 42 51 89
78 88 77 88 129 0 50 -20 82 -51 82 -22 0 -80 -23 -120 -46 -36 -21 -59 -71
-59 -126 0 -14 -7 -31 -15 -38 -20 -16 -20 -60 0 -60 9 0 20 -10 26 -23 21
-47 141 -90 280 -101 20 -2 47 -10 59 -19 46 -32 72 0 182 225 43 86 59 109
81 117 16 6 31 20 34 31 3 11 7 20 9 20 13 0 78 -70 105 -112 l31 -48 -38 -48
c-20 -26 -54 -65 -75 -87 -44 -48 -54 -75 -36 -99 10 -13 21 -17 38 -13 37 9
103 71 138 127 17 27 45 66 64 87 46 53 69 92 61 104 -4 7 -24 9 -53 5 l-46
-6 -40 56 c-22 31 -50 64 -62 74 -15 11 -23 29 -23 48 0 20 -7 35 -23 45 -13
8 -44 35 -70 61 -48 47 -73 56 -95 34z m-372 -306 c0 -10 -25 -31 -57 -50 -38
-21 -29 15 10 38 35 22 47 25 47 12z"/>
<path d="M13927 12539 c-10 -6 -27 -31 -38 -56 -11 -25 -29 -58 -42 -73 -12
-16 -33 -47 -47 -69 -13 -23 -40 -52 -60 -66 -44 -30 -110 -115 -110 -141 0
-29 35 -47 59 -32 17 10 26 7 64 -28 63 -56 125 -104 132 -104 4 0 19 -8 33
-18 40 -28 58 -32 77 -19 26 20 9 43 -67 94 -85 57 -158 120 -158 137 0 7 18
32 40 57 23 24 62 79 87 122 26 43 50 80 54 83 10 6 17 -28 41 -236 1 -8 -1
-50 -6 -93 -9 -83 -1 -107 35 -107 29 0 39 32 39 131 l0 92 53 -6 c66 -8 77
-23 77 -109 0 -65 1 -69 27 -79 39 -15 48 1 45 81 -2 39 -1 70 2 70 3 0 17
-25 31 -55 27 -59 70 -95 115 -95 82 0 170 66 170 126 0 50 -22 95 -63 131
-47 41 -98 57 -161 50 -41 -5 -56 -12 -78 -38 -29 -35 -27 -38 -48 61 -15 68
-51 150 -66 150 -21 0 -36 -29 -31 -57 3 -16 10 -56 17 -91 7 -35 10 -65 8
-68 -3 -2 -28 0 -55 6 l-50 11 -16 82 c-14 69 -21 86 -47 108 -16 14 -30 33
-30 42 0 19 -8 21 -33 6z m519 -294 c10 -8 28 -15 38 -15 11 0 16 -3 13 -6 -3
-4 -2 -15 4 -26 16 -30 3 -64 -35 -88 l-35 -21 -20 20 c-12 12 -24 21 -28 21
-13 0 -43 60 -43 85 0 42 66 60 106 30z"/>
<path d="M14657 12373 c-21 -21 -47 -46 -58 -56 -12 -11 -19 -26 -15 -35 3
-10 13 -45 23 -79 24 -81 34 -91 68 -69 22 14 25 22 20 46 -7 33 11 136 26
145 11 8 53 -38 79 -86 20 -37 37 -49 71 -49 16 0 19 7 19 51 0 54 24 109 48
109 17 0 49 -36 67 -76 9 -20 12 -49 8 -86 -5 -54 -5 -55 23 -62 42 -11 57 15
48 82 -10 83 -56 161 -110 187 -45 21 -94 7 -125 -37 l-22 -30 -34 36 c-20 20
-40 36 -47 36 -6 0 -20 3 -31 6 -15 4 -31 -6 -58 -33z"/>
<path d="M6247 12244 c-3 -3 -67 -7 -143 -8 -140 -3 -279 -18 -344 -37 -19 -6
-71 -16 -115 -24 -44 -7 -89 -15 -100 -18 -11 -3 -42 -10 -69 -17 -27 -6 -54
-14 -60 -18 -12 -7 -52 -22 -189 -71 -49 -18 -107 -43 -129 -57 -22 -14 -62
-32 -89 -40 -27 -8 -68 -26 -91 -39 -24 -13 -74 -40 -113 -60 -77 -39 -88 -45
-161 -92 -28 -18 -54 -33 -58 -33 -4 0 -19 -8 -34 -18 -33 -23 -121 -79 -183
-118 -55 -34 -72 -58 -64 -85 13 -41 78 -19 174 59 24 20 108 68 185 108 221
112 322 168 336 184 3 3 57 25 120 49 63 24 129 49 145 56 134 54 460 140 565
150 36 4 94 13 130 22 56 14 132 15 603 9 296 -4 544 -9 551 -12 7 -3 33 -7
57 -9 186 -16 318 -48 456 -109 45 -20 85 -36 89 -36 16 0 164 -76 254 -130
115 -69 321 -187 371 -211 19 -10 59 -39 87 -64 51 -46 52 -47 37 -75 -34 -66
-96 -144 -116 -145 -37 -3 -51 -28 -44 -78 8 -53 34 -70 64 -43 21 19 199 22
296 5 33 -5 88 -14 123 -19 35 -4 71 -15 81 -24 10 -9 32 -16 50 -16 17 0 49
-9 70 -20 l38 -19 22 23 c20 22 21 26 10 102 -11 70 -18 87 -66 156 -29 43
-92 153 -139 245 -99 195 -124 234 -143 231 -8 -2 -39 -51 -70 -109 -31 -59
-67 -120 -81 -136 -14 -17 -30 -39 -36 -49 -11 -19 -16 -16 -90 67 -7 8 -35
26 -61 39 -26 13 -67 39 -91 57 -24 18 -56 36 -70 39 -34 8 -142 66 -250 133
-200 125 -472 227 -710 267 -116 19 -192 24 -400 28 -141 3 -334 7 -429 10
-94 2 -173 2 -176 0z"/>
<path d="M14617 11853 c-1 0 -42 -4 -92 -7 -183 -11 -251 -19 -305 -32 -30 -8
-60 -14 -68 -14 -51 0 -464 -190 -592 -272 -72 -47 -160 -132 -160 -155 1 -48
46 -64 81 -27 56 60 145 117 329 208 107 53 207 104 222 112 65 36 176 59 374
79 218 22 951 16 990 -8 6 -3 35 -10 65 -16 128 -22 257 -55 299 -76 25 -13
80 -49 122 -81 43 -33 94 -70 113 -84 59 -42 95 -72 95 -81 0 -4 -38 -52 -85
-107 -78 -92 -99 -132 -76 -146 4 -3 82 -8 172 -12 90 -3 189 -12 220 -20 31
-8 68 -14 83 -14 14 0 40 -6 58 -14 41 -18 165 -39 198 -35 32 5 37 32 10 68
-11 16 -46 78 -76 138 -31 59 -68 122 -83 138 -41 46 -105 134 -136 190 -34
60 -77 106 -92 97 -6 -4 -39 -45 -74 -92 -35 -47 -69 -92 -75 -100 -10 -12
-18 -9 -55 21 -24 20 -69 53 -99 73 -77 51 -122 84 -145 106 -36 33 -167 81
-280 101 -60 10 -130 24 -155 29 -96 23 -236 32 -503 33 -153 1 -279 1 -280 0z"/>
<path d="M2036 11789 c-120 -4 -248 -12 -285 -18 -36 -6 -181 -13 -320 -16
-312 -6 -304 -4 -296 -106 3 -39 1 -87 -4 -107 -6 -20 -10 -68 -10 -107 0 -38
-1 -99 -1 -135 -1 -79 -2 3 5 -685 3 -319 7 -596 9 -615 2 -19 9 -80 16 -135
14 -119 26 -319 22 -356 -2 -17 -11 -29 -24 -32 -17 -5 -20 -11 -15 -36 5 -25
2 -34 -17 -46 -25 -17 -98 -110 -176 -224 -55 -80 -187 -257 -217 -291 -13
-14 -23 -28 -23 -32 0 -5 -15 -25 -33 -45 -18 -21 -44 -55 -56 -75 -12 -21
-26 -38 -29 -38 -4 0 -40 -38 -81 -85 -40 -46 -83 -87 -95 -91 -26 -8 -36 -22
-36 -50 0 -12 -7 -27 -15 -34 -11 -9 -12 -16 -5 -25 10 -12 20 -194 10 -200
-3 -2 -5 -30 -3 -61 2 -49 7 -63 33 -88 33 -34 24 -33 230 -27 92 2 268 -11
310 -24 19 -6 154 -12 420 -20 113 -4 232 -13 265 -20 87 -20 234 -26 640 -28
513 -2 908 4 1310 20 193 8 359 15 370 15 11 0 88 0 170 0 152 1 275 1 420 -1
44 -1 94 -5 112 -10 22 -6 35 -5 42 3 6 6 11 94 12 200 1 179 0 190 -19 205
-11 9 -33 41 -50 71 -145 270 -161 296 -231 380 -25 30 -74 95 -108 145 -262
383 -257 373 -244 457 14 96 24 515 26 1123 1 351 6 586 14 650 14 120 15 434
2 489 -5 21 -16 43 -23 47 -54 36 -330 58 -652 54 -461 -6 -862 -3 -1066 8
-47 2 -183 1 -304 -4z m1589 -105 c66 -4 131 -9 145 -10 14 -1 67 -5 119 -8
51 -3 102 -8 112 -11 28 -9 29 -66 8 -375 -15 -223 -18 -327 -17 -570 0 -102
1 -259 1 -350 2 -526 -17 -947 -44 -974 -10 -11 -741 -13 -874 -2 -49 4 -130
18 -180 32 -50 13 -143 28 -210 33 -139 10 -1112 7 -1198 -4 -56 -8 -237 11
-237 24 -4 156 -10 274 -19 341 -5 47 -15 128 -21 180 -12 106 -24 1460 -14
1583 l7 77 252 0 c166 0 299 5 387 16 151 17 441 22 633 10 128 -8 229 -8 435
-1 58 2 206 6 329 9 124 4 227 9 230 11 2 3 12 3 20 1 9 -3 70 -8 136 -12z
m-1430 -2310 c460 -3 581 -7 606 -19 43 -23 184 -45 348 -54 86 -5 165 -10
176 -10 11 -1 72 -1 135 -1 75 0 111 -3 105 -9 -6 -6 -101 -12 -215 -15 -113
-3 -221 -7 -240 -9 -106 -14 -805 -27 -935 -17 -27 1 -82 -1 -121 -6 -63 -9
-75 -8 -94 8 -27 22 -34 22 -55 1 -33 -32 -263 -24 -365 14 -8 3 -59 7 -113 9
l-98 3 -102 -103 c-56 -57 -120 -125 -143 -152 -45 -54 -114 -151 -114 -159 0
-3 -32 -48 -70 -100 -46 -61 -78 -95 -93 -97 -12 -2 -27 -14 -33 -26 -6 -13
-17 -29 -23 -35 -15 -15 -14 -56 3 -73 20 -19 26 -18 57 12 26 24 33 26 155
29 244 7 374 5 401 -6 29 -11 183 -26 357 -35 55 -3 103 -7 108 -10 13 -8 770
-30 1198 -35 85 -1 247 3 360 9 268 15 558 17 592 4 34 -14 135 -32 173 -31
17 0 73 -3 126 -6 68 -5 99 -4 104 4 7 13 -27 73 -80 141 -56 71 -100 140
-151 236 -57 106 -115 199 -147 235 -13 14 -47 62 -76 106 l-52 80 -52 7 c-29
3 -74 6 -102 6 -27 0 -57 5 -65 10 -11 7 1 10 40 10 30 0 103 3 161 7 l106 6
21 -31 c12 -16 22 -33 22 -36 0 -11 199 -303 215 -316 8 -7 15 -18 15 -25 0
-7 19 -35 43 -61 67 -75 147 -196 224 -339 47 -85 57 -122 34 -117 -8 2 -129
5 -270 7 -193 2 -274 0 -331 -11 -61 -12 -239 -19 -390 -15 -14 0 -160 3 -325
5 -176 3 -317 9 -340 16 -75 21 -320 33 -675 34 -195 1 -360 4 -365 8 -6 3
-170 9 -365 12 -658 11 -995 18 -999 22 -5 5 57 83 104 129 61 60 156 167 174
195 8 14 38 54 66 90 68 87 88 115 137 185 36 52 103 140 180 239 13 15 39 39
60 52 34 22 41 22 100 13 39 -7 115 -8 203 -4 77 4 223 9 323 10 123 2 188 7
195 14 8 8 21 9 37 4 14 -4 75 -8 135 -9z m1129 -216 c3 -18 8 -54 11 -80 l6
-48 -94 0 c-108 0 -107 -1 -107 86 0 60 1 61 95 67 28 2 58 4 67 5 12 1 19 -7
22 -30z m202 17 c6 -2 14 -16 17 -32 3 -15 8 -38 12 -50 6 -18 2 -25 -20 -33
-34 -13 -122 -13 -130 0 -4 6 -9 35 -12 65 l-6 54 34 3 c32 4 80 0 105 -7z
m167 2 c10 -6 20 -28 23 -48 6 -35 5 -36 -35 -47 l-42 -10 -24 51 c-14 28 -25
54 -25 59 0 13 84 9 103 -5z m-2259 -18 c-10 -12 -28 -40 -39 -63 -20 -40 -21
-41 -68 -39 -81 2 -83 7 -26 62 49 47 64 54 133 59 19 2 19 2 0 -19z m2421
-16 c19 -21 33 -38 32 -39 -1 -1 -19 -4 -39 -7 -34 -5 -38 -3 -57 29 -27 46
-26 54 5 54 16 0 37 -13 59 -37z m-2246 11 c2 -2 -8 -30 -22 -61 l-27 -58 -47
3 c-27 2 -52 7 -57 12 -12 12 41 99 67 110 19 8 75 4 86 -6z m1465 5 c3 -2 2
-32 -1 -65 l-6 -62 -45 -6 c-24 -3 -71 -6 -103 -6 l-59 0 0 65 0 64 38 6 c20
4 44 8 52 10 19 5 118 0 124 -6z m-281 -40 c0 -19 -1 -46 -2 -61 -1 -26 -4
-28 -45 -28 -24 0 -58 3 -75 6 -31 7 -32 8 -29 57 3 59 16 66 103 63 l50 -3
-2 -34z m-222 26 c3 -2 3 -26 -1 -52 l-5 -48 -104 0 c-114 0 -118 2 -107 60 7
33 8 34 59 38 92 6 154 7 158 2z m-739 -21 c8 -5 1 -73 -9 -84 -6 -7 -156 -18
-170 -13 -17 7 -17 30 0 40 7 4 24 23 37 42 23 33 24 33 78 27 30 -4 59 -9 64
-12z m444 4 c12 -19 13 -51 2 -70 -7 -14 -22 -18 -70 -18 l-61 0 7 42 c4 22 9
45 12 50 8 13 102 10 110 -4z m-186 -6 c0 -5 -7 -23 -16 -40 -13 -27 -21 -32
-52 -32 -20 -1 -55 -3 -76 -6 l-39 -6 6 38 c4 20 12 41 19 46 17 10 158 10
158 0z m1861 -115 c19 -15 120 -169 114 -175 -2 -3 -26 -6 -52 -7 -26 -2 -55
-5 -63 -6 -10 -3 -28 23 -57 81 -24 46 -43 90 -43 96 0 11 23 19 70 22 8 1 22
-4 31 -11z m-2678 -24 c28 -3 47 -11 47 -19 0 -7 -15 -32 -33 -56 l-33 -43
-88 -3 c-95 -3 -94 -4 -49 54 13 16 33 42 44 57 16 21 27 27 43 23 11 -4 42
-9 69 -13z m2496 3 c21 -25 61 -110 67 -143 l6 -33 -55 0 c-60 0 -89 18 -100
63 -3 12 -11 41 -17 65 -5 24 -8 47 -5 53 9 14 91 11 104 -5z m-185 -15 c13
-5 24 -26 34 -62 23 -92 23 -92 -28 -101 -25 -5 -65 -7 -90 -6 l-45 3 -17 65
c-9 36 -19 73 -23 82 -6 14 1 17 37 21 75 6 112 6 132 -2z m-2076 -14 c20 1
23 -3 18 -23 -4 -13 -16 -39 -28 -59 l-21 -37 -61 7 c-87 10 -84 3 -35 89 21
37 23 38 63 31 23 -5 51 -8 64 -8z m745 -57 c-1 -36 -5 -80 -8 -98 l-6 -32
-67 4 c-95 5 -101 9 -96 59 2 23 10 60 18 82 14 39 16 40 68 46 96 11 93 13
91 -61z m-227 9 c-3 -20 -12 -55 -19 -76 -11 -35 -16 -38 -47 -37 -70 2 -130
15 -130 29 0 7 10 38 21 69 l21 55 62 3 c93 5 99 2 92 -43z m525 -36 c-1 -43
-5 -81 -7 -85 -6 -10 -224 -7 -230 4 -3 5 2 42 11 83 11 51 21 75 32 77 9 2
57 2 107 1 l91 -2 -4 -78z m225 72 c6 -2 14 -30 17 -62 3 -32 8 -66 12 -75 6
-15 -3 -17 -87 -15 l-93 2 -3 62 c-4 91 3 100 80 95 35 -2 68 -5 74 -7z m-987
-11 c2 -2 -7 -28 -20 -58 l-23 -56 -87 0 c-95 0 -105 6 -82 50 7 14 13 37 13
52 l0 27 98 -6 c53 -3 99 -7 101 -9z m1292 -2 c3 -4 11 -27 18 -52 7 -25 14
-52 16 -60 4 -12 -11 -15 -84 -17 -49 -2 -100 -7 -114 -12 -19 -8 -28 -6 -40
7 -15 17 -34 123 -24 139 6 10 219 5 228 -5z m286 -47 c6 -33 12 -65 13 -71 0
-8 -31 -12 -94 -13 l-93 -2 -11 28 c-21 55 -33 103 -29 110 3 5 49 8 103 8
l98 0 13 -60z m-2222 -110 c68 7 79 0 47 -28 -10 -9 -24 -32 -32 -52 -16 -42
-61 -60 -125 -52 -23 4 -57 2 -74 -3 -17 -5 -33 -5 -35 -1 -3 4 13 32 34 62
22 30 47 64 55 76 15 22 17 22 40 7 20 -13 38 -15 90 -9z m288 -21 c25 -8 21
-31 -9 -50 -19 -13 -24 -24 -21 -41 l4 -24 -85 6 c-47 3 -90 9 -94 11 -5 3 0
17 10 32 10 15 24 40 30 56 13 28 13 28 80 22 37 -4 75 -10 85 -12z m2709 -54
c16 -30 44 -74 63 -97 19 -23 35 -45 35 -48 0 -7 -148 3 -200 14 -26 5 -35 14
-46 46 -7 22 -16 59 -20 83 l-6 42 50 0 c28 0 54 5 57 11 14 22 40 2 67 -51z
m-2510 34 c59 -7 79 -24 57 -50 -6 -8 -9 -27 -7 -44 l5 -31 -73 7 c-41 4 -84
8 -96 9 -13 1 -34 3 -48 4 l-25 1 21 18 c12 9 32 37 44 60 18 37 25 43 44 38
12 -3 47 -8 78 -12z m2028 -4 c17 -9 50 -93 50 -127 0 -10 -25 -13 -104 -13
-116 0 -111 -3 -125 83 l-8 47 36 1 c20 0 54 4 76 8 56 12 54 12 75 1z m-1722
-16 c47 -6 47 -6 30 -37 -6 -12 -10 -39 -10 -60 l2 -38 -83 6 c-124 9 -172 16
-159 24 6 4 19 25 28 46 32 80 29 79 192 59z m1202 -1 c5 -4 10 -41 12 -81 l4
-73 -146 3 -145 3 -1 50 c0 28 4 65 8 84 l9 34 126 -6 c69 -3 129 -10 133 -14z
m261 -2 c6 -6 39 -112 39 -125 0 -3 -21 -6 -47 -7 -27 0 -73 -4 -103 -9 -38
-5 -59 -4 -66 4 -12 12 -27 140 -18 149 8 7 187 -4 195 -12z m506 -36 c23 -84
26 -80 -54 -83 l-71 -3 -16 32 c-9 18 -19 50 -23 71 l-6 39 79 -3 78 -3 13
-50z m-1102 -23 c0 -35 -2 -67 -5 -72 -3 -4 -44 -11 -91 -14 -77 -7 -87 -6
-93 10 -6 16 1 120 9 134 2 3 43 5 92 5 l88 0 0 -63z m-660 43 c73 -9 74 -11
62 -73 l-11 -53 -86 3 -85 3 3 45 c4 54 26 93 50 86 9 -2 40 -7 67 -11z m403
0 c13 -5 15 -63 3 -105 l-7 -25 -134 4 c-74 1 -138 5 -141 7 -10 6 10 87 26
103 7 8 31 17 52 20 38 7 177 4 201 -4z m-2024 -340 c19 4 43 2 54 -4 13 -7
232 -12 641 -15 346 -3 638 -10 659 -15 21 -5 216 -9 452 -9 397 1 420 0 520
-22 93 -20 129 -22 305 -20 110 1 324 3 475 4 151 2 311 7 355 11 95 10 66 10
350 0 l230 -7 25 23 25 24 -1 -135 -2 -135 -68 1 c-38 0 -199 3 -359 5 -159 3
-319 2 -355 -3 -36 -5 -184 -11 -330 -14 -146 -2 -416 -7 -600 -10 -184 -3
-380 -6 -435 -7 -209 0 -683 14 -760 24 -100 12 -320 26 -538 33 -93 4 -214
13 -270 21 -65 10 -162 15 -265 14 -90 -1 -165 1 -168 4 -3 3 -8 60 -11 127
l-6 122 22 -11 c12 -7 36 -9 55 -6z"/>
<path d="M2056 11563 c-3 -3 -183 -10 -396 -16 -36 -1 -117 1 -180 5 -99 7
-117 6 -127 -8 -12 -16 -11 -176 3 -544 3 -91 5 -273 4 -405 -2 -241 -1 -451
3 -685 1 -69 -1 -159 -6 -201 -7 -68 -5 -79 14 -102 22 -29 59 -37 59 -13 0
10 22 15 83 20 156 13 1217 22 1248 11 8 -2 43 -6 80 -9 36 -2 93 -9 127 -15
153 -27 186 -31 332 -42 85 -6 180 -14 210 -19 61 -10 290 -6 332 5 24 6 27
12 31 68 2 34 10 106 17 159 10 74 10 136 2 265 -5 92 -10 332 -10 533 0 201
-4 386 -9 411 -6 26 -11 143 -11 260 -2 208 -13 303 -36 312 -6 2 -42 0 -81
-5 -74 -10 -612 -13 -780 -5 -299 16 -900 29 -909 20z m-450 -113 c75 -6 140
-8 145 -5 9 6 292 17 489 19 133 1 546 -14 625 -22 33 -4 101 -4 150 0 50 4
153 4 230 -1 77 -5 167 -8 200 -6 33 2 121 7 196 10 l137 6 5 -33 c2 -18 4
-71 2 -118 -1 -47 2 -143 8 -215 5 -71 11 -301 13 -510 1 -209 5 -400 8 -425
7 -53 9 -287 3 -298 -3 -4 -8 -50 -11 -102 -5 -59 -12 -100 -21 -109 -17 -17
-75 -20 -170 -10 -38 4 -140 10 -225 14 -150 6 -193 10 -385 40 -206 32 -265
35 -495 31 -243 -6 -366 -7 -725 -7 -115 0 -239 -4 -275 -9 -36 -5 -67 -10
-70 -10 -3 0 -6 280 -6 623 0 342 -4 676 -7 742 -19 333 -19 393 0 404 10 6
24 8 31 6 7 -3 74 -9 148 -15z"/>
<path d="M2944 11186 c-79 -55 -120 -104 -165 -198 -26 -55 -40 -58 -102 -26
-62 32 -196 32 -252 0 -22 -12 -43 -22 -47 -22 -7 0 -78 105 -78 116 0 3 -13
23 -30 44 -52 66 -182 110 -221 74 -17 -15 -19 -30 -17 -138 1 -67 5 -134 9
-151 5 -16 10 -48 12 -70 2 -22 9 -49 15 -60 8 -16 6 -26 -11 -50 -31 -41 -49
-97 -49 -151 0 -27 -4 -44 -11 -44 -7 0 -39 30 -73 66 -38 42 -66 64 -73 60
-8 -5 0 -21 26 -49 21 -23 54 -64 73 -92 33 -48 34 -53 35 -147 0 -54 -2 -98
-5 -98 -3 0 -22 5 -43 11 -76 21 -72 -18 6 -51 37 -16 73 -45 123 -98 l71 -76
-26 -22 c-14 -12 -45 -31 -68 -43 -46 -23 -57 -53 -25 -70 12 -6 28 -3 52 9
19 10 51 26 70 35 19 9 42 22 51 31 14 13 26 10 110 -27 92 -41 96 -42 204
-42 109 0 266 27 341 58 17 7 49 16 71 19 39 7 42 6 120 -68 45 -43 90 -76
101 -76 42 0 29 28 -44 98 -41 39 -74 78 -74 87 0 8 12 21 28 27 15 6 47 31
72 54 l45 43 75 -18 c184 -44 255 -23 78 23 -57 14 -111 26 -122 26 -15 0 -17
5 -12 28 3 15 9 48 12 73 6 45 7 46 88 89 101 55 145 85 163 110 12 17 12 21
-1 26 -14 5 -191 -60 -211 -77 -23 -22 -43 -9 -50 34 -8 49 -66 205 -105 283
-28 53 -28 55 -14 112 7 31 16 95 20 142 l6 85 -42 53 c-56 69 -68 75 -106 48z
m-762 -110 c41 -40 94 -119 137 -203 33 -67 58 -80 76 -41 26 56 177 85 260
48 74 -33 106 -40 126 -29 10 5 19 16 19 23 0 50 136 226 175 226 8 0 22 -14
31 -32 14 -27 14 -39 4 -89 -7 -31 -9 -62 -6 -67 3 -6 2 -13 -3 -16 -5 -4 -14
-29 -20 -57 -10 -46 -9 -55 12 -97 13 -26 27 -60 31 -76 4 -16 22 -59 40 -96
18 -37 36 -91 40 -121 7 -53 6 -55 -21 -64 -24 -9 -110 -6 -283 7 -30 3 -35 0
-38 -19 -3 -18 5 -27 33 -40 29 -14 35 -22 31 -39 -10 -38 34 -66 177 -111 26
-8 47 -18 47 -22 0 -8 -109 -61 -126 -61 -6 0 -19 10 -30 21 -32 37 -94 70
-115 64 -31 -10 -22 -38 27 -79 l46 -39 -33 -16 c-38 -19 -128 -41 -165 -41
-13 0 -24 -4 -24 -10 0 -18 -239 -6 -287 15 -24 9 -43 21 -43 25 0 4 16 15 35
24 19 9 35 21 35 27 0 5 11 15 25 21 32 15 35 58 4 58 -11 0 -33 -8 -47 -18
-15 -11 -50 -31 -79 -47 l-52 -28 -35 29 c-19 16 -35 32 -35 37 -1 4 18 7 42
7 23 1 60 7 82 15 22 8 57 15 77 15 32 0 39 4 44 26 11 42 -5 47 -98 30 -110
-21 -201 -21 -218 -1 -7 8 -10 15 -8 15 5 0 -8 80 -18 113 -7 23 17 22 43 -2
36 -34 96 -59 173 -71 104 -16 144 -11 148 18 6 40 -13 50 -106 57 -133 10
-241 50 -243 89 -3 42 0 66 15 111 9 25 16 50 16 56 0 6 14 42 30 80 32 71 32
89 1 89 -16 0 -19 13 -25 92 -3 50 -6 122 -6 160 0 65 1 68 23 68 14 0 39 -15
59 -34z m933 -803 c-3 -21 -10 -42 -15 -47 -9 -9 -69 10 -119 38 -39 23 -39
23 54 35 39 4 74 9 79 10 4 0 5 -16 1 -36z"/>
<path d="M2694 10656 c-8 -6 -17 -27 -20 -47 -5 -31 -2 -39 26 -62 46 -39 94
-37 116 4 19 37 12 71 -18 91 -31 20 -85 27 -104 14z"/>
<path d="M2350 10620 c-42 -42 -39 -96 7 -123 82 -48 168 57 100 121 -29 28
-80 29 -107 2z"/>
<path d="M2539 10418 c-20 -17 -49 -64 -49 -80 0 -20 90 -108 110 -108 45 0
122 110 102 146 -5 10 -32 23 -58 31 -27 7 -58 15 -69 18 -11 3 -27 0 -36 -7z"/>
<path d="M9569 11656 c-2 -3 -37 -7 -77 -10 -94 -7 -150 -24 -164 -50 -7 -13
-13 -105 -15 -241 -4 -293 -11 -454 -23 -545 -5 -41 -13 -113 -16 -160 -3 -47
-8 -114 -11 -150 -3 -36 -7 -99 -9 -140 -3 -41 -7 -122 -10 -180 -6 -88 -7
-248 -6 -810 0 -204 3 -377 7 -465 3 -55 7 -145 8 -200 2 -55 6 -107 10 -115
3 -8 11 -33 18 -55 6 -22 16 -45 21 -52 12 -15 41 -4 34 13 -6 17 15 19 31 3
6 -6 51 -12 100 -13 49 -2 95 -6 101 -10 6 -4 76 -4 154 0 79 4 152 7 163 7
330 -7 549 -14 557 -19 5 -3 14 -1 21 4 12 11 409 8 476 -3 19 -3 71 -1 115 5
89 10 215 12 346 5 47 -3 142 -5 211 -4 70 0 146 -5 170 -10 82 -19 559 -22
719 -5 161 17 441 14 569 -6 93 -15 165 -9 192 16 17 16 20 26 15 64 -7 55 -9
479 -3 500 7 19 20 632 19 860 0 96 -4 261 -9 365 -5 105 -8 330 -6 500 2 171
-2 380 -8 465 -6 85 -12 184 -14 220 -7 143 -26 198 -59 171 -10 -8 -152 -10
-529 -7 -283 2 -519 6 -523 9 -17 9 -405 21 -769 22 -203 1 -435 4 -515 8 -88
5 -196 4 -275 -3 -71 -6 -150 -12 -175 -14 -25 -1 -61 -6 -80 -11 -52 -12
-327 -8 -385 5 -27 6 -72 13 -100 16 -27 2 -83 9 -123 14 -78 11 -146 13 -153
6z m166 -111 c50 -8 130 -22 179 -31 50 -8 106 -13 125 -10 20 4 43 6 51 6
166 -7 267 -3 390 18 25 4 144 6 265 5 121 -2 285 -4 365 -5 80 0 213 0 295 1
219 3 649 -8 730 -18 111 -14 505 -18 665 -7 41 3 91 2 110 -2 19 -4 85 -5
145 -2 61 3 115 2 122 -3 7 -5 10 -20 7 -37 -4 -15 -2 -36 4 -46 5 -9 6 -29 2
-43 -4 -14 -3 -60 2 -101 5 -41 9 -275 8 -520 0 -245 5 -526 11 -625 6 -99 12
-200 12 -225 1 -55 -11 -410 -18 -540 -4 -80 -13 -582 -15 -784 l0 -58 -32 5
c-18 3 -58 13 -88 21 -65 19 -428 22 -600 5 -58 -6 -114 -11 -125 -11 -154 0
-564 10 -571 14 -5 3 -94 9 -199 12 -104 3 -217 11 -250 16 -41 7 -93 7 -165
-1 -68 -8 -164 -9 -275 -4 -222 10 -214 10 -328 -3 -67 -8 -127 -9 -190 -3
-51 5 -137 8 -192 6 -55 -2 -141 -5 -190 -7 -50 -2 -96 -7 -103 -11 -6 -5 -18
-5 -24 0 -7 4 -101 8 -208 9 -107 1 -223 4 -257 8 l-61 8 -6 46 c-9 67 -11
1501 -3 1597 4 44 11 134 16 200 6 66 15 174 20 240 16 191 21 282 27 580 3
154 7 281 9 284 4 3 185 27 230 29 11 1 61 -5 110 -13z"/>
<path d="M11408 11253 c-19 -5 -24 -18 -9 -27 8 -5 17 -81 25 -202 2 -28 7
-58 12 -65 4 -8 7 -29 5 -48 -4 -51 20 -200 36 -212 7 -6 19 -9 27 -6 12 5 14
26 10 119 -3 62 -9 127 -14 143 -5 17 -10 55 -10 85 0 30 -2 64 -4 75 -15 96
-20 118 -33 130 -15 15 -16 16 -45 8z"/>
<path d="M10082 11182 c-12 -20 -44 -73 -70 -116 -27 -44 -53 -81 -59 -83 -6
-2 -18 13 -28 34 -10 20 -40 72 -68 115 -40 62 -55 78 -74 78 -22 0 -24 -4
-23 -37 1 -21 1 -40 1 -43 -1 -3 -3 -88 -5 -190 -2 -102 -7 -212 -11 -245 -6
-50 -4 -63 9 -74 21 -18 49 -6 42 17 -3 9 -1 33 5 52 11 34 17 117 18 268 1
57 4 72 16 72 8 0 15 -4 15 -10 0 -5 8 -18 18 -28 9 -9 23 -36 30 -59 7 -23
23 -48 37 -57 24 -16 25 -15 66 41 23 32 52 72 64 88 12 17 33 50 46 75 l23
45 8 -55 c19 -140 28 -237 22 -262 -6 -32 14 -68 38 -68 20 0 21 11 19 140 -6
276 -70 415 -139 302z"/>
<path d="M12182 11191 c-10 -6 -12 -23 -8 -62 14 -119 26 -190 37 -210 6 -12
11 -41 12 -65 0 -25 4 -47 8 -50 4 -2 6 -30 4 -60 -3 -50 0 -59 23 -81 14 -13
29 -20 33 -16 5 5 16 37 25 73 19 78 28 90 63 90 47 0 96 -72 108 -157 7 -57
19 -83 37 -83 37 0 16 179 -29 247 -49 75 -141 107 -184 64 -11 -11 -25 -21
-30 -21 -10 0 -29 90 -37 180 -6 67 -31 160 -42 160 -4 0 -13 -4 -20 -9z"/>
<path d="M11959 11143 c-8 -20 -8 -41 -1 -73 6 -25 14 -71 17 -102 l6 -58 -51
0 c-37 0 -57 -5 -73 -20 -34 -32 -13 -53 65 -64 l65 -9 -4 -88 c-3 -86 -3 -89
22 -105 39 -25 48 -7 53 98 3 53 9 96 16 101 6 4 30 12 54 18 52 14 57 21 34
49 -12 15 -31 22 -62 25 l-45 3 -22 112 c-28 140 -50 174 -74 113z"/>
<path d="M11645 11020 c-17 -19 -17 -21 0 -40 21 -23 43 -25 69 -5 16 12 18
19 8 40 -14 31 -51 33 -77 5z"/>
<path d="M10445 10983 c-11 -3 -26 -10 -34 -16 -7 -6 -23 -16 -35 -22 -28 -13
-65 -90 -65 -135 -1 -105 59 -179 147 -180 73 0 162 50 162 91 0 10 5 21 11
25 14 8 5 130 -12 168 -23 50 -112 86 -174 69z m108 -80 c8 -10 18 -40 22 -66
7 -47 7 -49 -35 -87 -66 -61 -111 -55 -149 22 -23 45 -7 81 53 122 45 30 86
33 109 9z"/>
<path d="M10828 10953 c-39 -6 -100 -85 -108 -141 -12 -74 9 -131 46 -132 17
0 34 47 34 97 0 39 5 50 39 84 21 22 46 39 55 39 36 0 79 -117 66 -177 -5 -18
-4 -33 1 -33 5 0 9 -10 9 -23 0 -22 16 -47 30 -47 16 0 27 50 23 110 -4 71
-31 155 -65 200 -22 31 -49 35 -130 23z"/>
<path d="M11165 10890 c-3 -5 -13 -10 -22 -10 -20 0 -42 -29 -43 -54 0 -11 -7
-27 -14 -35 -12 -13 -13 -26 -6 -56 5 -22 14 -41 20 -43 6 -2 17 -11 26 -19 8
-8 24 -13 35 -10 11 3 35 -3 52 -13 55 -31 88 -33 137 -7 38 20 46 29 51 62
16 99 -85 195 -205 195 -14 0 -28 -4 -31 -10z m153 -96 c31 -36 26 -74 -13
-93 -41 -20 -81 -18 -113 6 -21 16 -27 28 -27 59 0 36 3 40 34 50 50 16 93 8
119 -22z"/>
<path d="M11680 10865 c-18 -22 -21 -129 -3 -155 36 -52 65 -8 61 93 -3 64 -5
72 -24 75 -11 2 -27 -4 -34 -13z"/>
<path d="M18485 11529 c-63 -21 -416 -48 -620 -47 -277 2 -324 0 -405 -15 -47
-9 -98 -16 -115 -14 -65 5 -492 -14 -522 -24 -17 -5 -34 -17 -37 -26 -4 -9 -9
-66 -12 -127 -3 -61 -10 -124 -14 -141 -10 -33 -14 -458 -7 -755 2 -102 1
-216 -4 -255 -4 -38 -11 -128 -14 -200 -3 -71 -8 -159 -12 -195 -4 -36 -6 -69
-4 -74 1 -4 -3 -42 -8 -85 -6 -42 -13 -141 -16 -221 -5 -130 -9 -189 -22 -270
-15 -98 -14 -127 2 -144 25 -24 49 -16 55 19 5 28 10 31 65 43 52 10 337 16
530 10 28 0 109 2 180 6 273 14 424 16 545 6 255 -21 371 -23 1080 -23 951 1
1453 10 1600 29 100 13 238 13 317 -2 46 -8 98 -14 115 -14 50 2 178 -18 291
-45 56 -13 134 -27 174 -30 66 -7 72 -6 83 15 11 21 16 184 25 810 2 129 7
285 13 345 9 105 8 269 -3 695 -7 309 -30 543 -56 576 -5 6 -41 17 -81 24 -40
7 -89 16 -108 21 -19 5 -78 9 -130 9 -52 1 -131 5 -175 11 -192 22 -287 28
-558 33 -158 3 -292 8 -298 12 -5 3 -116 5 -247 5 -130 0 -250 3 -267 9 -16 5
-151 12 -300 15 -148 3 -328 8 -400 11 -337 12 -612 13 -640 3z m220 -88 c6
-3 62 -7 125 -8 125 -2 347 -7 760 -17 146 -4 289 -12 317 -17 29 -6 62 -8 73
-4 11 4 123 1 248 -5 125 -6 279 -13 342 -15 223 -7 406 -17 495 -26 50 -5
155 -14 235 -18 160 -10 272 -26 309 -44 32 -16 35 -36 45 -402 3 -121 9 -247
12 -280 10 -98 5 -387 -12 -655 -4 -63 -7 -126 -7 -140 7 -153 4 -334 -7 -414
-8 -65 -11 -146 -7 -234 l6 -134 -22 6 c-12 3 -56 11 -97 17 -41 6 -100 18
-130 26 -30 7 -109 20 -175 28 -66 8 -151 19 -188 26 -37 6 -98 8 -135 5 -37
-3 -123 -8 -192 -12 -69 -3 -141 -7 -160 -10 -66 -8 -206 -14 -485 -19 -230
-4 -450 -11 -535 -15 -8 -1 -76 3 -151 7 -74 4 -158 5 -186 2 -62 -8 -723 -4
-928 6 -382 17 -525 22 -590 18 -38 -2 -139 -5 -223 -6 -83 -2 -155 -7 -158
-10 -4 -3 -16 -1 -27 5 -14 7 -93 9 -248 6 -237 -6 -249 -4 -249 36 0 16 3 17
12 8 19 -19 35 -14 42 13 4 14 11 25 16 25 6 0 10 7 10 16 0 24 -43 13 -57
-16 -11 -21 -12 -4 -8 110 2 74 10 200 16 280 6 80 13 215 15 300 2 85 8 180
14 210 8 37 10 149 7 340 -6 381 15 881 37 899 6 5 49 11 96 15 186 14 268 18
333 20 38 0 71 6 75 12 7 12 131 12 170 0 16 -6 22 -3 22 9 0 12 4 13 18 6 10
-5 73 -6 161 -1 84 5 152 5 161 0 10 -5 31 -5 51 0 19 5 93 11 164 14 72 2
157 9 190 15 34 6 81 11 105 10 25 0 79 4 120 9 90 10 161 12 175 3z"/>
<path d="M19020 11000 c-59 -14 -65 -18 -68 -44 -3 -20 2 -29 15 -32 17 -5 18
-22 20 -251 2 -204 5 -249 17 -262 14 -13 18 -13 36 4 18 16 20 30 20 137 0
66 4 118 9 118 5 0 26 -19 45 -42 20 -24 72 -86 116 -139 94 -114 130 -133
130 -70 0 32 -4 37 -68 109 -73 81 -122 143 -122 152 0 5 24 13 53 20 72 15
113 46 125 92 8 32 6 42 -16 75 -40 61 -74 93 -122 116 -67 31 -116 35 -190
17z m171 -95 c70 -27 96 -57 83 -97 -7 -23 -33 -34 -105 -43 -78 -10 -105 3
-113 55 -4 23 -4 57 0 76 5 30 10 34 37 34 18 0 61 -11 98 -25z"/>
<path d="M20741 10934 c-7 -17 -9 -47 -5 -84 l6 -58 -64 5 c-69 6 -98 -8 -98
-47 0 -21 64 -50 113 -50 63 0 69 -12 68 -148 -1 -113 0 -122 20 -132 17 -9
23 -8 34 7 16 21 29 139 24 207 -2 25 -2 46 1 47 3 1 25 2 50 3 41 2 100 29
100 45 0 13 -66 41 -113 47 -38 5 -48 11 -51 28 -20 113 -27 141 -38 148 -22
14 -34 9 -47 -18z"/>
<path d="M18275 10916 c-68 -16 -126 -58 -218 -156 -43 -45 -77 -77 -77 -71 0
20 -123 129 -175 155 -53 27 -146 43 -188 32 -33 -8 -165 -140 -174 -174 -13
-50 -2 -162 18 -188 20 -25 -3 -39 -87 -56 -95 -19 -138 -38 -220 -99 -60 -44
-104 -118 -104 -175 0 -33 33 -84 55 -84 7 0 15 -6 18 -13 8 -21 120 -74 193
-92 144 -34 195 -48 200 -57 5 -8 -60 -160 -152 -353 -13 -27 -26 -74 -30
-104 l-7 -54 31 6 c25 5 33 2 46 -18 21 -32 55 -49 140 -70 125 -32 221 0 330
110 37 37 74 78 83 91 8 13 21 24 28 24 7 0 41 -33 76 -72 34 -40 69 -75 77
-77 8 -1 29 -12 46 -22 38 -23 57 -24 138 -3 152 39 208 83 208 163 0 56 -38
193 -79 284 -49 109 -49 110 41 123 133 21 209 71 224 148 8 46 -12 168 -34
208 -24 42 -115 107 -163 114 -59 10 -61 13 -44 79 18 70 20 218 4 299 -13 61
-33 82 -98 104 -40 14 -41 14 -106 -2z m130 -102 c14 -22 16 -42 11 -123 -8
-129 -17 -193 -29 -209 -7 -9 -36 -12 -101 -10 -50 1 -110 -1 -132 -5 -41 -8
-41 -8 -64 35 -12 24 -31 58 -42 76 -11 17 -16 32 -11 32 4 0 22 23 38 50 54
91 190 178 276 180 29 0 40 -6 54 -26z m-639 -39 c43 -18 92 -57 140 -113 l36
-43 -28 -37 c-15 -20 -43 -54 -63 -75 l-36 -38 -110 2 c-60 2 -120 -1 -132 -5
-19 -6 -23 -4 -23 14 0 11 -6 35 -14 53 -7 18 -16 58 -20 88 -7 53 -6 58 26
94 18 21 47 46 63 56 37 23 112 25 161 4z m234 -264 c15 -28 13 -31 -20 -31
-34 0 -35 2 -18 30 16 25 25 25 38 1z m-248 -140 c6 -6 -82 -151 -92 -151 -7
0 -70 136 -70 149 0 18 144 19 162 2z m-226 -55 c13 -33 38 -88 55 -123 l31
-64 -27 -52 c-16 -29 -29 -53 -30 -55 -1 -1 -22 4 -46 12 -24 8 -89 26 -145
39 -110 28 -229 79 -238 103 -9 23 19 81 56 114 66 60 151 89 256 87 l64 -2
24 -59z m804 49 c-1 -13 -64 -135 -70 -135 -3 0 -20 27 -38 60 -18 33 -38 62
-44 66 -7 4 -5 9 3 15 19 12 149 6 149 -6z m-235 -14 c3 -11 31 -61 62 -112
l55 -92 -31 -59 c-17 -33 -31 -65 -31 -72 0 -6 -13 -27 -28 -45 l-28 -34 -100
12 c-209 24 -214 26 -268 130 l-23 44 24 41 c13 23 37 59 53 81 16 22 40 59
52 83 l22 42 117 0 c107 0 118 -2 124 -19z m440 -10 c40 -14 57 -27 83 -65 27
-41 32 -57 32 -106 0 -51 -3 -61 -26 -79 -15 -12 -43 -25 -63 -30 -129 -33
-162 -41 -175 -41 -15 0 -55 57 -75 107 -12 29 -11 35 12 65 13 18 41 63 62
101 34 61 39 67 68 66 18 0 55 -8 82 -18z m-266 -303 c11 -18 11 -23 -1 -32
-8 -6 -20 -21 -27 -33 -12 -24 -41 -31 -41 -10 0 14 43 97 50 97 3 0 11 -10
19 -22z m-545 -133 c26 -11 42 -28 61 -64 13 -27 28 -51 33 -53 4 -1 26 -31
47 -66 21 -35 44 -66 52 -70 28 -16 -91 -162 -162 -199 -55 -29 -118 -41 -179
-32 -82 11 -112 26 -130 64 -22 45 -20 66 9 127 14 28 25 59 25 68 0 8 10 31
23 50 31 47 61 107 76 153 12 36 14 37 61 37 26 0 64 -7 84 -15z m632 -32 c4
-10 17 -40 29 -68 27 -57 48 -125 66 -208 11 -53 11 -59 -7 -72 -10 -8 -37
-20 -59 -26 -22 -5 -63 -17 -91 -25 -28 -8 -58 -14 -66 -14 -8 0 -61 45 -117
99 l-102 99 32 53 c29 50 42 68 97 139 24 31 42 35 155 38 47 2 59 -1 63 -15z
m-353 -14 c20 1 37 -1 37 -4 0 -8 -23 -48 -41 -70 -9 -11 -20 -30 -24 -42 -3
-13 -9 -23 -13 -23 -9 1 -65 77 -86 119 l-18 34 54 -8 c29 -5 70 -7 91 -6z"/>
<path d="M17905 10240 c-34 -22 -43 -41 -44 -91 -1 -39 13 -56 66 -83 75 -38
173 1 173 69 0 39 -34 88 -74 106 -53 24 -84 24 -121 -1z"/>
<path d="M20027 10768 c-54 -17 -80 -33 -128 -77 -84 -78 -94 -137 -36 -200
54 -58 129 -48 195 26 23 26 42 43 42 37 0 -6 15 -31 34 -56 30 -39 38 -44 65
-40 28 4 46 32 21 32 -15 0 -38 52 -65 145 -20 68 -23 89 -13 104 15 25 3 51
-24 50 -13 0 -54 -10 -91 -21z m19 -126 c-22 -75 -52 -112 -93 -112 -82 0 -54
89 46 139 31 16 57 28 59 26 2 -2 -3 -26 -12 -53z"/>
<path d="M19554 10731 c-97 -24 -139 -51 -160 -106 -23 -62 -15 -125 22 -168
78 -90 161 -120 262 -97 71 17 137 51 137 70 0 13 -21 14 -135 12 -126 -4
-137 -2 -154 16 -23 26 -16 37 32 52 20 7 61 23 90 37 51 25 52 26 52 68 0 59
-16 98 -48 117 -25 14 -33 14 -98 -1z m70 -87 c8 -21 13 -18 -68 -48 -80 -30
-99 -32 -94 -10 6 33 76 69 139 73 9 1 20 -6 23 -15z"/>
<path d="M20448 10740 c-83 -25 -177 -153 -159 -216 26 -91 122 -148 209 -124
42 11 122 74 122 95 0 23 -20 28 -46 10 -13 -8 -51 -18 -84 -22 -50 -4 -63 -2
-89 17 -23 15 -31 29 -31 51 0 39 55 94 108 108 29 8 43 19 52 40 6 17 9 35 5
40 -7 13 -48 13 -87 1z"/>
<path d="M19165 10100 c-55 -4 -113 -12 -128 -18 -49 -20 -97 -63 -97 -86 0
-11 -4 -27 -9 -35 -20 -31 72 -135 129 -147 38 -8 202 -86 225 -107 20 -18 20
-18 -4 -38 -34 -28 -145 -27 -206 3 -38 19 -45 27 -43 47 5 37 -19 37 -42 -1
-34 -55 -24 -77 52 -116 58 -30 77 -35 140 -36 114 -1 188 49 188 128 0 39
-54 89 -127 116 -32 12 -67 27 -78 34 -11 7 -44 21 -72 30 -53 18 -93 55 -93
85 1 43 115 75 223 64 55 -6 87 10 87 42 0 15 -27 46 -38 43 -4 -1 -52 -4
-107 -8z"/>
<path d="M20455 10029 c-10 -30 28 -68 53 -53 10 7 17 24 17 40 0 25 -4 29
-32 32 -25 3 -33 -1 -38 -19z"/>
<path d="M19580 9951 c-71 -22 -177 -114 -192 -167 -11 -40 9 -97 44 -129 46
-43 187 -89 242 -79 49 8 79 22 71 34 -3 4 6 17 20 28 37 30 32 44 -12 36 -21
-4 -45 -10 -53 -15 -29 -14 -130 1 -187 28 -41 19 -34 33 16 33 26 0 51 9 79
30 23 17 46 30 51 30 16 0 41 49 41 79 0 46 -19 79 -53 91 -34 11 -32 11 -67
1z m48 -99 c3 -18 -5 -26 -40 -42 -24 -11 -61 -20 -83 -20 l-40 0 48 46 c39
38 53 45 80 42 24 -2 33 -8 35 -26z"/>
<path d="M21095 9950 c-94 -23 -157 -78 -176 -153 -6 -26 -9 -61 -6 -77 7 -34
5 -36 -46 -44 -21 -3 -47 -11 -57 -16 -35 -19 -86 -12 -97 13 -22 44 -30 82
-23 103 9 23 104 64 148 64 36 0 56 14 49 34 -15 38 -116 48 -184 17 -118 -54
-123 -243 -7 -306 35 -19 106 -14 134 10 8 7 27 15 42 19 15 3 33 12 40 20 11
11 19 9 48 -14 44 -34 120 -60 176 -60 60 0 74 8 74 41 0 34 -16 43 -100 53
-76 10 -107 24 -112 50 -4 21 -1 23 49 24 29 1 62 6 72 12 11 5 32 10 47 10
30 0 89 33 97 54 3 7 3 32 0 56 -5 34 -12 46 -42 65 -42 27 -84 35 -126 25z
m89 -89 c10 -15 -17 -29 -69 -36 -27 -3 -63 -9 -80 -12 -27 -4 -29 -3 -15 11
32 33 150 60 164 37z"/>
<path d="M20298 9913 c-32 -34 -68 -105 -68 -133 0 -31 -20 -24 -21 8 -1 15
-2 43 -3 62 -2 69 -50 106 -78 61 -8 -14 -16 -17 -24 -10 -6 5 -47 14 -92 20
-75 11 -82 11 -115 -10 -41 -25 -87 -98 -87 -137 0 -15 4 -41 10 -58 5 -17 12
-44 15 -59 7 -34 51 -59 66 -36 11 18 11 83 -1 134 -13 56 14 82 100 96 36 5
77 14 93 19 29 9 28 11 32 -55 3 -55 22 -121 41 -140 23 -22 62 -29 80 -14 9
7 27 36 40 65 13 28 30 57 39 64 8 7 15 18 15 25 0 7 6 18 13 24 15 11 17 68
4 89 -13 19 -31 14 -59 -15z"/>
<path d="M20445 9850 c-9 -18 -15 -56 -15 -104 0 -64 3 -78 22 -96 20 -18 23
-19 40 -3 15 13 18 32 18 105 0 92 -10 128 -35 128 -8 0 -21 -13 -30 -30z"/>
<path d="M5934 10813 c-6 -5 -15 -19 -19 -33 -9 -27 -152 -210 -165 -210 -4 0
-39 -36 -76 -80 -55 -64 -74 -80 -96 -80 -16 0 -29 -3 -30 -7 -6 -30 -9 -96
-14 -288 -9 -336 -10 -315 22 -1620 5 -180 16 -195 149 -195 44 0 159 -11 255
-24 225 -32 313 -36 788 -41 216 -3 397 -7 403 -11 17 -10 671 -6 682 5 12 12
13 41 4 156 -21 272 -26 358 -22 365 4 6 -1 70 -20 255 -4 33 -8 229 -10 435
-7 616 -20 1105 -31 1168 -4 20 -13 49 -21 65 -13 25 -18 27 -75 27 -34 0 -89
4 -122 9 -34 5 -108 15 -166 21 -58 6 -136 16 -175 22 -38 6 -180 12 -315 14
-135 2 -265 5 -290 8 -25 2 -103 7 -175 11 -306 16 -431 24 -450 29 -11 4 -25
3 -31 -1z m456 -119 c118 -3 229 -9 245 -13 17 -4 122 -8 235 -10 113 -1 257
-7 320 -12 63 -5 149 -12 190 -15 41 -3 102 -10 135 -15 33 -5 83 -9 111 -9
l51 0 6 -67 c3 -38 6 -133 7 -211 0 -79 2 -148 6 -153 3 -5 7 -236 9 -512 2
-276 9 -560 16 -632 6 -71 11 -143 12 -160 0 -29 10 -187 24 -405 4 -58 7
-120 7 -139 l1 -35 -190 -4 c-104 -3 -219 -5 -255 -6 -36 0 -126 3 -200 8 -74
4 -315 9 -535 11 -220 1 -420 5 -445 9 -195 27 -261 37 -288 47 -18 6 -74 9
-127 7 l-95 -3 0 30 c0 108 -12 649 -21 963 -11 381 -5 893 12 924 8 15 13 15
42 4 17 -8 52 -17 77 -21 25 -4 74 -17 110 -30 97 -34 279 -78 296 -71 20 8
15 80 -11 146 -9 25 -29 95 -45 155 -28 108 -55 190 -71 211 -15 19 0 22 79
18 42 -2 174 -7 292 -10z m-391 -150 c11 -28 24 -77 30 -110 5 -32 19 -81 30
-107 12 -27 21 -51 21 -54 0 -10 -94 9 -165 32 -38 13 -86 26 -105 29 -63 12
-120 28 -120 35 0 4 56 70 125 147 69 76 125 144 125 149 0 12 30 -49 59 -121z"/>
<path d="M6126 10528 c-18 -14 -17 -15 5 -42 23 -26 29 -27 139 -33 63 -3 371
-6 685 -7 l570 -1 16 -115 c9 -63 15 -132 13 -153 -9 -104 -21 -580 -28 -1132
-2 -211 3 -372 17 -511 l4 -41 -196 3 c-108 2 -230 8 -271 14 -41 5 -156 7
-255 5 -320 -7 -555 -6 -568 2 -6 4 -37 8 -67 9 -30 1 -89 7 -130 13 -126 21
-194 31 -208 31 -8 0 -11 7 -8 18 3 9 8 199 10 422 3 223 8 479 12 570 5 144
4 179 -15 275 -11 61 -21 138 -21 172 0 34 -4 73 -10 88 -11 29 -36 43 -51 28
-14 -14 -18 -110 -7 -163 5 -25 12 -58 14 -75 9 -53 20 -238 17 -295 -1 -30
-4 -246 -7 -480 -2 -234 -8 -469 -12 -524 -9 -120 -11 -118 126 -123 52 -2
131 -8 175 -13 44 -6 125 -16 180 -22 59 -7 254 -13 480 -13 403 -1 827 -11
856 -20 25 -8 30 25 19 160 -13 161 -15 340 -6 775 11 595 12 980 1 1065 -12
97 -21 103 -142 104 -46 0 -88 3 -93 6 -9 5 -115 6 -615 5 -165 -1 -370 2
-455 5 -126 6 -158 4 -174 -7z"/>
<path d="M6927 10075 c-27 -14 -54 -25 -62 -25 -7 0 -46 -36 -87 -80 l-73 -80
-30 28 c-102 93 -207 142 -308 142 -130 0 -167 -53 -142 -204 7 -44 18 -100
25 -124 7 -23 11 -43 9 -45 -2 -1 -44 -12 -94 -25 -49 -12 -101 -30 -115 -40
-76 -56 -71 -179 11 -261 32 -32 50 -40 150 -64 63 -15 133 -30 157 -33 23 -4
42 -10 42 -14 0 -4 -9 -29 -19 -56 -20 -49 -48 -139 -71 -226 -8 -30 -19 -48
-31 -51 -22 -6 -34 -34 -43 -103 -7 -46 -5 -54 19 -83 54 -64 129 -73 295 -36
83 18 123 42 206 122 31 29 60 53 64 53 5 0 39 -34 76 -75 37 -41 81 -79 96
-86 34 -14 170 -7 176 10 2 6 12 11 23 11 30 0 48 40 54 125 6 70 3 94 -25
195 -17 63 -34 125 -37 137 -5 22 -3 23 53 21 79 -2 178 46 187 89 16 79 -27
221 -85 284 -34 37 -125 98 -157 106 -14 3 -29 7 -32 9 -3 2 0 31 7 66 23 106
-1 204 -65 274 -64 71 -97 78 -174 39z m132 -96 c42 -58 58 -136 41 -202 -22
-90 -21 -89 -111 -84 l-80 3 -69 59 c-39 33 -70 61 -70 63 0 3 15 30 34 61 36
59 75 94 135 123 61 28 87 23 120 -23z m-551 -22 c56 -29 148 -105 157 -129 6
-17 -31 -98 -46 -98 -5 0 -9 -7 -9 -15 0 -12 -13 -15 -57 -16 -32 0 -91 -1
-131 -2 -48 -2 -77 2 -84 10 -18 23 -38 107 -45 190 l-6 81 29 5 c60 10 144
-1 192 -26z m259 -231 c27 -28 21 -36 -24 -36 -35 0 -36 2 -27 38 8 28 23 28
51 -2z m-205 -112 c4 -2 -5 -30 -19 -62 -57 -130 -53 -124 -69 -111 -8 6 -14
17 -14 23 0 7 -16 42 -35 79 -19 37 -35 72 -35 78 0 8 24 10 82 4 46 -4 86 -9
90 -11z m271 1 l48 2 54 -76 c34 -48 54 -87 55 -104 0 -35 -28 -123 -44 -136
-17 -14 -245 -11 -342 4 -45 8 -69 37 -54 65 6 12 9 24 6 27 -3 3 4 17 14 31
11 13 20 30 20 37 0 9 54 121 75 155 2 4 30 3 62 0 32 -4 80 -6 106 -5z m-464
-120 c31 -61 63 -120 71 -132 24 -38 4 -44 -95 -28 -50 8 -124 25 -165 38 -67
22 -77 28 -96 63 -32 59 -23 105 26 133 21 11 46 21 56 22 11 0 35 6 54 12 70
25 86 13 149 -108z m681 108 c0 -26 -11 -63 -19 -63 -5 0 -37 47 -49 73 -2 4
12 7 32 7 28 0 36 -4 36 -17z m188 -16 c92 -75 127 -130 134 -207 2 -37 -1
-45 -23 -62 -37 -28 -97 -37 -157 -25 -49 10 -50 12 -82 78 l-33 67 25 64 c14
34 28 76 32 92 6 26 9 28 42 21 19 -3 47 -16 62 -28z m-636 -414 c36 -38 71
-79 78 -92 7 -13 32 -49 56 -78 24 -30 44 -58 44 -63 0 -13 -92 -102 -139
-135 -30 -20 -67 -32 -145 -45 -123 -22 -163 -16 -158 21 2 13 8 29 12 34 5 6
11 28 15 50 4 22 11 45 15 50 9 14 35 88 55 159 27 97 61 166 83 166 10 0 48
-30 84 -67z m308 41 c2 -3 -1 -13 -8 -22 -7 -9 -15 -24 -18 -32 -19 -53 -65
-140 -74 -140 -6 0 -23 18 -38 40 -15 23 -48 67 -74 99 -27 33 -48 63 -48 68
0 8 251 -4 260 -13z m192 -10 c3 -2 19 -41 34 -87 15 -45 33 -94 40 -109 8
-15 15 -61 16 -102 2 -70 0 -77 -26 -105 -33 -34 -94 -48 -131 -29 -27 15
-165 163 -165 179 0 5 9 27 20 49 11 22 20 43 20 48 0 4 21 45 47 91 l47 83
45 -7 c25 -4 49 -9 53 -11z"/>
<path d="M6760 9551 c-29 -11 -60 -27 -67 -37 -17 -24 -17 -84 1 -110 20 -28
85 -46 138 -38 51 8 108 47 108 74 0 35 -31 98 -55 114 -31 21 -57 20 -125 -3z"/>
<path d="M4676 10020 c-27 -9 -163 -27 -252 -34 -23 -2 -46 -6 -51 -9 -5 -3
-32 -9 -59 -12 -51 -7 -94 -36 -94 -65 0 -37 97 -197 155 -256 33 -33 95 -98
137 -144 84 -90 102 -96 114 -35 3 19 14 61 24 93 20 63 42 76 85 48 68 -44
233 -77 410 -82 77 -2 293 -22 303 -28 4 -2 17 3 29 12 27 22 16 55 -24 76
-36 18 -162 36 -257 36 -102 0 -289 25 -371 51 -38 11 -80 23 -93 26 -22 5
-23 9 -17 54 4 27 15 76 25 110 21 67 19 106 -6 144 -18 27 -16 27 -58 15z"/>
<path d="M9052 9690 c-19 -4 -53 -22 -77 -39 -24 -17 -51 -31 -60 -31 -9 0
-54 -11 -99 -24 -114 -34 -192 -53 -261 -65 -33 -6 -96 -17 -140 -25 -44 -8
-89 -14 -100 -14 -11 1 -66 -5 -123 -12 -57 -7 -142 -13 -190 -14 -86 -1 -87
-1 -90 -27 -5 -40 35 -61 122 -63 66 -1 163 8 211 20 12 3 48 7 80 9 33 2 85
9 115 15 30 6 78 15 105 19 218 37 257 49 472 143 24 10 45 18 47 18 3 0 17
11 31 24 23 21 24 27 14 50 -7 14 -15 26 -18 25 -3 -1 -21 -5 -39 -9z"/>
<path d="M17931 8822 c-6 -11 -14 -39 -17 -63 -7 -41 -106 -261 -189 -421 -19
-37 -35 -72 -35 -78 0 -23 -150 -198 -219 -255 -40 -33 -92 -76 -115 -96 -24
-19 -58 -41 -77 -49 -19 -8 -47 -24 -64 -36 -16 -12 -41 -25 -55 -29 -14 -4
-42 -18 -62 -31 -37 -24 -54 -31 -173 -73 -33 -12 -69 -26 -80 -31 -19 -9
-141 -47 -264 -84 -29 -9 -61 -16 -70 -16 -9 0 -21 -4 -27 -10 -25 -25 -340
-48 -435 -31 -51 10 -73 10 -89 1 -33 -18 -22 -52 25 -75 36 -18 57 -20 215
-18 141 2 190 6 250 23 41 11 104 27 139 35 36 8 67 19 70 24 3 5 26 12 51 15
25 4 68 16 95 26 28 11 70 24 95 30 44 11 210 86 220 99 3 4 25 15 49 26 24
10 59 32 79 47 19 15 43 28 53 28 11 0 19 4 19 10 0 5 15 16 33 23 33 15 71
43 118 90 15 15 32 27 38 27 6 0 11 5 11 11 0 6 19 30 43 53 131 130 189 222
308 491 9 22 22 51 28 65 6 14 23 40 36 59 14 19 34 65 46 103 17 59 18 72 7
96 -16 33 -43 40 -57 14z"/>
<path d="M14920 8699 c-36 -4 -101 -11 -145 -14 -99 -8 -103 -9 -114 -37 -9
-24 -10 -24 -26 27 -9 30 -36 29 -61 -1 -13 -16 -26 -38 -30 -49 -4 -11 -24
-40 -45 -66 -22 -25 -39 -48 -39 -51 0 -4 -23 -29 -52 -56 -43 -41 -55 -48
-69 -39 -13 8 -24 8 -43 -3 -28 -14 -35 -45 -12 -53 20 -8 27 -71 32 -302 2
-115 6 -262 9 -325 2 -63 1 -137 -3 -165 -5 -27 -5 -64 -1 -82 3 -17 3 -35 -2
-40 -7 -8 -23 -272 -21 -358 0 -22 5 -71 10 -110 5 -38 6 -74 2 -80 -4 -5 -10
-22 -14 -37 -5 -23 -2 -30 23 -43 24 -12 36 -13 58 -4 15 7 60 14 98 16 39 2
80 9 91 14 15 8 27 8 42 0 13 -7 89 -11 199 -12 98 0 189 -1 203 -1 23 0 505
12 560 14 14 1 63 -2 110 -6 167 -13 152 -14 162 19 7 27 3 209 -7 305 -10 99
-25 344 -24 410 0 41 -2 199 -4 350 -4 298 4 464 29 577 13 58 14 79 4 107 -6
20 -15 38 -20 41 -4 3 -68 7 -142 10 -198 9 -387 26 -470 44 -53 11 -202 11
-288 0z m-164 -104 c52 -5 79 -3 106 8 28 12 74 15 209 13 96 -1 179 -4 184
-8 18 -11 197 -29 330 -33 158 -4 185 -12 185 -55 0 -17 -5 -40 -10 -51 -27
-50 -45 -590 -26 -754 3 -22 5 -107 6 -190 0 -82 8 -211 16 -285 8 -74 15
-179 17 -234 l2 -98 -55 8 c-30 4 -89 7 -130 7 -163 0 -318 0 -375 0 -33 0
-90 -3 -126 -6 -37 -3 -209 -7 -384 -9 l-318 -3 -5 30 c-11 75 -6 543 6 610 8
42 11 102 8 150 -11 156 -18 595 -9 595 4 0 43 -18 86 -40 43 -22 99 -43 125
-47 26 -3 59 -12 74 -19 44 -22 61 -18 54 12 -4 14 -2 32 4 39 10 12 6 34 -54
275 -29 118 -29 112 -8 101 9 -5 49 -12 88 -16z m-148 -97 c12 -40 24 -89 26
-108 3 -19 8 -55 12 -79 6 -35 4 -43 -7 -38 -8 3 -39 14 -69 24 -30 10 -61 23
-68 30 -7 7 -19 13 -25 13 -7 0 -23 9 -36 19 l-24 18 59 70 c32 38 68 81 79
96 11 15 22 27 25 27 3 0 15 -33 28 -72z"/>
<path d="M15525 8530 c-215 -24 -615 -28 -729 -9 -37 7 -62 7 -68 1 -15 -15
10 -47 52 -65 48 -20 341 -48 383 -36 16 5 53 8 81 7 29 -1 57 2 63 5 6 4 73
8 150 10 l138 2 -3 -25 c-1 -14 -4 -161 -6 -327 -2 -184 -7 -312 -14 -330 -23
-59 -30 -194 -15 -303 11 -88 11 -89 18 -210 3 -63 8 -121 10 -128 3 -7 -2
-15 -11 -19 -18 -7 -662 15 -773 26 -40 4 -94 4 -120 -1 -25 -5 -70 -11 -100
-15 l-54 -6 6 105 c3 57 2 110 -3 118 -6 9 -5 17 2 21 12 8 17 331 6 399 -3
19 -9 111 -13 203 -5 102 -12 170 -19 175 -42 26 -59 -7 -51 -101 4 -40 9 -79
12 -87 6 -17 11 -92 12 -158 0 -23 3 -47 6 -52 8 -13 9 -241 2 -325 -9 -93
-18 -206 -22 -282 -6 -88 -2 -89 149 -74 67 8 136 11 152 7 16 -3 92 -8 169
-12 77 -3 144 -8 148 -11 4 -2 117 -6 250 -9 133 -2 258 -6 278 -9 33 -6 37
-4 43 20 4 14 4 29 2 34 -3 4 -7 52 -10 107 -9 146 -15 218 -25 287 -12 82 -7
188 13 262 8 33 15 69 16 80 0 11 2 148 4 305 2 157 9 309 15 338 19 93 10 98
-144 82z"/>
<path d="M14824 8236 c-43 -19 -69 -61 -83 -133 -13 -66 -9 -97 20 -154 l18
-36 -52 -22 c-79 -35 -137 -98 -137 -150 0 -27 61 -95 104 -115 28 -13 92 -24
157 -26 17 0 34 -50 18 -50 -5 0 -16 -15 -25 -32 -10 -18 -29 -49 -44 -68 -39
-51 -54 -108 -35 -137 8 -12 15 -33 15 -46 0 -30 28 -50 96 -70 45 -13 53 -13
84 3 19 10 67 48 105 84 l70 66 19 -22 c10 -13 23 -30 30 -38 21 -28 48 -44
80 -47 17 -1 54 -5 82 -9 63 -8 91 5 110 53 17 40 14 57 -43 196 -40 97 -38
107 22 107 19 0 45 12 68 31 34 28 37 35 37 80 0 66 -28 120 -74 142 -20 9
-46 17 -56 17 -25 0 -25 1 0 47 32 60 27 130 -17 227 -40 89 -45 96 -86 96
-26 0 -145 -79 -174 -117 -11 -14 -17 -12 -50 18 -46 42 -161 107 -200 114
-15 3 -42 -1 -59 -9z m101 -81 c22 -14 45 -25 51 -25 6 0 31 -20 56 -44 l44
-44 -23 -44 c-12 -24 -27 -53 -32 -66 -10 -21 -16 -23 -83 -20 l-72 3 -33 63
c-43 84 -46 150 -7 181 34 27 50 26 99 -4z m401 -12 c7 -10 14 -28 14 -40 0
-13 6 -23 13 -23 9 0 12 -19 12 -62 0 -48 -6 -74 -25 -108 -22 -39 -30 -45
-59 -45 -20 0 -37 6 -42 15 -73 127 -78 141 -67 166 10 21 120 114 135 114 3
0 12 -8 19 -17z m-181 -242 c6 -20 4 -23 -10 -18 -9 4 -23 7 -30 7 -11 0 -11
6 -2 30 9 23 14 27 23 17 7 -6 15 -23 19 -36z m-298 -109 c12 -24 29 -54 37
-67 22 -34 21 -65 -3 -65 -11 0 -23 5 -26 10 -3 6 -36 10 -71 10 -59 0 -68 3
-95 29 -16 16 -29 36 -29 45 0 28 110 89 150 83 8 -1 25 -21 37 -45z m116 3
c-16 -33 -33 -38 -33 -11 0 8 -7 20 -17 27 -15 13 -13 15 13 20 48 9 55 2 37
-36z m162 4 c4 -6 -2 -9 -17 -8 -48 4 -58 0 -58 -26 0 -14 -4 -25 -10 -25 -21
0 -8 -25 35 -67 45 -42 45 -43 18 -42 -45 2 -75 13 -89 34 -11 17 -9 28 9 70
12 28 26 56 30 63 10 15 73 16 82 1z m85 -19 c20 -20 29 -87 10 -75 -5 3 -10
16 -10 27 0 12 -10 32 -22 45 -26 28 -6 31 22 3z m248 -17 c28 -25 37 -82 14
-89 -9 -3 -26 -10 -37 -14 -34 -14 -70 -20 -80 -12 -6 4 -16 24 -23 44 -14 39
-6 71 20 81 29 12 87 6 106 -10z m-453 -219 c47 -50 77 -113 70 -144 -8 -37
-126 -140 -160 -140 -40 0 -75 18 -85 44 -7 21 -1 41 35 115 25 49 45 95 45
101 0 52 56 66 95 24z m145 18 c0 -14 -25 -62 -32 -62 -7 0 -38 53 -38 65 0 3
16 5 35 5 19 0 35 -4 35 -8z m172 -27 c6 -14 15 -25 20 -25 4 0 8 -15 8 -34 0
-18 9 -45 20 -58 10 -14 22 -44 26 -66 6 -38 4 -42 -20 -53 -20 -9 -35 -9 -64
-1 -52 16 -126 74 -142 111 -11 26 -10 34 9 60 12 16 21 33 21 37 0 4 10 18
22 31 31 33 84 32 100 -2z"/>
<path d="M13240 8325 c-7 -8 -10 -15 -7 -15 3 0 -8 -27 -24 -60 -16 -33 -29
-71 -29 -84 0 -14 -14 -40 -33 -59 -18 -19 -39 -58 -48 -86 -14 -46 -14 -53
-1 -60 10 -6 13 -17 8 -35 -3 -14 -8 -36 -11 -48 -10 -42 6 -52 66 -39 30 7
75 19 100 27 77 24 189 12 189 -20 0 -7 10 -21 23 -33 12 -11 36 -36 52 -56
17 -21 55 -54 85 -73 30 -20 64 -45 75 -55 34 -31 149 -90 336 -173 75 -33
209 -28 209 8 0 14 -53 56 -71 56 -18 0 -115 29 -184 55 -105 40 -275 138
-320 185 -16 17 -34 30 -40 30 -12 0 -105 91 -105 103 0 4 13 7 30 7 16 0 51
5 77 11 80 19 77 18 63 34 -7 8 -10 21 -7 29 7 17 -9 32 -43 41 -32 8 -103 75
-137 128 -14 22 -60 75 -102 118 -63 64 -84 79 -108 79 -17 0 -36 -7 -43 -15z"/>
<path d="M10725 8280 c-36 -16 -125 -104 -225 -222 -18 -21 -36 -38 -42 -38
-5 0 -23 -14 -41 -30 -18 -17 -49 -35 -69 -42 -40 -12 -50 -25 -41 -56 3 -15
24 -26 76 -42 40 -12 85 -26 101 -31 16 -5 46 -9 67 -9 21 0 40 -4 43 -8 2 -4
-4 -27 -15 -51 -10 -24 -19 -48 -19 -55 0 -19 -61 -138 -98 -191 -20 -27 -53
-75 -74 -105 -41 -59 -40 -58 -288 -304 -91 -90 -205 -206 -254 -257 -81 -84
-158 -154 -272 -244 -52 -41 -87 -63 -164 -102 -36 -18 -72 -37 -80 -42 -8 -5
-28 -16 -45 -24 -16 -7 -59 -29 -95 -49 -36 -19 -87 -43 -115 -53 -27 -10 -54
-22 -60 -26 -13 -9 -240 -76 -285 -83 -19 -3 -73 -6 -120 -7 -47 0 -114 -5
-150 -9 -36 -5 -123 -14 -195 -20 -71 -7 -157 -18 -190 -26 -33 -8 -159 -20
-280 -29 -121 -8 -265 -21 -320 -30 -145 -22 -220 -20 -366 11 -16 4 -30 0
-38 -10 -20 -24 4 -75 38 -81 14 -3 40 -10 57 -15 39 -13 176 -13 284 0 47 6
121 13 165 15 44 3 127 10 185 15 58 6 139 13 180 16 41 4 98 12 125 20 52 14
73 17 335 34 289 20 366 32 415 64 13 9 35 16 48 16 31 0 135 28 171 46 16 7
35 14 42 14 7 0 19 6 26 13 7 6 70 41 138 76 69 35 132 69 140 75 8 7 26 18
40 24 51 26 74 41 82 56 5 9 15 16 22 16 7 0 21 9 32 21 10 12 35 30 54 40 43
23 80 54 80 67 0 6 10 14 23 18 12 4 27 15 34 24 23 32 189 205 308 319 254
245 361 359 377 401 4 10 11 21 17 25 6 3 21 25 32 48 12 23 25 44 28 47 9 7
71 144 71 156 0 6 9 30 21 53 11 24 18 49 15 57 -3 7 -2 15 2 18 12 7 144 -20
201 -43 30 -11 56 -19 58 -18 15 16 -2 141 -22 157 -8 6 -21 46 -31 88 -9 42
-29 128 -45 189 -16 62 -29 115 -29 117 0 13 -30 11 -65 -4z"/>
<path d="M11275 8248 c-46 -106 -125 -327 -125 -353 0 -37 -121 -302 -175
-382 -78 -118 -170 -244 -199 -276 -15 -16 -55 -65 -89 -110 -35 -45 -76 -96
-92 -113 -47 -49 -135 -152 -135 -157 0 -12 -57 -71 -269 -284 -178 -180 -243
-238 -320 -288 -54 -35 -103 -71 -111 -80 -13 -15 -115 -85 -124 -85 -2 0 -64
-29 -138 -64 -73 -35 -155 -69 -183 -76 -27 -7 -63 -22 -78 -33 -35 -24 -113
-53 -169 -62 -24 -4 -61 -14 -83 -22 -22 -8 -83 -21 -135 -28 -180 -25 -245
-37 -290 -51 -25 -8 -58 -14 -73 -14 -16 0 -49 -6 -75 -14 -124 -37 -381 -62
-682 -66 l-135 -2 2 54 c4 119 4 160 0 165 -13 12 -44 -10 -67 -47 -14 -22
-30 -40 -37 -40 -7 0 -28 -13 -46 -30 -19 -16 -61 -40 -93 -52 -70 -26 -134
-66 -134 -83 0 -18 41 -52 72 -59 31 -7 111 -81 186 -173 75 -89 111 -94 119
-16 2 21 5 51 7 67 2 15 -1 49 -6 74 -4 25 -5 49 0 54 4 4 59 7 122 6 234 -2
268 -1 390 9 152 13 190 19 385 64 44 10 115 23 159 28 43 6 82 14 87 16 5 3
46 12 91 20 144 25 222 43 258 58 19 9 51 22 72 31 20 9 43 16 52 16 14 0 78
31 101 50 6 5 35 15 67 25 31 9 62 22 68 30 6 8 42 26 78 40 37 14 83 34 102
45 19 10 53 27 75 38 22 11 58 36 80 56 22 20 44 36 48 36 14 0 135 90 154
114 10 12 34 32 53 45 19 13 62 51 95 85 34 33 103 102 155 151 96 91 209 214
239 258 24 37 72 98 118 153 22 27 76 91 119 143 44 51 89 109 101 129 12 20
28 41 35 47 12 9 23 23 68 90 8 12 34 49 57 82 23 33 60 96 81 139 38 75 102
252 102 281 0 7 12 42 26 77 14 36 26 71 28 78 1 7 5 19 9 25 4 7 16 36 26 65
10 29 24 67 31 84 27 63 -27 94 -55 32z"/>
<path d="M18716 8200 c-20 -34 -36 -67 -36 -73 0 -21 -34 -112 -53 -141 l-18
-27 -87 72 c-115 95 -199 149 -232 149 -23 0 -31 -8 -49 -45 -12 -25 -21 -53
-21 -64 0 -29 -35 -104 -58 -125 -13 -11 -30 -16 -44 -13 -86 20 -159 42 -194
58 -51 24 -66 24 -89 -1 -17 -19 -17 -24 5 -127 13 -60 24 -132 26 -160 1 -29
7 -60 14 -68 7 -9 11 -18 8 -20 -3 -3 -37 -14 -77 -24 -39 -10 -78 -24 -86
-31 -8 -7 -65 -16 -127 -22 -62 -5 -129 -12 -148 -16 -33 -7 -35 -9 -38 -54
-3 -41 2 -53 33 -95 20 -26 52 -61 71 -78 92 -79 164 -153 164 -169 0 -12 -5
-16 -19 -11 -10 3 -38 1 -62 -5 -24 -7 -62 -15 -84 -20 -22 -4 -54 -13 -71
-19 -30 -11 -32 -16 -38 -78 -8 -76 -2 -86 64 -117 25 -12 63 -33 85 -47 22
-14 57 -34 78 -44 22 -10 41 -24 44 -31 7 -19 -38 -55 -133 -109 -91 -51 -118
-77 -128 -117 -3 -16 -9 -39 -12 -51 -7 -31 27 -51 153 -92 51 -17 91 -34 90
-40 -2 -5 -20 -19 -39 -30 -72 -40 -149 -97 -166 -123 -9 -14 -18 -44 -18 -67
-1 -22 -5 -50 -9 -62 -5 -16 -1 -24 15 -33 31 -17 204 -65 263 -74 53 -8 54
-22 2 -32 -19 -3 -40 -13 -46 -21 -7 -8 -30 -23 -50 -34 -21 -10 -42 -25 -46
-32 -4 -7 -25 -26 -45 -41 -28 -21 -38 -36 -38 -56 0 -16 -7 -30 -16 -34 -45
-17 24 -90 111 -116 54 -16 195 -83 195 -93 0 -4 -12 -13 -27 -19 -16 -7 -56
-30 -89 -53 -34 -22 -75 -47 -92 -57 -17 -9 -38 -28 -47 -42 -16 -25 -16 -28
-1 -45 9 -10 14 -25 10 -35 -9 -24 19 -51 69 -66 23 -6 58 -18 77 -26 19 -7
53 -16 75 -20 36 -5 84 -20 169 -53 34 -14 28 -24 -47 -75 -29 -19 -75 -57
-104 -85 -49 -46 -52 -52 -46 -88 3 -21 12 -43 19 -49 8 -6 14 -16 14 -23 0
-23 54 -31 216 -34 106 -1 164 -6 164 -12 0 -13 -58 -126 -92 -180 -39 -61
-41 -78 -18 -118 22 -38 35 -42 150 -51 63 -5 218 13 259 30 18 8 43 14 56 14
20 0 21 -4 18 -57 -3 -32 -7 -85 -11 -118 -12 -104 -9 -112 51 -126 67 -14 76
-11 296 127 l44 28 18 -22 c9 -12 27 -53 39 -90 19 -58 43 -119 70 -172 4 -10
31 -18 74 -23 l67 -8 44 38 c81 72 133 113 142 112 10 0 133 -155 133 -167 0
-11 66 -42 90 -42 11 0 20 4 20 10 0 5 13 7 29 4 27 -6 38 2 119 86 l88 92 17
-39 c9 -21 26 -65 39 -98 19 -52 28 -63 62 -79 36 -18 42 -18 66 -4 19 11 32
12 49 4 20 -9 27 -5 58 29 19 22 65 80 101 129 37 49 72 91 78 93 5 2 20 -15
33 -36 35 -63 118 -157 149 -170 58 -24 112 37 181 202 19 46 33 57 46 37 4
-6 23 -19 44 -29 32 -17 77 -50 141 -104 15 -12 77 -37 96 -37 14 0 50 89 70
175 37 159 31 147 67 139 18 -3 48 -14 67 -24 19 -9 47 -20 62 -24 14 -3 39
-17 55 -30 63 -53 133 -73 133 -38 0 10 10 29 22 42 21 23 23 34 23 162 1 75
3 140 7 143 3 3 18 -1 34 -9 16 -8 56 -25 89 -38 33 -12 72 -30 87 -40 37 -25
51 -23 70 15 58 116 57 145 -12 331 -11 32 -19 60 -18 62 2 2 28 -3 58 -11 30
-8 67 -15 82 -15 15 0 63 -12 107 -26 45 -14 87 -24 94 -21 6 2 20 25 29 51
17 45 17 47 -4 84 -12 20 -27 44 -33 52 -6 8 -20 35 -30 60 -11 25 -34 63 -52
84 -18 22 -33 42 -33 46 0 5 51 22 115 36 17 4 46 20 65 34 19 15 46 30 60 33
43 10 61 31 76 86 l13 53 -74 74 -74 75 27 10 c39 14 92 42 102 54 5 6 13 37
18 69 8 52 7 60 -11 77 -12 10 -24 19 -27 19 -4 0 -40 32 -81 71 -40 39 -84
78 -96 86 -27 18 -30 33 -7 33 18 0 158 74 187 98 19 17 23 67 6 77 -6 4 -8
14 -5 22 6 15 -34 57 -154 162 -27 25 -50 48 -50 52 0 11 134 89 153 89 19 0
27 38 24 114 -2 48 -3 49 -41 63 -22 7 -47 19 -55 26 -9 8 -37 21 -63 31 -80
29 -80 38 -6 114 73 74 85 99 64 127 -10 13 -11 26 -5 43 15 40 -73 114 -173
146 -28 9 -22 21 37 71 30 26 55 52 55 58 0 5 18 29 40 53 30 33 40 52 40 77
0 19 -3 37 -7 41 -5 4 -8 17 -8 29 0 31 -81 72 -172 87 -112 18 -179 43 -175
66 23 131 28 247 12 289 -9 25 -13 26 -53 20 -23 -4 -58 -17 -77 -30 -63 -41
-227 -125 -244 -125 -9 0 -19 8 -22 18 -3 9 -12 28 -20 42 -7 14 -42 80 -76
147 -35 68 -66 123 -70 123 -4 0 -33 -22 -64 -50 -31 -27 -61 -50 -66 -50 -4
0 -34 -20 -65 -44 -32 -25 -81 -54 -109 -65 l-51 -20 -48 97 c-26 53 -58 111
-71 129 -13 17 -24 38 -24 46 0 9 -5 17 -12 19 -14 5 -87 -41 -143 -91 -65
-58 -125 -105 -153 -120 -25 -13 -28 -12 -54 20 -16 19 -58 93 -95 166 -37 73
-72 133 -78 133 -17 0 -135 -124 -135 -143 0 -9 -6 -17 -12 -17 -7 0 -46 -32
-86 -70 -40 -39 -79 -70 -85 -70 -7 0 -27 24 -44 53 -17 28 -53 76 -80 106
-45 50 -51 53 -80 47 -28 -7 -35 -14 -47 -54 -7 -26 -30 -72 -50 -102 -19 -30
-37 -59 -39 -65 -5 -12 -47 23 -47 40 0 6 -8 20 -18 31 -10 10 -48 56 -85 100
-71 86 -107 107 -133 75 -20 -24 -114 -128 -151 -167 -18 -19 -36 -34 -41 -34
-11 0 -114 108 -137 143 -24 38 -88 103 -112 116 -20 10 -25 7 -57 -49z m139
-150 c43 -52 95 -110 116 -128 l39 -34 28 24 c15 13 40 35 56 48 16 14 41 38
55 54 14 16 41 44 59 63 l33 34 49 -43 c27 -24 49 -50 50 -58 0 -19 117 -170
131 -170 6 0 18 7 27 17 16 15 115 152 137 188 9 15 16 12 52 -24 23 -22 52
-59 64 -83 33 -65 79 -102 79 -62 0 10 6 14 18 10 20 -6 62 26 62 48 0 9 5 16
11 16 5 0 55 45 111 101 55 55 101 99 103 97 1 -2 9 -16 18 -33 8 -16 26 -43
40 -59 14 -16 30 -48 36 -71 11 -45 66 -123 104 -148 23 -15 26 -14 70 17 48
34 73 56 143 123 24 23 57 49 74 58 l29 15 36 -52 c19 -29 35 -60 35 -68 0
-24 59 -138 77 -148 18 -11 51 -5 73 13 8 7 27 15 42 19 15 3 35 15 45 25 10
10 30 21 45 25 15 3 57 29 94 58 77 58 75 59 119 -38 12 -28 40 -78 61 -110
20 -33 43 -77 49 -99 16 -53 64 -64 56 -13 -1 12 51 48 70 48 10 0 20 4 23 9
6 9 84 56 156 93 55 29 62 20 59 -78 -2 -47 -9 -97 -16 -111 -7 -14 -13 -41
-13 -59 0 -31 4 -37 44 -53 24 -11 84 -27 132 -36 94 -18 164 -42 164 -56 0
-5 -45 -53 -99 -106 -54 -54 -103 -107 -109 -118 -20 -41 19 -86 118 -135 53
-27 110 -71 110 -85 0 -13 -27 -37 -80 -70 -38 -24 -97 -83 -129 -128 -13 -18
-11 -22 25 -53 21 -18 43 -33 49 -34 5 0 55 -23 112 -50 100 -48 125 -70 83
-70 -26 0 -78 -28 -150 -79 -72 -51 -70 -67 18 -151 87 -83 173 -156 192 -162
10 -4 6 -9 -15 -19 -16 -7 -37 -18 -45 -25 -8 -7 -35 -17 -60 -24 -67 -17
-139 -53 -146 -72 -12 -40 39 -99 194 -220 56 -44 102 -86 102 -94 0 -16 -18
-24 -105 -49 -68 -19 -138 -62 -143 -89 -6 -27 26 -54 108 -96 41 -21 86 -50
99 -64 14 -14 30 -26 38 -26 7 0 13 -6 13 -13 0 -8 -40 -23 -102 -40 -146 -40
-243 -75 -263 -97 -14 -15 -15 -22 -4 -42 18 -34 59 -89 91 -121 25 -26 78
-127 78 -148 0 -5 -13 -3 -28 5 -16 8 -63 18 -106 22 -42 4 -79 11 -82 15 -11
19 -75 9 -99 -16 -32 -31 -34 -102 -4 -177 11 -29 31 -86 44 -126 29 -91 23
-95 -75 -52 -96 42 -171 58 -205 42 -21 -10 -25 -18 -25 -49 2 -82 -7 -283
-12 -288 -3 -3 -18 5 -34 18 -40 33 -72 48 -193 87 l-103 34 -18 -22 c-10 -11
-21 -47 -25 -78 -4 -32 -13 -71 -20 -88 -7 -17 -18 -57 -25 -88 -7 -38 -16
-58 -26 -58 -8 0 -14 4 -14 9 0 4 -18 20 -39 34 -57 38 -143 115 -164 149 -11
15 -27 28 -38 28 -21 0 -62 -58 -73 -105 -4 -16 -14 -37 -22 -47 -9 -9 -22
-42 -31 -74 -16 -64 -30 -94 -41 -94 -4 0 -21 24 -39 53 -29 49 -122 158 -187
219 -30 27 -30 27 -60 10 -19 -11 -50 -53 -85 -113 -58 -101 -159 -230 -176
-225 -5 1 -19 27 -31 57 -36 92 -92 203 -114 227 -19 20 -23 21 -49 7 -33 -16
-109 -99 -154 -165 -40 -59 -68 -90 -82 -90 -7 0 -24 26 -38 58 -50 108 -137
246 -167 262 -29 15 -51 0 -96 -67 -48 -72 -118 -151 -161 -181 l-32 -22 -15
22 c-8 13 -27 59 -41 103 -14 44 -33 94 -41 112 -8 17 -14 40 -14 52 0 56
-100 46 -219 -22 -171 -98 -171 -98 -164 2 7 96 -14 239 -35 245 -34 10 -108
-4 -190 -35 -33 -13 -232 -23 -232 -12 0 5 4 13 9 18 26 28 120 235 123 270
l3 40 -55 7 c-30 4 -86 12 -125 19 -38 6 -101 13 -138 14 -38 2 -71 6 -74 9
-3 3 4 17 16 32 11 15 21 23 21 19 0 -14 55 28 121 93 57 56 67 71 66 99 -1
38 -23 49 -147 78 -41 9 -101 28 -133 42 -33 14 -69 26 -81 27 -26 3 -59 20
-75 39 -9 12 -3 20 35 46 26 17 51 31 55 31 4 0 39 18 78 41 75 43 73 40 71
117 0 4 -34 25 -74 47 -40 22 -100 56 -132 75 -33 19 -72 40 -87 47 -24 11
-26 15 -16 31 6 10 74 56 150 101 129 76 139 84 133 106 -4 15 -2 25 5 25 6 0
11 7 11 15 0 8 -8 15 -18 15 -9 0 -49 15 -87 34 -39 18 -99 43 -135 55 -36 12
-76 31 -90 42 l-24 21 39 33 c22 19 43 34 47 35 4 0 31 15 60 33 67 42 103 57
133 57 22 0 25 4 25 38 0 35 -4 39 -65 77 -80 49 -120 70 -162 86 -18 6 -33
14 -33 18 1 3 26 22 56 41 31 19 70 47 87 63 17 15 36 27 43 27 19 0 64 59 64
84 0 32 -117 139 -199 181 -36 18 -72 55 -65 66 2 4 31 9 65 13 68 8 153 38
184 65 11 10 27 21 37 24 13 5 15 15 11 49 -4 37 -14 52 -67 103 -34 33 -94
87 -133 120 l-72 60 62 12 c34 6 80 17 102 23 22 7 63 14 90 17 70 6 145 41
146 67 2 34 -2 60 -13 80 -6 11 -12 49 -13 85 -2 36 -8 79 -14 94 -13 32 -15
77 -3 77 10 0 146 -38 205 -57 28 -9 52 -12 57 -7 18 19 83 141 97 184 8 25
18 49 23 53 10 12 58 -14 113 -60 25 -21 66 -54 91 -73 26 -19 60 -45 75 -57
38 -30 46 -29 65 12 9 19 21 37 27 40 14 9 60 115 54 125 -3 5 -1 11 5 15 6 3
17 23 25 42 9 20 17 34 19 32 2 -2 39 -47 81 -99z"/>
<path d="M18251 7574 l-32 -29 16 -73 c22 -107 21 -122 -12 -122 -16 -1 -39
-10 -52 -21 -35 -28 -18 -53 38 -57 50 -4 55 -13 66 -127 6 -73 23 -115 45
-115 15 0 27 70 19 112 -4 24 -5 60 -2 81 l6 37 58 0 c33 0 59 4 59 10 0 18
-43 49 -91 66 -52 19 -51 17 -63 122 -5 54 3 59 126 64 54 2 101 7 105 11 12
13 -11 40 -40 48 -14 4 -69 10 -120 14 -94 7 -94 7 -126 -21z"/>
<path d="M19347 7438 c2 -24 9 -65 14 -91 14 -72 14 -70 -39 -63 -42 5 -51 3
-68 -15 -19 -21 -19 -21 8 -44 14 -12 47 -26 72 -29 43 -7 45 -8 36 -32 -13
-33 -13 -136 0 -168 11 -31 30 -33 54 -7 14 15 17 35 16 88 -4 113 -4 114 28
111 15 -1 51 4 80 11 86 21 63 52 -52 69 -50 7 -50 7 -59 52 -5 25 -14 51 -20
59 -7 7 -21 32 -32 54 -28 57 -44 59 -38 5z"/>
<path d="M18532 7374 c-27 -18 -27 -23 -2 -52 27 -32 60 -22 60 18 0 38 -29
55 -58 34z"/>
<path d="M21121 7349 c-95 -68 -100 -172 -12 -257 66 -64 86 -75 123 -68 61
12 90 61 43 71 -14 3 -37 7 -51 10 -14 3 -37 18 -52 32 l-26 26 54 16 c49 15
54 19 68 59 16 49 11 77 -19 115 -29 37 -74 36 -128 -4z m89 -64 c0 -17 -30
-35 -59 -35 -28 0 -27 28 2 40 34 13 57 12 57 -5z"/>
<path d="M19026 7305 c-20 -19 -36 -43 -36 -53 0 -23 43 -88 92 -141 l37 -39
-30 -6 c-17 -3 -39 0 -50 7 -17 10 -22 9 -35 -7 -8 -11 -14 -25 -14 -31 0 -22
64 -49 118 -50 48 0 57 3 83 33 27 30 28 34 14 55 -8 12 -30 33 -48 47 -43 31
-87 92 -87 119 0 19 6 21 55 21 54 0 55 0 55 30 0 35 -23 50 -78 50 -32 0 -47
-7 -76 -35z"/>
<path d="M20783 7291 c-76 -64 -93 -90 -100 -155 -5 -49 -3 -54 22 -74 55 -43
127 -16 166 62 14 29 26 43 32 37 17 -17 40 -125 44 -207 4 -80 4 -82 -24
-102 -26 -19 -51 -26 -80 -23 -24 2 -73 53 -73 76 0 24 -25 52 -34 37 -3 -5
-8 -26 -12 -48 -5 -34 -1 -44 26 -79 49 -62 80 -78 136 -69 56 8 103 46 128
103 17 37 17 46 3 138 -8 54 -20 114 -27 133 -7 19 -19 55 -28 79 -19 56 -46
84 -74 75 -18 -5 -20 -3 -13 12 27 68 -14 70 -92 5z m67 -55 c0 -27 -41 -106
-61 -116 -55 -30 -53 39 2 91 44 41 59 48 59 25z"/>
<path d="M20422 7294 c-67 -33 -99 -75 -107 -140 -7 -49 -6 -51 29 -82 49 -43
84 -42 129 2 19 18 39 41 44 51 14 24 24 16 51 -38 12 -25 33 -52 46 -60 22
-15 25 -15 40 2 21 23 20 26 -7 64 -13 18 -32 53 -41 80 -10 26 -21 47 -26 47
-11 0 -23 37 -24 70 -1 22 -6 25 -41 28 -28 2 -56 -5 -93 -24z m64 -91 c-22
-62 -45 -93 -70 -93 -45 0 -59 39 -28 76 25 30 95 73 105 65 4 -4 1 -26 -7
-48z"/>
<path d="M19976 7287 c-29 -23 -29 -24 -17 -75 7 -28 10 -60 6 -71 -3 -11 2
-36 13 -58 23 -44 33 -117 37 -263 2 -58 4 -108 4 -112 2 -18 29 -6 42 19 18
33 18 268 0 286 -25 25 -11 33 49 29 52 -4 66 -1 99 21 60 40 64 105 10 170
-61 74 -184 101 -243 54z m149 -60 c23 -11 75 -64 75 -76 0 -22 -121 -44 -148
-27 -7 4 -12 18 -12 32 0 14 -5 35 -11 46 -22 42 33 56 96 25z"/>
<path d="M18827 7280 c-32 -6 -77 -35 -98 -63 -6 -9 3 -68 20 -125 30 -102 86
-70 74 41 -5 54 -5 56 25 71 17 9 42 16 57 16 14 0 25 5 25 10 0 13 -46 60
-57 59 -4 -1 -25 -5 -46 -9z"/>
<path d="M18562 7250 c-16 -27 -15 -71 4 -136 16 -55 31 -66 54 -39 10 13 11
32 2 96 -7 44 -14 85 -17 90 -10 15 -29 10 -43 -11z"/>
<path d="M19404 6452 c-18 -12 -23 -39 -11 -56 7 -9 39 -27 72 -40 47 -20 78
-25 150 -25 49 0 107 -3 127 -6 41 -6 53 5 44 40 -5 20 -17 26 -75 39 -39 9
-91 16 -116 16 -25 0 -71 9 -102 20 -63 22 -73 23 -89 12z"/>
<path d="M19430 6193 c-23 -30 -24 -32 -6 -56 15 -19 99 -37 178 -37 60 0 149
21 155 36 2 6 13 10 24 7 14 -4 19 0 19 15 0 30 -48 42 -195 48 -71 3 -135 7
-142 9 -7 2 -21 -8 -33 -22z"/>
<path d="M21109 5914 c-21 -26 -14 -131 16 -231 7 -21 4 -23 -26 -23 -61 -1
-119 -74 -119 -149 0 -69 92 -127 156 -99 96 41 113 74 85 167 -11 36 -23 77
-25 91 -3 14 -10 43 -16 65 -6 22 -13 71 -15 109 -3 38 -8 73 -11 77 -8 14
-30 10 -45 -7z m37 -370 c33 -43 23 -56 -46 -52 -40 3 -45 6 -48 30 -2 18 4
31 20 42 33 23 44 20 74 -20z"/>
<path d="M18310 5802 c-120 -6 -141 -26 -94 -87 14 -19 31 -35 36 -35 5 0 52
-20 104 -45 72 -35 94 -50 94 -65 0 -13 -11 -25 -27 -32 -16 -7 -36 -19 -46
-27 -25 -21 -88 -4 -104 29 -14 29 -31 32 -47 8 -14 -23 3 -69 31 -83 11 -6
28 -17 37 -24 24 -20 72 -8 140 33 64 39 94 83 76 115 -16 32 -84 85 -138 110
-28 14 -52 28 -52 33 0 5 39 8 87 7 86 -2 87 -2 96 25 5 15 6 30 2 34 -7 7
-110 9 -195 4z"/>
<path d="M20806 5795 c-17 -13 -18 -18 -6 -40 21 -40 55 -30 55 15 0 39 -18
49 -49 25z"/>
<path d="M21390 5743 c-49 -21 -80 -63 -96 -133 l-14 -60 48 -51 c26 -28 61
-58 79 -65 48 -21 118 -17 174 9 65 29 62 51 -6 54 -124 7 -165 22 -97 38 56
12 81 118 40 170 -17 22 -78 58 -90 54 -2 -1 -19 -8 -38 -16z m64 -79 c31 -31
14 -60 -39 -66 -25 -2 -31 1 -33 20 -2 15 5 31 19 43 27 23 33 24 53 3z"/>
<path d="M20482 5720 c-12 -16 -22 -34 -22 -40 0 -31 127 -150 161 -150 6 0 7
-4 4 -10 -10 -17 -79 -11 -120 10 -39 20 -54 15 -55 -16 0 -16 48 -54 95 -75
41 -18 105 -17 105 1 0 4 12 11 26 14 41 11 71 106 33 106 -15 0 -142 85 -160
106 -9 11 -7 14 15 14 15 0 37 -5 48 -11 18 -10 25 -8 40 11 10 12 18 26 18
32 0 16 -68 38 -118 38 -42 0 -51 -4 -70 -30z"/>
<path d="M18655 5704 c-53 -28 -65 -44 -65 -92 0 -126 79 -215 198 -223 29 -2
45 3 62 19 13 12 27 22 32 22 4 0 12 8 17 18 9 16 4 17 -57 14 -55 -3 -75 1
-112 20 -54 28 -63 48 -22 48 33 0 116 32 126 48 3 6 9 31 12 56 6 43 5 46
-27 65 -41 25 -121 28 -164 5z m125 -64 c13 -9 13 -11 0 -20 -16 -11 -38 -13
-85 -10 -39 3 -44 9 -21 26 23 16 84 18 106 4z"/>
<path d="M18992 5687 c-12 -13 -22 -34 -22 -48 0 -33 -13 -51 -33 -44 -30 12
-39 -28 -17 -77 11 -23 20 -51 20 -61 0 -17 45 -67 59 -67 14 0 28 68 30 137
0 39 5 83 10 96 10 24 13 25 68 20 62 -5 93 -27 93 -65 0 -10 14 -48 31 -83
22 -47 38 -66 61 -76 28 -12 32 -11 49 10 11 13 19 31 19 40 0 25 52 164 68
184 14 16 14 19 -1 34 -29 30 -61 1 -95 -85 -33 -83 -46 -97 -56 -57 -16 64
-49 135 -62 135 -8 0 -14 -4 -14 -10 0 -15 -28 -12 -37 3 -11 18 -68 37 -113
37 -25 0 -43 -7 -58 -23z"/>
<path d="M19824 5666 c-38 -38 -38 -42 -28 -194 6 -79 10 -92 26 -98 34 -11
43 13 48 129 l5 111 30 8 c17 4 54 10 84 15 30 4 56 14 59 21 2 6 -3 12 -11
12 -8 0 -28 7 -43 15 -16 8 -53 15 -82 15 -48 0 -58 -4 -88 -34z"/>
<path d="M19546 5669 c-14 -11 -26 -26 -26 -34 0 -7 -7 -18 -15 -25 -9 -7 -14
-18 -12 -24 2 -6 -3 -24 -13 -41 -16 -28 -15 -31 8 -65 29 -42 76 -82 117 -98
35 -13 85 -13 85 -1 0 5 7 9 15 9 21 0 68 47 60 60 -4 6 -28 7 -60 4 -52 -6
-115 8 -115 25 0 4 21 18 48 31 26 13 49 24 50 26 13 10 20 83 11 105 -20 50
-105 66 -153 28z m92 -71 c-2 -16 -12 -24 -38 -29 -43 -9 -47 -6 -30 26 18 34
73 37 68 3z"/>
<path d="M20853 5593 c-11 -32 -23 -65 -27 -74 -4 -9 1 -25 13 -40 17 -21 21
-22 34 -9 18 18 35 115 27 149 -10 43 -26 33 -47 -26z"/>
<path d="M20130 5593 c-27 -6 -40 -36 -24 -57 10 -15 32 -20 96 -25 76 -5 87
-4 130 19 47 24 61 47 36 55 -17 5 -219 12 -238 8z"/>
<path d="M19995 5186 c-17 -12 -20 -26 -19 -98 0 -46 5 -111 10 -145 11 -63
11 -63 -13 -63 -95 0 -178 -135 -127 -208 46 -66 169 -68 231 -3 10 10 31 21
46 25 40 10 33 40 -11 44 -32 3 -43 17 -20 24 10 4 8 14 -4 44 -32 74 -41 129
-42 259 -1 139 -7 153 -51 121z m30 -426 c34 -35 28 -44 -37 -55 -49 -9 -78 1
-78 26 0 65 65 81 115 29z"/>
<path d="M19085 5067 c-8 -4 -15 -5 -15 -2 0 3 -10 -1 -21 -9 -12 -8 -27 -12
-33 -10 -13 5 -58 -35 -84 -75 -32 -48 -32 -166 -1 -248 9 -25 39 -31 39 -8 0
7 7 18 16 23 13 7 14 15 4 52 -7 26 -9 66 -5 98 8 65 34 94 125 137 33 16 60
32 60 36 0 11 -68 16 -85 6z"/>
<path d="M20888 4992 c-29 -2 -51 -16 -103 -64 -37 -34 -73 -74 -81 -90 l-15
-28 -23 27 c-21 24 -25 25 -44 12 l-20 -15 23 -64 c37 -107 53 -140 71 -147
23 -9 40 18 49 75 19 130 118 220 242 222 42 0 77 22 70 43 -6 20 -98 36 -169
29z"/>
<path d="M19581 4973 c-32 -6 -54 -29 -81 -83 -19 -37 -22 -54 -17 -112 3 -37
3 -69 -1 -72 -11 -6 -145 19 -167 32 -19 11 -18 11 7 12 141 1 180 188 43 207
-64 8 -120 -21 -146 -77 -35 -74 -38 -94 -20 -133 44 -95 179 -129 291 -74 18
9 39 17 45 17 18 0 28 45 26 117 -3 105 29 131 86 71 44 -47 65 -99 62 -152
-2 -33 2 -51 16 -66 18 -20 18 -20 37 -1 21 23 22 41 7 129 -11 60 -17 70 -68
123 -57 59 -78 69 -120 62z m-181 -103 c0 -22 -31 -39 -75 -42 -44 -3 -50 -1
-50 17 0 31 58 56 95 42 17 -6 30 -14 30 -17z"/>
<path d="M20299 4950 c-71 -37 -117 -151 -89 -219 19 -46 107 -117 169 -135
48 -14 57 -14 89 0 42 17 102 71 102 91 0 17 -25 16 -75 -2 -22 -8 -50 -15
-63 -15 -21 0 -102 35 -102 44 0 3 26 21 58 40 87 54 102 71 104 108 2 72 -19
92 -107 102 -37 4 -59 0 -86 -14z m105 -66 c42 -16 -6 -59 -77 -69 -56 -9 -61
4 -20 47 26 27 62 35 97 22z"/>
<path d="M4958 8083 c-9 -2 -19 -11 -22 -20 -10 -24 30 -80 62 -86 15 -3 55
-25 90 -49 34 -24 95 -65 135 -93 40 -27 93 -74 117 -102 24 -29 75 -85 112
-125 38 -40 76 -86 85 -103 8 -16 30 -48 47 -70 46 -58 79 -112 110 -180 16
-33 44 -82 62 -108 37 -52 116 -198 111 -204 -2 -2 -36 -7 -76 -12 -51 -7 -80
-16 -95 -30 -14 -13 -29 -18 -44 -14 -24 6 -62 -20 -62 -42 0 -7 19 -30 43
-52 41 -38 82 -54 172 -68 34 -5 52 -19 115 -86 42 -43 83 -79 91 -79 8 0 20
-5 27 -12 17 -17 42 8 42 43 0 17 12 41 29 61 39 45 81 126 75 143 -6 15 25
75 38 75 4 0 24 24 43 53 29 44 35 60 30 88 -3 18 -8 35 -11 38 -2 2 -25 -1
-52 -8 -26 -7 -63 -15 -82 -20 -19 -4 -46 -14 -60 -21 -14 -7 -38 -14 -55 -15
-16 -2 -44 -6 -60 -10 -29 -6 -32 -4 -50 33 -20 40 -57 106 -98 174 -12 20
-55 92 -94 160 -128 218 -304 436 -432 536 -111 87 -159 122 -164 122 -3 0
-34 17 -68 38 -73 44 -87 50 -111 45z"/>
<path d="M7870 7885 c-9 -11 -10 -26 -1 -62 5 -27 12 -88 15 -138 13 -254 19
-310 35 -326 23 -25 50 -2 57 47 3 22 7 49 10 61 5 28 61 93 80 93 19 0 44
-93 44 -167 0 -56 3 -64 25 -79 31 -20 59 -12 50 16 -3 10 -8 51 -10 90 -4 71
-25 147 -50 186 -26 40 -97 39 -147 -3 -23 -20 -28 -7 -32 95 -7 141 -22 202
-50 202 -8 0 -19 -7 -26 -15z"/>
<path d="M1649 7825 c-18 -25 -36 -45 -40 -45 -5 0 -16 -14 -24 -30 -25 -48
-174 -188 -237 -222 -52 -28 -57 -33 -52 -57 11 -44 40 -66 114 -85 44 -12 70
-24 70 -32 0 -8 -8 -40 -19 -71 -22 -70 -55 -261 -54 -323 0 -25 -4 -91 -9
-148 -9 -111 10 -304 38 -389 8 -24 19 -71 23 -105 11 -76 45 -168 83 -225 15
-23 28 -45 28 -48 0 -4 16 -27 36 -51 24 -28 44 -44 59 -44 37 0 36 26 -2 81
-19 29 -48 77 -64 108 -35 68 -107 332 -116 421 -8 75 -7 361 0 435 7 61 41
226 63 301 18 61 23 64 99 35 48 -18 135 -42 165 -45 55 -5 35 187 -46 441
-52 164 -62 172 -115 98z"/>
<path d="M6191 7806 c-12 -18 -21 -36 -21 -38 0 -13 -142 -237 -207 -328 -40
-55 -73 -108 -73 -118 0 -21 18 -42 37 -42 13 0 92 97 156 190 20 30 51 73 67
94 17 21 30 49 30 61 0 13 7 25 15 28 8 4 26 29 40 56 47 93 7 180 -44 97z"/>
<path d="M6354 7670 c-28 -4 -60 -13 -72 -19 -21 -11 -21 -12 -3 -49 11 -20
29 -59 41 -87 12 -27 33 -62 47 -77 37 -39 23 -49 -60 -46 -71 3 -72 3 -75
-23 -5 -40 21 -54 95 -53 77 2 117 17 132 50 16 35 14 40 -15 67 -14 13 -32
35 -40 48 -32 56 -52 104 -47 112 5 8 97 6 133 -4 10 -3 16 5 18 23 3 22 -3
32 -30 48 -35 21 -44 22 -124 10z"/>
<path d="M7420 7670 c-8 -5 -26 -11 -40 -14 -37 -8 -91 -45 -97 -65 -3 -10
-16 -24 -29 -30 -28 -12 -30 -25 -9 -74 8 -20 15 -57 15 -82 0 -51 14 -85 34
-85 19 0 39 45 32 74 -7 30 11 122 30 153 23 37 89 65 145 62 55 -3 63 1 55
29 -11 35 -96 55 -136 32z"/>
<path d="M7690 7641 c-25 -9 -52 -21 -61 -26 -26 -16 -48 -58 -50 -95 -2 -19
-6 -43 -11 -53 -6 -12 -2 -31 13 -61 26 -52 72 -76 148 -76 67 0 91 13 91 49
0 24 -5 30 -31 35 -17 3 -53 6 -78 6 -54 0 -71 12 -71 52 0 48 26 86 66 97 19
5 41 8 48 5 10 -4 13 6 11 33 -1 21 -3 41 -4 46 -2 10 -20 7 -71 -12z"/>
<path d="M7013 7571 c-67 -66 -113 -134 -113 -167 0 -27 40 -74 77 -89 49 -21
68 -19 95 8 50 50 55 51 83 20 24 -27 25 -28 40 -9 21 28 19 68 -5 89 -11 9
-20 25 -20 35 0 29 -49 165 -63 174 -19 12 -20 12 -94 -61z m71 -67 c12 -31 6
-54 -25 -89 -32 -36 -56 -44 -77 -23 -18 18 -15 25 34 78 51 54 59 58 68 34z"/>
<path d="M6690 7608 c-19 -5 -45 -20 -57 -33 -12 -13 -26 -25 -31 -26 -5 -2
-18 -25 -30 -51 -20 -45 -19 -77 2 -129 16 -38 92 -74 176 -84 41 -5 48 -2 83
29 40 38 44 48 24 64 -9 8 -26 8 -57 1 -48 -11 -150 -3 -150 11 0 5 18 19 40
31 22 13 40 26 40 29 0 4 19 13 43 20 23 8 48 18 55 23 30 23 -3 100 -51 117
-35 12 -40 12 -87 -2z m40 -86 c0 -11 -83 -53 -90 -46 -9 9 50 54 71 54 10 0
19 -4 19 -8z"/>
<path d="M9175 7132 c-51 -7 -65 -14 -75 -32 -9 -17 -6 -23 22 -40 26 -17 43
-19 83 -15 28 4 58 9 67 11 15 5 17 0 11 -28 -3 -18 -11 -42 -16 -53 -6 -11
-12 -27 -14 -35 -1 -8 -5 -30 -9 -49 -6 -28 -3 -37 17 -52 38 -29 71 -24 108
17 42 46 36 64 -19 57 l-41 -6 26 68 c26 71 33 139 13 151 -11 7 -137 12 -173
6z"/>
<path d="M8544 6945 c-4 -8 -4 -28 -1 -43 6 -35 47 -144 58 -156 19 -21 8 -44
-31 -61 -47 -21 -59 -48 -34 -76 19 -21 56 -17 85 8 15 12 17 10 23 -29 8 -53
29 -115 44 -130 6 -6 18 -8 26 -5 20 8 20 52 1 132 -15 60 -15 60 11 83 14 12
35 22 47 22 24 0 87 35 87 48 0 15 -36 42 -57 42 -10 0 -41 -7 -66 -16 -26 -9
-53 -14 -60 -11 -8 3 -22 27 -32 54 -49 134 -85 182 -101 138z"/>
<path d="M8980 6845 c-17 -24 -44 -52 -60 -62 -17 -9 -30 -23 -30 -29 0 -7
-16 -29 -35 -50 -40 -45 -44 -73 -12 -101 41 -38 64 -45 107 -33 47 13 67 31
90 83 l17 38 30 -29 c42 -43 70 -49 99 -21 18 17 21 25 13 36 -6 7 -17 13 -25
13 -28 0 -82 62 -115 130 -18 38 -36 70 -41 70 -4 0 -21 -20 -38 -45z m20
-110 c0 -44 -44 -105 -76 -105 -41 0 -38 21 12 70 52 52 64 58 64 35z"/>
<path d="M8030 6840 c-9 -16 -7 -33 8 -78 11 -31 23 -79 26 -105 9 -57 32
-117 47 -117 5 0 8 -4 5 -9 -3 -5 -26 -6 -51 -3 -39 4 -51 0 -92 -28 -27 -18
-65 -55 -87 -82 -34 -44 -37 -52 -27 -72 7 -12 35 -37 63 -55 47 -31 54 -33
110 -27 79 9 95 16 147 65 41 37 43 43 37 78 -4 21 -20 65 -35 98 -16 33 -41
107 -56 165 -45 174 -49 185 -67 188 -9 2 -22 -6 -28 -18z m93 -413 l28 -23
-38 -30 c-21 -17 -51 -34 -66 -38 -31 -7 -102 8 -113 25 -7 12 42 67 71 79 38
16 89 10 118 -13z"/>
<path d="M9380 6722 c-35 -12 -40 -55 -9 -88 28 -30 57 -21 65 21 3 19 3 38
-1 44 -10 17 -39 29 -55 23z"/>
<path d="M8399 6647 c-20 -12 -49 -31 -65 -41 -33 -22 -97 -103 -90 -115 3 -4
6 -40 7 -78 2 -64 4 -72 25 -82 13 -6 31 -8 39 -5 21 8 67 78 91 136 21 52 33
59 52 28 7 -11 18 -20 26 -20 7 0 19 -7 26 -16 8 -8 32 -24 54 -35 l40 -19 23
22 c34 32 27 62 -17 66 -35 4 -74 26 -122 70 -22 21 -28 35 -28 69 0 50 -9 53
-61 20z m-35 -144 c-4 -16 -14 -33 -21 -38 -8 -6 -13 -15 -12 -20 3 -15 -12
-45 -22 -45 -24 0 -5 74 29 113 22 25 33 21 26 -10z"/>
<path d="M5991 6441 c-66 -23 -99 -55 -102 -101 -5 -55 11 -154 36 -225 20
-57 20 -65 6 -65 -48 -1 -163 -21 -192 -34 -19 -8 -53 -19 -77 -26 -33 -9 -46
-18 -57 -43 -7 -18 -28 -63 -45 -100 -18 -40 -28 -77 -25 -88 3 -10 25 -41 48
-68 62 -74 181 -130 346 -164 40 -9 77 -19 82 -24 10 -10 -4 -49 -55 -158 -21
-44 -42 -89 -47 -100 -14 -29 -33 -61 -46 -76 -21 -26 -24 -82 -6 -104 30 -33
131 -70 193 -70 48 0 65 7 141 52 48 29 112 75 142 103 l56 51 16 -25 c12 -17
15 -35 10 -55 -6 -26 -2 -35 26 -60 17 -16 43 -32 57 -36 14 -3 37 -15 50 -26
14 -10 35 -19 48 -19 12 0 25 -4 28 -9 3 -5 21 -12 40 -15 42 -8 115 21 144
59 32 41 35 81 12 190 -11 55 -23 128 -25 162 -3 35 -12 82 -21 105 -32 86
-35 81 62 105 48 13 95 30 105 39 32 29 69 122 69 173 0 48 -2 51 -59 98 -32
27 -88 64 -125 82 -36 18 -66 37 -66 42 0 4 9 30 19 56 22 58 27 116 16 201
-7 59 -11 65 -58 106 -46 41 -93 62 -127 56 -8 -1 -34 -15 -58 -31 -24 -16
-46 -29 -50 -29 -14 -1 -69 -56 -97 -97 -15 -24 -31 -43 -35 -43 -12 0 -60 52
-60 64 0 16 -117 127 -156 148 -43 23 -94 22 -163 -1z m182 -91 c15 -7 27 -17
27 -22 0 -4 15 -25 33 -45 37 -43 87 -118 87 -132 0 -4 -11 -34 -25 -65 -28
-62 -36 -66 -106 -40 -29 10 -60 13 -90 10 -55 -7 -79 0 -79 23 0 9 -4 21 -8
27 -5 5 -19 41 -31 79 -16 54 -20 80 -13 115 7 41 11 46 51 61 46 17 103 13
154 -11z m507 -17 c69 -40 74 -130 17 -255 l-32 -68 -86 0 c-94 0 -90 -2 -132
71 l-26 46 20 41 c26 51 92 116 155 152 27 15 51 28 52 29 2 1 17 -7 32 -16z
m-434 -385 c3 -4 -18 -50 -47 -104 l-52 -97 -21 44 c-32 65 -56 132 -56 153 0
17 7 18 85 14 47 -2 87 -7 91 -10z m-236 -78 c15 -41 41 -106 59 -144 31 -67
32 -70 16 -102 -18 -37 -22 -38 -110 -24 -112 18 -266 75 -313 115 -39 33 -42
41 -36 69 6 27 39 102 50 115 2 3 35 15 72 28 53 18 85 22 152 20 l84 -2 26
-75z m458 31 c25 -28 46 -71 38 -78 -3 -3 -15 2 -28 11 -12 9 -41 16 -64 16
-34 0 -47 -5 -67 -29 -30 -36 -43 -96 -26 -117 20 -24 65 -44 98 -44 47 0 93
46 100 100 l6 44 18 -27 c17 -26 17 -30 -1 -90 l-19 -62 -99 -17 c-137 -24
-184 -21 -204 14 -12 23 -13 31 -2 48 6 11 12 27 12 35 0 9 11 32 24 53 13 20
38 70 57 109 l34 73 50 -6 c37 -5 56 -13 73 -33z m161 -3 c-1 -13 -4 -36 -8
-53 l-6 -30 -28 40 c-36 53 -35 65 8 65 30 0 35 -3 34 -22z m157 -7 c71 -23
131 -57 145 -82 5 -10 7 -31 3 -46 -13 -54 -55 -84 -139 -101 -28 -6 -60 -13
-72 -17 -18 -6 -25 0 -42 34 -26 49 -26 60 -2 119 10 26 24 62 31 80 7 17 14
32 15 32 1 0 29 -8 61 -19z m-102 -396 c10 -22 27 -89 38 -150 10 -60 23 -127
29 -148 5 -20 8 -41 5 -46 -3 -4 -2 -21 3 -37 11 -40 5 -52 -35 -69 -29 -12
-45 -12 -87 -3 -59 13 -97 34 -97 53 0 8 -11 26 -24 42 -39 47 -88 141 -80
155 4 7 15 22 24 33 9 11 39 61 65 110 26 50 50 94 52 98 3 4 24 7 46 5 38 -3
44 -7 61 -43z m-220 16 c3 -5 -6 -28 -19 -52 -14 -24 -30 -56 -36 -71 -6 -16
-16 -28 -23 -28 -10 0 -86 128 -86 144 0 3 28 7 63 9 34 2 70 4 79 5 9 1 19
-2 22 -7z m-257 -19 c16 -10 73 -94 73 -108 0 -5 11 -25 25 -44 14 -19 25 -43
25 -54 0 -21 -143 -166 -164 -166 -6 0 -24 -7 -39 -15 -51 -26 -94 -34 -137
-23 -48 12 -51 28 -19 109 23 59 126 267 141 286 5 6 24 14 41 16 18 2 34 4
37 5 3 1 10 -2 17 -6z"/>
<path d="M10403 6335 c-17 -19 -16 -37 2 -61 8 -10 20 -37 26 -58 15 -55 75
-146 96 -147 20 -1 47 1 51 5 5 5 -29 64 -43 76 -9 7 -22 29 -31 49 -28 68
-70 145 -79 147 -6 2 -16 -3 -22 -11z"/>
<path d="M10202 6064 c-38 -30 -72 -91 -72 -129 0 -14 -7 -40 -16 -56 -14 -28
-14 -32 0 -48 9 -10 16 -22 16 -27 1 -19 47 -63 88 -83 46 -24 101 -24 155 -2
16 6 35 11 43 11 24 0 54 38 54 69 0 40 -10 44 -51 19 -36 -22 -138 -35 -183
-24 -34 8 -35 42 -2 50 30 7 125 103 132 133 24 93 -84 150 -164 87z m92 -71
c-21 -33 -68 -78 -89 -86 -11 -5 -13 0 -9 26 7 38 58 87 92 87 24 0 24 0 6
-27z"/>
<path d="M10585 5978 c-3 -7 -6 -24 -7 -37 -3 -21 3 -26 35 -34 27 -6 42 -6
52 3 21 17 19 27 -10 55 -26 27 -63 33 -70 13z"/>
<path d="M9991 5967 c-38 -14 -74 -69 -68 -104 3 -17 -1 -23 -13 -23 -44 0
-25 -65 48 -161 38 -49 68 -62 79 -33 3 9 -7 56 -22 104 -36 112 -30 137 41
163 61 23 61 23 39 47 -20 22 -54 25 -104 7z"/>
<path d="M3134 5951 c-2 -2 -140 -5 -307 -6 -166 -1 -331 -5 -367 -9 -68 -6
-182 -13 -390 -22 -69 -3 -167 -8 -218 -12 -88 -7 -94 -7 -114 15 -12 13 -26
23 -31 23 -5 0 -55 -45 -110 -100 -114 -113 -195 -173 -247 -180 -28 -4 -38
-12 -54 -43 -10 -21 -20 -55 -23 -75 -3 -20 -7 -323 -9 -672 -3 -349 -5 -653
-5 -675 -1 -22 1 -175 5 -340 8 -442 8 -587 1 -616 -5 -20 0 -38 21 -68 30
-45 35 -47 67 -27 23 15 89 15 307 1 52 -3 244 -8 427 -10 182 -3 351 -9 375
-14 58 -13 169 -16 248 -7 36 4 117 9 180 12 63 2 147 6 185 9 262 18 372 29
388 37 12 6 17 20 17 46 -1 20 3 102 8 182 10 150 0 494 -17 650 -6 47 -10
140 -11 206 0 67 -4 143 -9 170 -21 112 -31 319 -26 524 3 118 7 278 9 355 4
189 -10 560 -24 610 l-11 40 -130 0 c-72 0 -132 -2 -135 -4z m203 -113 c6 -5
14 -37 17 -71 11 -112 14 -520 5 -622 -8 -88 -11 -430 -5 -525 3 -48 15 -142
26 -215 5 -33 12 -139 14 -235 3 -96 7 -191 10 -210 10 -73 17 -509 9 -605
l-8 -100 -40 -7 c-22 -4 -130 -10 -239 -13 -109 -3 -203 -8 -207 -11 -20 -12
-288 -15 -534 -5 -498 20 -619 23 -817 26 -108 2 -201 6 -206 9 -6 3 -13 23
-17 44 -5 30 -6 825 -2 1257 1 50 -1 245 -4 435 -5 320 4 536 23 556 9 8 46
-13 98 -55 69 -57 127 -94 220 -142 107 -55 104 -54 95 -40 -4 7 0 20 8 29 13
14 14 26 7 57 -8 35 -17 118 -37 336 l-5 56 43 6 c87 12 178 17 572 32 60 3
113 7 118 11 5 3 143 5 307 5 163 0 311 4 327 9 35 10 205 2 222 -12z m-1657
-84 c0 -25 6 -55 12 -67 7 -12 14 -62 15 -112 1 -49 5 -102 9 -117 5 -23 3
-28 -12 -28 -11 0 -35 10 -55 23 -77 47 -209 140 -209 148 0 4 24 23 53 42 28
20 79 63 112 96 33 34 63 61 67 61 4 0 8 -21 8 -46z"/>
<path d="M2365 5723 c-99 -8 -259 -14 -355 -16 l-175 -2 -3 -37 c-2 -28 1 -39
15 -47 18 -9 246 -6 458 5 108 6 845 12 870 7 17 -4 20 -13 23 -70 1 -37 -6
-111 -17 -167 -20 -104 -26 -300 -10 -343 4 -12 9 -45 10 -75 1 -29 8 -97 15
-151 9 -59 14 -179 14 -300 0 -111 4 -226 9 -256 4 -30 7 -187 5 -350 -3 -274
2 -368 28 -481 2 -12 -9 -15 -57 -14 -116 2 -377 18 -470 29 -134 16 -278 16
-375 2 -152 -23 -197 -27 -380 -34 -212 -7 -367 -6 -405 5 l-30 8 -1 185 c-1
173 -10 299 -33 464 -6 39 -10 180 -10 313 -1 134 -3 247 -6 251 -8 14 -8 360
1 491 13 211 5 265 -34 227 -12 -12 -18 -38 -20 -85 -2 -37 -6 -103 -9 -147
-13 -186 -6 -752 8 -761 6 -3 7 -14 4 -25 -13 -39 -12 -206 1 -289 7 -47 13
-115 13 -151 1 -36 4 -68 7 -72 10 -10 17 -108 13 -197 -2 -47 -3 -123 -3
-169 l-1 -85 55 -28 54 -29 269 2 c147 1 301 5 340 10 40 5 86 11 102 13 44 6
191 18 255 22 30 1 69 -1 85 -6 43 -13 486 -46 560 -42 11 0 45 2 75 4 l55 3
9 43 c6 31 4 76 -7 155 -13 84 -17 183 -16 401 0 158 -2 323 -5 365 -3 42 -8
167 -11 279 -3 112 -9 224 -14 250 -34 177 -38 405 -11 616 15 123 7 217 -23
252 -22 25 -25 25 -157 24 -74 -1 -171 -3 -215 -5 -44 -2 -98 0 -120 5 -70 15
-195 16 -380 3z"/>
<path d="M2534 5168 c-97 -101 -128 -142 -145 -190 -12 -35 -29 -51 -29 -28 0
18 -154 172 -210 210 -58 39 -137 70 -177 70 -36 0 -73 -23 -132 -83 -44 -45
-52 -60 -47 -80 3 -13 3 -27 -1 -31 -4 -4 -8 -32 -8 -63 -2 -53 23 -141 46
-169 9 -11 -5 -21 -74 -48 -94 -38 -177 -132 -177 -201 0 -39 4 -46 53 -83 68
-53 147 -92 185 -92 16 0 58 -9 93 -19 35 -11 87 -22 114 -26 91 -12 96 -14
88 -44 -3 -14 -12 -35 -18 -46 -7 -11 -16 -33 -19 -49 -4 -17 -16 -42 -27 -57
-10 -15 -19 -32 -19 -37 0 -6 -16 -28 -36 -49 -60 -63 -66 -77 -70 -169 -3
-48 -7 -90 -9 -94 -2 -4 5 -16 16 -26 21 -18 21 -18 39 3 l18 22 58 -20 c77
-28 168 -22 215 12 55 40 166 157 179 189 7 16 16 30 21 30 4 0 40 -43 79 -95
39 -52 75 -97 80 -100 6 -4 10 -15 10 -26 0 -11 7 -22 16 -26 9 -3 27 -16 41
-29 37 -34 86 -40 135 -18 75 34 94 103 54 205 -63 164 -75 197 -86 239 -6 25
-18 69 -27 98 -21 67 -11 77 46 50 61 -28 145 -22 173 13 42 52 58 86 58 121
0 45 -46 177 -84 241 -28 50 -36 55 -121 79 -34 10 -49 19 -46 29 42 151 40
242 -8 343 -24 49 -42 72 -77 95 -68 46 -80 43 -170 -51z m158 -22 c41 -41 62
-134 54 -239 -8 -119 -16 -128 -105 -122 -254 19 -249 15 -185 146 40 80 108
169 163 212 42 33 42 33 73 3z m-604 -38 c66 -27 79 -38 145 -117 40 -47 78
-98 85 -113 16 -38 1 -74 -33 -80 -41 -8 -356 2 -374 11 -22 12 -64 135 -64
188 0 48 35 102 86 134 36 21 51 19 155 -23z m189 -402 c2 -2 -9 -26 -25 -52
-17 -27 -33 -65 -37 -84 -14 -69 -16 -68 -125 36 l-103 99 34 5 c38 6 250 3
256 -4z m161 -26 c12 -16 22 -31 22 -33 0 -4 -112 -1 -128 2 -2 1 5 15 15 31
23 40 61 41 91 0z m232 22 c0 -12 -69 -152 -74 -152 -7 0 -76 125 -76 138 0 6
17 12 38 14 89 7 112 7 112 0z m-640 -134 c119 -122 150 -166 118 -169 -52 -4
-175 18 -343 62 -71 19 -137 53 -157 83 -10 14 52 95 86 113 16 8 48 21 70 28
84 27 84 26 226 -117z m798 103 c63 -22 85 -41 111 -95 19 -41 41 -129 41
-167 0 -18 -1 -19 -25 -3 -23 15 -32 15 -117 0 -51 -9 -105 -19 -120 -22 -23
-5 -29 -1 -47 35 -25 48 -26 70 -6 97 8 10 15 25 15 33 0 23 70 141 83 141 7
-1 36 -9 65 -19z m-290 -255 c-23 -63 -17 -61 -137 -46 -132 17 -163 44 -127
109 l13 23 21 -30 c12 -16 22 -37 22 -45 0 -17 57 -47 89 -47 13 0 25 9 31 24
5 13 14 27 21 31 6 4 20 28 31 52 l20 45 18 -30 c18 -29 18 -31 -2 -86z m-265
-147 c15 -21 27 -43 27 -48 0 -6 23 -38 50 -72 28 -34 50 -68 50 -74 0 -30
-60 -116 -116 -167 -53 -48 -69 -57 -122 -66 -92 -16 -159 9 -147 56 7 29 60
141 90 192 25 41 71 153 81 193 10 43 52 37 87 -14z m174 11 c18 0 33 -3 33
-7 0 -19 -45 -113 -53 -110 -12 4 -87 124 -81 130 3 3 20 1 37 -4 18 -5 47 -9
64 -9z m232 -25 c22 -41 39 -91 50 -152 6 -28 24 -80 41 -116 16 -35 30 -69
30 -74 0 -6 7 -16 15 -23 9 -7 15 -29 15 -54 0 -35 -4 -43 -31 -59 l-31 -17
-93 93 c-51 52 -110 119 -130 150 -21 32 -42 57 -46 57 -15 0 -10 27 21 106
42 105 54 119 103 119 34 0 43 -4 56 -30z"/>
<path d="M9536 5758 c-16 -78 -15 -101 8 -147 31 -60 65 -91 113 -101 34 -8
41 -6 66 17 15 15 32 42 39 60 14 40 21 41 65 7 23 -18 43 -24 66 -22 49 5 45
30 -7 56 -33 15 -50 31 -60 57 -26 62 -54 94 -76 88 -22 -6 -26 -17 -35 -104
-7 -63 -38 -105 -69 -93 -25 9 -46 57 -47 106 -2 65 -12 93 -37 96 -16 2 -23
-3 -26 -20z"/>
<path d="M9284 5702 c-28 -9 -66 -29 -84 -44 -30 -23 -34 -32 -35 -77 -1 -28
2 -51 7 -51 4 0 8 -9 8 -19 0 -28 80 -57 117 -43 42 16 92 22 97 13 7 -11 -49
-51 -73 -51 -13 0 -23 -11 -31 -36 -13 -38 -8 -48 26 -58 17 -5 34 4 70 35 27
23 57 55 67 71 23 38 22 84 -2 98 -28 15 -92 12 -141 -5 -56 -20 -80 -12 -80
25 0 35 53 70 118 78 41 5 42 5 42 43 0 36 -2 39 -27 38 -16 0 -51 -8 -79 -17z"/>
<path d="M6139 4858 c-42 -78 -237 -289 -295 -318 -16 -8 -53 -29 -83 -48 -29
-18 -90 -50 -135 -71 -44 -21 -106 -49 -136 -63 -62 -29 -156 -58 -187 -58
-11 0 -36 -6 -54 -14 -71 -30 -326 -58 -549 -62 -264 -5 -232 -2 -316 -21 -61
-14 -89 -14 -195 -5 -154 15 -374 78 -439 127 -26 19 -89 37 -110 30 -48 -15
-7 -86 74 -127 49 -25 196 -78 217 -78 8 0 33 -9 55 -19 68 -33 381 -46 509
-21 28 5 142 12 255 14 144 3 223 9 265 20 32 9 73 16 90 16 36 1 111 21 141
38 12 6 50 14 85 16 46 4 85 16 148 46 47 23 95 45 106 50 11 4 36 15 57 24
20 9 39 16 43 16 4 0 19 8 33 19 15 10 65 38 112 62 71 37 103 63 198 159 62
63 121 128 130 143 9 15 27 30 39 33 26 7 29 30 8 58 -8 11 -15 28 -15 38 0
26 -37 23 -51 -4z"/>
<path d="M7720 4718 c-13 -40 -26 -77 -30 -83 -4 -5 -7 -30 -7 -55 0 -30 -9
-60 -28 -93 l-27 -47 -60 55 c-34 30 -79 78 -100 107 -45 59 -120 128 -140
128 -31 0 -39 -38 -36 -183 1 -113 -2 -153 -16 -194 -10 -31 -24 -53 -32 -53
-7 0 -48 18 -91 40 -69 35 -143 89 -242 177 -51 44 -70 45 -93 5 -10 -18 -16
-37 -13 -42 7 -11 -14 -209 -25 -235 -5 -11 -11 -38 -14 -59 -5 -36 -39 -86
-58 -86 -5 0 -27 9 -50 20 -22 11 -45 17 -50 14 -9 -6 -33 4 -122 49 -22 11
-58 22 -80 24 -23 2 -63 6 -89 8 -27 3 -52 7 -57 10 -5 3 -15 -4 -23 -16 -12
-17 -13 -28 -2 -67 6 -26 19 -61 28 -79 10 -18 17 -42 18 -55 0 -29 33 -155
42 -164 12 -13 8 -84 -5 -85 -7 -1 -60 -3 -118 -5 -120 -3 -230 -23 -286 -50
-37 -18 -39 -22 -39 -65 0 -25 -7 -54 -14 -63 -13 -15 -12 -22 3 -50 9 -18 42
-59 71 -92 62 -67 70 -76 107 -126 l28 -36 -67 -21 c-40 -13 -102 -45 -154
-80 -47 -32 -92 -60 -100 -63 -18 -6 -19 -114 -1 -160 17 -42 82 -88 125 -88
14 0 27 -5 29 -11 4 -11 30 -23 141 -62 31 -11 57 -23 57 -26 0 -16 -255 -124
-322 -136 -75 -14 -80 -28 -56 -165 15 -85 22 -100 47 -100 23 0 75 -26 92
-46 7 -8 37 -32 67 -51 l55 -37 -24 -18 c-175 -135 -209 -166 -209 -194 0 -12
4 -25 9 -28 4 -3 11 -28 15 -56 9 -65 50 -113 131 -152 33 -16 75 -38 93 -50
23 -14 49 -20 92 -20 33 0 60 -3 60 -8 0 -4 -10 -20 -21 -34 -12 -15 -45 -74
-75 -132 -50 -99 -52 -107 -47 -161 9 -97 18 -101 223 -118 36 -2 83 -9 105
-15 22 -5 65 -15 95 -22 30 -6 56 -13 58 -14 2 -1 -38 -63 -89 -138 l-92 -136
1 -77 c0 -43 0 -83 1 -90 1 -6 15 -16 32 -22 41 -14 50 -14 46 2 -1 7 6 11 19
9 12 -1 75 7 140 19 109 20 269 27 284 13 3 -3 6 -49 8 -102 3 -83 0 -108 -22
-174 -31 -91 -32 -113 -8 -130 11 -7 24 -23 31 -35 12 -23 63 -43 93 -35 9 2
24 15 33 28 8 13 21 24 29 24 14 0 45 26 154 126 37 34 77 67 90 73 13 7 31
26 41 42 l18 30 16 -33 c8 -18 22 -67 31 -110 9 -42 20 -87 25 -101 5 -14 8
-27 5 -29 -7 -8 25 -78 36 -78 5 0 12 4 15 10 10 16 28 11 21 -6 -3 -9 4 -25
19 -40 29 -29 41 -25 103 36 46 46 107 90 125 90 7 0 26 25 42 56 17 30 46 70
66 89 20 18 45 45 57 60 25 32 37 27 52 -23 7 -20 22 -55 35 -77 12 -22 39
-73 60 -113 41 -81 89 -125 135 -124 33 1 70 18 70 32 0 8 71 129 122 208 10
15 22 36 28 47 11 24 35 55 42 55 3 0 28 -33 56 -74 49 -69 215 -246 232 -246
19 0 143 168 189 255 31 59 76 109 90 101 6 -4 20 -24 30 -45 27 -53 103 -143
137 -163 28 -16 30 -16 63 14 59 53 155 260 163 356 2 21 18 14 71 -33 28 -25
67 -52 87 -61 19 -9 61 -29 92 -45 32 -15 77 -31 101 -34 57 -9 55 -13 52 228
-2 214 -14 196 99 151 33 -13 66 -24 73 -24 7 0 40 -13 73 -30 33 -16 75 -30
94 -30 29 0 39 6 61 37 28 42 32 75 11 92 -8 6 -17 37 -21 69 -3 31 -15 97
-26 147 -17 81 -25 158 -12 128 3 -8 23 -13 48 -13 24 0 55 -4 70 -10 62 -23
225 -17 383 16 28 6 31 56 4 76 -11 7 -22 32 -26 57 -8 51 -42 103 -131 200
-36 40 -63 76 -60 81 4 6 19 10 35 10 17 0 62 9 102 20 40 11 82 19 93 19 11
0 31 2 45 5 14 3 42 8 63 11 23 4 37 11 37 20 0 8 4 15 10 15 13 0 50 41 50
57 0 21 -69 92 -169 171 l-94 75 24 18 c13 10 29 19 35 19 6 0 33 16 60 35 27
19 53 35 59 35 5 0 28 7 51 16 l42 16 12 78 12 79 -62 58 c-71 65 -114 97
-148 107 -26 9 -25 29 3 34 9 2 40 17 68 34 53 31 62 33 115 22 29 -6 33 -3
46 27 8 19 11 43 6 58 -4 14 -3 38 1 53 5 21 3 30 -14 41 -12 8 -49 40 -82 71
-33 32 -84 75 -112 98 -29 22 -53 44 -53 49 0 14 73 15 114 2 36 -12 42 -11
91 17 57 32 75 62 75 118 -1 33 -9 45 -84 117 -45 44 -110 105 -144 135 -34
30 -62 58 -62 63 0 11 61 90 78 100 6 4 12 15 12 22 0 8 4 15 9 15 19 0 50 70
52 119 2 37 -2 55 -15 70 -33 36 -162 118 -254 162 -51 23 -92 49 -92 56 0 8
13 40 30 72 16 32 34 80 41 105 6 26 15 49 20 52 5 3 9 22 9 43 0 63 -36 81
-105 51 -11 -5 -42 -16 -70 -25 -27 -9 -54 -20 -60 -24 -5 -5 -35 -11 -65 -15
-30 -4 -70 -9 -87 -12 l-33 -6 0 59 c0 33 -4 73 -9 89 -5 16 -15 56 -22 89
-13 60 -34 105 -50 105 -4 0 -41 -29 -81 -63 -40 -35 -109 -87 -153 -115 -44
-28 -89 -61 -101 -72 -35 -35 -47 -8 -64 142 -5 48 -18 107 -30 133 -24 53
-28 52 -105 -20 -27 -25 -62 -53 -77 -61 -15 -8 -32 -23 -38 -34 -6 -11 -15
-20 -21 -20 -6 0 -25 -11 -42 -23 -18 -13 -47 -30 -66 -37 -33 -13 -34 -13
-63 21 -15 19 -53 71 -84 116 -58 88 -91 117 -118 107 -18 -7 -48 -62 -72
-133 -18 -51 -85 -163 -101 -168 -6 -2 -31 29 -54 69 -53 92 -115 182 -134
198 -22 18 -60 -4 -77 -44 -7 -17 -20 -40 -29 -51 -9 -11 -35 -42 -58 -68 -23
-27 -41 -53 -41 -59 0 -10 -40 -47 -52 -48 -4 0 -40 51 -81 114 -42 62 -93
132 -115 155 -36 38 -42 41 -61 29 -12 -7 -21 -22 -21 -32 0 -40 -73 -216 -90
-216 -3 0 -13 15 -22 33 -22 46 -188 227 -208 227 -13 0 -24 -20 -40 -72z
m1310 -85 c0 -8 17 -35 38 -61 21 -26 49 -68 63 -94 13 -26 30 -50 37 -53 26
-10 161 65 222 124 14 12 36 30 50 39 14 9 42 29 62 44 l36 28 7 -54 c4 -30 5
-58 2 -63 -15 -24 47 -203 69 -203 18 0 37 11 154 87 143 94 183 123 202 146
l17 22 12 -30 c7 -17 13 -81 14 -142 3 -137 9 -148 76 -139 27 4 64 13 85 22
20 8 42 13 50 10 16 -6 105 22 119 38 6 6 30 12 53 14 42 3 44 2 37 -20 -4
-13 -31 -72 -61 -132 -32 -65 -52 -116 -49 -127 8 -24 61 -54 135 -76 34 -10
79 -32 99 -49 20 -17 44 -33 54 -37 9 -3 17 -11 17 -16 0 -5 9 -13 20 -16 11
-3 26 -13 35 -21 12 -13 7 -22 -43 -74 -31 -32 -74 -77 -96 -99 -21 -23 -43
-41 -49 -41 -13 0 0 -79 19 -107 8 -13 23 -23 33 -23 10 0 25 -7 32 -16 8 -9
48 -43 91 -75 77 -59 124 -111 114 -128 -3 -5 -40 -7 -82 -5 -48 3 -94 -1
-124 -10 -52 -15 -130 -61 -130 -75 0 -39 21 -62 169 -179 104 -82 162 -135
158 -145 -4 -13 -31 -23 -152 -58 -44 -12 -87 -28 -95 -35 -8 -6 -34 -21 -57
-33 -56 -28 -65 -47 -49 -96 17 -49 35 -62 99 -70 28 -4 64 -16 81 -26 17 -11
51 -29 76 -40 52 -25 90 -57 90 -76 0 -7 -11 -19 -25 -25 -14 -6 -25 -15 -25
-19 0 -11 -134 -71 -256 -115 -52 -19 -68 -48 -46 -86 9 -16 22 -28 29 -28 6
0 18 -8 25 -19 7 -10 47 -43 88 -74 81 -60 79 -59 128 -100 l34 -27 -59 0
c-32 0 -76 -5 -98 -10 -22 -5 -82 -14 -134 -20 -52 -7 -105 -19 -118 -27 -52
-34 -34 -117 46 -210 85 -99 131 -163 131 -181 0 -4 -21 -5 -47 -2 -27 3 -62
2 -80 -2 -18 -5 -58 -4 -95 2 -102 18 -182 30 -198 30 -9 0 -24 -14 -34 -32
-28 -47 -24 -141 14 -298 5 -19 12 -56 15 -82 9 -57 -3 -61 -68 -24 -23 13
-67 27 -97 31 -30 4 -80 13 -111 21 -88 22 -93 20 -109 -33 -11 -38 -11 -62
-2 -128 19 -131 14 -245 -11 -245 -6 0 -41 27 -78 60 -80 71 -205 151 -225
143 -23 -9 -62 -89 -69 -145 -4 -29 -13 -68 -20 -88 -21 -59 -77 -170 -86
-170 -4 0 -20 18 -36 41 -15 22 -42 58 -59 81 -17 22 -30 48 -27 57 4 19 -96
131 -118 131 -17 0 -59 -59 -59 -86 -1 -29 -26 -70 -125 -203 l-90 -120 -32
34 c-18 19 -44 52 -60 73 -15 20 -39 51 -54 69 -15 17 -44 63 -64 102 -41 78
-61 88 -96 47 -26 -29 -109 -174 -109 -189 0 -5 -9 -19 -21 -31 -11 -12 -39
-45 -61 -74 l-41 -53 -42 88 c-23 48 -54 107 -68 130 -17 27 -27 57 -27 80 0
27 -5 41 -19 48 -10 6 -33 18 -51 29 l-33 18 -46 -49 c-25 -27 -80 -78 -121
-114 -41 -36 -91 -80 -110 -98 -19 -18 -47 -39 -61 -46 -14 -8 -42 -32 -63
-55 -21 -23 -40 -39 -43 -37 -3 3 -16 45 -30 93 -13 48 -37 116 -54 152 -16
36 -29 69 -29 75 0 6 -10 21 -21 34 l-22 22 -38 -30 c-21 -16 -62 -46 -91 -66
-52 -36 -166 -127 -221 -177 -16 -15 -32 -24 -36 -21 -5 2 -5 24 0 48 19 102
7 335 -19 376 -15 22 -20 23 -83 17 -155 -14 -376 -19 -383 -8 -4 6 11 35 33
64 22 29 49 64 59 78 50 65 112 177 112 201 0 43 -27 56 -160 79 -147 25 -119
18 -252 60 -60 19 -108 38 -108 43 0 11 57 116 74 137 7 8 20 35 30 60 10 25
22 53 27 62 10 20 12 50 3 72 -3 8 -43 34 -87 57 -45 23 -102 58 -127 78 -49
40 -122 81 -145 81 -30 0 -22 17 25 52 27 20 71 49 97 64 38 22 146 89 161
100 2 1 5 18 7 38 4 42 -19 63 -96 89 -25 9 -70 30 -99 47 -63 37 -161 121
-157 133 3 10 122 57 144 57 13 0 176 102 226 140 16 13 27 31 27 45 0 43 -53
78 -248 166 -49 22 -85 46 -108 73 -19 22 -34 43 -34 47 0 5 24 26 53 48 36
27 69 42 107 49 30 6 94 25 143 42 81 30 87 34 89 61 0 16 1 33 2 39 1 5 -43
56 -96 113 -106 114 -163 191 -155 211 7 17 205 50 257 42 22 -3 64 -3 93 0
l54 6 12 48 c10 41 10 57 -3 102 -8 29 -23 89 -32 133 -9 44 -22 99 -30 123
-11 37 -11 44 2 49 16 6 23 4 119 -32 91 -34 266 -95 274 -95 6 0 28 34 71
115 31 57 43 103 61 230 7 50 13 92 15 94 2 2 44 -33 93 -77 65 -57 118 -93
188 -128 54 -27 101 -50 104 -52 10 -5 74 118 89 171 7 26 13 91 13 142 1 52
4 95 9 95 4 0 18 -12 31 -27 37 -44 121 -136 142 -155 64 -58 77 -68 85 -63 5
3 28 31 52 63 33 43 51 82 72 155 l29 98 69 -72 c37 -39 68 -76 68 -81 0 -6 8
-22 18 -36 19 -29 20 -44 8 -80 -5 -15 -2 -27 8 -38 23 -22 60 -14 64 14 2 12
8 22 13 22 5 0 9 8 9 18 0 20 28 102 39 117 5 5 16 32 26 58 10 26 22 50 27
53 12 8 68 -45 68 -63 0 -7 15 -30 33 -50 19 -21 49 -66 67 -100 19 -38 39
-63 49 -63 9 0 30 12 47 28 37 32 184 217 184 230 0 18 28 21 43 4 8 -9 25
-37 38 -62 13 -25 38 -68 56 -97 18 -29 33 -57 33 -62 0 -6 10 -15 21 -22 51
-27 126 54 199 213 33 71 36 75 53 60 9 -8 17 -21 17 -29z"/>
<path d="M7732 3951 c-10 -6 -14 -35 -15 -95 l-2 -86 -41 6 c-29 4 -44 2 -52
-9 -20 -23 -4 -44 44 -57 24 -7 48 -18 51 -24 4 -6 8 -62 9 -126 2 -63 3 -118
3 -122 3 -23 32 -2 49 36 16 34 20 61 20 130 -1 63 2 90 11 96 8 4 45 6 83 4
54 -3 70 0 75 11 9 26 -14 41 -84 54 -108 20 -101 14 -108 89 -10 103 -14 112
-43 93z"/>
<path d="M9946 3859 c-33 -39 -33 -78 0 -126 30 -44 104 -123 130 -139 24 -14
12 -41 -23 -55 -16 -6 -56 -16 -91 -21 -58 -10 -61 -12 -47 -28 20 -22 103
-36 118 -21 6 6 20 11 32 11 39 1 77 43 82 94 4 29 2 46 -5 46 -6 0 -40 25
-75 55 -93 79 -111 145 -42 145 19 0 37 -4 40 -10 10 -16 33 -11 40 9 9 28 -3
46 -39 59 -57 21 -91 15 -120 -19z"/>
<path d="M9703 3803 c-18 -2 -33 -8 -33 -14 0 -5 -6 -9 -13 -9 -38 0 -93 -105
-89 -169 5 -64 87 -131 162 -131 42 0 117 28 143 55 18 18 23 65 7 65 -5 0
-13 -7 -18 -16 -5 -10 -37 -22 -80 -31 -69 -14 -71 -14 -105 9 -19 12 -40 30
-46 40 -9 15 -6 18 27 24 76 13 108 25 140 54 48 45 42 91 -15 115 -20 8 -38
14 -42 13 -3 0 -21 -3 -38 -5z m65 -70 c2 -7 -5 -16 -15 -20 -10 -3 -28 -14
-40 -23 -13 -10 -33 -15 -48 -13 -30 6 -30 7 -4 44 18 26 26 30 62 27 22 -2
42 -9 45 -15z"/>
<path d="M9310 3790 c-8 -5 -25 -10 -38 -10 -12 0 -42 -18 -67 -41 -41 -38
-45 -46 -45 -89 0 -33 7 -57 23 -81 22 -33 26 -34 82 -33 55 1 61 4 97 43 21
22 40 41 42 41 8 0 17 -77 25 -200 9 -147 0 -181 -50 -199 -52 -18 -146 3
-186 42 -27 25 -33 38 -33 74 0 24 -4 43 -9 43 -16 0 -41 -49 -41 -80 0 -50
117 -163 167 -160 131 6 133 6 161 33 54 52 66 150 43 362 -16 145 -39 221
-67 218 -15 -2 -20 3 -20 20 1 18 -5 22 -34 25 -19 1 -42 -2 -50 -8z m75 -59
c6 -11 -50 -110 -73 -128 -10 -7 -30 -11 -46 -10 -64 4 -56 91 12 120 59 26
98 32 107 18z"/>
<path d="M8445 3764 c-64 -35 -80 -68 -55 -113 11 -21 15 -244 7 -433 -4 -99
-2 -131 9 -145 24 -31 44 8 45 91 1 39 3 114 3 166 1 53 5 100 8 106 4 6 3 28
-2 49 -11 51 -5 58 32 39 33 -17 78 -15 161 7 42 11 48 16 59 51 10 34 9 43
-15 86 -14 26 -34 52 -43 57 -10 6 -25 18 -34 27 -23 26 -136 34 -175 12z
m128 -60 c52 -18 92 -66 77 -94 -20 -37 -145 -49 -177 -17 -21 20 -34 94 -19
106 6 5 22 11 36 14 14 2 28 5 31 6 3 0 26 -6 52 -15z"/>
<path d="M8906 3766 c-52 -16 -122 -77 -135 -119 -8 -24 -8 -44 2 -77 15 -52
41 -70 103 -70 33 0 48 7 77 34 20 19 46 54 59 77 l23 44 10 -30 c25 -72 60
-130 83 -133 37 -6 37 24 -2 101 -20 41 -36 82 -36 93 0 45 -63 95 -117 93
-15 -1 -46 -7 -67 -13z m84 -72 c0 -42 -41 -102 -87 -126 -41 -22 -42 -22 -62
-4 -27 24 -27 68 -1 91 38 34 95 64 123 65 22 0 27 -4 27 -26z"/>
<path d="M7080 3704 c-113 -61 -141 -157 -74 -260 32 -50 74 -74 129 -74 66 0
175 54 175 87 0 20 -60 16 -105 -7 -44 -22 -71 -25 -109 -10 -48 18 -33 46 43
84 99 50 128 94 100 149 -31 60 -86 71 -159 31z m105 -70 c0 -12 -13 -25 -35
-36 -19 -9 -40 -21 -45 -26 -16 -13 -63 -23 -68 -14 -3 4 1 21 8 38 25 60 140
91 140 38z"/>
<path d="M6715 3703 c-11 -3 -25 -11 -32 -20 -7 -9 -19 -12 -31 -9 -11 4 -24
1 -29 -6 -6 -7 -11 -70 -12 -140 -1 -119 0 -128 21 -148 22 -21 43 -22 43 -2
0 5 3 14 8 18 4 4 7 48 7 98 0 114 12 138 65 126 59 -13 105 -86 102 -160 -2
-53 16 -71 43 -42 21 22 28 96 11 107 -5 3 -13 20 -16 38 -10 43 -70 116 -111
133 -35 15 -36 15 -69 7z"/>
<path d="M7331 3696 c-12 -15 -5 -34 50 -125 24 -40 20 -54 -31 -109 -33 -36
-38 -46 -30 -63 16 -29 31 -24 85 31 27 28 53 50 58 50 5 0 26 -13 46 -28 42
-33 76 -47 111 -47 31 0 34 33 5 49 -51 28 -115 79 -115 91 0 8 6 20 14 28 30
29 74 109 69 123 -11 29 -43 13 -90 -45 -26 -33 -52 -60 -58 -60 -10 0 -58 70
-71 102 -8 21 -27 22 -43 3z"/>
<path d="M8050 2826 c-25 -11 -22 -24 14 -50 24 -18 42 -21 129 -21 105 1 173
8 184 19 3 3 14 6 24 6 22 0 32 15 25 38 -5 15 -23 17 -181 17 -96 0 -184 -4
-195 -9z"/>
<path d="M8150 2662 c-54 -4 -74 -23 -58 -58 10 -22 16 -24 82 -23 39 1 85 -1
101 -5 70 -14 203 -18 224 -7 21 11 29 45 13 55 -8 5 -105 18 -132 18 -8 0
-31 4 -50 8 -45 11 -122 16 -180 12z"/>
<path d="M9299 2468 c-8 -15 -10 -59 -5 -144 l6 -123 -51 2 c-48 2 -52 0 -87
-42 -58 -70 -74 -144 -41 -198 55 -93 118 -107 208 -48 29 19 55 35 58 35 12
0 93 85 90 95 -2 5 -17 9 -33 7 -63 -6 -96 100 -92 303 1 92 -1 118 -13 126
-21 13 -27 11 -40 -13z m-36 -337 c15 -6 37 -33 56 -68 l32 -58 -22 -17 c-31
-26 -95 -41 -119 -28 -45 24 -50 94 -9 151 22 32 27 33 62 20z"/>
<path d="M6824 2406 c-3 -8 0 -54 6 -103 10 -79 15 -131 37 -365 4 -46 11 -72
24 -83 16 -15 18 -15 29 4 7 13 8 45 5 84 -4 34 -8 89 -10 121 -5 86 -35 307
-45 334 -11 25 -38 30 -46 8z"/>
<path d="M7923 2392 c-10 -6 -10 -26 1 -92 8 -47 12 -88 9 -92 -2 -4 -23 -5
-47 -2 -36 5 -47 3 -66 -16 -27 -27 -21 -33 55 -59 66 -22 65 -19 46 -110 -6
-29 -11 -66 -11 -82 0 -26 22 -59 39 -59 10 0 47 118 56 178 4 24 12 45 18 48
10 3 73 10 125 13 8 1 12 10 10 24 -2 16 -11 23 -33 25 -16 1 -49 7 -72 13
-47 13 -44 8 -73 139 -17 73 -30 90 -57 72z"/>
<path d="M8939 2336 c-21 -46 36 -73 70 -32 13 16 -4 41 -36 51 -18 5 -25 1
-34 -19z"/>
<path d="M9680 2260 c-48 -12 -118 -51 -124 -69 -2 -9 -13 -28 -22 -43 -15
-23 -16 -33 -5 -80 11 -49 16 -55 66 -86 91 -55 124 -63 218 -51 45 5 89 12
97 14 16 5 44 44 37 52 -3 2 -40 6 -84 9 -120 6 -147 10 -168 21 -17 10 -16
12 19 27 21 9 42 16 47 16 4 0 12 6 16 14 4 8 15 16 22 18 25 5 59 63 54 89
-12 55 -95 89 -173 69z m94 -70 c21 -21 -70 -87 -146 -104 -27 -6 -28 -5 -28
30 0 37 29 70 74 86 27 9 86 2 100 -12z"/>
<path d="M7067 2253 c-12 -12 -7 -42 9 -51 21 -12 74 -3 74 13 0 25 -66 56
-83 38z"/>
<path d="M8680 2254 c-8 -1 -32 -5 -53 -9 -114 -18 -66 -143 82 -215 39 -18
70 -39 68 -45 -2 -6 -39 -10 -90 -10 -98 0 -122 -12 -92 -45 10 -11 25 -20 34
-21 9 0 32 -6 51 -13 37 -12 95 -6 137 16 20 10 43 60 43 95 0 14 -79 53 -108
53 -12 0 -22 6 -22 13 0 7 -16 21 -36 32 -40 21 -59 49 -50 72 5 13 18 15 66
10 l60 -5 0 29 c0 16 -6 31 -12 33 -26 8 -63 13 -78 10z"/>
<path d="M7333 2198 c-13 -6 -23 -14 -23 -18 0 -4 -13 -21 -29 -36 -67 -67
-59 -214 15 -273 60 -47 175 -34 220 25 15 19 30 34 34 34 4 0 13 -13 20 -30
14 -33 34 -39 44 -14 3 9 6 48 6 87 0 89 24 137 67 137 22 -1 34 -10 54 -43
34 -56 51 -101 47 -124 -3 -22 18 -53 37 -53 18 0 27 44 19 88 -9 51 -79 176
-109 196 -41 27 -77 20 -120 -24 -21 -21 -48 -40 -59 -42 -19 -3 -21 -8 -18
-73 l3 -70 -36 -23 c-19 -12 -56 -25 -80 -29 -37 -5 -51 -2 -80 18 -43 29 -41
52 5 60 58 9 134 51 148 81 15 32 -1 82 -39 117 -25 23 -87 28 -126 9z m103
-63 c5 -19 0 -30 -17 -44 -22 -18 -117 -46 -126 -37 -3 2 3 18 11 34 35 68
119 98 132 47z"/>
<path d="M6545 2195 c-5 -2 -23 -6 -39 -10 -29 -6 -81 -53 -112 -100 -13 -19
-15 -37 -9 -80 6 -49 11 -59 49 -90 53 -43 110 -53 199 -35 112 23 179 65 132
83 -8 4 -54 2 -103 -4 -77 -8 -96 -7 -142 8 -88 30 -90 85 -5 131 16 9 57 19
90 22 67 6 81 24 46 59 -19 19 -73 27 -106 16z"/>
<path d="M8981 2076 c-38 -74 -36 -116 4 -134 20 -9 25 -8 29 6 10 34 17 192
9 192 -5 0 -24 -29 -42 -64z"/>
<path d="M7114 2093 c-3 -10 -17 -48 -30 -85 -20 -53 -23 -71 -14 -87 12 -24
33 -27 49 -8 19 24 41 130 33 161 -10 35 -30 45 -38 19z"/>
<path d="M8289 2086 c-19 -42 -2 -51 93 -47 83 3 128 13 128 30 0 12 -50 30
-85 29 -16 0 -51 3 -77 7 -45 7 -48 6 -59 -19z"/>
<path d="M8298 1683 c-25 -30 -36 -87 -27 -139 4 -27 8 -68 8 -92 1 -41 0 -43
-21 -35 -46 15 -78 7 -118 -32 -25 -25 -41 -50 -45 -74 -8 -47 -25 -76 -25
-43 0 39 -49 172 -76 208 -56 73 -137 49 -195 -59 -29 -54 -30 -63 -24 -125 6
-62 5 -69 -17 -87 -40 -34 -66 -45 -110 -45 -73 0 -115 17 -143 57 l-25 37 63
19 c99 30 160 101 136 158 -14 35 -46 54 -107 63 -41 6 -44 4 -86 -38 -24 -25
-49 -60 -55 -78 -7 -18 -17 -41 -22 -50 -37 -71 40 -203 133 -229 94 -27 198
0 241 61 12 18 16 19 27 5 33 -40 64 8 48 76 -13 56 -4 140 17 173 24 37 58
34 90 -8 26 -35 51 -134 41 -170 -3 -11 2 -28 11 -38 15 -17 17 -17 35 -2 10
10 18 24 19 33 0 9 5 5 10 -9 17 -45 67 -70 141 -70 47 0 69 4 78 16 8 8 27
21 44 28 17 8 42 23 54 34 13 12 29 23 35 25 20 6 -2 40 -23 34 -16 -4 -25 4
-42 36 -28 54 -46 210 -34 289 12 81 -3 110 -36 71z m-692 -268 c19 -15 19
-15 -5 -35 -13 -11 -35 -20 -50 -20 -15 0 -32 -5 -38 -11 -15 -15 -34 -3 -26
17 6 17 72 64 88 64 6 0 20 -7 31 -15z m651 -80 c20 -14 53 -68 53 -86 0 -14
-106 -22 -130 -9 -18 10 -21 17 -16 43 6 30 39 66 61 67 6 0 20 -7 32 -15z"/>
<path d="M9132 1613 c-13 -2 -44 -17 -69 -31 -37 -22 -53 -41 -86 -106 -35
-66 -42 -76 -52 -62 -15 19 -29 20 -43 4 -7 -9 -2 -43 17 -114 24 -95 43 -134
62 -134 11 0 39 95 39 131 0 64 31 133 82 181 46 43 56 47 115 54 35 3 79 4
98 1 20 -3 40 0 51 7 42 31 -130 86 -214 69z"/>
<path d="M7263 1550 c-73 -24 -136 -78 -158 -137 -17 -43 -17 -54 -5 -118 7
-38 14 -80 15 -92 2 -27 23 -53 41 -53 25 0 42 60 31 110 -16 77 -10 147 16
173 25 25 63 47 82 47 7 0 15 5 17 10 2 6 40 13 86 17 67 5 82 9 80 21 -7 34
-128 47 -205 22z"/>
<path d="M8595 1486 c-45 -21 -85 -64 -107 -114 -62 -139 88 -280 261 -246 58
12 168 144 119 144 -6 0 -34 -15 -62 -32 -43 -28 -58 -33 -105 -31 -109 5
-117 21 -30 54 65 24 139 84 139 113 0 31 -28 84 -53 101 -35 23 -125 29 -162
11z m143 -99 c3 -15 -108 -77 -160 -90 -34 -9 -40 1 -28 45 20 72 99 111 155
77 17 -10 31 -24 33 -32z"/>
</g>
</svg>
