<?xml version="1.0" standalone="no"?>
<!DOCTYPE svg PUBLIC "-//W3C//DTD SVG 20010904//EN"
 "http://www.w3.org/TR/2001/REC-SVG-20010904/DTD/svg10.dtd">
<svg version="1.0" xmlns="http://www.w3.org/2000/svg"
 width="1355.059958pt" height="400.000000pt" viewBox="0 0 1355.059958 400.000000"
 preserveAspectRatio="xMidYMid meet">
<metadata>
Created by potrace 1.15, written by Peter Selinger 2001-2017
</metadata>
<g transform="translate(-30.740426,454.549499) scale(0.076723,-0.076723)"
fill="#444444" stroke="none">
<path d="M14164 5913 c-15 -11 -19 -26 -19 -76 0 -34 3 -81 7 -103 l8 -42 -68
-4 c-118 -6 -158 -57 -118 -152 l14 -33 -39 -10 c-36 -10 -39 -9 -34 8 4 11 2
19 -3 19 -6 0 -12 -5 -14 -11 -4 -12 -94 -17 -105 -6 -3 4 -17 -3 -29 -14
l-23 -22 20 -29 c13 -18 19 -37 16 -50 -3 -12 0 -56 7 -98 9 -51 11 -93 5
-130 -5 -29 -7 -97 -6 -151 1 -53 -2 -95 -6 -92 -4 3 -8 -15 -7 -39 0 -23 0
-81 0 -128 0 -50 5 -87 11 -91 7 -4 8 -8 1 -10 -15 -6 -20 -215 -4 -212 15 4
16 -29 2 -43 -6 -6 -12 -55 -15 -110 -2 -54 -7 -157 -10 -229 -3 -71 -7 -143
-10 -160 -8 -54 -26 -366 -32 -555 -7 -241 -9 -275 -17 -335 -4 -27 -9 -68
-11 -90 -7 -52 -22 -141 -29 -163 -3 -10 5 -30 18 -47 l24 -30 35 18 c28 16
39 17 57 7 14 -7 64 -11 134 -10 61 0 300 -2 531 -6 400 -6 503 -7 543 -4 38
2 87 -5 93 -13 4 -5 42 -10 85 -11 119 -2 414 8 414 14 0 3 69 5 153 6 549 3
1043 18 1091 33 17 6 69 13 116 16 46 3 86 8 88 10 2 2 17 -1 32 -5 16 -5 42
-5 57 -1 16 4 59 2 98 -6 39 -7 109 -18 156 -23 47 -5 106 -17 130 -25 41 -15
44 -14 63 4 14 15 19 34 20 78 l1 58 30 -2 c30 -3 127 30 155 52 8 7 23 15 33
18 14 5 16 15 12 59 -3 29 -2 67 3 83 l8 30 90 1 c59 0 97 5 113 15 l23 14 -7
175 c-4 96 -7 227 -6 290 0 63 -6 174 -14 245 -8 72 -12 166 -9 210 8 145 1
794 -11 1007 -7 134 -16 257 -21 298 -2 20 -13 119 -24 220 -29 255 -29 261
-43 289 -9 20 -26 29 -72 41 -59 15 -221 20 -242 7 -5 -4 -111 -4 -234 -2
-318 7 -494 7 -734 -1 -283 -8 -291 -8 -525 0 -267 10 -321 11 -405 8 -161 -6
-864 7 -915 17 -30 5 -80 14 -110 20 -30 6 -157 12 -281 14 -183 3 -229 1
-245 -10z m511 -90 c55 -9 129 -17 165 -17 36 -1 68 -5 71 -9 3 -5 111 -7 240
-6 291 3 238 3 719 -5 642 -12 870 -10 975 8 41 7 88 9 114 4 24 -4 51 -3 61
2 10 5 19 8 21 5 2 -2 54 -7 114 -10 61 -4 114 -10 119 -12 17 -11 227 -2 308
12 100 17 276 14 289 -6 10 -16 31 -121 35 -179 2 -25 6 -83 9 -130 2 -47 9
-112 14 -145 14 -84 28 -222 28 -270 0 -22 3 -134 7 -250 5 -195 7 -400 8
-820 0 -93 2 -188 4 -210 2 -22 6 -137 9 -255 3 -118 8 -246 12 -285 5 -38 7
-85 5 -104 l-3 -34 -57 8 c-31 4 -66 8 -76 8 -27 3 -38 49 -27 117 12 81 5
169 -30 399 -6 36 -10 93 -9 128 1 35 1 69 1 76 -1 6 -3 319 -6 694 l-5 682
-34 202 c-20 111 -40 207 -46 213 -5 5 -10 18 -10 28 0 14 -9 18 -35 20 -19 1
-48 2 -64 3 -177 11 -297 17 -401 21 -69 2 -145 7 -170 11 -64 9 -260 6 -360
-7 -50 -6 -217 -9 -408 -6 -187 2 -350 0 -385 -6 -34 -5 -96 -11 -137 -14 -41
-2 -104 -9 -140 -15 -62 -10 -148 -9 -490 7 -69 4 -133 6 -142 6 -145 -4 -227
-2 -293 6 -44 6 -167 10 -273 9 l-192 -2 0 78 0 77 183 -6 c100 -3 227 -13
282 -21z m2495 -191 c146 -3 311 -4 366 -3 77 1 105 -2 116 -12 8 -9 22 -65
32 -133 10 -66 21 -139 26 -164 17 -87 21 -251 25 -945 3 -385 7 -713 10 -730
12 -60 42 -371 38 -390 -2 -11 -6 -69 -9 -130 -8 -199 -12 -209 -85 -235 -30
-11 -43 -11 -68 0 -17 7 -32 20 -32 29 -4 46 -16 368 -24 636 -3 88 -9 192
-15 230 -15 113 -39 748 -41 1095 -1 232 -21 605 -35 651 -3 10 -19 19 -37 22
-18 2 -423 3 -902 2 -749 -2 -885 -5 -980 -19 -113 -18 -374 -31 -550 -28
-107 1 -730 0 -880 -2 l-90 -1 0 45 0 45 135 7 c151 7 352 3 543 -12 118 -9
297 -12 677 -14 178 0 322 10 415 29 53 12 135 15 345 14 378 -2 398 -2 460 6
87 10 274 21 285 16 5 -3 129 -7 275 -9z m233 -151 c20 -8 25 -19 30 -58 12
-87 20 -266 21 -440 1 -95 5 -173 9 -173 4 0 3 -8 -2 -19 -6 -10 -8 -29 -6
-42 6 -27 14 -317 17 -544 0 -82 3 -154 6 -159 3 -5 4 -35 3 -65 -1 -31 5
-119 14 -196 9 -78 18 -257 20 -405 2 -146 6 -283 9 -305 8 -72 18 -345 12
-345 -3 0 -23 6 -43 14 -41 15 -137 31 -278 45 -114 12 -289 7 -441 -13 -80
-10 -246 -17 -509 -20 -214 -3 -475 -8 -580 -12 -262 -9 -454 -9 -555 0 -47 5
-155 9 -240 11 -85 1 -176 5 -202 10 -27 4 -53 4 -60 -2 -7 -5 -51 -7 -98 -5
-47 1 -177 4 -290 6 -113 2 -272 7 -353 11 -129 7 -149 10 -158 26 -7 13 -5
25 4 41 8 13 15 40 16 61 0 21 3 42 6 46 5 9 11 128 20 391 4 111 13 264 35
610 14 205 23 674 20 1020 -1 8 4 40 10 70 12 64 5 279 -11 328 -6 18 -9 35
-7 37 8 8 196 15 572 20 220 4 402 7 405 7 3 1 38 -4 77 -11 39 -7 95 -10 125
-7 30 3 126 8 214 11 213 7 323 14 365 25 50 13 320 19 1094 24 373 3 681 7
684 10 8 8 17 7 45 -3z"/>
<path d="M15792 5199 c-7 -11 -10 -29 -6 -41 7 -23 23 -117 28 -168 7 -70 28
-165 38 -178 6 -7 12 -39 13 -70 1 -59 13 -146 22 -172 3 -8 5 -35 3 -60 -1
-25 -3 -60 -4 -79 -1 -24 4 -37 20 -47 27 -18 57 -8 51 17 -3 11 -1 21 3 24
15 9 -15 226 -37 270 -11 20 -12 30 -4 33 6 2 9 7 6 11 -12 20 -55 264 -70
404 -5 41 -12 60 -25 67 -24 13 -23 13 -38 -11z"/>
<path d="M14451 5107 c-10 -23 -39 -91 -64 -152 -25 -60 -51 -111 -59 -112
-11 -3 -48 59 -48 81 0 26 -113 171 -134 171 -22 1 -25 -36 -19 -300 5 -276
11 -315 47 -315 11 0 15 32 21 143 4 78 5 181 4 230 -2 48 -1 87 2 87 4 0 16
-24 28 -52 43 -106 55 -123 95 -126 37 -3 37 -3 71 73 19 42 35 82 35 90 0 23
49 89 55 74 13 -37 33 -161 29 -174 -3 -8 -1 -29 5 -48 6 -18 12 -65 13 -103
1 -61 4 -72 25 -88 13 -10 27 -15 30 -12 10 9 3 113 -12 216 -9 52 -16 102
-16 110 -5 60 -49 210 -67 228 l-22 22 -19 -43z"/>
<path d="M16366 5091 c-4 -6 -4 -78 0 -161 l7 -149 -29 -6 c-68 -15 -85 -27
-82 -54 3 -23 8 -26 43 -29 62 -5 67 -14 60 -101 -12 -150 -13 -144 18 -155
47 -17 54 4 60 179 l3 69 34 12 c63 21 170 33 195 22 26 -12 35 -56 35 -169 0
-37 4 -69 10 -71 6 -2 6 -18 0 -43 -10 -46 9 -78 44 -73 17 3 23 17 37 86 16
79 40 132 58 132 22 0 88 -125 98 -183 3 -22 14 -48 24 -58 21 -21 49 -15 49
10 -1 41 -31 154 -48 179 -11 15 -22 36 -26 48 -3 11 -21 37 -40 57 -37 41
-76 48 -113 22 -21 -15 -21 -14 -28 52 -3 38 -10 77 -14 88 -5 11 -5 28 -2 37
12 34 0 153 -18 177 -16 20 -21 22 -41 11 -21 -11 -22 -16 -16 -78 11 -111 15
-136 27 -164 7 -16 7 -33 2 -43 -8 -14 -12 -13 -34 7 -34 31 -82 46 -159 48
-35 0 -66 2 -67 4 -1 1 -9 47 -18 102 -8 54 -19 117 -24 138 -11 44 -35 74
-45 57z"/>
<path d="M16100 4911 c-15 -30 -12 -38 15 -43 29 -6 44 24 25 47 -17 20 -27
19 -40 -4z"/>
<path d="M14780 4900 c0 -5 -5 -10 -12 -10 -17 0 -87 -80 -104 -120 -13 -31
-13 -40 1 -85 35 -111 53 -125 145 -114 59 7 68 11 102 49 42 46 45 67 24 140
-18 67 -34 92 -73 123 -36 27 -83 37 -83 17z m67 -60 c20 -23 52 -97 52 -121
1 -9 -17 -35 -39 -58 -29 -30 -48 -41 -69 -41 -80 0 -82 144 -3 217 30 28 38
28 59 3z"/>
<path d="M15081 4820 c-28 -24 -37 -27 -52 -17 -31 19 -36 -2 -29 -118 8 -130
20 -165 53 -165 13 0 26 2 29 5 2 3 -1 41 -7 85 -9 61 -9 88 0 114 14 39 37
66 57 66 8 0 19 5 25 11 19 19 58 -20 84 -86 15 -38 24 -85 25 -128 3 -82 26
-129 51 -104 23 23 19 131 -7 192 -27 63 -87 143 -122 161 -40 21 -69 17 -107
-16z"/>
<path d="M15448 4814 c-69 -37 -102 -192 -56 -259 31 -47 78 -75 123 -75 79 0
205 90 217 155 11 57 -51 148 -122 177 -41 17 -132 18 -162 2z m171 -60 c28
-17 51 -56 51 -88 0 -11 -27 -46 -61 -80 -57 -55 -66 -60 -108 -60 l-45 -1
-12 70 c-14 77 -11 98 18 135 32 41 109 53 157 24z"/>
<path d="M16153 4715 c-12 -13 -20 -115 -11 -131 3 -5 6 -33 6 -63 1 -56 27
-101 51 -87 9 6 10 155 2 272 -1 17 -35 23 -48 9z"/>
<path d="M12694 5758 c-5 -7 -9 -58 -9 -113 0 -55 -4 -120 -8 -145 -8 -50 -3
-64 31 -74 22 -7 22 -6 22 71 0 43 4 92 9 108 18 65 -19 194 -45 153z"/>
<path d="M9140 5466 c-45 -25 -70 -71 -74 -134 -3 -48 0 -62 19 -86 13 -16 32
-31 42 -33 89 -15 92 -15 122 6 40 29 58 85 42 133 -20 62 -80 127 -116 127
-5 0 -21 -6 -35 -13z m77 -63 c25 -23 46 -87 38 -113 -8 -24 -61 -54 -81 -46
-8 3 -14 12 -14 20 0 8 -9 17 -19 21 -25 8 -42 55 -28 81 19 36 40 54 62 54
13 0 31 -8 42 -17z"/>
<path d="M9384 5424 c-50 -34 -54 -40 -54 -95 0 -37 5 -50 28 -72 39 -38 84
-52 114 -35 13 7 32 13 43 14 42 5 76 25 86 51 15 39 3 85 -29 116 -56 54
-128 62 -188 21z m164 -55 c17 -16 32 -37 32 -45 0 -22 -61 -54 -103 -54 -41
0 -93 24 -102 48 -9 25 4 49 38 66 52 25 97 21 135 -15z"/>
<path d="M11455 5443 c-25 -6 -55 -32 -55 -48 0 -7 -7 -18 -15 -25 -11 -9 -15
-32 -15 -79 1 -64 2 -67 37 -93 36 -28 57 -33 123 -29 52 3 87 20 94 44 18 66
-6 140 -62 195 -42 41 -60 46 -107 35z m80 -65 c27 -30 55 -88 55 -113 0 -40
-17 -55 -67 -61 -55 -7 -92 29 -100 94 -5 44 -3 51 21 70 18 14 37 20 58 17
16 -2 31 -5 33 -7z"/>
<path d="M9744 5430 c-26 -10 -66 -72 -68 -105 0 -14 -4 -25 -8 -25 -15 0 -8
-25 16 -55 l23 -29 77 12 c95 15 114 24 118 59 7 52 -35 115 -91 139 -38 16
-38 16 -67 4z m91 -66 c51 -55 29 -84 -62 -84 -41 0 -43 1 -43 30 0 79 56 107
105 54z"/>
<path d="M8670 5415 c-12 -14 2 -55 19 -55 4 0 17 -8 29 -17 12 -10 44 -34 71
-53 47 -33 63 -61 42 -75 -5 -3 -12 -18 -16 -34 -3 -15 -21 -51 -40 -80 -19
-29 -35 -58 -35 -65 0 -7 -5 -17 -12 -24 -9 -9 -8 -15 8 -26 24 -18 35 -9 68
57 14 29 30 59 36 67 30 46 70 123 70 135 0 7 4 15 8 17 27 11 77 158 53 158
-9 0 -50 -46 -82 -91 -15 -22 -15 -22 -45 -3 -16 10 -31 21 -34 24 -7 7 -80
54 -106 68 -17 9 -24 9 -34 -3z"/>
<path d="M12388 5400 c-44 -23 -69 -69 -71 -127 -2 -46 0 -48 30 -58 18 -6 45
-23 61 -38 24 -23 35 -26 71 -23 77 8 115 68 90 143 -15 46 -46 90 -68 96 -9
3 -30 10 -48 15 -25 8 -39 6 -65 -8z m82 -47 c80 -55 90 -133 19 -147 -52 -10
-76 2 -98 50 -20 41 -20 47 -6 73 22 44 47 51 85 24z"/>
<path d="M10372 5400 c-25 -11 -68 -56 -77 -82 -3 -9 1 -33 9 -52 12 -29 21
-36 42 -36 20 0 25 4 20 16 -30 78 -10 104 78 104 63 -1 80 -8 109 -50 24 -35
22 -45 -20 -70 -37 -22 -108 -29 -150 -16 -36 12 -27 -11 9 -23 17 -6 55 -14
82 -17 47 -5 54 -3 89 26 29 25 37 38 37 65 0 54 -15 80 -66 114 -50 33 -112
41 -162 21z"/>
<path d="M10762 5394 c-12 -8 -22 -23 -22 -33 0 -11 -7 -21 -15 -25 -11 -4
-15 -20 -15 -55 0 -31 6 -55 15 -65 8 -8 15 -19 15 -25 0 -13 -2 -13 38 -2 24
7 44 6 74 -5 38 -13 43 -13 74 7 36 22 54 47 54 74 0 28 -31 85 -46 85 -8 0
-14 7 -14 15 0 38 -115 60 -158 29z m91 -34 c29 -1 94 -80 82 -100 -3 -5 -20
-17 -36 -26 -25 -12 -37 -13 -67 -3 -71 23 -87 55 -55 110 16 26 54 43 61 27
2 -5 9 -8 15 -8z"/>
<path d="M12118 5396 c-20 -6 -43 -17 -50 -24 -6 -6 -18 -12 -25 -12 -17 0
-63 -70 -63 -97 0 -29 27 -55 54 -51 18 3 21 9 18 41 -3 28 1 44 15 57 30 27
59 40 92 40 26 0 31 -4 31 -24 0 -32 -49 -91 -63 -77 -14 14 -47 14 -47 1 0
-16 61 -49 79 -43 79 28 104 167 34 194 -28 10 -26 11 -75 -5z"/>
<path d="M9993 5369 c-32 -26 -41 -39 -37 -54 3 -11 9 -36 13 -55 7 -40 46
-67 69 -48 7 6 11 17 8 25 -6 15 -2 15 69 13 91 -2 122 24 99 85 -9 22 -80 55
-134 62 -40 5 -50 2 -87 -28z m147 -38 c26 -15 28 -20 16 -30 -20 -17 -126 -4
-126 15 0 7 15 18 33 23 45 13 43 13 77 -8z"/>
<path d="M11770 5383 c-35 -6 -82 -74 -82 -120 0 -46 21 -62 76 -61 23 0 56
-3 73 -6 42 -10 84 13 107 57 22 41 13 81 -25 109 -24 18 -100 28 -149 21z
m128 -59 c21 -14 21 -17 7 -44 -18 -35 -70 -49 -115 -30 -16 6 -34 9 -39 5 -6
-3 -11 2 -11 12 0 34 12 62 29 66 39 11 108 6 129 -9z"/>
<path d="M2941 5371 c-12 -7 -10 -15 7 -42 11 -19 32 -70 47 -114 15 -44 31
-84 36 -89 19 -21 8 85 -17 150 -29 78 -52 108 -73 95z"/>
<path d="M11083 5351 c-22 -19 -53 -92 -49 -114 11 -52 20 -67 49 -77 27 -9
34 -8 47 7 12 14 27 17 74 15 49 -3 62 0 82 19 34 32 31 69 -9 107 -34 33
-103 62 -146 62 -14 -1 -36 -9 -48 -19z m124 -53 c28 -7 45 -17 49 -31 10 -32
-22 -49 -84 -45 -54 3 -60 0 -40 -20 18 -18 -3 -14 -24 5 -19 17 -22 41 -12
81 7 25 37 28 111 10z"/>
<path d="M5710 5333 c-64 -3 -375 -23 -438 -29 -29 -2 -90 -3 -135 -3 -737 6
-935 -5 -1001 -56 -19 -14 -19 -19 -6 -82 11 -53 14 -185 13 -608 -1 -297 -1
-643 -1 -770 -1 -126 0 -241 0 -255 0 -14 0 -77 -2 -141 -1 -64 2 -124 8 -135
11 -21 16 -77 31 -339 15 -257 15 -278 6 -298 -13 -31 19 -44 83 -36 31 4 78
4 105 -2 45 -8 246 8 338 27 127 26 512 16 739 -20 84 -13 454 -31 615 -30
152 1 1082 2 1460 1 231 0 476 0 543 1 92 1 151 -4 228 -19 124 -25 171 -21
180 17 3 13 1 30 -5 38 -11 13 -27 169 -36 361 -3 61 -8 139 -11 175 -10 103
-12 144 -19 330 -10 265 -59 539 -106 596 -6 7 -8 18 -5 23 4 6 2 18 -3 28
-45 79 -127 527 -116 628 3 28 7 110 10 183 2 72 7 176 10 230 3 53 2 103 -3
110 -7 10 -19 10 -58 1 -27 -6 -71 -13 -99 -14 -27 -2 -50 -3 -50 -4 0 -1
-402 -13 -480 -15 -16 0 -46 4 -65 8 -43 10 -230 22 -550 35 -135 6 -288 15
-340 20 -52 5 -139 10 -194 11 -54 1 -119 6 -145 12 -25 5 -92 12 -148 14
-171 7 -305 9 -353 7z m442 -73 c158 -27 247 -34 623 -46 99 -3 225 -9 280
-15 379 -36 451 -38 765 -24 96 4 206 8 244 9 l70 1 -2 -105 c-2 -58 -6 -148
-10 -200 -11 -153 -5 -296 18 -410 11 -58 25 -126 30 -152 12 -65 69 -267 81
-290 39 -73 81 -335 94 -593 4 -66 8 -142 10 -170 1 -27 7 -141 13 -252 6
-111 14 -212 16 -225 3 -13 8 -48 11 -78 3 -30 8 -70 11 -89 l7 -34 -44 6
c-24 4 -75 12 -114 19 -38 7 -135 12 -215 12 -371 -2 -941 -3 -1195 -1 -154 1
-397 -1 -540 -6 -262 -7 -699 4 -845 23 -41 6 -115 12 -165 14 -49 3 -153 8
-230 13 -183 10 -245 8 -417 -18 -115 -17 -166 -19 -263 -14 -66 4 -125 11
-132 17 -14 11 -23 77 -28 208 -2 52 -7 124 -11 160 -4 36 -7 81 -6 100 0 19
-4 64 -10 100 -7 41 -10 226 -8 505 4 592 1 1336 -5 1412 -3 34 -1 64 4 68 34
20 165 27 666 35 308 4 580 11 605 15 25 3 72 9 105 13 88 10 514 4 587 -8z"/>
<path d="M6241 4923 c0 -16 6 -106 12 -201 l12 -172 -55 6 c-46 5 -62 2 -91
-15 -41 -24 -79 -86 -79 -128 0 -35 65 -109 102 -117 108 -22 150 -13 202 44
20 22 36 45 36 50 0 21 -42 8 -77 -24 -51 -45 -76 -51 -129 -31 -91 35 -115
123 -43 160 53 28 85 20 134 -32 43 -46 45 -47 59 -28 12 17 12 24 -1 55 -8
19 -16 73 -18 120 -4 91 -16 254 -24 333 -1 4 -10 7 -21 7 -15 0 -20 -6 -19
-27z"/>
<path d="M4556 4855 c-17 -13 -17 -16 -1 -58 13 -35 17 -86 19 -253 2 -115 4
-216 5 -225 2 -25 45 -37 181 -49 69 -6 146 -17 172 -25 54 -15 66 -7 42 30
-21 33 -64 44 -214 57 -69 5 -129 14 -135 19 -6 6 -10 107 -11 249 -2 269 -7
293 -58 255z"/>
<path d="M5230 4537 c-82 -39 -153 -118 -153 -168 0 -29 38 -89 57 -89 6 0 29
-9 51 -20 77 -39 168 -12 206 61 26 52 23 143 -7 178 -40 48 -102 63 -154 38z
m96 -55 c22 -15 44 -57 44 -84 0 -60 -45 -106 -114 -115 -27 -3 -39 2 -74 36
-49 47 -51 62 -18 106 39 51 126 82 162 57z"/>
<path d="M5665 4531 c-86 -31 -99 -38 -127 -65 -36 -37 -43 -71 -21 -108 16
-28 74 -58 99 -52 5 1 22 5 37 8 19 5 38 23 63 61 19 30 37 55 40 55 4 0 29
-24 58 -54 53 -56 116 -96 116 -75 0 13 -66 105 -111 154 -15 17 -29 44 -31
60 -3 27 -7 30 -38 32 -19 1 -57 -6 -85 -16z m42 -78 c10 -26 -41 -107 -70
-111 -33 -4 -89 43 -85 72 6 44 140 78 155 39z"/>
<path d="M4614 3700 c-35 -11 -94 -61 -94 -79 0 -6 11 -16 23 -20 21 -8 26
-21 37 -88 7 -43 16 -127 19 -188 5 -86 9 -110 20 -110 20 0 32 50 27 111 -3
32 0 58 7 68 11 16 17 15 72 -10 66 -30 205 -120 205 -132 0 -14 -53 -47 -113
-71 -56 -23 -110 -25 -160 -5 -25 9 -23 -32 3 -46 32 -17 140 -14 190 6 64 25
88 44 110 86 l20 37 -67 56 c-37 30 -71 55 -76 55 -5 0 -25 14 -44 30 -18 17
-38 30 -43 30 -6 0 -10 7 -10 15 0 8 7 15 16 15 22 0 154 88 155 103 0 7 2 19
3 27 11 56 -79 110 -194 116 -41 2 -89 -1 -106 -6z m163 -55 c61 -18 96 -44
88 -65 -7 -19 -67 -54 -141 -81 l-58 -22 -17 22 c-10 12 -23 47 -30 78 -12 51
-11 57 6 69 25 18 89 18 152 -1z"/>
<path d="M5575 3698 c-3 -8 1 -47 10 -88 9 -40 18 -112 21 -159 3 -47 10 -93
15 -103 5 -9 9 -47 10 -85 1 -95 12 -176 24 -180 18 -5 38 14 37 38 0 13 -9
94 -20 179 -11 85 -20 173 -21 195 -1 22 -5 60 -11 85 -5 25 -12 63 -17 85 -8
41 -38 61 -48 33z"/>
<path d="M7885 3472 c-22 -2 -44 -8 -49 -13 -6 -5 -18 -9 -27 -9 -9 0 -23 -7
-30 -16 -7 -9 -23 -20 -36 -25 -12 -4 -32 -26 -45 -48 -25 -44 -38 -52 -38
-22 0 33 -11 51 -32 51 -19 0 -20 -5 -14 -76 7 -91 23 -141 48 -147 22 -6 34
14 54 90 18 69 43 105 91 130 21 11 53 28 71 38 18 9 51 19 73 22 85 12 29 32
-66 25z"/>
<path d="M6900 3443 c-61 -11 -113 -48 -148 -104 -36 -59 -25 -106 40 -164 42
-38 67 -52 120 -66 77 -20 144 -10 180 28 l23 25 -40 -8 c-108 -22 -198 4
-259 77 -35 41 -33 73 7 113 41 43 98 60 151 45 30 -8 41 -8 47 2 10 16 -7 49
-25 49 -7 0 -26 2 -42 4 -16 2 -40 2 -54 -1z"/>
<path d="M5967 3406 c-32 -18 -81 -56 -108 -84 -44 -45 -49 -55 -49 -94 0 -69
58 -113 132 -102 62 10 71 17 98 73 14 28 28 50 31 51 4 0 12 -13 19 -30 7
-16 27 -41 45 -54 28 -21 42 -25 89 -22 31 1 61 7 66 12 6 6 14 46 20 89 8 68
14 83 36 101 31 25 90 25 125 1 37 -26 79 -97 79 -132 0 -67 11 -95 36 -95 22
0 24 4 24 48 0 68 -33 149 -81 198 -34 34 -49 42 -91 47 -57 7 -113 -11 -135
-43 -8 -11 -25 -20 -37 -20 -39 0 -49 -22 -37 -80 15 -72 14 -90 -7 -90 -31 0
-63 31 -86 83 -38 88 -55 131 -58 152 -5 31 -46 28 -111 -9z m57 -55 c11 -17
-16 -127 -40 -163 -28 -44 -62 -50 -94 -18 -41 41 -33 109 15 131 11 6 38 21
60 34 44 27 51 29 59 16z"/>
<path d="M7277 3416 c-40 -15 -125 -80 -134 -102 -3 -8 0 -21 7 -29 7 -8 10
-24 7 -35 -3 -11 -2 -20 2 -20 5 0 39 -27 76 -60 77 -68 95 -75 167 -67 56 7
111 39 127 75 13 26 14 42 3 27 -12 -16 -85 -52 -120 -59 -40 -7 -88 12 -121
47 -20 22 -22 29 -11 42 7 8 21 15 31 15 11 0 19 5 19 10 0 6 8 10 18 10 29 1
83 58 89 95 5 30 2 35 -25 49 -37 19 -84 20 -135 2z m111 -56 c2 -10 -22 -28
-68 -53 -80 -42 -88 -44 -106 -19 -19 25 -18 27 29 62 36 26 49 30 92 28 35
-2 51 -8 53 -18z"/>
<path d="M5274 3389 c-103 -65 -185 -170 -168 -214 3 -8 21 -26 40 -40 29 -22
42 -26 76 -21 41 6 100 40 134 77 23 25 31 24 60 -10 29 -35 84 -56 121 -46
l26 6 -32 27 c-17 15 -35 41 -39 57 -6 20 -20 37 -44 49 -44 24 -89 93 -81
124 8 33 -32 29 -93 -9z m54 -75 c19 -41 4 -105 -32 -136 -54 -48 -136 -29
-136 32 0 30 47 76 114 111 42 22 41 23 54 -7z"/>
<path d="M12706 5265 c-9 -35 10 -67 37 -63 18 2 22 10 22 43 0 36 -3 40 -26
43 -21 2 -28 -2 -33 -23z"/>
<path d="M2782 5082 c-59 -63 -62 -70 -49 -137 7 -33 16 -66 20 -72 12 -18
108 -16 155 3 32 12 41 22 51 55 24 81 -19 160 -99 178 -41 9 -44 8 -78 -27z
m124 -46 c50 -50 47 -89 -7 -116 -39 -21 -41 -21 -71 -3 -17 10 -40 30 -51 45
-17 23 -19 31 -9 53 11 24 60 54 91 55 7 0 28 -15 47 -34z"/>
<path d="M2618 5042 c-9 -20 -20 -50 -24 -65 -6 -27 -7 -27 -33 -11 -14 9 -38
27 -52 40 -22 21 -27 22 -44 10 -18 -13 -18 -14 3 -43 12 -17 37 -42 57 -57
19 -15 35 -30 35 -34 0 -4 -20 -43 -45 -86 -34 -61 -42 -82 -34 -93 6 -7 15
-13 19 -13 12 0 85 147 105 210 10 30 21 60 25 65 11 15 22 115 13 115 -4 0
-16 -17 -25 -38z"/>
<path d="M13111 5021 c-19 -19 -19 -23 9 -169 13 -75 7 -82 -69 -82 -37 0 -71
-4 -77 -9 -5 -5 -70 -11 -144 -12 -74 -2 -148 -7 -165 -11 -16 -4 -169 -8
-340 -9 -189 0 -326 -5 -350 -11 -22 -6 -83 -10 -135 -9 -53 1 -105 -2 -118
-6 -12 -5 -68 -5 -124 -1 -99 6 -215 13 -433 23 -130 7 -224 14 -255 20 -14 3
-135 10 -270 15 -135 5 -274 16 -310 24 -36 7 -72 14 -80 14 -285 10 -367 15
-425 22 -38 5 -142 7 -230 5 -206 -5 -208 -5 -223 -10 -7 -3 -99 -8 -205 -11
-106 -4 -217 -8 -247 -9 -122 -7 -301 -39 -385 -69 -42 -15 -60 -45 -28 -47
46 -3 141 3 174 12 48 12 328 31 678 45 79 3 154 9 166 14 13 5 25 7 27 5 2
-2 51 -6 109 -9 57 -3 111 -7 119 -10 8 -3 114 -8 235 -11 236 -5 308 -9 326
-21 16 -10 113 -16 299 -19 85 -1 187 -7 225 -13 70 -12 203 -20 410 -26 61
-2 160 -7 220 -11 61 -5 128 -9 150 -9 112 1 227 7 290 16 39 5 151 11 250 13
216 4 556 16 605 20 19 2 78 8 130 14 52 6 117 11 144 11 l49 0 -7 -82 c-6
-68 -12 -88 -32 -109 -56 -59 -1 -68 73 -12 26 20 77 52 113 71 171 90 204
105 218 105 8 0 28 13 44 28 36 32 32 69 -8 69 -16 0 -43 19 -79 55 -78 77
-269 215 -298 215 -4 0 -15 -8 -26 -19z"/>
<path d="M3055 4954 c-15 -11 -17 -18 -9 -32 16 -24 38 -21 42 7 5 32 -9 43
-33 25z"/>
<path d="M1046 4918 c-128 -12 -192 -41 -216 -98 -10 -25 -10 -59 4 -188 9
-86 19 -223 22 -303 l6 -146 -99 5 c-95 4 -101 3 -159 -26 -130 -65 -193 -158
-201 -295 -5 -71 -2 -89 15 -124 22 -43 66 -82 145 -127 26 -15 47 -29 47 -32
0 -3 -11 -30 -25 -60 -14 -30 -30 -74 -36 -97 -16 -61 -37 -211 -32 -220 3 -5
7 -38 9 -75 5 -93 41 -244 72 -307 22 -44 78 -113 136 -168 32 -30 46 -50 39
-54 -16 -6 -17 -39 -1 -49 6 -4 17 1 25 12 12 16 17 17 46 5 17 -7 41 -15 52
-18 11 -3 35 -12 54 -20 24 -11 53 -14 97 -10 34 2 66 1 71 -4 26 -26 261 -42
288 -19 7 6 33 13 58 15 44 4 145 42 223 82 92 49 164 154 224 329 59 171 50
383 -25 566 -34 83 -33 98 6 98 51 0 146 48 169 85 29 46 60 177 60 249 0 55
-4 66 -37 112 -63 85 -162 124 -315 124 -45 0 -58 4 -62 18 -3 9 -5 123 -5
252 0 138 -4 249 -10 269 -8 24 -8 47 0 74 8 31 7 45 -8 75 -30 61 -69 69
-333 73 -124 2 -260 1 -304 -3z m411 -68 c95 -6 152 -14 172 -25 17 -8 31 -17
31 -19 0 -1 -7 -17 -16 -35 -18 -37 -87 -91 -116 -91 -10 0 -31 -8 -45 -17
-36 -24 -298 -32 -382 -12 -81 18 -190 75 -201 103 -5 13 -15 26 -22 29 -24 9
14 34 82 55 74 23 245 27 497 12z m198 -713 l0 -102 -60 -31 c-110 -56 -146
-64 -294 -63 -170 1 -216 8 -316 51 l-80 34 -2 82 c-2 96 6 105 65 78 46 -20
383 -40 464 -26 30 4 86 24 124 43 103 51 99 54 99 -66z m-790 -549 c79 -13
342 -16 605 -6 96 3 209 3 250 -1 l75 -6 19 -40 c11 -22 25 -51 32 -65 6 -14
24 -74 39 -135 24 -95 27 -122 22 -210 -6 -113 -36 -218 -93 -325 -49 -91
-164 -176 -274 -201 -19 -5 -69 -17 -110 -28 -89 -24 -146 -26 -220 -6 -30 8
-62 12 -71 10 -9 -3 -33 2 -54 11 -23 9 -65 16 -104 15 -80 -1 -135 27 -232
116 -105 97 -136 159 -175 348 -34 168 2 385 82 490 45 58 56 60 209 33z"/>
<path d="M840 3477 c-39 -20 -48 -30 -72 -87 -30 -75 -36 -152 -13 -206 8 -19
14 -40 12 -46 -1 -6 12 -19 28 -29 79 -49 158 -58 246 -30 100 33 129 74 122
171 -7 104 -48 168 -140 220 -64 36 -119 38 -183 7z m178 -57 c23 -11 42 -24
42 -28 0 -5 8 -17 18 -28 32 -34 42 -67 45 -142 1 -44 -2 -56 -18 -65 -34 -20
-128 -40 -185 -38 -47 1 -58 5 -78 29 -57 69 -67 178 -23 241 37 51 127 66
199 31z"/>
<path d="M910 3350 c-23 -23 -26 -67 -6 -93 20 -26 78 -33 99 -12 25 24 22 77
-6 103 -29 27 -61 28 -87 2z"/>
<path d="M1473 3363 c-24 -5 -63 -47 -63 -68 0 -20 32 -42 80 -55 41 -11 46
-10 62 10 25 31 22 66 -7 95 -24 25 -30 26 -72 18z"/>
<path d="M743 3085 c-3 -9 2 -24 12 -35 9 -10 18 -32 20 -48 2 -36 12 -52 31
-52 19 0 10 58 -19 113 -20 40 -34 46 -44 22z"/>
<path d="M1594 2952 c-6 -4 -14 -17 -18 -30 -9 -29 -61 -68 -117 -87 -69 -25
-211 -29 -273 -9 -61 20 -158 68 -204 102 -61 44 -88 -4 -30 -53 51 -43 210
-114 272 -121 53 -6 201 9 241 26 90 36 103 44 138 92 21 28 36 59 35 67 -4
18 -27 25 -44 13z"/>
<path d="M794 2909 c-9 -16 12 -33 31 -25 14 5 15 9 5 21 -15 18 -26 19 -36 4z"/>
<path d="M800 2810 c0 -15 5 -20 18 -18 9 2 17 10 17 18 0 8 -8 16 -17 18 -13
2 -18 -3 -18 -18z"/>
<path d="M801 2731 c-18 -11 -5 -31 20 -31 21 0 22 1 13 24 -7 18 -13 19 -33
7z"/>
<path d="M3443 4759 c4 -24 9 -56 13 -71 l6 -28 -93 0 c-132 0 -421 -18 -504
-31 -79 -12 -178 -34 -245 -54 -25 -8 -79 -23 -120 -35 -116 -34 -250 -124
-223 -151 8 -8 35 2 98 36 94 50 137 65 350 121 137 36 146 37 405 46 146 5
283 5 305 0 l40 -8 1 -70 c1 -92 2 -94 19 -94 8 0 24 -5 35 -12 17 -11 24 -7
62 34 49 52 175 134 231 149 53 14 50 41 -10 79 -27 17 -59 33 -73 36 -14 3
-38 12 -55 19 -44 19 -175 62 -214 70 l-34 7 6 -43z"/>
<path d="M11260 3518 c-47 -4 -224 -8 -394 -8 -169 1 -317 -2 -327 -5 -13 -4
-19 -16 -19 -35 0 -28 -10 -41 -140 -179 -142 -149 -143 -150 -130 -166 13
-16 31 -160 33 -265 0 -30 5 -120 10 -200 5 -80 10 -154 10 -165 -1 -11 6 -56
14 -100 13 -72 23 -186 38 -460 3 -49 7 -106 9 -125 19 -154 22 -344 15 -969
-1 -88 0 -96 22 -114 22 -18 34 -19 149 -12 69 4 164 9 213 10 48 2 131 11
185 19 120 19 196 21 382 11 104 -5 183 -3 280 8 74 8 151 13 170 12 62 -4
360 -15 545 -21 203 -7 246 -9 292 -19 55 -12 59 21 23 205 -6 30 -15 120 -20
200 -5 80 -12 159 -15 175 -14 71 -26 205 -37 415 -12 253 -17 1329 -5 1337 4
2 7 32 7 66 0 34 5 94 11 132 15 96 12 176 -7 195 -12 12 -55 15 -249 16 -131
0 -235 -3 -235 -8 0 -5 -5 -6 -12 -2 -6 4 -87 6 -179 5 -93 -1 -177 2 -186 8
-10 5 -61 12 -113 15 -52 4 -120 13 -150 21 -59 16 -63 16 -190 3z m200 -95
c30 -9 91 -17 136 -18 44 -2 116 -6 160 -10 43 -4 131 -7 194 -6 63 0 224 2
357 3 164 2 239 0 233 -7 -5 -6 -11 -30 -14 -53 -3 -23 -7 -46 -10 -50 -8 -13
-30 -438 -30 -567 0 -108 9 -217 17 -222 4 -3 3 -11 -3 -18 -8 -10 -8 -19 -1
-34 14 -25 14 -34 0 -26 -7 5 -10 -38 -9 -141 0 -82 1 -188 0 -235 0 -48 4
-98 9 -111 5 -14 10 -105 10 -203 0 -98 3 -199 6 -224 11 -85 27 -186 32 -201
3 -8 6 -71 9 -140 3 -117 14 -195 35 -264 11 -36 12 -89 1 -82 -4 2 -86 7
-182 11 -164 6 -354 16 -565 31 -56 4 -126 1 -185 -7 -114 -16 -250 -19 -380
-9 -104 9 -331 -5 -370 -21 -14 -6 -92 -15 -175 -20 -82 -5 -183 -11 -223 -14
l-74 -5 4 342 c4 319 -1 531 -16 688 -6 62 -8 91 -21 305 -9 157 -16 239 -25
280 -12 56 -30 267 -35 410 -2 66 -7 155 -11 198 -6 71 -5 77 12 77 36 -1 264
-78 290 -99 36 -29 62 -27 75 5 7 21 5 34 -11 63 -77 136 -89 172 -92 276 l-3
100 135 3 c267 5 325 5 350 -2 14 -3 59 0 100 8 84 16 185 12 270 -11z m-916
-79 c3 -9 6 -43 6 -77 0 -45 7 -77 25 -116 14 -30 24 -55 22 -57 -3 -3 -249
65 -255 71 -5 5 178 195 189 195 4 0 10 -7 13 -16z"/>
<path d="M10760 3195 c-24 -29 -3 -52 53 -58 28 -4 80 -11 115 -17 155 -25
193 -29 292 -30 58 -1 140 3 183 9 70 8 286 -1 306 -13 17 -11 256 -6 449 9
l91 7 11 -40 c15 -57 16 -113 7 -382 -7 -217 -20 -360 -33 -381 -18 -29 -23
-687 -9 -1043 l7 -168 -53 7 c-121 17 -461 7 -654 -19 -16 -2 -102 -12 -189
-20 -88 -9 -180 -22 -205 -27 -25 -6 -71 -13 -101 -15 -30 -2 -82 -6 -115 -9
-86 -9 -226 -8 -236 2 -12 13 -13 135 -4 568 4 220 8 407 7 415 -10 324 -16
420 -37 590 -8 63 -17 149 -20 190 -7 82 -26 123 -48 101 -14 -14 -13 -165 2
-256 20 -112 32 -250 38 -430 7 -222 7 -155 -2 -590 -8 -419 -9 -634 -4 -638
51 -36 56 -37 221 -31 239 9 269 11 313 22 22 6 108 15 190 22 83 6 173 15
200 20 28 6 104 13 170 16 66 3 124 8 128 11 16 10 361 3 371 -7 17 -17 74
-12 85 8 7 12 7 102 0 258 -16 421 -11 935 11 1024 14 56 23 205 33 559 3 113
-11 250 -32 305 l-12 29 -71 -7 c-199 -18 -424 -21 -528 -6 -76 11 -254 11
-430 1 -99 -6 -152 -4 -255 10 -160 23 -228 24 -245 4z"/>
<path d="M10826 2346 c-31 -48 -5 -66 99 -66 33 0 65 -4 71 -8 34 -23 94 -199
94 -276 0 -74 -7 -80 -78 -73 -73 6 -122 32 -122 64 0 13 -4 23 -10 23 -13 0
-50 -37 -50 -51 0 -27 44 -68 92 -87 135 -53 207 -26 223 84 7 48 -6 114 -61
297 -5 16 1 17 68 15 72 -3 73 -3 73 22 0 42 -55 60 -203 65 -70 3 -139 7
-153 10 -20 4 -30 -1 -43 -19z"/>
<path d="M11764 2331 c-39 -10 -76 -37 -104 -78 -17 -26 -20 -40 -15 -75 5
-35 2 -52 -13 -78 -18 -28 -19 -36 -7 -54 8 -13 12 -48 11 -96 -2 -79 6 -110
28 -110 22 0 39 56 34 111 -5 46 -3 51 18 59 12 5 31 9 41 9 82 -1 174 36 208
83 46 67 -18 195 -114 227 -37 12 -42 12 -87 2z m118 -101 c41 -34 53 -73 29
-93 -24 -20 -88 -37 -151 -40 l-55 -2 -2 52 c-1 48 1 55 33 83 47 41 96 41
146 0z"/>
<path d="M11343 2282 c-22 -9 -50 -26 -62 -36 -26 -23 -27 -69 -3 -93 10 -10
29 -34 44 -53 16 -22 52 -49 92 -70 74 -37 84 -63 36 -87 -52 -27 -187 8 -204
52 -7 19 -26 19 -26 0 0 -8 -4 -15 -10 -15 -17 0 -11 -29 11 -51 48 -48 177
-87 194 -59 3 6 18 10 33 10 49 1 82 45 82 110 0 44 -29 73 -116 113 -37 18
-94 85 -87 103 6 16 71 26 133 22 42 -3 45 -1 48 23 6 48 -83 64 -165 31z"/>
<path d="M8950 3208 c-11 -12 -20 -27 -20 -34 0 -21 -153 -170 -171 -167 -13
3 -89 -59 -89 -73 0 -15 32 -34 59 -34 17 0 42 -11 59 -25 17 -14 33 -25 36
-25 3 0 35 -18 71 -40 36 -22 68 -40 72 -40 3 0 21 -12 40 -26 65 -49 80 -22
52 93 -7 29 -11 55 -8 57 3 3 227 7 499 10 315 3 505 8 523 15 31 12 37 46 9
55 -22 7 -398 9 -771 5 l-274 -4 -17 90 c-10 50 -20 107 -24 128 -8 43 -17 46
-46 15z"/>
<path d="M2467 3095 c-43 -12 -86 -30 -95 -38 -9 -8 -40 -22 -69 -30 -68 -20
-103 -44 -103 -71 0 -43 12 -65 39 -71 32 -7 82 -53 139 -127 47 -61 101 -110
116 -105 5 2 11 39 13 82 4 102 13 111 84 96 98 -21 248 -34 559 -46 370 -16
383 -15 512 4 126 19 223 53 215 75 -5 13 -122 11 -176 -4 -54 -14 -350 -20
-511 -9 -74 5 -214 14 -310 20 -207 13 -322 30 -328 47 -2 7 6 51 18 97 12 46
19 89 15 94 -9 15 -29 13 -118 -14z"/>
<path d="M13078 3115 c-2 -3 -40 -8 -84 -11 -43 -3 -95 -9 -115 -14 -21 -4
-43 -4 -50 1 -8 5 -33 9 -56 9 -50 0 -73 -27 -51 -59 17 -24 116 -26 291 -7
71 7 143 11 160 7 49 -11 329 -3 341 9 7 7 2 18 -16 36 -26 26 -26 26 -220 30
-107 2 -197 2 -200 -1z"/>
<path d="M560 2695 c-11 -14 -9 -20 13 -43 32 -31 41 -26 30 19 -10 38 -25 46
-43 24z"/>
<path d="M625 2590 c-8 -25 -7 -25 21 -34 15 -5 24 -2 28 9 5 13 10 14 27 5
28 -15 48 2 29 25 -14 17 -40 20 -40 4 0 -6 -7 -8 -15 -5 -8 3 -21 9 -29 12
-9 3 -17 -3 -21 -16z"/>
<path d="M2795 2508 c-128 -44 -141 -58 -93 -104 20 -19 53 -55 74 -80 21 -25
51 -52 68 -61 28 -15 29 -16 11 -29 -23 -17 -97 -18 -113 -2 -8 8 -15 8 -27
-2 -41 -34 2 -64 83 -58 47 4 60 10 84 37 44 49 36 80 -23 97 -39 12 -53 23
-84 68 -20 30 -34 59 -31 65 6 8 52 25 134 47 6 2 12 10 12 19 0 18 -47 19
-95 3z"/>
<path d="M3395 2496 c-64 -15 -75 -22 -75 -47 0 -11 -5 -29 -11 -41 -9 -16 -7
-24 9 -41 11 -12 25 -40 32 -62 7 -22 15 -44 18 -49 3 -5 7 -46 9 -90 2 -45 5
-90 8 -100 2 -11 -1 -28 -6 -38 -13 -24 4 -48 34 -48 19 0 20 4 12 93 -5 50
-9 114 -9 142 l-1 49 47 14 c54 15 98 60 98 99 0 38 -39 109 -67 122 -28 13
-33 13 -98 -3z m88 -57 c57 -30 50 -76 -16 -104 -36 -15 -38 -15 -62 9 -31 31
-35 92 -7 99 32 9 63 7 85 -4z"/>
<path d="M2985 2478 c-2 -7 -3 -62 -2 -123 2 -109 2 -110 30 -123 36 -17 56
-10 111 42 46 43 55 43 69 4 6 -17 53 -35 64 -25 3 3 -10 39 -30 79 -19 40
-37 83 -41 96 -14 44 -56 22 -56 -29 0 -24 -33 -91 -54 -108 -9 -7 -24 -10
-36 -6 -20 6 -21 12 -19 103 3 85 1 97 -14 100 -9 2 -19 -2 -22 -10z"/>
<path d="M3670 2350 c-20 -13 -2 -44 29 -48 18 -3 21 2 21 27 0 33 -19 41 -50
21z"/>
</g>
</svg>
