<?xml version="1.0" standalone="no"?>
<!DOCTYPE svg PUBLIC "-//W3C//DTD SVG 20010904//EN"
 "http://www.w3.org/TR/2001/REC-SVG-20010904/DTD/svg10.dtd">
<svg version="1.0" xmlns="http://www.w3.org/2000/svg"
 width="922.378020pt" height="400.000000pt" viewBox="0 0 922.378020 400.000000"
 preserveAspectRatio="xMidYMid meet">
<metadata>
Created by potrace 1.15, written by Peter Selinger 2001-2017
</metadata>
<g transform="translate(-78.916496,439.004567) scale(0.071096,-0.071096)"
fill="#444444" stroke="none">
<path d="M13325 6156 c-27 -28 -29 -37 -26 -241 2 -124 5 -148 26 -197 19 -46
40 -54 60 -24 14 21 14 36 4 113 -7 55 -9 138 -5 220 5 125 5 133 -14 143 -16
9 -25 6 -45 -14z"/>
<path d="M12991 6142 c-18 -25 -20 -45 -20 -201 -1 -96 -3 -183 -6 -195 -10
-45 -23 -243 -18 -274 7 -40 43 -54 73 -27 16 14 19 32 19 133 1 65 3 135 5
157 2 22 7 123 10 224 7 185 3 211 -30 211 -7 0 -22 -13 -33 -28z"/>
<path d="M8459 6104 c-10 -13 -14 -54 -14 -163 l0 -146 -56 3 c-50 3 -57 1
-72 -21 -15 -23 -15 -26 8 -47 12 -12 42 -24 64 -27 46 -6 57 -25 47 -78 -23
-118 -27 -169 -17 -191 11 -24 35 -31 58 -16 16 10 31 79 39 180 7 79 8 81 37
92 16 5 56 10 87 10 43 0 59 4 64 16 8 22 -37 64 -71 65 -62 2 -83 5 -93 15
-8 8 -23 199 -21 279 0 41 -35 58 -60 29z"/>
<path d="M11405 6020 c-63 -9 -124 -40 -197 -99 -87 -71 -128 -157 -128 -273
0 -124 37 -219 88 -223 11 -1 26 -6 34 -12 7 -5 38 -20 69 -33 50 -20 62 -21
107 -11 56 12 222 99 261 136 34 33 55 131 39 182 -11 33 -18 39 -53 45 -22 4
-112 5 -200 2 -171 -6 -195 -13 -195 -59 0 -47 21 -51 220 -40 101 6 129 4
144 -7 15 -12 16 -18 7 -35 -9 -18 -101 -83 -116 -83 -3 0 -23 -12 -45 -26
-35 -23 -47 -26 -93 -21 -32 3 -78 18 -114 37 -61 32 -62 33 -69 84 -10 74 -7
107 16 167 12 34 30 61 47 72 16 9 49 33 75 51 37 27 61 35 110 40 35 4 86 9
113 12 60 7 80 23 71 58 -5 21 -14 26 -54 31 -26 3 -56 7 -67 9 -11 2 -43 0
-70 -4z"/>
<path d="M8091 5944 c-27 -34 -26 -42 4 -54 14 -5 25 -14 25 -21 0 -23 25 -1
31 28 7 33 4 40 -22 61 -15 11 -20 9 -38 -14z"/>
<path d="M6245 5888 c-44 -4 -114 -15 -155 -23 -41 -8 -97 -17 -125 -21 -27
-4 -62 -13 -77 -20 -29 -15 -48 -56 -29 -62 6 -2 11 -10 11 -19 0 -12 10 -14
63 -8 34 4 89 13 122 20 33 7 63 11 66 9 3 -2 9 -33 13 -69 4 -36 11 -76 16
-90 5 -13 12 -82 15 -152 3 -70 8 -139 11 -153 7 -32 32 -60 55 -60 10 0 22 8
27 18 10 18 -10 300 -27 387 -6 28 -13 71 -16 96 l-7 46 33 1 c53 1 162 50
167 75 3 15 -39 38 -66 36 -9 -1 -53 -6 -97 -11z"/>
<path d="M8842 5829 c-13 -21 -8 -74 8 -84 31 -19 67 39 48 80 -14 30 -39 32
-56 4z"/>
<path d="M3038 5819 c-23 -17 -25 -23 -18 -50 5 -17 9 -62 9 -101 l0 -70 -35
4 c-30 3 -39 0 -55 -24 -20 -27 -20 -27 1 -48 11 -11 34 -23 50 -27 17 -3 30
-8 30 -12 9 -145 18 -223 27 -232 4 -4 19 -9 33 -11 l25 -3 2 100 c4 146 2
141 75 149 63 8 88 19 88 40 -1 26 -19 36 -76 42 -32 4 -64 10 -70 15 -6 5
-14 50 -18 101 -4 60 -12 100 -24 119 l-17 27 -27 -19z"/>
<path d="M7742 5769 c-52 -21 -93 -61 -107 -107 -8 -28 17 -50 113 -98 85 -43
102 -56 102 -81 0 -28 -28 -50 -76 -61 -33 -7 -43 -6 -51 6 -15 25 -73 -2 -73
-35 0 -50 99 -65 190 -27 62 26 90 61 90 114 0 54 -6 61 -101 114 -79 43 -105
68 -87 83 15 12 76 25 129 28 45 3 59 11 59 35 0 50 -95 64 -188 29z"/>
<path d="M1298 5762 c-103 -23 -188 -92 -188 -153 0 -83 109 -175 218 -184
101 -9 145 -26 198 -72 22 -19 44 -55 44 -72 0 -30 -196 -50 -306 -31 -72 13
-78 12 -91 -6 -22 -30 -11 -48 42 -66 38 -13 75 -16 160 -14 123 4 182 19 227
57 26 21 31 32 30 63 -2 45 -32 101 -74 136 -40 34 -154 79 -199 80 -50 0 -99
18 -131 47 -38 36 -41 61 -12 88 39 37 97 47 232 42 l122 -5 0 26 c0 37 -10
49 -54 67 -44 19 -124 17 -218 -3z"/>
<path d="M11980 5773 c-24 -3 -51 -10 -58 -16 -29 -24 -89 -124 -101 -168 -7
-26 -21 -59 -31 -74 -18 -27 -17 -28 7 -63 45 -67 135 -82 243 -42 104 39 150
104 150 212 0 66 -31 106 -105 135 -32 13 -59 22 -60 21 0 -1 -20 -3 -45 -5z
m80 -101 c22 -5 40 -17 50 -34 13 -24 13 -32 0 -70 -14 -41 -18 -44 -89 -67
l-73 -24 -19 24 c-42 53 -37 99 15 154 26 27 40 34 58 31 12 -3 39 -9 58 -14z"/>
<path d="M12541 5739 c-111 -60 -174 -105 -219 -153 -64 -70 -68 -141 -12
-198 26 -25 34 -28 67 -22 21 4 47 11 58 17 37 19 135 110 155 144 11 19 24
33 29 31 5 -2 30 -31 55 -66 59 -80 87 -94 121 -62 29 27 33 68 8 77 -43 14
-133 145 -133 193 0 28 -28 80 -43 80 -6 0 -45 -18 -86 -41z m19 -100 c0 -28
-43 -100 -80 -133 -67 -60 -112 -70 -123 -26 -7 26 32 65 128 129 63 43 75 48
75 30z"/>
<path d="M1786 5735 c-17 -26 -17 -32 -2 -109 8 -44 18 -91 22 -103 6 -22 4
-23 -64 -23 -60 0 -74 -3 -92 -22 -23 -26 -24 -27 -5 -51 10 -15 32 -20 93
-24 91 -6 92 -8 92 -96 0 -39 5 -53 26 -72 21 -20 30 -22 46 -14 18 10 19 17
13 98 -7 96 -6 99 53 119 44 15 92 50 92 67 0 21 -31 26 -89 15 -84 -16 -89
-11 -120 142 -7 32 -20 67 -30 79 l-17 21 -18 -27z"/>
<path d="M3351 5706 c-12 -21 -11 -28 5 -49 13 -17 28 -25 47 -25 25 1 28 4
22 27 -9 36 -33 71 -49 71 -7 0 -18 -11 -25 -24z"/>
<path d="M9153 5707 c-32 -10 -86 -67 -111 -117 -6 -14 -16 -45 -22 -70 -23
-106 -4 -177 53 -201 27 -12 31 -10 49 14 16 22 27 27 64 27 50 0 85 28 110
87 28 64 10 175 -34 216 -49 45 -74 55 -109 44z m68 -96 c23 -26 24 -34 19
-89 -7 -79 -19 -92 -86 -92 -49 0 -54 2 -60 25 -11 44 5 105 38 146 37 47 55
49 89 10z"/>
<path d="M7311 5651 c-17 -17 -37 -31 -45 -31 -7 0 -23 -11 -35 -24 -17 -18
-21 -32 -17 -53 3 -15 8 -53 11 -83 8 -82 22 -113 56 -133 18 -10 34 -15 37
-12 4 3 5 54 4 113 -2 91 0 112 17 138 28 46 56 49 85 11 30 -41 37 -65 40
-138 3 -68 11 -81 44 -72 51 13 56 100 10 191 -37 74 -80 112 -136 119 -34 5
-43 1 -71 -26z"/>
<path d="M9479 5652 l-41 -24 -23 22 -23 21 -21 -27 c-13 -17 -19 -34 -15 -43
4 -9 9 -69 10 -135 2 -65 5 -120 7 -122 2 -2 17 -7 34 -10 37 -7 42 3 48 95 7
115 32 150 117 165 97 17 141 -72 119 -239 -7 -55 -6 -75 5 -92 33 -53 59 -17
74 103 16 130 -11 228 -79 284 -29 25 -41 28 -102 27 -54 0 -77 -5 -110 -25z"/>
<path d="M4212 5649 c-13 -5 -30 -16 -38 -24 -9 -8 -22 -15 -29 -15 -8 0 -16
-8 -20 -17 -3 -10 -30 -38 -60 -63 -63 -53 -95 -117 -76 -154 12 -22 44 -40
99 -56 36 -10 124 13 161 42 14 10 28 15 32 11 12 -14 37 -145 44 -235 l7 -86
-49 -29 c-41 -24 -58 -28 -118 -27 -80 1 -147 25 -187 68 l-25 27 -17 -26
c-15 -23 -16 -31 -6 -56 16 -38 51 -62 128 -88 73 -25 167 -27 217 -6 19 8 51
22 70 30 53 22 69 62 61 159 -21 257 -65 436 -107 436 -22 0 -33 -16 -47 -66
-14 -48 -58 -74 -127 -74 -65 0 -59 24 21 99 46 44 78 65 110 73 33 9 46 18
50 35 12 45 -35 66 -94 42z"/>
<path d="M6928 5624 c-78 -47 -148 -151 -148 -220 0 -37 35 -82 78 -100 33
-13 40 -13 84 3 45 16 52 23 80 81 29 59 33 62 45 46 7 -11 20 -27 28 -37 8
-9 15 -21 15 -25 0 -16 47 -52 67 -52 39 0 36 31 -10 99 -24 37 -59 95 -77
131 -36 74 -66 110 -89 109 -9 0 -42 -16 -73 -35z m50 -160 c-8 -40 -19 -61
-40 -79 -36 -30 -64 -32 -73 -4 -14 42 4 86 57 139 l52 53 7 -28 c5 -15 3 -52
-3 -81z"/>
<path d="M8095 5633 c-14 -21 -16 -38 -11 -87 10 -98 29 -160 49 -164 47 -9
57 44 36 181 -17 102 -39 123 -74 70z"/>
<path d="M8777 5628 c-21 -46 -40 -204 -30 -253 7 -30 14 -41 30 -43 18 -3 24
4 31 35 13 50 26 164 26 233 1 49 -1 55 -20 58 -16 2 -25 -6 -37 -30z"/>
<path d="M6540 5631 c-14 -4 -41 -28 -60 -54 -19 -26 -43 -47 -52 -47 -35 0
-32 -27 14 -164 18 -51 30 -71 47 -78 40 -14 44 -2 36 113 l-7 109 30 30 c24
24 39 30 71 30 30 0 41 4 41 15 0 31 -74 59 -120 46z"/>
<path d="M3665 5601 c-77 -47 -103 -115 -95 -249 6 -100 14 -114 60 -110 23 3
25 7 22 43 -12 182 0 237 51 243 19 2 34 -3 43 -15 28 -36 64 -112 70 -151 9
-59 18 -68 51 -56 24 8 28 15 27 44 -3 98 -70 217 -145 255 -36 19 -48 19 -84
-4z"/>
<path d="M2310 5577 c-73 -30 -165 -92 -191 -128 -15 -22 -22 -51 -26 -110 -7
-89 3 -110 64 -135 41 -18 68 -18 85 0 8 7 24 16 36 20 11 4 43 41 70 82 l49
75 40 -57 c45 -67 94 -100 124 -84 27 15 23 70 -6 70 -15 0 -85 91 -85 111 0
8 -7 23 -15 33 -8 10 -24 48 -35 82 -25 73 -28 74 -110 41z m30 -114 c0 -39
-35 -105 -84 -157 -46 -50 -69 -57 -86 -25 -28 52 21 143 100 188 51 28 70 27
70 -6z"/>
<path d="M2730 5592 c-77 -34 -147 -149 -137 -224 7 -49 32 -88 57 -88 28 0
39 28 33 81 -4 34 0 59 16 93 17 40 28 50 70 69 52 23 74 53 50 68 -16 10 -67
11 -89 1z"/>
<path d="M13380 5545 c-64 -48 -79 -104 -37 -143 12 -11 28 -27 35 -36 6 -8
31 -21 53 -28 40 -11 43 -11 64 14 36 41 41 97 14 149 -39 78 -70 88 -129 44z"/>
<path d="M3375 5537 c-18 -28 -18 -130 -1 -232 11 -65 14 -70 36 -67 13 1 28
8 33 15 11 17 0 250 -15 282 -14 31 -33 32 -53 2z"/>
<path d="M12015 4768 c-38 -5 -182 -10 -320 -13 -344 -5 -339 -5 -425 -49
-104 -54 -143 -76 -160 -91 -8 -7 -54 -34 -102 -60 -49 -26 -91 -52 -94 -57
-6 -10 -5 -166 1 -318 3 -46 4 -277 2 -400 0 -64 14 -243 28 -355 9 -69 13
-151 10 -220 -5 -98 -14 -1076 -14 -1535 0 -96 0 -182 -1 -190 -10 -148 -7
-206 24 -460 10 -74 23 -189 29 -255 7 -66 16 -125 19 -131 5 -7 115 -11 355
-12 447 -1 844 -11 958 -22 50 -6 180 -12 290 -15 110 -3 317 -9 460 -14 143
-4 283 -8 310 -8 28 0 86 -5 130 -10 47 -6 99 -6 125 -1 25 5 121 10 213 12
151 3 170 5 181 22 21 29 34 137 36 274 0 69 4 153 9 187 9 75 5 216 -8 298
-6 33 -10 157 -10 275 0 166 -6 272 -27 465 -35 325 -36 632 -6 1065 15 209
-2 1549 -19 1583 -14 26 -45 34 -95 27 -23 -4 -116 -3 -206 1 -259 12 -465 12
-728 -1 -141 -6 -288 -8 -345 -4 -55 5 -176 9 -270 9 -93 1 -195 4 -225 7 -30
3 -86 1 -125 -4z m455 -122 c360 -10 584 -5 696 15 42 7 83 8 125 2 35 -6 193
-9 351 -9 l286 1 6 -150 c3 -82 5 -186 4 -230 0 -44 2 -298 4 -565 4 -334 1
-546 -7 -680 -30 -458 -23 -785 21 -1035 8 -49 16 -182 18 -345 3 -146 8 -283
12 -305 13 -72 5 -572 -11 -651 -4 -20 -13 -22 -122 -27 -158 -8 -208 -9 -343
-3 -63 3 -315 10 -560 16 -245 6 -476 15 -513 21 -38 5 -115 9 -172 8 -56 -1
-107 1 -112 4 -5 3 -182 9 -394 13 -497 8 -490 8 -584 -1 -63 -6 -83 -4 -92 6
-6 8 -12 48 -13 89 -3 89 -16 213 -33 290 -8 40 -12 381 -12 1260 -1 868 -5
1227 -13 1285 -6 44 -14 225 -17 403 l-5 322 23 0 c12 0 41 -14 65 -30 47 -32
132 -62 232 -84 36 -8 98 -21 139 -30 41 -9 79 -20 85 -25 16 -13 56 6 57 26
4 60 -10 95 -87 213 -48 74 -87 171 -78 194 4 11 23 13 77 10 184 -10 392 -10
492 0 61 6 144 8 185 5 41 -4 172 -10 290 -13z m-1130 -28 c0 -26 28 -107 45
-128 7 -8 22 -35 34 -60 12 -25 27 -53 34 -62 6 -9 9 -19 6 -22 -8 -8 -118 13
-157 30 -18 8 -42 14 -53 14 -25 0 -164 65 -175 81 -10 17 47 63 114 90 31 12
75 35 97 50 49 34 55 35 55 7z"/>
<path d="M12800 4477 c-85 -15 -266 -26 -455 -28 -105 -1 -215 -5 -245 -10
-30 -5 -82 -11 -115 -13 -145 -9 -265 -46 -265 -81 0 -22 38 -38 75 -31 77 15
465 36 660 36 115 0 275 5 355 10 149 10 739 13 776 4 19 -5 21 -13 23 -72 1
-72 -28 -334 -58 -512 -6 -36 -13 -96 -17 -135 -3 -38 -8 -74 -11 -78 -20 -34
-32 -1027 -14 -1197 16 -155 21 -226 26 -393 3 -87 8 -163 11 -169 4 -6 13
-59 20 -117 7 -58 18 -137 24 -176 11 -74 11 -467 0 -486 -7 -10 -241 -1 -420
17 -146 14 -180 15 -240 5 -52 -9 -85 -8 -166 5 -96 16 -108 16 -205 -1 -57
-10 -141 -20 -186 -22 -187 -8 -354 -22 -443 -38 -111 -20 -460 -18 -495 2
-11 6 -27 14 -36 17 -20 6 -28 68 -18 141 10 75 -2 470 -16 555 -14 80 -33
378 -40 620 -3 96 -10 317 -15 490 -6 173 -10 448 -9 610 0 162 -4 345 -10
405 -6 61 -12 149 -15 196 -5 95 -17 129 -46 129 -37 0 -48 -23 -38 -87 4 -32
8 -87 7 -123 0 -36 8 -156 17 -268 14 -159 15 -212 6 -245 -6 -23 -9 -80 -7
-127 2 -47 7 -267 10 -490 3 -223 7 -423 10 -445 3 -22 7 -107 10 -190 7 -229
13 -320 25 -440 6 -60 15 -148 20 -195 8 -82 10 -155 11 -453 0 -86 4 -146 11
-157 18 -29 153 -58 298 -64 100 -4 251 8 285 23 11 5 52 13 90 17 77 8 93 9
280 19 151 7 183 11 219 25 29 11 61 13 191 12 110 -1 128 -2 141 -13 6 -5 26
-6 45 -3 121 19 214 22 268 7 33 -9 77 -13 108 -10 28 3 54 3 57 0 3 -3 47 -7
98 -8 84 -3 178 -15 233 -30 14 -3 26 3 38 21 17 23 19 50 21 282 1 171 -2
275 -10 312 -7 30 -15 80 -19 110 -3 30 -13 100 -20 155 -8 55 -17 183 -20
285 -3 102 -10 201 -15 220 -12 46 -19 824 -9 1000 15 249 20 304 40 426 55
335 71 589 46 698 l-12 49 -90 3 c-184 8 -732 9 -775 1z"/>
<path d="M12835 3517 c-29 -12 -124 -72 -155 -99 -17 -14 -76 -89 -103 -128
-41 -62 -44 -64 -77 -50 -16 7 -30 19 -30 28 0 22 -155 169 -205 194 -52 27
-169 58 -221 58 -60 0 -102 -33 -151 -120 -41 -71 -43 -79 -43 -158 0 -83 15
-151 61 -278 13 -33 20 -67 17 -75 -3 -9 -31 -21 -64 -28 -90 -20 -165 -50
-190 -74 -24 -24 -39 -37 -93 -80 -49 -39 -71 -76 -71 -117 0 -28 10 -48 49
-94 64 -75 139 -127 233 -160 63 -22 89 -27 156 -24 45 1 85 -2 91 -7 11 -12
-82 -294 -133 -402 -60 -126 -57 -214 10 -281 l34 -34 87 7 c48 4 96 13 107
21 12 7 41 16 66 20 84 13 208 80 281 153 88 88 129 121 144 115 7 -3 27 -25
45 -50 24 -34 30 -51 25 -71 -5 -20 0 -32 21 -54 15 -16 30 -26 35 -24 4 3 36
-1 71 -10 64 -15 151 -9 208 13 69 27 90 110 91 367 1 124 -3 163 -21 228 -23
85 -22 107 9 107 11 0 53 16 93 35 53 26 82 47 105 78 35 46 63 115 63 152 0
74 -75 149 -212 213 -89 42 -84 26 -54 161 9 41 14 81 12 90 -3 9 -8 39 -11
66 -14 113 -39 156 -164 281 -46 46 -64 51 -116 31z m-660 -120 c65 -19 77
-28 178 -126 69 -67 107 -112 107 -125 0 -24 -36 -80 -98 -153 -48 -57 -66
-63 -221 -83 -114 -15 -122 -8 -181 171 -49 148 -43 217 29 317 22 31 25 33
70 27 25 -3 78 -16 116 -28z m743 -4 c76 -62 97 -101 112 -201 10 -73 10 -103
0 -159 -7 -37 -18 -71 -24 -76 -6 -4 -45 -7 -86 -6 -41 1 -100 -1 -130 -5
l-56 -8 -39 59 c-22 32 -42 63 -44 68 -2 6 -16 25 -31 43 l-27 33 22 44 c28
55 135 185 152 185 7 0 32 14 55 30 22 17 43 30 46 30 3 0 25 -16 50 -37z
m-353 -355 c13 -13 27 -35 30 -50 7 -27 5 -28 -29 -29 -20 -1 -50 -2 -67 -3
-36 -1 -49 12 -25 26 9 5 16 14 16 20 0 11 39 58 47 58 2 0 15 -10 28 -22z
m90 -193 c19 -2 41 -17 60 -40 17 -20 49 -59 72 -87 23 -28 49 -66 59 -86 16
-34 15 -38 -6 -103 -13 -39 -30 -71 -39 -73 -9 -3 -63 -6 -121 -7 -112 -2
-186 -15 -236 -42 l-31 -16 -69 90 c-38 49 -71 94 -72 100 -5 14 65 187 94
231 19 30 30 37 61 40 43 4 182 0 228 -7z m278 3 c16 -12 16 -16 -2 -63 -10
-27 -23 -51 -29 -53 -10 -3 -78 96 -70 103 7 8 53 24 69 24 8 1 23 -5 32 -11z
m-679 -37 c7 -10 -52 -141 -63 -141 -14 0 -101 114 -101 132 0 14 156 23 164
9z m832 0 c5 -5 36 -17 69 -27 70 -21 131 -71 137 -113 6 -40 -24 -104 -62
-131 -17 -12 -64 -31 -103 -41 -66 -17 -73 -17 -89 -2 -10 9 -18 20 -18 25 0
5 -11 26 -25 48 -29 47 -30 54 -9 117 37 112 69 152 100 124z m-1068 -56 c12
-19 22 -38 22 -43 0 -4 27 -36 60 -72 42 -43 59 -69 54 -79 -4 -9 -10 -32 -14
-51 -4 -19 -14 -51 -22 -71 -15 -33 -20 -37 -69 -44 -121 -16 -208 -7 -260 26
-13 9 -41 24 -62 34 -36 17 -127 115 -127 137 0 15 58 79 100 110 20 15 58 32
85 39 28 6 59 16 69 22 16 8 73 19 131 26 6 0 20 -15 33 -34z m235 -309 c21
-16 22 -36 3 -36 -8 0 -21 -3 -30 -6 -12 -5 -16 0 -16 18 0 39 13 46 43 24z
m737 -71 c14 -16 44 -136 55 -215 10 -76 8 -234 -5 -299 -5 -29 -10 -56 -10
-58 0 -11 -74 -33 -112 -33 -56 0 -98 26 -139 87 -18 26 -47 65 -66 86 -18 20
-33 43 -33 50 0 7 16 37 35 67 19 30 35 58 35 62 0 5 18 47 40 94 22 47 40 88
40 90 0 3 11 22 25 44 24 38 28 40 74 40 30 0 53 -5 61 -15z m-247 -12 c11 -6
8 -42 -5 -66 -7 -12 -13 -26 -14 -32 -5 -30 -89 -195 -98 -195 -10 0 -150 204
-163 236 -6 16 94 54 145 55 20 0 46 4 57 9 18 7 58 4 78 -7z m-375 -63 c6
-15 117 -185 160 -244 23 -33 42 -64 42 -69 0 -13 -107 -125 -178 -189 -30
-26 -67 -50 -83 -53 -16 -4 -29 -10 -29 -14 0 -4 -26 -13 -57 -20 -32 -7 -69
-18 -83 -24 -14 -6 -55 -12 -92 -14 -60 -3 -68 -1 -82 19 -23 33 -20 103 8
162 13 28 29 67 36 86 35 99 108 288 118 306 17 32 37 45 89 59 48 12 145 9
151 -5z"/>
<path d="M12513 2698 c-82 -57 -58 -177 37 -192 73 -12 140 47 140 123 0 80
-103 120 -177 69z"/>
<path d="M6881 4703 c-17 -21 -31 -41 -31 -44 0 -6 -116 -79 -126 -79 -3 0
-25 -13 -49 -30 -24 -16 -46 -30 -50 -30 -3 0 -23 -13 -43 -30 -20 -16 -54
-36 -74 -45 -21 -8 -42 -24 -48 -35 -14 -26 -13 -330 1 -420 28 -182 41 -286
49 -395 15 -198 26 -310 33 -321 7 -12 18 -142 23 -279 4 -113 7 -143 24 -235
7 -38 11 -152 10 -275 -3 -540 0 -786 10 -850 6 -38 15 -97 21 -130 19 -113
21 -439 4 -559 -8 -60 -15 -165 -15 -232 l0 -122 33 -19 c28 -17 36 -17 71 -6
22 8 67 16 100 19 34 2 79 10 101 16 24 7 102 10 195 9 85 -1 189 -3 230 -4
41 0 111 2 155 5 44 3 98 2 120 -3 22 -5 94 -11 160 -14 66 -2 165 -6 220 -9
77 -4 105 -1 123 10 12 8 27 12 32 9 8 -5 152 -16 188 -15 28 2 58 2 82 0 14
0 73 5 132 13 66 9 125 11 155 7 69 -11 242 -10 249 1 3 6 11 5 20 -2 10 -8
42 -9 111 -4 54 4 109 7 123 7 14 -1 59 -3 100 -6 102 -5 106 -3 119 52 10 42
13 107 27 472 11 306 15 1037 5 1094 -11 60 -25 508 -25 761 0 80 9 192 23
290 12 88 28 204 36 257 9 66 11 120 5 170 -5 40 -11 123 -14 183 -6 120 9
677 19 711 5 16 -1 31 -22 53 -26 29 -35 32 -124 41 -61 6 -108 6 -129 0 -21
-6 -38 -6 -45 0 -6 5 -35 6 -68 1 -31 -4 -62 -4 -69 1 -14 9 -258 0 -293 -10
-28 -9 -312 -8 -605 1 -135 5 -256 8 -270 8 -14 -1 -59 4 -100 9 -98 15 -407
23 -414 11 -3 -5 -25 -5 -50 0 -25 4 -96 8 -158 8 -62 0 -137 5 -167 11 -79
15 -87 13 -120 -27z m110 -85 c33 -7 168 -12 339 -14 271 -2 378 -6 445 -20
67 -13 859 -23 970 -11 142 14 286 19 298 10 37 -30 74 -31 147 -7 64 22 84
24 153 18 l80 -7 -7 -66 c-10 -98 -8 -682 3 -791 9 -99 5 -166 -28 -415 -10
-77 -20 -183 -22 -235 -8 -200 3 -739 17 -810 10 -53 6 -1038 -5 -1248 -6
-101 -7 -205 -5 -230 3 -26 1 -60 -5 -76 l-12 -29 -62 8 c-34 5 -145 7 -247 5
-175 -3 -243 -4 -385 -1 -33 0 -107 -1 -165 -3 -58 -2 -134 -5 -170 -6 -36 -1
-122 -6 -192 -12 -96 -8 -144 -7 -195 2 -72 13 -326 23 -453 18 -109 -4 -218
-3 -363 4 -71 4 -139 3 -150 -2 -27 -10 -129 -27 -213 -36 l-62 -6 -4 89 c-3
59 2 122 14 193 18 100 26 368 13 455 -2 17 -6 63 -10 102 -3 40 -12 97 -19
125 -8 32 -15 123 -17 228 -5 275 -4 353 5 545 9 177 -1 353 -25 463 -5 24
-11 107 -14 185 -2 78 -11 189 -19 247 -23 160 -29 211 -32 255 -6 82 -15 163
-28 275 -35 279 -43 364 -39 408 7 70 10 77 29 61 24 -19 178 -109 188 -109
12 0 196 -69 229 -87 36 -18 97 -13 111 9 16 26 -6 94 -73 233 -32 66 -66 143
-75 170 -17 52 -21 107 -9 118 8 9 1 9 64 -5z m-141 -111 c0 -25 34 -122 49
-140 5 -7 25 -41 45 -75 37 -65 44 -96 26 -107 -5 -3 -10 -2 -10 4 0 5 -17 15
-37 22 -53 17 -219 96 -270 128 -24 14 -43 31 -43 38 0 22 197 151 233 153 4
0 7 -10 7 -23z"/>
<path d="M7955 4458 c-44 -4 -150 -9 -235 -12 -160 -6 -243 -12 -295 -22 -16
-3 -43 -7 -60 -9 -16 -2 -43 -6 -60 -9 -16 -3 -48 -8 -70 -10 -22 -3 -40 -5
-40 -6 0 -1 -25 -3 -55 -6 -35 -3 -60 -11 -67 -21 -17 -22 -16 -27 5 -52 15
-20 27 -22 112 -23 65 0 125 6 190 21 77 18 134 23 300 27 113 2 226 8 253 13
26 4 49 5 52 2 2 -4 70 -5 152 -4 81 2 157 4 168 4 210 3 787 -9 794 -16 5 -6
11 -134 15 -285 3 -158 12 -318 21 -375 14 -98 20 -217 10 -226 -2 -3 -37 -2
-77 2 -67 7 -331 18 -553 24 -49 1 -125 -2 -169 -7 -43 -5 -80 -7 -83 -4 -3 3
4 23 15 46 24 48 21 89 -14 175 -13 32 -22 60 -21 61 1 1 28 14 60 29 78 36
96 71 79 152 -13 61 -44 103 -91 123 -24 10 -27 16 -27 58 1 87 -55 210 -97
213 -83 7 -141 -22 -151 -76 -11 -56 -25 -59 -102 -21 -65 32 -163 66 -190 66
-6 0 -19 -11 -27 -23 -14 -21 -14 -35 -2 -113 7 -49 15 -96 17 -104 2 -10 -6
-16 -24 -18 -19 -2 -28 -10 -30 -25 -2 -12 -9 -22 -17 -22 -18 0 -81 -112 -81
-143 0 -14 15 -39 35 -59 31 -31 40 -35 72 -30 30 5 63 -3 82 -19 2 -2 -8 -22
-21 -46 -14 -24 -31 -60 -38 -81 -10 -33 -10 -41 4 -56 10 -11 16 -36 16 -69
0 -29 -1 -52 -2 -53 -2 0 -95 -3 -208 -5 -113 -2 -241 -8 -285 -13 -44 -4
-125 -8 -179 -7 l-100 1 -7 28 c-10 37 -29 253 -34 381 -4 109 -15 169 -39
201 -14 20 -15 20 -41 -5 -20 -19 -24 -30 -19 -53 9 -41 24 -191 28 -277 8
-165 28 -335 41 -348 8 -9 42 -15 91 -17 44 -1 103 -6 132 -10 32 -4 101 0
175 9 67 9 154 15 192 14 139 -3 434 11 476 22 24 7 96 11 163 9 152 -2 253 7
283 27 13 8 27 13 31 10 16 -10 293 -27 417 -26 155 2 131 2 235 -6 47 -4 93
-11 103 -16 19 -10 87 14 87 31 0 21 -21 235 -30 301 -11 81 -16 178 -26 505
-4 116 -11 218 -16 227 -8 17 -75 41 -106 37 -9 -1 -21 0 -27 1 -5 1 -149 4
-320 5 -170 2 -395 4 -500 6 -104 2 -226 1 -270 -3z m220 -273 c24 -62 14
-132 -21 -146 -53 -19 -74 -12 -93 34 -14 33 -16 49 -8 72 18 54 46 85 77 85
24 0 31 -6 45 -45z m-305 -20 c82 -41 87 -56 36 -109 -44 -47 -79 -48 -102 -4
-21 40 -32 148 -15 148 6 0 43 -16 81 -35z m435 -225 c9 -18 13 -40 9 -55 -12
-47 -106 -75 -119 -36 -8 27 24 101 49 111 35 14 45 11 61 -20z m-527 -27 c7
-10 12 -34 10 -53 -3 -33 -5 -35 -38 -33 -19 2 -50 4 -67 5 -30 2 -33 5 -33
33 0 17 7 41 16 54 14 20 23 22 58 18 22 -3 46 -14 54 -24z m222 9 c0 -5 -9
-17 -21 -28 -14 -12 -18 -25 -14 -41 7 -29 -8 -29 -35 -1 -31 33 -22 62 20 69
19 4 38 7 43 8 4 0 7 -3 7 -7z m80 -45 c11 -20 12 -31 4 -44 -21 -33 -36 -21
-38 30 -1 51 10 56 34 14z m-129 -168 c22 -31 22 -32 4 -65 -17 -32 -91 -95
-143 -123 -32 -17 -35 0 -18 92 20 101 38 126 93 127 35 0 45 -5 64 -31z m239
-31 c28 -50 41 -124 24 -141 -13 -13 -51 17 -87 69 -43 61 -44 98 -4 114 34
14 35 13 67 -42z m-129 -115 c14 -37 74 -93 99 -93 13 0 20 -5 17 -12 -2 -9
-16 -11 -38 -8 -51 7 -168 5 -216 -4 -36 -6 -43 -5 -43 8 0 9 11 21 25 26 14
5 47 32 73 59 26 27 53 49 60 50 7 1 17 -11 23 -26z"/>
<path d="M9108 3235 c-3 -4 -68 -6 -145 -6 -76 1 -205 -4 -288 -10 -82 -6
-172 -13 -199 -14 -67 -4 -91 -34 -81 -103 4 -26 9 -90 11 -142 5 -119 10
-189 19 -263 5 -38 3 -77 -5 -113 -12 -49 -11 -56 5 -74 14 -16 16 -29 11 -73
-4 -29 -2 -75 4 -102 8 -34 8 -69 1 -119 -6 -39 -12 -95 -13 -124 -2 -36 -9
-59 -20 -69 -21 -19 -23 -43 -5 -66 11 -15 37 -17 222 -19 180 -1 222 2 295
19 65 16 105 19 167 16 122 -8 132 8 93 150 -25 94 -27 183 -10 387 16 189 19
447 6 535 -15 111 -50 208 -68 190z m-29 -122 c28 -55 39 -429 13 -455 -7 -7
-16 -3 -28 11 -11 12 -30 21 -46 21 -27 0 -28 1 -27 63 1 65 -16 122 -44 146
-23 19 -63 6 -115 -36 l-42 -35 -14 34 c-38 90 -156 136 -219 85 l-28 -22 20
-91 c11 -50 23 -98 27 -107 4 -12 -2 -20 -22 -27 -15 -6 -32 -9 -39 -7 -21 9
-46 365 -27 393 9 14 183 26 370 26 79 -1 153 3 165 8 33 13 45 12 56 -7z
m-415 -233 c25 -12 51 -31 58 -43 16 -27 37 -115 30 -122 -3 -3 -22 -5 -43 -5
-33 0 -41 5 -55 31 -15 29 -44 128 -44 149 0 13 1 13 54 -10z m261 -80 c4 -6
4 -29 0 -51 -7 -38 -9 -40 -38 -37 -29 3 -32 6 -29 33 5 48 49 84 67 55z
m-309 -205 c9 -13 17 -38 18 -55 2 -29 0 -31 -23 -25 -57 14 -91 34 -91 53 0
24 17 39 50 45 14 2 26 5 27 6 2 0 10 -10 19 -24z m204 14 c0 -12 -29 -38 -42
-39 -4 0 -2 11 4 25 11 25 38 35 38 14z m222 -34 c12 -42 -9 -115 -33 -115
-10 0 -21 -4 -24 -10 -11 -17 -33 -11 -40 11 -4 12 4 45 21 85 22 52 31 64 48
62 12 -2 23 -14 28 -33z m-280 -47 c-2 -21 -8 -38 -13 -38 -12 0 -11 22 1 56
14 35 18 28 12 -18z m-176 -93 c24 -7 -32 -155 -59 -155 -7 0 -15 129 -10 151
5 18 19 19 69 4z m499 -302 l7 -53 -36 0 c-20 0 -78 -9 -128 -20 -97 -22 -212
-27 -288 -12 -26 5 -54 6 -65 2 -35 -12 -65 0 -65 27 0 19 3 23 13 15 6 -5 26
-13 42 -16 26 -5 41 2 105 49 41 31 79 65 84 76 12 26 30 24 50 -6 9 -13 30
-32 47 -40 28 -15 34 -15 74 0 57 22 80 70 72 151 -6 56 -5 58 31 91 l37 34 7
-123 c3 -68 9 -147 13 -175z m-355 171 c0 -26 -9 -38 -61 -78 -33 -26 -63 -45
-67 -42 -3 3 2 23 11 43 9 21 22 56 29 78 7 22 19 50 27 63 l14 23 23 -28 c13
-15 23 -42 24 -59z m183 47 c24 -13 27 -20 27 -62 0 -26 -5 -51 -11 -55 -11
-6 -89 62 -89 79 0 11 34 57 40 54 3 -2 17 -9 33 -16z"/>
<path d="M8129 3226 c-2 -3 -92 -12 -199 -21 -263 -21 -253 -19 -360 -49 -113
-31 -166 -36 -454 -38 -218 -2 -218 -2 -229 -25 -7 -17 -7 -42 2 -91 7 -37 15
-101 17 -142 3 -41 10 -104 16 -140 14 -83 15 -121 18 -425 2 -137 8 -286 14
-330 14 -103 22 -108 163 -101 55 3 132 0 170 -6 37 -6 97 -10 133 -9 56 2
121 -10 255 -45 16 -4 132 -12 220 -15 6 0 28 5 50 11 67 18 149 28 160 19 17
-13 114 -14 127 -1 8 8 13 140 15 459 8 841 5 921 -31 945 -12 8 -80 11 -87 4z
m37 -141 c3 -25 4 -168 1 -318 -12 -635 -13 -734 -7 -751 3 -10 4 -37 1 -60
-6 -41 -6 -41 -51 -42 -25 -1 -85 -7 -135 -14 -135 -19 -230 -15 -325 16 -25
8 -104 19 -175 24 -72 5 -171 15 -221 21 -77 10 -99 10 -136 -2 -30 -10 -52
-12 -65 -6 -19 8 -22 21 -28 161 -6 135 -8 233 -4 276 2 30 -12 249 -27 410
-9 91 -16 176 -17 189 l-2 25 156 2 c218 3 406 21 475 44 35 12 97 22 162 25
58 4 110 9 115 12 5 3 32 7 60 9 138 10 191 15 196 19 12 13 20 1 27 -40z"/>
<path d="M7355 2733 c-32 -9 -94 -14 -171 -14 l-122 1 -12 -31 c-18 -43 7 -66
77 -72 52 -4 54 -5 79 -53 55 -104 81 -200 62 -227 -20 -27 -136 -28 -163 -1
-9 9 -17 15 -19 13 -5 -7 -26 -72 -24 -74 44 -28 90 -41 138 -39 71 4 136 32
129 57 0 1 4 14 10 29 14 37 -8 155 -43 232 -29 65 -25 76 26 76 15 0 30 5 33
10 3 6 17 10 30 10 13 0 30 3 39 6 22 8 20 57 -1 76 -16 13 -24 13 -68 1z"/>
<path d="M7580 2711 c-57 -9 -122 -42 -150 -78 -40 -51 -12 -133 46 -133 12 0
27 -7 34 -15 7 -8 21 -15 32 -15 47 0 95 -60 84 -105 -8 -30 -79 -44 -155 -32
-50 9 -56 8 -73 -13 -39 -48 -6 -85 72 -80 19 1 42 1 50 1 76 0 180 71 180
123 0 34 -35 105 -64 129 -11 10 -47 31 -79 48 -32 16 -57 35 -55 42 6 20 98
61 142 63 23 2 44 3 49 3 4 1 7 12 7 26 0 18 -7 28 -26 35 -27 11 -26 11 -94
1z"/>
<path d="M7767 2700 c-10 -15 -13 -49 -11 -134 1 -63 6 -121 11 -128 4 -7 10
-37 13 -67 9 -98 70 -96 70 3 l0 51 68 23 c107 38 149 66 163 111 10 34 9 44
-8 73 -10 19 -40 45 -68 60 -44 24 -61 28 -137 28 -75 0 -89 -3 -101 -20z
m231 -76 c6 -2 12 -12 12 -23 0 -22 -91 -70 -148 -77 l-33 -4 3 52 c3 46 6 53
28 59 24 6 110 2 138 -7z"/>
<path d="M8835 1735 c-5 -2 -55 -9 -110 -15 -55 -5 -129 -14 -165 -20 -36 -5
-135 -12 -220 -15 -85 -3 -189 -9 -230 -14 -125 -15 -142 -16 -242 -14 -54 0
-144 1 -200 1 -57 1 -155 2 -218 2 -454 5 -452 5 -473 -21 -13 -16 -17 -32
-13 -54 3 -16 5 -88 4 -160 -1 -71 -1 -150 0 -175 1 -25 1 -122 1 -215 0 -167
1 -171 24 -193 21 -20 28 -21 53 -11 20 7 60 8 129 3 160 -14 319 -10 476 12
182 25 585 25 739 0 125 -21 263 -21 323 0 39 13 58 14 110 5 77 -13 234 -15
241 -2 3 5 33 9 67 9 93 0 89 -14 70 258 -6 82 -11 201 -12 264 -3 217 -25
344 -61 348 -47 5 -285 11 -293 7z m249 -115 c11 -11 22 -145 32 -392 12 -299
15 -271 -26 -281 -19 -4 -84 -7 -145 -6 -154 4 -195 3 -318 -6 -99 -7 -158 -3
-313 21 -30 4 -31 6 -33 57 -1 28 -3 68 -4 87 -2 32 2 37 45 60 71 38 88 58
88 99 0 28 -8 45 -38 76 -22 22 -51 49 -67 59 -27 19 -28 20 -21 94 3 42 7 76
9 78 1 1 62 7 136 13 74 7 166 19 203 26 38 8 108 17 155 20 47 2 88 7 92 10
9 9 194 -4 205 -15z m-1704 -69 c64 -5 134 -4 180 2 98 13 227 2 239 -21 4
-10 11 -41 14 -70 6 -48 4 -55 -20 -75 -69 -59 -110 -125 -94 -155 17 -32 57
-62 85 -64 26 -2 28 -5 22 -38 -3 -19 -12 -68 -19 -108 -7 -41 -15 -71 -18
-68 -3 3 -28 1 -55 -4 -58 -13 -78 -15 -204 -26 -137 -11 -158 -11 -230 -2
-36 5 -96 10 -135 11 -38 1 -76 6 -83 11 -10 6 -13 34 -12 105 1 53 1 173 0
268 -1 203 3 240 34 246 23 5 138 1 296 -12z m830 -51 l0 -40 -53 0 c-40 0
-58 5 -71 19 -14 16 -15 20 -2 30 19 16 63 29 99 30 25 1 27 -2 27 -39z m-271
1 c21 -13 -2 -64 -27 -59 -25 5 -30 68 -5 68 10 0 24 -4 32 -9z m169 -175 c15
-30 8 -96 -9 -96 -12 0 -16 13 -23 78 -6 59 8 67 32 18z m-103 7 c-18 -42 -18
-66 0 -79 22 -16 14 -28 -12 -20 -22 7 -57 72 -47 87 6 10 41 27 58 28 4 1 5
-7 1 -16z m298 -41 c24 -21 21 -37 -8 -50 -44 -20 -65 -15 -65 15 0 30 27 66
44 56 6 -3 19 -13 29 -21z m-469 -1 c3 -4 -1 -17 -9 -27 -11 -15 -16 -16 -26
-7 -10 10 -9 15 1 28 14 17 26 19 34 6z m155 -186 c12 -11 12 -19 1 -45 -21
-50 -49 -80 -76 -80 -23 0 -25 4 -23 33 2 17 -2 41 -8 52 -8 15 -8 28 3 53
l13 33 38 -16 c21 -9 44 -22 52 -30z m221 -35 c0 -50 -10 -55 -50 -27 -52 35
-60 54 -31 76 21 16 27 17 52 4 24 -12 29 -21 29 -53z"/>
<path d="M2037 4603 c-30 -34 -67 -65 -95 -78 -26 -12 -56 -32 -66 -44 -11
-12 -35 -29 -53 -38 -18 -8 -45 -27 -60 -43 -35 -34 -105 -80 -165 -109 -72
-34 -83 -58 -82 -176 2 -167 14 -406 24 -470 5 -33 14 -125 20 -205 6 -80 15
-179 20 -220 5 -41 12 -154 15 -250 3 -96 10 -209 15 -250 5 -41 11 -129 14
-195 2 -66 9 -132 15 -147 5 -15 13 -71 16 -125 3 -54 8 -107 10 -118 2 -11 0
-81 -6 -155 -6 -74 -10 -144 -10 -155 0 -11 2 -209 4 -440 3 -258 9 -451 16
-500 10 -66 10 -93 -3 -155 -12 -64 -12 -78 -1 -97 15 -22 67 -39 85 -28 6 4
18 1 26 -6 10 -8 30 -9 67 -4 28 4 106 9 172 11 66 1 138 5 160 8 65 10 405
22 885 31 236 4 309 10 323 24 7 7 17 6 30 -1 14 -7 47 -7 111 0 150 18 314
24 584 23 292 -2 293 -2 386 -26 59 -15 80 -16 160 -6 50 7 110 9 133 5 40 -6
42 -5 49 20 4 18 0 42 -12 67 -10 22 -17 59 -16 82 2 47 -20 239 -43 366 -8
46 -17 172 -20 280 -4 108 -13 228 -20 266 -7 39 -14 103 -14 143 -1 41 -3 77
-5 81 -3 4 -7 63 -10 131 -4 69 -11 161 -16 205 -6 44 -17 193 -25 330 -19
315 -33 487 -43 545 -4 25 -7 81 -6 125 9 608 3 820 -31 1159 -6 59 -21 81
-71 108 -28 14 -63 21 -124 24 -47 2 -107 7 -135 11 -27 5 -90 5 -140 2 -85
-5 -211 1 -373 19 -39 4 -79 4 -87 0 -7 -5 -54 -6 -102 -2 -149 11 -469 3
-625 -15 -48 -5 -99 -6 -115 -2 -15 4 -50 4 -78 -1 -74 -12 -221 -8 -295 8
-40 9 -106 14 -177 12 -94 -2 -115 1 -131 15 -10 9 -23 17 -28 17 -5 0 -31
-26 -57 -57z m1737 -92 c6 -5 85 -10 176 -10 310 -2 516 -14 534 -32 5 -4 13
-52 17 -106 14 -166 27 -711 20 -848 -3 -71 -3 -177 1 -235 3 -58 9 -172 13
-255 3 -82 10 -170 15 -195 5 -25 11 -101 14 -170 3 -69 16 -255 30 -415 13
-159 27 -342 30 -405 4 -64 11 -142 16 -175 9 -53 15 -149 24 -376 2 -47 8
-95 14 -105 9 -19 26 -171 37 -336 l6 -87 -105 4 c-57 2 -114 8 -125 14 -32
18 -890 19 -946 2 -39 -12 -538 -28 -584 -19 -3 1 -35 -2 -71 -6 -69 -8 -186
-11 -310 -8 -115 3 -472 -16 -500 -26 -14 -5 -92 -11 -175 -13 l-150 -4 -2 90
c0 50 -4 279 -7 510 -5 391 -5 481 -2 830 1 81 -7 196 -21 305 -12 96 -27 276
-33 400 -12 274 -19 395 -24 435 -2 17 -7 62 -11 100 -3 39 -8 88 -10 110 -2
22 -7 74 -10 115 -3 41 -10 111 -15 155 -8 69 -14 274 -11 371 1 31 2 31 40
24 22 -4 62 -21 89 -39 27 -17 54 -31 59 -31 6 0 50 -18 97 -40 48 -21 103
-41 124 -44 20 -2 76 -17 124 -33 60 -20 91 -26 98 -19 22 22 10 80 -29 146
-53 89 -66 156 -56 302 l7 116 30 4 c16 3 75 0 131 -5 130 -12 361 -14 552 -5
83 4 276 9 429 12 154 3 280 7 282 8 7 7 178 -3 188 -11z m-1699 -51 c-3 -11
-7 -73 -7 -137 -1 -95 3 -129 20 -175 11 -32 17 -60 12 -63 -22 -14 -142 21
-199 57 -25 15 -50 28 -55 28 -6 0 -34 10 -63 22 -87 36 -83 40 161 205 66 45
125 82 129 82 5 1 6 -8 2 -19z"/>
<path d="M2377 4282 c-51 -3 -59 -6 -67 -28 -15 -37 -13 -42 20 -59 23 -12 56
-15 142 -13 101 3 279 -7 318 -17 28 -7 391 -15 710 -16 376 -2 620 9 674 27
22 8 41 12 44 10 12 -13 14 -292 2 -401 -9 -94 -10 -145 0 -235 6 -63 18 -196
26 -295 8 -99 21 -229 29 -290 8 -66 14 -197 15 -326 0 -119 4 -261 9 -315 10
-104 22 -258 26 -359 3 -52 16 -245 30 -415 2 -30 9 -84 16 -120 6 -36 15 -87
19 -115 5 -27 13 -68 19 -90 24 -94 24 -93 3 -104 -11 -6 -54 -10 -96 -10 -66
1 -116 -8 -166 -29 -8 -3 -179 -7 -380 -8 -347 -2 -527 -11 -632 -32 -26 -5
-49 -7 -52 -5 -3 3 -37 -5 -77 -17 -64 -20 -85 -22 -178 -16 -58 4 -142 8
-186 10 -44 1 -141 6 -215 9 -74 4 -180 9 -235 11 -55 2 -107 7 -116 11 -28
11 -32 103 -34 755 -2 565 -5 644 -24 825 -12 110 -26 245 -32 300 -12 139
-28 277 -34 295 -2 8 -7 105 -10 215 -7 197 -34 387 -65 445 -13 25 -42 26
-63 2 -18 -20 -14 -61 17 -177 9 -34 18 -124 21 -210 10 -249 17 -330 40 -490
7 -50 34 -298 46 -425 17 -189 22 -397 23 -1020 1 -349 5 -641 9 -647 13 -20
41 -15 69 10 22 20 32 22 123 20 190 -5 280 -11 347 -22 37 -6 114 -12 170
-12 57 0 126 -1 153 -1 51 0 73 2 235 28 148 24 150 24 236 27 44 2 86 7 93
11 13 8 215 9 436 1 147 -5 422 20 456 41 5 3 56 8 111 10 57 2 108 10 116 16
9 8 12 24 9 52 -8 59 -32 159 -46 184 -6 11 -12 40 -12 64 -1 24 -8 72 -15
108 -8 36 -19 153 -24 260 -6 107 -20 321 -31 475 -12 154 -23 377 -25 495 -3
127 -12 283 -24 380 -11 91 -22 217 -25 280 -2 63 -9 140 -14 170 -13 67 -14
155 -5 450 5 207 4 229 -13 275 -11 28 -24 49 -29 48 -149 -26 -1126 -39
-1345 -17 -139 13 -437 23 -542 16z"/>
<path d="M3481 3079 c-55 -19 -91 -44 -91 -62 0 -6 10 -21 21 -34 16 -16 19
-26 12 -35 -19 -25 -21 -57 -7 -165 7 -60 14 -144 15 -188 2 -114 16 -173 41
-181 39 -12 47 17 41 136 l-6 109 39 6 c126 19 241 61 277 99 49 53 59 74 59
125 0 60 -36 121 -97 162 -69 47 -213 60 -304 28z m242 -83 c67 -27 103 -97
77 -147 -22 -39 -122 -75 -241 -85 -66 -6 -66 -6 -75 99 -4 40 -11 78 -17 85
-15 19 1 30 73 45 86 19 144 20 183 3z"/>
<path d="M2295 3010 c-16 -6 -41 -12 -54 -15 -36 -6 -71 -33 -71 -54 0 -41 38
-49 155 -32 39 6 75 10 81 11 6 0 18 -17 26 -37 28 -67 78 -210 78 -220 0 -6
9 -31 21 -57 28 -65 23 -107 -15 -117 -48 -13 -157 -19 -175 -10 -9 4 -30 11
-47 14 -26 5 -33 2 -42 -18 -12 -25 -1 -40 45 -64 41 -21 173 -25 234 -8 109
32 119 77 59 252 -44 129 -59 184 -60 228 0 26 2 27 55 27 31 0 72 7 91 15
l36 15 -21 32 c-19 31 -24 33 -83 36 -225 10 -286 10 -313 2z"/>
<path d="M2924 2977 c-97 -45 -124 -64 -124 -89 0 -47 93 -173 151 -203 14 -8
44 -16 66 -19 61 -7 119 -25 130 -39 6 -6 13 -26 16 -44 5 -27 2 -36 -24 -57
-51 -43 -184 -69 -238 -46 -43 18 -81 6 -81 -25 0 -37 38 -56 132 -64 120 -11
201 17 253 85 40 53 44 107 11 173 -30 59 -40 64 -151 81 -66 10 -86 18 -112
43 -33 31 -69 94 -59 104 10 11 143 43 203 49 70 8 89 29 57 65 -14 15 -31 19
-88 19 -59 0 -83 -6 -142 -33z"/>
</g>
</svg>
