<?xml version="1.0" standalone="no"?>
<!DOCTYPE svg PUBLIC "-//W3C//DTD SVG 20010904//EN"
 "http://www.w3.org/TR/2001/REC-SVG-20010904/DTD/svg10.dtd">
<svg version="1.0" xmlns="http://www.w3.org/2000/svg"
 width="412.373896pt" height="400.000000pt" viewBox="0 0 412.373896 400.000000"
 preserveAspectRatio="xMidYMid meet">
<metadata>
Created by potrace 1.15, written by Peter Selinger 2001-2017
</metadata>
<g transform="translate(-14.156103,415.925852) scale(0.033737,-0.033737)"
fill="#444444" stroke="none">
<path d="M7057 12323 c-4 -3 -7 -16 -7 -29 0 -17 9 -25 36 -34 69 -23 181 3
154 35 -17 21 -168 44 -183 28z"/>
<path d="M7483 12303 c-23 -3 -33 -10 -38 -30 -3 -14 -4 -28 -1 -30 6 -6 62
-8 146 -4 30 1 64 0 74 -1 30 -5 29 17 -1 33 -16 8 -32 20 -36 26 -8 13 -71
15 -144 6z"/>
<path d="M6703 12281 c-42 -35 -21 -64 35 -49 20 5 48 11 62 12 48 5 90 18 90
26 0 34 -150 42 -187 11z"/>
<path d="M7890 12275 c-15 -19 -6 -45 16 -45 10 0 25 -7 34 -15 20 -18 90 -32
90 -19 -1 15 -23 38 -66 67 -46 31 -57 33 -74 12z"/>
<path d="M6229 12257 c-21 -17 -30 -45 -17 -53 18 -11 259 -7 271 5 15 15 -9
39 -52 51 -50 14 -182 12 -202 -3z"/>
<path d="M4943 12239 c-15 -15 -17 -48 -4 -67 6 -11 24 -12 77 -6 38 5 83 7
99 6 17 -1 37 2 45 7 23 16 -16 40 -65 41 -23 0 -45 4 -50 9 -17 17 -89 24
-102 10z"/>
<path d="M5792 12223 c-53 -53 -6 -72 146 -58 78 7 97 26 45 46 -16 6 -35 17
-43 24 -10 9 -36 14 -70 13 -43 -1 -59 -7 -78 -25z"/>
<path d="M5391 12230 c-38 -9 -52 -25 -49 -55 3 -16 10 -20 43 -20 49 1 216
23 223 30 11 11 -20 32 -65 42 -55 13 -103 14 -152 3z"/>
<path d="M4432 12218 c-16 -16 -15 -39 2 -64 13 -18 23 -20 73 -16 32 2 73 11
92 18 19 8 42 12 51 9 10 -3 23 2 30 11 19 22 0 32 -80 39 -36 3 -85 8 -110
10 -29 3 -50 1 -58 -7z"/>
<path d="M4080 12186 c-39 -48 83 -97 165 -66 41 16 25 32 -51 50 -38 10 -76
20 -85 24 -9 4 -21 1 -29 -8z"/>
<path d="M8146 12151 c-17 -19 -17 -20 11 -34 15 -8 38 -29 51 -46 12 -17 28
-31 35 -31 7 0 17 -10 22 -22 12 -26 31 -34 38 -15 7 20 -25 87 -63 130 -36
41 -68 47 -94 18z"/>
<path d="M3668 12135 c-11 -25 -10 -29 12 -44 13 -9 46 -17 74 -18 53 -2 155
15 170 28 18 16 -43 39 -110 43 -38 2 -83 7 -101 11 -29 7 -34 4 -45 -20z"/>
<path d="M3237 12108 c-45 -56 -18 -70 83 -43 30 8 69 15 87 15 37 0 63 9 63
21 0 18 -75 39 -140 39 -65 0 -70 -2 -93 -32z"/>
<path d="M2853 12121 c-42 -18 -36 -92 6 -76 39 16 143 25 162 14 17 -9 20 -8
17 7 -1 9 -14 25 -28 35 -29 21 -125 33 -157 20z"/>
<path d="M2391 12072 c-34 -11 -48 -36 -31 -57 11 -13 24 -15 54 -11 23 3 61
9 86 12 24 3 53 10 62 15 26 14 22 39 -6 39 -12 0 -50 2 -82 5 -32 2 -70 1
-83 -3z"/>
<path d="M1112 12038 c-9 -11 -8 -19 4 -36 14 -20 22 -22 105 -20 49 2 89 6
89 9 0 3 -11 16 -25 29 -31 29 -153 42 -173 18z"/>
<path d="M1926 12024 c-3 -9 -3 -27 0 -41 6 -22 10 -24 38 -18 17 3 57 5 89 5
44 -1 57 2 57 13 0 35 -172 73 -184 41z"/>
<path d="M1567 12023 c-22 -21 17 -73 47 -65 5 2 36 4 68 4 81 1 94 20 32 47
-44 20 -133 28 -147 14z"/>
<path d="M793 11960 c-37 -16 -43 -23 -43 -50 0 -25 4 -30 24 -30 14 0 28 5
31 10 7 11 88 50 104 50 6 0 11 5 11 10 0 6 -9 10 -19 10 -11 0 -23 5 -26 10
-9 15 -35 12 -82 -10z"/>
<path d="M545 11823 c-42 -43 -49 -97 -15 -106 16 -4 24 2 35 29 8 19 27 46
42 60 27 25 27 26 8 40 -26 20 -30 19 -70 -23z"/>
<path d="M8370 11771 c-6 -12 -7 -51 -4 -98 7 -79 22 -113 52 -113 13 0 14 13
7 83 -4 45 -8 91 -9 102 -3 44 -28 58 -46 26z"/>
<path d="M442 11548 c-16 -21 -26 -153 -12 -177 16 -30 30 -17 30 29 0 21 4
49 9 62 9 26 3 98 -9 98 -4 0 -12 -6 -18 -12z"/>
<path d="M4895 11453 c8 -36 20 -47 39 -40 34 13 11 67 -27 67 -16 0 -18 -5
-12 -27z"/>
<path d="M4371 11386 c-12 -12 -21 -29 -21 -37 0 -8 -7 -22 -14 -32 -8 -10
-14 -46 -15 -88 -1 -57 3 -76 19 -100 12 -16 25 -29 30 -29 5 0 26 -11 46 -25
50 -34 94 -33 127 4 37 43 39 65 3 69 -16 2 -33 -1 -39 -7 -18 -18 -62 -13
-82 9 -18 20 -17 21 45 79 66 62 65 59 39 128 -19 51 -101 68 -138 29z m88
-88 c-6 -11 -19 -23 -29 -25 -10 -3 -21 -11 -24 -19 -8 -22 -26 -16 -26 9 0
40 11 65 33 75 31 14 61 -12 46 -40z"/>
<path d="M4190 11383 c-58 -6 -85 -22 -98 -55 -9 -25 -9 -35 2 -47 7 -9 15
-23 18 -32 3 -8 33 -26 67 -39 34 -14 61 -30 61 -36 0 -6 -10 -20 -23 -32 -17
-16 -31 -21 -53 -17 -24 5 -31 2 -41 -20 -11 -24 -9 -27 22 -42 41 -20 78 -11
116 26 32 32 46 77 32 100 -5 8 -32 30 -59 48 -27 18 -58 39 -69 48 l-20 15
20 16 c13 10 31 14 52 10 18 -2 35 -1 38 4 7 11 -12 60 -22 58 -5 0 -24 -3
-43 -5z"/>
<path d="M8417 11352 c-24 -27 -24 -142 1 -172 11 -14 23 -19 35 -15 14 6 17
19 16 74 -2 117 -18 151 -52 113z"/>
<path d="M3477 11342 c-15 -16 -15 -20 -1 -40 8 -12 21 -40 29 -62 14 -41 14
-41 -8 -34 -22 8 -36 8 -71 2 -15 -2 -24 9 -43 57 -45 116 -81 114 -56 -3 8
-40 12 -79 10 -86 -3 -7 -23 -16 -46 -20 -25 -4 -46 -14 -55 -28 -22 -30 -21
-34 14 -48 25 -10 34 -10 55 4 54 36 74 12 82 -101 5 -66 9 -76 30 -86 12 -5
26 -7 29 -4 14 14 15 96 2 159 -11 48 -11 70 -3 81 12 16 73 26 92 14 6 -4 23
-37 38 -74 35 -89 51 -114 70 -106 13 4 14 15 9 49 -8 57 2 110 24 119 21 8
72 -46 72 -76 0 -27 37 -79 56 -79 65 0 -31 208 -98 211 -46 2 -63 -3 -80 -24
-20 -26 -28 -19 -51 38 -29 75 -68 155 -76 155 -4 0 -15 -8 -24 -18z"/>
<path d="M3873 11333 c-26 -5 -33 -31 -37 -136 -3 -71 -2 -76 20 -86 13 -6 24
-15 24 -21 0 -5 8 -10 17 -10 9 0 24 -7 33 -15 22 -20 113 -23 134 -6 10 8 16
23 14 34 -3 17 -12 21 -62 23 -89 5 -96 20 -41 77 46 49 59 94 33 114 -14 11
-90 34 -104 32 -5 -1 -19 -4 -31 -6z m64 -64 l28 -11 -29 -23 c-35 -28 -46
-24 -46 16 0 32 5 34 47 18z"/>
<path d="M5048 11318 c-64 -17 -60 -53 12 -132 52 -57 58 -80 23 -95 -16 -6
-50 -10 -78 -9 -47 3 -50 2 -50 -22 0 -34 61 -65 111 -55 51 9 93 52 96 96 1
29 -6 45 -41 87 -51 61 -50 82 7 82 21 0 43 -5 48 -10 17 -17 45 0 42 24 -6
41 -84 57 -170 34z"/>
<path d="M4881 11247 c-13 -6 -35 -36 -52 -70 -23 -49 -26 -62 -17 -83 22 -47
43 -26 84 84 27 70 23 86 -15 69z"/>
<path d="M5295 11173 c-41 -21 -86 -65 -81 -79 2 -6 -6 -37 -19 -68 -23 -57
-23 -58 -4 -77 24 -24 70 -24 119 1 54 27 83 72 87 134 7 91 -33 125 -102 89z
m53 -65 c13 -17 1 -47 -31 -77 -48 -44 -67 12 -20 61 30 31 36 33 51 16z"/>
<path d="M5500 11113 c-36 -7 -50 -22 -50 -52 0 -15 -5 -32 -11 -38 -17 -17
-29 -86 -17 -100 17 -21 24 -16 44 30 26 60 55 97 75 97 29 0 40 -61 18 -102
-10 -18 -8 -25 10 -40 22 -17 23 -17 55 25 47 61 62 56 57 -18 -2 -33 -9 -68
-17 -79 -9 -13 -10 -25 -3 -38 11 -20 34 -24 44 -7 26 40 45 230 29 273 -8 21
-32 20 -70 -3 -32 -20 -54 -13 -54 15 0 35 -42 49 -110 37z"/>
<path d="M424 11034 c-4 -15 -4 -60 0 -102 6 -73 19 -107 37 -96 10 6 7 49 -4
60 -3 4 -4 26 0 50 11 79 -17 153 -33 88z"/>
<path d="M5830 10905 c-55 -40 -80 -77 -68 -98 5 -10 7 -21 4 -24 -3 -3 -1
-14 5 -24 7 -13 6 -26 -2 -40 -9 -18 -7 -25 12 -44 40 -38 73 -40 113 -5 55
49 86 113 86 179 0 31 -5 62 -12 69 -22 22 -101 14 -138 -13z m105 -62 c-14
-74 -63 -133 -111 -133 -30 0 -40 16 -14 23 16 4 20 14 20 48 0 54 38 99 83
99 28 0 29 -1 22 -37z"/>
<path d="M2765 10903 c-52 -13 -78 -67 -63 -133 5 -25 12 -58 15 -75 3 -16 10
-35 14 -41 25 -31 -71 -55 -117 -30 -57 30 -56 29 -39 78 8 25 16 67 17 94 3
39 0 49 -14 52 -12 2 -22 -6 -29 -25 -7 -15 -22 -50 -35 -76 l-22 -48 -39 57
c-54 80 -93 124 -109 124 -24 0 -28 -30 -6 -53 11 -12 23 -32 27 -45 3 -12 18
-36 32 -53 26 -31 51 -70 73 -119 7 -14 16 -32 20 -41 5 -9 12 -32 15 -52 4
-19 17 -45 30 -57 l23 -22 16 24 c13 20 14 31 5 57 -13 38 -6 50 21 33 32 -20
132 1 152 32 4 6 8 21 8 34 0 26 17 28 47 7 24 -17 68 -22 103 -11 34 11 110
86 110 108 0 24 -11 23 -62 -6 -57 -31 -101 -40 -128 -26 l-22 12 25 26 c31
34 57 84 57 112 0 12 -12 32 -26 45 -26 24 -54 29 -99 18z m48 -79 c10 -10
-22 -64 -38 -64 -19 0 -21 56 -2 63 18 8 33 8 40 1z"/>
<path d="M8442 10893 c-10 -19 -28 -165 -24 -198 2 -19 36 -55 52 -55 4 0 10
44 14 98 13 175 13 167 -11 170 -13 2 -25 -4 -31 -15z"/>
<path d="M6108 10837 c-16 -6 -28 -14 -28 -19 0 -4 -10 -8 -22 -8 -40 0 -49
-14 -54 -83 -5 -58 -3 -67 15 -76 28 -16 29 -15 40 27 10 35 63 102 82 102 25
0 61 -23 69 -45 5 -14 14 -25 19 -25 36 0 13 80 -33 115 -36 27 -47 29 -88 12z"/>
<path d="M6613 10823 c-13 -8 -23 -25 -23 -37 0 -12 -9 -39 -20 -61 -11 -22
-20 -49 -20 -61 0 -11 -8 -36 -17 -55 -9 -18 -20 -54 -24 -80 -5 -30 -20 -63
-43 -94 -40 -51 -44 -71 -21 -101 15 -18 16 -18 43 16 71 90 126 125 161 103
21 -13 26 -61 8 -81 -8 -10 -27 -39 -41 -66 -30 -54 -25 -70 19 -64 21 2 33
15 57 58 25 47 29 63 25 114 -3 51 -8 62 -33 83 -23 19 -37 23 -66 18 -57 -8
-57 -8 -3 150 28 82 43 175 28 174 -4 0 -18 -7 -30 -16z"/>
<path d="M6282 10691 c-12 -23 -22 -50 -22 -60 0 -19 -43 -114 -105 -231 -41
-76 -42 -86 -14 -100 27 -15 49 -6 49 20 0 11 4 20 8 20 5 0 24 32 43 70 25
52 38 69 49 64 8 -4 40 -9 71 -11 55 -5 56 -4 87 32 36 44 49 102 31 136 -7
13 -15 31 -19 38 -12 28 -55 50 -106 57 l-51 6 -21 -41z m125 -53 c29 -27 29
-57 1 -93 -18 -23 -26 -26 -56 -21 -47 7 -53 20 -32 73 25 66 48 77 87 41z"/>
<path d="M2252 10602 c-40 -36 -89 -108 -97 -142 -22 -108 -10 -151 52 -176
61 -26 109 16 120 106 5 43 8 48 23 40 10 -5 43 -12 73 -16 l55 -7 7 32 c8 39
3 46 -24 31 -17 -9 -29 -6 -66 16 -62 36 -105 78 -105 102 0 29 -15 35 -38 14z
m13 -143 c16 -72 -23 -139 -60 -103 -9 9 -14 23 -11 31 3 8 6 20 6 26 0 17 38
77 49 77 5 0 12 -14 16 -31z"/>
<path d="M436 10561 c-16 -30 -15 -46 10 -138 2 -7 10 -13 19 -13 13 0 15 13
13 87 -3 95 -16 115 -42 64z"/>
<path d="M1823 10549 c-9 -9 -7 -25 8 -63 10 -28 19 -66 19 -84 l0 -33 -27 18
c-16 10 -39 24 -53 30 -14 6 -46 21 -71 33 -25 13 -53 20 -62 17 -27 -10 -22
-77 10 -123 14 -21 44 -76 65 -121 21 -45 43 -85 48 -88 6 -3 10 -16 10 -29 0
-12 5 -27 12 -34 17 -17 58 -15 65 3 3 9 -23 72 -61 145 -36 71 -66 136 -66
144 0 22 17 20 37 -4 10 -11 23 -20 30 -20 7 0 27 -13 45 -29 18 -15 43 -31
55 -35 18 -6 24 -2 29 19 3 14 4 48 2 76 -3 27 -1 49 4 49 9 0 138 -125 138
-134 0 -8 73 -75 83 -76 4 0 7 13 7 30 0 48 -130 189 -272 293 -42 31 -40 31
-55 16z"/>
<path d="M6855 10530 c-4 -7 6 -25 23 -41 25 -25 31 -27 42 -15 6 8 10 25 8
38 -2 18 -10 24 -35 26 -17 2 -34 -2 -38 -8z"/>
<path d="M4052 10510 c-31 -5 -51 -16 -74 -41 -30 -32 -32 -38 -32 -114 0 -56
5 -89 17 -110 9 -16 17 -45 17 -62 0 -32 -1 -33 -44 -33 -31 0 -72 -13 -135
-42 l-91 -42 -16 -55 c-20 -71 -14 -84 78 -153 75 -56 93 -67 141 -87 15 -6
37 -15 50 -20 12 -5 29 -10 37 -10 35 0 140 -34 140 -46 0 -21 -38 -123 -64
-173 -14 -26 -30 -62 -37 -79 -6 -18 -15 -33 -20 -33 -20 0 -7 -41 21 -70 119
-122 236 -85 390 122 19 26 39 48 44 48 4 0 41 -34 82 -75 l73 -76 73 -4 c84
-5 147 8 200 42 44 27 58 50 58 96 0 34 -43 125 -88 185 -14 18 -23 34 -21 35
2 2 30 18 62 37 75 45 112 97 104 147 -8 49 -90 131 -176 177 l-66 35 0 144 0
145 -31 38 c-37 46 -57 52 -148 42 -64 -7 -73 -11 -112 -49 -24 -23 -48 -55
-55 -71 -6 -15 -15 -28 -19 -28 -5 0 -38 31 -76 70 -95 99 -167 126 -282 110z
m125 -85 c33 -5 56 -20 117 -79 l76 -73 -20 -41 c-11 -23 -20 -45 -20 -50 0
-11 -219 -30 -246 -21 -45 16 -92 202 -60 242 8 10 27 22 43 27 28 8 35 8 110
-5z m517 -28 c16 -12 19 -27 19 -88 -1 -41 -3 -94 -6 -119 -3 -25 -6 -49 -6
-53 -1 -5 -36 -7 -78 -6 l-78 4 -43 59 -44 59 18 33 c10 19 37 53 59 77 36 37
47 42 91 45 30 1 57 -3 68 -11z m-435 -399 l-23 -61 -58 62 c-32 34 -58 66
-58 71 0 5 35 10 78 12 58 2 78 0 80 -10 2 -8 -6 -41 -19 -74z m223 76 c9 -3
44 -39 78 -81 55 -69 59 -78 47 -97 -7 -12 -28 -45 -47 -73 l-33 -53 -71 6
c-66 6 -74 9 -113 48 -44 42 -49 59 -34 98 5 13 14 42 20 64 18 67 45 94 94
93 23 -1 50 -3 59 -5z m-409 -56 c19 -29 53 -73 76 -96 45 -48 51 -77 25 -117
-19 -29 -42 -28 -173 7 -83 21 -113 35 -185 86 -58 40 -66 49 -66 78 0 28 26
50 75 63 22 6 47 15 55 21 8 5 47 10 86 10 l71 0 36 -52z m587 5 c0 -25 0 -26
-20 -8 -11 10 -20 22 -20 27 0 4 9 8 20 8 15 0 20 -7 20 -27z m259 -95 c32
-36 33 -40 20 -64 -7 -15 -24 -30 -36 -35 -13 -5 -36 -18 -52 -30 -16 -12 -36
-19 -43 -16 -8 2 -33 33 -57 68 -39 58 -42 68 -37 108 3 25 13 52 21 61 14 16
20 14 83 -18 37 -20 82 -53 101 -74z m-220 -127 c12 -16 21 -31 21 -34 0 -9
-71 -16 -90 -9 -18 7 -18 9 6 40 14 17 29 32 34 32 5 0 18 -13 29 -29z m-354
-117 c26 -5 75 -71 75 -99 0 -12 -9 -30 -21 -41 -12 -10 -32 -39 -45 -64 -30
-57 -49 -79 -99 -113 -58 -38 -94 -43 -128 -17 -30 24 -34 50 -12 83 9 14 11
27 5 36 -6 10 0 25 16 47 24 31 64 130 64 158 0 8 6 17 13 19 12 5 94 0 132
-9z m458 -37 c42 -51 87 -133 87 -158 0 -22 -58 -54 -116 -63 -38 -7 -44 -4
-94 38 -59 51 -67 54 -72 29 -2 -11 -16 1 -46 41 -47 62 -49 81 -12 129 19 24
25 25 119 26 l100 1 34 -43z"/>
<path d="M4389 10011 c-13 -10 -30 -35 -38 -56 -12 -34 -11 -39 6 -57 11 -10
44 -25 74 -33 49 -14 58 -13 92 2 60 26 62 73 6 131 -26 26 -39 32 -74 32 -26
0 -51 -7 -66 -19z"/>
<path d="M8412 10458 c-6 -8 -10 -44 -8 -87 2 -58 6 -76 21 -87 10 -8 23 -14
27 -14 5 0 7 44 6 97 -2 80 -6 98 -19 101 -9 1 -21 -3 -27 -10z"/>
<path d="M6760 10343 c-17 -26 -30 -51 -30 -56 0 -5 -9 -20 -20 -34 -26 -33
-12 -63 30 -63 21 0 31 6 36 23 4 12 21 51 39 87 35 73 35 90 -1 90 -18 0 -32
-12 -54 -47z"/>
<path d="M6930 10310 c-100 -21 -126 -59 -111 -165 12 -79 29 -108 79 -134 45
-23 112 -34 130 -22 16 10 -27 44 -89 73 -42 18 -65 69 -55 120 8 43 24 58 58
58 39 0 124 -28 139 -46 6 -8 22 -14 35 -14 34 0 32 39 -3 72 -54 50 -121 72
-183 58z"/>
<path d="M426 10193 c-3 -10 -5 -43 -6 -73 0 -30 0 -70 0 -89 -1 -35 16 -65
31 -55 10 6 12 193 3 218 -8 21 -21 20 -28 -1z"/>
<path d="M8376 10102 c-3 -5 -8 -42 -12 -83 -5 -60 -3 -82 12 -117 12 -27 24
-41 34 -39 13 2 14 21 11 112 -3 102 -11 135 -32 135 -4 0 -10 -4 -13 -8z"/>
<path d="M450 9776 c-17 -44 -13 -191 5 -206 29 -24 38 3 33 109 -4 108 -19
146 -38 97z"/>
<path d="M8327 9693 c-26 -29 -39 -104 -21 -124 7 -8 14 -30 14 -47 0 -21 7
-36 22 -47 21 -14 24 -14 35 2 14 18 16 109 5 183 -8 50 -28 62 -55 33z"/>
<path d="M11384 9349 c-36 -40 -8 -70 60 -62 50 6 136 46 136 64 0 5 -17 10
-37 10 -133 4 -145 4 -159 -12z"/>
<path d="M10546 9338 c-23 -33 -5 -45 87 -57 103 -14 107 -14 107 8 0 24 -14
35 -74 55 -68 22 -102 21 -120 -6z"/>
<path d="M10943 9336 c-16 -37 6 -46 110 -46 79 0 84 1 95 25 7 16 8 26 1 30
-5 4 -51 9 -102 12 -92 5 -92 5 -104 -21z"/>
<path d="M476 9324 c-14 -36 -19 -161 -7 -182 21 -39 38 -16 40 56 1 37 2 74
3 82 3 38 -3 60 -16 60 -8 0 -17 -7 -20 -16z"/>
<path d="M11784 9316 c-23 -34 -1 -46 83 -46 41 0 83 5 94 10 21 12 26 40 7
41 -7 0 -48 4 -91 8 -72 6 -80 5 -93 -13z"/>
<path d="M9423 9304 c-18 -9 -33 -22 -33 -29 0 -19 44 -44 61 -35 8 4 48 7 90
7 52 -1 82 3 93 12 19 16 16 36 -5 37 -8 0 -25 5 -39 11 -41 16 -132 15 -167
-3z"/>
<path d="M10275 9315 c-5 -1 -36 -8 -67 -15 -45 -9 -58 -16 -58 -29 0 -36 21
-40 113 -22 89 17 116 33 95 58 -9 12 -57 16 -83 8z"/>
<path d="M12090 9305 c-10 -12 -8 -18 11 -35 13 -10 40 -22 59 -26 19 -4 51
-15 70 -25 42 -23 56 -24 63 -5 22 56 -164 138 -203 91z"/>
<path d="M9796 9284 c-8 -20 11 -54 27 -49 6 2 39 6 72 9 33 3 63 5 68 5 4 1
7 7 7 15 0 33 -162 52 -174 20z"/>
<path d="M9058 9243 c-46 -3 -60 -8 -69 -25 -18 -34 13 -51 80 -43 55 7 162
32 170 41 20 20 -78 34 -181 27z"/>
<path d="M8310 9210 c-7 -17 -10 -45 -7 -64 3 -18 1 -38 -3 -42 -13 -13 -1
-51 18 -59 24 -9 29 4 35 86 6 66 4 79 -12 93 -17 16 -19 15 -31 -14z"/>
<path d="M7125 9202 c-1 -2 -18 -4 -36 -4 -40 -1 -59 -13 -59 -39 0 -21 -1
-21 90 -20 129 2 221 35 158 58 -22 7 -146 11 -153 5z"/>
<path d="M7593 9195 c-30 -22 -29 -31 7 -50 22 -12 35 -13 49 -5 11 5 41 10
68 10 26 1 58 6 71 14 38 21 5 36 -90 42 -67 5 -87 3 -105 -11z"/>
<path d="M8768 9205 c-13 -13 -103 -21 -157 -14 -51 7 -66 6 -88 -8 l-25 -17
26 -23 c20 -17 39 -23 74 -23 78 1 192 40 192 66 0 14 -14 26 -22 19z"/>
<path d="M6623 9188 c-29 -14 -29 -23 -1 -42 50 -35 257 -4 233 34 -2 4 -21 7
-42 8 -21 1 -67 3 -103 6 -39 3 -74 1 -87 -6z"/>
<path d="M8021 9179 c-27 -22 -27 -33 2 -47 39 -19 50 -19 115 -2 70 18 80 32
30 42 -18 3 -54 10 -79 15 -38 8 -50 7 -68 -8z"/>
<path d="M6188 9180 c-22 -13 -23 -24 -3 -44 12 -11 31 -13 92 -9 82 7 147 33
121 49 -21 13 -191 16 -210 4z"/>
<path d="M5751 9144 c-27 -31 -1 -49 75 -51 68 -3 113 10 121 33 4 12 -28 20
-122 29 -48 5 -63 2 -74 -11z"/>
<path d="M5297 9125 c-21 -21 -7 -61 19 -57 11 1 48 2 83 2 62 1 91 11 91 32
0 5 -6 8 -12 5 -7 -2 -20 1 -28 8 -8 7 -43 15 -76 19 -49 5 -65 4 -77 -9z"/>
<path d="M12347 9092 c-15 -17 -15 -21 2 -52 14 -26 16 -42 9 -65 -6 -22 -4
-40 8 -67 21 -48 49 -51 58 -7 3 17 4 34 2 38 -2 3 -6 36 -10 72 -3 37 -9 74
-12 83 -8 21 -37 20 -57 -2z"/>
<path d="M5000 9059 c-70 -36 -86 -56 -63 -81 20 -22 28 -22 51 -2 30 27 91
63 117 70 22 6 36 33 18 35 -5 0 -21 2 -38 4 -19 1 -51 -8 -85 -26z"/>
<path d="M4761 8833 c-17 -37 -32 -133 -25 -155 10 -32 33 -20 39 20 5 34 20
103 32 145 9 30 -32 21 -46 -10z"/>
<path d="M10519 8828 c-12 -21 -8 -159 7 -287 l7 -54 -28 7 c-101 26 -123 19
-196 -56 -54 -56 -54 -92 1 -142 22 -19 52 -38 67 -41 16 -4 36 -8 47 -10 21
-4 76 28 127 74 l34 31 -1 133 c-1 72 -3 146 -6 162 -2 17 -5 69 -6 118 -2 79
-4 87 -22 87 -10 0 -25 -10 -31 -22z m-56 -389 c25 -11 71 -85 62 -99 -5 -8
-41 -17 -106 -26 -29 -5 -41 -1 -58 17 -34 37 -24 70 29 97 52 26 43 25 73 11z"/>
<path d="M487 8817 c-9 -23 2 -147 15 -174 27 -55 35 -37 31 64 -3 54 -6 104
-8 111 -6 16 -31 16 -38 -1z"/>
<path d="M11463 8818 c-7 -9 -6 -36 2 -83 13 -77 9 -83 -46 -84 -29 -1 -59
-29 -59 -55 0 -22 36 -34 84 -28 l39 5 -7 -109 c-4 -60 -8 -118 -9 -129 -3
-28 34 -32 57 -6 14 15 19 43 23 123 3 57 10 109 16 116 5 7 33 12 67 12 50 0
58 3 63 21 6 22 -5 28 -94 55 -45 14 -78 52 -63 75 3 5 3 23 -1 39 -11 51 -50
76 -72 48z"/>
<path d="M9355 8790 c-20 -23 -14 -50 15 -57 23 -6 24 -7 9 -31 -8 -13 -8 -38
0 -92 7 -41 11 -83 11 -92 0 -10 0 -30 0 -45 1 -16 1 -59 0 -96 -1 -72 9 -97
41 -97 28 0 34 19 34 100 l0 75 44 15 c62 21 158 111 167 156 5 29 1 39 -27
71 -47 55 -133 95 -225 107 -43 5 -53 3 -69 -14z m129 -69 c3 -5 18 -12 33
-16 48 -11 102 -38 108 -53 5 -15 -20 -57 -51 -83 -24 -20 -103 -54 -109 -47
-5 5 -11 41 -29 166 -6 40 -5 42 18 42 14 0 27 -4 30 -9z"/>
<path d="M6927 8786 c-12 -13 -12 -22 -2 -64 7 -27 16 -78 19 -113 7 -85 16
-175 22 -221 3 -32 1 -38 -14 -38 -9 0 -32 -13 -49 -29 -66 -60 -119 -57 -141
7 -21 64 31 128 116 141 38 7 54 27 28 37 -9 3 -37 3 -62 -1 -47 -7 -96 -42
-134 -96 -42 -58 8 -166 89 -190 53 -16 109 13 136 70 20 42 41 57 30 21 -5
-15 0 -21 19 -26 34 -8 43 -1 51 43 4 21 14 53 22 71 13 26 21 32 41 30 22 -3
28 -13 49 -83 31 -103 35 -110 64 -110 35 0 36 46 4 130 -28 76 -65 130 -94
140 -22 7 -66 -9 -89 -32 -16 -16 -17 -11 -24 78 -5 52 -13 123 -19 159 -15
87 -31 106 -62 76z"/>
<path d="M8285 8768 c-2 -7 -6 -54 -10 -105 -6 -98 4 -133 37 -133 16 0 18 11
18 99 0 55 -4 111 -10 125 -10 28 -28 34 -35 14z"/>
<path d="M5569 8710 c-36 -3 -73 -11 -81 -18 -23 -19 -60 -116 -56 -148 4 -38
60 -65 140 -68 113 -5 158 -33 158 -97 0 -34 -5 -42 -44 -69 -38 -25 -54 -30
-106 -30 -55 0 -65 3 -92 31 -36 35 -61 32 -56 -8 2 -20 16 -35 58 -60 50 -30
60 -33 110 -27 67 7 152 59 170 104 l13 30 14 -27 c7 -14 12 -32 9 -39 -7 -18
31 -72 66 -95 27 -17 43 -19 91 -14 59 6 122 34 143 63 9 12 17 13 44 4 65
-23 95 -16 134 30 31 38 35 41 41 23 27 -79 54 -107 81 -84 18 15 18 53 0 68
-8 7 -22 47 -32 89 -20 95 -42 141 -70 148 -55 14 -221 -141 -210 -196 2 -14
2 -30 -2 -36 -11 -16 -62 -32 -123 -39 -47 -5 -59 -3 -83 16 -42 33 -32 59 32
80 62 21 109 52 117 79 3 10 -1 32 -9 49 -13 25 -25 32 -73 42 -54 11 -61 10
-103 -12 -44 -24 -45 -25 -43 -72 1 -26 -2 -47 -7 -47 -4 0 -15 20 -24 44 -27
70 -69 95 -165 101 -101 6 -131 17 -131 48 0 14 9 36 21 51 20 26 24 26 107
23 48 -2 95 -7 104 -11 11 -5 20 -2 27 12 15 28 -7 53 -52 57 -20 2 -40 5 -44
7 -4 2 -38 1 -74 -2z m393 -266 c17 -11 7 -34 -14 -34 -13 0 -40 -3 -60 -6
-43 -7 -50 6 -21 38 14 15 25 18 53 13 19 -4 38 -9 42 -11z m311 -41 c-6 -57
-40 -113 -68 -113 -62 0 -56 59 12 120 25 22 49 40 53 40 4 0 5 -21 3 -47z"/>
<path d="M12416 8641 c-22 -69 -20 -103 8 -123 12 -9 27 -13 33 -10 6 4 12 45
14 92 4 80 3 85 -17 88 -18 3 -24 -6 -38 -47z"/>
<path d="M1472 8604 c-18 -20 -17 -128 3 -404 7 -102 16 -123 49 -118 20 3 21
9 21 100 0 53 2 98 5 101 3 2 33 7 67 10 l61 6 12 -84 c12 -84 24 -105 59
-105 14 0 15 213 2 238 -6 9 -14 66 -20 127 -8 92 -13 113 -31 127 -11 9 -28
14 -35 11 -18 -6 -18 -18 -1 -141 8 -62 8 -95 2 -100 -6 -3 -36 -6 -68 -6 -68
-1 -64 -7 -73 124 -4 52 -9 103 -12 113 -5 21 -23 22 -41 1z"/>
<path d="M11200 8560 c-8 -5 -23 -10 -33 -10 -28 0 -83 -47 -102 -86 -20 -42
-8 -93 33 -137 41 -44 87 -52 168 -32 70 17 104 37 104 62 0 22 -23 25 -69 8
-96 -33 -171 -5 -171 64 0 35 22 52 88 72 49 14 65 30 56 53 -7 18 -50 21 -74
6z"/>
<path d="M9774 8510 c-40 -22 -77 -46 -82 -53 -8 -9 -6 -37 6 -97 16 -78 19
-85 43 -88 40 -5 49 14 37 76 -10 47 -9 56 8 79 22 29 90 70 125 75 16 2 24
10 24 23 0 17 -8 20 -45 23 -37 2 -58 -5 -116 -38z"/>
<path d="M10917 8529 c-9 -5 -23 -25 -31 -43 -20 -47 -104 -128 -130 -124 -19
3 -21 9 -18 74 3 43 0 74 -7 78 -30 19 -78 -87 -66 -144 21 -95 95 -105 184
-25 l40 36 25 -44 c32 -54 74 -77 93 -51 10 13 10 22 -1 43 -12 24 -24 69 -44
165 -8 43 -18 51 -45 35z"/>
<path d="M4707 8482 c-29 -61 -13 -182 24 -182 11 0 12 207 1 214 -4 2 -15
-12 -25 -32z"/>
<path d="M10031 8489 c-37 -34 -51 -67 -51 -121 0 -64 25 -95 87 -109 46 -11
58 -10 93 6 70 31 96 98 66 168 -21 49 -56 73 -114 79 -45 4 -54 2 -81 -23z
m134 -59 c29 -55 15 -101 -35 -119 -38 -13 -52 -8 -67 26 -30 64 -5 123 52
123 28 0 37 -6 50 -30z"/>
<path d="M6543 8495 c-50 -21 -65 -62 -57 -148 6 -70 26 -127 43 -127 4 0 16
9 26 20 15 17 16 25 6 64 -6 25 -11 61 -11 81 0 29 5 37 26 45 15 6 48 8 74 4
29 -4 50 -2 54 4 10 16 -31 49 -67 54 -18 3 -39 8 -47 11 -8 3 -29 0 -47 -8z"/>
<path d="M2749 8468 c-39 -41 -59 -82 -59 -123 0 -22 -7 -49 -15 -59 -22 -28
-19 -35 19 -51 19 -8 49 -29 67 -47 30 -31 38 -33 123 -40 109 -8 130 -4 152
29 23 36 7 43 -102 43 -77 0 -95 3 -118 21 -14 11 -26 24 -26 27 0 4 26 17 59
30 82 32 95 48 89 118 -3 33 -11 60 -19 65 -8 5 -44 9 -81 9 -57 0 -71 -4 -89
-22z m127 -52 c8 -22 -25 -66 -50 -66 -12 0 -27 -5 -33 -11 -6 -6 -16 -8 -22
-5 -15 10 -14 69 1 84 17 17 97 16 104 -2z"/>
<path d="M2433 8433 c-13 -8 -23 -24 -23 -35 0 -34 -28 -32 -70 6 -22 20 -47
36 -56 36 -8 0 -36 -12 -61 -27 l-45 -26 6 -76 c7 -78 32 -157 53 -165 19 -8
53 6 53 21 0 8 -4 22 -9 31 -5 9 -12 47 -16 84 -6 58 -5 69 9 74 22 8 52 -20
78 -71 32 -62 57 -72 76 -30 7 14 12 40 12 58 1 29 24 76 34 66 13 -14 56
-112 56 -127 0 -32 21 -80 37 -87 9 -3 23 0 30 8 12 12 11 25 -6 89 -26 99
-54 154 -91 173 -35 18 -39 18 -67 -2z"/>
<path d="M1895 8421 c-29 -13 -82 -72 -95 -106 -27 -71 17 -143 100 -163 57
-13 105 -5 152 24 47 30 62 57 55 106 -7 49 -30 86 -65 100 -15 7 -34 17 -42
24 -21 17 -81 25 -105 15z m116 -100 c43 -43 39 -75 -11 -95 -81 -32 -130 -14
-130 50 0 76 83 102 141 45z"/>
<path d="M540 8376 c0 -13 -9 -46 -20 -71 -23 -53 -15 -75 25 -75 20 0 23 6
30 64 4 41 2 72 -5 85 -15 28 -30 26 -30 -3z"/>
<path d="M8272 8299 c-6 -14 -12 -54 -14 -89 -2 -51 0 -65 14 -74 9 -5 19 -8
22 -6 2 3 7 39 11 80 5 59 3 79 -9 95 -14 20 -15 20 -24 -6z"/>
<path d="M12441 8224 c-18 -22 -21 -39 -19 -105 2 -96 7 -107 42 -91 25 11 26
15 28 102 0 49 1 96 2 102 2 24 -32 19 -53 -8z"/>
<path d="M4711 7967 c-44 -99 -45 -102 -16 -121 29 -19 29 -21 44 74 6 36 14
75 17 88 13 47 -18 20 -45 -41z"/>
<path d="M534 7917 c3 -14 2 -29 -4 -32 -16 -10 -12 -108 6 -133 8 -12 18 -20
22 -18 4 2 7 48 6 103 -1 85 -3 98 -19 101 -14 3 -16 -1 -11 -21z"/>
<path d="M12477 7815 c-10 -15 -20 -52 -24 -90 -6 -64 -6 -65 19 -65 14 0 31
6 37 14 12 15 31 152 22 161 -11 12 -38 2 -54 -20z"/>
<path d="M9476 7784 c-9 -8 -16 -21 -16 -29 0 -7 -15 -18 -32 -24 -107 -37
-288 -133 -312 -165 -18 -23 -18 -27 -4 -38 41 -34 61 -182 55 -393 -5 -157
-21 -346 -31 -375 -10 -28 -16 -104 -21 -240 -2 -74 -7 -162 -11 -195 -4 -33
-6 -70 -5 -82 1 -13 -3 -47 -9 -77 -13 -65 -17 -644 -5 -851 4 -77 9 -183 10
-235 1 -52 5 -153 9 -225 4 -71 8 -215 10 -320 4 -241 19 -382 43 -402 13 -10
36 -12 83 -8 178 14 670 22 800 12 68 -5 301 -7 780 -7 14 0 54 -1 90 -2 36
-2 115 3 175 10 87 10 302 19 575 25 27 0 181 -13 219 -19 62 -10 65 -1 56
209 -4 100 -9 223 -10 272 -2 50 -7 119 -10 155 -4 36 -9 121 -11 189 -3 68
-7 127 -9 131 -2 3 1 53 6 110 6 58 12 134 14 170 9 161 16 231 25 281 18 91
31 284 35 514 2 121 12 337 21 480 23 334 25 466 13 590 -17 178 -29 328 -32
419 -5 128 11 122 -311 118 -144 -2 -272 -3 -286 -3 -655 0 -846 -2 -855 -10
-10 -10 -377 0 -469 12 -45 7 -190 13 -323 15 -210 4 -243 2 -257 -12z m481
-77 c5 -3 44 -8 88 -11 44 -3 141 -11 215 -16 94 -7 182 -6 295 2 88 6 171 11
185 11 14 -1 176 -3 360 -5 184 -2 341 -7 348 -12 7 -4 29 -2 50 5 20 7 59 12
87 11 27 0 98 5 157 11 139 13 160 6 157 -56 -1 -23 1 -67 5 -97 45 -391 51
-496 36 -640 -15 -146 -27 -376 -40 -750 -11 -297 -13 -333 -29 -470 -54 -457
-58 -704 -16 -1190 3 -36 8 -111 11 -168 5 -87 3 -103 -10 -108 -9 -4 -22 -1
-29 5 -7 5 -47 11 -88 11 -41 1 -105 2 -144 3 -154 3 -434 -5 -500 -14 -38 -5
-126 -10 -195 -10 -555 -1 -834 3 -944 12 -95 9 -155 9 -230 0 -55 -6 -189
-14 -296 -17 -107 -3 -201 -7 -207 -9 -7 -2 -15 6 -17 18 -13 66 -26 245 -26
370 0 78 -5 241 -11 362 -17 364 -17 380 -23 670 -2 154 -1 359 4 455 5 96 11
234 14 305 7 166 14 266 27 389 6 54 9 110 7 125 -1 14 1 32 6 39 14 24 19
149 11 347 -3 90 4 145 20 145 9 0 67 -29 135 -70 36 -20 179 -83 219 -96 59
-18 72 -7 65 54 -3 25 -11 57 -18 71 -22 44 -64 193 -71 252 l-6 55 38 10 c38
11 344 11 360 1z m-454 -102 c9 -31 17 -61 17 -68 0 -7 12 -48 26 -91 16 -49
22 -82 16 -88 -19 -19 -332 156 -332 185 0 5 30 22 68 38 37 16 79 36 94 44
14 8 35 15 46 15 12 0 24 5 27 10 12 20 21 9 38 -45z"/>
<path d="M9720 7562 c-20 -16 -23 -24 -15 -38 9 -14 25 -17 100 -15 50 1 133
-3 185 -9 52 -7 129 -11 170 -11 41 0 104 -4 140 -10 65 -11 181 -12 585 -4
248 5 419 14 484 25 24 4 55 5 70 1 14 -5 77 -7 140 -6 108 1 113 0 122 -21 9
-24 23 -277 21 -384 -1 -36 -3 -193 -5 -350 -4 -264 -9 -350 -24 -455 -10 -70
-13 -161 -18 -530 -5 -347 -12 -576 -20 -660 -2 -22 -4 -174 -5 -338 -2 -251
-5 -300 -17 -313 -9 -8 -22 -13 -30 -10 -8 3 -25 6 -37 6 -39 0 -56 21 -61 80
-3 30 -7 82 -10 115 -3 33 -8 78 -11 100 -2 22 -8 80 -13 128 -12 118 -20 127
-121 127 -69 0 -171 -13 -210 -26 -42 -15 -469 -19 -530 -6 -49 12 -219 8
-405 -9 -179 -16 -232 -19 -440 -25 -104 -2 -200 -7 -211 -9 -36 -8 -54 -118
-56 -342 0 -81 -5 -138 -12 -147 -7 -9 -35 -16 -76 -18 l-65 -3 -2 125 c-12
808 -17 954 -34 1084 -23 174 -10 627 26 921 29 232 39 564 21 645 -7 28 -17
46 -28 48 -15 3 -16 -17 -15 -225 1 -125 -4 -275 -11 -333 -37 -329 -43 -421
-44 -700 -2 -324 6 -530 21 -558 6 -11 10 -160 10 -363 -1 -440 8 -740 21
-753 6 -6 17 -3 32 11 51 46 325 64 708 48 394 -17 537 -20 609 -12 101 10
117 11 176 8 96 -6 474 8 492 17 20 10 269 8 319 -3 20 -5 34 -2 42 7 18 22
27 296 37 1103 5 404 18 776 32 900 3 22 7 141 9 265 3 124 8 295 12 380 4 85
4 184 0 220 -4 36 -10 114 -13 174 -3 60 -9 114 -15 121 -6 7 -22 10 -37 7
-16 -3 -24 -1 -20 5 17 27 -23 32 -199 28 -98 -3 -210 -8 -249 -11 -213 -18
-858 -24 -1040 -10 -33 3 -103 7 -155 10 -52 3 -142 8 -200 12 -97 6 -107 5
-130 -14z m1678 -2664 c7 -7 12 -40 12 -77 0 -37 7 -124 15 -196 21 -187 27
-169 -57 -183 -40 -6 -208 -15 -373 -18 -165 -3 -303 -8 -307 -10 -15 -10
-414 -11 -425 -2 -7 6 -154 10 -362 11 -304 2 -351 4 -352 17 -10 139 1 384
18 401 7 7 98 12 244 15 129 2 286 9 349 15 63 6 149 11 190 12 41 1 80 4 85
6 6 3 30 1 55 -2 131 -20 489 -14 700 12 103 13 195 12 208 -1z"/>
<path d="M11404 7350 c-49 -3 -95 -10 -102 -14 -6 -4 -78 -9 -159 -11 -82 -3
-168 -7 -193 -10 -48 -6 -235 -17 -260 -16 -157 7 -378 7 -419 -1 -40 -8 -75
-7 -154 6 -56 9 -142 20 -192 26 -85 9 -90 8 -112 -12 -13 -13 -20 -25 -14
-31 4 -4 48 -12 97 -17 49 -4 102 -13 118 -20 29 -10 201 -16 436 -13 58 1
128 1 155 1 161 -2 412 7 423 15 6 5 34 7 60 3 26 -3 99 1 162 9 162 20 258
24 269 11 18 -23 22 -140 7 -224 -8 -46 -19 -89 -24 -95 -8 -9 -71 -11 -239
-8 -373 6 -655 6 -828 1 -138 -4 -206 -4 -590 4 -154 3 -286 6 -293 6 -11 0
-13 15 -9 69 8 105 -15 183 -45 153 -14 -14 -19 -171 -6 -189 5 -6 5 -14 -2
-18 -5 -3 -10 -18 -10 -33 0 -15 -4 -33 -9 -41 -13 -20 -3 -41 19 -41 10 0 35
7 56 16 43 18 211 22 589 14 132 -3 213 0 237 7 26 8 60 8 110 2 40 -5 183
-11 318 -14 135 -2 265 -6 290 -9 43 -4 139 -5 365 -2 l100 1 8 50 c4 28 15
89 23 136 10 61 13 115 8 184 -7 90 -9 97 -31 106 -13 5 -34 8 -46 7 -12 0
-63 -4 -113 -8z"/>
<path d="M10390 6759 c-19 -5 -102 -8 -185 -7 -82 0 -170 -4 -194 -10 -30 -7
-72 -8 -126 -1 -64 7 -100 5 -161 -7 -43 -8 -106 -20 -140 -27 -73 -14 -97
-31 -88 -61 4 -12 6 -66 4 -121 -4 -131 -4 -172 4 -346 3 -81 1 -191 -4 -245
-7 -68 -7 -101 0 -108 8 -8 13 -7 19 3 7 11 11 9 21 -9 12 -22 16 -22 95 -16
45 3 120 13 166 22 53 10 102 13 134 9 28 -4 98 -8 158 -11 100 -3 254 -31
297 -54 31 -17 52 30 57 129 2 47 10 122 19 166 10 58 14 137 13 285 -1 113
-3 246 -3 297 -1 116 -11 129 -86 112z m26 -115 c1 -23 7 -82 14 -132 6 -50 9
-96 5 -102 -3 -5 -7 -70 -8 -143 -2 -131 -21 -283 -38 -301 -5 -6 -9 -34 -9
-63 0 -50 -1 -53 -22 -48 -60 13 -262 34 -336 34 -46 0 -99 5 -118 11 -18 6
-38 8 -44 5 -6 -4 -50 -11 -98 -16 -48 -5 -118 -13 -157 -18 -38 -4 -71 -7
-73 -5 -2 1 1 12 7 23 6 11 12 37 13 58 1 57 1 570 -1 636 -1 31 2 57 6 58 4
1 28 3 52 5 24 2 51 10 60 18 23 20 38 21 410 21 l335 0 2 -41z"/>
<path d="M11280 6731 c-19 -4 -51 -15 -70 -25 -30 -15 -52 -17 -165 -11 -303
15 -346 14 -392 -8 -45 -22 -60 -44 -44 -60 7 -7 31 -7 73 2 70 14 168 14 306
1 68 -6 117 -5 188 6 53 8 100 16 104 19 4 2 63 7 131 10 68 3 125 9 127 14 2
6 -7 20 -19 32 -16 16 -29 20 -55 16 -18 -3 -36 -1 -39 4 -7 10 -92 10 -145 0z"/>
<path d="M11325 6484 c-69 -15 -326 -21 -347 -8 -5 3 -58 5 -118 5 -115 -2
-207 -21 -217 -47 -11 -29 11 -35 68 -20 68 17 344 12 392 -7 37 -16 164 -12
184 5 8 6 55 9 125 7 l113 -4 3 31 c3 31 2 32 -45 39 -26 3 -57 8 -68 10 -11
2 -51 -3 -90 -11z"/>
<path d="M11160 6269 c-25 -11 -450 -30 -481 -22 -18 5 -49 -21 -49 -42 0 -19
34 -28 78 -20 41 7 390 18 605 19 118 1 137 3 137 17 0 9 -9 24 -21 35 -18 16
-39 19 -133 21 -62 2 -122 -2 -136 -8z"/>
<path d="M11060 6053 c-30 -9 -68 -16 -85 -16 -16 0 -106 1 -199 2 -178 2
-205 -4 -173 -37 15 -14 38 -17 140 -18 67 0 148 -5 179 -11 51 -8 66 -7 130
15 65 21 84 23 173 18 55 -3 120 -8 145 -12 55 -7 53 -7 68 -5 16 1 15 13 -1
35 -31 42 -269 60 -377 29z"/>
<path d="M10611 5839 c-12 -20 -11 -24 5 -36 10 -7 39 -13 64 -13 26 0 61 -5
78 -11 20 -7 37 -7 48 -1 10 6 33 5 61 0 25 -6 65 -7 89 -3 38 5 44 10 44 30
0 12 -8 26 -17 30 -10 4 -85 8 -168 9 -82 1 -159 6 -170 10 -15 5 -24 1 -34
-15z"/>
<path d="M11145 5661 c-72 -25 -83 -33 -128 -87 -84 -102 -86 -114 -61 -269 8
-49 56 -110 97 -124 37 -13 84 -14 91 -2 3 5 41 7 84 4 63 -4 85 -1 122 15
112 50 156 142 120 248 -38 109 -97 192 -160 224 -50 25 -68 24 -165 -9z m160
-69 c46 -31 105 -140 113 -210 4 -39 1 -47 -28 -77 -44 -46 -116 -69 -186 -61
-31 4 -55 2 -59 -4 -3 -5 -20 -10 -36 -10 -59 0 -99 70 -99 176 0 38 7 61 29
96 32 51 58 70 111 86 19 6 49 15 65 20 44 14 46 14 90 -16z"/>
<path d="M9724 5630 c-116 -48 -163 -95 -194 -194 -23 -71 -22 -149 2 -202 16
-34 95 -92 142 -105 34 -9 42 -8 52 6 12 16 14 16 36 1 12 -9 35 -16 49 -16
64 0 206 86 236 143 32 63 -2 215 -67 296 -72 89 -156 113 -256 71z m176 -80
c64 -46 98 -108 101 -183 2 -55 0 -60 -37 -99 -63 -65 -188 -112 -209 -78 -9
15 -25 12 -25 -5 0 -19 0 -19 -52 4 -57 25 -108 83 -108 124 1 122 64 212 177
253 46 17 117 9 153 -16z"/>
<path d="M10350 5608 c-74 -38 -88 -49 -108 -88 -15 -31 -20 -54 -16 -76 3
-18 1 -35 -5 -38 -22 -14 -6 -100 35 -177 17 -33 111 -85 171 -94 57 -9 156
18 203 55 68 54 117 193 96 274 -9 36 -63 93 -131 140 -85 59 -135 60 -245 4z
m223 -72 c92 -59 114 -99 96 -174 -15 -61 -87 -138 -143 -153 -52 -14 -141 -3
-188 24 -49 27 -62 67 -55 169 5 72 8 81 39 110 46 45 74 56 141 57 50 1 66
-4 110 -33z"/>
<path d="M8243 7718 c-7 -56 -6 -80 4 -100 8 -16 17 -28 21 -28 4 0 13 28 19
63 9 48 10 72 1 100 -18 59 -35 46 -45 -35z"/>
<path d="M2567 7704 c-2 -2 -50 -6 -108 -9 -57 -3 -151 -8 -209 -11 -58 -3
-123 -5 -145 -5 -22 1 -228 3 -458 5 l-419 3 -28 -38 c-15 -21 -54 -61 -87
-89 -32 -27 -69 -64 -82 -80 -12 -17 -49 -51 -82 -75 -51 -37 -64 -43 -85 -35
-30 12 -69 -2 -84 -29 -8 -17 -6 -23 13 -36 27 -17 60 -108 63 -175 2 -63 12
-187 24 -305 14 -139 21 -314 20 -490 -2 -384 -1 -474 4 -667 3 -114 10 -237
16 -275 7 -37 14 -214 16 -393 3 -179 8 -442 12 -585 4 -143 4 -264 1 -270 -4
-5 -10 -62 -14 -125 l-7 -115 34 -12 c42 -16 462 -19 528 -4 25 5 110 14 190
21 80 6 206 20 280 32 110 16 204 26 295 29 6 1 89 -2 185 -6 340 -12 584 -14
602 -4 26 14 356 41 473 39 54 -1 124 -6 154 -11 29 -4 57 -6 61 -4 17 11 24
120 20 325 -5 258 -5 429 -1 490 7 100 3 1008 -5 1205 -3 66 -11 167 -19 225
-26 192 -27 225 -30 807 -1 318 -6 586 -10 595 -13 33 -72 43 -255 43 -102 0
-204 6 -245 14 -62 11 -608 25 -618 15z m747 -103 c55 -7 102 -13 105 -13 3
-1 33 1 66 5 33 4 78 3 100 -1 l40 -7 -3 -65 c-2 -36 -3 -72 -3 -80 1 -8 3
-231 5 -495 2 -264 7 -502 10 -530 3 -27 8 -72 12 -100 20 -164 32 -306 34
-420 3 -204 5 -788 3 -1155 0 -184 -1 -406 -1 -494 0 -87 -4 -162 -9 -167 -6
-6 -63 -5 -146 1 -88 7 -161 7 -204 1 -255 -36 -386 -40 -958 -33 -132 2 -258
1 -280 -2 -22 -3 -78 -10 -125 -16 -47 -6 -98 -15 -114 -20 -15 -5 -32 -7 -36
-5 -5 3 -62 -1 -127 -9 -255 -31 -384 -39 -528 -33 -81 3 -149 7 -150 9 -2 2
0 48 5 103 8 98 6 356 -10 1198 -1 70 -6 144 -10 165 -5 20 -11 109 -14 197
-4 88 -9 212 -13 275 -3 63 -6 135 -5 160 4 249 1 513 -8 640 -6 85 -13 188
-16 228 -2 41 -7 78 -10 84 -8 13 -15 218 -8 218 3 0 18 -8 32 -19 15 -10 50
-26 77 -36 28 -9 59 -21 70 -25 89 -37 315 -101 327 -94 13 8 -4 67 -48 161
-41 88 -80 199 -108 305 -10 37 -10 50 -1 58 7 6 152 7 391 4 208 -4 406 -7
439 -7 61 -1 527 22 531 26 8 8 608 -3 688 -12z m-2080 -202 c21 -61 51 -141
67 -176 16 -36 28 -67 26 -69 -6 -6 -178 56 -229 82 -14 8 -32 14 -39 14 -25
0 -99 42 -99 56 0 8 4 14 8 14 4 0 52 43 106 95 54 52 104 95 111 95 6 0 29
-50 49 -111z"/>
<path d="M3177 7483 c-7 -6 -384 -24 -442 -21 -55 3 -241 -2 -530 -15 -316
-14 -454 -10 -560 13 -27 6 -80 13 -117 17 -74 6 -68 12 -82 -74 -7 -41 11
-53 34 -23 14 19 23 22 51 16 19 -4 111 -13 204 -21 157 -13 332 -13 505 0 72
6 272 14 480 20 74 2 221 7 325 11 237 9 310 9 359 0 31 -6 37 -11 33 -27 -3
-10 1 -40 9 -66 13 -41 17 -106 13 -190 -6 -144 2 -302 20 -385 5 -20 6 -76 3
-125 -3 -48 -4 -117 -4 -153 1 -36 4 -135 6 -220 3 -85 4 -252 4 -370 0 -118
-1 -235 -1 -260 1 -74 13 -246 21 -292 9 -50 7 -462 -2 -606 -3 -53 -3 -119 2
-147 10 -59 -1 -282 -14 -294 -5 -5 -26 -12 -46 -15 -56 -10 -52 -23 -76 300
-4 50 -12 97 -19 105 -12 15 -90 10 -303 -21 -253 -37 -337 -41 -970 -46 -631
-5 -673 -6 -693 -23 -12 -9 -16 -31 -16 -82 0 -38 5 -71 10 -74 5 -4 9 -54 9
-111 l0 -106 -95 4 -95 3 0 260 c-1 275 -6 410 -20 537 -5 43 -7 84 -4 92 3 8
2 21 -2 28 -5 7 -7 40 -6 73 1 33 -2 105 -8 160 -6 55 -10 105 -10 110 0 6 3
138 6 295 4 157 7 301 7 320 2 50 -12 336 -23 465 -5 61 -12 184 -15 275 -8
192 -17 240 -45 240 -26 0 -29 -48 -15 -280 4 -63 7 -124 7 -135 0 -11 4 -58
9 -105 12 -103 19 -303 18 -505 -1 -82 -1 -163 -1 -180 0 -16 0 -48 0 -70 -4
-215 8 -572 26 -785 15 -184 21 -370 25 -807 1 -96 2 -103 21 -103 11 0 20 5
20 10 0 23 58 29 301 31 139 1 294 6 343 10 83 8 321 15 776 23 144 3 383 12
475 19 11 1 64 -2 117 -6 54 -5 102 -5 108 -2 5 3 45 8 87 10 142 9 135 6 148
46 14 38 31 217 27 284 -1 22 -1 117 0 210 4 336 0 603 -8 617 -14 22 -33
1073 -24 1283 2 65 -8 204 -17 218 -3 5 -7 120 -9 256 -4 264 -6 291 -27 306
-8 6 -17 19 -20 30 -11 33 -63 48 -177 52 -58 2 -110 0 -113 -4z m129 -2940
c4 -27 8 -97 8 -156 1 -79 5 -110 15 -116 31 -19 4 -21 -264 -19 -27 0 -119
-3 -203 -6 -188 -8 -399 -14 -772 -21 -156 -3 -311 -9 -345 -14 -33 -5 -114
-8 -180 -7 l-119 1 -2 45 c0 25 -4 93 -8 151 -5 67 -4 109 2 113 5 3 79 6 163
5 180 0 477 -1 704 -1 88 0 183 1 210 2 50 2 62 2 183 1 78 0 426 50 440 64 3
3 40 5 83 5 l77 0 8 -47z"/>
<path d="M3107 7304 c-8 -7 -315 -18 -377 -15 -96 6 -396 -9 -503 -25 -124
-18 -208 -21 -400 -11 -156 8 -292 -4 -316 -27 -15 -16 -15 -18 2 -31 14 -10
46 -12 130 -9 145 7 125 7 257 -5 113 -11 262 -3 350 19 51 12 208 20 515 25
149 2 315 7 370 11 118 8 129 1 128 -74 0 -26 5 -53 11 -61 6 -7 11 -62 12
-125 1 -62 6 -121 12 -133 6 -11 9 -29 6 -40 -3 -12 -1 -31 6 -42 6 -12 12
-44 12 -72 1 -27 5 -52 10 -55 12 -8 10 -58 -4 -76 -10 -13 -23 -15 -58 -10
-39 6 -359 7 -430 2 -53 -4 -777 9 -810 15 -19 3 -174 7 -345 8 -170 1 -315 5
-322 10 -14 9 -21 68 -28 247 -8 187 -25 252 -55 215 -11 -13 -11 -32 -2 -98
7 -45 11 -111 11 -147 -1 -36 0 -121 2 -190 5 -142 -8 -130 109 -111 60 9 508
6 620 -4 43 -4 495 -17 552 -15 15 0 101 2 190 5 283 8 491 8 549 0 51 -7 58
-5 68 12 12 24 -2 231 -19 262 -10 19 -14 81 -29 388 -3 73 -10 136 -16 142
-8 7 -200 21 -208 15z"/>
<path d="M3190 6370 c-41 -11 -93 -19 -115 -20 -22 0 -56 -4 -75 -9 -19 -5
-59 -12 -89 -15 -61 -7 -99 -39 -78 -65 16 -18 46 -172 46 -237 1 -27 7 -56
13 -62 9 -9 10 -17 1 -30 -11 -18 -8 -210 6 -350 2 -23 55 -34 186 -38 72 -2
164 -8 205 -13 42 -5 79 -5 84 0 6 6 3 35 -8 79 -14 52 -17 88 -12 138 8 82 8
444 1 492 -9 56 -27 124 -38 138 -12 16 -37 14 -127 -8z m95 -102 c4 -24 9
-52 11 -63 6 -30 2 -509 -5 -592 -1 -13 -108 -23 -131 -12 -9 4 -51 10 -95 12
-44 3 -88 8 -97 12 -18 7 -33 39 -25 52 10 18 -12 414 -28 486 -9 42 -13 82
-10 87 3 6 27 10 53 10 26 0 74 7 107 15 33 8 78 15 100 15 22 0 47 5 55 10 8
5 25 10 37 10 17 0 23 -8 28 -42z"/>
<path d="M1500 6329 c-25 -6 -73 -13 -107 -16 -52 -4 -63 -8 -69 -26 -13 -36
-13 -47 -4 -106 5 -31 11 -100 14 -153 2 -54 9 -104 13 -113 6 -9 5 -43 0 -81
-6 -41 -6 -74 0 -87 5 -12 6 -60 3 -107 -5 -81 0 -154 14 -167 3 -3 14 1 23 9
14 12 49 15 153 17 117 1 214 11 400 39 42 7 45 9 43 37 -14 274 -25 528 -24
600 1 50 -3 104 -7 120 l-9 30 -89 0 c-49 1 -138 4 -199 7 -65 4 -128 3 -155
-3z m225 -65 c28 -4 64 -6 82 -5 18 1 46 -6 63 -15 29 -18 30 -20 32 -104 1
-47 3 -98 4 -115 3 -27 7 -121 16 -349 l3 -70 -70 -17 c-39 -10 -77 -16 -86
-13 -9 3 -36 0 -60 -5 -24 -5 -102 -11 -174 -12 l-130 -2 -1 139 c-1 76 -7
184 -13 239 -7 55 -15 146 -18 201 l-5 102 43 7 c41 6 117 19 164 29 21 4 69
1 150 -10z"/>
<path d="M2588 6334 c-3 -3 -88 -7 -189 -10 -242 -5 -300 -11 -316 -32 -14
-19 -17 -74 -5 -86 9 -10 10 -23 16 -170 3 -66 1 -160 -3 -210 -5 -55 -5 -101
1 -118 7 -19 6 -39 -2 -63 -9 -28 -9 -43 0 -66 14 -33 14 -33 135 -16 102 15
280 14 405 -2 57 -7 87 -8 94 -1 25 25 -8 591 -41 714 -17 66 -17 66 -53 66
-20 0 -39 -3 -42 -6z m32 -83 c29 -56 49 -241 55 -514 l2 -119 -31 6 c-17 3
-106 6 -196 7 -150 0 -213 -4 -277 -17 -23 -4 -23 -4 -23 126 0 107 -16 447
-23 484 -3 17 67 26 242 30 95 3 175 7 177 9 13 12 65 4 74 -12z"/>
<path d="M3114 5400 c-42 -9 -116 -41 -145 -63 -8 -7 -32 -37 -52 -67 -33 -49
-37 -62 -37 -118 0 -92 41 -212 86 -251 19 -17 40 -32 47 -32 7 -1 66 -3 131
-5 160 -4 208 16 247 101 33 72 18 240 -30 333 -21 39 -73 86 -116 102 -30 11
-72 11 -131 0z m129 -81 c24 -13 56 -49 57 -63 0 -5 6 -17 14 -25 16 -19 37
-164 29 -206 -7 -39 -19 -52 -67 -77 -35 -18 -53 -20 -137 -15 -53 3 -106 10
-116 16 -27 14 -52 69 -69 148 -11 55 -11 71 1 105 15 44 32 59 109 100 56 30
140 37 179 17z"/>
<path d="M2365 5383 c-100 -26 -158 -56 -203 -108 -40 -45 -52 -87 -55 -186
-3 -109 24 -201 68 -234 42 -32 91 -55 99 -48 3 4 16 1 29 -5 36 -18 119 -28
171 -21 88 14 190 104 227 201 32 86 21 166 -34 249 -23 33 -55 72 -72 85 -66
50 -174 82 -230 67z m174 -107 c46 -32 94 -102 110 -160 16 -60 -2 -122 -51
-180 -76 -89 -193 -120 -281 -74 -23 12 -55 24 -72 27 -63 13 -104 173 -69
271 20 55 39 77 99 111 85 48 199 50 264 5z"/>
<path d="M1604 5372 c-85 -12 -170 -86 -178 -157 -1 -5 -5 -24 -9 -41 -4 -17
-4 -49 2 -72 5 -25 5 -44 0 -48 -10 -6 -2 -52 12 -70 5 -6 6 -13 3 -16 -11
-11 39 -93 79 -131 22 -21 53 -41 69 -44 19 -4 33 -16 44 -39 13 -27 23 -34
48 -36 115 -7 174 27 271 157 l38 50 -6 80 c-4 61 -12 93 -34 135 -46 89 -102
168 -144 201 -43 34 -101 43 -195 31z m124 -68 c40 -5 47 -10 95 -78 58 -80
87 -131 87 -152 0 -8 5 -23 12 -34 20 -31 -6 -106 -55 -161 -41 -47 -151 -114
-168 -103 -5 3 -4 14 1 25 15 28 4 39 -37 39 -73 0 -157 83 -179 179 -36 153
-1 241 109 273 56 16 78 18 135 12z"/>
<path d="M5460 7679 c0 -23 -6 -30 -27 -35 -14 -4 -63 -31 -107 -61 -113 -76
-195 -117 -232 -114 -41 2 -63 -22 -45 -51 10 -17 10 -22 0 -29 -10 -6 -10
-11 0 -22 6 -8 13 -44 15 -79 2 -34 11 -126 19 -203 25 -224 37 -501 23 -524
-4 -6 -4 -51 0 -99 3 -48 8 -218 9 -378 1 -160 5 -296 9 -303 4 -6 4 -17 -1
-23 -9 -14 -9 -23 -11 -168 -1 -52 -1 -106 -2 -120 0 -14 -3 -83 -7 -155 -8
-130 -9 -407 -3 -520 2 -33 3 -85 2 -115 -1 -30 -1 -64 -1 -75 0 -11 -4 -150
-9 -310 -9 -283 -9 -290 11 -308 18 -15 37 -17 181 -13 199 6 346 16 366 24 8
3 40 6 70 7 86 3 349 15 530 24 199 10 512 6 666 -9 62 -5 187 -9 276 -8 90 1
252 2 360 1 l198 0 -1 96 c-1 53 -1 161 -1 241 0 80 -2 188 -4 240 -7 147 -14
519 -13 680 1 142 3 183 14 305 5 62 10 136 20 310 3 55 9 111 12 125 3 14 7
41 8 60 1 19 8 62 14 95 20 96 24 538 7 669 -28 211 -38 358 -40 582 -1 161
-3 175 -22 194 -27 27 -115 42 -172 28 -30 -8 -59 -7 -100 1 -32 6 -186 14
-343 17 -156 2 -311 6 -344 9 -33 2 -129 -2 -214 -8 -122 -8 -176 -8 -260 3
-58 8 -126 15 -151 16 -25 1 -130 8 -235 15 -104 7 -252 13 -327 15 l-138 2 0
-29z m225 -59 c61 -1 130 -6 155 -11 25 -4 99 -11 165 -14 66 -4 145 -8 175
-9 30 -2 82 -8 115 -15 40 -7 132 -9 280 -4 121 3 267 5 325 3 58 -1 200 -3
315 -5 116 -1 217 -5 225 -8 34 -12 159 -16 190 -6 62 22 65 6 75 -370 3 -91
9 -179 14 -195 41 -134 34 -795 -10 -996 -6 -25 -12 -85 -14 -135 -2 -49 -10
-157 -17 -240 -14 -158 -16 -555 -8 -1159 l5 -358 -255 0 c-382 -1 -476 1
-580 12 -115 12 -443 15 -635 6 -427 -20 -427 -20 -670 -46 -213 -23 -351 -26
-372 -8 -7 6 -11 18 -8 27 3 9 7 325 10 701 3 377 8 789 12 915 7 253 6 539
-2 655 -3 41 -8 188 -10 325 -3 138 -10 286 -16 330 -6 44 -12 137 -15 208 -4
105 -2 127 10 127 7 0 19 -6 25 -14 6 -8 26 -20 44 -27 18 -7 42 -20 54 -30
13 -9 44 -20 70 -24 27 -3 66 -17 88 -29 38 -22 100 -36 175 -39 35 -2 35 -2
32 38 -2 22 -7 45 -12 50 -19 25 -82 237 -87 294 -6 64 -6 64 18 58 13 -3 74
-7 134 -7z m-221 -57 c3 -10 8 -36 12 -58 6 -36 22 -86 44 -140 19 -45 28 -85
22 -89 -4 -2 -25 2 -47 9 -22 7 -76 24 -120 38 -75 23 -165 71 -165 88 0 4 15
19 33 33 17 15 37 31 44 36 7 6 16 10 21 10 5 0 15 6 21 14 7 8 25 17 40 21
16 3 39 17 51 31 28 29 37 30 44 7z"/>
<path d="M6605 7479 c-66 -4 -169 -10 -230 -13 -185 -11 -457 -12 -515 -2 -30
5 -77 10 -105 10 -47 1 -50 -1 -50 -24 0 -28 1 -28 185 -49 92 -10 594 -4 820
11 27 2 193 -13 255 -22 33 -5 101 -10 150 -11 129 -2 148 -3 172 -17 15 -8
45 -9 105 -4 45 5 91 7 100 4 21 -5 25 -28 34 -192 3 -69 9 -146 13 -172 5
-26 4 -51 0 -55 -11 -12 -11 -182 0 -298 14 -138 18 -616 7 -875 -5 -118 -10
-312 -11 -430 -2 -118 -8 -254 -14 -301 -6 -48 -10 -97 -9 -110 2 -26 -18
-168 -33 -236 -11 -53 -12 -148 0 -193 5 -19 11 -68 14 -107 6 -69 5 -73 -16
-78 -60 -14 -368 -6 -612 16 -61 5 -222 12 -360 15 -137 3 -256 7 -262 9 -8 3
-13 21 -13 44 0 79 -8 87 -102 97 -138 14 -307 8 -409 -15 -25 -6 -67 -10 -93
-9 -26 0 -49 -2 -52 -5 -3 -3 -7 -34 -8 -69 -2 -34 -4 -70 -5 -79 -1 -14 -19
-18 -98 -25 -87 -7 -123 -7 -130 0 -6 5 -14 180 -15 311 -2 212 21 722 51
1153 9 124 8 236 -3 562 -11 315 -15 393 -32 520 -8 69 -19 162 -22 207 -6 65
-11 85 -27 97 -11 9 -23 16 -27 16 -14 0 -9 -107 7 -167 9 -32 16 -83 16 -113
0 -30 5 -75 10 -100 6 -25 13 -124 15 -220 3 -96 9 -190 14 -207 5 -18 5 -35
0 -38 -11 -7 -7 -176 5 -194 9 -16 9 -156 0 -172 -6 -9 -13 -115 -20 -334 -10
-299 -14 -377 -20 -396 -4 -11 -9 -123 -12 -247 -7 -320 -8 -350 -16 -358 -3
-4 -1 -16 4 -27 7 -12 11 -93 11 -208 0 -177 1 -189 19 -189 10 0 22 6 26 14
10 17 103 27 303 32 200 5 287 10 380 24 133 19 654 21 840 4 91 -8 285 -18
431 -21 221 -5 268 -3 275 8 12 19 8 190 -6 268 -8 45 -8 83 -1 130 10 67 22
178 40 371 11 112 26 825 26 1205 0 127 -6 289 -13 360 -7 72 -13 222 -13 335
0 113 -4 267 -8 342 -9 182 -3 177 -169 177 -124 1 -276 10 -497 31 -171 17
-173 17 -300 9z m-499 -3050 c60 2 79 -14 70 -56 l-7 -28 -157 -18 c-86 -10
-211 -19 -277 -20 l-120 -2 -3 46 -3 46 101 12 c55 6 120 11 143 12 23 0 51 5
62 10 11 5 47 6 80 3 33 -4 83 -6 111 -5z"/>
<path d="M5725 7293 c-18 -18 -19 -37 -2 -51 17 -14 350 -30 417 -19 57 8 117
7 455 -15 110 -6 218 -12 240 -11 22 0 130 0 240 0 110 0 217 0 237 0 l37 1
-2 -129 -2 -129 -480 -5 c-456 -4 -622 2 -665 25 -22 12 -244 20 -261 9 -8 -4
-19 -3 -26 3 -9 7 -89 13 -211 15 -242 5 -242 5 -242 43 0 44 -17 80 -38 80
-18 0 -19 -8 -18 -90 1 -81 3 -90 23 -101 12 -7 36 -9 57 -5 53 10 329 5 386
-7 19 -5 91 -10 160 -12 133 -4 196 -10 246 -24 28 -8 210 -8 877 0 197 2 229
4 236 18 14 27 24 336 12 359 -11 21 -18 21 -309 21 -163 -1 -434 7 -602 16
-227 12 -314 14 -341 6 -45 -14 -178 -14 -267 -1 -129 18 -142 18 -157 3z"/>
<path d="M6955 6759 c-39 -4 -97 -16 -130 -25 -56 -16 -145 -24 -405 -40 -130
-8 -189 -34 -160 -69 12 -14 73 -14 200 1 19 3 89 8 155 13 66 4 145 13 175
20 138 29 208 36 310 30 58 -3 110 -7 115 -9 6 -1 38 -2 73 -1 55 1 62 3 62
21 0 24 -31 41 -95 53 -74 12 -221 16 -300 6z"/>
<path d="M5904 6728 c-16 -5 -106 -8 -201 -8 -166 0 -173 -1 -184 -22 -8 -16
-8 -30 1 -58 10 -29 9 -45 -2 -81 -9 -27 -13 -75 -11 -124 4 -101 18 -263 24
-269 7 -7 237 -28 334 -31 50 -1 141 -6 202 -10 129 -9 135 -5 113 67 -6 23
-14 71 -16 107 -2 36 -6 90 -10 119 -3 30 -5 109 -5 177 0 86 -3 126 -12 133
-14 12 -190 12 -233 0z m190 -57 c3 -5 8 -69 12 -142 6 -139 8 -166 19 -258 3
-30 6 -57 7 -60 3 -30 -3 -33 -54 -27 -29 4 -113 7 -186 7 -79 1 -154 7 -185
15 -29 8 -68 14 -89 14 l-36 0 -6 73 c-9 100 -11 167 -8 270 3 110 11 117 123
94 81 -16 161 -14 260 7 75 17 136 20 143 7z"/>
<path d="M6906 6500 c-38 -5 -80 -13 -95 -19 -42 -16 -130 -31 -212 -37 -59
-5 -82 -2 -100 9 -60 39 -229 29 -229 -14 0 -15 5 -19 18 -15 99 28 157 30
206 4 11 -6 53 -14 93 -19 60 -7 92 -4 171 13 60 13 137 21 202 22 l105 1 0
30 c0 29 -2 30 -45 31 -25 1 -76 -2 -114 -6z"/>
<path d="M6343 6273 c-33 -4 -51 -29 -34 -46 7 -7 33 -6 80 3 53 10 87 10 147
2 131 -18 326 -24 398 -11 36 6 66 14 66 18 -1 32 -17 34 -321 35 -167 1 -318
1 -336 -1z"/>
<path d="M6315 5880 c-36 -14 -48 -35 -34 -59 12 -18 25 -20 133 -22 194 -5
386 -4 616 0 183 4 223 2 270 -12 32 -10 67 -15 86 -11 50 9 58 54 10 54 -13
0 -43 7 -67 16 -36 13 -84 16 -269 15 -433 -2 -476 -1 -590 14 -130 17 -128
17 -155 5z"/>
<path d="M6062 5860 c-12 -5 -133 -12 -268 -14 -136 -3 -249 -8 -253 -11 -3
-4 -4 -34 -2 -68 8 -121 5 -203 -8 -289 -12 -76 -17 -87 -37 -92 -25 -7 -41
-43 -26 -58 7 -7 29 -7 66 -1 74 13 279 7 404 -12 107 -16 195 -18 225 -7 15
7 18 31 24 227 9 307 9 313 2 320 -11 11 -104 15 -127 5z m83 -66 c8 -9 13
-24 11 -33 -15 -50 -27 -155 -20 -179 4 -15 6 -31 5 -37 -1 -5 -3 -46 -3 -91
l-1 -81 -42 -10 c-33 -7 -65 -5 -136 9 -59 12 -149 20 -241 21 -81 2 -149 5
-152 8 -2 2 2 40 11 84 10 55 12 111 8 182 -6 98 -5 101 16 108 12 4 116 8
233 10 116 2 222 8 236 13 36 15 56 14 75 -4z"/>
<path d="M6375 5674 c-63 -9 -75 -15 -75 -33 0 -17 8 -18 104 -14 81 3 120 0
168 -13 91 -26 171 -22 268 14 18 7 30 9 53 11 9 0 17 6 17 11 0 13 -84 13
-130 0 -59 -15 -152 -19 -174 -7 -33 18 -182 38 -231 31z"/>
<path d="M6360 5457 c-25 -5 -40 -13 -37 -20 2 -8 36 -12 103 -13 54 0 174 -4
267 -9 124 -6 167 -5 167 4 0 6 -6 12 -12 13 -7 0 -26 2 -43 4 -16 1 -73 8
-125 14 -119 14 -265 18 -320 7z"/>
<path d="M5604 5098 c-49 -12 -71 -46 -53 -79 6 -11 8 -27 5 -35 -3 -9 -11
-68 -17 -132 -6 -64 -15 -121 -20 -126 -26 -27 9 -74 45 -60 9 3 39 0 68 -7
29 -7 73 -14 98 -16 230 -11 340 -21 395 -33 22 -5 59 -10 83 -10 48 0 50 7
33 97 -6 26 -12 95 -15 153 -8 149 -17 222 -28 244 -9 17 -17 18 -102 10 -96
-9 -163 -10 -341 -1 -60 2 -129 0 -151 -5z m563 -103 c2 -27 4 -76 3 -108 0
-32 4 -66 9 -75 6 -10 6 -23 -1 -35 -6 -12 -6 -23 2 -32 19 -23 22 -65 6 -71
-9 -3 -46 -1 -83 5 -37 7 -115 14 -173 16 -98 4 -223 17 -314 31 l-39 7 8 116
c5 64 7 130 7 148 -2 29 1 33 35 39 20 4 82 4 137 0 120 -9 211 -8 286 4 30 4
68 7 84 6 28 -1 30 -4 33 -51z"/>
<path d="M6930 5070 c-58 -5 -199 -11 -315 -15 -270 -7 -305 -14 -305 -64 0
-23 2 -23 58 -16 31 4 161 9 287 10 127 1 246 5 265 9 92 18 290 23 372 10 46
-8 89 -14 96 -14 24 0 12 29 -23 56 -34 25 -40 26 -182 29 -82 2 -195 -1 -253
-5z"/>
<path d="M6393 4822 c-28 -4 -45 -25 -37 -47 5 -11 13 -15 28 -10 11 3 50 10
86 15 36 4 72 11 81 15 10 3 35 1 58 -5 55 -14 179 -16 193 -2 6 6 8 18 5 27
-6 14 -31 15 -199 13 -106 -2 -203 -4 -215 -6z"/>
<path d="M6580 4478 c-19 -4 -79 -5 -132 -2 l-97 6 -7 -26 c-3 -15 -4 -30 0
-33 14 -14 116 -19 250 -12 77 4 223 8 324 8 164 1 194 -2 289 -25 117 -29
134 -25 117 23 -6 19 -18 29 -34 31 -14 2 -51 12 -82 22 -51 18 -85 20 -325
18 -147 -1 -284 -5 -303 -10z"/>
<path d="M4718 7539 c-24 -25 -23 -97 0 -127 29 -37 44 -9 40 74 -3 72 -12 84
-40 53z"/>
<path d="M526 7405 c-23 -60 -8 -125 29 -125 26 0 25 158 -1 167 -6 2 -19 -17
-28 -42z"/>
<path d="M12437 7357 c-12 -18 -13 -34 -6 -70 4 -26 6 -53 4 -59 -6 -19 28
-82 46 -86 12 -2 15 4 13 30 -2 18 -4 72 -5 121 -1 76 -4 87 -19 87 -10 0 -25
-10 -33 -23z"/>
<path d="M8224 7315 c-3 -8 -7 -44 -7 -81 -2 -54 1 -68 16 -78 13 -8 19 -8 26
2 9 15 13 128 5 155 -6 21 -32 23 -40 2z"/>
<path d="M4720 7176 c-6 -9 -14 -44 -16 -79 -4 -55 -2 -66 16 -82 30 -28 39
-8 37 88 -2 81 -12 102 -37 73z"/>
<path d="M535 7043 c-14 -90 -11 -145 7 -156 9 -6 21 -8 25 -3 12 12 11 190
-1 198 -20 14 -23 9 -31 -39z"/>
<path d="M12457 6973 c-11 -17 -4 -139 9 -173 7 -19 12 -44 11 -54 -3 -30 22
-30 33 0 17 43 -9 228 -32 232 -9 2 -18 -1 -21 -5z"/>
<path d="M8176 6848 c-8 -60 -1 -207 11 -219 25 -25 50 11 44 61 -1 8 -3 35
-5 60 -2 25 -7 66 -11 93 -9 60 -32 63 -39 5z"/>
<path d="M4745 6756 c-9 -13 -21 -54 -27 -91 -10 -62 -10 -68 10 -88 33 -32
43 -12 48 96 4 101 -4 124 -31 83z"/>
<path d="M536 6624 c-27 -20 -39 -124 -20 -170 15 -37 39 -45 48 -16 8 26 6
191 -2 196 -4 2 -16 -2 -26 -10z"/>
<path d="M12466 6489 c-11 -19 -15 -34 -9 -40 6 -6 6 -29 -1 -60 -12 -59 -1
-84 35 -84 24 0 24 1 24 105 0 86 -3 105 -15 108 -9 1 -24 -11 -34 -29z"/>
<path d="M4742 6371 c-15 -30 -17 -50 -12 -92 4 -30 4 -64 -1 -76 -6 -17 -3
-25 16 -37 22 -15 25 -15 33 2 5 9 10 65 11 123 1 87 -2 108 -14 113 -10 4
-21 -7 -33 -33z"/>
<path d="M8161 6376 c-17 -42 -31 -138 -25 -162 7 -29 35 -31 51 -5 13 21 20
162 9 180 -11 18 -26 13 -35 -13z"/>
<path d="M562 6143 c-19 -29 -21 -43 -16 -84 8 -57 25 -85 47 -76 14 5 15 19
10 94 -3 48 -8 91 -12 95 -3 3 -16 -10 -29 -29z"/>
<path d="M4467 6104 c-9 -9 3 -135 15 -158 12 -21 12 -76 0 -87 -4 -4 -106 -4
-227 0 -201 7 -222 6 -239 -10 -18 -17 -18 -17 5 -30 15 -8 91 -16 204 -21
223 -11 265 -14 273 -23 4 -4 7 -55 7 -113 l0 -107 28 -3 c28 -3 97 49 196
149 26 25 58 54 74 64 15 9 27 26 27 36 0 34 -116 159 -202 218 -138 95 -146
99 -161 85z"/>
<path d="M8500 5986 c0 -87 -4 -127 -12 -134 -12 -9 -90 -10 -348 -1 -78 3
-85 2 -88 -16 -1 -13 9 -27 30 -41 30 -18 51 -21 203 -23 233 -3 218 3 212
-90 -8 -100 2 -146 30 -146 13 0 59 32 110 76 48 41 116 90 151 109 56 29 62
36 62 64 0 57 -273 326 -331 326 -18 0 -19 -9 -19 -124z"/>
<path d="M12479 6034 c-21 -26 -10 -160 16 -200 33 -51 51 -13 36 73 -6 31
-11 76 -11 100 0 46 -16 57 -41 27z"/>
<path d="M587 5758 c-26 -21 -36 -62 -32 -133 5 -70 19 -94 58 -95 13 0 17 8
17 38 0 70 -13 202 -20 202 -3 0 -14 -6 -23 -12z"/>
<path d="M12477 5663 c-4 -3 -7 -21 -7 -39 0 -18 -4 -36 -10 -39 -5 -3 -10
-28 -10 -54 0 -41 4 -51 26 -66 14 -9 28 -14 32 -11 3 3 7 53 8 111 3 95 1
105 -15 105 -10 0 -21 -3 -24 -7z"/>
<path d="M8164 5628 c-4 -13 -7 -74 -7 -136 -1 -115 7 -140 37 -129 13 5 16
25 15 119 -1 119 -7 159 -26 165 -6 2 -15 -6 -19 -19z"/>
<path d="M4724 5368 c-7 -11 -7 -28 1 -118 1 -14 3 -34 3 -46 2 -20 44 -48 56
-37 8 8 8 74 0 152 -6 55 -9 61 -30 61 -12 0 -26 -5 -30 -12z"/>
<path d="M592 5287 c-7 -8 -8 -17 -4 -21 4 -4 10 -45 13 -92 6 -90 12 -106 33
-83 12 12 12 29 2 102 -13 92 -25 118 -44 94z"/>
<path d="M12478 5193 c-16 -19 -33 -183 -19 -183 4 0 13 -11 19 -25 9 -20 16
-24 28 -17 12 7 16 28 18 98 3 128 -11 167 -46 127z"/>
<path d="M8186 5158 c-3 -7 -9 -28 -15 -47 -16 -50 -14 -136 4 -151 8 -7 22
-10 30 -6 12 4 15 24 15 95 0 49 -3 96 -6 105 -7 19 -23 21 -28 4z"/>
<path d="M4749 5023 c-8 -9 -12 -26 -10 -37 2 -12 6 -50 10 -86 6 -61 8 -65
30 -65 27 0 27 1 16 146 -4 59 -20 74 -46 42z"/>
<path d="M630 4845 c-19 -44 -19 -52 -7 -89 10 -29 19 -41 33 -41 14 0 18 6
17 25 -2 14 -4 51 -6 82 -2 31 -6 60 -10 64 -3 4 -16 -15 -27 -41z"/>
<path d="M8181 4738 c-17 -44 -31 -119 -31 -163 0 -33 5 -47 19 -54 27 -15 32
4 38 125 4 69 2 103 -6 108 -6 4 -15 -3 -20 -16z"/>
<path d="M12451 4716 c-8 -10 -11 -42 -7 -98 6 -108 17 -137 54 -138 9 0 12
28 12 109 0 60 -3 116 -6 125 -8 20 -38 21 -53 2z"/>
<path d="M4770 4635 c-12 -14 -19 -41 -36 -130 -4 -23 -1 -33 15 -42 33 -20
51 -6 51 41 0 22 5 59 10 81 12 54 -12 84 -40 50z"/>
<path d="M619 4508 c-1 -2 -2 -14 -4 -28 -1 -14 -5 -54 -9 -90 -5 -49 -4 -70
7 -84 20 -27 52 -14 42 17 -4 12 -6 59 -5 105 1 68 -1 82 -14 82 -9 0 -17 -1
-17 -2z"/>
<path d="M8174 4298 c-4 -13 -9 -27 -10 -33 -1 -5 -7 -30 -12 -54 -11 -48 -2
-81 22 -81 21 0 26 23 26 111 0 77 -11 101 -26 57z"/>
<path d="M12424 4234 c-17 -69 -5 -184 19 -184 29 0 37 25 37 117 0 92 0 93
-25 93 -18 0 -26 -7 -31 -26z"/>
<path d="M4771 4221 c-23 -23 -27 -64 -11 -105 7 -18 6 -34 -2 -52 -11 -23 -9
-28 12 -45 14 -10 29 -17 35 -16 5 2 10 50 10 111 0 119 -9 142 -44 107z"/>
<path d="M616 4019 c-23 -56 -13 -141 16 -137 18 3 20 13 23 91 4 99 -11 116
-39 46z"/>
<path d="M8181 3838 c-13 -40 -28 -85 -34 -101 -9 -22 -8 -30 6 -44 25 -25 42
-3 62 76 32 131 3 190 -34 69z"/>
<path d="M12490 3872 c-30 -11 -39 -37 -38 -117 0 -84 13 -115 48 -115 22 0
28 16 21 55 -4 16 -3 59 0 95 6 68 -3 92 -31 82z"/>
<path d="M4780 3728 c-25 -56 -26 -129 -2 -151 30 -28 42 -20 43 26 0 23 2 51
3 62 12 83 11 100 -7 103 -12 3 -23 -9 -37 -40z"/>
<path d="M645 3651 c-3 -11 -3 -50 0 -88 6 -68 24 -103 52 -103 24 0 24 24 -2
74 -15 30 -25 66 -25 93 0 44 -14 58 -25 24z"/>
<path d="M7597 3568 c-10 -35 9 -56 63 -67 64 -14 106 -14 131 -1 30 16 23 28
-22 35 -22 4 -67 18 -100 31 -32 13 -60 24 -63 24 -2 0 -6 -10 -9 -22z"/>
<path d="M7962 3544 c-8 -6 -12 -19 -10 -30 3 -16 13 -19 73 -21 61 -1 74 2
103 23 17 14 32 29 32 34 0 13 -179 8 -198 -6z"/>
<path d="M7190 3510 c-20 -38 11 -50 117 -47 80 2 94 6 111 25 10 12 22 19 26
15 3 -3 6 -1 6 6 0 9 -22 11 -82 9 -46 -2 -102 1 -125 5 -37 8 -43 6 -53 -13z"/>
<path d="M6717 3495 c-30 -30 -22 -41 37 -51 31 -4 129 6 196 21 8 2 22 4 30
4 9 1 11 4 4 11 -6 6 -37 12 -70 15 -32 2 -86 7 -120 11 -49 5 -64 3 -77 -11z"/>
<path d="M5503 3485 c-30 -21 -29 -33 5 -46 41 -16 212 -21 212 -6 -1 32 -39
48 -145 62 -37 4 -56 2 -72 -10z"/>
<path d="M6227 3479 c-20 -16 -20 -19 -7 -33 20 -20 165 -33 185 -16 9 8 20 8
32 2 20 -11 73 -5 73 9 0 14 -19 21 -68 23 -26 2 -54 5 -62 9 -8 3 -41 10 -73
15 -50 8 -61 7 -80 -9z"/>
<path d="M12467 3482 c-11 -12 -17 -40 -18 -87 -3 -81 14 -128 49 -133 22 -3
22 -2 17 85 -10 157 -15 171 -48 135z"/>
<path d="M1452 3472 c-7 -2 -12 -12 -12 -22 0 -34 24 -43 159 -59 60 -8 80 -7
103 5 39 20 28 31 -40 39 -31 4 -77 13 -102 20 -57 17 -92 23 -108 17z"/>
<path d="M920 3450 c-6 -11 -8 -25 -5 -30 7 -12 186 -60 223 -60 18 0 62 38
62 53 0 4 -25 7 -56 7 -33 0 -86 10 -130 25 -41 14 -76 25 -79 25 -2 0 -9 -9
-15 -20z"/>
<path d="M2838 3458 c-3 -7 -2 -23 0 -36 5 -24 7 -24 71 -18 36 3 85 6 109 6
35 0 42 3 42 19 0 17 -10 20 -82 25 -46 4 -95 9 -109 12 -17 3 -29 0 -31 -8z"/>
<path d="M2429 3441 c-21 -16 -21 -18 -4 -35 16 -15 28 -17 87 -11 85 9 121
18 125 32 6 17 -26 25 -109 28 -62 3 -82 0 -99 -14z"/>
<path d="M3267 3453 c-4 -3 -7 -17 -7 -29 0 -19 7 -24 36 -30 78 -14 248 23
237 53 -4 10 -35 13 -132 13 -70 0 -131 -3 -134 -7z"/>
<path d="M3708 3435 c-8 -18 -8 -29 -1 -36 14 -14 235 -17 240 -3 5 14 -58 43
-110 49 -124 16 -116 17 -129 -10z"/>
<path d="M1982 3439 c-14 -6 -19 -14 -15 -28 6 -25 24 -31 100 -36 32 -2 69
-6 83 -10 15 -3 33 0 45 8 27 21 6 43 -42 45 -21 1 -63 8 -94 15 -31 8 -65 10
-77 6z"/>
<path d="M4523 3433 c-30 -20 -29 -41 0 -48 32 -9 224 0 266 11 37 10 54 33
24 32 -10 0 -56 5 -103 11 -112 15 -160 13 -187 -6z"/>
<path d="M5128 3432 c-33 -2 -51 -9 -57 -21 -19 -34 1 -43 85 -37 123 9 142
12 159 26 25 21 7 29 -60 29 -35 -1 -68 1 -72 3 -4 1 -29 2 -55 0z"/>
<path d="M5813 3424 c-9 -24 13 -38 70 -44 54 -5 197 9 197 20 0 35 -254 58
-267 24z"/>
<path d="M4149 3404 c-10 -13 -10 -17 2 -25 16 -10 132 -12 167 -3 34 10 26
27 -10 22 -20 -3 -38 0 -46 8 -19 19 -96 18 -113 -2z"/>
<path d="M4783 3202 c-19 -12 -21 -133 -4 -165 31 -58 46 -22 50 116 2 49 -1
57 -16 57 -10 0 -24 -4 -30 -8z"/>
<path d="M8700 3140 c-66 -19 -85 -34 -138 -112 -13 -18 -29 -42 -36 -52 -13
-19 -15 -18 -57 18 -24 20 -55 39 -69 42 -14 3 -40 12 -58 20 -43 19 -122 18
-184 -3 -64 -21 -80 -54 -82 -170 -1 -75 -3 -83 -24 -93 -13 -5 -29 -10 -36
-10 -20 0 -119 -41 -139 -58 -9 -9 -27 -20 -39 -26 -11 -6 -34 -37 -51 -68
l-30 -58 18 -45 c9 -25 29 -60 43 -77 50 -60 254 -131 369 -129 71 1 76 -6 49
-76 -8 -21 -25 -72 -36 -113 -12 -41 -31 -89 -41 -106 -19 -31 -26 -122 -13
-170 7 -27 48 -50 102 -58 37 -6 53 -1 115 31 79 41 128 75 199 140 46 42 68
53 68 33 0 -6 21 -23 48 -39 26 -17 61 -46 79 -65 l31 -35 68 6 c38 3 82 12
97 20 34 17 67 69 67 105 0 31 -37 137 -87 251 -19 44 -33 80 -31 82 2 1 51
26 110 54 87 41 113 59 133 90 46 69 45 155 -2 211 -37 44 -133 107 -176 115
-42 8 -45 14 -45 112 0 96 -25 178 -67 220 -38 38 -58 40 -155 13z m100 -65
c32 -17 46 -51 55 -140 3 -33 8 -75 11 -94 l4 -34 -46 7 c-26 3 -78 6 -115 6
-64 0 -71 2 -99 31 -36 38 -36 38 -9 92 36 72 65 103 108 115 22 7 43 17 46
22 8 13 11 13 45 -5z m-454 -100 c27 -8 69 -32 93 -53 41 -35 43 -40 34 -67
-9 -28 -13 -30 -69 -32 -32 -1 -98 -3 -146 -5 -56 -2 -91 1 -98 8 -15 15 -24
85 -16 117 3 13 16 29 28 35 33 16 117 14 174 -3z m80 -276 c-10 -64 -97 -216
-117 -204 -11 7 -109 185 -115 211 -5 20 -2 21 52 23 31 0 60 3 62 6 3 3 32 5
65 5 l60 0 -7 -41z m166 32 c47 -18 137 -180 138 -250 0 -14 -5 -39 -11 -56
l-12 -32 -150 -6 c-193 -9 -205 -1 -146 98 42 69 85 164 94 202 10 47 40 62
87 44z m229 -8 c8 -8 -13 -100 -29 -129 -9 -16 -10 -15 -16 3 -3 11 -21 45
-40 76 -19 31 -31 59 -27 62 8 9 102 -2 112 -12z m-685 -60 c11 -29 27 -61 35
-70 8 -10 20 -29 27 -43 7 -14 17 -34 24 -45 7 -11 23 -37 35 -57 13 -21 23
-42 23 -47 0 -12 -87 -5 -195 15 -147 28 -204 55 -237 115 -23 42 -8 80 45
116 41 27 177 74 207 70 8 -1 24 -26 36 -54z m849 46 c24 -6 61 -26 81 -43 33
-28 38 -39 42 -88 4 -52 3 -56 -25 -76 -16 -11 -59 -33 -96 -47 -37 -15 -70
-31 -73 -36 -3 -5 -20 -9 -39 -9 -31 0 -35 4 -46 39 -12 40 -3 78 37 166 7 17
20 47 28 68 16 40 24 43 91 26z m-318 -415 c3 -9 -4 -32 -16 -52 -12 -21 -28
-49 -34 -64 -6 -16 -17 -28 -24 -28 -14 0 -113 119 -113 137 0 11 30 16 143
21 26 1 39 -3 44 -14z m185 -46 c20 -35 40 -76 44 -93 4 -16 15 -43 25 -60 30
-52 33 -97 9 -128 -26 -32 -58 -35 -116 -8 -43 20 -164 109 -164 122 0 4 11
27 25 50 14 24 25 50 25 57 0 15 48 92 69 110 28 23 47 12 83 -50z m-453 25
c65 -89 79 -107 109 -144 17 -23 32 -50 32 -62 0 -46 -165 -167 -259 -189 -46
-10 -54 -10 -69 6 -16 16 -15 22 17 109 19 51 42 121 51 157 10 36 23 84 29
108 10 37 15 42 41 42 20 0 35 -9 49 -27z"/>
<path d="M8527 2604 c-15 -8 -32 -25 -37 -37 -6 -12 -15 -30 -22 -39 -31 -43
44 -108 125 -108 42 0 53 5 78 31 35 37 41 106 12 131 -47 39 -109 48 -156 22z"/>
<path d="M12474 3089 c-11 -19 -13 -173 -2 -186 17 -21 47 -15 53 10 3 12 5
58 3 102 -3 73 -5 80 -25 83 -11 2 -24 -2 -29 -9z"/>
<path d="M4762 2809 c-6 -14 -8 -49 -6 -77 4 -39 1 -54 -9 -58 -12 -4 -11 -10
2 -39 15 -31 38 -51 48 -41 20 20 11 191 -12 223 -13 17 -14 17 -23 -8z"/>
<path d="M12486 2808 c-12 -45 -7 -135 9 -148 46 -39 68 27 37 114 -19 56 -36
68 -46 34z"/>
<path d="M12487 2498 c-8 -20 -17 -67 -19 -104 -3 -65 -2 -69 24 -84 25 -13
29 -13 45 2 15 16 16 26 5 105 -6 48 -18 93 -26 101 -13 13 -16 10 -29 -20z"/>
<path d="M4774 2408 c-38 -44 -53 -148 -22 -148 6 0 6 -6 -1 -14 -8 -10 -9
-16 -1 -21 5 -3 10 -3 10 1 0 3 11 -1 25 -10 31 -20 31 -20 40 97 4 62 3 93
-6 103 -16 19 -22 18 -45 -8z"/>
<path d="M12511 2086 c-11 -13 -15 -32 -28 -122 -5 -37 -2 -44 21 -59 44 -29
56 -15 56 65 0 44 -6 82 -15 100 -18 34 -19 35 -34 16z"/>
<path d="M4773 2018 c-12 -13 -23 -32 -26 -43 -4 -16 -5 -17 -6 -2 0 9 -5 17
-10 17 -5 0 -9 -50 -9 -111 l-1 -110 40 3 41 3 1 133 c1 72 -1 132 -4 132 -3
0 -15 -10 -26 -22z"/>
<path d="M9656 1837 c-18 -13 -16 -19 30 -118 70 -149 102 -199 129 -199 13 0
29 7 36 16 11 14 10 22 -11 58 -13 22 -36 68 -53 101 -41 85 -87 155 -101 155
-7 0 -20 -6 -30 -13z"/>
<path d="M7518 1676 c-100 -44 -155 -223 -99 -322 44 -77 144 -123 215 -99 95
33 130 93 130 220 0 111 -10 127 -111 185 -56 32 -91 36 -135 16z m130 -96
c23 -13 45 -33 47 -45 25 -115 -13 -199 -97 -210 -44 -7 -48 -5 -86 34 -50 51
-57 79 -37 144 31 105 83 128 173 77z"/>
<path d="M12562 1659 c-7 -11 -16 -64 -19 -118 -6 -98 -6 -99 21 -116 21 -14
29 -15 41 -5 22 18 21 170 -1 216 -21 44 -27 47 -42 23z"/>
<path d="M8627 1634 c-12 -12 -8 -73 8 -110 11 -27 11 -36 2 -39 -30 -11 -142
-24 -148 -17 -3 4 -11 33 -18 64 -19 90 -59 105 -63 22 -1 -21 2 -58 6 -81 l8
-43 -46 -19 c-50 -22 -55 -31 -30 -56 13 -12 26 -15 55 -10 l39 7 1 -36 c1
-20 2 -39 3 -43 2 -5 6 -30 11 -58 11 -73 22 -95 44 -95 28 0 34 41 21 141 -5
46 -10 91 -10 100 0 19 62 55 112 64 32 6 34 4 56 -41 13 -26 26 -65 28 -86 7
-53 21 -87 39 -94 25 -10 29 2 30 86 0 114 17 119 51 15 20 -59 40 -85 67 -85
18 0 19 5 13 46 -8 62 -55 155 -87 173 -23 12 -29 12 -59 -2 -18 -10 -34 -17
-36 -17 -4 0 -31 92 -47 160 -12 51 -32 72 -50 54z"/>
<path d="M9295 1593 c-11 -2 -30 -6 -42 -9 -36 -7 -63 -44 -63 -85 0 -32 6
-43 49 -78 27 -23 53 -41 58 -41 17 0 47 -40 37 -49 -21 -20 -52 -21 -75 -3
-19 16 -29 18 -58 10 -20 -6 -43 -16 -51 -23 -51 -42 -135 -59 -147 -28 -4 9
-2 18 4 20 6 2 32 18 57 34 45 30 46 32 46 83 0 39 -5 57 -18 69 -24 22 -61
21 -89 -1 -31 -25 -93 -136 -93 -167 0 -41 26 -81 72 -112 38 -25 48 -28 85
-20 30 6 56 21 88 53 l46 45 30 -26 c45 -37 105 -35 147 6 18 17 32 39 32 48
0 37 -60 100 -114 121 -30 11 -53 57 -37 73 6 6 30 12 53 13 24 2 46 3 51 3
12 1 8 46 -5 59 -12 12 -26 13 -63 5z"/>
<path d="M9525 1579 c-11 -6 -35 -32 -53 -59 -26 -38 -33 -57 -30 -86 3 -33 9
-42 43 -61 70 -40 129 -53 172 -38 32 11 38 18 41 45 l3 33 -43 -6 c-67 -9
-77 4 -40 49 37 44 42 92 14 117 -20 19 -76 21 -107 6z m65 -64 c0 -8 -62 -37
-68 -31 -8 9 30 35 51 36 9 0 17 -2 17 -5z"/>
<path d="M4770 1496 c0 -31 -10 -56 -21 -56 -5 0 -7 11 -3 25 5 19 2 25 -10
25 -14 0 -16 -11 -14 -70 3 -58 6 -70 20 -70 9 0 25 -11 35 -25 30 -41 39 -18
35 93 -4 92 -6 102 -23 102 -13 0 -19 -7 -19 -24z"/>
<path d="M9863 1443 c-13 -8 -23 -24 -23 -33 0 -20 47 -63 60 -55 14 8 20 66
10 86 -13 23 -18 23 -47 2z"/>
<path d="M7815 1408 c-11 -33 -35 -138 -35 -154 0 -10 -9 -28 -21 -40 -20 -22
-21 -23 -3 -53 10 -16 22 -27 27 -24 5 3 27 43 48 89 27 56 47 85 62 91 12 4
59 7 104 6 60 -2 84 2 93 12 6 8 9 19 5 24 -9 16 -84 33 -159 36 -37 2 -73 8
-79 14 -15 15 -37 14 -42 -1z"/>
<path d="M12592 1123 c-16 -14 -22 -35 -27 -95 -4 -42 -8 -85 -8 -94 -2 -22
48 -43 63 -28 14 14 30 184 19 211 -10 28 -20 29 -47 6z"/>
<path d="M4745 1106 c-22 -19 -25 -26 -16 -49 6 -15 15 -27 21 -27 5 0 10 -5
10 -11 0 -6 -7 -9 -15 -6 -8 4 -17 2 -20 -4 -4 -5 1 -12 10 -15 11 -5 15 -14
11 -30 -9 -33 10 -74 33 -74 19 0 36 30 34 60 -1 8 -5 50 -8 92 -7 86 -19 99
-60 64z"/>
<path d="M4838 773 c-10 -2 -18 -10 -18 -16 0 -18 32 -67 76 -115 34 -38 43
-43 67 -37 37 10 34 34 -8 75 -19 18 -41 48 -50 67 -15 32 -27 37 -67 26z"/>
<path d="M12435 694 c-117 -41 -138 -84 -42 -84 95 1 187 64 141 97 -22 16
-16 17 -99 -13z"/>
<path d="M12001 647 c-24 -27 -18 -37 33 -57 40 -15 158 -23 175 -12 28 19 -5
47 -83 70 -94 27 -98 27 -125 -1z"/>
<path d="M11526 601 c-21 -23 -15 -36 26 -57 26 -13 40 -14 97 -4 152 27 170
63 38 73 -125 10 -142 9 -161 -12z"/>
<path d="M5103 603 c-22 -8 -14 -31 17 -53 33 -23 111 -36 164 -26 37 7 92 54
78 68 -9 9 -237 19 -259 11z"/>
<path d="M5618 597 c-44 -10 -46 -18 -17 -46 31 -28 110 -44 196 -39 110 7
144 53 47 64 -22 2 -66 9 -99 15 -33 6 -67 12 -75 13 -8 1 -32 -2 -52 -7z"/>
<path d="M6645 599 c-42 -12 -60 -43 -38 -65 15 -14 30 -16 104 -11 90 7 173
31 166 50 -10 30 -161 47 -232 26z"/>
<path d="M11074 584 c-4 -16 -1 -31 7 -40 15 -14 203 -39 220 -28 15 9 10 40
-10 58 -19 17 -108 36 -173 36 -32 0 -39 -4 -44 -26z"/>
<path d="M7116 579 c-21 -30 -20 -42 2 -62 37 -34 242 -12 242 25 0 24 -14 30
-99 39 -42 4 -88 10 -102 14 -21 5 -30 2 -43 -16z"/>
<path d="M10703 576 c-37 -32 -22 -48 53 -56 99 -11 204 25 141 49 -22 9 -134
31 -155 31 -6 0 -24 -11 -39 -24z"/>
<path d="M10209 566 c-11 -23 -10 -28 7 -40 40 -29 177 -42 211 -20 12 8 30
14 38 14 10 0 15 7 13 17 -3 14 -22 20 -98 29 -52 7 -109 15 -127 19 -29 7
-34 4 -44 -19z"/>
<path d="M6132 573 c-33 -6 -48 -41 -28 -62 36 -35 264 -31 291 6 21 28 -1 41
-80 47 -38 2 -70 5 -70 6 0 4 -92 6 -113 3z"/>
<path d="M8412 564 c-29 -20 -28 -30 9 -49 32 -17 224 -25 247 -11 16 10 15
46 0 46 -7 1 -49 7 -93 15 -103 19 -135 19 -163 -1z"/>
<path d="M7519 547 c-20 -36 9 -50 109 -51 92 -1 142 14 142 41 0 19 -11 21
-133 26 -99 3 -109 2 -118 -16z"/>
<path d="M7962 559 c-10 -4 -23 -13 -30 -22 -10 -12 -8 -18 15 -32 23 -16 43
-17 151 -12 120 6 152 14 152 42 0 27 -226 45 -288 24z"/>
<path d="M8933 549 c-58 -22 -64 -32 -30 -50 34 -19 216 -13 239 8 28 25 22
41 -19 52 -58 16 -132 12 -190 -10z"/>
<path d="M9785 560 c-11 -4 -28 -17 -38 -28 -18 -20 -18 -21 5 -36 17 -11 52
-15 140 -15 66 1 121 5 124 11 8 13 -25 48 -46 48 -9 0 -20 4 -25 9 -14 13
-136 21 -160 11z"/>
<path d="M9342 537 c-22 -23 -22 -24 -4 -41 23 -20 165 -32 197 -17 11 5 28
12 38 15 34 11 11 31 -54 48 -94 25 -150 23 -177 -5z"/>
</g>
</svg>
