<?xml version="1.0" standalone="no"?>
<!DOCTYPE svg PUBLIC "-//W3C//DTD SVG 20010904//EN"
 "http://www.w3.org/TR/2001/REC-SVG-20010904/DTD/svg10.dtd">
<svg version="1.0" xmlns="http://www.w3.org/2000/svg"
 width="867.489130pt" height="400.000000pt" viewBox="0 0 867.489130 400.000000"
 preserveAspectRatio="xMidYMid meet">
<metadata>
Created by potrace 1.15, written by Peter Selinger 2001-2017
</metadata>
<g transform="translate(-23.874996,411.184562) scale(0.037109,-0.037109)"
fill="#444444" stroke="none">
<path d="M4588 11037 c-9 -23 -28 -89 -42 -148 -14 -58 -32 -118 -41 -135 -8
-16 -15 -36 -15 -45 0 -20 31 -49 53 -49 19 0 57 55 57 83 0 10 6 28 14 40 8
12 17 40 21 61 3 22 18 76 32 120 l26 79 -23 19 c-38 31 -63 23 -82 -25z"/>
<path d="M4134 11045 c-14 -21 -15 -32 -5 -68 19 -68 32 -120 36 -147 8 -49
34 -131 46 -146 7 -9 25 -14 43 -12 43 4 44 28 7 184 -48 200 -84 254 -127
189z"/>
<path d="M3783 10898 c-27 -35 -22 -50 51 -161 83 -126 109 -154 152 -163 26
-5 32 -2 42 21 16 36 17 35 -23 80 -19 22 -47 58 -62 80 -95 139 -135 175
-160 143z"/>
<path d="M5071 10866 c-34 -25 -101 -96 -101 -107 0 -3 -13 -23 -30 -44 -35
-44 -37 -58 -10 -85 33 -33 64 -25 109 29 22 26 45 60 50 74 6 14 28 36 49 48
47 27 55 69 19 94 -30 21 -48 19 -86 -9z"/>
<path d="M3470 10584 c-15 -38 -14 -39 49 -94 73 -65 154 -110 198 -110 31 0
33 2 33 34 0 28 -7 40 -39 65 -21 17 -60 41 -87 55 -27 14 -60 36 -73 50 -32
34 -68 34 -81 0z"/>
<path d="M5360 10458 c-156 -73 -173 -86 -168 -126 4 -33 46 -51 80 -35 13 6
32 14 43 18 31 10 172 94 186 111 10 12 8 19 -11 39 -30 32 -50 31 -130 -7z"/>
<path d="M4220 10464 c-30 -8 -68 -17 -85 -19 -73 -7 -179 -74 -297 -187 -42
-40 -83 -88 -92 -105 -10 -19 -24 -33 -35 -33 -18 0 -51 -29 -51 -45 0 -4 -7
-13 -16 -20 -13 -9 -15 -19 -9 -41 5 -16 7 -33 5 -39 -21 -66 -32 -117 -35
-150 -6 -81 -6 -222 -1 -245 3 -14 8 -41 10 -60 5 -49 53 -160 81 -190 13 -14
27 -38 31 -53 4 -17 43 -66 93 -116 76 -76 96 -91 166 -119 44 -18 94 -32 111
-32 17 0 56 -5 85 -11 30 -7 70 -13 89 -15 158 -15 188 -15 255 1 39 9 93 20
120 25 52 9 108 27 181 61 24 10 47 19 52 19 16 0 173 130 180 148 3 10 18 33
33 52 15 19 30 46 34 60 4 14 16 42 27 64 17 34 36 115 43 186 1 14 5 45 9 70
5 29 0 85 -13 160 -23 128 -44 194 -84 257 -32 50 -33 59 -8 66 27 7 32 59 8
88 -16 20 -29 24 -84 26 -58 1 -70 5 -121 42 -61 44 -190 111 -214 111 -8 0
-48 9 -89 19 -141 37 -301 47 -379 25z m330 -124 c81 -15 250 -83 250 -100 0
-16 -17 -20 -245 -45 -16 -2 -66 -11 -110 -21 -93 -20 -144 -23 -203 -12 -30
5 -50 4 -65 -6 -17 -10 -53 -11 -151 -7 l-128 6 48 48 c27 26 51 47 55 47 3 0
23 13 43 29 20 16 53 32 73 36 21 4 52 13 68 20 35 16 238 34 275 24 14 -4 54
-12 90 -19z m-42 -302 c7 -7 12 -20 12 -31 0 -41 53 -171 89 -221 34 -46 47
-55 105 -74 37 -12 78 -22 92 -22 46 0 122 31 163 67 39 33 94 129 88 154 -1
7 3 13 9 16 7 2 14 -14 19 -39 4 -24 10 -59 14 -78 3 -19 5 -82 5 -140 -1 -91
-6 -118 -34 -200 -27 -80 -42 -105 -92 -161 -72 -81 -165 -143 -256 -171 -91
-28 -253 -58 -332 -63 -85 -5 -336 37 -391 66 -137 69 -283 293 -295 451 -6
86 -5 196 2 221 5 14 9 16 20 6 8 -6 14 -17 14 -23 0 -20 81 -105 148 -156 54
-41 74 -50 107 -50 22 0 49 -3 60 -5 28 -8 128 58 158 104 14 20 28 52 32 71
4 19 13 46 20 60 8 15 12 60 12 110 l-1 85 89 16 c115 21 128 22 143 7z"/>
<path d="M4879 9626 c-5 -5 -290 -26 -432 -32 -108 -5 -253 -23 -360 -46 -38
-9 -69 -23 -85 -39 -15 -15 -37 -32 -50 -38 -17 -9 -22 -19 -20 -39 2 -21 21
-37 98 -84 123 -74 202 -118 211 -118 4 0 40 -16 79 -36 134 -67 189 -77 257
-49 19 8 46 15 60 15 16 0 44 19 82 58 32 31 78 73 103 92 77 62 146 191 148
280 0 20 -76 50 -91 36z m-35 -138 c-11 -13 -41 -47 -66 -75 -50 -57 -127
-122 -174 -145 -36 -19 -129 -30 -152 -19 -134 63 -336 168 -339 176 -2 7 39
19 99 29 108 19 133 22 238 27 36 2 69 5 74 7 5 3 63 7 130 9 66 3 123 7 125
9 2 2 22 4 44 4 l40 0 -19 -22z"/>
<path d="M3186 10141 c-16 -18 -15 -20 16 -53 26 -27 57 -43 144 -71 123 -41
136 -43 153 -23 19 23 -11 69 -56 89 -101 43 -197 77 -217 77 -13 0 -31 -8
-40 -19z"/>
<path d="M5425 9981 c-56 -10 -65 -17 -65 -55 0 -49 31 -59 172 -52 166 7 199
26 143 82 -19 19 -34 24 -67 23 -24 0 -65 2 -93 4 -27 3 -68 2 -90 -2z"/>
<path d="M5341 9520 c-14 -42 -1 -65 46 -81 21 -7 67 -27 103 -45 62 -31 106
-44 159 -47 35 -3 51 47 24 74 -11 11 -32 22 -48 25 -16 3 -45 14 -65 24 -62
33 -144 68 -176 75 -29 5 -33 3 -43 -25z"/>
<path d="M3239 9516 c-23 -8 -35 -19 -40 -39 -11 -40 15 -49 150 -53 64 -2
137 -6 163 -9 40 -5 49 -3 58 15 14 27 -1 55 -43 76 -38 20 -236 27 -288 10z"/>
<path d="M3673 9091 c-7 -11 -27 -22 -45 -26 -35 -8 -102 -50 -129 -81 -9 -11
-23 -36 -30 -57 -12 -33 -11 -39 1 -47 27 -17 51 -10 98 29 26 21 61 46 77 54
30 15 115 95 115 108 0 16 -32 39 -53 39 -12 0 -28 -9 -34 -19z"/>
<path d="M5140 9011 c-14 -27 -13 -78 3 -88 6 -4 17 -16 22 -25 69 -115 146
-192 187 -186 32 4 37 57 8 83 -11 10 -20 24 -20 30 0 7 -11 20 -25 29 -14 9
-25 21 -25 26 0 12 -52 88 -84 123 -30 32 -51 35 -66 8z"/>
<path d="M4815 8826 c-34 -24 -23 -85 40 -231 8 -16 17 -42 20 -57 4 -15 18
-39 32 -52 l25 -26 30 21 c16 12 28 24 26 28 -32 63 -78 181 -78 200 0 22 -50
119 -65 125 -7 2 -21 -1 -30 -8z"/>
<path d="M4018 8823 c-20 -5 -110 -133 -125 -179 -13 -36 -7 -48 25 -58 37
-12 61 3 89 57 14 29 36 65 49 80 26 31 31 76 12 95 -12 12 -20 13 -50 5z"/>
<path d="M4448 8769 c-25 -14 -38 -72 -38 -179 -1 -52 -2 -112 -3 -133 -2 -24
2 -41 11 -46 17 -10 60 -2 68 11 4 6 8 63 11 127 2 64 8 140 12 168 4 29 6 55
3 58 -9 8 -46 5 -64 -6z"/>
<path d="M16986 7251 c-10 -11 -15 -25 -11 -30 6 -10 11 -66 16 -186 l2 -50
-84 -5 c-58 -4 -93 -11 -111 -24 -16 -10 -28 -21 -27 -25 0 -3 14 -17 30 -30
23 -18 47 -25 107 -30 69 -5 77 -8 75 -26 -16 -124 -15 -184 3 -214 20 -33 62
-43 81 -18 6 6 13 53 16 102 9 130 16 155 40 155 49 0 163 77 143 97 -3 3 -40
8 -83 10 -42 2 -78 5 -80 7 -2 2 -8 41 -13 87 -18 168 -56 233 -104 180z"/>
<path d="M14280 7203 c-24 -31 -25 -43 -5 -43 8 0 15 -9 15 -20 0 -20 10 -25
85 -34 22 -3 51 -8 65 -11 34 -8 51 -8 76 0 19 6 22 2 29 -32 4 -21 9 -84 11
-141 2 -56 5 -106 8 -111 13 -20 4 -157 -11 -172 -10 -10 -62 -12 -157 -6 -30
1 -41 -3 -50 -18 -6 -11 -15 -23 -21 -27 -10 -7 10 -27 50 -50 24 -13 214 -13
259 1 17 5 47 12 66 15 41 8 94 51 87 70 -5 13 -58 26 -109 26 l-28 0 0 173
c0 94 -3 196 -6 224 -7 51 -6 53 22 64 16 7 47 12 69 13 34 1 41 5 49 29 7 18
6 31 0 37 -16 16 -91 20 -209 12 -109 -7 -164 -3 -238 16 -34 9 -39 8 -57 -15z"/>
<path d="M19210 7182 c-20 -2 -48 -16 -69 -34 -19 -17 -47 -35 -63 -40 -15 -5
-28 -14 -28 -19 0 -6 -9 -20 -21 -32 -76 -80 -60 -195 42 -311 46 -53 147 -96
223 -96 77 0 116 13 157 51 42 39 33 69 -21 69 -21 0 -49 -4 -62 -9 -13 -5
-51 -4 -89 1 -55 8 -75 17 -114 49 l-47 39 27 10 c14 5 35 10 45 10 23 0 69
19 91 37 23 19 91 53 106 53 16 0 43 52 43 82 -1 36 -36 105 -63 123 -25 16
-94 24 -157 17z m102 -108 c31 -19 -21 -72 -90 -92 -90 -25 -132 -30 -132 -15
0 23 90 112 118 116 28 5 91 -1 104 -9z"/>
<path d="M14940 7080 c-14 -14 -39 -43 -55 -65 -16 -22 -40 -52 -54 -67 l-25
-28 24 -25 c30 -32 64 -32 87 1 10 14 32 42 48 62 37 45 53 78 57 116 3 25 0
29 -27 30 -20 1 -38 -7 -55 -24z"/>
<path d="M17950 7079 c-79 -12 -193 -75 -238 -131 l-24 -28 27 -45 c14 -25 31
-46 38 -46 25 -3 33 -6 86 -31 29 -14 65 -37 80 -51 14 -14 35 -27 45 -29 30
-5 30 -24 -3 -60 -28 -31 -33 -33 -99 -33 -74 0 -117 21 -105 51 10 26 -44 16
-66 -12 -18 -23 -19 -29 -7 -53 8 -14 37 -41 64 -59 40 -26 60 -32 103 -32
136 0 229 67 229 164 0 28 -5 38 -27 50 -16 8 -27 17 -25 21 4 8 -67 65 -81
65 -10 0 -147 89 -147 96 0 2 24 17 53 34 39 22 65 30 103 30 45 0 52 3 58 23
18 66 1 87 -64 76z"/>
<path d="M18833 7057 c-51 -28 -80 -53 -104 -92 -11 -16 -19 -24 -19 -17 0 19
-45 14 -63 -6 -13 -15 -16 -30 -11 -68 4 -27 10 -53 14 -59 3 -5 12 -30 19
-55 18 -64 24 -73 54 -81 42 -11 72 45 88 165 l12 96 51 24 c28 13 63 26 79
30 39 9 38 50 -3 71 -39 20 -66 18 -117 -8z"/>
<path d="M18189 7008 c-40 -45 -42 -50 -41 -160 1 -154 84 -237 179 -178 38
23 93 95 93 122 0 10 7 18 16 18 10 0 14 -5 10 -15 -10 -27 44 -135 77 -151
58 -31 67 30 25 180 -32 117 -71 196 -97 196 -27 0 -61 -29 -61 -54 0 -12 -4
-26 -9 -31 -5 -6 -18 -37 -30 -69 -27 -72 -62 -118 -82 -105 -18 11 -18 164 0
206 14 35 0 83 -25 83 -9 0 -34 -19 -55 -42z"/>
<path d="M15064 6900 c-23 -10 -44 -26 -48 -36 -4 -11 -7 -81 -7 -157 1 -123
3 -139 21 -157 46 -46 66 -21 73 95 6 101 22 165 41 165 7 0 25 -9 40 -21 19
-15 26 -30 26 -55 0 -60 47 -134 84 -134 16 0 24 10 34 40 6 22 12 50 12 63 0
27 26 67 43 67 17 0 67 -103 67 -137 0 -31 34 -105 56 -124 38 -31 66 70 43
151 -7 25 -12 49 -10 53 4 18 -71 118 -99 132 -45 23 -94 19 -130 -12 -30 -25
-33 -25 -42 -8 -6 10 -26 35 -45 56 -31 34 -41 39 -77 38 -22 0 -59 -9 -82
-19z"/>
<path d="M16250 6863 c-8 -3 -34 -23 -57 -46 -27 -25 -47 -38 -57 -34 -12 5
-20 -4 -31 -30 -19 -46 -19 -69 1 -77 12 -5 15 -14 10 -40 -4 -21 -2 -37 4
-41 6 -4 8 -14 6 -23 -3 -10 6 -41 19 -71 20 -43 29 -52 43 -46 9 4 25 9 34
12 14 4 16 12 10 37 -4 17 -7 75 -7 129 0 85 3 101 19 112 16 13 23 12 47 -6
19 -13 29 -29 29 -45 0 -13 8 -31 19 -40 11 -9 16 -24 14 -35 -5 -16 17 -99
37 -139 10 -21 54 -24 70 -5 24 28 -17 215 -60 276 -11 15 -20 34 -20 42 0 9
-17 29 -37 46 -36 30 -60 36 -93 24z"/>
<path d="M16655 6838 c-38 -22 -85 -72 -85 -90 0 -10 -7 -35 -15 -56 -18 -41
-12 -82 10 -82 11 0 15 -12 15 -43 0 -39 3 -44 38 -61 20 -10 45 -22 54 -27
51 -26 147 8 186 65 28 41 43 100 36 136 -9 39 -44 107 -68 128 -42 38 -130
54 -171 30z m102 -100 c12 -13 29 -42 38 -66 17 -42 17 -43 -9 -82 -18 -27
-34 -40 -53 -42 -32 -3 -83 11 -107 31 -14 12 -14 15 -1 34 8 12 15 38 15 58
0 43 37 89 73 89 13 0 33 -10 44 -22z"/>
<path d="M20576 6509 c-32 -25 -33 -41 -3 -73 22 -23 25 -24 45 -10 37 25 46
52 27 80 -19 29 -34 30 -69 3z"/>
<path d="M21001 6364 c-29 -8 -71 -28 -92 -45 -33 -26 -39 -37 -39 -68 0 -30
9 -48 46 -91 58 -68 95 -101 156 -137 53 -31 57 -42 27 -69 -24 -21 -105 -25
-226 -10 -64 7 -73 6 -79 -8 -15 -38 76 -94 166 -103 82 -8 157 11 215 55 41
31 52 46 59 82 9 42 8 44 -25 73 -19 16 -50 36 -70 45 -34 16 -149 134 -149
153 0 16 39 29 87 29 26 0 54 4 60 8 19 12 27 66 11 79 -23 19 -91 23 -147 7z"/>
<path d="M19180 6272 l-23 -19 23 -31 c24 -32 44 -33 68 -4 41 51 -16 96 -68
54z"/>
<path d="M15209 6250 l-26 -19 14 -83 c7 -46 11 -88 8 -95 -2 -7 0 -15 6 -19
5 -3 10 -29 9 -57 0 -29 0 -85 -1 -126 0 -44 -6 -86 -14 -102 -18 -33 -10 -82
17 -121 36 -51 67 -10 83 107 14 101 61 152 89 97 22 -44 50 -136 47 -155 -1
-9 4 -20 13 -23 11 -4 13 -15 9 -41 -6 -34 -5 -36 16 -30 14 3 24 0 28 -9 8
-22 19 -17 32 14 9 22 9 45 -4 108 -27 132 -64 207 -125 252 l-30 23 -40 -20
c-22 -10 -42 -16 -44 -13 -2 4 -4 41 -5 82 -3 122 -29 251 -50 250 -3 0 -18
-9 -32 -20z"/>
<path d="M16179 6263 c-25 -6 -35 -61 -25 -135 12 -95 10 -99 -68 -91 -64 6
-65 5 -78 -22 -11 -24 -10 -29 12 -45 13 -10 42 -24 65 -31 66 -21 68 -24 61
-109 -4 -41 -9 -90 -12 -107 -5 -26 -3 -33 10 -33 9 0 16 -4 16 -10 0 -13 57
-13 65 1 8 12 26 124 34 212 1 4 27 6 59 4 78 -7 108 1 120 29 10 20 8 26 -14
43 -14 11 -46 23 -72 26 -89 12 -88 11 -97 126 -9 139 -19 158 -76 142z"/>
<path d="M17947 6240 c-9 -11 -17 -26 -17 -34 0 -16 42 -36 75 -36 20 0 25 7
31 34 8 44 3 51 -38 54 -23 2 -39 -4 -51 -18z"/>
<path d="M20620 6231 c-43 -11 -63 -69 -64 -187 -1 -87 2 -105 18 -123 23 -26
48 -27 69 -3 12 13 16 47 19 159 2 86 -1 145 -7 151 -5 5 -21 6 -35 3z"/>
<path d="M19487 6206 c-40 -18 -92 -70 -111 -111 -12 -24 -18 -65 -19 -118 -2
-76 0 -84 24 -109 56 -59 87 -23 90 102 2 90 16 135 47 145 59 18 101 -70 117
-242 7 -71 8 -73 34 -73 37 0 47 10 57 55 13 63 12 95 -7 173 -16 68 -28 93
-61 132 -40 47 -122 69 -171 46z"/>
<path d="M14897 6189 c-15 -11 -27 -30 -27 -42 0 -32 -11 -140 -15 -154 -3 -9
-31 -13 -93 -13 -73 0 -92 -3 -105 -18 -22 -24 -21 -28 3 -54 16 -17 35 -22
107 -27 l88 -6 0 -113 c0 -111 0 -113 26 -129 58 -35 81 8 82 150 0 91 1 97
21 97 39 1 116 26 133 43 26 26 3 41 -65 42 -89 1 -95 7 -97 112 -2 74 -14
133 -29 133 -2 0 -15 -9 -29 -21z"/>
<path d="M19945 6170 c-105 -28 -147 -59 -175 -130 -19 -48 -20 -59 -9 -104
16 -69 23 -81 65 -107 34 -20 41 -21 83 -10 29 8 60 26 85 52 22 21 42 39 46
39 11 0 57 -136 68 -200 3 -19 5 -65 5 -103 -1 -59 -5 -71 -30 -100 -27 -32
-56 -53 -114 -83 -14 -8 -57 -14 -96 -15 -69 -1 -93 5 -150 41 -33 21 -58 -5
-49 -52 12 -63 126 -105 253 -94 83 8 100 14 153 58 19 15 39 28 45 28 16 0
56 69 73 125 23 76 27 208 8 224 -10 9 -16 30 -16 56 0 26 -6 47 -15 55 -9 7
-15 25 -13 39 1 14 -6 62 -16 106 -11 44 -19 87 -18 95 2 54 -50 98 -84 69
-13 -11 -17 -10 -25 4 -11 18 -26 20 -74 7z m56 -140 c-16 -55 -58 -100 -96
-103 -26 -2 -30 2 -33 27 -6 53 5 72 65 104 68 36 82 30 64 -28z"/>
<path d="M18708 6154 c-40 -21 -56 -60 -64 -155 -11 -147 -6 -179 33 -204 24
-16 27 -16 52 3 25 18 26 23 23 96 -3 80 5 93 32 51 9 -14 32 -33 51 -42 32
-15 36 -15 54 1 10 9 22 33 25 52 8 41 23 44 32 7 15 -73 46 -160 63 -183 17
-21 22 -23 45 -12 36 16 41 49 21 134 -38 160 -58 212 -88 226 -24 12 -31 11
-63 -8 -19 -12 -42 -33 -51 -47 l-17 -25 -19 39 c-41 80 -74 98 -129 67z"/>
<path d="M17065 6130 c-74 -11 -199 -73 -230 -115 -25 -32 -26 -37 -14 -65 8
-16 17 -30 20 -30 4 0 27 -17 52 -38 53 -43 122 -67 190 -65 40 1 46 -1 36
-13 -6 -8 -20 -14 -30 -14 -10 0 -33 -6 -51 -14 -84 -35 -141 -45 -153 -26
-12 20 -52 11 -64 -16 -9 -22 -8 -30 10 -55 11 -16 30 -30 42 -30 93 -6 213
28 275 78 41 33 43 38 40 82 -3 42 -5 46 -28 45 -14 -1 -31 7 -38 17 -10 14
-26 19 -61 19 -26 0 -56 7 -67 15 -10 8 -26 15 -35 15 -13 0 -46 48 -37 55 19
14 127 58 175 72 54 15 62 20 67 46 10 50 3 52 -99 37z"/>
<path d="M18185 6123 c-45 -5 -63 -17 -65 -41 -3 -51 -4 -115 -2 -182 2 -75 2
-76 36 -94 58 -31 71 -21 73 59 3 84 11 135 21 135 10 0 32 -60 32 -86 0 -15
11 -23 42 -31 23 -6 46 -9 50 -7 5 3 20 28 34 55 14 28 30 49 37 46 6 -2 26
-39 44 -83 45 -112 60 -134 88 -134 61 0 57 90 -11 228 -47 93 -66 115 -115
127 -21 5 -34 0 -64 -26 l-37 -33 -22 26 c-25 30 -58 49 -83 46 -10 -1 -36 -3
-58 -5z"/>
<path d="M19200 6092 c-29 -23 -45 -145 -29 -217 18 -79 62 -100 91 -42 14 26
17 53 14 147 -3 63 -5 118 -5 123 -2 14 -49 7 -71 -11z"/>
<path d="M17217 6071 c-27 -27 -28 -31 -14 -53 9 -12 21 -43 27 -68 7 -25 21
-64 31 -87 11 -24 19 -45 19 -48 0 -3 17 -28 37 -55 48 -64 70 -65 160 -5 l68
44 30 -33 c31 -35 64 -56 88 -56 29 0 66 53 90 128 58 184 59 242 8 242 -42 0
-67 -38 -87 -131 -10 -43 -20 -79 -23 -79 -3 0 -18 23 -33 50 -38 69 -46 68
-117 -18 -42 -50 -96 -90 -108 -78 -14 13 -64 153 -69 191 -12 80 -59 105
-107 56z"/>
<path d="M17948 6085 c-23 -13 -27 -22 -28 -63 0 -26 -2 -58 -4 -72 -1 -14 1
-38 7 -53 7 -20 6 -35 -3 -52 -16 -30 6 -79 37 -83 40 -6 54 34 59 164 2 64 7
120 10 125 3 5 2 18 -1 29 -8 24 -38 26 -77 5z"/>
<path d="M15825 5971 c-6 -6 -39 -24 -75 -42 -76 -38 -171 -128 -163 -157 2
-10 -2 -24 -11 -31 -17 -15 -9 -44 26 -91 43 -59 132 -62 194 -8 19 17 34 34
34 38 0 12 44 79 51 80 13 0 62 -57 76 -87 7 -18 20 -33 27 -33 8 0 16 -6 18
-14 3 -12 8 -13 36 -1 36 16 42 44 14 62 -10 6 -40 53 -65 105 -26 52 -56 104
-67 116 -11 12 -20 25 -20 30 0 14 -35 42 -51 42 -8 0 -19 -4 -24 -9z m-19
-156 c-2 -20 -6 -38 -10 -42 -3 -3 -6 -14 -6 -23 0 -34 -71 -77 -106 -63 -38
14 5 105 70 144 45 28 56 25 52 -16z"/>
<path d="M3449 5957 c-88 -33 -159 -112 -159 -177 0 -17 -6 -33 -14 -36 -16
-6 -26 -61 -27 -149 -1 -72 42 -189 87 -236 47 -50 125 -95 186 -108 48 -10
61 -10 87 3 16 9 38 16 48 16 24 0 118 35 149 54 58 39 112 188 121 336 6 107
-2 139 -62 219 -27 38 -45 51 -87 66 -70 23 -278 31 -329 12z m254 -94 c32 -5
35 -7 20 -18 -13 -10 -24 -9 -55 5 -46 21 -62 36 -28 26 14 -4 42 -10 63 -13z
m-253 -64 c7 -11 25 -25 41 -31 16 -5 29 -13 29 -18 0 -4 -26 -29 -57 -56 -32
-27 -68 -60 -81 -74 l-23 -25 5 55 c9 92 17 124 39 148 25 27 33 28 47 1z
m342 -209 c14 -30 15 -42 5 -80 -24 -93 -87 -147 -158 -137 -23 3 -42 7 -45 9
-2 3 5 29 15 59 11 30 25 84 31 120 l11 65 62 0 c61 -1 62 -2 79 -36z"/>
<path d="M23565 5769 c-4 -6 -6 -72 -4 -147 l4 -137 -55 0 c-67 0 -97 -10
-111 -36 -8 -15 -7 -24 2 -35 20 -24 80 -50 124 -53 22 -2 41 -4 42 -5 8 -7 3
-135 -7 -208 -7 -48 -10 -98 -6 -113 8 -30 48 -50 74 -36 28 15 53 101 61 210
4 56 11 104 14 107 3 4 40 2 82 -3 86 -10 109 -2 103 38 -2 18 -18 32 -63 56
-33 18 -68 33 -78 33 -32 0 -67 45 -67 87 0 40 -47 220 -63 241 -12 15 -43 16
-52 1z"/>
<path d="M21536 5594 l-28 -16 7 -126 c6 -111 12 -159 26 -210 3 -9 -17 -19
-62 -31 -71 -19 -78 -22 -127 -60 -36 -28 -82 -107 -82 -141 0 -11 -4 -20 -10
-20 -5 0 -10 5 -10 11 0 7 -13 33 -28 58 -16 25 -39 72 -52 104 -15 35 -36 67
-53 79 -26 18 -32 19 -74 7 -106 -29 -253 -164 -253 -232 0 -30 73 -122 98
-123 9 0 33 -4 53 -8 58 -12 116 23 142 85 12 27 26 49 33 49 7 0 22 -12 33
-27 38 -51 64 -71 100 -78 20 -4 56 -16 81 -27 78 -35 106 -38 168 -17 101 35
212 123 212 168 0 10 -12 39 -26 65 -27 48 -55 149 -53 194 1 61 -14 269 -22
290 -10 26 -32 28 -73 6z m-519 -539 c-10 -39 -20 -53 -42 -64 -32 -15 -58 -6
-63 23 -4 21 19 48 73 88 46 34 51 27 32 -47z m557 -1 c6 -21 2 -30 -16 -43
-83 -60 -175 -50 -162 17 8 39 21 50 76 67 53 15 92 0 102 -41z"/>
<path d="M10896 5572 c-2 -1 -45 -6 -97 -10 -86 -6 -94 -9 -106 -32 -10 -19
-21 -25 -50 -27 -61 -3 -184 -20 -233 -33 -53 -14 -145 -6 -190 17 -36 18 -26
17 -230 9 -85 -3 -177 -10 -205 -16 -59 -12 -155 -12 -244 1 -43 7 -67 6 -76
-1 -7 -5 -61 -12 -121 -14 -114 -4 -141 -8 -187 -27 -23 -10 -31 -9 -37 1 -6
9 -20 11 -46 7 -22 -4 -76 -2 -121 4 -51 7 -88 7 -100 1 -11 -6 -49 -4 -103 4
-47 7 -94 10 -105 7 -11 -4 -30 -6 -42 -4 -12 1 -30 -2 -41 -8 -13 -7 -22 -7
-29 0 -8 8 -27 8 -64 0 -30 -6 -135 -13 -234 -17 -290 -10 -309 -9 -371 21
-30 14 -52 17 -113 12 -42 -4 -87 -9 -101 -12 -72 -16 -133 -22 -205 -18 -153
8 -460 11 -470 4 -5 -3 -48 -6 -95 -7 -47 0 -121 -6 -165 -14 -92 -15 -78 -15
-255 -6 -88 5 -173 3 -240 -5 -96 -11 -183 -17 -346 -22 -34 -1 -67 -7 -75
-13 -8 -6 -23 -14 -34 -18 -32 -12 -223 -7 -315 7 -81 13 -337 14 -369 2 -17
-7 -318 -16 -471 -15 -58 0 -138 7 -178 16 -40 9 -89 14 -110 11 -20 -3 -85
-12 -143 -20 -59 -7 -118 -20 -131 -29 -16 -10 -30 -13 -40 -7 -19 11 -84 -7
-125 -34 -24 -16 -33 -30 -33 -49 0 -44 24 -48 109 -21 145 46 166 51 213 57
26 3 56 11 66 17 15 9 46 9 133 -1 127 -14 219 -15 389 -7 63 3 137 1 163 -4
37 -7 57 -5 85 7 26 10 52 13 89 8 29 -3 59 -2 66 3 12 9 168 10 262 0 28 -2
56 0 63 6 9 7 18 5 30 -6 22 -20 154 -17 277 6 44 8 95 13 113 12 18 -1 35 2
38 7 4 7 97 10 234 8 48 -1 200 23 200 31 0 5 12 4 28 -2 37 -15 324 -14 387
1 56 13 394 20 495 10 48 -5 69 -4 81 6 9 8 18 11 22 8 10 -10 179 -6 217 5
44 14 181 13 240 0 25 -6 79 -14 121 -19 42 -4 86 -11 97 -14 12 -4 31 -2 42
4 26 14 277 23 285 10 4 -6 13 -6 23 -1 53 28 465 36 559 11 18 -5 35 -5 38 0
3 4 13 6 23 3 10 -2 61 1 113 7 52 7 106 13 121 15 14 2 50 6 80 10 90 13 222
13 240 0 13 -9 35 -8 90 1 40 8 168 16 283 20 207 6 211 6 270 -18 l61 -25
124 25 c69 14 166 27 215 29 71 4 94 8 111 24 19 17 32 19 142 15 67 -2 143 1
169 6 53 10 164 11 203 2 14 -3 57 -8 95 -10 39 -2 75 -6 81 -8 7 -3 21 2 33
11 14 9 32 12 47 9 13 -4 33 -2 43 3 12 7 22 6 29 -1 9 -9 17 -9 34 0 43 21
178 15 178 -9 0 -13 43 -28 55 -19 6 4 72 8 148 8 76 1 142 4 148 7 5 4 15 3
22 -2 6 -4 82 -9 167 -10 218 -2 350 -10 398 -23 23 -6 106 -12 186 -14 88 -3
153 -9 167 -17 29 -15 135 -15 153 0 7 6 33 11 57 11 103 -2 235 6 247 13 7 5
49 6 93 2 69 -6 79 -5 79 9 0 9 7 16 16 16 9 0 14 7 12 18 -4 18 -40 23 -70
10 -10 -5 -20 -3 -24 3 -5 8 -28 9 -73 4 -36 -4 -119 -9 -185 -11 -65 -2 -155
-8 -200 -13 -53 -6 -85 -6 -93 1 -7 5 -81 11 -165 13 -111 2 -165 7 -197 19
-25 9 -49 13 -55 8 -6 -5 -47 -5 -91 0 -44 5 -205 10 -357 12 -152 2 -310 9
-350 16 -40 7 -95 16 -121 20 -27 4 -74 6 -105 4 -31 -3 -64 -5 -72 -5 -8 0
-53 -5 -98 -11 -61 -7 -137 -7 -280 2 -212 13 -312 17 -316 12z"/>
<path d="M23005 5561 c-23 -15 -50 -59 -115 -194 -47 -97 -90 -176 -96 -177
-29 -1 -93 109 -94 161 0 38 -42 45 -78 14 -26 -23 -26 -23 -14 -85 15 -70 43
-121 98 -174 l36 -35 -27 -58 c-14 -32 -36 -76 -47 -98 -51 -95 -159 -316
-171 -352 -8 -21 -17 -45 -21 -54 -4 -9 3 -26 19 -43 20 -22 28 -25 44 -17 10
6 24 23 30 38 7 16 27 55 46 88 19 33 56 103 81 155 25 52 65 135 90 183 24
49 44 94 44 101 0 8 6 19 14 25 7 6 37 66 66 133 29 68 61 134 70 148 37 54
98 177 103 207 5 26 2 35 -13 43 -25 14 -30 13 -65 -9z"/>
<path d="M16833 5493 c-29 -41 -38 -115 -33 -261 2 -40 0 -75 -3 -78 -3 -3
-25 -8 -49 -11 -59 -8 -132 -46 -146 -77 -6 -14 -16 -26 -21 -26 -16 0 -33
-58 -33 -111 1 -42 6 -59 30 -88 41 -51 94 -78 168 -86 55 -6 71 -3 118 18 30
14 63 33 74 43 54 50 50 50 96 5 51 -50 97 -61 144 -37 18 9 32 20 32 25 0 4
15 24 33 44 17 19 46 58 62 86 17 28 33 51 37 51 3 0 12 -17 18 -37 7 -21 18
-47 25 -58 6 -11 15 -37 19 -58 4 -21 14 -41 23 -44 8 -3 27 -17 41 -30 14
-13 33 -22 41 -21 18 4 22 45 6 68 -21 29 -54 126 -65 189 -7 36 -20 82 -31
103 -10 20 -19 46 -19 58 0 15 -6 20 -28 20 -33 0 -75 -39 -67 -62 4 -9 -1
-22 -9 -31 -9 -9 -16 -20 -16 -26 0 -5 -11 -22 -24 -38 -27 -32 -66 -106 -66
-125 0 -7 -12 -21 -25 -31 -35 -25 -62 -6 -80 58 -12 39 -13 63 -4 110 22 127
22 137 8 146 -42 27 -97 -17 -85 -67 4 -13 2 -33 -4 -44 -6 -11 -12 -42 -14
-70 -2 -28 -5 -52 -7 -54 -2 -1 -23 -17 -46 -34 -106 -82 -254 -81 -288 2 -21
50 -19 57 22 100 35 36 40 38 81 32 24 -3 51 -14 60 -24 51 -54 68 -63 96 -50
25 11 27 16 22 47 -26 163 -37 296 -31 389 5 66 3 102 -3 102 -6 0 -17 3 -25
6 -9 3 -22 -6 -34 -23z"/>
<path d="M17950 5450 c-11 -7 -14 -33 -15 -112 l0 -103 -44 -3 c-25 -2 -53 -9
-64 -17 -11 -7 -25 -11 -32 -9 -44 17 -154 -56 -190 -127 -26 -48 -30 -122
-11 -172 20 -52 63 -77 134 -77 38 0 57 7 101 38 65 44 72 58 36 72 -20 8 -35
6 -67 -10 -52 -25 -70 -25 -99 -1 -22 17 -22 21 -10 73 13 60 35 86 91 111 30
14 104 23 148 18 11 -1 13 -26 11 -121 -3 -115 -2 -121 19 -136 54 -37 110 21
93 95 -5 22 -6 43 -3 46 4 3 9 27 12 53 5 42 8 47 28 45 38 -5 60 13 55 42 -4
17 -12 25 -27 25 -11 0 -29 7 -39 14 -19 15 -47 102 -47 147 0 28 -40 111 -55
116 -6 1 -17 -1 -25 -7z"/>
<path d="M22184 5422 c-36 -6 -88 -76 -154 -207 -17 -33 -39 -71 -49 -84 l-19
-25 -51 39 c-28 22 -63 56 -77 77 -26 38 -51 46 -88 32 -34 -13 -38 -41 -12
-92 24 -47 56 -80 129 -132 l36 -25 -56 -105 c-30 -58 -79 -141 -108 -185
-149 -229 -148 -227 -100 -259 38 -25 66 -7 115 76 24 40 62 102 85 138 23 36
50 81 60 100 10 19 37 65 61 102 24 37 44 69 44 72 0 3 17 31 38 62 20 31 40
62 43 68 3 6 12 22 19 36 8 14 29 54 48 90 19 36 43 80 54 98 21 34 28 107 12
121 -5 4 -19 5 -30 3z"/>
<path d="M23155 5411 c-70 -43 -112 -115 -121 -206 -4 -39 -11 -76 -16 -82
-10 -13 2 -51 39 -130 37 -79 146 -114 267 -86 110 25 219 127 160 150 -8 3
-43 -6 -77 -21 -111 -47 -171 -46 -227 1 l-31 26 68 44 c37 24 73 50 78 57 6
7 25 21 43 30 53 27 72 52 72 92 0 40 -22 66 -95 116 -49 34 -115 37 -160 9z
m125 -106 c11 -12 12 -20 4 -33 -12 -19 -143 -96 -151 -88 -9 9 19 80 45 114
22 29 30 33 56 28 17 -4 37 -13 46 -21z"/>
<path d="M3223 5340 c-3 -10 -20 -28 -39 -39 -19 -11 -34 -24 -34 -29 0 -5
-18 -28 -40 -51 -22 -22 -40 -46 -40 -52 0 -6 -14 -31 -32 -57 -48 -69 -148
-257 -148 -278 0 -15 49 -36 70 -29 17 5 50 75 50 107 0 8 7 21 15 28 8 7 15
22 15 35 0 12 17 46 38 76 56 80 83 129 77 139 -3 5 19 38 50 74 30 36 55 72
55 81 0 22 -31 18 -37 -5z"/>
<path d="M14192 5298 c-22 -35 -44 -72 -48 -83 -5 -11 -54 -89 -111 -173 -57
-84 -115 -176 -129 -205 -23 -48 -48 -96 -147 -289 -37 -74 -35 -83 20 -94 40
-8 57 17 168 233 49 95 107 197 129 227 41 55 62 88 101 156 28 49 75 120 102
153 31 39 30 82 -3 112 -15 14 -30 25 -34 25 -3 0 -25 -28 -48 -62z"/>
<path d="M7470 5338 c-41 -11 -65 -12 -100 -3 -18 5 -33 0 -53 -15 -34 -27
-34 -36 3 -55 17 -9 30 -13 30 -9 0 4 6 2 13 -4 7 -6 43 -14 79 -18 46 -4 69
-11 73 -22 8 -23 -1 -26 -27 -8 -49 35 -139 13 -200 -48 l-44 -43 -79 5 c-44
2 -88 9 -97 14 -15 7 -21 2 -35 -28 -17 -35 -17 -36 2 -50 10 -8 33 -14 50
-14 17 0 35 -4 41 -9 5 -6 40 -15 79 -21 38 -6 74 -15 80 -20 24 -20 113 -23
169 -5 52 17 58 17 74 1 24 -21 39 -20 46 2 5 13 17 18 53 19 27 1 60 2 75 2
15 0 46 7 70 15 37 12 194 26 338 30 46 2 121 32 127 52 5 15 -99 33 -147 27
l-35 -5 35 26 c19 15 34 33 32 40 -1 7 12 17 30 22 40 12 50 41 16 46 -28 5
-117 -37 -125 -58 -3 -8 -11 -13 -18 -10 -7 2 -31 -7 -55 -20 -23 -13 -46 -21
-52 -18 -6 4 -7 26 -3 54 8 60 0 90 -26 90 -14 0 -21 -9 -26 -31 -3 -17 -12
-33 -20 -36 -8 -3 -12 -12 -9 -20 7 -16 -22 -58 -73 -109 -29 -28 -37 -32 -55
-22 -67 35 -112 116 -102 184 8 65 -5 84 -57 83 -23 -1 -58 -5 -77 -11z m15
-213 c34 -14 54 -39 41 -52 -11 -12 -194 -14 -202 -2 -3 6 6 24 22 40 32 33
82 39 139 14z"/>
<path d="M2040 5330 c-47 -5 -161 -12 -255 -15 -161 -6 -330 -26 -380 -45 -12
-5 -38 -5 -57 -1 -19 5 -44 4 -58 -2 -14 -6 -56 -11 -95 -13 -248 -10 -294
-14 -325 -23 -19 -6 -47 -11 -63 -11 -34 0 -106 -35 -114 -56 -10 -27 15 -43
50 -33 18 5 49 9 69 9 21 0 59 7 85 17 38 13 92 16 258 18 206 2 335 11 345
25 5 8 244 30 373 35 43 2 106 6 140 10 34 4 94 9 132 11 39 2 77 4 85 5 20 1
152 -19 213 -33 31 -6 79 -7 135 -2 48 5 128 7 177 5 200 -9 210 -8 213 16 3
18 -3 23 -35 28 -21 3 -52 9 -68 14 -17 4 -132 8 -255 9 -170 0 -236 4 -270
15 -25 8 -52 15 -60 16 -8 0 -46 2 -85 5 -38 2 -108 0 -155 -4z"/>
<path d="M18258 5281 c-31 -28 -32 -30 -15 -48 22 -25 21 -29 -4 -61 -16 -20
-20 -38 -18 -79 2 -29 0 -56 -4 -60 -12 -12 -7 -67 8 -87 8 -11 15 -27 15 -36
0 -17 30 -50 44 -50 4 0 14 16 22 36 11 26 15 76 16 182 0 81 4 152 8 157 4 6
5 25 3 43 -7 41 -31 42 -75 3z"/>
<path d="M20025 5249 c-70 -65 -95 -121 -95 -216 0 -56 5 -86 16 -103 19 -28
44 -50 56 -50 18 0 40 65 40 119 -1 127 45 190 142 199 57 5 76 16 76 42 0 30
-24 40 -108 47 l-79 6 -48 -44z"/>
<path d="M20555 5260 c-17 -5 -57 -32 -90 -61 -33 -28 -79 -59 -102 -70 -24
-10 -43 -23 -43 -28 0 -20 13 -41 25 -41 13 0 65 -62 65 -78 0 -16 79 -100
116 -122 43 -27 104 -21 147 14 42 34 33 62 -18 58 -26 -1 -51 4 -71 17 -40
24 -90 89 -78 100 5 5 41 14 79 20 59 10 74 17 97 44 74 86 -10 183 -127 147z"/>
<path d="M15901 5224 c-29 -15 -56 -36 -61 -48 -4 -11 -17 -29 -28 -38 -18
-15 -20 -26 -17 -116 3 -110 24 -174 59 -181 34 -6 46 26 46 126 0 121 17 166
68 181 20 6 44 10 52 10 79 -6 99 12 58 49 -18 16 -94 43 -120 43 -2 0 -28
-12 -57 -26z"/>
<path d="M18968 5211 c-56 -28 -137 -100 -144 -127 -8 -31 -18 -30 -32 1 -15
32 -98 74 -153 76 -113 4 -236 -95 -223 -181 9 -58 32 -80 116 -108 71 -24 80
-25 133 -13 79 18 119 55 138 129 11 44 16 53 22 37 4 -11 9 -27 12 -35 6 -16
12 -44 17 -75 4 -31 60 -87 79 -79 24 9 31 40 28 136 -3 117 13 148 77 148 73
0 126 -110 127 -265 0 -88 0 -89 28 -99 39 -14 58 9 69 81 11 81 -6 172 -53
270 -33 70 -45 85 -78 103 -50 25 -116 26 -163 1z m-278 -152 l37 -11 -18 -38
c-36 -75 -138 -104 -166 -49 -18 35 -16 53 10 76 35 33 78 40 137 22z"/>
<path d="M15335 5205 c-22 -9 -49 -24 -59 -35 -20 -19 -20 -20 3 -44 13 -14
21 -32 18 -40 -3 -8 -1 -60 5 -117 8 -76 8 -107 -1 -120 -15 -26 -14 -69 3
-75 11 -4 13 -40 12 -182 -1 -130 3 -186 13 -209 16 -38 22 -40 45 -14 17 19
19 38 25 313 l1 56 50 11 c62 13 99 32 167 82 71 53 92 102 83 187 -7 52 -14
69 -46 105 -20 23 -47 46 -58 52 -12 5 -24 13 -27 18 -3 5 -21 10 -40 12 -19
2 -61 6 -94 9 -41 4 -72 1 -100 -9z m154 -89 c50 -11 71 -22 102 -52 44 -43
45 -63 8 -136 -23 -45 -109 -91 -161 -86 l-33 3 -7 75 c-14 155 -17 194 -12
202 7 11 28 10 103 -6z"/>
<path d="M3560 5139 c-14 -11 -49 -35 -77 -54 -29 -19 -53 -39 -53 -45 0 -5
-15 -10 -34 -10 -25 0 -41 -7 -58 -27 -13 -16 -46 -46 -73 -67 -43 -34 -76
-66 -139 -136 -38 -42 -48 -68 -34 -89 17 -28 30 -26 50 7 19 31 91 106 148
154 22 18 40 40 40 50 0 10 7 18 15 18 9 0 27 11 41 25 14 14 29 25 33 25 4 0
16 10 27 21 10 12 44 40 74 62 56 40 80 64 80 79 0 13 -13 9 -40 -13z"/>
<path d="M19507 5115 c-20 -14 -37 -27 -37 -29 0 -10 33 -66 38 -66 4 0 46 5
95 10 71 8 93 8 115 -4 25 -13 46 -10 70 10 2 1 -3 15 -12 31 -12 25 -28 33
-90 51 -97 29 -133 28 -179 -3z"/>
<path d="M16264 5114 c-23 -8 -54 -28 -69 -44 -25 -26 -27 -33 -21 -75 9 -56
39 -81 79 -66 21 8 26 17 29 53 3 41 5 44 45 57 33 12 47 12 68 3 30 -14 43
-41 26 -52 -7 -4 -18 -18 -24 -30 -18 -34 -83 -64 -141 -64 -57 -1 -70 -21
-28 -42 13 -6 29 -17 35 -23 26 -26 150 -1 163 34 3 8 12 15 18 15 23 0 58 61
60 104 3 57 -11 87 -53 115 -45 29 -129 36 -187 15z"/>
<path d="M23922 5017 c-41 -44 -17 -117 38 -117 33 0 60 39 60 86 0 52 -60 71
-98 31z"/>
<path d="M11460 4993 c-60 -31 -150 -108 -150 -128 0 -8 -7 -21 -16 -30 -39
-39 -18 -156 31 -175 14 -5 25 -16 25 -23 0 -7 15 -20 32 -28 18 -8 34 -21 36
-29 2 -15 -42 -91 -78 -135 -9 -11 -32 -55 -51 -97 -32 -74 -49 -92 -64 -67
-4 6 -14 7 -24 4 -9 -4 -33 -11 -55 -16 -35 -9 -41 -7 -82 26 -24 20 -44 42
-44 49 0 14 -157 166 -171 166 -5 0 -9 7 -9 15 0 9 9 15 23 15 27 0 43 16 74
76 44 81 25 272 -28 289 -10 4 -19 13 -19 21 0 8 -8 14 -19 14 -10 0 -37 7
-61 15 -79 28 -200 16 -200 -20 0 -7 -10 -15 -22 -18 -13 -4 -42 -26 -65 -49
-41 -42 -42 -45 -32 -82 8 -27 7 -42 0 -49 -13 -13 -15 -47 -3 -47 4 0 16 -17
27 -37 11 -20 31 -50 44 -66 21 -25 22 -31 11 -53 -7 -13 -17 -24 -21 -24 -11
0 -121 -91 -186 -154 -54 -51 -66 -75 -37 -72 9 0 19 -5 21 -11 3 -9 -9 -13
-40 -13 -56 0 -101 -16 -135 -46 -25 -24 -25 -25 -6 -39 18 -14 42 -13 119 3
17 3 34 5 40 3 49 -13 102 -18 118 -10 12 7 22 6 33 -6 14 -14 46 -21 69 -15
6 2 26 5 45 6 19 2 51 5 70 7 40 4 80 23 80 38 0 6 5 7 10 4 6 -4 21 0 34 9
24 15 96 12 96 -4 0 -26 137 -41 146 -16 4 10 28 14 88 15 70 1 85 -2 100 -18
16 -18 52 -22 86 -8 26 9 97 17 103 11 3 -4 62 -8 129 -9 99 -2 126 0 140 12
15 14 26 14 76 3 35 -7 82 -9 113 -6 30 4 88 9 129 12 46 4 81 11 92 21 10 9
25 12 37 8 25 -8 61 10 61 30 0 15 -15 19 -57 16 -11 -1 -24 2 -27 7 -6 11
-88 6 -143 -9 -24 -6 -56 -9 -72 -6 -16 4 -44 2 -62 -3 -21 -6 -46 -6 -67 -1
-21 6 -55 6 -92 -1 -37 -6 -84 -7 -128 -1 -39 5 -79 6 -90 2 -18 -7 -87 3 -98
14 -10 9 20 92 42 119 13 16 25 36 29 46 3 11 17 24 30 30 14 7 30 24 36 39
l12 28 7 -27 c5 -15 7 -70 7 -122 l-2 -94 35 -5 c19 -2 40 -2 47 0 17 6 25 68
17 130 l-7 55 29 -15 c16 -9 58 -43 94 -76 35 -34 84 -70 108 -81 41 -19 46
-20 68 -5 35 23 30 41 -20 66 -25 12 -56 37 -69 56 -14 19 -53 51 -87 71 -51
30 -65 44 -76 77 -7 21 -12 40 -11 41 1 1 16 10 33 20 85 51 120 155 80 238
-27 57 -92 122 -134 134 -60 18 -93 15 -152 -15z m161 -99 c54 -48 65 -125 25
-171 -23 -26 -29 -28 -95 -27 -39 1 -77 7 -85 13 -10 9 -21 8 -41 -1 -25 -11
-29 -10 -47 12 -42 52 1 131 97 176 58 27 115 26 146 -2z m-819 -29 c93 -15
117 -145 43 -232 -63 -73 -131 -87 -178 -36 -12 14 -34 36 -49 50 -77 72 -48
180 59 219 21 7 49 12 63 9 14 -2 42 -6 62 -10z m-155 -500 c0 -72 3 -88 19
-99 17 -13 15 -15 -26 -26 -30 -8 -65 -9 -110 -4 -36 5 -80 8 -97 7 -18 -1
-33 3 -33 8 0 24 90 113 147 145 35 20 65 40 69 45 3 5 11 9 18 9 9 0 13 -22
13 -85z m141 68 c15 -9 43 -34 63 -55 20 -21 42 -38 49 -38 14 0 60 -39 60
-50 0 -14 -63 -20 -77 -8 -8 7 -42 13 -74 14 -33 0 -62 4 -65 7 -7 6 5 147 12
147 3 0 17 -8 32 -17z"/>
<path d="M12567 4894 c-3 -4 -31 -6 -61 -5 -30 0 -67 -4 -82 -9 -24 -10 -25
-12 -12 -31 12 -19 23 -21 108 -20 201 2 406 14 417 23 8 7 22 5 44 -6 17 -9
36 -13 41 -10 5 3 15 1 22 -5 13 -11 103 -33 145 -35 44 -2 32 20 -17 32 -26
7 -72 24 -101 37 -50 24 -66 25 -275 30 -123 3 -226 2 -229 -1z"/>
<path d="M6246 4863 c-1 -2 -44 -3 -94 -4 -51 -1 -95 -6 -98 -11 -4 -6 3 -19
14 -31 20 -20 24 -20 134 -8 133 15 133 15 220 10 67 -3 90 3 72 20 -9 10
-240 32 -248 24z"/>
<path d="M6710 4845 c-11 -13 -7 -17 25 -30 21 -10 45 -13 58 -9 12 4 33 8 47
8 14 1 26 8 28 17 2 12 -8 18 -39 22 -24 3 -51 1 -62 -4 -12 -7 -22 -7 -31 0
-10 8 -17 7 -26 -4z"/>
<path d="M5198 4805 c-16 -13 -28 -27 -28 -30 0 -4 11 -21 25 -39 25 -33 33
-66 16 -66 -14 0 -58 -72 -74 -121 -12 -35 -13 -56 -6 -89 11 -50 8 -56 -21
-40 -11 6 -44 13 -73 14 -29 2 -71 9 -95 16 -49 15 -60 9 -42 -24 13 -25 78
-56 117 -56 11 0 26 -7 33 -15 6 -7 32 -17 57 -21 25 -4 58 -13 72 -20 14 -8
36 -14 48 -14 13 0 41 -7 63 -16 22 -9 51 -13 64 -10 19 5 30 -1 51 -25 18
-23 23 -35 16 -42 -6 -6 -11 -23 -11 -38 0 -25 -3 -27 -70 -33 -57 -6 -78 -13
-112 -39 -54 -42 -66 -61 -49 -81 18 -22 43 -20 86 5 30 18 45 20 98 15 88 -9
196 -18 234 -19 43 -1 127 51 131 82 4 23 2 23 -60 17 -34 -3 -79 -8 -98 -12
-27 -4 -41 -1 -57 13 -21 17 -22 22 -13 98 l9 80 56 50 c97 87 111 127 80 220
-24 70 -73 135 -114 152 -20 9 -76 20 -125 25 -85 8 -90 10 -128 48 -21 22
-42 40 -46 40 -4 0 -19 -12 -34 -25z m244 -155 c43 -8 64 -19 96 -49 28 -27
37 -42 31 -52 -5 -8 -6 -28 -3 -45 5 -26 0 -35 -35 -67 -23 -20 -47 -37 -55
-37 -12 0 -66 111 -66 137 0 6 -9 32 -20 58 -11 26 -18 51 -14 56 6 11 -1 11
66 -1z m-127 -113 c4 -23 13 -49 20 -57 7 -8 15 -33 17 -55 2 -32 0 -39 -12
-36 -8 3 -28 5 -45 6 -40 2 -66 45 -61 100 2 22 4 48 5 58 1 9 11 27 23 39 20
20 22 20 34 4 7 -10 16 -37 19 -59z"/>
<path d="M9180 4789 c-41 -4 -88 -13 -104 -19 -20 -7 -31 -7 -36 -1 -4 7 -14
6 -30 -2 -14 -7 -59 -14 -100 -15 -41 -1 -127 -5 -190 -8 -130 -8 -240 -9
-318 -5 -50 3 -85 -10 -69 -25 4 -4 70 -9 147 -10 78 -2 145 -6 150 -9 5 -3
11 -1 14 4 3 4 36 6 74 3 51 -3 75 -1 93 11 33 20 248 33 484 29 206 -4 241
-3 265 7 l25 9 -26 10 c-14 6 -76 12 -137 14 -61 3 -115 7 -118 11 -8 8 -19 8
-124 -4z"/>
<path d="M2668 4757 c-15 -12 -35 -39 -43 -59 -13 -32 -20 -38 -46 -38 -46 0
-157 -100 -164 -149 -4 -20 -13 -48 -21 -63 -8 -14 -14 -46 -14 -71 0 -37 6
-51 40 -89 21 -25 54 -51 72 -58 59 -23 63 -32 63 -117 0 -77 0 -78 -30 -87
-17 -5 -39 -12 -50 -17 -11 -4 -37 -13 -57 -19 -45 -14 -92 -68 -76 -87 16
-20 42 -15 69 13 20 21 31 25 64 22 22 -3 53 -1 69 3 16 5 62 3 105 -3 100
-15 113 -14 161 11 27 14 59 21 95 21 67 0 72 15 18 59 -43 35 -79 39 -114 13
-61 -45 -108 -51 -143 -19 -21 19 -23 29 -18 75 5 58 -6 45 236 282 37 36 69
76 72 90 3 14 10 34 16 46 14 30 6 68 -15 72 -11 2 -27 -8 -40 -25 -12 -15
-37 -44 -55 -63 l-33 -35 -17 25 c-9 14 -37 46 -61 72 -42 46 -43 49 -36 95 4
27 12 54 17 61 13 16 -5 62 -24 62 -7 0 -25 -10 -40 -23z m-77 -251 c-5 -6
-12 -38 -16 -71 -4 -33 -8 -73 -10 -90 -2 -16 -4 -33 -4 -37 -2 -18 -41 -6
-60 18 -45 58 -17 178 49 211 21 11 27 10 37 -4 8 -10 9 -21 4 -27z m127 -56
c6 -22 12 -46 12 -54 0 -12 -40 -46 -55 -46 -7 0 -6 56 1 103 8 48 26 47 42
-3z"/>
<path d="M2240 4763 c-14 -2 -41 -9 -60 -15 -19 -6 -53 -12 -75 -13 -22 -1
-56 -6 -75 -13 -59 -19 -130 -16 -225 10 -65 19 -110 25 -160 23 -86 -3 -172
-18 -188 -34 -6 -6 -27 -11 -46 -11 -20 -1 -54 -7 -76 -15 -22 -8 -68 -18
-101 -21 -72 -8 -89 -16 -81 -38 7 -18 49 -20 112 -6 22 5 73 16 114 24 40 9
78 19 85 24 11 9 51 19 114 26 18 3 51 7 73 11 36 6 81 -2 244 -44 38 -9 283
12 312 27 12 7 35 12 52 12 32 0 124 44 114 54 -13 13 -43 5 -43 -11 0 -15 -1
-15 -18 0 -19 17 -25 18 -72 10z"/>
<path d="M3984 4716 c-3 -8 -1 -23 5 -34 8 -16 28 -22 98 -31 49 -7 107 -16
131 -21 55 -13 149 -13 157 0 3 5 20 8 38 5 40 -4 79 4 71 16 -3 5 -40 9 -82
8 -72 -1 -315 31 -354 46 -10 4 -18 11 -18 16 0 15 -40 10 -46 -5z"/>
<path d="M6548 4469 c-58 -22 -31 -34 77 -36 108 -1 134 9 68 26 -65 17 -117
21 -145 10z"/>
<path d="M3714 4433 c-15 -22 -19 -49 -20 -129 -1 -86 -4 -106 -22 -132 -32
-44 -39 -151 -15 -221 23 -71 124 -181 165 -181 47 0 58 -9 58 -50 l0 -37 -62
-13 c-35 -6 -71 -14 -80 -16 -22 -6 -80 -98 -73 -116 4 -9 18 -21 32 -27 23
-11 29 -9 57 18 45 43 92 59 146 49 25 -5 70 -10 100 -12 30 -3 72 -7 92 -11
46 -9 101 9 150 47 32 25 36 32 27 50 -7 13 -16 17 -27 13 -9 -4 -50 -11 -89
-16 -65 -8 -77 -7 -113 11 -43 22 -54 45 -48 101 3 31 7 35 46 44 49 12 88 54
125 136 23 51 77 222 77 244 0 6 16 30 35 54 42 53 45 87 9 103 -23 11 -28 9
-50 -18 -13 -16 -26 -39 -30 -50 -3 -12 -17 -27 -30 -35 -24 -12 -27 -10 -63
32 l-39 44 -98 0 c-55 0 -108 -4 -119 -8 -18 -7 -22 -1 -38 63 -25 93 -66 118
-103 63z m268 -223 c77 -22 128 -87 128 -165 0 -55 -18 -93 -61 -129 -108 -91
-225 -86 -282 12 -28 48 -34 140 -12 186 38 80 136 121 227 96z"/>
<path d="M7218 4393 c-45 -5 -49 -19 -10 -34 15 -6 35 -15 44 -20 10 -5 31 -9
47 -9 17 0 33 -5 36 -10 4 -6 23 -10 43 -9 20 0 69 -5 107 -11 146 -23 151
-23 137 -9 -7 8 -27 14 -44 15 -17 1 -34 7 -38 14 -4 7 -17 10 -29 7 -11 -3
-25 1 -31 8 -6 8 -41 17 -78 21 -37 4 -83 15 -102 25 -19 11 -37 18 -40 17 -3
-1 -22 -3 -42 -5z"/>
<path d="M17486 4353 c-3 -3 -39 -5 -81 -5 -60 1 -82 -3 -112 -20 -20 -12 -31
-24 -24 -26 6 -2 19 2 28 10 10 8 47 14 102 15 47 1 106 3 131 5 25 2 48 -1
51 -6 4 -5 15 -6 25 -2 10 4 14 10 8 15 -11 10 -120 22 -128 14z"/>
<path d="M17830 4284 c0 -8 11 -14 25 -14 14 0 25 4 25 9 0 5 -11 11 -25 13
-17 4 -25 1 -25 -8z"/>
<path d="M17922 4274 c9 -8 107 -35 186 -50 38 -7 45 11 10 26 -40 16 -209 37
-196 24z"/>
<path d="M18517 4274 c-4 -5 -36 -9 -70 -10 -137 -4 -288 -17 -293 -25 -5 -8
12 -11 83 -13 11 -1 24 -4 28 -8 8 -8 70 0 108 14 20 8 31 7 42 -2 8 -6 18 -9
24 -6 10 7 158 8 318 3 84 -3 98 -1 79 9 -27 13 -174 35 -226 34 -19 -1 -46 1
-60 5 -14 3 -29 3 -33 -1z"/>
<path d="M20152 4240 c-13 -5 -66 -16 -118 -24 -101 -15 -110 -18 -99 -35 9
-16 126 -13 229 5 75 13 115 14 253 4 91 -5 169 -8 174 -4 21 12 -14 36 -44
30 -21 -4 -33 -1 -41 9 -9 13 -42 17 -171 21 -96 2 -169 0 -183 -6z"/>
<path d="M12942 4199 c-49 -11 -112 -34 -150 -55 -88 -49 -232 -195 -257 -262
-10 -26 -25 -58 -34 -72 -13 -19 -16 -53 -15 -170 1 -144 1 -145 32 -201 18
-31 39 -62 47 -69 8 -7 15 -18 15 -25 0 -20 97 -105 119 -105 11 0 35 -9 53
-20 18 -11 40 -20 49 -20 8 0 46 -15 83 -34 37 -19 101 -42 142 -52 69 -16 75
-19 70 -39 -12 -47 -27 -219 -21 -242 6 -27 -10 -55 -85 -143 -26 -30 -63 -80
-83 -110 -47 -71 -103 -144 -145 -188 -18 -19 -42 -48 -54 -66 -13 -17 -28
-38 -35 -46 -6 -8 -48 -62 -92 -120 -44 -58 -97 -124 -118 -148 -59 -67 -66
-96 -28 -114 37 -16 66 1 117 69 24 32 50 66 59 76 9 10 25 33 35 52 10 19 22
35 26 35 6 0 71 81 145 182 12 16 38 48 58 70 20 22 49 59 64 83 35 56 120
150 128 142 7 -8 7 -252 0 -265 -3 -4 -8 -55 -12 -113 -3 -57 -7 -120 -10
-139 -3 -19 -1 -98 5 -175 19 -274 21 -464 5 -498 -8 -18 -25 -62 -39 -100
-24 -64 -90 -193 -126 -247 -9 -14 -23 -41 -30 -60 -7 -19 -19 -42 -25 -50 -7
-8 -28 -42 -46 -75 -18 -33 -45 -76 -61 -96 -15 -20 -28 -39 -28 -42 0 -4 -31
-58 -70 -121 -38 -64 -70 -118 -70 -121 0 -4 -18 -27 -39 -53 -21 -26 -42 -56
-45 -68 -9 -28 25 -59 56 -50 24 7 81 75 117 141 41 75 91 155 161 255 10 15
30 51 45 80 15 30 42 75 59 100 34 50 91 155 168 308 l51 104 46 -49 c45 -48
135 -214 212 -393 18 -41 42 -88 54 -105 23 -32 39 -61 100 -188 20 -43 47
-90 60 -105 12 -15 32 -46 44 -69 11 -23 35 -59 53 -78 26 -31 36 -36 67 -33
34 3 36 5 38 40 2 27 -5 43 -24 64 -14 15 -39 50 -56 78 -17 28 -41 65 -53 81
-12 17 -47 82 -77 145 -31 63 -74 143 -96 178 -23 34 -41 66 -41 71 0 4 -13
35 -30 67 -16 32 -30 64 -30 71 0 15 -53 105 -89 153 -15 19 -32 46 -39 60 -7
14 -29 43 -48 65 -61 69 -62 76 -64 260 -1 94 -3 184 -6 200 -7 45 -6 375 1
415 3 19 8 113 10 209 2 96 8 178 14 184 6 6 29 -10 63 -44 75 -74 164 -156
182 -166 8 -4 28 -26 46 -48 29 -37 211 -232 343 -367 67 -68 103 -86 125 -64
13 13 14 21 3 57 -9 31 -40 71 -119 153 -58 61 -120 122 -136 136 -17 14 -67
63 -111 110 -44 47 -84 88 -89 91 -5 4 -77 74 -159 155 -138 137 -151 152
-152 186 0 21 -4 40 -7 44 -4 3 -3 17 3 31 5 13 9 41 9 61 0 20 3 54 6 74 6
35 10 38 59 53 29 8 62 15 72 15 10 0 54 21 97 48 43 26 98 58 121 72 55 32
121 110 153 179 27 58 42 152 31 191 -4 14 -7 43 -8 66 -1 45 -31 142 -67 219
-27 59 -160 193 -222 225 -23 12 -45 26 -48 31 -3 5 -16 9 -29 9 -13 0 -27 4
-30 10 -10 15 -75 29 -166 35 -46 3 -93 7 -104 9 -11 2 -58 -5 -103 -15z m266
-107 c20 -10 64 -24 97 -32 45 -9 73 -24 118 -60 128 -104 184 -215 194 -384
5 -94 4 -109 -16 -151 -81 -172 -359 -311 -531 -265 -19 5 -55 14 -80 21 -71
19 -89 30 -126 81 -40 54 -51 58 -64 24 -10 -28 -32 -44 -38 -28 -2 6 -25 27
-51 46 -26 19 -53 47 -61 63 -8 15 -19 35 -25 43 -7 8 -19 35 -28 60 -20 55
-23 217 -4 270 19 54 79 149 99 156 9 3 31 23 49 45 33 41 97 77 158 86 20 4
45 12 56 18 11 7 56 13 99 14 44 0 81 3 84 6 10 9 33 5 70 -13z"/>
<path d="M19090 4210 c0 -6 17 -10 38 -11 20 -1 58 -3 83 -5 27 -2 52 1 62 9
15 10 0 12 -83 14 -61 2 -100 -1 -100 -7z"/>
<path d="M8763 4183 c-39 -15 8 -30 117 -38 30 -2 71 -9 91 -16 21 -6 53 -9
75 -5 22 4 60 7 87 6 26 0 47 4 47 9 0 15 -28 20 -130 20 -52 0 -121 7 -153
16 -57 15 -110 18 -134 8z"/>
<path d="M1555 4109 c-60 -11 -114 -21 -120 -23 -9 -3 -90 9 -197 29 -36 7
-38 6 -38 -18 0 -43 29 -50 191 -50 134 0 149 2 182 22 20 12 42 21 49 20 18
-4 58 11 58 21 0 17 -16 17 -125 -1z"/>
<path d="M14698 4009 c-7 -3 -46 -10 -87 -13 -91 -9 -240 -41 -254 -55 -7 -7
-6 -15 2 -25 12 -15 76 -13 116 4 42 17 62 22 125 27 36 3 72 9 80 13 8 5 35
5 59 0 25 -4 50 -6 57 -3 17 6 210 -34 255 -53 20 -9 42 -14 50 -13 8 2 45 -9
83 -24 38 -16 91 -31 118 -34 26 -3 48 -10 48 -14 0 -12 87 -11 95 1 3 6 17
10 31 10 14 0 39 7 56 16 42 22 239 33 262 15 6 -4 52 -16 101 -25 50 -9 109
-21 131 -26 50 -11 204 10 249 34 17 9 50 16 76 16 25 0 49 4 55 9 5 6 29 11
54 13 31 2 45 7 45 17 0 12 -19 14 -105 12 -63 -1 -113 -7 -125 -15 -18 -12
-73 -20 -212 -32 -35 -3 -53 0 -53 7 0 7 -10 9 -24 7 -13 -3 -49 -2 -78 2
-189 26 -358 17 -427 -22 -19 -10 -41 -16 -50 -12 -9 3 -54 8 -101 11 -55 2
-90 9 -100 18 -9 8 -25 15 -36 15 -10 0 -34 9 -52 20 -18 11 -54 23 -80 26
-26 4 -56 12 -67 19 -12 7 -52 18 -90 24 -39 6 -98 17 -132 24 -34 7 -68 10
-75 6z"/>
<path d="M14575 3900 c-8 -13 12 -40 30 -40 8 0 10 9 7 25 -4 25 -26 34 -37
15z"/>
<path d="M8004 3775 c-9 -14 -26 -25 -38 -25 -13 0 -49 -28 -96 -75 -44 -45
-92 -82 -120 -94 -25 -11 -54 -29 -64 -40 -11 -12 -25 -21 -31 -21 -18 0 -119
-118 -164 -193 -17 -27 -20 -41 -13 -50 6 -7 7 -18 2 -26 -7 -12 -15 -11 -51
3 -82 33 -252 54 -420 52 -85 -2 -160 -6 -167 -10 -7 -4 -12 -2 -12 4 0 7 -17
10 -44 9 -53 -3 -72 10 -81 57 -8 43 -64 193 -79 214 -6 8 -22 35 -35 60 -31
58 -44 72 -63 65 -31 -12 -38 -50 -17 -91 10 -21 19 -44 19 -51 0 -8 7 -16 15
-19 8 -4 15 -17 15 -30 0 -13 11 -47 23 -76 13 -30 26 -75 29 -101 l6 -48 -34
3 c-18 1 -36 -1 -40 -5 -16 -16 -40 -5 -64 29 -14 20 -61 73 -105 118 -44 45
-93 101 -109 124 -42 62 -51 67 -81 48 -29 -19 -32 -38 -9 -56 8 -8 21 -28 29
-46 12 -29 43 -65 151 -174 47 -49 34 -60 -72 -60 -44 0 -94 -4 -110 -9 -16
-5 -50 -12 -76 -16 -42 -5 -48 -9 -48 -30 0 -37 30 -48 100 -35 33 6 79 10
102 10 79 -2 383 10 408 15 14 4 77 8 140 11 63 2 133 7 155 10 52 6 61 6 180
0 153 -8 173 -11 275 -38 87 -23 103 -24 183 -15 59 7 102 7 132 0 34 -8 57
-7 97 4 29 8 59 14 66 13 17 -2 73 -2 167 -1 44 1 116 2 160 2 110 1 125 3
162 25 35 20 42 34 19 34 -7 0 -19 15 -26 33 -15 39 -93 115 -127 123 -13 4
-30 19 -38 34 -8 15 -28 33 -45 40 -16 7 -30 16 -30 20 0 12 -78 23 -175 25
-117 2 -114 1 -79 33 53 47 92 72 113 72 11 0 38 9 59 20 36 19 41 19 68 5 16
-8 54 -22 84 -32 30 -9 66 -24 80 -33 14 -9 40 -17 59 -18 19 -2 39 -6 45 -11
6 -5 30 -11 54 -15 24 -3 51 -10 60 -15 28 -15 55 -24 87 -28 17 -1 38 -4 49
-5 10 -2 23 5 30 15 16 26 -35 69 -110 93 -33 10 -72 26 -89 35 -16 10 -64 22
-104 29 -41 6 -80 14 -85 18 -6 4 -36 16 -68 26 -31 10 -74 34 -95 52 -47 41
-86 44 -109 9z m-4 -344 c25 -5 65 -18 90 -29 53 -24 170 -108 170 -122 0 -16
-29 -24 -43 -12 -20 17 -154 17 -252 -1 -118 -20 -351 -32 -359 -18 -11 17 19
63 78 119 53 50 61 54 134 67 80 14 106 13 182 -4z"/>
<path d="M17264 3727 c-13 -7 -11 -13 11 -35 l27 -27 220 0 c120 -1 222 3 224
7 3 4 38 8 77 8 44 1 79 6 89 14 16 11 8 14 -55 19 -39 3 -157 5 -262 3 -104
-1 -194 1 -200 5 -15 11 -115 15 -131 6z"/>
<path d="M9920 3683 c-8 -2 -64 -8 -125 -13 -164 -15 -209 -21 -220 -31 -15
-15 14 -29 61 -29 22 0 45 5 52 12 7 7 42 13 80 14 37 1 91 7 120 13 89 18
402 1 454 -25 15 -8 39 -14 55 -14 15 0 45 -6 68 -14 110 -38 148 -46 201 -40
69 9 65 25 -6 31 -30 2 -66 8 -80 13 -22 8 -93 23 -175 37 -16 3 -34 9 -40 13
-5 4 -28 8 -51 7 -22 0 -46 3 -53 7 -7 5 -63 10 -125 13 -61 2 -131 5 -156 6
-25 2 -52 2 -60 0z"/>
<path d="M11900 3610 c-57 -19 -124 -30 -174 -30 -67 0 -95 -23 -50 -41 16 -6
40 -8 54 -5 14 3 54 10 90 17 36 6 79 17 95 25 17 8 59 16 95 19 81 5 79 5 55
15 -25 11 -131 11 -165 0z"/>
<path d="M18570 3611 c-8 -6 -26 -11 -40 -12 -45 -2 83 -28 135 -27 61 0 183
-16 245 -33 25 -6 86 -13 135 -15 50 -1 106 -7 126 -12 22 -6 43 -6 53 0 24
14 10 28 -28 28 -18 0 -36 3 -39 7 -8 7 -19 9 -127 19 -41 3 -80 11 -87 16
-24 19 -351 44 -373 29z"/>
<path d="M19843 3523 c-26 -5 -38 -32 -18 -39 35 -14 417 -5 432 10 3 2 -15
10 -38 17 -44 12 -90 14 -209 9 -36 -1 -83 0 -105 3 -22 3 -50 3 -62 0z"/>
<path d="M15375 3489 c-60 -5 -132 -11 -160 -14 -27 -2 -108 -9 -180 -15 -71
-5 -152 -17 -178 -26 -36 -12 -52 -13 -60 -5 -24 24 -110 1 -105 -28 3 -13 15
-16 58 -14 123 5 186 10 210 16 14 3 52 8 85 11 33 2 73 9 88 15 16 6 57 11
92 11 35 0 66 4 69 9 4 5 81 10 174 11 221 1 252 0 271 -9 9 -5 36 -12 61 -16
46 -7 87 -16 175 -40 28 -8 66 -17 85 -19 19 -3 53 -12 75 -20 22 -9 54 -15
70 -16 17 0 45 -9 63 -20 18 -11 44 -20 59 -20 29 0 97 -17 130 -32 23 -11 47
-3 38 13 -4 5 -19 9 -36 9 -18 0 -33 7 -41 20 -7 11 -21 20 -30 20 -10 0 -47
11 -84 25 -36 14 -81 25 -100 25 -18 0 -35 4 -39 9 -3 5 -19 12 -35 16 -17 4
-43 13 -58 20 -30 16 -138 35 -194 35 -20 0 -38 4 -40 9 -1 6 -73 12 -158 15
-85 2 -164 7 -175 9 -11 3 -69 1 -130 -4z"/>
<path d="M2040 3460 c-11 -7 -3 -14 35 -30 61 -26 172 -38 204 -21 38 21 13
34 -53 29 -51 -4 -66 -2 -85 13 -25 20 -76 25 -101 9z"/>
<path d="M2610 3425 c0 -8 17 -19 43 -26 23 -6 49 -17 57 -24 14 -12 56 -23
168 -42 21 -3 32 -1 32 7 0 6 11 3 26 -9 18 -14 41 -21 70 -21 23 0 46 -4 49
-10 3 -5 31 -10 61 -10 43 0 54 3 54 16 0 11 -5 14 -16 10 -8 -3 -34 3 -57 14
-22 11 -52 20 -66 20 -41 0 -195 21 -211 29 -8 4 -42 16 -75 25 -33 10 -73 22
-89 27 -39 12 -46 11 -46 -6z"/>
<path d="M1362 3399 c4 -29 46 -38 188 -37 134 0 204 10 208 28 2 13 -21 15
-157 17 -88 0 -179 4 -201 8 -40 7 -41 6 -38 -16z"/>
<path d="M1300 3366 c0 -22 23 -36 40 -25 13 8 12 12 -4 24 -25 19 -36 19 -36
1z"/>
<path d="M5680 3347 l-35 -10 45 -8 c25 -4 58 -12 74 -18 20 -8 33 -8 39 -2 7
7 4 12 -9 16 -10 4 -32 12 -49 19 -22 9 -40 10 -65 3z"/>
<path d="M17490 3215 c-25 -30 4 -39 113 -39 115 0 222 14 222 29 0 12 -194
26 -214 15 -8 -4 -28 -4 -45 1 -44 13 -62 11 -76 -6z"/>
<path d="M4332 3144 c3 -17 112 -60 173 -70 17 -2 59 -9 95 -14 36 -6 71 -12
78 -15 7 -3 23 0 35 7 12 6 48 11 80 12 93 0 63 21 -34 23 -126 2 -176 10
-272 43 -99 34 -160 40 -155 14z"/>
<path d="M2970 3111 c0 -11 38 -21 56 -14 26 10 14 23 -21 23 -19 0 -35 -4
-35 -9z"/>
<path d="M18423 3095 c-3 -9 -3 -19 1 -22 10 -11 118 -43 143 -43 12 0 25 -4
28 -10 8 -13 75 -13 75 0 0 5 -7 7 -15 4 -8 -4 -15 -1 -15 5 0 16 -44 42 -107
63 -68 22 -102 23 -110 3z"/>
<path d="M3547 3093 c-16 -15 -5 -24 25 -21 41 4 50 28 11 28 -17 0 -33 -3
-36 -7z"/>
<path d="M10043 2956 c2 -5 19 -11 38 -12 121 -6 157 -6 167 0 6 3 13 2 17 -4
4 -6 11 -7 17 -4 23 15 -40 27 -140 29 -64 1 -101 -2 -99 -9z"/>
<path d="M10325 2959 c-11 -18 -1 -20 106 -24 57 -3 146 -7 197 -10 75 -4 92
-3 92 9 0 15 -86 30 -151 26 -19 -1 -36 -1 -39 0 -17 7 -78 7 -92 -1 -10 -6
-19 -5 -23 1 -8 13 -82 13 -90 -1z"/>
<path d="M10925 2956 c-11 -8 -18 -16 -15 -19 10 -9 71 6 67 17 -6 17 -30 18
-52 2z"/>
<path d="M10771 2951 c-49 -13 -31 -26 31 -23 79 4 98 9 78 22 -17 11 -73 11
-109 1z"/>
<path d="M11446 2862 c-11 -18 23 -39 79 -50 70 -13 207 -18 223 -8 7 4 20 3
30 -3 10 -5 24 -6 31 -2 7 5 45 9 84 10 70 1 86 5 74 17 -10 10 -351 19 -366
10 -8 -5 -77 16 -87 27 -10 9 -62 9 -68 -1z"/>
<path d="M19267 2802 c-10 -2 -16 -9 -14 -15 5 -15 47 -24 116 -26 65 -1 178
-19 208 -33 22 -11 43 -4 43 13 0 5 -10 9 -22 9 -12 0 -29 7 -39 16 -12 11
-56 19 -146 28 -70 6 -136 10 -146 8z"/>
<path d="M14375 2778 c-69 -10 -118 -20 -195 -41 -37 -10 -60 -12 -72 -6 -16
9 -80 4 -100 -8 -4 -2 -2 -13 5 -23 10 -17 23 -20 93 -20 47 0 100 6 125 15
83 30 175 47 262 49 48 2 90 6 93 9 3 3 -5 11 -18 18 -28 15 -110 18 -193 7z"/>
<path d="M1495 2740 c-146 -7 -195 -18 -195 -46 0 -13 7 -15 38 -9 20 3 141 7
267 7 280 2 462 -8 545 -29 8 -2 38 -6 65 -8 67 -5 100 -11 113 -19 6 -3 74
-10 151 -15 77 -5 145 -12 152 -17 11 -6 77 -8 182 -4 37 1 72 23 62 39 -4 8
-12 8 -25 1 -13 -7 -21 -7 -25 0 -4 6 -53 10 -116 10 -134 0 -387 17 -449 30
-25 5 -67 12 -95 15 -27 3 -77 10 -110 16 -66 12 -102 15 -245 23 -52 3 -113
7 -135 9 -22 2 -103 1 -180 -3z"/>
<path d="M3548 2730 c-10 -6 -18 -15 -18 -20 0 -16 74 -30 145 -26 55 3 71 7
73 20 2 9 -2 17 -10 17 -7 1 -26 2 -43 3 -16 2 -52 6 -80 9 -31 5 -57 3 -67
-3z"/>
<path d="M15107 2734 c-15 -15 -6 -24 22 -24 17 0 32 -4 35 -9 7 -10 186 -26
261 -23 28 2 64 2 80 2 107 -1 213 2 228 6 40 12 12 23 -55 22 -74 -1 -407 17
-508 28 -30 3 -58 2 -63 -2z"/>
<path d="M16025 2689 c-10 -15 20 -23 105 -27 47 -3 96 -10 110 -17 29 -15
240 -20 240 -7 0 5 -24 10 -52 11 -76 2 -133 9 -217 26 -40 8 -77 12 -81 10
-4 -3 -29 -1 -54 4 -26 5 -49 5 -51 0z"/>
<path d="M17336 2682 c-34 -9 -58 -10 -72 -3 -14 6 -51 6 -105 -1 -62 -7 -93
-7 -117 2 -25 9 -45 9 -90 -1 -55 -11 -56 -12 -27 -20 17 -5 44 -9 60 -8 17 0
93 -2 170 -6 174 -7 259 -6 262 3 3 8 214 -1 378 -16 61 -6 126 -8 145 -6 19
3 63 1 97 -4 34 -5 68 -5 74 -1 20 12 -2 31 -32 27 -16 -3 -29 -1 -29 3 0 13
-108 22 -138 11 -16 -5 -35 -6 -43 -2 -8 5 -60 11 -114 14 -55 2 -118 8 -140
11 -73 12 -228 10 -279 -3z"/>
<path d="M5410 2670 c-8 -5 -37 -10 -63 -10 -27 0 -46 -4 -43 -9 10 -16 59
-19 107 -7 27 7 52 9 56 5 5 -5 27 -2 51 6 31 11 53 13 84 6 42 -10 58 -7 58
9 0 12 -158 12 -181 0 -11 -7 -20 -7 -24 0 -8 13 -26 13 -45 0z"/>
<path d="M6316 2672 c-2 -1 -24 -3 -50 -4 -25 0 -46 -4 -46 -8 0 -4 44 -7 98
-6 61 0 95 5 92 11 -4 9 -87 15 -94 7z"/>
<path d="M16785 2670 c-11 -5 -70 -9 -132 -9 -61 -1 -114 -5 -118 -10 -10 -17
87 -24 164 -12 42 6 102 11 134 11 31 0 57 4 57 10 0 6 -6 10 -14 10 -7 0 -26
2 -42 5 -16 2 -38 0 -49 -5z"/>
<path d="M7763 2611 c-66 -20 -74 -46 -10 -36 23 4 47 11 53 16 5 4 20 6 32 2
26 -6 29 5 5 23 -21 16 -14 16 -80 -5z"/>
<path d="M7915 2623 c-45 -11 -38 -23 13 -22 33 1 51 6 49 13 -4 12 -32 16
-62 9z"/>
<path d="M8080 2615 c-10 -12 -7 -14 24 -13 20 1 41 7 47 15 9 10 5 13 -24 13
-19 0 -40 -7 -47 -15z"/>
<path d="M8866 2605 c-18 -14 -18 -15 8 -25 15 -5 46 -10 69 -10 41 0 153 -5
332 -14 50 -3 133 -7 185 -10 87 -4 120 2 120 23 0 3 -26 6 -57 6 -32 1 -92 3
-133 5 -41 3 -83 1 -92 -4 -13 -6 -18 -4 -18 5 0 10 -14 14 -42 15 -24 1 -102
5 -174 9 -95 6 -133 5 -138 -4 -11 -16 -26 -14 -20 4 8 19 -15 19 -40 0z"/>
<path d="M7483 2602 c-7 -4 -10 -17 -6 -30 4 -19 12 -22 51 -22 63 0 163 22
159 35 -2 5 -30 10 -63 11 -32 0 -75 3 -94 7 -19 4 -40 3 -47 -1z"/>
<path d="M4466 2505 c-9 -25 -3 -28 61 -32 92 -5 147 -10 158 -14 6 -1 34 3
63 9 29 7 77 12 107 12 53 0 77 12 53 26 -6 4 -54 6 -107 4 -142 -5 -262 -2
-297 5 -24 5 -33 3 -38 -10z"/>
<path d="M5677 2444 c-13 -13 5 -24 41 -25 20 0 63 -6 95 -12 118 -25 172 -5
69 26 -56 16 -192 24 -205 11z"/>
<path d="M10228 2265 c-4 -4 -491 -18 -678 -19 -69 -1 -140 -5 -157 -9 -21 -6
-33 -5 -33 1 0 11 -1688 7 -1885 -4 -258 -15 -598 -19 -1315 -15 -256 1 -487
-2 -515 -6 -27 -5 -120 -10 -205 -12 -85 -1 -158 -5 -163 -8 -4 -2 -101 -9
-215 -14 -114 -5 -245 -13 -292 -18 -102 -12 -264 -22 -420 -27 -258 -7 -496
-17 -940 -40 -63 -3 -151 -9 -195 -15 -147 -17 -378 -29 -627 -33 -136 -2
-251 -7 -257 -10 -45 -28 -878 -18 -1161 13 -52 6 -176 12 -275 13 -174 3
-181 2 -218 -21 -45 -28 -45 -47 1 -74 29 -17 40 -18 108 -9 46 6 100 7 137 2
34 -5 139 -16 232 -24 94 -9 202 -19 240 -23 39 -4 81 -7 95 -6 49 2 247 2
370 1 146 -1 581 10 625 17 17 2 137 7 268 10 131 3 250 10 264 16 13 5 34 7
46 4 19 -4 118 5 212 20 17 2 120 7 230 9 110 3 245 8 300 12 55 3 123 5 150
4 71 -4 66 -4 220 4 77 4 156 11 175 16 20 5 114 11 210 14 96 2 236 11 310
20 74 8 218 18 320 20 102 3 273 13 380 22 107 9 263 16 345 15 194 -3 584
-10 610 -11 26 -1 198 -2 345 -2 63 0 180 3 260 6 80 4 159 6 175 6 17 0 104
5 195 11 91 5 320 10 510 10 190 0 417 0 505 1 88 0 272 0 409 0 158 -1 256 3
269 9 14 8 22 8 27 -1 5 -8 55 -11 164 -11 86 0 160 2 164 4 23 14 941 28 958
16 12 -9 703 -23 859 -18 101 4 181 2 290 -5 58 -3 177 -6 260 -5 57 0 155 0
189 -1 15 0 36 -4 45 -9 24 -12 260 -4 277 10 16 13 19 39 4 39 -6 0 -27 11
-48 23 -44 28 -110 35 -457 45 -202 6 -593 7 -635 2 -8 -1 -69 1 -135 5 -66 4
-209 6 -318 5 -111 -1 -218 3 -245 9 -43 10 -357 23 -364 16z"/>
<path d="M14638 2265 c-4 -4 -98 -9 -210 -12 -198 -5 -219 -5 -275 -1 -16 1
-62 -1 -103 -5 -63 -6 -79 -11 -97 -32 -32 -36 -30 -62 5 -66 25 -4 709 -3
742 1 60 6 715 -14 870 -27 69 -6 335 -8 425 -4 11 1 38 -1 60 -3 22 -2 137
-7 255 -10 118 -4 251 -12 295 -18 44 -6 283 -12 535 -14 250 -1 469 -5 485
-8 17 -2 149 -10 294 -16 146 -7 274 -14 285 -18 12 -3 179 -6 371 -7 193 -2
437 -3 543 -4 115 -1 200 3 211 9 11 5 26 8 33 6 14 -5 324 -17 550 -21 75 -1
140 -5 146 -9 5 -3 90 -6 188 -7 264 -1 250 -2 261 24 17 37 -3 75 -45 86 -53
14 -492 23 -1367 27 -769 4 -890 6 -1025 18 -155 13 -544 29 -790 32 -246 2
-462 10 -545 20 -22 2 -168 6 -325 8 -157 3 -330 8 -385 12 -55 4 -181 8 -280
10 -99 2 -217 7 -262 13 -69 8 -344 14 -573 13 -167 -2 -227 0 -245 4 -11 3
-24 2 -27 -1z"/>
<path d="M13285 2210 c-94 -26 -80 -71 23 -72 26 0 69 -5 96 -10 68 -15 154 6
162 38 3 12 3 32 -1 44 -6 18 -12 21 -33 15 -35 -9 -97 -11 -147 -4 -25 4 -63
0 -100 -11z"/>
</g>
</svg>
