<?xml version="1.0" standalone="no"?>
<!DOCTYPE svg PUBLIC "-//W3C//DTD SVG 20010904//EN"
 "http://www.w3.org/TR/2001/REC-SVG-20010904/DTD/svg10.dtd">
<svg version="1.0" xmlns="http://www.w3.org/2000/svg"
 width="481.722341pt" height="400.000000pt" viewBox="0 0 481.722341 400.000000"
 preserveAspectRatio="xMidYMid meet">
<metadata>
Created by potrace 1.15, written by Peter Selinger 2001-2017
</metadata>
<g transform="translate(-24.966032,408.929982) scale(0.033712,-0.033712)"
fill="#444444" stroke="none">
<path d="M5847 12080 c-3 -28 -3 -81 0 -117 6 -61 5 -66 -11 -60 -42 16 -63
17 -101 4 -27 -10 -39 -20 -37 -31 2 -9 -3 -16 -10 -16 -9 0 -9 -3 -2 -8 6 -4
13 -15 17 -24 6 -18 14 -20 99 -22 26 0 51 -5 57 -11 5 -5 13 -76 17 -157 6
-123 10 -150 25 -164 14 -12 24 -14 46 -7 l28 10 0 156 c0 155 0 156 22 153
26 -5 93 24 93 40 0 28 -14 44 -36 44 -13 0 -32 4 -42 9 -9 5 -25 12 -34 15
-10 3 -19 20 -23 43 -4 21 -13 53 -21 71 -8 18 -12 37 -9 43 9 14 -37 79 -56
79 -12 0 -18 -13 -22 -50z"/>
<path d="M4620 12095 c-69 -13 -140 -40 -140 -53 0 -5 -11 -15 -25 -22 -16 -8
-25 -22 -25 -37 0 -13 -5 -23 -10 -23 -14 0 -69 -62 -70 -78 0 -7 -6 -20 -14
-27 -18 -18 -29 -122 -17 -163 23 -79 105 -185 176 -227 49 -29 129 -42 150
-25 8 6 19 9 25 5 5 -3 13 1 16 10 4 9 13 13 23 11 22 -7 32 1 69 55 l31 46
-25 14 c-23 12 -27 11 -35 -4 -6 -9 -15 -17 -22 -17 -7 0 -25 -7 -42 -16 -16
-9 -48 -16 -70 -16 -54 -1 -125 20 -125 36 0 7 -10 22 -23 34 -13 12 -34 42
-46 67 -12 24 -27 47 -32 51 -6 3 -6 11 -1 17 4 7 14 35 21 64 15 64 43 117
62 121 8 2 16 8 17 13 2 5 10 9 17 9 8 0 18 6 22 13 15 24 129 67 177 67 28 0
35 4 40 25 13 50 -29 67 -124 50z"/>
<path d="M6585 12074 c-23 -35 -10 -60 42 -84 34 -15 44 -16 50 -6 5 7 13 15
20 17 8 3 2 20 -17 52 -35 56 -67 63 -95 21z"/>
<path d="M5432 11850 c-18 -9 -43 -28 -56 -43 -13 -15 -28 -27 -33 -27 -14 0
-34 -102 -22 -116 5 -6 6 -13 3 -17 -3 -3 6 -13 20 -22 29 -19 34 -56 14 -101
-11 -24 -9 -29 25 -60 20 -19 37 -43 37 -54 0 -12 6 -36 14 -55 20 -46 37
-201 35 -309 -1 -76 1 -91 17 -103 25 -18 35 -16 41 7 3 11 8 20 12 20 13 0
10 155 -4 229 -8 40 -12 77 -10 82 3 4 -1 27 -10 51 -8 24 -15 58 -15 75 0 28
4 34 28 38 40 9 112 45 112 56 0 6 12 21 28 33 32 28 54 95 48 153 -5 51 -12
63 -33 63 -8 0 -13 6 -10 13 7 20 -14 42 -68 73 -58 32 -123 37 -173 14z m160
-91 c79 -51 75 -107 -16 -191 -55 -51 -106 -65 -106 -30 0 10 -11 51 -25 90
-35 101 -33 111 25 139 62 29 65 29 122 -8z"/>
<path d="M6311 11814 c-25 -25 -58 -52 -73 -60 -15 -8 -28 -19 -28 -25 0 -5
-16 -25 -35 -42 -24 -22 -40 -49 -50 -82 -7 -28 -19 -64 -26 -81 -11 -27 -10
-34 10 -60 76 -103 163 -71 233 84 16 36 34 62 41 60 7 -3 24 -26 39 -53 14
-27 35 -56 45 -64 10 -9 25 -28 32 -43 13 -25 43 -39 69 -30 20 6 14 40 -15
84 -16 22 -33 48 -38 58 -6 9 -18 24 -28 34 -9 10 -17 26 -17 36 0 24 -41 85
-75 112 -15 11 -22 24 -17 27 33 22 30 91 -4 91 -9 0 -37 -21 -63 -46z m-3
-136 c-2 -13 -6 -27 -10 -33 -3 -5 -9 -26 -13 -45 -9 -43 -45 -98 -67 -104
-49 -12 -31 75 30 148 52 60 64 67 60 34z"/>
<path d="M5052 11800 c-18 -17 -41 -30 -52 -30 -11 0 -20 -7 -20 -15 0 -8 -5
-15 -11 -15 -23 0 -108 -76 -122 -110 -9 -19 -19 -56 -22 -83 -6 -41 -4 -53
19 -87 14 -22 30 -40 34 -40 4 -1 26 -5 50 -9 49 -10 95 5 87 28 -3 8 0 11 8
8 20 -7 53 25 68 66 7 20 15 37 19 37 15 -1 29 -20 46 -65 17 -46 91 -135 113
-135 5 0 12 12 15 26 5 18 -5 49 -39 117 -25 50 -45 97 -45 103 0 7 -18 45
-39 85 -22 40 -37 77 -35 84 7 18 -14 65 -28 65 -7 0 -28 -14 -46 -30z m1
-142 c3 -12 2 -29 -4 -39 -5 -10 -9 -26 -9 -36 -1 -27 -34 -62 -71 -75 -29
-10 -34 -9 -51 12 -10 12 -18 26 -18 31 0 24 115 129 141 129 4 0 9 -10 12
-22z"/>
<path d="M6649 11777 c-24 -19 -39 -52 -39 -89 0 -35 34 -144 52 -166 6 -7 12
-31 13 -53 2 -25 9 -45 21 -54 27 -20 33 -19 45 13 11 29 8 66 -15 182 -12 62
-18 104 -25 173 -1 11 -34 8 -52 -6z"/>
<path d="M7077 11780 c-37 -7 -97 -53 -97 -74 0 -6 -11 -21 -24 -33 -13 -13
-31 -39 -41 -59 -16 -34 -16 -40 -1 -86 9 -28 16 -68 16 -89 0 -29 8 -47 31
-74 17 -19 34 -35 38 -35 3 0 13 18 23 40 11 28 14 49 8 75 -10 43 -6 147 6
195 8 28 15 36 38 38 38 5 96 -24 96 -48 0 -10 5 -22 11 -25 12 -8 53 -95 69
-150 21 -68 50 -125 64 -125 7 0 21 9 30 19 19 21 15 79 -10 118 -8 12 -13 32
-12 45 2 38 -56 150 -103 196 -23 23 -47 42 -51 42 -4 0 -8 6 -8 14 0 13 -23
28 -38 25 -4 -1 -24 -5 -45 -9z"/>
<path d="M7589 11532 c-69 -74 -158 -191 -164 -215 -6 -22 -3 -27 19 -33 41
-10 69 3 102 49 81 112 117 279 43 199z"/>
<path d="M7318 11023 c-23 -6 -31 -47 -17 -96 13 -48 15 -56 29 -155 5 -40 13
-78 16 -84 15 -24 21 -92 14 -151 -6 -56 -5 -63 17 -85 l25 -25 24 39 c13 23
24 55 24 77 0 21 8 50 18 65 10 15 23 36 29 47 7 14 20 19 39 18 50 -4 62 -29
82 -159 19 -121 25 -144 42 -144 15 0 34 42 40 88 l5 43 55 -47 c63 -54 159
-101 223 -108 24 -3 50 -8 59 -11 9 -4 19 -2 22 3 3 6 14 8 24 6 25 -6 39 7
46 43 l7 32 -49 -6 c-43 -5 -59 -1 -124 31 -41 20 -78 36 -82 36 -4 0 -21 9
-37 21 -24 17 -27 24 -18 35 6 8 26 14 43 14 17 1 42 7 56 15 14 8 35 14 46
15 27 0 74 69 74 109 0 21 -12 39 -46 71 -44 41 -48 42 -97 37 -48 -4 -56 -9
-104 -62 -29 -32 -53 -63 -53 -70 0 -6 -13 -24 -28 -39 l-29 -27 -21 51 c-14
33 -29 54 -42 57 -11 3 -20 12 -20 19 0 39 -130 42 -157 4 -26 -37 -39 -23
-51 56 -7 42 -10 80 -6 85 3 5 -2 19 -10 31 -9 12 -16 37 -16 54 0 37 -28 73
-52 67z m650 -329 c12 -8 22 -18 22 -23 0 -7 -102 -31 -134 -31 -14 0 -13 5
10 35 29 39 64 46 102 19z"/>
<path d="M4497 10812 c-10 -10 -17 -24 -17 -31 0 -7 -5 -9 -10 -6 -13 8 -60
-34 -60 -53 0 -8 -10 -28 -22 -44 -16 -23 -21 -45 -21 -87 0 -74 28 -131 97
-203 l56 -57 52 6 c29 3 55 10 56 15 2 4 9 8 15 8 35 0 98 60 132 123 34 63
35 71 29 129 -4 34 -14 68 -23 78 -9 9 -17 23 -19 31 -5 22 -62 77 -98 94 -46
22 -146 20 -167 -3z m161 -77 c32 -6 46 -14 52 -31 5 -12 18 -27 29 -33 24
-13 20 -33 -20 -116 -37 -77 -55 -98 -104 -124 -34 -18 -40 -19 -43 -6 -2 8
-14 18 -27 21 -16 4 -26 16 -30 34 -4 19 -13 30 -28 32 -35 5 -36 84 -2 151
44 85 60 92 173 72z"/>
<path d="M5492 10756 c-62 -25 -94 -50 -86 -70 3 -7 -6 -25 -20 -40 -23 -22
-26 -32 -22 -78 5 -65 16 -117 27 -124 4 -2 6 -11 3 -18 -5 -12 35 -46 55 -46
19 0 33 69 26 134 -13 123 30 173 161 186 41 4 81 13 87 20 10 10 6 11 -15 8
-22 -4 -28 -1 -28 13 0 11 5 19 12 19 6 0 8 3 5 6 -4 4 -39 8 -79 9 -54 1 -87
-4 -126 -19z"/>
<path d="M6245 10739 c-58 -8 -111 -33 -128 -60 -6 -10 -16 -19 -22 -19 -23
-1 -75 -113 -75 -162 0 -30 27 -75 60 -98 45 -32 182 -48 164 -19 -8 13 10 11
24 -3 10 -10 17 -10 32 0 11 6 28 12 39 12 11 0 31 14 46 32 26 31 26 31 7 51
-19 19 -21 19 -65 2 -53 -20 -131 -16 -170 10 -22 14 -26 24 -24 56 1 21 5 39
10 39 4 0 7 6 7 14 0 17 75 46 122 46 36 0 36 1 40 46 2 25 -1 49 -7 53 -5 4
-32 4 -60 0z"/>
<path d="M6633 10728 c-19 -7 -37 -22 -46 -40 -8 -17 -25 -35 -38 -41 -15 -8
-39 -42 -63 -91 -36 -76 -38 -81 -25 -118 20 -62 77 -88 113 -53 8 8 18 15 23
15 16 1 80 55 76 65 -2 6 7 16 19 24 20 13 24 11 48 -18 15 -17 32 -31 38 -31
7 0 12 -6 12 -14 0 -27 59 -66 100 -66 33 0 38 3 43 26 3 20 -1 27 -18 34 -13
5 -27 15 -32 23 -9 16 -54 71 -120 149 -24 27 -43 57 -43 68 0 24 -32 80 -45
79 -5 -1 -24 -6 -42 -11z m22 -154 c0 -31 -11 -45 -70 -86 -48 -34 -65 -24
-41 24 20 40 45 71 71 86 29 16 40 9 40 -24z"/>
<path d="M7087 10716 c-51 -25 -87 -53 -87 -68 0 -5 -7 -16 -15 -25 -8 -8 -13
-19 -9 -24 3 -5 -2 -16 -11 -25 -11 -12 -14 -26 -9 -52 8 -44 21 -72 34 -72 6
0 20 -12 33 -26 12 -14 36 -32 54 -39 44 -19 119 -29 140 -20 10 5 26 10 36
12 22 4 82 61 74 70 -4 3 -49 7 -102 9 -83 3 -99 6 -128 28 -24 19 -33 34 -35
59 -3 44 21 72 77 90 34 11 45 20 47 38 1 13 4 33 6 44 5 29 -45 30 -105 1z"/>
<path d="M4930 10705 c-21 -22 -23 -33 -21 -112 1 -91 19 -162 43 -175 62 -33
87 -39 107 -26 20 12 55 79 77 148 l11 35 19 -34 c10 -18 29 -49 41 -67 13
-19 22 -38 21 -42 -7 -33 44 -56 69 -31 12 12 7 33 -27 104 -10 22 -27 61 -37
88 -20 53 -91 139 -99 120 -3 -7 -11 -10 -19 -7 -14 6 -32 -53 -42 -133 -5
-38 -33 -83 -52 -83 -5 0 -14 12 -20 28 -11 26 -10 71 4 143 5 27 3 40 -10 52
-23 23 -37 21 -65 -8z"/>
<path d="M12219 10399 c-8 -5 -10 -9 -5 -9 5 0 1 -9 -8 -19 -16 -18 -17 -29
-7 -113 7 -51 14 -102 17 -112 6 -17 3 -18 -27 -12 -90 20 -103 19 -131 -8
-16 -14 -28 -30 -28 -35 0 -18 108 -60 166 -63 46 -3 41 18 43 -188 0 -69 -1
-134 -2 -144 -1 -14 7 -22 32 -28 57 -15 65 2 67 139 1 65 -1 137 -6 160 l-7
42 51 18 c84 30 69 83 -24 83 -33 0 -34 1 -50 120 -19 138 -45 192 -81 169z"/>
<path d="M13145 10374 c-15 -24 -16 -30 -2 -63 8 -20 16 -53 16 -73 2 -39 35
-181 48 -201 4 -7 6 -21 5 -33 -2 -11 2 -40 7 -64 5 -25 6 -47 2 -50 -5 -3 -5
-25 -2 -50 4 -26 1 -60 -5 -80 -14 -39 -9 -54 13 -46 9 4 22 1 30 -5 28 -24
41 10 47 116 8 141 14 160 57 161 42 1 94 -37 76 -55 -9 -9 -9 -14 -1 -19 7
-4 17 -34 23 -67 23 -113 30 -130 58 -147 22 -13 32 -14 44 -4 24 17 21 146
-4 173 -9 11 -14 22 -11 26 4 3 -5 20 -20 37 -14 17 -26 38 -26 45 0 8 -15 30
-34 49 -43 42 -97 54 -149 32 -48 -20 -56 -8 -62 85 -2 41 -8 87 -14 102 -6
16 -11 41 -11 57 0 16 -5 42 -12 57 -7 15 -12 29 -13 29 0 1 -10 4 -21 8 -16
5 -26 0 -39 -20z"/>
<path d="M12875 10382 c-27 -19 -48 -126 -29 -145 6 -6 7 -25 5 -132 -1 -35
-1 -35 -47 -35 -34 0 -54 -7 -80 -26 -60 -46 -36 -77 59 -78 l62 -1 -1 -60
c-1 -73 -8 -134 -19 -158 -4 -10 -3 -29 3 -41 12 -28 69 -43 89 -24 14 15 44
145 36 164 -2 6 0 15 5 18 6 4 7 20 2 42 -11 49 -4 64 34 64 17 0 49 5 71 11
50 14 74 15 103 5 36 -12 28 28 -11 58 -29 22 -46 26 -116 28 -95 3 -91 -2
-97 121 -6 123 -26 197 -54 197 -3 0 -10 -4 -15 -8z"/>
<path d="M10512 10355 c-20 -25 -20 -90 -3 -203 9 -62 8 -77 -5 -97 -12 -19
-13 -31 -4 -65 10 -38 7 -197 -6 -257 -8 -43 39 -54 281 -68 69 -4 137 21 133
49 -2 16 -9 20 -30 18 -16 -2 -34 3 -42 11 -9 8 -46 17 -88 21 -40 4 -91 9
-114 12 l-40 6 0 91 1 92 105 11 c129 13 160 25 160 58 0 14 -5 28 -10 31 -6
4 -68 10 -138 13 l-127 7 3 28 c2 17 -2 26 -9 25 -6 -2 -14 3 -16 10 -3 6 3
12 12 12 15 0 17 7 11 49 l-6 49 102 6 c57 3 113 5 124 6 12 0 27 7 34 15 16
19 5 62 -18 74 -9 5 -79 11 -155 13 -132 3 -140 3 -155 -17z"/>
<path d="M11033 10185 c-13 -12 -23 -29 -23 -38 0 -19 66 -51 87 -43 15 6 18
52 3 61 -5 3 -10 15 -10 26 0 26 -29 23 -57 -6z"/>
<path d="M6536 10094 c-20 -20 -20 -61 0 -121 10 -29 14 -66 12 -95 -3 -27 0
-52 6 -58 7 -7 10 -55 9 -133 -2 -119 -1 -122 23 -140 13 -10 32 -16 42 -12
19 6 52 66 52 95 0 10 4 21 9 25 5 3 12 19 16 35 4 17 10 30 15 30 4 0 10 9
13 20 3 14 14 20 32 20 17 0 25 -4 22 -12 -2 -7 0 -21 5 -32 6 -10 11 -41 13
-69 1 -28 8 -53 14 -55 7 -2 9 -16 5 -38 -6 -33 -5 -34 24 -34 17 0 34 -4 37
-10 33 -54 29 113 -6 226 -40 129 -115 159 -196 78 -24 -23 -43 -41 -44 -40
-1 1 -8 61 -13 111 -11 106 -16 137 -26 154 -5 11 -10 28 -10 39 0 11 -7 23
-16 26 -21 8 -20 8 -38 -10z"/>
<path d="M13823 10084 c-18 -8 -38 -23 -45 -34 -7 -11 -17 -20 -23 -20 -12 -1
-27 -21 -93 -128 -61 -98 -60 -106 20 -182 79 -76 222 -124 280 -95 17 8 39
15 50 15 10 0 18 3 19 8 0 4 2 24 4 46 4 36 3 38 -18 30 -36 -13 -122 -7 -155
10 -17 9 -38 16 -46 16 -15 0 -66 42 -66 54 0 3 5 6 11 6 16 0 103 43 107 53
2 4 11 7 21 7 9 0 34 15 54 34 55 50 50 91 -21 169 -28 30 -51 32 -99 11z m67
-120 c0 -8 -6 -14 -13 -14 -7 0 -18 -5 -25 -12 -12 -12 -84 -39 -89 -34 -2 2
19 24 47 50 42 39 54 45 65 36 8 -7 15 -19 15 -26z"/>
<path d="M4954 10070 c-23 -9 -36 -41 -24 -60 7 -12 57 -40 71 -40 18 0 29 38
18 67 -15 41 -29 48 -65 33z"/>
<path d="M11965 10050 c-3 -5 -15 -10 -26 -10 -30 0 -65 -27 -110 -84 -38 -47
-40 -54 -34 -96 13 -87 65 -169 123 -192 35 -13 142 -10 160 5 14 12 27 39 38
82 5 20 2 25 -13 25 -10 0 -24 -9 -31 -20 -15 -25 -77 -27 -110 -4 -29 20 -62
86 -62 124 0 36 32 70 90 97 41 19 56 48 38 70 -12 15 -54 17 -63 3z"/>
<path d="M4555 10033 c-64 -12 -87 -21 -112 -46 -33 -31 -42 -60 -23 -72 6 -3
19 -25 30 -48 21 -44 43 -77 53 -77 3 0 28 -16 57 -35 29 -19 58 -35 66 -35 8
0 14 -4 14 -9 0 -5 10 -11 22 -13 12 -2 23 -8 25 -15 5 -13 -45 -29 -119 -38
-26 -3 -47 -9 -46 -13 1 -4 -3 -16 -7 -26 -12 -26 27 -56 74 -57 20 0 60 -3
89 -5 31 -2 52 0 52 6 0 6 20 19 45 30 30 13 46 26 49 42 14 67 15 88 5 88 -6
0 -25 10 -42 23 -36 25 -87 46 -132 54 -42 8 -71 29 -111 82 l-35 45 53 19
c37 13 69 17 105 13 64 -6 76 8 57 63 -11 32 -16 36 -51 38 -21 1 -74 -5 -118
-14z"/>
<path d="M11476 10042 c-50 -11 -153 -99 -160 -138 -2 -10 -9 -32 -15 -48 -9
-21 -8 -32 0 -43 9 -10 9 -17 1 -25 -19 -19 -15 -31 25 -78 42 -49 113 -84
188 -94 44 -5 57 -2 109 27 41 23 63 42 69 61 11 33 0 48 -17 24 -10 -14 -27
-16 -107 -14 -128 4 -131 5 -125 15 3 5 -1 14 -9 21 -29 24 -19 31 95 65 30 9
64 24 75 33 25 21 48 91 35 107 -6 7 -7 14 -4 18 16 15 -126 77 -160 69z m68
-112 c13 -13 -3 -30 -27 -30 -12 0 -33 -6 -47 -13 -73 -38 -97 -16 -37 34 26
21 39 26 67 22 19 -3 39 -9 44 -13z"/>
<path d="M5765 9952 c-38 -5 -129 -110 -119 -137 4 -9 3 -20 -3 -24 -12 -8
-43 -75 -43 -94 0 -45 23 -77 75 -102 29 -15 62 -26 72 -24 10 1 35 -5 55 -15
21 -9 56 -16 78 -16 47 0 104 25 94 42 -5 7 0 9 14 6 19 -5 31 12 32 45 0 10
-68 9 -106 -2 -20 -6 -40 -5 -60 4 -16 6 -46 15 -67 19 -49 9 -44 29 9 36 54
8 102 46 110 87 3 18 10 36 15 39 19 11 7 33 -41 80 -55 54 -71 61 -115 56z
m70 -122 c16 -16 26 -32 23 -35 -4 -4 -52 -16 -130 -32 -21 -4 -28 -1 -28 10
0 17 74 87 93 87 7 0 26 -13 42 -30z"/>
<path d="M7200 9894 c-100 -85 -129 -114 -136 -138 -4 -11 -14 -32 -24 -46
-22 -32 -33 -101 -21 -132 5 -13 27 -36 48 -51 32 -22 50 -27 99 -27 51 0 64
4 90 28 17 16 34 35 37 43 5 11 9 10 21 -6 30 -39 50 -56 80 -64 40 -10 55 -4
62 26 5 20 -2 33 -40 72 -25 26 -46 52 -46 58 0 10 -38 104 -62 150 -6 13 -8
40 -4 68 6 39 4 49 -11 61 -10 7 -20 13 -23 13 -3 0 -34 -24 -70 -55z m39
-159 c3 -88 -6 -120 -42 -140 -26 -13 -38 -14 -61 -6 -27 11 -28 14 -23 57 3
26 13 54 26 67 11 12 32 34 45 50 39 42 52 35 55 -28z"/>
<path d="M11080 9925 c-10 -19 -11 -31 -3 -47 12 -26 36 -88 40 -103 1 -5 10
-37 19 -70 21 -80 20 -171 -2 -196 -39 -43 -120 -1 -174 92 -36 63 -65 80 -54
32 4 -16 12 -37 19 -48 6 -11 10 -36 7 -57 -3 -29 0 -38 17 -47 12 -7 21 -18
21 -26 0 -16 38 -38 102 -61 55 -19 112 -1 140 44 37 61 33 234 -9 347 -58
156 -93 196 -123 140z"/>
<path d="M5196 9921 c-39 -8 -51 -42 -23 -66 15 -13 41 -18 103 -21 99 -3 110
-8 89 -37 -8 -12 -15 -29 -15 -39 0 -10 -7 -18 -16 -18 -9 0 -14 -7 -12 -17 2
-10 -6 -28 -19 -40 -13 -12 -23 -33 -23 -47 0 -14 -4 -28 -10 -31 -14 -9 -12
-44 3 -59 15 -16 49 -30 62 -27 6 2 19 4 30 6 11 1 33 8 48 14 15 6 48 12 72
13 46 1 51 8 61 71 3 23 0 27 -22 27 -14 0 -33 -4 -42 -9 -9 -5 -42 -12 -73
-15 l-56 -7 5 33 c3 18 15 41 28 50 12 10 26 28 29 39 4 11 18 31 32 45 20 20
24 32 19 56 -3 17 -6 41 -6 53 0 20 -6 23 -66 29 -43 4 -71 3 -79 -4 -9 -8
-15 -8 -20 0 -7 11 -52 12 -99 1z"/>
<path d="M7708 9916 c-25 -6 -50 -14 -54 -18 -4 -5 -17 -8 -29 -8 -23 0 -39
-15 -68 -63 -17 -27 -17 -28 15 -63 94 -101 130 -134 146 -134 19 0 47 -69 33
-83 -5 -5 -33 -15 -64 -23 l-56 -14 -50 31 c-28 17 -55 28 -61 24 -21 -13 -11
-76 18 -105 70 -69 276 -36 313 52 21 51 -17 133 -84 177 -33 22 -98 101 -92
111 5 8 92 26 107 22 4 -1 10 9 14 23 3 14 10 25 15 25 15 0 10 26 -9 43 -21
19 -28 19 -94 3z"/>
<path d="M4953 9842 c-19 -15 -21 -25 -18 -77 6 -89 14 -130 24 -133 6 -2 8
-9 5 -17 -10 -24 12 -24 39 1 24 22 26 29 21 77 -3 28 -5 69 -5 90 1 43 -13
77 -32 77 -7 0 -22 -8 -34 -18z"/>
<path d="M14862 9473 c-7 -3 -17 -16 -22 -29 -12 -30 8 -247 26 -292 10 -24
10 -40 3 -59 -10 -27 -6 -43 29 -120 13 -29 19 -33 54 -33 39 0 40 1 32 28 -4
15 -6 44 -5 66 1 21 -3 53 -8 70 -6 17 -12 64 -14 103 -3 40 -10 80 -17 88
-10 12 -10 18 0 30 6 8 8 20 4 27 -4 6 -7 28 -6 48 4 56 -33 90 -76 73z"/>
<path d="M8078 9276 c-15 -20 -16 -35 -8 -107 8 -81 15 -136 26 -206 5 -31 3
-33 -25 -33 -16 0 -33 -5 -36 -10 -4 -6 -22 -17 -41 -25 -19 -8 -37 -22 -41
-32 -4 -10 -13 -22 -20 -28 -20 -16 -27 -99 -13 -151 7 -25 28 -61 46 -80 l32
-35 84 5 c108 8 156 15 164 27 3 6 17 14 31 20 33 12 26 42 -12 50 -17 3 -76
4 -132 1 -101 -4 -102 -4 -107 19 -16 71 -11 86 37 107 50 23 67 14 67 -32 0
-22 8 -40 26 -57 23 -22 27 -22 51 -9 15 8 30 29 35 45 12 42 0 112 -21 127
-20 14 -28 33 -37 88 -9 60 -24 173 -29 219 -9 100 -16 121 -38 121 -12 0 -30
-11 -39 -24z"/>
<path d="M13157 9243 c-23 -22 4 -103 34 -103 5 0 0 9 -11 20 -22 22 -26 60
-8 78 7 7 8 12 2 12 -6 0 -14 -3 -17 -7z"/>
<path d="M6945 9228 c-11 -34 -3 -114 16 -149 5 -10 11 -52 13 -95 7 -123 23
-271 30 -283 4 -6 14 -11 22 -11 8 0 17 -7 20 -15 17 -44 51 23 57 111 2 39
11 82 18 95 7 13 13 29 14 34 0 19 42 17 48 -2 4 -10 11 -25 16 -33 13 -22 33
-92 36 -131 2 -19 4 -34 5 -34 1 0 3 -9 5 -20 9 -46 28 -66 59 -63 24 2 32 9
34 26 2 13 0 31 -4 40 -8 19 -10 29 -20 92 -4 25 -13 54 -19 65 -7 11 -20 46
-30 78 -20 68 -52 97 -104 97 -36 -1 -81 -28 -81 -49 0 -6 -8 -11 -17 -11 -12
0 -14 3 -6 11 7 7 8 21 3 38 -4 14 -13 54 -19 88 -6 35 -22 78 -34 97 -22 35
-54 47 -62 24z"/>
<path d="M5372 9203 c-24 -3 -38 -13 -50 -34 -10 -16 -20 -29 -24 -29 -5 0 -8
-10 -8 -22 0 -18 -6 -23 -26 -24 -46 -3 -55 -28 -48 -134 3 -52 10 -100 15
-106 5 -6 10 -40 12 -76 4 -73 10 -88 37 -88 35 0 46 45 30 125 -9 39 -8 52 3
60 9 7 12 26 9 58 -3 30 0 47 7 47 6 0 11 9 11 20 0 11 7 23 15 26 8 4 15 12
15 19 0 11 93 95 127 114 25 14 4 41 -31 39 -17 -1 -38 1 -46 4 -8 2 -30 3
-48 1z"/>
<path d="M5622 9133 c-51 -38 -88 -86 -78 -102 3 -5 -1 -14 -9 -21 -20 -16
-10 -77 16 -106 11 -11 19 -27 19 -36 0 -65 75 -134 158 -145 81 -10 172 1
172 22 0 11 25 27 63 39 22 7 22 19 -1 40 -17 14 -24 15 -58 3 -21 -7 -74 -13
-116 -12 -71 0 -79 2 -107 29 -17 17 -28 33 -23 38 4 4 37 19 72 33 100 39
136 69 149 121 9 36 9 50 -4 74 -9 17 -17 30 -18 30 -2 0 -30 5 -63 10 -32 6
-73 13 -90 15 -25 4 -41 -2 -82 -32z m120 -86 c15 -12 13 -15 -15 -30 -41 -21
-107 -47 -107 -42 0 17 18 40 49 60 40 28 49 30 73 12z"/>
<path d="M6195 9101 c-145 -84 -203 -201 -159 -316 22 -58 69 -83 124 -66 22
6 44 21 50 31 6 11 15 20 21 20 16 0 47 42 54 72 4 15 11 31 17 34 11 7 98
-82 98 -101 0 -16 57 -65 75 -65 7 0 23 9 36 20 l24 20 -24 18 c-52 38 -118
120 -127 159 -9 34 -73 103 -90 96 -18 -7 -18 7 1 21 8 6 17 28 19 49 4 37 4
37 -32 37 -23 0 -57 -12 -87 -29z m71 -82 c3 -6 1 -14 -5 -18 -6 -4 -9 -15 -5
-24 3 -9 1 -39 -6 -67 -27 -111 -155 -153 -152 -50 1 40 32 82 95 130 57 43
63 45 73 29z"/>
<path d="M10676 9105 c-17 -13 -18 -18 -8 -40 7 -14 12 -34 12 -44 0 -11 6
-21 13 -24 9 -3 12 -16 9 -35 -5 -40 15 -102 34 -102 8 0 14 -6 12 -12 -4 -24
13 -86 27 -98 7 -6 12 -17 9 -25 -6 -14 22 -76 40 -87 6 -4 25 -8 43 -8 34 0
29 -6 93 118 18 34 36 62 40 62 5 0 14 -13 22 -30 7 -17 21 -30 30 -30 10 0
19 -4 19 -10 4 -28 30 -80 40 -80 4 0 9 -10 11 -22 2 -12 8 -23 14 -25 19 -6
71 54 77 89 3 18 12 61 21 96 8 35 17 81 20 103 3 22 9 47 14 55 5 8 6 29 4
46 -4 27 -7 29 -35 24 -16 -3 -33 -6 -38 -6 -5 0 -9 -11 -9 -24 0 -13 -7 -26
-15 -30 -9 -3 -15 -19 -16 -38 0 -18 -8 -64 -19 -103 -17 -67 -19 -69 -29 -42
-6 15 -15 27 -21 27 -5 0 -10 7 -10 15 0 8 -16 27 -35 42 -19 15 -35 33 -35
39 0 7 -7 15 -17 18 -22 9 -75 -50 -104 -115 -13 -27 -26 -49 -30 -49 -11 0
-61 136 -66 178 -10 89 -56 183 -87 182 -6 0 -20 -7 -30 -15z"/>
<path d="M7545 9056 c-49 -30 -108 -100 -144 -172 l-28 -54 24 -15 c12 -9 23
-22 23 -31 0 -18 88 -114 105 -114 7 0 44 -13 82 -29 88 -38 141 -34 176 13
13 17 27 43 31 59 8 34 -8 36 -58 6 -39 -23 -48 -21 -136 19 -48 22 -99 64
-100 83 0 4 20 12 44 18 24 6 49 17 55 25 7 8 27 20 44 25 38 13 52 33 61 87
6 36 4 44 -22 72 -39 41 -97 44 -157 8z m78 -91 c-1 -5 -7 -13 -15 -16 -7 -3
-23 -11 -35 -17 -13 -7 -30 -12 -38 -12 -13 0 -11 6 7 30 18 25 29 30 53 28
16 -2 29 -7 28 -13z"/>
<path d="M6690 9055 c-38 -14 -90 -68 -115 -120 -13 -28 -14 -45 -6 -95 12
-72 37 -111 95 -145 36 -21 56 -25 121 -25 l78 0 39 40 c44 47 46 53 16 68
-23 10 -23 11 5 11 30 1 36 15 10 25 -11 4 -22 1 -29 -8 -6 -9 -16 -16 -21
-16 -6 0 -17 -7 -24 -16 -27 -32 -164 0 -188 44 -5 10 -12 39 -15 64 -4 35 -2
47 9 52 8 3 15 12 15 21 0 9 9 15 21 15 24 0 79 51 79 73 0 28 -33 32 -90 12z"/>
<path d="M14475 9055 c-16 -7 -49 -21 -72 -30 -27 -11 -43 -24 -43 -35 0 -9
-9 -25 -20 -35 -11 -10 -20 -26 -20 -35 0 -9 -3 -20 -7 -24 -4 -4 -9 -24 -10
-44 -4 -62 58 -142 154 -199 39 -22 59 -27 116 -27 54 0 72 4 82 17 7 9 19 17
27 17 27 0 62 35 55 54 -6 15 -14 17 -47 11 -92 -16 -143 -9 -192 24 -67 45
-67 55 3 80 52 20 118 57 187 106 88 63 -100 170 -213 120z m120 -75 c0 -18
-76 -71 -94 -64 -8 2 -29 -1 -48 -7 -48 -15 -50 -7 -8 32 52 50 150 75 150 39z"/>
<path d="M13555 9043 c-31 -4 -49 -14 -87 -54 -52 -55 -70 -108 -56 -172 8
-39 5 -128 -6 -145 -8 -13 12 -28 49 -36 77 -19 154 -28 176 -23 40 10 124 93
155 151 16 31 33 56 38 56 5 0 7 -3 4 -6 -3 -3 13 -42 36 -87 38 -75 44 -82
74 -85 44 -4 59 10 58 56 -1 20 2 43 7 50 5 6 7 12 4 12 -11 0 15 84 34 111
30 42 105 89 162 100 27 5 56 14 64 21 12 9 9 14 -16 24 -68 28 -179 26 -201
-5 -3 -4 -22 -17 -42 -29 -20 -13 -50 -43 -66 -67 -26 -40 -31 -43 -43 -29 -9
11 -23 14 -46 11 -27 -5 -33 -2 -39 16 -14 43 -75 107 -113 116 -53 14 -101
19 -146 14z m155 -93 c25 -35 25 -83 1 -136 -18 -40 -45 -64 -103 -94 -16 -7
-28 -17 -28 -22 0 -4 -13 -8 -30 -8 -26 0 -28 2 -21 22 5 15 2 44 -9 83 -10
33 -19 65 -20 70 -10 45 32 93 94 109 63 16 92 10 116 -24z"/>
<path d="M13195 9033 c-11 -3 -33 -11 -50 -18 -16 -8 -51 -23 -76 -34 -44 -19
-99 -76 -99 -103 0 -7 -7 -22 -15 -32 -9 -11 -15 -41 -15 -69 0 -45 4 -54 39
-87 90 -86 185 -105 285 -57 47 23 57 31 53 47 -3 13 2 25 16 35 15 10 18 18
11 25 -7 7 -25 2 -58 -16 -33 -18 -61 -26 -92 -26 -88 2 -162 62 -149 121 8
39 70 90 130 108 92 28 105 35 105 55 0 20 -37 58 -55 57 -5 -1 -19 -3 -30 -6z"/>
<path d="M11500 8972 c-36 -26 -102 -83 -147 -128 -67 -67 -81 -86 -80 -110 1
-16 7 -34 13 -41 6 -6 10 -22 8 -35 -3 -17 6 -31 37 -56 39 -30 45 -32 93 -26
28 4 65 14 81 22 27 14 79 60 80 72 0 3 6 15 13 28 15 25 32 21 32 -9 0 -10
10 -29 22 -41 13 -13 22 -29 20 -35 -2 -7 1 -13 5 -13 5 0 21 -12 36 -26 30
-28 54 -28 71 -2 8 13 6 21 -6 35 -23 25 -75 161 -98 252 -34 139 -42 156 -81
158 -26 1 -49 -9 -99 -45z m68 -117 c11 -42 10 -48 -8 -67 -11 -12 -20 -27
-20 -32 0 -6 -15 -28 -33 -49 -26 -30 -41 -38 -79 -43 -44 -6 -48 -5 -59 20
-11 23 -9 31 18 69 26 36 148 146 163 147 3 0 11 -20 18 -45z"/>
<path d="M11990 9004 c0 -5 -13 -9 -29 -10 -39 -1 -101 -41 -101 -64 0 -11 -8
-20 -21 -22 -39 -6 -46 -32 -20 -83 13 -26 21 -55 18 -67 -3 -12 1 -34 9 -49
7 -15 14 -37 14 -48 0 -11 11 -28 25 -37 23 -15 26 -15 53 5 27 19 28 22 21
73 -12 81 -10 171 4 189 14 18 126 43 151 33 23 -9 21 21 -5 45 -11 10 -33 21
-47 24 -15 3 -37 8 -49 12 -13 4 -23 3 -23 -1z"/>
<path d="M12213 8968 c-27 -29 -31 -88 -8 -141 17 -41 20 -88 6 -102 -16 -17
-17 -75 -2 -84 7 -5 11 -13 7 -19 -3 -6 4 -12 16 -14 32 -4 39 -46 41 -230 1
-117 5 -159 14 -163 23 -8 63 14 73 40 12 31 5 248 -9 295 -6 19 -11 36 -11
36 0 1 15 2 34 1 19 0 62 10 96 24 74 28 166 108 156 134 -3 9 1 26 9 38 8 12
15 31 15 43 0 28 -55 84 -81 84 -10 0 -19 6 -19 14 0 8 -17 20 -37 27 -21 6
-41 17 -45 22 -3 6 -57 13 -120 15 -109 4 -114 3 -135 -20z m213 -58 c6 -6 21
-13 35 -15 13 -3 36 -14 51 -25 15 -11 31 -20 37 -20 30 0 7 -89 -29 -107 -12
-6 -25 -15 -29 -20 -21 -31 -157 -67 -158 -42 -4 56 -17 147 -25 162 -19 37
10 58 103 76 3 1 10 -4 15 -9z"/>
<path d="M14934 8718 c-20 -9 -34 -45 -34 -84 0 -18 36 -54 53 -54 7 0 28 12
45 26 39 33 42 71 9 102 -25 24 -41 26 -73 10z"/>
<path d="M3855 8379 c-11 -4 -34 -8 -50 -8 -17 -1 -47 -12 -67 -26 -20 -14
-44 -25 -52 -25 -8 0 -18 -4 -21 -10 -3 -5 -14 -10 -23 -10 -10 0 -28 -10 -42
-23 -14 -12 -39 -28 -55 -35 -53 -22 -111 -87 -135 -152 -12 -33 -20 -69 -17
-80 3 -11 1 -20 -3 -20 -12 0 -4 -106 14 -181 8 -35 14 -71 14 -79 0 -31 76
-227 92 -240 4 -3 19 -24 33 -47 14 -23 31 -44 37 -48 5 -3 10 -16 10 -28 1
-27 101 -137 125 -137 10 0 26 -6 34 -14 11 -10 47 -16 104 -19 49 -3 90 -7
91 -8 15 -19 25 -101 18 -139 -8 -43 -6 -169 3 -178 3 -3 -12 -14 -32 -24 -25
-14 -49 -18 -77 -16 -23 3 -50 1 -62 -3 -11 -4 -79 -12 -150 -18 -71 -7 -145
-13 -164 -15 -56 -6 -153 -27 -174 -38 -10 -6 -44 -12 -75 -14 -31 -2 -77 -9
-104 -15 -26 -6 -54 -8 -63 -5 -8 3 -25 0 -37 -8 -21 -13 -161 -25 -487 -42
-69 -4 -129 -10 -135 -14 -5 -5 -52 -11 -103 -14 -100 -6 -125 -16 -149 -62
-13 -26 -12 -30 4 -42 20 -15 67 -12 218 14 50 8 162 17 250 18 88 2 180 7
205 10 25 4 79 8 120 10 41 2 127 16 190 31 63 15 129 28 145 29 17 1 36 5 43
9 17 11 101 26 212 37 52 6 124 14 160 19 36 5 94 10 129 11 l65 1 -137 -135
c-75 -75 -140 -136 -145 -136 -12 0 -152 -138 -152 -150 0 -5 -17 -18 -37 -27
-25 -12 -38 -25 -38 -37 0 -14 -10 -22 -33 -28 -18 -5 -30 -13 -27 -18 4 -6 1
-10 -5 -10 -20 0 -90 -60 -90 -77 0 -16 -31 -46 -72 -68 -16 -9 -28 -20 -28
-25 0 -10 -26 -36 -88 -86 -23 -19 -32 -33 -28 -46 3 -15 -4 -23 -30 -34 -49
-21 -70 -56 -54 -94 19 -46 50 -34 137 53 10 10 43 42 73 70 30 29 73 72 95
95 92 100 163 165 203 189 23 14 42 29 42 34 0 5 19 23 43 39 23 17 74 62 112
99 39 38 80 74 93 80 12 6 22 18 22 25 0 7 11 19 25 26 14 7 25 18 26 24 0 6
30 36 65 66 35 30 75 65 88 78 l25 23 12 -23 c8 -15 13 -74 14 -163 2 -137 9
-199 26 -221 5 -6 9 -29 8 -50 -4 -161 0 -326 8 -336 14 -17 25 -106 14 -112
-11 -7 -2 -146 12 -171 6 -11 10 -30 8 -42 -1 -13 1 -28 5 -35 9 -14 11 -30
20 -123 3 -38 11 -76 17 -83 6 -7 11 -39 13 -70 1 -31 7 -84 13 -117 15 -89
24 -183 22 -241 -1 -28 3 -63 9 -79 8 -22 6 -41 -11 -94 -12 -36 -28 -71 -35
-77 -7 -6 -15 -21 -17 -35 -2 -13 -9 -37 -15 -52 -15 -35 -15 -47 -1 -47 8 0
8 -4 1 -13 -6 -7 -13 -37 -15 -67 -3 -30 -10 -68 -16 -84 -7 -16 -9 -31 -7
-34 3 -2 -3 -21 -13 -41 -9 -20 -25 -72 -35 -116 -10 -44 -22 -84 -26 -90 -4
-5 -11 -26 -15 -45 -4 -19 -13 -47 -21 -61 -7 -15 -15 -38 -18 -52 -2 -14 -9
-35 -16 -46 -6 -12 -10 -27 -8 -34 1 -6 -6 -24 -15 -38 -10 -15 -17 -31 -15
-35 1 -5 -6 -23 -15 -41 -9 -18 -17 -49 -17 -70 0 -21 -11 -60 -25 -88 -13
-27 -25 -58 -25 -67 0 -9 -4 -19 -9 -23 -16 -9 -41 -66 -41 -91 0 -13 -9 -39
-20 -59 -11 -20 -20 -42 -20 -50 0 -8 -20 -38 -43 -67 -48 -59 -64 -100 -44
-116 17 -15 67 -26 67 -15 0 5 18 29 40 53 23 25 50 72 65 109 65 174 103 280
115 321 8 25 17 50 20 55 4 6 15 33 25 60 10 28 22 54 26 60 5 5 9 22 9 38 0
16 13 57 29 91 17 34 44 113 60 176 17 63 40 142 52 175 11 33 24 81 29 106 5
26 13 64 19 85 6 22 11 55 11 75 0 19 6 44 14 54 20 27 43 6 51 -48 4 -23 21
-73 40 -112 18 -38 36 -81 40 -95 4 -14 13 -28 19 -32 6 -4 11 -11 12 -15 2
-22 46 -97 65 -113 3 -3 9 -22 13 -43 4 -21 16 -47 27 -58 10 -10 19 -25 19
-32 0 -7 4 -17 9 -22 17 -18 47 -80 61 -125 7 -25 26 -64 42 -88 15 -24 28
-49 28 -56 0 -8 7 -19 15 -26 8 -7 13 -16 10 -20 -2 -4 2 -16 10 -26 8 -10 15
-31 15 -45 0 -15 9 -37 19 -51 11 -13 23 -37 26 -51 4 -15 11 -30 16 -33 5 -3
9 -12 9 -20 0 -8 15 -46 33 -84 21 -46 38 -70 52 -72 10 -2 22 -12 25 -24 3
-12 15 -34 28 -50 12 -16 28 -37 35 -48 11 -15 17 -17 35 -7 29 16 28 55 -3
106 -14 22 -33 56 -44 76 -11 19 -27 41 -35 48 -9 8 -16 19 -16 25 0 6 -6 23
-14 38 -8 14 -19 43 -26 65 -13 39 -44 110 -86 198 -13 28 -24 54 -24 58 0 22
-139 304 -167 338 -12 16 -104 196 -127 252 -38 89 -48 107 -57 107 -6 0 -7 5
-4 10 4 6 2 16 -3 23 -28 35 -78 279 -88 432 -9 137 -11 159 -14 165 -1 3 -2
9 -1 14 3 16 -30 209 -42 246 -6 19 -10 41 -8 48 1 7 -5 38 -14 69 -9 32 -18
73 -20 92 -2 20 -9 77 -14 126 -6 50 -16 149 -22 220 -6 72 -14 137 -19 146
-5 9 -5 20 0 25 12 12 13 61 5 179 -5 55 -7 118 -6 139 1 22 -3 62 -8 90 -6
28 -13 119 -15 203 -4 122 -8 157 -22 179 -15 22 -18 53 -20 189 -1 89 -4 168
-8 174 -4 6 4 15 21 22 15 6 36 15 46 20 9 5 63 14 120 19 73 8 110 16 129 30
15 11 32 20 37 20 6 0 31 20 55 45 25 25 49 45 53 45 5 1 25 23 46 51 40 51
58 112 72 233 7 65 -9 177 -28 191 -7 6 -11 18 -9 27 9 45 -116 234 -219 333
-65 62 -145 115 -179 117 -44 2 -47 3 -65 18 -12 10 -48 16 -119 17 -55 2
-105 5 -111 7 -5 2 -19 0 -30 -5z m281 -141 c65 -16 143 -64 184 -112 14 -17
35 -42 47 -56 52 -58 73 -86 73 -96 0 -6 11 -24 25 -40 14 -16 25 -37 25 -46
0 -10 8 -32 18 -50 15 -26 18 -51 16 -124 -4 -134 -14 -163 -87 -237 -54 -56
-72 -67 -142 -91 -44 -15 -89 -28 -100 -28 -30 -1 -108 -24 -142 -42 -17 -8
-33 -13 -35 -10 -3 2 -25 0 -48 -5 -44 -10 -139 0 -193 21 -48 19 -120 110
-187 239 -36 68 -68 140 -72 159 -4 19 -14 64 -22 100 -19 79 -20 168 -3 207
6 17 35 48 62 71 28 23 57 48 67 56 9 8 25 17 36 20 11 4 36 17 54 30 19 13
48 26 64 30 16 4 45 11 64 16 51 12 225 5 296 -12z"/>
<path d="M5504 8288 c-9 -29 -50 -68 -71 -68 -19 0 -123 -99 -123 -117 0 -7
-11 -20 -25 -29 -13 -9 -34 -32 -46 -53 -12 -20 -40 -54 -63 -76 -23 -22 -64
-66 -93 -98 -29 -31 -60 -57 -70 -58 -25 0 -65 -54 -61 -81 2 -17 13 -25 40
-32 45 -11 85 6 142 59 12 11 42 38 67 60 25 22 65 68 88 103 23 34 46 62 52
62 12 0 159 141 159 153 0 5 12 21 28 36 35 36 60 83 47 88 -6 2 -9 19 -7 38
4 33 3 35 -26 35 -23 0 -32 -6 -38 -22z"/>
<path d="M7064 8303 c-14 -3 -25 -16 -32 -40 -6 -20 -10 -39 -8 -42 2 -3 7
-46 10 -94 l7 -89 -31 7 c-24 5 -40 1 -72 -20 l-40 -27 23 -24 c13 -14 29 -22
36 -20 7 3 15 1 17 -3 3 -5 16 -6 30 -4 13 3 27 -1 31 -7 4 -7 7 -63 6 -124
-2 -107 -1 -113 23 -135 33 -31 63 -21 72 25 4 20 7 72 8 117 0 45 5 85 9 88
5 4 27 2 49 -4 31 -8 42 -7 48 3 13 21 -4 44 -60 84 -49 35 -50 37 -50 88 -1
64 -23 172 -40 193 -6 8 -9 19 -5 25 3 5 3 9 -2 9 -4 -1 -17 -4 -29 -6z"/>
<path d="M8310 8290 c-22 -22 -25 -42 -11 -68 5 -9 16 -71 26 -137 9 -66 19
-127 22 -135 3 -8 6 -26 8 -40 5 -56 26 -134 38 -142 26 -17 57 -8 67 18 11
29 -33 317 -50 322 -5 2 -5 12 1 25 12 27 -12 131 -37 159 -22 23 -39 23 -64
-2z"/>
<path d="M6693 8288 c-31 -41 -13 -89 31 -81 42 8 52 30 29 61 -23 31 -45 39
-60 20z"/>
<path d="M12589 8239 c-11 -11 -19 -25 -19 -33 0 -23 22 -76 31 -76 5 0 9 -5
9 -12 0 -19 33 -88 43 -88 4 0 5 -4 2 -10 -7 -12 89 -156 115 -173 11 -6 20
-17 20 -24 0 -6 9 -15 20 -18 11 -3 20 -10 20 -14 0 -19 96 -101 117 -101 14
0 23 -6 23 -16 0 -8 5 -12 11 -9 6 4 21 -3 35 -16 30 -28 49 -15 40 28 -7 28
-183 213 -204 213 -5 0 -21 24 -37 53 -15 28 -37 62 -48 75 -11 12 -17 22 -14
22 4 0 -6 26 -22 58 -16 31 -39 78 -51 104 -26 54 -60 68 -91 37z"/>
<path d="M5996 8210 c-22 -11 -48 -20 -58 -20 -10 0 -18 -7 -18 -15 0 -8 -8
-15 -18 -15 -19 0 -56 -36 -106 -104 -26 -35 -28 -45 -23 -94 5 -43 12 -61 36
-84 17 -17 31 -34 31 -37 0 -4 17 -17 38 -28 30 -16 52 -20 113 -18 81 2 114
14 124 44 3 10 15 22 27 28 13 5 22 20 24 37 3 26 1 27 -23 21 -15 -3 -45 -15
-67 -26 -81 -39 -206 3 -206 69 0 43 47 98 112 132 32 17 69 30 81 28 19 -3
22 2 22 30 0 21 4 31 12 28 8 -3 10 1 6 12 -14 37 -48 41 -107 12z"/>
<path d="M6408 8139 c-20 -10 -45 -30 -55 -43 -16 -21 -20 -22 -40 -9 -19 13
-24 12 -44 -8 l-22 -22 27 -22 c19 -15 25 -27 20 -40 -5 -11 -2 -22 7 -29 8
-6 15 -32 16 -59 3 -58 28 -99 57 -95 18 3 21 11 23 68 6 134 47 205 118 203
46 -1 47 26 3 49 -53 27 -71 28 -110 7z"/>
<path d="M7333 8145 c-12 -9 -20 -22 -17 -29 3 -7 -3 -17 -13 -20 -17 -7 -17
-8 1 -22 50 -36 104 9 75 63 -15 27 -18 28 -46 8z"/>
<path d="M7662 8107 c-10 -12 -29 -38 -42 -57 -13 -19 -41 -56 -62 -81 -64
-78 -51 -104 85 -179 66 -36 128 -46 187 -30 35 9 46 9 68 -6 14 -9 44 -19 65
-22 35 -4 43 0 83 39 24 24 44 51 44 61 0 28 29 34 46 9 8 -11 21 -21 28 -21
8 0 16 -9 19 -20 4 -16 14 -20 45 -20 31 0 41 4 45 20 3 11 2 20 -2 20 -3 0
-14 15 -24 33 -31 58 -111 137 -139 137 -25 0 -26 -1 -106 -122 -14 -21 -29
-38 -34 -38 -17 0 -20 31 -5 63 14 29 37 49 152 133 29 21 40 35 37 49 -7 37
-20 39 -98 9 -58 -22 -88 -41 -125 -78 -52 -53 -64 -78 -74 -148 -5 -42 -9
-47 -37 -53 -22 -5 -33 -3 -39 7 -4 8 -35 25 -68 38 -84 34 -91 52 -47 120 19
29 49 62 65 72 57 37 49 86 -14 86 -22 0 -40 -8 -53 -21z"/>
<path d="M6668 8060 c-9 -22 -13 -40 -10 -40 4 0 8 -16 9 -36 1 -19 7 -42 15
-51 7 -8 13 -32 13 -52 1 -20 8 -67 16 -104 14 -67 14 -68 44 -65 30 3 30 3
31 68 0 36 -5 88 -11 115 -7 28 -18 79 -25 115 -7 36 -17 71 -23 78 -18 23
-42 12 -59 -28z"/>
<path d="M7385 7912 c-14 -10 -36 -76 -37 -112 -1 -17 -4 -30 -8 -30 -4 0 -10
-11 -13 -25 -3 -19 2 -31 19 -44 30 -23 67 -17 59 9 -3 10 -1 21 4 25 6 3 10
36 10 73 -1 37 2 77 6 90 6 17 4 22 -11 22 -11 0 -24 -4 -29 -8z"/>
<path d="M13657 7704 c-3 -3 -38 -6 -79 -6 -44 0 -87 -6 -108 -15 -93 -41
-155 -79 -187 -114 -34 -38 -103 -144 -103 -159 0 -4 -7 -13 -15 -20 -8 -7
-14 -18 -13 -24 2 -6 -7 -21 -20 -34 -12 -12 -23 -34 -24 -49 -2 -39 -3 -44
-17 -85 -7 -21 -10 -41 -8 -46 3 -4 8 -41 11 -81 3 -45 12 -81 21 -91 8 -9 12
-20 9 -23 -4 -4 -1 -13 5 -21 7 -8 22 -33 34 -56 48 -89 88 -150 98 -150 6 0
25 -16 43 -35 37 -39 115 -78 191 -96 28 -6 57 -15 66 -20 9 -4 27 -5 39 -2
21 5 22 3 18 -25 -2 -18 0 -33 6 -35 6 -2 4 -11 -7 -21 -16 -16 -16 -34 -2
-82 2 -6 -1 -17 -5 -24 -5 -8 -4 -22 1 -31 6 -12 5 -19 -3 -21 -7 -3 -12 -18
-13 -34 0 -26 -4 -29 -33 -32 -33 -3 -253 35 -362 63 -30 7 -98 19 -150 25
-52 6 -125 18 -161 26 -37 8 -75 14 -86 14 -10 0 -23 4 -28 9 -6 5 -28 11 -50
14 -68 8 -214 48 -380 103 -38 13 -97 30 -130 38 -33 8 -85 22 -115 30 -30 9
-68 16 -83 16 -16 0 -53 11 -83 25 -38 17 -67 24 -97 22 -26 -2 -57 3 -82 14
-52 24 -69 24 -100 -4 -21 -17 -25 -28 -20 -48 6 -23 13 -27 53 -32 73 -9 135
-30 160 -53 14 -13 42 -24 74 -27 27 -4 55 -10 62 -15 6 -6 38 -12 71 -15 114
-11 170 -20 180 -27 6 -4 35 -15 65 -25 30 -10 72 -24 93 -31 20 -8 57 -14 82
-14 24 0 46 -4 49 -9 3 -4 27 -14 53 -21 27 -6 61 -17 78 -23 16 -6 47 -12 70
-13 48 -3 162 -23 190 -34 43 -17 175 -44 275 -55 30 -4 89 -13 130 -20 126
-24 245 -47 248 -50 2 -2 -9 -20 -23 -40 -14 -21 -23 -40 -21 -42 2 -3 -3 -13
-12 -23 -27 -29 -36 -43 -55 -80 -26 -51 -87 -149 -128 -206 -20 -27 -46 -70
-58 -97 -13 -26 -32 -52 -42 -58 -10 -5 -19 -14 -19 -19 0 -5 -20 -44 -45 -86
-25 -41 -45 -79 -45 -84 0 -14 -30 -40 -46 -40 -11 0 -13 6 -9 20 7 23 -7 27
-24 6 -9 -11 -44 -16 -124 -20 -62 -2 -134 -7 -162 -10 -126 -13 -198 -13
-300 -2 -108 13 -281 11 -340 -3 -40 -10 -57 -53 -32 -79 15 -14 39 -17 145
-19 192 -3 180 -2 160 -14 -10 -5 -64 -14 -120 -19 -155 -14 -234 -46 -338
-141 -56 -51 -45 -176 17 -200 12 -4 23 -13 23 -19 0 -5 4 -10 10 -10 5 0 25
-11 45 -24 20 -14 53 -30 73 -37 20 -6 45 -18 54 -27 16 -13 42 -21 131 -39
25 -5 39 -23 17 -23 -6 0 -4 -14 4 -35 9 -20 13 -42 9 -50 -3 -9 0 -22 7 -30
9 -11 10 -18 1 -29 -9 -10 -9 -24 0 -57 8 -30 9 -62 3 -99 l-9 -54 -44 -8
c-28 -5 -49 -4 -57 3 -8 7 -32 8 -63 4 -27 -4 -58 -2 -68 3 -11 6 -38 6 -73 0
-30 -6 -82 -10 -116 -9 -52 1 -63 -2 -83 -23 -14 -15 -21 -31 -17 -41 7 -18
-19 -74 -43 -91 -13 -10 -13 -16 -3 -40 11 -23 11 -29 -1 -36 -14 -7 -35 -119
-28 -143 7 -22 0 -87 -11 -108 -6 -12 -13 -38 -15 -57 -2 -19 -10 -40 -17 -45
-16 -13 -24 -55 -13 -72 4 -7 3 -21 -2 -31 -7 -13 -7 -22 0 -29 8 -8 7 -13 0
-17 -6 -4 -11 -15 -11 -24 0 -9 -7 -30 -15 -46 -8 -15 -15 -37 -15 -47 0 -11
-4 -19 -8 -19 -5 0 -10 -35 -11 -77 -5 -121 -7 -157 -13 -173 -27 -76 -38
-120 -38 -150 0 -50 -11 -110 -20 -105 -3 2 -6 -28 -6 -68 1 -69 2 -72 29 -81
40 -14 56 7 63 84 3 36 9 74 14 85 5 11 11 34 14 50 2 17 12 62 20 100 9 39
20 113 25 165 13 125 36 269 49 300 5 14 20 63 32 110 12 47 25 94 30 105 4
11 13 70 20 130 7 61 19 120 26 131 7 12 13 30 13 40 0 11 3 40 7 67 l7 47 93
0 c51 0 116 5 145 11 40 9 57 8 75 -2 18 -9 37 -10 79 -2 30 5 55 8 55 7 0 -2
-7 -18 -16 -37 l-16 -33 -61 8 c-68 10 -181 -6 -208 -29 -8 -7 -22 -13 -30
-13 -12 0 -43 -26 -92 -78 -10 -9 -10 -37 -4 -110 7 -80 14 -105 38 -145 16
-26 29 -56 29 -67 0 -11 9 -24 20 -30 11 -6 28 -28 37 -49 16 -38 55 -63 146
-93 17 -6 37 -14 42 -19 6 -4 27 -10 48 -14 l38 -7 -22 -24 c-12 -13 -20 -27
-16 -30 3 -4 0 -13 -8 -21 -8 -8 -18 -26 -21 -41 -4 -15 -16 -39 -26 -54 -11
-16 -16 -32 -13 -38 6 -10 -13 -77 -27 -95 -4 -5 -8 -17 -8 -27 0 -9 -6 -21
-14 -25 -16 -10 -36 -46 -36 -68 0 -8 -7 -32 -17 -53 -9 -20 -15 -41 -14 -46
1 -5 -5 -16 -13 -25 -8 -9 -17 -32 -21 -53 -10 -52 15 -73 104 -88 56 -9 90
-9 157 0 46 7 101 14 122 16 20 2 78 8 127 14 50 5 107 13 129 19 21 5 45 7
52 4 8 -3 20 0 28 6 7 6 20 9 28 6 9 -4 18 0 21 8 3 9 20 12 53 11 27 -2 83 4
124 12 41 7 109 16 150 18 229 12 310 20 310 28 0 5 5 6 11 2 7 -4 66 -9 133
-11 363 -12 366 -13 406 -33 21 -11 45 -26 53 -34 8 -8 39 -18 68 -22 l53 -7
-27 32 c-15 18 -27 38 -27 44 -1 26 -69 86 -135 122 -39 20 -83 50 -100 65
-16 15 -84 67 -150 115 -66 48 -142 112 -168 141 -27 30 -53 54 -58 54 -10 0
-68 61 -69 71 0 4 19 3 43 -1 37 -7 109 -11 252 -13 58 -1 191 33 214 55 11
10 41 21 66 25 25 3 48 10 51 14 3 5 16 9 28 9 13 0 40 11 60 25 20 14 43 25
51 25 7 0 25 14 38 30 14 17 30 30 36 30 16 0 51 65 62 116 13 65 11 134 -6
192 -18 59 -18 62 0 62 8 0 15 -7 15 -15 0 -8 8 -15 18 -15 24 1 52 24 52 44
0 9 4 16 10 16 5 0 7 6 4 13 -3 8 4 37 16 66 11 29 18 56 15 61 -3 5 -1 11 4
15 5 3 21 40 35 83 14 42 41 122 60 177 20 55 36 111 36 126 0 14 4 29 9 35
13 13 54 125 56 154 1 14 6 34 12 45 6 11 20 65 32 120 12 55 27 111 33 125
26 60 50 132 54 160 1 8 9 35 18 59 9 24 16 55 16 69 0 26 16 83 31 114 13 26
38 146 43 207 3 30 10 59 15 64 6 6 11 24 11 39 0 15 3 28 8 28 4 0 7 26 7 58
1 31 6 84 12 117 10 57 10 262 -1 315 -3 14 -18 36 -33 49 -27 23 -30 24 -158
17 -71 -3 -139 -7 -150 -9 -22 -2 -22 0 -4 93 6 30 13 67 16 82 16 83 -52 154
-165 172 -36 5 -54 2 -95 -19 -29 -13 -59 -30 -67 -37 -19 -16 -70 -94 -70
-107 0 -5 -5 -11 -11 -13 -6 -2 -12 -22 -13 -43 0 -22 -5 -43 -9 -46 -4 -3 -8
-17 -9 -30 -2 -70 -32 -200 -60 -264 -5 -11 -8 -38 -8 -60 2 -70 0 -84 -10
-90 -5 -3 -12 -28 -16 -56 -4 -28 -13 -56 -20 -64 -8 -7 -24 -44 -35 -82 -12
-37 -25 -77 -30 -88 -11 -30 -22 -96 -20 -132 0 -18 -2 -33 -7 -33 -4 0 -8
-18 -8 -40 -2 -43 -21 -100 -35 -100 -5 0 -9 -7 -9 -16 0 -20 -30 -86 -44 -97
-6 -4 -23 -5 -39 -3 -15 3 -38 1 -51 -4 -13 -4 -56 -12 -96 -16 l-73 -7 7 54
c4 30 13 119 21 199 8 80 19 183 25 230 6 47 13 123 15 170 6 111 14 168 26
175 12 8 12 52 -1 60 -15 9 -12 188 4 273 7 39 11 72 8 72 -3 0 -2 4 4 9 9 10
124 25 216 30 15 0 33 7 40 14 13 11 32 23 76 46 9 6 28 12 42 15 44 10 150
123 150 160 0 9 6 16 14 16 9 0 12 7 9 20 -3 11 -1 26 5 33 14 17 52 186 52
232 0 46 -29 187 -41 200 -5 5 -9 20 -9 33 0 35 -44 103 -103 159 -119 112
-249 162 -423 163 -50 0 -93 -3 -97 -6z m238 -122 c69 -9 143 -51 216 -124 35
-36 52 -65 74 -125 41 -115 46 -203 18 -302 -8 -31 -17 -68 -20 -83 -3 -14
-16 -37 -29 -49 -13 -12 -24 -31 -24 -41 0 -18 -81 -78 -105 -78 -13 0 -88
-40 -95 -50 -3 -5 -87 -14 -186 -21 -166 -12 -187 -11 -246 5 -94 25 -129 51
-196 141 -90 122 -106 163 -108 272 -1 51 2 96 7 99 5 3 9 13 9 23 0 26 26 75
91 171 72 106 94 130 120 130 11 0 36 7 55 15 20 8 84 17 142 21 59 3 109 8
112 11 3 3 28 2 55 -1 28 -4 77 -10 110 -14z m929 -1231 c25 -1 27 -4 22 -26
-4 -16 -1 -34 8 -47 11 -15 12 -26 5 -40 -6 -10 -9 -56 -8 -102 1 -46 -2 -90
-7 -97 -5 -8 -9 -46 -10 -86 0 -40 -6 -78 -12 -85 -12 -15 -32 -126 -37 -199
-1 -25 -8 -55 -14 -67 -6 -11 -11 -30 -11 -41 0 -12 -5 -21 -11 -21 -6 0 -9
-7 -6 -15 4 -8 2 -17 -4 -21 -6 -3 -9 -16 -8 -27 2 -12 -2 -32 -9 -43 -6 -12
-8 -24 -5 -28 6 -6 -16 -86 -27 -96 -29 -27 -65 -167 -48 -187 8 -10 7 -13 -5
-13 -13 0 -40 -73 -42 -115 -1 -5 -6 -20 -13 -32 -7 -12 -12 -31 -12 -42 0
-11 -6 -38 -14 -58 -27 -72 -29 -78 -32 -93 -14 -69 -24 -102 -42 -145 -11
-27 -26 -71 -33 -97 -7 -27 -17 -48 -21 -48 -4 0 -8 -12 -8 -26 0 -14 -11 -50
-25 -80 -14 -30 -25 -60 -25 -67 0 -7 -7 -23 -16 -35 -9 -13 -14 -32 -11 -43
3 -10 1 -22 -4 -25 -5 -3 -9 -12 -9 -19 0 -8 -7 -23 -16 -34 -16 -18 -18 -18
-69 24 -48 39 -120 73 -190 91 -22 5 -25 11 -20 33 3 14 7 47 9 72 2 26 7 52
10 58 9 14 16 42 52 216 45 222 68 311 85 331 6 8 35 21 63 29 29 9 67 28 86
43 29 25 33 34 33 75 -1 37 -10 60 -42 109 -36 54 -41 70 -41 118 0 31 5 61
10 66 6 6 12 26 13 45 1 19 6 39 10 46 4 6 3 14 -3 18 -13 8 -13 48 1 62 6 6
15 37 19 69 14 92 35 180 70 289 30 92 44 147 54 200 16 91 17 94 44 92 22 -2
27 3 37 43 l11 45 79 16 c44 9 98 15 120 14 22 -2 53 -4 69 -4z m-1263 -538
c-6 -71 -13 -142 -15 -159 -3 -17 0 -37 4 -45 5 -7 5 -18 1 -24 -17 -20 -23
-76 -10 -91 10 -12 9 -17 -6 -28 -10 -7 -15 -18 -12 -23 4 -6 3 -23 -2 -39 -4
-16 -5 -39 0 -51 7 -20 4 -21 -59 -28 -36 -4 -77 -12 -92 -17 -14 -6 -47 -12
-75 -14 -27 -2 -60 -6 -72 -9 -19 -4 -23 -1 -25 17 -3 48 4 71 33 110 16 23
29 46 29 52 0 6 13 25 29 41 15 17 34 48 40 68 7 21 22 50 34 65 38 47 64 86
86 130 12 23 25 42 30 42 4 0 16 19 26 43 23 52 55 100 62 93 3 -3 1 -63 -6
-133z m-592 -549 c2 -2 -11 -4 -30 -4 -19 0 -40 -4 -48 -9 -15 -10 -41 -4 -41
9 0 16 102 18 119 4z m-289 -5 c41 -1 42 -2 15 -8 -38 -9 -105 -2 -105 11 0 6
10 8 23 4 12 -3 42 -6 67 -7z m1435 -14 c76 -10 155 -57 155 -94 0 -12 -16
-28 -43 -44 -39 -23 -53 -25 -172 -26 -73 -1 -156 -8 -190 -16 -124 -29 -315
-65 -349 -65 -19 0 -37 -4 -40 -9 -7 -10 -103 -28 -204 -37 -39 -3 -75 -10
-78 -15 -3 -5 -9 -7 -14 -4 -5 3 -35 1 -67 -5 -32 -6 -80 -10 -108 -10 -27 0
-80 -6 -117 -13 -48 -10 -82 -12 -124 -5 -38 6 -61 5 -68 -2 -5 -5 -24 -10
-41 -10 -17 0 -36 -5 -42 -11 -6 -6 -44 -13 -84 -16 -101 -7 -103 -7 -144 13
-29 13 -41 14 -61 5 -50 -22 -147 -5 -245 44 -101 51 -110 71 -51 127 35 33
108 64 172 72 14 2 33 7 42 11 16 6 167 7 498 3 69 -1 152 1 185 4 33 4 107 9
165 13 107 6 211 20 265 35 37 11 150 29 225 36 30 2 109 11 175 19 106 12
259 12 360 0z m-264 -340 c4 -21 3 -66 -1 -99 -4 -34 -6 -64 -4 -67 5 -9 16
-255 18 -404 1 -110 -1 -130 -14 -130 -12 0 -15 -14 -16 -63 -1 -34 3 -65 7
-68 5 -3 9 -26 9 -51 0 -29 6 -53 17 -65 15 -17 14 -18 -34 -18 -33 0 -58 6
-74 18 -13 10 -35 19 -47 20 -45 2 -72 29 -72 72 0 21 -4 41 -9 44 -9 6 -6 30
11 109 5 26 14 47 19 47 4 0 6 7 2 16 -3 8 -1 25 5 37 21 46 43 234 37 324 -6
91 -20 206 -30 258 -7 33 -17 29 130 59 33 6 40 1 46 -39z m-273 -61 c7 -23
12 -55 12 -72 0 -17 5 -34 10 -37 13 -8 5 -124 -9 -138 -6 -6 -11 -23 -11 -38
0 -15 -7 -32 -15 -39 -9 -8 -13 -21 -9 -36 4 -15 2 -24 -6 -24 -8 0 -10 18 -6
63 23 252 24 326 4 338 -24 16 -38 9 -64 -33 -27 -42 -41 -131 -24 -153 4 -5
1 -50 -6 -99 -10 -67 -10 -93 -2 -103 8 -10 8 -17 0 -25 -7 -7 -12 -23 -12
-37 0 -15 -6 -46 -14 -71 -15 -50 -37 -62 -67 -34 -62 56 -171 86 -294 79 -27
-1 -58 1 -67 6 -9 5 -57 10 -105 10 l-88 2 1 76 c1 42 -2 96 -6 121 -5 25 -11
77 -15 115 l-7 70 59 18 c39 13 114 21 228 27 94 5 184 12 200 15 17 3 66 10
110 14 44 5 103 15 130 23 28 8 53 12 56 9 3 -3 11 -25 17 -47z m-908 -102
c19 -15 23 -29 25 -102 2 -47 8 -119 14 -160 10 -79 2 -191 -18 -228 -6 -11
-11 -32 -11 -46 0 -26 -16 -68 -66 -173 -19 -40 -23 -61 -18 -88 3 -19 10 -38
15 -41 21 -13 6 -24 -34 -24 -23 0 -53 -7 -65 -16 -42 -29 -252 -17 -252 14 0
5 9 17 20 27 11 10 20 29 20 43 0 13 16 54 36 91 62 114 76 206 72 476 l-3
230 40 6 c22 3 77 7 121 8 65 1 86 -3 104 -17z m425 -462 l30 -7 -35 -6 c-19
-3 -82 -11 -139 -17 -58 -6 -114 -18 -125 -26 -31 -21 -38 -17 -34 19 3 31 4
32 63 38 85 8 205 8 240 -1z m220 -114 c133 7 167 6 195 -6 25 -10 28 -15 19
-37 -14 -39 -11 -78 10 -105 11 -14 18 -33 15 -44 -4 -16 4 -25 39 -42 24 -12
59 -22 76 -22 18 0 44 -6 59 -14 86 -44 206 -68 210 -41 8 51 7 113 -4 175
-13 79 -12 90 11 90 8 0 19 9 25 20 10 18 20 21 68 19 113 -3 194 -69 206
-168 3 -30 8 -56 10 -60 2 -3 -8 -30 -22 -60 -24 -47 -35 -58 -92 -87 -36 -18
-77 -34 -92 -34 -15 0 -29 -4 -32 -9 -3 -5 -21 -12 -40 -15 -19 -4 -40 -13
-46 -21 -44 -53 -218 -81 -400 -64 -63 5 -143 10 -178 9 -55 -1 -72 4 -151 44
-49 25 -109 49 -133 52 -24 4 -48 11 -54 16 -20 15 -164 27 -254 21 -62 -5
-95 -12 -120 -28 -38 -23 -109 -52 -180 -73 -60 -17 -210 -31 -235 -21 -11 4
-41 13 -68 20 -58 16 -93 51 -143 144 -59 108 -50 200 22 234 16 7 49 22 74
34 25 11 53 24 63 29 28 14 87 -1 87 -22 0 -10 -5 -20 -11 -22 -5 -2 -13 -24
-16 -48 -3 -25 -13 -52 -22 -61 -9 -9 -23 -34 -30 -55 -18 -55 7 -115 58 -140
61 -29 158 -42 221 -28 133 29 216 54 228 71 25 35 36 92 24 126 -9 24 -9 41
1 72 19 63 37 82 87 90 24 4 62 15 85 25 24 10 83 21 146 25 57 4 124 10 149
14 25 4 52 4 60 1 8 -4 42 -5 75 -4z m-405 -497 c43 2 149 -19 156 -30 3 -5
14 -9 25 -9 24 0 191 -101 262 -157 26 -21 78 -68 115 -105 37 -37 83 -80 103
-95 80 -62 208 -167 206 -170 -5 -4 -94 -3 -182 3 -102 7 -99 7 -180 -3 -33
-3 -80 -6 -105 -5 -25 0 -92 -6 -150 -13 -58 -8 -152 -19 -210 -25 -58 -6
-141 -20 -185 -31 -44 -10 -99 -19 -122 -19 -23 0 -54 -5 -70 -11 -15 -7 -46
-13 -68 -15 -22 -2 -74 -8 -115 -14 -80 -10 -127 -13 -204 -11 -45 1 -48 2
-41 24 4 12 13 45 21 72 8 28 19 52 24 53 6 2 10 10 10 17 0 8 9 29 19 47 10
18 22 49 26 68 14 69 74 176 125 224 27 25 53 46 59 46 5 0 30 16 55 35 25 19
69 46 98 61 29 14 61 30 70 35 10 5 26 9 35 9 10 1 29 7 43 14 16 10 43 12 85
9 33 -3 76 -5 95 -4z"/>
<path d="M6301 7459 c-18 -25 -24 -48 -28 -123 -4 -64 -2 -95 6 -100 6 -4 11
-20 11 -36 0 -16 4 -31 9 -35 5 -3 6 -18 3 -33 -4 -15 -6 -65 -4 -112 4 -126
4 -132 1 -172 -2 -21 -1 -39 2 -42 2 -2 19 -1 37 1 40 6 53 33 40 80 -6 21 -5
55 2 92 6 32 8 90 5 128 -2 37 -7 111 -10 163 -10 158 -14 192 -26 206 -16 20
-22 18 -48 -17z"/>
<path d="M7630 7312 c0 -10 -4 -22 -9 -27 -5 -6 -4 -38 2 -76 13 -85 7 -99
-38 -99 -49 0 -75 -16 -75 -44 0 -28 50 -56 99 -56 l31 0 2 -97 c0 -54 0 -109
-1 -121 -3 -30 40 -75 63 -66 34 13 47 65 44 173 -4 124 3 136 86 132 30 -1
57 2 59 7 9 14 -55 58 -105 71 -36 10 -48 18 -48 33 0 10 -6 21 -14 24 -12 5
-13 11 -4 30 9 18 8 28 0 36 -7 7 -12 22 -12 33 0 24 -42 65 -65 65 -8 0 -15
-8 -15 -18z"/>
<path d="M7388 7313 c-9 -2 -23 -15 -32 -27 -14 -22 -13 -25 5 -45 23 -24 37
-26 62 -7 34 26 7 88 -35 79z"/>
<path d="M6537 7294 c-4 -4 -7 -16 -7 -26 0 -10 -4 -18 -10 -18 -19 0 -10 -25
16 -43 14 -11 37 -17 56 -15 64 6 50 90 -17 104 -17 3 -33 2 -38 -2z"/>
<path d="M8114 7210 c-77 -22 -101 -35 -141 -73 -26 -24 -33 -39 -33 -68 0
-33 7 -44 56 -87 30 -27 69 -53 86 -56 90 -18 76 -73 -27 -107 -45 -15 -85
-46 -85 -66 0 -7 19 -22 41 -34 40 -20 43 -20 80 -4 21 10 66 43 100 75 60 56
62 58 55 95 -8 41 -39 73 -88 90 -40 14 -118 77 -115 93 1 8 29 25 62 39 89
38 114 58 113 93 -1 36 -12 37 -104 10z"/>
<path d="M6571 7144 c-21 -15 -23 -21 -17 -73 4 -31 8 -81 10 -111 1 -30 6
-64 11 -74 5 -11 4 -30 -2 -46 -13 -36 12 -73 47 -68 34 4 40 38 34 201 -7
179 -23 213 -83 171z"/>
<path d="M7369 7108 c-19 -21 -20 -31 -16 -128 6 -126 19 -162 56 -158 42 5
52 39 45 163 -5 93 -9 113 -26 128 -26 22 -33 22 -59 -5z"/>
<path d="M6897 7099 c-10 -6 -33 -26 -52 -45 -26 -26 -35 -43 -35 -69 0 -18 4
-36 9 -39 5 -3 7 -15 4 -26 -3 -11 0 -27 7 -35 6 -8 9 -19 5 -25 -10 -16 24
-50 50 -50 28 0 38 26 39 105 1 48 4 59 16 56 63 -14 88 -13 109 8 28 28 57
24 53 -7 -2 -13 3 -25 12 -28 9 -3 16 -12 16 -20 0 -8 4 -14 9 -14 6 0 7 -16
4 -35 -7 -44 10 -65 52 -65 42 0 62 22 48 53 -6 12 -16 38 -23 57 -7 19 -19
49 -26 67 -8 17 -14 35 -14 40 0 5 -17 26 -38 46 -44 43 -88 49 -117 17 -10
-11 -22 -20 -27 -20 -6 0 -21 9 -35 20 -29 22 -40 24 -66 9z"/>
<path d="M8353 6888 c-45 -22 -39 -78 10 -101 37 -19 62 -9 71 28 8 29 -6 60
-34 75 -22 12 -19 12 -47 -2z"/>
<path d="M2029 6523 c-6 -16 -6 -29 -1 -31 5 -1 2 -34 -7 -73 l-15 -71 25 -19
c30 -23 43 -24 59 -3 14 16 16 106 3 127 -4 6 -8 26 -9 42 -2 52 -4 55 -24 55
-13 0 -24 -10 -31 -27z"/>
<path d="M2233 6407 c-32 -12 -92 -72 -93 -93 0 -6 14 -17 30 -24 29 -12 33
-11 60 15 17 16 30 34 30 41 0 6 7 17 15 24 18 15 20 50 3 49 -7 0 -27 -6 -45
-12z"/>
<path d="M1705 6280 c-27 -4 -81 -13 -120 -19 -38 -7 -102 -14 -142 -14 -71
-2 -73 -3 -119 -47 -47 -45 -80 -103 -69 -120 3 -6 2 -17 -3 -27 -7 -12 -5
-24 5 -40 11 -17 14 -36 10 -68 -4 -27 -2 -45 4 -47 6 -2 16 -38 22 -80 9 -64
14 -78 31 -82 20 -6 20 -7 3 -17 -15 -9 -16 -13 -5 -26 7 -9 11 -28 10 -42 -2
-15 3 -45 10 -67 8 -21 11 -50 8 -64 -4 -14 -3 -30 2 -36 5 -7 4 -22 -3 -37
-7 -15 -8 -34 -4 -44 5 -10 9 -29 10 -43 2 -14 5 -36 9 -50 3 -14 9 -38 12
-55 4 -16 12 -38 20 -49 9 -14 10 -24 2 -42 -9 -19 -8 -28 5 -42 10 -11 17
-35 17 -60 0 -22 5 -44 10 -47 6 -3 10 -19 10 -36 0 -16 5 -29 11 -29 7 0 9
-12 5 -34 -4 -19 -2 -45 3 -57 14 -37 39 -132 40 -154 1 -11 1 -74 1 -139 1
-67 5 -125 11 -132 7 -9 7 -19 0 -32 -7 -13 -7 -22 1 -30 8 -8 7 -24 -1 -57
-9 -34 -9 -51 0 -67 7 -13 12 -77 13 -159 0 -75 4 -140 8 -144 4 -4 4 -20 1
-36 -5 -25 -2 -29 16 -29 21 0 21 -1 6 -16 -8 -9 -13 -24 -10 -34 3 -9 7 -44
10 -76 2 -33 8 -73 13 -90 6 -18 6 -37 1 -47 -6 -9 -5 -26 1 -42 5 -14 10 -62
10 -106 0 -49 4 -79 11 -79 5 0 8 -4 4 -9 -3 -6 -1 -29 5 -53 6 -24 13 -69 15
-101 3 -32 8 -63 11 -69 4 -6 7 -35 8 -66 1 -44 5 -57 21 -66 11 -6 23 -15 27
-21 8 -10 344 -10 688 1 96 3 263 7 370 9 295 5 391 14 417 38 21 19 22 23 18
226 -3 113 -7 350 -9 526 -5 333 -14 590 -22 614 -3 8 -7 89 -9 180 -3 132 -9
186 -28 261 -14 52 -25 117 -25 144 -1 134 -46 241 -91 216 -27 -14 -31 -13
-31 8 0 10 -13 29 -29 43 l-30 26 30 29 c16 15 29 36 29 45 0 10 5 21 10 24 6
4 8 11 5 16 -4 5 1 12 9 15 40 15 10 51 -123 152 -25 19 -50 41 -54 49 -4 7
-14 13 -21 13 -8 0 -29 17 -48 38 -19 20 -52 47 -74 59 -34 19 -43 20 -64 10
-19 -10 -25 -20 -24 -45 1 -20 -3 -32 -11 -32 -7 0 -15 -9 -18 -21 -8 -31 -45
-5 -39 27 2 13 8 24 12 24 4 0 15 23 25 52 17 52 17 53 -5 70 -12 10 -26 15
-32 12 -5 -3 -12 3 -15 15 -6 22 -54 51 -84 51 -21 0 -38 -22 -21 -28 14 -4
-26 -62 -44 -62 -7 0 -14 -5 -16 -11 -2 -7 -18 -3 -41 11 -38 22 -45 34 -27
45 6 3 10 17 10 30 0 13 7 30 15 39 23 23 18 43 -17 67 -18 12 -54 42 -80 66
-26 24 -59 48 -73 55 -14 6 -25 15 -25 19 0 7 -79 49 -93 49 -4 0 -26 -13 -48
-30 -31 -22 -46 -27 -58 -20 -22 11 -42 35 -40 46 1 5 1 28 0 51 -1 30 -6 43
-18 47 -41 11 -81 13 -128 6z m67 -154 c18 -18 60 -63 93 -100 33 -37 68 -75
78 -84 9 -9 36 -35 60 -58 23 -22 65 -51 92 -64 28 -13 78 -43 112 -67 34 -24
68 -43 75 -43 7 0 29 -14 48 -31 56 -49 143 -109 157 -109 7 0 13 -6 13 -13 0
-7 23 -33 51 -58 28 -24 66 -57 84 -74 18 -16 54 -46 79 -65 25 -19 48 -42 51
-50 4 -13 128 -102 188 -135 15 -8 19 -26 22 -90 1 -44 5 -87 6 -95 3 -11 -12
-16 -66 -23 -89 -10 -119 -14 -125 -17 -3 -1 -13 -1 -23 0 -10 1 -32 -3 -50
-9 -18 -6 -52 -11 -77 -12 -25 -1 -71 -7 -102 -15 -31 -8 -87 -17 -124 -19
-36 -3 -70 -8 -75 -11 -5 -3 -42 -5 -82 -5 -39 0 -101 -6 -137 -12 -70 -14
-272 -14 -434 0 -74 6 -103 5 -115 -4 -25 -19 -31 -16 -31 20 0 17 -12 75 -26
127 -14 52 -27 106 -29 120 -12 100 -31 178 -47 196 -11 12 -14 24 -8 30 8 9
5 46 -19 234 -5 36 -11 76 -14 90 -3 14 -8 46 -11 73 -3 26 -7 51 -10 55 -3 5
-12 42 -21 83 -21 104 -12 185 27 221 24 23 40 27 116 33 48 3 92 8 97 10 6 2
40 4 77 4 63 1 68 -1 100 -33z m280 -77 c7 -11 30 -29 51 -40 20 -11 37 -24
37 -29 0 -5 13 -17 30 -26 20 -12 28 -24 26 -38 -5 -34 -33 -30 -86 11 -27 21
-65 49 -84 63 -41 29 -51 47 -35 66 17 20 47 17 61 -7z m389 -300 c-32 -30
-52 -10 -21 21 16 16 25 19 33 11 8 -8 5 -17 -12 -32z m260 -139 c23 -27 46
-50 52 -50 5 0 29 -22 54 -50 24 -27 57 -55 71 -62 35 -17 34 -35 -4 -64 l-31
-24 -34 33 c-19 18 -63 57 -99 86 -91 76 -114 101 -101 114 6 6 11 18 11 27 0
17 18 40 31 40 4 0 27 -22 50 -50z m304 -771 c4 -17 13 -33 21 -36 22 -8 16
-33 -10 -43 -13 -5 -47 -9 -75 -8 -27 0 -55 -3 -62 -7 -6 -5 -57 -9 -113 -10
-131 -4 -297 -29 -330 -50 -14 -9 -29 -14 -34 -11 -4 2 -26 0 -48 -5 -21 -6
-46 -10 -54 -10 -8 -1 -22 -3 -30 -6 -8 -3 -46 -7 -85 -8 -38 -2 -90 -7 -114
-13 -60 -14 -352 -7 -361 8 -5 9 -26 10 -69 5 l-61 -7 0 34 c0 18 -4 48 -9 66
-8 28 -7 34 11 43 15 8 31 8 57 0 62 -19 131 -25 281 -24 169 0 310 12 310 25
0 5 5 6 11 2 18 -11 105 -6 198 11 47 9 120 22 161 30 42 8 118 19 170 26 52
6 97 13 99 15 2 2 32 4 67 4 62 0 63 0 69 -31z m31 -233 c-3 -19 -1 -89 4
-157 5 -68 12 -160 14 -204 3 -44 8 -102 11 -130 2 -27 5 -176 5 -330 0 -154
0 -296 0 -315 0 -55 10 -164 16 -180 3 -8 7 -40 9 -70 1 -30 6 -62 9 -72 11
-25 -33 -30 -279 -34 -329 -4 -584 -13 -640 -22 -27 -4 -71 -5 -96 -2 -41 5
-110 0 -219 -15 -59 -8 -134 1 -149 19 -5 6 -11 59 -13 117 -2 59 -8 113 -15
120 -17 22 -44 139 -44 194 0 28 -7 111 -15 185 -9 74 -17 196 -19 270 -3 74
-8 153 -11 175 -4 22 -7 48 -5 58 4 26 -19 87 -32 88 -7 0 -3 4 8 8 18 7 19
16 16 124 -2 108 -1 117 16 118 76 6 225 -4 263 -17 47 -16 165 -14 280 6 30
5 100 16 155 25 55 8 125 20 155 25 118 21 286 39 320 35 19 -3 60 -1 90 4 30
5 81 9 112 10 l58 1 -4 -34z"/>
<path d="M2354 6240 c-49 -20 -35 -80 19 -80 40 0 109 45 105 68 -2 13 -15 18
-53 19 -28 1 -59 -2 -71 -7z"/>
<path d="M11529 1863 c-4 -26 4 -275 10 -308 l8 -41 -61 0 c-71 0 -136 -22
-136 -45 0 -8 11 -26 25 -39 21 -20 35 -24 76 -22 28 1 62 -4 78 -13 l29 -14
-5 -148 c-2 -81 -6 -155 -9 -163 -3 -8 -10 -42 -14 -75 -8 -55 -7 -62 16 -92
30 -39 43 -41 67 -8 27 37 36 103 43 313 l7 192 26 -1 c45 -1 140 -24 153 -37
15 -15 68 -16 68 0 0 17 -107 118 -125 118 -8 0 -15 5 -15 10 0 6 -13 10 -29
10 -16 0 -42 3 -59 6 -28 6 -30 10 -37 63 -3 31 -15 90 -26 133 -10 42 -19 85
-19 96 0 37 -66 97 -71 65z"/>
<path d="M7646 1668 c-15 -16 -16 -24 -7 -42 20 -39 41 -108 41 -137 0 -15 4
-30 9 -34 9 -5 20 -70 24 -146 2 -20 8 -43 14 -50 17 -21 27 -234 14 -291 -22
-97 30 -134 76 -53 12 22 23 52 23 66 0 31 51 133 82 167 36 37 56 29 84 -35
13 -32 29 -66 34 -75 6 -10 10 -24 10 -32 0 -8 14 -42 31 -75 27 -52 35 -61
58 -61 15 0 30 3 34 6 3 3 -8 33 -24 67 -16 34 -29 70 -29 81 0 10 -10 37 -21
60 -12 22 -29 55 -37 71 -38 74 -64 107 -78 101 -9 -3 -23 -6 -33 -6 -22 0
-98 -64 -121 -103 l-18 -29 -7 68 c-4 38 -11 89 -16 114 -5 25 -16 97 -24 161
-16 125 -24 156 -56 200 -24 34 -37 35 -63 7z"/>
<path d="M4390 1605 c-10 -12 -10 -21 -2 -38 16 -32 32 -98 32 -132 0 -17 4
-35 9 -40 5 -6 11 -44 12 -85 2 -67 0 -75 -17 -78 -10 -2 -43 -10 -72 -18 -48
-13 -52 -17 -46 -37 3 -12 7 -23 9 -24 1 -2 33 -6 71 -9 38 -3 72 -9 76 -12 3
-4 8 -58 10 -120 2 -63 6 -116 10 -118 4 -3 5 -11 1 -19 -16 -43 21 -80 67
-68 19 5 20 11 15 132 -3 69 -10 130 -15 135 -16 16 -11 44 10 64 17 16 32 18
94 14 100 -6 160 27 74 41 -69 12 -174 35 -191 42 -10 4 -16 13 -13 20 2 7 -1
42 -9 77 -7 35 -16 89 -20 121 -4 31 -11 60 -16 63 -5 3 -9 25 -9 49 0 30 -5
45 -16 49 -27 10 -51 7 -64 -9z"/>
<path d="M5409 1584 c-14 -17 -13 -78 2 -105 5 -9 11 -45 14 -79 3 -34 10 -79
16 -99 6 -20 9 -48 7 -61 -3 -24 -7 -25 -89 -31 -47 -3 -91 -9 -97 -13 -19
-12 -14 -45 11 -60 17 -11 136 -36 171 -36 3 0 2 -63 -1 -141 -6 -160 1 -189
48 -189 16 0 30 7 34 18 4 9 9 80 11 157 1 77 3 148 3 157 1 17 70 58 97 58 7
0 19 6 27 14 8 8 36 16 63 18 55 3 65 19 36 55 -17 22 -18 22 -117 9 -55 -7
-103 -11 -107 -7 -4 3 -12 40 -18 81 -26 184 -42 245 -70 260 -24 13 -25 13
-41 -6z"/>
<path d="M3635 1506 c-16 -24 -16 -28 -1 -51 14 -21 17 -57 19 -193 1 -92 6
-173 10 -179 8 -13 3 -193 -9 -325 -6 -67 -5 -78 9 -78 8 0 23 -3 31 -6 12 -5
21 4 33 32 13 32 16 72 16 218 -1 114 -5 182 -12 189 -14 14 -14 54 -1 62 12
7 2 87 -12 96 -5 3 -5 17 1 32 8 21 -2 203 -12 213 -1 1 -14 5 -29 9 -21 6
-30 2 -43 -19z"/>
<path d="M5836 1512 c-9 -15 11 -114 25 -122 9 -6 10 -12 2 -22 -8 -9 -8 -30
0 -73 6 -33 10 -84 9 -112 0 -34 4 -53 11 -53 8 0 8 -3 -1 -12 -17 -17 -15
-48 5 -70 14 -16 15 -23 3 -61 -13 -45 -18 -187 -6 -206 11 -17 51 -13 69 7
11 12 18 45 22 102 10 128 39 220 70 220 34 0 86 -103 115 -228 38 -163 62
-196 114 -157 19 14 19 16 -2 82 -11 38 -30 102 -42 143 -25 87 -88 200 -124
224 -14 9 -45 16 -70 16 -39 0 -48 -4 -74 -37 -17 -21 -33 -35 -37 -31 -4 3
-8 90 -9 193 -2 150 -5 188 -16 196 -19 11 -57 12 -64 1z"/>
<path d="M762 1467 c-25 -27 -29 -65 -7 -73 8 -4 15 -11 15 -18 0 -6 6 -23 14
-37 8 -17 10 -32 5 -40 -13 -19 0 -121 18 -141 12 -13 13 -36 6 -125 -7 -105
-8 -142 -5 -232 l2 -44 34 6 c32 5 35 3 41 -23 8 -36 20 -46 67 -53 26 -4 49
0 77 14 22 10 44 19 48 19 13 0 120 116 148 160 14 22 32 61 41 87 19 56 24
187 7 204 -6 6 -9 17 -6 24 10 28 -145 192 -206 218 -14 6 -42 21 -61 32 -84
50 -202 61 -238 22z m173 -95 c36 -4 55 -14 135 -69 33 -23 105 -86 105 -93 0
-3 9 -17 19 -32 14 -21 17 -43 15 -95 -1 -37 -7 -77 -13 -88 -5 -11 -12 -29
-13 -40 -9 -55 -108 -154 -180 -179 -37 -13 -43 -13 -57 3 -8 9 -19 35 -24 57
-6 26 -14 39 -24 38 -13 -1 -16 28 -22 200 -4 110 -9 227 -11 259 -2 51 0 57
14 51 9 -4 34 -9 56 -12z"/>
<path d="M2455 1476 c-18 -13 -18 -16 -5 -41 10 -19 15 -59 15 -124 l0 -96
-48 -7 c-50 -7 -117 -33 -117 -46 1 -28 81 -66 134 -63 23 1 27 -2 21 -16 -11
-27 -24 -223 -18 -268 7 -58 31 -105 52 -105 38 0 44 24 45 183 1 83 5 158 9
165 6 9 37 11 121 8 97 -3 116 -1 136 14 l24 18 -38 16 c-21 9 -46 16 -55 16
-31 0 -156 34 -163 44 -4 6 -8 23 -8 38 0 14 -6 28 -12 30 -10 4 -10 10 -1 30
7 15 9 52 6 94 -8 104 -47 147 -98 110z"/>
<path d="M14302 1437 c-26 -27 -28 -46 -7 -61 14 -10 14 -14 0 -43 -30 -60
-161 -144 -193 -124 -21 13 -8 111 15 111 8 0 13 6 10 13 -2 6 0 22 4 35 12
31 -6 62 -35 62 -14 0 -40 -16 -63 -40 -41 -41 -53 -78 -53 -170 0 -50 62
-117 112 -122 43 -5 107 18 135 48 12 13 29 24 36 24 8 0 17 7 21 15 3 8 11
15 18 15 7 0 26 11 41 25 26 25 28 25 45 8 18 -17 50 -78 71 -135 6 -15 27
-38 48 -51 35 -23 40 -23 56 -9 9 8 15 17 12 20 -3 3 0 11 6 18 7 9 1 25 -24
61 -18 26 -36 56 -40 66 -3 9 -11 17 -17 17 -5 0 -10 10 -10 21 0 12 -12 37
-27 55 -16 19 -42 51 -58 72 -17 20 -39 49 -48 65 -21 33 -27 33 -55 4z"/>
<path d="M2190 1405 c-8 -9 -28 -22 -46 -30 -31 -13 -123 -101 -124 -117 0 -5
6 -8 14 -8 8 0 18 -9 21 -20 8 -24 17 -25 54 -5 55 28 159 162 140 179 -16 14
-48 14 -59 1z"/>
<path d="M13570 1414 c-59 -10 -72 -16 -96 -43 -31 -35 -64 -95 -64 -116 0
-17 28 -77 40 -85 10 -7 34 -59 49 -105 15 -49 45 -65 116 -65 50 0 98 23 144
69 10 10 26 24 37 32 32 23 63 108 60 164 -3 56 -20 95 -41 95 -7 0 -21 8 -31
17 -33 34 -131 50 -214 37z m190 -141 c0 -65 -76 -173 -121 -173 -23 0 -76 45
-94 81 -19 35 -19 76 -1 94 27 27 102 41 161 31 48 -9 55 -13 55 -33z"/>
<path d="M6343 1380 c-13 -5 -23 -15 -23 -22 0 -13 47 -58 60 -58 16 0 31 30
28 57 -3 31 -26 39 -65 23z"/>
<path d="M12038 1345 c-26 -19 -59 -55 -73 -80 -23 -39 -26 -52 -21 -98 3 -28
6 -70 6 -93 -1 -63 41 -105 140 -141 19 -7 49 -13 65 -13 32 0 95 33 95 50 0
5 7 10 15 10 8 0 15 8 15 19 0 10 9 30 20 44 24 30 25 71 5 167 -24 116 -75
166 -170 168 -42 1 -57 -4 -97 -33z m153 -96 c42 -49 30 -171 -18 -190 -13 -5
-23 -13 -23 -19 0 -6 -15 -9 -37 -6 -37 4 -47 21 -21 37 10 7 -13 63 -32 74
-16 10 -12 53 8 76 18 22 66 48 91 49 7 0 22 -9 32 -21z"/>
<path d="M13272 1263 c-38 -41 -62 -76 -62 -90 0 -12 -8 -27 -17 -32 -10 -5
-27 -27 -38 -48 -10 -21 -20 -39 -21 -41 -6 -9 -99 62 -169 130 -80 78 -119
96 -132 63 -13 -35 28 -103 105 -175 42 -40 89 -82 104 -93 35 -26 35 -37 0
-112 -16 -33 -32 -77 -36 -97 -3 -20 -13 -41 -21 -48 -17 -14 -95 -173 -95
-193 0 -8 -8 -25 -18 -38 -23 -29 -35 -95 -22 -119 12 -22 35 -31 55 -24 16 6
95 162 95 186 0 8 7 23 15 34 8 10 15 26 15 35 0 9 9 26 20 39 11 13 23 35 26
49 8 36 32 89 44 96 6 3 10 15 10 26 0 10 6 19 14 19 7 0 16 14 20 31 3 17 19
51 36 75 16 25 30 49 30 53 0 5 14 33 30 64 17 31 30 65 30 75 0 9 9 25 20 35
11 9 20 26 20 36 0 11 6 24 14 28 19 12 49 74 39 83 -30 28 -50 19 -111 -47z"/>
<path d="M6719 1305 c-66 -18 -82 -29 -114 -74 -45 -67 -26 -120 65 -181 19
-13 45 -34 57 -47 12 -13 28 -23 36 -23 20 0 97 -72 97 -91 0 -14 -12 -22 -72
-49 -34 -14 -149 -19 -176 -7 -19 9 -27 7 -45 -12 l-22 -22 25 -19 c14 -11 29
-20 33 -20 5 0 22 -9 38 -21 26 -18 38 -20 92 -14 34 4 75 13 91 21 16 8 35
14 43 14 7 0 31 18 53 40 32 32 40 47 40 76 0 32 -8 44 -67 98 -94 86 -160
130 -205 135 -12 2 -19 38 -13 64 7 26 11 27 120 51 41 9 51 16 60 39 18 53
-36 69 -136 42z"/>
<path d="M10424 1275 c-17 -13 -53 -33 -80 -43 -32 -12 -48 -24 -45 -33 4 -18
13 -132 14 -187 0 -35 6 -48 29 -68 34 -28 48 -30 48 -9 0 9 6 18 14 21 9 3
15 32 20 86 8 93 25 134 60 140 59 11 147 -96 162 -195 11 -71 32 -107 64
-107 24 0 28 4 34 41 8 50 -1 104 -20 120 -8 6 -14 22 -14 35 0 13 -4 24 -10
24 -5 0 -10 8 -10 18 -1 32 -84 126 -135 154 -63 33 -92 34 -131 3z"/>
<path d="M10000 1265 c-19 -7 -46 -16 -60 -19 -30 -6 -100 -118 -100 -159 0
-48 -31 -28 -44 28 -8 34 -62 95 -85 95 -9 0 -38 12 -66 25 -62 31 -127 33
-173 5 -18 -11 -38 -20 -45 -20 -15 0 -59 -45 -76 -77 -17 -34 -13 -52 19 -82
26 -23 31 -35 30 -72 -2 -79 -2 -93 4 -144 3 -27 8 -75 11 -105 7 -72 6 -377
-1 -407 -7 -28 20 -75 39 -67 30 11 50 64 43 115 -4 29 -3 49 3 49 12 0 13
133 1 165 -5 13 -6 27 -1 29 5 3 7 62 4 131 l-4 125 40 0 c41 0 181 62 181 80
0 5 10 18 21 29 17 16 26 18 41 10 10 -5 34 -11 53 -13 19 -2 53 -15 76 -30
22 -15 43 -25 47 -22 3 4 17 -5 31 -18 14 -13 50 -31 80 -40 49 -14 59 -14
115 0 80 21 93 31 67 55 -15 14 -34 18 -79 17 -48 -1 -68 4 -106 26 -44 26
-53 46 -20 46 19 0 117 49 126 64 9 14 0 69 -20 120 -11 29 -25 43 -56 57 -48
22 -51 22 -96 4z m67 -89 c2 -1 5 -16 9 -32 5 -26 1 -33 -22 -49 -15 -10 -44
-19 -63 -19 -34 -1 -36 1 -39 33 -5 50 31 85 78 76 19 -4 36 -8 37 -9z m-423
-11 c15 -8 34 -15 41 -15 21 0 28 -55 12 -87 -30 -57 -110 -112 -163 -110
l-39 2 -2 78 c-1 58 -5 81 -17 90 -51 39 101 77 168 42z"/>
<path d="M8440 1232 c-25 -8 -47 -18 -50 -22 -3 -3 -34 -24 -70 -45 -36 -21
-67 -44 -69 -49 -2 -6 -19 -25 -37 -43 -32 -29 -33 -35 -27 -78 7 -52 43 -95
79 -95 12 0 24 -7 28 -15 7 -20 26 -19 26 1 0 10 6 13 18 9 11 -3 30 0 43 7
39 21 156 117 163 133 8 23 29 18 72 -16 60 -48 112 -79 132 -79 11 0 27 9 38
21 21 23 25 19 -60 79 -20 14 -36 30 -36 36 0 13 -63 64 -78 64 -4 0 -18 10
-30 23 -16 17 -19 26 -11 34 6 6 8 20 4 32 -5 17 -14 21 -48 20 -23 -1 -62 -8
-87 -17z m90 -78 c0 -3 -9 -18 -20 -32 -12 -15 -38 -50 -59 -77 -46 -61 -108
-94 -149 -79 -15 5 -28 17 -30 25 -7 38 105 124 203 155 47 15 55 16 55 8z"/>
<path d="M8901 1223 c-62 -8 -100 -49 -72 -78 11 -12 31 -128 31 -178 0 -20 9
-60 20 -89 17 -45 21 -86 26 -278 3 -124 7 -231 10 -238 2 -8 15 -12 31 -10
20 2 33 13 46 38 15 30 16 52 11 160 -7 148 -13 254 -17 294 -2 27 2 31 32 37
18 4 43 12 55 17 11 6 33 13 48 16 42 9 105 100 109 156 4 62 -6 85 -49 112
-67 42 -161 55 -281 41z m227 -113 c24 0 -1 -55 -46 -102 -36 -38 -53 -48 -78
-48 -36 0 -50 24 -62 106 l-7 49 75 11 c59 8 78 8 91 -3 8 -7 21 -13 27 -13z"/>
<path d="M3947 1159 c-29 -15 -45 -34 -64 -75 -15 -34 -22 -61 -17 -72 4 -9 6
-30 5 -45 -4 -51 56 -157 90 -157 10 0 19 -4 19 -10 0 -5 6 -10 14 -10 7 0 19
-6 25 -14 15 -18 148 -15 207 4 38 12 84 46 84 61 0 4 -35 6 -77 4 -125 -7
-243 27 -243 69 0 8 36 24 83 40 136 43 162 89 88 159 -72 68 -144 83 -214 46z
m97 -74 c49 -10 65 -31 40 -53 -11 -9 -26 -18 -34 -20 -55 -12 -100 -18 -105
-14 -3 3 -5 20 -5 37 0 34 33 68 57 60 6 -2 27 -7 47 -10z"/>
<path d="M6364 1133 c-15 -24 -16 -35 -6 -95 7 -38 12 -83 12 -101 0 -40 21
-72 42 -65 29 12 46 70 47 162 0 49 -4 97 -10 107 -15 29 -63 25 -85 -8z"/>
<path d="M1414 1134 c-47 -23 -96 -78 -98 -111 -1 -15 -4 -33 -8 -38 -4 -6 -3
-17 3 -25 5 -8 9 -24 9 -34 0 -10 8 -24 17 -31 15 -11 15 -13 -5 -24 -49 -26
-11 -76 71 -92 50 -10 60 -9 99 10 24 11 60 42 81 67 65 82 48 168 -50 249
-60 49 -73 52 -119 29z m71 -89 c47 -23 61 -55 46 -103 -16 -49 -68 -85 -123
-86 -53 -1 -63 22 -11 26 43 3 55 27 29 54 -20 20 -20 73 0 102 18 26 17 26
59 7z"/>
<path d="M14725 1104 c-14 -15 -25 -31 -25 -36 0 -21 79 -78 108 -78 10 0 9
112 -1 128 -14 21 -57 14 -82 -14z"/>
<path d="M1791 1101 c-27 -5 -42 -18 -74 -64 l-41 -57 13 -48 c8 -26 16 -62
19 -80 5 -37 32 -57 67 -48 25 6 35 37 24 76 -12 41 -10 125 3 138 22 22 81
14 113 -16 52 -48 85 -134 60 -158 -7 -8 -13 -27 -12 -42 2 -23 7 -27 39 -30
30 -3 40 1 53 22 9 13 16 34 16 45 -1 12 -1 30 -2 41 0 26 -63 130 -92 153
-75 61 -123 79 -186 68z"/>
</g>
</svg>
