<?xml version="1.0" standalone="no"?>
<!DOCTYPE svg PUBLIC "-//W3C//DTD SVG 20010904//EN"
 "http://www.w3.org/TR/2001/REC-SVG-20010904/DTD/svg10.dtd">
<svg version="1.0" xmlns="http://www.w3.org/2000/svg"
 width="558.541250pt" height="400.000000pt" viewBox="0 0 558.541250 400.000000"
 preserveAspectRatio="xMidYMid meet">
<metadata>
Created by potrace 1.15, written by Peter Selinger 2001-2017
</metadata>
<g transform="translate(-18.193312,413.986249) scale(0.028427,-0.028427)"
fill="#444444" stroke="none">
<path d="M1677 14558 c-15 -8 -17 -18 -12 -66 4 -31 8 -100 9 -152 5 -147 25
-520 32 -565 11 -87 26 -249 29 -320 18 -492 22 -694 15 -965 -1 -52 -2 -268
-1 -480 1 -364 -2 -623 -15 -1155 -11 -466 -23 -1278 -28 -2035 -2 -256 -9
-553 -14 -660 -6 -107 -14 -305 -17 -440 -5 -238 -11 -378 -19 -450 -2 -19 -7
-114 -11 -210 -3 -96 -8 -209 -10 -250 -2 -41 -6 -189 -9 -328 -3 -139 -11
-344 -18 -455 -19 -290 -14 -1170 8 -1462 2 -33 6 -114 9 -180 3 -66 10 -169
15 -230 5 -60 9 -177 9 -260 0 -82 0 -213 2 -290 1 -116 -2 -153 -19 -218 -20
-72 -20 -81 -7 -108 24 -45 23 -274 -1 -669 -10 -171 -11 -383 -1 -410 10 -27
11 -415 1 -517 -5 -49 -3 -67 12 -92 21 -36 10 -35 209 -14 150 15 286 18 445
9 47 -3 159 -8 250 -11 91 -3 179 -8 195 -10 108 -14 492 -19 705 -10 248 12
299 14 410 24 63 6 176 10 250 11 74 0 185 5 245 10 61 5 162 12 225 15 63 4
187 13 275 22 88 8 192 17 230 18 39 2 113 6 165 9 52 3 190 8 305 12 116 3
228 10 250 14 22 5 82 9 133 9 51 0 96 2 100 5 4 2 131 7 282 11 151 4 298 11
325 16 28 5 98 12 156 14 59 3 130 10 159 15 29 6 87 10 129 10 42 0 105 5
141 11 36 6 97 12 136 13 39 2 76 6 82 10 28 17 612 24 1047 12 182 -5 389 -9
460 -8 610 4 992 2 1110 -8 77 -6 154 -10 170 -10 17 1 180 1 363 1 184 -1
337 1 342 4 23 14 1215 -4 1239 -19 5 -3 29 -6 53 -7 49 -1 341 -27 378 -34
14 -2 65 -7 114 -10 49 -3 92 -7 95 -9 10 -6 318 -26 476 -31 634 -19 1003
-23 1525 -15 129 2 264 3 300 2 103 -2 653 8 675 13 34 7 48 40 34 83 -24 78
-48 98 -77 67 -17 -18 -30 -20 -143 -18 -68 1 -148 2 -178 2 -47 1 -52 3 -41
16 17 20 -4 42 -170 184 -102 86 -542 479 -560 500 -3 3 -32 29 -65 56 -88 74
-283 274 -314 322 -43 68 -174 197 -290 285 -45 34 -51 34 -51 3 0 -37 62
-116 117 -149 48 -29 121 -108 179 -196 35 -51 166 -185 284 -288 77 -67 198
-182 255 -240 17 -17 37 -32 44 -32 7 0 36 -24 64 -53 82 -82 263 -247 273
-247 5 0 46 -34 92 -75 45 -41 90 -75 100 -76 10 0 7 -4 -8 -8 -34 -11 -343
-23 -373 -15 -18 4 -23 11 -20 24 9 33 -136 177 -328 325 -14 11 -52 43 -85
72 -32 28 -82 71 -110 95 -179 150 -354 316 -394 373 -32 45 -52 64 -67 65
-69 1 -13 -99 137 -243 234 -226 338 -317 359 -317 6 0 11 -4 11 -8 0 -16 35
-48 165 -154 72 -58 159 -133 195 -167 l65 -62 -60 3 c-55 3 -60 5 -65 29 -5
27 -112 133 -271 270 -47 41 -137 119 -200 174 -63 55 -144 124 -179 154 -74
61 -130 120 -130 138 0 15 -37 36 -50 28 -14 -9 -12 -47 4 -86 17 -41 147
-166 300 -289 38 -30 94 -79 124 -108 30 -29 72 -62 93 -73 22 -11 39 -24 39
-29 0 -13 118 -124 191 -180 l32 -24 -24 -6 c-24 -7 -218 -20 -382 -25 -89 -3
-89 -3 -98 24 -5 15 -42 56 -82 91 -40 34 -110 99 -157 142 -89 84 -116 103
-124 90 -11 -19 69 -127 143 -195 48 -44 113 -112 122 -129 9 -16 5 -18 -36
-18 -38 0 -47 4 -54 23 -9 21 -182 197 -195 197 -3 0 -6 -11 -6 -24 0 -21 54
-96 118 -163 12 -13 22 -26 22 -28 0 -3 -36 -5 -80 -5 -69 0 -82 3 -92 20 -15
24 -36 26 -52 5 -6 -8 -22 -15 -36 -16 -95 -2 -591 13 -660 20 -116 14 -194
20 -340 27 -69 3 -129 9 -134 12 -9 5 -156 18 -321 28 -49 3 -110 9 -135 13
-81 13 -673 18 -1545 12 -308 -2 -499 1 -555 8 -53 7 -227 11 -460 9 -674 -4
-809 -3 -1315 5 -351 6 -540 5 -635 -3 -74 -6 -155 -13 -180 -15 -25 -1 -99
-8 -165 -14 -155 -14 -434 -40 -505 -46 -30 -3 -95 -7 -145 -10 -49 -3 -119
-7 -155 -10 -36 -3 -144 -8 -240 -11 -96 -4 -202 -8 -235 -10 -33 -1 -94 -3
-135 -4 -41 -1 -118 -6 -170 -11 -52 -5 -151 -11 -220 -14 -297 -10 -579 -26
-625 -35 -27 -5 -81 -9 -120 -9 -38 -1 -97 -5 -130 -11 -80 -13 -252 -22 -465
-25 -96 -1 -290 -10 -430 -20 -312 -20 -644 -25 -660 -9 -9 9 1 14 42 19 29 4
82 14 117 22 36 8 106 18 155 23 117 11 288 46 297 61 5 8 8 8 13 0 9 -14 61
-14 88 0 11 6 55 17 97 24 97 17 180 38 207 53 12 6 24 9 27 5 8 -7 348 24
477 43 52 8 104 16 115 18 37 5 90 18 99 24 5 3 35 4 65 3 80 -3 439 38 480
55 18 8 54 14 79 14 25 0 80 9 121 19 42 11 109 25 148 31 40 7 75 16 79 21 3
5 26 9 51 9 47 0 162 29 222 57 21 10 47 13 71 9 23 -3 63 2 108 14 40 11 85
20 101 20 16 0 49 9 74 19 24 10 75 26 113 34 137 30 307 76 317 86 6 6 28 11
49 11 40 0 140 30 193 58 16 8 43 15 58 14 30 -3 173 40 222 65 17 9 68 28
115 44 113 37 325 120 375 147 22 12 49 22 60 22 18 0 65 22 199 92 28 15 58
27 67 27 26 1 97 40 113 62 10 15 20 19 35 14 12 -4 21 -2 21 4 0 6 10 11 23
11 12 0 37 9 55 20 19 12 55 29 81 39 27 10 72 34 102 53 72 47 147 90 184
106 16 7 39 21 50 32 11 10 40 26 65 36 25 10 70 33 100 51 57 33 124 70 221
119 30 16 73 43 95 61 22 17 67 46 99 64 33 18 76 45 96 61 20 15 42 28 49 28
6 0 26 11 44 25 18 14 37 25 43 25 5 0 28 13 49 28 21 15 63 42 92 60 30 18
59 37 65 42 65 53 109 83 143 99 23 11 43 23 45 28 2 4 25 18 50 31 25 13 70
46 100 74 30 28 69 57 88 65 19 8 68 45 110 81 42 37 104 87 139 111 34 24 62
48 62 52 0 5 17 19 38 32 62 40 622 587 663 648 14 22 72 89 130 150 57 61
110 121 119 133 26 38 44 56 55 56 6 0 28 18 50 41 22 22 49 48 60 57 63 53
159 161 220 247 39 54 93 124 120 155 28 32 71 84 96 116 25 32 89 114 142
181 87 110 144 186 172 231 6 9 28 41 50 72 67 93 85 120 109 168 13 26 34 56
46 67 12 11 34 40 48 65 15 25 41 65 58 90 17 25 55 90 83 145 29 55 66 123
84 152 18 29 51 83 73 120 23 37 58 92 78 122 20 29 36 59 36 67 0 7 7 17 15
21 9 5 39 57 69 115 51 102 67 126 127 201 14 18 34 48 44 67 10 19 28 49 40
65 26 34 75 129 75 145 0 5 13 28 29 51 16 22 33 53 36 69 3 16 13 34 21 41 8
6 14 16 14 21 0 5 23 45 51 89 38 58 61 84 85 94 30 12 34 18 34 52 0 24 14
65 38 113 22 41 45 91 53 110 7 19 23 49 35 67 12 18 40 70 62 116 23 46 48
90 57 97 8 7 15 16 15 21 0 4 17 36 38 70 20 34 47 78 59 98 38 63 93 181 159
337 34 83 76 174 93 201 17 28 31 54 31 58 0 10 44 126 64 170 8 17 45 98 84
180 38 83 79 182 92 220 56 170 74 222 86 245 77 152 124 262 127 294 1 11 10
32 19 46 10 14 26 52 37 85 10 33 28 78 39 100 11 22 34 81 52 130 38 109 35
102 61 145 28 45 130 268 161 351 36 93 99 301 130 424 6 22 16 54 24 70 7 17
23 86 34 155 12 69 32 158 46 199 13 40 24 87 24 103 0 16 5 38 11 49 6 11 17
46 25 77 43 162 64 248 64 264 0 26 61 283 108 458 38 140 52 215 66 353 12
121 16 140 35 153 15 11 21 26 21 51 0 33 -2 35 -26 29 -18 -5 -30 -2 -38 10
-8 10 -20 14 -32 10 -25 -8 -51 -119 -58 -251 -5 -95 -30 -230 -51 -280 -28
-66 -64 -200 -104 -395 -30 -145 -63 -312 -67 -340 -5 -41 -40 -162 -58 -204
-9 -22 -25 -91 -37 -155 -11 -63 -24 -120 -29 -127 -6 -6 -13 -33 -16 -60 -3
-27 -17 -79 -29 -115 -13 -36 -26 -80 -28 -98 -3 -19 -10 -38 -16 -44 -6 -6
-11 -20 -11 -31 0 -22 -63 -214 -100 -306 -12 -30 -46 -105 -76 -167 -29 -61
-58 -130 -63 -153 -5 -23 -16 -49 -24 -58 -15 -19 -125 -259 -152 -335 -9 -26
-14 -55 -11 -64 7 -18 -35 -112 -70 -159 -13 -17 -24 -34 -24 -38 0 -4 -16
-40 -35 -79 -34 -72 -100 -245 -114 -302 -5 -16 -18 -49 -29 -72 -12 -23 -31
-66 -43 -94 -11 -29 -42 -98 -68 -153 -27 -56 -52 -117 -56 -136 -4 -19 -13
-44 -21 -55 -7 -11 -38 -76 -69 -145 -30 -69 -60 -134 -66 -144 -6 -10 -22
-49 -36 -85 -13 -36 -40 -95 -59 -129 -19 -35 -34 -67 -34 -72 0 -9 -96 -172
-128 -217 -12 -17 -22 -37 -22 -45 0 -8 -4 -18 -10 -24 -15 -15 -55 -89 -120
-220 -32 -67 -80 -157 -106 -200 -26 -43 -52 -88 -58 -99 -6 -11 -37 -59 -69
-107 -31 -48 -57 -93 -57 -100 0 -7 -12 -31 -25 -53 -14 -22 -25 -46 -25 -53
0 -19 -103 -191 -174 -292 -62 -87 -108 -164 -127 -212 -6 -16 -14 -28 -19
-28 -4 0 -17 -21 -29 -47 -12 -27 -40 -77 -63 -113 -90 -143 -114 -179 -145
-222 -34 -48 -110 -191 -136 -257 -19 -47 -106 -178 -136 -205 -11 -11 -21
-23 -21 -27 0 -5 -13 -28 -29 -51 -27 -42 -47 -72 -109 -173 -37 -60 -108
-158 -140 -192 -12 -13 -48 -61 -79 -106 -30 -45 -59 -84 -64 -85 -5 -2 -16
-19 -23 -37 -8 -18 -22 -36 -33 -39 -10 -3 -39 -37 -65 -74 -26 -37 -77 -98
-112 -137 -36 -38 -65 -73 -66 -76 0 -10 -91 -123 -123 -154 -18 -17 -84 -87
-147 -155 -63 -69 -164 -175 -225 -237 -60 -62 -122 -127 -138 -145 -15 -18
-73 -81 -130 -139 -56 -58 -123 -127 -149 -155 -26 -27 -84 -83 -129 -124 -78
-72 -172 -162 -269 -256 -25 -24 -49 -44 -55 -44 -5 0 -32 -23 -59 -51 -28
-28 -65 -57 -84 -65 -37 -15 -120 -76 -178 -131 -18 -18 -54 -44 -79 -58 -25
-15 -45 -31 -45 -36 0 -5 -5 -9 -12 -9 -6 0 -61 -33 -122 -73 -61 -41 -145
-96 -186 -122 -41 -27 -79 -53 -85 -57 -43 -35 -214 -137 -275 -164 -14 -6
-34 -21 -44 -33 -11 -11 -24 -21 -29 -21 -5 0 -28 -15 -51 -33 -23 -19 -68
-44 -101 -58 -33 -13 -78 -36 -100 -50 -46 -30 -159 -90 -260 -137 -75 -36
-86 -42 -192 -113 -78 -52 -110 -70 -243 -134 -53 -25 -105 -45 -117 -45 -12
0 -24 -4 -27 -9 -6 -10 -150 -81 -164 -81 -5 0 -15 -6 -22 -14 -6 -8 -18 -12
-25 -9 -8 3 -30 -5 -49 -16 -19 -12 -60 -30 -91 -41 -53 -18 -142 -57 -189
-82 -10 -5 -42 -18 -70 -28 -83 -29 -267 -100 -327 -126 -31 -13 -63 -24 -70
-24 -8 0 -34 -7 -59 -16 -25 -9 -59 -17 -76 -19 -17 -1 -45 -10 -62 -19 -17
-9 -44 -16 -60 -16 -16 0 -55 -9 -88 -20 -32 -11 -68 -20 -79 -20 -12 0 -26
-5 -31 -10 -11 -11 -22 -14 -103 -25 -30 -4 -98 -22 -150 -40 -53 -18 -118
-36 -146 -40 -27 -4 -96 -20 -151 -36 -56 -16 -114 -29 -129 -29 -15 0 -44 -4
-64 -9 -52 -13 -168 -36 -306 -61 -66 -11 -141 -25 -166 -31 -25 -5 -57 -11
-70 -13 -13 -2 -37 -8 -52 -15 -16 -6 -45 -11 -66 -11 -21 0 -72 -9 -113 -19
-45 -12 -100 -18 -137 -17 -34 2 -83 -1 -109 -5 -25 -5 -91 -11 -145 -14 -55
-3 -104 -8 -109 -11 -22 -14 -128 -33 -182 -34 -57 0 -121 -7 -296 -30 -215
-29 -290 -41 -340 -55 -150 -43 -254 -61 -550 -95 -52 -5 -192 -26 -310 -45
-118 -19 -276 -41 -350 -50 -74 -10 -144 -22 -155 -28 -20 -11 -678 -20 -742
-10 -30 5 -32 7 -26 37 3 17 10 37 16 43 6 9 5 18 -4 30 -10 12 -15 58 -16
182 -1 91 -4 252 -7 356 -3 105 0 219 5 253 7 48 23 817 21 1037 0 17 -1 93
-1 170 -1 77 -5 203 -11 280 -5 77 -12 205 -15 284 -3 79 -8 147 -10 151 -3 4
-7 110 -11 236 -3 126 -7 274 -10 329 -7 176 -5 655 3 668 4 6 9 86 10 177 4
396 18 846 28 915 3 17 5 84 5 150 1 66 5 167 10 225 13 143 23 397 25 620 2
176 8 351 21 615 4 66 8 406 10 755 3 564 8 905 19 1430 2 85 6 299 10 475 3
176 8 705 11 1175 4 817 1 987 -26 1290 -17 192 -29 372 -41 633 -10 214 -16
263 -30 287 -23 37 -49 51 -72 38z"/>
<path d="M15970 14080 c-40 -40 -12 -76 68 -89 60 -9 100 -33 107 -64 14 -65
20 -151 15 -222 -3 -44 0 -143 6 -219 6 -78 7 -181 3 -235 -12 -157 1 -862 19
-1016 6 -49 14 -160 18 -245 3 -85 7 -157 9 -160 2 -3 6 -54 10 -115 4 -60 9
-113 11 -116 2 -3 6 -66 8 -140 9 -248 18 -374 27 -412 17 -65 45 -733 40
-927 -3 -123 -6 -306 -15 -1070 -4 -311 -11 -657 -15 -770 -5 -126 -4 -282 2
-407 9 -169 9 -208 -4 -245 -23 -70 -18 -244 10 -363 22 -93 24 -124 26 -425
2 -179 6 -356 10 -395 13 -151 25 -734 16 -778 -4 -17 -4 -93 0 -167 4 -74 3
-193 -1 -265 -17 -241 -25 -578 -22 -905 1 -179 -2 -390 -8 -470 -24 -341 -36
-887 -26 -1105 19 -385 28 -517 41 -560 77 -266 79 -280 38 -296 -16 -6 -54
-13 -86 -14 -80 -5 -112 -13 -132 -35 -19 -21 -8 -52 26 -70 19 -11 34 -10
164 8 88 12 130 38 144 90 9 30 -3 132 -19 170 -23 52 -59 275 -64 392 -3 69
-9 139 -13 155 -12 52 -6 898 7 1070 8 91 14 366 16 635 1 261 7 585 14 720
10 221 12 473 6 650 -2 36 1 103 5 150 5 47 4 150 -1 230 -16 249 -23 455 -25
760 -3 292 -6 325 -45 530 -24 126 -25 179 -5 227 l15 36 123 -7 c102 -5 126
-3 143 9 18 15 18 16 -21 50 -33 29 -48 35 -86 35 -26 0 -69 7 -97 16 l-51 17
-6 51 c-8 76 -10 511 -2 951 3 215 9 586 13 825 3 239 8 438 10 441 7 11 6
382 -1 504 -4 66 -7 138 -7 160 -1 42 -24 371 -33 465 -3 30 -10 127 -15 215
-17 262 -30 415 -40 495 -5 41 -11 127 -14 190 -3 63 -10 178 -16 255 -6 77
-12 169 -15 205 -2 36 -4 238 -3 450 0 456 1 409 -8 735 -7 258 -7 260 -34
315 -37 74 -66 98 -129 110 -75 14 -88 13 -111 -10z"/>
<path d="M15747 13962 c-23 -25 -21 -39 5 -53 18 -10 24 -8 35 7 31 42 -6 84
-40 46z"/>
<path d="M15755 13871 c-5 -17 2 -71 10 -71 23 0 35 17 35 51 0 32 -4 39 -19
39 -11 0 -22 -9 -26 -19z"/>
<path d="M15746 13661 c-22 -25 -17 -55 10 -59 16 -2 23 5 31 32 15 50 -7 64
-41 27z"/>
<path d="M15764 13476 c-10 -40 -1 -91 17 -94 20 -4 33 52 23 92 -8 33 -32 34
-40 2z"/>
<path d="M15796 13295 c-12 -31 -6 -75 10 -82 22 -8 35 15 32 57 -3 38 -31 54
-42 25z"/>
<path d="M15745 13024 c-9 -9 -15 -28 -13 -43 2 -20 9 -26 27 -26 30 0 46 24
37 58 -7 31 -27 35 -51 11z"/>
<path d="M15530 12812 c0 -10 6 -24 13 -31 10 -10 8 -15 -8 -27 -12 -9 -21
-29 -23 -52 -1 -20 -4 -65 -6 -98 -3 -36 -12 -73 -21 -88 -17 -26 -17 -30 10
-112 28 -87 50 -114 92 -114 32 0 29 24 -13 103 -20 38 -34 69 -33 70 37 19
44 28 47 55 2 17 -1 39 -6 49 -7 13 -6 24 4 38 15 20 12 58 -8 123 -7 23 -7
37 2 47 8 10 8 19 0 34 -13 26 -50 28 -50 3z"/>
<path d="M15747 12783 c-27 -31 -22 -103 8 -103 17 0 25 23 25 76 0 47 -8 54
-33 27z"/>
<path d="M15710 12501 c-18 -35 -13 -61 14 -61 29 0 42 30 26 60 -13 25 -26
26 -40 1z"/>
<path d="M15702 12298 c-15 -19 -18 -86 -5 -99 6 -6 19 -9 28 -5 12 4 15 17
13 58 -3 52 -16 69 -36 46z"/>
<path d="M15435 12290 c-12 -19 22 -86 75 -148 11 -13 20 -32 20 -42 0 -19 40
-50 65 -50 21 0 19 39 -4 64 -10 12 -26 41 -35 66 -28 75 -101 142 -121 110z"/>
<path d="M15416 12161 c-8 -12 22 -130 40 -158 8 -12 14 -29 14 -37 0 -16 37
-46 58 -46 21 0 26 29 9 63 -9 18 -28 59 -43 92 -36 82 -63 111 -78 86z"/>
<path d="M15710 12088 c-13 -30 -16 -47 -9 -60 20 -38 44 -14 54 55 6 40 5 47
-9 47 -10 0 -25 -17 -36 -42z"/>
<path d="M15370 12030 c-20 -12 -14 -71 13 -122 21 -41 105 -108 134 -108 25
0 12 41 -26 83 -21 23 -50 65 -65 94 -29 59 -36 65 -56 53z"/>
<path d="M15283 11923 c-21 -8 -15 -33 15 -61 15 -15 41 -45 57 -67 29 -40 54
-69 101 -120 26 -28 57 -30 62 -3 2 9 -5 24 -15 35 -11 10 -34 44 -53 76 -66
110 -123 158 -167 140z"/>
<path d="M15717 11872 c-32 -33 -33 -68 -4 -86 12 -8 22 -8 35 0 17 12 17 18
4 82 l-7 33 -28 -29z"/>
<path d="M15230 11715 c0 -28 29 -73 59 -91 15 -9 35 -28 44 -43 15 -26 30
-45 75 -101 12 -15 22 -35 22 -43 0 -42 73 -65 85 -27 4 14 -3 32 -22 58 -16
20 -40 55 -53 77 -35 58 -165 185 -189 185 -12 0 -21 -7 -21 -15z"/>
<path d="M15738 11663 c-26 -29 -42 -81 -30 -99 4 -6 17 -16 28 -22 33 -18 48
8 45 76 -1 31 -6 60 -10 65 -4 4 -19 -5 -33 -20z"/>
<path d="M15206 11541 c-13 -20 17 -66 97 -151 45 -48 98 -111 117 -140 47
-69 81 -101 105 -98 25 4 31 35 11 56 -35 38 -83 100 -111 142 -37 55 -182
200 -200 200 -8 0 -16 -4 -19 -9z"/>
<path d="M15716 11431 c-9 -10 -22 -35 -27 -56 -9 -31 -8 -39 8 -51 10 -7 27
-13 38 -11 16 2 21 12 27 56 9 80 -8 104 -46 62z"/>
<path d="M15192 11347 c-31 -38 -25 -54 55 -135 43 -43 112 -121 153 -172 102
-126 108 -132 133 -128 59 8 31 51 -226 339 -100 112 -101 113 -115 96z"/>
<path d="M15141 11187 c-17 -17 -13 -34 14 -75 61 -92 199 -255 222 -260 7 -2
13 -9 13 -16 0 -7 10 -22 23 -34 12 -11 36 -46 52 -77 31 -58 63 -78 90 -55 8
7 15 16 15 20 0 17 -206 286 -249 325 -12 10 -42 48 -67 82 -25 35 -49 63 -55
63 -5 0 -18 9 -28 19 -14 14 -22 16 -30 8z"/>
<path d="M15706 11103 c-29 -31 -32 -51 -13 -77 10 -13 20 -16 35 -12 19 6 22
15 22 56 0 27 -4 51 -9 55 -6 3 -21 -7 -35 -22z"/>
<path d="M15047 11052 c-13 -20 11 -70 62 -125 31 -34 63 -66 71 -71 8 -6 44
-41 80 -79 112 -121 124 -132 163 -161 20 -16 37 -35 37 -42 0 -15 89 -114
102 -114 4 0 12 9 18 20 10 18 2 33 -56 108 -38 48 -127 148 -199 222 -71 74
-155 160 -186 192 -51 54 -81 69 -92 50z"/>
<path d="M15697 10942 c-9 -10 -22 -33 -28 -52 -11 -29 -10 -35 6 -47 43 -31
66 -3 58 70 -6 52 -12 56 -36 29z"/>
<path d="M15021 10846 c-16 -19 10 -77 51 -111 89 -73 120 -103 150 -143 18
-25 50 -55 71 -68 21 -14 37 -32 37 -43 0 -18 141 -189 183 -223 55 -44 77 -2
29 54 -16 18 -39 49 -52 68 -35 52 -149 178 -284 315 -65 66 -125 130 -133
143 -17 25 -35 28 -52 8z"/>
<path d="M15682 10730 c-26 -24 -28 -46 -6 -67 12 -12 20 -13 40 -5 26 12 31
40 14 73 -13 24 -21 24 -48 -1z"/>
<path d="M14877 10733 c-17 -17 -3 -44 47 -89 81 -73 122 -104 137 -105 8 0
32 -21 53 -47 21 -26 52 -57 68 -68 68 -51 235 -223 271 -281 37 -58 94 -113
117 -113 32 0 24 42 -15 80 -19 19 -35 38 -35 43 0 19 -78 114 -160 194 -79
79 -152 144 -310 278 -36 30 -80 69 -99 85 -33 29 -60 37 -74 23z"/>
<path d="M15707 10594 c-42 -45 -43 -122 -2 -138 22 -8 21 -8 38 9 17 16 15
147 -2 153 -5 2 -20 -9 -34 -24z"/>
<path d="M14809 10572 l-21 -18 28 -34 c16 -18 60 -54 99 -79 38 -25 86 -58
106 -74 20 -15 43 -27 52 -27 10 0 17 -8 17 -18 0 -19 64 -85 145 -148 28 -21
52 -43 54 -49 6 -15 181 -193 223 -227 38 -29 78 -32 78 -5 0 26 -442 455
-566 550 -202 154 -191 148 -215 129z"/>
<path d="M14737 10382 c-30 -33 -21 -51 39 -78 34 -15 58 -32 61 -44 3 -11 8
-20 12 -20 13 0 206 -172 250 -222 18 -21 37 -38 43 -38 22 0 205 -163 320
-286 63 -66 76 -76 97 -69 43 13 23 46 -107 174 -71 69 -155 146 -188 171 -32
25 -97 82 -144 127 -47 45 -119 107 -160 138 -41 32 -89 71 -107 89 -32 32
-88 76 -96 76 -2 0 -11 -8 -20 -18z"/>
<path d="M15711 10191 c-24 -33 -26 -52 -9 -69 16 -16 43 -15 58 3 16 19 4 95
-15 95 -8 0 -23 -13 -34 -29z"/>
<path d="M14645 10190 c-9 -29 15 -61 72 -99 26 -17 64 -45 83 -61 19 -17 54
-45 77 -63 129 -100 204 -162 248 -204 75 -71 125 -113 134 -113 7 0 80 -72
134 -132 13 -16 29 -28 36 -28 6 0 11 -6 11 -14 0 -23 59 -66 91 -66 36 0 37
14 1 48 -15 15 -52 56 -82 91 -63 73 -129 137 -250 241 -47 40 -90 79 -95 85
-6 7 -37 30 -70 51 -33 22 -76 53 -95 71 -38 34 -65 56 -191 151 -45 34 -86
62 -90 62 -4 0 -11 -9 -14 -20z"/>
<path d="M14594 10019 c-25 -28 -14 -43 81 -107 43 -29 83 -59 89 -66 26 -30
164 -146 175 -146 6 0 11 -4 11 -8 0 -4 15 -16 33 -27 38 -22 96 -67 144 -112
19 -18 38 -33 43 -33 5 0 11 -8 14 -18 3 -10 20 -26 36 -36 17 -10 92 -78 166
-152 74 -74 140 -134 147 -134 6 0 18 4 26 9 13 8 13 12 0 29 -73 101 -269
290 -437 422 -88 69 -263 210 -400 322 -31 25 -69 53 -83 62 -25 14 -28 14
-45 -5z"/>
<path d="M15691 9985 c-44 -50 -42 -125 3 -125 34 0 46 14 46 51 0 19 1 49 2
68 4 47 -13 49 -51 6z"/>
<path d="M14545 9860 c-4 -6 -1 -19 7 -28 8 -9 20 -29 27 -43 7 -15 51 -53 97
-84 46 -32 105 -77 131 -101 26 -24 53 -44 60 -44 7 0 20 -11 29 -25 17 -26
145 -125 161 -125 5 0 20 -11 33 -25 13 -14 29 -25 37 -25 7 0 13 -6 13 -14 0
-8 19 -29 42 -48 41 -32 190 -179 256 -252 27 -30 40 -37 65 -34 19 2 33 9 35
19 4 19 -214 239 -339 341 -52 43 -136 112 -187 155 -52 43 -111 89 -132 104
-21 14 -97 72 -170 130 -135 107 -153 118 -165 99z"/>
<path d="M15683 9717 c-30 -43 -29 -63 3 -83 23 -16 27 -16 41 -1 12 12 14 25
7 63 -5 26 -13 49 -19 51 -5 1 -20 -12 -32 -30z"/>
<path d="M14517 9713 c-15 -15 -5 -36 36 -74 23 -22 58 -47 77 -55 19 -8 61
-40 95 -70 151 -138 242 -218 265 -232 97 -61 385 -330 403 -375 8 -22 88 -78
105 -75 8 2 20 11 25 20 9 14 3 25 -33 60 -25 24 -73 76 -108 116 -35 40 -111
111 -169 159 -59 49 -138 115 -177 149 -144 122 -351 286 -395 311 -25 15 -59
37 -74 50 -30 24 -39 27 -50 16z"/>
<path d="M963 9552 c-31 -37 -42 -59 -48 -100 -5 -35 -13 -57 -27 -66 -11 -8
-34 -54 -52 -103 -30 -82 -100 -202 -129 -220 -7 -4 -18 -21 -25 -37 -11 -24
-10 -32 3 -52 18 -28 25 -29 91 -10 31 9 64 12 89 8 l40 -7 1 -120 c2 -156 16
-280 43 -382 14 -53 31 -71 66 -75 23 -2 32 2 42 22 12 26 7 69 -27 230 -14
67 -13 317 2 322 17 6 165 -18 224 -37 15 -5 25 0 37 19 21 31 8 68 -35 106
-27 23 -32 39 -53 160 -32 181 -35 192 -55 215 -10 11 -27 43 -39 70 -25 57
-67 105 -91 105 -9 0 -35 -22 -57 -48z"/>
<path d="M14466 9481 c-9 -9 -16 -20 -16 -23 0 -9 44 -53 85 -83 22 -16 42
-32 45 -36 3 -3 28 -20 55 -39 28 -18 64 -47 82 -65 18 -17 65 -53 105 -80 40
-28 74 -53 76 -57 2 -4 36 -29 75 -55 40 -26 96 -71 126 -100 29 -29 57 -53
62 -53 4 0 15 -12 24 -28 9 -15 29 -36 45 -47 47 -33 234 -208 245 -230 13
-24 54 -27 68 -4 8 13 0 28 -42 75 -29 33 -82 84 -117 114 -36 30 -104 92
-152 137 -97 91 -211 184 -317 258 -38 27 -101 74 -140 105 -38 31 -101 79
-140 107 -38 28 -81 63 -95 78 -38 41 -55 47 -74 26z"/>
<path d="M15675 9480 c-16 -18 -17 -23 -5 -46 9 -16 21 -24 34 -22 17 2 21 10
21 43 0 47 -21 57 -50 25z"/>
<path d="M14344 9355 c-10 -24 20 -59 83 -100 32 -21 72 -50 88 -65 17 -15 68
-57 115 -92 47 -36 101 -80 120 -99 20 -19 68 -53 107 -77 39 -24 84 -57 100
-73 36 -38 155 -136 211 -174 24 -16 51 -38 60 -49 9 -12 46 -46 81 -76 36
-30 88 -77 115 -103 78 -74 128 -84 112 -23 -8 33 -229 231 -374 334 -26 19
-69 55 -97 81 -58 54 -167 142 -240 191 -27 19 -61 44 -74 56 -13 12 -58 46
-99 76 -41 29 -95 71 -121 94 -54 47 -153 114 -170 114 -6 0 -14 -7 -17 -15z"/>
<path d="M15671 9224 c-29 -37 -27 -79 5 -100 22 -15 27 -15 40 -2 11 11 13
28 8 71 -8 64 -21 72 -53 31z"/>
<path d="M14246 9213 c8 -28 107 -133 127 -133 7 0 24 -15 39 -34 15 -18 57
-55 95 -81 37 -27 76 -57 86 -67 10 -10 30 -26 45 -36 15 -9 106 -80 203 -157
96 -77 211 -165 254 -195 89 -63 159 -121 226 -188 72 -73 128 -122 139 -122
6 0 10 -9 10 -20 0 -23 28 -40 64 -40 21 0 26 5 26 24 0 17 -31 53 -117 134
-65 61 -129 119 -143 130 -14 11 -52 46 -84 76 -33 31 -63 56 -67 56 -5 0 -32
19 -61 43 -29 23 -69 52 -89 64 -20 11 -71 50 -113 84 -76 63 -177 142 -226
176 -37 26 -127 99 -195 158 -174 152 -233 186 -219 128z"/>
<path d="M14215 9020 c-14 -23 10 -51 98 -115 51 -37 99 -75 107 -85 21 -24
189 -150 200 -150 11 0 324 -233 359 -267 13 -13 28 -23 32 -23 5 0 21 -11 36
-25 16 -14 62 -51 103 -84 41 -32 87 -72 101 -87 14 -16 64 -58 109 -94 86
-67 133 -111 161 -151 14 -21 19 -22 43 -11 32 14 33 27 4 66 -21 31 -273 248
-402 348 -38 29 -98 77 -135 107 -36 29 -84 65 -106 79 -22 14 -65 46 -96 71
-31 25 -76 58 -100 73 -74 46 -338 242 -425 315 -51 43 -77 52 -89 33z"/>
<path d="M15694 8992 c-37 -24 -47 -116 -14 -127 33 -10 40 3 40 71 0 63 -4
71 -26 56z"/>
<path d="M14060 8870 c0 -33 58 -100 88 -100 16 0 109 -66 182 -129 60 -52
123 -99 185 -137 111 -68 170 -107 205 -136 19 -15 39 -28 45 -28 5 0 50 -38
98 -84 49 -46 102 -91 119 -99 17 -8 76 -57 131 -108 55 -52 119 -107 142
-124 90 -63 152 -115 205 -169 56 -58 92 -71 104 -39 9 22 -111 139 -244 240
-52 39 -138 111 -191 160 -53 48 -121 106 -152 128 -31 22 -91 72 -135 110
-73 65 -138 110 -252 176 -25 14 -74 48 -110 75 -36 27 -94 69 -129 94 -35 25
-78 56 -95 70 -17 14 -58 43 -91 65 -33 22 -66 46 -73 52 -22 21 -32 15 -32
-17z"/>
<path d="M13980 8705 c0 -32 26 -67 84 -112 34 -26 70 -56 80 -65 11 -10 29
-21 40 -24 12 -4 35 -16 51 -28 44 -31 66 -44 105 -64 19 -9 39 -23 43 -30 9
-13 67 -53 124 -84 44 -24 137 -92 253 -185 25 -19 59 -42 76 -50 17 -9 39
-28 48 -44 10 -16 29 -37 44 -46 15 -10 53 -42 85 -73 32 -30 66 -60 75 -65
48 -29 308 -289 317 -316 9 -27 91 -79 124 -79 41 0 41 24 0 58 -18 15 -41 38
-53 51 -55 62 -257 262 -305 301 -89 74 -194 163 -221 188 -38 36 -207 165
-238 182 -15 9 -39 28 -54 43 -15 15 -35 27 -45 27 -10 0 -29 12 -43 27 -14
14 -43 38 -65 52 -22 15 -74 51 -115 82 -42 31 -109 75 -150 98 -41 23 -108
71 -149 107 -72 62 -111 79 -111 49z"/>
<path d="M15668 8683 c-35 -9 -33 -87 3 -98 30 -10 39 3 39 56 0 50 -3 52 -42
42z"/>
<path d="M13907 8593 c-36 -35 65 -155 209 -248 54 -35 115 -76 134 -90 19
-14 57 -43 85 -63 27 -20 66 -51 85 -69 19 -17 61 -51 92 -75 239 -182 315
-242 396 -315 52 -46 99 -83 106 -83 6 0 36 -23 66 -51 30 -29 72 -62 93 -76
20 -13 101 -87 180 -166 150 -149 209 -201 251 -217 30 -11 42 1 27 27 -5 10
-58 65 -118 122 -59 57 -144 137 -188 180 -44 42 -111 101 -149 131 -37 30
-110 92 -161 138 -51 46 -135 115 -187 154 -51 38 -104 79 -118 90 -14 11 -56
43 -93 71 -38 29 -110 86 -161 127 -85 69 -182 141 -224 165 -46 26 -132 94
-177 139 -47 47 -128 116 -138 116 -2 0 -7 -3 -10 -7z"/>
<path d="M15670 8425 c-19 -23 -18 -76 2 -88 28 -19 41 3 33 57 -8 49 -15 55
-35 31z"/>
<path d="M17183 8417 c-12 -7 -38 -34 -59 -61 -46 -61 -67 -168 -45 -239 7
-23 16 -64 20 -90 8 -52 13 -58 80 -89 68 -31 126 -20 215 39 l71 48 -1 75
c-1 57 -7 88 -26 130 -40 87 -165 201 -220 200 -7 -1 -23 -6 -35 -13z m65 -98
c40 -14 137 -124 146 -167 13 -58 0 -87 -53 -116 -67 -36 -93 -34 -135 12 -51
54 -60 81 -51 157 5 48 13 73 32 95 13 17 26 30 27 30 2 0 17 -5 34 -11z"/>
<path d="M16926 8398 c-11 -15 -16 -45 -16 -93 0 -38 -7 -134 -14 -213 -16
-164 -9 -217 28 -206 12 3 24 9 28 13 27 24 48 447 26 490 -18 33 -33 36 -52
9z"/>
<path d="M13787 8398 c-5 -15 20 -68 31 -68 5 0 40 -27 78 -60 38 -33 92 -74
120 -90 28 -16 75 -51 104 -79 29 -28 73 -60 97 -72 25 -12 86 -49 135 -83 50
-34 113 -75 140 -93 28 -17 54 -35 57 -40 3 -5 24 -22 46 -38 22 -16 64 -51
93 -77 30 -27 60 -48 68 -48 8 0 14 -4 14 -8 0 -5 18 -21 41 -38 22 -16 67
-50 99 -76 33 -27 63 -48 67 -48 5 0 26 -20 46 -45 21 -25 56 -55 77 -67 22
-13 40 -29 40 -36 0 -7 8 -16 18 -19 20 -8 87 -69 181 -166 244 -250 230 -238
251 -227 11 6 20 15 20 21 0 11 -110 136 -210 238 -70 72 -243 228 -344 311
-10 8 -41 36 -70 62 -28 25 -76 63 -107 85 -58 39 -119 85 -251 188 -130 102
-175 135 -194 142 -10 4 -52 32 -94 64 -41 31 -86 59 -100 64 -14 4 -43 24
-65 44 -50 48 -154 125 -195 146 -17 9 -48 32 -68 52 -65 63 -115 87 -125 61z"/>
<path d="M19110 8389 c-37 -15 -67 -47 -101 -106 -16 -28 -39 -55 -49 -58 -35
-11 -20 -57 49 -147 12 -14 21 -30 21 -35 1 -15 45 -40 96 -53 49 -13 52 -12
112 20 42 22 62 39 62 51 0 11 -3 19 -7 20 -5 0 -37 1 -73 3 -68 2 -150 35
-150 59 0 8 26 18 63 26 34 8 69 18 78 22 24 12 30 82 13 140 -20 65 -53 82
-114 58z m60 -86 c0 -29 -12 -39 -57 -50 -32 -8 -43 -8 -43 1 2 43 100 91 100
49z"/>
<path d="M18734 8332 c-36 -26 -45 -41 -64 -103 -25 -79 -23 -156 5 -210 17
-33 19 -33 46 -19 17 9 19 22 19 105 0 110 10 142 47 155 16 6 36 15 46 21 13
7 29 7 53 -1 42 -14 64 -7 64 20 0 24 -51 48 -124 56 -46 5 -55 3 -92 -24z"/>
<path d="M13663 8290 c-27 -11 -31 -51 -8 -70 31 -25 63 9 51 55 -7 27 -10 28
-43 15z"/>
<path d="M17752 8235 l-52 -36 0 -82 c1 -45 7 -126 14 -180 13 -100 30 -135
59 -124 13 5 14 23 10 106 -7 114 9 211 38 237 18 16 20 16 40 -2 30 -27 47
-64 65 -141 17 -72 28 -87 55 -72 12 6 20 27 25 65 9 72 34 103 67 81 41 -27
65 -75 72 -145 8 -73 17 -92 46 -92 43 0 35 129 -14 228 -32 63 -92 122 -127
122 -8 0 -32 -13 -52 -30 -39 -32 -42 -31 -72 28 -18 36 -69 72 -101 72 -11 0
-44 -16 -73 -35z"/>
<path d="M1123 8226 c-53 -17 -109 -51 -119 -74 -4 -9 -8 -35 -8 -57 l-1 -40
-50 -7 c-27 -4 -77 -10 -110 -13 -97 -10 -105 -13 -105 -39 0 -47 26 -59 104
-51 39 3 94 13 121 20 49 14 125 14 260 0 53 -6 63 -4 83 15 13 12 21 27 19
33 -6 18 -48 37 -82 37 -17 0 -35 4 -40 9 -6 5 -27 14 -47 20 -48 16 -66 36
-41 49 10 5 34 13 53 17 88 17 107 25 118 51 7 14 10 30 7 35 -9 13 -113 10
-162 -5z"/>
<path d="M15673 8228 c-6 -7 -13 -32 -16 -55 -6 -47 9 -61 45 -42 14 8 18 17
14 32 -3 12 -6 34 -6 50 0 29 -20 37 -37 15z"/>
<path d="M18376 8208 c-48 -10 -69 -28 -108 -87 -20 -33 -28 -57 -28 -91 0
-59 20 -86 67 -94 21 -3 57 -9 79 -12 53 -8 106 9 144 48 26 25 30 37 30 81 0
106 -84 177 -184 155z m96 -115 c41 -37 3 -91 -79 -111 -42 -9 -50 -9 -61 6
-20 25 -6 73 29 105 25 23 38 28 62 23 17 -3 39 -14 49 -23z"/>
<path d="M13653 8158 c-25 -12 -29 -29 -13 -59 24 -44 73 -10 63 44 -6 29 -15
32 -50 15z"/>
<path d="M13876 8133 c-7 -18 39 -73 61 -73 7 0 34 -20 59 -45 24 -25 46 -45
47 -45 2 0 30 -25 62 -55 33 -31 85 -72 115 -93 30 -20 82 -60 115 -88 33 -28
75 -59 93 -68 17 -9 32 -20 32 -25 0 -5 34 -33 76 -63 112 -79 146 -105 174
-132 14 -13 59 -51 101 -83 42 -32 103 -80 136 -108 33 -27 77 -63 98 -80 49
-37 85 -68 140 -120 24 -22 73 -65 109 -95 37 -30 78 -65 92 -77 14 -13 29
-23 34 -23 5 0 16 -13 26 -29 19 -32 69 -65 84 -56 32 20 -18 78 -205 239 -49
43 -94 83 -100 90 -5 7 -46 40 -90 74 -44 34 -84 66 -90 72 -13 14 -21 21 -75
68 -114 100 -194 162 -206 162 -7 0 -18 9 -24 20 -6 10 -32 34 -58 51 -26 18
-63 46 -83 63 -20 17 -62 50 -95 73 -32 23 -79 61 -104 84 -25 22 -79 64 -120
91 -68 46 -178 135 -222 179 -24 25 -105 79 -116 79 -5 0 -15 7 -22 15 -16 20
-36 19 -44 -2z"/>
<path d="M13683 8003 c-38 -26 -27 -109 13 -101 29 5 46 119 17 117 -4 0 -18
-7 -30 -16z"/>
<path d="M974 7922 c-12 -30 -21 -62 -33 -117 -1 -3 -1 -9 -1 -14 0 -4 -28
-11 -62 -15 -139 -15 -238 -42 -238 -65 0 -15 42 -51 52 -45 5 3 35 8 66 9 32
1 87 6 123 10 l66 7 0 -45 c1 -25 4 -55 8 -66 8 -25 -3 -28 -145 -35 -58 -3
-115 -8 -127 -12 -32 -9 -37 -34 -12 -60 22 -23 26 -24 148 -19 120 4 152 7
301 21 67 6 130 35 130 59 0 28 -29 38 -88 31 -116 -14 -106 -19 -114 53 -4
35 -5 68 -2 73 3 4 45 8 94 8 93 0 111 7 125 51 12 38 -19 49 -127 42 l-98 -5
0 75 c0 74 -6 89 -38 93 -7 1 -19 -14 -28 -34z"/>
<path d="M15686 7918 c-29 -41 -11 -98 30 -98 21 0 27 24 20 75 -8 50 -26 58
-50 23z"/>
<path d="M13905 7900 c-13 -21 107 -124 210 -181 22 -12 60 -43 85 -68 25 -25
54 -53 65 -61 63 -47 91 -72 198 -176 65 -62 168 -152 230 -198 62 -47 136
-104 164 -127 29 -24 64 -48 77 -53 13 -6 62 -46 108 -89 45 -42 109 -97 141
-121 81 -62 154 -133 207 -201 46 -60 113 -101 144 -89 20 8 21 28 2 46 -8 7
-70 67 -139 133 -69 66 -147 136 -173 155 -26 19 -73 58 -104 85 -155 136
-243 208 -330 270 -52 38 -117 89 -145 115 -27 25 -66 58 -85 72 -19 14 -62
52 -95 83 -33 31 -93 84 -134 118 -40 34 -90 77 -110 94 -56 51 -278 203 -295
203 -8 0 -18 -4 -21 -10z"/>
<path d="M20065 7862 c-32 -11 -50 -25 -75 -59 -23 -31 -27 -81 -17 -223 2
-32 -1 -35 -28 -40 -16 -3 -38 -10 -48 -16 -16 -9 -16 -13 -2 -47 9 -22 23
-37 33 -38 80 -4 75 -1 88 -54 8 -27 16 -77 20 -110 4 -33 13 -72 21 -88 12
-23 17 -26 34 -17 35 19 43 58 26 130 -32 132 -31 136 4 149 18 6 40 11 50 11
11 0 42 10 69 22 40 17 50 26 48 43 -3 18 -9 20 -73 17 -38 -1 -88 0 -111 3
-40 6 -40 6 -53 63 -14 63 -7 124 16 147 8 8 29 15 46 15 18 0 38 4 46 9 9 6
26 3 47 -7 41 -19 51 -12 35 26 -19 44 -123 82 -176 64z"/>
<path d="M13668 7809 c-23 -13 -23 -51 0 -72 21 -19 37 -11 50 24 17 45 -11
71 -50 48z"/>
<path d="M18480 7719 c-9 -16 -7 -48 9 -137 23 -129 29 -176 39 -302 l7 -85
31 -3 c38 -4 44 11 44 106 0 34 6 72 13 85 6 12 13 23 14 25 4 9 61 -30 89
-60 35 -37 84 -110 101 -149 9 -21 20 -28 60 -33 124 -18 160 -18 191 -2 18 9
32 20 32 24 0 32 -28 90 -61 128 -68 78 -76 123 -28 141 25 10 37 9 58 -1 43
-22 75 -16 79 16 5 44 -12 64 -70 76 -77 18 -141 -5 -168 -59 l-20 -38 21 -58
c12 -32 35 -77 50 -100 l29 -41 -29 -7 c-17 -4 -44 0 -65 9 -29 12 -42 27 -63
72 -14 31 -49 79 -79 109 -62 63 -106 77 -159 52 l-33 -16 -6 72 c-9 98 -32
174 -56 187 -15 8 -21 6 -30 -11z"/>
<path d="M13970 7695 c0 -14 10 -35 23 -45 12 -11 61 -58 108 -103 48 -46 131
-119 185 -163 187 -149 254 -207 254 -221 0 -7 4 -13 9 -13 5 0 54 -43 108
-96 54 -53 116 -108 138 -122 22 -14 51 -36 65 -49 14 -12 57 -48 95 -80 39
-31 118 -100 176 -153 59 -52 122 -109 140 -125 19 -17 41 -38 49 -46 157
-164 234 -229 273 -229 46 0 40 19 -25 79 -35 33 -123 119 -197 191 -73 72
-150 143 -170 157 -20 15 -61 50 -91 78 -30 28 -84 73 -119 100 -35 28 -85 68
-110 90 -25 23 -66 57 -91 77 -25 21 -101 92 -170 159 -69 66 -150 138 -181
160 -31 21 -72 52 -90 68 -69 63 -88 79 -131 112 -23 18 -83 71 -132 116 -49
46 -95 83 -102 83 -8 0 -14 -11 -14 -25z"/>
<path d="M15686 7654 c-8 -32 0 -60 19 -68 21 -8 26 7 19 53 -7 46 -28 54 -38
15z"/>
<path d="M13676 7648 c-31 -43 -10 -109 28 -95 17 7 40 82 32 103 -8 21 -43
17 -60 -8z"/>
<path d="M18212 7641 c-7 -4 -15 -37 -19 -74 -6 -70 -7 -71 -65 -81 -40 -7
-78 -36 -78 -60 0 -40 11 -44 74 -35 32 6 61 7 65 4 3 -4 6 -50 7 -103 0 -71
5 -106 17 -129 21 -39 28 -44 55 -36 27 7 35 33 22 69 -7 17 -8 62 -4 119 l7
92 78 13 c52 8 79 17 79 26 0 25 -61 57 -117 62 -46 4 -53 7 -53 26 0 24 -33
101 -47 109 -5 3 -14 2 -21 -2z"/>
<path d="M13943 7553 c-23 -9 -14 -52 20 -88 17 -20 64 -59 102 -88 39 -28 75
-59 82 -67 6 -9 31 -29 55 -45 89 -60 201 -164 368 -342 36 -38 114 -114 174
-168 60 -55 126 -118 145 -140 56 -62 131 -132 191 -178 30 -23 66 -52 80 -66
14 -13 40 -35 58 -49 35 -27 195 -207 224 -253 22 -35 73 -56 93 -39 8 7 15
18 15 26 0 25 -238 271 -410 424 -52 47 -114 103 -137 125 -23 22 -101 97
-175 167 -73 69 -209 201 -301 292 -93 91 -185 178 -205 193 -20 15 -60 48
-88 73 -28 25 -70 58 -95 75 -24 16 -72 57 -107 90 -68 64 -70 66 -89 58z"/>
<path d="M16940 7500 c-17 -18 -31 -26 -35 -20 -12 19 -23 10 -29 -23 -7 -38
27 -275 44 -306 12 -23 35 -28 42 -8 3 6 4 59 3 117 -3 104 8 159 35 175 21
13 61 -28 83 -85 27 -68 57 -79 82 -30 16 31 17 31 36 14 21 -19 43 -61 87
-169 22 -53 34 -71 50 -73 12 -2 25 3 28 11 15 41 -95 274 -156 330 -35 31
-52 34 -75 10 -14 -14 -18 -14 -26 -2 -5 8 -9 17 -9 21 0 3 -14 20 -31 37 -42
42 -90 43 -129 1z"/>
<path d="M13689 7481 c-21 -16 -22 -22 -11 -45 17 -38 48 -34 62 9 18 55 -6
73 -51 36z"/>
<path d="M17464 7471 c-62 -38 -96 -138 -75 -219 15 -54 42 -77 73 -61 13 6
24 13 26 14 2 2 -4 15 -13 29 -21 31 -14 103 13 136 22 27 64 19 88 -17 26
-41 13 -90 -38 -135 -24 -20 -49 -37 -56 -38 -21 0 -9 -33 18 -48 22 -13 30
-12 64 4 22 11 52 35 68 55 24 30 29 46 30 95 2 48 -3 68 -26 106 -48 83 -116
114 -172 79z"/>
<path d="M19680 7438 c-55 -37 -92 -136 -68 -182 21 -42 51 -66 82 -66 43 0
140 27 144 40 2 6 15 15 28 20 14 6 27 18 30 27 3 10 9 25 14 35 5 9 5 31 -1
52 -22 79 -157 123 -229 74z m120 -103 l25 -14 -35 -14 c-34 -15 -61 -10 -75
13 -18 30 40 40 85 15z"/>
<path d="M17875 7438 c-16 -6 -37 -17 -47 -25 -13 -12 -20 -12 -36 -2 -34 21
-55 -5 -49 -60 14 -125 42 -222 66 -221 3 0 17 9 29 18 22 17 23 21 12 62 -15
56 8 127 45 136 37 9 60 -3 114 -62 43 -47 51 -62 51 -95 0 -38 2 -40 27 -37
60 7 54 88 -12 189 -58 87 -131 123 -200 97z"/>
<path d="M15676 7378 c-29 -41 -15 -88 26 -88 20 0 31 33 26 76 -4 36 -31 43
-52 12z"/>
<path d="M13846 7361 c-12 -20 18 -70 59 -100 25 -18 66 -57 92 -87 26 -30 57
-57 69 -60 12 -3 33 -21 46 -40 23 -32 173 -164 187 -164 3 0 31 -24 61 -52
30 -29 71 -65 90 -79 19 -15 114 -105 211 -200 97 -96 202 -194 233 -219 242
-192 449 -380 517 -470 51 -67 88 -101 156 -140 63 -36 63 -36 63 -9 0 12 -20
39 -50 66 -28 25 -92 93 -143 152 -93 107 -200 214 -256 254 -137 100 -314
254 -546 477 -167 160 -264 247 -310 276 -16 10 -36 27 -44 37 -7 10 -27 27
-44 37 -17 11 -77 64 -133 119 -56 56 -107 101 -113 101 -5 0 -22 16 -37 35
-23 30 -81 75 -97 75 -3 0 -8 -4 -11 -9z"/>
<path d="M1055 7319 c-60 -22 -121 -43 -135 -48 -22 -7 -25 -13 -22 -46 6 -69
159 -265 207 -265 26 0 82 41 107 77 34 52 25 90 -37 151 -30 30 -55 57 -55
58 0 2 15 10 34 18 45 19 73 60 56 81 -17 21 -29 19 -155 -26z m50 -168 c48
-35 54 -56 24 -84 l-22 -21 -49 54 c-56 62 -64 96 -20 86 15 -4 45 -20 67 -35z"/>
<path d="M13735 7292 c-21 -15 -46 -84 -35 -97 18 -21 47 -6 54 27 13 65 6 89
-19 70z"/>
<path d="M13721 7136 c-26 -27 -25 -59 2 -64 39 -8 65 51 34 77 -11 8 -19 5
-36 -13z"/>
<path d="M15703 7142 c-16 -10 -26 -56 -18 -81 4 -14 15 -21 30 -21 32 0 37
12 29 65 -6 44 -16 53 -41 37z"/>
<path d="M13866 7121 c-12 -18 13 -59 66 -110 66 -62 114 -103 177 -151 41
-30 88 -70 105 -89 17 -19 38 -40 46 -47 8 -8 40 -35 70 -61 30 -27 80 -68
110 -93 30 -25 66 -54 79 -65 13 -11 112 -107 220 -213 108 -107 204 -199 213
-206 34 -24 154 -144 218 -217 36 -40 85 -92 109 -114 24 -22 90 -86 147 -142
77 -77 109 -103 128 -103 14 0 26 3 26 6 0 20 -42 68 -184 209 -89 88 -213
214 -276 281 -63 66 -158 161 -210 211 -52 51 -129 126 -170 169 -62 63 -206
191 -344 305 -16 13 -79 71 -140 129 -61 58 -140 127 -176 154 -36 26 -76 62
-90 79 -25 30 -91 77 -109 77 -5 0 -12 -4 -15 -9z"/>
<path d="M19789 7003 c-10 -12 -14 -56 -16 -167 0 -83 -2 -159 -2 -168 -1 -14
-10 -18 -36 -18 -36 0 -98 -32 -124 -64 -24 -29 -18 -100 13 -144 31 -45 61
-61 126 -69 35 -4 53 0 83 17 42 25 81 90 72 121 -8 26 -17 24 -67 -11 -42
-29 -44 -30 -93 -17 -39 9 -51 17 -53 34 -3 18 3 22 37 28 23 4 48 2 60 -4 55
-30 85 13 68 99 -4 25 -6 112 -3 194 3 91 1 156 -5 167 -12 23 -42 25 -60 2z"/>
<path d="M1180 6935 c0 -9 7 -27 16 -41 13 -18 15 -39 12 -82 -6 -64 -27 -142
-39 -142 -10 0 -49 66 -75 128 -30 72 -50 92 -91 92 -47 0 -69 -14 -82 -51
-23 -66 -6 -146 42 -197 31 -34 53 -44 126 -57 52 -10 71 -10 96 1 68 28 112
142 103 268 -4 47 -9 62 -29 77 -30 23 -79 25 -79 4z m-157 -167 c27 -58 30
-78 13 -78 -24 0 -42 46 -37 98 2 19 8 14 24 -20z"/>
<path d="M13711 6924 c-26 -29 -25 -71 1 -88 25 -16 45 9 53 67 7 42 5 47 -12
47 -11 0 -29 -12 -42 -26z"/>
<path d="M15690 6905 c-17 -21 -25 -91 -11 -100 7 -4 23 -4 37 -1 21 6 24 12
23 44 -3 71 -20 92 -49 57z"/>
<path d="M13877 6828 c-9 -5 -17 -18 -17 -29 0 -24 46 -69 71 -69 10 0 21 -9
24 -20 3 -11 10 -20 15 -20 9 0 36 -25 176 -161 39 -38 75 -69 81 -69 6 0 43
-32 84 -71 41 -39 94 -85 119 -101 25 -17 79 -63 120 -103 41 -40 98 -89 125
-110 47 -34 113 -96 378 -354 113 -110 327 -345 327 -360 0 -4 26 -36 58 -69
62 -67 93 -78 113 -40 10 19 8 25 -13 42 -14 12 -78 83 -144 160 -222 258
-205 240 -450 475 -76 73 -155 145 -174 159 -41 30 -162 134 -204 175 -16 15
-54 45 -85 66 -31 21 -80 63 -110 92 -30 30 -80 73 -110 97 -31 24 -100 84
-153 135 -144 136 -211 187 -231 175z"/>
<path d="M13696 6745 c-31 -28 -33 -46 -8 -68 39 -35 54 -23 68 56 5 32 4 37
-13 37 -11 0 -32 -11 -47 -25z"/>
<path d="M19285 6747 c-48 -58 -74 -147 -67 -230 4 -52 8 -59 34 -73 52 -27
58 -16 57 97 -1 103 8 132 33 111 14 -11 54 -93 79 -161 14 -37 55 -91 70 -91
5 0 14 11 20 24 9 19 7 35 -7 73 -10 26 -24 57 -31 68 -7 11 -13 26 -13 34 0
19 -67 121 -94 143 -24 20 -66 23 -81 5z"/>
<path d="M18092 6730 c-27 -26 -28 -42 -2 -65 14 -12 29 -16 52 -13 76 12 228
-60 228 -107 0 -31 -35 -55 -80 -55 -60 1 -83 21 -100 87 -19 72 -40 78 -53
13 -10 -50 4 -177 30 -269 9 -30 16 -90 17 -132 2 -81 14 -109 47 -109 31 0
38 29 27 115 -5 44 -16 105 -24 136 -8 30 -14 68 -14 83 0 23 2 25 19 16 55
-29 174 5 191 54 16 45 12 98 -9 133 -21 34 -88 83 -154 113 -59 27 -146 27
-175 0z"/>
<path d="M19002 6728 c-6 -13 -22 -68 -36 -124 -13 -56 -31 -118 -40 -138 -15
-35 -35 -48 -37 -23 -3 42 5 107 17 135 12 29 12 36 -2 58 -20 30 -35 30 -61
2 -23 -25 -49 -179 -37 -214 15 -42 55 -84 80 -84 38 0 80 26 93 57 7 15 18
40 26 54 8 14 16 43 17 65 5 62 18 54 54 -36 31 -78 51 -100 90 -100 28 0 34
4 34 21 0 11 -13 37 -29 57 -17 22 -45 82 -65 145 -20 60 -41 117 -46 128 -14
26 -44 24 -58 -3z"/>
<path d="M17690 6706 c-6 -8 -28 -16 -48 -18 -51 -4 -59 -32 -43 -150 19 -144
27 -168 56 -168 34 0 39 14 41 116 2 91 14 134 37 134 15 0 41 -49 58 -107 9
-31 19 -45 42 -54 40 -17 56 -4 76 61 9 29 22 55 29 58 13 4 39 -51 71 -148
28 -84 49 -120 71 -120 27 0 33 15 21 53 -6 17 -20 62 -30 98 -28 96 -81 199
-108 212 -23 10 -73 -6 -73 -24 0 -5 -11 -24 -24 -44 l-25 -36 -19 43 c-24 52
-76 108 -101 108 -10 0 -24 -6 -31 -14z"/>
<path d="M16967 6685 c-22 -7 -50 -24 -64 -37 -31 -29 -93 -130 -93 -152 0 -8
11 -40 24 -69 39 -89 97 -130 207 -148 51 -8 65 -7 85 6 14 9 29 13 33 10 15
-9 60 13 86 42 34 38 33 57 -2 49 -87 -21 -113 -25 -158 -25 -61 -1 -146 36
-171 73 -12 19 -15 38 -11 69 7 50 52 94 107 102 79 13 95 20 98 45 7 47 -60
64 -141 35z"/>
<path d="M15697 6656 c-26 -21 -35 -58 -19 -82 12 -18 39 -23 58 -10 15 12 16
17 5 44 -7 18 -11 38 -8 47 10 24 -6 25 -36 1z"/>
<path d="M17309 6647 c-58 -49 -77 -149 -42 -225 9 -20 19 -48 22 -61 4 -14
20 -33 37 -43 31 -18 34 -18 75 -2 64 26 104 59 124 105 16 35 17 48 7 96 -6
30 -23 70 -36 88 -49 63 -138 84 -187 42z m121 -87 c11 -6 22 -26 26 -45 13
-71 -83 -159 -107 -98 -13 35 -11 127 3 141 15 15 53 16 78 2z"/>
<path d="M18539 6652 c-49 -25 -82 -92 -76 -157 3 -28 15 -67 27 -87 l21 -37
37 16 c23 10 51 13 79 9 38 -5 45 -2 83 33 41 38 41 40 34 86 -9 61 -50 107
-120 134 -49 19 -53 19 -85 3z m109 -112 c29 -27 28 -44 -3 -58 -48 -22 -95
-12 -95 20 0 56 55 78 98 38z"/>
<path d="M13918 6605 c-3 -3 0 -29 6 -58 11 -50 16 -55 121 -140 61 -48 157
-135 215 -192 58 -57 110 -108 115 -114 48 -46 80 -78 143 -142 40 -41 80 -81
90 -90 9 -9 32 -33 51 -53 18 -19 78 -70 134 -113 55 -43 128 -107 161 -143
34 -36 79 -81 100 -100 92 -82 224 -226 369 -400 68 -83 89 -97 111 -74 16 16
15 18 -129 189 -151 179 -497 525 -574 573 -29 19 -92 75 -160 143 -25 25 -53
50 -61 55 -13 8 -47 44 -116 125 -11 13 -50 52 -85 86 -35 33 -71 69 -80 80
-8 10 -60 59 -114 108 -54 50 -113 104 -131 122 -18 18 -44 35 -58 39 -31 7
-32 12 -8 30 16 13 15 16 -16 44 -29 27 -70 39 -84 25z"/>
<path d="M842 6582 c-21 -14 -10 -63 18 -84 15 -11 64 -24 120 -34 82 -13 124
-27 109 -36 -2 -2 -35 -18 -72 -37 -37 -18 -72 -41 -77 -50 -15 -28 11 -64 58
-81 23 -8 42 -17 42 -21 0 -4 -53 -24 -117 -45 -65 -20 -122 -41 -127 -45 -15
-13 11 -58 36 -64 15 -4 76 14 169 49 81 29 162 57 180 61 50 10 79 32 79 59
0 30 -12 39 -87 61 -57 17 -82 34 -50 36 6 0 32 15 56 33 48 34 67 75 47 99
-16 20 -123 52 -351 103 -11 2 -26 1 -33 -4z"/>
<path d="M13708 6563 c-24 -29 -28 -51 -11 -68 33 -33 74 3 58 51 -12 34 -27
40 -47 17z"/>
<path d="M15702 6460 c-15 -24 -6 -66 15 -74 22 -9 33 2 33 34 0 59 -24 78
-48 40z"/>
<path d="M13874 6385 c-8 -19 18 -58 56 -87 17 -12 30 -27 30 -34 0 -6 19 -27
43 -47 82 -69 217 -206 227 -231 5 -14 26 -36 48 -49 21 -14 72 -58 113 -98
41 -41 95 -92 119 -114 25 -22 86 -85 135 -139 94 -105 126 -136 213 -214 29
-26 78 -73 109 -104 31 -32 62 -58 69 -58 7 0 14 -4 16 -9 2 -6 80 -88 173
-184 94 -95 193 -199 220 -231 56 -65 64 -71 118 -80 35 -6 37 -5 37 18 0 17
-10 31 -34 46 -19 11 -74 67 -123 123 -131 151 -444 456 -539 523 -23 16 -66
57 -97 89 -123 131 -258 266 -377 373 -174 158 -190 174 -209 203 -9 14 -50
57 -91 94 -41 38 -106 101 -145 140 -75 77 -102 94 -111 70z"/>
<path d="M13707 6329 c-18 -32 -17 -33 2 -52 26 -26 51 -16 53 23 0 16 1 36 2
43 1 6 -8 13 -19 15 -14 2 -26 -8 -38 -29z"/>
<path d="M15691 6294 c-28 -36 -27 -80 1 -95 18 -10 24 -8 40 11 20 25 24 80
6 98 -17 17 -24 15 -47 -14z"/>
<path d="M18680 6235 c-9 -10 -10 -39 -6 -102 4 -49 9 -125 11 -170 l4 -82
-42 -5 c-23 -3 -53 -7 -66 -8 -13 -2 -30 -12 -38 -24 -12 -18 -11 -24 8 -48
20 -25 25 -27 74 -21 49 7 53 5 58 -17 4 -12 7 -59 7 -103 0 -94 15 -125 59
-125 l28 0 -2 124 c-2 68 0 128 4 134 11 19 186 71 197 59 1 -1 7 -44 13 -96
7 -51 18 -106 27 -122 25 -50 74 -32 74 26 0 18 3 35 7 39 4 4 8 19 10 34 8
74 14 90 35 95 45 12 78 -30 114 -148 24 -80 40 -104 64 -98 10 3 21 11 24 19
13 35 -58 248 -98 293 -23 26 -74 51 -105 51 -10 0 -33 -13 -50 -29 -36 -34
-36 -33 -46 78 -9 91 -28 141 -55 141 -36 0 -43 -33 -26 -124 9 -45 16 -91 16
-101 0 -17 -1 -17 -19 0 -17 14 -34 16 -103 14 l-83 -4 -7 55 c-3 30 -10 97
-16 148 -6 65 -14 98 -27 112 -22 24 -29 25 -45 5z"/>
<path d="M13730 6160 c-24 -24 -26 -53 -4 -75 21 -20 37 -15 48 17 10 28 1 78
-14 78 -6 0 -19 -9 -30 -20z"/>
<path d="M13932 6098 c-7 -7 -12 -17 -12 -23 0 -17 226 -231 328 -311 17 -14
32 -32 32 -39 0 -8 11 -22 25 -33 14 -11 25 -25 25 -32 0 -7 37 -50 83 -95 45
-45 109 -113 142 -150 88 -100 251 -259 514 -502 126 -117 243 -237 312 -321
9 -11 21 -21 25 -23 5 -2 26 -25 47 -51 22 -28 51 -51 72 -58 66 -22 75 15 16
69 -21 20 -61 63 -88 96 -75 90 -288 302 -473 470 -243 221 -542 525 -597 605
-23 34 -139 148 -262 255 -57 50 -119 105 -137 123 -38 37 -36 36 -52 20z"/>
<path d="M15714 6042 c-28 -18 -20 -82 10 -82 19 0 27 24 19 60 -6 31 -11 35
-29 22z"/>
<path d="M17387 5920 c-20 -17 -46 -30 -61 -30 -36 0 -41 -20 -25 -103 7 -40
12 -89 11 -109 -1 -20 2 -40 8 -43 6 -4 15 -18 21 -32 7 -19 15 -24 37 -21
l27 3 1 85 c0 96 16 155 46 171 22 12 104 4 113 -12 9 -14 55 -11 55 4 -1 18
-30 49 -79 85 -59 43 -107 43 -154 2z"/>
<path d="M13736 5927 c-14 -10 -16 -21 -11 -51 6 -30 11 -37 29 -34 16 2 22
11 24 39 4 44 -16 65 -42 46z"/>
<path d="M13880 5920 c0 -25 43 -92 65 -102 14 -6 25 -15 25 -19 0 -5 14 -15
30 -24 18 -9 30 -23 30 -35 0 -11 4 -20 9 -20 5 0 47 -43 92 -96 46 -53 97
-103 114 -111 41 -22 176 -153 243 -238 30 -38 93 -108 138 -155 46 -47 91
-95 101 -108 31 -40 236 -244 304 -302 94 -81 366 -365 407 -425 14 -21 67
-53 100 -60 25 -5 33 -3 39 11 5 13 -3 25 -28 43 -46 35 -84 75 -132 141 -48
65 -270 288 -371 372 -102 86 -223 205 -281 278 -27 34 -67 75 -88 92 -20 16
-58 58 -84 91 -65 88 -186 209 -269 273 -39 29 -91 74 -115 100 -24 26 -52 54
-62 63 -11 9 -37 42 -58 73 -22 31 -58 70 -82 87 -23 16 -53 41 -66 55 -24 26
-61 35 -61 16z"/>
<path d="M18052 5923 c-25 -10 -40 -57 -35 -113 10 -120 74 -230 132 -230 25
0 31 7 56 65 16 36 34 64 39 62 6 -2 33 -32 59 -68 27 -35 55 -68 62 -72 18
-10 53 24 59 55 5 26 32 145 47 201 9 38 -1 77 -21 77 -24 0 -60 -51 -80 -113
l-22 -68 -39 45 c-66 75 -102 70 -157 -22 -32 -55 -40 -44 -49 68 -6 83 -24
123 -51 113z"/>
<path d="M17050 5864 c-165 -51 -245 -160 -171 -235 40 -40 96 -40 170 1 30
17 56 30 58 30 2 0 14 -25 28 -56 34 -77 50 -160 38 -204 -8 -32 -14 -36 -66
-50 -47 -11 -67 -12 -114 -2 -31 6 -60 17 -65 24 -4 7 -8 34 -8 61 0 66 -32
61 -69 -11 -20 -39 12 -106 64 -136 118 -65 255 -54 314 25 41 56 27 182 -39
344 -14 33 -21 67 -30 139 -11 90 -22 97 -110 70z m10 -108 c0 -18 -61 -56
-90 -56 -19 0 -21 2 -9 16 12 15 77 53 92 54 4 0 7 -6 7 -14z"/>
<path d="M17732 5859 c-18 -12 -39 -34 -47 -50 -20 -38 -19 -104 2 -140 14
-24 24 -29 48 -27 35 4 44 32 25 79 -24 56 33 80 91 38 23 -16 29 -28 29 -59
0 -33 -5 -41 -37 -61 -37 -23 -93 -30 -125 -15 -12 5 -18 2 -23 -14 -5 -16 0
-30 22 -52 25 -26 33 -29 71 -25 71 8 138 45 158 89 32 72 2 179 -64 223 -56
37 -108 42 -150 14z"/>
<path d="M15702 5774 c-25 -18 -28 -41 -6 -69 22 -30 49 -8 49 40 0 44 -11 52
-43 29z"/>
<path d="M13722 5748 c-18 -18 -14 -46 9 -58 27 -15 51 5 47 39 -3 29 -35 40
-56 19z"/>
<path d="M13923 5615 c5 -31 23 -55 100 -130 52 -51 132 -137 179 -191 47 -55
96 -111 109 -127 86 -98 526 -528 550 -536 26 -9 485 -464 503 -499 20 -39
102 -112 125 -112 36 0 35 33 -2 65 -19 17 -42 45 -52 64 -19 37 -230 252
-419 426 -65 61 -139 130 -165 155 -26 25 -83 77 -126 115 -96 86 -337 328
-425 427 -36 40 -83 100 -105 133 -22 33 -44 63 -48 66 -27 19 -116 99 -147
130 -19 20 -46 40 -59 44 -23 7 -24 6 -18 -30z"/>
<path d="M15718 5600 c-26 -16 -42 -74 -26 -100 22 -35 52 -22 58 25 6 44 1
85 -9 85 -3 0 -14 -5 -23 -10z"/>
<path d="M13727 5542 c-23 -25 -21 -49 4 -57 33 -11 56 17 41 50 -14 30 -23
31 -45 7z"/>
<path d="M13930 5379 c13 -45 74 -115 119 -136 21 -10 46 -31 56 -48 9 -16 65
-73 126 -125 60 -52 109 -100 109 -107 0 -7 7 -16 15 -20 22 -13 427 -417 615
-614 91 -95 185 -191 210 -214 24 -22 56 -53 70 -70 52 -62 156 -155 198 -177
23 -13 45 -30 47 -40 3 -9 22 -29 42 -44 26 -20 40 -25 51 -17 29 18 23 30
-44 94 -37 35 -153 151 -258 257 -105 106 -254 255 -330 330 -77 75 -257 254
-400 397 -144 143 -299 296 -346 340 -47 44 -96 95 -110 113 -15 20 -42 39
-69 48 -24 8 -52 26 -63 39 -29 37 -49 33 -38 -6z"/>
<path d="M15723 5365 c-11 -8 -26 -28 -33 -46 -11 -26 -11 -32 1 -40 39 -25
67 -2 65 53 -2 46 -7 51 -33 33z"/>
<path d="M13722 5298 c-25 -25 -8 -78 25 -78 17 0 35 47 28 71 -7 21 -35 25
-53 7z"/>
<path d="M13951 5166 c-10 -11 11 -37 105 -132 64 -65 127 -134 140 -154 13
-19 71 -80 129 -134 58 -54 105 -102 105 -106 0 -16 201 -234 272 -295 26 -23
59 -56 75 -75 15 -20 63 -69 106 -110 42 -41 88 -91 101 -110 25 -37 84 -96
392 -391 79 -77 140 -114 164 -99 21 13 2 46 -53 93 -29 24 -153 147 -277 272
-124 126 -319 323 -434 439 -115 116 -247 254 -294 306 -46 52 -120 128 -163
169 -44 40 -79 77 -79 82 0 11 -30 44 -110 121 -36 35 -81 80 -101 101 -38 39
-59 46 -78 23z"/>
<path d="M15696 5138 c-24 -34 -20 -67 8 -80 37 -16 56 -4 56 36 0 19 -3 41
-6 50 -9 23 -40 20 -58 -6z"/>
<path d="M13693 5094 c-15 -24 -15 -29 -2 -53 8 -14 22 -27 31 -29 24 -5 47
37 41 76 -4 26 -10 32 -29 32 -14 0 -30 -10 -41 -26z"/>
<path d="M13744 4960 c-47 -18 -42 -70 7 -70 29 0 33 7 29 45 -3 28 -12 34
-36 25z"/>
<path d="M13984 4956 c-8 -21 32 -94 56 -101 11 -3 20 -12 20 -19 0 -7 30 -41
68 -75 37 -34 81 -76 97 -93 17 -17 76 -79 131 -137 56 -58 108 -119 117 -136
8 -16 106 -122 217 -235 111 -113 253 -263 314 -335 62 -71 145 -161 185 -200
39 -38 93 -92 119 -119 26 -27 71 -74 99 -103 29 -29 60 -64 68 -77 22 -34 91
-79 110 -72 26 10 16 39 -30 86 -24 25 -69 70 -99 101 -30 30 -69 73 -86 95
-17 21 -80 89 -138 149 -59 61 -176 184 -259 275 -83 91 -166 177 -184 190
-19 14 -45 38 -59 55 -14 16 -60 65 -102 110 -43 44 -88 93 -100 110 -13 16
-66 75 -118 130 -52 56 -114 121 -136 146 -23 24 -70 71 -105 105 -35 33 -83
84 -107 112 -43 52 -68 64 -78 38z"/>
<path d="M15699 4911 c-22 -24 -19 -90 4 -105 38 -24 65 21 52 90 -7 38 -29
44 -56 15z"/>
<path d="M13950 4738 c0 -26 39 -86 60 -93 14 -4 105 -107 154 -174 32 -44
100 -112 127 -130 14 -9 79 -77 145 -151 65 -74 157 -173 204 -220 141 -140
282 -294 292 -316 6 -12 20 -27 33 -34 12 -7 39 -33 59 -60 20 -26 89 -94 153
-151 97 -86 250 -236 356 -347 36 -37 97 -43 97 -9 0 16 -268 289 -345 352
-66 54 -119 107 -260 260 -66 71 -210 222 -320 335 -300 309 -523 544 -614
647 -101 114 -141 140 -141 91z"/>
<path d="M13724 4726 c-24 -20 -27 -28 -18 -43 14 -22 54 -29 65 -11 13 20 11
54 -5 67 -11 9 -20 6 -42 -13z"/>
<path d="M15712 4667 c-27 -28 -28 -58 -3 -81 37 -34 70 8 53 68 -11 39 -23
42 -50 13z"/>
<path d="M13947 4566 c-3 -8 3 -26 14 -39 10 -14 19 -28 19 -32 0 -4 14 -25
32 -47 17 -23 41 -53 52 -69 87 -116 130 -168 228 -271 61 -65 117 -118 124
-118 7 0 19 -8 26 -18 21 -30 216 -236 297 -315 106 -102 220 -220 261 -268
19 -23 160 -168 314 -321 292 -292 317 -311 324 -245 3 25 -29 61 -290 321
-161 162 -399 401 -528 532 -184 187 -463 458 -509 494 -13 10 -129 158 -176
225 -45 64 -161 185 -176 185 -4 0 -9 -6 -12 -14z"/>
<path d="M13728 4552 c-16 -10 -28 -23 -28 -30 0 -27 21 -52 45 -52 18 0 25 7
30 29 5 24 -8 74 -18 70 -1 0 -14 -8 -29 -17z"/>
<path d="M15731 4464 c-35 -44 -22 -84 26 -84 21 0 23 4 23 55 0 63 -15 72
-49 29z"/>
<path d="M13927 4383 c-20 -20 3 -54 106 -157 116 -117 197 -204 197 -214 0
-7 39 -48 152 -162 46 -47 89 -92 94 -101 16 -29 118 -133 145 -149 25 -15 95
-90 214 -233 66 -81 156 -177 290 -311 50 -50 117 -124 150 -165 33 -41 89
-99 125 -129 35 -30 79 -74 97 -97 51 -68 143 -112 143 -70 0 14 -21 38 -175
205 -38 42 -95 105 -125 140 -30 36 -123 135 -206 220 -83 85 -191 200 -240
254 -49 55 -141 152 -204 215 -63 64 -200 208 -305 321 -259 280 -418 440
-436 440 -9 0 -19 -3 -22 -7z"/>
<path d="M13731 4336 c-19 -20 -21 -28 -11 -46 8 -15 19 -20 38 -18 24 3 27 7
27 43 0 48 -21 57 -54 21z"/>
<path d="M15743 4260 c-30 -37 -29 -56 2 -64 37 -9 45 0 45 50 0 52 -14 56
-47 14z"/>
<path d="M13724 4155 c-13 -13 -24 -30 -24 -38 0 -20 21 -37 46 -37 24 0 34
17 34 60 0 38 -25 46 -56 15z"/>
<path d="M13900 4138 c0 -16 18 -38 55 -68 52 -43 90 -83 215 -235 30 -36 106
-118 168 -181 63 -63 120 -127 127 -141 14 -27 216 -245 328 -353 37 -36 67
-71 67 -77 0 -5 17 -22 38 -37 20 -15 48 -41 62 -59 31 -39 293 -300 464 -462
136 -128 186 -157 223 -130 17 13 14 17 -37 62 -30 26 -129 120 -220 208 -91
89 -189 184 -219 211 -30 27 -87 83 -127 124 -39 41 -141 147 -226 235 -85 88
-197 207 -249 265 -52 57 -136 147 -188 200 -52 52 -126 133 -165 180 -96 116
-196 214 -253 250 -56 36 -63 37 -63 8z"/>
<path d="M15732 4078 c-18 -18 -15 -75 4 -82 26 -10 55 23 52 58 -3 34 -33 47
-56 24z"/>
<path d="M13742 4003 c-22 -8 -34 -41 -22 -63 14 -26 46 -26 60 0 19 36 -4 74
-38 63z"/>
<path d="M13947 3943 c-15 -15 -5 -49 22 -77 60 -62 157 -181 206 -250 28 -39
83 -103 123 -142 39 -39 72 -74 72 -79 0 -4 30 -41 68 -82 37 -41 81 -91 97
-110 98 -115 199 -220 298 -310 62 -56 119 -109 127 -118 19 -21 435 -436 552
-551 81 -80 90 -85 124 -82 21 2 39 8 41 13 4 13 -130 155 -257 271 -380 348
-795 767 -992 1000 -37 43 -97 111 -134 149 -36 39 -86 97 -111 130 -35 47
-219 245 -228 245 -1 0 -5 -3 -8 -7z"/>
<path d="M15722 3814 c-15 -10 -22 -25 -22 -49 0 -37 2 -39 42 -49 34 -8 43
17 28 74 -12 45 -16 47 -48 24z"/>
<path d="M13742 3776 c-43 -21 -35 -81 11 -74 27 4 41 30 33 61 -7 29 -10 30
-44 13z"/>
<path d="M14000 3655 c0 -15 7 -39 15 -55 18 -35 116 -158 180 -225 25 -27 58
-66 73 -85 14 -19 37 -46 51 -60 15 -14 80 -83 146 -155 65 -71 127 -136 136
-142 9 -7 29 -34 44 -60 41 -72 313 -349 449 -458 48 -38 110 -96 138 -128 62
-71 130 -136 196 -186 26 -20 72 -62 102 -94 46 -49 58 -58 84 -55 44 4 44 30
0 70 -20 18 -129 124 -243 234 -113 111 -254 242 -313 292 -59 51 -110 98
-115 106 -4 8 -53 61 -108 119 -55 57 -131 139 -170 182 -38 43 -121 133 -184
199 -62 67 -140 154 -172 193 -32 40 -89 105 -128 144 -39 39 -90 97 -112 130
-45 63 -69 75 -69 34z"/>
<path d="M13725 3590 c-17 -19 -17 -21 0 -40 10 -11 27 -20 37 -20 16 0 19 6
16 37 -4 44 -25 54 -53 23z"/>
<path d="M15722 3554 c-25 -17 -30 -65 -9 -82 36 -30 77 18 63 73 -7 29 -22
31 -54 9z"/>
<path d="M13907 3484 c-23 -23 50 -138 180 -282 48 -53 92 -101 98 -107 6 -5
24 -28 40 -50 16 -22 61 -71 100 -110 38 -38 91 -92 116 -120 25 -27 68 -70
95 -95 27 -25 81 -80 119 -122 39 -43 73 -78 77 -78 15 0 95 -66 119 -98 25
-35 160 -148 403 -340 33 -26 99 -84 147 -129 94 -87 130 -106 156 -80 18 18
8 40 -29 65 -14 9 -67 56 -119 104 -52 48 -141 124 -199 170 -326 256 -871
786 -1083 1053 -156 196 -200 239 -220 219z"/>
<path d="M13716 3405 c-21 -32 -20 -52 4 -65 29 -16 60 4 60 38 0 52 -37 68
-64 27z"/>
<path d="M15716 3349 c-14 -17 -26 -39 -26 -49 0 -20 44 -60 66 -60 19 0 27
42 20 95 -9 54 -24 57 -60 14z"/>
<path d="M13727 3222 c-34 -37 -8 -84 33 -62 16 9 20 19 18 43 -4 38 -27 46
-51 19z"/>
<path d="M15742 3113 c-17 -7 -33 -49 -26 -68 17 -42 84 -42 84 0 0 57 -22 83
-58 68z"/>
<path d="M13744 3012 c-32 -27 -39 -60 -18 -83 27 -30 49 -24 62 19 21 70 -1
101 -44 64z"/>
<path d="M13920 2966 c0 -35 28 -85 68 -121 48 -43 71 -66 87 -87 67 -83 144
-172 185 -213 27 -27 50 -53 50 -57 0 -4 17 -19 38 -32 20 -13 56 -41 79 -62
23 -22 65 -57 94 -79 110 -85 257 -202 331 -265 42 -36 102 -83 134 -105 31
-22 72 -55 91 -72 39 -38 83 -45 83 -14 0 22 -118 133 -279 262 -518 418 -625
512 -727 646 -107 139 -234 248 -234 199z"/>
<path d="M15768 2863 c-37 -43 -29 -86 18 -97 42 -11 58 33 32 89 -13 29 -29
32 -50 8z"/>
<path d="M13735 2790 c-15 -16 -17 -25 -9 -38 25 -39 79 -17 72 30 -4 31 -39
35 -63 8z"/>
<path d="M13737 2642 c-31 -35 -9 -80 32 -67 20 6 38 56 26 75 -10 16 -40 12
-58 -8z"/>
<path d="M15790 2642 c-67 -22 -65 -110 2 -100 19 2 23 10 26 47 4 47 -4 61
-28 53z"/>
<path d="M13752 2462 c-22 -30 -19 -43 14 -60 29 -15 46 5 42 50 -4 43 -30 48
-56 10z"/>
<path d="M13870 2470 c0 -35 57 -106 190 -237 231 -228 362 -342 396 -343 19
0 36 28 27 43 -4 7 -53 54 -108 103 -55 49 -122 110 -150 135 -27 26 -79 72
-115 102 -36 31 -99 90 -140 132 -70 70 -100 89 -100 65z"/>
<path d="M15741 2394 c-12 -15 -21 -35 -21 -44 0 -20 52 -45 75 -36 15 6 21
59 9 90 -9 24 -40 19 -63 -10z"/>
<path d="M13830 2305 c0 -15 18 -45 48 -78 26 -30 58 -67 72 -83 48 -55 330
-303 367 -322 29 -16 53 -5 53 24 0 29 -38 68 -215 214 -77 63 -176 150 -220
192 -44 43 -86 78 -92 78 -7 0 -13 -11 -13 -25z"/>
<path d="M13748 2283 c-9 -10 -19 -28 -22 -39 -5 -18 -1 -22 25 -28 42 -8 49
-2 49 45 0 31 -4 39 -18 39 -11 0 -26 -8 -34 -17z"/>
<path d="M15752 2205 c-33 -24 -31 -78 5 -94 14 -7 29 -8 34 -4 16 17 14 72
-4 96 -11 16 -14 16 -35 2z"/>
<path d="M13745 2114 c-9 -9 -15 -28 -13 -43 2 -20 9 -27 30 -29 22 -3 29 2
34 22 13 54 -17 84 -51 50z"/>
<path d="M15755 2007 c-38 -46 -37 -45 -16 -66 12 -12 32 -21 46 -21 20 0 25
6 31 35 10 52 -32 88 -61 52z"/>
<path d="M13748 1969 c-34 -37 -18 -69 33 -69 24 0 27 51 3 74 -8 9 -16 16
-17 15 -1 0 -10 -9 -19 -20z"/>
<path d="M9600 1135 c-9 -11 -11 -41 -8 -106 l6 -90 -97 3 c-128 4 -371 -20
-393 -40 -35 -30 -15 -80 39 -96 12 -4 65 0 117 9 52 9 101 15 108 14 7 -2 40
0 73 4 40 5 75 3 105 -6 l45 -13 0 -98 c0 -93 1 -99 25 -117 25 -19 25 -19
100 18 74 36 168 101 204 141 10 12 51 38 92 59 79 40 85 49 63 111 -9 26 -24
36 -105 71 -53 23 -108 41 -124 41 -16 0 -32 5 -35 10 -3 6 -14 10 -23 10 -9
0 -48 20 -85 45 -75 49 -88 53 -107 30z"/>
<path d="M7360 1110 c-220 -18 -297 -62 -225 -130 l25 -24 73 17 c39 10 84 17
98 17 l26 0 8 -222 c4 -122 12 -232 18 -245 14 -32 56 -42 75 -17 12 16 13 51
8 199 -3 99 -10 204 -16 234 -5 30 -8 56 -6 58 2 2 45 5 95 5 51 1 94 6 97 10
3 5 3 21 -1 37 -5 22 -16 33 -47 45 -54 22 -104 26 -228 16z"/>
<path d="M7697 1012 c-22 -24 -22 -55 1 -75 15 -13 22 -14 55 -2 49 17 49 17
41 50 -11 42 -69 59 -97 27z"/>
<path d="M8698 950 c-88 -16 -150 -88 -168 -197 -5 -32 -12 -70 -15 -85 -6
-22 -2 -29 22 -44 15 -10 41 -29 56 -43 27 -25 33 -26 140 -25 62 1 125 7 140
13 25 10 28 15 25 48 l-3 38 -95 1 c-52 0 -99 1 -104 2 -10 2 60 55 86 65 26
9 58 67 58 104 0 87 -58 137 -142 123z m57 -101 c5 -14 1 -30 -11 -46 -20 -25
-121 -77 -128 -65 -7 13 35 90 58 105 19 13 42 21 68 26 4 0 10 -9 13 -20z"/>
<path d="M8007 882 c-26 -26 -51 -62 -56 -80 -15 -49 -16 -185 -2 -210 23 -43
71 -21 71 33 1 67 42 195 62 195 21 0 58 -63 79 -134 19 -62 22 -66 50 -66 32
0 49 27 49 79 0 34 34 81 58 81 36 -1 55 -30 78 -117 26 -97 44 -124 72 -107
27 17 27 93 1 165 -15 40 -37 76 -66 105 -39 39 -50 44 -88 44 -44 0 -65 -13
-85 -51 -17 -30 -36 -22 -49 20 -14 47 -62 91 -100 91 -19 0 -41 -14 -74 -48z"/>
<path d="M7728 774 c-8 -17 -9 -31 -2 -42 9 -16 6 -52 -10 -127 -9 -39 5 -59
36 -52 46 12 77 112 59 191 -15 60 -62 77 -83 30z"/>
</g>
</svg>
