<?xml version="1.0" standalone="no"?>
<!DOCTYPE svg PUBLIC "-//W3C//DTD SVG 20010904//EN"
 "http://www.w3.org/TR/2001/REC-SVG-20010904/DTD/svg10.dtd">
<svg version="1.0" xmlns="http://www.w3.org/2000/svg"
 width="872.673576pt" height="400.000000pt" viewBox="0 0 872.673576 400.000000"
 preserveAspectRatio="xMidYMid meet">
<metadata>
Created by potrace 1.15, written by Peter Selinger 2001-2017
</metadata>
<g transform="translate(-8.357169,421.549081) scale(0.032970,-0.032970)"
fill="#444444" stroke="none">
<path d="M11690 12783 c-70 -5 -216 -25 -252 -34 -26 -7 -43 -19 -53 -39 -32
-63 -9 -74 114 -54 50 8 96 12 100 9 11 -6 24 -198 25 -351 1 -95 4 -115 20
-133 23 -26 35 -26 52 -3 22 28 17 286 -8 477 -3 18 5 21 67 28 103 12 120 18
123 48 6 49 -42 62 -188 52z"/>
<path d="M11993 12703 c-28 -19 -29 -35 -3 -58 20 -18 21 -18 42 2 15 16 19
28 14 47 -7 30 -21 32 -53 9z"/>
<path d="M13818 12698 c-22 -27 -22 -37 -3 -108 8 -30 15 -74 15 -98 l0 -42
-182 1 c-236 2 -314 -6 -345 -37 -29 -29 -29 -38 2 -62 20 -16 32 -18 67 -11
24 4 139 8 256 9 l212 0 0 -68 c0 -46 5 -75 16 -90 9 -13 14 -33 10 -45 -6
-25 10 -47 35 -47 10 0 42 18 71 40 39 29 63 40 89 40 22 0 70 17 125 44 49
24 100 46 114 49 34 8 117 64 124 83 15 38 -45 89 -132 111 -74 19 -215 96
-272 148 -43 40 -152 105 -174 105 -6 0 -19 -10 -28 -22z"/>
<path d="M12318 12559 c-21 -10 -42 -28 -47 -38 -7 -13 -18 -17 -34 -14 -38 8
-56 -26 -45 -84 5 -27 11 -80 15 -120 4 -58 10 -76 29 -94 23 -21 25 -21 43
-5 15 13 19 36 24 114 5 91 22 162 39 162 12 0 34 -49 62 -141 14 -48 32 -89
40 -92 7 -3 24 1 36 10 16 11 21 24 19 52 -3 61 0 71 21 71 32 0 73 -25 100
-62 22 -29 25 -42 23 -105 -1 -62 1 -73 15 -73 36 1 62 34 68 86 6 44 2 58
-25 110 -47 87 -130 139 -197 124 -45 -10 -57 -3 -84 51 -20 38 -46 69 -58 69
-4 -1 -24 -10 -44 -21z"/>
<path d="M12985 12537 c-42 -14 -140 -100 -158 -140 -8 -17 -20 -60 -26 -94
-11 -57 -10 -66 14 -126 14 -35 38 -76 53 -90 70 -66 236 -56 302 20 42 47 30
57 -51 44 -107 -18 -164 -14 -193 12 -14 12 -28 34 -32 49 -5 23 -1 30 34 52
22 14 43 34 47 46 4 14 15 20 34 20 45 0 71 37 71 101 0 49 -4 58 -32 86 -30
27 -36 29 -63 20z m17 -102 c-7 -50 -15 -62 -58 -87 -69 -42 -83 -34 -42 25
54 79 107 112 100 62z"/>
<path d="M11983 12508 c-27 -29 -28 -38 -18 -192 6 -107 11 -132 27 -148 15
-15 22 -17 33 -8 26 21 38 80 30 144 -4 34 -10 93 -14 131 -9 99 -21 113 -58
73z"/>
<path d="M14436 11112 c-15 -17 -15 -31 -6 -133 6 -63 13 -161 16 -218 3 -58
10 -113 15 -123 31 -57 93 35 70 104 -8 25 -8 43 0 67 11 31 8 122 -7 236 -10
78 -50 108 -88 67z"/>
<path d="M13391 11074 c-13 -16 -19 -36 -16 -52 2 -15 6 -59 9 -98 3 -39 13
-88 21 -109 22 -51 22 -205 1 -217 -27 -15 -38 -46 -25 -69 21 -40 78 -89 102
-89 14 0 30 -7 37 -15 17 -20 102 -10 148 17 62 38 77 131 28 177 -26 24 -97
51 -136 51 -37 0 -47 15 -55 85 -11 97 -35 247 -47 290 -15 60 -35 69 -67 29z
m243 -514 c13 -13 -35 -38 -79 -42 -39 -3 -41 -1 -36 32 3 25 89 32 115 10z"/>
<path d="M5930 11021 c-92 -19 -137 -75 -90 -113 13 -11 32 -17 43 -14 45 11
47 3 47 -174 0 -100 -5 -180 -11 -200 -10 -27 -9 -38 5 -65 42 -77 141 -75
282 3 119 67 166 155 132 253 -14 44 -70 130 -126 196 -74 86 -189 133 -282
114z m199 -153 c47 -38 110 -138 120 -191 8 -44 6 -51 -17 -78 -27 -33 -135
-89 -170 -89 -22 0 -22 2 -22 196 l0 195 30 -5 c16 -2 43 -15 59 -28z"/>
<path d="M11953 10979 c-46 -29 -73 -92 -73 -167 0 -34 -3 -62 -7 -62 -5 0
-23 -9 -41 -20 -27 -17 -31 -23 -23 -39 6 -10 24 -24 40 -31 39 -16 42 -27 39
-149 -2 -110 3 -121 50 -121 28 0 38 25 48 121 7 79 15 98 42 97 9 -1 37 2 61
7 41 7 43 6 36 -11 -11 -26 -10 -40 8 -101 26 -91 91 -153 160 -153 26 0 111
60 121 85 10 27 -38 38 -91 20 -47 -16 -59 -13 -89 22 -16 19 -6 53 16 53 27
0 84 27 118 55 27 22 30 31 25 58 -8 48 -29 74 -74 98 -57 28 -110 19 -144
-25 -14 -18 -25 -39 -25 -47 0 -9 -6 -7 -18 7 -13 17 -31 23 -74 26 -32 3 -61
8 -65 12 -5 4 -10 43 -11 85 -4 70 -2 81 18 99 17 15 30 19 61 15 35 -5 39 -3
39 15 0 31 -49 72 -85 72 -16 0 -44 -10 -62 -21z m331 -315 c24 -9 19 -20 -14
-34 -36 -15 -46 -9 -30 19 11 22 19 25 44 15z"/>
<path d="M13796 10971 c-36 -40 -40 -115 -15 -296 6 -44 14 -118 18 -165 9
-100 14 -113 48 -135 22 -15 27 -15 40 -2 18 17 18 39 3 127 -22 128 -30 207
-35 328 -6 153 -20 186 -59 143z"/>
<path d="M9260 10963 c-76 -27 -91 -71 -40 -120 38 -35 41 -54 44 -249 2 -157
2 -159 26 -171 14 -7 29 -8 35 -3 12 10 32 78 40 143 4 33 11 47 21 47 9 0 58
-29 110 -65 145 -100 174 -111 174 -65 0 24 -85 121 -141 162 -24 17 -46 32
-48 34 -2 2 29 34 68 72 39 38 71 77 71 86 0 49 -65 118 -128 136 -54 15 -180
11 -232 -7z m240 -101 c30 -24 19 -43 -44 -75 -68 -34 -94 -35 -101 -2 -3 14
-8 37 -11 52 -7 34 8 43 77 43 39 0 63 -5 79 -18z"/>
<path d="M9685 10967 c-33 -17 -34 -27 -9 -116 31 -111 30 -117 -7 -130 -43
-15 -37 -50 13 -74 37 -18 37 -19 32 -65 -3 -26 -10 -60 -16 -75 -14 -36 5
-75 40 -84 39 -9 242 4 258 18 17 14 18 48 2 54 -7 3 -51 8 -98 12 -94 9 -100
14 -85 90 l6 34 54 -6 c30 -4 71 -4 90 -1 30 6 35 11 35 35 0 43 -26 59 -110
66 -41 3 -79 10 -84 15 -14 14 -25 94 -14 101 5 4 48 9 95 12 101 6 125 20 99
59 -15 23 -24 25 -121 31 -60 3 -115 12 -132 21 -22 11 -34 12 -48 3z"/>
<path d="M10264 10945 c-40 -7 -85 -20 -101 -29 -31 -15 -63 -56 -63 -77 0
-26 67 -108 110 -135 55 -34 102 -72 113 -90 10 -17 -47 -42 -128 -55 -33 -6
-67 -17 -76 -25 -8 -8 -20 -14 -26 -14 -16 0 -25 -30 -10 -34 6 -2 28 -8 48
-15 63 -20 142 -7 226 37 80 42 84 107 11 172 -24 22 -48 39 -53 40 -6 0 -35
23 -65 51 -52 47 -54 51 -36 64 10 8 44 17 75 20 31 4 70 12 88 18 28 9 35 8
54 -9 12 -11 37 -19 58 -20 47 -1 152 -24 169 -37 7 -6 11 -20 8 -32 -3 -11
-8 -52 -11 -89 -4 -37 -10 -79 -16 -93 -17 -46 -11 -98 16 -123 24 -22 26 -22
44 -6 11 10 22 27 25 39 14 59 34 225 29 250 -9 44 8 55 65 44 26 -6 64 -7 85
-3 31 6 37 11 37 32 0 16 -8 27 -22 33 -45 17 -135 41 -155 41 -11 0 -28 9
-38 20 -14 15 -22 17 -37 9 -14 -7 -48 -6 -122 7 -93 15 -105 15 -133 1 -28
-15 -31 -14 -46 4 -19 22 -25 22 -123 4z"/>
<path d="M13205 10930 c-21 -24 -14 -46 21 -62 23 -11 28 -10 40 7 18 24 18
40 -2 59 -21 21 -37 20 -59 -4z"/>
<path d="M11245 10930 c-46 -18 -59 -71 -23 -94 13 -8 28 -5 63 12 49 23 54
35 29 70 -16 23 -35 26 -69 12z"/>
<path d="M6414 10845 c-9 -23 4 -63 24 -74 9 -5 32 -12 50 -16 45 -9 52 15 17
65 -22 31 -34 40 -57 40 -16 0 -31 -6 -34 -15z"/>
<path d="M6753 10806 c-108 -46 -121 -89 -50 -171 66 -76 66 -82 2 -111 -37
-17 -55 -31 -55 -43 0 -19 24 -44 53 -54 47 -17 147 62 147 116 0 34 -23 82
-56 118 -35 37 -23 55 39 63 29 4 60 14 69 23 21 19 23 54 6 71 -18 18 -97 12
-155 -12z"/>
<path d="M12942 10750 c-72 -44 -66 -106 21 -190 l61 -59 -29 -12 c-17 -6 -58
-12 -93 -13 -60 -2 -63 -1 -68 23 -6 32 -59 138 -84 168 -16 21 -24 22 -84 16
-62 -5 -71 -10 -117 -51 -60 -54 -79 -88 -79 -143 0 -33 6 -47 34 -75 19 -19
43 -34 53 -34 49 0 106 47 145 119 22 41 41 39 57 -4 7 -19 17 -35 22 -35 5 0
9 -6 9 -14 0 -20 49 -76 66 -76 8 0 14 7 14 15 0 13 7 15 38 9 20 -3 39 -7 42
-7 3 -1 24 2 47 6 77 13 122 72 94 125 -5 9 -12 25 -15 35 -3 9 -16 21 -29 26
-14 5 -27 17 -30 25 -4 9 -13 16 -21 16 -17 0 -29 40 -16 55 6 7 32 10 67 7
71 -4 99 12 90 50 -5 18 -16 27 -38 32 -61 12 -123 6 -157 -14z m-302 -188 c0
-29 -41 -81 -64 -82 -16 0 4 65 25 83 27 22 39 22 39 -1z"/>
<path d="M8782 10737 c-12 -13 -22 -29 -22 -35 0 -9 -4 -9 -19 0 -27 16 -62
-3 -122 -66 l-47 -48 -17 26 c-19 29 -55 35 -75 11 -9 -11 -8 -29 6 -84 18
-69 18 -71 -2 -98 -17 -25 -126 -249 -168 -346 -20 -46 -21 -91 -2 -106 23
-19 41 -3 71 67 16 37 43 92 61 122 17 30 35 65 38 78 4 12 12 22 17 22 5 0 9
5 9 11 0 16 49 95 88 139 18 21 32 49 32 63 0 15 18 47 45 79 25 30 45 58 45
61 0 3 10 16 22 30 21 23 22 23 40 5 11 -11 32 -18 54 -18 36 0 36 1 30 32 -6
29 -41 78 -56 78 -4 0 -16 -10 -28 -23z"/>
<path d="M7055 10738 c-40 -14 -60 -33 -91 -86 -22 -37 -25 -53 -22 -94 4 -42
12 -56 49 -94 43 -44 43 -44 115 -44 49 0 75 -4 83 -14 7 -8 27 -17 47 -20 30
-6 44 -1 104 39 85 56 110 87 110 132 0 79 -53 133 -129 133 -46 0 -50 -4 -94
-70 -40 -60 -45 -88 -22 -124 14 -21 14 -23 -11 -34 -14 -7 -31 -9 -37 -5 -28
17 -103 76 -109 87 -22 33 14 106 53 106 20 0 59 33 59 50 0 17 -39 50 -57 49
-10 0 -31 -5 -48 -11z m301 -159 c6 -11 -42 -69 -58 -69 -11 0 -10 25 4 55 11
26 41 34 54 14z"/>
<path d="M8230 10708 c-25 -13 -54 -38 -65 -55 -11 -18 -31 -49 -44 -70 l-23
-38 17 -82 c19 -92 51 -137 83 -116 13 8 17 26 18 79 1 137 3 151 31 184 24
30 29 31 75 25 44 -6 48 -5 48 14 0 26 -54 81 -78 81 -10 0 -38 -10 -62 -22z"/>
<path d="M11269 10703 c-20 -24 -24 -167 -6 -228 11 -38 20 -52 40 -59 15 -6
29 -7 32 -4 23 23 18 266 -6 295 -16 18 -44 16 -60 -4z"/>
<path d="M11600 10707 c-27 -9 -41 -23 -60 -62 -62 -125 -15 -310 60 -235 19
19 21 28 15 64 -17 89 -15 115 8 131 12 8 25 15 29 15 14 0 70 -92 86 -142 30
-90 72 -90 72 1 0 46 -44 146 -83 190 -18 19 -77 53 -89 50 -2 0 -19 -5 -38
-12z"/>
<path d="M14062 10685 c-17 -19 -41 -57 -54 -85 -12 -27 -29 -50 -36 -50 -7 0
-18 -12 -24 -26 -11 -24 -9 -29 18 -53 16 -15 36 -42 43 -59 20 -47 100 -102
149 -102 44 0 112 39 112 64 0 12 5 27 12 34 9 10 9 16 -4 28 -14 14 -18 14
-49 -5 -51 -31 -95 -28 -130 10 -44 47 -38 61 34 88 85 33 137 67 137 91 0 27
-64 86 -102 94 -57 11 -75 7 -106 -29z"/>
<path d="M7633 10677 c-16 -19 -38 -45 -47 -58 l-17 -24 -23 28 c-29 36 -69
35 -74 -2 -5 -35 54 -149 87 -166 25 -12 31 -12 50 1 24 18 53 70 71 131 8 25
21 45 32 48 35 12 19 59 -23 70 -21 5 -31 0 -56 -28z"/>
<path d="M7857 10675 c-12 -15 -42 -46 -66 -70 -44 -43 -44 -45 -33 -82 6 -21
26 -52 44 -69 57 -53 172 -104 233 -104 28 0 36 4 41 24 10 41 -4 66 -35 66
-30 0 -131 38 -131 49 0 4 26 20 58 35 31 16 65 36 75 44 26 23 22 71 -10 104
-24 25 -34 28 -90 28 -56 0 -66 -3 -86 -25z"/>
<path d="M5710 10628 c-112 -86 -300 -293 -300 -330 0 -4 -22 -45 -49 -90 -26
-46 -63 -113 -80 -150 -18 -38 -34 -68 -36 -68 -2 0 -33 14 -68 30 -71 33
-104 37 -130 18 -16 -12 -16 -23 -7 -118 6 -58 16 -123 22 -145 6 -24 8 -85 4
-155 -6 -135 4 -179 47 -194 26 -9 32 -4 128 94 56 57 118 129 139 160 21 30
52 68 69 84 17 17 31 40 31 52 0 20 -53 78 -109 116 l-24 17 40 78 c66 130
124 235 159 288 47 71 183 207 227 228 77 37 76 117 -1 117 -11 0 -39 -15 -62
-32z"/>
<path d="M13234 10632 c-14 -9 -54 -86 -65 -126 -7 -22 -5 -34 8 -48 38 -42
81 -7 91 74 12 92 1 124 -34 100z"/>
<path d="M6498 10613 c-32 -8 -49 -121 -28 -177 12 -33 40 -33 70 -1 19 21 23
35 23 93 0 92 -7 100 -65 85z"/>
<path d="M14536 10438 c-21 -29 -20 -37 8 -71 23 -28 24 -28 53 -13 38 19 49
60 22 87 -26 26 -64 24 -83 -3z"/>
<path d="M8792 10434 c-27 -19 -28 -34 -1 -68 24 -31 49 -33 73 -7 21 23 13
67 -14 81 -25 13 -32 13 -58 -6z"/>
<path d="M2775 9591 c-4 -3 -57 -6 -118 -7 -62 0 -193 -6 -292 -12 -129 -8
-327 -9 -695 -2 -283 5 -531 12 -550 14 -41 6 -613 -11 -716 -22 -56 -5 -79
-13 -109 -36 l-38 -29 7 -86 c4 -47 9 -106 12 -131 9 -77 5 -381 -7 -465 -6
-44 -13 -170 -14 -280 -3 -165 -1 -208 12 -243 13 -35 16 -90 17 -290 1 -136
-1 -276 -3 -312 -2 -36 -3 -155 -2 -265 2 -110 0 -237 -4 -282 -6 -69 -4 -89
11 -125 16 -38 19 -74 20 -313 0 -148 4 -301 9 -340 8 -67 10 -270 5 -585 -3
-152 3 -193 28 -222 16 -19 77 -25 86 -9 6 9 148 -13 169 -26 32 -20 746 -44
1047 -35 307 10 598 9 800 -3 277 -16 1164 -8 1350 12 80 8 130 11 270 18 145
6 313 21 385 35 28 5 82 12 120 15 214 16 329 25 405 29 47 3 128 10 180 15
52 6 149 13 215 15 66 2 160 7 209 10 84 5 121 9 314 37 80 12 232 13 487 2
198 -8 357 -9 374 -3 11 4 18 -12 27 -65 13 -69 30 -216 38 -325 2 -30 9 -77
14 -105 21 -106 33 -181 33 -210 2 -120 2 -388 0 -474 -2 -101 -1 -104 25
-132 32 -34 76 -37 184 -16 72 15 279 13 513 -3 219 -16 202 -8 217 -98 6 -43
16 -99 21 -127 5 -27 12 -144 15 -260 3 -115 7 -216 10 -223 2 -8 4 -114 4
-235 0 -246 16 -474 36 -496 26 -29 294 -24 494 10 107 18 841 28 1010 14 41
-3 116 -12 165 -20 50 -8 146 -17 215 -20 68 -4 134 -9 145 -12 43 -11 1142
-4 1290 8 109 9 527 13 1525 14 828 2 1461 7 1590 13 302 16 913 29 1735 38
275 3 516 7 535 9 19 2 249 6 510 10 261 3 522 10 580 15 58 6 155 10 215 10
61 0 173 5 250 10 301 20 795 26 1365 14 368 -7 1795 -14 2700 -13 1144 1
2161 1 2390 -1 102 -1 325 -1 495 -1 171 0 382 -4 470 -8 184 -9 608 -8 675 2
93 14 157 16 210 9 84 -12 186 -1 209 23 24 24 38 148 33 303 -3 74 0 102 9
102 9 0 9 3 0 14 -18 21 -11 547 9 653 4 23 3 47 -2 55 -4 7 -8 31 -7 53 1 22
-1 47 -4 55 -13 35 -17 171 -6 191 8 15 8 19 0 15 -12 -8 -12 -6 -17 64 -5 78
-22 160 -32 160 -4 0 -45 7 -92 16 -61 11 -173 17 -395 19 -170 3 -483 6 -695
9 -232 3 -403 1 -430 -5 -25 -5 -115 -14 -200 -19 -138 -8 -215 -18 -395 -50
-44 -8 -190 -18 -370 -25 -33 -1 -94 -6 -135 -10 -100 -10 -550 -9 -625 1 -72
11 -367 11 -910 0 -360 -7 -820 -11 -1895 -16 -221 -1 -378 2 -415 9 -41 7
-105 8 -203 2 -79 -5 -331 -9 -560 -9 -285 -1 -465 -5 -567 -15 -82 -8 -161
-15 -175 -15 -14 -1 -146 -6 -295 -12 -148 -6 -427 -13 -620 -15 -192 -3 -357
-8 -365 -11 -21 -8 -563 -33 -630 -29 -30 2 -116 7 -190 12 -164 10 -728 8
-935 -3 -82 -4 -253 -7 -380 -7 -878 4 -1043 4 -1150 -1 -66 -3 -205 -8 -310
-10 -104 -3 -253 -10 -330 -16 -172 -13 -875 -14 -1080 -1 -82 5 -181 6 -220
2 -87 -9 -414 -5 -600 9 -77 6 -203 15 -279 21 -77 5 -338 9 -580 9 -429 -1
-507 -3 -630 -15 -32 -4 -160 -8 -284 -10 -124 -3 -300 -9 -391 -15 -91 -6
-274 -13 -406 -15 -132 -3 -265 -10 -297 -15 -52 -10 -126 -16 -463 -39 -140
-10 -245 -5 -250 13 -6 16 -27 380 -27 454 0 35 -4 80 -9 100 -14 63 -28 239
-35 427 -3 99 -7 202 -9 228 -1 27 4 69 11 95 8 25 12 54 8 64 -11 37 -95 36
-220 -3 -55 -17 -93 -20 -232 -20 -92 0 -194 5 -227 10 -33 6 -103 11 -155 11
-151 0 -138 -15 -139 168 -1 87 -6 220 -12 297 -6 77 -11 223 -11 325 0 111
-5 213 -13 255 -8 43 -14 149 -14 275 0 113 -2 315 -5 450 -2 135 0 287 6 337
9 87 1 274 -20 438 l-7 60 -45 8 c-25 4 -76 5 -115 1 -38 -5 -234 -9 -435 -9
-201 -1 -509 -6 -685 -10 -316 -8 -456 -8 -464 1 -3 3 -8 90 -12 194 -4 104
-10 194 -13 198 -3 5 -10 155 -17 333 -6 178 -15 329 -20 335 -5 6 -16 34 -24
62 -11 36 -22 53 -37 58 -32 10 -138 6 -176 -7 -18 -6 -48 -8 -65 -5 -119 21
-745 34 -1207 24 -69 -1 -254 0 -412 4 -158 3 -290 3 -293 -1z m595 -124 c162
3 786 2 976 -1 205 -4 280 -11 302 -28 14 -12 99 -4 148 14 17 6 42 8 56 5 23
-6 26 -14 38 -93 7 -48 12 -140 12 -203 -1 -64 6 -206 15 -316 15 -195 19
-422 7 -478 l-6 -28 -428 5 c-249 4 -467 2 -521 -4 -52 -5 -150 -16 -219 -23
-181 -20 -309 -20 -440 -1 -78 12 -198 18 -375 20 -143 2 -444 6 -670 9 -225
3 -653 7 -950 9 -563 4 -660 8 -735 31 -25 8 -78 15 -118 16 -41 1 -76 7 -82
14 -11 14 5 421 20 500 12 63 6 301 -10 380 -6 33 -10 78 -8 100 3 39 4 40 48
48 90 16 520 19 1180 8 510 -9 704 -9 795 0 66 6 194 13 285 16 90 2 166 6
168 8 2 2 101 1 220 -3 120 -3 251 -6 292 -5z m3335 -1185 c18 -2 20 -11 24
-85 3 -45 4 -122 4 -172 -1 -49 -3 -275 -5 -502 -2 -226 -6 -414 -10 -418 -8
-8 -241 -7 -438 2 -166 7 -719 7 -920 -1 -178 -7 -793 -18 -995 -18 -88 0
-257 0 -375 1 -189 1 -705 -20 -845 -34 -63 -6 -268 -17 -405 -21 -58 -2 -134
-5 -170 -7 -396 -27 -829 -23 -1000 8 -94 17 -321 34 -555 40 -99 3 -198 7
-220 10 -22 3 -80 7 -130 10 -164 10 -257 22 -266 36 -4 7 -9 77 -9 154 -4
356 -4 465 -3 675 1 124 1 239 1 257 -1 59 6 65 70 60 31 -2 91 -14 132 -25
63 -17 117 -22 330 -28 446 -12 573 -11 601 2 15 7 29 11 31 8 7 -6 612 -17
698 -13 71 4 238 3 595 -4 335 -7 495 -15 534 -28 50 -17 404 -5 500 16 104
22 183 27 536 28 278 2 313 0 342 -15 36 -20 78 -24 88 -9 3 6 27 13 53 16 26
3 85 14 132 24 70 15 139 19 395 21 171 1 405 5 520 9 184 5 705 7 760 3z
m-490 -1301 c33 -4 146 -6 251 -5 105 2 204 0 220 -5 46 -12 53 -68 59 -431 2
-173 9 -340 15 -370 6 -30 11 -118 11 -195 l0 -140 -28 -23 c-27 -23 -31 -23
-193 -17 -196 7 -598 8 -609 1 -4 -3 -34 -7 -67 -10 -313 -28 -436 -37 -599
-46 -104 -6 -221 -15 -260 -20 -38 -5 -124 -9 -189 -9 -66 -1 -145 -5 -175
-11 -150 -25 -333 -44 -496 -51 -314 -13 -635 -29 -780 -38 -183 -12 -488 -12
-645 0 -313 23 -644 28 -1255 19 -209 -3 -506 3 -650 14 -134 10 -357 46 -373
61 -10 9 -14 86 -17 336 -2 178 -8 347 -12 374 -5 28 -7 97 -4 155 2 58 3 171
2 251 -2 91 1 149 8 153 5 4 29 2 53 -3 24 -5 99 -13 168 -16 69 -4 128 -9
132 -11 3 -2 126 -7 273 -9 146 -3 289 -10 318 -16 29 -5 99 -12 157 -15 58
-3 123 -10 145 -16 53 -15 679 -13 875 2 80 6 190 13 245 15 138 4 297 15 375
26 36 5 112 9 170 9 58 0 134 5 170 10 36 5 207 9 380 8 173 -1 398 0 500 1
916 12 1000 14 1295 29 188 10 427 7 530 -7z m1515 -1358 c0 -115 28 -569 39
-633 11 -61 25 -328 26 -460 l0 -85 -30 2 c-16 0 -84 6 -150 14 -101 10 -326
13 -580 5 l-50 -1 -7 80 c-4 44 -9 184 -12 310 -3 162 -9 252 -21 305 -9 41
-20 134 -26 205 -5 72 -14 153 -20 180 -6 28 -13 70 -16 94 l-5 44 163 -9
c260 -13 496 -9 549 9 25 8 66 15 93 16 l47 1 0 -77z m17585 -1029 c207 -7
650 -16 790 -15 269 2 382 -6 410 -29 10 -9 15 -33 15 -79 0 -36 5 -93 11
-126 6 -33 13 -80 16 -105 6 -63 6 -317 -1 -425 -7 -120 -7 -590 0 -610 3 -8
3 -26 0 -39 -6 -23 -10 -24 -138 -30 -73 -4 -162 -9 -198 -13 -36 -3 -162 -5
-280 -4 -286 2 -2442 14 -2550 13 -47 0 -186 -3 -310 -7 -229 -7 -671 -10
-1015 -7 -104 0 -278 0 -385 -1 -107 -1 -690 2 -1295 6 -1531 12 -1888 10
-2245 -13 -107 -7 -251 -14 -320 -15 -69 -2 -186 -5 -260 -8 -314 -13 -910
-25 -1580 -32 -272 -3 -540 -8 -595 -11 -55 -4 -224 -8 -375 -9 -151 -2 -392
-8 -535 -14 -143 -7 -435 -14 -650 -17 -214 -3 -394 -5 -400 -6 -5 0 -419 3
-920 6 -787 6 -943 5 -1155 -9 -282 -19 -1253 -28 -1490 -13 -80 4 -210 18
-290 31 -134 20 -180 22 -615 22 -335 1 -486 -3 -525 -11 -30 -7 -102 -15
-160 -18 -58 -4 -141 -9 -185 -12 -114 -8 -114 -8 -120 187 -3 85 -8 222 -10
304 -3 83 -8 240 -11 350 -3 110 -10 225 -16 255 -15 81 -21 181 -11 191 4 4
44 4 88 0 83 -8 307 10 613 49 46 6 192 12 325 14 133 2 303 9 377 15 74 7
196 12 270 11 121 0 342 10 505 25 33 3 258 7 500 9 327 4 482 1 605 -9 91 -8
179 -14 195 -14 17 0 84 -4 150 -9 96 -7 390 -7 560 0 17 0 179 -2 360 -6 468
-11 1001 -6 1026 10 7 4 88 7 179 6 91 -1 246 3 345 8 99 5 322 9 495 7 538
-3 913 -1 1220 6 428 11 478 11 660 1 246 -13 749 -7 885 11 38 5 183 9 815
20 376 6 597 15 646 26 56 12 192 22 289 21 44 0 166 -1 270 -2 179 -1 650 16
664 24 3 2 60 -2 126 -10 125 -15 636 -20 950 -10 88 3 250 5 360 4 316 -3
1219 4 1228 9 4 2 145 4 315 4 218 -1 326 -5 372 -15 78 -16 561 -13 705 4 50
6 137 13 195 16 156 7 296 23 380 43 53 13 119 19 224 20 91 1 169 7 200 15
28 8 73 15 101 16 27 0 52 3 54 6 3 2 12 2 20 -2 9 -3 66 -8 126 -10z"/>
<path d="M1680 9255 c-99 -27 -120 -49 -97 -106 5 -13 11 -76 13 -139 2 -63 6
-160 9 -215 3 -56 1 -115 -5 -135 -9 -30 -7 -37 17 -62 52 -55 73 -25 73 105
0 94 7 127 25 127 7 0 40 -14 74 -30 64 -32 199 -157 226 -211 18 -33 59 -64
75 -54 15 9 12 76 -5 109 -8 15 -25 36 -38 46 -13 11 -42 43 -65 72 -23 29
-66 71 -96 93 -31 22 -55 43 -56 46 0 3 20 20 45 38 25 18 52 45 60 61 17 33
19 99 5 149 -24 83 -152 135 -260 106z m158 -115 c21 -20 27 -48 22 -95 -3
-24 -10 -29 -79 -55 -44 -17 -57 -19 -66 -8 -14 15 -38 155 -30 169 4 5 34 9
69 9 49 0 67 -4 84 -20z"/>
<path d="M2085 9210 c-17 -19 -17 -22 -1 -81 18 -63 22 -105 31 -349 3 -80 11
-155 17 -167 15 -30 42 -37 70 -20 14 9 64 17 124 21 108 6 177 24 182 47 1 8
-4 23 -12 34 -13 18 -27 20 -148 20 l-133 0 0 60 0 60 55 2 c85 4 188 23 200
38 32 39 -58 79 -172 76 -75 -1 -94 9 -101 56 -4 21 -9 53 -13 71 l-7 34 100
-7 c125 -9 173 4 173 47 0 41 -32 56 -149 67 -154 16 -195 15 -216 -9z"/>
<path d="M3117 9219 c-67 -6 -83 -11 -108 -35 -34 -32 -36 -53 -11 -84 18 -22
21 -23 98 -12 123 17 113 28 108 -117 -8 -263 -5 -314 18 -338 25 -26 41 -29
61 -9 11 11 13 58 12 241 l-1 227 57 -5 c31 -3 62 -1 68 3 7 4 15 25 18 47 5
39 4 41 -28 51 -59 18 -83 23 -134 28 -27 3 -57 6 -65 7 -8 2 -50 0 -93 -4z"/>
<path d="M2727 9209 c-41 -10 -127 -54 -139 -73 -22 -33 -7 -73 53 -145 58
-69 183 -181 202 -181 4 0 -1 -13 -12 -29 -26 -36 -66 -49 -149 -50 -87 0
-111 -22 -74 -67 48 -57 102 -58 208 -3 98 51 103 56 115 108 12 55 3 71 -73
126 -61 45 -168 160 -168 182 0 25 58 43 151 45 80 3 93 6 106 24 12 19 11 24
-6 45 -17 21 -28 24 -98 25 -43 0 -95 -3 -116 -7z"/>
<path d="M1660 7964 c-66 -25 -130 -70 -130 -91 0 -5 7 -19 16 -32 13 -18 17
-61 20 -239 5 -249 9 -290 31 -314 23 -26 58 -22 77 7 15 23 20 24 76 18 75
-7 136 14 197 70 32 29 43 47 43 69 0 40 -35 104 -68 125 -15 9 -46 34 -69 55
-24 21 -47 38 -53 38 -23 0 -8 32 23 45 54 25 97 69 118 124 23 63 15 85 -39
108 -37 16 -213 28 -242 17z m145 -118 c18 -13 17 -16 -24 -54 -44 -41 -87
-60 -102 -45 -7 7 -13 59 -10 90 2 23 108 30 136 9z m-40 -266 c35 -17 79 -48
100 -72 l38 -41 -21 -18 c-23 -18 -88 -29 -157 -26 l-40 2 -3 79 c-3 77 1 106
14 106 3 0 34 -13 69 -30z"/>
<path d="M2030 7927 c-35 -17 -36 -47 -6 -130 31 -84 46 -177 55 -339 5 -101
9 -119 26 -132 23 -18 35 -19 55 -6 12 7 15 35 15 145 0 122 2 136 18 141 28
9 85 -4 139 -32 39 -20 52 -22 69 -14 15 8 18 17 13 33 -17 59 -52 83 -164
116 -83 25 -102 34 -111 58 -19 51 -14 56 44 48 155 -22 181 -23 201 -4 18 17
18 19 3 43 -24 37 -41 43 -174 65 -140 24 -150 25 -183 8z"/>
<path d="M2532 7894 c-42 -18 -48 -36 -29 -82 26 -60 48 -218 48 -349 1 -107
3 -126 21 -148 11 -14 28 -25 38 -25 37 0 45 27 46 159 1 69 2 131 3 136 0 7
39 9 104 7 70 -2 110 1 127 10 31 17 39 62 13 76 -18 10 -192 36 -225 34 -21
-1 -58 43 -58 68 0 14 19 21 88 36 90 20 137 49 125 80 -7 20 -254 19 -301 -2z"/>
<path d="M4574 6762 c-34 -27 -35 -46 -8 -134 40 -135 52 -327 28 -478 -7 -43
23 -75 76 -83 19 -2 71 -14 115 -26 83 -22 234 -51 273 -51 29 0 62 34 62 63
0 37 -28 53 -115 66 -94 14 -239 47 -276 62 l-26 10 -1 138 c0 143 -14 233
-55 361 -20 64 -33 90 -46 90 -3 0 -15 -8 -27 -18z"/>
<path d="M3324 6738 c-19 -8 -21 -16 -17 -52 3 -22 9 -54 14 -71 22 -68 42
-197 48 -316 7 -138 19 -169 67 -169 30 0 44 27 44 82 0 51 13 68 52 68 39 0
81 -23 103 -57 21 -31 30 -130 14 -150 -19 -22 -2 -43 35 -43 46 0 66 32 66
104 0 62 -18 101 -87 183 -52 62 -105 84 -156 65 -37 -14 -44 -9 -52 38 -3 19
-12 60 -19 90 -8 30 -22 97 -31 148 -16 82 -20 92 -39 91 -12 0 -31 -5 -42
-11z"/>
<path d="M4056 6635 c-52 -18 -110 -77 -136 -138 -18 -42 -21 -65 -18 -146 2
-66 8 -107 21 -130 9 -19 17 -40 17 -48 0 -17 86 -100 112 -109 10 -3 29 1 41
9 24 15 66 26 140 34 38 4 47 2 47 -11 0 -31 113 -126 152 -126 20 0 48 26 48
44 0 7 -27 42 -61 77 -92 97 -93 98 -68 145 17 32 20 52 16 114 -6 96 -41 172
-108 235 -72 67 -121 80 -203 50z m112 -104 c51 -26 82 -62 93 -108 12 -52 11
-123 -1 -123 -5 0 -10 3 -10 8 0 4 -24 33 -53 65 -50 57 -53 58 -79 46 -15 -6
-30 -20 -33 -30 -7 -21 22 -82 60 -127 25 -30 32 -56 17 -66 -5 -3 -27 -8 -48
-12 -39 -6 -41 -4 -69 37 -63 97 -39 307 38 322 41 8 48 7 85 -12z"/>
<path d="M1788 6610 c-162 -21 -335 -139 -369 -252 -14 -47 -12 -128 5 -163 8
-16 22 -51 31 -77 21 -59 104 -151 156 -172 45 -18 154 -21 196 -5 41 15 111
87 140 143 60 118 -12 219 -164 231 -37 3 -108 2 -158 -3 -107 -11 -123 -4
-97 40 9 16 40 51 67 77 56 53 127 84 237 105 82 16 132 51 102 73 -19 14 -56
15 -146 3z m-95 -405 c76 2 144 2 151 -1 19 -7 28 -52 18 -88 -6 -21 -23 -38
-60 -58 -49 -28 -54 -29 -107 -18 -66 14 -119 55 -146 115 -23 49 -25 72 -6
56 9 -7 59 -9 150 -6z"/>
<path d="M2195 6370 c-22 -10 -62 -39 -89 -63 l-49 -45 12 -78 c17 -105 41
-174 70 -201 31 -30 47 -29 67 3 16 24 16 30 -6 105 -26 89 -23 141 10 173 18
18 35 21 130 24 100 3 110 5 110 23 0 23 -32 44 -96 64 -65 20 -111 19 -159
-5z"/>
<path d="M2640 6359 c-56 -15 -172 -100 -198 -145 -57 -98 11 -214 125 -214
50 1 119 33 128 59 10 32 21 25 43 -29 21 -50 52 -70 87 -56 21 8 13 55 -27
158 -19 51 -31 102 -33 145 -4 91 -29 107 -125 82z m-5 -166 c-11 -72 -20 -85
-62 -81 -20 2 -40 10 -46 19 -18 28 56 107 102 109 10 0 12 -10 6 -47z"/>
<path d="M3050 6350 c-78 -27 -130 -84 -130 -143 0 -24 9 -70 20 -103 29 -83
42 -182 41 -306 l-1 -108 30 0 c23 0 33 7 46 32 14 28 16 55 11 190 l-5 158
38 -6 c63 -10 137 22 166 72 46 78 21 143 -76 202 -62 37 -66 37 -140 12z
m125 -115 c33 -32 31 -43 -10 -61 -74 -31 -142 -6 -128 47 12 44 100 53 138
14z"/>
<path d="M16325 3984 c-10 -11 -14 -25 -11 -38 28 -95 38 -146 51 -244 8 -62
15 -141 15 -176 0 -66 10 -86 46 -86 30 0 41 17 56 85 16 71 33 79 76 36 30
-31 52 -80 69 -156 8 -36 11 -40 37 -38 16 1 33 8 38 15 31 49 -78 269 -158
319 -30 18 -40 20 -60 10 -31 -14 -44 -7 -43 22 2 60 -39 223 -64 255 -13 17
-32 15 -52 -4z"/>
<path d="M14974 3971 c-116 -33 -184 -88 -232 -191 -32 -69 -34 -90 -18 -182
24 -141 71 -228 135 -250 51 -17 185 -14 254 6 69 21 87 48 95 143 6 78 -10
121 -47 128 -14 3 -45 10 -69 15 -23 6 -58 10 -77 10 -18 0 -36 4 -40 9 -3 6
-26 13 -50 17 -55 8 -75 -6 -75 -52 0 -44 28 -59 152 -80 51 -9 101 -20 110
-25 29 -16 22 -49 -12 -60 -16 -6 -30 -15 -30 -20 0 -24 -167 1 -211 32 -21
15 -28 31 -37 88 -17 102 -15 136 13 191 23 45 32 53 108 88 101 48 144 62
185 62 42 0 42 23 1 61 -36 34 -63 35 -155 10z"/>
<path d="M17243 3935 c-3 -9 -3 -33 1 -53 4 -20 18 -110 31 -200 25 -164 46
-232 71 -232 8 0 37 9 65 19 44 17 70 19 189 15 112 -3 140 -1 150 11 29 35
-23 82 -98 89 -21 2 -55 9 -76 16 -36 12 -96 10 -166 -4 -24 -5 -27 -2 -38 52
-7 31 -17 91 -22 132 -13 94 -29 153 -44 162 -20 13 -56 9 -63 -7z"/>
<path d="M16859 3917 c-18 -12 -47 -44 -63 -71 -29 -45 -30 -55 -31 -150 0
-114 15 -153 74 -193 39 -26 114 -40 144 -25 50 23 59 22 113 -13 84 -56 144
-35 97 33 -14 21 -18 46 -18 122 0 89 -2 100 -35 164 -30 59 -45 76 -99 113
-76 51 -127 57 -182 20z m143 -89 c48 -24 107 -155 86 -192 -13 -23 -17 -21
-68 25 -46 42 -105 74 -119 64 -5 -2 -11 -14 -14 -26 -4 -15 5 -33 34 -64 21
-23 39 -45 39 -49 0 -10 -47 -7 -74 5 -28 13 -36 35 -36 107 0 58 9 83 48 124
20 22 31 26 56 21 17 -3 39 -10 48 -15z"/>
<path d="M15474 3821 c-34 -10 -104 -74 -126 -116 -40 -76 -20 -314 27 -324
35 -6 43 23 38 133 -6 107 4 163 34 187 8 7 47 18 86 24 56 8 73 15 75 29 7
32 -88 79 -134 67z"/>
<path d="M15765 3746 c-54 -33 -76 -54 -97 -92 -35 -63 -35 -101 0 -146 42
-55 60 -63 86 -41 11 11 34 27 49 37 15 9 33 28 39 42 6 13 14 24 17 24 3 0
21 -25 40 -55 33 -54 59 -71 98 -63 11 2 18 12 17 26 0 12 1 22 2 22 2 0 24
-15 50 -32 l46 -33 -7 -87 c-8 -102 1 -128 44 -128 27 0 29 3 34 48 3 26 6 64
6 86 1 48 12 62 77 91 64 28 86 60 92 131 4 49 1 59 -29 102 -32 47 -63 68
-138 91 -67 21 -125 4 -152 -46 -16 -30 1 -70 33 -75 19 -2 24 -10 26 -42 4
-50 -11 -66 -39 -40 -12 10 -25 29 -30 42 -6 15 -15 22 -27 20 -20 -4 -19 -37
3 -82 8 -16 13 -31 10 -34 -10 -10 -35 22 -60 74 -22 46 -33 85 -51 182 -7 36
-58 28 -139 -22z m501 -113 c31 -20 31 -54 -2 -92 -18 -22 -35 -31 -55 -31
l-30 0 5 73 c2 39 5 74 5 76 2 7 54 -10 77 -26z m-486 -16 c0 -18 -34 -49 -43
-40 -11 10 -8 20 9 37 19 20 34 21 34 3z"/>
<path d="M10191 8039 c6 -12 9 -29 6 -39 -2 -9 2 -48 10 -86 28 -134 28 -132
-3 -144 -15 -6 -39 -8 -54 -5 -18 4 -31 1 -40 -10 -7 -8 -20 -15 -29 -15 -84
0 -242 -97 -302 -185 -50 -74 -44 -116 22 -151 64 -33 114 -8 174 87 40 62 47
68 65 59 11 -6 20 -16 20 -23 0 -7 16 -37 35 -67 35 -54 87 -92 112 -83 20 8
15 49 -7 64 -11 8 -23 27 -26 42 -5 32 -26 69 -60 107 -29 33 -32 48 -15 88
12 29 18 33 40 27 14 -3 41 -9 59 -12 19 -3 37 -14 43 -26 7 -11 13 -69 14
-129 2 -88 6 -112 20 -128 23 -25 30 -25 56 1 20 20 21 30 18 143 l-4 121 43
3 c62 5 57 32 -13 72 -39 22 -57 39 -61 58 -29 125 -87 252 -116 252 -16 0
-17 -3 -7 -21z m-271 -485 c0 -23 -39 -74 -56 -74 -23 0 -16 32 13 62 30 32
43 35 43 12z"/>
<path d="M8844 7986 c-5 -13 -1 -85 12 -202 4 -37 2 -68 -4 -81 -6 -11 -7 -24
-2 -29 4 -5 10 -38 12 -74 3 -61 2 -65 -19 -68 -30 -4 -30 -33 0 -67 18 -22
35 -28 100 -36 86 -11 106 -4 176 54 l34 29 41 -40 c51 -50 107 -78 168 -86
40 -5 51 -2 77 20 16 13 31 35 33 47 3 18 8 13 28 -28 28 -55 56 -68 85 -38
15 14 17 29 12 96 -4 43 -2 100 4 128 13 62 41 79 117 72 43 -5 52 -3 52 10 0
19 -55 63 -91 72 -15 4 -47 -2 -81 -15 -51 -19 -58 -25 -77 -70 -12 -27 -21
-59 -21 -72 0 -13 -13 -45 -28 -73 -22 -40 -33 -51 -61 -56 -38 -8 -106 9
-105 26 1 6 31 27 67 48 58 34 67 43 73 75 9 49 -19 101 -67 125 -61 29 -111
12 -182 -63 -64 -68 -61 -68 -117 -9 -8 8 -41 25 -72 38 -31 12 -59 30 -62 38
-4 8 -9 61 -12 117 -4 55 -10 105 -14 110 -14 15 -70 17 -76 2z m506 -306 c11
-11 20 -26 20 -32 0 -14 -120 -69 -132 -62 -17 11 -6 38 31 75 44 45 53 47 81
19z m-300 -65 c14 -15 20 -33 18 -51 -2 -23 -12 -32 -51 -48 -46 -19 -50 -19
-61 -3 -12 15 -12 89 -1 123 5 18 72 3 95 -21z"/>
<path d="M7570 7936 c-62 -23 -42 -74 38 -95 42 -11 54 -71 56 -272 1 -149 -2
-180 -15 -195 -27 -32 -29 -51 -8 -78 55 -70 269 6 361 129 42 56 58 66 58 38
0 -21 21 -42 92 -91 39 -27 59 -33 122 -39 71 -6 77 -4 111 21 39 30 38 47 -3
45 -38 -1 -114 12 -134 23 -26 13 -22 25 12 37 17 5 51 27 75 47 78 64 52 125
-60 139 -65 8 -112 -5 -145 -40 -13 -14 -27 -25 -31 -25 -4 0 -9 35 -11 78 -3
63 -8 83 -28 110 -28 37 -149 117 -195 128 -16 4 -48 15 -70 25 -54 23 -180
32 -225 15z m272 -141 c33 -14 82 -39 109 -55 59 -38 69 -77 43 -166 -13 -46
-28 -69 -69 -109 -43 -42 -127 -95 -150 -95 -3 0 -5 42 -5 93 0 100 -16 298
-26 335 -9 30 18 29 98 -3z m412 -245 c10 -10 -17 -25 -61 -35 -29 -6 -33 -4
-33 14 0 11 8 25 18 30 18 11 60 6 76 -9z"/>
<path d="M8483 7888 c-13 -6 -25 -19 -29 -30 -6 -20 21 -274 37 -345 5 -23 9
-60 9 -81 0 -73 58 -86 73 -17 9 41 6 87 -13 255 -6 52 -14 124 -18 160 -7 69
-17 79 -59 58z"/>
<path d="M8642 7848 c-19 -19 -14 -44 14 -58 34 -18 59 -3 59 36 0 25 -4 29
-30 32 -17 2 -36 -3 -43 -10z"/>
<path d="M10527 7844 c-31 -17 -27 -33 14 -63 33 -24 75 -21 65 6 -3 8 -9 25
-12 38 -7 29 -33 36 -67 19z"/>
<path d="M11208 7787 c-37 -29 -56 -89 -64 -195 -5 -74 -4 -90 10 -101 27 -23
64 -6 70 32 26 186 36 202 106 192 62 -10 116 -39 142 -79 28 -43 75 -73 91
-57 18 18 -26 90 -93 154 -50 48 -69 59 -111 67 -82 16 -121 12 -151 -13z"/>
<path d="M10824 7750 c-25 -10 -63 -59 -87 -112 -21 -45 -21 -51 2 -96 30 -58
51 -72 122 -78 73 -7 122 11 169 61 36 38 34 99 -3 129 -15 12 -27 27 -27 33
0 6 -17 25 -37 42 -39 32 -92 40 -139 21z m111 -105 c19 -20 35 -42 35 -49 0
-30 -80 -61 -126 -50 -23 6 -25 10 -19 42 10 54 33 92 55 92 11 0 35 -16 55
-35z"/>
<path d="M10583 7628 c-6 -7 -13 -24 -16 -38 -3 -14 -12 -52 -20 -85 -9 -33
-13 -63 -10 -68 10 -17 55 -28 68 -17 13 11 27 97 27 166 0 46 -28 69 -49 42z"/>
<path d="M8669 7563 c-35 -82 -6 -166 51 -148 18 6 20 16 20 84 0 63 -4 81
-18 94 -27 24 -31 22 -53 -30z"/>
<path d="M7597 7098 c-59 -91 -85 -141 -101 -197 -9 -29 -21 -60 -27 -67 -6
-7 -17 -37 -24 -66 -18 -68 -58 -185 -67 -194 -4 -3 -24 0 -45 8 -62 25 -126
31 -148 14 -18 -13 -19 -18 -7 -58 19 -63 63 -283 71 -357 6 -50 12 -67 32
-82 28 -22 63 -33 82 -26 8 3 48 56 89 119 42 62 94 135 117 163 77 93 64 155
-35 175 -63 13 -61 6 -29 110 9 30 20 71 24 90 14 57 89 229 127 292 19 32 38
73 41 93 6 35 5 35 -30 35 -31 0 -39 -6 -70 -52z"/>
<path d="M14395 7058 c-61 -31 -81 -54 -105 -119 -22 -59 -23 -98 -7 -323 3
-40 41 -85 75 -87 9 -1 33 -3 52 -4 50 -5 104 11 141 42 l31 27 37 -45 c59
-72 79 -89 104 -89 57 0 61 45 9 103 -57 63 -65 89 -66 212 -1 124 -9 145 -76
215 -53 55 -105 90 -133 90 -12 -1 -40 -10 -62 -22z m127 -115 c20 -21 42 -51
47 -66 12 -31 15 -117 5 -117 -4 0 -26 18 -50 40 -49 45 -81 51 -110 19 -18
-20 -18 -21 49 -86 40 -38 67 -72 65 -81 -3 -17 -78 -38 -102 -29 -7 3 -25 25
-39 50 -23 39 -27 58 -28 135 -2 77 1 95 20 125 24 40 33 45 76 46 23 1 40 -9
67 -36z"/>
<path d="M14725 7026 c-17 -12 -18 -19 -7 -82 6 -38 15 -127 20 -199 13 -178
14 -181 116 -194 348 -46 406 -42 406 27 0 29 -9 32 -123 49 -139 19 -164 22
-225 26 -29 2 -59 10 -67 18 -10 10 -16 50 -20 134 -6 135 -13 192 -27 218
-11 20 -47 22 -73 3z"/>
<path d="M12374 6998 c-99 -55 -194 -221 -194 -341 0 -80 56 -170 138 -220 92
-56 134 -64 197 -36 51 23 109 84 123 130 29 97 24 108 -63 146 -63 27 -155
33 -220 15 -38 -11 -65 -54 -49 -79 10 -15 27 -18 120 -18 144 0 162 -13 105
-74 -38 -40 -92 -43 -142 -6 -19 13 -48 35 -66 47 -63 45 -68 131 -15 249 34
76 85 125 167 160 60 26 66 34 33 43 -45 12 -94 6 -134 -16z"/>
<path d="M13762 7008 c-16 -16 -15 -47 7 -153 23 -106 39 -344 18 -263 -9 38
-22 56 -61 88 -26 22 -53 41 -60 41 -6 1 -18 3 -26 3 -8 1 -44 5 -79 10 l-63
8 -44 -43 c-51 -50 -58 -47 -68 32 -8 59 -21 62 -105 23 -99 -45 -118 -57
-165 -100 -56 -51 -58 -75 -12 -136 39 -51 52 -58 106 -58 34 0 44 6 88 56 49
55 72 62 72 24 0 -23 48 -70 70 -70 9 0 21 5 27 11 7 7 13 2 21 -18 38 -98 65
-294 42 -308 -8 -5 -8 -10 1 -21 13 -15 47 -18 67 -6 22 14 26 103 8 192 -19
93 -17 100 43 100 37 0 121 59 121 85 0 22 19 28 51 15 43 -18 69 7 69 68 0
54 19 122 34 122 38 -1 65 -64 70 -162 3 -57 6 -64 28 -72 52 -19 61 -5 56 92
-5 96 -23 142 -79 201 -29 30 -36 33 -73 28 -23 -3 -47 -3 -54 2 -6 4 -15 29
-18 57 -3 27 -8 56 -12 64 -3 8 -10 33 -16 55 -12 42 -40 57 -64 33z m-68
-368 c36 -38 39 -62 13 -100 -27 -41 -77 -56 -116 -35 -19 9 -28 26 -36 60 -6
30 -17 52 -30 59 -11 6 -22 12 -24 14 -3 1 4 9 15 17 14 11 38 15 87 12 56 -2
71 -7 91 -27z m-436 -40 c-24 -59 -53 -74 -80 -40 -10 12 -15 27 -12 32 10 16
96 68 105 62 4 -2 -2 -27 -13 -54z m217 -36 c0 -23 -3 -46 -7 -50 -5 -4 -8 0
-8 8 0 8 -9 27 -20 41 -11 14 -20 34 -20 45 0 18 3 19 28 10 24 -9 28 -16 27
-54z"/>
<path d="M9123 6864 c-24 -14 -43 -30 -43 -34 0 -16 44 -40 72 -40 21 0 31 -7
38 -26 10 -25 5 -280 -6 -336 -9 -47 13 -105 50 -127 18 -12 44 -22 57 -22 36
-2 144 29 188 55 50 28 116 109 136 168 20 59 12 142 -18 186 -26 39 -115 111
-176 141 -34 18 -218 62 -249 61 -4 -1 -26 -12 -49 -26z m314 -154 c70 -35 97
-71 107 -140 5 -43 3 -48 -43 -105 -44 -55 -54 -62 -114 -79 -72 -20 -87 -17
-87 19 0 13 -4 26 -8 29 -8 5 -6 301 2 323 6 14 53 -2 143 -47z"/>
<path d="M11846 6857 c-32 -32 -32 -38 -2 -66 30 -29 58 -24 70 12 9 23 6 31
-16 54 l-26 26 -26 -26z"/>
<path d="M12962 6789 c-60 -7 -104 -26 -127 -55 -5 -6 -27 -15 -47 -18 -44 -8
-58 -39 -40 -90 5 -17 13 -53 17 -81 8 -58 28 -95 53 -95 32 0 42 22 42 96 0
104 12 129 68 149 114 40 137 51 140 69 4 18 -14 37 -33 35 -5 -1 -39 -5 -73
-10z"/>
<path d="M10818 6739 c-11 -6 -18 -22 -18 -42 0 -37 25 -58 55 -46 11 4 35 8
53 8 17 1 32 5 32 10 0 25 -16 44 -51 61 -44 23 -47 23 -71 9z"/>
<path d="M10393 6703 c-4 -10 -16 -25 -27 -34 -23 -19 -17 -40 17 -58 33 -18
55 -9 63 25 12 47 -37 109 -53 67z"/>
<path d="M10670 6689 c-69 -42 -67 -70 6 -146 59 -61 90 -101 83 -108 -3 -2
-33 -8 -69 -14 -45 -8 -66 -7 -71 0 -9 15 -40 7 -53 -14 -9 -15 -5 -23 22 -48
28 -25 40 -29 90 -29 45 0 66 6 103 29 60 38 71 79 34 123 -14 16 -25 34 -25
39 0 5 -18 28 -40 50 -22 23 -40 45 -40 49 0 4 13 10 29 13 33 7 45 28 28 50
-21 27 -59 29 -97 6z"/>
<path d="M11086 6679 c-14 -11 -26 -25 -26 -32 0 -6 -9 -21 -21 -33 -11 -12
-23 -41 -26 -64 -4 -30 -11 -44 -24 -47 -11 -3 -19 -10 -19 -15 0 -5 -4 -6
-10 -3 -5 3 -10 17 -10 31 0 28 -24 42 -44 25 -7 -6 -19 -32 -26 -57 -12 -44
-12 -47 12 -71 22 -21 29 -23 47 -14 11 7 21 18 21 26 0 24 17 17 41 -16 16
-22 27 -29 42 -25 12 3 26 1 32 -4 15 -13 120 14 162 42 36 24 83 102 83 139
0 17 3 19 13 10 8 -6 22 -52 32 -104 15 -75 23 -96 43 -111 18 -14 29 -16 41
-9 13 8 16 29 17 107 0 53 5 101 11 107 6 6 26 9 44 7 30 -3 38 -10 67 -63 28
-52 32 -68 30 -120 -3 -50 0 -60 14 -63 28 -5 50 13 64 53 14 42 9 88 -12 106
-8 6 -14 20 -14 30 0 11 -15 41 -32 68 -25 37 -44 52 -78 65 -60 22 -112 23
-140 3 -16 -11 -28 -13 -41 -7 -14 8 -23 4 -41 -18 l-23 -28 -23 27 c-31 38
-108 79 -147 79 -18 0 -44 -9 -59 -21z m103 -74 c34 -17 45 -50 24 -70 -37
-38 -82 -65 -107 -65 -26 0 -27 1 -12 22 9 12 16 36 16 53 0 32 24 75 41 75 6
0 23 -7 38 -15z"/>
<path d="M10207 6642 c-86 -36 -126 -79 -127 -140 0 -75 53 -143 124 -156 56
-11 176 60 149 88 -3 3 -33 6 -65 6 -71 0 -108 20 -108 59 0 14 4 31 8 36 15
23 71 55 94 55 48 0 69 62 26 74 -30 8 -23 9 -101 -22z"/>
<path d="M9745 6639 c-75 -30 -88 -47 -96 -130 -8 -72 -8 -73 28 -121 19 -27
52 -58 73 -68 21 -11 41 -24 45 -30 3 -5 27 -10 52 -10 36 0 58 8 99 35 61 41
66 47 58 69 -8 21 -32 20 -77 -4 -51 -27 -81 -25 -119 9 -28 25 -30 31 -19 45
7 9 21 16 30 16 17 0 111 90 128 123 13 25 5 64 -15 72 -44 17 -138 14 -187
-6z m95 -69 c0 -11 -8 -23 -17 -26 -10 -3 -31 -12 -46 -20 -38 -19 -47 -18
-47 5 0 12 15 26 43 40 53 26 67 26 67 1z"/>
<path d="M8957 6600 c-16 -5 -34 -13 -41 -19 -27 -23 -275 -169 -326 -193 -30
-13 -98 -54 -150 -89 -52 -36 -101 -68 -107 -72 -18 -11 -53 50 -53 94 0 19
-6 43 -13 54 -13 17 -15 17 -44 0 -17 -10 -42 -41 -57 -69 -14 -28 -51 -96
-81 -151 -76 -138 -135 -257 -135 -271 0 -7 10 -20 22 -28 21 -15 92 -15 293
-1 33 3 75 5 94 5 42 -1 71 24 71 61 0 15 -18 63 -41 105 -22 42 -38 83 -35
90 5 14 178 130 296 199 60 35 165 102 285 180 28 18 64 39 80 47 22 9 30 20
30 38 0 21 -5 25 -30 27 -16 1 -43 -2 -58 -7z"/>
<path d="M11868 6603 c-21 -5 -31 -45 -18 -77 8 -21 16 -26 43 -26 40 0 57 15
57 50 0 44 -34 66 -82 53z"/>
<path d="M10468 6543 c-30 -36 -54 -144 -38 -174 14 -26 46 -24 64 4 22 33 40
155 25 173 -15 19 -33 18 -51 -3z"/>
<path d="M1087 5037 c-15 -12 -27 -28 -27 -35 0 -7 -4 -12 -10 -12 -5 0 -18
-29 -29 -64 -11 -36 -24 -73 -30 -83 -5 -10 -24 -52 -41 -93 -18 -41 -51 -97
-74 -125 -63 -75 -74 -93 -69 -119 7 -32 35 -39 165 -40 58 -1 110 -5 114 -9
15 -15 14 -112 -2 -172 -30 -113 -34 -140 -39 -263 -3 -67 -9 -142 -15 -165
-21 -93 -5 -147 46 -147 42 0 60 32 69 115 3 33 8 70 11 83 2 12 9 77 14 145
5 67 16 155 25 195 8 40 15 102 15 136 0 44 5 67 15 76 8 7 47 13 87 14 66 1
74 3 87 27 13 23 11 30 -29 104 -24 44 -55 94 -70 111 -14 16 -32 46 -39 65
-7 18 -21 52 -31 74 -10 23 -23 61 -29 85 -18 70 -32 100 -52 110 -26 14 -33
13 -62 -13z"/>
<path d="M3604 3826 c-3 -8 2 -43 11 -78 32 -119 38 -148 32 -154 -4 -4 -25
-8 -48 -10 -26 -2 -50 -11 -65 -25 -45 -42 -27 -64 67 -83 l63 -13 13 -49 c7
-27 11 -71 9 -99 -8 -80 4 -132 34 -165 34 -36 43 -37 71 -7 20 21 21 28 14
127 -5 58 -8 123 -9 145 l-1 40 50 6 c98 12 111 23 77 67 -13 16 -36 27 -77
35 -47 10 -62 17 -71 37 -27 56 -74 176 -74 187 0 17 -49 53 -72 53 -10 0 -21
-6 -24 -14z"/>
<path d="M4272 3738 c-15 -15 -16 -54 -2 -63 6 -3 10 -14 10 -23 0 -9 6 -28
13 -42 16 -31 40 -121 33 -127 -10 -10 -134 -31 -159 -26 -30 6 -136 -29 -179
-59 -36 -25 -74 -92 -83 -143 -9 -58 16 -102 72 -126 83 -35 122 -19 157 64 8
20 19 37 24 37 5 0 22 -20 38 -45 28 -45 54 -60 91 -53 28 5 27 44 -3 96 -15
26 -30 66 -34 90 l-7 42 42 0 c60 0 72 -18 74 -114 2 -87 17 -121 57 -129 43
-8 64 36 64 131 0 58 4 83 15 92 20 16 19 32 -3 61 -10 13 -24 44 -32 69 -24
80 -122 255 -150 270 -23 12 -24 12 -38 -2z m-202 -453 c0 -14 -10 -35 -21
-46 -19 -19 -23 -20 -31 -5 -13 23 17 75 45 76 4 0 7 -11 7 -25z"/>
<path d="M4580 3550 c-24 -18 -24 -21 -10 -46 8 -15 27 -36 42 -47 22 -17 30
-18 43 -7 24 20 18 47 -17 85 l-33 35 -25 -20z"/>
<path d="M1858 3528 c-33 -27 -36 -49 -17 -120 20 -72 37 -239 20 -203 -5 11
-23 34 -40 51 -29 28 -51 38 -190 80 l-44 14 -33 -37 c-41 -44 -42 -65 -9
-105 30 -35 32 -68 6 -90 -19 -16 -19 -14 -26 44 -6 53 -12 64 -54 107 -56 56
-92 68 -137 41 l-32 -18 -48 44 c-46 43 -50 44 -79 32 -34 -14 -54 -35 -91
-96 -23 -38 -25 -52 -23 -125 3 -70 7 -85 26 -105 29 -29 63 -26 80 8 7 14 13
57 13 96 0 92 19 115 44 51 9 -23 16 -47 16 -53 0 -19 36 -44 62 -44 31 0 46
16 54 58 8 38 28 59 40 41 4 -7 9 -39 11 -73 3 -34 9 -65 14 -70 4 -5 31 -9
59 -8 27 0 50 -3 50 -8 0 -5 20 -23 45 -41 39 -28 48 -42 65 -97 26 -83 25
-126 -2 -162 -18 -24 -20 -35 -12 -58 8 -22 16 -28 46 -30 44 -4 62 17 79 94
10 43 9 64 -5 124 -28 125 -22 151 44 185 16 8 38 28 50 45 27 38 37 38 45 0
9 -42 44 -64 79 -51 14 6 27 16 28 23 0 7 2 18 3 23 2 6 3 26 4 45 l2 35 24
-47 c33 -62 76 -83 171 -83 129 0 220 64 166 117 -21 21 -38 21 -179 -8 -22
-4 -33 -2 -33 5 0 6 6 11 13 11 22 0 139 49 174 72 61 42 53 104 -19 151 -46
30 -96 35 -157 16 -26 -8 -46 -26 -73 -64 -21 -30 -38 -56 -38 -59 0 -3 -15
-22 -34 -42 l-34 -36 -5 34 c-42 247 -46 262 -69 280 -28 21 -30 21 -50 6z
m372 -218 c0 -6 -12 -15 -26 -20 -36 -14 -39 -13 -19 10 19 21 45 27 45 10z
m-512 -116 c26 -18 29 -46 7 -64 -20 -16 -22 -14 -33 38 -11 46 -7 50 26 26z"/>
<path d="M845 3509 c-234 -31 -286 -44 -318 -79 -36 -40 -34 -58 9 -76 30 -13
48 -13 109 -3 88 14 108 9 96 -23 -4 -12 -6 -52 -3 -89 l5 -67 -71 -12 c-152
-25 -145 -126 10 -124 l58 0 0 -32 c0 -38 22 -64 54 -64 30 0 47 21 66 79 l15
46 83 15 c78 14 82 16 82 40 0 48 -22 65 -88 66 -33 1 -65 4 -71 8 -7 5 -11
43 -11 101 0 81 2 94 18 98 9 3 42 11 72 17 86 19 110 50 70 90 -22 22 -72 24
-185 9z"/>
<path d="M5522 3486 c-73 -15 -117 -62 -108 -115 5 -37 21 -54 121 -135 l48
-39 -22 -18 c-13 -10 -49 -28 -82 -40 -48 -18 -59 -26 -59 -44 0 -43 99 -61
166 -29 46 22 94 79 94 111 0 20 -16 43 -64 88 -35 33 -71 72 -80 86 -15 24
-15 26 6 37 13 6 36 13 53 17 57 13 72 46 35 78 -23 19 -33 19 -108 3z"/>
<path d="M3331 3478 c-12 -7 -40 -38 -61 -70 -33 -51 -37 -65 -33 -101 8 -66
23 -106 46 -122 29 -20 43 -19 67 7 19 20 20 31 15 91 -4 47 -3 73 6 83 18 21
57 17 73 -8 20 -32 39 -106 37 -150 -1 -41 17 -58 62 -58 40 0 50 23 45 94 -5
53 -12 73 -51 133 -26 38 -55 77 -65 86 -24 22 -109 31 -141 15z"/>
<path d="M3016 3457 c-23 -7 -60 -32 -91 -62 -47 -45 -53 -56 -60 -105 l-7
-55 -26 35 c-15 19 -42 50 -61 69 -29 29 -39 33 -72 28 -32 -4 -41 -1 -62 23
-31 35 -73 45 -125 30 -31 -8 -49 -22 -77 -61 -35 -46 -37 -55 -37 -122 -1
-86 18 -131 59 -142 43 -10 55 15 49 106 -4 71 -2 79 19 99 31 29 42 20 50
-41 4 -29 16 -61 29 -76 19 -22 27 -25 60 -19 27 5 39 14 47 32 12 32 31 27
41 -12 4 -16 22 -46 41 -66 52 -57 96 -39 97 40 l0 22 38 -19 c89 -46 289 -56
318 -16 21 29 13 50 -21 53 -41 4 -155 34 -160 42 -2 4 10 17 28 31 101 74
119 113 75 163 -27 30 -93 40 -152 23z"/>
<path d="M5181 3437 c-56 -28 -80 -93 -81 -217 0 -73 10 -90 52 -90 34 0 48
28 48 93 0 64 11 118 24 114 19 -6 45 -99 46 -162 0 -59 11 -85 36 -85 24 0
42 30 48 82 6 45 3 63 -19 111 -14 32 -25 64 -25 71 0 14 -83 96 -97 96 -5 0
-19 -6 -32 -13z"/>
<path d="M4854 3423 c-18 -9 -42 -34 -55 -57 -12 -22 -36 -53 -51 -68 -29 -27
-29 -28 -12 -54 10 -14 35 -37 57 -51 35 -22 49 -25 107 -21 101 5 166 55 154
118 -9 43 -123 150 -159 149 -5 0 -24 -7 -41 -16z m84 -105 c8 -8 9 -15 1 -25
-17 -20 -49 -16 -49 5 0 32 25 43 48 20z"/>
<path d="M4631 3357 c-5 -14 -13 -42 -16 -63 -4 -22 -13 -56 -21 -77 -21 -55
-18 -84 11 -103 60 -39 106 15 104 123 -1 83 -19 137 -47 141 -16 2 -25 -3
-31 -21z"/>
<path d="M10187 2759 c-9 -6 -31 -38 -48 -71 -43 -85 -89 -150 -168 -238 -82
-92 -111 -162 -86 -211 16 -30 36 -34 146 -29 21 1 40 -3 43 -9 4 -5 2 -34 -3
-63 -5 -29 -16 -91 -24 -138 -9 -47 -22 -113 -30 -145 -34 -137 -40 -185 -29
-210 14 -31 47 -32 63 -2 7 12 20 58 30 102 86 398 85 394 98 427 l10 26 48
-15 c117 -38 143 -15 119 110 -8 42 -21 89 -30 104 -22 43 -44 138 -52 223 -7
77 -35 150 -57 150 -6 0 -20 -5 -30 -11z"/>
<path d="M12033 1438 c-6 -7 -13 -21 -16 -31 -9 -24 18 -431 29 -449 3 -5 13
-8 23 -8 44 0 63 171 42 389 -6 64 -13 88 -27 98 -22 16 -39 17 -51 1z"/>
<path d="M9756 1339 c-56 -14 -140 -64 -155 -93 -37 -68 22 -139 167 -201 102
-44 193 -104 189 -125 -3 -20 -83 -49 -137 -49 -54 -1 -81 16 -104 63 -15 32
-19 34 -40 24 -24 -11 -36 -34 -36 -75 0 -30 44 -70 108 -99 87 -39 169 -29
248 31 18 14 35 25 38 25 3 0 12 -13 21 -29 18 -36 58 -46 117 -31 52 14 94
51 119 105 27 59 24 80 -23 131 -37 40 -45 44 -82 42 -34 -2 -49 -10 -90 -51
l-49 -49 -51 51 c-45 43 -178 120 -211 121 -12 1 -75 57 -75 67 0 33 119 50
235 33 78 -11 88 -11 105 5 26 23 25 67 0 90 -16 15 -41 18 -137 21 -65 2
-136 -1 -157 -7z m454 -398 c0 -12 -29 -35 -36 -28 -11 10 5 37 21 37 8 0 15
-4 15 -9z"/>
<path d="M10841 1312 c-7 -14 -4 -37 14 -88 30 -88 28 -109 -13 -110 -38 -1
-82 -46 -75 -75 7 -25 26 -35 84 -44 55 -8 59 -19 59 -139 0 -59 4 -76 23
-100 20 -25 26 -27 45 -17 24 13 34 53 31 121 -4 94 -2 100 31 94 25 -5 31 -2
41 19 15 34 -1 61 -56 91 -40 23 -57 58 -106 213 -15 49 -60 69 -78 35z"/>
<path d="M10347 1282 c-14 -15 -16 -54 -19 -262 -2 -218 -1 -249 15 -277 21
-39 31 -41 51 -10 20 30 34 531 15 553 -16 19 -43 18 -62 -4z"/>
<path d="M11128 1186 c-24 -17 -23 -37 3 -70 23 -29 63 -35 73 -10 13 34 6 60
-23 77 -34 20 -31 20 -53 3z"/>
<path d="M10512 1076 c-43 -49 -65 -122 -53 -175 17 -79 57 -112 116 -97 25 6
30 11 66 59 11 15 26 27 32 27 7 0 27 -23 46 -50 38 -55 67 -65 89 -29 12 19
8 33 -38 124 -28 57 -57 108 -64 114 -20 17 -43 4 -70 -42 -14 -23 -36 -55
-50 -72 l-25 -30 -1 26 c0 15 7 46 15 70 18 50 13 84 -14 99 -16 8 -24 4 -49
-24z"/>
<path d="M11391 1044 c-22 -19 -43 -49 -46 -65 -6 -27 -10 -30 -33 -24 -15 3
-37 16 -48 30 l-22 23 -25 -26 c-15 -16 -30 -50 -38 -85 -11 -53 -11 -62 6
-93 10 -19 23 -34 30 -34 19 0 42 32 50 69 l7 33 28 -30 c29 -32 68 -43 130
-38 19 2 45 4 58 5 12 0 40 19 62 41 24 24 40 34 40 25 0 -24 32 -110 44 -117
35 -23 54 5 76 116 9 44 21 81 28 84 15 5 68 -105 77 -162 7 -43 29 -76 50
-76 17 0 45 44 45 70 0 40 -71 193 -112 241 -51 61 -93 67 -136 19 -15 -16
-41 -34 -58 -40 -28 -10 -33 -7 -74 30 -56 51 -86 52 -139 4z m99 -86 c0 -20
-13 -35 -37 -42 -20 -6 -23 -4 -23 17 0 13 3 27 7 30 11 12 53 7 53 -5z"/>
<path d="M12076 759 c-15 -35 -12 -49 16 -88 21 -29 49 -22 79 20 18 26 19 34
9 59 -7 17 -20 30 -29 30 -9 0 -26 3 -38 6 -19 5 -25 0 -37 -27z"/>
</g>
</svg>
