<?xml version="1.0" standalone="no"?>
<!DOCTYPE svg PUBLIC "-//W3C//DTD SVG 20010904//EN"
 "http://www.w3.org/TR/2001/REC-SVG-20010904/DTD/svg10.dtd">
<svg version="1.0" xmlns="http://www.w3.org/2000/svg"
 width="713.176881pt" height="400.000000pt" viewBox="0 0 713.176881 400.000000"
 preserveAspectRatio="xMidYMid meet">
<metadata>
Created by potrace 1.15, written by Peter Selinger 2001-2017
</metadata>
<g transform="translate(-5.349923,419.286795) scale(0.035638,-0.035638)"
fill="#444444" stroke="none">
<path d="M10255 11761 c-2 -2 -32 -4 -67 -6 -87 -4 -161 -16 -175 -27 -19 -15
-16 -42 7 -63 17 -15 30 -17 97 -11 42 4 81 8 87 9 21 4 34 -111 35 -304 1
-159 4 -199 16 -209 24 -20 49 -8 57 30 10 44 10 334 -1 418 -4 35 -4 65 -1
67 4 2 26 7 50 11 55 9 83 35 71 66 -8 21 -14 23 -90 23 -46 0 -84 -2 -86 -4z"/>
<path d="M12633 11713 c-17 -6 -16 -33 2 -76 8 -20 15 -61 15 -91 l0 -54 -97
6 c-192 11 -349 11 -403 1 -30 -6 -68 -14 -85 -16 -35 -7 -45 -18 -45 -54 0
-47 14 -50 247 -53 230 -4 380 -14 388 -26 2 -4 0 -60 -6 -125 -12 -128 -10
-137 43 -149 24 -5 36 4 113 88 92 99 121 116 203 116 41 0 72 25 72 58 0 7
12 24 28 37 l27 24 -30 25 c-16 14 -57 40 -90 57 -33 18 -85 49 -115 70 -30
20 -71 44 -90 52 -20 8 -56 37 -82 66 -43 47 -64 57 -95 44z"/>
<path d="M10527 11678 c-30 -16 -37 -26 -35 -45 2 -14 15 -32 31 -41 25 -15
30 -16 55 -1 21 12 27 22 25 47 -1 31 -18 63 -32 61 -3 0 -23 -10 -44 -21z"/>
<path d="M11345 11493 c-141 -74 -156 -227 -33 -340 48 -43 200 -123 235 -123
37 0 84 98 58 120 -11 9 -17 6 -30 -13 -13 -21 -21 -24 -43 -17 -62 18 -113
44 -122 61 -17 30 -12 57 13 65 35 11 87 54 103 86 20 39 3 135 -29 160 -28
22 -111 23 -152 1z m105 -72 c12 -23 13 -61 2 -79 -7 -10 -94 -48 -127 -55
-17 -3 -17 70 0 103 26 49 104 69 125 31z"/>
<path d="M10753 11447 l-46 -43 23 -100 c24 -110 37 -142 62 -158 37 -23 45
12 32 146 -4 42 -4 85 0 95 7 17 9 17 26 -4 9 -12 26 -49 36 -83 29 -96 73
-93 95 7 16 71 33 77 76 27 34 -40 113 -184 113 -206 0 -7 5 -30 11 -50 8 -30
15 -38 33 -38 36 0 42 69 11 130 -12 25 -26 56 -30 69 -10 33 -91 149 -128
184 -35 32 -81 36 -96 8 -19 -34 -43 -34 -69 -1 -23 30 -70 60 -92 60 -6 0
-32 -19 -57 -43z"/>
<path d="M10568 11458 c-9 -17 -12 -62 -10 -160 3 -128 4 -137 24 -144 29 -9
59 24 60 67 1 19 0 76 -2 128 -2 76 -6 97 -21 112 -25 25 -36 24 -51 -3z"/>
<path d="M4105 9930 c-6 -10 3 -128 11 -142 3 -4 7 -36 9 -72 4 -49 2 -66 -7
-66 -22 -1 -60 -39 -56 -57 2 -9 19 -28 38 -41 46 -30 59 -63 58 -142 -1 -36
2 -93 6 -128 7 -52 12 -65 37 -83 21 -15 33 -17 47 -10 15 8 18 25 20 108 1
62 -3 120 -13 155 -17 65 -12 91 15 83 10 -3 21 -1 25 5 6 10 -8 35 -59 105
-8 11 -20 54 -26 95 -7 41 -20 90 -31 108 -10 18 -19 39 -19 46 0 13 -31 46
-43 46 -3 0 -9 -5 -12 -10z"/>
<path d="M2738 9863 c-14 -4 -18 -15 -18 -56 1 -29 6 -72 11 -97 6 -25 13 -77
14 -117 2 -42 11 -86 21 -104 13 -27 15 -49 11 -111 l-6 -78 31 -16 c43 -23
122 -20 163 6 18 11 40 36 50 56 15 33 18 34 34 20 10 -9 24 -16 32 -16 9 0
28 -13 44 -30 59 -62 168 -90 219 -57 37 25 48 50 32 73 -12 16 -20 17 -65 8
-37 -8 -58 -7 -73 0 -34 17 -31 30 12 49 56 26 120 93 120 126 0 50 -72 91
-158 91 -60 0 -87 -23 -112 -94 -20 -55 -27 -65 -52 -70 -25 -5 -36 1 -81 47
-29 29 -66 59 -84 66 -40 16 -48 39 -64 174 -10 89 -16 111 -33 123 -11 7 -23
13 -26 13 -3 -1 -13 -3 -22 -6z m517 -343 c6 -9 -50 -50 -68 -50 -10 0 12 42
27 52 16 11 34 10 41 -2z m-357 -57 c30 -25 37 -66 17 -87 -31 -30 -49 -16
-55 42 -7 69 0 77 38 45z"/>
<path d="M2323 9804 c-15 -7 -17 -60 -3 -69 6 -3 10 -21 10 -39 0 -18 4 -46
10 -62 5 -16 21 -103 34 -194 25 -170 38 -215 63 -224 16 -7 56 11 49 22 -2 4
-7 58 -10 120 -4 62 -11 124 -16 137 -5 14 -14 59 -19 102 -10 75 -33 166 -49
190 -9 14 -52 24 -69 17z"/>
<path d="M2523 9754 c-26 -11 24 -94 57 -94 18 0 50 30 50 47 0 14 -62 53 -81
52 -8 0 -19 -3 -26 -5z"/>
<path d="M4351 9722 c-15 -28 33 -91 69 -92 24 0 13 76 -13 95 -28 20 -44 19
-56 -3z"/>
<path d="M1527 9723 c-9 -2 -24 -17 -32 -33 -13 -26 -12 -30 20 -76 19 -27 35
-59 35 -72 0 -13 4 -32 10 -42 5 -10 14 -60 20 -110 10 -88 9 -94 -10 -115
-30 -31 -26 -69 11 -99 17 -14 42 -29 55 -32 53 -13 200 67 234 128 22 39 34
46 46 27 3 -6 19 -9 36 -7 24 4 31 0 44 -27 23 -49 100 -101 160 -109 45 -6
55 -3 97 25 26 17 47 36 47 43 0 7 11 23 25 36 31 30 32 47 1 62 -21 9 -30 6
-63 -21 -20 -17 -43 -31 -49 -31 -7 0 -14 -5 -16 -11 -2 -6 -21 -11 -42 -12
-30 -1 -44 5 -62 27 -13 15 -24 33 -24 40 0 7 28 24 63 36 34 12 81 36 105 53
35 25 42 36 42 64 0 44 -24 79 -63 93 -40 14 -196 25 -231 16 -31 -8 -65 -71
-66 -121 0 -24 -6 -16 -34 46 -55 127 -88 163 -183 203 -59 25 -127 32 -176
19z m194 -134 c15 -10 38 -38 52 -62 56 -95 52 -179 -11 -222 -55 -38 -70 -34
-77 23 -3 26 -13 88 -22 137 -29 170 -30 159 3 151 15 -4 40 -16 55 -27z m403
-93 c28 -7 51 -17 53 -22 3 -8 -91 -40 -137 -47 -23 -3 -24 39 -1 62 24 24 21
24 85 7z m-169 -164 c-1 -1 -10 0 -19 4 -11 4 -16 18 -15 43 l0 36 18 -40 c10
-22 17 -41 16 -43z"/>
<path d="M3478 9640 c-9 -6 -26 -26 -39 -46 -21 -34 -22 -44 -16 -156 7 -124
15 -151 51 -180 22 -18 61 -24 69 -10 3 4 -2 63 -11 132 -19 151 -14 180 29
180 16 0 50 -5 74 -11 63 -16 70 -9 38 33 -43 57 -145 87 -195 58z"/>
<path d="M3795 9549 c-54 -28 -70 -44 -100 -96 -29 -48 -27 -72 9 -112 33 -36
60 -42 108 -25 23 8 51 22 61 32 18 16 20 16 33 -3 8 -10 14 -23 14 -28 0 -21
91 -125 115 -131 53 -13 61 25 15 69 -16 16 -30 35 -30 42 0 7 -10 29 -21 50
-49 86 -61 115 -66 154 -5 35 -11 43 -39 55 -44 18 -52 18 -99 -7z"/>
<path d="M5015 9534 c-14 -15 -25 -31 -25 -37 0 -5 -7 -6 -16 -3 -9 4 -26 4
-36 0 -18 -5 -19 -12 -13 -72 10 -96 45 -162 86 -162 21 0 39 47 39 102 0 54
24 108 49 108 18 0 29 -12 69 -75 22 -36 52 -132 52 -169 0 -33 27 -58 59 -54
39 5 38 43 -3 134 -20 42 -36 83 -36 91 0 30 -45 90 -93 126 -62 45 -98 48
-132 11z"/>
<path d="M4671 9519 c-26 -25 -51 -78 -51 -110 0 -75 126 -152 211 -129 46 13
73 50 64 91 -9 38 -74 121 -118 148 -44 27 -77 27 -106 0z m113 -90 c46 -36
28 -79 -27 -65 -30 7 -52 52 -36 72 16 19 32 18 63 -7z"/>
<path d="M4378 9506 c-16 -12 -16 -19 2 -122 24 -133 36 -163 66 -170 39 -10
52 9 43 64 -4 26 -13 80 -20 120 -12 72 -38 122 -62 122 -7 0 -20 -6 -29 -14z"/>
<path d="M2561 9483 c-23 -58 23 -198 65 -198 16 0 19 8 20 50 0 28 4 63 7 77
8 29 -7 78 -26 90 -26 17 -55 8 -66 -19z"/>
<path d="M1401 9083 c-37 -36 -111 -136 -111 -152 0 -4 -25 -40 -55 -80 -30
-40 -59 -89 -65 -110 -6 -21 -17 -44 -25 -51 -8 -7 -24 -32 -35 -57 -10 -24
-29 -57 -41 -74 -11 -17 -35 -57 -51 -89 -33 -68 -24 -68 -131 4 -38 25 -74
46 -82 46 -23 0 -38 -28 -31 -62 3 -18 6 -40 5 -48 0 -8 0 -44 2 -80 3 -76 2
-89 -6 -235 l-7 -110 37 -47 c47 -60 81 -64 117 -17 48 65 90 98 175 139 48
23 102 52 118 64 17 13 45 31 63 40 56 29 35 74 -44 95 -23 6 -47 17 -53 25
-7 8 -32 24 -57 35 l-45 22 19 27 c10 15 42 77 72 137 96 197 113 229 152 286
21 31 38 59 38 63 0 4 34 53 75 111 41 57 75 108 75 113 0 13 -20 28 -47 36
-16 5 -31 -2 -62 -31z"/>
<path d="M10525 8677 c-15 -12 -17 -23 -13 -73 3 -32 17 -84 30 -114 14 -30
30 -77 37 -105 11 -46 30 -96 50 -135 5 -8 17 -15 27 -15 25 0 31 64 10 106
-9 17 -13 35 -11 40 3 4 -8 50 -24 101 -17 51 -33 113 -37 138 -10 68 -30 85
-69 57z"/>
<path d="M5865 8463 c-39 -5 -151 -48 -193 -73 -42 -26 -48 -43 -29 -83 41
-87 56 -158 58 -275 3 -127 15 -166 52 -160 31 5 49 77 43 171 -4 79 2 95 21
54 19 -40 124 -147 172 -174 25 -15 53 -32 61 -39 26 -22 65 -27 79 -10 21 25
3 53 -57 90 -55 33 -134 108 -181 171 -21 28 -21 30 -4 36 10 4 32 8 48 8 41
1 91 48 104 98 10 36 8 47 -15 97 -19 43 -34 60 -58 70 -47 19 -67 23 -101 19z
m79 -99 c21 -21 20 -47 -3 -75 -16 -20 -27 -23 -97 -23 -77 -1 -79 0 -82 24
-3 23 4 29 55 52 94 43 105 45 127 22z"/>
<path d="M6895 8460 c-75 -11 -147 -46 -194 -94 -42 -43 -42 -43 -28 -77 18
-44 40 -63 114 -98 72 -35 136 -92 127 -114 -6 -17 -40 -32 -103 -46 -34 -7
-51 -6 -72 5 -35 18 -53 18 -68 0 -10 -11 -9 -21 3 -44 28 -54 105 -68 207
-39 68 20 109 60 115 113 4 33 1 43 -25 69 -35 35 -112 97 -160 128 -19 12
-36 27 -38 32 -4 14 72 62 111 70 110 23 125 34 104 80 -12 26 -14 27 -93 15z"/>
<path d="M7389 8446 c-8 -8 -132 -27 -232 -36 -139 -12 -179 -43 -120 -90 21
-16 35 -20 58 -15 16 4 50 7 75 8 l45 2 -1 -125 c-1 -69 -5 -147 -9 -175 -6
-45 -5 -52 18 -73 21 -20 29 -22 46 -13 12 7 21 17 22 24 0 7 3 28 7 47 4 19
7 101 7 182 l0 146 50 11 c28 6 61 12 75 13 17 2 28 12 35 32 8 24 6 31 -14
47 -22 18 -52 25 -62 15z"/>
<path d="M2631 8396 c-67 -31 -90 -49 -91 -68 0 -4 15 -23 34 -42 32 -32 35
-40 41 -113 14 -205 15 -201 -5 -226 -48 -61 -24 -125 54 -147 59 -16 95 -9
159 34 80 53 113 91 143 164 23 54 28 82 28 147 1 74 -2 83 -32 127 -45 64
-117 126 -161 137 -87 22 -94 22 -170 -13z m201 -108 c27 -18 48 -40 48 -48 0
-8 7 -24 15 -34 20 -26 18 -101 -4 -155 -20 -50 -86 -122 -133 -145 -17 -9
-32 -16 -33 -16 -1 0 -5 90 -9 201 -4 110 -10 207 -13 215 -4 11 5 14 38 14
33 0 56 -8 91 -32z"/>
<path d="M6135 8380 c-17 -19 -17 -21 8 -78 36 -79 44 -134 23 -163 -21 -30
-20 -32 8 -66 16 -19 26 -48 31 -84 8 -67 9 -68 60 -102 44 -30 80 -33 185
-16 77 12 114 39 89 64 -22 22 -95 32 -163 22 -33 -5 -62 -5 -67 0 -5 5 -12
29 -15 53 l-6 45 74 18 c41 10 82 15 93 11 16 -6 17 -4 11 22 -4 16 -15 37
-24 48 -17 18 -40 18 -129 0 -30 -6 -32 -4 -42 32 -6 22 -11 51 -11 65 0 26 2
27 78 33 120 11 130 18 96 71 -17 26 -35 30 -190 40 -82 5 -92 4 -109 -15z"/>
<path d="M10330 8368 c-53 -36 -100 -104 -100 -145 0 -29 8 -43 43 -74 23 -22
51 -42 62 -45 12 -3 26 -14 33 -24 11 -17 8 -20 -26 -29 -20 -5 -48 -11 -61
-13 -13 -2 -29 -11 -35 -20 -16 -26 13 -49 75 -59 44 -7 58 -5 89 12 42 24 70
65 70 103 0 18 -13 35 -46 61 -26 19 -52 35 -58 35 -21 1 -56 38 -56 59 0 14
19 36 55 64 44 34 55 47 53 67 -4 35 -52 39 -98 8z"/>
<path d="M9946 8347 c-27 -20 -13 -47 42 -84 26 -18 51 -33 55 -33 13 0 7 29
-14 67 -38 68 -49 75 -83 50z"/>
<path d="M4336 8324 c-26 -25 -21 -34 41 -82 24 -19 47 -30 56 -26 14 5 14 11
-3 47 -10 23 -21 50 -24 60 -7 22 -49 23 -70 1z"/>
<path d="M9432 8274 c-45 -19 -39 -43 18 -71 25 -12 50 -22 57 -22 20 -1 26
38 9 64 -25 38 -47 45 -84 29z"/>
<path d="M9810 8272 c-39 -19 -100 -94 -100 -123 0 -18 35 -47 119 -99 23 -13
41 -30 41 -37 0 -19 -42 -43 -91 -51 -40 -7 -44 -10 -44 -35 0 -20 8 -33 27
-44 23 -15 31 -15 70 -3 24 8 62 32 86 54 33 30 42 45 42 72 0 29 -9 40 -70
90 -38 32 -70 62 -70 67 0 12 42 46 58 47 21 0 37 47 22 65 -16 20 -47 19 -90
-3z"/>
<path d="M3792 8267 c-29 -13 -28 -23 7 -58 24 -24 34 -27 53 -20 16 6 22 16
20 32 -5 44 -40 64 -80 46z"/>
<path d="M8951 8258 c-25 -12 -75 -51 -113 -86 -67 -64 -98 -106 -139 -192
-20 -43 -20 -47 -5 -95 21 -67 60 -125 102 -153 67 -44 181 -20 292 63 81 61
91 92 27 87 -22 -2 -60 -14 -85 -27 -77 -40 -132 -53 -174 -41 -68 20 -97 107
-60 179 34 65 180 187 225 187 28 0 41 64 17 88 -17 17 -37 15 -87 -10z"/>
<path d="M5292 8234 c-29 -20 -28 -41 3 -87 32 -46 56 -47 80 -4 24 46 15 82
-26 96 -18 6 -33 11 -33 11 -1 0 -12 -7 -24 -16z"/>
<path d="M3225 8211 c-48 -12 -71 -28 -119 -83 -73 -84 -74 -150 -3 -195 93
-59 246 -88 280 -54 15 15 -13 44 -63 66 -22 10 -40 21 -40 25 0 4 23 17 50
30 31 15 59 36 71 56 l20 33 -21 48 c-11 27 -29 54 -39 60 -25 16 -100 23
-136 14z m80 -101 c0 -19 -94 -65 -107 -52 -14 14 11 50 42 61 34 13 65 9 65
-9z"/>
<path d="M4185 8189 c-49 -13 -105 -71 -105 -108 0 -50 71 -150 108 -151 6 0
12 -4 12 -9 0 -13 -58 -31 -101 -31 -33 0 -40 -4 -45 -25 -13 -54 51 -81 141
-60 73 17 85 28 85 82 0 41 -23 80 -56 94 -5 2 -21 20 -36 40 l-27 36 22 21
c14 13 39 22 67 24 l45 3 3 43 c2 29 -1 42 -10 43 -7 0 -26 2 -43 3 -16 2 -44
-1 -60 -5z"/>
<path d="M9330 8182 c-78 -10 -107 -37 -144 -134 -17 -47 -17 -48 2 -75 11
-16 25 -47 32 -70 15 -50 43 -83 71 -83 29 0 32 20 15 103 -9 42 -16 96 -16
120 0 40 2 44 35 56 20 7 50 11 68 9 24 -2 33 1 35 15 7 35 -45 67 -98 59z"/>
<path d="M3593 8157 c-119 -82 -122 -209 -6 -290 53 -38 130 -48 169 -22 26
17 26 17 6 37 -11 11 -44 28 -73 38 -68 22 -94 58 -79 111 8 30 17 38 49 48
22 6 49 19 61 29 18 15 20 21 11 45 -9 24 -15 27 -58 26 -32 0 -58 -7 -80 -22z"/>
<path d="M10055 8168 c-11 -6 -23 -16 -27 -21 -9 -14 2 -76 19 -110 8 -15 13
-36 11 -46 -4 -23 19 -51 41 -51 47 0 54 64 16 160 -30 77 -34 82 -60 68z"/>
<path d="M4614 8111 c-37 -23 -50 -39 -58 -76 -22 -93 -27 -105 -46 -105 -26
0 -25 -12 3 -38 52 -49 168 -69 215 -36 12 8 31 33 42 54 36 70 21 133 -40
178 -49 37 -83 43 -116 23z m80 -107 c11 -30 -4 -64 -30 -64 -19 0 -24 5 -24
24 0 24 23 56 40 56 4 0 11 -7 14 -16z"/>
<path d="M4388 8109 c-22 -12 -23 -65 -5 -164 21 -107 45 -138 77 -100 19 23
9 215 -14 249 -18 28 -31 31 -58 15z"/>
<path d="M9532 8102 c-19 -13 -18 -42 2 -108 10 -33 21 -70 25 -84 5 -19 14
-26 37 -28 43 -4 48 21 23 106 -32 107 -54 135 -87 114z"/>
<path d="M3899 8084 c-18 -22 -15 -95 6 -169 16 -53 36 -75 69 -75 24 0 29 93
8 180 -16 67 -20 75 -43 78 -15 2 -32 -4 -40 -14z"/>
<path d="M10692 8060 c-23 -37 -18 -65 14 -87 35 -23 70 -10 78 28 7 37 -2 79
-18 79 -6 0 -21 3 -33 6 -17 5 -26 -1 -41 -26z"/>
<path d="M4845 8048 c-27 -32 -27 -36 -22 -118 6 -76 9 -87 33 -108 29 -25 42
-25 58 1 8 12 6 28 -5 59 -20 56 -12 93 21 93 19 0 31 -12 57 -58 17 -31 39
-85 48 -119 17 -66 28 -80 60 -76 17 3 20 10 20 53 -1 31 -9 65 -22 90 -35 66
-51 98 -63 132 -14 38 -84 83 -128 83 -22 0 -38 -9 -57 -32z"/>
<path d="M5284 7926 c-11 -29 1 -61 29 -74 25 -12 31 -12 48 4 19 17 24 40 13
68 -8 21 -82 22 -90 2z"/>
<path d="M197 7713 c-39 -16 -54 -45 -44 -86 3 -12 10 -40 15 -62 24 -96 36
-199 38 -320 1 -71 4 -254 7 -405 5 -344 17 -393 92 -374 18 4 25 2 25 -9 0
-8 8 -18 18 -23 9 -4 131 -9 270 -11 144 -2 261 -7 272 -13 10 -5 30 -10 44
-10 22 0 25 -5 30 -52 2 -29 12 -123 20 -208 9 -85 18 -177 21 -205 2 -27 9
-72 14 -100 10 -57 5 -252 -7 -286 -5 -12 -5 -41 -1 -63 4 -22 3 -48 -2 -58
-5 -9 -9 -42 -9 -72 0 -48 4 -60 32 -92 l32 -36 91 5 c49 4 117 8 150 11 86 7
90 7 300 8 528 2 707 1 890 -5 487 -15 611 -19 780 -20 189 -1 647 17 661 26
5 3 119 8 254 11 325 8 482 15 555 26 81 12 327 23 570 25 258 2 778 16 787
21 3 2 17 0 31 -5 15 -6 66 -6 133 0 196 17 1014 13 1026 -5 4 -6 8 -34 8 -61
0 -28 11 -84 24 -126 19 -60 27 -116 36 -265 13 -226 13 -219 6 -366 -5 -106
-4 -120 15 -152 17 -30 28 -36 67 -42 26 -3 52 -11 59 -16 13 -11 151 -9 243
2 36 5 120 11 187 14 l122 6 0 -68 c-2 -117 9 -273 26 -397 25 -176 33 -296
24 -330 -13 -45 -11 -222 2 -231 7 -4 9 -24 5 -55 -8 -59 11 -109 57 -154 39
-38 78 -45 190 -34 45 4 102 4 135 -2 31 -5 145 -9 252 -9 208 1 216 2 530 19
113 7 244 11 291 11 47 -1 98 4 115 10 16 7 110 14 208 16 176 5 187 4 248
-27 22 -11 621 -9 711 2 83 11 184 11 557 2 438 -11 1256 -8 1320 5 30 6 74
15 97 20 33 7 45 6 55 -5 9 -11 40 -14 147 -12 196 3 715 -6 727 -13 5 -3 113
-2 239 3 469 19 525 21 745 25 214 4 509 5 650 1 36 -1 108 2 160 7 52 4 174
7 272 6 121 -1 178 2 183 10 4 6 14 8 24 5 9 -4 97 -11 196 -15 154 -7 289 -3
530 14 28 2 100 -1 160 -5 302 -24 349 -25 425 -11 41 7 99 13 128 12 41 -1
52 2 52 15 0 20 30 19 45 -2 9 -12 32 -17 101 -20 49 -1 112 -8 141 -14 56
-11 83 -11 623 -10 287 0 375 4 525 22 99 11 227 25 285 30 58 4 132 12 165
17 51 7 547 7 672 0 29 -2 48 3 62 16 19 18 20 30 21 395 0 207 1 392 1 411 1
19 -1 152 -3 295 -5 283 -6 291 -67 334 -24 18 -42 18 -251 13 -468 -13 -1367
-8 -1515 9 -63 7 -135 7 -240 -1 -189 -13 -281 -17 -635 -26 -157 -4 -316 -8
-355 -9 -38 -2 -185 -3 -325 -4 -439 0 -462 -1 -598 -12 -122 -10 -706 -7
-850 5 -191 15 -370 9 -597 -21 -62 -8 -276 -21 -425 -26 -85 -3 -169 -10
-186 -15 -17 -5 -116 -10 -219 -11 -104 -1 -193 -5 -199 -9 -16 -10 -550 -3
-637 8 -70 10 -107 8 -434 -16 -22 -1 -58 -8 -80 -13 -65 -18 -427 -35 -745
-36 -212 0 -334 -5 -435 -17 -115 -14 -316 -30 -360 -29 -86 3 -714 13 -780
12 -49 -1 -115 -6 -145 -13 -59 -13 -1391 -16 -1545 -3 -44 3 -140 1 -214 -4
-96 -8 -138 -8 -147 0 -10 9 -14 60 -14 220 0 274 -9 501 -22 569 -7 30 -13
107 -14 170 -1 63 -3 121 -3 128 -1 18 -43 31 -64 20 -14 -7 -22 -5 -31 7 -11
15 -44 17 -308 18 l-296 2 -5 50 c-8 84 -27 204 -37 229 -25 67 -63 487 -48
541 4 16 8 69 8 118 0 103 -5 107 -83 84 -41 -13 -95 -16 -252 -15 -191 1
-401 -15 -577 -44 -64 -10 -704 -4 -753 8 -11 2 -78 6 -150 9 -71 2 -195 7
-275 10 -80 3 -201 7 -270 9 -69 1 -179 8 -245 15 -200 21 -834 18 -1085 -4
-25 -3 -234 -7 -465 -10 -231 -3 -451 -9 -490 -14 -38 -5 -83 -9 -100 -9 -362
-2 -522 0 -575 8 -36 6 -265 13 -510 16 -245 2 -449 9 -453 13 -14 14 -36 185
-41 321 -2 69 -7 141 -10 160 -3 19 -10 87 -15 150 -5 63 -13 138 -17 167 -5
38 -2 63 10 93 9 23 19 68 23 100 5 54 3 61 -32 119 -43 70 -49 71 -170 47
-91 -19 -183 -14 -425 24 -89 13 -138 12 -183 -7z m208 -123 c54 -15 207 -25
348 -21 l139 3 -5 -54 c-2 -29 -9 -70 -15 -90 -6 -24 -6 -65 0 -120 5 -46 11
-126 13 -178 11 -272 27 -475 43 -550 l8 -35 -281 -1 c-154 -1 -289 -3 -300
-5 -22 -4 -21 -23 -24 539 -1 153 -6 265 -16 325 -8 50 -13 93 -11 95 3 2 -2
22 -10 44 -23 67 -21 71 34 64 26 -4 61 -11 77 -16z m4330 -1155 c22 -2 60 -8
85 -13 25 -6 172 -11 328 -11 155 0 286 -2 291 -5 6 -4 104 -6 261 -5 8 0 38
-5 65 -11 83 -18 551 -21 674 -4 233 33 385 45 571 46 108 0 206 -3 219 -7 21
-6 21 -8 7 -24 -19 -21 -22 -80 -7 -141 6 -25 11 -68 11 -97 0 -29 5 -74 10
-100 6 -26 17 -106 25 -178 15 -134 29 -224 46 -310 18 -87 17 -88 -21 -97
-19 -5 -106 -9 -193 -9 -136 0 -156 -3 -146 -15 19 -23 -50 -18 -75 5 -27 25
-123 28 -661 18 -745 -13 -897 -17 -906 -23 -6 -3 -5 -11 2 -20 9 -11 7 -14
-9 -14 -24 0 -38 16 -20 23 54 19 -100 26 -262 12 -58 -5 -118 -8 -135 -7 -16
1 -66 -3 -110 -9 -44 -5 -116 -12 -160 -13 -322 -13 -404 -20 -455 -36 -71
-23 -231 -38 -475 -47 -344 -11 -899 -3 -1345 19 -129 7 -244 12 -255 11 -11
0 -204 -3 -430 -6 -225 -4 -443 -9 -484 -13 l-73 -7 6 49 c29 216 23 366 -25
694 -22 156 -25 293 -6 307 18 13 921 9 977 -5 65 -16 541 -5 739 17 46 5 96
5 110 1 43 -12 1030 15 1091 30 30 8 614 3 735 -5z m3035 -1030 c63 0 145 4
181 9 l66 8 6 -72 c3 -39 11 -78 17 -86 8 -9 13 -84 16 -216 7 -355 8 -607 4
-611 -3 -3 -57 -7 -120 -11 -63 -3 -179 -10 -256 -15 -78 -5 -153 -6 -167 -4
-16 3 -34 18 -46 39 -19 32 -20 44 -12 216 4 101 4 217 0 258 -8 81 -41 248
-58 293 -12 32 -15 146 -3 163 17 27 105 43 192 35 36 -3 117 -6 180 -6z
m10666 -880 c157 -2 289 -7 294 -10 7 -4 673 -9 705 -5 86 11 587 11 599 0 5
-5 9 -270 10 -615 l1 -606 -80 0 c-249 0 -594 -11 -620 -19 -16 -5 -75 -12
-130 -14 -55 -3 -115 -10 -134 -15 -55 -17 -227 -26 -235 -12 -9 14 -103 15
-112 0 -4 -6 -17 -8 -33 -3 -14 4 -58 8 -98 9 -58 3 -75 0 -88 -15 -13 -15
-21 -16 -45 -7 -21 8 -39 8 -62 1 -40 -12 -285 -9 -428 6 -57 6 -120 8 -140 4
-19 -4 -145 -8 -280 -9 -135 -1 -272 -5 -306 -9 -42 -6 -104 -3 -200 9 -116
15 -171 16 -329 9 -206 -9 -882 -8 -981 2 -34 3 -124 -1 -200 -9 -96 -11 -172
-14 -245 -9 -58 4 -124 4 -145 1 -21 -4 -142 -7 -269 -8 -126 0 -372 -6 -545
-12 -364 -13 -459 -14 -895 -4 -369 8 -417 10 -502 25 -51 9 -70 8 -108 -4
-25 -9 -72 -16 -104 -16 -32 0 -71 -4 -87 -10 -16 -5 -117 -12 -224 -15 -107
-3 -206 -5 -220 -6 -68 -3 -549 12 -645 20 -105 8 -618 6 -965 -4 -265 -7
-287 -6 -471 24 -64 11 -328 6 -419 -8 -107 -16 -363 -28 -778 -35 -195 -4
-285 -1 -348 9 -58 9 -94 11 -113 4 -15 -5 -74 -8 -131 -7 l-104 3 -10 35
c-10 35 -13 113 -17 380 -1 80 -8 188 -15 240 -8 52 -18 154 -24 225 -5 72
-12 151 -16 177 l-6 47 59 1 c468 5 835 10 903 11 47 0 279 0 515 -1 296 -2
443 1 472 9 23 6 59 11 80 11 21 -1 115 -1 208 0 94 0 287 0 430 0 259 -2 519
11 669 31 43 5 214 12 380 13 381 4 588 14 696 33 127 22 220 33 270 31 25 -1
59 0 75 1 58 6 201 4 310 -4 217 -16 657 -9 905 15 58 5 159 12 225 15 136 5
415 29 520 44 70 10 336 7 770 -9 245 -8 505 -6 750 8 83 5 184 6 226 3 42 -3
188 -3 325 1 137 4 346 10 464 12 199 5 285 9 480 20 90 6 114 7 159 5 18 0
38 4 45 11 6 7 24 9 44 5 19 -3 162 -8 318 -10z"/>
<path d="M3010 6223 c-14 -3 -29 -9 -34 -14 -6 -5 -16 -9 -24 -9 -34 0 -76
-95 -55 -123 13 -16 33 -98 33 -136 0 -17 4 -31 10 -31 5 0 10 -15 9 -32 0
-18 1 -89 3 -157 4 -116 6 -124 29 -142 13 -10 30 -19 36 -19 20 0 40 41 47
98 4 29 9 59 12 67 6 16 40 21 46 7 4 -10 102 -76 170 -115 48 -28 118 -40
124 -22 6 16 -79 103 -138 144 -106 72 -137 96 -137 106 0 6 29 33 64 60 104
81 125 135 86 220 -22 48 -44 69 -94 90 -34 14 -129 18 -187 8z m181 -124 c5
-8 12 -25 15 -38 7 -24 6 -24 -91 -110 -28 -25 -55 -33 -59 -18 -21 78 -37
159 -33 164 24 24 153 25 168 2z"/>
<path d="M4525 6211 c-93 -12 -123 -54 -62 -91 25 -16 50 -20 114 -20 l82 0 5
-42 c4 -24 8 -126 9 -226 4 -200 5 -205 62 -200 26 3 31 8 42 48 18 72 13 235
-13 381 l-6 36 69 -4 c88 -7 139 8 147 43 9 35 -10 64 -42 65 -15 1 -38 3 -52
4 -92 8 -313 12 -355 6z"/>
<path d="M3398 6191 c-23 -16 -22 -29 13 -151 56 -200 70 -261 74 -340 4 -65
9 -88 22 -97 23 -18 63 -16 84 3 14 13 24 14 56 5 21 -6 88 -11 149 -11 97 0
113 2 128 19 10 11 15 24 12 29 -10 17 -92 40 -179 52 -45 6 -97 14 -115 16
-36 6 -48 25 -54 90 l-3 39 88 12 c48 6 94 14 102 17 22 8 18 29 -9 55 -20 18
-39 23 -116 28 l-92 6 -19 41 c-30 66 -26 76 26 76 50 0 173 27 193 43 16 13
15 52 -2 66 -21 18 -333 20 -358 2z"/>
<path d="M4143 6171 c-117 -30 -191 -100 -178 -170 11 -56 40 -87 153 -161 98
-63 172 -124 172 -142 0 -4 -14 -15 -32 -24 -35 -18 -102 -14 -162 11 -73 31
-131 10 -108 -39 7 -16 36 -35 89 -57 124 -54 237 -43 292 27 25 32 26 57 3
104 -43 88 -69 115 -158 168 -38 23 -89 59 -114 81 -40 35 -43 41 -30 54 25
24 79 37 151 37 48 0 72 5 83 16 23 23 20 61 -6 78 -29 19 -113 28 -155 17z"/>
<path d="M14030 4133 c-76 -17 -84 -27 -71 -99 19 -105 41 -376 35 -423 -7
-51 9 -76 43 -69 27 5 40 43 48 138 l7 88 71 11 c40 6 99 13 131 16 33 3 61 7
63 9 10 10 -12 58 -31 68 -12 7 -68 12 -138 12 -133 0 -122 -7 -133 93 -5 49
-4 64 7 67 7 3 57 7 112 9 100 5 119 13 113 47 -7 41 -144 58 -257 33z"/>
<path d="M13155 4120 c-27 -10 -59 -30 -69 -43 -19 -25 -19 -26 0 -53 45 -63
45 -65 39 -182 -4 -62 -11 -136 -17 -165 -26 -135 4 -204 74 -166 12 7 34 13
48 15 14 1 52 10 85 19 50 13 68 25 108 67 38 43 47 58 47 89 0 47 -49 114
-102 142 -46 23 -47 32 -9 51 16 9 45 34 65 58 44 51 47 89 11 122 -26 24 -44
31 -125 45 -25 5 -58 11 -75 14 -18 4 -50 -1 -80 -13z m202 -107 c4 -10 -2
-23 -18 -36 -34 -28 -117 -68 -122 -59 -2 4 -5 31 -5 60 l-1 52 70 0 c56 0 71
-3 76 -17z m-47 -249 c46 -9 70 -31 70 -65 0 -43 -44 -69 -119 -69 -69 0 -67
-4 -54 98 7 60 -3 57 103 36z"/>
<path d="M13580 4120 c-9 -17 -8 -31 4 -68 33 -103 37 -130 24 -151 -10 -16
-10 -27 0 -54 7 -18 12 -81 12 -139 0 -90 3 -109 19 -129 l20 -24 20 20 c17
17 21 38 27 133 l7 113 31 -8 c41 -11 156 -5 172 8 8 7 10 18 5 31 -9 24 -104
58 -163 58 -45 0 -65 24 -70 85 l-3 40 63 7 c34 4 77 14 94 22 17 9 40 16 50
16 15 0 19 6 16 28 -3 30 6 28 -168 21 -25 0 -68 2 -97 6 -46 7 -52 5 -63 -15z"/>
<path d="M8570 7650 c-11 -11 -23 -32 -26 -47 -4 -16 -26 -73 -49 -128 -23
-55 -48 -116 -54 -136 -9 -30 -44 -97 -97 -190 -6 -11 -21 -30 -33 -43 -11
-12 -21 -29 -21 -37 0 -9 -13 -28 -30 -44 -16 -16 -30 -34 -30 -40 0 -11 -70
-134 -125 -220 -18 -28 -49 -89 -69 -135 -20 -47 -48 -102 -61 -122 -14 -21
-25 -40 -25 -44 0 -3 -13 -23 -28 -43 -16 -20 -47 -71 -70 -113 -23 -43 -53
-94 -67 -113 l-24 -36 -24 38 c-13 21 -31 52 -40 69 -24 47 -41 58 -66 42 -12
-7 -21 -20 -21 -29 0 -9 -11 -47 -25 -85 -14 -38 -32 -100 -40 -139 -33 -165
-41 -195 -52 -207 -33 -32 3 -72 74 -84 31 -5 53 1 122 35 46 22 100 44 120
47 20 4 50 17 67 30 28 22 31 23 47 6 24 -23 45 -8 64 47 18 53 11 87 -20 95
-13 3 -40 18 -59 33 -20 16 -44 33 -54 39 -20 11 -23 4 54 129 6 11 19 34 28
50 9 17 31 53 49 80 34 53 126 219 135 245 11 33 93 180 149 270 33 52 77 124
97 159 20 35 48 80 61 100 39 57 88 160 113 236 12 39 30 88 40 110 65 143 69
162 48 183 -17 17 -35 15 -58 -8z"/>
<path d="M2504 7519 c-29 -11 -63 -30 -76 -42 -50 -45 -104 -84 -125 -91 -12
-4 -34 -20 -50 -35 -31 -32 -114 -81 -136 -81 -38 0 -193 -103 -233 -155 -37
-49 -116 -106 -229 -164 l-100 -52 -17 22 c-10 12 -18 29 -18 38 0 23 -41 61
-66 61 -29 0 -47 -17 -89 -85 -21 -33 -64 -87 -96 -120 -104 -108 -119 -142
-84 -192 14 -20 21 -21 123 -16 68 3 129 1 167 -7 106 -22 134 -23 160 -6 33
22 33 62 0 126 -29 58 -32 88 -7 96 98 33 180 89 323 218 32 30 118 85 206
133 83 46 156 90 163 98 7 8 31 24 54 34 22 10 73 46 111 79 39 34 89 78 113
98 33 29 40 40 31 50 -16 19 -65 17 -125 -7z"/>
<path d="M12409 6819 c-9 -18 -7 -29 9 -58 22 -41 55 -171 50 -198 -2 -14 -15
-19 -53 -23 -41 -4 -52 -10 -65 -32 -21 -38 -5 -50 77 -57 l68 -6 12 -103 c13
-110 22 -132 58 -132 40 0 48 21 36 99 -22 142 -9 181 61 181 17 0 28 5 28 13
0 23 -35 47 -66 47 -41 0 -58 17 -73 70 -32 117 -47 157 -69 188 -28 37 -56
41 -73 11z"/>
<path d="M12721 6734 c-30 -22 -26 -46 14 -71 64 -42 93 -20 53 41 -28 44 -40
49 -67 30z"/>
<path d="M13357 6729 c-36 -27 -64 -84 -71 -141 -3 -25 -8 -53 -12 -61 -8 -22
22 -119 47 -151 15 -20 29 -26 48 -24 24 3 26 6 25 53 -1 28 -7 81 -15 118
-16 82 -4 116 49 131 29 8 37 5 69 -21 51 -41 104 -141 112 -211 5 -50 9 -56
33 -63 39 -10 51 10 46 76 -9 102 -95 238 -190 298 -38 24 -106 21 -141 -4z"/>
<path d="M10892 6658 c-7 -7 -12 -22 -12 -34 0 -22 80 -259 102 -301 6 -13 9
-26 6 -29 -4 -3 3 -31 13 -62 12 -34 18 -69 14 -87 -3 -20 0 -38 10 -50 8 -11
15 -27 15 -36 0 -9 8 -23 18 -31 22 -20 55 -8 62 23 5 20 13 25 49 27 47 4
114 40 130 71 17 30 2 77 -38 119 -51 55 -83 71 -150 78 -53 6 -61 10 -69 33
-5 14 -17 49 -26 76 -10 28 -26 78 -36 111 -10 34 -23 71 -29 83 -13 23 -40
28 -59 9z m279 -413 c44 -23 50 -29 47 -53 -2 -20 -9 -28 -28 -30 -14 -2 -30
-8 -37 -14 -17 -14 -53 8 -53 33 0 11 -5 29 -11 40 -13 25 -5 49 16 49 9 0 38
-11 66 -25z"/>
<path d="M13034 6598 c-33 -35 -43 -61 -50 -122 -4 -31 -11 -59 -15 -62 -5 -3
-9 -18 -9 -35 0 -65 100 -85 192 -37 38 20 108 90 108 109 0 14 -29 69 -51 97
-31 40 -63 60 -109 67 -39 6 -48 3 -66 -17z m115 -83 c17 -20 31 -42 31 -50 0
-12 -82 -75 -98 -75 -13 0 -7 126 7 143 19 24 25 22 60 -18z"/>
<path d="M12796 6544 c-23 -23 -21 -48 14 -197 13 -51 43 -78 64 -57 23 23 -1
216 -32 253 -19 21 -26 21 -46 1z"/>
<path d="M12093 6460 c-66 -32 -86 -48 -112 -86 -54 -83 -51 -146 11 -184 37
-22 82 -25 115 -7 25 14 80 80 88 108 9 29 21 23 53 -24 33 -48 116 -127 132
-127 22 0 50 21 50 37 0 9 -21 37 -47 63 -27 25 -59 63 -73 84 -14 21 -35 50
-48 67 -14 16 -22 39 -20 52 4 30 -18 57 -46 57 -12 0 -58 -18 -103 -40z m37
-100 c0 -36 -59 -109 -87 -110 -20 0 -15 45 8 74 28 36 79 58 79 36z"/>
<path d="M11744 6472 c-38 -32 -52 -67 -59 -141 -5 -62 -3 -78 14 -106 10 -18
22 -47 26 -64 9 -41 46 -67 74 -51 26 13 26 13 1 78 -25 66 -28 193 -5 212 9
7 36 11 63 10 118 -6 130 -2 86 32 -55 44 -164 60 -200 30z"/>
<path d="M10508 6433 c-36 -9 -28 -48 46 -234 102 -257 108 -268 149 -247 18
9 23 53 7 63 -5 3 -10 16 -10 28 0 12 -8 36 -18 52 -11 17 -22 48 -26 69 -4
21 -25 79 -47 129 -68 154 -65 150 -101 140z"/>
<path d="M10722 6420 c-28 -26 -28 -45 0 -64 52 -37 91 -2 58 52 -23 38 -29
39 -58 12z"/>
<path d="M11391 6424 c-32 -23 -71 -110 -70 -159 0 -48 20 -109 46 -137 24
-28 97 -58 138 -58 44 0 90 20 148 66 22 18 26 27 21 53 -4 17 -12 31 -19 31
-7 0 -36 -15 -64 -34 -40 -27 -59 -34 -90 -31 -79 5 -79 21 -1 69 84 52 98 86
61 147 -25 41 -48 56 -101 64 -34 4 -51 2 -69 -11z m90 -75 c17 -17 18 -23 7
-36 -11 -14 -67 -43 -83 -43 -10 0 -5 30 12 65 19 40 34 44 64 14z"/>
<path d="M9736 6408 c-21 -30 -20 -44 5 -61 27 -20 73 -192 100 -382 15 -106
14 -103 46 -111 15 -4 37 -14 48 -24 91 -79 246 64 246 227 0 98 -66 249 -136
311 -55 49 -100 62 -208 62 -77 0 -87 -2 -101 -22z m211 -79 c37 -14 68 -43
108 -104 43 -65 55 -96 55 -149 0 -60 -22 -106 -70 -150 -40 -36 -60 -39 -60
-9 0 9 -6 13 -15 9 -18 -6 -30 15 -39 69 -4 22 -23 104 -42 182 -19 79 -34
147 -34 153 0 13 61 13 97 -1z"/>
<path d="M10753 6240 l-23 -9 19 -33 c11 -18 26 -65 34 -104 17 -82 30 -109
58 -125 16 -8 25 -7 41 7 16 15 18 26 13 60 -9 62 -50 169 -74 193 -23 23 -34
25 -68 11z"/>
<path d="M10364 6201 c-36 -9 -94 -50 -94 -67 0 -6 -6 -17 -14 -23 -8 -7 -17
-38 -21 -69 -5 -46 -2 -65 15 -99 22 -46 48 -64 122 -82 41 -10 54 -8 100 9
29 11 64 20 78 20 42 0 52 12 37 43 -10 24 -18 27 -59 27 -26 0 -67 -5 -90
-11 -43 -11 -98 -1 -98 18 0 5 25 21 55 37 69 36 124 100 107 125 -7 9 -17 26
-23 37 -11 22 -50 45 -72 43 -7 -1 -26 -4 -43 -8z m20 -102 c-9 -10 -27 -19
-38 -19 -19 1 -19 2 7 25 32 29 58 24 31 -6z"/>
<path d="M14782 6089 c-54 -7 -99 -30 -108 -54 -3 -7 4 -26 15 -42 48 -66 108
-287 126 -468 8 -80 17 -95 54 -95 14 0 46 -7 71 -16 40 -14 45 -14 56 0 6 9
18 16 26 16 8 0 23 9 33 20 18 20 18 21 -5 45 -13 14 -38 29 -54 33 -24 6 -34
17 -46 49 -8 23 -23 50 -33 60 -9 11 -17 25 -17 31 0 14 65 32 126 36 26 1 49
8 55 17 15 23 10 55 -11 74 -17 16 -27 16 -95 6 -124 -18 -119 -20 -143 52
-11 34 -23 78 -27 98 l-7 36 44 7 c24 4 69 6 100 5 30 -1 60 1 67 5 16 10 14
48 -5 74 -14 21 -23 23 -92 20 -43 -1 -101 -5 -130 -9z"/>
<path d="M14368 5992 c-64 -31 -126 -66 -137 -76 -39 -36 -20 -76 36 -76 27 0
34 -4 39 -27 3 -16 13 -43 21 -61 8 -18 25 -75 38 -126 23 -91 55 -166 78
-184 26 -20 57 -20 82 0 29 22 28 29 -11 114 -28 60 -50 141 -42 149 3 3 45 7
93 8 70 2 90 5 98 19 9 13 6 21 -14 37 -13 11 -29 20 -35 21 -7 0 -24 7 -40
15 -20 10 -45 13 -84 8 -67 -7 -100 7 -100 42 0 31 35 58 119 90 75 28 94 54
64 87 -29 32 -79 22 -205 -40z"/>
<path d="M13862 5989 c-46 -9 -117 -52 -139 -85 -12 -19 -10 -26 25 -70 21
-27 44 -62 51 -79 28 -62 82 -242 88 -290 7 -62 26 -85 69 -85 19 0 48 -9 66
-20 40 -24 89 -25 151 -4 55 19 77 51 77 112 0 45 -24 73 -137 160 -24 18 -43
36 -43 40 0 4 14 16 31 26 37 22 59 70 59 130 0 58 -39 104 -117 141 -60 29
-114 36 -181 24z m193 -129 c25 -25 28 -33 20 -56 -12 -32 -85 -79 -135 -87
-33 -5 -37 -2 -50 26 -7 18 -24 54 -37 81 -12 27 -22 51 -20 52 15 16 64 23
122 19 60 -5 74 -10 100 -35z m-44 -246 c68 -33 159 -110 159 -134 0 -24 -24
-37 -75 -40 -66 -4 -73 -2 -86 35 -7 19 -19 35 -26 35 -13 0 -19 12 -41 79
-11 33 -9 51 7 51 4 0 32 -12 62 -26z"/>
<path d="M9448 5878 c-62 -63 -144 -139 -183 -170 -38 -31 -90 -77 -115 -103
-25 -25 -81 -70 -125 -99 -44 -28 -113 -74 -154 -101 -84 -57 -212 -134 -223
-135 -4 0 -15 15 -24 32 -16 30 -17 51 -12 171 0 16 -4 33 -10 39 -16 16 -102
-56 -102 -86 0 -28 -35 -77 -130 -181 -40 -44 -86 -97 -101 -119 -28 -37 -28
-39 -12 -67 20 -33 74 -48 173 -48 43 0 94 -9 150 -26 96 -31 177 -42 192 -27
16 16 -1 70 -23 77 -14 5 -18 12 -14 25 3 11 -4 42 -16 70 l-22 51 23 24 c13
14 29 25 36 25 6 0 45 22 85 49 41 26 112 73 159 104 47 30 96 67 109 81 14
14 29 26 34 26 14 0 55 34 162 138 55 53 116 111 135 128 110 99 178 217 133
231 -6 2 -62 -47 -125 -109z"/>
<path d="M13366 5734 c-19 -19 -21 -50 -3 -61 7 -4 23 -23 36 -40 23 -34 58
-44 67 -18 13 33 -41 135 -71 135 -7 0 -21 -7 -29 -16z"/>
<path d="M11966 5564 c-34 -33 -7 -88 41 -82 22 2 29 9 31 31 4 30 -21 67 -44
67 -7 0 -20 -7 -28 -16z"/>
<path d="M12446 5554 c-21 -20 -20 -30 2 -52 21 -21 111 -37 126 -22 11 11
-71 89 -96 90 -9 0 -24 -7 -32 -16z"/>
<path d="M12233 5485 c-52 -26 -74 -43 -90 -72 -33 -60 -7 -99 101 -148 95
-43 98 -60 11 -91 -73 -26 -89 -52 -55 -89 13 -14 31 -25 41 -25 53 0 193 113
187 151 -4 27 -77 87 -116 94 -46 10 -77 30 -80 53 -3 18 6 26 51 46 64 28 82
52 67 90 -13 35 -33 33 -117 -9z"/>
<path d="M13136 5474 c-53 -19 -74 -40 -86 -85 -13 -48 -27 -57 -40 -27 -6 13
-25 33 -43 46 -18 12 -47 34 -66 47 -41 30 -69 31 -121 5 -41 -21 -70 -54 -70
-80 0 -9 -9 -33 -20 -55 -11 -22 -20 -44 -20 -50 1 -19 48 -63 90 -85 37 -19
52 -21 109 -15 62 7 69 10 115 56 31 31 46 54 42 64 -3 8 -1 15 4 15 5 0 12
-11 16 -25 6 -24 31 -45 53 -45 25 0 40 31 35 73 -8 57 18 82 77 74 59 -8 82
-32 75 -79 -5 -30 -3 -38 9 -38 8 0 24 -6 36 -12 17 -11 22 -10 35 6 37 51
-13 151 -96 190 -8 4 -26 13 -40 21 -30 18 -44 18 -94 -1z m-239 -106 c62 -43
52 -75 -34 -104 -41 -14 -58 -3 -67 45 -8 42 15 81 46 81 12 0 37 -10 55 -22z"/>
<path d="M13472 5427 c-12 -13 -22 -28 -22 -34 0 -19 37 -43 68 -43 43 0 58
29 37 70 -19 37 -52 40 -83 7z"/>
<path d="M10700 5424 c-52 -15 -115 -64 -123 -94 -3 -14 3 -28 17 -43 27 -26
40 -85 57 -250 l12 -118 52 -25 c90 -42 140 -29 229 62 129 132 139 258 31
390 -62 75 -175 107 -275 78z m188 -118 c91 -57 107 -170 34 -246 -20 -21 -45
-48 -54 -59 -13 -16 -30 -21 -62 -21 -25 0 -47 4 -50 8 -2 4 -7 37 -11 72 -6
60 -29 192 -41 233 -4 12 4 21 28 32 45 21 105 13 156 -19z"/>
<path d="M12497 5419 c-26 -15 -21 -69 17 -167 19 -48 36 -96 38 -107 2 -15
11 -20 38 -20 l35 0 -2 50 c-1 30 -14 76 -31 115 -16 36 -32 77 -36 92 -8 33
-35 50 -59 37z"/>
<path d="M12011 5384 c-12 -15 -21 -30 -21 -34 0 -16 51 -175 59 -183 5 -5 18
-6 30 -2 26 8 28 52 7 134 -8 31 -17 68 -21 84 -7 34 -28 35 -54 1z"/>
<path d="M11703 5333 c-49 -47 -87 -124 -79 -158 4 -15 25 -37 54 -56 44 -28
52 -29 117 -24 39 3 79 5 90 5 68 0 87 33 35 63 -20 12 -55 18 -109 20 -84 3
-106 12 -95 40 7 20 65 57 88 57 24 0 41 42 27 69 -9 16 -21 21 -50 21 -30 0
-46 -8 -78 -37z"/>
<path d="M11335 5339 c-43 -19 -46 -22 -125 -112 -51 -59 -62 -95 -40 -137 16
-30 87 -81 142 -101 70 -25 114 -24 182 6 31 14 62 25 69 25 19 0 49 40 43 56
-11 28 -53 35 -104 17 -57 -20 -183 -24 -189 -6 -3 7 8 18 24 25 59 26 134 79
143 102 14 38 -5 89 -42 111 -52 32 -61 33 -103 14z m59 -90 c-7 -12 -95 -52
-101 -45 -2 2 10 15 27 30 31 25 88 37 74 15z"/>
<path d="M10413 5079 c-9 -9 -89 -23 -198 -34 -79 -8 -130 -17 -202 -35 -40
-11 -96 -22 -125 -25 -29 -3 -84 -14 -123 -25 -38 -11 -141 -33 -228 -50 -137
-27 -287 -66 -392 -102 -16 -5 -66 -21 -110 -33 -85 -26 -95 -23 -95 24 0 14
-6 41 -12 60 -40 113 -122 111 -195 -2 -13 -21 -38 -46 -55 -55 -17 -10 -65
-42 -107 -73 -42 -31 -83 -58 -91 -61 -8 -3 -21 -22 -29 -43 -12 -35 -12 -39
11 -62 20 -19 38 -25 84 -28 137 -9 155 -13 292 -66 l83 -32 24 24 c20 20 25
36 27 98 l3 73 80 26 c44 14 89 28 100 32 46 17 122 39 152 45 17 3 37 13 44
21 6 8 26 14 43 14 17 0 47 5 66 10 19 6 89 20 155 31 66 11 147 31 180 43 33
13 103 28 155 34 52 6 113 18 135 26 82 28 112 36 144 36 66 0 170 31 201 60
35 32 42 80 12 80 -10 0 -23 -5 -29 -11z"/>
<path d="M1824 5049 c-10 -11 -32 -45 -49 -74 -47 -83 -114 -175 -172 -236
-50 -53 -54 -60 -62 -124 -7 -61 -6 -69 13 -87 18 -16 33 -19 95 -16 68 2 75
1 84 -19 5 -12 6 -30 2 -40 -4 -10 -9 -52 -10 -93 -4 -127 -15 -317 -19 -332
-3 -7 -6 -20 -9 -28 -10 -36 45 -110 82 -110 45 0 55 30 57 185 2 77 6 156 9
175 3 19 8 62 10 95 9 125 14 145 43 156 16 7 69 9 128 6 90 -4 102 -3 112 14
18 29 15 37 -32 91 -71 81 -104 159 -142 331 -20 89 -47 127 -92 127 -16 0
-37 -9 -48 -21z"/>
<path d="M4198 3975 c-10 -23 0 -92 28 -187 7 -24 -15 -23 -89 3 -59 21 -60
21 -86 2 -32 -25 -38 -54 -14 -75 10 -9 49 -26 88 -39 107 -36 109 -38 105
-181 -2 -97 3 -113 42 -133 65 -32 71 -20 68 134 l-1 114 93 -7 c72 -5 98 -3
113 7 17 14 17 15 -2 34 -11 11 -45 28 -74 37 -101 32 -129 48 -135 75 -45
201 -102 291 -136 216z"/>
<path d="M4978 3888 c-2 -13 7 -41 18 -64 12 -22 26 -62 32 -87 9 -46 9 -47
-17 -53 -14 -3 -48 -13 -74 -21 -40 -12 -48 -19 -45 -36 4 -31 45 -48 105 -45
52 3 52 3 58 -31 4 -18 3 -61 0 -95 -9 -77 11 -132 49 -142 14 -3 33 -4 41 0
16 6 16 9 19 166 l1 95 31 1 c50 2 84 13 84 29 0 14 -64 62 -110 82 -20 8 -31
27 -49 84 -16 49 -34 84 -56 106 -40 40 -82 45 -87 11z"/>
<path d="M2375 3810 c-15 -17 -16 -30 -10 -97 4 -43 10 -82 14 -88 4 -5 16
-48 26 -95 10 -47 22 -89 26 -95 4 -5 9 -28 12 -50 3 -22 9 -48 12 -57 4 -9 8
-34 9 -55 2 -34 6 -39 36 -49 26 -9 39 -9 49 -1 20 17 5 148 -34 297 -18 69
-36 160 -40 203 -5 63 -11 80 -28 92 -29 20 -50 19 -72 -5z"/>
<path d="M5265 3806 c-16 -12 -17 -18 -8 -39 23 -49 113 -46 113 4 0 43 -65
65 -105 35z"/>
<path d="M4678 3652 c-80 -48 -169 -132 -190 -180 -18 -39 -18 -45 -5 -66 9
-13 30 -29 49 -36 18 -8 36 -18 39 -23 18 -26 146 46 186 105 23 35 31 35 39
2 7 -27 68 -89 110 -111 25 -14 74 -2 74 18 0 6 -20 34 -44 62 -64 77 -107
166 -99 211 5 33 4 36 -18 36 -13 0 -40 2 -59 5 -26 4 -47 -2 -82 -23z m12
-123 c0 -14 -67 -79 -81 -79 -19 0 -8 21 29 55 39 36 52 42 52 24z"/>
<path d="M5909 3653 c-45 -49 -66 -136 -54 -228 6 -48 9 -55 37 -64 38 -14 34
-14 53 5 13 14 15 30 10 88 -6 72 5 115 32 123 19 6 86 -70 122 -138 26 -47
32 -69 28 -95 -5 -26 -2 -36 13 -44 27 -14 79 7 86 35 8 33 -47 155 -101 223
-60 77 -103 109 -156 117 -40 6 -47 4 -70 -22z"/>
<path d="M1340 3658 c-36 -15 -100 -27 -221 -41 -108 -13 -133 -23 -142 -57
-4 -14 4 -25 30 -41 31 -19 40 -21 67 -11 52 19 129 15 143 -7 13 -21 39 -218
30 -227 -10 -11 -82 -24 -133 -24 -101 0 -128 -65 -39 -90 122 -34 413 41 423
108 2 13 -2 22 -10 23 -25 2 -83 -2 -100 -7 -10 -3 -21 3 -29 17 -13 26 -30
132 -33 205 l-1 52 69 13 c77 14 98 30 94 68 -3 25 -6 26 -63 28 -33 1 -71 -3
-85 -9z"/>
<path d="M5625 3659 c-51 -16 -67 -35 -76 -90 -5 -29 -14 -56 -21 -60 -21 -13
11 -60 57 -86 60 -34 137 -30 193 10 67 48 66 71 -8 169 -31 42 -74 70 -104
67 -6 0 -24 -5 -41 -10z m65 -92 c0 -7 9 -18 20 -25 11 -7 20 -17 20 -23 0 -9
-59 -39 -77 -39 -4 0 -6 22 -5 50 3 41 7 50 23 50 10 0 19 -6 19 -13z"/>
<path d="M5325 3646 c-22 -16 -22 -53 0 -121 18 -55 37 -75 72 -75 16 0 24 7
29 26 10 39 -15 133 -42 161 -27 27 -34 28 -59 9z"/>
<path d="M3890 3639 c-35 -13 -59 -57 -76 -137 -12 -58 -12 -71 0 -97 8 -16
17 -42 20 -56 7 -32 50 -45 82 -24 19 13 20 18 12 76 -11 67 -3 149 13 149 15
0 73 -31 81 -44 4 -6 14 -33 23 -61 21 -74 40 -96 73 -89 48 12 51 19 36 86
-17 72 -55 130 -109 169 -44 31 -115 44 -155 28z"/>
<path d="M3023 3615 c-26 -18 -49 -91 -34 -108 5 -7 13 -30 17 -52 5 -22 9
-43 10 -47 1 -5 2 -14 3 -22 2 -24 49 -66 74 -66 28 0 37 21 37 86 l0 41 40
-19 c49 -24 79 -19 102 19 l17 28 7 -32 c8 -43 83 -90 112 -72 15 9 25 7 55
-12 20 -13 37 -29 37 -35 0 -7 15 -15 34 -18 19 -4 36 -11 38 -16 4 -13 104
-16 138 -6 31 10 90 65 90 84 0 11 -16 12 -82 7 l-83 -7 36 33 c41 39 79 107
79 143 0 30 -39 63 -86 72 -49 9 -139 -4 -161 -24 -30 -27 -53 -65 -53 -88 0
-20 -17 -34 -41 -34 -5 0 -9 7 -9 15 0 40 -70 145 -96 145 -21 0 -83 -44 -89
-62 -8 -23 -18 -23 -40 2 -12 13 -31 20 -54 20 -25 0 -40 6 -49 20 -15 24 -21
25 -49 5z m615 -100 c2 -2 -2 -12 -9 -23 -15 -24 -64 -54 -73 -45 -10 11 -7
58 5 70 10 10 65 8 77 -2z"/>
<path d="M2755 3593 c-11 -2 -30 -6 -42 -8 -33 -7 -68 -72 -68 -125 0 -37 -4
-45 -20 -48 -30 -6 -45 -22 -45 -47 0 -34 31 -56 68 -49 25 5 32 3 32 -10 0
-9 4 -16 9 -16 5 0 12 -14 16 -31 4 -17 14 -33 23 -36 10 -2 26 -9 37 -13 65
-27 88 -22 158 33 63 52 44 69 -52 46 -41 -9 -47 -8 -68 13 -12 13 -24 34 -25
47 -2 20 3 26 27 31 46 10 113 52 125 79 11 24 7 33 -32 82 -26 32 -103 60
-143 52z m40 -95 c31 -14 28 -29 -8 -39 -31 -8 -41 2 -32 31 7 23 7 23 40 8z"/>
<path d="M1568 3489 c-21 -21 -38 -48 -38 -59 0 -10 -5 -22 -10 -25 -7 -4 -6
-13 1 -27 12 -23 27 -69 35 -108 10 -51 32 -71 72 -68 l37 3 2 103 c1 57 4
106 7 109 5 5 11 -9 31 -65 3 -7 21 -20 40 -28 43 -18 80 -4 72 27 -7 28 29
25 38 -3 4 -13 7 -26 6 -30 -1 -5 4 -8 10 -8 7 0 9 -10 7 -24 -4 -18 0 -26 15
-30 14 -3 18 -11 14 -25 -3 -12 -1 -21 3 -21 5 0 14 -16 21 -35 12 -31 17 -35
49 -35 62 0 68 12 45 88 -6 17 -3 22 11 22 16 0 22 -16 39 -97 11 -58 18 -127
16 -169 -2 -67 -1 -72 21 -78 36 -9 47 -7 68 14 16 16 20 33 20 88 -1 37 -4
85 -9 107 -10 52 0 89 24 93 58 9 145 91 145 136 0 33 -80 104 -131 115 -101
24 -168 4 -228 -64 -18 -21 -33 -36 -35 -34 -1 2 -11 24 -21 48 -45 103 -82
116 -139 49 -20 -23 -37 -40 -39 -37 -2 2 -20 28 -41 57 -35 49 -40 52 -79 52
-36 -1 -48 -7 -79 -41z m646 -125 c32 -6 51 -24 25 -24 -5 0 -8 -4 -5 -9 9
-14 -17 -29 -49 -27 -27 1 -30 4 -33 40 -3 31 0 38 12 33 8 -3 31 -9 50 -13z"/>
<path d="M9011 2855 c-12 -7 -37 -37 -54 -66 -40 -72 -171 -244 -224 -296 -24
-22 -43 -47 -43 -55 0 -20 74 -96 105 -108 14 -5 42 -10 61 -10 22 0 37 -6 41
-16 3 -9 -2 -61 -12 -117 -10 -56 -21 -129 -26 -162 -10 -69 -31 -176 -56
-289 l-18 -78 24 -19 c28 -23 32 -23 55 -6 13 10 24 45 38 128 21 120 22 123
62 344 37 201 35 195 60 195 11 0 30 -7 40 -15 29 -22 98 -19 130 6 30 23 36
78 11 99 -8 7 -15 28 -15 48 0 20 -9 55 -20 78 -12 23 -25 64 -29 91 -36 214
-50 257 -82 260 -13 1 -35 -4 -48 -12z"/>
<path d="M11163 1560 c-27 -11 -26 -7 -27 -130 l-1 -95 -45 -3 c-48 -4 -80
-24 -80 -52 0 -26 20 -38 79 -46 l53 -7 -5 -86 c-2 -47 -10 -117 -17 -155 -11
-65 -11 -70 9 -90 20 -19 23 -20 49 -6 23 13 29 27 43 95 9 44 17 116 18 159
1 44 4 82 7 85 3 4 49 11 101 16 73 8 99 14 107 27 21 34 -15 52 -122 63 l-97
10 -6 82 c-6 77 -23 144 -38 142 -3 0 -16 -4 -28 -9z"/>
<path d="M11833 1554 c-6 -16 1 -92 18 -184 19 -103 18 -113 -16 -121 -46 -11
-104 -34 -116 -46 -8 -8 -7 -17 1 -33 11 -20 16 -21 80 -15 l68 7 6 -54 c3
-29 8 -84 10 -123 4 -57 9 -72 28 -87 53 -41 69 -11 66 119 -2 65 2 109 10
129 12 29 11 36 -12 80 -14 27 -26 61 -26 76 0 30 -34 185 -52 236 -9 24 -18
32 -35 32 -13 0 -26 -7 -30 -16z"/>
<path d="M8554 1431 c-54 -24 -86 -31 -159 -32 -66 -1 -95 -18 -95 -54 0 -43
22 -50 119 -37 134 18 125 22 119 -50 -3 -35 -15 -99 -27 -143 l-22 -81 -59
10 c-50 8 -66 7 -95 -7 -19 -9 -35 -23 -35 -30 0 -28 47 -58 105 -67 78 -13
254 -15 265 -4 18 19 15 49 -5 52 -11 2 -31 11 -44 21 l-24 18 17 94 c9 52 18
126 19 164 l2 70 48 -2 c43 -1 48 1 53 24 10 37 -20 60 -86 67 -42 5 -64 2
-96 -13z"/>
<path d="M9419 1438 c0 -2 -1 -88 -2 -193 -1 -118 -6 -197 -13 -209 -11 -18
-12 -18 -32 2 -25 25 -117 51 -189 53 -38 2 -66 -5 -103 -23 l-50 -25 -20 45
c-19 43 -21 44 -57 40 -21 -3 -45 -8 -54 -12 -13 -6 -18 1 -23 31 -8 51 -16
62 -53 69 -35 7 -65 -18 -89 -75 -19 -45 -21 -241 -2 -270 32 -52 78 -6 78 79
0 30 5 62 10 70 8 13 10 13 10 -2 0 -17 25 -48 40 -48 5 0 22 11 38 25 17 14
33 21 36 16 7 -10 21 -80 31 -151 9 -66 13 -74 39 -86 19 -9 28 -8 46 6 21 16
21 17 6 99 -19 98 -19 104 -6 96 5 -3 19 -1 30 5 19 10 30 -3 11 -14 -17 -11
-19 -74 -5 -147 8 -41 14 -105 14 -142 0 -37 7 -84 15 -103 12 -30 19 -35 42
-32 37 4 43 40 31 181 -5 62 -10 123 -11 136 -2 23 3 25 73 38 58 11 82 21
106 44 32 31 44 29 44 -5 0 -29 42 -86 63 -86 37 0 43 50 37 311 -5 267 -8
279 -61 279 -16 0 -29 -1 -30 -2z m-185 -428 c37 -14 32 -27 -14 -35 -28 -5
-46 -2 -61 9 -17 11 -19 16 -8 20 8 2 21 7 29 9 23 8 27 8 54 -3z"/>
<path d="M12098 1388 c-22 -17 -26 -61 -9 -82 16 -19 72 -21 89 -4 20 20 14
45 -19 72 -35 30 -39 31 -61 14z"/>
<path d="M12738 1295 c-16 -9 -37 -35 -49 -58 -12 -23 -28 -50 -37 -59 -31
-37 7 -198 47 -198 28 0 33 12 42 107 8 79 31 143 52 143 5 0 21 -9 37 -20 35
-25 59 -83 67 -163 7 -78 17 -97 49 -97 39 0 47 37 30 135 -17 98 -31 127 -84
179 -47 45 -108 57 -154 31z"/>
<path d="M10027 1227 c-47 -72 -59 -168 -36 -277 11 -53 42 -86 72 -75 22 9
24 29 17 130 -7 96 -4 127 11 103 5 -7 9 -26 9 -41 0 -41 27 -86 55 -93 30 -7
43 1 56 33 11 28 24 24 33 -12 5 -18 57 -117 70 -132 0 -1 13 -4 28 -8 24 -6
29 -3 37 19 9 21 3 39 -31 108 -22 46 -46 100 -52 122 -6 21 -20 45 -32 52
-17 12 -25 11 -57 -5 l-38 -19 -16 39 c-29 73 -96 102 -126 56z"/>
<path d="M10565 1218 c-97 -70 -144 -146 -148 -239 -2 -46 1 -53 32 -81 32
-28 38 -30 91 -25 61 5 104 24 161 68 43 34 69 37 87 9 16 -26 58 -26 72 -1 5
11 10 46 10 78 1 32 7 69 14 82 l13 24 26 -44 c14 -24 29 -57 33 -74 15 -66
46 -125 70 -131 39 -10 47 3 41 66 -5 40 -20 82 -54 146 -53 101 -77 129 -114
138 -50 11 -111 -61 -123 -146 -6 -42 -10 -48 -32 -48 -24 0 -34 23 -14 35 16
10 11 58 -10 92 -39 65 -106 87 -155 51z m69 -74 c39 -15 0 -64 -77 -96 -26
-11 -33 17 -11 50 30 47 54 59 88 46z"/>
<path d="M11545 1200 c-44 -22 -84 -40 -90 -40 -12 0 -73 -62 -99 -100 -25
-37 -21 -101 10 -148 21 -32 34 -41 66 -46 34 -6 46 -2 74 19 18 14 48 46 65
71 l31 46 42 -40 c37 -37 81 -62 107 -62 12 0 49 37 49 50 0 5 -17 18 -39 29
-54 28 -86 101 -84 194 1 66 1 67 -25 67 -15 0 -63 -18 -107 -40z m-1 -127
c-7 -30 -53 -101 -77 -121 -21 -18 -39 8 -35 49 2 25 13 41 46 66 55 42 75 43
66 6z"/>
<path d="M12091 1223 c-20 -17 -21 -22 -12 -88 6 -38 11 -91 11 -118 0 -41 3
-49 25 -59 21 -9 28 -8 45 7 16 15 20 30 19 84 -2 169 -29 222 -88 174z"/>
<path d="M9725 1218 c-43 -15 -88 -51 -105 -84 -8 -16 -25 -46 -37 -66 -13
-21 -23 -47 -23 -58 0 -25 63 -96 104 -117 79 -41 295 22 273 80 -4 11 -22 11
-98 1 -52 -7 -104 -10 -116 -7 -37 8 -26 28 23 41 51 14 130 72 140 104 9 29
-12 70 -49 96 -36 24 -65 26 -112 10z m69 -67 c12 -19 -7 -40 -54 -59 -62 -26
-73 -13 -27 33 34 34 70 45 81 26z"/>
<path d="M12378 1201 c-26 -22 -40 -27 -65 -24 -47 7 -51 -16 -14 -81 25 -42
42 -60 79 -78 60 -29 158 -35 185 -10 29 26 47 67 46 104 -1 47 -9 64 -48 93
-28 20 -46 25 -93 25 -49 0 -62 -4 -90 -29z m142 -80 c0 -31 -14 -41 -60 -41
-36 0 -43 11 -30 44 8 22 16 26 50 26 37 0 40 -2 40 -29z"/>
</g>
</svg>
