<svg width="1022" height="400" viewBox="0 0 1022 400" fill="none" xmlns="http://www.w3.org/2000/svg">
<rect width="1022" height="400" fill="white"/>
<g clip-path="url(#clip0)">
<path d="M466.035 0.245201C465.909 0.371564 464.013 0.540048 461.865 0.62429C455.715 0.834895 450.155 1.21398 449.692 1.46671C448.639 2.14065 448.513 3.27791 449.397 4.41518C450.282 5.55245 450.324 5.55245 454.452 5.34184C458.453 5.13124 458.58 5.13124 458.748 6.01578C459.633 10.3542 459.759 12.9657 459.591 19.8736C459.422 27.4975 459.422 27.7502 460.265 28.2135C461.739 28.9717 462.708 28.382 463.087 26.4023C463.466 24.4648 463.381 14.6085 463.002 8.58516L462.708 4.71003L464.982 4.41518C467.509 4.07821 468.689 3.27791 468.689 1.8458C468.689 0.62429 466.793 -0.512977 466.035 0.245201Z" fill="#444444"/>
<path d="M567.715 4.12035L566.788 4.8364L567.673 6.90033C568.6 8.92214 568.895 12.8394 568.221 13.4712C568.052 13.6397 565.82 13.5976 563.25 13.3448C557.69 12.7973 544.928 12.8815 544.338 13.4712C544.085 13.7239 543.327 13.8924 542.611 13.8924C540.168 13.8924 539.031 16.3776 540.758 17.936C541.558 18.6521 542.443 18.7363 551.583 18.7785C557.101 18.8206 562.029 19.0312 562.619 19.2418C563.208 19.4524 564.725 19.7051 565.988 19.7472C567.252 19.7894 568.431 20 568.6 20.1263C568.768 20.2948 568.726 22.8642 568.473 25.8127C567.968 31.9623 568.136 32.4257 570.579 32.4257C572.011 32.4257 572.475 32.0887 575.676 28.5926C579.551 24.3384 580.857 23.5802 584.269 23.5802C586.291 23.5802 586.627 23.4539 587.301 22.4009C587.723 21.769 588.017 20.9687 588.017 20.5475C587.975 20.1684 588.312 19.7894 588.734 19.663C589.155 19.5788 589.702 19.0733 589.955 18.61C590.376 17.8518 590.166 17.5569 588.354 16.2512C587.217 15.4088 586.122 14.7348 585.911 14.7348C585.701 14.7348 584.227 13.8503 582.626 12.7973C580.983 11.7442 578.54 10.27 577.15 9.55396C575.592 8.79578 573.738 7.32154 572.348 5.84731C569.948 3.19368 569.147 2.89884 567.715 4.12035Z" fill="#444444"/>
<path d="M472.143 4.62583C470.458 5.63673 470.458 6.85824 472.1 8.07975C472.985 8.75368 473.448 8.83793 474.628 8.54308C475.849 8.20611 476.06 7.95338 476.186 6.81612C476.481 3.95189 474.796 3.02523 472.143 4.62583Z" fill="#444444"/>
<path d="M509.335 13.2606C506.935 14.5243 506.05 15.4931 504.913 17.9361C504.197 19.4524 504.155 19.9579 504.534 22.2745C504.913 24.4227 505.334 25.3072 506.977 27.2027C508.914 29.4772 510.178 30.4039 513.758 32.0466C514.811 32.5521 516.201 33.1839 516.833 33.5208C517.507 33.8578 518.349 34.1105 518.771 34.1105C519.908 34.1105 521.256 32.4257 521.677 30.446C522.014 28.9718 521.972 28.6348 521.382 28.4242C520.961 28.2557 520.498 28.4663 520.118 29.0139C519.36 30.1512 518.518 30.109 515.611 28.8454C511.778 27.1606 510.978 25.3072 513.548 24.2542C517.591 22.5694 518.686 20.6318 518.139 16.4197C517.718 13.3028 516.917 12.5025 513.927 12.2919C511.863 12.1655 511.105 12.334 509.335 13.2606ZM514.39 16.5882C515.611 18.4415 514.853 19.7052 511.778 21.0951C510.262 21.7691 508.872 22.1903 508.662 22.0639C508.072 21.727 508.24 19.0312 508.956 17.6412C510.052 15.4509 513.253 14.8191 514.39 16.5882Z" fill="#444444"/>
<path d="M482.841 14.9455L480.735 16.8409L481.662 20.5054C482.167 22.5694 482.589 24.7175 482.589 25.3072C482.589 26.8236 484.147 28.719 485.242 28.5505C486.422 28.3821 486.969 26.1918 486.38 24.0857C485.832 22.106 485.832 17.8097 486.38 17.4727C486.927 17.1358 488.359 19.5367 488.949 21.6848C489.623 24.0857 489.918 24.6333 490.929 24.7597C492.024 24.9281 493.119 23.3275 493.414 21.0951C493.54 20.1263 493.919 19.1576 494.298 18.8627C494.804 18.3994 495.183 18.6521 496.573 20.1685C498.51 22.3588 501.375 27.8766 501.754 30.1511C502.217 32.6363 503.017 33.7314 504.155 33.3102C504.829 33.0575 505.123 32.5942 505.166 31.6254C505.208 30.8672 505.334 30.1511 505.502 30.0248C505.797 29.6878 501.29 20.9688 500.237 19.8315C499.774 19.3682 499.437 18.8206 499.437 18.5679C499.437 17.8939 495.562 14.7349 494.72 14.7349C494.256 14.7349 493.33 15.1982 492.613 15.7879C491.013 17.1358 490.844 17.0936 489.749 15.5773C488.78 14.2294 486.885 13.05 485.664 13.05C485.242 13.05 483.979 13.8924 482.841 14.9455Z" fill="#444444"/>
<path d="M474.586 14.103C474.164 14.6085 474.038 16.546 474.08 21.1793C474.08 27.2448 474.122 27.5817 474.965 27.9608C475.681 28.2557 476.102 28.1293 476.944 27.329L478.04 26.3181L477.745 20.4212C477.576 17.1778 477.239 14.2715 477.029 13.9767C476.439 13.2606 475.217 13.3448 474.586 14.103Z" fill="#444444"/>
<path d="M180.118 81.5387C179.317 82.5496 179.275 83.3078 179.949 86.3405C180.286 87.8569 180.623 90.1735 180.707 91.5214C180.834 93.7117 180.75 94.0487 179.991 94.3435C178.686 94.8068 177.548 96.2811 177.717 97.1656C177.801 97.5868 178.433 98.1765 179.107 98.5135C181.55 99.6508 181.676 99.8614 181.76 104.747C181.929 111.866 182.182 113.593 183.361 114.351C184.456 115.067 186.31 115.193 186.689 114.562C187.068 113.93 187.11 105.758 186.731 102.431C186.394 99.5244 186.436 99.398 187.236 99.398C187.742 99.398 188.205 99.2296 188.331 99.0189C188.753 98.3871 187.826 96.4074 186.52 95.1017C185.551 94.1329 185.256 93.2063 184.709 90.0051C184.077 86.2142 182.14 81.286 181.171 80.9912C180.918 80.9069 180.455 81.1596 180.118 81.5387Z" fill="#444444"/>
<path d="M118.242 84.3609C117.231 84.9084 117.189 85.0348 117.315 88.4466C117.4 90.4263 117.652 92.3638 117.905 92.8272C118.116 93.2484 118.326 95.1438 118.368 97.0393C118.368 99.1875 118.579 100.788 118.958 101.378C119.632 102.389 119.843 106.474 119.337 108.538C119 109.76 119.127 109.97 120.39 110.729C123.254 112.498 127.677 111.487 129.952 108.58C130.836 107.485 131.3 107.148 131.763 107.443C132.1 107.654 132.774 107.822 133.279 107.822C133.785 107.822 134.711 108.454 135.427 109.296C136.649 110.855 140.313 112.456 142.462 112.456C144.568 112.456 147.305 110.392 147.305 108.833C147.305 107.275 146.379 106.896 144.357 107.612C142.209 108.37 140.903 108.412 140.229 107.738C139.429 106.938 139.639 106.39 140.987 105.8C141.661 105.506 143.178 104.326 144.357 103.231C146.126 101.546 146.463 100.999 146.463 99.6929C146.463 98.4714 146.21 97.9659 144.989 97.0393C143.725 96.0705 143.093 95.902 140.398 95.8599C136.649 95.8178 136.143 96.1547 134.164 100.24C132.605 103.568 131.257 104.284 129.91 102.641C128.183 100.493 126.371 98.8926 124.687 98.0923C122.707 97.1235 122.623 96.9129 121.822 89.4996C121.485 86.3405 120.853 84.3609 120.095 84.066C119.295 83.7712 119.506 83.729 118.242 84.3609ZM140.65 100.746C139.892 101.378 138.881 101.925 138.418 101.925H137.576L138.46 100.704C139.092 99.735 139.639 99.4823 140.65 99.4823L141.956 99.5244L140.65 100.746ZM125.36 102.936C126.75 104.41 126.456 106.727 124.939 106.896C123.886 107.022 123.802 106.896 123.507 104.916C123.086 101.799 123.676 101.167 125.36 102.936Z" fill="#444444"/>
<path d="M99.2875 86.8461C98.4872 87.1409 98.4029 87.3936 98.6135 88.573C98.782 89.2891 99.119 91.353 99.3296 93.08C99.5823 94.8069 99.9193 96.4075 100.13 96.6602C100.551 97.1657 101.183 101.673 101.057 103.484C101.014 104.242 101.183 104.958 101.394 105.084C101.646 105.211 101.815 105.801 101.815 106.39C101.815 106.938 101.983 107.401 102.194 107.401C102.404 107.401 102.573 108.117 102.531 108.96C102.447 112.161 102.784 113.635 103.626 113.888C104.805 114.183 105.606 113.719 106.069 112.582C106.49 111.403 106.153 103.863 105.564 101.294C105.353 100.367 105.058 98.3872 104.932 96.8709C104.763 95.3545 104.51 93.8381 104.342 93.5012C104.174 93.1642 103.879 92.0269 103.71 90.9739C103.12 87.3094 101.688 85.9615 99.2875 86.8461Z" fill="#444444"/>
<path d="M108.891 89.3311C107.206 90.2999 108.554 93.5011 110.66 93.5011C112.935 93.5011 113.567 90.5526 111.503 89.4996C110.071 88.7835 109.86 88.7414 108.891 89.3311Z" fill="#444444"/>
<path d="M64.1164 90.2157C61.0837 91.2687 60.494 93.5011 62.6001 96.0284C63.8637 97.5869 64.3692 99.4402 65.3801 106.222L65.9698 110.055L64.7483 111.487C63.3583 113.045 63.4425 113.761 65.2537 115.488C66.4331 116.668 66.9386 116.836 69.171 116.668C70.4767 116.583 75.0258 114.477 75.9946 113.466C76.3315 113.13 76.7527 112.877 76.9212 112.877C77.1318 112.877 77.7215 112.203 78.2691 111.36C79.1958 110.013 79.4064 109.886 80.8385 110.097C81.723 110.265 82.5233 110.181 82.6497 109.928C83.0288 109.297 83.7027 109.844 83.7027 110.813C83.7027 111.697 86.5669 114.646 88.4203 115.657C90.6106 116.836 93.1378 116.878 95.0333 115.783C97.1814 114.604 100.256 110.687 100.046 109.381C99.8351 107.949 98.4029 108.033 96.7602 109.507C95.9599 110.265 94.4436 111.234 93.4327 111.697C91.7057 112.498 91.453 112.498 90.1893 111.908C88.9257 111.276 87.2409 108.875 87.8306 108.496C87.9991 108.412 89.3469 107.949 90.8633 107.443C94.1487 106.39 97.6026 103.652 97.6026 102.136C97.6026 98.7241 95.0754 97.2499 88.7151 96.9972C84.3766 96.8708 84.166 96.8708 82.9024 97.9238C81.2176 99.356 80.7121 101.251 81.2176 104.579C81.6809 107.949 81.6809 107.822 80.9648 107.822C80.5015 107.822 80.3752 107.317 80.4594 105.59C80.5858 103.526 80.0382 101.546 78.1849 97.5026C77.4688 95.8599 74.4361 92.2375 73.8464 92.2375C73.5937 92.2375 72.7091 91.9005 71.9088 91.4372C70.6452 90.7633 66.5173 89.626 65.6749 89.7524C65.5064 89.7524 64.8325 89.963 64.1164 90.2157ZM70.6452 96.0705C72.4143 96.6181 74.6046 99.5666 75.4891 102.515C76.0367 104.368 75.8682 107.822 75.2364 107.822C75.0258 107.822 74.8573 108.075 74.8573 108.328C74.8152 108.96 73.2567 110.181 71.7404 110.729C70.4346 111.276 70.2661 110.897 69.7607 105.716C69.5501 103.526 69.2131 100.662 69.0025 99.3981C68.2864 95.2281 68.2022 95.3545 70.6452 96.0705ZM91.453 101.083C93.2642 101.083 93.0115 101.799 90.9475 102.515C89.8524 102.936 88.336 103.526 87.5778 103.863C86.8197 104.2 85.9772 104.368 85.7666 104.242C85.2191 103.863 85.3033 102.22 85.9351 101.42C86.5248 100.62 88.6309 100.24 89.6839 100.746C90.063 100.914 90.8633 101.083 91.453 101.083Z" fill="#444444"/>
<path d="M191.448 90.1736C190.143 90.8897 190.522 92.8272 192.206 94.2593C193.849 95.6915 195.113 95.6493 194.734 94.1751C194.607 93.7118 194.481 92.7009 194.481 91.9848C194.481 91.016 194.228 90.5527 193.428 90.2157C192.164 89.626 192.333 89.626 191.448 90.1736Z" fill="#444444"/>
<path d="M152.149 94.3436C150.675 94.9754 148.99 97.1235 148.99 98.4293C148.99 99.0611 148.822 99.9035 148.569 100.241C148.358 100.62 148.358 101.041 148.611 101.336C148.864 101.63 148.99 102.094 148.948 102.431C148.906 102.726 148.906 104.537 148.948 106.432C148.99 109.676 149.075 110.013 150.296 111.403C151.686 112.961 153.16 113.298 154.045 112.245C154.592 111.613 154.592 111.36 153.666 103.905C152.908 98.0502 153.75 97.1235 158.467 98.7241C161.584 99.8193 162.09 98.5978 159.563 96.1126C157.499 94.0908 154.466 93.3327 152.149 94.3436Z" fill="#444444"/>
<path d="M165.839 98.4714C165.038 98.8505 163.859 99.6508 163.185 100.198C160.489 102.599 158.931 107.443 160.742 108.033C161.163 108.159 161.837 108.623 162.258 109.086C163.311 110.223 164.87 110.139 167.65 108.749L170.009 107.527L170.556 108.665C171.82 111.192 173.631 113.635 174.937 114.52C177.843 116.541 179.739 114.435 177.296 111.866C176.622 111.15 175.906 110.097 175.737 109.507C175.569 108.917 174.81 107.317 174.01 105.885C173.252 104.453 172.494 102.473 172.325 101.462C171.778 97.9238 169.293 96.7866 165.839 98.4714Z" fill="#444444"/>
<path d="M222.449 98.4714C221.944 98.6399 221.059 99.3559 220.428 100.114C219.711 100.957 219.038 101.378 218.658 101.209C218.321 101.083 217.648 101.336 217.184 101.757C216.426 102.431 216.342 102.852 216.595 104.663C217.1 108.496 218.027 110.644 219.459 111.36C220.722 111.992 220.849 111.95 221.523 111.192C221.902 110.729 222.365 109.254 222.491 107.907C222.66 106.601 222.997 104.874 223.25 104.158C223.713 102.81 224.808 102.052 225.608 102.557C226.619 103.147 230.368 112.582 229.989 113.551C229.694 114.309 231.421 116.246 232.39 116.246C233.274 116.246 234.496 114.941 234.496 113.972C234.496 113.298 232.264 107.696 230.2 103.231C229.694 102.136 228.767 101.083 227.925 100.577C227.125 100.114 226.493 99.6087 226.493 99.4402C226.493 99.019 224.555 98.1344 223.839 98.1766C223.544 98.2187 222.913 98.345 222.449 98.4714Z" fill="#444444"/>
<path d="M205.095 100.535C203.326 102.81 202.905 103.779 202.905 105.506C202.905 108.033 206.191 110.602 210.108 111.066C212.635 111.36 214.32 110.729 215.289 109.086C215.878 108.033 215.921 107.57 215.541 106.137C215.289 105.169 214.783 104.284 214.446 104.158C214.151 104.031 213.857 103.61 213.857 103.231C213.857 102.473 211.877 100.788 209.771 99.6929C207.623 98.5557 206.485 98.7663 205.095 100.535ZM210.445 104.537C212.003 106.137 212.045 106.432 210.698 107.064C209.265 107.696 207.538 106.559 207.538 104.916C207.538 102.768 208.549 102.599 210.445 104.537Z" fill="#444444"/>
<path d="M192.164 100.662C191.448 101.462 191.406 101.757 191.954 104.79C192.248 106.559 192.585 108.791 192.67 109.718C192.965 112.371 194.018 114.14 195.408 114.14C197.05 114.14 197.556 113.003 197.008 110.56C196.755 109.465 196.671 108.454 196.755 108.328C196.84 108.159 196.671 106.727 196.334 105.169C195.281 100.156 193.933 98.682 192.164 100.662Z" fill="#444444"/>
<path d="M110.197 100.957C109.397 101.883 109.523 105.464 110.45 108.201C111.25 110.602 111.587 110.939 112.893 110.602C113.819 110.392 113.861 110.139 113.904 105.843C113.946 103.147 113.819 101.125 113.524 100.788C112.893 100.03 110.871 100.114 110.197 100.957Z" fill="#444444"/>
<path d="M56.7453 120.122C55.6923 121.259 54.1759 123.323 53.3756 124.671C52.5753 126.019 50.9747 128.462 49.8796 130.104C47.8999 132.968 46.7205 135.032 43.8984 140.592C43.1402 142.025 42.2978 143.541 41.9608 143.962C41.6238 144.341 40.7814 145.858 40.1075 147.29C39.4336 148.764 38.7596 149.943 38.549 149.943C38.3805 149.943 37.7908 149.48 37.2854 148.89C36.7799 148.301 36.106 147.837 35.8112 147.837C35.5163 147.837 35.2636 147.627 35.2636 147.374C35.2636 147.163 35.0951 147.079 34.8424 147.205C34.6318 147.332 33.9157 146.953 33.326 146.363C30.8409 143.878 28.1451 144.973 28.6927 148.258C28.8612 149.269 28.7769 150.322 28.4821 150.828C28.1451 151.502 28.1451 152.176 28.4821 153.481C28.9875 155.335 29.1139 157.946 28.7769 160.684C28.3136 165.065 28.44 169.15 29.0718 170.372C30.1248 172.394 32.1045 174.079 33.0733 173.784C33.4945 173.615 35.1372 172.099 36.6957 170.372C38.212 168.687 39.8969 167.129 40.4445 167.002C42.719 166.286 46.552 164.433 48.0684 163.253C48.995 162.537 50.3008 161.653 50.9747 161.316C52.7859 160.389 53.2492 159.505 52.5332 158.199C51.9435 157.062 51.1011 156.64 49.1214 156.514C48.4053 156.472 47.605 155.967 47.0575 155.293C46.552 154.703 45.4147 153.987 44.4881 153.734C43.6035 153.481 42.8454 153.229 42.8454 153.102C42.8454 152.765 45.2884 147.795 46.9732 144.678C47.4787 143.751 48.4475 141.73 49.1635 140.171C50.4693 137.223 56.2398 127.661 57.6719 126.103C58.0932 125.639 58.4301 125.134 58.4301 124.965C58.4301 124.797 59.2725 123.618 60.3256 122.312C62.4316 119.742 62.5159 119.532 61.5471 118.605C60.2835 117.342 58.7671 117.805 56.7453 120.122Z" fill="#444444"/>
<path d="M258.294 148.132C257.831 148.216 257.073 148.469 256.61 148.68C256.146 148.89 254.714 149.48 253.45 149.943C248.944 151.67 247.511 153.271 248.986 154.956C249.997 156.135 251.007 160.937 251.387 166.16C251.597 168.94 251.639 171.678 251.513 172.225C251.302 173.278 252.692 175.216 253.661 175.216C255.346 175.216 256.61 170.962 256.273 166.707L256.02 163.675L257.157 165.402C258.926 168.097 263.644 172.52 265.371 173.152C266.213 173.447 266.929 173.868 266.929 174.037C266.929 174.205 267.603 174.626 268.446 175.005C269.625 175.469 270.088 175.511 270.72 175.09C272.7 173.868 272.194 172.731 268.656 170.414C265.539 168.392 261.453 164.77 261.453 164.054C261.453 163.759 261.074 163.085 260.569 162.537L259.726 161.569L261.833 161.063C264.655 160.431 266.003 159.463 266.971 157.399C267.982 155.082 267.982 154.703 266.676 151.839C265.75 149.817 265.286 149.354 263.686 148.638C261.917 147.879 260.19 147.711 258.294 148.132ZM263.138 153.397C263.981 154.914 263.391 155.882 261.243 156.598C259.095 157.314 254.925 157.483 254.925 156.809C254.925 156.556 254.798 156.219 254.63 156.051C253.998 155.419 254.967 154.45 257.41 153.313C260.569 151.797 262.254 151.839 263.138 153.397Z" fill="#444444"/>
<path d="M304.838 148.595C302.1 149.311 299.362 150.744 297.13 152.555C296.245 153.271 295.908 153.945 295.866 155.04C295.824 157.146 297.509 158.831 301.721 160.895C306.649 163.296 308.334 165.739 305.807 166.707C305.133 166.96 303.743 167.381 302.69 167.676C300.963 168.055 300.542 168.013 298.941 167.213C297.172 166.286 297.13 166.286 296.33 167.129C295.192 168.224 295.614 170.161 297.172 171.088C299.236 172.31 301.89 172.436 305.091 171.467C309.429 170.161 310.651 169.024 311.283 165.654C311.493 164.475 311.367 164.138 310.524 163.59C309.935 163.211 309.471 162.706 309.471 162.411C309.429 161.906 308.039 160.81 303.49 157.736C301.89 156.683 300.626 155.714 300.626 155.587C300.626 154.998 304.838 152.85 306.902 152.428C310.145 151.754 311.704 150.912 311.367 150.028C311.198 149.648 310.946 148.974 310.861 148.553C310.567 147.627 308.545 147.627 304.838 148.595Z" fill="#444444"/>
<path d="M328.426 149.143C326.236 149.691 321.518 150.322 317.474 150.575C314.947 150.744 313.599 151.038 312.841 151.586C311.367 152.639 311.283 153.861 312.63 154.745C313.515 155.335 314.315 155.419 317.474 155.166L321.265 154.871V156.304C321.223 159.8 320.423 168.392 320.044 169.403C319.201 171.678 322.318 173.742 323.877 171.93C324.972 170.667 325.604 165.612 325.393 159.715L325.182 154.24L326.699 153.987C327.541 153.861 328.805 153.734 329.479 153.734C331.922 153.734 333.48 151.502 332.301 149.648C331.838 148.932 330.111 148.68 328.426 149.143Z" fill="#444444"/>
<path d="M111.84 151.038C110.323 151.881 108.933 152.934 108.849 153.355C108.554 154.408 109.439 156.219 110.365 156.514C111.629 156.893 111.84 157.988 112.008 164.349C112.134 169.951 112.05 170.583 111.376 171.088C110.744 171.551 110.618 172.141 110.744 174.163C110.871 176.648 110.913 176.69 112.556 177.49C115.925 179.091 118.453 178.459 122.833 174.921C126.835 171.636 128.688 167.845 129.067 162.285C129.32 158.452 129.32 158.452 126.119 154.24C123.718 151.081 121.443 149.859 117.652 149.648C114.872 149.522 114.493 149.606 111.84 151.038ZM120.559 155.124C120.853 155.377 121.696 156.093 122.412 156.641C123.128 157.188 123.718 157.946 123.718 158.41C123.718 158.831 123.928 159.294 124.139 159.42C124.392 159.589 124.476 159.884 124.35 160.094C124.181 160.305 124.434 161.021 124.813 161.737C125.487 162.832 125.529 163.169 125.023 164.559C124.729 165.444 124.181 166.623 123.802 167.213C123.423 167.803 123.17 168.392 123.212 168.603C123.381 169.15 118.958 172.815 117.568 173.278C116.683 173.531 116.683 173.447 116.431 164.222C116.304 159.084 116.262 154.703 116.431 154.45C116.726 153.945 119.843 154.45 120.559 155.124Z" fill="#444444"/>
<path d="M271.899 151.502C270.931 152.555 270.931 154.197 271.899 155.924C272.363 156.683 272.952 158.325 273.247 159.547C273.669 161.442 273.669 161.906 273.163 162.495C272.026 163.801 271.984 164.601 273.037 165.697C273.669 166.37 274.09 167.508 274.3 168.982C274.722 172.267 274.848 172.52 276.617 173.952C278.681 175.595 280.366 175.806 285.125 175.174C288.074 174.795 289.001 174.5 289.759 173.657C290.475 172.857 290.601 172.478 290.264 171.93C289.548 170.835 286.178 170.372 282.725 170.92C281.124 171.172 279.65 171.256 279.523 171.088C279.355 170.92 279.102 169.909 278.976 168.813L278.681 166.834L281.629 165.949C283.272 165.486 285.041 165.191 285.589 165.317C286.979 165.697 287.316 164.307 286.221 162.537C285.42 161.232 285.336 161.232 283.23 161.442C282.008 161.569 280.45 161.821 279.734 161.948C278.218 162.285 278.091 162.116 277.67 158.62L277.375 156.219L278.765 156.261C281.672 156.304 285.462 155.714 285.926 155.166C286.558 154.408 286.01 153.018 284.704 152.134C283.946 151.628 282.64 151.418 280.239 151.375C278.344 151.333 275.901 151.165 274.722 150.996C272.952 150.744 272.489 150.828 271.899 151.502Z" fill="#444444"/>
<path d="M189.763 154.029C188.795 155.166 189.005 156.177 190.564 157.525C192.122 158.915 193.891 159.547 194.523 158.915C194.734 158.704 194.481 157.525 193.849 156.051C193.007 153.861 192.67 153.524 191.659 153.397C190.901 153.313 190.185 153.566 189.763 154.029Z" fill="#444444"/>
<path d="M164.912 156.725C163.143 157.736 164.996 160.474 167.439 160.474C168.703 160.474 168.787 160.347 168.787 159.084C168.787 156.809 166.807 155.587 164.912 156.725Z" fill="#444444"/>
<path d="M232.685 158.704C232.263 159.126 231.969 159.842 231.969 160.221C231.969 160.979 233.443 163.38 234.285 163.927C234.959 164.433 236.181 164.307 236.181 163.759C236.181 163.506 236.476 162.959 236.855 162.537C237.739 161.569 237.823 158.873 237.023 158.325C235.928 157.694 233.401 157.904 232.685 158.704Z" fill="#444444"/>
<path d="M137.786 159.757C135.343 160.937 131.889 165.065 131.51 167.339C130.962 170.583 132.521 172.225 137.828 173.91C141.577 175.089 143.051 175.258 144.82 174.795C147.179 174.163 147.011 172.983 144.357 171.509C143.22 170.877 142.251 170.246 142.251 170.077C142.251 169.909 143.135 169.361 144.231 168.813C147.263 167.297 148.401 164.77 147.305 161.948C146.505 159.884 145.536 159.252 142.672 158.999C140.313 158.789 139.639 158.873 137.786 159.757ZM142.967 163.97C142.588 165.149 137.618 166.665 137.618 165.612C137.618 165.107 138.839 164.096 140.355 163.296C141.703 162.622 143.304 163.043 142.967 163.97Z" fill="#444444"/>
<path d="M183.698 160.01C181.803 160.347 179.907 161.653 178.475 163.759C177.59 165.023 177.548 165.233 178.054 167.044C178.601 169.024 181.002 171.846 182.14 171.846C182.434 171.846 182.687 172.225 182.687 172.689C182.687 173.531 181.803 173.742 178.854 173.531C178.096 173.489 177.506 173.784 177.043 174.458C176.158 175.721 176.2 176.269 177.296 177.322C178.391 178.333 180.623 178.417 183.866 177.575C186.815 176.774 187.405 176.016 187.11 173.32C186.857 171.257 186.604 170.835 184.414 169.319C183.951 168.982 183.53 168.477 183.53 168.182C183.53 167.887 183.361 167.634 183.15 167.634C182.94 167.634 182.603 167.255 182.476 166.75C182.097 165.528 183.361 164.264 184.962 164.264C187.32 164.264 188.079 163.843 188.247 162.495C188.416 161.611 188.205 160.937 187.657 160.389C186.857 159.589 186.52 159.547 183.698 160.01Z" fill="#444444"/>
<path d="M158.341 160.558C156.993 160.853 155.982 161.527 154.34 163.253C151.812 165.907 151.265 167.634 152.023 170.54C153.034 174.373 157.962 177.448 161.542 176.522C163.859 175.89 164.407 175.132 163.522 173.784C162.806 172.689 162.427 172.52 159.858 172.057C158.173 171.804 156.572 170.077 156.572 168.519C156.572 166.623 157.457 165.612 159.815 164.896C162.385 164.096 162.764 163.548 162.174 161.611C161.753 160.094 161.121 159.926 158.341 160.558Z" fill="#444444"/>
<path d="M192.249 163.675C191.027 164.349 191.027 164.349 191.238 167.55C191.575 172.478 191.996 175.384 192.459 175.932C193.133 176.774 194.397 176.564 195.071 175.511C196.419 173.405 195.45 163.633 193.807 163.169C193.596 163.085 192.88 163.338 192.249 163.675Z" fill="#444444"/>
<path d="M202.568 163.717C200.715 164.601 199.746 166.118 199.114 169.024C198.819 170.33 198.482 171.341 198.356 171.214C198.019 170.92 196.587 172.31 196.587 172.941C196.587 173.194 197.556 174.079 198.777 174.837C200.546 175.974 201.389 176.227 203.284 176.269C206.57 176.269 207.96 175.469 209.308 172.689C210.318 170.709 210.445 170.077 210.15 168.477C209.897 166.918 209.476 166.328 207.623 164.812C205.18 162.832 204.632 162.706 202.568 163.717ZM205.685 169.193C206.022 170.54 205.432 171.593 204.253 171.762C203.411 171.888 203.369 171.762 203.621 170.498C204.085 168.013 205.222 167.255 205.685 169.193Z" fill="#444444"/>
<path d="M170.009 164.601C168.956 165.654 168.871 167.634 169.63 171.509C170.219 174.416 170.514 175.09 171.399 175.595C171.988 175.932 172.747 176.1 173.126 175.932C174.094 175.553 174.474 172.141 173.884 169.277C173.631 168.013 173.42 166.455 173.42 165.823C173.42 164.644 173.294 164.475 171.736 164.138C171.062 164.012 170.43 164.18 170.009 164.601Z" fill="#444444"/>
<path d="M213.141 166.244C210.613 168.477 210.613 174.71 213.141 177.238C214.025 178.122 214.32 178.164 215.12 177.743C216.131 177.196 216.131 177.364 215.289 172.183C214.994 170.372 215.71 169.782 217.226 170.583C218.237 171.13 220.638 176.143 221.438 179.386C221.944 181.576 221.986 181.576 223.46 181.45C224.892 181.323 224.934 181.239 225.103 179.47C225.314 177.448 225.314 177.49 222.955 172.689C222.112 170.962 221.438 169.277 221.438 169.024C221.438 168.729 220.47 167.718 219.29 166.792C216.679 164.728 215.078 164.601 213.141 166.244Z" fill="#444444"/>
<path d="M234.075 171.636C232.937 172.015 232.558 172.394 232.474 173.278C232.39 173.952 232.643 174.795 233.064 175.258C234.622 176.943 237.023 175.721 237.023 173.194C237.023 171.467 236.012 170.962 234.075 171.636Z" fill="#444444"/>
<path d="M3.3359 180.86C2.5356 181.113 1.44045 181.829 0.850759 182.376C-0.286508 183.472 -0.286508 183.682 0.935001 188.905C2.24075 194.592 2.91469 199.815 2.66196 203.016C2.5356 204.785 2.61984 210.008 2.87257 214.599C3.12529 219.232 3.25166 224.245 3.20953 225.761C3.16741 227.277 3.12529 229.004 3.16741 229.636C3.20953 230.268 3.04105 230.9 2.87257 231.026C2.45136 231.237 2.78832 233.006 3.71499 235.659C4.55741 238.187 4.9365 238.524 6.49497 238.271C7.25315 238.145 7.84284 238.145 7.7586 238.313C7.71648 238.482 7.88497 238.65 8.09557 238.734C8.3483 238.819 8.85375 239.156 9.23284 239.535C9.86465 240.082 11.5495 240.209 19.2998 240.293C26.6709 240.377 28.6927 240.503 28.9876 240.967C29.3246 241.472 29.4509 241.472 29.9142 240.925C30.5882 240.04 32.1888 239.998 33.3682 240.756C33.9157 241.093 34.5897 241.346 34.9266 241.304C36.106 241.177 36.5272 241.388 36.5272 242.104C36.5272 242.525 36.6957 243.031 36.9485 243.283C37.1591 243.494 37.3697 245.642 37.4118 248.001C37.4118 250.36 37.7066 253.182 38.0436 254.277C38.3806 255.33 38.6333 257.899 38.6333 259.963C38.6333 262.027 38.8439 264.133 39.0966 264.639C39.8548 266.029 39.8548 278.918 39.0966 279.802C38.7175 280.308 38.6754 280.687 38.9703 281.024C39.3915 281.613 39.3915 283.425 38.8439 287.51C38.5491 289.911 38.6333 290.248 39.7284 292.228C40.8236 294.166 41.0342 294.334 42.8033 294.587C43.8563 294.713 44.783 294.713 44.9093 294.545C45.2042 294.166 48.1526 293.913 51.5644 293.997C52.3226 293.997 53.5863 293.744 54.3866 293.407C55.5659 292.902 56.1135 292.902 57.4614 293.323C58.388 293.66 60.2414 293.786 61.7998 293.702C63.3162 293.618 64.9168 293.534 65.3801 293.492C66.9386 293.449 69.5922 293.786 70.1398 294.123C70.3925 294.334 70.8559 294.334 71.1086 294.208C71.3192 294.039 71.951 293.871 72.4565 293.786C72.9619 293.744 74.4783 293.534 75.8261 293.365C77.4689 293.155 78.4376 293.197 78.8167 293.534C79.2379 293.871 79.4907 293.913 79.7013 293.576C79.8276 293.365 80.5437 293.155 81.2176 293.155C81.9758 293.155 82.397 293.323 82.2285 293.576C82.1022 293.786 82.1443 293.997 82.397 293.997C82.6076 293.997 82.9025 293.829 83.0288 293.66C83.2816 293.239 92.127 293.07 92.127 293.492C92.127 293.66 95.1597 293.786 98.8663 293.744C102.573 293.744 105.606 293.829 105.606 293.955C105.606 294.081 107.838 294.25 110.576 294.25C113.272 294.292 118.832 294.418 122.875 294.587C134.248 294.966 151.981 294.882 153.539 294.46C154.298 294.208 156.825 294.123 159.184 294.25C161.542 294.334 165.038 294.208 166.976 293.997C168.914 293.744 175.274 293.449 181.129 293.365C194.481 293.113 201.052 292.776 204.801 292.27C206.443 292.017 210.613 291.765 214.067 291.68C217.563 291.554 222.576 291.386 225.229 291.217C227.883 291.091 231.505 291.006 233.232 291.049C234.959 291.091 237.065 291.133 237.866 291.091C242.499 290.964 257.999 290.67 269.962 290.459C277.544 290.333 284.62 290.038 285.673 289.785C286.768 289.532 287.779 289.448 287.948 289.532C288.664 289.996 323.371 290.248 324.93 289.785C325.814 289.574 327.204 288.774 328.005 288.016C329.437 286.71 329.437 286.626 329.605 282.751C329.732 280.392 329.563 278.033 329.268 276.854C328.973 275.717 328.594 273.611 328.384 272.094C328.215 270.578 327.668 267.292 327.204 264.765C326.151 258.826 325.309 248.97 325.646 245.769C326.193 240.293 326.404 236.207 326.151 235.238C325.856 234.017 324.761 233.89 322.908 234.817C321.897 235.365 319.917 235.449 311.451 235.407C305.849 235.365 299.826 235.575 298.099 235.828C282.345 238.103 273.121 238.271 243.341 236.67C238.834 236.418 229.905 236.039 223.544 235.87C217.184 235.659 210.15 235.323 207.96 235.07C205.769 234.859 200.462 234.522 196.166 234.396C191.87 234.269 186.857 234.101 185.004 233.975C183.15 233.89 179.191 233.975 176.158 234.185C173.168 234.396 167.271 234.691 163.101 234.859C158.931 235.028 154.845 235.196 154.045 235.28C153.245 235.365 144.989 235.407 135.722 235.449C126.456 235.449 117.821 235.617 116.557 235.828C112.345 236.586 89.6839 236.586 83.7028 235.87C81.7231 235.659 75.5734 235.365 70.0134 235.238C64.4535 235.112 55.6502 234.943 50.4272 234.817L40.95 234.606L40.613 231.11C40.4445 229.215 40.1075 227.067 39.8969 226.351C39.6442 225.635 39.4757 223.107 39.4757 220.664C39.4757 218.264 39.2651 214.936 39.0124 213.335C38.8018 211.693 38.4227 207.902 38.2121 204.911C38.0015 201.878 37.7488 198.593 37.5803 197.582C37.4539 196.529 37.496 195.308 37.7488 194.844C38.4648 193.328 39.4757 189.453 39.4757 188.063C39.4757 187.262 38.9703 185.957 38.2121 184.862C37.5382 183.851 36.9485 182.798 36.9485 182.545C36.9485 181.618 35.0951 181.197 32.947 181.618C29.4088 182.25 22.4588 182.671 21.4479 182.292C20.9004 182.124 19.0892 181.829 17.4464 181.702C15.7616 181.576 12.8131 181.197 10.8756 180.86C6.70558 180.144 5.23134 180.144 3.3359 180.86ZM7.67436 186.589C7.80072 186.799 8.60102 187.01 9.3592 187.01C10.5386 187.01 10.7492 187.136 10.5386 187.726C10.328 188.273 10.4543 188.358 11.2968 188.105C13.5713 187.389 14.2031 187.347 14.2031 187.852C14.2031 188.231 14.7086 188.315 16.0143 188.105C16.9831 187.979 19.4261 188.105 21.4058 188.4C23.7225 188.779 25.4073 188.821 26.0391 188.568C26.5867 188.358 28.5664 188.189 30.4197 188.147L33.7894 188.063L33.9157 189.663C34 190.548 33.7473 192.106 33.3261 193.159C32.7364 194.718 32.6521 195.813 32.9048 199.983C33.0733 202.679 33.2839 206.807 33.4103 209.123C33.4945 211.398 33.7894 213.967 34 214.81C34.2106 215.652 34.2527 217.337 34.0421 218.685C33.8736 220.033 33.8736 221.128 34.0842 221.128C34.2527 221.128 34.4212 222.349 34.4212 223.823C34.4212 225.34 34.5897 226.646 34.8003 226.814C35.39 227.151 35.2215 232.922 34.6739 232.922C34.4212 232.922 34.4633 233.09 34.8003 233.301C35.5585 233.764 26.2497 234.185 17.5728 234.059C11.9286 233.975 10.8756 234.059 9.69617 234.733L8.3483 235.491L8.39042 227.572C8.43254 220.285 8.39042 204.027 8.30618 199.014C8.26405 197.835 8.05345 196.066 7.84284 195.013C7.59012 193.96 7.33739 192.275 7.25315 191.222C7.16891 190.169 6.9583 188.61 6.83194 187.726C6.53709 186.252 7.04255 185.535 7.67436 186.589ZM207.075 240.124C209.223 240.335 211.245 240.672 211.498 240.798C211.751 240.967 217.732 241.177 224.808 241.262C244.1 241.472 251.386 241.725 253.914 242.188C255.135 242.441 261.664 242.736 268.361 242.82C278.218 243.031 281.461 242.946 285.041 242.399C287.484 242.02 290.306 241.641 291.359 241.514C292.412 241.43 295.614 241.093 298.52 240.756C303.785 240.209 320.381 240.166 321.265 240.714C321.602 240.925 321.56 241.177 321.223 241.599C320.296 242.736 320.086 245.052 320.718 247.959C321.055 249.517 321.392 252.424 321.518 254.403C321.602 256.383 321.897 259.079 322.108 260.385C322.36 261.69 322.655 264.386 322.739 266.366C322.866 268.345 323.119 270.409 323.329 270.915C323.54 271.462 323.708 272.052 323.75 272.305C323.75 272.515 323.877 273.484 323.961 274.411C324.087 275.337 324.256 276.938 324.382 277.991C324.466 279.044 324.761 280.434 325.056 281.108C325.814 283.172 325.435 283.467 321.981 283.467C320.254 283.467 317.98 283.72 316.927 284.057C315.705 284.436 314.947 284.478 314.863 284.225C314.652 283.635 311.156 283.298 308.84 283.677C307.365 283.888 306.944 284.099 307.113 284.562C307.492 285.573 305.849 285.236 305.133 284.141L304.459 283.13L291.907 283.298C284.999 283.383 270.341 283.551 259.347 283.677C237.36 283.93 233.19 284.099 232.769 284.773C232.601 285.067 232.432 284.983 232.264 284.562C232.053 284.014 231.253 283.888 228.136 283.888C224.303 283.888 216.215 284.351 207.117 285.152C204.464 285.362 199.536 285.657 196.166 285.783C185.678 286.163 182.097 286.457 181.002 287.047C180.413 287.342 178.812 287.721 177.422 287.89C176.032 288.016 174.221 288.226 173.421 288.353C171.736 288.606 154.003 289.406 148.358 289.49C146.295 289.532 140.692 289.448 135.933 289.237C131.173 289.069 122.96 288.816 117.61 288.732C112.303 288.606 104.426 288.226 100.13 287.89C94.1488 287.426 87.4094 287.342 71.0665 287.51C59.3568 287.679 48.7002 287.89 47.3945 288.058C44.3196 288.479 43.4772 287.805 44.109 285.531C44.8672 282.709 44.9936 271.715 44.2775 266.408C43.9405 263.628 43.4772 259.837 43.2666 257.984C43.0981 256.13 42.719 253.013 42.4663 251.034C41.5396 243.326 41.4975 241.851 42.3821 241.388C42.8875 241.093 45.6675 241.051 50.2587 241.262C54.1759 241.472 57.7984 241.472 58.2617 241.304C58.8514 241.093 59.399 241.219 59.8202 241.683C60.452 242.272 60.5783 242.272 61.3365 241.599C62.0526 240.925 63.1056 240.882 73.6358 241.135C79.9119 241.262 85.7667 241.556 86.6091 241.809C88.1255 242.23 104.3 242.104 113.819 241.556C117.905 241.304 123.591 241.177 125.108 241.304C126.75 241.43 151.855 240.925 152.36 240.756C152.697 240.63 157.457 240.461 162.89 240.335C168.324 240.209 173.378 239.914 174.052 239.703C175.611 239.198 201.473 239.535 207.075 240.124Z" fill="#444444"/>
<path d="M131.299 248.928C128.814 249.18 123.97 251.286 124.392 251.96C124.518 252.171 124.476 252.55 124.265 252.845C123.633 253.729 123.633 255.583 124.349 256.889C124.686 257.605 124.981 258.236 124.981 258.279C124.939 258.363 125.066 258.742 125.192 259.163C125.36 259.542 125.402 260.511 125.276 261.269C125.15 262.112 125.318 262.87 125.697 263.333C126.203 263.881 126.329 265.523 126.371 271.21C126.413 275.127 126.54 278.412 126.666 278.497C126.792 278.581 127.424 278.918 128.098 279.255C129.235 279.844 129.32 279.802 130.289 278.707C130.836 278.075 131.173 277.275 131.047 276.938C130.71 276.054 131.805 272.473 132.479 272.178C132.942 272.01 132.942 271.926 132.479 271.631C132.015 271.336 132.015 271.252 132.521 271.252C132.816 271.252 133.869 271.926 134.838 272.768C136.817 274.453 136.817 274.453 139.092 275.885C141.071 277.149 142.377 277.738 144.315 278.37C146.379 279.044 147.221 278.96 147.516 278.033C147.811 277.064 144.273 273.021 141.703 271.378C139.85 270.199 138.586 269.23 137.66 268.177C137.323 267.798 136.775 267.461 136.522 267.461C136.27 267.461 135.806 267.166 135.512 266.829C134.922 266.113 134.922 266.113 139.176 262.533C142.588 259.669 143.472 256.762 141.872 253.603C140.903 251.75 138.418 249.433 137.07 249.18C134.964 248.759 133.49 248.675 131.299 248.928ZM136.607 254.909C136.902 255.119 137.238 255.962 137.407 256.804C137.618 258.026 137.533 258.489 136.944 258.91C136.565 259.205 135.722 259.879 135.09 260.385C134.501 260.932 133.405 261.69 132.647 262.112C131.342 262.87 131.342 262.87 131.131 261.901C131.005 261.353 130.583 259.626 130.204 258.068C129.825 256.467 129.699 254.993 129.867 254.825C130.668 254.066 135.638 254.109 136.607 254.909Z" fill="#444444"/>
<path d="M199.114 249.559C198.777 249.644 197.766 249.812 196.924 249.981C195.197 250.233 192.796 252.003 192.796 252.971C192.796 254.193 195.323 255.204 198.23 255.204C201.684 255.204 202.61 255.372 202.821 256.13C202.947 256.467 203.242 256.846 203.495 257.015C203.79 257.226 203.958 260.258 203.958 266.45C203.958 274.916 204.042 275.59 204.801 276.138C206.064 277.064 207.454 276.854 208.255 275.59C208.886 274.621 209.013 273.442 209.013 267.25C209.013 263.333 208.928 259.037 208.802 257.773L208.592 255.456L211.456 255.625C215.584 255.836 218.027 254.656 218.069 252.466C218.069 251.034 217.142 250.613 213.183 250.36C211.119 250.233 208.17 249.981 206.612 249.728C203.916 249.349 200.462 249.307 199.114 249.559Z" fill="#444444"/>
<path d="M146.884 250.655C145.579 251.497 145.242 252.887 146.042 254.361C146.252 254.782 146.463 255.878 146.505 256.846C146.589 257.815 146.884 258.7 147.179 258.784C147.474 258.91 147.727 259.205 147.727 259.5C147.727 259.753 147.432 259.879 147.095 259.711C146.547 259.5 146.547 259.584 147.095 260.469C147.432 260.974 147.6 261.564 147.432 261.69C147.305 261.859 147.474 262.238 147.853 262.533C148.99 263.333 150.38 271.125 150.17 275.38L150.043 278.202L151.897 278.328C153.16 278.412 154.003 278.202 154.508 277.738C155.056 277.233 155.603 277.149 156.446 277.359C157.078 277.528 158.51 277.738 159.605 277.781C160.7 277.865 161.795 278.033 162.006 278.202C162.258 278.328 162.68 278.328 162.974 278.16C163.227 277.991 164.617 277.907 166.049 277.949C168.366 278.033 168.829 277.907 169.84 276.98C171.062 275.843 171.02 274.621 169.756 274.621C169.335 274.621 168.619 274.369 168.155 274.032C167.313 273.484 165.038 273.063 160.574 272.684C156.025 272.305 155.308 271.673 155.308 268.219V266.661L157.541 266.408C158.72 266.282 160.531 266.113 161.5 266.029C163.691 265.818 164.154 265.523 164.154 264.386C164.112 262.954 162.722 261.564 161.332 261.564C160.7 261.564 158.594 261.353 156.698 261.101L153.202 260.595L152.781 259.079C152.065 256.425 152.192 256.088 153.961 256.046C154.803 256.004 155.73 255.962 155.94 255.92C160.363 255.119 162.595 254.446 162.974 253.814C163.522 253.013 163.354 250.191 162.764 250.191C162.469 250.191 159.057 250.107 155.182 250.023C148.948 249.896 148.022 249.981 146.884 250.655Z" fill="#444444"/>
<path d="M178.475 252.297C177.675 252.719 176.706 253.098 176.327 253.14C175.611 253.14 174.094 254.656 172.62 256.804C171.82 257.984 171.778 258.363 172.157 260.09C172.41 261.143 172.831 262.406 173.126 262.912C173.378 263.375 175.99 265.355 178.896 267.292C181.803 269.23 184.667 271.252 185.341 271.799C186.394 272.684 186.436 272.852 185.888 273.568C185.383 274.284 184.793 274.411 182.182 274.369C180.16 274.369 178.644 274.116 177.759 273.653C176.074 272.768 174.937 272.768 173.631 273.611C171.399 275.085 172.789 276.938 177.548 278.876C181.002 280.224 181.676 280.308 185.509 279.634C187.657 279.255 188.458 278.876 189.637 277.696C191.448 275.885 191.575 273.948 190.1 270.957C188.795 268.43 187.068 266.745 183.319 264.512C180.202 262.659 176.79 259.626 176.79 258.784C176.79 257.773 180.413 256.804 182.898 257.099C185.383 257.394 188.121 256.594 188.205 255.583C188.331 254.235 188.037 252.887 187.573 252.382C187.278 252.045 185.636 251.792 183.487 251.666C180.581 251.497 179.697 251.623 178.475 252.297Z" fill="#444444"/>
<path d="M107.585 190.127C106.238 190.674 104.131 191.98 102.826 192.949C101.52 193.96 99.456 195.392 98.2345 196.066C97.013 196.782 95.5809 197.835 95.1176 198.467C94.6121 199.056 93.6854 199.688 93.0115 199.857C92.3376 199.983 91.5373 200.404 91.2424 200.741C90.9897 201.078 90.4843 201.331 90.1473 201.331C89.3049 201.331 84.9664 203.437 84.9664 203.858C84.9664 204.027 84.5031 204.322 83.9134 204.448C83.3658 204.574 81.3861 206.175 79.5749 207.986C75.5734 211.988 73.4674 213.462 67.9495 216.158C64.0323 218.095 63.6953 218.179 63.1898 217.505C62.895 217.084 62.6423 216.494 62.6423 216.2C62.6423 214.852 61.3365 213.167 60.115 212.914C58.4723 212.577 57.9668 212.998 55.6502 216.494C54.0917 218.811 52.7438 220.58 50.8905 222.602C50.6799 222.813 49.5426 223.95 48.3632 225.087C46.0887 227.277 45.836 228.078 46.4678 231.237C46.8048 232.795 47.5629 233.217 48.8687 232.585C50.5114 231.784 52.112 231.7 52.112 232.374C52.112 232.837 52.3226 232.922 52.8702 232.669C54.2181 232.079 57.672 231.953 58.009 232.5C58.2196 232.88 59.6517 233.048 62.3474 233.09C66.0119 233.132 66.4753 233.048 67.4441 232.121C67.9916 231.616 68.5813 230.689 68.7077 230.142C69.0025 229.004 67.5283 225.34 66.8122 225.34C66.1383 225.34 66.5595 222.728 67.2756 222.391C71.235 220.58 73.1725 219.527 74.3519 218.516C75.1101 217.884 75.8683 217.337 76.0367 217.337C76.2052 217.337 77.0055 216.705 77.8058 215.947C83.1973 210.977 84.7137 209.713 86.1458 209.039C86.9882 208.66 88.8415 207.649 90.2315 206.807C91.6215 205.964 93.4327 204.953 94.233 204.532C99.1191 202.089 104.384 198.214 111.25 192.022C112.724 190.674 112.851 190.379 112.387 189.79C111.629 188.863 110.45 188.947 107.585 190.127Z" fill="#444444"/>
<path d="M75.6155 302.758C74.8573 303.601 73.9307 304.949 73.6358 305.707C73.341 306.423 72.9198 307.055 72.7092 307.055C72.4986 307.055 72.3722 307.223 72.4564 307.434C72.6249 308.065 69.2974 312.488 65.4643 316.827C63.1477 319.438 62.6844 320.66 62.8107 323.692C62.895 325.588 63.948 327.273 65.0431 327.273C65.338 327.273 65.5907 327.441 65.5907 327.694C65.5907 328.368 67.1071 328.199 67.7389 327.441C68.0337 327.104 68.6234 326.894 69.0446 326.978C69.4658 327.104 69.8028 327.02 69.8028 326.809C69.8028 326.599 70.0134 326.43 70.224 326.43C70.4767 326.43 70.6452 326.936 70.6452 327.568C70.6452 328.494 70.7295 328.621 71.0664 328.115C71.4034 327.61 71.4876 327.652 71.4876 328.368C71.4876 328.831 71.3613 329.379 71.1928 329.547C70.7295 329.968 70.7716 332.706 71.1928 332.454C71.5719 332.243 71.2349 338.856 70.6452 342.647C70.3083 344.963 70.224 346.396 70.224 350.271C70.224 352.84 71.9089 355.452 73.341 355.115C73.5516 355.073 73.8885 355.283 74.057 355.578C74.3098 355.957 74.4361 355.957 74.4361 355.62C74.4361 355.367 74.8994 354.567 75.4891 353.893C76.4579 352.714 76.5 352.377 76.4579 347.659C76.4579 342.352 76.7528 337.634 77.2161 336.876C77.3846 336.624 77.4688 334.812 77.4267 332.875C77.3425 330.137 77.511 329.042 78.0585 328.241C78.6061 327.357 78.8167 327.273 79.1537 327.736C79.4485 328.199 79.617 328.199 79.7855 327.778C79.8697 327.525 80.3331 327.273 80.7543 327.273C81.1755 327.273 81.5967 327.525 81.7231 327.778C81.8494 328.199 82.1021 328.199 82.6918 327.862C83.1552 327.61 84.7136 327.483 86.23 327.568C88.9257 327.694 89.01 327.652 89.7682 326.388C90.6527 324.914 90.4421 323.608 89.0521 322.176C86.3564 319.354 82.8603 312.741 82.8603 310.466C82.8603 309.877 82.6918 308.697 82.4812 307.897C82.2285 307.097 81.8915 305.665 81.6388 304.696C80.6279 300.821 78.1006 300.02 75.6155 302.758Z" fill="#444444"/>
<path d="M181.971 351.871C181.339 353.219 181.339 353.514 181.971 355.789C182.392 357.179 182.687 358.779 182.687 359.369C182.687 360.422 182.645 360.464 181.002 360.085C180.033 359.874 178.896 359.453 178.433 359.158C177.759 358.737 177.338 358.821 176.032 359.537C173.842 360.801 173.378 362.317 174.684 363.707C175.274 364.339 176.032 364.718 176.411 364.634C176.748 364.55 177.422 364.718 177.843 365.013C178.264 365.35 178.98 365.603 179.402 365.603C179.823 365.603 180.16 365.771 180.16 365.982C180.16 366.192 180.581 366.529 181.129 366.698C182.687 367.161 183.487 368.341 183.572 370.32C183.614 371.289 183.614 372.3 183.529 372.553C183.487 372.763 183.445 374.153 183.487 375.628C183.529 377.902 183.698 378.365 184.625 379.208C187.699 381.904 188.584 380.682 188.584 373.648C188.584 370.868 188.71 368.509 188.921 368.425C189.089 368.341 190.648 368.425 192.417 368.678C196.166 369.183 197.682 368.888 198.061 367.667C198.398 366.656 197.092 365.182 195.829 365.182C195.408 365.182 194.86 364.971 194.565 364.676C194.312 364.423 193.639 364.171 193.049 364.086C191.827 363.96 188.921 362.654 188.5 362.065C188.373 361.854 188.121 360.801 187.952 359.748C187.278 354.904 185.088 350.439 183.445 350.439C182.982 350.439 182.392 350.987 181.971 351.871Z" fill="#444444"/>
<path d="M218.49 354.609C217.69 354.82 217.395 355.199 217.311 356.294C217.226 357.052 217.353 357.895 217.563 358.147C217.774 358.442 218.364 359.748 218.911 361.138L219.88 363.581L218.911 364.339C218.364 364.76 217.268 365.224 216.468 365.35C212.003 366.066 212.719 369.857 217.353 370.068C218.532 370.152 219.711 370.194 219.88 370.194C220.091 370.236 220.091 370.405 219.964 370.657C219.838 370.868 219.88 371.079 220.133 371.079C220.427 371.079 220.554 372.763 220.512 375.67C220.47 379.966 220.512 380.345 221.481 381.482C222.197 382.325 222.786 382.62 223.587 382.535C225.145 382.367 225.777 380.135 225.819 374.785L225.861 370.447L227.841 370.194C230.157 369.857 230.705 369.562 230.705 368.72C230.705 367.288 231.421 368.383 232.348 371.163C232.853 372.848 233.485 374.575 233.696 374.954C233.906 375.417 233.864 375.712 233.527 375.838C233.274 375.922 233.78 376.007 234.664 376.049C235.591 376.091 236.56 375.922 236.855 375.67C237.823 374.869 237.992 372.553 237.234 369.983C236.223 366.445 234.201 365.097 232.643 366.824C231.8 367.751 230.284 367.835 230.284 366.993C230.284 366.319 228.852 365.519 226.704 364.971C225.271 364.592 225.019 364.297 224.766 363.118C224.597 362.317 224.26 361.306 224.05 360.801C223.797 360.338 223.207 359.032 222.744 357.979C221.438 355.157 220.217 354.188 218.49 354.609Z" fill="#444444"/>
<path d="M100.509 358.526C99.4139 359.748 99.2875 360.169 99.3718 362.107C99.456 363.328 99.6245 364.339 99.793 364.339C100.13 364.339 100.804 369.225 100.593 370.194C100.551 370.489 100.678 370.615 100.93 370.489C101.394 370.194 102.447 373.185 103.036 376.554C103.373 378.492 103.331 378.913 102.741 379.376C102.068 379.882 102.068 379.924 102.784 379.671C103.289 379.461 103.5 379.629 103.5 380.261C103.5 380.766 103.71 381.272 103.921 381.398C104.174 381.525 104.342 382.325 104.342 383.125C104.342 383.925 104.511 384.557 104.763 384.557C104.974 384.557 105.521 384.978 105.985 385.442C107.627 387.253 109.228 385.063 108.765 381.609C108.638 380.556 108.47 378.871 108.344 377.818C108.133 375.796 106.954 371.247 105.858 368.214C105.479 367.203 105.142 365.055 105.142 363.413C105.1 361.812 104.932 359.916 104.721 359.158C104.047 356.757 102.362 356.505 100.509 358.526Z" fill="#444444"/>
<path d="M230.537 359.327C229.947 359.79 229.441 360.506 229.441 360.927C229.441 362.823 232.516 363.75 234.454 362.402C235.17 361.854 235.338 361.475 235.128 360.633C234.58 358.442 232.432 357.81 230.537 359.327Z" fill="#444444"/>
<path d="M53.9232 364.803C53.6284 365.097 52.786 365.35 52.0278 365.434C51.2696 365.519 49.332 365.856 47.6893 366.192C46.0887 366.572 43.8142 366.866 42.6348 366.866C39.6021 366.866 38.886 367.161 38.0436 368.72C37.1169 370.489 37.496 372.342 38.8018 372.342C39.5178 372.342 39.56 372.426 39.0545 372.763C37.833 373.564 39.6021 373.227 41.3712 372.342C42.8875 371.542 43.056 371.542 43.6878 372.174C44.2775 372.805 44.2354 372.848 43.6036 372.637C43.1824 372.469 42.8454 372.553 42.8454 372.763C42.8454 373.353 44.4039 373.311 44.783 372.721C44.9093 372.469 45.4148 372.342 45.836 372.469C46.2572 372.595 46.6784 372.469 46.8048 372.174C46.9311 371.879 47.226 371.963 47.6051 372.426C47.942 372.848 48.4054 373.185 48.616 373.185C49.2478 373.185 49.5848 377.902 49.0372 378.576C48.7423 378.955 48.7423 379.25 49.0372 379.418C49.6269 379.84 49.9638 381.862 49.5005 382.535C49.2478 382.957 49.0793 382.957 48.8266 382.578C48.616 382.241 48.279 382.198 47.8999 382.451C47.563 382.704 46.0887 382.872 44.6145 382.872C42.2136 382.872 41.7924 382.999 40.6551 384.136C39.6863 385.105 39.4336 385.652 39.6442 386.453C39.8127 387.169 39.6863 387.59 39.1809 387.885C38.4648 388.306 38.4648 388.306 39.223 388.348C39.8127 388.348 39.939 388.559 39.7284 389.359C39.6021 389.949 39.6442 390.538 39.8969 390.665C40.1075 390.791 40.3181 390.665 40.3181 390.328C40.3181 389.612 42.2978 388.643 42.6348 389.191C42.8033 389.443 42.5927 389.612 42.2557 389.612C41.8766 389.612 41.5818 389.822 41.5818 390.075C41.5818 390.286 41.7081 390.412 41.9187 390.286C42.0872 390.201 43.1402 390.286 44.2775 390.496C45.9624 390.791 46.552 390.749 47.3945 390.201C48.0684 389.738 48.5317 389.654 48.7002 389.991C49.1214 390.665 50.8484 390.033 50.8484 389.191C50.8484 388.559 51.7751 388.095 53.8811 387.758C54.0075 387.716 54.3023 387.59 54.4708 387.379C54.6393 387.211 55.0184 387.085 55.3553 387.085C56.1135 387.085 60.1993 384.557 60.9995 383.588C61.3786 383.125 61.5892 382.409 61.505 381.988C61.2944 381.314 60.8732 381.188 58.8093 381.188C56.9559 381.188 56.2399 381.019 56.0714 380.556C55.9029 380.219 55.6502 380.008 55.4817 380.135C55.1026 380.387 54.5129 378.997 54.3866 377.607C54.3444 377.144 54.1759 375.291 54.0075 373.479C53.7126 370.489 53.7126 370.236 54.4708 370.152C56.1556 370.026 56.5768 369.941 57.7984 369.436C58.5144 369.183 59.2726 368.888 59.5253 368.804C60.3677 368.509 61.3365 365.898 60.9153 365.097C60.5783 364.466 59.9465 364.339 57.4614 364.339C55.7344 364.339 54.1759 364.55 53.9232 364.803Z" fill="#444444"/>
<path d="M204.042 366.024C202.147 366.951 196.25 371.921 196.208 372.595C196.166 372.848 195.787 373.395 195.323 373.816C194.86 374.238 194.565 374.659 194.692 374.785C194.776 374.912 194.692 375.333 194.439 375.754C193.428 377.692 196.671 380.345 200.083 380.345C201.979 380.345 205.138 378.197 206.738 375.88C208.17 373.774 208.549 373.564 208.297 375.038C208.17 375.67 208.297 376.175 208.634 376.302C208.971 376.428 209.518 377.186 209.897 377.986C210.613 379.419 213.351 381.188 214.91 381.188C215.963 381.188 217.648 379.545 217.353 378.829C217.226 378.534 216.426 377.439 215.499 376.47C213.478 374.238 210.824 368.973 210.908 367.414C211.077 365.182 211.035 365.182 208.297 365.182C206.57 365.224 205.096 365.476 204.042 366.024ZM203.832 372.637C203.369 373.269 202.4 374.153 201.684 374.575C199.451 375.88 200.294 374.28 202.905 372.258C204.632 370.91 204.969 371.036 203.832 372.637Z" fill="#444444"/>
<path d="M259.516 366.529C257.705 368.425 257.368 369.183 256.904 372.553C256.188 377.86 256.989 380.345 259.39 380.345C261.285 380.345 261.833 379.039 261.79 374.743C261.748 372.595 261.917 370.868 262.169 370.615C263.686 369.099 269.541 377.228 269.625 380.977C269.667 382.62 269.709 382.662 271.31 382.788C272.658 382.914 273.121 382.746 273.753 381.946C274.174 381.398 274.511 380.556 274.511 380.008C274.511 378.492 271.942 373.227 269.793 370.447C266.803 366.529 265.413 365.519 262.928 365.308C260.99 365.182 260.695 365.266 259.516 366.529Z" fill="#444444"/>
<path d="M246.416 366.024C244.942 366.487 242.92 368.636 242.92 369.815C242.92 370.236 242.625 371.5 242.246 372.679C241.572 374.701 241.572 374.869 242.415 376.007C243.426 377.439 245.869 378.197 249.365 378.197C251.639 378.155 251.934 378.071 253.661 376.428C256.315 373.943 256.399 373.1 254.293 369.941C253.324 368.509 252.187 367.035 251.766 366.656C250.797 365.813 248.227 365.476 246.416 366.024ZM248.817 370.784C248.817 371.121 249.322 371.584 249.912 371.879C251.302 372.511 251.049 373.269 249.28 373.732C247.553 374.153 247.343 373.985 247.89 372.384C248.185 371.584 248.185 371.079 247.932 371.079C247.722 371.079 247.553 370.868 247.553 370.657C247.553 370.405 247.848 370.236 248.185 370.236C248.522 370.236 248.817 370.489 248.817 370.784Z" fill="#444444"/>
<path d="M168.577 366.403C166.892 367.161 165.797 368.888 164.954 372.132C164.533 373.943 164.154 375.628 164.196 375.88C164.322 377.06 164.028 377.355 162.174 377.944C157.33 379.461 156.783 379.25 158.931 376.849C159.773 375.922 160.911 374.153 161.458 372.89C162.427 370.699 162.469 370.573 161.753 369.604C160.616 368.088 158.636 367.288 155.856 367.288C152.444 367.33 150.085 368.425 149.369 370.405C149.075 371.247 148.695 371.921 148.569 371.921C148.401 371.921 148.064 372.384 147.811 372.974C147.179 374.364 146.547 374.322 146.21 372.848C145.747 371.036 143.515 366.951 142.841 366.698C141.998 366.361 140.65 367.077 138.966 368.804L137.618 370.194L136.48 369.141C135.596 368.341 135.09 368.172 133.995 368.383C132.732 368.593 132.521 368.509 132.142 367.54C131.636 366.193 131.384 366.193 129.573 367.414C128.225 368.341 128.14 368.551 127.803 371.71C127.509 374.532 127.593 375.164 128.14 375.543C128.477 375.796 128.772 376.217 128.772 376.47C128.772 376.723 129.278 377.986 129.867 379.292C130.878 381.398 131.047 381.567 132.1 381.356C133.7 380.935 133.658 380.977 134.206 378.829L134.711 376.849L136.48 377.102C138.46 377.355 140.566 376.428 140.566 375.206C140.566 373.69 141.282 374.153 141.998 376.175C142.419 377.312 142.925 378.239 143.135 378.239C143.346 378.239 143.894 378.618 144.357 379.082C145.115 379.84 145.242 379.84 145.831 379.208C146.421 378.618 146.674 378.618 147.642 379.124C148.232 379.461 149.327 380.303 150.085 381.061C150.844 381.819 151.939 382.535 152.528 382.704C153.118 382.83 153.624 383.125 153.624 383.294C153.624 383.841 159.352 383.42 160.616 382.746C161.29 382.409 162.301 381.609 162.848 381.019C164.154 379.629 165.165 379.629 165.754 380.977C166.344 382.283 167.861 382.367 169.251 381.23C170.304 380.387 170.346 379.924 170.009 374.153C169.924 372.721 169.967 371.416 170.135 371.289C170.261 371.121 170.851 371.247 171.399 371.542C173.378 372.595 174.558 374.238 175.358 377.018C176.243 380.219 177.254 381.23 178.433 380.177C178.854 379.798 179.36 379.503 179.612 379.503C180.37 379.503 180.665 377.27 180.202 375.249C179.697 372.974 178.559 370.236 178.138 370.236C177.97 370.236 177.464 369.646 177.001 368.973C175.695 367.035 170.683 365.519 168.577 366.403ZM154.887 372.384C154.887 372.637 155.098 372.679 155.435 372.469C156.277 371.921 156.993 371.963 156.993 372.553C156.993 373.142 154.382 375.291 153.666 375.291C153.034 375.291 153.076 373.058 153.708 372.426C154.34 371.795 154.887 371.795 154.887 372.384Z" fill="#444444"/>
<path d="M114.957 369.057C113.272 370.11 112.766 371.289 112.766 374.069C112.766 375.754 112.64 376.133 112.05 376.133C110.913 376.175 109.818 377.186 109.439 378.576C109.102 379.629 109.228 380.008 109.986 380.724C110.492 381.23 111.334 381.609 111.84 381.609C113.314 381.609 114.788 382.493 115.041 383.546C115.209 384.094 115.841 384.894 116.473 385.273C117.105 385.695 117.779 386.242 117.947 386.537C118.116 386.832 118.537 387.085 118.874 387.085C119.169 387.085 119.548 387.337 119.674 387.59C119.885 388.011 119.969 388.011 120.18 387.59C120.306 387.337 120.769 387.085 121.148 387.085C121.78 387.085 124.139 385.315 126.582 382.957C127.466 382.156 126.919 381.398 125.571 381.44C123.886 381.525 121.654 382.072 121.401 382.493C121.064 382.999 119.169 381.061 118.874 379.882C118.621 378.913 118.79 378.745 120.306 378.239C121.275 377.944 122.033 377.523 122.033 377.312C122.033 377.144 122.286 376.975 122.58 376.975C123.507 376.933 125.023 375.375 125.403 373.985C125.74 372.806 125.655 372.469 124.434 371.036C121.949 368.172 117.737 367.246 114.957 369.057ZM119.927 373.606C119.927 373.985 118.874 374.448 117.989 374.448C117.147 374.448 117.273 373.269 118.158 373.1C119.042 372.89 119.927 373.142 119.927 373.606Z" fill="#444444"/>
<path d="M64.9589 372.258C62.7686 374.406 61.4628 376.933 62.2631 377.397C62.558 377.607 62.5159 378.029 62.221 378.829C61.9262 379.671 61.9262 379.882 62.2631 379.671C62.6001 379.503 62.6422 379.713 62.4316 380.345C62.221 380.977 62.2631 381.188 62.6001 381.019C62.895 380.808 63.0634 381.188 63.0634 381.988C63.0634 382.915 63.274 383.294 63.7374 383.294C64.2007 383.294 64.3692 383.546 64.2007 384.094C63.7795 385.737 66.4331 387.337 67.9916 386.326C68.5813 385.947 69.4237 382.62 69.0446 382.241C68.8761 382.114 69.0446 381.777 69.3816 381.567C69.8449 381.23 69.887 381.061 69.5079 380.893C69.1289 380.766 68.9604 379.84 69.0025 378.323L69.0446 375.922L69.5501 377.439C70.1398 379.292 70.8558 380.219 72.3722 381.019C73.8885 381.777 75.2785 381.777 75.2785 380.977C75.2785 380.64 75.4891 380.345 75.7419 380.345C75.9946 380.345 76.0788 380.05 75.9525 379.671C75.784 379.25 75.9103 379.082 76.2052 379.208C76.5 379.292 76.7528 379.84 76.7528 380.387C76.7528 380.935 77.0055 381.398 77.3003 381.398C77.9743 381.398 79.0694 383.504 79.0694 384.81C79.0694 385.358 79.2379 385.821 79.4485 385.821C79.9961 385.821 80.8806 388.643 80.5437 389.191C80.333 389.528 80.8385 389.612 82.0179 389.485C84.2503 389.275 85.3454 387.969 85.3876 385.695C85.3876 384.641 85.556 384.178 85.8509 384.389C86.1036 384.515 86.23 385.105 86.1036 385.652C86.0194 386.242 86.1457 386.705 86.5248 386.832C86.9039 387 86.9882 387.421 86.8197 388.095C86.6933 388.685 86.8618 389.654 87.2409 390.37C88.0833 392.013 88.1254 393.15 87.283 392.855C86.946 392.687 86.567 392.771 86.4406 392.981C86.2721 393.234 86.567 393.403 87.0303 393.403C87.9991 393.403 88.1254 393.908 87.4515 395.172C87.1145 395.761 87.1145 396.141 87.4515 396.478C87.7042 396.73 87.9148 397.362 87.9148 397.825C87.9148 399.131 89.3048 400.268 90.4421 399.931C92.506 399.257 93.559 394.961 92.6745 390.665C91.9584 387.253 92.0006 386.242 92.7587 386.242C93.8539 386.242 96.4654 384.726 97.6448 383.42C99.7087 381.145 100.256 379.924 99.7508 378.787C99.4981 378.239 99.3717 377.607 99.4981 377.397C99.6245 377.228 98.6557 376.344 97.3921 375.459C95.3702 374.069 94.6542 373.816 92.0006 373.648C89.3469 373.437 88.7151 373.522 87.0724 374.364C86.0194 374.912 84.6294 376.007 83.9976 376.807C83.3236 377.607 82.6497 378.239 82.4391 378.239C82.2285 378.239 81.8494 377.523 81.5546 376.639C80.7964 374.238 79.0273 371.921 77.9321 371.921C77.3425 371.921 76.4158 372.595 75.447 373.816C73.9307 375.585 73.8043 375.67 73.0882 374.996C72.667 374.617 72.3301 374.153 72.3301 373.943C72.3301 373.1 69.5079 370.657 68.3286 370.405C67.2334 370.194 66.7701 370.447 64.9589 372.258ZM92.6745 379.503C93.3484 380.05 93.8539 380.177 94.0224 379.924C94.1487 379.713 94.4857 379.503 94.7384 379.503C95.0333 379.503 94.9912 379.755 94.6542 380.135C94.0645 380.808 91.0739 381.019 90.6948 380.387C90.4 379.924 90.8212 378.66 91.2845 378.66C91.453 378.66 92.0848 379.039 92.6745 379.503Z" fill="#444444"/>
</g>
<defs>
<clipPath id="clip0">
<rect width="590.125" height="400" fill="white"/>
</clipPath>
</defs>
</svg>
