<?xml version="1.0" standalone="no"?>
<!DOCTYPE svg PUBLIC "-//W3C//DTD SVG 20010904//EN"
 "http://www.w3.org/TR/2001/REC-SVG-20010904/DTD/svg10.dtd">
<svg version="1.0" xmlns="http://www.w3.org/2000/svg"
 width="725.035053pt" height="400.000000pt" viewBox="0 0 725.035053 400.000000"
 preserveAspectRatio="xMidYMid meet">
<metadata>
Created by potrace 1.15, written by Peter Selinger 2001-2017
</metadata>
<g transform="translate(-1.481753,422.595209) scale(0.029594,-0.029594)"
fill="#444444" stroke="none">
<path d="M9287 14274 c-3 -3 -36 -7 -74 -9 -223 -9 -253 -15 -253 -55 0 -35
25 -43 114 -36 l84 7 8 -53 c5 -29 8 -136 9 -237 0 -182 0 -184 23 -192 39
-15 47 24 46 226 0 99 -4 197 -8 217 -6 35 -5 38 21 43 83 17 88 20 91 49 2
16 -2 32 -10 37 -15 10 -42 12 -51 3z"/>
<path d="M11355 14210 c-4 -6 1 -30 10 -53 9 -25 15 -64 13 -93 l-3 -49 -85 4
c-153 8 -314 8 -360 0 -111 -20 -123 -24 -131 -46 -6 -15 -3 -28 9 -43 17 -21
26 -22 207 -22 105 0 213 -4 240 -10 28 -5 66 -9 86 -9 22 1 38 -4 41 -11 3
-7 0 -62 -5 -121 -8 -93 -8 -111 6 -124 26 -26 59 -8 141 78 82 84 129 111
180 102 30 -6 66 19 66 47 0 10 11 25 25 34 14 9 25 22 25 30 0 13 -61 55
-133 92 -21 10 -45 27 -54 37 -9 9 -22 17 -29 17 -7 0 -19 6 -26 14 -8 7 -28
21 -46 30 -18 9 -51 37 -73 61 -30 33 -49 45 -70 45 -15 0 -31 -5 -34 -10z"/>
<path d="M9457 14199 c-61 -17 -74 -51 -32 -82 22 -16 29 -16 53 -5 53 26 35
103 -21 87z"/>
<path d="M10158 14001 c-30 -19 -52 -44 -67 -75 -21 -42 -22 -50 -10 -102 9
-38 25 -71 48 -99 37 -44 145 -115 174 -115 9 0 19 -4 22 -10 20 -32 83 7 101
62 9 31 -12 45 -35 24 -18 -17 -25 -17 -67 -5 -85 25 -124 88 -68 109 74 28
106 76 98 145 -10 80 -24 95 -92 95 -47 0 -67 -6 -104 -29z m113 -41 c21 -12
25 -50 9 -80 -6 -11 -26 -22 -45 -26 -19 -3 -38 -10 -41 -15 -3 -5 -14 -9 -26
-9 -19 0 -20 4 -15 47 8 73 64 112 118 83z"/>
<path d="M9640 13973 l-40 -38 25 -109 c27 -119 43 -148 70 -126 14 12 16 28
11 110 -7 93 2 137 22 115 8 -8 36 -86 48 -132 5 -17 39 -16 53 1 7 8 18 36
24 62 7 26 17 49 24 51 28 9 125 -158 147 -252 10 -42 15 -50 35 -50 20 0 24
6 27 37 6 74 -115 294 -181 325 -33 16 -34 15 -66 -11 l-32 -27 -37 40 c-48
53 -76 53 -130 4z"/>
<path d="M9471 13987 c-7 -9 -9 -58 -7 -143 4 -123 5 -129 26 -132 43 -7 51
22 44 153 -3 66 -8 123 -11 128 -7 12 -40 8 -52 -6z"/>
<path d="M3625 12601 c-3 -11 -1 -48 4 -83 22 -139 22 -156 2 -163 -28 -8 -52
-40 -45 -58 3 -9 21 -21 39 -27 37 -12 49 -43 46 -115 -1 -22 1 -71 5 -109 5
-55 11 -74 31 -94 23 -23 25 -23 43 -7 17 16 19 29 16 119 -2 55 -7 122 -11
149 -7 44 -6 47 14 47 30 0 27 29 -9 68 -24 26 -32 48 -41 105 -6 40 -22 92
-35 117 -13 25 -24 51 -24 57 0 20 -28 15 -35 -6z"/>
<path d="M2378 12564 c-9 -8 2 -146 13 -166 5 -10 11 -48 13 -85 1 -38 9 -79
16 -92 9 -17 11 -47 7 -97 l-5 -72 33 -18 c29 -16 39 -16 89 -5 55 12 96 45
96 77 0 16 26 19 35 4 3 -5 14 -10 24 -10 9 0 32 -16 51 -35 21 -21 54 -42 85
-51 48 -15 54 -15 88 1 23 11 40 27 43 42 10 37 -6 45 -64 32 -41 -10 -54 -10
-67 1 -22 18 -19 37 8 44 13 3 45 25 71 50 59 54 60 87 6 124 -29 20 -44 23
-92 20 -69 -5 -91 -22 -113 -88 -12 -37 -23 -51 -43 -58 -25 -9 -30 -6 -57 30
-17 22 -53 53 -81 69 l-51 29 -17 112 c-23 150 -22 148 -55 148 -15 0 -30 -3
-33 -6z m481 -320 c-12 -14 -61 -44 -73 -44 -7 0 4 31 17 48 5 6 23 12 39 12
27 0 29 -2 17 -16z m-318 -51 c37 -42 29 -83 -16 -83 -20 0 -23 6 -27 48 -7
71 3 79 43 35z"/>
<path d="M2005 12509 c-4 -6 -2 -32 5 -57 6 -26 18 -72 25 -102 8 -30 17 -82
20 -115 4 -33 13 -81 20 -107 8 -26 11 -55 8 -66 -6 -24 22 -82 40 -82 35 1
40 16 33 106 -11 143 -61 398 -83 419 -17 17 -59 20 -68 4z"/>
<path d="M2200 12459 c-17 -31 12 -71 48 -67 22 2 27 8 27 32 0 24 -6 32 -32
43 -30 12 -33 11 -43 -8z"/>
<path d="M1272 12432 c-22 -29 -18 -45 18 -87 19 -22 45 -131 56 -233 6 -57 5
-65 -15 -78 -28 -20 -27 -45 3 -73 37 -35 74 -41 126 -19 74 31 128 71 147
105 19 35 28 40 39 22 3 -6 18 -9 31 -6 21 4 27 -1 39 -29 18 -43 71 -83 131
-98 42 -12 52 -11 84 5 49 24 111 107 98 131 -13 24 -32 23 -55 -3 -55 -61
-153 -74 -176 -24 -16 36 -6 48 60 74 64 25 122 70 122 95 0 62 -62 96 -187
104 -82 4 -82 4 -114 -27 -29 -29 -31 -36 -26 -79 3 -26 9 -62 13 -79 5 -26 3
-33 -9 -33 -11 0 -16 15 -19 58 -12 161 -147 302 -292 302 -48 0 -57 -3 -74
-28z m196 -102 c49 -30 93 -130 82 -188 -4 -23 -13 -49 -20 -57 -21 -25 -71
-48 -81 -38 -5 5 -18 68 -28 139 -11 71 -23 137 -26 147 -10 24 30 23 73 -3z
m383 -92 c46 -13 50 -25 12 -34 -16 -3 -46 -12 -68 -20 -54 -19 -55 -18 -55
14 0 51 34 64 111 40z"/>
<path d="M3846 12424 c-10 -27 29 -84 58 -84 11 0 13 8 9 38 -3 20 -10 43 -16
50 -13 17 -44 15 -51 -4z"/>
<path d="M3044 12333 l-37 -37 6 -120 c5 -94 10 -125 25 -145 30 -40 49 -48
69 -29 15 16 15 25 4 96 -19 114 -20 154 -5 179 13 21 14 21 73 5 33 -9 63
-13 67 -9 12 12 -51 76 -86 86 -57 18 -77 13 -116 -26z"/>
<path d="M3340 12263 c-41 -21 -61 -39 -82 -76 -31 -54 -28 -80 18 -116 35
-27 53 -27 108 4 25 14 47 25 50 25 3 0 19 -27 37 -61 33 -60 83 -113 102
-106 6 2 15 11 21 20 8 12 5 22 -11 39 -31 33 -113 199 -113 229 0 64 -52 81
-130 42z m11 -116 c-14 -15 -21 -17 -21 -8 0 21 33 56 38 41 3 -7 -5 -22 -17
-33z"/>
<path d="M4440 12240 c-15 -16 -37 -30 -49 -30 -28 0 -36 -38 -22 -98 18 -73
31 -101 53 -108 31 -9 41 9 49 88 8 74 26 105 53 95 26 -10 73 -96 91 -166 25
-99 31 -111 59 -111 41 0 41 32 0 138 -49 124 -64 148 -115 189 -52 41 -83 42
-119 3z"/>
<path d="M4138 12233 c-61 -66 -65 -120 -12 -168 58 -53 142 -65 187 -27 19
17 23 82 6 99 -6 6 -16 21 -23 34 -12 24 -100 89 -120 89 -7 0 -24 -12 -38
-27z m111 -93 l21 -29 -21 -11 c-31 -17 -66 -5 -73 26 -14 56 35 65 73 14z"/>
<path d="M2235 12226 c-13 -19 -14 -32 -5 -71 17 -78 37 -117 57 -113 14 3 18
14 18 50 0 25 3 49 7 53 11 11 -3 79 -20 93 -23 18 -40 15 -57 -12z"/>
<path d="M3877 12228 c-14 -11 -15 -22 -6 -88 5 -41 17 -99 26 -127 14 -49 18
-53 46 -53 l30 0 -7 63 c-10 92 -28 169 -45 194 -19 26 -22 27 -44 11z"/>
<path d="M1164 11851 c-22 -25 -53 -68 -69 -96 -15 -27 -42 -70 -60 -95 -18
-25 -42 -65 -54 -90 -37 -75 -80 -154 -99 -180 -10 -14 -29 -46 -42 -72 -13
-27 -27 -48 -31 -48 -4 0 -38 20 -76 45 -44 29 -77 44 -93 43 -24 -3 -25 -5
-24 -83 1 -44 3 -105 4 -135 2 -30 -1 -99 -5 -152 l-8 -96 37 -51 c21 -28 45
-51 53 -51 8 0 42 27 75 60 40 41 85 74 140 101 101 51 188 108 188 124 0 20
-45 55 -72 55 -14 0 -33 9 -43 20 -9 10 -33 24 -51 30 -19 7 -34 17 -34 24 0
20 162 334 224 436 33 52 78 120 100 150 60 79 60 80 40 95 -32 24 -57 15
-100 -34z"/>
<path d="M9412 11418 c-24 -24 -12 -98 39 -250 28 -84 55 -156 61 -159 35 -22
51 40 25 91 -7 14 -14 42 -15 63 -2 21 -11 59 -21 85 -10 26 -22 72 -26 102
-10 75 -32 99 -63 68z"/>
<path d="M2283 11225 c-35 -20 -63 -43 -63 -51 0 -8 14 -28 31 -44 27 -24 32
-35 34 -87 1 -32 6 -88 10 -125 6 -60 5 -70 -14 -94 -61 -77 21 -163 129 -134
46 12 149 94 168 133 72 155 69 233 -14 334 -45 55 -109 92 -170 99 -43 4 -57
0 -111 -31z m193 -90 c19 -14 46 -49 60 -77 24 -46 25 -55 14 -97 -15 -61 -54
-122 -99 -151 -72 -49 -71 -50 -71 48 -1 48 -5 134 -10 191 -5 57 -7 108 -3
114 9 16 73 0 109 -28z"/>
<path d="M5145 11241 c-70 -25 -135 -60 -141 -75 -2 -6 9 -54 26 -105 26 -79
30 -108 30 -199 1 -73 5 -113 14 -124 40 -54 75 22 69 147 l-4 80 35 -51 c46
-68 117 -137 160 -158 19 -9 36 -21 38 -27 2 -6 19 -11 38 -12 29 -2 36 2 38
20 2 16 -9 30 -43 55 -75 53 -134 108 -165 155 -32 47 -32 47 31 57 40 7 72
36 89 81 9 25 8 39 -11 86 -35 87 -98 109 -204 70z m131 -76 c19 -29 12 -71
-14 -79 -9 -3 -45 -9 -79 -14 l-61 -8 -6 30 c-8 37 -3 41 70 71 73 30 70 30
90 0z"/>
<path d="M6085 11236 c-52 -16 -93 -39 -127 -70 -57 -52 -23 -120 87 -172 50
-23 105 -73 105 -95 0 -34 -133 -62 -171 -35 -30 21 -36 20 -49 -3 -23 -44 32
-91 107 -91 63 0 156 41 172 77 28 61 12 89 -93 173 -31 25 -69 54 -83 66
l-26 21 39 24 c21 13 68 31 104 40 62 15 65 17 65 45 0 27 -2 29 -45 31 -25 1
-63 -4 -85 -11z"/>
<path d="M6538 11220 c-14 -4 -59 -11 -100 -14 -144 -13 -170 -18 -190 -38
-16 -16 -17 -22 -7 -34 24 -29 46 -35 92 -23 24 7 55 9 69 6 l27 -7 -5 -103
c-3 -56 -10 -126 -15 -155 -9 -44 -8 -57 5 -78 20 -29 30 -30 55 -5 24 24 34
104 30 244 -4 124 -4 125 77 126 46 1 71 22 65 55 -6 36 -41 45 -103 26z"/>
<path d="M5458 11189 c-22 -12 -23 -42 -4 -72 8 -12 20 -46 27 -75 12 -47 11
-56 -5 -83 -17 -29 -17 -30 7 -59 16 -19 27 -47 31 -84 6 -48 12 -60 42 -83
38 -28 76 -33 174 -20 50 7 90 28 90 48 0 20 -49 31 -131 30 -84 -1 -89 -1
-94 21 -15 65 -13 70 40 84 28 7 65 13 83 14 38 0 41 14 9 54 -23 28 -23 28
-81 16 -35 -7 -62 -8 -67 -3 -5 5 -12 32 -16 60 l-6 51 84 8 c75 8 84 11 87
30 5 38 -42 65 -107 62 -31 -2 -76 0 -101 4 -27 5 -52 3 -62 -3z"/>
<path d="M3836 11141 c-16 -17 -15 -20 21 -55 43 -41 79 -49 67 -14 -28 89
-53 108 -88 69z"/>
<path d="M9254 11144 c-65 -34 -114 -99 -114 -152 0 -32 21 -55 88 -96 24 -15
42 -32 39 -39 -2 -6 -28 -16 -58 -22 -44 -8 -55 -14 -57 -32 -4 -28 27 -45 87
-46 29 0 56 6 74 18 29 18 57 63 57 89 0 16 -77 86 -94 86 -6 0 -22 9 -35 19
-35 26 -22 62 34 98 30 19 44 35 45 50 0 33 -30 45 -66 27z"/>
<path d="M8882 11118 c-22 -22 -12 -44 32 -76 44 -32 66 -40 66 -24 0 20 -42
92 -59 102 -24 13 -24 13 -39 -2z"/>
<path d="M3340 11100 c-13 -8 -13 -13 0 -37 12 -21 23 -28 45 -28 36 0 45 27
19 56 -19 21 -41 24 -64 9z"/>
<path d="M8753 11045 c-45 -27 -83 -79 -83 -114 0 -14 14 -29 43 -47 23 -14
57 -36 75 -48 l32 -21 -25 -22 c-15 -13 -39 -23 -55 -23 -27 0 -60 -22 -60
-40 0 -15 42 -50 59 -50 28 1 100 38 126 66 16 17 25 39 25 60 0 29 -8 40 -65
86 -36 28 -65 54 -65 58 0 3 20 20 45 38 46 32 50 39 37 58 -15 24 -47 23 -89
-1z"/>
<path d="M2805 11046 c-84 -38 -144 -148 -113 -209 23 -45 224 -111 268 -87
11 6 20 15 20 20 0 12 -70 60 -87 60 -28 0 -11 19 36 38 60 26 78 60 62 118
-7 26 -20 45 -40 57 -34 20 -104 22 -146 3z m103 -79 c2 -12 -7 -22 -30 -31
-65 -27 -78 -29 -78 -11 0 47 100 86 108 42z"/>
<path d="M4692 11048 c-18 -18 -15 -46 9 -79 27 -39 47 -37 65 8 21 49 7 83
-34 83 -15 0 -33 -5 -40 -12z"/>
<path d="M7990 11047 c-27 -12 -96 -64 -139 -106 -36 -34 -100 -142 -107 -180
-9 -44 24 -129 68 -173 49 -49 102 -57 181 -30 80 29 179 100 175 126 -4 29
-54 23 -132 -17 -119 -60 -204 -34 -207 63 -1 25 5 59 14 75 26 50 109 125
169 153 60 28 70 43 57 80 -9 24 -38 28 -79 9z"/>
<path d="M8408 11053 c-32 -8 -20 -41 22 -63 52 -26 70 -26 70 3 0 51 -37 75
-92 60z"/>
<path d="M3204 11023 c-24 -5 -72 -45 -97 -83 -25 -36 -22 -109 6 -151 42 -63
155 -100 202 -65 19 14 19 15 1 35 -10 11 -35 24 -55 27 -52 9 -81 40 -81 84
0 43 20 65 68 75 39 8 49 27 34 61 -11 24 -27 27 -78 17z"/>
<path d="M3650 10994 c-32 -29 -40 -43 -40 -70 0 -40 32 -94 72 -120 15 -11
26 -23 25 -29 -2 -5 -29 -12 -60 -15 -68 -6 -81 -16 -64 -50 18 -37 70 -46
140 -26 l57 17 0 53 c0 48 -3 56 -27 71 -32 21 -72 65 -73 81 0 22 37 44 77
44 43 0 57 18 46 60 -5 17 -14 20 -59 20 -48 0 -58 -4 -94 -36z"/>
<path d="M8275 10964 c-24 -6 -54 -51 -79 -116 -16 -45 -16 -48 1 -74 10 -16
27 -51 38 -78 17 -42 24 -51 45 -51 30 0 37 28 21 89 -5 23 -13 65 -16 93 l-6
52 37 16 c20 8 50 14 66 12 35 -2 44 11 25 37 -14 19 -88 30 -132 20z"/>
<path d="M3881 10951 c-13 -9 -12 -81 4 -195 5 -41 29 -63 49 -46 19 15 22
137 5 206 -12 45 -27 54 -58 35z"/>
<path d="M4073 10939 c-34 -22 -38 -29 -48 -100 -4 -35 -11 -48 -25 -52 -30
-8 -24 -24 18 -50 45 -29 112 -39 151 -24 39 15 76 91 67 139 -8 40 -11 46
-54 81 -40 32 -66 34 -109 6z m82 -110 c0 -28 -4 -35 -22 -37 -29 -4 -35 36
-11 66 18 21 33 8 33 -29z"/>
<path d="M8967 10942 c-11 -12 -14 -29 -10 -60 3 -23 10 -45 14 -48 5 -3 9
-20 9 -38 0 -39 21 -60 50 -51 16 5 20 15 20 53 0 62 -37 162 -60 162 -4 0
-14 -8 -23 -18z"/>
<path d="M3442 10933 c-11 -21 2 -144 19 -185 12 -30 37 -44 52 -29 20 20 8
189 -16 219 -14 18 -45 15 -55 -5z"/>
<path d="M4302 10902 c-34 -26 -45 -95 -26 -157 17 -57 30 -75 54 -75 24 0 28
14 16 69 -5 26 -6 60 -2 75 6 26 8 27 29 14 28 -19 83 -121 91 -169 11 -66 59
-93 69 -40 7 34 -16 109 -49 162 -12 19 -23 44 -25 54 -5 25 -85 85 -112 85
-12 0 -33 -9 -45 -18z"/>
<path d="M8511 10893 l-23 -19 25 -89 c19 -72 28 -91 44 -93 37 -6 47 21 30
80 -9 29 -18 64 -21 78 -3 14 -11 33 -18 43 -13 18 -15 18 -37 0z"/>
<path d="M9562 10858 c-24 -29 -18 -74 12 -93 39 -26 66 -6 66 49 0 31 -5 46
-16 50 -25 10 -51 7 -62 -6z"/>
<path d="M4698 10779 c-23 -13 -23 -42 0 -62 37 -34 76 -11 70 40 -2 22 -9 29
-28 30 -14 2 -33 -2 -42 -8z"/>
<path d="M115 10648 c-59 -21 -78 -54 -56 -96 5 -9 17 -60 26 -112 18 -94 20
-155 28 -630 4 -257 13 -300 64 -300 15 0 42 -9 60 -20 29 -17 57 -20 250 -24
120 -3 237 -8 260 -11 48 -8 48 -9 59 -165 3 -46 9 -91 13 -100 5 -8 9 -50 10
-93 1 -42 8 -108 15 -146 7 -38 12 -82 10 -98 -2 -15 -6 -84 -10 -153 -3 -69
-8 -153 -11 -187 -5 -59 -3 -63 27 -93 l32 -31 131 6 c182 8 159 7 487 7 367
0 355 0 585 -13 377 -21 832 -36 945 -31 63 2 176 5 250 7 239 3 731 21 1025
35 110 6 261 10 335 9 74 0 178 0 230 0 227 3 901 11 960 11 36 0 137 -3 225
-7 88 -4 216 -7 285 -7 76 0 128 -4 132 -10 4 -6 8 -32 8 -57 0 -26 9 -75 19
-110 32 -106 47 -355 37 -619 -1 -48 17 -109 37 -122 7 -4 26 -8 42 -8 17 0
40 -6 51 -14 15 -11 46 -13 144 -8 69 3 174 6 234 6 l110 1 3 -70 c1 -38 4
-119 7 -180 2 -60 11 -155 21 -210 9 -55 16 -138 15 -185 -5 -256 1 -375 20
-410 7 -14 27 -38 43 -54 l29 -30 162 -4 c478 -10 1030 -3 1221 16 144 14 284
9 325 -13 34 -18 131 -22 385 -19 28 0 97 1 155 1 58 0 179 1 270 2 192 1 358
-3 705 -19 384 -16 866 -11 906 11 23 12 62 12 75 -1 6 -6 82 -12 170 -15 87
-2 251 -8 364 -12 244 -9 484 -9 830 1 140 5 264 7 275 7 36 -3 247 -1 380 2
75 2 161 -1 203 -9 52 -8 95 -9 145 -3 40 5 119 9 177 8 172 -2 284 2 302 12
10 6 18 5 20 -2 3 -9 226 -23 333 -22 17 1 140 3 275 6 135 3 261 1 280 -4 62
-15 239 -20 309 -8 36 7 87 11 114 10 37 -2 47 1 47 13 0 20 10 20 37 1 14
-10 67 -19 150 -25 70 -6 135 -13 143 -16 8 -3 195 -7 415 -10 316 -3 426 -1
525 11 261 31 297 35 375 40 44 3 109 9 145 14 38 5 72 5 82 -1 10 -5 80 -6
155 -3 239 11 252 10 277 -8 16 -12 19 -33 23 -158 2 -79 -1 -227 -7 -328 -12
-194 -12 -209 -7 -394 5 -175 -25 -161 365 -167 l317 -5 6 -30 c10 -47 10
-181 -1 -285 -9 -82 -25 -521 -23 -633 1 -21 5 -43 11 -50 5 -7 12 -28 16 -49
5 -29 13 -39 39 -48 23 -9 201 -13 644 -15 337 -2 616 -6 621 -9 4 -3 49 -8
98 -11 49 -4 96 -9 104 -12 33 -11 358 -13 545 -3 270 14 488 15 615 3 71 -7
196 -7 385 -1 423 15 454 17 476 28 28 15 492 17 539 3 37 -12 116 -14 580
-18 162 -1 331 -3 375 -5 44 -1 88 1 98 5 9 4 23 3 30 -3 6 -5 19 -9 27 -10 8
0 47 -3 85 -7 155 -16 289 -6 304 23 16 32 21 106 22 355 1 137 6 265 11 285
15 56 20 407 7 483 -13 81 -49 125 -96 116 -15 -3 -53 -1 -83 4 -130 23 -208
25 -360 9 -150 -15 -952 -27 -1520 -22 -152 1 -581 2 -843 2 -33 0 -77 5 -99
10 -25 7 -185 11 -443 10 -308 0 -442 3 -571 16 -94 10 -265 17 -384 18 -320
1 -975 -23 -998 -38 -7 -4 -38 -4 -71 0 l-59 6 2 485 c2 557 6 528 -85 557
-30 10 -120 23 -204 29 -141 11 -197 10 -323 -8 l-52 -8 5 209 c3 115 8 333
11 484 3 151 8 309 11 350 l5 75 -38 43 -39 44 -150 0 c-82 -1 -328 -1 -545
-1 -217 -1 -521 4 -675 11 -340 14 -509 16 -555 5 -43 -10 -371 -17 -1125 -24
-767 -7 -1100 -6 -1270 7 -248 18 -381 16 -590 -10 -44 -5 -159 -12 -255 -15
-96 -3 -215 -10 -265 -16 -132 -16 -825 -19 -959 -4 -146 15 -400 4 -571 -26
-33 -6 -253 -12 -490 -14 -236 -2 -446 -6 -465 -9 -19 -3 -116 -9 -215 -14
-178 -9 -294 -8 -615 4 -213 8 -324 6 -380 -5 -39 -7 -265 -6 -850 3 -328 5
-461 9 -540 17 -47 4 -134 4 -193 -1 -73 -6 -114 -6 -125 1 -15 10 -17 42 -18
302 -1 186 -6 325 -15 382 -7 50 -14 139 -15 198 -1 117 -7 131 -54 123 -14
-2 -29 2 -35 11 -9 12 -32 15 -111 13 -54 -1 -103 -1 -109 -1 -5 1 -77 3 -160
5 l-150 4 -13 83 c-7 46 -22 122 -32 169 -26 117 -50 361 -44 445 3 39 6 108
7 155 2 82 1 85 -21 88 -13 2 -29 -1 -36 -7 -9 -8 -88 -11 -237 -10 -123 0
-231 -2 -239 -5 -8 -3 -42 -8 -75 -11 -33 -2 -117 -10 -186 -16 -100 -10 -188
-10 -420 0 -162 8 -334 15 -384 17 -49 1 -130 8 -180 13 -49 6 -101 11 -115
10 -80 -2 -327 10 -393 20 -161 22 -544 31 -867 19 -198 -7 -1190 -20 -1405
-18 -71 0 -182 7 -245 14 -63 8 -126 14 -140 13 -63 -1 -705 14 -708 17 -8 9
-32 198 -32 262 0 39 -6 115 -14 170 -24 169 -30 362 -12 413 24 67 20 106
-17 166 -37 61 -50 66 -127 47 -71 -18 -199 -10 -430 27 -78 13 -86 13 -125
-1z m135 -112 c86 -21 204 -31 348 -28 l132 4 0 -36 c0 -20 -7 -54 -16 -76
-17 -43 -18 -31 12 -370 4 -41 6 -88 6 -105 -1 -16 4 -73 9 -125 22 -202 23
-234 4 -227 -22 9 -475 10 -496 2 -10 -3 -19 -2 -22 2 -3 5 -8 168 -11 363 -6
368 -19 515 -51 593 -9 21 10 22 85 3z m3750 -1096 c122 -5 239 -14 259 -20
20 -5 140 -12 266 -15 127 -3 266 -7 310 -10 44 -3 118 -8 165 -10 47 -3 148
-10 225 -15 270 -20 525 -17 585 7 8 3 35 7 60 8 25 1 79 5 120 8 106 9 245
10 355 2 89 -7 110 -14 84 -31 -8 -4 -10 -29 -6 -73 4 -36 10 -112 16 -168 5
-55 11 -105 15 -111 3 -5 8 -51 12 -103 3 -52 10 -110 15 -129 5 -20 14 -71
20 -115 6 -44 15 -88 21 -98 15 -29 -1 -37 -89 -41 -64 -2 -87 -8 -109 -25
-29 -23 -45 -21 -24 4 10 12 9 15 -6 16 -11 0 -39 1 -64 2 -31 1 -44 -2 -42
-10 3 -19 -48 -16 -69 3 -17 15 -52 20 -164 24 -22 1 -309 1 -638 1 -594 -1
-598 -1 -592 -21 5 -15 2 -20 -14 -20 -23 0 -37 16 -19 23 7 2 10 8 5 12 -10
11 -165 9 -372 -4 -93 -6 -258 -14 -365 -17 -107 -3 -215 -10 -240 -15 -271
-56 -717 -58 -1645 -8 -239 12 -1090 16 -1124 5 l-24 -8 7 68 c21 231 21 235
-29 619 -22 175 -27 246 -15 259 8 10 99 12 403 10 377 -3 467 -7 489 -20 19
-12 352 -13 528 -2 96 6 189 11 205 10 160 -8 853 2 1115 16 74 4 138 6 142 5
3 -2 106 -8 228 -13z m2905 -985 c50 0 120 4 157 8 l66 7 7 -67 c4 -38 12 -74
18 -81 5 -7 11 -76 13 -155 3 -135 6 -559 5 -583 -1 -14 -351 -31 -492 -25
-38 2 -64 62 -55 133 21 178 3 436 -40 568 -8 25 -14 75 -14 111 l0 66 38 16
c29 13 55 15 122 9 47 -4 126 -7 175 -7z m9670 -910 c138 -3 266 -9 285 -13
19 -3 159 -8 310 -9 151 -1 289 -3 305 -4 17 0 104 2 195 5 319 12 407 6 403
-30 -1 -10 -5 -129 -8 -264 -3 -135 -8 -283 -10 -330 -2 -47 -5 -176 -5 -286
l-2 -201 -191 -7 c-106 -3 -246 -6 -312 -6 -66 0 -136 -4 -155 -10 -19 -5 -66
-10 -105 -10 -38 0 -88 -5 -110 -10 -70 -17 -221 -24 -229 -11 -9 14 -93 15
-101 0 -4 -6 -14 -7 -24 -4 -31 13 -172 14 -177 1 -6 -15 -360 -14 -493 2 -63
8 -105 9 -130 2 -21 -5 -93 -6 -177 -2 -78 4 -211 3 -295 -2 -115 -7 -177 -6
-244 4 -58 9 -159 12 -280 10 -319 -5 -380 -4 -665 5 -336 11 -327 11 -425 2
-44 -5 -114 -7 -155 -6 -41 0 -237 0 -435 -1 -1111 -6 -1446 -3 -1620 16 -189
20 -225 21 -340 4 -67 -10 -205 -16 -500 -23 -81 -2 -453 13 -570 23 -66 6
-138 11 -160 11 -513 -2 -1031 7 -1090 19 -76 14 -331 17 -505 6 -197 -13
-285 -16 -585 -16 -165 0 -318 4 -340 10 -52 12 -112 13 -120 0 -3 -5 -15 -6
-28 -1 -12 4 -49 6 -83 3 -66 -5 -102 7 -105 36 -1 9 -3 60 -4 112 -11 379
-15 452 -25 505 -9 51 -18 161 -24 315 l-1 35 420 -1 c231 -1 589 -6 795 -10
427 -10 505 -9 540 4 15 5 115 7 240 4 345 -9 774 -5 915 8 72 6 324 13 560
15 272 2 445 7 470 14 23 6 83 15 135 21 115 12 102 11 175 12 33 0 76 1 95 1
19 1 87 -3 150 -7 187 -14 206 -15 415 -15 208 -1 407 5 510 14 33 3 125 8
205 10 131 4 198 10 410 34 83 10 508 3 578 -9 70 -12 272 -13 1097 -5 571 5
896 11 1085 20 63 3 138 6 167 5 28 0 54 4 58 11 4 6 18 8 34 5 14 -3 139 -9
276 -11z m1975 -1226 c69 -6 132 -15 140 -19 17 -10 21 -119 19 -500 0 -14 0
-119 1 -234 1 -114 -1 -210 -3 -212 -2 -2 -66 -1 -143 4 -76 4 -164 4 -194 0
-77 -12 -220 0 -227 18 -3 8 0 130 6 272 7 141 11 307 10 367 -1 61 -2 149 -3
196 l-1 87 70 12 c39 7 75 13 80 15 24 6 129 4 245 -6z m1655 -1054 c66 -3
144 -10 173 -16 32 -6 216 -10 470 -9 502 1 516 1 542 -15 12 -7 326 -18 455
-15 72 2 231 2 355 2 585 -4 1236 -3 1335 2 61 3 166 8 235 11 69 3 152 7 185
9 33 2 80 -1 105 -6 25 -6 73 -9 107 -9 52 1 64 -1 73 -18 13 -25 6 -428 -9
-486 -6 -22 -11 -135 -11 -250 -1 -206 -5 -237 -32 -240 -89 -12 -142 -14
-188 -5 -46 9 -375 12 -670 6 -36 0 -99 3 -140 7 -41 4 -140 10 -220 13 -80 3
-172 7 -205 9 -214 12 -312 13 -405 5 -437 -38 -892 -52 -1031 -30 -56 8 -179
6 -544 -9 -171 -7 -393 -6 -500 3 -22 2 -96 7 -165 10 -69 4 -134 9 -146 11
-11 3 -88 7 -170 11 -82 3 -152 8 -156 10 -3 2 -48 0 -100 -5 -203 -21 -714
-11 -731 13 -4 6 -4 40 0 76 4 36 7 81 6 100 0 28 -2 242 -1 310 0 8 6 47 13
85 15 83 18 248 4 319 -8 42 -7 53 6 62 8 6 79 14 157 19 79 4 159 9 178 11
19 2 172 6 340 10 168 3 307 8 310 11 3 3 61 2 130 -1 69 -3 179 -8 245 -11z"/>
<path d="M2680 9263 c-51 -6 -92 -24 -117 -53 -27 -30 -28 -46 -6 -96 29 -69
50 -225 42 -319 -7 -91 8 -124 58 -125 24 0 29 11 39 93 3 31 10 60 15 63 5 3
60 -28 122 -70 107 -72 165 -95 174 -69 6 16 -95 115 -180 177 -37 26 -67 51
-67 55 0 3 26 26 58 51 32 24 69 60 82 79 21 32 22 39 11 80 -6 24 -20 56 -31
71 -31 44 -121 72 -200 63z m133 -125 c25 -30 21 -53 -15 -81 -18 -14 -43 -35
-56 -47 -37 -35 -53 -23 -74 59 -10 40 -17 76 -14 78 11 12 73 21 106 17 19
-3 43 -14 53 -26z"/>
<path d="M2996 9221 c-18 -20 -18 -24 -4 -74 9 -28 32 -107 52 -175 27 -92 36
-142 36 -196 0 -43 5 -77 12 -84 17 -17 54 -15 72 4 13 13 22 14 48 5 43 -15
241 -14 256 1 7 7 12 15 12 19 0 16 -108 51 -196 63 -94 13 -113 22 -115 56 0
8 -2 27 -4 42 -4 28 -9 27 129 43 46 6 56 12 56 31 0 29 -61 54 -132 54 -73 0
-94 12 -104 58 -3 15 -7 32 -9 39 -3 8 16 14 53 18 87 9 150 25 163 41 6 8 8
25 5 39 -6 25 -8 25 -109 25 -56 0 -124 3 -152 6 -43 5 -53 3 -69 -15z"/>
<path d="M4026 9231 c-56 -6 -73 -13 -89 -32 l-19 -24 31 -25 c27 -23 37 -25
100 -22 61 4 70 2 80 -15 5 -11 12 -104 14 -207 4 -201 7 -209 56 -204 18 2
27 12 33 33 10 33 2 276 -11 343 l-8 42 71 -1 c94 -2 126 11 126 51 0 17 -6
33 -12 35 -7 2 -62 9 -123 14 -60 6 -126 13 -145 15 -19 2 -66 1 -104 -3z"/>
<path d="M3616 9181 c-62 -23 -120 -92 -111 -131 14 -54 44 -86 160 -164 108
-73 120 -84 120 -111 0 -29 -1 -30 -57 -33 -35 -2 -71 3 -93 13 -50 20 -104
20 -112 -2 -10 -25 43 -65 124 -93 66 -22 77 -23 130 -12 70 14 103 46 103 98
0 60 -65 143 -150 192 -59 34 -140 102 -140 117 0 23 79 46 144 43 34 -1 66 1
72 5 20 12 23 46 6 67 -24 29 -130 35 -196 11z"/>
<path d="M11765 7224 c-75 -28 -94 -65 -54 -103 19 -17 21 -30 20 -118 -1 -54
-6 -127 -12 -163 -19 -131 -17 -157 16 -170 15 -6 33 -6 43 -1 9 5 53 17 97
28 87 20 128 47 159 106 18 33 18 34 -2 80 -15 34 -33 54 -66 75 -50 30 -57
47 -24 58 29 9 87 71 95 102 3 14 2 32 -4 41 -12 21 -76 52 -127 63 -79 16
-101 16 -141 2z m163 -90 c27 -19 22 -28 -36 -65 -68 -43 -82 -40 -82 20 l0
50 43 4 c23 2 44 4 47 5 3 1 16 -5 28 -14z m-42 -230 c64 -22 74 -31 74 -64 0
-45 -48 -67 -132 -62 -26 2 -28 5 -28 46 0 48 14 96 28 96 5 0 31 -7 58 -16z"/>
<path d="M12167 7232 c-24 -5 -26 -27 -7 -107 13 -57 19 -149 20 -285 0 -108
7 -126 43 -116 22 5 26 13 33 68 4 35 8 83 9 108 0 35 4 44 15 41 8 -3 47 -6
87 -7 152 -5 105 71 -57 91 -50 7 -55 12 -64 68 -7 42 4 60 31 50 15 -6 103
15 118 28 5 5 19 9 32 9 16 0 23 6 23 20 0 37 -55 50 -117 28 -23 -8 -49 -9
-90 -2 -32 5 -66 8 -76 6z"/>
<path d="M12556 7223 c-74 -14 -80 -21 -67 -69 15 -56 32 -254 32 -361 -1 -80
2 -94 18 -102 29 -16 49 16 60 95 6 38 9 78 8 89 -2 17 6 21 53 27 30 4 81 8
112 9 71 3 83 9 74 43 -8 33 -52 44 -164 44 -46 0 -88 4 -92 8 -11 12 -17 116
-7 132 6 8 36 12 92 12 100 0 115 5 115 36 0 17 -8 28 -27 35 -39 15 -137 16
-207 2z"/>
<path d="M21407 5099 c-15 -9 -17 -19 -12 -62 9 -77 25 -159 36 -188 6 -14 9
-46 7 -70 l-4 -44 -21 46 c-20 43 -47 64 -93 70 -37 6 -101 -24 -141 -64 -57
-59 -75 -110 -46 -139 8 -8 20 -81 31 -183 20 -189 30 -214 81 -201 l27 7 -4
96 -3 96 49 17 c39 13 57 26 82 63 29 42 33 44 38 24 10 -42 31 -60 58 -54 23
6 27 14 33 59 8 58 17 84 39 111 12 16 17 16 35 5 11 -7 24 -24 29 -38 16 -44
30 -94 37 -130 14 -68 45 -89 78 -52 19 21 22 57 7 67 -5 3 -10 19 -10 35 0
52 -40 140 -86 187 -41 44 -45 45 -88 41 -52 -6 -45 -22 -72 161 -12 81 -22
119 -35 132 -22 22 -27 22 -52 8z m-62 -370 c4 -5 7 -31 8 -56 0 -40 -4 -50
-32 -75 -52 -47 -79 -35 -88 41 -5 47 -4 54 18 69 44 32 82 41 94 21z"/>
<path d="M20250 5046 c-30 -13 -75 -32 -100 -43 -25 -11 -52 -23 -60 -26 -8
-3 -41 -27 -73 -52 -77 -61 -99 -110 -105 -230 -4 -89 -4 -91 32 -152 37 -64
87 -112 142 -138 37 -17 85 -20 100 -5 6 6 41 16 78 21 82 13 117 45 142 127
13 45 14 61 3 105 -26 113 -71 138 -207 114 -48 -8 -103 -15 -122 -14 -19 0
-46 -4 -59 -8 -22 -7 -22 -6 -11 14 33 62 145 151 190 151 6 0 30 9 53 21 23
12 60 27 82 34 33 10 40 17 43 41 2 23 -3 33 -27 47 -35 21 -33 21 -101 -7z
m-106 -395 c55 6 103 12 108 15 4 3 23 2 43 -2 32 -6 35 -9 35 -40 0 -18 -4
-36 -10 -39 -5 -3 -10 -15 -10 -25 0 -19 -39 -37 -125 -59 -33 -9 -46 -7 -82
10 -45 22 -103 99 -103 138 0 20 2 20 23 7 19 -13 38 -14 121 -5z"/>
<path d="M21971 5044 c-18 -7 -46 -24 -62 -36 -120 -91 -134 -118 -127 -239 4
-62 10 -86 30 -116 14 -21 36 -57 49 -80 18 -32 38 -50 78 -69 48 -24 58 -26
87 -15 38 14 54 8 103 -38 23 -22 43 -31 66 -31 30 0 33 3 39 35 10 51 -1 75
-35 82 -33 6 -37 23 -11 47 36 32 53 135 37 226 -10 60 -43 114 -107 176 -65
63 -101 77 -147 58z m95 -141 c45 -34 65 -83 67 -160 0 -61 -12 -93 -37 -93
-6 0 -29 31 -52 68 -22 37 -48 69 -58 70 -22 5 -56 -25 -56 -49 0 -19 39 -92
52 -97 11 -5 10 -32 -1 -32 -23 0 -63 49 -85 103 -35 88 -14 157 62 196 50 27
67 26 108 -6z"/>
<path d="M22298 5009 c-20 -11 -24 -59 -8 -89 12 -22 35 -185 44 -307 3 -45 9
-88 12 -96 8 -21 49 -26 200 -27 72 0 139 -2 147 -6 24 -9 87 43 87 72 0 33
-32 47 -114 49 -95 2 -236 16 -237 24 -2 20 -8 83 -14 149 -7 83 -26 166 -47
209 -14 30 -43 39 -70 22z"/>
<path d="M20564 4837 c-57 -22 -88 -53 -103 -101 -34 -115 51 -284 103 -204
13 20 13 32 0 103 -15 78 -15 80 5 96 12 10 40 20 64 24 82 14 128 55 91 82
-22 16 -118 16 -160 0z"/>
<path d="M20873 4840 c-50 -7 -108 -50 -134 -99 -10 -18 -28 -44 -40 -57 -27
-28 -31 -83 -8 -110 34 -41 142 -59 174 -28 8 9 22 29 30 45 9 16 18 29 20 29
3 0 28 -23 56 -51 33 -33 59 -51 77 -52 24 -2 27 2 30 31 3 27 -4 41 -36 76
-46 50 -67 87 -77 136 -16 81 -26 90 -92 80z m-57 -188 c-24 -24 -29 -8 -10
30 18 31 19 32 22 9 2 -13 -3 -31 -12 -39z"/>
<path d="M7638 10493 c-8 -10 -27 -52 -42 -93 -16 -41 -39 -97 -51 -125 -12
-27 -26 -61 -30 -75 -17 -57 -97 -194 -164 -281 -12 -15 -25 -37 -30 -50 -6
-13 -35 -64 -66 -114 -30 -49 -69 -119 -86 -155 -28 -59 -56 -114 -91 -181 -7
-13 -27 -44 -44 -69 -17 -25 -46 -72 -63 -105 -37 -69 -72 -114 -78 -100 -2 6
-18 37 -37 70 -26 47 -38 60 -57 60 -18 0 -25 -7 -30 -30 -4 -16 -15 -50 -24
-75 -9 -25 -23 -74 -30 -110 -29 -139 -42 -186 -56 -208 -13 -21 -12 -25 11
-42 37 -29 100 -26 174 9 33 16 78 32 99 36 20 4 49 16 62 27 21 16 29 18 40
8 29 -24 51 -1 69 72 6 28 -10 42 -130 114 -18 10 -17 13 9 51 15 21 27 42 27
45 0 3 32 59 71 124 39 66 92 160 116 209 44 86 126 233 168 300 147 234 195
321 224 411 13 38 28 78 33 88 19 36 68 161 68 173 0 10 -29 33 -43 33 -2 0
-11 -8 -19 -17z"/>
<path d="M2185 10434 c-33 -14 -78 -43 -100 -64 -22 -20 -55 -42 -73 -48 -18
-6 -44 -25 -58 -42 -14 -16 -34 -30 -44 -30 -10 0 -23 -6 -29 -14 -7 -8 -27
-17 -45 -20 -43 -8 -179 -99 -211 -143 -36 -46 -145 -113 -297 -181 -4 -2 -17
18 -29 43 -12 26 -33 52 -46 58 -20 9 -28 6 -59 -24 -20 -19 -42 -47 -49 -64
-7 -16 -47 -65 -89 -108 -62 -63 -76 -84 -76 -109 0 -58 19 -67 128 -61 70 4
116 1 165 -11 102 -24 124 -22 142 15 16 29 15 33 -14 96 -24 50 -29 69 -20
79 6 8 18 14 26 14 39 0 156 79 276 186 32 29 84 65 115 82 139 71 198 105
217 120 11 10 38 26 59 37 22 11 58 38 81 60 22 22 64 58 93 80 88 66 49 97
-63 49z"/>
<path d="M11110 9691 c-8 -16 -7 -26 4 -43 17 -28 58 -187 50 -199 -3 -5 -25
-9 -48 -9 -36 0 -47 -5 -61 -26 -16 -24 -16 -28 -1 -43 12 -11 34 -16 74 -16
l57 0 10 -99 c9 -85 13 -101 33 -114 18 -12 25 -12 38 -1 13 11 15 28 9 115
-7 99 -7 102 16 118 13 9 34 16 46 16 25 0 31 21 11 38 -7 6 -30 13 -52 17
-42 8 -58 33 -70 110 -11 62 -58 149 -83 153 -14 2 -26 -4 -33 -17z"/>
<path d="M12015 9623 c-27 -7 -75 -52 -87 -83 -20 -50 -35 -143 -28 -174 18
-76 53 -121 87 -114 15 3 18 12 17 53 -1 28 -7 76 -14 107 -15 72 -1 108 48
122 30 8 36 6 73 -30 49 -48 90 -134 92 -194 2 -40 5 -45 28 -48 41 -5 52 17
40 83 -28 151 -165 299 -256 278z"/>
<path d="M11380 9601 c-14 -28 -14 -28 29 -57 60 -39 82 -12 39 46 -25 34 -53
39 -68 11z"/>
<path d="M9727 9563 c-15 -14 -5 -64 39 -198 25 -77 52 -161 60 -186 8 -25 14
-65 13 -88 -2 -22 2 -46 9 -53 7 -7 12 -20 12 -29 0 -24 26 -42 50 -34 11 3
20 15 20 25 0 20 19 30 55 30 40 0 93 31 106 61 16 41 5 72 -45 123 -43 44
-81 61 -151 68 -24 2 -31 9 -38 38 -5 19 -17 58 -27 85 -10 28 -22 66 -26 85
-12 62 -51 99 -77 73z m258 -386 c30 -17 40 -29 40 -47 0 -21 -6 -25 -45 -32
-27 -5 -48 -4 -54 2 -13 13 -35 87 -28 95 12 11 49 4 87 -18z"/>
<path d="M11673 9478 c-32 -35 -43 -63 -43 -105 0 -22 -6 -48 -14 -58 -18 -25
-10 -51 24 -75 31 -22 82 -19 141 11 39 19 99 82 99 102 0 21 -55 102 -85 125
-38 30 -95 29 -122 0z m113 -73 c14 -19 24 -41 21 -49 -5 -13 -78 -66 -90 -66
-2 0 -4 27 -5 59 -1 43 3 64 14 75 22 23 30 20 60 -19z"/>
<path d="M19625 9480 c-16 -18 -17 -24 -5 -63 8 -23 22 -59 32 -79 10 -21 18
-47 18 -59 0 -11 6 -35 14 -52 7 -18 19 -51 25 -75 13 -47 33 -61 56 -42 23
19 18 70 -19 182 -18 57 -37 119 -41 138 -8 38 -31 70 -50 70 -7 0 -20 -9 -30
-20z"/>
<path d="M11455 9430 c-17 -18 -16 -23 1 -111 11 -51 25 -99 33 -106 20 -20
45 -11 50 17 5 36 -19 171 -36 198 -17 27 -25 28 -48 2z"/>
<path d="M10492 9369 c-35 -34 -38 -45 -45 -129 -4 -40 0 -65 13 -90 9 -19 21
-48 26 -65 8 -26 14 -30 44 -30 39 0 41 6 16 70 -17 45 -21 162 -6 185 7 12
27 14 85 13 41 -2 75 1 75 6 0 25 -96 71 -151 71 -15 0 -38 -13 -57 -31z"/>
<path d="M10820 9369 c-89 -42 -140 -107 -140 -176 1 -48 51 -93 104 -93 30 0
86 47 117 97 l23 36 20 -27 c12 -15 41 -49 65 -77 36 -40 50 -49 77 -49 45 0
45 23 -2 74 -59 65 -135 181 -129 198 8 20 -20 48 -48 48 -12 0 -51 -14 -87
-31z m30 -94 c0 -34 -58 -105 -85 -105 -10 0 -4 55 8 71 21 27 77 51 77 34z"/>
<path d="M8715 9363 c-48 -13 -58 -43 -26 -77 10 -12 28 -64 40 -116 12 -52
26 -115 31 -139 6 -24 13 -71 17 -105 6 -62 24 -96 51 -96 9 0 24 -8 34 -17
51 -46 140 0 191 98 26 49 28 61 25 129 -8 129 -89 266 -179 304 -39 16 -152
28 -184 19z m198 -117 c44 -34 107 -156 107 -207 0 -53 -24 -103 -67 -138 -41
-34 -53 -38 -53 -17 0 7 -8 16 -18 18 -14 4 -23 26 -37 89 -10 46 -28 127 -41
178 -13 52 -20 99 -17 104 11 18 90 0 126 -27z"/>
<path d="M9367 9353 c-10 -9 -9 -48 2 -75 15 -39 38 -99 77 -198 58 -150 71
-172 97 -164 12 3 24 8 26 10 6 6 -19 84 -40 125 -11 20 -19 48 -19 62 0 14
-17 63 -38 109 -21 45 -42 95 -46 111 -5 20 -13 27 -30 27 -12 0 -26 -3 -29
-7z"/>
<path d="M9578 9349 c-38 -22 -12 -79 36 -79 23 0 30 38 12 65 -18 28 -23 29
-48 14z"/>
<path d="M10191 9346 c-43 -24 -71 -84 -71 -151 0 -77 23 -123 75 -152 62 -35
123 -31 192 13 46 29 54 39 49 57 -3 12 -6 25 -6 30 0 15 -27 6 -75 -24 -43
-27 -53 -30 -89 -23 -22 5 -41 14 -42 19 -2 6 24 27 56 47 65 41 80 69 61 117
-24 57 -104 93 -150 67z m73 -78 c8 -12 13 -25 10 -30 -5 -7 -69 -38 -80 -38
-8 0 -3 38 9 63 15 32 40 35 61 5z"/>
<path d="M19205 9250 c-23 -26 -10 -55 25 -55 30 0 49 29 34 53 -16 25 -38 26
-59 2z"/>
<path d="M19519 9235 c-19 -7 -61 -25 -92 -40 -77 -36 -75 -52 13 -117 39 -28
69 -56 67 -62 -4 -13 -41 -24 -84 -25 -26 -1 -34 -6 -39 -27 -4 -15 -2 -30 5
-37 35 -35 221 20 221 64 0 33 -25 72 -69 107 -40 32 -46 52 -14 52 8 0 30 7
49 16 27 13 34 22 34 44 0 41 -27 49 -91 25z"/>
<path d="M18757 9213 c-4 -3 -7 -19 -7 -35 0 -25 3 -28 35 -28 43 0 55 22 30
50 -18 20 -46 26 -58 13z"/>
<path d="M9608 9183 c-21 -5 -22 -16 -7 -45 6 -12 18 -53 26 -92 8 -39 21 -81
29 -93 17 -27 46 -30 65 -7 26 32 -49 247 -86 243 -5 -1 -18 -3 -27 -6z"/>
<path d="M19005 9174 c-52 -16 -85 -44 -85 -73 0 -17 54 -78 109 -124 28 -23
32 -30 20 -38 -20 -12 -50 -11 -79 6 -50 27 -68 -24 -24 -69 39 -38 100 -36
160 4 61 42 56 88 -13 143 -53 42 -56 48 -37 68 9 11 24 19 33 19 19 0 61 27
61 40 0 19 -33 40 -63 39 -18 0 -54 -7 -82 -15z"/>
<path d="M9203 9129 c-42 -26 -63 -70 -70 -139 -7 -78 21 -118 101 -144 55
-18 61 -18 105 -3 25 10 58 17 73 17 33 0 41 11 32 45 -6 26 -9 26 -63 21 -31
-2 -72 -8 -91 -11 -23 -4 -41 -2 -54 8 -18 13 -16 16 34 43 29 16 67 46 83 66
l30 37 -33 40 c-28 36 -36 41 -73 41 -25 0 -55 -9 -74 -21z m77 -59 c0 -5 -13
-16 -30 -25 -33 -17 -38 -11 -13 17 17 19 43 24 43 8z"/>
<path d="M18304 9132 c-71 -25 -125 -71 -158 -135 -34 -69 -36 -122 -5 -178
43 -78 147 -111 232 -75 51 21 107 82 107 116 0 42 -15 45 -57 12 -43 -32
-136 -55 -180 -43 -15 4 -34 18 -41 32 -39 76 70 187 198 199 51 5 55 7 58 33
2 16 -2 35 -9 43 -16 19 -82 17 -145 -4z"/>
<path d="M19230 9091 c-14 -44 -8 -118 12 -151 14 -22 50 -36 67 -25 18 10 13
66 -12 141 -28 82 -48 92 -67 35z"/>
<path d="M18583 9058 c-27 -30 -53 -82 -53 -107 0 -33 48 -131 64 -131 16 0
46 26 46 41 0 6 -5 29 -11 52 -13 52 1 97 30 97 22 0 33 30 19 54 -14 24 -70
21 -95 -6z"/>
<path d="M18793 9023 c-5 -10 -8 -44 -7 -75 1 -68 24 -111 57 -106 31 4 32 47
4 127 -23 67 -42 86 -54 54z"/>
<path d="M13270 9003 c-79 -8 -118 -45 -87 -81 38 -46 101 -290 111 -436 4
-60 18 -86 45 -86 9 0 36 -7 60 -16 39 -13 45 -13 61 1 9 8 24 15 33 15 22 0
32 37 15 57 -7 9 -28 22 -46 30 -23 9 -38 26 -49 51 -8 20 -21 44 -28 52 -23
26 -2 40 75 53 66 11 75 15 81 37 3 14 2 33 -4 44 -8 17 -17 18 -107 12 l-98
-7 -21 68 c-30 102 -30 105 4 115 17 4 57 8 91 7 34 -1 67 1 73 6 14 8 7 51
-11 72 -10 13 -111 15 -198 6z"/>
<path d="M19807 8982 c-24 -26 -21 -55 6 -81 28 -25 50 -20 66 15 13 29 2 57
-29 74 -24 13 -24 13 -43 -8z"/>
<path d="M8438 8880 c-98 -100 -320 -293 -395 -345 -25 -16 -70 -46 -101 -66
-202 -128 -236 -149 -243 -149 -5 0 -16 14 -25 32 -13 25 -15 47 -10 98 4 46
2 72 -7 83 -11 15 -16 13 -54 -19 -28 -23 -43 -44 -43 -59 0 -23 -29 -61 -151
-197 -79 -88 -84 -100 -56 -126 33 -31 66 -40 143 -41 50 0 93 -8 158 -30 50
-17 105 -31 123 -31 29 0 33 3 33 25 0 14 -9 34 -20 45 -11 11 -20 31 -20 45
0 13 -8 40 -17 59 -16 34 -16 37 2 56 10 11 23 20 29 20 6 0 37 18 69 40 31
22 60 40 63 40 11 0 149 92 175 117 14 13 40 32 57 41 17 9 68 53 113 97 46
44 101 95 123 113 52 44 133 138 153 178 11 23 13 36 5 50 -9 17 -20 9 -104
-76z"/>
<path d="M12960 8951 c-88 -37 -193 -96 -207 -117 -12 -19 -12 -24 2 -38 9 -9
29 -16 45 -16 26 0 30 -4 36 -37 4 -21 14 -54 22 -73 8 -19 22 -69 32 -110 22
-100 60 -160 99 -160 25 0 61 21 61 35 0 4 -5 15 -44 106 -8 19 -18 54 -22 77
l-7 42 54 1 c30 1 69 0 87 -1 21 -1 34 4 38 15 8 19 -22 55 -47 55 -10 0 -21
5 -24 10 -3 6 -39 10 -78 10 -80 0 -91 5 -99 37 -7 28 21 51 106 85 67 27 87
48 70 76 -15 24 -70 25 -124 3z"/>
<path d="M12454 8919 c-85 -8 -182 -71 -159 -103 67 -87 136 -264 151 -383 7
-53 24 -73 64 -73 14 0 36 -8 49 -17 27 -18 110 -20 154 -4 32 13 67 66 67
103 0 21 -19 44 -84 104 l-84 78 40 36 c37 32 41 41 45 90 4 61 -4 75 -67 121
-57 41 -107 55 -176 48z m153 -121 c24 -25 26 -30 14 -52 -19 -35 -87 -76
-127 -76 -32 0 -37 4 -55 48 -11 26 -25 57 -31 69 -18 38 -2 45 88 41 75 -3
86 -6 111 -30z m-55 -222 c71 -31 150 -102 146 -130 -2 -16 -13 -23 -45 -30
-58 -12 -88 -2 -103 34 -7 16 -16 30 -21 30 -5 0 -12 8 -17 18 -12 21 -26 102
-18 102 3 0 29 -11 58 -24z"/>
<path d="M11962 8680 c-10 -17 -8 -26 21 -64 21 -29 40 -45 55 -45 28 -1 29
28 2 87 -21 47 -56 57 -78 22z"/>
<path d="M10692 8548 c-18 -18 -15 -43 9 -64 24 -22 52 -10 57 25 6 41 -38 67
-66 39z"/>
<path d="M11132 8538 c-21 -21 -13 -47 18 -63 31 -16 100 -21 100 -6 0 13 -78
81 -93 81 -7 0 -18 -5 -25 -12z"/>
<path d="M18426 8515 c-3 -8 -1 -27 5 -42 5 -15 7 -44 4 -64 -4 -20 -1 -90 5
-155 21 -232 27 -402 18 -560 -4 -87 -10 -220 -13 -294 -3 -94 -11 -159 -25
-215 -12 -44 -23 -81 -24 -82 -1 -1 -33 9 -72 22 -96 34 -112 33 -119 -8 -4
-21 -1 -47 8 -68 20 -48 31 -124 28 -191 -2 -45 2 -66 20 -95 27 -46 47 -63
72 -63 27 0 133 66 187 116 25 23 64 53 88 68 26 16 42 34 42 46 0 24 -34 60
-56 60 -9 0 -38 14 -65 32 l-50 32 7 45 c3 25 12 68 20 95 8 27 14 90 14 140
0 50 5 141 11 201 18 178 13 487 -10 655 -37 262 -53 340 -72 340 -9 0 -19 -7
-23 -15z"/>
<path d="M10925 8470 c-121 -71 -114 -134 23 -197 72 -33 74 -34 57 -53 -10
-11 -34 -25 -54 -31 -48 -15 -61 -27 -61 -54 0 -27 40 -50 73 -41 13 3 52 26
86 51 53 39 62 50 59 73 -4 30 -75 90 -119 99 -34 7 -64 37 -56 57 3 8 25 20
47 27 47 14 75 48 65 79 -9 29 -59 25 -120 -10z"/>
<path d="M11763 8458 c-47 -10 -83 -47 -83 -84 0 -32 -20 -41 -39 -16 -27 35
-123 102 -147 102 -55 0 -124 -47 -124 -84 0 -12 -9 -38 -20 -59 -25 -45 -17
-66 38 -101 77 -48 169 -42 228 15 19 18 34 40 34 49 0 30 13 31 26 2 25 -61
90 -41 78 24 -12 67 47 95 115 53 30 -18 32 -23 27 -53 -6 -30 -4 -35 25 -46
28 -12 33 -12 45 5 18 24 18 37 -2 83 -14 35 -58 81 -78 82 -5 0 -17 6 -25 14
-24 21 -51 25 -98 14z m-214 -105 c39 -37 29 -67 -27 -83 -49 -13 -72 -5 -72
25 0 13 -3 30 -6 38 -7 20 22 47 52 47 13 0 37 -12 53 -27z"/>
<path d="M9545 8436 c-52 -19 -93 -48 -105 -74 -9 -21 -8 -28 9 -46 26 -28 38
-78 52 -220 l12 -118 53 -25 c47 -21 58 -23 95 -13 53 14 142 97 175 162 40
79 30 154 -33 250 -47 70 -180 114 -258 84z m162 -99 c38 -20 58 -45 73 -90
17 -53 5 -103 -33 -141 -18 -17 -40 -42 -49 -54 -18 -23 -70 -30 -96 -13 -8 4
-17 44 -22 98 -5 50 -14 103 -20 117 -5 15 -10 40 -10 56 0 24 5 31 28 36 15
3 32 7 37 9 19 5 64 -4 92 -18z"/>
<path d="M12068 8419 c-25 -14 -22 -56 5 -73 48 -32 94 11 63 59 -17 26 -40
31 -68 14z"/>
<path d="M11176 8405 c-9 -9 -16 -23 -16 -31 0 -25 22 -108 32 -121 6 -7 15
-34 22 -60 10 -38 17 -49 35 -51 37 -6 49 13 40 62 -4 23 -14 58 -23 77 -8 19
-23 56 -33 83 -21 56 -33 64 -57 41z"/>
<path d="M10736 8388 c-20 -29 -20 -35 5 -123 22 -75 40 -95 66 -74 14 12 14
16 -7 119 -5 25 -12 57 -15 73 -7 33 -28 35 -49 5z"/>
<path d="M10495 8366 c-59 -26 -120 -111 -113 -158 2 -11 20 -35 41 -52 37
-29 44 -31 120 -30 134 1 166 18 111 58 -19 13 -45 18 -99 20 -78 2 -100 11
-89 40 7 18 54 46 78 46 8 0 20 9 26 21 9 16 8 26 -5 45 -18 27 -28 29 -70 10z"/>
<path d="M10113 8347 c-24 -12 -67 -51 -98 -86 -73 -85 -74 -113 -8 -171 26
-23 60 -44 75 -47 16 -3 31 -10 34 -14 17 -29 212 17 245 58 11 13 10 18 -11
35 -25 20 -26 20 -124 -7 -59 -16 -127 -11 -128 10 0 5 25 23 56 40 87 47 109
70 101 108 -6 31 -68 97 -90 97 -5 -1 -29 -11 -52 -23z m67 -75 c0 -5 -20 -17
-45 -29 -48 -22 -59 -13 -22 18 22 18 67 26 67 11z"/>
<path d="M21783 8333 c-4 -9 3 -32 14 -52 23 -41 69 -152 79 -193 5 -25 3 -28
-19 -28 -30 0 -65 -28 -69 -54 -4 -24 33 -46 78 -46 17 0 36 -6 42 -12 5 -7
13 -64 17 -126 6 -89 12 -118 27 -137 42 -54 68 -17 68 93 -1 37 -4 85 -8 107
-4 22 -6 52 -4 68 3 22 8 27 32 27 22 0 30 6 36 28 13 45 11 47 -50 52 l-58 5
-19 50 c-10 28 -23 58 -29 68 -6 9 -20 42 -31 72 -28 76 -90 121 -106 78z"/>
<path d="M1585 8220 c-4 -6 -11 -8 -16 -5 -5 4 -9 -2 -10 -12 0 -10 -13 -37
-27 -60 -62 -97 -125 -184 -140 -196 -47 -36 -64 -66 -69 -125 -5 -56 -4 -61
21 -77 21 -14 39 -16 81 -12 33 3 57 1 61 -5 12 -18 9 -91 -13 -363 -8 -104
-6 -123 17 -155 31 -43 59 -48 86 -15 18 23 20 33 13 66 -5 22 -7 63 -4 92 3
28 7 81 10 117 6 95 15 191 21 222 5 22 13 29 47 36 23 4 61 4 84 -1 23 -4 56
-7 74 -5 37 3 59 30 44 52 -6 7 -30 39 -53 70 -49 65 -88 145 -97 202 -10 63
-27 127 -42 157 -11 21 -20 27 -48 27 -18 0 -37 -5 -40 -10z"/>
<path d="M22137 8183 c-11 -11 -8 -58 5 -71 7 -7 26 -12 43 -12 55 0 75 45 33
74 -23 16 -69 21 -81 9z"/>
<path d="M9280 8126 c-23 -12 -50 -16 -220 -32 -30 -3 -77 -12 -103 -19 -26
-8 -85 -19 -130 -25 -45 -6 -102 -17 -127 -25 -25 -8 -101 -23 -169 -35 -116
-19 -188 -36 -341 -80 -91 -26 -214 -60 -220 -60 -4 0 -11 26 -18 59 -30 142
-106 149 -196 17 -10 -16 -33 -34 -50 -41 -17 -8 -57 -34 -90 -59 -32 -25 -63
-46 -68 -46 -5 0 -16 -17 -25 -37 -15 -36 -14 -38 10 -59 18 -16 44 -23 103
-28 83 -6 139 -19 189 -41 59 -27 108 -45 119 -45 24 0 44 54 42 112 l-3 58
61 19 c34 11 104 32 156 46 52 15 109 32 125 40 17 7 64 19 105 25 41 7 88 16
104 21 16 5 45 9 65 9 20 1 61 10 91 21 30 11 90 25 132 30 42 4 121 19 175
33 54 13 131 29 172 35 41 6 89 18 107 27 33 16 61 64 49 83 -8 14 -14 13 -45
-3z"/>
<path d="M20567 8118 c-3 -12 4 -62 17 -112 22 -83 40 -235 37 -296 -1 -14 -2
-51 -4 -84 l-2 -59 45 -14 c36 -11 58 -12 116 -2 68 11 71 13 102 58 18 25 33
60 33 76 1 23 3 25 6 8 5 -26 89 -120 123 -138 42 -22 78 -7 142 58 50 51 59
66 56 91 -5 51 -39 47 -100 -13 -56 -55 -68 -60 -88 -36 -19 23 5 63 60 96 79
49 84 61 54 124 -15 32 -71 65 -110 65 -66 0 -139 -94 -135 -175 2 -45 5 -47
-62 39 -33 42 -67 62 -121 69 -21 3 -41 9 -45 14 -4 4 -18 55 -30 113 -13 58
-27 113 -32 123 -14 25 -55 22 -62 -5z m481 -310 c-18 -16 -38 -28 -45 -28
-33 0 4 67 40 72 37 5 39 -15 5 -44z m-258 -45 c14 -9 28 -22 32 -27 26 -37
-16 -96 -68 -96 -59 0 -64 6 -64 76 l0 64 38 0 c21 0 49 -8 62 -17z"/>
<path d="M22699 8108 c-9 -7 -23 -33 -32 -58 -9 -25 -21 -58 -27 -74 l-11 -30
-29 36 c-38 45 -126 83 -176 75 -42 -7 -61 -28 -70 -77 -4 -19 -16 -41 -27
-49 -15 -11 -18 -22 -14 -52 10 -76 92 -138 166 -124 74 14 151 72 151 114 0
9 11 -4 23 -28 13 -24 30 -49 39 -55 38 -24 66 48 49 125 -8 35 -7 48 7 71 9
15 20 28 25 28 16 0 76 -74 92 -114 40 -98 49 -111 81 -114 19 -2 36 3 44 13
12 14 9 26 -19 83 -52 106 -91 162 -144 203 -51 41 -99 51 -128 27z m-182
-170 c43 -40 21 -78 -47 -78 -27 0 -30 2 -20 19 5 11 10 30 10 44 0 43 21 49
57 15z"/>
<path d="M20204 8029 c-17 -19 -17 -23 -2 -67 9 -26 22 -77 28 -114 6 -38 14
-78 19 -90 5 -13 14 -57 21 -98 6 -41 15 -91 20 -110 27 -111 31 -120 51 -120
38 0 40 33 8 235 -6 39 -19 104 -29 145 -10 41 -21 92 -25 113 -9 55 -42 127
-58 127 -8 0 -22 -9 -33 -21z"/>
<path d="M20368 8014 c-11 -24 -10 -29 20 -55 50 -45 64 -39 60 24 -3 51 -4
52 -35 55 -27 3 -35 -1 -45 -24z"/>
<path d="M22181 7994 c-12 -15 -21 -41 -21 -61 0 -41 30 -111 60 -138 22 -20
22 -20 41 4 24 29 24 41 -1 119 -34 110 -45 120 -79 76z"/>
<path d="M21718 7980 c-15 -4 -54 -25 -87 -47 -70 -45 -107 -104 -117 -184 -5
-49 -4 -56 20 -78 28 -26 79 -31 116 -11 24 13 80 87 80 107 0 7 5 13 10 13 6
0 10 -4 10 -10 0 -5 6 -10 13 -10 8 0 22 -9 32 -20 21 -23 43 -25 68 -5 23 16
16 46 -16 73 -41 33 -67 79 -65 116 1 19 -5 42 -12 51 -14 17 -14 17 -52 5z
m-80 -190 c-10 -31 -25 -46 -35 -37 -6 7 28 67 39 67 4 0 2 -14 -4 -30z"/>
<path d="M21353 7960 c-18 -11 -33 -24 -33 -30 0 -5 -16 -27 -35 -49 -19 -21
-35 -43 -35 -49 0 -6 10 -26 23 -45 12 -19 34 -55 49 -81 31 -52 51 -64 74
-45 17 14 16 43 -7 121 -18 67 -5 101 41 108 30 4 35 9 38 36 2 24 -2 33 -23
42 -36 17 -55 15 -92 -8z"/>
<path d="M19488 7944 c-48 -26 -68 -60 -57 -97 5 -17 9 -33 9 -34 0 -2 8 -3
18 -3 13 0 22 -17 36 -73 10 -39 20 -91 22 -115 2 -23 8 -51 13 -61 6 -10 10
-46 10 -80 -1 -74 24 -124 63 -129 32 -4 146 93 204 173 21 30 42 55 46 55 3
0 12 -16 18 -36 16 -48 74 -111 119 -130 38 -16 116 -12 153 7 17 9 58 78 58
98 0 21 -36 20 -87 -4 -60 -27 -84 -30 -114 -15 -25 14 -24 30 1 30 54 0 152
80 166 135 8 31 -11 84 -38 108 -14 12 -37 17 -77 17 -82 0 -123 -14 -144 -50
-22 -37 -32 -32 -42 17 -5 28 -23 53 -72 101 -36 34 -80 70 -97 79 -43 23
-172 27 -208 7z m219 -115 c117 -81 121 -162 16 -286 -45 -53 -78 -72 -94 -56
-5 5 -16 58 -24 118 -8 61 -21 135 -28 165 -12 53 -14 55 -45 55 -36 0 -38 2
-18 24 11 12 30 15 82 13 56 -3 76 -9 111 -33z m363 -143 c0 -22 -17 -36 -74
-65 -47 -25 -58 -27 -63 -15 -3 9 -1 20 6 27 6 6 11 19 11 28 0 22 14 31 60
39 40 7 60 3 60 -14z"/>
<path d="M20486 7761 c-35 -38 0 -176 44 -176 21 0 29 48 22 123 -6 57 -10 67
-28 70 -11 2 -28 -6 -38 -17z"/>
<path d="M19383 7421 c-65 -33 -78 -50 -143 -186 -30 -60 -70 -137 -90 -170
-20 -33 -49 -88 -65 -122 -16 -35 -31 -63 -34 -63 -11 0 -26 15 -64 63 -21 26
-45 47 -52 47 -21 0 -35 -33 -35 -79 0 -22 -4 -51 -9 -64 -6 -14 -17 -56 -25
-94 -8 -37 -22 -95 -30 -128 -22 -87 -20 -112 9 -131 36 -23 79 -11 104 31 22
38 31 41 181 50 75 4 98 9 114 25 17 17 18 24 8 58 -7 21 -34 64 -62 96 -27
31 -50 66 -50 77 0 19 28 77 91 184 36 63 129 253 129 264 0 4 12 24 28 44 22
29 56 81 70 108 9 19 -30 13 -75 -10z"/>
<path d="M3718 7215 c-10 -21 -8 -38 10 -90 32 -97 21 -111 -62 -75 -42 19
-48 20 -76 5 -50 -26 -32 -65 41 -90 64 -23 107 -44 116 -58 4 -6 8 -55 8
-108 0 -81 3 -100 19 -118 11 -12 27 -21 37 -21 32 0 40 33 34 141 l-6 102 38
-7 c21 -4 64 -10 96 -13 52 -5 57 -3 57 15 0 25 -14 36 -65 52 -88 28 -125 49
-130 78 -22 107 -69 212 -96 212 -5 0 -15 -11 -21 -25z"/>
<path d="M4420 7122 c0 -15 4 -32 9 -37 4 -6 18 -38 29 -72 l20 -62 -36 -7
c-64 -10 -102 -27 -102 -44 0 -24 42 -43 92 -43 24 0 46 -5 50 -11 4 -6 8 -52
8 -103 0 -87 2 -94 27 -117 20 -19 31 -23 45 -15 16 9 18 24 18 124 l0 115 45
0 c32 0 47 5 51 15 9 21 -9 39 -65 66 -41 19 -51 29 -61 63 -22 75 -52 127
-81 141 -40 21 -49 19 -49 -13z"/>
<path d="M2075 7090 c-16 -18 -16 -24 -1 -102 9 -46 25 -117 37 -158 24 -87
25 -93 42 -183 12 -70 25 -87 66 -87 24 0 24 0 17 83 -3 45 -13 105 -20 132
-29 102 -45 172 -55 245 -7 41 -17 78 -24 82 -20 13 -43 9 -62 -12z"/>
<path d="M4683 7058 c-29 -14 -29 -32 -1 -58 25 -23 32 -24 59 -10 26 14 24
45 -3 64 -26 18 -25 18 -55 4z"/>
<path d="M1065 6954 c-55 -13 -122 -24 -150 -25 -69 -1 -97 -11 -106 -36 -12
-32 30 -68 68 -58 15 3 54 7 86 7 78 0 83 -9 83 -131 l-1 -96 -86 -6 c-47 -3
-91 -9 -97 -13 -21 -13 -13 -45 15 -63 74 -48 389 13 406 79 7 26 -13 32 -77
24 l-53 -6 -16 84 c-10 47 -17 102 -17 124 0 43 13 52 72 52 41 0 76 20 81 46
2 14 1 27 -3 29 -24 15 -116 10 -205 -11z"/>
<path d="M4138 6918 c-20 -11 -66 -49 -102 -83 -56 -54 -66 -68 -66 -96 1 -47
17 -64 76 -79 48 -12 54 -12 88 9 19 12 51 41 71 63 19 23 36 40 38 37 1 -2
15 -23 30 -46 37 -58 98 -98 126 -83 12 6 21 13 21 16 0 3 -17 26 -39 52 -67
82 -101 153 -94 195 l6 37 -59 -1 c-39 0 -71 -8 -96 -21z m32 -95 c0 -13 -74
-83 -87 -83 -23 0 -14 18 29 54 40 35 58 44 58 29z"/>
<path d="M3424 6907 c-18 -16 -33 -45 -45 -87 -17 -62 -17 -65 4 -121 17 -48
25 -59 49 -64 41 -10 51 1 43 49 -8 52 -7 149 3 157 4 4 23 1 43 -7 35 -15 56
-45 74 -111 9 -32 33 -53 60 -53 34 0 36 19 11 94 -28 83 -79 139 -142 155
-60 15 -69 14 -100 -12z"/>
<path d="M5248 6903 c-34 -37 -48 -83 -48 -157 0 -71 18 -106 56 -106 28 0 28
0 28 97 1 53 5 77 17 89 22 21 39 11 84 -51 45 -63 65 -108 65 -151 0 -24 5
-34 20 -39 30 -10 59 4 66 29 6 25 -24 105 -62 168 -37 59 -122 138 -149 138
-13 0 -30 2 -37 5 -8 3 -25 -7 -40 -22z"/>
<path d="M2652 6904 c-27 -19 -28 -46 -2 -144 14 -52 28 -82 45 -97 15 -13 30
-23 34 -23 12 0 34 57 27 69 -4 6 -4 22 0 36 l6 25 30 -25 c16 -14 36 -25 43
-25 17 0 55 39 55 57 0 7 5 13 10 13 6 0 10 -9 10 -19 0 -10 14 -33 30 -51 25
-26 36 -31 58 -27 18 4 38 0 54 -11 14 -9 44 -30 67 -45 55 -37 125 -46 172
-22 45 23 69 45 69 62 0 12 -14 14 -77 8 l-78 -6 26 24 c45 41 81 103 77 133
-5 46 -48 69 -130 68 -67 0 -72 -2 -99 -32 -18 -20 -29 -43 -29 -62 0 -25 -4
-30 -23 -30 -19 0 -28 11 -46 54 -39 94 -69 104 -131 46 l-32 -29 -28 21 c-17
12 -37 19 -49 15 -15 -3 -25 1 -31 14 -13 23 -28 24 -58 3z m564 -85 c7 -12
-43 -69 -62 -69 -18 0 -23 11 -17 42 3 15 13 29 22 31 30 8 50 7 57 -4z"/>
<path d="M4973 6906 c-35 -16 -55 -65 -57 -140 -1 -37 2 -41 44 -62 61 -31
135 -24 179 17 17 15 31 37 31 47 0 11 -18 44 -40 73 -22 29 -41 56 -42 61 -6
15 -83 18 -115 4z m97 -91 c21 -22 22 -27 9 -39 -8 -7 -26 -16 -41 -20 -27 -6
-28 -5 -28 39 0 37 3 45 18 45 10 0 29 -11 42 -25z"/>
<path d="M4717 6904 c-21 -21 14 -146 48 -168 34 -23 50 -5 48 54 -1 62 -30
114 -64 118 -14 2 -28 0 -32 -4z"/>
<path d="M2391 6891 c-36 -10 -60 -50 -64 -106 -4 -45 -7 -50 -31 -53 -37 -5
-47 -49 -16 -74 14 -11 31 -16 45 -12 19 5 26 -1 40 -33 14 -32 27 -43 71 -61
60 -24 86 -20 137 27 50 46 33 60 -48 41 -37 -9 -42 -8 -67 20 -32 35 -36 60
-10 60 9 0 40 11 69 24 67 31 76 60 38 110 -17 22 -43 40 -72 50 -50 17 -55
18 -92 7z m89 -100 c0 -8 -32 -20 -52 -21 -5 0 -8 14 -8 30 l0 31 30 -16 c17
-9 30 -19 30 -24z"/>
<path d="M1342 6813 c-27 -32 -37 -57 -33 -85 5 -41 14 -74 21 -84 6 -6 11
-23 12 -38 3 -31 12 -40 47 -49 41 -10 49 6 44 92 -4 84 7 110 27 62 8 -20 25
-35 52 -45 43 -18 58 -14 58 14 0 22 12 32 26 22 15 -10 34 -47 34 -67 0 -9
12 -41 27 -72 28 -57 59 -79 95 -67 20 6 21 16 2 82 -5 17 -2 22 14 22 14 0
21 -9 25 -32 4 -18 13 -62 21 -98 8 -36 12 -86 9 -111 -4 -34 -1 -50 12 -62
22 -22 52 -22 64 2 14 26 17 113 7 189 -6 51 -5 62 6 62 50 0 148 80 148 121
0 27 -66 96 -104 109 -87 28 -175 6 -223 -56 l-25 -34 -19 35 c-11 19 -19 41
-19 49 0 8 -14 24 -30 36 -29 21 -32 21 -56 5 -14 -9 -30 -27 -36 -41 -6 -13
-14 -24 -17 -23 -3 0 -23 22 -44 50 -33 43 -42 49 -75 49 -31 0 -43 -6 -70
-37z m617 -127 c10 -12 7 -18 -13 -31 -37 -24 -70 -16 -74 18 -3 25 -1 27 36
27 22 0 45 -6 51 -14z"/>
<path d="M8019 6139 c-15 -6 -32 -25 -42 -47 -26 -58 -216 -292 -237 -292 -20
0 -9 -41 18 -71 34 -39 72 -59 110 -59 16 0 34 -6 40 -13 14 -17 -32 -307 -85
-534 -8 -35 5 -71 28 -78 40 -13 32 -44 129 475 12 63 25 118 28 121 4 4 34
-2 67 -13 55 -17 63 -18 93 -4 27 13 32 21 32 50 0 18 -7 39 -15 46 -9 8 -12
22 -8 40 3 20 -1 38 -14 57 -11 15 -23 46 -27 68 -9 55 -36 182 -47 228 -10
39 -22 44 -70 26z"/>
<path d="M18532 5099 c-13 -5 -44 -26 -70 -47 -26 -21 -60 -44 -75 -52 -16 -8
-53 -35 -82 -60 -29 -25 -61 -52 -72 -60 -32 -26 -147 -80 -168 -80 -53 0 -59
-53 -13 -105 34 -40 122 -95 151 -95 31 0 31 -29 -2 -95 -34 -70 -115 -200
-132 -210 -5 -4 -22 -25 -36 -48 -15 -23 -52 -72 -82 -109 -67 -79 -143 -171
-229 -276 -34 -42 -68 -94 -74 -116 -11 -34 -10 -40 7 -52 33 -25 53 -16 88
39 19 28 68 89 109 134 41 46 92 106 114 134 21 27 60 75 86 106 26 31 75 97
109 147 34 50 69 100 78 111 10 11 23 38 30 60 19 55 58 115 75 115 8 0 32
-21 54 -47 22 -25 48 -47 59 -48 10 -1 26 -5 35 -9 9 -4 27 -6 40 -4 22 3 23
9 30 93 9 127 46 475 53 505 5 18 0 34 -15 53 -23 29 -32 31 -68 16z"/>
<path d="M9924 4938 c-5 -7 -8 -53 -9 -103 l0 -90 -45 -5 c-25 -3 -51 -9 -57
-13 -37 -23 10 -67 69 -67 l38 0 0 -55 c0 -29 -4 -76 -9 -102 -21 -107 -21
-123 0 -144 49 -49 87 42 88 209 1 57 5 84 14 87 16 5 114 14 155 15 27 0 32
4 32 24 0 36 -39 47 -181 55 -13 1 -18 18 -24 83 -4 46 -11 91 -16 100 -11 21
-44 24 -55 6z"/>
<path d="M10543 4934 c-3 -9 1 -67 10 -128 21 -136 21 -146 2 -146 -31 0 -125
-42 -125 -56 0 -23 42 -34 90 -23 53 12 59 5 61 -71 2 -110 12 -153 39 -167
42 -21 51 -2 49 106 -1 63 3 104 11 117 10 17 9 27 -9 62 -11 23 -21 49 -21
59 0 48 -51 239 -67 251 -23 16 -32 15 -40 -4z"/>
<path d="M7600 4868 c-32 -15 -68 -21 -125 -23 -77 -2 -80 -3 -89 -28 -7 -19
-6 -31 1 -38 14 -14 114 -13 163 1 19 5 36 10 37 10 11 0 -1 -121 -17 -172
-11 -34 -20 -71 -20 -81 0 -17 -5 -18 -42 -11 -55 10 -97 8 -114 -7 -53 -44
51 -86 221 -91 45 -1 86 2 93 6 22 14 12 32 -28 50 -45 20 -46 23 -25 116 8
36 14 98 15 139 l0 74 44 -6 c38 -6 45 -4 49 13 14 55 -85 84 -163 48z"/>
<path d="M8382 4861 c-6 -3 -9 -61 -7 -138 2 -110 -8 -214 -22 -232 -2 -3 -13
5 -26 16 -26 25 -120 53 -174 53 -21 0 -58 -9 -82 -20 -24 -11 -45 -19 -45
-18 -1 2 -9 20 -19 42 -16 35 -21 38 -50 34 -18 -3 -40 -8 -49 -13 -14 -5 -18
-2 -18 14 0 12 -7 35 -15 51 -23 45 -58 40 -92 -11 -24 -37 -28 -53 -31 -139
-5 -108 5 -140 42 -140 28 0 36 21 36 97 0 56 16 79 26 39 8 -34 28 -39 59
-14 15 11 30 17 35 12 11 -12 30 -106 30 -148 0 -37 25 -66 58 -66 30 0 35 28
17 96 -22 85 -21 91 15 86 25 -3 28 -7 19 -18 -7 -9 -9 -36 -5 -76 3 -35 10
-112 15 -171 4 -60 13 -113 19 -119 5 -5 20 -8 33 -6 23 3 24 8 27 83 2 43 -2
110 -8 148 -6 39 -9 71 -7 73 2 2 17 6 33 8 74 9 104 20 130 47 32 34 44 30
44 -16 0 -26 6 -37 33 -54 27 -18 34 -19 43 -6 12 17 13 460 0 486 -8 18 -48
30 -64 20z m-139 -381 c5 -4 -12 -15 -37 -23 -39 -13 -47 -13 -57 -1 -6 8 -21
14 -33 15 -14 1 -7 6 19 14 39 13 92 11 108 -5z"/>
<path d="M10776 4774 c-17 -16 -20 -33 -10 -58 4 -11 19 -16 50 -16 40 0 44 2
44 24 0 16 -11 32 -29 45 -35 25 -35 25 -55 5z"/>
<path d="M11372 4693 c-14 -3 -37 -27 -62 -64 -43 -65 -50 -107 -28 -170 27
-80 78 -54 78 39 0 48 17 107 35 122 11 9 20 7 41 -6 33 -22 52 -65 60 -141 8
-74 19 -93 49 -93 34 0 39 30 22 124 -16 83 -40 126 -95 169 -34 26 -51 29
-100 20z"/>
<path d="M8928 4673 c-40 -46 -53 -95 -47 -175 9 -102 15 -125 40 -138 15 -9
24 -8 36 1 12 11 14 30 9 111 -3 54 -2 98 3 98 12 0 21 -26 21 -59 0 -28 39
-81 59 -81 5 0 18 14 28 30 19 33 33 39 33 14 0 -23 48 -106 77 -132 20 -18
28 -20 39 -11 20 16 18 33 -13 92 -15 29 -36 79 -47 111 -26 74 -45 87 -86 62
-17 -10 -33 -16 -34 -14 -1 1 -10 20 -20 40 -16 37 -50 68 -72 68 -6 0 -18 -8
-26 -17z"/>
<path d="M8635 4655 c-45 -21 -67 -44 -103 -107 -36 -65 -34 -84 14 -130 50
-47 96 -60 165 -48 69 13 123 39 127 63 3 15 -8 16 -107 10 -96 -5 -111 -4
-111 9 0 10 16 20 43 26 47 12 124 67 133 94 3 10 -4 31 -16 49 -35 49 -88 61
-145 34z m80 -65 c0 -13 -75 -58 -97 -60 -17 0 -7 25 19 52 30 31 78 36 78 8z"/>
<path d="M9374 4627 c-49 -36 -65 -55 -83 -99 -46 -114 -12 -184 88 -182 32 0
62 9 92 26 124 71 109 66 126 41 18 -26 45 -30 62 -9 7 8 14 43 17 77 2 35 9
68 14 73 15 15 40 -26 71 -111 27 -76 44 -103 63 -103 45 0 33 89 -27 204 -44
83 -76 116 -112 116 -37 0 -95 -81 -95 -134 0 -15 -8 -30 -21 -36 -29 -16 -35
-5 -20 35 14 39 2 73 -41 112 -43 40 -68 39 -134 -10z m106 -62 c0 -8 -17 -26
-37 -40 -73 -49 -100 -20 -38 42 29 29 37 33 55 23 11 -6 20 -17 20 -25z"/>
<path d="M10300 4626 c-30 -13 -71 -31 -91 -39 -21 -9 -53 -35 -73 -59 -30
-35 -36 -49 -36 -89 0 -40 5 -53 34 -83 35 -38 62 -44 99 -24 27 14 75 67 83
91 7 23 14 21 52 -17 44 -44 75 -60 105 -52 32 8 42 43 16 51 -53 17 -91 94
-91 183 0 57 -1 62 -21 62 -12 0 -47 -11 -77 -24z m-17 -102 c8 -8 -12 -52
-41 -91 -30 -41 -59 -43 -68 -6 -6 23 -1 32 37 65 43 37 59 44 72 32z"/>
<path d="M10770 4625 c-9 -11 -11 -31 -5 -73 3 -31 7 -77 8 -102 2 -39 5 -46
30 -54 22 -8 30 -7 37 4 14 22 12 181 -3 210 -15 30 -48 37 -67 15z"/>
<path d="M11045 4618 c-11 -6 -24 -17 -28 -24 -5 -9 -18 -11 -37 -7 -42 8 -48
-17 -19 -73 23 -43 32 -50 112 -83 89 -36 167 12 167 103 0 38 -30 75 -73 88
-36 10 -100 8 -122 -4z m118 -68 c5 -4 4 -18 -3 -29 -9 -18 -19 -22 -48 -19
-42 3 -53 26 -26 53 17 16 58 14 77 -5z"/>
<path d="M19366 3949 c-14 -11 -51 -54 -81 -94 -39 -52 -75 -86 -120 -114 -36
-23 -68 -41 -73 -41 -18 0 -47 -43 -44 -64 6 -31 21 -46 50 -46 14 0 47 -10
73 -22 37 -18 48 -29 49 -46 0 -22 -45 -149 -80 -227 -11 -22 -22 -53 -26 -70
-4 -16 -13 -39 -20 -50 -7 -11 -31 -54 -54 -95 -102 -187 -105 -199 -55 -222
34 -15 52 2 111 106 25 45 50 88 55 96 20 33 49 100 49 112 0 7 12 38 27 68
14 30 43 102 62 160 23 66 42 106 51 108 9 1 40 -16 70 -38 30 -22 61 -39 69
-38 46 9 54 217 15 371 -27 108 -38 135 -63 154 -23 17 -35 16 -65 -8z"/>
<path d="M24230 3853 c-29 -11 -40 -37 -40 -99 0 -49 -6 -72 -30 -117 -16 -31
-30 -61 -30 -67 0 -6 -34 -56 -75 -111 -77 -103 -83 -116 -65 -149 18 -33 51
-43 141 -43 l87 1 16 -58 c17 -60 22 -282 13 -570 -4 -126 -32 -306 -66 -435
-11 -38 -27 -146 -36 -240 -9 -93 -23 -201 -32 -240 -21 -91 -72 -246 -87
-265 -25 -30 -56 -92 -56 -110 0 -20 44 -60 65 -60 22 0 70 64 110 145 48 99
82 247 100 440 13 139 29 238 42 275 9 22 13 40 23 100 5 30 14 84 20 120 7
36 15 88 19 115 10 61 7 685 -3 738 -7 36 5 52 18 25 5 -10 7 -10 12 0 7 15
31 15 90 0 44 -12 47 -12 66 12 37 46 12 163 -56 255 -16 22 -35 45 -41 50
-22 19 -69 108 -105 199 -31 78 -40 91 -61 93 -13 1 -31 -1 -39 -4z"/>
<path d="M16994 3695 c-4 -9 3 -46 14 -83 12 -37 23 -83 26 -102 6 -33 3 -37
-29 -54 -19 -11 -35 -23 -35 -27 0 -4 -3 -15 -6 -24 -5 -12 4 -20 36 -32 l42
-17 -7 -106 c-3 -58 -9 -107 -11 -110 -3 -2 -18 11 -34 30 -29 34 -62 111 -92
215 -12 42 -18 50 -40 53 -82 10 -227 -118 -228 -201 0 -64 69 -137 130 -137
26 0 42 9 72 41 43 45 55 43 83 -11 8 -15 29 -34 47 -43 30 -15 34 -15 45 0 7
9 14 21 16 26 2 6 17 1 35 -11 l31 -23 15 23 c11 17 16 54 17 128 3 154 3 154
77 161 69 7 112 35 112 74 0 43 -55 61 -96 30 -10 -8 -37 -15 -59 -15 l-40 0
-12 63 c-18 92 -58 167 -90 167 -7 0 -16 -7 -19 -15z m-176 -377 c5 -25 -45
-128 -62 -128 -9 0 -23 11 -32 25 -18 28 -17 31 40 93 31 33 49 37 54 10z"/>
<path d="M15505 3664 c-54 -7 -101 -11 -103 -9 -2 2 -18 -3 -35 -10 -18 -7
-57 -16 -88 -19 -39 -5 -63 -14 -82 -32 -31 -29 -32 -32 -11 -62 16 -23 43
-29 60 -13 12 11 211 44 223 37 20 -13 35 -311 16 -326 -5 -4 -39 -11 -75 -14
-69 -7 -93 -24 -88 -60 4 -23 49 -38 93 -31 17 3 44 7 60 10 17 3 62 8 100 11
79 8 95 16 95 50 0 18 -7 25 -27 30 -67 14 -73 20 -67 66 3 24 -2 88 -10 143
-9 55 -17 109 -19 120 -2 22 45 43 99 44 45 1 61 24 40 56 -19 29 -31 30 -181
9z"/>
<path d="M16270 3635 c-10 -12 -10 -24 -2 -53 14 -45 32 -115 32 -123 0 -4
-29 -4 -64 -2 -66 6 -69 4 -79 -37 -10 -42 6 -55 80 -60 66 -5 68 -6 74 -35 4
-16 7 -73 8 -126 1 -59 6 -100 13 -107 16 -16 68 -15 69 1 2 19 -1 200 -4 222
-2 18 3 20 50 17 44 -3 53 -1 63 18 15 28 0 46 -44 54 -75 14 -91 30 -109 108
-17 69 -50 138 -67 138 -4 0 -13 -7 -20 -15z"/>
<path d="M16499 3567 c-10 -22 -8 -30 17 -61 16 -20 35 -36 41 -36 23 0 26 48
6 82 -24 42 -49 47 -64 15z"/>
<path d="M16070 3539 c-11 -25 -11 -33 1 -44 26 -26 61 -23 78 8 15 27 15 29
-8 48 -34 28 -57 24 -71 -12z"/>
<path d="M17859 3526 c-2 -2 -28 -6 -57 -9 -64 -6 -92 -29 -126 -101 -38 -83
-40 -111 -10 -156 34 -51 73 -74 149 -89 72 -14 115 -4 132 29 21 42 2 57 -79
65 -40 4 -82 13 -92 21 -18 13 -18 14 10 24 50 18 88 42 117 74 24 27 28 37
24 75 -3 27 -12 50 -23 58 -18 13 -37 17 -45 9z m-39 -96 c0 -10 -32 -30 -49
-30 -19 0 -12 17 12 28 28 14 37 14 37 2z"/>
<path d="M17526 3481 c-9 -10 -22 -46 -28 -80 -6 -33 -16 -61 -22 -60 -6 0
-22 24 -36 52 -30 60 -52 69 -76 32 -16 -25 -16 -28 3 -63 11 -20 28 -60 38
-89 31 -87 83 -126 121 -89 14 14 37 101 49 185 4 24 13 54 21 67 32 48 -31
89 -70 45z"/>
<path d="M15805 3420 c-28 -11 -40 -28 -55 -75 -7 -22 -18 -49 -25 -61 -10
-15 -11 -39 -5 -94 9 -78 25 -104 65 -98 18 3 20 11 21 78 2 152 20 180 75
118 20 -24 33 -55 44 -108 19 -93 34 -124 62 -128 37 -5 46 28 27 105 -32 129
-69 195 -137 244 -44 32 -43 31 -72 19z"/>
<path d="M17273 3383 c-6 -2 -23 -39 -37 -81 -30 -89 -25 -128 17 -152 24 -13
29 -13 37 0 5 8 9 29 9 45 -1 17 2 64 6 106 8 77 1 94 -32 82z"/>
<path d="M16090 3350 c-26 -26 -25 -57 1 -128 12 -31 21 -69 21 -84 -1 -32 19
-51 50 -46 19 2 23 10 26 47 2 24 -3 65 -12 90 -8 25 -19 65 -25 87 -13 50
-34 61 -61 34z"/>
<path d="M16562 3318 c-13 -28 -31 -138 -25 -154 6 -15 61 -39 70 -30 13 13
16 175 3 191 -18 21 -35 19 -48 -7z"/>
<path d="M21315 2898 c-13 -41 -25 -127 -25 -179 0 -67 0 -67 -75 -71 -43 -3
-54 -8 -78 -37 l-27 -34 22 -25 c21 -21 30 -23 85 -20 38 2 64 0 65 -7 2 -5 1
-64 -2 -130 -3 -66 -1 -133 4 -148 8 -26 12 -28 40 -23 16 4 34 10 38 14 11
11 25 174 22 254 l-2 67 70 -6 c75 -6 88 0 88 44 0 17 -11 25 -52 39 -29 10
-61 19 -71 20 -10 1 -20 4 -23 7 -3 3 -8 54 -10 114 -3 59 -7 114 -9 121 -2 6
-16 12 -30 12 -14 0 -27 -6 -30 -12z"/>
<path d="M21956 2769 c-11 -17 -13 -41 -9 -109 l6 -87 -55 5 c-51 4 -56 2 -72
-24 -17 -25 -17 -29 -3 -53 12 -21 28 -28 74 -36 l58 -11 12 -87 c12 -94 32
-137 63 -137 26 0 34 30 33 129 l-1 84 53 -7 c59 -7 81 7 72 46 -4 16 -20 28
-54 40 -67 24 -84 39 -88 79 -6 70 -28 161 -42 175 -20 19 -29 18 -47 -7z"/>
<path d="M19750 2735 c-12 -37 -7 -177 10 -270 5 -27 12 -81 15 -118 8 -103
41 -153 74 -113 9 11 9 69 1 248 -13 249 -19 281 -63 286 -21 3 -27 -3 -37
-33z"/>
<path d="M18755 2680 c-33 -5 -78 -15 -100 -24 -22 -8 -47 -15 -56 -16 -18 0
-59 -52 -59 -75 0 -8 11 -21 25 -27 24 -11 58 -7 153 19 22 5 23 4 17 -30 -4
-20 -8 -82 -10 -139 -3 -127 -1 -115 -27 -123 -39 -12 -128 -59 -128 -68 0
-49 59 -65 144 -38 95 29 242 54 283 48 55 -9 73 11 73 83 0 42 5 61 18 73 26
24 30 22 72 -23 20 -22 42 -40 48 -40 6 0 24 11 40 25 24 20 32 22 41 11 14
-17 41 -104 41 -134 0 -13 11 -34 25 -47 29 -30 65 -33 65 -6 0 24 -29 140
-41 162 -4 9 -10 28 -13 42 -4 22 -21 53 -52 95 -1 2 -21 1 -43 -3 -25 -4 -41
-12 -41 -21 0 -22 -14 -17 -50 21 -28 29 -41 35 -77 35 -24 0 -43 -5 -43 -11
0 -5 -21 -19 -46 -30 l-46 -21 4 -64 3 -64 -80 0 -80 0 -2 126 c-1 69 2 136 7
150 9 22 15 24 72 23 109 -2 147 29 88 72 -30 23 -137 31 -225 19z"/>
<path d="M22243 2660 c-17 -7 -23 -18 -23 -39 0 -35 22 -51 70 -51 24 0 33 6
40 26 13 34 14 32 -22 54 -37 22 -35 22 -65 10z"/>
<path d="M20069 2552 c-54 -20 -91 -48 -109 -82 -7 -14 -21 -35 -32 -47 -32
-34 -18 -103 30 -149 61 -59 117 -70 187 -34 22 11 45 20 53 20 7 0 26 7 42
15 28 14 30 14 42 -5 26 -42 68 -7 68 57 0 25 1 25 25 9 35 -23 45 -21 87 21
27 27 39 33 42 22 3 -8 13 -34 21 -59 31 -88 102 -130 127 -74 11 24 10 29
-14 48 -14 11 -31 39 -38 61 -22 73 -71 165 -89 165 -26 0 -79 -37 -86 -59
-10 -31 -22 -26 -45 19 -12 23 -32 46 -46 52 -23 11 -28 8 -54 -22 -29 -34
-47 -101 -38 -138 4 -15 -3 -18 -59 -20 -35 -1 -72 -6 -83 -12 -23 -12 -50
-13 -50 -1 0 5 30 19 66 31 71 24 84 40 84 106 0 26 -8 44 -29 65 -34 33 -40
34 -102 11z m21 -85 c0 -11 -39 -37 -55 -37 -14 0 -2 18 23 32 33 21 32 21 32
5z"/>
<path d="M21014 2542 c-11 -9 -32 -33 -47 -53 -24 -34 -26 -42 -21 -105 6 -66
5 -68 -10 -46 -13 16 -27 22 -57 22 -21 0 -39 2 -39 5 0 2 11 21 25 41 46 68
25 121 -52 131 -67 8 -168 -78 -189 -162 -6 -23 1 -34 48 -80 46 -44 62 -53
99 -57 24 -2 46 -1 49 2 3 4 21 10 40 14 19 3 49 21 67 38 24 23 33 27 33 16
0 -9 14 -21 32 -27 42 -15 53 2 53 91 0 36 3 69 7 73 13 13 68 -61 94 -127 33
-83 54 -104 83 -88 19 10 21 17 15 63 -4 28 -19 72 -33 97 -15 25 -32 57 -40
72 -8 15 -29 43 -46 63 -37 40 -77 46 -111 17z"/>
<path d="M21660 2546 c-93 -21 -150 -64 -186 -141 -33 -69 -31 -104 6 -140 16
-16 40 -30 52 -31 34 -3 126 46 160 85 l31 35 22 -26 c13 -15 24 -30 26 -35 9
-20 73 -63 94 -63 20 0 45 24 45 44 0 3 -22 30 -48 60 -53 60 -102 149 -102
183 0 18 -28 46 -42 42 -2 -1 -28 -7 -58 -13z m-36 -167 c-30 -32 -78 -40 -72
-13 3 13 23 28 78 54 26 13 23 -11 -6 -41z"/>
<path d="M22500 2504 c-71 -64 -79 -167 -15 -189 17 -5 32 -13 35 -17 10 -13
118 -37 142 -31 34 9 47 21 69 70 17 37 18 50 9 78 -13 39 -57 80 -115 106
-58 27 -80 23 -125 -17z m141 -84 c10 -6 19 -17 19 -25 0 -11 -13 -15 -54 -15
-56 0 -72 9 -62 35 6 18 68 20 97 5z"/>
<path d="M19485 2475 c-43 -43 -54 -79 -31 -104 9 -10 16 -29 16 -42 0 -13 9
-58 21 -99 11 -41 22 -103 25 -139 5 -68 21 -92 56 -83 28 7 38 34 28 73 -5
19 -10 58 -12 88 l-3 55 34 7 c53 11 90 55 98 117 7 66 -8 90 -83 131 -76 41
-104 40 -149 -4z m140 -81 c14 -15 14 -19 -3 -47 -20 -35 -50 -47 -63 -25 -5
7 -9 30 -9 51 0 34 2 37 29 37 16 0 37 -7 46 -16z"/>
<path d="M22284 2485 c-18 -28 -16 -56 13 -154 14 -47 25 -66 42 -72 36 -14
46 24 31 118 -12 79 -24 112 -44 125 -18 12 -25 9 -42 -17z"/>
<path d="M22853 2490 c-12 -5 -27 -19 -34 -32 -7 -12 -18 -29 -26 -36 -18 -19
-16 -63 6 -114 23 -53 44 -72 73 -65 21 6 23 12 23 69 l0 63 30 -1 c17 0 32 3
35 8 8 11 50 -20 50 -38 0 -8 4 -14 9 -14 10 0 31 -77 31 -113 0 -38 24 -53
54 -34 21 14 23 22 19 69 -6 81 -29 131 -87 192 -52 55 -54 56 -107 55 -30 0
-64 -4 -76 -9z"/>
<path d="M23770 1520 c-26 -26 -34 -62 -26 -118 15 -100 22 -228 14 -245 -11
-21 10 -97 29 -104 7 -3 20 0 28 7 8 6 20 8 27 4 7 -4 10 -4 6 1 -4 4 -1 13 7
21 10 10 12 39 10 111 -4 129 -15 283 -22 308 -11 39 -43 45 -73 15z"/>
<path d="M21942 1368 c-15 -15 -15 -101 -1 -228 11 -91 15 -152 18 -267 1 -42
7 -59 29 -84 24 -27 31 -30 49 -21 11 6 23 18 27 27 12 33 -26 532 -44 566
-12 22 -59 26 -78 7z"/>
<path d="M21445 1354 c-16 -2 -68 -14 -113 -26 -82 -21 -84 -23 -105 -64 -27
-57 -13 -93 52 -130 53 -31 114 -91 137 -136 15 -29 15 -32 -8 -54 -25 -26
-100 -39 -130 -23 -28 15 -48 0 -48 -35 0 -52 59 -96 128 -96 33 0 51 8 95 44
44 36 57 54 66 90 18 72 -7 154 -66 214 -7 7 -13 16 -13 20 0 4 -16 18 -36 31
-46 32 -31 41 68 39 88 -1 128 16 128 56 0 53 -63 82 -155 70z"/>
<path d="M22484 1345 c-4 -9 -1 -35 5 -60 18 -73 17 -75 -39 -71 -42 4 -52 1
-65 -17 -8 -12 -15 -35 -15 -51 0 -22 -3 -27 -11 -19 -18 18 -86 -18 -73 -38
7 -12 -26 -108 -43 -125 -25 -25 -33 -15 -33 40 0 74 -13 106 -44 106 -38 0
-54 -24 -61 -95 -8 -71 13 -151 41 -162 8 -3 14 -11 14 -17 0 -7 11 -18 25
-24 22 -10 33 -8 73 12 27 14 55 38 66 56 l18 32 18 -39 c10 -21 32 -53 49
-72 31 -32 33 -33 51 -16 26 23 26 75 0 108 -11 14 -20 31 -20 39 0 18 -21 74
-48 127 -12 25 -20 47 -17 49 2 3 32 -3 65 -12 33 -9 64 -15 69 -12 18 11 30
-22 41 -106 12 -101 29 -152 50 -154 8 -1 21 -3 29 -5 30 -8 42 41 35 139 l-6
92 26 1 c14 1 32 2 39 3 6 0 13 13 15 27 4 32 -40 84 -79 94 -18 5 -31 19 -44
52 -33 79 -74 133 -101 133 -14 0 -27 -7 -30 -15z"/>
<path d="M22780 1278 c-23 -25 -25 -37 -8 -73 8 -18 19 -25 40 -25 17 0 28 -3
26 -7 -2 -5 -10 -20 -18 -36 -12 -24 -11 -37 4 -105 10 -42 21 -93 24 -112 10
-72 57 -106 92 -68 11 12 18 31 16 42 -18 93 -31 150 -48 201 -13 40 -18 73
-14 98 8 46 -5 72 -44 92 -38 20 -45 19 -70 -7z"/>
<path d="M23471 1202 c-8 -2 -28 -21 -45 -40 -17 -20 -39 -44 -49 -55 -10 -10
-22 -30 -28 -45 -10 -26 -11 -26 -21 -7 -47 90 -115 139 -186 133 -29 -2 -43
-11 -69 -46 -18 -24 -33 -54 -33 -66 0 -13 -9 -33 -20 -46 -32 -37 -26 -83 15
-125 20 -19 52 -42 71 -50 33 -13 41 -13 97 6 34 11 69 25 78 30 24 12 59 72
60 100 0 19 3 15 15 -16 22 -56 47 -106 57 -112 5 -3 19 0 32 7 20 11 26 25
36 102 16 113 25 127 60 96 38 -34 69 -83 69 -110 1 -38 33 -93 56 -96 90 -13
59 168 -48 280 -18 19 -42 40 -53 45 -27 14 -77 22 -94 15z m-242 -164 c11
-29 -3 -45 -45 -54 -28 -5 -32 -3 -38 21 -9 35 8 55 46 55 20 0 31 -6 37 -22z"/>
<path d="M21722 1145 c-87 -38 -162 -129 -162 -197 0 -88 58 -172 125 -180 45
-6 141 33 184 73 43 40 64 104 56 168 -4 31 -14 69 -22 84 -30 59 -111 82
-181 52z m104 -120 c9 -14 13 -32 9 -44 -9 -30 -59 -74 -99 -87 -31 -11 -36
-10 -56 11 -26 28 -21 50 20 90 25 24 72 49 102 54 4 0 15 -10 24 -24z"/>
<path d="M23816 957 l-49 -44 14 -36 c7 -21 24 -44 37 -53 22 -15 27 -14 77
17 64 39 72 53 48 88 -10 14 -22 35 -28 46 -18 34 -48 29 -99 -18z"/>
</g>
</svg>
