<?xml version="1.0" standalone="no"?>
<!DOCTYPE svg PUBLIC "-//W3C//DTD SVG 20010904//EN"
 "http://www.w3.org/TR/2001/REC-SVG-20010904/DTD/svg10.dtd">
<svg version="1.0" xmlns="http://www.w3.org/2000/svg"
 width="590.125304pt" height="400.000000pt" viewBox="0 0 590.125304 400.000000"
 preserveAspectRatio="xMidYMid meet">
<metadata>
Created by potrace 1.15, written by Peter Selinger 2001-2017
</metadata>
<g transform="translate(-15.702826,420.781304) scale(0.042121,-0.042121)"
fill="#444444" stroke="none">
<path d="M11437 9984 c-3 -3 -48 -7 -99 -9 -146 -5 -278 -14 -289 -20 -25 -16
-28 -43 -7 -70 21 -27 22 -27 120 -22 95 5 98 5 102 -16 21 -103 24 -165 20
-329 -4 -181 -4 -187 16 -198 35 -18 58 -4 67 43 9 46 7 280 -2 423 l-7 92 54
7 c60 8 88 27 88 61 0 29 -45 56 -63 38z"/>
<path d="M13851 9892 l-22 -17 21 -49 c22 -48 29 -141 13 -156 -4 -4 -57 -3
-118 3 -132 13 -435 11 -449 -3 -6 -6 -24 -10 -41 -10 -58 0 -85 -59 -44 -96
19 -17 40 -19 257 -20 131 -1 248 -6 262 -11 14 -5 50 -11 80 -12 30 -1 58 -6
62 -9 4 -4 3 -65 -3 -135 -12 -146 -8 -157 50 -157 34 0 45 8 121 91 92 101
123 119 204 119 48 0 56 3 72 28 10 15 17 34 17 44 -1 9 7 18 17 21 10 2 23
14 29 25 10 18 5 25 -38 56 -27 20 -53 36 -58 36 -5 0 -40 21 -78 46 -39 25
-97 60 -130 77 -37 18 -81 53 -114 88 -57 63 -76 70 -110 41z"/>
<path d="M11582 9880 c-40 -24 -40 -53 -1 -82 21 -16 32 -18 60 -11 29 8 34
14 37 41 7 68 -33 90 -96 52z"/>
<path d="M12465 9675 c-57 -30 -78 -53 -105 -111 -17 -36 -18 -48 -9 -103 9
-51 19 -72 58 -117 46 -54 76 -76 161 -115 25 -12 58 -27 73 -35 16 -8 36 -14
46 -14 27 0 59 40 69 87 8 35 7 43 -7 48 -10 4 -21 -1 -30 -14 -18 -27 -38
-26 -107 4 -91 40 -110 84 -49 109 96 40 122 86 109 186 -10 74 -29 93 -100
98 -49 3 -67 -1 -109 -23z m120 -79 c29 -44 11 -74 -62 -107 -36 -16 -69 -26
-74 -23 -14 8 -10 72 7 105 26 52 102 67 129 25z"/>
<path d="M11836 9635 l-50 -45 22 -87 c12 -49 22 -100 22 -114 0 -36 37 -81
63 -77 28 4 41 56 27 106 -13 47 -13 149 0 157 13 8 47 -49 61 -100 16 -57 23
-70 47 -73 26 -4 52 34 59 87 3 23 12 46 21 53 12 11 21 5 54 -31 46 -52 114
-183 123 -237 11 -59 30 -85 57 -75 16 6 23 17 24 40 1 18 4 35 8 38 7 8 -100
215 -125 242 -11 11 -19 24 -19 30 0 16 -92 91 -112 91 -11 0 -33 -11 -50 -25
-38 -32 -42 -31 -68 5 -23 32 -68 60 -97 60 -10 0 -40 -20 -67 -45z"/>
<path d="M11640 9655 c-10 -12 -13 -58 -12 -168 0 -144 1 -152 21 -161 17 -7
27 -4 47 15 l26 24 -7 140 c-4 77 -12 146 -17 153 -14 17 -43 15 -58 -3z"/>
<path d="M4649 8054 c-19 -24 -20 -42 -4 -114 8 -36 16 -91 18 -123 3 -52 1
-60 -17 -67 -31 -11 -58 -46 -54 -67 2 -10 17 -24 33 -32 58 -27 61 -32 63
-148 4 -169 10 -210 38 -228 26 -17 70 -20 79 -5 9 15 10 209 1 288 -8 69 -7
72 12 72 12 0 23 4 26 9 10 15 -12 62 -43 93 -23 23 -30 45 -43 121 -15 90
-61 207 -84 214 -6 2 -17 -4 -25 -13z"/>
<path d="M3180 7987 c-24 -13 -25 -16 -22 -97 2 -47 8 -93 14 -104 5 -10 10
-55 11 -100 0 -51 5 -89 14 -103 16 -24 21 -121 9 -170 -8 -29 -5 -34 25 -52
68 -42 173 -18 227 51 21 26 32 34 43 27 8 -5 24 -9 36 -9 12 0 34 -15 51 -35
29 -37 116 -75 167 -75 50 0 115 49 115 86 0 37 -22 46 -70 29 -51 -18 -82
-19 -98 -3 -19 19 -14 32 18 46 16 7 52 35 80 61 42 40 50 53 50 84 0 29 -6
41 -35 63 -30 23 -45 27 -109 28 -89 1 -101 -7 -148 -104 -37 -79 -69 -96
-101 -57 -41 51 -84 89 -124 108 -47 23 -49 28 -68 204 -8 75 -23 122 -41 129
-19 7 -14 8 -44 -7z m532 -389 c-18 -15 -42 -28 -53 -28 l-20 0 21 29 c15 23
28 29 52 29 l31 -1 -31 -29z m-363 -52 c33 -35 26 -90 -10 -94 -25 -3 -27 0
-34 47 -10 74 4 89 44 47z"/>
<path d="M2730 7928 c-19 -7 -21 -13 -16 -41 4 -17 12 -66 17 -107 6 -41 14
-79 19 -85 10 -12 25 -119 22 -162 -1 -18 3 -35 8 -38 6 -3 10 -17 10 -31 0
-13 4 -24 9 -24 5 0 9 -17 8 -37 -2 -76 6 -111 26 -117 28 -7 47 4 58 31 10
28 2 207 -12 268 -5 22 -12 69 -15 105 -4 36 -10 72 -14 80 -4 8 -11 35 -15
60 -14 87 -48 119 -105 98z"/>
<path d="M2958 7869 c-40 -23 -8 -99 42 -99 54 0 69 70 20 95 -34 17 -39 18
-62 4z"/>
<path d="M1895 7848 c-72 -25 -86 -78 -36 -138 30 -37 42 -81 66 -242 l14 -91
-29 -34 c-33 -37 -31 -54 12 -95 28 -28 40 -32 93 -28 31 2 139 52 162 76 8 8
18 14 22 14 5 0 19 16 32 36 22 32 27 35 61 30 21 -4 40 -2 43 4 9 15 25 2 25
-21 0 -21 68 -91 112 -115 52 -28 112 -29 157 -3 51 28 124 121 119 152 -5 34
-39 32 -78 -3 -19 -18 -55 -41 -79 -52 -41 -19 -47 -19 -77 -5 -30 15 -70 72
-56 81 4 2 36 13 72 25 78 25 160 90 160 126 0 81 -60 116 -211 122 -103 3
-108 3 -138 -22 -40 -34 -52 -79 -40 -158 11 -80 11 -77 -6 -77 -11 0 -14 12
-12 53 3 49 -10 96 -54 192 -17 39 -89 125 -103 125 -6 0 -27 8 -46 19 -30 16
-128 43 -148 40 -4 0 -20 -5 -37 -11z m155 -139 c42 -13 94 -83 115 -153 13
-44 9 -126 -6 -126 -5 0 -9 -6 -9 -12 -1 -15 -38 -44 -74 -57 -31 -13 -35 -4
-47 119 -5 52 -13 120 -18 150 -17 99 -19 96 39 79z m494 -119 c43 0 37 -17
-12 -34 -26 -10 -62 -24 -80 -32 -18 -8 -38 -12 -43 -9 -13 9 -11 48 4 67 14
19 64 28 89 16 9 -4 28 -8 42 -8z"/>
<path d="M4918 7849 c-31 -17 -22 -63 18 -97 39 -34 69 -33 60 2 -3 11 -6 35
-6 52 0 23 -6 34 -25 42 -30 14 -26 14 -47 1z"/>
<path d="M3985 7750 c-35 -15 -75 -66 -75 -97 0 -15 -4 -35 -10 -43 -5 -9 -5
-19 1 -26 6 -7 9 -18 8 -26 -1 -7 -1 -50 0 -95 1 -77 3 -85 32 -118 33 -37 68
-45 89 -20 13 15 13 21 -9 198 -18 139 2 161 114 123 74 -26 86 3 26 62 -49
48 -121 66 -176 42z"/>
<path d="M4310 7652 c-19 -9 -47 -28 -63 -41 -64 -57 -101 -172 -58 -186 10
-3 26 -14 36 -25 25 -27 62 -25 128 8 l56 29 13 -27 c30 -60 73 -118 104 -139
69 -48 114 2 56 63 -16 17 -33 42 -37 56 -4 14 -22 52 -41 86 -18 34 -36 81
-40 105 -13 84 -72 111 -154 71z"/>
<path d="M5654 7652 c-12 -4 -33 -21 -48 -39 -17 -20 -33 -30 -42 -26 -8 3
-24 -3 -35 -13 -18 -16 -20 -26 -14 -69 12 -91 34 -142 68 -159 30 -15 33 -14
49 4 9 11 20 46 23 78 4 31 12 72 18 89 11 32 37 50 56 38 24 -14 113 -238
104 -261 -7 -18 34 -64 57 -64 21 0 50 31 50 54 0 16 -53 149 -102 255 -12 26
-34 51 -54 63 -19 11 -34 23 -34 27 0 10 -46 31 -63 30 -7 -1 -22 -4 -33 -7z"/>
<path d="M5242 7603 c-42 -54 -52 -77 -52 -118 0 -60 78 -121 171 -132 60 -7
100 8 123 47 14 25 15 36 6 70 -6 23 -18 44 -26 47 -7 3 -14 13 -14 22 0 18
-47 58 -97 84 -51 27 -78 22 -111 -20z m127 -95 c37 -38 38 -45 6 -60 -34 -15
-75 12 -75 51 0 51 24 55 69 9z"/>
<path d="M4935 7600 c-17 -19 -18 -26 -5 -98 7 -42 15 -95 17 -117 7 -63 32
-105 65 -105 39 0 51 27 38 85 -6 26 -8 50 -6 53 2 4 -2 38 -10 75 -25 119
-57 154 -99 107z"/>
<path d="M2989 7593 c-19 -22 -16 -107 6 -172 19 -57 27 -65 58 -57 22 5 23
11 24 113 1 64 -2 112 -9 120 -15 18 -63 16 -79 -4z"/>
<path d="M1720 7138 c-25 -27 -61 -76 -80 -108 -19 -32 -57 -90 -83 -129 -47
-68 -75 -117 -142 -249 -18 -34 -38 -70 -46 -80 -8 -9 -28 -45 -44 -79 -16
-35 -32 -63 -37 -63 -4 0 -18 11 -30 25 -12 14 -28 25 -35 25 -7 0 -13 5 -13
11 0 5 -4 7 -10 4 -5 -3 -22 6 -36 20 -59 59 -123 33 -110 -45 4 -24 2 -49 -5
-61 -8 -16 -8 -32 0 -63 12 -44 15 -106 7 -171 -11 -104 -8 -201 7 -230 25
-48 72 -88 95 -81 10 4 49 40 86 81 36 40 76 77 89 80 54 17 145 61 181 89 22
17 53 38 69 46 43 22 54 43 37 74 -14 27 -34 37 -81 40 -17 1 -36 13 -49 29
-12 14 -39 31 -61 37 -21 6 -39 12 -39 15 0 8 58 126 98 200 12 22 35 70 52
107 31 70 168 297 202 334 10 11 18 23 18 27 0 4 20 32 45 63 50 61 52 66 29
88 -30 30 -66 19 -114 -36z"/>
<path d="M6505 6473 c-11 -2 -29 -8 -40 -13 -11 -5 -45 -19 -75 -30 -107 -41
-141 -79 -106 -119 24 -28 48 -142 57 -266 5 -66 6 -131 3 -144 -5 -25 28 -71
51 -71 40 0 70 101 62 202 l-6 72 27 -41 c42 -64 154 -169 195 -184 20 -7 37
-17 37 -21 0 -4 16 -14 36 -23 28 -11 39 -12 54 -2 47 29 35 56 -49 111 -74
48 -171 134 -171 151 0 7 -9 23 -21 36 l-20 23 50 12 c67 15 99 38 122 87 24
55 24 64 -7 132 -22 48 -33 59 -71 76 -42 18 -83 22 -128 12z m115 -125 c20
-36 6 -59 -45 -76 -51 -17 -150 -21 -150 -5 0 6 -3 14 -7 18 -15 15 8 38 66
65 75 36 115 35 136 -2z"/>
<path d="M7610 6462 c-65 -17 -130 -51 -183 -94 -21 -17 -29 -33 -30 -59 -1
-50 39 -90 139 -139 117 -57 157 -115 97 -138 -16 -6 -49 -16 -74 -23 -41 -9
-51 -8 -89 11 -42 22 -43 22 -62 2 -27 -26 -17 -72 20 -94 49 -29 112 -32 188
-9 103 31 132 58 147 138 5 28 2 36 -18 49 -14 9 -25 21 -25 28 -1 12 -34 38
-142 111 -38 25 -68 48 -68 51 0 14 100 65 149 75 77 16 114 36 106 57 -4 9
-10 25 -12 35 -7 22 -55 22 -143 -1z"/>
<path d="M8170 6449 c-52 -13 -164 -28 -260 -34 -60 -4 -92 -11 -110 -24 -35
-25 -37 -54 -5 -75 21 -14 40 -16 115 -10 l90 7 0 -34 c-1 -83 -20 -287 -29
-311 -20 -54 54 -103 91 -60 26 30 41 150 36 290 l-5 130 36 6 c20 3 50 6 66
6 58 0 95 53 67 97 -11 17 -52 23 -92 12z"/>
<path d="M3028 6404 c-36 -20 -69 -45 -71 -55 -7 -25 14 -68 36 -75 30 -9 35
-35 39 -186 3 -133 1 -148 -15 -160 -15 -11 -18 -25 -15 -73 3 -59 4 -60 43
-79 80 -38 140 -23 244 61 95 78 139 168 148 300 6 91 6 91 -70 191 -57 75
-111 104 -201 109 -66 3 -75 1 -138 -33z m207 -97 c7 -6 27 -23 44 -36 17 -13
31 -31 31 -42 0 -10 5 -21 10 -24 6 -4 8 -11 5 -16 -4 -5 2 -22 11 -39 16 -26
17 -34 5 -67 -7 -21 -20 -49 -29 -63 -9 -14 -15 -28 -14 -33 4 -13 -101 -100
-134 -111 -21 -6 -21 -4 -27 215 -3 122 -4 226 0 232 7 12 81 0 98 -16z"/>
<path d="M6828 6393 c-23 -25 -23 -64 0 -105 11 -18 25 -57 32 -86 10 -45 10
-56 -2 -70 -27 -31 -28 -50 -3 -76 15 -16 25 -43 30 -78 10 -78 13 -84 55
-118 49 -39 89 -44 202 -29 70 9 92 16 110 36 17 19 20 28 12 41 -17 26 -97
37 -179 24 -38 -6 -73 -8 -76 -4 -4 4 -10 28 -13 54 l-7 47 70 21 c39 11 81
18 94 15 33 -9 41 24 15 66 -19 31 -21 31 -71 26 -29 -3 -66 -9 -83 -12 -36
-8 -39 -4 -49 79 l-7 57 33 -1 c69 -1 159 13 170 26 15 18 2 51 -29 72 -18 12
-49 17 -106 18 -45 1 -103 5 -131 9 -42 6 -53 4 -67 -12z"/>
<path d="M4878 6333 c-23 -27 -18 -51 19 -83 37 -33 79 -48 94 -33 5 5 -1 33
-16 68 -20 52 -28 60 -52 63 -18 2 -35 -4 -45 -15z"/>
<path d="M4288 6269 c-42 -24 2 -89 60 -89 30 0 32 3 32 33 0 54 -47 83 -92
56z"/>
<path d="M5897 6222 c-10 -10 -17 -27 -17 -36 0 -18 35 -75 55 -88 16 -12 45
-9 45 4 0 6 7 19 16 29 21 23 23 87 4 100 -26 15 -86 10 -103 -9z"/>
<path d="M3644 6197 c-58 -28 -140 -126 -149 -180 -13 -77 24 -116 150 -156
89 -28 124 -32 166 -21 56 15 52 43 -11 78 -27 15 -50 30 -50 34 0 4 21 17 47
30 72 36 99 96 73 163 -19 49 -42 64 -110 70 -56 5 -72 3 -116 -18z m123 -100
c-9 -28 -127 -64 -127 -39 0 12 29 36 65 55 32 16 70 6 62 -16z"/>
<path d="M4734 6191 c-45 -8 -90 -39 -124 -89 -21 -30 -22 -35 -10 -78 13 -47
70 -114 97 -114 7 0 13 -9 13 -20 0 -20 -21 -25 -91 -20 -18 1 -32 -6 -43 -22
-21 -30 -20 -43 6 -68 26 -24 79 -26 156 -6 70 19 84 37 77 101 -6 49 -12 59
-64 95 -11 8 -21 20 -21 27 0 7 -4 13 -9 13 -5 0 -13 9 -16 21 -9 29 21 59 59
59 56 0 74 10 78 42 4 21 -1 37 -14 50 -19 19 -27 20 -94 9z"/>
<path d="M4132 6178 c-32 -7 -56 -23 -95 -64 -60 -63 -73 -104 -55 -173 24
-91 141 -164 226 -142 55 15 68 33 47 65 -17 26 -26 30 -87 41 -40 6 -78 47
-78 84 0 45 21 69 77 86 61 19 70 32 56 78 -10 36 -25 40 -91 25z"/>
<path d="M4937 6104 c-29 -16 -29 -16 -24 -92 8 -117 18 -186 29 -199 16 -20
46 -15 62 10 32 50 9 282 -30 293 -5 2 -22 -4 -37 -12z"/>
<path d="M5182 6103 c-44 -21 -67 -57 -82 -126 -7 -31 -15 -55 -18 -52 -8 7
-42 -26 -42 -41 0 -6 23 -27 52 -45 42 -27 62 -33 107 -34 78 0 111 19 143 85
24 47 27 62 20 100 -6 37 -16 51 -60 87 -58 47 -71 50 -120 26z m74 -130 c8
-32 -6 -57 -34 -61 -20 -3 -21 0 -15 30 11 59 38 77 49 31z"/>
<path d="M4409 6082 c-25 -25 -27 -72 -9 -164 14 -69 21 -85 42 -97 14 -8 32
-12 41 -8 23 9 32 90 18 158 -6 30 -11 67 -11 82 0 28 -3 32 -40 40 -16 3 -31
-1 -41 -11z"/>
<path d="M5433 6043 c-60 -53 -60 -201 0 -261 21 -21 28 -22 47 -12 24 13 24
9 4 132 -7 43 10 57 46 38 24 -13 81 -132 100 -209 12 -52 13 -52 48 -49 34 3
35 5 39 47 5 48 5 47 -51 161 -20 41 -36 81 -36 87 0 7 -23 31 -51 53 -62 49
-100 52 -146 13z"/>
<path d="M5930 5915 c-27 -9 -36 -18 -38 -39 -2 -16 4 -36 14 -47 37 -40 94
-11 94 49 0 41 -24 53 -70 37z"/>
<path d="M452 5696 c-19 -6 -45 -23 -59 -36 -27 -26 -27 -31 2 -155 31 -135
47 -259 41 -335 -3 -42 -1 -166 5 -275 6 -110 9 -229 8 -265 -1 -36 -2 -77 -1
-92 1 -15 -3 -30 -7 -33 -10 -5 -2 -47 20 -110 20 -60 29 -68 66 -62 18 3 32
3 30 -1 -1 -4 3 -8 8 -10 6 -2 18 -10 27 -19 15 -13 55 -16 239 -18 175 -2
223 -5 230 -16 8 -12 11 -12 22 1 16 21 54 22 82 4 13 -8 29 -14 37 -13 28 3
38 -2 38 -19 0 -10 4 -22 10 -28 5 -5 10 -56 11 -112 0 -56 7 -123 15 -149 8
-25 14 -86 14 -135 0 -49 5 -99 11 -111 18 -33 18 -339 0 -360 -9 -12 -10 -21
-3 -29 10 -14 10 -57 -3 -154 -7 -57 -5 -65 21 -112 26 -46 31 -50 73 -56 25
-3 47 -3 50 1 7 9 77 15 158 13 18 0 48 6 67 14 28 12 41 12 73 2 22 -8 66
-11 103 -9 36 2 74 4 85 5 37 1 100 -7 113 -15 6 -5 17 -5 23 -2 5 4 20 8 32
10 12 1 48 6 80 10 39 5 62 4 71 -4 10 -8 16 -9 21 -1 3 5 20 10 36 10 18 0
28 -4 24 -10 -3 -5 -2 -10 4 -10 5 0 12 4 15 8 6 10 216 14 216 4 0 -4 72 -7
160 -6 88 0 160 -2 160 -5 0 -3 53 -7 118 -7 64 -1 196 -4 292 -8 270 -9 691
-7 728 3 18 6 78 8 134 5 56 -2 139 1 185 6 46 6 197 13 336 15 317 6 473 14
562 26 39 6 138 12 220 14 83 3 202 7 265 11 63 3 149 5 190 4 41 -1 91 -2
110 -1 110 3 478 10 762 15 180 3 348 10 373 16 26 6 50 8 54 6 17 -11 841
-17 878 -6 21 5 54 24 73 42 34 31 34 33 38 125 3 56 -1 112 -8 140 -7 27 -16
77 -21 113 -4 36 -17 114 -28 174 -25 141 -45 375 -37 451 13 130 18 227 12
250 -7 29 -33 32 -77 10 -24 -13 -71 -15 -272 -14 -133 1 -276 -4 -317 -10
-374 -54 -593 -58 -1300 -20 -107 6 -319 15 -470 19 -151 5 -318 13 -370 19
-52 5 -178 13 -280 16 -102 3 -221 7 -265 10 -44 2 -138 0 -210 -5 -71 -5
-211 -12 -310 -16 -99 -4 -196 -8 -215 -10 -19 -2 -215 -3 -435 -4 -220 0
-425 -4 -455 -9 -100 -18 -638 -18 -780 -1 -47 5 -193 12 -325 15 -132 3 -341
7 -465 10 l-225 5 -8 83 c-4 45 -12 96 -17 113 -6 17 -10 77 -10 135 0 57 -5
136 -11 174 -5 39 -14 129 -19 200 -5 72 -11 150 -15 174 -3 25 -2 54 4 65 17
36 41 128 41 161 0 19 -12 50 -30 76 -16 24 -30 49 -30 55 0 22 -44 32 -95 22
-84 -15 -249 -25 -273 -16 -13 4 -56 11 -95 14 -40 3 -110 12 -156 20 -99 17
-134 17 -179 0z m103 -136 c3 -5 22 -10 40 -10 28 0 33 -3 28 -17 -5 -13 -2
-15 18 -9 54 17 69 18 69 6 0 -9 12 -11 43 -6 23 3 81 0 128 -7 55 -9 95 -10
110 -4 13 5 60 9 104 10 l80 2 3 -38 c2 -21 -4 -58 -14 -83 -14 -37 -16 -63
-10 -162 4 -64 9 -162 12 -217 2 -54 9 -115 14 -135 5 -20 6 -60 1 -92 -4 -32
-4 -58 1 -58 4 0 8 -29 8 -64 0 -36 4 -67 9 -71 14 -8 10 -145 -3 -145 -6 0
-5 -4 3 -9 18 -11 -203 -21 -409 -18 -134 2 -159 0 -187 -16 l-32 -18 1 188
c1 173 0 559 -2 678 -1 28 -6 70 -11 95 -6 25 -12 65 -14 90 -2 25 -7 62 -10
83 -7 35 5 52 20 27z m4734 -1271 c51 -5 99 -13 105 -16 6 -4 148 -9 316 -11
458 -5 631 -11 691 -22 29 -6 184 -13 343 -15 234 -5 311 -3 396 10 58 9 125
18 150 21 25 2 101 10 170 18 125 13 519 14 540 1 8 -5 7 -11 -1 -21 -22 -27
-27 -82 -12 -151 8 -37 16 -106 19 -153 2 -47 9 -111 14 -142 6 -31 13 -95 15
-142 3 -47 9 -96 14 -108 5 -13 9 -27 10 -33 0 -5 3 -28 5 -50 3 -22 7 -60 10
-85 2 -25 9 -58 16 -74 18 -49 9 -56 -73 -56 -41 0 -95 -6 -120 -14 -29 -9
-47 -10 -49 -4 -5 14 -88 22 -143 13 -35 -5 -45 -10 -41 -21 9 -24 -30 -16
-47 10 l-16 24 -298 -4 c-164 -2 -512 -6 -773 -9 -522 -6 -621 -10 -631 -26
-4 -7 -8 -5 -12 5 -5 13 -24 16 -98 16 -91 0 -283 -11 -499 -30 -63 -5 -180
-12 -260 -15 -249 -9 -334 -16 -360 -30 -14 -7 -52 -16 -85 -20 -33 -3 -76 -8
-95 -11 -40 -6 -461 -25 -595 -27 -49 -1 -182 1 -295 6 -113 4 -308 10 -435
12 -126 3 -313 12 -415 20 -142 11 -302 13 -690 9 -278 -4 -531 -9 -562 -13
-73 -10 -93 6 -78 60 18 67 21 328 4 454 -8 66 -19 156 -24 200 -4 44 -13 118
-19 165 -22 183 -23 218 -2 229 12 7 78 8 187 3 93 -5 179 -5 190 -1 14 5 27
2 37 -9 15 -14 18 -14 36 2 17 16 42 17 292 11 149 -3 288 -10 308 -16 36 -10
420 -7 646 6 97 6 232 9 268 6 39 -3 635 9 647 13 8 3 121 7 250 10 129 3 249
10 265 15 37 12 651 4 784 -10z"/>
<path d="M3490 4080 c-59 -6 -174 -56 -164 -72 3 -5 2 -14 -3 -21 -15 -21 -15
-65 2 -96 8 -17 15 -32 15 -33 -1 -2 2 -11 5 -21 4 -9 5 -32 2 -50 -3 -20 1
-38 10 -49 12 -13 15 -52 16 -187 1 -93 4 -171 7 -173 3 -2 18 -10 34 -18 27
-14 29 -13 52 13 13 15 21 34 18 42 -8 21 18 106 34 113 11 4 11 6 0 13 -11 7
-11 9 1 9 7 0 32 -16 55 -36 47 -40 47 -40 101 -74 47 -30 78 -44 124 -59 49
-16 69 -14 76 8 7 23 -77 119 -138 158 -44 28 -74 51 -96 76 -8 9 -21 17 -27
17 -6 0 -17 7 -24 15 -14 17 -14 17 87 102 81 68 102 137 64 212 -23 44 -82
99 -114 105 -50 10 -85 12 -137 6z m126 -142 c7 -5 15 -25 19 -45 5 -29 3 -40
-11 -50 -9 -7 -29 -23 -44 -35 -14 -13 -40 -31 -58 -41 -31 -18 -31 -18 -36 5
-3 13 -13 54 -22 91 -9 38 -12 73 -8 77 19 18 137 17 160 -2z"/>
<path d="M5100 4065 c-8 -2 -32 -6 -52 -10 -41 -6 -98 -48 -98 -71 0 -29 60
-53 129 -53 82 0 104 -4 109 -22 3 -8 10 -17 16 -21 7 -5 11 -77 11 -224 0
-201 2 -217 20 -230 30 -22 63 -17 82 13 15 23 18 51 18 198 0 93 -2 195 -5
225 l-5 55 68 -4 c98 -5 156 23 157 75 0 34 -22 44 -116 50 -49 3 -119 9 -156
15 -64 9 -146 10 -178 4z"/>
<path d="M3860 4039 c-31 -20 -39 -53 -20 -88 5 -10 10 -36 11 -59 2 -23 9
-44 16 -46 7 -3 13 -10 13 -17 0 -6 -7 -9 -15 -5 -13 5 -13 3 0 -18 8 -12 12
-26 8 -29 -3 -4 1 -13 10 -20 27 -19 60 -204 55 -305 l-3 -67 44 -3 c30 -2 50
3 62 14 13 12 26 14 46 9 15 -4 49 -9 75 -10 26 -2 52 -6 57 -10 6 -3 16 -3
23 1 6 4 39 6 73 5 55 -2 66 1 90 23 29 27 28 56 -2 56 -10 0 -27 6 -38 14
-20 13 -74 23 -180 32 -108 9 -125 24 -125 106 l0 37 53 6 c28 3 71 7 94 9 52
5 63 12 63 39 -1 34 -34 67 -67 67 -15 0 -65 5 -110 11 l-83 12 -10 36 c-17
63 -14 71 28 72 20 1 42 2 47 3 105 19 158 35 167 50 13 19 9 86 -5 86 -7 0
-88 2 -180 4 -148 3 -170 1 -197 -15z"/>
<path d="M4610 4000 c-19 -10 -42 -19 -51 -20 -17 0 -53 -36 -88 -87 -19 -28
-20 -37 -11 -78 6 -25 16 -55 23 -67 6 -11 68 -58 137 -104 69 -46 137 -94
153 -107 25 -21 26 -25 13 -42 -12 -17 -26 -20 -88 -19 -48 0 -84 6 -105 17
-40 21 -67 21 -98 1 -53 -35 -20 -79 93 -125 82 -32 98 -34 189 -18 51 9 70
18 98 46 43 43 46 89 11 160 -31 60 -72 100 -161 153 -74 44 -155 116 -155
136 0 24 86 47 145 40 59 -7 124 12 126 36 3 32 -4 64 -15 76 -7 8 -46 14 -97
17 -69 4 -90 1 -119 -15z"/>
<path d="M2927 5476 c-32 -13 -82 -44 -113 -67 -31 -24 -80 -58 -109 -74 -29
-17 -63 -42 -74 -57 -12 -14 -34 -29 -50 -33 -16 -3 -35 -13 -42 -21 -6 -8
-18 -14 -26 -14 -20 0 -123 -50 -123 -60 0 -4 -11 -11 -25 -14 -13 -3 -60 -41
-103 -84 -95 -95 -145 -130 -276 -194 -93 -46 -101 -48 -113 -32 -7 10 -13 24
-13 31 0 32 -31 72 -60 78 -39 8 -51 -2 -106 -85 -37 -55 -69 -97 -113 -145
-5 -5 -32 -32 -60 -59 -54 -52 -60 -71 -45 -146 8 -37 26 -47 57 -32 39 19 77
21 77 5 0 -11 5 -13 18 -7 32 14 114 17 122 4 5 -9 39 -13 103 -14 87 -1 98 1
121 23 13 12 27 34 30 47 7 27 -28 114 -45 114 -16 0 -6 62 11 70 94 43 140
68 168 92 18 15 36 28 40 28 4 0 23 15 42 33 128 118 164 148 198 164 20 9 64
33 97 53 33 20 76 44 95 54 116 58 241 150 404 297 35 32 38 39 27 53 -18 22
-46 20 -114 -8z"/>
<path d="M2168 2802 c-18 -20 -40 -52 -47 -70 -7 -17 -17 -32 -22 -32 -5 0 -8
-4 -6 -9 4 -15 -75 -120 -166 -223 -55 -62 -66 -91 -63 -163 2 -45 27 -85 53
-85 7 0 13 -4 13 -10 0 -16 36 -12 51 6 7 8 21 13 31 11 10 -3 18 -1 18 4 0 5
5 9 10 9 6 0 10 -12 10 -27 0 -22 2 -25 10 -13 8 12 10 11 10 -6 0 -11 -3 -24
-7 -28 -11 -10 -10 -75 0 -69 9 5 1 -152 -13 -242 -8 -55 -10 -89 -10 -181 0
-61 40 -123 74 -115 5 1 13 -4 17 -11 6 -9 9 -9 9 -1 0 6 11 25 25 41 23 28
24 36 23 148 0 126 7 238 18 256 4 6 6 49 5 95 -2 65 2 91 15 110 13 21 18 23
26 12 7 -11 11 -11 15 -1 2 6 13 12 23 12 10 0 20 -6 23 -12 3 -10 9 -10 23
-2 11 6 48 9 84 7 64 -3 66 -2 84 28 21 35 16 66 -17 100 -64 67 -147 224
-147 278 0 14 -4 42 -9 61 -6 19 -14 53 -20 76 -24 92 -84 111 -143 46z"/>
<path d="M4693 1636 c-15 -32 -15 -39 0 -93 10 -33 17 -71 17 -85 0 -25 -1
-26 -40 -17 -23 5 -50 15 -61 22 -16 10 -26 8 -57 -9 -52 -30 -63 -66 -32 -99
14 -15 32 -24 41 -22 8 2 24 -2 34 -9 10 -8 27 -14 37 -14 10 0 18 -4 18 -9 0
-5 10 -13 23 -17 37 -11 56 -39 58 -86 1 -23 1 -47 -1 -53 -1 -5 -2 -38 -1
-73 1 -54 5 -65 27 -85 73 -64 94 -35 94 132 0 66 3 122 8 124 4 2 41 0 83 -6
89 -12 125 -5 134 24 8 24 -23 59 -53 59 -10 0 -23 5 -30 12 -6 6 -22 12 -36
14 -29 3 -98 34 -108 48 -3 5 -9 30 -13 55 -16 115 -68 221 -107 221 -11 0
-25 -13 -35 -34z"/>
<path d="M5560 1571 c-19 -5 -26 -14 -28 -40 -2 -18 1 -38 6 -44 5 -7 19 -38
32 -71 l23 -58 -23 -18 c-13 -10 -39 -21 -58 -24 -106 -17 -89 -107 21 -112
28 -2 56 -3 60 -3 5 -1 5 -5 2 -11 -3 -5 -2 -10 4 -10 7 0 10 -40 9 -109 -1
-102 0 -111 23 -138 17 -20 31 -27 50 -25 37 4 52 57 53 184 l1 103 47 6 c55
8 68 15 68 35 0 34 17 8 39 -58 12 -40 27 -81 32 -90 5 -11 4 -18 -4 -21 -6
-2 6 -4 27 -5 22 -1 45 3 52 9 23 19 27 74 9 135 -24 84 -72 116 -109 75 -20
-22 -56 -24 -56 -4 0 16 -34 35 -85 48 -34 9 -40 16 -46 44 -4 19 -12 43 -17
55 -6 11 -20 42 -31 67 -31 67 -60 90 -101 80z"/>
<path d="M2759 1478 c-26 -29 -29 -39 -27 -85 2 -29 6 -53 10 -53 8 0 24 -116
19 -139 -1 -7 2 -10 8 -7 11 7 36 -64 50 -144 8 -46 7 -56 -7 -67 -16 -12 -16
-13 1 -7 12 5 17 1 17 -14 0 -12 5 -24 10 -27 6 -3 10 -22 10 -41 0 -19 4 -34
10 -34 5 0 18 -10 29 -21 39 -43 77 9 66 91 -3 25 -7 65 -10 90 -5 48 -33 156
-59 228 -9 24 -17 75 -17 114 -1 38 -5 83 -10 101 -16 57 -56 63 -100 15z"/>
<path d="M5846 1459 c-14 -11 -26 -28 -26 -38 0 -45 73 -67 119 -35 17 13 21
22 16 42 -13 52 -64 67 -109 31z"/>
<path d="M1653 1329 c-7 -7 -27 -13 -45 -15 -18 -2 -64 -10 -103 -18 -38 -9
-92 -16 -120 -16 -72 0 -89 -7 -109 -44 -22 -42 -13 -86 18 -86 17 0 18 -2 6
-10 -29 -19 13 -11 55 10 36 19 40 19 55 4 14 -15 13 -16 -2 -11 -10 4 -18 2
-18 -3 0 -14 37 -13 46 1 3 6 15 9 25 6 10 -3 20 0 23 7 3 7 10 5 19 -6 8 -10
19 -18 24 -18 15 0 23 -112 10 -128 -7 -9 -7 -16 0 -20 14 -10 22 -58 11 -74
-6 -10 -10 -10 -16 -1 -5 8 -13 9 -22 3 -8 -6 -43 -10 -78 -10 -57 0 -67 -3
-94 -30 -23 -23 -29 -36 -24 -55 4 -17 1 -27 -11 -34 -17 -10 -17 -10 1 -11
14 0 17 -5 12 -24 -3 -14 -2 -28 4 -31 5 -3 10 0 10 8 0 17 47 40 55 27 4 -6
-1 -10 -9 -10 -9 0 -16 -5 -16 -11 0 -5 3 -8 8 -5 4 2 29 0 56 -5 40 -7 54 -6
74 7 16 11 27 13 31 5 10 -16 51 -1 51 19 0 15 22 26 72 34 3 1 10 4 14 9 4 4
13 7 21 7 18 0 115 60 134 83 9 11 14 28 12 38 -5 16 -15 19 -64 19 -44 0 -61
4 -65 15 -4 8 -10 13 -14 10 -9 -6 -23 27 -26 60 -1 11 -5 55 -9 98 -7 71 -7
77 11 79 40 3 50 5 79 17 17 6 35 13 41 15 20 7 43 69 33 88 -8 15 -23 18 -82
18 -41 0 -78 -5 -84 -11z"/>
<path d="M5217 1300 c-45 -22 -185 -140 -186 -156 -1 -6 -10 -19 -21 -29 -11
-10 -18 -20 -15 -23 2 -3 0 -13 -6 -23 -24 -46 53 -109 134 -109 45 0 120 51
158 106 34 50 43 55 37 20 -3 -15 0 -27 8 -30 8 -3 21 -21 30 -40 17 -34 82
-76 119 -76 25 0 65 39 58 56 -3 7 -22 33 -44 56 -48 53 -111 178 -109 215 4
53 3 53 -62 53 -41 -1 -76 -7 -101 -20z m-5 -157 c-11 -15 -34 -36 -51 -46
-53 -31 -33 7 29 55 41 32 49 29 22 -9z"/>
<path d="M6534 1288 c-43 -45 -51 -63 -62 -143 -17 -126 2 -185 59 -185 45 0
58 31 57 133 -1 51 3 92 9 98 36 36 175 -157 177 -246 1 -39 2 -40 40 -43 32
-3 43 1 58 20 10 13 18 33 18 46 0 36 -61 161 -112 227 -71 93 -104 117 -163
122 -46 3 -53 1 -81 -29z"/>
<path d="M6223 1300 c-35 -11 -83 -62 -83 -90 0 -10 -7 -40 -16 -68 -16 -48
-16 -52 4 -79 24 -34 82 -52 165 -52 54 1 61 3 102 42 63 59 65 79 15 154 -23
34 -50 69 -60 78 -23 20 -84 28 -127 15z m57 -113 c0 -8 12 -19 26 -26 33 -15
27 -33 -15 -44 -41 -10 -46 -6 -33 32 7 19 7 31 1 31 -5 0 -9 5 -9 10 0 6 7
10 15 10 8 0 15 -6 15 -13z"/>
<path d="M4375 1291 c-40 -18 -66 -59 -86 -136 -10 -43 -19 -83 -18 -89 3 -28
-4 -35 -48 -49 -115 -36 -128 -31 -77 26 20 22 47 64 60 94 23 52 24 55 7 78
-27 36 -74 55 -140 55 -81 -1 -137 -27 -154 -74 -7 -20 -16 -36 -19 -36 -4 0
-12 -11 -18 -25 -15 -33 -30 -32 -38 3 -11 43 -64 140 -80 146 -20 8 -52 -9
-92 -50 l-32 -33 -27 25 c-21 19 -33 23 -59 18 -30 -5 -35 -3 -44 20 -12 32
-18 32 -61 3 -32 -22 -34 -27 -42 -102 -7 -67 -5 -82 8 -91 8 -6 15 -16 15
-22 0 -6 12 -36 26 -67 24 -50 28 -54 53 -49 38 10 37 9 50 60 l12 47 42 -6
c47 -6 97 16 97 45 0 36 17 25 34 -23 10 -27 22 -49 27 -49 5 0 18 -9 29 -20
18 -18 21 -18 35 -3 14 14 20 14 43 2 14 -8 40 -28 58 -46 18 -18 44 -35 58
-39 14 -3 26 -10 26 -14 0 -13 136 -3 166 13 16 8 40 27 53 41 31 33 55 33 69
1 14 -31 50 -33 83 -6 25 20 26 31 18 168 -2 34 -1 65 3 68 3 4 17 1 30 -6 47
-25 75 -64 94 -130 21 -76 45 -100 73 -75 10 9 22 16 28 16 18 0 25 53 14 101
-12 54 -39 119 -49 119 -4 0 -16 14 -27 30 -31 46 -150 82 -200 61z m-325
-142 c0 -6 5 -7 13 -2 20 13 37 12 37 -2 0 -14 -62 -65 -79 -65 -15 0 -14 53
1 68 15 15 28 15 28 1z"/>
<path d="M3102 1228 c-40 -25 -52 -53 -52 -119 0 -40 -3 -49 -17 -49 -27 -1
-53 -25 -62 -58 -8 -25 -5 -34 13 -51 12 -12 32 -21 44 -21 35 0 70 -21 76
-46 4 -13 19 -32 34 -41 15 -10 31 -23 35 -30 4 -7 14 -13 22 -13 7 0 16 -6
19 -12 5 -10 7 -10 12 0 3 6 14 12 23 12 15 0 71 42 129 98 21 19 8 37 -24 36
-40 -2 -93 -15 -99 -25 -8 -12 -53 34 -60 62 -6 23 -2 27 34 39 23 7 41 17 41
22 0 4 6 8 13 8 22 1 58 38 67 71 8 28 6 36 -23 70 -59 68 -159 90 -225 47z
m118 -108 c0 -9 -25 -20 -46 -20 -20 0 -17 28 4 32 21 5 42 -1 42 -12z"/>
<path d="M1915 1152 c-52 -51 -83 -111 -64 -122 7 -5 6 -15 -1 -34 -7 -20 -7
-25 1 -20 8 4 9 -1 4 -16 -5 -15 -4 -20 4 -16 7 5 11 -4 11 -23 0 -22 5 -31
16 -31 11 0 15 -6 11 -19 -10 -39 53 -77 90 -53 14 9 34 88 25 97 -4 3 0 11 8
16 11 8 12 12 3 16 -9 3 -13 25 -12 61 l1 57 12 -36 c14 -44 31 -66 67 -85 36
-18 69 -18 69 1 0 8 5 15 11 15 6 0 8 7 5 16 -4 10 -1 14 6 11 7 -2 13 -15 13
-28 0 -13 6 -24 13 -24 16 0 42 -50 42 -81 0 -13 4 -24 9 -24 13 0 34 -67 26
-80 -5 -8 7 -10 35 -7 53 5 79 36 80 90 0 25 4 36 11 31 6 -3 9 -17 6 -30 -2
-14 1 -25 10 -28 9 -4 11 -14 7 -30 -3 -14 1 -37 10 -54 20 -39 21 -66 1 -59
-8 4 -17 2 -20 -3 -4 -6 3 -10 14 -10 23 0 26 -12 10 -42 -8 -14 -8 -23 0 -31
6 -6 11 -21 11 -32 0 -31 33 -58 60 -50 49 16 74 118 53 220 -17 81 -16 105 2
105 26 0 88 36 116 67 49 54 62 83 50 110 -6 13 -9 28 -6 33 3 4 -20 25 -50
46 -48 33 -65 39 -128 43 -63 5 -78 3 -117 -17 -25 -13 -58 -39 -73 -58 -16
-19 -32 -34 -37 -34 -5 0 -14 17 -21 38 -18 57 -60 112 -86 112 -14 0 -36 -16
-59 -45 -36 -42 -39 -44 -56 -28 -10 9 -18 20 -18 25 0 20 -67 78 -95 84 -26
5 -37 -1 -80 -44z m658 -172 c16 -13 28 -16 32 -10 3 5 11 10 17 10 7 0 6 -6
-2 -15 -14 -16 -85 -21 -94 -6 -7 11 3 41 14 41 4 0 19 -9 33 -20z"/>
</g>
</svg>
