<?xml version="1.0" standalone="no"?>
<!DOCTYPE svg PUBLIC "-//W3C//DTD SVG 20010904//EN"
 "http://www.w3.org/TR/2001/REC-SVG-20010904/DTD/svg10.dtd">
<svg version="1.0" xmlns="http://www.w3.org/2000/svg"
 width="1097.155202pt" height="400.000000pt" viewBox="0 0 1097.155202 400.000000"
 preserveAspectRatio="xMidYMid meet">
<metadata>
Created by potrace 1.15, written by Peter Selinger 2001-2017
</metadata>
<g transform="translate(-29.468955,442.756501) scale(0.152702,-0.152702)"
fill="#444444" stroke="none">
<path d="M1255 2891 c-25 -11 -105 -95 -105 -110 0 -14 -43 -104 -58 -122 -7
-8 -36 -43 -67 -79 -30 -36 -55 -70 -55 -77 0 -7 -5 -24 -12 -38 -11 -24 -14
-25 -70 -20 -125 13 -213 -29 -238 -112 -12 -40 -11 -46 24 -117 27 -56 45
-80 69 -92 34 -18 32 -20 -24 -37 -19 -6 -99 -158 -99 -189 0 -13 -20 -44 -47
-73 -62 -67 -94 -129 -88 -169 17 -114 24 -154 34 -178 9 -24 7 -31 -13 -50
-24 -23 -60 -46 -128 -79 -20 -11 -40 -23 -43 -29 -4 -6 -33 -24 -66 -41 -71
-35 -92 -68 -64 -99 19 -21 55 -27 55 -10 0 18 33 10 124 -31 100 -46 136 -73
136 -102 0 -10 16 -50 36 -88 40 -76 89 -114 177 -138 l47 -14 0 -46 c0 -50
-15 -154 -31 -213 -6 -25 -20 -42 -43 -56 -18 -11 -46 -36 -61 -56 -26 -35
-27 -38 -12 -54 20 -19 69 -24 79 -8 4 6 9 3 13 -9 23 -72 69 -100 80 -48 3
15 9 41 13 56 l7 29 27 -21 c30 -24 56 -27 64 -7 6 15 -58 150 -76 161 -6 3
-8 10 -5 14 6 11 17 111 19 181 1 30 5 60 9 67 5 7 44 12 108 12 55 1 105 4
111 7 7 4 8 -14 3 -52 -4 -33 -7 -98 -8 -147 -1 -48 -5 -87 -8 -87 -9 0 -85
-129 -94 -157 -4 -17 0 -26 21 -39 26 -18 27 -18 50 11 13 17 24 36 24 43 0
19 4 16 63 -43 30 -30 60 -55 65 -55 6 0 14 10 17 21 5 15 -2 34 -23 64 -16
23 -33 52 -37 64 -6 20 -3 19 47 -10 29 -17 64 -41 78 -53 46 -42 91 -68 105
-62 43 16 -8 79 -145 180 -41 31 -79 57 -83 59 -5 1 -4 52 2 112 14 142 18
147 149 160 l97 10 22 56 c17 43 20 63 14 87 -7 24 -5 34 8 46 19 18 169 89
191 91 8 1 35 5 60 8 25 4 59 3 76 -2 61 -17 74 35 21 85 -17 18 -77 55 -132
84 -116 61 -165 91 -165 104 0 5 11 32 24 60 42 88 40 195 -4 277 -11 20 -20
39 -20 42 0 2 20 2 45 0 42 -5 70 2 145 40 36 18 49 84 26 132 -15 31 -97 103
-147 130 -24 12 -24 17 2 46 12 13 25 33 30 44 5 11 13 27 18 35 13 20 41 86
41 95 0 4 14 37 31 73 49 104 82 237 69 276 -20 61 -95 120 -245 192 -143 69
-212 86 -260 65z m243 -140 c67 -34 136 -77 154 -94 30 -31 31 -32 10 -35 -38
-6 -203 48 -251 81 -75 51 -124 99 -110 108 26 16 80 -1 197 -60z m-421 -360
c23 -16 47 -38 55 -48 21 -29 68 -60 144 -96 75 -37 198 -72 214 -62 22 14 28
-7 10 -38 -10 -18 -26 -58 -36 -89 -16 -52 -20 -58 -45 -58 -15 0 -40 6 -56
14 -15 7 -57 27 -93 43 -157 72 -220 107 -278 154 -59 48 -79 75 -48 63 9 -4
16 6 20 30 4 20 11 36 15 36 5 0 12 11 15 25 4 14 11 25 16 25 6 0 10 7 10 15
0 22 12 19 57 -14z m-105 -392 c23 -12 49 -30 57 -40 9 -10 47 -34 85 -53 l68
-33 -37 -7 c-28 -6 -51 -21 -85 -57 l-48 -50 -47 50 c-33 36 -58 53 -88 60
-111 26 -179 49 -168 55 6 4 11 16 11 27 0 10 6 19 14 19 8 0 16 7 20 15 3 8
16 15 28 15 13 0 30 5 38 10 27 17 108 11 152 -11z m-93 -219 c42 -19 52 -29
70 -70 12 -27 21 -57 21 -66 0 -15 -4 -14 -27 8 -16 13 -54 33 -85 42 -51 16
-59 16 -86 2 -38 -20 -51 -65 -28 -98 9 -12 16 -30 16 -38 0 -27 53 -58 105
-62 40 -4 51 -1 72 20 36 36 38 20 3 -32 -57 -85 -147 -116 -258 -91 -32 7
-81 65 -97 114 -11 36 -22 121 -16 121 4 0 5 15 3 34 -3 27 0 37 17 45 12 7
21 18 21 26 0 8 21 29 48 45 43 28 52 31 109 26 34 -3 85 -15 112 -26z m501
-38 c74 -37 94 -72 95 -172 0 -73 -2 -78 -34 -115 -52 -60 -84 -83 -124 -90
-29 -6 -37 -4 -35 6 2 8 -11 15 -35 19 -20 4 -47 16 -60 27 -12 11 -34 31 -50
43 -54 46 -63 71 -68 186 -2 30 25 80 40 76 7 -1 10 2 7 6 -9 14 26 40 59 44
67 8 151 -4 205 -30z m-346 -284 c7 -7 34 -32 59 -55 26 -24 44 -49 41 -56 -2
-7 9 -25 25 -41 26 -25 36 -28 109 -29 64 -2 82 -5 85 -18 5 -17 -10 -224 -18
-249 -3 -9 4 -26 15 -38 17 -18 19 -26 10 -42 -9 -17 -21 -20 -83 -20 -40 0
-167 -7 -283 -15 -225 -15 -255 -13 -319 28 -54 35 -67 88 -68 287 l0 125 34
-3 c18 -2 42 -10 53 -18 32 -22 144 -18 184 6 18 11 40 20 48 20 9 0 18 9 21
20 3 11 9 18 13 15 5 -3 12 5 16 17 4 13 16 31 26 40 11 9 17 22 13 27 -9 15
4 14 19 -1z m-517 -223 c-1 -77 -5 -86 -27 -61 -6 8 -28 20 -48 27 -57 18 -69
31 -40 43 12 5 27 8 32 7 5 -1 20 12 34 29 40 48 49 40 49 -45z m973 50 c22
-14 66 -37 98 -52 l57 -26 -50 -17 c-27 -9 -72 -27 -98 -39 -59 -26 -67 -26
-67 -3 0 14 2 15 10 2 8 -13 10 -13 10 2 0 9 -4 20 -10 23 -11 7 -14 118 -3
128 9 10 9 10 53 -18z"/>
<path d="M1110 1668 c-15 -24 -18 -42 -14 -68 17 -94 62 -129 150 -115 40 6
44 9 55 45 10 34 9 43 -12 81 -27 48 -87 89 -132 89 -20 0 -32 -8 -47 -32z"/>
<path d="M892 1275 c-13 -27 0 -69 55 -185 48 -100 51 -105 76 -108 23 -3 26
2 35 45 6 26 13 69 17 96 4 26 12 47 17 47 5 0 7 4 3 10 -3 5 0 18 7 29 10 17
9 25 -8 48 -34 45 -55 37 -78 -31 -19 -58 -20 -59 -29 -30 -23 74 -44 104 -76
104 -4 0 -13 -11 -19 -25z"/>
<path d="M4475 1839 c-4 -12 -4 -65 0 -118 13 -166 13 -193 4 -301 -16 -195
-28 -285 -49 -365 -11 -44 -18 -90 -15 -101 5 -24 27 -36 49 -28 16 6 36 47
36 74 0 10 5 31 11 47 6 15 13 41 14 56 2 16 8 34 14 40 6 6 11 19 11 29 0 27
22 12 53 -37 16 -25 32 -45 36 -45 4 0 24 -15 44 -32 19 -18 49 -43 65 -55 35
-26 92 -31 92 -8 0 8 -47 61 -104 118 -57 57 -112 119 -121 137 l-18 34 39 33
c22 18 74 56 117 84 78 52 89 67 62 89 -20 17 -70 -1 -149 -56 -36 -24 -72
-44 -80 -44 -20 0 -23 17 -25 149 -2 109 -23 290 -36 311 -11 18 -43 10 -50
-11z"/>
<path d="M6598 1798 c-13 -10 -17 -42 -22 -157 -3 -79 -7 -145 -9 -148 -2 -2
-27 2 -55 8 -58 14 -82 3 -82 -37 0 -28 24 -42 85 -51 26 -3 49 -12 52 -20 3
-7 0 -48 -6 -90 -18 -122 -26 -283 -13 -283 6 0 17 -3 25 -6 22 -8 41 32 43
91 1 28 5 66 9 85 4 19 7 62 7 95 0 112 -4 108 94 103 47 -2 87 0 91 5 8 14
-38 57 -63 57 -13 0 -25 4 -28 9 -3 5 -14 7 -24 5 -9 -3 -26 2 -37 10 -18 13
-20 26 -20 163 0 138 -5 173 -24 173 -4 0 -14 -6 -23 -12z"/>
<path d="M6158 1626 c-25 -18 -22 -30 8 -46 22 -12 27 -12 34 0 15 23 12 47
-6 54 -19 7 -15 8 -36 -8z"/>
<path d="M2540 1609 c-51 -11 -130 -47 -130 -59 0 -5 -5 -10 -10 -10 -19 0
-94 -54 -132 -95 -21 -22 -45 -60 -54 -85 -9 -25 -22 -57 -30 -71 -8 -15 -13
-38 -13 -50 1 -13 -3 -45 -10 -71 -8 -36 -8 -60 0 -95 6 -27 13 -64 15 -83 8
-64 24 -94 78 -152 68 -72 111 -93 216 -106 107 -13 222 0 305 34 33 14 74 30
90 36 55 21 106 58 103 76 -5 27 -86 28 -139 3 -75 -37 -167 -54 -289 -55
-128 -1 -156 8 -228 69 -36 31 -41 42 -57 119 -21 101 -17 195 13 279 24 68
52 104 109 143 24 16 43 32 43 35 0 4 28 19 63 35 57 27 71 29 182 29 l120 0
52 -40 c69 -52 98 -115 90 -194 -5 -48 -11 -61 -49 -98 -38 -37 -49 -42 -89
-43 -56 0 -68 11 -105 103 -14 38 -35 74 -45 80 -16 10 -17 13 -2 38 22 38 11
63 -25 54 -108 -26 -254 -155 -286 -253 -21 -61 -16 -88 20 -132 37 -43 75
-60 137 -60 92 0 117 9 168 63 36 38 51 48 61 40 22 -18 100 -23 133 -9 42 18
119 106 133 154 18 59 15 134 -9 196 -25 68 -105 145 -170 166 -49 15 -204 20
-259 9z m56 -301 c0 -24 9 -71 19 -105 23 -74 14 -98 -45 -132 -45 -25 -80
-27 -127 -4 -66 31 -68 80 -6 157 33 40 137 126 152 126 3 0 6 -19 7 -42z"/>
<path d="M5874 1497 c-50 -27 -194 -156 -194 -175 0 -7 7 -23 15 -36 9 -13 20
-63 26 -112 14 -124 16 -131 39 -137 35 -9 43 25 36 147 -8 125 -1 148 56 202
49 46 80 65 92 55 6 -4 19 -11 29 -14 13 -5 17 -1 17 17 0 28 -27 62 -55 70
-11 3 -38 -5 -61 -17z"/>
<path d="M7085 1454 c-56 -29 -90 -71 -147 -183 -40 -81 -44 -103 -27 -166 20
-74 106 -129 204 -129 70 0 202 38 243 70 23 19 25 24 13 38 -17 20 -38 20
-87 0 -52 -22 -170 -35 -214 -24 -63 17 -104 73 -62 86 57 19 131 50 153 65
14 10 36 20 50 24 14 3 38 19 53 36 15 16 31 29 36 29 4 0 11 16 14 35 9 48
-15 96 -63 123 -51 29 -106 28 -166 -4z m153 -71 c22 -30 9 -45 -68 -84 -129
-64 -170 -79 -170 -64 0 20 35 81 65 113 55 60 141 77 173 35z"/>
<path d="M3555 1430 c-93 -24 -213 -80 -249 -116 -57 -57 -88 -184 -57 -234
33 -54 64 -74 129 -84 54 -8 76 3 181 94 45 39 86 68 91 65 5 -3 17 -31 27
-63 24 -81 46 -109 87 -114 30 -3 36 0 41 19 4 17 -1 30 -18 46 -25 23 -115
237 -124 294 -4 25 -1 37 16 50 15 13 19 25 15 41 -8 28 -41 28 -139 2z m24
-165 l-2 -75 -61 -50 c-33 -28 -76 -55 -95 -60 -45 -12 -98 9 -106 43 -9 33
35 119 75 147 38 27 137 68 168 69 22 1 23 -2 21 -74z"/>
<path d="M5483 1438 c-14 -17 -43 -104 -53 -153 -15 -77 -54 -175 -69 -173 -8
2 -26 24 -40 51 -35 64 -75 107 -99 107 -22 0 -72 -53 -72 -76 0 -8 -12 -25
-27 -38 l-27 -23 -23 46 c-12 25 -23 58 -23 72 0 26 -30 170 -36 178 -9 10
-54 -32 -54 -49 0 -26 48 -230 59 -250 5 -9 12 -30 15 -47 17 -75 71 -64 142
28 25 33 47 59 50 59 10 0 54 -54 54 -66 0 -8 5 -14 10 -14 6 0 10 -5 10 -11
0 -18 54 -69 72 -69 27 0 63 66 98 176 17 55 37 115 45 134 21 53 23 72 8 103
-15 30 -25 34 -40 15z"/>
<path d="M4114 1386 c-42 -15 -106 -61 -122 -87 -7 -11 -19 -18 -27 -15 -7 2
-21 -6 -30 -21 -13 -19 -14 -31 -7 -51 6 -15 13 -66 16 -114 7 -105 11 -116
43 -124 38 -10 44 10 37 122 -6 87 -4 106 11 131 24 41 106 88 183 104 34 7
62 16 62 19 0 3 -7 16 -16 28 -12 18 -24 22 -67 21 -29 -1 -66 -6 -83 -13z"/>
<path d="M6146 1357 c-13 -20 -14 -34 -2 -112 7 -49 9 -106 6 -127 -6 -32 -4
-38 13 -44 14 -4 25 -1 33 11 41 56 19 295 -27 295 -5 0 -15 -10 -23 -23z"/>
</g>
</svg>
